<?xml version="1.0"?>
<!DOCTYPE lmms-project>
<lmms-project type="song" creatorversion="1.2.2" creator="LMMS" version="1.0">
  <head mastervol="88" masterpitch="0">
    <bpm id="2356958" scale_type="linear" value="201"/>
    <timesig_numerator id="545120" scale_type="linear" value="4"/>
    <timesig_denominator id="114903" scale_type="linear" value="4"/>
  </head>
  <song>
    <trackcontainer type="song" width="600" visible="1" x="106" height="300" maximized="1" minimized="0" y="33">
      <track name="intro1" muted="0" type="1" solo="0">
        <bbtrack>
          <trackcontainer type="bbtrackcontainer" width="1042" visible="0" x="52" height="378" maximized="1" minimized="0" y="41">
            <track name="kick.wav" muted="0" type="0" solo="0">
              <instrumenttrack vol="100" pitch="0" pitchrange="1" basenote="57" pan="0" fxch="1" usemasterpitch="1">
                <instrument name="audiofileprocessor">
                  <audiofileprocessor eframe="1" reversed="0" src="/home/huggypie/samples/sillydrums/kick.wav" amp="100" looped="0" stutter="0" interp="0" sframe="0" lframe="0"/>
                </instrument>
                <eldata ftype="0" fres="0.5" fwet="0" fcut="14000">
                  <elvol dec="2" sustain="1" pdel="0" lpdel="0" rel="2" lspd="0.1" userwavefile="" hold="2" lamt="0" lspd_numerator="4" lspd_syncmode="0" lshp="0" amt="1" x100="0" latt="0" lspd_denominator="4" ctlenvamt="0" att="0"/>
                  <elcut dec="0.5" sustain="0.5" pdel="0" lpdel="0" rel="0.1" lspd="0.1" userwavefile="" hold="0.5" lamt="0" lspd_numerator="4" lspd_syncmode="0" lshp="0" amt="0" x100="0" latt="0" lspd_denominator="4" ctlenvamt="0" att="0"/>
                  <elres dec="0.5" sustain="0.5" pdel="0" lpdel="0" rel="0.1" lspd="0.1" userwavefile="" hold="0.5" lamt="0" lspd_numerator="4" lspd_syncmode="0" lshp="0" amt="0" x100="0" latt="0" lspd_denominator="4" ctlenvamt="0" att="0"/>
                </eldata>
                <chordcreator chord="0" chord-enabled="0" chordrange="1"/>
                <arpeggiator arprange="1" arptime_denominator="4" arpgate="100" arptime_syncmode="0" arp="0" arpmode="0" arpmiss="0" arpdir="0" arptime_numerator="4" arp-enabled="0" arpcycle="0" arpskip="0" arptime="200"/>
                <midiport outputchannel="1" inputcontroller="0" outputcontroller="0" basevelocity="63" fixedinputvelocity="-1" fixedoutputvelocity="-1" outputprogram="1" readable="0" writable="0" fixedoutputnote="-1" inputchannel="0"/>
                <fxchain numofeffects="0" enabled="0"/>
              </instrumenttrack>
              <pattern name="kick.wav" muted="0" type="0" steps="64" pos="0">
                <note key="57" vol="100" pan="0" len="-192" pos="0"/>
                <note key="57" vol="100" pan="0" len="-192" pos="384"/>
              </pattern>
              <pattern name="kick.wav" muted="0" type="0" steps="64" pos="192">
                <note key="57" vol="100" pan="0" len="-192" pos="0"/>
                <note key="57" vol="100" pan="0" len="-192" pos="384"/>
                <note key="57" vol="100" pan="0" len="-192" pos="720"/>
                <note key="57" vol="100" pan="0" len="-192" pos="732"/>
                <note key="57" vol="100" pan="0" len="-192" pos="744"/>
                <note key="57" vol="100" pan="0" len="-192" pos="756"/>
              </pattern>
              <pattern name="kick.wav" muted="0" type="0" steps="32" pos="384">
                <note key="57" vol="100" pan="0" len="-192" pos="0"/>
                <note key="57" vol="100" pan="0" len="-192" pos="72"/>
                <note key="57" vol="100" pan="0" len="-192" pos="144"/>
                <note key="57" vol="100" pan="0" len="-192" pos="216"/>
                <note key="57" vol="100" pan="0" len="-192" pos="288"/>
                <note key="57" vol="100" pan="0" len="-192" pos="312"/>
                <note key="57" vol="100" pan="0" len="-192" pos="360"/>
                <note key="57" vol="100" pan="0" len="-192" pos="372"/>
              </pattern>
              <pattern name="kick.wav" muted="0" type="0" steps="64" pos="576">
                <note key="57" vol="100" pan="0" len="-192" pos="0"/>
                <note key="57" vol="100" pan="0" len="-192" pos="12"/>
                <note key="57" vol="100" pan="0" len="-192" pos="24"/>
                <note key="57" vol="100" pan="0" len="-192" pos="36"/>
                <note key="57" vol="100" pan="0" len="-192" pos="48"/>
                <note key="57" vol="100" pan="0" len="-192" pos="60"/>
                <note key="57" vol="100" pan="0" len="-192" pos="72"/>
                <note key="57" vol="100" pan="0" len="-192" pos="84"/>
                <note key="57" vol="100" pan="0" len="-192" pos="96"/>
                <note key="57" vol="100" pan="0" len="-192" pos="108"/>
                <note key="57" vol="100" pan="0" len="-192" pos="120"/>
                <note key="57" vol="100" pan="0" len="-192" pos="132"/>
                <note key="57" vol="100" pan="0" len="-192" pos="144"/>
                <note key="57" vol="100" pan="0" len="-192" pos="156"/>
                <note key="57" vol="100" pan="0" len="-192" pos="168"/>
                <note key="57" vol="100" pan="0" len="-192" pos="180"/>
                <note key="57" vol="100" pan="0" len="-192" pos="192"/>
                <note key="57" vol="100" pan="0" len="-192" pos="204"/>
                <note key="57" vol="100" pan="0" len="-192" pos="216"/>
                <note key="57" vol="100" pan="0" len="-192" pos="228"/>
                <note key="57" vol="100" pan="0" len="-192" pos="240"/>
                <note key="57" vol="100" pan="0" len="-192" pos="252"/>
                <note key="57" vol="100" pan="0" len="-192" pos="264"/>
                <note key="57" vol="100" pan="0" len="-192" pos="276"/>
                <note key="57" vol="100" pan="0" len="-192" pos="288"/>
                <note key="57" vol="100" pan="0" len="-192" pos="300"/>
                <note key="57" vol="100" pan="0" len="-192" pos="312"/>
                <note key="57" vol="100" pan="0" len="-192" pos="324"/>
                <note key="57" vol="100" pan="0" len="-192" pos="336"/>
                <note key="57" vol="100" pan="0" len="-192" pos="348"/>
                <note key="57" vol="100" pan="0" len="-192" pos="360"/>
                <note key="57" vol="100" pan="0" len="-192" pos="372"/>
                <note key="57" vol="100" pan="0" len="-192" pos="384"/>
                <note key="57" vol="100" pan="0" len="-192" pos="396"/>
                <note key="57" vol="100" pan="0" len="-192" pos="408"/>
                <note key="57" vol="100" pan="0" len="-192" pos="420"/>
                <note key="57" vol="100" pan="0" len="-192" pos="432"/>
                <note key="57" vol="100" pan="0" len="-192" pos="444"/>
                <note key="57" vol="100" pan="0" len="-192" pos="456"/>
                <note key="57" vol="100" pan="0" len="-192" pos="468"/>
                <note key="57" vol="100" pan="0" len="-192" pos="480"/>
                <note key="57" vol="100" pan="0" len="-192" pos="492"/>
                <note key="57" vol="100" pan="0" len="-192" pos="504"/>
                <note key="57" vol="100" pan="0" len="-192" pos="516"/>
                <note key="57" vol="100" pan="0" len="-192" pos="528"/>
                <note key="57" vol="100" pan="0" len="-192" pos="540"/>
                <note key="57" vol="100" pan="0" len="-192" pos="552"/>
                <note key="57" vol="100" pan="0" len="-192" pos="564"/>
                <note key="57" vol="100" pan="0" len="-192" pos="576"/>
                <note key="57" vol="100" pan="0" len="-192" pos="588"/>
                <note key="57" vol="100" pan="0" len="-192" pos="600"/>
                <note key="57" vol="100" pan="0" len="-192" pos="612"/>
                <note key="57" vol="100" pan="0" len="-192" pos="624"/>
                <note key="57" vol="100" pan="0" len="-192" pos="636"/>
                <note key="57" vol="100" pan="0" len="-192" pos="648"/>
                <note key="57" vol="100" pan="0" len="-192" pos="660"/>
                <note key="57" vol="100" pan="0" len="-192" pos="672"/>
                <note key="57" vol="100" pan="0" len="-192" pos="684"/>
                <note key="57" vol="100" pan="0" len="-192" pos="696"/>
                <note key="57" vol="100" pan="0" len="-192" pos="708"/>
                <note key="57" vol="100" pan="0" len="-192" pos="720"/>
                <note key="57" vol="100" pan="0" len="-192" pos="732"/>
                <note key="57" vol="100" pan="0" len="-192" pos="744"/>
                <note key="57" vol="100" pan="0" len="-192" pos="756"/>
              </pattern>
              <pattern name="kick.wav" muted="0" type="0" steps="16" pos="768">
                <note key="57" vol="100" pan="0" len="-192" pos="0"/>
                <note key="57" vol="100" pan="0" len="-192" pos="12"/>
                <note key="57" vol="100" pan="0" len="-192" pos="24"/>
                <note key="57" vol="100" pan="0" len="-192" pos="36"/>
                <note key="57" vol="100" pan="0" len="-192" pos="48"/>
                <note key="57" vol="100" pan="0" len="-192" pos="60"/>
                <note key="57" vol="100" pan="0" len="-192" pos="72"/>
                <note key="57" vol="100" pan="0" len="-192" pos="84"/>
                <note key="57" vol="100" pan="0" len="-192" pos="96"/>
                <note key="57" vol="100" pan="0" len="-192" pos="108"/>
                <note key="57" vol="100" pan="0" len="-192" pos="120"/>
                <note key="57" vol="100" pan="0" len="-192" pos="132"/>
                <note key="57" vol="100" pan="0" len="-192" pos="144"/>
                <note key="57" vol="100" pan="0" len="-192" pos="156"/>
                <note key="57" vol="100" pan="0" len="-192" pos="168"/>
                <note key="57" vol="100" pan="0" len="-192" pos="180"/>
              </pattern>
              <pattern name="kick.wav" muted="0" type="0" steps="64" pos="960">
                <note key="57" vol="100" pan="0" len="-192" pos="0"/>
                <note key="57" vol="100" pan="0" len="-192" pos="48"/>
                <note key="57" vol="100" pan="0" len="-192" pos="96"/>
                <note key="57" vol="100" pan="0" len="-192" pos="144"/>
                <note key="57" vol="100" pan="0" len="-192" pos="156"/>
                <note key="57" vol="100" pan="0" len="-192" pos="168"/>
                <note key="57" vol="100" pan="0" len="-192" pos="180"/>
                <note key="57" vol="100" pan="0" len="-192" pos="192"/>
                <note key="57" vol="100" pan="0" len="-192" pos="240"/>
                <note key="57" vol="100" pan="0" len="-192" pos="288"/>
                <note key="57" vol="100" pan="0" len="-192" pos="336"/>
                <note key="57" vol="100" pan="0" len="-192" pos="348"/>
                <note key="57" vol="100" pan="0" len="-192" pos="360"/>
                <note key="57" vol="100" pan="0" len="-192" pos="372"/>
                <note key="57" vol="100" pan="0" len="-192" pos="384"/>
                <note key="57" vol="100" pan="0" len="-192" pos="432"/>
                <note key="57" vol="100" pan="0" len="-192" pos="480"/>
                <note key="57" vol="100" pan="0" len="-192" pos="528"/>
                <note key="57" vol="100" pan="0" len="-192" pos="540"/>
                <note key="57" vol="100" pan="0" len="-192" pos="552"/>
                <note key="57" vol="100" pan="0" len="-192" pos="564"/>
                <note key="57" vol="100" pan="0" len="-192" pos="576"/>
                <note key="57" vol="100" pan="0" len="-192" pos="588"/>
                <note key="57" vol="100" pan="0" len="-192" pos="600"/>
                <note key="57" vol="100" pan="0" len="-192" pos="612"/>
                <note key="57" vol="100" pan="0" len="-192" pos="624"/>
                <note key="57" vol="100" pan="0" len="-192" pos="636"/>
                <note key="57" vol="100" pan="0" len="-192" pos="648"/>
                <note key="57" vol="100" pan="0" len="-192" pos="660"/>
                <note key="57" vol="100" pan="0" len="-192" pos="672"/>
                <note key="57" vol="100" pan="0" len="-192" pos="684"/>
                <note key="57" vol="100" pan="0" len="-192" pos="696"/>
                <note key="57" vol="100" pan="0" len="-192" pos="708"/>
                <note key="57" vol="100" pan="0" len="-192" pos="720"/>
                <note key="57" vol="100" pan="0" len="-192" pos="732"/>
                <note key="57" vol="100" pan="0" len="-192" pos="744"/>
                <note key="57" vol="100" pan="0" len="-192" pos="756"/>
              </pattern>
              <pattern name="kick.wav" muted="0" type="0" steps="64" pos="1152">
                <note key="57" vol="100" pan="0" len="-192" pos="0"/>
                <note key="57" vol="100" pan="0" len="-192" pos="48"/>
                <note key="57" vol="100" pan="0" len="-192" pos="96"/>
                <note key="57" vol="100" pan="0" len="-192" pos="144"/>
                <note key="57" vol="100" pan="0" len="-192" pos="156"/>
                <note key="57" vol="100" pan="0" len="-192" pos="168"/>
                <note key="57" vol="100" pan="0" len="-192" pos="180"/>
                <note key="57" vol="100" pan="0" len="-192" pos="192"/>
                <note key="57" vol="100" pan="0" len="-192" pos="240"/>
                <note key="57" vol="100" pan="0" len="-192" pos="288"/>
                <note key="57" vol="100" pan="0" len="-192" pos="336"/>
                <note key="57" vol="100" pan="0" len="-192" pos="348"/>
                <note key="57" vol="100" pan="0" len="-192" pos="360"/>
                <note key="57" vol="100" pan="0" len="-192" pos="372"/>
                <note key="57" vol="100" pan="0" len="-192" pos="384"/>
                <note key="57" vol="100" pan="0" len="-192" pos="432"/>
                <note key="57" vol="100" pan="0" len="-192" pos="480"/>
                <note key="57" vol="100" pan="0" len="-192" pos="528"/>
                <note key="57" vol="100" pan="0" len="-192" pos="540"/>
                <note key="57" vol="100" pan="0" len="-192" pos="552"/>
                <note key="57" vol="100" pan="0" len="-192" pos="564"/>
                <note key="57" vol="100" pan="0" len="-192" pos="576"/>
                <note key="57" vol="100" pan="0" len="-192" pos="624"/>
                <note key="57" vol="100" pan="0" len="-192" pos="672"/>
                <note key="57" vol="100" pan="0" len="-192" pos="720"/>
                <note key="57" vol="100" pan="0" len="-192" pos="732"/>
                <note key="57" vol="100" pan="0" len="-192" pos="744"/>
                <note key="57" vol="100" pan="0" len="-192" pos="756"/>
              </pattern>
              <pattern name="kick.wav" muted="0" type="0" steps="32" pos="1344">
                <note key="57" vol="100" pan="0" len="-192" pos="0"/>
              </pattern>
              <pattern name="kick.wav" muted="0" type="0" steps="64" pos="1536">
                <note key="57" vol="100" pan="0" len="-192" pos="0"/>
                <note key="57" vol="100" pan="0" len="-192" pos="12"/>
                <note key="57" vol="100" pan="0" len="-192" pos="24"/>
                <note key="57" vol="100" pan="0" len="-192" pos="48"/>
                <note key="57" vol="100" pan="0" len="-192" pos="60"/>
                <note key="57" vol="100" pan="0" len="-192" pos="72"/>
                <note key="57" vol="100" pan="0" len="-192" pos="96"/>
                <note key="57" vol="100" pan="0" len="-192" pos="108"/>
                <note key="57" vol="100" pan="0" len="-192" pos="120"/>
                <note key="57" vol="100" pan="0" len="-192" pos="144"/>
                <note key="57" vol="100" pan="0" len="-192" pos="156"/>
                <note key="57" vol="100" pan="0" len="-192" pos="168"/>
                <note key="57" vol="100" pan="0" len="-192" pos="192"/>
                <note key="57" vol="100" pan="0" len="-192" pos="204"/>
                <note key="57" vol="100" pan="0" len="-192" pos="216"/>
                <note key="57" vol="100" pan="0" len="-192" pos="240"/>
                <note key="57" vol="100" pan="0" len="-192" pos="252"/>
                <note key="57" vol="100" pan="0" len="-192" pos="264"/>
                <note key="57" vol="100" pan="0" len="-192" pos="276"/>
                <note key="57" vol="100" pan="0" len="-192" pos="288"/>
                <note key="57" vol="100" pan="0" len="-192" pos="300"/>
                <note key="57" vol="100" pan="0" len="-192" pos="312"/>
                <note key="57" vol="100" pan="0" len="-192" pos="324"/>
                <note key="57" vol="100" pan="0" len="-192" pos="336"/>
                <note key="57" vol="100" pan="0" len="-192" pos="348"/>
                <note key="57" vol="100" pan="0" len="-192" pos="360"/>
                <note key="57" vol="100" pan="0" len="-192" pos="372"/>
                <note key="57" vol="100" pan="0" len="-192" pos="384"/>
                <note key="57" vol="100" pan="0" len="-192" pos="396"/>
                <note key="57" vol="100" pan="0" len="-192" pos="408"/>
                <note key="57" vol="100" pan="0" len="-192" pos="432"/>
                <note key="57" vol="100" pan="0" len="-192" pos="444"/>
                <note key="57" vol="100" pan="0" len="-192" pos="456"/>
                <note key="57" vol="100" pan="0" len="-192" pos="480"/>
                <note key="57" vol="100" pan="0" len="-192" pos="492"/>
                <note key="57" vol="100" pan="0" len="-192" pos="504"/>
                <note key="57" vol="100" pan="0" len="-192" pos="528"/>
                <note key="57" vol="100" pan="0" len="-192" pos="540"/>
                <note key="57" vol="100" pan="0" len="-192" pos="552"/>
                <note key="57" vol="100" pan="0" len="-192" pos="576"/>
                <note key="57" vol="100" pan="0" len="-192" pos="588"/>
                <note key="57" vol="100" pan="0" len="-192" pos="600"/>
                <note key="57" vol="100" pan="0" len="-192" pos="624"/>
                <note key="57" vol="100" pan="0" len="-192" pos="636"/>
                <note key="57" vol="100" pan="0" len="-192" pos="648"/>
                <note key="57" vol="100" pan="0" len="-192" pos="660"/>
                <note key="57" vol="100" pan="0" len="-192" pos="672"/>
                <note key="57" vol="100" pan="0" len="-192" pos="684"/>
                <note key="57" vol="100" pan="0" len="-192" pos="696"/>
                <note key="57" vol="100" pan="0" len="-192" pos="708"/>
                <note key="57" vol="100" pan="0" len="-192" pos="720"/>
                <note key="57" vol="100" pan="0" len="-192" pos="732"/>
                <note key="57" vol="100" pan="0" len="-192" pos="744"/>
                <note key="57" vol="100" pan="0" len="-192" pos="756"/>
              </pattern>
              <pattern name="kick.wav" muted="0" type="0" steps="32" pos="1728">
                <note key="57" vol="100" pan="0" len="-192" pos="0"/>
                <note key="57" vol="100" pan="0" len="-192" pos="12"/>
                <note key="57" vol="100" pan="0" len="-192" pos="24"/>
                <note key="57" vol="100" pan="0" len="-192" pos="36"/>
                <note key="57" vol="100" pan="0" len="-192" pos="48"/>
                <note key="57" vol="100" pan="0" len="-192" pos="60"/>
                <note key="57" vol="100" pan="0" len="-192" pos="72"/>
                <note key="57" vol="100" pan="0" len="-192" pos="84"/>
                <note key="57" vol="100" pan="0" len="-192" pos="96"/>
                <note key="57" vol="100" pan="0" len="-192" pos="108"/>
                <note key="57" vol="100" pan="0" len="-192" pos="120"/>
                <note key="57" vol="100" pan="0" len="-192" pos="132"/>
                <note key="57" vol="100" pan="0" len="-192" pos="144"/>
                <note key="57" vol="100" pan="0" len="-192" pos="156"/>
                <note key="57" vol="100" pan="0" len="-192" pos="168"/>
                <note key="57" vol="100" pan="0" len="-192" pos="180"/>
                <note key="57" vol="100" pan="0" len="-192" pos="192"/>
                <note key="57" vol="100" pan="0" len="-192" pos="204"/>
                <note key="57" vol="100" pan="0" len="-192" pos="216"/>
                <note key="57" vol="100" pan="0" len="-192" pos="228"/>
                <note key="57" vol="100" pan="0" len="-192" pos="240"/>
                <note key="57" vol="100" pan="0" len="-192" pos="252"/>
                <note key="57" vol="100" pan="0" len="-192" pos="264"/>
                <note key="57" vol="100" pan="0" len="-192" pos="276"/>
                <note key="57" vol="100" pan="0" len="-192" pos="288"/>
                <note key="57" vol="100" pan="0" len="-192" pos="300"/>
                <note key="57" vol="100" pan="0" len="-192" pos="312"/>
                <note key="57" vol="100" pan="0" len="-192" pos="324"/>
                <note key="57" vol="100" pan="0" len="-192" pos="336"/>
                <note key="57" vol="100" pan="0" len="-192" pos="348"/>
                <note key="57" vol="100" pan="0" len="-192" pos="360"/>
                <note key="57" vol="100" pan="0" len="-192" pos="372"/>
              </pattern>
              <pattern name="kick.wav" muted="0" type="0" steps="32" pos="1920">
                <note key="57" vol="100" pan="0" len="-192" pos="0"/>
                <note key="57" vol="100" pan="0" len="-192" pos="12"/>
                <note key="57" vol="100" pan="0" len="-192" pos="24"/>
                <note key="57" vol="100" pan="0" len="-192" pos="36"/>
                <note key="57" vol="100" pan="0" len="-192" pos="48"/>
                <note key="57" vol="100" pan="0" len="-192" pos="60"/>
                <note key="57" vol="100" pan="0" len="-192" pos="72"/>
                <note key="57" vol="100" pan="0" len="-192" pos="84"/>
                <note key="57" vol="100" pan="0" len="-192" pos="96"/>
                <note key="57" vol="100" pan="0" len="-192" pos="108"/>
                <note key="57" vol="100" pan="0" len="-192" pos="120"/>
                <note key="57" vol="100" pan="0" len="-192" pos="132"/>
                <note key="57" vol="100" pan="0" len="-192" pos="144"/>
                <note key="57" vol="100" pan="0" len="-192" pos="156"/>
                <note key="57" vol="100" pan="0" len="-192" pos="168"/>
                <note key="57" vol="100" pan="0" len="-192" pos="180"/>
                <note key="57" vol="100" pan="0" len="-192" pos="192"/>
                <note key="57" vol="100" pan="0" len="-192" pos="204"/>
                <note key="57" vol="100" pan="0" len="-192" pos="216"/>
                <note key="57" vol="100" pan="0" len="-192" pos="228"/>
                <note key="57" vol="100" pan="0" len="-192" pos="240"/>
                <note key="57" vol="100" pan="0" len="-192" pos="252"/>
                <note key="57" vol="100" pan="0" len="-192" pos="264"/>
                <note key="57" vol="100" pan="0" len="-192" pos="276"/>
                <note key="57" vol="100" pan="0" len="-192" pos="288"/>
                <note key="57" vol="100" pan="0" len="-192" pos="300"/>
                <note key="57" vol="100" pan="0" len="-192" pos="312"/>
                <note key="57" vol="100" pan="0" len="-192" pos="324"/>
                <note key="57" vol="100" pan="0" len="-192" pos="336"/>
                <note key="57" vol="100" pan="0" len="-192" pos="348"/>
                <note key="57" vol="100" pan="0" len="-192" pos="360"/>
                <note key="57" vol="100" pan="0" len="-192" pos="372"/>
              </pattern>
              <pattern name="kick.wav" muted="0" type="0" steps="32" pos="2112">
                <note key="57" vol="100" pan="0" len="-192" pos="0"/>
                <note key="57" vol="100" pan="0" len="-192" pos="12"/>
                <note key="57" vol="100" pan="0" len="-192" pos="24"/>
                <note key="57" vol="100" pan="0" len="-192" pos="36"/>
                <note key="57" vol="100" pan="0" len="-192" pos="48"/>
                <note key="57" vol="100" pan="0" len="-192" pos="60"/>
                <note key="57" vol="100" pan="0" len="-192" pos="72"/>
                <note key="57" vol="100" pan="0" len="-192" pos="84"/>
                <note key="57" vol="100" pan="0" len="-192" pos="96"/>
                <note key="57" vol="100" pan="0" len="-192" pos="108"/>
                <note key="57" vol="100" pan="0" len="-192" pos="120"/>
                <note key="57" vol="100" pan="0" len="-192" pos="132"/>
                <note key="57" vol="100" pan="0" len="-192" pos="144"/>
                <note key="57" vol="100" pan="0" len="-192" pos="156"/>
                <note key="57" vol="100" pan="0" len="-192" pos="168"/>
                <note key="57" vol="100" pan="0" len="-192" pos="180"/>
                <note key="57" vol="100" pan="0" len="-192" pos="192"/>
                <note key="57" vol="100" pan="0" len="-192" pos="204"/>
                <note key="57" vol="100" pan="0" len="-192" pos="216"/>
                <note key="57" vol="100" pan="0" len="-192" pos="228"/>
                <note key="57" vol="100" pan="0" len="-192" pos="240"/>
                <note key="57" vol="100" pan="0" len="-192" pos="252"/>
                <note key="57" vol="100" pan="0" len="-192" pos="264"/>
                <note key="57" vol="100" pan="0" len="-192" pos="276"/>
                <note key="57" vol="100" pan="0" len="-192" pos="288"/>
                <note key="57" vol="100" pan="0" len="-192" pos="300"/>
                <note key="57" vol="100" pan="0" len="-192" pos="312"/>
                <note key="57" vol="100" pan="0" len="-192" pos="324"/>
                <note key="57" vol="100" pan="0" len="-192" pos="336"/>
                <note key="57" vol="100" pan="0" len="-192" pos="348"/>
                <note key="57" vol="100" pan="0" len="-192" pos="360"/>
                <note key="57" vol="100" pan="0" len="-192" pos="372"/>
              </pattern>
              <pattern name="kick.wav" muted="0" type="0" steps="16" pos="2304">
                <note key="57" vol="100" pan="0" len="-192" pos="0"/>
                <note key="57" vol="100" pan="0" len="-192" pos="48"/>
                <note key="57" vol="100" pan="0" len="-192" pos="96"/>
                <note key="57" vol="100" pan="0" len="-192" pos="144"/>
                <note key="57" vol="100" pan="0" len="-192" pos="156"/>
                <note key="57" vol="100" pan="0" len="-192" pos="168"/>
                <note key="57" vol="100" pan="0" len="-192" pos="180"/>
              </pattern>
              <pattern name="kick.wav" muted="0" type="0" steps="16" pos="2496">
                <note key="57" vol="100" pan="0" len="-192" pos="0"/>
                <note key="57" vol="100" pan="0" len="-192" pos="12"/>
                <note key="57" vol="100" pan="0" len="-192" pos="24"/>
                <note key="57" vol="100" pan="0" len="-192" pos="36"/>
                <note key="57" vol="100" pan="0" len="-192" pos="48"/>
                <note key="57" vol="100" pan="0" len="-192" pos="60"/>
                <note key="57" vol="100" pan="0" len="-192" pos="72"/>
                <note key="57" vol="100" pan="0" len="-192" pos="84"/>
                <note key="57" vol="100" pan="0" len="-192" pos="96"/>
                <note key="57" vol="100" pan="0" len="-192" pos="144"/>
              </pattern>
              <pattern name="kick.wav" muted="0" type="0" steps="16" pos="2688">
                <note key="57" vol="100" pan="0" len="-192" pos="0"/>
                <note key="57" vol="100" pan="0" len="-192" pos="24"/>
                <note key="57" vol="100" pan="0" len="-192" pos="96"/>
                <note key="57" vol="100" pan="0" len="-192" pos="120"/>
              </pattern>
              <pattern name="kick.wav" muted="0" type="0" steps="32" pos="2880">
                <note key="57" vol="100" pan="0" len="-192" pos="96"/>
                <note key="57" vol="100" pan="0" len="-192" pos="192"/>
                <note key="57" vol="100" pan="0" len="-192" pos="288"/>
                <note key="57" vol="100" pan="0" len="-192" pos="336"/>
                <note key="57" vol="100" pan="0" len="-192" pos="348"/>
                <note key="57" vol="100" pan="0" len="-192" pos="360"/>
                <note key="57" vol="100" pan="0" len="-192" pos="372"/>
              </pattern>
              <pattern name="kick.wav" muted="0" type="0" steps="64" pos="3072">
                <note key="57" vol="100" pan="0" len="-192" pos="0"/>
                <note key="57" vol="100" pan="0" len="-192" pos="48"/>
                <note key="57" vol="100" pan="0" len="-192" pos="96"/>
                <note key="57" vol="100" pan="0" len="-192" pos="144"/>
                <note key="57" vol="100" pan="0" len="-192" pos="192"/>
                <note key="57" vol="100" pan="0" len="-192" pos="240"/>
                <note key="57" vol="100" pan="0" len="-192" pos="288"/>
                <note key="57" vol="100" pan="0" len="-192" pos="336"/>
                <note key="57" vol="100" pan="0" len="-192" pos="384"/>
                <note key="57" vol="100" pan="0" len="-192" pos="432"/>
                <note key="57" vol="100" pan="0" len="-192" pos="480"/>
                <note key="57" vol="100" pan="0" len="-192" pos="528"/>
                <note key="57" vol="100" pan="0" len="-192" pos="576"/>
                <note key="57" vol="100" pan="0" len="-192" pos="624"/>
                <note key="57" vol="100" pan="0" len="-192" pos="672"/>
                <note key="57" vol="100" pan="0" len="-192" pos="684"/>
                <note key="57" vol="100" pan="0" len="-192" pos="696"/>
                <note key="57" vol="100" pan="0" len="-192" pos="708"/>
                <note key="57" vol="100" pan="0" len="-192" pos="720"/>
                <note key="57" vol="100" pan="0" len="-192" pos="732"/>
                <note key="57" vol="100" pan="0" len="-192" pos="744"/>
                <note key="57" vol="100" pan="0" len="-192" pos="756"/>
              </pattern>
              <pattern name="kick.wav" muted="0" type="0" steps="32" pos="3264">
                <note key="57" vol="100" pan="0" len="-192" pos="0"/>
                <note key="57" vol="100" pan="0" len="-192" pos="12"/>
                <note key="57" vol="100" pan="0" len="-192" pos="24"/>
                <note key="57" vol="100" pan="0" len="-192" pos="36"/>
                <note key="57" vol="100" pan="0" len="-192" pos="48"/>
                <note key="57" vol="100" pan="0" len="-192" pos="60"/>
                <note key="57" vol="100" pan="0" len="-192" pos="72"/>
                <note key="57" vol="100" pan="0" len="-192" pos="84"/>
                <note key="57" vol="100" pan="0" len="-192" pos="96"/>
                <note key="57" vol="100" pan="0" len="-192" pos="108"/>
                <note key="57" vol="100" pan="0" len="-192" pos="120"/>
                <note key="57" vol="100" pan="0" len="-192" pos="132"/>
                <note key="57" vol="100" pan="0" len="-192" pos="144"/>
                <note key="57" vol="100" pan="0" len="-192" pos="156"/>
                <note key="57" vol="100" pan="0" len="-192" pos="168"/>
                <note key="57" vol="100" pan="0" len="-192" pos="180"/>
                <note key="57" vol="100" pan="0" len="-192" pos="192"/>
                <note key="57" vol="100" pan="0" len="-192" pos="204"/>
                <note key="57" vol="100" pan="0" len="-192" pos="216"/>
                <note key="57" vol="100" pan="0" len="-192" pos="228"/>
                <note key="57" vol="100" pan="0" len="-192" pos="240"/>
                <note key="57" vol="100" pan="0" len="-192" pos="252"/>
                <note key="57" vol="100" pan="0" len="-192" pos="264"/>
                <note key="57" vol="100" pan="0" len="-192" pos="276"/>
                <note key="57" vol="100" pan="0" len="-192" pos="288"/>
                <note key="57" vol="100" pan="0" len="-192" pos="300"/>
                <note key="57" vol="100" pan="0" len="-192" pos="312"/>
                <note key="57" vol="100" pan="0" len="-192" pos="324"/>
                <note key="57" vol="100" pan="0" len="-192" pos="336"/>
                <note key="57" vol="100" pan="0" len="-192" pos="348"/>
                <note key="57" vol="100" pan="0" len="-192" pos="360"/>
                <note key="57" vol="100" pan="0" len="-192" pos="372"/>
              </pattern>
              <pattern name="kick.wav" muted="0" type="0" steps="32" pos="3456">
                <note key="57" vol="100" pan="0" len="-192" pos="0"/>
                <note key="57" vol="100" pan="0" len="-192" pos="12"/>
                <note key="57" vol="100" pan="0" len="-192" pos="24"/>
                <note key="57" vol="100" pan="0" len="-192" pos="36"/>
                <note key="57" vol="100" pan="0" len="-192" pos="48"/>
                <note key="57" vol="100" pan="0" len="-192" pos="60"/>
                <note key="57" vol="100" pan="0" len="-192" pos="72"/>
                <note key="57" vol="100" pan="0" len="-192" pos="84"/>
                <note key="57" vol="100" pan="0" len="-192" pos="96"/>
                <note key="57" vol="100" pan="0" len="-192" pos="108"/>
                <note key="57" vol="100" pan="0" len="-192" pos="120"/>
                <note key="57" vol="100" pan="0" len="-192" pos="132"/>
                <note key="57" vol="100" pan="0" len="-192" pos="144"/>
                <note key="57" vol="100" pan="0" len="-192" pos="156"/>
                <note key="57" vol="100" pan="0" len="-192" pos="168"/>
                <note key="57" vol="100" pan="0" len="-192" pos="180"/>
                <note key="57" vol="100" pan="0" len="-192" pos="192"/>
              </pattern>
              <pattern name="kick.wav" muted="0" type="0" steps="16" pos="3648">
                <note key="57" vol="100" pan="0" len="-192" pos="0"/>
                <note key="57" vol="100" pan="0" len="-192" pos="96"/>
                <note key="57" vol="100" pan="0" len="-192" pos="168"/>
                <note key="57" vol="100" pan="0" len="-192" pos="180"/>
              </pattern>
              <pattern name="kick.wav" muted="0" type="0" steps="32" pos="3840">
                <note key="57" vol="100" pan="0" len="-192" pos="0"/>
                <note key="57" vol="100" pan="0" len="-192" pos="24"/>
                <note key="57" vol="100" pan="0" len="-192" pos="36"/>
                <note key="57" vol="100" pan="0" len="-192" pos="48"/>
                <note key="57" vol="100" pan="0" len="-192" pos="60"/>
                <note key="57" vol="100" pan="0" len="-192" pos="72"/>
                <note key="57" vol="100" pan="0" len="-192" pos="120"/>
                <note key="57" vol="100" pan="0" len="-192" pos="144"/>
                <note key="57" vol="100" pan="0" len="-192" pos="168"/>
                <note key="57" vol="100" pan="0" len="-192" pos="192"/>
                <note key="57" vol="100" pan="0" len="-192" pos="204"/>
                <note key="57" vol="100" pan="0" len="-192" pos="216"/>
                <note key="57" vol="100" pan="0" len="-192" pos="228"/>
                <note key="57" vol="100" pan="0" len="-192" pos="240"/>
                <note key="57" vol="100" pan="0" len="-192" pos="252"/>
                <note key="57" vol="100" pan="0" len="-192" pos="264"/>
                <note key="57" vol="100" pan="0" len="-192" pos="276"/>
                <note key="57" vol="100" pan="0" len="-192" pos="288"/>
                <note key="57" vol="100" pan="0" len="-192" pos="300"/>
                <note key="57" vol="100" pan="0" len="-192" pos="312"/>
                <note key="57" vol="100" pan="0" len="-192" pos="324"/>
                <note key="57" vol="100" pan="0" len="-192" pos="336"/>
                <note key="57" vol="100" pan="0" len="-192" pos="348"/>
                <note key="57" vol="100" pan="0" len="-192" pos="360"/>
                <note key="57" vol="100" pan="0" len="-192" pos="372"/>
              </pattern>
              <pattern name="kick.wav" muted="0" type="0" steps="64" pos="4032">
                <note key="57" vol="100" pan="0" len="-192" pos="0"/>
                <note key="57" vol="100" pan="0" len="-192" pos="192"/>
                <note key="57" vol="100" pan="0" len="-192" pos="384"/>
                <note key="57" vol="100" pan="0" len="-192" pos="672"/>
              </pattern>
              <pattern name="kick.wav" muted="0" type="0" steps="64" pos="4224">
                <note key="57" vol="100" pan="0" len="-192" pos="0"/>
                <note key="57" vol="100" pan="0" len="-192" pos="192"/>
                <note key="57" vol="100" pan="0" len="-192" pos="384"/>
                <note key="57" vol="100" pan="0" len="-192" pos="576"/>
                <note key="57" vol="100" pan="0" len="-192" pos="672"/>
              </pattern>
              <pattern name="kick.wav" muted="0" type="0" steps="64" pos="4416">
                <note key="57" vol="100" pan="0" len="-192" pos="0"/>
                <note key="57" vol="100" pan="0" len="-192" pos="384"/>
                <note key="57" vol="100" pan="0" len="-192" pos="576"/>
                <note key="57" vol="100" pan="0" len="-192" pos="672"/>
              </pattern>
              <pattern name="kick.wav" muted="0" type="0" steps="128" pos="4608">
                <note key="57" vol="100" pan="0" len="-192" pos="0"/>
                <note key="57" vol="100" pan="0" len="-192" pos="24"/>
                <note key="57" vol="100" pan="0" len="-192" pos="48"/>
                <note key="57" vol="100" pan="0" len="-192" pos="72"/>
                <note key="57" vol="100" pan="0" len="-192" pos="84"/>
                <note key="57" vol="100" pan="0" len="-192" pos="96"/>
                <note key="57" vol="100" pan="0" len="-192" pos="108"/>
                <note key="57" vol="100" pan="0" len="-192" pos="120"/>
                <note key="57" vol="100" pan="0" len="-192" pos="144"/>
                <note key="57" vol="100" pan="0" len="-192" pos="156"/>
                <note key="57" vol="100" pan="0" len="-192" pos="168"/>
                <note key="57" vol="100" pan="0" len="-192" pos="180"/>
                <note key="57" vol="100" pan="0" len="-192" pos="192"/>
                <note key="57" vol="100" pan="0" len="-192" pos="216"/>
                <note key="57" vol="100" pan="0" len="-192" pos="228"/>
                <note key="57" vol="100" pan="0" len="-192" pos="240"/>
                <note key="57" vol="100" pan="0" len="-192" pos="252"/>
                <note key="57" vol="100" pan="0" len="-192" pos="264"/>
                <note key="57" vol="100" pan="0" len="-192" pos="288"/>
                <note key="57" vol="100" pan="0" len="-192" pos="300"/>
                <note key="57" vol="100" pan="0" len="-192" pos="312"/>
                <note key="57" vol="100" pan="0" len="-192" pos="336"/>
                <note key="57" vol="100" pan="0" len="-192" pos="348"/>
                <note key="57" vol="100" pan="0" len="-192" pos="360"/>
                <note key="57" vol="100" pan="0" len="-192" pos="372"/>
                <note key="57" vol="100" pan="0" len="-192" pos="384"/>
                <note key="57" vol="100" pan="0" len="-192" pos="408"/>
                <note key="57" vol="100" pan="0" len="-192" pos="432"/>
                <note key="57" vol="100" pan="0" len="-192" pos="456"/>
                <note key="57" vol="100" pan="0" len="-192" pos="468"/>
                <note key="57" vol="100" pan="0" len="-192" pos="480"/>
                <note key="57" vol="100" pan="0" len="-192" pos="492"/>
                <note key="57" vol="100" pan="0" len="-192" pos="504"/>
                <note key="57" vol="100" pan="0" len="-192" pos="528"/>
                <note key="57" vol="100" pan="0" len="-192" pos="540"/>
                <note key="57" vol="100" pan="0" len="-192" pos="552"/>
                <note key="57" vol="100" pan="0" len="-192" pos="564"/>
                <note key="57" vol="100" pan="0" len="-192" pos="576"/>
                <note key="57" vol="100" pan="0" len="-192" pos="600"/>
                <note key="57" vol="100" pan="0" len="-192" pos="612"/>
                <note key="57" vol="100" pan="0" len="-192" pos="624"/>
                <note key="57" vol="100" pan="0" len="-192" pos="636"/>
                <note key="57" vol="100" pan="0" len="-192" pos="648"/>
                <note key="57" vol="100" pan="0" len="-192" pos="672"/>
                <note key="57" vol="100" pan="0" len="-192" pos="684"/>
                <note key="57" vol="100" pan="0" len="-192" pos="696"/>
                <note key="57" vol="100" pan="0" len="-192" pos="720"/>
                <note key="57" vol="100" pan="0" len="-192" pos="732"/>
                <note key="57" vol="100" pan="0" len="-192" pos="744"/>
                <note key="57" vol="100" pan="0" len="-192" pos="756"/>
                <note key="57" vol="100" pan="0" len="-192" pos="768"/>
                <note key="57" vol="100" pan="0" len="-192" pos="792"/>
                <note key="57" vol="100" pan="0" len="-192" pos="816"/>
                <note key="57" vol="100" pan="0" len="-192" pos="840"/>
                <note key="57" vol="100" pan="0" len="-192" pos="852"/>
                <note key="57" vol="100" pan="0" len="-192" pos="864"/>
                <note key="57" vol="100" pan="0" len="-192" pos="876"/>
                <note key="57" vol="100" pan="0" len="-192" pos="888"/>
                <note key="57" vol="100" pan="0" len="-192" pos="912"/>
                <note key="57" vol="100" pan="0" len="-192" pos="924"/>
                <note key="57" vol="100" pan="0" len="-192" pos="936"/>
                <note key="57" vol="100" pan="0" len="-192" pos="948"/>
                <note key="57" vol="100" pan="0" len="-192" pos="960"/>
                <note key="57" vol="100" pan="0" len="-192" pos="984"/>
                <note key="57" vol="100" pan="0" len="-192" pos="996"/>
                <note key="57" vol="100" pan="0" len="-192" pos="1008"/>
                <note key="57" vol="100" pan="0" len="-192" pos="1020"/>
                <note key="57" vol="100" pan="0" len="-192" pos="1032"/>
                <note key="57" vol="100" pan="0" len="-192" pos="1056"/>
                <note key="57" vol="100" pan="0" len="-192" pos="1068"/>
                <note key="57" vol="100" pan="0" len="-192" pos="1080"/>
                <note key="57" vol="100" pan="0" len="-192" pos="1104"/>
                <note key="57" vol="100" pan="0" len="-192" pos="1116"/>
                <note key="57" vol="100" pan="0" len="-192" pos="1128"/>
                <note key="57" vol="100" pan="0" len="-192" pos="1140"/>
                <note key="57" vol="100" pan="0" len="-192" pos="1152"/>
                <note key="57" vol="100" pan="0" len="-192" pos="1176"/>
                <note key="57" vol="100" pan="0" len="-192" pos="1200"/>
                <note key="57" vol="100" pan="0" len="-192" pos="1224"/>
                <note key="57" vol="100" pan="0" len="-192" pos="1236"/>
                <note key="57" vol="100" pan="0" len="-192" pos="1248"/>
                <note key="57" vol="100" pan="0" len="-192" pos="1260"/>
                <note key="57" vol="100" pan="0" len="-192" pos="1272"/>
                <note key="57" vol="100" pan="0" len="-192" pos="1296"/>
                <note key="57" vol="100" pan="0" len="-192" pos="1308"/>
                <note key="57" vol="100" pan="0" len="-192" pos="1320"/>
                <note key="57" vol="100" pan="0" len="-192" pos="1332"/>
                <note key="57" vol="100" pan="0" len="-192" pos="1344"/>
                <note key="57" vol="100" pan="0" len="-192" pos="1368"/>
                <note key="57" vol="100" pan="0" len="-192" pos="1380"/>
                <note key="57" vol="100" pan="0" len="-192" pos="1392"/>
                <note key="57" vol="100" pan="0" len="-192" pos="1404"/>
                <note key="57" vol="100" pan="0" len="-192" pos="1416"/>
                <note key="57" vol="100" pan="0" len="-192" pos="1440"/>
                <note key="57" vol="100" pan="0" len="-192" pos="1452"/>
                <note key="57" vol="100" pan="0" len="-192" pos="1464"/>
                <note key="57" vol="100" pan="0" len="-192" pos="1488"/>
                <note key="57" vol="100" pan="0" len="-192" pos="1500"/>
                <note key="57" vol="100" pan="0" len="-192" pos="1512"/>
                <note key="57" vol="100" pan="0" len="-192" pos="1524"/>
              </pattern>
              <pattern name="kick.wav" muted="0" type="0" steps="16" pos="4800">
                <note key="57" vol="100" pan="0" len="-192" pos="0"/>
                <note key="57" vol="100" pan="0" len="-192" pos="12"/>
                <note key="57" vol="100" pan="0" len="-192" pos="24"/>
                <note key="57" vol="100" pan="0" len="-192" pos="36"/>
                <note key="57" vol="100" pan="0" len="-192" pos="48"/>
                <note key="57" vol="100" pan="0" len="-192" pos="60"/>
                <note key="57" vol="100" pan="0" len="-192" pos="72"/>
                <note key="57" vol="100" pan="0" len="-192" pos="84"/>
                <note key="57" vol="100" pan="0" len="-192" pos="96"/>
                <note key="57" vol="100" pan="0" len="-192" pos="108"/>
                <note key="57" vol="100" pan="0" len="-192" pos="120"/>
                <note key="57" vol="100" pan="0" len="-192" pos="132"/>
                <note key="57" vol="100" pan="0" len="-192" pos="144"/>
                <note key="57" vol="100" pan="0" len="-192" pos="156"/>
                <note key="57" vol="100" pan="0" len="-192" pos="168"/>
                <note key="57" vol="100" pan="0" len="-192" pos="180"/>
              </pattern>
              <pattern name="kick.wav" muted="0" type="0" steps="16" pos="4992">
                <note key="57" vol="100" pan="0" len="-192" pos="0"/>
              </pattern>
            </track>
            <track name="hihat_opened02.ogg" muted="0" type="0" solo="0">
              <instrumenttrack vol="47.2" pitch="0" pitchrange="1" basenote="57" pan="-16.8" fxch="2" usemasterpitch="1">
                <instrument name="audiofileprocessor">
                  <audiofileprocessor eframe="1" reversed="0" src="drums/hihat_opened02.ogg" amp="100" looped="0" stutter="0" interp="1" sframe="0" lframe="0"/>
                </instrument>
                <eldata ftype="0" fres="0.5" fwet="0" fcut="14000">
                  <elvol dec="2" sustain="0" pdel="0" lpdel="0" rel="0" lspd="0.1" userwavefile="" hold="2" lamt="0" lspd_numerator="4" lspd_syncmode="0" lshp="0" amt="1" x100="0" latt="0" lspd_denominator="4" ctlenvamt="0" att="0"/>
                  <elcut dec="0.5" sustain="0.5" pdel="0" lpdel="0" rel="0.1" lspd="0.1" userwavefile="" hold="0.5" lamt="0" lspd_numerator="4" lspd_syncmode="0" lshp="0" amt="0" x100="0" latt="0" lspd_denominator="4" ctlenvamt="0" att="0"/>
                  <elres dec="0.5" sustain="0.5" pdel="0" lpdel="0" rel="0.1" lspd="0.1" userwavefile="" hold="0.5" lamt="0" lspd_numerator="4" lspd_syncmode="0" lshp="0" amt="0" x100="0" latt="0" lspd_denominator="4" ctlenvamt="0" att="0"/>
                </eldata>
                <chordcreator chord="0" chord-enabled="0" chordrange="1"/>
                <arpeggiator arprange="1" arptime_denominator="4" arpgate="100" arptime_syncmode="0" arp="0" arpmode="0" arpmiss="0" arpdir="0" arptime_numerator="4" arp-enabled="0" arpcycle="0" arpskip="0" arptime="200"/>
                <midiport outputchannel="1" inputcontroller="0" outputcontroller="0" basevelocity="63" fixedinputvelocity="-1" fixedoutputvelocity="-1" outputprogram="1" readable="0" writable="0" fixedoutputnote="-1" inputchannel="0"/>
                <fxchain numofeffects="0" enabled="0"/>
              </instrumenttrack>
              <pattern name="hihat_opened02.ogg" muted="0" type="0" steps="64" pos="0"/>
              <pattern name="hihat_opened02.ogg" muted="0" type="0" steps="64" pos="192"/>
              <pattern name="hihat_opened02.ogg" muted="0" type="0" steps="32" pos="384"/>
              <pattern name="hihat_opened02.ogg" muted="0" type="0" steps="64" pos="576">
                <note key="57" vol="100" pan="0" len="-192" pos="0"/>
                <note key="57" vol="100" pan="0" len="-192" pos="48"/>
                <note key="57" vol="100" pan="0" len="-192" pos="96"/>
                <note key="57" vol="100" pan="0" len="-192" pos="144"/>
                <note key="57" vol="100" pan="0" len="-192" pos="192"/>
                <note key="57" vol="100" pan="0" len="-192" pos="240"/>
                <note key="57" vol="100" pan="0" len="-192" pos="288"/>
                <note key="57" vol="100" pan="0" len="-192" pos="336"/>
                <note key="57" vol="100" pan="0" len="-192" pos="384"/>
                <note key="57" vol="100" pan="0" len="-192" pos="432"/>
                <note key="57" vol="100" pan="0" len="-192" pos="480"/>
                <note key="57" vol="100" pan="0" len="-192" pos="528"/>
                <note key="57" vol="100" pan="0" len="-192" pos="576"/>
                <note key="57" vol="100" pan="0" len="-192" pos="624"/>
                <note key="57" vol="100" pan="0" len="-192" pos="672"/>
                <note key="57" vol="100" pan="0" len="-192" pos="720"/>
              </pattern>
              <pattern name="hihat_opened02.ogg" muted="0" type="0" steps="16" pos="768"/>
              <pattern name="hihat_opened02.ogg" muted="0" type="0" steps="64" pos="960">
                <note key="57" vol="100" pan="0" len="-192" pos="0"/>
                <note key="57" vol="100" pan="0" len="-192" pos="48"/>
                <note key="57" vol="100" pan="0" len="-192" pos="96"/>
                <note key="57" vol="100" pan="0" len="-192" pos="144"/>
                <note key="57" vol="100" pan="0" len="-192" pos="192"/>
                <note key="57" vol="100" pan="0" len="-192" pos="240"/>
                <note key="57" vol="100" pan="0" len="-192" pos="288"/>
                <note key="57" vol="100" pan="0" len="-192" pos="336"/>
                <note key="57" vol="100" pan="0" len="-192" pos="384"/>
                <note key="57" vol="100" pan="0" len="-192" pos="432"/>
                <note key="57" vol="100" pan="0" len="-192" pos="480"/>
                <note key="57" vol="100" pan="0" len="-192" pos="528"/>
                <note key="57" vol="100" pan="0" len="-192" pos="576"/>
                <note key="57" vol="100" pan="0" len="-192" pos="624"/>
                <note key="57" vol="100" pan="0" len="-192" pos="672"/>
                <note key="57" vol="100" pan="0" len="-192" pos="720"/>
              </pattern>
              <pattern name="hihat_opened02.ogg" muted="0" type="0" steps="64" pos="1152">
                <note key="57" vol="100" pan="0" len="-192" pos="0"/>
                <note key="57" vol="100" pan="0" len="-192" pos="48"/>
                <note key="57" vol="100" pan="0" len="-192" pos="96"/>
                <note key="57" vol="100" pan="0" len="-192" pos="144"/>
                <note key="57" vol="100" pan="0" len="-192" pos="192"/>
                <note key="57" vol="100" pan="0" len="-192" pos="240"/>
                <note key="57" vol="100" pan="0" len="-192" pos="288"/>
                <note key="57" vol="100" pan="0" len="-192" pos="336"/>
                <note key="57" vol="100" pan="0" len="-192" pos="384"/>
                <note key="57" vol="100" pan="0" len="-192" pos="432"/>
                <note key="57" vol="100" pan="0" len="-192" pos="480"/>
                <note key="57" vol="100" pan="0" len="-192" pos="528"/>
                <note key="57" vol="100" pan="0" len="-192" pos="576"/>
                <note key="57" vol="100" pan="0" len="-192" pos="624"/>
                <note key="57" vol="100" pan="0" len="-192" pos="672"/>
                <note key="57" vol="100" pan="0" len="-192" pos="720"/>
              </pattern>
              <pattern name="hihat_opened02.ogg" muted="0" type="0" steps="32" pos="1344"/>
              <pattern name="hihat_opened02.ogg" muted="0" type="0" steps="64" pos="1536">
                <note key="57" vol="100" pan="0" len="-192" pos="48"/>
                <note key="57" vol="100" pan="0" len="-192" pos="96"/>
                <note key="57" vol="100" pan="0" len="-192" pos="144"/>
                <note key="57" vol="100" pan="0" len="-192" pos="240"/>
                <note key="57" vol="100" pan="0" len="-192" pos="288"/>
                <note key="57" vol="100" pan="0" len="-192" pos="336"/>
                <note key="57" vol="100" pan="0" len="-192" pos="432"/>
                <note key="57" vol="100" pan="0" len="-192" pos="480"/>
                <note key="57" vol="100" pan="0" len="-192" pos="528"/>
                <note key="57" vol="100" pan="0" len="-192" pos="624"/>
                <note key="57" vol="100" pan="0" len="-192" pos="672"/>
                <note key="57" vol="100" pan="0" len="-192" pos="720"/>
              </pattern>
              <pattern name="hihat_opened02.ogg" muted="0" type="0" steps="32" pos="1728">
                <note key="57" vol="100" pan="0" len="-192" pos="48"/>
                <note key="57" vol="100" pan="0" len="-192" pos="96"/>
                <note key="57" vol="100" pan="0" len="-192" pos="144"/>
                <note key="57" vol="100" pan="0" len="-192" pos="240"/>
                <note key="57" vol="100" pan="0" len="-192" pos="288"/>
                <note key="57" vol="100" pan="0" len="-192" pos="336"/>
              </pattern>
              <pattern name="hihat_opened02.ogg" muted="0" type="0" steps="32" pos="1920">
                <note key="57" vol="100" pan="0" len="-192" pos="48"/>
                <note key="57" vol="100" pan="0" len="-192" pos="96"/>
                <note key="57" vol="100" pan="0" len="-192" pos="144"/>
                <note key="57" vol="100" pan="0" len="-192" pos="240"/>
                <note key="57" vol="100" pan="0" len="-192" pos="288"/>
              </pattern>
              <pattern name="hihat_opened02.ogg" muted="0" type="0" steps="32" pos="2112">
                <note key="57" vol="100" pan="0" len="-192" pos="0"/>
                <note key="57" vol="100" pan="0" len="-192" pos="96"/>
                <note key="57" vol="100" pan="0" len="-192" pos="192"/>
                <note key="57" vol="100" pan="0" len="-192" pos="288"/>
              </pattern>
              <pattern name="hihat_opened02.ogg" muted="0" type="0" steps="16" pos="2304"/>
              <pattern name="hihat_opened02.ogg" muted="0" type="0" steps="16" pos="2496"/>
              <pattern name="hihat_opened02.ogg" muted="0" type="0" steps="16" pos="2688"/>
              <pattern name="hihat_opened02.ogg" muted="0" type="0" steps="32" pos="2880"/>
              <pattern name="hihat_opened02.ogg" muted="0" type="0" steps="64" pos="3072"/>
              <pattern name="hihat_opened02.ogg" muted="0" type="0" steps="32" pos="3264">
                <note key="57" vol="100" pan="0" len="-192" pos="0"/>
              </pattern>
              <pattern name="hihat_opened02.ogg" muted="0" type="0" steps="32" pos="3456"/>
              <pattern name="hihat_opened02.ogg" muted="0" type="0" steps="16" pos="3648"/>
              <pattern name="hihat_opened02.ogg" muted="0" type="0" steps="32" pos="3840"/>
              <pattern name="hihat_opened02.ogg" muted="0" type="0" steps="64" pos="4032"/>
              <pattern name="hihat_opened02.ogg" muted="0" type="0" steps="64" pos="4224"/>
              <pattern name="hihat_opened02.ogg" muted="0" type="0" steps="64" pos="4416"/>
              <pattern name="hihat_opened02.ogg" muted="0" type="0" steps="128" pos="4608">
                <note key="57" vol="100" pan="0" len="-192" pos="0"/>
                <note key="57" vol="100" pan="0" len="-192" pos="48"/>
                <note key="57" vol="100" pan="0" len="-192" pos="96"/>
                <note key="57" vol="100" pan="0" len="-192" pos="144"/>
                <note key="57" vol="100" pan="0" len="-192" pos="192"/>
                <note key="57" vol="100" pan="0" len="-192" pos="240"/>
                <note key="57" vol="100" pan="0" len="-192" pos="288"/>
                <note key="57" vol="100" pan="0" len="-192" pos="336"/>
                <note key="57" vol="100" pan="0" len="-192" pos="384"/>
                <note key="57" vol="100" pan="0" len="-192" pos="432"/>
                <note key="57" vol="100" pan="0" len="-192" pos="480"/>
                <note key="57" vol="100" pan="0" len="-192" pos="528"/>
                <note key="57" vol="100" pan="0" len="-192" pos="576"/>
                <note key="57" vol="100" pan="0" len="-192" pos="624"/>
                <note key="57" vol="100" pan="0" len="-192" pos="672"/>
                <note key="57" vol="100" pan="0" len="-192" pos="720"/>
                <note key="57" vol="100" pan="0" len="-192" pos="768"/>
                <note key="57" vol="100" pan="0" len="-192" pos="816"/>
                <note key="57" vol="100" pan="0" len="-192" pos="864"/>
                <note key="57" vol="100" pan="0" len="-192" pos="912"/>
                <note key="57" vol="100" pan="0" len="-192" pos="960"/>
                <note key="57" vol="100" pan="0" len="-192" pos="1008"/>
                <note key="57" vol="100" pan="0" len="-192" pos="1056"/>
                <note key="57" vol="100" pan="0" len="-192" pos="1104"/>
                <note key="57" vol="100" pan="0" len="-192" pos="1152"/>
                <note key="57" vol="100" pan="0" len="-192" pos="1200"/>
                <note key="57" vol="100" pan="0" len="-192" pos="1248"/>
                <note key="57" vol="100" pan="0" len="-192" pos="1296"/>
                <note key="57" vol="100" pan="0" len="-192" pos="1344"/>
                <note key="57" vol="100" pan="0" len="-192" pos="1392"/>
                <note key="57" vol="100" pan="0" len="-192" pos="1440"/>
                <note key="57" vol="100" pan="0" len="-192" pos="1488"/>
              </pattern>
              <pattern name="hihat_opened02.ogg" muted="0" type="0" steps="16" pos="4800"/>
              <pattern name="hihat_opened02.ogg" muted="0" type="0" steps="16" pos="4992"/>
            </track>
            <track name="snare.wav" muted="0" type="0" solo="0">
              <instrumenttrack vol="200" pitch="0" pitchrange="1" basenote="57" pan="0" fxch="3" usemasterpitch="1">
                <instrument name="audiofileprocessor">
                  <audiofileprocessor eframe="1" reversed="0" src="/home/huggypie/samples/sillydrums/snare.wav" amp="100" looped="0" stutter="0" interp="1" sframe="0" lframe="0"/>
                </instrument>
                <eldata ftype="0" fres="0.5" fwet="0" fcut="14000">
                  <elvol dec="2" sustain="1" pdel="0" lpdel="0" rel="2" lspd="0.1" userwavefile="" hold="2" lamt="0" lspd_numerator="4" lspd_syncmode="0" lshp="0" amt="1" x100="0" latt="0" lspd_denominator="4" ctlenvamt="0" att="0"/>
                  <elcut dec="0.5" sustain="0.5" pdel="0" lpdel="0" rel="0.1" lspd="0.1" userwavefile="" hold="0.5" lamt="0" lspd_numerator="4" lspd_syncmode="0" lshp="0" amt="0" x100="0" latt="0" lspd_denominator="4" ctlenvamt="0" att="0"/>
                  <elres dec="0.5" sustain="0.5" pdel="0" lpdel="0" rel="0.1" lspd="0.1" userwavefile="" hold="0.5" lamt="0" lspd_numerator="4" lspd_syncmode="0" lshp="0" amt="0" x100="0" latt="0" lspd_denominator="4" ctlenvamt="0" att="0"/>
                </eldata>
                <chordcreator chord="0" chord-enabled="0" chordrange="1"/>
                <arpeggiator arprange="1" arptime_denominator="4" arpgate="100" arptime_syncmode="0" arp="0" arpmode="0" arpmiss="0" arpdir="0" arptime_numerator="4" arp-enabled="0" arpcycle="0" arpskip="0" arptime="200"/>
                <midiport outputchannel="1" inputcontroller="0" outputcontroller="0" basevelocity="63" fixedinputvelocity="-1" fixedoutputvelocity="-1" outputprogram="1" readable="0" writable="0" fixedoutputnote="-1" inputchannel="0"/>
                <fxchain numofeffects="0" enabled="0"/>
              </instrumenttrack>
              <pattern name="snare.wav" muted="0" type="0" steps="64" pos="0"/>
              <pattern name="snare.wav" muted="0" type="0" steps="64" pos="192">
                <note key="57" vol="100" pan="0" len="-192" pos="720"/>
                <note key="57" vol="100" pan="0" len="-192" pos="732"/>
                <note key="57" vol="100" pan="0" len="-192" pos="744"/>
                <note key="57" vol="100" pan="0" len="-192" pos="756"/>
              </pattern>
              <pattern name="snare.wav" muted="0" type="0" steps="32" pos="384">
                <note key="57" vol="100" pan="0" len="-192" pos="48"/>
                <note key="57" vol="100" pan="0" len="-192" pos="60"/>
                <note key="57" vol="100" pan="0" len="-192" pos="120"/>
                <note key="57" vol="100" pan="0" len="-192" pos="132"/>
                <note key="57" vol="100" pan="0" len="-192" pos="192"/>
                <note key="57" vol="100" pan="0" len="-192" pos="204"/>
                <note key="57" vol="100" pan="0" len="-192" pos="264"/>
                <note key="57" vol="100" pan="0" len="-192" pos="276"/>
                <note key="57" vol="100" pan="0" len="-192" pos="312"/>
                <note key="57" vol="100" pan="0" len="-192" pos="360"/>
                <note key="57" vol="100" pan="0" len="-192" pos="372"/>
              </pattern>
              <pattern name="snare.wav" muted="0" type="0" steps="64" pos="576">
                <note key="57" vol="100" pan="0" len="-192" pos="24"/>
                <note key="57" vol="100" pan="0" len="-192" pos="72"/>
                <note key="57" vol="100" pan="0" len="-192" pos="120"/>
                <note key="57" vol="100" pan="0" len="-192" pos="168"/>
                <note key="57" vol="100" pan="0" len="-192" pos="216"/>
                <note key="57" vol="100" pan="0" len="-192" pos="264"/>
                <note key="57" vol="100" pan="0" len="-192" pos="312"/>
                <note key="57" vol="100" pan="0" len="-192" pos="360"/>
                <note key="57" vol="100" pan="0" len="-192" pos="408"/>
                <note key="57" vol="100" pan="0" len="-192" pos="456"/>
                <note key="57" vol="100" pan="0" len="-192" pos="504"/>
                <note key="57" vol="100" pan="0" len="-192" pos="552"/>
                <note key="57" vol="100" pan="0" len="-192" pos="600"/>
                <note key="57" vol="100" pan="0" len="-192" pos="648"/>
                <note key="57" vol="100" pan="0" len="-192" pos="696"/>
                <note key="57" vol="100" pan="0" len="-192" pos="744"/>
              </pattern>
              <pattern name="snare.wav" muted="0" type="0" steps="16" pos="768">
                <note key="57" vol="100" pan="0" len="-192" pos="0"/>
                <note key="57" vol="100" pan="0" len="-192" pos="12"/>
                <note key="57" vol="100" pan="0" len="-192" pos="24"/>
                <note key="57" vol="100" pan="0" len="-192" pos="36"/>
                <note key="57" vol="100" pan="0" len="-192" pos="48"/>
                <note key="57" vol="100" pan="0" len="-192" pos="60"/>
                <note key="57" vol="100" pan="0" len="-192" pos="72"/>
                <note key="57" vol="100" pan="0" len="-192" pos="84"/>
                <note key="57" vol="100" pan="0" len="-192" pos="96"/>
                <note key="57" vol="100" pan="0" len="-192" pos="144"/>
              </pattern>
              <pattern name="snare.wav" muted="0" type="0" steps="64" pos="960">
                <note key="57" vol="100" pan="0" len="-192" pos="24"/>
                <note key="57" vol="100" pan="0" len="-192" pos="72"/>
                <note key="57" vol="100" pan="0" len="-192" pos="120"/>
                <note key="57" vol="100" pan="0" len="-192" pos="168"/>
                <note key="57" vol="100" pan="0" len="-192" pos="216"/>
                <note key="57" vol="100" pan="0" len="-192" pos="264"/>
                <note key="57" vol="100" pan="0" len="-192" pos="312"/>
                <note key="57" vol="100" pan="0" len="-192" pos="360"/>
                <note key="57" vol="100" pan="0" len="-192" pos="408"/>
                <note key="57" vol="100" pan="0" len="-192" pos="456"/>
                <note key="57" vol="100" pan="0" len="-192" pos="504"/>
                <note key="57" vol="100" pan="0" len="-192" pos="552"/>
                <note key="57" vol="100" pan="0" len="-192" pos="600"/>
                <note key="57" vol="100" pan="0" len="-192" pos="648"/>
                <note key="57" vol="100" pan="0" len="-192" pos="696"/>
                <note key="57" vol="100" pan="0" len="-192" pos="744"/>
              </pattern>
              <pattern name="snare.wav" muted="0" type="0" steps="64" pos="1152">
                <note key="57" vol="100" pan="0" len="-192" pos="24"/>
                <note key="57" vol="100" pan="0" len="-192" pos="72"/>
                <note key="57" vol="100" pan="0" len="-192" pos="120"/>
                <note key="57" vol="100" pan="0" len="-192" pos="168"/>
                <note key="57" vol="100" pan="0" len="-192" pos="216"/>
                <note key="57" vol="100" pan="0" len="-192" pos="264"/>
                <note key="57" vol="100" pan="0" len="-192" pos="312"/>
                <note key="57" vol="100" pan="0" len="-192" pos="360"/>
                <note key="57" vol="100" pan="0" len="-192" pos="408"/>
                <note key="57" vol="100" pan="0" len="-192" pos="456"/>
                <note key="57" vol="100" pan="0" len="-192" pos="504"/>
                <note key="57" vol="100" pan="0" len="-192" pos="552"/>
                <note key="57" vol="100" pan="0" len="-192" pos="600"/>
                <note key="57" vol="100" pan="0" len="-192" pos="648"/>
                <note key="57" vol="100" pan="0" len="-192" pos="696"/>
                <note key="57" vol="100" pan="0" len="-192" pos="744"/>
              </pattern>
              <pattern name="snare.wav" muted="0" type="0" steps="32" pos="1344"/>
              <pattern name="snare.wav" muted="0" type="0" steps="64" pos="1536">
                <note key="57" vol="100" pan="0" len="-192" pos="0"/>
                <note key="57" vol="100" pan="0" len="-192" pos="48"/>
                <note key="57" vol="100" pan="0" len="-192" pos="96"/>
                <note key="57" vol="100" pan="0" len="-192" pos="144"/>
                <note key="57" vol="100" pan="0" len="-192" pos="192"/>
                <note key="57" vol="100" pan="0" len="-192" pos="240"/>
                <note key="57" vol="100" pan="0" len="-192" pos="288"/>
                <note key="57" vol="100" pan="0" len="-192" pos="336"/>
                <note key="57" vol="100" pan="0" len="-192" pos="384"/>
                <note key="57" vol="100" pan="0" len="-192" pos="432"/>
                <note key="57" vol="100" pan="0" len="-192" pos="480"/>
                <note key="57" vol="100" pan="0" len="-192" pos="528"/>
                <note key="57" vol="100" pan="0" len="-192" pos="576"/>
                <note key="57" vol="100" pan="0" len="-192" pos="624"/>
                <note key="57" vol="100" pan="0" len="-192" pos="672"/>
                <note key="57" vol="100" pan="0" len="-192" pos="720"/>
              </pattern>
              <pattern name="snare.wav" muted="0" type="0" steps="32" pos="1728">
                <note key="57" vol="100" pan="0" len="-192" pos="0"/>
                <note key="57" vol="100" pan="0" len="-192" pos="48"/>
                <note key="57" vol="100" pan="0" len="-192" pos="96"/>
                <note key="57" vol="100" pan="0" len="-192" pos="144"/>
                <note key="57" vol="100" pan="0" len="-192" pos="192"/>
                <note key="57" vol="100" pan="0" len="-192" pos="240"/>
                <note key="57" vol="100" pan="0" len="-192" pos="288"/>
                <note key="57" vol="100" pan="0" len="-192" pos="336"/>
              </pattern>
              <pattern name="snare.wav" muted="0" type="0" steps="32" pos="1920">
                <note key="57" vol="100" pan="0" len="-192" pos="0"/>
                <note key="57" vol="100" pan="0" len="-192" pos="48"/>
                <note key="57" vol="100" pan="0" len="-192" pos="96"/>
                <note key="57" vol="100" pan="0" len="-192" pos="144"/>
                <note key="57" vol="100" pan="0" len="-192" pos="192"/>
                <note key="57" vol="100" pan="0" len="-192" pos="240"/>
                <note key="57" vol="100" pan="0" len="-192" pos="288"/>
                <note key="57" vol="100" pan="0" len="-192" pos="336"/>
                <note key="57" vol="100" pan="0" len="-192" pos="348"/>
                <note key="57" vol="100" pan="0" len="-192" pos="360"/>
                <note key="57" vol="100" pan="0" len="-192" pos="372"/>
              </pattern>
              <pattern name="snare.wav" muted="0" type="0" steps="32" pos="2112">
                <note key="57" vol="100" pan="0" len="-192" pos="48"/>
                <note key="57" vol="100" pan="0" len="-192" pos="144"/>
                <note key="57" vol="100" pan="0" len="-192" pos="240"/>
                <note key="57" vol="100" pan="0" len="-192" pos="336"/>
              </pattern>
              <pattern name="snare.wav" muted="0" type="0" steps="16" pos="2304">
                <note key="57" vol="100" pan="0" len="-192" pos="144"/>
                <note key="57" vol="100" pan="0" len="-192" pos="156"/>
                <note key="57" vol="100" pan="0" len="-192" pos="168"/>
                <note key="57" vol="100" pan="0" len="-192" pos="180"/>
              </pattern>
              <pattern name="snare.wav" muted="0" type="0" steps="16" pos="2496">
                <note key="57" vol="100" pan="0" len="-192" pos="0"/>
                <note key="57" vol="100" pan="0" len="-192" pos="48"/>
              </pattern>
              <pattern name="snare.wav" muted="0" type="0" steps="16" pos="2688">
                <note key="57" vol="100" pan="0" len="-192" pos="0"/>
                <note key="57" vol="100" pan="0" len="-192" pos="24"/>
                <note key="57" vol="100" pan="0" len="-192" pos="96"/>
                <note key="57" vol="100" pan="0" len="-192" pos="120"/>
              </pattern>
              <pattern name="snare.wav" muted="0" type="0" steps="32" pos="2880">
                <note key="57" vol="100" pan="0" len="-192" pos="336"/>
                <note key="57" vol="100" pan="0" len="-192" pos="348"/>
                <note key="57" vol="100" pan="0" len="-192" pos="360"/>
                <note key="57" vol="100" pan="0" len="-192" pos="372"/>
              </pattern>
              <pattern name="snare.wav" muted="0" type="0" steps="64" pos="3072">
                <note key="57" vol="100" pan="0" len="-192" pos="96"/>
                <note key="57" vol="100" pan="0" len="-192" pos="288"/>
                <note key="57" vol="100" pan="0" len="-192" pos="480"/>
                <note key="57" vol="100" pan="0" len="-192" pos="672"/>
                <note key="57" vol="100" pan="0" len="-192" pos="720"/>
              </pattern>
              <pattern name="snare.wav" muted="0" type="0" steps="32" pos="3264">
                <note key="57" vol="100" pan="0" len="-192" pos="48"/>
                <note key="57" vol="100" pan="0" len="-192" pos="144"/>
                <note key="57" vol="100" pan="0" len="-192" pos="240"/>
                <note key="57" vol="100" pan="0" len="-192" pos="336"/>
              </pattern>
              <pattern name="snare.wav" muted="0" type="0" steps="32" pos="3456">
                <note key="57" vol="100" pan="0" len="-192" pos="0"/>
                <note key="57" vol="100" pan="0" len="-192" pos="12"/>
                <note key="57" vol="100" pan="0" len="-192" pos="72"/>
                <note key="57" vol="100" pan="0" len="-192" pos="84"/>
                <note key="57" vol="100" pan="0" len="-192" pos="144"/>
                <note key="57" vol="100" pan="0" len="-192" pos="156"/>
              </pattern>
              <pattern name="snare.wav" muted="0" type="0" steps="16" pos="3648"/>
              <pattern name="snare.wav" muted="0" type="0" steps="32" pos="3840">
                <note key="57" vol="100" pan="0" len="-192" pos="0"/>
                <note key="57" vol="100" pan="0" len="-192" pos="72"/>
                <note key="57" vol="100" pan="0" len="-192" pos="144"/>
                <note key="57" vol="100" pan="0" len="-192" pos="240"/>
                <note key="57" vol="100" pan="0" len="-192" pos="252"/>
                <note key="57" vol="100" pan="0" len="-192" pos="336"/>
                <note key="57" vol="100" pan="0" len="-192" pos="348"/>
                <note key="57" vol="100" pan="0" len="-192" pos="360"/>
                <note key="57" vol="100" pan="0" len="-192" pos="372"/>
              </pattern>
              <pattern name="snare.wav" muted="0" type="0" steps="64" pos="4032"/>
              <pattern name="snare.wav" muted="0" type="0" steps="64" pos="4224"/>
              <pattern name="snare.wav" muted="0" type="0" steps="64" pos="4416"/>
              <pattern name="snare.wav" muted="0" type="0" steps="128" pos="4608">
                <note key="57" vol="100" pan="0" len="-192" pos="48"/>
                <note key="57" vol="100" pan="0" len="-192" pos="144"/>
                <note key="57" vol="100" pan="0" len="-192" pos="240"/>
                <note key="57" vol="100" pan="0" len="-192" pos="336"/>
                <note key="57" vol="100" pan="0" len="-192" pos="432"/>
                <note key="57" vol="100" pan="0" len="-192" pos="528"/>
                <note key="57" vol="100" pan="0" len="-192" pos="624"/>
                <note key="57" vol="100" pan="0" len="-192" pos="720"/>
                <note key="57" vol="100" pan="0" len="-192" pos="816"/>
                <note key="57" vol="100" pan="0" len="-192" pos="912"/>
                <note key="57" vol="100" pan="0" len="-192" pos="1008"/>
                <note key="57" vol="100" pan="0" len="-192" pos="1104"/>
                <note key="57" vol="100" pan="0" len="-192" pos="1200"/>
                <note key="57" vol="100" pan="0" len="-192" pos="1296"/>
                <note key="57" vol="100" pan="0" len="-192" pos="1392"/>
                <note key="57" vol="100" pan="0" len="-192" pos="1488"/>
              </pattern>
              <pattern name="snare.wav" muted="0" type="0" steps="16" pos="4800">
                <note key="57" vol="100" pan="0" len="-192" pos="0"/>
                <note key="57" vol="100" pan="0" len="-192" pos="48"/>
                <note key="57" vol="100" pan="0" len="-192" pos="96"/>
                <note key="57" vol="100" pan="0" len="-192" pos="144"/>
                <note key="57" vol="100" pan="0" len="-192" pos="156"/>
                <note key="57" vol="100" pan="0" len="-192" pos="168"/>
                <note key="57" vol="100" pan="0" len="-192" pos="180"/>
              </pattern>
              <pattern name="snare.wav" muted="0" type="0" steps="16" pos="4992"/>
            </track>
            <track name="crash1.wav" muted="0" type="0" solo="0">
              <instrumenttrack vol="71.2" pitch="0" pitchrange="1" basenote="57" pan="0" fxch="4" usemasterpitch="1">
                <instrument name="audiofileprocessor">
                  <audiofileprocessor eframe="1" reversed="0" src="/home/huggypie/samples/sillydrums/crash1.wav" amp="100" looped="0" stutter="0" interp="1" sframe="0" lframe="0"/>
                </instrument>
                <eldata ftype="0" fres="0.5" fwet="0" fcut="14000">
                  <elvol dec="2" sustain="1" pdel="0" lpdel="0" rel="2" lspd="0.1" userwavefile="" hold="2" lamt="0" lspd_numerator="4" lspd_syncmode="0" lshp="0" amt="1" x100="0" latt="0" lspd_denominator="4" ctlenvamt="0" att="0"/>
                  <elcut dec="0.5" sustain="0.5" pdel="0" lpdel="0" rel="0.1" lspd="0.1" userwavefile="" hold="0.5" lamt="0" lspd_numerator="4" lspd_syncmode="0" lshp="0" amt="0" x100="0" latt="0" lspd_denominator="4" ctlenvamt="0" att="0"/>
                  <elres dec="0.5" sustain="0.5" pdel="0" lpdel="0" rel="0.1" lspd="0.1" userwavefile="" hold="0.5" lamt="0" lspd_numerator="4" lspd_syncmode="0" lshp="0" amt="0" x100="0" latt="0" lspd_denominator="4" ctlenvamt="0" att="0"/>
                </eldata>
                <chordcreator chord="0" chord-enabled="0" chordrange="1"/>
                <arpeggiator arprange="1" arptime_denominator="4" arpgate="100" arptime_syncmode="0" arp="0" arpmode="0" arpmiss="0" arpdir="0" arptime_numerator="4" arp-enabled="0" arpcycle="0" arpskip="0" arptime="200"/>
                <midiport outputchannel="1" inputcontroller="0" outputcontroller="0" basevelocity="63" fixedinputvelocity="-1" fixedoutputvelocity="-1" outputprogram="1" readable="0" writable="0" fixedoutputnote="-1" inputchannel="0"/>
                <fxchain numofeffects="0" enabled="0"/>
              </instrumenttrack>
              <pattern name="crash1.wav" muted="0" type="0" steps="64" pos="0">
                <note key="57" vol="100" pan="0" len="-192" pos="0"/>
              </pattern>
              <pattern name="crash1.wav" muted="0" type="0" steps="64" pos="192">
                <note key="57" vol="100" pan="0" len="-192" pos="0"/>
              </pattern>
              <pattern name="crash1.wav" muted="0" type="0" steps="32" pos="384">
                <note key="57" vol="100" pan="0" len="-192" pos="288"/>
              </pattern>
              <pattern name="crash1.wav" muted="0" type="0" steps="64" pos="576">
                <note key="57" vol="100" pan="0" len="-192" pos="0"/>
              </pattern>
              <pattern name="crash1.wav" muted="0" type="0" steps="16" pos="768"/>
              <pattern name="crash1.wav" muted="0" type="0" steps="64" pos="960">
                <note key="57" vol="100" pan="0" len="-192" pos="0"/>
                <note key="57" vol="100" pan="0" len="-192" pos="384"/>
              </pattern>
              <pattern name="crash1.wav" muted="0" type="0" steps="64" pos="1152">
                <note key="57" vol="100" pan="0" len="-192" pos="0"/>
              </pattern>
              <pattern name="crash1.wav" muted="0" type="0" steps="32" pos="1344"/>
              <pattern name="crash1.wav" muted="0" type="0" steps="64" pos="1536">
                <note key="57" vol="100" pan="0" len="-192" pos="0"/>
              </pattern>
              <pattern name="crash1.wav" muted="0" type="0" steps="32" pos="1728">
                <note key="57" vol="100" pan="0" len="-192" pos="0"/>
              </pattern>
              <pattern name="crash1.wav" muted="0" type="0" steps="32" pos="1920">
                <note key="57" vol="100" pan="0" len="-192" pos="0"/>
              </pattern>
              <pattern name="crash1.wav" muted="0" type="0" steps="32" pos="2112">
                <note key="57" vol="100" pan="0" len="-192" pos="0"/>
              </pattern>
              <pattern name="crash1.wav" muted="0" type="0" steps="16" pos="2304">
                <note key="57" vol="100" pan="0" len="-192" pos="0"/>
                <note key="57" vol="100" pan="0" len="-192" pos="96"/>
              </pattern>
              <pattern name="crash1.wav" muted="0" type="0" steps="16" pos="2496">
                <note key="57" vol="100" pan="0" len="-192" pos="96"/>
              </pattern>
              <pattern name="crash1.wav" muted="0" type="0" steps="16" pos="2688"/>
              <pattern name="crash1.wav" muted="0" type="0" steps="32" pos="2880">
                <note key="57" vol="100" pan="0" len="-192" pos="96"/>
                <note key="57" vol="100" pan="0" len="-192" pos="288"/>
              </pattern>
              <pattern name="crash1.wav" muted="0" type="0" steps="64" pos="3072">
                <note key="57" vol="100" pan="0" len="-192" pos="0"/>
                <note key="57" vol="100" pan="0" len="-192" pos="384"/>
              </pattern>
              <pattern name="crash1.wav" muted="0" type="0" steps="32" pos="3264">
                <note key="57" vol="100" pan="0" len="-192" pos="0"/>
              </pattern>
              <pattern name="crash1.wav" muted="0" type="0" steps="32" pos="3456">
                <note key="57" vol="100" pan="0" len="-192" pos="192"/>
              </pattern>
              <pattern name="crash1.wav" muted="0" type="0" steps="16" pos="3648">
                <note key="57" vol="100" pan="0" len="-192" pos="0"/>
              </pattern>
              <pattern name="crash1.wav" muted="0" type="0" steps="32" pos="3840">
                <note key="57" vol="100" pan="0" len="-192" pos="0"/>
              </pattern>
              <pattern name="crash1.wav" muted="0" type="0" steps="64" pos="4032">
                <note key="57" vol="100" pan="0" len="-192" pos="0"/>
                <note key="57" vol="100" pan="0" len="-192" pos="384"/>
              </pattern>
              <pattern name="crash1.wav" muted="0" type="0" steps="64" pos="4224">
                <note key="57" vol="100" pan="0" len="-192" pos="0"/>
                <note key="57" vol="100" pan="0" len="-192" pos="384"/>
                <note key="57" vol="100" pan="0" len="-192" pos="576"/>
              </pattern>
              <pattern name="crash1.wav" muted="0" type="0" steps="64" pos="4416">
                <note key="57" vol="100" pan="0" len="-192" pos="0"/>
                <note key="57" vol="100" pan="0" len="-192" pos="576"/>
              </pattern>
              <pattern name="crash1.wav" muted="0" type="0" steps="128" pos="4608">
                <note key="57" vol="100" pan="0" len="-192" pos="0"/>
              </pattern>
              <pattern name="crash1.wav" muted="0" type="0" steps="16" pos="4800"/>
              <pattern name="crash1.wav" muted="0" type="0" steps="16" pos="4992">
                <note key="57" vol="100" pan="0" len="-192" pos="0"/>
              </pattern>
            </track>
            <track name="crash1m" muted="0" type="0" solo="0">
              <instrumenttrack vol="71.2" pitch="0" pitchrange="1" basenote="57" pan="0" fxch="4" usemasterpitch="1">
                <instrument name="audiofileprocessor">
                  <audiofileprocessor eframe="1" reversed="0" src="/home/huggypie/samples/sillydrums/crash1.wav" amp="100" looped="0" stutter="0" interp="1" sframe="0" lframe="0"/>
                </instrument>
                <eldata ftype="0" fres="0.5" fwet="0" fcut="14000">
                  <elvol dec="0.216" sustain="0" pdel="0" lpdel="0" rel="0.208" lspd="0.1" userwavefile="" hold="0.232" lamt="0" lspd_numerator="4" lspd_syncmode="0" lshp="0" amt="1" x100="0" latt="0" lspd_denominator="4" ctlenvamt="0" att="0"/>
                  <elcut dec="0.5" sustain="0.5" pdel="0" lpdel="0" rel="0.1" lspd="0.1" userwavefile="" hold="0.5" lamt="0" lspd_numerator="4" lspd_syncmode="0" lshp="0" amt="0" x100="0" latt="0" lspd_denominator="4" ctlenvamt="0" att="0"/>
                  <elres dec="0.5" sustain="0.5" pdel="0" lpdel="0" rel="0.1" lspd="0.1" userwavefile="" hold="0.5" lamt="0" lspd_numerator="4" lspd_syncmode="0" lshp="0" amt="0" x100="0" latt="0" lspd_denominator="4" ctlenvamt="0" att="0"/>
                </eldata>
                <chordcreator chord="0" chord-enabled="0" chordrange="1"/>
                <arpeggiator arprange="1" arptime_denominator="4" arpgate="100" arptime_syncmode="0" arp="0" arpmode="0" arpmiss="0" arpdir="0" arptime_numerator="4" arp-enabled="0" arpcycle="0" arpskip="0" arptime="200"/>
                <midiport outputchannel="1" inputcontroller="0" outputcontroller="0" basevelocity="63" fixedinputvelocity="-1" fixedoutputvelocity="-1" outputprogram="1" readable="0" writable="0" fixedoutputnote="-1" inputchannel="0"/>
                <fxchain numofeffects="0" enabled="0"/>
              </instrumenttrack>
              <pattern name="crash1m" muted="0" type="0" steps="64" pos="0"/>
              <pattern name="crash1m" muted="0" type="0" steps="64" pos="192"/>
              <pattern name="crash1m" muted="0" type="0" steps="32" pos="384">
                <note key="57" vol="100" pan="0" len="-192" pos="0"/>
                <note key="57" vol="100" pan="0" len="-192" pos="72"/>
                <note key="57" vol="100" pan="0" len="-192" pos="144"/>
                <note key="57" vol="100" pan="0" len="-192" pos="216"/>
              </pattern>
              <pattern name="crash1m" muted="0" type="0" steps="64" pos="576"/>
              <pattern name="crash1m" muted="0" type="0" steps="16" pos="768"/>
              <pattern name="crash1m" muted="0" type="0" steps="64" pos="960"/>
              <pattern name="crash1m" muted="0" type="0" steps="64" pos="1152"/>
              <pattern name="crash1m" muted="0" type="0" steps="32" pos="1344">
                <note key="57" vol="100" pan="0" len="-192" pos="0"/>
              </pattern>
              <pattern name="crash1m" muted="0" type="0" steps="64" pos="1536"/>
              <pattern name="crash1m" muted="0" type="0" steps="32" pos="1728"/>
              <pattern name="crash1m" muted="0" type="0" steps="32" pos="1920"/>
              <pattern name="crash1m" muted="0" type="0" steps="32" pos="2112"/>
              <pattern name="crash1m" muted="0" type="0" steps="16" pos="2304"/>
              <pattern name="crash1m" muted="0" type="0" steps="16" pos="2496"/>
              <pattern name="crash1m" muted="0" type="0" steps="16" pos="2688"/>
              <pattern name="crash1m" muted="0" type="0" steps="32" pos="2880"/>
              <pattern name="crash1m" muted="0" type="0" steps="64" pos="3072"/>
              <pattern name="crash1m" muted="0" type="0" steps="32" pos="3264"/>
              <pattern name="crash1m" muted="0" type="0" steps="32" pos="3456"/>
              <pattern name="crash1m" muted="0" type="0" steps="16" pos="3648"/>
              <pattern name="crash1m" muted="0" type="0" steps="32" pos="3840"/>
              <pattern name="crash1m" muted="0" type="0" steps="64" pos="4032"/>
              <pattern name="crash1m" muted="0" type="0" steps="64" pos="4224"/>
              <pattern name="crash1m" muted="0" type="0" steps="64" pos="4416"/>
              <pattern name="crash1m" muted="0" type="0" steps="128" pos="4608"/>
              <pattern name="crash1m" muted="0" type="0" steps="16" pos="4800"/>
              <pattern name="crash1m" muted="0" type="0" steps="16" pos="4992"/>
            </track>
            <track name="crash2.wav" muted="0" type="0" solo="0">
              <instrumenttrack vol="76.8" pitch="0" pitchrange="1" basenote="57" pan="28" fxch="5" usemasterpitch="1">
                <instrument name="audiofileprocessor">
                  <audiofileprocessor eframe="1" reversed="0" src="/home/huggypie/samples/sillydrums/crash2.wav" amp="100" looped="0" stutter="0" interp="1" sframe="0" lframe="0"/>
                </instrument>
                <eldata ftype="0" fres="0.5" fwet="0" fcut="14000">
                  <elvol dec="2" sustain="1" pdel="0" lpdel="0" rel="2" lspd="0.1" userwavefile="" hold="2" lamt="0" lspd_numerator="4" lspd_syncmode="0" lshp="0" amt="1" x100="0" latt="0" lspd_denominator="4" ctlenvamt="0" att="0"/>
                  <elcut dec="0.5" sustain="0.5" pdel="0" lpdel="0" rel="0.1" lspd="0.1" userwavefile="" hold="0.5" lamt="0" lspd_numerator="4" lspd_syncmode="0" lshp="0" amt="0" x100="0" latt="0" lspd_denominator="4" ctlenvamt="0" att="0"/>
                  <elres dec="0.5" sustain="0.5" pdel="0" lpdel="0" rel="0.1" lspd="0.1" userwavefile="" hold="0.5" lamt="0" lspd_numerator="4" lspd_syncmode="0" lshp="0" amt="0" x100="0" latt="0" lspd_denominator="4" ctlenvamt="0" att="0"/>
                </eldata>
                <chordcreator chord="0" chord-enabled="0" chordrange="1"/>
                <arpeggiator arprange="1" arptime_denominator="4" arpgate="100" arptime_syncmode="0" arp="0" arpmode="0" arpmiss="0" arpdir="0" arptime_numerator="4" arp-enabled="0" arpcycle="0" arpskip="0" arptime="200"/>
                <midiport outputchannel="1" inputcontroller="0" outputcontroller="0" basevelocity="63" fixedinputvelocity="-1" fixedoutputvelocity="-1" outputprogram="1" readable="0" writable="0" fixedoutputnote="-1" inputchannel="0"/>
                <fxchain numofeffects="0" enabled="0"/>
              </instrumenttrack>
              <pattern name="crash2.wav" muted="0" type="0" steps="64" pos="0">
                <note key="57" vol="100" pan="0" len="-192" pos="384"/>
              </pattern>
              <pattern name="crash2.wav" muted="0" type="0" steps="64" pos="192">
                <note key="57" vol="100" pan="0" len="-192" pos="384"/>
              </pattern>
              <pattern name="crash2.wav" muted="0" type="0" steps="32" pos="384"/>
              <pattern name="crash2.wav" muted="0" type="0" steps="64" pos="576">
                <note key="57" vol="100" pan="0" len="-192" pos="384"/>
              </pattern>
              <pattern name="crash2.wav" muted="0" type="0" steps="16" pos="768"/>
              <pattern name="crash2.wav" muted="0" type="0" steps="64" pos="960">
                <note key="57" vol="100" pan="0" len="-192" pos="192"/>
              </pattern>
              <pattern name="crash2.wav" muted="0" type="0" steps="64" pos="1152">
                <note key="57" vol="100" pan="0" len="-192" pos="384"/>
              </pattern>
              <pattern name="crash2.wav" muted="0" type="0" steps="32" pos="1344"/>
              <pattern name="crash2.wav" muted="0" type="0" steps="64" pos="1536">
                <note key="57" vol="100" pan="0" len="-192" pos="384"/>
              </pattern>
              <pattern name="crash2.wav" muted="0" type="0" steps="32" pos="1728">
                <note key="57" vol="100" pan="0" len="-192" pos="192"/>
              </pattern>
              <pattern name="crash2.wav" muted="0" type="0" steps="32" pos="1920">
                <note key="57" vol="100" pan="0" len="-192" pos="192"/>
              </pattern>
              <pattern name="crash2.wav" muted="0" type="0" steps="32" pos="2112">
                <note key="57" vol="100" pan="0" len="-192" pos="192"/>
              </pattern>
              <pattern name="crash2.wav" muted="0" type="0" steps="16" pos="2304">
                <note key="57" vol="100" pan="0" len="-192" pos="48"/>
              </pattern>
              <pattern name="crash2.wav" muted="0" type="0" steps="16" pos="2496">
                <note key="57" vol="100" pan="0" len="-192" pos="144"/>
              </pattern>
              <pattern name="crash2.wav" muted="0" type="0" steps="16" pos="2688"/>
              <pattern name="crash2.wav" muted="0" type="0" steps="32" pos="2880">
                <note key="57" vol="100" pan="0" len="-192" pos="192"/>
                <note key="57" vol="100" pan="0" len="-192" pos="288"/>
              </pattern>
              <pattern name="crash2.wav" muted="0" type="0" steps="64" pos="3072">
                <note key="57" vol="100" pan="0" len="-192" pos="192"/>
                <note key="57" vol="100" pan="0" len="-192" pos="576"/>
              </pattern>
              <pattern name="crash2.wav" muted="0" type="0" steps="32" pos="3264">
                <note key="57" vol="100" pan="0" len="-192" pos="192"/>
              </pattern>
              <pattern name="crash2.wav" muted="0" type="0" steps="32" pos="3456">
                <note key="57" vol="100" pan="0" len="-192" pos="192"/>
              </pattern>
              <pattern name="crash2.wav" muted="0" type="0" steps="16" pos="3648">
                <note key="57" vol="100" pan="0" len="-192" pos="96"/>
              </pattern>
              <pattern name="crash2.wav" muted="0" type="0" steps="32" pos="3840">
                <note key="57" vol="100" pan="0" len="-192" pos="72"/>
              </pattern>
              <pattern name="crash2.wav" muted="0" type="0" steps="64" pos="4032">
                <note key="57" vol="100" pan="0" len="-192" pos="192"/>
              </pattern>
              <pattern name="crash2.wav" muted="0" type="0" steps="64" pos="4224">
                <note key="57" vol="100" pan="0" len="-192" pos="192"/>
                <note key="57" vol="100" pan="0" len="-192" pos="672"/>
              </pattern>
              <pattern name="crash2.wav" muted="0" type="0" steps="64" pos="4416">
                <note key="57" vol="100" pan="0" len="-192" pos="384"/>
                <note key="57" vol="100" pan="0" len="-192" pos="672"/>
              </pattern>
              <pattern name="crash2.wav" muted="0" type="0" steps="128" pos="4608">
                <note key="57" vol="100" pan="0" len="-192" pos="768"/>
              </pattern>
              <pattern name="crash2.wav" muted="0" type="0" steps="16" pos="4800"/>
              <pattern name="crash2.wav" muted="0" type="0" steps="16" pos="4992">
                <note key="57" vol="100" pan="0" len="-192" pos="0"/>
              </pattern>
            </track>
            <track name="china.wav" muted="0" type="0" solo="0">
              <instrumenttrack vol="130.4" pitch="0" pitchrange="1" basenote="57" pan="0" fxch="6" usemasterpitch="1">
                <instrument name="audiofileprocessor">
                  <audiofileprocessor eframe="1" reversed="0" src="/home/huggypie/samples/sillydrums/china.wav" amp="100" looped="0" stutter="0" interp="1" sframe="0" lframe="0"/>
                </instrument>
                <eldata ftype="0" fres="0.5" fwet="0" fcut="14000">
                  <elvol dec="2" sustain="1" pdel="0" lpdel="0" rel="2" lspd="0.1" userwavefile="" hold="2" lamt="0" lspd_numerator="4" lspd_syncmode="0" lshp="0" amt="1" x100="0" latt="0" lspd_denominator="4" ctlenvamt="0" att="0"/>
                  <elcut dec="0.5" sustain="0.5" pdel="0" lpdel="0" rel="0.1" lspd="0.1" userwavefile="" hold="0.5" lamt="0" lspd_numerator="4" lspd_syncmode="0" lshp="0" amt="0" x100="0" latt="0" lspd_denominator="4" ctlenvamt="0" att="0"/>
                  <elres dec="0.5" sustain="0.5" pdel="0" lpdel="0" rel="0.1" lspd="0.1" userwavefile="" hold="0.5" lamt="0" lspd_numerator="4" lspd_syncmode="0" lshp="0" amt="0" x100="0" latt="0" lspd_denominator="4" ctlenvamt="0" att="0"/>
                </eldata>
                <chordcreator chord="0" chord-enabled="0" chordrange="1"/>
                <arpeggiator arprange="1" arptime_denominator="4" arpgate="100" arptime_syncmode="0" arp="0" arpmode="0" arpmiss="0" arpdir="0" arptime_numerator="4" arp-enabled="0" arpcycle="0" arpskip="0" arptime="200"/>
                <midiport outputchannel="1" inputcontroller="0" outputcontroller="0" basevelocity="63" fixedinputvelocity="-1" fixedoutputvelocity="-1" outputprogram="1" readable="0" writable="0" fixedoutputnote="-1" inputchannel="0"/>
                <fxchain numofeffects="0" enabled="0"/>
              </instrumenttrack>
              <pattern name="china.wav" muted="0" type="0" steps="64" pos="0"/>
              <pattern name="china.wav" muted="0" type="0" steps="64" pos="192"/>
              <pattern name="china.wav" muted="0" type="0" steps="32" pos="384"/>
              <pattern name="china.wav" muted="0" type="0" steps="64" pos="576"/>
              <pattern name="china.wav" muted="0" type="0" steps="16" pos="768"/>
              <pattern name="china.wav" muted="0" type="0" steps="64" pos="960"/>
              <pattern name="china.wav" muted="0" type="0" steps="64" pos="1152"/>
              <pattern name="china.wav" muted="0" type="0" steps="32" pos="1344"/>
              <pattern name="china.wav" muted="0" type="0" steps="64" pos="1536"/>
              <pattern name="china.wav" muted="0" type="0" steps="32" pos="1728"/>
              <pattern name="china.wav" muted="0" type="0" steps="32" pos="1920"/>
              <pattern name="china.wav" muted="0" type="0" steps="32" pos="2112"/>
              <pattern name="china.wav" muted="0" type="0" steps="16" pos="2304"/>
              <pattern name="china.wav" muted="0" type="0" steps="16" pos="2496"/>
              <pattern name="china.wav" muted="0" type="0" steps="16" pos="2688"/>
              <pattern name="china.wav" muted="0" type="0" steps="32" pos="2880"/>
              <pattern name="china.wav" muted="0" type="0" steps="64" pos="3072"/>
              <pattern name="china.wav" muted="0" type="0" steps="32" pos="3264">
                <note key="57" vol="100" pan="0" len="-192" pos="48"/>
                <note key="57" vol="100" pan="0" len="-192" pos="96"/>
                <note key="57" vol="100" pan="0" len="-192" pos="144"/>
                <note key="57" vol="100" pan="0" len="-192" pos="240"/>
                <note key="57" vol="100" pan="0" len="-192" pos="288"/>
                <note key="57" vol="100" pan="0" len="-192" pos="336"/>
              </pattern>
              <pattern name="china.wav" muted="0" type="0" steps="32" pos="3456"/>
              <pattern name="china.wav" muted="0" type="0" steps="16" pos="3648"/>
              <pattern name="china.wav" muted="0" type="0" steps="32" pos="3840"/>
              <pattern name="china.wav" muted="0" type="0" steps="64" pos="4032">
                <note key="57" vol="100" pan="0" len="-192" pos="672"/>
              </pattern>
              <pattern name="china.wav" muted="0" type="0" steps="64" pos="4224"/>
              <pattern name="china.wav" muted="0" type="0" steps="64" pos="4416"/>
              <pattern name="china.wav" muted="0" type="0" steps="128" pos="4608"/>
              <pattern name="china.wav" muted="0" type="0" steps="16" pos="4800"/>
              <pattern name="china.wav" muted="0" type="0" steps="16" pos="4992"/>
            </track>
            <track name="hiTom.wav" muted="0" type="0" solo="0">
              <instrumenttrack vol="130.4" pitch="0" pitchrange="1" basenote="57" pan="0" fxch="7" usemasterpitch="1">
                <instrument name="audiofileprocessor">
                  <audiofileprocessor eframe="1" reversed="0" src="/home/huggypie/samples/sillydrums/hiTom.wav" amp="100" looped="0" stutter="0" interp="1" sframe="0" lframe="0"/>
                </instrument>
                <eldata ftype="0" fres="0.5" fwet="0" fcut="14000">
                  <elvol dec="2" sustain="1" pdel="0" lpdel="0" rel="2" lspd="0.1" userwavefile="" hold="2" lamt="0" lspd_numerator="4" lspd_syncmode="0" lshp="0" amt="1" x100="0" latt="0" lspd_denominator="4" ctlenvamt="0" att="0"/>
                  <elcut dec="0.5" sustain="0.5" pdel="0" lpdel="0" rel="0.1" lspd="0.1" userwavefile="" hold="0.5" lamt="0" lspd_numerator="4" lspd_syncmode="0" lshp="0" amt="0" x100="0" latt="0" lspd_denominator="4" ctlenvamt="0" att="0"/>
                  <elres dec="0.5" sustain="0.5" pdel="0" lpdel="0" rel="0.1" lspd="0.1" userwavefile="" hold="0.5" lamt="0" lspd_numerator="4" lspd_syncmode="0" lshp="0" amt="0" x100="0" latt="0" lspd_denominator="4" ctlenvamt="0" att="0"/>
                </eldata>
                <chordcreator chord="0" chord-enabled="0" chordrange="1"/>
                <arpeggiator arprange="1" arptime_denominator="4" arpgate="100" arptime_syncmode="0" arp="0" arpmode="0" arpmiss="0" arpdir="0" arptime_numerator="4" arp-enabled="0" arpcycle="0" arpskip="0" arptime="200"/>
                <midiport outputchannel="1" inputcontroller="0" outputcontroller="0" basevelocity="63" fixedinputvelocity="-1" fixedoutputvelocity="-1" outputprogram="1" readable="0" writable="0" fixedoutputnote="-1" inputchannel="0"/>
                <fxchain numofeffects="0" enabled="0"/>
              </instrumenttrack>
              <pattern name="hiTom.wav" muted="0" type="0" steps="64" pos="0"/>
              <pattern name="hiTom.wav" muted="0" type="0" steps="64" pos="192"/>
              <pattern name="hiTom.wav" muted="0" type="0" steps="32" pos="384"/>
              <pattern name="hiTom.wav" muted="0" type="0" steps="64" pos="576"/>
              <pattern name="hiTom.wav" muted="0" type="0" steps="16" pos="768"/>
              <pattern name="hiTom.wav" muted="0" type="0" steps="64" pos="960"/>
              <pattern name="hiTom.wav" muted="0" type="0" steps="64" pos="1152"/>
              <pattern name="hiTom.wav" muted="0" type="0" steps="32" pos="1344"/>
              <pattern name="hiTom.wav" muted="0" type="0" steps="64" pos="1536"/>
              <pattern name="hiTom.wav" muted="0" type="0" steps="32" pos="1728"/>
              <pattern name="hiTom.wav" muted="0" type="0" steps="32" pos="1920"/>
              <pattern name="hiTom.wav" muted="0" type="0" steps="32" pos="2112"/>
              <pattern name="hiTom.wav" muted="0" type="0" steps="16" pos="2304"/>
              <pattern name="hiTom.wav" muted="0" type="0" steps="16" pos="2496">
                <note key="57" vol="100" pan="0" len="-192" pos="12"/>
                <note key="57" vol="100" pan="0" len="-192" pos="60"/>
              </pattern>
              <pattern name="hiTom.wav" muted="0" type="0" steps="16" pos="2688"/>
              <pattern name="hiTom.wav" muted="0" type="0" steps="32" pos="2880"/>
              <pattern name="hiTom.wav" muted="0" type="0" steps="64" pos="3072"/>
              <pattern name="hiTom.wav" muted="0" type="0" steps="32" pos="3264"/>
              <pattern name="hiTom.wav" muted="0" type="0" steps="32" pos="3456">
                <note key="57" vol="100" pan="0" len="-192" pos="24"/>
                <note key="57" vol="100" pan="0" len="-192" pos="36"/>
                <note key="57" vol="100" pan="0" len="-192" pos="48"/>
                <note key="57" vol="100" pan="0" len="-192" pos="60"/>
              </pattern>
              <pattern name="hiTom.wav" muted="0" type="0" steps="16" pos="3648"/>
              <pattern name="hiTom.wav" muted="0" type="0" steps="32" pos="3840">
                <note key="57" vol="100" pan="0" len="-192" pos="192"/>
                <note key="57" vol="100" pan="0" len="-192" pos="204"/>
                <note key="57" vol="100" pan="0" len="-192" pos="288"/>
                <note key="57" vol="100" pan="0" len="-192" pos="300"/>
              </pattern>
              <pattern name="hiTom.wav" muted="0" type="0" steps="64" pos="4032"/>
              <pattern name="hiTom.wav" muted="0" type="0" steps="64" pos="4224"/>
              <pattern name="hiTom.wav" muted="0" type="0" steps="64" pos="4416"/>
              <pattern name="hiTom.wav" muted="0" type="0" steps="128" pos="4608"/>
              <pattern name="hiTom.wav" muted="0" type="0" steps="16" pos="4800">
                <note key="57" vol="100" pan="0" len="-192" pos="12"/>
                <note key="57" vol="100" pan="0" len="-192" pos="24"/>
                <note key="57" vol="100" pan="0" len="-192" pos="36"/>
              </pattern>
              <pattern name="hiTom.wav" muted="0" type="0" steps="16" pos="4992"/>
            </track>
            <track name="midTom.wav" muted="0" type="0" solo="0">
              <instrumenttrack vol="130.4" pitch="0" pitchrange="1" basenote="57" pan="0" fxch="8" usemasterpitch="1">
                <instrument name="audiofileprocessor">
                  <audiofileprocessor eframe="1" reversed="0" src="/home/huggypie/samples/sillydrums/midTom.wav" amp="100" looped="0" stutter="0" interp="1" sframe="0" lframe="0"/>
                </instrument>
                <eldata ftype="0" fres="0.5" fwet="0" fcut="14000">
                  <elvol dec="2" sustain="1" pdel="0" lpdel="0" rel="2" lspd="0.1" userwavefile="" hold="2" lamt="0" lspd_numerator="4" lspd_syncmode="0" lshp="0" amt="1" x100="0" latt="0" lspd_denominator="4" ctlenvamt="0" att="0"/>
                  <elcut dec="0.5" sustain="0.5" pdel="0" lpdel="0" rel="0.1" lspd="0.1" userwavefile="" hold="0.5" lamt="0" lspd_numerator="4" lspd_syncmode="0" lshp="0" amt="0" x100="0" latt="0" lspd_denominator="4" ctlenvamt="0" att="0"/>
                  <elres dec="0.5" sustain="0.5" pdel="0" lpdel="0" rel="0.1" lspd="0.1" userwavefile="" hold="0.5" lamt="0" lspd_numerator="4" lspd_syncmode="0" lshp="0" amt="0" x100="0" latt="0" lspd_denominator="4" ctlenvamt="0" att="0"/>
                </eldata>
                <chordcreator chord="0" chord-enabled="0" chordrange="1"/>
                <arpeggiator arprange="1" arptime_denominator="4" arpgate="100" arptime_syncmode="0" arp="0" arpmode="0" arpmiss="0" arpdir="0" arptime_numerator="4" arp-enabled="0" arpcycle="0" arpskip="0" arptime="200"/>
                <midiport outputchannel="1" inputcontroller="0" outputcontroller="0" basevelocity="63" fixedinputvelocity="-1" fixedoutputvelocity="-1" outputprogram="1" readable="0" writable="0" fixedoutputnote="-1" inputchannel="0"/>
                <fxchain numofeffects="0" enabled="0"/>
              </instrumenttrack>
              <pattern name="midTom.wav" muted="0" type="0" steps="64" pos="0"/>
              <pattern name="midTom.wav" muted="0" type="0" steps="64" pos="192"/>
              <pattern name="midTom.wav" muted="0" type="0" steps="32" pos="384"/>
              <pattern name="midTom.wav" muted="0" type="0" steps="64" pos="576"/>
              <pattern name="midTom.wav" muted="0" type="0" steps="16" pos="768">
                <note key="57" vol="100" pan="0" len="-192" pos="108"/>
                <note key="57" vol="100" pan="0" len="-192" pos="120"/>
                <note key="57" vol="100" pan="0" len="-192" pos="132"/>
              </pattern>
              <pattern name="midTom.wav" muted="0" type="0" steps="64" pos="960"/>
              <pattern name="midTom.wav" muted="0" type="0" steps="64" pos="1152"/>
              <pattern name="midTom.wav" muted="0" type="0" steps="32" pos="1344"/>
              <pattern name="midTom.wav" muted="0" type="0" steps="64" pos="1536"/>
              <pattern name="midTom.wav" muted="0" type="0" steps="32" pos="1728"/>
              <pattern name="midTom.wav" muted="0" type="0" steps="32" pos="1920"/>
              <pattern name="midTom.wav" muted="0" type="0" steps="32" pos="2112"/>
              <pattern name="midTom.wav" muted="0" type="0" steps="16" pos="2304"/>
              <pattern name="midTom.wav" muted="0" type="0" steps="16" pos="2496">
                <note key="57" vol="100" pan="0" len="-192" pos="24"/>
                <note key="57" vol="100" pan="0" len="-192" pos="72"/>
              </pattern>
              <pattern name="midTom.wav" muted="0" type="0" steps="16" pos="2688"/>
              <pattern name="midTom.wav" muted="0" type="0" steps="32" pos="2880"/>
              <pattern name="midTom.wav" muted="0" type="0" steps="64" pos="3072">
                <note key="57" vol="100" pan="0" len="-192" pos="684"/>
                <note key="57" vol="100" pan="0" len="-192" pos="696"/>
                <note key="57" vol="100" pan="0" len="-192" pos="708"/>
              </pattern>
              <pattern name="midTom.wav" muted="0" type="0" steps="32" pos="3264"/>
              <pattern name="midTom.wav" muted="0" type="0" steps="32" pos="3456">
                <note key="57" vol="100" pan="0" len="-192" pos="96"/>
                <note key="57" vol="100" pan="0" len="-192" pos="108"/>
                <note key="57" vol="100" pan="0" len="-192" pos="120"/>
                <note key="57" vol="100" pan="0" len="-192" pos="132"/>
              </pattern>
              <pattern name="midTom.wav" muted="0" type="0" steps="16" pos="3648"/>
              <pattern name="midTom.wav" muted="0" type="0" steps="32" pos="3840">
                <note key="57" vol="100" pan="0" len="-192" pos="24"/>
                <note key="57" vol="100" pan="0" len="-192" pos="36"/>
                <note key="57" vol="100" pan="0" len="-192" pos="120"/>
                <note key="57" vol="100" pan="0" len="-192" pos="168"/>
                <note key="57" vol="100" pan="0" len="-192" pos="216"/>
                <note key="57" vol="100" pan="0" len="-192" pos="228"/>
                <note key="57" vol="100" pan="0" len="-192" pos="312"/>
                <note key="57" vol="100" pan="0" len="-192" pos="324"/>
              </pattern>
              <pattern name="midTom.wav" muted="0" type="0" steps="64" pos="4032"/>
              <pattern name="midTom.wav" muted="0" type="0" steps="64" pos="4224"/>
              <pattern name="midTom.wav" muted="0" type="0" steps="64" pos="4416"/>
              <pattern name="midTom.wav" muted="0" type="0" steps="128" pos="4608"/>
              <pattern name="midTom.wav" muted="0" type="0" steps="16" pos="4800">
                <note key="57" vol="100" pan="0" len="-192" pos="60"/>
                <note key="57" vol="100" pan="0" len="-192" pos="72"/>
                <note key="57" vol="100" pan="0" len="-192" pos="84"/>
              </pattern>
              <pattern name="midTom.wav" muted="0" type="0" steps="16" pos="4992"/>
            </track>
            <track name="loTom.wav" muted="0" type="0" solo="0">
              <instrumenttrack vol="130.4" pitch="0" pitchrange="1" basenote="57" pan="0" fxch="9" usemasterpitch="1">
                <instrument name="audiofileprocessor">
                  <audiofileprocessor eframe="1" reversed="0" src="/home/huggypie/samples/sillydrums/loTom.wav" amp="100" looped="0" stutter="0" interp="1" sframe="0" lframe="0"/>
                </instrument>
                <eldata ftype="0" fres="0.5" fwet="0" fcut="14000">
                  <elvol dec="2" sustain="1" pdel="0" lpdel="0" rel="2" lspd="0.1" userwavefile="" hold="2" lamt="0" lspd_numerator="4" lspd_syncmode="0" lshp="0" amt="1" x100="0" latt="0" lspd_denominator="4" ctlenvamt="0" att="0"/>
                  <elcut dec="0.5" sustain="0.5" pdel="0" lpdel="0" rel="0.1" lspd="0.1" userwavefile="" hold="0.5" lamt="0" lspd_numerator="4" lspd_syncmode="0" lshp="0" amt="0" x100="0" latt="0" lspd_denominator="4" ctlenvamt="0" att="0"/>
                  <elres dec="0.5" sustain="0.5" pdel="0" lpdel="0" rel="0.1" lspd="0.1" userwavefile="" hold="0.5" lamt="0" lspd_numerator="4" lspd_syncmode="0" lshp="0" amt="0" x100="0" latt="0" lspd_denominator="4" ctlenvamt="0" att="0"/>
                </eldata>
                <chordcreator chord="0" chord-enabled="0" chordrange="1"/>
                <arpeggiator arprange="1" arptime_denominator="4" arpgate="100" arptime_syncmode="0" arp="0" arpmode="0" arpmiss="0" arpdir="0" arptime_numerator="4" arp-enabled="0" arpcycle="0" arpskip="0" arptime="200"/>
                <midiport outputchannel="1" inputcontroller="0" outputcontroller="0" basevelocity="63" fixedinputvelocity="-1" fixedoutputvelocity="-1" outputprogram="1" readable="0" writable="0" fixedoutputnote="-1" inputchannel="0"/>
                <fxchain numofeffects="0" enabled="0"/>
              </instrumenttrack>
              <pattern name="loTom.wav" muted="0" type="0" steps="64" pos="0"/>
              <pattern name="loTom.wav" muted="0" type="0" steps="64" pos="192"/>
              <pattern name="loTom.wav" muted="0" type="0" steps="32" pos="384"/>
              <pattern name="loTom.wav" muted="0" type="0" steps="64" pos="576"/>
              <pattern name="loTom.wav" muted="0" type="0" steps="16" pos="768">
                <note key="57" vol="100" pan="0" len="-192" pos="156"/>
                <note key="57" vol="100" pan="0" len="-192" pos="168"/>
                <note key="57" vol="100" pan="0" len="-192" pos="180"/>
              </pattern>
              <pattern name="loTom.wav" muted="0" type="0" steps="64" pos="960"/>
              <pattern name="loTom.wav" muted="0" type="0" steps="64" pos="1152"/>
              <pattern name="loTom.wav" muted="0" type="0" steps="32" pos="1344"/>
              <pattern name="loTom.wav" muted="0" type="0" steps="64" pos="1536"/>
              <pattern name="loTom.wav" muted="0" type="0" steps="32" pos="1728"/>
              <pattern name="loTom.wav" muted="0" type="0" steps="32" pos="1920"/>
              <pattern name="loTom.wav" muted="0" type="0" steps="32" pos="2112"/>
              <pattern name="loTom.wav" muted="0" type="0" steps="16" pos="2304"/>
              <pattern name="loTom.wav" muted="0" type="0" steps="16" pos="2496">
                <note key="57" vol="100" pan="0" len="-192" pos="36"/>
                <note key="57" vol="100" pan="0" len="-192" pos="84"/>
              </pattern>
              <pattern name="loTom.wav" muted="0" type="0" steps="16" pos="2688"/>
              <pattern name="loTom.wav" muted="0" type="0" steps="32" pos="2880"/>
              <pattern name="loTom.wav" muted="0" type="0" steps="64" pos="3072">
                <note key="57" vol="100" pan="0" len="-192" pos="732"/>
                <note key="57" vol="100" pan="0" len="-192" pos="744"/>
                <note key="57" vol="100" pan="0" len="-192" pos="756"/>
              </pattern>
              <pattern name="loTom.wav" muted="0" type="0" steps="32" pos="3264"/>
              <pattern name="loTom.wav" muted="0" type="0" steps="32" pos="3456">
                <note key="57" vol="100" pan="0" len="-192" pos="168"/>
                <note key="57" vol="100" pan="0" len="-192" pos="180"/>
              </pattern>
              <pattern name="loTom.wav" muted="0" type="0" steps="16" pos="3648">
                <note key="57" vol="100" pan="0" len="-192" pos="168"/>
                <note key="57" vol="100" pan="0" len="-192" pos="180"/>
              </pattern>
              <pattern name="loTom.wav" muted="0" type="0" steps="32" pos="3840">
                <note key="57" vol="100" pan="0" len="-192" pos="48"/>
                <note key="57" vol="100" pan="0" len="-192" pos="60"/>
                <note key="57" vol="100" pan="0" len="-192" pos="120"/>
                <note key="57" vol="100" pan="0" len="-192" pos="168"/>
                <note key="57" vol="100" pan="0" len="-192" pos="264"/>
                <note key="57" vol="100" pan="0" len="-192" pos="276"/>
              </pattern>
              <pattern name="loTom.wav" muted="0" type="0" steps="64" pos="4032"/>
              <pattern name="loTom.wav" muted="0" type="0" steps="64" pos="4224"/>
              <pattern name="loTom.wav" muted="0" type="0" steps="64" pos="4416"/>
              <pattern name="loTom.wav" muted="0" type="0" steps="128" pos="4608"/>
              <pattern name="loTom.wav" muted="0" type="0" steps="16" pos="4800">
                <note key="57" vol="100" pan="0" len="-192" pos="108"/>
                <note key="57" vol="100" pan="0" len="-192" pos="120"/>
                <note key="57" vol="100" pan="0" len="-192" pos="132"/>
              </pattern>
              <pattern name="loTom.wav" muted="0" type="0" steps="16" pos="4992"/>
            </track>
            <track name="hihat_opened02.ogg" muted="0" type="0" solo="0">
              <instrumenttrack vol="100" pitch="0" pitchrange="1" basenote="57" pan="0" fxch="0" usemasterpitch="1">
                <instrument name="audiofileprocessor">
                  <audiofileprocessor eframe="1" reversed="0" src="drums/hihat_opened02.ogg" amp="100" looped="0" stutter="0" interp="1" sframe="0" lframe="0"/>
                </instrument>
                <eldata ftype="0" fres="0.5" fwet="0" fcut="14000">
                  <elvol dec="0.5" sustain="0.5" pdel="0" lpdel="0" rel="0.1" lspd="0.1" userwavefile="" hold="0.5" lamt="0" lspd_numerator="4" lspd_syncmode="0" lshp="0" amt="0" x100="0" latt="0" lspd_denominator="4" ctlenvamt="0" att="0"/>
                  <elcut dec="0.5" sustain="0.5" pdel="0" lpdel="0" rel="0.1" lspd="0.1" userwavefile="" hold="0.5" lamt="0" lspd_numerator="4" lspd_syncmode="0" lshp="0" amt="0" x100="0" latt="0" lspd_denominator="4" ctlenvamt="0" att="0"/>
                  <elres dec="0.5" sustain="0.5" pdel="0" lpdel="0" rel="0.1" lspd="0.1" userwavefile="" hold="0.5" lamt="0" lspd_numerator="4" lspd_syncmode="0" lshp="0" amt="0" x100="0" latt="0" lspd_denominator="4" ctlenvamt="0" att="0"/>
                </eldata>
                <chordcreator chord="0" chord-enabled="0" chordrange="1"/>
                <arpeggiator arprange="1" arptime_denominator="4" arpgate="100" arptime_syncmode="0" arp="0" arpmode="0" arpmiss="0" arpdir="0" arptime_numerator="4" arp-enabled="0" arpcycle="0" arpskip="0" arptime="200"/>
                <midiport outputchannel="1" inputcontroller="0" outputcontroller="0" basevelocity="63" fixedinputvelocity="-1" fixedoutputvelocity="-1" outputprogram="1" readable="0" writable="0" fixedoutputnote="-1" inputchannel="0"/>
                <fxchain numofeffects="0" enabled="0"/>
              </instrumenttrack>
              <pattern name="hihat_opened02.ogg" muted="0" type="0" steps="64" pos="0"/>
              <pattern name="hihat_opened02.ogg" muted="0" type="0" steps="64" pos="192"/>
              <pattern name="hihat_opened02.ogg" muted="0" type="0" steps="32" pos="384"/>
              <pattern name="hihat_opened02.ogg" muted="0" type="0" steps="64" pos="576"/>
              <pattern name="hihat_opened02.ogg" muted="0" type="0" steps="16" pos="768"/>
              <pattern name="hihat_opened02.ogg" muted="0" type="0" steps="64" pos="960"/>
              <pattern name="hihat_opened02.ogg" muted="0" type="0" steps="64" pos="1152"/>
              <pattern name="hihat_opened02.ogg" muted="0" type="0" steps="32" pos="1344"/>
              <pattern name="hihat_opened02.ogg" muted="0" type="0" steps="64" pos="1536"/>
              <pattern name="hihat_opened02.ogg" muted="0" type="0" steps="32" pos="1728"/>
              <pattern name="hihat_opened02.ogg" muted="0" type="0" steps="32" pos="1920"/>
              <pattern name="hihat_opened02.ogg" muted="0" type="0" steps="32" pos="2112"/>
              <pattern name="hihat_opened02.ogg" muted="0" type="0" steps="16" pos="2304"/>
              <pattern name="hihat_opened02.ogg" muted="0" type="0" steps="16" pos="2496"/>
              <pattern name="hihat_opened02.ogg" muted="0" type="0" steps="16" pos="2688"/>
              <pattern name="hihat_opened02.ogg" muted="0" type="0" steps="32" pos="2880"/>
              <pattern name="hihat_opened02.ogg" muted="0" type="0" steps="64" pos="3072"/>
              <pattern name="hihat_opened02.ogg" muted="0" type="0" steps="32" pos="3264"/>
              <pattern name="hihat_opened02.ogg" muted="0" type="0" steps="32" pos="3456"/>
              <pattern name="hihat_opened02.ogg" muted="0" type="0" steps="16" pos="3648"/>
              <pattern name="hihat_opened02.ogg" muted="0" type="0" steps="32" pos="3840"/>
              <pattern name="hihat_opened02.ogg" muted="0" type="0" steps="64" pos="4032"/>
              <pattern name="hihat_opened02.ogg" muted="0" type="0" steps="64" pos="4224"/>
              <pattern name="hihat_opened02.ogg" muted="0" type="0" steps="64" pos="4416"/>
              <pattern name="hihat_opened02.ogg" muted="0" type="0" steps="128" pos="4608"/>
              <pattern name="hihat_opened02.ogg" muted="0" type="0" steps="16" pos="4800"/>
              <pattern name="hihat_opened02.ogg" muted="0" type="0" steps="16" pos="4992"/>
            </track>
          </trackcontainer>
        </bbtrack>
        <bbtco name="" muted="0" color="4286611584" len="768" usestyle="1" pos="384"/>
      </track>
      <track name="Clone of intro1" muted="0" type="1" solo="0">
        <bbtrack/>
        <bbtco name="" muted="0" color="4286611584" len="768" usestyle="1" pos="1152"/>
      </track>
      <track name="intro2" muted="0" type="1" solo="0">
        <bbtrack/>
        <bbtco name="" muted="0" color="4286611584" len="1152" usestyle="1" pos="1920"/>
      </track>
      <track name="bootcamp1" muted="0" type="1" solo="0">
        <bbtrack/>
        <bbtco name="" muted="0" color="4286611584" len="1536" usestyle="1" pos="9600"/>
        <bbtco name="" muted="0" color="4286611584" len="1344" usestyle="1" pos="17280"/>
        <bbtco name="" muted="0" color="4286611584" len="1152" usestyle="1" pos="41088"/>
        <bbtco name="" muted="0" color="4286611584" len="1344" usestyle="1" pos="45696"/>
      </track>
      <track name="fill1" muted="0" type="1" solo="0">
        <bbtrack/>
      </track>
      <track name="Clone of bootcamp1" muted="0" type="1" solo="0">
        <bbtrack/>
        <bbtco name="" muted="0" color="4286611584" len="1536" usestyle="1" pos="4992"/>
        <bbtco name="" muted="0" color="4286611584" len="768" usestyle="1" pos="14976"/>
        <bbtco name="" muted="0" color="4286611584" len="1536" usestyle="1" pos="36480"/>
      </track>
      <track name="Clone of Clone of bootcamp1" muted="0" type="1" solo="0">
        <bbtrack/>
        <bbtco name="" muted="0" color="4286611584" len="576" usestyle="1" pos="38784"/>
      </track>
      <track name="kick/mutecrash" muted="0" type="1" solo="0">
        <bbtrack/>
        <bbtco name="" muted="0" color="4286611584" len="384" usestyle="1" pos="12672"/>
      </track>
      <track name="Beat/Bassline 6" muted="0" type="1" solo="0">
        <bbtrack/>
        <bbtco name="" muted="0" color="4286611584" len="768" usestyle="1" pos="6528"/>
        <bbtco name="" muted="0" color="4286611584" len="768" usestyle="1" pos="14208"/>
        <bbtco name="" muted="0" color="4286611584" len="768" usestyle="1" pos="38016"/>
      </track>
      <track name="Clone of Beat/Bassline 6" muted="0" type="1" solo="0">
        <bbtrack/>
        <bbtco name="" muted="0" color="4286611584" len="1152" usestyle="1" pos="8064"/>
        <bbtco name="" muted="0" color="4286611584" len="1152" usestyle="1" pos="15744"/>
        <bbtco name="" muted="0" color="4286611584" len="1344" usestyle="1" pos="20352"/>
        <bbtco name="" muted="0" color="4286611584" len="2496" usestyle="1" pos="31872"/>
        <bbtco name="" muted="0" color="4286611584" len="1152" usestyle="1" pos="44160"/>
      </track>
      <track name="Clone of Clone of Beat/Bassline 6" muted="0" type="1" solo="0">
        <bbtrack/>
        <bbtco name="" muted="0" color="4286611584" len="384" usestyle="1" pos="9216"/>
        <bbtco name="" muted="0" color="4286611584" len="384" usestyle="1" pos="16896"/>
        <bbtco name="" muted="0" color="4286611584" len="384" usestyle="1" pos="40704"/>
        <bbtco name="" muted="0" color="4286611584" len="384" usestyle="1" pos="45312"/>
      </track>
      <track name="Automation track" muted="0" type="5" solo="0">
        <automationtrack/>
      </track>
      <track name="Beat/Bassline 11" muted="0" type="1" solo="0">
        <bbtrack/>
        <bbtco name="" muted="0" color="4286611584" len="576" usestyle="1" pos="4224"/>
        <bbtco name="" muted="0" color="4286611584" len="1536" usestyle="1" pos="11136"/>
        <bbtco name="" muted="0" color="4286611584" len="576" usestyle="1" pos="7296"/>
        <bbtco name="" muted="0" color="4286611584" len="1344" usestyle="1" pos="18816"/>
        <bbtco name="" muted="0" color="4286611584" len="768" usestyle="1" pos="35712"/>
        <bbtco name="" muted="0" color="4286611584" len="1152" usestyle="1" pos="39552"/>
        <bbtco name="" muted="0" color="4286611584" len="1536" usestyle="1" pos="47232"/>
      </track>
      <track name="Beat/Bassline 18" muted="0" type="1" solo="0">
        <bbtrack/>
        <bbtco name="" muted="0" color="4286611584" len="192" usestyle="1" pos="20160"/>
      </track>
      <track name="Beat/Bassline 12" muted="0" type="1" solo="0">
        <bbtrack/>
        <bbtco name="" muted="0" color="4286611584" len="192" usestyle="1" pos="4800"/>
        <bbtco name="" muted="0" color="4286611584" len="192" usestyle="1" pos="21696"/>
      </track>
      <track name="Beat/Bassline 19" muted="0" type="1" solo="0">
        <bbtrack/>
        <bbtco name="" muted="0" color="4286611584" len="192" usestyle="1" pos="18624"/>
      </track>
      <track name="rgt pitch" muted="0" type="5" solo="0" height="32">
        <automationtrack/>
        <automationpattern name="AM pitchshifter>>>Pitch shift" mute="0" prog="2" tens="1" len="384" pos="13440">
          <time value="1.09031" pos="0"/>
          <time value="2.28938" pos="96"/>
          <time value="1.21734" pos="192"/>
          <time value="2.76844" pos="384"/>
          <object id="7309738"/>
        </automationpattern>
        <automationpattern name="AM pitchshifter>>>Pitch shift" mute="0" prog="0" tens="1" len="192" pos="11904">
          <time value="2.32734" pos="0"/>
          <object id="7309738"/>
        </automationpattern>
        <automationpattern name="AM pitchshifter>>>Pitch shift" mute="0" prog="0" tens="1" len="192" pos="13824">
          <time value="2.32734" pos="0"/>
          <object id="7309738"/>
        </automationpattern>
        <automationpattern name="AM pitchshifter>>>Pitch shift" mute="0" prog="0" tens="1" len="192" pos="0">
          <time value="2.32734" pos="0"/>
          <object id="7309738"/>
        </automationpattern>
      </track>
      <track name="lgt pitch" muted="0" type="5" solo="0">
        <automationtrack/>
        <automationpattern name="Tempo" mute="0" prog="0" tens="1" len="192" pos="0">
          <time value="201" pos="0"/>
          <object id="2356958"/>
        </automationpattern>
        <automationpattern name="AM pitchshifter>>>Pitch shift" mute="0" prog="0" tens="1" len="192" pos="31680">
          <time value="2.32441" pos="0"/>
          <object id="485849"/>
        </automationpattern>
        <automationpattern name="AM pitchshifter>>>Pitch shift" mute="0" prog="2" tens="1" len="384" pos="31872">
          <time value="1.34484" pos="0"/>
          <time value="2.74078" pos="24"/>
          <time value="1.31766" pos="240"/>
          <time value="0.25" pos="384"/>
          <object id="485849"/>
        </automationpattern>
        <automationpattern name="AM pitchshifter>>>Pitch shift" mute="0" prog="0" tens="1" len="192" pos="32256">
          <time value="2.32441" pos="0"/>
          <object id="485849"/>
        </automationpattern>
      </track>
      <track name="lgt pitch on/off" muted="0" type="5" solo="0">
        <automationtrack/>
        <automationpattern name="AM pitchshifter>Effect enabled" mute="0" prog="0" tens="1" len="192" pos="31680">
          <time value="1" pos="0"/>
          <object id="2786011"/>
        </automationpattern>
        <automationpattern name="AM pitchshifter>Effect enabled" mute="0" prog="0" tens="1" len="192" pos="32256">
          <time value="0" pos="0"/>
          <object id="2786011"/>
        </automationpattern>
        <automationpattern name="AM pitchshifter>Effect enabled" mute="0" prog="0" tens="1" len="192" pos="0">
          <time value="0" pos="0"/>
          <object id="2786011"/>
        </automationpattern>
      </track>
      <track name="rgt pitch" muted="0" type="5" solo="0" height="32">
        <automationtrack/>
        <automationpattern name="AM pitchshifter>>>Pitch shift" mute="0" prog="2" tens="1" len="384" pos="13440">
          <time value="1.09031" pos="0"/>
          <time value="2.28938" pos="96"/>
          <time value="1.21734" pos="192"/>
          <time value="2.76844" pos="384"/>
          <object id="7309738"/>
          <object id="4307265"/>
        </automationpattern>
        <automationpattern name="AM pitchshifter>>>Pitch shift" mute="0" prog="0" tens="1" len="192" pos="13248">
          <time value="2.32734" pos="0"/>
          <object id="7309738"/>
        </automationpattern>
        <automationpattern name="AM pitchshifter>>>Pitch shift" mute="0" prog="0" tens="1" len="192" pos="13824">
          <time value="2.32734" pos="0"/>
          <object id="7309738"/>
        </automationpattern>
        <automationpattern name="AM pitchshifter>>>Pitch shift" mute="0" prog="0" tens="1" len="192" pos="0">
          <time value="2.32734" pos="0"/>
          <object id="7309738"/>
        </automationpattern>
      </track>
      <track name="lgt pitch" muted="0" type="5" solo="0">
        <automationtrack/>
        <automationpattern name="Tempo" mute="0" prog="0" tens="1" len="192" pos="0">
          <time value="201" pos="0"/>
          <object id="2356958"/>
        </automationpattern>
        <automationpattern name="AM pitchshifter>>>Pitch shift" mute="0" prog="0" tens="1" len="192" pos="31680">
          <time value="2.32441" pos="0"/>
          <object id="485849"/>
          <object id="2557451"/>
        </automationpattern>
        <automationpattern name="AM pitchshifter>>>Pitch shift" mute="0" prog="2" tens="1" len="384" pos="31872">
          <time value="1.34484" pos="0"/>
          <time value="2.74078" pos="24"/>
          <time value="1.31766" pos="240"/>
          <time value="0.25" pos="384"/>
          <object id="485849"/>
          <object id="2557451"/>
        </automationpattern>
        <automationpattern name="AM pitchshifter>>>Pitch shift" mute="0" prog="0" tens="1" len="192" pos="32256">
          <time value="2.32441" pos="0"/>
          <object id="485849"/>
          <object id="2557451"/>
        </automationpattern>
      </track>
      <track name="lgt pitch on/off" muted="0" type="5" solo="0">
        <automationtrack/>
        <automationpattern name="AM pitchshifter>Effect enabled" mute="0" prog="0" tens="1" len="192" pos="31872">
          <time value="1" pos="0"/>
          <object id="2786011"/>
          <object id="2274258"/>
        </automationpattern>
        <automationpattern name="AM pitchshifter>Effect enabled" mute="0" prog="0" tens="1" len="192" pos="32256">
          <time value="0" pos="0"/>
          <object id="2786011"/>
          <object id="2274258"/>
        </automationpattern>
        <automationpattern name="AM pitchshifter>Effect enabled" mute="0" prog="0" tens="1" len="192" pos="0">
          <time value="0" pos="0"/>
          <object id="2786011"/>
          <object id="2274258"/>
          <object id="2557451"/>
        </automationpattern>
      </track>
      <track name="Beat/Bassline 24" muted="0" type="1" solo="0">
        <bbtrack/>
        <bbtco name="" muted="0" color="4286611584" len="384" usestyle="1" pos="43776"/>
      </track>
      <track name="Rhythm Guitar" muted="0" type="0" solo="0" height="32">
        <instrumenttrack vol="200" pitch="0" pitchrange="1" basenote="57" pan="0" fxch="11" usemasterpitch="1">
          <instrument name="carlapatchbay">
            <carlapatchbay>
              <CARLA-PROJECT VERSION="2.0">
                <EngineSettings>
                  <ForceStereo>false</ForceStereo>
                  <PreferPluginBridges>false</PreferPluginBridges>
                  <PreferUiBridges>true</PreferUiBridges>
                  <UIsAlwaysOnTop>false</UIsAlwaysOnTop>
                  <MaxParameters>200</MaxParameters>
                  <UIBridgesTimeout>4000</UIBridgesTimeout>
                  <LADSPA_PATH>/home/huggypie/.ladspa:/usr/lib/ladspa:/usr/local/lib/ladspa</LADSPA_PATH>
                  <DSSI_PATH>/home/huggypie/.dssi:/usr/lib/dssi:/usr/local/lib/dssi</DSSI_PATH>
                  <LV2_PATH>/home/huggypie/.lv2:/usr/lib/lv2:/usr/local/lib/lv2</LV2_PATH>
                  <VST2_PATH>/home/huggypie/.vst:/home/huggypie/.wine/drive_c/Program Files (x86)/VstPlugins:/home/huggypie/.wine/drive_c/Program Files/VstPlugins:/home/huggypie/vst:/usr/lib/lxvst:/usr/lib/vst:/usr/local/lib/lxvst:/usr/local/lib/vst/home/huggypie/.lxvst</VST2_PATH>
                  <VST3_PATH>/home/huggypie/.vst3:/home/huggypie/.wine/drive_c/Program Files (x86)/Common Files/VST3:/home/huggypie/.wine/drive_c/Program Files/Common Files/VST3:/usr/lib/vst3:/usr/local/lib/vst3</VST3_PATH>
                  <SF2_PATH>/home/huggypie/.sounds/sf2/home/huggypie/.sounds/sf3:/usr/share/soundfonts:/usr/share/sounds/sf2:/usr/share/sounds/sf3</SF2_PATH>
                  <SFZ_PATH>/home/huggypie/.sounds/sfz:/home/huggypie/samples:/usr/share/sounds/sfz</SFZ_PATH>
                </EngineSettings>
                <!-- sfizz -->
                <Plugin>
                  <Info>
                    <Type>LV2</Type>
                    <Name>sfizz</Name>
                    <URI>http://sfztools.github.io/sfizz</URI>
                  </Info>
                  <Data>
                    <Active>Yes</Active>
                    <ControlChannel>1</ControlChannel>
                    <Options>0x3f0</Options>
                    <Parameter>
                      <Index>0</Index>
                      <Name>Volume</Name>
                      <Symbol>volume</Symbol>
                      <Value>0</Value>
                    </Parameter>
                    <Parameter>
                      <Index>1</Index>
                      <Name>Polyphony</Name>
                      <Symbol>num_voices</Symbol>
                      <Value>64</Value>
                    </Parameter>
                    <Parameter>
                      <Index>2</Index>
                      <Name>Internal oversampling factor</Name>
                      <Symbol>oversampling</Symbol>
                      <Value>1</Value>
                    </Parameter>
                    <Parameter>
                      <Index>3</Index>
                      <Name>Preload size</Name>
                      <Symbol>preload_size</Symbol>
                      <Value>8192</Value>
                    </Parameter>
                    <Parameter>
                      <Index>5</Index>
                      <Name>Scala root key</Name>
                      <Symbol>scala_root_key</Symbol>
                      <Value>60</Value>
                    </Parameter>
                    <Parameter>
                      <Index>6</Index>
                      <Name>Tuning frequency</Name>
                      <Symbol>tuning_frequency</Symbol>
                      <Value>440</Value>
                    </Parameter>
                    <Parameter>
                      <Index>7</Index>
                      <Name>Stretched tuning</Name>
                      <Symbol>stretched_tuning</Symbol>
                      <Value>0</Value>
                    </Parameter>
                    <CustomData>
                      <Type>http://lv2plug.in/ns/ext/atom#Path</Type>
                      <Key>http://sfztools.github.io/sfizz:sfzfile</Key>
                      <Value>../samples/fakeguitar/_fakeguitar1_integrated.sfz</Value>
                    </CustomData>
                    <CustomData>
                      <Type>http://lv2plug.in/ns/ext/atom#Int</Type>
                      <Key>http://sfztools.github.io/sfizz:numvoices</Key>
                      <Value>QAAAAA==</Value>
                    </CustomData>
                    <CustomData>
                      <Type>http://lv2plug.in/ns/ext/atom#Int</Type>
                      <Key>http://sfztools.github.io/sfizz:preload_size</Key>
                      <Value>ACAAAA==</Value>
                    </CustomData>
                    <CustomData>
                      <Type>http://lv2plug.in/ns/ext/atom#Int</Type>
                      <Key>http://sfztools.github.io/sfizz:oversampling</Key>
                      <Value>AQAAAA==</Value>
                    </CustomData>
                    <CustomData>
                      <Type>http://lv2plug.in/ns/ext/atom#Path</Type>
                      <Key>http://sfztools.github.io/sfizz:tuningfile</Key>
                      <Value>../../../usr/lib/lv2/sfizz.lv2//Contents/Resources/DefaultScale.scl</Value>
                    </CustomData>
                  </Data>
                </Plugin>
                <!-- sfizz -->
                <Plugin>
                  <Info>
                    <Type>LV2</Type>
                    <Name>sfizz (2)</Name>
                    <URI>http://sfztools.github.io/sfizz</URI>
                  </Info>
                  <Data>
                    <Active>Yes</Active>
                    <ControlChannel>1</ControlChannel>
                    <Options>0x3f0</Options>
                    <Parameter>
                      <Index>0</Index>
                      <Name>Volume</Name>
                      <Symbol>volume</Symbol>
                      <Value>0</Value>
                    </Parameter>
                    <Parameter>
                      <Index>1</Index>
                      <Name>Polyphony</Name>
                      <Symbol>num_voices</Symbol>
                      <Value>64</Value>
                    </Parameter>
                    <Parameter>
                      <Index>2</Index>
                      <Name>Internal oversampling factor</Name>
                      <Symbol>oversampling</Symbol>
                      <Value>1</Value>
                    </Parameter>
                    <Parameter>
                      <Index>3</Index>
                      <Name>Preload size</Name>
                      <Symbol>preload_size</Symbol>
                      <Value>8192</Value>
                    </Parameter>
                    <Parameter>
                      <Index>5</Index>
                      <Name>Scala root key</Name>
                      <Symbol>scala_root_key</Symbol>
                      <Value>60</Value>
                    </Parameter>
                    <Parameter>
                      <Index>6</Index>
                      <Name>Tuning frequency</Name>
                      <Symbol>tuning_frequency</Symbol>
                      <Value>440</Value>
                    </Parameter>
                    <Parameter>
                      <Index>7</Index>
                      <Name>Stretched tuning</Name>
                      <Symbol>stretched_tuning</Symbol>
                      <Value>0</Value>
                    </Parameter>
                    <CustomData>
                      <Type>http://lv2plug.in/ns/ext/atom#Path</Type>
                      <Key>http://sfztools.github.io/sfizz:sfzfile</Key>
                      <Value>../samples/fakeguitar/_fakeguitar2_integrated.sfz</Value>
                    </CustomData>
                    <CustomData>
                      <Type>http://lv2plug.in/ns/ext/atom#Int</Type>
                      <Key>http://sfztools.github.io/sfizz:numvoices</Key>
                      <Value>QAAAAA==</Value>
                    </CustomData>
                    <CustomData>
                      <Type>http://lv2plug.in/ns/ext/atom#Int</Type>
                      <Key>http://sfztools.github.io/sfizz:preload_size</Key>
                      <Value>ACAAAA==</Value>
                    </CustomData>
                    <CustomData>
                      <Type>http://lv2plug.in/ns/ext/atom#Int</Type>
                      <Key>http://sfztools.github.io/sfizz:oversampling</Key>
                      <Value>AQAAAA==</Value>
                    </CustomData>
                    <CustomData>
                      <Type>http://lv2plug.in/ns/ext/atom#Path</Type>
                      <Key>http://sfztools.github.io/sfizz:tuningfile</Key>
                      <Value>../../../usr/lib/lv2/sfizz.lv2//Contents/Resources/DefaultScale.scl</Value>
                    </CustomData>
                  </Data>
                </Plugin>
                <Patchbay>
                  <Connection>
                    <Source>Midi Input:Capture 1</Source>
                    <Target>sfizz:events-in</Target>
                  </Connection>
                  <Connection>
                    <Source>sfizz:Left Output</Source>
                    <Target>Audio Output:Left</Target>
                  </Connection>
                  <Connection>
                    <Source>sfizz:Right Output</Source>
                    <Target>Audio Output:Left</Target>
                  </Connection>
                  <Connection>
                    <Source>Midi Input:Capture 1</Source>
                    <Target>sfizz (2):events-in</Target>
                  </Connection>
                  <Connection>
                    <Source>sfizz (2):Right Output</Source>
                    <Target>Audio Output:Right</Target>
                  </Connection>
                  <Connection>
                    <Source>sfizz (2):Left Output</Source>
                    <Target>Audio Output:Right</Target>
                  </Connection>
                </Patchbay>
              </CARLA-PROJECT>
            </carlapatchbay>
          </instrument>
          <eldata ftype="0" fres="0.5" fwet="0" fcut="14000">
            <elvol dec="0.5" sustain="0.5" pdel="0" lpdel="0" rel="0.1" lspd="0.1" userwavefile="" hold="0.5" lamt="0" lspd_numerator="4" lspd_syncmode="0" lshp="0" amt="0" x100="0" latt="0" lspd_denominator="4" ctlenvamt="0" att="0"/>
            <elcut dec="0.5" sustain="0.5" pdel="0" lpdel="0" rel="0.1" lspd="0.1" userwavefile="" hold="0.5" lamt="0" lspd_numerator="4" lspd_syncmode="0" lshp="0" amt="0" x100="0" latt="0" lspd_denominator="4" ctlenvamt="0" att="0"/>
            <elres dec="0.5" sustain="0.5" pdel="0" lpdel="0" rel="0.1" lspd="0.1" userwavefile="" hold="0.5" lamt="0" lspd_numerator="4" lspd_syncmode="0" lshp="0" amt="0" x100="0" latt="0" lspd_denominator="4" ctlenvamt="0" att="0"/>
          </eldata>
          <chordcreator chord="0" chord-enabled="0" chordrange="1"/>
          <arpeggiator arprange="1" arptime_denominator="4" arpgate="100" arptime_syncmode="0" arp="0" arpmode="0" arpmiss="0" arpdir="0" arptime_numerator="4" arp-enabled="0" arpcycle="0" arpskip="0" arptime="200"/>
          <midiport outputchannel="1" inputcontroller="0" outputcontroller="0" basevelocity="127" fixedinputvelocity="-1" fixedoutputvelocity="-1" outputprogram="1" readable="0" writable="0" fixedoutputnote="-1" inputchannel="0"/>
          <fxchain numofeffects="0" enabled="1"/>
        </instrumenttrack>
        <pattern name="Rhythm Guitar" muted="0" type="1" steps="16" pos="384">
          <note key="44" vol="191" pan="0" len="384" pos="0"/>
          <note key="37" vol="191" pan="0" len="384" pos="0"/>
          <note key="0" vol="191" pan="0" len="48" pos="0"/>
          <note key="51" vol="193" pan="0" len="384" pos="384"/>
          <note key="44" vol="193" pan="0" len="384" pos="384"/>
          <note key="46" vol="193" pan="0" len="384" pos="768"/>
          <note key="39" vol="193" pan="0" len="384" pos="768"/>
          <note key="45" vol="193" pan="0" len="336" pos="1152"/>
          <note key="38" vol="193" pan="0" len="336" pos="1152"/>
          <note key="1" vol="193" pan="0" len="12" pos="1476"/>
          <note key="38" vol="193" pan="0" len="12" pos="1488"/>
          <note key="38" vol="193" pan="0" len="12" pos="1500"/>
          <note key="38" vol="193" pan="0" len="12" pos="1512"/>
          <note key="38" vol="193" pan="0" len="12" pos="1524"/>
        </pattern>
        <pattern name="Rhythm Guitar" muted="0" type="1" steps="16" pos="1920">
          <note key="44" vol="78" pan="0" len="36" pos="0"/>
          <note key="37" vol="78" pan="0" len="36" pos="0"/>
          <note key="1" vol="78" pan="0" len="24" pos="0"/>
          <note key="44" vol="78" pan="0" len="36" pos="72"/>
          <note key="37" vol="78" pan="0" len="36" pos="72"/>
          <note key="44" vol="78" pan="0" len="36" pos="144"/>
          <note key="37" vol="78" pan="0" len="36" pos="144"/>
          <note key="44" vol="78" pan="0" len="36" pos="216"/>
          <note key="37" vol="78" pan="0" len="36" pos="216"/>
          <note key="44" vol="78" pan="0" len="24" pos="288"/>
          <note key="37" vol="78" pan="0" len="24" pos="288"/>
          <note key="0" vol="78" pan="0" len="24" pos="300"/>
          <note key="44" vol="78" pan="0" len="48" pos="312"/>
          <note key="37" vol="78" pan="0" len="48" pos="312"/>
          <note key="1" vol="78" pan="0" len="24" pos="336"/>
          <note key="44" vol="78" pan="0" len="24" pos="360"/>
          <note key="37" vol="78" pan="0" len="24" pos="360"/>
          <note key="51" vol="78" pan="0" len="36" pos="384"/>
          <note key="44" vol="78" pan="0" len="36" pos="384"/>
          <note key="51" vol="78" pan="0" len="36" pos="456"/>
          <note key="44" vol="78" pan="0" len="36" pos="456"/>
          <note key="51" vol="78" pan="0" len="36" pos="528"/>
          <note key="44" vol="78" pan="0" len="36" pos="528"/>
          <note key="51" vol="78" pan="0" len="36" pos="600"/>
          <note key="44" vol="78" pan="0" len="36" pos="600"/>
          <note key="51" vol="78" pan="0" len="24" pos="672"/>
          <note key="44" vol="78" pan="0" len="24" pos="672"/>
          <note key="0" vol="78" pan="0" len="24" pos="684"/>
          <note key="51" vol="78" pan="0" len="48" pos="696"/>
          <note key="44" vol="78" pan="0" len="48" pos="696"/>
          <note key="1" vol="78" pan="0" len="24" pos="720"/>
          <note key="51" vol="78" pan="0" len="24" pos="744"/>
          <note key="44" vol="78" pan="0" len="24" pos="744"/>
          <note key="46" vol="78" pan="0" len="36" pos="768"/>
          <note key="39" vol="78" pan="0" len="36" pos="768"/>
          <note key="46" vol="78" pan="0" len="36" pos="840"/>
          <note key="39" vol="78" pan="0" len="36" pos="840"/>
          <note key="46" vol="78" pan="0" len="36" pos="912"/>
          <note key="39" vol="78" pan="0" len="36" pos="912"/>
          <note key="46" vol="78" pan="0" len="36" pos="984"/>
          <note key="39" vol="78" pan="0" len="36" pos="984"/>
          <note key="46" vol="78" pan="0" len="24" pos="1056"/>
          <note key="39" vol="78" pan="0" len="24" pos="1056"/>
          <note key="0" vol="78" pan="0" len="24" pos="1068"/>
          <note key="46" vol="78" pan="0" len="48" pos="1080"/>
          <note key="39" vol="78" pan="0" len="48" pos="1080"/>
          <note key="1" vol="78" pan="0" len="24" pos="1116"/>
          <note key="46" vol="78" pan="0" len="24" pos="1128"/>
          <note key="39" vol="78" pan="0" len="24" pos="1128"/>
          <note key="0" vol="78" pan="0" len="12" pos="1140"/>
          <note key="45" vol="78" pan="0" len="24" pos="1152"/>
          <note key="38" vol="78" pan="0" len="24" pos="1152"/>
          <note key="0" vol="78" pan="0" len="12" pos="1164"/>
          <note key="38" vol="78" pan="0" len="12" pos="1176"/>
          <note key="38" vol="78" pan="0" len="12" pos="1188"/>
          <note key="38" vol="78" pan="0" len="12" pos="1200"/>
          <note key="38" vol="78" pan="0" len="12" pos="1212"/>
          <note key="45" vol="78" pan="0" len="24" pos="1224"/>
          <note key="38" vol="78" pan="0" len="24" pos="1224"/>
          <note key="0" vol="78" pan="0" len="12" pos="1224"/>
          <note key="1" vol="78" pan="0" len="12" pos="1236"/>
          <note key="38" vol="78" pan="0" len="12" pos="1248"/>
          <note key="38" vol="78" pan="0" len="12" pos="1260"/>
          <note key="38" vol="78" pan="0" len="12" pos="1272"/>
          <note key="38" vol="78" pan="0" len="12" pos="1284"/>
          <note key="45" vol="78" pan="0" len="24" pos="1296"/>
          <note key="38" vol="78" pan="0" len="24" pos="1296"/>
          <note key="0" vol="78" pan="0" len="12" pos="1296"/>
          <note key="1" vol="78" pan="0" len="12" pos="1308"/>
          <note key="38" vol="78" pan="0" len="12" pos="1320"/>
          <note key="38" vol="78" pan="0" len="12" pos="1332"/>
          <note key="45" vol="78" pan="0" len="192" pos="1344"/>
          <note key="38" vol="78" pan="0" len="192" pos="1344"/>
          <note key="0" vol="78" pan="0" len="12" pos="1344"/>
        </pattern>
        <pattern name="Rhythm Guitar" muted="0" type="1" steps="16" pos="3456">
          <note key="44" vol="197" pan="0" len="192" pos="0"/>
          <note key="37" vol="197" pan="0" len="192" pos="0"/>
          <note key="0" vol="78" pan="0" len="48" pos="0"/>
          <note key="51" vol="197" pan="0" len="192" pos="192"/>
          <note key="44" vol="197" pan="0" len="192" pos="192"/>
          <note key="52" vol="197" pan="0" len="192" pos="384"/>
          <note key="45" vol="197" pan="0" len="192" pos="384"/>
          <note key="54" vol="197" pan="0" len="192" pos="576"/>
          <note key="47" vol="197" pan="0" len="192" pos="576"/>
          <note key="1" vol="197" pan="0" len="12" pos="756"/>
          <note key="42" vol="197" pan="0" len="12" pos="768"/>
          <note key="42" vol="197" pan="0" len="12" pos="780"/>
          <note key="42" vol="197" pan="0" len="12" pos="792"/>
          <note key="42" vol="197" pan="0" len="12" pos="804"/>
          <note key="42" vol="197" pan="0" len="12" pos="816"/>
          <note key="42" vol="197" pan="0" len="12" pos="828"/>
          <note key="42" vol="197" pan="0" len="12" pos="840"/>
          <note key="42" vol="197" pan="0" len="12" pos="852"/>
          <note key="42" vol="197" pan="0" len="12" pos="864"/>
          <note key="42" vol="197" pan="0" len="12" pos="876"/>
          <note key="42" vol="197" pan="0" len="12" pos="888"/>
          <note key="42" vol="197" pan="0" len="12" pos="900"/>
          <note key="42" vol="197" pan="0" len="12" pos="912"/>
          <note key="42" vol="197" pan="0" len="12" pos="924"/>
          <note key="42" vol="197" pan="0" len="12" pos="936"/>
          <note key="42" vol="197" pan="0" len="12" pos="948"/>
          <note key="44" vol="197" pan="0" len="12" pos="960"/>
          <note key="44" vol="197" pan="0" len="12" pos="972"/>
          <note key="44" vol="197" pan="0" len="12" pos="984"/>
          <note key="44" vol="197" pan="0" len="12" pos="996"/>
          <note key="44" vol="197" pan="0" len="12" pos="1008"/>
          <note key="44" vol="197" pan="0" len="12" pos="1020"/>
          <note key="44" vol="197" pan="0" len="12" pos="1032"/>
          <note key="44" vol="197" pan="0" len="12" pos="1044"/>
          <note key="44" vol="197" pan="0" len="12" pos="1056"/>
          <note key="44" vol="197" pan="0" len="12" pos="1068"/>
          <note key="44" vol="197" pan="0" len="12" pos="1080"/>
          <note key="44" vol="197" pan="0" len="12" pos="1092"/>
          <note key="44" vol="197" pan="0" len="12" pos="1104"/>
          <note key="44" vol="197" pan="0" len="12" pos="1116"/>
          <note key="44" vol="197" pan="0" len="12" pos="1128"/>
          <note key="44" vol="197" pan="0" len="12" pos="1140"/>
          <note key="45" vol="197" pan="0" len="12" pos="1152"/>
          <note key="45" vol="197" pan="0" len="12" pos="1164"/>
          <note key="45" vol="197" pan="0" len="12" pos="1176"/>
          <note key="45" vol="197" pan="0" len="12" pos="1188"/>
          <note key="45" vol="197" pan="0" len="12" pos="1200"/>
          <note key="45" vol="197" pan="0" len="12" pos="1212"/>
          <note key="45" vol="197" pan="0" len="12" pos="1224"/>
          <note key="45" vol="197" pan="0" len="12" pos="1236"/>
          <note key="45" vol="197" pan="0" len="12" pos="1248"/>
          <note key="45" vol="197" pan="0" len="12" pos="1260"/>
          <note key="45" vol="197" pan="0" len="12" pos="1272"/>
          <note key="45" vol="197" pan="0" len="12" pos="1284"/>
          <note key="45" vol="197" pan="0" len="12" pos="1296"/>
          <note key="45" vol="197" pan="0" len="12" pos="1308"/>
          <note key="45" vol="197" pan="0" len="12" pos="1320"/>
          <note key="45" vol="197" pan="0" len="12" pos="1332"/>
          <note key="54" vol="197" pan="0" len="48" pos="1344"/>
          <note key="47" vol="197" pan="0" len="48" pos="1344"/>
          <note key="0" vol="197" pan="0" len="12" pos="1344"/>
          <note key="54" vol="197" pan="0" len="48" pos="1392"/>
          <note key="47" vol="197" pan="0" len="48" pos="1392"/>
          <note key="51" vol="197" pan="0" len="48" pos="1440"/>
          <note key="44" vol="197" pan="0" len="48" pos="1440"/>
          <note key="54" vol="197" pan="0" len="48" pos="1488"/>
          <note key="47" vol="197" pan="0" len="48" pos="1488"/>
        </pattern>
        <pattern name="Rhythm Guitar" muted="0" type="1" steps="16" pos="4992">
          <note key="49" vol="197" pan="0" len="24" pos="0"/>
          <note key="0" vol="197" pan="0" len="12" pos="0"/>
          <note key="47" vol="197" pan="0" len="24" pos="24"/>
          <note key="49" vol="197" pan="0" len="24" pos="48"/>
          <note key="56" vol="197" pan="0" len="24" pos="72"/>
          <note key="1" vol="197" pan="0" len="12" pos="84"/>
          <note key="49" vol="197" pan="0" len="12" pos="96"/>
          <note key="49" vol="197" pan="0" len="12" pos="108"/>
          <note key="49" vol="197" pan="0" len="12" pos="120"/>
          <note key="49" vol="197" pan="0" len="12" pos="132"/>
          <note key="49" vol="197" pan="0" len="12" pos="144"/>
          <note key="49" vol="197" pan="0" len="12" pos="156"/>
          <note key="49" vol="197" pan="0" len="12" pos="168"/>
          <note key="49" vol="197" pan="0" len="12" pos="180"/>
        </pattern>
        <pattern name="Rhythm Guitar" muted="0" type="1" steps="16" pos="5184">
          <note key="42" vol="197" pan="0" len="24" pos="0"/>
          <note key="0" vol="197" pan="0" len="12" pos="0"/>
          <note key="40" vol="197" pan="0" len="24" pos="24"/>
          <note key="42" vol="197" pan="0" len="24" pos="48"/>
          <note key="49" vol="197" pan="0" len="24" pos="72"/>
          <note key="1" vol="197" pan="0" len="12" pos="84"/>
          <note key="42" vol="197" pan="0" len="12" pos="96"/>
          <note key="42" vol="197" pan="0" len="12" pos="108"/>
          <note key="42" vol="197" pan="0" len="12" pos="120"/>
          <note key="42" vol="197" pan="0" len="12" pos="132"/>
          <note key="42" vol="197" pan="0" len="12" pos="144"/>
          <note key="42" vol="197" pan="0" len="12" pos="156"/>
          <note key="42" vol="197" pan="0" len="12" pos="168"/>
          <note key="42" vol="197" pan="0" len="12" pos="180"/>
        </pattern>
        <pattern name="Rhythm Guitar" muted="0" type="1" steps="16" pos="5376">
          <note key="44" vol="78" pan="0" len="24" pos="0"/>
          <note key="1" vol="78" pan="0" len="24" pos="0"/>
          <note key="47" vol="78" pan="0" len="24" pos="24"/>
          <note key="44" vol="78" pan="0" len="24" pos="48"/>
          <note key="0" vol="78" pan="0" len="24" pos="60"/>
          <note key="51" vol="78" pan="0" len="48" pos="72"/>
          <note key="1" vol="78" pan="0" len="24" pos="108"/>
          <note key="44" vol="78" pan="0" len="24" pos="120"/>
          <note key="47" vol="78" pan="0" len="24" pos="144"/>
          <note key="51" vol="78" pan="0" len="24" pos="168"/>
          <note key="45" vol="78" pan="0" len="12" pos="192"/>
          <note key="45" vol="78" pan="0" len="12" pos="204"/>
          <note key="45" vol="78" pan="0" len="12" pos="216"/>
          <note key="45" vol="78" pan="0" len="12" pos="228"/>
          <note key="45" vol="78" pan="0" len="12" pos="240"/>
          <note key="45" vol="78" pan="0" len="12" pos="252"/>
          <note key="49" vol="78" pan="0" len="12" pos="264"/>
          <note key="49" vol="78" pan="0" len="12" pos="276"/>
          <note key="47" vol="78" pan="0" len="12" pos="288"/>
          <note key="47" vol="78" pan="0" len="12" pos="300"/>
          <note key="47" vol="78" pan="0" len="12" pos="312"/>
          <note key="47" vol="78" pan="0" len="12" pos="324"/>
          <note key="51" vol="78" pan="0" len="12" pos="336"/>
          <note key="51" vol="78" pan="0" len="12" pos="348"/>
          <note key="47" vol="78" pan="0" len="12" pos="360"/>
          <note key="47" vol="78" pan="0" len="12" pos="372"/>
        </pattern>
        <pattern name="Rhythm Guitar" muted="0" type="1" steps="16" pos="5760">
          <note key="49" vol="197" pan="0" len="24" pos="0"/>
          <note key="0" vol="197" pan="0" len="12" pos="0"/>
          <note key="47" vol="197" pan="0" len="24" pos="24"/>
          <note key="49" vol="197" pan="0" len="24" pos="48"/>
          <note key="56" vol="197" pan="0" len="24" pos="72"/>
          <note key="1" vol="197" pan="0" len="12" pos="84"/>
          <note key="49" vol="197" pan="0" len="12" pos="96"/>
          <note key="49" vol="197" pan="0" len="12" pos="108"/>
          <note key="49" vol="197" pan="0" len="12" pos="120"/>
          <note key="49" vol="197" pan="0" len="12" pos="132"/>
          <note key="49" vol="197" pan="0" len="12" pos="144"/>
          <note key="49" vol="197" pan="0" len="12" pos="156"/>
          <note key="49" vol="197" pan="0" len="12" pos="168"/>
          <note key="49" vol="197" pan="0" len="12" pos="180"/>
        </pattern>
        <pattern name="Rhythm Guitar" muted="0" type="1" steps="16" pos="5952">
          <note key="42" vol="197" pan="0" len="24" pos="0"/>
          <note key="0" vol="197" pan="0" len="12" pos="0"/>
          <note key="40" vol="197" pan="0" len="24" pos="24"/>
          <note key="42" vol="197" pan="0" len="24" pos="48"/>
          <note key="49" vol="197" pan="0" len="24" pos="72"/>
          <note key="1" vol="197" pan="0" len="12" pos="84"/>
          <note key="42" vol="197" pan="0" len="12" pos="96"/>
          <note key="42" vol="197" pan="0" len="12" pos="108"/>
          <note key="42" vol="197" pan="0" len="12" pos="120"/>
          <note key="42" vol="197" pan="0" len="12" pos="132"/>
          <note key="42" vol="197" pan="0" len="12" pos="144"/>
          <note key="42" vol="197" pan="0" len="12" pos="156"/>
          <note key="42" vol="197" pan="0" len="12" pos="168"/>
          <note key="42" vol="197" pan="0" len="12" pos="180"/>
        </pattern>
        <pattern name="Rhythm Guitar" muted="0" type="1" steps="16" pos="6144">
          <note key="44" vol="78" pan="0" len="24" pos="0"/>
          <note key="1" vol="78" pan="0" len="24" pos="0"/>
          <note key="47" vol="78" pan="0" len="24" pos="24"/>
          <note key="44" vol="78" pan="0" len="24" pos="48"/>
          <note key="0" vol="78" pan="0" len="24" pos="60"/>
          <note key="51" vol="78" pan="0" len="48" pos="72"/>
          <note key="1" vol="78" pan="0" len="24" pos="108"/>
          <note key="44" vol="78" pan="0" len="24" pos="120"/>
          <note key="47" vol="78" pan="0" len="24" pos="144"/>
          <note key="51" vol="78" pan="0" len="24" pos="168"/>
          <note key="45" vol="78" pan="0" len="12" pos="192"/>
          <note key="45" vol="78" pan="0" len="12" pos="204"/>
          <note key="45" vol="78" pan="0" len="12" pos="216"/>
          <note key="45" vol="78" pan="0" len="12" pos="228"/>
          <note key="45" vol="78" pan="0" len="12" pos="240"/>
          <note key="45" vol="78" pan="0" len="12" pos="252"/>
          <note key="49" vol="78" pan="0" len="12" pos="264"/>
          <note key="49" vol="78" pan="0" len="12" pos="276"/>
          <note key="47" vol="78" pan="0" len="12" pos="288"/>
          <note key="47" vol="78" pan="0" len="12" pos="300"/>
          <note key="47" vol="78" pan="0" len="12" pos="312"/>
          <note key="47" vol="78" pan="0" len="12" pos="324"/>
          <note key="51" vol="78" pan="0" len="12" pos="336"/>
          <note key="51" vol="78" pan="0" len="12" pos="348"/>
          <note key="47" vol="78" pan="0" len="12" pos="360"/>
          <note key="47" vol="78" pan="0" len="12" pos="372"/>
        </pattern>
        <pattern name="Rhythm Guitar" muted="0" type="1" steps="16" pos="6528">
          <note key="42" vol="197" pan="0" len="48" pos="0"/>
          <note key="35" vol="197" pan="0" len="48" pos="0"/>
          <note key="0" vol="78" pan="0" len="48" pos="0"/>
          <note key="1" vol="78" pan="0" len="24" pos="36"/>
          <note key="35" vol="197" pan="0" len="12" pos="48"/>
          <note key="35" vol="197" pan="0" len="12" pos="60"/>
          <note key="35" vol="197" pan="0" len="24" pos="72"/>
          <note key="35" vol="197" pan="0" len="12" pos="96"/>
          <note key="35" vol="197" pan="0" len="12" pos="108"/>
          <note key="35" vol="197" pan="0" len="24" pos="120"/>
          <note key="35" vol="197" pan="0" len="12" pos="144"/>
          <note key="35" vol="197" pan="0" len="12" pos="156"/>
          <note key="35" vol="197" pan="0" len="24" pos="168"/>
          <note key="0" vol="78" pan="0" len="48" pos="180"/>
          <note key="42" vol="197" pan="0" len="48" pos="192"/>
          <note key="35" vol="197" pan="0" len="48" pos="192"/>
          <note key="1" vol="78" pan="0" len="48" pos="228"/>
          <note key="35" vol="197" pan="0" len="12" pos="240"/>
          <note key="35" vol="197" pan="0" len="12" pos="252"/>
          <note key="35" vol="197" pan="0" len="24" pos="264"/>
          <note key="35" vol="197" pan="0" len="12" pos="288"/>
          <note key="35" vol="197" pan="0" len="12" pos="300"/>
          <note key="35" vol="197" pan="0" len="24" pos="312"/>
          <note key="35" vol="197" pan="0" len="12" pos="336"/>
          <note key="35" vol="197" pan="0" len="12" pos="348"/>
          <note key="35" vol="197" pan="0" len="24" pos="360"/>
          <note key="0" vol="78" pan="0" len="48" pos="372"/>
          <note key="52" vol="197" pan="0" len="48" pos="384"/>
          <note key="45" vol="197" pan="0" len="48" pos="384"/>
          <note key="1" vol="78" pan="0" len="48" pos="408"/>
          <note key="45" vol="197" pan="0" len="12" pos="432"/>
          <note key="45" vol="197" pan="0" len="12" pos="444"/>
          <note key="45" vol="197" pan="0" len="24" pos="456"/>
          <note key="45" vol="197" pan="0" len="12" pos="480"/>
          <note key="45" vol="197" pan="0" len="12" pos="492"/>
          <note key="45" vol="197" pan="0" len="24" pos="504"/>
          <note key="45" vol="197" pan="0" len="12" pos="528"/>
          <note key="45" vol="197" pan="0" len="12" pos="540"/>
          <note key="45" vol="197" pan="0" len="24" pos="552"/>
          <note key="0" vol="78" pan="0" len="48" pos="564"/>
          <note key="51" vol="197" pan="0" len="48" pos="576"/>
          <note key="44" vol="197" pan="0" len="48" pos="576"/>
          <note key="1" vol="78" pan="0" len="48" pos="612"/>
          <note key="44" vol="197" pan="0" len="12" pos="624"/>
          <note key="44" vol="197" pan="0" len="12" pos="636"/>
          <note key="44" vol="197" pan="0" len="24" pos="648"/>
          <note key="44" vol="197" pan="0" len="12" pos="672"/>
          <note key="44" vol="197" pan="0" len="12" pos="684"/>
          <note key="44" vol="197" pan="0" len="12" pos="696"/>
          <note key="44" vol="197" pan="0" len="12" pos="708"/>
          <note key="44" vol="197" pan="0" len="12" pos="720"/>
          <note key="44" vol="197" pan="0" len="12" pos="732"/>
          <note key="44" vol="197" pan="0" len="24" pos="744"/>
        </pattern>
        <pattern name="Rhythm Guitar" muted="0" type="1" steps="16" pos="7296">
          <note key="42" vol="197" pan="0" len="24" pos="0"/>
          <note key="1" vol="197" pan="0" len="24" pos="0"/>
          <note key="40" vol="197" pan="0" len="24" pos="24"/>
          <note key="42" vol="197" pan="0" len="24" pos="48"/>
          <note key="0" vol="197" pan="0" len="24" pos="60"/>
          <note key="49" vol="197" pan="0" len="24" pos="72"/>
          <note key="1" vol="197" pan="0" len="24" pos="84"/>
          <note key="42" vol="197" pan="0" len="24" pos="96"/>
          <note key="0" vol="197" pan="0" len="24" pos="108"/>
          <note key="52" vol="197" pan="0" len="24" pos="120"/>
          <note key="47" vol="197" pan="0" len="24" pos="144"/>
          <note key="49" vol="197" pan="0" len="24" pos="168"/>
          <note key="42" vol="197" pan="0" len="24" pos="192"/>
          <note key="40" vol="197" pan="0" len="24" pos="216"/>
          <note key="42" vol="197" pan="0" len="24" pos="240"/>
          <note key="49" vol="197" pan="0" len="24" pos="264"/>
          <note key="42" vol="197" pan="0" len="24" pos="288"/>
          <note key="52" vol="197" pan="0" len="24" pos="312"/>
          <note key="54" vol="197" pan="0" len="24" pos="336"/>
          <note key="52" vol="197" pan="0" len="24" pos="360"/>
        </pattern>
        <pattern name="Rhythm Guitar" muted="0" type="1" steps="16" pos="8064">
          <note key="44" vol="195" pan="0" len="48" pos="0"/>
          <note key="37" vol="195" pan="0" len="48" pos="0"/>
          <note key="0" vol="195" pan="0" len="36" pos="0"/>
          <note key="1" vol="195" pan="0" len="36" pos="36"/>
          <note key="37" vol="195" pan="0" len="12" pos="48"/>
          <note key="37" vol="195" pan="0" len="12" pos="60"/>
          <note key="37" vol="195" pan="0" len="12" pos="72"/>
          <note key="37" vol="195" pan="0" len="12" pos="84"/>
          <note key="37" vol="195" pan="0" len="12" pos="96"/>
          <note key="37" vol="195" pan="0" len="12" pos="108"/>
          <note key="37" vol="195" pan="0" len="12" pos="120"/>
          <note key="37" vol="195" pan="0" len="12" pos="132"/>
          <note key="37" vol="195" pan="0" len="12" pos="144"/>
          <note key="37" vol="195" pan="0" len="12" pos="156"/>
          <note key="37" vol="195" pan="0" len="12" pos="168"/>
          <note key="37" vol="195" pan="0" len="12" pos="180"/>
          <note key="0" vol="195" pan="0" len="36" pos="180"/>
          <note key="51" vol="195" pan="0" len="48" pos="192"/>
          <note key="44" vol="195" pan="0" len="48" pos="192"/>
          <note key="1" vol="195" pan="0" len="36" pos="216"/>
          <note key="44" vol="195" pan="0" len="12" pos="240"/>
          <note key="44" vol="195" pan="0" len="12" pos="252"/>
          <note key="44" vol="195" pan="0" len="12" pos="264"/>
          <note key="44" vol="195" pan="0" len="12" pos="276"/>
          <note key="44" vol="195" pan="0" len="12" pos="288"/>
          <note key="44" vol="195" pan="0" len="12" pos="300"/>
          <note key="44" vol="195" pan="0" len="12" pos="312"/>
          <note key="44" vol="195" pan="0" len="12" pos="324"/>
          <note key="44" vol="195" pan="0" len="12" pos="336"/>
          <note key="44" vol="195" pan="0" len="12" pos="348"/>
          <note key="44" vol="195" pan="0" len="12" pos="360"/>
          <note key="44" vol="195" pan="0" len="12" pos="372"/>
          <note key="0" vol="195" pan="0" len="36" pos="372"/>
          <note key="52" vol="195" pan="0" len="48" pos="384"/>
          <note key="45" vol="195" pan="0" len="48" pos="384"/>
          <note key="1" vol="195" pan="0" len="36" pos="408"/>
          <note key="45" vol="195" pan="0" len="12" pos="432"/>
          <note key="45" vol="195" pan="0" len="12" pos="444"/>
          <note key="45" vol="195" pan="0" len="12" pos="456"/>
          <note key="45" vol="195" pan="0" len="12" pos="468"/>
          <note key="45" vol="195" pan="0" len="12" pos="480"/>
          <note key="45" vol="195" pan="0" len="12" pos="492"/>
          <note key="45" vol="195" pan="0" len="12" pos="504"/>
          <note key="45" vol="195" pan="0" len="12" pos="516"/>
          <note key="45" vol="195" pan="0" len="12" pos="528"/>
          <note key="45" vol="195" pan="0" len="12" pos="540"/>
          <note key="45" vol="195" pan="0" len="12" pos="552"/>
          <note key="45" vol="195" pan="0" len="12" pos="564"/>
          <note key="0" vol="195" pan="0" len="36" pos="564"/>
          <note key="54" vol="195" pan="0" len="48" pos="576"/>
          <note key="47" vol="195" pan="0" len="48" pos="576"/>
          <note key="1" vol="195" pan="0" len="36" pos="600"/>
          <note key="47" vol="195" pan="0" len="12" pos="624"/>
          <note key="47" vol="195" pan="0" len="12" pos="636"/>
          <note key="47" vol="195" pan="0" len="12" pos="648"/>
          <note key="47" vol="195" pan="0" len="12" pos="660"/>
          <note key="47" vol="195" pan="0" len="12" pos="672"/>
          <note key="47" vol="195" pan="0" len="12" pos="684"/>
          <note key="47" vol="195" pan="0" len="12" pos="696"/>
          <note key="47" vol="195" pan="0" len="12" pos="708"/>
          <note key="47" vol="195" pan="0" len="12" pos="720"/>
          <note key="47" vol="195" pan="0" len="12" pos="732"/>
          <note key="47" vol="195" pan="0" len="12" pos="744"/>
          <note key="47" vol="195" pan="0" len="12" pos="756"/>
          <note key="49" vol="195" pan="0" len="48" pos="768"/>
          <note key="42" vol="195" pan="0" len="48" pos="768"/>
          <note key="0" vol="195" pan="0" len="36" pos="768"/>
          <note key="1" vol="195" pan="0" len="36" pos="792"/>
          <note key="42" vol="195" pan="0" len="12" pos="816"/>
          <note key="42" vol="195" pan="0" len="12" pos="828"/>
          <note key="42" vol="195" pan="0" len="12" pos="840"/>
          <note key="42" vol="195" pan="0" len="12" pos="852"/>
          <note key="42" vol="195" pan="0" len="12" pos="864"/>
          <note key="42" vol="195" pan="0" len="12" pos="876"/>
          <note key="42" vol="195" pan="0" len="12" pos="888"/>
          <note key="42" vol="195" pan="0" len="12" pos="900"/>
          <note key="42" vol="195" pan="0" len="12" pos="912"/>
          <note key="42" vol="195" pan="0" len="12" pos="924"/>
          <note key="42" vol="195" pan="0" len="12" pos="936"/>
          <note key="42" vol="195" pan="0" len="12" pos="948"/>
          <note key="0" vol="195" pan="0" len="36" pos="948"/>
          <note key="51" vol="195" pan="0" len="48" pos="960"/>
          <note key="44" vol="195" pan="0" len="48" pos="960"/>
          <note key="1" vol="195" pan="0" len="36" pos="984"/>
          <note key="44" vol="195" pan="0" len="12" pos="1008"/>
          <note key="44" vol="195" pan="0" len="12" pos="1020"/>
          <note key="44" vol="195" pan="0" len="12" pos="1032"/>
          <note key="44" vol="195" pan="0" len="12" pos="1044"/>
          <note key="44" vol="195" pan="0" len="12" pos="1056"/>
          <note key="44" vol="195" pan="0" len="12" pos="1068"/>
          <note key="44" vol="195" pan="0" len="12" pos="1080"/>
          <note key="44" vol="195" pan="0" len="12" pos="1092"/>
          <note key="44" vol="195" pan="0" len="12" pos="1104"/>
          <note key="44" vol="195" pan="0" len="12" pos="1116"/>
          <note key="44" vol="195" pan="0" len="12" pos="1128"/>
          <note key="44" vol="195" pan="0" len="12" pos="1140"/>
          <note key="0" vol="195" pan="0" len="36" pos="1140"/>
          <note key="52" vol="195" pan="0" len="48" pos="1152"/>
          <note key="45" vol="195" pan="0" len="48" pos="1152"/>
          <note key="1" vol="195" pan="0" len="36" pos="1176"/>
          <note key="45" vol="195" pan="0" len="12" pos="1200"/>
          <note key="45" vol="195" pan="0" len="12" pos="1212"/>
          <note key="45" vol="195" pan="0" len="12" pos="1224"/>
          <note key="45" vol="195" pan="0" len="12" pos="1236"/>
          <note key="45" vol="195" pan="0" len="12" pos="1248"/>
          <note key="45" vol="195" pan="0" len="12" pos="1260"/>
          <note key="45" vol="195" pan="0" len="12" pos="1272"/>
          <note key="45" vol="195" pan="0" len="12" pos="1284"/>
          <note key="45" vol="195" pan="0" len="12" pos="1296"/>
          <note key="45" vol="195" pan="0" len="12" pos="1308"/>
          <note key="45" vol="195" pan="0" len="12" pos="1320"/>
          <note key="45" vol="195" pan="0" len="12" pos="1332"/>
          <note key="0" vol="195" pan="0" len="36" pos="1332"/>
          <note key="54" vol="195" pan="0" len="48" pos="1344"/>
          <note key="47" vol="195" pan="0" len="48" pos="1344"/>
          <note key="1" vol="195" pan="0" len="36" pos="1368"/>
          <note key="47" vol="195" pan="0" len="12" pos="1392"/>
          <note key="47" vol="195" pan="0" len="12" pos="1404"/>
          <note key="47" vol="195" pan="0" len="12" pos="1416"/>
          <note key="47" vol="195" pan="0" len="12" pos="1428"/>
          <note key="48" vol="195" pan="0" len="12" pos="1440"/>
          <note key="48" vol="195" pan="0" len="12" pos="1452"/>
          <note key="48" vol="195" pan="0" len="12" pos="1464"/>
          <note key="1" vol="195" pan="0" len="36" pos="1464"/>
          <note key="48" vol="195" pan="0" len="12" pos="1476"/>
          <note key="48" vol="195" pan="0" len="12" pos="1488"/>
          <note key="48" vol="195" pan="0" len="12" pos="1500"/>
          <note key="48" vol="195" pan="0" len="12" pos="1512"/>
          <note key="48" vol="195" pan="0" len="12" pos="1524"/>
          <note key="0" vol="195" pan="0" len="36" pos="1524"/>
          <note key="44" vol="195" pan="0" len="48" pos="1536"/>
          <note key="37" vol="195" pan="0" len="48" pos="1536"/>
          <note key="1" vol="195" pan="0" len="36" pos="1560"/>
          <note key="37" vol="195" pan="0" len="12" pos="1584"/>
          <note key="37" vol="195" pan="0" len="12" pos="1596"/>
          <note key="37" vol="195" pan="0" len="12" pos="1608"/>
          <note key="37" vol="195" pan="0" len="12" pos="1620"/>
          <note key="37" vol="195" pan="0" len="12" pos="1632"/>
          <note key="37" vol="195" pan="0" len="12" pos="1644"/>
          <note key="37" vol="195" pan="0" len="12" pos="1656"/>
          <note key="37" vol="195" pan="0" len="12" pos="1668"/>
          <note key="37" vol="195" pan="0" len="12" pos="1680"/>
          <note key="37" vol="195" pan="0" len="12" pos="1692"/>
          <note key="37" vol="195" pan="0" len="12" pos="1704"/>
          <note key="37" vol="195" pan="0" len="12" pos="1716"/>
          <note key="0" vol="195" pan="0" len="36" pos="1716"/>
          <note key="54" vol="195" pan="0" len="48" pos="1728"/>
          <note key="47" vol="195" pan="0" len="48" pos="1728"/>
          <note key="1" vol="195" pan="0" len="36" pos="1752"/>
          <note key="47" vol="195" pan="0" len="12" pos="1776"/>
          <note key="47" vol="195" pan="0" len="12" pos="1788"/>
          <note key="47" vol="195" pan="0" len="12" pos="1800"/>
          <note key="47" vol="195" pan="0" len="12" pos="1812"/>
          <note key="47" vol="195" pan="0" len="12" pos="1824"/>
          <note key="47" vol="195" pan="0" len="12" pos="1836"/>
          <note key="47" vol="195" pan="0" len="12" pos="1848"/>
          <note key="47" vol="195" pan="0" len="12" pos="1860"/>
          <note key="47" vol="195" pan="0" len="12" pos="1872"/>
          <note key="47" vol="195" pan="0" len="12" pos="1884"/>
          <note key="47" vol="195" pan="0" len="12" pos="1896"/>
          <note key="47" vol="195" pan="0" len="12" pos="1908"/>
          <note key="0" vol="195" pan="0" len="36" pos="1908"/>
          <note key="54" vol="195" pan="0" len="48" pos="1920"/>
          <note key="46" vol="195" pan="0" len="48" pos="1920"/>
          <note key="1" vol="195" pan="0" len="36" pos="1944"/>
          <note key="46" vol="195" pan="0" len="12" pos="1968"/>
          <note key="46" vol="195" pan="0" len="12" pos="1980"/>
          <note key="46" vol="195" pan="0" len="12" pos="1992"/>
          <note key="46" vol="195" pan="0" len="12" pos="2004"/>
          <note key="46" vol="195" pan="0" len="12" pos="2016"/>
          <note key="46" vol="195" pan="0" len="12" pos="2028"/>
          <note key="46" vol="195" pan="0" len="12" pos="2040"/>
          <note key="46" vol="195" pan="0" len="12" pos="2052"/>
          <note key="46" vol="195" pan="0" len="12" pos="2064"/>
          <note key="46" vol="195" pan="0" len="12" pos="2076"/>
          <note key="46" vol="195" pan="0" len="12" pos="2088"/>
          <note key="46" vol="195" pan="0" len="12" pos="2100"/>
          <note key="0" vol="195" pan="0" len="36" pos="2100"/>
          <note key="49" vol="195" pan="0" len="48" pos="2112"/>
          <note key="42" vol="195" pan="0" len="48" pos="2112"/>
          <note key="1" vol="195" pan="0" len="36" pos="2136"/>
          <note key="42" vol="195" pan="0" len="12" pos="2160"/>
          <note key="42" vol="195" pan="0" len="12" pos="2172"/>
          <note key="42" vol="195" pan="0" len="12" pos="2184"/>
          <note key="42" vol="195" pan="0" len="12" pos="2196"/>
          <note key="0" vol="195" pan="0" len="36" pos="2196"/>
          <note key="47" vol="195" pan="0" len="48" pos="2208"/>
          <note key="40" vol="195" pan="0" len="48" pos="2208"/>
          <note key="1" vol="195" pan="0" len="36" pos="2232"/>
          <note key="40" vol="195" pan="0" len="12" pos="2256"/>
          <note key="40" vol="195" pan="0" len="12" pos="2268"/>
          <note key="40" vol="195" pan="0" len="12" pos="2280"/>
          <note key="40" vol="195" pan="0" len="12" pos="2292"/>
          <note key="0" vol="195" pan="0" len="36" pos="2292"/>
          <note key="45" vol="195" pan="0" len="48" pos="2304"/>
          <note key="38" vol="195" pan="0" len="48" pos="2304"/>
          <note key="1" vol="195" pan="0" len="36" pos="2328"/>
          <note key="38" vol="195" pan="0" len="12" pos="2352"/>
          <note key="38" vol="195" pan="0" len="12" pos="2364"/>
          <note key="38" vol="195" pan="0" len="12" pos="2376"/>
          <note key="38" vol="195" pan="0" len="12" pos="2388"/>
          <note key="38" vol="195" pan="0" len="12" pos="2400"/>
          <note key="38" vol="195" pan="0" len="12" pos="2412"/>
          <note key="38" vol="195" pan="0" len="12" pos="2424"/>
          <note key="38" vol="195" pan="0" len="12" pos="2436"/>
          <note key="38" vol="195" pan="0" len="12" pos="2448"/>
          <note key="38" vol="195" pan="0" len="12" pos="2460"/>
          <note key="38" vol="195" pan="0" len="12" pos="2472"/>
          <note key="38" vol="195" pan="0" len="12" pos="2484"/>
          <note key="0" vol="195" pan="0" len="36" pos="2484"/>
          <note key="52" vol="195" pan="0" len="48" pos="2496"/>
          <note key="45" vol="195" pan="0" len="48" pos="2496"/>
          <note key="1" vol="195" pan="0" len="36" pos="2520"/>
          <note key="45" vol="195" pan="0" len="12" pos="2544"/>
          <note key="45" vol="195" pan="0" len="12" pos="2556"/>
          <note key="45" vol="195" pan="0" len="12" pos="2568"/>
          <note key="45" vol="195" pan="0" len="12" pos="2580"/>
          <note key="45" vol="195" pan="0" len="12" pos="2592"/>
          <note key="45" vol="195" pan="0" len="12" pos="2604"/>
          <note key="45" vol="195" pan="0" len="12" pos="2616"/>
          <note key="45" vol="195" pan="0" len="12" pos="2628"/>
          <note key="45" vol="195" pan="0" len="12" pos="2640"/>
          <note key="45" vol="195" pan="0" len="12" pos="2652"/>
          <note key="45" vol="195" pan="0" len="12" pos="2664"/>
          <note key="45" vol="195" pan="0" len="12" pos="2676"/>
          <note key="0" vol="195" pan="0" len="36" pos="2676"/>
          <note key="54" vol="195" pan="0" len="48" pos="2688"/>
          <note key="47" vol="195" pan="0" len="48" pos="2688"/>
          <note key="1" vol="195" pan="0" len="36" pos="2712"/>
          <note key="47" vol="195" pan="0" len="12" pos="2736"/>
          <note key="47" vol="195" pan="0" len="12" pos="2748"/>
          <note key="47" vol="195" pan="0" len="12" pos="2760"/>
          <note key="47" vol="195" pan="0" len="12" pos="2772"/>
          <note key="47" vol="195" pan="0" len="12" pos="2784"/>
          <note key="47" vol="195" pan="0" len="12" pos="2796"/>
          <note key="47" vol="195" pan="0" len="12" pos="2808"/>
          <note key="47" vol="195" pan="0" len="12" pos="2820"/>
          <note key="47" vol="195" pan="0" len="12" pos="2832"/>
          <note key="47" vol="195" pan="0" len="12" pos="2844"/>
          <note key="47" vol="195" pan="0" len="12" pos="2856"/>
          <note key="47" vol="195" pan="0" len="12" pos="2868"/>
          <note key="0" vol="195" pan="0" len="36" pos="2868"/>
          <note key="54" vol="195" pan="0" len="96" pos="2880"/>
          <note key="47" vol="195" pan="0" len="96" pos="2880"/>
          <note key="58" vol="195" pan="0" len="96" pos="2976"/>
          <note key="51" vol="195" pan="0" len="96" pos="2976"/>
        </pattern>
        <pattern name="Rhythm Guitar" muted="0" type="1" steps="16" pos="7680">
          <note key="46" vol="78" pan="0" len="24" pos="0"/>
          <note key="39" vol="78" pan="0" len="24" pos="0"/>
          <note key="0" vol="78" pan="0" len="12" pos="0"/>
          <note key="1" vol="78" pan="0" len="12" pos="12"/>
          <note key="39" vol="78" pan="0" len="12" pos="24"/>
          <note key="39" vol="78" pan="0" len="12" pos="36"/>
          <note key="39" vol="78" pan="0" len="12" pos="48"/>
          <note key="39" vol="78" pan="0" len="12" pos="60"/>
          <note key="39" vol="78" pan="0" len="12" pos="72"/>
          <note key="39" vol="78" pan="0" len="12" pos="84"/>
          <note key="39" vol="78" pan="0" len="12" pos="96"/>
          <note key="39" vol="78" pan="0" len="12" pos="108"/>
          <note key="39" vol="78" pan="0" len="12" pos="120"/>
          <note key="39" vol="78" pan="0" len="12" pos="132"/>
          <note key="39" vol="78" pan="0" len="12" pos="144"/>
          <note key="39" vol="78" pan="0" len="12" pos="156"/>
          <note key="39" vol="78" pan="0" len="12" pos="168"/>
          <note key="39" vol="78" pan="0" len="12" pos="180"/>
          <note key="52" vol="78" pan="0" len="96" pos="192"/>
          <note key="45" vol="78" pan="0" len="96" pos="192"/>
          <note key="0" vol="78" pan="0" len="12" pos="192"/>
          <note key="51" vol="78" pan="0" len="96" pos="288"/>
          <note key="44" vol="78" pan="0" len="96" pos="288"/>
        </pattern>
        <pattern name="Rhythm Guitar" muted="0" type="1" steps="16" pos="11136">
          <note key="44" vol="197" pan="0" len="24" pos="0"/>
          <note key="37" vol="197" pan="0" len="24" pos="0"/>
          <note key="0" vol="197" pan="0" len="12" pos="0"/>
          <note key="1" vol="197" pan="0" len="12" pos="12"/>
          <note key="37" vol="197" pan="0" len="12" pos="24"/>
          <note key="37" vol="197" pan="0" len="12" pos="36"/>
          <note key="37" vol="197" pan="0" len="12" pos="48"/>
          <note key="37" vol="197" pan="0" len="12" pos="60"/>
          <note key="44" vol="197" pan="0" len="24" pos="72"/>
          <note key="37" vol="197" pan="0" len="24" pos="72"/>
          <note key="0" vol="197" pan="0" len="12" pos="72"/>
          <note key="1" vol="197" pan="0" len="12" pos="84"/>
          <note key="37" vol="197" pan="0" len="12" pos="96"/>
          <note key="37" vol="197" pan="0" len="12" pos="108"/>
          <note key="37" vol="197" pan="0" len="12" pos="120"/>
          <note key="37" vol="197" pan="0" len="12" pos="132"/>
          <note key="44" vol="197" pan="0" len="24" pos="144"/>
          <note key="37" vol="197" pan="0" len="24" pos="144"/>
          <note key="0" vol="197" pan="0" len="24" pos="144"/>
          <note key="1" vol="197" pan="0" len="24" pos="156"/>
          <note key="37" vol="197" pan="0" len="12" pos="168"/>
          <note key="37" vol="197" pan="0" len="12" pos="180"/>
          <note key="37" vol="197" pan="0" len="12" pos="192"/>
          <note key="37" vol="197" pan="0" len="12" pos="204"/>
          <note key="44" vol="197" pan="0" len="24" pos="216"/>
          <note key="37" vol="197" pan="0" len="24" pos="216"/>
          <note key="0" vol="197" pan="0" len="24" pos="216"/>
          <note key="1" vol="197" pan="0" len="24" pos="228"/>
          <note key="37" vol="197" pan="0" len="12" pos="240"/>
          <note key="37" vol="197" pan="0" len="12" pos="252"/>
          <note key="37" vol="197" pan="0" len="12" pos="264"/>
          <note key="37" vol="197" pan="0" len="12" pos="276"/>
          <note key="44" vol="197" pan="0" len="24" pos="288"/>
          <note key="37" vol="197" pan="0" len="24" pos="288"/>
          <note key="0" vol="197" pan="0" len="24" pos="288"/>
          <note key="1" vol="197" pan="0" len="24" pos="300"/>
          <note key="37" vol="197" pan="0" len="12" pos="312"/>
          <note key="37" vol="197" pan="0" len="12" pos="324"/>
          <note key="44" vol="197" pan="0" len="24" pos="336"/>
          <note key="37" vol="197" pan="0" len="24" pos="336"/>
          <note key="0" vol="197" pan="0" len="24" pos="336"/>
          <note key="1" vol="197" pan="0" len="24" pos="348"/>
          <note key="37" vol="197" pan="0" len="12" pos="360"/>
          <note key="37" vol="197" pan="0" len="12" pos="372"/>
        </pattern>
        <pattern name="Rhythm Guitar" muted="0" type="1" steps="16" pos="11904">
          <note key="44" vol="197" pan="0" len="24" pos="0"/>
          <note key="37" vol="197" pan="0" len="24" pos="0"/>
          <note key="0" vol="197" pan="0" len="12" pos="0"/>
          <note key="1" vol="197" pan="0" len="12" pos="12"/>
          <note key="37" vol="197" pan="0" len="12" pos="24"/>
          <note key="37" vol="197" pan="0" len="12" pos="36"/>
          <note key="37" vol="197" pan="0" len="12" pos="48"/>
          <note key="37" vol="197" pan="0" len="12" pos="60"/>
          <note key="44" vol="197" pan="0" len="24" pos="72"/>
          <note key="37" vol="197" pan="0" len="24" pos="72"/>
          <note key="0" vol="197" pan="0" len="12" pos="72"/>
          <note key="1" vol="197" pan="0" len="12" pos="84"/>
          <note key="37" vol="197" pan="0" len="12" pos="96"/>
          <note key="37" vol="197" pan="0" len="12" pos="108"/>
          <note key="37" vol="197" pan="0" len="12" pos="120"/>
          <note key="37" vol="197" pan="0" len="12" pos="132"/>
          <note key="44" vol="197" pan="0" len="24" pos="144"/>
          <note key="37" vol="197" pan="0" len="24" pos="144"/>
          <note key="0" vol="197" pan="0" len="24" pos="144"/>
          <note key="1" vol="197" pan="0" len="24" pos="156"/>
          <note key="37" vol="197" pan="0" len="12" pos="168"/>
          <note key="37" vol="197" pan="0" len="12" pos="180"/>
          <note key="37" vol="197" pan="0" len="12" pos="192"/>
          <note key="37" vol="197" pan="0" len="12" pos="204"/>
          <note key="44" vol="197" pan="0" len="24" pos="216"/>
          <note key="37" vol="197" pan="0" len="24" pos="216"/>
          <note key="0" vol="197" pan="0" len="24" pos="216"/>
          <note key="1" vol="197" pan="0" len="24" pos="228"/>
          <note key="37" vol="197" pan="0" len="12" pos="240"/>
          <note key="37" vol="197" pan="0" len="12" pos="252"/>
          <note key="37" vol="197" pan="0" len="12" pos="264"/>
          <note key="37" vol="197" pan="0" len="12" pos="276"/>
          <note key="44" vol="197" pan="0" len="24" pos="288"/>
          <note key="37" vol="197" pan="0" len="24" pos="288"/>
          <note key="0" vol="197" pan="0" len="24" pos="288"/>
          <note key="1" vol="197" pan="0" len="24" pos="300"/>
          <note key="37" vol="197" pan="0" len="12" pos="312"/>
          <note key="37" vol="197" pan="0" len="12" pos="324"/>
          <note key="44" vol="197" pan="0" len="24" pos="336"/>
          <note key="37" vol="197" pan="0" len="24" pos="336"/>
          <note key="0" vol="197" pan="0" len="24" pos="336"/>
          <note key="1" vol="197" pan="0" len="24" pos="348"/>
          <note key="37" vol="197" pan="0" len="12" pos="360"/>
          <note key="37" vol="197" pan="0" len="12" pos="372"/>
        </pattern>
        <pattern name="Rhythm Guitar" muted="0" type="1" steps="16" pos="11520">
          <note key="45" vol="197" pan="0" len="24" pos="0"/>
          <note key="38" vol="197" pan="0" len="24" pos="0"/>
          <note key="0" vol="197" pan="0" len="12" pos="0"/>
          <note key="1" vol="197" pan="0" len="12" pos="12"/>
          <note key="38" vol="197" pan="0" len="12" pos="24"/>
          <note key="38" vol="197" pan="0" len="12" pos="36"/>
          <note key="38" vol="197" pan="0" len="12" pos="48"/>
          <note key="38" vol="197" pan="0" len="12" pos="60"/>
          <note key="45" vol="197" pan="0" len="24" pos="72"/>
          <note key="38" vol="197" pan="0" len="24" pos="72"/>
          <note key="0" vol="197" pan="0" len="12" pos="72"/>
          <note key="1" vol="197" pan="0" len="12" pos="84"/>
          <note key="38" vol="197" pan="0" len="12" pos="96"/>
          <note key="38" vol="197" pan="0" len="12" pos="108"/>
          <note key="38" vol="197" pan="0" len="12" pos="120"/>
          <note key="38" vol="197" pan="0" len="12" pos="132"/>
          <note key="45" vol="197" pan="0" len="24" pos="144"/>
          <note key="38" vol="197" pan="0" len="24" pos="144"/>
          <note key="0" vol="197" pan="0" len="24" pos="144"/>
          <note key="1" vol="197" pan="0" len="24" pos="156"/>
          <note key="38" vol="197" pan="0" len="12" pos="168"/>
          <note key="38" vol="197" pan="0" len="12" pos="180"/>
          <note key="38" vol="197" pan="0" len="12" pos="192"/>
          <note key="38" vol="197" pan="0" len="12" pos="204"/>
          <note key="45" vol="197" pan="0" len="24" pos="216"/>
          <note key="38" vol="197" pan="0" len="24" pos="216"/>
          <note key="0" vol="197" pan="0" len="24" pos="216"/>
          <note key="1" vol="197" pan="0" len="24" pos="228"/>
          <note key="38" vol="197" pan="0" len="12" pos="240"/>
          <note key="38" vol="197" pan="0" len="12" pos="252"/>
          <note key="38" vol="197" pan="0" len="12" pos="264"/>
          <note key="38" vol="197" pan="0" len="12" pos="276"/>
          <note key="45" vol="197" pan="0" len="24" pos="288"/>
          <note key="38" vol="197" pan="0" len="24" pos="288"/>
          <note key="0" vol="197" pan="0" len="24" pos="288"/>
          <note key="1" vol="197" pan="0" len="24" pos="300"/>
          <note key="38" vol="197" pan="0" len="12" pos="312"/>
          <note key="38" vol="197" pan="0" len="12" pos="324"/>
          <note key="45" vol="197" pan="0" len="24" pos="336"/>
          <note key="38" vol="197" pan="0" len="24" pos="336"/>
          <note key="0" vol="197" pan="0" len="24" pos="336"/>
          <note key="1" vol="197" pan="0" len="24" pos="348"/>
          <note key="38" vol="197" pan="0" len="12" pos="360"/>
          <note key="38" vol="197" pan="0" len="12" pos="372"/>
        </pattern>
        <pattern name="Rhythm Guitar" muted="0" type="1" steps="16" pos="12288">
          <note key="45" vol="197" pan="0" len="24" pos="0"/>
          <note key="38" vol="197" pan="0" len="24" pos="0"/>
          <note key="0" vol="197" pan="0" len="12" pos="0"/>
          <note key="1" vol="197" pan="0" len="12" pos="12"/>
          <note key="38" vol="197" pan="0" len="12" pos="24"/>
          <note key="38" vol="197" pan="0" len="12" pos="36"/>
          <note key="38" vol="197" pan="0" len="12" pos="48"/>
          <note key="38" vol="197" pan="0" len="12" pos="60"/>
          <note key="45" vol="197" pan="0" len="24" pos="72"/>
          <note key="38" vol="197" pan="0" len="24" pos="72"/>
          <note key="0" vol="197" pan="0" len="12" pos="72"/>
          <note key="1" vol="197" pan="0" len="12" pos="84"/>
          <note key="38" vol="197" pan="0" len="12" pos="96"/>
          <note key="38" vol="197" pan="0" len="12" pos="108"/>
          <note key="38" vol="197" pan="0" len="12" pos="120"/>
          <note key="38" vol="197" pan="0" len="12" pos="132"/>
          <note key="45" vol="197" pan="0" len="24" pos="144"/>
          <note key="38" vol="197" pan="0" len="24" pos="144"/>
          <note key="0" vol="197" pan="0" len="24" pos="144"/>
          <note key="1" vol="197" pan="0" len="24" pos="156"/>
          <note key="38" vol="197" pan="0" len="12" pos="168"/>
          <note key="38" vol="197" pan="0" len="12" pos="180"/>
          <note key="38" vol="197" pan="0" len="12" pos="192"/>
          <note key="38" vol="197" pan="0" len="12" pos="204"/>
          <note key="45" vol="197" pan="0" len="24" pos="216"/>
          <note key="38" vol="197" pan="0" len="24" pos="216"/>
          <note key="0" vol="197" pan="0" len="24" pos="216"/>
          <note key="1" vol="197" pan="0" len="24" pos="228"/>
          <note key="38" vol="197" pan="0" len="12" pos="240"/>
          <note key="38" vol="197" pan="0" len="12" pos="252"/>
          <note key="38" vol="197" pan="0" len="12" pos="264"/>
          <note key="38" vol="197" pan="0" len="12" pos="276"/>
          <note key="45" vol="197" pan="0" len="24" pos="288"/>
          <note key="38" vol="197" pan="0" len="24" pos="288"/>
          <note key="0" vol="197" pan="0" len="24" pos="288"/>
          <note key="1" vol="197" pan="0" len="24" pos="300"/>
          <note key="38" vol="197" pan="0" len="12" pos="312"/>
          <note key="38" vol="197" pan="0" len="12" pos="324"/>
          <note key="45" vol="197" pan="0" len="24" pos="336"/>
          <note key="38" vol="197" pan="0" len="24" pos="336"/>
          <note key="0" vol="197" pan="0" len="24" pos="336"/>
          <note key="1" vol="197" pan="0" len="24" pos="348"/>
          <note key="38" vol="197" pan="0" len="12" pos="360"/>
          <note key="38" vol="197" pan="0" len="12" pos="372"/>
        </pattern>
        <pattern name="Rhythm Guitar" muted="0" type="1" steps="16" pos="13440">
          <note key="37" vol="197" pan="0" len="192" pos="0"/>
          <note key="0" vol="197" pan="0" len="384" pos="0"/>
          <note key="37" vol="197" pan="0" len="192" pos="192"/>
        </pattern>
        <pattern name="Rhythm Guitar" muted="0" type="1" steps="16" pos="15744">
          <note key="44" vol="195" pan="0" len="48" pos="0"/>
          <note key="37" vol="195" pan="0" len="48" pos="0"/>
          <note key="0" vol="195" pan="0" len="36" pos="0"/>
          <note key="1" vol="195" pan="0" len="36" pos="36"/>
          <note key="37" vol="195" pan="0" len="12" pos="48"/>
          <note key="37" vol="195" pan="0" len="12" pos="60"/>
          <note key="37" vol="195" pan="0" len="12" pos="72"/>
          <note key="37" vol="195" pan="0" len="12" pos="84"/>
          <note key="37" vol="195" pan="0" len="12" pos="96"/>
          <note key="37" vol="195" pan="0" len="12" pos="108"/>
          <note key="37" vol="195" pan="0" len="12" pos="120"/>
          <note key="37" vol="195" pan="0" len="12" pos="132"/>
          <note key="37" vol="195" pan="0" len="12" pos="144"/>
          <note key="37" vol="195" pan="0" len="12" pos="156"/>
          <note key="37" vol="195" pan="0" len="12" pos="168"/>
          <note key="37" vol="195" pan="0" len="12" pos="180"/>
          <note key="0" vol="195" pan="0" len="36" pos="180"/>
          <note key="51" vol="195" pan="0" len="48" pos="192"/>
          <note key="44" vol="195" pan="0" len="48" pos="192"/>
          <note key="1" vol="195" pan="0" len="36" pos="216"/>
          <note key="44" vol="195" pan="0" len="12" pos="240"/>
          <note key="44" vol="195" pan="0" len="12" pos="252"/>
          <note key="44" vol="195" pan="0" len="12" pos="264"/>
          <note key="44" vol="195" pan="0" len="12" pos="276"/>
          <note key="44" vol="195" pan="0" len="12" pos="288"/>
          <note key="44" vol="195" pan="0" len="12" pos="300"/>
          <note key="44" vol="195" pan="0" len="12" pos="312"/>
          <note key="44" vol="195" pan="0" len="12" pos="324"/>
          <note key="44" vol="195" pan="0" len="12" pos="336"/>
          <note key="44" vol="195" pan="0" len="12" pos="348"/>
          <note key="44" vol="195" pan="0" len="12" pos="360"/>
          <note key="44" vol="195" pan="0" len="12" pos="372"/>
          <note key="0" vol="195" pan="0" len="36" pos="372"/>
          <note key="52" vol="195" pan="0" len="48" pos="384"/>
          <note key="45" vol="195" pan="0" len="48" pos="384"/>
          <note key="1" vol="195" pan="0" len="36" pos="408"/>
          <note key="45" vol="195" pan="0" len="12" pos="432"/>
          <note key="45" vol="195" pan="0" len="12" pos="444"/>
          <note key="45" vol="195" pan="0" len="12" pos="456"/>
          <note key="45" vol="195" pan="0" len="12" pos="468"/>
          <note key="45" vol="195" pan="0" len="12" pos="480"/>
          <note key="45" vol="195" pan="0" len="12" pos="492"/>
          <note key="45" vol="195" pan="0" len="12" pos="504"/>
          <note key="45" vol="195" pan="0" len="12" pos="516"/>
          <note key="45" vol="195" pan="0" len="12" pos="528"/>
          <note key="45" vol="195" pan="0" len="12" pos="540"/>
          <note key="45" vol="195" pan="0" len="12" pos="552"/>
          <note key="45" vol="195" pan="0" len="12" pos="564"/>
          <note key="0" vol="195" pan="0" len="36" pos="564"/>
          <note key="54" vol="195" pan="0" len="48" pos="576"/>
          <note key="47" vol="195" pan="0" len="48" pos="576"/>
          <note key="1" vol="195" pan="0" len="36" pos="600"/>
          <note key="47" vol="195" pan="0" len="12" pos="624"/>
          <note key="47" vol="195" pan="0" len="12" pos="636"/>
          <note key="47" vol="195" pan="0" len="12" pos="648"/>
          <note key="47" vol="195" pan="0" len="12" pos="660"/>
          <note key="47" vol="195" pan="0" len="12" pos="672"/>
          <note key="47" vol="195" pan="0" len="12" pos="684"/>
          <note key="47" vol="195" pan="0" len="12" pos="696"/>
          <note key="47" vol="195" pan="0" len="12" pos="708"/>
          <note key="47" vol="195" pan="0" len="12" pos="720"/>
          <note key="47" vol="195" pan="0" len="12" pos="732"/>
          <note key="47" vol="195" pan="0" len="12" pos="744"/>
          <note key="47" vol="195" pan="0" len="12" pos="756"/>
          <note key="49" vol="195" pan="0" len="48" pos="768"/>
          <note key="42" vol="195" pan="0" len="48" pos="768"/>
          <note key="0" vol="195" pan="0" len="36" pos="768"/>
          <note key="1" vol="195" pan="0" len="36" pos="792"/>
          <note key="42" vol="195" pan="0" len="12" pos="816"/>
          <note key="42" vol="195" pan="0" len="12" pos="828"/>
          <note key="42" vol="195" pan="0" len="12" pos="840"/>
          <note key="42" vol="195" pan="0" len="12" pos="852"/>
          <note key="42" vol="195" pan="0" len="12" pos="864"/>
          <note key="42" vol="195" pan="0" len="12" pos="876"/>
          <note key="42" vol="195" pan="0" len="12" pos="888"/>
          <note key="42" vol="195" pan="0" len="12" pos="900"/>
          <note key="42" vol="195" pan="0" len="12" pos="912"/>
          <note key="42" vol="195" pan="0" len="12" pos="924"/>
          <note key="42" vol="195" pan="0" len="12" pos="936"/>
          <note key="42" vol="195" pan="0" len="12" pos="948"/>
          <note key="0" vol="195" pan="0" len="36" pos="948"/>
          <note key="51" vol="195" pan="0" len="48" pos="960"/>
          <note key="44" vol="195" pan="0" len="48" pos="960"/>
          <note key="1" vol="195" pan="0" len="36" pos="984"/>
          <note key="44" vol="195" pan="0" len="12" pos="1008"/>
          <note key="44" vol="195" pan="0" len="12" pos="1020"/>
          <note key="44" vol="195" pan="0" len="12" pos="1032"/>
          <note key="44" vol="195" pan="0" len="12" pos="1044"/>
          <note key="44" vol="195" pan="0" len="12" pos="1056"/>
          <note key="44" vol="195" pan="0" len="12" pos="1068"/>
          <note key="44" vol="195" pan="0" len="12" pos="1080"/>
          <note key="44" vol="195" pan="0" len="12" pos="1092"/>
          <note key="44" vol="195" pan="0" len="12" pos="1104"/>
          <note key="44" vol="195" pan="0" len="12" pos="1116"/>
          <note key="44" vol="195" pan="0" len="12" pos="1128"/>
          <note key="44" vol="195" pan="0" len="12" pos="1140"/>
          <note key="0" vol="195" pan="0" len="36" pos="1140"/>
          <note key="52" vol="195" pan="0" len="48" pos="1152"/>
          <note key="45" vol="195" pan="0" len="48" pos="1152"/>
          <note key="1" vol="195" pan="0" len="36" pos="1176"/>
          <note key="45" vol="195" pan="0" len="12" pos="1200"/>
          <note key="45" vol="195" pan="0" len="12" pos="1212"/>
          <note key="45" vol="195" pan="0" len="12" pos="1224"/>
          <note key="45" vol="195" pan="0" len="12" pos="1236"/>
          <note key="45" vol="195" pan="0" len="12" pos="1248"/>
          <note key="45" vol="195" pan="0" len="12" pos="1260"/>
          <note key="45" vol="195" pan="0" len="12" pos="1272"/>
          <note key="45" vol="195" pan="0" len="12" pos="1284"/>
          <note key="45" vol="195" pan="0" len="12" pos="1296"/>
          <note key="45" vol="195" pan="0" len="12" pos="1308"/>
          <note key="45" vol="195" pan="0" len="12" pos="1320"/>
          <note key="45" vol="195" pan="0" len="12" pos="1332"/>
          <note key="0" vol="195" pan="0" len="36" pos="1332"/>
          <note key="54" vol="195" pan="0" len="48" pos="1344"/>
          <note key="47" vol="195" pan="0" len="48" pos="1344"/>
          <note key="1" vol="195" pan="0" len="36" pos="1368"/>
          <note key="47" vol="195" pan="0" len="12" pos="1392"/>
          <note key="47" vol="195" pan="0" len="12" pos="1404"/>
          <note key="47" vol="195" pan="0" len="12" pos="1416"/>
          <note key="47" vol="195" pan="0" len="12" pos="1428"/>
          <note key="48" vol="195" pan="0" len="12" pos="1440"/>
          <note key="48" vol="195" pan="0" len="12" pos="1452"/>
          <note key="48" vol="195" pan="0" len="12" pos="1464"/>
          <note key="1" vol="195" pan="0" len="36" pos="1464"/>
          <note key="48" vol="195" pan="0" len="12" pos="1476"/>
          <note key="48" vol="195" pan="0" len="12" pos="1488"/>
          <note key="48" vol="195" pan="0" len="12" pos="1500"/>
          <note key="48" vol="195" pan="0" len="12" pos="1512"/>
          <note key="48" vol="195" pan="0" len="12" pos="1524"/>
          <note key="0" vol="195" pan="0" len="36" pos="1524"/>
          <note key="44" vol="195" pan="0" len="48" pos="1536"/>
          <note key="37" vol="195" pan="0" len="48" pos="1536"/>
          <note key="1" vol="195" pan="0" len="36" pos="1560"/>
          <note key="37" vol="195" pan="0" len="12" pos="1584"/>
          <note key="37" vol="195" pan="0" len="12" pos="1596"/>
          <note key="37" vol="195" pan="0" len="12" pos="1608"/>
          <note key="37" vol="195" pan="0" len="12" pos="1620"/>
          <note key="37" vol="195" pan="0" len="12" pos="1632"/>
          <note key="37" vol="195" pan="0" len="12" pos="1644"/>
          <note key="37" vol="195" pan="0" len="12" pos="1656"/>
          <note key="37" vol="195" pan="0" len="12" pos="1668"/>
          <note key="37" vol="195" pan="0" len="12" pos="1680"/>
          <note key="37" vol="195" pan="0" len="12" pos="1692"/>
          <note key="37" vol="195" pan="0" len="12" pos="1704"/>
          <note key="37" vol="195" pan="0" len="12" pos="1716"/>
          <note key="0" vol="195" pan="0" len="36" pos="1716"/>
          <note key="54" vol="195" pan="0" len="48" pos="1728"/>
          <note key="47" vol="195" pan="0" len="48" pos="1728"/>
          <note key="1" vol="195" pan="0" len="36" pos="1752"/>
          <note key="47" vol="195" pan="0" len="12" pos="1776"/>
          <note key="47" vol="195" pan="0" len="12" pos="1788"/>
          <note key="47" vol="195" pan="0" len="12" pos="1800"/>
          <note key="47" vol="195" pan="0" len="12" pos="1812"/>
          <note key="47" vol="195" pan="0" len="12" pos="1824"/>
          <note key="47" vol="195" pan="0" len="12" pos="1836"/>
          <note key="47" vol="195" pan="0" len="12" pos="1848"/>
          <note key="47" vol="195" pan="0" len="12" pos="1860"/>
          <note key="47" vol="195" pan="0" len="12" pos="1872"/>
          <note key="47" vol="195" pan="0" len="12" pos="1884"/>
          <note key="47" vol="195" pan="0" len="12" pos="1896"/>
          <note key="47" vol="195" pan="0" len="12" pos="1908"/>
          <note key="0" vol="195" pan="0" len="36" pos="1908"/>
          <note key="54" vol="195" pan="0" len="48" pos="1920"/>
          <note key="46" vol="195" pan="0" len="48" pos="1920"/>
          <note key="1" vol="195" pan="0" len="36" pos="1944"/>
          <note key="46" vol="195" pan="0" len="12" pos="1968"/>
          <note key="46" vol="195" pan="0" len="12" pos="1980"/>
          <note key="46" vol="195" pan="0" len="12" pos="1992"/>
          <note key="46" vol="195" pan="0" len="12" pos="2004"/>
          <note key="46" vol="195" pan="0" len="12" pos="2016"/>
          <note key="46" vol="195" pan="0" len="12" pos="2028"/>
          <note key="46" vol="195" pan="0" len="12" pos="2040"/>
          <note key="46" vol="195" pan="0" len="12" pos="2052"/>
          <note key="46" vol="195" pan="0" len="12" pos="2064"/>
          <note key="46" vol="195" pan="0" len="12" pos="2076"/>
          <note key="46" vol="195" pan="0" len="12" pos="2088"/>
          <note key="46" vol="195" pan="0" len="12" pos="2100"/>
          <note key="0" vol="195" pan="0" len="36" pos="2100"/>
          <note key="49" vol="195" pan="0" len="48" pos="2112"/>
          <note key="42" vol="195" pan="0" len="48" pos="2112"/>
          <note key="1" vol="195" pan="0" len="36" pos="2136"/>
          <note key="42" vol="195" pan="0" len="12" pos="2160"/>
          <note key="42" vol="195" pan="0" len="12" pos="2172"/>
          <note key="42" vol="195" pan="0" len="12" pos="2184"/>
          <note key="42" vol="195" pan="0" len="12" pos="2196"/>
          <note key="0" vol="195" pan="0" len="36" pos="2196"/>
          <note key="47" vol="195" pan="0" len="48" pos="2208"/>
          <note key="40" vol="195" pan="0" len="48" pos="2208"/>
          <note key="1" vol="195" pan="0" len="36" pos="2232"/>
          <note key="40" vol="195" pan="0" len="12" pos="2256"/>
          <note key="40" vol="195" pan="0" len="12" pos="2268"/>
          <note key="40" vol="195" pan="0" len="12" pos="2280"/>
          <note key="40" vol="195" pan="0" len="12" pos="2292"/>
          <note key="0" vol="195" pan="0" len="36" pos="2292"/>
          <note key="45" vol="195" pan="0" len="48" pos="2304"/>
          <note key="38" vol="195" pan="0" len="48" pos="2304"/>
          <note key="1" vol="195" pan="0" len="36" pos="2328"/>
          <note key="38" vol="195" pan="0" len="12" pos="2352"/>
          <note key="38" vol="195" pan="0" len="12" pos="2364"/>
          <note key="38" vol="195" pan="0" len="12" pos="2376"/>
          <note key="38" vol="195" pan="0" len="12" pos="2388"/>
          <note key="38" vol="195" pan="0" len="12" pos="2400"/>
          <note key="38" vol="195" pan="0" len="12" pos="2412"/>
          <note key="38" vol="195" pan="0" len="12" pos="2424"/>
          <note key="38" vol="195" pan="0" len="12" pos="2436"/>
          <note key="38" vol="195" pan="0" len="12" pos="2448"/>
          <note key="38" vol="195" pan="0" len="12" pos="2460"/>
          <note key="38" vol="195" pan="0" len="12" pos="2472"/>
          <note key="38" vol="195" pan="0" len="12" pos="2484"/>
          <note key="0" vol="195" pan="0" len="36" pos="2484"/>
          <note key="52" vol="195" pan="0" len="48" pos="2496"/>
          <note key="45" vol="195" pan="0" len="48" pos="2496"/>
          <note key="1" vol="195" pan="0" len="36" pos="2520"/>
          <note key="45" vol="195" pan="0" len="12" pos="2544"/>
          <note key="45" vol="195" pan="0" len="12" pos="2556"/>
          <note key="45" vol="195" pan="0" len="12" pos="2568"/>
          <note key="45" vol="195" pan="0" len="12" pos="2580"/>
          <note key="45" vol="195" pan="0" len="12" pos="2592"/>
          <note key="45" vol="195" pan="0" len="12" pos="2604"/>
          <note key="45" vol="195" pan="0" len="12" pos="2616"/>
          <note key="45" vol="195" pan="0" len="12" pos="2628"/>
          <note key="45" vol="195" pan="0" len="12" pos="2640"/>
          <note key="45" vol="195" pan="0" len="12" pos="2652"/>
          <note key="45" vol="195" pan="0" len="12" pos="2664"/>
          <note key="45" vol="195" pan="0" len="12" pos="2676"/>
          <note key="0" vol="195" pan="0" len="36" pos="2676"/>
          <note key="54" vol="195" pan="0" len="48" pos="2688"/>
          <note key="47" vol="195" pan="0" len="48" pos="2688"/>
          <note key="1" vol="195" pan="0" len="36" pos="2712"/>
          <note key="47" vol="195" pan="0" len="12" pos="2736"/>
          <note key="47" vol="195" pan="0" len="12" pos="2748"/>
          <note key="47" vol="195" pan="0" len="12" pos="2760"/>
          <note key="47" vol="195" pan="0" len="12" pos="2772"/>
          <note key="47" vol="195" pan="0" len="12" pos="2784"/>
          <note key="47" vol="195" pan="0" len="12" pos="2796"/>
          <note key="47" vol="195" pan="0" len="12" pos="2808"/>
          <note key="47" vol="195" pan="0" len="12" pos="2820"/>
          <note key="47" vol="195" pan="0" len="12" pos="2832"/>
          <note key="47" vol="195" pan="0" len="12" pos="2844"/>
          <note key="47" vol="195" pan="0" len="12" pos="2856"/>
          <note key="47" vol="195" pan="0" len="12" pos="2868"/>
          <note key="0" vol="195" pan="0" len="36" pos="2868"/>
          <note key="42" vol="195" pan="0" len="24" pos="2880"/>
          <note key="35" vol="195" pan="0" len="24" pos="2880"/>
          <note key="42" vol="195" pan="0" len="24" pos="2904"/>
          <note key="35" vol="195" pan="0" len="24" pos="2904"/>
          <note key="42" vol="195" pan="0" len="24" pos="2976"/>
          <note key="35" vol="195" pan="0" len="24" pos="2976"/>
          <note key="42" vol="195" pan="0" len="24" pos="3000"/>
          <note key="35" vol="195" pan="0" len="24" pos="3000"/>
        </pattern>
        <pattern name="Rhythm Guitar" muted="0" type="1" steps="16" pos="13824">
          <note key="47" vol="197" pan="0" len="24" pos="0"/>
          <note key="0" vol="197" pan="0" len="24" pos="0"/>
          <note key="1" vol="197" pan="0" len="24" pos="12"/>
          <note key="44" vol="197" pan="0" len="12" pos="24"/>
          <note key="44" vol="197" pan="0" len="12" pos="36"/>
          <note key="44" vol="197" pan="0" len="12" pos="48"/>
          <note key="44" vol="197" pan="0" len="12" pos="60"/>
          <note key="51" vol="197" pan="0" len="48" pos="72"/>
          <note key="44" vol="197" pan="0" len="48" pos="72"/>
          <note key="0" vol="197" pan="0" len="24" pos="72"/>
          <note key="1" vol="197" pan="0" len="24" pos="108"/>
          <note key="44" vol="197" pan="0" len="24" pos="120"/>
          <note key="44" vol="197" pan="0" len="24" pos="144"/>
          <note key="44" vol="197" pan="0" len="24" pos="168"/>
        </pattern>
        <pattern name="Rhythm Guitar" muted="0" type="1" steps="16" pos="12672">
          <note key="44" vol="172" pan="0" len="36" pos="0"/>
          <note key="37" vol="172" pan="0" len="36" pos="0"/>
          <note key="0" vol="172" pan="0" len="36" pos="0"/>
        </pattern>
        <pattern name="Rhythm Guitar" muted="0" type="1" steps="16" pos="14016">
          <note key="45" vol="172" pan="0" len="12" pos="0"/>
          <note key="1" vol="172" pan="0" len="12" pos="0"/>
          <note key="45" vol="172" pan="0" len="12" pos="12"/>
          <note key="45" vol="172" pan="0" len="12" pos="24"/>
          <note key="45" vol="172" pan="0" len="12" pos="36"/>
          <note key="49" vol="172" pan="0" len="12" pos="48"/>
          <note key="49" vol="172" pan="0" len="12" pos="60"/>
          <note key="45" vol="172" pan="0" len="12" pos="72"/>
          <note key="45" vol="172" pan="0" len="12" pos="84"/>
          <note key="47" vol="172" pan="0" len="12" pos="96"/>
          <note key="47" vol="172" pan="0" len="12" pos="108"/>
          <note key="47" vol="172" pan="0" len="12" pos="120"/>
          <note key="47" vol="172" pan="0" len="12" pos="132"/>
          <note key="52" vol="172" pan="0" len="12" pos="144"/>
          <note key="0" vol="172" pan="0" len="12" pos="144"/>
          <note key="51" vol="172" pan="0" len="12" pos="156"/>
          <note key="2" vol="172" pan="0" len="12" pos="156"/>
          <note key="49" vol="172" pan="0" len="12" pos="168"/>
          <note key="1" vol="172" pan="0" len="12" pos="168"/>
          <note key="47" vol="172" pan="0" len="12" pos="180"/>
        </pattern>
        <pattern name="Rhythm Guitar" muted="0" type="1" steps="16" pos="14208">
          <note key="38" vol="200" pan="0" len="12" pos="0"/>
          <note key="1" vol="200" pan="0" len="24" pos="0"/>
          <note key="38" vol="200" pan="0" len="12" pos="12"/>
          <note key="38" vol="200" pan="0" len="24" pos="24"/>
          <note key="38" vol="200" pan="0" len="12" pos="48"/>
          <note key="38" vol="200" pan="0" len="12" pos="60"/>
          <note key="38" vol="200" pan="0" len="24" pos="72"/>
          <note key="38" vol="200" pan="0" len="12" pos="96"/>
          <note key="38" vol="200" pan="0" len="12" pos="108"/>
          <note key="38" vol="200" pan="0" len="24" pos="120"/>
          <note key="38" vol="200" pan="0" len="12" pos="144"/>
          <note key="38" vol="200" pan="0" len="12" pos="156"/>
          <note key="38" vol="200" pan="0" len="24" pos="168"/>
          <note key="38" vol="200" pan="0" len="12" pos="192"/>
          <note key="38" vol="200" pan="0" len="12" pos="204"/>
          <note key="38" vol="200" pan="0" len="24" pos="216"/>
          <note key="38" vol="200" pan="0" len="12" pos="240"/>
          <note key="38" vol="200" pan="0" len="12" pos="252"/>
          <note key="38" vol="200" pan="0" len="24" pos="264"/>
          <note key="38" vol="200" pan="0" len="12" pos="288"/>
          <note key="38" vol="200" pan="0" len="12" pos="300"/>
          <note key="38" vol="200" pan="0" len="24" pos="312"/>
          <note key="38" vol="200" pan="0" len="12" pos="336"/>
          <note key="38" vol="200" pan="0" len="12" pos="348"/>
          <note key="38" vol="200" pan="0" len="24" pos="360"/>
          <note key="37" vol="200" pan="0" len="12" pos="384"/>
          <note key="37" vol="200" pan="0" len="12" pos="396"/>
          <note key="37" vol="200" pan="0" len="24" pos="408"/>
          <note key="37" vol="200" pan="0" len="12" pos="432"/>
          <note key="37" vol="200" pan="0" len="12" pos="444"/>
          <note key="37" vol="200" pan="0" len="24" pos="456"/>
          <note key="37" vol="200" pan="0" len="12" pos="480"/>
          <note key="37" vol="200" pan="0" len="12" pos="492"/>
          <note key="37" vol="200" pan="0" len="24" pos="504"/>
          <note key="37" vol="200" pan="0" len="12" pos="528"/>
          <note key="37" vol="200" pan="0" len="12" pos="540"/>
          <note key="37" vol="200" pan="0" len="24" pos="552"/>
          <note key="35" vol="200" pan="0" len="12" pos="576"/>
          <note key="35" vol="200" pan="0" len="12" pos="588"/>
          <note key="35" vol="200" pan="0" len="24" pos="600"/>
          <note key="35" vol="200" pan="0" len="12" pos="624"/>
          <note key="35" vol="200" pan="0" len="12" pos="636"/>
          <note key="35" vol="200" pan="0" len="24" pos="648"/>
          <note key="35" vol="200" pan="0" len="12" pos="672"/>
          <note key="35" vol="200" pan="0" len="12" pos="684"/>
          <note key="35" vol="200" pan="0" len="24" pos="696"/>
          <note key="35" vol="200" pan="0" len="12" pos="720"/>
          <note key="35" vol="200" pan="0" len="12" pos="732"/>
          <note key="35" vol="200" pan="0" len="24" pos="744"/>
        </pattern>
        <pattern name="Rhythm Guitar" muted="0" type="1" steps="16" pos="18816">
          <note key="44" vol="197" pan="0" len="24" pos="0"/>
          <note key="37" vol="197" pan="0" len="24" pos="0"/>
          <note key="0" vol="197" pan="0" len="12" pos="0"/>
          <note key="1" vol="197" pan="0" len="12" pos="12"/>
          <note key="37" vol="197" pan="0" len="12" pos="24"/>
          <note key="37" vol="197" pan="0" len="12" pos="36"/>
          <note key="44" vol="197" pan="0" len="24" pos="48"/>
          <note key="37" vol="197" pan="0" len="24" pos="48"/>
          <note key="0" vol="197" pan="0" len="12" pos="48"/>
          <note key="44" vol="197" pan="0" len="24" pos="72"/>
          <note key="37" vol="197" pan="0" len="24" pos="72"/>
          <note key="1" vol="197" pan="0" len="12" pos="84"/>
          <note key="37" vol="197" pan="0" len="12" pos="96"/>
          <note key="37" vol="197" pan="0" len="12" pos="108"/>
          <note key="44" vol="197" pan="0" len="24" pos="120"/>
          <note key="37" vol="197" pan="0" len="24" pos="120"/>
          <note key="0" vol="197" pan="0" len="12" pos="120"/>
          <note key="44" vol="197" pan="0" len="24" pos="144"/>
          <note key="37" vol="197" pan="0" len="24" pos="144"/>
          <note key="1" vol="197" pan="0" len="12" pos="156"/>
          <note key="37" vol="197" pan="0" len="12" pos="168"/>
          <note key="37" vol="197" pan="0" len="12" pos="180"/>
          <note key="44" vol="197" pan="0" len="24" pos="192"/>
          <note key="37" vol="197" pan="0" len="24" pos="192"/>
          <note key="0" vol="197" pan="0" len="12" pos="192"/>
          <note key="44" vol="197" pan="0" len="24" pos="216"/>
          <note key="37" vol="197" pan="0" len="24" pos="216"/>
          <note key="1" vol="197" pan="0" len="12" pos="228"/>
          <note key="37" vol="197" pan="0" len="12" pos="240"/>
          <note key="37" vol="197" pan="0" len="12" pos="252"/>
          <note key="44" vol="197" pan="0" len="24" pos="264"/>
          <note key="37" vol="197" pan="0" len="24" pos="264"/>
          <note key="0" vol="197" pan="0" len="12" pos="264"/>
          <note key="44" vol="197" pan="0" len="24" pos="288"/>
          <note key="37" vol="197" pan="0" len="24" pos="288"/>
          <note key="44" vol="197" pan="0" len="24" pos="312"/>
          <note key="37" vol="197" pan="0" len="24" pos="312"/>
          <note key="1" vol="197" pan="0" len="12" pos="324"/>
          <note key="37" vol="197" pan="0" len="12" pos="336"/>
          <note key="37" vol="197" pan="0" len="12" pos="348"/>
          <note key="44" vol="197" pan="0" len="24" pos="360"/>
          <note key="37" vol="197" pan="0" len="24" pos="360"/>
          <note key="0" vol="197" pan="0" len="12" pos="360"/>
          <note key="51" vol="197" pan="0" len="24" pos="384"/>
          <note key="44" vol="197" pan="0" len="24" pos="384"/>
          <note key="1" vol="197" pan="0" len="12" pos="396"/>
          <note key="44" vol="197" pan="0" len="12" pos="408"/>
          <note key="44" vol="197" pan="0" len="12" pos="420"/>
          <note key="51" vol="197" pan="0" len="24" pos="432"/>
          <note key="44" vol="197" pan="0" len="24" pos="432"/>
          <note key="0" vol="197" pan="0" len="12" pos="432"/>
          <note key="51" vol="197" pan="0" len="24" pos="456"/>
          <note key="44" vol="197" pan="0" len="24" pos="456"/>
          <note key="1" vol="197" pan="0" len="12" pos="468"/>
          <note key="44" vol="197" pan="0" len="12" pos="480"/>
          <note key="44" vol="197" pan="0" len="12" pos="492"/>
          <note key="51" vol="197" pan="0" len="24" pos="504"/>
          <note key="44" vol="197" pan="0" len="24" pos="504"/>
          <note key="0" vol="197" pan="0" len="12" pos="504"/>
          <note key="51" vol="197" pan="0" len="24" pos="528"/>
          <note key="44" vol="197" pan="0" len="24" pos="528"/>
          <note key="1" vol="197" pan="0" len="12" pos="540"/>
          <note key="44" vol="197" pan="0" len="12" pos="552"/>
          <note key="44" vol="197" pan="0" len="12" pos="564"/>
          <note key="51" vol="197" pan="0" len="24" pos="576"/>
          <note key="44" vol="197" pan="0" len="24" pos="576"/>
          <note key="0" vol="197" pan="0" len="12" pos="576"/>
          <note key="51" vol="197" pan="0" len="24" pos="600"/>
          <note key="44" vol="197" pan="0" len="24" pos="600"/>
          <note key="1" vol="197" pan="0" len="12" pos="612"/>
          <note key="44" vol="197" pan="0" len="12" pos="624"/>
          <note key="44" vol="197" pan="0" len="12" pos="636"/>
          <note key="51" vol="197" pan="0" len="24" pos="648"/>
          <note key="44" vol="197" pan="0" len="24" pos="648"/>
          <note key="0" vol="197" pan="0" len="12" pos="648"/>
          <note key="51" vol="197" pan="0" len="24" pos="672"/>
          <note key="44" vol="197" pan="0" len="24" pos="672"/>
          <note key="51" vol="197" pan="0" len="24" pos="696"/>
          <note key="44" vol="197" pan="0" len="24" pos="696"/>
          <note key="1" vol="197" pan="0" len="12" pos="708"/>
          <note key="44" vol="197" pan="0" len="12" pos="720"/>
          <note key="44" vol="197" pan="0" len="12" pos="732"/>
          <note key="51" vol="197" pan="0" len="24" pos="744"/>
          <note key="44" vol="197" pan="0" len="24" pos="744"/>
          <note key="0" vol="197" pan="0" len="12" pos="744"/>
          <note key="46" vol="197" pan="0" len="24" pos="768"/>
          <note key="39" vol="197" pan="0" len="24" pos="768"/>
          <note key="1" vol="197" pan="0" len="12" pos="780"/>
          <note key="39" vol="197" pan="0" len="12" pos="792"/>
          <note key="39" vol="197" pan="0" len="12" pos="804"/>
          <note key="46" vol="197" pan="0" len="24" pos="816"/>
          <note key="39" vol="197" pan="0" len="24" pos="816"/>
          <note key="0" vol="197" pan="0" len="12" pos="816"/>
          <note key="46" vol="197" pan="0" len="24" pos="840"/>
          <note key="39" vol="197" pan="0" len="24" pos="840"/>
          <note key="1" vol="197" pan="0" len="12" pos="852"/>
          <note key="39" vol="197" pan="0" len="12" pos="864"/>
          <note key="39" vol="197" pan="0" len="12" pos="876"/>
          <note key="46" vol="197" pan="0" len="24" pos="888"/>
          <note key="39" vol="197" pan="0" len="24" pos="888"/>
          <note key="0" vol="197" pan="0" len="12" pos="888"/>
          <note key="46" vol="197" pan="0" len="24" pos="912"/>
          <note key="39" vol="197" pan="0" len="24" pos="912"/>
          <note key="1" vol="197" pan="0" len="12" pos="924"/>
          <note key="39" vol="197" pan="0" len="12" pos="936"/>
          <note key="39" vol="197" pan="0" len="12" pos="948"/>
          <note key="46" vol="197" pan="0" len="24" pos="960"/>
          <note key="39" vol="197" pan="0" len="24" pos="960"/>
          <note key="0" vol="197" pan="0" len="12" pos="960"/>
          <note key="46" vol="197" pan="0" len="24" pos="984"/>
          <note key="39" vol="197" pan="0" len="24" pos="984"/>
          <note key="1" vol="197" pan="0" len="12" pos="996"/>
          <note key="39" vol="197" pan="0" len="12" pos="1008"/>
          <note key="39" vol="197" pan="0" len="12" pos="1020"/>
          <note key="46" vol="197" pan="0" len="24" pos="1032"/>
          <note key="39" vol="197" pan="0" len="24" pos="1032"/>
          <note key="0" vol="197" pan="0" len="12" pos="1032"/>
          <note key="46" vol="197" pan="0" len="24" pos="1056"/>
          <note key="39" vol="197" pan="0" len="24" pos="1056"/>
          <note key="46" vol="197" pan="0" len="24" pos="1080"/>
          <note key="39" vol="197" pan="0" len="24" pos="1080"/>
          <note key="1" vol="197" pan="0" len="12" pos="1092"/>
          <note key="39" vol="197" pan="0" len="12" pos="1104"/>
          <note key="39" vol="197" pan="0" len="12" pos="1116"/>
          <note key="46" vol="197" pan="0" len="24" pos="1128"/>
          <note key="39" vol="197" pan="0" len="24" pos="1128"/>
          <note key="0" vol="197" pan="0" len="12" pos="1128"/>
          <note key="45" vol="197" pan="0" len="24" pos="1152"/>
          <note key="38" vol="197" pan="0" len="24" pos="1152"/>
          <note key="1" vol="197" pan="0" len="12" pos="1164"/>
          <note key="38" vol="197" pan="0" len="12" pos="1176"/>
          <note key="38" vol="197" pan="0" len="12" pos="1188"/>
          <note key="45" vol="197" pan="0" len="24" pos="1200"/>
          <note key="38" vol="197" pan="0" len="24" pos="1200"/>
          <note key="0" vol="197" pan="0" len="12" pos="1200"/>
          <note key="45" vol="197" pan="0" len="24" pos="1224"/>
          <note key="38" vol="197" pan="0" len="24" pos="1224"/>
          <note key="1" vol="197" pan="0" len="12" pos="1236"/>
          <note key="38" vol="197" pan="0" len="12" pos="1248"/>
          <note key="38" vol="197" pan="0" len="12" pos="1260"/>
          <note key="45" vol="197" pan="0" len="24" pos="1272"/>
          <note key="38" vol="197" pan="0" len="24" pos="1272"/>
          <note key="0" vol="197" pan="0" len="12" pos="1272"/>
          <note key="45" vol="197" pan="0" len="24" pos="1296"/>
          <note key="38" vol="197" pan="0" len="24" pos="1296"/>
          <note key="1" vol="197" pan="0" len="12" pos="1308"/>
          <note key="38" vol="197" pan="0" len="12" pos="1320"/>
          <note key="38" vol="197" pan="0" len="12" pos="1332"/>
          <note key="51" vol="197" pan="0" len="48" pos="1344"/>
          <note key="44" vol="197" pan="0" len="48" pos="1344"/>
          <note key="0" vol="197" pan="0" len="12" pos="1344"/>
          <note key="46" vol="197" pan="0" len="48" pos="1392"/>
          <note key="39" vol="197" pan="0" len="48" pos="1392"/>
          <note key="35" vol="197" pan="0" len="48" pos="1440"/>
          <note key="32" vol="197" pan="0" len="48" pos="1488"/>
          <note key="44" vol="197" pan="0" len="24" pos="1536"/>
          <note key="37" vol="197" pan="0" len="24" pos="1536"/>
          <note key="1" vol="197" pan="0" len="12" pos="1548"/>
          <note key="37" vol="197" pan="0" len="12" pos="1560"/>
          <note key="37" vol="197" pan="0" len="12" pos="1572"/>
          <note key="44" vol="197" pan="0" len="24" pos="1584"/>
          <note key="37" vol="197" pan="0" len="24" pos="1584"/>
          <note key="0" vol="197" pan="0" len="12" pos="1584"/>
          <note key="44" vol="197" pan="0" len="24" pos="1608"/>
          <note key="37" vol="197" pan="0" len="24" pos="1608"/>
          <note key="1" vol="197" pan="0" len="12" pos="1620"/>
          <note key="37" vol="197" pan="0" len="12" pos="1632"/>
          <note key="37" vol="197" pan="0" len="12" pos="1644"/>
          <note key="44" vol="197" pan="0" len="24" pos="1656"/>
          <note key="37" vol="197" pan="0" len="24" pos="1656"/>
          <note key="0" vol="197" pan="0" len="12" pos="1656"/>
          <note key="44" vol="197" pan="0" len="24" pos="1680"/>
          <note key="37" vol="197" pan="0" len="24" pos="1680"/>
          <note key="1" vol="197" pan="0" len="12" pos="1692"/>
          <note key="37" vol="197" pan="0" len="12" pos="1704"/>
          <note key="37" vol="197" pan="0" len="12" pos="1716"/>
          <note key="44" vol="197" pan="0" len="24" pos="1728"/>
          <note key="37" vol="197" pan="0" len="24" pos="1728"/>
          <note key="0" vol="197" pan="0" len="12" pos="1728"/>
          <note key="44" vol="197" pan="0" len="24" pos="1752"/>
          <note key="37" vol="197" pan="0" len="24" pos="1752"/>
          <note key="1" vol="197" pan="0" len="12" pos="1764"/>
          <note key="37" vol="197" pan="0" len="12" pos="1776"/>
          <note key="37" vol="197" pan="0" len="12" pos="1788"/>
          <note key="44" vol="197" pan="0" len="24" pos="1800"/>
          <note key="37" vol="197" pan="0" len="24" pos="1800"/>
          <note key="0" vol="197" pan="0" len="12" pos="1800"/>
          <note key="44" vol="197" pan="0" len="24" pos="1824"/>
          <note key="37" vol="197" pan="0" len="24" pos="1824"/>
          <note key="44" vol="197" pan="0" len="24" pos="1848"/>
          <note key="37" vol="197" pan="0" len="24" pos="1848"/>
          <note key="1" vol="197" pan="0" len="12" pos="1860"/>
          <note key="37" vol="197" pan="0" len="12" pos="1872"/>
          <note key="37" vol="197" pan="0" len="12" pos="1884"/>
          <note key="44" vol="197" pan="0" len="24" pos="1896"/>
          <note key="37" vol="197" pan="0" len="24" pos="1896"/>
          <note key="0" vol="197" pan="0" len="12" pos="1896"/>
          <note key="45" vol="197" pan="0" len="24" pos="1920"/>
          <note key="38" vol="197" pan="0" len="24" pos="1920"/>
          <note key="1" vol="197" pan="0" len="12" pos="1932"/>
          <note key="38" vol="197" pan="0" len="12" pos="1944"/>
          <note key="38" vol="197" pan="0" len="12" pos="1956"/>
          <note key="45" vol="197" pan="0" len="24" pos="1968"/>
          <note key="38" vol="197" pan="0" len="24" pos="1968"/>
          <note key="0" vol="197" pan="0" len="12" pos="1968"/>
          <note key="45" vol="197" pan="0" len="24" pos="1992"/>
          <note key="38" vol="197" pan="0" len="24" pos="1992"/>
          <note key="1" vol="197" pan="0" len="12" pos="2004"/>
          <note key="38" vol="197" pan="0" len="12" pos="2016"/>
          <note key="38" vol="197" pan="0" len="12" pos="2028"/>
          <note key="45" vol="197" pan="0" len="24" pos="2040"/>
          <note key="38" vol="197" pan="0" len="24" pos="2040"/>
          <note key="0" vol="197" pan="0" len="12" pos="2040"/>
          <note key="45" vol="197" pan="0" len="24" pos="2064"/>
          <note key="38" vol="197" pan="0" len="24" pos="2064"/>
          <note key="1" vol="197" pan="0" len="12" pos="2076"/>
          <note key="38" vol="197" pan="0" len="12" pos="2088"/>
          <note key="38" vol="197" pan="0" len="12" pos="2100"/>
          <note key="45" vol="197" pan="0" len="24" pos="2112"/>
          <note key="38" vol="197" pan="0" len="24" pos="2112"/>
          <note key="0" vol="197" pan="0" len="12" pos="2112"/>
          <note key="45" vol="197" pan="0" len="24" pos="2136"/>
          <note key="38" vol="197" pan="0" len="24" pos="2136"/>
          <note key="1" vol="197" pan="0" len="12" pos="2148"/>
          <note key="38" vol="197" pan="0" len="12" pos="2160"/>
          <note key="38" vol="197" pan="0" len="12" pos="2172"/>
          <note key="45" vol="197" pan="0" len="24" pos="2184"/>
          <note key="38" vol="197" pan="0" len="24" pos="2184"/>
          <note key="0" vol="197" pan="0" len="12" pos="2184"/>
          <note key="45" vol="197" pan="0" len="24" pos="2208"/>
          <note key="38" vol="197" pan="0" len="24" pos="2208"/>
          <note key="45" vol="197" pan="0" len="24" pos="2232"/>
          <note key="38" vol="197" pan="0" len="24" pos="2232"/>
          <note key="1" vol="197" pan="0" len="12" pos="2244"/>
          <note key="38" vol="197" pan="0" len="12" pos="2256"/>
          <note key="38" vol="197" pan="0" len="12" pos="2268"/>
          <note key="45" vol="197" pan="0" len="24" pos="2280"/>
          <note key="38" vol="197" pan="0" len="24" pos="2280"/>
          <note key="0" vol="197" pan="0" len="12" pos="2280"/>
          <note key="46" vol="197" pan="0" len="24" pos="2304"/>
          <note key="39" vol="197" pan="0" len="24" pos="2304"/>
          <note key="1" vol="197" pan="0" len="12" pos="2316"/>
          <note key="39" vol="197" pan="0" len="12" pos="2328"/>
          <note key="39" vol="197" pan="0" len="12" pos="2340"/>
          <note key="46" vol="197" pan="0" len="24" pos="2352"/>
          <note key="39" vol="197" pan="0" len="24" pos="2352"/>
          <note key="0" vol="197" pan="0" len="12" pos="2352"/>
          <note key="46" vol="197" pan="0" len="24" pos="2376"/>
          <note key="39" vol="197" pan="0" len="24" pos="2376"/>
          <note key="1" vol="197" pan="0" len="12" pos="2388"/>
          <note key="39" vol="197" pan="0" len="12" pos="2400"/>
          <note key="39" vol="197" pan="0" len="12" pos="2412"/>
          <note key="46" vol="197" pan="0" len="24" pos="2424"/>
          <note key="39" vol="197" pan="0" len="24" pos="2424"/>
          <note key="0" vol="197" pan="0" len="12" pos="2424"/>
          <note key="46" vol="197" pan="0" len="24" pos="2448"/>
          <note key="39" vol="197" pan="0" len="24" pos="2448"/>
          <note key="1" vol="197" pan="0" len="12" pos="2460"/>
          <note key="39" vol="197" pan="0" len="12" pos="2472"/>
          <note key="39" vol="197" pan="0" len="12" pos="2484"/>
          <note key="46" vol="197" pan="0" len="24" pos="2496"/>
          <note key="39" vol="197" pan="0" len="24" pos="2496"/>
          <note key="0" vol="197" pan="0" len="12" pos="2496"/>
          <note key="46" vol="197" pan="0" len="24" pos="2520"/>
          <note key="39" vol="197" pan="0" len="24" pos="2520"/>
          <note key="1" vol="197" pan="0" len="12" pos="2532"/>
          <note key="39" vol="197" pan="0" len="12" pos="2544"/>
          <note key="39" vol="197" pan="0" len="12" pos="2556"/>
          <note key="46" vol="197" pan="0" len="24" pos="2568"/>
          <note key="39" vol="197" pan="0" len="24" pos="2568"/>
          <note key="0" vol="197" pan="0" len="12" pos="2568"/>
          <note key="46" vol="197" pan="0" len="24" pos="2592"/>
          <note key="39" vol="197" pan="0" len="24" pos="2592"/>
          <note key="46" vol="197" pan="0" len="24" pos="2616"/>
          <note key="39" vol="197" pan="0" len="24" pos="2616"/>
          <note key="1" vol="197" pan="0" len="12" pos="2628"/>
          <note key="39" vol="197" pan="0" len="12" pos="2640"/>
          <note key="39" vol="197" pan="0" len="12" pos="2652"/>
          <note key="46" vol="197" pan="0" len="24" pos="2664"/>
          <note key="39" vol="197" pan="0" len="24" pos="2664"/>
          <note key="0" vol="197" pan="0" len="12" pos="2664"/>
          <note key="51" vol="197" pan="0" len="24" pos="2688"/>
          <note key="44" vol="197" pan="0" len="24" pos="2688"/>
          <note key="1" vol="197" pan="0" len="12" pos="2700"/>
          <note key="44" vol="197" pan="0" len="12" pos="2712"/>
          <note key="44" vol="197" pan="0" len="12" pos="2724"/>
          <note key="51" vol="197" pan="0" len="24" pos="2736"/>
          <note key="44" vol="197" pan="0" len="24" pos="2736"/>
          <note key="0" vol="197" pan="0" len="12" pos="2736"/>
          <note key="51" vol="197" pan="0" len="24" pos="2760"/>
          <note key="44" vol="197" pan="0" len="24" pos="2760"/>
          <note key="1" vol="197" pan="0" len="12" pos="2772"/>
          <note key="44" vol="197" pan="0" len="12" pos="2784"/>
          <note key="44" vol="197" pan="0" len="12" pos="2796"/>
          <note key="51" vol="197" pan="0" len="24" pos="2808"/>
          <note key="44" vol="197" pan="0" len="24" pos="2808"/>
          <note key="0" vol="197" pan="0" len="12" pos="2808"/>
          <note key="51" vol="197" pan="0" len="24" pos="2832"/>
          <note key="44" vol="197" pan="0" len="24" pos="2832"/>
          <note key="1" vol="197" pan="0" len="12" pos="2844"/>
          <note key="44" vol="197" pan="0" len="12" pos="2856"/>
          <note key="44" vol="197" pan="0" len="12" pos="2868"/>
          <note key="51" vol="197" pan="0" len="48" pos="2880"/>
          <note key="44" vol="197" pan="0" len="48" pos="2880"/>
          <note key="0" vol="197" pan="0" len="12" pos="2880"/>
          <note key="51" vol="197" pan="0" len="48" pos="2928"/>
          <note key="44" vol="197" pan="0" len="48" pos="2928"/>
          <note key="51" vol="197" pan="0" len="48" pos="2976"/>
          <note key="44" vol="197" pan="0" len="48" pos="2976"/>
          <note key="51" vol="197" pan="0" len="48" pos="3024"/>
          <note key="44" vol="197" pan="0" len="48" pos="3024"/>
        </pattern>
        <pattern name="Rhythm Guitar" muted="0" type="1" steps="16" pos="14976">
          <note key="40" vol="197" pan="0" len="24" pos="0"/>
          <note key="0" vol="197" pan="0" len="12" pos="0"/>
          <note key="42" vol="197" pan="0" len="24" pos="24"/>
          <note key="1" vol="197" pan="0" len="12" pos="36"/>
          <note key="42" vol="197" pan="0" len="12" pos="48"/>
          <note key="42" vol="197" pan="0" len="12" pos="60"/>
          <note key="47" vol="197" pan="0" len="24" pos="72"/>
          <note key="0" vol="197" pan="0" len="24" pos="72"/>
          <note key="49" vol="197" pan="0" len="24" pos="96"/>
          <note key="42" vol="197" pan="0" len="24" pos="120"/>
          <note key="40" vol="197" pan="0" len="24" pos="144"/>
          <note key="42" vol="197" pan="0" len="24" pos="168"/>
        </pattern>
        <pattern name="Rhythm Guitar" muted="0" type="1" steps="16" pos="15360">
          <note key="46" vol="78" pan="0" len="24" pos="0"/>
          <note key="39" vol="78" pan="0" len="24" pos="0"/>
          <note key="0" vol="78" pan="0" len="12" pos="0"/>
          <note key="1" vol="78" pan="0" len="12" pos="12"/>
          <note key="39" vol="78" pan="0" len="12" pos="24"/>
          <note key="39" vol="78" pan="0" len="12" pos="36"/>
          <note key="39" vol="78" pan="0" len="12" pos="48"/>
          <note key="39" vol="78" pan="0" len="12" pos="60"/>
          <note key="39" vol="78" pan="0" len="12" pos="72"/>
          <note key="39" vol="78" pan="0" len="12" pos="84"/>
          <note key="39" vol="78" pan="0" len="12" pos="96"/>
          <note key="39" vol="78" pan="0" len="12" pos="108"/>
          <note key="39" vol="78" pan="0" len="12" pos="120"/>
          <note key="39" vol="78" pan="0" len="12" pos="132"/>
          <note key="39" vol="78" pan="0" len="12" pos="144"/>
          <note key="39" vol="78" pan="0" len="12" pos="156"/>
          <note key="39" vol="78" pan="0" len="12" pos="168"/>
          <note key="39" vol="78" pan="0" len="12" pos="180"/>
          <note key="52" vol="78" pan="0" len="96" pos="192"/>
          <note key="45" vol="78" pan="0" len="96" pos="192"/>
          <note key="0" vol="78" pan="0" len="12" pos="192"/>
          <note key="51" vol="78" pan="0" len="96" pos="288"/>
          <note key="44" vol="78" pan="0" len="96" pos="288"/>
        </pattern>
        <pattern name="Rhythm Guitar" muted="0" type="1" steps="16" pos="15168">
          <note key="40" vol="197" pan="0" len="24" pos="0"/>
          <note key="0" vol="197" pan="0" len="12" pos="0"/>
          <note key="42" vol="197" pan="0" len="24" pos="24"/>
          <note key="1" vol="197" pan="0" len="12" pos="36"/>
          <note key="42" vol="197" pan="0" len="12" pos="48"/>
          <note key="42" vol="197" pan="0" len="12" pos="60"/>
          <note key="47" vol="197" pan="0" len="24" pos="72"/>
          <note key="0" vol="197" pan="0" len="24" pos="72"/>
          <note key="49" vol="197" pan="0" len="24" pos="96"/>
          <note key="42" vol="197" pan="0" len="24" pos="120"/>
          <note key="40" vol="197" pan="0" len="24" pos="144"/>
          <note key="42" vol="197" pan="0" len="24" pos="168"/>
        </pattern>
        <pattern name="Rhythm Guitar" muted="0" type="1" steps="16" pos="24960">
          <note key="52" vol="195" pan="0" len="192" pos="0"/>
          <note key="45" vol="195" pan="0" len="192" pos="0"/>
          <note key="0" vol="195" pan="0" len="384" pos="0"/>
          <note key="54" vol="195" pan="0" len="192" pos="192"/>
          <note key="47" vol="195" pan="0" len="192" pos="192"/>
          <note key="44" vol="195" pan="0" len="384" pos="384"/>
          <note key="37" vol="195" pan="0" len="384" pos="384"/>
          <note key="42" vol="195" pan="0" len="192" pos="768"/>
          <note key="35" vol="195" pan="0" len="192" pos="768"/>
          <note key="42" vol="195" pan="0" len="192" pos="960"/>
          <note key="35" vol="195" pan="0" len="192" pos="960"/>
          <note key="49" vol="195" pan="0" len="384" pos="1152"/>
          <note key="42" vol="195" pan="0" len="384" pos="1152"/>
          <note key="52" vol="195" pan="0" len="192" pos="1536"/>
          <note key="45" vol="195" pan="0" len="192" pos="1536"/>
          <note key="54" vol="195" pan="0" len="192" pos="1728"/>
          <note key="47" vol="195" pan="0" len="192" pos="1728"/>
          <note key="44" vol="195" pan="0" len="192" pos="1920"/>
          <note key="37" vol="195" pan="0" len="192" pos="1920"/>
          <note key="44" vol="195" pan="0" len="192" pos="2112"/>
          <note key="37" vol="195" pan="0" len="192" pos="2112"/>
        </pattern>
        <pattern name="Rhythm Guitar" muted="0" type="1" steps="16" pos="28032">
          <note key="52" vol="195" pan="0" len="384" pos="0"/>
          <note key="45" vol="195" pan="0" len="384" pos="0"/>
          <note key="0" vol="195" pan="0" len="384" pos="0"/>
          <note key="42" vol="195" pan="0" len="384" pos="384"/>
          <note key="35" vol="195" pan="0" len="384" pos="384"/>
        </pattern>
        <pattern name="Rhythm Guitar" muted="0" type="1" steps="16" pos="27264">
          <note key="49" vol="200" pan="0" len="192" pos="0"/>
          <note key="42" vol="200" pan="0" len="192" pos="0"/>
          <note key="0" vol="200" pan="0" len="192" pos="0"/>
          <note key="49" vol="200" pan="0" len="192" pos="192"/>
          <note key="42" vol="200" pan="0" len="192" pos="192"/>
          <note key="51" vol="200" pan="0" len="192" pos="384"/>
          <note key="44" vol="200" pan="0" len="192" pos="384"/>
          <note key="51" vol="200" pan="0" len="192" pos="576"/>
          <note key="44" vol="200" pan="0" len="192" pos="576"/>
        </pattern>
        <pattern name="Rhythm Guitar" muted="0" type="1" steps="16" pos="28800">
          <note key="49" vol="200" pan="0" len="48" pos="0"/>
          <note key="0" vol="200" pan="0" len="24" pos="0"/>
          <note key="37" vol="200" pan="0" len="24" pos="48"/>
          <note key="1" vol="200" pan="0" len="24" pos="60"/>
          <note key="37" vol="200" pan="0" len="12" pos="72"/>
          <note key="37" vol="200" pan="0" len="12" pos="84"/>
          <note key="37" vol="200" pan="0" len="12" pos="96"/>
          <note key="37" vol="200" pan="0" len="12" pos="108"/>
          <note key="37" vol="200" pan="0" len="24" pos="120"/>
          <note key="0" vol="200" pan="0" len="24" pos="120"/>
          <note key="1" vol="200" pan="0" len="24" pos="132"/>
          <note key="37" vol="200" pan="0" len="12" pos="144"/>
          <note key="37" vol="200" pan="0" len="12" pos="156"/>
          <note key="37" vol="200" pan="0" len="12" pos="168"/>
          <note key="37" vol="200" pan="0" len="12" pos="180"/>
          <note key="37" vol="200" pan="0" len="24" pos="192"/>
          <note key="0" vol="200" pan="0" len="24" pos="192"/>
          <note key="1" vol="200" pan="0" len="24" pos="204"/>
          <note key="37" vol="200" pan="0" len="12" pos="216"/>
          <note key="37" vol="200" pan="0" len="12" pos="228"/>
          <note key="37" vol="200" pan="0" len="12" pos="240"/>
          <note key="37" vol="200" pan="0" len="12" pos="252"/>
          <note key="37" vol="200" pan="0" len="24" pos="264"/>
          <note key="0" vol="200" pan="0" len="24" pos="264"/>
          <note key="1" vol="200" pan="0" len="24" pos="276"/>
          <note key="37" vol="200" pan="0" len="12" pos="288"/>
          <note key="37" vol="200" pan="0" len="12" pos="300"/>
          <note key="37" vol="200" pan="0" len="24" pos="312"/>
          <note key="0" vol="200" pan="0" len="24" pos="312"/>
          <note key="1" vol="200" pan="0" len="24" pos="324"/>
          <note key="37" vol="200" pan="0" len="12" pos="336"/>
          <note key="37" vol="200" pan="0" len="12" pos="348"/>
          <note key="37" vol="200" pan="0" len="12" pos="360"/>
          <note key="37" vol="200" pan="0" len="12" pos="372"/>
          <note key="37" vol="200" pan="0" len="48" pos="384"/>
          <note key="0" vol="200" pan="0" len="24" pos="384"/>
          <note key="37" vol="200" pan="0" len="24" pos="432"/>
          <note key="1" vol="200" pan="0" len="24" pos="444"/>
          <note key="37" vol="200" pan="0" len="12" pos="456"/>
          <note key="37" vol="200" pan="0" len="12" pos="468"/>
          <note key="37" vol="200" pan="0" len="12" pos="480"/>
          <note key="37" vol="200" pan="0" len="12" pos="492"/>
          <note key="37" vol="200" pan="0" len="24" pos="504"/>
          <note key="0" vol="200" pan="0" len="24" pos="504"/>
          <note key="1" vol="200" pan="0" len="24" pos="516"/>
          <note key="37" vol="200" pan="0" len="12" pos="528"/>
          <note key="37" vol="200" pan="0" len="12" pos="540"/>
          <note key="37" vol="200" pan="0" len="12" pos="552"/>
          <note key="37" vol="200" pan="0" len="12" pos="564"/>
          <note key="37" vol="200" pan="0" len="24" pos="576"/>
          <note key="0" vol="200" pan="0" len="24" pos="576"/>
          <note key="1" vol="200" pan="0" len="24" pos="588"/>
          <note key="37" vol="200" pan="0" len="12" pos="600"/>
          <note key="37" vol="200" pan="0" len="12" pos="612"/>
          <note key="37" vol="200" pan="0" len="12" pos="624"/>
          <note key="37" vol="200" pan="0" len="12" pos="636"/>
          <note key="37" vol="200" pan="0" len="24" pos="648"/>
          <note key="0" vol="200" pan="0" len="24" pos="648"/>
          <note key="1" vol="200" pan="0" len="24" pos="660"/>
          <note key="37" vol="200" pan="0" len="12" pos="672"/>
          <note key="37" vol="200" pan="0" len="12" pos="684"/>
          <note key="40" vol="200" pan="0" len="24" pos="696"/>
          <note key="42" vol="200" pan="0" len="24" pos="720"/>
          <note key="44" vol="200" pan="0" len="24" pos="744"/>
        </pattern>
        <pattern name="Rhythm Guitar" muted="0" type="1" steps="16" pos="29568">
          <note key="49" vol="200" pan="0" len="48" pos="0"/>
          <note key="0" vol="200" pan="0" len="24" pos="0"/>
          <note key="37" vol="200" pan="0" len="24" pos="48"/>
          <note key="1" vol="200" pan="0" len="24" pos="60"/>
          <note key="37" vol="200" pan="0" len="12" pos="72"/>
          <note key="37" vol="200" pan="0" len="12" pos="84"/>
          <note key="37" vol="200" pan="0" len="12" pos="96"/>
          <note key="37" vol="200" pan="0" len="12" pos="108"/>
          <note key="37" vol="200" pan="0" len="24" pos="120"/>
          <note key="0" vol="200" pan="0" len="24" pos="120"/>
          <note key="1" vol="200" pan="0" len="24" pos="132"/>
          <note key="37" vol="200" pan="0" len="12" pos="144"/>
          <note key="37" vol="200" pan="0" len="12" pos="156"/>
          <note key="37" vol="200" pan="0" len="12" pos="168"/>
          <note key="37" vol="200" pan="0" len="12" pos="180"/>
          <note key="37" vol="200" pan="0" len="24" pos="192"/>
          <note key="0" vol="200" pan="0" len="24" pos="192"/>
          <note key="1" vol="200" pan="0" len="24" pos="204"/>
          <note key="37" vol="200" pan="0" len="12" pos="216"/>
          <note key="37" vol="200" pan="0" len="12" pos="228"/>
          <note key="37" vol="200" pan="0" len="12" pos="240"/>
          <note key="37" vol="200" pan="0" len="12" pos="252"/>
          <note key="37" vol="200" pan="0" len="24" pos="264"/>
          <note key="0" vol="200" pan="0" len="24" pos="264"/>
          <note key="1" vol="200" pan="0" len="24" pos="276"/>
          <note key="37" vol="200" pan="0" len="12" pos="288"/>
          <note key="37" vol="200" pan="0" len="12" pos="300"/>
          <note key="37" vol="200" pan="0" len="24" pos="312"/>
          <note key="0" vol="200" pan="0" len="24" pos="312"/>
          <note key="1" vol="200" pan="0" len="24" pos="324"/>
          <note key="37" vol="200" pan="0" len="12" pos="336"/>
          <note key="37" vol="200" pan="0" len="12" pos="348"/>
          <note key="37" vol="200" pan="0" len="12" pos="360"/>
          <note key="37" vol="200" pan="0" len="12" pos="372"/>
          <note key="37" vol="200" pan="0" len="48" pos="384"/>
          <note key="0" vol="200" pan="0" len="24" pos="384"/>
          <note key="37" vol="200" pan="0" len="24" pos="432"/>
          <note key="1" vol="200" pan="0" len="24" pos="444"/>
          <note key="37" vol="200" pan="0" len="12" pos="456"/>
          <note key="37" vol="200" pan="0" len="12" pos="468"/>
          <note key="37" vol="200" pan="0" len="12" pos="480"/>
          <note key="37" vol="200" pan="0" len="12" pos="492"/>
          <note key="37" vol="200" pan="0" len="24" pos="504"/>
          <note key="0" vol="200" pan="0" len="24" pos="504"/>
          <note key="1" vol="200" pan="0" len="24" pos="516"/>
          <note key="37" vol="200" pan="0" len="12" pos="528"/>
          <note key="37" vol="200" pan="0" len="12" pos="540"/>
          <note key="37" vol="200" pan="0" len="12" pos="552"/>
          <note key="37" vol="200" pan="0" len="12" pos="564"/>
          <note key="37" vol="200" pan="0" len="24" pos="576"/>
          <note key="0" vol="200" pan="0" len="24" pos="576"/>
          <note key="1" vol="200" pan="0" len="24" pos="588"/>
          <note key="37" vol="200" pan="0" len="12" pos="600"/>
          <note key="37" vol="200" pan="0" len="12" pos="612"/>
          <note key="37" vol="200" pan="0" len="12" pos="624"/>
          <note key="37" vol="200" pan="0" len="12" pos="636"/>
          <note key="37" vol="200" pan="0" len="24" pos="648"/>
          <note key="0" vol="200" pan="0" len="24" pos="648"/>
          <note key="1" vol="200" pan="0" len="24" pos="660"/>
          <note key="37" vol="200" pan="0" len="12" pos="672"/>
          <note key="37" vol="200" pan="0" len="12" pos="684"/>
          <note key="40" vol="200" pan="0" len="24" pos="696"/>
          <note key="42" vol="200" pan="0" len="24" pos="720"/>
          <note key="44" vol="200" pan="0" len="24" pos="744"/>
        </pattern>
        <pattern name="Rhythm Guitar" muted="0" type="1" steps="16" pos="30336">
          <note key="50" vol="200" pan="0" len="48" pos="0"/>
          <note key="0" vol="200" pan="0" len="24" pos="0"/>
          <note key="38" vol="200" pan="0" len="24" pos="48"/>
          <note key="1" vol="200" pan="0" len="24" pos="60"/>
          <note key="38" vol="200" pan="0" len="12" pos="72"/>
          <note key="38" vol="200" pan="0" len="12" pos="84"/>
          <note key="38" vol="200" pan="0" len="12" pos="96"/>
          <note key="38" vol="200" pan="0" len="12" pos="108"/>
          <note key="38" vol="200" pan="0" len="24" pos="120"/>
          <note key="0" vol="200" pan="0" len="24" pos="120"/>
          <note key="1" vol="200" pan="0" len="24" pos="132"/>
          <note key="38" vol="200" pan="0" len="12" pos="144"/>
          <note key="38" vol="200" pan="0" len="12" pos="156"/>
          <note key="38" vol="200" pan="0" len="12" pos="168"/>
          <note key="38" vol="200" pan="0" len="12" pos="180"/>
          <note key="38" vol="200" pan="0" len="24" pos="192"/>
          <note key="0" vol="200" pan="0" len="24" pos="192"/>
          <note key="1" vol="200" pan="0" len="24" pos="204"/>
          <note key="38" vol="200" pan="0" len="12" pos="216"/>
          <note key="38" vol="200" pan="0" len="12" pos="228"/>
          <note key="38" vol="200" pan="0" len="12" pos="240"/>
          <note key="38" vol="200" pan="0" len="12" pos="252"/>
          <note key="38" vol="200" pan="0" len="24" pos="264"/>
          <note key="0" vol="200" pan="0" len="24" pos="264"/>
          <note key="1" vol="200" pan="0" len="24" pos="276"/>
          <note key="38" vol="200" pan="0" len="12" pos="288"/>
          <note key="38" vol="200" pan="0" len="12" pos="300"/>
          <note key="38" vol="200" pan="0" len="24" pos="312"/>
          <note key="0" vol="200" pan="0" len="24" pos="312"/>
          <note key="1" vol="200" pan="0" len="24" pos="324"/>
          <note key="38" vol="200" pan="0" len="12" pos="336"/>
          <note key="38" vol="200" pan="0" len="12" pos="348"/>
          <note key="38" vol="200" pan="0" len="12" pos="360"/>
          <note key="38" vol="200" pan="0" len="12" pos="372"/>
          <note key="38" vol="200" pan="0" len="48" pos="384"/>
          <note key="0" vol="200" pan="0" len="24" pos="384"/>
          <note key="38" vol="200" pan="0" len="24" pos="432"/>
          <note key="1" vol="200" pan="0" len="24" pos="444"/>
          <note key="38" vol="200" pan="0" len="12" pos="456"/>
          <note key="38" vol="200" pan="0" len="12" pos="468"/>
          <note key="38" vol="200" pan="0" len="12" pos="480"/>
          <note key="38" vol="200" pan="0" len="12" pos="492"/>
          <note key="38" vol="200" pan="0" len="24" pos="504"/>
          <note key="0" vol="200" pan="0" len="24" pos="504"/>
          <note key="1" vol="200" pan="0" len="24" pos="516"/>
          <note key="38" vol="200" pan="0" len="12" pos="528"/>
          <note key="38" vol="200" pan="0" len="12" pos="540"/>
          <note key="38" vol="200" pan="0" len="12" pos="552"/>
          <note key="38" vol="200" pan="0" len="12" pos="564"/>
          <note key="38" vol="200" pan="0" len="24" pos="576"/>
          <note key="0" vol="200" pan="0" len="24" pos="576"/>
          <note key="1" vol="200" pan="0" len="24" pos="588"/>
          <note key="38" vol="200" pan="0" len="12" pos="600"/>
          <note key="38" vol="200" pan="0" len="12" pos="612"/>
          <note key="38" vol="200" pan="0" len="12" pos="624"/>
          <note key="38" vol="200" pan="0" len="12" pos="636"/>
          <note key="38" vol="200" pan="0" len="24" pos="648"/>
          <note key="0" vol="200" pan="0" len="24" pos="648"/>
          <note key="1" vol="200" pan="0" len="24" pos="660"/>
          <note key="38" vol="200" pan="0" len="12" pos="672"/>
          <note key="38" vol="200" pan="0" len="12" pos="684"/>
          <note key="45" vol="200" pan="0" len="24" pos="696"/>
          <note key="44" vol="200" pan="0" len="24" pos="720"/>
          <note key="40" vol="200" pan="0" len="24" pos="744"/>
        </pattern>
        <pattern name="Rhythm Guitar" muted="0" type="1" steps="16" pos="31104">
          <note key="49" vol="200" pan="0" len="48" pos="0"/>
          <note key="0" vol="200" pan="0" len="24" pos="0"/>
          <note key="37" vol="200" pan="0" len="24" pos="48"/>
          <note key="1" vol="200" pan="0" len="24" pos="60"/>
          <note key="37" vol="200" pan="0" len="12" pos="72"/>
          <note key="37" vol="200" pan="0" len="12" pos="84"/>
          <note key="37" vol="200" pan="0" len="12" pos="96"/>
          <note key="37" vol="200" pan="0" len="12" pos="108"/>
          <note key="37" vol="200" pan="0" len="24" pos="120"/>
          <note key="0" vol="200" pan="0" len="24" pos="120"/>
          <note key="1" vol="200" pan="0" len="24" pos="132"/>
          <note key="37" vol="200" pan="0" len="12" pos="144"/>
          <note key="37" vol="200" pan="0" len="12" pos="156"/>
          <note key="37" vol="200" pan="0" len="12" pos="168"/>
          <note key="37" vol="200" pan="0" len="12" pos="180"/>
          <note key="37" vol="200" pan="0" len="24" pos="192"/>
          <note key="0" vol="200" pan="0" len="24" pos="192"/>
          <note key="1" vol="200" pan="0" len="24" pos="204"/>
          <note key="37" vol="200" pan="0" len="12" pos="216"/>
          <note key="37" vol="200" pan="0" len="12" pos="228"/>
          <note key="37" vol="200" pan="0" len="12" pos="240"/>
          <note key="37" vol="200" pan="0" len="12" pos="252"/>
          <note key="37" vol="200" pan="0" len="24" pos="264"/>
          <note key="0" vol="200" pan="0" len="24" pos="264"/>
          <note key="1" vol="200" pan="0" len="24" pos="276"/>
          <note key="37" vol="200" pan="0" len="12" pos="288"/>
          <note key="37" vol="200" pan="0" len="12" pos="300"/>
          <note key="37" vol="200" pan="0" len="24" pos="312"/>
          <note key="0" vol="200" pan="0" len="24" pos="312"/>
          <note key="1" vol="200" pan="0" len="24" pos="324"/>
          <note key="37" vol="200" pan="0" len="12" pos="336"/>
          <note key="37" vol="200" pan="0" len="12" pos="348"/>
          <note key="37" vol="200" pan="0" len="12" pos="360"/>
          <note key="37" vol="200" pan="0" len="12" pos="372"/>
          <note key="35" vol="200" pan="0" len="48" pos="384"/>
          <note key="0" vol="200" pan="0" len="24" pos="384"/>
          <note key="35" vol="200" pan="0" len="24" pos="432"/>
          <note key="1" vol="200" pan="0" len="24" pos="444"/>
          <note key="35" vol="200" pan="0" len="12" pos="456"/>
          <note key="35" vol="200" pan="0" len="12" pos="468"/>
          <note key="35" vol="200" pan="0" len="12" pos="480"/>
          <note key="35" vol="200" pan="0" len="12" pos="492"/>
          <note key="35" vol="200" pan="0" len="24" pos="504"/>
          <note key="0" vol="200" pan="0" len="24" pos="504"/>
          <note key="1" vol="200" pan="0" len="24" pos="516"/>
          <note key="35" vol="200" pan="0" len="12" pos="528"/>
          <note key="35" vol="200" pan="0" len="12" pos="540"/>
          <note key="35" vol="200" pan="0" len="12" pos="552"/>
          <note key="35" vol="200" pan="0" len="12" pos="564"/>
          <note key="35" vol="200" pan="0" len="24" pos="576"/>
          <note key="0" vol="200" pan="0" len="24" pos="576"/>
          <note key="1" vol="200" pan="0" len="24" pos="588"/>
          <note key="35" vol="200" pan="0" len="12" pos="600"/>
          <note key="35" vol="200" pan="0" len="12" pos="612"/>
          <note key="35" vol="200" pan="0" len="12" pos="624"/>
          <note key="35" vol="200" pan="0" len="12" pos="636"/>
          <note key="35" vol="200" pan="0" len="24" pos="648"/>
          <note key="0" vol="200" pan="0" len="24" pos="648"/>
          <note key="1" vol="200" pan="0" len="24" pos="660"/>
          <note key="35" vol="200" pan="0" len="12" pos="672"/>
          <note key="35" vol="200" pan="0" len="12" pos="684"/>
          <note key="39" vol="200" pan="0" len="24" pos="696"/>
          <note key="40" vol="200" pan="0" len="24" pos="720"/>
          <note key="42" vol="200" pan="0" len="24" pos="744"/>
        </pattern>
        <pattern name="Rhythm Guitar" muted="0" type="1" steps="16" pos="31872">
          <note key="33" vol="200" pan="0" len="48" pos="0"/>
          <note key="0" vol="200" pan="0" len="24" pos="0"/>
          <note key="33" vol="200" pan="0" len="24" pos="48"/>
          <note key="1" vol="200" pan="0" len="24" pos="60"/>
          <note key="33" vol="200" pan="0" len="12" pos="72"/>
          <note key="33" vol="200" pan="0" len="12" pos="84"/>
          <note key="33" vol="200" pan="0" len="12" pos="96"/>
          <note key="33" vol="200" pan="0" len="12" pos="108"/>
          <note key="33" vol="200" pan="0" len="24" pos="120"/>
          <note key="0" vol="200" pan="0" len="24" pos="120"/>
          <note key="1" vol="200" pan="0" len="24" pos="132"/>
          <note key="33" vol="200" pan="0" len="12" pos="144"/>
          <note key="33" vol="200" pan="0" len="12" pos="156"/>
          <note key="33" vol="200" pan="0" len="12" pos="168"/>
          <note key="33" vol="200" pan="0" len="12" pos="180"/>
          <note key="33" vol="200" pan="0" len="24" pos="192"/>
          <note key="0" vol="200" pan="0" len="24" pos="192"/>
          <note key="1" vol="200" pan="0" len="24" pos="204"/>
          <note key="33" vol="200" pan="0" len="12" pos="216"/>
          <note key="33" vol="200" pan="0" len="12" pos="228"/>
          <note key="33" vol="200" pan="0" len="12" pos="240"/>
          <note key="33" vol="200" pan="0" len="12" pos="252"/>
          <note key="33" vol="200" pan="0" len="24" pos="264"/>
          <note key="0" vol="200" pan="0" len="24" pos="264"/>
          <note key="1" vol="200" pan="0" len="24" pos="276"/>
          <note key="33" vol="200" pan="0" len="12" pos="288"/>
          <note key="33" vol="200" pan="0" len="12" pos="300"/>
          <note key="33" vol="200" pan="0" len="24" pos="312"/>
          <note key="0" vol="200" pan="0" len="24" pos="312"/>
          <note key="1" vol="200" pan="0" len="24" pos="324"/>
          <note key="33" vol="200" pan="0" len="12" pos="336"/>
          <note key="33" vol="200" pan="0" len="12" pos="348"/>
          <note key="33" vol="200" pan="0" len="12" pos="360"/>
          <note key="33" vol="200" pan="0" len="12" pos="372"/>
          <note key="35" vol="200" pan="0" len="48" pos="384"/>
          <note key="0" vol="200" pan="0" len="24" pos="384"/>
          <note key="35" vol="200" pan="0" len="24" pos="432"/>
          <note key="1" vol="200" pan="0" len="24" pos="444"/>
          <note key="35" vol="200" pan="0" len="12" pos="456"/>
          <note key="35" vol="200" pan="0" len="12" pos="468"/>
          <note key="35" vol="200" pan="0" len="12" pos="480"/>
          <note key="35" vol="200" pan="0" len="12" pos="492"/>
          <note key="35" vol="200" pan="0" len="24" pos="504"/>
          <note key="0" vol="200" pan="0" len="24" pos="504"/>
          <note key="1" vol="200" pan="0" len="24" pos="516"/>
          <note key="35" vol="200" pan="0" len="12" pos="528"/>
          <note key="35" vol="200" pan="0" len="12" pos="540"/>
          <note key="35" vol="200" pan="0" len="12" pos="552"/>
          <note key="35" vol="200" pan="0" len="12" pos="564"/>
          <note key="35" vol="200" pan="0" len="24" pos="576"/>
          <note key="0" vol="200" pan="0" len="24" pos="576"/>
          <note key="1" vol="200" pan="0" len="24" pos="588"/>
          <note key="35" vol="200" pan="0" len="12" pos="600"/>
          <note key="35" vol="200" pan="0" len="12" pos="612"/>
          <note key="35" vol="200" pan="0" len="12" pos="624"/>
          <note key="35" vol="200" pan="0" len="12" pos="636"/>
          <note key="35" vol="200" pan="0" len="24" pos="648"/>
          <note key="0" vol="200" pan="0" len="24" pos="648"/>
          <note key="1" vol="200" pan="0" len="24" pos="660"/>
          <note key="35" vol="200" pan="0" len="12" pos="672"/>
          <note key="35" vol="200" pan="0" len="12" pos="684"/>
          <note key="35" vol="200" pan="0" len="24" pos="696"/>
          <note key="35" vol="200" pan="0" len="12" pos="720"/>
          <note key="35" vol="200" pan="0" len="12" pos="732"/>
          <note key="35" vol="200" pan="0" len="12" pos="744"/>
          <note key="35" vol="200" pan="0" len="12" pos="756"/>
        </pattern>
        <pattern name="Rhythm Guitar" muted="0" type="1" steps="16" pos="32640">
          <note key="42" vol="200" pan="0" len="48" pos="0"/>
          <note key="0" vol="200" pan="0" len="24" pos="0"/>
          <note key="42" vol="200" pan="0" len="24" pos="48"/>
          <note key="1" vol="200" pan="0" len="24" pos="60"/>
          <note key="42" vol="200" pan="0" len="12" pos="72"/>
          <note key="42" vol="200" pan="0" len="12" pos="84"/>
          <note key="42" vol="200" pan="0" len="12" pos="96"/>
          <note key="42" vol="200" pan="0" len="12" pos="108"/>
          <note key="42" vol="200" pan="0" len="24" pos="120"/>
          <note key="0" vol="200" pan="0" len="24" pos="120"/>
          <note key="1" vol="200" pan="0" len="24" pos="132"/>
          <note key="42" vol="200" pan="0" len="12" pos="144"/>
          <note key="42" vol="200" pan="0" len="12" pos="156"/>
          <note key="42" vol="200" pan="0" len="12" pos="168"/>
          <note key="42" vol="200" pan="0" len="12" pos="180"/>
          <note key="42" vol="200" pan="0" len="24" pos="192"/>
          <note key="0" vol="200" pan="0" len="24" pos="192"/>
          <note key="1" vol="200" pan="0" len="24" pos="204"/>
          <note key="42" vol="200" pan="0" len="12" pos="216"/>
          <note key="42" vol="200" pan="0" len="12" pos="228"/>
          <note key="42" vol="200" pan="0" len="12" pos="240"/>
          <note key="42" vol="200" pan="0" len="12" pos="252"/>
          <note key="42" vol="200" pan="0" len="24" pos="264"/>
          <note key="0" vol="200" pan="0" len="24" pos="264"/>
          <note key="1" vol="200" pan="0" len="24" pos="276"/>
          <note key="42" vol="200" pan="0" len="12" pos="288"/>
          <note key="42" vol="200" pan="0" len="12" pos="300"/>
          <note key="42" vol="200" pan="0" len="24" pos="312"/>
          <note key="0" vol="200" pan="0" len="24" pos="312"/>
          <note key="1" vol="200" pan="0" len="24" pos="324"/>
          <note key="42" vol="200" pan="0" len="12" pos="336"/>
          <note key="42" vol="200" pan="0" len="12" pos="348"/>
          <note key="42" vol="200" pan="0" len="12" pos="360"/>
          <note key="42" vol="200" pan="0" len="12" pos="372"/>
          <note key="32" vol="200" pan="0" len="48" pos="384"/>
          <note key="0" vol="200" pan="0" len="24" pos="384"/>
          <note key="32" vol="200" pan="0" len="24" pos="432"/>
          <note key="1" vol="200" pan="0" len="24" pos="444"/>
          <note key="32" vol="200" pan="0" len="12" pos="456"/>
          <note key="32" vol="200" pan="0" len="12" pos="468"/>
          <note key="32" vol="200" pan="0" len="12" pos="480"/>
          <note key="32" vol="200" pan="0" len="12" pos="492"/>
          <note key="32" vol="200" pan="0" len="24" pos="504"/>
          <note key="0" vol="200" pan="0" len="24" pos="504"/>
          <note key="1" vol="200" pan="0" len="24" pos="516"/>
          <note key="32" vol="200" pan="0" len="12" pos="528"/>
          <note key="32" vol="200" pan="0" len="12" pos="540"/>
          <note key="32" vol="200" pan="0" len="12" pos="552"/>
          <note key="32" vol="200" pan="0" len="12" pos="564"/>
          <note key="32" vol="200" pan="0" len="24" pos="576"/>
          <note key="0" vol="200" pan="0" len="24" pos="576"/>
          <note key="1" vol="200" pan="0" len="24" pos="588"/>
          <note key="32" vol="200" pan="0" len="12" pos="600"/>
          <note key="32" vol="200" pan="0" len="12" pos="612"/>
          <note key="32" vol="200" pan="0" len="12" pos="624"/>
          <note key="32" vol="200" pan="0" len="12" pos="636"/>
          <note key="32" vol="200" pan="0" len="24" pos="648"/>
          <note key="0" vol="200" pan="0" len="24" pos="648"/>
          <note key="1" vol="200" pan="0" len="24" pos="660"/>
          <note key="32" vol="200" pan="0" len="12" pos="672"/>
          <note key="32" vol="200" pan="0" len="12" pos="684"/>
          <note key="32" vol="200" pan="0" len="24" pos="696"/>
          <note key="32" vol="200" pan="0" len="12" pos="720"/>
          <note key="32" vol="200" pan="0" len="12" pos="732"/>
          <note key="32" vol="200" pan="0" len="12" pos="744"/>
          <note key="32" vol="200" pan="0" len="12" pos="756"/>
        </pattern>
        <pattern name="Rhythm Guitar" muted="0" type="1" steps="16" pos="33408">
          <note key="39" vol="200" pan="0" len="48" pos="0"/>
          <note key="0" vol="200" pan="0" len="24" pos="0"/>
          <note key="39" vol="200" pan="0" len="24" pos="48"/>
          <note key="1" vol="200" pan="0" len="24" pos="60"/>
          <note key="39" vol="200" pan="0" len="12" pos="72"/>
          <note key="39" vol="200" pan="0" len="12" pos="84"/>
          <note key="39" vol="200" pan="0" len="12" pos="96"/>
          <note key="39" vol="200" pan="0" len="12" pos="108"/>
          <note key="39" vol="200" pan="0" len="24" pos="120"/>
          <note key="0" vol="200" pan="0" len="24" pos="120"/>
          <note key="1" vol="200" pan="0" len="24" pos="132"/>
          <note key="39" vol="200" pan="0" len="12" pos="144"/>
          <note key="39" vol="200" pan="0" len="12" pos="156"/>
          <note key="39" vol="200" pan="0" len="12" pos="168"/>
          <note key="39" vol="200" pan="0" len="12" pos="180"/>
          <note key="39" vol="200" pan="0" len="24" pos="192"/>
          <note key="0" vol="200" pan="0" len="24" pos="192"/>
          <note key="1" vol="200" pan="0" len="24" pos="204"/>
          <note key="39" vol="200" pan="0" len="12" pos="216"/>
          <note key="39" vol="200" pan="0" len="12" pos="228"/>
          <note key="39" vol="200" pan="0" len="12" pos="240"/>
          <note key="39" vol="200" pan="0" len="12" pos="252"/>
          <note key="39" vol="200" pan="0" len="24" pos="264"/>
          <note key="0" vol="200" pan="0" len="24" pos="264"/>
          <note key="1" vol="200" pan="0" len="24" pos="276"/>
          <note key="39" vol="200" pan="0" len="12" pos="288"/>
          <note key="39" vol="200" pan="0" len="12" pos="300"/>
          <note key="39" vol="200" pan="0" len="24" pos="312"/>
          <note key="0" vol="200" pan="0" len="24" pos="312"/>
          <note key="1" vol="200" pan="0" len="24" pos="324"/>
          <note key="39" vol="200" pan="0" len="12" pos="336"/>
          <note key="39" vol="200" pan="0" len="12" pos="348"/>
          <note key="39" vol="200" pan="0" len="12" pos="360"/>
          <note key="39" vol="200" pan="0" len="12" pos="372"/>
          <note key="38" vol="200" pan="0" len="48" pos="384"/>
          <note key="0" vol="200" pan="0" len="24" pos="384"/>
          <note key="38" vol="200" pan="0" len="24" pos="432"/>
          <note key="1" vol="200" pan="0" len="24" pos="444"/>
          <note key="38" vol="200" pan="0" len="12" pos="456"/>
          <note key="38" vol="200" pan="0" len="12" pos="468"/>
          <note key="38" vol="200" pan="0" len="12" pos="480"/>
          <note key="38" vol="200" pan="0" len="12" pos="492"/>
          <note key="38" vol="200" pan="0" len="24" pos="504"/>
          <note key="0" vol="200" pan="0" len="24" pos="504"/>
          <note key="1" vol="200" pan="0" len="24" pos="516"/>
          <note key="38" vol="200" pan="0" len="12" pos="528"/>
          <note key="38" vol="200" pan="0" len="12" pos="540"/>
          <note key="38" vol="200" pan="0" len="12" pos="552"/>
          <note key="38" vol="200" pan="0" len="12" pos="564"/>
          <note key="38" vol="200" pan="0" len="24" pos="576"/>
          <note key="0" vol="200" pan="0" len="24" pos="576"/>
          <note key="1" vol="200" pan="0" len="24" pos="588"/>
          <note key="38" vol="200" pan="0" len="12" pos="600"/>
          <note key="38" vol="200" pan="0" len="12" pos="612"/>
          <note key="38" vol="200" pan="0" len="12" pos="624"/>
          <note key="38" vol="200" pan="0" len="12" pos="636"/>
          <note key="38" vol="200" pan="0" len="24" pos="648"/>
          <note key="0" vol="200" pan="0" len="24" pos="648"/>
          <note key="1" vol="200" pan="0" len="24" pos="660"/>
          <note key="38" vol="200" pan="0" len="12" pos="672"/>
          <note key="38" vol="200" pan="0" len="12" pos="684"/>
          <note key="38" vol="200" pan="0" len="24" pos="696"/>
          <note key="38" vol="200" pan="0" len="12" pos="720"/>
          <note key="38" vol="200" pan="0" len="12" pos="732"/>
          <note key="38" vol="200" pan="0" len="12" pos="744"/>
          <note key="38" vol="200" pan="0" len="12" pos="756"/>
        </pattern>
        <pattern name="Rhythm Guitar" muted="0" type="1" steps="16" pos="34176">
          <note key="43" vol="200" pan="0" len="48" pos="0"/>
          <note key="0" vol="200" pan="0" len="24" pos="0"/>
          <note key="43" vol="200" pan="0" len="24" pos="48"/>
          <note key="1" vol="200" pan="0" len="24" pos="60"/>
          <note key="43" vol="200" pan="0" len="12" pos="72"/>
          <note key="43" vol="200" pan="0" len="12" pos="84"/>
          <note key="43" vol="200" pan="0" len="12" pos="96"/>
          <note key="43" vol="200" pan="0" len="12" pos="108"/>
          <note key="43" vol="200" pan="0" len="24" pos="120"/>
          <note key="0" vol="200" pan="0" len="24" pos="120"/>
          <note key="1" vol="200" pan="0" len="24" pos="132"/>
          <note key="43" vol="200" pan="0" len="12" pos="144"/>
          <note key="43" vol="200" pan="0" len="12" pos="156"/>
          <note key="43" vol="200" pan="0" len="12" pos="168"/>
          <note key="43" vol="200" pan="0" len="12" pos="180"/>
          <note key="43" vol="200" pan="0" len="24" pos="192"/>
          <note key="0" vol="200" pan="0" len="24" pos="192"/>
          <note key="1" vol="200" pan="0" len="24" pos="204"/>
          <note key="43" vol="200" pan="0" len="12" pos="216"/>
          <note key="43" vol="200" pan="0" len="12" pos="228"/>
          <note key="43" vol="200" pan="0" len="12" pos="240"/>
          <note key="43" vol="200" pan="0" len="12" pos="252"/>
          <note key="43" vol="200" pan="0" len="24" pos="264"/>
          <note key="0" vol="200" pan="0" len="24" pos="264"/>
          <note key="1" vol="200" pan="0" len="24" pos="276"/>
          <note key="43" vol="200" pan="0" len="12" pos="288"/>
          <note key="43" vol="200" pan="0" len="12" pos="300"/>
          <note key="43" vol="200" pan="0" len="24" pos="312"/>
          <note key="0" vol="200" pan="0" len="24" pos="312"/>
          <note key="1" vol="200" pan="0" len="24" pos="324"/>
          <note key="43" vol="200" pan="0" len="12" pos="336"/>
          <note key="43" vol="200" pan="0" len="12" pos="348"/>
          <note key="43" vol="200" pan="0" len="12" pos="360"/>
          <note key="43" vol="200" pan="0" len="12" pos="372"/>
          <note key="44" vol="200" pan="0" len="48" pos="384"/>
          <note key="0" vol="200" pan="0" len="24" pos="384"/>
          <note key="32" vol="200" pan="0" len="24" pos="432"/>
          <note key="1" vol="200" pan="0" len="24" pos="444"/>
          <note key="32" vol="200" pan="0" len="12" pos="456"/>
          <note key="32" vol="200" pan="0" len="12" pos="468"/>
          <note key="32" vol="200" pan="0" len="12" pos="480"/>
          <note key="32" vol="200" pan="0" len="12" pos="492"/>
          <note key="32" vol="200" pan="0" len="24" pos="504"/>
          <note key="0" vol="200" pan="0" len="24" pos="504"/>
          <note key="1" vol="200" pan="0" len="24" pos="516"/>
          <note key="32" vol="200" pan="0" len="12" pos="528"/>
          <note key="32" vol="200" pan="0" len="12" pos="540"/>
          <note key="32" vol="200" pan="0" len="12" pos="552"/>
          <note key="32" vol="200" pan="0" len="12" pos="564"/>
          <note key="39" vol="200" pan="0" len="192" pos="576"/>
          <note key="32" vol="200" pan="0" len="192" pos="576"/>
          <note key="0" vol="200" pan="0" len="24" pos="576"/>
        </pattern>
        <pattern name="Rhythm Guitar" muted="0" type="1" steps="16" pos="34944">
          <note key="44" vol="197" pan="0" len="192" pos="0"/>
          <note key="37" vol="197" pan="0" len="192" pos="0"/>
          <note key="0" vol="78" pan="0" len="48" pos="0"/>
          <note key="51" vol="197" pan="0" len="192" pos="192"/>
          <note key="44" vol="197" pan="0" len="192" pos="192"/>
          <note key="52" vol="197" pan="0" len="192" pos="384"/>
          <note key="45" vol="197" pan="0" len="192" pos="384"/>
          <note key="54" vol="197" pan="0" len="192" pos="576"/>
          <note key="47" vol="197" pan="0" len="192" pos="576"/>
          <note key="1" vol="197" pan="0" len="12" pos="756"/>
          <note key="42" vol="197" pan="0" len="12" pos="768"/>
          <note key="42" vol="197" pan="0" len="12" pos="780"/>
          <note key="42" vol="197" pan="0" len="12" pos="792"/>
          <note key="42" vol="197" pan="0" len="12" pos="804"/>
          <note key="42" vol="197" pan="0" len="12" pos="816"/>
          <note key="42" vol="197" pan="0" len="12" pos="828"/>
          <note key="42" vol="197" pan="0" len="12" pos="840"/>
          <note key="42" vol="197" pan="0" len="12" pos="852"/>
          <note key="42" vol="197" pan="0" len="12" pos="864"/>
          <note key="42" vol="197" pan="0" len="12" pos="876"/>
          <note key="42" vol="197" pan="0" len="12" pos="888"/>
          <note key="42" vol="197" pan="0" len="12" pos="900"/>
          <note key="42" vol="197" pan="0" len="12" pos="912"/>
          <note key="42" vol="197" pan="0" len="12" pos="924"/>
          <note key="42" vol="197" pan="0" len="12" pos="936"/>
          <note key="42" vol="197" pan="0" len="12" pos="948"/>
          <note key="44" vol="197" pan="0" len="12" pos="960"/>
          <note key="44" vol="197" pan="0" len="12" pos="972"/>
          <note key="44" vol="197" pan="0" len="12" pos="984"/>
          <note key="44" vol="197" pan="0" len="12" pos="996"/>
          <note key="44" vol="197" pan="0" len="12" pos="1008"/>
          <note key="44" vol="197" pan="0" len="12" pos="1020"/>
          <note key="44" vol="197" pan="0" len="12" pos="1032"/>
          <note key="44" vol="197" pan="0" len="12" pos="1044"/>
          <note key="44" vol="197" pan="0" len="12" pos="1056"/>
          <note key="44" vol="197" pan="0" len="12" pos="1068"/>
          <note key="44" vol="197" pan="0" len="12" pos="1080"/>
          <note key="44" vol="197" pan="0" len="12" pos="1092"/>
          <note key="44" vol="197" pan="0" len="12" pos="1104"/>
          <note key="44" vol="197" pan="0" len="12" pos="1116"/>
          <note key="44" vol="197" pan="0" len="12" pos="1128"/>
          <note key="44" vol="197" pan="0" len="12" pos="1140"/>
          <note key="45" vol="197" pan="0" len="12" pos="1152"/>
          <note key="45" vol="197" pan="0" len="12" pos="1164"/>
          <note key="45" vol="197" pan="0" len="12" pos="1176"/>
          <note key="45" vol="197" pan="0" len="12" pos="1188"/>
          <note key="45" vol="197" pan="0" len="12" pos="1200"/>
          <note key="45" vol="197" pan="0" len="12" pos="1212"/>
          <note key="45" vol="197" pan="0" len="12" pos="1224"/>
          <note key="45" vol="197" pan="0" len="12" pos="1236"/>
          <note key="45" vol="197" pan="0" len="12" pos="1248"/>
          <note key="45" vol="197" pan="0" len="12" pos="1260"/>
          <note key="45" vol="197" pan="0" len="12" pos="1272"/>
          <note key="45" vol="197" pan="0" len="12" pos="1284"/>
          <note key="45" vol="197" pan="0" len="12" pos="1296"/>
          <note key="45" vol="197" pan="0" len="12" pos="1308"/>
          <note key="45" vol="197" pan="0" len="12" pos="1320"/>
          <note key="45" vol="197" pan="0" len="12" pos="1332"/>
          <note key="54" vol="197" pan="0" len="48" pos="1344"/>
          <note key="47" vol="197" pan="0" len="48" pos="1344"/>
          <note key="0" vol="197" pan="0" len="12" pos="1344"/>
          <note key="54" vol="197" pan="0" len="48" pos="1392"/>
          <note key="47" vol="197" pan="0" len="48" pos="1392"/>
          <note key="51" vol="197" pan="0" len="48" pos="1440"/>
          <note key="44" vol="197" pan="0" len="48" pos="1440"/>
          <note key="54" vol="197" pan="0" len="48" pos="1488"/>
          <note key="47" vol="197" pan="0" len="48" pos="1488"/>
        </pattern>
        <pattern name="Rhythm Guitar" muted="0" type="1" steps="16" pos="36480">
          <note key="49" vol="197" pan="0" len="24" pos="0"/>
          <note key="0" vol="197" pan="0" len="12" pos="0"/>
          <note key="47" vol="197" pan="0" len="24" pos="24"/>
          <note key="49" vol="197" pan="0" len="24" pos="48"/>
          <note key="56" vol="197" pan="0" len="24" pos="72"/>
          <note key="1" vol="197" pan="0" len="12" pos="84"/>
          <note key="49" vol="197" pan="0" len="12" pos="96"/>
          <note key="49" vol="197" pan="0" len="12" pos="108"/>
          <note key="49" vol="197" pan="0" len="12" pos="120"/>
          <note key="49" vol="197" pan="0" len="12" pos="132"/>
          <note key="49" vol="197" pan="0" len="12" pos="144"/>
          <note key="49" vol="197" pan="0" len="12" pos="156"/>
          <note key="49" vol="197" pan="0" len="12" pos="168"/>
          <note key="49" vol="197" pan="0" len="12" pos="180"/>
        </pattern>
        <pattern name="Rhythm Guitar" muted="0" type="1" steps="16" pos="36672">
          <note key="42" vol="197" pan="0" len="24" pos="0"/>
          <note key="0" vol="197" pan="0" len="12" pos="0"/>
          <note key="40" vol="197" pan="0" len="24" pos="24"/>
          <note key="42" vol="197" pan="0" len="24" pos="48"/>
          <note key="49" vol="197" pan="0" len="24" pos="72"/>
          <note key="1" vol="197" pan="0" len="12" pos="84"/>
          <note key="42" vol="197" pan="0" len="12" pos="96"/>
          <note key="42" vol="197" pan="0" len="12" pos="108"/>
          <note key="42" vol="197" pan="0" len="12" pos="120"/>
          <note key="42" vol="197" pan="0" len="12" pos="132"/>
          <note key="42" vol="197" pan="0" len="12" pos="144"/>
          <note key="42" vol="197" pan="0" len="12" pos="156"/>
          <note key="42" vol="197" pan="0" len="12" pos="168"/>
          <note key="42" vol="197" pan="0" len="12" pos="180"/>
        </pattern>
        <pattern name="Rhythm Guitar" muted="0" type="1" steps="16" pos="36864">
          <note key="44" vol="78" pan="0" len="24" pos="0"/>
          <note key="1" vol="78" pan="0" len="24" pos="0"/>
          <note key="47" vol="78" pan="0" len="24" pos="24"/>
          <note key="44" vol="78" pan="0" len="24" pos="48"/>
          <note key="0" vol="78" pan="0" len="24" pos="60"/>
          <note key="51" vol="78" pan="0" len="48" pos="72"/>
          <note key="1" vol="78" pan="0" len="24" pos="108"/>
          <note key="44" vol="78" pan="0" len="24" pos="120"/>
          <note key="47" vol="78" pan="0" len="24" pos="144"/>
          <note key="51" vol="78" pan="0" len="24" pos="168"/>
          <note key="45" vol="78" pan="0" len="12" pos="192"/>
          <note key="45" vol="78" pan="0" len="12" pos="204"/>
          <note key="45" vol="78" pan="0" len="12" pos="216"/>
          <note key="45" vol="78" pan="0" len="12" pos="228"/>
          <note key="45" vol="78" pan="0" len="12" pos="240"/>
          <note key="45" vol="78" pan="0" len="12" pos="252"/>
          <note key="49" vol="78" pan="0" len="12" pos="264"/>
          <note key="49" vol="78" pan="0" len="12" pos="276"/>
          <note key="47" vol="78" pan="0" len="12" pos="288"/>
          <note key="47" vol="78" pan="0" len="12" pos="300"/>
          <note key="47" vol="78" pan="0" len="12" pos="312"/>
          <note key="47" vol="78" pan="0" len="12" pos="324"/>
          <note key="51" vol="78" pan="0" len="12" pos="336"/>
          <note key="51" vol="78" pan="0" len="12" pos="348"/>
          <note key="47" vol="78" pan="0" len="12" pos="360"/>
          <note key="47" vol="78" pan="0" len="12" pos="372"/>
        </pattern>
        <pattern name="Rhythm Guitar" muted="0" type="1" steps="16" pos="38784">
          <note key="42" vol="197" pan="0" len="24" pos="0"/>
          <note key="1" vol="197" pan="0" len="24" pos="0"/>
          <note key="40" vol="197" pan="0" len="24" pos="24"/>
          <note key="42" vol="197" pan="0" len="24" pos="48"/>
          <note key="0" vol="197" pan="0" len="24" pos="60"/>
          <note key="49" vol="197" pan="0" len="24" pos="72"/>
          <note key="1" vol="197" pan="0" len="24" pos="84"/>
          <note key="42" vol="197" pan="0" len="24" pos="96"/>
          <note key="0" vol="197" pan="0" len="24" pos="108"/>
          <note key="52" vol="197" pan="0" len="24" pos="120"/>
          <note key="47" vol="197" pan="0" len="24" pos="144"/>
          <note key="49" vol="197" pan="0" len="24" pos="168"/>
          <note key="42" vol="197" pan="0" len="24" pos="192"/>
          <note key="40" vol="197" pan="0" len="24" pos="216"/>
          <note key="42" vol="197" pan="0" len="24" pos="240"/>
          <note key="49" vol="197" pan="0" len="24" pos="264"/>
          <note key="42" vol="197" pan="0" len="24" pos="288"/>
          <note key="52" vol="197" pan="0" len="24" pos="312"/>
          <note key="54" vol="197" pan="0" len="24" pos="336"/>
          <note key="52" vol="197" pan="0" len="24" pos="360"/>
        </pattern>
        <pattern name="Rhythm Guitar" muted="0" type="1" steps="16" pos="37248">
          <note key="49" vol="197" pan="0" len="24" pos="0"/>
          <note key="0" vol="197" pan="0" len="12" pos="0"/>
          <note key="47" vol="197" pan="0" len="24" pos="24"/>
          <note key="49" vol="197" pan="0" len="24" pos="48"/>
          <note key="56" vol="197" pan="0" len="24" pos="72"/>
          <note key="1" vol="197" pan="0" len="12" pos="84"/>
          <note key="49" vol="197" pan="0" len="12" pos="96"/>
          <note key="49" vol="197" pan="0" len="12" pos="108"/>
          <note key="49" vol="197" pan="0" len="12" pos="120"/>
          <note key="49" vol="197" pan="0" len="12" pos="132"/>
          <note key="49" vol="197" pan="0" len="12" pos="144"/>
          <note key="49" vol="197" pan="0" len="12" pos="156"/>
          <note key="49" vol="197" pan="0" len="12" pos="168"/>
          <note key="49" vol="197" pan="0" len="12" pos="180"/>
        </pattern>
        <pattern name="Rhythm Guitar" muted="0" type="1" steps="16" pos="37440">
          <note key="42" vol="197" pan="0" len="24" pos="0"/>
          <note key="0" vol="197" pan="0" len="12" pos="0"/>
          <note key="40" vol="197" pan="0" len="24" pos="24"/>
          <note key="42" vol="197" pan="0" len="24" pos="48"/>
          <note key="49" vol="197" pan="0" len="24" pos="72"/>
          <note key="1" vol="197" pan="0" len="12" pos="84"/>
          <note key="42" vol="197" pan="0" len="12" pos="96"/>
          <note key="42" vol="197" pan="0" len="12" pos="108"/>
          <note key="42" vol="197" pan="0" len="12" pos="120"/>
          <note key="42" vol="197" pan="0" len="12" pos="132"/>
          <note key="42" vol="197" pan="0" len="12" pos="144"/>
          <note key="42" vol="197" pan="0" len="12" pos="156"/>
          <note key="42" vol="197" pan="0" len="12" pos="168"/>
          <note key="42" vol="197" pan="0" len="12" pos="180"/>
        </pattern>
        <pattern name="Rhythm Guitar" muted="0" type="1" steps="16" pos="37632">
          <note key="44" vol="78" pan="0" len="24" pos="0"/>
          <note key="1" vol="78" pan="0" len="24" pos="0"/>
          <note key="47" vol="78" pan="0" len="24" pos="24"/>
          <note key="44" vol="78" pan="0" len="24" pos="48"/>
          <note key="0" vol="78" pan="0" len="24" pos="60"/>
          <note key="51" vol="78" pan="0" len="48" pos="72"/>
          <note key="1" vol="78" pan="0" len="24" pos="108"/>
          <note key="44" vol="78" pan="0" len="24" pos="120"/>
          <note key="47" vol="78" pan="0" len="24" pos="144"/>
          <note key="51" vol="78" pan="0" len="24" pos="168"/>
          <note key="45" vol="78" pan="0" len="12" pos="192"/>
          <note key="45" vol="78" pan="0" len="12" pos="204"/>
          <note key="45" vol="78" pan="0" len="12" pos="216"/>
          <note key="45" vol="78" pan="0" len="12" pos="228"/>
          <note key="45" vol="78" pan="0" len="12" pos="240"/>
          <note key="45" vol="78" pan="0" len="12" pos="252"/>
          <note key="49" vol="78" pan="0" len="12" pos="264"/>
          <note key="49" vol="78" pan="0" len="12" pos="276"/>
          <note key="47" vol="78" pan="0" len="12" pos="288"/>
          <note key="47" vol="78" pan="0" len="12" pos="300"/>
          <note key="47" vol="78" pan="0" len="12" pos="312"/>
          <note key="47" vol="78" pan="0" len="12" pos="324"/>
          <note key="51" vol="78" pan="0" len="12" pos="336"/>
          <note key="51" vol="78" pan="0" len="12" pos="348"/>
          <note key="47" vol="78" pan="0" len="12" pos="360"/>
          <note key="47" vol="78" pan="0" len="12" pos="372"/>
        </pattern>
        <pattern name="" muted="0" type="1" steps="16" pos="38016">
          <note key="38" vol="200" pan="0" len="12" pos="0"/>
          <note key="1" vol="200" pan="0" len="24" pos="0"/>
          <note key="38" vol="200" pan="0" len="12" pos="12"/>
          <note key="38" vol="200" pan="0" len="24" pos="24"/>
          <note key="38" vol="200" pan="0" len="12" pos="48"/>
          <note key="38" vol="200" pan="0" len="12" pos="60"/>
          <note key="38" vol="200" pan="0" len="24" pos="72"/>
          <note key="38" vol="200" pan="0" len="12" pos="96"/>
          <note key="38" vol="200" pan="0" len="12" pos="108"/>
          <note key="38" vol="200" pan="0" len="24" pos="120"/>
          <note key="38" vol="200" pan="0" len="12" pos="144"/>
          <note key="38" vol="200" pan="0" len="12" pos="156"/>
          <note key="38" vol="200" pan="0" len="24" pos="168"/>
          <note key="38" vol="200" pan="0" len="12" pos="192"/>
          <note key="38" vol="200" pan="0" len="12" pos="204"/>
          <note key="38" vol="200" pan="0" len="24" pos="216"/>
          <note key="38" vol="200" pan="0" len="12" pos="240"/>
          <note key="38" vol="200" pan="0" len="12" pos="252"/>
          <note key="38" vol="200" pan="0" len="24" pos="264"/>
          <note key="38" vol="200" pan="0" len="12" pos="288"/>
          <note key="38" vol="200" pan="0" len="12" pos="300"/>
          <note key="38" vol="200" pan="0" len="24" pos="312"/>
          <note key="38" vol="200" pan="0" len="12" pos="336"/>
          <note key="38" vol="200" pan="0" len="12" pos="348"/>
          <note key="38" vol="200" pan="0" len="24" pos="360"/>
          <note key="37" vol="200" pan="0" len="12" pos="384"/>
          <note key="37" vol="200" pan="0" len="12" pos="396"/>
          <note key="37" vol="200" pan="0" len="24" pos="408"/>
          <note key="37" vol="200" pan="0" len="12" pos="432"/>
          <note key="37" vol="200" pan="0" len="12" pos="444"/>
          <note key="37" vol="200" pan="0" len="24" pos="456"/>
          <note key="37" vol="200" pan="0" len="12" pos="480"/>
          <note key="37" vol="200" pan="0" len="12" pos="492"/>
          <note key="37" vol="200" pan="0" len="24" pos="504"/>
          <note key="37" vol="200" pan="0" len="12" pos="528"/>
          <note key="37" vol="200" pan="0" len="12" pos="540"/>
          <note key="37" vol="200" pan="0" len="24" pos="552"/>
          <note key="35" vol="200" pan="0" len="12" pos="576"/>
          <note key="35" vol="200" pan="0" len="12" pos="588"/>
          <note key="35" vol="200" pan="0" len="24" pos="600"/>
          <note key="35" vol="200" pan="0" len="12" pos="624"/>
          <note key="35" vol="200" pan="0" len="12" pos="636"/>
          <note key="35" vol="200" pan="0" len="24" pos="648"/>
          <note key="35" vol="200" pan="0" len="12" pos="672"/>
          <note key="35" vol="200" pan="0" len="12" pos="684"/>
          <note key="35" vol="200" pan="0" len="24" pos="696"/>
          <note key="35" vol="200" pan="0" len="12" pos="720"/>
          <note key="35" vol="200" pan="0" len="12" pos="732"/>
          <note key="35" vol="200" pan="0" len="24" pos="744"/>
        </pattern>
        <pattern name="" muted="0" type="1" steps="16" pos="39168">
          <note key="46" vol="78" pan="0" len="24" pos="0"/>
          <note key="39" vol="78" pan="0" len="24" pos="0"/>
          <note key="0" vol="78" pan="0" len="12" pos="0"/>
          <note key="1" vol="78" pan="0" len="12" pos="12"/>
          <note key="39" vol="78" pan="0" len="12" pos="24"/>
          <note key="39" vol="78" pan="0" len="12" pos="36"/>
          <note key="39" vol="78" pan="0" len="12" pos="48"/>
          <note key="39" vol="78" pan="0" len="12" pos="60"/>
          <note key="39" vol="78" pan="0" len="12" pos="72"/>
          <note key="39" vol="78" pan="0" len="12" pos="84"/>
          <note key="39" vol="78" pan="0" len="12" pos="96"/>
          <note key="39" vol="78" pan="0" len="12" pos="108"/>
          <note key="39" vol="78" pan="0" len="12" pos="120"/>
          <note key="39" vol="78" pan="0" len="12" pos="132"/>
          <note key="39" vol="78" pan="0" len="12" pos="144"/>
          <note key="39" vol="78" pan="0" len="12" pos="156"/>
          <note key="39" vol="78" pan="0" len="12" pos="168"/>
          <note key="39" vol="78" pan="0" len="12" pos="180"/>
          <note key="52" vol="78" pan="0" len="96" pos="192"/>
          <note key="45" vol="78" pan="0" len="96" pos="192"/>
          <note key="0" vol="78" pan="0" len="12" pos="192"/>
          <note key="51" vol="78" pan="0" len="96" pos="288"/>
          <note key="44" vol="78" pan="0" len="96" pos="288"/>
        </pattern>
        <pattern name="" muted="0" type="1" steps="16" pos="39552">
          <note key="44" vol="195" pan="0" len="48" pos="0"/>
          <note key="37" vol="195" pan="0" len="48" pos="0"/>
          <note key="0" vol="195" pan="0" len="36" pos="0"/>
          <note key="1" vol="195" pan="0" len="36" pos="36"/>
          <note key="37" vol="195" pan="0" len="12" pos="48"/>
          <note key="37" vol="195" pan="0" len="12" pos="60"/>
          <note key="37" vol="195" pan="0" len="12" pos="72"/>
          <note key="37" vol="195" pan="0" len="12" pos="84"/>
          <note key="37" vol="195" pan="0" len="12" pos="96"/>
          <note key="37" vol="195" pan="0" len="12" pos="108"/>
          <note key="37" vol="195" pan="0" len="12" pos="120"/>
          <note key="37" vol="195" pan="0" len="12" pos="132"/>
          <note key="37" vol="195" pan="0" len="12" pos="144"/>
          <note key="37" vol="195" pan="0" len="12" pos="156"/>
          <note key="37" vol="195" pan="0" len="12" pos="168"/>
          <note key="37" vol="195" pan="0" len="12" pos="180"/>
          <note key="0" vol="195" pan="0" len="36" pos="180"/>
          <note key="51" vol="195" pan="0" len="48" pos="192"/>
          <note key="44" vol="195" pan="0" len="48" pos="192"/>
          <note key="1" vol="195" pan="0" len="36" pos="216"/>
          <note key="44" vol="195" pan="0" len="12" pos="240"/>
          <note key="44" vol="195" pan="0" len="12" pos="252"/>
          <note key="44" vol="195" pan="0" len="12" pos="264"/>
          <note key="44" vol="195" pan="0" len="12" pos="276"/>
          <note key="44" vol="195" pan="0" len="12" pos="288"/>
          <note key="44" vol="195" pan="0" len="12" pos="300"/>
          <note key="44" vol="195" pan="0" len="12" pos="312"/>
          <note key="44" vol="195" pan="0" len="12" pos="324"/>
          <note key="44" vol="195" pan="0" len="12" pos="336"/>
          <note key="44" vol="195" pan="0" len="12" pos="348"/>
          <note key="44" vol="195" pan="0" len="12" pos="360"/>
          <note key="44" vol="195" pan="0" len="12" pos="372"/>
          <note key="0" vol="195" pan="0" len="36" pos="372"/>
          <note key="52" vol="195" pan="0" len="48" pos="384"/>
          <note key="45" vol="195" pan="0" len="48" pos="384"/>
          <note key="1" vol="195" pan="0" len="36" pos="408"/>
          <note key="45" vol="195" pan="0" len="12" pos="432"/>
          <note key="45" vol="195" pan="0" len="12" pos="444"/>
          <note key="45" vol="195" pan="0" len="12" pos="456"/>
          <note key="45" vol="195" pan="0" len="12" pos="468"/>
          <note key="45" vol="195" pan="0" len="12" pos="480"/>
          <note key="45" vol="195" pan="0" len="12" pos="492"/>
          <note key="45" vol="195" pan="0" len="12" pos="504"/>
          <note key="45" vol="195" pan="0" len="12" pos="516"/>
          <note key="45" vol="195" pan="0" len="12" pos="528"/>
          <note key="45" vol="195" pan="0" len="12" pos="540"/>
          <note key="45" vol="195" pan="0" len="12" pos="552"/>
          <note key="45" vol="195" pan="0" len="12" pos="564"/>
          <note key="0" vol="195" pan="0" len="36" pos="564"/>
          <note key="54" vol="195" pan="0" len="48" pos="576"/>
          <note key="47" vol="195" pan="0" len="48" pos="576"/>
          <note key="1" vol="195" pan="0" len="36" pos="600"/>
          <note key="47" vol="195" pan="0" len="12" pos="624"/>
          <note key="47" vol="195" pan="0" len="12" pos="636"/>
          <note key="47" vol="195" pan="0" len="12" pos="648"/>
          <note key="47" vol="195" pan="0" len="12" pos="660"/>
          <note key="47" vol="195" pan="0" len="12" pos="672"/>
          <note key="47" vol="195" pan="0" len="12" pos="684"/>
          <note key="47" vol="195" pan="0" len="12" pos="696"/>
          <note key="47" vol="195" pan="0" len="12" pos="708"/>
          <note key="47" vol="195" pan="0" len="12" pos="720"/>
          <note key="47" vol="195" pan="0" len="12" pos="732"/>
          <note key="47" vol="195" pan="0" len="12" pos="744"/>
          <note key="47" vol="195" pan="0" len="12" pos="756"/>
          <note key="49" vol="195" pan="0" len="48" pos="768"/>
          <note key="42" vol="195" pan="0" len="48" pos="768"/>
          <note key="0" vol="195" pan="0" len="36" pos="768"/>
          <note key="1" vol="195" pan="0" len="36" pos="792"/>
          <note key="42" vol="195" pan="0" len="12" pos="816"/>
          <note key="42" vol="195" pan="0" len="12" pos="828"/>
          <note key="42" vol="195" pan="0" len="12" pos="840"/>
          <note key="42" vol="195" pan="0" len="12" pos="852"/>
          <note key="42" vol="195" pan="0" len="12" pos="864"/>
          <note key="42" vol="195" pan="0" len="12" pos="876"/>
          <note key="42" vol="195" pan="0" len="12" pos="888"/>
          <note key="42" vol="195" pan="0" len="12" pos="900"/>
          <note key="42" vol="195" pan="0" len="12" pos="912"/>
          <note key="42" vol="195" pan="0" len="12" pos="924"/>
          <note key="42" vol="195" pan="0" len="12" pos="936"/>
          <note key="42" vol="195" pan="0" len="12" pos="948"/>
          <note key="0" vol="195" pan="0" len="36" pos="948"/>
          <note key="51" vol="195" pan="0" len="48" pos="960"/>
          <note key="44" vol="195" pan="0" len="48" pos="960"/>
          <note key="1" vol="195" pan="0" len="36" pos="984"/>
          <note key="44" vol="195" pan="0" len="12" pos="1008"/>
          <note key="44" vol="195" pan="0" len="12" pos="1020"/>
          <note key="44" vol="195" pan="0" len="12" pos="1032"/>
          <note key="44" vol="195" pan="0" len="12" pos="1044"/>
          <note key="44" vol="195" pan="0" len="12" pos="1056"/>
          <note key="44" vol="195" pan="0" len="12" pos="1068"/>
          <note key="44" vol="195" pan="0" len="12" pos="1080"/>
          <note key="44" vol="195" pan="0" len="12" pos="1092"/>
          <note key="44" vol="195" pan="0" len="12" pos="1104"/>
          <note key="44" vol="195" pan="0" len="12" pos="1116"/>
          <note key="44" vol="195" pan="0" len="12" pos="1128"/>
          <note key="44" vol="195" pan="0" len="12" pos="1140"/>
          <note key="0" vol="195" pan="0" len="36" pos="1140"/>
          <note key="52" vol="195" pan="0" len="48" pos="1152"/>
          <note key="45" vol="195" pan="0" len="48" pos="1152"/>
          <note key="1" vol="195" pan="0" len="36" pos="1176"/>
          <note key="45" vol="195" pan="0" len="12" pos="1200"/>
          <note key="45" vol="195" pan="0" len="12" pos="1212"/>
          <note key="45" vol="195" pan="0" len="12" pos="1224"/>
          <note key="45" vol="195" pan="0" len="12" pos="1236"/>
          <note key="45" vol="195" pan="0" len="12" pos="1248"/>
          <note key="45" vol="195" pan="0" len="12" pos="1260"/>
          <note key="45" vol="195" pan="0" len="12" pos="1272"/>
          <note key="45" vol="195" pan="0" len="12" pos="1284"/>
          <note key="45" vol="195" pan="0" len="12" pos="1296"/>
          <note key="45" vol="195" pan="0" len="12" pos="1308"/>
          <note key="45" vol="195" pan="0" len="12" pos="1320"/>
          <note key="45" vol="195" pan="0" len="12" pos="1332"/>
          <note key="0" vol="195" pan="0" len="36" pos="1332"/>
          <note key="54" vol="195" pan="0" len="48" pos="1344"/>
          <note key="47" vol="195" pan="0" len="48" pos="1344"/>
          <note key="1" vol="195" pan="0" len="36" pos="1368"/>
          <note key="47" vol="195" pan="0" len="12" pos="1392"/>
          <note key="47" vol="195" pan="0" len="12" pos="1404"/>
          <note key="47" vol="195" pan="0" len="12" pos="1416"/>
          <note key="47" vol="195" pan="0" len="12" pos="1428"/>
          <note key="48" vol="195" pan="0" len="12" pos="1440"/>
          <note key="48" vol="195" pan="0" len="12" pos="1452"/>
          <note key="48" vol="195" pan="0" len="12" pos="1464"/>
          <note key="1" vol="195" pan="0" len="36" pos="1464"/>
          <note key="48" vol="195" pan="0" len="12" pos="1476"/>
          <note key="48" vol="195" pan="0" len="12" pos="1488"/>
          <note key="48" vol="195" pan="0" len="12" pos="1500"/>
          <note key="48" vol="195" pan="0" len="12" pos="1512"/>
          <note key="48" vol="195" pan="0" len="12" pos="1524"/>
          <note key="0" vol="195" pan="0" len="36" pos="1524"/>
          <note key="44" vol="195" pan="0" len="48" pos="1536"/>
          <note key="37" vol="195" pan="0" len="48" pos="1536"/>
          <note key="1" vol="195" pan="0" len="36" pos="1560"/>
          <note key="37" vol="195" pan="0" len="12" pos="1584"/>
          <note key="37" vol="195" pan="0" len="12" pos="1596"/>
          <note key="37" vol="195" pan="0" len="12" pos="1608"/>
          <note key="37" vol="195" pan="0" len="12" pos="1620"/>
          <note key="37" vol="195" pan="0" len="12" pos="1632"/>
          <note key="37" vol="195" pan="0" len="12" pos="1644"/>
          <note key="37" vol="195" pan="0" len="12" pos="1656"/>
          <note key="37" vol="195" pan="0" len="12" pos="1668"/>
          <note key="37" vol="195" pan="0" len="12" pos="1680"/>
          <note key="37" vol="195" pan="0" len="12" pos="1692"/>
          <note key="37" vol="195" pan="0" len="12" pos="1704"/>
          <note key="37" vol="195" pan="0" len="12" pos="1716"/>
          <note key="0" vol="195" pan="0" len="36" pos="1716"/>
          <note key="54" vol="195" pan="0" len="48" pos="1728"/>
          <note key="47" vol="195" pan="0" len="48" pos="1728"/>
          <note key="1" vol="195" pan="0" len="36" pos="1752"/>
          <note key="47" vol="195" pan="0" len="12" pos="1776"/>
          <note key="47" vol="195" pan="0" len="12" pos="1788"/>
          <note key="47" vol="195" pan="0" len="12" pos="1800"/>
          <note key="47" vol="195" pan="0" len="12" pos="1812"/>
          <note key="47" vol="195" pan="0" len="12" pos="1824"/>
          <note key="47" vol="195" pan="0" len="12" pos="1836"/>
          <note key="47" vol="195" pan="0" len="12" pos="1848"/>
          <note key="47" vol="195" pan="0" len="12" pos="1860"/>
          <note key="47" vol="195" pan="0" len="12" pos="1872"/>
          <note key="47" vol="195" pan="0" len="12" pos="1884"/>
          <note key="47" vol="195" pan="0" len="12" pos="1896"/>
          <note key="47" vol="195" pan="0" len="12" pos="1908"/>
          <note key="0" vol="195" pan="0" len="36" pos="1908"/>
          <note key="54" vol="195" pan="0" len="48" pos="1920"/>
          <note key="46" vol="195" pan="0" len="48" pos="1920"/>
          <note key="1" vol="195" pan="0" len="36" pos="1944"/>
          <note key="46" vol="195" pan="0" len="12" pos="1968"/>
          <note key="46" vol="195" pan="0" len="12" pos="1980"/>
          <note key="46" vol="195" pan="0" len="12" pos="1992"/>
          <note key="46" vol="195" pan="0" len="12" pos="2004"/>
          <note key="46" vol="195" pan="0" len="12" pos="2016"/>
          <note key="46" vol="195" pan="0" len="12" pos="2028"/>
          <note key="46" vol="195" pan="0" len="12" pos="2040"/>
          <note key="46" vol="195" pan="0" len="12" pos="2052"/>
          <note key="46" vol="195" pan="0" len="12" pos="2064"/>
          <note key="46" vol="195" pan="0" len="12" pos="2076"/>
          <note key="46" vol="195" pan="0" len="12" pos="2088"/>
          <note key="46" vol="195" pan="0" len="12" pos="2100"/>
          <note key="0" vol="195" pan="0" len="36" pos="2100"/>
          <note key="49" vol="195" pan="0" len="48" pos="2112"/>
          <note key="42" vol="195" pan="0" len="48" pos="2112"/>
          <note key="1" vol="195" pan="0" len="36" pos="2136"/>
          <note key="42" vol="195" pan="0" len="12" pos="2160"/>
          <note key="42" vol="195" pan="0" len="12" pos="2172"/>
          <note key="42" vol="195" pan="0" len="12" pos="2184"/>
          <note key="42" vol="195" pan="0" len="12" pos="2196"/>
          <note key="0" vol="195" pan="0" len="36" pos="2196"/>
          <note key="47" vol="195" pan="0" len="48" pos="2208"/>
          <note key="40" vol="195" pan="0" len="48" pos="2208"/>
          <note key="1" vol="195" pan="0" len="36" pos="2232"/>
          <note key="40" vol="195" pan="0" len="12" pos="2256"/>
          <note key="40" vol="195" pan="0" len="12" pos="2268"/>
          <note key="40" vol="195" pan="0" len="12" pos="2280"/>
          <note key="40" vol="195" pan="0" len="12" pos="2292"/>
          <note key="0" vol="195" pan="0" len="36" pos="2292"/>
          <note key="45" vol="195" pan="0" len="48" pos="2304"/>
          <note key="38" vol="195" pan="0" len="48" pos="2304"/>
          <note key="1" vol="195" pan="0" len="36" pos="2328"/>
          <note key="38" vol="195" pan="0" len="12" pos="2352"/>
          <note key="38" vol="195" pan="0" len="12" pos="2364"/>
          <note key="38" vol="195" pan="0" len="12" pos="2376"/>
          <note key="38" vol="195" pan="0" len="12" pos="2388"/>
          <note key="38" vol="195" pan="0" len="12" pos="2400"/>
          <note key="38" vol="195" pan="0" len="12" pos="2412"/>
          <note key="38" vol="195" pan="0" len="12" pos="2424"/>
          <note key="38" vol="195" pan="0" len="12" pos="2436"/>
          <note key="38" vol="195" pan="0" len="12" pos="2448"/>
          <note key="38" vol="195" pan="0" len="12" pos="2460"/>
          <note key="38" vol="195" pan="0" len="12" pos="2472"/>
          <note key="38" vol="195" pan="0" len="12" pos="2484"/>
          <note key="0" vol="195" pan="0" len="36" pos="2484"/>
          <note key="52" vol="195" pan="0" len="48" pos="2496"/>
          <note key="45" vol="195" pan="0" len="48" pos="2496"/>
          <note key="1" vol="195" pan="0" len="36" pos="2520"/>
          <note key="45" vol="195" pan="0" len="12" pos="2544"/>
          <note key="45" vol="195" pan="0" len="12" pos="2556"/>
          <note key="45" vol="195" pan="0" len="12" pos="2568"/>
          <note key="45" vol="195" pan="0" len="12" pos="2580"/>
          <note key="45" vol="195" pan="0" len="12" pos="2592"/>
          <note key="45" vol="195" pan="0" len="12" pos="2604"/>
          <note key="45" vol="195" pan="0" len="12" pos="2616"/>
          <note key="45" vol="195" pan="0" len="12" pos="2628"/>
          <note key="45" vol="195" pan="0" len="12" pos="2640"/>
          <note key="45" vol="195" pan="0" len="12" pos="2652"/>
          <note key="45" vol="195" pan="0" len="12" pos="2664"/>
          <note key="45" vol="195" pan="0" len="12" pos="2676"/>
          <note key="42" vol="100" pan="0" len="384" pos="2688"/>
          <note key="35" vol="195" pan="0" len="384" pos="2688"/>
          <note key="0" vol="195" pan="0" len="36" pos="2688"/>
        </pattern>
        <pattern name="Rhythm Guitar" muted="0" type="1" steps="16" pos="43776">
          <note key="0" vol="78" pan="0" len="96" pos="0"/>
          <note key="40" vol="78" pan="0" len="96" pos="96"/>
          <note key="33" vol="78" pan="0" len="96" pos="96"/>
          <note key="42" vol="78" pan="0" len="96" pos="192"/>
          <note key="35" vol="78" pan="0" len="96" pos="192"/>
          <note key="44" vol="78" pan="0" len="96" pos="288"/>
          <note key="37" vol="78" pan="0" len="96" pos="288"/>
        </pattern>
        <pattern name="" muted="0" type="1" steps="16" pos="44160">
          <note key="46" vol="195" pan="0" len="48" pos="0"/>
          <note key="39" vol="195" pan="0" len="48" pos="0"/>
          <note key="0" vol="195" pan="0" len="36" pos="0"/>
          <note key="1" vol="195" pan="0" len="36" pos="36"/>
          <note key="39" vol="195" pan="0" len="12" pos="48"/>
          <note key="39" vol="195" pan="0" len="12" pos="60"/>
          <note key="39" vol="195" pan="0" len="12" pos="72"/>
          <note key="39" vol="195" pan="0" len="12" pos="84"/>
          <note key="39" vol="195" pan="0" len="12" pos="96"/>
          <note key="39" vol="195" pan="0" len="12" pos="108"/>
          <note key="39" vol="195" pan="0" len="12" pos="120"/>
          <note key="39" vol="195" pan="0" len="12" pos="132"/>
          <note key="39" vol="195" pan="0" len="12" pos="144"/>
          <note key="39" vol="195" pan="0" len="12" pos="156"/>
          <note key="39" vol="195" pan="0" len="12" pos="168"/>
          <note key="39" vol="195" pan="0" len="12" pos="180"/>
          <note key="0" vol="195" pan="0" len="36" pos="180"/>
          <note key="53" vol="195" pan="0" len="48" pos="192"/>
          <note key="46" vol="195" pan="0" len="48" pos="192"/>
          <note key="1" vol="195" pan="0" len="36" pos="216"/>
          <note key="46" vol="195" pan="0" len="12" pos="240"/>
          <note key="46" vol="195" pan="0" len="12" pos="252"/>
          <note key="46" vol="195" pan="0" len="12" pos="264"/>
          <note key="46" vol="195" pan="0" len="12" pos="276"/>
          <note key="46" vol="195" pan="0" len="12" pos="288"/>
          <note key="46" vol="195" pan="0" len="12" pos="300"/>
          <note key="46" vol="195" pan="0" len="12" pos="312"/>
          <note key="46" vol="195" pan="0" len="12" pos="324"/>
          <note key="46" vol="195" pan="0" len="12" pos="336"/>
          <note key="46" vol="195" pan="0" len="12" pos="348"/>
          <note key="46" vol="195" pan="0" len="12" pos="360"/>
          <note key="46" vol="195" pan="0" len="12" pos="372"/>
          <note key="0" vol="195" pan="0" len="36" pos="372"/>
          <note key="54" vol="195" pan="0" len="48" pos="384"/>
          <note key="47" vol="195" pan="0" len="48" pos="384"/>
          <note key="1" vol="195" pan="0" len="36" pos="408"/>
          <note key="47" vol="195" pan="0" len="12" pos="432"/>
          <note key="47" vol="195" pan="0" len="12" pos="444"/>
          <note key="47" vol="195" pan="0" len="12" pos="456"/>
          <note key="47" vol="195" pan="0" len="12" pos="468"/>
          <note key="47" vol="195" pan="0" len="12" pos="480"/>
          <note key="47" vol="195" pan="0" len="12" pos="492"/>
          <note key="47" vol="195" pan="0" len="12" pos="504"/>
          <note key="47" vol="195" pan="0" len="12" pos="516"/>
          <note key="47" vol="195" pan="0" len="12" pos="528"/>
          <note key="47" vol="195" pan="0" len="12" pos="540"/>
          <note key="47" vol="195" pan="0" len="12" pos="552"/>
          <note key="47" vol="195" pan="0" len="12" pos="564"/>
          <note key="0" vol="195" pan="0" len="36" pos="564"/>
          <note key="56" vol="195" pan="0" len="48" pos="576"/>
          <note key="49" vol="195" pan="0" len="48" pos="576"/>
          <note key="1" vol="195" pan="0" len="36" pos="600"/>
          <note key="49" vol="195" pan="0" len="12" pos="624"/>
          <note key="49" vol="195" pan="0" len="12" pos="636"/>
          <note key="49" vol="195" pan="0" len="12" pos="648"/>
          <note key="49" vol="195" pan="0" len="12" pos="660"/>
          <note key="49" vol="195" pan="0" len="12" pos="672"/>
          <note key="49" vol="195" pan="0" len="12" pos="684"/>
          <note key="49" vol="195" pan="0" len="12" pos="696"/>
          <note key="49" vol="195" pan="0" len="12" pos="708"/>
          <note key="49" vol="195" pan="0" len="12" pos="720"/>
          <note key="49" vol="195" pan="0" len="12" pos="732"/>
          <note key="49" vol="195" pan="0" len="12" pos="744"/>
          <note key="49" vol="195" pan="0" len="12" pos="756"/>
          <note key="51" vol="195" pan="0" len="48" pos="768"/>
          <note key="44" vol="195" pan="0" len="48" pos="768"/>
          <note key="0" vol="195" pan="0" len="36" pos="768"/>
          <note key="1" vol="195" pan="0" len="36" pos="792"/>
          <note key="44" vol="195" pan="0" len="12" pos="816"/>
          <note key="44" vol="195" pan="0" len="12" pos="828"/>
          <note key="44" vol="195" pan="0" len="12" pos="840"/>
          <note key="44" vol="195" pan="0" len="12" pos="852"/>
          <note key="44" vol="195" pan="0" len="12" pos="864"/>
          <note key="44" vol="195" pan="0" len="12" pos="876"/>
          <note key="44" vol="195" pan="0" len="12" pos="888"/>
          <note key="44" vol="195" pan="0" len="12" pos="900"/>
          <note key="44" vol="195" pan="0" len="12" pos="912"/>
          <note key="44" vol="195" pan="0" len="12" pos="924"/>
          <note key="44" vol="195" pan="0" len="12" pos="936"/>
          <note key="44" vol="195" pan="0" len="12" pos="948"/>
          <note key="0" vol="195" pan="0" len="36" pos="948"/>
          <note key="53" vol="195" pan="0" len="48" pos="960"/>
          <note key="46" vol="195" pan="0" len="48" pos="960"/>
          <note key="1" vol="195" pan="0" len="36" pos="984"/>
          <note key="46" vol="195" pan="0" len="12" pos="1008"/>
          <note key="46" vol="195" pan="0" len="12" pos="1020"/>
          <note key="46" vol="195" pan="0" len="12" pos="1032"/>
          <note key="46" vol="195" pan="0" len="12" pos="1044"/>
          <note key="46" vol="195" pan="0" len="12" pos="1056"/>
          <note key="46" vol="195" pan="0" len="12" pos="1068"/>
          <note key="46" vol="195" pan="0" len="12" pos="1080"/>
          <note key="46" vol="195" pan="0" len="12" pos="1092"/>
          <note key="46" vol="195" pan="0" len="12" pos="1104"/>
          <note key="46" vol="195" pan="0" len="12" pos="1116"/>
          <note key="46" vol="195" pan="0" len="12" pos="1128"/>
          <note key="46" vol="195" pan="0" len="12" pos="1140"/>
          <note key="0" vol="195" pan="0" len="36" pos="1140"/>
          <note key="54" vol="195" pan="0" len="48" pos="1152"/>
          <note key="47" vol="195" pan="0" len="48" pos="1152"/>
          <note key="1" vol="195" pan="0" len="36" pos="1176"/>
          <note key="47" vol="195" pan="0" len="12" pos="1200"/>
          <note key="47" vol="195" pan="0" len="12" pos="1212"/>
          <note key="47" vol="195" pan="0" len="12" pos="1224"/>
          <note key="47" vol="195" pan="0" len="12" pos="1236"/>
          <note key="47" vol="195" pan="0" len="12" pos="1248"/>
          <note key="47" vol="195" pan="0" len="12" pos="1260"/>
          <note key="47" vol="195" pan="0" len="12" pos="1272"/>
          <note key="47" vol="195" pan="0" len="12" pos="1284"/>
          <note key="47" vol="195" pan="0" len="12" pos="1296"/>
          <note key="47" vol="195" pan="0" len="12" pos="1308"/>
          <note key="47" vol="195" pan="0" len="12" pos="1320"/>
          <note key="47" vol="195" pan="0" len="12" pos="1332"/>
          <note key="0" vol="195" pan="0" len="36" pos="1332"/>
          <note key="56" vol="195" pan="0" len="48" pos="1344"/>
          <note key="49" vol="195" pan="0" len="48" pos="1344"/>
          <note key="1" vol="195" pan="0" len="36" pos="1368"/>
          <note key="49" vol="195" pan="0" len="12" pos="1392"/>
          <note key="49" vol="195" pan="0" len="12" pos="1404"/>
          <note key="49" vol="195" pan="0" len="12" pos="1416"/>
          <note key="49" vol="195" pan="0" len="12" pos="1428"/>
          <note key="50" vol="195" pan="0" len="12" pos="1440"/>
          <note key="47" vol="195" pan="0" len="12" pos="1452"/>
          <note key="46" vol="195" pan="0" len="12" pos="1464"/>
          <note key="44" vol="195" pan="0" len="12" pos="1476"/>
          <note key="47" vol="195" pan="0" len="12" pos="1488"/>
          <note key="46" vol="195" pan="0" len="12" pos="1500"/>
          <note key="44" vol="195" pan="0" len="12" pos="1512"/>
          <note key="42" vol="195" pan="0" len="12" pos="1524"/>
          <note key="0" vol="195" pan="0" len="36" pos="1524"/>
          <note key="46" vol="195" pan="0" len="48" pos="1536"/>
          <note key="39" vol="195" pan="0" len="48" pos="1536"/>
          <note key="1" vol="195" pan="0" len="36" pos="1560"/>
          <note key="39" vol="195" pan="0" len="12" pos="1584"/>
          <note key="39" vol="195" pan="0" len="12" pos="1596"/>
          <note key="39" vol="195" pan="0" len="12" pos="1608"/>
          <note key="39" vol="195" pan="0" len="12" pos="1620"/>
          <note key="39" vol="195" pan="0" len="12" pos="1632"/>
          <note key="39" vol="195" pan="0" len="12" pos="1644"/>
          <note key="39" vol="195" pan="0" len="12" pos="1656"/>
          <note key="39" vol="195" pan="0" len="12" pos="1668"/>
          <note key="39" vol="195" pan="0" len="12" pos="1680"/>
          <note key="39" vol="195" pan="0" len="12" pos="1692"/>
          <note key="39" vol="195" pan="0" len="12" pos="1704"/>
          <note key="39" vol="195" pan="0" len="12" pos="1716"/>
          <note key="0" vol="195" pan="0" len="36" pos="1716"/>
          <note key="56" vol="195" pan="0" len="48" pos="1728"/>
          <note key="49" vol="195" pan="0" len="48" pos="1728"/>
          <note key="1" vol="195" pan="0" len="36" pos="1752"/>
          <note key="49" vol="195" pan="0" len="12" pos="1776"/>
          <note key="49" vol="195" pan="0" len="12" pos="1788"/>
          <note key="49" vol="195" pan="0" len="12" pos="1800"/>
          <note key="49" vol="195" pan="0" len="12" pos="1812"/>
          <note key="49" vol="195" pan="0" len="12" pos="1824"/>
          <note key="49" vol="195" pan="0" len="12" pos="1836"/>
          <note key="49" vol="195" pan="0" len="12" pos="1848"/>
          <note key="49" vol="195" pan="0" len="12" pos="1860"/>
          <note key="49" vol="195" pan="0" len="12" pos="1872"/>
          <note key="49" vol="195" pan="0" len="12" pos="1884"/>
          <note key="49" vol="195" pan="0" len="12" pos="1896"/>
          <note key="49" vol="195" pan="0" len="12" pos="1908"/>
          <note key="0" vol="195" pan="0" len="36" pos="1908"/>
          <note key="56" vol="195" pan="0" len="48" pos="1920"/>
          <note key="48" vol="195" pan="0" len="48" pos="1920"/>
          <note key="1" vol="195" pan="0" len="36" pos="1944"/>
          <note key="48" vol="195" pan="0" len="12" pos="1968"/>
          <note key="48" vol="195" pan="0" len="12" pos="1980"/>
          <note key="48" vol="195" pan="0" len="12" pos="1992"/>
          <note key="48" vol="195" pan="0" len="12" pos="2004"/>
          <note key="48" vol="195" pan="0" len="12" pos="2016"/>
          <note key="48" vol="195" pan="0" len="12" pos="2028"/>
          <note key="48" vol="195" pan="0" len="12" pos="2040"/>
          <note key="48" vol="195" pan="0" len="12" pos="2052"/>
          <note key="48" vol="195" pan="0" len="12" pos="2064"/>
          <note key="48" vol="195" pan="0" len="12" pos="2076"/>
          <note key="48" vol="195" pan="0" len="12" pos="2088"/>
          <note key="48" vol="195" pan="0" len="12" pos="2100"/>
          <note key="0" vol="195" pan="0" len="36" pos="2100"/>
          <note key="51" vol="195" pan="0" len="48" pos="2112"/>
          <note key="44" vol="195" pan="0" len="48" pos="2112"/>
          <note key="1" vol="195" pan="0" len="36" pos="2136"/>
          <note key="44" vol="195" pan="0" len="12" pos="2160"/>
          <note key="44" vol="195" pan="0" len="12" pos="2172"/>
          <note key="44" vol="195" pan="0" len="12" pos="2184"/>
          <note key="44" vol="195" pan="0" len="12" pos="2196"/>
          <note key="0" vol="195" pan="0" len="36" pos="2196"/>
          <note key="49" vol="195" pan="0" len="48" pos="2208"/>
          <note key="42" vol="195" pan="0" len="48" pos="2208"/>
          <note key="1" vol="195" pan="0" len="36" pos="2232"/>
          <note key="42" vol="195" pan="0" len="12" pos="2256"/>
          <note key="42" vol="195" pan="0" len="12" pos="2268"/>
          <note key="42" vol="195" pan="0" len="12" pos="2280"/>
          <note key="42" vol="195" pan="0" len="12" pos="2292"/>
          <note key="0" vol="195" pan="0" len="36" pos="2292"/>
          <note key="47" vol="195" pan="0" len="48" pos="2304"/>
          <note key="40" vol="195" pan="0" len="48" pos="2304"/>
          <note key="1" vol="195" pan="0" len="36" pos="2328"/>
          <note key="40" vol="195" pan="0" len="12" pos="2352"/>
          <note key="40" vol="195" pan="0" len="12" pos="2364"/>
          <note key="40" vol="195" pan="0" len="12" pos="2376"/>
          <note key="40" vol="195" pan="0" len="12" pos="2388"/>
          <note key="40" vol="195" pan="0" len="12" pos="2400"/>
          <note key="40" vol="195" pan="0" len="12" pos="2412"/>
          <note key="40" vol="195" pan="0" len="12" pos="2424"/>
          <note key="40" vol="195" pan="0" len="12" pos="2436"/>
          <note key="40" vol="195" pan="0" len="12" pos="2448"/>
          <note key="40" vol="195" pan="0" len="12" pos="2460"/>
          <note key="40" vol="195" pan="0" len="12" pos="2472"/>
          <note key="40" vol="195" pan="0" len="12" pos="2484"/>
          <note key="0" vol="195" pan="0" len="36" pos="2484"/>
          <note key="54" vol="195" pan="0" len="48" pos="2496"/>
          <note key="47" vol="195" pan="0" len="48" pos="2496"/>
          <note key="1" vol="195" pan="0" len="36" pos="2520"/>
          <note key="47" vol="195" pan="0" len="12" pos="2544"/>
          <note key="47" vol="195" pan="0" len="12" pos="2556"/>
          <note key="47" vol="195" pan="0" len="12" pos="2568"/>
          <note key="47" vol="195" pan="0" len="12" pos="2580"/>
          <note key="47" vol="195" pan="0" len="12" pos="2592"/>
          <note key="47" vol="195" pan="0" len="12" pos="2604"/>
          <note key="47" vol="195" pan="0" len="12" pos="2616"/>
          <note key="47" vol="195" pan="0" len="12" pos="2628"/>
          <note key="47" vol="195" pan="0" len="12" pos="2640"/>
          <note key="47" vol="195" pan="0" len="12" pos="2652"/>
          <note key="47" vol="195" pan="0" len="12" pos="2664"/>
          <note key="47" vol="195" pan="0" len="12" pos="2676"/>
          <note key="0" vol="195" pan="0" len="36" pos="2676"/>
          <note key="56" vol="195" pan="0" len="48" pos="2688"/>
          <note key="49" vol="195" pan="0" len="48" pos="2688"/>
          <note key="1" vol="195" pan="0" len="36" pos="2712"/>
          <note key="49" vol="195" pan="0" len="12" pos="2736"/>
          <note key="49" vol="195" pan="0" len="12" pos="2748"/>
          <note key="49" vol="195" pan="0" len="12" pos="2760"/>
          <note key="49" vol="195" pan="0" len="12" pos="2772"/>
          <note key="49" vol="195" pan="0" len="12" pos="2784"/>
          <note key="49" vol="195" pan="0" len="12" pos="2796"/>
          <note key="49" vol="195" pan="0" len="12" pos="2808"/>
          <note key="49" vol="195" pan="0" len="12" pos="2820"/>
          <note key="49" vol="195" pan="0" len="12" pos="2832"/>
          <note key="49" vol="195" pan="0" len="12" pos="2844"/>
          <note key="49" vol="195" pan="0" len="12" pos="2856"/>
          <note key="49" vol="195" pan="0" len="12" pos="2868"/>
          <note key="49" vol="195" pan="0" len="12" pos="2880"/>
          <note key="47" vol="195" pan="0" len="12" pos="2892"/>
          <note key="46" vol="195" pan="0" len="12" pos="2904"/>
          <note key="44" vol="195" pan="0" len="12" pos="2916"/>
          <note key="47" vol="195" pan="0" len="12" pos="2928"/>
          <note key="46" vol="195" pan="0" len="12" pos="2940"/>
          <note key="44" vol="195" pan="0" len="12" pos="2952"/>
          <note key="42" vol="195" pan="0" len="12" pos="2964"/>
          <note key="46" vol="195" pan="0" len="12" pos="2976"/>
          <note key="44" vol="195" pan="0" len="12" pos="2988"/>
          <note key="42" vol="195" pan="0" len="12" pos="3000"/>
          <note key="41" vol="195" pan="0" len="12" pos="3012"/>
          <note key="44" vol="195" pan="0" len="12" pos="3024"/>
          <note key="42" vol="195" pan="0" len="12" pos="3036"/>
          <note key="41" vol="195" pan="0" len="12" pos="3048"/>
          <note key="42" vol="195" pan="0" len="12" pos="3060"/>
        </pattern>
        <pattern name="" muted="0" type="1" steps="16" pos="47232">
          <note key="46" vol="195" pan="0" len="48" pos="0"/>
          <note key="39" vol="195" pan="0" len="48" pos="0"/>
          <note key="0" vol="195" pan="0" len="36" pos="0"/>
          <note key="1" vol="195" pan="0" len="36" pos="36"/>
          <note key="39" vol="195" pan="0" len="12" pos="48"/>
          <note key="39" vol="195" pan="0" len="12" pos="60"/>
          <note key="39" vol="195" pan="0" len="12" pos="72"/>
          <note key="39" vol="195" pan="0" len="12" pos="84"/>
          <note key="39" vol="195" pan="0" len="12" pos="96"/>
          <note key="39" vol="195" pan="0" len="12" pos="108"/>
          <note key="39" vol="195" pan="0" len="12" pos="120"/>
          <note key="39" vol="195" pan="0" len="12" pos="132"/>
          <note key="39" vol="195" pan="0" len="12" pos="144"/>
          <note key="39" vol="195" pan="0" len="12" pos="156"/>
          <note key="39" vol="195" pan="0" len="12" pos="168"/>
          <note key="39" vol="195" pan="0" len="12" pos="180"/>
          <note key="0" vol="195" pan="0" len="36" pos="180"/>
          <note key="53" vol="195" pan="0" len="48" pos="192"/>
          <note key="46" vol="195" pan="0" len="48" pos="192"/>
          <note key="1" vol="195" pan="0" len="36" pos="216"/>
          <note key="46" vol="195" pan="0" len="12" pos="240"/>
          <note key="46" vol="195" pan="0" len="12" pos="252"/>
          <note key="46" vol="195" pan="0" len="12" pos="264"/>
          <note key="46" vol="195" pan="0" len="12" pos="276"/>
          <note key="46" vol="195" pan="0" len="12" pos="288"/>
          <note key="46" vol="195" pan="0" len="12" pos="300"/>
          <note key="46" vol="195" pan="0" len="12" pos="312"/>
          <note key="46" vol="195" pan="0" len="12" pos="324"/>
          <note key="46" vol="195" pan="0" len="12" pos="336"/>
          <note key="46" vol="195" pan="0" len="12" pos="348"/>
          <note key="46" vol="195" pan="0" len="12" pos="360"/>
          <note key="46" vol="195" pan="0" len="12" pos="372"/>
          <note key="0" vol="195" pan="0" len="36" pos="372"/>
          <note key="54" vol="195" pan="0" len="48" pos="384"/>
          <note key="47" vol="195" pan="0" len="48" pos="384"/>
          <note key="1" vol="195" pan="0" len="36" pos="408"/>
          <note key="47" vol="195" pan="0" len="12" pos="432"/>
          <note key="47" vol="195" pan="0" len="12" pos="444"/>
          <note key="47" vol="195" pan="0" len="12" pos="456"/>
          <note key="47" vol="195" pan="0" len="12" pos="468"/>
          <note key="47" vol="195" pan="0" len="12" pos="480"/>
          <note key="47" vol="195" pan="0" len="12" pos="492"/>
          <note key="47" vol="195" pan="0" len="12" pos="504"/>
          <note key="47" vol="195" pan="0" len="12" pos="516"/>
          <note key="47" vol="195" pan="0" len="12" pos="528"/>
          <note key="47" vol="195" pan="0" len="12" pos="540"/>
          <note key="47" vol="195" pan="0" len="12" pos="552"/>
          <note key="47" vol="195" pan="0" len="12" pos="564"/>
          <note key="0" vol="195" pan="0" len="36" pos="564"/>
          <note key="56" vol="195" pan="0" len="48" pos="576"/>
          <note key="49" vol="195" pan="0" len="48" pos="576"/>
          <note key="1" vol="195" pan="0" len="36" pos="600"/>
          <note key="49" vol="195" pan="0" len="12" pos="624"/>
          <note key="49" vol="195" pan="0" len="12" pos="636"/>
          <note key="49" vol="195" pan="0" len="12" pos="648"/>
          <note key="49" vol="195" pan="0" len="12" pos="660"/>
          <note key="49" vol="195" pan="0" len="12" pos="672"/>
          <note key="49" vol="195" pan="0" len="12" pos="684"/>
          <note key="49" vol="195" pan="0" len="12" pos="696"/>
          <note key="49" vol="195" pan="0" len="12" pos="708"/>
          <note key="49" vol="195" pan="0" len="12" pos="720"/>
          <note key="49" vol="195" pan="0" len="12" pos="732"/>
          <note key="49" vol="195" pan="0" len="12" pos="744"/>
          <note key="49" vol="195" pan="0" len="12" pos="756"/>
          <note key="51" vol="195" pan="0" len="48" pos="768"/>
          <note key="44" vol="195" pan="0" len="48" pos="768"/>
          <note key="0" vol="195" pan="0" len="36" pos="768"/>
          <note key="1" vol="195" pan="0" len="36" pos="792"/>
          <note key="44" vol="195" pan="0" len="12" pos="816"/>
          <note key="44" vol="195" pan="0" len="12" pos="828"/>
          <note key="44" vol="195" pan="0" len="12" pos="840"/>
          <note key="44" vol="195" pan="0" len="12" pos="852"/>
          <note key="44" vol="195" pan="0" len="12" pos="864"/>
          <note key="44" vol="195" pan="0" len="12" pos="876"/>
          <note key="44" vol="195" pan="0" len="12" pos="888"/>
          <note key="44" vol="195" pan="0" len="12" pos="900"/>
          <note key="44" vol="195" pan="0" len="12" pos="912"/>
          <note key="44" vol="195" pan="0" len="12" pos="924"/>
          <note key="44" vol="195" pan="0" len="12" pos="936"/>
          <note key="44" vol="195" pan="0" len="12" pos="948"/>
          <note key="0" vol="195" pan="0" len="36" pos="948"/>
          <note key="53" vol="195" pan="0" len="48" pos="960"/>
          <note key="46" vol="195" pan="0" len="48" pos="960"/>
          <note key="1" vol="195" pan="0" len="36" pos="984"/>
          <note key="46" vol="195" pan="0" len="12" pos="1008"/>
          <note key="46" vol="195" pan="0" len="12" pos="1020"/>
          <note key="46" vol="195" pan="0" len="12" pos="1032"/>
          <note key="46" vol="195" pan="0" len="12" pos="1044"/>
          <note key="46" vol="195" pan="0" len="12" pos="1056"/>
          <note key="46" vol="195" pan="0" len="12" pos="1068"/>
          <note key="46" vol="195" pan="0" len="12" pos="1080"/>
          <note key="46" vol="195" pan="0" len="12" pos="1092"/>
          <note key="46" vol="195" pan="0" len="12" pos="1104"/>
          <note key="46" vol="195" pan="0" len="12" pos="1116"/>
          <note key="46" vol="195" pan="0" len="12" pos="1128"/>
          <note key="46" vol="195" pan="0" len="12" pos="1140"/>
          <note key="0" vol="195" pan="0" len="36" pos="1140"/>
          <note key="54" vol="195" pan="0" len="48" pos="1152"/>
          <note key="47" vol="195" pan="0" len="48" pos="1152"/>
          <note key="1" vol="195" pan="0" len="36" pos="1176"/>
          <note key="47" vol="195" pan="0" len="12" pos="1200"/>
          <note key="47" vol="195" pan="0" len="12" pos="1212"/>
          <note key="47" vol="195" pan="0" len="12" pos="1224"/>
          <note key="47" vol="195" pan="0" len="12" pos="1236"/>
          <note key="47" vol="195" pan="0" len="12" pos="1248"/>
          <note key="47" vol="195" pan="0" len="12" pos="1260"/>
          <note key="47" vol="195" pan="0" len="12" pos="1272"/>
          <note key="47" vol="195" pan="0" len="12" pos="1284"/>
          <note key="47" vol="195" pan="0" len="12" pos="1296"/>
          <note key="47" vol="195" pan="0" len="12" pos="1308"/>
          <note key="47" vol="195" pan="0" len="12" pos="1320"/>
          <note key="47" vol="195" pan="0" len="12" pos="1332"/>
          <note key="0" vol="195" pan="0" len="36" pos="1332"/>
          <note key="56" vol="195" pan="0" len="48" pos="1344"/>
          <note key="49" vol="195" pan="0" len="48" pos="1344"/>
          <note key="1" vol="195" pan="0" len="36" pos="1368"/>
          <note key="49" vol="195" pan="0" len="12" pos="1392"/>
          <note key="49" vol="195" pan="0" len="12" pos="1404"/>
          <note key="49" vol="195" pan="0" len="12" pos="1416"/>
          <note key="49" vol="195" pan="0" len="12" pos="1428"/>
          <note key="50" vol="195" pan="0" len="12" pos="1440"/>
          <note key="50" vol="195" pan="0" len="12" pos="1452"/>
          <note key="50" vol="195" pan="0" len="12" pos="1464"/>
          <note key="1" vol="195" pan="0" len="36" pos="1464"/>
          <note key="50" vol="195" pan="0" len="12" pos="1476"/>
          <note key="50" vol="195" pan="0" len="12" pos="1488"/>
          <note key="50" vol="195" pan="0" len="12" pos="1500"/>
          <note key="50" vol="195" pan="0" len="12" pos="1512"/>
          <note key="50" vol="195" pan="0" len="12" pos="1524"/>
          <note key="0" vol="195" pan="0" len="36" pos="1524"/>
          <note key="46" vol="195" pan="0" len="48" pos="1536"/>
          <note key="39" vol="195" pan="0" len="48" pos="1536"/>
          <note key="1" vol="195" pan="0" len="36" pos="1560"/>
          <note key="39" vol="195" pan="0" len="12" pos="1584"/>
          <note key="39" vol="195" pan="0" len="12" pos="1596"/>
          <note key="39" vol="195" pan="0" len="12" pos="1608"/>
          <note key="39" vol="195" pan="0" len="12" pos="1620"/>
          <note key="39" vol="195" pan="0" len="12" pos="1632"/>
          <note key="39" vol="195" pan="0" len="12" pos="1644"/>
          <note key="39" vol="195" pan="0" len="12" pos="1656"/>
          <note key="39" vol="195" pan="0" len="12" pos="1668"/>
          <note key="39" vol="195" pan="0" len="12" pos="1680"/>
          <note key="39" vol="195" pan="0" len="12" pos="1692"/>
          <note key="39" vol="195" pan="0" len="12" pos="1704"/>
          <note key="39" vol="195" pan="0" len="12" pos="1716"/>
          <note key="0" vol="195" pan="0" len="36" pos="1716"/>
          <note key="56" vol="195" pan="0" len="48" pos="1728"/>
          <note key="49" vol="195" pan="0" len="48" pos="1728"/>
          <note key="1" vol="195" pan="0" len="36" pos="1752"/>
          <note key="49" vol="195" pan="0" len="12" pos="1776"/>
          <note key="49" vol="195" pan="0" len="12" pos="1788"/>
          <note key="49" vol="195" pan="0" len="12" pos="1800"/>
          <note key="49" vol="195" pan="0" len="12" pos="1812"/>
          <note key="49" vol="195" pan="0" len="12" pos="1824"/>
          <note key="49" vol="195" pan="0" len="12" pos="1836"/>
          <note key="49" vol="195" pan="0" len="12" pos="1848"/>
          <note key="49" vol="195" pan="0" len="12" pos="1860"/>
          <note key="49" vol="195" pan="0" len="12" pos="1872"/>
          <note key="49" vol="195" pan="0" len="12" pos="1884"/>
          <note key="49" vol="195" pan="0" len="12" pos="1896"/>
          <note key="49" vol="195" pan="0" len="12" pos="1908"/>
          <note key="0" vol="195" pan="0" len="36" pos="1908"/>
          <note key="56" vol="195" pan="0" len="48" pos="1920"/>
          <note key="48" vol="195" pan="0" len="48" pos="1920"/>
          <note key="1" vol="195" pan="0" len="36" pos="1944"/>
          <note key="48" vol="195" pan="0" len="12" pos="1968"/>
          <note key="48" vol="195" pan="0" len="12" pos="1980"/>
          <note key="48" vol="195" pan="0" len="12" pos="1992"/>
          <note key="48" vol="195" pan="0" len="12" pos="2004"/>
          <note key="48" vol="195" pan="0" len="12" pos="2016"/>
          <note key="48" vol="195" pan="0" len="12" pos="2028"/>
          <note key="48" vol="195" pan="0" len="12" pos="2040"/>
          <note key="48" vol="195" pan="0" len="12" pos="2052"/>
          <note key="48" vol="195" pan="0" len="12" pos="2064"/>
          <note key="48" vol="195" pan="0" len="12" pos="2076"/>
          <note key="48" vol="195" pan="0" len="12" pos="2088"/>
          <note key="48" vol="195" pan="0" len="12" pos="2100"/>
          <note key="0" vol="195" pan="0" len="36" pos="2100"/>
          <note key="51" vol="195" pan="0" len="48" pos="2112"/>
          <note key="44" vol="195" pan="0" len="48" pos="2112"/>
          <note key="1" vol="195" pan="0" len="36" pos="2136"/>
          <note key="44" vol="195" pan="0" len="12" pos="2160"/>
          <note key="44" vol="195" pan="0" len="12" pos="2172"/>
          <note key="44" vol="195" pan="0" len="12" pos="2184"/>
          <note key="44" vol="195" pan="0" len="12" pos="2196"/>
          <note key="0" vol="195" pan="0" len="36" pos="2196"/>
          <note key="49" vol="195" pan="0" len="48" pos="2208"/>
          <note key="42" vol="195" pan="0" len="48" pos="2208"/>
          <note key="1" vol="195" pan="0" len="36" pos="2232"/>
          <note key="42" vol="195" pan="0" len="12" pos="2256"/>
          <note key="42" vol="195" pan="0" len="12" pos="2268"/>
          <note key="42" vol="195" pan="0" len="12" pos="2280"/>
          <note key="42" vol="195" pan="0" len="12" pos="2292"/>
          <note key="0" vol="195" pan="0" len="36" pos="2292"/>
          <note key="47" vol="195" pan="0" len="48" pos="2304"/>
          <note key="40" vol="195" pan="0" len="48" pos="2304"/>
          <note key="1" vol="195" pan="0" len="36" pos="2328"/>
          <note key="40" vol="195" pan="0" len="12" pos="2352"/>
          <note key="40" vol="195" pan="0" len="12" pos="2364"/>
          <note key="40" vol="195" pan="0" len="12" pos="2376"/>
          <note key="40" vol="195" pan="0" len="12" pos="2388"/>
          <note key="40" vol="195" pan="0" len="12" pos="2400"/>
          <note key="40" vol="195" pan="0" len="12" pos="2412"/>
          <note key="40" vol="195" pan="0" len="12" pos="2424"/>
          <note key="40" vol="195" pan="0" len="12" pos="2436"/>
          <note key="40" vol="195" pan="0" len="12" pos="2448"/>
          <note key="40" vol="195" pan="0" len="12" pos="2460"/>
          <note key="40" vol="195" pan="0" len="12" pos="2472"/>
          <note key="40" vol="195" pan="0" len="12" pos="2484"/>
          <note key="0" vol="195" pan="0" len="36" pos="2484"/>
          <note key="54" vol="195" pan="0" len="48" pos="2496"/>
          <note key="47" vol="195" pan="0" len="48" pos="2496"/>
          <note key="1" vol="195" pan="0" len="36" pos="2520"/>
          <note key="47" vol="195" pan="0" len="12" pos="2544"/>
          <note key="47" vol="195" pan="0" len="12" pos="2556"/>
          <note key="47" vol="195" pan="0" len="12" pos="2568"/>
          <note key="47" vol="195" pan="0" len="12" pos="2580"/>
          <note key="47" vol="195" pan="0" len="12" pos="2592"/>
          <note key="47" vol="195" pan="0" len="12" pos="2604"/>
          <note key="47" vol="195" pan="0" len="12" pos="2616"/>
          <note key="47" vol="195" pan="0" len="12" pos="2628"/>
          <note key="47" vol="195" pan="0" len="12" pos="2640"/>
          <note key="47" vol="195" pan="0" len="12" pos="2652"/>
          <note key="47" vol="195" pan="0" len="12" pos="2664"/>
          <note key="47" vol="195" pan="0" len="12" pos="2676"/>
          <note key="0" vol="195" pan="0" len="36" pos="2676"/>
          <note key="56" vol="195" pan="0" len="48" pos="2688"/>
          <note key="49" vol="195" pan="0" len="48" pos="2688"/>
          <note key="1" vol="195" pan="0" len="36" pos="2712"/>
          <note key="49" vol="195" pan="0" len="12" pos="2736"/>
          <note key="49" vol="195" pan="0" len="12" pos="2748"/>
          <note key="49" vol="195" pan="0" len="12" pos="2760"/>
          <note key="49" vol="195" pan="0" len="12" pos="2772"/>
          <note key="49" vol="195" pan="0" len="12" pos="2784"/>
          <note key="49" vol="195" pan="0" len="12" pos="2796"/>
          <note key="49" vol="195" pan="0" len="12" pos="2808"/>
          <note key="49" vol="195" pan="0" len="12" pos="2820"/>
          <note key="49" vol="195" pan="0" len="12" pos="2832"/>
          <note key="49" vol="195" pan="0" len="12" pos="2844"/>
          <note key="49" vol="195" pan="0" len="12" pos="2856"/>
          <note key="49" vol="195" pan="0" len="12" pos="2868"/>
          <note key="53" vol="195" pan="0" len="96" pos="2880"/>
          <note key="46" vol="195" pan="0" len="96" pos="2880"/>
          <note key="0" vol="195" pan="0" len="36" pos="2880"/>
          <note key="56" vol="195" pan="0" len="96" pos="2976"/>
          <note key="49" vol="195" pan="0" len="96" pos="2976"/>
        </pattern>
      </track>
      <track name="Lead Guitar S" muted="0" type="0" solo="0">
        <instrumenttrack vol="200" pitch="0" pitchrange="1" basenote="57" pan="0" fxch="12" usemasterpitch="1">
          <instrument name="carlapatchbay">
            <carlapatchbay>
              <CARLA-PROJECT VERSION="2.0">
                <EngineSettings>
                  <ForceStereo>false</ForceStereo>
                  <PreferPluginBridges>false</PreferPluginBridges>
                  <PreferUiBridges>true</PreferUiBridges>
                  <UIsAlwaysOnTop>false</UIsAlwaysOnTop>
                  <MaxParameters>200</MaxParameters>
                  <UIBridgesTimeout>4000</UIBridgesTimeout>
                  <LADSPA_PATH>/home/huggypie/.ladspa:/usr/lib/ladspa:/usr/local/lib/ladspa</LADSPA_PATH>
                  <DSSI_PATH>/home/huggypie/.dssi:/usr/lib/dssi:/usr/local/lib/dssi</DSSI_PATH>
                  <LV2_PATH>/home/huggypie/.lv2:/usr/lib/lv2:/usr/local/lib/lv2</LV2_PATH>
                  <VST2_PATH>/home/huggypie/.vst:/home/huggypie/.wine/drive_c/Program Files (x86)/VstPlugins:/home/huggypie/.wine/drive_c/Program Files/VstPlugins:/usr/lib/lxvst:/usr/lib/vst:/usr/local/lib/lxvst:/usr/local/lib/vst/home/huggypie/.lxvst:/home/huggypie/vst</VST2_PATH>
                  <VST3_PATH>/home/huggypie/.vst3:/home/huggypie/.wine/drive_c/Program Files (x86)/Common Files/VST3:/home/huggypie/.wine/drive_c/Program Files/Common Files/VST3:/usr/lib/vst3:/usr/local/lib/vst3</VST3_PATH>
                  <SF2_PATH>/home/huggypie/.sounds/sf2/home/huggypie/.sounds/sf3:/usr/share/soundfonts:/usr/share/sounds/sf2:/usr/share/sounds/sf3</SF2_PATH>
                  <SFZ_PATH>/home/huggypie/.sounds/sfz:/home/huggypie/samples:/usr/share/sounds/sfz</SFZ_PATH>
                </EngineSettings>
                <!-- sfizz -->
                <Plugin>
                  <Info>
                    <Type>LV2</Type>
                    <Name>sfizz</Name>
                    <URI>http://sfztools.github.io/sfizz</URI>
                  </Info>
                  <Data>
                    <Active>Yes</Active>
                    <ControlChannel>1</ControlChannel>
                    <Options>0x3f0</Options>
                    <Parameter>
                      <Index>0</Index>
                      <Name>Volume</Name>
                      <Symbol>volume</Symbol>
                      <Value>0</Value>
                    </Parameter>
                    <Parameter>
                      <Index>1</Index>
                      <Name>Polyphony</Name>
                      <Symbol>num_voices</Symbol>
                      <Value>64</Value>
                    </Parameter>
                    <Parameter>
                      <Index>2</Index>
                      <Name>Internal oversampling factor</Name>
                      <Symbol>oversampling</Symbol>
                      <Value>1</Value>
                    </Parameter>
                    <Parameter>
                      <Index>3</Index>
                      <Name>Preload size</Name>
                      <Symbol>preload_size</Symbol>
                      <Value>8192</Value>
                    </Parameter>
                    <Parameter>
                      <Index>5</Index>
                      <Name>Scala root key</Name>
                      <Symbol>scala_root_key</Symbol>
                      <Value>60</Value>
                    </Parameter>
                    <Parameter>
                      <Index>6</Index>
                      <Name>Tuning frequency</Name>
                      <Symbol>tuning_frequency</Symbol>
                      <Value>440</Value>
                    </Parameter>
                    <Parameter>
                      <Index>7</Index>
                      <Name>Stretched tuning</Name>
                      <Symbol>stretched_tuning</Symbol>
                      <Value>0</Value>
                    </Parameter>
                    <CustomData>
                      <Type>http://lv2plug.in/ns/ext/atom#Path</Type>
                      <Key>http://sfztools.github.io/sfizz:sfzfile</Key>
                      <Value>../samples/fakeguitar/_fakeguitar1_integrated.sfz</Value>
                    </CustomData>
                    <CustomData>
                      <Type>http://lv2plug.in/ns/ext/atom#Int</Type>
                      <Key>http://sfztools.github.io/sfizz:numvoices</Key>
                      <Value>QAAAAA==</Value>
                    </CustomData>
                    <CustomData>
                      <Type>http://lv2plug.in/ns/ext/atom#Int</Type>
                      <Key>http://sfztools.github.io/sfizz:preload_size</Key>
                      <Value>ACAAAA==</Value>
                    </CustomData>
                    <CustomData>
                      <Type>http://lv2plug.in/ns/ext/atom#Int</Type>
                      <Key>http://sfztools.github.io/sfizz:oversampling</Key>
                      <Value>AQAAAA==</Value>
                    </CustomData>
                    <CustomData>
                      <Type>http://lv2plug.in/ns/ext/atom#Path</Type>
                      <Key>http://sfztools.github.io/sfizz:tuningfile</Key>
                      <Value>../../../usr/lib/lv2/sfizz.lv2//Contents/Resources/DefaultScale.scl</Value>
                    </CustomData>
                  </Data>
                </Plugin>
                <Patchbay>
                  <Connection>
                    <Source>Midi Input:Capture 1</Source>
                    <Target>sfizz:events-in</Target>
                  </Connection>
                  <Connection>
                    <Source>sfizz:Left Output</Source>
                    <Target>Audio Output:Left</Target>
                  </Connection>
                  <Connection>
                    <Source>sfizz:Right Output</Source>
                    <Target>Audio Output:Right</Target>
                  </Connection>
                </Patchbay>
              </CARLA-PROJECT>
            </carlapatchbay>
          </instrument>
          <eldata ftype="0" fres="0.5" fwet="0" fcut="14000">
            <elvol dec="0.5" sustain="0.5" pdel="0" lpdel="0" rel="0.1" lspd="0.1" userwavefile="" hold="0.5" lamt="0" lspd_numerator="4" lspd_syncmode="0" lshp="0" amt="0" x100="0" latt="0" lspd_denominator="4" ctlenvamt="0" att="0"/>
            <elcut dec="0.5" sustain="0.5" pdel="0" lpdel="0" rel="0.1" lspd="0.1" userwavefile="" hold="0.5" lamt="0" lspd_numerator="4" lspd_syncmode="0" lshp="0" amt="0" x100="0" latt="0" lspd_denominator="4" ctlenvamt="0" att="0"/>
            <elres dec="0.5" sustain="0.5" pdel="0" lpdel="0" rel="0.1" lspd="0.1" userwavefile="" hold="0.5" lamt="0" lspd_numerator="4" lspd_syncmode="0" lshp="0" amt="0" x100="0" latt="0" lspd_denominator="4" ctlenvamt="0" att="0"/>
          </eldata>
          <chordcreator chord="0" chord-enabled="0" chordrange="1"/>
          <arpeggiator arprange="1" arptime_denominator="4" arpgate="100" arptime_syncmode="0" arp="0" arpmode="0" arpmiss="0" arpdir="0" arptime_numerator="4" arp-enabled="0" arpcycle="0" arpskip="0" arptime="200"/>
          <midiport outputchannel="1" inputcontroller="0" outputcontroller="0" basevelocity="63" fixedinputvelocity="-1" fixedoutputvelocity="-1" outputprogram="1" readable="0" writable="0" fixedoutputnote="-1" inputchannel="0"/>
          <fxchain numofeffects="0" enabled="0"/>
        </instrumenttrack>
        <pattern name="" muted="0" type="1" steps="16" pos="3456">
          <note key="73" vol="78" pan="0" len="144" pos="0"/>
          <note key="0" vol="78" pan="0" len="144" pos="0"/>
          <note key="76" vol="78" pan="0" len="48" pos="144"/>
          <note key="75" vol="78" pan="0" len="144" pos="192"/>
          <note key="80" vol="78" pan="0" len="48" pos="336"/>
          <note key="80" vol="78" pan="0" len="144" pos="384"/>
          <note key="78" vol="78" pan="0" len="24" pos="528"/>
          <note key="76" vol="78" pan="0" len="24" pos="552"/>
          <note key="75" vol="78" pan="0" len="48" pos="576"/>
          <note key="76" vol="78" pan="0" len="48" pos="624"/>
          <note key="71" vol="78" pan="0" len="48" pos="672"/>
          <note key="68" vol="78" pan="0" len="48" pos="720"/>
          <note key="69" vol="78" pan="0" len="144" pos="768"/>
          <note key="76" vol="78" pan="0" len="48" pos="912"/>
          <note key="75" vol="78" pan="0" len="144" pos="960"/>
          <note key="78" vol="78" pan="0" len="48" pos="1104"/>
          <note key="76" vol="197" pan="0" len="96" pos="1152"/>
          <note key="80" vol="197" pan="0" len="48" pos="1248"/>
          <note key="76" vol="197" pan="0" len="48" pos="1296"/>
          <note key="78" vol="197" pan="0" len="48" pos="1344"/>
          <note key="83" vol="197" pan="0" len="48" pos="1392"/>
          <note key="80" vol="197" pan="0" len="48" pos="1440"/>
          <note key="87" vol="197" pan="0" len="48" pos="1488"/>
        </pattern>
        <pattern name="" muted="0" type="1" steps="16" pos="6144">
          <note key="69" vol="78" pan="0" len="120" pos="384"/>
          <note key="68" vol="78" pan="0" len="24" pos="504"/>
          <note key="69" vol="78" pan="0" len="24" pos="528"/>
          <note key="71" vol="78" pan="0" len="24" pos="552"/>
          <note key="73" vol="78" pan="0" len="72" pos="576"/>
          <note key="71" vol="78" pan="0" len="72" pos="648"/>
          <note key="69" vol="78" pan="0" len="48" pos="720"/>
          <note key="68" vol="78" pan="0" len="24" pos="768"/>
          <note key="69" vol="78" pan="0" len="24" pos="792"/>
          <note key="68" vol="78" pan="0" len="24" pos="816"/>
          <note key="64" vol="78" pan="0" len="48" pos="840"/>
          <note key="64" vol="78" pan="0" len="24" pos="888"/>
          <note key="66" vol="78" pan="0" len="24" pos="912"/>
          <note key="68" vol="78" pan="0" len="24" pos="936"/>
          <note key="66" vol="78" pan="0" len="96" pos="960"/>
        </pattern>
        <pattern name="" muted="0" type="1" steps="16" pos="4992">
          <note key="61" vol="78" pan="0" len="24" pos="0"/>
          <note key="63" vol="78" pan="0" len="24" pos="24"/>
          <note key="61" vol="78" pan="0" len="24" pos="48"/>
          <note key="68" vol="78" pan="0" len="48" pos="72"/>
          <note key="61" vol="78" pan="0" len="24" pos="120"/>
          <note key="64" vol="78" pan="0" len="24" pos="144"/>
          <note key="68" vol="78" pan="0" len="24" pos="168"/>
          <note key="71" vol="78" pan="0" len="24" pos="192"/>
          <note key="69" vol="78" pan="0" len="24" pos="216"/>
          <note key="68" vol="78" pan="0" len="24" pos="240"/>
          <note key="69" vol="78" pan="0" len="48" pos="264"/>
          <note key="68" vol="78" pan="0" len="24" pos="312"/>
          <note key="66" vol="78" pan="0" len="24" pos="336"/>
          <note key="68" vol="78" pan="0" len="24" pos="360"/>
        </pattern>
        <pattern name="" muted="0" type="1" steps="16" pos="5760">
          <note key="61" vol="78" pan="0" len="24" pos="0"/>
          <note key="0" vol="100" pan="0" len="48" pos="0"/>
          <note key="63" vol="78" pan="0" len="24" pos="24"/>
          <note key="61" vol="78" pan="0" len="24" pos="48"/>
          <note key="68" vol="78" pan="0" len="48" pos="72"/>
          <note key="61" vol="78" pan="0" len="24" pos="120"/>
          <note key="64" vol="78" pan="0" len="24" pos="144"/>
          <note key="68" vol="78" pan="0" len="24" pos="168"/>
          <note key="71" vol="78" pan="0" len="24" pos="192"/>
          <note key="73" vol="78" pan="0" len="24" pos="216"/>
          <note key="75" vol="78" pan="0" len="24" pos="240"/>
          <note key="73" vol="78" pan="0" len="48" pos="264"/>
          <note key="75" vol="78" pan="0" len="24" pos="312"/>
          <note key="76" vol="78" pan="0" len="24" pos="336"/>
          <note key="78" vol="78" pan="0" len="24" pos="360"/>
        </pattern>
        <pattern name="" muted="0" type="1" steps="16" pos="12672">
          <note key="61" vol="78" pan="0" len="24" pos="0"/>
          <note key="1" vol="197" pan="0" len="12" pos="0"/>
          <note key="63" vol="78" pan="0" len="24" pos="24"/>
          <note key="61" vol="78" pan="0" len="24" pos="48"/>
          <note key="0" vol="197" pan="0" len="12" pos="60"/>
          <note key="68" vol="78" pan="0" len="48" pos="72"/>
          <note key="61" vol="78" pan="0" len="24" pos="120"/>
          <note key="64" vol="78" pan="0" len="24" pos="144"/>
          <note key="68" vol="78" pan="0" len="24" pos="168"/>
          <note key="71" vol="78" pan="0" len="24" pos="192"/>
          <note key="69" vol="78" pan="0" len="24" pos="216"/>
          <note key="68" vol="78" pan="0" len="24" pos="240"/>
          <note key="69" vol="78" pan="0" len="48" pos="264"/>
          <note key="68" vol="78" pan="0" len="24" pos="312"/>
          <note key="66" vol="78" pan="0" len="24" pos="336"/>
          <note key="68" vol="78" pan="0" len="24" pos="360"/>
        </pattern>
        <pattern name="" muted="0" type="1" steps="16" pos="13440">
          <note key="61" vol="78" pan="0" len="24" pos="0"/>
          <note key="63" vol="78" pan="0" len="24" pos="24"/>
          <note key="61" vol="78" pan="0" len="24" pos="48"/>
          <note key="68" vol="78" pan="0" len="48" pos="72"/>
          <note key="61" vol="78" pan="0" len="24" pos="120"/>
          <note key="64" vol="78" pan="0" len="24" pos="144"/>
          <note key="68" vol="78" pan="0" len="24" pos="168"/>
          <note key="71" vol="78" pan="0" len="24" pos="192"/>
          <note key="73" vol="78" pan="0" len="24" pos="216"/>
          <note key="75" vol="78" pan="0" len="24" pos="240"/>
          <note key="73" vol="78" pan="0" len="48" pos="264"/>
          <note key="75" vol="78" pan="0" len="24" pos="312"/>
          <note key="76" vol="78" pan="0" len="24" pos="336"/>
          <note key="78" vol="78" pan="0" len="24" pos="360"/>
        </pattern>
        <pattern name="" muted="0" type="1" steps="16" pos="13824">
          <note key="69" vol="78" pan="0" len="120" pos="384"/>
          <note key="68" vol="78" pan="0" len="24" pos="504"/>
          <note key="69" vol="78" pan="0" len="24" pos="528"/>
          <note key="71" vol="78" pan="0" len="24" pos="552"/>
          <note key="73" vol="78" pan="0" len="72" pos="576"/>
          <note key="71" vol="78" pan="0" len="72" pos="648"/>
          <note key="69" vol="78" pan="0" len="48" pos="720"/>
          <note key="68" vol="78" pan="0" len="24" pos="768"/>
          <note key="69" vol="78" pan="0" len="24" pos="792"/>
          <note key="68" vol="78" pan="0" len="24" pos="816"/>
          <note key="64" vol="78" pan="0" len="48" pos="840"/>
          <note key="64" vol="78" pan="0" len="24" pos="888"/>
          <note key="66" vol="78" pan="0" len="24" pos="912"/>
          <note key="68" vol="78" pan="0" len="24" pos="936"/>
          <note key="66" vol="78" pan="0" len="96" pos="960"/>
        </pattern>
        <pattern name="" muted="0" type="1" steps="16" pos="11904">
          <note key="68" vol="78" pan="0" len="12" pos="0"/>
          <note key="0" vol="78" pan="0" len="24" pos="0"/>
          <note key="64" vol="78" pan="0" len="12" pos="12"/>
          <note key="61" vol="78" pan="0" len="12" pos="24"/>
          <note key="1" vol="78" pan="0" len="24" pos="24"/>
          <note key="56" vol="78" pan="0" len="12" pos="36"/>
          <note key="61" vol="78" pan="0" len="12" pos="48"/>
          <note key="64" vol="78" pan="0" len="12" pos="60"/>
          <note key="73" vol="78" pan="0" len="12" pos="72"/>
          <note key="0" vol="78" pan="0" len="24" pos="72"/>
          <note key="69" vol="78" pan="0" len="12" pos="84"/>
          <note key="68" vol="78" pan="0" len="12" pos="96"/>
          <note key="1" vol="78" pan="0" len="24" pos="96"/>
          <note key="64" vol="78" pan="0" len="12" pos="108"/>
          <note key="68" vol="78" pan="0" len="12" pos="120"/>
          <note key="73" vol="78" pan="0" len="12" pos="132"/>
          <note key="76" vol="78" pan="0" len="12" pos="144"/>
          <note key="0" vol="78" pan="0" len="24" pos="144"/>
          <note key="71" vol="78" pan="0" len="12" pos="156"/>
          <note key="68" vol="78" pan="0" len="12" pos="168"/>
          <note key="1" vol="78" pan="0" len="24" pos="168"/>
          <note key="64" vol="78" pan="0" len="12" pos="180"/>
          <note key="68" vol="78" pan="0" len="12" pos="192"/>
          <note key="71" vol="78" pan="0" len="12" pos="204"/>
          <note key="81" vol="78" pan="0" len="12" pos="216"/>
          <note key="0" vol="78" pan="0" len="24" pos="216"/>
          <note key="78" vol="78" pan="0" len="12" pos="228"/>
          <note key="74" vol="78" pan="0" len="12" pos="240"/>
          <note key="1" vol="78" pan="0" len="24" pos="240"/>
          <note key="69" vol="78" pan="0" len="12" pos="252"/>
          <note key="66" vol="78" pan="0" len="12" pos="264"/>
          <note key="69" vol="78" pan="0" len="12" pos="276"/>
          <note key="73" vol="78" pan="0" len="12" pos="288"/>
          <note key="0" vol="78" pan="0" len="24" pos="288"/>
          <note key="69" vol="78" pan="0" len="12" pos="300"/>
          <note key="66" vol="78" pan="0" len="12" pos="312"/>
          <note key="1" vol="78" pan="0" len="24" pos="312"/>
          <note key="61" vol="78" pan="0" len="12" pos="324"/>
          <note key="68" vol="78" pan="0" len="12" pos="336"/>
          <note key="0" vol="78" pan="0" len="24" pos="336"/>
          <note key="64" vol="78" pan="0" len="12" pos="348"/>
          <note key="61" vol="78" pan="0" len="12" pos="360"/>
          <note key="1" vol="78" pan="0" len="24" pos="360"/>
          <note key="56" vol="78" pan="0" len="12" pos="372"/>
          <note key="69" vol="78" pan="0" len="12" pos="384"/>
          <note key="0" vol="78" pan="0" len="24" pos="384"/>
          <note key="66" vol="78" pan="0" len="12" pos="396"/>
          <note key="57" vol="78" pan="0" len="12" pos="408"/>
          <note key="1" vol="78" pan="0" len="24" pos="408"/>
          <note key="54" vol="78" pan="0" len="12" pos="420"/>
          <note key="57" vol="78" pan="0" len="12" pos="432"/>
          <note key="62" vol="78" pan="0" len="12" pos="444"/>
          <note key="74" vol="78" pan="0" len="12" pos="456"/>
          <note key="0" vol="78" pan="0" len="24" pos="456"/>
          <note key="69" vol="78" pan="0" len="12" pos="468"/>
          <note key="66" vol="78" pan="0" len="12" pos="480"/>
          <note key="1" vol="78" pan="0" len="24" pos="480"/>
          <note key="61" vol="78" pan="0" len="12" pos="492"/>
          <note key="57" vol="78" pan="0" len="12" pos="504"/>
          <note key="54" vol="78" pan="0" len="12" pos="516"/>
          <note key="78" vol="78" pan="0" len="12" pos="528"/>
          <note key="0" vol="78" pan="0" len="24" pos="528"/>
          <note key="74" vol="78" pan="0" len="12" pos="540"/>
          <note key="69" vol="78" pan="0" len="12" pos="552"/>
          <note key="1" vol="78" pan="0" len="24" pos="552"/>
          <note key="66" vol="78" pan="0" len="12" pos="564"/>
          <note key="69" vol="78" pan="0" len="12" pos="576"/>
          <note key="74" vol="78" pan="0" len="12" pos="588"/>
          <note key="81" vol="78" pan="0" len="12" pos="600"/>
          <note key="0" vol="78" pan="0" len="24" pos="600"/>
          <note key="78" vol="78" pan="0" len="12" pos="612"/>
          <note key="73" vol="78" pan="0" len="12" pos="624"/>
          <note key="1" vol="78" pan="0" len="24" pos="624"/>
          <note key="69" vol="78" pan="0" len="12" pos="636"/>
          <note key="66" vol="78" pan="0" len="12" pos="648"/>
          <note key="61" vol="78" pan="0" len="12" pos="660"/>
          <note key="74" vol="78" pan="0" len="12" pos="672"/>
          <note key="0" vol="78" pan="0" len="24" pos="672"/>
          <note key="71" vol="78" pan="0" len="12" pos="684"/>
          <note key="66" vol="78" pan="0" len="12" pos="696"/>
          <note key="1" vol="78" pan="0" len="24" pos="696"/>
          <note key="61" vol="78" pan="0" len="12" pos="708"/>
          <note key="69" vol="78" pan="0" len="12" pos="720"/>
          <note key="0" vol="78" pan="0" len="24" pos="720"/>
          <note key="66" vol="78" pan="0" len="12" pos="732"/>
          <note key="61" vol="78" pan="0" len="12" pos="744"/>
          <note key="1" vol="78" pan="0" len="24" pos="744"/>
          <note key="57" vol="78" pan="0" len="12" pos="756"/>
        </pattern>
        <pattern name="Lead Guitar S" muted="0" type="1" steps="16" pos="28800">
          <note key="56" vol="200" pan="0" len="24" pos="0"/>
          <note key="1" vol="200" pan="0" len="24" pos="0"/>
          <note key="61" vol="200" pan="0" len="24" pos="24"/>
          <note key="0" vol="200" pan="0" len="24" pos="36"/>
          <note key="63" vol="200" pan="0" len="24" pos="48"/>
          <note key="1" vol="200" pan="0" len="24" pos="60"/>
          <note key="56" vol="200" pan="0" len="24" pos="72"/>
          <note key="0" vol="200" pan="0" len="24" pos="84"/>
          <note key="64" vol="200" pan="0" len="24" pos="96"/>
          <note key="1" vol="200" pan="0" len="24" pos="108"/>
          <note key="63" vol="200" pan="0" len="24" pos="120"/>
          <note key="59" vol="200" pan="0" len="24" pos="144"/>
          <note key="61" vol="200" pan="0" len="24" pos="168"/>
          <note key="0" vol="200" pan="0" len="48" pos="180"/>
          <note key="63" vol="200" pan="0" len="48" pos="192"/>
          <note key="64" vol="200" pan="0" len="12" pos="240"/>
          <note key="63" vol="200" pan="0" len="12" pos="252"/>
          <note key="61" vol="200" pan="0" len="48" pos="264"/>
          <note key="1" vol="200" pan="0" len="12" pos="300"/>
          <note key="56" vol="200" pan="0" len="12" pos="312"/>
          <note key="59" vol="200" pan="0" len="12" pos="324"/>
          <note key="61" vol="200" pan="0" len="12" pos="336"/>
          <note key="59" vol="200" pan="0" len="12" pos="348"/>
          <note key="54" vol="200" pan="0" len="12" pos="360"/>
          <note key="56" vol="200" pan="0" len="12" pos="372"/>
          <note key="54" vol="131" pan="0" len="12" pos="384"/>
          <note key="2" vol="131" pan="0" len="12" pos="384"/>
          <note key="56" vol="131" pan="0" len="12" pos="396"/>
          <note key="54" vol="131" pan="0" len="12" pos="408"/>
          <note key="52" vol="131" pan="0" len="12" pos="420"/>
          <note key="54" vol="131" pan="0" len="12" pos="432"/>
          <note key="52" vol="131" pan="0" len="12" pos="444"/>
          <note key="49" vol="131" pan="0" len="12" pos="456"/>
          <note key="47" vol="131" pan="0" len="12" pos="468"/>
          <note key="49" vol="131" pan="0" len="12" pos="480"/>
          <note key="52" vol="131" pan="0" len="12" pos="492"/>
          <note key="54" vol="131" pan="0" len="12" pos="504"/>
          <note key="52" vol="131" pan="0" len="12" pos="516"/>
          <note key="54" vol="131" pan="0" len="12" pos="528"/>
          <note key="56" vol="131" pan="0" len="12" pos="540"/>
          <note key="59" vol="131" pan="0" len="12" pos="552"/>
          <note key="61" vol="131" pan="0" len="12" pos="564"/>
          <note key="63" vol="131" pan="0" len="12" pos="576"/>
          <note key="61" vol="131" pan="0" len="12" pos="588"/>
          <note key="63" vol="131" pan="0" len="12" pos="600"/>
          <note key="64" vol="131" pan="0" len="12" pos="612"/>
          <note key="1" vol="131" pan="0" len="12" pos="612"/>
          <note key="66" vol="131" pan="0" len="12" pos="624"/>
          <note key="64" vol="131" pan="0" len="12" pos="636"/>
          <note key="66" vol="131" pan="0" len="12" pos="648"/>
          <note key="68" vol="131" pan="0" len="12" pos="660"/>
          <note key="69" vol="131" pan="0" len="12" pos="672"/>
          <note key="68" vol="131" pan="0" len="12" pos="684"/>
          <note key="69" vol="131" pan="0" len="12" pos="696"/>
          <note key="71" vol="131" pan="0" len="12" pos="708"/>
          <note key="0" vol="131" pan="0" len="48" pos="708"/>
          <note key="73" vol="131" pan="0" len="48" pos="720"/>
        </pattern>
        <pattern name="Lead Guitar S" muted="0" type="1" steps="16" pos="29568">
          <note key="80" vol="200" pan="0" len="12" pos="0"/>
          <note key="78" vol="200" pan="0" len="12" pos="12"/>
          <note key="76" vol="200" pan="0" len="12" pos="24"/>
          <note key="73" vol="200" pan="0" len="12" pos="36"/>
          <note key="71" vol="200" pan="0" len="12" pos="48"/>
          <note key="73" vol="200" pan="0" len="12" pos="60"/>
          <note key="78" vol="200" pan="0" len="12" pos="72"/>
          <note key="76" vol="200" pan="0" len="12" pos="84"/>
          <note key="73" vol="200" pan="0" len="12" pos="96"/>
          <note key="76" vol="200" pan="0" len="12" pos="108"/>
          <note key="80" vol="200" pan="0" len="12" pos="120"/>
          <note key="78" vol="200" pan="0" len="12" pos="132"/>
          <note key="76" vol="200" pan="0" len="12" pos="144"/>
          <note key="73" vol="200" pan="0" len="12" pos="156"/>
          <note key="76" vol="200" pan="0" len="12" pos="168"/>
          <note key="78" vol="200" pan="0" len="12" pos="180"/>
        </pattern>
        <pattern name="" muted="0" type="1" steps="16" pos="29760">
          <note key="80" vol="200" pan="0" len="12" pos="0"/>
          <note key="78" vol="200" pan="0" len="12" pos="12"/>
          <note key="76" vol="200" pan="0" len="12" pos="24"/>
          <note key="73" vol="200" pan="0" len="12" pos="36"/>
          <note key="71" vol="200" pan="0" len="12" pos="48"/>
          <note key="73" vol="200" pan="0" len="12" pos="60"/>
          <note key="78" vol="200" pan="0" len="12" pos="72"/>
          <note key="76" vol="200" pan="0" len="12" pos="84"/>
          <note key="73" vol="200" pan="0" len="12" pos="96"/>
          <note key="76" vol="200" pan="0" len="12" pos="108"/>
          <note key="83" vol="200" pan="0" len="12" pos="120"/>
          <note key="80" vol="200" pan="0" len="12" pos="132"/>
          <note key="78" vol="200" pan="0" len="12" pos="144"/>
          <note key="80" vol="200" pan="0" len="12" pos="156"/>
          <note key="78" vol="200" pan="0" len="12" pos="168"/>
          <note key="76" vol="200" pan="0" len="12" pos="180"/>
        </pattern>
        <pattern name="Lead Guitar S" muted="0" type="1" steps="16" pos="29952">
          <note key="85" vol="197" pan="0" len="12" pos="0"/>
          <note key="0" vol="197" pan="0" len="48" pos="0"/>
          <note key="83" vol="197" pan="0" len="12" pos="12"/>
          <note key="80" vol="197" pan="0" len="12" pos="24"/>
          <note key="78" vol="197" pan="0" len="12" pos="36"/>
          <note key="83" vol="197" pan="0" len="12" pos="48"/>
          <note key="80" vol="197" pan="0" len="12" pos="60"/>
          <note key="78" vol="197" pan="0" len="12" pos="72"/>
          <note key="76" vol="197" pan="0" len="12" pos="84"/>
          <note key="80" vol="197" pan="0" len="12" pos="96"/>
          <note key="78" vol="197" pan="0" len="12" pos="108"/>
          <note key="76" vol="197" pan="0" len="12" pos="120"/>
          <note key="73" vol="197" pan="0" len="12" pos="132"/>
          <note key="76" vol="197" pan="0" len="12" pos="144"/>
          <note key="78" vol="197" pan="0" len="12" pos="156"/>
          <note key="80" vol="197" pan="0" len="12" pos="168"/>
          <note key="83" vol="197" pan="0" len="12" pos="180"/>
          <note key="80" vol="197" pan="0" len="12" pos="192"/>
          <note key="78" vol="197" pan="0" len="12" pos="204"/>
          <note key="76" vol="197" pan="0" len="12" pos="216"/>
          <note key="73" vol="197" pan="0" len="12" pos="228"/>
          <note key="76" vol="197" pan="0" len="12" pos="240"/>
          <note key="1" vol="197" pan="0" len="48" pos="240"/>
          <note key="73" vol="197" pan="0" len="12" pos="252"/>
          <note key="71" vol="197" pan="0" len="12" pos="264"/>
          <note key="73" vol="197" pan="0" len="12" pos="276"/>
          <note key="71" vol="197" pan="0" len="12" pos="288"/>
          <note key="68" vol="197" pan="0" len="12" pos="300"/>
          <note key="66" vol="197" pan="0" len="12" pos="312"/>
          <note key="68" vol="197" pan="0" len="12" pos="324"/>
          <note key="61" vol="197" pan="0" len="48" pos="336"/>
          <note key="0" vol="197" pan="0" len="48" pos="336"/>
        </pattern>
        <pattern name="Lead Guitar S" muted="0" type="0" steps="16" pos="31488"/>
        <pattern name="Lead Guitar S" muted="0" type="1" steps="16" pos="36480">
          <note key="61" vol="200" pan="0" len="12" pos="0"/>
          <note key="1" vol="200" pan="0" len="12" pos="0"/>
          <note key="68" vol="200" pan="0" len="12" pos="12"/>
          <note key="66" vol="200" pan="0" len="12" pos="24"/>
          <note key="68" vol="200" pan="0" len="12" pos="36"/>
          <note key="61" vol="200" pan="0" len="12" pos="48"/>
          <note key="68" vol="200" pan="0" len="12" pos="60"/>
          <note key="66" vol="200" pan="0" len="12" pos="72"/>
          <note key="68" vol="200" pan="0" len="12" pos="84"/>
          <note key="71" vol="200" pan="0" len="12" pos="96"/>
          <note key="0" vol="200" pan="0" len="12" pos="96"/>
          <note key="68" vol="200" pan="0" len="12" pos="108"/>
          <note key="2" vol="200" pan="0" len="12" pos="108"/>
          <note key="66" vol="200" pan="0" len="12" pos="120"/>
          <note key="1" vol="200" pan="0" len="12" pos="120"/>
          <note key="64" vol="200" pan="0" len="12" pos="132"/>
          <note key="66" vol="200" pan="0" len="12" pos="144"/>
          <note key="64" vol="200" pan="0" len="12" pos="156"/>
          <note key="66" vol="200" pan="0" len="12" pos="168"/>
          <note key="68" vol="200" pan="0" len="12" pos="180"/>
          <note key="71" vol="200" pan="0" len="12" pos="192"/>
          <note key="68" vol="200" pan="0" len="12" pos="204"/>
          <note key="66" vol="200" pan="0" len="12" pos="216"/>
          <note key="64" vol="200" pan="0" len="12" pos="228"/>
          <note key="66" vol="200" pan="0" len="12" pos="240"/>
          <note key="68" vol="200" pan="0" len="12" pos="252"/>
          <note key="71" vol="200" pan="0" len="6" pos="264"/>
          <note key="0" vol="200" pan="0" len="12" pos="264"/>
          <note key="73" vol="200" pan="0" len="42" pos="270"/>
          <note key="2" vol="200" pan="0" len="12" pos="276"/>
          <note key="73" vol="200" pan="0" len="12" pos="312"/>
          <note key="1" vol="200" pan="0" len="12" pos="312"/>
          <note key="75" vol="200" pan="0" len="12" pos="324"/>
          <note key="76" vol="200" pan="0" len="12" pos="336"/>
          <note key="0" vol="200" pan="0" len="12" pos="336"/>
          <note key="75" vol="200" pan="0" len="12" pos="348"/>
          <note key="73" vol="200" pan="0" len="12" pos="360"/>
          <note key="1" vol="200" pan="0" len="12" pos="360"/>
          <note key="71" vol="200" pan="0" len="12" pos="372"/>
          <note key="76" vol="197" pan="0" len="12" pos="384"/>
          <note key="0" vol="197" pan="0" len="12" pos="384"/>
          <note key="64" vol="197" pan="0" len="12" pos="396"/>
          <note key="2" vol="197" pan="0" len="12" pos="396"/>
          <note key="64" vol="197" pan="0" len="12" pos="408"/>
          <note key="0" vol="197" pan="0" len="12" pos="408"/>
          <note key="75" vol="197" pan="0" len="12" pos="420"/>
          <note key="0" vol="197" pan="0" len="12" pos="420"/>
          <note key="64" vol="197" pan="0" len="12" pos="432"/>
          <note key="2" vol="197" pan="0" len="12" pos="432"/>
          <note key="64" vol="197" pan="0" len="12" pos="444"/>
          <note key="0" vol="197" pan="0" len="12" pos="444"/>
          <note key="76" vol="197" pan="0" len="12" pos="456"/>
          <note key="0" vol="197" pan="0" len="12" pos="456"/>
          <note key="64" vol="197" pan="0" len="12" pos="468"/>
          <note key="2" vol="197" pan="0" len="12" pos="468"/>
          <note key="64" vol="197" pan="0" len="12" pos="480"/>
          <note key="0" vol="197" pan="0" len="12" pos="480"/>
          <note key="75" vol="197" pan="0" len="12" pos="492"/>
          <note key="0" vol="197" pan="0" len="12" pos="492"/>
          <note key="64" vol="197" pan="0" len="12" pos="504"/>
          <note key="2" vol="197" pan="0" len="12" pos="504"/>
          <note key="64" vol="197" pan="0" len="12" pos="516"/>
          <note key="0" vol="197" pan="0" len="12" pos="516"/>
          <note key="76" vol="197" pan="0" len="12" pos="528"/>
          <note key="0" vol="197" pan="0" len="12" pos="528"/>
          <note key="64" vol="197" pan="0" len="12" pos="540"/>
          <note key="2" vol="197" pan="0" len="12" pos="540"/>
          <note key="75" vol="197" pan="0" len="12" pos="552"/>
          <note key="0" vol="197" pan="0" len="12" pos="552"/>
          <note key="64" vol="197" pan="0" len="12" pos="564"/>
          <note key="2" vol="197" pan="0" len="12" pos="564"/>
        </pattern>
        <pattern name="Lead Guitar S" muted="0" type="1" steps="16" pos="28032">
          <note key="61" vol="200" pan="0" len="48" pos="0"/>
          <note key="0" vol="200" pan="0" len="36" pos="0"/>
          <note key="1" vol="200" pan="0" len="36" pos="36"/>
          <note key="57" vol="200" pan="0" len="48" pos="48"/>
          <note key="59" vol="200" pan="0" len="48" pos="96"/>
          <note key="61" vol="200" pan="0" len="48" pos="144"/>
          <note key="0" vol="200" pan="0" len="36" pos="180"/>
          <note key="63" vol="200" pan="0" len="48" pos="192"/>
          <note key="64" vol="200" pan="0" len="48" pos="240"/>
          <note key="63" vol="200" pan="0" len="48" pos="288"/>
          <note key="59" vol="200" pan="0" len="48" pos="336"/>
          <note key="61" vol="200" pan="0" len="48" pos="384"/>
          <note key="59" vol="200" pan="0" len="48" pos="432"/>
          <note key="61" vol="200" pan="0" len="48" pos="480"/>
          <note key="63" vol="200" pan="0" len="48" pos="528"/>
          <note key="68" vol="200" pan="0" len="192" pos="576"/>
        </pattern>
        <pattern name="Lead Guitar S" muted="0" type="1" steps="16" pos="38016">
          <note key="69" vol="100" pan="0" len="12" pos="0"/>
          <note key="1" vol="100" pan="0" len="12" pos="0"/>
          <note key="74" vol="100" pan="0" len="12" pos="12"/>
          <note key="78" vol="100" pan="0" len="12" pos="24"/>
          <note key="81" vol="100" pan="0" len="12" pos="36"/>
          <note key="0" vol="100" pan="0" len="12" pos="36"/>
          <note key="86" vol="100" pan="0" len="12" pos="48"/>
          <note key="81" vol="100" pan="0" len="12" pos="60"/>
          <note key="78" vol="100" pan="0" len="12" pos="72"/>
          <note key="1" vol="100" pan="0" len="12" pos="72"/>
          <note key="74" vol="100" pan="0" len="12" pos="84"/>
          <note key="81" vol="100" pan="0" len="12" pos="96"/>
          <note key="0" vol="100" pan="0" len="12" pos="96"/>
          <note key="80" vol="100" pan="0" len="12" pos="108"/>
          <note key="78" vol="100" pan="0" len="12" pos="120"/>
          <note key="1" vol="100" pan="0" len="12" pos="120"/>
          <note key="74" vol="100" pan="0" len="12" pos="132"/>
          <note key="83" vol="100" pan="0" len="12" pos="144"/>
          <note key="0" vol="100" pan="0" len="12" pos="144"/>
          <note key="81" vol="100" pan="0" len="12" pos="156"/>
          <note key="80" vol="100" pan="0" len="12" pos="168"/>
          <note key="1" vol="100" pan="0" len="12" pos="168"/>
          <note key="78" vol="100" pan="0" len="12" pos="180"/>
          <note key="83" vol="121" pan="0" len="12" pos="192"/>
          <note key="85" vol="121" pan="0" len="12" pos="204"/>
          <note key="83" vol="121" pan="0" len="12" pos="216"/>
          <note key="81" vol="121" pan="0" len="12" pos="228"/>
          <note key="80" vol="121" pan="0" len="12" pos="240"/>
          <note key="81" vol="121" pan="0" len="12" pos="252"/>
          <note key="80" vol="121" pan="0" len="12" pos="264"/>
          <note key="78" vol="121" pan="0" len="12" pos="276"/>
          <note key="83" vol="121" pan="0" len="12" pos="288"/>
          <note key="0" vol="121" pan="0" len="24" pos="288"/>
          <note key="85" vol="121" pan="0" len="12" pos="300"/>
          <note key="88" vol="121" pan="0" len="48" pos="312"/>
          <note key="85" vol="121" pan="0" len="24" pos="360"/>
          <note key="81" vol="100" pan="0" len="24" pos="384"/>
          <note key="80" vol="100" pan="0" len="24" pos="408"/>
          <note key="76" vol="100" pan="0" len="24" pos="432"/>
          <note key="81" vol="100" pan="0" len="24" pos="456"/>
          <note key="80" vol="100" pan="0" len="24" pos="480"/>
          <note key="78" vol="100" pan="0" len="24" pos="504"/>
          <note key="76" vol="100" pan="0" len="24" pos="528"/>
          <note key="80" vol="100" pan="0" len="24" pos="552"/>
          <note key="78" vol="100" pan="0" len="12" pos="576"/>
          <note key="0" vol="100" pan="0" len="12" pos="576"/>
          <note key="80" vol="100" pan="0" len="12" pos="588"/>
          <note key="2" vol="100" pan="0" len="12" pos="588"/>
          <note key="78" vol="100" pan="0" len="48" pos="600"/>
          <note key="1" vol="100" pan="0" len="12" pos="636"/>
          <note key="75" vol="100" pan="0" len="12" pos="648"/>
          <note key="76" vol="100" pan="0" len="12" pos="660"/>
          <note key="78" vol="100" pan="0" len="12" pos="672"/>
          <note key="0" vol="100" pan="0" len="12" pos="672"/>
          <note key="76" vol="100" pan="0" len="12" pos="684"/>
          <note key="75" vol="100" pan="0" len="12" pos="696"/>
          <note key="76" vol="100" pan="0" len="12" pos="708"/>
          <note key="1" vol="100" pan="0" len="12" pos="708"/>
          <note key="75" vol="100" pan="0" len="12" pos="720"/>
          <note key="73" vol="100" pan="0" len="12" pos="732"/>
          <note key="71" vol="100" pan="0" len="12" pos="744"/>
          <note key="69" vol="100" pan="0" len="12" pos="756"/>
        </pattern>
        <pattern name="" muted="0" type="1" steps="16" pos="39552">
          <note key="73" vol="78" pan="0" len="12" pos="0"/>
          <note key="0" vol="78" pan="0" len="48" pos="0"/>
          <note key="68" vol="78" pan="0" len="12" pos="12"/>
          <note key="64" vol="78" pan="0" len="12" pos="24"/>
          <note key="61" vol="78" pan="0" len="12" pos="36"/>
          <note key="56" vol="78" pan="0" len="12" pos="48"/>
          <note key="1" vol="78" pan="0" len="12" pos="48"/>
          <note key="52" vol="78" pan="0" len="12" pos="60"/>
          <note key="56" vol="78" pan="0" len="12" pos="72"/>
          <note key="61" vol="78" pan="0" len="12" pos="84"/>
          <note key="64" vol="78" pan="0" len="12" pos="96"/>
          <note key="68" vol="78" pan="0" len="12" pos="108"/>
          <note key="76" vol="78" pan="0" len="12" pos="120"/>
          <note key="0" vol="78" pan="0" len="12" pos="120"/>
          <note key="73" vol="78" pan="0" len="12" pos="132"/>
          <note key="68" vol="78" pan="0" len="12" pos="144"/>
          <note key="64" vol="78" pan="0" len="12" pos="156"/>
          <note key="1" vol="78" pan="0" len="12" pos="156"/>
          <note key="68" vol="78" pan="0" len="12" pos="168"/>
          <note key="73" vol="78" pan="0" len="12" pos="180"/>
          <note key="75" vol="78" pan="0" len="12" pos="192"/>
          <note key="0" vol="78" pan="0" len="12" pos="192"/>
          <note key="71" vol="78" pan="0" len="12" pos="204"/>
          <note key="68" vol="78" pan="0" len="12" pos="216"/>
          <note key="63" vol="78" pan="0" len="12" pos="228"/>
          <note key="1" vol="78" pan="0" len="12" pos="228"/>
          <note key="59" vol="78" pan="0" len="12" pos="240"/>
          <note key="56" vol="78" pan="0" len="12" pos="252"/>
          <note key="59" vol="78" pan="0" len="12" pos="264"/>
          <note key="63" vol="78" pan="0" len="12" pos="276"/>
          <note key="68" vol="78" pan="0" len="12" pos="288"/>
          <note key="71" vol="78" pan="0" len="12" pos="300"/>
          <note key="80" vol="78" pan="0" len="12" pos="312"/>
          <note key="0" vol="78" pan="0" len="12" pos="312"/>
          <note key="75" vol="78" pan="0" len="12" pos="324"/>
          <note key="71" vol="78" pan="0" len="12" pos="336"/>
          <note key="68" vol="78" pan="0" len="12" pos="348"/>
          <note key="1" vol="78" pan="0" len="12" pos="348"/>
          <note key="71" vol="78" pan="0" len="12" pos="360"/>
          <note key="75" vol="78" pan="0" len="12" pos="372"/>
          <note key="80" vol="78" pan="0" len="24" pos="384"/>
          <note key="0" vol="78" pan="0" len="12" pos="384"/>
          <note key="76" vol="78" pan="0" len="24" pos="408"/>
          <note key="69" vol="78" pan="0" len="24" pos="432"/>
          <note key="76" vol="78" pan="0" len="24" pos="456"/>
          <note key="75" vol="78" pan="0" len="24" pos="480"/>
          <note key="69" vol="78" pan="0" len="24" pos="504"/>
          <note key="78" vol="78" pan="0" len="24" pos="528"/>
          <note key="76" vol="78" pan="0" len="24" pos="552"/>
          <note key="75" vol="78" pan="0" len="48" pos="576"/>
          <note key="76" vol="78" pan="0" len="48" pos="624"/>
          <note key="76" vol="78" pan="0" len="12" pos="672"/>
          <note key="78" vol="78" pan="0" len="12" pos="684"/>
          <note key="76" vol="78" pan="0" len="12" pos="696"/>
          <note key="75" vol="78" pan="0" len="12" pos="708"/>
          <note key="76" vol="78" pan="0" len="12" pos="720"/>
          <note key="75" vol="78" pan="0" len="12" pos="732"/>
          <note key="73" vol="78" pan="0" len="12" pos="744"/>
          <note key="71" vol="78" pan="0" len="12" pos="756"/>
          <note key="1" vol="78" pan="0" len="12" pos="768"/>
          <note key="0" vol="78" pan="0" len="12" pos="960"/>
        </pattern>
        <pattern name="" muted="0" type="1" steps="16" pos="46272">
          <note key="0" vol="78" pan="0" len="72" pos="0"/>
          <note key="63" vol="78" pan="0" len="120" pos="960"/>
          <note key="0" vol="78" pan="0" len="24" pos="960"/>
          <note key="1" vol="78" pan="0" len="24" pos="1056"/>
          <note key="58" vol="78" pan="0" len="24" pos="1080"/>
          <note key="0" vol="78" pan="0" len="24" pos="1092"/>
          <note key="66" vol="78" pan="0" len="24" pos="1104"/>
          <note key="58" vol="78" pan="0" len="24" pos="1128"/>
          <note key="1" vol="78" pan="0" len="24" pos="1128"/>
          <note key="65" vol="78" pan="0" len="120" pos="1152"/>
          <note key="0" vol="78" pan="0" len="24" pos="1152"/>
          <note key="1" vol="78" pan="0" len="12" pos="1260"/>
          <note key="65" vol="78" pan="0" len="12" pos="1272"/>
          <note key="66" vol="78" pan="0" len="12" pos="1284"/>
          <note key="70" vol="78" pan="0" len="12" pos="1296"/>
          <note key="0" vol="78" pan="0" len="12" pos="1296"/>
          <note key="66" vol="78" pan="0" len="12" pos="1308"/>
          <note key="65" vol="78" pan="0" len="12" pos="1320"/>
          <note key="1" vol="78" pan="0" len="12" pos="1320"/>
          <note key="66" vol="78" pan="0" len="12" pos="1332"/>
          <note key="70" vol="78" pan="0" len="144" pos="1344"/>
          <note key="0" vol="78" pan="0" len="12" pos="1344"/>
          <note key="68" vol="78" pan="0" len="24" pos="1488"/>
          <note key="66" vol="78" pan="0" len="24" pos="1512"/>
          <note key="65" vol="78" pan="0" len="48" pos="1536"/>
          <note key="66" vol="78" pan="0" len="48" pos="1584"/>
          <note key="0" vol="78" pan="0" len="12" pos="1620"/>
          <note key="61" vol="78" pan="0" len="12" pos="1632"/>
          <note key="1" vol="78" pan="0" len="12" pos="1632"/>
          <note key="61" vol="78" pan="0" len="12" pos="1644"/>
          <note key="61" vol="78" pan="0" len="12" pos="1656"/>
          <note key="61" vol="78" pan="0" len="12" pos="1668"/>
          <note key="58" vol="78" pan="0" len="12" pos="1680"/>
          <note key="0" vol="78" pan="0" len="12" pos="1680"/>
          <note key="54" vol="78" pan="0" len="12" pos="1692"/>
          <note key="1" vol="78" pan="0" len="12" pos="1692"/>
          <note key="56" vol="78" pan="0" len="12" pos="1704"/>
          <note key="58" vol="78" pan="0" len="12" pos="1716"/>
          <note key="59" vol="78" pan="0" len="96" pos="1728"/>
          <note key="0" vol="78" pan="0" len="12" pos="1728"/>
          <note key="63" vol="78" pan="0" len="48" pos="1824"/>
          <note key="66" vol="78" pan="0" len="48" pos="1872"/>
          <note key="66" vol="78" pan="0" len="96" pos="1920"/>
          <note key="65" vol="78" pan="0" len="12" pos="2016"/>
          <note key="0" vol="78" pan="0" len="12" pos="2016"/>
          <note key="58" vol="78" pan="0" len="12" pos="2028"/>
          <note key="2" vol="78" pan="0" len="12" pos="2028"/>
          <note key="58" vol="78" pan="0" len="12" pos="2040"/>
          <note key="1" vol="78" pan="0" len="12" pos="2040"/>
          <note key="58" vol="78" pan="0" len="12" pos="2052"/>
          <note key="66" vol="78" pan="0" len="12" pos="2064"/>
          <note key="0" vol="78" pan="0" len="12" pos="2064"/>
          <note key="63" vol="78" pan="0" len="12" pos="2076"/>
          <note key="2" vol="78" pan="0" len="12" pos="2076"/>
          <note key="65" vol="78" pan="0" len="12" pos="2088"/>
          <note key="1" vol="78" pan="0" len="12" pos="2088"/>
          <note key="66" vol="78" pan="0" len="12" pos="2100"/>
          <note key="73" vol="78" pan="0" len="48" pos="2112"/>
          <note key="0" vol="78" pan="0" len="12" pos="2112"/>
          <note key="71" vol="78" pan="0" len="12" pos="2160"/>
          <note key="73" vol="78" pan="0" len="12" pos="2172"/>
          <note key="71" vol="78" pan="0" len="48" pos="2184"/>
          <note key="70" vol="78" pan="0" len="12" pos="2232"/>
          <note key="0" vol="78" pan="0" len="12" pos="2232"/>
          <note key="71" vol="78" pan="0" len="12" pos="2244"/>
          <note key="70" vol="78" pan="0" len="12" pos="2256"/>
          <note key="1" vol="78" pan="0" len="12" pos="2256"/>
          <note key="68" vol="78" pan="0" len="12" pos="2268"/>
          <note key="66" vol="78" pan="0" len="12" pos="2280"/>
          <note key="70" vol="78" pan="0" len="12" pos="2292"/>
          <note key="68" vol="78" pan="0" len="72" pos="2304"/>
          <note key="0" vol="78" pan="0" len="12" pos="2304"/>
          <note key="66" vol="78" pan="0" len="12" pos="2376"/>
          <note key="68" vol="78" pan="0" len="12" pos="2388"/>
          <note key="70" vol="78" pan="0" len="12" pos="2400"/>
          <note key="71" vol="78" pan="0" len="12" pos="2412"/>
          <note key="70" vol="78" pan="0" len="12" pos="2424"/>
          <note key="68" vol="78" pan="0" len="12" pos="2436"/>
          <note key="70" vol="78" pan="0" len="12" pos="2448"/>
          <note key="68" vol="78" pan="0" len="12" pos="2460"/>
          <note key="66" vol="78" pan="0" len="12" pos="2472"/>
          <note key="65" vol="78" pan="0" len="12" pos="2484"/>
          <note key="66" vol="78" pan="0" len="24" pos="2496"/>
          <note key="0" vol="78" pan="0" len="12" pos="2496"/>
          <note key="1" vol="78" pan="0" len="12" pos="2508"/>
          <note key="58" vol="78" pan="0" len="12" pos="2520"/>
          <note key="58" vol="78" pan="0" len="12" pos="2532"/>
          <note key="58" vol="78" pan="0" len="12" pos="2544"/>
          <note key="58" vol="78" pan="0" len="12" pos="2556"/>
          <note key="65" vol="78" pan="0" len="24" pos="2568"/>
          <note key="0" vol="78" pan="0" len="12" pos="2568"/>
          <note key="1" vol="78" pan="0" len="12" pos="2580"/>
          <note key="58" vol="78" pan="0" len="12" pos="2592"/>
          <note key="58" vol="78" pan="0" len="12" pos="2604"/>
          <note key="58" vol="78" pan="0" len="12" pos="2616"/>
          <note key="58" vol="78" pan="0" len="12" pos="2628"/>
          <note key="66" vol="78" pan="0" len="24" pos="2640"/>
          <note key="0" vol="78" pan="0" len="12" pos="2640"/>
          <note key="1" vol="78" pan="0" len="12" pos="2652"/>
          <note key="58" vol="78" pan="0" len="12" pos="2664"/>
          <note key="58" vol="78" pan="0" len="12" pos="2676"/>
          <note key="70" vol="78" pan="0" len="144" pos="2688"/>
          <note key="0" vol="78" pan="0" len="12" pos="2688"/>
          <note key="75" vol="78" pan="0" len="12" pos="2832"/>
          <note key="77" vol="78" pan="0" len="36" pos="2844"/>
          <note key="1" vol="78" pan="0" len="12" pos="2844"/>
          <note key="75" vol="78" pan="0" len="240" pos="2880"/>
          <note key="0" vol="78" pan="0" len="12" pos="2880"/>
          <note key="78" vol="78" pan="0" len="48" pos="3120"/>
          <note key="80" vol="78" pan="0" len="48" pos="3168"/>
          <note key="82" vol="78" pan="0" len="48" pos="3216"/>
          <note key="83" vol="78" pan="0" len="72" pos="3264"/>
          <note key="82" vol="78" pan="0" len="72" pos="3336"/>
          <note key="80" vol="78" pan="0" len="48" pos="3408"/>
          <note key="78" vol="78" pan="0" len="48" pos="3456"/>
          <note key="75" vol="78" pan="0" len="48" pos="3504"/>
          <note key="78" vol="78" pan="0" len="48" pos="3552"/>
          <note key="82" vol="78" pan="0" len="48" pos="3600"/>
          <note key="80" vol="78" pan="0" len="192" pos="3648"/>
          <note key="77" vol="78" pan="0" len="96" pos="3840"/>
          <note key="73" vol="78" pan="0" len="96" pos="3936"/>
        </pattern>
      </track>
      <track name="lgtH1" muted="0" type="0" solo="0">
        <instrumenttrack vol="200" pitch="0" pitchrange="1" basenote="57" pan="-100" fxch="12" usemasterpitch="1">
          <instrument name="carlapatchbay">
            <carlapatchbay>
              <CARLA-PROJECT VERSION="2.0">
                <EngineSettings>
                  <ForceStereo>false</ForceStereo>
                  <PreferPluginBridges>false</PreferPluginBridges>
                  <PreferUiBridges>true</PreferUiBridges>
                  <UIsAlwaysOnTop>false</UIsAlwaysOnTop>
                  <MaxParameters>200</MaxParameters>
                  <UIBridgesTimeout>4000</UIBridgesTimeout>
                  <LADSPA_PATH>/home/huggypie/.ladspa:/usr/lib/ladspa:/usr/local/lib/ladspa</LADSPA_PATH>
                  <DSSI_PATH>/home/huggypie/.dssi:/usr/lib/dssi:/usr/local/lib/dssi</DSSI_PATH>
                  <LV2_PATH>/home/huggypie/.lv2:/usr/lib/lv2:/usr/local/lib/lv2</LV2_PATH>
                  <VST2_PATH>/home/huggypie/.vst:/home/huggypie/.wine/drive_c/Program Files (x86)/VstPlugins:/home/huggypie/.wine/drive_c/Program Files/VstPlugins:/usr/lib/lxvst:/usr/lib/vst:/usr/local/lib/lxvst:/usr/local/lib/vst/home/huggypie/.lxvst:/home/huggypie/vst</VST2_PATH>
                  <VST3_PATH>/home/huggypie/.vst3:/home/huggypie/.wine/drive_c/Program Files (x86)/Common Files/VST3:/home/huggypie/.wine/drive_c/Program Files/Common Files/VST3:/usr/lib/vst3:/usr/local/lib/vst3</VST3_PATH>
                  <SF2_PATH>/home/huggypie/.sounds/sf2/home/huggypie/.sounds/sf3:/usr/share/soundfonts:/usr/share/sounds/sf2:/usr/share/sounds/sf3</SF2_PATH>
                  <SFZ_PATH>/home/huggypie/.sounds/sfz:/home/huggypie/samples:/usr/share/sounds/sfz</SFZ_PATH>
                </EngineSettings>
                <!-- sfizz -->
                <Plugin>
                  <Info>
                    <Type>LV2</Type>
                    <Name>sfizz</Name>
                    <URI>http://sfztools.github.io/sfizz</URI>
                  </Info>
                  <Data>
                    <Active>Yes</Active>
                    <ControlChannel>1</ControlChannel>
                    <Options>0x3f0</Options>
                    <Parameter>
                      <Index>0</Index>
                      <Name>Volume</Name>
                      <Symbol>volume</Symbol>
                      <Value>0</Value>
                    </Parameter>
                    <Parameter>
                      <Index>1</Index>
                      <Name>Polyphony</Name>
                      <Symbol>num_voices</Symbol>
                      <Value>64</Value>
                    </Parameter>
                    <Parameter>
                      <Index>2</Index>
                      <Name>Internal oversampling factor</Name>
                      <Symbol>oversampling</Symbol>
                      <Value>1</Value>
                    </Parameter>
                    <Parameter>
                      <Index>3</Index>
                      <Name>Preload size</Name>
                      <Symbol>preload_size</Symbol>
                      <Value>8192</Value>
                    </Parameter>
                    <Parameter>
                      <Index>5</Index>
                      <Name>Scala root key</Name>
                      <Symbol>scala_root_key</Symbol>
                      <Value>60</Value>
                    </Parameter>
                    <Parameter>
                      <Index>6</Index>
                      <Name>Tuning frequency</Name>
                      <Symbol>tuning_frequency</Symbol>
                      <Value>440</Value>
                    </Parameter>
                    <Parameter>
                      <Index>7</Index>
                      <Name>Stretched tuning</Name>
                      <Symbol>stretched_tuning</Symbol>
                      <Value>0</Value>
                    </Parameter>
                    <CustomData>
                      <Type>http://lv2plug.in/ns/ext/atom#Path</Type>
                      <Key>http://sfztools.github.io/sfizz:sfzfile</Key>
                      <Value>../samples/fakeguitar/_fakeguitar1_integrated.sfz</Value>
                    </CustomData>
                    <CustomData>
                      <Type>http://lv2plug.in/ns/ext/atom#Int</Type>
                      <Key>http://sfztools.github.io/sfizz:numvoices</Key>
                      <Value>QAAAAA==</Value>
                    </CustomData>
                    <CustomData>
                      <Type>http://lv2plug.in/ns/ext/atom#Int</Type>
                      <Key>http://sfztools.github.io/sfizz:preload_size</Key>
                      <Value>ACAAAA==</Value>
                    </CustomData>
                    <CustomData>
                      <Type>http://lv2plug.in/ns/ext/atom#Int</Type>
                      <Key>http://sfztools.github.io/sfizz:oversampling</Key>
                      <Value>AQAAAA==</Value>
                    </CustomData>
                    <CustomData>
                      <Type>http://lv2plug.in/ns/ext/atom#Path</Type>
                      <Key>http://sfztools.github.io/sfizz:tuningfile</Key>
                      <Value>../../../usr/lib/lv2/sfizz.lv2//Contents/Resources/DefaultScale.scl</Value>
                    </CustomData>
                  </Data>
                </Plugin>
                <Patchbay>
                  <Connection>
                    <Source>Midi Input:Capture 1</Source>
                    <Target>sfizz:events-in</Target>
                  </Connection>
                  <Connection>
                    <Source>sfizz:Left Output</Source>
                    <Target>Audio Output:Left</Target>
                  </Connection>
                  <Connection>
                    <Source>sfizz:Right Output</Source>
                    <Target>Audio Output:Right</Target>
                  </Connection>
                </Patchbay>
              </CARLA-PROJECT>
            </carlapatchbay>
          </instrument>
          <eldata ftype="0" fres="0.5" fwet="0" fcut="14000">
            <elvol dec="0.5" sustain="0.5" pdel="0" lpdel="0" rel="0.1" lspd="0.1" userwavefile="" hold="0.5" lamt="0" lspd_numerator="4" lspd_syncmode="0" lshp="0" amt="0" x100="0" latt="0" lspd_denominator="4" ctlenvamt="0" att="0"/>
            <elcut dec="0.5" sustain="0.5" pdel="0" lpdel="0" rel="0.1" lspd="0.1" userwavefile="" hold="0.5" lamt="0" lspd_numerator="4" lspd_syncmode="0" lshp="0" amt="0" x100="0" latt="0" lspd_denominator="4" ctlenvamt="0" att="0"/>
            <elres dec="0.5" sustain="0.5" pdel="0" lpdel="0" rel="0.1" lspd="0.1" userwavefile="" hold="0.5" lamt="0" lspd_numerator="4" lspd_syncmode="0" lshp="0" amt="0" x100="0" latt="0" lspd_denominator="4" ctlenvamt="0" att="0"/>
          </eldata>
          <chordcreator chord="0" chord-enabled="0" chordrange="1"/>
          <arpeggiator arprange="1" arptime_denominator="4" arpgate="100" arptime_syncmode="0" arp="0" arpmode="0" arpmiss="0" arpdir="0" arptime_numerator="4" arp-enabled="0" arpcycle="0" arpskip="0" arptime="200"/>
          <midiport outputchannel="1" inputcontroller="0" outputcontroller="0" basevelocity="63" fixedinputvelocity="-1" fixedoutputvelocity="-1" outputprogram="1" readable="0" writable="0" fixedoutputnote="-1" inputchannel="0"/>
          <fxchain numofeffects="0" enabled="0"/>
        </instrumenttrack>
        <pattern name="" muted="0" type="1" steps="16" pos="7104">
          <note key="0" vol="78" pan="0" len="72" pos="0"/>
          <note key="68" vol="78" pan="0" len="48" pos="96"/>
          <note key="71" vol="78" pan="0" len="48" pos="144"/>
          <note key="73" vol="78" pan="0" len="96" pos="192"/>
          <note key="73" vol="78" pan="0" len="24" pos="288"/>
          <note key="68" vol="78" pan="0" len="24" pos="312"/>
          <note key="73" vol="78" pan="0" len="24" pos="336"/>
          <note key="80" vol="78" pan="0" len="168" pos="360"/>
          <note key="80" vol="78" pan="0" len="24" pos="528"/>
          <note key="78" vol="78" pan="0" len="24" pos="552"/>
          <note key="77" vol="78" pan="0" len="48" pos="576"/>
          <note key="73" vol="78" pan="0" len="48" pos="624"/>
          <note key="70" vol="78" pan="0" len="48" pos="672"/>
          <note key="66" vol="78" pan="0" len="48" pos="720"/>
          <note key="69" vol="78" pan="0" len="96" pos="768"/>
          <note key="68" vol="78" pan="0" len="96" pos="864"/>
          <note key="73" vol="78" pan="0" len="144" pos="960"/>
          <note key="76" vol="78" pan="0" len="48" pos="1104"/>
          <note key="75" vol="78" pan="0" len="144" pos="1152"/>
          <note key="80" vol="78" pan="0" len="48" pos="1296"/>
          <note key="80" vol="78" pan="0" len="144" pos="1344"/>
          <note key="78" vol="78" pan="0" len="24" pos="1488"/>
          <note key="76" vol="78" pan="0" len="24" pos="1512"/>
          <note key="75" vol="78" pan="0" len="48" pos="1536"/>
          <note key="76" vol="78" pan="0" len="48" pos="1584"/>
          <note key="71" vol="78" pan="0" len="48" pos="1632"/>
          <note key="68" vol="78" pan="0" len="48" pos="1680"/>
          <note key="69" vol="78" pan="0" len="96" pos="1728"/>
          <note key="73" vol="78" pan="0" len="48" pos="1824"/>
          <note key="76" vol="78" pan="0" len="48" pos="1872"/>
          <note key="76" vol="78" pan="0" len="96" pos="1920"/>
          <note key="75" vol="78" pan="0" len="48" pos="2016"/>
          <note key="76" vol="78" pan="0" len="48" pos="2064"/>
          <note key="83" vol="78" pan="0" len="72" pos="2112"/>
          <note key="81" vol="78" pan="0" len="72" pos="2184"/>
          <note key="80" vol="78" pan="0" len="48" pos="2256"/>
          <note key="78" vol="78" pan="0" len="192" pos="2304"/>
          <note key="76" vol="78" pan="0" len="72" pos="2496"/>
          <note key="75" vol="78" pan="0" len="72" pos="2568"/>
          <note key="76" vol="78" pan="0" len="48" pos="2640"/>
          <note key="80" vol="78" pan="0" len="144" pos="2688"/>
          <note key="75" vol="78" pan="0" len="48" pos="2832"/>
          <note key="73" vol="78" pan="0" len="240" pos="2880"/>
          <note key="76" vol="78" pan="0" len="48" pos="3120"/>
          <note key="78" vol="78" pan="0" len="48" pos="3168"/>
          <note key="80" vol="78" pan="0" len="48" pos="3216"/>
          <note key="81" vol="78" pan="0" len="72" pos="3264"/>
          <note key="80" vol="78" pan="0" len="72" pos="3336"/>
          <note key="78" vol="78" pan="0" len="48" pos="3408"/>
          <note key="76" vol="78" pan="0" len="48" pos="3456"/>
          <note key="73" vol="78" pan="0" len="48" pos="3504"/>
          <note key="76" vol="78" pan="0" len="48" pos="3552"/>
          <note key="80" vol="78" pan="0" len="48" pos="3600"/>
          <note key="78" vol="78" pan="0" len="192" pos="3648"/>
          <note key="75" vol="78" pan="0" len="96" pos="3840"/>
          <note key="71" vol="78" pan="0" len="96" pos="3936"/>
          <note key="73" vol="78" pan="0" len="384" pos="4032"/>
        </pattern>
        <pattern name="" muted="0" type="1" steps="16" pos="5376">
          <note key="68" vol="78" pan="0" len="24" pos="0"/>
          <note key="0" vol="78" pan="0" len="24" pos="0"/>
          <note key="71" vol="78" pan="0" len="24" pos="24"/>
          <note key="68" vol="78" pan="0" len="24" pos="48"/>
          <note key="75" vol="78" pan="0" len="48" pos="72"/>
          <note key="68" vol="78" pan="0" len="24" pos="120"/>
          <note key="71" vol="78" pan="0" len="24" pos="144"/>
          <note key="75" vol="78" pan="0" len="24" pos="168"/>
          <note key="76" vol="78" pan="0" len="24" pos="192"/>
          <note key="75" vol="78" pan="0" len="24" pos="216"/>
          <note key="73" vol="78" pan="0" len="24" pos="240"/>
          <note key="71" vol="78" pan="0" len="24" pos="264"/>
          <note key="75" vol="78" pan="0" len="24" pos="288"/>
          <note key="73" vol="78" pan="0" len="24" pos="312"/>
          <note key="71" vol="78" pan="0" len="24" pos="336"/>
          <note key="68" vol="78" pan="0" len="24" pos="360"/>
        </pattern>
        <pattern name="lgtH1" muted="0" type="1" steps="16" pos="6144">
          <note key="87" vol="78" pan="0" len="24" pos="0"/>
          <note key="0" vol="100" pan="0" len="48" pos="0"/>
          <note key="76" vol="78" pan="0" len="24" pos="24"/>
          <note key="80" vol="78" pan="0" len="24" pos="48"/>
          <note key="83" vol="78" pan="0" len="48" pos="72"/>
          <note key="80" vol="78" pan="0" len="24" pos="120"/>
          <note key="83" vol="78" pan="0" len="24" pos="144"/>
          <note key="87" vol="78" pan="0" len="24" pos="168"/>
          <note key="1" vol="100" pan="0" len="48" pos="180"/>
          <note key="85" vol="78" pan="0" len="12" pos="192"/>
          <note key="85" vol="78" pan="0" len="12" pos="204"/>
          <note key="80" vol="78" pan="0" len="12" pos="216"/>
          <note key="80" vol="78" pan="0" len="12" pos="228"/>
          <note key="76" vol="78" pan="0" len="12" pos="240"/>
          <note key="76" vol="78" pan="0" len="12" pos="252"/>
          <note key="73" vol="78" pan="0" len="12" pos="264"/>
          <note key="73" vol="78" pan="0" len="12" pos="276"/>
          <note key="78" vol="78" pan="0" len="12" pos="288"/>
          <note key="78" vol="78" pan="0" len="12" pos="300"/>
          <note key="76" vol="78" pan="0" len="12" pos="312"/>
          <note key="76" vol="78" pan="0" len="12" pos="324"/>
          <note key="80" vol="78" pan="0" len="12" pos="336"/>
          <note key="80" vol="78" pan="0" len="12" pos="348"/>
          <note key="76" vol="78" pan="0" len="12" pos="360"/>
          <note key="76" vol="78" pan="0" len="12" pos="372"/>
          <note key="0" vol="78" pan="0" len="12" pos="384"/>
        </pattern>
        <pattern name="" muted="0" type="1" steps="16" pos="13056">
          <note key="68" vol="78" pan="0" len="24" pos="0"/>
          <note key="0" vol="78" pan="0" len="24" pos="0"/>
          <note key="71" vol="78" pan="0" len="24" pos="24"/>
          <note key="68" vol="78" pan="0" len="24" pos="48"/>
          <note key="75" vol="78" pan="0" len="48" pos="72"/>
          <note key="68" vol="78" pan="0" len="24" pos="120"/>
          <note key="71" vol="78" pan="0" len="24" pos="144"/>
          <note key="75" vol="78" pan="0" len="24" pos="168"/>
          <note key="76" vol="78" pan="0" len="24" pos="192"/>
          <note key="75" vol="78" pan="0" len="24" pos="216"/>
          <note key="73" vol="78" pan="0" len="24" pos="240"/>
          <note key="71" vol="78" pan="0" len="24" pos="264"/>
          <note key="75" vol="78" pan="0" len="24" pos="288"/>
          <note key="73" vol="78" pan="0" len="24" pos="312"/>
          <note key="71" vol="78" pan="0" len="24" pos="336"/>
          <note key="68" vol="78" pan="0" len="24" pos="360"/>
        </pattern>
        <pattern name="" muted="0" type="1" steps="16" pos="13824">
          <note key="71" vol="78" pan="0" len="24" pos="0"/>
          <note key="0" vol="78" pan="0" len="12" pos="0"/>
          <note key="1" vol="78" pan="0" len="12" pos="12"/>
          <note key="61" vol="78" pan="0" len="12" pos="24"/>
          <note key="61" vol="78" pan="0" len="12" pos="36"/>
          <note key="64" vol="78" pan="0" len="24" pos="48"/>
          <note key="0" vol="78" pan="0" len="12" pos="48"/>
          <note key="68" vol="78" pan="0" len="48" pos="72"/>
          <note key="64" vol="78" pan="0" len="24" pos="120"/>
          <note key="68" vol="78" pan="0" len="24" pos="144"/>
          <note key="71" vol="78" pan="0" len="24" pos="168"/>
          <note key="69" vol="78" pan="0" len="24" pos="192"/>
          <note key="64" vol="78" pan="0" len="24" pos="216"/>
          <note key="61" vol="78" pan="0" len="24" pos="240"/>
          <note key="57" vol="78" pan="0" len="24" pos="264"/>
          <note key="63" vol="78" pan="0" len="24" pos="288"/>
          <note key="61" vol="78" pan="0" len="24" pos="312"/>
          <note key="64" vol="78" pan="0" len="24" pos="336"/>
          <note key="61" vol="78" pan="0" len="24" pos="360"/>
        </pattern>
        <pattern name="" muted="0" type="1" steps="16" pos="18816">
          <note key="73" vol="78" pan="0" len="336" pos="0"/>
          <note key="64" vol="78" pan="0" len="48" pos="336"/>
          <note key="63" vol="78" pan="0" len="288" pos="384"/>
          <note key="56" vol="78" pan="0" len="48" pos="672"/>
          <note key="59" vol="78" pan="0" len="48" pos="720"/>
          <note key="61" vol="78" pan="0" len="240" pos="768"/>
          <note key="59" vol="78" pan="0" len="48" pos="1008"/>
          <note key="61" vol="78" pan="0" len="48" pos="1056"/>
          <note key="68" vol="78" pan="0" len="48" pos="1104"/>
          <note key="66" vol="78" pan="0" len="192" pos="1152"/>
          <note key="69" vol="78" pan="0" len="48" pos="1344"/>
          <note key="68" vol="78" pan="0" len="24" pos="1392"/>
          <note key="68" vol="78" pan="0" len="12" pos="1416"/>
          <note key="69" vol="78" pan="0" len="12" pos="1424"/>
          <note key="68" vol="78" pan="0" len="12" pos="1432"/>
          <note key="66" vol="78" pan="0" len="48" pos="1440"/>
          <note key="68" vol="78" pan="0" len="48" pos="1488"/>
          <note key="64" vol="78" pan="0" len="240" pos="1536"/>
          <note key="61" vol="78" pan="0" len="48" pos="1776"/>
          <note key="64" vol="78" pan="0" len="48" pos="1824"/>
          <note key="68" vol="78" pan="0" len="48" pos="1872"/>
          <note key="68" vol="78" pan="0" len="192" pos="1920"/>
          <note key="66" vol="78" pan="0" len="144" pos="2112"/>
          <note key="68" vol="78" pan="0" len="48" pos="2256"/>
          <note key="61" vol="78" pan="0" len="240" pos="2304"/>
          <note key="56" vol="78" pan="0" len="48" pos="2544"/>
          <note key="61" vol="78" pan="0" len="48" pos="2592"/>
          <note key="68" vol="78" pan="0" len="48" pos="2640"/>
          <note key="73" vol="78" pan="0" len="192" pos="2688"/>
          <note key="72" vol="78" pan="0" len="192" pos="2880"/>
        </pattern>
        <pattern name="" muted="0" type="1" steps="16" pos="14784">
          <note key="0" vol="78" pan="0" len="72" pos="0"/>
          <note key="68" vol="78" pan="0" len="48" pos="96"/>
          <note key="71" vol="78" pan="0" len="48" pos="144"/>
          <note key="73" vol="78" pan="0" len="96" pos="192"/>
          <note key="73" vol="78" pan="0" len="24" pos="288"/>
          <note key="68" vol="78" pan="0" len="24" pos="312"/>
          <note key="73" vol="78" pan="0" len="24" pos="336"/>
          <note key="80" vol="78" pan="0" len="168" pos="360"/>
          <note key="80" vol="78" pan="0" len="24" pos="528"/>
          <note key="78" vol="78" pan="0" len="24" pos="552"/>
          <note key="77" vol="78" pan="0" len="48" pos="576"/>
          <note key="73" vol="78" pan="0" len="48" pos="624"/>
          <note key="70" vol="78" pan="0" len="48" pos="672"/>
          <note key="66" vol="78" pan="0" len="48" pos="720"/>
          <note key="69" vol="78" pan="0" len="96" pos="768"/>
          <note key="68" vol="78" pan="0" len="96" pos="864"/>
          <note key="73" vol="78" pan="0" len="144" pos="960"/>
          <note key="76" vol="78" pan="0" len="48" pos="1104"/>
          <note key="75" vol="78" pan="0" len="144" pos="1152"/>
          <note key="80" vol="78" pan="0" len="48" pos="1296"/>
          <note key="80" vol="78" pan="0" len="144" pos="1344"/>
          <note key="78" vol="78" pan="0" len="24" pos="1488"/>
          <note key="76" vol="78" pan="0" len="24" pos="1512"/>
          <note key="75" vol="78" pan="0" len="48" pos="1536"/>
          <note key="76" vol="78" pan="0" len="48" pos="1584"/>
          <note key="71" vol="78" pan="0" len="48" pos="1632"/>
          <note key="68" vol="78" pan="0" len="48" pos="1680"/>
          <note key="69" vol="78" pan="0" len="96" pos="1728"/>
          <note key="73" vol="78" pan="0" len="48" pos="1824"/>
          <note key="76" vol="78" pan="0" len="48" pos="1872"/>
          <note key="76" vol="78" pan="0" len="96" pos="1920"/>
          <note key="75" vol="78" pan="0" len="48" pos="2016"/>
          <note key="76" vol="78" pan="0" len="48" pos="2064"/>
          <note key="83" vol="78" pan="0" len="72" pos="2112"/>
          <note key="81" vol="78" pan="0" len="72" pos="2184"/>
          <note key="80" vol="78" pan="0" len="48" pos="2256"/>
          <note key="78" vol="78" pan="0" len="192" pos="2304"/>
          <note key="76" vol="78" pan="0" len="72" pos="2496"/>
          <note key="75" vol="78" pan="0" len="72" pos="2568"/>
          <note key="76" vol="78" pan="0" len="48" pos="2640"/>
          <note key="80" vol="78" pan="0" len="144" pos="2688"/>
          <note key="75" vol="78" pan="0" len="48" pos="2832"/>
          <note key="73" vol="78" pan="0" len="240" pos="2880"/>
          <note key="76" vol="78" pan="0" len="48" pos="3120"/>
          <note key="78" vol="78" pan="0" len="48" pos="3168"/>
          <note key="80" vol="78" pan="0" len="48" pos="3216"/>
          <note key="81" vol="78" pan="0" len="72" pos="3264"/>
          <note key="80" vol="78" pan="0" len="72" pos="3336"/>
          <note key="78" vol="78" pan="0" len="48" pos="3408"/>
          <note key="76" vol="78" pan="0" len="48" pos="3456"/>
          <note key="73" vol="78" pan="0" len="48" pos="3504"/>
          <note key="76" vol="78" pan="0" len="48" pos="3552"/>
          <note key="80" vol="78" pan="0" len="48" pos="3600"/>
          <note key="78" vol="78" pan="0" len="192" pos="3648"/>
          <note key="75" vol="78" pan="0" len="96" pos="3840"/>
          <note key="71" vol="78" pan="0" len="96" pos="3936"/>
        </pattern>
        <pattern name="lgtH1" muted="0" type="1" steps="16" pos="30336">
          <note key="66" vol="197" pan="0" len="12" pos="0"/>
          <note key="1" vol="197" pan="0" len="12" pos="0"/>
          <note key="66" vol="197" pan="0" len="12" pos="12"/>
          <note key="64" vol="197" pan="0" len="12" pos="24"/>
          <note key="64" vol="197" pan="0" len="12" pos="36"/>
          <note key="62" vol="197" pan="0" len="12" pos="48"/>
          <note key="62" vol="197" pan="0" len="12" pos="60"/>
          <note key="69" vol="197" pan="0" len="12" pos="72"/>
          <note key="69" vol="197" pan="0" len="12" pos="84"/>
          <note key="68" vol="197" pan="0" len="12" pos="96"/>
          <note key="68" vol="197" pan="0" len="12" pos="108"/>
          <note key="66" vol="197" pan="0" len="12" pos="120"/>
          <note key="66" vol="197" pan="0" len="12" pos="132"/>
          <note key="68" vol="197" pan="0" len="12" pos="144"/>
          <note key="68" vol="197" pan="0" len="12" pos="156"/>
          <note key="69" vol="197" pan="0" len="12" pos="168"/>
          <note key="69" vol="197" pan="0" len="12" pos="180"/>
          <note key="71" vol="197" pan="0" len="48" pos="192"/>
          <note key="0" vol="197" pan="0" len="48" pos="192"/>
          <note key="69" vol="197" pan="0" len="12" pos="240"/>
          <note key="2" vol="197" pan="0" len="12" pos="240"/>
          <note key="71" vol="197" pan="0" len="12" pos="252"/>
          <note key="73" vol="197" pan="0" len="12" pos="264"/>
          <note key="0" vol="197" pan="0" len="12" pos="264"/>
          <note key="74" vol="197" pan="0" len="12" pos="276"/>
          <note key="76" vol="197" pan="0" len="12" pos="288"/>
          <note key="0" vol="197" pan="0" len="12" pos="288"/>
          <note key="74" vol="197" pan="0" len="12" pos="300"/>
          <note key="1" vol="197" pan="0" len="12" pos="300"/>
          <note key="73" vol="197" pan="0" len="12" pos="312"/>
          <note key="74" vol="197" pan="0" len="12" pos="324"/>
          <note key="78" vol="197" pan="0" len="12" pos="336"/>
          <note key="0" vol="197" pan="0" len="12" pos="336"/>
          <note key="76" vol="197" pan="0" len="12" pos="348"/>
          <note key="1" vol="197" pan="0" len="12" pos="348"/>
          <note key="74" vol="197" pan="0" len="12" pos="360"/>
          <note key="76" vol="197" pan="0" len="12" pos="372"/>
          <note key="76" vol="197" pan="0" len="24" pos="384"/>
          <note key="0" vol="197" pan="0" len="24" pos="384"/>
          <note key="78" vol="197" pan="0" len="24" pos="408"/>
          <note key="74" vol="197" pan="0" len="48" pos="456"/>
          <note key="1" vol="197" pan="0" len="24" pos="480"/>
          <note key="71" vol="197" pan="0" len="12" pos="504"/>
          <note key="71" vol="197" pan="0" len="12" pos="516"/>
          <note key="74" vol="197" pan="0" len="12" pos="528"/>
          <note key="74" vol="197" pan="0" len="12" pos="540"/>
          <note key="76" vol="197" pan="0" len="12" pos="552"/>
          <note key="76" vol="197" pan="0" len="12" pos="564"/>
          <note key="80" vol="197" pan="0" len="24" pos="576"/>
          <note key="78" vol="197" pan="0" len="12" pos="600"/>
          <note key="80" vol="197" pan="0" len="12" pos="612"/>
          <note key="81" vol="197" pan="0" len="24" pos="624"/>
          <note key="80" vol="197" pan="0" len="12" pos="648"/>
          <note key="81" vol="197" pan="0" len="12" pos="660"/>
          <note key="85" vol="197" pan="0" len="12" pos="672"/>
          <note key="83" vol="197" pan="0" len="12" pos="684"/>
          <note key="81" vol="197" pan="0" len="12" pos="696"/>
          <note key="80" vol="197" pan="0" len="12" pos="708"/>
          <note key="78" vol="197" pan="0" len="12" pos="720"/>
          <note key="76" vol="197" pan="0" len="12" pos="732"/>
          <note key="74" vol="197" pan="0" len="12" pos="744"/>
          <note key="73" vol="197" pan="0" len="12" pos="756"/>
        </pattern>
        <pattern name="lgtH1" muted="0" type="1" steps="16" pos="34944">
          <note key="73" vol="197" pan="0" len="144" pos="0"/>
          <note key="0" vol="197" pan="0" len="12" pos="0"/>
          <note key="76" vol="197" pan="0" len="48" pos="144"/>
          <note key="75" vol="197" pan="0" len="144" pos="192"/>
          <note key="80" vol="197" pan="0" len="48" pos="336"/>
          <note key="80" vol="197" pan="0" len="144" pos="384"/>
          <note key="78" vol="197" pan="0" len="24" pos="528"/>
          <note key="76" vol="197" pan="0" len="24" pos="552"/>
          <note key="75" vol="197" pan="0" len="48" pos="576"/>
          <note key="76" vol="197" pan="0" len="48" pos="624"/>
          <note key="71" vol="197" pan="0" len="12" pos="672"/>
          <note key="1" vol="197" pan="0" len="12" pos="672"/>
          <note key="73" vol="197" pan="0" len="12" pos="684"/>
          <note key="71" vol="197" pan="0" len="12" pos="696"/>
          <note key="68" vol="197" pan="0" len="12" pos="708"/>
          <note key="71" vol="197" pan="0" len="12" pos="720"/>
          <note key="68" vol="197" pan="0" len="12" pos="732"/>
          <note key="66" vol="197" pan="0" len="12" pos="744"/>
          <note key="68" vol="197" pan="0" len="12" pos="756"/>
          <note key="69" vol="197" pan="0" len="96" pos="768"/>
          <note key="0" vol="197" pan="0" len="12" pos="768"/>
          <note key="73" vol="197" pan="0" len="48" pos="864"/>
          <note key="76" vol="197" pan="0" len="48" pos="912"/>
          <note key="76" vol="197" pan="0" len="96" pos="960"/>
          <note key="75" vol="197" pan="0" len="48" pos="1056"/>
          <note key="76" vol="197" pan="0" len="48" pos="1104"/>
          <note key="76" vol="197" pan="0" len="12" pos="1152"/>
          <note key="0" vol="200" pan="0" len="12" pos="1152"/>
          <note key="73" vol="197" pan="0" len="12" pos="1164"/>
          <note key="75" vol="197" pan="0" len="12" pos="1176"/>
          <note key="76" vol="197" pan="0" len="12" pos="1188"/>
          <note key="78" vol="197" pan="0" len="12" pos="1200"/>
          <note key="75" vol="197" pan="0" len="12" pos="1212"/>
          <note key="76" vol="197" pan="0" len="12" pos="1224"/>
          <note key="78" vol="197" pan="0" len="12" pos="1236"/>
          <note key="80" vol="197" pan="0" len="12" pos="1248"/>
          <note key="76" vol="197" pan="0" len="12" pos="1260"/>
          <note key="78" vol="197" pan="0" len="12" pos="1272"/>
          <note key="80" vol="197" pan="0" len="12" pos="1284"/>
          <note key="81" vol="197" pan="0" len="12" pos="1296"/>
          <note key="78" vol="197" pan="0" len="12" pos="1308"/>
          <note key="80" vol="197" pan="0" len="12" pos="1320"/>
          <note key="81" vol="197" pan="0" len="12" pos="1332"/>
          <note key="83" vol="200" pan="0" len="12" pos="1344"/>
          <note key="81" vol="200" pan="0" len="12" pos="1356"/>
          <note key="80" vol="200" pan="0" len="12" pos="1368"/>
          <note key="78" vol="200" pan="0" len="12" pos="1380"/>
          <note key="81" vol="200" pan="0" len="12" pos="1392"/>
          <note key="80" vol="200" pan="0" len="12" pos="1404"/>
          <note key="78" vol="200" pan="0" len="12" pos="1416"/>
          <note key="76" vol="200" pan="0" len="12" pos="1428"/>
          <note key="80" vol="200" pan="0" len="12" pos="1440"/>
          <note key="78" vol="200" pan="0" len="12" pos="1452"/>
          <note key="80" vol="200" pan="0" len="12" pos="1464"/>
          <note key="81" vol="200" pan="0" len="12" pos="1476"/>
          <note key="87" vol="200" pan="0" len="12" pos="1488"/>
          <note key="2" vol="200" pan="0" len="12" pos="1488"/>
          <note key="83" vol="200" pan="0" len="12" pos="1500"/>
          <note key="87" vol="200" pan="0" len="12" pos="1512"/>
          <note key="83" vol="200" pan="0" len="12" pos="1524"/>
        </pattern>
        <pattern name="lgtH1" muted="0" type="1" steps="16" pos="31104">
          <note key="85" vol="197" pan="0" len="24" pos="0"/>
          <note key="1" vol="197" pan="0" len="24" pos="0"/>
          <note key="80" vol="197" pan="0" len="24" pos="24"/>
          <note key="83" vol="197" pan="0" len="24" pos="48"/>
          <note key="78" vol="197" pan="0" len="24" pos="72"/>
          <note key="80" vol="197" pan="0" len="24" pos="96"/>
          <note key="78" vol="197" pan="0" len="24" pos="120"/>
          <note key="76" vol="197" pan="0" len="24" pos="144"/>
          <note key="78" vol="197" pan="0" len="24" pos="168"/>
          <note key="80" vol="197" pan="0" len="24" pos="192"/>
          <note key="78" vol="197" pan="0" len="24" pos="216"/>
          <note key="80" vol="197" pan="0" len="24" pos="240"/>
          <note key="83" vol="197" pan="0" len="24" pos="264"/>
          <note key="85" vol="197" pan="0" len="24" pos="288"/>
          <note key="83" vol="197" pan="0" len="24" pos="312"/>
          <note key="80" vol="197" pan="0" len="24" pos="336"/>
          <note key="83" vol="197" pan="0" len="24" pos="360"/>
        </pattern>
        <pattern name="" muted="0" type="1" steps="16" pos="31488">
          <note key="71" vol="197" pan="0" len="12" pos="0"/>
          <note key="0" vol="197" pan="0" len="24" pos="0"/>
          <note key="69" vol="197" pan="0" len="12" pos="12"/>
          <note key="1" vol="197" pan="0" len="24" pos="12"/>
          <note key="71" vol="197" pan="0" len="12" pos="24"/>
          <note key="73" vol="197" pan="0" len="12" pos="36"/>
          <note key="75" vol="197" pan="0" len="12" pos="48"/>
          <note key="0" vol="197" pan="0" len="12" pos="48"/>
          <note key="71" vol="197" pan="0" len="12" pos="60"/>
          <note key="1" vol="197" pan="0" len="12" pos="60"/>
          <note key="73" vol="197" pan="0" len="12" pos="72"/>
          <note key="75" vol="197" pan="0" len="12" pos="84"/>
          <note key="76" vol="197" pan="0" len="12" pos="96"/>
          <note key="0" vol="197" pan="0" len="12" pos="96"/>
          <note key="75" vol="197" pan="0" len="12" pos="108"/>
          <note key="1" vol="197" pan="0" len="12" pos="108"/>
          <note key="73" vol="197" pan="0" len="12" pos="120"/>
          <note key="75" vol="197" pan="0" len="12" pos="132"/>
          <note key="76" vol="197" pan="0" len="12" pos="144"/>
          <note key="78" vol="197" pan="0" len="12" pos="156"/>
          <note key="80" vol="197" pan="0" len="12" pos="168"/>
          <note key="81" vol="197" pan="0" len="12" pos="180"/>
          <note key="83" vol="197" pan="0" len="12" pos="192"/>
          <note key="0" vol="197" pan="0" len="12" pos="192"/>
          <note key="78" vol="197" pan="0" len="12" pos="204"/>
          <note key="75" vol="197" pan="0" len="12" pos="216"/>
          <note key="1" vol="197" pan="0" len="12" pos="216"/>
          <note key="71" vol="197" pan="0" len="12" pos="228"/>
          <note key="66" vol="197" pan="0" len="12" pos="240"/>
          <note key="71" vol="197" pan="0" len="12" pos="252"/>
          <note key="87" vol="197" pan="0" len="12" pos="264"/>
          <note key="2" vol="197" pan="0" len="12" pos="264"/>
          <note key="78" vol="197" pan="0" len="12" pos="276"/>
          <note key="75" vol="197" pan="0" len="12" pos="288"/>
          <note key="1" vol="197" pan="0" len="12" pos="288"/>
          <note key="71" vol="197" pan="0" len="12" pos="300"/>
          <note key="75" vol="197" pan="0" len="12" pos="312"/>
          <note key="78" vol="197" pan="0" len="12" pos="324"/>
          <note key="83" vol="197" pan="0" len="12" pos="336"/>
          <note key="0" vol="197" pan="0" len="12" pos="336"/>
          <note key="78" vol="197" pan="0" len="12" pos="348"/>
          <note key="75" vol="197" pan="0" len="12" pos="360"/>
          <note key="78" vol="197" pan="0" len="12" pos="372"/>
        </pattern>
        <pattern name="lgtH1" muted="0" type="1" steps="16" pos="31872">
          <note key="85" vol="100" pan="0" len="240" pos="0"/>
        </pattern>
        <pattern name="lgtH1" muted="0" type="1" steps="16" pos="37056">
          <note key="80" vol="197" pan="0" len="12" pos="0"/>
          <note key="0" vol="197" pan="0" len="12" pos="0"/>
          <note key="64" vol="197" pan="0" len="12" pos="12"/>
          <note key="2" vol="197" pan="0" len="12" pos="12"/>
          <note key="64" vol="197" pan="0" len="12" pos="24"/>
          <note key="0" vol="197" pan="0" len="12" pos="24"/>
          <note key="78" vol="197" pan="0" len="12" pos="36"/>
          <note key="0" vol="197" pan="0" len="12" pos="36"/>
          <note key="64" vol="197" pan="0" len="12" pos="48"/>
          <note key="2" vol="197" pan="0" len="12" pos="48"/>
          <note key="64" vol="197" pan="0" len="12" pos="60"/>
          <note key="0" vol="197" pan="0" len="12" pos="60"/>
          <note key="80" vol="197" pan="0" len="12" pos="72"/>
          <note key="0" vol="197" pan="0" len="12" pos="72"/>
          <note key="64" vol="197" pan="0" len="12" pos="84"/>
          <note key="2" vol="197" pan="0" len="12" pos="84"/>
          <note key="64" vol="197" pan="0" len="12" pos="96"/>
          <note key="0" vol="197" pan="0" len="12" pos="96"/>
          <note key="78" vol="197" pan="0" len="12" pos="108"/>
          <note key="0" vol="197" pan="0" len="12" pos="108"/>
          <note key="64" vol="197" pan="0" len="12" pos="120"/>
          <note key="2" vol="197" pan="0" len="12" pos="120"/>
          <note key="64" vol="197" pan="0" len="12" pos="132"/>
          <note key="0" vol="197" pan="0" len="12" pos="132"/>
          <note key="83" vol="197" pan="0" len="12" pos="144"/>
          <note key="0" vol="197" pan="0" len="12" pos="144"/>
          <note key="64" vol="197" pan="0" len="12" pos="156"/>
          <note key="2" vol="197" pan="0" len="12" pos="156"/>
          <note key="81" vol="197" pan="0" len="12" pos="168"/>
          <note key="0" vol="197" pan="0" len="12" pos="168"/>
          <note key="64" vol="197" pan="0" len="12" pos="180"/>
          <note key="2" vol="197" pan="0" len="12" pos="180"/>
        </pattern>
        <pattern name="lgtH1" muted="0" type="1" steps="16" pos="37248">
          <note key="85" vol="100" pan="0" len="12" pos="0"/>
          <note key="0" vol="100" pan="0" len="48" pos="0"/>
          <note key="83" vol="100" pan="0" len="12" pos="12"/>
          <note key="80" vol="100" pan="0" len="12" pos="24"/>
          <note key="1" vol="100" pan="0" len="12" pos="24"/>
          <note key="78" vol="100" pan="0" len="12" pos="36"/>
          <note key="76" vol="100" pan="0" len="12" pos="48"/>
          <note key="73" vol="100" pan="0" len="12" pos="60"/>
          <note key="76" vol="100" pan="0" len="12" pos="72"/>
          <note key="80" vol="100" pan="0" len="12" pos="84"/>
          <note key="85" vol="100" pan="0" len="12" pos="96"/>
          <note key="0" vol="100" pan="0" len="12" pos="96"/>
          <note key="83" vol="100" pan="0" len="12" pos="108"/>
          <note key="80" vol="100" pan="0" len="12" pos="120"/>
          <note key="1" vol="100" pan="0" len="12" pos="120"/>
          <note key="78" vol="100" pan="0" len="12" pos="132"/>
          <note key="76" vol="100" pan="0" len="12" pos="144"/>
          <note key="73" vol="100" pan="0" len="12" pos="156"/>
          <note key="76" vol="100" pan="0" len="12" pos="168"/>
          <note key="80" vol="100" pan="0" len="12" pos="180"/>
        </pattern>
        <pattern name="" muted="0" type="1" steps="16" pos="37440">
          <note key="71" vol="197" pan="0" len="12" pos="0"/>
          <note key="0" vol="100" pan="0" len="12" pos="0"/>
          <note key="73" vol="197" pan="0" len="12" pos="12"/>
          <note key="71" vol="197" pan="0" len="12" pos="24"/>
          <note key="68" vol="197" pan="0" len="12" pos="36"/>
          <note key="1" vol="100" pan="0" len="12" pos="36"/>
          <note key="69" vol="197" pan="0" len="12" pos="48"/>
          <note key="64" vol="197" pan="0" len="12" pos="60"/>
          <note key="68" vol="197" pan="0" len="12" pos="72"/>
          <note key="0" vol="100" pan="0" len="12" pos="72"/>
          <note key="69" vol="197" pan="0" len="12" pos="84"/>
          <note key="75" vol="197" pan="0" len="12" pos="96"/>
          <note key="0" vol="100" pan="0" len="12" pos="96"/>
          <note key="76" vol="197" pan="0" len="12" pos="108"/>
          <note key="75" vol="197" pan="0" len="12" pos="120"/>
          <note key="73" vol="197" pan="0" len="12" pos="132"/>
          <note key="1" vol="100" pan="0" len="12" pos="132"/>
          <note key="75" vol="197" pan="0" len="12" pos="144"/>
          <note key="69" vol="197" pan="0" len="12" pos="156"/>
          <note key="71" vol="197" pan="0" len="12" pos="168"/>
          <note key="0" vol="100" pan="0" len="12" pos="168"/>
          <note key="73" vol="197" pan="0" len="12" pos="180"/>
        </pattern>
        <pattern name="lgtH1" muted="0" type="1" steps="16" pos="34752">
          <note key="80" vol="95" pan="0" len="12" pos="96"/>
          <note key="0" vol="95" pan="0" len="12" pos="96"/>
          <note key="81" vol="95" pan="0" len="12" pos="108"/>
          <note key="80" vol="95" pan="0" len="12" pos="120"/>
          <note key="78" vol="95" pan="0" len="12" pos="132"/>
          <note key="1" vol="95" pan="0" len="12" pos="132"/>
          <note key="80" vol="95" pan="0" len="12" pos="144"/>
          <note key="0" vol="95" pan="0" len="12" pos="144"/>
          <note key="78" vol="95" pan="0" len="12" pos="156"/>
          <note key="1" vol="95" pan="0" len="12" pos="156"/>
          <note key="76" vol="95" pan="0" len="12" pos="168"/>
          <note key="75" vol="95" pan="0" len="12" pos="180"/>
        </pattern>
        <pattern name="lgtH1" muted="0" type="1" steps="16" pos="37632">
          <note key="68" vol="197" pan="0" len="12" pos="0"/>
          <note key="1" vol="197" pan="0" len="12" pos="0"/>
          <note key="69" vol="197" pan="0" len="12" pos="12"/>
          <note key="68" vol="197" pan="0" len="12" pos="24"/>
          <note key="66" vol="197" pan="0" len="12" pos="36"/>
          <note key="69" vol="197" pan="0" len="12" pos="48"/>
          <note key="71" vol="197" pan="0" len="12" pos="60"/>
          <note key="69" vol="197" pan="0" len="12" pos="72"/>
          <note key="68" vol="197" pan="0" len="12" pos="84"/>
          <note key="71" vol="197" pan="0" len="12" pos="96"/>
          <note key="0" vol="197" pan="0" len="12" pos="96"/>
          <note key="73" vol="197" pan="0" len="12" pos="108"/>
          <note key="71" vol="197" pan="0" len="12" pos="120"/>
          <note key="1" vol="197" pan="0" len="12" pos="120"/>
          <note key="69" vol="197" pan="0" len="12" pos="132"/>
          <note key="73" vol="197" pan="0" len="12" pos="144"/>
          <note key="0" vol="197" pan="0" len="12" pos="144"/>
          <note key="75" vol="197" pan="0" len="12" pos="156"/>
          <note key="73" vol="197" pan="0" len="12" pos="168"/>
          <note key="1" vol="197" pan="0" len="12" pos="168"/>
          <note key="71" vol="197" pan="0" len="12" pos="180"/>
          <note key="76" vol="197" pan="0" len="12" pos="192"/>
          <note key="0" vol="197" pan="0" len="12" pos="192"/>
          <note key="73" vol="197" pan="0" len="12" pos="204"/>
          <note key="75" vol="197" pan="0" len="12" pos="216"/>
          <note key="1" vol="197" pan="0" len="12" pos="216"/>
          <note key="76" vol="197" pan="0" len="12" pos="228"/>
          <note key="78" vol="197" pan="0" len="12" pos="240"/>
          <note key="0" vol="197" pan="0" len="12" pos="240"/>
          <note key="75" vol="197" pan="0" len="12" pos="252"/>
          <note key="76" vol="197" pan="0" len="12" pos="264"/>
          <note key="1" vol="197" pan="0" len="12" pos="264"/>
          <note key="78" vol="197" pan="0" len="12" pos="276"/>
          <note key="81" vol="197" pan="0" len="12" pos="288"/>
          <note key="0" vol="197" pan="0" len="12" pos="288"/>
          <note key="80" vol="197" pan="0" len="12" pos="300"/>
          <note key="81" vol="197" pan="0" len="12" pos="312"/>
          <note key="83" vol="197" pan="0" len="12" pos="324"/>
          <note key="87" vol="197" pan="0" len="12" pos="336"/>
          <note key="0" vol="197" pan="0" len="12" pos="336"/>
          <note key="83" vol="197" pan="0" len="12" pos="348"/>
          <note key="78" vol="197" pan="0" len="12" pos="360"/>
          <note key="1" vol="197" pan="0" len="12" pos="360"/>
          <note key="75" vol="197" pan="0" len="12" pos="372"/>
        </pattern>
        <pattern name="lgtH1" muted="0" type="1" steps="16" pos="38784">
          <note key="66" vol="100" pan="0" len="12" pos="0"/>
          <note key="1" vol="100" pan="0" len="12" pos="0"/>
          <note key="68" vol="100" pan="0" len="12" pos="12"/>
          <note key="69" vol="100" pan="0" len="12" pos="24"/>
          <note key="71" vol="100" pan="0" len="12" pos="36"/>
          <note key="73" vol="100" pan="0" len="12" pos="48"/>
          <note key="0" vol="100" pan="0" len="12" pos="48"/>
          <note key="71" vol="100" pan="0" len="12" pos="60"/>
          <note key="69" vol="100" pan="0" len="12" pos="72"/>
          <note key="1" vol="100" pan="0" len="12" pos="72"/>
          <note key="68" vol="100" pan="0" len="12" pos="84"/>
          <note key="69" vol="100" pan="0" len="12" pos="96"/>
          <note key="71" vol="100" pan="0" len="12" pos="108"/>
          <note key="73" vol="100" pan="0" len="12" pos="120"/>
          <note key="75" vol="100" pan="0" len="12" pos="132"/>
          <note key="76" vol="100" pan="0" len="12" pos="144"/>
          <note key="0" vol="100" pan="0" len="12" pos="144"/>
          <note key="75" vol="100" pan="0" len="12" pos="156"/>
          <note key="73" vol="100" pan="0" len="12" pos="168"/>
          <note key="1" vol="100" pan="0" len="12" pos="168"/>
          <note key="71" vol="100" pan="0" len="12" pos="180"/>
          <note key="73" vol="100" pan="0" len="12" pos="192"/>
          <note key="75" vol="100" pan="0" len="12" pos="204"/>
          <note key="76" vol="100" pan="0" len="12" pos="216"/>
          <note key="78" vol="100" pan="0" len="12" pos="228"/>
          <note key="80" vol="100" pan="0" len="12" pos="240"/>
          <note key="0" vol="100" pan="0" len="12" pos="240"/>
          <note key="78" vol="100" pan="0" len="12" pos="252"/>
          <note key="76" vol="100" pan="0" len="12" pos="264"/>
          <note key="1" vol="100" pan="0" len="12" pos="264"/>
          <note key="75" vol="100" pan="0" len="12" pos="276"/>
          <note key="81" vol="100" pan="0" len="12" pos="288"/>
          <note key="0" vol="100" pan="0" len="12" pos="288"/>
          <note key="80" vol="100" pan="0" len="12" pos="300"/>
          <note key="78" vol="100" pan="0" len="12" pos="312"/>
          <note key="76" vol="100" pan="0" len="12" pos="324"/>
          <note key="83" vol="100" pan="0" len="12" pos="336"/>
          <note key="81" vol="100" pan="0" len="12" pos="348"/>
          <note key="80" vol="100" pan="0" len="12" pos="360"/>
          <note key="78" vol="100" pan="0" len="12" pos="372"/>
        </pattern>
        <pattern name="lgtH1" muted="0" type="1" steps="16" pos="39168">
          <note key="82" vol="78" pan="0" len="24" pos="0"/>
          <note key="0" vol="78" pan="0" len="24" pos="0"/>
          <note key="79" vol="78" pan="0" len="24" pos="24"/>
          <note key="75" vol="78" pan="0" len="24" pos="48"/>
          <note key="79" vol="78" pan="0" len="24" pos="72"/>
          <note key="75" vol="78" pan="0" len="24" pos="96"/>
          <note key="70" vol="78" pan="0" len="24" pos="120"/>
          <note key="75" vol="78" pan="0" len="24" pos="144"/>
          <note key="79" vol="78" pan="0" len="24" pos="168"/>
          <note key="80" vol="78" pan="0" len="48" pos="192"/>
          <note key="84" vol="78" pan="0" len="48" pos="240"/>
          <note key="85" vol="78" pan="0" len="48" pos="288"/>
          <note key="87" vol="78" pan="0" len="48" pos="336"/>
        </pattern>
        <pattern name="" muted="0" type="1" steps="16" pos="43200">
          <note key="0" vol="78" pan="0" len="72" pos="0"/>
          <note key="75" vol="78" pan="0" len="144" pos="960"/>
          <note key="78" vol="78" pan="0" len="48" pos="1104"/>
          <note key="77" vol="78" pan="0" len="144" pos="1152"/>
          <note key="82" vol="78" pan="0" len="48" pos="1296"/>
          <note key="82" vol="78" pan="0" len="144" pos="1344"/>
          <note key="80" vol="78" pan="0" len="24" pos="1488"/>
          <note key="78" vol="78" pan="0" len="24" pos="1512"/>
          <note key="77" vol="78" pan="0" len="48" pos="1536"/>
          <note key="78" vol="78" pan="0" len="48" pos="1584"/>
          <note key="73" vol="78" pan="0" len="48" pos="1632"/>
          <note key="70" vol="78" pan="0" len="48" pos="1680"/>
          <note key="71" vol="78" pan="0" len="96" pos="1728"/>
          <note key="75" vol="78" pan="0" len="48" pos="1824"/>
          <note key="78" vol="78" pan="0" len="48" pos="1872"/>
          <note key="78" vol="78" pan="0" len="96" pos="1920"/>
          <note key="77" vol="78" pan="0" len="48" pos="2016"/>
          <note key="78" vol="78" pan="0" len="48" pos="2064"/>
          <note key="85" vol="78" pan="0" len="72" pos="2112"/>
          <note key="83" vol="78" pan="0" len="72" pos="2184"/>
          <note key="82" vol="78" pan="0" len="48" pos="2256"/>
          <note key="80" vol="78" pan="0" len="192" pos="2304"/>
          <note key="78" vol="78" pan="0" len="72" pos="2496"/>
          <note key="77" vol="78" pan="0" len="72" pos="2568"/>
          <note key="78" vol="78" pan="0" len="48" pos="2640"/>
          <note key="82" vol="78" pan="0" len="144" pos="2688"/>
          <note key="77" vol="78" pan="0" len="48" pos="2832"/>
          <note key="75" vol="78" pan="0" len="240" pos="2880"/>
          <note key="78" vol="78" pan="0" len="48" pos="3120"/>
          <note key="80" vol="78" pan="0" len="48" pos="3168"/>
          <note key="82" vol="78" pan="0" len="48" pos="3216"/>
          <note key="83" vol="78" pan="0" len="72" pos="3264"/>
          <note key="82" vol="78" pan="0" len="72" pos="3336"/>
          <note key="80" vol="78" pan="0" len="48" pos="3408"/>
          <note key="78" vol="78" pan="0" len="48" pos="3456"/>
          <note key="75" vol="78" pan="0" len="48" pos="3504"/>
          <note key="78" vol="78" pan="0" len="48" pos="3552"/>
          <note key="82" vol="78" pan="0" len="48" pos="3600"/>
          <note key="80" vol="78" pan="0" len="192" pos="3648"/>
          <note key="73" vol="106" pan="0" len="12" pos="3840"/>
          <note key="71" vol="106" pan="0" len="12" pos="3852"/>
          <note key="70" vol="106" pan="0" len="12" pos="3864"/>
          <note key="68" vol="106" pan="0" len="12" pos="3876"/>
          <note key="71" vol="106" pan="0" len="12" pos="3888"/>
          <note key="70" vol="106" pan="0" len="12" pos="3900"/>
          <note key="68" vol="106" pan="0" len="12" pos="3912"/>
          <note key="66" vol="106" pan="0" len="12" pos="3924"/>
          <note key="70" vol="106" pan="0" len="12" pos="3936"/>
          <note key="68" vol="106" pan="0" len="12" pos="3948"/>
          <note key="66" vol="106" pan="0" len="12" pos="3960"/>
          <note key="65" vol="106" pan="0" len="12" pos="3972"/>
          <note key="68" vol="106" pan="0" len="12" pos="3984"/>
          <note key="66" vol="106" pan="0" len="12" pos="3996"/>
          <note key="65" vol="106" pan="0" len="12" pos="4008"/>
          <note key="66" vol="106" pan="0" len="12" pos="4020"/>
        </pattern>
        <pattern name="" muted="0" type="1" steps="16" pos="40320">
          <note key="69" vol="78" pan="0" len="12" pos="0"/>
          <note key="1" vol="200" pan="0" len="48" pos="0"/>
          <note key="68" vol="78" pan="0" len="12" pos="12"/>
          <note key="66" vol="78" pan="0" len="12" pos="24"/>
          <note key="68" vol="78" pan="0" len="12" pos="36"/>
          <note key="69" vol="78" pan="0" len="12" pos="48"/>
          <note key="68" vol="78" pan="0" len="12" pos="60"/>
          <note key="66" vol="78" pan="0" len="12" pos="72"/>
          <note key="68" vol="78" pan="0" len="12" pos="84"/>
          <note key="73" vol="78" pan="0" len="12" pos="96"/>
          <note key="71" vol="78" pan="0" len="12" pos="108"/>
          <note key="69" vol="78" pan="0" len="12" pos="120"/>
          <note key="71" vol="78" pan="0" len="12" pos="132"/>
          <note key="73" vol="78" pan="0" len="12" pos="144"/>
          <note key="75" vol="78" pan="0" len="12" pos="156"/>
          <note key="76" vol="78" pan="0" len="12" pos="168"/>
          <note key="75" vol="78" pan="0" len="12" pos="180"/>
          <note key="76" vol="78" pan="0" len="12" pos="192"/>
          <note key="75" vol="78" pan="0" len="12" pos="204"/>
          <note key="73" vol="78" pan="0" len="12" pos="216"/>
          <note key="75" vol="78" pan="0" len="12" pos="228"/>
          <note key="76" vol="78" pan="0" len="12" pos="240"/>
          <note key="0" vol="200" pan="0" len="48" pos="240"/>
          <note key="75" vol="78" pan="0" len="12" pos="252"/>
          <note key="73" vol="78" pan="0" len="12" pos="264"/>
          <note key="75" vol="78" pan="0" len="12" pos="276"/>
          <note key="76" vol="78" pan="0" len="12" pos="288"/>
          <note key="78" vol="78" pan="0" len="12" pos="300"/>
          <note key="80" vol="78" pan="0" len="12" pos="312"/>
          <note key="81" vol="78" pan="0" len="12" pos="324"/>
          <note key="83" vol="78" pan="0" len="12" pos="336"/>
          <note key="76" vol="78" pan="0" len="12" pos="348"/>
          <note key="1" vol="200" pan="0" len="12" pos="348"/>
          <note key="75" vol="78" pan="0" len="12" pos="360"/>
          <note key="76" vol="78" pan="0" len="12" pos="372"/>
        </pattern>
        <pattern name="lgtH1" muted="0" type="1" steps="16" pos="40704">
          <note key="83" vol="78" pan="0" len="48" pos="0"/>
          <note key="0" vol="100" pan="0" len="48" pos="0"/>
          <note key="81" vol="78" pan="0" len="12" pos="48"/>
          <note key="83" vol="78" pan="0" len="12" pos="60"/>
          <note key="81" vol="78" pan="0" len="48" pos="72"/>
          <note key="80" vol="78" pan="0" len="12" pos="120"/>
          <note key="81" vol="78" pan="0" len="12" pos="132"/>
          <note key="80" vol="78" pan="0" len="12" pos="144"/>
          <note key="0" vol="78" pan="0" len="12" pos="144"/>
          <note key="78" vol="78" pan="0" len="12" pos="156"/>
          <note key="1" vol="78" pan="0" len="12" pos="156"/>
          <note key="76" vol="78" pan="0" len="12" pos="168"/>
          <note key="80" vol="78" pan="0" len="12" pos="180"/>
          <note key="78" vol="78" pan="0" len="48" pos="192"/>
          <note key="0" vol="78" pan="0" len="12" pos="192"/>
          <note key="76" vol="78" pan="0" len="12" pos="240"/>
          <note key="1" vol="78" pan="0" len="12" pos="240"/>
          <note key="75" vol="78" pan="0" len="12" pos="252"/>
          <note key="76" vol="78" pan="0" len="12" pos="264"/>
          <note key="78" vol="78" pan="0" len="12" pos="276"/>
          <note key="80" vol="78" pan="0" len="12" pos="288"/>
          <note key="0" vol="78" pan="0" len="12" pos="288"/>
          <note key="81" vol="78" pan="0" len="12" pos="300"/>
          <note key="80" vol="78" pan="0" len="12" pos="312"/>
          <note key="78" vol="78" pan="0" len="12" pos="324"/>
          <note key="80" vol="78" pan="0" len="12" pos="336"/>
          <note key="78" vol="78" pan="0" len="12" pos="348"/>
          <note key="76" vol="78" pan="0" len="12" pos="360"/>
          <note key="1" vol="78" pan="0" len="12" pos="360"/>
          <note key="75" vol="78" pan="0" len="12" pos="372"/>
        </pattern>
        <pattern name="lgtH1" muted="0" type="1" steps="16" pos="41088">
          <note key="80" vol="78" pan="0" len="12" pos="0"/>
          <note key="0" vol="78" pan="0" len="12" pos="0"/>
          <note key="76" vol="78" pan="0" len="12" pos="12"/>
          <note key="75" vol="78" pan="0" len="12" pos="24"/>
          <note key="1" vol="78" pan="0" len="12" pos="24"/>
          <note key="76" vol="78" pan="0" len="12" pos="36"/>
          <note key="73" vol="78" pan="0" len="12" pos="48"/>
          <note key="76" vol="78" pan="0" len="12" pos="60"/>
          <note key="75" vol="78" pan="0" len="12" pos="72"/>
          <note key="76" vol="78" pan="0" len="12" pos="84"/>
          <note key="80" vol="78" pan="0" len="12" pos="96"/>
          <note key="0" vol="78" pan="0" len="12" pos="96"/>
          <note key="76" vol="78" pan="0" len="12" pos="108"/>
          <note key="75" vol="78" pan="0" len="12" pos="120"/>
          <note key="1" vol="78" pan="0" len="12" pos="120"/>
          <note key="76" vol="78" pan="0" len="12" pos="132"/>
          <note key="73" vol="78" pan="0" len="12" pos="144"/>
          <note key="76" vol="78" pan="0" len="12" pos="156"/>
          <note key="75" vol="78" pan="0" len="12" pos="168"/>
          <note key="76" vol="78" pan="0" len="12" pos="180"/>
          <note key="80" vol="78" pan="0" len="12" pos="192"/>
          <note key="0" vol="78" pan="0" len="12" pos="192"/>
          <note key="75" vol="78" pan="0" len="12" pos="204"/>
          <note key="73" vol="78" pan="0" len="12" pos="216"/>
          <note key="1" vol="78" pan="0" len="12" pos="216"/>
          <note key="75" vol="78" pan="0" len="12" pos="228"/>
          <note key="71" vol="78" pan="0" len="12" pos="240"/>
          <note key="75" vol="78" pan="0" len="12" pos="252"/>
          <note key="73" vol="78" pan="0" len="12" pos="264"/>
          <note key="75" vol="78" pan="0" len="12" pos="276"/>
          <note key="80" vol="78" pan="0" len="12" pos="288"/>
          <note key="0" vol="78" pan="0" len="12" pos="288"/>
          <note key="75" vol="78" pan="0" len="12" pos="300"/>
          <note key="73" vol="78" pan="0" len="12" pos="312"/>
          <note key="1" vol="78" pan="0" len="12" pos="312"/>
          <note key="75" vol="78" pan="0" len="12" pos="324"/>
          <note key="71" vol="78" pan="0" len="12" pos="336"/>
          <note key="75" vol="78" pan="0" len="12" pos="348"/>
          <note key="73" vol="78" pan="0" len="12" pos="360"/>
          <note key="75" vol="78" pan="0" len="12" pos="372"/>
        </pattern>
        <pattern name="lgtH1" muted="0" type="1" steps="16" pos="41472">
          <note key="82" vol="78" pan="0" len="12" pos="0"/>
          <note key="0" vol="78" pan="0" len="12" pos="0"/>
          <note key="78" vol="78" pan="0" len="12" pos="12"/>
          <note key="73" vol="78" pan="0" len="12" pos="24"/>
          <note key="1" vol="78" pan="0" len="12" pos="24"/>
          <note key="78" vol="78" pan="0" len="12" pos="36"/>
          <note key="70" vol="78" pan="0" len="12" pos="48"/>
          <note key="78" vol="78" pan="0" len="12" pos="60"/>
          <note key="73" vol="78" pan="0" len="12" pos="72"/>
          <note key="78" vol="78" pan="0" len="12" pos="84"/>
          <note key="82" vol="78" pan="0" len="12" pos="96"/>
          <note key="78" vol="78" pan="0" len="12" pos="108"/>
          <note key="73" vol="78" pan="0" len="12" pos="120"/>
          <note key="78" vol="78" pan="0" len="12" pos="132"/>
          <note key="70" vol="78" pan="0" len="12" pos="144"/>
          <note key="78" vol="78" pan="0" len="12" pos="156"/>
          <note key="73" vol="78" pan="0" len="12" pos="168"/>
          <note key="78" vol="78" pan="0" len="12" pos="180"/>
        </pattern>
        <pattern name="" muted="0" type="1" steps="16" pos="41664">
          <note key="82" vol="78" pan="0" len="12" pos="0"/>
          <note key="0" vol="78" pan="0" len="12" pos="0"/>
          <note key="78" vol="78" pan="0" len="12" pos="12"/>
          <note key="73" vol="78" pan="0" len="12" pos="24"/>
          <note key="1" vol="78" pan="0" len="12" pos="24"/>
          <note key="70" vol="78" pan="0" len="12" pos="36"/>
          <note key="73" vol="78" pan="0" len="12" pos="48"/>
          <note key="70" vol="78" pan="0" len="12" pos="60"/>
          <note key="66" vol="78" pan="0" len="12" pos="72"/>
          <note key="70" vol="78" pan="0" len="12" pos="84"/>
          <note key="78" vol="78" pan="0" len="12" pos="96"/>
          <note key="73" vol="78" pan="0" len="12" pos="108"/>
          <note key="70" vol="78" pan="0" len="12" pos="120"/>
          <note key="73" vol="78" pan="0" len="12" pos="132"/>
          <note key="78" vol="78" pan="0" len="12" pos="144"/>
          <note key="82" vol="78" pan="0" len="12" pos="156"/>
          <note key="1" vol="78" pan="0" len="12" pos="156"/>
          <note key="85" vol="78" pan="0" len="12" pos="168"/>
          <note key="82" vol="78" pan="0" len="12" pos="180"/>
        </pattern>
        <pattern name="lgtH1" muted="0" type="1" steps="16" pos="41856">
          <note key="86" vol="78" pan="0" len="24" pos="0"/>
          <note key="0" vol="78" pan="0" len="48" pos="0"/>
          <note key="81" vol="78" pan="0" len="24" pos="24"/>
          <note key="76" vol="78" pan="0" len="24" pos="48"/>
          <note key="83" vol="78" pan="0" len="24" pos="72"/>
          <note key="85" vol="78" pan="0" len="24" pos="96"/>
          <note key="86" vol="78" pan="0" len="24" pos="120"/>
          <note key="85" vol="78" pan="0" len="24" pos="144"/>
          <note key="83" vol="78" pan="0" len="24" pos="168"/>
          <note key="85" vol="78" pan="0" len="12" pos="192"/>
          <note key="0" vol="78" pan="0" len="24" pos="192"/>
          <note key="81" vol="78" pan="0" len="12" pos="204"/>
          <note key="76" vol="78" pan="0" len="12" pos="216"/>
          <note key="1" vol="78" pan="0" len="24" pos="216"/>
          <note key="73" vol="78" pan="0" len="12" pos="228"/>
          <note key="69" vol="78" pan="0" len="12" pos="240"/>
          <note key="73" vol="78" pan="0" len="12" pos="252"/>
          <note key="81" vol="78" pan="0" len="12" pos="264"/>
          <note key="0" vol="78" pan="0" len="24" pos="264"/>
          <note key="76" vol="78" pan="0" len="12" pos="276"/>
          <note key="73" vol="78" pan="0" len="12" pos="288"/>
          <note key="1" vol="78" pan="0" len="24" pos="288"/>
          <note key="69" vol="78" pan="0" len="12" pos="300"/>
          <note key="73" vol="78" pan="0" len="12" pos="312"/>
          <note key="76" vol="78" pan="0" len="12" pos="324"/>
          <note key="85" vol="78" pan="0" len="12" pos="336"/>
          <note key="0" vol="78" pan="0" len="24" pos="336"/>
          <note key="83" vol="78" pan="0" len="12" pos="348"/>
          <note key="81" vol="78" pan="0" len="12" pos="360"/>
          <note key="1" vol="78" pan="0" len="24" pos="360"/>
          <note key="83" vol="78" pan="0" len="12" pos="372"/>
          <note key="87" vol="78" pan="0" len="384" pos="384"/>
          <note key="0" vol="78" pan="0" len="24" pos="384"/>
        </pattern>
      </track>
      <track name="lgtH2" muted="0" type="0" solo="0">
        <instrumenttrack vol="200" pitch="0" pitchrange="1" basenote="57" pan="100" fxch="12" usemasterpitch="1">
          <instrument name="carlapatchbay">
            <carlapatchbay>
              <CARLA-PROJECT VERSION="2.0">
                <EngineSettings>
                  <ForceStereo>false</ForceStereo>
                  <PreferPluginBridges>false</PreferPluginBridges>
                  <PreferUiBridges>true</PreferUiBridges>
                  <UIsAlwaysOnTop>false</UIsAlwaysOnTop>
                  <MaxParameters>200</MaxParameters>
                  <UIBridgesTimeout>4000</UIBridgesTimeout>
                  <LADSPA_PATH>/home/huggypie/.ladspa:/usr/lib/ladspa:/usr/local/lib/ladspa</LADSPA_PATH>
                  <DSSI_PATH>/home/huggypie/.dssi:/usr/lib/dssi:/usr/local/lib/dssi</DSSI_PATH>
                  <LV2_PATH>/home/huggypie/.lv2:/usr/lib/lv2:/usr/local/lib/lv2</LV2_PATH>
                  <VST2_PATH>/home/huggypie/.vst:/home/huggypie/.wine/drive_c/Program Files/VstPlugins:/usr/lib/lxvst:/usr/lib/vst:/usr/local/lib/lxvst:/usr/local/lib/vst/home/huggypie/.lxvst</VST2_PATH>
                  <VST3_PATH>/home/huggypie/.vst3:/home/huggypie/.wine/drive_c/Program Files/Common Files/VST3:/usr/lib/vst3:/usr/local/lib/vst3</VST3_PATH>
                  <SF2_PATH>/home/huggypie/.sounds/sf2/home/huggypie/.sounds/sf3:/home/huggypie/samples/soundfonts:/usr/share/soundfonts:/usr/share/sounds/sf2:/usr/share/sounds/sf3</SF2_PATH>
                  <SFZ_PATH>/home/huggypie/.sounds/sfz:/home/huggypie/samples:/home/huggypie/samples:/home/huggypie/samples/VSCO-2-CE-SFZ/VSCO-2-CE-SFZ:/usr/share/sounds/sfz</SFZ_PATH>
                </EngineSettings>
                <!-- sfizz -->
                <Plugin>
                  <Info>
                    <Type>LV2</Type>
                    <Name>sfizz</Name>
                    <URI>http://sfztools.github.io/sfizz</URI>
                  </Info>
                  <Data>
                    <Active>Yes</Active>
                    <ControlChannel>1</ControlChannel>
                    <Options>0x3f0</Options>
                    <Parameter>
                      <Index>0</Index>
                      <Name>Volume</Name>
                      <Symbol>volume</Symbol>
                      <Value>0</Value>
                    </Parameter>
                    <Parameter>
                      <Index>1</Index>
                      <Name>Polyphony</Name>
                      <Symbol>num_voices</Symbol>
                      <Value>64</Value>
                    </Parameter>
                    <Parameter>
                      <Index>2</Index>
                      <Name>Internal oversampling factor</Name>
                      <Symbol>oversampling</Symbol>
                      <Value>1</Value>
                    </Parameter>
                    <Parameter>
                      <Index>3</Index>
                      <Name>Preload size</Name>
                      <Symbol>preload_size</Symbol>
                      <Value>8192</Value>
                    </Parameter>
                    <Parameter>
                      <Index>5</Index>
                      <Name>Scala root key</Name>
                      <Symbol>scala_root_key</Symbol>
                      <Value>60</Value>
                    </Parameter>
                    <Parameter>
                      <Index>6</Index>
                      <Name>Tuning frequency</Name>
                      <Symbol>tuning_frequency</Symbol>
                      <Value>440</Value>
                    </Parameter>
                    <Parameter>
                      <Index>7</Index>
                      <Name>Stretched tuning</Name>
                      <Symbol>stretched_tuning</Symbol>
                      <Value>0</Value>
                    </Parameter>
                    <CustomData>
                      <Type>http://lv2plug.in/ns/ext/atom#Path</Type>
                      <Key>http://sfztools.github.io/sfizz:sfzfile</Key>
                      <Value>../samples/fakeguitar/_fakeguitar2_integrated.sfz</Value>
                    </CustomData>
                    <CustomData>
                      <Type>http://lv2plug.in/ns/ext/atom#Int</Type>
                      <Key>http://sfztools.github.io/sfizz:numvoices</Key>
                      <Value>QAAAAA==</Value>
                    </CustomData>
                    <CustomData>
                      <Type>http://lv2plug.in/ns/ext/atom#Int</Type>
                      <Key>http://sfztools.github.io/sfizz:preload_size</Key>
                      <Value>ACAAAA==</Value>
                    </CustomData>
                    <CustomData>
                      <Type>http://lv2plug.in/ns/ext/atom#Int</Type>
                      <Key>http://sfztools.github.io/sfizz:oversampling</Key>
                      <Value>AQAAAA==</Value>
                    </CustomData>
                    <CustomData>
                      <Type>http://lv2plug.in/ns/ext/atom#Path</Type>
                      <Key>http://sfztools.github.io/sfizz:tuningfile</Key>
                      <Value>../../../usr/lib/lv2/sfizz.lv2//Contents/Resources/DefaultScale.scl</Value>
                    </CustomData>
                  </Data>
                </Plugin>
                <Patchbay>
                  <Connection>
                    <Source>Midi Input:Capture 1</Source>
                    <Target>sfizz:events-in</Target>
                  </Connection>
                  <Connection>
                    <Source>sfizz:Left Output</Source>
                    <Target>Audio Output:Left</Target>
                  </Connection>
                  <Connection>
                    <Source>sfizz:Right Output</Source>
                    <Target>Audio Output:Right</Target>
                  </Connection>
                </Patchbay>
              </CARLA-PROJECT>
            </carlapatchbay>
          </instrument>
          <eldata ftype="0" fres="0.5" fwet="0" fcut="14000">
            <elvol dec="0.5" sustain="0.5" pdel="0" lpdel="0" rel="0.1" lspd="0.1" userwavefile="" hold="0.5" lamt="0" lspd_numerator="4" lspd_syncmode="0" lshp="0" amt="0" x100="0" latt="0" lspd_denominator="4" ctlenvamt="0" att="0"/>
            <elcut dec="0.5" sustain="0.5" pdel="0" lpdel="0" rel="0.1" lspd="0.1" userwavefile="" hold="0.5" lamt="0" lspd_numerator="4" lspd_syncmode="0" lshp="0" amt="0" x100="0" latt="0" lspd_denominator="4" ctlenvamt="0" att="0"/>
            <elres dec="0.5" sustain="0.5" pdel="0" lpdel="0" rel="0.1" lspd="0.1" userwavefile="" hold="0.5" lamt="0" lspd_numerator="4" lspd_syncmode="0" lshp="0" amt="0" x100="0" latt="0" lspd_denominator="4" ctlenvamt="0" att="0"/>
          </eldata>
          <chordcreator chord="0" chord-enabled="0" chordrange="1"/>
          <arpeggiator arprange="1" arptime_denominator="4" arpgate="100" arptime_syncmode="0" arp="0" arpmode="0" arpmiss="0" arpdir="0" arptime_numerator="4" arp-enabled="0" arpcycle="0" arpskip="0" arptime="200"/>
          <midiport outputchannel="1" inputcontroller="0" outputcontroller="0" basevelocity="63" fixedinputvelocity="-1" fixedoutputvelocity="-1" outputprogram="1" readable="0" writable="0" fixedoutputnote="-1" inputchannel="0"/>
          <fxchain numofeffects="0" enabled="0"/>
        </instrumenttrack>
        <pattern name="lgtH2" muted="0" type="1" steps="16" pos="5376">
          <note key="68" vol="78" pan="0" len="24" pos="0"/>
          <note key="0" vol="78" pan="0" len="24" pos="0"/>
          <note key="71" vol="78" pan="0" len="24" pos="24"/>
          <note key="68" vol="78" pan="0" len="24" pos="48"/>
          <note key="75" vol="78" pan="0" len="48" pos="72"/>
          <note key="68" vol="78" pan="0" len="24" pos="120"/>
          <note key="71" vol="78" pan="0" len="24" pos="144"/>
          <note key="75" vol="78" pan="0" len="24" pos="168"/>
          <note key="76" vol="78" pan="0" len="24" pos="192"/>
          <note key="75" vol="78" pan="0" len="24" pos="216"/>
          <note key="73" vol="78" pan="0" len="24" pos="240"/>
          <note key="71" vol="78" pan="0" len="24" pos="264"/>
          <note key="75" vol="78" pan="0" len="24" pos="288"/>
          <note key="73" vol="78" pan="0" len="24" pos="312"/>
          <note key="71" vol="78" pan="0" len="24" pos="336"/>
          <note key="68" vol="78" pan="0" len="24" pos="360"/>
        </pattern>
        <pattern name="lgtH2" muted="0" type="1" steps="16" pos="6144">
          <note key="75" vol="78" pan="0" len="24" pos="0"/>
          <note key="0" vol="78" pan="0" len="24" pos="0"/>
          <note key="64" vol="78" pan="0" len="24" pos="24"/>
          <note key="68" vol="78" pan="0" len="24" pos="48"/>
          <note key="71" vol="78" pan="0" len="48" pos="72"/>
          <note key="68" vol="78" pan="0" len="24" pos="120"/>
          <note key="71" vol="78" pan="0" len="24" pos="144"/>
          <note key="75" vol="78" pan="0" len="24" pos="168"/>
          <note key="1" vol="78" pan="0" len="24" pos="180"/>
          <note key="73" vol="78" pan="0" len="12" pos="192"/>
          <note key="73" vol="78" pan="0" len="12" pos="204"/>
          <note key="68" vol="78" pan="0" len="12" pos="216"/>
          <note key="68" vol="78" pan="0" len="12" pos="228"/>
          <note key="64" vol="78" pan="0" len="12" pos="240"/>
          <note key="64" vol="78" pan="0" len="12" pos="252"/>
          <note key="61" vol="78" pan="0" len="12" pos="264"/>
          <note key="61" vol="78" pan="0" len="12" pos="276"/>
          <note key="66" vol="78" pan="0" len="12" pos="288"/>
          <note key="66" vol="78" pan="0" len="12" pos="300"/>
          <note key="64" vol="78" pan="0" len="12" pos="312"/>
          <note key="64" vol="78" pan="0" len="12" pos="324"/>
          <note key="68" vol="78" pan="0" len="12" pos="336"/>
          <note key="68" vol="78" pan="0" len="12" pos="348"/>
          <note key="64" vol="78" pan="0" len="12" pos="360"/>
          <note key="64" vol="78" pan="0" len="12" pos="372"/>
          <note key="0" vol="78" pan="0" len="24" pos="384"/>
        </pattern>
        <pattern name="lgtH2" muted="0" type="1" steps="16" pos="7104">
          <note key="0" vol="78" pan="0" len="72" pos="0"/>
          <note key="64" vol="78" pan="0" len="48" pos="96"/>
          <note key="68" vol="78" pan="0" len="48" pos="144"/>
          <note key="68" vol="78" pan="0" len="96" pos="192"/>
          <note key="68" vol="78" pan="0" len="24" pos="288"/>
          <note key="64" vol="78" pan="0" len="24" pos="312"/>
          <note key="68" vol="78" pan="0" len="24" pos="336"/>
          <note key="76" vol="78" pan="0" len="168" pos="360"/>
          <note key="76" vol="78" pan="0" len="24" pos="528"/>
          <note key="75" vol="78" pan="0" len="24" pos="552"/>
          <note key="73" vol="78" pan="0" len="48" pos="576"/>
          <note key="70" vol="78" pan="0" len="48" pos="624"/>
          <note key="66" vol="78" pan="0" len="48" pos="672"/>
          <note key="63" vol="78" pan="0" len="48" pos="720"/>
          <note key="66" vol="78" pan="0" len="96" pos="768"/>
          <note key="64" vol="78" pan="0" len="96" pos="864"/>
          <note key="68" vol="78" pan="0" len="144" pos="960"/>
          <note key="73" vol="78" pan="0" len="48" pos="1104"/>
          <note key="71" vol="78" pan="0" len="144" pos="1152"/>
          <note key="76" vol="78" pan="0" len="48" pos="1296"/>
          <note key="76" vol="78" pan="0" len="144" pos="1344"/>
          <note key="75" vol="78" pan="0" len="24" pos="1488"/>
          <note key="73" vol="78" pan="0" len="24" pos="1512"/>
          <note key="71" vol="78" pan="0" len="48" pos="1536"/>
          <note key="73" vol="78" pan="0" len="48" pos="1584"/>
          <note key="68" vol="78" pan="0" len="48" pos="1632"/>
          <note key="64" vol="78" pan="0" len="48" pos="1680"/>
          <note key="66" vol="78" pan="0" len="96" pos="1728"/>
          <note key="69" vol="78" pan="0" len="48" pos="1824"/>
          <note key="73" vol="78" pan="0" len="48" pos="1872"/>
          <note key="73" vol="78" pan="0" len="96" pos="1920"/>
          <note key="71" vol="78" pan="0" len="48" pos="2016"/>
          <note key="73" vol="78" pan="0" len="48" pos="2064"/>
          <note key="80" vol="78" pan="0" len="72" pos="2112"/>
          <note key="78" vol="78" pan="0" len="72" pos="2184"/>
          <note key="76" vol="78" pan="0" len="48" pos="2256"/>
          <note key="75" vol="78" pan="0" len="192" pos="2304"/>
          <note key="73" vol="78" pan="0" len="72" pos="2496"/>
          <note key="71" vol="78" pan="0" len="72" pos="2568"/>
          <note key="73" vol="78" pan="0" len="48" pos="2640"/>
          <note key="76" vol="78" pan="0" len="144" pos="2688"/>
          <note key="71" vol="78" pan="0" len="48" pos="2832"/>
          <note key="70" vol="78" pan="0" len="240" pos="2880"/>
          <note key="73" vol="78" pan="0" len="48" pos="3120"/>
          <note key="75" vol="78" pan="0" len="48" pos="3168"/>
          <note key="76" vol="78" pan="0" len="48" pos="3216"/>
          <note key="78" vol="78" pan="0" len="72" pos="3264"/>
          <note key="76" vol="78" pan="0" len="72" pos="3336"/>
          <note key="75" vol="78" pan="0" len="48" pos="3408"/>
          <note key="73" vol="78" pan="0" len="48" pos="3456"/>
          <note key="68" vol="78" pan="0" len="48" pos="3504"/>
          <note key="73" vol="78" pan="0" len="48" pos="3552"/>
          <note key="76" vol="78" pan="0" len="48" pos="3600"/>
          <note key="75" vol="78" pan="0" len="192" pos="3648"/>
          <note key="71" vol="78" pan="0" len="96" pos="3840"/>
          <note key="68" vol="78" pan="0" len="96" pos="3936"/>
          <note key="68" vol="78" pan="0" len="384" pos="4032"/>
        </pattern>
        <pattern name="lgtH2" muted="0" type="1" steps="16" pos="13056">
          <note key="68" vol="78" pan="0" len="24" pos="0"/>
          <note key="0" vol="78" pan="0" len="24" pos="0"/>
          <note key="71" vol="78" pan="0" len="24" pos="24"/>
          <note key="68" vol="78" pan="0" len="24" pos="48"/>
          <note key="75" vol="78" pan="0" len="48" pos="72"/>
          <note key="68" vol="78" pan="0" len="24" pos="120"/>
          <note key="71" vol="78" pan="0" len="24" pos="144"/>
          <note key="75" vol="78" pan="0" len="24" pos="168"/>
          <note key="76" vol="78" pan="0" len="24" pos="192"/>
          <note key="75" vol="78" pan="0" len="24" pos="216"/>
          <note key="73" vol="78" pan="0" len="24" pos="240"/>
          <note key="71" vol="78" pan="0" len="24" pos="264"/>
          <note key="75" vol="78" pan="0" len="24" pos="288"/>
          <note key="73" vol="78" pan="0" len="24" pos="312"/>
          <note key="71" vol="78" pan="0" len="24" pos="336"/>
          <note key="68" vol="78" pan="0" len="24" pos="360"/>
        </pattern>
        <pattern name="lgtH2" muted="0" type="1" steps="16" pos="13824">
          <note key="75" vol="78" pan="0" len="24" pos="0"/>
          <note key="0" vol="78" pan="0" len="12" pos="0"/>
          <note key="1" vol="78" pan="0" len="12" pos="12"/>
          <note key="64" vol="78" pan="0" len="12" pos="24"/>
          <note key="64" vol="78" pan="0" len="12" pos="36"/>
          <note key="68" vol="78" pan="0" len="24" pos="48"/>
          <note key="0" vol="78" pan="0" len="12" pos="48"/>
          <note key="71" vol="78" pan="0" len="48" pos="72"/>
          <note key="68" vol="78" pan="0" len="24" pos="120"/>
          <note key="71" vol="78" pan="0" len="24" pos="144"/>
          <note key="75" vol="78" pan="0" len="24" pos="168"/>
          <note key="73" vol="78" pan="0" len="24" pos="192"/>
          <note key="68" vol="78" pan="0" len="24" pos="216"/>
          <note key="64" vol="78" pan="0" len="24" pos="240"/>
          <note key="61" vol="78" pan="0" len="24" pos="264"/>
          <note key="66" vol="78" pan="0" len="24" pos="288"/>
          <note key="64" vol="78" pan="0" len="24" pos="312"/>
          <note key="68" vol="78" pan="0" len="24" pos="336"/>
          <note key="64" vol="78" pan="0" len="24" pos="360"/>
        </pattern>
        <pattern name="lgtH2" muted="0" type="1" steps="16" pos="14784">
          <note key="0" vol="78" pan="0" len="72" pos="0"/>
          <note key="64" vol="78" pan="0" len="48" pos="96"/>
          <note key="68" vol="78" pan="0" len="48" pos="144"/>
          <note key="68" vol="78" pan="0" len="96" pos="192"/>
          <note key="68" vol="78" pan="0" len="24" pos="288"/>
          <note key="64" vol="78" pan="0" len="24" pos="312"/>
          <note key="68" vol="78" pan="0" len="24" pos="336"/>
          <note key="76" vol="78" pan="0" len="168" pos="360"/>
          <note key="76" vol="78" pan="0" len="24" pos="528"/>
          <note key="75" vol="78" pan="0" len="24" pos="552"/>
          <note key="73" vol="78" pan="0" len="48" pos="576"/>
          <note key="70" vol="78" pan="0" len="48" pos="624"/>
          <note key="66" vol="78" pan="0" len="48" pos="672"/>
          <note key="63" vol="78" pan="0" len="48" pos="720"/>
          <note key="66" vol="78" pan="0" len="96" pos="768"/>
          <note key="64" vol="78" pan="0" len="96" pos="864"/>
          <note key="68" vol="78" pan="0" len="144" pos="960"/>
          <note key="73" vol="78" pan="0" len="48" pos="1104"/>
          <note key="71" vol="78" pan="0" len="144" pos="1152"/>
          <note key="76" vol="78" pan="0" len="48" pos="1296"/>
          <note key="76" vol="78" pan="0" len="144" pos="1344"/>
          <note key="75" vol="78" pan="0" len="24" pos="1488"/>
          <note key="73" vol="78" pan="0" len="24" pos="1512"/>
          <note key="71" vol="78" pan="0" len="48" pos="1536"/>
          <note key="73" vol="78" pan="0" len="48" pos="1584"/>
          <note key="68" vol="78" pan="0" len="48" pos="1632"/>
          <note key="64" vol="78" pan="0" len="48" pos="1680"/>
          <note key="66" vol="78" pan="0" len="96" pos="1728"/>
          <note key="69" vol="78" pan="0" len="48" pos="1824"/>
          <note key="73" vol="78" pan="0" len="48" pos="1872"/>
          <note key="73" vol="78" pan="0" len="96" pos="1920"/>
          <note key="71" vol="78" pan="0" len="48" pos="2016"/>
          <note key="73" vol="78" pan="0" len="48" pos="2064"/>
          <note key="80" vol="78" pan="0" len="72" pos="2112"/>
          <note key="78" vol="78" pan="0" len="72" pos="2184"/>
          <note key="76" vol="78" pan="0" len="48" pos="2256"/>
          <note key="75" vol="78" pan="0" len="192" pos="2304"/>
          <note key="73" vol="78" pan="0" len="72" pos="2496"/>
          <note key="71" vol="78" pan="0" len="72" pos="2568"/>
          <note key="73" vol="78" pan="0" len="48" pos="2640"/>
          <note key="76" vol="78" pan="0" len="144" pos="2688"/>
          <note key="71" vol="78" pan="0" len="48" pos="2832"/>
          <note key="70" vol="78" pan="0" len="240" pos="2880"/>
          <note key="73" vol="78" pan="0" len="48" pos="3120"/>
          <note key="75" vol="78" pan="0" len="48" pos="3168"/>
          <note key="76" vol="78" pan="0" len="48" pos="3216"/>
          <note key="78" vol="78" pan="0" len="72" pos="3264"/>
          <note key="76" vol="78" pan="0" len="72" pos="3336"/>
          <note key="75" vol="78" pan="0" len="48" pos="3408"/>
          <note key="73" vol="78" pan="0" len="48" pos="3456"/>
          <note key="68" vol="78" pan="0" len="48" pos="3504"/>
          <note key="73" vol="78" pan="0" len="48" pos="3552"/>
          <note key="76" vol="78" pan="0" len="48" pos="3600"/>
          <note key="75" vol="78" pan="0" len="192" pos="3648"/>
          <note key="71" vol="78" pan="0" len="96" pos="3840"/>
          <note key="68" vol="78" pan="0" len="96" pos="3936"/>
        </pattern>
        <pattern name="lgtH2" muted="0" type="1" steps="16" pos="18816">
          <note key="68" vol="78" pan="0" len="336" pos="0"/>
          <note key="61" vol="78" pan="0" len="48" pos="336"/>
          <note key="59" vol="78" pan="0" len="288" pos="384"/>
          <note key="52" vol="78" pan="0" len="48" pos="672"/>
          <note key="56" vol="78" pan="0" len="48" pos="720"/>
          <note key="58" vol="78" pan="0" len="240" pos="768"/>
          <note key="56" vol="78" pan="0" len="48" pos="1008"/>
          <note key="58" vol="78" pan="0" len="48" pos="1056"/>
          <note key="64" vol="78" pan="0" len="48" pos="1104"/>
          <note key="62" vol="78" pan="0" len="192" pos="1152"/>
          <note key="66" vol="78" pan="0" len="48" pos="1344"/>
          <note key="64" vol="78" pan="0" len="24" pos="1392"/>
          <note key="64" vol="78" pan="0" len="12" pos="1416"/>
          <note key="66" vol="78" pan="0" len="12" pos="1424"/>
          <note key="64" vol="78" pan="0" len="12" pos="1432"/>
          <note key="63" vol="78" pan="0" len="48" pos="1440"/>
          <note key="64" vol="78" pan="0" len="48" pos="1488"/>
          <note key="61" vol="78" pan="0" len="240" pos="1536"/>
          <note key="56" vol="78" pan="0" len="48" pos="1776"/>
          <note key="61" vol="78" pan="0" len="48" pos="1824"/>
          <note key="64" vol="78" pan="0" len="48" pos="1872"/>
          <note key="64" vol="78" pan="0" len="192" pos="1920"/>
          <note key="63" vol="78" pan="0" len="144" pos="2112"/>
          <note key="64" vol="78" pan="0" len="48" pos="2256"/>
          <note key="56" vol="78" pan="0" len="240" pos="2304"/>
          <note key="52" vol="78" pan="0" len="48" pos="2544"/>
          <note key="56" vol="78" pan="0" len="48" pos="2592"/>
          <note key="64" vol="78" pan="0" len="48" pos="2640"/>
          <note key="68" vol="78" pan="0" len="192" pos="2688"/>
          <note key="68" vol="78" pan="0" len="192" pos="2880"/>
        </pattern>
        <pattern name="lgtH2" muted="0" type="1" steps="16" pos="30336">
          <note key="69" vol="197" pan="0" len="12" pos="0"/>
          <note key="1" vol="197" pan="0" len="12" pos="0"/>
          <note key="69" vol="197" pan="0" len="12" pos="12"/>
          <note key="68" vol="197" pan="0" len="12" pos="24"/>
          <note key="68" vol="197" pan="0" len="12" pos="36"/>
          <note key="66" vol="197" pan="0" len="12" pos="48"/>
          <note key="66" vol="197" pan="0" len="12" pos="60"/>
          <note key="73" vol="197" pan="0" len="12" pos="72"/>
          <note key="73" vol="197" pan="0" len="12" pos="84"/>
          <note key="71" vol="197" pan="0" len="12" pos="96"/>
          <note key="71" vol="197" pan="0" len="12" pos="108"/>
          <note key="69" vol="197" pan="0" len="12" pos="120"/>
          <note key="69" vol="197" pan="0" len="12" pos="132"/>
          <note key="71" vol="197" pan="0" len="12" pos="144"/>
          <note key="71" vol="197" pan="0" len="12" pos="156"/>
          <note key="73" vol="197" pan="0" len="12" pos="168"/>
          <note key="73" vol="197" pan="0" len="12" pos="180"/>
          <note key="74" vol="197" pan="0" len="48" pos="192"/>
          <note key="0" vol="197" pan="0" len="48" pos="192"/>
          <note key="73" vol="197" pan="0" len="12" pos="240"/>
          <note key="2" vol="197" pan="0" len="12" pos="240"/>
          <note key="74" vol="197" pan="0" len="12" pos="252"/>
          <note key="76" vol="197" pan="0" len="12" pos="264"/>
          <note key="0" vol="197" pan="0" len="12" pos="264"/>
          <note key="78" vol="197" pan="0" len="12" pos="276"/>
          <note key="80" vol="197" pan="0" len="12" pos="288"/>
          <note key="0" vol="197" pan="0" len="12" pos="288"/>
          <note key="78" vol="197" pan="0" len="12" pos="300"/>
          <note key="1" vol="197" pan="0" len="12" pos="300"/>
          <note key="76" vol="197" pan="0" len="12" pos="312"/>
          <note key="78" vol="197" pan="0" len="12" pos="324"/>
          <note key="81" vol="197" pan="0" len="12" pos="336"/>
          <note key="0" vol="197" pan="0" len="12" pos="336"/>
          <note key="80" vol="197" pan="0" len="12" pos="348"/>
          <note key="1" vol="197" pan="0" len="12" pos="348"/>
          <note key="78" vol="197" pan="0" len="12" pos="360"/>
          <note key="80" vol="197" pan="0" len="12" pos="372"/>
          <note key="80" vol="197" pan="0" len="24" pos="384"/>
          <note key="0" vol="197" pan="0" len="48" pos="384"/>
          <note key="81" vol="197" pan="0" len="24" pos="408"/>
          <note key="78" vol="197" pan="0" len="48" pos="456"/>
          <note key="1" vol="197" pan="0" len="12" pos="492"/>
          <note key="74" vol="197" pan="0" len="12" pos="504"/>
          <note key="74" vol="197" pan="0" len="12" pos="516"/>
          <note key="78" vol="197" pan="0" len="12" pos="528"/>
          <note key="78" vol="197" pan="0" len="12" pos="540"/>
          <note key="80" vol="197" pan="0" len="12" pos="552"/>
          <note key="80" vol="197" pan="0" len="12" pos="564"/>
          <note key="83" vol="197" pan="0" len="24" pos="576"/>
          <note key="0" vol="197" pan="0" len="24" pos="576"/>
          <note key="81" vol="197" pan="0" len="12" pos="600"/>
          <note key="83" vol="197" pan="0" len="12" pos="612"/>
          <note key="85" vol="197" pan="0" len="24" pos="624"/>
          <note key="83" vol="197" pan="0" len="12" pos="648"/>
          <note key="85" vol="197" pan="0" len="12" pos="660"/>
          <note key="88" vol="197" pan="0" len="12" pos="672"/>
          <note key="86" vol="197" pan="0" len="12" pos="684"/>
          <note key="85" vol="197" pan="0" len="12" pos="696"/>
          <note key="83" vol="197" pan="0" len="12" pos="708"/>
          <note key="81" vol="197" pan="0" len="12" pos="720"/>
          <note key="80" vol="197" pan="0" len="12" pos="732"/>
          <note key="78" vol="197" pan="0" len="12" pos="744"/>
          <note key="76" vol="197" pan="0" len="12" pos="756"/>
        </pattern>
        <pattern name="lgtH2" muted="0" type="1" steps="16" pos="34944">
          <note key="68" vol="78" pan="0" len="144" pos="0"/>
          <note key="0" vol="140" pan="0" len="12" pos="0"/>
          <note key="73" vol="78" pan="0" len="48" pos="144"/>
          <note key="71" vol="78" pan="0" len="144" pos="192"/>
          <note key="76" vol="78" pan="0" len="48" pos="336"/>
          <note key="76" vol="78" pan="0" len="144" pos="384"/>
          <note key="75" vol="78" pan="0" len="24" pos="528"/>
          <note key="73" vol="78" pan="0" len="24" pos="552"/>
          <note key="71" vol="78" pan="0" len="48" pos="576"/>
          <note key="73" vol="78" pan="0" len="48" pos="624"/>
          <note key="66" vol="197" pan="0" len="12" pos="672"/>
          <note key="1" vol="197" pan="0" len="12" pos="672"/>
          <note key="68" vol="197" pan="0" len="12" pos="684"/>
          <note key="66" vol="197" pan="0" len="12" pos="696"/>
          <note key="64" vol="197" pan="0" len="12" pos="708"/>
          <note key="66" vol="197" pan="0" len="12" pos="720"/>
          <note key="64" vol="197" pan="0" len="12" pos="732"/>
          <note key="61" vol="197" pan="0" len="12" pos="744"/>
          <note key="64" vol="197" pan="0" len="12" pos="756"/>
          <note key="66" vol="78" pan="0" len="96" pos="768"/>
          <note key="0" vol="197" pan="0" len="12" pos="768"/>
          <note key="69" vol="78" pan="0" len="48" pos="864"/>
          <note key="73" vol="78" pan="0" len="48" pos="912"/>
          <note key="73" vol="78" pan="0" len="96" pos="960"/>
          <note key="71" vol="78" pan="0" len="48" pos="1056"/>
          <note key="73" vol="78" pan="0" len="48" pos="1104"/>
          <note key="73" vol="197" pan="0" len="12" pos="1152"/>
          <note key="0" vol="200" pan="0" len="12" pos="1152"/>
          <note key="69" vol="197" pan="0" len="12" pos="1164"/>
          <note key="71" vol="197" pan="0" len="12" pos="1176"/>
          <note key="73" vol="197" pan="0" len="12" pos="1188"/>
          <note key="75" vol="197" pan="0" len="12" pos="1200"/>
          <note key="71" vol="197" pan="0" len="12" pos="1212"/>
          <note key="73" vol="197" pan="0" len="12" pos="1224"/>
          <note key="75" vol="197" pan="0" len="12" pos="1236"/>
          <note key="76" vol="197" pan="0" len="12" pos="1248"/>
          <note key="73" vol="197" pan="0" len="12" pos="1260"/>
          <note key="75" vol="197" pan="0" len="12" pos="1272"/>
          <note key="76" vol="197" pan="0" len="12" pos="1284"/>
          <note key="78" vol="197" pan="0" len="12" pos="1296"/>
          <note key="75" vol="197" pan="0" len="12" pos="1308"/>
          <note key="76" vol="197" pan="0" len="12" pos="1320"/>
          <note key="78" vol="197" pan="0" len="12" pos="1332"/>
          <note key="80" vol="200" pan="0" len="12" pos="1344"/>
          <note key="78" vol="200" pan="0" len="12" pos="1356"/>
          <note key="76" vol="200" pan="0" len="12" pos="1368"/>
          <note key="75" vol="200" pan="0" len="12" pos="1380"/>
          <note key="78" vol="200" pan="0" len="12" pos="1392"/>
          <note key="76" vol="200" pan="0" len="12" pos="1404"/>
          <note key="75" vol="200" pan="0" len="12" pos="1416"/>
          <note key="73" vol="200" pan="0" len="12" pos="1428"/>
          <note key="76" vol="200" pan="0" len="12" pos="1440"/>
          <note key="0" vol="200" pan="0" len="12" pos="1440"/>
          <note key="75" vol="200" pan="0" len="12" pos="1452"/>
          <note key="76" vol="200" pan="0" len="12" pos="1464"/>
          <note key="78" vol="200" pan="0" len="12" pos="1476"/>
          <note key="83" vol="200" pan="0" len="12" pos="1488"/>
          <note key="2" vol="200" pan="0" len="12" pos="1488"/>
          <note key="78" vol="200" pan="0" len="12" pos="1500"/>
          <note key="83" vol="200" pan="0" len="12" pos="1512"/>
          <note key="78" vol="200" pan="0" len="12" pos="1524"/>
        </pattern>
        <pattern name="lgtH2" muted="0" type="1" steps="16" pos="31104">
          <note key="80" vol="197" pan="0" len="24" pos="0"/>
          <note key="1" vol="197" pan="0" len="24" pos="0"/>
          <note key="76" vol="197" pan="0" len="24" pos="24"/>
          <note key="78" vol="197" pan="0" len="24" pos="48"/>
          <note key="73" vol="197" pan="0" len="24" pos="72"/>
          <note key="76" vol="197" pan="0" len="24" pos="96"/>
          <note key="73" vol="197" pan="0" len="24" pos="120"/>
          <note key="71" vol="197" pan="0" len="24" pos="144"/>
          <note key="73" vol="197" pan="0" len="24" pos="168"/>
          <note key="76" vol="197" pan="0" len="24" pos="192"/>
          <note key="73" vol="197" pan="0" len="24" pos="216"/>
          <note key="76" vol="197" pan="0" len="24" pos="240"/>
          <note key="78" vol="197" pan="0" len="24" pos="264"/>
          <note key="80" vol="197" pan="0" len="24" pos="288"/>
          <note key="78" vol="197" pan="0" len="24" pos="312"/>
          <note key="76" vol="197" pan="0" len="24" pos="336"/>
          <note key="78" vol="197" pan="0" len="24" pos="360"/>
        </pattern>
        <pattern name="lgtH2" muted="0" type="1" steps="16" pos="31488">
          <note key="68" vol="197" pan="0" len="12" pos="0"/>
          <note key="0" vol="197" pan="0" len="24" pos="0"/>
          <note key="66" vol="197" pan="0" len="12" pos="12"/>
          <note key="1" vol="197" pan="0" len="24" pos="12"/>
          <note key="68" vol="197" pan="0" len="12" pos="24"/>
          <note key="69" vol="197" pan="0" len="12" pos="36"/>
          <note key="71" vol="197" pan="0" len="12" pos="48"/>
          <note key="0" vol="197" pan="0" len="12" pos="48"/>
          <note key="68" vol="197" pan="0" len="12" pos="60"/>
          <note key="1" vol="197" pan="0" len="12" pos="60"/>
          <note key="69" vol="197" pan="0" len="12" pos="72"/>
          <note key="71" vol="197" pan="0" len="12" pos="84"/>
          <note key="73" vol="197" pan="0" len="12" pos="96"/>
          <note key="0" vol="197" pan="0" len="12" pos="96"/>
          <note key="71" vol="197" pan="0" len="12" pos="108"/>
          <note key="1" vol="197" pan="0" len="12" pos="108"/>
          <note key="69" vol="197" pan="0" len="12" pos="120"/>
          <note key="71" vol="197" pan="0" len="12" pos="132"/>
          <note key="73" vol="197" pan="0" len="12" pos="144"/>
          <note key="75" vol="197" pan="0" len="12" pos="156"/>
          <note key="76" vol="197" pan="0" len="12" pos="168"/>
          <note key="78" vol="197" pan="0" len="12" pos="180"/>
          <note key="78" vol="197" pan="0" len="12" pos="192"/>
          <note key="75" vol="197" pan="0" len="12" pos="204"/>
          <note key="71" vol="197" pan="0" len="12" pos="216"/>
          <note key="66" vol="197" pan="0" len="12" pos="228"/>
          <note key="63" vol="197" pan="0" len="12" pos="240"/>
          <note key="66" vol="197" pan="0" len="12" pos="252"/>
          <note key="83" vol="197" pan="0" len="12" pos="264"/>
          <note key="75" vol="197" pan="0" len="12" pos="276"/>
          <note key="71" vol="197" pan="0" len="12" pos="288"/>
          <note key="66" vol="197" pan="0" len="12" pos="300"/>
          <note key="71" vol="197" pan="0" len="12" pos="312"/>
          <note key="75" vol="197" pan="0" len="12" pos="324"/>
          <note key="78" vol="197" pan="0" len="12" pos="336"/>
          <note key="75" vol="197" pan="0" len="12" pos="348"/>
          <note key="71" vol="197" pan="0" len="12" pos="360"/>
          <note key="75" vol="197" pan="0" len="12" pos="372"/>
        </pattern>
        <pattern name="lgtH2" muted="0" type="1" steps="16" pos="31872">
          <note key="80" vol="100" pan="0" len="240" pos="0"/>
          <note key="0" vol="100" pan="0" len="108" pos="0"/>
        </pattern>
        <pattern name="lgtH2" muted="0" type="1" steps="16" pos="37056">
          <note key="76" vol="197" pan="0" len="12" pos="0"/>
          <note key="0" vol="197" pan="0" len="12" pos="0"/>
          <note key="59" vol="197" pan="0" len="12" pos="12"/>
          <note key="2" vol="197" pan="0" len="12" pos="12"/>
          <note key="59" vol="197" pan="0" len="12" pos="24"/>
          <note key="0" vol="197" pan="0" len="12" pos="24"/>
          <note key="75" vol="197" pan="0" len="12" pos="36"/>
          <note key="0" vol="197" pan="0" len="12" pos="36"/>
          <note key="59" vol="197" pan="0" len="12" pos="48"/>
          <note key="2" vol="197" pan="0" len="12" pos="48"/>
          <note key="59" vol="197" pan="0" len="12" pos="60"/>
          <note key="0" vol="197" pan="0" len="12" pos="60"/>
          <note key="76" vol="197" pan="0" len="12" pos="72"/>
          <note key="0" vol="197" pan="0" len="12" pos="72"/>
          <note key="59" vol="197" pan="0" len="12" pos="84"/>
          <note key="2" vol="197" pan="0" len="12" pos="84"/>
          <note key="59" vol="197" pan="0" len="12" pos="96"/>
          <note key="0" vol="197" pan="0" len="12" pos="96"/>
          <note key="75" vol="197" pan="0" len="12" pos="108"/>
          <note key="0" vol="197" pan="0" len="12" pos="108"/>
          <note key="59" vol="197" pan="0" len="12" pos="120"/>
          <note key="2" vol="197" pan="0" len="12" pos="120"/>
          <note key="59" vol="197" pan="0" len="12" pos="132"/>
          <note key="0" vol="197" pan="0" len="12" pos="132"/>
          <note key="80" vol="197" pan="0" len="12" pos="144"/>
          <note key="0" vol="197" pan="0" len="12" pos="144"/>
          <note key="59" vol="197" pan="0" len="12" pos="156"/>
          <note key="2" vol="197" pan="0" len="12" pos="156"/>
          <note key="78" vol="197" pan="0" len="12" pos="168"/>
          <note key="0" vol="197" pan="0" len="12" pos="168"/>
          <note key="59" vol="197" pan="0" len="12" pos="180"/>
          <note key="2" vol="197" pan="0" len="12" pos="180"/>
        </pattern>
        <pattern name="lgtH2" muted="0" type="1" steps="16" pos="37248">
          <note key="73" vol="100" pan="0" len="12" pos="0"/>
          <note key="0" vol="100" pan="0" len="48" pos="0"/>
          <note key="71" vol="100" pan="0" len="12" pos="12"/>
          <note key="68" vol="100" pan="0" len="12" pos="24"/>
          <note key="1" vol="100" pan="0" len="12" pos="24"/>
          <note key="66" vol="100" pan="0" len="12" pos="36"/>
          <note key="64" vol="100" pan="0" len="12" pos="48"/>
          <note key="61" vol="100" pan="0" len="12" pos="60"/>
          <note key="64" vol="100" pan="0" len="12" pos="72"/>
          <note key="68" vol="100" pan="0" len="12" pos="84"/>
          <note key="73" vol="100" pan="0" len="12" pos="96"/>
          <note key="0" vol="100" pan="0" len="12" pos="96"/>
          <note key="71" vol="100" pan="0" len="12" pos="108"/>
          <note key="68" vol="100" pan="0" len="12" pos="120"/>
          <note key="1" vol="100" pan="0" len="12" pos="120"/>
          <note key="66" vol="100" pan="0" len="12" pos="132"/>
          <note key="64" vol="100" pan="0" len="12" pos="144"/>
          <note key="61" vol="100" pan="0" len="12" pos="156"/>
          <note key="64" vol="100" pan="0" len="12" pos="168"/>
          <note key="68" vol="100" pan="0" len="12" pos="180"/>
        </pattern>
        <pattern name="lgtH2" muted="0" type="1" steps="16" pos="37440">
          <note key="75" vol="197" pan="0" len="12" pos="0"/>
          <note key="0" vol="100" pan="0" len="12" pos="0"/>
          <note key="76" vol="197" pan="0" len="12" pos="12"/>
          <note key="75" vol="197" pan="0" len="12" pos="24"/>
          <note key="71" vol="197" pan="0" len="12" pos="36"/>
          <note key="1" vol="100" pan="0" len="12" pos="36"/>
          <note key="73" vol="197" pan="0" len="12" pos="48"/>
          <note key="68" vol="197" pan="0" len="12" pos="60"/>
          <note key="71" vol="197" pan="0" len="12" pos="72"/>
          <note key="0" vol="100" pan="0" len="12" pos="72"/>
          <note key="73" vol="197" pan="0" len="12" pos="84"/>
          <note key="78" vol="197" pan="0" len="12" pos="96"/>
          <note key="0" vol="100" pan="0" len="12" pos="96"/>
          <note key="80" vol="197" pan="0" len="12" pos="108"/>
          <note key="78" vol="197" pan="0" len="12" pos="120"/>
          <note key="76" vol="197" pan="0" len="12" pos="132"/>
          <note key="1" vol="100" pan="0" len="12" pos="132"/>
          <note key="78" vol="197" pan="0" len="12" pos="144"/>
          <note key="73" vol="197" pan="0" len="12" pos="156"/>
          <note key="75" vol="197" pan="0" len="12" pos="168"/>
          <note key="0" vol="100" pan="0" len="12" pos="168"/>
          <note key="76" vol="197" pan="0" len="12" pos="180"/>
        </pattern>
        <pattern name="lgtH2" muted="0" type="1" steps="16" pos="34752">
          <note key="76" vol="95" pan="0" len="12" pos="96"/>
          <note key="0" vol="95" pan="0" len="12" pos="96"/>
          <note key="78" vol="95" pan="0" len="12" pos="108"/>
          <note key="76" vol="95" pan="0" len="12" pos="120"/>
          <note key="75" vol="95" pan="0" len="12" pos="132"/>
          <note key="1" vol="95" pan="0" len="12" pos="132"/>
          <note key="76" vol="95" pan="0" len="12" pos="144"/>
          <note key="0" vol="95" pan="0" len="12" pos="144"/>
          <note key="75" vol="95" pan="0" len="12" pos="156"/>
          <note key="1" vol="95" pan="0" len="12" pos="156"/>
          <note key="73" vol="95" pan="0" len="12" pos="168"/>
          <note key="72" vol="95" pan="0" len="12" pos="180"/>
        </pattern>
        <pattern name="lgtH2" muted="0" type="1" steps="16" pos="37632">
          <note key="64" vol="197" pan="0" len="12" pos="0"/>
          <note key="1" vol="197" pan="0" len="12" pos="0"/>
          <note key="66" vol="197" pan="0" len="12" pos="12"/>
          <note key="64" vol="197" pan="0" len="12" pos="24"/>
          <note key="63" vol="197" pan="0" len="12" pos="36"/>
          <note key="66" vol="197" pan="0" len="12" pos="48"/>
          <note key="68" vol="197" pan="0" len="12" pos="60"/>
          <note key="66" vol="197" pan="0" len="12" pos="72"/>
          <note key="64" vol="197" pan="0" len="12" pos="84"/>
          <note key="68" vol="197" pan="0" len="12" pos="96"/>
          <note key="0" vol="197" pan="0" len="12" pos="96"/>
          <note key="69" vol="197" pan="0" len="12" pos="108"/>
          <note key="68" vol="197" pan="0" len="12" pos="120"/>
          <note key="1" vol="197" pan="0" len="12" pos="120"/>
          <note key="66" vol="197" pan="0" len="12" pos="132"/>
          <note key="69" vol="197" pan="0" len="12" pos="144"/>
          <note key="0" vol="197" pan="0" len="12" pos="144"/>
          <note key="71" vol="197" pan="0" len="12" pos="156"/>
          <note key="69" vol="197" pan="0" len="12" pos="168"/>
          <note key="1" vol="197" pan="0" len="12" pos="168"/>
          <note key="68" vol="197" pan="0" len="12" pos="180"/>
          <note key="73" vol="197" pan="0" len="12" pos="192"/>
          <note key="0" vol="197" pan="0" len="12" pos="192"/>
          <note key="69" vol="197" pan="0" len="12" pos="204"/>
          <note key="71" vol="197" pan="0" len="12" pos="216"/>
          <note key="1" vol="197" pan="0" len="12" pos="216"/>
          <note key="73" vol="197" pan="0" len="12" pos="228"/>
          <note key="75" vol="197" pan="0" len="12" pos="240"/>
          <note key="0" vol="197" pan="0" len="12" pos="240"/>
          <note key="71" vol="197" pan="0" len="12" pos="252"/>
          <note key="73" vol="197" pan="0" len="12" pos="264"/>
          <note key="1" vol="197" pan="0" len="12" pos="264"/>
          <note key="75" vol="197" pan="0" len="12" pos="276"/>
          <note key="78" vol="197" pan="0" len="12" pos="288"/>
          <note key="0" vol="197" pan="0" len="12" pos="288"/>
          <note key="76" vol="197" pan="0" len="12" pos="300"/>
          <note key="78" vol="197" pan="0" len="12" pos="312"/>
          <note key="80" vol="197" pan="0" len="12" pos="324"/>
          <note key="83" vol="197" pan="0" len="12" pos="336"/>
          <note key="0" vol="197" pan="0" len="12" pos="336"/>
          <note key="78" vol="197" pan="0" len="12" pos="348"/>
          <note key="75" vol="197" pan="0" len="12" pos="360"/>
          <note key="1" vol="197" pan="0" len="12" pos="360"/>
          <note key="71" vol="197" pan="0" len="12" pos="372"/>
        </pattern>
        <pattern name="lgtH2" muted="0" type="1" steps="16" pos="38784">
          <note key="63" vol="100" pan="0" len="12" pos="0"/>
          <note key="1" vol="100" pan="0" len="12" pos="0"/>
          <note key="64" vol="100" pan="0" len="12" pos="12"/>
          <note key="66" vol="100" pan="0" len="12" pos="24"/>
          <note key="68" vol="100" pan="0" len="12" pos="36"/>
          <note key="69" vol="100" pan="0" len="12" pos="48"/>
          <note key="0" vol="100" pan="0" len="12" pos="48"/>
          <note key="68" vol="100" pan="0" len="12" pos="60"/>
          <note key="66" vol="100" pan="0" len="12" pos="72"/>
          <note key="1" vol="100" pan="0" len="12" pos="72"/>
          <note key="64" vol="100" pan="0" len="12" pos="84"/>
          <note key="66" vol="100" pan="0" len="12" pos="96"/>
          <note key="68" vol="100" pan="0" len="12" pos="108"/>
          <note key="69" vol="100" pan="0" len="12" pos="120"/>
          <note key="71" vol="100" pan="0" len="12" pos="132"/>
          <note key="73" vol="100" pan="0" len="12" pos="144"/>
          <note key="0" vol="100" pan="0" len="12" pos="144"/>
          <note key="71" vol="100" pan="0" len="12" pos="156"/>
          <note key="69" vol="100" pan="0" len="12" pos="168"/>
          <note key="1" vol="100" pan="0" len="12" pos="168"/>
          <note key="68" vol="100" pan="0" len="12" pos="180"/>
          <note key="69" vol="100" pan="0" len="12" pos="192"/>
          <note key="71" vol="100" pan="0" len="12" pos="204"/>
          <note key="73" vol="100" pan="0" len="12" pos="216"/>
          <note key="75" vol="100" pan="0" len="12" pos="228"/>
          <note key="76" vol="100" pan="0" len="12" pos="240"/>
          <note key="0" vol="100" pan="0" len="12" pos="240"/>
          <note key="75" vol="100" pan="0" len="12" pos="252"/>
          <note key="73" vol="100" pan="0" len="12" pos="264"/>
          <note key="1" vol="100" pan="0" len="12" pos="264"/>
          <note key="71" vol="100" pan="0" len="12" pos="276"/>
          <note key="78" vol="100" pan="0" len="12" pos="288"/>
          <note key="0" vol="100" pan="0" len="12" pos="288"/>
          <note key="76" vol="100" pan="0" len="12" pos="300"/>
          <note key="75" vol="100" pan="0" len="12" pos="312"/>
          <note key="73" vol="100" pan="0" len="12" pos="324"/>
          <note key="80" vol="100" pan="0" len="12" pos="336"/>
          <note key="78" vol="100" pan="0" len="12" pos="348"/>
          <note key="76" vol="100" pan="0" len="12" pos="360"/>
          <note key="75" vol="100" pan="0" len="12" pos="372"/>
        </pattern>
        <pattern name="lgtH2" muted="0" type="1" steps="16" pos="39168">
          <note key="79" vol="78" pan="0" len="24" pos="0"/>
          <note key="0" vol="78" pan="0" len="24" pos="0"/>
          <note key="75" vol="78" pan="0" len="24" pos="24"/>
          <note key="70" vol="78" pan="0" len="24" pos="48"/>
          <note key="75" vol="78" pan="0" len="24" pos="72"/>
          <note key="70" vol="78" pan="0" len="24" pos="96"/>
          <note key="67" vol="78" pan="0" len="24" pos="120"/>
          <note key="70" vol="78" pan="0" len="24" pos="144"/>
          <note key="75" vol="78" pan="0" len="24" pos="168"/>
          <note key="75" vol="78" pan="0" len="48" pos="192"/>
          <note key="80" vol="78" pan="0" len="48" pos="240"/>
          <note key="81" vol="78" pan="0" len="48" pos="288"/>
          <note key="84" vol="78" pan="0" len="48" pos="336"/>
        </pattern>
        <pattern name="lgtH2" muted="0" type="1" steps="16" pos="43200">
          <note key="0" vol="78" pan="0" len="72" pos="0"/>
          <note key="70" vol="78" pan="0" len="144" pos="960"/>
          <note key="75" vol="78" pan="0" len="48" pos="1104"/>
          <note key="73" vol="78" pan="0" len="144" pos="1152"/>
          <note key="78" vol="78" pan="0" len="48" pos="1296"/>
          <note key="78" vol="78" pan="0" len="144" pos="1344"/>
          <note key="77" vol="78" pan="0" len="24" pos="1488"/>
          <note key="75" vol="78" pan="0" len="24" pos="1512"/>
          <note key="73" vol="78" pan="0" len="48" pos="1536"/>
          <note key="75" vol="78" pan="0" len="48" pos="1584"/>
          <note key="70" vol="78" pan="0" len="48" pos="1632"/>
          <note key="66" vol="78" pan="0" len="48" pos="1680"/>
          <note key="68" vol="78" pan="0" len="96" pos="1728"/>
          <note key="71" vol="78" pan="0" len="48" pos="1824"/>
          <note key="75" vol="78" pan="0" len="48" pos="1872"/>
          <note key="75" vol="78" pan="0" len="96" pos="1920"/>
          <note key="73" vol="78" pan="0" len="48" pos="2016"/>
          <note key="75" vol="78" pan="0" len="48" pos="2064"/>
          <note key="82" vol="78" pan="0" len="72" pos="2112"/>
          <note key="80" vol="78" pan="0" len="72" pos="2184"/>
          <note key="78" vol="78" pan="0" len="48" pos="2256"/>
          <note key="77" vol="78" pan="0" len="192" pos="2304"/>
          <note key="75" vol="78" pan="0" len="72" pos="2496"/>
          <note key="73" vol="78" pan="0" len="72" pos="2568"/>
          <note key="75" vol="78" pan="0" len="48" pos="2640"/>
          <note key="78" vol="78" pan="0" len="144" pos="2688"/>
          <note key="73" vol="78" pan="0" len="48" pos="2832"/>
          <note key="72" vol="78" pan="0" len="240" pos="2880"/>
          <note key="75" vol="78" pan="0" len="48" pos="3120"/>
          <note key="77" vol="78" pan="0" len="48" pos="3168"/>
          <note key="78" vol="78" pan="0" len="48" pos="3216"/>
          <note key="80" vol="78" pan="0" len="72" pos="3264"/>
          <note key="78" vol="78" pan="0" len="72" pos="3336"/>
          <note key="76" vol="78" pan="0" len="48" pos="3408"/>
          <note key="75" vol="78" pan="0" len="48" pos="3456"/>
          <note key="70" vol="78" pan="0" len="48" pos="3504"/>
          <note key="82" vol="78" pan="0" len="48" pos="3552"/>
          <note key="87" vol="78" pan="0" len="48" pos="3600"/>
          <note key="85" vol="78" pan="0" len="192" pos="3648"/>
          <note key="82" vol="195" pan="0" len="12" pos="3840"/>
          <note key="80" vol="195" pan="0" len="12" pos="3852"/>
          <note key="78" vol="195" pan="0" len="12" pos="3864"/>
          <note key="77" vol="195" pan="0" len="12" pos="3876"/>
          <note key="80" vol="195" pan="0" len="12" pos="3888"/>
          <note key="78" vol="195" pan="0" len="12" pos="3900"/>
          <note key="77" vol="195" pan="0" len="12" pos="3912"/>
          <note key="75" vol="195" pan="0" len="12" pos="3924"/>
          <note key="78" vol="195" pan="0" len="12" pos="3936"/>
          <note key="77" vol="195" pan="0" len="12" pos="3948"/>
          <note key="75" vol="195" pan="0" len="12" pos="3960"/>
          <note key="73" vol="195" pan="0" len="12" pos="3972"/>
          <note key="77" vol="195" pan="0" len="12" pos="3984"/>
          <note key="75" vol="195" pan="0" len="12" pos="3996"/>
          <note key="73" vol="195" pan="0" len="12" pos="4008"/>
          <note key="75" vol="195" pan="0" len="12" pos="4020"/>
        </pattern>
        <pattern name="lgtH2" muted="0" type="1" steps="16" pos="40320">
          <note key="66" vol="78" pan="0" len="12" pos="0"/>
          <note key="1" vol="200" pan="0" len="48" pos="0"/>
          <note key="64" vol="78" pan="0" len="12" pos="12"/>
          <note key="61" vol="78" pan="0" len="12" pos="24"/>
          <note key="64" vol="78" pan="0" len="12" pos="36"/>
          <note key="66" vol="78" pan="0" len="12" pos="48"/>
          <note key="64" vol="78" pan="0" len="12" pos="60"/>
          <note key="61" vol="78" pan="0" len="12" pos="72"/>
          <note key="64" vol="78" pan="0" len="12" pos="84"/>
          <note key="69" vol="78" pan="0" len="12" pos="96"/>
          <note key="68" vol="78" pan="0" len="12" pos="108"/>
          <note key="66" vol="78" pan="0" len="12" pos="120"/>
          <note key="68" vol="78" pan="0" len="12" pos="132"/>
          <note key="69" vol="78" pan="0" len="12" pos="144"/>
          <note key="71" vol="78" pan="0" len="12" pos="156"/>
          <note key="73" vol="78" pan="0" len="12" pos="168"/>
          <note key="71" vol="78" pan="0" len="12" pos="180"/>
          <note key="73" vol="78" pan="0" len="12" pos="192"/>
          <note key="71" vol="78" pan="0" len="12" pos="204"/>
          <note key="68" vol="78" pan="0" len="12" pos="216"/>
          <note key="71" vol="78" pan="0" len="12" pos="228"/>
          <note key="73" vol="78" pan="0" len="12" pos="240"/>
          <note key="0" vol="200" pan="0" len="48" pos="240"/>
          <note key="71" vol="78" pan="0" len="12" pos="252"/>
          <note key="68" vol="78" pan="0" len="12" pos="264"/>
          <note key="71" vol="78" pan="0" len="12" pos="276"/>
          <note key="73" vol="78" pan="0" len="12" pos="288"/>
          <note key="75" vol="78" pan="0" len="12" pos="300"/>
          <note key="76" vol="78" pan="0" len="12" pos="312"/>
          <note key="78" vol="78" pan="0" len="12" pos="324"/>
          <note key="80" vol="78" pan="0" len="12" pos="336"/>
          <note key="73" vol="78" pan="0" len="12" pos="348"/>
          <note key="1" vol="200" pan="0" len="12" pos="348"/>
          <note key="71" vol="78" pan="0" len="12" pos="360"/>
          <note key="73" vol="78" pan="0" len="12" pos="372"/>
        </pattern>
        <pattern name="lgtH2" muted="0" type="1" steps="16" pos="40704">
          <note key="80" vol="78" pan="0" len="48" pos="0"/>
          <note key="0" vol="100" pan="0" len="48" pos="0"/>
          <note key="78" vol="78" pan="0" len="12" pos="48"/>
          <note key="80" vol="78" pan="0" len="12" pos="60"/>
          <note key="78" vol="78" pan="0" len="48" pos="72"/>
          <note key="76" vol="78" pan="0" len="12" pos="120"/>
          <note key="78" vol="78" pan="0" len="12" pos="132"/>
          <note key="76" vol="78" pan="0" len="12" pos="144"/>
          <note key="0" vol="78" pan="0" len="12" pos="144"/>
          <note key="75" vol="78" pan="0" len="12" pos="156"/>
          <note key="1" vol="78" pan="0" len="12" pos="156"/>
          <note key="73" vol="78" pan="0" len="12" pos="168"/>
          <note key="76" vol="78" pan="0" len="12" pos="180"/>
          <note key="75" vol="78" pan="0" len="48" pos="192"/>
          <note key="0" vol="78" pan="0" len="12" pos="192"/>
          <note key="73" vol="78" pan="0" len="12" pos="240"/>
          <note key="1" vol="78" pan="0" len="12" pos="240"/>
          <note key="71" vol="78" pan="0" len="12" pos="252"/>
          <note key="73" vol="78" pan="0" len="12" pos="264"/>
          <note key="75" vol="78" pan="0" len="12" pos="276"/>
          <note key="76" vol="78" pan="0" len="12" pos="288"/>
          <note key="0" vol="78" pan="0" len="12" pos="288"/>
          <note key="78" vol="78" pan="0" len="12" pos="300"/>
          <note key="76" vol="78" pan="0" len="12" pos="312"/>
          <note key="75" vol="78" pan="0" len="12" pos="324"/>
          <note key="76" vol="78" pan="0" len="12" pos="336"/>
          <note key="75" vol="78" pan="0" len="12" pos="348"/>
          <note key="73" vol="78" pan="0" len="12" pos="360"/>
          <note key="1" vol="78" pan="0" len="12" pos="360"/>
          <note key="71" vol="78" pan="0" len="12" pos="372"/>
        </pattern>
        <pattern name="lgtH2" muted="0" type="1" steps="16" pos="41088">
          <note key="76" vol="78" pan="0" len="12" pos="0"/>
          <note key="0" vol="78" pan="0" len="12" pos="0"/>
          <note key="73" vol="78" pan="0" len="12" pos="12"/>
          <note key="71" vol="78" pan="0" len="12" pos="24"/>
          <note key="1" vol="78" pan="0" len="12" pos="24"/>
          <note key="73" vol="78" pan="0" len="12" pos="36"/>
          <note key="68" vol="78" pan="0" len="12" pos="48"/>
          <note key="73" vol="78" pan="0" len="12" pos="60"/>
          <note key="71" vol="78" pan="0" len="12" pos="72"/>
          <note key="73" vol="78" pan="0" len="12" pos="84"/>
          <note key="76" vol="78" pan="0" len="12" pos="96"/>
          <note key="0" vol="78" pan="0" len="12" pos="96"/>
          <note key="73" vol="78" pan="0" len="12" pos="108"/>
          <note key="71" vol="78" pan="0" len="12" pos="120"/>
          <note key="1" vol="78" pan="0" len="12" pos="120"/>
          <note key="73" vol="78" pan="0" len="12" pos="132"/>
          <note key="68" vol="78" pan="0" len="12" pos="144"/>
          <note key="73" vol="78" pan="0" len="12" pos="156"/>
          <note key="71" vol="78" pan="0" len="12" pos="168"/>
          <note key="73" vol="78" pan="0" len="12" pos="180"/>
          <note key="76" vol="78" pan="0" len="12" pos="192"/>
          <note key="0" vol="78" pan="0" len="12" pos="192"/>
          <note key="71" vol="78" pan="0" len="12" pos="204"/>
          <note key="69" vol="78" pan="0" len="12" pos="216"/>
          <note key="1" vol="78" pan="0" len="12" pos="216"/>
          <note key="71" vol="78" pan="0" len="12" pos="228"/>
          <note key="68" vol="78" pan="0" len="12" pos="240"/>
          <note key="71" vol="78" pan="0" len="12" pos="252"/>
          <note key="69" vol="78" pan="0" len="12" pos="264"/>
          <note key="71" vol="78" pan="0" len="12" pos="276"/>
          <note key="76" vol="78" pan="0" len="12" pos="288"/>
          <note key="0" vol="78" pan="0" len="12" pos="288"/>
          <note key="71" vol="78" pan="0" len="12" pos="300"/>
          <note key="69" vol="78" pan="0" len="12" pos="312"/>
          <note key="1" vol="78" pan="0" len="12" pos="312"/>
          <note key="71" vol="78" pan="0" len="12" pos="324"/>
          <note key="68" vol="78" pan="0" len="12" pos="336"/>
          <note key="71" vol="78" pan="0" len="12" pos="348"/>
          <note key="69" vol="78" pan="0" len="12" pos="360"/>
          <note key="71" vol="78" pan="0" len="12" pos="372"/>
        </pattern>
        <pattern name="lgtH2" muted="0" type="1" steps="16" pos="41472">
          <note key="78" vol="78" pan="0" len="12" pos="0"/>
          <note key="0" vol="78" pan="0" len="12" pos="0"/>
          <note key="73" vol="78" pan="0" len="12" pos="12"/>
          <note key="70" vol="78" pan="0" len="12" pos="24"/>
          <note key="1" vol="78" pan="0" len="12" pos="24"/>
          <note key="73" vol="78" pan="0" len="12" pos="36"/>
          <note key="66" vol="78" pan="0" len="12" pos="48"/>
          <note key="73" vol="78" pan="0" len="12" pos="60"/>
          <note key="70" vol="78" pan="0" len="12" pos="72"/>
          <note key="73" vol="78" pan="0" len="12" pos="84"/>
          <note key="78" vol="78" pan="0" len="12" pos="96"/>
          <note key="73" vol="78" pan="0" len="12" pos="108"/>
          <note key="70" vol="78" pan="0" len="12" pos="120"/>
          <note key="73" vol="78" pan="0" len="12" pos="132"/>
          <note key="66" vol="78" pan="0" len="12" pos="144"/>
          <note key="73" vol="78" pan="0" len="12" pos="156"/>
          <note key="70" vol="78" pan="0" len="12" pos="168"/>
          <note key="73" vol="78" pan="0" len="12" pos="180"/>
        </pattern>
        <pattern name="lgtH2" muted="0" type="1" steps="16" pos="41664">
          <note key="78" vol="78" pan="0" len="12" pos="0"/>
          <note key="0" vol="78" pan="0" len="12" pos="0"/>
          <note key="73" vol="78" pan="0" len="12" pos="12"/>
          <note key="70" vol="78" pan="0" len="12" pos="24"/>
          <note key="1" vol="78" pan="0" len="12" pos="24"/>
          <note key="66" vol="78" pan="0" len="12" pos="36"/>
          <note key="70" vol="78" pan="0" len="12" pos="48"/>
          <note key="66" vol="78" pan="0" len="12" pos="60"/>
          <note key="61" vol="78" pan="0" len="12" pos="72"/>
          <note key="66" vol="78" pan="0" len="12" pos="84"/>
          <note key="73" vol="78" pan="0" len="12" pos="96"/>
          <note key="70" vol="78" pan="0" len="12" pos="108"/>
          <note key="66" vol="78" pan="0" len="12" pos="120"/>
          <note key="70" vol="78" pan="0" len="12" pos="132"/>
          <note key="73" vol="78" pan="0" len="12" pos="144"/>
          <note key="78" vol="78" pan="0" len="12" pos="156"/>
          <note key="1" vol="78" pan="0" len="12" pos="156"/>
          <note key="82" vol="78" pan="0" len="12" pos="168"/>
          <note key="78" vol="78" pan="0" len="12" pos="180"/>
        </pattern>
        <pattern name="lgtH2" muted="0" type="1" steps="16" pos="41856">
          <note key="81" vol="78" pan="0" len="24" pos="0"/>
          <note key="0" vol="78" pan="0" len="48" pos="0"/>
          <note key="76" vol="78" pan="0" len="24" pos="24"/>
          <note key="73" vol="78" pan="0" len="24" pos="48"/>
          <note key="80" vol="78" pan="0" len="24" pos="72"/>
          <note key="81" vol="78" pan="0" len="24" pos="96"/>
          <note key="83" vol="78" pan="0" len="24" pos="120"/>
          <note key="81" vol="78" pan="0" len="24" pos="144"/>
          <note key="80" vol="78" pan="0" len="24" pos="168"/>
          <note key="81" vol="78" pan="0" len="12" pos="192"/>
          <note key="0" vol="78" pan="0" len="24" pos="192"/>
          <note key="76" vol="78" pan="0" len="12" pos="204"/>
          <note key="73" vol="78" pan="0" len="12" pos="216"/>
          <note key="1" vol="78" pan="0" len="24" pos="216"/>
          <note key="69" vol="78" pan="0" len="12" pos="228"/>
          <note key="64" vol="78" pan="0" len="12" pos="240"/>
          <note key="69" vol="78" pan="0" len="12" pos="252"/>
          <note key="76" vol="78" pan="0" len="12" pos="264"/>
          <note key="0" vol="78" pan="0" len="24" pos="264"/>
          <note key="73" vol="78" pan="0" len="12" pos="276"/>
          <note key="69" vol="78" pan="0" len="12" pos="288"/>
          <note key="1" vol="78" pan="0" len="24" pos="288"/>
          <note key="64" vol="78" pan="0" len="12" pos="300"/>
          <note key="69" vol="78" pan="0" len="12" pos="312"/>
          <note key="73" vol="78" pan="0" len="12" pos="324"/>
          <note key="81" vol="78" pan="0" len="12" pos="336"/>
          <note key="0" vol="78" pan="0" len="24" pos="336"/>
          <note key="80" vol="78" pan="0" len="12" pos="348"/>
          <note key="76" vol="78" pan="0" len="12" pos="360"/>
          <note key="1" vol="78" pan="0" len="24" pos="360"/>
          <note key="80" vol="78" pan="0" len="12" pos="372"/>
          <note key="83" vol="78" pan="0" len="384" pos="384"/>
          <note key="0" vol="78" pan="0" len="24" pos="384"/>
        </pattern>
      </track>
      <track name="ZynAddSubFX" muted="0" type="0" solo="0">
        <instrumenttrack vol="60.7" pitch="0" pitchrange="1" basenote="57" pan="0" fxch="15" usemasterpitch="1">
          <instrument name="zynaddsubfx">
            <zynaddsubfx rescenterfreq="64" resbandwidth="64" portamento="0" filterq="64" fmgain="127" modifiedcontrollers="" bandwidth="64" forwardmidicc="1" filterfreq="64">
              <ZynAddSubFX-data version-major="2" version-minor="4" version-revision="1" ZynAddSubFX-author="Nasca Octavian Paul">
                <INFORMATION>
                  <par_bool name="PADsynth_used" value="yes"/>
                </INFORMATION>
                <BASE_PARAMETERS>
                  <par name="max_midi_parts" value="16"/>
                  <par name="max_kit_items_per_instrument" value="16"/>
                  <par name="max_system_effects" value="4"/>
                  <par name="max_insertion_effects" value="8"/>
                  <par name="max_instrument_effects" value="3"/>
                  <par name="max_addsynth_voices" value="8"/>
                </BASE_PARAMETERS>
                <MASTER>
                  <par name="volume" value="80"/>
                  <par name="key_shift" value="64"/>
                  <par_bool name="nrpn_receive" value="yes"/>
                  <MICROTONAL>
                    <string name="name">12tET</string>
                    <string name="comment">Equal Temperament 12 notes per octave</string>
                    <par_bool name="invert_up_down" value="no"/>
                    <par name="invert_up_down_center" value="60"/>
                    <par_bool name="enabled" value="no"/>
                    <par name="global_fine_detune" value="64"/>
                    <par name="a_note" value="69"/>
                    <par_real name="a_freq" value="440.000000"/>
                  </MICROTONAL>
                  <PART id="0">
                    <par_bool name="enabled" value="yes"/>
                    <par name="volume" value="96"/>
                    <par name="panning" value="64"/>
                    <par name="min_key" value="0"/>
                    <par name="max_key" value="127"/>
                    <par name="key_shift" value="76"/>
                    <par name="rcv_chn" value="0"/>
                    <par name="velocity_sensing" value="64"/>
                    <par name="velocity_offset" value="64"/>
                    <par_bool name="note_on" value="yes"/>
                    <par_bool name="poly_mode" value="yes"/>
                    <par name="legato_mode" value="0"/>
                    <par name="key_limit" value="15"/>
                    <INSTRUMENT>
                      <INFO>
                        <string name="name">Full Strings</string>
                        <string name="author">Will Godfrey
GPL V 2 or later</string>
                        <string name="comments">Developed from Paul's Strings Pad5</string>
                        <par name="type" value="12"/>
                      </INFO>
                      <INSTRUMENT_KIT>
                        <par name="kit_mode" value="1"/>
                        <par_bool name="drum_mode" value="no"/>
                        <INSTRUMENT_KIT_ITEM id="0">
                          <par_bool name="enabled" value="yes"/>
                          <string name="name"/>
                          <par_bool name="muted" value="no"/>
                          <par name="min_key" value="0"/>
                          <par name="max_key" value="127"/>
                          <par name="send_to_instrument_effect" value="0"/>
                          <par_bool name="add_enabled" value="no"/>
                          <par_bool name="sub_enabled" value="no"/>
                          <par_bool name="pad_enabled" value="yes"/>
                          <PAD_SYNTH_PARAMETERS>
                            <par_bool name="stereo" value="yes"/>
                            <par name="mode" value="0"/>
                            <par name="bandwidth" value="620"/>
                            <par name="bandwidth_scale" value="0"/>
                            <HARMONIC_PROFILE>
                              <par name="base_type" value="0"/>
                              <par name="base_par1" value="99"/>
                              <par name="frequency_multiplier" value="8"/>
                              <par name="modulator_par1" value="0"/>
                              <par name="modulator_frequency" value="55"/>
                              <par name="width" value="127"/>
                              <par name="amplitude_multiplier_type" value="0"/>
                              <par name="amplitude_multiplier_mode" value="2"/>
                              <par name="amplitude_multiplier_par1" value="80"/>
                              <par name="amplitude_multiplier_par2" value="4"/>
                              <par_bool name="autoscale" value="yes"/>
                              <par name="one_half" value="0"/>
                            </HARMONIC_PROFILE>
                            <OSCIL>
                              <par name="harmonic_mag_type" value="0"/>
                              <par name="base_function" value="4"/>
                              <par name="base_function_par" value="51"/>
                              <par name="base_function_modulation" value="0"/>
                              <par name="base_function_modulation_par1" value="64"/>
                              <par name="base_function_modulation_par2" value="64"/>
                              <par name="base_function_modulation_par3" value="32"/>
                              <par name="modulation" value="0"/>
                              <par name="modulation_par1" value="64"/>
                              <par name="modulation_par2" value="64"/>
                              <par name="modulation_par3" value="32"/>
                              <par name="wave_shaping" value="64"/>
                              <par name="wave_shaping_function" value="0"/>
                              <par name="filter_type" value="0"/>
                              <par name="filter_par1" value="37"/>
                              <par name="filter_par2" value="64"/>
                              <par name="filter_before_wave_shaping" value="0"/>
                              <par name="spectrum_adjust_type" value="0"/>
                              <par name="spectrum_adjust_par" value="64"/>
                              <par name="rand" value="64"/>
                              <par name="amp_rand_type" value="0"/>
                              <par name="amp_rand_power" value="64"/>
                              <par name="harmonic_shift" value="0"/>
                              <par_bool name="harmonic_shift_first" value="no"/>
                              <par name="adaptive_harmonics" value="0"/>
                              <par name="adaptive_harmonics_base_frequency" value="128"/>
                              <par name="adaptive_harmonics_power" value="100"/>
                              <HARMONICS>
                                <HARMONIC id="1">
                                  <par name="mag" value="83"/>
                                  <par name="phase" value="64"/>
                                </HARMONIC>
                                <HARMONIC id="2">
                                  <par name="mag" value="127"/>
                                  <par name="phase" value="64"/>
                                </HARMONIC>
                              </HARMONICS>
                            </OSCIL>
                            <RESONANCE>
                              <par_bool name="enabled" value="no"/>
                            </RESONANCE>
                            <HARMONIC_POSITION>
                              <par name="type" value="0"/>
                              <par name="parameter1" value="255"/>
                              <par name="parameter2" value="64"/>
                              <par name="parameter3" value="0"/>
                            </HARMONIC_POSITION>
                            <SAMPLE_QUALITY>
                              <par name="samplesize" value="4"/>
                              <par name="basenote" value="4"/>
                              <par name="octaves" value="5"/>
                              <par name="samples_per_octave" value="2"/>
                            </SAMPLE_QUALITY>
                            <AMPLITUDE_PARAMETERS>
                              <par name="volume" value="94"/>
                              <par name="panning" value="67"/>
                              <par name="velocity_sensing" value="70"/>
                              <par name="punch_strength" value="0"/>
                              <par name="punch_time" value="60"/>
                              <par name="punch_stretch" value="64"/>
                              <par name="punch_velocity_sensing" value="72"/>
                              <AMPLITUDE_ENVELOPE>
                                <par_bool name="free_mode" value="no"/>
                                <par name="env_points" value="4"/>
                                <par name="env_sustain" value="2"/>
                                <par name="env_stretch" value="0"/>
                                <par_bool name="forced_release" value="no"/>
                                <par_bool name="linear_envelope" value="no"/>
                                <par name="A_dt" value="12"/>
                                <par name="D_dt" value="39"/>
                                <par name="R_dt" value="71"/>
                                <par name="A_val" value="64"/>
                                <par name="D_val" value="64"/>
                                <par name="S_val" value="127"/>
                                <par name="R_val" value="64"/>
                              </AMPLITUDE_ENVELOPE>
                              <AMPLITUDE_LFO>
                                <par_real name="freq" value="0.629921"/>
                                <par name="intensity" value="0"/>
                                <par name="start_phase" value="64"/>
                                <par name="lfo_type" value="0"/>
                                <par name="randomness_amplitude" value="0"/>
                                <par name="randomness_frequency" value="0"/>
                                <par name="delay" value="0"/>
                                <par name="stretch" value="64"/>
                                <par_bool name="continous" value="no"/>
                              </AMPLITUDE_LFO>
                            </AMPLITUDE_PARAMETERS>
                            <FREQUENCY_PARAMETERS>
                              <par name="fixed_freq" value="0"/>
                              <par name="fixed_freq_et" value="0"/>
                              <par name="detune" value="8192"/>
                              <par name="coarse_detune" value="15360"/>
                              <par name="detune_type" value="1"/>
                              <FREQUENCY_ENVELOPE>
                                <par_bool name="free_mode" value="no"/>
                                <par name="env_points" value="3"/>
                                <par name="env_sustain" value="1"/>
                                <par name="env_stretch" value="0"/>
                                <par_bool name="forced_release" value="no"/>
                                <par_bool name="linear_envelope" value="no"/>
                                <par name="A_dt" value="50"/>
                                <par name="D_dt" value="10"/>
                                <par name="R_dt" value="60"/>
                                <par name="A_val" value="64"/>
                                <par name="D_val" value="64"/>
                                <par name="S_val" value="64"/>
                                <par name="R_val" value="64"/>
                              </FREQUENCY_ENVELOPE>
                              <FREQUENCY_LFO>
                                <par_real name="freq" value="0.621181"/>
                                <par name="intensity" value="0"/>
                                <par name="start_phase" value="64"/>
                                <par name="lfo_type" value="0"/>
                                <par name="randomness_amplitude" value="0"/>
                                <par name="randomness_frequency" value="0"/>
                                <par name="delay" value="0"/>
                                <par name="stretch" value="64"/>
                                <par_bool name="continous" value="no"/>
                              </FREQUENCY_LFO>
                            </FREQUENCY_PARAMETERS>
                            <FILTER_PARAMETERS>
                              <par name="velocity_sensing_amplitude" value="25"/>
                              <par name="velocity_sensing" value="64"/>
                              <FILTER>
                                <par name="category" value="0"/>
                                <par name="type" value="2"/>
                                <par name="freq" value="99"/>
                                <par name="q" value="28"/>
                                <par name="stages" value="1"/>
                                <par name="freq_track" value="97"/>
                                <par name="gain" value="64"/>
                              </FILTER>
                              <FILTER_ENVELOPE>
                                <par_bool name="free_mode" value="no"/>
                                <par name="env_points" value="4"/>
                                <par name="env_sustain" value="2"/>
                                <par name="env_stretch" value="0"/>
                                <par_bool name="forced_release" value="yes"/>
                                <par_bool name="linear_envelope" value="no"/>
                                <par name="A_dt" value="17"/>
                                <par name="D_dt" value="70"/>
                                <par name="R_dt" value="98"/>
                                <par name="A_val" value="37"/>
                                <par name="D_val" value="64"/>
                                <par name="S_val" value="64"/>
                                <par name="R_val" value="43"/>
                              </FILTER_ENVELOPE>
                              <FILTER_LFO>
                                <par_real name="freq" value="0.629921"/>
                                <par name="intensity" value="0"/>
                                <par name="start_phase" value="64"/>
                                <par name="lfo_type" value="0"/>
                                <par name="randomness_amplitude" value="0"/>
                                <par name="randomness_frequency" value="0"/>
                                <par name="delay" value="0"/>
                                <par name="stretch" value="64"/>
                                <par_bool name="continous" value="no"/>
                              </FILTER_LFO>
                            </FILTER_PARAMETERS>
                          </PAD_SYNTH_PARAMETERS>
                        </INSTRUMENT_KIT_ITEM>
                        <INSTRUMENT_KIT_ITEM id="1">
                          <par_bool name="enabled" value="no"/>
                        </INSTRUMENT_KIT_ITEM>
                        <INSTRUMENT_KIT_ITEM id="2">
                          <par_bool name="enabled" value="no"/>
                        </INSTRUMENT_KIT_ITEM>
                        <INSTRUMENT_KIT_ITEM id="3">
                          <par_bool name="enabled" value="no"/>
                        </INSTRUMENT_KIT_ITEM>
                        <INSTRUMENT_KIT_ITEM id="4">
                          <par_bool name="enabled" value="no"/>
                        </INSTRUMENT_KIT_ITEM>
                        <INSTRUMENT_KIT_ITEM id="5">
                          <par_bool name="enabled" value="no"/>
                        </INSTRUMENT_KIT_ITEM>
                        <INSTRUMENT_KIT_ITEM id="6">
                          <par_bool name="enabled" value="no"/>
                        </INSTRUMENT_KIT_ITEM>
                        <INSTRUMENT_KIT_ITEM id="7">
                          <par_bool name="enabled" value="no"/>
                        </INSTRUMENT_KIT_ITEM>
                        <INSTRUMENT_KIT_ITEM id="8">
                          <par_bool name="enabled" value="no"/>
                        </INSTRUMENT_KIT_ITEM>
                        <INSTRUMENT_KIT_ITEM id="9">
                          <par_bool name="enabled" value="no"/>
                        </INSTRUMENT_KIT_ITEM>
                        <INSTRUMENT_KIT_ITEM id="10">
                          <par_bool name="enabled" value="no"/>
                        </INSTRUMENT_KIT_ITEM>
                        <INSTRUMENT_KIT_ITEM id="11">
                          <par_bool name="enabled" value="no"/>
                        </INSTRUMENT_KIT_ITEM>
                        <INSTRUMENT_KIT_ITEM id="12">
                          <par_bool name="enabled" value="no"/>
                        </INSTRUMENT_KIT_ITEM>
                        <INSTRUMENT_KIT_ITEM id="13">
                          <par_bool name="enabled" value="no"/>
                        </INSTRUMENT_KIT_ITEM>
                        <INSTRUMENT_KIT_ITEM id="14">
                          <par_bool name="enabled" value="no"/>
                        </INSTRUMENT_KIT_ITEM>
                        <INSTRUMENT_KIT_ITEM id="15">
                          <par_bool name="enabled" value="no"/>
                        </INSTRUMENT_KIT_ITEM>
                      </INSTRUMENT_KIT>
                      <INSTRUMENT_EFFECTS>
                        <INSTRUMENT_EFFECT id="0">
                          <EFFECT>
                            <par name="type" value="3"/>
                            <par name="preset" value="0"/>
                            <EFFECT_PARAMETERS>
                              <par_no id="0">
                                <par name="par" value="64"/>
                              </par_no>
                              <par_no id="1">
                                <par name="par" value="64"/>
                              </par_no>
                              <par_no id="2">
                                <par name="par" value="50"/>
                              </par_no>
                              <par_no id="5">
                                <par name="par" value="90"/>
                              </par_no>
                              <par_no id="6">
                                <par name="par" value="40"/>
                              </par_no>
                              <par_no id="7">
                                <par name="par" value="85"/>
                              </par_no>
                              <par_no id="8">
                                <par name="par" value="67"/>
                              </par_no>
                              <par_no id="9">
                                <par name="par" value="119"/>
                              </par_no>
                            </EFFECT_PARAMETERS>
                          </EFFECT>
                          <par name="route" value="0"/>
                          <par_bool name="bypass" value="no"/>
                        </INSTRUMENT_EFFECT>
                        <INSTRUMENT_EFFECT id="1">
                          <EFFECT>
                            <par name="type" value="1"/>
                            <par name="preset" value="0"/>
                            <EFFECT_PARAMETERS>
                              <par_no id="0">
                                <par name="par" value="40"/>
                              </par_no>
                              <par_no id="1">
                                <par name="par" value="64"/>
                              </par_no>
                              <par_no id="2">
                                <par name="par" value="85"/>
                              </par_no>
                              <par_no id="3">
                                <par name="par" value="23"/>
                              </par_no>
                              <par_no id="7">
                                <par name="par" value="85"/>
                              </par_no>
                              <par_no id="8">
                                <par name="par" value="5"/>
                              </par_no>
                              <par_no id="9">
                                <par name="par" value="83"/>
                              </par_no>
                              <par_no id="10">
                                <par name="par" value="1"/>
                              </par_no>
                              <par_no id="11">
                                <par name="par" value="64"/>
                              </par_no>
                            </EFFECT_PARAMETERS>
                          </EFFECT>
                          <par name="route" value="0"/>
                          <par_bool name="bypass" value="yes"/>
                        </INSTRUMENT_EFFECT>
                        <INSTRUMENT_EFFECT id="2">
                          <EFFECT>
                            <par name="type" value="0"/>
                          </EFFECT>
                          <par name="route" value="0"/>
                          <par_bool name="bypass" value="no"/>
                        </INSTRUMENT_EFFECT>
                      </INSTRUMENT_EFFECTS>
                    </INSTRUMENT>
                    <CONTROLLER>
                      <par name="pitchwheel_bendrange" value="100"/>
                      <par_bool name="expression_receive" value="yes"/>
                      <par name="panning_depth" value="64"/>
                      <par name="filter_cutoff_depth" value="64"/>
                      <par name="filter_q_depth" value="64"/>
                      <par name="bandwidth_depth" value="64"/>
                      <par name="mod_wheel_depth" value="80"/>
                      <par_bool name="mod_wheel_exponential" value="no"/>
                      <par_bool name="fm_amp_receive" value="yes"/>
                      <par_bool name="volume_receive" value="yes"/>
                      <par_bool name="sustain_receive" value="yes"/>
                      <par_bool name="portamento_receive" value="yes"/>
                      <par name="portamento_time" value="64"/>
                      <par name="portamento_pitchthresh" value="3"/>
                      <par name="portamento_pitchthreshtype" value="1"/>
                      <par name="portamento_portamento" value="0"/>
                      <par name="portamento_updowntimestretch" value="64"/>
                      <par name="portamento_proportional" value="0"/>
                      <par name="portamento_proprate" value="80"/>
                      <par name="portamento_propdepth" value="90"/>
                      <par name="resonance_center_depth" value="64"/>
                      <par name="resonance_bandwidth_depth" value="64"/>
                    </CONTROLLER>
                  </PART>
                  <PART id="1">
                    <par_bool name="enabled" value="no"/>
                  </PART>
                  <PART id="2">
                    <par_bool name="enabled" value="no"/>
                  </PART>
                  <PART id="3">
                    <par_bool name="enabled" value="no"/>
                  </PART>
                  <PART id="4">
                    <par_bool name="enabled" value="no"/>
                  </PART>
                  <PART id="5">
                    <par_bool name="enabled" value="no"/>
                  </PART>
                  <PART id="6">
                    <par_bool name="enabled" value="no"/>
                  </PART>
                  <PART id="7">
                    <par_bool name="enabled" value="no"/>
                  </PART>
                  <PART id="8">
                    <par_bool name="enabled" value="no"/>
                  </PART>
                  <PART id="9">
                    <par_bool name="enabled" value="no"/>
                  </PART>
                  <PART id="10">
                    <par_bool name="enabled" value="no"/>
                  </PART>
                  <PART id="11">
                    <par_bool name="enabled" value="no"/>
                  </PART>
                  <PART id="12">
                    <par_bool name="enabled" value="no"/>
                  </PART>
                  <PART id="13">
                    <par_bool name="enabled" value="no"/>
                  </PART>
                  <PART id="14">
                    <par_bool name="enabled" value="no"/>
                  </PART>
                  <PART id="15">
                    <par_bool name="enabled" value="no"/>
                  </PART>
                  <SYSTEM_EFFECTS>
                    <SYSTEM_EFFECT id="0">
                      <EFFECT>
                        <par name="type" value="0"/>
                      </EFFECT>
                      <VOLUME id="0">
                        <par name="vol" value="0"/>
                      </VOLUME>
                      <VOLUME id="1">
                        <par name="vol" value="0"/>
                      </VOLUME>
                      <VOLUME id="2">
                        <par name="vol" value="0"/>
                      </VOLUME>
                      <VOLUME id="3">
                        <par name="vol" value="0"/>
                      </VOLUME>
                      <VOLUME id="4">
                        <par name="vol" value="0"/>
                      </VOLUME>
                      <VOLUME id="5">
                        <par name="vol" value="0"/>
                      </VOLUME>
                      <VOLUME id="6">
                        <par name="vol" value="0"/>
                      </VOLUME>
                      <VOLUME id="7">
                        <par name="vol" value="0"/>
                      </VOLUME>
                      <VOLUME id="8">
                        <par name="vol" value="0"/>
                      </VOLUME>
                      <VOLUME id="9">
                        <par name="vol" value="0"/>
                      </VOLUME>
                      <VOLUME id="10">
                        <par name="vol" value="0"/>
                      </VOLUME>
                      <VOLUME id="11">
                        <par name="vol" value="0"/>
                      </VOLUME>
                      <VOLUME id="12">
                        <par name="vol" value="0"/>
                      </VOLUME>
                      <VOLUME id="13">
                        <par name="vol" value="0"/>
                      </VOLUME>
                      <VOLUME id="14">
                        <par name="vol" value="0"/>
                      </VOLUME>
                      <VOLUME id="15">
                        <par name="vol" value="0"/>
                      </VOLUME>
                      <SENDTO id="1">
                        <par name="send_vol" value="0"/>
                      </SENDTO>
                      <SENDTO id="2">
                        <par name="send_vol" value="0"/>
                      </SENDTO>
                      <SENDTO id="3">
                        <par name="send_vol" value="0"/>
                      </SENDTO>
                    </SYSTEM_EFFECT>
                    <SYSTEM_EFFECT id="1">
                      <EFFECT>
                        <par name="type" value="0"/>
                      </EFFECT>
                      <VOLUME id="0">
                        <par name="vol" value="0"/>
                      </VOLUME>
                      <VOLUME id="1">
                        <par name="vol" value="0"/>
                      </VOLUME>
                      <VOLUME id="2">
                        <par name="vol" value="0"/>
                      </VOLUME>
                      <VOLUME id="3">
                        <par name="vol" value="0"/>
                      </VOLUME>
                      <VOLUME id="4">
                        <par name="vol" value="0"/>
                      </VOLUME>
                      <VOLUME id="5">
                        <par name="vol" value="0"/>
                      </VOLUME>
                      <VOLUME id="6">
                        <par name="vol" value="0"/>
                      </VOLUME>
                      <VOLUME id="7">
                        <par name="vol" value="0"/>
                      </VOLUME>
                      <VOLUME id="8">
                        <par name="vol" value="0"/>
                      </VOLUME>
                      <VOLUME id="9">
                        <par name="vol" value="0"/>
                      </VOLUME>
                      <VOLUME id="10">
                        <par name="vol" value="0"/>
                      </VOLUME>
                      <VOLUME id="11">
                        <par name="vol" value="0"/>
                      </VOLUME>
                      <VOLUME id="12">
                        <par name="vol" value="0"/>
                      </VOLUME>
                      <VOLUME id="13">
                        <par name="vol" value="0"/>
                      </VOLUME>
                      <VOLUME id="14">
                        <par name="vol" value="0"/>
                      </VOLUME>
                      <VOLUME id="15">
                        <par name="vol" value="0"/>
                      </VOLUME>
                      <SENDTO id="2">
                        <par name="send_vol" value="0"/>
                      </SENDTO>
                      <SENDTO id="3">
                        <par name="send_vol" value="0"/>
                      </SENDTO>
                    </SYSTEM_EFFECT>
                    <SYSTEM_EFFECT id="2">
                      <EFFECT>
                        <par name="type" value="0"/>
                      </EFFECT>
                      <VOLUME id="0">
                        <par name="vol" value="0"/>
                      </VOLUME>
                      <VOLUME id="1">
                        <par name="vol" value="0"/>
                      </VOLUME>
                      <VOLUME id="2">
                        <par name="vol" value="0"/>
                      </VOLUME>
                      <VOLUME id="3">
                        <par name="vol" value="0"/>
                      </VOLUME>
                      <VOLUME id="4">
                        <par name="vol" value="0"/>
                      </VOLUME>
                      <VOLUME id="5">
                        <par name="vol" value="0"/>
                      </VOLUME>
                      <VOLUME id="6">
                        <par name="vol" value="0"/>
                      </VOLUME>
                      <VOLUME id="7">
                        <par name="vol" value="0"/>
                      </VOLUME>
                      <VOLUME id="8">
                        <par name="vol" value="0"/>
                      </VOLUME>
                      <VOLUME id="9">
                        <par name="vol" value="0"/>
                      </VOLUME>
                      <VOLUME id="10">
                        <par name="vol" value="0"/>
                      </VOLUME>
                      <VOLUME id="11">
                        <par name="vol" value="0"/>
                      </VOLUME>
                      <VOLUME id="12">
                        <par name="vol" value="0"/>
                      </VOLUME>
                      <VOLUME id="13">
                        <par name="vol" value="0"/>
                      </VOLUME>
                      <VOLUME id="14">
                        <par name="vol" value="0"/>
                      </VOLUME>
                      <VOLUME id="15">
                        <par name="vol" value="0"/>
                      </VOLUME>
                      <SENDTO id="3">
                        <par name="send_vol" value="0"/>
                      </SENDTO>
                    </SYSTEM_EFFECT>
                    <SYSTEM_EFFECT id="3">
                      <EFFECT>
                        <par name="type" value="0"/>
                      </EFFECT>
                      <VOLUME id="0">
                        <par name="vol" value="0"/>
                      </VOLUME>
                      <VOLUME id="1">
                        <par name="vol" value="0"/>
                      </VOLUME>
                      <VOLUME id="2">
                        <par name="vol" value="0"/>
                      </VOLUME>
                      <VOLUME id="3">
                        <par name="vol" value="0"/>
                      </VOLUME>
                      <VOLUME id="4">
                        <par name="vol" value="0"/>
                      </VOLUME>
                      <VOLUME id="5">
                        <par name="vol" value="0"/>
                      </VOLUME>
                      <VOLUME id="6">
                        <par name="vol" value="0"/>
                      </VOLUME>
                      <VOLUME id="7">
                        <par name="vol" value="0"/>
                      </VOLUME>
                      <VOLUME id="8">
                        <par name="vol" value="0"/>
                      </VOLUME>
                      <VOLUME id="9">
                        <par name="vol" value="0"/>
                      </VOLUME>
                      <VOLUME id="10">
                        <par name="vol" value="0"/>
                      </VOLUME>
                      <VOLUME id="11">
                        <par name="vol" value="0"/>
                      </VOLUME>
                      <VOLUME id="12">
                        <par name="vol" value="0"/>
                      </VOLUME>
                      <VOLUME id="13">
                        <par name="vol" value="0"/>
                      </VOLUME>
                      <VOLUME id="14">
                        <par name="vol" value="0"/>
                      </VOLUME>
                      <VOLUME id="15">
                        <par name="vol" value="0"/>
                      </VOLUME>
                    </SYSTEM_EFFECT>
                  </SYSTEM_EFFECTS>
                  <INSERTION_EFFECTS>
                    <INSERTION_EFFECT id="0">
                      <par name="part" value="-1"/>
                      <EFFECT>
                        <par name="type" value="0"/>
                      </EFFECT>
                    </INSERTION_EFFECT>
                    <INSERTION_EFFECT id="1">
                      <par name="part" value="-1"/>
                      <EFFECT>
                        <par name="type" value="0"/>
                      </EFFECT>
                    </INSERTION_EFFECT>
                    <INSERTION_EFFECT id="2">
                      <par name="part" value="-1"/>
                      <EFFECT>
                        <par name="type" value="0"/>
                      </EFFECT>
                    </INSERTION_EFFECT>
                    <INSERTION_EFFECT id="3">
                      <par name="part" value="-1"/>
                      <EFFECT>
                        <par name="type" value="0"/>
                      </EFFECT>
                    </INSERTION_EFFECT>
                    <INSERTION_EFFECT id="4">
                      <par name="part" value="-1"/>
                      <EFFECT>
                        <par name="type" value="0"/>
                      </EFFECT>
                    </INSERTION_EFFECT>
                    <INSERTION_EFFECT id="5">
                      <par name="part" value="-1"/>
                      <EFFECT>
                        <par name="type" value="0"/>
                      </EFFECT>
                    </INSERTION_EFFECT>
                    <INSERTION_EFFECT id="6">
                      <par name="part" value="-1"/>
                      <EFFECT>
                        <par name="type" value="0"/>
                      </EFFECT>
                    </INSERTION_EFFECT>
                    <INSERTION_EFFECT id="7">
                      <par name="part" value="-1"/>
                      <EFFECT>
                        <par name="type" value="0"/>
                      </EFFECT>
                    </INSERTION_EFFECT>
                  </INSERTION_EFFECTS>
                </MASTER>
              </ZynAddSubFX-data>
            </zynaddsubfx>
          </instrument>
          <eldata ftype="0" fres="0.5" fwet="0" fcut="14000">
            <elvol dec="0.5" sustain="0.5" pdel="0" lpdel="0" rel="0.1" lspd="0.1" userwavefile="" hold="0.5" lamt="0" lspd_numerator="4" lspd_syncmode="0" lshp="0" amt="0" x100="0" latt="0" lspd_denominator="4" ctlenvamt="0" att="0"/>
            <elcut dec="0.5" sustain="0.5" pdel="0" lpdel="0" rel="0.1" lspd="0.1" userwavefile="" hold="0.5" lamt="0" lspd_numerator="4" lspd_syncmode="0" lshp="0" amt="0" x100="0" latt="0" lspd_denominator="4" ctlenvamt="0" att="0"/>
            <elres dec="0.5" sustain="0.5" pdel="0" lpdel="0" rel="0.1" lspd="0.1" userwavefile="" hold="0.5" lamt="0" lspd_numerator="4" lspd_syncmode="0" lshp="0" amt="0" x100="0" latt="0" lspd_denominator="4" ctlenvamt="0" att="0"/>
          </eldata>
          <chordcreator chord="0" chord-enabled="0" chordrange="1"/>
          <arpeggiator arprange="1" arptime_denominator="4" arpgate="100" arptime_syncmode="0" arp="0" arpmode="0" arpmiss="0" arpdir="0" arptime_numerator="4" arp-enabled="0" arpcycle="0" arpskip="0" arptime="200"/>
          <midiport outputchannel="1" inputcontroller="0" outputcontroller="0" basevelocity="63" fixedinputvelocity="-1" fixedoutputvelocity="-1" outputprogram="1" readable="0" writable="0" fixedoutputnote="-1" inputchannel="0"/>
          <fxchain numofeffects="0" enabled="0"/>
        </instrumenttrack>
        <pattern name="ZynAddSubFX" muted="0" type="1" steps="16" pos="0">
          <note key="61" vol="193" pan="0" len="384" pos="0"/>
          <note key="68" vol="193" pan="0" len="192" pos="192"/>
          <note key="64" vol="193" pan="0" len="384" pos="384"/>
          <note key="61" vol="193" pan="0" len="384" pos="384"/>
          <note key="52" vol="193" pan="0" len="384" pos="384"/>
          <note key="63" vol="193" pan="0" len="384" pos="768"/>
          <note key="59" vol="193" pan="0" len="384" pos="768"/>
          <note key="56" vol="193" pan="0" len="384" pos="768"/>
          <note key="61" vol="193" pan="0" len="384" pos="1152"/>
          <note key="56" vol="193" pan="0" len="384" pos="1152"/>
          <note key="49" vol="193" pan="0" len="384" pos="1152"/>
          <note key="59" vol="193" pan="0" len="384" pos="1536"/>
          <note key="57" vol="193" pan="0" len="384" pos="1536"/>
          <note key="49" vol="193" pan="0" len="384" pos="1536"/>
          <note key="64" vol="193" pan="0" len="24" pos="1920"/>
          <note key="61" vol="193" pan="0" len="24" pos="1920"/>
          <note key="56" vol="193" pan="0" len="24" pos="1920"/>
          <note key="64" vol="193" pan="0" len="24" pos="1992"/>
          <note key="61" vol="193" pan="0" len="24" pos="1992"/>
          <note key="56" vol="193" pan="0" len="24" pos="1992"/>
          <note key="64" vol="193" pan="0" len="24" pos="2064"/>
          <note key="61" vol="193" pan="0" len="24" pos="2064"/>
          <note key="56" vol="193" pan="0" len="24" pos="2064"/>
          <note key="64" vol="193" pan="0" len="24" pos="2136"/>
          <note key="61" vol="193" pan="0" len="24" pos="2136"/>
          <note key="56" vol="193" pan="0" len="24" pos="2136"/>
          <note key="64" vol="193" pan="0" len="24" pos="2208"/>
          <note key="61" vol="193" pan="0" len="24" pos="2208"/>
          <note key="56" vol="193" pan="0" len="24" pos="2208"/>
          <note key="64" vol="193" pan="0" len="24" pos="2232"/>
          <note key="61" vol="193" pan="0" len="24" pos="2232"/>
          <note key="56" vol="193" pan="0" len="24" pos="2232"/>
          <note key="64" vol="193" pan="0" len="24" pos="2280"/>
          <note key="61" vol="193" pan="0" len="24" pos="2280"/>
          <note key="56" vol="193" pan="0" len="24" pos="2280"/>
          <note key="63" vol="193" pan="0" len="24" pos="2304"/>
          <note key="59" vol="193" pan="0" len="24" pos="2304"/>
          <note key="56" vol="193" pan="0" len="24" pos="2304"/>
          <note key="63" vol="193" pan="0" len="24" pos="2376"/>
          <note key="59" vol="193" pan="0" len="24" pos="2376"/>
          <note key="56" vol="193" pan="0" len="24" pos="2376"/>
          <note key="63" vol="193" pan="0" len="24" pos="2448"/>
          <note key="59" vol="193" pan="0" len="24" pos="2448"/>
          <note key="56" vol="193" pan="0" len="24" pos="2448"/>
          <note key="63" vol="193" pan="0" len="24" pos="2520"/>
          <note key="59" vol="193" pan="0" len="24" pos="2520"/>
          <note key="56" vol="193" pan="0" len="24" pos="2520"/>
          <note key="63" vol="193" pan="0" len="24" pos="2592"/>
          <note key="59" vol="193" pan="0" len="24" pos="2592"/>
          <note key="56" vol="193" pan="0" len="24" pos="2592"/>
          <note key="63" vol="193" pan="0" len="24" pos="2616"/>
          <note key="59" vol="193" pan="0" len="24" pos="2616"/>
          <note key="56" vol="193" pan="0" len="24" pos="2616"/>
          <note key="63" vol="193" pan="0" len="24" pos="2664"/>
          <note key="59" vol="193" pan="0" len="24" pos="2664"/>
          <note key="56" vol="193" pan="0" len="24" pos="2664"/>
          <note key="61" vol="193" pan="0" len="24" pos="2688"/>
          <note key="58" vol="193" pan="0" len="24" pos="2688"/>
          <note key="61" vol="193" pan="0" len="24" pos="2760"/>
          <note key="58" vol="193" pan="0" len="24" pos="2760"/>
          <note key="61" vol="193" pan="0" len="24" pos="2832"/>
          <note key="58" vol="193" pan="0" len="24" pos="2832"/>
          <note key="61" vol="193" pan="0" len="24" pos="2904"/>
          <note key="58" vol="193" pan="0" len="24" pos="2904"/>
          <note key="61" vol="193" pan="0" len="24" pos="2976"/>
          <note key="58" vol="193" pan="0" len="24" pos="2976"/>
          <note key="61" vol="193" pan="0" len="24" pos="3000"/>
          <note key="58" vol="193" pan="0" len="24" pos="3000"/>
          <note key="61" vol="193" pan="0" len="24" pos="3048"/>
          <note key="58" vol="193" pan="0" len="24" pos="3048"/>
          <note key="61" vol="193" pan="0" len="24" pos="3072"/>
          <note key="57" vol="193" pan="0" len="24" pos="3072"/>
          <note key="61" vol="193" pan="0" len="24" pos="3144"/>
          <note key="57" vol="193" pan="0" len="24" pos="3144"/>
          <note key="61" vol="193" pan="0" len="24" pos="3216"/>
          <note key="57" vol="193" pan="0" len="24" pos="3216"/>
        </pattern>
        <pattern name="ZynAddSubFX" muted="0" type="1" steps="16" pos="8064">
          <note key="68" vol="197" pan="0" len="192" pos="0"/>
          <note key="64" vol="197" pan="0" len="192" pos="0"/>
          <note key="61" vol="197" pan="0" len="192" pos="0"/>
          <note key="68" vol="197" pan="0" len="192" pos="192"/>
          <note key="63" vol="197" pan="0" len="192" pos="192"/>
          <note key="59" vol="197" pan="0" len="192" pos="192"/>
          <note key="69" vol="197" pan="0" len="192" pos="384"/>
          <note key="64" vol="197" pan="0" len="192" pos="384"/>
          <note key="61" vol="197" pan="0" len="192" pos="384"/>
          <note key="71" vol="197" pan="0" len="192" pos="576"/>
          <note key="66" vol="197" pan="0" len="192" pos="576"/>
          <note key="63" vol="197" pan="0" len="192" pos="576"/>
          <note key="73" vol="197" pan="0" len="192" pos="768"/>
          <note key="69" vol="197" pan="0" len="192" pos="768"/>
          <note key="66" vol="197" pan="0" len="192" pos="768"/>
          <note key="75" vol="197" pan="0" len="192" pos="960"/>
          <note key="71" vol="197" pan="0" len="192" pos="960"/>
          <note key="68" vol="197" pan="0" len="192" pos="960"/>
          <note key="76" vol="197" pan="0" len="192" pos="1152"/>
          <note key="73" vol="197" pan="0" len="192" pos="1152"/>
          <note key="69" vol="197" pan="0" len="192" pos="1152"/>
          <note key="75" vol="197" pan="0" len="192" pos="1344"/>
          <note key="71" vol="197" pan="0" len="192" pos="1344"/>
          <note key="66" vol="197" pan="0" len="192" pos="1344"/>
          <note key="76" vol="197" pan="0" len="192" pos="1536"/>
          <note key="73" vol="197" pan="0" len="192" pos="1536"/>
          <note key="68" vol="197" pan="0" len="192" pos="1536"/>
          <note key="75" vol="197" pan="0" len="192" pos="1728"/>
          <note key="71" vol="197" pan="0" len="192" pos="1728"/>
          <note key="66" vol="197" pan="0" len="192" pos="1728"/>
          <note key="73" vol="197" pan="0" len="384" pos="1920"/>
          <note key="70" vol="197" pan="0" len="384" pos="1920"/>
          <note key="66" vol="197" pan="0" len="384" pos="1920"/>
          <note key="74" vol="197" pan="0" len="192" pos="2304"/>
          <note key="69" vol="197" pan="0" len="192" pos="2304"/>
          <note key="66" vol="197" pan="0" len="192" pos="2304"/>
          <note key="73" vol="197" pan="0" len="192" pos="2496"/>
          <note key="69" vol="197" pan="0" len="192" pos="2496"/>
          <note key="64" vol="197" pan="0" len="192" pos="2496"/>
          <note key="75" vol="197" pan="0" len="384" pos="2688"/>
          <note key="71" vol="197" pan="0" len="384" pos="2688"/>
          <note key="66" vol="197" pan="0" len="384" pos="2688"/>
        </pattern>
        <pattern name="ZynAddSubFX" muted="0" type="1" steps="16" pos="15744">
          <note key="68" vol="197" pan="0" len="192" pos="0"/>
          <note key="64" vol="197" pan="0" len="192" pos="0"/>
          <note key="61" vol="197" pan="0" len="192" pos="0"/>
          <note key="68" vol="197" pan="0" len="192" pos="192"/>
          <note key="63" vol="197" pan="0" len="192" pos="192"/>
          <note key="59" vol="197" pan="0" len="192" pos="192"/>
          <note key="69" vol="197" pan="0" len="192" pos="384"/>
          <note key="64" vol="197" pan="0" len="192" pos="384"/>
          <note key="61" vol="197" pan="0" len="192" pos="384"/>
          <note key="71" vol="197" pan="0" len="192" pos="576"/>
          <note key="66" vol="197" pan="0" len="192" pos="576"/>
          <note key="63" vol="197" pan="0" len="192" pos="576"/>
          <note key="73" vol="197" pan="0" len="192" pos="768"/>
          <note key="69" vol="197" pan="0" len="192" pos="768"/>
          <note key="66" vol="197" pan="0" len="192" pos="768"/>
          <note key="75" vol="197" pan="0" len="192" pos="960"/>
          <note key="71" vol="197" pan="0" len="192" pos="960"/>
          <note key="68" vol="197" pan="0" len="192" pos="960"/>
          <note key="76" vol="197" pan="0" len="192" pos="1152"/>
          <note key="73" vol="197" pan="0" len="192" pos="1152"/>
          <note key="69" vol="197" pan="0" len="192" pos="1152"/>
          <note key="75" vol="197" pan="0" len="96" pos="1344"/>
          <note key="71" vol="197" pan="0" len="96" pos="1344"/>
          <note key="66" vol="197" pan="0" len="96" pos="1344"/>
          <note key="75" vol="197" pan="0" len="96" pos="1440"/>
          <note key="72" vol="197" pan="0" len="96" pos="1440"/>
          <note key="66" vol="197" pan="0" len="96" pos="1440"/>
          <note key="76" vol="197" pan="0" len="192" pos="1536"/>
          <note key="73" vol="197" pan="0" len="192" pos="1536"/>
          <note key="68" vol="197" pan="0" len="192" pos="1536"/>
          <note key="75" vol="197" pan="0" len="192" pos="1728"/>
          <note key="71" vol="197" pan="0" len="192" pos="1728"/>
          <note key="66" vol="197" pan="0" len="192" pos="1728"/>
          <note key="73" vol="197" pan="0" len="384" pos="1920"/>
          <note key="70" vol="197" pan="0" len="384" pos="1920"/>
          <note key="66" vol="197" pan="0" len="384" pos="1920"/>
          <note key="74" vol="197" pan="0" len="192" pos="2304"/>
          <note key="69" vol="197" pan="0" len="192" pos="2304"/>
          <note key="66" vol="197" pan="0" len="192" pos="2304"/>
          <note key="73" vol="197" pan="0" len="192" pos="2496"/>
          <note key="69" vol="197" pan="0" len="192" pos="2496"/>
          <note key="64" vol="197" pan="0" len="192" pos="2496"/>
          <note key="75" vol="197" pan="0" len="216" pos="2688"/>
          <note key="71" vol="197" pan="0" len="216" pos="2688"/>
          <note key="66" vol="197" pan="0" len="216" pos="2688"/>
          <note key="78" vol="197" pan="0" len="24" pos="2976"/>
          <note key="75" vol="197" pan="0" len="24" pos="2976"/>
          <note key="71" vol="197" pan="0" len="24" pos="2976"/>
        </pattern>
        <pattern name="ZynAddSubFX" muted="0" type="1" steps="16" pos="11136">
          <note key="73" vol="197" pan="0" len="384" pos="0"/>
          <note key="68" vol="197" pan="0" len="384" pos="0"/>
          <note key="64" vol="197" pan="0" len="384" pos="0"/>
          <note key="74" vol="197" pan="0" len="384" pos="384"/>
          <note key="69" vol="197" pan="0" len="384" pos="384"/>
          <note key="66" vol="197" pan="0" len="384" pos="384"/>
        </pattern>
        <pattern name="ZynAddSubFX" muted="0" type="1" steps="16" pos="11904">
          <note key="73" vol="197" pan="0" len="384" pos="0"/>
          <note key="68" vol="197" pan="0" len="384" pos="0"/>
          <note key="64" vol="197" pan="0" len="384" pos="0"/>
          <note key="74" vol="197" pan="0" len="384" pos="384"/>
          <note key="69" vol="197" pan="0" len="384" pos="384"/>
          <note key="66" vol="197" pan="0" len="384" pos="384"/>
        </pattern>
        <pattern name="ZynAddSubFX" muted="0" type="1" steps="16" pos="18816">
          <note key="64" vol="193" pan="0" len="384" pos="0"/>
          <note key="61" vol="193" pan="0" len="384" pos="0"/>
          <note key="52" vol="193" pan="0" len="384" pos="0"/>
          <note key="63" vol="193" pan="0" len="384" pos="384"/>
          <note key="59" vol="193" pan="0" len="384" pos="384"/>
          <note key="56" vol="193" pan="0" len="384" pos="384"/>
          <note key="61" vol="193" pan="0" len="384" pos="768"/>
          <note key="56" vol="193" pan="0" len="384" pos="768"/>
          <note key="49" vol="193" pan="0" len="384" pos="768"/>
          <note key="59" vol="193" pan="0" len="384" pos="1152"/>
          <note key="57" vol="193" pan="0" len="384" pos="1152"/>
          <note key="49" vol="193" pan="0" len="384" pos="1152"/>
        </pattern>
        <pattern name="ZynAddSubFX" muted="0" type="1" steps="16" pos="20352">
          <note key="64" vol="193" pan="0" len="384" pos="0"/>
          <note key="61" vol="193" pan="0" len="384" pos="0"/>
          <note key="56" vol="193" pan="0" len="384" pos="0"/>
          <note key="66" vol="193" pan="0" len="384" pos="384"/>
          <note key="62" vol="193" pan="0" len="384" pos="384"/>
          <note key="57" vol="193" pan="0" len="384" pos="384"/>
          <note key="66" vol="193" pan="0" len="384" pos="768"/>
          <note key="63" vol="193" pan="0" len="384" pos="768"/>
          <note key="58" vol="193" pan="0" len="384" pos="768"/>
          <note key="68" vol="193" pan="0" len="384" pos="1152"/>
          <note key="63" vol="193" pan="0" len="384" pos="1152"/>
          <note key="60" vol="193" pan="0" len="384" pos="1152"/>
        </pattern>
        <pattern name="ZynAddSubFX" muted="0" type="1" steps="16" pos="23424">
          <note key="68" vol="200" pan="0" len="192" pos="0"/>
          <note key="59" vol="200" pan="0" len="192" pos="0"/>
          <note key="69" vol="200" pan="0" len="192" pos="192"/>
          <note key="61" vol="200" pan="0" len="192" pos="192"/>
          <note key="71" vol="200" pan="0" len="192" pos="384"/>
          <note key="64" vol="200" pan="0" len="192" pos="384"/>
          <note key="76" vol="200" pan="0" len="192" pos="576"/>
          <note key="68" vol="200" pan="0" len="192" pos="576"/>
          <note key="73" vol="200" pan="0" len="384" pos="768"/>
          <note key="66" vol="200" pan="0" len="384" pos="768"/>
          <note key="73" vol="200" pan="0" len="384" pos="1152"/>
          <note key="64" vol="200" pan="0" len="384" pos="1152"/>
          <note key="80" vol="200" pan="0" len="192" pos="1536"/>
          <note key="76" vol="200" pan="0" len="192" pos="1536"/>
          <note key="78" vol="200" pan="0" len="192" pos="1728"/>
          <note key="75" vol="200" pan="0" len="192" pos="1728"/>
          <note key="80" vol="200" pan="0" len="384" pos="1920"/>
          <note key="76" vol="200" pan="0" len="384" pos="1920"/>
          <note key="73" vol="200" pan="0" len="384" pos="1920"/>
          <note key="80" vol="200" pan="0" len="192" pos="2304"/>
          <note key="73" vol="200" pan="0" len="192" pos="2304"/>
          <note key="71" vol="200" pan="0" len="192" pos="2304"/>
          <note key="78" vol="200" pan="0" len="192" pos="2496"/>
          <note key="75" vol="200" pan="0" len="192" pos="2496"/>
          <note key="71" vol="200" pan="0" len="192" pos="2496"/>
          <note key="73" vol="200" pan="0" len="384" pos="2688"/>
          <note key="70" vol="200" pan="0" len="384" pos="2688"/>
          <note key="68" vol="200" pan="0" len="384" pos="2688"/>
          <note key="80" vol="200" pan="0" len="192" pos="3072"/>
          <note key="71" vol="200" pan="0" len="192" pos="3072"/>
          <note key="81" vol="200" pan="0" len="192" pos="3264"/>
          <note key="73" vol="200" pan="0" len="192" pos="3264"/>
          <note key="83" vol="200" pan="0" len="192" pos="3456"/>
          <note key="76" vol="200" pan="0" len="192" pos="3456"/>
          <note key="88" vol="200" pan="0" len="192" pos="3648"/>
          <note key="80" vol="200" pan="0" len="192" pos="3648"/>
          <note key="85" vol="200" pan="0" len="384" pos="3840"/>
          <note key="78" vol="200" pan="0" len="384" pos="3840"/>
          <note key="85" vol="200" pan="0" len="384" pos="4224"/>
          <note key="76" vol="200" pan="0" len="384" pos="4224"/>
          <note key="80" vol="200" pan="0" len="384" pos="4608"/>
          <note key="73" vol="200" pan="0" len="384" pos="4608"/>
          <note key="61" vol="200" pan="0" len="48" pos="4608"/>
          <note key="57" vol="200" pan="0" len="48" pos="4656"/>
          <note key="59" vol="200" pan="0" len="48" pos="4704"/>
          <note key="61" vol="200" pan="0" len="48" pos="4752"/>
          <note key="63" vol="200" pan="0" len="48" pos="4800"/>
          <note key="64" vol="200" pan="0" len="48" pos="4848"/>
          <note key="63" vol="200" pan="0" len="48" pos="4896"/>
          <note key="59" vol="200" pan="0" len="48" pos="4944"/>
          <note key="80" vol="200" pan="0" len="384" pos="4992"/>
          <note key="73" vol="200" pan="0" len="384" pos="4992"/>
          <note key="61" vol="200" pan="0" len="48" pos="4992"/>
          <note key="59" vol="200" pan="0" len="48" pos="5040"/>
          <note key="61" vol="200" pan="0" len="48" pos="5088"/>
          <note key="63" vol="200" pan="0" len="48" pos="5136"/>
          <note key="68" vol="200" pan="0" len="192" pos="5184"/>
        </pattern>
        <pattern name="ZynAddSubFX" muted="0" type="1" steps="16" pos="21888">
          <note key="68" vol="200" pan="0" len="192" pos="0"/>
          <note key="64" vol="200" pan="0" len="192" pos="0"/>
          <note key="66" vol="200" pan="0" len="192" pos="192"/>
          <note key="63" vol="200" pan="0" len="192" pos="192"/>
          <note key="68" vol="200" pan="0" len="384" pos="384"/>
          <note key="64" vol="200" pan="0" len="384" pos="384"/>
          <note key="61" vol="200" pan="0" len="384" pos="384"/>
          <note key="68" vol="200" pan="0" len="192" pos="768"/>
          <note key="61" vol="200" pan="0" len="192" pos="768"/>
          <note key="59" vol="200" pan="0" len="192" pos="768"/>
          <note key="66" vol="200" pan="0" len="192" pos="960"/>
          <note key="63" vol="200" pan="0" len="192" pos="960"/>
          <note key="59" vol="200" pan="0" len="192" pos="960"/>
          <note key="61" vol="200" pan="0" len="384" pos="1152"/>
          <note key="59" vol="200" pan="0" len="192" pos="1152"/>
          <note key="56" vol="200" pan="0" len="384" pos="1152"/>
        </pattern>
        <pattern name="ZynAddSubFX" muted="0" type="1" steps="16" pos="3264">
          <note key="69" vol="193" pan="0" len="192" pos="0"/>
          <note key="64" vol="193" pan="0" len="192" pos="0"/>
        </pattern>
        <pattern name="ZynAddSubFX" muted="0" type="1" steps="16" pos="3456">
          <note key="68" vol="193" pan="0" len="192" pos="0"/>
          <note key="64" vol="193" pan="0" len="192" pos="0"/>
          <note key="61" vol="193" pan="0" len="192" pos="0"/>
          <note key="68" vol="193" pan="0" len="192" pos="192"/>
          <note key="63" vol="193" pan="0" len="192" pos="192"/>
          <note key="59" vol="193" pan="0" len="192" pos="192"/>
          <note key="69" vol="193" pan="0" len="192" pos="384"/>
          <note key="64" vol="193" pan="0" len="192" pos="384"/>
          <note key="61" vol="193" pan="0" len="192" pos="384"/>
          <note key="71" vol="193" pan="0" len="192" pos="576"/>
          <note key="66" vol="193" pan="0" len="192" pos="576"/>
          <note key="63" vol="193" pan="0" len="192" pos="576"/>
          <note key="73" vol="193" pan="0" len="192" pos="768"/>
          <note key="69" vol="193" pan="0" len="192" pos="768"/>
          <note key="66" vol="193" pan="0" len="192" pos="768"/>
          <note key="75" vol="193" pan="0" len="192" pos="960"/>
          <note key="71" vol="193" pan="0" len="192" pos="960"/>
          <note key="68" vol="193" pan="0" len="192" pos="960"/>
          <note key="76" vol="193" pan="0" len="192" pos="1152"/>
          <note key="73" vol="193" pan="0" len="192" pos="1152"/>
          <note key="69" vol="193" pan="0" len="192" pos="1152"/>
          <note key="75" vol="193" pan="0" len="96" pos="1344"/>
          <note key="71" vol="193" pan="0" len="96" pos="1344"/>
          <note key="66" vol="193" pan="0" len="96" pos="1344"/>
          <note key="75" vol="193" pan="0" len="48" pos="1440"/>
          <note key="71" vol="193" pan="0" len="48" pos="1440"/>
          <note key="68" vol="193" pan="0" len="48" pos="1440"/>
          <note key="75" vol="193" pan="0" len="48" pos="1488"/>
          <note key="71" vol="193" pan="0" len="48" pos="1488"/>
          <note key="66" vol="193" pan="0" len="48" pos="1488"/>
        </pattern>
        <pattern name="ZynAddSubFX" muted="0" type="0" steps="16" pos="4992"/>
        <pattern name="ZynAddSubFX" muted="0" type="1" steps="16" pos="28800">
          <note key="56" vol="200" pan="0" len="192" pos="0"/>
          <note key="52" vol="200" pan="0" len="192" pos="0"/>
          <note key="57" vol="200" pan="0" len="192" pos="192"/>
          <note key="54" vol="200" pan="0" len="192" pos="192"/>
          <note key="59" vol="200" pan="0" len="192" pos="384"/>
          <note key="56" vol="200" pan="0" len="192" pos="384"/>
          <note key="54" vol="200" pan="0" len="192" pos="576"/>
          <note key="49" vol="200" pan="0" len="192" pos="576"/>
          <note key="56" vol="200" pan="0" len="192" pos="768"/>
          <note key="52" vol="200" pan="0" len="192" pos="768"/>
          <note key="57" vol="200" pan="0" len="192" pos="960"/>
          <note key="54" vol="200" pan="0" len="192" pos="960"/>
          <note key="59" vol="200" pan="0" len="192" pos="1152"/>
          <note key="56" vol="200" pan="0" len="192" pos="1152"/>
          <note key="54" vol="200" pan="0" len="192" pos="1344"/>
          <note key="51" vol="200" pan="0" len="192" pos="1344"/>
          <note key="54" vol="200" pan="0" len="192" pos="1536"/>
          <note key="49" vol="200" pan="0" len="192" pos="1536"/>
          <note key="61" vol="200" pan="0" len="192" pos="1728"/>
          <note key="56" vol="200" pan="0" len="192" pos="1728"/>
          <note key="59" vol="200" pan="0" len="192" pos="1920"/>
          <note key="54" vol="200" pan="0" len="192" pos="1920"/>
          <note key="57" vol="200" pan="0" len="192" pos="2112"/>
          <note key="52" vol="200" pan="0" len="192" pos="2112"/>
          <note key="56" vol="200" pan="0" len="384" pos="2304"/>
          <note key="51" vol="200" pan="0" len="384" pos="2304"/>
          <note key="56" vol="200" pan="0" len="384" pos="2688"/>
          <note key="47" vol="200" pan="0" len="384" pos="2688"/>
          <note key="56" vol="200" pan="0" len="192" pos="3072"/>
          <note key="52" vol="200" pan="0" len="192" pos="3072"/>
          <note key="57" vol="200" pan="0" len="192" pos="3264"/>
          <note key="54" vol="200" pan="0" len="192" pos="3264"/>
          <note key="59" vol="200" pan="0" len="192" pos="3456"/>
          <note key="56" vol="200" pan="0" len="192" pos="3456"/>
          <note key="54" vol="200" pan="0" len="192" pos="3648"/>
          <note key="49" vol="200" pan="0" len="192" pos="3648"/>
          <note key="56" vol="200" pan="0" len="192" pos="3840"/>
          <note key="52" vol="200" pan="0" len="192" pos="3840"/>
          <note key="57" vol="200" pan="0" len="192" pos="4032"/>
          <note key="54" vol="200" pan="0" len="192" pos="4032"/>
          <note key="59" vol="200" pan="0" len="192" pos="4224"/>
          <note key="56" vol="200" pan="0" len="192" pos="4224"/>
          <note key="54" vol="200" pan="0" len="192" pos="4416"/>
          <note key="51" vol="200" pan="0" len="192" pos="4416"/>
          <note key="54" vol="200" pan="0" len="192" pos="4608"/>
          <note key="49" vol="200" pan="0" len="192" pos="4608"/>
          <note key="61" vol="200" pan="0" len="192" pos="4800"/>
          <note key="56" vol="200" pan="0" len="192" pos="4800"/>
          <note key="59" vol="200" pan="0" len="192" pos="4992"/>
          <note key="54" vol="200" pan="0" len="192" pos="4992"/>
          <note key="57" vol="200" pan="0" len="192" pos="5184"/>
          <note key="52" vol="200" pan="0" len="192" pos="5184"/>
          <note key="55" vol="200" pan="0" len="384" pos="5376"/>
          <note key="50" vol="200" pan="0" len="384" pos="5376"/>
          <note key="56" vol="200" pan="0" len="384" pos="5760"/>
          <note key="47" vol="200" pan="0" len="384" pos="5760"/>
        </pattern>
        <pattern name="ZynAddSubFX" muted="0" type="1" steps="16" pos="14208">
          <note key="61" vol="197" pan="0" len="24" pos="0"/>
          <note key="57" vol="197" pan="0" len="24" pos="0"/>
          <note key="61" vol="197" pan="0" len="24" pos="48"/>
          <note key="57" vol="197" pan="0" len="24" pos="48"/>
          <note key="61" vol="197" pan="0" len="24" pos="96"/>
          <note key="57" vol="197" pan="0" len="24" pos="96"/>
          <note key="61" vol="197" pan="0" len="24" pos="144"/>
          <note key="57" vol="197" pan="0" len="24" pos="144"/>
          <note key="61" vol="197" pan="0" len="24" pos="192"/>
          <note key="57" vol="197" pan="0" len="24" pos="192"/>
          <note key="61" vol="197" pan="0" len="24" pos="240"/>
          <note key="57" vol="197" pan="0" len="24" pos="240"/>
          <note key="61" vol="197" pan="0" len="24" pos="288"/>
          <note key="57" vol="197" pan="0" len="24" pos="288"/>
          <note key="61" vol="197" pan="0" len="24" pos="336"/>
          <note key="57" vol="197" pan="0" len="24" pos="336"/>
          <note key="61" vol="197" pan="0" len="24" pos="384"/>
          <note key="56" vol="197" pan="0" len="24" pos="384"/>
          <note key="52" vol="197" pan="0" len="24" pos="384"/>
          <note key="61" vol="197" pan="0" len="24" pos="432"/>
          <note key="56" vol="197" pan="0" len="24" pos="432"/>
          <note key="52" vol="197" pan="0" len="24" pos="432"/>
          <note key="61" vol="197" pan="0" len="24" pos="480"/>
          <note key="56" vol="197" pan="0" len="24" pos="480"/>
          <note key="52" vol="197" pan="0" len="24" pos="480"/>
          <note key="61" vol="197" pan="0" len="24" pos="528"/>
          <note key="56" vol="197" pan="0" len="24" pos="528"/>
          <note key="52" vol="197" pan="0" len="24" pos="528"/>
          <note key="61" vol="197" pan="0" len="24" pos="576"/>
          <note key="56" vol="197" pan="0" len="24" pos="576"/>
          <note key="51" vol="197" pan="0" len="24" pos="576"/>
          <note key="61" vol="197" pan="0" len="24" pos="624"/>
          <note key="56" vol="197" pan="0" len="24" pos="624"/>
          <note key="51" vol="197" pan="0" len="24" pos="624"/>
          <note key="61" vol="197" pan="0" len="24" pos="672"/>
          <note key="56" vol="197" pan="0" len="24" pos="672"/>
          <note key="51" vol="197" pan="0" len="24" pos="672"/>
          <note key="61" vol="197" pan="0" len="24" pos="720"/>
          <note key="56" vol="197" pan="0" len="24" pos="720"/>
          <note key="51" vol="197" pan="0" len="24" pos="720"/>
        </pattern>
        <pattern name="ZynAddSubFX" muted="0" type="1" steps="16" pos="34944">
          <note key="68" vol="193" pan="0" len="192" pos="0"/>
          <note key="64" vol="193" pan="0" len="192" pos="0"/>
          <note key="61" vol="193" pan="0" len="192" pos="0"/>
          <note key="68" vol="193" pan="0" len="192" pos="192"/>
          <note key="63" vol="193" pan="0" len="192" pos="192"/>
          <note key="59" vol="193" pan="0" len="192" pos="192"/>
          <note key="69" vol="193" pan="0" len="192" pos="384"/>
          <note key="64" vol="193" pan="0" len="192" pos="384"/>
          <note key="61" vol="193" pan="0" len="192" pos="384"/>
          <note key="71" vol="193" pan="0" len="192" pos="576"/>
          <note key="66" vol="193" pan="0" len="192" pos="576"/>
          <note key="63" vol="193" pan="0" len="192" pos="576"/>
          <note key="73" vol="193" pan="0" len="192" pos="768"/>
          <note key="69" vol="193" pan="0" len="192" pos="768"/>
          <note key="66" vol="193" pan="0" len="192" pos="768"/>
          <note key="75" vol="193" pan="0" len="192" pos="960"/>
          <note key="71" vol="193" pan="0" len="192" pos="960"/>
          <note key="68" vol="193" pan="0" len="192" pos="960"/>
          <note key="76" vol="193" pan="0" len="192" pos="1152"/>
          <note key="73" vol="193" pan="0" len="192" pos="1152"/>
          <note key="69" vol="193" pan="0" len="192" pos="1152"/>
          <note key="75" vol="193" pan="0" len="96" pos="1344"/>
          <note key="71" vol="193" pan="0" len="96" pos="1344"/>
          <note key="66" vol="193" pan="0" len="96" pos="1344"/>
          <note key="75" vol="193" pan="0" len="48" pos="1440"/>
          <note key="71" vol="193" pan="0" len="48" pos="1440"/>
          <note key="68" vol="193" pan="0" len="48" pos="1440"/>
          <note key="75" vol="193" pan="0" len="48" pos="1488"/>
          <note key="71" vol="193" pan="0" len="48" pos="1488"/>
          <note key="66" vol="193" pan="0" len="48" pos="1488"/>
        </pattern>
        <pattern name="ZynAddSubFX" muted="0" type="1" steps="16" pos="39552">
          <note key="68" vol="197" pan="0" len="192" pos="0"/>
          <note key="64" vol="197" pan="0" len="192" pos="0"/>
          <note key="61" vol="197" pan="0" len="192" pos="0"/>
          <note key="68" vol="197" pan="0" len="192" pos="192"/>
          <note key="63" vol="197" pan="0" len="192" pos="192"/>
          <note key="59" vol="197" pan="0" len="192" pos="192"/>
          <note key="69" vol="197" pan="0" len="192" pos="384"/>
          <note key="64" vol="197" pan="0" len="192" pos="384"/>
          <note key="61" vol="197" pan="0" len="192" pos="384"/>
          <note key="71" vol="197" pan="0" len="192" pos="576"/>
          <note key="66" vol="197" pan="0" len="192" pos="576"/>
          <note key="63" vol="197" pan="0" len="192" pos="576"/>
          <note key="73" vol="197" pan="0" len="192" pos="768"/>
          <note key="69" vol="197" pan="0" len="192" pos="768"/>
          <note key="66" vol="197" pan="0" len="192" pos="768"/>
          <note key="75" vol="197" pan="0" len="192" pos="960"/>
          <note key="71" vol="197" pan="0" len="192" pos="960"/>
          <note key="68" vol="197" pan="0" len="192" pos="960"/>
          <note key="76" vol="197" pan="0" len="192" pos="1152"/>
          <note key="73" vol="197" pan="0" len="192" pos="1152"/>
          <note key="69" vol="197" pan="0" len="192" pos="1152"/>
          <note key="75" vol="197" pan="0" len="96" pos="1344"/>
          <note key="71" vol="197" pan="0" len="96" pos="1344"/>
          <note key="66" vol="197" pan="0" len="96" pos="1344"/>
          <note key="75" vol="197" pan="0" len="96" pos="1440"/>
          <note key="72" vol="197" pan="0" len="96" pos="1440"/>
          <note key="66" vol="197" pan="0" len="96" pos="1440"/>
          <note key="76" vol="197" pan="0" len="192" pos="1536"/>
          <note key="73" vol="197" pan="0" len="192" pos="1536"/>
          <note key="68" vol="197" pan="0" len="192" pos="1536"/>
          <note key="75" vol="197" pan="0" len="192" pos="1728"/>
          <note key="71" vol="197" pan="0" len="192" pos="1728"/>
          <note key="66" vol="197" pan="0" len="192" pos="1728"/>
          <note key="73" vol="197" pan="0" len="384" pos="1920"/>
          <note key="70" vol="197" pan="0" len="384" pos="1920"/>
          <note key="66" vol="197" pan="0" len="384" pos="1920"/>
          <note key="74" vol="197" pan="0" len="192" pos="2304"/>
          <note key="69" vol="197" pan="0" len="192" pos="2304"/>
          <note key="66" vol="197" pan="0" len="192" pos="2304"/>
          <note key="73" vol="197" pan="0" len="192" pos="2496"/>
          <note key="69" vol="197" pan="0" len="192" pos="2496"/>
          <note key="64" vol="197" pan="0" len="192" pos="2496"/>
          <note key="75" vol="197" pan="0" len="384" pos="2688"/>
          <note key="71" vol="197" pan="0" len="384" pos="2688"/>
          <note key="66" vol="197" pan="0" len="384" pos="2688"/>
        </pattern>
        <pattern name="ZynAddSubFX" muted="0" type="1" steps="16" pos="44160">
          <note key="70" vol="197" pan="0" len="192" pos="0"/>
          <note key="66" vol="197" pan="0" len="192" pos="0"/>
          <note key="63" vol="197" pan="0" len="192" pos="0"/>
          <note key="70" vol="197" pan="0" len="192" pos="192"/>
          <note key="65" vol="197" pan="0" len="192" pos="192"/>
          <note key="61" vol="197" pan="0" len="192" pos="192"/>
          <note key="71" vol="197" pan="0" len="192" pos="384"/>
          <note key="66" vol="197" pan="0" len="192" pos="384"/>
          <note key="63" vol="197" pan="0" len="192" pos="384"/>
          <note key="73" vol="197" pan="0" len="192" pos="576"/>
          <note key="68" vol="197" pan="0" len="192" pos="576"/>
          <note key="65" vol="197" pan="0" len="192" pos="576"/>
          <note key="75" vol="197" pan="0" len="192" pos="768"/>
          <note key="71" vol="197" pan="0" len="192" pos="768"/>
          <note key="68" vol="197" pan="0" len="192" pos="768"/>
          <note key="77" vol="197" pan="0" len="192" pos="960"/>
          <note key="73" vol="197" pan="0" len="192" pos="960"/>
          <note key="70" vol="197" pan="0" len="192" pos="960"/>
          <note key="78" vol="197" pan="0" len="192" pos="1152"/>
          <note key="75" vol="197" pan="0" len="192" pos="1152"/>
          <note key="71" vol="197" pan="0" len="192" pos="1152"/>
          <note key="77" vol="197" pan="0" len="96" pos="1344"/>
          <note key="73" vol="197" pan="0" len="96" pos="1344"/>
          <note key="68" vol="197" pan="0" len="96" pos="1344"/>
          <note key="77" vol="197" pan="0" len="96" pos="1440"/>
          <note key="74" vol="197" pan="0" len="96" pos="1440"/>
          <note key="68" vol="197" pan="0" len="96" pos="1440"/>
          <note key="78" vol="197" pan="0" len="192" pos="1536"/>
          <note key="75" vol="197" pan="0" len="192" pos="1536"/>
          <note key="70" vol="197" pan="0" len="192" pos="1536"/>
          <note key="77" vol="197" pan="0" len="192" pos="1728"/>
          <note key="73" vol="197" pan="0" len="192" pos="1728"/>
          <note key="68" vol="197" pan="0" len="192" pos="1728"/>
          <note key="75" vol="197" pan="0" len="384" pos="1920"/>
          <note key="72" vol="197" pan="0" len="384" pos="1920"/>
          <note key="68" vol="197" pan="0" len="384" pos="1920"/>
          <note key="76" vol="197" pan="0" len="192" pos="2304"/>
          <note key="71" vol="197" pan="0" len="192" pos="2304"/>
          <note key="68" vol="197" pan="0" len="192" pos="2304"/>
          <note key="75" vol="197" pan="0" len="192" pos="2496"/>
          <note key="71" vol="197" pan="0" len="192" pos="2496"/>
          <note key="66" vol="197" pan="0" len="192" pos="2496"/>
          <note key="77" vol="197" pan="0" len="192" pos="2688"/>
          <note key="73" vol="197" pan="0" len="192" pos="2688"/>
          <note key="68" vol="197" pan="0" len="192" pos="2688"/>
          <note key="73" vol="195" pan="0" len="48" pos="2880"/>
          <note key="71" vol="195" pan="0" len="48" pos="2928"/>
          <note key="70" vol="195" pan="0" len="48" pos="2976"/>
          <note key="68" vol="195" pan="0" len="48" pos="3024"/>
        </pattern>
        <pattern name="ZynAddSubFX" muted="0" type="1" steps="16" pos="43776">
          <note key="64" vol="197" pan="0" len="96" pos="96"/>
          <note key="61" vol="197" pan="0" len="96" pos="96"/>
          <note key="57" vol="197" pan="0" len="96" pos="96"/>
          <note key="66" vol="197" pan="0" len="96" pos="192"/>
          <note key="63" vol="197" pan="0" len="96" pos="192"/>
          <note key="59" vol="197" pan="0" len="96" pos="192"/>
          <note key="68" vol="197" pan="0" len="96" pos="288"/>
          <note key="65" vol="197" pan="0" len="96" pos="288"/>
          <note key="61" vol="197" pan="0" len="96" pos="288"/>
        </pattern>
        <pattern name="" muted="0" type="1" steps="16" pos="47232">
          <note key="58" vol="197" pan="0" len="192" pos="0"/>
          <note key="54" vol="197" pan="0" len="192" pos="0"/>
          <note key="51" vol="197" pan="0" len="192" pos="0"/>
          <note key="58" vol="197" pan="0" len="192" pos="192"/>
          <note key="53" vol="197" pan="0" len="192" pos="192"/>
          <note key="49" vol="197" pan="0" len="192" pos="192"/>
          <note key="59" vol="197" pan="0" len="192" pos="384"/>
          <note key="54" vol="197" pan="0" len="192" pos="384"/>
          <note key="51" vol="197" pan="0" len="192" pos="384"/>
          <note key="61" vol="197" pan="0" len="192" pos="576"/>
          <note key="56" vol="197" pan="0" len="192" pos="576"/>
          <note key="53" vol="197" pan="0" len="192" pos="576"/>
          <note key="63" vol="197" pan="0" len="192" pos="768"/>
          <note key="59" vol="197" pan="0" len="192" pos="768"/>
          <note key="56" vol="197" pan="0" len="192" pos="768"/>
          <note key="65" vol="197" pan="0" len="192" pos="960"/>
          <note key="61" vol="197" pan="0" len="192" pos="960"/>
          <note key="58" vol="197" pan="0" len="192" pos="960"/>
          <note key="66" vol="197" pan="0" len="192" pos="1152"/>
          <note key="63" vol="197" pan="0" len="192" pos="1152"/>
          <note key="59" vol="197" pan="0" len="192" pos="1152"/>
          <note key="65" vol="197" pan="0" len="96" pos="1344"/>
          <note key="61" vol="197" pan="0" len="96" pos="1344"/>
          <note key="56" vol="197" pan="0" len="96" pos="1344"/>
          <note key="65" vol="197" pan="0" len="96" pos="1440"/>
          <note key="62" vol="197" pan="0" len="96" pos="1440"/>
          <note key="56" vol="197" pan="0" len="96" pos="1440"/>
          <note key="66" vol="197" pan="0" len="192" pos="1536"/>
          <note key="63" vol="197" pan="0" len="192" pos="1536"/>
          <note key="58" vol="197" pan="0" len="192" pos="1536"/>
          <note key="65" vol="197" pan="0" len="192" pos="1728"/>
          <note key="61" vol="197" pan="0" len="192" pos="1728"/>
          <note key="56" vol="197" pan="0" len="192" pos="1728"/>
          <note key="63" vol="197" pan="0" len="384" pos="1920"/>
          <note key="60" vol="197" pan="0" len="384" pos="1920"/>
          <note key="56" vol="197" pan="0" len="384" pos="1920"/>
          <note key="64" vol="197" pan="0" len="192" pos="2304"/>
          <note key="59" vol="197" pan="0" len="192" pos="2304"/>
          <note key="56" vol="197" pan="0" len="192" pos="2304"/>
          <note key="63" vol="197" pan="0" len="192" pos="2496"/>
          <note key="59" vol="197" pan="0" len="192" pos="2496"/>
          <note key="54" vol="197" pan="0" len="192" pos="2496"/>
          <note key="65" vol="197" pan="0" len="192" pos="2688"/>
          <note key="61" vol="197" pan="0" len="192" pos="2688"/>
          <note key="56" vol="197" pan="0" len="192" pos="2688"/>
          <note key="61" vol="195" pan="0" len="48" pos="2880"/>
          <note key="59" vol="195" pan="0" len="48" pos="2928"/>
          <note key="58" vol="195" pan="0" len="48" pos="2976"/>
          <note key="56" vol="195" pan="0" len="48" pos="3024"/>
        </pattern>
      </track>
      <track name="dt" muted="0" type="0" solo="0">
        <instrumenttrack vol="89.8" pitch="0" pitchrange="1" basenote="45" pan="0" fxch="0" usemasterpitch="1">
          <instrument name="zynaddsubfx">
            <zynaddsubfx rescenterfreq="64" resbandwidth="64" portamento="0" filterq="64" fmgain="127" modifiedcontrollers="" bandwidth="64" forwardmidicc="1" filterfreq="64">
              <ZynAddSubFX-data version-major="2" version-minor="4" version-revision="1" ZynAddSubFX-author="Nasca Octavian Paul">
                <INFORMATION>
                  <par_bool name="PADsynth_used" value="yes"/>
                </INFORMATION>
                <BASE_PARAMETERS>
                  <par name="max_midi_parts" value="16"/>
                  <par name="max_kit_items_per_instrument" value="16"/>
                  <par name="max_system_effects" value="4"/>
                  <par name="max_insertion_effects" value="8"/>
                  <par name="max_instrument_effects" value="3"/>
                  <par name="max_addsynth_voices" value="8"/>
                </BASE_PARAMETERS>
                <MASTER>
                  <par name="volume" value="80"/>
                  <par name="key_shift" value="64"/>
                  <par_bool name="nrpn_receive" value="yes"/>
                  <MICROTONAL>
                    <string name="name">12tET</string>
                    <string name="comment">Equal Temperament 12 notes per octave</string>
                    <par_bool name="invert_up_down" value="no"/>
                    <par name="invert_up_down_center" value="60"/>
                    <par_bool name="enabled" value="no"/>
                    <par name="global_fine_detune" value="64"/>
                    <par name="a_note" value="69"/>
                    <par_real name="a_freq" value="440.000000"/>
                  </MICROTONAL>
                  <PART id="0">
                    <par_bool name="enabled" value="yes"/>
                    <par name="volume" value="96"/>
                    <par name="panning" value="64"/>
                    <par name="min_key" value="0"/>
                    <par name="max_key" value="127"/>
                    <par name="key_shift" value="64"/>
                    <par name="rcv_chn" value="0"/>
                    <par name="velocity_sensing" value="64"/>
                    <par name="velocity_offset" value="64"/>
                    <par_bool name="note_on" value="yes"/>
                    <par_bool name="poly_mode" value="yes"/>
                    <par name="legato_mode" value="0"/>
                    <par name="key_limit" value="15"/>
                    <INSTRUMENT>
                      <INFO>
                        <string name="name">Fantasia</string>
                        <string name="author">Will Godfrey
GPL V 2 or later</string>
                        <string name="comments">Derived from one of Paul's Bells voices</string>
                        <par name="type" value="1"/>
                      </INFO>
                      <INSTRUMENT_KIT>
                        <par name="kit_mode" value="0"/>
                        <par_bool name="drum_mode" value="no"/>
                        <INSTRUMENT_KIT_ITEM id="0">
                          <par_bool name="enabled" value="yes"/>
                          <string name="name"/>
                          <par_bool name="muted" value="no"/>
                          <par name="min_key" value="0"/>
                          <par name="max_key" value="127"/>
                          <par name="send_to_instrument_effect" value="0"/>
                          <par_bool name="add_enabled" value="no"/>
                          <par_bool name="sub_enabled" value="no"/>
                          <par_bool name="pad_enabled" value="yes"/>
                          <PAD_SYNTH_PARAMETERS>
                            <par_bool name="stereo" value="yes"/>
                            <par name="mode" value="0"/>
                            <par name="bandwidth" value="485"/>
                            <par name="bandwidth_scale" value="0"/>
                            <HARMONIC_PROFILE>
                              <par name="base_type" value="0"/>
                              <par name="base_par1" value="99"/>
                              <par name="frequency_multiplier" value="11"/>
                              <par name="modulator_par1" value="0"/>
                              <par name="modulator_frequency" value="55"/>
                              <par name="width" value="127"/>
                              <par name="amplitude_multiplier_type" value="0"/>
                              <par name="amplitude_multiplier_mode" value="2"/>
                              <par name="amplitude_multiplier_par1" value="80"/>
                              <par name="amplitude_multiplier_par2" value="4"/>
                              <par_bool name="autoscale" value="yes"/>
                              <par name="one_half" value="0"/>
                            </HARMONIC_PROFILE>
                            <OSCIL>
                              <par name="harmonic_mag_type" value="0"/>
                              <par name="base_function" value="0"/>
                              <par name="base_function_par" value="48"/>
                              <par name="base_function_modulation" value="0"/>
                              <par name="base_function_modulation_par1" value="64"/>
                              <par name="base_function_modulation_par2" value="64"/>
                              <par name="base_function_modulation_par3" value="32"/>
                              <par name="modulation" value="0"/>
                              <par name="modulation_par1" value="64"/>
                              <par name="modulation_par2" value="64"/>
                              <par name="modulation_par3" value="32"/>
                              <par name="wave_shaping" value="121"/>
                              <par name="wave_shaping_function" value="14"/>
                              <par name="filter_type" value="13"/>
                              <par name="filter_par1" value="23"/>
                              <par name="filter_par2" value="92"/>
                              <par name="filter_before_wave_shaping" value="0"/>
                              <par name="spectrum_adjust_type" value="0"/>
                              <par name="spectrum_adjust_par" value="49"/>
                              <par name="rand" value="64"/>
                              <par name="amp_rand_type" value="0"/>
                              <par name="amp_rand_power" value="64"/>
                              <par name="harmonic_shift" value="0"/>
                              <par_bool name="harmonic_shift_first" value="no"/>
                              <par name="adaptive_harmonics" value="0"/>
                              <par name="adaptive_harmonics_base_frequency" value="114"/>
                              <par name="adaptive_harmonics_power" value="63"/>
                              <HARMONICS>
                                <HARMONIC id="1">
                                  <par name="mag" value="127"/>
                                  <par name="phase" value="64"/>
                                </HARMONIC>
                                <HARMONIC id="2">
                                  <par name="mag" value="75"/>
                                  <par name="phase" value="64"/>
                                </HARMONIC>
                                <HARMONIC id="4">
                                  <par name="mag" value="84"/>
                                  <par name="phase" value="64"/>
                                </HARMONIC>
                              </HARMONICS>
                            </OSCIL>
                            <RESONANCE>
                              <par_bool name="enabled" value="no"/>
                            </RESONANCE>
                            <HARMONIC_POSITION>
                              <par name="type" value="6"/>
                              <par name="parameter1" value="176"/>
                              <par name="parameter2" value="159"/>
                              <par name="parameter3" value="255"/>
                            </HARMONIC_POSITION>
                            <SAMPLE_QUALITY>
                              <par name="samplesize" value="3"/>
                              <par name="basenote" value="5"/>
                              <par name="octaves" value="4"/>
                              <par name="samples_per_octave" value="2"/>
                            </SAMPLE_QUALITY>
                            <AMPLITUDE_PARAMETERS>
                              <par name="volume" value="98"/>
                              <par name="panning" value="64"/>
                              <par name="velocity_sensing" value="73"/>
                              <par name="punch_strength" value="37"/>
                              <par name="punch_time" value="60"/>
                              <par name="punch_stretch" value="64"/>
                              <par name="punch_velocity_sensing" value="56"/>
                              <AMPLITUDE_ENVELOPE>
                                <par_bool name="free_mode" value="no"/>
                                <par name="env_points" value="4"/>
                                <par name="env_sustain" value="2"/>
                                <par name="env_stretch" value="36"/>
                                <par_bool name="forced_release" value="yes"/>
                                <par_bool name="linear_envelope" value="no"/>
                                <par name="A_dt" value="14"/>
                                <par name="D_dt" value="113"/>
                                <par name="R_dt" value="15"/>
                                <par name="A_val" value="64"/>
                                <par name="D_val" value="64"/>
                                <par name="S_val" value="0"/>
                                <par name="R_val" value="64"/>
                              </AMPLITUDE_ENVELOPE>
                              <AMPLITUDE_LFO>
                                <par_real name="freq" value="0.629921"/>
                                <par name="intensity" value="0"/>
                                <par name="start_phase" value="64"/>
                                <par name="lfo_type" value="0"/>
                                <par name="randomness_amplitude" value="0"/>
                                <par name="randomness_frequency" value="0"/>
                                <par name="delay" value="0"/>
                                <par name="stretch" value="64"/>
                                <par_bool name="continous" value="no"/>
                              </AMPLITUDE_LFO>
                            </AMPLITUDE_PARAMETERS>
                            <FREQUENCY_PARAMETERS>
                              <par name="fixed_freq" value="0"/>
                              <par name="fixed_freq_et" value="0"/>
                              <par name="detune" value="8192"/>
                              <par name="coarse_detune" value="0"/>
                              <par name="detune_type" value="1"/>
                              <FREQUENCY_ENVELOPE>
                                <par_bool name="free_mode" value="no"/>
                                <par name="env_points" value="3"/>
                                <par name="env_sustain" value="1"/>
                                <par name="env_stretch" value="0"/>
                                <par_bool name="forced_release" value="no"/>
                                <par_bool name="linear_envelope" value="no"/>
                                <par name="A_dt" value="50"/>
                                <par name="D_dt" value="10"/>
                                <par name="R_dt" value="60"/>
                                <par name="A_val" value="64"/>
                                <par name="D_val" value="64"/>
                                <par name="S_val" value="64"/>
                                <par name="R_val" value="64"/>
                              </FREQUENCY_ENVELOPE>
                              <FREQUENCY_LFO>
                                <par_real name="freq" value="0.610681"/>
                                <par name="intensity" value="0"/>
                                <par name="start_phase" value="64"/>
                                <par name="lfo_type" value="0"/>
                                <par name="randomness_amplitude" value="0"/>
                                <par name="randomness_frequency" value="47"/>
                                <par name="delay" value="0"/>
                                <par name="stretch" value="64"/>
                                <par_bool name="continous" value="no"/>
                              </FREQUENCY_LFO>
                            </FREQUENCY_PARAMETERS>
                            <FILTER_PARAMETERS>
                              <par name="velocity_sensing_amplitude" value="127"/>
                              <par name="velocity_sensing" value="92"/>
                              <FILTER>
                                <par name="category" value="0"/>
                                <par name="type" value="0"/>
                                <par name="freq" value="127"/>
                                <par name="q" value="0"/>
                                <par name="stages" value="2"/>
                                <par name="freq_track" value="63"/>
                                <par name="gain" value="64"/>
                              </FILTER>
                              <FILTER_ENVELOPE>
                                <par_bool name="free_mode" value="no"/>
                                <par name="env_points" value="4"/>
                                <par name="env_sustain" value="2"/>
                                <par name="env_stretch" value="22"/>
                                <par_bool name="forced_release" value="yes"/>
                                <par_bool name="linear_envelope" value="no"/>
                                <par name="A_dt" value="0"/>
                                <par name="D_dt" value="127"/>
                                <par name="R_dt" value="127"/>
                                <par name="A_val" value="127"/>
                                <par name="D_val" value="127"/>
                                <par name="S_val" value="64"/>
                                <par name="R_val" value="0"/>
                              </FILTER_ENVELOPE>
                              <FILTER_LFO>
                                <par_real name="freq" value="0.484921"/>
                                <par name="intensity" value="13"/>
                                <par name="start_phase" value="59"/>
                                <par name="lfo_type" value="0"/>
                                <par name="randomness_amplitude" value="0"/>
                                <par name="randomness_frequency" value="0"/>
                                <par name="delay" value="0"/>
                                <par name="stretch" value="64"/>
                                <par_bool name="continous" value="no"/>
                              </FILTER_LFO>
                            </FILTER_PARAMETERS>
                          </PAD_SYNTH_PARAMETERS>
                        </INSTRUMENT_KIT_ITEM>
                        <INSTRUMENT_KIT_ITEM id="1">
                          <par_bool name="enabled" value="no"/>
                        </INSTRUMENT_KIT_ITEM>
                        <INSTRUMENT_KIT_ITEM id="2">
                          <par_bool name="enabled" value="no"/>
                        </INSTRUMENT_KIT_ITEM>
                        <INSTRUMENT_KIT_ITEM id="3">
                          <par_bool name="enabled" value="no"/>
                        </INSTRUMENT_KIT_ITEM>
                        <INSTRUMENT_KIT_ITEM id="4">
                          <par_bool name="enabled" value="no"/>
                        </INSTRUMENT_KIT_ITEM>
                        <INSTRUMENT_KIT_ITEM id="5">
                          <par_bool name="enabled" value="no"/>
                        </INSTRUMENT_KIT_ITEM>
                        <INSTRUMENT_KIT_ITEM id="6">
                          <par_bool name="enabled" value="no"/>
                        </INSTRUMENT_KIT_ITEM>
                        <INSTRUMENT_KIT_ITEM id="7">
                          <par_bool name="enabled" value="no"/>
                        </INSTRUMENT_KIT_ITEM>
                        <INSTRUMENT_KIT_ITEM id="8">
                          <par_bool name="enabled" value="no"/>
                        </INSTRUMENT_KIT_ITEM>
                        <INSTRUMENT_KIT_ITEM id="9">
                          <par_bool name="enabled" value="no"/>
                        </INSTRUMENT_KIT_ITEM>
                        <INSTRUMENT_KIT_ITEM id="10">
                          <par_bool name="enabled" value="no"/>
                        </INSTRUMENT_KIT_ITEM>
                        <INSTRUMENT_KIT_ITEM id="11">
                          <par_bool name="enabled" value="no"/>
                        </INSTRUMENT_KIT_ITEM>
                        <INSTRUMENT_KIT_ITEM id="12">
                          <par_bool name="enabled" value="no"/>
                        </INSTRUMENT_KIT_ITEM>
                        <INSTRUMENT_KIT_ITEM id="13">
                          <par_bool name="enabled" value="no"/>
                        </INSTRUMENT_KIT_ITEM>
                        <INSTRUMENT_KIT_ITEM id="14">
                          <par_bool name="enabled" value="no"/>
                        </INSTRUMENT_KIT_ITEM>
                        <INSTRUMENT_KIT_ITEM id="15">
                          <par_bool name="enabled" value="no"/>
                        </INSTRUMENT_KIT_ITEM>
                      </INSTRUMENT_KIT>
                      <INSTRUMENT_EFFECTS>
                        <INSTRUMENT_EFFECT id="0">
                          <EFFECT>
                            <par name="type" value="3"/>
                            <par name="preset" value="0"/>
                            <EFFECT_PARAMETERS>
                              <par_no id="0">
                                <par name="par" value="127"/>
                              </par_no>
                              <par_no id="1">
                                <par name="par" value="64"/>
                              </par_no>
                              <par_no id="2">
                                <par name="par" value="80"/>
                              </par_no>
                              <par_no id="5">
                                <par name="par" value="127"/>
                              </par_no>
                              <par_no id="6">
                                <par name="par" value="17"/>
                              </par_no>
                              <par_no id="7">
                                <par name="par" value="85"/>
                              </par_no>
                              <par_no id="8">
                                <par name="par" value="102"/>
                              </par_no>
                              <par_no id="9">
                                <par name="par" value="119"/>
                              </par_no>
                            </EFFECT_PARAMETERS>
                          </EFFECT>
                          <par name="route" value="0"/>
                          <par_bool name="bypass" value="yes"/>
                        </INSTRUMENT_EFFECT>
                        <INSTRUMENT_EFFECT id="1">
                          <EFFECT>
                            <par name="type" value="0"/>
                          </EFFECT>
                          <par name="route" value="0"/>
                          <par_bool name="bypass" value="no"/>
                        </INSTRUMENT_EFFECT>
                        <INSTRUMENT_EFFECT id="2">
                          <EFFECT>
                            <par name="type" value="0"/>
                          </EFFECT>
                          <par name="route" value="0"/>
                          <par_bool name="bypass" value="no"/>
                        </INSTRUMENT_EFFECT>
                      </INSTRUMENT_EFFECTS>
                    </INSTRUMENT>
                    <CONTROLLER>
                      <par name="pitchwheel_bendrange" value="100"/>
                      <par_bool name="expression_receive" value="yes"/>
                      <par name="panning_depth" value="64"/>
                      <par name="filter_cutoff_depth" value="64"/>
                      <par name="filter_q_depth" value="64"/>
                      <par name="bandwidth_depth" value="64"/>
                      <par name="mod_wheel_depth" value="80"/>
                      <par_bool name="mod_wheel_exponential" value="no"/>
                      <par_bool name="fm_amp_receive" value="yes"/>
                      <par_bool name="volume_receive" value="yes"/>
                      <par_bool name="sustain_receive" value="yes"/>
                      <par_bool name="portamento_receive" value="yes"/>
                      <par name="portamento_time" value="64"/>
                      <par name="portamento_pitchthresh" value="3"/>
                      <par name="portamento_pitchthreshtype" value="1"/>
                      <par name="portamento_portamento" value="0"/>
                      <par name="portamento_updowntimestretch" value="64"/>
                      <par name="portamento_proportional" value="0"/>
                      <par name="portamento_proprate" value="80"/>
                      <par name="portamento_propdepth" value="90"/>
                      <par name="resonance_center_depth" value="64"/>
                      <par name="resonance_bandwidth_depth" value="64"/>
                    </CONTROLLER>
                  </PART>
                  <PART id="1">
                    <par_bool name="enabled" value="no"/>
                  </PART>
                  <PART id="2">
                    <par_bool name="enabled" value="no"/>
                  </PART>
                  <PART id="3">
                    <par_bool name="enabled" value="no"/>
                  </PART>
                  <PART id="4">
                    <par_bool name="enabled" value="no"/>
                  </PART>
                  <PART id="5">
                    <par_bool name="enabled" value="no"/>
                  </PART>
                  <PART id="6">
                    <par_bool name="enabled" value="no"/>
                  </PART>
                  <PART id="7">
                    <par_bool name="enabled" value="no"/>
                  </PART>
                  <PART id="8">
                    <par_bool name="enabled" value="no"/>
                  </PART>
                  <PART id="9">
                    <par_bool name="enabled" value="no"/>
                  </PART>
                  <PART id="10">
                    <par_bool name="enabled" value="no"/>
                  </PART>
                  <PART id="11">
                    <par_bool name="enabled" value="no"/>
                  </PART>
                  <PART id="12">
                    <par_bool name="enabled" value="no"/>
                  </PART>
                  <PART id="13">
                    <par_bool name="enabled" value="no"/>
                  </PART>
                  <PART id="14">
                    <par_bool name="enabled" value="no"/>
                  </PART>
                  <PART id="15">
                    <par_bool name="enabled" value="no"/>
                  </PART>
                  <SYSTEM_EFFECTS>
                    <SYSTEM_EFFECT id="0">
                      <EFFECT>
                        <par name="type" value="0"/>
                      </EFFECT>
                      <VOLUME id="0">
                        <par name="vol" value="0"/>
                      </VOLUME>
                      <VOLUME id="1">
                        <par name="vol" value="0"/>
                      </VOLUME>
                      <VOLUME id="2">
                        <par name="vol" value="0"/>
                      </VOLUME>
                      <VOLUME id="3">
                        <par name="vol" value="0"/>
                      </VOLUME>
                      <VOLUME id="4">
                        <par name="vol" value="0"/>
                      </VOLUME>
                      <VOLUME id="5">
                        <par name="vol" value="0"/>
                      </VOLUME>
                      <VOLUME id="6">
                        <par name="vol" value="0"/>
                      </VOLUME>
                      <VOLUME id="7">
                        <par name="vol" value="0"/>
                      </VOLUME>
                      <VOLUME id="8">
                        <par name="vol" value="0"/>
                      </VOLUME>
                      <VOLUME id="9">
                        <par name="vol" value="0"/>
                      </VOLUME>
                      <VOLUME id="10">
                        <par name="vol" value="0"/>
                      </VOLUME>
                      <VOLUME id="11">
                        <par name="vol" value="0"/>
                      </VOLUME>
                      <VOLUME id="12">
                        <par name="vol" value="0"/>
                      </VOLUME>
                      <VOLUME id="13">
                        <par name="vol" value="0"/>
                      </VOLUME>
                      <VOLUME id="14">
                        <par name="vol" value="0"/>
                      </VOLUME>
                      <VOLUME id="15">
                        <par name="vol" value="0"/>
                      </VOLUME>
                      <SENDTO id="1">
                        <par name="send_vol" value="0"/>
                      </SENDTO>
                      <SENDTO id="2">
                        <par name="send_vol" value="0"/>
                      </SENDTO>
                      <SENDTO id="3">
                        <par name="send_vol" value="0"/>
                      </SENDTO>
                    </SYSTEM_EFFECT>
                    <SYSTEM_EFFECT id="1">
                      <EFFECT>
                        <par name="type" value="0"/>
                      </EFFECT>
                      <VOLUME id="0">
                        <par name="vol" value="0"/>
                      </VOLUME>
                      <VOLUME id="1">
                        <par name="vol" value="0"/>
                      </VOLUME>
                      <VOLUME id="2">
                        <par name="vol" value="0"/>
                      </VOLUME>
                      <VOLUME id="3">
                        <par name="vol" value="0"/>
                      </VOLUME>
                      <VOLUME id="4">
                        <par name="vol" value="0"/>
                      </VOLUME>
                      <VOLUME id="5">
                        <par name="vol" value="0"/>
                      </VOLUME>
                      <VOLUME id="6">
                        <par name="vol" value="0"/>
                      </VOLUME>
                      <VOLUME id="7">
                        <par name="vol" value="0"/>
                      </VOLUME>
                      <VOLUME id="8">
                        <par name="vol" value="0"/>
                      </VOLUME>
                      <VOLUME id="9">
                        <par name="vol" value="0"/>
                      </VOLUME>
                      <VOLUME id="10">
                        <par name="vol" value="0"/>
                      </VOLUME>
                      <VOLUME id="11">
                        <par name="vol" value="0"/>
                      </VOLUME>
                      <VOLUME id="12">
                        <par name="vol" value="0"/>
                      </VOLUME>
                      <VOLUME id="13">
                        <par name="vol" value="0"/>
                      </VOLUME>
                      <VOLUME id="14">
                        <par name="vol" value="0"/>
                      </VOLUME>
                      <VOLUME id="15">
                        <par name="vol" value="0"/>
                      </VOLUME>
                      <SENDTO id="2">
                        <par name="send_vol" value="0"/>
                      </SENDTO>
                      <SENDTO id="3">
                        <par name="send_vol" value="0"/>
                      </SENDTO>
                    </SYSTEM_EFFECT>
                    <SYSTEM_EFFECT id="2">
                      <EFFECT>
                        <par name="type" value="0"/>
                      </EFFECT>
                      <VOLUME id="0">
                        <par name="vol" value="0"/>
                      </VOLUME>
                      <VOLUME id="1">
                        <par name="vol" value="0"/>
                      </VOLUME>
                      <VOLUME id="2">
                        <par name="vol" value="0"/>
                      </VOLUME>
                      <VOLUME id="3">
                        <par name="vol" value="0"/>
                      </VOLUME>
                      <VOLUME id="4">
                        <par name="vol" value="0"/>
                      </VOLUME>
                      <VOLUME id="5">
                        <par name="vol" value="0"/>
                      </VOLUME>
                      <VOLUME id="6">
                        <par name="vol" value="0"/>
                      </VOLUME>
                      <VOLUME id="7">
                        <par name="vol" value="0"/>
                      </VOLUME>
                      <VOLUME id="8">
                        <par name="vol" value="0"/>
                      </VOLUME>
                      <VOLUME id="9">
                        <par name="vol" value="0"/>
                      </VOLUME>
                      <VOLUME id="10">
                        <par name="vol" value="0"/>
                      </VOLUME>
                      <VOLUME id="11">
                        <par name="vol" value="0"/>
                      </VOLUME>
                      <VOLUME id="12">
                        <par name="vol" value="0"/>
                      </VOLUME>
                      <VOLUME id="13">
                        <par name="vol" value="0"/>
                      </VOLUME>
                      <VOLUME id="14">
                        <par name="vol" value="0"/>
                      </VOLUME>
                      <VOLUME id="15">
                        <par name="vol" value="0"/>
                      </VOLUME>
                      <SENDTO id="3">
                        <par name="send_vol" value="0"/>
                      </SENDTO>
                    </SYSTEM_EFFECT>
                    <SYSTEM_EFFECT id="3">
                      <EFFECT>
                        <par name="type" value="0"/>
                      </EFFECT>
                      <VOLUME id="0">
                        <par name="vol" value="0"/>
                      </VOLUME>
                      <VOLUME id="1">
                        <par name="vol" value="0"/>
                      </VOLUME>
                      <VOLUME id="2">
                        <par name="vol" value="0"/>
                      </VOLUME>
                      <VOLUME id="3">
                        <par name="vol" value="0"/>
                      </VOLUME>
                      <VOLUME id="4">
                        <par name="vol" value="0"/>
                      </VOLUME>
                      <VOLUME id="5">
                        <par name="vol" value="0"/>
                      </VOLUME>
                      <VOLUME id="6">
                        <par name="vol" value="0"/>
                      </VOLUME>
                      <VOLUME id="7">
                        <par name="vol" value="0"/>
                      </VOLUME>
                      <VOLUME id="8">
                        <par name="vol" value="0"/>
                      </VOLUME>
                      <VOLUME id="9">
                        <par name="vol" value="0"/>
                      </VOLUME>
                      <VOLUME id="10">
                        <par name="vol" value="0"/>
                      </VOLUME>
                      <VOLUME id="11">
                        <par name="vol" value="0"/>
                      </VOLUME>
                      <VOLUME id="12">
                        <par name="vol" value="0"/>
                      </VOLUME>
                      <VOLUME id="13">
                        <par name="vol" value="0"/>
                      </VOLUME>
                      <VOLUME id="14">
                        <par name="vol" value="0"/>
                      </VOLUME>
                      <VOLUME id="15">
                        <par name="vol" value="0"/>
                      </VOLUME>
                    </SYSTEM_EFFECT>
                  </SYSTEM_EFFECTS>
                  <INSERTION_EFFECTS>
                    <INSERTION_EFFECT id="0">
                      <par name="part" value="-1"/>
                      <EFFECT>
                        <par name="type" value="0"/>
                      </EFFECT>
                    </INSERTION_EFFECT>
                    <INSERTION_EFFECT id="1">
                      <par name="part" value="-1"/>
                      <EFFECT>
                        <par name="type" value="0"/>
                      </EFFECT>
                    </INSERTION_EFFECT>
                    <INSERTION_EFFECT id="2">
                      <par name="part" value="-1"/>
                      <EFFECT>
                        <par name="type" value="0"/>
                      </EFFECT>
                    </INSERTION_EFFECT>
                    <INSERTION_EFFECT id="3">
                      <par name="part" value="-1"/>
                      <EFFECT>
                        <par name="type" value="0"/>
                      </EFFECT>
                    </INSERTION_EFFECT>
                    <INSERTION_EFFECT id="4">
                      <par name="part" value="-1"/>
                      <EFFECT>
                        <par name="type" value="0"/>
                      </EFFECT>
                    </INSERTION_EFFECT>
                    <INSERTION_EFFECT id="5">
                      <par name="part" value="-1"/>
                      <EFFECT>
                        <par name="type" value="0"/>
                      </EFFECT>
                    </INSERTION_EFFECT>
                    <INSERTION_EFFECT id="6">
                      <par name="part" value="-1"/>
                      <EFFECT>
                        <par name="type" value="0"/>
                      </EFFECT>
                    </INSERTION_EFFECT>
                    <INSERTION_EFFECT id="7">
                      <par name="part" value="-1"/>
                      <EFFECT>
                        <par name="type" value="0"/>
                      </EFFECT>
                    </INSERTION_EFFECT>
                  </INSERTION_EFFECTS>
                </MASTER>
              </ZynAddSubFX-data>
            </zynaddsubfx>
          </instrument>
          <eldata ftype="0" fres="0.5" fwet="0" fcut="14000">
            <elvol dec="0.5" sustain="0.5" pdel="0" lpdel="0" rel="0.1" lspd="0.1" userwavefile="" hold="0.5" lamt="0" lspd_numerator="4" lspd_syncmode="0" lshp="0" amt="0" x100="0" latt="0" lspd_denominator="4" ctlenvamt="0" att="0"/>
            <elcut dec="0.5" sustain="0.5" pdel="0" lpdel="0" rel="0.1" lspd="0.1" userwavefile="" hold="0.5" lamt="0" lspd_numerator="4" lspd_syncmode="0" lshp="0" amt="0" x100="0" latt="0" lspd_denominator="4" ctlenvamt="0" att="0"/>
            <elres dec="0.5" sustain="0.5" pdel="0" lpdel="0" rel="0.1" lspd="0.1" userwavefile="" hold="0.5" lamt="0" lspd_numerator="4" lspd_syncmode="0" lshp="0" amt="0" x100="0" latt="0" lspd_denominator="4" ctlenvamt="0" att="0"/>
          </eldata>
          <chordcreator chord="0" chord-enabled="0" chordrange="1"/>
          <arpeggiator arprange="1" arptime_denominator="4" arpgate="100" arptime_syncmode="0" arp="0" arpmode="0" arpmiss="0" arpdir="0" arptime_numerator="4" arp-enabled="0" arpcycle="0" arpskip="0" arptime="200"/>
          <midiport outputchannel="1" inputcontroller="0" outputcontroller="0" basevelocity="63" fixedinputvelocity="-1" fixedoutputvelocity="-1" outputprogram="1" readable="0" writable="0" fixedoutputnote="-1" inputchannel="0"/>
          <fxchain numofeffects="1" enabled="1">
            <effect autoquit_numerator="4" autoquit="1" name="ladspaeffect" gate="0" on="1" wet="1" autoquit_syncmode="0" autoquit_denominator="4">
              <ladspacontrols link="1" ports="12">
                <port01 data_numerator="4" data_syncmode="0" link="1" data_denominator="4">
                  <data id="3333524" scale_type="log" value="2.95313"/>
                </port01>
                <port02 data_numerator="4" data_syncmode="0" link="1" data_denominator="4" data="6.67375"/>
                <port03 link="1" data="1.45"/>
                <port04 link="1" data="1"/>
                <port05 link="1" data="0.37875"/>
                <port06 link="1" data="0.2825"/>
                <port11 data_numerator="4" data_syncmode="0" data_denominator="4">
                  <data id="1009611" scale_type="log" value="2.95313"/>
                </port11>
                <port12 data_numerator="4" data_syncmode="0" data_denominator="4" data="6.67375"/>
                <port13 data="1.45"/>
                <port14 data="1"/>
                <port15 data="0.37875"/>
                <port16 data="0.2825"/>
              </ladspacontrols>
              <key>
                <attribute name="file" value="caps"/>
                <attribute name="plugin" value="ChorusI"/>
              </key>
            </effect>
          </fxchain>
        </instrumenttrack>
        <pattern name="dt" muted="0" type="1" steps="16" pos="8064">
          <note key="61" vol="78" pan="0" len="24" pos="0"/>
          <note key="68" vol="78" pan="0" len="24" pos="24"/>
          <note key="73" vol="78" pan="0" len="24" pos="48"/>
          <note key="68" vol="78" pan="0" len="24" pos="72"/>
          <note key="76" vol="78" pan="0" len="24" pos="96"/>
          <note key="68" vol="78" pan="0" len="24" pos="120"/>
          <note key="73" vol="78" pan="0" len="24" pos="144"/>
          <note key="68" vol="78" pan="0" len="24" pos="168"/>
          <note key="63" vol="78" pan="0" len="24" pos="192"/>
          <note key="68" vol="78" pan="0" len="24" pos="216"/>
          <note key="71" vol="78" pan="0" len="24" pos="240"/>
          <note key="68" vol="78" pan="0" len="24" pos="264"/>
          <note key="63" vol="78" pan="0" len="24" pos="288"/>
          <note key="68" vol="78" pan="0" len="24" pos="312"/>
          <note key="71" vol="78" pan="0" len="24" pos="336"/>
          <note key="68" vol="78" pan="0" len="24" pos="360"/>
          <note key="64" vol="78" pan="0" len="24" pos="384"/>
          <note key="68" vol="78" pan="0" len="24" pos="408"/>
          <note key="73" vol="78" pan="0" len="24" pos="432"/>
          <note key="68" vol="78" pan="0" len="24" pos="456"/>
          <note key="64" vol="78" pan="0" len="24" pos="480"/>
          <note key="68" vol="78" pan="0" len="24" pos="504"/>
          <note key="73" vol="78" pan="0" len="24" pos="528"/>
          <note key="68" vol="78" pan="0" len="24" pos="552"/>
          <note key="66" vol="78" pan="0" len="24" pos="576"/>
          <note key="71" vol="78" pan="0" len="24" pos="600"/>
          <note key="76" vol="78" pan="0" len="24" pos="624"/>
          <note key="71" vol="78" pan="0" len="24" pos="648"/>
          <note key="66" vol="78" pan="0" len="24" pos="672"/>
          <note key="71" vol="78" pan="0" len="24" pos="696"/>
          <note key="75" vol="78" pan="0" len="24" pos="720"/>
          <note key="71" vol="78" pan="0" len="24" pos="744"/>
          <note key="64" vol="78" pan="0" len="24" pos="768"/>
          <note key="68" vol="78" pan="0" len="24" pos="792"/>
          <note key="73" vol="78" pan="0" len="24" pos="816"/>
          <note key="68" vol="78" pan="0" len="24" pos="840"/>
          <note key="64" vol="78" pan="0" len="24" pos="864"/>
          <note key="68" vol="78" pan="0" len="24" pos="888"/>
          <note key="73" vol="78" pan="0" len="24" pos="912"/>
          <note key="68" vol="78" pan="0" len="24" pos="936"/>
          <note key="63" vol="78" pan="0" len="24" pos="960"/>
          <note key="66" vol="78" pan="0" len="24" pos="984"/>
          <note key="71" vol="78" pan="0" len="24" pos="1008"/>
          <note key="66" vol="78" pan="0" len="24" pos="1032"/>
          <note key="63" vol="78" pan="0" len="24" pos="1056"/>
          <note key="66" vol="78" pan="0" len="24" pos="1080"/>
          <note key="71" vol="78" pan="0" len="24" pos="1104"/>
          <note key="66" vol="78" pan="0" len="24" pos="1128"/>
          <note key="64" vol="78" pan="0" len="24" pos="1152"/>
          <note key="68" vol="78" pan="0" len="24" pos="1176"/>
          <note key="73" vol="78" pan="0" len="24" pos="1200"/>
          <note key="68" vol="78" pan="0" len="24" pos="1224"/>
          <note key="64" vol="78" pan="0" len="24" pos="1248"/>
          <note key="68" vol="78" pan="0" len="24" pos="1272"/>
          <note key="73" vol="78" pan="0" len="24" pos="1296"/>
          <note key="68" vol="78" pan="0" len="24" pos="1320"/>
          <note key="66" vol="78" pan="0" len="24" pos="1344"/>
          <note key="68" vol="78" pan="0" len="24" pos="1368"/>
          <note key="66" vol="78" pan="0" len="24" pos="1392"/>
          <note key="64" vol="78" pan="0" len="24" pos="1416"/>
          <note key="63" vol="78" pan="0" len="24" pos="1440"/>
          <note key="60" vol="78" pan="0" len="24" pos="1464"/>
          <note key="66" vol="78" pan="0" len="24" pos="1488"/>
          <note key="63" vol="78" pan="0" len="24" pos="1512"/>
          <note key="61" vol="78" pan="0" len="24" pos="1536"/>
          <note key="68" vol="78" pan="0" len="24" pos="1560"/>
          <note key="73" vol="78" pan="0" len="24" pos="1584"/>
          <note key="68" vol="78" pan="0" len="24" pos="1608"/>
          <note key="61" vol="78" pan="0" len="24" pos="1632"/>
          <note key="68" vol="78" pan="0" len="24" pos="1656"/>
          <note key="73" vol="78" pan="0" len="24" pos="1680"/>
          <note key="68" vol="78" pan="0" len="24" pos="1704"/>
          <note key="63" vol="78" pan="0" len="24" pos="1728"/>
          <note key="68" vol="78" pan="0" len="24" pos="1752"/>
          <note key="71" vol="78" pan="0" len="24" pos="1776"/>
          <note key="68" vol="78" pan="0" len="24" pos="1800"/>
          <note key="63" vol="78" pan="0" len="24" pos="1824"/>
          <note key="68" vol="78" pan="0" len="24" pos="1848"/>
          <note key="71" vol="78" pan="0" len="24" pos="1872"/>
          <note key="68" vol="78" pan="0" len="24" pos="1896"/>
          <note key="61" vol="78" pan="0" len="24" pos="1920"/>
          <note key="66" vol="78" pan="0" len="24" pos="1944"/>
          <note key="70" vol="78" pan="0" len="24" pos="1968"/>
          <note key="66" vol="78" pan="0" len="24" pos="1992"/>
          <note key="61" vol="78" pan="0" len="24" pos="2016"/>
          <note key="66" vol="78" pan="0" len="24" pos="2040"/>
          <note key="70" vol="78" pan="0" len="24" pos="2064"/>
          <note key="66" vol="78" pan="0" len="24" pos="2088"/>
          <note key="61" vol="78" pan="0" len="24" pos="2112"/>
          <note key="66" vol="78" pan="0" len="24" pos="2136"/>
          <note key="70" vol="78" pan="0" len="24" pos="2160"/>
          <note key="66" vol="78" pan="0" len="24" pos="2184"/>
          <note key="61" vol="78" pan="0" len="24" pos="2208"/>
          <note key="66" vol="78" pan="0" len="24" pos="2232"/>
          <note key="70" vol="78" pan="0" len="24" pos="2256"/>
          <note key="66" vol="78" pan="0" len="24" pos="2280"/>
          <note key="66" vol="78" pan="0" len="24" pos="2304"/>
          <note key="69" vol="78" pan="0" len="24" pos="2328"/>
          <note key="73" vol="78" pan="0" len="24" pos="2352"/>
          <note key="69" vol="78" pan="0" len="24" pos="2376"/>
          <note key="66" vol="78" pan="0" len="24" pos="2400"/>
          <note key="69" vol="78" pan="0" len="24" pos="2424"/>
          <note key="73" vol="78" pan="0" len="24" pos="2448"/>
          <note key="69" vol="78" pan="0" len="24" pos="2472"/>
          <note key="63" vol="78" pan="0" len="24" pos="2496"/>
          <note key="68" vol="78" pan="0" len="24" pos="2520"/>
          <note key="73" vol="78" pan="0" len="24" pos="2544"/>
          <note key="68" vol="78" pan="0" len="24" pos="2568"/>
          <note key="63" vol="78" pan="0" len="24" pos="2592"/>
          <note key="68" vol="78" pan="0" len="24" pos="2616"/>
          <note key="73" vol="78" pan="0" len="24" pos="2640"/>
          <note key="68" vol="78" pan="0" len="24" pos="2664"/>
          <note key="66" vol="78" pan="0" len="24" pos="2688"/>
          <note key="71" vol="78" pan="0" len="24" pos="2712"/>
          <note key="75" vol="78" pan="0" len="24" pos="2736"/>
          <note key="71" vol="78" pan="0" len="24" pos="2760"/>
          <note key="66" vol="78" pan="0" len="24" pos="2784"/>
          <note key="71" vol="78" pan="0" len="24" pos="2808"/>
          <note key="75" vol="78" pan="0" len="24" pos="2832"/>
          <note key="71" vol="78" pan="0" len="24" pos="2856"/>
          <note key="66" vol="78" pan="0" len="96" pos="2880"/>
          <note key="59" vol="78" pan="0" len="96" pos="2976"/>
          <note key="68" vol="78" pan="0" len="12" pos="3072"/>
          <note key="64" vol="78" pan="0" len="12" pos="3084"/>
          <note key="61" vol="78" pan="0" len="12" pos="3096"/>
          <note key="56" vol="78" pan="0" len="12" pos="3108"/>
          <note key="52" vol="78" pan="0" len="12" pos="3120"/>
          <note key="49" vol="78" pan="0" len="12" pos="3132"/>
          <note key="61" vol="78" pan="0" len="12" pos="3168"/>
          <note key="56" vol="78" pan="0" len="12" pos="3180"/>
          <note key="52" vol="78" pan="0" len="12" pos="3192"/>
          <note key="49" vol="78" pan="0" len="12" pos="3204"/>
          <note key="76" vol="78" pan="0" len="12" pos="3216"/>
          <note key="71" vol="78" pan="0" len="12" pos="3228"/>
          <note key="68" vol="78" pan="0" len="12" pos="3240"/>
          <note key="64" vol="78" pan="0" len="12" pos="3252"/>
          <note key="76" vol="78" pan="0" len="12" pos="3264"/>
          <note key="71" vol="78" pan="0" len="12" pos="3276"/>
          <note key="80" vol="78" pan="0" len="12" pos="3288"/>
          <note key="76" vol="78" pan="0" len="12" pos="3300"/>
          <note key="71" vol="78" pan="0" len="12" pos="3312"/>
          <note key="68" vol="78" pan="0" len="12" pos="3324"/>
          <note key="64" vol="78" pan="0" len="12" pos="3336"/>
          <note key="61" vol="78" pan="0" len="12" pos="3348"/>
          <note key="73" vol="78" pan="0" len="12" pos="3360"/>
          <note key="68" vol="78" pan="0" len="12" pos="3372"/>
          <note key="64" vol="78" pan="0" len="12" pos="3384"/>
          <note key="61" vol="78" pan="0" len="12" pos="3396"/>
          <note key="68" vol="78" pan="0" len="12" pos="3408"/>
          <note key="64" vol="78" pan="0" len="12" pos="3420"/>
          <note key="56" vol="78" pan="0" len="12" pos="3432"/>
          <note key="49" vol="78" pan="0" len="12" pos="3444"/>
          <note key="69" vol="78" pan="0" len="12" pos="3456"/>
          <note key="66" vol="78" pan="0" len="12" pos="3468"/>
          <note key="57" vol="78" pan="0" len="12" pos="3480"/>
          <note key="54" vol="78" pan="0" len="12" pos="3492"/>
          <note key="49" vol="78" pan="0" len="12" pos="3504"/>
          <note key="47" vol="78" pan="0" len="12" pos="3516"/>
          <note key="74" vol="78" pan="0" len="12" pos="3528"/>
          <note key="69" vol="78" pan="0" len="12" pos="3540"/>
          <note key="66" vol="78" pan="0" len="12" pos="3552"/>
          <note key="61" vol="78" pan="0" len="12" pos="3564"/>
          <note key="57" vol="78" pan="0" len="12" pos="3576"/>
          <note key="54" vol="78" pan="0" len="12" pos="3588"/>
          <note key="78" vol="78" pan="0" len="12" pos="3600"/>
          <note key="74" vol="78" pan="0" len="12" pos="3612"/>
          <note key="69" vol="78" pan="0" len="12" pos="3624"/>
          <note key="66" vol="78" pan="0" len="12" pos="3636"/>
          <note key="81" vol="78" pan="0" len="12" pos="3672"/>
          <note key="78" vol="78" pan="0" len="12" pos="3684"/>
          <note key="73" vol="78" pan="0" len="12" pos="3696"/>
          <note key="69" vol="78" pan="0" len="12" pos="3708"/>
          <note key="66" vol="78" pan="0" len="12" pos="3720"/>
          <note key="61" vol="78" pan="0" len="12" pos="3732"/>
          <note key="74" vol="78" pan="0" len="12" pos="3744"/>
          <note key="71" vol="78" pan="0" len="12" pos="3756"/>
          <note key="66" vol="78" pan="0" len="12" pos="3768"/>
          <note key="61" vol="78" pan="0" len="12" pos="3780"/>
          <note key="69" vol="78" pan="0" len="12" pos="3792"/>
          <note key="66" vol="78" pan="0" len="12" pos="3804"/>
          <note key="61" vol="78" pan="0" len="12" pos="3816"/>
          <note key="57" vol="78" pan="0" len="12" pos="3828"/>
          <note key="68" vol="78" pan="0" len="12" pos="3840"/>
          <note key="64" vol="78" pan="0" len="12" pos="3852"/>
          <note key="61" vol="78" pan="0" len="12" pos="3864"/>
          <note key="56" vol="78" pan="0" len="12" pos="3876"/>
          <note key="61" vol="78" pan="0" len="12" pos="3888"/>
          <note key="64" vol="78" pan="0" len="12" pos="3900"/>
          <note key="73" vol="78" pan="0" len="12" pos="3912"/>
          <note key="69" vol="78" pan="0" len="12" pos="3924"/>
          <note key="68" vol="78" pan="0" len="12" pos="3936"/>
          <note key="64" vol="78" pan="0" len="12" pos="3948"/>
          <note key="68" vol="78" pan="0" len="12" pos="3960"/>
          <note key="73" vol="78" pan="0" len="12" pos="3972"/>
          <note key="52" vol="78" pan="0" len="12" pos="3972"/>
          <note key="76" vol="78" pan="0" len="12" pos="3984"/>
          <note key="71" vol="78" pan="0" len="12" pos="3996"/>
          <note key="68" vol="78" pan="0" len="12" pos="4008"/>
          <note key="64" vol="78" pan="0" len="12" pos="4020"/>
          <note key="68" vol="78" pan="0" len="12" pos="4032"/>
          <note key="71" vol="78" pan="0" len="12" pos="4044"/>
          <note key="81" vol="78" pan="0" len="12" pos="4056"/>
          <note key="78" vol="78" pan="0" len="12" pos="4068"/>
          <note key="74" vol="78" pan="0" len="12" pos="4080"/>
          <note key="69" vol="78" pan="0" len="12" pos="4092"/>
          <note key="66" vol="78" pan="0" len="12" pos="4104"/>
          <note key="69" vol="78" pan="0" len="12" pos="4116"/>
          <note key="73" vol="78" pan="0" len="12" pos="4128"/>
          <note key="69" vol="78" pan="0" len="12" pos="4140"/>
          <note key="66" vol="78" pan="0" len="12" pos="4152"/>
          <note key="61" vol="78" pan="0" len="12" pos="4164"/>
          <note key="68" vol="78" pan="0" len="12" pos="4176"/>
          <note key="64" vol="78" pan="0" len="12" pos="4188"/>
          <note key="61" vol="78" pan="0" len="12" pos="4200"/>
          <note key="56" vol="78" pan="0" len="12" pos="4212"/>
          <note key="69" vol="78" pan="0" len="12" pos="4224"/>
          <note key="66" vol="78" pan="0" len="12" pos="4236"/>
          <note key="57" vol="78" pan="0" len="12" pos="4248"/>
          <note key="54" vol="78" pan="0" len="12" pos="4260"/>
          <note key="57" vol="78" pan="0" len="12" pos="4272"/>
          <note key="52" vol="78" pan="0" len="12" pos="4272"/>
          <note key="62" vol="78" pan="0" len="12" pos="4284"/>
          <note key="49" vol="78" pan="0" len="12" pos="4284"/>
          <note key="74" vol="78" pan="0" len="12" pos="4296"/>
          <note key="69" vol="78" pan="0" len="12" pos="4308"/>
          <note key="66" vol="78" pan="0" len="12" pos="4320"/>
          <note key="61" vol="78" pan="0" len="12" pos="4332"/>
          <note key="57" vol="78" pan="0" len="12" pos="4344"/>
          <note key="54" vol="78" pan="0" len="12" pos="4356"/>
          <note key="78" vol="78" pan="0" len="12" pos="4368"/>
          <note key="74" vol="78" pan="0" len="12" pos="4380"/>
          <note key="69" vol="78" pan="0" len="12" pos="4392"/>
          <note key="66" vol="78" pan="0" len="12" pos="4404"/>
          <note key="69" vol="78" pan="0" len="12" pos="4416"/>
          <note key="74" vol="78" pan="0" len="12" pos="4428"/>
          <note key="81" vol="78" pan="0" len="12" pos="4440"/>
          <note key="78" vol="78" pan="0" len="12" pos="4452"/>
          <note key="73" vol="78" pan="0" len="12" pos="4464"/>
          <note key="69" vol="78" pan="0" len="12" pos="4476"/>
          <note key="66" vol="78" pan="0" len="12" pos="4488"/>
          <note key="61" vol="78" pan="0" len="12" pos="4500"/>
          <note key="74" vol="78" pan="0" len="12" pos="4512"/>
          <note key="71" vol="78" pan="0" len="12" pos="4524"/>
          <note key="66" vol="78" pan="0" len="12" pos="4536"/>
          <note key="61" vol="78" pan="0" len="12" pos="4548"/>
          <note key="69" vol="78" pan="0" len="12" pos="4560"/>
          <note key="66" vol="78" pan="0" len="12" pos="4572"/>
          <note key="61" vol="78" pan="0" len="12" pos="4584"/>
          <note key="57" vol="78" pan="0" len="12" pos="4596"/>
        </pattern>
        <pattern name="dt" muted="0" type="1" steps="16" pos="15744">
          <note key="61" vol="78" pan="0" len="24" pos="0"/>
          <note key="68" vol="78" pan="0" len="24" pos="24"/>
          <note key="73" vol="78" pan="0" len="24" pos="48"/>
          <note key="68" vol="78" pan="0" len="24" pos="72"/>
          <note key="76" vol="78" pan="0" len="24" pos="96"/>
          <note key="68" vol="78" pan="0" len="24" pos="120"/>
          <note key="73" vol="78" pan="0" len="24" pos="144"/>
          <note key="68" vol="78" pan="0" len="24" pos="168"/>
          <note key="63" vol="78" pan="0" len="24" pos="192"/>
          <note key="68" vol="78" pan="0" len="24" pos="216"/>
          <note key="71" vol="78" pan="0" len="24" pos="240"/>
          <note key="68" vol="78" pan="0" len="24" pos="264"/>
          <note key="63" vol="78" pan="0" len="24" pos="288"/>
          <note key="68" vol="78" pan="0" len="24" pos="312"/>
          <note key="71" vol="78" pan="0" len="24" pos="336"/>
          <note key="68" vol="78" pan="0" len="24" pos="360"/>
          <note key="64" vol="78" pan="0" len="24" pos="384"/>
          <note key="68" vol="78" pan="0" len="24" pos="408"/>
          <note key="73" vol="78" pan="0" len="24" pos="432"/>
          <note key="68" vol="78" pan="0" len="24" pos="456"/>
          <note key="64" vol="78" pan="0" len="24" pos="480"/>
          <note key="68" vol="78" pan="0" len="24" pos="504"/>
          <note key="73" vol="78" pan="0" len="24" pos="528"/>
          <note key="68" vol="78" pan="0" len="24" pos="552"/>
          <note key="66" vol="78" pan="0" len="24" pos="576"/>
          <note key="71" vol="78" pan="0" len="24" pos="600"/>
          <note key="76" vol="78" pan="0" len="24" pos="624"/>
          <note key="71" vol="78" pan="0" len="24" pos="648"/>
          <note key="66" vol="78" pan="0" len="24" pos="672"/>
          <note key="71" vol="78" pan="0" len="24" pos="696"/>
          <note key="75" vol="78" pan="0" len="24" pos="720"/>
          <note key="71" vol="78" pan="0" len="24" pos="744"/>
          <note key="64" vol="78" pan="0" len="24" pos="768"/>
          <note key="68" vol="78" pan="0" len="24" pos="792"/>
          <note key="73" vol="78" pan="0" len="24" pos="816"/>
          <note key="68" vol="78" pan="0" len="24" pos="840"/>
          <note key="64" vol="78" pan="0" len="24" pos="864"/>
          <note key="68" vol="78" pan="0" len="24" pos="888"/>
          <note key="73" vol="78" pan="0" len="24" pos="912"/>
          <note key="68" vol="78" pan="0" len="24" pos="936"/>
          <note key="63" vol="78" pan="0" len="24" pos="960"/>
          <note key="66" vol="78" pan="0" len="24" pos="984"/>
          <note key="71" vol="78" pan="0" len="24" pos="1008"/>
          <note key="66" vol="78" pan="0" len="24" pos="1032"/>
          <note key="63" vol="78" pan="0" len="24" pos="1056"/>
          <note key="66" vol="78" pan="0" len="24" pos="1080"/>
          <note key="71" vol="78" pan="0" len="24" pos="1104"/>
          <note key="66" vol="78" pan="0" len="24" pos="1128"/>
          <note key="64" vol="78" pan="0" len="24" pos="1152"/>
          <note key="68" vol="78" pan="0" len="24" pos="1176"/>
          <note key="73" vol="78" pan="0" len="24" pos="1200"/>
          <note key="68" vol="78" pan="0" len="24" pos="1224"/>
          <note key="64" vol="78" pan="0" len="24" pos="1248"/>
          <note key="68" vol="78" pan="0" len="24" pos="1272"/>
          <note key="73" vol="78" pan="0" len="24" pos="1296"/>
          <note key="68" vol="78" pan="0" len="24" pos="1320"/>
          <note key="66" vol="78" pan="0" len="24" pos="1344"/>
          <note key="68" vol="78" pan="0" len="24" pos="1368"/>
          <note key="66" vol="78" pan="0" len="24" pos="1392"/>
          <note key="64" vol="78" pan="0" len="24" pos="1416"/>
          <note key="63" vol="78" pan="0" len="24" pos="1440"/>
          <note key="60" vol="78" pan="0" len="24" pos="1464"/>
          <note key="66" vol="78" pan="0" len="24" pos="1488"/>
          <note key="63" vol="78" pan="0" len="24" pos="1512"/>
          <note key="61" vol="78" pan="0" len="24" pos="1536"/>
          <note key="68" vol="78" pan="0" len="24" pos="1560"/>
          <note key="73" vol="78" pan="0" len="24" pos="1584"/>
          <note key="68" vol="78" pan="0" len="24" pos="1608"/>
          <note key="61" vol="78" pan="0" len="24" pos="1632"/>
          <note key="68" vol="78" pan="0" len="24" pos="1656"/>
          <note key="73" vol="78" pan="0" len="24" pos="1680"/>
          <note key="68" vol="78" pan="0" len="24" pos="1704"/>
          <note key="63" vol="78" pan="0" len="24" pos="1728"/>
          <note key="68" vol="78" pan="0" len="24" pos="1752"/>
          <note key="71" vol="78" pan="0" len="24" pos="1776"/>
          <note key="68" vol="78" pan="0" len="24" pos="1800"/>
          <note key="63" vol="78" pan="0" len="24" pos="1824"/>
          <note key="68" vol="78" pan="0" len="24" pos="1848"/>
          <note key="71" vol="78" pan="0" len="24" pos="1872"/>
          <note key="68" vol="78" pan="0" len="24" pos="1896"/>
          <note key="61" vol="78" pan="0" len="24" pos="1920"/>
          <note key="66" vol="78" pan="0" len="24" pos="1944"/>
          <note key="70" vol="78" pan="0" len="24" pos="1968"/>
          <note key="66" vol="78" pan="0" len="24" pos="1992"/>
          <note key="61" vol="78" pan="0" len="24" pos="2016"/>
          <note key="66" vol="78" pan="0" len="24" pos="2040"/>
          <note key="70" vol="78" pan="0" len="24" pos="2064"/>
          <note key="66" vol="78" pan="0" len="24" pos="2088"/>
          <note key="61" vol="78" pan="0" len="24" pos="2112"/>
          <note key="66" vol="78" pan="0" len="24" pos="2136"/>
          <note key="70" vol="78" pan="0" len="24" pos="2160"/>
          <note key="66" vol="78" pan="0" len="24" pos="2184"/>
          <note key="61" vol="78" pan="0" len="24" pos="2208"/>
          <note key="66" vol="78" pan="0" len="24" pos="2232"/>
          <note key="70" vol="78" pan="0" len="24" pos="2256"/>
          <note key="66" vol="78" pan="0" len="24" pos="2280"/>
          <note key="66" vol="78" pan="0" len="24" pos="2304"/>
          <note key="69" vol="78" pan="0" len="24" pos="2328"/>
          <note key="73" vol="78" pan="0" len="24" pos="2352"/>
          <note key="69" vol="78" pan="0" len="24" pos="2376"/>
          <note key="66" vol="78" pan="0" len="24" pos="2400"/>
          <note key="69" vol="78" pan="0" len="24" pos="2424"/>
          <note key="73" vol="78" pan="0" len="24" pos="2448"/>
          <note key="69" vol="78" pan="0" len="24" pos="2472"/>
          <note key="63" vol="78" pan="0" len="24" pos="2496"/>
          <note key="68" vol="78" pan="0" len="24" pos="2520"/>
          <note key="73" vol="78" pan="0" len="24" pos="2544"/>
          <note key="68" vol="78" pan="0" len="24" pos="2568"/>
          <note key="63" vol="78" pan="0" len="24" pos="2592"/>
          <note key="68" vol="78" pan="0" len="24" pos="2616"/>
          <note key="73" vol="78" pan="0" len="24" pos="2640"/>
          <note key="68" vol="78" pan="0" len="24" pos="2664"/>
          <note key="66" vol="78" pan="0" len="24" pos="2688"/>
          <note key="71" vol="78" pan="0" len="24" pos="2712"/>
          <note key="75" vol="78" pan="0" len="24" pos="2736"/>
          <note key="71" vol="78" pan="0" len="24" pos="2760"/>
          <note key="66" vol="78" pan="0" len="24" pos="2784"/>
          <note key="71" vol="78" pan="0" len="24" pos="2808"/>
          <note key="75" vol="78" pan="0" len="24" pos="2832"/>
          <note key="71" vol="78" pan="0" len="24" pos="2856"/>
          <note key="63" vol="78" pan="0" len="24" pos="2880"/>
          <note key="51" vol="78" pan="0" len="24" pos="2880"/>
          <note key="63" vol="78" pan="0" len="24" pos="2904"/>
          <note key="51" vol="78" pan="0" len="24" pos="2904"/>
          <note key="71" vol="78" pan="0" len="24" pos="2976"/>
          <note key="59" vol="78" pan="0" len="24" pos="2976"/>
          <note key="71" vol="78" pan="0" len="24" pos="3000"/>
          <note key="59" vol="78" pan="0" len="24" pos="3000"/>
          <note key="56" vol="78" pan="0" len="12" pos="3072"/>
          <note key="61" vol="78" pan="0" len="12" pos="3084"/>
          <note key="64" vol="78" pan="0" len="12" pos="3096"/>
          <note key="68" vol="78" pan="0" len="12" pos="3108"/>
          <note key="73" vol="78" pan="0" len="12" pos="3120"/>
          <note key="76" vol="78" pan="0" len="12" pos="3132"/>
          <note key="80" vol="78" pan="0" len="12" pos="3144"/>
          <note key="83" vol="78" pan="0" len="12" pos="3156"/>
          <note key="73" vol="78" pan="0" len="12" pos="3168"/>
          <note key="83" vol="78" pan="0" len="12" pos="3180"/>
          <note key="80" vol="78" pan="0" len="12" pos="3192"/>
          <note key="76" vol="78" pan="0" len="12" pos="3204"/>
          <note key="73" vol="78" pan="0" len="12" pos="3216"/>
          <note key="68" vol="78" pan="0" len="12" pos="3228"/>
          <note key="64" vol="78" pan="0" len="12" pos="3240"/>
          <note key="61" vol="78" pan="0" len="12" pos="3252"/>
          <note key="56" vol="78" pan="0" len="12" pos="3264"/>
          <note key="61" vol="78" pan="0" len="12" pos="3276"/>
          <note key="64" vol="78" pan="0" len="12" pos="3288"/>
          <note key="68" vol="78" pan="0" len="12" pos="3300"/>
          <note key="73" vol="78" pan="0" len="12" pos="3312"/>
          <note key="76" vol="78" pan="0" len="12" pos="3324"/>
          <note key="80" vol="78" pan="0" len="12" pos="3336"/>
          <note key="83" vol="78" pan="0" len="12" pos="3348"/>
          <note key="73" vol="78" pan="0" len="12" pos="3360"/>
          <note key="83" vol="78" pan="0" len="12" pos="3372"/>
          <note key="80" vol="78" pan="0" len="12" pos="3384"/>
          <note key="76" vol="78" pan="0" len="12" pos="3396"/>
          <note key="73" vol="78" pan="0" len="12" pos="3408"/>
          <note key="68" vol="78" pan="0" len="12" pos="3420"/>
          <note key="64" vol="78" pan="0" len="12" pos="3432"/>
          <note key="61" vol="78" pan="0" len="12" pos="3444"/>
          <note key="54" vol="78" pan="0" len="12" pos="3456"/>
          <note key="59" vol="78" pan="0" len="12" pos="3468"/>
          <note key="63" vol="78" pan="0" len="12" pos="3480"/>
          <note key="66" vol="78" pan="0" len="12" pos="3492"/>
          <note key="69" vol="78" pan="0" len="12" pos="3504"/>
          <note key="73" vol="78" pan="0" len="12" pos="3516"/>
          <note key="76" vol="78" pan="0" len="12" pos="3528"/>
          <note key="80" vol="78" pan="0" len="12" pos="3540"/>
          <note key="83" vol="78" pan="0" len="12" pos="3552"/>
          <note key="80" vol="78" pan="0" len="12" pos="3564"/>
          <note key="75" vol="78" pan="0" len="12" pos="3576"/>
          <note key="71" vol="78" pan="0" len="12" pos="3588"/>
          <note key="66" vol="78" pan="0" len="12" pos="3600"/>
          <note key="61" vol="78" pan="0" len="12" pos="3612"/>
          <note key="59" vol="78" pan="0" len="12" pos="3624"/>
          <note key="54" vol="78" pan="0" len="12" pos="3636"/>
          <note key="54" vol="78" pan="0" len="12" pos="3648"/>
          <note key="59" vol="78" pan="0" len="12" pos="3660"/>
          <note key="63" vol="78" pan="0" len="12" pos="3672"/>
          <note key="66" vol="78" pan="0" len="12" pos="3684"/>
          <note key="69" vol="78" pan="0" len="12" pos="3696"/>
          <note key="73" vol="78" pan="0" len="12" pos="3708"/>
          <note key="76" vol="78" pan="0" len="12" pos="3720"/>
          <note key="80" vol="78" pan="0" len="12" pos="3732"/>
          <note key="83" vol="78" pan="0" len="12" pos="3744"/>
          <note key="80" vol="78" pan="0" len="12" pos="3756"/>
          <note key="75" vol="78" pan="0" len="12" pos="3768"/>
          <note key="71" vol="78" pan="0" len="12" pos="3780"/>
          <note key="66" vol="78" pan="0" len="12" pos="3792"/>
          <note key="61" vol="78" pan="0" len="12" pos="3804"/>
          <note key="59" vol="78" pan="0" len="12" pos="3816"/>
          <note key="54" vol="78" pan="0" len="12" pos="3828"/>
          <note key="54" vol="78" pan="0" len="12" pos="3840"/>
          <note key="57" vol="78" pan="0" len="12" pos="3852"/>
          <note key="61" vol="78" pan="0" len="12" pos="3864"/>
          <note key="64" vol="78" pan="0" len="12" pos="3876"/>
          <note key="66" vol="78" pan="0" len="12" pos="3888"/>
          <note key="73" vol="78" pan="0" len="12" pos="3900"/>
          <note key="76" vol="78" pan="0" len="12" pos="3912"/>
          <note key="78" vol="78" pan="0" len="12" pos="3924"/>
          <note key="82" vol="78" pan="0" len="12" pos="3936"/>
          <note key="78" vol="78" pan="0" len="12" pos="3948"/>
          <note key="76" vol="78" pan="0" len="12" pos="3960"/>
          <note key="73" vol="78" pan="0" len="12" pos="3972"/>
          <note key="66" vol="78" pan="0" len="12" pos="3984"/>
          <note key="64" vol="78" pan="0" len="12" pos="3996"/>
          <note key="61" vol="78" pan="0" len="12" pos="4008"/>
          <note key="57" vol="78" pan="0" len="12" pos="4020"/>
          <note key="54" vol="78" pan="0" len="12" pos="4032"/>
          <note key="57" vol="78" pan="0" len="12" pos="4044"/>
          <note key="61" vol="78" pan="0" len="12" pos="4056"/>
          <note key="64" vol="78" pan="0" len="12" pos="4068"/>
          <note key="66" vol="78" pan="0" len="12" pos="4080"/>
          <note key="73" vol="78" pan="0" len="12" pos="4092"/>
          <note key="76" vol="78" pan="0" len="12" pos="4104"/>
          <note key="78" vol="78" pan="0" len="12" pos="4116"/>
          <note key="82" vol="78" pan="0" len="12" pos="4128"/>
          <note key="78" vol="78" pan="0" len="12" pos="4140"/>
          <note key="76" vol="78" pan="0" len="12" pos="4152"/>
          <note key="73" vol="78" pan="0" len="12" pos="4164"/>
          <note key="66" vol="78" pan="0" len="12" pos="4176"/>
          <note key="64" vol="78" pan="0" len="12" pos="4188"/>
          <note key="61" vol="78" pan="0" len="12" pos="4200"/>
          <note key="57" vol="78" pan="0" len="12" pos="4212"/>
          <note key="51" vol="78" pan="0" len="12" pos="4224"/>
          <note key="54" vol="78" pan="0" len="12" pos="4236"/>
          <note key="57" vol="78" pan="0" len="12" pos="4248"/>
          <note key="63" vol="78" pan="0" len="12" pos="4260"/>
          <note key="66" vol="78" pan="0" len="12" pos="4272"/>
          <note key="69" vol="78" pan="0" len="12" pos="4284"/>
          <note key="73" vol="78" pan="0" len="12" pos="4296"/>
          <note key="76" vol="78" pan="0" len="12" pos="4308"/>
          <note key="81" vol="78" pan="0" len="12" pos="4320"/>
          <note key="78" vol="78" pan="0" len="12" pos="4332"/>
          <note key="73" vol="78" pan="0" len="12" pos="4344"/>
          <note key="69" vol="78" pan="0" len="12" pos="4356"/>
          <note key="66" vol="78" pan="0" len="12" pos="4368"/>
          <note key="63" vol="78" pan="0" len="12" pos="4380"/>
          <note key="57" vol="78" pan="0" len="12" pos="4392"/>
          <note key="54" vol="78" pan="0" len="12" pos="4404"/>
          <note key="51" vol="78" pan="0" len="12" pos="4416"/>
          <note key="54" vol="78" pan="0" len="12" pos="4428"/>
          <note key="57" vol="78" pan="0" len="12" pos="4440"/>
          <note key="63" vol="78" pan="0" len="12" pos="4452"/>
          <note key="66" vol="78" pan="0" len="12" pos="4464"/>
          <note key="69" vol="78" pan="0" len="12" pos="4476"/>
          <note key="73" vol="78" pan="0" len="12" pos="4488"/>
          <note key="76" vol="78" pan="0" len="12" pos="4500"/>
          <note key="81" vol="78" pan="0" len="12" pos="4512"/>
          <note key="78" vol="78" pan="0" len="12" pos="4524"/>
          <note key="73" vol="78" pan="0" len="12" pos="4536"/>
          <note key="69" vol="78" pan="0" len="12" pos="4548"/>
          <note key="66" vol="78" pan="0" len="12" pos="4560"/>
          <note key="63" vol="78" pan="0" len="12" pos="4572"/>
          <note key="57" vol="78" pan="0" len="12" pos="4584"/>
          <note key="54" vol="78" pan="0" len="12" pos="4596"/>
          <note key="52" vol="78" pan="0" len="12" pos="4608"/>
          <note key="61" vol="78" pan="0" len="12" pos="4620"/>
          <note key="64" vol="78" pan="0" len="12" pos="4632"/>
          <note key="68" vol="78" pan="0" len="12" pos="4644"/>
          <note key="73" vol="78" pan="0" len="12" pos="4656"/>
          <note key="76" vol="78" pan="0" len="12" pos="4668"/>
          <note key="80" vol="78" pan="0" len="12" pos="4680"/>
          <note key="83" vol="78" pan="0" len="12" pos="4692"/>
          <note key="73" vol="78" pan="0" len="12" pos="4704"/>
          <note key="83" vol="78" pan="0" len="12" pos="4716"/>
          <note key="80" vol="78" pan="0" len="12" pos="4728"/>
          <note key="76" vol="78" pan="0" len="12" pos="4740"/>
          <note key="73" vol="78" pan="0" len="12" pos="4752"/>
          <note key="68" vol="78" pan="0" len="12" pos="4764"/>
          <note key="64" vol="78" pan="0" len="12" pos="4776"/>
          <note key="61" vol="78" pan="0" len="12" pos="4788"/>
          <note key="52" vol="78" pan="0" len="12" pos="4800"/>
          <note key="61" vol="78" pan="0" len="12" pos="4812"/>
          <note key="64" vol="78" pan="0" len="12" pos="4824"/>
          <note key="68" vol="78" pan="0" len="12" pos="4836"/>
          <note key="73" vol="78" pan="0" len="12" pos="4848"/>
          <note key="76" vol="78" pan="0" len="12" pos="4860"/>
          <note key="80" vol="78" pan="0" len="12" pos="4872"/>
          <note key="83" vol="78" pan="0" len="12" pos="4884"/>
          <note key="73" vol="78" pan="0" len="12" pos="4896"/>
          <note key="83" vol="78" pan="0" len="12" pos="4908"/>
          <note key="80" vol="78" pan="0" len="12" pos="4920"/>
          <note key="76" vol="78" pan="0" len="12" pos="4932"/>
          <note key="73" vol="78" pan="0" len="12" pos="4944"/>
          <note key="68" vol="78" pan="0" len="12" pos="4956"/>
          <note key="64" vol="78" pan="0" len="12" pos="4968"/>
          <note key="61" vol="78" pan="0" len="12" pos="4980"/>
          <note key="54" vol="78" pan="0" len="12" pos="4992"/>
          <note key="59" vol="78" pan="0" len="12" pos="5004"/>
          <note key="63" vol="78" pan="0" len="12" pos="5016"/>
          <note key="66" vol="78" pan="0" len="12" pos="5028"/>
          <note key="69" vol="78" pan="0" len="12" pos="5040"/>
          <note key="73" vol="78" pan="0" len="12" pos="5052"/>
          <note key="76" vol="78" pan="0" len="12" pos="5064"/>
          <note key="80" vol="78" pan="0" len="12" pos="5076"/>
          <note key="83" vol="78" pan="0" len="12" pos="5088"/>
          <note key="80" vol="78" pan="0" len="12" pos="5100"/>
          <note key="75" vol="78" pan="0" len="12" pos="5112"/>
          <note key="71" vol="78" pan="0" len="12" pos="5124"/>
          <note key="66" vol="78" pan="0" len="12" pos="5136"/>
          <note key="61" vol="78" pan="0" len="12" pos="5148"/>
          <note key="59" vol="78" pan="0" len="12" pos="5160"/>
          <note key="54" vol="78" pan="0" len="12" pos="5172"/>
          <note key="54" vol="78" pan="0" len="12" pos="5184"/>
          <note key="59" vol="78" pan="0" len="12" pos="5196"/>
          <note key="63" vol="78" pan="0" len="12" pos="5208"/>
          <note key="66" vol="78" pan="0" len="12" pos="5220"/>
          <note key="69" vol="78" pan="0" len="12" pos="5232"/>
          <note key="73" vol="78" pan="0" len="12" pos="5244"/>
          <note key="76" vol="78" pan="0" len="12" pos="5256"/>
          <note key="80" vol="78" pan="0" len="12" pos="5268"/>
          <note key="83" vol="78" pan="0" len="12" pos="5280"/>
          <note key="80" vol="78" pan="0" len="12" pos="5292"/>
          <note key="75" vol="78" pan="0" len="12" pos="5304"/>
          <note key="71" vol="78" pan="0" len="12" pos="5316"/>
          <note key="66" vol="78" pan="0" len="12" pos="5328"/>
          <note key="61" vol="78" pan="0" len="12" pos="5340"/>
          <note key="59" vol="78" pan="0" len="12" pos="5352"/>
          <note key="54" vol="78" pan="0" len="12" pos="5364"/>
          <note key="54" vol="78" pan="0" len="12" pos="5376"/>
          <note key="57" vol="78" pan="0" len="12" pos="5388"/>
          <note key="63" vol="78" pan="0" len="12" pos="5400"/>
          <note key="66" vol="78" pan="0" len="12" pos="5412"/>
          <note key="69" vol="78" pan="0" len="12" pos="5424"/>
          <note key="73" vol="78" pan="0" len="12" pos="5436"/>
          <note key="76" vol="78" pan="0" len="12" pos="5448"/>
          <note key="81" vol="78" pan="0" len="12" pos="5460"/>
          <note key="75" vol="78" pan="0" len="12" pos="5472"/>
          <note key="81" vol="78" pan="0" len="12" pos="5484"/>
          <note key="76" vol="78" pan="0" len="12" pos="5496"/>
          <note key="73" vol="78" pan="0" len="12" pos="5508"/>
          <note key="69" vol="78" pan="0" len="12" pos="5520"/>
          <note key="66" vol="78" pan="0" len="12" pos="5532"/>
          <note key="63" vol="78" pan="0" len="12" pos="5544"/>
          <note key="57" vol="78" pan="0" len="12" pos="5556"/>
          <note key="54" vol="78" pan="0" len="12" pos="5568"/>
          <note key="57" vol="78" pan="0" len="12" pos="5580"/>
          <note key="63" vol="78" pan="0" len="12" pos="5592"/>
          <note key="66" vol="78" pan="0" len="12" pos="5604"/>
          <note key="69" vol="78" pan="0" len="12" pos="5616"/>
          <note key="73" vol="78" pan="0" len="12" pos="5628"/>
          <note key="76" vol="78" pan="0" len="12" pos="5640"/>
          <note key="81" vol="78" pan="0" len="12" pos="5652"/>
          <note key="75" vol="78" pan="0" len="12" pos="5664"/>
          <note key="81" vol="78" pan="0" len="12" pos="5676"/>
          <note key="76" vol="78" pan="0" len="12" pos="5688"/>
          <note key="73" vol="78" pan="0" len="12" pos="5700"/>
          <note key="69" vol="78" pan="0" len="12" pos="5712"/>
          <note key="66" vol="78" pan="0" len="12" pos="5724"/>
          <note key="63" vol="78" pan="0" len="12" pos="5736"/>
          <note key="57" vol="78" pan="0" len="12" pos="5748"/>
          <note key="57" vol="78" pan="0" len="12" pos="5760"/>
          <note key="61" vol="78" pan="0" len="12" pos="5772"/>
          <note key="64" vol="78" pan="0" len="12" pos="5784"/>
          <note key="68" vol="78" pan="0" len="12" pos="5796"/>
          <note key="71" vol="78" pan="0" len="12" pos="5808"/>
          <note key="75" vol="78" pan="0" len="12" pos="5820"/>
          <note key="78" vol="78" pan="0" len="12" pos="5832"/>
          <note key="81" vol="78" pan="0" len="12" pos="5844"/>
          <note key="73" vol="78" pan="0" len="12" pos="5856"/>
          <note key="81" vol="78" pan="0" len="12" pos="5868"/>
          <note key="78" vol="78" pan="0" len="12" pos="5880"/>
          <note key="75" vol="78" pan="0" len="12" pos="5892"/>
          <note key="71" vol="78" pan="0" len="12" pos="5904"/>
          <note key="68" vol="78" pan="0" len="12" pos="5916"/>
          <note key="64" vol="78" pan="0" len="12" pos="5928"/>
          <note key="61" vol="78" pan="0" len="12" pos="5940"/>
          <note key="57" vol="78" pan="0" len="12" pos="5952"/>
          <note key="61" vol="78" pan="0" len="12" pos="5964"/>
          <note key="64" vol="78" pan="0" len="12" pos="5976"/>
          <note key="68" vol="78" pan="0" len="12" pos="5988"/>
          <note key="71" vol="78" pan="0" len="12" pos="6000"/>
          <note key="75" vol="78" pan="0" len="12" pos="6012"/>
          <note key="78" vol="78" pan="0" len="12" pos="6024"/>
          <note key="81" vol="78" pan="0" len="12" pos="6036"/>
          <note key="72" vol="78" pan="0" len="12" pos="6048"/>
          <note key="81" vol="78" pan="0" len="12" pos="6060"/>
          <note key="78" vol="78" pan="0" len="12" pos="6072"/>
          <note key="75" vol="78" pan="0" len="12" pos="6084"/>
          <note key="71" vol="78" pan="0" len="12" pos="6096"/>
          <note key="68" vol="78" pan="0" len="12" pos="6108"/>
          <note key="64" vol="78" pan="0" len="12" pos="6120"/>
          <note key="61" vol="78" pan="0" len="12" pos="6132"/>
        </pattern>
        <pattern name="dt" muted="0" type="1" steps="16" pos="4992">
          <note key="61" vol="78" pan="0" len="24" pos="0"/>
          <note key="63" vol="78" pan="0" len="24" pos="24"/>
          <note key="61" vol="78" pan="0" len="24" pos="48"/>
          <note key="68" vol="78" pan="0" len="48" pos="72"/>
          <note key="61" vol="78" pan="0" len="24" pos="120"/>
          <note key="64" vol="78" pan="0" len="24" pos="144"/>
          <note key="68" vol="78" pan="0" len="24" pos="168"/>
          <note key="71" vol="78" pan="0" len="24" pos="192"/>
          <note key="69" vol="78" pan="0" len="24" pos="216"/>
          <note key="68" vol="78" pan="0" len="24" pos="240"/>
          <note key="69" vol="78" pan="0" len="48" pos="264"/>
          <note key="68" vol="78" pan="0" len="24" pos="312"/>
          <note key="66" vol="78" pan="0" len="24" pos="336"/>
          <note key="68" vol="78" pan="0" len="24" pos="360"/>
        </pattern>
        <pattern name="dt" muted="0" type="1" steps="16" pos="5376">
          <note key="68" vol="78" pan="0" len="24" pos="0"/>
          <note key="0" vol="78" pan="0" len="24" pos="0"/>
          <note key="71" vol="78" pan="0" len="24" pos="24"/>
          <note key="68" vol="78" pan="0" len="24" pos="48"/>
          <note key="75" vol="78" pan="0" len="48" pos="72"/>
          <note key="68" vol="78" pan="0" len="24" pos="120"/>
          <note key="71" vol="78" pan="0" len="24" pos="144"/>
          <note key="75" vol="78" pan="0" len="24" pos="168"/>
          <note key="76" vol="78" pan="0" len="24" pos="192"/>
          <note key="75" vol="78" pan="0" len="24" pos="216"/>
          <note key="73" vol="78" pan="0" len="24" pos="240"/>
          <note key="71" vol="78" pan="0" len="24" pos="264"/>
          <note key="75" vol="78" pan="0" len="24" pos="288"/>
          <note key="73" vol="78" pan="0" len="24" pos="312"/>
          <note key="71" vol="78" pan="0" len="24" pos="336"/>
          <note key="68" vol="78" pan="0" len="24" pos="360"/>
        </pattern>
        <pattern name="dt" muted="0" type="1" steps="16" pos="5760">
          <note key="61" vol="78" pan="0" len="24" pos="0"/>
          <note key="0" vol="100" pan="0" len="48" pos="0"/>
          <note key="63" vol="78" pan="0" len="24" pos="24"/>
          <note key="61" vol="78" pan="0" len="24" pos="48"/>
          <note key="68" vol="78" pan="0" len="48" pos="72"/>
          <note key="61" vol="78" pan="0" len="24" pos="120"/>
          <note key="64" vol="78" pan="0" len="24" pos="144"/>
          <note key="68" vol="78" pan="0" len="24" pos="168"/>
          <note key="71" vol="78" pan="0" len="24" pos="192"/>
          <note key="73" vol="78" pan="0" len="24" pos="216"/>
          <note key="75" vol="78" pan="0" len="24" pos="240"/>
          <note key="73" vol="78" pan="0" len="48" pos="264"/>
          <note key="75" vol="78" pan="0" len="24" pos="312"/>
          <note key="76" vol="78" pan="0" len="24" pos="336"/>
          <note key="78" vol="78" pan="0" len="24" pos="360"/>
        </pattern>
        <pattern name="dt" muted="0" type="1" steps="16" pos="6144">
          <note key="87" vol="78" pan="0" len="24" pos="0"/>
          <note key="76" vol="78" pan="0" len="24" pos="24"/>
          <note key="80" vol="78" pan="0" len="24" pos="48"/>
          <note key="83" vol="78" pan="0" len="48" pos="72"/>
          <note key="80" vol="78" pan="0" len="24" pos="120"/>
          <note key="83" vol="78" pan="0" len="24" pos="144"/>
          <note key="87" vol="78" pan="0" len="24" pos="168"/>
          <note key="85" vol="78" pan="0" len="24" pos="192"/>
          <note key="80" vol="78" pan="0" len="24" pos="216"/>
          <note key="76" vol="78" pan="0" len="24" pos="240"/>
          <note key="73" vol="78" pan="0" len="24" pos="264"/>
          <note key="78" vol="78" pan="0" len="24" pos="288"/>
          <note key="76" vol="78" pan="0" len="24" pos="312"/>
          <note key="80" vol="78" pan="0" len="24" pos="336"/>
          <note key="76" vol="78" pan="0" len="24" pos="360"/>
          <note key="69" vol="78" pan="0" len="120" pos="384"/>
          <note key="68" vol="78" pan="0" len="24" pos="504"/>
          <note key="69" vol="78" pan="0" len="24" pos="528"/>
          <note key="71" vol="78" pan="0" len="24" pos="552"/>
          <note key="73" vol="78" pan="0" len="72" pos="576"/>
          <note key="71" vol="78" pan="0" len="72" pos="648"/>
          <note key="69" vol="78" pan="0" len="48" pos="720"/>
          <note key="68" vol="78" pan="0" len="24" pos="768"/>
          <note key="69" vol="78" pan="0" len="24" pos="792"/>
          <note key="68" vol="78" pan="0" len="24" pos="816"/>
          <note key="64" vol="78" pan="0" len="48" pos="840"/>
          <note key="64" vol="78" pan="0" len="24" pos="888"/>
          <note key="66" vol="78" pan="0" len="24" pos="912"/>
          <note key="68" vol="78" pan="0" len="24" pos="936"/>
          <note key="66" vol="78" pan="0" len="96" pos="960"/>
        </pattern>
        <pattern name="dt" muted="0" type="0" steps="16" pos="12672"/>
        <pattern name="dt" muted="0" type="1" steps="16" pos="29568">
          <note key="68" vol="152" pan="0" len="12" pos="0"/>
          <note key="66" vol="152" pan="0" len="12" pos="12"/>
          <note key="64" vol="152" pan="0" len="12" pos="24"/>
          <note key="61" vol="152" pan="0" len="12" pos="36"/>
          <note key="59" vol="152" pan="0" len="12" pos="48"/>
          <note key="61" vol="152" pan="0" len="12" pos="60"/>
          <note key="66" vol="152" pan="0" len="12" pos="72"/>
          <note key="64" vol="152" pan="0" len="12" pos="84"/>
          <note key="61" vol="152" pan="0" len="12" pos="96"/>
          <note key="64" vol="152" pan="0" len="12" pos="108"/>
          <note key="68" vol="152" pan="0" len="12" pos="120"/>
          <note key="66" vol="152" pan="0" len="12" pos="132"/>
          <note key="64" vol="152" pan="0" len="12" pos="144"/>
          <note key="61" vol="152" pan="0" len="12" pos="156"/>
          <note key="64" vol="152" pan="0" len="12" pos="168"/>
          <note key="66" vol="152" pan="0" len="12" pos="180"/>
        </pattern>
        <pattern name="dt" muted="0" type="1" steps="16" pos="29760">
          <note key="68" vol="152" pan="0" len="12" pos="0"/>
          <note key="66" vol="152" pan="0" len="12" pos="12"/>
          <note key="64" vol="152" pan="0" len="12" pos="24"/>
          <note key="61" vol="152" pan="0" len="12" pos="36"/>
          <note key="59" vol="152" pan="0" len="12" pos="48"/>
          <note key="61" vol="152" pan="0" len="12" pos="60"/>
          <note key="66" vol="152" pan="0" len="12" pos="72"/>
          <note key="64" vol="152" pan="0" len="12" pos="84"/>
          <note key="61" vol="152" pan="0" len="12" pos="96"/>
          <note key="64" vol="152" pan="0" len="12" pos="108"/>
          <note key="71" vol="152" pan="0" len="12" pos="120"/>
          <note key="68" vol="152" pan="0" len="12" pos="132"/>
          <note key="66" vol="152" pan="0" len="12" pos="144"/>
          <note key="68" vol="152" pan="0" len="12" pos="156"/>
          <note key="66" vol="152" pan="0" len="12" pos="168"/>
          <note key="64" vol="152" pan="0" len="12" pos="180"/>
        </pattern>
        <pattern name="dt" muted="0" type="1" steps="16" pos="13824">
          <note key="69" vol="78" pan="0" len="120" pos="384"/>
          <note key="68" vol="78" pan="0" len="24" pos="504"/>
          <note key="69" vol="78" pan="0" len="24" pos="528"/>
          <note key="71" vol="78" pan="0" len="24" pos="552"/>
          <note key="73" vol="78" pan="0" len="72" pos="576"/>
          <note key="71" vol="78" pan="0" len="72" pos="648"/>
          <note key="69" vol="78" pan="0" len="48" pos="720"/>
          <note key="68" vol="78" pan="0" len="24" pos="768"/>
          <note key="69" vol="78" pan="0" len="24" pos="792"/>
          <note key="68" vol="78" pan="0" len="24" pos="816"/>
          <note key="64" vol="78" pan="0" len="48" pos="840"/>
          <note key="64" vol="78" pan="0" len="24" pos="888"/>
          <note key="66" vol="78" pan="0" len="24" pos="912"/>
          <note key="68" vol="78" pan="0" len="24" pos="936"/>
          <note key="66" vol="78" pan="0" len="96" pos="960"/>
        </pattern>
        <pattern name="dt" muted="0" type="1" steps="16" pos="29952">
          <note key="73" vol="100" pan="0" len="12" pos="0"/>
          <note key="71" vol="100" pan="0" len="12" pos="12"/>
          <note key="68" vol="100" pan="0" len="12" pos="24"/>
          <note key="66" vol="100" pan="0" len="12" pos="36"/>
          <note key="71" vol="100" pan="0" len="12" pos="48"/>
          <note key="68" vol="100" pan="0" len="12" pos="60"/>
          <note key="66" vol="100" pan="0" len="12" pos="72"/>
          <note key="64" vol="100" pan="0" len="12" pos="84"/>
          <note key="68" vol="100" pan="0" len="12" pos="96"/>
          <note key="66" vol="100" pan="0" len="12" pos="108"/>
          <note key="64" vol="100" pan="0" len="12" pos="120"/>
          <note key="61" vol="100" pan="0" len="12" pos="132"/>
          <note key="64" vol="100" pan="0" len="12" pos="144"/>
          <note key="66" vol="100" pan="0" len="12" pos="156"/>
          <note key="68" vol="100" pan="0" len="12" pos="168"/>
          <note key="71" vol="100" pan="0" len="12" pos="180"/>
          <note key="68" vol="100" pan="0" len="12" pos="192"/>
          <note key="66" vol="100" pan="0" len="12" pos="204"/>
          <note key="64" vol="100" pan="0" len="12" pos="216"/>
          <note key="61" vol="100" pan="0" len="12" pos="228"/>
          <note key="64" vol="100" pan="0" len="12" pos="240"/>
          <note key="61" vol="100" pan="0" len="12" pos="252"/>
          <note key="59" vol="100" pan="0" len="12" pos="264"/>
          <note key="61" vol="100" pan="0" len="12" pos="276"/>
          <note key="59" vol="100" pan="0" len="12" pos="288"/>
          <note key="56" vol="100" pan="0" len="12" pos="300"/>
          <note key="54" vol="100" pan="0" len="12" pos="312"/>
          <note key="56" vol="100" pan="0" len="12" pos="324"/>
          <note key="49" vol="100" pan="0" len="48" pos="336"/>
        </pattern>
        <pattern name="dt" muted="0" type="1" steps="16" pos="30336">
          <note key="57" vol="48" pan="0" len="12" pos="0"/>
          <note key="57" vol="48" pan="0" len="12" pos="12"/>
          <note key="56" vol="48" pan="0" len="12" pos="24"/>
          <note key="56" vol="48" pan="0" len="12" pos="36"/>
          <note key="54" vol="48" pan="0" len="12" pos="48"/>
          <note key="54" vol="48" pan="0" len="12" pos="60"/>
          <note key="61" vol="48" pan="0" len="12" pos="72"/>
          <note key="61" vol="48" pan="0" len="12" pos="84"/>
          <note key="59" vol="48" pan="0" len="12" pos="96"/>
          <note key="59" vol="48" pan="0" len="12" pos="108"/>
          <note key="57" vol="48" pan="0" len="12" pos="120"/>
          <note key="57" vol="48" pan="0" len="12" pos="132"/>
          <note key="59" vol="48" pan="0" len="12" pos="144"/>
          <note key="59" vol="48" pan="0" len="12" pos="156"/>
          <note key="61" vol="48" pan="0" len="12" pos="168"/>
          <note key="61" vol="48" pan="0" len="12" pos="180"/>
          <note key="62" vol="48" pan="0" len="48" pos="192"/>
          <note key="61" vol="48" pan="0" len="12" pos="240"/>
          <note key="62" vol="48" pan="0" len="12" pos="252"/>
          <note key="64" vol="48" pan="0" len="12" pos="264"/>
          <note key="66" vol="48" pan="0" len="12" pos="276"/>
          <note key="68" vol="48" pan="0" len="12" pos="288"/>
          <note key="66" vol="48" pan="0" len="12" pos="300"/>
          <note key="64" vol="48" pan="0" len="12" pos="312"/>
          <note key="66" vol="48" pan="0" len="12" pos="324"/>
          <note key="69" vol="48" pan="0" len="12" pos="336"/>
          <note key="68" vol="48" pan="0" len="12" pos="348"/>
          <note key="66" vol="48" pan="0" len="12" pos="360"/>
          <note key="68" vol="48" pan="0" len="12" pos="372"/>
          <note key="68" vol="48" pan="0" len="24" pos="384"/>
          <note key="69" vol="48" pan="0" len="24" pos="408"/>
          <note key="66" vol="48" pan="0" len="48" pos="456"/>
          <note key="62" vol="48" pan="0" len="12" pos="504"/>
          <note key="62" vol="48" pan="0" len="12" pos="516"/>
          <note key="66" vol="48" pan="0" len="12" pos="528"/>
          <note key="66" vol="48" pan="0" len="12" pos="540"/>
          <note key="68" vol="48" pan="0" len="12" pos="552"/>
          <note key="68" vol="48" pan="0" len="12" pos="564"/>
          <note key="71" vol="48" pan="0" len="24" pos="576"/>
          <note key="69" vol="48" pan="0" len="12" pos="600"/>
          <note key="71" vol="48" pan="0" len="12" pos="612"/>
          <note key="73" vol="48" pan="0" len="24" pos="624"/>
          <note key="71" vol="48" pan="0" len="12" pos="648"/>
          <note key="73" vol="48" pan="0" len="12" pos="660"/>
          <note key="76" vol="48" pan="0" len="12" pos="672"/>
          <note key="74" vol="48" pan="0" len="12" pos="684"/>
          <note key="73" vol="48" pan="0" len="12" pos="696"/>
          <note key="71" vol="48" pan="0" len="12" pos="708"/>
          <note key="69" vol="48" pan="0" len="12" pos="720"/>
          <note key="68" vol="48" pan="0" len="12" pos="732"/>
          <note key="66" vol="48" pan="0" len="12" pos="744"/>
          <note key="64" vol="48" pan="0" len="12" pos="756"/>
        </pattern>
        <pattern name="dt" muted="0" type="1" steps="16" pos="31872">
          <note key="68" vol="76" pan="0" len="192" pos="0"/>
          <note key="69" vol="76" pan="0" len="192" pos="192"/>
          <note key="71" vol="76" pan="0" len="192" pos="384"/>
          <note key="66" vol="76" pan="0" len="192" pos="576"/>
          <note key="68" vol="76" pan="0" len="192" pos="768"/>
          <note key="69" vol="76" pan="0" len="192" pos="960"/>
          <note key="71" vol="76" pan="0" len="192" pos="1152"/>
          <note key="75" vol="76" pan="0" len="192" pos="1344"/>
          <note key="73" vol="76" pan="0" len="192" pos="1536"/>
          <note key="73" vol="76" pan="0" len="192" pos="1920"/>
          <note key="76" vol="76" pan="0" len="192" pos="2112"/>
          <note key="74" vol="76" pan="0" len="192" pos="2304"/>
          <note key="73" vol="76" pan="0" len="192" pos="2688"/>
          <note key="78" vol="76" pan="0" len="192" pos="2880"/>
        </pattern>
        <pattern name="dt" muted="0" type="1" steps="16" pos="1920">
          <note key="61" vol="53" pan="0" len="384" pos="0"/>
        </pattern>
        <pattern name="dt" muted="0" type="1" steps="16" pos="2304">
          <note key="61" vol="53" pan="0" len="384" pos="0"/>
        </pattern>
        <pattern name="dt" muted="0" type="1" steps="16" pos="2688">
          <note key="61" vol="53" pan="0" len="384" pos="0"/>
        </pattern>
        <pattern name="dt" muted="0" type="1" steps="16" pos="3072">
          <note key="61" vol="53" pan="0" len="384" pos="0"/>
        </pattern>
        <pattern name="dt" muted="0" type="1" steps="16" pos="38016">
          <note key="69" vol="100" pan="0" len="12" pos="0"/>
          <note key="1" vol="100" pan="0" len="12" pos="0"/>
          <note key="74" vol="100" pan="0" len="12" pos="12"/>
          <note key="78" vol="100" pan="0" len="12" pos="24"/>
          <note key="81" vol="100" pan="0" len="12" pos="36"/>
          <note key="0" vol="100" pan="0" len="12" pos="36"/>
          <note key="86" vol="100" pan="0" len="12" pos="48"/>
          <note key="81" vol="100" pan="0" len="12" pos="60"/>
          <note key="78" vol="100" pan="0" len="12" pos="72"/>
          <note key="1" vol="100" pan="0" len="12" pos="72"/>
          <note key="74" vol="100" pan="0" len="12" pos="84"/>
          <note key="81" vol="100" pan="0" len="12" pos="96"/>
          <note key="0" vol="100" pan="0" len="12" pos="96"/>
          <note key="80" vol="100" pan="0" len="12" pos="108"/>
          <note key="78" vol="100" pan="0" len="12" pos="120"/>
          <note key="1" vol="100" pan="0" len="12" pos="120"/>
          <note key="74" vol="100" pan="0" len="12" pos="132"/>
          <note key="83" vol="100" pan="0" len="12" pos="144"/>
          <note key="0" vol="100" pan="0" len="12" pos="144"/>
          <note key="81" vol="100" pan="0" len="12" pos="156"/>
          <note key="80" vol="100" pan="0" len="12" pos="168"/>
          <note key="1" vol="100" pan="0" len="12" pos="168"/>
          <note key="78" vol="100" pan="0" len="12" pos="180"/>
          <note key="83" vol="121" pan="0" len="12" pos="192"/>
          <note key="85" vol="121" pan="0" len="12" pos="204"/>
          <note key="83" vol="121" pan="0" len="12" pos="216"/>
          <note key="81" vol="121" pan="0" len="12" pos="228"/>
          <note key="80" vol="121" pan="0" len="12" pos="240"/>
          <note key="81" vol="121" pan="0" len="12" pos="252"/>
          <note key="80" vol="121" pan="0" len="12" pos="264"/>
          <note key="78" vol="121" pan="0" len="12" pos="276"/>
          <note key="83" vol="121" pan="0" len="12" pos="288"/>
          <note key="0" vol="121" pan="0" len="24" pos="288"/>
          <note key="85" vol="121" pan="0" len="12" pos="300"/>
          <note key="88" vol="121" pan="0" len="48" pos="312"/>
          <note key="85" vol="121" pan="0" len="24" pos="360"/>
          <note key="81" vol="100" pan="0" len="24" pos="384"/>
          <note key="80" vol="100" pan="0" len="24" pos="408"/>
          <note key="76" vol="100" pan="0" len="24" pos="432"/>
          <note key="81" vol="100" pan="0" len="24" pos="456"/>
          <note key="80" vol="100" pan="0" len="24" pos="480"/>
          <note key="78" vol="100" pan="0" len="24" pos="504"/>
          <note key="76" vol="100" pan="0" len="24" pos="528"/>
          <note key="80" vol="100" pan="0" len="24" pos="552"/>
          <note key="78" vol="100" pan="0" len="12" pos="576"/>
          <note key="0" vol="100" pan="0" len="12" pos="576"/>
          <note key="80" vol="100" pan="0" len="12" pos="588"/>
          <note key="2" vol="100" pan="0" len="12" pos="588"/>
          <note key="78" vol="100" pan="0" len="48" pos="600"/>
          <note key="1" vol="100" pan="0" len="12" pos="636"/>
          <note key="75" vol="100" pan="0" len="12" pos="648"/>
          <note key="76" vol="100" pan="0" len="12" pos="660"/>
          <note key="78" vol="100" pan="0" len="12" pos="672"/>
          <note key="0" vol="100" pan="0" len="12" pos="672"/>
          <note key="76" vol="100" pan="0" len="12" pos="684"/>
          <note key="75" vol="100" pan="0" len="12" pos="696"/>
          <note key="76" vol="100" pan="0" len="12" pos="708"/>
          <note key="1" vol="100" pan="0" len="12" pos="708"/>
          <note key="75" vol="100" pan="0" len="12" pos="720"/>
          <note key="73" vol="100" pan="0" len="12" pos="732"/>
          <note key="71" vol="100" pan="0" len="12" pos="744"/>
          <note key="69" vol="100" pan="0" len="12" pos="756"/>
        </pattern>
        <pattern name="dt" muted="0" type="1" steps="16" pos="3456">
          <note key="73" vol="78" pan="0" len="144" pos="0"/>
          <note key="0" vol="78" pan="0" len="144" pos="0"/>
          <note key="76" vol="78" pan="0" len="48" pos="144"/>
          <note key="75" vol="78" pan="0" len="144" pos="192"/>
          <note key="80" vol="78" pan="0" len="48" pos="336"/>
          <note key="80" vol="78" pan="0" len="144" pos="384"/>
          <note key="78" vol="78" pan="0" len="24" pos="528"/>
          <note key="76" vol="78" pan="0" len="24" pos="552"/>
          <note key="75" vol="78" pan="0" len="48" pos="576"/>
          <note key="76" vol="78" pan="0" len="48" pos="624"/>
          <note key="71" vol="78" pan="0" len="48" pos="672"/>
          <note key="68" vol="78" pan="0" len="48" pos="720"/>
          <note key="69" vol="78" pan="0" len="144" pos="768"/>
          <note key="76" vol="78" pan="0" len="48" pos="912"/>
          <note key="75" vol="78" pan="0" len="144" pos="960"/>
          <note key="78" vol="78" pan="0" len="48" pos="1104"/>
          <note key="76" vol="197" pan="0" len="96" pos="1152"/>
          <note key="80" vol="197" pan="0" len="48" pos="1248"/>
          <note key="76" vol="197" pan="0" len="48" pos="1296"/>
          <note key="78" vol="197" pan="0" len="48" pos="1344"/>
          <note key="83" vol="197" pan="0" len="48" pos="1392"/>
          <note key="80" vol="197" pan="0" len="48" pos="1440"/>
          <note key="87" vol="197" pan="0" len="48" pos="1488"/>
        </pattern>
        <pattern name="dt" muted="0" type="1" steps="16" pos="43200">
          <note key="0" vol="78" pan="0" len="72" pos="0"/>
          <note key="75" vol="78" pan="0" len="144" pos="960"/>
          <note key="78" vol="78" pan="0" len="48" pos="1104"/>
          <note key="77" vol="78" pan="0" len="144" pos="1152"/>
          <note key="82" vol="78" pan="0" len="48" pos="1296"/>
          <note key="82" vol="78" pan="0" len="144" pos="1344"/>
          <note key="80" vol="78" pan="0" len="24" pos="1488"/>
          <note key="78" vol="78" pan="0" len="24" pos="1512"/>
          <note key="77" vol="78" pan="0" len="48" pos="1536"/>
          <note key="78" vol="78" pan="0" len="48" pos="1584"/>
          <note key="73" vol="78" pan="0" len="48" pos="1632"/>
          <note key="70" vol="78" pan="0" len="48" pos="1680"/>
          <note key="71" vol="78" pan="0" len="96" pos="1728"/>
          <note key="75" vol="78" pan="0" len="48" pos="1824"/>
          <note key="78" vol="78" pan="0" len="48" pos="1872"/>
          <note key="78" vol="78" pan="0" len="96" pos="1920"/>
          <note key="77" vol="78" pan="0" len="48" pos="2016"/>
          <note key="78" vol="78" pan="0" len="48" pos="2064"/>
          <note key="85" vol="78" pan="0" len="72" pos="2112"/>
          <note key="83" vol="78" pan="0" len="72" pos="2184"/>
          <note key="82" vol="78" pan="0" len="48" pos="2256"/>
          <note key="80" vol="78" pan="0" len="192" pos="2304"/>
          <note key="78" vol="78" pan="0" len="72" pos="2496"/>
          <note key="77" vol="78" pan="0" len="72" pos="2568"/>
          <note key="78" vol="78" pan="0" len="48" pos="2640"/>
          <note key="82" vol="78" pan="0" len="144" pos="2688"/>
          <note key="77" vol="78" pan="0" len="48" pos="2832"/>
          <note key="75" vol="78" pan="0" len="240" pos="2880"/>
          <note key="78" vol="78" pan="0" len="48" pos="3120"/>
          <note key="80" vol="78" pan="0" len="48" pos="3168"/>
          <note key="82" vol="78" pan="0" len="48" pos="3216"/>
          <note key="83" vol="78" pan="0" len="72" pos="3264"/>
          <note key="82" vol="78" pan="0" len="72" pos="3336"/>
          <note key="80" vol="78" pan="0" len="48" pos="3408"/>
          <note key="78" vol="78" pan="0" len="48" pos="3456"/>
          <note key="75" vol="78" pan="0" len="48" pos="3504"/>
          <note key="78" vol="78" pan="0" len="48" pos="3552"/>
          <note key="82" vol="78" pan="0" len="48" pos="3600"/>
          <note key="80" vol="78" pan="0" len="192" pos="3648"/>
        </pattern>
        <pattern name="dt" muted="0" type="1" steps="16" pos="39552">
          <note key="73" vol="78" pan="0" len="12" pos="0"/>
          <note key="68" vol="78" pan="0" len="12" pos="12"/>
          <note key="64" vol="78" pan="0" len="12" pos="24"/>
          <note key="61" vol="78" pan="0" len="12" pos="36"/>
          <note key="56" vol="78" pan="0" len="12" pos="48"/>
          <note key="52" vol="78" pan="0" len="12" pos="60"/>
          <note key="56" vol="78" pan="0" len="12" pos="72"/>
          <note key="61" vol="78" pan="0" len="12" pos="84"/>
          <note key="64" vol="78" pan="0" len="12" pos="96"/>
          <note key="68" vol="78" pan="0" len="12" pos="108"/>
          <note key="76" vol="78" pan="0" len="12" pos="120"/>
          <note key="73" vol="78" pan="0" len="12" pos="132"/>
          <note key="68" vol="78" pan="0" len="12" pos="144"/>
          <note key="64" vol="78" pan="0" len="12" pos="156"/>
          <note key="68" vol="78" pan="0" len="12" pos="168"/>
          <note key="73" vol="78" pan="0" len="12" pos="180"/>
          <note key="75" vol="78" pan="0" len="12" pos="192"/>
          <note key="71" vol="78" pan="0" len="12" pos="204"/>
          <note key="68" vol="78" pan="0" len="12" pos="216"/>
          <note key="63" vol="78" pan="0" len="12" pos="228"/>
          <note key="59" vol="78" pan="0" len="12" pos="240"/>
          <note key="56" vol="78" pan="0" len="12" pos="252"/>
          <note key="59" vol="78" pan="0" len="12" pos="264"/>
          <note key="63" vol="78" pan="0" len="12" pos="276"/>
          <note key="68" vol="78" pan="0" len="12" pos="288"/>
          <note key="71" vol="78" pan="0" len="12" pos="300"/>
          <note key="80" vol="78" pan="0" len="12" pos="312"/>
          <note key="75" vol="78" pan="0" len="12" pos="324"/>
          <note key="71" vol="78" pan="0" len="12" pos="336"/>
          <note key="68" vol="78" pan="0" len="12" pos="348"/>
          <note key="71" vol="78" pan="0" len="12" pos="360"/>
          <note key="75" vol="78" pan="0" len="12" pos="372"/>
          <note key="80" vol="78" pan="0" len="24" pos="384"/>
          <note key="76" vol="78" pan="0" len="24" pos="408"/>
          <note key="69" vol="78" pan="0" len="24" pos="432"/>
          <note key="76" vol="78" pan="0" len="24" pos="456"/>
          <note key="75" vol="78" pan="0" len="24" pos="480"/>
          <note key="69" vol="78" pan="0" len="24" pos="504"/>
          <note key="78" vol="78" pan="0" len="24" pos="528"/>
          <note key="76" vol="78" pan="0" len="24" pos="552"/>
          <note key="75" vol="78" pan="0" len="48" pos="576"/>
          <note key="76" vol="78" pan="0" len="48" pos="624"/>
          <note key="76" vol="78" pan="0" len="12" pos="672"/>
          <note key="78" vol="78" pan="0" len="12" pos="684"/>
          <note key="76" vol="78" pan="0" len="12" pos="696"/>
          <note key="75" vol="78" pan="0" len="12" pos="708"/>
          <note key="76" vol="78" pan="0" len="12" pos="720"/>
          <note key="75" vol="78" pan="0" len="12" pos="732"/>
          <note key="73" vol="78" pan="0" len="12" pos="744"/>
          <note key="71" vol="78" pan="0" len="12" pos="756"/>
        </pattern>
        <pattern name="" muted="0" type="1" steps="16" pos="40320">
          <note key="69" vol="78" pan="0" len="12" pos="0"/>
          <note key="1" vol="200" pan="0" len="48" pos="0"/>
          <note key="68" vol="78" pan="0" len="12" pos="12"/>
          <note key="66" vol="78" pan="0" len="12" pos="24"/>
          <note key="68" vol="78" pan="0" len="12" pos="36"/>
          <note key="69" vol="78" pan="0" len="12" pos="48"/>
          <note key="68" vol="78" pan="0" len="12" pos="60"/>
          <note key="66" vol="78" pan="0" len="12" pos="72"/>
          <note key="68" vol="78" pan="0" len="12" pos="84"/>
          <note key="73" vol="78" pan="0" len="12" pos="96"/>
          <note key="71" vol="78" pan="0" len="12" pos="108"/>
          <note key="69" vol="78" pan="0" len="12" pos="120"/>
          <note key="71" vol="78" pan="0" len="12" pos="132"/>
          <note key="73" vol="78" pan="0" len="12" pos="144"/>
          <note key="75" vol="78" pan="0" len="12" pos="156"/>
          <note key="76" vol="78" pan="0" len="12" pos="168"/>
          <note key="75" vol="78" pan="0" len="12" pos="180"/>
          <note key="76" vol="78" pan="0" len="12" pos="192"/>
          <note key="75" vol="78" pan="0" len="12" pos="204"/>
          <note key="73" vol="78" pan="0" len="12" pos="216"/>
          <note key="75" vol="78" pan="0" len="12" pos="228"/>
          <note key="76" vol="78" pan="0" len="12" pos="240"/>
          <note key="0" vol="200" pan="0" len="48" pos="240"/>
          <note key="75" vol="78" pan="0" len="12" pos="252"/>
          <note key="73" vol="78" pan="0" len="12" pos="264"/>
          <note key="75" vol="78" pan="0" len="12" pos="276"/>
          <note key="76" vol="78" pan="0" len="12" pos="288"/>
          <note key="78" vol="78" pan="0" len="12" pos="300"/>
          <note key="80" vol="78" pan="0" len="12" pos="312"/>
          <note key="81" vol="78" pan="0" len="12" pos="324"/>
          <note key="83" vol="78" pan="0" len="12" pos="336"/>
          <note key="76" vol="78" pan="0" len="12" pos="348"/>
          <note key="1" vol="200" pan="0" len="12" pos="348"/>
          <note key="75" vol="78" pan="0" len="12" pos="360"/>
          <note key="76" vol="78" pan="0" len="12" pos="372"/>
        </pattern>
        <pattern name="" muted="0" type="1" steps="16" pos="40704">
          <note key="83" vol="78" pan="0" len="48" pos="0"/>
          <note key="0" vol="100" pan="0" len="48" pos="0"/>
          <note key="81" vol="78" pan="0" len="12" pos="48"/>
          <note key="83" vol="78" pan="0" len="12" pos="60"/>
          <note key="81" vol="78" pan="0" len="48" pos="72"/>
          <note key="80" vol="78" pan="0" len="12" pos="120"/>
          <note key="81" vol="78" pan="0" len="12" pos="132"/>
          <note key="80" vol="78" pan="0" len="12" pos="144"/>
          <note key="0" vol="78" pan="0" len="12" pos="144"/>
          <note key="78" vol="78" pan="0" len="12" pos="156"/>
          <note key="1" vol="78" pan="0" len="12" pos="156"/>
          <note key="76" vol="78" pan="0" len="12" pos="168"/>
          <note key="80" vol="78" pan="0" len="12" pos="180"/>
          <note key="78" vol="78" pan="0" len="48" pos="192"/>
          <note key="0" vol="78" pan="0" len="12" pos="192"/>
          <note key="76" vol="78" pan="0" len="12" pos="240"/>
          <note key="1" vol="78" pan="0" len="12" pos="240"/>
          <note key="75" vol="78" pan="0" len="12" pos="252"/>
          <note key="76" vol="78" pan="0" len="12" pos="264"/>
          <note key="78" vol="78" pan="0" len="12" pos="276"/>
          <note key="80" vol="78" pan="0" len="12" pos="288"/>
          <note key="0" vol="78" pan="0" len="12" pos="288"/>
          <note key="81" vol="78" pan="0" len="12" pos="300"/>
          <note key="80" vol="78" pan="0" len="12" pos="312"/>
          <note key="78" vol="78" pan="0" len="12" pos="324"/>
          <note key="80" vol="78" pan="0" len="12" pos="336"/>
          <note key="78" vol="78" pan="0" len="12" pos="348"/>
          <note key="76" vol="78" pan="0" len="12" pos="360"/>
          <note key="1" vol="78" pan="0" len="12" pos="360"/>
          <note key="75" vol="78" pan="0" len="12" pos="372"/>
        </pattern>
        <pattern name="" muted="0" type="1" steps="16" pos="41088">
          <note key="80" vol="78" pan="0" len="12" pos="0"/>
          <note key="76" vol="78" pan="0" len="12" pos="12"/>
          <note key="75" vol="78" pan="0" len="12" pos="24"/>
          <note key="76" vol="78" pan="0" len="12" pos="36"/>
          <note key="73" vol="78" pan="0" len="12" pos="48"/>
          <note key="76" vol="78" pan="0" len="12" pos="60"/>
          <note key="75" vol="78" pan="0" len="12" pos="72"/>
          <note key="76" vol="78" pan="0" len="12" pos="84"/>
          <note key="80" vol="78" pan="0" len="12" pos="96"/>
          <note key="76" vol="78" pan="0" len="12" pos="108"/>
          <note key="75" vol="78" pan="0" len="12" pos="120"/>
          <note key="76" vol="78" pan="0" len="12" pos="132"/>
          <note key="73" vol="78" pan="0" len="12" pos="144"/>
          <note key="76" vol="78" pan="0" len="12" pos="156"/>
          <note key="75" vol="78" pan="0" len="12" pos="168"/>
          <note key="76" vol="78" pan="0" len="12" pos="180"/>
          <note key="80" vol="78" pan="0" len="12" pos="192"/>
          <note key="75" vol="78" pan="0" len="12" pos="204"/>
          <note key="73" vol="78" pan="0" len="12" pos="216"/>
          <note key="75" vol="78" pan="0" len="12" pos="228"/>
          <note key="71" vol="78" pan="0" len="12" pos="240"/>
          <note key="75" vol="78" pan="0" len="12" pos="252"/>
          <note key="73" vol="78" pan="0" len="12" pos="264"/>
          <note key="75" vol="78" pan="0" len="12" pos="276"/>
          <note key="80" vol="78" pan="0" len="12" pos="288"/>
          <note key="75" vol="78" pan="0" len="12" pos="300"/>
          <note key="73" vol="78" pan="0" len="12" pos="312"/>
          <note key="75" vol="78" pan="0" len="12" pos="324"/>
          <note key="71" vol="78" pan="0" len="12" pos="336"/>
          <note key="75" vol="78" pan="0" len="12" pos="348"/>
          <note key="73" vol="78" pan="0" len="12" pos="360"/>
          <note key="75" vol="78" pan="0" len="12" pos="372"/>
        </pattern>
        <pattern name="" muted="0" type="1" steps="16" pos="41472">
          <note key="82" vol="78" pan="0" len="12" pos="0"/>
          <note key="0" vol="78" pan="0" len="12" pos="0"/>
          <note key="78" vol="78" pan="0" len="12" pos="12"/>
          <note key="73" vol="78" pan="0" len="12" pos="24"/>
          <note key="1" vol="78" pan="0" len="12" pos="24"/>
          <note key="78" vol="78" pan="0" len="12" pos="36"/>
          <note key="70" vol="78" pan="0" len="12" pos="48"/>
          <note key="78" vol="78" pan="0" len="12" pos="60"/>
          <note key="73" vol="78" pan="0" len="12" pos="72"/>
          <note key="78" vol="78" pan="0" len="12" pos="84"/>
          <note key="82" vol="78" pan="0" len="12" pos="96"/>
          <note key="78" vol="78" pan="0" len="12" pos="108"/>
          <note key="73" vol="78" pan="0" len="12" pos="120"/>
          <note key="78" vol="78" pan="0" len="12" pos="132"/>
          <note key="70" vol="78" pan="0" len="12" pos="144"/>
          <note key="78" vol="78" pan="0" len="12" pos="156"/>
          <note key="73" vol="78" pan="0" len="12" pos="168"/>
          <note key="78" vol="78" pan="0" len="12" pos="180"/>
        </pattern>
        <pattern name="" muted="0" type="1" steps="16" pos="41664">
          <note key="82" vol="78" pan="0" len="12" pos="0"/>
          <note key="0" vol="78" pan="0" len="12" pos="0"/>
          <note key="78" vol="78" pan="0" len="12" pos="12"/>
          <note key="73" vol="78" pan="0" len="12" pos="24"/>
          <note key="1" vol="78" pan="0" len="12" pos="24"/>
          <note key="78" vol="78" pan="0" len="12" pos="36"/>
          <note key="70" vol="78" pan="0" len="12" pos="48"/>
          <note key="78" vol="78" pan="0" len="12" pos="60"/>
          <note key="73" vol="78" pan="0" len="12" pos="72"/>
          <note key="78" vol="78" pan="0" len="12" pos="84"/>
          <note key="82" vol="78" pan="0" len="12" pos="96"/>
          <note key="78" vol="78" pan="0" len="12" pos="108"/>
          <note key="73" vol="78" pan="0" len="12" pos="120"/>
          <note key="78" vol="78" pan="0" len="12" pos="132"/>
          <note key="70" vol="78" pan="0" len="12" pos="144"/>
          <note key="78" vol="78" pan="0" len="12" pos="156"/>
          <note key="73" vol="78" pan="0" len="12" pos="168"/>
          <note key="78" vol="78" pan="0" len="12" pos="180"/>
        </pattern>
        <pattern name="dt" muted="0" type="1" steps="16" pos="47040">
          <note key="73" vol="106" pan="0" len="12" pos="0"/>
          <note key="71" vol="106" pan="0" len="12" pos="12"/>
          <note key="70" vol="106" pan="0" len="12" pos="24"/>
          <note key="68" vol="106" pan="0" len="12" pos="36"/>
          <note key="71" vol="106" pan="0" len="12" pos="48"/>
          <note key="70" vol="106" pan="0" len="12" pos="60"/>
          <note key="68" vol="106" pan="0" len="12" pos="72"/>
          <note key="66" vol="106" pan="0" len="12" pos="84"/>
          <note key="70" vol="106" pan="0" len="12" pos="96"/>
          <note key="68" vol="106" pan="0" len="12" pos="108"/>
          <note key="66" vol="106" pan="0" len="12" pos="120"/>
          <note key="65" vol="106" pan="0" len="12" pos="132"/>
          <note key="68" vol="106" pan="0" len="12" pos="144"/>
          <note key="66" vol="106" pan="0" len="12" pos="156"/>
          <note key="65" vol="106" pan="0" len="12" pos="168"/>
          <note key="66" vol="106" pan="0" len="12" pos="180"/>
        </pattern>
        <pattern name="" muted="0" type="1" steps="16" pos="41856">
          <note key="86" vol="78" pan="0" len="24" pos="0"/>
          <note key="0" vol="78" pan="0" len="48" pos="0"/>
          <note key="81" vol="78" pan="0" len="24" pos="24"/>
          <note key="76" vol="78" pan="0" len="24" pos="48"/>
          <note key="83" vol="78" pan="0" len="24" pos="72"/>
          <note key="85" vol="78" pan="0" len="24" pos="96"/>
          <note key="86" vol="78" pan="0" len="24" pos="120"/>
          <note key="85" vol="78" pan="0" len="24" pos="144"/>
          <note key="83" vol="78" pan="0" len="24" pos="168"/>
          <note key="85" vol="78" pan="0" len="12" pos="192"/>
          <note key="0" vol="78" pan="0" len="24" pos="192"/>
          <note key="81" vol="78" pan="0" len="12" pos="204"/>
          <note key="76" vol="78" pan="0" len="12" pos="216"/>
          <note key="1" vol="78" pan="0" len="24" pos="216"/>
          <note key="73" vol="78" pan="0" len="12" pos="228"/>
          <note key="69" vol="78" pan="0" len="12" pos="240"/>
          <note key="73" vol="78" pan="0" len="12" pos="252"/>
          <note key="81" vol="78" pan="0" len="12" pos="264"/>
          <note key="0" vol="78" pan="0" len="24" pos="264"/>
          <note key="76" vol="78" pan="0" len="12" pos="276"/>
          <note key="73" vol="78" pan="0" len="12" pos="288"/>
          <note key="1" vol="78" pan="0" len="24" pos="288"/>
          <note key="69" vol="78" pan="0" len="12" pos="300"/>
          <note key="73" vol="78" pan="0" len="12" pos="312"/>
          <note key="76" vol="78" pan="0" len="12" pos="324"/>
          <note key="85" vol="78" pan="0" len="12" pos="336"/>
          <note key="0" vol="78" pan="0" len="24" pos="336"/>
          <note key="83" vol="78" pan="0" len="12" pos="348"/>
          <note key="81" vol="78" pan="0" len="12" pos="360"/>
          <note key="1" vol="78" pan="0" len="24" pos="360"/>
          <note key="83" vol="78" pan="0" len="12" pos="372"/>
          <note key="87" vol="78" pan="0" len="384" pos="384"/>
          <note key="0" vol="78" pan="0" len="24" pos="384"/>
        </pattern>
      </track>
      <track name="bells" muted="0" type="0" solo="0">
        <instrumenttrack vol="63.2" pitch="0" pitchrange="1" basenote="57" pan="0" fxch="0" usemasterpitch="1">
          <instrument name="sf2player">
            <sf2player chorusOn="0" reverbRoomSize="0.2" chorusLevel="2" src="/home/huggypie/samples/soundfonts/Orchestra Soundfont 2 COMBO.sf2" gain="1" reverbDamping="0" chorusSpeed="0.3" reverbWidth="0.5" reverbLevel="0.9" bank="0" reverbOn="0" patch="14" chorusDepth="8" chorusNum="3"/>
          </instrument>
          <eldata ftype="0" fres="0.5" fwet="0" fcut="14000">
            <elvol dec="0.5" sustain="0.5" pdel="0" lpdel="0" rel="0.1" lspd="0.1" userwavefile="" hold="0.5" lamt="0" lspd_numerator="4" lspd_syncmode="0" lshp="0" amt="0" x100="0" latt="0" lspd_denominator="4" ctlenvamt="0" att="0"/>
            <elcut dec="0.5" sustain="0.5" pdel="0" lpdel="0" rel="0.1" lspd="0.1" userwavefile="" hold="0.5" lamt="0" lspd_numerator="4" lspd_syncmode="0" lshp="0" amt="0" x100="0" latt="0" lspd_denominator="4" ctlenvamt="0" att="0"/>
            <elres dec="0.5" sustain="0.5" pdel="0" lpdel="0" rel="0.1" lspd="0.1" userwavefile="" hold="0.5" lamt="0" lspd_numerator="4" lspd_syncmode="0" lshp="0" amt="0" x100="0" latt="0" lspd_denominator="4" ctlenvamt="0" att="0"/>
          </eldata>
          <chordcreator chord="0" chord-enabled="0" chordrange="1"/>
          <arpeggiator arprange="1" arptime_denominator="4" arpgate="100" arptime_syncmode="0" arp="0" arpmode="0" arpmiss="0" arpdir="0" arptime_numerator="4" arp-enabled="0" arpcycle="0" arpskip="0" arptime="200"/>
          <midiport outputchannel="1" inputcontroller="0" outputcontroller="0" basevelocity="63" fixedinputvelocity="-1" fixedoutputvelocity="-1" outputprogram="1" readable="0" writable="0" fixedoutputnote="-1" inputchannel="0"/>
          <fxchain numofeffects="0" enabled="0"/>
        </instrumenttrack>
        <pattern name="" muted="0" type="1" steps="16" pos="384">
          <note key="49" vol="197" pan="0" len="384" pos="0"/>
        </pattern>
        <pattern name="" muted="0" type="1" steps="16" pos="768">
          <note key="49" vol="197" pan="0" len="384" pos="0"/>
        </pattern>
        <pattern name="" muted="0" type="1" steps="16" pos="1152">
          <note key="49" vol="197" pan="0" len="384" pos="0"/>
        </pattern>
        <pattern name="" muted="0" type="1" steps="16" pos="1536">
          <note key="49" vol="197" pan="0" len="384" pos="0"/>
        </pattern>
        <pattern name="" muted="0" type="1" steps="16" pos="1920">
          <note key="49" vol="197" pan="0" len="384" pos="0"/>
        </pattern>
        <pattern name="" muted="0" type="1" steps="16" pos="2304">
          <note key="49" vol="197" pan="0" len="384" pos="0"/>
        </pattern>
        <pattern name="" muted="0" type="1" steps="16" pos="2688">
          <note key="49" vol="197" pan="0" len="384" pos="0"/>
        </pattern>
        <pattern name="bells" muted="0" type="1" steps="16" pos="3456">
          <note key="61" vol="197" pan="0" len="144" pos="0"/>
          <note key="64" vol="197" pan="0" len="48" pos="144"/>
          <note key="63" vol="197" pan="0" len="144" pos="192"/>
          <note key="68" vol="197" pan="0" len="48" pos="336"/>
          <note key="68" vol="197" pan="0" len="144" pos="384"/>
          <note key="66" vol="197" pan="0" len="24" pos="528"/>
          <note key="64" vol="197" pan="0" len="24" pos="552"/>
          <note key="63" vol="197" pan="0" len="48" pos="576"/>
          <note key="64" vol="197" pan="0" len="48" pos="624"/>
          <note key="59" vol="197" pan="0" len="48" pos="672"/>
          <note key="56" vol="197" pan="0" len="48" pos="720"/>
          <note key="57" vol="197" pan="0" len="144" pos="768"/>
          <note key="64" vol="197" pan="0" len="48" pos="912"/>
          <note key="63" vol="197" pan="0" len="144" pos="960"/>
          <note key="66" vol="197" pan="0" len="48" pos="1104"/>
          <note key="64" vol="197" pan="0" len="96" pos="1152"/>
          <note key="68" vol="197" pan="0" len="48" pos="1248"/>
          <note key="64" vol="197" pan="0" len="48" pos="1296"/>
          <note key="66" vol="197" pan="0" len="48" pos="1344"/>
          <note key="71" vol="197" pan="0" len="48" pos="1392"/>
          <note key="68" vol="197" pan="0" len="48" pos="1440"/>
          <note key="75" vol="197" pan="0" len="48" pos="1488"/>
        </pattern>
        <pattern name="" muted="0" type="1" steps="16" pos="3072">
          <note key="49" vol="197" pan="0" len="384" pos="0"/>
        </pattern>
        <pattern name="" muted="0" type="1" steps="16" pos="24960">
          <note key="61" vol="197" pan="0" len="192" pos="0"/>
          <note key="59" vol="197" pan="0" len="192" pos="192"/>
          <note key="56" vol="197" pan="0" len="288" pos="384"/>
          <note key="56" vol="197" pan="0" len="96" pos="672"/>
          <note key="68" vol="197" pan="0" len="192" pos="768"/>
          <note key="66" vol="197" pan="0" len="192" pos="960"/>
          <note key="61" vol="197" pan="0" len="384" pos="1152"/>
          <note key="61" vol="197" pan="0" len="192" pos="1536"/>
          <note key="63" vol="197" pan="0" len="192" pos="1728"/>
          <note key="64" vol="197" pan="0" len="192" pos="1920"/>
          <note key="68" vol="197" pan="0" len="96" pos="2112"/>
          <note key="66" vol="197" pan="0" len="96" pos="2208"/>
          <note key="66" vol="197" pan="0" len="192" pos="2304"/>
          <note key="61" vol="197" pan="0" len="144" pos="2496"/>
          <note key="61" vol="197" pan="0" len="24" pos="2640"/>
          <note key="63" vol="197" pan="0" len="24" pos="2664"/>
          <note key="64" vol="197" pan="0" len="192" pos="2688"/>
          <note key="64" vol="197" pan="0" len="96" pos="2880"/>
          <note key="68" vol="197" pan="0" len="96" pos="2976"/>
          <note key="73" vol="197" pan="0" len="384" pos="3072"/>
          <note key="73" vol="197" pan="0" len="384" pos="3456"/>
        </pattern>
        <pattern name="bells" muted="0" type="1" steps="16" pos="8064">
          <note key="61" vol="193" pan="0" len="192" pos="0"/>
          <note key="56" vol="193" pan="0" len="192" pos="192"/>
          <note key="57" vol="193" pan="0" len="192" pos="384"/>
          <note key="59" vol="193" pan="0" len="192" pos="576"/>
          <note key="54" vol="193" pan="0" len="192" pos="768"/>
          <note key="56" vol="193" pan="0" len="192" pos="960"/>
          <note key="57" vol="193" pan="0" len="192" pos="1152"/>
          <note key="59" vol="193" pan="0" len="96" pos="1344"/>
          <note key="60" vol="193" pan="0" len="96" pos="1440"/>
          <note key="61" vol="193" pan="0" len="192" pos="1536"/>
          <note key="59" vol="193" pan="0" len="192" pos="1728"/>
          <note key="58" vol="193" pan="0" len="192" pos="1920"/>
          <note key="50" vol="193" pan="0" len="192" pos="2304"/>
          <note key="57" vol="193" pan="0" len="192" pos="2496"/>
          <note key="59" vol="193" pan="0" len="192" pos="2688"/>
        </pattern>
        <pattern name="" muted="0" type="1" steps="16" pos="31872">
          <note key="56" vol="200" pan="0" len="192" pos="0"/>
          <note key="57" vol="200" pan="0" len="192" pos="192"/>
          <note key="59" vol="200" pan="0" len="192" pos="384"/>
          <note key="54" vol="200" pan="0" len="192" pos="576"/>
          <note key="56" vol="200" pan="0" len="192" pos="768"/>
          <note key="57" vol="200" pan="0" len="192" pos="960"/>
          <note key="59" vol="200" pan="0" len="192" pos="1152"/>
          <note key="63" vol="200" pan="0" len="192" pos="1344"/>
          <note key="61" vol="200" pan="0" len="192" pos="1536"/>
          <note key="61" vol="200" pan="0" len="192" pos="1920"/>
          <note key="64" vol="200" pan="0" len="192" pos="2112"/>
          <note key="62" vol="200" pan="0" len="192" pos="2304"/>
          <note key="61" vol="200" pan="0" len="192" pos="2688"/>
          <note key="66" vol="200" pan="0" len="192" pos="2880"/>
        </pattern>
        <pattern name="" muted="0" type="1" steps="16" pos="34944">
          <note key="61" vol="197" pan="0" len="144" pos="0"/>
          <note key="64" vol="197" pan="0" len="48" pos="144"/>
          <note key="63" vol="197" pan="0" len="144" pos="192"/>
          <note key="68" vol="197" pan="0" len="48" pos="336"/>
          <note key="68" vol="197" pan="0" len="144" pos="384"/>
          <note key="66" vol="197" pan="0" len="24" pos="528"/>
          <note key="64" vol="197" pan="0" len="24" pos="552"/>
          <note key="63" vol="197" pan="0" len="48" pos="576"/>
          <note key="64" vol="197" pan="0" len="48" pos="624"/>
          <note key="59" vol="197" pan="0" len="48" pos="672"/>
          <note key="56" vol="197" pan="0" len="48" pos="720"/>
          <note key="57" vol="197" pan="0" len="144" pos="768"/>
          <note key="64" vol="197" pan="0" len="48" pos="912"/>
          <note key="63" vol="197" pan="0" len="144" pos="960"/>
          <note key="66" vol="197" pan="0" len="48" pos="1104"/>
          <note key="64" vol="197" pan="0" len="96" pos="1152"/>
          <note key="68" vol="197" pan="0" len="48" pos="1248"/>
          <note key="64" vol="197" pan="0" len="48" pos="1296"/>
          <note key="66" vol="197" pan="0" len="48" pos="1344"/>
          <note key="71" vol="197" pan="0" len="48" pos="1392"/>
          <note key="68" vol="197" pan="0" len="48" pos="1440"/>
          <note key="75" vol="197" pan="0" len="48" pos="1488"/>
        </pattern>
        <pattern name="bells" muted="0" type="0" steps="16" pos="47232"/>
        <pattern name="" muted="0" type="1" steps="16" pos="50304">
          <note key="63" vol="197" pan="0" len="192" pos="0"/>
          <note key="61" vol="197" pan="0" len="192" pos="192"/>
          <note key="58" vol="197" pan="0" len="288" pos="384"/>
          <note key="58" vol="197" pan="0" len="96" pos="672"/>
          <note key="70" vol="197" pan="0" len="192" pos="768"/>
          <note key="68" vol="197" pan="0" len="192" pos="960"/>
          <note key="63" vol="197" pan="0" len="384" pos="1152"/>
          <note key="63" vol="197" pan="0" len="192" pos="1536"/>
          <note key="65" vol="197" pan="0" len="192" pos="1728"/>
          <note key="66" vol="197" pan="0" len="192" pos="1920"/>
          <note key="70" vol="197" pan="0" len="96" pos="2112"/>
          <note key="68" vol="197" pan="0" len="96" pos="2208"/>
          <note key="68" vol="197" pan="0" len="192" pos="2304"/>
          <note key="63" vol="197" pan="0" len="144" pos="2496"/>
          <note key="63" vol="197" pan="0" len="24" pos="2640"/>
          <note key="65" vol="197" pan="0" len="24" pos="2664"/>
          <note key="66" vol="197" pan="0" len="192" pos="2688"/>
          <note key="66" vol="197" pan="0" len="96" pos="2880"/>
          <note key="70" vol="197" pan="0" len="96" pos="2976"/>
          <note key="75" vol="197" pan="0" len="384" pos="3072"/>
          <note key="75" vol="197" pan="0" len="384" pos="3456"/>
        </pattern>
      </track>
      <track name="choir hi" muted="0" type="0" solo="0">
        <instrumenttrack vol="54.4" pitch="0" pitchrange="1" basenote="57" pan="0" fxch="0" usemasterpitch="1">
          <instrument name="carlapatchbay">
            <carlapatchbay>
              <CARLA-PROJECT VERSION="2.0">
                <EngineSettings>
                  <ForceStereo>false</ForceStereo>
                  <PreferPluginBridges>false</PreferPluginBridges>
                  <PreferUiBridges>true</PreferUiBridges>
                  <UIsAlwaysOnTop>false</UIsAlwaysOnTop>
                  <MaxParameters>200</MaxParameters>
                  <UIBridgesTimeout>4000</UIBridgesTimeout>
                  <LADSPA_PATH>/home/huggypie/.ladspa:/usr/lib/ladspa:/usr/local/lib/ladspa</LADSPA_PATH>
                  <DSSI_PATH>/home/huggypie/.dssi:/usr/lib/dssi:/usr/local/lib/dssi</DSSI_PATH>
                  <LV2_PATH>/home/huggypie/.lv2:/usr/lib/lv2:/usr/local/lib/lv2</LV2_PATH>
                  <VST2_PATH>/home/huggypie/.vst:/home/huggypie/.wine/drive_c/Program Files/VstPlugins:/usr/lib/lxvst:/usr/lib/vst:/usr/local/lib/lxvst:/usr/local/lib/vst/home/huggypie/.lxvst</VST2_PATH>
                  <VST3_PATH>/home/huggypie/.vst3:/home/huggypie/.wine/drive_c/Program Files/Common Files/VST3:/usr/lib/vst3:/usr/local/lib/vst3</VST3_PATH>
                  <SF2_PATH>/home/huggypie/.sounds/sf2/home/huggypie/.sounds/sf3:/home/huggypie/samples/soundfonts:/usr/share/soundfonts:/usr/share/sounds/sf2:/usr/share/sounds/sf3</SF2_PATH>
                  <SFZ_PATH>/home/huggypie/.sounds/sfz:/home/huggypie/samples:/home/huggypie/samples:/home/huggypie/samples/VSCO-2-CE-SFZ/VSCO-2-CE-SFZ:/usr/share/sounds/sfz</SFZ_PATH>
                </EngineSettings>
                <!-- Chorus - Female (nolimits) -->
                <Plugin>
                  <Info>
                    <Type>SFZ</Type>
                    <Name>Chorus - Female (nolimits)</Name>
                    <Filename>/home/huggypie/samples/sonatina-symphonic-orchestra-1.0/Sonatina Symphonic Orchestra/Chorus - Female (nolimits).sfz</Filename>
                  </Info>
                  <Data>
                    <Active>Yes</Active>
                    <ControlChannel>1</ControlChannel>
                    <Options>0x1f0</Options>
                  </Data>
                </Plugin>
                <Patchbay>
                  <Connection>
                    <Source>Midi Input:Capture 1</Source>
                    <Target>Chorus - Female (nolimits):events-in</Target>
                  </Connection>
                  <Connection>
                    <Source>Chorus - Female (nolimits):out-left</Source>
                    <Target>Audio Output:Left</Target>
                  </Connection>
                  <Connection>
                    <Source>Chorus - Female (nolimits):out-right</Source>
                    <Target>Audio Output:Right</Target>
                  </Connection>
                </Patchbay>
              </CARLA-PROJECT>
            </carlapatchbay>
          </instrument>
          <eldata ftype="0" fres="0.5" fwet="0" fcut="14000">
            <elvol dec="0.5" sustain="0.5" pdel="0" lpdel="0" rel="0.1" lspd="0.1" userwavefile="" hold="0.5" lamt="0" lspd_numerator="4" lspd_syncmode="0" lshp="0" amt="0" x100="0" latt="0" lspd_denominator="4" ctlenvamt="0" att="0"/>
            <elcut dec="0.5" sustain="0.5" pdel="0" lpdel="0" rel="0.1" lspd="0.1" userwavefile="" hold="0.5" lamt="0" lspd_numerator="4" lspd_syncmode="0" lshp="0" amt="0" x100="0" latt="0" lspd_denominator="4" ctlenvamt="0" att="0"/>
            <elres dec="0.5" sustain="0.5" pdel="0" lpdel="0" rel="0.1" lspd="0.1" userwavefile="" hold="0.5" lamt="0" lspd_numerator="4" lspd_syncmode="0" lshp="0" amt="0" x100="0" latt="0" lspd_denominator="4" ctlenvamt="0" att="0"/>
          </eldata>
          <chordcreator chord="0" chord-enabled="0" chordrange="1"/>
          <arpeggiator arprange="1" arptime_denominator="4" arpgate="100" arptime_syncmode="0" arp="0" arpmode="0" arpmiss="0" arpdir="0" arptime_numerator="4" arp-enabled="0" arpcycle="0" arpskip="0" arptime="200"/>
          <midiport outputchannel="1" inputcontroller="0" outputcontroller="0" basevelocity="63" fixedinputvelocity="-1" fixedoutputvelocity="-1" outputprogram="1" readable="0" writable="0" fixedoutputnote="-1" inputchannel="0"/>
          <fxchain numofeffects="0" enabled="0"/>
        </instrumenttrack>
        <pattern name="choir hi" muted="0" type="1" steps="16" pos="1920">
          <note key="44" vol="78" pan="0" len="36" pos="0"/>
          <note key="37" vol="78" pan="0" len="36" pos="0"/>
          <note key="1" vol="78" pan="0" len="24" pos="0"/>
          <note key="44" vol="78" pan="0" len="36" pos="72"/>
          <note key="37" vol="78" pan="0" len="36" pos="72"/>
          <note key="44" vol="78" pan="0" len="36" pos="144"/>
          <note key="37" vol="78" pan="0" len="36" pos="144"/>
          <note key="44" vol="78" pan="0" len="36" pos="216"/>
          <note key="37" vol="78" pan="0" len="36" pos="216"/>
          <note key="44" vol="78" pan="0" len="24" pos="288"/>
          <note key="37" vol="78" pan="0" len="24" pos="288"/>
          <note key="0" vol="78" pan="0" len="24" pos="300"/>
          <note key="44" vol="78" pan="0" len="48" pos="312"/>
          <note key="37" vol="78" pan="0" len="48" pos="312"/>
          <note key="1" vol="78" pan="0" len="24" pos="336"/>
          <note key="44" vol="78" pan="0" len="24" pos="360"/>
          <note key="37" vol="78" pan="0" len="24" pos="360"/>
          <note key="51" vol="78" pan="0" len="36" pos="384"/>
          <note key="44" vol="78" pan="0" len="36" pos="384"/>
          <note key="51" vol="78" pan="0" len="36" pos="456"/>
          <note key="44" vol="78" pan="0" len="36" pos="456"/>
          <note key="51" vol="78" pan="0" len="36" pos="528"/>
          <note key="44" vol="78" pan="0" len="36" pos="528"/>
          <note key="51" vol="78" pan="0" len="36" pos="600"/>
          <note key="44" vol="78" pan="0" len="36" pos="600"/>
          <note key="51" vol="78" pan="0" len="24" pos="672"/>
          <note key="44" vol="78" pan="0" len="24" pos="672"/>
          <note key="0" vol="78" pan="0" len="24" pos="684"/>
          <note key="51" vol="78" pan="0" len="48" pos="696"/>
          <note key="44" vol="78" pan="0" len="48" pos="696"/>
          <note key="1" vol="78" pan="0" len="24" pos="720"/>
          <note key="51" vol="78" pan="0" len="24" pos="744"/>
          <note key="44" vol="78" pan="0" len="24" pos="744"/>
          <note key="46" vol="78" pan="0" len="36" pos="768"/>
          <note key="39" vol="78" pan="0" len="36" pos="768"/>
          <note key="46" vol="78" pan="0" len="36" pos="840"/>
          <note key="39" vol="78" pan="0" len="36" pos="840"/>
          <note key="46" vol="78" pan="0" len="36" pos="912"/>
          <note key="39" vol="78" pan="0" len="36" pos="912"/>
          <note key="46" vol="78" pan="0" len="36" pos="984"/>
          <note key="39" vol="78" pan="0" len="36" pos="984"/>
          <note key="46" vol="78" pan="0" len="24" pos="1056"/>
          <note key="39" vol="78" pan="0" len="24" pos="1056"/>
          <note key="0" vol="78" pan="0" len="24" pos="1068"/>
          <note key="46" vol="78" pan="0" len="48" pos="1080"/>
          <note key="39" vol="78" pan="0" len="48" pos="1080"/>
          <note key="1" vol="78" pan="0" len="24" pos="1116"/>
          <note key="46" vol="78" pan="0" len="24" pos="1128"/>
          <note key="39" vol="78" pan="0" len="24" pos="1128"/>
          <note key="45" vol="78" pan="0" len="36" pos="1152"/>
          <note key="38" vol="78" pan="0" len="36" pos="1152"/>
          <note key="45" vol="78" pan="0" len="36" pos="1224"/>
          <note key="38" vol="78" pan="0" len="36" pos="1224"/>
          <note key="45" vol="78" pan="0" len="36" pos="1296"/>
          <note key="38" vol="78" pan="0" len="36" pos="1296"/>
        </pattern>
        <pattern name="choir hi" muted="0" type="1" steps="16" pos="44160">
          <note key="75" vol="200" pan="0" len="144" pos="0"/>
          <note key="63" vol="137" pan="0" len="144" pos="0"/>
          <note key="78" vol="200" pan="0" len="48" pos="144"/>
          <note key="66" vol="137" pan="0" len="48" pos="144"/>
          <note key="77" vol="200" pan="0" len="144" pos="192"/>
          <note key="65" vol="137" pan="0" len="144" pos="192"/>
          <note key="82" vol="200" pan="0" len="48" pos="336"/>
          <note key="70" vol="137" pan="0" len="48" pos="336"/>
          <note key="82" vol="200" pan="0" len="144" pos="384"/>
          <note key="70" vol="137" pan="0" len="144" pos="384"/>
          <note key="80" vol="200" pan="0" len="24" pos="528"/>
          <note key="68" vol="137" pan="0" len="24" pos="528"/>
          <note key="78" vol="200" pan="0" len="24" pos="552"/>
          <note key="66" vol="137" pan="0" len="24" pos="552"/>
          <note key="77" vol="200" pan="0" len="48" pos="576"/>
          <note key="65" vol="137" pan="0" len="48" pos="576"/>
          <note key="78" vol="200" pan="0" len="48" pos="624"/>
          <note key="66" vol="137" pan="0" len="48" pos="624"/>
          <note key="73" vol="200" pan="0" len="48" pos="672"/>
          <note key="61" vol="137" pan="0" len="48" pos="672"/>
          <note key="70" vol="200" pan="0" len="48" pos="720"/>
          <note key="58" vol="137" pan="0" len="48" pos="720"/>
          <note key="71" vol="200" pan="0" len="96" pos="768"/>
          <note key="59" vol="137" pan="0" len="96" pos="768"/>
          <note key="75" vol="200" pan="0" len="48" pos="864"/>
          <note key="63" vol="137" pan="0" len="48" pos="864"/>
          <note key="78" vol="200" pan="0" len="48" pos="912"/>
          <note key="66" vol="137" pan="0" len="48" pos="912"/>
          <note key="78" vol="200" pan="0" len="96" pos="960"/>
          <note key="66" vol="137" pan="0" len="96" pos="960"/>
          <note key="77" vol="200" pan="0" len="48" pos="1056"/>
          <note key="65" vol="137" pan="0" len="48" pos="1056"/>
          <note key="78" vol="200" pan="0" len="48" pos="1104"/>
          <note key="66" vol="137" pan="0" len="48" pos="1104"/>
          <note key="85" vol="200" pan="0" len="72" pos="1152"/>
          <note key="73" vol="137" pan="0" len="72" pos="1152"/>
          <note key="83" vol="200" pan="0" len="72" pos="1224"/>
          <note key="71" vol="137" pan="0" len="72" pos="1224"/>
          <note key="82" vol="200" pan="0" len="48" pos="1296"/>
          <note key="70" vol="137" pan="0" len="48" pos="1296"/>
          <note key="80" vol="200" pan="0" len="192" pos="1344"/>
          <note key="68" vol="137" pan="0" len="192" pos="1344"/>
          <note key="78" vol="200" pan="0" len="72" pos="1536"/>
          <note key="66" vol="137" pan="0" len="72" pos="1536"/>
          <note key="77" vol="200" pan="0" len="72" pos="1608"/>
          <note key="65" vol="137" pan="0" len="72" pos="1608"/>
          <note key="78" vol="200" pan="0" len="48" pos="1680"/>
          <note key="66" vol="137" pan="0" len="48" pos="1680"/>
          <note key="82" vol="200" pan="0" len="144" pos="1728"/>
          <note key="70" vol="137" pan="0" len="144" pos="1728"/>
          <note key="77" vol="179" pan="0" len="48" pos="1872"/>
          <note key="65" vol="137" pan="0" len="48" pos="1872"/>
          <note key="75" vol="144" pan="0" len="240" pos="1920"/>
          <note key="63" vol="137" pan="0" len="240" pos="1920"/>
          <note key="78" vol="200" pan="0" len="48" pos="2160"/>
          <note key="66" vol="137" pan="0" len="48" pos="2160"/>
          <note key="80" vol="200" pan="0" len="48" pos="2208"/>
          <note key="68" vol="137" pan="0" len="48" pos="2208"/>
          <note key="82" vol="200" pan="0" len="48" pos="2256"/>
          <note key="70" vol="137" pan="0" len="48" pos="2256"/>
          <note key="83" vol="200" pan="0" len="72" pos="2304"/>
          <note key="71" vol="137" pan="0" len="72" pos="2304"/>
          <note key="82" vol="200" pan="0" len="72" pos="2376"/>
          <note key="70" vol="137" pan="0" len="72" pos="2376"/>
          <note key="80" vol="200" pan="0" len="48" pos="2448"/>
          <note key="68" vol="137" pan="0" len="48" pos="2448"/>
          <note key="78" vol="200" pan="0" len="48" pos="2496"/>
          <note key="66" vol="137" pan="0" len="48" pos="2496"/>
          <note key="75" vol="200" pan="0" len="48" pos="2544"/>
          <note key="63" vol="137" pan="0" len="48" pos="2544"/>
          <note key="78" vol="200" pan="0" len="48" pos="2592"/>
          <note key="66" vol="137" pan="0" len="48" pos="2592"/>
          <note key="82" vol="200" pan="0" len="48" pos="2640"/>
          <note key="70" vol="137" pan="0" len="48" pos="2640"/>
          <note key="80" vol="200" pan="0" len="192" pos="2688"/>
          <note key="68" vol="137" pan="0" len="192" pos="2688"/>
        </pattern>
        <pattern name="choir hi" muted="0" type="0" steps="16" pos="15744"/>
        <pattern name="choir hi" muted="0" type="1" steps="16" pos="21888">
          <note key="73" vol="200" pan="0" len="192" pos="0"/>
          <note key="71" vol="200" pan="0" len="192" pos="192"/>
          <note key="68" vol="200" pan="0" len="384" pos="384"/>
          <note key="68" vol="200" pan="0" len="192" pos="768"/>
          <note key="66" vol="200" pan="0" len="192" pos="960"/>
          <note key="64" vol="200" pan="0" len="384" pos="1152"/>
        </pattern>
        <pattern name="choir hi" muted="0" type="1" steps="16" pos="24000">
          <note key="76" vol="200" pan="0" len="192" pos="0"/>
          <note key="73" vol="200" pan="0" len="384" pos="192"/>
          <note key="73" vol="200" pan="0" len="384" pos="576"/>
        </pattern>
        <pattern name="choir hi" muted="0" type="1" steps="16" pos="24960">
          <note key="73" vol="200" pan="0" len="192" pos="0"/>
          <note key="71" vol="200" pan="0" len="192" pos="192"/>
          <note key="68" vol="200" pan="0" len="288" pos="384"/>
          <note key="68" vol="200" pan="0" len="96" pos="672"/>
          <note key="80" vol="200" pan="0" len="192" pos="768"/>
          <note key="78" vol="200" pan="0" len="192" pos="960"/>
          <note key="73" vol="200" pan="0" len="384" pos="1152"/>
          <note key="73" vol="200" pan="0" len="192" pos="1536"/>
          <note key="75" vol="200" pan="0" len="192" pos="1728"/>
          <note key="76" vol="200" pan="0" len="192" pos="1920"/>
          <note key="80" vol="200" pan="0" len="96" pos="2112"/>
          <note key="78" vol="200" pan="0" len="96" pos="2208"/>
          <note key="78" vol="200" pan="0" len="192" pos="2304"/>
          <note key="73" vol="200" pan="0" len="144" pos="2496"/>
          <note key="73" vol="200" pan="0" len="24" pos="2640"/>
          <note key="75" vol="200" pan="0" len="24" pos="2664"/>
          <note key="76" vol="200" pan="0" len="192" pos="2688"/>
          <note key="76" vol="200" pan="0" len="96" pos="2880"/>
          <note key="80" vol="200" pan="0" len="96" pos="2976"/>
          <note key="85" vol="200" pan="0" len="384" pos="3072"/>
          <note key="85" vol="200" pan="0" len="384" pos="3456"/>
        </pattern>
      </track>
      <track name="Plucked 6" muted="0" type="0" solo="0">
        <instrumenttrack vol="147.2" pitch="0" pitchrange="1" basenote="57" pan="0" fxch="0" usemasterpitch="1">
          <instrument name="zynaddsubfx">
            <zynaddsubfx rescenterfreq="64" resbandwidth="64" portamento="0" filterq="64" fmgain="127" modifiedcontrollers="" bandwidth="64" forwardmidicc="1" filterfreq="64">
              <ZynAddSubFX-data version-major="2" version-minor="4" version-revision="1" ZynAddSubFX-author="Nasca Octavian Paul">
                <INFORMATION/>
                <BASE_PARAMETERS>
                  <par name="max_midi_parts" value="16"/>
                  <par name="max_kit_items_per_instrument" value="16"/>
                  <par name="max_system_effects" value="4"/>
                  <par name="max_insertion_effects" value="8"/>
                  <par name="max_instrument_effects" value="3"/>
                  <par name="max_addsynth_voices" value="8"/>
                </BASE_PARAMETERS>
                <MASTER>
                  <par name="volume" value="80"/>
                  <par name="key_shift" value="64"/>
                  <par_bool name="nrpn_receive" value="yes"/>
                  <MICROTONAL>
                    <string name="name">12tET</string>
                    <string name="comment">Equal Temperament 12 notes per octave</string>
                    <par_bool name="invert_up_down" value="no"/>
                    <par name="invert_up_down_center" value="60"/>
                    <par_bool name="enabled" value="no"/>
                    <par name="global_fine_detune" value="64"/>
                    <par name="a_note" value="69"/>
                    <par_real name="a_freq" value="440.000000"/>
                  </MICROTONAL>
                  <PART id="0">
                    <par_bool name="enabled" value="yes"/>
                    <par name="volume" value="96"/>
                    <par name="panning" value="64"/>
                    <par name="min_key" value="0"/>
                    <par name="max_key" value="127"/>
                    <par name="key_shift" value="64"/>
                    <par name="rcv_chn" value="0"/>
                    <par name="velocity_sensing" value="64"/>
                    <par name="velocity_offset" value="64"/>
                    <par_bool name="note_on" value="yes"/>
                    <par_bool name="poly_mode" value="yes"/>
                    <par name="legato_mode" value="0"/>
                    <par name="key_limit" value="15"/>
                    <INSTRUMENT>
                      <INFO>
                        <string name="name">bell_pad</string>
                        <string name="author"/>
                        <string name="comments"/>
                        <par name="type" value="0"/>
                      </INFO>
                      <INSTRUMENT_KIT>
                        <par name="kit_mode" value="0"/>
                        <par_bool name="drum_mode" value="no"/>
                        <INSTRUMENT_KIT_ITEM id="0">
                          <par_bool name="enabled" value="yes"/>
                          <string name="name"/>
                          <par_bool name="muted" value="no"/>
                          <par name="min_key" value="0"/>
                          <par name="max_key" value="127"/>
                          <par name="send_to_instrument_effect" value="0"/>
                          <par_bool name="add_enabled" value="yes"/>
                          <ADD_SYNTH_PARAMETERS>
                            <par_bool name="stereo" value="yes"/>
                            <AMPLITUDE_PARAMETERS>
                              <par name="volume" value="90"/>
                              <par name="panning" value="64"/>
                              <par name="velocity_sensing" value="64"/>
                              <par name="punch_strength" value="0"/>
                              <par name="punch_time" value="60"/>
                              <par name="punch_stretch" value="64"/>
                              <par name="punch_velocity_sensing" value="72"/>
                              <par name="harmonic_randomness_grouping" value="0"/>
                              <AMPLITUDE_ENVELOPE>
                                <par_bool name="free_mode" value="no"/>
                                <par name="env_points" value="4"/>
                                <par name="env_sustain" value="2"/>
                                <par name="env_stretch" value="64"/>
                                <par_bool name="forced_release" value="yes"/>
                                <par_bool name="linear_envelope" value="no"/>
                                <par name="A_dt" value="0"/>
                                <par name="D_dt" value="80"/>
                                <par name="R_dt" value="87"/>
                                <par name="A_val" value="64"/>
                                <par name="D_val" value="64"/>
                                <par name="S_val" value="0"/>
                                <par name="R_val" value="64"/>
                              </AMPLITUDE_ENVELOPE>
                              <AMPLITUDE_LFO>
                                <par_real name="freq" value="0.629921"/>
                                <par name="intensity" value="0"/>
                                <par name="start_phase" value="64"/>
                                <par name="lfo_type" value="0"/>
                                <par name="randomness_amplitude" value="0"/>
                                <par name="randomness_frequency" value="0"/>
                                <par name="delay" value="0"/>
                                <par name="stretch" value="64"/>
                                <par_bool name="continous" value="no"/>
                              </AMPLITUDE_LFO>
                            </AMPLITUDE_PARAMETERS>
                            <FREQUENCY_PARAMETERS>
                              <par name="detune" value="8192"/>
                              <par name="coarse_detune" value="0"/>
                              <par name="detune_type" value="1"/>
                              <par name="bandwidth" value="64"/>
                              <FREQUENCY_ENVELOPE>
                                <par_bool name="free_mode" value="no"/>
                                <par name="env_points" value="3"/>
                                <par name="env_sustain" value="1"/>
                                <par name="env_stretch" value="0"/>
                                <par_bool name="forced_release" value="no"/>
                                <par_bool name="linear_envelope" value="no"/>
                                <par name="A_dt" value="50"/>
                                <par name="D_dt" value="10"/>
                                <par name="R_dt" value="60"/>
                                <par name="A_val" value="64"/>
                                <par name="D_val" value="64"/>
                                <par name="S_val" value="64"/>
                                <par name="R_val" value="64"/>
                              </FREQUENCY_ENVELOPE>
                              <FREQUENCY_LFO>
                                <par_real name="freq" value="0.551181"/>
                                <par name="intensity" value="0"/>
                                <par name="start_phase" value="64"/>
                                <par name="lfo_type" value="0"/>
                                <par name="randomness_amplitude" value="0"/>
                                <par name="randomness_frequency" value="0"/>
                                <par name="delay" value="0"/>
                                <par name="stretch" value="64"/>
                                <par_bool name="continous" value="no"/>
                              </FREQUENCY_LFO>
                            </FREQUENCY_PARAMETERS>
                            <FILTER_PARAMETERS>
                              <par name="velocity_sensing_amplitude" value="64"/>
                              <par name="velocity_sensing" value="64"/>
                              <FILTER>
                                <par name="category" value="0"/>
                                <par name="type" value="2"/>
                                <par name="freq" value="94"/>
                                <par name="q" value="40"/>
                                <par name="stages" value="0"/>
                                <par name="freq_track" value="64"/>
                                <par name="gain" value="64"/>
                              </FILTER>
                              <FILTER_ENVELOPE>
                                <par_bool name="free_mode" value="no"/>
                                <par name="env_points" value="4"/>
                                <par name="env_sustain" value="2"/>
                                <par name="env_stretch" value="0"/>
                                <par_bool name="forced_release" value="yes"/>
                                <par_bool name="linear_envelope" value="no"/>
                                <par name="A_dt" value="40"/>
                                <par name="D_dt" value="70"/>
                                <par name="R_dt" value="61"/>
                                <par name="A_val" value="64"/>
                                <par name="D_val" value="64"/>
                                <par name="S_val" value="64"/>
                                <par name="R_val" value="64"/>
                              </FILTER_ENVELOPE>
                              <FILTER_LFO>
                                <par_real name="freq" value="0.629921"/>
                                <par name="intensity" value="0"/>
                                <par name="start_phase" value="64"/>
                                <par name="lfo_type" value="0"/>
                                <par name="randomness_amplitude" value="0"/>
                                <par name="randomness_frequency" value="0"/>
                                <par name="delay" value="0"/>
                                <par name="stretch" value="64"/>
                                <par_bool name="continous" value="no"/>
                              </FILTER_LFO>
                            </FILTER_PARAMETERS>
                            <RESONANCE>
                              <par_bool name="enabled" value="no"/>
                            </RESONANCE>
                            <VOICE id="0">
                              <par_bool name="enabled" value="yes"/>
                              <par name="type" value="0"/>
                              <par name="unison_size" value="10"/>
                              <par name="unison_frequency_spread" value="60"/>
                              <par name="unison_stereo_spread" value="64"/>
                              <par name="unison_vibratto" value="64"/>
                              <par name="unison_vibratto_speed" value="64"/>
                              <par name="unison_invert_phase" value="0"/>
                              <par name="unison_phase_randomness" value="127"/>
                              <par name="delay" value="0"/>
                              <par_bool name="resonance" value="yes"/>
                              <par name="ext_oscil" value="-1"/>
                              <par name="ext_fm_oscil" value="-1"/>
                              <par name="oscil_phase" value="64"/>
                              <par name="oscil_fm_phase" value="64"/>
                              <par_bool name="filter_enabled" value="no"/>
                              <par_bool name="filter_bypass" value="no"/>
                              <par name="fm_enabled" value="0"/>
                              <OSCIL>
                                <par name="harmonic_mag_type" value="0"/>
                                <par name="base_function" value="0"/>
                                <par name="base_function_par" value="64"/>
                                <par name="base_function_modulation" value="0"/>
                                <par name="base_function_modulation_par1" value="64"/>
                                <par name="base_function_modulation_par2" value="64"/>
                                <par name="base_function_modulation_par3" value="32"/>
                                <par name="modulation" value="0"/>
                                <par name="modulation_par1" value="64"/>
                                <par name="modulation_par2" value="64"/>
                                <par name="modulation_par3" value="32"/>
                                <par name="wave_shaping" value="64"/>
                                <par name="wave_shaping_function" value="0"/>
                                <par name="filter_type" value="0"/>
                                <par name="filter_par1" value="64"/>
                                <par name="filter_par2" value="64"/>
                                <par name="filter_before_wave_shaping" value="0"/>
                                <par name="spectrum_adjust_type" value="0"/>
                                <par name="spectrum_adjust_par" value="64"/>
                                <par name="rand" value="64"/>
                                <par name="amp_rand_type" value="0"/>
                                <par name="amp_rand_power" value="64"/>
                                <par name="harmonic_shift" value="0"/>
                                <par_bool name="harmonic_shift_first" value="no"/>
                                <par name="adaptive_harmonics" value="0"/>
                                <par name="adaptive_harmonics_base_frequency" value="128"/>
                                <par name="adaptive_harmonics_power" value="100"/>
                                <HARMONICS>
                                  <HARMONIC id="1">
                                    <par name="mag" value="127"/>
                                    <par name="phase" value="64"/>
                                  </HARMONIC>
                                  <HARMONIC id="2">
                                    <par name="mag" value="127"/>
                                    <par name="phase" value="64"/>
                                  </HARMONIC>
                                  <HARMONIC id="3">
                                    <par name="mag" value="127"/>
                                    <par name="phase" value="64"/>
                                  </HARMONIC>
                                  <HARMONIC id="9">
                                    <par name="mag" value="97"/>
                                    <par name="phase" value="64"/>
                                  </HARMONIC>
                                  <HARMONIC id="15">
                                    <par name="mag" value="88"/>
                                    <par name="phase" value="64"/>
                                  </HARMONIC>
                                </HARMONICS>
                              </OSCIL>
                              <AMPLITUDE_PARAMETERS>
                                <par name="panning" value="64"/>
                                <par name="volume" value="100"/>
                                <par_bool name="volume_minus" value="no"/>
                                <par name="velocity_sensing" value="127"/>
                                <par_bool name="amp_envelope_enabled" value="no"/>
                                <par_bool name="amp_lfo_enabled" value="no"/>
                              </AMPLITUDE_PARAMETERS>
                              <FREQUENCY_PARAMETERS>
                                <par_bool name="fixed_freq" value="no"/>
                                <par name="fixed_freq_et" value="0"/>
                                <par name="detune" value="8192"/>
                                <par name="coarse_detune" value="0"/>
                                <par name="detune_type" value="0"/>
                                <par_bool name="freq_envelope_enabled" value="no"/>
                                <par_bool name="freq_lfo_enabled" value="no"/>
                              </FREQUENCY_PARAMETERS>
                            </VOICE>
                            <VOICE id="1">
                              <par_bool name="enabled" value="no"/>
                            </VOICE>
                            <VOICE id="2">
                              <par_bool name="enabled" value="no"/>
                            </VOICE>
                            <VOICE id="3">
                              <par_bool name="enabled" value="no"/>
                            </VOICE>
                            <VOICE id="4">
                              <par_bool name="enabled" value="no"/>
                            </VOICE>
                            <VOICE id="5">
                              <par_bool name="enabled" value="no"/>
                            </VOICE>
                            <VOICE id="6">
                              <par_bool name="enabled" value="no"/>
                            </VOICE>
                            <VOICE id="7">
                              <par_bool name="enabled" value="no"/>
                            </VOICE>
                          </ADD_SYNTH_PARAMETERS>
                          <par_bool name="sub_enabled" value="no"/>
                          <par_bool name="pad_enabled" value="no"/>
                        </INSTRUMENT_KIT_ITEM>
                        <INSTRUMENT_KIT_ITEM id="1">
                          <par_bool name="enabled" value="no"/>
                        </INSTRUMENT_KIT_ITEM>
                        <INSTRUMENT_KIT_ITEM id="2">
                          <par_bool name="enabled" value="no"/>
                        </INSTRUMENT_KIT_ITEM>
                        <INSTRUMENT_KIT_ITEM id="3">
                          <par_bool name="enabled" value="no"/>
                        </INSTRUMENT_KIT_ITEM>
                        <INSTRUMENT_KIT_ITEM id="4">
                          <par_bool name="enabled" value="no"/>
                        </INSTRUMENT_KIT_ITEM>
                        <INSTRUMENT_KIT_ITEM id="5">
                          <par_bool name="enabled" value="no"/>
                        </INSTRUMENT_KIT_ITEM>
                        <INSTRUMENT_KIT_ITEM id="6">
                          <par_bool name="enabled" value="no"/>
                        </INSTRUMENT_KIT_ITEM>
                        <INSTRUMENT_KIT_ITEM id="7">
                          <par_bool name="enabled" value="no"/>
                        </INSTRUMENT_KIT_ITEM>
                        <INSTRUMENT_KIT_ITEM id="8">
                          <par_bool name="enabled" value="no"/>
                        </INSTRUMENT_KIT_ITEM>
                        <INSTRUMENT_KIT_ITEM id="9">
                          <par_bool name="enabled" value="no"/>
                        </INSTRUMENT_KIT_ITEM>
                        <INSTRUMENT_KIT_ITEM id="10">
                          <par_bool name="enabled" value="no"/>
                        </INSTRUMENT_KIT_ITEM>
                        <INSTRUMENT_KIT_ITEM id="11">
                          <par_bool name="enabled" value="no"/>
                        </INSTRUMENT_KIT_ITEM>
                        <INSTRUMENT_KIT_ITEM id="12">
                          <par_bool name="enabled" value="no"/>
                        </INSTRUMENT_KIT_ITEM>
                        <INSTRUMENT_KIT_ITEM id="13">
                          <par_bool name="enabled" value="no"/>
                        </INSTRUMENT_KIT_ITEM>
                        <INSTRUMENT_KIT_ITEM id="14">
                          <par_bool name="enabled" value="no"/>
                        </INSTRUMENT_KIT_ITEM>
                        <INSTRUMENT_KIT_ITEM id="15">
                          <par_bool name="enabled" value="no"/>
                        </INSTRUMENT_KIT_ITEM>
                      </INSTRUMENT_KIT>
                      <INSTRUMENT_EFFECTS>
                        <INSTRUMENT_EFFECT id="0">
                          <EFFECT>
                            <par name="type" value="1"/>
                            <par name="preset" value="0"/>
                            <EFFECT_PARAMETERS>
                              <par_no id="0">
                                <par name="par" value="40"/>
                              </par_no>
                              <par_no id="1">
                                <par name="par" value="64"/>
                              </par_no>
                              <par_no id="2">
                                <par name="par" value="63"/>
                              </par_no>
                              <par_no id="3">
                                <par name="par" value="24"/>
                              </par_no>
                              <par_no id="7">
                                <par name="par" value="85"/>
                              </par_no>
                              <par_no id="8">
                                <par name="par" value="5"/>
                              </par_no>
                              <par_no id="9">
                                <par name="par" value="83"/>
                              </par_no>
                              <par_no id="10">
                                <par name="par" value="1"/>
                              </par_no>
                              <par_no id="11">
                                <par name="par" value="64"/>
                              </par_no>
                              <par_no id="12">
                                <par name="par" value="20"/>
                              </par_no>
                            </EFFECT_PARAMETERS>
                          </EFFECT>
                          <par name="route" value="0"/>
                          <par_bool name="bypass" value="no"/>
                        </INSTRUMENT_EFFECT>
                        <INSTRUMENT_EFFECT id="1">
                          <EFFECT>
                            <par name="type" value="0"/>
                          </EFFECT>
                          <par name="route" value="0"/>
                          <par_bool name="bypass" value="no"/>
                        </INSTRUMENT_EFFECT>
                        <INSTRUMENT_EFFECT id="2">
                          <EFFECT>
                            <par name="type" value="0"/>
                          </EFFECT>
                          <par name="route" value="0"/>
                          <par_bool name="bypass" value="no"/>
                        </INSTRUMENT_EFFECT>
                      </INSTRUMENT_EFFECTS>
                    </INSTRUMENT>
                    <CONTROLLER>
                      <par name="pitchwheel_bendrange" value="100"/>
                      <par_bool name="expression_receive" value="yes"/>
                      <par name="panning_depth" value="64"/>
                      <par name="filter_cutoff_depth" value="64"/>
                      <par name="filter_q_depth" value="64"/>
                      <par name="bandwidth_depth" value="64"/>
                      <par name="mod_wheel_depth" value="80"/>
                      <par_bool name="mod_wheel_exponential" value="no"/>
                      <par_bool name="fm_amp_receive" value="yes"/>
                      <par_bool name="volume_receive" value="yes"/>
                      <par_bool name="sustain_receive" value="yes"/>
                      <par_bool name="portamento_receive" value="yes"/>
                      <par name="portamento_time" value="64"/>
                      <par name="portamento_pitchthresh" value="3"/>
                      <par name="portamento_pitchthreshtype" value="1"/>
                      <par name="portamento_portamento" value="0"/>
                      <par name="portamento_updowntimestretch" value="64"/>
                      <par name="portamento_proportional" value="0"/>
                      <par name="portamento_proprate" value="80"/>
                      <par name="portamento_propdepth" value="90"/>
                      <par name="resonance_center_depth" value="64"/>
                      <par name="resonance_bandwidth_depth" value="64"/>
                    </CONTROLLER>
                  </PART>
                  <PART id="1">
                    <par_bool name="enabled" value="no"/>
                  </PART>
                  <PART id="2">
                    <par_bool name="enabled" value="no"/>
                  </PART>
                  <PART id="3">
                    <par_bool name="enabled" value="no"/>
                  </PART>
                  <PART id="4">
                    <par_bool name="enabled" value="no"/>
                  </PART>
                  <PART id="5">
                    <par_bool name="enabled" value="no"/>
                  </PART>
                  <PART id="6">
                    <par_bool name="enabled" value="no"/>
                  </PART>
                  <PART id="7">
                    <par_bool name="enabled" value="no"/>
                  </PART>
                  <PART id="8">
                    <par_bool name="enabled" value="no"/>
                  </PART>
                  <PART id="9">
                    <par_bool name="enabled" value="no"/>
                  </PART>
                  <PART id="10">
                    <par_bool name="enabled" value="no"/>
                  </PART>
                  <PART id="11">
                    <par_bool name="enabled" value="no"/>
                  </PART>
                  <PART id="12">
                    <par_bool name="enabled" value="no"/>
                  </PART>
                  <PART id="13">
                    <par_bool name="enabled" value="no"/>
                  </PART>
                  <PART id="14">
                    <par_bool name="enabled" value="no"/>
                  </PART>
                  <PART id="15">
                    <par_bool name="enabled" value="no"/>
                  </PART>
                  <SYSTEM_EFFECTS>
                    <SYSTEM_EFFECT id="0">
                      <EFFECT>
                        <par name="type" value="0"/>
                      </EFFECT>
                      <VOLUME id="0">
                        <par name="vol" value="0"/>
                      </VOLUME>
                      <VOLUME id="1">
                        <par name="vol" value="0"/>
                      </VOLUME>
                      <VOLUME id="2">
                        <par name="vol" value="0"/>
                      </VOLUME>
                      <VOLUME id="3">
                        <par name="vol" value="0"/>
                      </VOLUME>
                      <VOLUME id="4">
                        <par name="vol" value="0"/>
                      </VOLUME>
                      <VOLUME id="5">
                        <par name="vol" value="0"/>
                      </VOLUME>
                      <VOLUME id="6">
                        <par name="vol" value="0"/>
                      </VOLUME>
                      <VOLUME id="7">
                        <par name="vol" value="0"/>
                      </VOLUME>
                      <VOLUME id="8">
                        <par name="vol" value="0"/>
                      </VOLUME>
                      <VOLUME id="9">
                        <par name="vol" value="0"/>
                      </VOLUME>
                      <VOLUME id="10">
                        <par name="vol" value="0"/>
                      </VOLUME>
                      <VOLUME id="11">
                        <par name="vol" value="0"/>
                      </VOLUME>
                      <VOLUME id="12">
                        <par name="vol" value="0"/>
                      </VOLUME>
                      <VOLUME id="13">
                        <par name="vol" value="0"/>
                      </VOLUME>
                      <VOLUME id="14">
                        <par name="vol" value="0"/>
                      </VOLUME>
                      <VOLUME id="15">
                        <par name="vol" value="0"/>
                      </VOLUME>
                      <SENDTO id="1">
                        <par name="send_vol" value="0"/>
                      </SENDTO>
                      <SENDTO id="2">
                        <par name="send_vol" value="0"/>
                      </SENDTO>
                      <SENDTO id="3">
                        <par name="send_vol" value="0"/>
                      </SENDTO>
                    </SYSTEM_EFFECT>
                    <SYSTEM_EFFECT id="1">
                      <EFFECT>
                        <par name="type" value="0"/>
                      </EFFECT>
                      <VOLUME id="0">
                        <par name="vol" value="0"/>
                      </VOLUME>
                      <VOLUME id="1">
                        <par name="vol" value="0"/>
                      </VOLUME>
                      <VOLUME id="2">
                        <par name="vol" value="0"/>
                      </VOLUME>
                      <VOLUME id="3">
                        <par name="vol" value="0"/>
                      </VOLUME>
                      <VOLUME id="4">
                        <par name="vol" value="0"/>
                      </VOLUME>
                      <VOLUME id="5">
                        <par name="vol" value="0"/>
                      </VOLUME>
                      <VOLUME id="6">
                        <par name="vol" value="0"/>
                      </VOLUME>
                      <VOLUME id="7">
                        <par name="vol" value="0"/>
                      </VOLUME>
                      <VOLUME id="8">
                        <par name="vol" value="0"/>
                      </VOLUME>
                      <VOLUME id="9">
                        <par name="vol" value="0"/>
                      </VOLUME>
                      <VOLUME id="10">
                        <par name="vol" value="0"/>
                      </VOLUME>
                      <VOLUME id="11">
                        <par name="vol" value="0"/>
                      </VOLUME>
                      <VOLUME id="12">
                        <par name="vol" value="0"/>
                      </VOLUME>
                      <VOLUME id="13">
                        <par name="vol" value="0"/>
                      </VOLUME>
                      <VOLUME id="14">
                        <par name="vol" value="0"/>
                      </VOLUME>
                      <VOLUME id="15">
                        <par name="vol" value="0"/>
                      </VOLUME>
                      <SENDTO id="2">
                        <par name="send_vol" value="0"/>
                      </SENDTO>
                      <SENDTO id="3">
                        <par name="send_vol" value="0"/>
                      </SENDTO>
                    </SYSTEM_EFFECT>
                    <SYSTEM_EFFECT id="2">
                      <EFFECT>
                        <par name="type" value="0"/>
                      </EFFECT>
                      <VOLUME id="0">
                        <par name="vol" value="0"/>
                      </VOLUME>
                      <VOLUME id="1">
                        <par name="vol" value="0"/>
                      </VOLUME>
                      <VOLUME id="2">
                        <par name="vol" value="0"/>
                      </VOLUME>
                      <VOLUME id="3">
                        <par name="vol" value="0"/>
                      </VOLUME>
                      <VOLUME id="4">
                        <par name="vol" value="0"/>
                      </VOLUME>
                      <VOLUME id="5">
                        <par name="vol" value="0"/>
                      </VOLUME>
                      <VOLUME id="6">
                        <par name="vol" value="0"/>
                      </VOLUME>
                      <VOLUME id="7">
                        <par name="vol" value="0"/>
                      </VOLUME>
                      <VOLUME id="8">
                        <par name="vol" value="0"/>
                      </VOLUME>
                      <VOLUME id="9">
                        <par name="vol" value="0"/>
                      </VOLUME>
                      <VOLUME id="10">
                        <par name="vol" value="0"/>
                      </VOLUME>
                      <VOLUME id="11">
                        <par name="vol" value="0"/>
                      </VOLUME>
                      <VOLUME id="12">
                        <par name="vol" value="0"/>
                      </VOLUME>
                      <VOLUME id="13">
                        <par name="vol" value="0"/>
                      </VOLUME>
                      <VOLUME id="14">
                        <par name="vol" value="0"/>
                      </VOLUME>
                      <VOLUME id="15">
                        <par name="vol" value="0"/>
                      </VOLUME>
                      <SENDTO id="3">
                        <par name="send_vol" value="0"/>
                      </SENDTO>
                    </SYSTEM_EFFECT>
                    <SYSTEM_EFFECT id="3">
                      <EFFECT>
                        <par name="type" value="0"/>
                      </EFFECT>
                      <VOLUME id="0">
                        <par name="vol" value="0"/>
                      </VOLUME>
                      <VOLUME id="1">
                        <par name="vol" value="0"/>
                      </VOLUME>
                      <VOLUME id="2">
                        <par name="vol" value="0"/>
                      </VOLUME>
                      <VOLUME id="3">
                        <par name="vol" value="0"/>
                      </VOLUME>
                      <VOLUME id="4">
                        <par name="vol" value="0"/>
                      </VOLUME>
                      <VOLUME id="5">
                        <par name="vol" value="0"/>
                      </VOLUME>
                      <VOLUME id="6">
                        <par name="vol" value="0"/>
                      </VOLUME>
                      <VOLUME id="7">
                        <par name="vol" value="0"/>
                      </VOLUME>
                      <VOLUME id="8">
                        <par name="vol" value="0"/>
                      </VOLUME>
                      <VOLUME id="9">
                        <par name="vol" value="0"/>
                      </VOLUME>
                      <VOLUME id="10">
                        <par name="vol" value="0"/>
                      </VOLUME>
                      <VOLUME id="11">
                        <par name="vol" value="0"/>
                      </VOLUME>
                      <VOLUME id="12">
                        <par name="vol" value="0"/>
                      </VOLUME>
                      <VOLUME id="13">
                        <par name="vol" value="0"/>
                      </VOLUME>
                      <VOLUME id="14">
                        <par name="vol" value="0"/>
                      </VOLUME>
                      <VOLUME id="15">
                        <par name="vol" value="0"/>
                      </VOLUME>
                    </SYSTEM_EFFECT>
                  </SYSTEM_EFFECTS>
                  <INSERTION_EFFECTS>
                    <INSERTION_EFFECT id="0">
                      <par name="part" value="-1"/>
                      <EFFECT>
                        <par name="type" value="0"/>
                      </EFFECT>
                    </INSERTION_EFFECT>
                    <INSERTION_EFFECT id="1">
                      <par name="part" value="-1"/>
                      <EFFECT>
                        <par name="type" value="0"/>
                      </EFFECT>
                    </INSERTION_EFFECT>
                    <INSERTION_EFFECT id="2">
                      <par name="part" value="-1"/>
                      <EFFECT>
                        <par name="type" value="0"/>
                      </EFFECT>
                    </INSERTION_EFFECT>
                    <INSERTION_EFFECT id="3">
                      <par name="part" value="-1"/>
                      <EFFECT>
                        <par name="type" value="0"/>
                      </EFFECT>
                    </INSERTION_EFFECT>
                    <INSERTION_EFFECT id="4">
                      <par name="part" value="-1"/>
                      <EFFECT>
                        <par name="type" value="0"/>
                      </EFFECT>
                    </INSERTION_EFFECT>
                    <INSERTION_EFFECT id="5">
                      <par name="part" value="-1"/>
                      <EFFECT>
                        <par name="type" value="0"/>
                      </EFFECT>
                    </INSERTION_EFFECT>
                    <INSERTION_EFFECT id="6">
                      <par name="part" value="-1"/>
                      <EFFECT>
                        <par name="type" value="0"/>
                      </EFFECT>
                    </INSERTION_EFFECT>
                    <INSERTION_EFFECT id="7">
                      <par name="part" value="-1"/>
                      <EFFECT>
                        <par name="type" value="0"/>
                      </EFFECT>
                    </INSERTION_EFFECT>
                  </INSERTION_EFFECTS>
                </MASTER>
              </ZynAddSubFX-data>
            </zynaddsubfx>
          </instrument>
          <eldata ftype="0" fres="0.5" fwet="0" fcut="14000">
            <elvol dec="0.5" sustain="0.5" pdel="0" lpdel="0" rel="0.1" lspd="0.1" userwavefile="" hold="0.5" lamt="0" lspd_numerator="4" lspd_syncmode="0" lshp="0" amt="0" x100="0" latt="0" lspd_denominator="4" ctlenvamt="0" att="0"/>
            <elcut dec="0.5" sustain="0.5" pdel="0" lpdel="0" rel="0.1" lspd="0.1" userwavefile="" hold="0.5" lamt="0" lspd_numerator="4" lspd_syncmode="0" lshp="0" amt="0" x100="0" latt="0" lspd_denominator="4" ctlenvamt="0" att="0"/>
            <elres dec="0.5" sustain="0.5" pdel="0" lpdel="0" rel="0.1" lspd="0.1" userwavefile="" hold="0.5" lamt="0" lspd_numerator="4" lspd_syncmode="0" lshp="0" amt="0" x100="0" latt="0" lspd_denominator="4" ctlenvamt="0" att="0"/>
          </eldata>
          <chordcreator chord="0" chord-enabled="0" chordrange="1"/>
          <arpeggiator arprange="1" arptime_denominator="4" arpgate="100" arptime_syncmode="0" arp="0" arpmode="0" arpmiss="0" arpdir="0" arptime_numerator="4" arp-enabled="0" arpcycle="0" arpskip="0" arptime="200"/>
          <midiport outputchannel="1" inputcontroller="0" outputcontroller="0" basevelocity="63" fixedinputvelocity="-1" fixedoutputvelocity="-1" outputprogram="1" readable="0" writable="0" fixedoutputnote="-1" inputchannel="0"/>
          <fxchain numofeffects="0" enabled="0"/>
        </instrumenttrack>
        <pattern name="Plucked 6" muted="0" type="0" steps="16" pos="3456"/>
        <pattern name="Plucked 6" muted="0" type="1" steps="16" pos="13056">
          <note key="68" vol="78" pan="0" len="24" pos="0"/>
          <note key="71" vol="78" pan="0" len="24" pos="24"/>
          <note key="68" vol="78" pan="0" len="24" pos="48"/>
          <note key="75" vol="78" pan="0" len="48" pos="72"/>
          <note key="68" vol="78" pan="0" len="24" pos="120"/>
          <note key="71" vol="78" pan="0" len="24" pos="144"/>
          <note key="75" vol="78" pan="0" len="24" pos="168"/>
          <note key="76" vol="78" pan="0" len="24" pos="192"/>
          <note key="75" vol="78" pan="0" len="24" pos="216"/>
          <note key="73" vol="78" pan="0" len="24" pos="240"/>
          <note key="71" vol="78" pan="0" len="24" pos="264"/>
          <note key="75" vol="78" pan="0" len="24" pos="288"/>
          <note key="73" vol="78" pan="0" len="24" pos="312"/>
          <note key="71" vol="78" pan="0" len="24" pos="336"/>
          <note key="68" vol="78" pan="0" len="24" pos="360"/>
        </pattern>
        <pattern name="Plucked 6" muted="0" type="1" steps="16" pos="13440">
          <note key="61" vol="78" pan="0" len="24" pos="0"/>
          <note key="63" vol="78" pan="0" len="24" pos="24"/>
          <note key="61" vol="78" pan="0" len="24" pos="48"/>
          <note key="68" vol="78" pan="0" len="48" pos="72"/>
          <note key="61" vol="78" pan="0" len="24" pos="120"/>
          <note key="64" vol="78" pan="0" len="24" pos="144"/>
          <note key="68" vol="78" pan="0" len="24" pos="168"/>
          <note key="71" vol="78" pan="0" len="24" pos="192"/>
          <note key="73" vol="78" pan="0" len="24" pos="216"/>
          <note key="75" vol="78" pan="0" len="24" pos="240"/>
          <note key="73" vol="78" pan="0" len="48" pos="264"/>
          <note key="75" vol="78" pan="0" len="24" pos="312"/>
          <note key="76" vol="78" pan="0" len="24" pos="336"/>
          <note key="78" vol="78" pan="0" len="24" pos="360"/>
        </pattern>
        <pattern name="" muted="0" type="1" steps="16" pos="42624">
          <note key="61" vol="136" pan="0" len="144" pos="0"/>
          <note key="49" vol="136" pan="0" len="48" pos="0"/>
          <note key="52" vol="136" pan="0" len="48" pos="48"/>
          <note key="56" vol="136" pan="0" len="48" pos="96"/>
          <note key="64" vol="136" pan="0" len="48" pos="144"/>
          <note key="61" vol="136" pan="0" len="48" pos="144"/>
          <note key="63" vol="136" pan="0" len="144" pos="192"/>
          <note key="59" vol="136" pan="0" len="48" pos="192"/>
          <note key="54" vol="136" pan="0" len="48" pos="240"/>
          <note key="59" vol="136" pan="0" len="48" pos="288"/>
          <note key="68" vol="136" pan="0" len="48" pos="336"/>
          <note key="63" vol="136" pan="0" len="48" pos="336"/>
          <note key="68" vol="136" pan="0" len="144" pos="384"/>
          <note key="64" vol="136" pan="0" len="48" pos="384"/>
          <note key="57" vol="136" pan="0" len="48" pos="432"/>
          <note key="61" vol="136" pan="0" len="48" pos="480"/>
          <note key="66" vol="136" pan="0" len="24" pos="528"/>
          <note key="52" vol="136" pan="0" len="48" pos="528"/>
          <note key="64" vol="136" pan="0" len="24" pos="552"/>
          <note key="63" vol="136" pan="0" len="48" pos="576"/>
          <note key="54" vol="136" pan="0" len="48" pos="576"/>
          <note key="64" vol="136" pan="0" len="48" pos="624"/>
          <note key="51" vol="136" pan="0" len="48" pos="624"/>
          <note key="59" vol="136" pan="0" len="48" pos="672"/>
          <note key="54" vol="136" pan="0" len="48" pos="672"/>
          <note key="56" vol="136" pan="0" len="48" pos="720"/>
          <note key="47" vol="136" pan="0" len="48" pos="720"/>
          <note key="57" vol="136" pan="0" len="96" pos="768"/>
          <note key="49" vol="136" pan="0" len="48" pos="768"/>
          <note key="54" vol="136" pan="0" len="48" pos="816"/>
          <note key="61" vol="136" pan="0" len="48" pos="864"/>
          <note key="57" vol="136" pan="0" len="48" pos="864"/>
          <note key="64" vol="136" pan="0" len="48" pos="912"/>
          <note key="54" vol="136" pan="0" len="48" pos="912"/>
          <note key="64" vol="136" pan="0" len="96" pos="960"/>
          <note key="56" vol="136" pan="0" len="48" pos="960"/>
          <note key="59" vol="136" pan="0" len="48" pos="1008"/>
          <note key="63" vol="136" pan="0" len="48" pos="1056"/>
          <note key="56" vol="136" pan="0" len="48" pos="1056"/>
          <note key="64" vol="136" pan="0" len="48" pos="1104"/>
          <note key="51" vol="136" pan="0" len="48" pos="1104"/>
          <note key="71" vol="136" pan="0" len="72" pos="1152"/>
          <note key="57" vol="136" pan="0" len="48" pos="1152"/>
        </pattern>
      </track>
      <track name="reverb clap.wav" muted="0" type="0" solo="0">
        <instrumenttrack vol="149.7" pitch="0" pitchrange="1" basenote="57" pan="0" fxch="0" usemasterpitch="1">
          <instrument name="audiofileprocessor">
            <audiofileprocessor eframe="1" reversed="1" src="reverb clap.wav" amp="100" looped="0" stutter="0" interp="1" sframe="6.8712e-6" lframe="1.37424e-5"/>
          </instrument>
          <eldata ftype="0" fres="0.5" fwet="1" fcut="8904">
            <elvol dec="0.5" sustain="0.5" pdel="0" lpdel="0" rel="0.1" lspd="0.1" userwavefile="" hold="0.5" lamt="0" lspd_numerator="4" lspd_syncmode="0" lshp="0" amt="0" x100="0" latt="0" lspd_denominator="4" ctlenvamt="0" att="0"/>
            <elcut dec="0.5" sustain="0.5" pdel="0" lpdel="0" rel="0.1" lspd="0.1" userwavefile="" hold="0.5" lamt="0" lspd_numerator="4" lspd_syncmode="0" lshp="0" amt="0" x100="0" latt="0" lspd_denominator="4" ctlenvamt="0" att="0"/>
            <elres dec="0.5" sustain="0.5" pdel="0" lpdel="0" rel="0.1" lspd="0.1" userwavefile="" hold="0.5" lamt="0" lspd_numerator="4" lspd_syncmode="0" lshp="0" amt="0" x100="0" latt="0" lspd_denominator="4" ctlenvamt="0" att="0"/>
          </eldata>
          <chordcreator chord="0" chord-enabled="0" chordrange="1"/>
          <arpeggiator arprange="1" arptime_denominator="4" arpgate="100" arptime_syncmode="0" arp="0" arpmode="0" arpmiss="0" arpdir="0" arptime_numerator="4" arp-enabled="0" arpcycle="0" arpskip="0" arptime="200"/>
          <midiport outputchannel="1" inputcontroller="0" outputcontroller="0" basevelocity="63" fixedinputvelocity="-1" fixedoutputvelocity="-1" outputprogram="1" readable="0" writable="0" fixedoutputnote="-1" inputchannel="0"/>
          <fxchain numofeffects="0" enabled="0"/>
        </instrumenttrack>
        <pattern name="reverb clap.wav" muted="0" type="1" steps="16" pos="28224">
          <note key="57" vol="100" pan="0" len="528" pos="48"/>
        </pattern>
        <pattern name="reverb clap.wav" muted="0" type="0" steps="16" pos="46464"/>
      </track>
      <track name="bass fender jazz (1,379kb)" muted="0" type="0" solo="0">
        <instrumenttrack vol="30.6" pitch="0" pitchrange="2" basenote="57" pan="0" fxch="0" usemasterpitch="1">
          <instrument name="sf2player">
            <sf2player chorusOn="0" reverbRoomSize="0.2" chorusLevel="2" src="/home/huggypie/samples/soundfonts/bass fender jazz (1,379kb).sf2" gain="3.16" reverbDamping="0" chorusSpeed="0.3" reverbWidth="0.5" reverbLevel="0.9" bank="0" reverbOn="0" patch="0" chorusDepth="8" chorusNum="3"/>
          </instrument>
          <eldata ftype="0" fres="0.5" fwet="0" fcut="14000">
            <elvol dec="0.5" sustain="0.5" pdel="0" lpdel="0" rel="0.1" lspd="0.1" userwavefile="" hold="0.5" lamt="0" lspd_numerator="4" lspd_syncmode="0" lshp="0" amt="0" x100="0" latt="0" lspd_denominator="4" ctlenvamt="0" att="0"/>
            <elcut dec="0.5" sustain="0.5" pdel="0" lpdel="0" rel="0.1" lspd="0.1" userwavefile="" hold="0.5" lamt="0" lspd_numerator="4" lspd_syncmode="0" lshp="0" amt="0" x100="0" latt="0" lspd_denominator="4" ctlenvamt="0" att="0"/>
            <elres dec="0.5" sustain="0.5" pdel="0" lpdel="0" rel="0.1" lspd="0.1" userwavefile="" hold="0.5" lamt="0" lspd_numerator="4" lspd_syncmode="0" lshp="0" amt="0" x100="0" latt="0" lspd_denominator="4" ctlenvamt="0" att="0"/>
          </eldata>
          <chordcreator chord="0" chord-enabled="0" chordrange="1"/>
          <arpeggiator arprange="1" arptime_denominator="4" arpgate="100" arptime_syncmode="0" arp="0" arpmode="0" arpmiss="0" arpdir="0" arptime_numerator="4" arp-enabled="0" arpcycle="0" arpskip="0" arptime="200"/>
          <midiport outputchannel="1" inputcontroller="0" outputcontroller="0" basevelocity="63" fixedinputvelocity="-1" fixedoutputvelocity="-1" outputprogram="1" readable="0" writable="0" fixedoutputnote="-1" inputchannel="0"/>
          <fxchain numofeffects="0" enabled="0"/>
        </instrumenttrack>
        <pattern name="bass fender jazz (1,379kb)" muted="0" type="1" steps="16" pos="22656">
          <note key="25" vol="195" pan="0" len="768" pos="0"/>
          <note key="26" vol="195" pan="0" len="384" pos="768"/>
          <note key="25" vol="195" pan="0" len="288" pos="1152"/>
          <note key="31" vol="195" pan="0" len="12" pos="1440"/>
          <note key="32" vol="195" pan="0" len="84" pos="1448"/>
          <note key="30" vol="195" pan="0" len="120" pos="1536"/>
          <note key="30" vol="195" pan="0" len="24" pos="1656"/>
          <note key="25" vol="195" pan="0" len="24" pos="1680"/>
          <note key="30" vol="195" pan="0" len="24" pos="1704"/>
          <note key="32" vol="195" pan="0" len="48" pos="1728"/>
          <note key="30" vol="195" pan="0" len="24" pos="1776"/>
          <note key="25" vol="195" pan="0" len="72" pos="1800"/>
          <note key="20" vol="195" pan="0" len="48" pos="1872"/>
          <note key="16" vol="195" pan="0" len="336" pos="1920"/>
          <note key="18" vol="195" pan="0" len="24" pos="2256"/>
          <note key="20" vol="195" pan="0" len="24" pos="2280"/>
          <note key="21" vol="195" pan="0" len="192" pos="2304"/>
          <note key="23" vol="195" pan="0" len="192" pos="2496"/>
          <note key="13" vol="195" pan="0" len="192" pos="2688"/>
          <note key="15" vol="195" pan="0" len="12" pos="2880"/>
          <note key="16" vol="195" pan="0" len="60" pos="2888"/>
          <note key="15" vol="195" pan="0" len="72" pos="2952"/>
          <note key="13" vol="195" pan="0" len="48" pos="3024"/>
          <note key="11" vol="195" pan="0" len="240" pos="3072"/>
          <note key="18" vol="195" pan="0" len="48" pos="3312"/>
          <note key="23" vol="195" pan="0" len="48" pos="3360"/>
          <note key="25" vol="195" pan="0" len="48" pos="3408"/>
          <note key="18" vol="195" pan="0" len="288" pos="3456"/>
          <note key="19" vol="195" pan="0" len="12" pos="3744"/>
          <note key="20" vol="195" pan="0" len="84" pos="3752"/>
          <note key="23" vol="195" pan="0" len="120" pos="3840"/>
          <note key="18" vol="195" pan="0" len="24" pos="3960"/>
          <note key="21" vol="195" pan="0" len="24" pos="3984"/>
          <note key="27" vol="195" pan="0" len="24" pos="4008"/>
          <note key="27" vol="195" pan="0" len="12" pos="4032"/>
          <note key="28" vol="195" pan="0" len="36" pos="4040"/>
          <note key="27" vol="195" pan="0" len="24" pos="4080"/>
          <note key="25" vol="195" pan="0" len="72" pos="4104"/>
          <note key="25" vol="195" pan="0" len="24" pos="4176"/>
          <note key="23" vol="195" pan="0" len="24" pos="4200"/>
          <note key="25" vol="195" pan="0" len="96" pos="4224"/>
          <note key="23" vol="195" pan="0" len="96" pos="4320"/>
          <note key="22" vol="195" pan="0" len="144" pos="4416"/>
          <note key="20" vol="195" pan="0" len="48" pos="4560"/>
          <note key="18" vol="195" pan="0" len="144" pos="4608"/>
          <note key="25" vol="195" pan="0" len="48" pos="4752"/>
          <note key="18" vol="195" pan="0" len="192" pos="4800"/>
          <note key="20" vol="195" pan="0" len="384" pos="4992"/>
          <note key="21" vol="195" pan="0" len="384" pos="5376"/>
          <note key="23" vol="195" pan="0" len="384" pos="5760"/>
        </pattern>
        <pattern name="bass fender jazz (1,379kb)" muted="0" type="1" steps="16" pos="384">
          <note key="13" vol="191" pan="0" len="384" pos="0"/>
          <note key="20" vol="193" pan="0" len="384" pos="384"/>
          <note key="15" vol="193" pan="0" len="384" pos="768"/>
          <note key="14" vol="193" pan="0" len="336" pos="1152"/>
          <note key="14" vol="193" pan="0" len="12" pos="1488"/>
          <note key="14" vol="193" pan="0" len="12" pos="1500"/>
          <note key="14" vol="193" pan="0" len="12" pos="1512"/>
          <note key="14" vol="193" pan="0" len="12" pos="1524"/>
        </pattern>
        <pattern name="bass fender jazz (1,379kb)" muted="0" type="1" steps="16" pos="1920">
          <note key="13" vol="195" pan="0" len="36" pos="0"/>
          <note key="1" vol="78" pan="0" len="24" pos="0"/>
          <note key="13" vol="195" pan="0" len="36" pos="72"/>
          <note key="13" vol="195" pan="0" len="36" pos="144"/>
          <note key="13" vol="195" pan="0" len="36" pos="216"/>
          <note key="13" vol="195" pan="0" len="24" pos="288"/>
          <note key="0" vol="78" pan="0" len="24" pos="300"/>
          <note key="13" vol="195" pan="0" len="48" pos="312"/>
          <note key="1" vol="78" pan="0" len="24" pos="336"/>
          <note key="13" vol="195" pan="0" len="24" pos="360"/>
          <note key="20" vol="195" pan="0" len="36" pos="384"/>
          <note key="20" vol="195" pan="0" len="36" pos="456"/>
          <note key="20" vol="195" pan="0" len="36" pos="528"/>
          <note key="20" vol="195" pan="0" len="36" pos="600"/>
          <note key="20" vol="195" pan="0" len="24" pos="672"/>
          <note key="0" vol="78" pan="0" len="24" pos="684"/>
          <note key="20" vol="195" pan="0" len="48" pos="696"/>
          <note key="1" vol="78" pan="0" len="24" pos="720"/>
          <note key="20" vol="195" pan="0" len="24" pos="744"/>
          <note key="15" vol="195" pan="0" len="36" pos="768"/>
          <note key="15" vol="195" pan="0" len="36" pos="840"/>
          <note key="15" vol="195" pan="0" len="36" pos="912"/>
          <note key="15" vol="195" pan="0" len="36" pos="984"/>
          <note key="15" vol="195" pan="0" len="24" pos="1056"/>
          <note key="0" vol="78" pan="0" len="24" pos="1068"/>
          <note key="15" vol="195" pan="0" len="48" pos="1080"/>
          <note key="1" vol="78" pan="0" len="24" pos="1116"/>
          <note key="15" vol="195" pan="0" len="24" pos="1128"/>
          <note key="14" vol="195" pan="0" len="36" pos="1152"/>
          <note key="14" vol="195" pan="0" len="36" pos="1224"/>
          <note key="14" vol="195" pan="0" len="36" pos="1296"/>
        </pattern>
        <pattern name="bass fender jazz (1,379kb)" muted="0" type="1" steps="16" pos="3456">
          <note key="13" vol="197" pan="0" len="192" pos="0"/>
          <note key="0" vol="78" pan="0" len="48" pos="0"/>
          <note key="20" vol="197" pan="0" len="192" pos="192"/>
          <note key="21" vol="197" pan="0" len="192" pos="384"/>
          <note key="23" vol="197" pan="0" len="192" pos="576"/>
          <note key="1" vol="197" pan="0" len="12" pos="756"/>
          <note key="18" vol="197" pan="0" len="12" pos="768"/>
          <note key="18" vol="197" pan="0" len="12" pos="780"/>
          <note key="18" vol="197" pan="0" len="12" pos="792"/>
          <note key="18" vol="197" pan="0" len="12" pos="804"/>
          <note key="18" vol="197" pan="0" len="12" pos="816"/>
          <note key="18" vol="197" pan="0" len="12" pos="828"/>
          <note key="18" vol="197" pan="0" len="12" pos="840"/>
          <note key="18" vol="197" pan="0" len="12" pos="852"/>
          <note key="18" vol="197" pan="0" len="12" pos="864"/>
          <note key="18" vol="197" pan="0" len="12" pos="876"/>
          <note key="18" vol="197" pan="0" len="12" pos="888"/>
          <note key="18" vol="197" pan="0" len="12" pos="900"/>
          <note key="18" vol="197" pan="0" len="12" pos="912"/>
          <note key="18" vol="197" pan="0" len="12" pos="924"/>
          <note key="18" vol="197" pan="0" len="12" pos="936"/>
          <note key="18" vol="197" pan="0" len="12" pos="948"/>
          <note key="20" vol="197" pan="0" len="12" pos="960"/>
          <note key="20" vol="197" pan="0" len="12" pos="972"/>
          <note key="20" vol="197" pan="0" len="12" pos="984"/>
          <note key="20" vol="197" pan="0" len="12" pos="996"/>
          <note key="20" vol="197" pan="0" len="12" pos="1008"/>
          <note key="20" vol="197" pan="0" len="12" pos="1020"/>
          <note key="20" vol="197" pan="0" len="12" pos="1032"/>
          <note key="20" vol="197" pan="0" len="12" pos="1044"/>
          <note key="20" vol="197" pan="0" len="12" pos="1056"/>
          <note key="20" vol="197" pan="0" len="12" pos="1068"/>
          <note key="20" vol="197" pan="0" len="12" pos="1080"/>
          <note key="20" vol="197" pan="0" len="12" pos="1092"/>
          <note key="20" vol="197" pan="0" len="12" pos="1104"/>
          <note key="20" vol="197" pan="0" len="12" pos="1116"/>
          <note key="20" vol="197" pan="0" len="12" pos="1128"/>
          <note key="20" vol="197" pan="0" len="12" pos="1140"/>
          <note key="21" vol="197" pan="0" len="12" pos="1152"/>
          <note key="21" vol="197" pan="0" len="12" pos="1164"/>
          <note key="21" vol="197" pan="0" len="12" pos="1176"/>
          <note key="21" vol="197" pan="0" len="12" pos="1188"/>
          <note key="21" vol="197" pan="0" len="12" pos="1200"/>
          <note key="21" vol="197" pan="0" len="12" pos="1212"/>
          <note key="21" vol="197" pan="0" len="12" pos="1224"/>
          <note key="21" vol="197" pan="0" len="12" pos="1236"/>
          <note key="21" vol="197" pan="0" len="12" pos="1248"/>
          <note key="21" vol="197" pan="0" len="12" pos="1260"/>
          <note key="21" vol="197" pan="0" len="12" pos="1272"/>
          <note key="21" vol="197" pan="0" len="12" pos="1284"/>
          <note key="21" vol="197" pan="0" len="12" pos="1296"/>
          <note key="21" vol="197" pan="0" len="12" pos="1308"/>
          <note key="21" vol="197" pan="0" len="12" pos="1320"/>
          <note key="21" vol="197" pan="0" len="12" pos="1332"/>
          <note key="23" vol="197" pan="0" len="48" pos="1344"/>
          <note key="0" vol="197" pan="0" len="12" pos="1344"/>
          <note key="23" vol="197" pan="0" len="48" pos="1392"/>
          <note key="20" vol="197" pan="0" len="48" pos="1440"/>
          <note key="23" vol="197" pan="0" len="48" pos="1488"/>
        </pattern>
        <pattern name="bass fender jazz (1,379kb)" muted="0" type="1" steps="16" pos="4992">
          <note key="25" vol="197" pan="0" len="24" pos="0"/>
          <note key="23" vol="197" pan="0" len="24" pos="24"/>
          <note key="25" vol="197" pan="0" len="24" pos="48"/>
          <note key="32" vol="197" pan="0" len="24" pos="72"/>
          <note key="25" vol="197" pan="0" len="12" pos="96"/>
          <note key="25" vol="197" pan="0" len="12" pos="108"/>
          <note key="25" vol="197" pan="0" len="12" pos="120"/>
          <note key="25" vol="197" pan="0" len="12" pos="132"/>
          <note key="25" vol="197" pan="0" len="12" pos="144"/>
          <note key="25" vol="197" pan="0" len="12" pos="156"/>
          <note key="25" vol="197" pan="0" len="12" pos="168"/>
          <note key="25" vol="197" pan="0" len="12" pos="180"/>
        </pattern>
        <pattern name="bass fender jazz (1,379kb)" muted="0" type="1" steps="16" pos="5184">
          <note key="18" vol="197" pan="0" len="24" pos="0"/>
          <note key="16" vol="197" pan="0" len="24" pos="24"/>
          <note key="18" vol="197" pan="0" len="24" pos="48"/>
          <note key="25" vol="197" pan="0" len="24" pos="72"/>
          <note key="18" vol="197" pan="0" len="12" pos="96"/>
          <note key="18" vol="197" pan="0" len="12" pos="108"/>
          <note key="18" vol="197" pan="0" len="12" pos="120"/>
          <note key="18" vol="197" pan="0" len="12" pos="132"/>
          <note key="18" vol="197" pan="0" len="12" pos="144"/>
          <note key="18" vol="197" pan="0" len="12" pos="156"/>
          <note key="18" vol="197" pan="0" len="12" pos="168"/>
          <note key="18" vol="197" pan="0" len="12" pos="180"/>
        </pattern>
        <pattern name="bass fender jazz (1,379kb)" muted="0" type="1" steps="16" pos="5376">
          <note key="20" vol="195" pan="0" len="24" pos="0"/>
          <note key="23" vol="195" pan="0" len="24" pos="24"/>
          <note key="20" vol="195" pan="0" len="24" pos="48"/>
          <note key="27" vol="195" pan="0" len="48" pos="72"/>
          <note key="20" vol="195" pan="0" len="24" pos="120"/>
          <note key="23" vol="195" pan="0" len="24" pos="144"/>
          <note key="27" vol="195" pan="0" len="24" pos="168"/>
          <note key="21" vol="195" pan="0" len="12" pos="192"/>
          <note key="21" vol="195" pan="0" len="12" pos="204"/>
          <note key="21" vol="195" pan="0" len="12" pos="216"/>
          <note key="21" vol="195" pan="0" len="12" pos="228"/>
          <note key="21" vol="195" pan="0" len="12" pos="240"/>
          <note key="21" vol="195" pan="0" len="12" pos="252"/>
          <note key="25" vol="195" pan="0" len="12" pos="264"/>
          <note key="25" vol="195" pan="0" len="12" pos="276"/>
          <note key="23" vol="195" pan="0" len="12" pos="288"/>
          <note key="23" vol="195" pan="0" len="12" pos="300"/>
          <note key="23" vol="195" pan="0" len="12" pos="312"/>
          <note key="23" vol="195" pan="0" len="12" pos="324"/>
          <note key="27" vol="195" pan="0" len="12" pos="336"/>
          <note key="27" vol="195" pan="0" len="12" pos="348"/>
          <note key="23" vol="195" pan="0" len="12" pos="360"/>
          <note key="23" vol="195" pan="0" len="12" pos="372"/>
        </pattern>
        <pattern name="bass fender jazz (1,379kb)" muted="0" type="1" steps="16" pos="5760">
          <note key="25" vol="197" pan="0" len="24" pos="0"/>
          <note key="23" vol="197" pan="0" len="24" pos="24"/>
          <note key="25" vol="197" pan="0" len="24" pos="48"/>
          <note key="32" vol="197" pan="0" len="24" pos="72"/>
          <note key="25" vol="197" pan="0" len="12" pos="96"/>
          <note key="25" vol="197" pan="0" len="12" pos="108"/>
          <note key="25" vol="197" pan="0" len="12" pos="120"/>
          <note key="25" vol="197" pan="0" len="12" pos="132"/>
          <note key="25" vol="197" pan="0" len="12" pos="144"/>
          <note key="25" vol="197" pan="0" len="12" pos="156"/>
          <note key="25" vol="197" pan="0" len="12" pos="168"/>
          <note key="25" vol="197" pan="0" len="12" pos="180"/>
        </pattern>
        <pattern name="bass fender jazz (1,379kb)" muted="0" type="1" steps="16" pos="5952">
          <note key="18" vol="197" pan="0" len="24" pos="0"/>
          <note key="16" vol="197" pan="0" len="24" pos="24"/>
          <note key="18" vol="197" pan="0" len="24" pos="48"/>
          <note key="25" vol="197" pan="0" len="24" pos="72"/>
          <note key="18" vol="197" pan="0" len="12" pos="96"/>
          <note key="18" vol="197" pan="0" len="12" pos="108"/>
          <note key="18" vol="197" pan="0" len="12" pos="120"/>
          <note key="18" vol="197" pan="0" len="12" pos="132"/>
          <note key="18" vol="197" pan="0" len="12" pos="144"/>
          <note key="18" vol="197" pan="0" len="12" pos="156"/>
          <note key="18" vol="197" pan="0" len="12" pos="168"/>
          <note key="18" vol="197" pan="0" len="12" pos="180"/>
        </pattern>
        <pattern name="bass fender jazz (1,379kb)" muted="0" type="1" steps="16" pos="6144">
          <note key="20" vol="195" pan="0" len="24" pos="0"/>
          <note key="23" vol="195" pan="0" len="24" pos="24"/>
          <note key="20" vol="195" pan="0" len="24" pos="48"/>
          <note key="27" vol="195" pan="0" len="48" pos="72"/>
          <note key="20" vol="195" pan="0" len="24" pos="120"/>
          <note key="23" vol="195" pan="0" len="24" pos="144"/>
          <note key="27" vol="195" pan="0" len="24" pos="168"/>
          <note key="21" vol="195" pan="0" len="12" pos="192"/>
          <note key="21" vol="195" pan="0" len="12" pos="204"/>
          <note key="21" vol="195" pan="0" len="12" pos="216"/>
          <note key="21" vol="195" pan="0" len="12" pos="228"/>
          <note key="21" vol="195" pan="0" len="12" pos="240"/>
          <note key="21" vol="195" pan="0" len="12" pos="252"/>
          <note key="25" vol="195" pan="0" len="12" pos="264"/>
          <note key="25" vol="195" pan="0" len="12" pos="276"/>
          <note key="23" vol="195" pan="0" len="12" pos="288"/>
          <note key="23" vol="195" pan="0" len="12" pos="300"/>
          <note key="23" vol="195" pan="0" len="12" pos="312"/>
          <note key="23" vol="195" pan="0" len="12" pos="324"/>
          <note key="27" vol="195" pan="0" len="12" pos="336"/>
          <note key="27" vol="195" pan="0" len="12" pos="348"/>
          <note key="23" vol="195" pan="0" len="12" pos="360"/>
          <note key="23" vol="195" pan="0" len="12" pos="372"/>
        </pattern>
        <pattern name="bass fender jazz (1,379kb)" muted="0" type="1" steps="16" pos="6528">
          <note key="11" vol="197" pan="0" len="48" pos="0"/>
          <note key="11" vol="197" pan="0" len="12" pos="48"/>
          <note key="11" vol="197" pan="0" len="12" pos="60"/>
          <note key="11" vol="197" pan="0" len="24" pos="72"/>
          <note key="11" vol="197" pan="0" len="12" pos="96"/>
          <note key="11" vol="197" pan="0" len="12" pos="108"/>
          <note key="11" vol="197" pan="0" len="24" pos="120"/>
          <note key="11" vol="197" pan="0" len="12" pos="144"/>
          <note key="11" vol="197" pan="0" len="12" pos="156"/>
          <note key="11" vol="197" pan="0" len="24" pos="168"/>
          <note key="11" vol="197" pan="0" len="48" pos="192"/>
          <note key="11" vol="197" pan="0" len="12" pos="240"/>
          <note key="11" vol="197" pan="0" len="12" pos="252"/>
          <note key="11" vol="197" pan="0" len="24" pos="264"/>
          <note key="11" vol="197" pan="0" len="12" pos="288"/>
          <note key="11" vol="197" pan="0" len="12" pos="300"/>
          <note key="11" vol="197" pan="0" len="24" pos="312"/>
          <note key="11" vol="197" pan="0" len="12" pos="336"/>
          <note key="11" vol="197" pan="0" len="12" pos="348"/>
          <note key="11" vol="197" pan="0" len="24" pos="360"/>
          <note key="21" vol="197" pan="0" len="48" pos="384"/>
          <note key="21" vol="197" pan="0" len="12" pos="432"/>
          <note key="21" vol="197" pan="0" len="12" pos="444"/>
          <note key="21" vol="197" pan="0" len="24" pos="456"/>
          <note key="21" vol="197" pan="0" len="12" pos="480"/>
          <note key="21" vol="197" pan="0" len="12" pos="492"/>
          <note key="21" vol="197" pan="0" len="24" pos="504"/>
          <note key="21" vol="197" pan="0" len="12" pos="528"/>
          <note key="21" vol="197" pan="0" len="12" pos="540"/>
          <note key="21" vol="197" pan="0" len="24" pos="552"/>
          <note key="20" vol="197" pan="0" len="48" pos="576"/>
          <note key="20" vol="197" pan="0" len="12" pos="624"/>
          <note key="20" vol="197" pan="0" len="12" pos="636"/>
          <note key="20" vol="197" pan="0" len="24" pos="648"/>
          <note key="20" vol="197" pan="0" len="12" pos="672"/>
          <note key="20" vol="197" pan="0" len="12" pos="684"/>
          <note key="20" vol="197" pan="0" len="12" pos="696"/>
          <note key="20" vol="197" pan="0" len="12" pos="708"/>
          <note key="20" vol="197" pan="0" len="12" pos="720"/>
          <note key="20" vol="197" pan="0" len="12" pos="732"/>
          <note key="20" vol="197" pan="0" len="24" pos="744"/>
        </pattern>
        <pattern name="bass fender jazz (1,379kb)" muted="0" type="1" steps="16" pos="8064">
          <note key="13" vol="195" pan="0" len="48" pos="0"/>
          <note key="13" vol="195" pan="0" len="12" pos="48"/>
          <note key="13" vol="195" pan="0" len="12" pos="60"/>
          <note key="13" vol="195" pan="0" len="12" pos="72"/>
          <note key="13" vol="195" pan="0" len="12" pos="84"/>
          <note key="13" vol="195" pan="0" len="12" pos="96"/>
          <note key="13" vol="195" pan="0" len="12" pos="108"/>
          <note key="13" vol="195" pan="0" len="12" pos="120"/>
          <note key="13" vol="195" pan="0" len="12" pos="132"/>
          <note key="13" vol="195" pan="0" len="12" pos="144"/>
          <note key="13" vol="195" pan="0" len="12" pos="156"/>
          <note key="13" vol="195" pan="0" len="12" pos="168"/>
          <note key="13" vol="195" pan="0" len="12" pos="180"/>
          <note key="20" vol="195" pan="0" len="48" pos="192"/>
          <note key="20" vol="195" pan="0" len="12" pos="240"/>
          <note key="20" vol="195" pan="0" len="12" pos="252"/>
          <note key="20" vol="195" pan="0" len="12" pos="264"/>
          <note key="20" vol="195" pan="0" len="12" pos="276"/>
          <note key="20" vol="195" pan="0" len="12" pos="288"/>
          <note key="20" vol="195" pan="0" len="12" pos="300"/>
          <note key="20" vol="195" pan="0" len="12" pos="312"/>
          <note key="20" vol="195" pan="0" len="12" pos="324"/>
          <note key="20" vol="195" pan="0" len="12" pos="336"/>
          <note key="20" vol="195" pan="0" len="12" pos="348"/>
          <note key="20" vol="195" pan="0" len="12" pos="360"/>
          <note key="20" vol="195" pan="0" len="12" pos="372"/>
          <note key="21" vol="195" pan="0" len="48" pos="384"/>
          <note key="21" vol="195" pan="0" len="12" pos="432"/>
          <note key="21" vol="195" pan="0" len="12" pos="444"/>
          <note key="21" vol="195" pan="0" len="12" pos="456"/>
          <note key="21" vol="195" pan="0" len="12" pos="468"/>
          <note key="21" vol="195" pan="0" len="12" pos="480"/>
          <note key="21" vol="195" pan="0" len="12" pos="492"/>
          <note key="21" vol="195" pan="0" len="12" pos="504"/>
          <note key="21" vol="195" pan="0" len="12" pos="516"/>
          <note key="21" vol="195" pan="0" len="12" pos="528"/>
          <note key="21" vol="195" pan="0" len="12" pos="540"/>
          <note key="21" vol="195" pan="0" len="12" pos="552"/>
          <note key="21" vol="195" pan="0" len="12" pos="564"/>
          <note key="23" vol="195" pan="0" len="48" pos="576"/>
          <note key="23" vol="195" pan="0" len="12" pos="624"/>
          <note key="23" vol="195" pan="0" len="12" pos="636"/>
          <note key="23" vol="195" pan="0" len="12" pos="648"/>
          <note key="23" vol="195" pan="0" len="12" pos="660"/>
          <note key="23" vol="195" pan="0" len="12" pos="672"/>
          <note key="23" vol="195" pan="0" len="12" pos="684"/>
          <note key="23" vol="195" pan="0" len="12" pos="696"/>
          <note key="23" vol="195" pan="0" len="12" pos="708"/>
          <note key="23" vol="195" pan="0" len="12" pos="720"/>
          <note key="23" vol="195" pan="0" len="12" pos="732"/>
          <note key="23" vol="195" pan="0" len="12" pos="744"/>
          <note key="23" vol="195" pan="0" len="12" pos="756"/>
          <note key="18" vol="195" pan="0" len="48" pos="768"/>
          <note key="18" vol="195" pan="0" len="12" pos="816"/>
          <note key="18" vol="195" pan="0" len="12" pos="828"/>
          <note key="18" vol="195" pan="0" len="12" pos="840"/>
          <note key="18" vol="195" pan="0" len="12" pos="852"/>
          <note key="18" vol="195" pan="0" len="12" pos="864"/>
          <note key="18" vol="195" pan="0" len="12" pos="876"/>
          <note key="18" vol="195" pan="0" len="12" pos="888"/>
          <note key="18" vol="195" pan="0" len="12" pos="900"/>
          <note key="18" vol="195" pan="0" len="12" pos="912"/>
          <note key="18" vol="195" pan="0" len="12" pos="924"/>
          <note key="18" vol="195" pan="0" len="12" pos="936"/>
          <note key="18" vol="195" pan="0" len="12" pos="948"/>
          <note key="20" vol="195" pan="0" len="48" pos="960"/>
          <note key="20" vol="195" pan="0" len="12" pos="1008"/>
          <note key="20" vol="195" pan="0" len="12" pos="1020"/>
          <note key="20" vol="195" pan="0" len="12" pos="1032"/>
          <note key="20" vol="195" pan="0" len="12" pos="1044"/>
          <note key="20" vol="195" pan="0" len="12" pos="1056"/>
          <note key="20" vol="195" pan="0" len="12" pos="1068"/>
          <note key="20" vol="195" pan="0" len="12" pos="1080"/>
          <note key="20" vol="195" pan="0" len="12" pos="1092"/>
          <note key="20" vol="195" pan="0" len="12" pos="1104"/>
          <note key="20" vol="195" pan="0" len="12" pos="1116"/>
          <note key="20" vol="195" pan="0" len="12" pos="1128"/>
          <note key="20" vol="195" pan="0" len="12" pos="1140"/>
          <note key="21" vol="195" pan="0" len="48" pos="1152"/>
          <note key="21" vol="195" pan="0" len="12" pos="1200"/>
          <note key="21" vol="195" pan="0" len="12" pos="1212"/>
          <note key="21" vol="195" pan="0" len="12" pos="1224"/>
          <note key="21" vol="195" pan="0" len="12" pos="1236"/>
          <note key="21" vol="195" pan="0" len="12" pos="1248"/>
          <note key="21" vol="195" pan="0" len="12" pos="1260"/>
          <note key="21" vol="195" pan="0" len="12" pos="1272"/>
          <note key="21" vol="195" pan="0" len="12" pos="1284"/>
          <note key="21" vol="195" pan="0" len="12" pos="1296"/>
          <note key="21" vol="195" pan="0" len="12" pos="1308"/>
          <note key="21" vol="195" pan="0" len="12" pos="1320"/>
          <note key="21" vol="195" pan="0" len="12" pos="1332"/>
          <note key="23" vol="195" pan="0" len="48" pos="1344"/>
          <note key="23" vol="195" pan="0" len="12" pos="1392"/>
          <note key="23" vol="195" pan="0" len="12" pos="1404"/>
          <note key="23" vol="195" pan="0" len="12" pos="1416"/>
          <note key="23" vol="195" pan="0" len="12" pos="1428"/>
          <note key="24" vol="195" pan="0" len="48" pos="1440"/>
          <note key="24" vol="195" pan="0" len="12" pos="1488"/>
          <note key="24" vol="195" pan="0" len="12" pos="1500"/>
          <note key="24" vol="195" pan="0" len="12" pos="1512"/>
          <note key="24" vol="195" pan="0" len="12" pos="1524"/>
          <note key="13" vol="195" pan="0" len="48" pos="1536"/>
          <note key="13" vol="195" pan="0" len="12" pos="1584"/>
          <note key="13" vol="195" pan="0" len="12" pos="1596"/>
          <note key="13" vol="195" pan="0" len="12" pos="1608"/>
          <note key="13" vol="195" pan="0" len="12" pos="1620"/>
          <note key="13" vol="195" pan="0" len="12" pos="1632"/>
          <note key="13" vol="195" pan="0" len="12" pos="1644"/>
          <note key="13" vol="195" pan="0" len="12" pos="1656"/>
          <note key="13" vol="195" pan="0" len="12" pos="1668"/>
          <note key="13" vol="195" pan="0" len="12" pos="1680"/>
          <note key="13" vol="195" pan="0" len="12" pos="1692"/>
          <note key="13" vol="195" pan="0" len="12" pos="1704"/>
          <note key="13" vol="195" pan="0" len="12" pos="1716"/>
          <note key="23" vol="195" pan="0" len="48" pos="1728"/>
          <note key="23" vol="195" pan="0" len="12" pos="1776"/>
          <note key="23" vol="195" pan="0" len="12" pos="1788"/>
          <note key="23" vol="195" pan="0" len="12" pos="1800"/>
          <note key="23" vol="195" pan="0" len="12" pos="1812"/>
          <note key="23" vol="195" pan="0" len="12" pos="1824"/>
          <note key="23" vol="195" pan="0" len="12" pos="1836"/>
          <note key="23" vol="195" pan="0" len="12" pos="1848"/>
          <note key="23" vol="195" pan="0" len="12" pos="1860"/>
          <note key="23" vol="195" pan="0" len="12" pos="1872"/>
          <note key="23" vol="195" pan="0" len="12" pos="1884"/>
          <note key="23" vol="195" pan="0" len="12" pos="1896"/>
          <note key="23" vol="195" pan="0" len="12" pos="1908"/>
          <note key="22" vol="195" pan="0" len="48" pos="1920"/>
          <note key="22" vol="195" pan="0" len="12" pos="1968"/>
          <note key="22" vol="195" pan="0" len="12" pos="1980"/>
          <note key="22" vol="195" pan="0" len="12" pos="1992"/>
          <note key="22" vol="195" pan="0" len="12" pos="2004"/>
          <note key="22" vol="195" pan="0" len="12" pos="2016"/>
          <note key="22" vol="195" pan="0" len="12" pos="2028"/>
          <note key="22" vol="195" pan="0" len="12" pos="2040"/>
          <note key="22" vol="195" pan="0" len="12" pos="2052"/>
          <note key="22" vol="195" pan="0" len="12" pos="2064"/>
          <note key="22" vol="195" pan="0" len="12" pos="2076"/>
          <note key="22" vol="195" pan="0" len="12" pos="2088"/>
          <note key="22" vol="195" pan="0" len="12" pos="2100"/>
          <note key="18" vol="195" pan="0" len="48" pos="2112"/>
          <note key="18" vol="195" pan="0" len="12" pos="2160"/>
          <note key="18" vol="195" pan="0" len="12" pos="2172"/>
          <note key="18" vol="195" pan="0" len="12" pos="2184"/>
          <note key="18" vol="195" pan="0" len="12" pos="2196"/>
          <note key="16" vol="195" pan="0" len="48" pos="2208"/>
          <note key="16" vol="195" pan="0" len="12" pos="2256"/>
          <note key="16" vol="195" pan="0" len="12" pos="2268"/>
          <note key="16" vol="195" pan="0" len="12" pos="2280"/>
          <note key="16" vol="195" pan="0" len="12" pos="2292"/>
          <note key="14" vol="195" pan="0" len="48" pos="2304"/>
          <note key="14" vol="195" pan="0" len="12" pos="2352"/>
          <note key="14" vol="195" pan="0" len="12" pos="2364"/>
          <note key="14" vol="195" pan="0" len="12" pos="2376"/>
          <note key="14" vol="195" pan="0" len="12" pos="2388"/>
          <note key="14" vol="195" pan="0" len="48" pos="2400"/>
          <note key="14" vol="195" pan="0" len="12" pos="2448"/>
          <note key="14" vol="195" pan="0" len="12" pos="2460"/>
          <note key="14" vol="195" pan="0" len="12" pos="2472"/>
          <note key="14" vol="195" pan="0" len="12" pos="2484"/>
          <note key="21" vol="195" pan="0" len="48" pos="2496"/>
          <note key="21" vol="195" pan="0" len="12" pos="2544"/>
          <note key="21" vol="195" pan="0" len="12" pos="2556"/>
          <note key="21" vol="195" pan="0" len="12" pos="2568"/>
          <note key="21" vol="195" pan="0" len="12" pos="2580"/>
          <note key="21" vol="195" pan="0" len="12" pos="2592"/>
          <note key="21" vol="195" pan="0" len="12" pos="2604"/>
          <note key="21" vol="195" pan="0" len="12" pos="2616"/>
          <note key="21" vol="195" pan="0" len="12" pos="2628"/>
          <note key="21" vol="195" pan="0" len="12" pos="2640"/>
          <note key="21" vol="195" pan="0" len="12" pos="2652"/>
          <note key="21" vol="195" pan="0" len="12" pos="2664"/>
          <note key="21" vol="195" pan="0" len="12" pos="2676"/>
          <note key="23" vol="195" pan="0" len="48" pos="2688"/>
          <note key="23" vol="195" pan="0" len="12" pos="2736"/>
          <note key="23" vol="195" pan="0" len="12" pos="2748"/>
          <note key="23" vol="195" pan="0" len="12" pos="2760"/>
          <note key="23" vol="195" pan="0" len="12" pos="2772"/>
          <note key="23" vol="195" pan="0" len="12" pos="2784"/>
          <note key="23" vol="195" pan="0" len="12" pos="2796"/>
          <note key="23" vol="195" pan="0" len="12" pos="2808"/>
          <note key="23" vol="195" pan="0" len="12" pos="2820"/>
          <note key="23" vol="195" pan="0" len="12" pos="2832"/>
          <note key="23" vol="195" pan="0" len="12" pos="2844"/>
          <note key="23" vol="195" pan="0" len="12" pos="2856"/>
          <note key="23" vol="195" pan="0" len="12" pos="2868"/>
          <note key="23" vol="195" pan="0" len="96" pos="2880"/>
          <note key="27" vol="195" pan="0" len="96" pos="2976"/>
        </pattern>
        <pattern name="bass fender jazz (1,379kb)" muted="0" type="1" steps="16" pos="11136">
          <note key="13" vol="197" pan="0" len="24" pos="0"/>
          <note key="13" vol="197" pan="0" len="12" pos="24"/>
          <note key="13" vol="197" pan="0" len="12" pos="36"/>
          <note key="13" vol="197" pan="0" len="12" pos="48"/>
          <note key="13" vol="197" pan="0" len="12" pos="60"/>
          <note key="13" vol="197" pan="0" len="24" pos="72"/>
          <note key="13" vol="197" pan="0" len="12" pos="96"/>
          <note key="13" vol="197" pan="0" len="12" pos="108"/>
          <note key="13" vol="197" pan="0" len="12" pos="120"/>
          <note key="13" vol="197" pan="0" len="12" pos="132"/>
          <note key="13" vol="197" pan="0" len="24" pos="144"/>
          <note key="13" vol="197" pan="0" len="12" pos="168"/>
          <note key="13" vol="197" pan="0" len="12" pos="180"/>
          <note key="13" vol="197" pan="0" len="12" pos="192"/>
          <note key="13" vol="197" pan="0" len="12" pos="204"/>
          <note key="13" vol="197" pan="0" len="24" pos="216"/>
          <note key="13" vol="197" pan="0" len="12" pos="240"/>
          <note key="13" vol="197" pan="0" len="12" pos="252"/>
          <note key="13" vol="197" pan="0" len="12" pos="264"/>
          <note key="13" vol="197" pan="0" len="12" pos="276"/>
          <note key="13" vol="197" pan="0" len="24" pos="288"/>
          <note key="13" vol="197" pan="0" len="12" pos="312"/>
          <note key="13" vol="197" pan="0" len="12" pos="324"/>
          <note key="13" vol="197" pan="0" len="24" pos="336"/>
          <note key="13" vol="197" pan="0" len="12" pos="360"/>
          <note key="13" vol="197" pan="0" len="12" pos="372"/>
        </pattern>
        <pattern name="bass fender jazz (1,379kb)" muted="0" type="1" steps="16" pos="11904">
          <note key="13" vol="197" pan="0" len="24" pos="0"/>
          <note key="13" vol="197" pan="0" len="12" pos="24"/>
          <note key="13" vol="197" pan="0" len="12" pos="36"/>
          <note key="13" vol="197" pan="0" len="12" pos="48"/>
          <note key="13" vol="197" pan="0" len="12" pos="60"/>
          <note key="13" vol="197" pan="0" len="24" pos="72"/>
          <note key="13" vol="197" pan="0" len="12" pos="96"/>
          <note key="13" vol="197" pan="0" len="12" pos="108"/>
          <note key="13" vol="197" pan="0" len="12" pos="120"/>
          <note key="13" vol="197" pan="0" len="12" pos="132"/>
          <note key="13" vol="197" pan="0" len="24" pos="144"/>
          <note key="13" vol="197" pan="0" len="12" pos="168"/>
          <note key="13" vol="197" pan="0" len="12" pos="180"/>
          <note key="13" vol="197" pan="0" len="12" pos="192"/>
          <note key="13" vol="197" pan="0" len="12" pos="204"/>
          <note key="13" vol="197" pan="0" len="24" pos="216"/>
          <note key="13" vol="197" pan="0" len="12" pos="240"/>
          <note key="13" vol="197" pan="0" len="12" pos="252"/>
          <note key="13" vol="197" pan="0" len="12" pos="264"/>
          <note key="13" vol="197" pan="0" len="12" pos="276"/>
          <note key="13" vol="197" pan="0" len="24" pos="288"/>
          <note key="13" vol="197" pan="0" len="12" pos="312"/>
          <note key="13" vol="197" pan="0" len="12" pos="324"/>
          <note key="13" vol="197" pan="0" len="24" pos="336"/>
          <note key="13" vol="197" pan="0" len="12" pos="360"/>
          <note key="13" vol="197" pan="0" len="12" pos="372"/>
        </pattern>
        <pattern name="bass fender jazz (1,379kb)" muted="0" type="1" steps="16" pos="11520">
          <note key="14" vol="197" pan="0" len="24" pos="0"/>
          <note key="14" vol="197" pan="0" len="12" pos="24"/>
          <note key="14" vol="197" pan="0" len="12" pos="36"/>
          <note key="14" vol="197" pan="0" len="12" pos="48"/>
          <note key="14" vol="197" pan="0" len="12" pos="60"/>
          <note key="14" vol="197" pan="0" len="24" pos="72"/>
          <note key="14" vol="197" pan="0" len="12" pos="96"/>
          <note key="14" vol="197" pan="0" len="12" pos="108"/>
          <note key="14" vol="197" pan="0" len="12" pos="120"/>
          <note key="14" vol="197" pan="0" len="12" pos="132"/>
          <note key="14" vol="197" pan="0" len="24" pos="144"/>
          <note key="14" vol="197" pan="0" len="12" pos="168"/>
          <note key="14" vol="197" pan="0" len="12" pos="180"/>
          <note key="14" vol="197" pan="0" len="12" pos="192"/>
          <note key="14" vol="197" pan="0" len="12" pos="204"/>
          <note key="14" vol="197" pan="0" len="24" pos="216"/>
          <note key="14" vol="197" pan="0" len="12" pos="240"/>
          <note key="14" vol="197" pan="0" len="12" pos="252"/>
          <note key="14" vol="197" pan="0" len="12" pos="264"/>
          <note key="14" vol="197" pan="0" len="12" pos="276"/>
          <note key="14" vol="197" pan="0" len="24" pos="288"/>
          <note key="14" vol="197" pan="0" len="12" pos="312"/>
          <note key="14" vol="197" pan="0" len="12" pos="324"/>
          <note key="14" vol="197" pan="0" len="24" pos="336"/>
          <note key="14" vol="197" pan="0" len="12" pos="360"/>
          <note key="14" vol="197" pan="0" len="12" pos="372"/>
        </pattern>
        <pattern name="bass fender jazz (1,379kb)" muted="0" type="1" steps="16" pos="12288">
          <note key="14" vol="197" pan="0" len="24" pos="0"/>
          <note key="14" vol="197" pan="0" len="12" pos="24"/>
          <note key="14" vol="197" pan="0" len="12" pos="36"/>
          <note key="14" vol="197" pan="0" len="12" pos="48"/>
          <note key="14" vol="197" pan="0" len="12" pos="60"/>
          <note key="14" vol="197" pan="0" len="24" pos="72"/>
          <note key="14" vol="197" pan="0" len="12" pos="96"/>
          <note key="14" vol="197" pan="0" len="12" pos="108"/>
          <note key="14" vol="197" pan="0" len="12" pos="120"/>
          <note key="14" vol="197" pan="0" len="12" pos="132"/>
          <note key="14" vol="197" pan="0" len="24" pos="144"/>
          <note key="14" vol="197" pan="0" len="12" pos="168"/>
          <note key="14" vol="197" pan="0" len="12" pos="180"/>
          <note key="14" vol="197" pan="0" len="12" pos="192"/>
          <note key="14" vol="197" pan="0" len="12" pos="204"/>
          <note key="14" vol="197" pan="0" len="24" pos="216"/>
          <note key="14" vol="197" pan="0" len="12" pos="240"/>
          <note key="14" vol="197" pan="0" len="12" pos="252"/>
          <note key="14" vol="197" pan="0" len="12" pos="264"/>
          <note key="14" vol="197" pan="0" len="12" pos="276"/>
          <note key="14" vol="197" pan="0" len="24" pos="288"/>
          <note key="14" vol="197" pan="0" len="12" pos="312"/>
          <note key="14" vol="197" pan="0" len="12" pos="324"/>
          <note key="14" vol="197" pan="0" len="24" pos="336"/>
          <note key="14" vol="197" pan="0" len="12" pos="360"/>
          <note key="14" vol="197" pan="0" len="12" pos="372"/>
        </pattern>
        <pattern name="bass fender jazz (1,379kb)" muted="0" type="1" steps="16" pos="15744">
          <note key="13" vol="195" pan="0" len="48" pos="0"/>
          <note key="13" vol="195" pan="0" len="12" pos="48"/>
          <note key="13" vol="195" pan="0" len="12" pos="60"/>
          <note key="13" vol="195" pan="0" len="12" pos="72"/>
          <note key="13" vol="195" pan="0" len="12" pos="84"/>
          <note key="13" vol="195" pan="0" len="12" pos="96"/>
          <note key="13" vol="195" pan="0" len="12" pos="108"/>
          <note key="13" vol="195" pan="0" len="12" pos="120"/>
          <note key="13" vol="195" pan="0" len="12" pos="132"/>
          <note key="13" vol="195" pan="0" len="12" pos="144"/>
          <note key="13" vol="195" pan="0" len="12" pos="156"/>
          <note key="13" vol="195" pan="0" len="12" pos="168"/>
          <note key="13" vol="195" pan="0" len="12" pos="180"/>
          <note key="20" vol="195" pan="0" len="48" pos="192"/>
          <note key="20" vol="195" pan="0" len="12" pos="240"/>
          <note key="20" vol="195" pan="0" len="12" pos="252"/>
          <note key="20" vol="195" pan="0" len="12" pos="264"/>
          <note key="20" vol="195" pan="0" len="12" pos="276"/>
          <note key="20" vol="195" pan="0" len="12" pos="288"/>
          <note key="20" vol="195" pan="0" len="12" pos="300"/>
          <note key="20" vol="195" pan="0" len="12" pos="312"/>
          <note key="20" vol="195" pan="0" len="12" pos="324"/>
          <note key="20" vol="195" pan="0" len="12" pos="336"/>
          <note key="20" vol="195" pan="0" len="12" pos="348"/>
          <note key="20" vol="195" pan="0" len="12" pos="360"/>
          <note key="20" vol="195" pan="0" len="12" pos="372"/>
          <note key="21" vol="195" pan="0" len="48" pos="384"/>
          <note key="21" vol="195" pan="0" len="12" pos="432"/>
          <note key="21" vol="195" pan="0" len="12" pos="444"/>
          <note key="21" vol="195" pan="0" len="12" pos="456"/>
          <note key="21" vol="195" pan="0" len="12" pos="468"/>
          <note key="21" vol="195" pan="0" len="12" pos="480"/>
          <note key="21" vol="195" pan="0" len="12" pos="492"/>
          <note key="21" vol="195" pan="0" len="12" pos="504"/>
          <note key="21" vol="195" pan="0" len="12" pos="516"/>
          <note key="21" vol="195" pan="0" len="12" pos="528"/>
          <note key="21" vol="195" pan="0" len="12" pos="540"/>
          <note key="21" vol="195" pan="0" len="12" pos="552"/>
          <note key="21" vol="195" pan="0" len="12" pos="564"/>
          <note key="23" vol="195" pan="0" len="48" pos="576"/>
          <note key="23" vol="195" pan="0" len="12" pos="624"/>
          <note key="23" vol="195" pan="0" len="12" pos="636"/>
          <note key="23" vol="195" pan="0" len="12" pos="648"/>
          <note key="23" vol="195" pan="0" len="12" pos="660"/>
          <note key="23" vol="195" pan="0" len="12" pos="672"/>
          <note key="23" vol="195" pan="0" len="12" pos="684"/>
          <note key="23" vol="195" pan="0" len="12" pos="696"/>
          <note key="23" vol="195" pan="0" len="12" pos="708"/>
          <note key="23" vol="195" pan="0" len="12" pos="720"/>
          <note key="23" vol="195" pan="0" len="12" pos="732"/>
          <note key="23" vol="195" pan="0" len="12" pos="744"/>
          <note key="23" vol="195" pan="0" len="12" pos="756"/>
          <note key="18" vol="195" pan="0" len="48" pos="768"/>
          <note key="18" vol="195" pan="0" len="12" pos="816"/>
          <note key="18" vol="195" pan="0" len="12" pos="828"/>
          <note key="18" vol="195" pan="0" len="12" pos="840"/>
          <note key="18" vol="195" pan="0" len="12" pos="852"/>
          <note key="18" vol="195" pan="0" len="12" pos="864"/>
          <note key="18" vol="195" pan="0" len="12" pos="876"/>
          <note key="18" vol="195" pan="0" len="12" pos="888"/>
          <note key="18" vol="195" pan="0" len="12" pos="900"/>
          <note key="18" vol="195" pan="0" len="12" pos="912"/>
          <note key="18" vol="195" pan="0" len="12" pos="924"/>
          <note key="18" vol="195" pan="0" len="12" pos="936"/>
          <note key="18" vol="195" pan="0" len="12" pos="948"/>
          <note key="20" vol="195" pan="0" len="48" pos="960"/>
          <note key="20" vol="195" pan="0" len="12" pos="1008"/>
          <note key="20" vol="195" pan="0" len="12" pos="1020"/>
          <note key="20" vol="195" pan="0" len="12" pos="1032"/>
          <note key="20" vol="195" pan="0" len="12" pos="1044"/>
          <note key="20" vol="195" pan="0" len="12" pos="1056"/>
          <note key="20" vol="195" pan="0" len="12" pos="1068"/>
          <note key="20" vol="195" pan="0" len="12" pos="1080"/>
          <note key="20" vol="195" pan="0" len="12" pos="1092"/>
          <note key="20" vol="195" pan="0" len="12" pos="1104"/>
          <note key="20" vol="195" pan="0" len="12" pos="1116"/>
          <note key="20" vol="195" pan="0" len="12" pos="1128"/>
          <note key="20" vol="195" pan="0" len="12" pos="1140"/>
          <note key="21" vol="195" pan="0" len="48" pos="1152"/>
          <note key="21" vol="195" pan="0" len="12" pos="1200"/>
          <note key="21" vol="195" pan="0" len="12" pos="1212"/>
          <note key="21" vol="195" pan="0" len="12" pos="1224"/>
          <note key="21" vol="195" pan="0" len="12" pos="1236"/>
          <note key="21" vol="195" pan="0" len="12" pos="1248"/>
          <note key="21" vol="195" pan="0" len="12" pos="1260"/>
          <note key="21" vol="195" pan="0" len="12" pos="1272"/>
          <note key="21" vol="195" pan="0" len="12" pos="1284"/>
          <note key="21" vol="195" pan="0" len="12" pos="1296"/>
          <note key="21" vol="195" pan="0" len="12" pos="1308"/>
          <note key="21" vol="195" pan="0" len="12" pos="1320"/>
          <note key="21" vol="195" pan="0" len="12" pos="1332"/>
          <note key="23" vol="195" pan="0" len="48" pos="1344"/>
          <note key="23" vol="195" pan="0" len="12" pos="1392"/>
          <note key="23" vol="195" pan="0" len="12" pos="1404"/>
          <note key="23" vol="195" pan="0" len="12" pos="1416"/>
          <note key="23" vol="195" pan="0" len="12" pos="1428"/>
          <note key="24" vol="195" pan="0" len="48" pos="1440"/>
          <note key="24" vol="195" pan="0" len="12" pos="1488"/>
          <note key="24" vol="195" pan="0" len="12" pos="1500"/>
          <note key="24" vol="195" pan="0" len="12" pos="1512"/>
          <note key="24" vol="195" pan="0" len="12" pos="1524"/>
          <note key="13" vol="195" pan="0" len="48" pos="1536"/>
          <note key="13" vol="195" pan="0" len="12" pos="1584"/>
          <note key="13" vol="195" pan="0" len="12" pos="1596"/>
          <note key="13" vol="195" pan="0" len="12" pos="1608"/>
          <note key="13" vol="195" pan="0" len="12" pos="1620"/>
          <note key="13" vol="195" pan="0" len="12" pos="1632"/>
          <note key="13" vol="195" pan="0" len="12" pos="1644"/>
          <note key="13" vol="195" pan="0" len="12" pos="1656"/>
          <note key="13" vol="195" pan="0" len="12" pos="1668"/>
          <note key="13" vol="195" pan="0" len="12" pos="1680"/>
          <note key="13" vol="195" pan="0" len="12" pos="1692"/>
          <note key="13" vol="195" pan="0" len="12" pos="1704"/>
          <note key="13" vol="195" pan="0" len="12" pos="1716"/>
          <note key="23" vol="195" pan="0" len="48" pos="1728"/>
          <note key="23" vol="195" pan="0" len="12" pos="1776"/>
          <note key="23" vol="195" pan="0" len="12" pos="1788"/>
          <note key="23" vol="195" pan="0" len="12" pos="1800"/>
          <note key="23" vol="195" pan="0" len="12" pos="1812"/>
          <note key="23" vol="195" pan="0" len="12" pos="1824"/>
          <note key="23" vol="195" pan="0" len="12" pos="1836"/>
          <note key="23" vol="195" pan="0" len="12" pos="1848"/>
          <note key="23" vol="195" pan="0" len="12" pos="1860"/>
          <note key="23" vol="195" pan="0" len="12" pos="1872"/>
          <note key="23" vol="195" pan="0" len="12" pos="1884"/>
          <note key="23" vol="195" pan="0" len="12" pos="1896"/>
          <note key="23" vol="195" pan="0" len="12" pos="1908"/>
          <note key="22" vol="195" pan="0" len="48" pos="1920"/>
          <note key="22" vol="195" pan="0" len="12" pos="1968"/>
          <note key="22" vol="195" pan="0" len="12" pos="1980"/>
          <note key="22" vol="195" pan="0" len="12" pos="1992"/>
          <note key="22" vol="195" pan="0" len="12" pos="2004"/>
          <note key="22" vol="195" pan="0" len="12" pos="2016"/>
          <note key="22" vol="195" pan="0" len="12" pos="2028"/>
          <note key="22" vol="195" pan="0" len="12" pos="2040"/>
          <note key="22" vol="195" pan="0" len="12" pos="2052"/>
          <note key="22" vol="195" pan="0" len="12" pos="2064"/>
          <note key="22" vol="195" pan="0" len="12" pos="2076"/>
          <note key="22" vol="195" pan="0" len="12" pos="2088"/>
          <note key="22" vol="195" pan="0" len="12" pos="2100"/>
          <note key="18" vol="195" pan="0" len="48" pos="2112"/>
          <note key="18" vol="195" pan="0" len="12" pos="2160"/>
          <note key="18" vol="195" pan="0" len="12" pos="2172"/>
          <note key="18" vol="195" pan="0" len="12" pos="2184"/>
          <note key="18" vol="195" pan="0" len="12" pos="2196"/>
          <note key="16" vol="195" pan="0" len="48" pos="2208"/>
          <note key="16" vol="195" pan="0" len="12" pos="2256"/>
          <note key="16" vol="195" pan="0" len="12" pos="2268"/>
          <note key="16" vol="195" pan="0" len="12" pos="2280"/>
          <note key="16" vol="195" pan="0" len="12" pos="2292"/>
          <note key="14" vol="195" pan="0" len="48" pos="2304"/>
          <note key="14" vol="195" pan="0" len="12" pos="2352"/>
          <note key="14" vol="195" pan="0" len="12" pos="2364"/>
          <note key="14" vol="195" pan="0" len="12" pos="2376"/>
          <note key="14" vol="195" pan="0" len="12" pos="2388"/>
          <note key="14" vol="195" pan="0" len="48" pos="2400"/>
          <note key="14" vol="195" pan="0" len="12" pos="2448"/>
          <note key="14" vol="195" pan="0" len="12" pos="2460"/>
          <note key="14" vol="195" pan="0" len="12" pos="2472"/>
          <note key="14" vol="195" pan="0" len="12" pos="2484"/>
          <note key="21" vol="195" pan="0" len="48" pos="2496"/>
          <note key="21" vol="195" pan="0" len="12" pos="2544"/>
          <note key="21" vol="195" pan="0" len="12" pos="2556"/>
          <note key="21" vol="195" pan="0" len="12" pos="2568"/>
          <note key="21" vol="195" pan="0" len="12" pos="2580"/>
          <note key="21" vol="195" pan="0" len="12" pos="2592"/>
          <note key="21" vol="195" pan="0" len="12" pos="2604"/>
          <note key="21" vol="195" pan="0" len="12" pos="2616"/>
          <note key="21" vol="195" pan="0" len="12" pos="2628"/>
          <note key="21" vol="195" pan="0" len="12" pos="2640"/>
          <note key="21" vol="195" pan="0" len="12" pos="2652"/>
          <note key="21" vol="195" pan="0" len="12" pos="2664"/>
          <note key="21" vol="195" pan="0" len="12" pos="2676"/>
          <note key="23" vol="195" pan="0" len="48" pos="2688"/>
          <note key="23" vol="195" pan="0" len="12" pos="2736"/>
          <note key="23" vol="195" pan="0" len="12" pos="2748"/>
          <note key="23" vol="195" pan="0" len="12" pos="2760"/>
          <note key="23" vol="195" pan="0" len="12" pos="2772"/>
          <note key="23" vol="195" pan="0" len="12" pos="2784"/>
          <note key="23" vol="195" pan="0" len="12" pos="2796"/>
          <note key="23" vol="195" pan="0" len="12" pos="2808"/>
          <note key="23" vol="195" pan="0" len="12" pos="2820"/>
          <note key="23" vol="195" pan="0" len="12" pos="2832"/>
          <note key="23" vol="195" pan="0" len="12" pos="2844"/>
          <note key="23" vol="195" pan="0" len="12" pos="2856"/>
          <note key="23" vol="195" pan="0" len="12" pos="2868"/>
          <note key="11" vol="195" pan="0" len="24" pos="2880"/>
          <note key="11" vol="195" pan="0" len="24" pos="2904"/>
          <note key="11" vol="195" pan="0" len="24" pos="2976"/>
          <note key="11" vol="195" pan="0" len="24" pos="3000"/>
        </pattern>
        <pattern name="bass fender jazz (1,379kb)" muted="0" type="1" steps="16" pos="3264">
          <note key="14" vol="172" pan="0" len="192" pos="0"/>
        </pattern>
        <pattern name="bass fender jazz (1,379kb)" muted="0" type="1" steps="16" pos="7296">
          <note key="18" vol="197" pan="0" len="24" pos="0"/>
          <note key="16" vol="197" pan="0" len="24" pos="24"/>
          <note key="18" vol="197" pan="0" len="24" pos="48"/>
          <note key="25" vol="197" pan="0" len="24" pos="72"/>
          <note key="18" vol="197" pan="0" len="24" pos="96"/>
          <note key="28" vol="197" pan="0" len="24" pos="120"/>
          <note key="23" vol="197" pan="0" len="24" pos="144"/>
          <note key="25" vol="197" pan="0" len="24" pos="168"/>
          <note key="18" vol="197" pan="0" len="24" pos="192"/>
          <note key="16" vol="197" pan="0" len="24" pos="216"/>
          <note key="18" vol="197" pan="0" len="24" pos="240"/>
          <note key="25" vol="197" pan="0" len="24" pos="264"/>
          <note key="18" vol="197" pan="0" len="24" pos="288"/>
          <note key="28" vol="197" pan="0" len="24" pos="312"/>
          <note key="30" vol="197" pan="0" len="24" pos="336"/>
          <note key="28" vol="197" pan="0" len="24" pos="360"/>
        </pattern>
        <pattern name="bass fender jazz (1,379kb)" muted="0" type="1" steps="16" pos="7680">
          <note key="15" vol="197" pan="0" len="24" pos="0"/>
          <note key="15" vol="197" pan="0" len="12" pos="24"/>
          <note key="15" vol="197" pan="0" len="12" pos="36"/>
          <note key="15" vol="197" pan="0" len="12" pos="48"/>
          <note key="15" vol="197" pan="0" len="12" pos="60"/>
          <note key="15" vol="197" pan="0" len="12" pos="72"/>
          <note key="15" vol="197" pan="0" len="12" pos="84"/>
          <note key="15" vol="197" pan="0" len="12" pos="96"/>
          <note key="15" vol="197" pan="0" len="12" pos="108"/>
          <note key="15" vol="197" pan="0" len="12" pos="120"/>
          <note key="15" vol="197" pan="0" len="12" pos="132"/>
          <note key="15" vol="197" pan="0" len="12" pos="144"/>
          <note key="15" vol="197" pan="0" len="12" pos="156"/>
          <note key="15" vol="197" pan="0" len="12" pos="168"/>
          <note key="15" vol="197" pan="0" len="12" pos="180"/>
          <note key="21" vol="197" pan="0" len="96" pos="192"/>
          <note key="20" vol="197" pan="0" len="96" pos="288"/>
        </pattern>
        <pattern name="bass fender jazz (1,379kb)" muted="0" type="1" steps="16" pos="18816">
          <note key="13" vol="197" pan="0" len="24" pos="0"/>
          <note key="13" vol="197" pan="0" len="12" pos="24"/>
          <note key="13" vol="197" pan="0" len="12" pos="36"/>
          <note key="13" vol="197" pan="0" len="24" pos="48"/>
          <note key="13" vol="197" pan="0" len="24" pos="72"/>
          <note key="13" vol="197" pan="0" len="12" pos="96"/>
          <note key="13" vol="197" pan="0" len="12" pos="108"/>
          <note key="13" vol="197" pan="0" len="24" pos="120"/>
          <note key="13" vol="197" pan="0" len="24" pos="144"/>
          <note key="13" vol="197" pan="0" len="12" pos="168"/>
          <note key="13" vol="197" pan="0" len="12" pos="180"/>
          <note key="13" vol="197" pan="0" len="24" pos="192"/>
          <note key="13" vol="197" pan="0" len="24" pos="216"/>
          <note key="13" vol="197" pan="0" len="12" pos="240"/>
          <note key="13" vol="197" pan="0" len="12" pos="252"/>
          <note key="13" vol="197" pan="0" len="24" pos="264"/>
          <note key="13" vol="197" pan="0" len="24" pos="288"/>
          <note key="13" vol="197" pan="0" len="24" pos="312"/>
          <note key="13" vol="197" pan="0" len="12" pos="336"/>
          <note key="13" vol="197" pan="0" len="12" pos="348"/>
          <note key="13" vol="197" pan="0" len="24" pos="360"/>
          <note key="20" vol="197" pan="0" len="24" pos="384"/>
          <note key="20" vol="197" pan="0" len="12" pos="408"/>
          <note key="20" vol="197" pan="0" len="12" pos="420"/>
          <note key="20" vol="197" pan="0" len="24" pos="432"/>
          <note key="20" vol="197" pan="0" len="24" pos="456"/>
          <note key="20" vol="197" pan="0" len="12" pos="480"/>
          <note key="20" vol="197" pan="0" len="12" pos="492"/>
          <note key="20" vol="197" pan="0" len="24" pos="504"/>
          <note key="20" vol="197" pan="0" len="24" pos="528"/>
          <note key="20" vol="197" pan="0" len="12" pos="552"/>
          <note key="20" vol="197" pan="0" len="12" pos="564"/>
          <note key="20" vol="197" pan="0" len="24" pos="576"/>
          <note key="20" vol="197" pan="0" len="24" pos="600"/>
          <note key="20" vol="197" pan="0" len="12" pos="624"/>
          <note key="20" vol="197" pan="0" len="12" pos="636"/>
          <note key="20" vol="197" pan="0" len="24" pos="648"/>
          <note key="20" vol="197" pan="0" len="24" pos="672"/>
          <note key="20" vol="197" pan="0" len="24" pos="696"/>
          <note key="20" vol="197" pan="0" len="12" pos="720"/>
          <note key="20" vol="197" pan="0" len="12" pos="732"/>
          <note key="20" vol="197" pan="0" len="24" pos="744"/>
          <note key="15" vol="197" pan="0" len="24" pos="768"/>
          <note key="15" vol="197" pan="0" len="12" pos="792"/>
          <note key="15" vol="197" pan="0" len="12" pos="804"/>
          <note key="15" vol="197" pan="0" len="24" pos="816"/>
          <note key="15" vol="197" pan="0" len="24" pos="840"/>
          <note key="15" vol="197" pan="0" len="12" pos="864"/>
          <note key="15" vol="197" pan="0" len="12" pos="876"/>
          <note key="15" vol="197" pan="0" len="24" pos="888"/>
          <note key="15" vol="197" pan="0" len="24" pos="912"/>
          <note key="15" vol="197" pan="0" len="12" pos="936"/>
          <note key="15" vol="197" pan="0" len="12" pos="948"/>
          <note key="15" vol="197" pan="0" len="24" pos="960"/>
          <note key="15" vol="197" pan="0" len="24" pos="984"/>
          <note key="15" vol="197" pan="0" len="12" pos="1008"/>
          <note key="15" vol="197" pan="0" len="12" pos="1020"/>
          <note key="15" vol="197" pan="0" len="24" pos="1032"/>
          <note key="15" vol="197" pan="0" len="24" pos="1056"/>
          <note key="15" vol="197" pan="0" len="24" pos="1080"/>
          <note key="15" vol="197" pan="0" len="12" pos="1104"/>
          <note key="15" vol="197" pan="0" len="12" pos="1116"/>
          <note key="15" vol="197" pan="0" len="24" pos="1128"/>
          <note key="14" vol="197" pan="0" len="24" pos="1152"/>
          <note key="14" vol="197" pan="0" len="12" pos="1176"/>
          <note key="14" vol="197" pan="0" len="12" pos="1188"/>
          <note key="14" vol="197" pan="0" len="24" pos="1200"/>
          <note key="14" vol="197" pan="0" len="24" pos="1224"/>
          <note key="14" vol="197" pan="0" len="12" pos="1248"/>
          <note key="14" vol="197" pan="0" len="12" pos="1260"/>
          <note key="14" vol="197" pan="0" len="24" pos="1272"/>
          <note key="14" vol="197" pan="0" len="24" pos="1296"/>
          <note key="14" vol="197" pan="0" len="12" pos="1320"/>
          <note key="14" vol="197" pan="0" len="12" pos="1332"/>
          <note key="20" vol="197" pan="0" len="48" pos="1344"/>
          <note key="15" vol="197" pan="0" len="48" pos="1392"/>
          <note key="11" vol="197" pan="0" len="48" pos="1440"/>
          <note key="8" vol="197" pan="0" len="48" pos="1488"/>
          <note key="13" vol="197" pan="0" len="24" pos="1536"/>
          <note key="13" vol="197" pan="0" len="12" pos="1560"/>
          <note key="13" vol="197" pan="0" len="12" pos="1572"/>
          <note key="13" vol="197" pan="0" len="24" pos="1584"/>
          <note key="13" vol="197" pan="0" len="24" pos="1608"/>
          <note key="13" vol="197" pan="0" len="12" pos="1632"/>
          <note key="13" vol="197" pan="0" len="12" pos="1644"/>
          <note key="13" vol="197" pan="0" len="24" pos="1656"/>
          <note key="13" vol="197" pan="0" len="24" pos="1680"/>
          <note key="13" vol="197" pan="0" len="12" pos="1704"/>
          <note key="13" vol="197" pan="0" len="12" pos="1716"/>
          <note key="13" vol="197" pan="0" len="24" pos="1728"/>
          <note key="13" vol="197" pan="0" len="24" pos="1752"/>
          <note key="13" vol="197" pan="0" len="12" pos="1776"/>
          <note key="13" vol="197" pan="0" len="12" pos="1788"/>
          <note key="13" vol="197" pan="0" len="24" pos="1800"/>
          <note key="13" vol="197" pan="0" len="24" pos="1824"/>
          <note key="13" vol="197" pan="0" len="24" pos="1848"/>
          <note key="13" vol="197" pan="0" len="12" pos="1872"/>
          <note key="13" vol="197" pan="0" len="12" pos="1884"/>
          <note key="13" vol="197" pan="0" len="24" pos="1896"/>
          <note key="14" vol="197" pan="0" len="24" pos="1920"/>
          <note key="14" vol="197" pan="0" len="12" pos="1944"/>
          <note key="14" vol="197" pan="0" len="12" pos="1956"/>
          <note key="14" vol="197" pan="0" len="24" pos="1968"/>
          <note key="14" vol="197" pan="0" len="24" pos="1992"/>
          <note key="14" vol="197" pan="0" len="12" pos="2016"/>
          <note key="14" vol="197" pan="0" len="12" pos="2028"/>
          <note key="14" vol="197" pan="0" len="24" pos="2040"/>
          <note key="14" vol="197" pan="0" len="24" pos="2064"/>
          <note key="14" vol="197" pan="0" len="12" pos="2088"/>
          <note key="14" vol="197" pan="0" len="12" pos="2100"/>
          <note key="14" vol="197" pan="0" len="24" pos="2112"/>
          <note key="14" vol="197" pan="0" len="24" pos="2136"/>
          <note key="14" vol="197" pan="0" len="12" pos="2160"/>
          <note key="14" vol="197" pan="0" len="12" pos="2172"/>
          <note key="14" vol="197" pan="0" len="24" pos="2184"/>
          <note key="14" vol="197" pan="0" len="24" pos="2208"/>
          <note key="14" vol="197" pan="0" len="24" pos="2232"/>
          <note key="14" vol="197" pan="0" len="12" pos="2256"/>
          <note key="14" vol="197" pan="0" len="12" pos="2268"/>
          <note key="14" vol="197" pan="0" len="24" pos="2280"/>
          <note key="15" vol="197" pan="0" len="24" pos="2304"/>
          <note key="15" vol="197" pan="0" len="12" pos="2328"/>
          <note key="15" vol="197" pan="0" len="12" pos="2340"/>
          <note key="15" vol="197" pan="0" len="24" pos="2352"/>
          <note key="15" vol="197" pan="0" len="24" pos="2376"/>
          <note key="15" vol="197" pan="0" len="12" pos="2400"/>
          <note key="15" vol="197" pan="0" len="12" pos="2412"/>
          <note key="15" vol="197" pan="0" len="24" pos="2424"/>
          <note key="15" vol="197" pan="0" len="24" pos="2448"/>
          <note key="15" vol="197" pan="0" len="12" pos="2472"/>
          <note key="15" vol="197" pan="0" len="12" pos="2484"/>
          <note key="15" vol="197" pan="0" len="24" pos="2496"/>
          <note key="15" vol="197" pan="0" len="24" pos="2520"/>
          <note key="15" vol="197" pan="0" len="12" pos="2544"/>
          <note key="15" vol="197" pan="0" len="12" pos="2556"/>
          <note key="15" vol="197" pan="0" len="24" pos="2568"/>
          <note key="15" vol="197" pan="0" len="24" pos="2592"/>
          <note key="15" vol="197" pan="0" len="24" pos="2616"/>
          <note key="15" vol="197" pan="0" len="12" pos="2640"/>
          <note key="15" vol="197" pan="0" len="12" pos="2652"/>
          <note key="15" vol="197" pan="0" len="24" pos="2664"/>
          <note key="20" vol="197" pan="0" len="24" pos="2688"/>
          <note key="20" vol="197" pan="0" len="12" pos="2712"/>
          <note key="20" vol="197" pan="0" len="12" pos="2724"/>
          <note key="20" vol="197" pan="0" len="24" pos="2736"/>
          <note key="20" vol="197" pan="0" len="24" pos="2760"/>
          <note key="20" vol="197" pan="0" len="12" pos="2784"/>
          <note key="20" vol="197" pan="0" len="12" pos="2796"/>
          <note key="20" vol="197" pan="0" len="24" pos="2808"/>
          <note key="20" vol="197" pan="0" len="24" pos="2832"/>
          <note key="20" vol="197" pan="0" len="12" pos="2856"/>
          <note key="20" vol="197" pan="0" len="12" pos="2868"/>
          <note key="20" vol="197" pan="0" len="48" pos="2880"/>
          <note key="20" vol="197" pan="0" len="48" pos="2928"/>
          <note key="20" vol="197" pan="0" len="48" pos="2976"/>
          <note key="20" vol="197" pan="0" len="48" pos="3024"/>
        </pattern>
        <pattern name="bass fender jazz (1,379kb)" muted="0" type="1" steps="16" pos="13824">
          <note key="23" vol="197" pan="0" len="24" pos="0"/>
          <note key="20" vol="197" pan="0" len="12" pos="24"/>
          <note key="20" vol="197" pan="0" len="12" pos="36"/>
          <note key="20" vol="197" pan="0" len="12" pos="48"/>
          <note key="20" vol="197" pan="0" len="12" pos="60"/>
          <note key="20" vol="197" pan="0" len="48" pos="72"/>
          <note key="20" vol="197" pan="0" len="24" pos="120"/>
          <note key="20" vol="197" pan="0" len="24" pos="144"/>
          <note key="20" vol="197" pan="0" len="24" pos="168"/>
        </pattern>
        <pattern name="bass fender jazz (1,379kb)" muted="0" type="1" steps="16" pos="14016">
          <note key="21" vol="197" pan="0" len="12" pos="0"/>
          <note key="21" vol="197" pan="0" len="12" pos="12"/>
          <note key="21" vol="197" pan="0" len="12" pos="24"/>
          <note key="21" vol="197" pan="0" len="12" pos="36"/>
          <note key="25" vol="197" pan="0" len="12" pos="48"/>
          <note key="25" vol="197" pan="0" len="12" pos="60"/>
          <note key="21" vol="197" pan="0" len="12" pos="72"/>
          <note key="21" vol="197" pan="0" len="12" pos="84"/>
          <note key="23" vol="197" pan="0" len="12" pos="96"/>
          <note key="23" vol="197" pan="0" len="12" pos="108"/>
          <note key="23" vol="197" pan="0" len="12" pos="120"/>
          <note key="23" vol="197" pan="0" len="12" pos="132"/>
          <note key="28" vol="197" pan="0" len="12" pos="144"/>
          <note key="27" vol="197" pan="0" len="12" pos="156"/>
          <note key="25" vol="197" pan="0" len="12" pos="168"/>
          <note key="23" vol="197" pan="0" len="12" pos="180"/>
        </pattern>
        <pattern name="bass fender jazz (1,379kb)" muted="0" type="1" steps="16" pos="14208">
          <note key="14" vol="200" pan="0" len="12" pos="0"/>
          <note key="14" vol="200" pan="0" len="12" pos="12"/>
          <note key="14" vol="200" pan="0" len="24" pos="24"/>
          <note key="14" vol="200" pan="0" len="12" pos="48"/>
          <note key="14" vol="200" pan="0" len="12" pos="60"/>
          <note key="14" vol="200" pan="0" len="24" pos="72"/>
          <note key="14" vol="200" pan="0" len="12" pos="96"/>
          <note key="14" vol="200" pan="0" len="12" pos="108"/>
          <note key="14" vol="200" pan="0" len="24" pos="120"/>
          <note key="14" vol="200" pan="0" len="12" pos="144"/>
          <note key="14" vol="200" pan="0" len="12" pos="156"/>
          <note key="14" vol="200" pan="0" len="24" pos="168"/>
          <note key="14" vol="200" pan="0" len="12" pos="192"/>
          <note key="14" vol="200" pan="0" len="12" pos="204"/>
          <note key="14" vol="200" pan="0" len="24" pos="216"/>
          <note key="14" vol="200" pan="0" len="12" pos="240"/>
          <note key="14" vol="200" pan="0" len="12" pos="252"/>
          <note key="14" vol="200" pan="0" len="24" pos="264"/>
          <note key="14" vol="200" pan="0" len="12" pos="288"/>
          <note key="14" vol="200" pan="0" len="12" pos="300"/>
          <note key="14" vol="200" pan="0" len="24" pos="312"/>
          <note key="14" vol="200" pan="0" len="12" pos="336"/>
          <note key="14" vol="200" pan="0" len="12" pos="348"/>
          <note key="14" vol="200" pan="0" len="24" pos="360"/>
          <note key="13" vol="200" pan="0" len="12" pos="384"/>
          <note key="13" vol="200" pan="0" len="12" pos="396"/>
          <note key="13" vol="200" pan="0" len="24" pos="408"/>
          <note key="13" vol="200" pan="0" len="12" pos="432"/>
          <note key="13" vol="200" pan="0" len="12" pos="444"/>
          <note key="13" vol="200" pan="0" len="24" pos="456"/>
          <note key="13" vol="200" pan="0" len="12" pos="480"/>
          <note key="13" vol="200" pan="0" len="12" pos="492"/>
          <note key="13" vol="200" pan="0" len="24" pos="504"/>
          <note key="13" vol="200" pan="0" len="12" pos="528"/>
          <note key="13" vol="200" pan="0" len="12" pos="540"/>
          <note key="13" vol="200" pan="0" len="24" pos="552"/>
          <note key="11" vol="200" pan="0" len="12" pos="576"/>
          <note key="11" vol="200" pan="0" len="12" pos="588"/>
          <note key="11" vol="200" pan="0" len="24" pos="600"/>
          <note key="11" vol="200" pan="0" len="12" pos="624"/>
          <note key="11" vol="200" pan="0" len="12" pos="636"/>
          <note key="11" vol="200" pan="0" len="24" pos="648"/>
          <note key="11" vol="200" pan="0" len="12" pos="672"/>
          <note key="11" vol="200" pan="0" len="12" pos="684"/>
          <note key="11" vol="200" pan="0" len="24" pos="696"/>
          <note key="11" vol="200" pan="0" len="12" pos="720"/>
          <note key="11" vol="200" pan="0" len="12" pos="732"/>
          <note key="11" vol="200" pan="0" len="24" pos="744"/>
        </pattern>
        <pattern name="bass fender jazz (1,379kb)" muted="0" type="1" steps="16" pos="14976">
          <note key="16" vol="197" pan="0" len="24" pos="0"/>
          <note key="18" vol="197" pan="0" len="24" pos="24"/>
          <note key="18" vol="197" pan="0" len="12" pos="48"/>
          <note key="18" vol="197" pan="0" len="12" pos="60"/>
          <note key="23" vol="197" pan="0" len="24" pos="72"/>
          <note key="25" vol="197" pan="0" len="24" pos="96"/>
          <note key="18" vol="197" pan="0" len="24" pos="120"/>
          <note key="16" vol="197" pan="0" len="24" pos="144"/>
          <note key="18" vol="197" pan="0" len="24" pos="168"/>
        </pattern>
        <pattern name="bass fender jazz (1,379kb)" muted="0" type="1" steps="16" pos="15168">
          <note key="16" vol="197" pan="0" len="24" pos="0"/>
          <note key="18" vol="197" pan="0" len="24" pos="24"/>
          <note key="18" vol="197" pan="0" len="12" pos="48"/>
          <note key="18" vol="197" pan="0" len="12" pos="60"/>
          <note key="23" vol="197" pan="0" len="24" pos="72"/>
          <note key="25" vol="197" pan="0" len="24" pos="96"/>
          <note key="18" vol="197" pan="0" len="24" pos="120"/>
          <note key="16" vol="197" pan="0" len="24" pos="144"/>
          <note key="18" vol="197" pan="0" len="24" pos="168"/>
        </pattern>
        <pattern name="bass fender jazz (1,379kb)" muted="0" type="1" steps="16" pos="15360">
          <note key="15" vol="197" pan="0" len="24" pos="0"/>
          <note key="15" vol="197" pan="0" len="12" pos="24"/>
          <note key="15" vol="197" pan="0" len="12" pos="36"/>
          <note key="15" vol="197" pan="0" len="12" pos="48"/>
          <note key="15" vol="197" pan="0" len="12" pos="60"/>
          <note key="15" vol="197" pan="0" len="12" pos="72"/>
          <note key="15" vol="197" pan="0" len="12" pos="84"/>
          <note key="15" vol="197" pan="0" len="12" pos="96"/>
          <note key="15" vol="197" pan="0" len="12" pos="108"/>
          <note key="15" vol="197" pan="0" len="12" pos="120"/>
          <note key="15" vol="197" pan="0" len="12" pos="132"/>
          <note key="15" vol="197" pan="0" len="12" pos="144"/>
          <note key="15" vol="197" pan="0" len="12" pos="156"/>
          <note key="15" vol="197" pan="0" len="12" pos="168"/>
          <note key="15" vol="197" pan="0" len="12" pos="180"/>
          <note key="21" vol="197" pan="0" len="96" pos="192"/>
          <note key="20" vol="197" pan="0" len="96" pos="288"/>
        </pattern>
        <pattern name="bass fender jazz (1,379kb)" muted="0" type="1" steps="16" pos="28800">
          <note key="25" vol="200" pan="0" len="48" pos="0"/>
          <note key="13" vol="200" pan="0" len="24" pos="48"/>
          <note key="13" vol="200" pan="0" len="12" pos="72"/>
          <note key="13" vol="200" pan="0" len="12" pos="84"/>
          <note key="13" vol="200" pan="0" len="12" pos="96"/>
          <note key="13" vol="200" pan="0" len="12" pos="108"/>
          <note key="13" vol="200" pan="0" len="24" pos="120"/>
          <note key="13" vol="200" pan="0" len="12" pos="144"/>
          <note key="13" vol="200" pan="0" len="12" pos="156"/>
          <note key="13" vol="200" pan="0" len="12" pos="168"/>
          <note key="13" vol="200" pan="0" len="12" pos="180"/>
          <note key="13" vol="200" pan="0" len="24" pos="192"/>
          <note key="13" vol="200" pan="0" len="12" pos="216"/>
          <note key="13" vol="200" pan="0" len="12" pos="228"/>
          <note key="13" vol="200" pan="0" len="12" pos="240"/>
          <note key="13" vol="200" pan="0" len="12" pos="252"/>
          <note key="13" vol="200" pan="0" len="24" pos="264"/>
          <note key="13" vol="200" pan="0" len="12" pos="288"/>
          <note key="13" vol="200" pan="0" len="12" pos="300"/>
          <note key="13" vol="200" pan="0" len="24" pos="312"/>
          <note key="13" vol="200" pan="0" len="12" pos="336"/>
          <note key="13" vol="200" pan="0" len="12" pos="348"/>
          <note key="13" vol="200" pan="0" len="12" pos="360"/>
          <note key="13" vol="200" pan="0" len="12" pos="372"/>
          <note key="13" vol="200" pan="0" len="48" pos="384"/>
          <note key="13" vol="200" pan="0" len="24" pos="432"/>
          <note key="13" vol="200" pan="0" len="12" pos="456"/>
          <note key="13" vol="200" pan="0" len="12" pos="468"/>
          <note key="13" vol="200" pan="0" len="12" pos="480"/>
          <note key="13" vol="200" pan="0" len="12" pos="492"/>
          <note key="13" vol="200" pan="0" len="24" pos="504"/>
          <note key="13" vol="200" pan="0" len="12" pos="528"/>
          <note key="13" vol="200" pan="0" len="12" pos="540"/>
          <note key="13" vol="200" pan="0" len="12" pos="552"/>
          <note key="13" vol="200" pan="0" len="12" pos="564"/>
          <note key="13" vol="200" pan="0" len="24" pos="576"/>
          <note key="13" vol="200" pan="0" len="12" pos="600"/>
          <note key="13" vol="200" pan="0" len="12" pos="612"/>
          <note key="13" vol="200" pan="0" len="12" pos="624"/>
          <note key="13" vol="200" pan="0" len="12" pos="636"/>
          <note key="13" vol="200" pan="0" len="24" pos="648"/>
          <note key="13" vol="200" pan="0" len="12" pos="672"/>
          <note key="13" vol="200" pan="0" len="12" pos="684"/>
          <note key="16" vol="200" pan="0" len="24" pos="696"/>
          <note key="18" vol="200" pan="0" len="24" pos="720"/>
          <note key="20" vol="200" pan="0" len="24" pos="744"/>
        </pattern>
        <pattern name="bass fender jazz (1,379kb)" muted="0" type="1" steps="16" pos="29568">
          <note key="25" vol="200" pan="0" len="48" pos="0"/>
          <note key="13" vol="200" pan="0" len="24" pos="48"/>
          <note key="13" vol="200" pan="0" len="12" pos="72"/>
          <note key="13" vol="200" pan="0" len="12" pos="84"/>
          <note key="13" vol="200" pan="0" len="12" pos="96"/>
          <note key="13" vol="200" pan="0" len="12" pos="108"/>
          <note key="13" vol="200" pan="0" len="24" pos="120"/>
          <note key="13" vol="200" pan="0" len="12" pos="144"/>
          <note key="13" vol="200" pan="0" len="12" pos="156"/>
          <note key="13" vol="200" pan="0" len="12" pos="168"/>
          <note key="13" vol="200" pan="0" len="12" pos="180"/>
          <note key="13" vol="200" pan="0" len="24" pos="192"/>
          <note key="13" vol="200" pan="0" len="12" pos="216"/>
          <note key="13" vol="200" pan="0" len="12" pos="228"/>
          <note key="13" vol="200" pan="0" len="12" pos="240"/>
          <note key="13" vol="200" pan="0" len="12" pos="252"/>
          <note key="13" vol="200" pan="0" len="24" pos="264"/>
          <note key="13" vol="200" pan="0" len="12" pos="288"/>
          <note key="13" vol="200" pan="0" len="12" pos="300"/>
          <note key="13" vol="200" pan="0" len="24" pos="312"/>
          <note key="13" vol="200" pan="0" len="12" pos="336"/>
          <note key="13" vol="200" pan="0" len="12" pos="348"/>
          <note key="13" vol="200" pan="0" len="12" pos="360"/>
          <note key="13" vol="200" pan="0" len="12" pos="372"/>
          <note key="13" vol="200" pan="0" len="48" pos="384"/>
          <note key="13" vol="200" pan="0" len="24" pos="432"/>
          <note key="13" vol="200" pan="0" len="12" pos="456"/>
          <note key="13" vol="200" pan="0" len="12" pos="468"/>
          <note key="13" vol="200" pan="0" len="12" pos="480"/>
          <note key="13" vol="200" pan="0" len="12" pos="492"/>
          <note key="13" vol="200" pan="0" len="24" pos="504"/>
          <note key="13" vol="200" pan="0" len="12" pos="528"/>
          <note key="13" vol="200" pan="0" len="12" pos="540"/>
          <note key="13" vol="200" pan="0" len="12" pos="552"/>
          <note key="13" vol="200" pan="0" len="12" pos="564"/>
          <note key="13" vol="200" pan="0" len="24" pos="576"/>
          <note key="13" vol="200" pan="0" len="12" pos="600"/>
          <note key="13" vol="200" pan="0" len="12" pos="612"/>
          <note key="13" vol="200" pan="0" len="12" pos="624"/>
          <note key="13" vol="200" pan="0" len="12" pos="636"/>
          <note key="13" vol="200" pan="0" len="24" pos="648"/>
          <note key="13" vol="200" pan="0" len="12" pos="672"/>
          <note key="13" vol="200" pan="0" len="12" pos="684"/>
          <note key="16" vol="200" pan="0" len="24" pos="696"/>
          <note key="18" vol="200" pan="0" len="24" pos="720"/>
          <note key="20" vol="200" pan="0" len="24" pos="744"/>
        </pattern>
        <pattern name="bass fender jazz (1,379kb)" muted="0" type="1" steps="16" pos="30336">
          <note key="26" vol="200" pan="0" len="48" pos="0"/>
          <note key="0" vol="200" pan="0" len="24" pos="0"/>
          <note key="14" vol="200" pan="0" len="24" pos="48"/>
          <note key="1" vol="200" pan="0" len="24" pos="60"/>
          <note key="14" vol="200" pan="0" len="12" pos="72"/>
          <note key="14" vol="200" pan="0" len="12" pos="84"/>
          <note key="14" vol="200" pan="0" len="12" pos="96"/>
          <note key="14" vol="200" pan="0" len="12" pos="108"/>
          <note key="14" vol="200" pan="0" len="24" pos="120"/>
          <note key="0" vol="200" pan="0" len="24" pos="120"/>
          <note key="1" vol="200" pan="0" len="24" pos="132"/>
          <note key="14" vol="200" pan="0" len="12" pos="144"/>
          <note key="14" vol="200" pan="0" len="12" pos="156"/>
          <note key="14" vol="200" pan="0" len="12" pos="168"/>
          <note key="14" vol="200" pan="0" len="12" pos="180"/>
          <note key="14" vol="200" pan="0" len="24" pos="192"/>
          <note key="0" vol="200" pan="0" len="24" pos="192"/>
          <note key="1" vol="200" pan="0" len="24" pos="204"/>
          <note key="14" vol="200" pan="0" len="12" pos="216"/>
          <note key="14" vol="200" pan="0" len="12" pos="228"/>
          <note key="14" vol="200" pan="0" len="12" pos="240"/>
          <note key="14" vol="200" pan="0" len="12" pos="252"/>
          <note key="14" vol="200" pan="0" len="24" pos="264"/>
          <note key="0" vol="200" pan="0" len="24" pos="264"/>
          <note key="1" vol="200" pan="0" len="24" pos="276"/>
          <note key="14" vol="200" pan="0" len="12" pos="288"/>
          <note key="14" vol="200" pan="0" len="12" pos="300"/>
          <note key="14" vol="200" pan="0" len="24" pos="312"/>
          <note key="0" vol="200" pan="0" len="24" pos="312"/>
          <note key="1" vol="200" pan="0" len="24" pos="324"/>
          <note key="14" vol="200" pan="0" len="12" pos="336"/>
          <note key="14" vol="200" pan="0" len="12" pos="348"/>
          <note key="14" vol="200" pan="0" len="12" pos="360"/>
          <note key="14" vol="200" pan="0" len="12" pos="372"/>
          <note key="14" vol="200" pan="0" len="48" pos="384"/>
          <note key="0" vol="200" pan="0" len="24" pos="384"/>
          <note key="14" vol="200" pan="0" len="24" pos="432"/>
          <note key="1" vol="200" pan="0" len="24" pos="444"/>
          <note key="14" vol="200" pan="0" len="12" pos="456"/>
          <note key="14" vol="200" pan="0" len="12" pos="468"/>
          <note key="14" vol="200" pan="0" len="12" pos="480"/>
          <note key="14" vol="200" pan="0" len="12" pos="492"/>
          <note key="14" vol="200" pan="0" len="24" pos="504"/>
          <note key="0" vol="200" pan="0" len="24" pos="504"/>
          <note key="1" vol="200" pan="0" len="24" pos="516"/>
          <note key="14" vol="200" pan="0" len="12" pos="528"/>
          <note key="14" vol="200" pan="0" len="12" pos="540"/>
          <note key="14" vol="200" pan="0" len="12" pos="552"/>
          <note key="14" vol="200" pan="0" len="12" pos="564"/>
          <note key="14" vol="200" pan="0" len="24" pos="576"/>
          <note key="0" vol="200" pan="0" len="24" pos="576"/>
          <note key="1" vol="200" pan="0" len="24" pos="588"/>
          <note key="14" vol="200" pan="0" len="12" pos="600"/>
          <note key="14" vol="200" pan="0" len="12" pos="612"/>
          <note key="14" vol="200" pan="0" len="12" pos="624"/>
          <note key="14" vol="200" pan="0" len="12" pos="636"/>
          <note key="14" vol="200" pan="0" len="24" pos="648"/>
          <note key="0" vol="200" pan="0" len="24" pos="648"/>
          <note key="1" vol="200" pan="0" len="24" pos="660"/>
          <note key="14" vol="200" pan="0" len="12" pos="672"/>
          <note key="14" vol="200" pan="0" len="12" pos="684"/>
          <note key="21" vol="200" pan="0" len="24" pos="696"/>
          <note key="20" vol="200" pan="0" len="24" pos="720"/>
          <note key="16" vol="200" pan="0" len="24" pos="744"/>
        </pattern>
        <pattern name="bass fender jazz (1,379kb)" muted="0" type="1" steps="16" pos="31104">
          <note key="25" vol="200" pan="0" len="48" pos="0"/>
          <note key="13" vol="200" pan="0" len="24" pos="48"/>
          <note key="13" vol="200" pan="0" len="12" pos="72"/>
          <note key="13" vol="200" pan="0" len="12" pos="84"/>
          <note key="13" vol="200" pan="0" len="12" pos="96"/>
          <note key="13" vol="200" pan="0" len="12" pos="108"/>
          <note key="13" vol="200" pan="0" len="24" pos="120"/>
          <note key="13" vol="200" pan="0" len="12" pos="144"/>
          <note key="13" vol="200" pan="0" len="12" pos="156"/>
          <note key="13" vol="200" pan="0" len="12" pos="168"/>
          <note key="13" vol="200" pan="0" len="12" pos="180"/>
          <note key="13" vol="200" pan="0" len="24" pos="192"/>
          <note key="13" vol="200" pan="0" len="12" pos="216"/>
          <note key="13" vol="200" pan="0" len="12" pos="228"/>
          <note key="13" vol="200" pan="0" len="12" pos="240"/>
          <note key="13" vol="200" pan="0" len="12" pos="252"/>
          <note key="13" vol="200" pan="0" len="24" pos="264"/>
          <note key="13" vol="200" pan="0" len="12" pos="288"/>
          <note key="13" vol="200" pan="0" len="12" pos="300"/>
          <note key="13" vol="200" pan="0" len="24" pos="312"/>
          <note key="13" vol="200" pan="0" len="12" pos="336"/>
          <note key="13" vol="200" pan="0" len="12" pos="348"/>
          <note key="13" vol="200" pan="0" len="12" pos="360"/>
          <note key="13" vol="200" pan="0" len="12" pos="372"/>
          <note key="11" vol="200" pan="0" len="48" pos="384"/>
          <note key="11" vol="200" pan="0" len="24" pos="432"/>
          <note key="11" vol="200" pan="0" len="12" pos="456"/>
          <note key="11" vol="200" pan="0" len="12" pos="468"/>
          <note key="11" vol="200" pan="0" len="12" pos="480"/>
          <note key="11" vol="200" pan="0" len="12" pos="492"/>
          <note key="11" vol="200" pan="0" len="24" pos="504"/>
          <note key="11" vol="200" pan="0" len="12" pos="528"/>
          <note key="11" vol="200" pan="0" len="12" pos="540"/>
          <note key="11" vol="200" pan="0" len="12" pos="552"/>
          <note key="11" vol="200" pan="0" len="12" pos="564"/>
          <note key="11" vol="200" pan="0" len="24" pos="576"/>
          <note key="11" vol="200" pan="0" len="12" pos="600"/>
          <note key="11" vol="200" pan="0" len="12" pos="612"/>
          <note key="11" vol="200" pan="0" len="12" pos="624"/>
          <note key="11" vol="200" pan="0" len="12" pos="636"/>
          <note key="11" vol="200" pan="0" len="24" pos="648"/>
          <note key="11" vol="200" pan="0" len="12" pos="672"/>
          <note key="11" vol="200" pan="0" len="12" pos="684"/>
          <note key="15" vol="200" pan="0" len="24" pos="696"/>
          <note key="16" vol="200" pan="0" len="24" pos="720"/>
          <note key="18" vol="200" pan="0" len="24" pos="744"/>
        </pattern>
        <pattern name="bass fender jazz (1,379kb)" muted="0" type="1" steps="16" pos="31872">
          <note key="9" vol="200" pan="0" len="48" pos="0"/>
          <note key="9" vol="200" pan="0" len="24" pos="48"/>
          <note key="9" vol="200" pan="0" len="12" pos="72"/>
          <note key="9" vol="200" pan="0" len="12" pos="84"/>
          <note key="9" vol="200" pan="0" len="12" pos="96"/>
          <note key="9" vol="200" pan="0" len="12" pos="108"/>
          <note key="9" vol="200" pan="0" len="24" pos="120"/>
          <note key="9" vol="200" pan="0" len="12" pos="144"/>
          <note key="9" vol="200" pan="0" len="12" pos="156"/>
          <note key="9" vol="200" pan="0" len="12" pos="168"/>
          <note key="9" vol="200" pan="0" len="12" pos="180"/>
          <note key="9" vol="200" pan="0" len="24" pos="192"/>
          <note key="9" vol="200" pan="0" len="12" pos="216"/>
          <note key="9" vol="200" pan="0" len="12" pos="228"/>
          <note key="9" vol="200" pan="0" len="12" pos="240"/>
          <note key="9" vol="200" pan="0" len="12" pos="252"/>
          <note key="9" vol="200" pan="0" len="24" pos="264"/>
          <note key="9" vol="200" pan="0" len="12" pos="288"/>
          <note key="9" vol="200" pan="0" len="12" pos="300"/>
          <note key="9" vol="200" pan="0" len="24" pos="312"/>
          <note key="9" vol="200" pan="0" len="12" pos="336"/>
          <note key="9" vol="200" pan="0" len="12" pos="348"/>
          <note key="9" vol="200" pan="0" len="12" pos="360"/>
          <note key="9" vol="200" pan="0" len="12" pos="372"/>
          <note key="11" vol="200" pan="0" len="48" pos="384"/>
          <note key="11" vol="200" pan="0" len="24" pos="432"/>
          <note key="11" vol="200" pan="0" len="12" pos="456"/>
          <note key="11" vol="200" pan="0" len="12" pos="468"/>
          <note key="11" vol="200" pan="0" len="12" pos="480"/>
          <note key="11" vol="200" pan="0" len="12" pos="492"/>
          <note key="11" vol="200" pan="0" len="24" pos="504"/>
          <note key="11" vol="200" pan="0" len="12" pos="528"/>
          <note key="11" vol="200" pan="0" len="12" pos="540"/>
          <note key="11" vol="200" pan="0" len="12" pos="552"/>
          <note key="11" vol="200" pan="0" len="12" pos="564"/>
          <note key="11" vol="200" pan="0" len="24" pos="576"/>
          <note key="11" vol="200" pan="0" len="12" pos="600"/>
          <note key="11" vol="200" pan="0" len="12" pos="612"/>
          <note key="11" vol="200" pan="0" len="12" pos="624"/>
          <note key="11" vol="200" pan="0" len="12" pos="636"/>
          <note key="11" vol="200" pan="0" len="24" pos="648"/>
          <note key="11" vol="200" pan="0" len="12" pos="672"/>
          <note key="11" vol="200" pan="0" len="12" pos="684"/>
          <note key="11" vol="200" pan="0" len="24" pos="696"/>
          <note key="11" vol="200" pan="0" len="12" pos="720"/>
          <note key="11" vol="200" pan="0" len="12" pos="732"/>
          <note key="11" vol="200" pan="0" len="12" pos="744"/>
          <note key="11" vol="200" pan="0" len="12" pos="756"/>
        </pattern>
        <pattern name="bass fender jazz (1,379kb)" muted="0" type="1" steps="16" pos="32640">
          <note key="18" vol="200" pan="0" len="48" pos="0"/>
          <note key="18" vol="200" pan="0" len="24" pos="48"/>
          <note key="18" vol="200" pan="0" len="12" pos="72"/>
          <note key="18" vol="200" pan="0" len="12" pos="84"/>
          <note key="18" vol="200" pan="0" len="12" pos="96"/>
          <note key="18" vol="200" pan="0" len="12" pos="108"/>
          <note key="18" vol="200" pan="0" len="24" pos="120"/>
          <note key="18" vol="200" pan="0" len="12" pos="144"/>
          <note key="18" vol="200" pan="0" len="12" pos="156"/>
          <note key="18" vol="200" pan="0" len="12" pos="168"/>
          <note key="18" vol="200" pan="0" len="12" pos="180"/>
          <note key="18" vol="200" pan="0" len="24" pos="192"/>
          <note key="18" vol="200" pan="0" len="12" pos="216"/>
          <note key="18" vol="200" pan="0" len="12" pos="228"/>
          <note key="18" vol="200" pan="0" len="12" pos="240"/>
          <note key="18" vol="200" pan="0" len="12" pos="252"/>
          <note key="18" vol="200" pan="0" len="24" pos="264"/>
          <note key="18" vol="200" pan="0" len="12" pos="288"/>
          <note key="18" vol="200" pan="0" len="12" pos="300"/>
          <note key="18" vol="200" pan="0" len="24" pos="312"/>
          <note key="18" vol="200" pan="0" len="12" pos="336"/>
          <note key="18" vol="200" pan="0" len="12" pos="348"/>
          <note key="18" vol="200" pan="0" len="12" pos="360"/>
          <note key="18" vol="200" pan="0" len="12" pos="372"/>
          <note key="8" vol="200" pan="0" len="48" pos="384"/>
          <note key="8" vol="200" pan="0" len="24" pos="432"/>
          <note key="8" vol="200" pan="0" len="12" pos="456"/>
          <note key="8" vol="200" pan="0" len="12" pos="468"/>
          <note key="8" vol="200" pan="0" len="12" pos="480"/>
          <note key="8" vol="200" pan="0" len="12" pos="492"/>
          <note key="8" vol="200" pan="0" len="24" pos="504"/>
          <note key="8" vol="200" pan="0" len="12" pos="528"/>
          <note key="8" vol="200" pan="0" len="12" pos="540"/>
          <note key="8" vol="200" pan="0" len="12" pos="552"/>
          <note key="8" vol="200" pan="0" len="12" pos="564"/>
          <note key="8" vol="200" pan="0" len="24" pos="576"/>
          <note key="8" vol="200" pan="0" len="12" pos="600"/>
          <note key="8" vol="200" pan="0" len="12" pos="612"/>
          <note key="8" vol="200" pan="0" len="12" pos="624"/>
          <note key="8" vol="200" pan="0" len="12" pos="636"/>
          <note key="8" vol="200" pan="0" len="24" pos="648"/>
          <note key="8" vol="200" pan="0" len="12" pos="672"/>
          <note key="8" vol="200" pan="0" len="12" pos="684"/>
          <note key="8" vol="200" pan="0" len="24" pos="696"/>
          <note key="8" vol="200" pan="0" len="12" pos="720"/>
          <note key="8" vol="200" pan="0" len="12" pos="732"/>
          <note key="8" vol="200" pan="0" len="12" pos="744"/>
          <note key="8" vol="200" pan="0" len="12" pos="756"/>
        </pattern>
        <pattern name="bass fender jazz (1,379kb)" muted="0" type="1" steps="16" pos="33408">
          <note key="15" vol="200" pan="0" len="48" pos="0"/>
          <note key="15" vol="200" pan="0" len="24" pos="48"/>
          <note key="15" vol="200" pan="0" len="12" pos="72"/>
          <note key="15" vol="200" pan="0" len="12" pos="84"/>
          <note key="15" vol="200" pan="0" len="12" pos="96"/>
          <note key="15" vol="200" pan="0" len="12" pos="108"/>
          <note key="15" vol="200" pan="0" len="24" pos="120"/>
          <note key="15" vol="200" pan="0" len="12" pos="144"/>
          <note key="15" vol="200" pan="0" len="12" pos="156"/>
          <note key="15" vol="200" pan="0" len="12" pos="168"/>
          <note key="15" vol="200" pan="0" len="12" pos="180"/>
          <note key="15" vol="200" pan="0" len="24" pos="192"/>
          <note key="15" vol="200" pan="0" len="12" pos="216"/>
          <note key="15" vol="200" pan="0" len="12" pos="228"/>
          <note key="15" vol="200" pan="0" len="12" pos="240"/>
          <note key="15" vol="200" pan="0" len="12" pos="252"/>
          <note key="15" vol="200" pan="0" len="24" pos="264"/>
          <note key="15" vol="200" pan="0" len="12" pos="288"/>
          <note key="15" vol="200" pan="0" len="12" pos="300"/>
          <note key="15" vol="200" pan="0" len="24" pos="312"/>
          <note key="15" vol="200" pan="0" len="12" pos="336"/>
          <note key="15" vol="200" pan="0" len="12" pos="348"/>
          <note key="15" vol="200" pan="0" len="12" pos="360"/>
          <note key="15" vol="200" pan="0" len="12" pos="372"/>
          <note key="14" vol="200" pan="0" len="48" pos="384"/>
          <note key="14" vol="200" pan="0" len="24" pos="432"/>
          <note key="14" vol="200" pan="0" len="12" pos="456"/>
          <note key="14" vol="200" pan="0" len="12" pos="468"/>
          <note key="14" vol="200" pan="0" len="12" pos="480"/>
          <note key="14" vol="200" pan="0" len="12" pos="492"/>
          <note key="14" vol="200" pan="0" len="24" pos="504"/>
          <note key="14" vol="200" pan="0" len="12" pos="528"/>
          <note key="14" vol="200" pan="0" len="12" pos="540"/>
          <note key="14" vol="200" pan="0" len="12" pos="552"/>
          <note key="14" vol="200" pan="0" len="12" pos="564"/>
          <note key="14" vol="200" pan="0" len="24" pos="576"/>
          <note key="14" vol="200" pan="0" len="12" pos="600"/>
          <note key="14" vol="200" pan="0" len="12" pos="612"/>
          <note key="14" vol="200" pan="0" len="12" pos="624"/>
          <note key="14" vol="200" pan="0" len="12" pos="636"/>
          <note key="14" vol="200" pan="0" len="24" pos="648"/>
          <note key="14" vol="200" pan="0" len="12" pos="672"/>
          <note key="14" vol="200" pan="0" len="12" pos="684"/>
          <note key="14" vol="200" pan="0" len="24" pos="696"/>
          <note key="14" vol="200" pan="0" len="12" pos="720"/>
          <note key="14" vol="200" pan="0" len="12" pos="732"/>
          <note key="14" vol="200" pan="0" len="12" pos="744"/>
          <note key="14" vol="200" pan="0" len="12" pos="756"/>
        </pattern>
        <pattern name="bass fender jazz (1,379kb)" muted="0" type="1" steps="16" pos="34176">
          <note key="19" vol="200" pan="0" len="48" pos="0"/>
          <note key="0" vol="200" pan="0" len="24" pos="0"/>
          <note key="19" vol="200" pan="0" len="24" pos="48"/>
          <note key="1" vol="200" pan="0" len="24" pos="60"/>
          <note key="19" vol="200" pan="0" len="12" pos="72"/>
          <note key="19" vol="200" pan="0" len="12" pos="84"/>
          <note key="19" vol="200" pan="0" len="12" pos="96"/>
          <note key="19" vol="200" pan="0" len="12" pos="108"/>
          <note key="19" vol="200" pan="0" len="24" pos="120"/>
          <note key="0" vol="200" pan="0" len="24" pos="120"/>
          <note key="1" vol="200" pan="0" len="24" pos="132"/>
          <note key="19" vol="200" pan="0" len="12" pos="144"/>
          <note key="19" vol="200" pan="0" len="12" pos="156"/>
          <note key="19" vol="200" pan="0" len="12" pos="168"/>
          <note key="19" vol="200" pan="0" len="12" pos="180"/>
          <note key="19" vol="200" pan="0" len="24" pos="192"/>
          <note key="0" vol="200" pan="0" len="24" pos="192"/>
          <note key="1" vol="200" pan="0" len="24" pos="204"/>
          <note key="19" vol="200" pan="0" len="12" pos="216"/>
          <note key="19" vol="200" pan="0" len="12" pos="228"/>
          <note key="19" vol="200" pan="0" len="12" pos="240"/>
          <note key="19" vol="200" pan="0" len="12" pos="252"/>
          <note key="19" vol="200" pan="0" len="24" pos="264"/>
          <note key="0" vol="200" pan="0" len="24" pos="264"/>
          <note key="1" vol="200" pan="0" len="24" pos="276"/>
          <note key="19" vol="200" pan="0" len="12" pos="288"/>
          <note key="19" vol="200" pan="0" len="12" pos="300"/>
          <note key="19" vol="200" pan="0" len="24" pos="312"/>
          <note key="0" vol="200" pan="0" len="24" pos="312"/>
          <note key="1" vol="200" pan="0" len="24" pos="324"/>
          <note key="19" vol="200" pan="0" len="12" pos="336"/>
          <note key="19" vol="200" pan="0" len="12" pos="348"/>
          <note key="19" vol="200" pan="0" len="12" pos="360"/>
          <note key="19" vol="200" pan="0" len="12" pos="372"/>
          <note key="20" vol="200" pan="0" len="48" pos="384"/>
          <note key="0" vol="200" pan="0" len="24" pos="384"/>
          <note key="8" vol="200" pan="0" len="24" pos="432"/>
          <note key="1" vol="200" pan="0" len="24" pos="444"/>
          <note key="8" vol="200" pan="0" len="12" pos="456"/>
          <note key="8" vol="200" pan="0" len="12" pos="468"/>
          <note key="8" vol="200" pan="0" len="12" pos="480"/>
          <note key="8" vol="200" pan="0" len="12" pos="492"/>
          <note key="8" vol="200" pan="0" len="24" pos="504"/>
          <note key="0" vol="200" pan="0" len="24" pos="504"/>
          <note key="1" vol="200" pan="0" len="24" pos="516"/>
          <note key="8" vol="200" pan="0" len="12" pos="528"/>
          <note key="8" vol="200" pan="0" len="12" pos="540"/>
          <note key="8" vol="200" pan="0" len="12" pos="552"/>
          <note key="8" vol="200" pan="0" len="12" pos="564"/>
          <note key="8" vol="200" pan="0" len="192" pos="576"/>
          <note key="0" vol="200" pan="0" len="24" pos="576"/>
        </pattern>
        <pattern name="bass fender jazz (1,379kb)" muted="0" type="1" steps="16" pos="34944">
          <note key="13" vol="197" pan="0" len="192" pos="0"/>
          <note key="0" vol="78" pan="0" len="48" pos="0"/>
          <note key="20" vol="197" pan="0" len="192" pos="192"/>
          <note key="21" vol="197" pan="0" len="192" pos="384"/>
          <note key="23" vol="197" pan="0" len="192" pos="576"/>
          <note key="1" vol="197" pan="0" len="12" pos="756"/>
          <note key="18" vol="197" pan="0" len="12" pos="768"/>
          <note key="18" vol="197" pan="0" len="12" pos="780"/>
          <note key="18" vol="197" pan="0" len="12" pos="792"/>
          <note key="18" vol="197" pan="0" len="12" pos="804"/>
          <note key="18" vol="197" pan="0" len="12" pos="816"/>
          <note key="18" vol="197" pan="0" len="12" pos="828"/>
          <note key="18" vol="197" pan="0" len="12" pos="840"/>
          <note key="18" vol="197" pan="0" len="12" pos="852"/>
          <note key="18" vol="197" pan="0" len="12" pos="864"/>
          <note key="18" vol="197" pan="0" len="12" pos="876"/>
          <note key="18" vol="197" pan="0" len="12" pos="888"/>
          <note key="18" vol="197" pan="0" len="12" pos="900"/>
          <note key="18" vol="197" pan="0" len="12" pos="912"/>
          <note key="18" vol="197" pan="0" len="12" pos="924"/>
          <note key="18" vol="197" pan="0" len="12" pos="936"/>
          <note key="18" vol="197" pan="0" len="12" pos="948"/>
          <note key="20" vol="197" pan="0" len="12" pos="960"/>
          <note key="20" vol="197" pan="0" len="12" pos="972"/>
          <note key="20" vol="197" pan="0" len="12" pos="984"/>
          <note key="20" vol="197" pan="0" len="12" pos="996"/>
          <note key="20" vol="197" pan="0" len="12" pos="1008"/>
          <note key="20" vol="197" pan="0" len="12" pos="1020"/>
          <note key="20" vol="197" pan="0" len="12" pos="1032"/>
          <note key="20" vol="197" pan="0" len="12" pos="1044"/>
          <note key="20" vol="197" pan="0" len="12" pos="1056"/>
          <note key="20" vol="197" pan="0" len="12" pos="1068"/>
          <note key="20" vol="197" pan="0" len="12" pos="1080"/>
          <note key="20" vol="197" pan="0" len="12" pos="1092"/>
          <note key="20" vol="197" pan="0" len="12" pos="1104"/>
          <note key="20" vol="197" pan="0" len="12" pos="1116"/>
          <note key="20" vol="197" pan="0" len="12" pos="1128"/>
          <note key="20" vol="197" pan="0" len="12" pos="1140"/>
          <note key="21" vol="197" pan="0" len="12" pos="1152"/>
          <note key="21" vol="197" pan="0" len="12" pos="1164"/>
          <note key="21" vol="197" pan="0" len="12" pos="1176"/>
          <note key="21" vol="197" pan="0" len="12" pos="1188"/>
          <note key="21" vol="197" pan="0" len="12" pos="1200"/>
          <note key="21" vol="197" pan="0" len="12" pos="1212"/>
          <note key="21" vol="197" pan="0" len="12" pos="1224"/>
          <note key="21" vol="197" pan="0" len="12" pos="1236"/>
          <note key="21" vol="197" pan="0" len="12" pos="1248"/>
          <note key="21" vol="197" pan="0" len="12" pos="1260"/>
          <note key="21" vol="197" pan="0" len="12" pos="1272"/>
          <note key="21" vol="197" pan="0" len="12" pos="1284"/>
          <note key="21" vol="197" pan="0" len="12" pos="1296"/>
          <note key="21" vol="197" pan="0" len="12" pos="1308"/>
          <note key="21" vol="197" pan="0" len="12" pos="1320"/>
          <note key="21" vol="197" pan="0" len="12" pos="1332"/>
          <note key="23" vol="197" pan="0" len="48" pos="1344"/>
          <note key="0" vol="197" pan="0" len="12" pos="1344"/>
          <note key="23" vol="197" pan="0" len="48" pos="1392"/>
          <note key="20" vol="197" pan="0" len="48" pos="1440"/>
          <note key="23" vol="197" pan="0" len="48" pos="1488"/>
        </pattern>
        <pattern name="bass fender jazz (1,379kb)" muted="0" type="1" steps="16" pos="12672">
          <note key="13" vol="200" pan="0" len="36" pos="0"/>
        </pattern>
        <pattern name="bass fender jazz (1,379kb)" muted="0" type="1" steps="16" pos="37632">
          <note key="20" vol="195" pan="0" len="24" pos="0"/>
          <note key="23" vol="195" pan="0" len="24" pos="24"/>
          <note key="20" vol="195" pan="0" len="24" pos="48"/>
          <note key="27" vol="195" pan="0" len="48" pos="72"/>
          <note key="20" vol="195" pan="0" len="24" pos="120"/>
          <note key="23" vol="195" pan="0" len="24" pos="144"/>
          <note key="27" vol="195" pan="0" len="24" pos="168"/>
          <note key="21" vol="195" pan="0" len="12" pos="192"/>
          <note key="21" vol="195" pan="0" len="12" pos="204"/>
          <note key="21" vol="195" pan="0" len="12" pos="216"/>
          <note key="21" vol="195" pan="0" len="12" pos="228"/>
          <note key="21" vol="195" pan="0" len="12" pos="240"/>
          <note key="21" vol="195" pan="0" len="12" pos="252"/>
          <note key="25" vol="195" pan="0" len="12" pos="264"/>
          <note key="25" vol="195" pan="0" len="12" pos="276"/>
          <note key="23" vol="195" pan="0" len="12" pos="288"/>
          <note key="23" vol="195" pan="0" len="12" pos="300"/>
          <note key="23" vol="195" pan="0" len="12" pos="312"/>
          <note key="23" vol="195" pan="0" len="12" pos="324"/>
          <note key="27" vol="195" pan="0" len="12" pos="336"/>
          <note key="27" vol="195" pan="0" len="12" pos="348"/>
          <note key="23" vol="195" pan="0" len="12" pos="360"/>
          <note key="23" vol="195" pan="0" len="12" pos="372"/>
        </pattern>
        <pattern name="bass fender jazz (1,379kb)" muted="0" type="1" steps="16" pos="37440">
          <note key="18" vol="197" pan="0" len="24" pos="0"/>
          <note key="16" vol="197" pan="0" len="24" pos="24"/>
          <note key="18" vol="197" pan="0" len="24" pos="48"/>
          <note key="25" vol="197" pan="0" len="24" pos="72"/>
          <note key="18" vol="197" pan="0" len="12" pos="96"/>
          <note key="18" vol="197" pan="0" len="12" pos="108"/>
          <note key="18" vol="197" pan="0" len="12" pos="120"/>
          <note key="18" vol="197" pan="0" len="12" pos="132"/>
          <note key="18" vol="197" pan="0" len="12" pos="144"/>
          <note key="18" vol="197" pan="0" len="12" pos="156"/>
          <note key="18" vol="197" pan="0" len="12" pos="168"/>
          <note key="18" vol="197" pan="0" len="12" pos="180"/>
        </pattern>
        <pattern name="bass fender jazz (1,379kb)" muted="0" type="1" steps="16" pos="37248">
          <note key="25" vol="197" pan="0" len="24" pos="0"/>
          <note key="23" vol="197" pan="0" len="24" pos="24"/>
          <note key="25" vol="197" pan="0" len="24" pos="48"/>
          <note key="32" vol="197" pan="0" len="24" pos="72"/>
          <note key="25" vol="197" pan="0" len="12" pos="96"/>
          <note key="25" vol="197" pan="0" len="12" pos="108"/>
          <note key="25" vol="197" pan="0" len="12" pos="120"/>
          <note key="25" vol="197" pan="0" len="12" pos="132"/>
          <note key="25" vol="197" pan="0" len="12" pos="144"/>
          <note key="25" vol="197" pan="0" len="12" pos="156"/>
          <note key="25" vol="197" pan="0" len="12" pos="168"/>
          <note key="25" vol="197" pan="0" len="12" pos="180"/>
        </pattern>
        <pattern name="bass fender jazz (1,379kb)" muted="0" type="1" steps="16" pos="36480">
          <note key="25" vol="197" pan="0" len="24" pos="0"/>
          <note key="23" vol="197" pan="0" len="24" pos="24"/>
          <note key="25" vol="197" pan="0" len="24" pos="48"/>
          <note key="32" vol="197" pan="0" len="24" pos="72"/>
          <note key="25" vol="197" pan="0" len="12" pos="96"/>
          <note key="25" vol="197" pan="0" len="12" pos="108"/>
          <note key="25" vol="197" pan="0" len="12" pos="120"/>
          <note key="25" vol="197" pan="0" len="12" pos="132"/>
          <note key="25" vol="197" pan="0" len="12" pos="144"/>
          <note key="25" vol="197" pan="0" len="12" pos="156"/>
          <note key="25" vol="197" pan="0" len="12" pos="168"/>
          <note key="25" vol="197" pan="0" len="12" pos="180"/>
        </pattern>
        <pattern name="bass fender jazz (1,379kb)" muted="0" type="1" steps="16" pos="36672">
          <note key="18" vol="197" pan="0" len="24" pos="0"/>
          <note key="16" vol="197" pan="0" len="24" pos="24"/>
          <note key="18" vol="197" pan="0" len="24" pos="48"/>
          <note key="25" vol="197" pan="0" len="24" pos="72"/>
          <note key="18" vol="197" pan="0" len="12" pos="96"/>
          <note key="18" vol="197" pan="0" len="12" pos="108"/>
          <note key="18" vol="197" pan="0" len="12" pos="120"/>
          <note key="18" vol="197" pan="0" len="12" pos="132"/>
          <note key="18" vol="197" pan="0" len="12" pos="144"/>
          <note key="18" vol="197" pan="0" len="12" pos="156"/>
          <note key="18" vol="197" pan="0" len="12" pos="168"/>
          <note key="18" vol="197" pan="0" len="12" pos="180"/>
        </pattern>
        <pattern name="bass fender jazz (1,379kb)" muted="0" type="1" steps="16" pos="36864">
          <note key="20" vol="195" pan="0" len="24" pos="0"/>
          <note key="23" vol="195" pan="0" len="24" pos="24"/>
          <note key="20" vol="195" pan="0" len="24" pos="48"/>
          <note key="27" vol="195" pan="0" len="48" pos="72"/>
          <note key="20" vol="195" pan="0" len="24" pos="120"/>
          <note key="23" vol="195" pan="0" len="24" pos="144"/>
          <note key="27" vol="195" pan="0" len="24" pos="168"/>
          <note key="21" vol="195" pan="0" len="12" pos="192"/>
          <note key="21" vol="195" pan="0" len="12" pos="204"/>
          <note key="21" vol="195" pan="0" len="12" pos="216"/>
          <note key="21" vol="195" pan="0" len="12" pos="228"/>
          <note key="21" vol="195" pan="0" len="12" pos="240"/>
          <note key="21" vol="195" pan="0" len="12" pos="252"/>
          <note key="25" vol="195" pan="0" len="12" pos="264"/>
          <note key="25" vol="195" pan="0" len="12" pos="276"/>
          <note key="23" vol="195" pan="0" len="12" pos="288"/>
          <note key="23" vol="195" pan="0" len="12" pos="300"/>
          <note key="23" vol="195" pan="0" len="12" pos="312"/>
          <note key="23" vol="195" pan="0" len="12" pos="324"/>
          <note key="27" vol="195" pan="0" len="12" pos="336"/>
          <note key="27" vol="195" pan="0" len="12" pos="348"/>
          <note key="23" vol="195" pan="0" len="12" pos="360"/>
          <note key="23" vol="195" pan="0" len="12" pos="372"/>
        </pattern>
        <pattern name="bass fender jazz (1,379kb)" muted="0" type="1" steps="16" pos="38016">
          <note key="14" vol="200" pan="0" len="12" pos="0"/>
          <note key="14" vol="200" pan="0" len="12" pos="12"/>
          <note key="14" vol="200" pan="0" len="24" pos="24"/>
          <note key="14" vol="200" pan="0" len="12" pos="48"/>
          <note key="14" vol="200" pan="0" len="12" pos="60"/>
          <note key="14" vol="200" pan="0" len="24" pos="72"/>
          <note key="14" vol="200" pan="0" len="12" pos="96"/>
          <note key="14" vol="200" pan="0" len="12" pos="108"/>
          <note key="14" vol="200" pan="0" len="24" pos="120"/>
          <note key="14" vol="200" pan="0" len="12" pos="144"/>
          <note key="14" vol="200" pan="0" len="12" pos="156"/>
          <note key="14" vol="200" pan="0" len="24" pos="168"/>
          <note key="14" vol="200" pan="0" len="12" pos="192"/>
          <note key="14" vol="200" pan="0" len="12" pos="204"/>
          <note key="14" vol="200" pan="0" len="24" pos="216"/>
          <note key="14" vol="200" pan="0" len="12" pos="240"/>
          <note key="14" vol="200" pan="0" len="12" pos="252"/>
          <note key="14" vol="200" pan="0" len="24" pos="264"/>
          <note key="14" vol="200" pan="0" len="12" pos="288"/>
          <note key="14" vol="200" pan="0" len="12" pos="300"/>
          <note key="14" vol="200" pan="0" len="24" pos="312"/>
          <note key="14" vol="200" pan="0" len="12" pos="336"/>
          <note key="14" vol="200" pan="0" len="12" pos="348"/>
          <note key="14" vol="200" pan="0" len="24" pos="360"/>
          <note key="13" vol="200" pan="0" len="12" pos="384"/>
          <note key="13" vol="200" pan="0" len="12" pos="396"/>
          <note key="13" vol="200" pan="0" len="24" pos="408"/>
          <note key="13" vol="200" pan="0" len="12" pos="432"/>
          <note key="13" vol="200" pan="0" len="12" pos="444"/>
          <note key="13" vol="200" pan="0" len="24" pos="456"/>
          <note key="13" vol="200" pan="0" len="12" pos="480"/>
          <note key="13" vol="200" pan="0" len="12" pos="492"/>
          <note key="13" vol="200" pan="0" len="24" pos="504"/>
          <note key="13" vol="200" pan="0" len="12" pos="528"/>
          <note key="13" vol="200" pan="0" len="12" pos="540"/>
          <note key="13" vol="200" pan="0" len="24" pos="552"/>
          <note key="11" vol="200" pan="0" len="12" pos="576"/>
          <note key="11" vol="200" pan="0" len="12" pos="588"/>
          <note key="11" vol="200" pan="0" len="24" pos="600"/>
          <note key="11" vol="200" pan="0" len="12" pos="624"/>
          <note key="11" vol="200" pan="0" len="12" pos="636"/>
          <note key="11" vol="200" pan="0" len="24" pos="648"/>
          <note key="11" vol="200" pan="0" len="12" pos="672"/>
          <note key="11" vol="200" pan="0" len="12" pos="684"/>
          <note key="11" vol="200" pan="0" len="24" pos="696"/>
          <note key="11" vol="200" pan="0" len="12" pos="720"/>
          <note key="11" vol="200" pan="0" len="12" pos="732"/>
          <note key="11" vol="200" pan="0" len="24" pos="744"/>
        </pattern>
        <pattern name="bass fender jazz (1,379kb)" muted="0" type="1" steps="16" pos="39168">
          <note key="15" vol="197" pan="0" len="24" pos="0"/>
          <note key="15" vol="197" pan="0" len="12" pos="24"/>
          <note key="15" vol="197" pan="0" len="12" pos="36"/>
          <note key="15" vol="197" pan="0" len="12" pos="48"/>
          <note key="15" vol="197" pan="0" len="12" pos="60"/>
          <note key="15" vol="197" pan="0" len="12" pos="72"/>
          <note key="15" vol="197" pan="0" len="12" pos="84"/>
          <note key="15" vol="197" pan="0" len="12" pos="96"/>
          <note key="15" vol="197" pan="0" len="12" pos="108"/>
          <note key="15" vol="197" pan="0" len="12" pos="120"/>
          <note key="15" vol="197" pan="0" len="12" pos="132"/>
          <note key="15" vol="197" pan="0" len="12" pos="144"/>
          <note key="15" vol="197" pan="0" len="12" pos="156"/>
          <note key="15" vol="197" pan="0" len="12" pos="168"/>
          <note key="15" vol="197" pan="0" len="12" pos="180"/>
          <note key="21" vol="197" pan="0" len="96" pos="192"/>
          <note key="20" vol="197" pan="0" len="96" pos="288"/>
        </pattern>
        <pattern name="bass fender jazz (1,379kb)" muted="0" type="1" steps="16" pos="38784">
          <note key="16" vol="197" pan="0" len="24" pos="0"/>
          <note key="18" vol="197" pan="0" len="24" pos="24"/>
          <note key="18" vol="197" pan="0" len="12" pos="48"/>
          <note key="18" vol="197" pan="0" len="12" pos="60"/>
          <note key="23" vol="197" pan="0" len="24" pos="72"/>
          <note key="25" vol="197" pan="0" len="24" pos="96"/>
          <note key="18" vol="197" pan="0" len="24" pos="120"/>
          <note key="16" vol="197" pan="0" len="24" pos="144"/>
          <note key="18" vol="197" pan="0" len="24" pos="168"/>
        </pattern>
        <pattern name="bass fender jazz (1,379kb)" muted="0" type="1" steps="16" pos="38976">
          <note key="16" vol="197" pan="0" len="24" pos="0"/>
          <note key="18" vol="197" pan="0" len="24" pos="24"/>
          <note key="18" vol="197" pan="0" len="12" pos="48"/>
          <note key="18" vol="197" pan="0" len="12" pos="60"/>
          <note key="23" vol="197" pan="0" len="24" pos="72"/>
          <note key="25" vol="197" pan="0" len="24" pos="96"/>
          <note key="18" vol="197" pan="0" len="24" pos="120"/>
          <note key="16" vol="197" pan="0" len="24" pos="144"/>
          <note key="18" vol="197" pan="0" len="24" pos="168"/>
        </pattern>
        <pattern name="bass fender jazz (1,379kb)" muted="0" type="1" steps="16" pos="39552">
          <note key="13" vol="195" pan="0" len="48" pos="0"/>
          <note key="13" vol="195" pan="0" len="12" pos="48"/>
          <note key="13" vol="195" pan="0" len="12" pos="60"/>
          <note key="13" vol="195" pan="0" len="12" pos="72"/>
          <note key="13" vol="195" pan="0" len="12" pos="84"/>
          <note key="13" vol="195" pan="0" len="12" pos="96"/>
          <note key="13" vol="195" pan="0" len="12" pos="108"/>
          <note key="13" vol="195" pan="0" len="12" pos="120"/>
          <note key="13" vol="195" pan="0" len="12" pos="132"/>
          <note key="13" vol="195" pan="0" len="12" pos="144"/>
          <note key="13" vol="195" pan="0" len="12" pos="156"/>
          <note key="13" vol="195" pan="0" len="12" pos="168"/>
          <note key="13" vol="195" pan="0" len="12" pos="180"/>
          <note key="20" vol="195" pan="0" len="48" pos="192"/>
          <note key="20" vol="195" pan="0" len="12" pos="240"/>
          <note key="20" vol="195" pan="0" len="12" pos="252"/>
          <note key="20" vol="195" pan="0" len="12" pos="264"/>
          <note key="20" vol="195" pan="0" len="12" pos="276"/>
          <note key="20" vol="195" pan="0" len="12" pos="288"/>
          <note key="20" vol="195" pan="0" len="12" pos="300"/>
          <note key="20" vol="195" pan="0" len="12" pos="312"/>
          <note key="20" vol="195" pan="0" len="12" pos="324"/>
          <note key="20" vol="195" pan="0" len="12" pos="336"/>
          <note key="20" vol="195" pan="0" len="12" pos="348"/>
          <note key="20" vol="195" pan="0" len="12" pos="360"/>
          <note key="20" vol="195" pan="0" len="12" pos="372"/>
          <note key="21" vol="195" pan="0" len="48" pos="384"/>
          <note key="21" vol="195" pan="0" len="12" pos="432"/>
          <note key="21" vol="195" pan="0" len="12" pos="444"/>
          <note key="21" vol="195" pan="0" len="12" pos="456"/>
          <note key="21" vol="195" pan="0" len="12" pos="468"/>
          <note key="21" vol="195" pan="0" len="12" pos="480"/>
          <note key="21" vol="195" pan="0" len="12" pos="492"/>
          <note key="21" vol="195" pan="0" len="12" pos="504"/>
          <note key="21" vol="195" pan="0" len="12" pos="516"/>
          <note key="21" vol="195" pan="0" len="12" pos="528"/>
          <note key="21" vol="195" pan="0" len="12" pos="540"/>
          <note key="21" vol="195" pan="0" len="12" pos="552"/>
          <note key="21" vol="195" pan="0" len="12" pos="564"/>
          <note key="23" vol="195" pan="0" len="48" pos="576"/>
          <note key="23" vol="195" pan="0" len="12" pos="624"/>
          <note key="23" vol="195" pan="0" len="12" pos="636"/>
          <note key="23" vol="195" pan="0" len="12" pos="648"/>
          <note key="23" vol="195" pan="0" len="12" pos="660"/>
          <note key="23" vol="195" pan="0" len="12" pos="672"/>
          <note key="23" vol="195" pan="0" len="12" pos="684"/>
          <note key="23" vol="195" pan="0" len="12" pos="696"/>
          <note key="23" vol="195" pan="0" len="12" pos="708"/>
          <note key="23" vol="195" pan="0" len="12" pos="720"/>
          <note key="23" vol="195" pan="0" len="12" pos="732"/>
          <note key="23" vol="195" pan="0" len="12" pos="744"/>
          <note key="23" vol="195" pan="0" len="12" pos="756"/>
          <note key="18" vol="195" pan="0" len="48" pos="768"/>
          <note key="18" vol="195" pan="0" len="12" pos="816"/>
          <note key="18" vol="195" pan="0" len="12" pos="828"/>
          <note key="18" vol="195" pan="0" len="12" pos="840"/>
          <note key="18" vol="195" pan="0" len="12" pos="852"/>
          <note key="18" vol="195" pan="0" len="12" pos="864"/>
          <note key="18" vol="195" pan="0" len="12" pos="876"/>
          <note key="18" vol="195" pan="0" len="12" pos="888"/>
          <note key="18" vol="195" pan="0" len="12" pos="900"/>
          <note key="18" vol="195" pan="0" len="12" pos="912"/>
          <note key="18" vol="195" pan="0" len="12" pos="924"/>
          <note key="18" vol="195" pan="0" len="12" pos="936"/>
          <note key="18" vol="195" pan="0" len="12" pos="948"/>
          <note key="20" vol="195" pan="0" len="48" pos="960"/>
          <note key="20" vol="195" pan="0" len="12" pos="1008"/>
          <note key="20" vol="195" pan="0" len="12" pos="1020"/>
          <note key="20" vol="195" pan="0" len="12" pos="1032"/>
          <note key="20" vol="195" pan="0" len="12" pos="1044"/>
          <note key="20" vol="195" pan="0" len="12" pos="1056"/>
          <note key="20" vol="195" pan="0" len="12" pos="1068"/>
          <note key="20" vol="195" pan="0" len="12" pos="1080"/>
          <note key="20" vol="195" pan="0" len="12" pos="1092"/>
          <note key="20" vol="195" pan="0" len="12" pos="1104"/>
          <note key="20" vol="195" pan="0" len="12" pos="1116"/>
          <note key="20" vol="195" pan="0" len="12" pos="1128"/>
          <note key="20" vol="195" pan="0" len="12" pos="1140"/>
          <note key="21" vol="195" pan="0" len="48" pos="1152"/>
          <note key="21" vol="195" pan="0" len="12" pos="1200"/>
          <note key="21" vol="195" pan="0" len="12" pos="1212"/>
          <note key="21" vol="195" pan="0" len="12" pos="1224"/>
          <note key="21" vol="195" pan="0" len="12" pos="1236"/>
          <note key="21" vol="195" pan="0" len="12" pos="1248"/>
          <note key="21" vol="195" pan="0" len="12" pos="1260"/>
          <note key="21" vol="195" pan="0" len="12" pos="1272"/>
          <note key="21" vol="195" pan="0" len="12" pos="1284"/>
          <note key="21" vol="195" pan="0" len="12" pos="1296"/>
          <note key="21" vol="195" pan="0" len="12" pos="1308"/>
          <note key="21" vol="195" pan="0" len="12" pos="1320"/>
          <note key="21" vol="195" pan="0" len="12" pos="1332"/>
          <note key="23" vol="195" pan="0" len="48" pos="1344"/>
          <note key="23" vol="195" pan="0" len="12" pos="1392"/>
          <note key="23" vol="195" pan="0" len="12" pos="1404"/>
          <note key="23" vol="195" pan="0" len="12" pos="1416"/>
          <note key="23" vol="195" pan="0" len="12" pos="1428"/>
          <note key="24" vol="195" pan="0" len="48" pos="1440"/>
          <note key="24" vol="195" pan="0" len="12" pos="1488"/>
          <note key="24" vol="195" pan="0" len="12" pos="1500"/>
          <note key="24" vol="195" pan="0" len="12" pos="1512"/>
          <note key="24" vol="195" pan="0" len="12" pos="1524"/>
          <note key="13" vol="195" pan="0" len="48" pos="1536"/>
          <note key="13" vol="195" pan="0" len="12" pos="1584"/>
          <note key="13" vol="195" pan="0" len="12" pos="1596"/>
          <note key="13" vol="195" pan="0" len="12" pos="1608"/>
          <note key="13" vol="195" pan="0" len="12" pos="1620"/>
          <note key="13" vol="195" pan="0" len="12" pos="1632"/>
          <note key="13" vol="195" pan="0" len="12" pos="1644"/>
          <note key="13" vol="195" pan="0" len="12" pos="1656"/>
          <note key="13" vol="195" pan="0" len="12" pos="1668"/>
          <note key="13" vol="195" pan="0" len="12" pos="1680"/>
          <note key="13" vol="195" pan="0" len="12" pos="1692"/>
          <note key="13" vol="195" pan="0" len="12" pos="1704"/>
          <note key="13" vol="195" pan="0" len="12" pos="1716"/>
          <note key="23" vol="195" pan="0" len="48" pos="1728"/>
          <note key="23" vol="195" pan="0" len="12" pos="1776"/>
          <note key="23" vol="195" pan="0" len="12" pos="1788"/>
          <note key="23" vol="195" pan="0" len="12" pos="1800"/>
          <note key="23" vol="195" pan="0" len="12" pos="1812"/>
          <note key="23" vol="195" pan="0" len="12" pos="1824"/>
          <note key="23" vol="195" pan="0" len="12" pos="1836"/>
          <note key="23" vol="195" pan="0" len="12" pos="1848"/>
          <note key="23" vol="195" pan="0" len="12" pos="1860"/>
          <note key="23" vol="195" pan="0" len="12" pos="1872"/>
          <note key="23" vol="195" pan="0" len="12" pos="1884"/>
          <note key="23" vol="195" pan="0" len="12" pos="1896"/>
          <note key="23" vol="195" pan="0" len="12" pos="1908"/>
          <note key="22" vol="195" pan="0" len="48" pos="1920"/>
          <note key="22" vol="195" pan="0" len="12" pos="1968"/>
          <note key="22" vol="195" pan="0" len="12" pos="1980"/>
          <note key="22" vol="195" pan="0" len="12" pos="1992"/>
          <note key="22" vol="195" pan="0" len="12" pos="2004"/>
          <note key="22" vol="195" pan="0" len="12" pos="2016"/>
          <note key="22" vol="195" pan="0" len="12" pos="2028"/>
          <note key="22" vol="195" pan="0" len="12" pos="2040"/>
          <note key="22" vol="195" pan="0" len="12" pos="2052"/>
          <note key="22" vol="195" pan="0" len="12" pos="2064"/>
          <note key="22" vol="195" pan="0" len="12" pos="2076"/>
          <note key="22" vol="195" pan="0" len="12" pos="2088"/>
          <note key="22" vol="195" pan="0" len="12" pos="2100"/>
          <note key="18" vol="195" pan="0" len="48" pos="2112"/>
          <note key="18" vol="195" pan="0" len="12" pos="2160"/>
          <note key="18" vol="195" pan="0" len="12" pos="2172"/>
          <note key="18" vol="195" pan="0" len="12" pos="2184"/>
          <note key="18" vol="195" pan="0" len="12" pos="2196"/>
          <note key="16" vol="195" pan="0" len="48" pos="2208"/>
          <note key="16" vol="195" pan="0" len="12" pos="2256"/>
          <note key="16" vol="195" pan="0" len="12" pos="2268"/>
          <note key="16" vol="195" pan="0" len="12" pos="2280"/>
          <note key="16" vol="195" pan="0" len="12" pos="2292"/>
          <note key="14" vol="195" pan="0" len="48" pos="2304"/>
          <note key="14" vol="195" pan="0" len="12" pos="2352"/>
          <note key="14" vol="195" pan="0" len="12" pos="2364"/>
          <note key="14" vol="195" pan="0" len="12" pos="2376"/>
          <note key="14" vol="195" pan="0" len="12" pos="2388"/>
          <note key="14" vol="195" pan="0" len="48" pos="2400"/>
          <note key="14" vol="195" pan="0" len="12" pos="2448"/>
          <note key="14" vol="195" pan="0" len="12" pos="2460"/>
          <note key="14" vol="195" pan="0" len="12" pos="2472"/>
          <note key="14" vol="195" pan="0" len="12" pos="2484"/>
          <note key="21" vol="195" pan="0" len="48" pos="2496"/>
          <note key="21" vol="195" pan="0" len="12" pos="2544"/>
          <note key="21" vol="195" pan="0" len="12" pos="2556"/>
          <note key="21" vol="195" pan="0" len="12" pos="2568"/>
          <note key="21" vol="195" pan="0" len="12" pos="2580"/>
          <note key="21" vol="195" pan="0" len="12" pos="2592"/>
          <note key="21" vol="195" pan="0" len="12" pos="2604"/>
          <note key="21" vol="195" pan="0" len="12" pos="2616"/>
          <note key="21" vol="195" pan="0" len="12" pos="2628"/>
          <note key="21" vol="195" pan="0" len="12" pos="2640"/>
          <note key="21" vol="195" pan="0" len="12" pos="2652"/>
          <note key="21" vol="195" pan="0" len="12" pos="2664"/>
          <note key="21" vol="195" pan="0" len="12" pos="2676"/>
          <note key="11" vol="195" pan="0" len="384" pos="2688"/>
        </pattern>
        <pattern name="bass fender jazz (1,379kb)" muted="0" type="1" steps="16" pos="44160">
          <note key="15" vol="195" pan="0" len="48" pos="0"/>
          <note key="15" vol="195" pan="0" len="12" pos="48"/>
          <note key="15" vol="195" pan="0" len="12" pos="60"/>
          <note key="15" vol="195" pan="0" len="12" pos="72"/>
          <note key="15" vol="195" pan="0" len="12" pos="84"/>
          <note key="15" vol="195" pan="0" len="12" pos="96"/>
          <note key="15" vol="195" pan="0" len="12" pos="108"/>
          <note key="15" vol="195" pan="0" len="12" pos="120"/>
          <note key="15" vol="195" pan="0" len="12" pos="132"/>
          <note key="15" vol="195" pan="0" len="12" pos="144"/>
          <note key="15" vol="195" pan="0" len="12" pos="156"/>
          <note key="15" vol="195" pan="0" len="12" pos="168"/>
          <note key="15" vol="195" pan="0" len="12" pos="180"/>
          <note key="22" vol="195" pan="0" len="48" pos="192"/>
          <note key="22" vol="195" pan="0" len="12" pos="240"/>
          <note key="22" vol="195" pan="0" len="12" pos="252"/>
          <note key="22" vol="195" pan="0" len="12" pos="264"/>
          <note key="22" vol="195" pan="0" len="12" pos="276"/>
          <note key="22" vol="195" pan="0" len="12" pos="288"/>
          <note key="22" vol="195" pan="0" len="12" pos="300"/>
          <note key="22" vol="195" pan="0" len="12" pos="312"/>
          <note key="22" vol="195" pan="0" len="12" pos="324"/>
          <note key="22" vol="195" pan="0" len="12" pos="336"/>
          <note key="22" vol="195" pan="0" len="12" pos="348"/>
          <note key="22" vol="195" pan="0" len="12" pos="360"/>
          <note key="22" vol="195" pan="0" len="12" pos="372"/>
          <note key="23" vol="195" pan="0" len="48" pos="384"/>
          <note key="23" vol="195" pan="0" len="12" pos="432"/>
          <note key="23" vol="195" pan="0" len="12" pos="444"/>
          <note key="23" vol="195" pan="0" len="12" pos="456"/>
          <note key="23" vol="195" pan="0" len="12" pos="468"/>
          <note key="23" vol="195" pan="0" len="12" pos="480"/>
          <note key="23" vol="195" pan="0" len="12" pos="492"/>
          <note key="23" vol="195" pan="0" len="12" pos="504"/>
          <note key="23" vol="195" pan="0" len="12" pos="516"/>
          <note key="23" vol="195" pan="0" len="12" pos="528"/>
          <note key="23" vol="195" pan="0" len="12" pos="540"/>
          <note key="23" vol="195" pan="0" len="12" pos="552"/>
          <note key="23" vol="195" pan="0" len="12" pos="564"/>
          <note key="25" vol="195" pan="0" len="48" pos="576"/>
          <note key="25" vol="195" pan="0" len="12" pos="624"/>
          <note key="25" vol="195" pan="0" len="12" pos="636"/>
          <note key="25" vol="195" pan="0" len="12" pos="648"/>
          <note key="25" vol="195" pan="0" len="12" pos="660"/>
          <note key="25" vol="195" pan="0" len="12" pos="672"/>
          <note key="25" vol="195" pan="0" len="12" pos="684"/>
          <note key="25" vol="195" pan="0" len="12" pos="696"/>
          <note key="25" vol="195" pan="0" len="12" pos="708"/>
          <note key="25" vol="195" pan="0" len="12" pos="720"/>
          <note key="25" vol="195" pan="0" len="12" pos="732"/>
          <note key="25" vol="195" pan="0" len="12" pos="744"/>
          <note key="25" vol="195" pan="0" len="12" pos="756"/>
          <note key="20" vol="195" pan="0" len="48" pos="768"/>
          <note key="20" vol="195" pan="0" len="12" pos="816"/>
          <note key="20" vol="195" pan="0" len="12" pos="828"/>
          <note key="20" vol="195" pan="0" len="12" pos="840"/>
          <note key="20" vol="195" pan="0" len="12" pos="852"/>
          <note key="20" vol="195" pan="0" len="12" pos="864"/>
          <note key="20" vol="195" pan="0" len="12" pos="876"/>
          <note key="20" vol="195" pan="0" len="12" pos="888"/>
          <note key="20" vol="195" pan="0" len="12" pos="900"/>
          <note key="20" vol="195" pan="0" len="12" pos="912"/>
          <note key="20" vol="195" pan="0" len="12" pos="924"/>
          <note key="20" vol="195" pan="0" len="12" pos="936"/>
          <note key="20" vol="195" pan="0" len="12" pos="948"/>
          <note key="22" vol="195" pan="0" len="48" pos="960"/>
          <note key="22" vol="195" pan="0" len="12" pos="1008"/>
          <note key="22" vol="195" pan="0" len="12" pos="1020"/>
          <note key="22" vol="195" pan="0" len="12" pos="1032"/>
          <note key="22" vol="195" pan="0" len="12" pos="1044"/>
          <note key="22" vol="195" pan="0" len="12" pos="1056"/>
          <note key="22" vol="195" pan="0" len="12" pos="1068"/>
          <note key="22" vol="195" pan="0" len="12" pos="1080"/>
          <note key="22" vol="195" pan="0" len="12" pos="1092"/>
          <note key="22" vol="195" pan="0" len="12" pos="1104"/>
          <note key="22" vol="195" pan="0" len="12" pos="1116"/>
          <note key="22" vol="195" pan="0" len="12" pos="1128"/>
          <note key="22" vol="195" pan="0" len="12" pos="1140"/>
          <note key="23" vol="195" pan="0" len="48" pos="1152"/>
          <note key="23" vol="195" pan="0" len="12" pos="1200"/>
          <note key="23" vol="195" pan="0" len="12" pos="1212"/>
          <note key="23" vol="195" pan="0" len="12" pos="1224"/>
          <note key="23" vol="195" pan="0" len="12" pos="1236"/>
          <note key="23" vol="195" pan="0" len="12" pos="1248"/>
          <note key="23" vol="195" pan="0" len="12" pos="1260"/>
          <note key="23" vol="195" pan="0" len="12" pos="1272"/>
          <note key="23" vol="195" pan="0" len="12" pos="1284"/>
          <note key="23" vol="195" pan="0" len="12" pos="1296"/>
          <note key="23" vol="195" pan="0" len="12" pos="1308"/>
          <note key="23" vol="195" pan="0" len="12" pos="1320"/>
          <note key="23" vol="195" pan="0" len="12" pos="1332"/>
          <note key="25" vol="195" pan="0" len="48" pos="1344"/>
          <note key="25" vol="195" pan="0" len="12" pos="1392"/>
          <note key="25" vol="195" pan="0" len="12" pos="1404"/>
          <note key="25" vol="195" pan="0" len="12" pos="1416"/>
          <note key="25" vol="195" pan="0" len="12" pos="1428"/>
          <note key="26" vol="195" pan="0" len="12" pos="1440"/>
          <note key="23" vol="195" pan="0" len="12" pos="1452"/>
          <note key="22" vol="195" pan="0" len="12" pos="1464"/>
          <note key="20" vol="195" pan="0" len="12" pos="1476"/>
          <note key="23" vol="195" pan="0" len="12" pos="1488"/>
          <note key="22" vol="195" pan="0" len="12" pos="1500"/>
          <note key="20" vol="195" pan="0" len="12" pos="1512"/>
          <note key="18" vol="195" pan="0" len="12" pos="1524"/>
          <note key="15" vol="195" pan="0" len="48" pos="1536"/>
          <note key="15" vol="195" pan="0" len="12" pos="1584"/>
          <note key="15" vol="195" pan="0" len="12" pos="1596"/>
          <note key="15" vol="195" pan="0" len="12" pos="1608"/>
          <note key="15" vol="195" pan="0" len="12" pos="1620"/>
          <note key="15" vol="195" pan="0" len="12" pos="1632"/>
          <note key="15" vol="195" pan="0" len="12" pos="1644"/>
          <note key="15" vol="195" pan="0" len="12" pos="1656"/>
          <note key="15" vol="195" pan="0" len="12" pos="1668"/>
          <note key="15" vol="195" pan="0" len="12" pos="1680"/>
          <note key="15" vol="195" pan="0" len="12" pos="1692"/>
          <note key="15" vol="195" pan="0" len="12" pos="1704"/>
          <note key="15" vol="195" pan="0" len="12" pos="1716"/>
          <note key="25" vol="195" pan="0" len="48" pos="1728"/>
          <note key="25" vol="195" pan="0" len="12" pos="1776"/>
          <note key="25" vol="195" pan="0" len="12" pos="1788"/>
          <note key="25" vol="195" pan="0" len="12" pos="1800"/>
          <note key="25" vol="195" pan="0" len="12" pos="1812"/>
          <note key="25" vol="195" pan="0" len="12" pos="1824"/>
          <note key="25" vol="195" pan="0" len="12" pos="1836"/>
          <note key="25" vol="195" pan="0" len="12" pos="1848"/>
          <note key="25" vol="195" pan="0" len="12" pos="1860"/>
          <note key="25" vol="195" pan="0" len="12" pos="1872"/>
          <note key="25" vol="195" pan="0" len="12" pos="1884"/>
          <note key="25" vol="195" pan="0" len="12" pos="1896"/>
          <note key="25" vol="195" pan="0" len="12" pos="1908"/>
          <note key="24" vol="195" pan="0" len="48" pos="1920"/>
          <note key="24" vol="195" pan="0" len="12" pos="1968"/>
          <note key="24" vol="195" pan="0" len="12" pos="1980"/>
          <note key="24" vol="195" pan="0" len="12" pos="1992"/>
          <note key="24" vol="195" pan="0" len="12" pos="2004"/>
          <note key="24" vol="195" pan="0" len="12" pos="2016"/>
          <note key="24" vol="195" pan="0" len="12" pos="2028"/>
          <note key="24" vol="195" pan="0" len="12" pos="2040"/>
          <note key="24" vol="195" pan="0" len="12" pos="2052"/>
          <note key="24" vol="195" pan="0" len="12" pos="2064"/>
          <note key="24" vol="195" pan="0" len="12" pos="2076"/>
          <note key="24" vol="195" pan="0" len="12" pos="2088"/>
          <note key="24" vol="195" pan="0" len="12" pos="2100"/>
          <note key="20" vol="195" pan="0" len="48" pos="2112"/>
          <note key="20" vol="195" pan="0" len="12" pos="2160"/>
          <note key="20" vol="195" pan="0" len="12" pos="2172"/>
          <note key="20" vol="195" pan="0" len="12" pos="2184"/>
          <note key="20" vol="195" pan="0" len="12" pos="2196"/>
          <note key="18" vol="195" pan="0" len="48" pos="2208"/>
          <note key="18" vol="195" pan="0" len="12" pos="2256"/>
          <note key="18" vol="195" pan="0" len="12" pos="2268"/>
          <note key="18" vol="195" pan="0" len="12" pos="2280"/>
          <note key="18" vol="195" pan="0" len="12" pos="2292"/>
          <note key="16" vol="195" pan="0" len="48" pos="2304"/>
          <note key="16" vol="195" pan="0" len="12" pos="2352"/>
          <note key="16" vol="195" pan="0" len="12" pos="2364"/>
          <note key="16" vol="195" pan="0" len="12" pos="2376"/>
          <note key="16" vol="195" pan="0" len="12" pos="2388"/>
          <note key="16" vol="195" pan="0" len="48" pos="2400"/>
          <note key="16" vol="195" pan="0" len="12" pos="2448"/>
          <note key="16" vol="195" pan="0" len="12" pos="2460"/>
          <note key="16" vol="195" pan="0" len="12" pos="2472"/>
          <note key="16" vol="195" pan="0" len="12" pos="2484"/>
          <note key="23" vol="195" pan="0" len="48" pos="2496"/>
          <note key="23" vol="195" pan="0" len="12" pos="2544"/>
          <note key="23" vol="195" pan="0" len="12" pos="2556"/>
          <note key="23" vol="195" pan="0" len="12" pos="2568"/>
          <note key="23" vol="195" pan="0" len="12" pos="2580"/>
          <note key="23" vol="195" pan="0" len="12" pos="2592"/>
          <note key="23" vol="195" pan="0" len="12" pos="2604"/>
          <note key="23" vol="195" pan="0" len="12" pos="2616"/>
          <note key="23" vol="195" pan="0" len="12" pos="2628"/>
          <note key="23" vol="195" pan="0" len="12" pos="2640"/>
          <note key="23" vol="195" pan="0" len="12" pos="2652"/>
          <note key="23" vol="195" pan="0" len="12" pos="2664"/>
          <note key="23" vol="195" pan="0" len="12" pos="2676"/>
          <note key="25" vol="195" pan="0" len="48" pos="2688"/>
          <note key="25" vol="195" pan="0" len="12" pos="2736"/>
          <note key="25" vol="195" pan="0" len="12" pos="2748"/>
          <note key="25" vol="195" pan="0" len="12" pos="2760"/>
          <note key="25" vol="195" pan="0" len="12" pos="2772"/>
          <note key="25" vol="195" pan="0" len="12" pos="2784"/>
          <note key="25" vol="195" pan="0" len="12" pos="2796"/>
          <note key="25" vol="195" pan="0" len="12" pos="2808"/>
          <note key="25" vol="195" pan="0" len="12" pos="2820"/>
          <note key="25" vol="195" pan="0" len="12" pos="2832"/>
          <note key="25" vol="195" pan="0" len="12" pos="2844"/>
          <note key="25" vol="195" pan="0" len="12" pos="2856"/>
          <note key="25" vol="195" pan="0" len="12" pos="2868"/>
          <note key="25" vol="195" pan="0" len="12" pos="2880"/>
          <note key="23" vol="195" pan="0" len="12" pos="2892"/>
          <note key="22" vol="195" pan="0" len="12" pos="2904"/>
          <note key="20" vol="195" pan="0" len="12" pos="2916"/>
          <note key="23" vol="195" pan="0" len="12" pos="2928"/>
          <note key="22" vol="195" pan="0" len="12" pos="2940"/>
          <note key="20" vol="195" pan="0" len="12" pos="2952"/>
          <note key="18" vol="195" pan="0" len="12" pos="2964"/>
          <note key="22" vol="195" pan="0" len="12" pos="2976"/>
          <note key="20" vol="195" pan="0" len="12" pos="2988"/>
          <note key="18" vol="195" pan="0" len="12" pos="3000"/>
          <note key="17" vol="195" pan="0" len="12" pos="3012"/>
          <note key="20" vol="195" pan="0" len="12" pos="3024"/>
          <note key="18" vol="195" pan="0" len="12" pos="3036"/>
          <note key="17" vol="195" pan="0" len="12" pos="3048"/>
          <note key="18" vol="195" pan="0" len="12" pos="3060"/>
        </pattern>
        <pattern name="bass fender jazz (1,379kb)" muted="0" type="1" steps="16" pos="43776">
          <note key="9" vol="200" pan="0" len="96" pos="96"/>
          <note key="11" vol="200" pan="0" len="96" pos="192"/>
          <note key="13" vol="200" pan="0" len="96" pos="288"/>
        </pattern>
        <pattern name="bass fender jazz (1,379kb)" muted="0" type="1" steps="16" pos="47232">
          <note key="15" vol="195" pan="0" len="48" pos="0"/>
          <note key="15" vol="195" pan="0" len="12" pos="48"/>
          <note key="15" vol="195" pan="0" len="12" pos="60"/>
          <note key="15" vol="195" pan="0" len="12" pos="72"/>
          <note key="15" vol="195" pan="0" len="12" pos="84"/>
          <note key="15" vol="195" pan="0" len="12" pos="96"/>
          <note key="15" vol="195" pan="0" len="12" pos="108"/>
          <note key="15" vol="195" pan="0" len="12" pos="120"/>
          <note key="15" vol="195" pan="0" len="12" pos="132"/>
          <note key="15" vol="195" pan="0" len="12" pos="144"/>
          <note key="15" vol="195" pan="0" len="12" pos="156"/>
          <note key="15" vol="195" pan="0" len="12" pos="168"/>
          <note key="15" vol="195" pan="0" len="12" pos="180"/>
          <note key="22" vol="195" pan="0" len="48" pos="192"/>
          <note key="22" vol="195" pan="0" len="12" pos="240"/>
          <note key="22" vol="195" pan="0" len="12" pos="252"/>
          <note key="22" vol="195" pan="0" len="12" pos="264"/>
          <note key="22" vol="195" pan="0" len="12" pos="276"/>
          <note key="22" vol="195" pan="0" len="12" pos="288"/>
          <note key="22" vol="195" pan="0" len="12" pos="300"/>
          <note key="22" vol="195" pan="0" len="12" pos="312"/>
          <note key="22" vol="195" pan="0" len="12" pos="324"/>
          <note key="22" vol="195" pan="0" len="12" pos="336"/>
          <note key="22" vol="195" pan="0" len="12" pos="348"/>
          <note key="22" vol="195" pan="0" len="12" pos="360"/>
          <note key="22" vol="195" pan="0" len="12" pos="372"/>
          <note key="23" vol="195" pan="0" len="48" pos="384"/>
          <note key="23" vol="195" pan="0" len="12" pos="432"/>
          <note key="23" vol="195" pan="0" len="12" pos="444"/>
          <note key="23" vol="195" pan="0" len="12" pos="456"/>
          <note key="23" vol="195" pan="0" len="12" pos="468"/>
          <note key="23" vol="195" pan="0" len="12" pos="480"/>
          <note key="23" vol="195" pan="0" len="12" pos="492"/>
          <note key="23" vol="195" pan="0" len="12" pos="504"/>
          <note key="23" vol="195" pan="0" len="12" pos="516"/>
          <note key="23" vol="195" pan="0" len="12" pos="528"/>
          <note key="23" vol="195" pan="0" len="12" pos="540"/>
          <note key="23" vol="195" pan="0" len="12" pos="552"/>
          <note key="23" vol="195" pan="0" len="12" pos="564"/>
          <note key="25" vol="195" pan="0" len="48" pos="576"/>
          <note key="25" vol="195" pan="0" len="12" pos="624"/>
          <note key="25" vol="195" pan="0" len="12" pos="636"/>
          <note key="25" vol="195" pan="0" len="12" pos="648"/>
          <note key="25" vol="195" pan="0" len="12" pos="660"/>
          <note key="25" vol="195" pan="0" len="12" pos="672"/>
          <note key="25" vol="195" pan="0" len="12" pos="684"/>
          <note key="25" vol="195" pan="0" len="12" pos="696"/>
          <note key="25" vol="195" pan="0" len="12" pos="708"/>
          <note key="25" vol="195" pan="0" len="12" pos="720"/>
          <note key="25" vol="195" pan="0" len="12" pos="732"/>
          <note key="25" vol="195" pan="0" len="12" pos="744"/>
          <note key="25" vol="195" pan="0" len="12" pos="756"/>
          <note key="20" vol="195" pan="0" len="48" pos="768"/>
          <note key="20" vol="195" pan="0" len="12" pos="816"/>
          <note key="20" vol="195" pan="0" len="12" pos="828"/>
          <note key="20" vol="195" pan="0" len="12" pos="840"/>
          <note key="20" vol="195" pan="0" len="12" pos="852"/>
          <note key="20" vol="195" pan="0" len="12" pos="864"/>
          <note key="20" vol="195" pan="0" len="12" pos="876"/>
          <note key="20" vol="195" pan="0" len="12" pos="888"/>
          <note key="20" vol="195" pan="0" len="12" pos="900"/>
          <note key="20" vol="195" pan="0" len="12" pos="912"/>
          <note key="20" vol="195" pan="0" len="12" pos="924"/>
          <note key="20" vol="195" pan="0" len="12" pos="936"/>
          <note key="20" vol="195" pan="0" len="12" pos="948"/>
          <note key="22" vol="195" pan="0" len="48" pos="960"/>
          <note key="22" vol="195" pan="0" len="12" pos="1008"/>
          <note key="22" vol="195" pan="0" len="12" pos="1020"/>
          <note key="22" vol="195" pan="0" len="12" pos="1032"/>
          <note key="22" vol="195" pan="0" len="12" pos="1044"/>
          <note key="22" vol="195" pan="0" len="12" pos="1056"/>
          <note key="22" vol="195" pan="0" len="12" pos="1068"/>
          <note key="22" vol="195" pan="0" len="12" pos="1080"/>
          <note key="22" vol="195" pan="0" len="12" pos="1092"/>
          <note key="22" vol="195" pan="0" len="12" pos="1104"/>
          <note key="22" vol="195" pan="0" len="12" pos="1116"/>
          <note key="22" vol="195" pan="0" len="12" pos="1128"/>
          <note key="22" vol="195" pan="0" len="12" pos="1140"/>
          <note key="23" vol="195" pan="0" len="48" pos="1152"/>
          <note key="23" vol="195" pan="0" len="12" pos="1200"/>
          <note key="23" vol="195" pan="0" len="12" pos="1212"/>
          <note key="23" vol="195" pan="0" len="12" pos="1224"/>
          <note key="23" vol="195" pan="0" len="12" pos="1236"/>
          <note key="23" vol="195" pan="0" len="12" pos="1248"/>
          <note key="23" vol="195" pan="0" len="12" pos="1260"/>
          <note key="23" vol="195" pan="0" len="12" pos="1272"/>
          <note key="23" vol="195" pan="0" len="12" pos="1284"/>
          <note key="23" vol="195" pan="0" len="12" pos="1296"/>
          <note key="23" vol="195" pan="0" len="12" pos="1308"/>
          <note key="23" vol="195" pan="0" len="12" pos="1320"/>
          <note key="23" vol="195" pan="0" len="12" pos="1332"/>
          <note key="25" vol="195" pan="0" len="48" pos="1344"/>
          <note key="25" vol="195" pan="0" len="12" pos="1392"/>
          <note key="25" vol="195" pan="0" len="12" pos="1404"/>
          <note key="25" vol="195" pan="0" len="12" pos="1416"/>
          <note key="25" vol="195" pan="0" len="12" pos="1428"/>
          <note key="26" vol="195" pan="0" len="48" pos="1440"/>
          <note key="26" vol="195" pan="0" len="12" pos="1488"/>
          <note key="26" vol="195" pan="0" len="12" pos="1500"/>
          <note key="26" vol="195" pan="0" len="12" pos="1512"/>
          <note key="26" vol="195" pan="0" len="12" pos="1524"/>
          <note key="15" vol="195" pan="0" len="48" pos="1536"/>
          <note key="15" vol="195" pan="0" len="12" pos="1584"/>
          <note key="15" vol="195" pan="0" len="12" pos="1596"/>
          <note key="15" vol="195" pan="0" len="12" pos="1608"/>
          <note key="15" vol="195" pan="0" len="12" pos="1620"/>
          <note key="15" vol="195" pan="0" len="12" pos="1632"/>
          <note key="15" vol="195" pan="0" len="12" pos="1644"/>
          <note key="15" vol="195" pan="0" len="12" pos="1656"/>
          <note key="15" vol="195" pan="0" len="12" pos="1668"/>
          <note key="15" vol="195" pan="0" len="12" pos="1680"/>
          <note key="15" vol="195" pan="0" len="12" pos="1692"/>
          <note key="15" vol="195" pan="0" len="12" pos="1704"/>
          <note key="15" vol="195" pan="0" len="12" pos="1716"/>
          <note key="25" vol="195" pan="0" len="48" pos="1728"/>
          <note key="25" vol="195" pan="0" len="12" pos="1776"/>
          <note key="25" vol="195" pan="0" len="12" pos="1788"/>
          <note key="25" vol="195" pan="0" len="12" pos="1800"/>
          <note key="25" vol="195" pan="0" len="12" pos="1812"/>
          <note key="25" vol="195" pan="0" len="12" pos="1824"/>
          <note key="25" vol="195" pan="0" len="12" pos="1836"/>
          <note key="25" vol="195" pan="0" len="12" pos="1848"/>
          <note key="25" vol="195" pan="0" len="12" pos="1860"/>
          <note key="25" vol="195" pan="0" len="12" pos="1872"/>
          <note key="25" vol="195" pan="0" len="12" pos="1884"/>
          <note key="25" vol="195" pan="0" len="12" pos="1896"/>
          <note key="25" vol="195" pan="0" len="12" pos="1908"/>
          <note key="24" vol="195" pan="0" len="48" pos="1920"/>
          <note key="24" vol="195" pan="0" len="12" pos="1968"/>
          <note key="24" vol="195" pan="0" len="12" pos="1980"/>
          <note key="24" vol="195" pan="0" len="12" pos="1992"/>
          <note key="24" vol="195" pan="0" len="12" pos="2004"/>
          <note key="24" vol="195" pan="0" len="12" pos="2016"/>
          <note key="24" vol="195" pan="0" len="12" pos="2028"/>
          <note key="24" vol="195" pan="0" len="12" pos="2040"/>
          <note key="24" vol="195" pan="0" len="12" pos="2052"/>
          <note key="24" vol="195" pan="0" len="12" pos="2064"/>
          <note key="24" vol="195" pan="0" len="12" pos="2076"/>
          <note key="24" vol="195" pan="0" len="12" pos="2088"/>
          <note key="24" vol="195" pan="0" len="12" pos="2100"/>
          <note key="20" vol="195" pan="0" len="48" pos="2112"/>
          <note key="20" vol="195" pan="0" len="12" pos="2160"/>
          <note key="20" vol="195" pan="0" len="12" pos="2172"/>
          <note key="20" vol="195" pan="0" len="12" pos="2184"/>
          <note key="20" vol="195" pan="0" len="12" pos="2196"/>
          <note key="18" vol="195" pan="0" len="48" pos="2208"/>
          <note key="18" vol="195" pan="0" len="12" pos="2256"/>
          <note key="18" vol="195" pan="0" len="12" pos="2268"/>
          <note key="18" vol="195" pan="0" len="12" pos="2280"/>
          <note key="18" vol="195" pan="0" len="12" pos="2292"/>
          <note key="16" vol="195" pan="0" len="48" pos="2304"/>
          <note key="16" vol="195" pan="0" len="12" pos="2352"/>
          <note key="16" vol="195" pan="0" len="12" pos="2364"/>
          <note key="16" vol="195" pan="0" len="12" pos="2376"/>
          <note key="16" vol="195" pan="0" len="12" pos="2388"/>
          <note key="16" vol="195" pan="0" len="48" pos="2400"/>
          <note key="16" vol="195" pan="0" len="12" pos="2448"/>
          <note key="16" vol="195" pan="0" len="12" pos="2460"/>
          <note key="16" vol="195" pan="0" len="12" pos="2472"/>
          <note key="16" vol="195" pan="0" len="12" pos="2484"/>
          <note key="23" vol="195" pan="0" len="48" pos="2496"/>
          <note key="23" vol="195" pan="0" len="12" pos="2544"/>
          <note key="23" vol="195" pan="0" len="12" pos="2556"/>
          <note key="23" vol="195" pan="0" len="12" pos="2568"/>
          <note key="23" vol="195" pan="0" len="12" pos="2580"/>
          <note key="23" vol="195" pan="0" len="12" pos="2592"/>
          <note key="23" vol="195" pan="0" len="12" pos="2604"/>
          <note key="23" vol="195" pan="0" len="12" pos="2616"/>
          <note key="23" vol="195" pan="0" len="12" pos="2628"/>
          <note key="23" vol="195" pan="0" len="12" pos="2640"/>
          <note key="23" vol="195" pan="0" len="12" pos="2652"/>
          <note key="23" vol="195" pan="0" len="12" pos="2664"/>
          <note key="23" vol="195" pan="0" len="12" pos="2676"/>
          <note key="25" vol="195" pan="0" len="48" pos="2688"/>
          <note key="25" vol="195" pan="0" len="12" pos="2736"/>
          <note key="25" vol="195" pan="0" len="12" pos="2748"/>
          <note key="25" vol="195" pan="0" len="12" pos="2760"/>
          <note key="25" vol="195" pan="0" len="12" pos="2772"/>
          <note key="25" vol="195" pan="0" len="12" pos="2784"/>
          <note key="25" vol="195" pan="0" len="12" pos="2796"/>
          <note key="25" vol="195" pan="0" len="12" pos="2808"/>
          <note key="25" vol="195" pan="0" len="12" pos="2820"/>
          <note key="25" vol="195" pan="0" len="12" pos="2832"/>
          <note key="25" vol="195" pan="0" len="12" pos="2844"/>
          <note key="25" vol="195" pan="0" len="12" pos="2856"/>
          <note key="25" vol="195" pan="0" len="12" pos="2868"/>
          <note key="25" vol="195" pan="0" len="12" pos="2880"/>
          <note key="23" vol="195" pan="0" len="12" pos="2892"/>
          <note key="22" vol="195" pan="0" len="12" pos="2904"/>
          <note key="20" vol="195" pan="0" len="12" pos="2916"/>
          <note key="23" vol="195" pan="0" len="12" pos="2928"/>
          <note key="22" vol="195" pan="0" len="12" pos="2940"/>
          <note key="20" vol="195" pan="0" len="12" pos="2952"/>
          <note key="18" vol="195" pan="0" len="12" pos="2964"/>
          <note key="22" vol="195" pan="0" len="12" pos="2976"/>
          <note key="20" vol="195" pan="0" len="12" pos="2988"/>
          <note key="18" vol="195" pan="0" len="12" pos="3000"/>
          <note key="17" vol="195" pan="0" len="12" pos="3012"/>
          <note key="20" vol="195" pan="0" len="12" pos="3024"/>
          <note key="18" vol="195" pan="0" len="12" pos="3036"/>
          <note key="17" vol="195" pan="0" len="12" pos="3048"/>
          <note key="18" vol="195" pan="0" len="12" pos="3060"/>
        </pattern>
      </track>
      <track name="Carla Patchbay" muted="0" type="0" solo="0">
        <instrumenttrack vol="48" pitch="0" pitchrange="1" basenote="57" pan="0" fxch="0" usemasterpitch="1">
          <instrument name="carlapatchbay">
            <carlapatchbay>
              <CARLA-PROJECT VERSION="2.0">
                <EngineSettings>
                  <ForceStereo>false</ForceStereo>
                  <PreferPluginBridges>false</PreferPluginBridges>
                  <PreferUiBridges>true</PreferUiBridges>
                  <UIsAlwaysOnTop>false</UIsAlwaysOnTop>
                  <MaxParameters>200</MaxParameters>
                  <UIBridgesTimeout>4000</UIBridgesTimeout>
                  <LADSPA_PATH>/home/huggypie/.ladspa:/usr/lib/ladspa:/usr/local/lib/ladspa</LADSPA_PATH>
                  <DSSI_PATH>/home/huggypie/.dssi:/usr/lib/dssi:/usr/local/lib/dssi</DSSI_PATH>
                  <LV2_PATH>/home/huggypie/.lv2:/usr/lib/lv2:/usr/local/lib/lv2</LV2_PATH>
                  <VST2_PATH>/home/huggypie/.vst:/home/huggypie/.wine/drive_c/Program Files/VstPlugins:/usr/lib/lxvst:/usr/lib/vst:/usr/local/lib/lxvst:/usr/local/lib/vst/home/huggypie/.lxvst</VST2_PATH>
                  <VST3_PATH>/home/huggypie/.vst3:/home/huggypie/.wine/drive_c/Program Files/Common Files/VST3:/usr/lib/vst3:/usr/local/lib/vst3</VST3_PATH>
                  <SF2_PATH>/home/huggypie/.sounds/sf2/home/huggypie/.sounds/sf3:/home/huggypie/samples/soundfonts:/usr/share/soundfonts:/usr/share/sounds/sf2:/usr/share/sounds/sf3</SF2_PATH>
                  <SFZ_PATH>/home/huggypie/.sounds/sfz:/home/huggypie/samples:/home/huggypie/samples:/home/huggypie/samples/VSCO-2-CE-SFZ/VSCO-2-CE-SFZ:/usr/share/sounds/sfz</SFZ_PATH>
                </EngineSettings>
                <!-- liquidsfz -->
                <Plugin>
                  <Info>
                    <Type>LV2</Type>
                    <Name>liquidsfz</Name>
                    <URI>http://spectmorph.org/plugins/liquidsfz</URI>
                  </Info>
                  <Data>
                    <Active>Yes</Active>
                    <ControlChannel>1</ControlChannel>
                    <Options>0x3f0</Options>
                    <Parameter>
                      <Index>0</Index>
                      <Name>Output Level</Name>
                      <Symbol>level</Symbol>
                      <Value>0</Value>
                    </Parameter>
                    <CustomData>
                      <Type>http://lv2plug.in/ns/ext/atom#Path</Type>
                      <Key>http://spectmorph.org/plugins/liquidsfz#sfzfile</Key>
                      <Value>../samples/sonatina-symphonic-orchestra-1.0/Sonatina Symphonic Orchestra/Concert Harp.sfz</Value>
                    </CustomData>
                  </Data>
                </Plugin>
                <Patchbay>
                  <Connection>
                    <Source>Midi Input:Capture 1</Source>
                    <Target>liquidsfz:events-in</Target>
                  </Connection>
                  <Connection>
                    <Source>liquidsfz:Left Output</Source>
                    <Target>Audio Output:Left</Target>
                  </Connection>
                  <Connection>
                    <Source>liquidsfz:Right Output</Source>
                    <Target>Audio Output:Right</Target>
                  </Connection>
                </Patchbay>
              </CARLA-PROJECT>
            </carlapatchbay>
          </instrument>
          <eldata ftype="0" fres="0.5" fwet="0" fcut="14000">
            <elvol dec="0.5" sustain="0.5" pdel="0" lpdel="0" rel="0.1" lspd="0.1" userwavefile="" hold="0.5" lamt="0" lspd_numerator="4" lspd_syncmode="0" lshp="0" amt="0" x100="0" latt="0" lspd_denominator="4" ctlenvamt="0" att="0"/>
            <elcut dec="0.5" sustain="0.5" pdel="0" lpdel="0" rel="0.1" lspd="0.1" userwavefile="" hold="0.5" lamt="0" lspd_numerator="4" lspd_syncmode="0" lshp="0" amt="0" x100="0" latt="0" lspd_denominator="4" ctlenvamt="0" att="0"/>
            <elres dec="0.5" sustain="0.5" pdel="0" lpdel="0" rel="0.1" lspd="0.1" userwavefile="" hold="0.5" lamt="0" lspd_numerator="4" lspd_syncmode="0" lshp="0" amt="0" x100="0" latt="0" lspd_denominator="4" ctlenvamt="0" att="0"/>
          </eldata>
          <chordcreator chord="0" chord-enabled="0" chordrange="1"/>
          <arpeggiator arprange="1" arptime_denominator="4" arpgate="100" arptime_syncmode="0" arp="0" arpmode="0" arpmiss="0" arpdir="0" arptime_numerator="4" arp-enabled="0" arpcycle="0" arpskip="0" arptime="200"/>
          <midiport outputchannel="1" inputcontroller="0" outputcontroller="0" basevelocity="63" fixedinputvelocity="-1" fixedoutputvelocity="-1" outputprogram="1" readable="0" writable="0" fixedoutputnote="-1" inputchannel="0"/>
          <fxchain numofeffects="0" enabled="0"/>
        </instrumenttrack>
        <pattern name="Carla Patchbay" muted="0" type="1" steps="16" pos="42624">
          <note key="73" vol="200" pan="0" len="144" pos="0"/>
          <note key="61" vol="200" pan="0" len="48" pos="0"/>
          <note key="64" vol="200" pan="0" len="48" pos="48"/>
          <note key="68" vol="200" pan="0" len="48" pos="96"/>
          <note key="76" vol="200" pan="0" len="48" pos="144"/>
          <note key="73" vol="200" pan="0" len="48" pos="144"/>
          <note key="75" vol="200" pan="0" len="144" pos="192"/>
          <note key="71" vol="200" pan="0" len="48" pos="192"/>
          <note key="66" vol="200" pan="0" len="48" pos="240"/>
          <note key="71" vol="200" pan="0" len="48" pos="288"/>
          <note key="80" vol="200" pan="0" len="48" pos="336"/>
          <note key="75" vol="200" pan="0" len="48" pos="336"/>
          <note key="80" vol="200" pan="0" len="144" pos="384"/>
          <note key="76" vol="200" pan="0" len="48" pos="384"/>
          <note key="69" vol="200" pan="0" len="48" pos="432"/>
          <note key="73" vol="200" pan="0" len="48" pos="480"/>
          <note key="78" vol="200" pan="0" len="24" pos="528"/>
          <note key="64" vol="200" pan="0" len="48" pos="528"/>
          <note key="76" vol="200" pan="0" len="24" pos="552"/>
          <note key="75" vol="200" pan="0" len="48" pos="576"/>
          <note key="66" vol="200" pan="0" len="48" pos="576"/>
          <note key="76" vol="200" pan="0" len="48" pos="624"/>
          <note key="63" vol="200" pan="0" len="48" pos="624"/>
          <note key="71" vol="200" pan="0" len="48" pos="672"/>
          <note key="66" vol="200" pan="0" len="48" pos="672"/>
          <note key="68" vol="200" pan="0" len="48" pos="720"/>
          <note key="59" vol="200" pan="0" len="48" pos="720"/>
          <note key="69" vol="200" pan="0" len="96" pos="768"/>
          <note key="61" vol="200" pan="0" len="48" pos="768"/>
          <note key="66" vol="200" pan="0" len="48" pos="816"/>
          <note key="73" vol="200" pan="0" len="48" pos="864"/>
          <note key="69" vol="200" pan="0" len="48" pos="864"/>
          <note key="76" vol="200" pan="0" len="48" pos="912"/>
          <note key="66" vol="200" pan="0" len="48" pos="912"/>
          <note key="76" vol="200" pan="0" len="96" pos="960"/>
          <note key="68" vol="200" pan="0" len="48" pos="960"/>
          <note key="71" vol="200" pan="0" len="48" pos="1008"/>
          <note key="75" vol="200" pan="0" len="48" pos="1056"/>
          <note key="68" vol="200" pan="0" len="48" pos="1056"/>
          <note key="76" vol="200" pan="0" len="48" pos="1104"/>
          <note key="63" vol="200" pan="0" len="48" pos="1104"/>
          <note key="83" vol="200" pan="0" len="72" pos="1152"/>
          <note key="69" vol="200" pan="0" len="48" pos="1152"/>
        </pattern>
        <pattern name="Carla Patchbay" muted="0" type="0" steps="16" pos="5376"/>
      </track>
      <track name="Orchestra Soundfont 2 COMBO" muted="1" type="0" solo="0">
        <instrumenttrack vol="100" pitch="0" pitchrange="2" basenote="57" pan="0" fxch="0" usemasterpitch="1">
          <instrument name="sf2player">
            <sf2player chorusOn="0" reverbRoomSize="0.2" chorusLevel="2" src="/home/huggypie/samples/soundfonts/Orchestra Soundfont 2 COMBO.sf2" gain="5" reverbDamping="0" chorusSpeed="0.3" reverbWidth="0.5" reverbLevel="0.9" bank="0" reverbOn="0" patch="0" chorusDepth="8" chorusNum="3"/>
          </instrument>
          <eldata ftype="0" fres="0.5" fwet="0" fcut="14000">
            <elvol dec="0.5" sustain="0.5" pdel="0" lpdel="0" rel="0.1" lspd="0.1" userwavefile="" hold="0.5" lamt="0" lspd_numerator="4" lspd_syncmode="0" lshp="0" amt="0" x100="0" latt="0" lspd_denominator="4" ctlenvamt="0" att="0"/>
            <elcut dec="0.5" sustain="0.5" pdel="0" lpdel="0" rel="0.1" lspd="0.1" userwavefile="" hold="0.5" lamt="0" lspd_numerator="4" lspd_syncmode="0" lshp="0" amt="0" x100="0" latt="0" lspd_denominator="4" ctlenvamt="0" att="0"/>
            <elres dec="0.5" sustain="0.5" pdel="0" lpdel="0" rel="0.1" lspd="0.1" userwavefile="" hold="0.5" lamt="0" lspd_numerator="4" lspd_syncmode="0" lshp="0" amt="0" x100="0" latt="0" lspd_denominator="4" ctlenvamt="0" att="0"/>
          </eldata>
          <chordcreator chord="0" chord-enabled="0" chordrange="1"/>
          <arpeggiator arprange="1" arptime_denominator="4" arpgate="100" arptime_syncmode="0" arp="0" arpmode="0" arpmiss="0" arpdir="0" arptime_numerator="4" arp-enabled="0" arpcycle="0" arpskip="0" arptime="200"/>
          <midiport outputchannel="1" inputcontroller="0" outputcontroller="0" basevelocity="63" fixedinputvelocity="-1" fixedoutputvelocity="-1" outputprogram="1" readable="0" writable="0" fixedoutputnote="-1" inputchannel="0"/>
          <fxchain numofeffects="0" enabled="0"/>
        </instrumenttrack>
        <pattern name="Orchestra Soundfont 2 COMBO" muted="0" type="1" steps="16" pos="8064">
          <note key="61" vol="78" pan="0" len="24" pos="0"/>
          <note key="68" vol="78" pan="0" len="24" pos="24"/>
          <note key="73" vol="78" pan="0" len="24" pos="48"/>
          <note key="68" vol="78" pan="0" len="24" pos="72"/>
          <note key="76" vol="78" pan="0" len="24" pos="96"/>
          <note key="68" vol="78" pan="0" len="24" pos="120"/>
          <note key="73" vol="78" pan="0" len="24" pos="144"/>
          <note key="68" vol="78" pan="0" len="24" pos="168"/>
          <note key="63" vol="78" pan="0" len="24" pos="192"/>
          <note key="68" vol="78" pan="0" len="24" pos="216"/>
          <note key="71" vol="78" pan="0" len="24" pos="240"/>
          <note key="68" vol="78" pan="0" len="24" pos="264"/>
          <note key="63" vol="78" pan="0" len="24" pos="288"/>
          <note key="68" vol="78" pan="0" len="24" pos="312"/>
          <note key="71" vol="78" pan="0" len="24" pos="336"/>
          <note key="68" vol="78" pan="0" len="24" pos="360"/>
          <note key="64" vol="78" pan="0" len="24" pos="384"/>
          <note key="68" vol="78" pan="0" len="24" pos="408"/>
          <note key="73" vol="78" pan="0" len="24" pos="432"/>
          <note key="68" vol="78" pan="0" len="24" pos="456"/>
          <note key="64" vol="78" pan="0" len="24" pos="480"/>
          <note key="68" vol="78" pan="0" len="24" pos="504"/>
          <note key="73" vol="78" pan="0" len="24" pos="528"/>
          <note key="68" vol="78" pan="0" len="24" pos="552"/>
          <note key="66" vol="78" pan="0" len="24" pos="576"/>
          <note key="71" vol="78" pan="0" len="24" pos="600"/>
          <note key="76" vol="78" pan="0" len="24" pos="624"/>
          <note key="71" vol="78" pan="0" len="24" pos="648"/>
          <note key="66" vol="78" pan="0" len="24" pos="672"/>
          <note key="71" vol="78" pan="0" len="24" pos="696"/>
          <note key="75" vol="78" pan="0" len="24" pos="720"/>
          <note key="71" vol="78" pan="0" len="24" pos="744"/>
          <note key="64" vol="78" pan="0" len="24" pos="768"/>
          <note key="68" vol="78" pan="0" len="24" pos="792"/>
          <note key="73" vol="78" pan="0" len="24" pos="816"/>
          <note key="68" vol="78" pan="0" len="24" pos="840"/>
          <note key="64" vol="78" pan="0" len="24" pos="864"/>
          <note key="68" vol="78" pan="0" len="24" pos="888"/>
          <note key="73" vol="78" pan="0" len="24" pos="912"/>
          <note key="68" vol="78" pan="0" len="24" pos="936"/>
          <note key="63" vol="78" pan="0" len="24" pos="960"/>
          <note key="66" vol="78" pan="0" len="24" pos="984"/>
          <note key="71" vol="78" pan="0" len="24" pos="1008"/>
          <note key="66" vol="78" pan="0" len="24" pos="1032"/>
          <note key="63" vol="78" pan="0" len="24" pos="1056"/>
          <note key="66" vol="78" pan="0" len="24" pos="1080"/>
          <note key="71" vol="78" pan="0" len="24" pos="1104"/>
          <note key="66" vol="78" pan="0" len="24" pos="1128"/>
          <note key="64" vol="78" pan="0" len="24" pos="1152"/>
          <note key="68" vol="78" pan="0" len="24" pos="1176"/>
          <note key="73" vol="78" pan="0" len="24" pos="1200"/>
          <note key="68" vol="78" pan="0" len="24" pos="1224"/>
          <note key="64" vol="78" pan="0" len="24" pos="1248"/>
          <note key="68" vol="78" pan="0" len="24" pos="1272"/>
          <note key="73" vol="78" pan="0" len="24" pos="1296"/>
          <note key="68" vol="78" pan="0" len="24" pos="1320"/>
          <note key="66" vol="78" pan="0" len="24" pos="1344"/>
          <note key="68" vol="78" pan="0" len="24" pos="1368"/>
          <note key="66" vol="78" pan="0" len="24" pos="1392"/>
          <note key="64" vol="78" pan="0" len="24" pos="1416"/>
          <note key="63" vol="78" pan="0" len="24" pos="1440"/>
          <note key="60" vol="78" pan="0" len="24" pos="1464"/>
          <note key="66" vol="78" pan="0" len="24" pos="1488"/>
          <note key="63" vol="78" pan="0" len="24" pos="1512"/>
          <note key="61" vol="78" pan="0" len="24" pos="1536"/>
          <note key="68" vol="78" pan="0" len="24" pos="1560"/>
          <note key="73" vol="78" pan="0" len="24" pos="1584"/>
          <note key="68" vol="78" pan="0" len="24" pos="1608"/>
          <note key="61" vol="78" pan="0" len="24" pos="1632"/>
          <note key="68" vol="78" pan="0" len="24" pos="1656"/>
          <note key="73" vol="78" pan="0" len="24" pos="1680"/>
          <note key="68" vol="78" pan="0" len="24" pos="1704"/>
          <note key="63" vol="78" pan="0" len="24" pos="1728"/>
          <note key="68" vol="78" pan="0" len="24" pos="1752"/>
          <note key="71" vol="78" pan="0" len="24" pos="1776"/>
          <note key="68" vol="78" pan="0" len="24" pos="1800"/>
          <note key="63" vol="78" pan="0" len="24" pos="1824"/>
          <note key="68" vol="78" pan="0" len="24" pos="1848"/>
          <note key="71" vol="78" pan="0" len="24" pos="1872"/>
          <note key="68" vol="78" pan="0" len="24" pos="1896"/>
          <note key="61" vol="78" pan="0" len="24" pos="1920"/>
          <note key="66" vol="78" pan="0" len="24" pos="1944"/>
          <note key="70" vol="78" pan="0" len="24" pos="1968"/>
          <note key="66" vol="78" pan="0" len="24" pos="1992"/>
          <note key="61" vol="78" pan="0" len="24" pos="2016"/>
          <note key="66" vol="78" pan="0" len="24" pos="2040"/>
          <note key="70" vol="78" pan="0" len="24" pos="2064"/>
          <note key="66" vol="78" pan="0" len="24" pos="2088"/>
          <note key="61" vol="78" pan="0" len="24" pos="2112"/>
          <note key="66" vol="78" pan="0" len="24" pos="2136"/>
          <note key="70" vol="78" pan="0" len="24" pos="2160"/>
          <note key="66" vol="78" pan="0" len="24" pos="2184"/>
          <note key="61" vol="78" pan="0" len="24" pos="2208"/>
          <note key="66" vol="78" pan="0" len="24" pos="2232"/>
          <note key="70" vol="78" pan="0" len="24" pos="2256"/>
          <note key="66" vol="78" pan="0" len="24" pos="2280"/>
          <note key="66" vol="78" pan="0" len="24" pos="2304"/>
          <note key="69" vol="78" pan="0" len="24" pos="2328"/>
          <note key="73" vol="78" pan="0" len="24" pos="2352"/>
          <note key="69" vol="78" pan="0" len="24" pos="2376"/>
          <note key="66" vol="78" pan="0" len="24" pos="2400"/>
          <note key="69" vol="78" pan="0" len="24" pos="2424"/>
          <note key="73" vol="78" pan="0" len="24" pos="2448"/>
          <note key="69" vol="78" pan="0" len="24" pos="2472"/>
          <note key="63" vol="78" pan="0" len="24" pos="2496"/>
          <note key="68" vol="78" pan="0" len="24" pos="2520"/>
          <note key="73" vol="78" pan="0" len="24" pos="2544"/>
          <note key="68" vol="78" pan="0" len="24" pos="2568"/>
          <note key="63" vol="78" pan="0" len="24" pos="2592"/>
          <note key="68" vol="78" pan="0" len="24" pos="2616"/>
          <note key="73" vol="78" pan="0" len="24" pos="2640"/>
          <note key="68" vol="78" pan="0" len="24" pos="2664"/>
          <note key="66" vol="78" pan="0" len="24" pos="2688"/>
          <note key="71" vol="78" pan="0" len="24" pos="2712"/>
          <note key="75" vol="78" pan="0" len="24" pos="2736"/>
          <note key="71" vol="78" pan="0" len="24" pos="2760"/>
          <note key="66" vol="78" pan="0" len="24" pos="2784"/>
          <note key="71" vol="78" pan="0" len="24" pos="2808"/>
          <note key="75" vol="78" pan="0" len="24" pos="2832"/>
          <note key="71" vol="78" pan="0" len="24" pos="2856"/>
          <note key="66" vol="78" pan="0" len="96" pos="2880"/>
          <note key="59" vol="78" pan="0" len="96" pos="2976"/>
          <note key="68" vol="78" pan="0" len="12" pos="3072"/>
          <note key="64" vol="78" pan="0" len="12" pos="3084"/>
          <note key="61" vol="78" pan="0" len="12" pos="3096"/>
          <note key="56" vol="78" pan="0" len="12" pos="3108"/>
          <note key="52" vol="78" pan="0" len="12" pos="3120"/>
          <note key="49" vol="78" pan="0" len="12" pos="3132"/>
          <note key="61" vol="78" pan="0" len="12" pos="3168"/>
          <note key="56" vol="78" pan="0" len="12" pos="3180"/>
          <note key="52" vol="78" pan="0" len="12" pos="3192"/>
          <note key="49" vol="78" pan="0" len="12" pos="3204"/>
          <note key="76" vol="78" pan="0" len="12" pos="3216"/>
          <note key="71" vol="78" pan="0" len="12" pos="3228"/>
          <note key="68" vol="78" pan="0" len="12" pos="3240"/>
          <note key="64" vol="78" pan="0" len="12" pos="3252"/>
          <note key="76" vol="78" pan="0" len="12" pos="3264"/>
          <note key="71" vol="78" pan="0" len="12" pos="3276"/>
          <note key="80" vol="78" pan="0" len="12" pos="3288"/>
          <note key="76" vol="78" pan="0" len="12" pos="3300"/>
          <note key="71" vol="78" pan="0" len="12" pos="3312"/>
          <note key="68" vol="78" pan="0" len="12" pos="3324"/>
          <note key="64" vol="78" pan="0" len="12" pos="3336"/>
          <note key="61" vol="78" pan="0" len="12" pos="3348"/>
          <note key="73" vol="78" pan="0" len="12" pos="3360"/>
          <note key="68" vol="78" pan="0" len="12" pos="3372"/>
          <note key="64" vol="78" pan="0" len="12" pos="3384"/>
          <note key="61" vol="78" pan="0" len="12" pos="3396"/>
          <note key="68" vol="78" pan="0" len="12" pos="3408"/>
          <note key="64" vol="78" pan="0" len="12" pos="3420"/>
          <note key="56" vol="78" pan="0" len="12" pos="3432"/>
          <note key="49" vol="78" pan="0" len="12" pos="3444"/>
          <note key="69" vol="78" pan="0" len="12" pos="3456"/>
          <note key="66" vol="78" pan="0" len="12" pos="3468"/>
          <note key="57" vol="78" pan="0" len="12" pos="3480"/>
          <note key="54" vol="78" pan="0" len="12" pos="3492"/>
          <note key="49" vol="78" pan="0" len="12" pos="3504"/>
          <note key="47" vol="78" pan="0" len="12" pos="3516"/>
          <note key="74" vol="78" pan="0" len="12" pos="3528"/>
          <note key="69" vol="78" pan="0" len="12" pos="3540"/>
          <note key="66" vol="78" pan="0" len="12" pos="3552"/>
          <note key="61" vol="78" pan="0" len="12" pos="3564"/>
          <note key="57" vol="78" pan="0" len="12" pos="3576"/>
          <note key="54" vol="78" pan="0" len="12" pos="3588"/>
          <note key="78" vol="78" pan="0" len="12" pos="3600"/>
          <note key="74" vol="78" pan="0" len="12" pos="3612"/>
          <note key="69" vol="78" pan="0" len="12" pos="3624"/>
          <note key="66" vol="78" pan="0" len="12" pos="3636"/>
          <note key="81" vol="78" pan="0" len="12" pos="3672"/>
          <note key="78" vol="78" pan="0" len="12" pos="3684"/>
          <note key="73" vol="78" pan="0" len="12" pos="3696"/>
          <note key="69" vol="78" pan="0" len="12" pos="3708"/>
          <note key="66" vol="78" pan="0" len="12" pos="3720"/>
          <note key="61" vol="78" pan="0" len="12" pos="3732"/>
          <note key="74" vol="78" pan="0" len="12" pos="3744"/>
          <note key="71" vol="78" pan="0" len="12" pos="3756"/>
          <note key="66" vol="78" pan="0" len="12" pos="3768"/>
          <note key="61" vol="78" pan="0" len="12" pos="3780"/>
          <note key="69" vol="78" pan="0" len="12" pos="3792"/>
          <note key="66" vol="78" pan="0" len="12" pos="3804"/>
          <note key="61" vol="78" pan="0" len="12" pos="3816"/>
          <note key="57" vol="78" pan="0" len="12" pos="3828"/>
          <note key="68" vol="78" pan="0" len="12" pos="3840"/>
          <note key="64" vol="78" pan="0" len="12" pos="3852"/>
          <note key="61" vol="78" pan="0" len="12" pos="3864"/>
          <note key="56" vol="78" pan="0" len="12" pos="3876"/>
          <note key="73" vol="78" pan="0" len="12" pos="3912"/>
          <note key="69" vol="78" pan="0" len="12" pos="3924"/>
          <note key="68" vol="78" pan="0" len="12" pos="3936"/>
          <note key="64" vol="78" pan="0" len="12" pos="3948"/>
          <note key="56" vol="78" pan="0" len="12" pos="3960"/>
          <note key="52" vol="78" pan="0" len="12" pos="3972"/>
          <note key="76" vol="78" pan="0" len="12" pos="3984"/>
          <note key="71" vol="78" pan="0" len="12" pos="3996"/>
          <note key="68" vol="78" pan="0" len="12" pos="4008"/>
          <note key="64" vol="78" pan="0" len="12" pos="4020"/>
          <note key="81" vol="78" pan="0" len="12" pos="4056"/>
          <note key="78" vol="78" pan="0" len="12" pos="4068"/>
          <note key="78" vol="78" pan="0" len="12" pos="4080"/>
          <note key="69" vol="78" pan="0" len="12" pos="4092"/>
          <note key="66" vol="78" pan="0" len="12" pos="4104"/>
          <note key="64" vol="78" pan="0" len="12" pos="4116"/>
          <note key="73" vol="78" pan="0" len="12" pos="4128"/>
          <note key="69" vol="78" pan="0" len="12" pos="4140"/>
          <note key="66" vol="78" pan="0" len="12" pos="4152"/>
          <note key="61" vol="78" pan="0" len="12" pos="4164"/>
          <note key="68" vol="78" pan="0" len="12" pos="4176"/>
          <note key="64" vol="78" pan="0" len="12" pos="4188"/>
          <note key="61" vol="78" pan="0" len="12" pos="4200"/>
          <note key="56" vol="78" pan="0" len="12" pos="4212"/>
          <note key="69" vol="78" pan="0" len="12" pos="4224"/>
          <note key="66" vol="78" pan="0" len="12" pos="4236"/>
          <note key="57" vol="78" pan="0" len="12" pos="4248"/>
          <note key="54" vol="78" pan="0" len="12" pos="4260"/>
          <note key="52" vol="78" pan="0" len="12" pos="4272"/>
          <note key="49" vol="78" pan="0" len="12" pos="4284"/>
          <note key="74" vol="78" pan="0" len="12" pos="4296"/>
          <note key="69" vol="78" pan="0" len="12" pos="4308"/>
          <note key="66" vol="78" pan="0" len="12" pos="4320"/>
          <note key="61" vol="78" pan="0" len="12" pos="4332"/>
          <note key="57" vol="78" pan="0" len="12" pos="4344"/>
          <note key="54" vol="78" pan="0" len="12" pos="4356"/>
          <note key="78" vol="78" pan="0" len="12" pos="4368"/>
          <note key="74" vol="78" pan="0" len="12" pos="4380"/>
          <note key="69" vol="78" pan="0" len="12" pos="4392"/>
          <note key="66" vol="78" pan="0" len="12" pos="4404"/>
          <note key="81" vol="78" pan="0" len="12" pos="4440"/>
          <note key="78" vol="78" pan="0" len="12" pos="4452"/>
          <note key="73" vol="78" pan="0" len="12" pos="4464"/>
          <note key="69" vol="78" pan="0" len="12" pos="4476"/>
          <note key="66" vol="78" pan="0" len="12" pos="4488"/>
          <note key="61" vol="78" pan="0" len="12" pos="4500"/>
          <note key="74" vol="78" pan="0" len="12" pos="4512"/>
          <note key="71" vol="78" pan="0" len="12" pos="4524"/>
          <note key="66" vol="78" pan="0" len="12" pos="4536"/>
          <note key="61" vol="78" pan="0" len="12" pos="4548"/>
          <note key="69" vol="78" pan="0" len="12" pos="4560"/>
          <note key="66" vol="78" pan="0" len="12" pos="4572"/>
          <note key="61" vol="78" pan="0" len="12" pos="4584"/>
          <note key="57" vol="78" pan="0" len="12" pos="4596"/>
        </pattern>
        <pattern name="Orchestra Soundfont 2 COMBO" muted="0" type="1" steps="16" pos="15744">
          <note key="61" vol="78" pan="0" len="24" pos="0"/>
          <note key="68" vol="78" pan="0" len="24" pos="24"/>
          <note key="73" vol="78" pan="0" len="24" pos="48"/>
          <note key="68" vol="78" pan="0" len="24" pos="72"/>
          <note key="76" vol="78" pan="0" len="24" pos="96"/>
          <note key="68" vol="78" pan="0" len="24" pos="120"/>
          <note key="73" vol="78" pan="0" len="24" pos="144"/>
          <note key="68" vol="78" pan="0" len="24" pos="168"/>
          <note key="63" vol="78" pan="0" len="24" pos="192"/>
          <note key="68" vol="78" pan="0" len="24" pos="216"/>
          <note key="71" vol="78" pan="0" len="24" pos="240"/>
          <note key="68" vol="78" pan="0" len="24" pos="264"/>
          <note key="63" vol="78" pan="0" len="24" pos="288"/>
          <note key="68" vol="78" pan="0" len="24" pos="312"/>
          <note key="71" vol="78" pan="0" len="24" pos="336"/>
          <note key="68" vol="78" pan="0" len="24" pos="360"/>
          <note key="64" vol="78" pan="0" len="24" pos="384"/>
          <note key="68" vol="78" pan="0" len="24" pos="408"/>
          <note key="73" vol="78" pan="0" len="24" pos="432"/>
          <note key="68" vol="78" pan="0" len="24" pos="456"/>
          <note key="64" vol="78" pan="0" len="24" pos="480"/>
          <note key="68" vol="78" pan="0" len="24" pos="504"/>
          <note key="73" vol="78" pan="0" len="24" pos="528"/>
          <note key="68" vol="78" pan="0" len="24" pos="552"/>
          <note key="66" vol="78" pan="0" len="24" pos="576"/>
          <note key="71" vol="78" pan="0" len="24" pos="600"/>
          <note key="76" vol="78" pan="0" len="24" pos="624"/>
          <note key="71" vol="78" pan="0" len="24" pos="648"/>
          <note key="66" vol="78" pan="0" len="24" pos="672"/>
          <note key="71" vol="78" pan="0" len="24" pos="696"/>
          <note key="75" vol="78" pan="0" len="24" pos="720"/>
          <note key="71" vol="78" pan="0" len="24" pos="744"/>
          <note key="64" vol="78" pan="0" len="24" pos="768"/>
          <note key="68" vol="78" pan="0" len="24" pos="792"/>
          <note key="73" vol="78" pan="0" len="24" pos="816"/>
          <note key="68" vol="78" pan="0" len="24" pos="840"/>
          <note key="64" vol="78" pan="0" len="24" pos="864"/>
          <note key="68" vol="78" pan="0" len="24" pos="888"/>
          <note key="73" vol="78" pan="0" len="24" pos="912"/>
          <note key="68" vol="78" pan="0" len="24" pos="936"/>
          <note key="63" vol="78" pan="0" len="24" pos="960"/>
          <note key="66" vol="78" pan="0" len="24" pos="984"/>
          <note key="71" vol="78" pan="0" len="24" pos="1008"/>
          <note key="66" vol="78" pan="0" len="24" pos="1032"/>
          <note key="63" vol="78" pan="0" len="24" pos="1056"/>
          <note key="66" vol="78" pan="0" len="24" pos="1080"/>
          <note key="71" vol="78" pan="0" len="24" pos="1104"/>
          <note key="66" vol="78" pan="0" len="24" pos="1128"/>
          <note key="64" vol="78" pan="0" len="24" pos="1152"/>
          <note key="68" vol="78" pan="0" len="24" pos="1176"/>
          <note key="73" vol="78" pan="0" len="24" pos="1200"/>
          <note key="68" vol="78" pan="0" len="24" pos="1224"/>
          <note key="64" vol="78" pan="0" len="24" pos="1248"/>
          <note key="68" vol="78" pan="0" len="24" pos="1272"/>
          <note key="73" vol="78" pan="0" len="24" pos="1296"/>
          <note key="68" vol="78" pan="0" len="24" pos="1320"/>
          <note key="66" vol="78" pan="0" len="24" pos="1344"/>
          <note key="68" vol="78" pan="0" len="24" pos="1368"/>
          <note key="66" vol="78" pan="0" len="24" pos="1392"/>
          <note key="64" vol="78" pan="0" len="24" pos="1416"/>
          <note key="63" vol="78" pan="0" len="24" pos="1440"/>
          <note key="60" vol="78" pan="0" len="24" pos="1464"/>
          <note key="66" vol="78" pan="0" len="24" pos="1488"/>
          <note key="63" vol="78" pan="0" len="24" pos="1512"/>
          <note key="61" vol="78" pan="0" len="24" pos="1536"/>
          <note key="68" vol="78" pan="0" len="24" pos="1560"/>
          <note key="73" vol="78" pan="0" len="24" pos="1584"/>
          <note key="68" vol="78" pan="0" len="24" pos="1608"/>
          <note key="61" vol="78" pan="0" len="24" pos="1632"/>
          <note key="68" vol="78" pan="0" len="24" pos="1656"/>
          <note key="73" vol="78" pan="0" len="24" pos="1680"/>
          <note key="68" vol="78" pan="0" len="24" pos="1704"/>
          <note key="63" vol="78" pan="0" len="24" pos="1728"/>
          <note key="68" vol="78" pan="0" len="24" pos="1752"/>
          <note key="71" vol="78" pan="0" len="24" pos="1776"/>
          <note key="68" vol="78" pan="0" len="24" pos="1800"/>
          <note key="63" vol="78" pan="0" len="24" pos="1824"/>
          <note key="68" vol="78" pan="0" len="24" pos="1848"/>
          <note key="71" vol="78" pan="0" len="24" pos="1872"/>
          <note key="68" vol="78" pan="0" len="24" pos="1896"/>
          <note key="61" vol="78" pan="0" len="24" pos="1920"/>
          <note key="66" vol="78" pan="0" len="24" pos="1944"/>
          <note key="70" vol="78" pan="0" len="24" pos="1968"/>
          <note key="66" vol="78" pan="0" len="24" pos="1992"/>
          <note key="61" vol="78" pan="0" len="24" pos="2016"/>
          <note key="66" vol="78" pan="0" len="24" pos="2040"/>
          <note key="70" vol="78" pan="0" len="24" pos="2064"/>
          <note key="66" vol="78" pan="0" len="24" pos="2088"/>
          <note key="61" vol="78" pan="0" len="24" pos="2112"/>
          <note key="66" vol="78" pan="0" len="24" pos="2136"/>
          <note key="70" vol="78" pan="0" len="24" pos="2160"/>
          <note key="66" vol="78" pan="0" len="24" pos="2184"/>
          <note key="61" vol="78" pan="0" len="24" pos="2208"/>
          <note key="66" vol="78" pan="0" len="24" pos="2232"/>
          <note key="70" vol="78" pan="0" len="24" pos="2256"/>
          <note key="66" vol="78" pan="0" len="24" pos="2280"/>
          <note key="66" vol="78" pan="0" len="24" pos="2304"/>
          <note key="69" vol="78" pan="0" len="24" pos="2328"/>
          <note key="73" vol="78" pan="0" len="24" pos="2352"/>
          <note key="69" vol="78" pan="0" len="24" pos="2376"/>
          <note key="66" vol="78" pan="0" len="24" pos="2400"/>
          <note key="69" vol="78" pan="0" len="24" pos="2424"/>
          <note key="73" vol="78" pan="0" len="24" pos="2448"/>
          <note key="69" vol="78" pan="0" len="24" pos="2472"/>
          <note key="63" vol="78" pan="0" len="24" pos="2496"/>
          <note key="68" vol="78" pan="0" len="24" pos="2520"/>
          <note key="73" vol="78" pan="0" len="24" pos="2544"/>
          <note key="68" vol="78" pan="0" len="24" pos="2568"/>
          <note key="63" vol="78" pan="0" len="24" pos="2592"/>
          <note key="68" vol="78" pan="0" len="24" pos="2616"/>
          <note key="73" vol="78" pan="0" len="24" pos="2640"/>
          <note key="68" vol="78" pan="0" len="24" pos="2664"/>
          <note key="66" vol="78" pan="0" len="24" pos="2688"/>
          <note key="71" vol="78" pan="0" len="24" pos="2712"/>
          <note key="75" vol="78" pan="0" len="24" pos="2736"/>
          <note key="71" vol="78" pan="0" len="24" pos="2760"/>
          <note key="66" vol="78" pan="0" len="24" pos="2784"/>
          <note key="71" vol="78" pan="0" len="24" pos="2808"/>
          <note key="75" vol="78" pan="0" len="24" pos="2832"/>
          <note key="71" vol="78" pan="0" len="24" pos="2856"/>
          <note key="63" vol="78" pan="0" len="24" pos="2880"/>
          <note key="51" vol="78" pan="0" len="24" pos="2880"/>
          <note key="63" vol="78" pan="0" len="24" pos="2904"/>
          <note key="51" vol="78" pan="0" len="24" pos="2904"/>
          <note key="71" vol="78" pan="0" len="24" pos="2976"/>
          <note key="59" vol="78" pan="0" len="24" pos="2976"/>
          <note key="71" vol="78" pan="0" len="24" pos="3000"/>
          <note key="59" vol="78" pan="0" len="24" pos="3000"/>
          <note key="56" vol="78" pan="0" len="12" pos="3072"/>
          <note key="61" vol="78" pan="0" len="12" pos="3084"/>
          <note key="64" vol="78" pan="0" len="12" pos="3096"/>
          <note key="68" vol="78" pan="0" len="12" pos="3108"/>
          <note key="73" vol="78" pan="0" len="12" pos="3120"/>
          <note key="76" vol="78" pan="0" len="12" pos="3132"/>
          <note key="80" vol="78" pan="0" len="12" pos="3144"/>
          <note key="83" vol="78" pan="0" len="12" pos="3156"/>
          <note key="73" vol="78" pan="0" len="12" pos="3168"/>
          <note key="83" vol="78" pan="0" len="12" pos="3180"/>
          <note key="80" vol="78" pan="0" len="12" pos="3192"/>
          <note key="76" vol="78" pan="0" len="12" pos="3204"/>
          <note key="73" vol="78" pan="0" len="12" pos="3216"/>
          <note key="68" vol="78" pan="0" len="12" pos="3228"/>
          <note key="64" vol="78" pan="0" len="12" pos="3240"/>
          <note key="61" vol="78" pan="0" len="12" pos="3252"/>
          <note key="56" vol="78" pan="0" len="12" pos="3264"/>
          <note key="61" vol="78" pan="0" len="12" pos="3276"/>
          <note key="64" vol="78" pan="0" len="12" pos="3288"/>
          <note key="68" vol="78" pan="0" len="12" pos="3300"/>
          <note key="73" vol="78" pan="0" len="12" pos="3312"/>
          <note key="76" vol="78" pan="0" len="12" pos="3324"/>
          <note key="80" vol="78" pan="0" len="12" pos="3336"/>
          <note key="83" vol="78" pan="0" len="12" pos="3348"/>
          <note key="73" vol="78" pan="0" len="12" pos="3360"/>
          <note key="83" vol="78" pan="0" len="12" pos="3372"/>
          <note key="80" vol="78" pan="0" len="12" pos="3384"/>
          <note key="76" vol="78" pan="0" len="12" pos="3396"/>
          <note key="73" vol="78" pan="0" len="12" pos="3408"/>
          <note key="68" vol="78" pan="0" len="12" pos="3420"/>
          <note key="64" vol="78" pan="0" len="12" pos="3432"/>
          <note key="61" vol="78" pan="0" len="12" pos="3444"/>
          <note key="54" vol="78" pan="0" len="12" pos="3456"/>
          <note key="59" vol="78" pan="0" len="12" pos="3468"/>
          <note key="63" vol="78" pan="0" len="12" pos="3480"/>
          <note key="66" vol="78" pan="0" len="12" pos="3492"/>
          <note key="69" vol="78" pan="0" len="12" pos="3504"/>
          <note key="73" vol="78" pan="0" len="12" pos="3516"/>
          <note key="76" vol="78" pan="0" len="12" pos="3528"/>
          <note key="80" vol="78" pan="0" len="12" pos="3540"/>
          <note key="83" vol="78" pan="0" len="12" pos="3552"/>
          <note key="80" vol="78" pan="0" len="12" pos="3564"/>
          <note key="75" vol="78" pan="0" len="12" pos="3576"/>
          <note key="71" vol="78" pan="0" len="12" pos="3588"/>
          <note key="66" vol="78" pan="0" len="12" pos="3600"/>
          <note key="61" vol="78" pan="0" len="12" pos="3612"/>
          <note key="59" vol="78" pan="0" len="12" pos="3624"/>
          <note key="54" vol="78" pan="0" len="12" pos="3636"/>
          <note key="54" vol="78" pan="0" len="12" pos="3648"/>
          <note key="59" vol="78" pan="0" len="12" pos="3660"/>
          <note key="63" vol="78" pan="0" len="12" pos="3672"/>
          <note key="66" vol="78" pan="0" len="12" pos="3684"/>
          <note key="69" vol="78" pan="0" len="12" pos="3696"/>
          <note key="73" vol="78" pan="0" len="12" pos="3708"/>
          <note key="76" vol="78" pan="0" len="12" pos="3720"/>
          <note key="80" vol="78" pan="0" len="12" pos="3732"/>
          <note key="83" vol="78" pan="0" len="12" pos="3744"/>
          <note key="80" vol="78" pan="0" len="12" pos="3756"/>
          <note key="75" vol="78" pan="0" len="12" pos="3768"/>
          <note key="71" vol="78" pan="0" len="12" pos="3780"/>
          <note key="66" vol="78" pan="0" len="12" pos="3792"/>
          <note key="61" vol="78" pan="0" len="12" pos="3804"/>
          <note key="59" vol="78" pan="0" len="12" pos="3816"/>
          <note key="54" vol="78" pan="0" len="12" pos="3828"/>
          <note key="54" vol="78" pan="0" len="12" pos="3840"/>
          <note key="57" vol="78" pan="0" len="12" pos="3852"/>
          <note key="61" vol="78" pan="0" len="12" pos="3864"/>
          <note key="64" vol="78" pan="0" len="12" pos="3876"/>
          <note key="66" vol="78" pan="0" len="12" pos="3888"/>
          <note key="73" vol="78" pan="0" len="12" pos="3900"/>
          <note key="76" vol="78" pan="0" len="12" pos="3912"/>
          <note key="78" vol="78" pan="0" len="12" pos="3924"/>
          <note key="82" vol="78" pan="0" len="12" pos="3936"/>
          <note key="78" vol="78" pan="0" len="12" pos="3948"/>
          <note key="76" vol="78" pan="0" len="12" pos="3960"/>
          <note key="73" vol="78" pan="0" len="12" pos="3972"/>
          <note key="66" vol="78" pan="0" len="12" pos="3984"/>
          <note key="64" vol="78" pan="0" len="12" pos="3996"/>
          <note key="61" vol="78" pan="0" len="12" pos="4008"/>
          <note key="57" vol="78" pan="0" len="12" pos="4020"/>
          <note key="54" vol="78" pan="0" len="12" pos="4032"/>
          <note key="57" vol="78" pan="0" len="12" pos="4044"/>
          <note key="61" vol="78" pan="0" len="12" pos="4056"/>
          <note key="64" vol="78" pan="0" len="12" pos="4068"/>
          <note key="66" vol="78" pan="0" len="12" pos="4080"/>
          <note key="73" vol="78" pan="0" len="12" pos="4092"/>
          <note key="76" vol="78" pan="0" len="12" pos="4104"/>
          <note key="78" vol="78" pan="0" len="12" pos="4116"/>
          <note key="82" vol="78" pan="0" len="12" pos="4128"/>
          <note key="78" vol="78" pan="0" len="12" pos="4140"/>
          <note key="76" vol="78" pan="0" len="12" pos="4152"/>
          <note key="73" vol="78" pan="0" len="12" pos="4164"/>
          <note key="66" vol="78" pan="0" len="12" pos="4176"/>
          <note key="64" vol="78" pan="0" len="12" pos="4188"/>
          <note key="61" vol="78" pan="0" len="12" pos="4200"/>
          <note key="57" vol="78" pan="0" len="12" pos="4212"/>
          <note key="51" vol="78" pan="0" len="12" pos="4224"/>
          <note key="54" vol="78" pan="0" len="12" pos="4236"/>
          <note key="57" vol="78" pan="0" len="12" pos="4248"/>
          <note key="63" vol="78" pan="0" len="12" pos="4260"/>
          <note key="66" vol="78" pan="0" len="12" pos="4272"/>
          <note key="69" vol="78" pan="0" len="12" pos="4284"/>
          <note key="73" vol="78" pan="0" len="12" pos="4296"/>
          <note key="76" vol="78" pan="0" len="12" pos="4308"/>
          <note key="81" vol="78" pan="0" len="12" pos="4320"/>
          <note key="78" vol="78" pan="0" len="12" pos="4332"/>
          <note key="73" vol="78" pan="0" len="12" pos="4344"/>
          <note key="69" vol="78" pan="0" len="12" pos="4356"/>
          <note key="66" vol="78" pan="0" len="12" pos="4368"/>
          <note key="63" vol="78" pan="0" len="12" pos="4380"/>
          <note key="57" vol="78" pan="0" len="12" pos="4392"/>
          <note key="54" vol="78" pan="0" len="12" pos="4404"/>
          <note key="51" vol="78" pan="0" len="12" pos="4416"/>
          <note key="54" vol="78" pan="0" len="12" pos="4428"/>
          <note key="57" vol="78" pan="0" len="12" pos="4440"/>
          <note key="63" vol="78" pan="0" len="12" pos="4452"/>
          <note key="66" vol="78" pan="0" len="12" pos="4464"/>
          <note key="69" vol="78" pan="0" len="12" pos="4476"/>
          <note key="73" vol="78" pan="0" len="12" pos="4488"/>
          <note key="76" vol="78" pan="0" len="12" pos="4500"/>
          <note key="81" vol="78" pan="0" len="12" pos="4512"/>
          <note key="78" vol="78" pan="0" len="12" pos="4524"/>
          <note key="73" vol="78" pan="0" len="12" pos="4536"/>
          <note key="69" vol="78" pan="0" len="12" pos="4548"/>
          <note key="66" vol="78" pan="0" len="12" pos="4560"/>
          <note key="63" vol="78" pan="0" len="12" pos="4572"/>
          <note key="57" vol="78" pan="0" len="12" pos="4584"/>
          <note key="54" vol="78" pan="0" len="12" pos="4596"/>
          <note key="52" vol="78" pan="0" len="12" pos="4608"/>
          <note key="61" vol="78" pan="0" len="12" pos="4620"/>
          <note key="64" vol="78" pan="0" len="12" pos="4632"/>
          <note key="68" vol="78" pan="0" len="12" pos="4644"/>
          <note key="73" vol="78" pan="0" len="12" pos="4656"/>
          <note key="76" vol="78" pan="0" len="12" pos="4668"/>
          <note key="80" vol="78" pan="0" len="12" pos="4680"/>
          <note key="83" vol="78" pan="0" len="12" pos="4692"/>
          <note key="73" vol="78" pan="0" len="12" pos="4704"/>
          <note key="83" vol="78" pan="0" len="12" pos="4716"/>
          <note key="80" vol="78" pan="0" len="12" pos="4728"/>
          <note key="76" vol="78" pan="0" len="12" pos="4740"/>
          <note key="73" vol="78" pan="0" len="12" pos="4752"/>
          <note key="68" vol="78" pan="0" len="12" pos="4764"/>
          <note key="64" vol="78" pan="0" len="12" pos="4776"/>
          <note key="61" vol="78" pan="0" len="12" pos="4788"/>
          <note key="52" vol="78" pan="0" len="12" pos="4800"/>
          <note key="61" vol="78" pan="0" len="12" pos="4812"/>
          <note key="64" vol="78" pan="0" len="12" pos="4824"/>
          <note key="68" vol="78" pan="0" len="12" pos="4836"/>
          <note key="73" vol="78" pan="0" len="12" pos="4848"/>
          <note key="76" vol="78" pan="0" len="12" pos="4860"/>
          <note key="80" vol="78" pan="0" len="12" pos="4872"/>
          <note key="83" vol="78" pan="0" len="12" pos="4884"/>
          <note key="73" vol="78" pan="0" len="12" pos="4896"/>
          <note key="83" vol="78" pan="0" len="12" pos="4908"/>
          <note key="80" vol="78" pan="0" len="12" pos="4920"/>
          <note key="76" vol="78" pan="0" len="12" pos="4932"/>
          <note key="73" vol="78" pan="0" len="12" pos="4944"/>
          <note key="68" vol="78" pan="0" len="12" pos="4956"/>
          <note key="64" vol="78" pan="0" len="12" pos="4968"/>
          <note key="61" vol="78" pan="0" len="12" pos="4980"/>
          <note key="54" vol="78" pan="0" len="12" pos="4992"/>
          <note key="59" vol="78" pan="0" len="12" pos="5004"/>
          <note key="63" vol="78" pan="0" len="12" pos="5016"/>
          <note key="66" vol="78" pan="0" len="12" pos="5028"/>
          <note key="69" vol="78" pan="0" len="12" pos="5040"/>
          <note key="73" vol="78" pan="0" len="12" pos="5052"/>
          <note key="76" vol="78" pan="0" len="12" pos="5064"/>
          <note key="80" vol="78" pan="0" len="12" pos="5076"/>
          <note key="83" vol="78" pan="0" len="12" pos="5088"/>
          <note key="80" vol="78" pan="0" len="12" pos="5100"/>
          <note key="75" vol="78" pan="0" len="12" pos="5112"/>
          <note key="71" vol="78" pan="0" len="12" pos="5124"/>
          <note key="66" vol="78" pan="0" len="12" pos="5136"/>
          <note key="61" vol="78" pan="0" len="12" pos="5148"/>
          <note key="59" vol="78" pan="0" len="12" pos="5160"/>
          <note key="54" vol="78" pan="0" len="12" pos="5172"/>
          <note key="54" vol="78" pan="0" len="12" pos="5184"/>
          <note key="59" vol="78" pan="0" len="12" pos="5196"/>
          <note key="63" vol="78" pan="0" len="12" pos="5208"/>
          <note key="66" vol="78" pan="0" len="12" pos="5220"/>
          <note key="69" vol="78" pan="0" len="12" pos="5232"/>
          <note key="73" vol="78" pan="0" len="12" pos="5244"/>
          <note key="76" vol="78" pan="0" len="12" pos="5256"/>
          <note key="80" vol="78" pan="0" len="12" pos="5268"/>
          <note key="83" vol="78" pan="0" len="12" pos="5280"/>
          <note key="80" vol="78" pan="0" len="12" pos="5292"/>
          <note key="75" vol="78" pan="0" len="12" pos="5304"/>
          <note key="71" vol="78" pan="0" len="12" pos="5316"/>
          <note key="66" vol="78" pan="0" len="12" pos="5328"/>
          <note key="61" vol="78" pan="0" len="12" pos="5340"/>
          <note key="59" vol="78" pan="0" len="12" pos="5352"/>
          <note key="54" vol="78" pan="0" len="12" pos="5364"/>
          <note key="54" vol="78" pan="0" len="12" pos="5376"/>
          <note key="57" vol="78" pan="0" len="12" pos="5388"/>
          <note key="63" vol="78" pan="0" len="12" pos="5400"/>
          <note key="66" vol="78" pan="0" len="12" pos="5412"/>
          <note key="69" vol="78" pan="0" len="12" pos="5424"/>
          <note key="73" vol="78" pan="0" len="12" pos="5436"/>
          <note key="76" vol="78" pan="0" len="12" pos="5448"/>
          <note key="81" vol="78" pan="0" len="12" pos="5460"/>
          <note key="75" vol="78" pan="0" len="12" pos="5472"/>
          <note key="81" vol="78" pan="0" len="12" pos="5484"/>
          <note key="76" vol="78" pan="0" len="12" pos="5496"/>
          <note key="73" vol="78" pan="0" len="12" pos="5508"/>
          <note key="69" vol="78" pan="0" len="12" pos="5520"/>
          <note key="66" vol="78" pan="0" len="12" pos="5532"/>
          <note key="63" vol="78" pan="0" len="12" pos="5544"/>
          <note key="57" vol="78" pan="0" len="12" pos="5556"/>
          <note key="54" vol="78" pan="0" len="12" pos="5568"/>
          <note key="57" vol="78" pan="0" len="12" pos="5580"/>
          <note key="63" vol="78" pan="0" len="12" pos="5592"/>
          <note key="66" vol="78" pan="0" len="12" pos="5604"/>
          <note key="69" vol="78" pan="0" len="12" pos="5616"/>
          <note key="73" vol="78" pan="0" len="12" pos="5628"/>
          <note key="76" vol="78" pan="0" len="12" pos="5640"/>
          <note key="81" vol="78" pan="0" len="12" pos="5652"/>
          <note key="75" vol="78" pan="0" len="12" pos="5664"/>
          <note key="81" vol="78" pan="0" len="12" pos="5676"/>
          <note key="76" vol="78" pan="0" len="12" pos="5688"/>
          <note key="73" vol="78" pan="0" len="12" pos="5700"/>
          <note key="69" vol="78" pan="0" len="12" pos="5712"/>
          <note key="66" vol="78" pan="0" len="12" pos="5724"/>
          <note key="63" vol="78" pan="0" len="12" pos="5736"/>
          <note key="57" vol="78" pan="0" len="12" pos="5748"/>
          <note key="57" vol="78" pan="0" len="12" pos="5760"/>
          <note key="61" vol="78" pan="0" len="12" pos="5772"/>
          <note key="64" vol="78" pan="0" len="12" pos="5784"/>
          <note key="68" vol="78" pan="0" len="12" pos="5796"/>
          <note key="71" vol="78" pan="0" len="12" pos="5808"/>
          <note key="75" vol="78" pan="0" len="12" pos="5820"/>
          <note key="78" vol="78" pan="0" len="12" pos="5832"/>
          <note key="81" vol="78" pan="0" len="12" pos="5844"/>
          <note key="73" vol="78" pan="0" len="12" pos="5856"/>
          <note key="81" vol="78" pan="0" len="12" pos="5868"/>
          <note key="78" vol="78" pan="0" len="12" pos="5880"/>
          <note key="75" vol="78" pan="0" len="12" pos="5892"/>
          <note key="71" vol="78" pan="0" len="12" pos="5904"/>
          <note key="68" vol="78" pan="0" len="12" pos="5916"/>
          <note key="64" vol="78" pan="0" len="12" pos="5928"/>
          <note key="61" vol="78" pan="0" len="12" pos="5940"/>
          <note key="57" vol="78" pan="0" len="12" pos="5952"/>
          <note key="61" vol="78" pan="0" len="12" pos="5964"/>
          <note key="64" vol="78" pan="0" len="12" pos="5976"/>
          <note key="68" vol="78" pan="0" len="12" pos="5988"/>
          <note key="71" vol="78" pan="0" len="12" pos="6000"/>
          <note key="75" vol="78" pan="0" len="12" pos="6012"/>
          <note key="78" vol="78" pan="0" len="12" pos="6024"/>
          <note key="81" vol="78" pan="0" len="12" pos="6036"/>
          <note key="72" vol="78" pan="0" len="12" pos="6048"/>
          <note key="81" vol="78" pan="0" len="12" pos="6060"/>
          <note key="78" vol="78" pan="0" len="12" pos="6072"/>
          <note key="75" vol="78" pan="0" len="12" pos="6084"/>
          <note key="71" vol="78" pan="0" len="12" pos="6096"/>
          <note key="68" vol="78" pan="0" len="12" pos="6108"/>
          <note key="64" vol="78" pan="0" len="12" pos="6120"/>
          <note key="61" vol="78" pan="0" len="12" pos="6132"/>
        </pattern>
        <pattern name="Orchestra Soundfont 2 COMBO" muted="0" type="1" steps="16" pos="39552">
          <note key="61" vol="78" pan="0" len="24" pos="0"/>
          <note key="68" vol="78" pan="0" len="24" pos="24"/>
          <note key="73" vol="78" pan="0" len="24" pos="48"/>
          <note key="68" vol="78" pan="0" len="24" pos="72"/>
          <note key="76" vol="78" pan="0" len="24" pos="96"/>
          <note key="68" vol="78" pan="0" len="24" pos="120"/>
          <note key="73" vol="78" pan="0" len="24" pos="144"/>
          <note key="68" vol="78" pan="0" len="24" pos="168"/>
          <note key="63" vol="78" pan="0" len="24" pos="192"/>
          <note key="68" vol="78" pan="0" len="24" pos="216"/>
          <note key="71" vol="78" pan="0" len="24" pos="240"/>
          <note key="68" vol="78" pan="0" len="24" pos="264"/>
          <note key="63" vol="78" pan="0" len="24" pos="288"/>
          <note key="68" vol="78" pan="0" len="24" pos="312"/>
          <note key="71" vol="78" pan="0" len="24" pos="336"/>
          <note key="68" vol="78" pan="0" len="24" pos="360"/>
          <note key="64" vol="78" pan="0" len="24" pos="384"/>
          <note key="68" vol="78" pan="0" len="24" pos="408"/>
          <note key="73" vol="78" pan="0" len="24" pos="432"/>
          <note key="68" vol="78" pan="0" len="24" pos="456"/>
          <note key="64" vol="78" pan="0" len="24" pos="480"/>
          <note key="68" vol="78" pan="0" len="24" pos="504"/>
          <note key="73" vol="78" pan="0" len="24" pos="528"/>
          <note key="68" vol="78" pan="0" len="24" pos="552"/>
          <note key="66" vol="78" pan="0" len="24" pos="576"/>
          <note key="71" vol="78" pan="0" len="24" pos="600"/>
          <note key="76" vol="78" pan="0" len="24" pos="624"/>
          <note key="71" vol="78" pan="0" len="24" pos="648"/>
          <note key="66" vol="78" pan="0" len="24" pos="672"/>
          <note key="71" vol="78" pan="0" len="24" pos="696"/>
          <note key="75" vol="78" pan="0" len="24" pos="720"/>
          <note key="71" vol="78" pan="0" len="24" pos="744"/>
          <note key="64" vol="78" pan="0" len="24" pos="768"/>
          <note key="68" vol="78" pan="0" len="24" pos="792"/>
          <note key="73" vol="78" pan="0" len="24" pos="816"/>
          <note key="68" vol="78" pan="0" len="24" pos="840"/>
          <note key="64" vol="78" pan="0" len="24" pos="864"/>
          <note key="68" vol="78" pan="0" len="24" pos="888"/>
          <note key="73" vol="78" pan="0" len="24" pos="912"/>
          <note key="68" vol="78" pan="0" len="24" pos="936"/>
          <note key="63" vol="78" pan="0" len="24" pos="960"/>
          <note key="66" vol="78" pan="0" len="24" pos="984"/>
          <note key="71" vol="78" pan="0" len="24" pos="1008"/>
          <note key="66" vol="78" pan="0" len="24" pos="1032"/>
          <note key="63" vol="78" pan="0" len="24" pos="1056"/>
          <note key="66" vol="78" pan="0" len="24" pos="1080"/>
          <note key="71" vol="78" pan="0" len="24" pos="1104"/>
          <note key="66" vol="78" pan="0" len="24" pos="1128"/>
          <note key="64" vol="78" pan="0" len="24" pos="1152"/>
          <note key="68" vol="78" pan="0" len="24" pos="1176"/>
          <note key="73" vol="78" pan="0" len="24" pos="1200"/>
          <note key="68" vol="78" pan="0" len="24" pos="1224"/>
          <note key="64" vol="78" pan="0" len="24" pos="1248"/>
          <note key="68" vol="78" pan="0" len="24" pos="1272"/>
          <note key="73" vol="78" pan="0" len="24" pos="1296"/>
          <note key="68" vol="78" pan="0" len="24" pos="1320"/>
          <note key="66" vol="78" pan="0" len="24" pos="1344"/>
          <note key="68" vol="78" pan="0" len="24" pos="1368"/>
          <note key="66" vol="78" pan="0" len="24" pos="1392"/>
          <note key="64" vol="78" pan="0" len="24" pos="1416"/>
          <note key="63" vol="78" pan="0" len="24" pos="1440"/>
          <note key="60" vol="78" pan="0" len="24" pos="1464"/>
          <note key="66" vol="78" pan="0" len="24" pos="1488"/>
          <note key="63" vol="78" pan="0" len="24" pos="1512"/>
          <note key="61" vol="78" pan="0" len="24" pos="1536"/>
          <note key="68" vol="78" pan="0" len="24" pos="1560"/>
          <note key="73" vol="78" pan="0" len="24" pos="1584"/>
          <note key="68" vol="78" pan="0" len="24" pos="1608"/>
          <note key="61" vol="78" pan="0" len="24" pos="1632"/>
          <note key="68" vol="78" pan="0" len="24" pos="1656"/>
          <note key="73" vol="78" pan="0" len="24" pos="1680"/>
          <note key="68" vol="78" pan="0" len="24" pos="1704"/>
          <note key="63" vol="78" pan="0" len="24" pos="1728"/>
          <note key="68" vol="78" pan="0" len="24" pos="1752"/>
          <note key="71" vol="78" pan="0" len="24" pos="1776"/>
          <note key="68" vol="78" pan="0" len="24" pos="1800"/>
          <note key="63" vol="78" pan="0" len="24" pos="1824"/>
          <note key="68" vol="78" pan="0" len="24" pos="1848"/>
          <note key="71" vol="78" pan="0" len="24" pos="1872"/>
          <note key="68" vol="78" pan="0" len="24" pos="1896"/>
          <note key="61" vol="78" pan="0" len="24" pos="1920"/>
          <note key="66" vol="78" pan="0" len="24" pos="1944"/>
          <note key="70" vol="78" pan="0" len="24" pos="1968"/>
          <note key="66" vol="78" pan="0" len="24" pos="1992"/>
          <note key="61" vol="78" pan="0" len="24" pos="2016"/>
          <note key="66" vol="78" pan="0" len="24" pos="2040"/>
          <note key="70" vol="78" pan="0" len="24" pos="2064"/>
          <note key="66" vol="78" pan="0" len="24" pos="2088"/>
          <note key="61" vol="78" pan="0" len="24" pos="2112"/>
          <note key="66" vol="78" pan="0" len="24" pos="2136"/>
          <note key="70" vol="78" pan="0" len="24" pos="2160"/>
          <note key="66" vol="78" pan="0" len="24" pos="2184"/>
          <note key="61" vol="78" pan="0" len="24" pos="2208"/>
          <note key="66" vol="78" pan="0" len="24" pos="2232"/>
          <note key="70" vol="78" pan="0" len="24" pos="2256"/>
          <note key="66" vol="78" pan="0" len="24" pos="2280"/>
          <note key="66" vol="78" pan="0" len="24" pos="2304"/>
          <note key="69" vol="78" pan="0" len="24" pos="2328"/>
          <note key="73" vol="78" pan="0" len="24" pos="2352"/>
          <note key="69" vol="78" pan="0" len="24" pos="2376"/>
          <note key="66" vol="78" pan="0" len="24" pos="2400"/>
          <note key="69" vol="78" pan="0" len="24" pos="2424"/>
          <note key="73" vol="78" pan="0" len="24" pos="2448"/>
          <note key="69" vol="78" pan="0" len="24" pos="2472"/>
          <note key="63" vol="78" pan="0" len="24" pos="2496"/>
          <note key="68" vol="78" pan="0" len="24" pos="2520"/>
          <note key="73" vol="78" pan="0" len="24" pos="2544"/>
          <note key="68" vol="78" pan="0" len="24" pos="2568"/>
          <note key="63" vol="78" pan="0" len="24" pos="2592"/>
          <note key="68" vol="78" pan="0" len="24" pos="2616"/>
          <note key="73" vol="78" pan="0" len="24" pos="2640"/>
          <note key="68" vol="78" pan="0" len="24" pos="2664"/>
          <note key="66" vol="78" pan="0" len="24" pos="2688"/>
          <note key="71" vol="78" pan="0" len="24" pos="2712"/>
          <note key="75" vol="78" pan="0" len="24" pos="2736"/>
          <note key="71" vol="78" pan="0" len="24" pos="2760"/>
          <note key="66" vol="78" pan="0" len="24" pos="2784"/>
          <note key="71" vol="78" pan="0" len="24" pos="2808"/>
          <note key="75" vol="78" pan="0" len="24" pos="2832"/>
          <note key="71" vol="78" pan="0" len="24" pos="2856"/>
          <note key="66" vol="78" pan="0" len="96" pos="2880"/>
          <note key="59" vol="78" pan="0" len="96" pos="2976"/>
          <note key="68" vol="78" pan="0" len="12" pos="3072"/>
          <note key="64" vol="78" pan="0" len="12" pos="3084"/>
          <note key="61" vol="78" pan="0" len="12" pos="3096"/>
          <note key="56" vol="78" pan="0" len="12" pos="3108"/>
          <note key="52" vol="78" pan="0" len="12" pos="3120"/>
          <note key="49" vol="78" pan="0" len="12" pos="3132"/>
          <note key="61" vol="78" pan="0" len="12" pos="3168"/>
          <note key="56" vol="78" pan="0" len="12" pos="3180"/>
          <note key="52" vol="78" pan="0" len="12" pos="3192"/>
          <note key="49" vol="78" pan="0" len="12" pos="3204"/>
          <note key="76" vol="78" pan="0" len="12" pos="3216"/>
          <note key="71" vol="78" pan="0" len="12" pos="3228"/>
          <note key="68" vol="78" pan="0" len="12" pos="3240"/>
          <note key="64" vol="78" pan="0" len="12" pos="3252"/>
          <note key="76" vol="78" pan="0" len="12" pos="3264"/>
          <note key="71" vol="78" pan="0" len="12" pos="3276"/>
          <note key="80" vol="78" pan="0" len="12" pos="3288"/>
          <note key="76" vol="78" pan="0" len="12" pos="3300"/>
          <note key="71" vol="78" pan="0" len="12" pos="3312"/>
          <note key="68" vol="78" pan="0" len="12" pos="3324"/>
          <note key="64" vol="78" pan="0" len="12" pos="3336"/>
          <note key="61" vol="78" pan="0" len="12" pos="3348"/>
          <note key="73" vol="78" pan="0" len="12" pos="3360"/>
          <note key="68" vol="78" pan="0" len="12" pos="3372"/>
          <note key="64" vol="78" pan="0" len="12" pos="3384"/>
          <note key="61" vol="78" pan="0" len="12" pos="3396"/>
          <note key="68" vol="78" pan="0" len="12" pos="3408"/>
          <note key="64" vol="78" pan="0" len="12" pos="3420"/>
          <note key="56" vol="78" pan="0" len="12" pos="3432"/>
          <note key="49" vol="78" pan="0" len="12" pos="3444"/>
          <note key="69" vol="78" pan="0" len="12" pos="3456"/>
          <note key="66" vol="78" pan="0" len="12" pos="3468"/>
          <note key="57" vol="78" pan="0" len="12" pos="3480"/>
          <note key="54" vol="78" pan="0" len="12" pos="3492"/>
          <note key="49" vol="78" pan="0" len="12" pos="3504"/>
          <note key="47" vol="78" pan="0" len="12" pos="3516"/>
          <note key="74" vol="78" pan="0" len="12" pos="3528"/>
          <note key="69" vol="78" pan="0" len="12" pos="3540"/>
          <note key="66" vol="78" pan="0" len="12" pos="3552"/>
          <note key="61" vol="78" pan="0" len="12" pos="3564"/>
          <note key="57" vol="78" pan="0" len="12" pos="3576"/>
          <note key="54" vol="78" pan="0" len="12" pos="3588"/>
          <note key="78" vol="78" pan="0" len="12" pos="3600"/>
          <note key="74" vol="78" pan="0" len="12" pos="3612"/>
          <note key="69" vol="78" pan="0" len="12" pos="3624"/>
          <note key="66" vol="78" pan="0" len="12" pos="3636"/>
          <note key="81" vol="78" pan="0" len="12" pos="3672"/>
          <note key="78" vol="78" pan="0" len="12" pos="3684"/>
          <note key="73" vol="78" pan="0" len="12" pos="3696"/>
          <note key="69" vol="78" pan="0" len="12" pos="3708"/>
          <note key="66" vol="78" pan="0" len="12" pos="3720"/>
          <note key="61" vol="78" pan="0" len="12" pos="3732"/>
          <note key="74" vol="78" pan="0" len="12" pos="3744"/>
          <note key="71" vol="78" pan="0" len="12" pos="3756"/>
          <note key="66" vol="78" pan="0" len="12" pos="3768"/>
          <note key="61" vol="78" pan="0" len="12" pos="3780"/>
          <note key="69" vol="78" pan="0" len="12" pos="3792"/>
          <note key="66" vol="78" pan="0" len="12" pos="3804"/>
          <note key="61" vol="78" pan="0" len="12" pos="3816"/>
          <note key="57" vol="78" pan="0" len="12" pos="3828"/>
          <note key="68" vol="78" pan="0" len="12" pos="3840"/>
          <note key="64" vol="78" pan="0" len="12" pos="3852"/>
          <note key="61" vol="78" pan="0" len="12" pos="3864"/>
          <note key="56" vol="78" pan="0" len="12" pos="3876"/>
          <note key="73" vol="78" pan="0" len="12" pos="3912"/>
          <note key="69" vol="78" pan="0" len="12" pos="3924"/>
          <note key="68" vol="78" pan="0" len="12" pos="3936"/>
          <note key="64" vol="78" pan="0" len="12" pos="3948"/>
          <note key="56" vol="78" pan="0" len="12" pos="3960"/>
          <note key="52" vol="78" pan="0" len="12" pos="3972"/>
          <note key="76" vol="78" pan="0" len="12" pos="3984"/>
          <note key="71" vol="78" pan="0" len="12" pos="3996"/>
          <note key="68" vol="78" pan="0" len="12" pos="4008"/>
          <note key="64" vol="78" pan="0" len="12" pos="4020"/>
          <note key="81" vol="78" pan="0" len="12" pos="4056"/>
          <note key="78" vol="78" pan="0" len="12" pos="4068"/>
          <note key="78" vol="78" pan="0" len="12" pos="4080"/>
          <note key="69" vol="78" pan="0" len="12" pos="4092"/>
          <note key="66" vol="78" pan="0" len="12" pos="4104"/>
          <note key="64" vol="78" pan="0" len="12" pos="4116"/>
          <note key="73" vol="78" pan="0" len="12" pos="4128"/>
          <note key="69" vol="78" pan="0" len="12" pos="4140"/>
          <note key="66" vol="78" pan="0" len="12" pos="4152"/>
          <note key="61" vol="78" pan="0" len="12" pos="4164"/>
          <note key="68" vol="78" pan="0" len="12" pos="4176"/>
          <note key="64" vol="78" pan="0" len="12" pos="4188"/>
          <note key="61" vol="78" pan="0" len="12" pos="4200"/>
          <note key="56" vol="78" pan="0" len="12" pos="4212"/>
          <note key="69" vol="78" pan="0" len="12" pos="4224"/>
          <note key="66" vol="78" pan="0" len="12" pos="4236"/>
          <note key="57" vol="78" pan="0" len="12" pos="4248"/>
          <note key="54" vol="78" pan="0" len="12" pos="4260"/>
          <note key="52" vol="78" pan="0" len="12" pos="4272"/>
          <note key="49" vol="78" pan="0" len="12" pos="4284"/>
          <note key="74" vol="78" pan="0" len="12" pos="4296"/>
          <note key="69" vol="78" pan="0" len="12" pos="4308"/>
          <note key="66" vol="78" pan="0" len="12" pos="4320"/>
          <note key="61" vol="78" pan="0" len="12" pos="4332"/>
          <note key="57" vol="78" pan="0" len="12" pos="4344"/>
          <note key="54" vol="78" pan="0" len="12" pos="4356"/>
          <note key="78" vol="78" pan="0" len="12" pos="4368"/>
          <note key="74" vol="78" pan="0" len="12" pos="4380"/>
          <note key="69" vol="78" pan="0" len="12" pos="4392"/>
          <note key="66" vol="78" pan="0" len="12" pos="4404"/>
          <note key="81" vol="78" pan="0" len="12" pos="4440"/>
          <note key="78" vol="78" pan="0" len="12" pos="4452"/>
          <note key="73" vol="78" pan="0" len="12" pos="4464"/>
          <note key="69" vol="78" pan="0" len="12" pos="4476"/>
          <note key="66" vol="78" pan="0" len="12" pos="4488"/>
          <note key="61" vol="78" pan="0" len="12" pos="4500"/>
          <note key="74" vol="78" pan="0" len="12" pos="4512"/>
          <note key="71" vol="78" pan="0" len="12" pos="4524"/>
          <note key="66" vol="78" pan="0" len="12" pos="4536"/>
          <note key="61" vol="78" pan="0" len="12" pos="4548"/>
          <note key="69" vol="78" pan="0" len="12" pos="4560"/>
          <note key="66" vol="78" pan="0" len="12" pos="4572"/>
          <note key="61" vol="78" pan="0" len="12" pos="4584"/>
          <note key="57" vol="78" pan="0" len="12" pos="4596"/>
        </pattern>
        <pattern name="Orchestra Soundfont 2 COMBO" muted="0" type="1" steps="16" pos="47232">
          <note key="61" vol="78" pan="0" len="24" pos="0"/>
          <note key="68" vol="78" pan="0" len="24" pos="24"/>
          <note key="73" vol="78" pan="0" len="24" pos="48"/>
          <note key="68" vol="78" pan="0" len="24" pos="72"/>
          <note key="76" vol="78" pan="0" len="24" pos="96"/>
          <note key="68" vol="78" pan="0" len="24" pos="120"/>
          <note key="73" vol="78" pan="0" len="24" pos="144"/>
          <note key="68" vol="78" pan="0" len="24" pos="168"/>
          <note key="63" vol="78" pan="0" len="24" pos="192"/>
          <note key="68" vol="78" pan="0" len="24" pos="216"/>
          <note key="71" vol="78" pan="0" len="24" pos="240"/>
          <note key="68" vol="78" pan="0" len="24" pos="264"/>
          <note key="63" vol="78" pan="0" len="24" pos="288"/>
          <note key="68" vol="78" pan="0" len="24" pos="312"/>
          <note key="71" vol="78" pan="0" len="24" pos="336"/>
          <note key="68" vol="78" pan="0" len="24" pos="360"/>
          <note key="64" vol="78" pan="0" len="24" pos="384"/>
          <note key="68" vol="78" pan="0" len="24" pos="408"/>
          <note key="73" vol="78" pan="0" len="24" pos="432"/>
          <note key="68" vol="78" pan="0" len="24" pos="456"/>
          <note key="64" vol="78" pan="0" len="24" pos="480"/>
          <note key="68" vol="78" pan="0" len="24" pos="504"/>
          <note key="73" vol="78" pan="0" len="24" pos="528"/>
          <note key="68" vol="78" pan="0" len="24" pos="552"/>
          <note key="66" vol="78" pan="0" len="24" pos="576"/>
          <note key="71" vol="78" pan="0" len="24" pos="600"/>
          <note key="76" vol="78" pan="0" len="24" pos="624"/>
          <note key="71" vol="78" pan="0" len="24" pos="648"/>
          <note key="66" vol="78" pan="0" len="24" pos="672"/>
          <note key="71" vol="78" pan="0" len="24" pos="696"/>
          <note key="75" vol="78" pan="0" len="24" pos="720"/>
          <note key="71" vol="78" pan="0" len="24" pos="744"/>
          <note key="64" vol="78" pan="0" len="24" pos="768"/>
          <note key="68" vol="78" pan="0" len="24" pos="792"/>
          <note key="73" vol="78" pan="0" len="24" pos="816"/>
          <note key="68" vol="78" pan="0" len="24" pos="840"/>
          <note key="64" vol="78" pan="0" len="24" pos="864"/>
          <note key="68" vol="78" pan="0" len="24" pos="888"/>
          <note key="73" vol="78" pan="0" len="24" pos="912"/>
          <note key="68" vol="78" pan="0" len="24" pos="936"/>
          <note key="63" vol="78" pan="0" len="24" pos="960"/>
          <note key="66" vol="78" pan="0" len="24" pos="984"/>
          <note key="71" vol="78" pan="0" len="24" pos="1008"/>
          <note key="66" vol="78" pan="0" len="24" pos="1032"/>
          <note key="63" vol="78" pan="0" len="24" pos="1056"/>
          <note key="66" vol="78" pan="0" len="24" pos="1080"/>
          <note key="71" vol="78" pan="0" len="24" pos="1104"/>
          <note key="66" vol="78" pan="0" len="24" pos="1128"/>
          <note key="64" vol="78" pan="0" len="24" pos="1152"/>
          <note key="68" vol="78" pan="0" len="24" pos="1176"/>
          <note key="73" vol="78" pan="0" len="24" pos="1200"/>
          <note key="68" vol="78" pan="0" len="24" pos="1224"/>
          <note key="64" vol="78" pan="0" len="24" pos="1248"/>
          <note key="68" vol="78" pan="0" len="24" pos="1272"/>
          <note key="73" vol="78" pan="0" len="24" pos="1296"/>
          <note key="68" vol="78" pan="0" len="24" pos="1320"/>
          <note key="66" vol="78" pan="0" len="24" pos="1344"/>
          <note key="68" vol="78" pan="0" len="24" pos="1368"/>
          <note key="66" vol="78" pan="0" len="24" pos="1392"/>
          <note key="64" vol="78" pan="0" len="24" pos="1416"/>
          <note key="63" vol="78" pan="0" len="24" pos="1440"/>
          <note key="60" vol="78" pan="0" len="24" pos="1464"/>
          <note key="66" vol="78" pan="0" len="24" pos="1488"/>
          <note key="63" vol="78" pan="0" len="24" pos="1512"/>
          <note key="61" vol="78" pan="0" len="24" pos="1536"/>
          <note key="68" vol="78" pan="0" len="24" pos="1560"/>
          <note key="73" vol="78" pan="0" len="24" pos="1584"/>
          <note key="68" vol="78" pan="0" len="24" pos="1608"/>
          <note key="61" vol="78" pan="0" len="24" pos="1632"/>
          <note key="68" vol="78" pan="0" len="24" pos="1656"/>
          <note key="73" vol="78" pan="0" len="24" pos="1680"/>
          <note key="68" vol="78" pan="0" len="24" pos="1704"/>
          <note key="63" vol="78" pan="0" len="24" pos="1728"/>
          <note key="68" vol="78" pan="0" len="24" pos="1752"/>
          <note key="71" vol="78" pan="0" len="24" pos="1776"/>
          <note key="68" vol="78" pan="0" len="24" pos="1800"/>
          <note key="63" vol="78" pan="0" len="24" pos="1824"/>
          <note key="68" vol="78" pan="0" len="24" pos="1848"/>
          <note key="71" vol="78" pan="0" len="24" pos="1872"/>
          <note key="68" vol="78" pan="0" len="24" pos="1896"/>
          <note key="61" vol="78" pan="0" len="24" pos="1920"/>
          <note key="66" vol="78" pan="0" len="24" pos="1944"/>
          <note key="70" vol="78" pan="0" len="24" pos="1968"/>
          <note key="66" vol="78" pan="0" len="24" pos="1992"/>
          <note key="61" vol="78" pan="0" len="24" pos="2016"/>
          <note key="66" vol="78" pan="0" len="24" pos="2040"/>
          <note key="70" vol="78" pan="0" len="24" pos="2064"/>
          <note key="66" vol="78" pan="0" len="24" pos="2088"/>
          <note key="61" vol="78" pan="0" len="24" pos="2112"/>
          <note key="66" vol="78" pan="0" len="24" pos="2136"/>
          <note key="70" vol="78" pan="0" len="24" pos="2160"/>
          <note key="66" vol="78" pan="0" len="24" pos="2184"/>
          <note key="61" vol="78" pan="0" len="24" pos="2208"/>
          <note key="66" vol="78" pan="0" len="24" pos="2232"/>
          <note key="70" vol="78" pan="0" len="24" pos="2256"/>
          <note key="66" vol="78" pan="0" len="24" pos="2280"/>
          <note key="66" vol="78" pan="0" len="24" pos="2304"/>
          <note key="69" vol="78" pan="0" len="24" pos="2328"/>
          <note key="73" vol="78" pan="0" len="24" pos="2352"/>
          <note key="69" vol="78" pan="0" len="24" pos="2376"/>
          <note key="66" vol="78" pan="0" len="24" pos="2400"/>
          <note key="69" vol="78" pan="0" len="24" pos="2424"/>
          <note key="73" vol="78" pan="0" len="24" pos="2448"/>
          <note key="69" vol="78" pan="0" len="24" pos="2472"/>
          <note key="63" vol="78" pan="0" len="24" pos="2496"/>
          <note key="68" vol="78" pan="0" len="24" pos="2520"/>
          <note key="73" vol="78" pan="0" len="24" pos="2544"/>
          <note key="68" vol="78" pan="0" len="24" pos="2568"/>
          <note key="63" vol="78" pan="0" len="24" pos="2592"/>
          <note key="68" vol="78" pan="0" len="24" pos="2616"/>
          <note key="73" vol="78" pan="0" len="24" pos="2640"/>
          <note key="68" vol="78" pan="0" len="24" pos="2664"/>
          <note key="66" vol="78" pan="0" len="24" pos="2688"/>
          <note key="71" vol="78" pan="0" len="24" pos="2712"/>
          <note key="75" vol="78" pan="0" len="24" pos="2736"/>
          <note key="71" vol="78" pan="0" len="24" pos="2760"/>
          <note key="66" vol="78" pan="0" len="24" pos="2784"/>
          <note key="71" vol="78" pan="0" len="24" pos="2808"/>
          <note key="75" vol="78" pan="0" len="24" pos="2832"/>
          <note key="71" vol="78" pan="0" len="24" pos="2856"/>
          <note key="63" vol="78" pan="0" len="24" pos="2880"/>
          <note key="51" vol="78" pan="0" len="24" pos="2880"/>
          <note key="63" vol="78" pan="0" len="24" pos="2904"/>
          <note key="51" vol="78" pan="0" len="24" pos="2904"/>
          <note key="71" vol="78" pan="0" len="24" pos="2976"/>
          <note key="59" vol="78" pan="0" len="24" pos="2976"/>
          <note key="71" vol="78" pan="0" len="24" pos="3000"/>
          <note key="59" vol="78" pan="0" len="24" pos="3000"/>
          <note key="56" vol="78" pan="0" len="12" pos="3072"/>
          <note key="61" vol="78" pan="0" len="12" pos="3084"/>
          <note key="64" vol="78" pan="0" len="12" pos="3096"/>
          <note key="68" vol="78" pan="0" len="12" pos="3108"/>
          <note key="73" vol="78" pan="0" len="12" pos="3120"/>
          <note key="76" vol="78" pan="0" len="12" pos="3132"/>
          <note key="80" vol="78" pan="0" len="12" pos="3144"/>
          <note key="83" vol="78" pan="0" len="12" pos="3156"/>
          <note key="73" vol="78" pan="0" len="12" pos="3168"/>
          <note key="83" vol="78" pan="0" len="12" pos="3180"/>
          <note key="80" vol="78" pan="0" len="12" pos="3192"/>
          <note key="76" vol="78" pan="0" len="12" pos="3204"/>
          <note key="73" vol="78" pan="0" len="12" pos="3216"/>
          <note key="68" vol="78" pan="0" len="12" pos="3228"/>
          <note key="64" vol="78" pan="0" len="12" pos="3240"/>
          <note key="61" vol="78" pan="0" len="12" pos="3252"/>
          <note key="56" vol="78" pan="0" len="12" pos="3264"/>
          <note key="61" vol="78" pan="0" len="12" pos="3276"/>
          <note key="64" vol="78" pan="0" len="12" pos="3288"/>
          <note key="68" vol="78" pan="0" len="12" pos="3300"/>
          <note key="73" vol="78" pan="0" len="12" pos="3312"/>
          <note key="76" vol="78" pan="0" len="12" pos="3324"/>
          <note key="80" vol="78" pan="0" len="12" pos="3336"/>
          <note key="83" vol="78" pan="0" len="12" pos="3348"/>
          <note key="73" vol="78" pan="0" len="12" pos="3360"/>
          <note key="83" vol="78" pan="0" len="12" pos="3372"/>
          <note key="80" vol="78" pan="0" len="12" pos="3384"/>
          <note key="76" vol="78" pan="0" len="12" pos="3396"/>
          <note key="73" vol="78" pan="0" len="12" pos="3408"/>
          <note key="68" vol="78" pan="0" len="12" pos="3420"/>
          <note key="64" vol="78" pan="0" len="12" pos="3432"/>
          <note key="61" vol="78" pan="0" len="12" pos="3444"/>
          <note key="54" vol="78" pan="0" len="12" pos="3456"/>
          <note key="59" vol="78" pan="0" len="12" pos="3468"/>
          <note key="63" vol="78" pan="0" len="12" pos="3480"/>
          <note key="66" vol="78" pan="0" len="12" pos="3492"/>
          <note key="69" vol="78" pan="0" len="12" pos="3504"/>
          <note key="73" vol="78" pan="0" len="12" pos="3516"/>
          <note key="76" vol="78" pan="0" len="12" pos="3528"/>
          <note key="80" vol="78" pan="0" len="12" pos="3540"/>
          <note key="83" vol="78" pan="0" len="12" pos="3552"/>
          <note key="80" vol="78" pan="0" len="12" pos="3564"/>
          <note key="75" vol="78" pan="0" len="12" pos="3576"/>
          <note key="71" vol="78" pan="0" len="12" pos="3588"/>
          <note key="66" vol="78" pan="0" len="12" pos="3600"/>
          <note key="61" vol="78" pan="0" len="12" pos="3612"/>
          <note key="59" vol="78" pan="0" len="12" pos="3624"/>
          <note key="54" vol="78" pan="0" len="12" pos="3636"/>
          <note key="54" vol="78" pan="0" len="12" pos="3648"/>
          <note key="59" vol="78" pan="0" len="12" pos="3660"/>
          <note key="63" vol="78" pan="0" len="12" pos="3672"/>
          <note key="66" vol="78" pan="0" len="12" pos="3684"/>
          <note key="69" vol="78" pan="0" len="12" pos="3696"/>
          <note key="73" vol="78" pan="0" len="12" pos="3708"/>
          <note key="76" vol="78" pan="0" len="12" pos="3720"/>
          <note key="80" vol="78" pan="0" len="12" pos="3732"/>
          <note key="83" vol="78" pan="0" len="12" pos="3744"/>
          <note key="80" vol="78" pan="0" len="12" pos="3756"/>
          <note key="75" vol="78" pan="0" len="12" pos="3768"/>
          <note key="71" vol="78" pan="0" len="12" pos="3780"/>
          <note key="66" vol="78" pan="0" len="12" pos="3792"/>
          <note key="61" vol="78" pan="0" len="12" pos="3804"/>
          <note key="59" vol="78" pan="0" len="12" pos="3816"/>
          <note key="54" vol="78" pan="0" len="12" pos="3828"/>
          <note key="54" vol="78" pan="0" len="12" pos="3840"/>
          <note key="57" vol="78" pan="0" len="12" pos="3852"/>
          <note key="61" vol="78" pan="0" len="12" pos="3864"/>
          <note key="64" vol="78" pan="0" len="12" pos="3876"/>
          <note key="66" vol="78" pan="0" len="12" pos="3888"/>
          <note key="73" vol="78" pan="0" len="12" pos="3900"/>
          <note key="76" vol="78" pan="0" len="12" pos="3912"/>
          <note key="78" vol="78" pan="0" len="12" pos="3924"/>
          <note key="82" vol="78" pan="0" len="12" pos="3936"/>
          <note key="78" vol="78" pan="0" len="12" pos="3948"/>
          <note key="76" vol="78" pan="0" len="12" pos="3960"/>
          <note key="73" vol="78" pan="0" len="12" pos="3972"/>
          <note key="66" vol="78" pan="0" len="12" pos="3984"/>
          <note key="64" vol="78" pan="0" len="12" pos="3996"/>
          <note key="61" vol="78" pan="0" len="12" pos="4008"/>
          <note key="57" vol="78" pan="0" len="12" pos="4020"/>
          <note key="54" vol="78" pan="0" len="12" pos="4032"/>
          <note key="57" vol="78" pan="0" len="12" pos="4044"/>
          <note key="61" vol="78" pan="0" len="12" pos="4056"/>
          <note key="64" vol="78" pan="0" len="12" pos="4068"/>
          <note key="66" vol="78" pan="0" len="12" pos="4080"/>
          <note key="73" vol="78" pan="0" len="12" pos="4092"/>
          <note key="76" vol="78" pan="0" len="12" pos="4104"/>
          <note key="78" vol="78" pan="0" len="12" pos="4116"/>
          <note key="82" vol="78" pan="0" len="12" pos="4128"/>
          <note key="78" vol="78" pan="0" len="12" pos="4140"/>
          <note key="76" vol="78" pan="0" len="12" pos="4152"/>
          <note key="73" vol="78" pan="0" len="12" pos="4164"/>
          <note key="66" vol="78" pan="0" len="12" pos="4176"/>
          <note key="64" vol="78" pan="0" len="12" pos="4188"/>
          <note key="61" vol="78" pan="0" len="12" pos="4200"/>
          <note key="57" vol="78" pan="0" len="12" pos="4212"/>
          <note key="51" vol="78" pan="0" len="12" pos="4224"/>
          <note key="54" vol="78" pan="0" len="12" pos="4236"/>
          <note key="57" vol="78" pan="0" len="12" pos="4248"/>
          <note key="63" vol="78" pan="0" len="12" pos="4260"/>
          <note key="66" vol="78" pan="0" len="12" pos="4272"/>
          <note key="69" vol="78" pan="0" len="12" pos="4284"/>
          <note key="73" vol="78" pan="0" len="12" pos="4296"/>
          <note key="76" vol="78" pan="0" len="12" pos="4308"/>
          <note key="81" vol="78" pan="0" len="12" pos="4320"/>
          <note key="78" vol="78" pan="0" len="12" pos="4332"/>
          <note key="73" vol="78" pan="0" len="12" pos="4344"/>
          <note key="69" vol="78" pan="0" len="12" pos="4356"/>
          <note key="66" vol="78" pan="0" len="12" pos="4368"/>
          <note key="63" vol="78" pan="0" len="12" pos="4380"/>
          <note key="57" vol="78" pan="0" len="12" pos="4392"/>
          <note key="54" vol="78" pan="0" len="12" pos="4404"/>
          <note key="51" vol="78" pan="0" len="12" pos="4416"/>
          <note key="54" vol="78" pan="0" len="12" pos="4428"/>
          <note key="57" vol="78" pan="0" len="12" pos="4440"/>
          <note key="63" vol="78" pan="0" len="12" pos="4452"/>
          <note key="66" vol="78" pan="0" len="12" pos="4464"/>
          <note key="69" vol="78" pan="0" len="12" pos="4476"/>
          <note key="73" vol="78" pan="0" len="12" pos="4488"/>
          <note key="76" vol="78" pan="0" len="12" pos="4500"/>
          <note key="81" vol="78" pan="0" len="12" pos="4512"/>
          <note key="78" vol="78" pan="0" len="12" pos="4524"/>
          <note key="73" vol="78" pan="0" len="12" pos="4536"/>
          <note key="69" vol="78" pan="0" len="12" pos="4548"/>
          <note key="66" vol="78" pan="0" len="12" pos="4560"/>
          <note key="63" vol="78" pan="0" len="12" pos="4572"/>
          <note key="57" vol="78" pan="0" len="12" pos="4584"/>
          <note key="54" vol="78" pan="0" len="12" pos="4596"/>
          <note key="52" vol="78" pan="0" len="12" pos="4608"/>
          <note key="61" vol="78" pan="0" len="12" pos="4620"/>
          <note key="64" vol="78" pan="0" len="12" pos="4632"/>
          <note key="68" vol="78" pan="0" len="12" pos="4644"/>
          <note key="73" vol="78" pan="0" len="12" pos="4656"/>
          <note key="76" vol="78" pan="0" len="12" pos="4668"/>
          <note key="80" vol="78" pan="0" len="12" pos="4680"/>
          <note key="83" vol="78" pan="0" len="12" pos="4692"/>
          <note key="73" vol="78" pan="0" len="12" pos="4704"/>
          <note key="83" vol="78" pan="0" len="12" pos="4716"/>
          <note key="80" vol="78" pan="0" len="12" pos="4728"/>
          <note key="76" vol="78" pan="0" len="12" pos="4740"/>
          <note key="73" vol="78" pan="0" len="12" pos="4752"/>
          <note key="68" vol="78" pan="0" len="12" pos="4764"/>
          <note key="64" vol="78" pan="0" len="12" pos="4776"/>
          <note key="61" vol="78" pan="0" len="12" pos="4788"/>
          <note key="52" vol="78" pan="0" len="12" pos="4800"/>
          <note key="61" vol="78" pan="0" len="12" pos="4812"/>
          <note key="64" vol="78" pan="0" len="12" pos="4824"/>
          <note key="68" vol="78" pan="0" len="12" pos="4836"/>
          <note key="73" vol="78" pan="0" len="12" pos="4848"/>
          <note key="76" vol="78" pan="0" len="12" pos="4860"/>
          <note key="80" vol="78" pan="0" len="12" pos="4872"/>
          <note key="83" vol="78" pan="0" len="12" pos="4884"/>
          <note key="73" vol="78" pan="0" len="12" pos="4896"/>
          <note key="83" vol="78" pan="0" len="12" pos="4908"/>
          <note key="80" vol="78" pan="0" len="12" pos="4920"/>
          <note key="76" vol="78" pan="0" len="12" pos="4932"/>
          <note key="73" vol="78" pan="0" len="12" pos="4944"/>
          <note key="68" vol="78" pan="0" len="12" pos="4956"/>
          <note key="64" vol="78" pan="0" len="12" pos="4968"/>
          <note key="61" vol="78" pan="0" len="12" pos="4980"/>
          <note key="54" vol="78" pan="0" len="12" pos="4992"/>
          <note key="59" vol="78" pan="0" len="12" pos="5004"/>
          <note key="63" vol="78" pan="0" len="12" pos="5016"/>
          <note key="66" vol="78" pan="0" len="12" pos="5028"/>
          <note key="69" vol="78" pan="0" len="12" pos="5040"/>
          <note key="73" vol="78" pan="0" len="12" pos="5052"/>
          <note key="76" vol="78" pan="0" len="12" pos="5064"/>
          <note key="80" vol="78" pan="0" len="12" pos="5076"/>
          <note key="83" vol="78" pan="0" len="12" pos="5088"/>
          <note key="80" vol="78" pan="0" len="12" pos="5100"/>
          <note key="75" vol="78" pan="0" len="12" pos="5112"/>
          <note key="71" vol="78" pan="0" len="12" pos="5124"/>
          <note key="66" vol="78" pan="0" len="12" pos="5136"/>
          <note key="61" vol="78" pan="0" len="12" pos="5148"/>
          <note key="59" vol="78" pan="0" len="12" pos="5160"/>
          <note key="54" vol="78" pan="0" len="12" pos="5172"/>
          <note key="54" vol="78" pan="0" len="12" pos="5184"/>
          <note key="59" vol="78" pan="0" len="12" pos="5196"/>
          <note key="63" vol="78" pan="0" len="12" pos="5208"/>
          <note key="66" vol="78" pan="0" len="12" pos="5220"/>
          <note key="69" vol="78" pan="0" len="12" pos="5232"/>
          <note key="73" vol="78" pan="0" len="12" pos="5244"/>
          <note key="76" vol="78" pan="0" len="12" pos="5256"/>
          <note key="80" vol="78" pan="0" len="12" pos="5268"/>
          <note key="83" vol="78" pan="0" len="12" pos="5280"/>
          <note key="80" vol="78" pan="0" len="12" pos="5292"/>
          <note key="75" vol="78" pan="0" len="12" pos="5304"/>
          <note key="71" vol="78" pan="0" len="12" pos="5316"/>
          <note key="66" vol="78" pan="0" len="12" pos="5328"/>
          <note key="61" vol="78" pan="0" len="12" pos="5340"/>
          <note key="59" vol="78" pan="0" len="12" pos="5352"/>
          <note key="54" vol="78" pan="0" len="12" pos="5364"/>
          <note key="54" vol="78" pan="0" len="12" pos="5376"/>
          <note key="57" vol="78" pan="0" len="12" pos="5388"/>
          <note key="63" vol="78" pan="0" len="12" pos="5400"/>
          <note key="66" vol="78" pan="0" len="12" pos="5412"/>
          <note key="69" vol="78" pan="0" len="12" pos="5424"/>
          <note key="73" vol="78" pan="0" len="12" pos="5436"/>
          <note key="76" vol="78" pan="0" len="12" pos="5448"/>
          <note key="81" vol="78" pan="0" len="12" pos="5460"/>
          <note key="75" vol="78" pan="0" len="12" pos="5472"/>
          <note key="81" vol="78" pan="0" len="12" pos="5484"/>
          <note key="76" vol="78" pan="0" len="12" pos="5496"/>
          <note key="73" vol="78" pan="0" len="12" pos="5508"/>
          <note key="69" vol="78" pan="0" len="12" pos="5520"/>
          <note key="66" vol="78" pan="0" len="12" pos="5532"/>
          <note key="63" vol="78" pan="0" len="12" pos="5544"/>
          <note key="57" vol="78" pan="0" len="12" pos="5556"/>
          <note key="54" vol="78" pan="0" len="12" pos="5568"/>
          <note key="57" vol="78" pan="0" len="12" pos="5580"/>
          <note key="63" vol="78" pan="0" len="12" pos="5592"/>
          <note key="66" vol="78" pan="0" len="12" pos="5604"/>
          <note key="69" vol="78" pan="0" len="12" pos="5616"/>
          <note key="73" vol="78" pan="0" len="12" pos="5628"/>
          <note key="76" vol="78" pan="0" len="12" pos="5640"/>
          <note key="81" vol="78" pan="0" len="12" pos="5652"/>
          <note key="75" vol="78" pan="0" len="12" pos="5664"/>
          <note key="81" vol="78" pan="0" len="12" pos="5676"/>
          <note key="76" vol="78" pan="0" len="12" pos="5688"/>
          <note key="73" vol="78" pan="0" len="12" pos="5700"/>
          <note key="69" vol="78" pan="0" len="12" pos="5712"/>
          <note key="66" vol="78" pan="0" len="12" pos="5724"/>
          <note key="63" vol="78" pan="0" len="12" pos="5736"/>
          <note key="57" vol="78" pan="0" len="12" pos="5748"/>
          <note key="57" vol="78" pan="0" len="12" pos="5760"/>
          <note key="61" vol="78" pan="0" len="12" pos="5772"/>
          <note key="64" vol="78" pan="0" len="12" pos="5784"/>
          <note key="68" vol="78" pan="0" len="12" pos="5796"/>
          <note key="71" vol="78" pan="0" len="12" pos="5808"/>
          <note key="75" vol="78" pan="0" len="12" pos="5820"/>
          <note key="78" vol="78" pan="0" len="12" pos="5832"/>
          <note key="81" vol="78" pan="0" len="12" pos="5844"/>
          <note key="73" vol="78" pan="0" len="12" pos="5856"/>
          <note key="81" vol="78" pan="0" len="12" pos="5868"/>
          <note key="78" vol="78" pan="0" len="12" pos="5880"/>
          <note key="75" vol="78" pan="0" len="12" pos="5892"/>
          <note key="71" vol="78" pan="0" len="12" pos="5904"/>
          <note key="68" vol="78" pan="0" len="12" pos="5916"/>
          <note key="64" vol="78" pan="0" len="12" pos="5928"/>
          <note key="61" vol="78" pan="0" len="12" pos="5940"/>
          <note key="57" vol="78" pan="0" len="12" pos="5952"/>
          <note key="61" vol="78" pan="0" len="12" pos="5964"/>
          <note key="64" vol="78" pan="0" len="12" pos="5976"/>
          <note key="68" vol="78" pan="0" len="12" pos="5988"/>
          <note key="71" vol="78" pan="0" len="12" pos="6000"/>
          <note key="75" vol="78" pan="0" len="12" pos="6012"/>
          <note key="78" vol="78" pan="0" len="12" pos="6024"/>
          <note key="81" vol="78" pan="0" len="12" pos="6036"/>
          <note key="72" vol="78" pan="0" len="12" pos="6048"/>
          <note key="81" vol="78" pan="0" len="12" pos="6060"/>
          <note key="78" vol="78" pan="0" len="12" pos="6072"/>
          <note key="75" vol="78" pan="0" len="12" pos="6084"/>
          <note key="71" vol="78" pan="0" len="12" pos="6096"/>
          <note key="68" vol="78" pan="0" len="12" pos="6108"/>
          <note key="64" vol="78" pan="0" len="12" pos="6120"/>
          <note key="61" vol="78" pan="0" len="12" pos="6132"/>
        </pattern>
        <pattern name="" muted="0" type="1" steps="16" pos="30336">
          <note key="57" vol="152" pan="0" len="12" pos="0"/>
          <note key="57" vol="152" pan="0" len="12" pos="12"/>
          <note key="56" vol="152" pan="0" len="12" pos="24"/>
          <note key="56" vol="152" pan="0" len="12" pos="36"/>
          <note key="54" vol="152" pan="0" len="12" pos="48"/>
          <note key="54" vol="152" pan="0" len="12" pos="60"/>
          <note key="61" vol="152" pan="0" len="12" pos="72"/>
          <note key="61" vol="152" pan="0" len="12" pos="84"/>
          <note key="59" vol="152" pan="0" len="12" pos="96"/>
          <note key="59" vol="152" pan="0" len="12" pos="108"/>
          <note key="57" vol="152" pan="0" len="12" pos="120"/>
          <note key="57" vol="152" pan="0" len="12" pos="132"/>
          <note key="59" vol="152" pan="0" len="12" pos="144"/>
          <note key="59" vol="152" pan="0" len="12" pos="156"/>
          <note key="61" vol="152" pan="0" len="12" pos="168"/>
          <note key="61" vol="152" pan="0" len="12" pos="180"/>
          <note key="62" vol="152" pan="0" len="48" pos="192"/>
          <note key="61" vol="152" pan="0" len="12" pos="240"/>
          <note key="62" vol="152" pan="0" len="12" pos="252"/>
          <note key="64" vol="152" pan="0" len="12" pos="264"/>
          <note key="66" vol="152" pan="0" len="12" pos="276"/>
          <note key="68" vol="152" pan="0" len="12" pos="288"/>
          <note key="66" vol="152" pan="0" len="12" pos="300"/>
          <note key="64" vol="152" pan="0" len="12" pos="312"/>
          <note key="66" vol="152" pan="0" len="12" pos="324"/>
          <note key="69" vol="152" pan="0" len="12" pos="336"/>
          <note key="68" vol="152" pan="0" len="12" pos="348"/>
          <note key="66" vol="152" pan="0" len="12" pos="360"/>
          <note key="68" vol="152" pan="0" len="12" pos="372"/>
          <note key="68" vol="152" pan="0" len="24" pos="384"/>
          <note key="69" vol="152" pan="0" len="24" pos="408"/>
          <note key="66" vol="152" pan="0" len="48" pos="456"/>
          <note key="62" vol="152" pan="0" len="12" pos="504"/>
          <note key="62" vol="152" pan="0" len="12" pos="516"/>
          <note key="66" vol="152" pan="0" len="12" pos="528"/>
          <note key="66" vol="152" pan="0" len="12" pos="540"/>
          <note key="68" vol="152" pan="0" len="12" pos="552"/>
          <note key="68" vol="152" pan="0" len="12" pos="564"/>
          <note key="71" vol="152" pan="0" len="24" pos="576"/>
          <note key="69" vol="152" pan="0" len="12" pos="600"/>
          <note key="71" vol="152" pan="0" len="12" pos="612"/>
          <note key="73" vol="152" pan="0" len="24" pos="624"/>
          <note key="71" vol="152" pan="0" len="12" pos="648"/>
          <note key="73" vol="152" pan="0" len="12" pos="660"/>
          <note key="76" vol="152" pan="0" len="12" pos="672"/>
          <note key="74" vol="152" pan="0" len="12" pos="684"/>
          <note key="73" vol="152" pan="0" len="12" pos="696"/>
          <note key="71" vol="152" pan="0" len="12" pos="708"/>
          <note key="69" vol="152" pan="0" len="12" pos="720"/>
          <note key="68" vol="152" pan="0" len="12" pos="732"/>
          <note key="66" vol="152" pan="0" len="12" pos="744"/>
          <note key="64" vol="152" pan="0" len="12" pos="756"/>
        </pattern>
        <pattern name="" muted="0" type="1" steps="16" pos="44928">
          <note key="73" vol="78" pan="0" len="240" pos="0"/>
          <note key="76" vol="78" pan="0" len="48" pos="240"/>
          <note key="78" vol="78" pan="0" len="48" pos="288"/>
          <note key="80" vol="78" pan="0" len="48" pos="336"/>
          <note key="81" vol="78" pan="0" len="72" pos="384"/>
          <note key="80" vol="78" pan="0" len="72" pos="456"/>
          <note key="78" vol="78" pan="0" len="48" pos="528"/>
          <note key="76" vol="78" pan="0" len="48" pos="576"/>
          <note key="73" vol="78" pan="0" len="48" pos="624"/>
          <note key="76" vol="78" pan="0" len="48" pos="672"/>
          <note key="80" vol="78" pan="0" len="48" pos="720"/>
          <note key="78" vol="78" pan="0" len="192" pos="768"/>
          <note key="75" vol="78" pan="0" len="96" pos="960"/>
          <note key="71" vol="78" pan="0" len="96" pos="1056"/>
        </pattern>
        <pattern name="" muted="0" type="1" steps="16" pos="38400">
          <note key="73" vol="78" pan="0" len="12" pos="0"/>
          <note key="71" vol="78" pan="0" len="12" pos="12"/>
          <note key="68" vol="78" pan="0" len="12" pos="24"/>
          <note key="71" vol="78" pan="0" len="12" pos="36"/>
          <note key="66" vol="78" pan="0" len="12" pos="48"/>
          <note key="71" vol="78" pan="0" len="12" pos="60"/>
          <note key="68" vol="78" pan="0" len="12" pos="72"/>
          <note key="71" vol="78" pan="0" len="12" pos="84"/>
          <note key="73" vol="78" pan="0" len="12" pos="96"/>
          <note key="71" vol="78" pan="0" len="12" pos="108"/>
          <note key="68" vol="78" pan="0" len="12" pos="120"/>
          <note key="71" vol="78" pan="0" len="12" pos="132"/>
          <note key="66" vol="78" pan="0" len="12" pos="144"/>
          <note key="71" vol="78" pan="0" len="12" pos="156"/>
          <note key="68" vol="78" pan="0" len="12" pos="168"/>
          <note key="71" vol="78" pan="0" len="12" pos="180"/>
          <note key="76" vol="78" pan="0" len="12" pos="192"/>
          <note key="73" vol="78" pan="0" len="12" pos="204"/>
          <note key="71" vol="78" pan="0" len="12" pos="216"/>
          <note key="73" vol="78" pan="0" len="12" pos="228"/>
          <note key="68" vol="78" pan="0" len="12" pos="240"/>
          <note key="73" vol="78" pan="0" len="12" pos="252"/>
          <note key="71" vol="78" pan="0" len="12" pos="264"/>
          <note key="73" vol="78" pan="0" len="12" pos="276"/>
          <note key="76" vol="78" pan="0" len="12" pos="288"/>
          <note key="73" vol="78" pan="0" len="12" pos="300"/>
          <note key="71" vol="78" pan="0" len="12" pos="312"/>
          <note key="73" vol="78" pan="0" len="12" pos="324"/>
          <note key="68" vol="78" pan="0" len="12" pos="336"/>
          <note key="73" vol="78" pan="0" len="12" pos="348"/>
          <note key="71" vol="78" pan="0" len="12" pos="360"/>
          <note key="73" vol="78" pan="0" len="12" pos="372"/>
        </pattern>
        <pattern name="" muted="0" type="1" steps="16" pos="38976">
          <note key="68" vol="78" pan="0" len="12" pos="0"/>
          <note key="66" vol="78" pan="0" len="12" pos="12"/>
          <note key="64" vol="78" pan="0" len="12" pos="24"/>
          <note key="66" vol="78" pan="0" len="12" pos="36"/>
          <note key="61" vol="78" pan="0" len="12" pos="48"/>
          <note key="66" vol="78" pan="0" len="12" pos="60"/>
          <note key="64" vol="78" pan="0" len="12" pos="72"/>
          <note key="66" vol="78" pan="0" len="12" pos="84"/>
          <note key="68" vol="78" pan="0" len="12" pos="96"/>
          <note key="66" vol="78" pan="0" len="12" pos="108"/>
          <note key="64" vol="78" pan="0" len="12" pos="120"/>
          <note key="66" vol="78" pan="0" len="12" pos="132"/>
          <note key="61" vol="78" pan="0" len="12" pos="144"/>
          <note key="66" vol="78" pan="0" len="12" pos="156"/>
          <note key="64" vol="78" pan="0" len="12" pos="168"/>
          <note key="66" vol="78" pan="0" len="12" pos="180"/>
          <note key="71" vol="78" pan="0" len="12" pos="192"/>
          <note key="68" vol="78" pan="0" len="12" pos="204"/>
          <note key="66" vol="78" pan="0" len="12" pos="216"/>
          <note key="68" vol="78" pan="0" len="12" pos="228"/>
          <note key="64" vol="78" pan="0" len="12" pos="240"/>
          <note key="68" vol="78" pan="0" len="12" pos="252"/>
          <note key="66" vol="78" pan="0" len="12" pos="264"/>
          <note key="68" vol="78" pan="0" len="12" pos="276"/>
          <note key="71" vol="78" pan="0" len="12" pos="288"/>
          <note key="68" vol="78" pan="0" len="12" pos="300"/>
          <note key="66" vol="78" pan="0" len="12" pos="312"/>
          <note key="68" vol="78" pan="0" len="12" pos="324"/>
          <note key="64" vol="78" pan="0" len="12" pos="336"/>
          <note key="68" vol="78" pan="0" len="12" pos="348"/>
          <note key="66" vol="78" pan="0" len="12" pos="360"/>
          <note key="68" vol="78" pan="0" len="12" pos="372"/>
        </pattern>
        <pattern name="" muted="0" type="1" steps="16" pos="37632">
          <note key="78" vol="78" pan="0" len="12" pos="0"/>
          <note key="0" vol="78" pan="0" len="12" pos="0"/>
          <note key="73" vol="78" pan="0" len="12" pos="12"/>
          <note key="70" vol="78" pan="0" len="12" pos="24"/>
          <note key="1" vol="78" pan="0" len="12" pos="24"/>
          <note key="73" vol="78" pan="0" len="12" pos="36"/>
          <note key="66" vol="78" pan="0" len="12" pos="48"/>
          <note key="73" vol="78" pan="0" len="12" pos="60"/>
          <note key="70" vol="78" pan="0" len="12" pos="72"/>
          <note key="73" vol="78" pan="0" len="12" pos="84"/>
          <note key="78" vol="78" pan="0" len="12" pos="96"/>
          <note key="73" vol="78" pan="0" len="12" pos="108"/>
          <note key="70" vol="78" pan="0" len="12" pos="120"/>
          <note key="73" vol="78" pan="0" len="12" pos="132"/>
          <note key="66" vol="78" pan="0" len="12" pos="144"/>
          <note key="73" vol="78" pan="0" len="12" pos="156"/>
          <note key="70" vol="78" pan="0" len="12" pos="168"/>
          <note key="73" vol="78" pan="0" len="12" pos="180"/>
        </pattern>
      </track>
      <track name="Orchestra Soundfont 2 COMBO" muted="1" type="0" solo="0">
        <instrumenttrack vol="100" pitch="0" pitchrange="2" basenote="57" pan="0" fxch="0" usemasterpitch="1">
          <instrument name="sf2player">
            <sf2player chorusOn="0" reverbRoomSize="0.2" chorusLevel="2" src="/home/huggypie/samples/soundfonts/Orchestra Soundfont 2 COMBO.sf2" gain="1" reverbDamping="0" chorusSpeed="0.3" reverbWidth="0.5" reverbLevel="0.9" bank="0" reverbOn="0" patch="48" chorusDepth="8" chorusNum="3"/>
          </instrument>
          <eldata ftype="0" fres="0.5" fwet="0" fcut="14000">
            <elvol dec="0.5" sustain="0.5" pdel="0" lpdel="0" rel="0.1" lspd="0.1" userwavefile="" hold="0.5" lamt="0" lspd_numerator="4" lspd_syncmode="0" lshp="0" amt="0" x100="0" latt="0" lspd_denominator="4" ctlenvamt="0" att="0"/>
            <elcut dec="0.5" sustain="0.5" pdel="0" lpdel="0" rel="0.1" lspd="0.1" userwavefile="" hold="0.5" lamt="0" lspd_numerator="4" lspd_syncmode="0" lshp="0" amt="0" x100="0" latt="0" lspd_denominator="4" ctlenvamt="0" att="0"/>
            <elres dec="0.5" sustain="0.5" pdel="0" lpdel="0" rel="0.1" lspd="0.1" userwavefile="" hold="0.5" lamt="0" lspd_numerator="4" lspd_syncmode="0" lshp="0" amt="0" x100="0" latt="0" lspd_denominator="4" ctlenvamt="0" att="0"/>
          </eldata>
          <chordcreator chord="0" chord-enabled="0" chordrange="1"/>
          <arpeggiator arprange="1" arptime_denominator="4" arpgate="100" arptime_syncmode="0" arp="0" arpmode="0" arpmiss="0" arpdir="0" arptime_numerator="4" arp-enabled="0" arpcycle="0" arpskip="0" arptime="200"/>
          <midiport outputchannel="1" inputcontroller="0" outputcontroller="0" basevelocity="63" fixedinputvelocity="-1" fixedoutputvelocity="-1" outputprogram="1" readable="0" writable="0" fixedoutputnote="-1" inputchannel="0"/>
          <fxchain numofeffects="0" enabled="0"/>
        </instrumenttrack>
        <pattern name="Orchestra Soundfont 2 COMBO" muted="0" type="1" steps="16" pos="384">
          <note key="49" vol="78" pan="0" len="48" pos="0"/>
          <note key="49" vol="78" pan="0" len="48" pos="384"/>
          <note key="49" vol="78" pan="0" len="48" pos="768"/>
          <note key="49" vol="78" pan="0" len="48" pos="1152"/>
          <note key="49" vol="78" pan="0" len="384" pos="1536"/>
          <note key="49" vol="78" pan="0" len="384" pos="1920"/>
          <note key="49" vol="78" pan="0" len="384" pos="2304"/>
          <note key="49" vol="78" pan="0" len="384" pos="2688"/>
          <note key="61" vol="78" pan="0" len="48" pos="3072"/>
          <note key="49" vol="78" pan="0" len="48" pos="3072"/>
          <note key="61" vol="78" pan="0" len="48" pos="3120"/>
          <note key="49" vol="78" pan="0" len="48" pos="3120"/>
          <note key="61" vol="78" pan="0" len="48" pos="3168"/>
          <note key="49" vol="78" pan="0" len="48" pos="3168"/>
          <note key="64" vol="78" pan="0" len="48" pos="3216"/>
          <note key="52" vol="78" pan="0" len="48" pos="3216"/>
          <note key="63" vol="78" pan="0" len="48" pos="3264"/>
          <note key="51" vol="78" pan="0" len="48" pos="3264"/>
          <note key="63" vol="78" pan="0" len="48" pos="3312"/>
          <note key="51" vol="78" pan="0" len="48" pos="3312"/>
          <note key="63" vol="78" pan="0" len="48" pos="3360"/>
          <note key="51" vol="78" pan="0" len="48" pos="3360"/>
          <note key="68" vol="78" pan="0" len="48" pos="3408"/>
          <note key="56" vol="78" pan="0" len="48" pos="3408"/>
          <note key="68" vol="78" pan="0" len="48" pos="3456"/>
          <note key="56" vol="78" pan="0" len="48" pos="3456"/>
          <note key="68" vol="78" pan="0" len="48" pos="3504"/>
          <note key="56" vol="78" pan="0" len="48" pos="3504"/>
          <note key="68" vol="78" pan="0" len="48" pos="3552"/>
          <note key="56" vol="78" pan="0" len="48" pos="3552"/>
          <note key="66" vol="78" pan="0" len="24" pos="3600"/>
          <note key="54" vol="78" pan="0" len="24" pos="3600"/>
          <note key="64" vol="78" pan="0" len="24" pos="3624"/>
          <note key="52" vol="78" pan="0" len="24" pos="3624"/>
          <note key="63" vol="78" pan="0" len="48" pos="3648"/>
          <note key="51" vol="78" pan="0" len="48" pos="3648"/>
          <note key="64" vol="78" pan="0" len="48" pos="3696"/>
          <note key="52" vol="78" pan="0" len="48" pos="3696"/>
          <note key="59" vol="78" pan="0" len="48" pos="3744"/>
          <note key="47" vol="78" pan="0" len="48" pos="3744"/>
          <note key="56" vol="78" pan="0" len="48" pos="3792"/>
          <note key="44" vol="78" pan="0" len="48" pos="3792"/>
          <note key="57" vol="78" pan="0" len="48" pos="3840"/>
          <note key="45" vol="78" pan="0" len="48" pos="3840"/>
          <note key="57" vol="78" pan="0" len="48" pos="3888"/>
          <note key="45" vol="78" pan="0" len="48" pos="3888"/>
          <note key="57" vol="78" pan="0" len="48" pos="3936"/>
          <note key="45" vol="78" pan="0" len="48" pos="3936"/>
          <note key="64" vol="78" pan="0" len="48" pos="3984"/>
          <note key="52" vol="78" pan="0" len="48" pos="3984"/>
          <note key="63" vol="78" pan="0" len="48" pos="4032"/>
          <note key="51" vol="78" pan="0" len="48" pos="4032"/>
          <note key="63" vol="78" pan="0" len="48" pos="4080"/>
          <note key="51" vol="78" pan="0" len="48" pos="4080"/>
          <note key="63" vol="78" pan="0" len="48" pos="4128"/>
          <note key="51" vol="78" pan="0" len="48" pos="4128"/>
          <note key="66" vol="78" pan="0" len="48" pos="4176"/>
          <note key="54" vol="78" pan="0" len="48" pos="4176"/>
          <note key="64" vol="78" pan="0" len="96" pos="4224"/>
          <note key="52" vol="78" pan="0" len="96" pos="4224"/>
          <note key="68" vol="78" pan="0" len="48" pos="4320"/>
          <note key="56" vol="78" pan="0" len="48" pos="4320"/>
          <note key="64" vol="78" pan="0" len="48" pos="4368"/>
          <note key="52" vol="78" pan="0" len="48" pos="4368"/>
          <note key="66" vol="78" pan="0" len="48" pos="4416"/>
          <note key="54" vol="78" pan="0" len="48" pos="4416"/>
          <note key="71" vol="78" pan="0" len="48" pos="4464"/>
          <note key="59" vol="78" pan="0" len="48" pos="4464"/>
          <note key="68" vol="78" pan="0" len="48" pos="4512"/>
          <note key="56" vol="78" pan="0" len="48" pos="4512"/>
          <note key="75" vol="78" pan="0" len="48" pos="4560"/>
          <note key="63" vol="78" pan="0" len="48" pos="4560"/>
        </pattern>
        <pattern name="Orchestra Soundfont 2 COMBO" muted="0" type="1" steps="16" pos="11136">
          <note key="61" vol="78" pan="0" len="192" pos="0"/>
          <note key="64" vol="78" pan="0" len="192" pos="192"/>
          <note key="62" vol="78" pan="0" len="192" pos="384"/>
          <note key="66" vol="78" pan="0" len="192" pos="576"/>
          <note key="61" vol="78" pan="0" len="192" pos="768"/>
          <note key="64" vol="78" pan="0" len="192" pos="960"/>
          <note key="62" vol="78" pan="0" len="192" pos="1152"/>
          <note key="66" vol="78" pan="0" len="192" pos="1344"/>
        </pattern>
        <pattern name="Orchestra Soundfont 2 COMBO" muted="0" type="1" steps="16" pos="18816">
          <note key="61" vol="78" pan="0" len="192" pos="0"/>
          <note key="56" vol="78" pan="0" len="192" pos="384"/>
          <note key="56" vol="78" pan="0" len="192" pos="768"/>
          <note key="68" vol="78" pan="0" len="192" pos="1152"/>
          <note key="69" vol="78" pan="0" len="192" pos="1536"/>
          <note key="69" vol="78" pan="0" len="192" pos="1728"/>
          <note key="68" vol="78" pan="0" len="192" pos="1920"/>
          <note key="68" vol="78" pan="0" len="192" pos="2112"/>
          <note key="66" vol="78" pan="0" len="192" pos="2304"/>
          <note key="66" vol="78" pan="0" len="192" pos="2496"/>
          <note key="73" vol="78" pan="0" len="192" pos="2688"/>
          <note key="72" vol="78" pan="0" len="192" pos="2880"/>
        </pattern>
        <pattern name="Orchestra Soundfont 2 COMBO" muted="0" type="1" steps="16" pos="24960">
          <note key="61" vol="78" pan="0" len="192" pos="0"/>
          <note key="49" vol="78" pan="0" len="192" pos="0"/>
          <note key="59" vol="78" pan="0" len="192" pos="192"/>
          <note key="47" vol="78" pan="0" len="192" pos="192"/>
          <note key="56" vol="78" pan="0" len="288" pos="384"/>
          <note key="44" vol="78" pan="0" len="288" pos="384"/>
          <note key="56" vol="78" pan="0" len="96" pos="672"/>
          <note key="44" vol="78" pan="0" len="96" pos="672"/>
          <note key="68" vol="78" pan="0" len="192" pos="768"/>
          <note key="56" vol="78" pan="0" len="192" pos="768"/>
          <note key="66" vol="78" pan="0" len="192" pos="960"/>
          <note key="54" vol="78" pan="0" len="192" pos="960"/>
          <note key="61" vol="78" pan="0" len="384" pos="1152"/>
          <note key="49" vol="78" pan="0" len="384" pos="1152"/>
          <note key="61" vol="78" pan="0" len="192" pos="1536"/>
          <note key="49" vol="78" pan="0" len="192" pos="1536"/>
          <note key="63" vol="78" pan="0" len="192" pos="1728"/>
          <note key="51" vol="78" pan="0" len="192" pos="1728"/>
          <note key="64" vol="78" pan="0" len="192" pos="1920"/>
          <note key="52" vol="78" pan="0" len="192" pos="1920"/>
          <note key="68" vol="78" pan="0" len="96" pos="2112"/>
          <note key="56" vol="78" pan="0" len="96" pos="2112"/>
          <note key="66" vol="78" pan="0" len="96" pos="2208"/>
          <note key="54" vol="78" pan="0" len="96" pos="2208"/>
          <note key="66" vol="78" pan="0" len="192" pos="2304"/>
          <note key="54" vol="78" pan="0" len="192" pos="2304"/>
          <note key="61" vol="78" pan="0" len="144" pos="2496"/>
          <note key="49" vol="78" pan="0" len="144" pos="2496"/>
          <note key="61" vol="78" pan="0" len="24" pos="2640"/>
          <note key="49" vol="78" pan="0" len="24" pos="2640"/>
          <note key="63" vol="78" pan="0" len="24" pos="2664"/>
          <note key="51" vol="78" pan="0" len="24" pos="2664"/>
          <note key="64" vol="78" pan="0" len="192" pos="2688"/>
          <note key="52" vol="78" pan="0" len="192" pos="2688"/>
          <note key="64" vol="78" pan="0" len="96" pos="2880"/>
          <note key="52" vol="78" pan="0" len="96" pos="2880"/>
          <note key="68" vol="78" pan="0" len="96" pos="2976"/>
          <note key="56" vol="78" pan="0" len="96" pos="2976"/>
          <note key="73" vol="78" pan="0" len="384" pos="3072"/>
          <note key="61" vol="78" pan="0" len="384" pos="3072"/>
          <note key="73" vol="78" pan="0" len="384" pos="3456"/>
          <note key="61" vol="78" pan="0" len="384" pos="3456"/>
        </pattern>
        <pattern name="Orchestra Soundfont 2 COMBO" muted="0" type="1" steps="16" pos="31872">
          <note key="56" vol="78" pan="0" len="192" pos="0"/>
          <note key="57" vol="78" pan="0" len="192" pos="192"/>
          <note key="59" vol="78" pan="0" len="192" pos="384"/>
          <note key="54" vol="78" pan="0" len="192" pos="576"/>
          <note key="56" vol="78" pan="0" len="192" pos="768"/>
          <note key="57" vol="78" pan="0" len="192" pos="960"/>
          <note key="59" vol="78" pan="0" len="192" pos="1152"/>
          <note key="63" vol="78" pan="0" len="192" pos="1344"/>
          <note key="61" vol="78" pan="0" len="192" pos="1536"/>
          <note key="61" vol="78" pan="0" len="192" pos="1920"/>
          <note key="64" vol="78" pan="0" len="192" pos="2112"/>
          <note key="62" vol="78" pan="0" len="192" pos="2304"/>
          <note key="61" vol="78" pan="0" len="192" pos="2688"/>
          <note key="66" vol="78" pan="0" len="192" pos="2880"/>
          <note key="61" vol="78" pan="0" len="48" pos="3072"/>
          <note key="49" vol="78" pan="0" len="48" pos="3072"/>
          <note key="61" vol="78" pan="0" len="48" pos="3120"/>
          <note key="49" vol="78" pan="0" len="48" pos="3120"/>
          <note key="61" vol="78" pan="0" len="48" pos="3168"/>
          <note key="49" vol="78" pan="0" len="48" pos="3168"/>
          <note key="64" vol="78" pan="0" len="48" pos="3216"/>
          <note key="52" vol="78" pan="0" len="48" pos="3216"/>
          <note key="63" vol="78" pan="0" len="48" pos="3264"/>
          <note key="51" vol="78" pan="0" len="48" pos="3264"/>
          <note key="63" vol="78" pan="0" len="48" pos="3312"/>
          <note key="51" vol="78" pan="0" len="48" pos="3312"/>
          <note key="63" vol="78" pan="0" len="48" pos="3360"/>
          <note key="51" vol="78" pan="0" len="48" pos="3360"/>
          <note key="68" vol="78" pan="0" len="48" pos="3408"/>
          <note key="56" vol="78" pan="0" len="48" pos="3408"/>
          <note key="68" vol="78" pan="0" len="48" pos="3456"/>
          <note key="56" vol="78" pan="0" len="48" pos="3456"/>
          <note key="68" vol="78" pan="0" len="48" pos="3504"/>
          <note key="56" vol="78" pan="0" len="48" pos="3504"/>
          <note key="68" vol="78" pan="0" len="48" pos="3552"/>
          <note key="56" vol="78" pan="0" len="48" pos="3552"/>
          <note key="66" vol="78" pan="0" len="24" pos="3600"/>
          <note key="54" vol="78" pan="0" len="24" pos="3600"/>
          <note key="64" vol="78" pan="0" len="24" pos="3624"/>
          <note key="52" vol="78" pan="0" len="24" pos="3624"/>
          <note key="63" vol="78" pan="0" len="48" pos="3648"/>
          <note key="51" vol="78" pan="0" len="48" pos="3648"/>
          <note key="64" vol="78" pan="0" len="48" pos="3696"/>
          <note key="52" vol="78" pan="0" len="48" pos="3696"/>
          <note key="59" vol="78" pan="0" len="48" pos="3744"/>
          <note key="47" vol="78" pan="0" len="48" pos="3744"/>
          <note key="56" vol="78" pan="0" len="48" pos="3792"/>
          <note key="44" vol="78" pan="0" len="48" pos="3792"/>
          <note key="57" vol="78" pan="0" len="48" pos="3840"/>
          <note key="45" vol="78" pan="0" len="48" pos="3840"/>
          <note key="57" vol="78" pan="0" len="48" pos="3888"/>
          <note key="45" vol="78" pan="0" len="48" pos="3888"/>
          <note key="57" vol="78" pan="0" len="48" pos="3936"/>
          <note key="45" vol="78" pan="0" len="48" pos="3936"/>
          <note key="64" vol="78" pan="0" len="48" pos="3984"/>
          <note key="52" vol="78" pan="0" len="48" pos="3984"/>
          <note key="63" vol="78" pan="0" len="48" pos="4032"/>
          <note key="51" vol="78" pan="0" len="48" pos="4032"/>
          <note key="63" vol="78" pan="0" len="48" pos="4080"/>
          <note key="51" vol="78" pan="0" len="48" pos="4080"/>
          <note key="63" vol="78" pan="0" len="48" pos="4128"/>
          <note key="51" vol="78" pan="0" len="48" pos="4128"/>
          <note key="66" vol="78" pan="0" len="48" pos="4176"/>
          <note key="54" vol="78" pan="0" len="48" pos="4176"/>
          <note key="64" vol="78" pan="0" len="96" pos="4224"/>
          <note key="52" vol="78" pan="0" len="96" pos="4224"/>
          <note key="68" vol="78" pan="0" len="48" pos="4320"/>
          <note key="56" vol="78" pan="0" len="48" pos="4320"/>
          <note key="64" vol="78" pan="0" len="48" pos="4368"/>
          <note key="52" vol="78" pan="0" len="48" pos="4368"/>
          <note key="66" vol="78" pan="0" len="48" pos="4416"/>
          <note key="54" vol="78" pan="0" len="48" pos="4416"/>
          <note key="71" vol="78" pan="0" len="48" pos="4464"/>
          <note key="59" vol="78" pan="0" len="48" pos="4464"/>
          <note key="68" vol="78" pan="0" len="48" pos="4512"/>
          <note key="56" vol="78" pan="0" len="48" pos="4512"/>
          <note key="75" vol="78" pan="0" len="48" pos="4560"/>
          <note key="63" vol="78" pan="0" len="48" pos="4560"/>
        </pattern>
        <pattern name="Orchestra Soundfont 2 COMBO" muted="0" type="1" steps="16" pos="42624">
          <note key="61" vol="78" pan="0" len="192" pos="0"/>
          <note key="64" vol="78" pan="0" len="192" pos="192"/>
          <note key="62" vol="78" pan="0" len="192" pos="384"/>
          <note key="66" vol="78" pan="0" len="192" pos="576"/>
          <note key="61" vol="78" pan="0" len="192" pos="768"/>
          <note key="64" vol="78" pan="0" len="192" pos="960"/>
          <note key="62" vol="78" pan="0" len="192" pos="1152"/>
          <note key="66" vol="78" pan="0" len="192" pos="1344"/>
        </pattern>
        <pattern name="Orchestra Soundfont 2 COMBO" muted="0" type="1" steps="16" pos="50304">
          <note key="61" vol="78" pan="0" len="192" pos="0"/>
          <note key="56" vol="78" pan="0" len="192" pos="384"/>
          <note key="56" vol="78" pan="0" len="192" pos="768"/>
          <note key="68" vol="78" pan="0" len="192" pos="1152"/>
          <note key="69" vol="78" pan="0" len="192" pos="1536"/>
          <note key="69" vol="78" pan="0" len="192" pos="1728"/>
          <note key="68" vol="78" pan="0" len="192" pos="1920"/>
          <note key="68" vol="78" pan="0" len="192" pos="2112"/>
          <note key="66" vol="78" pan="0" len="192" pos="2304"/>
          <note key="66" vol="78" pan="0" len="192" pos="2496"/>
          <note key="73" vol="78" pan="0" len="192" pos="2688"/>
          <note key="72" vol="78" pan="0" len="192" pos="2880"/>
        </pattern>
        <pattern name="Orchestra Soundfont 2 COMBO" muted="0" type="1" steps="16" pos="56448">
          <note key="61" vol="78" pan="0" len="192" pos="0"/>
          <note key="49" vol="78" pan="0" len="192" pos="0"/>
          <note key="59" vol="78" pan="0" len="192" pos="192"/>
          <note key="47" vol="78" pan="0" len="192" pos="192"/>
          <note key="56" vol="78" pan="0" len="288" pos="384"/>
          <note key="44" vol="78" pan="0" len="288" pos="384"/>
          <note key="56" vol="78" pan="0" len="96" pos="672"/>
          <note key="44" vol="78" pan="0" len="96" pos="672"/>
          <note key="68" vol="78" pan="0" len="192" pos="768"/>
          <note key="56" vol="78" pan="0" len="192" pos="768"/>
          <note key="66" vol="78" pan="0" len="192" pos="960"/>
          <note key="54" vol="78" pan="0" len="192" pos="960"/>
          <note key="61" vol="78" pan="0" len="384" pos="1152"/>
          <note key="49" vol="78" pan="0" len="384" pos="1152"/>
          <note key="61" vol="78" pan="0" len="192" pos="1536"/>
          <note key="49" vol="78" pan="0" len="192" pos="1536"/>
          <note key="63" vol="78" pan="0" len="192" pos="1728"/>
          <note key="51" vol="78" pan="0" len="192" pos="1728"/>
          <note key="64" vol="78" pan="0" len="192" pos="1920"/>
          <note key="52" vol="78" pan="0" len="192" pos="1920"/>
          <note key="68" vol="78" pan="0" len="96" pos="2112"/>
          <note key="56" vol="78" pan="0" len="96" pos="2112"/>
          <note key="66" vol="78" pan="0" len="96" pos="2208"/>
          <note key="54" vol="78" pan="0" len="96" pos="2208"/>
          <note key="66" vol="78" pan="0" len="192" pos="2304"/>
          <note key="54" vol="78" pan="0" len="192" pos="2304"/>
          <note key="61" vol="78" pan="0" len="144" pos="2496"/>
          <note key="49" vol="78" pan="0" len="144" pos="2496"/>
          <note key="61" vol="78" pan="0" len="24" pos="2640"/>
          <note key="49" vol="78" pan="0" len="24" pos="2640"/>
          <note key="63" vol="78" pan="0" len="24" pos="2664"/>
          <note key="51" vol="78" pan="0" len="24" pos="2664"/>
          <note key="64" vol="78" pan="0" len="192" pos="2688"/>
          <note key="52" vol="78" pan="0" len="192" pos="2688"/>
          <note key="64" vol="78" pan="0" len="96" pos="2880"/>
          <note key="52" vol="78" pan="0" len="96" pos="2880"/>
          <note key="68" vol="78" pan="0" len="96" pos="2976"/>
          <note key="56" vol="78" pan="0" len="96" pos="2976"/>
          <note key="73" vol="78" pan="0" len="384" pos="3072"/>
          <note key="61" vol="78" pan="0" len="384" pos="3072"/>
          <note key="73" vol="78" pan="0" len="384" pos="3456"/>
          <note key="61" vol="78" pan="0" len="384" pos="3456"/>
        </pattern>
        <pattern name="Orchestra Soundfont 2 COMBO" muted="0" type="1" steps="16" pos="63360">
          <note key="56" vol="78" pan="0" len="192" pos="0"/>
          <note key="57" vol="78" pan="0" len="192" pos="192"/>
          <note key="59" vol="78" pan="0" len="192" pos="384"/>
          <note key="54" vol="78" pan="0" len="192" pos="576"/>
          <note key="56" vol="78" pan="0" len="192" pos="768"/>
          <note key="57" vol="78" pan="0" len="192" pos="960"/>
          <note key="59" vol="78" pan="0" len="192" pos="1152"/>
          <note key="63" vol="78" pan="0" len="192" pos="1344"/>
          <note key="61" vol="78" pan="0" len="192" pos="1536"/>
          <note key="61" vol="78" pan="0" len="192" pos="1920"/>
          <note key="64" vol="78" pan="0" len="192" pos="2112"/>
          <note key="62" vol="78" pan="0" len="192" pos="2304"/>
          <note key="61" vol="78" pan="0" len="192" pos="2688"/>
          <note key="66" vol="78" pan="0" len="192" pos="2880"/>
          <note key="61" vol="78" pan="0" len="48" pos="3072"/>
          <note key="49" vol="78" pan="0" len="48" pos="3072"/>
          <note key="61" vol="78" pan="0" len="48" pos="3120"/>
          <note key="49" vol="78" pan="0" len="48" pos="3120"/>
          <note key="61" vol="78" pan="0" len="48" pos="3168"/>
          <note key="49" vol="78" pan="0" len="48" pos="3168"/>
          <note key="64" vol="78" pan="0" len="48" pos="3216"/>
          <note key="52" vol="78" pan="0" len="48" pos="3216"/>
          <note key="63" vol="78" pan="0" len="48" pos="3264"/>
          <note key="51" vol="78" pan="0" len="48" pos="3264"/>
          <note key="63" vol="78" pan="0" len="48" pos="3312"/>
          <note key="51" vol="78" pan="0" len="48" pos="3312"/>
          <note key="63" vol="78" pan="0" len="48" pos="3360"/>
          <note key="51" vol="78" pan="0" len="48" pos="3360"/>
          <note key="68" vol="78" pan="0" len="48" pos="3408"/>
          <note key="56" vol="78" pan="0" len="48" pos="3408"/>
          <note key="68" vol="78" pan="0" len="48" pos="3456"/>
          <note key="56" vol="78" pan="0" len="48" pos="3456"/>
          <note key="68" vol="78" pan="0" len="48" pos="3504"/>
          <note key="56" vol="78" pan="0" len="48" pos="3504"/>
          <note key="68" vol="78" pan="0" len="48" pos="3552"/>
          <note key="56" vol="78" pan="0" len="48" pos="3552"/>
          <note key="66" vol="78" pan="0" len="24" pos="3600"/>
          <note key="54" vol="78" pan="0" len="24" pos="3600"/>
          <note key="64" vol="78" pan="0" len="24" pos="3624"/>
          <note key="52" vol="78" pan="0" len="24" pos="3624"/>
          <note key="63" vol="78" pan="0" len="48" pos="3648"/>
          <note key="51" vol="78" pan="0" len="48" pos="3648"/>
          <note key="64" vol="78" pan="0" len="48" pos="3696"/>
          <note key="52" vol="78" pan="0" len="48" pos="3696"/>
          <note key="59" vol="78" pan="0" len="48" pos="3744"/>
          <note key="47" vol="78" pan="0" len="48" pos="3744"/>
          <note key="56" vol="78" pan="0" len="48" pos="3792"/>
          <note key="44" vol="78" pan="0" len="48" pos="3792"/>
          <note key="57" vol="78" pan="0" len="48" pos="3840"/>
          <note key="45" vol="78" pan="0" len="48" pos="3840"/>
          <note key="57" vol="78" pan="0" len="48" pos="3888"/>
          <note key="45" vol="78" pan="0" len="48" pos="3888"/>
          <note key="57" vol="78" pan="0" len="48" pos="3936"/>
          <note key="45" vol="78" pan="0" len="48" pos="3936"/>
          <note key="64" vol="78" pan="0" len="48" pos="3984"/>
          <note key="52" vol="78" pan="0" len="48" pos="3984"/>
          <note key="63" vol="78" pan="0" len="48" pos="4032"/>
          <note key="51" vol="78" pan="0" len="48" pos="4032"/>
          <note key="63" vol="78" pan="0" len="48" pos="4080"/>
          <note key="51" vol="78" pan="0" len="48" pos="4080"/>
          <note key="63" vol="78" pan="0" len="48" pos="4128"/>
          <note key="51" vol="78" pan="0" len="48" pos="4128"/>
          <note key="66" vol="78" pan="0" len="48" pos="4176"/>
          <note key="54" vol="78" pan="0" len="48" pos="4176"/>
          <note key="64" vol="78" pan="0" len="96" pos="4224"/>
          <note key="52" vol="78" pan="0" len="96" pos="4224"/>
          <note key="68" vol="78" pan="0" len="48" pos="4320"/>
          <note key="56" vol="78" pan="0" len="48" pos="4320"/>
          <note key="64" vol="78" pan="0" len="48" pos="4368"/>
          <note key="52" vol="78" pan="0" len="48" pos="4368"/>
          <note key="66" vol="78" pan="0" len="48" pos="4416"/>
          <note key="54" vol="78" pan="0" len="48" pos="4416"/>
          <note key="71" vol="78" pan="0" len="48" pos="4464"/>
          <note key="59" vol="78" pan="0" len="48" pos="4464"/>
          <note key="68" vol="78" pan="0" len="48" pos="4512"/>
          <note key="56" vol="78" pan="0" len="48" pos="4512"/>
          <note key="75" vol="78" pan="0" len="48" pos="4560"/>
          <note key="63" vol="78" pan="0" len="48" pos="4560"/>
          <note key="73" vol="78" pan="0" len="384" pos="4608"/>
          <note key="61" vol="78" pan="0" len="384" pos="4608"/>
          <note key="73" vol="78" pan="0" len="384" pos="4992"/>
          <note key="61" vol="78" pan="0" len="384" pos="4992"/>
          <note key="73" vol="78" pan="0" len="48" pos="5376"/>
          <note key="61" vol="78" pan="0" len="48" pos="5376"/>
        </pattern>
        <pattern name="" muted="0" type="1" steps="16" pos="39744">
          <note key="61" vol="136" pan="0" len="144" pos="0"/>
          <note key="49" vol="136" pan="0" len="48" pos="0"/>
          <note key="52" vol="136" pan="0" len="48" pos="48"/>
          <note key="56" vol="136" pan="0" len="48" pos="96"/>
          <note key="64" vol="136" pan="0" len="48" pos="144"/>
          <note key="61" vol="136" pan="0" len="48" pos="144"/>
          <note key="63" vol="136" pan="0" len="144" pos="192"/>
          <note key="59" vol="136" pan="0" len="48" pos="192"/>
          <note key="54" vol="136" pan="0" len="48" pos="240"/>
          <note key="59" vol="136" pan="0" len="48" pos="288"/>
          <note key="68" vol="136" pan="0" len="48" pos="336"/>
          <note key="63" vol="136" pan="0" len="48" pos="336"/>
          <note key="68" vol="136" pan="0" len="144" pos="384"/>
          <note key="64" vol="136" pan="0" len="48" pos="384"/>
          <note key="57" vol="136" pan="0" len="48" pos="432"/>
          <note key="61" vol="136" pan="0" len="48" pos="480"/>
          <note key="66" vol="136" pan="0" len="24" pos="528"/>
          <note key="52" vol="136" pan="0" len="48" pos="528"/>
          <note key="64" vol="136" pan="0" len="24" pos="552"/>
          <note key="63" vol="136" pan="0" len="48" pos="576"/>
          <note key="54" vol="136" pan="0" len="48" pos="576"/>
          <note key="64" vol="136" pan="0" len="48" pos="624"/>
          <note key="51" vol="136" pan="0" len="48" pos="624"/>
          <note key="59" vol="136" pan="0" len="48" pos="672"/>
          <note key="54" vol="136" pan="0" len="48" pos="672"/>
          <note key="56" vol="136" pan="0" len="48" pos="720"/>
          <note key="47" vol="136" pan="0" len="48" pos="720"/>
          <note key="57" vol="136" pan="0" len="96" pos="768"/>
          <note key="49" vol="136" pan="0" len="48" pos="768"/>
          <note key="54" vol="136" pan="0" len="48" pos="816"/>
          <note key="61" vol="136" pan="0" len="48" pos="864"/>
          <note key="57" vol="136" pan="0" len="48" pos="864"/>
          <note key="64" vol="136" pan="0" len="48" pos="912"/>
          <note key="54" vol="136" pan="0" len="48" pos="912"/>
          <note key="64" vol="136" pan="0" len="96" pos="960"/>
          <note key="56" vol="136" pan="0" len="48" pos="960"/>
          <note key="59" vol="136" pan="0" len="48" pos="1008"/>
          <note key="63" vol="136" pan="0" len="48" pos="1056"/>
          <note key="56" vol="136" pan="0" len="48" pos="1056"/>
          <note key="64" vol="136" pan="0" len="48" pos="1104"/>
          <note key="51" vol="136" pan="0" len="48" pos="1104"/>
          <note key="71" vol="136" pan="0" len="72" pos="1152"/>
          <note key="57" vol="136" pan="0" len="48" pos="1152"/>
        </pattern>
      </track>
      <track name="Orchestra Soundfont 2 COMBO" muted="1" type="0" solo="0">
        <instrumenttrack vol="58.4" pitch="0" pitchrange="2" basenote="57" pan="0" fxch="0" usemasterpitch="1">
          <instrument name="sf2player">
            <sf2player chorusOn="0" reverbRoomSize="0.2" chorusLevel="2" src="/home/huggypie/samples/soundfonts/Orchestra Soundfont 2 COMBO.sf2" gain="5" reverbDamping="0" chorusSpeed="0.3" reverbWidth="0.5" reverbLevel="0.9" bank="0" reverbOn="0" patch="52" chorusDepth="8" chorusNum="3"/>
          </instrument>
          <eldata ftype="0" fres="0.5" fwet="0" fcut="14000">
            <elvol dec="0.5" sustain="0.5" pdel="0" lpdel="0" rel="0.1" lspd="0.1" userwavefile="" hold="0.5" lamt="0" lspd_numerator="4" lspd_syncmode="0" lshp="0" amt="0" x100="0" latt="0" lspd_denominator="4" ctlenvamt="0" att="0"/>
            <elcut dec="0.5" sustain="0.5" pdel="0" lpdel="0" rel="0.1" lspd="0.1" userwavefile="" hold="0.5" lamt="0" lspd_numerator="4" lspd_syncmode="0" lshp="0" amt="0" x100="0" latt="0" lspd_denominator="4" ctlenvamt="0" att="0"/>
            <elres dec="0.5" sustain="0.5" pdel="0" lpdel="0" rel="0.1" lspd="0.1" userwavefile="" hold="0.5" lamt="0" lspd_numerator="4" lspd_syncmode="0" lshp="0" amt="0" x100="0" latt="0" lspd_denominator="4" ctlenvamt="0" att="0"/>
          </eldata>
          <chordcreator chord="0" chord-enabled="0" chordrange="1"/>
          <arpeggiator arprange="1" arptime_denominator="4" arpgate="100" arptime_syncmode="0" arp="0" arpmode="0" arpmiss="0" arpdir="0" arptime_numerator="4" arp-enabled="0" arpcycle="0" arpskip="0" arptime="200"/>
          <midiport outputchannel="1" inputcontroller="0" outputcontroller="0" basevelocity="63" fixedinputvelocity="-1" fixedoutputvelocity="-1" outputprogram="1" readable="0" writable="0" fixedoutputnote="-1" inputchannel="0"/>
          <fxchain numofeffects="0" enabled="0"/>
        </instrumenttrack>
        <pattern name="Orchestra Soundfont 2 COMBO" muted="0" type="1" steps="16" pos="8064">
          <note key="64" vol="78" pan="0" len="192" pos="0"/>
          <note key="61" vol="78" pan="0" len="192" pos="0"/>
          <note key="63" vol="78" pan="0" len="192" pos="192"/>
          <note key="56" vol="78" pan="0" len="192" pos="192"/>
          <note key="64" vol="78" pan="0" len="192" pos="384"/>
          <note key="57" vol="78" pan="0" len="192" pos="384"/>
          <note key="66" vol="78" pan="0" len="192" pos="576"/>
          <note key="59" vol="78" pan="0" len="192" pos="576"/>
          <note key="64" vol="78" pan="0" len="192" pos="768"/>
          <note key="61" vol="78" pan="0" len="192" pos="768"/>
          <note key="66" vol="78" pan="0" len="192" pos="960"/>
          <note key="59" vol="78" pan="0" len="192" pos="960"/>
          <note key="64" vol="78" pan="0" len="192" pos="1152"/>
          <note key="61" vol="78" pan="0" len="192" pos="1152"/>
          <note key="66" vol="78" pan="0" len="192" pos="1344"/>
          <note key="56" vol="78" pan="0" len="192" pos="1344"/>
          <note key="64" vol="78" pan="0" len="192" pos="1536"/>
          <note key="61" vol="78" pan="0" len="192" pos="1536"/>
          <note key="63" vol="78" pan="0" len="192" pos="1728"/>
          <note key="56" vol="78" pan="0" len="192" pos="1728"/>
          <note key="64" vol="78" pan="0" len="192" pos="1920"/>
          <note key="58" vol="78" pan="0" len="192" pos="1920"/>
          <note key="66" vol="78" pan="0" len="192" pos="2112"/>
          <note key="58" vol="78" pan="0" len="192" pos="2112"/>
          <note key="64" vol="78" pan="0" len="192" pos="2304"/>
          <note key="61" vol="78" pan="0" len="192" pos="2304"/>
          <note key="66" vol="78" pan="0" len="192" pos="2496"/>
          <note key="59" vol="78" pan="0" len="192" pos="2496"/>
          <note key="64" vol="78" pan="0" len="192" pos="2688"/>
          <note key="61" vol="78" pan="0" len="192" pos="2688"/>
          <note key="59" vol="78" pan="0" len="192" pos="2880"/>
          <note key="56" vol="78" pan="0" len="192" pos="2880"/>
        </pattern>
        <pattern name="Orchestra Soundfont 2 COMBO" muted="0" type="1" steps="16" pos="15744">
          <note key="64" vol="78" pan="0" len="192" pos="0"/>
          <note key="61" vol="78" pan="0" len="192" pos="0"/>
          <note key="63" vol="78" pan="0" len="192" pos="192"/>
          <note key="56" vol="78" pan="0" len="192" pos="192"/>
          <note key="64" vol="78" pan="0" len="192" pos="384"/>
          <note key="57" vol="78" pan="0" len="192" pos="384"/>
          <note key="66" vol="78" pan="0" len="192" pos="576"/>
          <note key="59" vol="78" pan="0" len="192" pos="576"/>
          <note key="64" vol="78" pan="0" len="192" pos="768"/>
          <note key="61" vol="78" pan="0" len="192" pos="768"/>
          <note key="66" vol="78" pan="0" len="192" pos="960"/>
          <note key="59" vol="78" pan="0" len="192" pos="960"/>
          <note key="64" vol="78" pan="0" len="192" pos="1152"/>
          <note key="61" vol="78" pan="0" len="192" pos="1152"/>
          <note key="66" vol="78" pan="0" len="192" pos="1344"/>
          <note key="56" vol="78" pan="0" len="192" pos="1344"/>
          <note key="64" vol="78" pan="0" len="192" pos="1536"/>
          <note key="61" vol="78" pan="0" len="192" pos="1536"/>
          <note key="63" vol="78" pan="0" len="192" pos="1728"/>
          <note key="56" vol="78" pan="0" len="192" pos="1728"/>
          <note key="61" vol="78" pan="0" len="192" pos="1920"/>
          <note key="58" vol="78" pan="0" len="192" pos="1920"/>
          <note key="66" vol="78" pan="0" len="192" pos="2112"/>
          <note key="58" vol="78" pan="0" len="192" pos="2112"/>
          <note key="62" vol="78" pan="0" len="192" pos="2304"/>
          <note key="57" vol="78" pan="0" len="192" pos="2304"/>
          <note key="64" vol="78" pan="0" len="192" pos="2496"/>
          <note key="57" vol="78" pan="0" len="192" pos="2496"/>
          <note key="63" vol="78" pan="0" len="192" pos="2688"/>
          <note key="59" vol="78" pan="0" len="192" pos="2688"/>
          <note key="61" vol="78" pan="0" len="192" pos="6144"/>
          <note key="59" vol="78" pan="0" len="192" pos="6336"/>
          <note key="56" vol="78" pan="0" len="384" pos="6528"/>
          <note key="56" vol="78" pan="0" len="192" pos="6912"/>
          <note key="54" vol="78" pan="0" len="192" pos="7104"/>
          <note key="52" vol="78" pan="0" len="384" pos="7296"/>
        </pattern>
        <pattern name="Orchestra Soundfont 2 COMBO" muted="0" type="1" steps="16" pos="24000">
          <note key="64" vol="78" pan="0" len="192" pos="0"/>
          <note key="61" vol="78" pan="0" len="384" pos="192"/>
          <note key="61" vol="78" pan="0" len="384" pos="576"/>
        </pattern>
        <pattern name="Orchestra Soundfont 2 COMBO" muted="0" type="1" steps="16" pos="47232">
          <note key="64" vol="78" pan="0" len="192" pos="0"/>
          <note key="61" vol="78" pan="0" len="192" pos="0"/>
          <note key="63" vol="78" pan="0" len="192" pos="192"/>
          <note key="56" vol="78" pan="0" len="192" pos="192"/>
          <note key="64" vol="78" pan="0" len="192" pos="384"/>
          <note key="57" vol="78" pan="0" len="192" pos="384"/>
          <note key="66" vol="78" pan="0" len="192" pos="576"/>
          <note key="59" vol="78" pan="0" len="192" pos="576"/>
          <note key="64" vol="78" pan="0" len="192" pos="768"/>
          <note key="61" vol="78" pan="0" len="192" pos="768"/>
          <note key="66" vol="78" pan="0" len="192" pos="960"/>
          <note key="59" vol="78" pan="0" len="192" pos="960"/>
          <note key="64" vol="78" pan="0" len="192" pos="1152"/>
          <note key="61" vol="78" pan="0" len="192" pos="1152"/>
          <note key="66" vol="78" pan="0" len="192" pos="1344"/>
          <note key="56" vol="78" pan="0" len="192" pos="1344"/>
          <note key="64" vol="78" pan="0" len="192" pos="1536"/>
          <note key="61" vol="78" pan="0" len="192" pos="1536"/>
          <note key="63" vol="78" pan="0" len="192" pos="1728"/>
          <note key="56" vol="78" pan="0" len="192" pos="1728"/>
          <note key="64" vol="78" pan="0" len="192" pos="1920"/>
          <note key="58" vol="78" pan="0" len="192" pos="1920"/>
          <note key="66" vol="78" pan="0" len="192" pos="2112"/>
          <note key="58" vol="78" pan="0" len="192" pos="2112"/>
          <note key="64" vol="78" pan="0" len="192" pos="2304"/>
          <note key="61" vol="78" pan="0" len="192" pos="2304"/>
          <note key="66" vol="78" pan="0" len="192" pos="2496"/>
          <note key="59" vol="78" pan="0" len="192" pos="2496"/>
          <note key="64" vol="78" pan="0" len="192" pos="2688"/>
          <note key="61" vol="78" pan="0" len="192" pos="2688"/>
          <note key="59" vol="78" pan="0" len="384" pos="3072"/>
          <note key="63" vol="78" pan="0" len="384" pos="3456"/>
          <note key="66" vol="78" pan="0" len="384" pos="3840"/>
          <note key="66" vol="78" pan="0" len="384" pos="4224"/>
          <note key="59" vol="78" pan="0" len="384" pos="4608"/>
          <note key="63" vol="78" pan="0" len="384" pos="4992"/>
          <note key="66" vol="78" pan="0" len="384" pos="5376"/>
          <note key="66" vol="78" pan="0" len="384" pos="5760"/>
          <note key="61" vol="78" pan="0" len="192" pos="6144"/>
          <note key="59" vol="78" pan="0" len="192" pos="6336"/>
          <note key="56" vol="78" pan="0" len="384" pos="6528"/>
          <note key="56" vol="78" pan="0" len="192" pos="6912"/>
          <note key="54" vol="78" pan="0" len="192" pos="7104"/>
          <note key="52" vol="78" pan="0" len="384" pos="7296"/>
        </pattern>
        <pattern name="Orchestra Soundfont 2 COMBO" muted="0" type="1" steps="16" pos="55488">
          <note key="64" vol="78" pan="0" len="192" pos="0"/>
          <note key="61" vol="78" pan="0" len="384" pos="192"/>
          <note key="61" vol="78" pan="0" len="384" pos="576"/>
          <note key="61" vol="78" pan="0" len="192" pos="960"/>
          <note key="59" vol="78" pan="0" len="192" pos="1152"/>
          <note key="56" vol="78" pan="0" len="384" pos="1344"/>
          <note key="56" vol="78" pan="0" len="192" pos="1728"/>
          <note key="54" vol="78" pan="0" len="192" pos="1920"/>
          <note key="52" vol="78" pan="0" len="384" pos="2112"/>
        </pattern>
        <pattern name="Orchestra Soundfont 2 COMBO" muted="0" type="1" steps="16" pos="58560">
          <note key="64" vol="78" pan="0" len="192" pos="0"/>
          <note key="61" vol="78" pan="0" len="384" pos="192"/>
          <note key="61" vol="78" pan="0" len="384" pos="576"/>
          <note key="68" vol="78" pan="0" len="384" pos="960"/>
          <note key="68" vol="78" pan="0" len="384" pos="1344"/>
        </pattern>
        <pattern name="Orchestra Soundfont 2 COMBO" muted="0" type="1" steps="16" pos="66432">
          <note key="64" vol="78" pan="0" len="192" pos="0"/>
          <note key="61" vol="78" pan="0" len="192" pos="0"/>
          <note key="66" vol="78" pan="0" len="192" pos="192"/>
          <note key="63" vol="78" pan="0" len="192" pos="192"/>
          <note key="64" vol="78" pan="0" len="192" pos="384"/>
          <note key="61" vol="78" pan="0" len="192" pos="384"/>
          <note key="66" vol="78" pan="0" len="192" pos="576"/>
          <note key="63" vol="78" pan="0" len="192" pos="576"/>
          <note key="66" vol="78" pan="0" len="192" pos="768"/>
          <note key="63" vol="78" pan="0" len="192" pos="768"/>
          <note key="66" vol="78" pan="0" len="192" pos="960"/>
          <note key="63" vol="78" pan="0" len="192" pos="960"/>
          <note key="64" vol="78" pan="0" len="192" pos="1152"/>
          <note key="61" vol="78" pan="0" len="192" pos="1152"/>
          <note key="66" vol="78" pan="0" len="192" pos="1344"/>
          <note key="63" vol="78" pan="0" len="192" pos="1344"/>
          <note key="73" vol="78" pan="0" len="384" pos="1536"/>
          <note key="61" vol="78" pan="0" len="384" pos="1536"/>
          <note key="73" vol="78" pan="0" len="384" pos="1920"/>
          <note key="61" vol="78" pan="0" len="384" pos="1920"/>
          <note key="73" vol="78" pan="0" len="48" pos="2304"/>
          <note key="61" vol="78" pan="0" len="48" pos="2304"/>
        </pattern>
        <pattern name="Orchestra Soundfont 2 COMBO" muted="0" type="1" steps="16" pos="24960">
          <note key="61" vol="70" pan="0" len="192" pos="0"/>
          <note key="59" vol="70" pan="0" len="192" pos="192"/>
          <note key="56" vol="70" pan="0" len="288" pos="384"/>
          <note key="56" vol="70" pan="0" len="96" pos="672"/>
          <note key="68" vol="70" pan="0" len="192" pos="768"/>
          <note key="66" vol="70" pan="0" len="192" pos="960"/>
          <note key="61" vol="70" pan="0" len="384" pos="1152"/>
          <note key="61" vol="70" pan="0" len="192" pos="1536"/>
          <note key="63" vol="70" pan="0" len="192" pos="1728"/>
          <note key="64" vol="70" pan="0" len="192" pos="1920"/>
          <note key="68" vol="70" pan="0" len="96" pos="2112"/>
          <note key="66" vol="70" pan="0" len="96" pos="2208"/>
          <note key="66" vol="70" pan="0" len="192" pos="2304"/>
          <note key="61" vol="70" pan="0" len="144" pos="2496"/>
          <note key="61" vol="70" pan="0" len="24" pos="2640"/>
          <note key="63" vol="70" pan="0" len="24" pos="2664"/>
          <note key="64" vol="70" pan="0" len="192" pos="2688"/>
          <note key="64" vol="70" pan="0" len="96" pos="2880"/>
          <note key="68" vol="70" pan="0" len="96" pos="2976"/>
          <note key="73" vol="70" pan="0" len="384" pos="3072"/>
          <note key="73" vol="70" pan="0" len="384" pos="3456"/>
        </pattern>
      </track>
      <track name="Mystery Dungeon" muted="1" type="0" solo="0">
        <instrumenttrack vol="192" pitch="0" pitchrange="2" basenote="57" pan="0" fxch="0" usemasterpitch="1">
          <instrument name="sf2player">
            <sf2player chorusOn="0" reverbRoomSize="0.2" chorusLevel="2" src="/home/huggypie/samples/soundfonts/Mystery Dungeon.sf2" gain="1" reverbDamping="0" chorusSpeed="0.3" reverbWidth="0.5" reverbLevel="0.9" bank="0" reverbOn="0" patch="1" chorusDepth="8" chorusNum="3"/>
          </instrument>
          <eldata ftype="0" fres="0.5" fwet="0" fcut="14000">
            <elvol dec="0.5" sustain="0.5" pdel="0" lpdel="0" rel="0.1" lspd="0.1" userwavefile="" hold="0.5" lamt="0" lspd_numerator="4" lspd_syncmode="0" lshp="0" amt="0" x100="0" latt="0" lspd_denominator="4" ctlenvamt="0" att="0"/>
            <elcut dec="0.5" sustain="0.5" pdel="0" lpdel="0" rel="0.1" lspd="0.1" userwavefile="" hold="0.5" lamt="0" lspd_numerator="4" lspd_syncmode="0" lshp="0" amt="0" x100="0" latt="0" lspd_denominator="4" ctlenvamt="0" att="0"/>
            <elres dec="0.5" sustain="0.5" pdel="0" lpdel="0" rel="0.1" lspd="0.1" userwavefile="" hold="0.5" lamt="0" lspd_numerator="4" lspd_syncmode="0" lshp="0" amt="0" x100="0" latt="0" lspd_denominator="4" ctlenvamt="0" att="0"/>
          </eldata>
          <chordcreator chord="0" chord-enabled="0" chordrange="1"/>
          <arpeggiator arprange="1" arptime_denominator="4" arpgate="100" arptime_syncmode="0" arp="0" arpmode="0" arpmiss="0" arpdir="0" arptime_numerator="4" arp-enabled="0" arpcycle="0" arpskip="0" arptime="200"/>
          <midiport outputchannel="1" inputcontroller="0" outputcontroller="0" basevelocity="63" fixedinputvelocity="-1" fixedoutputvelocity="-1" outputprogram="1" readable="0" writable="0" fixedoutputnote="-1" inputchannel="0"/>
          <fxchain numofeffects="0" enabled="0"/>
        </instrumenttrack>
        <pattern name="Sf2 Player" muted="0" type="1" steps="16" pos="4992">
          <note key="61" vol="78" pan="0" len="24" pos="0"/>
          <note key="49" vol="78" pan="0" len="24" pos="0"/>
          <note key="63" vol="78" pan="0" len="24" pos="24"/>
          <note key="51" vol="78" pan="0" len="24" pos="24"/>
          <note key="61" vol="78" pan="0" len="24" pos="48"/>
          <note key="49" vol="78" pan="0" len="24" pos="48"/>
          <note key="68" vol="78" pan="0" len="48" pos="72"/>
          <note key="56" vol="78" pan="0" len="48" pos="72"/>
          <note key="61" vol="78" pan="0" len="24" pos="120"/>
          <note key="49" vol="78" pan="0" len="24" pos="120"/>
          <note key="64" vol="78" pan="0" len="24" pos="144"/>
          <note key="52" vol="78" pan="0" len="24" pos="144"/>
          <note key="68" vol="78" pan="0" len="24" pos="168"/>
          <note key="56" vol="78" pan="0" len="24" pos="168"/>
          <note key="71" vol="78" pan="0" len="24" pos="192"/>
          <note key="59" vol="78" pan="0" len="24" pos="192"/>
          <note key="69" vol="78" pan="0" len="24" pos="216"/>
          <note key="57" vol="78" pan="0" len="24" pos="216"/>
          <note key="68" vol="78" pan="0" len="24" pos="240"/>
          <note key="56" vol="78" pan="0" len="24" pos="240"/>
          <note key="69" vol="78" pan="0" len="48" pos="264"/>
          <note key="57" vol="78" pan="0" len="48" pos="264"/>
          <note key="68" vol="78" pan="0" len="24" pos="312"/>
          <note key="56" vol="78" pan="0" len="24" pos="312"/>
          <note key="66" vol="78" pan="0" len="24" pos="336"/>
          <note key="54" vol="78" pan="0" len="24" pos="336"/>
          <note key="68" vol="78" pan="0" len="24" pos="360"/>
          <note key="56" vol="78" pan="0" len="24" pos="360"/>
          <note key="63" vol="78" pan="0" len="96" pos="384"/>
          <note key="51" vol="78" pan="0" len="96" pos="384"/>
        </pattern>
        <pattern name="Sf2 Player" muted="0" type="1" steps="16" pos="5760">
          <note key="61" vol="78" pan="0" len="24" pos="0"/>
          <note key="49" vol="78" pan="0" len="24" pos="0"/>
          <note key="63" vol="78" pan="0" len="24" pos="24"/>
          <note key="51" vol="78" pan="0" len="24" pos="24"/>
          <note key="61" vol="78" pan="0" len="24" pos="48"/>
          <note key="49" vol="78" pan="0" len="24" pos="48"/>
          <note key="68" vol="78" pan="0" len="48" pos="72"/>
          <note key="56" vol="78" pan="0" len="48" pos="72"/>
          <note key="61" vol="78" pan="0" len="24" pos="120"/>
          <note key="49" vol="78" pan="0" len="24" pos="120"/>
          <note key="64" vol="78" pan="0" len="24" pos="144"/>
          <note key="52" vol="78" pan="0" len="24" pos="144"/>
          <note key="68" vol="78" pan="0" len="24" pos="168"/>
          <note key="56" vol="78" pan="0" len="24" pos="168"/>
          <note key="71" vol="78" pan="0" len="24" pos="192"/>
          <note key="59" vol="78" pan="0" len="24" pos="192"/>
          <note key="73" vol="78" pan="0" len="24" pos="216"/>
          <note key="61" vol="78" pan="0" len="24" pos="216"/>
          <note key="75" vol="78" pan="0" len="24" pos="240"/>
          <note key="63" vol="78" pan="0" len="24" pos="240"/>
          <note key="73" vol="78" pan="0" len="48" pos="264"/>
          <note key="61" vol="78" pan="0" len="48" pos="264"/>
          <note key="75" vol="78" pan="0" len="24" pos="312"/>
          <note key="63" vol="78" pan="0" len="24" pos="312"/>
          <note key="76" vol="78" pan="0" len="24" pos="336"/>
          <note key="64" vol="78" pan="0" len="24" pos="336"/>
          <note key="78" vol="78" pan="0" len="24" pos="360"/>
          <note key="66" vol="78" pan="0" len="24" pos="360"/>
          <note key="75" vol="78" pan="0" len="96" pos="384"/>
          <note key="63" vol="78" pan="0" len="96" pos="384"/>
        </pattern>
        <pattern name="Sf2 Player" muted="0" type="1" steps="16" pos="7104">
          <note key="68" vol="78" pan="0" len="48" pos="96"/>
          <note key="56" vol="78" pan="0" len="48" pos="96"/>
          <note key="71" vol="78" pan="0" len="48" pos="144"/>
          <note key="59" vol="78" pan="0" len="48" pos="144"/>
          <note key="73" vol="78" pan="0" len="96" pos="192"/>
          <note key="61" vol="78" pan="0" len="96" pos="192"/>
          <note key="73" vol="78" pan="0" len="24" pos="288"/>
          <note key="61" vol="78" pan="0" len="24" pos="288"/>
          <note key="68" vol="78" pan="0" len="24" pos="312"/>
          <note key="56" vol="78" pan="0" len="24" pos="312"/>
          <note key="73" vol="78" pan="0" len="24" pos="336"/>
          <note key="61" vol="78" pan="0" len="24" pos="336"/>
          <note key="80" vol="78" pan="0" len="168" pos="360"/>
          <note key="68" vol="78" pan="0" len="168" pos="360"/>
          <note key="80" vol="78" pan="0" len="24" pos="528"/>
          <note key="68" vol="78" pan="0" len="24" pos="528"/>
          <note key="78" vol="78" pan="0" len="24" pos="552"/>
          <note key="66" vol="78" pan="0" len="24" pos="552"/>
          <note key="77" vol="78" pan="0" len="48" pos="576"/>
          <note key="65" vol="78" pan="0" len="48" pos="576"/>
          <note key="73" vol="78" pan="0" len="48" pos="624"/>
          <note key="61" vol="78" pan="0" len="48" pos="624"/>
          <note key="70" vol="78" pan="0" len="48" pos="672"/>
          <note key="58" vol="78" pan="0" len="48" pos="672"/>
          <note key="66" vol="78" pan="0" len="48" pos="720"/>
          <note key="54" vol="78" pan="0" len="48" pos="720"/>
          <note key="69" vol="78" pan="0" len="96" pos="768"/>
          <note key="57" vol="78" pan="0" len="96" pos="768"/>
          <note key="68" vol="78" pan="0" len="96" pos="864"/>
          <note key="56" vol="78" pan="0" len="96" pos="864"/>
          <note key="61" vol="78" pan="0" len="144" pos="960"/>
          <note key="49" vol="78" pan="0" len="144" pos="960"/>
          <note key="64" vol="78" pan="0" len="48" pos="1104"/>
          <note key="52" vol="78" pan="0" len="48" pos="1104"/>
          <note key="63" vol="78" pan="0" len="144" pos="1152"/>
          <note key="51" vol="78" pan="0" len="144" pos="1152"/>
          <note key="68" vol="78" pan="0" len="48" pos="1296"/>
          <note key="56" vol="78" pan="0" len="48" pos="1296"/>
          <note key="68" vol="78" pan="0" len="144" pos="1344"/>
          <note key="56" vol="78" pan="0" len="144" pos="1344"/>
          <note key="66" vol="78" pan="0" len="24" pos="1488"/>
          <note key="54" vol="78" pan="0" len="24" pos="1488"/>
          <note key="64" vol="78" pan="0" len="24" pos="1512"/>
          <note key="52" vol="78" pan="0" len="24" pos="1512"/>
          <note key="63" vol="78" pan="0" len="48" pos="1536"/>
          <note key="51" vol="78" pan="0" len="48" pos="1536"/>
          <note key="64" vol="78" pan="0" len="48" pos="1584"/>
          <note key="52" vol="78" pan="0" len="48" pos="1584"/>
          <note key="59" vol="78" pan="0" len="48" pos="1632"/>
          <note key="47" vol="78" pan="0" len="48" pos="1632"/>
          <note key="56" vol="78" pan="0" len="48" pos="1680"/>
          <note key="44" vol="78" pan="0" len="48" pos="1680"/>
          <note key="57" vol="78" pan="0" len="96" pos="1728"/>
          <note key="45" vol="78" pan="0" len="96" pos="1728"/>
          <note key="61" vol="78" pan="0" len="48" pos="1824"/>
          <note key="49" vol="78" pan="0" len="48" pos="1824"/>
          <note key="64" vol="78" pan="0" len="48" pos="1872"/>
          <note key="52" vol="78" pan="0" len="48" pos="1872"/>
          <note key="64" vol="78" pan="0" len="96" pos="1920"/>
          <note key="52" vol="78" pan="0" len="96" pos="1920"/>
          <note key="63" vol="78" pan="0" len="48" pos="2016"/>
          <note key="51" vol="78" pan="0" len="48" pos="2016"/>
          <note key="64" vol="78" pan="0" len="48" pos="2064"/>
          <note key="52" vol="78" pan="0" len="48" pos="2064"/>
          <note key="71" vol="78" pan="0" len="72" pos="2112"/>
          <note key="59" vol="78" pan="0" len="72" pos="2112"/>
          <note key="69" vol="78" pan="0" len="72" pos="2184"/>
          <note key="57" vol="78" pan="0" len="72" pos="2184"/>
          <note key="68" vol="78" pan="0" len="48" pos="2256"/>
          <note key="56" vol="78" pan="0" len="48" pos="2256"/>
          <note key="66" vol="78" pan="0" len="192" pos="2304"/>
          <note key="54" vol="78" pan="0" len="192" pos="2304"/>
          <note key="64" vol="78" pan="0" len="72" pos="2496"/>
          <note key="52" vol="78" pan="0" len="72" pos="2496"/>
          <note key="63" vol="78" pan="0" len="72" pos="2568"/>
          <note key="51" vol="78" pan="0" len="72" pos="2568"/>
          <note key="64" vol="78" pan="0" len="48" pos="2640"/>
          <note key="52" vol="78" pan="0" len="48" pos="2640"/>
          <note key="68" vol="78" pan="0" len="144" pos="2688"/>
          <note key="56" vol="78" pan="0" len="144" pos="2688"/>
          <note key="63" vol="78" pan="0" len="48" pos="2832"/>
          <note key="51" vol="78" pan="0" len="48" pos="2832"/>
          <note key="61" vol="78" pan="0" len="240" pos="2880"/>
          <note key="49" vol="78" pan="0" len="240" pos="2880"/>
          <note key="64" vol="78" pan="0" len="48" pos="3120"/>
          <note key="52" vol="78" pan="0" len="48" pos="3120"/>
          <note key="66" vol="78" pan="0" len="48" pos="3168"/>
          <note key="54" vol="78" pan="0" len="48" pos="3168"/>
          <note key="68" vol="78" pan="0" len="48" pos="3216"/>
          <note key="56" vol="78" pan="0" len="48" pos="3216"/>
          <note key="69" vol="78" pan="0" len="72" pos="3264"/>
          <note key="57" vol="78" pan="0" len="72" pos="3264"/>
          <note key="68" vol="78" pan="0" len="72" pos="3336"/>
          <note key="56" vol="78" pan="0" len="72" pos="3336"/>
          <note key="66" vol="78" pan="0" len="48" pos="3408"/>
          <note key="54" vol="78" pan="0" len="48" pos="3408"/>
          <note key="64" vol="78" pan="0" len="48" pos="3456"/>
          <note key="52" vol="78" pan="0" len="48" pos="3456"/>
          <note key="61" vol="78" pan="0" len="48" pos="3504"/>
          <note key="49" vol="78" pan="0" len="48" pos="3504"/>
          <note key="64" vol="78" pan="0" len="48" pos="3552"/>
          <note key="52" vol="78" pan="0" len="48" pos="3552"/>
          <note key="68" vol="78" pan="0" len="48" pos="3600"/>
          <note key="56" vol="78" pan="0" len="48" pos="3600"/>
          <note key="66" vol="78" pan="0" len="192" pos="3648"/>
          <note key="54" vol="78" pan="0" len="192" pos="3648"/>
          <note key="63" vol="78" pan="0" len="96" pos="3840"/>
          <note key="51" vol="78" pan="0" len="96" pos="3840"/>
          <note key="59" vol="78" pan="0" len="96" pos="3936"/>
          <note key="47" vol="78" pan="0" len="96" pos="3936"/>
          <note key="61" vol="78" pan="0" len="384" pos="4032"/>
          <note key="49" vol="78" pan="0" len="384" pos="4032"/>
        </pattern>
        <pattern name="Sf2 Player" muted="0" type="1" steps="16" pos="12672">
          <note key="49" vol="78" pan="0" len="24" pos="0"/>
          <note key="51" vol="78" pan="0" len="24" pos="24"/>
          <note key="49" vol="78" pan="0" len="24" pos="48"/>
          <note key="56" vol="78" pan="0" len="48" pos="72"/>
          <note key="49" vol="78" pan="0" len="24" pos="120"/>
          <note key="52" vol="78" pan="0" len="24" pos="144"/>
          <note key="56" vol="78" pan="0" len="24" pos="168"/>
          <note key="59" vol="78" pan="0" len="24" pos="192"/>
          <note key="57" vol="78" pan="0" len="24" pos="216"/>
          <note key="56" vol="78" pan="0" len="24" pos="240"/>
          <note key="57" vol="78" pan="0" len="48" pos="264"/>
          <note key="56" vol="78" pan="0" len="24" pos="312"/>
          <note key="54" vol="78" pan="0" len="24" pos="336"/>
          <note key="56" vol="78" pan="0" len="24" pos="360"/>
          <note key="51" vol="78" pan="0" len="96" pos="384"/>
        </pattern>
        <pattern name="Sf2 Player" muted="0" type="1" steps="16" pos="13440">
          <note key="49" vol="78" pan="0" len="24" pos="0"/>
          <note key="51" vol="78" pan="0" len="24" pos="24"/>
          <note key="49" vol="78" pan="0" len="24" pos="48"/>
          <note key="56" vol="78" pan="0" len="48" pos="72"/>
          <note key="49" vol="78" pan="0" len="24" pos="120"/>
          <note key="52" vol="78" pan="0" len="24" pos="144"/>
          <note key="56" vol="78" pan="0" len="24" pos="168"/>
          <note key="59" vol="78" pan="0" len="24" pos="192"/>
          <note key="61" vol="78" pan="0" len="24" pos="216"/>
          <note key="63" vol="78" pan="0" len="24" pos="240"/>
          <note key="61" vol="78" pan="0" len="48" pos="264"/>
          <note key="63" vol="78" pan="0" len="24" pos="312"/>
          <note key="64" vol="78" pan="0" len="24" pos="336"/>
          <note key="66" vol="78" pan="0" len="24" pos="360"/>
          <note key="63" vol="78" pan="0" len="96" pos="384"/>
        </pattern>
        <pattern name="Sf2 Player" muted="0" type="1" steps="16" pos="14784">
          <note key="68" vol="78" pan="0" len="48" pos="96"/>
          <note key="56" vol="78" pan="0" len="48" pos="96"/>
          <note key="71" vol="78" pan="0" len="48" pos="144"/>
          <note key="59" vol="78" pan="0" len="48" pos="144"/>
          <note key="73" vol="78" pan="0" len="96" pos="192"/>
          <note key="61" vol="78" pan="0" len="96" pos="192"/>
          <note key="73" vol="78" pan="0" len="24" pos="288"/>
          <note key="61" vol="78" pan="0" len="24" pos="288"/>
          <note key="68" vol="78" pan="0" len="24" pos="312"/>
          <note key="56" vol="78" pan="0" len="24" pos="312"/>
          <note key="73" vol="78" pan="0" len="24" pos="336"/>
          <note key="61" vol="78" pan="0" len="24" pos="336"/>
          <note key="80" vol="78" pan="0" len="168" pos="360"/>
          <note key="68" vol="78" pan="0" len="168" pos="360"/>
          <note key="80" vol="78" pan="0" len="24" pos="528"/>
          <note key="68" vol="78" pan="0" len="24" pos="528"/>
          <note key="78" vol="78" pan="0" len="24" pos="552"/>
          <note key="66" vol="78" pan="0" len="24" pos="552"/>
          <note key="77" vol="78" pan="0" len="48" pos="576"/>
          <note key="65" vol="78" pan="0" len="48" pos="576"/>
          <note key="73" vol="78" pan="0" len="48" pos="624"/>
          <note key="61" vol="78" pan="0" len="48" pos="624"/>
          <note key="70" vol="78" pan="0" len="48" pos="672"/>
          <note key="58" vol="78" pan="0" len="48" pos="672"/>
          <note key="66" vol="78" pan="0" len="48" pos="720"/>
          <note key="54" vol="78" pan="0" len="48" pos="720"/>
          <note key="69" vol="78" pan="0" len="96" pos="768"/>
          <note key="57" vol="78" pan="0" len="96" pos="768"/>
          <note key="68" vol="78" pan="0" len="96" pos="864"/>
          <note key="56" vol="78" pan="0" len="96" pos="864"/>
          <note key="61" vol="78" pan="0" len="144" pos="960"/>
          <note key="49" vol="78" pan="0" len="144" pos="960"/>
          <note key="64" vol="78" pan="0" len="48" pos="1104"/>
          <note key="52" vol="78" pan="0" len="48" pos="1104"/>
          <note key="63" vol="78" pan="0" len="144" pos="1152"/>
          <note key="51" vol="78" pan="0" len="144" pos="1152"/>
          <note key="68" vol="78" pan="0" len="48" pos="1296"/>
          <note key="56" vol="78" pan="0" len="48" pos="1296"/>
          <note key="68" vol="78" pan="0" len="144" pos="1344"/>
          <note key="56" vol="78" pan="0" len="144" pos="1344"/>
          <note key="66" vol="78" pan="0" len="24" pos="1488"/>
          <note key="54" vol="78" pan="0" len="24" pos="1488"/>
          <note key="64" vol="78" pan="0" len="24" pos="1512"/>
          <note key="52" vol="78" pan="0" len="24" pos="1512"/>
          <note key="63" vol="78" pan="0" len="48" pos="1536"/>
          <note key="51" vol="78" pan="0" len="48" pos="1536"/>
          <note key="64" vol="78" pan="0" len="48" pos="1584"/>
          <note key="52" vol="78" pan="0" len="48" pos="1584"/>
          <note key="59" vol="78" pan="0" len="48" pos="1632"/>
          <note key="47" vol="78" pan="0" len="48" pos="1632"/>
          <note key="56" vol="78" pan="0" len="48" pos="1680"/>
          <note key="44" vol="78" pan="0" len="48" pos="1680"/>
          <note key="57" vol="78" pan="0" len="96" pos="1728"/>
          <note key="45" vol="78" pan="0" len="96" pos="1728"/>
          <note key="61" vol="78" pan="0" len="48" pos="1824"/>
          <note key="49" vol="78" pan="0" len="48" pos="1824"/>
          <note key="64" vol="78" pan="0" len="48" pos="1872"/>
          <note key="52" vol="78" pan="0" len="48" pos="1872"/>
          <note key="64" vol="78" pan="0" len="96" pos="1920"/>
          <note key="52" vol="78" pan="0" len="96" pos="1920"/>
          <note key="63" vol="78" pan="0" len="48" pos="2016"/>
          <note key="51" vol="78" pan="0" len="48" pos="2016"/>
          <note key="64" vol="78" pan="0" len="48" pos="2064"/>
          <note key="52" vol="78" pan="0" len="48" pos="2064"/>
          <note key="71" vol="78" pan="0" len="72" pos="2112"/>
          <note key="59" vol="78" pan="0" len="72" pos="2112"/>
          <note key="69" vol="78" pan="0" len="72" pos="2184"/>
          <note key="57" vol="78" pan="0" len="72" pos="2184"/>
          <note key="68" vol="78" pan="0" len="48" pos="2256"/>
          <note key="56" vol="78" pan="0" len="48" pos="2256"/>
          <note key="66" vol="78" pan="0" len="192" pos="2304"/>
          <note key="54" vol="78" pan="0" len="192" pos="2304"/>
          <note key="64" vol="78" pan="0" len="72" pos="2496"/>
          <note key="52" vol="78" pan="0" len="72" pos="2496"/>
          <note key="63" vol="78" pan="0" len="72" pos="2568"/>
          <note key="51" vol="78" pan="0" len="72" pos="2568"/>
          <note key="64" vol="78" pan="0" len="48" pos="2640"/>
          <note key="52" vol="78" pan="0" len="48" pos="2640"/>
          <note key="68" vol="78" pan="0" len="144" pos="2688"/>
          <note key="56" vol="78" pan="0" len="144" pos="2688"/>
          <note key="63" vol="78" pan="0" len="48" pos="2832"/>
          <note key="51" vol="78" pan="0" len="48" pos="2832"/>
          <note key="61" vol="78" pan="0" len="240" pos="2880"/>
          <note key="49" vol="78" pan="0" len="240" pos="2880"/>
          <note key="64" vol="78" pan="0" len="48" pos="3120"/>
          <note key="52" vol="78" pan="0" len="48" pos="3120"/>
          <note key="66" vol="78" pan="0" len="48" pos="3168"/>
          <note key="54" vol="78" pan="0" len="48" pos="3168"/>
          <note key="68" vol="78" pan="0" len="48" pos="3216"/>
          <note key="56" vol="78" pan="0" len="48" pos="3216"/>
          <note key="69" vol="78" pan="0" len="72" pos="3264"/>
          <note key="57" vol="78" pan="0" len="72" pos="3264"/>
          <note key="68" vol="78" pan="0" len="72" pos="3336"/>
          <note key="56" vol="78" pan="0" len="72" pos="3336"/>
          <note key="66" vol="78" pan="0" len="48" pos="3408"/>
          <note key="54" vol="78" pan="0" len="48" pos="3408"/>
          <note key="64" vol="78" pan="0" len="48" pos="3456"/>
          <note key="52" vol="78" pan="0" len="48" pos="3456"/>
          <note key="61" vol="78" pan="0" len="48" pos="3504"/>
          <note key="49" vol="78" pan="0" len="48" pos="3504"/>
          <note key="64" vol="78" pan="0" len="48" pos="3552"/>
          <note key="52" vol="78" pan="0" len="48" pos="3552"/>
          <note key="68" vol="78" pan="0" len="48" pos="3600"/>
          <note key="56" vol="78" pan="0" len="48" pos="3600"/>
          <note key="66" vol="78" pan="0" len="192" pos="3648"/>
          <note key="54" vol="78" pan="0" len="192" pos="3648"/>
          <note key="63" vol="78" pan="0" len="24" pos="3840"/>
          <note key="51" vol="78" pan="0" len="24" pos="3840"/>
          <note key="63" vol="78" pan="0" len="24" pos="3864"/>
          <note key="51" vol="78" pan="0" len="24" pos="3864"/>
          <note key="71" vol="78" pan="0" len="24" pos="3936"/>
          <note key="59" vol="78" pan="0" len="24" pos="3936"/>
          <note key="71" vol="78" pan="0" len="24" pos="3960"/>
          <note key="59" vol="78" pan="0" len="24" pos="3960"/>
          <note key="73" vol="78" pan="0" len="336" pos="4032"/>
          <note key="61" vol="78" pan="0" len="336" pos="4032"/>
          <note key="64" vol="78" pan="0" len="48" pos="4368"/>
          <note key="52" vol="78" pan="0" len="48" pos="4368"/>
          <note key="63" vol="78" pan="0" len="288" pos="4416"/>
          <note key="51" vol="78" pan="0" len="288" pos="4416"/>
          <note key="56" vol="78" pan="0" len="48" pos="4704"/>
          <note key="44" vol="78" pan="0" len="48" pos="4704"/>
          <note key="59" vol="78" pan="0" len="48" pos="4752"/>
          <note key="47" vol="78" pan="0" len="48" pos="4752"/>
          <note key="61" vol="78" pan="0" len="240" pos="4800"/>
          <note key="49" vol="78" pan="0" len="240" pos="4800"/>
          <note key="59" vol="78" pan="0" len="48" pos="5040"/>
          <note key="47" vol="78" pan="0" len="48" pos="5040"/>
          <note key="61" vol="78" pan="0" len="48" pos="5088"/>
          <note key="49" vol="78" pan="0" len="48" pos="5088"/>
          <note key="68" vol="78" pan="0" len="48" pos="5136"/>
          <note key="56" vol="78" pan="0" len="48" pos="5136"/>
          <note key="66" vol="78" pan="0" len="192" pos="5184"/>
          <note key="54" vol="78" pan="0" len="192" pos="5184"/>
          <note key="69" vol="78" pan="0" len="48" pos="5376"/>
          <note key="57" vol="78" pan="0" len="48" pos="5376"/>
          <note key="68" vol="78" pan="0" len="24" pos="5424"/>
          <note key="56" vol="78" pan="0" len="24" pos="5424"/>
          <note key="68" vol="78" pan="0" len="12" pos="5448"/>
          <note key="56" vol="78" pan="0" len="12" pos="5448"/>
          <note key="69" vol="78" pan="0" len="12" pos="5456"/>
          <note key="57" vol="78" pan="0" len="12" pos="5456"/>
          <note key="68" vol="78" pan="0" len="12" pos="5464"/>
          <note key="56" vol="78" pan="0" len="12" pos="5464"/>
          <note key="66" vol="78" pan="0" len="48" pos="5472"/>
          <note key="54" vol="78" pan="0" len="48" pos="5472"/>
          <note key="68" vol="78" pan="0" len="48" pos="5520"/>
          <note key="56" vol="78" pan="0" len="48" pos="5520"/>
          <note key="64" vol="78" pan="0" len="240" pos="5568"/>
          <note key="52" vol="78" pan="0" len="240" pos="5568"/>
          <note key="61" vol="78" pan="0" len="48" pos="5808"/>
          <note key="49" vol="78" pan="0" len="48" pos="5808"/>
          <note key="64" vol="78" pan="0" len="48" pos="5856"/>
          <note key="52" vol="78" pan="0" len="48" pos="5856"/>
          <note key="68" vol="78" pan="0" len="48" pos="5904"/>
          <note key="56" vol="78" pan="0" len="48" pos="5904"/>
          <note key="68" vol="78" pan="0" len="192" pos="5952"/>
          <note key="56" vol="78" pan="0" len="192" pos="5952"/>
          <note key="66" vol="78" pan="0" len="144" pos="6144"/>
          <note key="54" vol="78" pan="0" len="144" pos="6144"/>
          <note key="68" vol="78" pan="0" len="48" pos="6288"/>
          <note key="56" vol="78" pan="0" len="48" pos="6288"/>
          <note key="61" vol="78" pan="0" len="240" pos="6336"/>
          <note key="49" vol="78" pan="0" len="240" pos="6336"/>
          <note key="56" vol="78" pan="0" len="48" pos="6576"/>
          <note key="44" vol="78" pan="0" len="48" pos="6576"/>
          <note key="61" vol="78" pan="0" len="48" pos="6624"/>
          <note key="49" vol="78" pan="0" len="48" pos="6624"/>
          <note key="68" vol="78" pan="0" len="48" pos="6672"/>
          <note key="56" vol="78" pan="0" len="48" pos="6672"/>
          <note key="73" vol="78" pan="0" len="192" pos="6720"/>
          <note key="61" vol="78" pan="0" len="192" pos="6720"/>
          <note key="72" vol="78" pan="0" len="192" pos="6912"/>
          <note key="60" vol="78" pan="0" len="192" pos="6912"/>
        </pattern>
        <pattern name="Sf2 Player" muted="0" type="1" steps="16" pos="36480">
          <note key="61" vol="78" pan="0" len="24" pos="0"/>
          <note key="49" vol="78" pan="0" len="24" pos="0"/>
          <note key="63" vol="78" pan="0" len="24" pos="24"/>
          <note key="51" vol="78" pan="0" len="24" pos="24"/>
          <note key="61" vol="78" pan="0" len="24" pos="48"/>
          <note key="49" vol="78" pan="0" len="24" pos="48"/>
          <note key="68" vol="78" pan="0" len="48" pos="72"/>
          <note key="56" vol="78" pan="0" len="48" pos="72"/>
          <note key="61" vol="78" pan="0" len="24" pos="120"/>
          <note key="49" vol="78" pan="0" len="24" pos="120"/>
          <note key="64" vol="78" pan="0" len="24" pos="144"/>
          <note key="52" vol="78" pan="0" len="24" pos="144"/>
          <note key="68" vol="78" pan="0" len="24" pos="168"/>
          <note key="56" vol="78" pan="0" len="24" pos="168"/>
          <note key="71" vol="78" pan="0" len="24" pos="192"/>
          <note key="59" vol="78" pan="0" len="24" pos="192"/>
          <note key="69" vol="78" pan="0" len="24" pos="216"/>
          <note key="57" vol="78" pan="0" len="24" pos="216"/>
          <note key="68" vol="78" pan="0" len="24" pos="240"/>
          <note key="56" vol="78" pan="0" len="24" pos="240"/>
          <note key="69" vol="78" pan="0" len="48" pos="264"/>
          <note key="57" vol="78" pan="0" len="48" pos="264"/>
          <note key="68" vol="78" pan="0" len="24" pos="312"/>
          <note key="56" vol="78" pan="0" len="24" pos="312"/>
          <note key="66" vol="78" pan="0" len="24" pos="336"/>
          <note key="54" vol="78" pan="0" len="24" pos="336"/>
          <note key="68" vol="78" pan="0" len="24" pos="360"/>
          <note key="56" vol="78" pan="0" len="24" pos="360"/>
          <note key="63" vol="78" pan="0" len="96" pos="384"/>
          <note key="51" vol="78" pan="0" len="96" pos="384"/>
        </pattern>
        <pattern name="Sf2 Player" muted="0" type="1" steps="16" pos="37248">
          <note key="61" vol="78" pan="0" len="24" pos="0"/>
          <note key="49" vol="78" pan="0" len="24" pos="0"/>
          <note key="63" vol="78" pan="0" len="24" pos="24"/>
          <note key="51" vol="78" pan="0" len="24" pos="24"/>
          <note key="61" vol="78" pan="0" len="24" pos="48"/>
          <note key="49" vol="78" pan="0" len="24" pos="48"/>
          <note key="68" vol="78" pan="0" len="48" pos="72"/>
          <note key="56" vol="78" pan="0" len="48" pos="72"/>
          <note key="61" vol="78" pan="0" len="24" pos="120"/>
          <note key="49" vol="78" pan="0" len="24" pos="120"/>
          <note key="64" vol="78" pan="0" len="24" pos="144"/>
          <note key="52" vol="78" pan="0" len="24" pos="144"/>
          <note key="68" vol="78" pan="0" len="24" pos="168"/>
          <note key="56" vol="78" pan="0" len="24" pos="168"/>
          <note key="71" vol="78" pan="0" len="24" pos="192"/>
          <note key="59" vol="78" pan="0" len="24" pos="192"/>
          <note key="73" vol="78" pan="0" len="24" pos="216"/>
          <note key="61" vol="78" pan="0" len="24" pos="216"/>
          <note key="75" vol="78" pan="0" len="24" pos="240"/>
          <note key="63" vol="78" pan="0" len="24" pos="240"/>
          <note key="73" vol="78" pan="0" len="48" pos="264"/>
          <note key="61" vol="78" pan="0" len="48" pos="264"/>
          <note key="75" vol="78" pan="0" len="24" pos="312"/>
          <note key="63" vol="78" pan="0" len="24" pos="312"/>
          <note key="76" vol="78" pan="0" len="24" pos="336"/>
          <note key="64" vol="78" pan="0" len="24" pos="336"/>
          <note key="78" vol="78" pan="0" len="24" pos="360"/>
          <note key="66" vol="78" pan="0" len="24" pos="360"/>
          <note key="75" vol="78" pan="0" len="96" pos="384"/>
          <note key="63" vol="78" pan="0" len="96" pos="384"/>
        </pattern>
        <pattern name="Sf2 Player" muted="0" type="1" steps="16" pos="38592">
          <note key="68" vol="78" pan="0" len="48" pos="96"/>
          <note key="56" vol="78" pan="0" len="48" pos="96"/>
          <note key="71" vol="78" pan="0" len="48" pos="144"/>
          <note key="59" vol="78" pan="0" len="48" pos="144"/>
          <note key="73" vol="78" pan="0" len="96" pos="192"/>
          <note key="61" vol="78" pan="0" len="96" pos="192"/>
          <note key="73" vol="78" pan="0" len="24" pos="288"/>
          <note key="61" vol="78" pan="0" len="24" pos="288"/>
          <note key="68" vol="78" pan="0" len="24" pos="312"/>
          <note key="56" vol="78" pan="0" len="24" pos="312"/>
          <note key="73" vol="78" pan="0" len="24" pos="336"/>
          <note key="61" vol="78" pan="0" len="24" pos="336"/>
          <note key="80" vol="78" pan="0" len="168" pos="360"/>
          <note key="68" vol="78" pan="0" len="168" pos="360"/>
          <note key="80" vol="78" pan="0" len="24" pos="528"/>
          <note key="68" vol="78" pan="0" len="24" pos="528"/>
          <note key="78" vol="78" pan="0" len="24" pos="552"/>
          <note key="66" vol="78" pan="0" len="24" pos="552"/>
          <note key="77" vol="78" pan="0" len="48" pos="576"/>
          <note key="65" vol="78" pan="0" len="48" pos="576"/>
          <note key="73" vol="78" pan="0" len="48" pos="624"/>
          <note key="61" vol="78" pan="0" len="48" pos="624"/>
          <note key="70" vol="78" pan="0" len="48" pos="672"/>
          <note key="58" vol="78" pan="0" len="48" pos="672"/>
          <note key="66" vol="78" pan="0" len="48" pos="720"/>
          <note key="54" vol="78" pan="0" len="48" pos="720"/>
          <note key="69" vol="78" pan="0" len="96" pos="768"/>
          <note key="57" vol="78" pan="0" len="96" pos="768"/>
          <note key="68" vol="78" pan="0" len="96" pos="864"/>
          <note key="56" vol="78" pan="0" len="96" pos="864"/>
          <note key="61" vol="78" pan="0" len="144" pos="960"/>
          <note key="49" vol="78" pan="0" len="144" pos="960"/>
          <note key="64" vol="78" pan="0" len="48" pos="1104"/>
          <note key="52" vol="78" pan="0" len="48" pos="1104"/>
          <note key="63" vol="78" pan="0" len="144" pos="1152"/>
          <note key="51" vol="78" pan="0" len="144" pos="1152"/>
          <note key="68" vol="78" pan="0" len="48" pos="1296"/>
          <note key="56" vol="78" pan="0" len="48" pos="1296"/>
          <note key="68" vol="78" pan="0" len="144" pos="1344"/>
          <note key="56" vol="78" pan="0" len="144" pos="1344"/>
          <note key="66" vol="78" pan="0" len="24" pos="1488"/>
          <note key="54" vol="78" pan="0" len="24" pos="1488"/>
          <note key="64" vol="78" pan="0" len="24" pos="1512"/>
          <note key="52" vol="78" pan="0" len="24" pos="1512"/>
          <note key="63" vol="78" pan="0" len="48" pos="1536"/>
          <note key="51" vol="78" pan="0" len="48" pos="1536"/>
          <note key="64" vol="78" pan="0" len="48" pos="1584"/>
          <note key="52" vol="78" pan="0" len="48" pos="1584"/>
          <note key="59" vol="78" pan="0" len="48" pos="1632"/>
          <note key="47" vol="78" pan="0" len="48" pos="1632"/>
          <note key="56" vol="78" pan="0" len="48" pos="1680"/>
          <note key="44" vol="78" pan="0" len="48" pos="1680"/>
          <note key="57" vol="78" pan="0" len="96" pos="1728"/>
          <note key="45" vol="78" pan="0" len="96" pos="1728"/>
          <note key="61" vol="78" pan="0" len="48" pos="1824"/>
          <note key="49" vol="78" pan="0" len="48" pos="1824"/>
          <note key="64" vol="78" pan="0" len="48" pos="1872"/>
          <note key="52" vol="78" pan="0" len="48" pos="1872"/>
          <note key="64" vol="78" pan="0" len="96" pos="1920"/>
          <note key="52" vol="78" pan="0" len="96" pos="1920"/>
          <note key="63" vol="78" pan="0" len="48" pos="2016"/>
          <note key="51" vol="78" pan="0" len="48" pos="2016"/>
          <note key="64" vol="78" pan="0" len="48" pos="2064"/>
          <note key="52" vol="78" pan="0" len="48" pos="2064"/>
          <note key="71" vol="78" pan="0" len="72" pos="2112"/>
          <note key="59" vol="78" pan="0" len="72" pos="2112"/>
          <note key="69" vol="78" pan="0" len="72" pos="2184"/>
          <note key="57" vol="78" pan="0" len="72" pos="2184"/>
          <note key="68" vol="78" pan="0" len="48" pos="2256"/>
          <note key="56" vol="78" pan="0" len="48" pos="2256"/>
          <note key="66" vol="78" pan="0" len="192" pos="2304"/>
          <note key="54" vol="78" pan="0" len="192" pos="2304"/>
          <note key="64" vol="78" pan="0" len="72" pos="2496"/>
          <note key="52" vol="78" pan="0" len="72" pos="2496"/>
          <note key="63" vol="78" pan="0" len="72" pos="2568"/>
          <note key="51" vol="78" pan="0" len="72" pos="2568"/>
          <note key="64" vol="78" pan="0" len="48" pos="2640"/>
          <note key="52" vol="78" pan="0" len="48" pos="2640"/>
          <note key="68" vol="78" pan="0" len="144" pos="2688"/>
          <note key="56" vol="78" pan="0" len="144" pos="2688"/>
          <note key="63" vol="78" pan="0" len="48" pos="2832"/>
          <note key="51" vol="78" pan="0" len="48" pos="2832"/>
          <note key="61" vol="78" pan="0" len="240" pos="2880"/>
          <note key="49" vol="78" pan="0" len="240" pos="2880"/>
          <note key="64" vol="78" pan="0" len="48" pos="3120"/>
          <note key="52" vol="78" pan="0" len="48" pos="3120"/>
          <note key="66" vol="78" pan="0" len="48" pos="3168"/>
          <note key="54" vol="78" pan="0" len="48" pos="3168"/>
          <note key="68" vol="78" pan="0" len="48" pos="3216"/>
          <note key="56" vol="78" pan="0" len="48" pos="3216"/>
          <note key="69" vol="78" pan="0" len="72" pos="3264"/>
          <note key="57" vol="78" pan="0" len="72" pos="3264"/>
          <note key="68" vol="78" pan="0" len="72" pos="3336"/>
          <note key="56" vol="78" pan="0" len="72" pos="3336"/>
          <note key="66" vol="78" pan="0" len="48" pos="3408"/>
          <note key="54" vol="78" pan="0" len="48" pos="3408"/>
          <note key="64" vol="78" pan="0" len="48" pos="3456"/>
          <note key="52" vol="78" pan="0" len="48" pos="3456"/>
          <note key="61" vol="78" pan="0" len="48" pos="3504"/>
          <note key="49" vol="78" pan="0" len="48" pos="3504"/>
          <note key="64" vol="78" pan="0" len="48" pos="3552"/>
          <note key="52" vol="78" pan="0" len="48" pos="3552"/>
          <note key="68" vol="78" pan="0" len="48" pos="3600"/>
          <note key="56" vol="78" pan="0" len="48" pos="3600"/>
          <note key="66" vol="78" pan="0" len="192" pos="3648"/>
          <note key="54" vol="78" pan="0" len="192" pos="3648"/>
          <note key="63" vol="78" pan="0" len="96" pos="3840"/>
          <note key="51" vol="78" pan="0" len="96" pos="3840"/>
          <note key="59" vol="78" pan="0" len="96" pos="3936"/>
          <note key="47" vol="78" pan="0" len="96" pos="3936"/>
          <note key="61" vol="78" pan="0" len="384" pos="4032"/>
          <note key="49" vol="78" pan="0" len="384" pos="4032"/>
        </pattern>
        <pattern name="Sf2 Player" muted="0" type="1" steps="16" pos="44160">
          <note key="49" vol="78" pan="0" len="24" pos="0"/>
          <note key="51" vol="78" pan="0" len="24" pos="24"/>
          <note key="49" vol="78" pan="0" len="24" pos="48"/>
          <note key="56" vol="78" pan="0" len="48" pos="72"/>
          <note key="49" vol="78" pan="0" len="24" pos="120"/>
          <note key="52" vol="78" pan="0" len="24" pos="144"/>
          <note key="56" vol="78" pan="0" len="24" pos="168"/>
          <note key="59" vol="78" pan="0" len="24" pos="192"/>
          <note key="57" vol="78" pan="0" len="24" pos="216"/>
          <note key="56" vol="78" pan="0" len="24" pos="240"/>
          <note key="57" vol="78" pan="0" len="48" pos="264"/>
          <note key="56" vol="78" pan="0" len="24" pos="312"/>
          <note key="54" vol="78" pan="0" len="24" pos="336"/>
          <note key="56" vol="78" pan="0" len="24" pos="360"/>
          <note key="51" vol="78" pan="0" len="96" pos="384"/>
        </pattern>
        <pattern name="Sf2 Player" muted="0" type="1" steps="16" pos="44928">
          <note key="49" vol="78" pan="0" len="24" pos="0"/>
          <note key="51" vol="78" pan="0" len="24" pos="24"/>
          <note key="49" vol="78" pan="0" len="24" pos="48"/>
          <note key="56" vol="78" pan="0" len="48" pos="72"/>
          <note key="49" vol="78" pan="0" len="24" pos="120"/>
          <note key="52" vol="78" pan="0" len="24" pos="144"/>
          <note key="56" vol="78" pan="0" len="24" pos="168"/>
          <note key="59" vol="78" pan="0" len="24" pos="192"/>
          <note key="61" vol="78" pan="0" len="24" pos="216"/>
          <note key="63" vol="78" pan="0" len="24" pos="240"/>
          <note key="61" vol="78" pan="0" len="48" pos="264"/>
          <note key="63" vol="78" pan="0" len="24" pos="312"/>
          <note key="64" vol="78" pan="0" len="24" pos="336"/>
          <note key="66" vol="78" pan="0" len="24" pos="360"/>
          <note key="63" vol="78" pan="0" len="96" pos="384"/>
        </pattern>
        <pattern name="Sf2 Player" muted="0" type="1" steps="16" pos="46272">
          <note key="68" vol="78" pan="0" len="48" pos="96"/>
          <note key="56" vol="78" pan="0" len="48" pos="96"/>
          <note key="71" vol="78" pan="0" len="48" pos="144"/>
          <note key="59" vol="78" pan="0" len="48" pos="144"/>
          <note key="73" vol="78" pan="0" len="96" pos="192"/>
          <note key="61" vol="78" pan="0" len="96" pos="192"/>
          <note key="73" vol="78" pan="0" len="24" pos="288"/>
          <note key="61" vol="78" pan="0" len="24" pos="288"/>
          <note key="68" vol="78" pan="0" len="24" pos="312"/>
          <note key="56" vol="78" pan="0" len="24" pos="312"/>
          <note key="73" vol="78" pan="0" len="24" pos="336"/>
          <note key="61" vol="78" pan="0" len="24" pos="336"/>
          <note key="80" vol="78" pan="0" len="168" pos="360"/>
          <note key="68" vol="78" pan="0" len="168" pos="360"/>
          <note key="80" vol="78" pan="0" len="24" pos="528"/>
          <note key="68" vol="78" pan="0" len="24" pos="528"/>
          <note key="78" vol="78" pan="0" len="24" pos="552"/>
          <note key="66" vol="78" pan="0" len="24" pos="552"/>
          <note key="77" vol="78" pan="0" len="48" pos="576"/>
          <note key="65" vol="78" pan="0" len="48" pos="576"/>
          <note key="73" vol="78" pan="0" len="48" pos="624"/>
          <note key="61" vol="78" pan="0" len="48" pos="624"/>
          <note key="70" vol="78" pan="0" len="48" pos="672"/>
          <note key="58" vol="78" pan="0" len="48" pos="672"/>
          <note key="66" vol="78" pan="0" len="48" pos="720"/>
          <note key="54" vol="78" pan="0" len="48" pos="720"/>
          <note key="69" vol="78" pan="0" len="96" pos="768"/>
          <note key="57" vol="78" pan="0" len="96" pos="768"/>
          <note key="68" vol="78" pan="0" len="96" pos="864"/>
          <note key="56" vol="78" pan="0" len="96" pos="864"/>
          <note key="61" vol="78" pan="0" len="144" pos="960"/>
          <note key="49" vol="78" pan="0" len="144" pos="960"/>
          <note key="64" vol="78" pan="0" len="48" pos="1104"/>
          <note key="52" vol="78" pan="0" len="48" pos="1104"/>
          <note key="63" vol="78" pan="0" len="144" pos="1152"/>
          <note key="51" vol="78" pan="0" len="144" pos="1152"/>
          <note key="68" vol="78" pan="0" len="48" pos="1296"/>
          <note key="56" vol="78" pan="0" len="48" pos="1296"/>
          <note key="68" vol="78" pan="0" len="144" pos="1344"/>
          <note key="56" vol="78" pan="0" len="144" pos="1344"/>
          <note key="66" vol="78" pan="0" len="24" pos="1488"/>
          <note key="54" vol="78" pan="0" len="24" pos="1488"/>
          <note key="64" vol="78" pan="0" len="24" pos="1512"/>
          <note key="52" vol="78" pan="0" len="24" pos="1512"/>
          <note key="63" vol="78" pan="0" len="48" pos="1536"/>
          <note key="51" vol="78" pan="0" len="48" pos="1536"/>
          <note key="64" vol="78" pan="0" len="48" pos="1584"/>
          <note key="52" vol="78" pan="0" len="48" pos="1584"/>
          <note key="59" vol="78" pan="0" len="48" pos="1632"/>
          <note key="47" vol="78" pan="0" len="48" pos="1632"/>
          <note key="56" vol="78" pan="0" len="48" pos="1680"/>
          <note key="44" vol="78" pan="0" len="48" pos="1680"/>
          <note key="57" vol="78" pan="0" len="96" pos="1728"/>
          <note key="45" vol="78" pan="0" len="96" pos="1728"/>
          <note key="61" vol="78" pan="0" len="48" pos="1824"/>
          <note key="49" vol="78" pan="0" len="48" pos="1824"/>
          <note key="64" vol="78" pan="0" len="48" pos="1872"/>
          <note key="52" vol="78" pan="0" len="48" pos="1872"/>
          <note key="64" vol="78" pan="0" len="96" pos="1920"/>
          <note key="52" vol="78" pan="0" len="96" pos="1920"/>
          <note key="63" vol="78" pan="0" len="48" pos="2016"/>
          <note key="51" vol="78" pan="0" len="48" pos="2016"/>
          <note key="64" vol="78" pan="0" len="48" pos="2064"/>
          <note key="52" vol="78" pan="0" len="48" pos="2064"/>
          <note key="71" vol="78" pan="0" len="72" pos="2112"/>
          <note key="59" vol="78" pan="0" len="72" pos="2112"/>
          <note key="69" vol="78" pan="0" len="72" pos="2184"/>
          <note key="57" vol="78" pan="0" len="72" pos="2184"/>
          <note key="68" vol="78" pan="0" len="48" pos="2256"/>
          <note key="56" vol="78" pan="0" len="48" pos="2256"/>
          <note key="66" vol="78" pan="0" len="192" pos="2304"/>
          <note key="54" vol="78" pan="0" len="192" pos="2304"/>
          <note key="64" vol="78" pan="0" len="72" pos="2496"/>
          <note key="52" vol="78" pan="0" len="72" pos="2496"/>
          <note key="63" vol="78" pan="0" len="72" pos="2568"/>
          <note key="51" vol="78" pan="0" len="72" pos="2568"/>
          <note key="64" vol="78" pan="0" len="48" pos="2640"/>
          <note key="52" vol="78" pan="0" len="48" pos="2640"/>
          <note key="68" vol="78" pan="0" len="144" pos="2688"/>
          <note key="56" vol="78" pan="0" len="144" pos="2688"/>
          <note key="63" vol="78" pan="0" len="48" pos="2832"/>
          <note key="51" vol="78" pan="0" len="48" pos="2832"/>
          <note key="61" vol="78" pan="0" len="240" pos="2880"/>
          <note key="49" vol="78" pan="0" len="240" pos="2880"/>
          <note key="64" vol="78" pan="0" len="48" pos="3120"/>
          <note key="52" vol="78" pan="0" len="48" pos="3120"/>
          <note key="66" vol="78" pan="0" len="48" pos="3168"/>
          <note key="54" vol="78" pan="0" len="48" pos="3168"/>
          <note key="68" vol="78" pan="0" len="48" pos="3216"/>
          <note key="56" vol="78" pan="0" len="48" pos="3216"/>
          <note key="69" vol="78" pan="0" len="72" pos="3264"/>
          <note key="57" vol="78" pan="0" len="72" pos="3264"/>
          <note key="68" vol="78" pan="0" len="72" pos="3336"/>
          <note key="56" vol="78" pan="0" len="72" pos="3336"/>
          <note key="66" vol="78" pan="0" len="48" pos="3408"/>
          <note key="54" vol="78" pan="0" len="48" pos="3408"/>
          <note key="64" vol="78" pan="0" len="48" pos="3456"/>
          <note key="52" vol="78" pan="0" len="48" pos="3456"/>
          <note key="61" vol="78" pan="0" len="48" pos="3504"/>
          <note key="49" vol="78" pan="0" len="48" pos="3504"/>
          <note key="64" vol="78" pan="0" len="48" pos="3552"/>
          <note key="52" vol="78" pan="0" len="48" pos="3552"/>
          <note key="68" vol="78" pan="0" len="48" pos="3600"/>
          <note key="56" vol="78" pan="0" len="48" pos="3600"/>
          <note key="66" vol="78" pan="0" len="192" pos="3648"/>
          <note key="54" vol="78" pan="0" len="192" pos="3648"/>
          <note key="63" vol="78" pan="0" len="24" pos="3840"/>
          <note key="51" vol="78" pan="0" len="24" pos="3840"/>
          <note key="63" vol="78" pan="0" len="24" pos="3864"/>
          <note key="51" vol="78" pan="0" len="24" pos="3864"/>
          <note key="71" vol="78" pan="0" len="24" pos="3936"/>
          <note key="59" vol="78" pan="0" len="24" pos="3936"/>
          <note key="71" vol="78" pan="0" len="24" pos="3960"/>
          <note key="59" vol="78" pan="0" len="24" pos="3960"/>
          <note key="73" vol="78" pan="0" len="336" pos="4032"/>
          <note key="61" vol="78" pan="0" len="336" pos="4032"/>
          <note key="64" vol="78" pan="0" len="48" pos="4368"/>
          <note key="52" vol="78" pan="0" len="48" pos="4368"/>
          <note key="63" vol="78" pan="0" len="288" pos="4416"/>
          <note key="51" vol="78" pan="0" len="288" pos="4416"/>
          <note key="56" vol="78" pan="0" len="48" pos="4704"/>
          <note key="44" vol="78" pan="0" len="48" pos="4704"/>
          <note key="59" vol="78" pan="0" len="48" pos="4752"/>
          <note key="47" vol="78" pan="0" len="48" pos="4752"/>
          <note key="61" vol="78" pan="0" len="240" pos="4800"/>
          <note key="49" vol="78" pan="0" len="240" pos="4800"/>
          <note key="59" vol="78" pan="0" len="48" pos="5040"/>
          <note key="47" vol="78" pan="0" len="48" pos="5040"/>
          <note key="61" vol="78" pan="0" len="48" pos="5088"/>
          <note key="49" vol="78" pan="0" len="48" pos="5088"/>
          <note key="68" vol="78" pan="0" len="48" pos="5136"/>
          <note key="56" vol="78" pan="0" len="48" pos="5136"/>
          <note key="66" vol="78" pan="0" len="192" pos="5184"/>
          <note key="54" vol="78" pan="0" len="192" pos="5184"/>
          <note key="69" vol="78" pan="0" len="48" pos="5376"/>
          <note key="57" vol="78" pan="0" len="48" pos="5376"/>
          <note key="68" vol="78" pan="0" len="24" pos="5424"/>
          <note key="56" vol="78" pan="0" len="24" pos="5424"/>
          <note key="68" vol="78" pan="0" len="12" pos="5448"/>
          <note key="56" vol="78" pan="0" len="12" pos="5448"/>
          <note key="69" vol="78" pan="0" len="12" pos="5456"/>
          <note key="57" vol="78" pan="0" len="12" pos="5456"/>
          <note key="68" vol="78" pan="0" len="12" pos="5464"/>
          <note key="56" vol="78" pan="0" len="12" pos="5464"/>
          <note key="66" vol="78" pan="0" len="48" pos="5472"/>
          <note key="54" vol="78" pan="0" len="48" pos="5472"/>
          <note key="68" vol="78" pan="0" len="48" pos="5520"/>
          <note key="56" vol="78" pan="0" len="48" pos="5520"/>
          <note key="64" vol="78" pan="0" len="240" pos="5568"/>
          <note key="52" vol="78" pan="0" len="240" pos="5568"/>
          <note key="61" vol="78" pan="0" len="48" pos="5808"/>
          <note key="49" vol="78" pan="0" len="48" pos="5808"/>
          <note key="64" vol="78" pan="0" len="48" pos="5856"/>
          <note key="52" vol="78" pan="0" len="48" pos="5856"/>
          <note key="68" vol="78" pan="0" len="48" pos="5904"/>
          <note key="56" vol="78" pan="0" len="48" pos="5904"/>
          <note key="68" vol="78" pan="0" len="192" pos="5952"/>
          <note key="56" vol="78" pan="0" len="192" pos="5952"/>
          <note key="66" vol="78" pan="0" len="144" pos="6144"/>
          <note key="54" vol="78" pan="0" len="144" pos="6144"/>
          <note key="68" vol="78" pan="0" len="48" pos="6288"/>
          <note key="56" vol="78" pan="0" len="48" pos="6288"/>
          <note key="61" vol="78" pan="0" len="240" pos="6336"/>
          <note key="49" vol="78" pan="0" len="240" pos="6336"/>
          <note key="56" vol="78" pan="0" len="48" pos="6576"/>
          <note key="44" vol="78" pan="0" len="48" pos="6576"/>
          <note key="61" vol="78" pan="0" len="48" pos="6624"/>
          <note key="49" vol="78" pan="0" len="48" pos="6624"/>
          <note key="68" vol="78" pan="0" len="48" pos="6672"/>
          <note key="56" vol="78" pan="0" len="48" pos="6672"/>
          <note key="73" vol="78" pan="0" len="192" pos="6720"/>
          <note key="61" vol="78" pan="0" len="192" pos="6720"/>
          <note key="72" vol="78" pan="0" len="192" pos="6912"/>
          <note key="60" vol="78" pan="0" len="192" pos="6912"/>
        </pattern>
      </track>
      <track name="Orchestra Soundfont 2 COMBO" muted="1" type="0" solo="0">
        <instrumenttrack vol="188.8" pitch="0" pitchrange="2" basenote="57" pan="0" fxch="0" usemasterpitch="1">
          <instrument name="sf2player">
            <sf2player chorusOn="0" reverbRoomSize="0.2" chorusLevel="2" src="/home/huggypie/samples/soundfonts/Orchestra Soundfont 2 COMBO.sf2" gain="1" reverbDamping="0" chorusSpeed="0.3" reverbWidth="0.5" reverbLevel="0.9" bank="0" reverbOn="0" patch="0" chorusDepth="8" chorusNum="3"/>
          </instrument>
          <eldata ftype="0" fres="0.5" fwet="0" fcut="14000">
            <elvol dec="0.5" sustain="0.5" pdel="0" lpdel="0" rel="0.1" lspd="0.1" userwavefile="" hold="0.5" lamt="0" lspd_numerator="4" lspd_syncmode="0" lshp="0" amt="0" x100="0" latt="0" lspd_denominator="4" ctlenvamt="0" att="0"/>
            <elcut dec="0.5" sustain="0.5" pdel="0" lpdel="0" rel="0.1" lspd="0.1" userwavefile="" hold="0.5" lamt="0" lspd_numerator="4" lspd_syncmode="0" lshp="0" amt="0" x100="0" latt="0" lspd_denominator="4" ctlenvamt="0" att="0"/>
            <elres dec="0.5" sustain="0.5" pdel="0" lpdel="0" rel="0.1" lspd="0.1" userwavefile="" hold="0.5" lamt="0" lspd_numerator="4" lspd_syncmode="0" lshp="0" amt="0" x100="0" latt="0" lspd_denominator="4" ctlenvamt="0" att="0"/>
          </eldata>
          <chordcreator chord="0" chord-enabled="0" chordrange="1"/>
          <arpeggiator arprange="1" arptime_denominator="4" arpgate="100" arptime_syncmode="0" arp="0" arpmode="0" arpmiss="0" arpdir="0" arptime_numerator="4" arp-enabled="0" arpcycle="0" arpskip="0" arptime="200"/>
          <midiport outputchannel="1" inputcontroller="0" outputcontroller="0" basevelocity="63" fixedinputvelocity="-1" fixedoutputvelocity="-1" outputprogram="1" readable="0" writable="0" fixedoutputnote="-1" inputchannel="0"/>
          <fxchain numofeffects="0" enabled="0"/>
        </instrumenttrack>
        <pattern name="Orchestra Soundfont 2 COMBO" muted="0" type="1" steps="16" pos="5376">
          <note key="44" vol="78" pan="0" len="24" pos="0"/>
          <note key="47" vol="78" pan="0" len="24" pos="24"/>
          <note key="44" vol="78" pan="0" len="24" pos="48"/>
          <note key="51" vol="78" pan="0" len="48" pos="72"/>
          <note key="44" vol="78" pan="0" len="24" pos="120"/>
          <note key="47" vol="78" pan="0" len="24" pos="144"/>
          <note key="51" vol="78" pan="0" len="24" pos="168"/>
          <note key="52" vol="78" pan="0" len="24" pos="192"/>
          <note key="51" vol="78" pan="0" len="24" pos="216"/>
          <note key="49" vol="78" pan="0" len="24" pos="240"/>
          <note key="47" vol="78" pan="0" len="24" pos="264"/>
          <note key="51" vol="78" pan="0" len="24" pos="288"/>
          <note key="49" vol="78" pan="0" len="24" pos="312"/>
          <note key="47" vol="78" pan="0" len="24" pos="336"/>
          <note key="44" vol="78" pan="0" len="24" pos="360"/>
          <note key="49" vol="78" pan="0" len="96" pos="384"/>
        </pattern>
        <pattern name="Orchestra Soundfont 2 COMBO" muted="0" type="1" steps="16" pos="6144">
          <note key="47" vol="78" pan="0" len="24" pos="0"/>
          <note key="52" vol="78" pan="0" len="24" pos="24"/>
          <note key="56" vol="78" pan="0" len="24" pos="48"/>
          <note key="59" vol="78" pan="0" len="48" pos="72"/>
          <note key="56" vol="78" pan="0" len="24" pos="120"/>
          <note key="59" vol="78" pan="0" len="24" pos="144"/>
          <note key="63" vol="78" pan="0" len="24" pos="168"/>
          <note key="61" vol="78" pan="0" len="24" pos="192"/>
          <note key="56" vol="78" pan="0" len="24" pos="216"/>
          <note key="52" vol="78" pan="0" len="24" pos="240"/>
          <note key="49" vol="78" pan="0" len="24" pos="264"/>
          <note key="54" vol="78" pan="0" len="24" pos="288"/>
          <note key="52" vol="78" pan="0" len="24" pos="312"/>
          <note key="56" vol="78" pan="0" len="24" pos="336"/>
          <note key="52" vol="78" pan="0" len="24" pos="360"/>
          <note key="57" vol="78" pan="0" len="120" pos="384"/>
          <note key="56" vol="78" pan="0" len="24" pos="504"/>
          <note key="57" vol="78" pan="0" len="24" pos="528"/>
          <note key="59" vol="78" pan="0" len="24" pos="552"/>
          <note key="61" vol="78" pan="0" len="72" pos="576"/>
          <note key="59" vol="78" pan="0" len="72" pos="648"/>
          <note key="57" vol="78" pan="0" len="48" pos="720"/>
          <note key="56" vol="78" pan="0" len="24" pos="768"/>
          <note key="57" vol="78" pan="0" len="24" pos="792"/>
          <note key="56" vol="78" pan="0" len="24" pos="816"/>
          <note key="52" vol="78" pan="0" len="48" pos="840"/>
          <note key="52" vol="78" pan="0" len="24" pos="888"/>
          <note key="54" vol="78" pan="0" len="24" pos="912"/>
          <note key="56" vol="78" pan="0" len="24" pos="936"/>
          <note key="54" vol="78" pan="0" len="96" pos="960"/>
          <note key="51" vol="78" pan="0" len="48" pos="1056"/>
          <note key="56" vol="78" pan="0" len="48" pos="1104"/>
          <note key="44" vol="78" pan="0" len="24" pos="1152"/>
          <note key="42" vol="78" pan="0" len="24" pos="1176"/>
          <note key="44" vol="78" pan="0" len="24" pos="1200"/>
          <note key="49" vol="78" pan="0" len="24" pos="1224"/>
          <note key="52" vol="78" pan="0" len="48" pos="1248"/>
          <note key="51" vol="78" pan="0" len="24" pos="1296"/>
          <note key="49" vol="78" pan="0" len="24" pos="1320"/>
          <note key="56" vol="78" pan="0" len="24" pos="1344"/>
          <note key="54" vol="78" pan="0" len="24" pos="1368"/>
          <note key="52" vol="78" pan="0" len="24" pos="1392"/>
          <note key="51" vol="78" pan="0" len="24" pos="1416"/>
          <note key="49" vol="78" pan="0" len="24" pos="1440"/>
          <note key="51" vol="78" pan="0" len="24" pos="1464"/>
          <note key="52" vol="78" pan="0" len="24" pos="1488"/>
          <note key="56" vol="78" pan="0" len="24" pos="1512"/>
          <note key="58" vol="78" pan="0" len="48" pos="1536"/>
          <note key="54" vol="78" pan="0" len="48" pos="1584"/>
          <note key="51" vol="78" pan="0" len="48" pos="1632"/>
          <note key="46" vol="78" pan="0" len="48" pos="1680"/>
          <note key="45" vol="78" pan="0" len="24" pos="1728"/>
          <note key="49" vol="78" pan="0" len="24" pos="1752"/>
          <note key="51" vol="78" pan="0" len="24" pos="1776"/>
          <note key="54" vol="78" pan="0" len="24" pos="1800"/>
          <note key="57" vol="78" pan="0" len="24" pos="1824"/>
          <note key="61" vol="78" pan="0" len="24" pos="1848"/>
          <note key="63" vol="78" pan="0" len="24" pos="1872"/>
          <note key="66" vol="78" pan="0" len="24" pos="1896"/>
        </pattern>
        <pattern name="Orchestra Soundfont 2 COMBO" muted="0" type="1" steps="16" pos="12672">
          <note key="49" vol="78" pan="0" len="24" pos="0"/>
          <note key="56" vol="78" pan="0" len="12" pos="24"/>
          <note key="49" vol="78" pan="0" len="24" pos="48"/>
          <note key="56" vol="78" pan="0" len="12" pos="72"/>
          <note key="56" vol="78" pan="0" len="12" pos="120"/>
          <note key="49" vol="78" pan="0" len="24" pos="144"/>
          <note key="56" vol="78" pan="0" len="12" pos="168"/>
          <note key="56" vol="78" pan="0" len="12" pos="192"/>
          <note key="61" vol="78" pan="0" len="24" pos="216"/>
          <note key="56" vol="78" pan="0" len="12" pos="240"/>
          <note key="56" vol="78" pan="0" len="12" pos="264"/>
          <note key="49" vol="78" pan="0" len="24" pos="288"/>
          <note key="52" vol="78" pan="0" len="24" pos="312"/>
          <note key="56" vol="78" pan="0" len="24" pos="336"/>
          <note key="61" vol="78" pan="0" len="24" pos="360"/>
          <note key="44" vol="78" pan="0" len="24" pos="384"/>
          <note key="47" vol="78" pan="0" len="24" pos="408"/>
          <note key="44" vol="78" pan="0" len="24" pos="432"/>
          <note key="51" vol="78" pan="0" len="48" pos="456"/>
          <note key="44" vol="78" pan="0" len="24" pos="504"/>
          <note key="47" vol="78" pan="0" len="24" pos="528"/>
          <note key="51" vol="78" pan="0" len="24" pos="552"/>
          <note key="52" vol="78" pan="0" len="24" pos="576"/>
          <note key="51" vol="78" pan="0" len="24" pos="600"/>
          <note key="49" vol="78" pan="0" len="24" pos="624"/>
          <note key="47" vol="78" pan="0" len="24" pos="648"/>
          <note key="51" vol="78" pan="0" len="24" pos="672"/>
          <note key="49" vol="78" pan="0" len="24" pos="696"/>
          <note key="47" vol="78" pan="0" len="24" pos="720"/>
          <note key="44" vol="78" pan="0" len="24" pos="744"/>
          <note key="49" vol="78" pan="0" len="24" pos="768"/>
          <note key="56" vol="78" pan="0" len="12" pos="792"/>
          <note key="56" vol="78" pan="0" len="12" pos="816"/>
          <note key="61" vol="78" pan="0" len="24" pos="840"/>
          <note key="56" vol="78" pan="0" len="12" pos="864"/>
          <note key="56" vol="78" pan="0" len="12" pos="888"/>
          <note key="49" vol="78" pan="0" len="24" pos="912"/>
          <note key="56" vol="78" pan="0" len="12" pos="936"/>
          <note key="56" vol="78" pan="0" len="12" pos="960"/>
          <note key="61" vol="78" pan="0" len="24" pos="984"/>
          <note key="56" vol="78" pan="0" len="12" pos="1008"/>
          <note key="57" vol="78" pan="0" len="24" pos="1032"/>
          <note key="49" vol="78" pan="0" len="24" pos="1056"/>
          <note key="52" vol="78" pan="0" len="24" pos="1080"/>
          <note key="56" vol="78" pan="0" len="24" pos="1104"/>
          <note key="61" vol="78" pan="0" len="24" pos="1128"/>
          <note key="47" vol="78" pan="0" len="24" pos="1152"/>
          <note key="52" vol="78" pan="0" len="24" pos="1176"/>
          <note key="56" vol="78" pan="0" len="24" pos="1200"/>
          <note key="59" vol="78" pan="0" len="48" pos="1224"/>
          <note key="56" vol="78" pan="0" len="24" pos="1272"/>
          <note key="59" vol="78" pan="0" len="24" pos="1296"/>
          <note key="63" vol="78" pan="0" len="24" pos="1320"/>
          <note key="61" vol="78" pan="0" len="24" pos="1344"/>
          <note key="56" vol="78" pan="0" len="24" pos="1368"/>
          <note key="52" vol="78" pan="0" len="24" pos="1392"/>
          <note key="49" vol="78" pan="0" len="24" pos="1416"/>
          <note key="54" vol="78" pan="0" len="24" pos="1440"/>
          <note key="52" vol="78" pan="0" len="24" pos="1464"/>
          <note key="56" vol="78" pan="0" len="24" pos="1488"/>
          <note key="52" vol="78" pan="0" len="24" pos="1512"/>
          <note key="57" vol="78" pan="0" len="96" pos="1536"/>
          <note key="57" vol="78" pan="0" len="24" pos="1632"/>
          <note key="56" vol="78" pan="0" len="24" pos="1656"/>
          <note key="57" vol="78" pan="0" len="24" pos="1680"/>
          <note key="59" vol="78" pan="0" len="24" pos="1704"/>
          <note key="61" vol="78" pan="0" len="72" pos="1728"/>
          <note key="59" vol="78" pan="0" len="72" pos="1800"/>
          <note key="57" vol="78" pan="0" len="48" pos="1872"/>
          <note key="56" vol="78" pan="0" len="24" pos="1920"/>
          <note key="57" vol="78" pan="0" len="24" pos="1944"/>
          <note key="56" vol="78" pan="0" len="24" pos="1968"/>
          <note key="52" vol="78" pan="0" len="48" pos="1992"/>
          <note key="52" vol="78" pan="0" len="24" pos="2040"/>
          <note key="54" vol="78" pan="0" len="24" pos="2064"/>
          <note key="56" vol="78" pan="0" len="24" pos="2088"/>
          <note key="54" vol="78" pan="0" len="96" pos="2112"/>
          <note key="51" vol="78" pan="0" len="48" pos="2208"/>
          <note key="56" vol="78" pan="0" len="48" pos="2256"/>
          <note key="44" vol="78" pan="0" len="24" pos="2304"/>
          <note key="42" vol="78" pan="0" len="24" pos="2328"/>
          <note key="44" vol="78" pan="0" len="24" pos="2352"/>
          <note key="49" vol="78" pan="0" len="24" pos="2376"/>
          <note key="52" vol="78" pan="0" len="48" pos="2400"/>
          <note key="51" vol="78" pan="0" len="24" pos="2448"/>
          <note key="49" vol="78" pan="0" len="24" pos="2472"/>
          <note key="56" vol="78" pan="0" len="24" pos="2496"/>
          <note key="54" vol="78" pan="0" len="24" pos="2520"/>
          <note key="52" vol="78" pan="0" len="24" pos="2544"/>
          <note key="51" vol="78" pan="0" len="24" pos="2568"/>
          <note key="49" vol="78" pan="0" len="24" pos="2592"/>
          <note key="51" vol="78" pan="0" len="24" pos="2616"/>
          <note key="52" vol="78" pan="0" len="24" pos="2640"/>
          <note key="56" vol="78" pan="0" len="24" pos="2664"/>
          <note key="58" vol="78" pan="0" len="48" pos="2688"/>
          <note key="54" vol="78" pan="0" len="48" pos="2736"/>
          <note key="51" vol="78" pan="0" len="48" pos="2784"/>
          <note key="46" vol="78" pan="0" len="48" pos="2832"/>
          <note key="45" vol="78" pan="0" len="24" pos="2880"/>
          <note key="49" vol="78" pan="0" len="24" pos="2904"/>
          <note key="51" vol="78" pan="0" len="24" pos="2928"/>
          <note key="54" vol="78" pan="0" len="24" pos="2952"/>
          <note key="57" vol="78" pan="0" len="24" pos="2976"/>
          <note key="61" vol="78" pan="0" len="24" pos="3000"/>
          <note key="63" vol="78" pan="0" len="24" pos="3024"/>
          <note key="66" vol="78" pan="0" len="24" pos="3048"/>
          <note key="49" vol="78" pan="0" len="144" pos="3072"/>
          <note key="45" vol="78" pan="0" len="48" pos="3216"/>
          <note key="47" vol="78" pan="0" len="96" pos="3264"/>
          <note key="51" vol="78" pan="0" len="96" pos="3360"/>
          <note key="49" vol="78" pan="0" len="48" pos="3456"/>
          <note key="44" vol="78" pan="0" len="48" pos="3504"/>
          <note key="40" vol="78" pan="0" len="48" pos="3552"/>
          <note key="44" vol="78" pan="0" len="48" pos="3600"/>
          <note key="42" vol="78" pan="0" len="48" pos="3648"/>
          <note key="51" vol="78" pan="0" len="48" pos="3696"/>
          <note key="51" vol="78" pan="0" len="24" pos="3744"/>
          <note key="52" vol="78" pan="0" len="24" pos="3768"/>
          <note key="54" vol="78" pan="0" len="24" pos="3792"/>
          <note key="51" vol="78" pan="0" len="24" pos="3816"/>
          <note key="52" vol="78" pan="0" len="96" pos="3840"/>
          <note key="51" vol="78" pan="0" len="48" pos="3936"/>
          <note key="47" vol="78" pan="0" len="48" pos="3984"/>
          <note key="49" vol="78" pan="0" len="48" pos="4032"/>
          <note key="52" vol="78" pan="0" len="48" pos="4080"/>
          <note key="54" vol="78" pan="0" len="48" pos="4128"/>
          <note key="49" vol="78" pan="0" len="48" pos="4176"/>
          <note key="54" vol="78" pan="0" len="48" pos="4224"/>
          <note key="52" vol="78" pan="0" len="48" pos="4272"/>
          <note key="51" vol="78" pan="0" len="48" pos="4320"/>
          <note key="54" vol="78" pan="0" len="48" pos="4368"/>
          <note key="52" vol="78" pan="0" len="24" pos="4416"/>
          <note key="54" vol="78" pan="0" len="24" pos="4440"/>
          <note key="52" vol="78" pan="0" len="24" pos="4464"/>
          <note key="51" vol="78" pan="0" len="24" pos="4488"/>
          <note key="49" vol="78" pan="0" len="24" pos="4512"/>
          <note key="44" vol="78" pan="0" len="24" pos="4536"/>
          <note key="45" vol="78" pan="0" len="24" pos="4560"/>
          <note key="48" vol="78" pan="0" len="24" pos="4584"/>
          <note key="51" vol="78" pan="0" len="48" pos="4608"/>
          <note key="52" vol="78" pan="0" len="48" pos="4656"/>
          <note key="54" vol="78" pan="0" len="48" pos="4704"/>
          <note key="56" vol="78" pan="0" len="48" pos="4752"/>
          <note key="59" vol="78" pan="0" len="48" pos="4800"/>
          <note key="56" vol="78" pan="0" len="48" pos="4848"/>
          <note key="51" vol="78" pan="0" len="48" pos="4896"/>
          <note key="56" vol="78" pan="0" len="48" pos="4944"/>
          <note key="59" vol="78" pan="0" len="48" pos="4992"/>
          <note key="56" vol="78" pan="0" len="48" pos="5040"/>
          <note key="52" vol="78" pan="0" len="48" pos="5088"/>
          <note key="49" vol="78" pan="0" len="48" pos="5136"/>
          <note key="45" vol="78" pan="0" len="24" pos="5184"/>
          <note key="44" vol="78" pan="0" len="24" pos="5208"/>
          <note key="45" vol="78" pan="0" len="24" pos="5232"/>
          <note key="47" vol="78" pan="0" len="24" pos="5256"/>
          <note key="49" vol="78" pan="0" len="24" pos="5280"/>
          <note key="52" vol="78" pan="0" len="24" pos="5304"/>
          <note key="54" vol="78" pan="0" len="24" pos="5328"/>
          <note key="56" vol="78" pan="0" len="24" pos="5352"/>
          <note key="54" vol="78" pan="0" len="72" pos="5376"/>
          <note key="59" vol="78" pan="0" len="24" pos="5448"/>
          <note key="56" vol="78" pan="0" len="48" pos="5472"/>
          <note key="52" vol="78" pan="0" len="24" pos="5520"/>
          <note key="54" vol="78" pan="0" len="24" pos="5544"/>
          <note key="57" vol="78" pan="0" len="48" pos="5568"/>
          <note key="56" vol="78" pan="0" len="48" pos="5616"/>
          <note key="52" vol="78" pan="0" len="48" pos="5664"/>
          <note key="56" vol="78" pan="0" len="48" pos="5712"/>
          <note key="54" vol="78" pan="0" len="192" pos="5760"/>
          <note key="51" vol="78" pan="0" len="24" pos="5952"/>
          <note key="51" vol="78" pan="0" len="24" pos="5976"/>
          <note key="47" vol="78" pan="0" len="24" pos="6048"/>
          <note key="47" vol="78" pan="0" len="24" pos="6072"/>
          <note key="49" vol="78" pan="0" len="336" pos="6144"/>
          <note key="52" vol="78" pan="0" len="48" pos="6480"/>
          <note key="51" vol="78" pan="0" len="288" pos="6528"/>
          <note key="44" vol="78" pan="0" len="48" pos="6816"/>
          <note key="47" vol="78" pan="0" len="48" pos="6864"/>
          <note key="49" vol="78" pan="0" len="240" pos="6912"/>
          <note key="47" vol="78" pan="0" len="48" pos="7152"/>
          <note key="49" vol="78" pan="0" len="48" pos="7200"/>
          <note key="56" vol="78" pan="0" len="48" pos="7248"/>
          <note key="54" vol="78" pan="0" len="192" pos="7296"/>
          <note key="57" vol="78" pan="0" len="48" pos="7488"/>
          <note key="56" vol="78" pan="0" len="24" pos="7536"/>
          <note key="56" vol="78" pan="0" len="12" pos="7560"/>
          <note key="57" vol="78" pan="0" len="12" pos="7568"/>
          <note key="56" vol="78" pan="0" len="12" pos="7576"/>
          <note key="54" vol="78" pan="0" len="48" pos="7584"/>
          <note key="56" vol="78" pan="0" len="48" pos="7632"/>
          <note key="52" vol="78" pan="0" len="240" pos="7680"/>
          <note key="49" vol="78" pan="0" len="48" pos="7920"/>
          <note key="52" vol="78" pan="0" len="48" pos="7968"/>
          <note key="56" vol="78" pan="0" len="48" pos="8016"/>
          <note key="56" vol="78" pan="0" len="192" pos="8064"/>
          <note key="54" vol="78" pan="0" len="144" pos="8256"/>
          <note key="56" vol="78" pan="0" len="48" pos="8400"/>
          <note key="49" vol="78" pan="0" len="240" pos="8448"/>
          <note key="44" vol="78" pan="0" len="48" pos="8688"/>
          <note key="49" vol="78" pan="0" len="48" pos="8736"/>
          <note key="56" vol="78" pan="0" len="48" pos="8784"/>
          <note key="61" vol="78" pan="0" len="192" pos="8832"/>
          <note key="60" vol="78" pan="0" len="192" pos="9024"/>
        </pattern>
        <pattern name="Orchestra Soundfont 2 COMBO" muted="0" type="1" steps="16" pos="36864">
          <note key="44" vol="78" pan="0" len="24" pos="0"/>
          <note key="47" vol="78" pan="0" len="24" pos="24"/>
          <note key="44" vol="78" pan="0" len="24" pos="48"/>
          <note key="51" vol="78" pan="0" len="48" pos="72"/>
          <note key="44" vol="78" pan="0" len="24" pos="120"/>
          <note key="47" vol="78" pan="0" len="24" pos="144"/>
          <note key="51" vol="78" pan="0" len="24" pos="168"/>
          <note key="52" vol="78" pan="0" len="24" pos="192"/>
          <note key="51" vol="78" pan="0" len="24" pos="216"/>
          <note key="49" vol="78" pan="0" len="24" pos="240"/>
          <note key="47" vol="78" pan="0" len="24" pos="264"/>
          <note key="51" vol="78" pan="0" len="24" pos="288"/>
          <note key="49" vol="78" pan="0" len="24" pos="312"/>
          <note key="47" vol="78" pan="0" len="24" pos="336"/>
          <note key="44" vol="78" pan="0" len="24" pos="360"/>
          <note key="49" vol="78" pan="0" len="96" pos="384"/>
        </pattern>
        <pattern name="Orchestra Soundfont 2 COMBO" muted="0" type="1" steps="16" pos="37632">
          <note key="47" vol="78" pan="0" len="24" pos="0"/>
          <note key="52" vol="78" pan="0" len="24" pos="24"/>
          <note key="56" vol="78" pan="0" len="24" pos="48"/>
          <note key="59" vol="78" pan="0" len="48" pos="72"/>
          <note key="56" vol="78" pan="0" len="24" pos="120"/>
          <note key="59" vol="78" pan="0" len="24" pos="144"/>
          <note key="63" vol="78" pan="0" len="24" pos="168"/>
          <note key="61" vol="78" pan="0" len="24" pos="192"/>
          <note key="56" vol="78" pan="0" len="24" pos="216"/>
          <note key="52" vol="78" pan="0" len="24" pos="240"/>
          <note key="49" vol="78" pan="0" len="24" pos="264"/>
          <note key="54" vol="78" pan="0" len="24" pos="288"/>
          <note key="52" vol="78" pan="0" len="24" pos="312"/>
          <note key="56" vol="78" pan="0" len="24" pos="336"/>
          <note key="52" vol="78" pan="0" len="24" pos="360"/>
          <note key="57" vol="78" pan="0" len="120" pos="384"/>
          <note key="56" vol="78" pan="0" len="24" pos="504"/>
          <note key="57" vol="78" pan="0" len="24" pos="528"/>
          <note key="59" vol="78" pan="0" len="24" pos="552"/>
          <note key="61" vol="78" pan="0" len="72" pos="576"/>
          <note key="59" vol="78" pan="0" len="72" pos="648"/>
          <note key="57" vol="78" pan="0" len="48" pos="720"/>
          <note key="56" vol="78" pan="0" len="24" pos="768"/>
          <note key="57" vol="78" pan="0" len="24" pos="792"/>
          <note key="56" vol="78" pan="0" len="24" pos="816"/>
          <note key="52" vol="78" pan="0" len="48" pos="840"/>
          <note key="52" vol="78" pan="0" len="24" pos="888"/>
          <note key="54" vol="78" pan="0" len="24" pos="912"/>
          <note key="56" vol="78" pan="0" len="24" pos="936"/>
          <note key="54" vol="78" pan="0" len="96" pos="960"/>
          <note key="51" vol="78" pan="0" len="48" pos="1056"/>
          <note key="56" vol="78" pan="0" len="48" pos="1104"/>
          <note key="44" vol="78" pan="0" len="24" pos="1152"/>
          <note key="42" vol="78" pan="0" len="24" pos="1176"/>
          <note key="44" vol="78" pan="0" len="24" pos="1200"/>
          <note key="49" vol="78" pan="0" len="24" pos="1224"/>
          <note key="52" vol="78" pan="0" len="48" pos="1248"/>
          <note key="51" vol="78" pan="0" len="24" pos="1296"/>
          <note key="49" vol="78" pan="0" len="24" pos="1320"/>
          <note key="56" vol="78" pan="0" len="24" pos="1344"/>
          <note key="54" vol="78" pan="0" len="24" pos="1368"/>
          <note key="52" vol="78" pan="0" len="24" pos="1392"/>
          <note key="51" vol="78" pan="0" len="24" pos="1416"/>
          <note key="49" vol="78" pan="0" len="24" pos="1440"/>
          <note key="51" vol="78" pan="0" len="24" pos="1464"/>
          <note key="52" vol="78" pan="0" len="24" pos="1488"/>
          <note key="56" vol="78" pan="0" len="24" pos="1512"/>
          <note key="58" vol="78" pan="0" len="48" pos="1536"/>
          <note key="54" vol="78" pan="0" len="48" pos="1584"/>
          <note key="51" vol="78" pan="0" len="48" pos="1632"/>
          <note key="46" vol="78" pan="0" len="48" pos="1680"/>
          <note key="45" vol="78" pan="0" len="24" pos="1728"/>
          <note key="49" vol="78" pan="0" len="24" pos="1752"/>
          <note key="51" vol="78" pan="0" len="24" pos="1776"/>
          <note key="54" vol="78" pan="0" len="24" pos="1800"/>
          <note key="57" vol="78" pan="0" len="24" pos="1824"/>
          <note key="61" vol="78" pan="0" len="24" pos="1848"/>
          <note key="63" vol="78" pan="0" len="24" pos="1872"/>
          <note key="66" vol="78" pan="0" len="24" pos="1896"/>
        </pattern>
        <pattern name="Orchestra Soundfont 2 COMBO" muted="0" type="1" steps="16" pos="44160">
          <note key="49" vol="78" pan="0" len="24" pos="0"/>
          <note key="56" vol="78" pan="0" len="12" pos="24"/>
          <note key="49" vol="78" pan="0" len="24" pos="48"/>
          <note key="56" vol="78" pan="0" len="12" pos="72"/>
          <note key="56" vol="78" pan="0" len="12" pos="120"/>
          <note key="49" vol="78" pan="0" len="24" pos="144"/>
          <note key="56" vol="78" pan="0" len="12" pos="168"/>
          <note key="56" vol="78" pan="0" len="12" pos="192"/>
          <note key="61" vol="78" pan="0" len="24" pos="216"/>
          <note key="56" vol="78" pan="0" len="12" pos="240"/>
          <note key="56" vol="78" pan="0" len="12" pos="264"/>
          <note key="49" vol="78" pan="0" len="24" pos="288"/>
          <note key="52" vol="78" pan="0" len="24" pos="312"/>
          <note key="56" vol="78" pan="0" len="24" pos="336"/>
          <note key="61" vol="78" pan="0" len="24" pos="360"/>
          <note key="44" vol="78" pan="0" len="24" pos="384"/>
          <note key="47" vol="78" pan="0" len="24" pos="408"/>
          <note key="44" vol="78" pan="0" len="24" pos="432"/>
          <note key="51" vol="78" pan="0" len="48" pos="456"/>
          <note key="44" vol="78" pan="0" len="24" pos="504"/>
          <note key="47" vol="78" pan="0" len="24" pos="528"/>
          <note key="51" vol="78" pan="0" len="24" pos="552"/>
          <note key="52" vol="78" pan="0" len="24" pos="576"/>
          <note key="51" vol="78" pan="0" len="24" pos="600"/>
          <note key="49" vol="78" pan="0" len="24" pos="624"/>
          <note key="47" vol="78" pan="0" len="24" pos="648"/>
          <note key="51" vol="78" pan="0" len="24" pos="672"/>
          <note key="49" vol="78" pan="0" len="24" pos="696"/>
          <note key="47" vol="78" pan="0" len="24" pos="720"/>
          <note key="44" vol="78" pan="0" len="24" pos="744"/>
          <note key="49" vol="78" pan="0" len="24" pos="768"/>
          <note key="56" vol="78" pan="0" len="12" pos="792"/>
          <note key="56" vol="78" pan="0" len="12" pos="816"/>
          <note key="61" vol="78" pan="0" len="24" pos="840"/>
          <note key="56" vol="78" pan="0" len="12" pos="864"/>
          <note key="56" vol="78" pan="0" len="12" pos="888"/>
          <note key="49" vol="78" pan="0" len="24" pos="912"/>
          <note key="56" vol="78" pan="0" len="12" pos="936"/>
          <note key="56" vol="78" pan="0" len="12" pos="960"/>
          <note key="61" vol="78" pan="0" len="24" pos="984"/>
          <note key="56" vol="78" pan="0" len="12" pos="1008"/>
          <note key="57" vol="78" pan="0" len="24" pos="1032"/>
          <note key="49" vol="78" pan="0" len="24" pos="1056"/>
          <note key="52" vol="78" pan="0" len="24" pos="1080"/>
          <note key="56" vol="78" pan="0" len="24" pos="1104"/>
          <note key="61" vol="78" pan="0" len="24" pos="1128"/>
          <note key="47" vol="78" pan="0" len="24" pos="1152"/>
          <note key="52" vol="78" pan="0" len="24" pos="1176"/>
          <note key="56" vol="78" pan="0" len="24" pos="1200"/>
          <note key="59" vol="78" pan="0" len="48" pos="1224"/>
          <note key="56" vol="78" pan="0" len="24" pos="1272"/>
          <note key="59" vol="78" pan="0" len="24" pos="1296"/>
          <note key="63" vol="78" pan="0" len="24" pos="1320"/>
          <note key="61" vol="78" pan="0" len="24" pos="1344"/>
          <note key="56" vol="78" pan="0" len="24" pos="1368"/>
          <note key="52" vol="78" pan="0" len="24" pos="1392"/>
          <note key="49" vol="78" pan="0" len="24" pos="1416"/>
          <note key="54" vol="78" pan="0" len="24" pos="1440"/>
          <note key="52" vol="78" pan="0" len="24" pos="1464"/>
          <note key="56" vol="78" pan="0" len="24" pos="1488"/>
          <note key="52" vol="78" pan="0" len="24" pos="1512"/>
          <note key="57" vol="78" pan="0" len="96" pos="1536"/>
          <note key="57" vol="78" pan="0" len="24" pos="1632"/>
          <note key="56" vol="78" pan="0" len="24" pos="1656"/>
          <note key="57" vol="78" pan="0" len="24" pos="1680"/>
          <note key="59" vol="78" pan="0" len="24" pos="1704"/>
          <note key="61" vol="78" pan="0" len="72" pos="1728"/>
          <note key="59" vol="78" pan="0" len="72" pos="1800"/>
          <note key="57" vol="78" pan="0" len="48" pos="1872"/>
          <note key="56" vol="78" pan="0" len="24" pos="1920"/>
          <note key="57" vol="78" pan="0" len="24" pos="1944"/>
          <note key="56" vol="78" pan="0" len="24" pos="1968"/>
          <note key="52" vol="78" pan="0" len="48" pos="1992"/>
          <note key="52" vol="78" pan="0" len="24" pos="2040"/>
          <note key="54" vol="78" pan="0" len="24" pos="2064"/>
          <note key="56" vol="78" pan="0" len="24" pos="2088"/>
          <note key="54" vol="78" pan="0" len="96" pos="2112"/>
          <note key="51" vol="78" pan="0" len="48" pos="2208"/>
          <note key="56" vol="78" pan="0" len="48" pos="2256"/>
          <note key="44" vol="78" pan="0" len="24" pos="2304"/>
          <note key="42" vol="78" pan="0" len="24" pos="2328"/>
          <note key="44" vol="78" pan="0" len="24" pos="2352"/>
          <note key="49" vol="78" pan="0" len="24" pos="2376"/>
          <note key="52" vol="78" pan="0" len="48" pos="2400"/>
          <note key="51" vol="78" pan="0" len="24" pos="2448"/>
          <note key="49" vol="78" pan="0" len="24" pos="2472"/>
          <note key="56" vol="78" pan="0" len="24" pos="2496"/>
          <note key="54" vol="78" pan="0" len="24" pos="2520"/>
          <note key="52" vol="78" pan="0" len="24" pos="2544"/>
          <note key="51" vol="78" pan="0" len="24" pos="2568"/>
          <note key="49" vol="78" pan="0" len="24" pos="2592"/>
          <note key="51" vol="78" pan="0" len="24" pos="2616"/>
          <note key="52" vol="78" pan="0" len="24" pos="2640"/>
          <note key="56" vol="78" pan="0" len="24" pos="2664"/>
          <note key="58" vol="78" pan="0" len="48" pos="2688"/>
          <note key="54" vol="78" pan="0" len="48" pos="2736"/>
          <note key="51" vol="78" pan="0" len="48" pos="2784"/>
          <note key="46" vol="78" pan="0" len="48" pos="2832"/>
          <note key="45" vol="78" pan="0" len="24" pos="2880"/>
          <note key="49" vol="78" pan="0" len="24" pos="2904"/>
          <note key="51" vol="78" pan="0" len="24" pos="2928"/>
          <note key="54" vol="78" pan="0" len="24" pos="2952"/>
          <note key="57" vol="78" pan="0" len="24" pos="2976"/>
          <note key="61" vol="78" pan="0" len="24" pos="3000"/>
          <note key="63" vol="78" pan="0" len="24" pos="3024"/>
          <note key="66" vol="78" pan="0" len="24" pos="3048"/>
          <note key="49" vol="78" pan="0" len="144" pos="3072"/>
          <note key="45" vol="78" pan="0" len="48" pos="3216"/>
          <note key="47" vol="78" pan="0" len="96" pos="3264"/>
          <note key="51" vol="78" pan="0" len="96" pos="3360"/>
          <note key="49" vol="78" pan="0" len="48" pos="3456"/>
          <note key="44" vol="78" pan="0" len="48" pos="3504"/>
          <note key="40" vol="78" pan="0" len="48" pos="3552"/>
          <note key="44" vol="78" pan="0" len="48" pos="3600"/>
          <note key="42" vol="78" pan="0" len="48" pos="3648"/>
          <note key="51" vol="78" pan="0" len="48" pos="3696"/>
          <note key="51" vol="78" pan="0" len="24" pos="3744"/>
          <note key="52" vol="78" pan="0" len="24" pos="3768"/>
          <note key="54" vol="78" pan="0" len="24" pos="3792"/>
          <note key="51" vol="78" pan="0" len="24" pos="3816"/>
          <note key="52" vol="78" pan="0" len="96" pos="3840"/>
          <note key="51" vol="78" pan="0" len="48" pos="3936"/>
          <note key="47" vol="78" pan="0" len="48" pos="3984"/>
          <note key="49" vol="78" pan="0" len="48" pos="4032"/>
          <note key="52" vol="78" pan="0" len="48" pos="4080"/>
          <note key="54" vol="78" pan="0" len="48" pos="4128"/>
          <note key="49" vol="78" pan="0" len="48" pos="4176"/>
          <note key="54" vol="78" pan="0" len="48" pos="4224"/>
          <note key="52" vol="78" pan="0" len="48" pos="4272"/>
          <note key="51" vol="78" pan="0" len="48" pos="4320"/>
          <note key="54" vol="78" pan="0" len="48" pos="4368"/>
          <note key="52" vol="78" pan="0" len="24" pos="4416"/>
          <note key="54" vol="78" pan="0" len="24" pos="4440"/>
          <note key="52" vol="78" pan="0" len="24" pos="4464"/>
          <note key="51" vol="78" pan="0" len="24" pos="4488"/>
          <note key="49" vol="78" pan="0" len="24" pos="4512"/>
          <note key="44" vol="78" pan="0" len="24" pos="4536"/>
          <note key="45" vol="78" pan="0" len="24" pos="4560"/>
          <note key="48" vol="78" pan="0" len="24" pos="4584"/>
          <note key="51" vol="78" pan="0" len="48" pos="4608"/>
          <note key="52" vol="78" pan="0" len="48" pos="4656"/>
          <note key="54" vol="78" pan="0" len="48" pos="4704"/>
          <note key="56" vol="78" pan="0" len="48" pos="4752"/>
          <note key="59" vol="78" pan="0" len="48" pos="4800"/>
          <note key="56" vol="78" pan="0" len="48" pos="4848"/>
          <note key="51" vol="78" pan="0" len="48" pos="4896"/>
          <note key="56" vol="78" pan="0" len="48" pos="4944"/>
          <note key="59" vol="78" pan="0" len="48" pos="4992"/>
          <note key="56" vol="78" pan="0" len="48" pos="5040"/>
          <note key="52" vol="78" pan="0" len="48" pos="5088"/>
          <note key="49" vol="78" pan="0" len="48" pos="5136"/>
          <note key="45" vol="78" pan="0" len="24" pos="5184"/>
          <note key="44" vol="78" pan="0" len="24" pos="5208"/>
          <note key="45" vol="78" pan="0" len="24" pos="5232"/>
          <note key="47" vol="78" pan="0" len="24" pos="5256"/>
          <note key="49" vol="78" pan="0" len="24" pos="5280"/>
          <note key="52" vol="78" pan="0" len="24" pos="5304"/>
          <note key="54" vol="78" pan="0" len="24" pos="5328"/>
          <note key="56" vol="78" pan="0" len="24" pos="5352"/>
          <note key="54" vol="78" pan="0" len="72" pos="5376"/>
          <note key="59" vol="78" pan="0" len="24" pos="5448"/>
          <note key="56" vol="78" pan="0" len="48" pos="5472"/>
          <note key="52" vol="78" pan="0" len="24" pos="5520"/>
          <note key="54" vol="78" pan="0" len="24" pos="5544"/>
          <note key="57" vol="78" pan="0" len="48" pos="5568"/>
          <note key="56" vol="78" pan="0" len="48" pos="5616"/>
          <note key="52" vol="78" pan="0" len="48" pos="5664"/>
          <note key="56" vol="78" pan="0" len="48" pos="5712"/>
          <note key="54" vol="78" pan="0" len="192" pos="5760"/>
          <note key="51" vol="78" pan="0" len="24" pos="5952"/>
          <note key="51" vol="78" pan="0" len="24" pos="5976"/>
          <note key="47" vol="78" pan="0" len="24" pos="6048"/>
          <note key="47" vol="78" pan="0" len="24" pos="6072"/>
          <note key="49" vol="78" pan="0" len="336" pos="6144"/>
          <note key="52" vol="78" pan="0" len="48" pos="6480"/>
          <note key="51" vol="78" pan="0" len="288" pos="6528"/>
          <note key="44" vol="78" pan="0" len="48" pos="6816"/>
          <note key="47" vol="78" pan="0" len="48" pos="6864"/>
          <note key="49" vol="78" pan="0" len="240" pos="6912"/>
          <note key="47" vol="78" pan="0" len="48" pos="7152"/>
          <note key="49" vol="78" pan="0" len="48" pos="7200"/>
          <note key="56" vol="78" pan="0" len="48" pos="7248"/>
          <note key="54" vol="78" pan="0" len="192" pos="7296"/>
          <note key="57" vol="78" pan="0" len="48" pos="7488"/>
          <note key="56" vol="78" pan="0" len="24" pos="7536"/>
          <note key="56" vol="78" pan="0" len="12" pos="7560"/>
          <note key="57" vol="78" pan="0" len="12" pos="7568"/>
          <note key="56" vol="78" pan="0" len="12" pos="7576"/>
          <note key="54" vol="78" pan="0" len="48" pos="7584"/>
          <note key="56" vol="78" pan="0" len="48" pos="7632"/>
          <note key="52" vol="78" pan="0" len="240" pos="7680"/>
          <note key="49" vol="78" pan="0" len="48" pos="7920"/>
          <note key="52" vol="78" pan="0" len="48" pos="7968"/>
          <note key="56" vol="78" pan="0" len="48" pos="8016"/>
          <note key="56" vol="78" pan="0" len="192" pos="8064"/>
          <note key="54" vol="78" pan="0" len="144" pos="8256"/>
          <note key="56" vol="78" pan="0" len="48" pos="8400"/>
          <note key="49" vol="78" pan="0" len="240" pos="8448"/>
          <note key="44" vol="78" pan="0" len="48" pos="8688"/>
          <note key="49" vol="78" pan="0" len="48" pos="8736"/>
          <note key="56" vol="78" pan="0" len="48" pos="8784"/>
          <note key="61" vol="78" pan="0" len="192" pos="8832"/>
          <note key="60" vol="78" pan="0" len="192" pos="9024"/>
        </pattern>
      </track>
      <track name="Violin" muted="1" type="0" solo="0">
        <instrumenttrack vol="100" pitch="0" pitchrange="2" basenote="57" pan="0" fxch="0" usemasterpitch="1">
          <instrument name="sf2player">
            <sf2player chorusOn="0" reverbRoomSize="0.2" chorusLevel="2" src="/home/huggypie/samples/soundfonts/Mystery Dungeon.sf2" gain="1" reverbDamping="0" chorusSpeed="0.3" reverbWidth="0.5" reverbLevel="0.9" bank="0" reverbOn="0" patch="15" chorusDepth="8" chorusNum="3"/>
          </instrument>
          <eldata ftype="0" fres="0.5" fwet="0" fcut="14000">
            <elvol dec="0.5" sustain="0.5" pdel="0" lpdel="0" rel="0.1" lspd="0.1" userwavefile="" hold="0.5" lamt="0" lspd_numerator="4" lspd_syncmode="0" lshp="0" amt="0" x100="0" latt="0" lspd_denominator="4" ctlenvamt="0" att="0"/>
            <elcut dec="0.5" sustain="0.5" pdel="0" lpdel="0" rel="0.1" lspd="0.1" userwavefile="" hold="0.5" lamt="0" lspd_numerator="4" lspd_syncmode="0" lshp="0" amt="0" x100="0" latt="0" lspd_denominator="4" ctlenvamt="0" att="0"/>
            <elres dec="0.5" sustain="0.5" pdel="0" lpdel="0" rel="0.1" lspd="0.1" userwavefile="" hold="0.5" lamt="0" lspd_numerator="4" lspd_syncmode="0" lshp="0" amt="0" x100="0" latt="0" lspd_denominator="4" ctlenvamt="0" att="0"/>
          </eldata>
          <chordcreator chord="0" chord-enabled="0" chordrange="1"/>
          <arpeggiator arprange="1" arptime_denominator="4" arpgate="100" arptime_syncmode="0" arp="0" arpmode="0" arpmiss="0" arpdir="0" arptime_numerator="4" arp-enabled="0" arpcycle="0" arpskip="0" arptime="200"/>
          <midiport outputchannel="1" inputcontroller="0" outputcontroller="0" basevelocity="63" fixedinputvelocity="-1" fixedoutputvelocity="-1" outputprogram="1" readable="0" writable="0" fixedoutputnote="-1" inputchannel="0"/>
          <fxchain numofeffects="0" enabled="0"/>
        </instrumenttrack>
        <pattern name="Violin" muted="0" type="1" steps="16" pos="0">
          <note key="61" vol="78" pan="0" len="384" pos="0"/>
          <note key="68" vol="78" pan="0" len="192" pos="192"/>
          <note key="64" vol="78" pan="0" len="384" pos="384"/>
          <note key="61" vol="78" pan="0" len="384" pos="384"/>
          <note key="52" vol="78" pan="0" len="384" pos="384"/>
          <note key="63" vol="78" pan="0" len="384" pos="768"/>
          <note key="59" vol="78" pan="0" len="384" pos="768"/>
          <note key="56" vol="78" pan="0" len="384" pos="768"/>
          <note key="61" vol="78" pan="0" len="384" pos="1152"/>
          <note key="56" vol="78" pan="0" len="384" pos="1152"/>
          <note key="49" vol="78" pan="0" len="384" pos="1152"/>
          <note key="59" vol="78" pan="0" len="384" pos="1536"/>
          <note key="57" vol="78" pan="0" len="384" pos="1536"/>
          <note key="49" vol="78" pan="0" len="384" pos="1536"/>
          <note key="64" vol="78" pan="0" len="24" pos="1920"/>
          <note key="56" vol="78" pan="0" len="24" pos="1920"/>
          <note key="64" vol="78" pan="0" len="24" pos="1992"/>
          <note key="56" vol="78" pan="0" len="24" pos="1992"/>
          <note key="64" vol="78" pan="0" len="24" pos="2064"/>
          <note key="56" vol="78" pan="0" len="24" pos="2064"/>
          <note key="64" vol="78" pan="0" len="24" pos="2136"/>
          <note key="56" vol="78" pan="0" len="24" pos="2136"/>
          <note key="64" vol="78" pan="0" len="24" pos="2208"/>
          <note key="56" vol="78" pan="0" len="24" pos="2208"/>
          <note key="64" vol="78" pan="0" len="24" pos="2232"/>
          <note key="56" vol="78" pan="0" len="24" pos="2232"/>
          <note key="64" vol="78" pan="0" len="24" pos="2280"/>
          <note key="56" vol="78" pan="0" len="24" pos="2280"/>
          <note key="63" vol="78" pan="0" len="24" pos="2304"/>
          <note key="56" vol="78" pan="0" len="24" pos="2304"/>
          <note key="63" vol="78" pan="0" len="24" pos="2376"/>
          <note key="56" vol="78" pan="0" len="24" pos="2376"/>
          <note key="63" vol="78" pan="0" len="24" pos="2448"/>
          <note key="56" vol="78" pan="0" len="24" pos="2448"/>
          <note key="63" vol="78" pan="0" len="24" pos="2520"/>
          <note key="56" vol="78" pan="0" len="24" pos="2520"/>
          <note key="63" vol="78" pan="0" len="24" pos="2592"/>
          <note key="56" vol="78" pan="0" len="24" pos="2592"/>
          <note key="63" vol="78" pan="0" len="24" pos="2616"/>
          <note key="56" vol="78" pan="0" len="24" pos="2616"/>
          <note key="63" vol="78" pan="0" len="24" pos="2664"/>
          <note key="56" vol="78" pan="0" len="24" pos="2664"/>
          <note key="61" vol="78" pan="0" len="24" pos="2688"/>
          <note key="58" vol="78" pan="0" len="24" pos="2688"/>
          <note key="61" vol="78" pan="0" len="24" pos="2760"/>
          <note key="58" vol="78" pan="0" len="24" pos="2760"/>
          <note key="61" vol="78" pan="0" len="24" pos="2832"/>
          <note key="58" vol="78" pan="0" len="24" pos="2832"/>
          <note key="61" vol="78" pan="0" len="24" pos="2904"/>
          <note key="58" vol="78" pan="0" len="24" pos="2904"/>
          <note key="61" vol="78" pan="0" len="24" pos="2976"/>
          <note key="58" vol="78" pan="0" len="24" pos="2976"/>
          <note key="61" vol="78" pan="0" len="24" pos="3000"/>
          <note key="58" vol="78" pan="0" len="24" pos="3000"/>
          <note key="61" vol="78" pan="0" len="24" pos="3048"/>
          <note key="58" vol="78" pan="0" len="24" pos="3048"/>
          <note key="61" vol="78" pan="0" len="24" pos="3072"/>
          <note key="57" vol="78" pan="0" len="24" pos="3072"/>
          <note key="61" vol="78" pan="0" len="24" pos="3144"/>
          <note key="57" vol="78" pan="0" len="24" pos="3144"/>
          <note key="61" vol="78" pan="0" len="24" pos="3216"/>
          <note key="57" vol="78" pan="0" len="24" pos="3216"/>
          <note key="69" vol="78" pan="0" len="192" pos="3264"/>
          <note key="61" vol="78" pan="0" len="192" pos="3456"/>
          <note key="61" vol="78" pan="0" len="192" pos="3648"/>
          <note key="61" vol="78" pan="0" len="192" pos="3840"/>
          <note key="59" vol="78" pan="0" len="192" pos="4032"/>
          <note key="61" vol="78" pan="0" len="192" pos="4224"/>
          <note key="61" vol="78" pan="0" len="192" pos="4416"/>
          <note key="61" vol="78" pan="0" len="192" pos="4608"/>
          <note key="59" vol="78" pan="0" len="192" pos="4800"/>
        </pattern>
        <pattern name="Violin" muted="0" type="1" steps="16" pos="11136">
          <note key="59" vol="78" pan="0" len="384" pos="0"/>
          <note key="54" vol="78" pan="0" len="384" pos="0"/>
          <note key="61" vol="78" pan="0" len="384" pos="384"/>
          <note key="56" vol="78" pan="0" len="384" pos="384"/>
          <note key="61" vol="78" pan="0" len="384" pos="768"/>
          <note key="57" vol="78" pan="0" len="384" pos="768"/>
          <note key="63" vol="78" pan="0" len="384" pos="1152"/>
          <note key="59" vol="78" pan="0" len="384" pos="1152"/>
          <note key="61" vol="78" pan="0" len="384" pos="1536"/>
          <note key="56" vol="78" pan="0" len="384" pos="1536"/>
          <note key="52" vol="78" pan="0" len="384" pos="1536"/>
          <note key="59" vol="78" pan="0" len="384" pos="1920"/>
          <note key="54" vol="78" pan="0" len="192" pos="1920"/>
          <note key="51" vol="78" pan="0" len="192" pos="1920"/>
          <note key="52" vol="78" pan="0" len="96" pos="2112"/>
          <note key="47" vol="78" pan="0" len="192" pos="2112"/>
          <note key="54" vol="78" pan="0" len="96" pos="2208"/>
          <note key="61" vol="78" pan="0" len="384" pos="2304"/>
          <note key="56" vol="78" pan="0" len="384" pos="2304"/>
          <note key="52" vol="78" pan="0" len="384" pos="2304"/>
          <note key="66" vol="78" pan="0" len="384" pos="2688"/>
          <note key="59" vol="78" pan="0" len="384" pos="2688"/>
          <note key="54" vol="78" pan="0" len="384" pos="2688"/>
          <note key="61" vol="78" pan="0" len="24" pos="3072"/>
          <note key="57" vol="78" pan="0" len="24" pos="3072"/>
          <note key="61" vol="78" pan="0" len="24" pos="3120"/>
          <note key="57" vol="78" pan="0" len="24" pos="3120"/>
          <note key="61" vol="78" pan="0" len="24" pos="3168"/>
          <note key="57" vol="78" pan="0" len="24" pos="3168"/>
          <note key="61" vol="78" pan="0" len="24" pos="3216"/>
          <note key="57" vol="78" pan="0" len="24" pos="3216"/>
          <note key="61" vol="78" pan="0" len="24" pos="3264"/>
          <note key="57" vol="78" pan="0" len="24" pos="3264"/>
          <note key="61" vol="78" pan="0" len="24" pos="3312"/>
          <note key="57" vol="78" pan="0" len="24" pos="3312"/>
          <note key="61" vol="78" pan="0" len="24" pos="3360"/>
          <note key="57" vol="78" pan="0" len="24" pos="3360"/>
          <note key="61" vol="78" pan="0" len="24" pos="3408"/>
          <note key="57" vol="78" pan="0" len="24" pos="3408"/>
          <note key="61" vol="78" pan="0" len="24" pos="3456"/>
          <note key="56" vol="78" pan="0" len="24" pos="3456"/>
          <note key="52" vol="78" pan="0" len="24" pos="3456"/>
          <note key="61" vol="78" pan="0" len="24" pos="3504"/>
          <note key="56" vol="78" pan="0" len="24" pos="3504"/>
          <note key="52" vol="78" pan="0" len="24" pos="3504"/>
          <note key="61" vol="78" pan="0" len="24" pos="3552"/>
          <note key="56" vol="78" pan="0" len="24" pos="3552"/>
          <note key="52" vol="78" pan="0" len="24" pos="3552"/>
          <note key="61" vol="78" pan="0" len="24" pos="3600"/>
          <note key="56" vol="78" pan="0" len="24" pos="3600"/>
          <note key="52" vol="78" pan="0" len="24" pos="3600"/>
          <note key="61" vol="78" pan="0" len="24" pos="3648"/>
          <note key="56" vol="78" pan="0" len="24" pos="3648"/>
          <note key="51" vol="78" pan="0" len="24" pos="3648"/>
          <note key="61" vol="78" pan="0" len="24" pos="3696"/>
          <note key="56" vol="78" pan="0" len="24" pos="3696"/>
          <note key="51" vol="78" pan="0" len="24" pos="3696"/>
          <note key="61" vol="78" pan="0" len="24" pos="3744"/>
          <note key="56" vol="78" pan="0" len="24" pos="3744"/>
          <note key="51" vol="78" pan="0" len="24" pos="3744"/>
          <note key="61" vol="78" pan="0" len="24" pos="3792"/>
          <note key="56" vol="78" pan="0" len="24" pos="3792"/>
          <note key="51" vol="78" pan="0" len="24" pos="3792"/>
        </pattern>
        <pattern name="Violin" muted="0" type="1" steps="16" pos="18816">
          <note key="59" vol="78" pan="0" len="384" pos="0"/>
          <note key="54" vol="78" pan="0" len="384" pos="0"/>
          <note key="61" vol="78" pan="0" len="384" pos="384"/>
          <note key="56" vol="78" pan="0" len="384" pos="384"/>
          <note key="61" vol="78" pan="0" len="384" pos="768"/>
          <note key="57" vol="78" pan="0" len="384" pos="768"/>
          <note key="63" vol="78" pan="0" len="384" pos="1152"/>
          <note key="59" vol="78" pan="0" len="384" pos="1152"/>
          <note key="59" vol="78" pan="0" len="384" pos="1536"/>
          <note key="54" vol="78" pan="0" len="384" pos="1536"/>
          <note key="61" vol="78" pan="0" len="384" pos="1920"/>
          <note key="56" vol="78" pan="0" len="384" pos="1920"/>
          <note key="61" vol="78" pan="0" len="384" pos="2304"/>
          <note key="57" vol="78" pan="0" len="384" pos="2304"/>
          <note key="63" vol="78" pan="0" len="384" pos="2688"/>
          <note key="59" vol="78" pan="0" len="384" pos="2688"/>
          <note key="56" vol="78" pan="0" len="192" pos="3072"/>
          <note key="52" vol="78" pan="0" len="192" pos="3072"/>
          <note key="54" vol="78" pan="0" len="192" pos="3264"/>
          <note key="51" vol="78" pan="0" len="192" pos="3264"/>
          <note key="56" vol="78" pan="0" len="384" pos="3456"/>
          <note key="52" vol="78" pan="0" len="384" pos="3456"/>
          <note key="49" vol="78" pan="0" len="384" pos="3456"/>
          <note key="56" vol="78" pan="0" len="192" pos="3840"/>
          <note key="49" vol="78" pan="0" len="192" pos="3840"/>
          <note key="47" vol="78" pan="0" len="192" pos="3840"/>
          <note key="54" vol="78" pan="0" len="192" pos="4032"/>
          <note key="51" vol="78" pan="0" len="192" pos="4032"/>
          <note key="47" vol="78" pan="0" len="192" pos="4032"/>
          <note key="49" vol="78" pan="0" len="384" pos="4224"/>
          <note key="47" vol="78" pan="0" len="192" pos="4224"/>
          <note key="44" vol="78" pan="0" len="384" pos="4224"/>
          <note key="56" vol="78" pan="0" len="192" pos="4608"/>
          <note key="47" vol="78" pan="0" len="192" pos="4608"/>
          <note key="57" vol="78" pan="0" len="192" pos="4800"/>
          <note key="49" vol="78" pan="0" len="192" pos="4800"/>
          <note key="59" vol="78" pan="0" len="192" pos="4992"/>
          <note key="52" vol="78" pan="0" len="192" pos="4992"/>
          <note key="64" vol="78" pan="0" len="192" pos="5184"/>
          <note key="56" vol="78" pan="0" len="192" pos="5184"/>
          <note key="61" vol="78" pan="0" len="384" pos="5376"/>
          <note key="54" vol="78" pan="0" len="384" pos="5376"/>
          <note key="61" vol="78" pan="0" len="384" pos="5760"/>
          <note key="52" vol="78" pan="0" len="384" pos="5760"/>
          <note key="68" vol="78" pan="0" len="192" pos="6144"/>
          <note key="64" vol="78" pan="0" len="192" pos="6144"/>
          <note key="66" vol="78" pan="0" len="192" pos="6336"/>
          <note key="63" vol="78" pan="0" len="192" pos="6336"/>
          <note key="68" vol="78" pan="0" len="384" pos="6528"/>
          <note key="64" vol="78" pan="0" len="384" pos="6528"/>
          <note key="61" vol="78" pan="0" len="384" pos="6528"/>
          <note key="68" vol="78" pan="0" len="192" pos="6912"/>
          <note key="61" vol="78" pan="0" len="192" pos="6912"/>
          <note key="59" vol="78" pan="0" len="192" pos="6912"/>
          <note key="66" vol="78" pan="0" len="192" pos="7104"/>
          <note key="63" vol="78" pan="0" len="192" pos="7104"/>
          <note key="59" vol="78" pan="0" len="192" pos="7104"/>
          <note key="61" vol="78" pan="0" len="384" pos="7296"/>
          <note key="58" vol="78" pan="0" len="384" pos="7296"/>
          <note key="56" vol="78" pan="0" len="384" pos="7296"/>
          <note key="68" vol="78" pan="0" len="192" pos="7680"/>
          <note key="59" vol="78" pan="0" len="192" pos="7680"/>
          <note key="69" vol="78" pan="0" len="192" pos="7872"/>
          <note key="61" vol="78" pan="0" len="192" pos="7872"/>
          <note key="71" vol="78" pan="0" len="192" pos="8064"/>
          <note key="64" vol="78" pan="0" len="192" pos="8064"/>
          <note key="76" vol="78" pan="0" len="192" pos="8256"/>
          <note key="68" vol="78" pan="0" len="192" pos="8256"/>
          <note key="73" vol="78" pan="0" len="384" pos="8448"/>
          <note key="66" vol="78" pan="0" len="384" pos="8448"/>
          <note key="73" vol="78" pan="0" len="384" pos="8832"/>
          <note key="64" vol="78" pan="0" len="384" pos="8832"/>
          <note key="68" vol="78" pan="0" len="384" pos="9216"/>
          <note key="61" vol="78" pan="0" len="384" pos="9216"/>
          <note key="49" vol="78" pan="0" len="48" pos="9216"/>
          <note key="45" vol="78" pan="0" len="48" pos="9264"/>
          <note key="47" vol="78" pan="0" len="48" pos="9312"/>
          <note key="49" vol="78" pan="0" len="48" pos="9360"/>
          <note key="51" vol="78" pan="0" len="48" pos="9408"/>
          <note key="52" vol="78" pan="0" len="48" pos="9456"/>
          <note key="51" vol="78" pan="0" len="48" pos="9504"/>
          <note key="47" vol="78" pan="0" len="48" pos="9552"/>
          <note key="68" vol="78" pan="0" len="384" pos="9600"/>
          <note key="61" vol="78" pan="0" len="384" pos="9600"/>
          <note key="49" vol="78" pan="0" len="48" pos="9600"/>
          <note key="47" vol="78" pan="0" len="48" pos="9648"/>
          <note key="49" vol="78" pan="0" len="48" pos="9696"/>
          <note key="51" vol="78" pan="0" len="48" pos="9744"/>
          <note key="56" vol="78" pan="0" len="192" pos="9792"/>
          <note key="56" vol="78" pan="0" len="192" pos="9984"/>
          <note key="52" vol="78" pan="0" len="192" pos="9984"/>
          <note key="57" vol="78" pan="0" len="192" pos="10176"/>
          <note key="54" vol="78" pan="0" len="192" pos="10176"/>
          <note key="59" vol="78" pan="0" len="192" pos="10368"/>
          <note key="56" vol="78" pan="0" len="192" pos="10368"/>
          <note key="54" vol="78" pan="0" len="192" pos="10560"/>
          <note key="49" vol="78" pan="0" len="192" pos="10560"/>
          <note key="56" vol="78" pan="0" len="192" pos="10752"/>
          <note key="52" vol="78" pan="0" len="192" pos="10752"/>
          <note key="57" vol="78" pan="0" len="192" pos="10944"/>
          <note key="54" vol="78" pan="0" len="192" pos="10944"/>
          <note key="59" vol="78" pan="0" len="192" pos="11136"/>
          <note key="56" vol="78" pan="0" len="192" pos="11136"/>
          <note key="54" vol="78" pan="0" len="192" pos="11328"/>
          <note key="51" vol="78" pan="0" len="192" pos="11328"/>
          <note key="54" vol="78" pan="0" len="192" pos="11520"/>
          <note key="49" vol="78" pan="0" len="192" pos="11520"/>
          <note key="61" vol="78" pan="0" len="192" pos="11712"/>
          <note key="56" vol="78" pan="0" len="192" pos="11712"/>
          <note key="59" vol="78" pan="0" len="192" pos="11904"/>
          <note key="54" vol="78" pan="0" len="192" pos="11904"/>
          <note key="57" vol="78" pan="0" len="192" pos="12096"/>
          <note key="52" vol="78" pan="0" len="192" pos="12096"/>
          <note key="56" vol="78" pan="0" len="384" pos="12288"/>
          <note key="51" vol="78" pan="0" len="384" pos="12288"/>
          <note key="56" vol="78" pan="0" len="384" pos="12672"/>
          <note key="47" vol="78" pan="0" len="384" pos="12672"/>
          <note key="56" vol="78" pan="0" len="192" pos="13056"/>
          <note key="52" vol="78" pan="0" len="192" pos="13056"/>
          <note key="57" vol="78" pan="0" len="192" pos="13248"/>
          <note key="54" vol="78" pan="0" len="192" pos="13248"/>
          <note key="59" vol="78" pan="0" len="192" pos="13440"/>
          <note key="56" vol="78" pan="0" len="192" pos="13440"/>
          <note key="54" vol="78" pan="0" len="192" pos="13632"/>
          <note key="49" vol="78" pan="0" len="192" pos="13632"/>
          <note key="56" vol="78" pan="0" len="192" pos="13824"/>
          <note key="52" vol="78" pan="0" len="192" pos="13824"/>
          <note key="57" vol="78" pan="0" len="192" pos="14016"/>
          <note key="54" vol="78" pan="0" len="192" pos="14016"/>
          <note key="59" vol="78" pan="0" len="192" pos="14208"/>
          <note key="56" vol="78" pan="0" len="192" pos="14208"/>
          <note key="54" vol="78" pan="0" len="192" pos="14400"/>
          <note key="51" vol="78" pan="0" len="192" pos="14400"/>
          <note key="54" vol="78" pan="0" len="192" pos="14592"/>
          <note key="49" vol="78" pan="0" len="192" pos="14592"/>
          <note key="61" vol="78" pan="0" len="192" pos="14784"/>
          <note key="56" vol="78" pan="0" len="192" pos="14784"/>
          <note key="59" vol="78" pan="0" len="192" pos="14976"/>
          <note key="54" vol="78" pan="0" len="192" pos="14976"/>
          <note key="57" vol="78" pan="0" len="192" pos="15168"/>
          <note key="52" vol="78" pan="0" len="192" pos="15168"/>
          <note key="56" vol="78" pan="0" len="384" pos="15360"/>
          <note key="51" vol="78" pan="0" len="384" pos="15360"/>
          <note key="56" vol="78" pan="0" len="192" pos="15744"/>
          <note key="47" vol="78" pan="0" len="192" pos="15744"/>
          <note key="61" vol="78" pan="0" len="192" pos="16128"/>
          <note key="61" vol="78" pan="0" len="192" pos="16320"/>
          <note key="61" vol="78" pan="0" len="192" pos="16512"/>
          <note key="59" vol="78" pan="0" len="192" pos="16704"/>
          <note key="61" vol="78" pan="0" len="192" pos="16896"/>
          <note key="61" vol="78" pan="0" len="192" pos="17088"/>
          <note key="61" vol="78" pan="0" len="192" pos="17280"/>
          <note key="59" vol="78" pan="0" len="192" pos="17472"/>
        </pattern>
        <pattern name="Violin" muted="0" type="1" steps="16" pos="42624">
          <note key="59" vol="78" pan="0" len="384" pos="0"/>
          <note key="54" vol="78" pan="0" len="384" pos="0"/>
          <note key="61" vol="78" pan="0" len="384" pos="384"/>
          <note key="56" vol="78" pan="0" len="384" pos="384"/>
          <note key="61" vol="78" pan="0" len="384" pos="768"/>
          <note key="57" vol="78" pan="0" len="384" pos="768"/>
          <note key="63" vol="78" pan="0" len="384" pos="1152"/>
          <note key="59" vol="78" pan="0" len="384" pos="1152"/>
          <note key="61" vol="78" pan="0" len="384" pos="1536"/>
          <note key="56" vol="78" pan="0" len="384" pos="1536"/>
          <note key="52" vol="78" pan="0" len="384" pos="1536"/>
          <note key="59" vol="78" pan="0" len="384" pos="1920"/>
          <note key="54" vol="78" pan="0" len="192" pos="1920"/>
          <note key="51" vol="78" pan="0" len="192" pos="1920"/>
          <note key="52" vol="78" pan="0" len="96" pos="2112"/>
          <note key="47" vol="78" pan="0" len="192" pos="2112"/>
          <note key="54" vol="78" pan="0" len="96" pos="2208"/>
          <note key="61" vol="78" pan="0" len="384" pos="2304"/>
          <note key="56" vol="78" pan="0" len="384" pos="2304"/>
          <note key="52" vol="78" pan="0" len="384" pos="2304"/>
          <note key="66" vol="78" pan="0" len="384" pos="2688"/>
          <note key="59" vol="78" pan="0" len="384" pos="2688"/>
          <note key="54" vol="78" pan="0" len="384" pos="2688"/>
          <note key="61" vol="78" pan="0" len="24" pos="3072"/>
          <note key="57" vol="78" pan="0" len="24" pos="3072"/>
          <note key="61" vol="78" pan="0" len="24" pos="3120"/>
          <note key="57" vol="78" pan="0" len="24" pos="3120"/>
          <note key="61" vol="78" pan="0" len="24" pos="3168"/>
          <note key="57" vol="78" pan="0" len="24" pos="3168"/>
          <note key="61" vol="78" pan="0" len="24" pos="3216"/>
          <note key="57" vol="78" pan="0" len="24" pos="3216"/>
          <note key="61" vol="78" pan="0" len="24" pos="3264"/>
          <note key="57" vol="78" pan="0" len="24" pos="3264"/>
          <note key="61" vol="78" pan="0" len="24" pos="3312"/>
          <note key="57" vol="78" pan="0" len="24" pos="3312"/>
          <note key="61" vol="78" pan="0" len="24" pos="3360"/>
          <note key="57" vol="78" pan="0" len="24" pos="3360"/>
          <note key="61" vol="78" pan="0" len="24" pos="3408"/>
          <note key="57" vol="78" pan="0" len="24" pos="3408"/>
          <note key="61" vol="78" pan="0" len="24" pos="3456"/>
          <note key="56" vol="78" pan="0" len="24" pos="3456"/>
          <note key="52" vol="78" pan="0" len="24" pos="3456"/>
          <note key="61" vol="78" pan="0" len="24" pos="3504"/>
          <note key="56" vol="78" pan="0" len="24" pos="3504"/>
          <note key="52" vol="78" pan="0" len="24" pos="3504"/>
          <note key="61" vol="78" pan="0" len="24" pos="3552"/>
          <note key="56" vol="78" pan="0" len="24" pos="3552"/>
          <note key="52" vol="78" pan="0" len="24" pos="3552"/>
          <note key="61" vol="78" pan="0" len="24" pos="3600"/>
          <note key="56" vol="78" pan="0" len="24" pos="3600"/>
          <note key="52" vol="78" pan="0" len="24" pos="3600"/>
          <note key="61" vol="78" pan="0" len="24" pos="3648"/>
          <note key="56" vol="78" pan="0" len="24" pos="3648"/>
          <note key="51" vol="78" pan="0" len="24" pos="3648"/>
          <note key="61" vol="78" pan="0" len="24" pos="3696"/>
          <note key="56" vol="78" pan="0" len="24" pos="3696"/>
          <note key="51" vol="78" pan="0" len="24" pos="3696"/>
          <note key="61" vol="78" pan="0" len="24" pos="3744"/>
          <note key="56" vol="78" pan="0" len="24" pos="3744"/>
          <note key="51" vol="78" pan="0" len="24" pos="3744"/>
          <note key="61" vol="78" pan="0" len="24" pos="3792"/>
          <note key="56" vol="78" pan="0" len="24" pos="3792"/>
          <note key="51" vol="78" pan="0" len="24" pos="3792"/>
        </pattern>
        <pattern name="Violin" muted="0" type="1" steps="16" pos="50304">
          <note key="59" vol="78" pan="0" len="384" pos="0"/>
          <note key="54" vol="78" pan="0" len="384" pos="0"/>
          <note key="61" vol="78" pan="0" len="384" pos="384"/>
          <note key="56" vol="78" pan="0" len="384" pos="384"/>
          <note key="61" vol="78" pan="0" len="384" pos="768"/>
          <note key="57" vol="78" pan="0" len="384" pos="768"/>
          <note key="63" vol="78" pan="0" len="384" pos="1152"/>
          <note key="59" vol="78" pan="0" len="384" pos="1152"/>
          <note key="59" vol="78" pan="0" len="384" pos="1536"/>
          <note key="54" vol="78" pan="0" len="384" pos="1536"/>
          <note key="61" vol="78" pan="0" len="384" pos="1920"/>
          <note key="56" vol="78" pan="0" len="384" pos="1920"/>
          <note key="61" vol="78" pan="0" len="384" pos="2304"/>
          <note key="57" vol="78" pan="0" len="384" pos="2304"/>
          <note key="63" vol="78" pan="0" len="384" pos="2688"/>
          <note key="59" vol="78" pan="0" len="384" pos="2688"/>
          <note key="56" vol="78" pan="0" len="192" pos="3072"/>
          <note key="52" vol="78" pan="0" len="192" pos="3072"/>
          <note key="54" vol="78" pan="0" len="192" pos="3264"/>
          <note key="51" vol="78" pan="0" len="192" pos="3264"/>
          <note key="56" vol="78" pan="0" len="384" pos="3456"/>
          <note key="52" vol="78" pan="0" len="384" pos="3456"/>
          <note key="49" vol="78" pan="0" len="384" pos="3456"/>
          <note key="56" vol="78" pan="0" len="192" pos="3840"/>
          <note key="49" vol="78" pan="0" len="192" pos="3840"/>
          <note key="47" vol="78" pan="0" len="192" pos="3840"/>
          <note key="54" vol="78" pan="0" len="192" pos="4032"/>
          <note key="51" vol="78" pan="0" len="192" pos="4032"/>
          <note key="47" vol="78" pan="0" len="192" pos="4032"/>
          <note key="49" vol="78" pan="0" len="384" pos="4224"/>
          <note key="47" vol="78" pan="0" len="192" pos="4224"/>
          <note key="44" vol="78" pan="0" len="384" pos="4224"/>
          <note key="56" vol="78" pan="0" len="192" pos="4608"/>
          <note key="47" vol="78" pan="0" len="192" pos="4608"/>
          <note key="57" vol="78" pan="0" len="192" pos="4800"/>
          <note key="49" vol="78" pan="0" len="192" pos="4800"/>
          <note key="59" vol="78" pan="0" len="192" pos="4992"/>
          <note key="52" vol="78" pan="0" len="192" pos="4992"/>
          <note key="64" vol="78" pan="0" len="192" pos="5184"/>
          <note key="56" vol="78" pan="0" len="192" pos="5184"/>
          <note key="61" vol="78" pan="0" len="384" pos="5376"/>
          <note key="54" vol="78" pan="0" len="384" pos="5376"/>
          <note key="61" vol="78" pan="0" len="384" pos="5760"/>
          <note key="52" vol="78" pan="0" len="384" pos="5760"/>
          <note key="68" vol="78" pan="0" len="192" pos="6144"/>
          <note key="64" vol="78" pan="0" len="192" pos="6144"/>
          <note key="66" vol="78" pan="0" len="192" pos="6336"/>
          <note key="63" vol="78" pan="0" len="192" pos="6336"/>
          <note key="68" vol="78" pan="0" len="384" pos="6528"/>
          <note key="64" vol="78" pan="0" len="384" pos="6528"/>
          <note key="61" vol="78" pan="0" len="384" pos="6528"/>
          <note key="68" vol="78" pan="0" len="192" pos="6912"/>
          <note key="61" vol="78" pan="0" len="192" pos="6912"/>
          <note key="59" vol="78" pan="0" len="192" pos="6912"/>
          <note key="66" vol="78" pan="0" len="192" pos="7104"/>
          <note key="63" vol="78" pan="0" len="192" pos="7104"/>
          <note key="59" vol="78" pan="0" len="192" pos="7104"/>
          <note key="61" vol="78" pan="0" len="384" pos="7296"/>
          <note key="58" vol="78" pan="0" len="384" pos="7296"/>
          <note key="56" vol="78" pan="0" len="384" pos="7296"/>
          <note key="68" vol="78" pan="0" len="192" pos="7680"/>
          <note key="59" vol="78" pan="0" len="192" pos="7680"/>
          <note key="69" vol="78" pan="0" len="192" pos="7872"/>
          <note key="61" vol="78" pan="0" len="192" pos="7872"/>
          <note key="71" vol="78" pan="0" len="192" pos="8064"/>
          <note key="64" vol="78" pan="0" len="192" pos="8064"/>
          <note key="76" vol="78" pan="0" len="192" pos="8256"/>
          <note key="68" vol="78" pan="0" len="192" pos="8256"/>
          <note key="73" vol="78" pan="0" len="384" pos="8448"/>
          <note key="66" vol="78" pan="0" len="384" pos="8448"/>
          <note key="73" vol="78" pan="0" len="384" pos="8832"/>
          <note key="64" vol="78" pan="0" len="384" pos="8832"/>
          <note key="68" vol="78" pan="0" len="384" pos="9216"/>
          <note key="61" vol="78" pan="0" len="384" pos="9216"/>
          <note key="49" vol="78" pan="0" len="48" pos="9216"/>
          <note key="45" vol="78" pan="0" len="48" pos="9264"/>
          <note key="47" vol="78" pan="0" len="48" pos="9312"/>
          <note key="49" vol="78" pan="0" len="48" pos="9360"/>
          <note key="51" vol="78" pan="0" len="48" pos="9408"/>
          <note key="52" vol="78" pan="0" len="48" pos="9456"/>
          <note key="51" vol="78" pan="0" len="48" pos="9504"/>
          <note key="47" vol="78" pan="0" len="48" pos="9552"/>
          <note key="68" vol="78" pan="0" len="384" pos="9600"/>
          <note key="61" vol="78" pan="0" len="384" pos="9600"/>
          <note key="49" vol="78" pan="0" len="48" pos="9600"/>
          <note key="47" vol="78" pan="0" len="48" pos="9648"/>
          <note key="49" vol="78" pan="0" len="48" pos="9696"/>
          <note key="51" vol="78" pan="0" len="48" pos="9744"/>
          <note key="56" vol="78" pan="0" len="192" pos="9792"/>
          <note key="56" vol="78" pan="0" len="192" pos="9984"/>
          <note key="52" vol="78" pan="0" len="192" pos="9984"/>
          <note key="57" vol="78" pan="0" len="192" pos="10176"/>
          <note key="54" vol="78" pan="0" len="192" pos="10176"/>
          <note key="59" vol="78" pan="0" len="192" pos="10368"/>
          <note key="56" vol="78" pan="0" len="192" pos="10368"/>
          <note key="54" vol="78" pan="0" len="192" pos="10560"/>
          <note key="49" vol="78" pan="0" len="192" pos="10560"/>
          <note key="56" vol="78" pan="0" len="192" pos="10752"/>
          <note key="52" vol="78" pan="0" len="192" pos="10752"/>
          <note key="57" vol="78" pan="0" len="192" pos="10944"/>
          <note key="54" vol="78" pan="0" len="192" pos="10944"/>
          <note key="59" vol="78" pan="0" len="192" pos="11136"/>
          <note key="56" vol="78" pan="0" len="192" pos="11136"/>
          <note key="54" vol="78" pan="0" len="192" pos="11328"/>
          <note key="51" vol="78" pan="0" len="192" pos="11328"/>
          <note key="54" vol="78" pan="0" len="192" pos="11520"/>
          <note key="49" vol="78" pan="0" len="192" pos="11520"/>
          <note key="61" vol="78" pan="0" len="192" pos="11712"/>
          <note key="56" vol="78" pan="0" len="192" pos="11712"/>
          <note key="59" vol="78" pan="0" len="192" pos="11904"/>
          <note key="54" vol="78" pan="0" len="192" pos="11904"/>
          <note key="57" vol="78" pan="0" len="192" pos="12096"/>
          <note key="52" vol="78" pan="0" len="192" pos="12096"/>
          <note key="56" vol="78" pan="0" len="384" pos="12288"/>
          <note key="51" vol="78" pan="0" len="384" pos="12288"/>
          <note key="56" vol="78" pan="0" len="384" pos="12672"/>
          <note key="47" vol="78" pan="0" len="384" pos="12672"/>
          <note key="56" vol="78" pan="0" len="192" pos="13056"/>
          <note key="52" vol="78" pan="0" len="192" pos="13056"/>
          <note key="57" vol="78" pan="0" len="192" pos="13248"/>
          <note key="54" vol="78" pan="0" len="192" pos="13248"/>
          <note key="59" vol="78" pan="0" len="192" pos="13440"/>
          <note key="56" vol="78" pan="0" len="192" pos="13440"/>
          <note key="54" vol="78" pan="0" len="192" pos="13632"/>
          <note key="49" vol="78" pan="0" len="192" pos="13632"/>
          <note key="56" vol="78" pan="0" len="192" pos="13824"/>
          <note key="52" vol="78" pan="0" len="192" pos="13824"/>
          <note key="57" vol="78" pan="0" len="192" pos="14016"/>
          <note key="54" vol="78" pan="0" len="192" pos="14016"/>
          <note key="59" vol="78" pan="0" len="192" pos="14208"/>
          <note key="56" vol="78" pan="0" len="192" pos="14208"/>
          <note key="54" vol="78" pan="0" len="192" pos="14400"/>
          <note key="51" vol="78" pan="0" len="192" pos="14400"/>
          <note key="54" vol="78" pan="0" len="192" pos="14592"/>
          <note key="49" vol="78" pan="0" len="192" pos="14592"/>
          <note key="61" vol="78" pan="0" len="192" pos="14784"/>
          <note key="56" vol="78" pan="0" len="192" pos="14784"/>
          <note key="59" vol="78" pan="0" len="192" pos="14976"/>
          <note key="54" vol="78" pan="0" len="192" pos="14976"/>
          <note key="57" vol="78" pan="0" len="192" pos="15168"/>
          <note key="52" vol="78" pan="0" len="192" pos="15168"/>
          <note key="56" vol="78" pan="0" len="384" pos="15360"/>
          <note key="51" vol="78" pan="0" len="384" pos="15360"/>
          <note key="56" vol="78" pan="0" len="192" pos="15744"/>
          <note key="47" vol="78" pan="0" len="192" pos="15744"/>
          <note key="61" vol="78" pan="0" len="192" pos="16128"/>
          <note key="61" vol="78" pan="0" len="192" pos="16320"/>
          <note key="61" vol="78" pan="0" len="192" pos="16512"/>
          <note key="59" vol="78" pan="0" len="192" pos="16704"/>
          <note key="61" vol="78" pan="0" len="192" pos="16896"/>
          <note key="61" vol="78" pan="0" len="192" pos="17088"/>
          <note key="61" vol="78" pan="0" len="192" pos="17280"/>
          <note key="59" vol="78" pan="0" len="192" pos="17472"/>
          <note key="73" vol="78" pan="0" len="384" pos="17664"/>
          <note key="61" vol="78" pan="0" len="384" pos="17664"/>
          <note key="73" vol="78" pan="0" len="384" pos="18048"/>
          <note key="61" vol="78" pan="0" len="384" pos="18048"/>
          <note key="73" vol="78" pan="0" len="48" pos="18432"/>
          <note key="61" vol="78" pan="0" len="48" pos="18432"/>
        </pattern>
      </track>
      <track name="Cello" muted="1" type="0" solo="0">
        <instrumenttrack vol="100" pitch="0" pitchrange="2" basenote="57" pan="0" fxch="0" usemasterpitch="1">
          <instrument name="sf2player">
            <sf2player chorusOn="0" reverbRoomSize="0.2" chorusLevel="2" src="/home/huggypie/samples/soundfonts/Mystery Dungeon.sf2" gain="1" reverbDamping="0" chorusSpeed="0.3" reverbWidth="0.5" reverbLevel="0.9" bank="0" reverbOn="0" patch="16" chorusDepth="8" chorusNum="3"/>
          </instrument>
          <eldata ftype="0" fres="0.5" fwet="0" fcut="14000">
            <elvol dec="0.5" sustain="0.5" pdel="0" lpdel="0" rel="0.1" lspd="0.1" userwavefile="" hold="0.5" lamt="0" lspd_numerator="4" lspd_syncmode="0" lshp="0" amt="0" x100="0" latt="0" lspd_denominator="4" ctlenvamt="0" att="0"/>
            <elcut dec="0.5" sustain="0.5" pdel="0" lpdel="0" rel="0.1" lspd="0.1" userwavefile="" hold="0.5" lamt="0" lspd_numerator="4" lspd_syncmode="0" lshp="0" amt="0" x100="0" latt="0" lspd_denominator="4" ctlenvamt="0" att="0"/>
            <elres dec="0.5" sustain="0.5" pdel="0" lpdel="0" rel="0.1" lspd="0.1" userwavefile="" hold="0.5" lamt="0" lspd_numerator="4" lspd_syncmode="0" lshp="0" amt="0" x100="0" latt="0" lspd_denominator="4" ctlenvamt="0" att="0"/>
          </eldata>
          <chordcreator chord="0" chord-enabled="0" chordrange="1"/>
          <arpeggiator arprange="1" arptime_denominator="4" arpgate="100" arptime_syncmode="0" arp="0" arpmode="0" arpmiss="0" arpdir="0" arptime_numerator="4" arp-enabled="0" arpcycle="0" arpskip="0" arptime="200"/>
          <midiport outputchannel="1" inputcontroller="0" outputcontroller="0" basevelocity="63" fixedinputvelocity="-1" fixedoutputvelocity="-1" outputprogram="1" readable="0" writable="0" fixedoutputnote="-1" inputchannel="0"/>
          <fxchain numofeffects="0" enabled="0"/>
        </instrumenttrack>
        <pattern name="Cello" muted="0" type="1" steps="16" pos="384">
          <note key="37" vol="78" pan="0" len="384" pos="0"/>
          <note key="32" vol="78" pan="0" len="384" pos="384"/>
          <note key="28" vol="78" pan="0" len="384" pos="768"/>
          <note key="26" vol="78" pan="0" len="384" pos="1152"/>
        </pattern>
        <pattern name="Cello" muted="0" type="1" steps="16" pos="12672">
          <note key="25" vol="78" pan="0" len="24" pos="0"/>
          <note key="25" vol="78" pan="0" len="24" pos="48"/>
          <note key="25" vol="78" pan="0" len="24" pos="96"/>
          <note key="25" vol="78" pan="0" len="24" pos="144"/>
          <note key="25" vol="78" pan="0" len="24" pos="192"/>
          <note key="25" vol="78" pan="0" len="24" pos="240"/>
          <note key="25" vol="78" pan="0" len="24" pos="288"/>
          <note key="25" vol="78" pan="0" len="24" pos="336"/>
          <note key="25" vol="78" pan="0" len="24" pos="384"/>
          <note key="25" vol="78" pan="0" len="24" pos="432"/>
          <note key="25" vol="78" pan="0" len="24" pos="480"/>
          <note key="25" vol="78" pan="0" len="24" pos="528"/>
          <note key="25" vol="78" pan="0" len="24" pos="576"/>
          <note key="25" vol="78" pan="0" len="24" pos="624"/>
          <note key="25" vol="78" pan="0" len="24" pos="672"/>
          <note key="25" vol="78" pan="0" len="24" pos="720"/>
          <note key="25" vol="78" pan="0" len="24" pos="768"/>
          <note key="25" vol="78" pan="0" len="24" pos="816"/>
          <note key="25" vol="78" pan="0" len="24" pos="864"/>
          <note key="25" vol="78" pan="0" len="24" pos="912"/>
          <note key="25" vol="78" pan="0" len="24" pos="960"/>
          <note key="25" vol="78" pan="0" len="24" pos="1008"/>
          <note key="25" vol="78" pan="0" len="24" pos="1056"/>
          <note key="25" vol="78" pan="0" len="24" pos="1104"/>
          <note key="25" vol="78" pan="0" len="24" pos="1152"/>
          <note key="25" vol="78" pan="0" len="24" pos="1200"/>
          <note key="25" vol="78" pan="0" len="24" pos="1248"/>
          <note key="25" vol="78" pan="0" len="24" pos="1296"/>
          <note key="25" vol="78" pan="0" len="24" pos="1344"/>
          <note key="25" vol="78" pan="0" len="24" pos="1392"/>
          <note key="25" vol="78" pan="0" len="24" pos="1440"/>
          <note key="25" vol="78" pan="0" len="24" pos="1488"/>
        </pattern>
        <pattern name="Cello" muted="0" type="1" steps="16" pos="44160">
          <note key="25" vol="78" pan="0" len="24" pos="0"/>
          <note key="25" vol="78" pan="0" len="24" pos="48"/>
          <note key="25" vol="78" pan="0" len="24" pos="96"/>
          <note key="25" vol="78" pan="0" len="24" pos="144"/>
          <note key="25" vol="78" pan="0" len="24" pos="192"/>
          <note key="25" vol="78" pan="0" len="24" pos="240"/>
          <note key="25" vol="78" pan="0" len="24" pos="288"/>
          <note key="25" vol="78" pan="0" len="24" pos="336"/>
          <note key="25" vol="78" pan="0" len="24" pos="384"/>
          <note key="25" vol="78" pan="0" len="24" pos="432"/>
          <note key="25" vol="78" pan="0" len="24" pos="480"/>
          <note key="25" vol="78" pan="0" len="24" pos="528"/>
          <note key="25" vol="78" pan="0" len="24" pos="576"/>
          <note key="25" vol="78" pan="0" len="24" pos="624"/>
          <note key="25" vol="78" pan="0" len="24" pos="672"/>
          <note key="25" vol="78" pan="0" len="24" pos="720"/>
          <note key="25" vol="78" pan="0" len="24" pos="768"/>
          <note key="25" vol="78" pan="0" len="24" pos="816"/>
          <note key="25" vol="78" pan="0" len="24" pos="864"/>
          <note key="25" vol="78" pan="0" len="24" pos="912"/>
          <note key="25" vol="78" pan="0" len="24" pos="960"/>
          <note key="25" vol="78" pan="0" len="24" pos="1008"/>
          <note key="25" vol="78" pan="0" len="24" pos="1056"/>
          <note key="25" vol="78" pan="0" len="24" pos="1104"/>
          <note key="25" vol="78" pan="0" len="24" pos="1152"/>
          <note key="25" vol="78" pan="0" len="24" pos="1200"/>
          <note key="25" vol="78" pan="0" len="24" pos="1248"/>
          <note key="25" vol="78" pan="0" len="24" pos="1296"/>
          <note key="25" vol="78" pan="0" len="24" pos="1344"/>
          <note key="25" vol="78" pan="0" len="24" pos="1392"/>
          <note key="25" vol="78" pan="0" len="24" pos="1440"/>
          <note key="25" vol="78" pan="0" len="24" pos="1488"/>
        </pattern>
        <pattern name="" muted="0" type="1" steps="16" pos="39360">
          <note key="73" vol="78" pan="0" len="12" pos="0"/>
          <note key="0" vol="78" pan="0" len="48" pos="0"/>
          <note key="68" vol="78" pan="0" len="12" pos="12"/>
          <note key="64" vol="78" pan="0" len="12" pos="24"/>
          <note key="61" vol="78" pan="0" len="12" pos="36"/>
          <note key="56" vol="78" pan="0" len="12" pos="48"/>
          <note key="1" vol="78" pan="0" len="12" pos="48"/>
          <note key="52" vol="78" pan="0" len="12" pos="60"/>
          <note key="49" vol="78" pan="0" len="12" pos="72"/>
          <note key="52" vol="78" pan="0" len="12" pos="84"/>
          <note key="56" vol="78" pan="0" len="12" pos="96"/>
          <note key="61" vol="78" pan="0" len="12" pos="108"/>
          <note key="64" vol="78" pan="0" len="12" pos="120"/>
          <note key="68" vol="78" pan="0" len="12" pos="132"/>
          <note key="76" vol="78" pan="0" len="12" pos="144"/>
          <note key="0" vol="78" pan="0" len="12" pos="144"/>
          <note key="73" vol="78" pan="0" len="12" pos="156"/>
          <note key="68" vol="78" pan="0" len="12" pos="168"/>
          <note key="1" vol="78" pan="0" len="12" pos="168"/>
          <note key="73" vol="78" pan="0" len="12" pos="180"/>
          <note key="75" vol="78" pan="0" len="12" pos="192"/>
          <note key="0" vol="78" pan="0" len="12" pos="192"/>
          <note key="71" vol="78" pan="0" len="12" pos="204"/>
          <note key="68" vol="78" pan="0" len="12" pos="216"/>
          <note key="63" vol="78" pan="0" len="12" pos="228"/>
          <note key="59" vol="78" pan="0" len="12" pos="240"/>
          <note key="1" vol="78" pan="0" len="12" pos="240"/>
          <note key="56" vol="78" pan="0" len="12" pos="252"/>
          <note key="51" vol="78" pan="0" len="12" pos="264"/>
          <note key="56" vol="78" pan="0" len="12" pos="276"/>
          <note key="59" vol="78" pan="0" len="12" pos="288"/>
          <note key="63" vol="78" pan="0" len="12" pos="300"/>
          <note key="68" vol="78" pan="0" len="12" pos="312"/>
          <note key="71" vol="78" pan="0" len="12" pos="324"/>
          <note key="80" vol="78" pan="0" len="12" pos="336"/>
          <note key="0" vol="78" pan="0" len="12" pos="336"/>
          <note key="76" vol="78" pan="0" len="12" pos="348"/>
          <note key="73" vol="78" pan="0" len="12" pos="360"/>
          <note key="1" vol="78" pan="0" len="12" pos="360"/>
          <note key="76" vol="78" pan="0" len="12" pos="372"/>
          <note key="80" vol="78" pan="0" len="144" pos="384"/>
          <note key="0" vol="78" pan="0" len="12" pos="384"/>
          <note key="78" vol="78" pan="0" len="24" pos="528"/>
          <note key="76" vol="78" pan="0" len="24" pos="552"/>
          <note key="75" vol="78" pan="0" len="48" pos="576"/>
          <note key="76" vol="78" pan="0" len="48" pos="624"/>
          <note key="71" vol="78" pan="0" len="48" pos="672"/>
          <note key="68" vol="78" pan="0" len="48" pos="720"/>
          <note key="69" vol="78" pan="0" len="96" pos="768"/>
          <note key="73" vol="78" pan="0" len="48" pos="864"/>
          <note key="76" vol="78" pan="0" len="48" pos="912"/>
          <note key="76" vol="78" pan="0" len="96" pos="960"/>
          <note key="75" vol="78" pan="0" len="48" pos="1056"/>
          <note key="76" vol="78" pan="0" len="48" pos="1104"/>
          <note key="83" vol="78" pan="0" len="72" pos="1152"/>
          <note key="81" vol="78" pan="0" len="72" pos="1224"/>
          <note key="80" vol="78" pan="0" len="48" pos="1296"/>
          <note key="78" vol="78" pan="0" len="192" pos="1344"/>
          <note key="76" vol="78" pan="0" len="72" pos="1536"/>
          <note key="75" vol="78" pan="0" len="72" pos="1608"/>
          <note key="76" vol="78" pan="0" len="48" pos="1680"/>
          <note key="80" vol="78" pan="0" len="144" pos="1728"/>
          <note key="75" vol="78" pan="0" len="48" pos="1872"/>
          <note key="73" vol="78" pan="0" len="240" pos="1920"/>
          <note key="76" vol="78" pan="0" len="48" pos="2160"/>
          <note key="78" vol="78" pan="0" len="48" pos="2208"/>
          <note key="80" vol="78" pan="0" len="48" pos="2256"/>
          <note key="81" vol="78" pan="0" len="72" pos="2304"/>
          <note key="80" vol="78" pan="0" len="72" pos="2376"/>
          <note key="78" vol="78" pan="0" len="48" pos="2448"/>
          <note key="76" vol="78" pan="0" len="48" pos="2496"/>
          <note key="73" vol="78" pan="0" len="48" pos="2544"/>
          <note key="76" vol="78" pan="0" len="48" pos="2592"/>
          <note key="80" vol="78" pan="0" len="48" pos="2640"/>
          <note key="78" vol="78" pan="0" len="192" pos="2688"/>
          <note key="75" vol="78" pan="0" len="96" pos="2880"/>
          <note key="71" vol="78" pan="0" len="96" pos="2976"/>
        </pattern>
      </track>
      <track name="Mystery Dungeon" muted="1" type="0" solo="0">
        <instrumenttrack vol="100" pitch="0" pitchrange="2" basenote="57" pan="0" fxch="0" usemasterpitch="1">
          <instrument name="sf2player">
            <sf2player chorusOn="0" reverbRoomSize="0.2" chorusLevel="2" src="/home/huggypie/samples/soundfonts/Mystery Dungeon.sf2" gain="1" reverbDamping="0" chorusSpeed="0.3" reverbWidth="0.5" reverbLevel="0.9" bank="0" reverbOn="0" patch="14" chorusDepth="8" chorusNum="3"/>
          </instrument>
          <eldata ftype="0" fres="0.5" fwet="0" fcut="14000">
            <elvol dec="0.5" sustain="0.5" pdel="0" lpdel="0" rel="0.1" lspd="0.1" userwavefile="" hold="0.5" lamt="0" lspd_numerator="4" lspd_syncmode="0" lshp="0" amt="0" x100="0" latt="0" lspd_denominator="4" ctlenvamt="0" att="0"/>
            <elcut dec="0.5" sustain="0.5" pdel="0" lpdel="0" rel="0.1" lspd="0.1" userwavefile="" hold="0.5" lamt="0" lspd_numerator="4" lspd_syncmode="0" lshp="0" amt="0" x100="0" latt="0" lspd_denominator="4" ctlenvamt="0" att="0"/>
            <elres dec="0.5" sustain="0.5" pdel="0" lpdel="0" rel="0.1" lspd="0.1" userwavefile="" hold="0.5" lamt="0" lspd_numerator="4" lspd_syncmode="0" lshp="0" amt="0" x100="0" latt="0" lspd_denominator="4" ctlenvamt="0" att="0"/>
          </eldata>
          <chordcreator chord="0" chord-enabled="0" chordrange="1"/>
          <arpeggiator arprange="1" arptime_denominator="4" arpgate="100" arptime_syncmode="0" arp="0" arpmode="0" arpmiss="0" arpdir="0" arptime_numerator="4" arp-enabled="0" arpcycle="0" arpskip="0" arptime="200"/>
          <midiport outputchannel="1" inputcontroller="0" outputcontroller="0" basevelocity="63" fixedinputvelocity="-1" fixedoutputvelocity="-1" outputprogram="1" readable="0" writable="0" fixedoutputnote="-1" inputchannel="0"/>
          <fxchain numofeffects="0" enabled="0"/>
        </instrumenttrack>
        <pattern name="Sf2 Player" muted="0" type="1" steps="16" pos="24960">
          <note key="73" vol="78" pan="0" len="24" pos="0"/>
          <note key="69" vol="78" pan="0" len="24" pos="24"/>
          <note key="64" vol="78" pan="0" len="24" pos="48"/>
          <note key="61" vol="78" pan="0" len="24" pos="72"/>
          <note key="69" vol="78" pan="0" len="24" pos="96"/>
          <note key="64" vol="78" pan="0" len="24" pos="120"/>
          <note key="61" vol="78" pan="0" len="24" pos="144"/>
          <note key="57" vol="78" pan="0" len="24" pos="168"/>
          <note key="71" vol="78" pan="0" len="24" pos="192"/>
          <note key="68" vol="78" pan="0" len="24" pos="216"/>
          <note key="63" vol="78" pan="0" len="24" pos="240"/>
          <note key="59" vol="78" pan="0" len="24" pos="264"/>
          <note key="71" vol="78" pan="0" len="24" pos="288"/>
          <note key="68" vol="78" pan="0" len="24" pos="312"/>
          <note key="63" vol="78" pan="0" len="24" pos="336"/>
          <note key="59" vol="78" pan="0" len="24" pos="360"/>
          <note key="73" vol="78" pan="0" len="24" pos="384"/>
          <note key="68" vol="78" pan="0" len="24" pos="408"/>
          <note key="64" vol="78" pan="0" len="24" pos="432"/>
          <note key="61" vol="78" pan="0" len="24" pos="456"/>
          <note key="68" vol="78" pan="0" len="24" pos="480"/>
          <note key="64" vol="78" pan="0" len="24" pos="504"/>
          <note key="61" vol="78" pan="0" len="24" pos="528"/>
          <note key="56" vol="78" pan="0" len="24" pos="552"/>
          <note key="73" vol="78" pan="0" len="24" pos="576"/>
          <note key="68" vol="78" pan="0" len="24" pos="600"/>
          <note key="64" vol="78" pan="0" len="24" pos="624"/>
          <note key="61" vol="78" pan="0" len="24" pos="648"/>
          <note key="68" vol="78" pan="0" len="24" pos="672"/>
          <note key="64" vol="78" pan="0" len="24" pos="696"/>
          <note key="61" vol="78" pan="0" len="24" pos="720"/>
          <note key="56" vol="78" pan="0" len="24" pos="744"/>
          <note key="73" vol="78" pan="0" len="24" pos="768"/>
          <note key="68" vol="78" pan="0" len="24" pos="792"/>
          <note key="66" vol="78" pan="0" len="24" pos="816"/>
          <note key="61" vol="78" pan="0" len="24" pos="840"/>
          <note key="68" vol="78" pan="0" len="24" pos="864"/>
          <note key="66" vol="78" pan="0" len="24" pos="888"/>
          <note key="61" vol="78" pan="0" len="24" pos="912"/>
          <note key="59" vol="78" pan="0" len="24" pos="936"/>
          <note key="73" vol="78" pan="0" len="24" pos="960"/>
          <note key="68" vol="78" pan="0" len="24" pos="984"/>
          <note key="66" vol="78" pan="0" len="24" pos="1008"/>
          <note key="61" vol="78" pan="0" len="24" pos="1032"/>
          <note key="68" vol="78" pan="0" len="24" pos="1056"/>
          <note key="66" vol="78" pan="0" len="24" pos="1080"/>
          <note key="61" vol="78" pan="0" len="24" pos="1104"/>
          <note key="57" vol="78" pan="0" len="24" pos="1128"/>
          <note key="73" vol="78" pan="0" len="24" pos="1152"/>
          <note key="70" vol="78" pan="0" len="24" pos="1176"/>
          <note key="66" vol="78" pan="0" len="24" pos="1200"/>
          <note key="61" vol="78" pan="0" len="24" pos="1224"/>
          <note key="70" vol="78" pan="0" len="24" pos="1248"/>
          <note key="66" vol="78" pan="0" len="24" pos="1272"/>
          <note key="61" vol="78" pan="0" len="24" pos="1296"/>
          <note key="58" vol="78" pan="0" len="24" pos="1320"/>
          <note key="73" vol="78" pan="0" len="24" pos="1344"/>
          <note key="70" vol="78" pan="0" len="24" pos="1368"/>
          <note key="66" vol="78" pan="0" len="24" pos="1392"/>
          <note key="61" vol="78" pan="0" len="24" pos="1416"/>
          <note key="70" vol="78" pan="0" len="24" pos="1440"/>
          <note key="66" vol="78" pan="0" len="24" pos="1464"/>
          <note key="61" vol="78" pan="0" len="24" pos="1488"/>
          <note key="58" vol="78" pan="0" len="24" pos="1512"/>
          <note key="73" vol="78" pan="0" len="24" pos="1536"/>
          <note key="69" vol="78" pan="0" len="24" pos="1560"/>
          <note key="66" vol="78" pan="0" len="24" pos="1584"/>
          <note key="61" vol="78" pan="0" len="24" pos="1608"/>
          <note key="69" vol="78" pan="0" len="24" pos="1632"/>
          <note key="66" vol="78" pan="0" len="24" pos="1656"/>
          <note key="61" vol="78" pan="0" len="24" pos="1680"/>
          <note key="57" vol="78" pan="0" len="24" pos="1704"/>
          <note key="73" vol="78" pan="0" len="24" pos="1728"/>
          <note key="69" vol="78" pan="0" len="24" pos="1752"/>
          <note key="66" vol="78" pan="0" len="24" pos="1776"/>
          <note key="61" vol="78" pan="0" len="24" pos="1800"/>
          <note key="69" vol="78" pan="0" len="24" pos="1824"/>
          <note key="66" vol="78" pan="0" len="24" pos="1848"/>
          <note key="61" vol="78" pan="0" len="24" pos="1872"/>
          <note key="57" vol="78" pan="0" len="24" pos="1896"/>
          <note key="73" vol="78" pan="0" len="24" pos="1920"/>
          <note key="69" vol="78" pan="0" len="24" pos="1944"/>
          <note key="66" vol="78" pan="0" len="24" pos="1968"/>
          <note key="61" vol="78" pan="0" len="24" pos="1992"/>
          <note key="69" vol="78" pan="0" len="24" pos="2016"/>
          <note key="66" vol="78" pan="0" len="24" pos="2040"/>
          <note key="61" vol="78" pan="0" len="24" pos="2064"/>
          <note key="57" vol="78" pan="0" len="24" pos="2088"/>
          <note key="69" vol="78" pan="0" len="24" pos="2112"/>
          <note key="73" vol="78" pan="0" len="24" pos="2136"/>
          <note key="76" vol="78" pan="0" len="24" pos="2160"/>
          <note key="73" vol="78" pan="0" len="24" pos="2184"/>
          <note key="78" vol="78" pan="0" len="24" pos="2208"/>
          <note key="73" vol="78" pan="0" len="24" pos="2232"/>
          <note key="78" vol="78" pan="0" len="24" pos="2256"/>
          <note key="73" vol="78" pan="0" len="24" pos="2280"/>
          <note key="78" vol="78" pan="0" len="24" pos="2304"/>
          <note key="71" vol="78" pan="0" len="24" pos="2328"/>
          <note key="78" vol="78" pan="0" len="24" pos="2352"/>
          <note key="71" vol="78" pan="0" len="24" pos="2376"/>
          <note key="78" vol="78" pan="0" len="24" pos="2400"/>
          <note key="71" vol="78" pan="0" len="24" pos="2424"/>
          <note key="78" vol="78" pan="0" len="24" pos="2448"/>
          <note key="71" vol="78" pan="0" len="24" pos="2472"/>
          <note key="73" vol="78" pan="0" len="24" pos="2496"/>
          <note key="69" vol="78" pan="0" len="24" pos="2520"/>
          <note key="66" vol="78" pan="0" len="24" pos="2544"/>
          <note key="61" vol="78" pan="0" len="24" pos="2568"/>
          <note key="69" vol="78" pan="0" len="24" pos="2592"/>
          <note key="66" vol="78" pan="0" len="24" pos="2616"/>
          <note key="61" vol="78" pan="0" len="24" pos="2640"/>
          <note key="57" vol="78" pan="0" len="24" pos="2664"/>
          <note key="73" vol="78" pan="0" len="24" pos="2688"/>
          <note key="69" vol="78" pan="0" len="24" pos="2712"/>
          <note key="66" vol="78" pan="0" len="24" pos="2736"/>
          <note key="61" vol="78" pan="0" len="24" pos="2760"/>
          <note key="69" vol="78" pan="0" len="24" pos="2784"/>
          <note key="66" vol="78" pan="0" len="24" pos="2808"/>
          <note key="61" vol="78" pan="0" len="24" pos="2832"/>
          <note key="57" vol="78" pan="0" len="24" pos="2856"/>
          <note key="73" vol="78" pan="0" len="24" pos="2880"/>
          <note key="69" vol="78" pan="0" len="24" pos="2904"/>
          <note key="66" vol="78" pan="0" len="24" pos="2928"/>
          <note key="61" vol="78" pan="0" len="24" pos="2952"/>
          <note key="69" vol="78" pan="0" len="24" pos="2976"/>
          <note key="66" vol="78" pan="0" len="24" pos="3000"/>
          <note key="61" vol="78" pan="0" len="24" pos="3024"/>
          <note key="57" vol="78" pan="0" len="24" pos="3048"/>
        </pattern>
        <pattern name="Sf2 Player" muted="0" type="1" steps="16" pos="56448">
          <note key="73" vol="78" pan="0" len="24" pos="0"/>
          <note key="69" vol="78" pan="0" len="24" pos="24"/>
          <note key="64" vol="78" pan="0" len="24" pos="48"/>
          <note key="61" vol="78" pan="0" len="24" pos="72"/>
          <note key="69" vol="78" pan="0" len="24" pos="96"/>
          <note key="64" vol="78" pan="0" len="24" pos="120"/>
          <note key="61" vol="78" pan="0" len="24" pos="144"/>
          <note key="57" vol="78" pan="0" len="24" pos="168"/>
          <note key="71" vol="78" pan="0" len="24" pos="192"/>
          <note key="68" vol="78" pan="0" len="24" pos="216"/>
          <note key="63" vol="78" pan="0" len="24" pos="240"/>
          <note key="59" vol="78" pan="0" len="24" pos="264"/>
          <note key="71" vol="78" pan="0" len="24" pos="288"/>
          <note key="68" vol="78" pan="0" len="24" pos="312"/>
          <note key="63" vol="78" pan="0" len="24" pos="336"/>
          <note key="59" vol="78" pan="0" len="24" pos="360"/>
          <note key="73" vol="78" pan="0" len="24" pos="384"/>
          <note key="68" vol="78" pan="0" len="24" pos="408"/>
          <note key="64" vol="78" pan="0" len="24" pos="432"/>
          <note key="61" vol="78" pan="0" len="24" pos="456"/>
          <note key="68" vol="78" pan="0" len="24" pos="480"/>
          <note key="64" vol="78" pan="0" len="24" pos="504"/>
          <note key="61" vol="78" pan="0" len="24" pos="528"/>
          <note key="56" vol="78" pan="0" len="24" pos="552"/>
          <note key="73" vol="78" pan="0" len="24" pos="576"/>
          <note key="68" vol="78" pan="0" len="24" pos="600"/>
          <note key="64" vol="78" pan="0" len="24" pos="624"/>
          <note key="61" vol="78" pan="0" len="24" pos="648"/>
          <note key="68" vol="78" pan="0" len="24" pos="672"/>
          <note key="64" vol="78" pan="0" len="24" pos="696"/>
          <note key="61" vol="78" pan="0" len="24" pos="720"/>
          <note key="56" vol="78" pan="0" len="24" pos="744"/>
          <note key="73" vol="78" pan="0" len="24" pos="768"/>
          <note key="68" vol="78" pan="0" len="24" pos="792"/>
          <note key="66" vol="78" pan="0" len="24" pos="816"/>
          <note key="61" vol="78" pan="0" len="24" pos="840"/>
          <note key="68" vol="78" pan="0" len="24" pos="864"/>
          <note key="66" vol="78" pan="0" len="24" pos="888"/>
          <note key="61" vol="78" pan="0" len="24" pos="912"/>
          <note key="59" vol="78" pan="0" len="24" pos="936"/>
          <note key="73" vol="78" pan="0" len="24" pos="960"/>
          <note key="68" vol="78" pan="0" len="24" pos="984"/>
          <note key="66" vol="78" pan="0" len="24" pos="1008"/>
          <note key="61" vol="78" pan="0" len="24" pos="1032"/>
          <note key="68" vol="78" pan="0" len="24" pos="1056"/>
          <note key="66" vol="78" pan="0" len="24" pos="1080"/>
          <note key="61" vol="78" pan="0" len="24" pos="1104"/>
          <note key="57" vol="78" pan="0" len="24" pos="1128"/>
          <note key="73" vol="78" pan="0" len="24" pos="1152"/>
          <note key="70" vol="78" pan="0" len="24" pos="1176"/>
          <note key="66" vol="78" pan="0" len="24" pos="1200"/>
          <note key="61" vol="78" pan="0" len="24" pos="1224"/>
          <note key="70" vol="78" pan="0" len="24" pos="1248"/>
          <note key="66" vol="78" pan="0" len="24" pos="1272"/>
          <note key="61" vol="78" pan="0" len="24" pos="1296"/>
          <note key="58" vol="78" pan="0" len="24" pos="1320"/>
          <note key="73" vol="78" pan="0" len="24" pos="1344"/>
          <note key="70" vol="78" pan="0" len="24" pos="1368"/>
          <note key="66" vol="78" pan="0" len="24" pos="1392"/>
          <note key="61" vol="78" pan="0" len="24" pos="1416"/>
          <note key="70" vol="78" pan="0" len="24" pos="1440"/>
          <note key="66" vol="78" pan="0" len="24" pos="1464"/>
          <note key="61" vol="78" pan="0" len="24" pos="1488"/>
          <note key="58" vol="78" pan="0" len="24" pos="1512"/>
          <note key="73" vol="78" pan="0" len="24" pos="1536"/>
          <note key="69" vol="78" pan="0" len="24" pos="1560"/>
          <note key="66" vol="78" pan="0" len="24" pos="1584"/>
          <note key="61" vol="78" pan="0" len="24" pos="1608"/>
          <note key="69" vol="78" pan="0" len="24" pos="1632"/>
          <note key="66" vol="78" pan="0" len="24" pos="1656"/>
          <note key="61" vol="78" pan="0" len="24" pos="1680"/>
          <note key="57" vol="78" pan="0" len="24" pos="1704"/>
          <note key="73" vol="78" pan="0" len="24" pos="1728"/>
          <note key="69" vol="78" pan="0" len="24" pos="1752"/>
          <note key="66" vol="78" pan="0" len="24" pos="1776"/>
          <note key="61" vol="78" pan="0" len="24" pos="1800"/>
          <note key="69" vol="78" pan="0" len="24" pos="1824"/>
          <note key="66" vol="78" pan="0" len="24" pos="1848"/>
          <note key="61" vol="78" pan="0" len="24" pos="1872"/>
          <note key="57" vol="78" pan="0" len="24" pos="1896"/>
          <note key="73" vol="78" pan="0" len="24" pos="1920"/>
          <note key="69" vol="78" pan="0" len="24" pos="1944"/>
          <note key="66" vol="78" pan="0" len="24" pos="1968"/>
          <note key="61" vol="78" pan="0" len="24" pos="1992"/>
          <note key="69" vol="78" pan="0" len="24" pos="2016"/>
          <note key="66" vol="78" pan="0" len="24" pos="2040"/>
          <note key="61" vol="78" pan="0" len="24" pos="2064"/>
          <note key="57" vol="78" pan="0" len="24" pos="2088"/>
          <note key="69" vol="78" pan="0" len="24" pos="2112"/>
          <note key="73" vol="78" pan="0" len="24" pos="2136"/>
          <note key="76" vol="78" pan="0" len="24" pos="2160"/>
          <note key="73" vol="78" pan="0" len="24" pos="2184"/>
          <note key="78" vol="78" pan="0" len="24" pos="2208"/>
          <note key="73" vol="78" pan="0" len="24" pos="2232"/>
          <note key="78" vol="78" pan="0" len="24" pos="2256"/>
          <note key="73" vol="78" pan="0" len="24" pos="2280"/>
          <note key="78" vol="78" pan="0" len="24" pos="2304"/>
          <note key="71" vol="78" pan="0" len="24" pos="2328"/>
          <note key="78" vol="78" pan="0" len="24" pos="2352"/>
          <note key="71" vol="78" pan="0" len="24" pos="2376"/>
          <note key="78" vol="78" pan="0" len="24" pos="2400"/>
          <note key="71" vol="78" pan="0" len="24" pos="2424"/>
          <note key="78" vol="78" pan="0" len="24" pos="2448"/>
          <note key="71" vol="78" pan="0" len="24" pos="2472"/>
          <note key="73" vol="78" pan="0" len="24" pos="2496"/>
          <note key="69" vol="78" pan="0" len="24" pos="2520"/>
          <note key="66" vol="78" pan="0" len="24" pos="2544"/>
          <note key="61" vol="78" pan="0" len="24" pos="2568"/>
          <note key="69" vol="78" pan="0" len="24" pos="2592"/>
          <note key="66" vol="78" pan="0" len="24" pos="2616"/>
          <note key="61" vol="78" pan="0" len="24" pos="2640"/>
          <note key="57" vol="78" pan="0" len="24" pos="2664"/>
          <note key="73" vol="78" pan="0" len="24" pos="2688"/>
          <note key="69" vol="78" pan="0" len="24" pos="2712"/>
          <note key="66" vol="78" pan="0" len="24" pos="2736"/>
          <note key="61" vol="78" pan="0" len="24" pos="2760"/>
          <note key="69" vol="78" pan="0" len="24" pos="2784"/>
          <note key="66" vol="78" pan="0" len="24" pos="2808"/>
          <note key="61" vol="78" pan="0" len="24" pos="2832"/>
          <note key="57" vol="78" pan="0" len="24" pos="2856"/>
          <note key="73" vol="78" pan="0" len="24" pos="2880"/>
          <note key="69" vol="78" pan="0" len="24" pos="2904"/>
          <note key="66" vol="78" pan="0" len="24" pos="2928"/>
          <note key="61" vol="78" pan="0" len="24" pos="2952"/>
          <note key="69" vol="78" pan="0" len="24" pos="2976"/>
          <note key="66" vol="78" pan="0" len="24" pos="3000"/>
          <note key="61" vol="78" pan="0" len="24" pos="3024"/>
          <note key="57" vol="78" pan="0" len="24" pos="3048"/>
        </pattern>
      </track>
      <track name="Beat/Bassline 10" muted="0" type="1" solo="0">
        <bbtrack/>
        <bbtco name="" muted="0" color="4286611584" len="768" usestyle="1" pos="3456"/>
        <bbtco name="" muted="0" color="4286611584" len="768" usestyle="1" pos="34944"/>
      </track>
      <track name="Clone of Beat/Bassline 11" muted="0" type="1" solo="0">
        <bbtrack/>
      </track>
      <track name="Beat/Bassline 15" muted="0" type="1" solo="0">
        <bbtrack/>
        <bbtco name="" muted="0" color="4286611584" len="384" usestyle="1" pos="3072"/>
      </track>
      <track name="Beat/Bassline 16" muted="0" type="1" solo="0">
        <bbtrack/>
        <bbtco name="" muted="0" color="4286611584" len="192" usestyle="1" pos="7872"/>
        <bbtco name="" muted="0" color="4286611584" len="192" usestyle="1" pos="56448"/>
        <bbtco name="" muted="0" color="4286611584" len="192" usestyle="1" pos="39360"/>
      </track>
      <track name="Beat/Bassline 17" muted="0" type="1" solo="0">
        <bbtrack/>
        <bbtco name="" muted="0" color="4286611584" len="384" usestyle="1" pos="13824"/>
      </track>
      <track name="Beat/Bassline 20" muted="0" type="1" solo="0">
        <bbtrack/>
        <bbtco name="" muted="0" color="4286611584" len="1536" usestyle="1" pos="24960"/>
      </track>
      <track name="Clone of Beat/Bassline 20" muted="0" type="1" solo="0">
        <bbtrack/>
        <bbtco name="" muted="0" color="4286611584" len="768" usestyle="1" pos="26496"/>
      </track>
      <track name="Clone of Clone of Beat/Bassline 20" muted="0" type="1" solo="0">
        <bbtrack/>
        <bbtco name="" muted="0" color="4286611584" len="768" usestyle="1" pos="27264"/>
        <bbtco name="" muted="0" color="4286611584" len="576" usestyle="1" pos="28032"/>
      </track>
      <track name="Beat/Bassline 23" muted="0" type="1" solo="0">
        <bbtrack/>
        <bbtco name="" muted="0" color="4286611584" len="3072" usestyle="1" pos="28800"/>
      </track>
      <track name="Automation track" muted="0" type="5" solo="0">
        <automationtrack/>
        <automationpattern name="AM pitchshifter>Effect enabled" mute="0" prog="0" tens="1" len="192" pos="0">
          <time value="0" pos="0"/>
          <object id="8166122"/>
        </automationpattern>
        <automationpattern name="AM pitchshifter>Effect enabled" mute="0" prog="0" tens="1" len="192" pos="13248">
          <time value="1" pos="0"/>
          <object id="8166122"/>
        </automationpattern>
        <automationpattern name="AM pitchshifter>Effect enabled" mute="0" prog="0" tens="1" len="192" pos="13824">
          <time value="0" pos="0"/>
          <object id="8166122"/>
        </automationpattern>
      </track>
      <track name="lgt" muted="1" type="2" solo="0">
        <sampletrack vol="69.6" pan="0">
          <fxchain numofeffects="1" enabled="1">
            <effect autoquit_numerator="4" autoquit="1" name="ladspaeffect" gate="0" wet="1" autoquit_syncmode="0" autoquit_denominator="4">
              <on id="2274258" scale_type="linear" value="0"/>
              <ladspacontrols link="1" ports="4">
                <port00 link="1">
                  <data id="2557451" scale_type="log" value="1"/>
                </port00>
                <port01 link="1" data="4"/>
                <port10>
                  <data id="5387230" scale_type="log" value="1"/>
                </port10>
                <port11 data="4"/>
              </ladspacontrols>
              <key>
                <attribute name="file" value="am_pitchshift_1433"/>
                <attribute name="plugin" value="amPitchshift"/>
              </key>
            </effect>
          </fxchain>
        </sampletrack>
      </track>
      <track name="rgt" muted="1" type="2" solo="0">
        <sampletrack vol="81" pan="0">
          <fxchain numofeffects="2" enabled="1">
            <effect autoquit_numerator="4" autoquit="1" name="ladspaeffect" gate="0" wet="1" autoquit_syncmode="0" autoquit_denominator="4">
              <on id="8166122" scale_type="linear" value="0"/>
              <ladspacontrols link="1" ports="4">
                <port00 link="1">
                  <data id="4307265" scale_type="log" value="1.52069"/>
                </port00>
                <port01 link="1" data="4"/>
                <port10>
                  <data id="1768188" scale_type="log" value="1.52069"/>
                </port10>
                <port11 data="4"/>
              </ladspacontrols>
              <key>
                <attribute name="file" value="am_pitchshift_1433"/>
                <attribute name="plugin" value="amPitchshift"/>
              </key>
            </effect>
            <effect autoquit_numerator="4" autoquit="1" name="eq" gate="0" on="1" wet="1" autoquit_syncmode="0" autoquit_denominator="4">
              <Eq Peak2active="0" LP48="0" HPres="0.707" HP48="0" LPres="0.707" Peak1active="0" HP12="1" AnalyseIn="1" LPactive="0" Lowshelfactive="0" Peak1bw="0.3" AnalyseOut="1" Highshelfactive="0" HP="0" Peak3gain="-6.48" LowShelfres="1.4" Peak4gain="0" Lowshelfgain="0" Peak2bw="0.3" Peak3active="1" HP24="0" HighShelfgain="0" LP24="0" Peak3bw="0.416" LP12="1" LP="0" HighShelfres="1.4" Peak4active="0" Peak4bw="0.3" HPactive="1" Outputgain="0" Peak2gain="0">
                <Inputgain id="825244" scale_type="log" value="0"/>
                <Peak1gain id="5740135" scale_type="log" value="0"/>
                <HPfreq id="2263674" scale_type="log" value="101.087"/>
                <LowShelffreq id="891990" scale_type="log" value="80"/>
                <Peak1freq id="6707296" scale_type="log" value="120"/>
                <Peak2freq id="4630572" scale_type="log" value="250"/>
                <Peak3freq id="5800292" scale_type="log" value="808.531"/>
                <Peak4freq id="2682057" scale_type="log" value="4000"/>
                <Highshelffreq id="4630541" scale_type="log" value="12000"/>
                <LPfreq id="3765193" scale_type="log" value="18000"/>
              </Eq>
              <key/>
            </effect>
          </fxchain>
        </sampletrack>
      </track>
      <track name="its not over yet kid.wav" muted="0" type="0" solo="0">
        <instrumenttrack vol="139.2" pitch="0" pitchrange="1" basenote="57" pan="0" fxch="0" usemasterpitch="1">
          <instrument name="audiofileprocessor">
            <audiofileprocessor eframe="1" reversed="0" src="/home/huggypie/samples/its not over yet kid.wav" amp="100" looped="0" stutter="0" interp="1" sframe="0" lframe="0"/>
          </instrument>
          <eldata ftype="0" fres="0.5" fwet="0" fcut="14000">
            <elvol dec="0.5" sustain="0.5" pdel="0" lpdel="0" rel="0.1" lspd="0.1" userwavefile="" hold="0.5" lamt="0" lspd_numerator="4" lspd_syncmode="0" lshp="0" amt="0" x100="0" latt="0" lspd_denominator="4" ctlenvamt="0" att="0"/>
            <elcut dec="0.5" sustain="0.5" pdel="0" lpdel="0" rel="0.1" lspd="0.1" userwavefile="" hold="0.5" lamt="0" lspd_numerator="4" lspd_syncmode="0" lshp="0" amt="0" x100="0" latt="0" lspd_denominator="4" ctlenvamt="0" att="0"/>
            <elres dec="0.5" sustain="0.5" pdel="0" lpdel="0" rel="0.1" lspd="0.1" userwavefile="" hold="0.5" lamt="0" lspd_numerator="4" lspd_syncmode="0" lshp="0" amt="0" x100="0" latt="0" lspd_denominator="4" ctlenvamt="0" att="0"/>
          </eldata>
          <chordcreator chord="0" chord-enabled="0" chordrange="1"/>
          <arpeggiator arprange="1" arptime_denominator="4" arpgate="100" arptime_syncmode="0" arp="0" arpmode="0" arpmiss="0" arpdir="0" arptime_numerator="4" arp-enabled="0" arpcycle="0" arpskip="0" arptime="200"/>
          <midiport outputchannel="1" inputcontroller="0" outputcontroller="0" basevelocity="63" fixedinputvelocity="-1" fixedoutputvelocity="-1" outputprogram="1" readable="0" writable="0" fixedoutputnote="-1" inputchannel="0"/>
          <fxchain numofeffects="0" enabled="0"/>
        </instrumenttrack>
        <pattern name="its not over yet kid.wav" muted="0" type="1" steps="16" pos="43584">
          <note key="57" vol="78" pan="0" len="756" pos="0"/>
        </pattern>
      </track>
      <track name="Beat/Bassline 25" muted="0" type="1" solo="0">
        <bbtrack/>
        <bbtco name="" muted="0" color="4286611584" len="192" usestyle="1" pos="47040"/>
      </track>
      <track name="Beat/Bassline 26" muted="0" type="1" solo="0">
        <bbtrack/>
        <bbtco name="" muted="0" color="4286611584" len="192" usestyle="1" pos="42240"/>
      </track>
    </trackcontainer>
    <track name="Automation track" muted="0" type="6" solo="0">
      <automationtrack/>
      <automationpattern name="Numerator" mute="0" prog="0" tens="1" len="192" pos="0"/>
      <automationpattern name="Denominator" mute="0" prog="0" tens="1" len="192" pos="0"/>
      <automationpattern name="Tempo" mute="0" prog="0" tens="1" len="192" pos="0"/>
      <automationpattern name="Master volume" mute="0" prog="0" tens="1" len="192" pos="0"/>
      <automationpattern name="Master pitch" mute="0" prog="0" tens="1" len="192" pos="0"/>
      <automationpattern name="Numerator" mute="0" prog="0" tens="1" len="0" pos="0">
        <time value="4" pos="0"/>
        <object id="545120"/>
      </automationpattern>
      <automationpattern name="Denominator" mute="0" prog="0" tens="1" len="0" pos="0">
        <time value="4" pos="0"/>
        <object id="114903"/>
      </automationpattern>
      <automationpattern name="Tempo" mute="0" prog="0" tens="1" len="0" pos="0">
        <time value="184.001" pos="0"/>
        <object id="2356958"/>
      </automationpattern>
    </track>
    <fxmixer width="1260" visible="0" x="1" height="333" maximized="0" minimized="0" y="114">
      <fxchannel name="Master" muted="0" volume="0.568" soloed="0" num="0">
        <fxchain numofeffects="0" enabled="1"/>
      </fxchannel>
      <fxchannel name="kick" muted="0" volume="0.535" soloed="0" num="1">
        <fxchain numofeffects="0" enabled="0"/>
        <send amount="1" channel="0"/>
        <send amount="0.512" channel="10"/>
      </fxchannel>
      <fxchannel name="hat" muted="0" volume="0.302" soloed="0" num="2">
        <fxchain numofeffects="0" enabled="0"/>
        <send amount="1" channel="0"/>
        <send amount="0.38" channel="10"/>
      </fxchannel>
      <fxchannel name="snare" muted="0" volume="0.574" soloed="0" num="3">
        <fxchain numofeffects="1" enabled="1">
          <effect autoquit_numerator="4" autoquit="1" name="eq" gate="0" on="1" wet="1" autoquit_syncmode="0" autoquit_denominator="4">
            <Eq Peak2active="0" LP48="0" HPres="0.707" HP48="0" LPres="0.707" Peak1active="0" HP12="1" AnalyseIn="1" LPactive="1" Lowshelfactive="0" Peak1bw="0.3" AnalyseOut="1" Highshelfactive="1" HP="0" Peak3gain="0" LowShelfres="1.4" Peak4gain="-0.718001" Lowshelfgain="0" Peak2bw="0.3" Peak3active="0" HP24="0" HighShelfgain="5.04" LP24="0" Peak3bw="0.3" LP12="1" LP="0" HighShelfres="1.435" Peak4active="1" Peak4bw="0.3" HPactive="0" Outputgain="0" Peak2gain="0">
              <Inputgain id="6753652" scale_type="log" value="0"/>
              <Peak1gain id="8257704" scale_type="log" value="0"/>
              <HPfreq id="2234845" scale_type="log" value="31"/>
              <LowShelffreq id="5016811" scale_type="log" value="80"/>
              <Peak1freq id="5537746" scale_type="log" value="120"/>
              <Peak2freq id="6539813" scale_type="log" value="250"/>
              <Peak3freq id="6999518" scale_type="log" value="2000"/>
              <Peak4freq id="770028" scale_type="log" value="4000"/>
              <Highshelffreq id="3686018" scale_type="log" value="2497.52"/>
              <LPfreq id="7588449" scale_type="log" value="13865.6"/>
            </Eq>
            <key/>
          </effect>
        </fxchain>
        <send amount="1" channel="0"/>
        <send amount="0.316" channel="10"/>
      </fxchannel>
      <fxchannel name="crash1" muted="0" volume="0.546" soloed="0" num="4">
        <fxchain numofeffects="0" enabled="0"/>
        <send amount="1" channel="0"/>
        <send amount="0.724" channel="10"/>
      </fxchannel>
      <fxchannel name="crash2" muted="0" volume="0.534" soloed="0" num="5">
        <fxchain numofeffects="0" enabled="0"/>
        <send amount="1" channel="0"/>
        <send amount="0.76" channel="10"/>
      </fxchannel>
      <fxchannel name="china" muted="0" volume="0.884" soloed="0" num="6">
        <fxchain numofeffects="0" enabled="0"/>
        <send amount="1" channel="0"/>
        <send amount="0.292" channel="10"/>
      </fxchannel>
      <fxchannel name="hitom" muted="0" volume="0.512" soloed="0" num="7">
        <fxchain numofeffects="0" enabled="0"/>
        <send amount="1" channel="0"/>
        <send amount="0.42" channel="10"/>
      </fxchannel>
      <fxchannel name="midtom" muted="0" volume="0.534" soloed="0" num="8">
        <fxchain numofeffects="0" enabled="0"/>
        <send amount="1" channel="0"/>
        <send amount="0.412" channel="10"/>
      </fxchannel>
      <fxchannel name="lotom" muted="0" volume="0.418" soloed="0" num="9">
        <fxchain numofeffects="0" enabled="0"/>
        <send amount="1" channel="0"/>
        <send amount="0.432" channel="10"/>
      </fxchannel>
      <fxchannel name="DRUM PLATE" muted="0" volume="0.535" soloed="0" num="10">
        <fxchain numofeffects="2" enabled="1">
          <effect autoquit_numerator="4" autoquit="1" name="ladspaeffect" gate="0" on="1" wet="1" autoquit_syncmode="0" autoquit_denominator="4">
            <ladspacontrols ports="4">
              <port02 data="0.76538"/>
              <port03 data="0.145119"/>
              <port04 data="0.0005"/>
              <port05 data="1"/>
            </ladspacontrols>
            <key>
              <attribute name="file" value="caps"/>
              <attribute name="plugin" value="Plate2x2"/>
            </key>
          </effect>
          <effect autoquit_numerator="4" autoquit="1" name="eq" gate="0" on="1" wet="1" autoquit_syncmode="0" autoquit_denominator="4">
            <Eq Peak2active="0" LP48="0" HPres="0.707" HP48="0" LPres="0.707" Peak1active="0" HP12="1" AnalyseIn="1" LPactive="0" Lowshelfactive="0" Peak1bw="0.3" AnalyseOut="1" Highshelfactive="1" HP="0" Peak3gain="0" LowShelfres="1.4" Peak4gain="0.36" Lowshelfgain="0" Peak2bw="0.3" Peak3active="0" HP24="0" HighShelfgain="1.62" LP24="0" Peak3bw="0.3" LP12="1" LP="0" HighShelfres="1.4" Peak4active="1" Peak4bw="0.3" HPactive="1" Outputgain="0" Peak2gain="0">
              <Inputgain id="217936" scale_type="log" value="0"/>
              <Peak1gain id="1412862" scale_type="log" value="0"/>
              <HPfreq id="7725025" scale_type="log" value="175.669"/>
              <LowShelffreq id="399642" scale_type="log" value="80"/>
              <Peak1freq id="3213708" scale_type="log" value="120"/>
              <Peak2freq id="1180890" scale_type="log" value="250"/>
              <Peak3freq id="5654965" scale_type="log" value="2000"/>
              <Peak4freq id="757114" scale_type="log" value="3592.47"/>
              <Highshelffreq id="3326661" scale_type="log" value="610.728"/>
              <LPfreq id="825391" scale_type="log" value="18000"/>
            </Eq>
            <key/>
          </effect>
        </fxchain>
        <send amount="1" channel="0"/>
      </fxchannel>
      <fxchannel name="rhythm guitar" muted="0" volume="0.648" soloed="0" num="11">
        <fxchain numofeffects="4" enabled="1">
          <effect autoquit_numerator="4" autoquit="1" name="ladspaeffect" gate="0" on="1" wet="1" autoquit_syncmode="0" autoquit_denominator="4">
            <ladspacontrols link="1" ports="4">
              <port00 link="1">
                <data id="7309738" scale_type="log" value="1.00288"/>
              </port00>
              <port01 link="1" data="4"/>
              <port10>
                <data id="4894491" scale_type="log" value="1.00288"/>
              </port10>
              <port11 data="4"/>
            </ladspacontrols>
            <key>
              <attribute name="file" value="am_pitchshift_1433"/>
              <attribute name="plugin" value="amPitchshift"/>
            </key>
          </effect>
          <effect autoquit_numerator="4" autoquit="1" name="ladspaeffect" gate="0" on="1" wet="1" autoquit_syncmode="0" autoquit_denominator="4">
            <ladspacontrols link="1" ports="4">
              <port00 link="1">
                <data id="2205805" scale_type="log" value="3052.97"/>
              </port00>
              <port01 link="1" data="1.18064"/>
              <port10>
                <data id="1377170" scale_type="log" value="3052.97"/>
              </port10>
              <port11 data="1.18064"/>
            </ladspacontrols>
            <key>
              <attribute name="file" value="butterworth_1902"/>
              <attribute name="plugin" value="buttlow_iir"/>
            </key>
          </effect>
          <effect autoquit_numerator="4" autoquit="1" name="ladspaeffect" gate="0" on="1" wet="1" autoquit_syncmode="0" autoquit_denominator="4">
            <ladspacontrols link="1" ports="14">
              <port01 link="1" data="2"/>
              <port02 link="1" data="2.88"/>
              <port03 link="1" data="0.5"/>
              <port04 link="1" data="0"/>
              <port05 link="1" data="0.955"/>
              <port06 link="1" data="0.912409"/>
              <port07 link="1" data="0.750025"/>
              <port11 data="2"/>
              <port12 data="2.88"/>
              <port13 data="0.5"/>
              <port14 data="0"/>
              <port15 data="0.955"/>
              <port16 data="0.912409"/>
              <port17 data="0.750025"/>
            </ladspacontrols>
            <key>
              <attribute name="file" value="caps"/>
              <attribute name="plugin" value="AmpVTS"/>
            </key>
          </effect>
          <effect autoquit_numerator="4" autoquit="1" name="ladspaeffect" gate="0" on="1" wet="1" autoquit_syncmode="0" autoquit_denominator="4">
            <ladspacontrols link="1" ports="4">
              <port01 link="1" data="5"/>
              <port02 link="1" data="0"/>
              <port11 data="5"/>
              <port12 data="0"/>
            </ladspacontrols>
            <key>
              <attribute name="file" value="caps"/>
              <attribute name="plugin" value="CabinetII"/>
            </key>
          </effect>
        </fxchain>
        <send amount="1" channel="0"/>
      </fxchannel>
      <fxchannel name="lgt" muted="0" volume="0.853" soloed="0" num="12">
        <fxchain numofeffects="5" enabled="1">
          <effect autoquit_numerator="4" autoquit="1" name="ladspaeffect" gate="0" wet="1" autoquit_syncmode="0" autoquit_denominator="4">
            <on id="2786011" scale_type="linear" value="0"/>
            <ladspacontrols link="1" ports="4">
              <port00 link="1">
                <data id="485849" scale_type="log" value="1"/>
              </port00>
              <port01 link="1" data="4"/>
              <port10>
                <data id="4168014" scale_type="log" value="1"/>
              </port10>
              <port11 data="4"/>
            </ladspacontrols>
            <key>
              <attribute name="file" value="am_pitchshift_1433"/>
              <attribute name="plugin" value="amPitchshift"/>
            </key>
          </effect>
          <effect autoquit_numerator="4" autoquit="1" name="ladspaeffect" gate="0" on="1" wet="1" autoquit_syncmode="0" autoquit_denominator="4">
            <ladspacontrols link="1" ports="4">
              <port00 link="1">
                <data id="354059" scale_type="log" value="13230"/>
              </port00>
              <port01 link="1" data="1"/>
              <port10>
                <data id="451672" scale_type="log" value="13230"/>
              </port10>
              <port11 data="1"/>
            </ladspacontrols>
            <key>
              <attribute name="file" value="pointer_cast_1910"/>
              <attribute name="plugin" value="pointerCastDistortion"/>
            </key>
          </effect>
          <effect autoquit_numerator="4" autoquit="1" name="waveshaper" gate="0" on="0" wet="1" autoquit_syncmode="0" autoquit_denominator="4">
            <waveshapercontrols waveShape="AACAPwAAgD8AAIA/AACAPwAAgD8AAIA/AACAPwAAgD8AAIA/AACAPwAAgD8AAIA/AACAPwAAgD8AAIA/AACAPwAAgD8AAIA/AACAPwAAgD8AAIA/AACAPwAAgD8AAIA/AACAPwAAgD8AAIA/AACAPwAAgD8AAIA/AACAPwAAgD8AAIA/AACAPwAAgD8AAIA/AACAPwAAgD8AAIA/AACAPwAAgD8AAIA/AACAPwAAgD8AAIA/AACAPwAAgD8AAIA/AACAPwAAgD8AAIA/AACAPwAAgD8AAIA/AACAPwAAgD8AAIA/AACAPwAAgD8AAIA/AACAPwAAgD8AAIA/AACAPwAAgD8AAIA/AACAPwAAgD8AAIA/AACAPwAAgD8AAIA/AACAPwAAgD8AAIA/AACAPwAAgD8AAIA/AACAPwAAgD8AAIA/AACAPwAAgD8AAIA/AACAPwAAgD8AAIA/AACAPwAAgD8AAIA/AACAPwAAgD8AAIA/AACAPwAAgD8AAIA/AACAPwAAgD8AAIA/AACAPwAAgD8AAIA/AACAPwAAgD8AAIA/AACAPwAAgD8AAIA/AACAPwAAgD8AAIA/AACAPwAAgD8AAIA/AACAPwAAgD8AAIA/AACAPwAAgD8AAIA/AACAPwAAgD8AAIA/AACAPwAAgD8AAIA/AACAPwAAgD8AAIA/AACAPwAAgD8AAIA/AACAPwAAgD8AAIA/AACAPwAAgD8AAIA/AACAPwAAgD8AAIA/AACAPwAAgD8AAIA/AACAPwAAgD8AAIA/AACAPwAAgD8AAIA/AACAPwAAgD8AAIA/AACAPwAAgD8AAIA/AACAPwAAgD8AAIA/AACAPwAAgD8AAIA/AACAPwAAgD8AAIA/AACAPwAAgD8AAIA/AACAPwAAgD8AAIA/AACAPwAAgD8AAIA/AACAPwAAgD8AAIA/AACAPwAAgD8AAIA/AACAPwAAgD8AAIA/AACAPwAAgD8AAIA/AACAPwAAgD8AAIA/AACAP8aSfz+MJX8/Urh+P1K4fj9SuH4/Urh+P/YofD/2KHw/Urh+PwAAgD8=" outputGain="0.3" clipInput="0" inputGain="1.14"/>
            <key/>
          </effect>
          <effect autoquit_numerator="4" autoquit="1" name="ladspaeffect" gate="0" on="1" wet="1" autoquit_syncmode="0" autoquit_denominator="4">
            <ladspacontrols link="1" ports="4">
              <port01 link="1" data="1"/>
              <port02 link="1" data="0"/>
              <port11 data="1"/>
              <port12 data="0"/>
            </ladspacontrols>
            <key>
              <attribute name="file" value="caps"/>
              <attribute name="plugin" value="CabinetII"/>
            </key>
          </effect>
          <effect autoquit_numerator="4" autoquit="1" name="ladspaeffect" gate="0" on="0" wet="1" autoquit_syncmode="0" autoquit_denominator="4">
            <ladspacontrols ports="1">
              <port02 data="0.29125"/>
            </ladspacontrols>
            <key>
              <attribute name="file" value="caps"/>
              <attribute name="plugin" value="Narrower"/>
            </key>
          </effect>
        </fxchain>
        <send amount="1" channel="0"/>
        <send amount="0.484" channel="13"/>
      </fxchannel>
      <fxchannel name="FX 14" muted="0" volume="0.535" soloed="0" num="13">
        <fxchain numofeffects="1" enabled="1">
          <effect autoquit_numerator="4" autoquit="1" name="ladspaeffect" gate="0" on="1" wet="1" autoquit_syncmode="0" autoquit_denominator="4">
            <ladspacontrols link="0" ports="4">
              <port00 data_numerator="4" data_syncmode="0" link="0" data_denominator="4" data="112.5"/>
              <port01 data_numerator="4" data_syncmode="0" link="0" data_denominator="4" data="0"/>
              <port10 data_numerator="4" data_syncmode="0" data_denominator="4" data="301.25"/>
              <port11 data_numerator="4" data_syncmode="0" data_denominator="4" data="0"/>
            </ladspacontrols>
            <key>
              <attribute name="file" value="mod_delay_1419"/>
              <attribute name="plugin" value="modDelay"/>
            </key>
          </effect>
        </fxchain>
        <send amount="1" channel="0"/>
      </fxchannel>
      <fxchannel name="bass" muted="0" volume="1" soloed="0" num="14">
        <fxchain numofeffects="1" enabled="1">
          <effect autoquit_numerator="4" autoquit="1" name="eq" gate="0" on="0" wet="1" autoquit_syncmode="0" autoquit_denominator="4">
            <Eq Peak2active="1" LP48="0" HPres="0.707" HP48="0" LPres="0.707" Peak1active="0" HP12="1" AnalyseIn="1" LPactive="0" Lowshelfactive="1" Peak1bw="0.3" AnalyseOut="1" Highshelfactive="0" HP="0" Peak3gain="18" LowShelfres="1.21" Peak4gain="5.76" Lowshelfgain="-6.477" Peak2bw="2.866" Peak3active="1" HP24="0" HighShelfgain="0" LP24="0" Peak3bw="1.828" LP12="1" LP="0" HighShelfres="1.4" Peak4active="1" Peak4bw="0.811" HPactive="0" Outputgain="8" Peak2gain="18">
              <Inputgain id="1928132" scale_type="log" value="0"/>
              <Peak1gain id="5028906" scale_type="log" value="0"/>
              <HPfreq id="6101787" scale_type="log" value="24.795"/>
              <LowShelffreq id="5056230" scale_type="log" value="179.84"/>
              <Peak1freq id="3218393" scale_type="log" value="120"/>
              <Peak2freq id="4083145" scale_type="log" value="8057.72"/>
              <Peak3freq id="4897974" scale_type="log" value="4557.45"/>
              <Peak4freq id="5404987" scale_type="log" value="4000"/>
              <Highshelffreq id="3053663" scale_type="log" value="12000"/>
              <LPfreq id="1445410" scale_type="log" value="18000"/>
            </Eq>
            <key/>
          </effect>
        </fxchain>
        <send amount="1" channel="0"/>
      </fxchannel>
      <fxchannel name="synthStrings" muted="0" volume="1" soloed="0" num="15">
        <fxchain numofeffects="0" enabled="0"/>
        <send amount="1" channel="0"/>
      </fxchannel>
      <fxchannel name="FX 16" muted="0" volume="1" soloed="0" num="16">
        <fxchain numofeffects="0" enabled="0"/>
        <send amount="1" channel="0"/>
      </fxchannel>
      <fxchannel name="FX 17" muted="0" volume="1" soloed="0" num="17">
        <fxchain numofeffects="0" enabled="0"/>
        <send amount="1" channel="0"/>
      </fxchannel>
      <fxchannel name="FX 18" muted="0" volume="1" soloed="0" num="18">
        <fxchain numofeffects="0" enabled="0"/>
        <send amount="1" channel="0"/>
      </fxchannel>
      <fxchannel name="FX 19" muted="0" volume="1" soloed="0" num="19">
        <fxchain numofeffects="0" enabled="0"/>
        <send amount="1" channel="0"/>
      </fxchannel>
      <fxchannel name="FX 20" muted="0" volume="1" soloed="0" num="20">
        <fxchain numofeffects="0" enabled="0"/>
        <send amount="1" channel="0"/>
      </fxchannel>
      <fxchannel name="FX 21" muted="0" volume="1" soloed="0" num="21">
        <fxchain numofeffects="0" enabled="0"/>
        <send amount="1" channel="0"/>
      </fxchannel>
      <fxchannel name="FX 22" muted="0" volume="1" soloed="0" num="22">
        <fxchain numofeffects="0" enabled="0"/>
        <send amount="1" channel="0"/>
      </fxchannel>
      <fxchannel name="FX 23" muted="0" volume="1" soloed="0" num="23">
        <fxchain numofeffects="0" enabled="0"/>
        <send amount="1" channel="0"/>
      </fxchannel>
      <fxchannel name="FX 24" muted="0" volume="1" soloed="0" num="24">
        <fxchain numofeffects="0" enabled="0"/>
        <send amount="1" channel="0"/>
      </fxchannel>
      <fxchannel name="FX 25" muted="0" volume="1" soloed="0" num="25">
        <fxchain numofeffects="0" enabled="0"/>
        <send amount="1" channel="0"/>
      </fxchannel>
      <fxchannel name="FX 26" muted="0" volume="1" soloed="0" num="26">
        <fxchain numofeffects="0" enabled="0"/>
        <send amount="1" channel="0"/>
      </fxchannel>
      <fxchannel name="FX 27" muted="0" volume="1" soloed="0" num="27">
        <fxchain numofeffects="0" enabled="0"/>
        <send amount="1" channel="0"/>
      </fxchannel>
      <fxchannel name="FX 28" muted="0" volume="1" soloed="0" num="28">
        <fxchain numofeffects="0" enabled="0"/>
        <send amount="1" channel="0"/>
      </fxchannel>
      <fxchannel name="FX 29" muted="0" volume="1" soloed="0" num="29">
        <fxchain numofeffects="0" enabled="0"/>
        <send amount="1" channel="0"/>
      </fxchannel>
    </fxmixer>
    <ControllerRackView width="350" visible="0" x="680" height="200" maximized="0" minimized="0" y="282"/>
    <pianoroll width="860" visible="0" x="171" height="480" maximized="1" minimized="0" y="26"/>
    <automationeditor width="860" visible="0" x="245" height="400" maximized="0" minimized="0" y="111"/>
    <projectnotes width="706" visible="0" x="333" height="400" maximized="0" minimized="0" y="2"><![CDATA[<!DOCTYPE HTML PUBLIC "-//W3C//DTD HTML 4.0//EN" "http://www.w3.org/TR/REC-html40/strict.dtd">
<html><head><meta name="qrichtext" content="1" /><style type="text/css">
p, li { white-space: pre-wrap; }
</style></head><body style=" font-family:'Sans Serif'; font-size:9pt; font-weight:400; font-style:normal;">
<p style="-qt-paragraph-type:empty; margin-top:0px; margin-bottom:0px; margin-left:0px; margin-right:0px; -qt-block-indent:0; text-indent:0px; font-family:'Ubuntu'; font-size:10pt;"><br /></p></body></html>]]></projectnotes>
    <timeline lp1pos="9600" lp0pos="0" lpstate="0"/>
    <controllers>
      <lfocontroller name="Controller 1" speed_numerator="4" speed="2" type="1" phase="0" userwavefile="" wave="0" base="0.5" speed_denominator="4" speed_syncmode="0" amount="1" multiplier="0"/>
    </controllers>
  </song>
</lmms-project>
