<?xml version="1.0"?>
<!DOCTYPE lmms-project>
<lmms-project creatorversion="1.3.0-alpha.1.33+g4f74151" creator="LMMS" version="18" type="song">
  <head masterpitch="0" mastervol="92">
    <bpm id="2356958" scale_type="linear" value="201"/>
    <timesig_numerator id="545120" scale_type="linear" value="4"/>
    <timesig_denominator id="114903" scale_type="linear" value="4"/>
  </head>
  <song>
    <trackcontainer visible="1" maximized="1" y="67" width="720" type="song" height="465" minimized="0" x="120">
      <track muted="0" name="intro1" type="1" solo="0" mutedBeforeSolo="0">
        <bbtrack>
          <trackcontainer visible="0" maximized="1" y="41" width="1042" type="bbtrackcontainer" height="378" minimized="0" x="52">
            <track muted="0" name="kick" type="0" solo="0" mutedBeforeSolo="0">
              <instrumenttrack usemasterpitch="1" pitchrange="1" pitch="0" pan="0" basenote="57" vol="100" fxch="1">
                <instrument name="audiofileprocessor">
                  <audiofileprocessor reversed="0" looped="0" eframe="1" stutter="0" src="/home/pass/samples/sillydrums/kick.wav" lframe="0" sframe="0" amp="100" interp="0">
                    <key/>
                  </audiofileprocessor>
                </instrument>
                <eldata fcut="14000" fwet="0" fres="0.5" ftype="0">
                  <elvol rel="2" lspd_syncmode="0" pdel="0" lspd_numerator="4" lpdel="0" amt="1" ctlenvamt="0" lshp="0" userwavefile="" dec="2" lspd_denominator="4" sustain="1" lspd="0.1" latt="0" hold="2" att="0" x100="0" lamt="0"/>
                  <elcut rel="0.1" lspd_syncmode="0" pdel="0" lspd_numerator="4" lpdel="0" amt="0" ctlenvamt="0" lshp="0" userwavefile="" dec="0.5" lspd_denominator="4" sustain="0.5" lspd="0.1" latt="0" hold="0.5" att="0" x100="0" lamt="0"/>
                  <elres rel="0.1" lspd_syncmode="0" pdel="0" lspd_numerator="4" lpdel="0" amt="0" ctlenvamt="0" lshp="0" userwavefile="" dec="0.5" lspd_denominator="4" sustain="0.5" lspd="0.1" latt="0" hold="0.5" att="0" x100="0" lamt="0"/>
                </eldata>
                <chordcreator chord="0" chordrange="1" chord-enabled="0"/>
                <arpeggiator arptime_denominator="4" arptime="200" arp-enabled="0" arpcycle="0" arpgate="100" arp="0" arpmiss="0" arpdir="0" arprange="1" arpmode="0" arpskip="0" arptime_syncmode="0" arptime_numerator="4"/>
                <midiport inputcontroller="0" fixedinputvelocity="-1" readable="0" outputcontroller="0" fixedoutputnote="-1" outputprogram="1" writable="0" fixedoutputvelocity="-1" basevelocity="63" outputchannel="1" inputchannel="0"/>
                <fxchain enabled="0" numofeffects="0"/>
              </instrumenttrack>
              <pattern muted="0" name="" steps="64" type="0" pos="0">
                <note len="-192" key="57" pan="0" vol="100" pos="0"/>
                <note len="-192" key="57" pan="0" vol="100" pos="384"/>
              </pattern>
              <pattern muted="0" name="" steps="64" type="0" pos="192">
                <note len="-192" key="57" pan="0" vol="100" pos="0"/>
                <note len="-192" key="57" pan="0" vol="100" pos="384"/>
                <note len="-192" key="57" pan="0" vol="100" pos="720"/>
                <note len="-192" key="57" pan="0" vol="100" pos="732"/>
                <note len="-192" key="57" pan="0" vol="100" pos="744"/>
                <note len="-192" key="57" pan="0" vol="100" pos="756"/>
              </pattern>
              <pattern muted="0" name="" steps="32" type="0" pos="384">
                <note len="-192" key="57" pan="0" vol="100" pos="0"/>
                <note len="-192" key="57" pan="0" vol="100" pos="72"/>
                <note len="-192" key="57" pan="0" vol="100" pos="144"/>
                <note len="-192" key="57" pan="0" vol="100" pos="216"/>
                <note len="-192" key="57" pan="0" vol="100" pos="288"/>
                <note len="-192" key="57" pan="0" vol="100" pos="312"/>
                <note len="-192" key="57" pan="0" vol="100" pos="360"/>
                <note len="-192" key="57" pan="0" vol="100" pos="372"/>
              </pattern>
              <pattern muted="0" name="" steps="64" type="0" pos="576">
                <note len="-192" key="57" pan="0" vol="100" pos="0"/>
                <note len="-192" key="57" pan="0" vol="100" pos="12"/>
                <note len="-192" key="57" pan="0" vol="100" pos="24"/>
                <note len="-192" key="57" pan="0" vol="100" pos="36"/>
                <note len="-192" key="57" pan="0" vol="100" pos="48"/>
                <note len="-192" key="57" pan="0" vol="100" pos="60"/>
                <note len="-192" key="57" pan="0" vol="100" pos="72"/>
                <note len="-192" key="57" pan="0" vol="100" pos="84"/>
                <note len="-192" key="57" pan="0" vol="100" pos="96"/>
                <note len="-192" key="57" pan="0" vol="100" pos="108"/>
                <note len="-192" key="57" pan="0" vol="100" pos="120"/>
                <note len="-192" key="57" pan="0" vol="100" pos="132"/>
                <note len="-192" key="57" pan="0" vol="100" pos="144"/>
                <note len="-192" key="57" pan="0" vol="100" pos="156"/>
                <note len="-192" key="57" pan="0" vol="100" pos="168"/>
                <note len="-192" key="57" pan="0" vol="100" pos="180"/>
                <note len="-192" key="57" pan="0" vol="100" pos="192"/>
                <note len="-192" key="57" pan="0" vol="100" pos="204"/>
                <note len="-192" key="57" pan="0" vol="100" pos="216"/>
                <note len="-192" key="57" pan="0" vol="100" pos="228"/>
                <note len="-192" key="57" pan="0" vol="100" pos="240"/>
                <note len="-192" key="57" pan="0" vol="100" pos="252"/>
                <note len="-192" key="57" pan="0" vol="100" pos="264"/>
                <note len="-192" key="57" pan="0" vol="100" pos="276"/>
                <note len="-192" key="57" pan="0" vol="100" pos="288"/>
                <note len="-192" key="57" pan="0" vol="100" pos="300"/>
                <note len="-192" key="57" pan="0" vol="100" pos="312"/>
                <note len="-192" key="57" pan="0" vol="100" pos="324"/>
                <note len="-192" key="57" pan="0" vol="100" pos="336"/>
                <note len="-192" key="57" pan="0" vol="100" pos="348"/>
                <note len="-192" key="57" pan="0" vol="100" pos="360"/>
                <note len="-192" key="57" pan="0" vol="100" pos="372"/>
                <note len="-192" key="57" pan="0" vol="100" pos="384"/>
                <note len="-192" key="57" pan="0" vol="100" pos="396"/>
                <note len="-192" key="57" pan="0" vol="100" pos="408"/>
                <note len="-192" key="57" pan="0" vol="100" pos="420"/>
                <note len="-192" key="57" pan="0" vol="100" pos="432"/>
                <note len="-192" key="57" pan="0" vol="100" pos="444"/>
                <note len="-192" key="57" pan="0" vol="100" pos="456"/>
                <note len="-192" key="57" pan="0" vol="100" pos="468"/>
                <note len="-192" key="57" pan="0" vol="100" pos="480"/>
                <note len="-192" key="57" pan="0" vol="100" pos="492"/>
                <note len="-192" key="57" pan="0" vol="100" pos="504"/>
                <note len="-192" key="57" pan="0" vol="100" pos="516"/>
                <note len="-192" key="57" pan="0" vol="100" pos="528"/>
                <note len="-192" key="57" pan="0" vol="100" pos="540"/>
                <note len="-192" key="57" pan="0" vol="100" pos="552"/>
                <note len="-192" key="57" pan="0" vol="100" pos="564"/>
                <note len="-192" key="57" pan="0" vol="100" pos="576"/>
                <note len="-192" key="57" pan="0" vol="100" pos="588"/>
                <note len="-192" key="57" pan="0" vol="100" pos="600"/>
                <note len="-192" key="57" pan="0" vol="100" pos="612"/>
                <note len="-192" key="57" pan="0" vol="100" pos="624"/>
                <note len="-192" key="57" pan="0" vol="100" pos="636"/>
                <note len="-192" key="57" pan="0" vol="100" pos="648"/>
                <note len="-192" key="57" pan="0" vol="100" pos="660"/>
                <note len="-192" key="57" pan="0" vol="100" pos="672"/>
                <note len="-192" key="57" pan="0" vol="100" pos="684"/>
                <note len="-192" key="57" pan="0" vol="100" pos="696"/>
                <note len="-192" key="57" pan="0" vol="100" pos="708"/>
                <note len="-192" key="57" pan="0" vol="100" pos="720"/>
                <note len="-192" key="57" pan="0" vol="100" pos="732"/>
                <note len="-192" key="57" pan="0" vol="100" pos="744"/>
                <note len="-192" key="57" pan="0" vol="100" pos="756"/>
              </pattern>
              <pattern muted="0" name="" steps="16" type="0" pos="768">
                <note len="-192" key="57" pan="0" vol="100" pos="0"/>
                <note len="-192" key="57" pan="0" vol="100" pos="12"/>
                <note len="-192" key="57" pan="0" vol="100" pos="24"/>
                <note len="-192" key="57" pan="0" vol="100" pos="36"/>
                <note len="-192" key="57" pan="0" vol="100" pos="48"/>
                <note len="-192" key="57" pan="0" vol="100" pos="60"/>
                <note len="-192" key="57" pan="0" vol="100" pos="72"/>
                <note len="-192" key="57" pan="0" vol="100" pos="84"/>
                <note len="-192" key="57" pan="0" vol="100" pos="96"/>
                <note len="-192" key="57" pan="0" vol="100" pos="108"/>
                <note len="-192" key="57" pan="0" vol="100" pos="120"/>
                <note len="-192" key="57" pan="0" vol="100" pos="132"/>
                <note len="-192" key="57" pan="0" vol="100" pos="144"/>
                <note len="-192" key="57" pan="0" vol="100" pos="156"/>
                <note len="-192" key="57" pan="0" vol="100" pos="168"/>
                <note len="-192" key="57" pan="0" vol="100" pos="180"/>
              </pattern>
              <pattern muted="0" name="" steps="64" type="0" pos="960">
                <note len="-192" key="57" pan="0" vol="100" pos="0"/>
                <note len="-192" key="57" pan="0" vol="100" pos="48"/>
                <note len="-192" key="57" pan="0" vol="100" pos="96"/>
                <note len="-192" key="57" pan="0" vol="100" pos="144"/>
                <note len="-192" key="57" pan="0" vol="100" pos="156"/>
                <note len="-192" key="57" pan="0" vol="100" pos="168"/>
                <note len="-192" key="57" pan="0" vol="100" pos="180"/>
                <note len="-192" key="57" pan="0" vol="100" pos="192"/>
                <note len="-192" key="57" pan="0" vol="100" pos="240"/>
                <note len="-192" key="57" pan="0" vol="100" pos="288"/>
                <note len="-192" key="57" pan="0" vol="100" pos="336"/>
                <note len="-192" key="57" pan="0" vol="100" pos="348"/>
                <note len="-192" key="57" pan="0" vol="100" pos="360"/>
                <note len="-192" key="57" pan="0" vol="100" pos="372"/>
                <note len="-192" key="57" pan="0" vol="100" pos="384"/>
                <note len="-192" key="57" pan="0" vol="100" pos="432"/>
                <note len="-192" key="57" pan="0" vol="100" pos="480"/>
                <note len="-192" key="57" pan="0" vol="100" pos="528"/>
                <note len="-192" key="57" pan="0" vol="100" pos="540"/>
                <note len="-192" key="57" pan="0" vol="100" pos="552"/>
                <note len="-192" key="57" pan="0" vol="100" pos="564"/>
                <note len="-192" key="57" pan="0" vol="100" pos="576"/>
                <note len="-192" key="57" pan="0" vol="100" pos="588"/>
                <note len="-192" key="57" pan="0" vol="100" pos="600"/>
                <note len="-192" key="57" pan="0" vol="100" pos="612"/>
                <note len="-192" key="57" pan="0" vol="100" pos="624"/>
                <note len="-192" key="57" pan="0" vol="100" pos="636"/>
                <note len="-192" key="57" pan="0" vol="100" pos="648"/>
                <note len="-192" key="57" pan="0" vol="100" pos="660"/>
                <note len="-192" key="57" pan="0" vol="100" pos="672"/>
                <note len="-192" key="57" pan="0" vol="100" pos="684"/>
                <note len="-192" key="57" pan="0" vol="100" pos="696"/>
                <note len="-192" key="57" pan="0" vol="100" pos="708"/>
                <note len="-192" key="57" pan="0" vol="100" pos="720"/>
                <note len="-192" key="57" pan="0" vol="100" pos="732"/>
                <note len="-192" key="57" pan="0" vol="100" pos="744"/>
                <note len="-192" key="57" pan="0" vol="100" pos="756"/>
              </pattern>
              <pattern muted="0" name="" steps="64" type="0" pos="1152">
                <note len="-192" key="57" pan="0" vol="100" pos="0"/>
                <note len="-192" key="57" pan="0" vol="100" pos="48"/>
                <note len="-192" key="57" pan="0" vol="100" pos="96"/>
                <note len="-192" key="57" pan="0" vol="100" pos="144"/>
                <note len="-192" key="57" pan="0" vol="100" pos="156"/>
                <note len="-192" key="57" pan="0" vol="100" pos="168"/>
                <note len="-192" key="57" pan="0" vol="100" pos="180"/>
                <note len="-192" key="57" pan="0" vol="100" pos="192"/>
                <note len="-192" key="57" pan="0" vol="100" pos="240"/>
                <note len="-192" key="57" pan="0" vol="100" pos="288"/>
                <note len="-192" key="57" pan="0" vol="100" pos="336"/>
                <note len="-192" key="57" pan="0" vol="100" pos="348"/>
                <note len="-192" key="57" pan="0" vol="100" pos="360"/>
                <note len="-192" key="57" pan="0" vol="100" pos="372"/>
                <note len="-192" key="57" pan="0" vol="100" pos="384"/>
                <note len="-192" key="57" pan="0" vol="100" pos="432"/>
                <note len="-192" key="57" pan="0" vol="100" pos="480"/>
                <note len="-192" key="57" pan="0" vol="100" pos="528"/>
                <note len="-192" key="57" pan="0" vol="100" pos="540"/>
                <note len="-192" key="57" pan="0" vol="100" pos="552"/>
                <note len="-192" key="57" pan="0" vol="100" pos="564"/>
                <note len="-192" key="57" pan="0" vol="100" pos="576"/>
                <note len="-192" key="57" pan="0" vol="100" pos="624"/>
                <note len="-192" key="57" pan="0" vol="100" pos="672"/>
                <note len="-192" key="57" pan="0" vol="100" pos="720"/>
                <note len="-192" key="57" pan="0" vol="100" pos="732"/>
                <note len="-192" key="57" pan="0" vol="100" pos="744"/>
                <note len="-192" key="57" pan="0" vol="100" pos="756"/>
              </pattern>
              <pattern muted="0" name="" steps="32" type="0" pos="1344">
                <note len="-192" key="57" pan="0" vol="100" pos="0"/>
              </pattern>
              <pattern muted="0" name="" steps="64" type="0" pos="1536">
                <note len="-192" key="57" pan="0" vol="100" pos="0"/>
                <note len="-192" key="57" pan="0" vol="100" pos="12"/>
                <note len="-192" key="57" pan="0" vol="100" pos="24"/>
                <note len="-192" key="57" pan="0" vol="100" pos="48"/>
                <note len="-192" key="57" pan="0" vol="100" pos="60"/>
                <note len="-192" key="57" pan="0" vol="100" pos="72"/>
                <note len="-192" key="57" pan="0" vol="100" pos="96"/>
                <note len="-192" key="57" pan="0" vol="100" pos="108"/>
                <note len="-192" key="57" pan="0" vol="100" pos="120"/>
                <note len="-192" key="57" pan="0" vol="100" pos="144"/>
                <note len="-192" key="57" pan="0" vol="100" pos="156"/>
                <note len="-192" key="57" pan="0" vol="100" pos="168"/>
                <note len="-192" key="57" pan="0" vol="100" pos="192"/>
                <note len="-192" key="57" pan="0" vol="100" pos="204"/>
                <note len="-192" key="57" pan="0" vol="100" pos="216"/>
                <note len="-192" key="57" pan="0" vol="100" pos="240"/>
                <note len="-192" key="57" pan="0" vol="100" pos="252"/>
                <note len="-192" key="57" pan="0" vol="100" pos="264"/>
                <note len="-192" key="57" pan="0" vol="100" pos="276"/>
                <note len="-192" key="57" pan="0" vol="100" pos="288"/>
                <note len="-192" key="57" pan="0" vol="100" pos="300"/>
                <note len="-192" key="57" pan="0" vol="100" pos="312"/>
                <note len="-192" key="57" pan="0" vol="100" pos="324"/>
                <note len="-192" key="57" pan="0" vol="100" pos="336"/>
                <note len="-192" key="57" pan="0" vol="100" pos="348"/>
                <note len="-192" key="57" pan="0" vol="100" pos="360"/>
                <note len="-192" key="57" pan="0" vol="100" pos="372"/>
                <note len="-192" key="57" pan="0" vol="100" pos="384"/>
                <note len="-192" key="57" pan="0" vol="100" pos="396"/>
                <note len="-192" key="57" pan="0" vol="100" pos="408"/>
                <note len="-192" key="57" pan="0" vol="100" pos="432"/>
                <note len="-192" key="57" pan="0" vol="100" pos="444"/>
                <note len="-192" key="57" pan="0" vol="100" pos="456"/>
                <note len="-192" key="57" pan="0" vol="100" pos="480"/>
                <note len="-192" key="57" pan="0" vol="100" pos="492"/>
                <note len="-192" key="57" pan="0" vol="100" pos="504"/>
                <note len="-192" key="57" pan="0" vol="100" pos="528"/>
                <note len="-192" key="57" pan="0" vol="100" pos="540"/>
                <note len="-192" key="57" pan="0" vol="100" pos="552"/>
                <note len="-192" key="57" pan="0" vol="100" pos="576"/>
                <note len="-192" key="57" pan="0" vol="100" pos="588"/>
                <note len="-192" key="57" pan="0" vol="100" pos="600"/>
                <note len="-192" key="57" pan="0" vol="100" pos="624"/>
                <note len="-192" key="57" pan="0" vol="100" pos="636"/>
                <note len="-192" key="57" pan="0" vol="100" pos="648"/>
                <note len="-192" key="57" pan="0" vol="100" pos="660"/>
                <note len="-192" key="57" pan="0" vol="100" pos="672"/>
                <note len="-192" key="57" pan="0" vol="100" pos="684"/>
                <note len="-192" key="57" pan="0" vol="100" pos="696"/>
                <note len="-192" key="57" pan="0" vol="100" pos="708"/>
                <note len="-192" key="57" pan="0" vol="100" pos="720"/>
                <note len="-192" key="57" pan="0" vol="100" pos="732"/>
                <note len="-192" key="57" pan="0" vol="100" pos="744"/>
                <note len="-192" key="57" pan="0" vol="100" pos="756"/>
              </pattern>
              <pattern muted="0" name="" steps="32" type="0" pos="1728">
                <note len="-192" key="57" pan="0" vol="100" pos="0"/>
                <note len="-192" key="57" pan="0" vol="100" pos="12"/>
                <note len="-192" key="57" pan="0" vol="100" pos="24"/>
                <note len="-192" key="57" pan="0" vol="100" pos="36"/>
                <note len="-192" key="57" pan="0" vol="100" pos="48"/>
                <note len="-192" key="57" pan="0" vol="100" pos="60"/>
                <note len="-192" key="57" pan="0" vol="100" pos="72"/>
                <note len="-192" key="57" pan="0" vol="100" pos="84"/>
                <note len="-192" key="57" pan="0" vol="100" pos="96"/>
                <note len="-192" key="57" pan="0" vol="100" pos="108"/>
                <note len="-192" key="57" pan="0" vol="100" pos="120"/>
                <note len="-192" key="57" pan="0" vol="100" pos="132"/>
                <note len="-192" key="57" pan="0" vol="100" pos="144"/>
                <note len="-192" key="57" pan="0" vol="100" pos="156"/>
                <note len="-192" key="57" pan="0" vol="100" pos="168"/>
                <note len="-192" key="57" pan="0" vol="100" pos="180"/>
                <note len="-192" key="57" pan="0" vol="100" pos="192"/>
                <note len="-192" key="57" pan="0" vol="100" pos="204"/>
                <note len="-192" key="57" pan="0" vol="100" pos="216"/>
                <note len="-192" key="57" pan="0" vol="100" pos="228"/>
                <note len="-192" key="57" pan="0" vol="100" pos="240"/>
                <note len="-192" key="57" pan="0" vol="100" pos="252"/>
                <note len="-192" key="57" pan="0" vol="100" pos="264"/>
                <note len="-192" key="57" pan="0" vol="100" pos="276"/>
                <note len="-192" key="57" pan="0" vol="100" pos="288"/>
                <note len="-192" key="57" pan="0" vol="100" pos="300"/>
                <note len="-192" key="57" pan="0" vol="100" pos="312"/>
                <note len="-192" key="57" pan="0" vol="100" pos="324"/>
                <note len="-192" key="57" pan="0" vol="100" pos="336"/>
                <note len="-192" key="57" pan="0" vol="100" pos="348"/>
                <note len="-192" key="57" pan="0" vol="100" pos="360"/>
                <note len="-192" key="57" pan="0" vol="100" pos="372"/>
              </pattern>
              <pattern muted="0" name="" steps="32" type="0" pos="1920">
                <note len="-192" key="57" pan="0" vol="100" pos="0"/>
                <note len="-192" key="57" pan="0" vol="100" pos="12"/>
                <note len="-192" key="57" pan="0" vol="100" pos="24"/>
                <note len="-192" key="57" pan="0" vol="100" pos="36"/>
                <note len="-192" key="57" pan="0" vol="100" pos="48"/>
                <note len="-192" key="57" pan="0" vol="100" pos="60"/>
                <note len="-192" key="57" pan="0" vol="100" pos="72"/>
                <note len="-192" key="57" pan="0" vol="100" pos="84"/>
                <note len="-192" key="57" pan="0" vol="100" pos="96"/>
                <note len="-192" key="57" pan="0" vol="100" pos="108"/>
                <note len="-192" key="57" pan="0" vol="100" pos="120"/>
                <note len="-192" key="57" pan="0" vol="100" pos="132"/>
                <note len="-192" key="57" pan="0" vol="100" pos="144"/>
                <note len="-192" key="57" pan="0" vol="100" pos="156"/>
                <note len="-192" key="57" pan="0" vol="100" pos="168"/>
                <note len="-192" key="57" pan="0" vol="100" pos="180"/>
                <note len="-192" key="57" pan="0" vol="100" pos="192"/>
                <note len="-192" key="57" pan="0" vol="100" pos="288"/>
                <note len="-192" key="57" pan="0" vol="100" pos="300"/>
                <note len="-192" key="57" pan="0" vol="100" pos="312"/>
                <note len="-192" key="57" pan="0" vol="100" pos="324"/>
                <note len="-192" key="57" pan="0" vol="100" pos="336"/>
                <note len="-192" key="57" pan="0" vol="100" pos="348"/>
                <note len="-192" key="57" pan="0" vol="100" pos="360"/>
                <note len="-192" key="57" pan="0" vol="100" pos="372"/>
              </pattern>
              <pattern muted="0" name="" steps="64" type="0" pos="2112">
                <note len="-192" key="57" pan="0" vol="100" pos="0"/>
                <note len="-192" key="57" pan="0" vol="100" pos="12"/>
                <note len="-192" key="57" pan="0" vol="100" pos="24"/>
                <note len="-192" key="57" pan="0" vol="100" pos="36"/>
                <note len="-192" key="57" pan="0" vol="100" pos="48"/>
                <note len="-192" key="57" pan="0" vol="100" pos="60"/>
                <note len="-192" key="57" pan="0" vol="100" pos="72"/>
                <note len="-192" key="57" pan="0" vol="100" pos="84"/>
                <note len="-192" key="57" pan="0" vol="100" pos="96"/>
                <note len="-192" key="57" pan="0" vol="100" pos="108"/>
                <note len="-192" key="57" pan="0" vol="100" pos="120"/>
                <note len="-192" key="57" pan="0" vol="100" pos="132"/>
                <note len="-192" key="57" pan="0" vol="100" pos="144"/>
                <note len="-192" key="57" pan="0" vol="100" pos="156"/>
                <note len="-192" key="57" pan="0" vol="100" pos="168"/>
                <note len="-192" key="57" pan="0" vol="100" pos="180"/>
                <note len="-192" key="57" pan="0" vol="100" pos="192"/>
                <note len="-192" key="57" pan="0" vol="100" pos="204"/>
                <note len="-192" key="57" pan="0" vol="100" pos="216"/>
                <note len="-192" key="57" pan="0" vol="100" pos="228"/>
                <note len="-192" key="57" pan="0" vol="100" pos="240"/>
                <note len="-192" key="57" pan="0" vol="100" pos="252"/>
                <note len="-192" key="57" pan="0" vol="100" pos="264"/>
                <note len="-192" key="57" pan="0" vol="100" pos="276"/>
                <note len="-192" key="57" pan="0" vol="100" pos="288"/>
                <note len="-192" key="57" pan="0" vol="100" pos="300"/>
                <note len="-192" key="57" pan="0" vol="100" pos="312"/>
                <note len="-192" key="57" pan="0" vol="100" pos="324"/>
                <note len="-192" key="57" pan="0" vol="100" pos="336"/>
                <note len="-192" key="57" pan="0" vol="100" pos="348"/>
                <note len="-192" key="57" pan="0" vol="100" pos="360"/>
                <note len="-192" key="57" pan="0" vol="100" pos="372"/>
                <note len="-192" key="57" pan="0" vol="100" pos="384"/>
                <note len="-192" key="57" pan="0" vol="100" pos="396"/>
                <note len="-192" key="57" pan="0" vol="100" pos="408"/>
                <note len="-192" key="57" pan="0" vol="100" pos="420"/>
                <note len="-192" key="57" pan="0" vol="100" pos="432"/>
                <note len="-192" key="57" pan="0" vol="100" pos="444"/>
                <note len="-192" key="57" pan="0" vol="100" pos="456"/>
                <note len="-192" key="57" pan="0" vol="100" pos="468"/>
                <note len="-192" key="57" pan="0" vol="100" pos="480"/>
                <note len="-192" key="57" pan="0" vol="100" pos="492"/>
                <note len="-192" key="57" pan="0" vol="100" pos="504"/>
                <note len="-192" key="57" pan="0" vol="100" pos="516"/>
                <note len="-192" key="57" pan="0" vol="100" pos="528"/>
                <note len="-192" key="57" pan="0" vol="100" pos="540"/>
                <note len="-192" key="57" pan="0" vol="100" pos="552"/>
                <note len="-192" key="57" pan="0" vol="100" pos="564"/>
                <note len="-192" key="57" pan="0" vol="100" pos="576"/>
                <note len="-192" key="57" pan="0" vol="100" pos="588"/>
                <note len="-192" key="57" pan="0" vol="100" pos="600"/>
                <note len="-192" key="57" pan="0" vol="100" pos="612"/>
                <note len="-192" key="57" pan="0" vol="100" pos="624"/>
                <note len="-192" key="57" pan="0" vol="100" pos="636"/>
                <note len="-192" key="57" pan="0" vol="100" pos="648"/>
                <note len="-192" key="57" pan="0" vol="100" pos="660"/>
                <note len="-192" key="57" pan="0" vol="100" pos="672"/>
                <note len="-192" key="57" pan="0" vol="100" pos="684"/>
                <note len="-192" key="57" pan="0" vol="100" pos="696"/>
                <note len="-192" key="57" pan="0" vol="100" pos="708"/>
                <note len="-192" key="57" pan="0" vol="100" pos="720"/>
                <note len="-192" key="57" pan="0" vol="100" pos="732"/>
                <note len="-192" key="57" pan="0" vol="100" pos="744"/>
                <note len="-192" key="57" pan="0" vol="100" pos="756"/>
              </pattern>
              <pattern muted="0" name="" steps="32" type="0" pos="2304">
                <note len="-192" key="57" pan="0" vol="100" pos="0"/>
                <note len="-192" key="57" pan="0" vol="100" pos="12"/>
                <note len="-192" key="57" pan="0" vol="100" pos="24"/>
                <note len="-192" key="57" pan="0" vol="100" pos="36"/>
                <note len="-192" key="57" pan="0" vol="100" pos="48"/>
                <note len="-192" key="57" pan="0" vol="100" pos="60"/>
                <note len="-192" key="57" pan="0" vol="100" pos="72"/>
                <note len="-192" key="57" pan="0" vol="100" pos="84"/>
                <note len="-192" key="57" pan="0" vol="100" pos="96"/>
                <note len="-192" key="57" pan="0" vol="100" pos="108"/>
                <note len="-192" key="57" pan="0" vol="100" pos="120"/>
                <note len="-192" key="57" pan="0" vol="100" pos="132"/>
                <note len="-192" key="57" pan="0" vol="100" pos="144"/>
                <note len="-192" key="57" pan="0" vol="100" pos="156"/>
                <note len="-192" key="57" pan="0" vol="100" pos="168"/>
                <note len="-192" key="57" pan="0" vol="100" pos="180"/>
                <note len="-192" key="57" pan="0" vol="100" pos="192"/>
                <note len="-192" key="57" pan="0" vol="100" pos="204"/>
                <note len="-192" key="57" pan="0" vol="100" pos="216"/>
                <note len="-192" key="57" pan="0" vol="100" pos="228"/>
                <note len="-192" key="57" pan="0" vol="100" pos="240"/>
                <note len="-192" key="57" pan="0" vol="100" pos="252"/>
                <note len="-192" key="57" pan="0" vol="100" pos="264"/>
                <note len="-192" key="57" pan="0" vol="100" pos="276"/>
                <note len="-192" key="57" pan="0" vol="100" pos="288"/>
                <note len="-192" key="57" pan="0" vol="100" pos="300"/>
                <note len="-192" key="57" pan="0" vol="100" pos="312"/>
                <note len="-192" key="57" pan="0" vol="100" pos="324"/>
                <note len="-192" key="57" pan="0" vol="100" pos="336"/>
                <note len="-192" key="57" pan="0" vol="100" pos="348"/>
                <note len="-192" key="57" pan="0" vol="100" pos="360"/>
                <note len="-192" key="57" pan="0" vol="100" pos="372"/>
              </pattern>
              <pattern muted="0" name="" steps="32" type="0" pos="2496">
                <note len="-192" key="57" pan="0" vol="100" pos="0"/>
                <note len="-192" key="57" pan="0" vol="100" pos="12"/>
                <note len="-192" key="57" pan="0" vol="100" pos="24"/>
                <note len="-192" key="57" pan="0" vol="100" pos="36"/>
                <note len="-192" key="57" pan="0" vol="100" pos="48"/>
                <note len="-192" key="57" pan="0" vol="100" pos="60"/>
                <note len="-192" key="57" pan="0" vol="100" pos="72"/>
                <note len="-192" key="57" pan="0" vol="100" pos="84"/>
                <note len="-192" key="57" pan="0" vol="100" pos="96"/>
                <note len="-192" key="57" pan="0" vol="100" pos="108"/>
                <note len="-192" key="57" pan="0" vol="100" pos="120"/>
                <note len="-192" key="57" pan="0" vol="100" pos="132"/>
                <note len="-192" key="57" pan="0" vol="100" pos="144"/>
                <note len="-192" key="57" pan="0" vol="100" pos="156"/>
                <note len="-192" key="57" pan="0" vol="100" pos="168"/>
                <note len="-192" key="57" pan="0" vol="100" pos="180"/>
                <note len="-192" key="57" pan="0" vol="100" pos="192"/>
                <note len="-192" key="57" pan="0" vol="100" pos="204"/>
                <note len="-192" key="57" pan="0" vol="100" pos="216"/>
                <note len="-192" key="57" pan="0" vol="100" pos="228"/>
                <note len="-192" key="57" pan="0" vol="100" pos="240"/>
                <note len="-192" key="57" pan="0" vol="100" pos="252"/>
                <note len="-192" key="57" pan="0" vol="100" pos="264"/>
                <note len="-192" key="57" pan="0" vol="100" pos="276"/>
                <note len="-192" key="57" pan="0" vol="100" pos="288"/>
                <note len="-192" key="57" pan="0" vol="100" pos="300"/>
                <note len="-192" key="57" pan="0" vol="100" pos="312"/>
                <note len="-192" key="57" pan="0" vol="100" pos="324"/>
                <note len="-192" key="57" pan="0" vol="100" pos="336"/>
                <note len="-192" key="57" pan="0" vol="100" pos="348"/>
                <note len="-192" key="57" pan="0" vol="100" pos="360"/>
                <note len="-192" key="57" pan="0" vol="100" pos="372"/>
              </pattern>
              <pattern muted="0" name="" steps="64" type="0" pos="2688">
                <note len="-192" key="57" pan="0" vol="100" pos="0"/>
                <note len="-192" key="57" pan="0" vol="100" pos="12"/>
                <note len="-192" key="57" pan="0" vol="100" pos="24"/>
                <note len="-192" key="57" pan="0" vol="100" pos="36"/>
                <note len="-192" key="57" pan="0" vol="100" pos="48"/>
                <note len="-192" key="57" pan="0" vol="100" pos="60"/>
                <note len="-192" key="57" pan="0" vol="100" pos="72"/>
                <note len="-192" key="57" pan="0" vol="100" pos="84"/>
                <note len="-192" key="57" pan="0" vol="100" pos="96"/>
                <note len="-192" key="57" pan="0" vol="100" pos="108"/>
                <note len="-192" key="57" pan="0" vol="100" pos="120"/>
                <note len="-192" key="57" pan="0" vol="100" pos="132"/>
                <note len="-192" key="57" pan="0" vol="100" pos="144"/>
                <note len="-192" key="57" pan="0" vol="100" pos="156"/>
                <note len="-192" key="57" pan="0" vol="100" pos="168"/>
                <note len="-192" key="57" pan="0" vol="100" pos="180"/>
                <note len="-192" key="57" pan="0" vol="100" pos="192"/>
                <note len="-192" key="57" pan="0" vol="100" pos="204"/>
                <note len="-192" key="57" pan="0" vol="100" pos="216"/>
                <note len="-192" key="57" pan="0" vol="100" pos="228"/>
                <note len="-192" key="57" pan="0" vol="100" pos="240"/>
                <note len="-192" key="57" pan="0" vol="100" pos="252"/>
                <note len="-192" key="57" pan="0" vol="100" pos="264"/>
                <note len="-192" key="57" pan="0" vol="100" pos="276"/>
                <note len="-192" key="57" pan="0" vol="100" pos="288"/>
                <note len="-192" key="57" pan="0" vol="100" pos="300"/>
                <note len="-192" key="57" pan="0" vol="100" pos="312"/>
                <note len="-192" key="57" pan="0" vol="100" pos="324"/>
                <note len="-192" key="57" pan="0" vol="100" pos="336"/>
                <note len="-192" key="57" pan="0" vol="100" pos="348"/>
                <note len="-192" key="57" pan="0" vol="100" pos="360"/>
                <note len="-192" key="57" pan="0" vol="100" pos="372"/>
                <note len="-192" key="57" pan="0" vol="100" pos="384"/>
                <note len="-192" key="57" pan="0" vol="100" pos="396"/>
                <note len="-192" key="57" pan="0" vol="100" pos="408"/>
                <note len="-192" key="57" pan="0" vol="100" pos="420"/>
                <note len="-192" key="57" pan="0" vol="100" pos="432"/>
                <note len="-192" key="57" pan="0" vol="100" pos="444"/>
                <note len="-192" key="57" pan="0" vol="100" pos="456"/>
                <note len="-192" key="57" pan="0" vol="100" pos="468"/>
                <note len="-192" key="57" pan="0" vol="100" pos="480"/>
                <note len="-192" key="57" pan="0" vol="100" pos="492"/>
                <note len="-192" key="57" pan="0" vol="100" pos="504"/>
                <note len="-192" key="57" pan="0" vol="100" pos="516"/>
                <note len="-192" key="57" pan="0" vol="100" pos="528"/>
                <note len="-192" key="57" pan="0" vol="100" pos="540"/>
                <note len="-192" key="57" pan="0" vol="100" pos="552"/>
                <note len="-192" key="57" pan="0" vol="100" pos="564"/>
                <note len="-192" key="57" pan="0" vol="100" pos="576"/>
                <note len="-192" key="57" pan="0" vol="100" pos="588"/>
                <note len="-192" key="57" pan="0" vol="100" pos="600"/>
                <note len="-192" key="57" pan="0" vol="100" pos="612"/>
                <note len="-192" key="57" pan="0" vol="100" pos="624"/>
                <note len="-192" key="57" pan="0" vol="100" pos="636"/>
                <note len="-192" key="57" pan="0" vol="100" pos="648"/>
                <note len="-192" key="57" pan="0" vol="100" pos="660"/>
                <note len="-192" key="57" pan="0" vol="100" pos="672"/>
                <note len="-192" key="57" pan="0" vol="100" pos="684"/>
                <note len="-192" key="57" pan="0" vol="100" pos="696"/>
                <note len="-192" key="57" pan="0" vol="100" pos="708"/>
                <note len="-192" key="57" pan="0" vol="100" pos="720"/>
                <note len="-192" key="57" pan="0" vol="100" pos="732"/>
                <note len="-192" key="57" pan="0" vol="100" pos="744"/>
                <note len="-192" key="57" pan="0" vol="100" pos="756"/>
              </pattern>
              <pattern muted="0" name="" steps="16" type="0" pos="2880">
                <note len="-192" key="57" pan="0" vol="100" pos="0"/>
                <note len="-192" key="57" pan="0" vol="100" pos="48"/>
                <note len="-192" key="57" pan="0" vol="100" pos="96"/>
                <note len="-192" key="57" pan="0" vol="100" pos="144"/>
                <note len="-192" key="57" pan="0" vol="100" pos="156"/>
                <note len="-192" key="57" pan="0" vol="100" pos="168"/>
                <note len="-192" key="57" pan="0" vol="100" pos="180"/>
              </pattern>
              <pattern muted="0" name="" steps="16" type="0" pos="3072">
                <note len="-192" key="57" pan="0" vol="100" pos="0"/>
                <note len="-192" key="57" pan="0" vol="100" pos="12"/>
                <note len="-192" key="57" pan="0" vol="100" pos="24"/>
                <note len="-192" key="57" pan="0" vol="100" pos="36"/>
                <note len="-192" key="57" pan="0" vol="100" pos="48"/>
                <note len="-192" key="57" pan="0" vol="100" pos="60"/>
                <note len="-192" key="57" pan="0" vol="100" pos="72"/>
                <note len="-192" key="57" pan="0" vol="100" pos="84"/>
                <note len="-192" key="57" pan="0" vol="100" pos="96"/>
                <note len="-192" key="57" pan="0" vol="100" pos="144"/>
              </pattern>
              <pattern muted="0" name="" steps="16" type="0" pos="3264">
                <note len="-192" key="57" pan="0" vol="100" pos="0"/>
                <note len="-192" key="57" pan="0" vol="100" pos="24"/>
                <note len="-192" key="57" pan="0" vol="100" pos="96"/>
                <note len="-192" key="57" pan="0" vol="100" pos="120"/>
              </pattern>
              <pattern muted="0" name="" steps="32" type="0" pos="3456">
                <note len="-192" key="57" pan="0" vol="100" pos="96"/>
                <note len="-192" key="57" pan="0" vol="100" pos="192"/>
                <note len="-192" key="57" pan="0" vol="100" pos="288"/>
                <note len="-192" key="57" pan="0" vol="100" pos="336"/>
                <note len="-192" key="57" pan="0" vol="100" pos="348"/>
                <note len="-192" key="57" pan="0" vol="100" pos="360"/>
                <note len="-192" key="57" pan="0" vol="100" pos="372"/>
              </pattern>
              <pattern muted="0" name="" steps="16" type="0" pos="3648">
                <note len="-192" key="57" pan="0" vol="100" pos="0"/>
                <note len="-192" key="57" pan="0" vol="100" pos="96"/>
              </pattern>
              <pattern muted="0" name="" steps="32" type="0" pos="3840">
                <note len="-192" key="57" pan="0" vol="100" pos="0"/>
                <note len="-192" key="57" pan="0" vol="100" pos="192"/>
                <note len="-192" key="57" pan="0" vol="100" pos="288"/>
                <note len="-192" key="57" pan="0" vol="100" pos="360"/>
                <note len="-192" key="57" pan="0" vol="100" pos="372"/>
              </pattern>
              <pattern muted="0" name="" steps="64" type="0" pos="4032">
                <note len="-192" key="57" pan="0" vol="100" pos="0"/>
                <note len="-192" key="57" pan="0" vol="100" pos="48"/>
                <note len="-192" key="57" pan="0" vol="100" pos="96"/>
                <note len="-192" key="57" pan="0" vol="100" pos="144"/>
                <note len="-192" key="57" pan="0" vol="100" pos="192"/>
                <note len="-192" key="57" pan="0" vol="100" pos="240"/>
                <note len="-192" key="57" pan="0" vol="100" pos="288"/>
                <note len="-192" key="57" pan="0" vol="100" pos="336"/>
                <note len="-192" key="57" pan="0" vol="100" pos="384"/>
                <note len="-192" key="57" pan="0" vol="100" pos="432"/>
                <note len="-192" key="57" pan="0" vol="100" pos="480"/>
                <note len="-192" key="57" pan="0" vol="100" pos="528"/>
                <note len="-192" key="57" pan="0" vol="100" pos="576"/>
                <note len="-192" key="57" pan="0" vol="100" pos="624"/>
                <note len="-192" key="57" pan="0" vol="100" pos="672"/>
                <note len="-192" key="57" pan="0" vol="100" pos="684"/>
                <note len="-192" key="57" pan="0" vol="100" pos="696"/>
                <note len="-192" key="57" pan="0" vol="100" pos="708"/>
                <note len="-192" key="57" pan="0" vol="100" pos="720"/>
                <note len="-192" key="57" pan="0" vol="100" pos="732"/>
                <note len="-192" key="57" pan="0" vol="100" pos="744"/>
                <note len="-192" key="57" pan="0" vol="100" pos="756"/>
              </pattern>
              <pattern muted="0" name="" steps="64" type="0" pos="4224">
                <note len="-192" key="57" pan="0" vol="100" pos="0"/>
                <note len="-192" key="57" pan="0" vol="100" pos="144"/>
                <note len="-192" key="57" pan="0" vol="100" pos="192"/>
                <note len="-192" key="57" pan="0" vol="100" pos="336"/>
                <note len="-192" key="57" pan="0" vol="100" pos="384"/>
                <note len="-192" key="57" pan="0" vol="100" pos="528"/>
                <note len="-192" key="57" pan="0" vol="100" pos="576"/>
                <note len="-192" key="57" pan="0" vol="100" pos="624"/>
                <note len="-192" key="57" pan="0" vol="100" pos="672"/>
                <note len="-192" key="57" pan="0" vol="100" pos="684"/>
                <note len="-192" key="57" pan="0" vol="100" pos="696"/>
                <note len="-192" key="57" pan="0" vol="100" pos="708"/>
                <note len="-192" key="57" pan="0" vol="100" pos="720"/>
                <note len="-192" key="57" pan="0" vol="100" pos="732"/>
                <note len="-192" key="57" pan="0" vol="100" pos="744"/>
                <note len="-192" key="57" pan="0" vol="100" pos="756"/>
              </pattern>
              <pattern muted="0" name="" steps="32" type="0" pos="4416">
                <note len="-192" key="57" pan="0" vol="100" pos="0"/>
                <note len="-192" key="57" pan="0" vol="100" pos="12"/>
                <note len="-192" key="57" pan="0" vol="100" pos="24"/>
                <note len="-192" key="57" pan="0" vol="100" pos="36"/>
                <note len="-192" key="57" pan="0" vol="100" pos="48"/>
                <note len="-192" key="57" pan="0" vol="100" pos="60"/>
                <note len="-192" key="57" pan="0" vol="100" pos="72"/>
                <note len="-192" key="57" pan="0" vol="100" pos="84"/>
                <note len="-192" key="57" pan="0" vol="100" pos="96"/>
                <note len="-192" key="57" pan="0" vol="100" pos="108"/>
                <note len="-192" key="57" pan="0" vol="100" pos="120"/>
                <note len="-192" key="57" pan="0" vol="100" pos="132"/>
                <note len="-192" key="57" pan="0" vol="100" pos="144"/>
                <note len="-192" key="57" pan="0" vol="100" pos="156"/>
                <note len="-192" key="57" pan="0" vol="100" pos="168"/>
                <note len="-192" key="57" pan="0" vol="100" pos="180"/>
                <note len="-192" key="57" pan="0" vol="100" pos="192"/>
                <note len="-192" key="57" pan="0" vol="100" pos="204"/>
                <note len="-192" key="57" pan="0" vol="100" pos="216"/>
                <note len="-192" key="57" pan="0" vol="100" pos="228"/>
                <note len="-192" key="57" pan="0" vol="100" pos="240"/>
                <note len="-192" key="57" pan="0" vol="100" pos="252"/>
                <note len="-192" key="57" pan="0" vol="100" pos="264"/>
                <note len="-192" key="57" pan="0" vol="100" pos="276"/>
                <note len="-192" key="57" pan="0" vol="100" pos="288"/>
                <note len="-192" key="57" pan="0" vol="100" pos="300"/>
                <note len="-192" key="57" pan="0" vol="100" pos="312"/>
                <note len="-192" key="57" pan="0" vol="100" pos="324"/>
                <note len="-192" key="57" pan="0" vol="100" pos="336"/>
                <note len="-192" key="57" pan="0" vol="100" pos="348"/>
                <note len="-192" key="57" pan="0" vol="100" pos="360"/>
                <note len="-192" key="57" pan="0" vol="100" pos="372"/>
              </pattern>
              <pattern muted="0" name="" steps="32" type="0" pos="4608">
                <note len="-192" key="57" pan="0" vol="100" pos="0"/>
                <note len="-192" key="57" pan="0" vol="100" pos="12"/>
                <note len="-192" key="57" pan="0" vol="100" pos="24"/>
                <note len="-192" key="57" pan="0" vol="100" pos="36"/>
                <note len="-192" key="57" pan="0" vol="100" pos="48"/>
                <note len="-192" key="57" pan="0" vol="100" pos="60"/>
                <note len="-192" key="57" pan="0" vol="100" pos="72"/>
                <note len="-192" key="57" pan="0" vol="100" pos="84"/>
                <note len="-192" key="57" pan="0" vol="100" pos="96"/>
                <note len="-192" key="57" pan="0" vol="100" pos="108"/>
                <note len="-192" key="57" pan="0" vol="100" pos="120"/>
                <note len="-192" key="57" pan="0" vol="100" pos="132"/>
                <note len="-192" key="57" pan="0" vol="100" pos="144"/>
                <note len="-192" key="57" pan="0" vol="100" pos="156"/>
                <note len="-192" key="57" pan="0" vol="100" pos="168"/>
                <note len="-192" key="57" pan="0" vol="100" pos="180"/>
                <note len="-192" key="57" pan="0" vol="100" pos="192"/>
              </pattern>
              <pattern muted="0" name="" steps="16" type="0" pos="4800">
                <note len="-192" key="57" pan="0" vol="100" pos="0"/>
                <note len="-192" key="57" pan="0" vol="100" pos="96"/>
                <note len="-192" key="57" pan="0" vol="100" pos="168"/>
                <note len="-192" key="57" pan="0" vol="100" pos="180"/>
              </pattern>
              <pattern muted="0" name="" steps="32" type="0" pos="4992">
                <note len="-192" key="57" pan="0" vol="100" pos="0"/>
                <note len="-192" key="57" pan="0" vol="100" pos="24"/>
                <note len="-192" key="57" pan="0" vol="100" pos="36"/>
                <note len="-192" key="57" pan="0" vol="100" pos="48"/>
                <note len="-192" key="57" pan="0" vol="100" pos="60"/>
                <note len="-192" key="57" pan="0" vol="100" pos="72"/>
                <note len="-192" key="57" pan="0" vol="100" pos="120"/>
                <note len="-192" key="57" pan="0" vol="100" pos="144"/>
                <note len="-192" key="57" pan="0" vol="100" pos="168"/>
                <note len="-192" key="57" pan="0" vol="100" pos="192"/>
                <note len="-192" key="57" pan="0" vol="100" pos="204"/>
                <note len="-192" key="57" pan="0" vol="100" pos="216"/>
                <note len="-192" key="57" pan="0" vol="100" pos="228"/>
                <note len="-192" key="57" pan="0" vol="100" pos="240"/>
                <note len="-192" key="57" pan="0" vol="100" pos="252"/>
                <note len="-192" key="57" pan="0" vol="100" pos="264"/>
                <note len="-192" key="57" pan="0" vol="100" pos="276"/>
                <note len="-192" key="57" pan="0" vol="100" pos="288"/>
                <note len="-192" key="57" pan="0" vol="100" pos="300"/>
                <note len="-192" key="57" pan="0" vol="100" pos="312"/>
                <note len="-192" key="57" pan="0" vol="100" pos="324"/>
                <note len="-192" key="57" pan="0" vol="100" pos="336"/>
                <note len="-192" key="57" pan="0" vol="100" pos="348"/>
                <note len="-192" key="57" pan="0" vol="100" pos="360"/>
                <note len="-192" key="57" pan="0" vol="100" pos="372"/>
              </pattern>
              <pattern muted="0" name="" steps="64" type="0" pos="5184">
                <note len="-192" key="57" pan="0" vol="100" pos="0"/>
                <note len="-192" key="57" pan="0" vol="100" pos="192"/>
                <note len="-192" key="57" pan="0" vol="100" pos="384"/>
                <note len="-192" key="57" pan="0" vol="100" pos="672"/>
              </pattern>
              <pattern muted="0" name="" steps="64" type="0" pos="5376">
                <note len="-192" key="57" pan="0" vol="100" pos="0"/>
                <note len="-192" key="57" pan="0" vol="100" pos="192"/>
                <note len="-192" key="57" pan="0" vol="100" pos="384"/>
                <note len="-192" key="57" pan="0" vol="100" pos="576"/>
                <note len="-192" key="57" pan="0" vol="100" pos="672"/>
              </pattern>
              <pattern muted="0" name="" steps="64" type="0" pos="5568">
                <note len="-192" key="57" pan="0" vol="100" pos="0"/>
                <note len="-192" key="57" pan="0" vol="100" pos="384"/>
                <note len="-192" key="57" pan="0" vol="100" pos="576"/>
                <note len="-192" key="57" pan="0" vol="100" pos="672"/>
              </pattern>
              <pattern muted="0" name="" steps="128" type="0" pos="5760">
                <note len="-192" key="57" pan="0" vol="100" pos="0"/>
                <note len="-192" key="57" pan="0" vol="100" pos="24"/>
                <note len="-192" key="57" pan="0" vol="100" pos="48"/>
                <note len="-192" key="57" pan="0" vol="100" pos="72"/>
                <note len="-192" key="57" pan="0" vol="100" pos="84"/>
                <note len="-192" key="57" pan="0" vol="100" pos="96"/>
                <note len="-192" key="57" pan="0" vol="100" pos="108"/>
                <note len="-192" key="57" pan="0" vol="100" pos="120"/>
                <note len="-192" key="57" pan="0" vol="100" pos="144"/>
                <note len="-192" key="57" pan="0" vol="100" pos="156"/>
                <note len="-192" key="57" pan="0" vol="100" pos="168"/>
                <note len="-192" key="57" pan="0" vol="100" pos="180"/>
                <note len="-192" key="57" pan="0" vol="100" pos="192"/>
                <note len="-192" key="57" pan="0" vol="100" pos="216"/>
                <note len="-192" key="57" pan="0" vol="100" pos="228"/>
                <note len="-192" key="57" pan="0" vol="100" pos="240"/>
                <note len="-192" key="57" pan="0" vol="100" pos="252"/>
                <note len="-192" key="57" pan="0" vol="100" pos="264"/>
                <note len="-192" key="57" pan="0" vol="100" pos="288"/>
                <note len="-192" key="57" pan="0" vol="100" pos="300"/>
                <note len="-192" key="57" pan="0" vol="100" pos="312"/>
                <note len="-192" key="57" pan="0" vol="100" pos="336"/>
                <note len="-192" key="57" pan="0" vol="100" pos="348"/>
                <note len="-192" key="57" pan="0" vol="100" pos="360"/>
                <note len="-192" key="57" pan="0" vol="100" pos="372"/>
                <note len="-192" key="57" pan="0" vol="100" pos="384"/>
                <note len="-192" key="57" pan="0" vol="100" pos="408"/>
                <note len="-192" key="57" pan="0" vol="100" pos="432"/>
                <note len="-192" key="57" pan="0" vol="100" pos="456"/>
                <note len="-192" key="57" pan="0" vol="100" pos="468"/>
                <note len="-192" key="57" pan="0" vol="100" pos="480"/>
                <note len="-192" key="57" pan="0" vol="100" pos="492"/>
                <note len="-192" key="57" pan="0" vol="100" pos="504"/>
                <note len="-192" key="57" pan="0" vol="100" pos="528"/>
                <note len="-192" key="57" pan="0" vol="100" pos="540"/>
                <note len="-192" key="57" pan="0" vol="100" pos="552"/>
                <note len="-192" key="57" pan="0" vol="100" pos="564"/>
                <note len="-192" key="57" pan="0" vol="100" pos="576"/>
                <note len="-192" key="57" pan="0" vol="100" pos="600"/>
                <note len="-192" key="57" pan="0" vol="100" pos="612"/>
                <note len="-192" key="57" pan="0" vol="100" pos="624"/>
                <note len="-192" key="57" pan="0" vol="100" pos="636"/>
                <note len="-192" key="57" pan="0" vol="100" pos="648"/>
                <note len="-192" key="57" pan="0" vol="100" pos="672"/>
                <note len="-192" key="57" pan="0" vol="100" pos="684"/>
                <note len="-192" key="57" pan="0" vol="100" pos="696"/>
                <note len="-192" key="57" pan="0" vol="100" pos="720"/>
                <note len="-192" key="57" pan="0" vol="100" pos="732"/>
                <note len="-192" key="57" pan="0" vol="100" pos="744"/>
                <note len="-192" key="57" pan="0" vol="100" pos="756"/>
                <note len="-192" key="57" pan="0" vol="100" pos="768"/>
                <note len="-192" key="57" pan="0" vol="100" pos="792"/>
                <note len="-192" key="57" pan="0" vol="100" pos="816"/>
                <note len="-192" key="57" pan="0" vol="100" pos="840"/>
                <note len="-192" key="57" pan="0" vol="100" pos="852"/>
                <note len="-192" key="57" pan="0" vol="100" pos="864"/>
                <note len="-192" key="57" pan="0" vol="100" pos="876"/>
                <note len="-192" key="57" pan="0" vol="100" pos="888"/>
                <note len="-192" key="57" pan="0" vol="100" pos="912"/>
                <note len="-192" key="57" pan="0" vol="100" pos="924"/>
                <note len="-192" key="57" pan="0" vol="100" pos="936"/>
                <note len="-192" key="57" pan="0" vol="100" pos="948"/>
                <note len="-192" key="57" pan="0" vol="100" pos="960"/>
                <note len="-192" key="57" pan="0" vol="100" pos="984"/>
                <note len="-192" key="57" pan="0" vol="100" pos="996"/>
                <note len="-192" key="57" pan="0" vol="100" pos="1008"/>
                <note len="-192" key="57" pan="0" vol="100" pos="1020"/>
                <note len="-192" key="57" pan="0" vol="100" pos="1032"/>
                <note len="-192" key="57" pan="0" vol="100" pos="1056"/>
                <note len="-192" key="57" pan="0" vol="100" pos="1068"/>
                <note len="-192" key="57" pan="0" vol="100" pos="1080"/>
                <note len="-192" key="57" pan="0" vol="100" pos="1104"/>
                <note len="-192" key="57" pan="0" vol="100" pos="1116"/>
                <note len="-192" key="57" pan="0" vol="100" pos="1128"/>
                <note len="-192" key="57" pan="0" vol="100" pos="1140"/>
                <note len="-192" key="57" pan="0" vol="100" pos="1152"/>
                <note len="-192" key="57" pan="0" vol="100" pos="1176"/>
                <note len="-192" key="57" pan="0" vol="100" pos="1200"/>
                <note len="-192" key="57" pan="0" vol="100" pos="1224"/>
                <note len="-192" key="57" pan="0" vol="100" pos="1236"/>
                <note len="-192" key="57" pan="0" vol="100" pos="1248"/>
                <note len="-192" key="57" pan="0" vol="100" pos="1260"/>
                <note len="-192" key="57" pan="0" vol="100" pos="1272"/>
                <note len="-192" key="57" pan="0" vol="100" pos="1296"/>
                <note len="-192" key="57" pan="0" vol="100" pos="1308"/>
                <note len="-192" key="57" pan="0" vol="100" pos="1320"/>
                <note len="-192" key="57" pan="0" vol="100" pos="1332"/>
                <note len="-192" key="57" pan="0" vol="100" pos="1344"/>
                <note len="-192" key="57" pan="0" vol="100" pos="1368"/>
                <note len="-192" key="57" pan="0" vol="100" pos="1380"/>
                <note len="-192" key="57" pan="0" vol="100" pos="1392"/>
                <note len="-192" key="57" pan="0" vol="100" pos="1404"/>
                <note len="-192" key="57" pan="0" vol="100" pos="1416"/>
                <note len="-192" key="57" pan="0" vol="100" pos="1440"/>
                <note len="-192" key="57" pan="0" vol="100" pos="1452"/>
                <note len="-192" key="57" pan="0" vol="100" pos="1464"/>
                <note len="-192" key="57" pan="0" vol="100" pos="1488"/>
                <note len="-192" key="57" pan="0" vol="100" pos="1500"/>
                <note len="-192" key="57" pan="0" vol="100" pos="1512"/>
                <note len="-192" key="57" pan="0" vol="100" pos="1524"/>
              </pattern>
              <pattern muted="0" name="" steps="16" type="0" pos="5952">
                <note len="-192" key="57" pan="0" vol="100" pos="0"/>
                <note len="-192" key="57" pan="0" vol="100" pos="12"/>
                <note len="-192" key="57" pan="0" vol="100" pos="24"/>
                <note len="-192" key="57" pan="0" vol="100" pos="36"/>
                <note len="-192" key="57" pan="0" vol="100" pos="48"/>
                <note len="-192" key="57" pan="0" vol="100" pos="60"/>
                <note len="-192" key="57" pan="0" vol="100" pos="72"/>
                <note len="-192" key="57" pan="0" vol="100" pos="84"/>
                <note len="-192" key="57" pan="0" vol="100" pos="96"/>
                <note len="-192" key="57" pan="0" vol="100" pos="108"/>
                <note len="-192" key="57" pan="0" vol="100" pos="120"/>
                <note len="-192" key="57" pan="0" vol="100" pos="132"/>
                <note len="-192" key="57" pan="0" vol="100" pos="144"/>
                <note len="-192" key="57" pan="0" vol="100" pos="156"/>
                <note len="-192" key="57" pan="0" vol="100" pos="168"/>
                <note len="-192" key="57" pan="0" vol="100" pos="180"/>
              </pattern>
              <pattern muted="0" name="" steps="64" type="0" pos="6144">
                <note len="-192" key="57" pan="0" vol="100" pos="0"/>
                <note len="-192" key="57" pan="0" vol="100" pos="24"/>
                <note len="-192" key="57" pan="0" vol="100" pos="48"/>
                <note len="-192" key="57" pan="0" vol="100" pos="72"/>
                <note len="-192" key="57" pan="0" vol="100" pos="96"/>
                <note len="-192" key="57" pan="0" vol="100" pos="120"/>
                <note len="-192" key="57" pan="0" vol="100" pos="144"/>
                <note len="-192" key="57" pan="0" vol="100" pos="168"/>
                <note len="-192" key="57" pan="0" vol="100" pos="180"/>
                <note len="-192" key="57" pan="0" vol="100" pos="192"/>
                <note len="-192" key="57" pan="0" vol="100" pos="216"/>
                <note len="-192" key="57" pan="0" vol="100" pos="240"/>
                <note len="-192" key="57" pan="0" vol="100" pos="252"/>
                <note len="-192" key="57" pan="0" vol="100" pos="264"/>
                <note len="-192" key="57" pan="0" vol="100" pos="288"/>
                <note len="-192" key="57" pan="0" vol="100" pos="312"/>
                <note len="-192" key="57" pan="0" vol="100" pos="336"/>
                <note len="-192" key="57" pan="0" vol="100" pos="360"/>
                <note len="-192" key="57" pan="0" vol="100" pos="384"/>
                <note len="-192" key="57" pan="0" vol="100" pos="408"/>
                <note len="-192" key="57" pan="0" vol="100" pos="432"/>
                <note len="-192" key="57" pan="0" vol="100" pos="456"/>
                <note len="-192" key="57" pan="0" vol="100" pos="480"/>
                <note len="-192" key="57" pan="0" vol="100" pos="504"/>
                <note len="-192" key="57" pan="0" vol="100" pos="528"/>
                <note len="-192" key="57" pan="0" vol="100" pos="552"/>
                <note len="-192" key="57" pan="0" vol="100" pos="564"/>
                <note len="-192" key="57" pan="0" vol="100" pos="576"/>
                <note len="-192" key="57" pan="0" vol="100" pos="600"/>
                <note len="-192" key="57" pan="0" vol="100" pos="624"/>
                <note len="-192" key="57" pan="0" vol="100" pos="636"/>
                <note len="-192" key="57" pan="0" vol="100" pos="648"/>
                <note len="-192" key="57" pan="0" vol="100" pos="672"/>
                <note len="-192" key="57" pan="0" vol="100" pos="696"/>
                <note len="-192" key="57" pan="0" vol="100" pos="720"/>
                <note len="-192" key="57" pan="0" vol="100" pos="744"/>
              </pattern>
              <pattern muted="0" name="" steps="16" type="0" pos="6336">
                <note len="-192" key="57" pan="0" vol="100" pos="0"/>
                <note len="-192" key="57" pan="0" vol="100" pos="24"/>
                <note len="-192" key="57" pan="0" vol="100" pos="48"/>
                <note len="-192" key="57" pan="0" vol="100" pos="60"/>
                <note len="-192" key="57" pan="0" vol="100" pos="72"/>
                <note len="-192" key="57" pan="0" vol="100" pos="96"/>
                <note len="-192" key="57" pan="0" vol="100" pos="108"/>
                <note len="-192" key="57" pan="0" vol="100" pos="120"/>
                <note len="-192" key="57" pan="0" vol="100" pos="132"/>
                <note len="-192" key="57" pan="0" vol="100" pos="144"/>
                <note len="-192" key="57" pan="0" vol="100" pos="156"/>
                <note len="-192" key="57" pan="0" vol="100" pos="168"/>
                <note len="-192" key="57" pan="0" vol="100" pos="180"/>
              </pattern>
              <pattern muted="0" name="" steps="16" type="0" pos="6528"/>
              <pattern muted="0" name="" steps="16" type="0" pos="6720"/>
              <pattern muted="0" name="" steps="64" type="0" pos="6912">
                <note len="-192" key="57" pan="0" vol="100" pos="0"/>
                <note len="-192" key="57" pan="0" vol="100" pos="12"/>
                <note len="-192" key="57" pan="0" vol="100" pos="24"/>
                <note len="-192" key="57" pan="0" vol="100" pos="36"/>
                <note len="-192" key="57" pan="0" vol="100" pos="48"/>
                <note len="-192" key="57" pan="0" vol="100" pos="60"/>
                <note len="-192" key="57" pan="0" vol="100" pos="72"/>
                <note len="-192" key="57" pan="0" vol="100" pos="84"/>
                <note len="-192" key="57" pan="0" vol="100" pos="96"/>
                <note len="-192" key="57" pan="0" vol="100" pos="108"/>
                <note len="-192" key="57" pan="0" vol="100" pos="120"/>
                <note len="-192" key="57" pan="0" vol="100" pos="132"/>
                <note len="-192" key="57" pan="0" vol="100" pos="144"/>
                <note len="-192" key="57" pan="0" vol="100" pos="156"/>
                <note len="-192" key="57" pan="0" vol="100" pos="168"/>
                <note len="-192" key="57" pan="0" vol="100" pos="180"/>
                <note len="-192" key="57" pan="0" vol="100" pos="192"/>
                <note len="-192" key="57" pan="0" vol="100" pos="204"/>
                <note len="-192" key="57" pan="0" vol="100" pos="216"/>
                <note len="-192" key="57" pan="0" vol="100" pos="228"/>
                <note len="-192" key="57" pan="0" vol="100" pos="240"/>
                <note len="-192" key="57" pan="0" vol="100" pos="252"/>
                <note len="-192" key="57" pan="0" vol="100" pos="264"/>
                <note len="-192" key="57" pan="0" vol="100" pos="276"/>
                <note len="-192" key="57" pan="0" vol="100" pos="288"/>
                <note len="-192" key="57" pan="0" vol="100" pos="300"/>
                <note len="-192" key="57" pan="0" vol="100" pos="312"/>
                <note len="-192" key="57" pan="0" vol="100" pos="324"/>
                <note len="-192" key="57" pan="0" vol="100" pos="336"/>
                <note len="-192" key="57" pan="0" vol="100" pos="348"/>
                <note len="-192" key="57" pan="0" vol="100" pos="360"/>
                <note len="-192" key="57" pan="0" vol="100" pos="372"/>
                <note len="-192" key="57" pan="0" vol="100" pos="384"/>
                <note len="-192" key="57" pan="0" vol="100" pos="396"/>
                <note len="-192" key="57" pan="0" vol="100" pos="408"/>
                <note len="-192" key="57" pan="0" vol="100" pos="420"/>
                <note len="-192" key="57" pan="0" vol="100" pos="432"/>
                <note len="-192" key="57" pan="0" vol="100" pos="444"/>
                <note len="-192" key="57" pan="0" vol="100" pos="456"/>
                <note len="-192" key="57" pan="0" vol="100" pos="468"/>
                <note len="-192" key="57" pan="0" vol="100" pos="480"/>
                <note len="-192" key="57" pan="0" vol="100" pos="492"/>
                <note len="-192" key="57" pan="0" vol="100" pos="504"/>
                <note len="-192" key="57" pan="0" vol="100" pos="516"/>
                <note len="-192" key="57" pan="0" vol="100" pos="528"/>
                <note len="-192" key="57" pan="0" vol="100" pos="540"/>
                <note len="-192" key="57" pan="0" vol="100" pos="552"/>
                <note len="-192" key="57" pan="0" vol="100" pos="564"/>
                <note len="-192" key="57" pan="0" vol="100" pos="576"/>
              </pattern>
            </track>
            <track muted="0" name="hat" type="0" solo="0" mutedBeforeSolo="0">
              <instrumenttrack usemasterpitch="1" pitchrange="1" pitch="0" pan="-16.8" basenote="57" vol="71.2" fxch="2">
                <instrument name="audiofileprocessor">
                  <audiofileprocessor reversed="0" looped="0" eframe="1" stutter="0" src="/home/pass/samples/mtpdk_extract/half_hat.wav" lframe="0.176" sframe="0" amp="100" interp="1">
                    <key/>
                  </audiofileprocessor>
                </instrument>
                <eldata fcut="14000" fwet="0" fres="0.5" ftype="0">
                  <elvol rel="0" lspd_syncmode="0" pdel="0" lspd_numerator="4" lpdel="0" amt="0" ctlenvamt="0" lshp="0" userwavefile="" dec="0.28" lspd_denominator="4" sustain="0" lspd="0.1" latt="0" hold="0" att="0" x100="0" lamt="0"/>
                  <elcut rel="0.1" lspd_syncmode="0" pdel="0" lspd_numerator="4" lpdel="0" amt="0" ctlenvamt="0" lshp="0" userwavefile="" dec="0.5" lspd_denominator="4" sustain="0.5" lspd="0.1" latt="0" hold="0.5" att="0" x100="0" lamt="0"/>
                  <elres rel="0.1" lspd_syncmode="0" pdel="0" lspd_numerator="4" lpdel="0" amt="0" ctlenvamt="0" lshp="0" userwavefile="" dec="0.5" lspd_denominator="4" sustain="0.5" lspd="0.1" latt="0" hold="0.5" att="0" x100="0" lamt="0"/>
                </eldata>
                <chordcreator chord="0" chordrange="1" chord-enabled="0"/>
                <arpeggiator arptime_denominator="4" arptime="200" arp-enabled="0" arpcycle="0" arpgate="100" arp="0" arpmiss="0" arpdir="0" arprange="1" arpmode="0" arpskip="0" arptime_syncmode="0" arptime_numerator="4"/>
                <midiport inputcontroller="0" fixedinputvelocity="-1" readable="0" outputcontroller="0" fixedoutputnote="-1" outputprogram="1" writable="0" fixedoutputvelocity="-1" basevelocity="63" outputchannel="1" inputchannel="0"/>
                <fxchain enabled="0" numofeffects="0"/>
              </instrumenttrack>
              <pattern muted="0" name="" steps="64" type="0" pos="0"/>
              <pattern muted="0" name="" steps="64" type="0" pos="192"/>
              <pattern muted="0" name="" steps="32" type="0" pos="384"/>
              <pattern muted="0" name="" steps="64" type="0" pos="576">
                <note len="-192" key="57" pan="0" vol="100" pos="0"/>
                <note len="-192" key="57" pan="0" vol="100" pos="48"/>
                <note len="-192" key="57" pan="0" vol="100" pos="96"/>
                <note len="-192" key="57" pan="0" vol="100" pos="144"/>
                <note len="-192" key="57" pan="0" vol="100" pos="192"/>
                <note len="-192" key="57" pan="0" vol="100" pos="240"/>
                <note len="-192" key="57" pan="0" vol="100" pos="288"/>
                <note len="-192" key="57" pan="0" vol="100" pos="336"/>
                <note len="-192" key="57" pan="0" vol="100" pos="384"/>
                <note len="-192" key="57" pan="0" vol="100" pos="432"/>
                <note len="-192" key="57" pan="0" vol="100" pos="480"/>
                <note len="-192" key="57" pan="0" vol="100" pos="528"/>
                <note len="-192" key="57" pan="0" vol="100" pos="576"/>
                <note len="-192" key="57" pan="0" vol="100" pos="624"/>
                <note len="-192" key="57" pan="0" vol="100" pos="672"/>
                <note len="-192" key="57" pan="0" vol="100" pos="720"/>
              </pattern>
              <pattern muted="0" name="" steps="16" type="0" pos="768"/>
              <pattern muted="0" name="" steps="64" type="0" pos="960">
                <note len="-192" key="57" pan="0" vol="100" pos="0"/>
                <note len="-192" key="57" pan="0" vol="100" pos="48"/>
                <note len="-192" key="57" pan="0" vol="100" pos="96"/>
                <note len="-192" key="57" pan="0" vol="100" pos="144"/>
                <note len="-192" key="57" pan="0" vol="100" pos="192"/>
                <note len="-192" key="57" pan="0" vol="100" pos="240"/>
                <note len="-192" key="57" pan="0" vol="100" pos="288"/>
                <note len="-192" key="57" pan="0" vol="100" pos="336"/>
                <note len="-192" key="57" pan="0" vol="100" pos="384"/>
                <note len="-192" key="57" pan="0" vol="100" pos="432"/>
                <note len="-192" key="57" pan="0" vol="100" pos="480"/>
                <note len="-192" key="57" pan="0" vol="100" pos="528"/>
                <note len="-192" key="57" pan="0" vol="100" pos="576"/>
                <note len="-192" key="57" pan="0" vol="100" pos="624"/>
                <note len="-192" key="57" pan="0" vol="100" pos="672"/>
                <note len="-192" key="57" pan="0" vol="100" pos="720"/>
              </pattern>
              <pattern muted="0" name="" steps="64" type="0" pos="1152">
                <note len="-192" key="57" pan="0" vol="100" pos="0"/>
                <note len="-192" key="57" pan="0" vol="100" pos="48"/>
                <note len="-192" key="57" pan="0" vol="100" pos="96"/>
                <note len="-192" key="57" pan="0" vol="100" pos="144"/>
                <note len="-192" key="57" pan="0" vol="100" pos="192"/>
                <note len="-192" key="57" pan="0" vol="100" pos="240"/>
                <note len="-192" key="57" pan="0" vol="100" pos="288"/>
                <note len="-192" key="57" pan="0" vol="100" pos="336"/>
                <note len="-192" key="57" pan="0" vol="100" pos="384"/>
                <note len="-192" key="57" pan="0" vol="100" pos="432"/>
                <note len="-192" key="57" pan="0" vol="100" pos="480"/>
                <note len="-192" key="57" pan="0" vol="100" pos="528"/>
                <note len="-192" key="57" pan="0" vol="100" pos="576"/>
                <note len="-192" key="57" pan="0" vol="100" pos="624"/>
                <note len="-192" key="57" pan="0" vol="100" pos="672"/>
                <note len="-192" key="57" pan="0" vol="100" pos="720"/>
              </pattern>
              <pattern muted="0" name="" steps="32" type="0" pos="1344"/>
              <pattern muted="0" name="" steps="64" type="0" pos="1536">
                <note len="-192" key="57" pan="0" vol="100" pos="48"/>
                <note len="-192" key="57" pan="0" vol="100" pos="96"/>
                <note len="-192" key="57" pan="0" vol="100" pos="144"/>
                <note len="-192" key="57" pan="0" vol="100" pos="240"/>
                <note len="-192" key="57" pan="0" vol="100" pos="288"/>
                <note len="-192" key="57" pan="0" vol="100" pos="336"/>
                <note len="-192" key="57" pan="0" vol="100" pos="432"/>
                <note len="-192" key="57" pan="0" vol="100" pos="480"/>
                <note len="-192" key="57" pan="0" vol="100" pos="528"/>
                <note len="-192" key="57" pan="0" vol="100" pos="624"/>
                <note len="-192" key="57" pan="0" vol="100" pos="672"/>
                <note len="-192" key="57" pan="0" vol="100" pos="720"/>
              </pattern>
              <pattern muted="0" name="" steps="32" type="0" pos="1728">
                <note len="-192" key="57" pan="0" vol="100" pos="48"/>
                <note len="-192" key="57" pan="0" vol="100" pos="96"/>
                <note len="-192" key="57" pan="0" vol="100" pos="144"/>
                <note len="-192" key="57" pan="0" vol="100" pos="240"/>
                <note len="-192" key="57" pan="0" vol="100" pos="288"/>
                <note len="-192" key="57" pan="0" vol="100" pos="336"/>
              </pattern>
              <pattern muted="0" name="" steps="32" type="0" pos="1920"/>
              <pattern muted="0" name="" steps="64" type="0" pos="2112">
                <note len="-192" key="57" pan="0" vol="100" pos="48"/>
                <note len="-192" key="57" pan="0" vol="100" pos="96"/>
                <note len="-192" key="57" pan="0" vol="100" pos="144"/>
                <note len="-192" key="57" pan="0" vol="100" pos="192"/>
                <note len="-192" key="57" pan="0" vol="100" pos="240"/>
                <note len="-192" key="57" pan="0" vol="100" pos="288"/>
                <note len="-192" key="57" pan="0" vol="100" pos="336"/>
                <note len="-192" key="57" pan="0" vol="100" pos="432"/>
                <note len="-192" key="57" pan="0" vol="100" pos="480"/>
                <note len="-192" key="57" pan="0" vol="100" pos="528"/>
                <note len="-192" key="57" pan="0" vol="100" pos="576"/>
                <note len="-192" key="57" pan="0" vol="100" pos="624"/>
                <note len="-192" key="57" pan="0" vol="100" pos="672"/>
                <note len="-192" key="57" pan="0" vol="100" pos="720"/>
              </pattern>
              <pattern muted="0" name="" steps="32" type="0" pos="2304">
                <note len="-192" key="57" pan="0" vol="100" pos="48"/>
                <note len="-192" key="57" pan="0" vol="100" pos="96"/>
                <note len="-192" key="57" pan="0" vol="100" pos="144"/>
              </pattern>
              <pattern muted="0" name="" steps="32" type="0" pos="2496">
                <note len="-192" key="57" pan="0" vol="100" pos="0"/>
                <note len="-192" key="57" pan="0" vol="100" pos="96"/>
                <note len="-192" key="57" pan="0" vol="100" pos="192"/>
                <note len="-192" key="57" pan="0" vol="100" pos="288"/>
              </pattern>
              <pattern muted="0" name="" steps="64" type="0" pos="2688">
                <note len="-192" key="57" pan="0" vol="100" pos="0"/>
                <note len="-192" key="57" pan="0" vol="100" pos="96"/>
                <note len="-192" key="57" pan="0" vol="100" pos="192"/>
                <note len="-192" key="57" pan="0" vol="100" pos="288"/>
                <note len="-192" key="57" pan="0" vol="100" pos="384"/>
                <note len="-192" key="57" pan="0" vol="100" pos="480"/>
                <note len="-192" key="57" pan="0" vol="100" pos="576"/>
                <note len="-192" key="57" pan="0" vol="100" pos="672"/>
              </pattern>
              <pattern muted="0" name="" steps="16" type="0" pos="2880"/>
              <pattern muted="0" name="" steps="16" type="0" pos="3072"/>
              <pattern muted="0" name="" steps="16" type="0" pos="3264"/>
              <pattern muted="0" name="" steps="32" type="0" pos="3456"/>
              <pattern muted="0" name="" steps="16" type="0" pos="3648"/>
              <pattern muted="0" name="" steps="32" type="0" pos="3840"/>
              <pattern muted="0" name="" steps="64" type="0" pos="4032"/>
              <pattern muted="0" name="" steps="64" type="0" pos="4224"/>
              <pattern muted="0" name="" steps="32" type="0" pos="4416">
                <note len="-192" key="57" pan="0" vol="100" pos="0"/>
              </pattern>
              <pattern muted="0" name="" steps="32" type="0" pos="4608"/>
              <pattern muted="0" name="" steps="16" type="0" pos="4800"/>
              <pattern muted="0" name="" steps="32" type="0" pos="4992"/>
              <pattern muted="0" name="" steps="64" type="0" pos="5184"/>
              <pattern muted="0" name="" steps="64" type="0" pos="5376"/>
              <pattern muted="0" name="" steps="64" type="0" pos="5568"/>
              <pattern muted="0" name="" steps="128" type="0" pos="5760">
                <note len="-192" key="57" pan="0" vol="100" pos="0"/>
                <note len="-192" key="57" pan="0" vol="100" pos="48"/>
                <note len="-192" key="57" pan="0" vol="100" pos="96"/>
                <note len="-192" key="57" pan="0" vol="100" pos="144"/>
                <note len="-192" key="57" pan="0" vol="100" pos="192"/>
                <note len="-192" key="57" pan="0" vol="100" pos="240"/>
                <note len="-192" key="57" pan="0" vol="100" pos="288"/>
                <note len="-192" key="57" pan="0" vol="100" pos="336"/>
                <note len="-192" key="57" pan="0" vol="100" pos="384"/>
                <note len="-192" key="57" pan="0" vol="100" pos="432"/>
                <note len="-192" key="57" pan="0" vol="100" pos="480"/>
                <note len="-192" key="57" pan="0" vol="100" pos="528"/>
                <note len="-192" key="57" pan="0" vol="100" pos="576"/>
                <note len="-192" key="57" pan="0" vol="100" pos="624"/>
                <note len="-192" key="57" pan="0" vol="100" pos="672"/>
                <note len="-192" key="57" pan="0" vol="100" pos="720"/>
                <note len="-192" key="57" pan="0" vol="100" pos="768"/>
                <note len="-192" key="57" pan="0" vol="100" pos="816"/>
                <note len="-192" key="57" pan="0" vol="100" pos="864"/>
                <note len="-192" key="57" pan="0" vol="100" pos="912"/>
                <note len="-192" key="57" pan="0" vol="100" pos="960"/>
                <note len="-192" key="57" pan="0" vol="100" pos="1008"/>
                <note len="-192" key="57" pan="0" vol="100" pos="1056"/>
                <note len="-192" key="57" pan="0" vol="100" pos="1104"/>
                <note len="-192" key="57" pan="0" vol="100" pos="1152"/>
                <note len="-192" key="57" pan="0" vol="100" pos="1200"/>
                <note len="-192" key="57" pan="0" vol="100" pos="1248"/>
                <note len="-192" key="57" pan="0" vol="100" pos="1296"/>
                <note len="-192" key="57" pan="0" vol="100" pos="1344"/>
                <note len="-192" key="57" pan="0" vol="100" pos="1392"/>
                <note len="-192" key="57" pan="0" vol="100" pos="1440"/>
                <note len="-192" key="57" pan="0" vol="100" pos="1488"/>
              </pattern>
              <pattern muted="0" name="" steps="16" type="0" pos="5952"/>
              <pattern muted="0" name="" steps="64" type="0" pos="6144">
                <note len="-192" key="57" pan="0" vol="100" pos="0"/>
                <note len="-192" key="57" pan="0" vol="100" pos="192"/>
                <note len="-192" key="57" pan="0" vol="100" pos="384"/>
                <note len="-192" key="57" pan="0" vol="100" pos="576"/>
              </pattern>
              <pattern muted="0" name="" steps="16" type="0" pos="6336">
                <note len="-192" key="57" pan="0" vol="100" pos="0"/>
              </pattern>
              <pattern muted="0" name="" steps="16" type="0" pos="6528"/>
              <pattern muted="0" name="" steps="16" type="0" pos="6720"/>
              <pattern muted="0" name="" steps="64" type="0" pos="6912">
                <note len="-192" key="57" pan="0" vol="100" pos="480"/>
              </pattern>
            </track>
            <track muted="0" name="old friend snare" type="0" solo="0" mutedBeforeSolo="0">
              <instrumenttrack usemasterpitch="1" pitchrange="1" pitch="0" pan="0" basenote="57" vol="111.2" fxch="3">
                <instrument name="audiofileprocessor">
                  <audiofileprocessor reversed="0" looped="0" eframe="1" stutter="0" src="/home/pass/samples/mtpdk_extract/snare.wav" lframe="0" sframe="0" amp="100" interp="1">
                    <key/>
                  </audiofileprocessor>
                </instrument>
                <eldata fcut="13328" fwet="0" fres="0.13" ftype="0">
                  <elvol rel="0.568" lspd_syncmode="0" pdel="0" lspd_numerator="4" lpdel="0" amt="0" ctlenvamt="0" lshp="0" userwavefile="" dec="0.272" lspd_denominator="4" sustain="0.308" lspd="0.1" latt="0" hold="0" att="0" x100="0" lamt="0"/>
                  <elcut rel="0.1" lspd_syncmode="0" pdel="0" lspd_numerator="4" lpdel="0" amt="0" ctlenvamt="0" lshp="0" userwavefile="" dec="0.5" lspd_denominator="4" sustain="0.5" lspd="0.1" latt="0" hold="0.5" att="0" x100="0" lamt="0"/>
                  <elres rel="0.1" lspd_syncmode="0" pdel="0" lspd_numerator="4" lpdel="0" amt="0" ctlenvamt="0" lshp="0" userwavefile="" dec="0.5" lspd_denominator="4" sustain="0.5" lspd="0.1" latt="0" hold="0.5" att="0" x100="0" lamt="0"/>
                </eldata>
                <chordcreator chord="0" chordrange="1" chord-enabled="0"/>
                <arpeggiator arptime_denominator="4" arptime="200" arp-enabled="0" arpcycle="0" arpgate="100" arp="0" arpmiss="0" arpdir="0" arprange="1" arpmode="0" arpskip="0" arptime_syncmode="0" arptime_numerator="4"/>
                <midiport inputcontroller="0" fixedinputvelocity="-1" readable="0" outputcontroller="0" fixedoutputnote="-1" outputprogram="1" writable="0" fixedoutputvelocity="-1" basevelocity="63" outputchannel="1" inputchannel="0"/>
                <fxchain enabled="0" numofeffects="0"/>
              </instrumenttrack>
              <pattern muted="0" name="" steps="64" type="0" pos="0"/>
              <pattern muted="0" name="" steps="64" type="0" pos="192">
                <note len="-192" key="57" pan="0" vol="100" pos="720"/>
                <note len="-192" key="57" pan="0" vol="100" pos="732"/>
                <note len="-192" key="57" pan="0" vol="100" pos="744"/>
                <note len="-192" key="57" pan="0" vol="100" pos="756"/>
              </pattern>
              <pattern muted="0" name="" steps="32" type="0" pos="384">
                <note len="-192" key="57" pan="0" vol="100" pos="48"/>
                <note len="-192" key="57" pan="0" vol="100" pos="60"/>
                <note len="-192" key="57" pan="0" vol="100" pos="120"/>
                <note len="-192" key="57" pan="0" vol="100" pos="132"/>
                <note len="-192" key="57" pan="0" vol="100" pos="192"/>
                <note len="-192" key="57" pan="0" vol="100" pos="204"/>
                <note len="-192" key="57" pan="0" vol="100" pos="264"/>
                <note len="-192" key="57" pan="0" vol="100" pos="276"/>
                <note len="-192" key="57" pan="0" vol="100" pos="312"/>
                <note len="-192" key="57" pan="0" vol="100" pos="360"/>
                <note len="-192" key="57" pan="0" vol="100" pos="372"/>
              </pattern>
              <pattern muted="0" name="" steps="64" type="0" pos="576">
                <note len="-192" key="57" pan="0" vol="100" pos="24"/>
                <note len="-192" key="57" pan="0" vol="100" pos="72"/>
                <note len="-192" key="57" pan="0" vol="100" pos="120"/>
                <note len="-192" key="57" pan="0" vol="100" pos="168"/>
                <note len="-192" key="57" pan="0" vol="100" pos="216"/>
                <note len="-192" key="57" pan="0" vol="100" pos="264"/>
                <note len="-192" key="57" pan="0" vol="100" pos="312"/>
                <note len="-192" key="57" pan="0" vol="100" pos="360"/>
                <note len="-192" key="57" pan="0" vol="100" pos="408"/>
                <note len="-192" key="57" pan="0" vol="100" pos="456"/>
                <note len="-192" key="57" pan="0" vol="100" pos="504"/>
                <note len="-192" key="57" pan="0" vol="100" pos="552"/>
                <note len="-192" key="57" pan="0" vol="100" pos="600"/>
                <note len="-192" key="57" pan="0" vol="100" pos="648"/>
                <note len="-192" key="57" pan="0" vol="100" pos="696"/>
                <note len="-192" key="57" pan="0" vol="100" pos="744"/>
              </pattern>
              <pattern muted="0" name="" steps="16" type="0" pos="768">
                <note len="-192" key="57" pan="0" vol="100" pos="0"/>
                <note len="-192" key="57" pan="0" vol="100" pos="12"/>
                <note len="-192" key="57" pan="0" vol="100" pos="24"/>
                <note len="-192" key="57" pan="0" vol="100" pos="36"/>
                <note len="-192" key="57" pan="0" vol="100" pos="48"/>
                <note len="-192" key="57" pan="0" vol="100" pos="60"/>
                <note len="-192" key="57" pan="0" vol="100" pos="72"/>
                <note len="-192" key="57" pan="0" vol="100" pos="84"/>
                <note len="-192" key="57" pan="0" vol="100" pos="96"/>
                <note len="-192" key="57" pan="0" vol="100" pos="144"/>
              </pattern>
              <pattern muted="0" name="" steps="64" type="0" pos="960">
                <note len="-192" key="57" pan="0" vol="100" pos="24"/>
                <note len="-192" key="57" pan="0" vol="100" pos="72"/>
                <note len="-192" key="57" pan="0" vol="100" pos="120"/>
                <note len="-192" key="57" pan="0" vol="100" pos="168"/>
                <note len="-192" key="57" pan="0" vol="100" pos="216"/>
                <note len="-192" key="57" pan="0" vol="100" pos="264"/>
                <note len="-192" key="57" pan="0" vol="100" pos="312"/>
                <note len="-192" key="57" pan="0" vol="100" pos="360"/>
                <note len="-192" key="57" pan="0" vol="100" pos="408"/>
                <note len="-192" key="57" pan="0" vol="100" pos="456"/>
                <note len="-192" key="57" pan="0" vol="100" pos="504"/>
                <note len="-192" key="57" pan="0" vol="100" pos="552"/>
                <note len="-192" key="57" pan="0" vol="100" pos="600"/>
                <note len="-192" key="57" pan="0" vol="100" pos="648"/>
                <note len="-192" key="57" pan="0" vol="100" pos="696"/>
                <note len="-192" key="57" pan="0" vol="100" pos="744"/>
              </pattern>
              <pattern muted="0" name="" steps="64" type="0" pos="1152">
                <note len="-192" key="57" pan="0" vol="100" pos="24"/>
                <note len="-192" key="57" pan="0" vol="100" pos="72"/>
                <note len="-192" key="57" pan="0" vol="100" pos="120"/>
                <note len="-192" key="57" pan="0" vol="100" pos="168"/>
                <note len="-192" key="57" pan="0" vol="100" pos="216"/>
                <note len="-192" key="57" pan="0" vol="100" pos="264"/>
                <note len="-192" key="57" pan="0" vol="100" pos="312"/>
                <note len="-192" key="57" pan="0" vol="100" pos="360"/>
                <note len="-192" key="57" pan="0" vol="100" pos="408"/>
                <note len="-192" key="57" pan="0" vol="100" pos="456"/>
                <note len="-192" key="57" pan="0" vol="100" pos="504"/>
                <note len="-192" key="57" pan="0" vol="100" pos="552"/>
                <note len="-192" key="57" pan="0" vol="100" pos="600"/>
                <note len="-192" key="57" pan="0" vol="100" pos="648"/>
                <note len="-192" key="57" pan="0" vol="100" pos="696"/>
                <note len="-192" key="57" pan="0" vol="100" pos="744"/>
              </pattern>
              <pattern muted="0" name="" steps="32" type="0" pos="1344"/>
              <pattern muted="0" name="" steps="64" type="0" pos="1536">
                <note len="-192" key="57" pan="0" vol="100" pos="0"/>
                <note len="-192" key="57" pan="0" vol="100" pos="48"/>
                <note len="-192" key="57" pan="0" vol="100" pos="96"/>
                <note len="-192" key="57" pan="0" vol="100" pos="144"/>
                <note len="-192" key="57" pan="0" vol="100" pos="192"/>
                <note len="-192" key="57" pan="0" vol="100" pos="240"/>
                <note len="-192" key="57" pan="0" vol="100" pos="288"/>
                <note len="-192" key="57" pan="0" vol="100" pos="336"/>
                <note len="-192" key="57" pan="0" vol="100" pos="384"/>
                <note len="-192" key="57" pan="0" vol="100" pos="432"/>
                <note len="-192" key="57" pan="0" vol="100" pos="480"/>
                <note len="-192" key="57" pan="0" vol="100" pos="528"/>
                <note len="-192" key="57" pan="0" vol="100" pos="576"/>
                <note len="-192" key="57" pan="0" vol="100" pos="624"/>
                <note len="-192" key="57" pan="0" vol="100" pos="672"/>
                <note len="-192" key="57" pan="0" vol="100" pos="720"/>
              </pattern>
              <pattern muted="0" name="" steps="32" type="0" pos="1728">
                <note len="-192" key="57" pan="0" vol="100" pos="0"/>
                <note len="-192" key="57" pan="0" vol="100" pos="48"/>
                <note len="-192" key="57" pan="0" vol="100" pos="96"/>
                <note len="-192" key="57" pan="0" vol="100" pos="144"/>
                <note len="-192" key="57" pan="0" vol="100" pos="192"/>
                <note len="-192" key="57" pan="0" vol="100" pos="240"/>
                <note len="-192" key="57" pan="0" vol="100" pos="288"/>
                <note len="-192" key="57" pan="0" vol="100" pos="336"/>
              </pattern>
              <pattern muted="0" name="" steps="32" type="0" pos="1920">
                <note len="-192" key="57" pan="0" vol="100" pos="0"/>
                <note len="-192" key="57" pan="0" vol="100" pos="48"/>
                <note len="-192" key="57" pan="0" vol="100" pos="120"/>
                <note len="-192" key="57" pan="0" vol="100" pos="288"/>
                <note len="-192" key="57" pan="0" vol="100" pos="300"/>
                <note len="-192" key="57" pan="0" vol="100" pos="312"/>
                <note len="-192" key="57" pan="0" vol="100" pos="324"/>
                <note len="-192" key="57" pan="0" vol="100" pos="336"/>
              </pattern>
              <pattern muted="0" name="" steps="64" type="0" pos="2112">
                <note len="-192" key="57" pan="0" vol="100" pos="0"/>
                <note len="-192" key="57" pan="0" vol="100" pos="48"/>
                <note len="-192" key="57" pan="0" vol="100" pos="96"/>
                <note len="-192" key="57" pan="0" vol="100" pos="144"/>
                <note len="-192" key="57" pan="0" vol="100" pos="192"/>
                <note len="-192" key="57" pan="0" vol="100" pos="240"/>
                <note len="-192" key="57" pan="0" vol="100" pos="288"/>
                <note len="-192" key="57" pan="0" vol="100" pos="336"/>
                <note len="-192" key="57" pan="0" vol="100" pos="384"/>
                <note len="-192" key="57" pan="0" vol="100" pos="432"/>
                <note len="-192" key="57" pan="0" vol="100" pos="480"/>
                <note len="-192" key="57" pan="0" vol="100" pos="528"/>
                <note len="-192" key="57" pan="0" vol="100" pos="576"/>
                <note len="-192" key="57" pan="0" vol="100" pos="624"/>
                <note len="-192" key="57" pan="0" vol="100" pos="672"/>
                <note len="-192" key="57" pan="0" vol="100" pos="720"/>
              </pattern>
              <pattern muted="0" name="" steps="32" type="0" pos="2304">
                <note len="-192" key="57" pan="0" vol="100" pos="0"/>
                <note len="-192" key="57" pan="0" vol="100" pos="48"/>
                <note len="-192" key="57" pan="0" vol="100" pos="96"/>
                <note len="-192" key="57" pan="0" vol="100" pos="144"/>
                <note len="-192" key="57" pan="0" vol="100" pos="192"/>
                <note len="-192" key="57" pan="0" vol="100" pos="240"/>
                <note len="-192" key="57" pan="0" vol="100" pos="288"/>
                <note len="-192" key="57" pan="0" vol="100" pos="336"/>
                <note len="-192" key="57" pan="0" vol="100" pos="348"/>
                <note len="-192" key="57" pan="0" vol="100" pos="360"/>
                <note len="-192" key="57" pan="0" vol="100" pos="372"/>
              </pattern>
              <pattern muted="0" name="" steps="32" type="0" pos="2496">
                <note len="-192" key="57" pan="0" vol="100" pos="48"/>
                <note len="-192" key="57" pan="0" vol="100" pos="144"/>
                <note len="-192" key="57" pan="0" vol="100" pos="240"/>
                <note len="-192" key="57" pan="0" vol="100" pos="336"/>
              </pattern>
              <pattern muted="0" name="" steps="64" type="0" pos="2688">
                <note len="-192" key="57" pan="0" vol="100" pos="48"/>
                <note len="-192" key="57" pan="0" vol="100" pos="144"/>
                <note len="-192" key="57" pan="0" vol="100" pos="240"/>
                <note len="-192" key="57" pan="0" vol="100" pos="336"/>
                <note len="-192" key="57" pan="0" vol="100" pos="432"/>
                <note len="-192" key="57" pan="0" vol="100" pos="528"/>
                <note len="-192" key="57" pan="0" vol="100" pos="624"/>
                <note len="-192" key="57" pan="0" vol="100" pos="720"/>
              </pattern>
              <pattern muted="0" name="" steps="16" type="0" pos="2880">
                <note len="-192" key="57" pan="0" vol="100" pos="144"/>
                <note len="-192" key="57" pan="0" vol="100" pos="156"/>
                <note len="-192" key="57" pan="0" vol="100" pos="168"/>
                <note len="-192" key="57" pan="0" vol="100" pos="180"/>
              </pattern>
              <pattern muted="0" name="" steps="16" type="0" pos="3072">
                <note len="-192" key="57" pan="0" vol="100" pos="0"/>
                <note len="-192" key="57" pan="0" vol="100" pos="48"/>
              </pattern>
              <pattern muted="0" name="" steps="16" type="0" pos="3264">
                <note len="-192" key="57" pan="0" vol="100" pos="0"/>
                <note len="-192" key="57" pan="0" vol="100" pos="24"/>
                <note len="-192" key="57" pan="0" vol="100" pos="96"/>
                <note len="-192" key="57" pan="0" vol="100" pos="120"/>
              </pattern>
              <pattern muted="0" name="" steps="32" type="0" pos="3456">
                <note len="-192" key="57" pan="0" vol="100" pos="336"/>
                <note len="-192" key="57" pan="0" vol="100" pos="348"/>
                <note len="-192" key="57" pan="0" vol="100" pos="360"/>
                <note len="-192" key="57" pan="0" vol="100" pos="372"/>
              </pattern>
              <pattern muted="0" name="" steps="16" type="0" pos="3648"/>
              <pattern muted="0" name="" steps="32" type="0" pos="3840">
                <note len="-192" key="57" pan="0" vol="100" pos="360"/>
                <note len="-192" key="57" pan="0" vol="100" pos="372"/>
              </pattern>
              <pattern muted="0" name="" steps="64" type="0" pos="4032">
                <note len="-192" key="57" pan="0" vol="100" pos="96"/>
                <note len="-192" key="57" pan="0" vol="100" pos="288"/>
                <note len="-192" key="57" pan="0" vol="100" pos="480"/>
                <note len="-192" key="57" pan="0" vol="100" pos="672"/>
                <note len="-192" key="57" pan="0" vol="100" pos="720"/>
              </pattern>
              <pattern muted="0" name="" steps="64" type="0" pos="4224">
                <note len="-192" key="57" pan="0" vol="100" pos="192"/>
                <note len="-192" key="57" pan="0" vol="100" pos="384"/>
                <note len="-192" key="57" pan="0" vol="100" pos="576"/>
                <note len="-192" key="57" pan="0" vol="100" pos="672"/>
                <note len="-192" key="57" pan="0" vol="100" pos="720"/>
              </pattern>
              <pattern muted="0" name="" steps="32" type="0" pos="4416">
                <note len="-192" key="57" pan="0" vol="100" pos="48"/>
                <note len="-192" key="57" pan="0" vol="100" pos="144"/>
                <note len="-192" key="57" pan="0" vol="100" pos="240"/>
                <note len="-192" key="57" pan="0" vol="100" pos="336"/>
              </pattern>
              <pattern muted="0" name="" steps="32" type="0" pos="4608">
                <note len="-192" key="57" pan="0" vol="100" pos="0"/>
                <note len="-192" key="57" pan="0" vol="100" pos="12"/>
                <note len="-192" key="57" pan="0" vol="100" pos="72"/>
                <note len="-192" key="57" pan="0" vol="100" pos="84"/>
                <note len="-192" key="57" pan="0" vol="100" pos="144"/>
                <note len="-192" key="57" pan="0" vol="100" pos="156"/>
              </pattern>
              <pattern muted="0" name="" steps="16" type="0" pos="4800"/>
              <pattern muted="0" name="" steps="32" type="0" pos="4992">
                <note len="-192" key="57" pan="0" vol="100" pos="0"/>
                <note len="-192" key="57" pan="0" vol="100" pos="72"/>
                <note len="-192" key="57" pan="0" vol="100" pos="144"/>
                <note len="-192" key="57" pan="0" vol="100" pos="240"/>
                <note len="-192" key="57" pan="0" vol="100" pos="252"/>
                <note len="-192" key="57" pan="0" vol="100" pos="336"/>
                <note len="-192" key="57" pan="0" vol="100" pos="348"/>
                <note len="-192" key="57" pan="0" vol="100" pos="360"/>
                <note len="-192" key="57" pan="0" vol="100" pos="372"/>
              </pattern>
              <pattern muted="0" name="" steps="64" type="0" pos="5184"/>
              <pattern muted="0" name="" steps="64" type="0" pos="5376"/>
              <pattern muted="0" name="" steps="64" type="0" pos="5568"/>
              <pattern muted="0" name="" steps="128" type="0" pos="5760">
                <note len="-192" key="57" pan="0" vol="100" pos="48"/>
                <note len="-192" key="57" pan="0" vol="100" pos="144"/>
                <note len="-192" key="57" pan="0" vol="100" pos="240"/>
                <note len="-192" key="57" pan="0" vol="100" pos="336"/>
                <note len="-192" key="57" pan="0" vol="100" pos="432"/>
                <note len="-192" key="57" pan="0" vol="100" pos="528"/>
                <note len="-192" key="57" pan="0" vol="100" pos="624"/>
                <note len="-192" key="57" pan="0" vol="100" pos="720"/>
                <note len="-192" key="57" pan="0" vol="100" pos="816"/>
                <note len="-192" key="57" pan="0" vol="100" pos="912"/>
                <note len="-192" key="57" pan="0" vol="100" pos="1008"/>
                <note len="-192" key="57" pan="0" vol="100" pos="1104"/>
                <note len="-192" key="57" pan="0" vol="100" pos="1200"/>
                <note len="-192" key="57" pan="0" vol="100" pos="1296"/>
                <note len="-192" key="57" pan="0" vol="100" pos="1392"/>
                <note len="-192" key="57" pan="0" vol="100" pos="1488"/>
              </pattern>
              <pattern muted="0" name="" steps="16" type="0" pos="5952">
                <note len="-192" key="57" pan="0" vol="100" pos="0"/>
                <note len="-192" key="57" pan="0" vol="100" pos="48"/>
                <note len="-192" key="57" pan="0" vol="100" pos="96"/>
                <note len="-192" key="57" pan="0" vol="100" pos="144"/>
                <note len="-192" key="57" pan="0" vol="100" pos="156"/>
                <note len="-192" key="57" pan="0" vol="100" pos="168"/>
                <note len="-192" key="57" pan="0" vol="100" pos="180"/>
              </pattern>
              <pattern muted="0" name="" steps="64" type="0" pos="6144">
                <note len="-192" key="57" pan="0" vol="100" pos="96"/>
                <note len="-192" key="57" pan="0" vol="100" pos="288"/>
                <note len="-192" key="57" pan="0" vol="100" pos="480"/>
                <note len="-192" key="57" pan="0" vol="100" pos="672"/>
              </pattern>
              <pattern muted="0" name="" steps="16" type="0" pos="6336">
                <note len="-192" key="57" pan="0" vol="100" pos="96"/>
                <note len="-192" key="57" pan="0" vol="100" pos="108"/>
              </pattern>
              <pattern muted="0" name="" steps="16" type="0" pos="6528"/>
              <pattern muted="0" name="" steps="16" type="0" pos="6720"/>
              <pattern muted="0" name="" steps="64" type="0" pos="6912">
                <note len="-192" key="57" pan="0" vol="100" pos="0"/>
                <note len="-192" key="57" pan="0" vol="100" pos="48"/>
                <note len="-192" key="57" pan="0" vol="100" pos="96"/>
                <note len="-192" key="57" pan="0" vol="100" pos="144"/>
                <note len="-192" key="57" pan="0" vol="100" pos="192"/>
                <note len="-192" key="57" pan="0" vol="100" pos="204"/>
                <note len="-192" key="57" pan="0" vol="100" pos="264"/>
                <note len="-192" key="57" pan="0" vol="100" pos="276"/>
                <note len="-192" key="57" pan="0" vol="100" pos="336"/>
                <note len="-192" key="57" pan="0" vol="100" pos="348"/>
                <note len="-192" key="57" pan="0" vol="100" pos="408"/>
                <note len="-192" key="57" pan="0" vol="100" pos="420"/>
                <note len="-192" key="57" pan="0" vol="100" pos="480"/>
                <note len="-192" key="57" pan="0" vol="100" pos="528"/>
                <note len="-192" key="57" pan="0" vol="100" pos="540"/>
                <note len="-192" key="57" pan="0" vol="100" pos="552"/>
                <note len="-192" key="57" pan="0" vol="100" pos="564"/>
              </pattern>
            </track>
            <track muted="0" name="crash1" type="0" solo="0" mutedBeforeSolo="0">
              <instrumenttrack usemasterpitch="1" pitchrange="1" pitch="0" pan="2.4" basenote="57" vol="77.6" fxch="4">
                <instrument name="audiofileprocessor">
                  <audiofileprocessor reversed="0" looped="0" eframe="1" stutter="0" src="/home/pass/samples/sillydrums/crash1.wav" lframe="0" sframe="0" amp="100" interp="1">
                    <key/>
                  </audiofileprocessor>
                </instrument>
                <eldata fcut="14000" fwet="0" fres="0.5" ftype="0">
                  <elvol rel="2" lspd_syncmode="0" pdel="0" lspd_numerator="4" lpdel="0" amt="1" ctlenvamt="0" lshp="0" userwavefile="" dec="2" lspd_denominator="4" sustain="1" lspd="0.1" latt="0" hold="2" att="0" x100="0" lamt="0"/>
                  <elcut rel="0.1" lspd_syncmode="0" pdel="0" lspd_numerator="4" lpdel="0" amt="0" ctlenvamt="0" lshp="0" userwavefile="" dec="0.5" lspd_denominator="4" sustain="0.5" lspd="0.1" latt="0" hold="0.5" att="0" x100="0" lamt="0"/>
                  <elres rel="0.1" lspd_syncmode="0" pdel="0" lspd_numerator="4" lpdel="0" amt="0" ctlenvamt="0" lshp="0" userwavefile="" dec="0.5" lspd_denominator="4" sustain="0.5" lspd="0.1" latt="0" hold="0.5" att="0" x100="0" lamt="0"/>
                </eldata>
                <chordcreator chord="0" chordrange="1" chord-enabled="0"/>
                <arpeggiator arptime_denominator="4" arptime="200" arp-enabled="0" arpcycle="0" arpgate="100" arp="0" arpmiss="0" arpdir="0" arprange="1" arpmode="0" arpskip="0" arptime_syncmode="0" arptime_numerator="4"/>
                <midiport inputcontroller="0" fixedinputvelocity="-1" readable="0" outputcontroller="0" fixedoutputnote="-1" outputprogram="1" writable="0" fixedoutputvelocity="-1" basevelocity="63" outputchannel="1" inputchannel="0"/>
                <fxchain enabled="0" numofeffects="0"/>
              </instrumenttrack>
              <pattern muted="0" name="" steps="64" type="0" pos="0">
                <note len="-192" key="57" pan="0" vol="100" pos="0"/>
              </pattern>
              <pattern muted="0" name="" steps="64" type="0" pos="192">
                <note len="-192" key="57" pan="0" vol="100" pos="0"/>
              </pattern>
              <pattern muted="0" name="" steps="32" type="0" pos="384">
                <note len="-192" key="57" pan="0" vol="100" pos="288"/>
              </pattern>
              <pattern muted="0" name="" steps="64" type="0" pos="576">
                <note len="-192" key="57" pan="0" vol="100" pos="0"/>
              </pattern>
              <pattern muted="0" name="" steps="16" type="0" pos="768"/>
              <pattern muted="0" name="" steps="64" type="0" pos="960">
                <note len="-192" key="57" pan="0" vol="100" pos="0"/>
                <note len="-192" key="57" pan="0" vol="100" pos="384"/>
              </pattern>
              <pattern muted="0" name="" steps="64" type="0" pos="1152">
                <note len="-192" key="57" pan="0" vol="100" pos="0"/>
              </pattern>
              <pattern muted="0" name="" steps="32" type="0" pos="1344"/>
              <pattern muted="0" name="" steps="64" type="0" pos="1536">
                <note len="-192" key="57" pan="0" vol="100" pos="0"/>
              </pattern>
              <pattern muted="0" name="" steps="32" type="0" pos="1728">
                <note len="-192" key="57" pan="0" vol="100" pos="0"/>
              </pattern>
              <pattern muted="0" name="" steps="32" type="0" pos="1920">
                <note len="-192" key="57" pan="0" vol="100" pos="0"/>
                <note len="-192" key="57" pan="0" vol="100" pos="192"/>
              </pattern>
              <pattern muted="0" name="" steps="64" type="0" pos="2112">
                <note len="-192" key="57" pan="0" vol="100" pos="0"/>
              </pattern>
              <pattern muted="0" name="" steps="32" type="0" pos="2304">
                <note len="-192" key="57" pan="0" vol="100" pos="0"/>
              </pattern>
              <pattern muted="0" name="" steps="32" type="0" pos="2496">
                <note len="-192" key="57" pan="0" vol="100" pos="0"/>
              </pattern>
              <pattern muted="0" name="" steps="64" type="0" pos="2688">
                <note len="-192" key="57" pan="0" vol="100" pos="0"/>
                <note len="-192" key="57" pan="0" vol="100" pos="384"/>
              </pattern>
              <pattern muted="0" name="" steps="16" type="0" pos="2880">
                <note len="-192" key="57" pan="0" vol="100" pos="0"/>
                <note len="-192" key="57" pan="0" vol="100" pos="96"/>
              </pattern>
              <pattern muted="0" name="" steps="16" type="0" pos="3072">
                <note len="-192" key="57" pan="0" vol="100" pos="96"/>
              </pattern>
              <pattern muted="0" name="" steps="16" type="0" pos="3264"/>
              <pattern muted="0" name="" steps="32" type="0" pos="3456">
                <note len="-192" key="57" pan="0" vol="100" pos="96"/>
                <note len="-192" key="57" pan="0" vol="100" pos="288"/>
              </pattern>
              <pattern muted="0" name="" steps="16" type="0" pos="3648">
                <note len="-192" key="57" pan="0" vol="100" pos="0"/>
              </pattern>
              <pattern muted="0" name="" steps="32" type="0" pos="3840">
                <note len="-192" key="57" pan="0" vol="100" pos="0"/>
                <note len="-192" key="57" pan="0" vol="100" pos="192"/>
              </pattern>
              <pattern muted="0" name="" steps="64" type="0" pos="4032">
                <note len="-192" key="57" pan="0" vol="100" pos="0"/>
                <note len="-192" key="57" pan="0" vol="100" pos="384"/>
              </pattern>
              <pattern muted="0" name="" steps="64" type="0" pos="4224">
                <note len="-192" key="57" pan="0" vol="100" pos="0"/>
                <note len="-192" key="57" pan="0" vol="100" pos="384"/>
              </pattern>
              <pattern muted="0" name="" steps="32" type="0" pos="4416">
                <note len="-192" key="57" pan="0" vol="100" pos="0"/>
              </pattern>
              <pattern muted="0" name="" steps="32" type="0" pos="4608">
                <note len="-192" key="57" pan="0" vol="100" pos="192"/>
              </pattern>
              <pattern muted="0" name="" steps="16" type="0" pos="4800">
                <note len="-192" key="57" pan="0" vol="100" pos="0"/>
              </pattern>
              <pattern muted="0" name="" steps="32" type="0" pos="4992">
                <note len="-192" key="57" pan="0" vol="100" pos="0"/>
              </pattern>
              <pattern muted="0" name="" steps="64" type="0" pos="5184">
                <note len="-192" key="57" pan="0" vol="100" pos="0"/>
                <note len="-192" key="57" pan="0" vol="100" pos="384"/>
              </pattern>
              <pattern muted="0" name="" steps="64" type="0" pos="5376">
                <note len="-192" key="57" pan="0" vol="100" pos="0"/>
                <note len="-192" key="57" pan="0" vol="100" pos="384"/>
                <note len="-192" key="57" pan="0" vol="100" pos="576"/>
              </pattern>
              <pattern muted="0" name="" steps="64" type="0" pos="5568">
                <note len="-192" key="57" pan="0" vol="100" pos="0"/>
                <note len="-192" key="57" pan="0" vol="100" pos="576"/>
              </pattern>
              <pattern muted="0" name="" steps="128" type="0" pos="5760">
                <note len="-192" key="57" pan="0" vol="100" pos="0"/>
              </pattern>
              <pattern muted="0" name="" steps="16" type="0" pos="5952"/>
              <pattern muted="0" name="" steps="64" type="0" pos="6144">
                <note len="-192" key="57" pan="0" vol="100" pos="0"/>
                <note len="-192" key="57" pan="0" vol="100" pos="384"/>
              </pattern>
              <pattern muted="0" name="" steps="16" type="0" pos="6336"/>
              <pattern muted="0" name="" steps="16" type="0" pos="6528"/>
              <pattern muted="0" name="" steps="16" type="0" pos="6720"/>
              <pattern muted="0" name="" steps="64" type="0" pos="6912">
                <note len="-192" key="57" pan="0" vol="100" pos="576"/>
              </pattern>
            </track>
            <track muted="0" name="crash1m" type="0" solo="0" mutedBeforeSolo="0">
              <instrumenttrack usemasterpitch="1" pitchrange="1" pitch="0" pan="0" basenote="57" vol="77.6" fxch="4">
                <instrument name="audiofileprocessor">
                  <audiofileprocessor reversed="0" looped="0" eframe="1" stutter="0" src="/home/pass/samples/sillydrums/crash1.wav" lframe="0" sframe="0" amp="100" interp="1">
                    <key/>
                  </audiofileprocessor>
                </instrument>
                <eldata fcut="14000" fwet="0" fres="0.5" ftype="0">
                  <elvol rel="0.208" lspd_syncmode="0" pdel="0" lspd_numerator="4" lpdel="0" amt="1" ctlenvamt="0" lshp="0" userwavefile="" dec="0.216" lspd_denominator="4" sustain="0" lspd="0.1" latt="0" hold="0.232" att="0" x100="0" lamt="0"/>
                  <elcut rel="0.1" lspd_syncmode="0" pdel="0" lspd_numerator="4" lpdel="0" amt="0" ctlenvamt="0" lshp="0" userwavefile="" dec="0.5" lspd_denominator="4" sustain="0.5" lspd="0.1" latt="0" hold="0.5" att="0" x100="0" lamt="0"/>
                  <elres rel="0.1" lspd_syncmode="0" pdel="0" lspd_numerator="4" lpdel="0" amt="0" ctlenvamt="0" lshp="0" userwavefile="" dec="0.5" lspd_denominator="4" sustain="0.5" lspd="0.1" latt="0" hold="0.5" att="0" x100="0" lamt="0"/>
                </eldata>
                <chordcreator chord="0" chordrange="1" chord-enabled="0"/>
                <arpeggiator arptime_denominator="4" arptime="200" arp-enabled="0" arpcycle="0" arpgate="100" arp="0" arpmiss="0" arpdir="0" arprange="1" arpmode="0" arpskip="0" arptime_syncmode="0" arptime_numerator="4"/>
                <midiport inputcontroller="0" fixedinputvelocity="-1" readable="0" outputcontroller="0" fixedoutputnote="-1" outputprogram="1" writable="0" fixedoutputvelocity="-1" basevelocity="63" outputchannel="1" inputchannel="0"/>
                <fxchain enabled="0" numofeffects="0"/>
              </instrumenttrack>
              <pattern muted="0" name="" steps="64" type="0" pos="0"/>
              <pattern muted="0" name="" steps="64" type="0" pos="192"/>
              <pattern muted="0" name="" steps="32" type="0" pos="384">
                <note len="-192" key="57" pan="0" vol="100" pos="0"/>
                <note len="-192" key="57" pan="0" vol="100" pos="72"/>
                <note len="-192" key="57" pan="0" vol="100" pos="144"/>
                <note len="-192" key="57" pan="0" vol="100" pos="216"/>
              </pattern>
              <pattern muted="0" name="" steps="64" type="0" pos="576"/>
              <pattern muted="0" name="" steps="16" type="0" pos="768"/>
              <pattern muted="0" name="" steps="64" type="0" pos="960"/>
              <pattern muted="0" name="" steps="64" type="0" pos="1152"/>
              <pattern muted="0" name="" steps="32" type="0" pos="1344">
                <note len="-192" key="57" pan="0" vol="100" pos="0"/>
              </pattern>
              <pattern muted="0" name="" steps="64" type="0" pos="1536"/>
              <pattern muted="0" name="" steps="32" type="0" pos="1728"/>
              <pattern muted="0" name="" steps="32" type="0" pos="1920"/>
              <pattern muted="0" name="" steps="64" type="0" pos="2112"/>
              <pattern muted="0" name="" steps="32" type="0" pos="2304"/>
              <pattern muted="0" name="" steps="32" type="0" pos="2496"/>
              <pattern muted="0" name="" steps="64" type="0" pos="2688"/>
              <pattern muted="0" name="" steps="16" type="0" pos="2880"/>
              <pattern muted="0" name="" steps="16" type="0" pos="3072"/>
              <pattern muted="0" name="" steps="16" type="0" pos="3264"/>
              <pattern muted="0" name="" steps="32" type="0" pos="3456"/>
              <pattern muted="0" name="" steps="16" type="0" pos="3648"/>
              <pattern muted="0" name="" steps="32" type="0" pos="3840"/>
              <pattern muted="0" name="" steps="64" type="0" pos="4032"/>
              <pattern muted="0" name="" steps="64" type="0" pos="4224"/>
              <pattern muted="0" name="" steps="32" type="0" pos="4416"/>
              <pattern muted="0" name="" steps="32" type="0" pos="4608"/>
              <pattern muted="0" name="" steps="16" type="0" pos="4800"/>
              <pattern muted="0" name="" steps="32" type="0" pos="4992"/>
              <pattern muted="0" name="" steps="64" type="0" pos="5184"/>
              <pattern muted="0" name="" steps="64" type="0" pos="5376"/>
              <pattern muted="0" name="" steps="64" type="0" pos="5568"/>
              <pattern muted="0" name="" steps="128" type="0" pos="5760"/>
              <pattern muted="0" name="" steps="16" type="0" pos="5952"/>
              <pattern muted="0" name="" steps="64" type="0" pos="6144"/>
              <pattern muted="0" name="" steps="16" type="0" pos="6336"/>
              <pattern muted="0" name="" steps="16" type="0" pos="6528"/>
              <pattern muted="0" name="" steps="16" type="0" pos="6720"/>
              <pattern muted="0" name="" steps="64" type="0" pos="6912"/>
            </track>
            <track muted="0" name="crash2" type="0" solo="0" mutedBeforeSolo="0">
              <instrumenttrack usemasterpitch="1" pitchrange="1" pitch="0" pan="20" basenote="57" vol="76.8" fxch="5">
                <instrument name="audiofileprocessor">
                  <audiofileprocessor reversed="0" looped="0" eframe="1" stutter="0" src="/home/pass/samples/mtpdk_extract/crash2.wav" lframe="0" sframe="0" amp="100" interp="1">
                    <key/>
                  </audiofileprocessor>
                </instrument>
                <eldata fcut="14000" fwet="0" fres="0.5" ftype="0">
                  <elvol rel="2" lspd_syncmode="0" pdel="0" lspd_numerator="4" lpdel="0" amt="1" ctlenvamt="0" lshp="0" userwavefile="" dec="2" lspd_denominator="4" sustain="1" lspd="0.1" latt="0" hold="2" att="0" x100="0" lamt="0"/>
                  <elcut rel="0.1" lspd_syncmode="0" pdel="0" lspd_numerator="4" lpdel="0" amt="0" ctlenvamt="0" lshp="0" userwavefile="" dec="0.5" lspd_denominator="4" sustain="0.5" lspd="0.1" latt="0" hold="0.5" att="0" x100="0" lamt="0"/>
                  <elres rel="0.1" lspd_syncmode="0" pdel="0" lspd_numerator="4" lpdel="0" amt="0" ctlenvamt="0" lshp="0" userwavefile="" dec="0.5" lspd_denominator="4" sustain="0.5" lspd="0.1" latt="0" hold="0.5" att="0" x100="0" lamt="0"/>
                </eldata>
                <chordcreator chord="0" chordrange="1" chord-enabled="0"/>
                <arpeggiator arptime_denominator="4" arptime="200" arp-enabled="0" arpcycle="0" arpgate="100" arp="0" arpmiss="0" arpdir="0" arprange="1" arpmode="0" arpskip="0" arptime_syncmode="0" arptime_numerator="4"/>
                <midiport inputcontroller="0" fixedinputvelocity="-1" readable="0" outputcontroller="0" fixedoutputnote="-1" outputprogram="1" writable="0" fixedoutputvelocity="-1" basevelocity="63" outputchannel="1" inputchannel="0"/>
                <fxchain enabled="0" numofeffects="0"/>
              </instrumenttrack>
              <pattern muted="0" name="" steps="64" type="0" pos="0">
                <note len="-192" key="57" pan="0" vol="100" pos="384"/>
              </pattern>
              <pattern muted="0" name="" steps="64" type="0" pos="192">
                <note len="-192" key="57" pan="0" vol="100" pos="384"/>
              </pattern>
              <pattern muted="0" name="" steps="32" type="0" pos="384"/>
              <pattern muted="0" name="" steps="64" type="0" pos="576">
                <note len="-192" key="57" pan="0" vol="100" pos="384"/>
              </pattern>
              <pattern muted="0" name="" steps="16" type="0" pos="768"/>
              <pattern muted="0" name="" steps="64" type="0" pos="960">
                <note len="-192" key="57" pan="0" vol="100" pos="192"/>
              </pattern>
              <pattern muted="0" name="" steps="64" type="0" pos="1152">
                <note len="-192" key="57" pan="0" vol="100" pos="384"/>
              </pattern>
              <pattern muted="0" name="" steps="32" type="0" pos="1344"/>
              <pattern muted="0" name="" steps="64" type="0" pos="1536">
                <note len="-192" key="57" pan="0" vol="100" pos="384"/>
              </pattern>
              <pattern muted="0" name="" steps="32" type="0" pos="1728">
                <note len="-192" key="57" pan="0" vol="100" pos="192"/>
              </pattern>
              <pattern muted="0" name="" steps="32" type="0" pos="1920">
                <note len="-192" key="57" pan="0" vol="100" pos="192"/>
              </pattern>
              <pattern muted="0" name="" steps="64" type="0" pos="2112">
                <note len="-192" key="57" pan="0" vol="100" pos="384"/>
              </pattern>
              <pattern muted="0" name="" steps="32" type="0" pos="2304"/>
              <pattern muted="0" name="" steps="32" type="0" pos="2496">
                <note len="-192" key="57" pan="0" vol="100" pos="192"/>
              </pattern>
              <pattern muted="0" name="" steps="64" type="0" pos="2688">
                <note len="-192" key="57" pan="0" vol="100" pos="192"/>
              </pattern>
              <pattern muted="0" name="" steps="16" type="0" pos="2880">
                <note len="-192" key="57" pan="0" vol="100" pos="48"/>
              </pattern>
              <pattern muted="0" name="" steps="16" type="0" pos="3072">
                <note len="-192" key="57" pan="0" vol="100" pos="144"/>
              </pattern>
              <pattern muted="0" name="" steps="16" type="0" pos="3264"/>
              <pattern muted="0" name="" steps="32" type="0" pos="3456">
                <note len="-192" key="57" pan="0" vol="100" pos="192"/>
                <note len="-192" key="57" pan="0" vol="100" pos="288"/>
              </pattern>
              <pattern muted="0" name="" steps="16" type="0" pos="3648">
                <note len="-192" key="57" pan="0" vol="100" pos="96"/>
              </pattern>
              <pattern muted="0" name="" steps="32" type="0" pos="3840">
                <note len="-192" key="57" pan="0" vol="100" pos="288"/>
              </pattern>
              <pattern muted="0" name="" steps="64" type="0" pos="4032">
                <note len="-192" key="57" pan="0" vol="100" pos="192"/>
                <note len="-192" key="57" pan="0" vol="100" pos="576"/>
              </pattern>
              <pattern muted="0" name="" steps="64" type="0" pos="4224">
                <note len="-192" key="57" pan="0" vol="100" pos="192"/>
                <note len="-192" key="57" pan="0" vol="100" pos="576"/>
              </pattern>
              <pattern muted="0" name="" steps="32" type="0" pos="4416">
                <note len="-192" key="57" pan="0" vol="100" pos="192"/>
              </pattern>
              <pattern muted="0" name="" steps="32" type="0" pos="4608">
                <note len="-192" key="57" pan="0" vol="100" pos="192"/>
              </pattern>
              <pattern muted="0" name="" steps="16" type="0" pos="4800">
                <note len="-192" key="57" pan="0" vol="100" pos="96"/>
              </pattern>
              <pattern muted="0" name="" steps="32" type="0" pos="4992">
                <note len="-192" key="57" pan="0" vol="100" pos="72"/>
              </pattern>
              <pattern muted="0" name="" steps="64" type="0" pos="5184">
                <note len="-192" key="57" pan="0" vol="100" pos="192"/>
              </pattern>
              <pattern muted="0" name="" steps="64" type="0" pos="5376">
                <note len="-192" key="57" pan="0" vol="100" pos="192"/>
                <note len="-192" key="57" pan="0" vol="100" pos="672"/>
              </pattern>
              <pattern muted="0" name="" steps="64" type="0" pos="5568">
                <note len="-192" key="57" pan="0" vol="100" pos="384"/>
                <note len="-192" key="57" pan="0" vol="100" pos="672"/>
              </pattern>
              <pattern muted="0" name="" steps="128" type="0" pos="5760">
                <note len="-192" key="57" pan="0" vol="100" pos="768"/>
              </pattern>
              <pattern muted="0" name="" steps="16" type="0" pos="5952"/>
              <pattern muted="0" name="" steps="64" type="0" pos="6144">
                <note len="-192" key="57" pan="0" vol="100" pos="192"/>
              </pattern>
              <pattern muted="0" name="" steps="16" type="0" pos="6336"/>
              <pattern muted="0" name="" steps="16" type="0" pos="6528"/>
              <pattern muted="0" name="" steps="16" type="0" pos="6720"/>
              <pattern muted="0" name="" steps="64" type="0" pos="6912">
                <note len="-192" key="57" pan="0" vol="100" pos="576"/>
              </pattern>
            </track>
            <track muted="0" name="china" type="0" solo="0" mutedBeforeSolo="0">
              <instrumenttrack usemasterpitch="1" pitchrange="1" pitch="0" pan="29.6" basenote="57" vol="52" fxch="6">
                <instrument name="audiofileprocessor">
                  <audiofileprocessor reversed="0" looped="0" eframe="1" stutter="0" src="/home/pass/samples/sillydrums/china.wav" lframe="0" sframe="0" amp="100" interp="1">
                    <key/>
                  </audiofileprocessor>
                </instrument>
                <eldata fcut="14000" fwet="0" fres="0.5" ftype="0">
                  <elvol rel="2" lspd_syncmode="0" pdel="0" lspd_numerator="4" lpdel="0" amt="1" ctlenvamt="0" lshp="0" userwavefile="" dec="2" lspd_denominator="4" sustain="1" lspd="0.1" latt="0" hold="2" att="0" x100="0" lamt="0"/>
                  <elcut rel="0.1" lspd_syncmode="0" pdel="0" lspd_numerator="4" lpdel="0" amt="0" ctlenvamt="0" lshp="0" userwavefile="" dec="0.5" lspd_denominator="4" sustain="0.5" lspd="0.1" latt="0" hold="0.5" att="0" x100="0" lamt="0"/>
                  <elres rel="0.1" lspd_syncmode="0" pdel="0" lspd_numerator="4" lpdel="0" amt="0" ctlenvamt="0" lshp="0" userwavefile="" dec="0.5" lspd_denominator="4" sustain="0.5" lspd="0.1" latt="0" hold="0.5" att="0" x100="0" lamt="0"/>
                </eldata>
                <chordcreator chord="0" chordrange="1" chord-enabled="0"/>
                <arpeggiator arptime_denominator="4" arptime="200" arp-enabled="0" arpcycle="0" arpgate="100" arp="0" arpmiss="0" arpdir="0" arprange="1" arpmode="0" arpskip="0" arptime_syncmode="0" arptime_numerator="4"/>
                <midiport inputcontroller="0" fixedinputvelocity="-1" readable="0" outputcontroller="0" fixedoutputnote="-1" outputprogram="1" writable="0" fixedoutputvelocity="-1" basevelocity="63" outputchannel="1" inputchannel="0"/>
                <fxchain enabled="0" numofeffects="0"/>
              </instrumenttrack>
              <pattern muted="0" name="" steps="64" type="0" pos="0"/>
              <pattern muted="0" name="" steps="64" type="0" pos="192"/>
              <pattern muted="0" name="" steps="32" type="0" pos="384"/>
              <pattern muted="0" name="" steps="64" type="0" pos="576"/>
              <pattern muted="0" name="" steps="16" type="0" pos="768"/>
              <pattern muted="0" name="" steps="64" type="0" pos="960"/>
              <pattern muted="0" name="" steps="64" type="0" pos="1152"/>
              <pattern muted="0" name="" steps="32" type="0" pos="1344"/>
              <pattern muted="0" name="" steps="64" type="0" pos="1536"/>
              <pattern muted="0" name="" steps="32" type="0" pos="1728"/>
              <pattern muted="0" name="" steps="32" type="0" pos="1920"/>
              <pattern muted="0" name="" steps="64" type="0" pos="2112"/>
              <pattern muted="0" name="" steps="32" type="0" pos="2304"/>
              <pattern muted="0" name="" steps="32" type="0" pos="2496"/>
              <pattern muted="0" name="" steps="64" type="0" pos="2688"/>
              <pattern muted="0" name="" steps="16" type="0" pos="2880"/>
              <pattern muted="0" name="" steps="16" type="0" pos="3072"/>
              <pattern muted="0" name="" steps="16" type="0" pos="3264"/>
              <pattern muted="0" name="" steps="32" type="0" pos="3456"/>
              <pattern muted="0" name="" steps="16" type="0" pos="3648"/>
              <pattern muted="0" name="" steps="32" type="0" pos="3840"/>
              <pattern muted="0" name="" steps="64" type="0" pos="4032"/>
              <pattern muted="0" name="" steps="64" type="0" pos="4224"/>
              <pattern muted="0" name="" steps="32" type="0" pos="4416">
                <note len="-192" key="57" pan="0" vol="100" pos="48"/>
                <note len="-192" key="57" pan="0" vol="100" pos="96"/>
                <note len="-192" key="57" pan="0" vol="100" pos="144"/>
                <note len="-192" key="57" pan="0" vol="100" pos="240"/>
                <note len="-192" key="57" pan="0" vol="100" pos="288"/>
                <note len="-192" key="57" pan="0" vol="100" pos="336"/>
              </pattern>
              <pattern muted="0" name="" steps="32" type="0" pos="4608"/>
              <pattern muted="0" name="" steps="16" type="0" pos="4800"/>
              <pattern muted="0" name="" steps="32" type="0" pos="4992"/>
              <pattern muted="0" name="" steps="64" type="0" pos="5184">
                <note len="-192" key="57" pan="0" vol="100" pos="672"/>
              </pattern>
              <pattern muted="0" name="" steps="64" type="0" pos="5376"/>
              <pattern muted="0" name="" steps="64" type="0" pos="5568"/>
              <pattern muted="0" name="" steps="128" type="0" pos="5760"/>
              <pattern muted="0" name="" steps="16" type="0" pos="5952"/>
              <pattern muted="0" name="" steps="64" type="0" pos="6144"/>
              <pattern muted="0" name="" steps="16" type="0" pos="6336"/>
              <pattern muted="0" name="" steps="16" type="0" pos="6528"/>
              <pattern muted="0" name="" steps="16" type="0" pos="6720"/>
              <pattern muted="0" name="" steps="64" type="0" pos="6912"/>
            </track>
            <track muted="0" name="tom1" type="0" solo="0" mutedBeforeSolo="0">
              <instrumenttrack usemasterpitch="1" pitchrange="1" pitch="0" pan="0" basenote="57" vol="130.4" fxch="7">
                <instrument name="audiofileprocessor">
                  <audiofileprocessor reversed="0" looped="0" eframe="1" stutter="0" src="/home/pass/samples/sillydrums/hiTom.wav" lframe="0" sframe="0" amp="100" interp="1">
                    <key/>
                  </audiofileprocessor>
                </instrument>
                <eldata fcut="14000" fwet="0" fres="0.5" ftype="0">
                  <elvol rel="2" lspd_syncmode="0" pdel="0" lspd_numerator="4" lpdel="0" amt="1" ctlenvamt="0" lshp="0" userwavefile="" dec="2" lspd_denominator="4" sustain="1" lspd="0.1" latt="0" hold="2" att="0" x100="0" lamt="0"/>
                  <elcut rel="0.1" lspd_syncmode="0" pdel="0" lspd_numerator="4" lpdel="0" amt="0" ctlenvamt="0" lshp="0" userwavefile="" dec="0.5" lspd_denominator="4" sustain="0.5" lspd="0.1" latt="0" hold="0.5" att="0" x100="0" lamt="0"/>
                  <elres rel="0.1" lspd_syncmode="0" pdel="0" lspd_numerator="4" lpdel="0" amt="0" ctlenvamt="0" lshp="0" userwavefile="" dec="0.5" lspd_denominator="4" sustain="0.5" lspd="0.1" latt="0" hold="0.5" att="0" x100="0" lamt="0"/>
                </eldata>
                <chordcreator chord="0" chordrange="1" chord-enabled="0"/>
                <arpeggiator arptime_denominator="4" arptime="200" arp-enabled="0" arpcycle="0" arpgate="100" arp="0" arpmiss="0" arpdir="0" arprange="1" arpmode="0" arpskip="0" arptime_syncmode="0" arptime_numerator="4"/>
                <midiport inputcontroller="0" fixedinputvelocity="-1" readable="0" outputcontroller="0" fixedoutputnote="-1" outputprogram="1" writable="0" fixedoutputvelocity="-1" basevelocity="63" outputchannel="1" inputchannel="0"/>
                <fxchain enabled="0" numofeffects="0"/>
              </instrumenttrack>
              <pattern muted="0" name="" steps="64" type="0" pos="0"/>
              <pattern muted="0" name="" steps="64" type="0" pos="192"/>
              <pattern muted="0" name="" steps="32" type="0" pos="384"/>
              <pattern muted="0" name="" steps="64" type="0" pos="576"/>
              <pattern muted="0" name="" steps="16" type="0" pos="768"/>
              <pattern muted="0" name="" steps="64" type="0" pos="960"/>
              <pattern muted="0" name="" steps="64" type="0" pos="1152"/>
              <pattern muted="0" name="" steps="32" type="0" pos="1344"/>
              <pattern muted="0" name="" steps="64" type="0" pos="1536"/>
              <pattern muted="0" name="" steps="32" type="0" pos="1728"/>
              <pattern muted="0" name="" steps="32" type="0" pos="1920">
                <note len="-192" key="57" pan="0" vol="100" pos="72"/>
                <note len="-192" key="57" pan="0" vol="100" pos="84"/>
                <note len="-192" key="57" pan="0" vol="100" pos="348"/>
              </pattern>
              <pattern muted="0" name="" steps="64" type="0" pos="2112"/>
              <pattern muted="0" name="" steps="32" type="0" pos="2304">
                <note len="-192" key="57" pan="0" vol="100" pos="204"/>
                <note len="-192" key="57" pan="0" vol="100" pos="216"/>
                <note len="-192" key="57" pan="0" vol="100" pos="228"/>
              </pattern>
              <pattern muted="0" name="" steps="32" type="0" pos="2496"/>
              <pattern muted="0" name="" steps="64" type="0" pos="2688"/>
              <pattern muted="0" name="" steps="16" type="0" pos="2880"/>
              <pattern muted="0" name="" steps="16" type="0" pos="3072">
                <note len="-192" key="57" pan="0" vol="100" pos="12"/>
                <note len="-192" key="57" pan="0" vol="100" pos="60"/>
              </pattern>
              <pattern muted="0" name="" steps="16" type="0" pos="3264"/>
              <pattern muted="0" name="" steps="32" type="0" pos="3456"/>
              <pattern muted="0" name="" steps="16" type="0" pos="3648"/>
              <pattern muted="0" name="" steps="32" type="0" pos="3840"/>
              <pattern muted="0" name="" steps="64" type="0" pos="4032"/>
              <pattern muted="0" name="" steps="64" type="0" pos="4224"/>
              <pattern muted="0" name="" steps="32" type="0" pos="4416"/>
              <pattern muted="0" name="" steps="32" type="0" pos="4608">
                <note len="-192" key="57" pan="0" vol="100" pos="24"/>
                <note len="-192" key="57" pan="0" vol="100" pos="36"/>
                <note len="-192" key="57" pan="0" vol="100" pos="48"/>
                <note len="-192" key="57" pan="0" vol="100" pos="60"/>
              </pattern>
              <pattern muted="0" name="" steps="16" type="0" pos="4800"/>
              <pattern muted="0" name="" steps="32" type="0" pos="4992">
                <note len="-192" key="57" pan="0" vol="100" pos="192"/>
                <note len="-192" key="57" pan="0" vol="100" pos="204"/>
                <note len="-192" key="57" pan="0" vol="100" pos="288"/>
                <note len="-192" key="57" pan="0" vol="100" pos="300"/>
              </pattern>
              <pattern muted="0" name="" steps="64" type="0" pos="5184"/>
              <pattern muted="0" name="" steps="64" type="0" pos="5376"/>
              <pattern muted="0" name="" steps="64" type="0" pos="5568"/>
              <pattern muted="0" name="" steps="128" type="0" pos="5760"/>
              <pattern muted="0" name="" steps="16" type="0" pos="5952">
                <note len="-192" key="57" pan="0" vol="100" pos="12"/>
                <note len="-192" key="57" pan="0" vol="100" pos="24"/>
                <note len="-192" key="57" pan="0" vol="100" pos="36"/>
              </pattern>
              <pattern muted="0" name="" steps="64" type="0" pos="6144"/>
              <pattern muted="0" name="" steps="16" type="0" pos="6336">
                <note len="-192" key="57" pan="0" vol="100" pos="120"/>
                <note len="-192" key="57" pan="0" vol="100" pos="132"/>
              </pattern>
              <pattern muted="0" name="" steps="16" type="0" pos="6528"/>
              <pattern muted="0" name="" steps="16" type="0" pos="6720"/>
              <pattern muted="0" name="" steps="64" type="0" pos="6912">
                <note len="-192" key="57" pan="0" vol="100" pos="12"/>
                <note len="-192" key="57" pan="0" vol="100" pos="60"/>
                <note len="-192" key="57" pan="0" vol="100" pos="108"/>
                <note len="-192" key="57" pan="0" vol="100" pos="156"/>
                <note len="-192" key="57" pan="0" vol="100" pos="216"/>
                <note len="-192" key="57" pan="0" vol="100" pos="228"/>
                <note len="-192" key="57" pan="0" vol="100" pos="240"/>
                <note len="-192" key="57" pan="0" vol="100" pos="252"/>
                <note len="-192" key="57" pan="0" vol="100" pos="492"/>
              </pattern>
            </track>
            <track muted="0" name="tom2" type="0" solo="0" mutedBeforeSolo="0">
              <instrumenttrack usemasterpitch="1" pitchrange="1" pitch="0" pan="0" basenote="57" vol="130.4" fxch="8">
                <instrument name="audiofileprocessor">
                  <audiofileprocessor reversed="0" looped="0" eframe="1" stutter="0" src="/home/pass/samples/sillydrums/midTom.wav" lframe="0" sframe="0" amp="100" interp="1">
                    <key/>
                  </audiofileprocessor>
                </instrument>
                <eldata fcut="14000" fwet="0" fres="0.5" ftype="0">
                  <elvol rel="2" lspd_syncmode="0" pdel="0" lspd_numerator="4" lpdel="0" amt="1" ctlenvamt="0" lshp="0" userwavefile="" dec="2" lspd_denominator="4" sustain="1" lspd="0.1" latt="0" hold="2" att="0" x100="0" lamt="0"/>
                  <elcut rel="0.1" lspd_syncmode="0" pdel="0" lspd_numerator="4" lpdel="0" amt="0" ctlenvamt="0" lshp="0" userwavefile="" dec="0.5" lspd_denominator="4" sustain="0.5" lspd="0.1" latt="0" hold="0.5" att="0" x100="0" lamt="0"/>
                  <elres rel="0.1" lspd_syncmode="0" pdel="0" lspd_numerator="4" lpdel="0" amt="0" ctlenvamt="0" lshp="0" userwavefile="" dec="0.5" lspd_denominator="4" sustain="0.5" lspd="0.1" latt="0" hold="0.5" att="0" x100="0" lamt="0"/>
                </eldata>
                <chordcreator chord="0" chordrange="1" chord-enabled="0"/>
                <arpeggiator arptime_denominator="4" arptime="200" arp-enabled="0" arpcycle="0" arpgate="100" arp="0" arpmiss="0" arpdir="0" arprange="1" arpmode="0" arpskip="0" arptime_syncmode="0" arptime_numerator="4"/>
                <midiport inputcontroller="0" fixedinputvelocity="-1" readable="0" outputcontroller="0" fixedoutputnote="-1" outputprogram="1" writable="0" fixedoutputvelocity="-1" basevelocity="63" outputchannel="1" inputchannel="0"/>
                <fxchain enabled="0" numofeffects="0"/>
              </instrumenttrack>
              <pattern muted="0" name="" steps="64" type="0" pos="0"/>
              <pattern muted="0" name="" steps="64" type="0" pos="192"/>
              <pattern muted="0" name="" steps="32" type="0" pos="384"/>
              <pattern muted="0" name="" steps="64" type="0" pos="576"/>
              <pattern muted="0" name="" steps="16" type="0" pos="768">
                <note len="-192" key="57" pan="0" vol="100" pos="108"/>
                <note len="-192" key="57" pan="0" vol="100" pos="120"/>
                <note len="-192" key="57" pan="0" vol="100" pos="132"/>
              </pattern>
              <pattern muted="0" name="" steps="64" type="0" pos="960"/>
              <pattern muted="0" name="" steps="64" type="0" pos="1152"/>
              <pattern muted="0" name="" steps="32" type="0" pos="1344"/>
              <pattern muted="0" name="" steps="64" type="0" pos="1536"/>
              <pattern muted="0" name="" steps="32" type="0" pos="1728"/>
              <pattern muted="0" name="" steps="32" type="0" pos="1920">
                <note len="-192" key="57" pan="0" vol="100" pos="96"/>
                <note len="-192" key="57" pan="0" vol="100" pos="108"/>
                <note len="-192" key="57" pan="0" vol="100" pos="144"/>
                <note len="-192" key="57" pan="0" vol="100" pos="156"/>
                <note len="-192" key="57" pan="0" vol="100" pos="360"/>
              </pattern>
              <pattern muted="0" name="" steps="64" type="0" pos="2112"/>
              <pattern muted="0" name="" steps="32" type="0" pos="2304">
                <note len="-192" key="57" pan="0" vol="100" pos="252"/>
                <note len="-192" key="57" pan="0" vol="100" pos="264"/>
                <note len="-192" key="57" pan="0" vol="100" pos="276"/>
              </pattern>
              <pattern muted="0" name="" steps="32" type="0" pos="2496"/>
              <pattern muted="0" name="" steps="64" type="0" pos="2688"/>
              <pattern muted="0" name="" steps="16" type="0" pos="2880"/>
              <pattern muted="0" name="" steps="16" type="0" pos="3072">
                <note len="-192" key="57" pan="0" vol="100" pos="24"/>
                <note len="-192" key="57" pan="0" vol="100" pos="72"/>
              </pattern>
              <pattern muted="0" name="" steps="16" type="0" pos="3264"/>
              <pattern muted="0" name="" steps="32" type="0" pos="3456"/>
              <pattern muted="0" name="" steps="16" type="0" pos="3648"/>
              <pattern muted="0" name="" steps="32" type="0" pos="3840"/>
              <pattern muted="0" name="" steps="64" type="0" pos="4032">
                <note len="-192" key="57" pan="0" vol="100" pos="684"/>
                <note len="-192" key="57" pan="0" vol="100" pos="696"/>
                <note len="-192" key="57" pan="0" vol="100" pos="708"/>
              </pattern>
              <pattern muted="0" name="" steps="64" type="0" pos="4224">
                <note len="-192" key="57" pan="0" vol="100" pos="684"/>
                <note len="-192" key="57" pan="0" vol="100" pos="696"/>
                <note len="-192" key="57" pan="0" vol="100" pos="708"/>
              </pattern>
              <pattern muted="0" name="" steps="32" type="0" pos="4416"/>
              <pattern muted="0" name="" steps="32" type="0" pos="4608">
                <note len="-192" key="57" pan="0" vol="100" pos="96"/>
                <note len="-192" key="57" pan="0" vol="100" pos="108"/>
                <note len="-192" key="57" pan="0" vol="100" pos="120"/>
                <note len="-192" key="57" pan="0" vol="100" pos="132"/>
              </pattern>
              <pattern muted="0" name="" steps="16" type="0" pos="4800"/>
              <pattern muted="0" name="" steps="32" type="0" pos="4992">
                <note len="-192" key="57" pan="0" vol="100" pos="24"/>
                <note len="-192" key="57" pan="0" vol="100" pos="36"/>
                <note len="-192" key="57" pan="0" vol="100" pos="120"/>
                <note len="-192" key="57" pan="0" vol="100" pos="168"/>
                <note len="-192" key="57" pan="0" vol="100" pos="216"/>
                <note len="-192" key="57" pan="0" vol="100" pos="228"/>
                <note len="-192" key="57" pan="0" vol="100" pos="312"/>
                <note len="-192" key="57" pan="0" vol="100" pos="324"/>
              </pattern>
              <pattern muted="0" name="" steps="64" type="0" pos="5184"/>
              <pattern muted="0" name="" steps="64" type="0" pos="5376"/>
              <pattern muted="0" name="" steps="64" type="0" pos="5568"/>
              <pattern muted="0" name="" steps="128" type="0" pos="5760"/>
              <pattern muted="0" name="" steps="16" type="0" pos="5952">
                <note len="-192" key="57" pan="0" vol="100" pos="60"/>
                <note len="-192" key="57" pan="0" vol="100" pos="72"/>
                <note len="-192" key="57" pan="0" vol="100" pos="84"/>
              </pattern>
              <pattern muted="0" name="" steps="64" type="0" pos="6144"/>
              <pattern muted="0" name="" steps="16" type="0" pos="6336">
                <note len="-192" key="57" pan="0" vol="100" pos="144"/>
                <note len="-192" key="57" pan="0" vol="100" pos="156"/>
              </pattern>
              <pattern muted="0" name="" steps="16" type="0" pos="6528"/>
              <pattern muted="0" name="" steps="16" type="0" pos="6720"/>
              <pattern muted="0" name="" steps="64" type="0" pos="6912">
                <note len="-192" key="57" pan="0" vol="100" pos="24"/>
                <note len="-192" key="57" pan="0" vol="100" pos="72"/>
                <note len="-192" key="57" pan="0" vol="100" pos="120"/>
                <note len="-192" key="57" pan="0" vol="100" pos="168"/>
                <note len="-192" key="57" pan="0" vol="100" pos="288"/>
                <note len="-192" key="57" pan="0" vol="100" pos="300"/>
                <note len="-192" key="57" pan="0" vol="100" pos="312"/>
                <note len="-192" key="57" pan="0" vol="100" pos="324"/>
                <note len="-192" key="57" pan="0" vol="100" pos="504"/>
              </pattern>
            </track>
            <track muted="0" name="tom3" type="0" solo="0" mutedBeforeSolo="0">
              <instrumenttrack usemasterpitch="1" pitchrange="1" pitch="0" pan="0" basenote="57" vol="130.4" fxch="9">
                <instrument name="audiofileprocessor">
                  <audiofileprocessor reversed="0" looped="0" eframe="1" stutter="0" src="/home/pass/samples/sillydrums/loTom.wav" lframe="0" sframe="0" amp="100" interp="1">
                    <key/>
                  </audiofileprocessor>
                </instrument>
                <eldata fcut="14000" fwet="0" fres="0.5" ftype="0">
                  <elvol rel="2" lspd_syncmode="0" pdel="0" lspd_numerator="4" lpdel="0" amt="1" ctlenvamt="0" lshp="0" userwavefile="" dec="2" lspd_denominator="4" sustain="1" lspd="0.1" latt="0" hold="2" att="0" x100="0" lamt="0"/>
                  <elcut rel="0.1" lspd_syncmode="0" pdel="0" lspd_numerator="4" lpdel="0" amt="0" ctlenvamt="0" lshp="0" userwavefile="" dec="0.5" lspd_denominator="4" sustain="0.5" lspd="0.1" latt="0" hold="0.5" att="0" x100="0" lamt="0"/>
                  <elres rel="0.1" lspd_syncmode="0" pdel="0" lspd_numerator="4" lpdel="0" amt="0" ctlenvamt="0" lshp="0" userwavefile="" dec="0.5" lspd_denominator="4" sustain="0.5" lspd="0.1" latt="0" hold="0.5" att="0" x100="0" lamt="0"/>
                </eldata>
                <chordcreator chord="0" chordrange="1" chord-enabled="0"/>
                <arpeggiator arptime_denominator="4" arptime="200" arp-enabled="0" arpcycle="0" arpgate="100" arp="0" arpmiss="0" arpdir="0" arprange="1" arpmode="0" arpskip="0" arptime_syncmode="0" arptime_numerator="4"/>
                <midiport inputcontroller="0" fixedinputvelocity="-1" readable="0" outputcontroller="0" fixedoutputnote="-1" outputprogram="1" writable="0" fixedoutputvelocity="-1" basevelocity="63" outputchannel="1" inputchannel="0"/>
                <fxchain enabled="0" numofeffects="0"/>
              </instrumenttrack>
              <pattern muted="0" name="" steps="64" type="0" pos="0"/>
              <pattern muted="0" name="" steps="64" type="0" pos="192"/>
              <pattern muted="0" name="" steps="32" type="0" pos="384"/>
              <pattern muted="0" name="" steps="64" type="0" pos="576"/>
              <pattern muted="0" name="" steps="16" type="0" pos="768">
                <note len="-192" key="57" pan="0" vol="100" pos="156"/>
                <note len="-192" key="57" pan="0" vol="100" pos="168"/>
                <note len="-192" key="57" pan="0" vol="100" pos="180"/>
              </pattern>
              <pattern muted="0" name="" steps="64" type="0" pos="960"/>
              <pattern muted="0" name="" steps="64" type="0" pos="1152"/>
              <pattern muted="0" name="" steps="32" type="0" pos="1344"/>
              <pattern muted="0" name="" steps="64" type="0" pos="1536"/>
              <pattern muted="0" name="" steps="32" type="0" pos="1728"/>
              <pattern muted="0" name="" steps="32" type="0" pos="1920">
                <note len="-192" key="57" pan="0" vol="100" pos="168"/>
                <note len="-192" key="57" pan="0" vol="100" pos="180"/>
                <note len="-192" key="57" pan="0" vol="100" pos="372"/>
              </pattern>
              <pattern muted="0" name="" steps="64" type="0" pos="2112"/>
              <pattern muted="0" name="" steps="32" type="0" pos="2304">
                <note len="-192" key="57" pan="0" vol="100" pos="300"/>
                <note len="-192" key="57" pan="0" vol="100" pos="312"/>
                <note len="-192" key="57" pan="0" vol="100" pos="324"/>
              </pattern>
              <pattern muted="0" name="" steps="32" type="0" pos="2496"/>
              <pattern muted="0" name="" steps="64" type="0" pos="2688"/>
              <pattern muted="0" name="" steps="16" type="0" pos="2880"/>
              <pattern muted="0" name="" steps="16" type="0" pos="3072">
                <note len="-192" key="57" pan="0" vol="100" pos="36"/>
                <note len="-192" key="57" pan="0" vol="100" pos="84"/>
              </pattern>
              <pattern muted="0" name="" steps="16" type="0" pos="3264"/>
              <pattern muted="0" name="" steps="32" type="0" pos="3456"/>
              <pattern muted="0" name="" steps="16" type="0" pos="3648"/>
              <pattern muted="0" name="" steps="32" type="0" pos="3840"/>
              <pattern muted="0" name="" steps="64" type="0" pos="4032">
                <note len="-192" key="57" pan="0" vol="100" pos="732"/>
                <note len="-192" key="57" pan="0" vol="100" pos="744"/>
                <note len="-192" key="57" pan="0" vol="100" pos="756"/>
              </pattern>
              <pattern muted="0" name="" steps="64" type="0" pos="4224">
                <note len="-192" key="57" pan="0" vol="100" pos="732"/>
                <note len="-192" key="57" pan="0" vol="100" pos="744"/>
                <note len="-192" key="57" pan="0" vol="100" pos="756"/>
              </pattern>
              <pattern muted="0" name="" steps="32" type="0" pos="4416"/>
              <pattern muted="0" name="" steps="32" type="0" pos="4608">
                <note len="-192" key="57" pan="0" vol="100" pos="168"/>
                <note len="-192" key="57" pan="0" vol="100" pos="180"/>
              </pattern>
              <pattern muted="0" name="" steps="16" type="0" pos="4800">
                <note len="-192" key="57" pan="0" vol="100" pos="168"/>
                <note len="-192" key="57" pan="0" vol="100" pos="180"/>
              </pattern>
              <pattern muted="0" name="" steps="32" type="0" pos="4992">
                <note len="-192" key="57" pan="0" vol="100" pos="48"/>
                <note len="-192" key="57" pan="0" vol="100" pos="60"/>
                <note len="-192" key="57" pan="0" vol="100" pos="120"/>
                <note len="-192" key="57" pan="0" vol="100" pos="168"/>
                <note len="-192" key="57" pan="0" vol="100" pos="264"/>
                <note len="-192" key="57" pan="0" vol="100" pos="276"/>
              </pattern>
              <pattern muted="0" name="" steps="64" type="0" pos="5184"/>
              <pattern muted="0" name="" steps="64" type="0" pos="5376"/>
              <pattern muted="0" name="" steps="64" type="0" pos="5568"/>
              <pattern muted="0" name="" steps="128" type="0" pos="5760"/>
              <pattern muted="0" name="" steps="16" type="0" pos="5952">
                <note len="-192" key="57" pan="0" vol="100" pos="108"/>
                <note len="-192" key="57" pan="0" vol="100" pos="120"/>
                <note len="-192" key="57" pan="0" vol="100" pos="132"/>
              </pattern>
              <pattern muted="0" name="" steps="64" type="0" pos="6144"/>
              <pattern muted="0" name="" steps="16" type="0" pos="6336">
                <note len="-192" key="57" pan="0" vol="100" pos="168"/>
                <note len="-192" key="57" pan="0" vol="100" pos="180"/>
              </pattern>
              <pattern muted="0" name="" steps="16" type="0" pos="6528"/>
              <pattern muted="0" name="" steps="16" type="0" pos="6720"/>
              <pattern muted="0" name="" steps="64" type="0" pos="6912">
                <note len="-192" key="57" pan="0" vol="100" pos="36"/>
                <note len="-192" key="57" pan="0" vol="100" pos="84"/>
                <note len="-192" key="57" pan="0" vol="100" pos="132"/>
                <note len="-192" key="57" pan="0" vol="100" pos="180"/>
                <note len="-192" key="57" pan="0" vol="100" pos="360"/>
                <note len="-192" key="57" pan="0" vol="100" pos="372"/>
                <note len="-192" key="57" pan="0" vol="100" pos="384"/>
                <note len="-192" key="57" pan="0" vol="100" pos="396"/>
                <note len="-192" key="57" pan="0" vol="100" pos="432"/>
                <note len="-192" key="57" pan="0" vol="100" pos="444"/>
                <note len="-192" key="57" pan="0" vol="100" pos="456"/>
                <note len="-192" key="57" pan="0" vol="100" pos="468"/>
                <note len="-192" key="57" pan="0" vol="100" pos="516"/>
              </pattern>
            </track>
          </trackcontainer>
        </bbtrack>
        <bbtco muted="0" len="768" name="" pos="384"/>
      </track>
      <track muted="0" name="Clone of intro1" type="1" solo="0" mutedBeforeSolo="0">
        <bbtrack/>
        <bbtco muted="0" len="768" name="" pos="1152"/>
      </track>
      <track muted="0" name="intro2" type="1" solo="0" mutedBeforeSolo="0">
        <bbtrack/>
        <bbtco muted="0" len="1152" name="" pos="1920"/>
      </track>
      <track muted="0" name="bootcamp1" type="1" solo="0" mutedBeforeSolo="0">
        <bbtrack/>
        <bbtco muted="0" len="1536" name="" pos="9600"/>
        <bbtco muted="0" len="1344" name="" pos="17280"/>
        <bbtco muted="0" len="1152" name="" pos="41088"/>
        <bbtco muted="0" len="1344" name="" pos="45696"/>
      </track>
      <track muted="0" name="fill1" type="1" solo="0" mutedBeforeSolo="0">
        <bbtrack/>
      </track>
      <track muted="0" name="Clone of bootcamp1" type="1" solo="0" mutedBeforeSolo="0">
        <bbtrack/>
        <bbtco muted="0" len="1536" name="" pos="4992"/>
        <bbtco muted="0" len="768" name="" pos="14976"/>
        <bbtco muted="0" len="1536" name="" pos="36480"/>
      </track>
      <track muted="0" name="Clone of Clone of bootcamp1" type="1" solo="0" mutedBeforeSolo="0">
        <bbtrack/>
        <bbtco muted="0" len="576" name="" pos="38784"/>
      </track>
      <track muted="0" name="kick/mutecrash" type="1" solo="0" mutedBeforeSolo="0">
        <bbtrack/>
        <bbtco muted="0" len="384" name="" pos="12672"/>
      </track>
      <track muted="0" name="Beat/Bassline 6" type="1" solo="0" mutedBeforeSolo="0">
        <bbtrack/>
        <bbtco muted="0" len="768" name="" pos="6528"/>
        <bbtco muted="0" len="768" name="" pos="14208"/>
        <bbtco muted="0" len="768" name="" pos="38016"/>
      </track>
      <track muted="0" name="Clone of Beat/Bassline 6" type="1" solo="0" mutedBeforeSolo="0">
        <bbtrack/>
        <bbtco muted="0" len="1152" name="" pos="8064"/>
        <bbtco muted="0" len="1152" name="" pos="15744"/>
        <bbtco muted="0" len="1344" name="" pos="20352"/>
        <bbtco muted="0" len="2688" name="" pos="31872"/>
        <bbtco muted="0" len="1152" name="" pos="44160"/>
      </track>
      <track muted="0" name="Clone of Clone of Beat/Bassline 6" type="1" solo="0" mutedBeforeSolo="0">
        <bbtrack/>
        <bbtco muted="0" len="384" name="" pos="34560"/>
      </track>
      <track muted="0" name="Clone of Clone of Beat/Bassline 6" type="1" solo="0" mutedBeforeSolo="0">
        <bbtrack/>
        <bbtco muted="0" len="3072" name="" pos="59520"/>
      </track>
      <track muted="0" name="Clone of Clone of Beat/Bassline 6" type="1" solo="0" mutedBeforeSolo="0">
        <bbtrack/>
        <bbtco muted="0" len="384" name="" pos="9216"/>
        <bbtco muted="0" len="384" name="" pos="16896"/>
        <bbtco muted="0" len="384" name="" pos="40704"/>
        <bbtco muted="0" len="384" name="" pos="45312"/>
      </track>
      <track muted="0" name="Automation track" type="5" solo="0" mutedBeforeSolo="0">
        <automationtrack/>
      </track>
      <track muted="0" name="Beat/Bassline 11" type="1" solo="0" mutedBeforeSolo="0">
        <bbtrack/>
        <bbtco muted="0" len="576" name="" pos="4224"/>
        <bbtco muted="0" len="1536" name="" pos="11136"/>
        <bbtco muted="0" len="576" name="" pos="7296"/>
        <bbtco muted="0" len="1344" name="" pos="18816"/>
        <bbtco muted="0" len="768" name="" pos="35712"/>
        <bbtco muted="0" len="1152" name="" pos="39552"/>
        <bbtco muted="0" len="2880" name="" pos="47232"/>
        <bbtco muted="0" len="384" name="" pos="63360"/>
      </track>
      <track muted="0" name="Clone of Beat/Bassline 11" type="1" solo="0" mutedBeforeSolo="0">
        <bbtrack/>
        <bbtco muted="0" len="2688" name="" pos="53376"/>
      </track>
      <track muted="0" name="Beat/Bassline 18" type="1" solo="0" mutedBeforeSolo="0">
        <bbtrack/>
        <bbtco muted="0" len="192" name="" pos="20160"/>
      </track>
      <track muted="0" name="Beat/Bassline 12" type="1" solo="0" mutedBeforeSolo="0">
        <bbtrack/>
        <bbtco muted="0" len="192" name="" pos="4800"/>
        <bbtco muted="0" len="192" name="" pos="21696"/>
      </track>
      <track muted="0" name="Beat/Bassline 19" type="1" solo="0" mutedBeforeSolo="0">
        <bbtrack/>
        <bbtco muted="0" len="192" name="" pos="18624"/>
      </track>
      <track muted="0" name="rgt pitch" type="5" solo="0" mutedBeforeSolo="0">
        <automationtrack/>
        <automationpattern mute="0" len="384" name="AM pitchshifter>>>Pitch shift" tens="1" prog="2" pos="13440">
          <time value="1.09031" pos="0"/>
          <time value="2.28938" pos="96"/>
          <time value="1.21734" pos="192"/>
          <time value="2.76844" pos="384"/>
          <object id="7309738"/>
        </automationpattern>
        <automationpattern mute="0" len="192" name="AM pitchshifter>>>Pitch shift" tens="1" prog="0" pos="11904">
          <time value="2.32734" pos="0"/>
          <object id="7309738"/>
        </automationpattern>
        <automationpattern mute="0" len="192" name="AM pitchshifter>>>Pitch shift" tens="1" prog="0" pos="13824">
          <time value="2.32734" pos="0"/>
          <object id="7309738"/>
        </automationpattern>
        <automationpattern mute="0" len="192" name="AM pitchshifter>>>Pitch shift" tens="1" prog="0" pos="0">
          <time value="2.32734" pos="0"/>
          <object id="7309738"/>
        </automationpattern>
      </track>
      <track muted="0" name="lgt pitch" type="5" solo="0" mutedBeforeSolo="0">
        <automationtrack/>
        <automationpattern mute="0" len="192" name="Tempo" tens="1" prog="0" pos="0">
          <time value="201" pos="0"/>
          <object id="2356958"/>
        </automationpattern>
        <automationpattern mute="0" len="192" name="AM pitchshifter>>>Pitch shift" tens="1" prog="0" pos="31680">
          <time value="2.32441" pos="0"/>
          <object id="485849"/>
        </automationpattern>
        <automationpattern mute="0" len="384" name="AM pitchshifter>>>Pitch shift" tens="1" prog="2" pos="31872">
          <time value="1.34484" pos="0"/>
          <time value="2.74078" pos="24"/>
          <time value="1.31766" pos="240"/>
          <time value="0.25" pos="384"/>
          <object id="485849"/>
        </automationpattern>
        <automationpattern mute="0" len="192" name="AM pitchshifter>>>Pitch shift" tens="1" prog="0" pos="32256">
          <time value="2.32441" pos="0"/>
          <object id="485849"/>
        </automationpattern>
        <automationpattern mute="0" len="192" name="AM pitchshifter>>>Pitch shift" tens="1" prog="2" pos="64320">
          <time value="1.34484" pos="0"/>
          <time value="2.66859" pos="24"/>
          <time value="1.62469" pos="216"/>
          <object id="485849"/>
        </automationpattern>
      </track>
      <track muted="0" name="lgt pitch on/off" type="5" solo="0" mutedBeforeSolo="0">
        <automationtrack/>
        <automationpattern mute="0" len="192" name="AM pitchshifter>Effect enabled" tens="1" prog="0" pos="31680">
          <time value="1" pos="0"/>
          <object id="2786011"/>
        </automationpattern>
        <automationpattern mute="0" len="192" name="AM pitchshifter>Effect enabled" tens="1" prog="0" pos="32256">
          <time value="0" pos="0"/>
          <object id="2786011"/>
        </automationpattern>
        <automationpattern mute="0" len="192" name="AM pitchshifter>Effect enabled" tens="1" prog="0" pos="0">
          <time value="0" pos="0"/>
          <object id="2786011"/>
        </automationpattern>
        <automationpattern mute="0" len="192" name="AM pitchshifter>Effect enabled" tens="1" prog="0" pos="64320">
          <time value="1" pos="0"/>
          <object id="2786011"/>
        </automationpattern>
        <automationpattern mute="0" len="192" name="AM pitchshifter>Effect enabled" tens="1" prog="0" pos="64704">
          <time value="0" pos="0"/>
          <object id="2786011"/>
        </automationpattern>
        <automationpattern mute="0" len="192" name="AM pitchshifter>>>Pitch shift" tens="1" prog="0" pos="12672">
          <time value="0.25" pos="0"/>
          <object id="7309738"/>
          <object id="4844454"/>
        </automationpattern>
        <automationpattern mute="0" len="192" name="AM pitchshifter>>>Pitch shift" tens="1" prog="0" pos="192">
          <time value="2.32734" pos="0"/>
          <object id="7309738"/>
          <object id="4844454"/>
        </automationpattern>
        <automationpattern mute="0" len="192" name="AM pitchshifter>>>Pitch shift" tens="1" prog="0" pos="13824">
          <time value="2.32734" pos="0"/>
          <object id="7309738"/>
          <object id="4844454"/>
        </automationpattern>
      </track>
      <track muted="0" name="rgt pitch" type="5" solo="0" mutedBeforeSolo="0">
        <automationtrack/>
        <automationpattern mute="0" len="384" name="AM pitchshifter>>>Pitch shift" tens="1" prog="2" pos="13440">
          <time value="1.09031" pos="0"/>
          <time value="2.28938" pos="96"/>
          <time value="1.21734" pos="192"/>
          <time value="2.76844" pos="384"/>
          <object id="7309738"/>
        </automationpattern>
        <automationpattern mute="0" len="192" name="AM pitchshifter>>>Pitch shift" tens="1" prog="0" pos="13248">
          <time value="2.32734" pos="0"/>
          <object id="7309738"/>
        </automationpattern>
        <automationpattern mute="0" len="192" name="AM pitchshifter>>>Pitch shift" tens="1" prog="0" pos="13824">
          <time value="2.32734" pos="0"/>
          <object id="7309738"/>
        </automationpattern>
        <automationpattern mute="0" len="192" name="AM pitchshifter>>>Pitch shift" tens="1" prog="0" pos="0">
          <time value="2.32734" pos="0"/>
          <object id="7309738"/>
        </automationpattern>
      </track>
      <track muted="0" name="lgt pitch" type="5" solo="0" mutedBeforeSolo="0">
        <automationtrack/>
        <automationpattern mute="0" len="192" name="Tempo" tens="1" prog="0" pos="0">
          <time value="201" pos="0"/>
          <object id="2356958"/>
        </automationpattern>
        <automationpattern mute="0" len="192" name="AM pitchshifter>>>Pitch shift" tens="1" prog="0" pos="31680">
          <time value="2.32441" pos="0"/>
          <object id="485849"/>
        </automationpattern>
        <automationpattern mute="0" len="384" name="AM pitchshifter>>>Pitch shift" tens="1" prog="2" pos="31872">
          <time value="1.34484" pos="0"/>
          <time value="2.74078" pos="24"/>
          <time value="1.31766" pos="240"/>
          <time value="0.25" pos="384"/>
          <object id="485849"/>
        </automationpattern>
        <automationpattern mute="0" len="192" name="AM pitchshifter>>>Pitch shift" tens="1" prog="0" pos="32256">
          <time value="2.32441" pos="0"/>
          <object id="485849"/>
        </automationpattern>
      </track>
      <track muted="0" name="lgt pitch on/off" type="5" solo="0" mutedBeforeSolo="0">
        <automationtrack/>
        <automationpattern mute="0" len="192" name="AM pitchshifter>Effect enabled" tens="1" prog="0" pos="31872">
          <time value="1" pos="0"/>
          <object id="2786011"/>
        </automationpattern>
        <automationpattern mute="0" len="192" name="AM pitchshifter>Effect enabled" tens="1" prog="0" pos="32256">
          <time value="0" pos="0"/>
          <object id="2786011"/>
        </automationpattern>
        <automationpattern mute="0" len="192" name="AM pitchshifter>Effect enabled" tens="1" prog="0" pos="0">
          <time value="0" pos="0"/>
          <object id="2786011"/>
        </automationpattern>
      </track>
      <track muted="0" name="Beat/Bassline 24" type="1" solo="0" mutedBeforeSolo="0">
        <bbtrack/>
        <bbtco muted="0" len="384" name="" pos="43776"/>
      </track>
      <track muted="0" name="Clone of Beat/Bassline 24" type="1" solo="0" mutedBeforeSolo="0">
        <bbtrack/>
        <bbtco muted="0" len="192" name="" pos="50112"/>
      </track>
      <track muted="0" name="Clone of Clone of Beat/Bassline 24" type="1" solo="0" mutedBeforeSolo="0">
        <bbtrack/>
        <bbtco muted="0" len="384" name="" pos="56064"/>
        <bbtco muted="0" len="192" name="" pos="42240"/>
      </track>
      <track muted="1" name="Rhythm Guitar" type="0" solo="0" mutedBeforeSolo="0">
        <instrumenttrack usemasterpitch="1" pitchrange="1" pitch="0" pan="0" basenote="57" vol="200" fxch="12">
          <instrument name="carlapatchbay">
            <carlapatchbay>
              <CARLA-PROJECT VERSION="2.2">
                <EngineSettings>
                  <ForceStereo>false</ForceStereo>
                  <PreferPluginBridges>false</PreferPluginBridges>
                  <PreferUiBridges>true</PreferUiBridges>
                  <UIsAlwaysOnTop>false</UIsAlwaysOnTop>
                  <MaxParameters>200</MaxParameters>
                  <UIBridgesTimeout>4000</UIBridgesTimeout>
                  <LADSPA_PATH>/home/pass/.ladspa:/usr/lib/ladspa:/usr/local/lib/ladspa</LADSPA_PATH>
                  <DSSI_PATH>/home/pass/.dssi:/usr/lib/dssi:/usr/local/lib/dssi</DSSI_PATH>
                  <LV2_PATH>/home/pass/.lv2:/usr/lib/lv2:/usr/local/lib/lv2</LV2_PATH>
                  <VST2_PATH>/home/pass/.vst:/home/pass/.wine/drive_c/Program Files (x86)/VstPlugins:/home/pass/.wine/drive_c/Program Files/VstPlugins:/home/pass/vst:/usr/lib/lxvst:/usr/lib/vst:/usr/local/lib/lxvst:/usr/local/lib/vst/home/pass/.lxvst</VST2_PATH>
                  <VST3_PATH>/home/pass/.vst3:/home/pass/.wine/drive_c/Program Files (x86)/Common Files/VST3:/home/pass/.wine/drive_c/Program Files/Common Files/VST3:/usr/lib/vst3:/usr/local/lib/vst3</VST3_PATH>
                  <SF2_PATH>/home/pass/.sounds/sf2/home/pass/.sounds/sf3:/usr/share/soundfonts:/usr/share/sounds/sf2:/usr/share/sounds/sf3</SF2_PATH>
                  <SFZ_PATH>/home/pass/.sounds/sfz:/home/pass/samples:/usr/share/sounds/sfz</SFZ_PATH>
                </EngineSettings>
                <!-- sfizz -->
                <Plugin>
                  <Info>
                    <Type>LV2</Type>
                    <Name>sfizz</Name>
                    <URI>http://sfztools.github.io/sfizz</URI>
                  </Info>
                  <Data>
                    <Active>Yes</Active>
                    <ControlChannel>1</ControlChannel>
                    <Options>0x3f0</Options>
                    <Parameter>
                      <Index>0</Index>
                      <Name>Volume</Name>
                      <Symbol>volume</Symbol>
                      <Value>0</Value>
                    </Parameter>
                    <Parameter>
                      <Index>1</Index>
                      <Name>Polyphony</Name>
                      <Symbol>num_voices</Symbol>
                      <Value>64</Value>
                    </Parameter>
                    <Parameter>
                      <Index>2</Index>
                      <Name>Internal oversampling factor</Name>
                      <Symbol>oversampling</Symbol>
                      <Value>1</Value>
                    </Parameter>
                    <Parameter>
                      <Index>3</Index>
                      <Name>Preload size</Name>
                      <Symbol>preload_size</Symbol>
                      <Value>8192</Value>
                    </Parameter>
                    <Parameter>
                      <Index>5</Index>
                      <Name>Scala root key</Name>
                      <Symbol>scala_root_key</Symbol>
                      <Value>60</Value>
                    </Parameter>
                    <Parameter>
                      <Index>6</Index>
                      <Name>Tuning frequency</Name>
                      <Symbol>tuning_frequency</Symbol>
                      <Value>440</Value>
                    </Parameter>
                    <Parameter>
                      <Index>7</Index>
                      <Name>Stretched tuning</Name>
                      <Symbol>stretched_tuning</Symbol>
                      <Value>0</Value>
                    </Parameter>
                    <CustomData>
                      <Type>http://lv2plug.in/ns/ext/atom#Path</Type>
                      <Key>http://sfztools.github.io/sfizz:sfzfile</Key>
                      <Value>_fakeguitar1_integrated.sfz</Value>
                    </CustomData>
                    <CustomData>
                      <Type>http://lv2plug.in/ns/ext/atom#Int</Type>
                      <Key>http://sfztools.github.io/sfizz:numvoices</Key>
                      <Value>QAAAAA==</Value>
                    </CustomData>
                    <CustomData>
                      <Type>http://lv2plug.in/ns/ext/atom#Int</Type>
                      <Key>http://sfztools.github.io/sfizz:preload_size</Key>
                      <Value>ACAAAA==</Value>
                    </CustomData>
                    <CustomData>
                      <Type>http://lv2plug.in/ns/ext/atom#Int</Type>
                      <Key>http://sfztools.github.io/sfizz:oversampling</Key>
                      <Value>AQAAAA==</Value>
                    </CustomData>
                    <CustomData>
                      <Type>http://lv2plug.in/ns/ext/atom#Path</Type>
                      <Key>http://sfztools.github.io/sfizz:tuningfile</Key>
                      <Value>DefaultScale.scl</Value>
                    </CustomData>
                  </Data>
                </Plugin>
                <!-- sfizz -->
                <Plugin>
                  <Info>
                    <Type>LV2</Type>
                    <Name>sfizz (2)</Name>
                    <URI>http://sfztools.github.io/sfizz</URI>
                  </Info>
                  <Data>
                    <Active>Yes</Active>
                    <ControlChannel>1</ControlChannel>
                    <Options>0x3f0</Options>
                    <Parameter>
                      <Index>0</Index>
                      <Name>Volume</Name>
                      <Symbol>volume</Symbol>
                      <Value>0</Value>
                    </Parameter>
                    <Parameter>
                      <Index>1</Index>
                      <Name>Polyphony</Name>
                      <Symbol>num_voices</Symbol>
                      <Value>64</Value>
                    </Parameter>
                    <Parameter>
                      <Index>2</Index>
                      <Name>Internal oversampling factor</Name>
                      <Symbol>oversampling</Symbol>
                      <Value>1</Value>
                    </Parameter>
                    <Parameter>
                      <Index>3</Index>
                      <Name>Preload size</Name>
                      <Symbol>preload_size</Symbol>
                      <Value>8192</Value>
                    </Parameter>
                    <Parameter>
                      <Index>5</Index>
                      <Name>Scala root key</Name>
                      <Symbol>scala_root_key</Symbol>
                      <Value>60</Value>
                    </Parameter>
                    <Parameter>
                      <Index>6</Index>
                      <Name>Tuning frequency</Name>
                      <Symbol>tuning_frequency</Symbol>
                      <Value>440</Value>
                    </Parameter>
                    <Parameter>
                      <Index>7</Index>
                      <Name>Stretched tuning</Name>
                      <Symbol>stretched_tuning</Symbol>
                      <Value>0</Value>
                    </Parameter>
                    <CustomData>
                      <Type>http://lv2plug.in/ns/ext/atom#Path</Type>
                      <Key>http://sfztools.github.io/sfizz:sfzfile</Key>
                      <Value>_fakeguitar2_integrated.sfz</Value>
                    </CustomData>
                    <CustomData>
                      <Type>http://lv2plug.in/ns/ext/atom#Int</Type>
                      <Key>http://sfztools.github.io/sfizz:numvoices</Key>
                      <Value>QAAAAA==</Value>
                    </CustomData>
                    <CustomData>
                      <Type>http://lv2plug.in/ns/ext/atom#Int</Type>
                      <Key>http://sfztools.github.io/sfizz:preload_size</Key>
                      <Value>ACAAAA==</Value>
                    </CustomData>
                    <CustomData>
                      <Type>http://lv2plug.in/ns/ext/atom#Int</Type>
                      <Key>http://sfztools.github.io/sfizz:oversampling</Key>
                      <Value>AQAAAA==</Value>
                    </CustomData>
                    <CustomData>
                      <Type>http://lv2plug.in/ns/ext/atom#Path</Type>
                      <Key>http://sfztools.github.io/sfizz:tuningfile</Key>
                      <Value>DefaultScale.scl</Value>
                    </CustomData>
                  </Data>
                </Plugin>
                <Patchbay>
                  <Connection>
                    <Source>Midi Input:Capture 1</Source>
                    <Target>sfizz:events-in</Target>
                  </Connection>
                  <Connection>
                    <Source>sfizz:Left Output</Source>
                    <Target>Audio Output:Left</Target>
                  </Connection>
                  <Connection>
                    <Source>sfizz:Right Output</Source>
                    <Target>Audio Output:Left</Target>
                  </Connection>
                  <Connection>
                    <Source>Midi Input:Capture 1</Source>
                    <Target>sfizz (2):events-in</Target>
                  </Connection>
                  <Connection>
                    <Source>sfizz (2):Right Output</Source>
                    <Target>Audio Output:Right</Target>
                  </Connection>
                  <Connection>
                    <Source>sfizz (2):Left Output</Source>
                    <Target>Audio Output:Right</Target>
                  </Connection>
                  <Positions>
                    <Position y1="1350" x1="1711" pluginId="1">
                      <Name>sfizz (2)</Name>
                    </Position>
                    <Position y1="1297" x1="1704" pluginId="0">
                      <Name>sfizz</Name>
                    </Position>
                  </Positions>
                </Patchbay>
              </CARLA-PROJECT>
              <key/>
            </carlapatchbay>
          </instrument>
          <eldata fcut="14000" fwet="0" fres="0.5" ftype="0">
            <elvol rel="0.1" lspd_syncmode="0" pdel="0" lspd_numerator="4" lpdel="0" amt="0" ctlenvamt="0" lshp="0" userwavefile="" dec="0.5" lspd_denominator="4" sustain="0.5" lspd="0.1" latt="0" hold="0.5" att="0" x100="0" lamt="0"/>
            <elcut rel="0.1" lspd_syncmode="0" pdel="0" lspd_numerator="4" lpdel="0" amt="0" ctlenvamt="0" lshp="0" userwavefile="" dec="0.5" lspd_denominator="4" sustain="0.5" lspd="0.1" latt="0" hold="0.5" att="0" x100="0" lamt="0"/>
            <elres rel="0.1" lspd_syncmode="0" pdel="0" lspd_numerator="4" lpdel="0" amt="0" ctlenvamt="0" lshp="0" userwavefile="" dec="0.5" lspd_denominator="4" sustain="0.5" lspd="0.1" latt="0" hold="0.5" att="0" x100="0" lamt="0"/>
          </eldata>
          <chordcreator chord="0" chordrange="1" chord-enabled="0"/>
          <arpeggiator arptime_denominator="4" arptime="200" arp-enabled="0" arpcycle="0" arpgate="100" arp="0" arpmiss="0" arpdir="0" arprange="1" arpmode="0" arpskip="0" arptime_syncmode="0" arptime_numerator="4"/>
          <midiport inputcontroller="0" fixedinputvelocity="-1" readable="0" outputcontroller="0" fixedoutputnote="-1" outputprogram="1" writable="0" fixedoutputvelocity="-1" basevelocity="127" outputchannel="1" inputchannel="0"/>
          <fxchain enabled="1" numofeffects="0"/>
        </instrumenttrack>
        <pattern muted="0" name="" steps="16" type="1" pos="384">
          <note len="384" key="44" pan="0" vol="191" pos="0"/>
          <note len="384" key="37" pan="0" vol="191" pos="0"/>
          <note len="48" key="0" pan="0" vol="191" pos="0"/>
          <note len="384" key="51" pan="0" vol="193" pos="384"/>
          <note len="384" key="44" pan="0" vol="193" pos="384"/>
          <note len="384" key="46" pan="0" vol="193" pos="768"/>
          <note len="384" key="39" pan="0" vol="193" pos="768"/>
          <note len="336" key="45" pan="0" vol="193" pos="1152"/>
          <note len="336" key="38" pan="0" vol="193" pos="1152"/>
          <note len="12" key="1" pan="0" vol="193" pos="1476"/>
          <note len="12" key="38" pan="0" vol="193" pos="1488"/>
          <note len="12" key="38" pan="0" vol="193" pos="1500"/>
          <note len="12" key="38" pan="0" vol="193" pos="1512"/>
          <note len="12" key="38" pan="0" vol="193" pos="1524"/>
        </pattern>
        <pattern muted="0" name="" steps="16" type="1" pos="1920">
          <note len="36" key="44" pan="0" vol="78" pos="0"/>
          <note len="36" key="37" pan="0" vol="78" pos="0"/>
          <note len="24" key="1" pan="0" vol="78" pos="0"/>
          <note len="36" key="44" pan="0" vol="78" pos="72"/>
          <note len="36" key="37" pan="0" vol="78" pos="72"/>
          <note len="36" key="44" pan="0" vol="78" pos="144"/>
          <note len="36" key="37" pan="0" vol="78" pos="144"/>
          <note len="36" key="44" pan="0" vol="78" pos="216"/>
          <note len="36" key="37" pan="0" vol="78" pos="216"/>
          <note len="24" key="44" pan="0" vol="78" pos="288"/>
          <note len="24" key="37" pan="0" vol="78" pos="288"/>
          <note len="24" key="0" pan="0" vol="78" pos="300"/>
          <note len="48" key="44" pan="0" vol="78" pos="312"/>
          <note len="48" key="37" pan="0" vol="78" pos="312"/>
          <note len="24" key="1" pan="0" vol="78" pos="336"/>
          <note len="24" key="44" pan="0" vol="78" pos="360"/>
          <note len="24" key="37" pan="0" vol="78" pos="360"/>
          <note len="36" key="51" pan="0" vol="78" pos="384"/>
          <note len="36" key="44" pan="0" vol="78" pos="384"/>
          <note len="36" key="51" pan="0" vol="78" pos="456"/>
          <note len="36" key="44" pan="0" vol="78" pos="456"/>
          <note len="36" key="51" pan="0" vol="78" pos="528"/>
          <note len="36" key="44" pan="0" vol="78" pos="528"/>
          <note len="36" key="51" pan="0" vol="78" pos="600"/>
          <note len="36" key="44" pan="0" vol="78" pos="600"/>
          <note len="24" key="51" pan="0" vol="78" pos="672"/>
          <note len="24" key="44" pan="0" vol="78" pos="672"/>
          <note len="24" key="0" pan="0" vol="78" pos="684"/>
          <note len="48" key="51" pan="0" vol="78" pos="696"/>
          <note len="48" key="44" pan="0" vol="78" pos="696"/>
          <note len="24" key="1" pan="0" vol="78" pos="720"/>
          <note len="24" key="51" pan="0" vol="78" pos="744"/>
          <note len="24" key="44" pan="0" vol="78" pos="744"/>
          <note len="36" key="46" pan="0" vol="78" pos="768"/>
          <note len="36" key="39" pan="0" vol="78" pos="768"/>
          <note len="36" key="46" pan="0" vol="78" pos="840"/>
          <note len="36" key="39" pan="0" vol="78" pos="840"/>
          <note len="36" key="46" pan="0" vol="78" pos="912"/>
          <note len="36" key="39" pan="0" vol="78" pos="912"/>
          <note len="36" key="46" pan="0" vol="78" pos="984"/>
          <note len="36" key="39" pan="0" vol="78" pos="984"/>
          <note len="24" key="46" pan="0" vol="78" pos="1056"/>
          <note len="24" key="39" pan="0" vol="78" pos="1056"/>
          <note len="24" key="0" pan="0" vol="78" pos="1068"/>
          <note len="48" key="46" pan="0" vol="78" pos="1080"/>
          <note len="48" key="39" pan="0" vol="78" pos="1080"/>
          <note len="24" key="1" pan="0" vol="78" pos="1116"/>
          <note len="24" key="46" pan="0" vol="78" pos="1128"/>
          <note len="24" key="39" pan="0" vol="78" pos="1128"/>
          <note len="12" key="0" pan="0" vol="78" pos="1140"/>
          <note len="24" key="45" pan="0" vol="78" pos="1152"/>
          <note len="24" key="38" pan="0" vol="78" pos="1152"/>
          <note len="12" key="0" pan="0" vol="78" pos="1164"/>
          <note len="12" key="38" pan="0" vol="78" pos="1176"/>
          <note len="12" key="38" pan="0" vol="78" pos="1188"/>
          <note len="12" key="38" pan="0" vol="78" pos="1200"/>
          <note len="12" key="38" pan="0" vol="78" pos="1212"/>
          <note len="24" key="45" pan="0" vol="78" pos="1224"/>
          <note len="24" key="38" pan="0" vol="78" pos="1224"/>
          <note len="12" key="0" pan="0" vol="78" pos="1224"/>
          <note len="12" key="1" pan="0" vol="78" pos="1236"/>
          <note len="12" key="38" pan="0" vol="78" pos="1248"/>
          <note len="12" key="38" pan="0" vol="78" pos="1260"/>
          <note len="12" key="38" pan="0" vol="78" pos="1272"/>
          <note len="12" key="38" pan="0" vol="78" pos="1284"/>
          <note len="24" key="45" pan="0" vol="78" pos="1296"/>
          <note len="24" key="38" pan="0" vol="78" pos="1296"/>
          <note len="12" key="0" pan="0" vol="78" pos="1296"/>
          <note len="12" key="1" pan="0" vol="78" pos="1308"/>
          <note len="12" key="38" pan="0" vol="78" pos="1320"/>
          <note len="12" key="38" pan="0" vol="78" pos="1332"/>
          <note len="192" key="45" pan="0" vol="78" pos="1344"/>
          <note len="192" key="38" pan="0" vol="78" pos="1344"/>
          <note len="12" key="0" pan="0" vol="78" pos="1344"/>
        </pattern>
        <pattern muted="0" name="" steps="16" type="1" pos="3456">
          <note len="192" key="44" pan="0" vol="197" pos="0"/>
          <note len="192" key="37" pan="0" vol="197" pos="0"/>
          <note len="48" key="0" pan="0" vol="78" pos="0"/>
          <note len="192" key="51" pan="0" vol="197" pos="192"/>
          <note len="192" key="44" pan="0" vol="197" pos="192"/>
          <note len="192" key="52" pan="0" vol="197" pos="384"/>
          <note len="192" key="45" pan="0" vol="197" pos="384"/>
          <note len="192" key="54" pan="0" vol="197" pos="576"/>
          <note len="192" key="47" pan="0" vol="197" pos="576"/>
          <note len="12" key="1" pan="0" vol="197" pos="756"/>
          <note len="12" key="42" pan="0" vol="197" pos="768"/>
          <note len="12" key="42" pan="0" vol="197" pos="780"/>
          <note len="12" key="42" pan="0" vol="197" pos="792"/>
          <note len="12" key="42" pan="0" vol="197" pos="804"/>
          <note len="12" key="42" pan="0" vol="197" pos="816"/>
          <note len="12" key="42" pan="0" vol="197" pos="828"/>
          <note len="12" key="42" pan="0" vol="197" pos="840"/>
          <note len="12" key="42" pan="0" vol="197" pos="852"/>
          <note len="12" key="42" pan="0" vol="197" pos="864"/>
          <note len="12" key="42" pan="0" vol="197" pos="876"/>
          <note len="12" key="42" pan="0" vol="197" pos="888"/>
          <note len="12" key="42" pan="0" vol="197" pos="900"/>
          <note len="12" key="42" pan="0" vol="197" pos="912"/>
          <note len="12" key="42" pan="0" vol="197" pos="924"/>
          <note len="12" key="42" pan="0" vol="197" pos="936"/>
          <note len="12" key="42" pan="0" vol="197" pos="948"/>
          <note len="12" key="44" pan="0" vol="197" pos="960"/>
          <note len="12" key="44" pan="0" vol="197" pos="972"/>
          <note len="12" key="44" pan="0" vol="197" pos="984"/>
          <note len="12" key="44" pan="0" vol="197" pos="996"/>
          <note len="12" key="44" pan="0" vol="197" pos="1008"/>
          <note len="12" key="44" pan="0" vol="197" pos="1020"/>
          <note len="12" key="44" pan="0" vol="197" pos="1032"/>
          <note len="12" key="44" pan="0" vol="197" pos="1044"/>
          <note len="12" key="44" pan="0" vol="197" pos="1056"/>
          <note len="12" key="44" pan="0" vol="197" pos="1068"/>
          <note len="12" key="44" pan="0" vol="197" pos="1080"/>
          <note len="12" key="44" pan="0" vol="197" pos="1092"/>
          <note len="12" key="44" pan="0" vol="197" pos="1104"/>
          <note len="12" key="44" pan="0" vol="197" pos="1116"/>
          <note len="12" key="44" pan="0" vol="197" pos="1128"/>
          <note len="12" key="44" pan="0" vol="197" pos="1140"/>
          <note len="12" key="45" pan="0" vol="197" pos="1152"/>
          <note len="12" key="45" pan="0" vol="197" pos="1164"/>
          <note len="12" key="45" pan="0" vol="197" pos="1176"/>
          <note len="12" key="45" pan="0" vol="197" pos="1188"/>
          <note len="12" key="45" pan="0" vol="197" pos="1200"/>
          <note len="12" key="45" pan="0" vol="197" pos="1212"/>
          <note len="12" key="45" pan="0" vol="197" pos="1224"/>
          <note len="12" key="45" pan="0" vol="197" pos="1236"/>
          <note len="12" key="45" pan="0" vol="197" pos="1248"/>
          <note len="12" key="45" pan="0" vol="197" pos="1260"/>
          <note len="12" key="45" pan="0" vol="197" pos="1272"/>
          <note len="12" key="45" pan="0" vol="197" pos="1284"/>
          <note len="12" key="45" pan="0" vol="197" pos="1296"/>
          <note len="12" key="45" pan="0" vol="197" pos="1308"/>
          <note len="12" key="45" pan="0" vol="197" pos="1320"/>
          <note len="12" key="45" pan="0" vol="197" pos="1332"/>
          <note len="48" key="54" pan="0" vol="197" pos="1344"/>
          <note len="48" key="47" pan="0" vol="197" pos="1344"/>
          <note len="12" key="0" pan="0" vol="197" pos="1344"/>
          <note len="48" key="54" pan="0" vol="197" pos="1392"/>
          <note len="48" key="47" pan="0" vol="197" pos="1392"/>
          <note len="48" key="51" pan="0" vol="197" pos="1440"/>
          <note len="48" key="44" pan="0" vol="197" pos="1440"/>
          <note len="48" key="54" pan="0" vol="197" pos="1488"/>
          <note len="48" key="47" pan="0" vol="197" pos="1488"/>
        </pattern>
        <pattern muted="0" name="" steps="16" type="1" pos="4992">
          <note len="24" key="49" pan="0" vol="197" pos="0"/>
          <note len="12" key="0" pan="0" vol="197" pos="0"/>
          <note len="24" key="47" pan="0" vol="197" pos="24"/>
          <note len="24" key="49" pan="0" vol="197" pos="48"/>
          <note len="24" key="56" pan="0" vol="197" pos="72"/>
          <note len="12" key="1" pan="0" vol="197" pos="84"/>
          <note len="12" key="49" pan="0" vol="197" pos="96"/>
          <note len="12" key="49" pan="0" vol="197" pos="108"/>
          <note len="12" key="49" pan="0" vol="197" pos="120"/>
          <note len="12" key="49" pan="0" vol="197" pos="132"/>
          <note len="12" key="49" pan="0" vol="197" pos="144"/>
          <note len="12" key="49" pan="0" vol="197" pos="156"/>
          <note len="12" key="49" pan="0" vol="197" pos="168"/>
          <note len="12" key="49" pan="0" vol="197" pos="180"/>
        </pattern>
        <pattern muted="0" name="" steps="16" type="1" pos="5184">
          <note len="24" key="42" pan="0" vol="197" pos="0"/>
          <note len="12" key="0" pan="0" vol="197" pos="0"/>
          <note len="24" key="40" pan="0" vol="197" pos="24"/>
          <note len="24" key="42" pan="0" vol="197" pos="48"/>
          <note len="24" key="49" pan="0" vol="197" pos="72"/>
          <note len="12" key="1" pan="0" vol="197" pos="84"/>
          <note len="12" key="42" pan="0" vol="197" pos="96"/>
          <note len="12" key="42" pan="0" vol="197" pos="108"/>
          <note len="12" key="42" pan="0" vol="197" pos="120"/>
          <note len="12" key="42" pan="0" vol="197" pos="132"/>
          <note len="12" key="42" pan="0" vol="197" pos="144"/>
          <note len="12" key="42" pan="0" vol="197" pos="156"/>
          <note len="12" key="42" pan="0" vol="197" pos="168"/>
          <note len="12" key="42" pan="0" vol="197" pos="180"/>
        </pattern>
        <pattern muted="0" name="" steps="16" type="1" pos="5376">
          <note len="24" key="44" pan="0" vol="78" pos="0"/>
          <note len="24" key="1" pan="0" vol="78" pos="0"/>
          <note len="24" key="47" pan="0" vol="78" pos="24"/>
          <note len="24" key="44" pan="0" vol="78" pos="48"/>
          <note len="24" key="0" pan="0" vol="78" pos="60"/>
          <note len="48" key="51" pan="0" vol="78" pos="72"/>
          <note len="24" key="1" pan="0" vol="78" pos="108"/>
          <note len="24" key="44" pan="0" vol="78" pos="120"/>
          <note len="24" key="47" pan="0" vol="78" pos="144"/>
          <note len="24" key="51" pan="0" vol="78" pos="168"/>
          <note len="12" key="45" pan="0" vol="78" pos="192"/>
          <note len="12" key="45" pan="0" vol="78" pos="204"/>
          <note len="12" key="45" pan="0" vol="78" pos="216"/>
          <note len="12" key="45" pan="0" vol="78" pos="228"/>
          <note len="12" key="45" pan="0" vol="78" pos="240"/>
          <note len="12" key="45" pan="0" vol="78" pos="252"/>
          <note len="12" key="49" pan="0" vol="78" pos="264"/>
          <note len="12" key="49" pan="0" vol="78" pos="276"/>
          <note len="12" key="47" pan="0" vol="78" pos="288"/>
          <note len="12" key="47" pan="0" vol="78" pos="300"/>
          <note len="12" key="47" pan="0" vol="78" pos="312"/>
          <note len="12" key="47" pan="0" vol="78" pos="324"/>
          <note len="12" key="51" pan="0" vol="78" pos="336"/>
          <note len="12" key="51" pan="0" vol="78" pos="348"/>
          <note len="12" key="47" pan="0" vol="78" pos="360"/>
          <note len="12" key="47" pan="0" vol="78" pos="372"/>
        </pattern>
        <pattern muted="0" name="" steps="16" type="1" pos="5760">
          <note len="24" key="49" pan="0" vol="197" pos="0"/>
          <note len="12" key="0" pan="0" vol="197" pos="0"/>
          <note len="24" key="47" pan="0" vol="197" pos="24"/>
          <note len="24" key="49" pan="0" vol="197" pos="48"/>
          <note len="24" key="56" pan="0" vol="197" pos="72"/>
          <note len="12" key="1" pan="0" vol="197" pos="84"/>
          <note len="12" key="49" pan="0" vol="197" pos="96"/>
          <note len="12" key="49" pan="0" vol="197" pos="108"/>
          <note len="12" key="49" pan="0" vol="197" pos="120"/>
          <note len="12" key="49" pan="0" vol="197" pos="132"/>
          <note len="12" key="49" pan="0" vol="197" pos="144"/>
          <note len="12" key="49" pan="0" vol="197" pos="156"/>
          <note len="12" key="49" pan="0" vol="197" pos="168"/>
          <note len="12" key="49" pan="0" vol="197" pos="180"/>
        </pattern>
        <pattern muted="0" name="" steps="16" type="1" pos="5952">
          <note len="24" key="42" pan="0" vol="197" pos="0"/>
          <note len="12" key="0" pan="0" vol="197" pos="0"/>
          <note len="24" key="40" pan="0" vol="197" pos="24"/>
          <note len="24" key="42" pan="0" vol="197" pos="48"/>
          <note len="24" key="49" pan="0" vol="197" pos="72"/>
          <note len="12" key="1" pan="0" vol="197" pos="84"/>
          <note len="12" key="42" pan="0" vol="197" pos="96"/>
          <note len="12" key="42" pan="0" vol="197" pos="108"/>
          <note len="12" key="42" pan="0" vol="197" pos="120"/>
          <note len="12" key="42" pan="0" vol="197" pos="132"/>
          <note len="12" key="42" pan="0" vol="197" pos="144"/>
          <note len="12" key="42" pan="0" vol="197" pos="156"/>
          <note len="12" key="42" pan="0" vol="197" pos="168"/>
          <note len="12" key="42" pan="0" vol="197" pos="180"/>
        </pattern>
        <pattern muted="0" name="" steps="16" type="1" pos="6144">
          <note len="24" key="44" pan="0" vol="78" pos="0"/>
          <note len="24" key="1" pan="0" vol="78" pos="0"/>
          <note len="24" key="47" pan="0" vol="78" pos="24"/>
          <note len="24" key="44" pan="0" vol="78" pos="48"/>
          <note len="24" key="0" pan="0" vol="78" pos="60"/>
          <note len="48" key="51" pan="0" vol="78" pos="72"/>
          <note len="24" key="1" pan="0" vol="78" pos="108"/>
          <note len="24" key="44" pan="0" vol="78" pos="120"/>
          <note len="24" key="47" pan="0" vol="78" pos="144"/>
          <note len="24" key="51" pan="0" vol="78" pos="168"/>
          <note len="12" key="45" pan="0" vol="78" pos="192"/>
          <note len="12" key="45" pan="0" vol="78" pos="204"/>
          <note len="12" key="45" pan="0" vol="78" pos="216"/>
          <note len="12" key="45" pan="0" vol="78" pos="228"/>
          <note len="12" key="45" pan="0" vol="78" pos="240"/>
          <note len="12" key="45" pan="0" vol="78" pos="252"/>
          <note len="12" key="49" pan="0" vol="78" pos="264"/>
          <note len="12" key="49" pan="0" vol="78" pos="276"/>
          <note len="12" key="47" pan="0" vol="78" pos="288"/>
          <note len="12" key="47" pan="0" vol="78" pos="300"/>
          <note len="12" key="47" pan="0" vol="78" pos="312"/>
          <note len="12" key="47" pan="0" vol="78" pos="324"/>
          <note len="12" key="51" pan="0" vol="78" pos="336"/>
          <note len="12" key="51" pan="0" vol="78" pos="348"/>
          <note len="12" key="47" pan="0" vol="78" pos="360"/>
          <note len="12" key="47" pan="0" vol="78" pos="372"/>
        </pattern>
        <pattern muted="0" name="" steps="16" type="1" pos="6528">
          <note len="48" key="42" pan="0" vol="197" pos="0"/>
          <note len="48" key="35" pan="0" vol="197" pos="0"/>
          <note len="48" key="0" pan="0" vol="78" pos="0"/>
          <note len="24" key="1" pan="0" vol="78" pos="36"/>
          <note len="12" key="35" pan="0" vol="197" pos="48"/>
          <note len="12" key="35" pan="0" vol="197" pos="60"/>
          <note len="24" key="35" pan="0" vol="197" pos="72"/>
          <note len="12" key="35" pan="0" vol="197" pos="96"/>
          <note len="12" key="35" pan="0" vol="197" pos="108"/>
          <note len="24" key="35" pan="0" vol="197" pos="120"/>
          <note len="12" key="35" pan="0" vol="197" pos="144"/>
          <note len="12" key="35" pan="0" vol="197" pos="156"/>
          <note len="24" key="35" pan="0" vol="197" pos="168"/>
          <note len="48" key="0" pan="0" vol="78" pos="180"/>
          <note len="48" key="42" pan="0" vol="197" pos="192"/>
          <note len="48" key="35" pan="0" vol="197" pos="192"/>
          <note len="48" key="1" pan="0" vol="78" pos="228"/>
          <note len="12" key="35" pan="0" vol="197" pos="240"/>
          <note len="12" key="35" pan="0" vol="197" pos="252"/>
          <note len="24" key="35" pan="0" vol="197" pos="264"/>
          <note len="12" key="35" pan="0" vol="197" pos="288"/>
          <note len="12" key="35" pan="0" vol="197" pos="300"/>
          <note len="24" key="35" pan="0" vol="197" pos="312"/>
          <note len="12" key="35" pan="0" vol="197" pos="336"/>
          <note len="12" key="35" pan="0" vol="197" pos="348"/>
          <note len="24" key="35" pan="0" vol="197" pos="360"/>
          <note len="48" key="0" pan="0" vol="78" pos="372"/>
          <note len="48" key="52" pan="0" vol="197" pos="384"/>
          <note len="48" key="45" pan="0" vol="197" pos="384"/>
          <note len="48" key="1" pan="0" vol="78" pos="408"/>
          <note len="12" key="45" pan="0" vol="197" pos="432"/>
          <note len="12" key="45" pan="0" vol="197" pos="444"/>
          <note len="24" key="45" pan="0" vol="197" pos="456"/>
          <note len="12" key="45" pan="0" vol="197" pos="480"/>
          <note len="12" key="45" pan="0" vol="197" pos="492"/>
          <note len="24" key="45" pan="0" vol="197" pos="504"/>
          <note len="12" key="45" pan="0" vol="197" pos="528"/>
          <note len="12" key="45" pan="0" vol="197" pos="540"/>
          <note len="24" key="45" pan="0" vol="197" pos="552"/>
          <note len="48" key="0" pan="0" vol="78" pos="564"/>
          <note len="48" key="51" pan="0" vol="197" pos="576"/>
          <note len="48" key="44" pan="0" vol="197" pos="576"/>
          <note len="48" key="1" pan="0" vol="78" pos="612"/>
          <note len="12" key="44" pan="0" vol="197" pos="624"/>
          <note len="12" key="44" pan="0" vol="197" pos="636"/>
          <note len="24" key="44" pan="0" vol="197" pos="648"/>
          <note len="12" key="44" pan="0" vol="197" pos="672"/>
          <note len="12" key="44" pan="0" vol="197" pos="684"/>
          <note len="12" key="44" pan="0" vol="197" pos="696"/>
          <note len="12" key="44" pan="0" vol="197" pos="708"/>
          <note len="12" key="44" pan="0" vol="197" pos="720"/>
          <note len="12" key="44" pan="0" vol="197" pos="732"/>
          <note len="24" key="44" pan="0" vol="197" pos="744"/>
        </pattern>
        <pattern muted="0" name="" steps="16" type="1" pos="8064">
          <note len="48" key="44" pan="0" vol="195" pos="0"/>
          <note len="48" key="37" pan="0" vol="195" pos="0"/>
          <note len="36" key="0" pan="0" vol="195" pos="0"/>
          <note len="36" key="1" pan="0" vol="195" pos="36"/>
          <note len="12" key="37" pan="0" vol="195" pos="48"/>
          <note len="12" key="37" pan="0" vol="195" pos="60"/>
          <note len="12" key="37" pan="0" vol="195" pos="72"/>
          <note len="12" key="37" pan="0" vol="195" pos="84"/>
          <note len="12" key="37" pan="0" vol="195" pos="96"/>
          <note len="12" key="37" pan="0" vol="195" pos="108"/>
          <note len="12" key="37" pan="0" vol="195" pos="120"/>
          <note len="12" key="37" pan="0" vol="195" pos="132"/>
          <note len="12" key="37" pan="0" vol="195" pos="144"/>
          <note len="12" key="37" pan="0" vol="195" pos="156"/>
          <note len="12" key="37" pan="0" vol="195" pos="168"/>
          <note len="12" key="37" pan="0" vol="195" pos="180"/>
          <note len="36" key="0" pan="0" vol="195" pos="180"/>
          <note len="48" key="51" pan="0" vol="195" pos="192"/>
          <note len="48" key="44" pan="0" vol="195" pos="192"/>
          <note len="36" key="1" pan="0" vol="195" pos="216"/>
          <note len="12" key="44" pan="0" vol="195" pos="240"/>
          <note len="12" key="44" pan="0" vol="195" pos="252"/>
          <note len="12" key="44" pan="0" vol="195" pos="264"/>
          <note len="12" key="44" pan="0" vol="195" pos="276"/>
          <note len="12" key="44" pan="0" vol="195" pos="288"/>
          <note len="12" key="44" pan="0" vol="195" pos="300"/>
          <note len="12" key="44" pan="0" vol="195" pos="312"/>
          <note len="12" key="44" pan="0" vol="195" pos="324"/>
          <note len="12" key="44" pan="0" vol="195" pos="336"/>
          <note len="12" key="44" pan="0" vol="195" pos="348"/>
          <note len="12" key="44" pan="0" vol="195" pos="360"/>
          <note len="12" key="44" pan="0" vol="195" pos="372"/>
          <note len="36" key="0" pan="0" vol="195" pos="372"/>
          <note len="48" key="52" pan="0" vol="195" pos="384"/>
          <note len="48" key="45" pan="0" vol="195" pos="384"/>
          <note len="36" key="1" pan="0" vol="195" pos="408"/>
          <note len="12" key="45" pan="0" vol="195" pos="432"/>
          <note len="12" key="45" pan="0" vol="195" pos="444"/>
          <note len="12" key="45" pan="0" vol="195" pos="456"/>
          <note len="12" key="45" pan="0" vol="195" pos="468"/>
          <note len="12" key="45" pan="0" vol="195" pos="480"/>
          <note len="12" key="45" pan="0" vol="195" pos="492"/>
          <note len="12" key="45" pan="0" vol="195" pos="504"/>
          <note len="12" key="45" pan="0" vol="195" pos="516"/>
          <note len="12" key="45" pan="0" vol="195" pos="528"/>
          <note len="12" key="45" pan="0" vol="195" pos="540"/>
          <note len="12" key="45" pan="0" vol="195" pos="552"/>
          <note len="12" key="45" pan="0" vol="195" pos="564"/>
          <note len="36" key="0" pan="0" vol="195" pos="564"/>
          <note len="48" key="54" pan="0" vol="195" pos="576"/>
          <note len="48" key="47" pan="0" vol="195" pos="576"/>
          <note len="36" key="1" pan="0" vol="195" pos="600"/>
          <note len="12" key="47" pan="0" vol="195" pos="624"/>
          <note len="12" key="47" pan="0" vol="195" pos="636"/>
          <note len="12" key="47" pan="0" vol="195" pos="648"/>
          <note len="12" key="47" pan="0" vol="195" pos="660"/>
          <note len="12" key="47" pan="0" vol="195" pos="672"/>
          <note len="12" key="47" pan="0" vol="195" pos="684"/>
          <note len="12" key="47" pan="0" vol="195" pos="696"/>
          <note len="12" key="47" pan="0" vol="195" pos="708"/>
          <note len="12" key="47" pan="0" vol="195" pos="720"/>
          <note len="12" key="47" pan="0" vol="195" pos="732"/>
          <note len="12" key="47" pan="0" vol="195" pos="744"/>
          <note len="12" key="47" pan="0" vol="195" pos="756"/>
          <note len="48" key="49" pan="0" vol="195" pos="768"/>
          <note len="48" key="42" pan="0" vol="195" pos="768"/>
          <note len="36" key="0" pan="0" vol="195" pos="768"/>
          <note len="36" key="1" pan="0" vol="195" pos="792"/>
          <note len="12" key="42" pan="0" vol="195" pos="816"/>
          <note len="12" key="42" pan="0" vol="195" pos="828"/>
          <note len="12" key="42" pan="0" vol="195" pos="840"/>
          <note len="12" key="42" pan="0" vol="195" pos="852"/>
          <note len="12" key="42" pan="0" vol="195" pos="864"/>
          <note len="12" key="42" pan="0" vol="195" pos="876"/>
          <note len="12" key="42" pan="0" vol="195" pos="888"/>
          <note len="12" key="42" pan="0" vol="195" pos="900"/>
          <note len="12" key="42" pan="0" vol="195" pos="912"/>
          <note len="12" key="42" pan="0" vol="195" pos="924"/>
          <note len="12" key="42" pan="0" vol="195" pos="936"/>
          <note len="12" key="42" pan="0" vol="195" pos="948"/>
          <note len="36" key="0" pan="0" vol="195" pos="948"/>
          <note len="48" key="51" pan="0" vol="195" pos="960"/>
          <note len="48" key="44" pan="0" vol="195" pos="960"/>
          <note len="36" key="1" pan="0" vol="195" pos="984"/>
          <note len="12" key="44" pan="0" vol="195" pos="1008"/>
          <note len="12" key="44" pan="0" vol="195" pos="1020"/>
          <note len="12" key="44" pan="0" vol="195" pos="1032"/>
          <note len="12" key="44" pan="0" vol="195" pos="1044"/>
          <note len="12" key="44" pan="0" vol="195" pos="1056"/>
          <note len="12" key="44" pan="0" vol="195" pos="1068"/>
          <note len="12" key="44" pan="0" vol="195" pos="1080"/>
          <note len="12" key="44" pan="0" vol="195" pos="1092"/>
          <note len="12" key="44" pan="0" vol="195" pos="1104"/>
          <note len="12" key="44" pan="0" vol="195" pos="1116"/>
          <note len="12" key="44" pan="0" vol="195" pos="1128"/>
          <note len="12" key="44" pan="0" vol="195" pos="1140"/>
          <note len="36" key="0" pan="0" vol="195" pos="1140"/>
          <note len="48" key="52" pan="0" vol="195" pos="1152"/>
          <note len="48" key="45" pan="0" vol="195" pos="1152"/>
          <note len="36" key="1" pan="0" vol="195" pos="1176"/>
          <note len="12" key="45" pan="0" vol="195" pos="1200"/>
          <note len="12" key="45" pan="0" vol="195" pos="1212"/>
          <note len="12" key="45" pan="0" vol="195" pos="1224"/>
          <note len="12" key="45" pan="0" vol="195" pos="1236"/>
          <note len="12" key="45" pan="0" vol="195" pos="1248"/>
          <note len="12" key="45" pan="0" vol="195" pos="1260"/>
          <note len="12" key="45" pan="0" vol="195" pos="1272"/>
          <note len="12" key="45" pan="0" vol="195" pos="1284"/>
          <note len="12" key="45" pan="0" vol="195" pos="1296"/>
          <note len="12" key="45" pan="0" vol="195" pos="1308"/>
          <note len="12" key="45" pan="0" vol="195" pos="1320"/>
          <note len="12" key="45" pan="0" vol="195" pos="1332"/>
          <note len="36" key="0" pan="0" vol="195" pos="1332"/>
          <note len="48" key="54" pan="0" vol="195" pos="1344"/>
          <note len="48" key="47" pan="0" vol="195" pos="1344"/>
          <note len="36" key="1" pan="0" vol="195" pos="1368"/>
          <note len="12" key="47" pan="0" vol="195" pos="1392"/>
          <note len="12" key="47" pan="0" vol="195" pos="1404"/>
          <note len="12" key="47" pan="0" vol="195" pos="1416"/>
          <note len="12" key="47" pan="0" vol="195" pos="1428"/>
          <note len="12" key="48" pan="0" vol="195" pos="1440"/>
          <note len="12" key="48" pan="0" vol="195" pos="1452"/>
          <note len="12" key="48" pan="0" vol="195" pos="1464"/>
          <note len="36" key="1" pan="0" vol="195" pos="1464"/>
          <note len="12" key="48" pan="0" vol="195" pos="1476"/>
          <note len="12" key="48" pan="0" vol="195" pos="1488"/>
          <note len="12" key="48" pan="0" vol="195" pos="1500"/>
          <note len="12" key="48" pan="0" vol="195" pos="1512"/>
          <note len="12" key="48" pan="0" vol="195" pos="1524"/>
          <note len="36" key="0" pan="0" vol="195" pos="1524"/>
          <note len="48" key="44" pan="0" vol="195" pos="1536"/>
          <note len="48" key="37" pan="0" vol="195" pos="1536"/>
          <note len="36" key="1" pan="0" vol="195" pos="1560"/>
          <note len="12" key="37" pan="0" vol="195" pos="1584"/>
          <note len="12" key="37" pan="0" vol="195" pos="1596"/>
          <note len="12" key="37" pan="0" vol="195" pos="1608"/>
          <note len="12" key="37" pan="0" vol="195" pos="1620"/>
          <note len="12" key="37" pan="0" vol="195" pos="1632"/>
          <note len="12" key="37" pan="0" vol="195" pos="1644"/>
          <note len="12" key="37" pan="0" vol="195" pos="1656"/>
          <note len="12" key="37" pan="0" vol="195" pos="1668"/>
          <note len="12" key="37" pan="0" vol="195" pos="1680"/>
          <note len="12" key="37" pan="0" vol="195" pos="1692"/>
          <note len="12" key="37" pan="0" vol="195" pos="1704"/>
          <note len="12" key="37" pan="0" vol="195" pos="1716"/>
          <note len="36" key="0" pan="0" vol="195" pos="1716"/>
          <note len="48" key="54" pan="0" vol="195" pos="1728"/>
          <note len="48" key="47" pan="0" vol="195" pos="1728"/>
          <note len="36" key="1" pan="0" vol="195" pos="1752"/>
          <note len="12" key="47" pan="0" vol="195" pos="1776"/>
          <note len="12" key="47" pan="0" vol="195" pos="1788"/>
          <note len="12" key="47" pan="0" vol="195" pos="1800"/>
          <note len="12" key="47" pan="0" vol="195" pos="1812"/>
          <note len="12" key="47" pan="0" vol="195" pos="1824"/>
          <note len="12" key="47" pan="0" vol="195" pos="1836"/>
          <note len="12" key="47" pan="0" vol="195" pos="1848"/>
          <note len="12" key="47" pan="0" vol="195" pos="1860"/>
          <note len="12" key="47" pan="0" vol="195" pos="1872"/>
          <note len="12" key="47" pan="0" vol="195" pos="1884"/>
          <note len="12" key="47" pan="0" vol="195" pos="1896"/>
          <note len="12" key="47" pan="0" vol="195" pos="1908"/>
          <note len="36" key="0" pan="0" vol="195" pos="1908"/>
          <note len="48" key="54" pan="0" vol="195" pos="1920"/>
          <note len="48" key="46" pan="0" vol="195" pos="1920"/>
          <note len="36" key="1" pan="0" vol="195" pos="1944"/>
          <note len="12" key="46" pan="0" vol="195" pos="1968"/>
          <note len="12" key="46" pan="0" vol="195" pos="1980"/>
          <note len="12" key="46" pan="0" vol="195" pos="1992"/>
          <note len="12" key="46" pan="0" vol="195" pos="2004"/>
          <note len="12" key="46" pan="0" vol="195" pos="2016"/>
          <note len="12" key="46" pan="0" vol="195" pos="2028"/>
          <note len="12" key="46" pan="0" vol="195" pos="2040"/>
          <note len="12" key="46" pan="0" vol="195" pos="2052"/>
          <note len="12" key="46" pan="0" vol="195" pos="2064"/>
          <note len="12" key="46" pan="0" vol="195" pos="2076"/>
          <note len="12" key="46" pan="0" vol="195" pos="2088"/>
          <note len="12" key="46" pan="0" vol="195" pos="2100"/>
          <note len="36" key="0" pan="0" vol="195" pos="2100"/>
          <note len="48" key="49" pan="0" vol="195" pos="2112"/>
          <note len="48" key="42" pan="0" vol="195" pos="2112"/>
          <note len="36" key="1" pan="0" vol="195" pos="2136"/>
          <note len="12" key="42" pan="0" vol="195" pos="2160"/>
          <note len="12" key="42" pan="0" vol="195" pos="2172"/>
          <note len="12" key="42" pan="0" vol="195" pos="2184"/>
          <note len="12" key="42" pan="0" vol="195" pos="2196"/>
          <note len="36" key="0" pan="0" vol="195" pos="2196"/>
          <note len="48" key="47" pan="0" vol="195" pos="2208"/>
          <note len="48" key="40" pan="0" vol="195" pos="2208"/>
          <note len="36" key="1" pan="0" vol="195" pos="2232"/>
          <note len="12" key="40" pan="0" vol="195" pos="2256"/>
          <note len="12" key="40" pan="0" vol="195" pos="2268"/>
          <note len="12" key="40" pan="0" vol="195" pos="2280"/>
          <note len="12" key="40" pan="0" vol="195" pos="2292"/>
          <note len="36" key="0" pan="0" vol="195" pos="2292"/>
          <note len="48" key="45" pan="0" vol="195" pos="2304"/>
          <note len="48" key="38" pan="0" vol="195" pos="2304"/>
          <note len="36" key="1" pan="0" vol="195" pos="2328"/>
          <note len="12" key="38" pan="0" vol="195" pos="2352"/>
          <note len="12" key="38" pan="0" vol="195" pos="2364"/>
          <note len="12" key="38" pan="0" vol="195" pos="2376"/>
          <note len="12" key="38" pan="0" vol="195" pos="2388"/>
          <note len="12" key="38" pan="0" vol="195" pos="2400"/>
          <note len="12" key="38" pan="0" vol="195" pos="2412"/>
          <note len="12" key="38" pan="0" vol="195" pos="2424"/>
          <note len="12" key="38" pan="0" vol="195" pos="2436"/>
          <note len="12" key="38" pan="0" vol="195" pos="2448"/>
          <note len="12" key="38" pan="0" vol="195" pos="2460"/>
          <note len="12" key="38" pan="0" vol="195" pos="2472"/>
          <note len="12" key="38" pan="0" vol="195" pos="2484"/>
          <note len="36" key="0" pan="0" vol="195" pos="2484"/>
          <note len="48" key="52" pan="0" vol="195" pos="2496"/>
          <note len="48" key="45" pan="0" vol="195" pos="2496"/>
          <note len="36" key="1" pan="0" vol="195" pos="2520"/>
          <note len="12" key="45" pan="0" vol="195" pos="2544"/>
          <note len="12" key="45" pan="0" vol="195" pos="2556"/>
          <note len="12" key="45" pan="0" vol="195" pos="2568"/>
          <note len="12" key="45" pan="0" vol="195" pos="2580"/>
          <note len="12" key="45" pan="0" vol="195" pos="2592"/>
          <note len="12" key="45" pan="0" vol="195" pos="2604"/>
          <note len="12" key="45" pan="0" vol="195" pos="2616"/>
          <note len="12" key="45" pan="0" vol="195" pos="2628"/>
          <note len="12" key="45" pan="0" vol="195" pos="2640"/>
          <note len="12" key="45" pan="0" vol="195" pos="2652"/>
          <note len="12" key="45" pan="0" vol="195" pos="2664"/>
          <note len="12" key="45" pan="0" vol="195" pos="2676"/>
          <note len="36" key="0" pan="0" vol="195" pos="2676"/>
          <note len="48" key="54" pan="0" vol="195" pos="2688"/>
          <note len="48" key="47" pan="0" vol="195" pos="2688"/>
          <note len="36" key="1" pan="0" vol="195" pos="2712"/>
          <note len="12" key="47" pan="0" vol="195" pos="2736"/>
          <note len="12" key="47" pan="0" vol="195" pos="2748"/>
          <note len="12" key="47" pan="0" vol="195" pos="2760"/>
          <note len="12" key="47" pan="0" vol="195" pos="2772"/>
          <note len="12" key="47" pan="0" vol="195" pos="2784"/>
          <note len="12" key="47" pan="0" vol="195" pos="2796"/>
          <note len="12" key="47" pan="0" vol="195" pos="2808"/>
          <note len="12" key="47" pan="0" vol="195" pos="2820"/>
          <note len="12" key="47" pan="0" vol="195" pos="2832"/>
          <note len="12" key="47" pan="0" vol="195" pos="2844"/>
          <note len="12" key="47" pan="0" vol="195" pos="2856"/>
          <note len="12" key="47" pan="0" vol="195" pos="2868"/>
          <note len="36" key="0" pan="0" vol="195" pos="2868"/>
          <note len="96" key="54" pan="0" vol="195" pos="2880"/>
          <note len="96" key="47" pan="0" vol="195" pos="2880"/>
          <note len="96" key="58" pan="0" vol="195" pos="2976"/>
          <note len="96" key="51" pan="0" vol="195" pos="2976"/>
        </pattern>
        <pattern muted="0" name="" steps="16" type="1" pos="11136">
          <note len="24" key="44" pan="0" vol="197" pos="0"/>
          <note len="24" key="37" pan="0" vol="197" pos="0"/>
          <note len="12" key="0" pan="0" vol="197" pos="0"/>
          <note len="12" key="1" pan="0" vol="197" pos="12"/>
          <note len="12" key="37" pan="0" vol="197" pos="24"/>
          <note len="12" key="37" pan="0" vol="197" pos="36"/>
          <note len="12" key="37" pan="0" vol="197" pos="48"/>
          <note len="12" key="37" pan="0" vol="197" pos="60"/>
          <note len="24" key="44" pan="0" vol="197" pos="72"/>
          <note len="24" key="37" pan="0" vol="197" pos="72"/>
          <note len="12" key="0" pan="0" vol="197" pos="72"/>
          <note len="12" key="1" pan="0" vol="197" pos="84"/>
          <note len="12" key="37" pan="0" vol="197" pos="96"/>
          <note len="12" key="37" pan="0" vol="197" pos="108"/>
          <note len="12" key="37" pan="0" vol="197" pos="120"/>
          <note len="12" key="37" pan="0" vol="197" pos="132"/>
          <note len="24" key="44" pan="0" vol="197" pos="144"/>
          <note len="24" key="37" pan="0" vol="197" pos="144"/>
          <note len="24" key="0" pan="0" vol="197" pos="144"/>
          <note len="24" key="1" pan="0" vol="197" pos="156"/>
          <note len="12" key="37" pan="0" vol="197" pos="168"/>
          <note len="12" key="37" pan="0" vol="197" pos="180"/>
          <note len="12" key="37" pan="0" vol="197" pos="192"/>
          <note len="12" key="37" pan="0" vol="197" pos="204"/>
          <note len="24" key="44" pan="0" vol="197" pos="216"/>
          <note len="24" key="37" pan="0" vol="197" pos="216"/>
          <note len="24" key="0" pan="0" vol="197" pos="216"/>
          <note len="24" key="1" pan="0" vol="197" pos="228"/>
          <note len="12" key="37" pan="0" vol="197" pos="240"/>
          <note len="12" key="37" pan="0" vol="197" pos="252"/>
          <note len="12" key="37" pan="0" vol="197" pos="264"/>
          <note len="12" key="37" pan="0" vol="197" pos="276"/>
          <note len="24" key="44" pan="0" vol="197" pos="288"/>
          <note len="24" key="37" pan="0" vol="197" pos="288"/>
          <note len="24" key="0" pan="0" vol="197" pos="288"/>
          <note len="24" key="1" pan="0" vol="197" pos="300"/>
          <note len="12" key="37" pan="0" vol="197" pos="312"/>
          <note len="12" key="37" pan="0" vol="197" pos="324"/>
          <note len="24" key="44" pan="0" vol="197" pos="336"/>
          <note len="24" key="37" pan="0" vol="197" pos="336"/>
          <note len="24" key="0" pan="0" vol="197" pos="336"/>
          <note len="24" key="1" pan="0" vol="197" pos="348"/>
          <note len="12" key="37" pan="0" vol="197" pos="360"/>
          <note len="12" key="37" pan="0" vol="197" pos="372"/>
        </pattern>
        <pattern muted="0" name="" steps="16" type="1" pos="11904">
          <note len="24" key="44" pan="0" vol="197" pos="0"/>
          <note len="24" key="37" pan="0" vol="197" pos="0"/>
          <note len="12" key="0" pan="0" vol="197" pos="0"/>
          <note len="12" key="1" pan="0" vol="197" pos="12"/>
          <note len="12" key="37" pan="0" vol="197" pos="24"/>
          <note len="12" key="37" pan="0" vol="197" pos="36"/>
          <note len="12" key="37" pan="0" vol="197" pos="48"/>
          <note len="12" key="37" pan="0" vol="197" pos="60"/>
          <note len="24" key="44" pan="0" vol="197" pos="72"/>
          <note len="24" key="37" pan="0" vol="197" pos="72"/>
          <note len="12" key="0" pan="0" vol="197" pos="72"/>
          <note len="12" key="1" pan="0" vol="197" pos="84"/>
          <note len="12" key="37" pan="0" vol="197" pos="96"/>
          <note len="12" key="37" pan="0" vol="197" pos="108"/>
          <note len="12" key="37" pan="0" vol="197" pos="120"/>
          <note len="12" key="37" pan="0" vol="197" pos="132"/>
          <note len="24" key="44" pan="0" vol="197" pos="144"/>
          <note len="24" key="37" pan="0" vol="197" pos="144"/>
          <note len="24" key="0" pan="0" vol="197" pos="144"/>
          <note len="24" key="1" pan="0" vol="197" pos="156"/>
          <note len="12" key="37" pan="0" vol="197" pos="168"/>
          <note len="12" key="37" pan="0" vol="197" pos="180"/>
          <note len="12" key="37" pan="0" vol="197" pos="192"/>
          <note len="12" key="37" pan="0" vol="197" pos="204"/>
          <note len="24" key="44" pan="0" vol="197" pos="216"/>
          <note len="24" key="37" pan="0" vol="197" pos="216"/>
          <note len="24" key="0" pan="0" vol="197" pos="216"/>
          <note len="24" key="1" pan="0" vol="197" pos="228"/>
          <note len="12" key="37" pan="0" vol="197" pos="240"/>
          <note len="12" key="37" pan="0" vol="197" pos="252"/>
          <note len="12" key="37" pan="0" vol="197" pos="264"/>
          <note len="12" key="37" pan="0" vol="197" pos="276"/>
          <note len="24" key="44" pan="0" vol="197" pos="288"/>
          <note len="24" key="37" pan="0" vol="197" pos="288"/>
          <note len="24" key="0" pan="0" vol="197" pos="288"/>
          <note len="24" key="1" pan="0" vol="197" pos="300"/>
          <note len="12" key="37" pan="0" vol="197" pos="312"/>
          <note len="12" key="37" pan="0" vol="197" pos="324"/>
          <note len="24" key="44" pan="0" vol="197" pos="336"/>
          <note len="24" key="37" pan="0" vol="197" pos="336"/>
          <note len="24" key="0" pan="0" vol="197" pos="336"/>
          <note len="24" key="1" pan="0" vol="197" pos="348"/>
          <note len="12" key="37" pan="0" vol="197" pos="360"/>
          <note len="12" key="37" pan="0" vol="197" pos="372"/>
        </pattern>
        <pattern muted="0" name="" steps="16" type="1" pos="11520">
          <note len="24" key="45" pan="0" vol="197" pos="0"/>
          <note len="24" key="38" pan="0" vol="197" pos="0"/>
          <note len="12" key="0" pan="0" vol="197" pos="0"/>
          <note len="12" key="1" pan="0" vol="197" pos="12"/>
          <note len="12" key="38" pan="0" vol="197" pos="24"/>
          <note len="12" key="38" pan="0" vol="197" pos="36"/>
          <note len="12" key="38" pan="0" vol="197" pos="48"/>
          <note len="12" key="38" pan="0" vol="197" pos="60"/>
          <note len="24" key="45" pan="0" vol="197" pos="72"/>
          <note len="24" key="38" pan="0" vol="197" pos="72"/>
          <note len="12" key="0" pan="0" vol="197" pos="72"/>
          <note len="12" key="1" pan="0" vol="197" pos="84"/>
          <note len="12" key="38" pan="0" vol="197" pos="96"/>
          <note len="12" key="38" pan="0" vol="197" pos="108"/>
          <note len="12" key="38" pan="0" vol="197" pos="120"/>
          <note len="12" key="38" pan="0" vol="197" pos="132"/>
          <note len="24" key="45" pan="0" vol="197" pos="144"/>
          <note len="24" key="38" pan="0" vol="197" pos="144"/>
          <note len="24" key="0" pan="0" vol="197" pos="144"/>
          <note len="24" key="1" pan="0" vol="197" pos="156"/>
          <note len="12" key="38" pan="0" vol="197" pos="168"/>
          <note len="12" key="38" pan="0" vol="197" pos="180"/>
          <note len="12" key="38" pan="0" vol="197" pos="192"/>
          <note len="12" key="38" pan="0" vol="197" pos="204"/>
          <note len="24" key="45" pan="0" vol="197" pos="216"/>
          <note len="24" key="38" pan="0" vol="197" pos="216"/>
          <note len="24" key="0" pan="0" vol="197" pos="216"/>
          <note len="24" key="1" pan="0" vol="197" pos="228"/>
          <note len="12" key="38" pan="0" vol="197" pos="240"/>
          <note len="12" key="38" pan="0" vol="197" pos="252"/>
          <note len="12" key="38" pan="0" vol="197" pos="264"/>
          <note len="12" key="38" pan="0" vol="197" pos="276"/>
          <note len="24" key="45" pan="0" vol="197" pos="288"/>
          <note len="24" key="38" pan="0" vol="197" pos="288"/>
          <note len="24" key="0" pan="0" vol="197" pos="288"/>
          <note len="24" key="1" pan="0" vol="197" pos="300"/>
          <note len="12" key="38" pan="0" vol="197" pos="312"/>
          <note len="12" key="38" pan="0" vol="197" pos="324"/>
          <note len="24" key="45" pan="0" vol="197" pos="336"/>
          <note len="24" key="38" pan="0" vol="197" pos="336"/>
          <note len="24" key="0" pan="0" vol="197" pos="336"/>
          <note len="24" key="1" pan="0" vol="197" pos="348"/>
          <note len="12" key="38" pan="0" vol="197" pos="360"/>
          <note len="12" key="38" pan="0" vol="197" pos="372"/>
        </pattern>
        <pattern muted="0" name="" steps="16" type="1" pos="12288">
          <note len="24" key="45" pan="0" vol="197" pos="0"/>
          <note len="24" key="38" pan="0" vol="197" pos="0"/>
          <note len="12" key="0" pan="0" vol="197" pos="0"/>
          <note len="12" key="1" pan="0" vol="197" pos="12"/>
          <note len="12" key="38" pan="0" vol="197" pos="24"/>
          <note len="12" key="38" pan="0" vol="197" pos="36"/>
          <note len="12" key="38" pan="0" vol="197" pos="48"/>
          <note len="12" key="38" pan="0" vol="197" pos="60"/>
          <note len="24" key="45" pan="0" vol="197" pos="72"/>
          <note len="24" key="38" pan="0" vol="197" pos="72"/>
          <note len="12" key="0" pan="0" vol="197" pos="72"/>
          <note len="12" key="1" pan="0" vol="197" pos="84"/>
          <note len="12" key="38" pan="0" vol="197" pos="96"/>
          <note len="12" key="38" pan="0" vol="197" pos="108"/>
          <note len="12" key="38" pan="0" vol="197" pos="120"/>
          <note len="12" key="38" pan="0" vol="197" pos="132"/>
          <note len="24" key="45" pan="0" vol="197" pos="144"/>
          <note len="24" key="38" pan="0" vol="197" pos="144"/>
          <note len="24" key="0" pan="0" vol="197" pos="144"/>
          <note len="24" key="1" pan="0" vol="197" pos="156"/>
          <note len="12" key="38" pan="0" vol="197" pos="168"/>
          <note len="12" key="38" pan="0" vol="197" pos="180"/>
          <note len="12" key="38" pan="0" vol="197" pos="192"/>
          <note len="12" key="38" pan="0" vol="197" pos="204"/>
          <note len="24" key="45" pan="0" vol="197" pos="216"/>
          <note len="24" key="38" pan="0" vol="197" pos="216"/>
          <note len="24" key="0" pan="0" vol="197" pos="216"/>
          <note len="24" key="1" pan="0" vol="197" pos="228"/>
          <note len="12" key="38" pan="0" vol="197" pos="240"/>
          <note len="12" key="38" pan="0" vol="197" pos="252"/>
          <note len="12" key="38" pan="0" vol="197" pos="264"/>
          <note len="12" key="38" pan="0" vol="197" pos="276"/>
          <note len="24" key="45" pan="0" vol="197" pos="288"/>
          <note len="24" key="38" pan="0" vol="197" pos="288"/>
          <note len="24" key="0" pan="0" vol="197" pos="288"/>
          <note len="24" key="1" pan="0" vol="197" pos="300"/>
          <note len="12" key="38" pan="0" vol="197" pos="312"/>
          <note len="12" key="38" pan="0" vol="197" pos="324"/>
          <note len="24" key="45" pan="0" vol="197" pos="336"/>
          <note len="24" key="38" pan="0" vol="197" pos="336"/>
          <note len="24" key="0" pan="0" vol="197" pos="336"/>
          <note len="24" key="1" pan="0" vol="197" pos="348"/>
          <note len="12" key="38" pan="0" vol="197" pos="360"/>
          <note len="12" key="38" pan="0" vol="197" pos="372"/>
        </pattern>
        <pattern muted="0" name="" steps="16" type="1" pos="13440">
          <note len="192" key="37" pan="0" vol="197" pos="0"/>
          <note len="384" key="0" pan="0" vol="197" pos="0"/>
          <note len="192" key="37" pan="0" vol="197" pos="192"/>
        </pattern>
        <pattern muted="0" name="" steps="16" type="1" pos="15744">
          <note len="48" key="44" pan="0" vol="195" pos="0"/>
          <note len="48" key="37" pan="0" vol="195" pos="0"/>
          <note len="36" key="0" pan="0" vol="195" pos="0"/>
          <note len="36" key="1" pan="0" vol="195" pos="36"/>
          <note len="12" key="37" pan="0" vol="195" pos="48"/>
          <note len="12" key="37" pan="0" vol="195" pos="60"/>
          <note len="12" key="37" pan="0" vol="195" pos="72"/>
          <note len="12" key="37" pan="0" vol="195" pos="84"/>
          <note len="12" key="37" pan="0" vol="195" pos="96"/>
          <note len="12" key="37" pan="0" vol="195" pos="108"/>
          <note len="12" key="37" pan="0" vol="195" pos="120"/>
          <note len="12" key="37" pan="0" vol="195" pos="132"/>
          <note len="12" key="37" pan="0" vol="195" pos="144"/>
          <note len="12" key="37" pan="0" vol="195" pos="156"/>
          <note len="12" key="37" pan="0" vol="195" pos="168"/>
          <note len="12" key="37" pan="0" vol="195" pos="180"/>
          <note len="36" key="0" pan="0" vol="195" pos="180"/>
          <note len="48" key="51" pan="0" vol="195" pos="192"/>
          <note len="48" key="44" pan="0" vol="195" pos="192"/>
          <note len="36" key="1" pan="0" vol="195" pos="216"/>
          <note len="12" key="44" pan="0" vol="195" pos="240"/>
          <note len="12" key="44" pan="0" vol="195" pos="252"/>
          <note len="12" key="44" pan="0" vol="195" pos="264"/>
          <note len="12" key="44" pan="0" vol="195" pos="276"/>
          <note len="12" key="44" pan="0" vol="195" pos="288"/>
          <note len="12" key="44" pan="0" vol="195" pos="300"/>
          <note len="12" key="44" pan="0" vol="195" pos="312"/>
          <note len="12" key="44" pan="0" vol="195" pos="324"/>
          <note len="12" key="44" pan="0" vol="195" pos="336"/>
          <note len="12" key="44" pan="0" vol="195" pos="348"/>
          <note len="12" key="44" pan="0" vol="195" pos="360"/>
          <note len="12" key="44" pan="0" vol="195" pos="372"/>
          <note len="36" key="0" pan="0" vol="195" pos="372"/>
          <note len="48" key="52" pan="0" vol="195" pos="384"/>
          <note len="48" key="45" pan="0" vol="195" pos="384"/>
          <note len="36" key="1" pan="0" vol="195" pos="408"/>
          <note len="12" key="45" pan="0" vol="195" pos="432"/>
          <note len="12" key="45" pan="0" vol="195" pos="444"/>
          <note len="12" key="45" pan="0" vol="195" pos="456"/>
          <note len="12" key="45" pan="0" vol="195" pos="468"/>
          <note len="12" key="45" pan="0" vol="195" pos="480"/>
          <note len="12" key="45" pan="0" vol="195" pos="492"/>
          <note len="12" key="45" pan="0" vol="195" pos="504"/>
          <note len="12" key="45" pan="0" vol="195" pos="516"/>
          <note len="12" key="45" pan="0" vol="195" pos="528"/>
          <note len="12" key="45" pan="0" vol="195" pos="540"/>
          <note len="12" key="45" pan="0" vol="195" pos="552"/>
          <note len="12" key="45" pan="0" vol="195" pos="564"/>
          <note len="36" key="0" pan="0" vol="195" pos="564"/>
          <note len="48" key="54" pan="0" vol="195" pos="576"/>
          <note len="48" key="47" pan="0" vol="195" pos="576"/>
          <note len="36" key="1" pan="0" vol="195" pos="600"/>
          <note len="12" key="47" pan="0" vol="195" pos="624"/>
          <note len="12" key="47" pan="0" vol="195" pos="636"/>
          <note len="12" key="47" pan="0" vol="195" pos="648"/>
          <note len="12" key="47" pan="0" vol="195" pos="660"/>
          <note len="12" key="47" pan="0" vol="195" pos="672"/>
          <note len="12" key="47" pan="0" vol="195" pos="684"/>
          <note len="12" key="47" pan="0" vol="195" pos="696"/>
          <note len="12" key="47" pan="0" vol="195" pos="708"/>
          <note len="12" key="47" pan="0" vol="195" pos="720"/>
          <note len="12" key="47" pan="0" vol="195" pos="732"/>
          <note len="12" key="47" pan="0" vol="195" pos="744"/>
          <note len="12" key="47" pan="0" vol="195" pos="756"/>
          <note len="48" key="49" pan="0" vol="195" pos="768"/>
          <note len="48" key="42" pan="0" vol="195" pos="768"/>
          <note len="36" key="0" pan="0" vol="195" pos="768"/>
          <note len="36" key="1" pan="0" vol="195" pos="792"/>
          <note len="12" key="42" pan="0" vol="195" pos="816"/>
          <note len="12" key="42" pan="0" vol="195" pos="828"/>
          <note len="12" key="42" pan="0" vol="195" pos="840"/>
          <note len="12" key="42" pan="0" vol="195" pos="852"/>
          <note len="12" key="42" pan="0" vol="195" pos="864"/>
          <note len="12" key="42" pan="0" vol="195" pos="876"/>
          <note len="12" key="42" pan="0" vol="195" pos="888"/>
          <note len="12" key="42" pan="0" vol="195" pos="900"/>
          <note len="12" key="42" pan="0" vol="195" pos="912"/>
          <note len="12" key="42" pan="0" vol="195" pos="924"/>
          <note len="12" key="42" pan="0" vol="195" pos="936"/>
          <note len="12" key="42" pan="0" vol="195" pos="948"/>
          <note len="36" key="0" pan="0" vol="195" pos="948"/>
          <note len="48" key="51" pan="0" vol="195" pos="960"/>
          <note len="48" key="44" pan="0" vol="195" pos="960"/>
          <note len="36" key="1" pan="0" vol="195" pos="984"/>
          <note len="12" key="44" pan="0" vol="195" pos="1008"/>
          <note len="12" key="44" pan="0" vol="195" pos="1020"/>
          <note len="12" key="44" pan="0" vol="195" pos="1032"/>
          <note len="12" key="44" pan="0" vol="195" pos="1044"/>
          <note len="12" key="44" pan="0" vol="195" pos="1056"/>
          <note len="12" key="44" pan="0" vol="195" pos="1068"/>
          <note len="12" key="44" pan="0" vol="195" pos="1080"/>
          <note len="12" key="44" pan="0" vol="195" pos="1092"/>
          <note len="12" key="44" pan="0" vol="195" pos="1104"/>
          <note len="12" key="44" pan="0" vol="195" pos="1116"/>
          <note len="12" key="44" pan="0" vol="195" pos="1128"/>
          <note len="12" key="44" pan="0" vol="195" pos="1140"/>
          <note len="36" key="0" pan="0" vol="195" pos="1140"/>
          <note len="48" key="52" pan="0" vol="195" pos="1152"/>
          <note len="48" key="45" pan="0" vol="195" pos="1152"/>
          <note len="36" key="1" pan="0" vol="195" pos="1176"/>
          <note len="12" key="45" pan="0" vol="195" pos="1200"/>
          <note len="12" key="45" pan="0" vol="195" pos="1212"/>
          <note len="12" key="45" pan="0" vol="195" pos="1224"/>
          <note len="12" key="45" pan="0" vol="195" pos="1236"/>
          <note len="12" key="45" pan="0" vol="195" pos="1248"/>
          <note len="12" key="45" pan="0" vol="195" pos="1260"/>
          <note len="12" key="45" pan="0" vol="195" pos="1272"/>
          <note len="12" key="45" pan="0" vol="195" pos="1284"/>
          <note len="12" key="45" pan="0" vol="195" pos="1296"/>
          <note len="12" key="45" pan="0" vol="195" pos="1308"/>
          <note len="12" key="45" pan="0" vol="195" pos="1320"/>
          <note len="12" key="45" pan="0" vol="195" pos="1332"/>
          <note len="36" key="0" pan="0" vol="195" pos="1332"/>
          <note len="48" key="54" pan="0" vol="195" pos="1344"/>
          <note len="48" key="47" pan="0" vol="195" pos="1344"/>
          <note len="36" key="1" pan="0" vol="195" pos="1368"/>
          <note len="12" key="47" pan="0" vol="195" pos="1392"/>
          <note len="12" key="47" pan="0" vol="195" pos="1404"/>
          <note len="12" key="47" pan="0" vol="195" pos="1416"/>
          <note len="12" key="47" pan="0" vol="195" pos="1428"/>
          <note len="12" key="48" pan="0" vol="195" pos="1440"/>
          <note len="12" key="48" pan="0" vol="195" pos="1452"/>
          <note len="12" key="48" pan="0" vol="195" pos="1464"/>
          <note len="36" key="1" pan="0" vol="195" pos="1464"/>
          <note len="12" key="48" pan="0" vol="195" pos="1476"/>
          <note len="12" key="48" pan="0" vol="195" pos="1488"/>
          <note len="12" key="48" pan="0" vol="195" pos="1500"/>
          <note len="12" key="48" pan="0" vol="195" pos="1512"/>
          <note len="12" key="48" pan="0" vol="195" pos="1524"/>
          <note len="36" key="0" pan="0" vol="195" pos="1524"/>
          <note len="48" key="44" pan="0" vol="195" pos="1536"/>
          <note len="48" key="37" pan="0" vol="195" pos="1536"/>
          <note len="36" key="1" pan="0" vol="195" pos="1560"/>
          <note len="12" key="37" pan="0" vol="195" pos="1584"/>
          <note len="12" key="37" pan="0" vol="195" pos="1596"/>
          <note len="12" key="37" pan="0" vol="195" pos="1608"/>
          <note len="12" key="37" pan="0" vol="195" pos="1620"/>
          <note len="12" key="37" pan="0" vol="195" pos="1632"/>
          <note len="12" key="37" pan="0" vol="195" pos="1644"/>
          <note len="12" key="37" pan="0" vol="195" pos="1656"/>
          <note len="12" key="37" pan="0" vol="195" pos="1668"/>
          <note len="12" key="37" pan="0" vol="195" pos="1680"/>
          <note len="12" key="37" pan="0" vol="195" pos="1692"/>
          <note len="12" key="37" pan="0" vol="195" pos="1704"/>
          <note len="12" key="37" pan="0" vol="195" pos="1716"/>
          <note len="36" key="0" pan="0" vol="195" pos="1716"/>
          <note len="48" key="54" pan="0" vol="195" pos="1728"/>
          <note len="48" key="47" pan="0" vol="195" pos="1728"/>
          <note len="36" key="1" pan="0" vol="195" pos="1752"/>
          <note len="12" key="47" pan="0" vol="195" pos="1776"/>
          <note len="12" key="47" pan="0" vol="195" pos="1788"/>
          <note len="12" key="47" pan="0" vol="195" pos="1800"/>
          <note len="12" key="47" pan="0" vol="195" pos="1812"/>
          <note len="12" key="47" pan="0" vol="195" pos="1824"/>
          <note len="12" key="47" pan="0" vol="195" pos="1836"/>
          <note len="12" key="47" pan="0" vol="195" pos="1848"/>
          <note len="12" key="47" pan="0" vol="195" pos="1860"/>
          <note len="12" key="47" pan="0" vol="195" pos="1872"/>
          <note len="12" key="47" pan="0" vol="195" pos="1884"/>
          <note len="12" key="47" pan="0" vol="195" pos="1896"/>
          <note len="12" key="47" pan="0" vol="195" pos="1908"/>
          <note len="36" key="0" pan="0" vol="195" pos="1908"/>
          <note len="48" key="54" pan="0" vol="195" pos="1920"/>
          <note len="48" key="46" pan="0" vol="195" pos="1920"/>
          <note len="36" key="1" pan="0" vol="195" pos="1944"/>
          <note len="12" key="46" pan="0" vol="195" pos="1968"/>
          <note len="12" key="46" pan="0" vol="195" pos="1980"/>
          <note len="12" key="46" pan="0" vol="195" pos="1992"/>
          <note len="12" key="46" pan="0" vol="195" pos="2004"/>
          <note len="12" key="46" pan="0" vol="195" pos="2016"/>
          <note len="12" key="46" pan="0" vol="195" pos="2028"/>
          <note len="12" key="46" pan="0" vol="195" pos="2040"/>
          <note len="12" key="46" pan="0" vol="195" pos="2052"/>
          <note len="12" key="46" pan="0" vol="195" pos="2064"/>
          <note len="12" key="46" pan="0" vol="195" pos="2076"/>
          <note len="12" key="46" pan="0" vol="195" pos="2088"/>
          <note len="12" key="46" pan="0" vol="195" pos="2100"/>
          <note len="36" key="0" pan="0" vol="195" pos="2100"/>
          <note len="48" key="49" pan="0" vol="195" pos="2112"/>
          <note len="48" key="42" pan="0" vol="195" pos="2112"/>
          <note len="36" key="1" pan="0" vol="195" pos="2136"/>
          <note len="12" key="42" pan="0" vol="195" pos="2160"/>
          <note len="12" key="42" pan="0" vol="195" pos="2172"/>
          <note len="12" key="42" pan="0" vol="195" pos="2184"/>
          <note len="12" key="42" pan="0" vol="195" pos="2196"/>
          <note len="36" key="0" pan="0" vol="195" pos="2196"/>
          <note len="48" key="47" pan="0" vol="195" pos="2208"/>
          <note len="48" key="40" pan="0" vol="195" pos="2208"/>
          <note len="36" key="1" pan="0" vol="195" pos="2232"/>
          <note len="12" key="40" pan="0" vol="195" pos="2256"/>
          <note len="12" key="40" pan="0" vol="195" pos="2268"/>
          <note len="12" key="40" pan="0" vol="195" pos="2280"/>
          <note len="12" key="40" pan="0" vol="195" pos="2292"/>
          <note len="36" key="0" pan="0" vol="195" pos="2292"/>
          <note len="48" key="45" pan="0" vol="195" pos="2304"/>
          <note len="48" key="38" pan="0" vol="195" pos="2304"/>
          <note len="36" key="1" pan="0" vol="195" pos="2328"/>
          <note len="12" key="38" pan="0" vol="195" pos="2352"/>
          <note len="12" key="38" pan="0" vol="195" pos="2364"/>
          <note len="12" key="38" pan="0" vol="195" pos="2376"/>
          <note len="12" key="38" pan="0" vol="195" pos="2388"/>
          <note len="12" key="38" pan="0" vol="195" pos="2400"/>
          <note len="12" key="38" pan="0" vol="195" pos="2412"/>
          <note len="12" key="38" pan="0" vol="195" pos="2424"/>
          <note len="12" key="38" pan="0" vol="195" pos="2436"/>
          <note len="12" key="38" pan="0" vol="195" pos="2448"/>
          <note len="12" key="38" pan="0" vol="195" pos="2460"/>
          <note len="12" key="38" pan="0" vol="195" pos="2472"/>
          <note len="12" key="38" pan="0" vol="195" pos="2484"/>
          <note len="36" key="0" pan="0" vol="195" pos="2484"/>
          <note len="48" key="52" pan="0" vol="195" pos="2496"/>
          <note len="48" key="45" pan="0" vol="195" pos="2496"/>
          <note len="36" key="1" pan="0" vol="195" pos="2520"/>
          <note len="12" key="45" pan="0" vol="195" pos="2544"/>
          <note len="12" key="45" pan="0" vol="195" pos="2556"/>
          <note len="12" key="45" pan="0" vol="195" pos="2568"/>
          <note len="12" key="45" pan="0" vol="195" pos="2580"/>
          <note len="12" key="45" pan="0" vol="195" pos="2592"/>
          <note len="12" key="45" pan="0" vol="195" pos="2604"/>
          <note len="12" key="45" pan="0" vol="195" pos="2616"/>
          <note len="12" key="45" pan="0" vol="195" pos="2628"/>
          <note len="12" key="45" pan="0" vol="195" pos="2640"/>
          <note len="12" key="45" pan="0" vol="195" pos="2652"/>
          <note len="12" key="45" pan="0" vol="195" pos="2664"/>
          <note len="12" key="45" pan="0" vol="195" pos="2676"/>
          <note len="36" key="0" pan="0" vol="195" pos="2676"/>
          <note len="48" key="54" pan="0" vol="195" pos="2688"/>
          <note len="48" key="47" pan="0" vol="195" pos="2688"/>
          <note len="36" key="1" pan="0" vol="195" pos="2712"/>
          <note len="12" key="47" pan="0" vol="195" pos="2736"/>
          <note len="12" key="47" pan="0" vol="195" pos="2748"/>
          <note len="12" key="47" pan="0" vol="195" pos="2760"/>
          <note len="12" key="47" pan="0" vol="195" pos="2772"/>
          <note len="12" key="47" pan="0" vol="195" pos="2784"/>
          <note len="12" key="47" pan="0" vol="195" pos="2796"/>
          <note len="12" key="47" pan="0" vol="195" pos="2808"/>
          <note len="12" key="47" pan="0" vol="195" pos="2820"/>
          <note len="12" key="47" pan="0" vol="195" pos="2832"/>
          <note len="12" key="47" pan="0" vol="195" pos="2844"/>
          <note len="12" key="47" pan="0" vol="195" pos="2856"/>
          <note len="12" key="47" pan="0" vol="195" pos="2868"/>
          <note len="36" key="0" pan="0" vol="195" pos="2868"/>
          <note len="24" key="42" pan="0" vol="195" pos="2880"/>
          <note len="24" key="35" pan="0" vol="195" pos="2880"/>
          <note len="24" key="42" pan="0" vol="195" pos="2904"/>
          <note len="24" key="35" pan="0" vol="195" pos="2904"/>
          <note len="24" key="42" pan="0" vol="195" pos="2976"/>
          <note len="24" key="35" pan="0" vol="195" pos="2976"/>
          <note len="24" key="42" pan="0" vol="195" pos="3000"/>
          <note len="24" key="35" pan="0" vol="195" pos="3000"/>
        </pattern>
        <pattern muted="0" name="" steps="16" type="1" pos="13824">
          <note len="24" key="47" pan="0" vol="197" pos="0"/>
          <note len="24" key="0" pan="0" vol="197" pos="0"/>
          <note len="24" key="1" pan="0" vol="197" pos="12"/>
          <note len="12" key="44" pan="0" vol="197" pos="24"/>
          <note len="12" key="44" pan="0" vol="197" pos="36"/>
          <note len="12" key="44" pan="0" vol="197" pos="48"/>
          <note len="12" key="44" pan="0" vol="197" pos="60"/>
          <note len="48" key="51" pan="0" vol="197" pos="72"/>
          <note len="48" key="44" pan="0" vol="197" pos="72"/>
          <note len="24" key="0" pan="0" vol="197" pos="72"/>
          <note len="24" key="1" pan="0" vol="197" pos="108"/>
          <note len="24" key="44" pan="0" vol="197" pos="120"/>
          <note len="24" key="44" pan="0" vol="197" pos="144"/>
          <note len="24" key="44" pan="0" vol="197" pos="168"/>
        </pattern>
        <pattern muted="0" name="" steps="16" type="1" pos="12672">
          <note len="36" key="44" pan="0" vol="172" pos="0"/>
          <note len="36" key="37" pan="0" vol="172" pos="0"/>
          <note len="36" key="0" pan="0" vol="172" pos="0"/>
        </pattern>
        <pattern muted="0" name="" steps="16" type="1" pos="14016">
          <note len="12" key="45" pan="0" vol="172" pos="0"/>
          <note len="12" key="1" pan="0" vol="172" pos="0"/>
          <note len="12" key="45" pan="0" vol="172" pos="12"/>
          <note len="12" key="45" pan="0" vol="172" pos="24"/>
          <note len="12" key="45" pan="0" vol="172" pos="36"/>
          <note len="12" key="49" pan="0" vol="172" pos="48"/>
          <note len="12" key="49" pan="0" vol="172" pos="60"/>
          <note len="12" key="45" pan="0" vol="172" pos="72"/>
          <note len="12" key="45" pan="0" vol="172" pos="84"/>
          <note len="12" key="47" pan="0" vol="172" pos="96"/>
          <note len="12" key="47" pan="0" vol="172" pos="108"/>
          <note len="12" key="47" pan="0" vol="172" pos="120"/>
          <note len="12" key="47" pan="0" vol="172" pos="132"/>
          <note len="12" key="52" pan="0" vol="172" pos="144"/>
          <note len="12" key="0" pan="0" vol="172" pos="144"/>
          <note len="12" key="51" pan="0" vol="172" pos="156"/>
          <note len="12" key="2" pan="0" vol="172" pos="156"/>
          <note len="12" key="49" pan="0" vol="172" pos="168"/>
          <note len="12" key="1" pan="0" vol="172" pos="168"/>
          <note len="12" key="47" pan="0" vol="172" pos="180"/>
        </pattern>
        <pattern muted="0" name="" steps="16" type="1" pos="14208">
          <note len="12" key="38" pan="0" vol="200" pos="0"/>
          <note len="24" key="1" pan="0" vol="200" pos="0"/>
          <note len="12" key="38" pan="0" vol="200" pos="12"/>
          <note len="24" key="38" pan="0" vol="200" pos="24"/>
          <note len="12" key="38" pan="0" vol="200" pos="48"/>
          <note len="12" key="38" pan="0" vol="200" pos="60"/>
          <note len="24" key="38" pan="0" vol="200" pos="72"/>
          <note len="12" key="38" pan="0" vol="200" pos="96"/>
          <note len="12" key="38" pan="0" vol="200" pos="108"/>
          <note len="24" key="38" pan="0" vol="200" pos="120"/>
          <note len="12" key="38" pan="0" vol="200" pos="144"/>
          <note len="12" key="38" pan="0" vol="200" pos="156"/>
          <note len="24" key="38" pan="0" vol="200" pos="168"/>
          <note len="12" key="38" pan="0" vol="200" pos="192"/>
          <note len="12" key="38" pan="0" vol="200" pos="204"/>
          <note len="24" key="38" pan="0" vol="200" pos="216"/>
          <note len="12" key="38" pan="0" vol="200" pos="240"/>
          <note len="12" key="38" pan="0" vol="200" pos="252"/>
          <note len="24" key="38" pan="0" vol="200" pos="264"/>
          <note len="12" key="38" pan="0" vol="200" pos="288"/>
          <note len="12" key="38" pan="0" vol="200" pos="300"/>
          <note len="24" key="38" pan="0" vol="200" pos="312"/>
          <note len="12" key="38" pan="0" vol="200" pos="336"/>
          <note len="12" key="38" pan="0" vol="200" pos="348"/>
          <note len="24" key="38" pan="0" vol="200" pos="360"/>
          <note len="12" key="37" pan="0" vol="200" pos="384"/>
          <note len="12" key="37" pan="0" vol="200" pos="396"/>
          <note len="24" key="37" pan="0" vol="200" pos="408"/>
          <note len="12" key="37" pan="0" vol="200" pos="432"/>
          <note len="12" key="37" pan="0" vol="200" pos="444"/>
          <note len="24" key="37" pan="0" vol="200" pos="456"/>
          <note len="12" key="37" pan="0" vol="200" pos="480"/>
          <note len="12" key="37" pan="0" vol="200" pos="492"/>
          <note len="24" key="37" pan="0" vol="200" pos="504"/>
          <note len="12" key="37" pan="0" vol="200" pos="528"/>
          <note len="12" key="37" pan="0" vol="200" pos="540"/>
          <note len="24" key="37" pan="0" vol="200" pos="552"/>
          <note len="12" key="35" pan="0" vol="200" pos="576"/>
          <note len="12" key="35" pan="0" vol="200" pos="588"/>
          <note len="24" key="35" pan="0" vol="200" pos="600"/>
          <note len="12" key="35" pan="0" vol="200" pos="624"/>
          <note len="12" key="35" pan="0" vol="200" pos="636"/>
          <note len="24" key="35" pan="0" vol="200" pos="648"/>
          <note len="12" key="35" pan="0" vol="200" pos="672"/>
          <note len="12" key="35" pan="0" vol="200" pos="684"/>
          <note len="24" key="35" pan="0" vol="200" pos="696"/>
          <note len="12" key="35" pan="0" vol="200" pos="720"/>
          <note len="12" key="35" pan="0" vol="200" pos="732"/>
          <note len="24" key="35" pan="0" vol="200" pos="744"/>
        </pattern>
        <pattern muted="0" name="" steps="16" type="1" pos="18816">
          <note len="24" key="44" pan="0" vol="197" pos="0"/>
          <note len="24" key="37" pan="0" vol="197" pos="0"/>
          <note len="12" key="0" pan="0" vol="197" pos="0"/>
          <note len="12" key="1" pan="0" vol="197" pos="12"/>
          <note len="12" key="37" pan="0" vol="197" pos="24"/>
          <note len="12" key="37" pan="0" vol="197" pos="36"/>
          <note len="24" key="44" pan="0" vol="197" pos="48"/>
          <note len="24" key="37" pan="0" vol="197" pos="48"/>
          <note len="12" key="0" pan="0" vol="197" pos="48"/>
          <note len="24" key="44" pan="0" vol="197" pos="72"/>
          <note len="24" key="37" pan="0" vol="197" pos="72"/>
          <note len="12" key="1" pan="0" vol="197" pos="84"/>
          <note len="12" key="37" pan="0" vol="197" pos="96"/>
          <note len="12" key="37" pan="0" vol="197" pos="108"/>
          <note len="24" key="44" pan="0" vol="197" pos="120"/>
          <note len="24" key="37" pan="0" vol="197" pos="120"/>
          <note len="12" key="0" pan="0" vol="197" pos="120"/>
          <note len="24" key="44" pan="0" vol="197" pos="144"/>
          <note len="24" key="37" pan="0" vol="197" pos="144"/>
          <note len="12" key="1" pan="0" vol="197" pos="156"/>
          <note len="12" key="37" pan="0" vol="197" pos="168"/>
          <note len="12" key="37" pan="0" vol="197" pos="180"/>
          <note len="24" key="44" pan="0" vol="197" pos="192"/>
          <note len="24" key="37" pan="0" vol="197" pos="192"/>
          <note len="12" key="0" pan="0" vol="197" pos="192"/>
          <note len="24" key="44" pan="0" vol="197" pos="216"/>
          <note len="24" key="37" pan="0" vol="197" pos="216"/>
          <note len="12" key="1" pan="0" vol="197" pos="228"/>
          <note len="12" key="37" pan="0" vol="197" pos="240"/>
          <note len="12" key="37" pan="0" vol="197" pos="252"/>
          <note len="24" key="44" pan="0" vol="197" pos="264"/>
          <note len="24" key="37" pan="0" vol="197" pos="264"/>
          <note len="12" key="0" pan="0" vol="197" pos="264"/>
          <note len="24" key="44" pan="0" vol="197" pos="288"/>
          <note len="24" key="37" pan="0" vol="197" pos="288"/>
          <note len="24" key="44" pan="0" vol="197" pos="312"/>
          <note len="24" key="37" pan="0" vol="197" pos="312"/>
          <note len="12" key="1" pan="0" vol="197" pos="324"/>
          <note len="12" key="37" pan="0" vol="197" pos="336"/>
          <note len="12" key="37" pan="0" vol="197" pos="348"/>
          <note len="24" key="44" pan="0" vol="197" pos="360"/>
          <note len="24" key="37" pan="0" vol="197" pos="360"/>
          <note len="12" key="0" pan="0" vol="197" pos="360"/>
          <note len="24" key="51" pan="0" vol="197" pos="384"/>
          <note len="24" key="44" pan="0" vol="197" pos="384"/>
          <note len="12" key="1" pan="0" vol="197" pos="396"/>
          <note len="12" key="44" pan="0" vol="197" pos="408"/>
          <note len="12" key="44" pan="0" vol="197" pos="420"/>
          <note len="24" key="51" pan="0" vol="197" pos="432"/>
          <note len="24" key="44" pan="0" vol="197" pos="432"/>
          <note len="12" key="0" pan="0" vol="197" pos="432"/>
          <note len="24" key="51" pan="0" vol="197" pos="456"/>
          <note len="24" key="44" pan="0" vol="197" pos="456"/>
          <note len="12" key="1" pan="0" vol="197" pos="468"/>
          <note len="12" key="44" pan="0" vol="197" pos="480"/>
          <note len="12" key="44" pan="0" vol="197" pos="492"/>
          <note len="24" key="51" pan="0" vol="197" pos="504"/>
          <note len="24" key="44" pan="0" vol="197" pos="504"/>
          <note len="12" key="0" pan="0" vol="197" pos="504"/>
          <note len="24" key="51" pan="0" vol="197" pos="528"/>
          <note len="24" key="44" pan="0" vol="197" pos="528"/>
          <note len="12" key="1" pan="0" vol="197" pos="540"/>
          <note len="12" key="44" pan="0" vol="197" pos="552"/>
          <note len="12" key="44" pan="0" vol="197" pos="564"/>
          <note len="24" key="51" pan="0" vol="197" pos="576"/>
          <note len="24" key="44" pan="0" vol="197" pos="576"/>
          <note len="12" key="0" pan="0" vol="197" pos="576"/>
          <note len="24" key="51" pan="0" vol="197" pos="600"/>
          <note len="24" key="44" pan="0" vol="197" pos="600"/>
          <note len="12" key="1" pan="0" vol="197" pos="612"/>
          <note len="12" key="44" pan="0" vol="197" pos="624"/>
          <note len="12" key="44" pan="0" vol="197" pos="636"/>
          <note len="24" key="51" pan="0" vol="197" pos="648"/>
          <note len="24" key="44" pan="0" vol="197" pos="648"/>
          <note len="12" key="0" pan="0" vol="197" pos="648"/>
          <note len="24" key="51" pan="0" vol="197" pos="672"/>
          <note len="24" key="44" pan="0" vol="197" pos="672"/>
          <note len="24" key="51" pan="0" vol="197" pos="696"/>
          <note len="24" key="44" pan="0" vol="197" pos="696"/>
          <note len="12" key="1" pan="0" vol="197" pos="708"/>
          <note len="12" key="44" pan="0" vol="197" pos="720"/>
          <note len="12" key="44" pan="0" vol="197" pos="732"/>
          <note len="24" key="51" pan="0" vol="197" pos="744"/>
          <note len="24" key="44" pan="0" vol="197" pos="744"/>
          <note len="12" key="0" pan="0" vol="197" pos="744"/>
          <note len="24" key="46" pan="0" vol="197" pos="768"/>
          <note len="24" key="39" pan="0" vol="197" pos="768"/>
          <note len="12" key="1" pan="0" vol="197" pos="780"/>
          <note len="12" key="39" pan="0" vol="197" pos="792"/>
          <note len="12" key="39" pan="0" vol="197" pos="804"/>
          <note len="24" key="46" pan="0" vol="197" pos="816"/>
          <note len="24" key="39" pan="0" vol="197" pos="816"/>
          <note len="12" key="0" pan="0" vol="197" pos="816"/>
          <note len="24" key="46" pan="0" vol="197" pos="840"/>
          <note len="24" key="39" pan="0" vol="197" pos="840"/>
          <note len="12" key="1" pan="0" vol="197" pos="852"/>
          <note len="12" key="39" pan="0" vol="197" pos="864"/>
          <note len="12" key="39" pan="0" vol="197" pos="876"/>
          <note len="24" key="46" pan="0" vol="197" pos="888"/>
          <note len="24" key="39" pan="0" vol="197" pos="888"/>
          <note len="12" key="0" pan="0" vol="197" pos="888"/>
          <note len="24" key="46" pan="0" vol="197" pos="912"/>
          <note len="24" key="39" pan="0" vol="197" pos="912"/>
          <note len="12" key="1" pan="0" vol="197" pos="924"/>
          <note len="12" key="39" pan="0" vol="197" pos="936"/>
          <note len="12" key="39" pan="0" vol="197" pos="948"/>
          <note len="24" key="46" pan="0" vol="197" pos="960"/>
          <note len="24" key="39" pan="0" vol="197" pos="960"/>
          <note len="12" key="0" pan="0" vol="197" pos="960"/>
          <note len="24" key="46" pan="0" vol="197" pos="984"/>
          <note len="24" key="39" pan="0" vol="197" pos="984"/>
          <note len="12" key="1" pan="0" vol="197" pos="996"/>
          <note len="12" key="39" pan="0" vol="197" pos="1008"/>
          <note len="12" key="39" pan="0" vol="197" pos="1020"/>
          <note len="24" key="46" pan="0" vol="197" pos="1032"/>
          <note len="24" key="39" pan="0" vol="197" pos="1032"/>
          <note len="12" key="0" pan="0" vol="197" pos="1032"/>
          <note len="24" key="46" pan="0" vol="197" pos="1056"/>
          <note len="24" key="39" pan="0" vol="197" pos="1056"/>
          <note len="24" key="46" pan="0" vol="197" pos="1080"/>
          <note len="24" key="39" pan="0" vol="197" pos="1080"/>
          <note len="12" key="1" pan="0" vol="197" pos="1092"/>
          <note len="12" key="39" pan="0" vol="197" pos="1104"/>
          <note len="12" key="39" pan="0" vol="197" pos="1116"/>
          <note len="24" key="46" pan="0" vol="197" pos="1128"/>
          <note len="24" key="39" pan="0" vol="197" pos="1128"/>
          <note len="12" key="0" pan="0" vol="197" pos="1128"/>
          <note len="24" key="45" pan="0" vol="197" pos="1152"/>
          <note len="24" key="38" pan="0" vol="197" pos="1152"/>
          <note len="12" key="1" pan="0" vol="197" pos="1164"/>
          <note len="12" key="38" pan="0" vol="197" pos="1176"/>
          <note len="12" key="38" pan="0" vol="197" pos="1188"/>
          <note len="24" key="45" pan="0" vol="197" pos="1200"/>
          <note len="24" key="38" pan="0" vol="197" pos="1200"/>
          <note len="12" key="0" pan="0" vol="197" pos="1200"/>
          <note len="24" key="45" pan="0" vol="197" pos="1224"/>
          <note len="24" key="38" pan="0" vol="197" pos="1224"/>
          <note len="12" key="1" pan="0" vol="197" pos="1236"/>
          <note len="12" key="38" pan="0" vol="197" pos="1248"/>
          <note len="12" key="38" pan="0" vol="197" pos="1260"/>
          <note len="24" key="45" pan="0" vol="197" pos="1272"/>
          <note len="24" key="38" pan="0" vol="197" pos="1272"/>
          <note len="12" key="0" pan="0" vol="197" pos="1272"/>
          <note len="24" key="45" pan="0" vol="197" pos="1296"/>
          <note len="24" key="38" pan="0" vol="197" pos="1296"/>
          <note len="12" key="1" pan="0" vol="197" pos="1308"/>
          <note len="12" key="38" pan="0" vol="197" pos="1320"/>
          <note len="12" key="38" pan="0" vol="197" pos="1332"/>
          <note len="48" key="51" pan="0" vol="197" pos="1344"/>
          <note len="48" key="44" pan="0" vol="197" pos="1344"/>
          <note len="12" key="0" pan="0" vol="197" pos="1344"/>
          <note len="48" key="46" pan="0" vol="197" pos="1392"/>
          <note len="48" key="39" pan="0" vol="197" pos="1392"/>
          <note len="48" key="35" pan="0" vol="197" pos="1440"/>
          <note len="48" key="32" pan="0" vol="197" pos="1488"/>
          <note len="24" key="44" pan="0" vol="197" pos="1536"/>
          <note len="24" key="37" pan="0" vol="197" pos="1536"/>
          <note len="12" key="1" pan="0" vol="197" pos="1548"/>
          <note len="12" key="37" pan="0" vol="197" pos="1560"/>
          <note len="12" key="37" pan="0" vol="197" pos="1572"/>
          <note len="24" key="44" pan="0" vol="197" pos="1584"/>
          <note len="24" key="37" pan="0" vol="197" pos="1584"/>
          <note len="12" key="0" pan="0" vol="197" pos="1584"/>
          <note len="24" key="44" pan="0" vol="197" pos="1608"/>
          <note len="24" key="37" pan="0" vol="197" pos="1608"/>
          <note len="12" key="1" pan="0" vol="197" pos="1620"/>
          <note len="12" key="37" pan="0" vol="197" pos="1632"/>
          <note len="12" key="37" pan="0" vol="197" pos="1644"/>
          <note len="24" key="44" pan="0" vol="197" pos="1656"/>
          <note len="24" key="37" pan="0" vol="197" pos="1656"/>
          <note len="12" key="0" pan="0" vol="197" pos="1656"/>
          <note len="24" key="44" pan="0" vol="197" pos="1680"/>
          <note len="24" key="37" pan="0" vol="197" pos="1680"/>
          <note len="12" key="1" pan="0" vol="197" pos="1692"/>
          <note len="12" key="37" pan="0" vol="197" pos="1704"/>
          <note len="12" key="37" pan="0" vol="197" pos="1716"/>
          <note len="24" key="44" pan="0" vol="197" pos="1728"/>
          <note len="24" key="37" pan="0" vol="197" pos="1728"/>
          <note len="12" key="0" pan="0" vol="197" pos="1728"/>
          <note len="24" key="44" pan="0" vol="197" pos="1752"/>
          <note len="24" key="37" pan="0" vol="197" pos="1752"/>
          <note len="12" key="1" pan="0" vol="197" pos="1764"/>
          <note len="12" key="37" pan="0" vol="197" pos="1776"/>
          <note len="12" key="37" pan="0" vol="197" pos="1788"/>
          <note len="24" key="44" pan="0" vol="197" pos="1800"/>
          <note len="24" key="37" pan="0" vol="197" pos="1800"/>
          <note len="12" key="0" pan="0" vol="197" pos="1800"/>
          <note len="24" key="44" pan="0" vol="197" pos="1824"/>
          <note len="24" key="37" pan="0" vol="197" pos="1824"/>
          <note len="24" key="44" pan="0" vol="197" pos="1848"/>
          <note len="24" key="37" pan="0" vol="197" pos="1848"/>
          <note len="12" key="1" pan="0" vol="197" pos="1860"/>
          <note len="12" key="37" pan="0" vol="197" pos="1872"/>
          <note len="12" key="37" pan="0" vol="197" pos="1884"/>
          <note len="24" key="44" pan="0" vol="197" pos="1896"/>
          <note len="24" key="37" pan="0" vol="197" pos="1896"/>
          <note len="12" key="0" pan="0" vol="197" pos="1896"/>
          <note len="24" key="45" pan="0" vol="197" pos="1920"/>
          <note len="24" key="38" pan="0" vol="197" pos="1920"/>
          <note len="12" key="1" pan="0" vol="197" pos="1932"/>
          <note len="12" key="38" pan="0" vol="197" pos="1944"/>
          <note len="12" key="38" pan="0" vol="197" pos="1956"/>
          <note len="24" key="45" pan="0" vol="197" pos="1968"/>
          <note len="24" key="38" pan="0" vol="197" pos="1968"/>
          <note len="12" key="0" pan="0" vol="197" pos="1968"/>
          <note len="24" key="45" pan="0" vol="197" pos="1992"/>
          <note len="24" key="38" pan="0" vol="197" pos="1992"/>
          <note len="12" key="1" pan="0" vol="197" pos="2004"/>
          <note len="12" key="38" pan="0" vol="197" pos="2016"/>
          <note len="12" key="38" pan="0" vol="197" pos="2028"/>
          <note len="24" key="45" pan="0" vol="197" pos="2040"/>
          <note len="24" key="38" pan="0" vol="197" pos="2040"/>
          <note len="12" key="0" pan="0" vol="197" pos="2040"/>
          <note len="24" key="45" pan="0" vol="197" pos="2064"/>
          <note len="24" key="38" pan="0" vol="197" pos="2064"/>
          <note len="12" key="1" pan="0" vol="197" pos="2076"/>
          <note len="12" key="38" pan="0" vol="197" pos="2088"/>
          <note len="12" key="38" pan="0" vol="197" pos="2100"/>
          <note len="24" key="45" pan="0" vol="197" pos="2112"/>
          <note len="24" key="38" pan="0" vol="197" pos="2112"/>
          <note len="12" key="0" pan="0" vol="197" pos="2112"/>
          <note len="24" key="45" pan="0" vol="197" pos="2136"/>
          <note len="24" key="38" pan="0" vol="197" pos="2136"/>
          <note len="12" key="1" pan="0" vol="197" pos="2148"/>
          <note len="12" key="38" pan="0" vol="197" pos="2160"/>
          <note len="12" key="38" pan="0" vol="197" pos="2172"/>
          <note len="24" key="45" pan="0" vol="197" pos="2184"/>
          <note len="24" key="38" pan="0" vol="197" pos="2184"/>
          <note len="12" key="0" pan="0" vol="197" pos="2184"/>
          <note len="24" key="45" pan="0" vol="197" pos="2208"/>
          <note len="24" key="38" pan="0" vol="197" pos="2208"/>
          <note len="24" key="45" pan="0" vol="197" pos="2232"/>
          <note len="24" key="38" pan="0" vol="197" pos="2232"/>
          <note len="12" key="1" pan="0" vol="197" pos="2244"/>
          <note len="12" key="38" pan="0" vol="197" pos="2256"/>
          <note len="12" key="38" pan="0" vol="197" pos="2268"/>
          <note len="24" key="45" pan="0" vol="197" pos="2280"/>
          <note len="24" key="38" pan="0" vol="197" pos="2280"/>
          <note len="12" key="0" pan="0" vol="197" pos="2280"/>
          <note len="24" key="46" pan="0" vol="197" pos="2304"/>
          <note len="24" key="39" pan="0" vol="197" pos="2304"/>
          <note len="12" key="1" pan="0" vol="197" pos="2316"/>
          <note len="12" key="39" pan="0" vol="197" pos="2328"/>
          <note len="12" key="39" pan="0" vol="197" pos="2340"/>
          <note len="24" key="46" pan="0" vol="197" pos="2352"/>
          <note len="24" key="39" pan="0" vol="197" pos="2352"/>
          <note len="12" key="0" pan="0" vol="197" pos="2352"/>
          <note len="24" key="46" pan="0" vol="197" pos="2376"/>
          <note len="24" key="39" pan="0" vol="197" pos="2376"/>
          <note len="12" key="1" pan="0" vol="197" pos="2388"/>
          <note len="12" key="39" pan="0" vol="197" pos="2400"/>
          <note len="12" key="39" pan="0" vol="197" pos="2412"/>
          <note len="24" key="46" pan="0" vol="197" pos="2424"/>
          <note len="24" key="39" pan="0" vol="197" pos="2424"/>
          <note len="12" key="0" pan="0" vol="197" pos="2424"/>
          <note len="24" key="46" pan="0" vol="197" pos="2448"/>
          <note len="24" key="39" pan="0" vol="197" pos="2448"/>
          <note len="12" key="1" pan="0" vol="197" pos="2460"/>
          <note len="12" key="39" pan="0" vol="197" pos="2472"/>
          <note len="12" key="39" pan="0" vol="197" pos="2484"/>
          <note len="24" key="46" pan="0" vol="197" pos="2496"/>
          <note len="24" key="39" pan="0" vol="197" pos="2496"/>
          <note len="12" key="0" pan="0" vol="197" pos="2496"/>
          <note len="24" key="46" pan="0" vol="197" pos="2520"/>
          <note len="24" key="39" pan="0" vol="197" pos="2520"/>
          <note len="12" key="1" pan="0" vol="197" pos="2532"/>
          <note len="12" key="39" pan="0" vol="197" pos="2544"/>
          <note len="12" key="39" pan="0" vol="197" pos="2556"/>
          <note len="24" key="46" pan="0" vol="197" pos="2568"/>
          <note len="24" key="39" pan="0" vol="197" pos="2568"/>
          <note len="12" key="0" pan="0" vol="197" pos="2568"/>
          <note len="24" key="46" pan="0" vol="197" pos="2592"/>
          <note len="24" key="39" pan="0" vol="197" pos="2592"/>
          <note len="24" key="46" pan="0" vol="197" pos="2616"/>
          <note len="24" key="39" pan="0" vol="197" pos="2616"/>
          <note len="12" key="1" pan="0" vol="197" pos="2628"/>
          <note len="12" key="39" pan="0" vol="197" pos="2640"/>
          <note len="12" key="39" pan="0" vol="197" pos="2652"/>
          <note len="24" key="46" pan="0" vol="197" pos="2664"/>
          <note len="24" key="39" pan="0" vol="197" pos="2664"/>
          <note len="12" key="0" pan="0" vol="197" pos="2664"/>
          <note len="24" key="51" pan="0" vol="197" pos="2688"/>
          <note len="24" key="44" pan="0" vol="197" pos="2688"/>
          <note len="12" key="1" pan="0" vol="197" pos="2700"/>
          <note len="12" key="44" pan="0" vol="197" pos="2712"/>
          <note len="12" key="44" pan="0" vol="197" pos="2724"/>
          <note len="24" key="51" pan="0" vol="197" pos="2736"/>
          <note len="24" key="44" pan="0" vol="197" pos="2736"/>
          <note len="12" key="0" pan="0" vol="197" pos="2736"/>
          <note len="24" key="51" pan="0" vol="197" pos="2760"/>
          <note len="24" key="44" pan="0" vol="197" pos="2760"/>
          <note len="12" key="1" pan="0" vol="197" pos="2772"/>
          <note len="12" key="44" pan="0" vol="197" pos="2784"/>
          <note len="12" key="44" pan="0" vol="197" pos="2796"/>
          <note len="24" key="51" pan="0" vol="197" pos="2808"/>
          <note len="24" key="44" pan="0" vol="197" pos="2808"/>
          <note len="12" key="0" pan="0" vol="197" pos="2808"/>
          <note len="24" key="51" pan="0" vol="197" pos="2832"/>
          <note len="24" key="44" pan="0" vol="197" pos="2832"/>
          <note len="12" key="1" pan="0" vol="197" pos="2844"/>
          <note len="12" key="44" pan="0" vol="197" pos="2856"/>
          <note len="12" key="44" pan="0" vol="197" pos="2868"/>
          <note len="48" key="51" pan="0" vol="197" pos="2880"/>
          <note len="48" key="44" pan="0" vol="197" pos="2880"/>
          <note len="12" key="0" pan="0" vol="197" pos="2880"/>
          <note len="48" key="51" pan="0" vol="197" pos="2928"/>
          <note len="48" key="44" pan="0" vol="197" pos="2928"/>
          <note len="48" key="51" pan="0" vol="197" pos="2976"/>
          <note len="48" key="44" pan="0" vol="197" pos="2976"/>
          <note len="48" key="51" pan="0" vol="197" pos="3024"/>
          <note len="48" key="44" pan="0" vol="197" pos="3024"/>
        </pattern>
        <pattern muted="0" name="" steps="16" type="1" pos="14976">
          <note len="24" key="40" pan="0" vol="197" pos="0"/>
          <note len="12" key="0" pan="0" vol="197" pos="0"/>
          <note len="24" key="42" pan="0" vol="197" pos="24"/>
          <note len="12" key="1" pan="0" vol="197" pos="36"/>
          <note len="12" key="42" pan="0" vol="197" pos="48"/>
          <note len="12" key="42" pan="0" vol="197" pos="60"/>
          <note len="24" key="47" pan="0" vol="197" pos="72"/>
          <note len="24" key="0" pan="0" vol="197" pos="72"/>
          <note len="24" key="49" pan="0" vol="197" pos="96"/>
          <note len="24" key="42" pan="0" vol="197" pos="120"/>
          <note len="24" key="40" pan="0" vol="197" pos="144"/>
          <note len="24" key="42" pan="0" vol="197" pos="168"/>
        </pattern>
        <pattern muted="0" name="" steps="16" type="1" pos="15360">
          <note len="24" key="46" pan="0" vol="78" pos="0"/>
          <note len="24" key="39" pan="0" vol="78" pos="0"/>
          <note len="12" key="0" pan="0" vol="78" pos="0"/>
          <note len="12" key="1" pan="0" vol="78" pos="12"/>
          <note len="12" key="39" pan="0" vol="78" pos="24"/>
          <note len="12" key="39" pan="0" vol="78" pos="36"/>
          <note len="12" key="39" pan="0" vol="78" pos="48"/>
          <note len="12" key="39" pan="0" vol="78" pos="60"/>
          <note len="12" key="39" pan="0" vol="78" pos="72"/>
          <note len="12" key="39" pan="0" vol="78" pos="84"/>
          <note len="12" key="39" pan="0" vol="78" pos="96"/>
          <note len="12" key="39" pan="0" vol="78" pos="108"/>
          <note len="12" key="39" pan="0" vol="78" pos="120"/>
          <note len="12" key="39" pan="0" vol="78" pos="132"/>
          <note len="12" key="39" pan="0" vol="78" pos="144"/>
          <note len="12" key="39" pan="0" vol="78" pos="156"/>
          <note len="12" key="39" pan="0" vol="78" pos="168"/>
          <note len="12" key="39" pan="0" vol="78" pos="180"/>
          <note len="96" key="52" pan="0" vol="78" pos="192"/>
          <note len="96" key="45" pan="0" vol="78" pos="192"/>
          <note len="12" key="0" pan="0" vol="78" pos="192"/>
          <note len="96" key="51" pan="0" vol="78" pos="288"/>
          <note len="96" key="44" pan="0" vol="78" pos="288"/>
        </pattern>
        <pattern muted="0" name="" steps="16" type="1" pos="15168">
          <note len="24" key="40" pan="0" vol="197" pos="0"/>
          <note len="12" key="0" pan="0" vol="197" pos="0"/>
          <note len="24" key="42" pan="0" vol="197" pos="24"/>
          <note len="12" key="1" pan="0" vol="197" pos="36"/>
          <note len="12" key="42" pan="0" vol="197" pos="48"/>
          <note len="12" key="42" pan="0" vol="197" pos="60"/>
          <note len="24" key="47" pan="0" vol="197" pos="72"/>
          <note len="24" key="0" pan="0" vol="197" pos="72"/>
          <note len="24" key="49" pan="0" vol="197" pos="96"/>
          <note len="24" key="42" pan="0" vol="197" pos="120"/>
          <note len="24" key="40" pan="0" vol="197" pos="144"/>
          <note len="24" key="42" pan="0" vol="197" pos="168"/>
        </pattern>
        <pattern muted="0" name="" steps="16" type="1" pos="24960">
          <note len="192" key="52" pan="0" vol="195" pos="0"/>
          <note len="192" key="45" pan="0" vol="195" pos="0"/>
          <note len="384" key="0" pan="0" vol="195" pos="0"/>
          <note len="192" key="54" pan="0" vol="195" pos="192"/>
          <note len="192" key="47" pan="0" vol="195" pos="192"/>
          <note len="384" key="44" pan="0" vol="195" pos="384"/>
          <note len="384" key="37" pan="0" vol="195" pos="384"/>
          <note len="192" key="42" pan="0" vol="195" pos="768"/>
          <note len="192" key="35" pan="0" vol="195" pos="768"/>
          <note len="192" key="42" pan="0" vol="195" pos="960"/>
          <note len="192" key="35" pan="0" vol="195" pos="960"/>
          <note len="384" key="49" pan="0" vol="195" pos="1152"/>
          <note len="384" key="42" pan="0" vol="195" pos="1152"/>
          <note len="192" key="52" pan="0" vol="195" pos="1536"/>
          <note len="192" key="45" pan="0" vol="195" pos="1536"/>
          <note len="192" key="54" pan="0" vol="195" pos="1728"/>
          <note len="192" key="47" pan="0" vol="195" pos="1728"/>
          <note len="192" key="44" pan="0" vol="195" pos="1920"/>
          <note len="192" key="37" pan="0" vol="195" pos="1920"/>
          <note len="192" key="44" pan="0" vol="195" pos="2112"/>
          <note len="192" key="37" pan="0" vol="195" pos="2112"/>
        </pattern>
        <pattern muted="0" name="" steps="16" type="1" pos="28032">
          <note len="384" key="52" pan="0" vol="195" pos="0"/>
          <note len="384" key="45" pan="0" vol="195" pos="0"/>
          <note len="384" key="0" pan="0" vol="195" pos="0"/>
          <note len="384" key="42" pan="0" vol="195" pos="384"/>
          <note len="384" key="35" pan="0" vol="195" pos="384"/>
        </pattern>
        <pattern muted="0" name="" steps="16" type="1" pos="27264">
          <note len="192" key="49" pan="0" vol="200" pos="0"/>
          <note len="192" key="42" pan="0" vol="200" pos="0"/>
          <note len="192" key="0" pan="0" vol="200" pos="0"/>
          <note len="192" key="49" pan="0" vol="200" pos="192"/>
          <note len="192" key="42" pan="0" vol="200" pos="192"/>
          <note len="192" key="51" pan="0" vol="200" pos="384"/>
          <note len="192" key="44" pan="0" vol="200" pos="384"/>
          <note len="192" key="51" pan="0" vol="200" pos="576"/>
          <note len="192" key="44" pan="0" vol="200" pos="576"/>
        </pattern>
        <pattern muted="0" name="" steps="16" type="1" pos="28800">
          <note len="48" key="49" pan="0" vol="200" pos="0"/>
          <note len="24" key="0" pan="0" vol="200" pos="0"/>
          <note len="24" key="37" pan="0" vol="200" pos="48"/>
          <note len="24" key="1" pan="0" vol="200" pos="60"/>
          <note len="12" key="37" pan="0" vol="200" pos="72"/>
          <note len="12" key="37" pan="0" vol="200" pos="84"/>
          <note len="12" key="37" pan="0" vol="200" pos="96"/>
          <note len="12" key="37" pan="0" vol="200" pos="108"/>
          <note len="24" key="37" pan="0" vol="200" pos="120"/>
          <note len="24" key="0" pan="0" vol="200" pos="120"/>
          <note len="24" key="1" pan="0" vol="200" pos="132"/>
          <note len="12" key="37" pan="0" vol="200" pos="144"/>
          <note len="12" key="37" pan="0" vol="200" pos="156"/>
          <note len="12" key="37" pan="0" vol="200" pos="168"/>
          <note len="12" key="37" pan="0" vol="200" pos="180"/>
          <note len="24" key="37" pan="0" vol="200" pos="192"/>
          <note len="24" key="0" pan="0" vol="200" pos="192"/>
          <note len="24" key="1" pan="0" vol="200" pos="204"/>
          <note len="12" key="37" pan="0" vol="200" pos="216"/>
          <note len="12" key="37" pan="0" vol="200" pos="228"/>
          <note len="12" key="37" pan="0" vol="200" pos="240"/>
          <note len="12" key="37" pan="0" vol="200" pos="252"/>
          <note len="24" key="37" pan="0" vol="200" pos="264"/>
          <note len="24" key="0" pan="0" vol="200" pos="264"/>
          <note len="24" key="1" pan="0" vol="200" pos="276"/>
          <note len="12" key="37" pan="0" vol="200" pos="288"/>
          <note len="12" key="37" pan="0" vol="200" pos="300"/>
          <note len="24" key="37" pan="0" vol="200" pos="312"/>
          <note len="24" key="0" pan="0" vol="200" pos="312"/>
          <note len="24" key="1" pan="0" vol="200" pos="324"/>
          <note len="12" key="37" pan="0" vol="200" pos="336"/>
          <note len="12" key="37" pan="0" vol="200" pos="348"/>
          <note len="12" key="37" pan="0" vol="200" pos="360"/>
          <note len="12" key="37" pan="0" vol="200" pos="372"/>
          <note len="48" key="37" pan="0" vol="200" pos="384"/>
          <note len="24" key="0" pan="0" vol="200" pos="384"/>
          <note len="24" key="37" pan="0" vol="200" pos="432"/>
          <note len="24" key="1" pan="0" vol="200" pos="444"/>
          <note len="12" key="37" pan="0" vol="200" pos="456"/>
          <note len="12" key="37" pan="0" vol="200" pos="468"/>
          <note len="12" key="37" pan="0" vol="200" pos="480"/>
          <note len="12" key="37" pan="0" vol="200" pos="492"/>
          <note len="24" key="37" pan="0" vol="200" pos="504"/>
          <note len="24" key="0" pan="0" vol="200" pos="504"/>
          <note len="24" key="1" pan="0" vol="200" pos="516"/>
          <note len="12" key="37" pan="0" vol="200" pos="528"/>
          <note len="12" key="37" pan="0" vol="200" pos="540"/>
          <note len="12" key="37" pan="0" vol="200" pos="552"/>
          <note len="12" key="37" pan="0" vol="200" pos="564"/>
          <note len="24" key="37" pan="0" vol="200" pos="576"/>
          <note len="24" key="0" pan="0" vol="200" pos="576"/>
          <note len="24" key="1" pan="0" vol="200" pos="588"/>
          <note len="12" key="37" pan="0" vol="200" pos="600"/>
          <note len="12" key="37" pan="0" vol="200" pos="612"/>
          <note len="12" key="37" pan="0" vol="200" pos="624"/>
          <note len="12" key="37" pan="0" vol="200" pos="636"/>
          <note len="24" key="37" pan="0" vol="200" pos="648"/>
          <note len="24" key="0" pan="0" vol="200" pos="648"/>
          <note len="24" key="1" pan="0" vol="200" pos="660"/>
          <note len="12" key="37" pan="0" vol="200" pos="672"/>
          <note len="12" key="37" pan="0" vol="200" pos="684"/>
          <note len="24" key="40" pan="0" vol="200" pos="696"/>
          <note len="24" key="42" pan="0" vol="200" pos="720"/>
          <note len="24" key="44" pan="0" vol="200" pos="744"/>
        </pattern>
        <pattern muted="0" name="" steps="16" type="1" pos="29568">
          <note len="48" key="49" pan="0" vol="200" pos="0"/>
          <note len="24" key="0" pan="0" vol="200" pos="0"/>
          <note len="24" key="37" pan="0" vol="200" pos="48"/>
          <note len="24" key="1" pan="0" vol="200" pos="60"/>
          <note len="12" key="37" pan="0" vol="200" pos="72"/>
          <note len="12" key="37" pan="0" vol="200" pos="84"/>
          <note len="12" key="37" pan="0" vol="200" pos="96"/>
          <note len="12" key="37" pan="0" vol="200" pos="108"/>
          <note len="24" key="37" pan="0" vol="200" pos="120"/>
          <note len="24" key="0" pan="0" vol="200" pos="120"/>
          <note len="24" key="1" pan="0" vol="200" pos="132"/>
          <note len="12" key="37" pan="0" vol="200" pos="144"/>
          <note len="12" key="37" pan="0" vol="200" pos="156"/>
          <note len="12" key="37" pan="0" vol="200" pos="168"/>
          <note len="12" key="37" pan="0" vol="200" pos="180"/>
          <note len="24" key="37" pan="0" vol="200" pos="192"/>
          <note len="24" key="0" pan="0" vol="200" pos="192"/>
          <note len="24" key="1" pan="0" vol="200" pos="204"/>
          <note len="12" key="37" pan="0" vol="200" pos="216"/>
          <note len="12" key="37" pan="0" vol="200" pos="228"/>
          <note len="12" key="37" pan="0" vol="200" pos="240"/>
          <note len="12" key="37" pan="0" vol="200" pos="252"/>
          <note len="24" key="37" pan="0" vol="200" pos="264"/>
          <note len="24" key="0" pan="0" vol="200" pos="264"/>
          <note len="24" key="1" pan="0" vol="200" pos="276"/>
          <note len="12" key="37" pan="0" vol="200" pos="288"/>
          <note len="12" key="37" pan="0" vol="200" pos="300"/>
          <note len="24" key="37" pan="0" vol="200" pos="312"/>
          <note len="24" key="0" pan="0" vol="200" pos="312"/>
          <note len="24" key="1" pan="0" vol="200" pos="324"/>
          <note len="12" key="37" pan="0" vol="200" pos="336"/>
          <note len="12" key="37" pan="0" vol="200" pos="348"/>
          <note len="12" key="37" pan="0" vol="200" pos="360"/>
          <note len="12" key="37" pan="0" vol="200" pos="372"/>
          <note len="48" key="37" pan="0" vol="200" pos="384"/>
          <note len="24" key="0" pan="0" vol="200" pos="384"/>
          <note len="24" key="37" pan="0" vol="200" pos="432"/>
          <note len="24" key="1" pan="0" vol="200" pos="444"/>
          <note len="12" key="37" pan="0" vol="200" pos="456"/>
          <note len="12" key="37" pan="0" vol="200" pos="468"/>
          <note len="12" key="37" pan="0" vol="200" pos="480"/>
          <note len="12" key="37" pan="0" vol="200" pos="492"/>
          <note len="24" key="37" pan="0" vol="200" pos="504"/>
          <note len="24" key="0" pan="0" vol="200" pos="504"/>
          <note len="24" key="1" pan="0" vol="200" pos="516"/>
          <note len="12" key="37" pan="0" vol="200" pos="528"/>
          <note len="12" key="37" pan="0" vol="200" pos="540"/>
          <note len="12" key="37" pan="0" vol="200" pos="552"/>
          <note len="12" key="37" pan="0" vol="200" pos="564"/>
          <note len="24" key="37" pan="0" vol="200" pos="576"/>
          <note len="24" key="0" pan="0" vol="200" pos="576"/>
          <note len="24" key="1" pan="0" vol="200" pos="588"/>
          <note len="12" key="37" pan="0" vol="200" pos="600"/>
          <note len="12" key="37" pan="0" vol="200" pos="612"/>
          <note len="12" key="37" pan="0" vol="200" pos="624"/>
          <note len="12" key="37" pan="0" vol="200" pos="636"/>
          <note len="24" key="37" pan="0" vol="200" pos="648"/>
          <note len="24" key="0" pan="0" vol="200" pos="648"/>
          <note len="24" key="1" pan="0" vol="200" pos="660"/>
          <note len="12" key="37" pan="0" vol="200" pos="672"/>
          <note len="12" key="37" pan="0" vol="200" pos="684"/>
          <note len="24" key="40" pan="0" vol="200" pos="696"/>
          <note len="24" key="42" pan="0" vol="200" pos="720"/>
          <note len="24" key="44" pan="0" vol="200" pos="744"/>
        </pattern>
        <pattern muted="0" name="" steps="16" type="1" pos="30336">
          <note len="48" key="50" pan="0" vol="200" pos="0"/>
          <note len="24" key="0" pan="0" vol="200" pos="0"/>
          <note len="24" key="38" pan="0" vol="200" pos="48"/>
          <note len="24" key="1" pan="0" vol="200" pos="60"/>
          <note len="12" key="38" pan="0" vol="200" pos="72"/>
          <note len="12" key="38" pan="0" vol="200" pos="84"/>
          <note len="12" key="38" pan="0" vol="200" pos="96"/>
          <note len="12" key="38" pan="0" vol="200" pos="108"/>
          <note len="24" key="38" pan="0" vol="200" pos="120"/>
          <note len="24" key="0" pan="0" vol="200" pos="120"/>
          <note len="24" key="1" pan="0" vol="200" pos="132"/>
          <note len="12" key="38" pan="0" vol="200" pos="144"/>
          <note len="12" key="38" pan="0" vol="200" pos="156"/>
          <note len="12" key="38" pan="0" vol="200" pos="168"/>
          <note len="12" key="38" pan="0" vol="200" pos="180"/>
          <note len="24" key="38" pan="0" vol="200" pos="192"/>
          <note len="24" key="0" pan="0" vol="200" pos="192"/>
          <note len="24" key="1" pan="0" vol="200" pos="204"/>
          <note len="12" key="38" pan="0" vol="200" pos="216"/>
          <note len="12" key="38" pan="0" vol="200" pos="228"/>
          <note len="12" key="38" pan="0" vol="200" pos="240"/>
          <note len="12" key="38" pan="0" vol="200" pos="252"/>
          <note len="24" key="38" pan="0" vol="200" pos="264"/>
          <note len="24" key="0" pan="0" vol="200" pos="264"/>
          <note len="24" key="1" pan="0" vol="200" pos="276"/>
          <note len="12" key="38" pan="0" vol="200" pos="288"/>
          <note len="12" key="38" pan="0" vol="200" pos="300"/>
          <note len="24" key="38" pan="0" vol="200" pos="312"/>
          <note len="24" key="0" pan="0" vol="200" pos="312"/>
          <note len="24" key="1" pan="0" vol="200" pos="324"/>
          <note len="12" key="38" pan="0" vol="200" pos="336"/>
          <note len="12" key="38" pan="0" vol="200" pos="348"/>
          <note len="12" key="38" pan="0" vol="200" pos="360"/>
          <note len="12" key="38" pan="0" vol="200" pos="372"/>
          <note len="48" key="38" pan="0" vol="200" pos="384"/>
          <note len="24" key="0" pan="0" vol="200" pos="384"/>
          <note len="24" key="38" pan="0" vol="200" pos="432"/>
          <note len="24" key="1" pan="0" vol="200" pos="444"/>
          <note len="12" key="38" pan="0" vol="200" pos="456"/>
          <note len="12" key="38" pan="0" vol="200" pos="468"/>
          <note len="12" key="38" pan="0" vol="200" pos="480"/>
          <note len="12" key="38" pan="0" vol="200" pos="492"/>
          <note len="24" key="38" pan="0" vol="200" pos="504"/>
          <note len="24" key="0" pan="0" vol="200" pos="504"/>
          <note len="24" key="1" pan="0" vol="200" pos="516"/>
          <note len="12" key="38" pan="0" vol="200" pos="528"/>
          <note len="12" key="38" pan="0" vol="200" pos="540"/>
          <note len="12" key="38" pan="0" vol="200" pos="552"/>
          <note len="12" key="38" pan="0" vol="200" pos="564"/>
          <note len="24" key="38" pan="0" vol="200" pos="576"/>
          <note len="24" key="0" pan="0" vol="200" pos="576"/>
          <note len="24" key="1" pan="0" vol="200" pos="588"/>
          <note len="12" key="38" pan="0" vol="200" pos="600"/>
          <note len="12" key="38" pan="0" vol="200" pos="612"/>
          <note len="12" key="38" pan="0" vol="200" pos="624"/>
          <note len="12" key="38" pan="0" vol="200" pos="636"/>
          <note len="24" key="38" pan="0" vol="200" pos="648"/>
          <note len="24" key="0" pan="0" vol="200" pos="648"/>
          <note len="24" key="1" pan="0" vol="200" pos="660"/>
          <note len="12" key="38" pan="0" vol="200" pos="672"/>
          <note len="12" key="38" pan="0" vol="200" pos="684"/>
          <note len="24" key="45" pan="0" vol="200" pos="696"/>
          <note len="24" key="44" pan="0" vol="200" pos="720"/>
          <note len="24" key="40" pan="0" vol="200" pos="744"/>
        </pattern>
        <pattern muted="0" name="" steps="16" type="1" pos="31104">
          <note len="48" key="49" pan="0" vol="200" pos="0"/>
          <note len="24" key="0" pan="0" vol="200" pos="0"/>
          <note len="24" key="37" pan="0" vol="200" pos="48"/>
          <note len="24" key="1" pan="0" vol="200" pos="60"/>
          <note len="12" key="37" pan="0" vol="200" pos="72"/>
          <note len="12" key="37" pan="0" vol="200" pos="84"/>
          <note len="12" key="37" pan="0" vol="200" pos="96"/>
          <note len="12" key="37" pan="0" vol="200" pos="108"/>
          <note len="24" key="37" pan="0" vol="200" pos="120"/>
          <note len="24" key="0" pan="0" vol="200" pos="120"/>
          <note len="24" key="1" pan="0" vol="200" pos="132"/>
          <note len="12" key="37" pan="0" vol="200" pos="144"/>
          <note len="12" key="37" pan="0" vol="200" pos="156"/>
          <note len="12" key="37" pan="0" vol="200" pos="168"/>
          <note len="12" key="37" pan="0" vol="200" pos="180"/>
          <note len="24" key="37" pan="0" vol="200" pos="192"/>
          <note len="24" key="0" pan="0" vol="200" pos="192"/>
          <note len="24" key="1" pan="0" vol="200" pos="204"/>
          <note len="12" key="37" pan="0" vol="200" pos="216"/>
          <note len="12" key="37" pan="0" vol="200" pos="228"/>
          <note len="12" key="37" pan="0" vol="200" pos="240"/>
          <note len="12" key="37" pan="0" vol="200" pos="252"/>
          <note len="24" key="37" pan="0" vol="200" pos="264"/>
          <note len="24" key="0" pan="0" vol="200" pos="264"/>
          <note len="24" key="1" pan="0" vol="200" pos="276"/>
          <note len="12" key="37" pan="0" vol="200" pos="288"/>
          <note len="12" key="37" pan="0" vol="200" pos="300"/>
          <note len="24" key="37" pan="0" vol="200" pos="312"/>
          <note len="24" key="0" pan="0" vol="200" pos="312"/>
          <note len="24" key="1" pan="0" vol="200" pos="324"/>
          <note len="12" key="37" pan="0" vol="200" pos="336"/>
          <note len="12" key="37" pan="0" vol="200" pos="348"/>
          <note len="12" key="37" pan="0" vol="200" pos="360"/>
          <note len="12" key="37" pan="0" vol="200" pos="372"/>
          <note len="48" key="35" pan="0" vol="200" pos="384"/>
          <note len="24" key="0" pan="0" vol="200" pos="384"/>
          <note len="24" key="35" pan="0" vol="200" pos="432"/>
          <note len="24" key="1" pan="0" vol="200" pos="444"/>
          <note len="12" key="35" pan="0" vol="200" pos="456"/>
          <note len="12" key="35" pan="0" vol="200" pos="468"/>
          <note len="12" key="35" pan="0" vol="200" pos="480"/>
          <note len="12" key="35" pan="0" vol="200" pos="492"/>
          <note len="24" key="35" pan="0" vol="200" pos="504"/>
          <note len="24" key="0" pan="0" vol="200" pos="504"/>
          <note len="24" key="1" pan="0" vol="200" pos="516"/>
          <note len="12" key="35" pan="0" vol="200" pos="528"/>
          <note len="12" key="35" pan="0" vol="200" pos="540"/>
          <note len="12" key="35" pan="0" vol="200" pos="552"/>
          <note len="12" key="35" pan="0" vol="200" pos="564"/>
          <note len="24" key="35" pan="0" vol="200" pos="576"/>
          <note len="24" key="0" pan="0" vol="200" pos="576"/>
          <note len="24" key="1" pan="0" vol="200" pos="588"/>
          <note len="12" key="35" pan="0" vol="200" pos="600"/>
          <note len="12" key="35" pan="0" vol="200" pos="612"/>
          <note len="12" key="35" pan="0" vol="200" pos="624"/>
          <note len="12" key="35" pan="0" vol="200" pos="636"/>
          <note len="24" key="35" pan="0" vol="200" pos="648"/>
          <note len="24" key="0" pan="0" vol="200" pos="648"/>
          <note len="24" key="1" pan="0" vol="200" pos="660"/>
          <note len="12" key="35" pan="0" vol="200" pos="672"/>
          <note len="12" key="35" pan="0" vol="200" pos="684"/>
          <note len="24" key="39" pan="0" vol="200" pos="696"/>
          <note len="24" key="40" pan="0" vol="200" pos="720"/>
          <note len="24" key="42" pan="0" vol="200" pos="744"/>
        </pattern>
        <pattern muted="0" name="" steps="16" type="1" pos="31872">
          <note len="48" key="33" pan="0" vol="200" pos="0"/>
          <note len="24" key="0" pan="0" vol="200" pos="0"/>
          <note len="24" key="33" pan="0" vol="200" pos="48"/>
          <note len="24" key="1" pan="0" vol="200" pos="60"/>
          <note len="12" key="33" pan="0" vol="200" pos="72"/>
          <note len="12" key="33" pan="0" vol="200" pos="84"/>
          <note len="12" key="33" pan="0" vol="200" pos="96"/>
          <note len="12" key="33" pan="0" vol="200" pos="108"/>
          <note len="24" key="33" pan="0" vol="200" pos="120"/>
          <note len="24" key="0" pan="0" vol="200" pos="120"/>
          <note len="24" key="1" pan="0" vol="200" pos="132"/>
          <note len="12" key="33" pan="0" vol="200" pos="144"/>
          <note len="12" key="33" pan="0" vol="200" pos="156"/>
          <note len="12" key="33" pan="0" vol="200" pos="168"/>
          <note len="12" key="33" pan="0" vol="200" pos="180"/>
          <note len="24" key="33" pan="0" vol="200" pos="192"/>
          <note len="24" key="0" pan="0" vol="200" pos="192"/>
          <note len="24" key="1" pan="0" vol="200" pos="204"/>
          <note len="12" key="33" pan="0" vol="200" pos="216"/>
          <note len="12" key="33" pan="0" vol="200" pos="228"/>
          <note len="12" key="33" pan="0" vol="200" pos="240"/>
          <note len="12" key="33" pan="0" vol="200" pos="252"/>
          <note len="24" key="33" pan="0" vol="200" pos="264"/>
          <note len="24" key="0" pan="0" vol="200" pos="264"/>
          <note len="24" key="1" pan="0" vol="200" pos="276"/>
          <note len="12" key="33" pan="0" vol="200" pos="288"/>
          <note len="12" key="33" pan="0" vol="200" pos="300"/>
          <note len="24" key="33" pan="0" vol="200" pos="312"/>
          <note len="24" key="0" pan="0" vol="200" pos="312"/>
          <note len="24" key="1" pan="0" vol="200" pos="324"/>
          <note len="12" key="33" pan="0" vol="200" pos="336"/>
          <note len="12" key="33" pan="0" vol="200" pos="348"/>
          <note len="12" key="33" pan="0" vol="200" pos="360"/>
          <note len="12" key="33" pan="0" vol="200" pos="372"/>
          <note len="48" key="35" pan="0" vol="200" pos="384"/>
          <note len="24" key="0" pan="0" vol="200" pos="384"/>
          <note len="24" key="35" pan="0" vol="200" pos="432"/>
          <note len="24" key="1" pan="0" vol="200" pos="444"/>
          <note len="12" key="35" pan="0" vol="200" pos="456"/>
          <note len="12" key="35" pan="0" vol="200" pos="468"/>
          <note len="12" key="35" pan="0" vol="200" pos="480"/>
          <note len="12" key="35" pan="0" vol="200" pos="492"/>
          <note len="24" key="35" pan="0" vol="200" pos="504"/>
          <note len="24" key="0" pan="0" vol="200" pos="504"/>
          <note len="24" key="1" pan="0" vol="200" pos="516"/>
          <note len="12" key="35" pan="0" vol="200" pos="528"/>
          <note len="12" key="35" pan="0" vol="200" pos="540"/>
          <note len="12" key="35" pan="0" vol="200" pos="552"/>
          <note len="12" key="35" pan="0" vol="200" pos="564"/>
          <note len="24" key="35" pan="0" vol="200" pos="576"/>
          <note len="24" key="0" pan="0" vol="200" pos="576"/>
          <note len="24" key="1" pan="0" vol="200" pos="588"/>
          <note len="12" key="35" pan="0" vol="200" pos="600"/>
          <note len="12" key="35" pan="0" vol="200" pos="612"/>
          <note len="12" key="35" pan="0" vol="200" pos="624"/>
          <note len="12" key="35" pan="0" vol="200" pos="636"/>
          <note len="24" key="35" pan="0" vol="200" pos="648"/>
          <note len="24" key="0" pan="0" vol="200" pos="648"/>
          <note len="24" key="1" pan="0" vol="200" pos="660"/>
          <note len="12" key="35" pan="0" vol="200" pos="672"/>
          <note len="12" key="35" pan="0" vol="200" pos="684"/>
          <note len="24" key="35" pan="0" vol="200" pos="696"/>
          <note len="12" key="35" pan="0" vol="200" pos="720"/>
          <note len="12" key="35" pan="0" vol="200" pos="732"/>
          <note len="12" key="35" pan="0" vol="200" pos="744"/>
          <note len="12" key="35" pan="0" vol="200" pos="756"/>
        </pattern>
        <pattern muted="0" name="" steps="16" type="1" pos="32640">
          <note len="48" key="42" pan="0" vol="200" pos="0"/>
          <note len="24" key="0" pan="0" vol="200" pos="0"/>
          <note len="24" key="42" pan="0" vol="200" pos="48"/>
          <note len="24" key="1" pan="0" vol="200" pos="60"/>
          <note len="12" key="42" pan="0" vol="200" pos="72"/>
          <note len="12" key="42" pan="0" vol="200" pos="84"/>
          <note len="12" key="42" pan="0" vol="200" pos="96"/>
          <note len="12" key="42" pan="0" vol="200" pos="108"/>
          <note len="24" key="42" pan="0" vol="200" pos="120"/>
          <note len="24" key="0" pan="0" vol="200" pos="120"/>
          <note len="24" key="1" pan="0" vol="200" pos="132"/>
          <note len="12" key="42" pan="0" vol="200" pos="144"/>
          <note len="12" key="42" pan="0" vol="200" pos="156"/>
          <note len="12" key="42" pan="0" vol="200" pos="168"/>
          <note len="12" key="42" pan="0" vol="200" pos="180"/>
          <note len="24" key="42" pan="0" vol="200" pos="192"/>
          <note len="24" key="0" pan="0" vol="200" pos="192"/>
          <note len="24" key="1" pan="0" vol="200" pos="204"/>
          <note len="12" key="42" pan="0" vol="200" pos="216"/>
          <note len="12" key="42" pan="0" vol="200" pos="228"/>
          <note len="12" key="42" pan="0" vol="200" pos="240"/>
          <note len="12" key="42" pan="0" vol="200" pos="252"/>
          <note len="24" key="42" pan="0" vol="200" pos="264"/>
          <note len="24" key="0" pan="0" vol="200" pos="264"/>
          <note len="24" key="1" pan="0" vol="200" pos="276"/>
          <note len="12" key="42" pan="0" vol="200" pos="288"/>
          <note len="12" key="42" pan="0" vol="200" pos="300"/>
          <note len="24" key="42" pan="0" vol="200" pos="312"/>
          <note len="24" key="0" pan="0" vol="200" pos="312"/>
          <note len="24" key="1" pan="0" vol="200" pos="324"/>
          <note len="12" key="42" pan="0" vol="200" pos="336"/>
          <note len="12" key="42" pan="0" vol="200" pos="348"/>
          <note len="12" key="42" pan="0" vol="200" pos="360"/>
          <note len="12" key="42" pan="0" vol="200" pos="372"/>
          <note len="48" key="32" pan="0" vol="200" pos="384"/>
          <note len="24" key="0" pan="0" vol="200" pos="384"/>
          <note len="24" key="32" pan="0" vol="200" pos="432"/>
          <note len="24" key="1" pan="0" vol="200" pos="444"/>
          <note len="12" key="32" pan="0" vol="200" pos="456"/>
          <note len="12" key="32" pan="0" vol="200" pos="468"/>
          <note len="12" key="32" pan="0" vol="200" pos="480"/>
          <note len="12" key="32" pan="0" vol="200" pos="492"/>
          <note len="24" key="32" pan="0" vol="200" pos="504"/>
          <note len="24" key="0" pan="0" vol="200" pos="504"/>
          <note len="24" key="1" pan="0" vol="200" pos="516"/>
          <note len="12" key="32" pan="0" vol="200" pos="528"/>
          <note len="12" key="32" pan="0" vol="200" pos="540"/>
          <note len="12" key="32" pan="0" vol="200" pos="552"/>
          <note len="12" key="32" pan="0" vol="200" pos="564"/>
          <note len="24" key="32" pan="0" vol="200" pos="576"/>
          <note len="24" key="0" pan="0" vol="200" pos="576"/>
          <note len="24" key="1" pan="0" vol="200" pos="588"/>
          <note len="12" key="32" pan="0" vol="200" pos="600"/>
          <note len="12" key="32" pan="0" vol="200" pos="612"/>
          <note len="12" key="32" pan="0" vol="200" pos="624"/>
          <note len="12" key="32" pan="0" vol="200" pos="636"/>
          <note len="24" key="32" pan="0" vol="200" pos="648"/>
          <note len="24" key="0" pan="0" vol="200" pos="648"/>
          <note len="24" key="1" pan="0" vol="200" pos="660"/>
          <note len="12" key="32" pan="0" vol="200" pos="672"/>
          <note len="12" key="32" pan="0" vol="200" pos="684"/>
          <note len="24" key="32" pan="0" vol="200" pos="696"/>
          <note len="12" key="32" pan="0" vol="200" pos="720"/>
          <note len="12" key="32" pan="0" vol="200" pos="732"/>
          <note len="12" key="32" pan="0" vol="200" pos="744"/>
          <note len="12" key="32" pan="0" vol="200" pos="756"/>
        </pattern>
        <pattern muted="0" name="" steps="16" type="1" pos="33408">
          <note len="48" key="39" pan="0" vol="200" pos="0"/>
          <note len="24" key="0" pan="0" vol="200" pos="0"/>
          <note len="24" key="39" pan="0" vol="200" pos="48"/>
          <note len="24" key="1" pan="0" vol="200" pos="60"/>
          <note len="12" key="39" pan="0" vol="200" pos="72"/>
          <note len="12" key="39" pan="0" vol="200" pos="84"/>
          <note len="12" key="39" pan="0" vol="200" pos="96"/>
          <note len="12" key="39" pan="0" vol="200" pos="108"/>
          <note len="24" key="39" pan="0" vol="200" pos="120"/>
          <note len="24" key="0" pan="0" vol="200" pos="120"/>
          <note len="24" key="1" pan="0" vol="200" pos="132"/>
          <note len="12" key="39" pan="0" vol="200" pos="144"/>
          <note len="12" key="39" pan="0" vol="200" pos="156"/>
          <note len="12" key="39" pan="0" vol="200" pos="168"/>
          <note len="12" key="39" pan="0" vol="200" pos="180"/>
          <note len="24" key="39" pan="0" vol="200" pos="192"/>
          <note len="24" key="0" pan="0" vol="200" pos="192"/>
          <note len="24" key="1" pan="0" vol="200" pos="204"/>
          <note len="12" key="39" pan="0" vol="200" pos="216"/>
          <note len="12" key="39" pan="0" vol="200" pos="228"/>
          <note len="12" key="39" pan="0" vol="200" pos="240"/>
          <note len="12" key="39" pan="0" vol="200" pos="252"/>
          <note len="24" key="39" pan="0" vol="200" pos="264"/>
          <note len="24" key="0" pan="0" vol="200" pos="264"/>
          <note len="24" key="1" pan="0" vol="200" pos="276"/>
          <note len="12" key="39" pan="0" vol="200" pos="288"/>
          <note len="12" key="39" pan="0" vol="200" pos="300"/>
          <note len="24" key="39" pan="0" vol="200" pos="312"/>
          <note len="24" key="0" pan="0" vol="200" pos="312"/>
          <note len="24" key="1" pan="0" vol="200" pos="324"/>
          <note len="12" key="39" pan="0" vol="200" pos="336"/>
          <note len="12" key="39" pan="0" vol="200" pos="348"/>
          <note len="12" key="39" pan="0" vol="200" pos="360"/>
          <note len="12" key="39" pan="0" vol="200" pos="372"/>
          <note len="48" key="38" pan="0" vol="200" pos="384"/>
          <note len="24" key="0" pan="0" vol="200" pos="384"/>
          <note len="24" key="38" pan="0" vol="200" pos="432"/>
          <note len="24" key="1" pan="0" vol="200" pos="444"/>
          <note len="12" key="38" pan="0" vol="200" pos="456"/>
          <note len="12" key="38" pan="0" vol="200" pos="468"/>
          <note len="12" key="38" pan="0" vol="200" pos="480"/>
          <note len="12" key="38" pan="0" vol="200" pos="492"/>
          <note len="24" key="38" pan="0" vol="200" pos="504"/>
          <note len="24" key="0" pan="0" vol="200" pos="504"/>
          <note len="24" key="1" pan="0" vol="200" pos="516"/>
          <note len="12" key="38" pan="0" vol="200" pos="528"/>
          <note len="12" key="38" pan="0" vol="200" pos="540"/>
          <note len="12" key="38" pan="0" vol="200" pos="552"/>
          <note len="12" key="38" pan="0" vol="200" pos="564"/>
          <note len="24" key="38" pan="0" vol="200" pos="576"/>
          <note len="24" key="0" pan="0" vol="200" pos="576"/>
          <note len="24" key="1" pan="0" vol="200" pos="588"/>
          <note len="12" key="38" pan="0" vol="200" pos="600"/>
          <note len="12" key="38" pan="0" vol="200" pos="612"/>
          <note len="12" key="38" pan="0" vol="200" pos="624"/>
          <note len="12" key="38" pan="0" vol="200" pos="636"/>
          <note len="24" key="38" pan="0" vol="200" pos="648"/>
          <note len="24" key="0" pan="0" vol="200" pos="648"/>
          <note len="24" key="1" pan="0" vol="200" pos="660"/>
          <note len="12" key="38" pan="0" vol="200" pos="672"/>
          <note len="12" key="38" pan="0" vol="200" pos="684"/>
          <note len="24" key="38" pan="0" vol="200" pos="696"/>
          <note len="12" key="38" pan="0" vol="200" pos="720"/>
          <note len="12" key="38" pan="0" vol="200" pos="732"/>
          <note len="12" key="38" pan="0" vol="200" pos="744"/>
          <note len="12" key="38" pan="0" vol="200" pos="756"/>
        </pattern>
        <pattern muted="0" name="" steps="16" type="1" pos="34176">
          <note len="48" key="43" pan="0" vol="200" pos="0"/>
          <note len="24" key="0" pan="0" vol="200" pos="0"/>
          <note len="24" key="43" pan="0" vol="200" pos="48"/>
          <note len="24" key="1" pan="0" vol="200" pos="60"/>
          <note len="12" key="43" pan="0" vol="200" pos="72"/>
          <note len="12" key="43" pan="0" vol="200" pos="84"/>
          <note len="12" key="43" pan="0" vol="200" pos="96"/>
          <note len="12" key="43" pan="0" vol="200" pos="108"/>
          <note len="24" key="43" pan="0" vol="200" pos="120"/>
          <note len="24" key="0" pan="0" vol="200" pos="120"/>
          <note len="24" key="1" pan="0" vol="200" pos="132"/>
          <note len="12" key="43" pan="0" vol="200" pos="144"/>
          <note len="12" key="43" pan="0" vol="200" pos="156"/>
          <note len="12" key="43" pan="0" vol="200" pos="168"/>
          <note len="12" key="43" pan="0" vol="200" pos="180"/>
          <note len="24" key="43" pan="0" vol="200" pos="192"/>
          <note len="24" key="0" pan="0" vol="200" pos="192"/>
          <note len="24" key="1" pan="0" vol="200" pos="204"/>
          <note len="12" key="43" pan="0" vol="200" pos="216"/>
          <note len="12" key="43" pan="0" vol="200" pos="228"/>
          <note len="12" key="43" pan="0" vol="200" pos="240"/>
          <note len="12" key="43" pan="0" vol="200" pos="252"/>
          <note len="24" key="43" pan="0" vol="200" pos="264"/>
          <note len="24" key="0" pan="0" vol="200" pos="264"/>
          <note len="24" key="1" pan="0" vol="200" pos="276"/>
          <note len="12" key="43" pan="0" vol="200" pos="288"/>
          <note len="12" key="43" pan="0" vol="200" pos="300"/>
          <note len="24" key="43" pan="0" vol="200" pos="312"/>
          <note len="24" key="0" pan="0" vol="200" pos="312"/>
          <note len="24" key="1" pan="0" vol="200" pos="324"/>
          <note len="12" key="43" pan="0" vol="200" pos="336"/>
          <note len="12" key="43" pan="0" vol="200" pos="348"/>
          <note len="12" key="43" pan="0" vol="200" pos="360"/>
          <note len="12" key="43" pan="0" vol="200" pos="372"/>
          <note len="48" key="44" pan="0" vol="200" pos="384"/>
          <note len="24" key="0" pan="0" vol="200" pos="384"/>
          <note len="24" key="32" pan="0" vol="200" pos="432"/>
          <note len="24" key="1" pan="0" vol="200" pos="444"/>
          <note len="12" key="32" pan="0" vol="200" pos="456"/>
          <note len="12" key="32" pan="0" vol="200" pos="468"/>
          <note len="12" key="32" pan="0" vol="200" pos="480"/>
          <note len="12" key="32" pan="0" vol="200" pos="492"/>
          <note len="24" key="32" pan="0" vol="200" pos="504"/>
          <note len="24" key="0" pan="0" vol="200" pos="504"/>
          <note len="24" key="1" pan="0" vol="200" pos="516"/>
          <note len="12" key="32" pan="0" vol="200" pos="528"/>
          <note len="12" key="32" pan="0" vol="200" pos="540"/>
          <note len="12" key="32" pan="0" vol="200" pos="552"/>
          <note len="12" key="32" pan="0" vol="200" pos="564"/>
          <note len="192" key="39" pan="0" vol="200" pos="576"/>
          <note len="192" key="32" pan="0" vol="200" pos="576"/>
          <note len="24" key="0" pan="0" vol="200" pos="576"/>
        </pattern>
        <pattern muted="0" name="" steps="16" type="1" pos="34944">
          <note len="192" key="44" pan="0" vol="197" pos="0"/>
          <note len="192" key="37" pan="0" vol="197" pos="0"/>
          <note len="48" key="0" pan="0" vol="78" pos="0"/>
          <note len="192" key="51" pan="0" vol="197" pos="192"/>
          <note len="192" key="44" pan="0" vol="197" pos="192"/>
          <note len="192" key="52" pan="0" vol="197" pos="384"/>
          <note len="192" key="45" pan="0" vol="197" pos="384"/>
          <note len="192" key="54" pan="0" vol="197" pos="576"/>
          <note len="192" key="47" pan="0" vol="197" pos="576"/>
          <note len="12" key="1" pan="0" vol="197" pos="756"/>
          <note len="12" key="42" pan="0" vol="197" pos="768"/>
          <note len="12" key="42" pan="0" vol="197" pos="780"/>
          <note len="12" key="42" pan="0" vol="197" pos="792"/>
          <note len="12" key="42" pan="0" vol="197" pos="804"/>
          <note len="12" key="42" pan="0" vol="197" pos="816"/>
          <note len="12" key="42" pan="0" vol="197" pos="828"/>
          <note len="12" key="42" pan="0" vol="197" pos="840"/>
          <note len="12" key="42" pan="0" vol="197" pos="852"/>
          <note len="12" key="42" pan="0" vol="197" pos="864"/>
          <note len="12" key="42" pan="0" vol="197" pos="876"/>
          <note len="12" key="42" pan="0" vol="197" pos="888"/>
          <note len="12" key="42" pan="0" vol="197" pos="900"/>
          <note len="12" key="42" pan="0" vol="197" pos="912"/>
          <note len="12" key="42" pan="0" vol="197" pos="924"/>
          <note len="12" key="42" pan="0" vol="197" pos="936"/>
          <note len="12" key="42" pan="0" vol="197" pos="948"/>
          <note len="12" key="44" pan="0" vol="197" pos="960"/>
          <note len="12" key="44" pan="0" vol="197" pos="972"/>
          <note len="12" key="44" pan="0" vol="197" pos="984"/>
          <note len="12" key="44" pan="0" vol="197" pos="996"/>
          <note len="12" key="44" pan="0" vol="197" pos="1008"/>
          <note len="12" key="44" pan="0" vol="197" pos="1020"/>
          <note len="12" key="44" pan="0" vol="197" pos="1032"/>
          <note len="12" key="44" pan="0" vol="197" pos="1044"/>
          <note len="12" key="44" pan="0" vol="197" pos="1056"/>
          <note len="12" key="44" pan="0" vol="197" pos="1068"/>
          <note len="12" key="44" pan="0" vol="197" pos="1080"/>
          <note len="12" key="44" pan="0" vol="197" pos="1092"/>
          <note len="12" key="44" pan="0" vol="197" pos="1104"/>
          <note len="12" key="44" pan="0" vol="197" pos="1116"/>
          <note len="12" key="44" pan="0" vol="197" pos="1128"/>
          <note len="12" key="44" pan="0" vol="197" pos="1140"/>
          <note len="12" key="45" pan="0" vol="197" pos="1152"/>
          <note len="12" key="45" pan="0" vol="197" pos="1164"/>
          <note len="12" key="45" pan="0" vol="197" pos="1176"/>
          <note len="12" key="45" pan="0" vol="197" pos="1188"/>
          <note len="12" key="45" pan="0" vol="197" pos="1200"/>
          <note len="12" key="45" pan="0" vol="197" pos="1212"/>
          <note len="12" key="45" pan="0" vol="197" pos="1224"/>
          <note len="12" key="45" pan="0" vol="197" pos="1236"/>
          <note len="12" key="45" pan="0" vol="197" pos="1248"/>
          <note len="12" key="45" pan="0" vol="197" pos="1260"/>
          <note len="12" key="45" pan="0" vol="197" pos="1272"/>
          <note len="12" key="45" pan="0" vol="197" pos="1284"/>
          <note len="12" key="45" pan="0" vol="197" pos="1296"/>
          <note len="12" key="45" pan="0" vol="197" pos="1308"/>
          <note len="12" key="45" pan="0" vol="197" pos="1320"/>
          <note len="12" key="45" pan="0" vol="197" pos="1332"/>
          <note len="48" key="54" pan="0" vol="197" pos="1344"/>
          <note len="48" key="47" pan="0" vol="197" pos="1344"/>
          <note len="12" key="0" pan="0" vol="197" pos="1344"/>
          <note len="48" key="54" pan="0" vol="197" pos="1392"/>
          <note len="48" key="47" pan="0" vol="197" pos="1392"/>
          <note len="48" key="51" pan="0" vol="197" pos="1440"/>
          <note len="48" key="44" pan="0" vol="197" pos="1440"/>
          <note len="48" key="54" pan="0" vol="197" pos="1488"/>
          <note len="48" key="47" pan="0" vol="197" pos="1488"/>
        </pattern>
        <pattern muted="0" name="" steps="16" type="1" pos="36480">
          <note len="24" key="49" pan="0" vol="197" pos="0"/>
          <note len="12" key="0" pan="0" vol="197" pos="0"/>
          <note len="24" key="47" pan="0" vol="197" pos="24"/>
          <note len="24" key="49" pan="0" vol="197" pos="48"/>
          <note len="24" key="56" pan="0" vol="197" pos="72"/>
          <note len="12" key="1" pan="0" vol="197" pos="84"/>
          <note len="12" key="49" pan="0" vol="197" pos="96"/>
          <note len="12" key="49" pan="0" vol="197" pos="108"/>
          <note len="12" key="49" pan="0" vol="197" pos="120"/>
          <note len="12" key="49" pan="0" vol="197" pos="132"/>
          <note len="12" key="49" pan="0" vol="197" pos="144"/>
          <note len="12" key="49" pan="0" vol="197" pos="156"/>
          <note len="12" key="49" pan="0" vol="197" pos="168"/>
          <note len="12" key="49" pan="0" vol="197" pos="180"/>
        </pattern>
        <pattern muted="0" name="" steps="16" type="1" pos="36672">
          <note len="24" key="42" pan="0" vol="197" pos="0"/>
          <note len="12" key="0" pan="0" vol="197" pos="0"/>
          <note len="24" key="40" pan="0" vol="197" pos="24"/>
          <note len="24" key="42" pan="0" vol="197" pos="48"/>
          <note len="24" key="49" pan="0" vol="197" pos="72"/>
          <note len="12" key="1" pan="0" vol="197" pos="84"/>
          <note len="12" key="42" pan="0" vol="197" pos="96"/>
          <note len="12" key="42" pan="0" vol="197" pos="108"/>
          <note len="12" key="42" pan="0" vol="197" pos="120"/>
          <note len="12" key="42" pan="0" vol="197" pos="132"/>
          <note len="12" key="42" pan="0" vol="197" pos="144"/>
          <note len="12" key="42" pan="0" vol="197" pos="156"/>
          <note len="12" key="42" pan="0" vol="197" pos="168"/>
          <note len="12" key="42" pan="0" vol="197" pos="180"/>
        </pattern>
        <pattern muted="0" name="" steps="16" type="1" pos="36864">
          <note len="24" key="44" pan="0" vol="78" pos="0"/>
          <note len="24" key="1" pan="0" vol="78" pos="0"/>
          <note len="24" key="47" pan="0" vol="78" pos="24"/>
          <note len="24" key="44" pan="0" vol="78" pos="48"/>
          <note len="24" key="0" pan="0" vol="78" pos="60"/>
          <note len="48" key="51" pan="0" vol="78" pos="72"/>
          <note len="24" key="1" pan="0" vol="78" pos="108"/>
          <note len="24" key="44" pan="0" vol="78" pos="120"/>
          <note len="24" key="47" pan="0" vol="78" pos="144"/>
          <note len="24" key="51" pan="0" vol="78" pos="168"/>
          <note len="12" key="45" pan="0" vol="78" pos="192"/>
          <note len="12" key="45" pan="0" vol="78" pos="204"/>
          <note len="12" key="45" pan="0" vol="78" pos="216"/>
          <note len="12" key="45" pan="0" vol="78" pos="228"/>
          <note len="12" key="45" pan="0" vol="78" pos="240"/>
          <note len="12" key="45" pan="0" vol="78" pos="252"/>
          <note len="12" key="49" pan="0" vol="78" pos="264"/>
          <note len="12" key="49" pan="0" vol="78" pos="276"/>
          <note len="12" key="47" pan="0" vol="78" pos="288"/>
          <note len="12" key="47" pan="0" vol="78" pos="300"/>
          <note len="12" key="47" pan="0" vol="78" pos="312"/>
          <note len="12" key="47" pan="0" vol="78" pos="324"/>
          <note len="12" key="51" pan="0" vol="78" pos="336"/>
          <note len="12" key="51" pan="0" vol="78" pos="348"/>
          <note len="12" key="47" pan="0" vol="78" pos="360"/>
          <note len="12" key="47" pan="0" vol="78" pos="372"/>
        </pattern>
        <pattern muted="0" name="" steps="16" type="1" pos="38784">
          <note len="24" key="42" pan="0" vol="197" pos="0"/>
          <note len="24" key="1" pan="0" vol="197" pos="0"/>
          <note len="24" key="40" pan="0" vol="197" pos="24"/>
          <note len="24" key="42" pan="0" vol="197" pos="48"/>
          <note len="24" key="0" pan="0" vol="197" pos="60"/>
          <note len="24" key="49" pan="0" vol="197" pos="72"/>
          <note len="24" key="1" pan="0" vol="197" pos="84"/>
          <note len="24" key="42" pan="0" vol="197" pos="96"/>
          <note len="24" key="0" pan="0" vol="197" pos="108"/>
          <note len="24" key="52" pan="0" vol="197" pos="120"/>
          <note len="24" key="47" pan="0" vol="197" pos="144"/>
          <note len="24" key="49" pan="0" vol="197" pos="168"/>
          <note len="24" key="42" pan="0" vol="197" pos="192"/>
          <note len="24" key="40" pan="0" vol="197" pos="216"/>
          <note len="24" key="42" pan="0" vol="197" pos="240"/>
          <note len="24" key="49" pan="0" vol="197" pos="264"/>
          <note len="24" key="42" pan="0" vol="197" pos="288"/>
          <note len="24" key="52" pan="0" vol="197" pos="312"/>
          <note len="24" key="54" pan="0" vol="197" pos="336"/>
          <note len="24" key="52" pan="0" vol="197" pos="360"/>
        </pattern>
        <pattern muted="0" name="" steps="16" type="1" pos="37248">
          <note len="24" key="49" pan="0" vol="197" pos="0"/>
          <note len="12" key="0" pan="0" vol="197" pos="0"/>
          <note len="24" key="47" pan="0" vol="197" pos="24"/>
          <note len="24" key="49" pan="0" vol="197" pos="48"/>
          <note len="24" key="56" pan="0" vol="197" pos="72"/>
          <note len="12" key="1" pan="0" vol="197" pos="84"/>
          <note len="12" key="49" pan="0" vol="197" pos="96"/>
          <note len="12" key="49" pan="0" vol="197" pos="108"/>
          <note len="12" key="49" pan="0" vol="197" pos="120"/>
          <note len="12" key="49" pan="0" vol="197" pos="132"/>
          <note len="12" key="49" pan="0" vol="197" pos="144"/>
          <note len="12" key="49" pan="0" vol="197" pos="156"/>
          <note len="12" key="49" pan="0" vol="197" pos="168"/>
          <note len="12" key="49" pan="0" vol="197" pos="180"/>
        </pattern>
        <pattern muted="0" name="" steps="16" type="1" pos="37440">
          <note len="24" key="42" pan="0" vol="197" pos="0"/>
          <note len="12" key="0" pan="0" vol="197" pos="0"/>
          <note len="24" key="40" pan="0" vol="197" pos="24"/>
          <note len="24" key="42" pan="0" vol="197" pos="48"/>
          <note len="24" key="49" pan="0" vol="197" pos="72"/>
          <note len="12" key="1" pan="0" vol="197" pos="84"/>
          <note len="12" key="42" pan="0" vol="197" pos="96"/>
          <note len="12" key="42" pan="0" vol="197" pos="108"/>
          <note len="12" key="42" pan="0" vol="197" pos="120"/>
          <note len="12" key="42" pan="0" vol="197" pos="132"/>
          <note len="12" key="42" pan="0" vol="197" pos="144"/>
          <note len="12" key="42" pan="0" vol="197" pos="156"/>
          <note len="12" key="42" pan="0" vol="197" pos="168"/>
          <note len="12" key="42" pan="0" vol="197" pos="180"/>
        </pattern>
        <pattern muted="0" name="" steps="16" type="1" pos="37632">
          <note len="24" key="44" pan="0" vol="78" pos="0"/>
          <note len="24" key="1" pan="0" vol="78" pos="0"/>
          <note len="24" key="47" pan="0" vol="78" pos="24"/>
          <note len="24" key="44" pan="0" vol="78" pos="48"/>
          <note len="24" key="0" pan="0" vol="78" pos="60"/>
          <note len="48" key="51" pan="0" vol="78" pos="72"/>
          <note len="24" key="1" pan="0" vol="78" pos="108"/>
          <note len="24" key="44" pan="0" vol="78" pos="120"/>
          <note len="24" key="47" pan="0" vol="78" pos="144"/>
          <note len="24" key="51" pan="0" vol="78" pos="168"/>
          <note len="12" key="45" pan="0" vol="78" pos="192"/>
          <note len="12" key="45" pan="0" vol="78" pos="204"/>
          <note len="12" key="45" pan="0" vol="78" pos="216"/>
          <note len="12" key="45" pan="0" vol="78" pos="228"/>
          <note len="12" key="45" pan="0" vol="78" pos="240"/>
          <note len="12" key="45" pan="0" vol="78" pos="252"/>
          <note len="12" key="49" pan="0" vol="78" pos="264"/>
          <note len="12" key="49" pan="0" vol="78" pos="276"/>
          <note len="12" key="47" pan="0" vol="78" pos="288"/>
          <note len="12" key="47" pan="0" vol="78" pos="300"/>
          <note len="12" key="47" pan="0" vol="78" pos="312"/>
          <note len="12" key="47" pan="0" vol="78" pos="324"/>
          <note len="12" key="51" pan="0" vol="78" pos="336"/>
          <note len="12" key="51" pan="0" vol="78" pos="348"/>
          <note len="12" key="47" pan="0" vol="78" pos="360"/>
          <note len="12" key="47" pan="0" vol="78" pos="372"/>
        </pattern>
        <pattern muted="0" name="" steps="16" type="1" pos="38016">
          <note len="12" key="38" pan="0" vol="200" pos="0"/>
          <note len="24" key="1" pan="0" vol="200" pos="0"/>
          <note len="12" key="38" pan="0" vol="200" pos="12"/>
          <note len="24" key="38" pan="0" vol="200" pos="24"/>
          <note len="12" key="38" pan="0" vol="200" pos="48"/>
          <note len="12" key="38" pan="0" vol="200" pos="60"/>
          <note len="24" key="38" pan="0" vol="200" pos="72"/>
          <note len="12" key="38" pan="0" vol="200" pos="96"/>
          <note len="12" key="38" pan="0" vol="200" pos="108"/>
          <note len="24" key="38" pan="0" vol="200" pos="120"/>
          <note len="12" key="38" pan="0" vol="200" pos="144"/>
          <note len="12" key="38" pan="0" vol="200" pos="156"/>
          <note len="24" key="38" pan="0" vol="200" pos="168"/>
          <note len="12" key="38" pan="0" vol="200" pos="192"/>
          <note len="12" key="38" pan="0" vol="200" pos="204"/>
          <note len="24" key="38" pan="0" vol="200" pos="216"/>
          <note len="12" key="38" pan="0" vol="200" pos="240"/>
          <note len="12" key="38" pan="0" vol="200" pos="252"/>
          <note len="24" key="38" pan="0" vol="200" pos="264"/>
          <note len="12" key="38" pan="0" vol="200" pos="288"/>
          <note len="12" key="38" pan="0" vol="200" pos="300"/>
          <note len="24" key="38" pan="0" vol="200" pos="312"/>
          <note len="12" key="38" pan="0" vol="200" pos="336"/>
          <note len="12" key="38" pan="0" vol="200" pos="348"/>
          <note len="24" key="38" pan="0" vol="200" pos="360"/>
          <note len="12" key="37" pan="0" vol="200" pos="384"/>
          <note len="12" key="37" pan="0" vol="200" pos="396"/>
          <note len="24" key="37" pan="0" vol="200" pos="408"/>
          <note len="12" key="37" pan="0" vol="200" pos="432"/>
          <note len="12" key="37" pan="0" vol="200" pos="444"/>
          <note len="24" key="37" pan="0" vol="200" pos="456"/>
          <note len="12" key="37" pan="0" vol="200" pos="480"/>
          <note len="12" key="37" pan="0" vol="200" pos="492"/>
          <note len="24" key="37" pan="0" vol="200" pos="504"/>
          <note len="12" key="37" pan="0" vol="200" pos="528"/>
          <note len="12" key="37" pan="0" vol="200" pos="540"/>
          <note len="24" key="37" pan="0" vol="200" pos="552"/>
          <note len="12" key="35" pan="0" vol="200" pos="576"/>
          <note len="12" key="35" pan="0" vol="200" pos="588"/>
          <note len="24" key="35" pan="0" vol="200" pos="600"/>
          <note len="12" key="35" pan="0" vol="200" pos="624"/>
          <note len="12" key="35" pan="0" vol="200" pos="636"/>
          <note len="24" key="35" pan="0" vol="200" pos="648"/>
          <note len="12" key="35" pan="0" vol="200" pos="672"/>
          <note len="12" key="35" pan="0" vol="200" pos="684"/>
          <note len="24" key="35" pan="0" vol="200" pos="696"/>
          <note len="12" key="35" pan="0" vol="200" pos="720"/>
          <note len="12" key="35" pan="0" vol="200" pos="732"/>
          <note len="24" key="35" pan="0" vol="200" pos="744"/>
        </pattern>
        <pattern muted="0" name="" steps="16" type="1" pos="39168">
          <note len="24" key="46" pan="0" vol="78" pos="0"/>
          <note len="24" key="39" pan="0" vol="78" pos="0"/>
          <note len="12" key="0" pan="0" vol="78" pos="0"/>
          <note len="12" key="1" pan="0" vol="78" pos="12"/>
          <note len="12" key="39" pan="0" vol="78" pos="24"/>
          <note len="12" key="39" pan="0" vol="78" pos="36"/>
          <note len="12" key="39" pan="0" vol="78" pos="48"/>
          <note len="12" key="39" pan="0" vol="78" pos="60"/>
          <note len="12" key="39" pan="0" vol="78" pos="72"/>
          <note len="12" key="39" pan="0" vol="78" pos="84"/>
          <note len="12" key="39" pan="0" vol="78" pos="96"/>
          <note len="12" key="39" pan="0" vol="78" pos="108"/>
          <note len="12" key="39" pan="0" vol="78" pos="120"/>
          <note len="12" key="39" pan="0" vol="78" pos="132"/>
          <note len="12" key="39" pan="0" vol="78" pos="144"/>
          <note len="12" key="39" pan="0" vol="78" pos="156"/>
          <note len="12" key="39" pan="0" vol="78" pos="168"/>
          <note len="12" key="39" pan="0" vol="78" pos="180"/>
          <note len="96" key="52" pan="0" vol="78" pos="192"/>
          <note len="96" key="45" pan="0" vol="78" pos="192"/>
          <note len="12" key="0" pan="0" vol="78" pos="192"/>
          <note len="96" key="51" pan="0" vol="78" pos="288"/>
          <note len="96" key="44" pan="0" vol="78" pos="288"/>
        </pattern>
        <pattern muted="0" name="" steps="16" type="1" pos="39552">
          <note len="48" key="44" pan="0" vol="195" pos="0"/>
          <note len="48" key="37" pan="0" vol="195" pos="0"/>
          <note len="36" key="0" pan="0" vol="195" pos="0"/>
          <note len="36" key="1" pan="0" vol="195" pos="36"/>
          <note len="12" key="37" pan="0" vol="195" pos="48"/>
          <note len="12" key="37" pan="0" vol="195" pos="60"/>
          <note len="12" key="37" pan="0" vol="195" pos="72"/>
          <note len="12" key="37" pan="0" vol="195" pos="84"/>
          <note len="12" key="37" pan="0" vol="195" pos="96"/>
          <note len="12" key="37" pan="0" vol="195" pos="108"/>
          <note len="12" key="37" pan="0" vol="195" pos="120"/>
          <note len="12" key="37" pan="0" vol="195" pos="132"/>
          <note len="12" key="37" pan="0" vol="195" pos="144"/>
          <note len="12" key="37" pan="0" vol="195" pos="156"/>
          <note len="12" key="37" pan="0" vol="195" pos="168"/>
          <note len="12" key="37" pan="0" vol="195" pos="180"/>
          <note len="36" key="0" pan="0" vol="195" pos="180"/>
          <note len="48" key="51" pan="0" vol="195" pos="192"/>
          <note len="48" key="44" pan="0" vol="195" pos="192"/>
          <note len="36" key="1" pan="0" vol="195" pos="216"/>
          <note len="12" key="44" pan="0" vol="195" pos="240"/>
          <note len="12" key="44" pan="0" vol="195" pos="252"/>
          <note len="12" key="44" pan="0" vol="195" pos="264"/>
          <note len="12" key="44" pan="0" vol="195" pos="276"/>
          <note len="12" key="44" pan="0" vol="195" pos="288"/>
          <note len="12" key="44" pan="0" vol="195" pos="300"/>
          <note len="12" key="44" pan="0" vol="195" pos="312"/>
          <note len="12" key="44" pan="0" vol="195" pos="324"/>
          <note len="12" key="44" pan="0" vol="195" pos="336"/>
          <note len="12" key="44" pan="0" vol="195" pos="348"/>
          <note len="12" key="44" pan="0" vol="195" pos="360"/>
          <note len="12" key="44" pan="0" vol="195" pos="372"/>
          <note len="36" key="0" pan="0" vol="195" pos="372"/>
          <note len="48" key="52" pan="0" vol="195" pos="384"/>
          <note len="48" key="45" pan="0" vol="195" pos="384"/>
          <note len="36" key="1" pan="0" vol="195" pos="408"/>
          <note len="12" key="45" pan="0" vol="195" pos="432"/>
          <note len="12" key="45" pan="0" vol="195" pos="444"/>
          <note len="12" key="45" pan="0" vol="195" pos="456"/>
          <note len="12" key="45" pan="0" vol="195" pos="468"/>
          <note len="12" key="45" pan="0" vol="195" pos="480"/>
          <note len="12" key="45" pan="0" vol="195" pos="492"/>
          <note len="12" key="45" pan="0" vol="195" pos="504"/>
          <note len="12" key="45" pan="0" vol="195" pos="516"/>
          <note len="12" key="45" pan="0" vol="195" pos="528"/>
          <note len="12" key="45" pan="0" vol="195" pos="540"/>
          <note len="12" key="45" pan="0" vol="195" pos="552"/>
          <note len="12" key="45" pan="0" vol="195" pos="564"/>
          <note len="36" key="0" pan="0" vol="195" pos="564"/>
          <note len="48" key="54" pan="0" vol="195" pos="576"/>
          <note len="48" key="47" pan="0" vol="195" pos="576"/>
          <note len="36" key="1" pan="0" vol="195" pos="600"/>
          <note len="12" key="47" pan="0" vol="195" pos="624"/>
          <note len="12" key="47" pan="0" vol="195" pos="636"/>
          <note len="12" key="47" pan="0" vol="195" pos="648"/>
          <note len="12" key="47" pan="0" vol="195" pos="660"/>
          <note len="12" key="47" pan="0" vol="195" pos="672"/>
          <note len="12" key="47" pan="0" vol="195" pos="684"/>
          <note len="12" key="47" pan="0" vol="195" pos="696"/>
          <note len="12" key="47" pan="0" vol="195" pos="708"/>
          <note len="12" key="47" pan="0" vol="195" pos="720"/>
          <note len="12" key="47" pan="0" vol="195" pos="732"/>
          <note len="12" key="47" pan="0" vol="195" pos="744"/>
          <note len="12" key="47" pan="0" vol="195" pos="756"/>
          <note len="48" key="49" pan="0" vol="195" pos="768"/>
          <note len="48" key="42" pan="0" vol="195" pos="768"/>
          <note len="36" key="0" pan="0" vol="195" pos="768"/>
          <note len="36" key="1" pan="0" vol="195" pos="792"/>
          <note len="12" key="42" pan="0" vol="195" pos="816"/>
          <note len="12" key="42" pan="0" vol="195" pos="828"/>
          <note len="12" key="42" pan="0" vol="195" pos="840"/>
          <note len="12" key="42" pan="0" vol="195" pos="852"/>
          <note len="12" key="42" pan="0" vol="195" pos="864"/>
          <note len="12" key="42" pan="0" vol="195" pos="876"/>
          <note len="12" key="42" pan="0" vol="195" pos="888"/>
          <note len="12" key="42" pan="0" vol="195" pos="900"/>
          <note len="12" key="42" pan="0" vol="195" pos="912"/>
          <note len="12" key="42" pan="0" vol="195" pos="924"/>
          <note len="12" key="42" pan="0" vol="195" pos="936"/>
          <note len="12" key="42" pan="0" vol="195" pos="948"/>
          <note len="36" key="0" pan="0" vol="195" pos="948"/>
          <note len="48" key="51" pan="0" vol="195" pos="960"/>
          <note len="48" key="44" pan="0" vol="195" pos="960"/>
          <note len="36" key="1" pan="0" vol="195" pos="984"/>
          <note len="12" key="44" pan="0" vol="195" pos="1008"/>
          <note len="12" key="44" pan="0" vol="195" pos="1020"/>
          <note len="12" key="44" pan="0" vol="195" pos="1032"/>
          <note len="12" key="44" pan="0" vol="195" pos="1044"/>
          <note len="12" key="44" pan="0" vol="195" pos="1056"/>
          <note len="12" key="44" pan="0" vol="195" pos="1068"/>
          <note len="12" key="44" pan="0" vol="195" pos="1080"/>
          <note len="12" key="44" pan="0" vol="195" pos="1092"/>
          <note len="12" key="44" pan="0" vol="195" pos="1104"/>
          <note len="12" key="44" pan="0" vol="195" pos="1116"/>
          <note len="12" key="44" pan="0" vol="195" pos="1128"/>
          <note len="12" key="44" pan="0" vol="195" pos="1140"/>
          <note len="36" key="0" pan="0" vol="195" pos="1140"/>
          <note len="48" key="52" pan="0" vol="195" pos="1152"/>
          <note len="48" key="45" pan="0" vol="195" pos="1152"/>
          <note len="36" key="1" pan="0" vol="195" pos="1176"/>
          <note len="12" key="45" pan="0" vol="195" pos="1200"/>
          <note len="12" key="45" pan="0" vol="195" pos="1212"/>
          <note len="12" key="45" pan="0" vol="195" pos="1224"/>
          <note len="12" key="45" pan="0" vol="195" pos="1236"/>
          <note len="12" key="45" pan="0" vol="195" pos="1248"/>
          <note len="12" key="45" pan="0" vol="195" pos="1260"/>
          <note len="12" key="45" pan="0" vol="195" pos="1272"/>
          <note len="12" key="45" pan="0" vol="195" pos="1284"/>
          <note len="12" key="45" pan="0" vol="195" pos="1296"/>
          <note len="12" key="45" pan="0" vol="195" pos="1308"/>
          <note len="12" key="45" pan="0" vol="195" pos="1320"/>
          <note len="12" key="45" pan="0" vol="195" pos="1332"/>
          <note len="36" key="0" pan="0" vol="195" pos="1332"/>
          <note len="48" key="54" pan="0" vol="195" pos="1344"/>
          <note len="48" key="47" pan="0" vol="195" pos="1344"/>
          <note len="36" key="1" pan="0" vol="195" pos="1368"/>
          <note len="12" key="47" pan="0" vol="195" pos="1392"/>
          <note len="12" key="47" pan="0" vol="195" pos="1404"/>
          <note len="12" key="47" pan="0" vol="195" pos="1416"/>
          <note len="12" key="47" pan="0" vol="195" pos="1428"/>
          <note len="12" key="48" pan="0" vol="195" pos="1440"/>
          <note len="12" key="48" pan="0" vol="195" pos="1452"/>
          <note len="12" key="48" pan="0" vol="195" pos="1464"/>
          <note len="36" key="1" pan="0" vol="195" pos="1464"/>
          <note len="12" key="48" pan="0" vol="195" pos="1476"/>
          <note len="12" key="48" pan="0" vol="195" pos="1488"/>
          <note len="12" key="48" pan="0" vol="195" pos="1500"/>
          <note len="12" key="48" pan="0" vol="195" pos="1512"/>
          <note len="12" key="48" pan="0" vol="195" pos="1524"/>
          <note len="36" key="0" pan="0" vol="195" pos="1524"/>
          <note len="48" key="44" pan="0" vol="195" pos="1536"/>
          <note len="48" key="37" pan="0" vol="195" pos="1536"/>
          <note len="36" key="1" pan="0" vol="195" pos="1560"/>
          <note len="12" key="37" pan="0" vol="195" pos="1584"/>
          <note len="12" key="37" pan="0" vol="195" pos="1596"/>
          <note len="12" key="37" pan="0" vol="195" pos="1608"/>
          <note len="12" key="37" pan="0" vol="195" pos="1620"/>
          <note len="12" key="37" pan="0" vol="195" pos="1632"/>
          <note len="12" key="37" pan="0" vol="195" pos="1644"/>
          <note len="12" key="37" pan="0" vol="195" pos="1656"/>
          <note len="12" key="37" pan="0" vol="195" pos="1668"/>
          <note len="12" key="37" pan="0" vol="195" pos="1680"/>
          <note len="12" key="37" pan="0" vol="195" pos="1692"/>
          <note len="12" key="37" pan="0" vol="195" pos="1704"/>
          <note len="12" key="37" pan="0" vol="195" pos="1716"/>
          <note len="36" key="0" pan="0" vol="195" pos="1716"/>
          <note len="48" key="54" pan="0" vol="195" pos="1728"/>
          <note len="48" key="47" pan="0" vol="195" pos="1728"/>
          <note len="36" key="1" pan="0" vol="195" pos="1752"/>
          <note len="12" key="47" pan="0" vol="195" pos="1776"/>
          <note len="12" key="47" pan="0" vol="195" pos="1788"/>
          <note len="12" key="47" pan="0" vol="195" pos="1800"/>
          <note len="12" key="47" pan="0" vol="195" pos="1812"/>
          <note len="12" key="47" pan="0" vol="195" pos="1824"/>
          <note len="12" key="47" pan="0" vol="195" pos="1836"/>
          <note len="12" key="47" pan="0" vol="195" pos="1848"/>
          <note len="12" key="47" pan="0" vol="195" pos="1860"/>
          <note len="12" key="47" pan="0" vol="195" pos="1872"/>
          <note len="12" key="47" pan="0" vol="195" pos="1884"/>
          <note len="12" key="47" pan="0" vol="195" pos="1896"/>
          <note len="12" key="47" pan="0" vol="195" pos="1908"/>
          <note len="36" key="0" pan="0" vol="195" pos="1908"/>
          <note len="48" key="54" pan="0" vol="195" pos="1920"/>
          <note len="48" key="46" pan="0" vol="195" pos="1920"/>
          <note len="36" key="1" pan="0" vol="195" pos="1944"/>
          <note len="12" key="46" pan="0" vol="195" pos="1968"/>
          <note len="12" key="46" pan="0" vol="195" pos="1980"/>
          <note len="12" key="46" pan="0" vol="195" pos="1992"/>
          <note len="12" key="46" pan="0" vol="195" pos="2004"/>
          <note len="12" key="46" pan="0" vol="195" pos="2016"/>
          <note len="12" key="46" pan="0" vol="195" pos="2028"/>
          <note len="12" key="46" pan="0" vol="195" pos="2040"/>
          <note len="12" key="46" pan="0" vol="195" pos="2052"/>
          <note len="12" key="46" pan="0" vol="195" pos="2064"/>
          <note len="12" key="46" pan="0" vol="195" pos="2076"/>
          <note len="12" key="46" pan="0" vol="195" pos="2088"/>
          <note len="12" key="46" pan="0" vol="195" pos="2100"/>
          <note len="36" key="0" pan="0" vol="195" pos="2100"/>
          <note len="48" key="49" pan="0" vol="195" pos="2112"/>
          <note len="48" key="42" pan="0" vol="195" pos="2112"/>
          <note len="36" key="1" pan="0" vol="195" pos="2136"/>
          <note len="12" key="42" pan="0" vol="195" pos="2160"/>
          <note len="12" key="42" pan="0" vol="195" pos="2172"/>
          <note len="12" key="42" pan="0" vol="195" pos="2184"/>
          <note len="12" key="42" pan="0" vol="195" pos="2196"/>
          <note len="36" key="0" pan="0" vol="195" pos="2196"/>
          <note len="48" key="47" pan="0" vol="195" pos="2208"/>
          <note len="48" key="40" pan="0" vol="195" pos="2208"/>
          <note len="36" key="1" pan="0" vol="195" pos="2232"/>
          <note len="12" key="40" pan="0" vol="195" pos="2256"/>
          <note len="12" key="40" pan="0" vol="195" pos="2268"/>
          <note len="12" key="40" pan="0" vol="195" pos="2280"/>
          <note len="12" key="40" pan="0" vol="195" pos="2292"/>
          <note len="36" key="0" pan="0" vol="195" pos="2292"/>
          <note len="48" key="45" pan="0" vol="195" pos="2304"/>
          <note len="48" key="38" pan="0" vol="195" pos="2304"/>
          <note len="36" key="1" pan="0" vol="195" pos="2328"/>
          <note len="12" key="38" pan="0" vol="195" pos="2352"/>
          <note len="12" key="38" pan="0" vol="195" pos="2364"/>
          <note len="12" key="38" pan="0" vol="195" pos="2376"/>
          <note len="12" key="38" pan="0" vol="195" pos="2388"/>
          <note len="12" key="38" pan="0" vol="195" pos="2400"/>
          <note len="12" key="38" pan="0" vol="195" pos="2412"/>
          <note len="12" key="38" pan="0" vol="195" pos="2424"/>
          <note len="12" key="38" pan="0" vol="195" pos="2436"/>
          <note len="12" key="38" pan="0" vol="195" pos="2448"/>
          <note len="12" key="38" pan="0" vol="195" pos="2460"/>
          <note len="12" key="38" pan="0" vol="195" pos="2472"/>
          <note len="12" key="38" pan="0" vol="195" pos="2484"/>
          <note len="36" key="0" pan="0" vol="195" pos="2484"/>
          <note len="48" key="52" pan="0" vol="195" pos="2496"/>
          <note len="48" key="45" pan="0" vol="195" pos="2496"/>
          <note len="36" key="1" pan="0" vol="195" pos="2520"/>
          <note len="12" key="45" pan="0" vol="195" pos="2544"/>
          <note len="12" key="45" pan="0" vol="195" pos="2556"/>
          <note len="12" key="45" pan="0" vol="195" pos="2568"/>
          <note len="12" key="45" pan="0" vol="195" pos="2580"/>
          <note len="12" key="45" pan="0" vol="195" pos="2592"/>
          <note len="12" key="45" pan="0" vol="195" pos="2604"/>
          <note len="12" key="45" pan="0" vol="195" pos="2616"/>
          <note len="12" key="45" pan="0" vol="195" pos="2628"/>
          <note len="12" key="45" pan="0" vol="195" pos="2640"/>
          <note len="12" key="45" pan="0" vol="195" pos="2652"/>
          <note len="12" key="45" pan="0" vol="195" pos="2664"/>
          <note len="12" key="45" pan="0" vol="195" pos="2676"/>
          <note len="384" key="42" pan="0" vol="100" pos="2688"/>
          <note len="384" key="35" pan="0" vol="195" pos="2688"/>
          <note len="36" key="0" pan="0" vol="195" pos="2688"/>
        </pattern>
        <pattern muted="0" name="" steps="16" type="1" pos="43776">
          <note len="96" key="0" pan="0" vol="78" pos="0"/>
          <note len="96" key="40" pan="0" vol="78" pos="96"/>
          <note len="96" key="33" pan="0" vol="78" pos="96"/>
          <note len="96" key="42" pan="0" vol="78" pos="192"/>
          <note len="96" key="35" pan="0" vol="78" pos="192"/>
          <note len="96" key="44" pan="0" vol="78" pos="288"/>
          <note len="96" key="37" pan="0" vol="78" pos="288"/>
        </pattern>
        <pattern muted="0" name="" steps="16" type="1" pos="44160">
          <note len="48" key="46" pan="0" vol="195" pos="0"/>
          <note len="48" key="39" pan="0" vol="195" pos="0"/>
          <note len="36" key="0" pan="0" vol="195" pos="0"/>
          <note len="36" key="1" pan="0" vol="195" pos="36"/>
          <note len="12" key="39" pan="0" vol="195" pos="48"/>
          <note len="12" key="39" pan="0" vol="195" pos="60"/>
          <note len="12" key="39" pan="0" vol="195" pos="72"/>
          <note len="12" key="39" pan="0" vol="195" pos="84"/>
          <note len="12" key="39" pan="0" vol="195" pos="96"/>
          <note len="12" key="39" pan="0" vol="195" pos="108"/>
          <note len="12" key="39" pan="0" vol="195" pos="120"/>
          <note len="12" key="39" pan="0" vol="195" pos="132"/>
          <note len="12" key="39" pan="0" vol="195" pos="144"/>
          <note len="12" key="39" pan="0" vol="195" pos="156"/>
          <note len="12" key="39" pan="0" vol="195" pos="168"/>
          <note len="12" key="39" pan="0" vol="195" pos="180"/>
          <note len="36" key="0" pan="0" vol="195" pos="180"/>
          <note len="48" key="53" pan="0" vol="195" pos="192"/>
          <note len="48" key="46" pan="0" vol="195" pos="192"/>
          <note len="36" key="1" pan="0" vol="195" pos="216"/>
          <note len="12" key="46" pan="0" vol="195" pos="240"/>
          <note len="12" key="46" pan="0" vol="195" pos="252"/>
          <note len="12" key="46" pan="0" vol="195" pos="264"/>
          <note len="12" key="46" pan="0" vol="195" pos="276"/>
          <note len="12" key="46" pan="0" vol="195" pos="288"/>
          <note len="12" key="46" pan="0" vol="195" pos="300"/>
          <note len="12" key="46" pan="0" vol="195" pos="312"/>
          <note len="12" key="46" pan="0" vol="195" pos="324"/>
          <note len="12" key="46" pan="0" vol="195" pos="336"/>
          <note len="12" key="46" pan="0" vol="195" pos="348"/>
          <note len="12" key="46" pan="0" vol="195" pos="360"/>
          <note len="12" key="46" pan="0" vol="195" pos="372"/>
          <note len="36" key="0" pan="0" vol="195" pos="372"/>
          <note len="48" key="54" pan="0" vol="195" pos="384"/>
          <note len="48" key="47" pan="0" vol="195" pos="384"/>
          <note len="36" key="1" pan="0" vol="195" pos="408"/>
          <note len="12" key="47" pan="0" vol="195" pos="432"/>
          <note len="12" key="47" pan="0" vol="195" pos="444"/>
          <note len="12" key="47" pan="0" vol="195" pos="456"/>
          <note len="12" key="47" pan="0" vol="195" pos="468"/>
          <note len="12" key="47" pan="0" vol="195" pos="480"/>
          <note len="12" key="47" pan="0" vol="195" pos="492"/>
          <note len="12" key="47" pan="0" vol="195" pos="504"/>
          <note len="12" key="47" pan="0" vol="195" pos="516"/>
          <note len="12" key="47" pan="0" vol="195" pos="528"/>
          <note len="12" key="47" pan="0" vol="195" pos="540"/>
          <note len="12" key="47" pan="0" vol="195" pos="552"/>
          <note len="12" key="47" pan="0" vol="195" pos="564"/>
          <note len="36" key="0" pan="0" vol="195" pos="564"/>
          <note len="48" key="56" pan="0" vol="195" pos="576"/>
          <note len="48" key="49" pan="0" vol="195" pos="576"/>
          <note len="36" key="1" pan="0" vol="195" pos="600"/>
          <note len="12" key="49" pan="0" vol="195" pos="624"/>
          <note len="12" key="49" pan="0" vol="195" pos="636"/>
          <note len="12" key="49" pan="0" vol="195" pos="648"/>
          <note len="12" key="49" pan="0" vol="195" pos="660"/>
          <note len="12" key="49" pan="0" vol="195" pos="672"/>
          <note len="12" key="49" pan="0" vol="195" pos="684"/>
          <note len="12" key="49" pan="0" vol="195" pos="696"/>
          <note len="12" key="49" pan="0" vol="195" pos="708"/>
          <note len="12" key="49" pan="0" vol="195" pos="720"/>
          <note len="12" key="49" pan="0" vol="195" pos="732"/>
          <note len="12" key="49" pan="0" vol="195" pos="744"/>
          <note len="12" key="49" pan="0" vol="195" pos="756"/>
          <note len="48" key="51" pan="0" vol="195" pos="768"/>
          <note len="48" key="44" pan="0" vol="195" pos="768"/>
          <note len="36" key="0" pan="0" vol="195" pos="768"/>
          <note len="36" key="1" pan="0" vol="195" pos="792"/>
          <note len="12" key="44" pan="0" vol="195" pos="816"/>
          <note len="12" key="44" pan="0" vol="195" pos="828"/>
          <note len="12" key="44" pan="0" vol="195" pos="840"/>
          <note len="12" key="44" pan="0" vol="195" pos="852"/>
          <note len="12" key="44" pan="0" vol="195" pos="864"/>
          <note len="12" key="44" pan="0" vol="195" pos="876"/>
          <note len="12" key="44" pan="0" vol="195" pos="888"/>
          <note len="12" key="44" pan="0" vol="195" pos="900"/>
          <note len="12" key="44" pan="0" vol="195" pos="912"/>
          <note len="12" key="44" pan="0" vol="195" pos="924"/>
          <note len="12" key="44" pan="0" vol="195" pos="936"/>
          <note len="12" key="44" pan="0" vol="195" pos="948"/>
          <note len="36" key="0" pan="0" vol="195" pos="948"/>
          <note len="48" key="53" pan="0" vol="195" pos="960"/>
          <note len="48" key="46" pan="0" vol="195" pos="960"/>
          <note len="36" key="1" pan="0" vol="195" pos="984"/>
          <note len="12" key="46" pan="0" vol="195" pos="1008"/>
          <note len="12" key="46" pan="0" vol="195" pos="1020"/>
          <note len="12" key="46" pan="0" vol="195" pos="1032"/>
          <note len="12" key="46" pan="0" vol="195" pos="1044"/>
          <note len="12" key="46" pan="0" vol="195" pos="1056"/>
          <note len="12" key="46" pan="0" vol="195" pos="1068"/>
          <note len="12" key="46" pan="0" vol="195" pos="1080"/>
          <note len="12" key="46" pan="0" vol="195" pos="1092"/>
          <note len="12" key="46" pan="0" vol="195" pos="1104"/>
          <note len="12" key="46" pan="0" vol="195" pos="1116"/>
          <note len="12" key="46" pan="0" vol="195" pos="1128"/>
          <note len="12" key="46" pan="0" vol="195" pos="1140"/>
          <note len="36" key="0" pan="0" vol="195" pos="1140"/>
          <note len="48" key="54" pan="0" vol="195" pos="1152"/>
          <note len="48" key="47" pan="0" vol="195" pos="1152"/>
          <note len="36" key="1" pan="0" vol="195" pos="1176"/>
          <note len="12" key="47" pan="0" vol="195" pos="1200"/>
          <note len="12" key="47" pan="0" vol="195" pos="1212"/>
          <note len="12" key="47" pan="0" vol="195" pos="1224"/>
          <note len="12" key="47" pan="0" vol="195" pos="1236"/>
          <note len="12" key="47" pan="0" vol="195" pos="1248"/>
          <note len="12" key="47" pan="0" vol="195" pos="1260"/>
          <note len="12" key="47" pan="0" vol="195" pos="1272"/>
          <note len="12" key="47" pan="0" vol="195" pos="1284"/>
          <note len="12" key="47" pan="0" vol="195" pos="1296"/>
          <note len="12" key="47" pan="0" vol="195" pos="1308"/>
          <note len="12" key="47" pan="0" vol="195" pos="1320"/>
          <note len="12" key="47" pan="0" vol="195" pos="1332"/>
          <note len="12" key="56" pan="0" vol="197" pos="1344"/>
          <note len="12" key="56" pan="0" vol="197" pos="1356"/>
          <note len="12" key="58" pan="0" vol="197" pos="1368"/>
          <note len="12" key="58" pan="0" vol="197" pos="1380"/>
          <note len="12" key="56" pan="0" vol="197" pos="1392"/>
          <note len="12" key="56" pan="0" vol="197" pos="1404"/>
          <note len="12" key="54" pan="0" vol="197" pos="1416"/>
          <note len="12" key="54" pan="0" vol="197" pos="1428"/>
          <note len="12" key="53" pan="0" vol="197" pos="1440"/>
          <note len="12" key="53" pan="0" vol="197" pos="1452"/>
          <note len="12" key="51" pan="0" vol="197" pos="1464"/>
          <note len="12" key="51" pan="0" vol="197" pos="1476"/>
          <note len="12" key="50" pan="0" vol="197" pos="1488"/>
          <note len="12" key="50" pan="0" vol="197" pos="1500"/>
          <note len="12" key="46" pan="0" vol="197" pos="1512"/>
          <note len="12" key="46" pan="0" vol="197" pos="1524"/>
          <note len="36" key="0" pan="0" vol="195" pos="1524"/>
          <note len="48" key="46" pan="0" vol="195" pos="1536"/>
          <note len="48" key="39" pan="0" vol="195" pos="1536"/>
          <note len="36" key="1" pan="0" vol="195" pos="1560"/>
          <note len="12" key="39" pan="0" vol="195" pos="1584"/>
          <note len="12" key="39" pan="0" vol="195" pos="1596"/>
          <note len="12" key="39" pan="0" vol="195" pos="1608"/>
          <note len="12" key="39" pan="0" vol="195" pos="1620"/>
          <note len="12" key="39" pan="0" vol="195" pos="1632"/>
          <note len="12" key="39" pan="0" vol="195" pos="1644"/>
          <note len="12" key="39" pan="0" vol="195" pos="1656"/>
          <note len="12" key="39" pan="0" vol="195" pos="1668"/>
          <note len="12" key="39" pan="0" vol="195" pos="1680"/>
          <note len="12" key="39" pan="0" vol="195" pos="1692"/>
          <note len="12" key="39" pan="0" vol="195" pos="1704"/>
          <note len="12" key="39" pan="0" vol="195" pos="1716"/>
          <note len="36" key="0" pan="0" vol="195" pos="1716"/>
          <note len="48" key="56" pan="0" vol="195" pos="1728"/>
          <note len="48" key="49" pan="0" vol="195" pos="1728"/>
          <note len="36" key="1" pan="0" vol="195" pos="1752"/>
          <note len="12" key="49" pan="0" vol="195" pos="1776"/>
          <note len="12" key="49" pan="0" vol="195" pos="1788"/>
          <note len="12" key="49" pan="0" vol="195" pos="1800"/>
          <note len="12" key="49" pan="0" vol="195" pos="1812"/>
          <note len="12" key="49" pan="0" vol="195" pos="1824"/>
          <note len="12" key="49" pan="0" vol="195" pos="1836"/>
          <note len="12" key="49" pan="0" vol="195" pos="1848"/>
          <note len="12" key="49" pan="0" vol="195" pos="1860"/>
          <note len="12" key="49" pan="0" vol="195" pos="1872"/>
          <note len="12" key="49" pan="0" vol="195" pos="1884"/>
          <note len="12" key="49" pan="0" vol="195" pos="1896"/>
          <note len="12" key="49" pan="0" vol="195" pos="1908"/>
          <note len="36" key="0" pan="0" vol="195" pos="1908"/>
          <note len="48" key="56" pan="0" vol="195" pos="1920"/>
          <note len="48" key="48" pan="0" vol="195" pos="1920"/>
          <note len="36" key="1" pan="0" vol="195" pos="1944"/>
          <note len="12" key="48" pan="0" vol="195" pos="1968"/>
          <note len="12" key="48" pan="0" vol="195" pos="1980"/>
          <note len="12" key="48" pan="0" vol="195" pos="1992"/>
          <note len="12" key="48" pan="0" vol="195" pos="2004"/>
          <note len="12" key="48" pan="0" vol="195" pos="2016"/>
          <note len="12" key="48" pan="0" vol="195" pos="2028"/>
          <note len="12" key="48" pan="0" vol="195" pos="2040"/>
          <note len="12" key="48" pan="0" vol="195" pos="2052"/>
          <note len="12" key="48" pan="0" vol="195" pos="2064"/>
          <note len="12" key="48" pan="0" vol="195" pos="2076"/>
          <note len="12" key="48" pan="0" vol="195" pos="2088"/>
          <note len="12" key="48" pan="0" vol="195" pos="2100"/>
          <note len="36" key="0" pan="0" vol="195" pos="2100"/>
          <note len="48" key="51" pan="0" vol="195" pos="2112"/>
          <note len="48" key="44" pan="0" vol="195" pos="2112"/>
          <note len="36" key="1" pan="0" vol="195" pos="2136"/>
          <note len="12" key="44" pan="0" vol="195" pos="2160"/>
          <note len="12" key="44" pan="0" vol="195" pos="2172"/>
          <note len="12" key="44" pan="0" vol="195" pos="2184"/>
          <note len="12" key="44" pan="0" vol="195" pos="2196"/>
          <note len="36" key="0" pan="0" vol="195" pos="2196"/>
          <note len="48" key="49" pan="0" vol="195" pos="2208"/>
          <note len="48" key="42" pan="0" vol="195" pos="2208"/>
          <note len="36" key="1" pan="0" vol="195" pos="2232"/>
          <note len="12" key="42" pan="0" vol="195" pos="2256"/>
          <note len="12" key="42" pan="0" vol="195" pos="2268"/>
          <note len="12" key="42" pan="0" vol="195" pos="2280"/>
          <note len="12" key="42" pan="0" vol="195" pos="2292"/>
          <note len="36" key="0" pan="0" vol="195" pos="2292"/>
          <note len="48" key="47" pan="0" vol="195" pos="2304"/>
          <note len="48" key="40" pan="0" vol="195" pos="2304"/>
          <note len="36" key="1" pan="0" vol="195" pos="2328"/>
          <note len="12" key="40" pan="0" vol="195" pos="2352"/>
          <note len="12" key="40" pan="0" vol="195" pos="2364"/>
          <note len="12" key="40" pan="0" vol="195" pos="2376"/>
          <note len="12" key="40" pan="0" vol="195" pos="2388"/>
          <note len="12" key="40" pan="0" vol="195" pos="2400"/>
          <note len="12" key="40" pan="0" vol="195" pos="2412"/>
          <note len="12" key="40" pan="0" vol="195" pos="2424"/>
          <note len="12" key="40" pan="0" vol="195" pos="2436"/>
          <note len="12" key="40" pan="0" vol="195" pos="2448"/>
          <note len="12" key="40" pan="0" vol="195" pos="2460"/>
          <note len="12" key="40" pan="0" vol="195" pos="2472"/>
          <note len="12" key="40" pan="0" vol="195" pos="2484"/>
          <note len="36" key="0" pan="0" vol="195" pos="2484"/>
          <note len="48" key="54" pan="0" vol="195" pos="2496"/>
          <note len="48" key="47" pan="0" vol="195" pos="2496"/>
          <note len="36" key="1" pan="0" vol="195" pos="2520"/>
          <note len="12" key="47" pan="0" vol="195" pos="2544"/>
          <note len="12" key="47" pan="0" vol="195" pos="2556"/>
          <note len="12" key="47" pan="0" vol="195" pos="2568"/>
          <note len="12" key="47" pan="0" vol="195" pos="2580"/>
          <note len="12" key="47" pan="0" vol="195" pos="2592"/>
          <note len="12" key="47" pan="0" vol="195" pos="2604"/>
          <note len="12" key="47" pan="0" vol="195" pos="2616"/>
          <note len="12" key="47" pan="0" vol="195" pos="2628"/>
          <note len="12" key="47" pan="0" vol="195" pos="2640"/>
          <note len="12" key="47" pan="0" vol="195" pos="2652"/>
          <note len="12" key="47" pan="0" vol="195" pos="2664"/>
          <note len="12" key="47" pan="0" vol="195" pos="2676"/>
          <note len="36" key="0" pan="0" vol="195" pos="2676"/>
          <note len="48" key="56" pan="0" vol="195" pos="2688"/>
          <note len="48" key="49" pan="0" vol="195" pos="2688"/>
          <note len="36" key="1" pan="0" vol="195" pos="2712"/>
          <note len="12" key="49" pan="0" vol="195" pos="2736"/>
          <note len="12" key="49" pan="0" vol="195" pos="2748"/>
          <note len="12" key="49" pan="0" vol="195" pos="2760"/>
          <note len="12" key="49" pan="0" vol="195" pos="2772"/>
          <note len="12" key="49" pan="0" vol="195" pos="2784"/>
          <note len="12" key="49" pan="0" vol="195" pos="2796"/>
          <note len="12" key="49" pan="0" vol="195" pos="2808"/>
          <note len="12" key="49" pan="0" vol="195" pos="2820"/>
          <note len="12" key="49" pan="0" vol="195" pos="2832"/>
          <note len="12" key="49" pan="0" vol="195" pos="2844"/>
          <note len="12" key="49" pan="0" vol="195" pos="2856"/>
          <note len="12" key="49" pan="0" vol="195" pos="2868"/>
          <note len="12" key="49" pan="0" vol="195" pos="2880"/>
          <note len="12" key="47" pan="0" vol="195" pos="2892"/>
          <note len="12" key="46" pan="0" vol="195" pos="2904"/>
          <note len="12" key="44" pan="0" vol="195" pos="2916"/>
          <note len="12" key="47" pan="0" vol="195" pos="2928"/>
          <note len="12" key="46" pan="0" vol="195" pos="2940"/>
          <note len="12" key="44" pan="0" vol="195" pos="2952"/>
          <note len="12" key="42" pan="0" vol="195" pos="2964"/>
          <note len="12" key="46" pan="0" vol="195" pos="2976"/>
          <note len="12" key="44" pan="0" vol="195" pos="2988"/>
          <note len="12" key="42" pan="0" vol="195" pos="3000"/>
          <note len="12" key="41" pan="0" vol="195" pos="3012"/>
          <note len="12" key="44" pan="0" vol="195" pos="3024"/>
          <note len="12" key="42" pan="0" vol="195" pos="3036"/>
          <note len="12" key="41" pan="0" vol="195" pos="3048"/>
          <note len="12" key="42" pan="0" vol="195" pos="3060"/>
        </pattern>
        <pattern muted="0" name="" steps="16" type="1" pos="47232">
          <note len="48" key="46" pan="0" vol="195" pos="0"/>
          <note len="48" key="39" pan="0" vol="195" pos="0"/>
          <note len="36" key="0" pan="0" vol="195" pos="0"/>
          <note len="36" key="1" pan="0" vol="195" pos="36"/>
          <note len="12" key="39" pan="0" vol="195" pos="48"/>
          <note len="12" key="39" pan="0" vol="195" pos="60"/>
          <note len="12" key="39" pan="0" vol="195" pos="72"/>
          <note len="12" key="39" pan="0" vol="195" pos="84"/>
          <note len="12" key="39" pan="0" vol="195" pos="96"/>
          <note len="12" key="39" pan="0" vol="195" pos="108"/>
          <note len="12" key="39" pan="0" vol="195" pos="120"/>
          <note len="12" key="39" pan="0" vol="195" pos="132"/>
          <note len="12" key="39" pan="0" vol="195" pos="144"/>
          <note len="12" key="39" pan="0" vol="195" pos="156"/>
          <note len="12" key="39" pan="0" vol="195" pos="168"/>
          <note len="12" key="39" pan="0" vol="195" pos="180"/>
          <note len="36" key="0" pan="0" vol="195" pos="180"/>
          <note len="48" key="53" pan="0" vol="195" pos="192"/>
          <note len="48" key="46" pan="0" vol="195" pos="192"/>
          <note len="36" key="1" pan="0" vol="195" pos="216"/>
          <note len="12" key="46" pan="0" vol="195" pos="240"/>
          <note len="12" key="46" pan="0" vol="195" pos="252"/>
          <note len="12" key="46" pan="0" vol="195" pos="264"/>
          <note len="12" key="46" pan="0" vol="195" pos="276"/>
          <note len="12" key="46" pan="0" vol="195" pos="288"/>
          <note len="12" key="46" pan="0" vol="195" pos="300"/>
          <note len="12" key="46" pan="0" vol="195" pos="312"/>
          <note len="12" key="46" pan="0" vol="195" pos="324"/>
          <note len="12" key="46" pan="0" vol="195" pos="336"/>
          <note len="12" key="46" pan="0" vol="195" pos="348"/>
          <note len="12" key="46" pan="0" vol="195" pos="360"/>
          <note len="12" key="46" pan="0" vol="195" pos="372"/>
          <note len="36" key="0" pan="0" vol="195" pos="372"/>
          <note len="48" key="54" pan="0" vol="195" pos="384"/>
          <note len="48" key="47" pan="0" vol="195" pos="384"/>
          <note len="36" key="1" pan="0" vol="195" pos="408"/>
          <note len="12" key="47" pan="0" vol="195" pos="432"/>
          <note len="12" key="47" pan="0" vol="195" pos="444"/>
          <note len="12" key="47" pan="0" vol="195" pos="456"/>
          <note len="12" key="47" pan="0" vol="195" pos="468"/>
          <note len="12" key="47" pan="0" vol="195" pos="480"/>
          <note len="12" key="47" pan="0" vol="195" pos="492"/>
          <note len="12" key="47" pan="0" vol="195" pos="504"/>
          <note len="12" key="47" pan="0" vol="195" pos="516"/>
          <note len="12" key="47" pan="0" vol="195" pos="528"/>
          <note len="12" key="47" pan="0" vol="195" pos="540"/>
          <note len="12" key="47" pan="0" vol="195" pos="552"/>
          <note len="12" key="47" pan="0" vol="195" pos="564"/>
          <note len="36" key="0" pan="0" vol="195" pos="564"/>
          <note len="48" key="56" pan="0" vol="195" pos="576"/>
          <note len="48" key="49" pan="0" vol="195" pos="576"/>
          <note len="36" key="1" pan="0" vol="195" pos="600"/>
          <note len="12" key="49" pan="0" vol="195" pos="624"/>
          <note len="12" key="49" pan="0" vol="195" pos="636"/>
          <note len="12" key="49" pan="0" vol="195" pos="648"/>
          <note len="12" key="49" pan="0" vol="195" pos="660"/>
          <note len="12" key="49" pan="0" vol="195" pos="672"/>
          <note len="12" key="49" pan="0" vol="195" pos="684"/>
          <note len="12" key="49" pan="0" vol="195" pos="696"/>
          <note len="12" key="49" pan="0" vol="195" pos="708"/>
          <note len="12" key="49" pan="0" vol="195" pos="720"/>
          <note len="12" key="49" pan="0" vol="195" pos="732"/>
          <note len="12" key="49" pan="0" vol="195" pos="744"/>
          <note len="12" key="49" pan="0" vol="195" pos="756"/>
          <note len="48" key="51" pan="0" vol="195" pos="768"/>
          <note len="48" key="44" pan="0" vol="195" pos="768"/>
          <note len="36" key="0" pan="0" vol="195" pos="768"/>
          <note len="36" key="1" pan="0" vol="195" pos="792"/>
          <note len="12" key="44" pan="0" vol="195" pos="816"/>
          <note len="12" key="44" pan="0" vol="195" pos="828"/>
          <note len="12" key="44" pan="0" vol="195" pos="840"/>
          <note len="12" key="44" pan="0" vol="195" pos="852"/>
          <note len="12" key="44" pan="0" vol="195" pos="864"/>
          <note len="12" key="44" pan="0" vol="195" pos="876"/>
          <note len="12" key="44" pan="0" vol="195" pos="888"/>
          <note len="12" key="44" pan="0" vol="195" pos="900"/>
          <note len="12" key="44" pan="0" vol="195" pos="912"/>
          <note len="12" key="44" pan="0" vol="195" pos="924"/>
          <note len="12" key="44" pan="0" vol="195" pos="936"/>
          <note len="12" key="44" pan="0" vol="195" pos="948"/>
          <note len="36" key="0" pan="0" vol="195" pos="948"/>
          <note len="48" key="53" pan="0" vol="195" pos="960"/>
          <note len="48" key="46" pan="0" vol="195" pos="960"/>
          <note len="36" key="1" pan="0" vol="195" pos="984"/>
          <note len="12" key="46" pan="0" vol="195" pos="1008"/>
          <note len="12" key="46" pan="0" vol="195" pos="1020"/>
          <note len="12" key="46" pan="0" vol="195" pos="1032"/>
          <note len="12" key="46" pan="0" vol="195" pos="1044"/>
          <note len="12" key="46" pan="0" vol="195" pos="1056"/>
          <note len="12" key="46" pan="0" vol="195" pos="1068"/>
          <note len="12" key="46" pan="0" vol="195" pos="1080"/>
          <note len="12" key="46" pan="0" vol="195" pos="1092"/>
          <note len="12" key="46" pan="0" vol="195" pos="1104"/>
          <note len="12" key="46" pan="0" vol="195" pos="1116"/>
          <note len="12" key="46" pan="0" vol="195" pos="1128"/>
          <note len="12" key="46" pan="0" vol="195" pos="1140"/>
          <note len="36" key="0" pan="0" vol="195" pos="1140"/>
          <note len="48" key="54" pan="0" vol="195" pos="1152"/>
          <note len="48" key="47" pan="0" vol="195" pos="1152"/>
          <note len="36" key="1" pan="0" vol="195" pos="1176"/>
          <note len="12" key="47" pan="0" vol="195" pos="1200"/>
          <note len="12" key="47" pan="0" vol="195" pos="1212"/>
          <note len="12" key="47" pan="0" vol="195" pos="1224"/>
          <note len="12" key="47" pan="0" vol="195" pos="1236"/>
          <note len="12" key="47" pan="0" vol="195" pos="1248"/>
          <note len="12" key="47" pan="0" vol="195" pos="1260"/>
          <note len="12" key="47" pan="0" vol="195" pos="1272"/>
          <note len="12" key="47" pan="0" vol="195" pos="1284"/>
          <note len="12" key="47" pan="0" vol="195" pos="1296"/>
          <note len="12" key="47" pan="0" vol="195" pos="1308"/>
          <note len="12" key="47" pan="0" vol="195" pos="1320"/>
          <note len="12" key="47" pan="0" vol="195" pos="1332"/>
          <note len="36" key="0" pan="0" vol="195" pos="1332"/>
          <note len="48" key="56" pan="0" vol="195" pos="1344"/>
          <note len="48" key="49" pan="0" vol="195" pos="1344"/>
          <note len="36" key="1" pan="0" vol="195" pos="1368"/>
          <note len="12" key="49" pan="0" vol="195" pos="1392"/>
          <note len="12" key="49" pan="0" vol="195" pos="1404"/>
          <note len="12" key="49" pan="0" vol="195" pos="1416"/>
          <note len="12" key="49" pan="0" vol="195" pos="1428"/>
          <note len="12" key="50" pan="0" vol="195" pos="1440"/>
          <note len="12" key="50" pan="0" vol="195" pos="1452"/>
          <note len="12" key="50" pan="0" vol="195" pos="1464"/>
          <note len="36" key="1" pan="0" vol="195" pos="1464"/>
          <note len="12" key="50" pan="0" vol="195" pos="1476"/>
          <note len="12" key="50" pan="0" vol="195" pos="1488"/>
          <note len="12" key="50" pan="0" vol="195" pos="1500"/>
          <note len="12" key="50" pan="0" vol="195" pos="1512"/>
          <note len="12" key="50" pan="0" vol="195" pos="1524"/>
          <note len="36" key="0" pan="0" vol="195" pos="1524"/>
          <note len="48" key="46" pan="0" vol="195" pos="1536"/>
          <note len="48" key="39" pan="0" vol="195" pos="1536"/>
          <note len="36" key="1" pan="0" vol="195" pos="1560"/>
          <note len="12" key="39" pan="0" vol="195" pos="1584"/>
          <note len="12" key="39" pan="0" vol="195" pos="1596"/>
          <note len="12" key="39" pan="0" vol="195" pos="1608"/>
          <note len="12" key="39" pan="0" vol="195" pos="1620"/>
          <note len="12" key="39" pan="0" vol="195" pos="1632"/>
          <note len="12" key="39" pan="0" vol="195" pos="1644"/>
          <note len="12" key="39" pan="0" vol="195" pos="1656"/>
          <note len="12" key="39" pan="0" vol="195" pos="1668"/>
          <note len="12" key="39" pan="0" vol="195" pos="1680"/>
          <note len="12" key="39" pan="0" vol="195" pos="1692"/>
          <note len="12" key="39" pan="0" vol="195" pos="1704"/>
          <note len="12" key="39" pan="0" vol="195" pos="1716"/>
          <note len="36" key="0" pan="0" vol="195" pos="1716"/>
          <note len="48" key="56" pan="0" vol="195" pos="1728"/>
          <note len="48" key="49" pan="0" vol="195" pos="1728"/>
          <note len="36" key="1" pan="0" vol="195" pos="1752"/>
          <note len="12" key="49" pan="0" vol="195" pos="1776"/>
          <note len="12" key="49" pan="0" vol="195" pos="1788"/>
          <note len="12" key="49" pan="0" vol="195" pos="1800"/>
          <note len="12" key="49" pan="0" vol="195" pos="1812"/>
          <note len="12" key="49" pan="0" vol="195" pos="1824"/>
          <note len="12" key="49" pan="0" vol="195" pos="1836"/>
          <note len="12" key="49" pan="0" vol="195" pos="1848"/>
          <note len="12" key="49" pan="0" vol="195" pos="1860"/>
          <note len="12" key="49" pan="0" vol="195" pos="1872"/>
          <note len="12" key="49" pan="0" vol="195" pos="1884"/>
          <note len="12" key="49" pan="0" vol="195" pos="1896"/>
          <note len="12" key="49" pan="0" vol="195" pos="1908"/>
          <note len="36" key="0" pan="0" vol="195" pos="1908"/>
          <note len="48" key="56" pan="0" vol="195" pos="1920"/>
          <note len="48" key="48" pan="0" vol="195" pos="1920"/>
          <note len="36" key="1" pan="0" vol="195" pos="1944"/>
          <note len="12" key="48" pan="0" vol="195" pos="1968"/>
          <note len="12" key="48" pan="0" vol="195" pos="1980"/>
          <note len="12" key="48" pan="0" vol="195" pos="1992"/>
          <note len="12" key="48" pan="0" vol="195" pos="2004"/>
          <note len="12" key="48" pan="0" vol="195" pos="2016"/>
          <note len="12" key="48" pan="0" vol="195" pos="2028"/>
          <note len="12" key="48" pan="0" vol="195" pos="2040"/>
          <note len="12" key="48" pan="0" vol="195" pos="2052"/>
          <note len="12" key="48" pan="0" vol="195" pos="2064"/>
          <note len="12" key="48" pan="0" vol="195" pos="2076"/>
          <note len="12" key="48" pan="0" vol="195" pos="2088"/>
          <note len="12" key="48" pan="0" vol="195" pos="2100"/>
          <note len="36" key="0" pan="0" vol="195" pos="2100"/>
          <note len="48" key="51" pan="0" vol="195" pos="2112"/>
          <note len="48" key="44" pan="0" vol="195" pos="2112"/>
          <note len="36" key="1" pan="0" vol="195" pos="2136"/>
          <note len="12" key="44" pan="0" vol="195" pos="2160"/>
          <note len="12" key="44" pan="0" vol="195" pos="2172"/>
          <note len="12" key="44" pan="0" vol="195" pos="2184"/>
          <note len="12" key="44" pan="0" vol="195" pos="2196"/>
          <note len="36" key="0" pan="0" vol="195" pos="2196"/>
          <note len="48" key="49" pan="0" vol="195" pos="2208"/>
          <note len="48" key="42" pan="0" vol="195" pos="2208"/>
          <note len="36" key="1" pan="0" vol="195" pos="2232"/>
          <note len="12" key="42" pan="0" vol="195" pos="2256"/>
          <note len="12" key="42" pan="0" vol="195" pos="2268"/>
          <note len="12" key="42" pan="0" vol="195" pos="2280"/>
          <note len="12" key="42" pan="0" vol="195" pos="2292"/>
          <note len="36" key="0" pan="0" vol="195" pos="2292"/>
          <note len="48" key="47" pan="0" vol="195" pos="2304"/>
          <note len="48" key="40" pan="0" vol="195" pos="2304"/>
          <note len="36" key="1" pan="0" vol="195" pos="2328"/>
          <note len="12" key="40" pan="0" vol="195" pos="2352"/>
          <note len="12" key="40" pan="0" vol="195" pos="2364"/>
          <note len="12" key="40" pan="0" vol="195" pos="2376"/>
          <note len="12" key="40" pan="0" vol="195" pos="2388"/>
          <note len="12" key="40" pan="0" vol="195" pos="2400"/>
          <note len="12" key="40" pan="0" vol="195" pos="2412"/>
          <note len="12" key="40" pan="0" vol="195" pos="2424"/>
          <note len="12" key="40" pan="0" vol="195" pos="2436"/>
          <note len="12" key="40" pan="0" vol="195" pos="2448"/>
          <note len="12" key="40" pan="0" vol="195" pos="2460"/>
          <note len="12" key="40" pan="0" vol="195" pos="2472"/>
          <note len="12" key="40" pan="0" vol="195" pos="2484"/>
          <note len="36" key="0" pan="0" vol="195" pos="2484"/>
          <note len="48" key="54" pan="0" vol="195" pos="2496"/>
          <note len="48" key="47" pan="0" vol="195" pos="2496"/>
          <note len="36" key="1" pan="0" vol="195" pos="2520"/>
          <note len="12" key="47" pan="0" vol="195" pos="2544"/>
          <note len="12" key="47" pan="0" vol="195" pos="2556"/>
          <note len="12" key="47" pan="0" vol="195" pos="2568"/>
          <note len="12" key="47" pan="0" vol="195" pos="2580"/>
          <note len="12" key="47" pan="0" vol="195" pos="2592"/>
          <note len="12" key="47" pan="0" vol="195" pos="2604"/>
          <note len="12" key="47" pan="0" vol="195" pos="2616"/>
          <note len="12" key="47" pan="0" vol="195" pos="2628"/>
          <note len="12" key="47" pan="0" vol="195" pos="2640"/>
          <note len="12" key="47" pan="0" vol="195" pos="2652"/>
          <note len="12" key="47" pan="0" vol="195" pos="2664"/>
          <note len="12" key="47" pan="0" vol="195" pos="2676"/>
          <note len="36" key="0" pan="0" vol="195" pos="2676"/>
          <note len="48" key="56" pan="0" vol="195" pos="2688"/>
          <note len="48" key="49" pan="0" vol="195" pos="2688"/>
          <note len="36" key="1" pan="0" vol="195" pos="2712"/>
          <note len="12" key="49" pan="0" vol="195" pos="2736"/>
          <note len="12" key="49" pan="0" vol="195" pos="2748"/>
          <note len="12" key="49" pan="0" vol="195" pos="2760"/>
          <note len="12" key="49" pan="0" vol="195" pos="2772"/>
          <note len="12" key="49" pan="0" vol="195" pos="2784"/>
          <note len="12" key="49" pan="0" vol="195" pos="2796"/>
          <note len="12" key="49" pan="0" vol="195" pos="2808"/>
          <note len="12" key="49" pan="0" vol="195" pos="2820"/>
          <note len="12" key="49" pan="0" vol="195" pos="2832"/>
          <note len="12" key="49" pan="0" vol="195" pos="2844"/>
          <note len="12" key="49" pan="0" vol="195" pos="2856"/>
          <note len="12" key="49" pan="0" vol="195" pos="2868"/>
          <note len="36" key="0" pan="0" vol="195" pos="2868"/>
          <note len="96" key="56" pan="0" vol="197" pos="2880"/>
          <note len="96" key="49" pan="0" vol="197" pos="2880"/>
          <note len="96" key="53" pan="0" vol="197" pos="2976"/>
          <note len="96" key="46" pan="0" vol="197" pos="2976"/>
        </pattern>
        <pattern muted="0" name="" steps="16" type="1" pos="50304">
          <note len="48" key="46" pan="0" vol="197" pos="0"/>
          <note len="48" key="39" pan="0" vol="197" pos="0"/>
          <note len="36" key="0" pan="0" vol="197" pos="0"/>
          <note len="36" key="1" pan="0" vol="197" pos="36"/>
          <note len="24" key="39" pan="0" vol="197" pos="48"/>
          <note len="24" key="39" pan="0" vol="197" pos="72"/>
          <note len="24" key="39" pan="0" vol="197" pos="96"/>
          <note len="24" key="39" pan="0" vol="197" pos="120"/>
          <note len="24" key="39" pan="0" vol="197" pos="144"/>
          <note len="12" key="39" pan="0" vol="197" pos="168"/>
          <note len="12" key="39" pan="0" vol="197" pos="180"/>
          <note len="24" key="39" pan="0" vol="197" pos="192"/>
          <note len="24" key="39" pan="0" vol="197" pos="216"/>
          <note len="12" key="39" pan="0" vol="197" pos="240"/>
          <note len="12" key="39" pan="0" vol="197" pos="252"/>
          <note len="24" key="39" pan="0" vol="197" pos="264"/>
          <note len="24" key="39" pan="0" vol="197" pos="288"/>
          <note len="24" key="39" pan="0" vol="197" pos="312"/>
          <note len="48" key="0" pan="0" vol="197" pos="324"/>
          <note len="48" key="46" pan="0" vol="197" pos="336"/>
          <note len="48" key="39" pan="0" vol="197" pos="336"/>
        </pattern>
        <pattern muted="0" name="" steps="16" type="1" pos="50688">
          <note len="48" key="46" pan="0" vol="197" pos="0"/>
          <note len="48" key="39" pan="0" vol="197" pos="0"/>
          <note len="36" key="0" pan="0" vol="197" pos="0"/>
          <note len="36" key="1" pan="0" vol="197" pos="36"/>
          <note len="24" key="39" pan="0" vol="197" pos="48"/>
          <note len="24" key="39" pan="0" vol="197" pos="72"/>
          <note len="24" key="39" pan="0" vol="197" pos="96"/>
          <note len="24" key="39" pan="0" vol="197" pos="120"/>
          <note len="24" key="39" pan="0" vol="197" pos="144"/>
          <note len="12" key="39" pan="0" vol="197" pos="168"/>
          <note len="12" key="39" pan="0" vol="197" pos="180"/>
          <note len="24" key="39" pan="0" vol="197" pos="192"/>
          <note len="24" key="39" pan="0" vol="197" pos="216"/>
          <note len="12" key="39" pan="0" vol="197" pos="240"/>
          <note len="12" key="39" pan="0" vol="197" pos="252"/>
          <note len="24" key="39" pan="0" vol="197" pos="264"/>
          <note len="24" key="39" pan="0" vol="197" pos="288"/>
          <note len="24" key="39" pan="0" vol="197" pos="312"/>
          <note len="48" key="0" pan="0" vol="197" pos="324"/>
          <note len="48" key="46" pan="0" vol="197" pos="336"/>
          <note len="48" key="39" pan="0" vol="197" pos="336"/>
        </pattern>
        <pattern muted="0" name="" steps="16" type="1" pos="51072">
          <note len="48" key="46" pan="0" vol="197" pos="0"/>
          <note len="48" key="39" pan="0" vol="197" pos="0"/>
          <note len="36" key="0" pan="0" vol="197" pos="0"/>
          <note len="36" key="1" pan="0" vol="197" pos="36"/>
          <note len="24" key="39" pan="0" vol="197" pos="48"/>
          <note len="24" key="39" pan="0" vol="197" pos="72"/>
          <note len="24" key="39" pan="0" vol="197" pos="96"/>
          <note len="24" key="39" pan="0" vol="197" pos="120"/>
          <note len="24" key="39" pan="0" vol="197" pos="144"/>
          <note len="12" key="39" pan="0" vol="197" pos="168"/>
          <note len="12" key="39" pan="0" vol="197" pos="180"/>
          <note len="24" key="39" pan="0" vol="197" pos="192"/>
          <note len="24" key="39" pan="0" vol="197" pos="216"/>
          <note len="12" key="39" pan="0" vol="197" pos="240"/>
          <note len="12" key="39" pan="0" vol="197" pos="252"/>
          <note len="24" key="39" pan="0" vol="197" pos="264"/>
          <note len="24" key="39" pan="0" vol="197" pos="288"/>
          <note len="24" key="39" pan="0" vol="197" pos="312"/>
          <note len="48" key="0" pan="0" vol="197" pos="324"/>
          <note len="48" key="46" pan="0" vol="197" pos="336"/>
          <note len="48" key="39" pan="0" vol="197" pos="336"/>
        </pattern>
        <pattern muted="0" name="" steps="16" type="1" pos="51456">
          <note len="48" key="46" pan="0" vol="197" pos="0"/>
          <note len="48" key="39" pan="0" vol="197" pos="0"/>
          <note len="36" key="0" pan="0" vol="197" pos="0"/>
          <note len="36" key="1" pan="0" vol="197" pos="36"/>
          <note len="24" key="39" pan="0" vol="197" pos="48"/>
          <note len="24" key="39" pan="0" vol="197" pos="72"/>
          <note len="24" key="39" pan="0" vol="197" pos="96"/>
          <note len="24" key="39" pan="0" vol="197" pos="120"/>
          <note len="24" key="39" pan="0" vol="197" pos="144"/>
          <note len="12" key="39" pan="0" vol="197" pos="168"/>
          <note len="12" key="39" pan="0" vol="197" pos="180"/>
          <note len="24" key="39" pan="0" vol="197" pos="192"/>
          <note len="24" key="39" pan="0" vol="197" pos="216"/>
          <note len="12" key="39" pan="0" vol="197" pos="240"/>
          <note len="12" key="39" pan="0" vol="197" pos="252"/>
          <note len="24" key="39" pan="0" vol="197" pos="264"/>
          <note len="24" key="39" pan="0" vol="197" pos="288"/>
          <note len="24" key="39" pan="0" vol="197" pos="312"/>
          <note len="48" key="0" pan="0" vol="197" pos="324"/>
          <note len="48" key="46" pan="0" vol="197" pos="336"/>
          <note len="48" key="39" pan="0" vol="197" pos="336"/>
        </pattern>
        <pattern muted="0" name="" steps="16" type="1" pos="51840">
          <note len="48" key="47" pan="0" vol="197" pos="0"/>
          <note len="48" key="40" pan="0" vol="197" pos="0"/>
          <note len="36" key="0" pan="0" vol="197" pos="0"/>
          <note len="36" key="1" pan="0" vol="197" pos="36"/>
          <note len="24" key="40" pan="0" vol="197" pos="48"/>
          <note len="24" key="40" pan="0" vol="197" pos="72"/>
          <note len="24" key="40" pan="0" vol="197" pos="96"/>
          <note len="24" key="40" pan="0" vol="197" pos="120"/>
          <note len="24" key="40" pan="0" vol="197" pos="144"/>
          <note len="12" key="40" pan="0" vol="197" pos="168"/>
          <note len="12" key="40" pan="0" vol="197" pos="180"/>
          <note len="24" key="40" pan="0" vol="197" pos="192"/>
          <note len="24" key="40" pan="0" vol="197" pos="216"/>
          <note len="12" key="40" pan="0" vol="197" pos="240"/>
          <note len="12" key="40" pan="0" vol="197" pos="252"/>
          <note len="24" key="40" pan="0" vol="197" pos="264"/>
          <note len="24" key="40" pan="0" vol="197" pos="288"/>
          <note len="24" key="40" pan="0" vol="197" pos="312"/>
          <note len="48" key="0" pan="0" vol="197" pos="324"/>
          <note len="48" key="47" pan="0" vol="197" pos="336"/>
          <note len="48" key="40" pan="0" vol="197" pos="336"/>
        </pattern>
        <pattern muted="0" name="" steps="16" type="1" pos="52224">
          <note len="48" key="46" pan="0" vol="197" pos="0"/>
          <note len="48" key="39" pan="0" vol="197" pos="0"/>
          <note len="36" key="0" pan="0" vol="197" pos="0"/>
          <note len="36" key="1" pan="0" vol="197" pos="36"/>
          <note len="24" key="39" pan="0" vol="197" pos="48"/>
          <note len="24" key="39" pan="0" vol="197" pos="72"/>
          <note len="24" key="39" pan="0" vol="197" pos="96"/>
          <note len="24" key="39" pan="0" vol="197" pos="120"/>
          <note len="24" key="39" pan="0" vol="197" pos="144"/>
          <note len="12" key="39" pan="0" vol="197" pos="168"/>
          <note len="12" key="39" pan="0" vol="197" pos="180"/>
          <note len="24" key="39" pan="0" vol="197" pos="192"/>
          <note len="24" key="39" pan="0" vol="197" pos="216"/>
          <note len="12" key="39" pan="0" vol="197" pos="240"/>
          <note len="12" key="39" pan="0" vol="197" pos="252"/>
          <note len="24" key="39" pan="0" vol="197" pos="264"/>
          <note len="24" key="39" pan="0" vol="197" pos="288"/>
          <note len="24" key="39" pan="0" vol="197" pos="312"/>
          <note len="48" key="0" pan="0" vol="197" pos="324"/>
          <note len="48" key="46" pan="0" vol="197" pos="336"/>
          <note len="48" key="39" pan="0" vol="197" pos="336"/>
        </pattern>
        <pattern muted="0" name="" steps="16" type="1" pos="52608">
          <note len="48" key="51" pan="0" vol="197" pos="0"/>
          <note len="48" key="44" pan="0" vol="197" pos="0"/>
          <note len="36" key="0" pan="0" vol="197" pos="0"/>
          <note len="36" key="1" pan="0" vol="197" pos="36"/>
          <note len="24" key="44" pan="0" vol="197" pos="48"/>
          <note len="24" key="44" pan="0" vol="197" pos="72"/>
          <note len="24" key="44" pan="0" vol="197" pos="96"/>
          <note len="24" key="44" pan="0" vol="197" pos="120"/>
          <note len="24" key="44" pan="0" vol="197" pos="144"/>
          <note len="12" key="44" pan="0" vol="197" pos="168"/>
          <note len="12" key="44" pan="0" vol="197" pos="180"/>
          <note len="24" key="44" pan="0" vol="197" pos="192"/>
          <note len="24" key="44" pan="0" vol="197" pos="216"/>
          <note len="12" key="44" pan="0" vol="197" pos="240"/>
          <note len="12" key="44" pan="0" vol="197" pos="252"/>
          <note len="24" key="44" pan="0" vol="197" pos="264"/>
          <note len="24" key="44" pan="0" vol="197" pos="288"/>
          <note len="24" key="44" pan="0" vol="197" pos="312"/>
          <note len="48" key="0" pan="0" vol="197" pos="324"/>
          <note len="48" key="51" pan="0" vol="197" pos="336"/>
          <note len="48" key="44" pan="0" vol="197" pos="336"/>
        </pattern>
        <pattern muted="0" name="" steps="16" type="1" pos="53376">
          <note len="48" key="42" pan="0" vol="195" pos="0"/>
          <note len="48" key="35" pan="0" vol="195" pos="0"/>
          <note len="24" key="0" pan="0" vol="195" pos="0"/>
          <note len="24" key="1" pan="0" vol="195" pos="24"/>
          <note len="12" key="35" pan="0" vol="195" pos="48"/>
          <note len="12" key="35" pan="0" vol="195" pos="60"/>
          <note len="12" key="35" pan="0" vol="195" pos="72"/>
          <note len="12" key="35" pan="0" vol="195" pos="84"/>
          <note len="12" key="35" pan="0" vol="195" pos="96"/>
          <note len="12" key="35" pan="0" vol="195" pos="108"/>
          <note len="12" key="35" pan="0" vol="195" pos="120"/>
          <note len="12" key="35" pan="0" vol="195" pos="132"/>
          <note len="12" key="35" pan="0" vol="195" pos="144"/>
          <note len="12" key="35" pan="0" vol="195" pos="156"/>
          <note len="12" key="35" pan="0" vol="195" pos="168"/>
          <note len="12" key="35" pan="0" vol="195" pos="180"/>
          <note len="48" key="44" pan="0" vol="195" pos="192"/>
          <note len="48" key="37" pan="0" vol="195" pos="192"/>
          <note len="48" key="0" pan="0" vol="195" pos="192"/>
          <note len="48" key="1" pan="0" vol="195" pos="216"/>
          <note len="12" key="37" pan="0" vol="195" pos="240"/>
          <note len="12" key="37" pan="0" vol="195" pos="252"/>
          <note len="12" key="37" pan="0" vol="195" pos="264"/>
          <note len="12" key="37" pan="0" vol="195" pos="276"/>
          <note len="12" key="37" pan="0" vol="195" pos="288"/>
          <note len="12" key="37" pan="0" vol="195" pos="300"/>
          <note len="12" key="37" pan="0" vol="195" pos="312"/>
          <note len="12" key="37" pan="0" vol="195" pos="324"/>
          <note len="12" key="37" pan="0" vol="195" pos="336"/>
          <note len="12" key="37" pan="0" vol="195" pos="348"/>
          <note len="12" key="37" pan="0" vol="195" pos="360"/>
          <note len="12" key="37" pan="0" vol="195" pos="372"/>
        </pattern>
        <pattern muted="0" name="" steps="16" type="1" pos="53760">
          <note len="48" key="46" pan="0" vol="195" pos="0"/>
          <note len="48" key="39" pan="0" vol="195" pos="0"/>
          <note len="24" key="0" pan="0" vol="195" pos="0"/>
          <note len="24" key="1" pan="0" vol="195" pos="24"/>
          <note len="12" key="39" pan="0" vol="195" pos="48"/>
          <note len="12" key="39" pan="0" vol="195" pos="60"/>
          <note len="12" key="39" pan="0" vol="195" pos="72"/>
          <note len="12" key="39" pan="0" vol="195" pos="84"/>
          <note len="12" key="39" pan="0" vol="195" pos="96"/>
          <note len="12" key="39" pan="0" vol="195" pos="108"/>
          <note len="12" key="39" pan="0" vol="195" pos="120"/>
          <note len="12" key="39" pan="0" vol="195" pos="132"/>
          <note len="12" key="39" pan="0" vol="195" pos="144"/>
          <note len="12" key="39" pan="0" vol="195" pos="156"/>
          <note len="12" key="39" pan="0" vol="195" pos="168"/>
          <note len="12" key="39" pan="0" vol="195" pos="180"/>
          <note len="12" key="39" pan="0" vol="195" pos="192"/>
          <note len="12" key="39" pan="0" vol="195" pos="204"/>
          <note len="12" key="39" pan="0" vol="195" pos="216"/>
          <note len="12" key="39" pan="0" vol="195" pos="228"/>
          <note len="12" key="39" pan="0" vol="195" pos="240"/>
          <note len="12" key="39" pan="0" vol="195" pos="252"/>
          <note len="12" key="39" pan="0" vol="195" pos="264"/>
          <note len="12" key="39" pan="0" vol="195" pos="276"/>
          <note len="12" key="39" pan="0" vol="195" pos="288"/>
          <note len="12" key="39" pan="0" vol="195" pos="300"/>
          <note len="12" key="39" pan="0" vol="195" pos="312"/>
          <note len="12" key="39" pan="0" vol="195" pos="324"/>
          <note len="12" key="39" pan="0" vol="195" pos="336"/>
          <note len="12" key="39" pan="0" vol="195" pos="348"/>
          <note len="12" key="39" pan="0" vol="195" pos="360"/>
          <note len="12" key="39" pan="0" vol="195" pos="372"/>
        </pattern>
        <pattern muted="0" name="" steps="16" type="1" pos="54144">
          <note len="48" key="44" pan="0" vol="195" pos="0"/>
          <note len="48" key="37" pan="0" vol="195" pos="0"/>
          <note len="24" key="0" pan="0" vol="195" pos="0"/>
          <note len="24" key="1" pan="0" vol="195" pos="24"/>
          <note len="12" key="37" pan="0" vol="195" pos="48"/>
          <note len="12" key="37" pan="0" vol="195" pos="60"/>
          <note len="12" key="37" pan="0" vol="195" pos="72"/>
          <note len="12" key="37" pan="0" vol="195" pos="84"/>
          <note len="12" key="37" pan="0" vol="195" pos="96"/>
          <note len="12" key="37" pan="0" vol="195" pos="108"/>
          <note len="12" key="37" pan="0" vol="195" pos="120"/>
          <note len="12" key="37" pan="0" vol="195" pos="132"/>
          <note len="12" key="37" pan="0" vol="195" pos="144"/>
          <note len="12" key="37" pan="0" vol="195" pos="156"/>
          <note len="12" key="37" pan="0" vol="195" pos="168"/>
          <note len="12" key="37" pan="0" vol="195" pos="180"/>
        </pattern>
        <pattern muted="0" name="" steps="16" type="1" pos="54336">
          <note len="48" key="44" pan="0" vol="195" pos="0"/>
          <note len="48" key="37" pan="0" vol="195" pos="0"/>
          <note len="24" key="0" pan="0" vol="195" pos="0"/>
          <note len="24" key="1" pan="0" vol="195" pos="24"/>
          <note len="12" key="37" pan="0" vol="195" pos="48"/>
          <note len="12" key="37" pan="0" vol="195" pos="60"/>
          <note len="12" key="37" pan="0" vol="195" pos="72"/>
          <note len="12" key="37" pan="0" vol="195" pos="84"/>
          <note len="12" key="37" pan="0" vol="195" pos="96"/>
          <note len="12" key="37" pan="0" vol="195" pos="108"/>
          <note len="12" key="37" pan="0" vol="195" pos="120"/>
          <note len="12" key="37" pan="0" vol="195" pos="132"/>
          <note len="12" key="37" pan="0" vol="195" pos="144"/>
          <note len="12" key="37" pan="0" vol="195" pos="156"/>
          <note len="12" key="37" pan="0" vol="195" pos="168"/>
          <note len="12" key="37" pan="0" vol="195" pos="180"/>
        </pattern>
        <pattern muted="0" name="" steps="16" type="1" pos="54528">
          <note len="48" key="51" pan="0" vol="195" pos="0"/>
          <note len="48" key="44" pan="0" vol="195" pos="0"/>
          <note len="24" key="0" pan="0" vol="195" pos="0"/>
          <note len="24" key="1" pan="0" vol="195" pos="24"/>
          <note len="12" key="44" pan="0" vol="195" pos="48"/>
          <note len="12" key="44" pan="0" vol="195" pos="60"/>
          <note len="12" key="44" pan="0" vol="195" pos="72"/>
          <note len="12" key="44" pan="0" vol="195" pos="84"/>
          <note len="12" key="44" pan="0" vol="195" pos="96"/>
          <note len="12" key="44" pan="0" vol="195" pos="108"/>
          <note len="12" key="44" pan="0" vol="195" pos="120"/>
          <note len="12" key="44" pan="0" vol="195" pos="132"/>
          <note len="12" key="44" pan="0" vol="195" pos="144"/>
          <note len="12" key="44" pan="0" vol="195" pos="156"/>
          <note len="12" key="44" pan="0" vol="195" pos="168"/>
          <note len="12" key="44" pan="0" vol="195" pos="180"/>
          <note len="12" key="44" pan="0" vol="195" pos="192"/>
          <note len="12" key="44" pan="0" vol="195" pos="204"/>
          <note len="12" key="44" pan="0" vol="195" pos="216"/>
          <note len="12" key="44" pan="0" vol="195" pos="228"/>
          <note len="12" key="44" pan="0" vol="195" pos="240"/>
          <note len="12" key="44" pan="0" vol="195" pos="252"/>
          <note len="12" key="44" pan="0" vol="195" pos="264"/>
          <note len="12" key="44" pan="0" vol="195" pos="276"/>
          <note len="12" key="44" pan="0" vol="195" pos="288"/>
          <note len="12" key="44" pan="0" vol="195" pos="300"/>
          <note len="12" key="44" pan="0" vol="195" pos="312"/>
          <note len="12" key="44" pan="0" vol="195" pos="324"/>
          <note len="12" key="44" pan="0" vol="195" pos="336"/>
          <note len="12" key="44" pan="0" vol="195" pos="348"/>
          <note len="12" key="44" pan="0" vol="195" pos="360"/>
          <note len="12" key="44" pan="0" vol="195" pos="372"/>
        </pattern>
        <pattern muted="0" name="" steps="16" type="1" pos="54912">
          <note len="48" key="42" pan="0" vol="195" pos="0"/>
          <note len="48" key="35" pan="0" vol="195" pos="0"/>
          <note len="24" key="0" pan="0" vol="195" pos="0"/>
          <note len="24" key="1" pan="0" vol="195" pos="24"/>
          <note len="12" key="35" pan="0" vol="195" pos="48"/>
          <note len="12" key="35" pan="0" vol="195" pos="60"/>
          <note len="12" key="35" pan="0" vol="195" pos="72"/>
          <note len="12" key="35" pan="0" vol="195" pos="84"/>
          <note len="12" key="35" pan="0" vol="195" pos="96"/>
          <note len="12" key="35" pan="0" vol="195" pos="108"/>
          <note len="12" key="35" pan="0" vol="195" pos="120"/>
          <note len="12" key="35" pan="0" vol="195" pos="132"/>
          <note len="12" key="35" pan="0" vol="195" pos="144"/>
          <note len="12" key="35" pan="0" vol="195" pos="156"/>
          <note len="12" key="35" pan="0" vol="195" pos="168"/>
          <note len="12" key="35" pan="0" vol="195" pos="180"/>
          <note len="48" key="44" pan="0" vol="195" pos="192"/>
          <note len="48" key="37" pan="0" vol="195" pos="192"/>
          <note len="48" key="0" pan="0" vol="195" pos="192"/>
          <note len="48" key="1" pan="0" vol="195" pos="216"/>
          <note len="12" key="37" pan="0" vol="195" pos="240"/>
          <note len="12" key="37" pan="0" vol="195" pos="252"/>
          <note len="12" key="37" pan="0" vol="195" pos="264"/>
          <note len="12" key="37" pan="0" vol="195" pos="276"/>
          <note len="12" key="37" pan="0" vol="195" pos="288"/>
          <note len="12" key="37" pan="0" vol="195" pos="300"/>
          <note len="12" key="37" pan="0" vol="195" pos="312"/>
          <note len="12" key="37" pan="0" vol="195" pos="324"/>
          <note len="12" key="37" pan="0" vol="195" pos="336"/>
          <note len="12" key="37" pan="0" vol="195" pos="348"/>
          <note len="12" key="37" pan="0" vol="195" pos="360"/>
          <note len="12" key="37" pan="0" vol="195" pos="372"/>
        </pattern>
        <pattern muted="0" name="" steps="16" type="1" pos="55296">
          <note len="48" key="46" pan="0" vol="195" pos="0"/>
          <note len="48" key="39" pan="0" vol="195" pos="0"/>
          <note len="24" key="0" pan="0" vol="195" pos="0"/>
          <note len="24" key="1" pan="0" vol="195" pos="24"/>
          <note len="12" key="39" pan="0" vol="195" pos="48"/>
          <note len="12" key="39" pan="0" vol="195" pos="60"/>
          <note len="12" key="39" pan="0" vol="195" pos="72"/>
          <note len="12" key="39" pan="0" vol="195" pos="84"/>
          <note len="12" key="39" pan="0" vol="195" pos="96"/>
          <note len="12" key="39" pan="0" vol="195" pos="108"/>
          <note len="12" key="39" pan="0" vol="195" pos="120"/>
          <note len="12" key="39" pan="0" vol="195" pos="132"/>
          <note len="12" key="39" pan="0" vol="195" pos="144"/>
          <note len="12" key="39" pan="0" vol="195" pos="156"/>
          <note len="12" key="39" pan="0" vol="195" pos="168"/>
          <note len="12" key="39" pan="0" vol="195" pos="180"/>
          <note len="12" key="39" pan="0" vol="195" pos="192"/>
          <note len="12" key="39" pan="0" vol="195" pos="204"/>
          <note len="12" key="39" pan="0" vol="195" pos="216"/>
          <note len="12" key="39" pan="0" vol="195" pos="228"/>
          <note len="12" key="39" pan="0" vol="195" pos="240"/>
          <note len="12" key="39" pan="0" vol="195" pos="252"/>
          <note len="12" key="39" pan="0" vol="195" pos="264"/>
          <note len="12" key="39" pan="0" vol="195" pos="276"/>
          <note len="12" key="39" pan="0" vol="195" pos="288"/>
          <note len="12" key="39" pan="0" vol="195" pos="300"/>
          <note len="12" key="39" pan="0" vol="195" pos="312"/>
          <note len="12" key="39" pan="0" vol="195" pos="324"/>
          <note len="12" key="39" pan="0" vol="195" pos="336"/>
          <note len="12" key="39" pan="0" vol="195" pos="348"/>
          <note len="12" key="39" pan="0" vol="195" pos="360"/>
          <note len="12" key="39" pan="0" vol="195" pos="372"/>
        </pattern>
        <pattern muted="0" name="" steps="16" type="1" pos="55680">
          <note len="48" key="51" pan="0" vol="195" pos="0"/>
          <note len="48" key="44" pan="0" vol="195" pos="0"/>
          <note len="24" key="0" pan="0" vol="195" pos="0"/>
          <note len="24" key="1" pan="0" vol="195" pos="24"/>
          <note len="12" key="44" pan="0" vol="195" pos="48"/>
          <note len="12" key="44" pan="0" vol="195" pos="60"/>
          <note len="12" key="44" pan="0" vol="195" pos="72"/>
          <note len="12" key="44" pan="0" vol="195" pos="84"/>
          <note len="12" key="44" pan="0" vol="195" pos="96"/>
          <note len="12" key="44" pan="0" vol="195" pos="108"/>
          <note len="12" key="44" pan="0" vol="195" pos="120"/>
          <note len="12" key="44" pan="0" vol="195" pos="132"/>
          <note len="12" key="44" pan="0" vol="195" pos="144"/>
          <note len="12" key="44" pan="0" vol="195" pos="156"/>
          <note len="12" key="44" pan="0" vol="195" pos="168"/>
          <note len="12" key="44" pan="0" vol="195" pos="180"/>
          <note len="12" key="44" pan="0" vol="195" pos="192"/>
          <note len="12" key="44" pan="0" vol="195" pos="204"/>
          <note len="12" key="44" pan="0" vol="195" pos="216"/>
          <note len="12" key="44" pan="0" vol="195" pos="228"/>
          <note len="12" key="44" pan="0" vol="195" pos="240"/>
          <note len="12" key="44" pan="0" vol="195" pos="252"/>
          <note len="12" key="44" pan="0" vol="195" pos="264"/>
          <note len="12" key="44" pan="0" vol="195" pos="276"/>
          <note len="12" key="44" pan="0" vol="195" pos="288"/>
          <note len="12" key="44" pan="0" vol="195" pos="300"/>
          <note len="12" key="44" pan="0" vol="195" pos="312"/>
          <note len="12" key="44" pan="0" vol="195" pos="324"/>
          <note len="12" key="44" pan="0" vol="195" pos="336"/>
          <note len="12" key="44" pan="0" vol="195" pos="348"/>
          <note len="12" key="44" pan="0" vol="195" pos="360"/>
          <note len="12" key="44" pan="0" vol="195" pos="372"/>
        </pattern>
        <pattern muted="0" name="" steps="16" type="1" pos="56064">
          <note len="192" key="42" pan="0" vol="197" pos="0"/>
          <note len="192" key="35" pan="0" vol="197" pos="0"/>
          <note len="96" key="0" pan="0" vol="197" pos="0"/>
          <note len="96" key="44" pan="0" vol="197" pos="192"/>
          <note len="96" key="37" pan="0" vol="197" pos="192"/>
          <note len="96" key="44" pan="0" vol="197" pos="288"/>
          <note len="96" key="37" pan="0" vol="197" pos="288"/>
        </pattern>
        <pattern muted="0" name="" steps="16" type="1" pos="56448">
          <note len="384" key="46" pan="0" vol="78" pos="0"/>
          <note len="384" key="39" pan="0" vol="78" pos="0"/>
          <note len="192" key="0" pan="0" vol="78" pos="0"/>
          <note len="384" key="44" pan="0" vol="78" pos="384"/>
          <note len="384" key="37" pan="0" vol="78" pos="384"/>
          <note len="384" key="44" pan="0" vol="78" pos="768"/>
          <note len="384" key="36" pan="0" vol="78" pos="768"/>
          <note len="384" key="47" pan="0" vol="78" pos="1152"/>
          <note len="384" key="40" pan="0" vol="78" pos="1152"/>
          <note len="384" key="46" pan="0" vol="78" pos="1536"/>
          <note len="384" key="39" pan="0" vol="78" pos="1536"/>
          <note len="384" key="44" pan="0" vol="78" pos="1920"/>
          <note len="384" key="37" pan="0" vol="78" pos="1920"/>
          <note len="384" key="44" pan="0" vol="78" pos="2304"/>
          <note len="384" key="36" pan="0" vol="78" pos="2304"/>
          <note len="384" key="47" pan="0" vol="78" pos="2688"/>
          <note len="384" key="40" pan="0" vol="78" pos="2688"/>
        </pattern>
        <pattern muted="0" name="" steps="16" type="1" pos="52992">
          <note len="48" key="49" pan="0" vol="197" pos="0"/>
          <note len="48" key="42" pan="0" vol="197" pos="0"/>
          <note len="36" key="0" pan="0" vol="197" pos="0"/>
          <note len="36" key="1" pan="0" vol="197" pos="36"/>
          <note len="24" key="42" pan="0" vol="197" pos="48"/>
          <note len="24" key="42" pan="0" vol="197" pos="72"/>
          <note len="24" key="42" pan="0" vol="197" pos="96"/>
          <note len="24" key="42" pan="0" vol="197" pos="120"/>
          <note len="24" key="42" pan="0" vol="197" pos="144"/>
          <note len="12" key="42" pan="0" vol="197" pos="168"/>
          <note len="12" key="42" pan="0" vol="197" pos="180"/>
          <note len="24" key="42" pan="0" vol="197" pos="192"/>
          <note len="24" key="42" pan="0" vol="197" pos="216"/>
          <note len="12" key="42" pan="0" vol="197" pos="240"/>
          <note len="12" key="42" pan="0" vol="197" pos="252"/>
          <note len="24" key="42" pan="0" vol="197" pos="264"/>
          <note len="24" key="42" pan="0" vol="197" pos="288"/>
          <note len="24" key="42" pan="0" vol="197" pos="312"/>
          <note len="48" key="0" pan="0" vol="197" pos="324"/>
          <note len="48" key="49" pan="0" vol="197" pos="336"/>
          <note len="48" key="42" pan="0" vol="197" pos="336"/>
        </pattern>
        <pattern muted="0" name="" steps="16" type="1" pos="7680">
          <note len="24" key="46" pan="0" vol="78" pos="0"/>
          <note len="24" key="39" pan="0" vol="78" pos="0"/>
          <note len="12" key="0" pan="0" vol="78" pos="0"/>
          <note len="12" key="1" pan="0" vol="78" pos="12"/>
          <note len="12" key="39" pan="0" vol="78" pos="24"/>
          <note len="12" key="39" pan="0" vol="78" pos="36"/>
          <note len="12" key="39" pan="0" vol="78" pos="48"/>
          <note len="12" key="39" pan="0" vol="78" pos="60"/>
          <note len="12" key="39" pan="0" vol="78" pos="72"/>
          <note len="12" key="39" pan="0" vol="78" pos="84"/>
          <note len="12" key="39" pan="0" vol="78" pos="96"/>
          <note len="12" key="39" pan="0" vol="78" pos="108"/>
          <note len="12" key="39" pan="0" vol="78" pos="120"/>
          <note len="12" key="39" pan="0" vol="78" pos="132"/>
          <note len="12" key="39" pan="0" vol="78" pos="144"/>
          <note len="12" key="39" pan="0" vol="78" pos="156"/>
          <note len="12" key="39" pan="0" vol="78" pos="168"/>
          <note len="12" key="39" pan="0" vol="78" pos="180"/>
          <note len="96" key="52" pan="0" vol="78" pos="192"/>
          <note len="96" key="45" pan="0" vol="78" pos="192"/>
          <note len="12" key="0" pan="0" vol="78" pos="192"/>
          <note len="96" key="51" pan="0" vol="78" pos="288"/>
          <note len="96" key="44" pan="0" vol="78" pos="288"/>
        </pattern>
        <pattern muted="0" name="" steps="16" type="1" pos="7296">
          <note len="12" key="45" pan="0" vol="191" pos="0"/>
          <note len="12" key="1" pan="0" vol="191" pos="0"/>
          <note len="12" key="45" pan="0" vol="191" pos="12"/>
          <note len="12" key="42" pan="0" vol="191" pos="24"/>
          <note len="12" key="42" pan="0" vol="191" pos="36"/>
          <note len="12" key="45" pan="0" vol="191" pos="48"/>
          <note len="12" key="45" pan="0" vol="191" pos="60"/>
          <note len="12" key="49" pan="0" vol="191" pos="72"/>
          <note len="12" key="49" pan="0" vol="191" pos="84"/>
          <note len="48" key="52" pan="0" vol="191" pos="96"/>
          <note len="12" key="0" pan="0" vol="191" pos="96"/>
          <note len="24" key="51" pan="0" vol="191" pos="144"/>
          <note len="24" key="49" pan="0" vol="191" pos="168"/>
          <note len="12" key="44" pan="0" vol="191" pos="192"/>
          <note len="12" key="1" pan="0" vol="191" pos="192"/>
          <note len="12" key="44" pan="0" vol="191" pos="204"/>
          <note len="12" key="42" pan="0" vol="191" pos="216"/>
          <note len="12" key="42" pan="0" vol="191" pos="228"/>
          <note len="12" key="40" pan="0" vol="191" pos="240"/>
          <note len="12" key="40" pan="0" vol="191" pos="252"/>
          <note len="12" key="39" pan="0" vol="191" pos="264"/>
          <note len="12" key="39" pan="0" vol="191" pos="276"/>
          <note len="12" key="37" pan="0" vol="191" pos="288"/>
          <note len="12" key="37" pan="0" vol="191" pos="300"/>
          <note len="12" key="39" pan="0" vol="191" pos="312"/>
          <note len="12" key="39" pan="0" vol="191" pos="324"/>
          <note len="12" key="40" pan="0" vol="191" pos="336"/>
          <note len="12" key="40" pan="0" vol="191" pos="348"/>
          <note len="12" key="44" pan="0" vol="191" pos="360"/>
          <note len="12" key="44" pan="0" vol="191" pos="372"/>
        </pattern>
        <pattern muted="0" name="" steps="16" type="1" pos="59520">
          <note len="48" key="46" pan="0" vol="78" pos="0"/>
          <note len="48" key="39" pan="0" vol="78" pos="0"/>
          <note len="24" key="0" pan="0" vol="78" pos="0"/>
          <note len="24" key="1" pan="0" vol="78" pos="24"/>
          <note len="12" key="39" pan="0" vol="78" pos="48"/>
          <note len="12" key="39" pan="0" vol="78" pos="60"/>
          <note len="12" key="39" pan="0" vol="78" pos="72"/>
          <note len="12" key="39" pan="0" vol="78" pos="84"/>
          <note len="12" key="39" pan="0" vol="78" pos="96"/>
          <note len="12" key="39" pan="0" vol="78" pos="108"/>
          <note len="12" key="39" pan="0" vol="78" pos="120"/>
          <note len="12" key="39" pan="0" vol="78" pos="132"/>
          <note len="12" key="39" pan="0" vol="78" pos="144"/>
          <note len="12" key="39" pan="0" vol="78" pos="156"/>
          <note len="12" key="39" pan="0" vol="78" pos="168"/>
          <note len="12" key="39" pan="0" vol="78" pos="180"/>
          <note len="12" key="39" pan="0" vol="78" pos="192"/>
          <note len="12" key="39" pan="0" vol="78" pos="204"/>
          <note len="12" key="39" pan="0" vol="78" pos="216"/>
          <note len="12" key="39" pan="0" vol="78" pos="228"/>
          <note len="12" key="39" pan="0" vol="78" pos="240"/>
          <note len="12" key="39" pan="0" vol="78" pos="252"/>
          <note len="12" key="39" pan="0" vol="78" pos="264"/>
          <note len="12" key="39" pan="0" vol="78" pos="276"/>
          <note len="12" key="39" pan="0" vol="78" pos="288"/>
          <note len="12" key="39" pan="0" vol="78" pos="300"/>
          <note len="12" key="39" pan="0" vol="78" pos="312"/>
          <note len="12" key="39" pan="0" vol="78" pos="324"/>
          <note len="12" key="39" pan="0" vol="78" pos="336"/>
          <note len="12" key="39" pan="0" vol="78" pos="348"/>
          <note len="12" key="39" pan="0" vol="78" pos="360"/>
          <note len="12" key="39" pan="0" vol="78" pos="372"/>
          <note len="48" key="44" pan="0" vol="78" pos="384"/>
          <note len="48" key="37" pan="0" vol="78" pos="384"/>
          <note len="24" key="0" pan="0" vol="78" pos="384"/>
          <note len="24" key="1" pan="0" vol="78" pos="408"/>
          <note len="12" key="37" pan="0" vol="78" pos="432"/>
          <note len="12" key="37" pan="0" vol="78" pos="444"/>
          <note len="12" key="37" pan="0" vol="78" pos="456"/>
          <note len="12" key="37" pan="0" vol="78" pos="468"/>
          <note len="12" key="37" pan="0" vol="78" pos="480"/>
          <note len="12" key="37" pan="0" vol="78" pos="492"/>
          <note len="12" key="37" pan="0" vol="78" pos="504"/>
          <note len="12" key="37" pan="0" vol="78" pos="516"/>
          <note len="12" key="37" pan="0" vol="78" pos="528"/>
          <note len="12" key="37" pan="0" vol="78" pos="540"/>
          <note len="12" key="37" pan="0" vol="78" pos="552"/>
          <note len="12" key="37" pan="0" vol="78" pos="564"/>
          <note len="12" key="37" pan="0" vol="78" pos="576"/>
          <note len="12" key="37" pan="0" vol="78" pos="588"/>
          <note len="12" key="37" pan="0" vol="78" pos="600"/>
          <note len="12" key="37" pan="0" vol="78" pos="612"/>
          <note len="12" key="37" pan="0" vol="78" pos="624"/>
          <note len="12" key="37" pan="0" vol="78" pos="636"/>
          <note len="12" key="37" pan="0" vol="78" pos="648"/>
          <note len="12" key="37" pan="0" vol="78" pos="660"/>
          <note len="12" key="37" pan="0" vol="78" pos="672"/>
          <note len="12" key="37" pan="0" vol="78" pos="684"/>
          <note len="12" key="37" pan="0" vol="78" pos="696"/>
          <note len="12" key="37" pan="0" vol="78" pos="708"/>
          <note len="12" key="37" pan="0" vol="78" pos="720"/>
          <note len="12" key="37" pan="0" vol="78" pos="732"/>
          <note len="12" key="37" pan="0" vol="78" pos="744"/>
          <note len="12" key="37" pan="0" vol="78" pos="756"/>
          <note len="48" key="44" pan="0" vol="78" pos="768"/>
          <note len="48" key="36" pan="0" vol="78" pos="768"/>
          <note len="24" key="0" pan="0" vol="78" pos="768"/>
          <note len="24" key="1" pan="0" vol="78" pos="792"/>
          <note len="12" key="36" pan="0" vol="78" pos="816"/>
          <note len="12" key="36" pan="0" vol="78" pos="828"/>
          <note len="12" key="36" pan="0" vol="78" pos="840"/>
          <note len="12" key="36" pan="0" vol="78" pos="852"/>
          <note len="12" key="36" pan="0" vol="78" pos="864"/>
          <note len="12" key="36" pan="0" vol="78" pos="876"/>
          <note len="12" key="36" pan="0" vol="78" pos="888"/>
          <note len="12" key="36" pan="0" vol="78" pos="900"/>
          <note len="12" key="36" pan="0" vol="78" pos="912"/>
          <note len="12" key="36" pan="0" vol="78" pos="924"/>
          <note len="12" key="36" pan="0" vol="78" pos="936"/>
          <note len="12" key="36" pan="0" vol="78" pos="948"/>
          <note len="12" key="36" pan="0" vol="78" pos="960"/>
          <note len="12" key="36" pan="0" vol="78" pos="972"/>
          <note len="12" key="36" pan="0" vol="78" pos="984"/>
          <note len="12" key="36" pan="0" vol="78" pos="996"/>
          <note len="12" key="36" pan="0" vol="78" pos="1008"/>
          <note len="12" key="36" pan="0" vol="78" pos="1020"/>
          <note len="12" key="36" pan="0" vol="78" pos="1032"/>
          <note len="12" key="36" pan="0" vol="78" pos="1044"/>
          <note len="12" key="36" pan="0" vol="78" pos="1056"/>
          <note len="12" key="36" pan="0" vol="78" pos="1068"/>
          <note len="12" key="36" pan="0" vol="78" pos="1080"/>
          <note len="12" key="36" pan="0" vol="78" pos="1092"/>
          <note len="12" key="36" pan="0" vol="78" pos="1104"/>
          <note len="12" key="36" pan="0" vol="78" pos="1116"/>
          <note len="12" key="36" pan="0" vol="78" pos="1128"/>
          <note len="12" key="36" pan="0" vol="78" pos="1140"/>
          <note len="48" key="47" pan="0" vol="78" pos="1152"/>
          <note len="48" key="40" pan="0" vol="78" pos="1152"/>
          <note len="24" key="0" pan="0" vol="78" pos="1152"/>
          <note len="24" key="1" pan="0" vol="78" pos="1176"/>
          <note len="12" key="40" pan="0" vol="78" pos="1200"/>
          <note len="12" key="40" pan="0" vol="78" pos="1212"/>
          <note len="12" key="40" pan="0" vol="78" pos="1224"/>
          <note len="12" key="40" pan="0" vol="78" pos="1236"/>
          <note len="12" key="40" pan="0" vol="78" pos="1248"/>
          <note len="12" key="40" pan="0" vol="78" pos="1260"/>
          <note len="12" key="40" pan="0" vol="78" pos="1272"/>
          <note len="12" key="40" pan="0" vol="78" pos="1284"/>
          <note len="12" key="40" pan="0" vol="78" pos="1296"/>
          <note len="12" key="40" pan="0" vol="78" pos="1308"/>
          <note len="12" key="40" pan="0" vol="78" pos="1320"/>
          <note len="12" key="40" pan="0" vol="78" pos="1332"/>
          <note len="12" key="40" pan="0" vol="78" pos="1344"/>
          <note len="12" key="40" pan="0" vol="78" pos="1356"/>
          <note len="12" key="40" pan="0" vol="78" pos="1368"/>
          <note len="12" key="40" pan="0" vol="78" pos="1380"/>
          <note len="12" key="40" pan="0" vol="78" pos="1392"/>
          <note len="12" key="40" pan="0" vol="78" pos="1404"/>
          <note len="12" key="40" pan="0" vol="78" pos="1416"/>
          <note len="12" key="40" pan="0" vol="78" pos="1428"/>
          <note len="12" key="40" pan="0" vol="78" pos="1440"/>
          <note len="12" key="40" pan="0" vol="78" pos="1452"/>
          <note len="12" key="40" pan="0" vol="78" pos="1464"/>
          <note len="12" key="40" pan="0" vol="78" pos="1476"/>
          <note len="12" key="40" pan="0" vol="78" pos="1488"/>
          <note len="12" key="40" pan="0" vol="78" pos="1500"/>
          <note len="12" key="40" pan="0" vol="78" pos="1512"/>
          <note len="12" key="40" pan="0" vol="78" pos="1524"/>
        </pattern>
        <pattern muted="0" name="" steps="16" type="1" pos="61056">
          <note len="48" key="46" pan="0" vol="78" pos="0"/>
          <note len="48" key="39" pan="0" vol="78" pos="0"/>
          <note len="24" key="0" pan="0" vol="78" pos="0"/>
          <note len="24" key="1" pan="0" vol="78" pos="24"/>
          <note len="12" key="39" pan="0" vol="78" pos="48"/>
          <note len="12" key="39" pan="0" vol="78" pos="60"/>
          <note len="12" key="39" pan="0" vol="78" pos="72"/>
          <note len="12" key="39" pan="0" vol="78" pos="84"/>
          <note len="12" key="39" pan="0" vol="78" pos="96"/>
          <note len="12" key="39" pan="0" vol="78" pos="108"/>
          <note len="12" key="39" pan="0" vol="78" pos="120"/>
          <note len="12" key="39" pan="0" vol="78" pos="132"/>
          <note len="12" key="39" pan="0" vol="78" pos="144"/>
          <note len="12" key="39" pan="0" vol="78" pos="156"/>
          <note len="12" key="39" pan="0" vol="78" pos="168"/>
          <note len="12" key="39" pan="0" vol="78" pos="180"/>
          <note len="12" key="39" pan="0" vol="78" pos="192"/>
          <note len="12" key="39" pan="0" vol="78" pos="204"/>
          <note len="12" key="39" pan="0" vol="78" pos="216"/>
          <note len="12" key="39" pan="0" vol="78" pos="228"/>
          <note len="12" key="39" pan="0" vol="78" pos="240"/>
          <note len="12" key="39" pan="0" vol="78" pos="252"/>
          <note len="12" key="39" pan="0" vol="78" pos="264"/>
          <note len="12" key="39" pan="0" vol="78" pos="276"/>
          <note len="12" key="39" pan="0" vol="78" pos="288"/>
          <note len="12" key="39" pan="0" vol="78" pos="300"/>
          <note len="12" key="39" pan="0" vol="78" pos="312"/>
          <note len="12" key="39" pan="0" vol="78" pos="324"/>
          <note len="12" key="39" pan="0" vol="78" pos="336"/>
          <note len="12" key="39" pan="0" vol="78" pos="348"/>
          <note len="12" key="39" pan="0" vol="78" pos="360"/>
          <note len="12" key="39" pan="0" vol="78" pos="372"/>
          <note len="48" key="44" pan="0" vol="78" pos="384"/>
          <note len="48" key="37" pan="0" vol="78" pos="384"/>
          <note len="24" key="0" pan="0" vol="78" pos="384"/>
          <note len="24" key="1" pan="0" vol="78" pos="408"/>
          <note len="12" key="37" pan="0" vol="78" pos="432"/>
          <note len="12" key="37" pan="0" vol="78" pos="444"/>
          <note len="12" key="37" pan="0" vol="78" pos="456"/>
          <note len="12" key="37" pan="0" vol="78" pos="468"/>
          <note len="12" key="37" pan="0" vol="78" pos="480"/>
          <note len="12" key="37" pan="0" vol="78" pos="492"/>
          <note len="12" key="37" pan="0" vol="78" pos="504"/>
          <note len="12" key="37" pan="0" vol="78" pos="516"/>
          <note len="12" key="37" pan="0" vol="78" pos="528"/>
          <note len="12" key="37" pan="0" vol="78" pos="540"/>
          <note len="12" key="37" pan="0" vol="78" pos="552"/>
          <note len="12" key="37" pan="0" vol="78" pos="564"/>
          <note len="12" key="37" pan="0" vol="78" pos="576"/>
          <note len="12" key="37" pan="0" vol="78" pos="588"/>
          <note len="12" key="37" pan="0" vol="78" pos="600"/>
          <note len="12" key="37" pan="0" vol="78" pos="612"/>
          <note len="12" key="37" pan="0" vol="78" pos="624"/>
          <note len="12" key="37" pan="0" vol="78" pos="636"/>
          <note len="12" key="37" pan="0" vol="78" pos="648"/>
          <note len="12" key="37" pan="0" vol="78" pos="660"/>
          <note len="12" key="37" pan="0" vol="78" pos="672"/>
          <note len="12" key="37" pan="0" vol="78" pos="684"/>
          <note len="12" key="37" pan="0" vol="78" pos="696"/>
          <note len="12" key="37" pan="0" vol="78" pos="708"/>
          <note len="12" key="37" pan="0" vol="78" pos="720"/>
          <note len="12" key="37" pan="0" vol="78" pos="732"/>
          <note len="12" key="37" pan="0" vol="78" pos="744"/>
          <note len="12" key="37" pan="0" vol="78" pos="756"/>
          <note len="48" key="44" pan="0" vol="78" pos="768"/>
          <note len="48" key="36" pan="0" vol="78" pos="768"/>
          <note len="24" key="0" pan="0" vol="78" pos="768"/>
          <note len="24" key="1" pan="0" vol="78" pos="792"/>
          <note len="12" key="36" pan="0" vol="78" pos="816"/>
          <note len="12" key="36" pan="0" vol="78" pos="828"/>
          <note len="12" key="36" pan="0" vol="78" pos="840"/>
          <note len="12" key="36" pan="0" vol="78" pos="852"/>
          <note len="12" key="36" pan="0" vol="78" pos="864"/>
          <note len="12" key="36" pan="0" vol="78" pos="876"/>
          <note len="12" key="36" pan="0" vol="78" pos="888"/>
          <note len="12" key="36" pan="0" vol="78" pos="900"/>
          <note len="12" key="36" pan="0" vol="78" pos="912"/>
          <note len="12" key="36" pan="0" vol="78" pos="924"/>
          <note len="12" key="36" pan="0" vol="78" pos="936"/>
          <note len="12" key="36" pan="0" vol="78" pos="948"/>
          <note len="12" key="36" pan="0" vol="78" pos="960"/>
          <note len="12" key="36" pan="0" vol="78" pos="972"/>
          <note len="12" key="36" pan="0" vol="78" pos="984"/>
          <note len="12" key="36" pan="0" vol="78" pos="996"/>
          <note len="12" key="36" pan="0" vol="78" pos="1008"/>
          <note len="12" key="36" pan="0" vol="78" pos="1020"/>
          <note len="12" key="36" pan="0" vol="78" pos="1032"/>
          <note len="12" key="36" pan="0" vol="78" pos="1044"/>
          <note len="12" key="36" pan="0" vol="78" pos="1056"/>
          <note len="12" key="36" pan="0" vol="78" pos="1068"/>
          <note len="12" key="36" pan="0" vol="78" pos="1080"/>
          <note len="12" key="36" pan="0" vol="78" pos="1092"/>
          <note len="12" key="36" pan="0" vol="78" pos="1104"/>
          <note len="12" key="36" pan="0" vol="78" pos="1116"/>
          <note len="12" key="36" pan="0" vol="78" pos="1128"/>
          <note len="12" key="36" pan="0" vol="78" pos="1140"/>
          <note len="48" key="47" pan="0" vol="78" pos="1152"/>
          <note len="48" key="40" pan="0" vol="78" pos="1152"/>
          <note len="24" key="0" pan="0" vol="78" pos="1152"/>
          <note len="24" key="1" pan="0" vol="78" pos="1176"/>
          <note len="12" key="40" pan="0" vol="78" pos="1200"/>
          <note len="12" key="40" pan="0" vol="78" pos="1212"/>
          <note len="12" key="40" pan="0" vol="78" pos="1224"/>
          <note len="12" key="40" pan="0" vol="78" pos="1236"/>
          <note len="12" key="40" pan="0" vol="78" pos="1248"/>
          <note len="12" key="40" pan="0" vol="78" pos="1260"/>
          <note len="12" key="40" pan="0" vol="78" pos="1272"/>
          <note len="12" key="40" pan="0" vol="78" pos="1284"/>
          <note len="12" key="40" pan="0" vol="78" pos="1296"/>
          <note len="12" key="40" pan="0" vol="78" pos="1308"/>
          <note len="12" key="40" pan="0" vol="78" pos="1320"/>
          <note len="12" key="40" pan="0" vol="78" pos="1332"/>
          <note len="12" key="40" pan="0" vol="78" pos="1344"/>
          <note len="12" key="40" pan="0" vol="78" pos="1356"/>
          <note len="12" key="40" pan="0" vol="78" pos="1368"/>
          <note len="12" key="40" pan="0" vol="78" pos="1380"/>
          <note len="12" key="40" pan="0" vol="78" pos="1392"/>
          <note len="12" key="40" pan="0" vol="78" pos="1404"/>
          <note len="12" key="40" pan="0" vol="78" pos="1416"/>
          <note len="12" key="40" pan="0" vol="78" pos="1428"/>
          <note len="12" key="40" pan="0" vol="78" pos="1440"/>
          <note len="12" key="40" pan="0" vol="78" pos="1452"/>
          <note len="12" key="40" pan="0" vol="78" pos="1464"/>
          <note len="12" key="40" pan="0" vol="78" pos="1476"/>
          <note len="12" key="40" pan="0" vol="78" pos="1488"/>
          <note len="12" key="40" pan="0" vol="78" pos="1500"/>
          <note len="12" key="40" pan="0" vol="78" pos="1512"/>
          <note len="12" key="40" pan="0" vol="78" pos="1524"/>
        </pattern>
        <pattern muted="0" name="" steps="16" type="1" pos="63744">
          <note len="12" key="42" pan="0" vol="197" pos="0"/>
          <note len="12" key="0" pan="0" vol="197" pos="0"/>
          <note len="12" key="39" pan="0" vol="197" pos="12"/>
          <note len="12" key="1" pan="0" vol="197" pos="12"/>
          <note len="12" key="41" pan="0" vol="197" pos="24"/>
          <note len="12" key="42" pan="0" vol="197" pos="36"/>
          <note len="12" key="44" pan="0" vol="197" pos="48"/>
          <note len="12" key="0" pan="0" vol="197" pos="48"/>
          <note len="12" key="41" pan="0" vol="197" pos="60"/>
          <note len="12" key="1" pan="0" vol="197" pos="60"/>
          <note len="12" key="42" pan="0" vol="197" pos="72"/>
          <note len="12" key="44" pan="0" vol="197" pos="84"/>
          <note len="12" key="46" pan="0" vol="197" pos="96"/>
          <note len="12" key="0" pan="0" vol="197" pos="96"/>
          <note len="12" key="42" pan="0" vol="197" pos="108"/>
          <note len="12" key="1" pan="0" vol="197" pos="108"/>
          <note len="12" key="44" pan="0" vol="197" pos="120"/>
          <note len="12" key="46" pan="0" vol="197" pos="132"/>
          <note len="12" key="47" pan="0" vol="197" pos="144"/>
          <note len="12" key="0" pan="0" vol="197" pos="144"/>
          <note len="12" key="44" pan="0" vol="197" pos="156"/>
          <note len="12" key="1" pan="0" vol="197" pos="156"/>
          <note len="12" key="46" pan="0" vol="197" pos="168"/>
          <note len="12" key="47" pan="0" vol="197" pos="180"/>
          <note len="12" key="49" pan="0" vol="197" pos="192"/>
          <note len="12" key="0" pan="0" vol="197" pos="192"/>
          <note len="12" key="47" pan="0" vol="197" pos="204"/>
          <note len="12" key="1" pan="0" vol="197" pos="204"/>
          <note len="12" key="46" pan="0" vol="197" pos="216"/>
          <note len="12" key="44" pan="0" vol="197" pos="228"/>
          <note len="12" key="42" pan="0" vol="197" pos="240"/>
          <note len="12" key="44" pan="0" vol="197" pos="252"/>
          <note len="12" key="47" pan="0" vol="197" pos="264"/>
          <note len="12" key="0" pan="0" vol="197" pos="264"/>
          <note len="12" key="46" pan="0" vol="197" pos="276"/>
          <note len="12" key="1" pan="0" vol="197" pos="276"/>
          <note len="12" key="44" pan="0" vol="197" pos="288"/>
          <note len="12" key="42" pan="0" vol="197" pos="300"/>
          <note len="12" key="41" pan="0" vol="197" pos="312"/>
          <note len="12" key="42" pan="0" vol="197" pos="324"/>
          <note len="12" key="46" pan="0" vol="197" pos="336"/>
          <note len="12" key="0" pan="0" vol="197" pos="336"/>
          <note len="12" key="44" pan="0" vol="197" pos="348"/>
          <note len="12" key="1" pan="0" vol="197" pos="348"/>
          <note len="12" key="42" pan="0" vol="197" pos="360"/>
          <note len="12" key="41" pan="0" vol="197" pos="372"/>
          <note len="12" key="39" pan="0" vol="197" pos="384"/>
          <note len="12" key="41" pan="0" vol="197" pos="396"/>
          <note len="12" key="44" pan="0" vol="200" pos="408"/>
          <note len="12" key="0" pan="0" vol="197" pos="408"/>
          <note len="12" key="42" pan="0" vol="200" pos="420"/>
          <note len="12" key="1" pan="0" vol="197" pos="420"/>
          <note len="12" key="41" pan="0" vol="200" pos="432"/>
          <note len="12" key="39" pan="0" vol="200" pos="444"/>
          <note len="12" key="37" pan="0" vol="200" pos="456"/>
          <note len="12" key="39" pan="0" vol="200" pos="468"/>
          <note len="12" key="42" pan="0" vol="200" pos="480"/>
          <note len="12" key="0" pan="0" vol="197" pos="480"/>
          <note len="12" key="41" pan="0" vol="200" pos="492"/>
          <note len="12" key="1" pan="0" vol="197" pos="492"/>
          <note len="12" key="39" pan="0" vol="200" pos="504"/>
          <note len="12" key="37" pan="0" vol="200" pos="516"/>
          <note len="12" key="41" pan="0" vol="200" pos="528"/>
          <note len="12" key="0" pan="0" vol="197" pos="528"/>
          <note len="12" key="39" pan="0" vol="200" pos="540"/>
          <note len="12" key="1" pan="0" vol="197" pos="540"/>
          <note len="12" key="37" pan="0" vol="200" pos="552"/>
          <note len="12" key="39" pan="0" vol="200" pos="564"/>
        </pattern>
        <pattern muted="0" name="" steps="16" type="1" pos="62592">
          <note len="192" key="46" pan="0" vol="197" pos="0"/>
          <note len="192" key="39" pan="0" vol="197" pos="0"/>
          <note len="48" key="0" pan="0" vol="78" pos="0"/>
          <note len="192" key="53" pan="0" vol="197" pos="192"/>
          <note len="192" key="46" pan="0" vol="197" pos="192"/>
          <note len="192" key="54" pan="0" vol="197" pos="384"/>
          <note len="192" key="47" pan="0" vol="197" pos="384"/>
          <note len="192" key="56" pan="0" vol="197" pos="576"/>
          <note len="192" key="49" pan="0" vol="197" pos="576"/>
          <note len="12" key="1" pan="0" vol="197" pos="756"/>
          <note len="12" key="44" pan="0" vol="197" pos="768"/>
          <note len="12" key="44" pan="0" vol="197" pos="780"/>
          <note len="12" key="44" pan="0" vol="197" pos="792"/>
          <note len="12" key="44" pan="0" vol="197" pos="804"/>
          <note len="12" key="44" pan="0" vol="197" pos="816"/>
          <note len="12" key="44" pan="0" vol="197" pos="828"/>
          <note len="12" key="44" pan="0" vol="197" pos="840"/>
          <note len="12" key="44" pan="0" vol="197" pos="852"/>
          <note len="12" key="44" pan="0" vol="197" pos="864"/>
          <note len="12" key="44" pan="0" vol="197" pos="876"/>
          <note len="12" key="44" pan="0" vol="197" pos="888"/>
          <note len="12" key="44" pan="0" vol="197" pos="900"/>
          <note len="12" key="44" pan="0" vol="197" pos="912"/>
          <note len="12" key="44" pan="0" vol="197" pos="924"/>
          <note len="12" key="44" pan="0" vol="197" pos="936"/>
          <note len="12" key="44" pan="0" vol="197" pos="948"/>
          <note len="12" key="46" pan="0" vol="197" pos="960"/>
          <note len="12" key="46" pan="0" vol="197" pos="972"/>
          <note len="12" key="46" pan="0" vol="197" pos="984"/>
          <note len="12" key="46" pan="0" vol="197" pos="996"/>
          <note len="12" key="46" pan="0" vol="197" pos="1008"/>
          <note len="12" key="46" pan="0" vol="197" pos="1020"/>
          <note len="12" key="46" pan="0" vol="197" pos="1032"/>
          <note len="12" key="46" pan="0" vol="197" pos="1044"/>
          <note len="12" key="46" pan="0" vol="197" pos="1056"/>
          <note len="12" key="46" pan="0" vol="197" pos="1068"/>
          <note len="12" key="46" pan="0" vol="197" pos="1080"/>
          <note len="12" key="46" pan="0" vol="197" pos="1092"/>
          <note len="12" key="46" pan="0" vol="197" pos="1104"/>
          <note len="12" key="46" pan="0" vol="197" pos="1116"/>
          <note len="12" key="46" pan="0" vol="197" pos="1128"/>
          <note len="12" key="46" pan="0" vol="197" pos="1140"/>
        </pattern>
        <pattern muted="0" name="" steps="16" type="1" pos="64320">
          <note len="192" key="46" pan="0" vol="197" pos="0"/>
          <note len="192" key="39" pan="0" vol="197" pos="0"/>
          <note len="192" key="0" pan="0" vol="197" pos="0"/>
        </pattern>
      </track>
      <track muted="1" name="Lead Guitar S" type="0" solo="0" mutedBeforeSolo="0">
        <instrumenttrack usemasterpitch="1" pitchrange="1" pitch="0" pan="0" basenote="57" vol="200" fxch="13">
          <instrument name="carlapatchbay">
            <carlapatchbay>
              <CARLA-PROJECT VERSION="2.2">
                <EngineSettings>
                  <ForceStereo>false</ForceStereo>
                  <PreferPluginBridges>false</PreferPluginBridges>
                  <PreferUiBridges>true</PreferUiBridges>
                  <UIsAlwaysOnTop>false</UIsAlwaysOnTop>
                  <MaxParameters>200</MaxParameters>
                  <UIBridgesTimeout>4000</UIBridgesTimeout>
                  <LADSPA_PATH>/home/pass/.ladspa:/usr/lib/ladspa:/usr/local/lib/ladspa</LADSPA_PATH>
                  <DSSI_PATH>/home/pass/.dssi:/usr/lib/dssi:/usr/local/lib/dssi</DSSI_PATH>
                  <LV2_PATH>/home/pass/.lv2:/usr/lib/lv2:/usr/local/lib/lv2</LV2_PATH>
                  <VST2_PATH>/home/pass/.vst:/home/pass/.wine/drive_c/Program Files (x86)/VstPlugins:/home/pass/.wine/drive_c/Program Files/VstPlugins:/usr/lib/lxvst:/usr/lib/vst:/usr/local/lib/lxvst:/usr/local/lib/vst/home/pass/.lxvst:/home/pass/vst</VST2_PATH>
                  <VST3_PATH>/home/pass/.vst3:/home/pass/.wine/drive_c/Program Files (x86)/Common Files/VST3:/home/pass/.wine/drive_c/Program Files/Common Files/VST3:/usr/lib/vst3:/usr/local/lib/vst3</VST3_PATH>
                  <SF2_PATH>/home/pass/.sounds/sf2/home/pass/.sounds/sf3:/usr/share/soundfonts:/usr/share/sounds/sf2:/usr/share/sounds/sf3</SF2_PATH>
                  <SFZ_PATH>/home/pass/.sounds/sfz:/home/pass/samples:/usr/share/sounds/sfz</SFZ_PATH>
                </EngineSettings>
                <!-- sfizz -->
                <Plugin>
                  <Info>
                    <Type>LV2</Type>
                    <Name>sfizz</Name>
                    <URI>http://sfztools.github.io/sfizz</URI>
                  </Info>
                  <Data>
                    <Active>Yes</Active>
                    <ControlChannel>1</ControlChannel>
                    <Options>0x3f0</Options>
                    <Parameter>
                      <Index>0</Index>
                      <Name>Volume</Name>
                      <Symbol>volume</Symbol>
                      <Value>0</Value>
                    </Parameter>
                    <Parameter>
                      <Index>1</Index>
                      <Name>Polyphony</Name>
                      <Symbol>num_voices</Symbol>
                      <Value>64</Value>
                    </Parameter>
                    <Parameter>
                      <Index>2</Index>
                      <Name>Internal oversampling factor</Name>
                      <Symbol>oversampling</Symbol>
                      <Value>1</Value>
                    </Parameter>
                    <Parameter>
                      <Index>3</Index>
                      <Name>Preload size</Name>
                      <Symbol>preload_size</Symbol>
                      <Value>8192</Value>
                    </Parameter>
                    <Parameter>
                      <Index>5</Index>
                      <Name>Scala root key</Name>
                      <Symbol>scala_root_key</Symbol>
                      <Value>60</Value>
                    </Parameter>
                    <Parameter>
                      <Index>6</Index>
                      <Name>Tuning frequency</Name>
                      <Symbol>tuning_frequency</Symbol>
                      <Value>440</Value>
                    </Parameter>
                    <Parameter>
                      <Index>7</Index>
                      <Name>Stretched tuning</Name>
                      <Symbol>stretched_tuning</Symbol>
                      <Value>0</Value>
                    </Parameter>
                    <CustomData>
                      <Type>http://lv2plug.in/ns/ext/atom#Path</Type>
                      <Key>http://sfztools.github.io/sfizz:sfzfile</Key>
                      <Value>_fakeguitar1_integrated.sfz</Value>
                    </CustomData>
                    <CustomData>
                      <Type>http://lv2plug.in/ns/ext/atom#Int</Type>
                      <Key>http://sfztools.github.io/sfizz:numvoices</Key>
                      <Value>QAAAAA==</Value>
                    </CustomData>
                    <CustomData>
                      <Type>http://lv2plug.in/ns/ext/atom#Int</Type>
                      <Key>http://sfztools.github.io/sfizz:preload_size</Key>
                      <Value>ACAAAA==</Value>
                    </CustomData>
                    <CustomData>
                      <Type>http://lv2plug.in/ns/ext/atom#Int</Type>
                      <Key>http://sfztools.github.io/sfizz:oversampling</Key>
                      <Value>AQAAAA==</Value>
                    </CustomData>
                    <CustomData>
                      <Type>http://lv2plug.in/ns/ext/atom#Path</Type>
                      <Key>http://sfztools.github.io/sfizz:tuningfile</Key>
                      <Value>DefaultScale.scl</Value>
                    </CustomData>
                  </Data>
                </Plugin>
                <Patchbay>
                  <Connection>
                    <Source>Midi Input:Capture 1</Source>
                    <Target>sfizz:events-in</Target>
                  </Connection>
                  <Connection>
                    <Source>sfizz:Left Output</Source>
                    <Target>Audio Output:Left</Target>
                  </Connection>
                  <Connection>
                    <Source>sfizz:Right Output</Source>
                    <Target>Audio Output:Right</Target>
                  </Connection>
                  <Positions>
                    <Position y1="1353" x1="1693" pluginId="0">
                      <Name>sfizz</Name>
                    </Position>
                  </Positions>
                </Patchbay>
              </CARLA-PROJECT>
              <key/>
            </carlapatchbay>
          </instrument>
          <eldata fcut="14000" fwet="0" fres="0.5" ftype="0">
            <elvol rel="0.1" lspd_syncmode="0" pdel="0" lspd_numerator="4" lpdel="0" amt="0" ctlenvamt="0" lshp="0" userwavefile="" dec="0.5" lspd_denominator="4" sustain="0.5" lspd="0.1" latt="0" hold="0.5" att="0" x100="0" lamt="0"/>
            <elcut rel="0.1" lspd_syncmode="0" pdel="0" lspd_numerator="4" lpdel="0" amt="0" ctlenvamt="0" lshp="0" userwavefile="" dec="0.5" lspd_denominator="4" sustain="0.5" lspd="0.1" latt="0" hold="0.5" att="0" x100="0" lamt="0"/>
            <elres rel="0.1" lspd_syncmode="0" pdel="0" lspd_numerator="4" lpdel="0" amt="0" ctlenvamt="0" lshp="0" userwavefile="" dec="0.5" lspd_denominator="4" sustain="0.5" lspd="0.1" latt="0" hold="0.5" att="0" x100="0" lamt="0"/>
          </eldata>
          <chordcreator chord="0" chordrange="1" chord-enabled="0"/>
          <arpeggiator arptime_denominator="4" arptime="200" arp-enabled="0" arpcycle="0" arpgate="100" arp="0" arpmiss="0" arpdir="0" arprange="1" arpmode="0" arpskip="0" arptime_syncmode="0" arptime_numerator="4"/>
          <midiport inputcontroller="0" fixedinputvelocity="-1" readable="0" outputcontroller="0" fixedoutputnote="-1" outputprogram="1" writable="0" fixedoutputvelocity="-1" basevelocity="63" outputchannel="1" inputchannel="0"/>
          <fxchain enabled="0" numofeffects="0"/>
        </instrumenttrack>
        <pattern muted="0" name="" steps="16" type="1" pos="3456">
          <note len="144" key="73" pan="0" vol="78" pos="0"/>
          <note len="144" key="0" pan="0" vol="78" pos="0"/>
          <note len="48" key="76" pan="0" vol="78" pos="144"/>
          <note len="144" key="75" pan="0" vol="78" pos="192"/>
          <note len="48" key="80" pan="0" vol="78" pos="336"/>
          <note len="144" key="80" pan="0" vol="78" pos="384"/>
          <note len="24" key="78" pan="0" vol="78" pos="528"/>
          <note len="24" key="76" pan="0" vol="78" pos="552"/>
          <note len="48" key="75" pan="0" vol="78" pos="576"/>
          <note len="48" key="76" pan="0" vol="78" pos="624"/>
          <note len="48" key="71" pan="0" vol="78" pos="672"/>
          <note len="48" key="68" pan="0" vol="78" pos="720"/>
          <note len="144" key="69" pan="0" vol="78" pos="768"/>
          <note len="48" key="76" pan="0" vol="78" pos="912"/>
          <note len="144" key="75" pan="0" vol="78" pos="960"/>
          <note len="48" key="78" pan="0" vol="78" pos="1104"/>
          <note len="96" key="76" pan="0" vol="197" pos="1152"/>
          <note len="48" key="80" pan="0" vol="197" pos="1248"/>
          <note len="48" key="76" pan="0" vol="197" pos="1296"/>
          <note len="48" key="78" pan="0" vol="197" pos="1344"/>
          <note len="48" key="83" pan="0" vol="197" pos="1392"/>
          <note len="48" key="80" pan="0" vol="197" pos="1440"/>
          <note len="48" key="87" pan="0" vol="197" pos="1488"/>
        </pattern>
        <pattern muted="0" name="" steps="16" type="1" pos="6144">
          <note len="120" key="69" pan="0" vol="78" pos="384"/>
          <note len="24" key="68" pan="0" vol="78" pos="504"/>
          <note len="24" key="69" pan="0" vol="78" pos="528"/>
          <note len="24" key="71" pan="0" vol="78" pos="552"/>
          <note len="72" key="73" pan="0" vol="78" pos="576"/>
          <note len="72" key="71" pan="0" vol="78" pos="648"/>
          <note len="48" key="69" pan="0" vol="78" pos="720"/>
          <note len="24" key="68" pan="0" vol="78" pos="768"/>
          <note len="24" key="69" pan="0" vol="78" pos="792"/>
          <note len="24" key="68" pan="0" vol="78" pos="816"/>
          <note len="48" key="64" pan="0" vol="78" pos="840"/>
          <note len="24" key="64" pan="0" vol="78" pos="888"/>
          <note len="24" key="66" pan="0" vol="78" pos="912"/>
          <note len="24" key="68" pan="0" vol="78" pos="936"/>
          <note len="96" key="66" pan="0" vol="78" pos="960"/>
        </pattern>
        <pattern muted="0" name="" steps="16" type="1" pos="4992">
          <note len="24" key="61" pan="0" vol="78" pos="0"/>
          <note len="48" key="0" pan="0" vol="100" pos="0"/>
          <note len="24" key="63" pan="0" vol="78" pos="24"/>
          <note len="24" key="61" pan="0" vol="78" pos="48"/>
          <note len="48" key="68" pan="0" vol="78" pos="72"/>
          <note len="24" key="61" pan="0" vol="78" pos="120"/>
          <note len="24" key="64" pan="0" vol="78" pos="144"/>
          <note len="24" key="68" pan="0" vol="78" pos="168"/>
          <note len="24" key="71" pan="0" vol="78" pos="192"/>
          <note len="24" key="69" pan="0" vol="78" pos="216"/>
          <note len="24" key="68" pan="0" vol="78" pos="240"/>
          <note len="48" key="69" pan="0" vol="78" pos="264"/>
          <note len="24" key="68" pan="0" vol="78" pos="312"/>
          <note len="24" key="66" pan="0" vol="78" pos="336"/>
          <note len="24" key="68" pan="0" vol="78" pos="360"/>
        </pattern>
        <pattern muted="0" name="" steps="16" type="1" pos="5760">
          <note len="24" key="61" pan="0" vol="78" pos="0"/>
          <note len="48" key="0" pan="0" vol="100" pos="0"/>
          <note len="24" key="63" pan="0" vol="78" pos="24"/>
          <note len="24" key="61" pan="0" vol="78" pos="48"/>
          <note len="48" key="68" pan="0" vol="78" pos="72"/>
          <note len="24" key="61" pan="0" vol="78" pos="120"/>
          <note len="24" key="64" pan="0" vol="78" pos="144"/>
          <note len="24" key="68" pan="0" vol="78" pos="168"/>
          <note len="24" key="71" pan="0" vol="78" pos="192"/>
          <note len="24" key="73" pan="0" vol="78" pos="216"/>
          <note len="24" key="75" pan="0" vol="78" pos="240"/>
          <note len="48" key="73" pan="0" vol="78" pos="264"/>
          <note len="24" key="75" pan="0" vol="78" pos="312"/>
          <note len="24" key="76" pan="0" vol="78" pos="336"/>
          <note len="24" key="78" pan="0" vol="78" pos="360"/>
        </pattern>
        <pattern muted="0" name="" steps="16" type="1" pos="12672">
          <note len="24" key="61" pan="0" vol="78" pos="0"/>
          <note len="12" key="1" pan="0" vol="197" pos="0"/>
          <note len="24" key="63" pan="0" vol="78" pos="24"/>
          <note len="24" key="61" pan="0" vol="78" pos="48"/>
          <note len="12" key="0" pan="0" vol="197" pos="60"/>
          <note len="48" key="68" pan="0" vol="78" pos="72"/>
          <note len="24" key="61" pan="0" vol="78" pos="120"/>
          <note len="24" key="64" pan="0" vol="78" pos="144"/>
          <note len="24" key="68" pan="0" vol="78" pos="168"/>
          <note len="24" key="71" pan="0" vol="78" pos="192"/>
          <note len="24" key="69" pan="0" vol="78" pos="216"/>
          <note len="24" key="68" pan="0" vol="78" pos="240"/>
          <note len="48" key="69" pan="0" vol="78" pos="264"/>
          <note len="24" key="68" pan="0" vol="78" pos="312"/>
          <note len="24" key="66" pan="0" vol="78" pos="336"/>
          <note len="24" key="68" pan="0" vol="78" pos="360"/>
        </pattern>
        <pattern muted="0" name="" steps="16" type="1" pos="13440">
          <note len="24" key="61" pan="0" vol="78" pos="0"/>
          <note len="24" key="63" pan="0" vol="78" pos="24"/>
          <note len="24" key="61" pan="0" vol="78" pos="48"/>
          <note len="48" key="68" pan="0" vol="78" pos="72"/>
          <note len="24" key="61" pan="0" vol="78" pos="120"/>
          <note len="24" key="64" pan="0" vol="78" pos="144"/>
          <note len="24" key="68" pan="0" vol="78" pos="168"/>
          <note len="24" key="71" pan="0" vol="78" pos="192"/>
          <note len="24" key="73" pan="0" vol="78" pos="216"/>
          <note len="24" key="75" pan="0" vol="78" pos="240"/>
          <note len="48" key="73" pan="0" vol="78" pos="264"/>
          <note len="24" key="75" pan="0" vol="78" pos="312"/>
          <note len="24" key="76" pan="0" vol="78" pos="336"/>
          <note len="24" key="78" pan="0" vol="78" pos="360"/>
        </pattern>
        <pattern muted="0" name="" steps="16" type="1" pos="13824">
          <note len="120" key="69" pan="0" vol="78" pos="384"/>
          <note len="24" key="68" pan="0" vol="78" pos="504"/>
          <note len="24" key="69" pan="0" vol="78" pos="528"/>
          <note len="24" key="71" pan="0" vol="78" pos="552"/>
          <note len="72" key="73" pan="0" vol="78" pos="576"/>
          <note len="72" key="71" pan="0" vol="78" pos="648"/>
          <note len="48" key="69" pan="0" vol="78" pos="720"/>
          <note len="24" key="68" pan="0" vol="78" pos="768"/>
          <note len="24" key="69" pan="0" vol="78" pos="792"/>
          <note len="24" key="68" pan="0" vol="78" pos="816"/>
          <note len="48" key="64" pan="0" vol="78" pos="840"/>
          <note len="24" key="64" pan="0" vol="78" pos="888"/>
          <note len="24" key="66" pan="0" vol="78" pos="912"/>
          <note len="24" key="68" pan="0" vol="78" pos="936"/>
          <note len="96" key="66" pan="0" vol="78" pos="960"/>
        </pattern>
        <pattern muted="0" name="" steps="16" type="1" pos="11904">
          <note len="12" key="68" pan="0" vol="78" pos="0"/>
          <note len="24" key="0" pan="0" vol="78" pos="0"/>
          <note len="12" key="64" pan="0" vol="78" pos="12"/>
          <note len="12" key="61" pan="0" vol="78" pos="24"/>
          <note len="24" key="1" pan="0" vol="78" pos="24"/>
          <note len="12" key="56" pan="0" vol="78" pos="36"/>
          <note len="12" key="61" pan="0" vol="78" pos="48"/>
          <note len="12" key="64" pan="0" vol="78" pos="60"/>
          <note len="12" key="73" pan="0" vol="78" pos="72"/>
          <note len="24" key="0" pan="0" vol="78" pos="72"/>
          <note len="12" key="69" pan="0" vol="78" pos="84"/>
          <note len="12" key="68" pan="0" vol="78" pos="96"/>
          <note len="24" key="1" pan="0" vol="78" pos="96"/>
          <note len="12" key="64" pan="0" vol="78" pos="108"/>
          <note len="12" key="68" pan="0" vol="78" pos="120"/>
          <note len="12" key="73" pan="0" vol="78" pos="132"/>
          <note len="12" key="76" pan="0" vol="78" pos="144"/>
          <note len="24" key="0" pan="0" vol="78" pos="144"/>
          <note len="12" key="71" pan="0" vol="78" pos="156"/>
          <note len="12" key="68" pan="0" vol="78" pos="168"/>
          <note len="24" key="1" pan="0" vol="78" pos="168"/>
          <note len="12" key="64" pan="0" vol="78" pos="180"/>
          <note len="12" key="68" pan="0" vol="78" pos="192"/>
          <note len="12" key="71" pan="0" vol="78" pos="204"/>
          <note len="12" key="81" pan="0" vol="78" pos="216"/>
          <note len="24" key="0" pan="0" vol="78" pos="216"/>
          <note len="12" key="78" pan="0" vol="78" pos="228"/>
          <note len="12" key="74" pan="0" vol="78" pos="240"/>
          <note len="24" key="1" pan="0" vol="78" pos="240"/>
          <note len="12" key="69" pan="0" vol="78" pos="252"/>
          <note len="12" key="66" pan="0" vol="78" pos="264"/>
          <note len="12" key="69" pan="0" vol="78" pos="276"/>
          <note len="12" key="73" pan="0" vol="78" pos="288"/>
          <note len="24" key="0" pan="0" vol="78" pos="288"/>
          <note len="12" key="69" pan="0" vol="78" pos="300"/>
          <note len="12" key="66" pan="0" vol="78" pos="312"/>
          <note len="24" key="1" pan="0" vol="78" pos="312"/>
          <note len="12" key="61" pan="0" vol="78" pos="324"/>
          <note len="12" key="68" pan="0" vol="78" pos="336"/>
          <note len="24" key="0" pan="0" vol="78" pos="336"/>
          <note len="12" key="64" pan="0" vol="78" pos="348"/>
          <note len="12" key="61" pan="0" vol="78" pos="360"/>
          <note len="24" key="1" pan="0" vol="78" pos="360"/>
          <note len="12" key="56" pan="0" vol="78" pos="372"/>
          <note len="12" key="69" pan="0" vol="78" pos="384"/>
          <note len="24" key="0" pan="0" vol="78" pos="384"/>
          <note len="12" key="66" pan="0" vol="78" pos="396"/>
          <note len="12" key="57" pan="0" vol="78" pos="408"/>
          <note len="24" key="1" pan="0" vol="78" pos="408"/>
          <note len="12" key="54" pan="0" vol="78" pos="420"/>
          <note len="12" key="57" pan="0" vol="78" pos="432"/>
          <note len="12" key="62" pan="0" vol="78" pos="444"/>
          <note len="12" key="74" pan="0" vol="78" pos="456"/>
          <note len="24" key="0" pan="0" vol="78" pos="456"/>
          <note len="12" key="69" pan="0" vol="78" pos="468"/>
          <note len="12" key="66" pan="0" vol="78" pos="480"/>
          <note len="24" key="1" pan="0" vol="78" pos="480"/>
          <note len="12" key="61" pan="0" vol="78" pos="492"/>
          <note len="12" key="57" pan="0" vol="78" pos="504"/>
          <note len="12" key="54" pan="0" vol="78" pos="516"/>
          <note len="12" key="78" pan="0" vol="78" pos="528"/>
          <note len="24" key="0" pan="0" vol="78" pos="528"/>
          <note len="12" key="74" pan="0" vol="78" pos="540"/>
          <note len="12" key="69" pan="0" vol="78" pos="552"/>
          <note len="24" key="1" pan="0" vol="78" pos="552"/>
          <note len="12" key="66" pan="0" vol="78" pos="564"/>
          <note len="12" key="69" pan="0" vol="78" pos="576"/>
          <note len="12" key="74" pan="0" vol="78" pos="588"/>
          <note len="12" key="81" pan="0" vol="78" pos="600"/>
          <note len="24" key="0" pan="0" vol="78" pos="600"/>
          <note len="12" key="78" pan="0" vol="78" pos="612"/>
          <note len="12" key="73" pan="0" vol="78" pos="624"/>
          <note len="24" key="1" pan="0" vol="78" pos="624"/>
          <note len="12" key="69" pan="0" vol="78" pos="636"/>
          <note len="12" key="66" pan="0" vol="78" pos="648"/>
          <note len="12" key="61" pan="0" vol="78" pos="660"/>
          <note len="12" key="74" pan="0" vol="78" pos="672"/>
          <note len="24" key="0" pan="0" vol="78" pos="672"/>
          <note len="12" key="71" pan="0" vol="78" pos="684"/>
          <note len="12" key="66" pan="0" vol="78" pos="696"/>
          <note len="24" key="1" pan="0" vol="78" pos="696"/>
          <note len="12" key="61" pan="0" vol="78" pos="708"/>
          <note len="12" key="69" pan="0" vol="78" pos="720"/>
          <note len="24" key="0" pan="0" vol="78" pos="720"/>
          <note len="12" key="66" pan="0" vol="78" pos="732"/>
          <note len="12" key="61" pan="0" vol="78" pos="744"/>
          <note len="24" key="1" pan="0" vol="78" pos="744"/>
          <note len="12" key="57" pan="0" vol="78" pos="756"/>
        </pattern>
        <pattern muted="0" name="" steps="16" type="1" pos="28800">
          <note len="24" key="56" pan="0" vol="200" pos="0"/>
          <note len="24" key="1" pan="0" vol="200" pos="0"/>
          <note len="24" key="61" pan="0" vol="200" pos="24"/>
          <note len="24" key="0" pan="0" vol="200" pos="36"/>
          <note len="24" key="63" pan="0" vol="200" pos="48"/>
          <note len="24" key="1" pan="0" vol="200" pos="60"/>
          <note len="24" key="56" pan="0" vol="200" pos="72"/>
          <note len="24" key="0" pan="0" vol="200" pos="84"/>
          <note len="24" key="64" pan="0" vol="200" pos="96"/>
          <note len="24" key="1" pan="0" vol="200" pos="108"/>
          <note len="24" key="63" pan="0" vol="200" pos="120"/>
          <note len="24" key="59" pan="0" vol="200" pos="144"/>
          <note len="24" key="61" pan="0" vol="200" pos="168"/>
          <note len="48" key="0" pan="0" vol="200" pos="180"/>
          <note len="48" key="63" pan="0" vol="200" pos="192"/>
          <note len="12" key="64" pan="0" vol="200" pos="240"/>
          <note len="12" key="63" pan="0" vol="200" pos="252"/>
          <note len="48" key="61" pan="0" vol="200" pos="264"/>
          <note len="12" key="1" pan="0" vol="200" pos="300"/>
          <note len="12" key="56" pan="0" vol="200" pos="312"/>
          <note len="12" key="59" pan="0" vol="200" pos="324"/>
          <note len="12" key="61" pan="0" vol="200" pos="336"/>
          <note len="12" key="59" pan="0" vol="200" pos="348"/>
          <note len="12" key="54" pan="0" vol="200" pos="360"/>
          <note len="12" key="56" pan="0" vol="200" pos="372"/>
          <note len="12" key="54" pan="0" vol="131" pos="384"/>
          <note len="12" key="2" pan="0" vol="131" pos="384"/>
          <note len="12" key="56" pan="0" vol="131" pos="396"/>
          <note len="12" key="54" pan="0" vol="131" pos="408"/>
          <note len="12" key="52" pan="0" vol="131" pos="420"/>
          <note len="12" key="54" pan="0" vol="131" pos="432"/>
          <note len="12" key="52" pan="0" vol="131" pos="444"/>
          <note len="12" key="49" pan="0" vol="131" pos="456"/>
          <note len="12" key="47" pan="0" vol="131" pos="468"/>
          <note len="12" key="49" pan="0" vol="131" pos="480"/>
          <note len="12" key="52" pan="0" vol="131" pos="492"/>
          <note len="12" key="54" pan="0" vol="131" pos="504"/>
          <note len="12" key="52" pan="0" vol="131" pos="516"/>
          <note len="12" key="54" pan="0" vol="131" pos="528"/>
          <note len="12" key="56" pan="0" vol="131" pos="540"/>
          <note len="12" key="59" pan="0" vol="131" pos="552"/>
          <note len="12" key="61" pan="0" vol="131" pos="564"/>
          <note len="12" key="63" pan="0" vol="131" pos="576"/>
          <note len="12" key="61" pan="0" vol="131" pos="588"/>
          <note len="12" key="63" pan="0" vol="131" pos="600"/>
          <note len="12" key="64" pan="0" vol="131" pos="612"/>
          <note len="12" key="1" pan="0" vol="131" pos="612"/>
          <note len="12" key="66" pan="0" vol="131" pos="624"/>
          <note len="12" key="64" pan="0" vol="131" pos="636"/>
          <note len="12" key="66" pan="0" vol="131" pos="648"/>
          <note len="12" key="68" pan="0" vol="131" pos="660"/>
          <note len="12" key="69" pan="0" vol="131" pos="672"/>
          <note len="12" key="68" pan="0" vol="131" pos="684"/>
          <note len="12" key="69" pan="0" vol="131" pos="696"/>
          <note len="12" key="71" pan="0" vol="131" pos="708"/>
          <note len="48" key="0" pan="0" vol="131" pos="708"/>
          <note len="48" key="73" pan="0" vol="131" pos="720"/>
        </pattern>
        <pattern muted="0" name="" steps="16" type="1" pos="29568">
          <note len="12" key="80" pan="0" vol="200" pos="0"/>
          <note len="12" key="78" pan="0" vol="200" pos="12"/>
          <note len="12" key="76" pan="0" vol="200" pos="24"/>
          <note len="12" key="73" pan="0" vol="200" pos="36"/>
          <note len="12" key="71" pan="0" vol="200" pos="48"/>
          <note len="12" key="73" pan="0" vol="200" pos="60"/>
          <note len="12" key="78" pan="0" vol="200" pos="72"/>
          <note len="12" key="76" pan="0" vol="200" pos="84"/>
          <note len="12" key="73" pan="0" vol="200" pos="96"/>
          <note len="12" key="76" pan="0" vol="200" pos="108"/>
          <note len="12" key="80" pan="0" vol="200" pos="120"/>
          <note len="12" key="78" pan="0" vol="200" pos="132"/>
          <note len="12" key="76" pan="0" vol="200" pos="144"/>
          <note len="12" key="73" pan="0" vol="200" pos="156"/>
          <note len="12" key="76" pan="0" vol="200" pos="168"/>
          <note len="12" key="78" pan="0" vol="200" pos="180"/>
        </pattern>
        <pattern muted="0" name="" steps="16" type="1" pos="29760">
          <note len="12" key="80" pan="0" vol="200" pos="0"/>
          <note len="12" key="78" pan="0" vol="200" pos="12"/>
          <note len="12" key="76" pan="0" vol="200" pos="24"/>
          <note len="12" key="73" pan="0" vol="200" pos="36"/>
          <note len="12" key="71" pan="0" vol="200" pos="48"/>
          <note len="12" key="73" pan="0" vol="200" pos="60"/>
          <note len="12" key="78" pan="0" vol="200" pos="72"/>
          <note len="12" key="76" pan="0" vol="200" pos="84"/>
          <note len="12" key="73" pan="0" vol="200" pos="96"/>
          <note len="12" key="76" pan="0" vol="200" pos="108"/>
          <note len="12" key="83" pan="0" vol="200" pos="120"/>
          <note len="12" key="80" pan="0" vol="200" pos="132"/>
          <note len="12" key="78" pan="0" vol="200" pos="144"/>
          <note len="12" key="80" pan="0" vol="200" pos="156"/>
          <note len="12" key="78" pan="0" vol="200" pos="168"/>
          <note len="12" key="76" pan="0" vol="200" pos="180"/>
        </pattern>
        <pattern muted="0" name="" steps="16" type="1" pos="29952">
          <note len="12" key="85" pan="0" vol="197" pos="0"/>
          <note len="48" key="0" pan="0" vol="197" pos="0"/>
          <note len="12" key="83" pan="0" vol="197" pos="12"/>
          <note len="12" key="80" pan="0" vol="197" pos="24"/>
          <note len="12" key="78" pan="0" vol="197" pos="36"/>
          <note len="12" key="83" pan="0" vol="197" pos="48"/>
          <note len="12" key="80" pan="0" vol="197" pos="60"/>
          <note len="12" key="78" pan="0" vol="197" pos="72"/>
          <note len="12" key="76" pan="0" vol="197" pos="84"/>
          <note len="12" key="80" pan="0" vol="197" pos="96"/>
          <note len="12" key="78" pan="0" vol="197" pos="108"/>
          <note len="12" key="76" pan="0" vol="197" pos="120"/>
          <note len="12" key="73" pan="0" vol="197" pos="132"/>
          <note len="12" key="76" pan="0" vol="197" pos="144"/>
          <note len="12" key="78" pan="0" vol="197" pos="156"/>
          <note len="12" key="80" pan="0" vol="197" pos="168"/>
          <note len="12" key="83" pan="0" vol="197" pos="180"/>
          <note len="12" key="80" pan="0" vol="197" pos="192"/>
          <note len="12" key="78" pan="0" vol="197" pos="204"/>
          <note len="12" key="76" pan="0" vol="197" pos="216"/>
          <note len="12" key="73" pan="0" vol="197" pos="228"/>
          <note len="12" key="76" pan="0" vol="197" pos="240"/>
          <note len="48" key="1" pan="0" vol="197" pos="240"/>
          <note len="12" key="73" pan="0" vol="197" pos="252"/>
          <note len="12" key="71" pan="0" vol="197" pos="264"/>
          <note len="12" key="73" pan="0" vol="197" pos="276"/>
          <note len="12" key="71" pan="0" vol="197" pos="288"/>
          <note len="12" key="68" pan="0" vol="197" pos="300"/>
          <note len="12" key="66" pan="0" vol="197" pos="312"/>
          <note len="12" key="68" pan="0" vol="197" pos="324"/>
          <note len="48" key="61" pan="0" vol="197" pos="336"/>
          <note len="48" key="0" pan="0" vol="197" pos="336"/>
        </pattern>
        <pattern muted="0" name="" steps="16" type="0" pos="31488"/>
        <pattern muted="0" name="" steps="16" type="1" pos="36480">
          <note len="12" key="61" pan="0" vol="200" pos="0"/>
          <note len="12" key="1" pan="0" vol="200" pos="0"/>
          <note len="12" key="68" pan="0" vol="200" pos="12"/>
          <note len="12" key="66" pan="0" vol="200" pos="24"/>
          <note len="12" key="68" pan="0" vol="200" pos="36"/>
          <note len="12" key="61" pan="0" vol="200" pos="48"/>
          <note len="12" key="68" pan="0" vol="200" pos="60"/>
          <note len="12" key="66" pan="0" vol="200" pos="72"/>
          <note len="12" key="68" pan="0" vol="200" pos="84"/>
          <note len="12" key="71" pan="0" vol="200" pos="96"/>
          <note len="12" key="0" pan="0" vol="200" pos="96"/>
          <note len="12" key="68" pan="0" vol="200" pos="108"/>
          <note len="12" key="2" pan="0" vol="200" pos="108"/>
          <note len="12" key="66" pan="0" vol="200" pos="120"/>
          <note len="12" key="1" pan="0" vol="200" pos="120"/>
          <note len="12" key="64" pan="0" vol="200" pos="132"/>
          <note len="12" key="66" pan="0" vol="200" pos="144"/>
          <note len="12" key="64" pan="0" vol="200" pos="156"/>
          <note len="12" key="66" pan="0" vol="200" pos="168"/>
          <note len="12" key="68" pan="0" vol="200" pos="180"/>
          <note len="12" key="71" pan="0" vol="200" pos="192"/>
          <note len="12" key="68" pan="0" vol="200" pos="204"/>
          <note len="12" key="66" pan="0" vol="200" pos="216"/>
          <note len="12" key="64" pan="0" vol="200" pos="228"/>
          <note len="12" key="66" pan="0" vol="200" pos="240"/>
          <note len="12" key="68" pan="0" vol="200" pos="252"/>
          <note len="6" key="71" pan="0" vol="200" pos="264"/>
          <note len="12" key="0" pan="0" vol="200" pos="264"/>
          <note len="42" key="73" pan="0" vol="200" pos="270"/>
          <note len="12" key="2" pan="0" vol="200" pos="276"/>
          <note len="12" key="73" pan="0" vol="200" pos="312"/>
          <note len="12" key="1" pan="0" vol="200" pos="312"/>
          <note len="12" key="75" pan="0" vol="200" pos="324"/>
          <note len="12" key="76" pan="0" vol="200" pos="336"/>
          <note len="12" key="0" pan="0" vol="200" pos="336"/>
          <note len="12" key="75" pan="0" vol="200" pos="348"/>
          <note len="12" key="73" pan="0" vol="200" pos="360"/>
          <note len="12" key="1" pan="0" vol="200" pos="360"/>
          <note len="12" key="71" pan="0" vol="200" pos="372"/>
          <note len="12" key="76" pan="0" vol="197" pos="384"/>
          <note len="12" key="0" pan="0" vol="197" pos="384"/>
          <note len="12" key="64" pan="0" vol="197" pos="396"/>
          <note len="12" key="2" pan="0" vol="197" pos="396"/>
          <note len="12" key="64" pan="0" vol="197" pos="408"/>
          <note len="12" key="0" pan="0" vol="197" pos="408"/>
          <note len="12" key="75" pan="0" vol="197" pos="420"/>
          <note len="12" key="0" pan="0" vol="197" pos="420"/>
          <note len="12" key="64" pan="0" vol="197" pos="432"/>
          <note len="12" key="2" pan="0" vol="197" pos="432"/>
          <note len="12" key="64" pan="0" vol="197" pos="444"/>
          <note len="12" key="0" pan="0" vol="197" pos="444"/>
          <note len="12" key="76" pan="0" vol="197" pos="456"/>
          <note len="12" key="0" pan="0" vol="197" pos="456"/>
          <note len="12" key="64" pan="0" vol="197" pos="468"/>
          <note len="12" key="2" pan="0" vol="197" pos="468"/>
          <note len="12" key="64" pan="0" vol="197" pos="480"/>
          <note len="12" key="0" pan="0" vol="197" pos="480"/>
          <note len="12" key="75" pan="0" vol="197" pos="492"/>
          <note len="12" key="0" pan="0" vol="197" pos="492"/>
          <note len="12" key="64" pan="0" vol="197" pos="504"/>
          <note len="12" key="2" pan="0" vol="197" pos="504"/>
          <note len="12" key="64" pan="0" vol="197" pos="516"/>
          <note len="12" key="0" pan="0" vol="197" pos="516"/>
          <note len="12" key="76" pan="0" vol="197" pos="528"/>
          <note len="12" key="0" pan="0" vol="197" pos="528"/>
          <note len="12" key="64" pan="0" vol="197" pos="540"/>
          <note len="12" key="2" pan="0" vol="197" pos="540"/>
          <note len="12" key="75" pan="0" vol="197" pos="552"/>
          <note len="12" key="0" pan="0" vol="197" pos="552"/>
          <note len="12" key="64" pan="0" vol="197" pos="564"/>
          <note len="12" key="2" pan="0" vol="197" pos="564"/>
        </pattern>
        <pattern muted="0" name="" steps="16" type="1" pos="28032">
          <note len="48" key="61" pan="0" vol="200" pos="0"/>
          <note len="36" key="0" pan="0" vol="200" pos="0"/>
          <note len="36" key="1" pan="0" vol="200" pos="36"/>
          <note len="48" key="57" pan="0" vol="200" pos="48"/>
          <note len="48" key="59" pan="0" vol="200" pos="96"/>
          <note len="48" key="61" pan="0" vol="200" pos="144"/>
          <note len="36" key="0" pan="0" vol="200" pos="180"/>
          <note len="48" key="63" pan="0" vol="200" pos="192"/>
          <note len="48" key="64" pan="0" vol="200" pos="240"/>
          <note len="48" key="63" pan="0" vol="200" pos="288"/>
          <note len="48" key="59" pan="0" vol="200" pos="336"/>
          <note len="48" key="61" pan="0" vol="200" pos="384"/>
          <note len="48" key="59" pan="0" vol="200" pos="432"/>
          <note len="48" key="61" pan="0" vol="200" pos="480"/>
          <note len="48" key="63" pan="0" vol="200" pos="528"/>
          <note len="192" key="68" pan="0" vol="200" pos="576"/>
        </pattern>
        <pattern muted="0" name="" steps="16" type="1" pos="38016">
          <note len="12" key="69" pan="0" vol="100" pos="0"/>
          <note len="12" key="1" pan="0" vol="100" pos="0"/>
          <note len="12" key="74" pan="0" vol="100" pos="12"/>
          <note len="12" key="78" pan="0" vol="100" pos="24"/>
          <note len="12" key="81" pan="0" vol="100" pos="36"/>
          <note len="12" key="0" pan="0" vol="100" pos="36"/>
          <note len="12" key="86" pan="0" vol="100" pos="48"/>
          <note len="12" key="81" pan="0" vol="100" pos="60"/>
          <note len="12" key="78" pan="0" vol="100" pos="72"/>
          <note len="12" key="1" pan="0" vol="100" pos="72"/>
          <note len="12" key="74" pan="0" vol="100" pos="84"/>
          <note len="12" key="81" pan="0" vol="100" pos="96"/>
          <note len="12" key="0" pan="0" vol="100" pos="96"/>
          <note len="12" key="80" pan="0" vol="100" pos="108"/>
          <note len="12" key="78" pan="0" vol="100" pos="120"/>
          <note len="12" key="1" pan="0" vol="100" pos="120"/>
          <note len="12" key="74" pan="0" vol="100" pos="132"/>
          <note len="12" key="83" pan="0" vol="100" pos="144"/>
          <note len="12" key="0" pan="0" vol="100" pos="144"/>
          <note len="12" key="81" pan="0" vol="100" pos="156"/>
          <note len="12" key="80" pan="0" vol="100" pos="168"/>
          <note len="12" key="1" pan="0" vol="100" pos="168"/>
          <note len="12" key="78" pan="0" vol="100" pos="180"/>
          <note len="12" key="83" pan="0" vol="121" pos="192"/>
          <note len="12" key="85" pan="0" vol="121" pos="204"/>
          <note len="12" key="83" pan="0" vol="121" pos="216"/>
          <note len="12" key="81" pan="0" vol="121" pos="228"/>
          <note len="12" key="80" pan="0" vol="121" pos="240"/>
          <note len="12" key="81" pan="0" vol="121" pos="252"/>
          <note len="12" key="80" pan="0" vol="121" pos="264"/>
          <note len="12" key="78" pan="0" vol="121" pos="276"/>
          <note len="12" key="83" pan="0" vol="121" pos="288"/>
          <note len="24" key="0" pan="0" vol="121" pos="288"/>
          <note len="12" key="85" pan="0" vol="121" pos="300"/>
          <note len="48" key="88" pan="0" vol="121" pos="312"/>
          <note len="24" key="85" pan="0" vol="121" pos="360"/>
          <note len="24" key="81" pan="0" vol="100" pos="384"/>
          <note len="24" key="80" pan="0" vol="100" pos="408"/>
          <note len="24" key="76" pan="0" vol="100" pos="432"/>
          <note len="24" key="81" pan="0" vol="100" pos="456"/>
          <note len="24" key="80" pan="0" vol="100" pos="480"/>
          <note len="24" key="78" pan="0" vol="100" pos="504"/>
          <note len="24" key="76" pan="0" vol="100" pos="528"/>
          <note len="24" key="80" pan="0" vol="100" pos="552"/>
          <note len="12" key="78" pan="0" vol="100" pos="576"/>
          <note len="12" key="0" pan="0" vol="100" pos="576"/>
          <note len="12" key="80" pan="0" vol="100" pos="588"/>
          <note len="12" key="2" pan="0" vol="100" pos="588"/>
          <note len="48" key="78" pan="0" vol="100" pos="600"/>
          <note len="12" key="1" pan="0" vol="100" pos="636"/>
          <note len="12" key="75" pan="0" vol="100" pos="648"/>
          <note len="12" key="76" pan="0" vol="100" pos="660"/>
          <note len="12" key="78" pan="0" vol="100" pos="672"/>
          <note len="12" key="0" pan="0" vol="100" pos="672"/>
          <note len="12" key="76" pan="0" vol="100" pos="684"/>
          <note len="12" key="75" pan="0" vol="100" pos="696"/>
          <note len="12" key="76" pan="0" vol="100" pos="708"/>
          <note len="12" key="1" pan="0" vol="100" pos="708"/>
          <note len="12" key="75" pan="0" vol="100" pos="720"/>
          <note len="12" key="73" pan="0" vol="100" pos="732"/>
          <note len="12" key="71" pan="0" vol="100" pos="744"/>
          <note len="12" key="69" pan="0" vol="100" pos="756"/>
        </pattern>
        <pattern muted="0" name="" steps="16" type="1" pos="39552">
          <note len="12" key="73" pan="0" vol="78" pos="0"/>
          <note len="48" key="0" pan="0" vol="78" pos="0"/>
          <note len="12" key="68" pan="0" vol="78" pos="12"/>
          <note len="12" key="64" pan="0" vol="78" pos="24"/>
          <note len="12" key="61" pan="0" vol="78" pos="36"/>
          <note len="12" key="56" pan="0" vol="78" pos="48"/>
          <note len="12" key="1" pan="0" vol="78" pos="48"/>
          <note len="12" key="52" pan="0" vol="78" pos="60"/>
          <note len="12" key="56" pan="0" vol="78" pos="72"/>
          <note len="12" key="61" pan="0" vol="78" pos="84"/>
          <note len="12" key="64" pan="0" vol="78" pos="96"/>
          <note len="12" key="68" pan="0" vol="78" pos="108"/>
          <note len="12" key="76" pan="0" vol="78" pos="120"/>
          <note len="12" key="0" pan="0" vol="78" pos="120"/>
          <note len="12" key="73" pan="0" vol="78" pos="132"/>
          <note len="12" key="68" pan="0" vol="78" pos="144"/>
          <note len="12" key="64" pan="0" vol="78" pos="156"/>
          <note len="12" key="1" pan="0" vol="78" pos="156"/>
          <note len="12" key="68" pan="0" vol="78" pos="168"/>
          <note len="12" key="73" pan="0" vol="78" pos="180"/>
          <note len="12" key="75" pan="0" vol="78" pos="192"/>
          <note len="12" key="0" pan="0" vol="78" pos="192"/>
          <note len="12" key="71" pan="0" vol="78" pos="204"/>
          <note len="12" key="68" pan="0" vol="78" pos="216"/>
          <note len="12" key="63" pan="0" vol="78" pos="228"/>
          <note len="12" key="1" pan="0" vol="78" pos="228"/>
          <note len="12" key="59" pan="0" vol="78" pos="240"/>
          <note len="12" key="56" pan="0" vol="78" pos="252"/>
          <note len="12" key="59" pan="0" vol="78" pos="264"/>
          <note len="12" key="63" pan="0" vol="78" pos="276"/>
          <note len="12" key="68" pan="0" vol="78" pos="288"/>
          <note len="12" key="71" pan="0" vol="78" pos="300"/>
          <note len="12" key="80" pan="0" vol="78" pos="312"/>
          <note len="12" key="0" pan="0" vol="78" pos="312"/>
          <note len="12" key="75" pan="0" vol="78" pos="324"/>
          <note len="12" key="71" pan="0" vol="78" pos="336"/>
          <note len="12" key="68" pan="0" vol="78" pos="348"/>
          <note len="12" key="1" pan="0" vol="78" pos="348"/>
          <note len="12" key="71" pan="0" vol="78" pos="360"/>
          <note len="12" key="75" pan="0" vol="78" pos="372"/>
          <note len="24" key="80" pan="0" vol="78" pos="384"/>
          <note len="12" key="0" pan="0" vol="78" pos="384"/>
          <note len="24" key="76" pan="0" vol="78" pos="408"/>
          <note len="24" key="69" pan="0" vol="78" pos="432"/>
          <note len="24" key="76" pan="0" vol="78" pos="456"/>
          <note len="24" key="75" pan="0" vol="78" pos="480"/>
          <note len="24" key="69" pan="0" vol="78" pos="504"/>
          <note len="24" key="78" pan="0" vol="78" pos="528"/>
          <note len="24" key="76" pan="0" vol="78" pos="552"/>
          <note len="48" key="75" pan="0" vol="78" pos="576"/>
          <note len="48" key="76" pan="0" vol="78" pos="624"/>
          <note len="12" key="76" pan="0" vol="78" pos="672"/>
          <note len="12" key="78" pan="0" vol="78" pos="684"/>
          <note len="12" key="76" pan="0" vol="78" pos="696"/>
          <note len="12" key="75" pan="0" vol="78" pos="708"/>
          <note len="12" key="76" pan="0" vol="78" pos="720"/>
          <note len="12" key="75" pan="0" vol="78" pos="732"/>
          <note len="12" key="73" pan="0" vol="78" pos="744"/>
          <note len="12" key="71" pan="0" vol="78" pos="756"/>
          <note len="12" key="1" pan="0" vol="78" pos="768"/>
          <note len="12" key="0" pan="0" vol="78" pos="960"/>
        </pattern>
        <pattern muted="0" name="" steps="16" type="0" pos="46656"/>
        <pattern muted="0" name="" steps="16" type="1" pos="47232">
          <note len="120" key="70" pan="0" vol="78" pos="0"/>
          <note len="24" key="0" pan="0" vol="78" pos="0"/>
          <note len="24" key="1" pan="0" vol="78" pos="96"/>
          <note len="24" key="66" pan="0" vol="78" pos="120"/>
          <note len="24" key="0" pan="0" vol="78" pos="132"/>
          <note len="24" key="75" pan="0" vol="78" pos="144"/>
          <note len="24" key="66" pan="0" vol="78" pos="168"/>
          <note len="24" key="1" pan="0" vol="78" pos="168"/>
          <note len="120" key="73" pan="0" vol="78" pos="192"/>
          <note len="24" key="0" pan="0" vol="78" pos="192"/>
          <note len="12" key="1" pan="0" vol="78" pos="300"/>
          <note len="12" key="73" pan="0" vol="78" pos="312"/>
          <note len="12" key="75" pan="0" vol="78" pos="324"/>
          <note len="12" key="78" pan="0" vol="78" pos="336"/>
          <note len="12" key="0" pan="0" vol="78" pos="336"/>
          <note len="12" key="75" pan="0" vol="78" pos="348"/>
          <note len="12" key="73" pan="0" vol="78" pos="360"/>
          <note len="12" key="1" pan="0" vol="78" pos="360"/>
          <note len="12" key="75" pan="0" vol="78" pos="372"/>
          <note len="144" key="78" pan="0" vol="78" pos="384"/>
          <note len="12" key="0" pan="0" vol="78" pos="384"/>
          <note len="24" key="77" pan="0" vol="78" pos="528"/>
          <note len="24" key="75" pan="0" vol="78" pos="552"/>
          <note len="48" key="73" pan="0" vol="78" pos="576"/>
          <note len="48" key="75" pan="0" vol="78" pos="624"/>
          <note len="12" key="0" pan="0" vol="78" pos="660"/>
          <note len="12" key="70" pan="0" vol="78" pos="672"/>
          <note len="12" key="1" pan="0" vol="78" pos="672"/>
          <note len="12" key="70" pan="0" vol="78" pos="684"/>
          <note len="12" key="70" pan="0" vol="78" pos="696"/>
          <note len="12" key="70" pan="0" vol="78" pos="708"/>
          <note len="12" key="66" pan="0" vol="78" pos="720"/>
          <note len="12" key="0" pan="0" vol="78" pos="720"/>
          <note len="12" key="63" pan="0" vol="78" pos="732"/>
          <note len="12" key="1" pan="0" vol="78" pos="732"/>
          <note len="12" key="65" pan="0" vol="78" pos="744"/>
          <note len="12" key="66" pan="0" vol="78" pos="756"/>
          <note len="96" key="68" pan="0" vol="78" pos="768"/>
          <note len="12" key="0" pan="0" vol="78" pos="768"/>
          <note len="48" key="71" pan="0" vol="78" pos="864"/>
          <note len="48" key="75" pan="0" vol="78" pos="912"/>
          <note len="96" key="75" pan="0" vol="78" pos="960"/>
          <note len="12" key="73" pan="0" vol="78" pos="1056"/>
          <note len="12" key="0" pan="0" vol="78" pos="1056"/>
          <note len="12" key="66" pan="0" vol="78" pos="1068"/>
          <note len="12" key="2" pan="0" vol="78" pos="1068"/>
          <note len="12" key="66" pan="0" vol="78" pos="1080"/>
          <note len="12" key="1" pan="0" vol="78" pos="1080"/>
          <note len="12" key="66" pan="0" vol="78" pos="1092"/>
          <note len="12" key="75" pan="0" vol="78" pos="1104"/>
          <note len="12" key="0" pan="0" vol="78" pos="1104"/>
          <note len="12" key="71" pan="0" vol="78" pos="1116"/>
          <note len="12" key="2" pan="0" vol="78" pos="1116"/>
          <note len="12" key="73" pan="0" vol="78" pos="1128"/>
          <note len="12" key="1" pan="0" vol="78" pos="1128"/>
          <note len="12" key="75" pan="0" vol="78" pos="1140"/>
          <note len="48" key="82" pan="0" vol="78" pos="1152"/>
          <note len="12" key="0" pan="0" vol="78" pos="1152"/>
          <note len="12" key="80" pan="0" vol="78" pos="1200"/>
          <note len="12" key="82" pan="0" vol="78" pos="1212"/>
          <note len="48" key="80" pan="0" vol="78" pos="1224"/>
          <note len="12" key="78" pan="0" vol="78" pos="1272"/>
          <note len="12" key="0" pan="0" vol="78" pos="1272"/>
          <note len="12" key="80" pan="0" vol="78" pos="1284"/>
          <note len="12" key="78" pan="0" vol="78" pos="1296"/>
          <note len="12" key="1" pan="0" vol="78" pos="1296"/>
          <note len="12" key="77" pan="0" vol="78" pos="1308"/>
          <note len="12" key="75" pan="0" vol="78" pos="1320"/>
          <note len="12" key="78" pan="0" vol="78" pos="1332"/>
          <note len="72" key="77" pan="0" vol="78" pos="1344"/>
          <note len="12" key="0" pan="0" vol="78" pos="1344"/>
          <note len="12" key="75" pan="0" vol="78" pos="1416"/>
          <note len="12" key="1" pan="0" vol="78" pos="1416"/>
          <note len="12" key="77" pan="0" vol="78" pos="1428"/>
          <note len="12" key="78" pan="0" vol="78" pos="1440"/>
          <note len="12" key="0" pan="0" vol="78" pos="1440"/>
          <note len="12" key="80" pan="0" vol="78" pos="1452"/>
          <note len="12" key="78" pan="0" vol="78" pos="1464"/>
          <note len="12" key="1" pan="0" vol="78" pos="1464"/>
          <note len="12" key="77" pan="0" vol="78" pos="1476"/>
          <note len="12" key="78" pan="0" vol="78" pos="1488"/>
          <note len="12" key="0" pan="0" vol="78" pos="1488"/>
          <note len="12" key="77" pan="0" vol="78" pos="1500"/>
          <note len="12" key="75" pan="0" vol="78" pos="1512"/>
          <note len="12" key="73" pan="0" vol="78" pos="1524"/>
          <note len="48" key="75" pan="0" vol="78" pos="1536"/>
          <note len="12" key="0" pan="0" vol="78" pos="1536"/>
          <note len="12" key="1" pan="0" vol="78" pos="1572"/>
          <note len="12" key="66" pan="0" vol="78" pos="1584"/>
          <note len="12" key="66" pan="0" vol="78" pos="1596"/>
          <note len="48" key="73" pan="0" vol="78" pos="1608"/>
          <note len="12" key="0" pan="0" vol="78" pos="1608"/>
          <note len="12" key="1" pan="0" vol="78" pos="1644"/>
          <note len="12" key="66" pan="0" vol="78" pos="1656"/>
          <note len="12" key="66" pan="0" vol="78" pos="1668"/>
          <note len="24" key="75" pan="0" vol="78" pos="1680"/>
          <note len="12" key="0" pan="0" vol="78" pos="1680"/>
          <note len="12" key="1" pan="0" vol="78" pos="1692"/>
          <note len="12" key="66" pan="0" vol="78" pos="1704"/>
          <note len="12" key="66" pan="0" vol="78" pos="1716"/>
          <note len="144" key="78" pan="0" vol="78" pos="1728"/>
          <note len="12" key="0" pan="0" vol="78" pos="1728"/>
          <note len="48" key="73" pan="0" vol="78" pos="1872"/>
          <note len="12" key="0" pan="0" vol="78" pos="1908"/>
          <note len="12" key="72" pan="0" vol="78" pos="1920"/>
          <note len="12" key="73" pan="0" vol="78" pos="1932"/>
          <note len="12" key="2" pan="0" vol="78" pos="1932"/>
          <note len="216" key="72" pan="0" vol="78" pos="1944"/>
          <note len="12" key="0" pan="0" vol="78" pos="2100"/>
          <note len="48" key="75" pan="0" vol="78" pos="2160"/>
          <note len="24" key="77" pan="0" vol="78" pos="2208"/>
          <note len="12" key="75" pan="0" vol="78" pos="2232"/>
          <note len="12" key="77" pan="0" vol="78" pos="2244"/>
          <note len="24" key="78" pan="0" vol="78" pos="2256"/>
          <note len="12" key="77" pan="0" vol="78" pos="2280"/>
          <note len="12" key="78" pan="0" vol="78" pos="2292"/>
          <note len="72" key="80" pan="0" vol="78" pos="2304"/>
          <note len="72" key="78" pan="0" vol="78" pos="2376"/>
          <note len="48" key="77" pan="0" vol="78" pos="2448"/>
          <note len="12" key="1" pan="0" vol="78" pos="2484"/>
          <note len="12" key="75" pan="0" vol="193" pos="2496"/>
          <note len="12" key="73" pan="0" vol="193" pos="2508"/>
          <note len="12" key="71" pan="0" vol="193" pos="2520"/>
          <note len="12" key="66" pan="0" vol="193" pos="2532"/>
          <note len="12" key="71" pan="0" vol="193" pos="2544"/>
          <note len="12" key="70" pan="0" vol="193" pos="2556"/>
          <note len="12" key="68" pan="0" vol="193" pos="2568"/>
          <note len="12" key="66" pan="0" vol="193" pos="2580"/>
          <note len="12" key="75" pan="0" vol="193" pos="2592"/>
          <note len="12" key="0" pan="0" vol="78" pos="2592"/>
          <note len="12" key="73" pan="0" vol="193" pos="2604"/>
          <note len="12" key="71" pan="0" vol="193" pos="2616"/>
          <note len="12" key="66" pan="0" vol="193" pos="2628"/>
          <note len="48" key="83" pan="0" vol="193" pos="2640"/>
          <note len="192" key="80" pan="0" vol="193" pos="2688"/>
        </pattern>
        <pattern muted="0" name="" steps="16" type="1" pos="56448">
          <note len="336" key="75" pan="0" vol="78" pos="0"/>
          <note len="336" key="0" pan="0" vol="78" pos="0"/>
          <note len="48" key="78" pan="0" vol="78" pos="336"/>
          <note len="288" key="77" pan="0" vol="78" pos="384"/>
          <note len="48" key="70" pan="0" vol="78" pos="672"/>
          <note len="48" key="73" pan="0" vol="78" pos="720"/>
          <note len="240" key="75" pan="0" vol="78" pos="768"/>
          <note len="48" key="73" pan="0" vol="78" pos="1008"/>
          <note len="48" key="75" pan="0" vol="78" pos="1056"/>
          <note len="48" key="82" pan="0" vol="78" pos="1104"/>
          <note len="192" key="80" pan="0" vol="78" pos="1152"/>
          <note len="48" key="83" pan="0" vol="78" pos="1344"/>
          <note len="48" key="82" pan="0" vol="78" pos="1392"/>
          <note len="48" key="80" pan="0" vol="78" pos="1440"/>
          <note len="48" key="76" pan="0" vol="78" pos="1488"/>
          <note len="144" key="75" pan="0" vol="78" pos="1536"/>
          <note len="24" key="75" pan="0" vol="78" pos="1680"/>
          <note len="24" key="77" pan="0" vol="78" pos="1704"/>
          <note len="96" key="78" pan="0" vol="78" pos="1728"/>
          <note len="24" key="0" pan="0" vol="78" pos="1812"/>
          <note len="12" key="80" pan="0" vol="78" pos="1824"/>
          <note len="84" key="82" pan="0" vol="78" pos="1836"/>
          <note len="24" key="2" pan="0" vol="78" pos="1836"/>
          <note len="24" key="0" pan="0" vol="78" pos="1896"/>
          <note len="156" key="80" pan="0" vol="78" pos="1920"/>
          <note len="12" key="80" pan="0" vol="78" pos="2076"/>
          <note len="12" key="78" pan="0" vol="78" pos="2088"/>
          <note len="12" key="77" pan="0" vol="78" pos="2100"/>
          <note len="96" key="73" pan="0" vol="78" pos="2112"/>
          <note len="48" key="70" pan="0" vol="78" pos="2208"/>
          <note len="48" key="73" pan="0" vol="78" pos="2256"/>
          <note len="120" key="75" pan="0" vol="78" pos="2304"/>
          <note len="24" key="73" pan="0" vol="78" pos="2424"/>
          <note len="24" key="72" pan="0" vol="78" pos="2448"/>
          <note len="24" key="68" pan="0" vol="78" pos="2472"/>
          <note len="96" key="70" pan="0" vol="78" pos="2496"/>
          <note len="96" key="63" pan="0" vol="78" pos="2592"/>
          <note len="12" key="70" pan="0" vol="78" pos="2688"/>
          <note len="12" key="0" pan="0" vol="78" pos="2688"/>
          <note len="84" key="71" pan="0" vol="78" pos="2700"/>
          <note len="12" key="2" pan="0" vol="78" pos="2700"/>
          <note len="12" key="0" pan="0" vol="78" pos="2712"/>
          <note len="96" key="70" pan="0" vol="78" pos="2784"/>
          <note len="96" key="68" pan="0" vol="78" pos="2880"/>
          <note len="96" key="73" pan="0" vol="78" pos="2976"/>
          <note len="48" key="75" pan="0" vol="78" pos="3072"/>
          <note len="48" key="70" pan="0" vol="78" pos="3120"/>
          <note len="48" key="75" pan="0" vol="78" pos="3168"/>
          <note len="48" key="77" pan="0" vol="78" pos="3216"/>
          <note len="48" key="78" pan="0" vol="78" pos="3264"/>
          <note len="48" key="80" pan="0" vol="78" pos="3312"/>
          <note len="48" key="82" pan="0" vol="78" pos="3360"/>
          <note len="48" key="87" pan="0" vol="78" pos="3408"/>
          <note len="144" key="85" pan="0" vol="78" pos="3456"/>
          <note len="12" key="80" pan="0" vol="78" pos="3600"/>
          <note len="12" key="0" pan="0" vol="78" pos="3600"/>
          <note len="36" key="82" pan="0" vol="78" pos="3612"/>
          <note len="12" key="2" pan="0" vol="78" pos="3612"/>
          <note len="12" key="0" pan="0" vol="78" pos="3624"/>
          <note len="96" key="80" pan="0" vol="78" pos="3648"/>
          <note len="48" key="77" pan="0" vol="78" pos="3744"/>
          <note len="48" key="80" pan="0" vol="78" pos="3792"/>
          <note len="24" key="79" pan="0" vol="78" pos="3840"/>
          <note len="24" key="80" pan="0" vol="78" pos="3864"/>
          <note len="24" key="79" pan="0" vol="78" pos="3888"/>
          <note len="24" key="75" pan="0" vol="78" pos="3912"/>
          <note len="24" key="72" pan="0" vol="78" pos="3936"/>
          <note len="24" key="63" pan="0" vol="78" pos="3960"/>
          <note len="24" key="70" pan="0" vol="78" pos="3984"/>
          <note len="24" key="68" pan="0" vol="78" pos="4008"/>
          <note len="96" key="70" pan="0" vol="78" pos="4032"/>
          <note len="96" key="75" pan="0" vol="78" pos="4128"/>
          <note len="192" key="75" pan="0" vol="78" pos="4224"/>
          <note len="96" key="78" pan="0" vol="78" pos="4416"/>
          <note len="96" key="80" pan="0" vol="78" pos="4512"/>
          <note len="192" key="82" pan="0" vol="78" pos="4608"/>
          <note len="16" key="0" pan="0" vol="78" pos="4608"/>
          <note len="16" key="75" pan="0" vol="78" pos="4800"/>
          <note len="16" key="1" pan="0" vol="78" pos="4800"/>
          <note len="16" key="77" pan="0" vol="78" pos="4816"/>
          <note len="16" key="75" pan="0" vol="78" pos="4832"/>
          <note len="16" key="78" pan="0" vol="78" pos="4848"/>
          <note len="16" key="80" pan="0" vol="78" pos="4864"/>
          <note len="16" key="0" pan="0" vol="78" pos="4864"/>
          <note len="16" key="82" pan="0" vol="78" pos="4880"/>
          <note len="16" key="87" pan="0" vol="78" pos="4896"/>
          <note len="16" key="82" pan="0" vol="78" pos="4912"/>
          <note len="16" key="80" pan="0" vol="78" pos="4928"/>
          <note len="16" key="1" pan="0" vol="78" pos="4928"/>
          <note len="16" key="78" pan="0" vol="78" pos="4944"/>
          <note len="16" key="77" pan="0" vol="78" pos="4960"/>
          <note len="16" key="75" pan="0" vol="78" pos="4976"/>
          <note len="48" key="77" pan="0" vol="78" pos="4992"/>
          <note len="192" key="0" pan="0" vol="78" pos="4992"/>
          <note len="48" key="78" pan="0" vol="78" pos="5040"/>
          <note len="48" key="80" pan="0" vol="78" pos="5088"/>
          <note len="48" key="85" pan="0" vol="78" pos="5136"/>
          <note len="96" key="73" pan="0" vol="78" pos="5184"/>
          <note len="12" key="75" pan="0" vol="78" pos="5280"/>
          <note len="12" key="0" pan="0" vol="78" pos="5280"/>
          <note len="84" key="77" pan="0" vol="78" pos="5292"/>
          <note len="12" key="2" pan="0" vol="78" pos="5292"/>
          <note len="12" key="0" pan="0" vol="78" pos="5304"/>
          <note len="96" key="75" pan="0" vol="78" pos="5376"/>
          <note len="96" key="77" pan="0" vol="78" pos="5472"/>
          <note len="96" key="70" pan="0" vol="78" pos="5568"/>
          <note len="96" key="75" pan="0" vol="78" pos="5664"/>
          <note len="96" key="80" pan="0" vol="78" pos="5760"/>
          <note len="96" key="82" pan="0" vol="78" pos="5856"/>
          <note len="96" key="85" pan="0" vol="200" pos="5952"/>
        </pattern>
      </track>
      <track muted="1" name="lgtH1" type="0" solo="0" mutedBeforeSolo="0">
        <instrumenttrack usemasterpitch="1" pitchrange="1" pitch="0" pan="-100" basenote="57" vol="200" fxch="13">
          <instrument name="carlapatchbay">
            <carlapatchbay>
              <CARLA-PROJECT VERSION="2.2">
                <EngineSettings>
                  <ForceStereo>false</ForceStereo>
                  <PreferPluginBridges>false</PreferPluginBridges>
                  <PreferUiBridges>true</PreferUiBridges>
                  <UIsAlwaysOnTop>false</UIsAlwaysOnTop>
                  <MaxParameters>200</MaxParameters>
                  <UIBridgesTimeout>4000</UIBridgesTimeout>
                  <LADSPA_PATH>/home/pass/.ladspa:/usr/lib/ladspa:/usr/local/lib/ladspa</LADSPA_PATH>
                  <DSSI_PATH>/home/pass/.dssi:/usr/lib/dssi:/usr/local/lib/dssi</DSSI_PATH>
                  <LV2_PATH>/home/pass/.lv2:/usr/lib/lv2:/usr/local/lib/lv2</LV2_PATH>
                  <VST2_PATH>/home/pass/.vst:/home/pass/.wine/drive_c/Program Files (x86)/VstPlugins:/home/pass/.wine/drive_c/Program Files/VstPlugins:/usr/lib/lxvst:/usr/lib/vst:/usr/local/lib/lxvst:/usr/local/lib/vst/home/pass/.lxvst:/home/pass/vst</VST2_PATH>
                  <VST3_PATH>/home/pass/.vst3:/home/pass/.wine/drive_c/Program Files (x86)/Common Files/VST3:/home/pass/.wine/drive_c/Program Files/Common Files/VST3:/usr/lib/vst3:/usr/local/lib/vst3</VST3_PATH>
                  <SF2_PATH>/home/pass/.sounds/sf2/home/pass/.sounds/sf3:/usr/share/soundfonts:/usr/share/sounds/sf2:/usr/share/sounds/sf3</SF2_PATH>
                  <SFZ_PATH>/home/pass/.sounds/sfz:/home/pass/samples:/usr/share/sounds/sfz</SFZ_PATH>
                </EngineSettings>
                <!-- sfizz -->
                <Plugin>
                  <Info>
                    <Type>LV2</Type>
                    <Name>sfizz</Name>
                    <URI>http://sfztools.github.io/sfizz</URI>
                  </Info>
                  <Data>
                    <Active>Yes</Active>
                    <ControlChannel>1</ControlChannel>
                    <Options>0x3f0</Options>
                    <Parameter>
                      <Index>0</Index>
                      <Name>Volume</Name>
                      <Symbol>volume</Symbol>
                      <Value>0</Value>
                    </Parameter>
                    <Parameter>
                      <Index>1</Index>
                      <Name>Polyphony</Name>
                      <Symbol>num_voices</Symbol>
                      <Value>64</Value>
                    </Parameter>
                    <Parameter>
                      <Index>2</Index>
                      <Name>Internal oversampling factor</Name>
                      <Symbol>oversampling</Symbol>
                      <Value>1</Value>
                    </Parameter>
                    <Parameter>
                      <Index>3</Index>
                      <Name>Preload size</Name>
                      <Symbol>preload_size</Symbol>
                      <Value>8192</Value>
                    </Parameter>
                    <Parameter>
                      <Index>5</Index>
                      <Name>Scala root key</Name>
                      <Symbol>scala_root_key</Symbol>
                      <Value>60</Value>
                    </Parameter>
                    <Parameter>
                      <Index>6</Index>
                      <Name>Tuning frequency</Name>
                      <Symbol>tuning_frequency</Symbol>
                      <Value>440</Value>
                    </Parameter>
                    <Parameter>
                      <Index>7</Index>
                      <Name>Stretched tuning</Name>
                      <Symbol>stretched_tuning</Symbol>
                      <Value>0</Value>
                    </Parameter>
                    <CustomData>
                      <Type>http://lv2plug.in/ns/ext/atom#Path</Type>
                      <Key>http://sfztools.github.io/sfizz:sfzfile</Key>
                      <Value>_fakeguitar1_integrated.sfz</Value>
                    </CustomData>
                    <CustomData>
                      <Type>http://lv2plug.in/ns/ext/atom#Int</Type>
                      <Key>http://sfztools.github.io/sfizz:numvoices</Key>
                      <Value>QAAAAA==</Value>
                    </CustomData>
                    <CustomData>
                      <Type>http://lv2plug.in/ns/ext/atom#Int</Type>
                      <Key>http://sfztools.github.io/sfizz:preload_size</Key>
                      <Value>ACAAAA==</Value>
                    </CustomData>
                    <CustomData>
                      <Type>http://lv2plug.in/ns/ext/atom#Int</Type>
                      <Key>http://sfztools.github.io/sfizz:oversampling</Key>
                      <Value>AQAAAA==</Value>
                    </CustomData>
                    <CustomData>
                      <Type>http://lv2plug.in/ns/ext/atom#Path</Type>
                      <Key>http://sfztools.github.io/sfizz:tuningfile</Key>
                      <Value>DefaultScale.scl</Value>
                    </CustomData>
                  </Data>
                </Plugin>
                <Patchbay>
                  <Connection>
                    <Source>Midi Input:Capture 1</Source>
                    <Target>sfizz:events-in</Target>
                  </Connection>
                  <Connection>
                    <Source>sfizz:Left Output</Source>
                    <Target>Audio Output:Left</Target>
                  </Connection>
                  <Connection>
                    <Source>sfizz:Right Output</Source>
                    <Target>Audio Output:Right</Target>
                  </Connection>
                  <Positions>
                    <Position y1="1353" x1="1693" pluginId="0">
                      <Name>sfizz</Name>
                    </Position>
                  </Positions>
                </Patchbay>
              </CARLA-PROJECT>
              <key/>
            </carlapatchbay>
          </instrument>
          <eldata fcut="14000" fwet="0" fres="0.5" ftype="0">
            <elvol rel="0.1" lspd_syncmode="0" pdel="0" lspd_numerator="4" lpdel="0" amt="0" ctlenvamt="0" lshp="0" userwavefile="" dec="0.5" lspd_denominator="4" sustain="0.5" lspd="0.1" latt="0" hold="0.5" att="0" x100="0" lamt="0"/>
            <elcut rel="0.1" lspd_syncmode="0" pdel="0" lspd_numerator="4" lpdel="0" amt="0" ctlenvamt="0" lshp="0" userwavefile="" dec="0.5" lspd_denominator="4" sustain="0.5" lspd="0.1" latt="0" hold="0.5" att="0" x100="0" lamt="0"/>
            <elres rel="0.1" lspd_syncmode="0" pdel="0" lspd_numerator="4" lpdel="0" amt="0" ctlenvamt="0" lshp="0" userwavefile="" dec="0.5" lspd_denominator="4" sustain="0.5" lspd="0.1" latt="0" hold="0.5" att="0" x100="0" lamt="0"/>
          </eldata>
          <chordcreator chord="0" chordrange="1" chord-enabled="0"/>
          <arpeggiator arptime_denominator="4" arptime="200" arp-enabled="0" arpcycle="0" arpgate="100" arp="0" arpmiss="0" arpdir="0" arprange="1" arpmode="0" arpskip="0" arptime_syncmode="0" arptime_numerator="4"/>
          <midiport inputcontroller="0" fixedinputvelocity="-1" readable="0" outputcontroller="0" fixedoutputnote="-1" outputprogram="1" writable="0" fixedoutputvelocity="-1" basevelocity="63" outputchannel="1" inputchannel="0"/>
          <fxchain enabled="0" numofeffects="0"/>
        </instrumenttrack>
        <pattern muted="0" name="" steps="16" type="1" pos="7104">
          <note len="72" key="0" pan="0" vol="78" pos="0"/>
          <note len="48" key="68" pan="0" vol="78" pos="96"/>
          <note len="48" key="71" pan="0" vol="78" pos="144"/>
          <note len="96" key="73" pan="0" vol="78" pos="192"/>
          <note len="24" key="73" pan="0" vol="78" pos="288"/>
          <note len="24" key="68" pan="0" vol="78" pos="312"/>
          <note len="24" key="73" pan="0" vol="78" pos="336"/>
          <note len="168" key="80" pan="0" vol="78" pos="360"/>
          <note len="24" key="80" pan="0" vol="78" pos="528"/>
          <note len="24" key="78" pan="0" vol="78" pos="552"/>
          <note len="48" key="77" pan="0" vol="78" pos="576"/>
          <note len="48" key="73" pan="0" vol="78" pos="624"/>
          <note len="48" key="70" pan="0" vol="78" pos="672"/>
          <note len="48" key="66" pan="0" vol="78" pos="720"/>
          <note len="96" key="69" pan="0" vol="78" pos="768"/>
          <note len="96" key="68" pan="0" vol="78" pos="864"/>
          <note len="144" key="73" pan="0" vol="78" pos="960"/>
          <note len="48" key="76" pan="0" vol="78" pos="1104"/>
          <note len="144" key="75" pan="0" vol="78" pos="1152"/>
          <note len="48" key="80" pan="0" vol="78" pos="1296"/>
          <note len="144" key="80" pan="0" vol="78" pos="1344"/>
          <note len="24" key="78" pan="0" vol="78" pos="1488"/>
          <note len="24" key="76" pan="0" vol="78" pos="1512"/>
          <note len="48" key="75" pan="0" vol="78" pos="1536"/>
          <note len="48" key="76" pan="0" vol="78" pos="1584"/>
          <note len="48" key="71" pan="0" vol="78" pos="1632"/>
          <note len="48" key="68" pan="0" vol="78" pos="1680"/>
          <note len="96" key="69" pan="0" vol="78" pos="1728"/>
          <note len="48" key="73" pan="0" vol="78" pos="1824"/>
          <note len="48" key="76" pan="0" vol="78" pos="1872"/>
          <note len="96" key="76" pan="0" vol="78" pos="1920"/>
          <note len="48" key="75" pan="0" vol="78" pos="2016"/>
          <note len="48" key="76" pan="0" vol="78" pos="2064"/>
          <note len="72" key="83" pan="0" vol="78" pos="2112"/>
          <note len="72" key="81" pan="0" vol="78" pos="2184"/>
          <note len="48" key="80" pan="0" vol="78" pos="2256"/>
          <note len="192" key="78" pan="0" vol="78" pos="2304"/>
          <note len="72" key="76" pan="0" vol="78" pos="2496"/>
          <note len="72" key="75" pan="0" vol="78" pos="2568"/>
          <note len="48" key="76" pan="0" vol="78" pos="2640"/>
          <note len="144" key="80" pan="0" vol="78" pos="2688"/>
          <note len="48" key="75" pan="0" vol="78" pos="2832"/>
          <note len="240" key="73" pan="0" vol="78" pos="2880"/>
          <note len="48" key="76" pan="0" vol="78" pos="3120"/>
          <note len="48" key="78" pan="0" vol="78" pos="3168"/>
          <note len="48" key="80" pan="0" vol="78" pos="3216"/>
          <note len="72" key="81" pan="0" vol="78" pos="3264"/>
          <note len="72" key="80" pan="0" vol="78" pos="3336"/>
          <note len="48" key="78" pan="0" vol="78" pos="3408"/>
          <note len="48" key="76" pan="0" vol="78" pos="3456"/>
          <note len="48" key="73" pan="0" vol="78" pos="3504"/>
          <note len="48" key="76" pan="0" vol="78" pos="3552"/>
          <note len="48" key="80" pan="0" vol="78" pos="3600"/>
          <note len="192" key="78" pan="0" vol="78" pos="3648"/>
          <note len="96" key="75" pan="0" vol="78" pos="3840"/>
          <note len="96" key="71" pan="0" vol="78" pos="3936"/>
          <note len="384" key="73" pan="0" vol="78" pos="4032"/>
        </pattern>
        <pattern muted="0" name="" steps="16" type="1" pos="5376">
          <note len="24" key="68" pan="0" vol="78" pos="0"/>
          <note len="24" key="0" pan="0" vol="78" pos="0"/>
          <note len="24" key="71" pan="0" vol="78" pos="24"/>
          <note len="24" key="68" pan="0" vol="78" pos="48"/>
          <note len="48" key="75" pan="0" vol="78" pos="72"/>
          <note len="24" key="68" pan="0" vol="78" pos="120"/>
          <note len="24" key="71" pan="0" vol="78" pos="144"/>
          <note len="24" key="75" pan="0" vol="78" pos="168"/>
          <note len="24" key="76" pan="0" vol="78" pos="192"/>
          <note len="24" key="75" pan="0" vol="78" pos="216"/>
          <note len="24" key="73" pan="0" vol="78" pos="240"/>
          <note len="24" key="71" pan="0" vol="78" pos="264"/>
          <note len="24" key="75" pan="0" vol="78" pos="288"/>
          <note len="24" key="73" pan="0" vol="78" pos="312"/>
          <note len="24" key="71" pan="0" vol="78" pos="336"/>
          <note len="24" key="68" pan="0" vol="78" pos="360"/>
        </pattern>
        <pattern muted="0" name="" steps="16" type="1" pos="6144">
          <note len="24" key="87" pan="0" vol="78" pos="0"/>
          <note len="48" key="0" pan="0" vol="100" pos="0"/>
          <note len="24" key="76" pan="0" vol="78" pos="24"/>
          <note len="24" key="80" pan="0" vol="78" pos="48"/>
          <note len="48" key="83" pan="0" vol="78" pos="72"/>
          <note len="24" key="80" pan="0" vol="78" pos="120"/>
          <note len="24" key="83" pan="0" vol="78" pos="144"/>
          <note len="24" key="87" pan="0" vol="78" pos="168"/>
          <note len="48" key="1" pan="0" vol="100" pos="180"/>
          <note len="12" key="85" pan="0" vol="78" pos="192"/>
          <note len="12" key="85" pan="0" vol="78" pos="204"/>
          <note len="12" key="80" pan="0" vol="78" pos="216"/>
          <note len="12" key="80" pan="0" vol="78" pos="228"/>
          <note len="12" key="76" pan="0" vol="78" pos="240"/>
          <note len="12" key="76" pan="0" vol="78" pos="252"/>
          <note len="12" key="73" pan="0" vol="78" pos="264"/>
          <note len="12" key="73" pan="0" vol="78" pos="276"/>
          <note len="12" key="78" pan="0" vol="78" pos="288"/>
          <note len="12" key="78" pan="0" vol="78" pos="300"/>
          <note len="12" key="76" pan="0" vol="78" pos="312"/>
          <note len="12" key="76" pan="0" vol="78" pos="324"/>
          <note len="12" key="80" pan="0" vol="78" pos="336"/>
          <note len="12" key="80" pan="0" vol="78" pos="348"/>
          <note len="12" key="76" pan="0" vol="78" pos="360"/>
          <note len="12" key="76" pan="0" vol="78" pos="372"/>
          <note len="12" key="0" pan="0" vol="78" pos="384"/>
        </pattern>
        <pattern muted="0" name="" steps="16" type="1" pos="13056">
          <note len="24" key="68" pan="0" vol="78" pos="0"/>
          <note len="24" key="0" pan="0" vol="78" pos="0"/>
          <note len="24" key="71" pan="0" vol="78" pos="24"/>
          <note len="24" key="68" pan="0" vol="78" pos="48"/>
          <note len="48" key="75" pan="0" vol="78" pos="72"/>
          <note len="24" key="68" pan="0" vol="78" pos="120"/>
          <note len="24" key="71" pan="0" vol="78" pos="144"/>
          <note len="24" key="75" pan="0" vol="78" pos="168"/>
          <note len="24" key="76" pan="0" vol="78" pos="192"/>
          <note len="24" key="75" pan="0" vol="78" pos="216"/>
          <note len="24" key="73" pan="0" vol="78" pos="240"/>
          <note len="24" key="71" pan="0" vol="78" pos="264"/>
          <note len="24" key="75" pan="0" vol="78" pos="288"/>
          <note len="24" key="73" pan="0" vol="78" pos="312"/>
          <note len="24" key="71" pan="0" vol="78" pos="336"/>
          <note len="24" key="68" pan="0" vol="78" pos="360"/>
        </pattern>
        <pattern muted="0" name="" steps="16" type="1" pos="13824">
          <note len="24" key="71" pan="0" vol="78" pos="0"/>
          <note len="12" key="0" pan="0" vol="78" pos="0"/>
          <note len="12" key="1" pan="0" vol="78" pos="12"/>
          <note len="12" key="61" pan="0" vol="78" pos="24"/>
          <note len="12" key="61" pan="0" vol="78" pos="36"/>
          <note len="24" key="64" pan="0" vol="78" pos="48"/>
          <note len="12" key="0" pan="0" vol="78" pos="48"/>
          <note len="48" key="68" pan="0" vol="78" pos="72"/>
          <note len="24" key="64" pan="0" vol="78" pos="120"/>
          <note len="24" key="68" pan="0" vol="78" pos="144"/>
          <note len="24" key="71" pan="0" vol="78" pos="168"/>
          <note len="24" key="69" pan="0" vol="78" pos="192"/>
          <note len="24" key="64" pan="0" vol="78" pos="216"/>
          <note len="24" key="61" pan="0" vol="78" pos="240"/>
          <note len="24" key="57" pan="0" vol="78" pos="264"/>
          <note len="24" key="63" pan="0" vol="78" pos="288"/>
          <note len="24" key="61" pan="0" vol="78" pos="312"/>
          <note len="24" key="64" pan="0" vol="78" pos="336"/>
          <note len="24" key="61" pan="0" vol="78" pos="360"/>
        </pattern>
        <pattern muted="0" name="" steps="16" type="1" pos="18816">
          <note len="336" key="73" pan="0" vol="78" pos="0"/>
          <note len="48" key="64" pan="0" vol="78" pos="336"/>
          <note len="288" key="63" pan="0" vol="78" pos="384"/>
          <note len="48" key="56" pan="0" vol="78" pos="672"/>
          <note len="48" key="59" pan="0" vol="78" pos="720"/>
          <note len="240" key="61" pan="0" vol="78" pos="768"/>
          <note len="48" key="59" pan="0" vol="78" pos="1008"/>
          <note len="48" key="61" pan="0" vol="78" pos="1056"/>
          <note len="48" key="68" pan="0" vol="78" pos="1104"/>
          <note len="192" key="66" pan="0" vol="78" pos="1152"/>
          <note len="48" key="69" pan="0" vol="78" pos="1344"/>
          <note len="24" key="68" pan="0" vol="78" pos="1392"/>
          <note len="12" key="68" pan="0" vol="78" pos="1416"/>
          <note len="12" key="69" pan="0" vol="78" pos="1424"/>
          <note len="12" key="68" pan="0" vol="78" pos="1432"/>
          <note len="48" key="66" pan="0" vol="78" pos="1440"/>
          <note len="48" key="68" pan="0" vol="78" pos="1488"/>
          <note len="240" key="64" pan="0" vol="78" pos="1536"/>
          <note len="48" key="61" pan="0" vol="78" pos="1776"/>
          <note len="48" key="64" pan="0" vol="78" pos="1824"/>
          <note len="48" key="68" pan="0" vol="78" pos="1872"/>
          <note len="192" key="68" pan="0" vol="78" pos="1920"/>
          <note len="144" key="66" pan="0" vol="78" pos="2112"/>
          <note len="48" key="68" pan="0" vol="78" pos="2256"/>
          <note len="240" key="61" pan="0" vol="78" pos="2304"/>
          <note len="48" key="56" pan="0" vol="78" pos="2544"/>
          <note len="48" key="61" pan="0" vol="78" pos="2592"/>
          <note len="48" key="68" pan="0" vol="78" pos="2640"/>
          <note len="192" key="73" pan="0" vol="78" pos="2688"/>
          <note len="192" key="72" pan="0" vol="78" pos="2880"/>
        </pattern>
        <pattern muted="0" name="" steps="16" type="1" pos="14784">
          <note len="72" key="0" pan="0" vol="78" pos="0"/>
          <note len="48" key="68" pan="0" vol="78" pos="96"/>
          <note len="48" key="71" pan="0" vol="78" pos="144"/>
          <note len="96" key="73" pan="0" vol="78" pos="192"/>
          <note len="24" key="73" pan="0" vol="78" pos="288"/>
          <note len="24" key="68" pan="0" vol="78" pos="312"/>
          <note len="24" key="73" pan="0" vol="78" pos="336"/>
          <note len="168" key="80" pan="0" vol="78" pos="360"/>
          <note len="24" key="80" pan="0" vol="78" pos="528"/>
          <note len="24" key="78" pan="0" vol="78" pos="552"/>
          <note len="48" key="77" pan="0" vol="78" pos="576"/>
          <note len="48" key="73" pan="0" vol="78" pos="624"/>
          <note len="48" key="70" pan="0" vol="78" pos="672"/>
          <note len="48" key="66" pan="0" vol="78" pos="720"/>
          <note len="96" key="69" pan="0" vol="78" pos="768"/>
          <note len="96" key="68" pan="0" vol="78" pos="864"/>
          <note len="144" key="73" pan="0" vol="78" pos="960"/>
          <note len="48" key="76" pan="0" vol="78" pos="1104"/>
          <note len="144" key="75" pan="0" vol="78" pos="1152"/>
          <note len="48" key="80" pan="0" vol="78" pos="1296"/>
          <note len="144" key="80" pan="0" vol="78" pos="1344"/>
          <note len="24" key="78" pan="0" vol="78" pos="1488"/>
          <note len="24" key="76" pan="0" vol="78" pos="1512"/>
          <note len="48" key="75" pan="0" vol="78" pos="1536"/>
          <note len="48" key="76" pan="0" vol="78" pos="1584"/>
          <note len="48" key="71" pan="0" vol="78" pos="1632"/>
          <note len="48" key="68" pan="0" vol="78" pos="1680"/>
          <note len="96" key="69" pan="0" vol="78" pos="1728"/>
          <note len="48" key="73" pan="0" vol="78" pos="1824"/>
          <note len="48" key="76" pan="0" vol="78" pos="1872"/>
          <note len="96" key="76" pan="0" vol="78" pos="1920"/>
          <note len="48" key="75" pan="0" vol="78" pos="2016"/>
          <note len="48" key="76" pan="0" vol="78" pos="2064"/>
          <note len="72" key="83" pan="0" vol="78" pos="2112"/>
          <note len="72" key="81" pan="0" vol="78" pos="2184"/>
          <note len="48" key="80" pan="0" vol="78" pos="2256"/>
          <note len="192" key="78" pan="0" vol="78" pos="2304"/>
          <note len="72" key="76" pan="0" vol="78" pos="2496"/>
          <note len="72" key="75" pan="0" vol="78" pos="2568"/>
          <note len="48" key="76" pan="0" vol="78" pos="2640"/>
          <note len="144" key="80" pan="0" vol="78" pos="2688"/>
          <note len="48" key="75" pan="0" vol="78" pos="2832"/>
          <note len="240" key="73" pan="0" vol="78" pos="2880"/>
          <note len="48" key="76" pan="0" vol="78" pos="3120"/>
          <note len="48" key="78" pan="0" vol="78" pos="3168"/>
          <note len="48" key="80" pan="0" vol="78" pos="3216"/>
          <note len="72" key="81" pan="0" vol="78" pos="3264"/>
          <note len="72" key="80" pan="0" vol="78" pos="3336"/>
          <note len="48" key="78" pan="0" vol="78" pos="3408"/>
          <note len="48" key="76" pan="0" vol="78" pos="3456"/>
          <note len="48" key="73" pan="0" vol="78" pos="3504"/>
          <note len="48" key="76" pan="0" vol="78" pos="3552"/>
          <note len="48" key="80" pan="0" vol="78" pos="3600"/>
          <note len="192" key="78" pan="0" vol="78" pos="3648"/>
          <note len="96" key="75" pan="0" vol="78" pos="3840"/>
          <note len="96" key="71" pan="0" vol="78" pos="3936"/>
        </pattern>
        <pattern muted="0" name="" steps="16" type="1" pos="34944">
          <note len="144" key="73" pan="0" vol="197" pos="0"/>
          <note len="12" key="0" pan="0" vol="197" pos="0"/>
          <note len="48" key="76" pan="0" vol="197" pos="144"/>
          <note len="144" key="75" pan="0" vol="197" pos="192"/>
          <note len="48" key="80" pan="0" vol="197" pos="336"/>
          <note len="144" key="80" pan="0" vol="197" pos="384"/>
          <note len="24" key="78" pan="0" vol="197" pos="528"/>
          <note len="24" key="76" pan="0" vol="197" pos="552"/>
          <note len="48" key="75" pan="0" vol="197" pos="576"/>
          <note len="48" key="76" pan="0" vol="197" pos="624"/>
          <note len="12" key="71" pan="0" vol="197" pos="672"/>
          <note len="12" key="1" pan="0" vol="197" pos="672"/>
          <note len="12" key="73" pan="0" vol="197" pos="684"/>
          <note len="12" key="71" pan="0" vol="197" pos="696"/>
          <note len="12" key="68" pan="0" vol="197" pos="708"/>
          <note len="12" key="71" pan="0" vol="197" pos="720"/>
          <note len="12" key="68" pan="0" vol="197" pos="732"/>
          <note len="12" key="66" pan="0" vol="197" pos="744"/>
          <note len="12" key="68" pan="0" vol="197" pos="756"/>
          <note len="96" key="69" pan="0" vol="197" pos="768"/>
          <note len="12" key="0" pan="0" vol="197" pos="768"/>
          <note len="48" key="73" pan="0" vol="197" pos="864"/>
          <note len="48" key="76" pan="0" vol="197" pos="912"/>
          <note len="96" key="76" pan="0" vol="197" pos="960"/>
          <note len="48" key="75" pan="0" vol="197" pos="1056"/>
          <note len="48" key="76" pan="0" vol="197" pos="1104"/>
          <note len="12" key="76" pan="0" vol="197" pos="1152"/>
          <note len="12" key="0" pan="0" vol="200" pos="1152"/>
          <note len="12" key="73" pan="0" vol="197" pos="1164"/>
          <note len="12" key="75" pan="0" vol="197" pos="1176"/>
          <note len="12" key="76" pan="0" vol="197" pos="1188"/>
          <note len="12" key="78" pan="0" vol="197" pos="1200"/>
          <note len="12" key="75" pan="0" vol="197" pos="1212"/>
          <note len="12" key="76" pan="0" vol="197" pos="1224"/>
          <note len="12" key="78" pan="0" vol="197" pos="1236"/>
          <note len="12" key="80" pan="0" vol="197" pos="1248"/>
          <note len="12" key="76" pan="0" vol="197" pos="1260"/>
          <note len="12" key="78" pan="0" vol="197" pos="1272"/>
          <note len="12" key="80" pan="0" vol="197" pos="1284"/>
          <note len="12" key="81" pan="0" vol="197" pos="1296"/>
          <note len="12" key="78" pan="0" vol="197" pos="1308"/>
          <note len="12" key="80" pan="0" vol="197" pos="1320"/>
          <note len="12" key="81" pan="0" vol="197" pos="1332"/>
          <note len="12" key="83" pan="0" vol="200" pos="1344"/>
          <note len="12" key="81" pan="0" vol="200" pos="1356"/>
          <note len="12" key="80" pan="0" vol="200" pos="1368"/>
          <note len="12" key="78" pan="0" vol="200" pos="1380"/>
          <note len="12" key="81" pan="0" vol="200" pos="1392"/>
          <note len="12" key="80" pan="0" vol="200" pos="1404"/>
          <note len="12" key="78" pan="0" vol="200" pos="1416"/>
          <note len="12" key="76" pan="0" vol="200" pos="1428"/>
          <note len="12" key="80" pan="0" vol="200" pos="1440"/>
          <note len="12" key="78" pan="0" vol="200" pos="1452"/>
          <note len="12" key="80" pan="0" vol="200" pos="1464"/>
          <note len="12" key="81" pan="0" vol="200" pos="1476"/>
          <note len="12" key="87" pan="0" vol="200" pos="1488"/>
          <note len="12" key="2" pan="0" vol="200" pos="1488"/>
          <note len="12" key="83" pan="0" vol="200" pos="1500"/>
          <note len="12" key="87" pan="0" vol="200" pos="1512"/>
          <note len="12" key="83" pan="0" vol="200" pos="1524"/>
        </pattern>
        <pattern muted="0" name="" steps="16" type="1" pos="31104">
          <note len="24" key="85" pan="0" vol="197" pos="0"/>
          <note len="24" key="1" pan="0" vol="197" pos="0"/>
          <note len="24" key="80" pan="0" vol="197" pos="24"/>
          <note len="24" key="83" pan="0" vol="197" pos="48"/>
          <note len="24" key="78" pan="0" vol="197" pos="72"/>
          <note len="24" key="80" pan="0" vol="197" pos="96"/>
          <note len="24" key="78" pan="0" vol="197" pos="120"/>
          <note len="24" key="76" pan="0" vol="197" pos="144"/>
          <note len="24" key="78" pan="0" vol="197" pos="168"/>
          <note len="24" key="80" pan="0" vol="197" pos="192"/>
          <note len="24" key="78" pan="0" vol="197" pos="216"/>
          <note len="24" key="80" pan="0" vol="197" pos="240"/>
          <note len="24" key="83" pan="0" vol="197" pos="264"/>
          <note len="24" key="85" pan="0" vol="197" pos="288"/>
          <note len="24" key="83" pan="0" vol="197" pos="312"/>
          <note len="24" key="80" pan="0" vol="197" pos="336"/>
          <note len="24" key="83" pan="0" vol="197" pos="360"/>
        </pattern>
        <pattern muted="0" name="" steps="16" type="1" pos="31488">
          <note len="12" key="71" pan="0" vol="197" pos="0"/>
          <note len="24" key="0" pan="0" vol="197" pos="0"/>
          <note len="12" key="69" pan="0" vol="197" pos="12"/>
          <note len="24" key="1" pan="0" vol="197" pos="12"/>
          <note len="12" key="71" pan="0" vol="197" pos="24"/>
          <note len="12" key="73" pan="0" vol="197" pos="36"/>
          <note len="12" key="75" pan="0" vol="197" pos="48"/>
          <note len="12" key="0" pan="0" vol="197" pos="48"/>
          <note len="12" key="71" pan="0" vol="197" pos="60"/>
          <note len="12" key="1" pan="0" vol="197" pos="60"/>
          <note len="12" key="73" pan="0" vol="197" pos="72"/>
          <note len="12" key="75" pan="0" vol="197" pos="84"/>
          <note len="12" key="76" pan="0" vol="197" pos="96"/>
          <note len="12" key="0" pan="0" vol="197" pos="96"/>
          <note len="12" key="75" pan="0" vol="197" pos="108"/>
          <note len="12" key="1" pan="0" vol="197" pos="108"/>
          <note len="12" key="73" pan="0" vol="197" pos="120"/>
          <note len="12" key="75" pan="0" vol="197" pos="132"/>
          <note len="12" key="76" pan="0" vol="197" pos="144"/>
          <note len="12" key="78" pan="0" vol="197" pos="156"/>
          <note len="12" key="80" pan="0" vol="197" pos="168"/>
          <note len="12" key="81" pan="0" vol="197" pos="180"/>
          <note len="12" key="83" pan="0" vol="197" pos="192"/>
          <note len="12" key="0" pan="0" vol="197" pos="192"/>
          <note len="12" key="78" pan="0" vol="197" pos="204"/>
          <note len="12" key="75" pan="0" vol="197" pos="216"/>
          <note len="12" key="1" pan="0" vol="197" pos="216"/>
          <note len="12" key="71" pan="0" vol="197" pos="228"/>
          <note len="12" key="66" pan="0" vol="197" pos="240"/>
          <note len="12" key="71" pan="0" vol="197" pos="252"/>
          <note len="12" key="87" pan="0" vol="197" pos="264"/>
          <note len="12" key="2" pan="0" vol="197" pos="264"/>
          <note len="12" key="78" pan="0" vol="197" pos="276"/>
          <note len="12" key="75" pan="0" vol="197" pos="288"/>
          <note len="12" key="1" pan="0" vol="197" pos="288"/>
          <note len="12" key="71" pan="0" vol="197" pos="300"/>
          <note len="12" key="75" pan="0" vol="197" pos="312"/>
          <note len="12" key="78" pan="0" vol="197" pos="324"/>
          <note len="12" key="83" pan="0" vol="197" pos="336"/>
          <note len="12" key="0" pan="0" vol="197" pos="336"/>
          <note len="12" key="78" pan="0" vol="197" pos="348"/>
          <note len="12" key="75" pan="0" vol="197" pos="360"/>
          <note len="12" key="78" pan="0" vol="197" pos="372"/>
        </pattern>
        <pattern muted="0" name="" steps="16" type="1" pos="31872">
          <note len="240" key="85" pan="0" vol="100" pos="0"/>
        </pattern>
        <pattern muted="0" name="" steps="16" type="1" pos="37056">
          <note len="12" key="80" pan="0" vol="197" pos="0"/>
          <note len="12" key="0" pan="0" vol="197" pos="0"/>
          <note len="12" key="64" pan="0" vol="197" pos="12"/>
          <note len="12" key="2" pan="0" vol="197" pos="12"/>
          <note len="12" key="64" pan="0" vol="197" pos="24"/>
          <note len="12" key="0" pan="0" vol="197" pos="24"/>
          <note len="12" key="78" pan="0" vol="197" pos="36"/>
          <note len="12" key="0" pan="0" vol="197" pos="36"/>
          <note len="12" key="64" pan="0" vol="197" pos="48"/>
          <note len="12" key="2" pan="0" vol="197" pos="48"/>
          <note len="12" key="64" pan="0" vol="197" pos="60"/>
          <note len="12" key="0" pan="0" vol="197" pos="60"/>
          <note len="12" key="80" pan="0" vol="197" pos="72"/>
          <note len="12" key="0" pan="0" vol="197" pos="72"/>
          <note len="12" key="64" pan="0" vol="197" pos="84"/>
          <note len="12" key="2" pan="0" vol="197" pos="84"/>
          <note len="12" key="64" pan="0" vol="197" pos="96"/>
          <note len="12" key="0" pan="0" vol="197" pos="96"/>
          <note len="12" key="78" pan="0" vol="197" pos="108"/>
          <note len="12" key="0" pan="0" vol="197" pos="108"/>
          <note len="12" key="64" pan="0" vol="197" pos="120"/>
          <note len="12" key="2" pan="0" vol="197" pos="120"/>
          <note len="12" key="64" pan="0" vol="197" pos="132"/>
          <note len="12" key="0" pan="0" vol="197" pos="132"/>
          <note len="12" key="83" pan="0" vol="197" pos="144"/>
          <note len="12" key="0" pan="0" vol="197" pos="144"/>
          <note len="12" key="64" pan="0" vol="197" pos="156"/>
          <note len="12" key="2" pan="0" vol="197" pos="156"/>
          <note len="12" key="81" pan="0" vol="197" pos="168"/>
          <note len="12" key="0" pan="0" vol="197" pos="168"/>
          <note len="12" key="64" pan="0" vol="197" pos="180"/>
          <note len="12" key="2" pan="0" vol="197" pos="180"/>
        </pattern>
        <pattern muted="0" name="" steps="16" type="1" pos="37248">
          <note len="12" key="85" pan="0" vol="100" pos="0"/>
          <note len="48" key="0" pan="0" vol="100" pos="0"/>
          <note len="12" key="83" pan="0" vol="100" pos="12"/>
          <note len="12" key="80" pan="0" vol="100" pos="24"/>
          <note len="12" key="1" pan="0" vol="100" pos="24"/>
          <note len="12" key="78" pan="0" vol="100" pos="36"/>
          <note len="12" key="76" pan="0" vol="100" pos="48"/>
          <note len="12" key="73" pan="0" vol="100" pos="60"/>
          <note len="12" key="76" pan="0" vol="100" pos="72"/>
          <note len="12" key="80" pan="0" vol="100" pos="84"/>
          <note len="12" key="85" pan="0" vol="100" pos="96"/>
          <note len="12" key="0" pan="0" vol="100" pos="96"/>
          <note len="12" key="83" pan="0" vol="100" pos="108"/>
          <note len="12" key="80" pan="0" vol="100" pos="120"/>
          <note len="12" key="1" pan="0" vol="100" pos="120"/>
          <note len="12" key="78" pan="0" vol="100" pos="132"/>
          <note len="12" key="76" pan="0" vol="100" pos="144"/>
          <note len="12" key="73" pan="0" vol="100" pos="156"/>
          <note len="12" key="76" pan="0" vol="100" pos="168"/>
          <note len="12" key="80" pan="0" vol="100" pos="180"/>
        </pattern>
        <pattern muted="0" name="" steps="16" type="1" pos="37440">
          <note len="12" key="71" pan="0" vol="197" pos="0"/>
          <note len="12" key="0" pan="0" vol="100" pos="0"/>
          <note len="12" key="73" pan="0" vol="197" pos="12"/>
          <note len="12" key="71" pan="0" vol="197" pos="24"/>
          <note len="12" key="68" pan="0" vol="197" pos="36"/>
          <note len="12" key="1" pan="0" vol="100" pos="36"/>
          <note len="12" key="69" pan="0" vol="197" pos="48"/>
          <note len="12" key="64" pan="0" vol="197" pos="60"/>
          <note len="12" key="68" pan="0" vol="197" pos="72"/>
          <note len="12" key="0" pan="0" vol="100" pos="72"/>
          <note len="12" key="69" pan="0" vol="197" pos="84"/>
          <note len="12" key="75" pan="0" vol="197" pos="96"/>
          <note len="12" key="0" pan="0" vol="100" pos="96"/>
          <note len="12" key="76" pan="0" vol="197" pos="108"/>
          <note len="12" key="75" pan="0" vol="197" pos="120"/>
          <note len="12" key="73" pan="0" vol="197" pos="132"/>
          <note len="12" key="1" pan="0" vol="100" pos="132"/>
          <note len="12" key="75" pan="0" vol="197" pos="144"/>
          <note len="12" key="69" pan="0" vol="197" pos="156"/>
          <note len="12" key="71" pan="0" vol="197" pos="168"/>
          <note len="12" key="0" pan="0" vol="100" pos="168"/>
          <note len="12" key="73" pan="0" vol="197" pos="180"/>
        </pattern>
        <pattern muted="0" name="" steps="16" type="1" pos="34752">
          <note len="12" key="80" pan="0" vol="95" pos="96"/>
          <note len="12" key="0" pan="0" vol="95" pos="96"/>
          <note len="12" key="81" pan="0" vol="95" pos="108"/>
          <note len="12" key="80" pan="0" vol="95" pos="120"/>
          <note len="12" key="78" pan="0" vol="95" pos="132"/>
          <note len="12" key="1" pan="0" vol="95" pos="132"/>
          <note len="12" key="80" pan="0" vol="95" pos="144"/>
          <note len="12" key="0" pan="0" vol="95" pos="144"/>
          <note len="12" key="78" pan="0" vol="95" pos="156"/>
          <note len="12" key="1" pan="0" vol="95" pos="156"/>
          <note len="12" key="76" pan="0" vol="95" pos="168"/>
          <note len="12" key="75" pan="0" vol="95" pos="180"/>
        </pattern>
        <pattern muted="0" name="" steps="16" type="1" pos="37632">
          <note len="12" key="68" pan="0" vol="197" pos="0"/>
          <note len="12" key="1" pan="0" vol="197" pos="0"/>
          <note len="12" key="69" pan="0" vol="197" pos="12"/>
          <note len="12" key="68" pan="0" vol="197" pos="24"/>
          <note len="12" key="66" pan="0" vol="197" pos="36"/>
          <note len="12" key="69" pan="0" vol="197" pos="48"/>
          <note len="12" key="71" pan="0" vol="197" pos="60"/>
          <note len="12" key="69" pan="0" vol="197" pos="72"/>
          <note len="12" key="68" pan="0" vol="197" pos="84"/>
          <note len="12" key="71" pan="0" vol="197" pos="96"/>
          <note len="12" key="0" pan="0" vol="197" pos="96"/>
          <note len="12" key="73" pan="0" vol="197" pos="108"/>
          <note len="12" key="71" pan="0" vol="197" pos="120"/>
          <note len="12" key="1" pan="0" vol="197" pos="120"/>
          <note len="12" key="69" pan="0" vol="197" pos="132"/>
          <note len="12" key="73" pan="0" vol="197" pos="144"/>
          <note len="12" key="0" pan="0" vol="197" pos="144"/>
          <note len="12" key="75" pan="0" vol="197" pos="156"/>
          <note len="12" key="73" pan="0" vol="197" pos="168"/>
          <note len="12" key="1" pan="0" vol="197" pos="168"/>
          <note len="12" key="71" pan="0" vol="197" pos="180"/>
          <note len="12" key="76" pan="0" vol="197" pos="192"/>
          <note len="12" key="0" pan="0" vol="197" pos="192"/>
          <note len="12" key="73" pan="0" vol="197" pos="204"/>
          <note len="12" key="75" pan="0" vol="197" pos="216"/>
          <note len="12" key="1" pan="0" vol="197" pos="216"/>
          <note len="12" key="76" pan="0" vol="197" pos="228"/>
          <note len="12" key="78" pan="0" vol="197" pos="240"/>
          <note len="12" key="0" pan="0" vol="197" pos="240"/>
          <note len="12" key="75" pan="0" vol="197" pos="252"/>
          <note len="12" key="76" pan="0" vol="197" pos="264"/>
          <note len="12" key="1" pan="0" vol="197" pos="264"/>
          <note len="12" key="78" pan="0" vol="197" pos="276"/>
          <note len="12" key="81" pan="0" vol="197" pos="288"/>
          <note len="12" key="0" pan="0" vol="197" pos="288"/>
          <note len="12" key="80" pan="0" vol="197" pos="300"/>
          <note len="12" key="81" pan="0" vol="197" pos="312"/>
          <note len="12" key="83" pan="0" vol="197" pos="324"/>
          <note len="12" key="87" pan="0" vol="197" pos="336"/>
          <note len="12" key="0" pan="0" vol="197" pos="336"/>
          <note len="12" key="83" pan="0" vol="197" pos="348"/>
          <note len="12" key="78" pan="0" vol="197" pos="360"/>
          <note len="12" key="1" pan="0" vol="197" pos="360"/>
          <note len="12" key="75" pan="0" vol="197" pos="372"/>
        </pattern>
        <pattern muted="0" name="" steps="16" type="1" pos="38784">
          <note len="12" key="66" pan="0" vol="100" pos="0"/>
          <note len="12" key="1" pan="0" vol="100" pos="0"/>
          <note len="12" key="68" pan="0" vol="100" pos="12"/>
          <note len="12" key="69" pan="0" vol="100" pos="24"/>
          <note len="12" key="71" pan="0" vol="100" pos="36"/>
          <note len="12" key="73" pan="0" vol="100" pos="48"/>
          <note len="12" key="0" pan="0" vol="100" pos="48"/>
          <note len="12" key="71" pan="0" vol="100" pos="60"/>
          <note len="12" key="69" pan="0" vol="100" pos="72"/>
          <note len="12" key="1" pan="0" vol="100" pos="72"/>
          <note len="12" key="68" pan="0" vol="100" pos="84"/>
          <note len="12" key="69" pan="0" vol="100" pos="96"/>
          <note len="12" key="71" pan="0" vol="100" pos="108"/>
          <note len="12" key="73" pan="0" vol="100" pos="120"/>
          <note len="12" key="75" pan="0" vol="100" pos="132"/>
          <note len="12" key="76" pan="0" vol="100" pos="144"/>
          <note len="12" key="0" pan="0" vol="100" pos="144"/>
          <note len="12" key="75" pan="0" vol="100" pos="156"/>
          <note len="12" key="73" pan="0" vol="100" pos="168"/>
          <note len="12" key="1" pan="0" vol="100" pos="168"/>
          <note len="12" key="71" pan="0" vol="100" pos="180"/>
          <note len="12" key="73" pan="0" vol="100" pos="192"/>
          <note len="12" key="75" pan="0" vol="100" pos="204"/>
          <note len="12" key="76" pan="0" vol="100" pos="216"/>
          <note len="12" key="78" pan="0" vol="100" pos="228"/>
          <note len="12" key="80" pan="0" vol="100" pos="240"/>
          <note len="12" key="0" pan="0" vol="100" pos="240"/>
          <note len="12" key="78" pan="0" vol="100" pos="252"/>
          <note len="12" key="76" pan="0" vol="100" pos="264"/>
          <note len="12" key="1" pan="0" vol="100" pos="264"/>
          <note len="12" key="75" pan="0" vol="100" pos="276"/>
          <note len="12" key="81" pan="0" vol="100" pos="288"/>
          <note len="12" key="0" pan="0" vol="100" pos="288"/>
          <note len="12" key="80" pan="0" vol="100" pos="300"/>
          <note len="12" key="78" pan="0" vol="100" pos="312"/>
          <note len="12" key="76" pan="0" vol="100" pos="324"/>
          <note len="12" key="83" pan="0" vol="100" pos="336"/>
          <note len="12" key="81" pan="0" vol="100" pos="348"/>
          <note len="12" key="80" pan="0" vol="100" pos="360"/>
          <note len="12" key="78" pan="0" vol="100" pos="372"/>
        </pattern>
        <pattern muted="0" name="" steps="16" type="1" pos="39168">
          <note len="24" key="82" pan="0" vol="78" pos="0"/>
          <note len="24" key="0" pan="0" vol="78" pos="0"/>
          <note len="24" key="79" pan="0" vol="78" pos="24"/>
          <note len="24" key="75" pan="0" vol="78" pos="48"/>
          <note len="24" key="79" pan="0" vol="78" pos="72"/>
          <note len="24" key="75" pan="0" vol="78" pos="96"/>
          <note len="24" key="70" pan="0" vol="78" pos="120"/>
          <note len="24" key="75" pan="0" vol="78" pos="144"/>
          <note len="24" key="79" pan="0" vol="78" pos="168"/>
          <note len="48" key="80" pan="0" vol="78" pos="192"/>
          <note len="48" key="84" pan="0" vol="78" pos="240"/>
          <note len="48" key="85" pan="0" vol="78" pos="288"/>
          <note len="48" key="87" pan="0" vol="78" pos="336"/>
        </pattern>
        <pattern muted="0" name="" steps="16" type="1" pos="43200">
          <note len="72" key="0" pan="0" vol="78" pos="0"/>
          <note len="144" key="75" pan="0" vol="78" pos="960"/>
          <note len="48" key="78" pan="0" vol="78" pos="1104"/>
          <note len="144" key="77" pan="0" vol="78" pos="1152"/>
          <note len="48" key="82" pan="0" vol="78" pos="1296"/>
          <note len="144" key="82" pan="0" vol="78" pos="1344"/>
          <note len="24" key="80" pan="0" vol="78" pos="1488"/>
          <note len="24" key="78" pan="0" vol="78" pos="1512"/>
          <note len="48" key="77" pan="0" vol="78" pos="1536"/>
          <note len="48" key="78" pan="0" vol="78" pos="1584"/>
          <note len="48" key="73" pan="0" vol="78" pos="1632"/>
          <note len="48" key="70" pan="0" vol="78" pos="1680"/>
          <note len="96" key="71" pan="0" vol="78" pos="1728"/>
          <note len="48" key="75" pan="0" vol="78" pos="1824"/>
          <note len="48" key="78" pan="0" vol="78" pos="1872"/>
          <note len="96" key="78" pan="0" vol="78" pos="1920"/>
          <note len="48" key="77" pan="0" vol="78" pos="2016"/>
          <note len="48" key="78" pan="0" vol="78" pos="2064"/>
          <note len="72" key="85" pan="0" vol="78" pos="2112"/>
          <note len="72" key="83" pan="0" vol="78" pos="2184"/>
          <note len="48" key="82" pan="0" vol="78" pos="2256"/>
          <note len="192" key="80" pan="0" vol="78" pos="2304"/>
          <note len="72" key="78" pan="0" vol="78" pos="2496"/>
          <note len="72" key="77" pan="0" vol="78" pos="2568"/>
          <note len="48" key="78" pan="0" vol="78" pos="2640"/>
          <note len="144" key="82" pan="0" vol="78" pos="2688"/>
          <note len="48" key="77" pan="0" vol="78" pos="2832"/>
          <note len="240" key="75" pan="0" vol="78" pos="2880"/>
          <note len="48" key="78" pan="0" vol="78" pos="3120"/>
          <note len="48" key="80" pan="0" vol="78" pos="3168"/>
          <note len="48" key="82" pan="0" vol="78" pos="3216"/>
          <note len="72" key="83" pan="0" vol="78" pos="3264"/>
          <note len="72" key="82" pan="0" vol="78" pos="3336"/>
          <note len="48" key="80" pan="0" vol="78" pos="3408"/>
          <note len="48" key="78" pan="0" vol="78" pos="3456"/>
          <note len="48" key="75" pan="0" vol="78" pos="3504"/>
          <note len="48" key="78" pan="0" vol="78" pos="3552"/>
          <note len="48" key="82" pan="0" vol="78" pos="3600"/>
          <note len="192" key="80" pan="0" vol="78" pos="3648"/>
          <note len="12" key="73" pan="0" vol="106" pos="3840"/>
          <note len="12" key="71" pan="0" vol="106" pos="3852"/>
          <note len="12" key="70" pan="0" vol="106" pos="3864"/>
          <note len="12" key="68" pan="0" vol="106" pos="3876"/>
          <note len="12" key="71" pan="0" vol="106" pos="3888"/>
          <note len="12" key="70" pan="0" vol="106" pos="3900"/>
          <note len="12" key="68" pan="0" vol="106" pos="3912"/>
          <note len="12" key="66" pan="0" vol="106" pos="3924"/>
          <note len="12" key="70" pan="0" vol="106" pos="3936"/>
          <note len="12" key="68" pan="0" vol="106" pos="3948"/>
          <note len="12" key="66" pan="0" vol="106" pos="3960"/>
          <note len="12" key="65" pan="0" vol="106" pos="3972"/>
          <note len="12" key="68" pan="0" vol="106" pos="3984"/>
          <note len="12" key="66" pan="0" vol="106" pos="3996"/>
          <note len="12" key="65" pan="0" vol="106" pos="4008"/>
          <note len="12" key="66" pan="0" vol="106" pos="4020"/>
        </pattern>
        <pattern muted="0" name="" steps="16" type="1" pos="40320">
          <note len="12" key="69" pan="0" vol="78" pos="0"/>
          <note len="48" key="1" pan="0" vol="200" pos="0"/>
          <note len="12" key="68" pan="0" vol="78" pos="12"/>
          <note len="12" key="66" pan="0" vol="78" pos="24"/>
          <note len="12" key="68" pan="0" vol="78" pos="36"/>
          <note len="12" key="69" pan="0" vol="78" pos="48"/>
          <note len="12" key="68" pan="0" vol="78" pos="60"/>
          <note len="12" key="66" pan="0" vol="78" pos="72"/>
          <note len="12" key="68" pan="0" vol="78" pos="84"/>
          <note len="12" key="73" pan="0" vol="78" pos="96"/>
          <note len="12" key="71" pan="0" vol="78" pos="108"/>
          <note len="12" key="69" pan="0" vol="78" pos="120"/>
          <note len="12" key="71" pan="0" vol="78" pos="132"/>
          <note len="12" key="73" pan="0" vol="78" pos="144"/>
          <note len="12" key="75" pan="0" vol="78" pos="156"/>
          <note len="12" key="76" pan="0" vol="78" pos="168"/>
          <note len="12" key="75" pan="0" vol="78" pos="180"/>
          <note len="12" key="76" pan="0" vol="78" pos="192"/>
          <note len="12" key="75" pan="0" vol="78" pos="204"/>
          <note len="12" key="73" pan="0" vol="78" pos="216"/>
          <note len="12" key="75" pan="0" vol="78" pos="228"/>
          <note len="12" key="76" pan="0" vol="78" pos="240"/>
          <note len="48" key="0" pan="0" vol="200" pos="240"/>
          <note len="12" key="75" pan="0" vol="78" pos="252"/>
          <note len="12" key="73" pan="0" vol="78" pos="264"/>
          <note len="12" key="75" pan="0" vol="78" pos="276"/>
          <note len="12" key="76" pan="0" vol="78" pos="288"/>
          <note len="12" key="78" pan="0" vol="78" pos="300"/>
          <note len="12" key="80" pan="0" vol="78" pos="312"/>
          <note len="12" key="81" pan="0" vol="78" pos="324"/>
          <note len="12" key="83" pan="0" vol="78" pos="336"/>
          <note len="12" key="76" pan="0" vol="78" pos="348"/>
          <note len="12" key="1" pan="0" vol="200" pos="348"/>
          <note len="12" key="75" pan="0" vol="78" pos="360"/>
          <note len="12" key="76" pan="0" vol="78" pos="372"/>
        </pattern>
        <pattern muted="0" name="" steps="16" type="1" pos="40704">
          <note len="48" key="83" pan="0" vol="78" pos="0"/>
          <note len="48" key="0" pan="0" vol="100" pos="0"/>
          <note len="12" key="81" pan="0" vol="78" pos="48"/>
          <note len="12" key="83" pan="0" vol="78" pos="60"/>
          <note len="48" key="81" pan="0" vol="78" pos="72"/>
          <note len="12" key="80" pan="0" vol="78" pos="120"/>
          <note len="12" key="81" pan="0" vol="78" pos="132"/>
          <note len="12" key="80" pan="0" vol="78" pos="144"/>
          <note len="12" key="0" pan="0" vol="78" pos="144"/>
          <note len="12" key="78" pan="0" vol="78" pos="156"/>
          <note len="12" key="1" pan="0" vol="78" pos="156"/>
          <note len="12" key="76" pan="0" vol="78" pos="168"/>
          <note len="12" key="80" pan="0" vol="78" pos="180"/>
          <note len="48" key="78" pan="0" vol="78" pos="192"/>
          <note len="12" key="0" pan="0" vol="78" pos="192"/>
          <note len="12" key="76" pan="0" vol="78" pos="240"/>
          <note len="12" key="1" pan="0" vol="78" pos="240"/>
          <note len="12" key="75" pan="0" vol="78" pos="252"/>
          <note len="12" key="76" pan="0" vol="78" pos="264"/>
          <note len="12" key="78" pan="0" vol="78" pos="276"/>
          <note len="12" key="80" pan="0" vol="78" pos="288"/>
          <note len="12" key="0" pan="0" vol="78" pos="288"/>
          <note len="12" key="81" pan="0" vol="78" pos="300"/>
          <note len="12" key="80" pan="0" vol="78" pos="312"/>
          <note len="12" key="78" pan="0" vol="78" pos="324"/>
          <note len="12" key="80" pan="0" vol="78" pos="336"/>
          <note len="12" key="78" pan="0" vol="78" pos="348"/>
          <note len="12" key="76" pan="0" vol="78" pos="360"/>
          <note len="12" key="1" pan="0" vol="78" pos="360"/>
          <note len="12" key="75" pan="0" vol="78" pos="372"/>
        </pattern>
        <pattern muted="0" name="" steps="16" type="1" pos="41088">
          <note len="12" key="80" pan="0" vol="78" pos="0"/>
          <note len="12" key="0" pan="0" vol="78" pos="0"/>
          <note len="12" key="76" pan="0" vol="78" pos="12"/>
          <note len="12" key="75" pan="0" vol="78" pos="24"/>
          <note len="12" key="1" pan="0" vol="78" pos="24"/>
          <note len="12" key="76" pan="0" vol="78" pos="36"/>
          <note len="12" key="73" pan="0" vol="78" pos="48"/>
          <note len="12" key="76" pan="0" vol="78" pos="60"/>
          <note len="12" key="75" pan="0" vol="78" pos="72"/>
          <note len="12" key="76" pan="0" vol="78" pos="84"/>
          <note len="12" key="80" pan="0" vol="78" pos="96"/>
          <note len="12" key="0" pan="0" vol="78" pos="96"/>
          <note len="12" key="76" pan="0" vol="78" pos="108"/>
          <note len="12" key="75" pan="0" vol="78" pos="120"/>
          <note len="12" key="1" pan="0" vol="78" pos="120"/>
          <note len="12" key="76" pan="0" vol="78" pos="132"/>
          <note len="12" key="73" pan="0" vol="78" pos="144"/>
          <note len="12" key="76" pan="0" vol="78" pos="156"/>
          <note len="12" key="75" pan="0" vol="78" pos="168"/>
          <note len="12" key="76" pan="0" vol="78" pos="180"/>
          <note len="12" key="80" pan="0" vol="78" pos="192"/>
          <note len="12" key="0" pan="0" vol="78" pos="192"/>
          <note len="12" key="75" pan="0" vol="78" pos="204"/>
          <note len="12" key="73" pan="0" vol="78" pos="216"/>
          <note len="12" key="1" pan="0" vol="78" pos="216"/>
          <note len="12" key="75" pan="0" vol="78" pos="228"/>
          <note len="12" key="71" pan="0" vol="78" pos="240"/>
          <note len="12" key="75" pan="0" vol="78" pos="252"/>
          <note len="12" key="73" pan="0" vol="78" pos="264"/>
          <note len="12" key="75" pan="0" vol="78" pos="276"/>
          <note len="12" key="80" pan="0" vol="78" pos="288"/>
          <note len="12" key="0" pan="0" vol="78" pos="288"/>
          <note len="12" key="75" pan="0" vol="78" pos="300"/>
          <note len="12" key="73" pan="0" vol="78" pos="312"/>
          <note len="12" key="1" pan="0" vol="78" pos="312"/>
          <note len="12" key="75" pan="0" vol="78" pos="324"/>
          <note len="12" key="71" pan="0" vol="78" pos="336"/>
          <note len="12" key="75" pan="0" vol="78" pos="348"/>
          <note len="12" key="73" pan="0" vol="78" pos="360"/>
          <note len="12" key="75" pan="0" vol="78" pos="372"/>
        </pattern>
        <pattern muted="0" name="" steps="16" type="1" pos="41472">
          <note len="12" key="82" pan="0" vol="78" pos="0"/>
          <note len="12" key="0" pan="0" vol="78" pos="0"/>
          <note len="12" key="78" pan="0" vol="78" pos="12"/>
          <note len="12" key="73" pan="0" vol="78" pos="24"/>
          <note len="12" key="1" pan="0" vol="78" pos="24"/>
          <note len="12" key="78" pan="0" vol="78" pos="36"/>
          <note len="12" key="70" pan="0" vol="78" pos="48"/>
          <note len="12" key="78" pan="0" vol="78" pos="60"/>
          <note len="12" key="73" pan="0" vol="78" pos="72"/>
          <note len="12" key="78" pan="0" vol="78" pos="84"/>
          <note len="12" key="82" pan="0" vol="78" pos="96"/>
          <note len="12" key="78" pan="0" vol="78" pos="108"/>
          <note len="12" key="73" pan="0" vol="78" pos="120"/>
          <note len="12" key="78" pan="0" vol="78" pos="132"/>
          <note len="12" key="70" pan="0" vol="78" pos="144"/>
          <note len="12" key="78" pan="0" vol="78" pos="156"/>
          <note len="12" key="73" pan="0" vol="78" pos="168"/>
          <note len="12" key="78" pan="0" vol="78" pos="180"/>
        </pattern>
        <pattern muted="0" name="" steps="16" type="1" pos="41664">
          <note len="12" key="82" pan="0" vol="78" pos="0"/>
          <note len="12" key="0" pan="0" vol="78" pos="0"/>
          <note len="12" key="78" pan="0" vol="78" pos="12"/>
          <note len="12" key="73" pan="0" vol="78" pos="24"/>
          <note len="12" key="1" pan="0" vol="78" pos="24"/>
          <note len="12" key="70" pan="0" vol="78" pos="36"/>
          <note len="12" key="73" pan="0" vol="78" pos="48"/>
          <note len="12" key="70" pan="0" vol="78" pos="60"/>
          <note len="12" key="66" pan="0" vol="78" pos="72"/>
          <note len="12" key="70" pan="0" vol="78" pos="84"/>
          <note len="12" key="78" pan="0" vol="78" pos="96"/>
          <note len="12" key="73" pan="0" vol="78" pos="108"/>
          <note len="12" key="70" pan="0" vol="78" pos="120"/>
          <note len="12" key="73" pan="0" vol="78" pos="132"/>
          <note len="12" key="78" pan="0" vol="78" pos="144"/>
          <note len="12" key="82" pan="0" vol="78" pos="156"/>
          <note len="12" key="1" pan="0" vol="78" pos="156"/>
          <note len="12" key="85" pan="0" vol="78" pos="168"/>
          <note len="12" key="82" pan="0" vol="78" pos="180"/>
        </pattern>
        <pattern muted="0" name="" steps="16" type="1" pos="41856">
          <note len="24" key="86" pan="0" vol="78" pos="0"/>
          <note len="48" key="0" pan="0" vol="78" pos="0"/>
          <note len="24" key="81" pan="0" vol="78" pos="24"/>
          <note len="24" key="76" pan="0" vol="78" pos="48"/>
          <note len="24" key="83" pan="0" vol="78" pos="72"/>
          <note len="24" key="85" pan="0" vol="78" pos="96"/>
          <note len="24" key="86" pan="0" vol="78" pos="120"/>
          <note len="24" key="85" pan="0" vol="78" pos="144"/>
          <note len="24" key="83" pan="0" vol="78" pos="168"/>
          <note len="12" key="85" pan="0" vol="78" pos="192"/>
          <note len="24" key="0" pan="0" vol="78" pos="192"/>
          <note len="12" key="83" pan="0" vol="78" pos="204"/>
          <note len="12" key="81" pan="0" vol="78" pos="216"/>
          <note len="24" key="1" pan="0" vol="78" pos="216"/>
          <note len="12" key="80" pan="0" vol="78" pos="228"/>
          <note len="12" key="78" pan="0" vol="78" pos="240"/>
          <note len="12" key="80" pan="0" vol="78" pos="252"/>
          <note len="12" key="81" pan="0" vol="78" pos="264"/>
          <note len="24" key="0" pan="0" vol="78" pos="264"/>
          <note len="12" key="80" pan="0" vol="78" pos="276"/>
          <note len="12" key="78" pan="0" vol="78" pos="288"/>
          <note len="24" key="1" pan="0" vol="78" pos="288"/>
          <note len="12" key="76" pan="0" vol="78" pos="300"/>
          <note len="12" key="78" pan="0" vol="78" pos="312"/>
          <note len="12" key="80" pan="0" vol="78" pos="324"/>
          <note len="12" key="85" pan="0" vol="78" pos="336"/>
          <note len="24" key="0" pan="0" vol="78" pos="336"/>
          <note len="12" key="83" pan="0" vol="78" pos="348"/>
          <note len="12" key="81" pan="0" vol="78" pos="360"/>
          <note len="24" key="1" pan="0" vol="78" pos="360"/>
          <note len="12" key="83" pan="0" vol="78" pos="372"/>
          <note len="384" key="87" pan="0" vol="78" pos="384"/>
          <note len="24" key="0" pan="0" vol="78" pos="384"/>
        </pattern>
        <pattern muted="0" name="" steps="16" type="1" pos="30336">
          <note len="12" key="66" pan="0" vol="197" pos="0"/>
          <note len="12" key="1" pan="0" vol="197" pos="0"/>
          <note len="12" key="66" pan="0" vol="197" pos="12"/>
          <note len="12" key="64" pan="0" vol="197" pos="24"/>
          <note len="12" key="64" pan="0" vol="197" pos="36"/>
          <note len="12" key="62" pan="0" vol="197" pos="48"/>
          <note len="12" key="62" pan="0" vol="197" pos="60"/>
          <note len="12" key="69" pan="0" vol="197" pos="72"/>
          <note len="12" key="69" pan="0" vol="197" pos="84"/>
          <note len="12" key="68" pan="0" vol="197" pos="96"/>
          <note len="12" key="68" pan="0" vol="197" pos="108"/>
          <note len="12" key="66" pan="0" vol="197" pos="120"/>
          <note len="12" key="66" pan="0" vol="197" pos="132"/>
          <note len="12" key="68" pan="0" vol="197" pos="144"/>
          <note len="12" key="68" pan="0" vol="197" pos="156"/>
          <note len="12" key="69" pan="0" vol="197" pos="168"/>
          <note len="12" key="69" pan="0" vol="197" pos="180"/>
          <note len="48" key="71" pan="0" vol="197" pos="192"/>
          <note len="48" key="0" pan="0" vol="197" pos="192"/>
          <note len="12" key="69" pan="0" vol="197" pos="240"/>
          <note len="12" key="2" pan="0" vol="197" pos="240"/>
          <note len="12" key="71" pan="0" vol="197" pos="252"/>
          <note len="12" key="73" pan="0" vol="197" pos="264"/>
          <note len="12" key="0" pan="0" vol="197" pos="264"/>
          <note len="12" key="74" pan="0" vol="197" pos="276"/>
          <note len="12" key="76" pan="0" vol="197" pos="288"/>
          <note len="12" key="0" pan="0" vol="197" pos="288"/>
          <note len="12" key="74" pan="0" vol="197" pos="300"/>
          <note len="12" key="1" pan="0" vol="197" pos="300"/>
          <note len="12" key="73" pan="0" vol="197" pos="312"/>
          <note len="12" key="74" pan="0" vol="197" pos="324"/>
          <note len="12" key="78" pan="0" vol="197" pos="336"/>
          <note len="12" key="0" pan="0" vol="197" pos="336"/>
          <note len="12" key="76" pan="0" vol="197" pos="348"/>
          <note len="12" key="1" pan="0" vol="197" pos="348"/>
          <note len="12" key="74" pan="0" vol="197" pos="360"/>
          <note len="12" key="76" pan="0" vol="197" pos="372"/>
          <note len="24" key="76" pan="0" vol="197" pos="384"/>
          <note len="24" key="0" pan="0" vol="197" pos="384"/>
          <note len="24" key="78" pan="0" vol="197" pos="408"/>
          <note len="48" key="74" pan="0" vol="197" pos="456"/>
          <note len="24" key="1" pan="0" vol="197" pos="480"/>
          <note len="12" key="71" pan="0" vol="197" pos="504"/>
          <note len="12" key="71" pan="0" vol="197" pos="516"/>
          <note len="12" key="74" pan="0" vol="197" pos="528"/>
          <note len="12" key="74" pan="0" vol="197" pos="540"/>
          <note len="12" key="76" pan="0" vol="197" pos="552"/>
          <note len="12" key="76" pan="0" vol="197" pos="564"/>
          <note len="24" key="80" pan="0" vol="197" pos="576"/>
          <note len="12" key="78" pan="0" vol="197" pos="600"/>
          <note len="12" key="80" pan="0" vol="197" pos="612"/>
          <note len="24" key="81" pan="0" vol="197" pos="624"/>
          <note len="12" key="80" pan="0" vol="197" pos="648"/>
          <note len="12" key="81" pan="0" vol="197" pos="660"/>
          <note len="12" key="85" pan="0" vol="197" pos="672"/>
          <note len="12" key="83" pan="0" vol="197" pos="684"/>
          <note len="12" key="81" pan="0" vol="197" pos="696"/>
          <note len="12" key="80" pan="0" vol="197" pos="708"/>
          <note len="12" key="78" pan="0" vol="197" pos="720"/>
          <note len="12" key="76" pan="0" vol="197" pos="732"/>
          <note len="12" key="74" pan="0" vol="197" pos="744"/>
          <note len="12" key="73" pan="0" vol="197" pos="756"/>
        </pattern>
        <pattern muted="0" name="" steps="16" type="1" pos="53376">
          <note len="192" key="75" pan="0" vol="197" pos="0"/>
          <note len="384" key="0" pan="0" vol="197" pos="0"/>
          <note len="192" key="73" pan="0" vol="197" pos="192"/>
          <note len="288" key="70" pan="0" vol="197" pos="384"/>
          <note len="96" key="70" pan="0" vol="197" pos="672"/>
          <note len="192" key="82" pan="0" vol="197" pos="768"/>
          <note len="192" key="80" pan="0" vol="197" pos="960"/>
          <note len="384" key="75" pan="0" vol="197" pos="1152"/>
          <note len="192" key="75" pan="0" vol="197" pos="1536"/>
          <note len="192" key="77" pan="0" vol="197" pos="1728"/>
          <note len="192" key="78" pan="0" vol="197" pos="1920"/>
          <note len="96" key="82" pan="0" vol="197" pos="2112"/>
          <note len="96" key="80" pan="0" vol="197" pos="2208"/>
          <note len="192" key="80" pan="0" vol="197" pos="2304"/>
          <note len="144" key="75" pan="0" vol="197" pos="2496"/>
          <note len="24" key="75" pan="0" vol="197" pos="2640"/>
          <note len="24" key="77" pan="0" vol="197" pos="2664"/>
          <note len="192" key="78" pan="0" vol="197" pos="2688"/>
          <note len="96" key="80" pan="0" vol="197" pos="2880"/>
          <note len="96" key="85" pan="0" vol="197" pos="2976"/>
          <note len="384" key="87" pan="0" vol="197" pos="3072"/>
        </pattern>
        <pattern muted="0" name="" steps="16" type="1" pos="62400">
          <note len="12" key="82" pan="0" vol="95" pos="96"/>
          <note len="12" key="0" pan="0" vol="95" pos="96"/>
          <note len="12" key="83" pan="0" vol="95" pos="108"/>
          <note len="12" key="82" pan="0" vol="95" pos="120"/>
          <note len="12" key="80" pan="0" vol="95" pos="132"/>
          <note len="12" key="1" pan="0" vol="95" pos="132"/>
          <note len="12" key="82" pan="0" vol="95" pos="144"/>
          <note len="12" key="0" pan="0" vol="95" pos="144"/>
          <note len="12" key="80" pan="0" vol="95" pos="156"/>
          <note len="12" key="1" pan="0" vol="95" pos="156"/>
          <note len="12" key="78" pan="0" vol="95" pos="168"/>
          <note len="12" key="77" pan="0" vol="95" pos="180"/>
        </pattern>
        <pattern muted="0" name="" steps="16" type="1" pos="62592">
          <note len="144" key="75" pan="0" vol="197" pos="0"/>
          <note len="12" key="0" pan="0" vol="197" pos="0"/>
          <note len="48" key="78" pan="0" vol="197" pos="144"/>
          <note len="144" key="77" pan="0" vol="197" pos="192"/>
          <note len="48" key="82" pan="0" vol="197" pos="336"/>
          <note len="144" key="82" pan="0" vol="197" pos="384"/>
          <note len="24" key="80" pan="0" vol="197" pos="528"/>
          <note len="24" key="78" pan="0" vol="197" pos="552"/>
          <note len="48" key="77" pan="0" vol="197" pos="576"/>
          <note len="48" key="78" pan="0" vol="197" pos="624"/>
          <note len="12" key="73" pan="0" vol="197" pos="672"/>
          <note len="12" key="1" pan="0" vol="197" pos="672"/>
          <note len="12" key="75" pan="0" vol="197" pos="684"/>
          <note len="12" key="73" pan="0" vol="197" pos="696"/>
          <note len="12" key="70" pan="0" vol="197" pos="708"/>
          <note len="12" key="73" pan="0" vol="197" pos="720"/>
          <note len="12" key="70" pan="0" vol="197" pos="732"/>
          <note len="12" key="68" pan="0" vol="197" pos="744"/>
          <note len="12" key="70" pan="0" vol="197" pos="756"/>
          <note len="96" key="71" pan="0" vol="197" pos="768"/>
          <note len="12" key="0" pan="0" vol="197" pos="768"/>
          <note len="48" key="75" pan="0" vol="197" pos="864"/>
          <note len="48" key="78" pan="0" vol="197" pos="912"/>
          <note len="96" key="78" pan="0" vol="197" pos="960"/>
          <note len="48" key="77" pan="0" vol="197" pos="1056"/>
          <note len="48" key="78" pan="0" vol="197" pos="1104"/>
          <note len="12" key="78" pan="0" vol="197" pos="1152"/>
          <note len="12" key="0" pan="0" vol="200" pos="1152"/>
          <note len="12" key="75" pan="0" vol="197" pos="1164"/>
          <note len="12" key="77" pan="0" vol="197" pos="1176"/>
          <note len="12" key="78" pan="0" vol="197" pos="1188"/>
          <note len="12" key="80" pan="0" vol="197" pos="1200"/>
          <note len="12" key="77" pan="0" vol="197" pos="1212"/>
          <note len="12" key="78" pan="0" vol="197" pos="1224"/>
          <note len="12" key="80" pan="0" vol="197" pos="1236"/>
          <note len="12" key="82" pan="0" vol="197" pos="1248"/>
          <note len="12" key="78" pan="0" vol="197" pos="1260"/>
          <note len="12" key="80" pan="0" vol="197" pos="1272"/>
          <note len="12" key="82" pan="0" vol="197" pos="1284"/>
          <note len="12" key="83" pan="0" vol="197" pos="1296"/>
          <note len="12" key="80" pan="0" vol="197" pos="1308"/>
          <note len="12" key="82" pan="0" vol="197" pos="1320"/>
          <note len="12" key="83" pan="0" vol="197" pos="1332"/>
          <note len="12" key="85" pan="0" vol="197" pos="1344"/>
          <note len="12" key="83" pan="0" vol="197" pos="1356"/>
          <note len="12" key="82" pan="0" vol="197" pos="1368"/>
          <note len="12" key="80" pan="0" vol="197" pos="1380"/>
          <note len="12" key="78" pan="0" vol="197" pos="1392"/>
          <note len="12" key="80" pan="0" vol="197" pos="1404"/>
          <note len="12" key="83" pan="0" vol="197" pos="1416"/>
          <note len="12" key="82" pan="0" vol="197" pos="1428"/>
          <note len="12" key="80" pan="0" vol="197" pos="1440"/>
          <note len="12" key="78" pan="0" vol="197" pos="1452"/>
          <note len="12" key="77" pan="0" vol="197" pos="1464"/>
          <note len="12" key="78" pan="0" vol="197" pos="1476"/>
          <note len="12" key="82" pan="0" vol="197" pos="1488"/>
          <note len="12" key="0" pan="0" vol="200" pos="1488"/>
          <note len="12" key="80" pan="0" vol="197" pos="1500"/>
          <note len="12" key="78" pan="0" vol="197" pos="1512"/>
          <note len="12" key="77" pan="0" vol="197" pos="1524"/>
          <note len="12" key="75" pan="0" vol="197" pos="1536"/>
          <note len="12" key="77" pan="0" vol="197" pos="1548"/>
          <note len="12" key="80" pan="0" vol="200" pos="1560"/>
          <note len="12" key="78" pan="0" vol="200" pos="1572"/>
          <note len="12" key="77" pan="0" vol="200" pos="1584"/>
          <note len="12" key="75" pan="0" vol="200" pos="1596"/>
          <note len="12" key="73" pan="0" vol="200" pos="1608"/>
          <note len="12" key="75" pan="0" vol="200" pos="1620"/>
          <note len="12" key="78" pan="0" vol="200" pos="1632"/>
          <note len="12" key="77" pan="0" vol="200" pos="1644"/>
          <note len="12" key="75" pan="0" vol="200" pos="1656"/>
          <note len="12" key="73" pan="0" vol="200" pos="1668"/>
          <note len="12" key="77" pan="0" vol="200" pos="1680"/>
          <note len="12" key="75" pan="0" vol="200" pos="1692"/>
          <note len="12" key="73" pan="0" vol="200" pos="1704"/>
          <note len="12" key="75" pan="0" vol="200" pos="1716"/>
          <note len="192" key="87" pan="0" vol="197" pos="1728"/>
        </pattern>
      </track>
      <track muted="1" name="lgtH2" type="0" solo="0" mutedBeforeSolo="0">
        <instrumenttrack usemasterpitch="1" pitchrange="1" pitch="0" pan="100" basenote="57" vol="200" fxch="13">
          <instrument name="carlapatchbay">
            <carlapatchbay>
              <CARLA-PROJECT VERSION="2.2">
                <EngineSettings>
                  <ForceStereo>false</ForceStereo>
                  <PreferPluginBridges>false</PreferPluginBridges>
                  <PreferUiBridges>true</PreferUiBridges>
                  <UIsAlwaysOnTop>false</UIsAlwaysOnTop>
                  <MaxParameters>200</MaxParameters>
                  <UIBridgesTimeout>4000</UIBridgesTimeout>
                  <LADSPA_PATH>/home/pass/.ladspa:/usr/lib/ladspa:/usr/local/lib/ladspa</LADSPA_PATH>
                  <DSSI_PATH>/home/pass/.dssi:/usr/lib/dssi:/usr/local/lib/dssi</DSSI_PATH>
                  <LV2_PATH>/home/pass/.lv2:/usr/lib/lv2:/usr/local/lib/lv2</LV2_PATH>
                  <VST2_PATH>/home/pass/.vst:/home/pass/.wine/drive_c/Program Files (x86)/VstPlugins:/home/pass/.wine/drive_c/Program Files/VstPlugins:/usr/lib/lxvst:/usr/lib/vst:/usr/local/lib/lxvst:/usr/local/lib/vst/home/pass/.lxvst:/home/pass/vst</VST2_PATH>
                  <VST3_PATH>/home/pass/.vst3:/home/pass/.wine/drive_c/Program Files (x86)/Common Files/VST3:/home/pass/.wine/drive_c/Program Files/Common Files/VST3:/usr/lib/vst3:/usr/local/lib/vst3</VST3_PATH>
                  <SF2_PATH>/home/pass/.sounds/sf2/home/pass/.sounds/sf3:/usr/share/soundfonts:/usr/share/sounds/sf2:/usr/share/sounds/sf3</SF2_PATH>
                  <SFZ_PATH>/home/pass/.sounds/sfz:/home/pass/samples:/usr/share/sounds/sfz</SFZ_PATH>
                </EngineSettings>
                <!-- sfizz -->
                <Plugin>
                  <Info>
                    <Type>LV2</Type>
                    <Name>sfizz</Name>
                    <URI>http://sfztools.github.io/sfizz</URI>
                  </Info>
                  <Data>
                    <Active>Yes</Active>
                    <ControlChannel>1</ControlChannel>
                    <Options>0x3f0</Options>
                    <Parameter>
                      <Index>0</Index>
                      <Name>Volume</Name>
                      <Symbol>volume</Symbol>
                      <Value>0</Value>
                    </Parameter>
                    <Parameter>
                      <Index>1</Index>
                      <Name>Polyphony</Name>
                      <Symbol>num_voices</Symbol>
                      <Value>64</Value>
                    </Parameter>
                    <Parameter>
                      <Index>2</Index>
                      <Name>Internal oversampling factor</Name>
                      <Symbol>oversampling</Symbol>
                      <Value>1</Value>
                    </Parameter>
                    <Parameter>
                      <Index>3</Index>
                      <Name>Preload size</Name>
                      <Symbol>preload_size</Symbol>
                      <Value>8192</Value>
                    </Parameter>
                    <Parameter>
                      <Index>5</Index>
                      <Name>Scala root key</Name>
                      <Symbol>scala_root_key</Symbol>
                      <Value>60</Value>
                    </Parameter>
                    <Parameter>
                      <Index>6</Index>
                      <Name>Tuning frequency</Name>
                      <Symbol>tuning_frequency</Symbol>
                      <Value>440</Value>
                    </Parameter>
                    <Parameter>
                      <Index>7</Index>
                      <Name>Stretched tuning</Name>
                      <Symbol>stretched_tuning</Symbol>
                      <Value>0</Value>
                    </Parameter>
                    <CustomData>
                      <Type>http://lv2plug.in/ns/ext/atom#Path</Type>
                      <Key>http://sfztools.github.io/sfizz:sfzfile</Key>
                      <Value>_fakeguitar2_integrated.sfz</Value>
                    </CustomData>
                    <CustomData>
                      <Type>http://lv2plug.in/ns/ext/atom#Int</Type>
                      <Key>http://sfztools.github.io/sfizz:numvoices</Key>
                      <Value>QAAAAA==</Value>
                    </CustomData>
                    <CustomData>
                      <Type>http://lv2plug.in/ns/ext/atom#Int</Type>
                      <Key>http://sfztools.github.io/sfizz:preload_size</Key>
                      <Value>ACAAAA==</Value>
                    </CustomData>
                    <CustomData>
                      <Type>http://lv2plug.in/ns/ext/atom#Int</Type>
                      <Key>http://sfztools.github.io/sfizz:oversampling</Key>
                      <Value>AQAAAA==</Value>
                    </CustomData>
                    <CustomData>
                      <Type>http://lv2plug.in/ns/ext/atom#Path</Type>
                      <Key>http://sfztools.github.io/sfizz:tuningfile</Key>
                      <Value>DefaultScale.scl</Value>
                    </CustomData>
                  </Data>
                </Plugin>
                <Patchbay>
                  <Connection>
                    <Source>Midi Input:Capture 1</Source>
                    <Target>sfizz:events-in</Target>
                  </Connection>
                  <Connection>
                    <Source>sfizz:Left Output</Source>
                    <Target>Audio Output:Left</Target>
                  </Connection>
                  <Connection>
                    <Source>sfizz:Right Output</Source>
                    <Target>Audio Output:Right</Target>
                  </Connection>
                  <Positions>
                    <Position y1="1353" x1="1693" pluginId="0">
                      <Name>sfizz</Name>
                    </Position>
                  </Positions>
                </Patchbay>
              </CARLA-PROJECT>
              <key/>
            </carlapatchbay>
          </instrument>
          <eldata fcut="14000" fwet="0" fres="0.5" ftype="0">
            <elvol rel="0.1" lspd_syncmode="0" pdel="0" lspd_numerator="4" lpdel="0" amt="0" ctlenvamt="0" lshp="0" userwavefile="" dec="0.5" lspd_denominator="4" sustain="0.5" lspd="0.1" latt="0" hold="0.5" att="0" x100="0" lamt="0"/>
            <elcut rel="0.1" lspd_syncmode="0" pdel="0" lspd_numerator="4" lpdel="0" amt="0" ctlenvamt="0" lshp="0" userwavefile="" dec="0.5" lspd_denominator="4" sustain="0.5" lspd="0.1" latt="0" hold="0.5" att="0" x100="0" lamt="0"/>
            <elres rel="0.1" lspd_syncmode="0" pdel="0" lspd_numerator="4" lpdel="0" amt="0" ctlenvamt="0" lshp="0" userwavefile="" dec="0.5" lspd_denominator="4" sustain="0.5" lspd="0.1" latt="0" hold="0.5" att="0" x100="0" lamt="0"/>
          </eldata>
          <chordcreator chord="0" chordrange="1" chord-enabled="0"/>
          <arpeggiator arptime_denominator="4" arptime="200" arp-enabled="0" arpcycle="0" arpgate="100" arp="0" arpmiss="0" arpdir="0" arprange="1" arpmode="0" arpskip="0" arptime_syncmode="0" arptime_numerator="4"/>
          <midiport inputcontroller="0" fixedinputvelocity="-1" readable="0" outputcontroller="0" fixedoutputnote="-1" outputprogram="1" writable="0" fixedoutputvelocity="-1" basevelocity="63" outputchannel="1" inputchannel="0"/>
          <fxchain enabled="0" numofeffects="0"/>
        </instrumenttrack>
        <pattern muted="0" name="" steps="16" type="1" pos="5376">
          <note len="24" key="68" pan="0" vol="78" pos="0"/>
          <note len="24" key="0" pan="0" vol="78" pos="0"/>
          <note len="24" key="71" pan="0" vol="78" pos="24"/>
          <note len="24" key="68" pan="0" vol="78" pos="48"/>
          <note len="48" key="75" pan="0" vol="78" pos="72"/>
          <note len="24" key="68" pan="0" vol="78" pos="120"/>
          <note len="24" key="71" pan="0" vol="78" pos="144"/>
          <note len="24" key="75" pan="0" vol="78" pos="168"/>
          <note len="24" key="76" pan="0" vol="78" pos="192"/>
          <note len="24" key="75" pan="0" vol="78" pos="216"/>
          <note len="24" key="73" pan="0" vol="78" pos="240"/>
          <note len="24" key="71" pan="0" vol="78" pos="264"/>
          <note len="24" key="75" pan="0" vol="78" pos="288"/>
          <note len="24" key="73" pan="0" vol="78" pos="312"/>
          <note len="24" key="71" pan="0" vol="78" pos="336"/>
          <note len="24" key="68" pan="0" vol="78" pos="360"/>
        </pattern>
        <pattern muted="0" name="" steps="16" type="1" pos="6144">
          <note len="24" key="75" pan="0" vol="78" pos="0"/>
          <note len="24" key="0" pan="0" vol="78" pos="0"/>
          <note len="24" key="64" pan="0" vol="78" pos="24"/>
          <note len="24" key="68" pan="0" vol="78" pos="48"/>
          <note len="48" key="71" pan="0" vol="78" pos="72"/>
          <note len="24" key="68" pan="0" vol="78" pos="120"/>
          <note len="24" key="71" pan="0" vol="78" pos="144"/>
          <note len="24" key="75" pan="0" vol="78" pos="168"/>
          <note len="24" key="1" pan="0" vol="78" pos="180"/>
          <note len="12" key="73" pan="0" vol="78" pos="192"/>
          <note len="12" key="73" pan="0" vol="78" pos="204"/>
          <note len="12" key="68" pan="0" vol="78" pos="216"/>
          <note len="12" key="68" pan="0" vol="78" pos="228"/>
          <note len="12" key="64" pan="0" vol="78" pos="240"/>
          <note len="12" key="64" pan="0" vol="78" pos="252"/>
          <note len="12" key="61" pan="0" vol="78" pos="264"/>
          <note len="12" key="61" pan="0" vol="78" pos="276"/>
          <note len="12" key="66" pan="0" vol="78" pos="288"/>
          <note len="12" key="66" pan="0" vol="78" pos="300"/>
          <note len="12" key="64" pan="0" vol="78" pos="312"/>
          <note len="12" key="64" pan="0" vol="78" pos="324"/>
          <note len="12" key="68" pan="0" vol="78" pos="336"/>
          <note len="12" key="68" pan="0" vol="78" pos="348"/>
          <note len="12" key="64" pan="0" vol="78" pos="360"/>
          <note len="12" key="64" pan="0" vol="78" pos="372"/>
          <note len="24" key="0" pan="0" vol="78" pos="384"/>
        </pattern>
        <pattern muted="0" name="" steps="16" type="1" pos="7104">
          <note len="72" key="0" pan="0" vol="78" pos="0"/>
          <note len="48" key="64" pan="0" vol="78" pos="96"/>
          <note len="48" key="68" pan="0" vol="78" pos="144"/>
          <note len="96" key="68" pan="0" vol="78" pos="192"/>
          <note len="24" key="68" pan="0" vol="78" pos="288"/>
          <note len="24" key="64" pan="0" vol="78" pos="312"/>
          <note len="24" key="68" pan="0" vol="78" pos="336"/>
          <note len="168" key="76" pan="0" vol="78" pos="360"/>
          <note len="24" key="76" pan="0" vol="78" pos="528"/>
          <note len="24" key="75" pan="0" vol="78" pos="552"/>
          <note len="48" key="73" pan="0" vol="78" pos="576"/>
          <note len="48" key="70" pan="0" vol="78" pos="624"/>
          <note len="48" key="66" pan="0" vol="78" pos="672"/>
          <note len="48" key="63" pan="0" vol="78" pos="720"/>
          <note len="96" key="66" pan="0" vol="78" pos="768"/>
          <note len="96" key="64" pan="0" vol="78" pos="864"/>
          <note len="144" key="68" pan="0" vol="78" pos="960"/>
          <note len="48" key="73" pan="0" vol="78" pos="1104"/>
          <note len="144" key="71" pan="0" vol="78" pos="1152"/>
          <note len="48" key="76" pan="0" vol="78" pos="1296"/>
          <note len="144" key="76" pan="0" vol="78" pos="1344"/>
          <note len="24" key="75" pan="0" vol="78" pos="1488"/>
          <note len="24" key="73" pan="0" vol="78" pos="1512"/>
          <note len="48" key="71" pan="0" vol="78" pos="1536"/>
          <note len="48" key="73" pan="0" vol="78" pos="1584"/>
          <note len="48" key="68" pan="0" vol="78" pos="1632"/>
          <note len="48" key="64" pan="0" vol="78" pos="1680"/>
          <note len="96" key="66" pan="0" vol="78" pos="1728"/>
          <note len="48" key="69" pan="0" vol="78" pos="1824"/>
          <note len="48" key="73" pan="0" vol="78" pos="1872"/>
          <note len="96" key="73" pan="0" vol="78" pos="1920"/>
          <note len="48" key="71" pan="0" vol="78" pos="2016"/>
          <note len="48" key="73" pan="0" vol="78" pos="2064"/>
          <note len="72" key="80" pan="0" vol="78" pos="2112"/>
          <note len="72" key="78" pan="0" vol="78" pos="2184"/>
          <note len="48" key="76" pan="0" vol="78" pos="2256"/>
          <note len="192" key="75" pan="0" vol="78" pos="2304"/>
          <note len="72" key="73" pan="0" vol="78" pos="2496"/>
          <note len="72" key="71" pan="0" vol="78" pos="2568"/>
          <note len="48" key="73" pan="0" vol="78" pos="2640"/>
          <note len="144" key="76" pan="0" vol="78" pos="2688"/>
          <note len="48" key="71" pan="0" vol="78" pos="2832"/>
          <note len="240" key="70" pan="0" vol="78" pos="2880"/>
          <note len="48" key="73" pan="0" vol="78" pos="3120"/>
          <note len="48" key="75" pan="0" vol="78" pos="3168"/>
          <note len="48" key="76" pan="0" vol="78" pos="3216"/>
          <note len="72" key="78" pan="0" vol="78" pos="3264"/>
          <note len="72" key="76" pan="0" vol="78" pos="3336"/>
          <note len="48" key="75" pan="0" vol="78" pos="3408"/>
          <note len="48" key="73" pan="0" vol="78" pos="3456"/>
          <note len="48" key="68" pan="0" vol="78" pos="3504"/>
          <note len="48" key="73" pan="0" vol="78" pos="3552"/>
          <note len="48" key="76" pan="0" vol="78" pos="3600"/>
          <note len="192" key="75" pan="0" vol="78" pos="3648"/>
          <note len="96" key="71" pan="0" vol="78" pos="3840"/>
          <note len="96" key="68" pan="0" vol="78" pos="3936"/>
          <note len="384" key="68" pan="0" vol="78" pos="4032"/>
        </pattern>
        <pattern muted="0" name="" steps="16" type="1" pos="13056">
          <note len="24" key="68" pan="0" vol="78" pos="0"/>
          <note len="24" key="0" pan="0" vol="78" pos="0"/>
          <note len="24" key="71" pan="0" vol="78" pos="24"/>
          <note len="24" key="68" pan="0" vol="78" pos="48"/>
          <note len="48" key="75" pan="0" vol="78" pos="72"/>
          <note len="24" key="68" pan="0" vol="78" pos="120"/>
          <note len="24" key="71" pan="0" vol="78" pos="144"/>
          <note len="24" key="75" pan="0" vol="78" pos="168"/>
          <note len="24" key="76" pan="0" vol="78" pos="192"/>
          <note len="24" key="75" pan="0" vol="78" pos="216"/>
          <note len="24" key="73" pan="0" vol="78" pos="240"/>
          <note len="24" key="71" pan="0" vol="78" pos="264"/>
          <note len="24" key="75" pan="0" vol="78" pos="288"/>
          <note len="24" key="73" pan="0" vol="78" pos="312"/>
          <note len="24" key="71" pan="0" vol="78" pos="336"/>
          <note len="24" key="68" pan="0" vol="78" pos="360"/>
        </pattern>
        <pattern muted="0" name="" steps="16" type="1" pos="13824">
          <note len="24" key="75" pan="0" vol="78" pos="0"/>
          <note len="12" key="0" pan="0" vol="78" pos="0"/>
          <note len="12" key="1" pan="0" vol="78" pos="12"/>
          <note len="12" key="64" pan="0" vol="78" pos="24"/>
          <note len="12" key="64" pan="0" vol="78" pos="36"/>
          <note len="24" key="68" pan="0" vol="78" pos="48"/>
          <note len="12" key="0" pan="0" vol="78" pos="48"/>
          <note len="48" key="71" pan="0" vol="78" pos="72"/>
          <note len="24" key="68" pan="0" vol="78" pos="120"/>
          <note len="24" key="71" pan="0" vol="78" pos="144"/>
          <note len="24" key="75" pan="0" vol="78" pos="168"/>
          <note len="24" key="73" pan="0" vol="78" pos="192"/>
          <note len="24" key="68" pan="0" vol="78" pos="216"/>
          <note len="24" key="64" pan="0" vol="78" pos="240"/>
          <note len="24" key="61" pan="0" vol="78" pos="264"/>
          <note len="24" key="66" pan="0" vol="78" pos="288"/>
          <note len="24" key="64" pan="0" vol="78" pos="312"/>
          <note len="24" key="68" pan="0" vol="78" pos="336"/>
          <note len="24" key="64" pan="0" vol="78" pos="360"/>
        </pattern>
        <pattern muted="0" name="" steps="16" type="1" pos="14784">
          <note len="72" key="0" pan="0" vol="78" pos="0"/>
          <note len="48" key="64" pan="0" vol="78" pos="96"/>
          <note len="48" key="68" pan="0" vol="78" pos="144"/>
          <note len="96" key="68" pan="0" vol="78" pos="192"/>
          <note len="24" key="68" pan="0" vol="78" pos="288"/>
          <note len="24" key="64" pan="0" vol="78" pos="312"/>
          <note len="24" key="68" pan="0" vol="78" pos="336"/>
          <note len="168" key="76" pan="0" vol="78" pos="360"/>
          <note len="24" key="76" pan="0" vol="78" pos="528"/>
          <note len="24" key="75" pan="0" vol="78" pos="552"/>
          <note len="48" key="73" pan="0" vol="78" pos="576"/>
          <note len="48" key="70" pan="0" vol="78" pos="624"/>
          <note len="48" key="66" pan="0" vol="78" pos="672"/>
          <note len="48" key="63" pan="0" vol="78" pos="720"/>
          <note len="96" key="66" pan="0" vol="78" pos="768"/>
          <note len="96" key="64" pan="0" vol="78" pos="864"/>
          <note len="144" key="68" pan="0" vol="78" pos="960"/>
          <note len="48" key="73" pan="0" vol="78" pos="1104"/>
          <note len="144" key="71" pan="0" vol="78" pos="1152"/>
          <note len="48" key="76" pan="0" vol="78" pos="1296"/>
          <note len="144" key="76" pan="0" vol="78" pos="1344"/>
          <note len="24" key="75" pan="0" vol="78" pos="1488"/>
          <note len="24" key="73" pan="0" vol="78" pos="1512"/>
          <note len="48" key="71" pan="0" vol="78" pos="1536"/>
          <note len="48" key="73" pan="0" vol="78" pos="1584"/>
          <note len="48" key="68" pan="0" vol="78" pos="1632"/>
          <note len="48" key="64" pan="0" vol="78" pos="1680"/>
          <note len="96" key="66" pan="0" vol="78" pos="1728"/>
          <note len="48" key="69" pan="0" vol="78" pos="1824"/>
          <note len="48" key="73" pan="0" vol="78" pos="1872"/>
          <note len="96" key="73" pan="0" vol="78" pos="1920"/>
          <note len="48" key="71" pan="0" vol="78" pos="2016"/>
          <note len="48" key="73" pan="0" vol="78" pos="2064"/>
          <note len="72" key="80" pan="0" vol="78" pos="2112"/>
          <note len="72" key="78" pan="0" vol="78" pos="2184"/>
          <note len="48" key="76" pan="0" vol="78" pos="2256"/>
          <note len="192" key="75" pan="0" vol="78" pos="2304"/>
          <note len="72" key="73" pan="0" vol="78" pos="2496"/>
          <note len="72" key="71" pan="0" vol="78" pos="2568"/>
          <note len="48" key="73" pan="0" vol="78" pos="2640"/>
          <note len="144" key="76" pan="0" vol="78" pos="2688"/>
          <note len="48" key="71" pan="0" vol="78" pos="2832"/>
          <note len="240" key="70" pan="0" vol="78" pos="2880"/>
          <note len="48" key="73" pan="0" vol="78" pos="3120"/>
          <note len="48" key="75" pan="0" vol="78" pos="3168"/>
          <note len="48" key="76" pan="0" vol="78" pos="3216"/>
          <note len="72" key="78" pan="0" vol="78" pos="3264"/>
          <note len="72" key="76" pan="0" vol="78" pos="3336"/>
          <note len="48" key="75" pan="0" vol="78" pos="3408"/>
          <note len="48" key="73" pan="0" vol="78" pos="3456"/>
          <note len="48" key="68" pan="0" vol="78" pos="3504"/>
          <note len="48" key="73" pan="0" vol="78" pos="3552"/>
          <note len="48" key="76" pan="0" vol="78" pos="3600"/>
          <note len="192" key="75" pan="0" vol="78" pos="3648"/>
          <note len="96" key="71" pan="0" vol="78" pos="3840"/>
          <note len="96" key="68" pan="0" vol="78" pos="3936"/>
        </pattern>
        <pattern muted="0" name="" steps="16" type="1" pos="18816">
          <note len="336" key="68" pan="0" vol="78" pos="0"/>
          <note len="48" key="61" pan="0" vol="78" pos="336"/>
          <note len="288" key="59" pan="0" vol="78" pos="384"/>
          <note len="48" key="52" pan="0" vol="78" pos="672"/>
          <note len="48" key="56" pan="0" vol="78" pos="720"/>
          <note len="240" key="58" pan="0" vol="78" pos="768"/>
          <note len="48" key="56" pan="0" vol="78" pos="1008"/>
          <note len="48" key="58" pan="0" vol="78" pos="1056"/>
          <note len="48" key="64" pan="0" vol="78" pos="1104"/>
          <note len="192" key="62" pan="0" vol="78" pos="1152"/>
          <note len="48" key="66" pan="0" vol="78" pos="1344"/>
          <note len="24" key="64" pan="0" vol="78" pos="1392"/>
          <note len="12" key="64" pan="0" vol="78" pos="1416"/>
          <note len="12" key="66" pan="0" vol="78" pos="1424"/>
          <note len="12" key="64" pan="0" vol="78" pos="1432"/>
          <note len="48" key="63" pan="0" vol="78" pos="1440"/>
          <note len="48" key="64" pan="0" vol="78" pos="1488"/>
          <note len="240" key="61" pan="0" vol="78" pos="1536"/>
          <note len="48" key="56" pan="0" vol="78" pos="1776"/>
          <note len="48" key="61" pan="0" vol="78" pos="1824"/>
          <note len="48" key="64" pan="0" vol="78" pos="1872"/>
          <note len="192" key="64" pan="0" vol="78" pos="1920"/>
          <note len="144" key="63" pan="0" vol="78" pos="2112"/>
          <note len="48" key="64" pan="0" vol="78" pos="2256"/>
          <note len="240" key="56" pan="0" vol="78" pos="2304"/>
          <note len="48" key="52" pan="0" vol="78" pos="2544"/>
          <note len="48" key="56" pan="0" vol="78" pos="2592"/>
          <note len="48" key="64" pan="0" vol="78" pos="2640"/>
          <note len="192" key="68" pan="0" vol="78" pos="2688"/>
          <note len="192" key="68" pan="0" vol="78" pos="2880"/>
        </pattern>
        <pattern muted="0" name="" steps="16" type="1" pos="30336">
          <note len="12" key="69" pan="0" vol="197" pos="0"/>
          <note len="12" key="1" pan="0" vol="197" pos="0"/>
          <note len="12" key="69" pan="0" vol="197" pos="12"/>
          <note len="12" key="68" pan="0" vol="197" pos="24"/>
          <note len="12" key="68" pan="0" vol="197" pos="36"/>
          <note len="12" key="66" pan="0" vol="197" pos="48"/>
          <note len="12" key="66" pan="0" vol="197" pos="60"/>
          <note len="12" key="73" pan="0" vol="197" pos="72"/>
          <note len="12" key="73" pan="0" vol="197" pos="84"/>
          <note len="12" key="71" pan="0" vol="197" pos="96"/>
          <note len="12" key="71" pan="0" vol="197" pos="108"/>
          <note len="12" key="69" pan="0" vol="197" pos="120"/>
          <note len="12" key="69" pan="0" vol="197" pos="132"/>
          <note len="12" key="71" pan="0" vol="197" pos="144"/>
          <note len="12" key="71" pan="0" vol="197" pos="156"/>
          <note len="12" key="73" pan="0" vol="197" pos="168"/>
          <note len="12" key="73" pan="0" vol="197" pos="180"/>
          <note len="48" key="74" pan="0" vol="197" pos="192"/>
          <note len="48" key="0" pan="0" vol="197" pos="192"/>
          <note len="12" key="73" pan="0" vol="197" pos="240"/>
          <note len="12" key="2" pan="0" vol="197" pos="240"/>
          <note len="12" key="74" pan="0" vol="197" pos="252"/>
          <note len="12" key="76" pan="0" vol="197" pos="264"/>
          <note len="12" key="0" pan="0" vol="197" pos="264"/>
          <note len="12" key="78" pan="0" vol="197" pos="276"/>
          <note len="12" key="80" pan="0" vol="197" pos="288"/>
          <note len="12" key="0" pan="0" vol="197" pos="288"/>
          <note len="12" key="78" pan="0" vol="197" pos="300"/>
          <note len="12" key="1" pan="0" vol="197" pos="300"/>
          <note len="12" key="76" pan="0" vol="197" pos="312"/>
          <note len="12" key="78" pan="0" vol="197" pos="324"/>
          <note len="12" key="81" pan="0" vol="197" pos="336"/>
          <note len="12" key="0" pan="0" vol="197" pos="336"/>
          <note len="12" key="80" pan="0" vol="197" pos="348"/>
          <note len="12" key="1" pan="0" vol="197" pos="348"/>
          <note len="12" key="78" pan="0" vol="197" pos="360"/>
          <note len="12" key="80" pan="0" vol="197" pos="372"/>
          <note len="24" key="80" pan="0" vol="197" pos="384"/>
          <note len="48" key="0" pan="0" vol="197" pos="384"/>
          <note len="24" key="81" pan="0" vol="197" pos="408"/>
          <note len="48" key="78" pan="0" vol="197" pos="456"/>
          <note len="12" key="1" pan="0" vol="197" pos="492"/>
          <note len="12" key="74" pan="0" vol="197" pos="504"/>
          <note len="12" key="74" pan="0" vol="197" pos="516"/>
          <note len="12" key="78" pan="0" vol="197" pos="528"/>
          <note len="12" key="78" pan="0" vol="197" pos="540"/>
          <note len="12" key="80" pan="0" vol="197" pos="552"/>
          <note len="12" key="80" pan="0" vol="197" pos="564"/>
          <note len="24" key="83" pan="0" vol="197" pos="576"/>
          <note len="24" key="0" pan="0" vol="197" pos="576"/>
          <note len="12" key="81" pan="0" vol="197" pos="600"/>
          <note len="12" key="83" pan="0" vol="197" pos="612"/>
          <note len="24" key="85" pan="0" vol="197" pos="624"/>
          <note len="12" key="83" pan="0" vol="197" pos="648"/>
          <note len="12" key="85" pan="0" vol="197" pos="660"/>
          <note len="12" key="88" pan="0" vol="197" pos="672"/>
          <note len="12" key="86" pan="0" vol="197" pos="684"/>
          <note len="12" key="85" pan="0" vol="197" pos="696"/>
          <note len="12" key="83" pan="0" vol="197" pos="708"/>
          <note len="12" key="81" pan="0" vol="197" pos="720"/>
          <note len="12" key="80" pan="0" vol="197" pos="732"/>
          <note len="12" key="78" pan="0" vol="197" pos="744"/>
          <note len="12" key="76" pan="0" vol="197" pos="756"/>
        </pattern>
        <pattern muted="0" name="" steps="16" type="1" pos="34944">
          <note len="144" key="68" pan="0" vol="78" pos="0"/>
          <note len="12" key="0" pan="0" vol="140" pos="0"/>
          <note len="48" key="73" pan="0" vol="78" pos="144"/>
          <note len="144" key="71" pan="0" vol="78" pos="192"/>
          <note len="48" key="76" pan="0" vol="78" pos="336"/>
          <note len="144" key="76" pan="0" vol="78" pos="384"/>
          <note len="24" key="75" pan="0" vol="78" pos="528"/>
          <note len="24" key="73" pan="0" vol="78" pos="552"/>
          <note len="48" key="71" pan="0" vol="78" pos="576"/>
          <note len="48" key="73" pan="0" vol="78" pos="624"/>
          <note len="12" key="66" pan="0" vol="197" pos="672"/>
          <note len="12" key="1" pan="0" vol="197" pos="672"/>
          <note len="12" key="68" pan="0" vol="197" pos="684"/>
          <note len="12" key="66" pan="0" vol="197" pos="696"/>
          <note len="12" key="64" pan="0" vol="197" pos="708"/>
          <note len="12" key="66" pan="0" vol="197" pos="720"/>
          <note len="12" key="64" pan="0" vol="197" pos="732"/>
          <note len="12" key="61" pan="0" vol="197" pos="744"/>
          <note len="12" key="64" pan="0" vol="197" pos="756"/>
          <note len="96" key="66" pan="0" vol="78" pos="768"/>
          <note len="12" key="0" pan="0" vol="197" pos="768"/>
          <note len="48" key="69" pan="0" vol="78" pos="864"/>
          <note len="48" key="73" pan="0" vol="78" pos="912"/>
          <note len="96" key="73" pan="0" vol="78" pos="960"/>
          <note len="48" key="71" pan="0" vol="78" pos="1056"/>
          <note len="48" key="73" pan="0" vol="78" pos="1104"/>
          <note len="12" key="73" pan="0" vol="197" pos="1152"/>
          <note len="12" key="0" pan="0" vol="200" pos="1152"/>
          <note len="12" key="69" pan="0" vol="197" pos="1164"/>
          <note len="12" key="71" pan="0" vol="197" pos="1176"/>
          <note len="12" key="73" pan="0" vol="197" pos="1188"/>
          <note len="12" key="75" pan="0" vol="197" pos="1200"/>
          <note len="12" key="71" pan="0" vol="197" pos="1212"/>
          <note len="12" key="73" pan="0" vol="197" pos="1224"/>
          <note len="12" key="75" pan="0" vol="197" pos="1236"/>
          <note len="12" key="76" pan="0" vol="197" pos="1248"/>
          <note len="12" key="73" pan="0" vol="197" pos="1260"/>
          <note len="12" key="75" pan="0" vol="197" pos="1272"/>
          <note len="12" key="76" pan="0" vol="197" pos="1284"/>
          <note len="12" key="78" pan="0" vol="197" pos="1296"/>
          <note len="12" key="75" pan="0" vol="197" pos="1308"/>
          <note len="12" key="76" pan="0" vol="197" pos="1320"/>
          <note len="12" key="78" pan="0" vol="197" pos="1332"/>
          <note len="12" key="80" pan="0" vol="200" pos="1344"/>
          <note len="12" key="78" pan="0" vol="200" pos="1356"/>
          <note len="12" key="76" pan="0" vol="200" pos="1368"/>
          <note len="12" key="75" pan="0" vol="200" pos="1380"/>
          <note len="12" key="78" pan="0" vol="200" pos="1392"/>
          <note len="12" key="76" pan="0" vol="200" pos="1404"/>
          <note len="12" key="75" pan="0" vol="200" pos="1416"/>
          <note len="12" key="73" pan="0" vol="200" pos="1428"/>
          <note len="12" key="76" pan="0" vol="200" pos="1440"/>
          <note len="12" key="0" pan="0" vol="200" pos="1440"/>
          <note len="12" key="75" pan="0" vol="200" pos="1452"/>
          <note len="12" key="76" pan="0" vol="200" pos="1464"/>
          <note len="12" key="78" pan="0" vol="200" pos="1476"/>
          <note len="12" key="83" pan="0" vol="200" pos="1488"/>
          <note len="12" key="2" pan="0" vol="200" pos="1488"/>
          <note len="12" key="78" pan="0" vol="200" pos="1500"/>
          <note len="12" key="83" pan="0" vol="200" pos="1512"/>
          <note len="12" key="78" pan="0" vol="200" pos="1524"/>
        </pattern>
        <pattern muted="0" name="" steps="16" type="1" pos="31104">
          <note len="24" key="80" pan="0" vol="197" pos="0"/>
          <note len="24" key="1" pan="0" vol="197" pos="0"/>
          <note len="24" key="76" pan="0" vol="197" pos="24"/>
          <note len="24" key="78" pan="0" vol="197" pos="48"/>
          <note len="24" key="73" pan="0" vol="197" pos="72"/>
          <note len="24" key="76" pan="0" vol="197" pos="96"/>
          <note len="24" key="73" pan="0" vol="197" pos="120"/>
          <note len="24" key="71" pan="0" vol="197" pos="144"/>
          <note len="24" key="73" pan="0" vol="197" pos="168"/>
          <note len="24" key="76" pan="0" vol="197" pos="192"/>
          <note len="24" key="73" pan="0" vol="197" pos="216"/>
          <note len="24" key="76" pan="0" vol="197" pos="240"/>
          <note len="24" key="78" pan="0" vol="197" pos="264"/>
          <note len="24" key="80" pan="0" vol="197" pos="288"/>
          <note len="24" key="78" pan="0" vol="197" pos="312"/>
          <note len="24" key="76" pan="0" vol="197" pos="336"/>
          <note len="24" key="78" pan="0" vol="197" pos="360"/>
        </pattern>
        <pattern muted="0" name="" steps="16" type="1" pos="31488">
          <note len="12" key="68" pan="0" vol="197" pos="0"/>
          <note len="24" key="0" pan="0" vol="197" pos="0"/>
          <note len="12" key="66" pan="0" vol="197" pos="12"/>
          <note len="24" key="1" pan="0" vol="197" pos="12"/>
          <note len="12" key="68" pan="0" vol="197" pos="24"/>
          <note len="12" key="69" pan="0" vol="197" pos="36"/>
          <note len="12" key="71" pan="0" vol="197" pos="48"/>
          <note len="12" key="0" pan="0" vol="197" pos="48"/>
          <note len="12" key="68" pan="0" vol="197" pos="60"/>
          <note len="12" key="1" pan="0" vol="197" pos="60"/>
          <note len="12" key="69" pan="0" vol="197" pos="72"/>
          <note len="12" key="71" pan="0" vol="197" pos="84"/>
          <note len="12" key="73" pan="0" vol="197" pos="96"/>
          <note len="12" key="0" pan="0" vol="197" pos="96"/>
          <note len="12" key="71" pan="0" vol="197" pos="108"/>
          <note len="12" key="1" pan="0" vol="197" pos="108"/>
          <note len="12" key="69" pan="0" vol="197" pos="120"/>
          <note len="12" key="71" pan="0" vol="197" pos="132"/>
          <note len="12" key="73" pan="0" vol="197" pos="144"/>
          <note len="12" key="75" pan="0" vol="197" pos="156"/>
          <note len="12" key="76" pan="0" vol="197" pos="168"/>
          <note len="12" key="78" pan="0" vol="197" pos="180"/>
          <note len="12" key="78" pan="0" vol="197" pos="192"/>
          <note len="12" key="75" pan="0" vol="197" pos="204"/>
          <note len="12" key="71" pan="0" vol="197" pos="216"/>
          <note len="12" key="66" pan="0" vol="197" pos="228"/>
          <note len="12" key="63" pan="0" vol="197" pos="240"/>
          <note len="12" key="66" pan="0" vol="197" pos="252"/>
          <note len="12" key="83" pan="0" vol="197" pos="264"/>
          <note len="12" key="75" pan="0" vol="197" pos="276"/>
          <note len="12" key="71" pan="0" vol="197" pos="288"/>
          <note len="12" key="66" pan="0" vol="197" pos="300"/>
          <note len="12" key="71" pan="0" vol="197" pos="312"/>
          <note len="12" key="75" pan="0" vol="197" pos="324"/>
          <note len="12" key="78" pan="0" vol="197" pos="336"/>
          <note len="12" key="75" pan="0" vol="197" pos="348"/>
          <note len="12" key="71" pan="0" vol="197" pos="360"/>
          <note len="12" key="75" pan="0" vol="197" pos="372"/>
        </pattern>
        <pattern muted="0" name="" steps="16" type="1" pos="31872">
          <note len="240" key="80" pan="0" vol="100" pos="0"/>
          <note len="108" key="0" pan="0" vol="100" pos="0"/>
        </pattern>
        <pattern muted="0" name="" steps="16" type="1" pos="37056">
          <note len="12" key="76" pan="0" vol="197" pos="0"/>
          <note len="12" key="0" pan="0" vol="197" pos="0"/>
          <note len="12" key="59" pan="0" vol="197" pos="12"/>
          <note len="12" key="2" pan="0" vol="197" pos="12"/>
          <note len="12" key="59" pan="0" vol="197" pos="24"/>
          <note len="12" key="0" pan="0" vol="197" pos="24"/>
          <note len="12" key="75" pan="0" vol="197" pos="36"/>
          <note len="12" key="0" pan="0" vol="197" pos="36"/>
          <note len="12" key="59" pan="0" vol="197" pos="48"/>
          <note len="12" key="2" pan="0" vol="197" pos="48"/>
          <note len="12" key="59" pan="0" vol="197" pos="60"/>
          <note len="12" key="0" pan="0" vol="197" pos="60"/>
          <note len="12" key="76" pan="0" vol="197" pos="72"/>
          <note len="12" key="0" pan="0" vol="197" pos="72"/>
          <note len="12" key="59" pan="0" vol="197" pos="84"/>
          <note len="12" key="2" pan="0" vol="197" pos="84"/>
          <note len="12" key="59" pan="0" vol="197" pos="96"/>
          <note len="12" key="0" pan="0" vol="197" pos="96"/>
          <note len="12" key="75" pan="0" vol="197" pos="108"/>
          <note len="12" key="0" pan="0" vol="197" pos="108"/>
          <note len="12" key="59" pan="0" vol="197" pos="120"/>
          <note len="12" key="2" pan="0" vol="197" pos="120"/>
          <note len="12" key="59" pan="0" vol="197" pos="132"/>
          <note len="12" key="0" pan="0" vol="197" pos="132"/>
          <note len="12" key="80" pan="0" vol="197" pos="144"/>
          <note len="12" key="0" pan="0" vol="197" pos="144"/>
          <note len="12" key="59" pan="0" vol="197" pos="156"/>
          <note len="12" key="2" pan="0" vol="197" pos="156"/>
          <note len="12" key="78" pan="0" vol="197" pos="168"/>
          <note len="12" key="0" pan="0" vol="197" pos="168"/>
          <note len="12" key="59" pan="0" vol="197" pos="180"/>
          <note len="12" key="2" pan="0" vol="197" pos="180"/>
        </pattern>
        <pattern muted="0" name="" steps="16" type="1" pos="37248">
          <note len="12" key="73" pan="0" vol="100" pos="0"/>
          <note len="48" key="0" pan="0" vol="100" pos="0"/>
          <note len="12" key="71" pan="0" vol="100" pos="12"/>
          <note len="12" key="68" pan="0" vol="100" pos="24"/>
          <note len="12" key="1" pan="0" vol="100" pos="24"/>
          <note len="12" key="66" pan="0" vol="100" pos="36"/>
          <note len="12" key="64" pan="0" vol="100" pos="48"/>
          <note len="12" key="61" pan="0" vol="100" pos="60"/>
          <note len="12" key="64" pan="0" vol="100" pos="72"/>
          <note len="12" key="68" pan="0" vol="100" pos="84"/>
          <note len="12" key="73" pan="0" vol="100" pos="96"/>
          <note len="12" key="0" pan="0" vol="100" pos="96"/>
          <note len="12" key="71" pan="0" vol="100" pos="108"/>
          <note len="12" key="68" pan="0" vol="100" pos="120"/>
          <note len="12" key="1" pan="0" vol="100" pos="120"/>
          <note len="12" key="66" pan="0" vol="100" pos="132"/>
          <note len="12" key="64" pan="0" vol="100" pos="144"/>
          <note len="12" key="61" pan="0" vol="100" pos="156"/>
          <note len="12" key="64" pan="0" vol="100" pos="168"/>
          <note len="12" key="68" pan="0" vol="100" pos="180"/>
        </pattern>
        <pattern muted="0" name="" steps="16" type="1" pos="37440">
          <note len="12" key="75" pan="0" vol="197" pos="0"/>
          <note len="12" key="0" pan="0" vol="100" pos="0"/>
          <note len="12" key="76" pan="0" vol="197" pos="12"/>
          <note len="12" key="75" pan="0" vol="197" pos="24"/>
          <note len="12" key="71" pan="0" vol="197" pos="36"/>
          <note len="12" key="1" pan="0" vol="100" pos="36"/>
          <note len="12" key="73" pan="0" vol="197" pos="48"/>
          <note len="12" key="68" pan="0" vol="197" pos="60"/>
          <note len="12" key="71" pan="0" vol="197" pos="72"/>
          <note len="12" key="0" pan="0" vol="100" pos="72"/>
          <note len="12" key="73" pan="0" vol="197" pos="84"/>
          <note len="12" key="78" pan="0" vol="197" pos="96"/>
          <note len="12" key="0" pan="0" vol="100" pos="96"/>
          <note len="12" key="80" pan="0" vol="197" pos="108"/>
          <note len="12" key="78" pan="0" vol="197" pos="120"/>
          <note len="12" key="76" pan="0" vol="197" pos="132"/>
          <note len="12" key="1" pan="0" vol="100" pos="132"/>
          <note len="12" key="78" pan="0" vol="197" pos="144"/>
          <note len="12" key="73" pan="0" vol="197" pos="156"/>
          <note len="12" key="75" pan="0" vol="197" pos="168"/>
          <note len="12" key="0" pan="0" vol="100" pos="168"/>
          <note len="12" key="76" pan="0" vol="197" pos="180"/>
        </pattern>
        <pattern muted="0" name="" steps="16" type="1" pos="34752">
          <note len="12" key="76" pan="0" vol="95" pos="96"/>
          <note len="12" key="0" pan="0" vol="95" pos="96"/>
          <note len="12" key="78" pan="0" vol="95" pos="108"/>
          <note len="12" key="76" pan="0" vol="95" pos="120"/>
          <note len="12" key="75" pan="0" vol="95" pos="132"/>
          <note len="12" key="1" pan="0" vol="95" pos="132"/>
          <note len="12" key="76" pan="0" vol="95" pos="144"/>
          <note len="12" key="0" pan="0" vol="95" pos="144"/>
          <note len="12" key="75" pan="0" vol="95" pos="156"/>
          <note len="12" key="1" pan="0" vol="95" pos="156"/>
          <note len="12" key="73" pan="0" vol="95" pos="168"/>
          <note len="12" key="72" pan="0" vol="95" pos="180"/>
        </pattern>
        <pattern muted="0" name="" steps="16" type="1" pos="37632">
          <note len="12" key="64" pan="0" vol="197" pos="0"/>
          <note len="12" key="1" pan="0" vol="197" pos="0"/>
          <note len="12" key="66" pan="0" vol="197" pos="12"/>
          <note len="12" key="64" pan="0" vol="197" pos="24"/>
          <note len="12" key="63" pan="0" vol="197" pos="36"/>
          <note len="12" key="66" pan="0" vol="197" pos="48"/>
          <note len="12" key="68" pan="0" vol="197" pos="60"/>
          <note len="12" key="66" pan="0" vol="197" pos="72"/>
          <note len="12" key="64" pan="0" vol="197" pos="84"/>
          <note len="12" key="68" pan="0" vol="197" pos="96"/>
          <note len="12" key="0" pan="0" vol="197" pos="96"/>
          <note len="12" key="69" pan="0" vol="197" pos="108"/>
          <note len="12" key="68" pan="0" vol="197" pos="120"/>
          <note len="12" key="1" pan="0" vol="197" pos="120"/>
          <note len="12" key="66" pan="0" vol="197" pos="132"/>
          <note len="12" key="69" pan="0" vol="197" pos="144"/>
          <note len="12" key="0" pan="0" vol="197" pos="144"/>
          <note len="12" key="71" pan="0" vol="197" pos="156"/>
          <note len="12" key="69" pan="0" vol="197" pos="168"/>
          <note len="12" key="1" pan="0" vol="197" pos="168"/>
          <note len="12" key="68" pan="0" vol="197" pos="180"/>
          <note len="12" key="73" pan="0" vol="197" pos="192"/>
          <note len="12" key="0" pan="0" vol="197" pos="192"/>
          <note len="12" key="69" pan="0" vol="197" pos="204"/>
          <note len="12" key="71" pan="0" vol="197" pos="216"/>
          <note len="12" key="1" pan="0" vol="197" pos="216"/>
          <note len="12" key="73" pan="0" vol="197" pos="228"/>
          <note len="12" key="75" pan="0" vol="197" pos="240"/>
          <note len="12" key="0" pan="0" vol="197" pos="240"/>
          <note len="12" key="71" pan="0" vol="197" pos="252"/>
          <note len="12" key="73" pan="0" vol="197" pos="264"/>
          <note len="12" key="1" pan="0" vol="197" pos="264"/>
          <note len="12" key="75" pan="0" vol="197" pos="276"/>
          <note len="12" key="78" pan="0" vol="197" pos="288"/>
          <note len="12" key="0" pan="0" vol="197" pos="288"/>
          <note len="12" key="76" pan="0" vol="197" pos="300"/>
          <note len="12" key="78" pan="0" vol="197" pos="312"/>
          <note len="12" key="80" pan="0" vol="197" pos="324"/>
          <note len="12" key="83" pan="0" vol="197" pos="336"/>
          <note len="12" key="0" pan="0" vol="197" pos="336"/>
          <note len="12" key="78" pan="0" vol="197" pos="348"/>
          <note len="12" key="75" pan="0" vol="197" pos="360"/>
          <note len="12" key="1" pan="0" vol="197" pos="360"/>
          <note len="12" key="71" pan="0" vol="197" pos="372"/>
        </pattern>
        <pattern muted="0" name="" steps="16" type="1" pos="38784">
          <note len="12" key="63" pan="0" vol="100" pos="0"/>
          <note len="12" key="1" pan="0" vol="100" pos="0"/>
          <note len="12" key="64" pan="0" vol="100" pos="12"/>
          <note len="12" key="66" pan="0" vol="100" pos="24"/>
          <note len="12" key="68" pan="0" vol="100" pos="36"/>
          <note len="12" key="69" pan="0" vol="100" pos="48"/>
          <note len="12" key="0" pan="0" vol="100" pos="48"/>
          <note len="12" key="68" pan="0" vol="100" pos="60"/>
          <note len="12" key="66" pan="0" vol="100" pos="72"/>
          <note len="12" key="1" pan="0" vol="100" pos="72"/>
          <note len="12" key="64" pan="0" vol="100" pos="84"/>
          <note len="12" key="66" pan="0" vol="100" pos="96"/>
          <note len="12" key="68" pan="0" vol="100" pos="108"/>
          <note len="12" key="69" pan="0" vol="100" pos="120"/>
          <note len="12" key="71" pan="0" vol="100" pos="132"/>
          <note len="12" key="73" pan="0" vol="100" pos="144"/>
          <note len="12" key="0" pan="0" vol="100" pos="144"/>
          <note len="12" key="71" pan="0" vol="100" pos="156"/>
          <note len="12" key="69" pan="0" vol="100" pos="168"/>
          <note len="12" key="1" pan="0" vol="100" pos="168"/>
          <note len="12" key="68" pan="0" vol="100" pos="180"/>
          <note len="12" key="69" pan="0" vol="100" pos="192"/>
          <note len="12" key="71" pan="0" vol="100" pos="204"/>
          <note len="12" key="73" pan="0" vol="100" pos="216"/>
          <note len="12" key="75" pan="0" vol="100" pos="228"/>
          <note len="12" key="76" pan="0" vol="100" pos="240"/>
          <note len="12" key="0" pan="0" vol="100" pos="240"/>
          <note len="12" key="75" pan="0" vol="100" pos="252"/>
          <note len="12" key="73" pan="0" vol="100" pos="264"/>
          <note len="12" key="1" pan="0" vol="100" pos="264"/>
          <note len="12" key="71" pan="0" vol="100" pos="276"/>
          <note len="12" key="78" pan="0" vol="100" pos="288"/>
          <note len="12" key="0" pan="0" vol="100" pos="288"/>
          <note len="12" key="76" pan="0" vol="100" pos="300"/>
          <note len="12" key="75" pan="0" vol="100" pos="312"/>
          <note len="12" key="73" pan="0" vol="100" pos="324"/>
          <note len="12" key="80" pan="0" vol="100" pos="336"/>
          <note len="12" key="78" pan="0" vol="100" pos="348"/>
          <note len="12" key="76" pan="0" vol="100" pos="360"/>
          <note len="12" key="75" pan="0" vol="100" pos="372"/>
        </pattern>
        <pattern muted="0" name="" steps="16" type="1" pos="39168">
          <note len="24" key="79" pan="0" vol="78" pos="0"/>
          <note len="24" key="0" pan="0" vol="78" pos="0"/>
          <note len="24" key="75" pan="0" vol="78" pos="24"/>
          <note len="24" key="70" pan="0" vol="78" pos="48"/>
          <note len="24" key="75" pan="0" vol="78" pos="72"/>
          <note len="24" key="70" pan="0" vol="78" pos="96"/>
          <note len="24" key="67" pan="0" vol="78" pos="120"/>
          <note len="24" key="70" pan="0" vol="78" pos="144"/>
          <note len="24" key="75" pan="0" vol="78" pos="168"/>
          <note len="48" key="75" pan="0" vol="78" pos="192"/>
          <note len="48" key="80" pan="0" vol="78" pos="240"/>
          <note len="48" key="81" pan="0" vol="78" pos="288"/>
          <note len="48" key="84" pan="0" vol="78" pos="336"/>
        </pattern>
        <pattern muted="0" name="" steps="16" type="1" pos="43200">
          <note len="72" key="0" pan="0" vol="78" pos="0"/>
          <note len="144" key="70" pan="0" vol="78" pos="960"/>
          <note len="48" key="75" pan="0" vol="78" pos="1104"/>
          <note len="144" key="73" pan="0" vol="78" pos="1152"/>
          <note len="48" key="78" pan="0" vol="78" pos="1296"/>
          <note len="144" key="78" pan="0" vol="78" pos="1344"/>
          <note len="24" key="77" pan="0" vol="78" pos="1488"/>
          <note len="24" key="75" pan="0" vol="78" pos="1512"/>
          <note len="48" key="73" pan="0" vol="78" pos="1536"/>
          <note len="48" key="75" pan="0" vol="78" pos="1584"/>
          <note len="48" key="70" pan="0" vol="78" pos="1632"/>
          <note len="48" key="66" pan="0" vol="78" pos="1680"/>
          <note len="96" key="68" pan="0" vol="78" pos="1728"/>
          <note len="48" key="71" pan="0" vol="78" pos="1824"/>
          <note len="48" key="75" pan="0" vol="78" pos="1872"/>
          <note len="96" key="75" pan="0" vol="78" pos="1920"/>
          <note len="48" key="73" pan="0" vol="78" pos="2016"/>
          <note len="48" key="75" pan="0" vol="78" pos="2064"/>
          <note len="72" key="82" pan="0" vol="78" pos="2112"/>
          <note len="72" key="80" pan="0" vol="78" pos="2184"/>
          <note len="48" key="78" pan="0" vol="78" pos="2256"/>
          <note len="192" key="77" pan="0" vol="78" pos="2304"/>
          <note len="72" key="75" pan="0" vol="78" pos="2496"/>
          <note len="72" key="73" pan="0" vol="78" pos="2568"/>
          <note len="48" key="75" pan="0" vol="78" pos="2640"/>
          <note len="144" key="78" pan="0" vol="78" pos="2688"/>
          <note len="48" key="73" pan="0" vol="78" pos="2832"/>
          <note len="240" key="72" pan="0" vol="78" pos="2880"/>
          <note len="48" key="75" pan="0" vol="78" pos="3120"/>
          <note len="48" key="77" pan="0" vol="78" pos="3168"/>
          <note len="48" key="78" pan="0" vol="78" pos="3216"/>
          <note len="72" key="80" pan="0" vol="78" pos="3264"/>
          <note len="72" key="78" pan="0" vol="78" pos="3336"/>
          <note len="48" key="76" pan="0" vol="78" pos="3408"/>
          <note len="48" key="75" pan="0" vol="78" pos="3456"/>
          <note len="48" key="70" pan="0" vol="78" pos="3504"/>
          <note len="48" key="82" pan="0" vol="78" pos="3552"/>
          <note len="48" key="87" pan="0" vol="78" pos="3600"/>
          <note len="192" key="85" pan="0" vol="78" pos="3648"/>
          <note len="12" key="82" pan="0" vol="195" pos="3840"/>
          <note len="12" key="80" pan="0" vol="195" pos="3852"/>
          <note len="12" key="78" pan="0" vol="195" pos="3864"/>
          <note len="12" key="77" pan="0" vol="195" pos="3876"/>
          <note len="12" key="80" pan="0" vol="195" pos="3888"/>
          <note len="12" key="78" pan="0" vol="195" pos="3900"/>
          <note len="12" key="77" pan="0" vol="195" pos="3912"/>
          <note len="12" key="75" pan="0" vol="195" pos="3924"/>
          <note len="12" key="78" pan="0" vol="195" pos="3936"/>
          <note len="12" key="77" pan="0" vol="195" pos="3948"/>
          <note len="12" key="75" pan="0" vol="195" pos="3960"/>
          <note len="12" key="73" pan="0" vol="195" pos="3972"/>
          <note len="12" key="77" pan="0" vol="195" pos="3984"/>
          <note len="12" key="75" pan="0" vol="195" pos="3996"/>
          <note len="12" key="73" pan="0" vol="195" pos="4008"/>
          <note len="12" key="75" pan="0" vol="195" pos="4020"/>
        </pattern>
        <pattern muted="0" name="" steps="16" type="1" pos="40320">
          <note len="12" key="66" pan="0" vol="78" pos="0"/>
          <note len="48" key="1" pan="0" vol="200" pos="0"/>
          <note len="12" key="64" pan="0" vol="78" pos="12"/>
          <note len="12" key="61" pan="0" vol="78" pos="24"/>
          <note len="12" key="64" pan="0" vol="78" pos="36"/>
          <note len="12" key="66" pan="0" vol="78" pos="48"/>
          <note len="12" key="64" pan="0" vol="78" pos="60"/>
          <note len="12" key="61" pan="0" vol="78" pos="72"/>
          <note len="12" key="64" pan="0" vol="78" pos="84"/>
          <note len="12" key="69" pan="0" vol="78" pos="96"/>
          <note len="12" key="68" pan="0" vol="78" pos="108"/>
          <note len="12" key="66" pan="0" vol="78" pos="120"/>
          <note len="12" key="68" pan="0" vol="78" pos="132"/>
          <note len="12" key="69" pan="0" vol="78" pos="144"/>
          <note len="12" key="71" pan="0" vol="78" pos="156"/>
          <note len="12" key="73" pan="0" vol="78" pos="168"/>
          <note len="12" key="71" pan="0" vol="78" pos="180"/>
          <note len="12" key="73" pan="0" vol="78" pos="192"/>
          <note len="12" key="71" pan="0" vol="78" pos="204"/>
          <note len="12" key="68" pan="0" vol="78" pos="216"/>
          <note len="12" key="71" pan="0" vol="78" pos="228"/>
          <note len="12" key="73" pan="0" vol="78" pos="240"/>
          <note len="48" key="0" pan="0" vol="200" pos="240"/>
          <note len="12" key="71" pan="0" vol="78" pos="252"/>
          <note len="12" key="68" pan="0" vol="78" pos="264"/>
          <note len="12" key="71" pan="0" vol="78" pos="276"/>
          <note len="12" key="73" pan="0" vol="78" pos="288"/>
          <note len="12" key="75" pan="0" vol="78" pos="300"/>
          <note len="12" key="76" pan="0" vol="78" pos="312"/>
          <note len="12" key="78" pan="0" vol="78" pos="324"/>
          <note len="12" key="80" pan="0" vol="78" pos="336"/>
          <note len="12" key="73" pan="0" vol="78" pos="348"/>
          <note len="12" key="1" pan="0" vol="200" pos="348"/>
          <note len="12" key="71" pan="0" vol="78" pos="360"/>
          <note len="12" key="73" pan="0" vol="78" pos="372"/>
        </pattern>
        <pattern muted="0" name="" steps="16" type="1" pos="40704">
          <note len="48" key="80" pan="0" vol="78" pos="0"/>
          <note len="48" key="0" pan="0" vol="100" pos="0"/>
          <note len="12" key="78" pan="0" vol="78" pos="48"/>
          <note len="12" key="80" pan="0" vol="78" pos="60"/>
          <note len="48" key="78" pan="0" vol="78" pos="72"/>
          <note len="12" key="76" pan="0" vol="78" pos="120"/>
          <note len="12" key="78" pan="0" vol="78" pos="132"/>
          <note len="12" key="76" pan="0" vol="78" pos="144"/>
          <note len="12" key="0" pan="0" vol="78" pos="144"/>
          <note len="12" key="75" pan="0" vol="78" pos="156"/>
          <note len="12" key="1" pan="0" vol="78" pos="156"/>
          <note len="12" key="73" pan="0" vol="78" pos="168"/>
          <note len="12" key="76" pan="0" vol="78" pos="180"/>
          <note len="48" key="75" pan="0" vol="78" pos="192"/>
          <note len="12" key="0" pan="0" vol="78" pos="192"/>
          <note len="12" key="73" pan="0" vol="78" pos="240"/>
          <note len="12" key="1" pan="0" vol="78" pos="240"/>
          <note len="12" key="71" pan="0" vol="78" pos="252"/>
          <note len="12" key="73" pan="0" vol="78" pos="264"/>
          <note len="12" key="75" pan="0" vol="78" pos="276"/>
          <note len="12" key="76" pan="0" vol="78" pos="288"/>
          <note len="12" key="0" pan="0" vol="78" pos="288"/>
          <note len="12" key="78" pan="0" vol="78" pos="300"/>
          <note len="12" key="76" pan="0" vol="78" pos="312"/>
          <note len="12" key="75" pan="0" vol="78" pos="324"/>
          <note len="12" key="76" pan="0" vol="78" pos="336"/>
          <note len="12" key="75" pan="0" vol="78" pos="348"/>
          <note len="12" key="73" pan="0" vol="78" pos="360"/>
          <note len="12" key="1" pan="0" vol="78" pos="360"/>
          <note len="12" key="71" pan="0" vol="78" pos="372"/>
        </pattern>
        <pattern muted="0" name="" steps="16" type="1" pos="41088">
          <note len="12" key="76" pan="0" vol="78" pos="0"/>
          <note len="12" key="0" pan="0" vol="78" pos="0"/>
          <note len="12" key="73" pan="0" vol="78" pos="12"/>
          <note len="12" key="71" pan="0" vol="78" pos="24"/>
          <note len="12" key="1" pan="0" vol="78" pos="24"/>
          <note len="12" key="73" pan="0" vol="78" pos="36"/>
          <note len="12" key="68" pan="0" vol="78" pos="48"/>
          <note len="12" key="73" pan="0" vol="78" pos="60"/>
          <note len="12" key="71" pan="0" vol="78" pos="72"/>
          <note len="12" key="73" pan="0" vol="78" pos="84"/>
          <note len="12" key="76" pan="0" vol="78" pos="96"/>
          <note len="12" key="0" pan="0" vol="78" pos="96"/>
          <note len="12" key="73" pan="0" vol="78" pos="108"/>
          <note len="12" key="71" pan="0" vol="78" pos="120"/>
          <note len="12" key="1" pan="0" vol="78" pos="120"/>
          <note len="12" key="73" pan="0" vol="78" pos="132"/>
          <note len="12" key="68" pan="0" vol="78" pos="144"/>
          <note len="12" key="73" pan="0" vol="78" pos="156"/>
          <note len="12" key="71" pan="0" vol="78" pos="168"/>
          <note len="12" key="73" pan="0" vol="78" pos="180"/>
          <note len="12" key="76" pan="0" vol="78" pos="192"/>
          <note len="12" key="0" pan="0" vol="78" pos="192"/>
          <note len="12" key="71" pan="0" vol="78" pos="204"/>
          <note len="12" key="69" pan="0" vol="78" pos="216"/>
          <note len="12" key="1" pan="0" vol="78" pos="216"/>
          <note len="12" key="71" pan="0" vol="78" pos="228"/>
          <note len="12" key="68" pan="0" vol="78" pos="240"/>
          <note len="12" key="71" pan="0" vol="78" pos="252"/>
          <note len="12" key="69" pan="0" vol="78" pos="264"/>
          <note len="12" key="71" pan="0" vol="78" pos="276"/>
          <note len="12" key="76" pan="0" vol="78" pos="288"/>
          <note len="12" key="0" pan="0" vol="78" pos="288"/>
          <note len="12" key="71" pan="0" vol="78" pos="300"/>
          <note len="12" key="69" pan="0" vol="78" pos="312"/>
          <note len="12" key="1" pan="0" vol="78" pos="312"/>
          <note len="12" key="71" pan="0" vol="78" pos="324"/>
          <note len="12" key="68" pan="0" vol="78" pos="336"/>
          <note len="12" key="71" pan="0" vol="78" pos="348"/>
          <note len="12" key="69" pan="0" vol="78" pos="360"/>
          <note len="12" key="71" pan="0" vol="78" pos="372"/>
        </pattern>
        <pattern muted="0" name="" steps="16" type="1" pos="41472">
          <note len="12" key="78" pan="0" vol="78" pos="0"/>
          <note len="12" key="0" pan="0" vol="78" pos="0"/>
          <note len="12" key="73" pan="0" vol="78" pos="12"/>
          <note len="12" key="70" pan="0" vol="78" pos="24"/>
          <note len="12" key="1" pan="0" vol="78" pos="24"/>
          <note len="12" key="73" pan="0" vol="78" pos="36"/>
          <note len="12" key="66" pan="0" vol="78" pos="48"/>
          <note len="12" key="73" pan="0" vol="78" pos="60"/>
          <note len="12" key="70" pan="0" vol="78" pos="72"/>
          <note len="12" key="73" pan="0" vol="78" pos="84"/>
          <note len="12" key="78" pan="0" vol="78" pos="96"/>
          <note len="12" key="73" pan="0" vol="78" pos="108"/>
          <note len="12" key="70" pan="0" vol="78" pos="120"/>
          <note len="12" key="73" pan="0" vol="78" pos="132"/>
          <note len="12" key="66" pan="0" vol="78" pos="144"/>
          <note len="12" key="73" pan="0" vol="78" pos="156"/>
          <note len="12" key="70" pan="0" vol="78" pos="168"/>
          <note len="12" key="73" pan="0" vol="78" pos="180"/>
        </pattern>
        <pattern muted="0" name="" steps="16" type="1" pos="41664">
          <note len="12" key="78" pan="0" vol="78" pos="0"/>
          <note len="12" key="0" pan="0" vol="78" pos="0"/>
          <note len="12" key="73" pan="0" vol="78" pos="12"/>
          <note len="12" key="70" pan="0" vol="78" pos="24"/>
          <note len="12" key="1" pan="0" vol="78" pos="24"/>
          <note len="12" key="66" pan="0" vol="78" pos="36"/>
          <note len="12" key="70" pan="0" vol="78" pos="48"/>
          <note len="12" key="66" pan="0" vol="78" pos="60"/>
          <note len="12" key="61" pan="0" vol="78" pos="72"/>
          <note len="12" key="66" pan="0" vol="78" pos="84"/>
          <note len="12" key="73" pan="0" vol="78" pos="96"/>
          <note len="12" key="70" pan="0" vol="78" pos="108"/>
          <note len="12" key="66" pan="0" vol="78" pos="120"/>
          <note len="12" key="70" pan="0" vol="78" pos="132"/>
          <note len="12" key="73" pan="0" vol="78" pos="144"/>
          <note len="12" key="78" pan="0" vol="78" pos="156"/>
          <note len="12" key="1" pan="0" vol="78" pos="156"/>
          <note len="12" key="82" pan="0" vol="78" pos="168"/>
          <note len="12" key="78" pan="0" vol="78" pos="180"/>
        </pattern>
        <pattern muted="0" name="" steps="16" type="1" pos="41856">
          <note len="24" key="81" pan="0" vol="78" pos="0"/>
          <note len="48" key="0" pan="0" vol="78" pos="0"/>
          <note len="24" key="76" pan="0" vol="78" pos="24"/>
          <note len="24" key="73" pan="0" vol="78" pos="48"/>
          <note len="24" key="80" pan="0" vol="78" pos="72"/>
          <note len="24" key="81" pan="0" vol="78" pos="96"/>
          <note len="24" key="83" pan="0" vol="78" pos="120"/>
          <note len="24" key="81" pan="0" vol="78" pos="144"/>
          <note len="24" key="80" pan="0" vol="78" pos="168"/>
          <note len="12" key="81" pan="0" vol="78" pos="192"/>
          <note len="24" key="0" pan="0" vol="78" pos="192"/>
          <note len="12" key="80" pan="0" vol="78" pos="204"/>
          <note len="12" key="78" pan="0" vol="78" pos="216"/>
          <note len="24" key="1" pan="0" vol="78" pos="216"/>
          <note len="12" key="76" pan="0" vol="78" pos="228"/>
          <note len="12" key="75" pan="0" vol="78" pos="240"/>
          <note len="12" key="76" pan="0" vol="78" pos="252"/>
          <note len="12" key="78" pan="0" vol="78" pos="264"/>
          <note len="24" key="0" pan="0" vol="78" pos="264"/>
          <note len="12" key="76" pan="0" vol="78" pos="276"/>
          <note len="12" key="75" pan="0" vol="78" pos="288"/>
          <note len="24" key="1" pan="0" vol="78" pos="288"/>
          <note len="12" key="73" pan="0" vol="78" pos="300"/>
          <note len="12" key="75" pan="0" vol="78" pos="312"/>
          <note len="12" key="76" pan="0" vol="78" pos="324"/>
          <note len="12" key="81" pan="0" vol="78" pos="336"/>
          <note len="24" key="0" pan="0" vol="78" pos="336"/>
          <note len="12" key="80" pan="0" vol="78" pos="348"/>
          <note len="12" key="78" pan="0" vol="78" pos="360"/>
          <note len="24" key="1" pan="0" vol="78" pos="360"/>
          <note len="12" key="80" pan="0" vol="78" pos="372"/>
          <note len="384" key="83" pan="0" vol="78" pos="384"/>
          <note len="24" key="0" pan="0" vol="78" pos="384"/>
        </pattern>
        <pattern muted="0" name="" steps="16" type="1" pos="53376">
          <note len="192" key="70" pan="0" vol="197" pos="0"/>
          <note len="384" key="0" pan="0" vol="197" pos="0"/>
          <note len="192" key="68" pan="0" vol="197" pos="192"/>
          <note len="288" key="66" pan="0" vol="197" pos="384"/>
          <note len="96" key="66" pan="0" vol="197" pos="672"/>
          <note len="192" key="78" pan="0" vol="197" pos="768"/>
          <note len="192" key="77" pan="0" vol="197" pos="960"/>
          <note len="384" key="72" pan="0" vol="197" pos="1152"/>
          <note len="192" key="71" pan="0" vol="197" pos="1536"/>
          <note len="192" key="73" pan="0" vol="197" pos="1728"/>
          <note len="192" key="75" pan="0" vol="197" pos="1920"/>
          <note len="96" key="70" pan="0" vol="197" pos="2112"/>
          <note len="96" key="68" pan="0" vol="197" pos="2208"/>
          <note len="192" key="68" pan="0" vol="197" pos="2304"/>
          <note len="144" key="63" pan="0" vol="197" pos="2496"/>
          <note len="24" key="63" pan="0" vol="197" pos="2640"/>
          <note len="24" key="65" pan="0" vol="197" pos="2664"/>
          <note len="192" key="66" pan="0" vol="197" pos="2688"/>
          <note len="96" key="68" pan="0" vol="197" pos="2880"/>
          <note len="96" key="73" pan="0" vol="197" pos="2976"/>
          <note len="384" key="75" pan="0" vol="197" pos="3072"/>
        </pattern>
        <pattern muted="0" name="" steps="16" type="1" pos="62400">
          <note len="12" key="78" pan="0" vol="95" pos="96"/>
          <note len="12" key="0" pan="0" vol="95" pos="96"/>
          <note len="12" key="80" pan="0" vol="95" pos="108"/>
          <note len="12" key="78" pan="0" vol="95" pos="120"/>
          <note len="12" key="77" pan="0" vol="95" pos="132"/>
          <note len="12" key="1" pan="0" vol="95" pos="132"/>
          <note len="12" key="78" pan="0" vol="95" pos="144"/>
          <note len="12" key="0" pan="0" vol="95" pos="144"/>
          <note len="12" key="77" pan="0" vol="95" pos="156"/>
          <note len="12" key="1" pan="0" vol="95" pos="156"/>
          <note len="12" key="75" pan="0" vol="95" pos="168"/>
          <note len="12" key="74" pan="0" vol="95" pos="180"/>
        </pattern>
        <pattern muted="0" name="" steps="16" type="1" pos="62592">
          <note len="144" key="70" pan="0" vol="78" pos="0"/>
          <note len="12" key="0" pan="0" vol="140" pos="0"/>
          <note len="48" key="75" pan="0" vol="78" pos="144"/>
          <note len="144" key="73" pan="0" vol="78" pos="192"/>
          <note len="48" key="78" pan="0" vol="78" pos="336"/>
          <note len="144" key="78" pan="0" vol="78" pos="384"/>
          <note len="24" key="77" pan="0" vol="78" pos="528"/>
          <note len="24" key="75" pan="0" vol="78" pos="552"/>
          <note len="48" key="73" pan="0" vol="78" pos="576"/>
          <note len="48" key="75" pan="0" vol="78" pos="624"/>
          <note len="12" key="68" pan="0" vol="197" pos="672"/>
          <note len="12" key="1" pan="0" vol="197" pos="672"/>
          <note len="12" key="70" pan="0" vol="197" pos="684"/>
          <note len="12" key="68" pan="0" vol="197" pos="696"/>
          <note len="12" key="66" pan="0" vol="197" pos="708"/>
          <note len="12" key="68" pan="0" vol="197" pos="720"/>
          <note len="12" key="66" pan="0" vol="197" pos="732"/>
          <note len="12" key="63" pan="0" vol="197" pos="744"/>
          <note len="12" key="66" pan="0" vol="197" pos="756"/>
          <note len="96" key="68" pan="0" vol="78" pos="768"/>
          <note len="12" key="0" pan="0" vol="197" pos="768"/>
          <note len="48" key="71" pan="0" vol="78" pos="864"/>
          <note len="48" key="75" pan="0" vol="78" pos="912"/>
          <note len="96" key="75" pan="0" vol="78" pos="960"/>
          <note len="48" key="73" pan="0" vol="78" pos="1056"/>
          <note len="48" key="75" pan="0" vol="78" pos="1104"/>
          <note len="12" key="75" pan="0" vol="197" pos="1152"/>
          <note len="12" key="0" pan="0" vol="200" pos="1152"/>
          <note len="12" key="71" pan="0" vol="197" pos="1164"/>
          <note len="12" key="73" pan="0" vol="197" pos="1176"/>
          <note len="12" key="75" pan="0" vol="197" pos="1188"/>
          <note len="12" key="77" pan="0" vol="197" pos="1200"/>
          <note len="12" key="73" pan="0" vol="197" pos="1212"/>
          <note len="12" key="75" pan="0" vol="197" pos="1224"/>
          <note len="12" key="77" pan="0" vol="197" pos="1236"/>
          <note len="12" key="78" pan="0" vol="197" pos="1248"/>
          <note len="12" key="75" pan="0" vol="197" pos="1260"/>
          <note len="12" key="77" pan="0" vol="197" pos="1272"/>
          <note len="12" key="78" pan="0" vol="197" pos="1284"/>
          <note len="12" key="80" pan="0" vol="197" pos="1296"/>
          <note len="12" key="77" pan="0" vol="197" pos="1308"/>
          <note len="12" key="78" pan="0" vol="197" pos="1320"/>
          <note len="12" key="80" pan="0" vol="197" pos="1332"/>
          <note len="12" key="82" pan="0" vol="197" pos="1344"/>
          <note len="12" key="80" pan="0" vol="197" pos="1356"/>
          <note len="12" key="78" pan="0" vol="197" pos="1368"/>
          <note len="12" key="77" pan="0" vol="197" pos="1380"/>
          <note len="12" key="75" pan="0" vol="197" pos="1392"/>
          <note len="12" key="77" pan="0" vol="197" pos="1404"/>
          <note len="12" key="80" pan="0" vol="197" pos="1416"/>
          <note len="12" key="78" pan="0" vol="197" pos="1428"/>
          <note len="12" key="77" pan="0" vol="197" pos="1440"/>
          <note len="12" key="0" pan="0" vol="200" pos="1440"/>
          <note len="12" key="75" pan="0" vol="197" pos="1452"/>
          <note len="12" key="73" pan="0" vol="197" pos="1464"/>
          <note len="12" key="75" pan="0" vol="197" pos="1476"/>
          <note len="12" key="78" pan="0" vol="197" pos="1488"/>
          <note len="12" key="77" pan="0" vol="197" pos="1500"/>
          <note len="12" key="75" pan="0" vol="197" pos="1512"/>
          <note len="12" key="73" pan="0" vol="197" pos="1524"/>
          <note len="12" key="71" pan="0" vol="197" pos="1536"/>
          <note len="12" key="73" pan="0" vol="197" pos="1548"/>
          <note len="12" key="77" pan="0" vol="200" pos="1560"/>
          <note len="12" key="75" pan="0" vol="200" pos="1572"/>
          <note len="12" key="73" pan="0" vol="200" pos="1584"/>
          <note len="12" key="71" pan="0" vol="200" pos="1596"/>
          <note len="12" key="70" pan="0" vol="200" pos="1608"/>
          <note len="12" key="71" pan="0" vol="200" pos="1620"/>
          <note len="12" key="75" pan="0" vol="200" pos="1632"/>
          <note len="12" key="73" pan="0" vol="200" pos="1644"/>
          <note len="12" key="71" pan="0" vol="200" pos="1656"/>
          <note len="12" key="70" pan="0" vol="200" pos="1668"/>
          <note len="12" key="73" pan="0" vol="200" pos="1680"/>
          <note len="12" key="71" pan="0" vol="200" pos="1692"/>
          <note len="12" key="70" pan="0" vol="200" pos="1704"/>
          <note len="12" key="71" pan="0" vol="200" pos="1716"/>
          <note len="192" key="82" pan="0" vol="197" pos="1728"/>
        </pattern>
      </track>
      <track muted="0" name="Carla Patchbay" type="0" solo="0" mutedBeforeSolo="0">
        <instrumenttrack usemasterpitch="1" pitchrange="1" pitch="0" pan="0" basenote="45" vol="66.4" fxch="16">
          <instrument name="carlapatchbay">
            <carlapatchbay>
              <CARLA-PROJECT VERSION="2.2">
                <EngineSettings>
                  <ForceStereo>false</ForceStereo>
                  <PreferPluginBridges>false</PreferPluginBridges>
                  <PreferUiBridges>true</PreferUiBridges>
                  <UIsAlwaysOnTop>false</UIsAlwaysOnTop>
                  <MaxParameters>200</MaxParameters>
                  <UIBridgesTimeout>4000</UIBridgesTimeout>
                  <LADSPA_PATH>/home/pass/.ladspa:/usr/lib/ladspa:/usr/local/lib/ladspa</LADSPA_PATH>
                  <DSSI_PATH>/home/pass/.dssi:/usr/lib/dssi:/usr/local/lib/dssi</DSSI_PATH>
                  <LV2_PATH>/home/pass/.lv2:/usr/lib/lv2:/usr/local/lib/lv2</LV2_PATH>
                  <VST2_PATH>/home/pass/.vst:/home/pass/.wine/drive_c/Program Files (x86)/VstPlugins:/home/pass/.wine/drive_c/Program Files/VstPlugins:/home/pass/Music/winvst/VST32:/home/pass/Music/winvst/VST64/Plogue Art et Technologie, Inc:/home/pass/vst:/usr/lib/lxvst:/usr/lib/vst:/usr/local/lib/lxvst:/usr/local/lib/vst/home/pass/.lxvst</VST2_PATH>
                  <VST3_PATH>/home/pass/.vst3:/home/pass/.wine/drive_c/Program Files (x86)/Common Files/VST3:/home/pass/.wine/drive_c/Program Files/Common Files/VST3:/usr/lib/vst3:/usr/local/lib/vst3</VST3_PATH>
                  <SF2_PATH>/home/pass/.sounds/sf2/home/pass/.sounds/sf3:/home/pass/samples/soundfonts:/usr/share/soundfonts:/usr/share/sounds/sf2:/usr/share/sounds/sf3</SF2_PATH>
                  <SFZ_PATH>/home/pass/.sounds/sfz:/home/pass/samples:/usr/share/sounds/sfz</SFZ_PATH>
                </EngineSettings>
                <!-- sfizz -->
                <Plugin>
                  <Info>
                    <Type>LV2</Type>
                    <Name>sfizz</Name>
                    <URI>http://sfztools.github.io/sfizz</URI>
                  </Info>
                  <Data>
                    <Active>Yes</Active>
                    <ControlChannel>1</ControlChannel>
                    <Options>0x3f0</Options>
                    <Parameter>
                      <Index>0</Index>
                      <Name>Volume</Name>
                      <Symbol>volume</Symbol>
                      <Value>0</Value>
                    </Parameter>
                    <Parameter>
                      <Index>1</Index>
                      <Name>Polyphony</Name>
                      <Symbol>num_voices</Symbol>
                      <Value>64</Value>
                    </Parameter>
                    <Parameter>
                      <Index>2</Index>
                      <Name>Internal oversampling factor</Name>
                      <Symbol>oversampling</Symbol>
                      <Value>1</Value>
                    </Parameter>
                    <Parameter>
                      <Index>3</Index>
                      <Name>Preload size</Name>
                      <Symbol>preload_size</Symbol>
                      <Value>8192</Value>
                    </Parameter>
                    <Parameter>
                      <Index>5</Index>
                      <Name>Scala root key</Name>
                      <Symbol>scala_root_key</Symbol>
                      <Value>60</Value>
                    </Parameter>
                    <Parameter>
                      <Index>6</Index>
                      <Name>Tuning frequency</Name>
                      <Symbol>tuning_frequency</Symbol>
                      <Value>440</Value>
                    </Parameter>
                    <Parameter>
                      <Index>7</Index>
                      <Name>Stretched tuning</Name>
                      <Symbol>stretched_tuning</Symbol>
                      <Value>0</Value>
                    </Parameter>
                    <CustomData>
                      <Type>http://lv2plug.in/ns/ext/atom#Path</Type>
                      <Key>http://sfztools.github.io/sfizz:sfzfile</Key>
                      <Value>Strings - 1st Violins Sustain.sfz</Value>
                    </CustomData>
                    <CustomData>
                      <Type>http://lv2plug.in/ns/ext/atom#Path</Type>
                      <Key>http://sfztools.github.io/sfizz:tuningfile</Key>
                      <Value>DefaultScale.scl</Value>
                    </CustomData>
                    <CustomData>
                      <Type>http://lv2plug.in/ns/ext/atom#Int</Type>
                      <Key>http://sfztools.github.io/sfizz:numvoices</Key>
                      <Value>QAAAAA==</Value>
                    </CustomData>
                    <CustomData>
                      <Type>http://lv2plug.in/ns/ext/atom#Int</Type>
                      <Key>http://sfztools.github.io/sfizz:preload_size</Key>
                      <Value>ACAAAA==</Value>
                    </CustomData>
                    <CustomData>
                      <Type>http://lv2plug.in/ns/ext/atom#Int</Type>
                      <Key>http://sfztools.github.io/sfizz:oversampling</Key>
                      <Value>AQAAAA==</Value>
                    </CustomData>
                  </Data>
                </Plugin>
                <!-- Audio Gain (Stereo) -->
                <Plugin>
                  <Info>
                    <Type>INTERNAL</Type>
                    <Name>Audio Gain (Stereo)</Name>
                    <Label>audiogain_s</Label>
                  </Info>
                  <Data>
                    <Active>Yes</Active>
                    <ControlChannel>1</ControlChannel>
                    <Options>0x0</Options>
                    <Parameter>
                      <Index>0</Index>
                      <Name>Gain</Name>
                      <Value>1</Value>
                    </Parameter>
                    <Parameter>
                      <Index>1</Index>
                      <Name>Apply Left</Name>
                      <Value>1</Value>
                    </Parameter>
                    <Parameter>
                      <Index>2</Index>
                      <Name>Apply Right</Name>
                      <Value>1</Value>
                    </Parameter>
                  </Data>
                </Plugin>
                <!-- sfizz -->
                <Plugin>
                  <Info>
                    <Type>LV2</Type>
                    <Name>sfizz (2)</Name>
                    <URI>http://sfztools.github.io/sfizz</URI>
                  </Info>
                  <Data>
                    <Active>Yes</Active>
                    <ControlChannel>1</ControlChannel>
                    <Options>0x3f0</Options>
                    <Parameter>
                      <Index>0</Index>
                      <Name>Volume</Name>
                      <Symbol>volume</Symbol>
                      <Value>0</Value>
                    </Parameter>
                    <Parameter>
                      <Index>1</Index>
                      <Name>Polyphony</Name>
                      <Symbol>num_voices</Symbol>
                      <Value>64</Value>
                    </Parameter>
                    <Parameter>
                      <Index>2</Index>
                      <Name>Internal oversampling factor</Name>
                      <Symbol>oversampling</Symbol>
                      <Value>1</Value>
                    </Parameter>
                    <Parameter>
                      <Index>3</Index>
                      <Name>Preload size</Name>
                      <Symbol>preload_size</Symbol>
                      <Value>8192</Value>
                    </Parameter>
                    <Parameter>
                      <Index>5</Index>
                      <Name>Scala root key</Name>
                      <Symbol>scala_root_key</Symbol>
                      <Value>60</Value>
                    </Parameter>
                    <Parameter>
                      <Index>6</Index>
                      <Name>Tuning frequency</Name>
                      <Symbol>tuning_frequency</Symbol>
                      <Value>440</Value>
                    </Parameter>
                    <Parameter>
                      <Index>7</Index>
                      <Name>Stretched tuning</Name>
                      <Symbol>stretched_tuning</Symbol>
                      <Value>0</Value>
                    </Parameter>
                    <CustomData>
                      <Type>http://lv2plug.in/ns/ext/atom#Path</Type>
                      <Key>http://sfztools.github.io/sfizz:sfzfile</Key>
                      <Value>Strings - 2nd Violins Sustain.sfz</Value>
                    </CustomData>
                    <CustomData>
                      <Type>http://lv2plug.in/ns/ext/atom#Path</Type>
                      <Key>http://sfztools.github.io/sfizz:tuningfile</Key>
                      <Value>DefaultScale.scl</Value>
                    </CustomData>
                    <CustomData>
                      <Type>http://lv2plug.in/ns/ext/atom#Int</Type>
                      <Key>http://sfztools.github.io/sfizz:numvoices</Key>
                      <Value>QAAAAA==</Value>
                    </CustomData>
                    <CustomData>
                      <Type>http://lv2plug.in/ns/ext/atom#Int</Type>
                      <Key>http://sfztools.github.io/sfizz:preload_size</Key>
                      <Value>ACAAAA==</Value>
                    </CustomData>
                    <CustomData>
                      <Type>http://lv2plug.in/ns/ext/atom#Int</Type>
                      <Key>http://sfztools.github.io/sfizz:oversampling</Key>
                      <Value>AQAAAA==</Value>
                    </CustomData>
                  </Data>
                </Plugin>
                <!-- sfizz -->
                <Plugin>
                  <Info>
                    <Type>LV2</Type>
                    <Name>sfizz (3)</Name>
                    <URI>http://sfztools.github.io/sfizz</URI>
                  </Info>
                  <Data>
                    <Active>Yes</Active>
                    <ControlChannel>1</ControlChannel>
                    <Options>0x3f0</Options>
                    <Parameter>
                      <Index>0</Index>
                      <Name>Volume</Name>
                      <Symbol>volume</Symbol>
                      <Value>0</Value>
                    </Parameter>
                    <Parameter>
                      <Index>1</Index>
                      <Name>Polyphony</Name>
                      <Symbol>num_voices</Symbol>
                      <Value>64</Value>
                    </Parameter>
                    <Parameter>
                      <Index>2</Index>
                      <Name>Internal oversampling factor</Name>
                      <Symbol>oversampling</Symbol>
                      <Value>1</Value>
                    </Parameter>
                    <Parameter>
                      <Index>3</Index>
                      <Name>Preload size</Name>
                      <Symbol>preload_size</Symbol>
                      <Value>8192</Value>
                    </Parameter>
                    <Parameter>
                      <Index>5</Index>
                      <Name>Scala root key</Name>
                      <Symbol>scala_root_key</Symbol>
                      <Value>60</Value>
                    </Parameter>
                    <Parameter>
                      <Index>6</Index>
                      <Name>Tuning frequency</Name>
                      <Symbol>tuning_frequency</Symbol>
                      <Value>440</Value>
                    </Parameter>
                    <Parameter>
                      <Index>7</Index>
                      <Name>Stretched tuning</Name>
                      <Symbol>stretched_tuning</Symbol>
                      <Value>0</Value>
                    </Parameter>
                    <CustomData>
                      <Type>http://lv2plug.in/ns/ext/atom#Path</Type>
                      <Key>http://sfztools.github.io/sfizz:sfzfile</Key>
                      <Value>Strings - Celli Sustain.sfz</Value>
                    </CustomData>
                    <CustomData>
                      <Type>http://lv2plug.in/ns/ext/atom#Path</Type>
                      <Key>http://sfztools.github.io/sfizz:tuningfile</Key>
                      <Value>DefaultScale.scl</Value>
                    </CustomData>
                    <CustomData>
                      <Type>http://lv2plug.in/ns/ext/atom#Int</Type>
                      <Key>http://sfztools.github.io/sfizz:numvoices</Key>
                      <Value>QAAAAA==</Value>
                    </CustomData>
                    <CustomData>
                      <Type>http://lv2plug.in/ns/ext/atom#Int</Type>
                      <Key>http://sfztools.github.io/sfizz:preload_size</Key>
                      <Value>ACAAAA==</Value>
                    </CustomData>
                    <CustomData>
                      <Type>http://lv2plug.in/ns/ext/atom#Int</Type>
                      <Key>http://sfztools.github.io/sfizz:oversampling</Key>
                      <Value>AQAAAA==</Value>
                    </CustomData>
                  </Data>
                </Plugin>
                <!-- sfizz -->
                <Plugin>
                  <Info>
                    <Type>LV2</Type>
                    <Name>sfizz (4)</Name>
                    <URI>http://sfztools.github.io/sfizz</URI>
                  </Info>
                  <Data>
                    <Active>Yes</Active>
                    <ControlChannel>1</ControlChannel>
                    <Options>0x3f0</Options>
                    <Parameter>
                      <Index>0</Index>
                      <Name>Volume</Name>
                      <Symbol>volume</Symbol>
                      <Value>0</Value>
                    </Parameter>
                    <Parameter>
                      <Index>1</Index>
                      <Name>Polyphony</Name>
                      <Symbol>num_voices</Symbol>
                      <Value>64</Value>
                    </Parameter>
                    <Parameter>
                      <Index>2</Index>
                      <Name>Internal oversampling factor</Name>
                      <Symbol>oversampling</Symbol>
                      <Value>1</Value>
                    </Parameter>
                    <Parameter>
                      <Index>3</Index>
                      <Name>Preload size</Name>
                      <Symbol>preload_size</Symbol>
                      <Value>8192</Value>
                    </Parameter>
                    <Parameter>
                      <Index>5</Index>
                      <Name>Scala root key</Name>
                      <Symbol>scala_root_key</Symbol>
                      <Value>60</Value>
                    </Parameter>
                    <Parameter>
                      <Index>6</Index>
                      <Name>Tuning frequency</Name>
                      <Symbol>tuning_frequency</Symbol>
                      <Value>440</Value>
                    </Parameter>
                    <Parameter>
                      <Index>7</Index>
                      <Name>Stretched tuning</Name>
                      <Symbol>stretched_tuning</Symbol>
                      <Value>0</Value>
                    </Parameter>
                    <CustomData>
                      <Type>http://lv2plug.in/ns/ext/atom#Path</Type>
                      <Key>http://sfztools.github.io/sfizz:sfzfile</Key>
                      <Value>Strings - Violas Sustain.sfz</Value>
                    </CustomData>
                    <CustomData>
                      <Type>http://lv2plug.in/ns/ext/atom#Path</Type>
                      <Key>http://sfztools.github.io/sfizz:tuningfile</Key>
                      <Value>DefaultScale.scl</Value>
                    </CustomData>
                    <CustomData>
                      <Type>http://lv2plug.in/ns/ext/atom#Int</Type>
                      <Key>http://sfztools.github.io/sfizz:numvoices</Key>
                      <Value>QAAAAA==</Value>
                    </CustomData>
                    <CustomData>
                      <Type>http://lv2plug.in/ns/ext/atom#Int</Type>
                      <Key>http://sfztools.github.io/sfizz:preload_size</Key>
                      <Value>ACAAAA==</Value>
                    </CustomData>
                    <CustomData>
                      <Type>http://lv2plug.in/ns/ext/atom#Int</Type>
                      <Key>http://sfztools.github.io/sfizz:oversampling</Key>
                      <Value>AQAAAA==</Value>
                    </CustomData>
                  </Data>
                </Plugin>
                <!-- sfizz -->
                <Plugin>
                  <Info>
                    <Type>LV2</Type>
                    <Name>sfizz (5)</Name>
                    <URI>http://sfztools.github.io/sfizz</URI>
                  </Info>
                  <Data>
                    <Active>Yes</Active>
                    <ControlChannel>1</ControlChannel>
                    <Options>0x3f0</Options>
                    <Parameter>
                      <Index>0</Index>
                      <Name>Volume</Name>
                      <Symbol>volume</Symbol>
                      <Value>0</Value>
                    </Parameter>
                    <Parameter>
                      <Index>1</Index>
                      <Name>Polyphony</Name>
                      <Symbol>num_voices</Symbol>
                      <Value>64</Value>
                    </Parameter>
                    <Parameter>
                      <Index>2</Index>
                      <Name>Internal oversampling factor</Name>
                      <Symbol>oversampling</Symbol>
                      <Value>1</Value>
                    </Parameter>
                    <Parameter>
                      <Index>3</Index>
                      <Name>Preload size</Name>
                      <Symbol>preload_size</Symbol>
                      <Value>8192</Value>
                    </Parameter>
                    <Parameter>
                      <Index>5</Index>
                      <Name>Scala root key</Name>
                      <Symbol>scala_root_key</Symbol>
                      <Value>60</Value>
                    </Parameter>
                    <Parameter>
                      <Index>6</Index>
                      <Name>Tuning frequency</Name>
                      <Symbol>tuning_frequency</Symbol>
                      <Value>440</Value>
                    </Parameter>
                    <Parameter>
                      <Index>7</Index>
                      <Name>Stretched tuning</Name>
                      <Symbol>stretched_tuning</Symbol>
                      <Value>0</Value>
                    </Parameter>
                    <CustomData>
                      <Type>http://lv2plug.in/ns/ext/atom#Path</Type>
                      <Key>http://sfztools.github.io/sfizz:sfzfile</Key>
                      <Value>Strings - Basses Sustain.sfz</Value>
                    </CustomData>
                    <CustomData>
                      <Type>http://lv2plug.in/ns/ext/atom#Path</Type>
                      <Key>http://sfztools.github.io/sfizz:tuningfile</Key>
                      <Value>DefaultScale.scl</Value>
                    </CustomData>
                    <CustomData>
                      <Type>http://lv2plug.in/ns/ext/atom#Int</Type>
                      <Key>http://sfztools.github.io/sfizz:numvoices</Key>
                      <Value>QAAAAA==</Value>
                    </CustomData>
                    <CustomData>
                      <Type>http://lv2plug.in/ns/ext/atom#Int</Type>
                      <Key>http://sfztools.github.io/sfizz:preload_size</Key>
                      <Value>ACAAAA==</Value>
                    </CustomData>
                    <CustomData>
                      <Type>http://lv2plug.in/ns/ext/atom#Int</Type>
                      <Key>http://sfztools.github.io/sfizz:oversampling</Key>
                      <Value>AQAAAA==</Value>
                    </CustomData>
                  </Data>
                </Plugin>
                <Patchbay>
                  <Connection>
                    <Source>Midi Input:Capture 1</Source>
                    <Target>sfizz:events-in</Target>
                  </Connection>
                  <Connection>
                    <Source>Midi Input:Capture 1</Source>
                    <Target>sfizz (2):events-in</Target>
                  </Connection>
                  <Connection>
                    <Source>Midi Input:Capture 1</Source>
                    <Target>sfizz (3):events-in</Target>
                  </Connection>
                  <Connection>
                    <Source>Midi Input:Capture 1</Source>
                    <Target>sfizz (4):events-in</Target>
                  </Connection>
                  <Connection>
                    <Source>sfizz:Left Output</Source>
                    <Target>Audio Output:Left</Target>
                  </Connection>
                  <Connection>
                    <Source>sfizz:Right Output</Source>
                    <Target>Audio Output:Left</Target>
                  </Connection>
                  <Connection>
                    <Source>sfizz (2):Left Output</Source>
                    <Target>Audio Output:Right</Target>
                  </Connection>
                  <Connection>
                    <Source>sfizz (2):Right Output</Source>
                    <Target>Audio Output:Right</Target>
                  </Connection>
                  <Connection>
                    <Source>sfizz (3):Left Output</Source>
                    <Target>Audio Output:Left</Target>
                  </Connection>
                  <Connection>
                    <Source>sfizz (3):Right Output</Source>
                    <Target>Audio Output:Right</Target>
                  </Connection>
                  <Connection>
                    <Source>sfizz (4):Left Output</Source>
                    <Target>Audio Output:Left</Target>
                  </Connection>
                  <Connection>
                    <Source>sfizz (4):Right Output</Source>
                    <Target>Audio Output:Right</Target>
                  </Connection>
                  <Connection>
                    <Source>sfizz (5):Left Output</Source>
                    <Target>Audio Output:Left</Target>
                  </Connection>
                  <Connection>
                    <Source>sfizz (5):Right Output</Source>
                    <Target>Audio Output:Right</Target>
                  </Connection>
                  <Connection>
                    <Source>Midi Input:Capture 1</Source>
                    <Target>sfizz (5):events-in</Target>
                  </Connection>
                  <Positions>
                    <Position y1="1419" x1="1642" pluginId="5">
                      <Name>sfizz (5)</Name>
                    </Position>
                    <Position y1="1321" x1="1617" pluginId="4">
                      <Name>sfizz (4)</Name>
                    </Position>
                    <Position y1="1100" x1="1584" pluginId="3">
                      <Name>sfizz (3)</Name>
                    </Position>
                    <Position y1="1288" x1="1725" pluginId="2">
                      <Name>sfizz (2)</Name>
                    </Position>
                    <Position y1="1115" x1="1765" pluginId="1">
                      <Name>Audio Gain (Stereo)</Name>
                    </Position>
                    <Position y1="1200" x1="1679" pluginId="0">
                      <Name>sfizz</Name>
                    </Position>
                    <Position y1="1308" x1="1448" x2="1943" y2="1355">
                      <Name>Midi Input</Name>
                    </Position>
                  </Positions>
                </Patchbay>
              </CARLA-PROJECT>
              <key/>
            </carlapatchbay>
          </instrument>
          <eldata fcut="14000" fwet="0" fres="0.5" ftype="0">
            <elvol rel="0.1" lspd_syncmode="0" pdel="0" lspd_numerator="4" lpdel="0" amt="0" ctlenvamt="0" lshp="0" userwavefile="" dec="0.5" lspd_denominator="4" sustain="0.5" lspd="0.1" latt="0" hold="0.5" att="0" x100="0" lamt="0"/>
            <elcut rel="0.1" lspd_syncmode="0" pdel="0" lspd_numerator="4" lpdel="0" amt="0" ctlenvamt="0" lshp="0" userwavefile="" dec="0.5" lspd_denominator="4" sustain="0.5" lspd="0.1" latt="0" hold="0.5" att="0" x100="0" lamt="0"/>
            <elres rel="0.1" lspd_syncmode="0" pdel="0" lspd_numerator="4" lpdel="0" amt="0" ctlenvamt="0" lshp="0" userwavefile="" dec="0.5" lspd_denominator="4" sustain="0.5" lspd="0.1" latt="0" hold="0.5" att="0" x100="0" lamt="0"/>
          </eldata>
          <chordcreator chord="0" chordrange="1" chord-enabled="0"/>
          <arpeggiator arptime_denominator="4" arptime="200" arp-enabled="0" arpcycle="0" arpgate="100" arp="0" arpmiss="0" arpdir="0" arprange="1" arpmode="0" arpskip="0" arptime_syncmode="0" arptime_numerator="4"/>
          <midiport inputcontroller="0" fixedinputvelocity="-1" readable="0" outputcontroller="0" fixedoutputnote="-1" outputprogram="1" writable="0" fixedoutputvelocity="-1" basevelocity="63" outputchannel="1" inputchannel="0"/>
          <fxchain enabled="0" numofeffects="0"/>
        </instrumenttrack>
        <pattern muted="0" name="" steps="16" type="1" pos="0">
          <note len="384" key="61" pan="0" vol="193" pos="0"/>
          <note len="192" key="68" pan="0" vol="193" pos="192"/>
          <note len="384" key="64" pan="0" vol="193" pos="384"/>
          <note len="384" key="61" pan="0" vol="193" pos="384"/>
          <note len="384" key="52" pan="0" vol="193" pos="384"/>
          <note len="384" key="63" pan="0" vol="193" pos="768"/>
          <note len="384" key="59" pan="0" vol="193" pos="768"/>
          <note len="384" key="56" pan="0" vol="193" pos="768"/>
          <note len="384" key="61" pan="0" vol="193" pos="1152"/>
          <note len="384" key="56" pan="0" vol="193" pos="1152"/>
          <note len="384" key="49" pan="0" vol="193" pos="1152"/>
          <note len="384" key="59" pan="0" vol="193" pos="1536"/>
          <note len="384" key="57" pan="0" vol="193" pos="1536"/>
          <note len="384" key="49" pan="0" vol="193" pos="1536"/>
          <note len="24" key="64" pan="0" vol="193" pos="1920"/>
          <note len="24" key="61" pan="0" vol="193" pos="1920"/>
          <note len="24" key="56" pan="0" vol="193" pos="1920"/>
          <note len="24" key="64" pan="0" vol="193" pos="1992"/>
          <note len="24" key="61" pan="0" vol="193" pos="1992"/>
          <note len="24" key="56" pan="0" vol="193" pos="1992"/>
          <note len="24" key="64" pan="0" vol="193" pos="2064"/>
          <note len="24" key="61" pan="0" vol="193" pos="2064"/>
          <note len="24" key="56" pan="0" vol="193" pos="2064"/>
          <note len="24" key="64" pan="0" vol="193" pos="2136"/>
          <note len="24" key="61" pan="0" vol="193" pos="2136"/>
          <note len="24" key="56" pan="0" vol="193" pos="2136"/>
          <note len="24" key="64" pan="0" vol="193" pos="2208"/>
          <note len="24" key="61" pan="0" vol="193" pos="2208"/>
          <note len="24" key="56" pan="0" vol="193" pos="2208"/>
          <note len="24" key="64" pan="0" vol="193" pos="2232"/>
          <note len="24" key="61" pan="0" vol="193" pos="2232"/>
          <note len="24" key="56" pan="0" vol="193" pos="2232"/>
          <note len="24" key="64" pan="0" vol="193" pos="2280"/>
          <note len="24" key="61" pan="0" vol="193" pos="2280"/>
          <note len="24" key="56" pan="0" vol="193" pos="2280"/>
          <note len="24" key="63" pan="0" vol="193" pos="2304"/>
          <note len="24" key="59" pan="0" vol="193" pos="2304"/>
          <note len="24" key="56" pan="0" vol="193" pos="2304"/>
          <note len="24" key="63" pan="0" vol="193" pos="2376"/>
          <note len="24" key="59" pan="0" vol="193" pos="2376"/>
          <note len="24" key="56" pan="0" vol="193" pos="2376"/>
          <note len="24" key="63" pan="0" vol="193" pos="2448"/>
          <note len="24" key="59" pan="0" vol="193" pos="2448"/>
          <note len="24" key="56" pan="0" vol="193" pos="2448"/>
          <note len="24" key="63" pan="0" vol="193" pos="2520"/>
          <note len="24" key="59" pan="0" vol="193" pos="2520"/>
          <note len="24" key="56" pan="0" vol="193" pos="2520"/>
          <note len="24" key="63" pan="0" vol="193" pos="2592"/>
          <note len="24" key="59" pan="0" vol="193" pos="2592"/>
          <note len="24" key="56" pan="0" vol="193" pos="2592"/>
          <note len="24" key="63" pan="0" vol="193" pos="2616"/>
          <note len="24" key="59" pan="0" vol="193" pos="2616"/>
          <note len="24" key="56" pan="0" vol="193" pos="2616"/>
          <note len="24" key="63" pan="0" vol="193" pos="2664"/>
          <note len="24" key="59" pan="0" vol="193" pos="2664"/>
          <note len="24" key="56" pan="0" vol="193" pos="2664"/>
          <note len="24" key="61" pan="0" vol="193" pos="2688"/>
          <note len="24" key="58" pan="0" vol="193" pos="2688"/>
          <note len="24" key="61" pan="0" vol="193" pos="2760"/>
          <note len="24" key="58" pan="0" vol="193" pos="2760"/>
          <note len="24" key="61" pan="0" vol="193" pos="2832"/>
          <note len="24" key="58" pan="0" vol="193" pos="2832"/>
          <note len="24" key="61" pan="0" vol="193" pos="2904"/>
          <note len="24" key="58" pan="0" vol="193" pos="2904"/>
          <note len="24" key="61" pan="0" vol="193" pos="2976"/>
          <note len="24" key="58" pan="0" vol="193" pos="2976"/>
          <note len="24" key="61" pan="0" vol="193" pos="3000"/>
          <note len="24" key="58" pan="0" vol="193" pos="3000"/>
          <note len="24" key="61" pan="0" vol="193" pos="3048"/>
          <note len="24" key="58" pan="0" vol="193" pos="3048"/>
          <note len="24" key="61" pan="0" vol="193" pos="3072"/>
          <note len="24" key="57" pan="0" vol="193" pos="3072"/>
          <note len="24" key="61" pan="0" vol="193" pos="3144"/>
          <note len="24" key="57" pan="0" vol="193" pos="3144"/>
          <note len="24" key="61" pan="0" vol="193" pos="3216"/>
          <note len="24" key="57" pan="0" vol="193" pos="3216"/>
        </pattern>
        <pattern muted="0" name="" steps="16" type="1" pos="8064">
          <note len="192" key="68" pan="0" vol="197" pos="0"/>
          <note len="192" key="64" pan="0" vol="197" pos="0"/>
          <note len="192" key="61" pan="0" vol="197" pos="0"/>
          <note len="192" key="68" pan="0" vol="197" pos="192"/>
          <note len="192" key="63" pan="0" vol="197" pos="192"/>
          <note len="192" key="59" pan="0" vol="197" pos="192"/>
          <note len="192" key="69" pan="0" vol="197" pos="384"/>
          <note len="192" key="64" pan="0" vol="197" pos="384"/>
          <note len="192" key="61" pan="0" vol="197" pos="384"/>
          <note len="192" key="71" pan="0" vol="197" pos="576"/>
          <note len="192" key="66" pan="0" vol="197" pos="576"/>
          <note len="192" key="63" pan="0" vol="197" pos="576"/>
          <note len="192" key="73" pan="0" vol="197" pos="768"/>
          <note len="192" key="69" pan="0" vol="197" pos="768"/>
          <note len="192" key="66" pan="0" vol="197" pos="768"/>
          <note len="192" key="75" pan="0" vol="197" pos="960"/>
          <note len="192" key="71" pan="0" vol="197" pos="960"/>
          <note len="192" key="68" pan="0" vol="197" pos="960"/>
          <note len="192" key="76" pan="0" vol="197" pos="1152"/>
          <note len="192" key="73" pan="0" vol="197" pos="1152"/>
          <note len="192" key="69" pan="0" vol="197" pos="1152"/>
          <note len="192" key="75" pan="0" vol="197" pos="1344"/>
          <note len="192" key="71" pan="0" vol="197" pos="1344"/>
          <note len="192" key="66" pan="0" vol="197" pos="1344"/>
          <note len="192" key="76" pan="0" vol="197" pos="1536"/>
          <note len="192" key="73" pan="0" vol="197" pos="1536"/>
          <note len="192" key="68" pan="0" vol="197" pos="1536"/>
          <note len="192" key="75" pan="0" vol="197" pos="1728"/>
          <note len="192" key="71" pan="0" vol="197" pos="1728"/>
          <note len="192" key="66" pan="0" vol="197" pos="1728"/>
          <note len="384" key="73" pan="0" vol="197" pos="1920"/>
          <note len="384" key="70" pan="0" vol="197" pos="1920"/>
          <note len="384" key="66" pan="0" vol="197" pos="1920"/>
          <note len="192" key="74" pan="0" vol="197" pos="2304"/>
          <note len="192" key="69" pan="0" vol="197" pos="2304"/>
          <note len="192" key="66" pan="0" vol="197" pos="2304"/>
          <note len="192" key="73" pan="0" vol="197" pos="2496"/>
          <note len="192" key="69" pan="0" vol="197" pos="2496"/>
          <note len="192" key="64" pan="0" vol="197" pos="2496"/>
          <note len="384" key="75" pan="0" vol="197" pos="2688"/>
          <note len="384" key="71" pan="0" vol="197" pos="2688"/>
          <note len="384" key="66" pan="0" vol="197" pos="2688"/>
        </pattern>
        <pattern muted="0" name="" steps="16" type="1" pos="15744">
          <note len="192" key="68" pan="0" vol="197" pos="0"/>
          <note len="192" key="64" pan="0" vol="197" pos="0"/>
          <note len="192" key="61" pan="0" vol="197" pos="0"/>
          <note len="192" key="68" pan="0" vol="197" pos="192"/>
          <note len="192" key="63" pan="0" vol="197" pos="192"/>
          <note len="192" key="59" pan="0" vol="197" pos="192"/>
          <note len="192" key="69" pan="0" vol="197" pos="384"/>
          <note len="192" key="64" pan="0" vol="197" pos="384"/>
          <note len="192" key="61" pan="0" vol="197" pos="384"/>
          <note len="192" key="71" pan="0" vol="197" pos="576"/>
          <note len="192" key="66" pan="0" vol="197" pos="576"/>
          <note len="192" key="63" pan="0" vol="197" pos="576"/>
          <note len="192" key="73" pan="0" vol="197" pos="768"/>
          <note len="192" key="69" pan="0" vol="197" pos="768"/>
          <note len="192" key="66" pan="0" vol="197" pos="768"/>
          <note len="192" key="75" pan="0" vol="197" pos="960"/>
          <note len="192" key="71" pan="0" vol="197" pos="960"/>
          <note len="192" key="68" pan="0" vol="197" pos="960"/>
          <note len="192" key="76" pan="0" vol="197" pos="1152"/>
          <note len="192" key="73" pan="0" vol="197" pos="1152"/>
          <note len="192" key="69" pan="0" vol="197" pos="1152"/>
          <note len="96" key="75" pan="0" vol="197" pos="1344"/>
          <note len="96" key="71" pan="0" vol="197" pos="1344"/>
          <note len="96" key="66" pan="0" vol="197" pos="1344"/>
          <note len="96" key="75" pan="0" vol="197" pos="1440"/>
          <note len="96" key="72" pan="0" vol="197" pos="1440"/>
          <note len="96" key="66" pan="0" vol="197" pos="1440"/>
          <note len="192" key="76" pan="0" vol="197" pos="1536"/>
          <note len="192" key="73" pan="0" vol="197" pos="1536"/>
          <note len="192" key="68" pan="0" vol="197" pos="1536"/>
          <note len="192" key="75" pan="0" vol="197" pos="1728"/>
          <note len="192" key="71" pan="0" vol="197" pos="1728"/>
          <note len="192" key="66" pan="0" vol="197" pos="1728"/>
          <note len="384" key="73" pan="0" vol="197" pos="1920"/>
          <note len="384" key="70" pan="0" vol="197" pos="1920"/>
          <note len="384" key="66" pan="0" vol="197" pos="1920"/>
          <note len="192" key="74" pan="0" vol="197" pos="2304"/>
          <note len="192" key="69" pan="0" vol="197" pos="2304"/>
          <note len="192" key="66" pan="0" vol="197" pos="2304"/>
          <note len="192" key="73" pan="0" vol="197" pos="2496"/>
          <note len="192" key="69" pan="0" vol="197" pos="2496"/>
          <note len="192" key="64" pan="0" vol="197" pos="2496"/>
          <note len="216" key="75" pan="0" vol="197" pos="2688"/>
          <note len="216" key="71" pan="0" vol="197" pos="2688"/>
          <note len="216" key="66" pan="0" vol="197" pos="2688"/>
          <note len="24" key="78" pan="0" vol="197" pos="2976"/>
          <note len="24" key="75" pan="0" vol="197" pos="2976"/>
          <note len="24" key="71" pan="0" vol="197" pos="2976"/>
        </pattern>
        <pattern muted="0" name="" steps="16" type="1" pos="11136">
          <note len="384" key="73" pan="0" vol="197" pos="0"/>
          <note len="384" key="68" pan="0" vol="197" pos="0"/>
          <note len="384" key="64" pan="0" vol="197" pos="0"/>
          <note len="384" key="74" pan="0" vol="197" pos="384"/>
          <note len="384" key="69" pan="0" vol="197" pos="384"/>
          <note len="384" key="66" pan="0" vol="197" pos="384"/>
        </pattern>
        <pattern muted="0" name="" steps="16" type="1" pos="11904">
          <note len="384" key="73" pan="0" vol="197" pos="0"/>
          <note len="384" key="68" pan="0" vol="197" pos="0"/>
          <note len="384" key="64" pan="0" vol="197" pos="0"/>
          <note len="384" key="74" pan="0" vol="197" pos="384"/>
          <note len="384" key="69" pan="0" vol="197" pos="384"/>
          <note len="384" key="66" pan="0" vol="197" pos="384"/>
        </pattern>
        <pattern muted="0" name="" steps="16" type="1" pos="18816">
          <note len="384" key="64" pan="0" vol="193" pos="0"/>
          <note len="384" key="61" pan="0" vol="193" pos="0"/>
          <note len="384" key="52" pan="0" vol="193" pos="0"/>
          <note len="384" key="63" pan="0" vol="193" pos="384"/>
          <note len="384" key="59" pan="0" vol="193" pos="384"/>
          <note len="384" key="56" pan="0" vol="193" pos="384"/>
          <note len="384" key="61" pan="0" vol="193" pos="768"/>
          <note len="384" key="56" pan="0" vol="193" pos="768"/>
          <note len="384" key="49" pan="0" vol="193" pos="768"/>
          <note len="384" key="59" pan="0" vol="193" pos="1152"/>
          <note len="384" key="57" pan="0" vol="193" pos="1152"/>
          <note len="384" key="49" pan="0" vol="193" pos="1152"/>
        </pattern>
        <pattern muted="0" name="" steps="16" type="1" pos="20352">
          <note len="384" key="64" pan="0" vol="193" pos="0"/>
          <note len="384" key="61" pan="0" vol="193" pos="0"/>
          <note len="384" key="56" pan="0" vol="193" pos="0"/>
          <note len="384" key="66" pan="0" vol="193" pos="384"/>
          <note len="384" key="62" pan="0" vol="193" pos="384"/>
          <note len="384" key="57" pan="0" vol="193" pos="384"/>
          <note len="384" key="66" pan="0" vol="193" pos="768"/>
          <note len="384" key="63" pan="0" vol="193" pos="768"/>
          <note len="384" key="58" pan="0" vol="193" pos="768"/>
          <note len="384" key="68" pan="0" vol="193" pos="1152"/>
          <note len="384" key="63" pan="0" vol="193" pos="1152"/>
          <note len="384" key="60" pan="0" vol="193" pos="1152"/>
        </pattern>
        <pattern muted="0" name="" steps="16" type="1" pos="23424">
          <note len="192" key="68" pan="0" vol="200" pos="0"/>
          <note len="192" key="59" pan="0" vol="200" pos="0"/>
          <note len="192" key="69" pan="0" vol="200" pos="192"/>
          <note len="192" key="61" pan="0" vol="200" pos="192"/>
          <note len="192" key="71" pan="0" vol="200" pos="384"/>
          <note len="192" key="64" pan="0" vol="200" pos="384"/>
          <note len="192" key="76" pan="0" vol="200" pos="576"/>
          <note len="192" key="68" pan="0" vol="200" pos="576"/>
          <note len="384" key="73" pan="0" vol="200" pos="768"/>
          <note len="384" key="66" pan="0" vol="200" pos="768"/>
          <note len="384" key="73" pan="0" vol="200" pos="1152"/>
          <note len="384" key="64" pan="0" vol="200" pos="1152"/>
          <note len="192" key="80" pan="0" vol="200" pos="1536"/>
          <note len="192" key="76" pan="0" vol="200" pos="1536"/>
          <note len="192" key="78" pan="0" vol="200" pos="1728"/>
          <note len="192" key="75" pan="0" vol="200" pos="1728"/>
          <note len="384" key="80" pan="0" vol="200" pos="1920"/>
          <note len="384" key="76" pan="0" vol="200" pos="1920"/>
          <note len="384" key="73" pan="0" vol="200" pos="1920"/>
          <note len="192" key="80" pan="0" vol="200" pos="2304"/>
          <note len="192" key="73" pan="0" vol="200" pos="2304"/>
          <note len="192" key="71" pan="0" vol="200" pos="2304"/>
          <note len="192" key="78" pan="0" vol="200" pos="2496"/>
          <note len="192" key="75" pan="0" vol="200" pos="2496"/>
          <note len="192" key="71" pan="0" vol="200" pos="2496"/>
          <note len="384" key="73" pan="0" vol="200" pos="2688"/>
          <note len="384" key="70" pan="0" vol="200" pos="2688"/>
          <note len="384" key="68" pan="0" vol="200" pos="2688"/>
          <note len="192" key="80" pan="0" vol="200" pos="3072"/>
          <note len="192" key="71" pan="0" vol="200" pos="3072"/>
          <note len="192" key="81" pan="0" vol="200" pos="3264"/>
          <note len="192" key="73" pan="0" vol="200" pos="3264"/>
          <note len="192" key="83" pan="0" vol="200" pos="3456"/>
          <note len="192" key="76" pan="0" vol="200" pos="3456"/>
          <note len="192" key="88" pan="0" vol="200" pos="3648"/>
          <note len="192" key="80" pan="0" vol="200" pos="3648"/>
          <note len="384" key="85" pan="0" vol="200" pos="3840"/>
          <note len="384" key="78" pan="0" vol="200" pos="3840"/>
          <note len="384" key="85" pan="0" vol="200" pos="4224"/>
          <note len="384" key="76" pan="0" vol="200" pos="4224"/>
          <note len="384" key="80" pan="0" vol="200" pos="4608"/>
          <note len="384" key="73" pan="0" vol="200" pos="4608"/>
          <note len="48" key="61" pan="0" vol="200" pos="4608"/>
          <note len="48" key="57" pan="0" vol="200" pos="4656"/>
          <note len="48" key="59" pan="0" vol="200" pos="4704"/>
          <note len="48" key="61" pan="0" vol="200" pos="4752"/>
          <note len="48" key="63" pan="0" vol="200" pos="4800"/>
          <note len="48" key="64" pan="0" vol="200" pos="4848"/>
          <note len="48" key="63" pan="0" vol="200" pos="4896"/>
          <note len="48" key="59" pan="0" vol="200" pos="4944"/>
          <note len="384" key="80" pan="0" vol="200" pos="4992"/>
          <note len="384" key="73" pan="0" vol="200" pos="4992"/>
          <note len="48" key="61" pan="0" vol="200" pos="4992"/>
          <note len="48" key="59" pan="0" vol="200" pos="5040"/>
          <note len="48" key="61" pan="0" vol="200" pos="5088"/>
          <note len="48" key="63" pan="0" vol="200" pos="5136"/>
          <note len="192" key="68" pan="0" vol="200" pos="5184"/>
        </pattern>
        <pattern muted="0" name="" steps="16" type="1" pos="21888">
          <note len="192" key="68" pan="0" vol="200" pos="0"/>
          <note len="192" key="64" pan="0" vol="200" pos="0"/>
          <note len="192" key="66" pan="0" vol="200" pos="192"/>
          <note len="192" key="63" pan="0" vol="200" pos="192"/>
          <note len="384" key="68" pan="0" vol="200" pos="384"/>
          <note len="384" key="64" pan="0" vol="200" pos="384"/>
          <note len="384" key="61" pan="0" vol="200" pos="384"/>
          <note len="192" key="68" pan="0" vol="200" pos="768"/>
          <note len="192" key="61" pan="0" vol="200" pos="768"/>
          <note len="192" key="59" pan="0" vol="200" pos="768"/>
          <note len="192" key="66" pan="0" vol="200" pos="960"/>
          <note len="192" key="63" pan="0" vol="200" pos="960"/>
          <note len="192" key="59" pan="0" vol="200" pos="960"/>
          <note len="384" key="61" pan="0" vol="200" pos="1152"/>
          <note len="192" key="59" pan="0" vol="200" pos="1152"/>
          <note len="384" key="56" pan="0" vol="200" pos="1152"/>
        </pattern>
        <pattern muted="0" name="" steps="16" type="1" pos="3264">
          <note len="192" key="69" pan="0" vol="193" pos="0"/>
          <note len="192" key="64" pan="0" vol="193" pos="0"/>
        </pattern>
        <pattern muted="0" name="" steps="16" type="1" pos="3456">
          <note len="192" key="68" pan="0" vol="193" pos="0"/>
          <note len="192" key="64" pan="0" vol="193" pos="0"/>
          <note len="192" key="61" pan="0" vol="193" pos="0"/>
          <note len="192" key="68" pan="0" vol="193" pos="192"/>
          <note len="192" key="63" pan="0" vol="193" pos="192"/>
          <note len="192" key="59" pan="0" vol="193" pos="192"/>
          <note len="192" key="69" pan="0" vol="193" pos="384"/>
          <note len="192" key="64" pan="0" vol="193" pos="384"/>
          <note len="192" key="61" pan="0" vol="193" pos="384"/>
          <note len="192" key="71" pan="0" vol="193" pos="576"/>
          <note len="192" key="66" pan="0" vol="193" pos="576"/>
          <note len="192" key="63" pan="0" vol="193" pos="576"/>
          <note len="192" key="73" pan="0" vol="193" pos="768"/>
          <note len="192" key="69" pan="0" vol="193" pos="768"/>
          <note len="192" key="66" pan="0" vol="193" pos="768"/>
          <note len="192" key="75" pan="0" vol="193" pos="960"/>
          <note len="192" key="71" pan="0" vol="193" pos="960"/>
          <note len="192" key="68" pan="0" vol="193" pos="960"/>
          <note len="192" key="76" pan="0" vol="193" pos="1152"/>
          <note len="192" key="73" pan="0" vol="193" pos="1152"/>
          <note len="192" key="69" pan="0" vol="193" pos="1152"/>
          <note len="96" key="75" pan="0" vol="193" pos="1344"/>
          <note len="96" key="71" pan="0" vol="193" pos="1344"/>
          <note len="96" key="66" pan="0" vol="193" pos="1344"/>
          <note len="48" key="75" pan="0" vol="193" pos="1440"/>
          <note len="48" key="71" pan="0" vol="193" pos="1440"/>
          <note len="48" key="68" pan="0" vol="193" pos="1440"/>
          <note len="48" key="75" pan="0" vol="193" pos="1488"/>
          <note len="48" key="71" pan="0" vol="193" pos="1488"/>
          <note len="48" key="66" pan="0" vol="193" pos="1488"/>
        </pattern>
        <pattern muted="0" name="" steps="16" type="0" pos="4992"/>
        <pattern muted="0" name="" steps="16" type="1" pos="28800">
          <note len="192" key="56" pan="0" vol="200" pos="0"/>
          <note len="192" key="52" pan="0" vol="200" pos="0"/>
          <note len="192" key="57" pan="0" vol="200" pos="192"/>
          <note len="192" key="54" pan="0" vol="200" pos="192"/>
          <note len="192" key="59" pan="0" vol="200" pos="384"/>
          <note len="192" key="56" pan="0" vol="200" pos="384"/>
          <note len="192" key="54" pan="0" vol="200" pos="576"/>
          <note len="192" key="49" pan="0" vol="200" pos="576"/>
          <note len="192" key="56" pan="0" vol="200" pos="768"/>
          <note len="192" key="52" pan="0" vol="200" pos="768"/>
          <note len="192" key="57" pan="0" vol="200" pos="960"/>
          <note len="192" key="54" pan="0" vol="200" pos="960"/>
          <note len="192" key="59" pan="0" vol="200" pos="1152"/>
          <note len="192" key="56" pan="0" vol="200" pos="1152"/>
          <note len="192" key="54" pan="0" vol="200" pos="1344"/>
          <note len="192" key="51" pan="0" vol="200" pos="1344"/>
          <note len="192" key="54" pan="0" vol="200" pos="1536"/>
          <note len="192" key="49" pan="0" vol="200" pos="1536"/>
          <note len="192" key="61" pan="0" vol="200" pos="1728"/>
          <note len="192" key="56" pan="0" vol="200" pos="1728"/>
          <note len="192" key="59" pan="0" vol="200" pos="1920"/>
          <note len="192" key="54" pan="0" vol="200" pos="1920"/>
          <note len="192" key="57" pan="0" vol="200" pos="2112"/>
          <note len="192" key="52" pan="0" vol="200" pos="2112"/>
          <note len="384" key="56" pan="0" vol="200" pos="2304"/>
          <note len="384" key="51" pan="0" vol="200" pos="2304"/>
          <note len="384" key="56" pan="0" vol="200" pos="2688"/>
          <note len="384" key="47" pan="0" vol="200" pos="2688"/>
          <note len="192" key="56" pan="0" vol="200" pos="3072"/>
          <note len="192" key="52" pan="0" vol="200" pos="3072"/>
          <note len="192" key="57" pan="0" vol="200" pos="3264"/>
          <note len="192" key="54" pan="0" vol="200" pos="3264"/>
          <note len="192" key="59" pan="0" vol="200" pos="3456"/>
          <note len="192" key="56" pan="0" vol="200" pos="3456"/>
          <note len="192" key="54" pan="0" vol="200" pos="3648"/>
          <note len="192" key="49" pan="0" vol="200" pos="3648"/>
          <note len="192" key="56" pan="0" vol="200" pos="3840"/>
          <note len="192" key="52" pan="0" vol="200" pos="3840"/>
          <note len="192" key="57" pan="0" vol="200" pos="4032"/>
          <note len="192" key="54" pan="0" vol="200" pos="4032"/>
          <note len="192" key="59" pan="0" vol="200" pos="4224"/>
          <note len="192" key="56" pan="0" vol="200" pos="4224"/>
          <note len="192" key="54" pan="0" vol="200" pos="4416"/>
          <note len="192" key="51" pan="0" vol="200" pos="4416"/>
          <note len="192" key="54" pan="0" vol="200" pos="4608"/>
          <note len="192" key="49" pan="0" vol="200" pos="4608"/>
          <note len="192" key="61" pan="0" vol="200" pos="4800"/>
          <note len="192" key="56" pan="0" vol="200" pos="4800"/>
          <note len="192" key="59" pan="0" vol="200" pos="4992"/>
          <note len="192" key="54" pan="0" vol="200" pos="4992"/>
          <note len="192" key="57" pan="0" vol="200" pos="5184"/>
          <note len="192" key="52" pan="0" vol="200" pos="5184"/>
          <note len="384" key="55" pan="0" vol="200" pos="5376"/>
          <note len="384" key="50" pan="0" vol="200" pos="5376"/>
          <note len="384" key="56" pan="0" vol="200" pos="5760"/>
          <note len="384" key="47" pan="0" vol="200" pos="5760"/>
        </pattern>
        <pattern muted="0" name="" steps="16" type="1" pos="14208">
          <note len="24" key="61" pan="0" vol="197" pos="0"/>
          <note len="24" key="57" pan="0" vol="197" pos="0"/>
          <note len="24" key="61" pan="0" vol="197" pos="48"/>
          <note len="24" key="57" pan="0" vol="197" pos="48"/>
          <note len="24" key="61" pan="0" vol="197" pos="96"/>
          <note len="24" key="57" pan="0" vol="197" pos="96"/>
          <note len="24" key="61" pan="0" vol="197" pos="144"/>
          <note len="24" key="57" pan="0" vol="197" pos="144"/>
          <note len="24" key="61" pan="0" vol="197" pos="192"/>
          <note len="24" key="57" pan="0" vol="197" pos="192"/>
          <note len="24" key="61" pan="0" vol="197" pos="240"/>
          <note len="24" key="57" pan="0" vol="197" pos="240"/>
          <note len="24" key="61" pan="0" vol="197" pos="288"/>
          <note len="24" key="57" pan="0" vol="197" pos="288"/>
          <note len="24" key="61" pan="0" vol="197" pos="336"/>
          <note len="24" key="57" pan="0" vol="197" pos="336"/>
          <note len="24" key="61" pan="0" vol="197" pos="384"/>
          <note len="24" key="56" pan="0" vol="197" pos="384"/>
          <note len="24" key="52" pan="0" vol="197" pos="384"/>
          <note len="24" key="61" pan="0" vol="197" pos="432"/>
          <note len="24" key="56" pan="0" vol="197" pos="432"/>
          <note len="24" key="52" pan="0" vol="197" pos="432"/>
          <note len="24" key="61" pan="0" vol="197" pos="480"/>
          <note len="24" key="56" pan="0" vol="197" pos="480"/>
          <note len="24" key="52" pan="0" vol="197" pos="480"/>
          <note len="24" key="61" pan="0" vol="197" pos="528"/>
          <note len="24" key="56" pan="0" vol="197" pos="528"/>
          <note len="24" key="52" pan="0" vol="197" pos="528"/>
          <note len="24" key="61" pan="0" vol="197" pos="576"/>
          <note len="24" key="56" pan="0" vol="197" pos="576"/>
          <note len="24" key="51" pan="0" vol="197" pos="576"/>
          <note len="24" key="61" pan="0" vol="197" pos="624"/>
          <note len="24" key="56" pan="0" vol="197" pos="624"/>
          <note len="24" key="51" pan="0" vol="197" pos="624"/>
          <note len="24" key="61" pan="0" vol="197" pos="672"/>
          <note len="24" key="56" pan="0" vol="197" pos="672"/>
          <note len="24" key="51" pan="0" vol="197" pos="672"/>
          <note len="24" key="61" pan="0" vol="197" pos="720"/>
          <note len="24" key="56" pan="0" vol="197" pos="720"/>
          <note len="24" key="51" pan="0" vol="197" pos="720"/>
        </pattern>
        <pattern muted="0" name="" steps="16" type="1" pos="34944">
          <note len="192" key="68" pan="0" vol="193" pos="0"/>
          <note len="192" key="64" pan="0" vol="193" pos="0"/>
          <note len="192" key="61" pan="0" vol="193" pos="0"/>
          <note len="192" key="68" pan="0" vol="193" pos="192"/>
          <note len="192" key="63" pan="0" vol="193" pos="192"/>
          <note len="192" key="59" pan="0" vol="193" pos="192"/>
          <note len="192" key="69" pan="0" vol="193" pos="384"/>
          <note len="192" key="64" pan="0" vol="193" pos="384"/>
          <note len="192" key="61" pan="0" vol="193" pos="384"/>
          <note len="192" key="71" pan="0" vol="193" pos="576"/>
          <note len="192" key="66" pan="0" vol="193" pos="576"/>
          <note len="192" key="63" pan="0" vol="193" pos="576"/>
          <note len="192" key="73" pan="0" vol="193" pos="768"/>
          <note len="192" key="69" pan="0" vol="193" pos="768"/>
          <note len="192" key="66" pan="0" vol="193" pos="768"/>
          <note len="192" key="75" pan="0" vol="193" pos="960"/>
          <note len="192" key="71" pan="0" vol="193" pos="960"/>
          <note len="192" key="68" pan="0" vol="193" pos="960"/>
          <note len="192" key="76" pan="0" vol="193" pos="1152"/>
          <note len="192" key="73" pan="0" vol="193" pos="1152"/>
          <note len="192" key="69" pan="0" vol="193" pos="1152"/>
          <note len="96" key="75" pan="0" vol="193" pos="1344"/>
          <note len="96" key="71" pan="0" vol="193" pos="1344"/>
          <note len="96" key="66" pan="0" vol="193" pos="1344"/>
          <note len="48" key="75" pan="0" vol="193" pos="1440"/>
          <note len="48" key="71" pan="0" vol="193" pos="1440"/>
          <note len="48" key="68" pan="0" vol="193" pos="1440"/>
          <note len="48" key="75" pan="0" vol="193" pos="1488"/>
          <note len="48" key="71" pan="0" vol="193" pos="1488"/>
          <note len="48" key="66" pan="0" vol="193" pos="1488"/>
        </pattern>
        <pattern muted="0" name="" steps="16" type="1" pos="39552">
          <note len="192" key="68" pan="0" vol="197" pos="0"/>
          <note len="192" key="64" pan="0" vol="197" pos="0"/>
          <note len="192" key="61" pan="0" vol="197" pos="0"/>
          <note len="192" key="68" pan="0" vol="197" pos="192"/>
          <note len="192" key="63" pan="0" vol="197" pos="192"/>
          <note len="192" key="59" pan="0" vol="197" pos="192"/>
          <note len="192" key="69" pan="0" vol="197" pos="384"/>
          <note len="192" key="64" pan="0" vol="197" pos="384"/>
          <note len="192" key="61" pan="0" vol="197" pos="384"/>
          <note len="192" key="71" pan="0" vol="197" pos="576"/>
          <note len="192" key="66" pan="0" vol="197" pos="576"/>
          <note len="192" key="63" pan="0" vol="197" pos="576"/>
          <note len="192" key="73" pan="0" vol="197" pos="768"/>
          <note len="192" key="69" pan="0" vol="197" pos="768"/>
          <note len="192" key="66" pan="0" vol="197" pos="768"/>
          <note len="192" key="75" pan="0" vol="197" pos="960"/>
          <note len="192" key="71" pan="0" vol="197" pos="960"/>
          <note len="192" key="68" pan="0" vol="197" pos="960"/>
          <note len="192" key="76" pan="0" vol="197" pos="1152"/>
          <note len="192" key="73" pan="0" vol="197" pos="1152"/>
          <note len="192" key="69" pan="0" vol="197" pos="1152"/>
          <note len="96" key="75" pan="0" vol="197" pos="1344"/>
          <note len="96" key="71" pan="0" vol="197" pos="1344"/>
          <note len="96" key="66" pan="0" vol="197" pos="1344"/>
          <note len="96" key="75" pan="0" vol="197" pos="1440"/>
          <note len="96" key="72" pan="0" vol="197" pos="1440"/>
          <note len="96" key="66" pan="0" vol="197" pos="1440"/>
          <note len="192" key="76" pan="0" vol="197" pos="1536"/>
          <note len="192" key="73" pan="0" vol="197" pos="1536"/>
          <note len="192" key="68" pan="0" vol="197" pos="1536"/>
          <note len="192" key="75" pan="0" vol="197" pos="1728"/>
          <note len="192" key="71" pan="0" vol="197" pos="1728"/>
          <note len="192" key="66" pan="0" vol="197" pos="1728"/>
          <note len="384" key="73" pan="0" vol="197" pos="1920"/>
          <note len="384" key="70" pan="0" vol="197" pos="1920"/>
          <note len="384" key="66" pan="0" vol="197" pos="1920"/>
          <note len="192" key="74" pan="0" vol="197" pos="2304"/>
          <note len="192" key="69" pan="0" vol="197" pos="2304"/>
          <note len="192" key="66" pan="0" vol="197" pos="2304"/>
          <note len="192" key="73" pan="0" vol="197" pos="2496"/>
          <note len="192" key="69" pan="0" vol="197" pos="2496"/>
          <note len="192" key="64" pan="0" vol="197" pos="2496"/>
          <note len="384" key="75" pan="0" vol="197" pos="2688"/>
          <note len="384" key="71" pan="0" vol="197" pos="2688"/>
          <note len="384" key="66" pan="0" vol="197" pos="2688"/>
        </pattern>
        <pattern muted="0" name="" steps="16" type="1" pos="44160">
          <note len="192" key="70" pan="0" vol="197" pos="0"/>
          <note len="192" key="66" pan="0" vol="197" pos="0"/>
          <note len="192" key="63" pan="0" vol="197" pos="0"/>
          <note len="192" key="70" pan="0" vol="197" pos="192"/>
          <note len="192" key="65" pan="0" vol="197" pos="192"/>
          <note len="192" key="61" pan="0" vol="197" pos="192"/>
          <note len="192" key="71" pan="0" vol="197" pos="384"/>
          <note len="192" key="66" pan="0" vol="197" pos="384"/>
          <note len="192" key="63" pan="0" vol="197" pos="384"/>
          <note len="192" key="73" pan="0" vol="197" pos="576"/>
          <note len="192" key="68" pan="0" vol="197" pos="576"/>
          <note len="192" key="65" pan="0" vol="197" pos="576"/>
          <note len="192" key="75" pan="0" vol="197" pos="768"/>
          <note len="192" key="71" pan="0" vol="197" pos="768"/>
          <note len="192" key="68" pan="0" vol="197" pos="768"/>
          <note len="192" key="77" pan="0" vol="197" pos="960"/>
          <note len="192" key="73" pan="0" vol="197" pos="960"/>
          <note len="192" key="70" pan="0" vol="197" pos="960"/>
          <note len="192" key="78" pan="0" vol="197" pos="1152"/>
          <note len="192" key="75" pan="0" vol="197" pos="1152"/>
          <note len="192" key="71" pan="0" vol="197" pos="1152"/>
          <note len="96" key="77" pan="0" vol="197" pos="1344"/>
          <note len="96" key="73" pan="0" vol="197" pos="1344"/>
          <note len="96" key="68" pan="0" vol="197" pos="1344"/>
          <note len="96" key="77" pan="0" vol="197" pos="1440"/>
          <note len="96" key="74" pan="0" vol="197" pos="1440"/>
          <note len="96" key="68" pan="0" vol="197" pos="1440"/>
          <note len="192" key="78" pan="0" vol="197" pos="1536"/>
          <note len="192" key="75" pan="0" vol="197" pos="1536"/>
          <note len="192" key="70" pan="0" vol="197" pos="1536"/>
          <note len="192" key="77" pan="0" vol="197" pos="1728"/>
          <note len="192" key="73" pan="0" vol="197" pos="1728"/>
          <note len="192" key="68" pan="0" vol="197" pos="1728"/>
          <note len="384" key="75" pan="0" vol="197" pos="1920"/>
          <note len="384" key="72" pan="0" vol="197" pos="1920"/>
          <note len="384" key="68" pan="0" vol="197" pos="1920"/>
          <note len="192" key="76" pan="0" vol="197" pos="2304"/>
          <note len="192" key="71" pan="0" vol="197" pos="2304"/>
          <note len="192" key="68" pan="0" vol="197" pos="2304"/>
          <note len="192" key="75" pan="0" vol="197" pos="2496"/>
          <note len="192" key="71" pan="0" vol="197" pos="2496"/>
          <note len="192" key="66" pan="0" vol="197" pos="2496"/>
          <note len="192" key="77" pan="0" vol="197" pos="2688"/>
          <note len="192" key="73" pan="0" vol="197" pos="2688"/>
          <note len="192" key="68" pan="0" vol="197" pos="2688"/>
          <note len="48" key="73" pan="0" vol="195" pos="2880"/>
          <note len="48" key="71" pan="0" vol="195" pos="2928"/>
          <note len="48" key="70" pan="0" vol="195" pos="2976"/>
          <note len="48" key="68" pan="0" vol="195" pos="3024"/>
        </pattern>
        <pattern muted="0" name="" steps="16" type="1" pos="43776">
          <note len="96" key="64" pan="0" vol="197" pos="96"/>
          <note len="96" key="61" pan="0" vol="197" pos="96"/>
          <note len="96" key="57" pan="0" vol="197" pos="96"/>
          <note len="96" key="66" pan="0" vol="197" pos="192"/>
          <note len="96" key="63" pan="0" vol="197" pos="192"/>
          <note len="96" key="59" pan="0" vol="197" pos="192"/>
          <note len="96" key="68" pan="0" vol="197" pos="288"/>
          <note len="96" key="65" pan="0" vol="197" pos="288"/>
          <note len="96" key="61" pan="0" vol="197" pos="288"/>
        </pattern>
        <pattern muted="0" name="" steps="16" type="1" pos="47232">
          <note len="192" key="58" pan="0" vol="197" pos="0"/>
          <note len="192" key="54" pan="0" vol="197" pos="0"/>
          <note len="192" key="51" pan="0" vol="197" pos="0"/>
          <note len="192" key="58" pan="0" vol="197" pos="192"/>
          <note len="192" key="53" pan="0" vol="197" pos="192"/>
          <note len="192" key="49" pan="0" vol="197" pos="192"/>
          <note len="192" key="59" pan="0" vol="197" pos="384"/>
          <note len="192" key="54" pan="0" vol="197" pos="384"/>
          <note len="192" key="51" pan="0" vol="197" pos="384"/>
          <note len="192" key="61" pan="0" vol="197" pos="576"/>
          <note len="192" key="56" pan="0" vol="197" pos="576"/>
          <note len="192" key="53" pan="0" vol="197" pos="576"/>
          <note len="192" key="63" pan="0" vol="197" pos="768"/>
          <note len="192" key="59" pan="0" vol="197" pos="768"/>
          <note len="192" key="56" pan="0" vol="197" pos="768"/>
          <note len="192" key="65" pan="0" vol="197" pos="960"/>
          <note len="192" key="61" pan="0" vol="197" pos="960"/>
          <note len="192" key="58" pan="0" vol="197" pos="960"/>
          <note len="192" key="66" pan="0" vol="197" pos="1152"/>
          <note len="192" key="63" pan="0" vol="197" pos="1152"/>
          <note len="192" key="59" pan="0" vol="197" pos="1152"/>
          <note len="96" key="65" pan="0" vol="197" pos="1344"/>
          <note len="96" key="61" pan="0" vol="197" pos="1344"/>
          <note len="96" key="56" pan="0" vol="197" pos="1344"/>
          <note len="96" key="65" pan="0" vol="197" pos="1440"/>
          <note len="96" key="62" pan="0" vol="197" pos="1440"/>
          <note len="96" key="56" pan="0" vol="197" pos="1440"/>
          <note len="192" key="66" pan="0" vol="197" pos="1536"/>
          <note len="192" key="63" pan="0" vol="197" pos="1536"/>
          <note len="192" key="58" pan="0" vol="197" pos="1536"/>
          <note len="192" key="65" pan="0" vol="197" pos="1728"/>
          <note len="192" key="61" pan="0" vol="197" pos="1728"/>
          <note len="192" key="56" pan="0" vol="197" pos="1728"/>
          <note len="384" key="63" pan="0" vol="197" pos="1920"/>
          <note len="384" key="60" pan="0" vol="197" pos="1920"/>
          <note len="384" key="56" pan="0" vol="197" pos="1920"/>
          <note len="192" key="64" pan="0" vol="197" pos="2304"/>
          <note len="192" key="59" pan="0" vol="197" pos="2304"/>
          <note len="192" key="56" pan="0" vol="197" pos="2304"/>
          <note len="192" key="63" pan="0" vol="197" pos="2496"/>
          <note len="192" key="59" pan="0" vol="197" pos="2496"/>
          <note len="192" key="54" pan="0" vol="197" pos="2496"/>
          <note len="192" key="65" pan="0" vol="197" pos="2688"/>
          <note len="192" key="61" pan="0" vol="197" pos="2688"/>
          <note len="192" key="56" pan="0" vol="197" pos="2688"/>
          <note len="96" key="65" pan="0" vol="197" pos="2880"/>
          <note len="96" key="61" pan="0" vol="197" pos="2880"/>
          <note len="96" key="56" pan="0" vol="197" pos="2880"/>
          <note len="96" key="65" pan="0" vol="197" pos="2976"/>
          <note len="96" key="61" pan="0" vol="197" pos="2976"/>
          <note len="96" key="58" pan="0" vol="197" pos="2976"/>
        </pattern>
        <pattern muted="0" name="" steps="16" type="1" pos="50304">
          <note len="192" key="63" pan="0" vol="197" pos="0"/>
          <note len="192" key="58" pan="0" vol="197" pos="0"/>
          <note len="192" key="54" pan="0" vol="197" pos="0"/>
          <note len="192" key="61" pan="0" vol="197" pos="192"/>
          <note len="192" key="56" pan="0" vol="197" pos="192"/>
          <note len="192" key="53" pan="0" vol="197" pos="192"/>
          <note len="384" key="58" pan="0" vol="197" pos="384"/>
          <note len="384" key="54" pan="0" vol="197" pos="384"/>
          <note len="384" key="51" pan="0" vol="197" pos="384"/>
        </pattern>
        <pattern muted="0" name="" steps="16" type="1" pos="51072">
          <note len="192" key="66" pan="0" vol="197" pos="0"/>
          <note len="192" key="63" pan="0" vol="197" pos="0"/>
          <note len="192" key="59" pan="0" vol="197" pos="0"/>
          <note len="192" key="65" pan="0" vol="197" pos="192"/>
          <note len="192" key="61" pan="0" vol="197" pos="192"/>
          <note len="192" key="56" pan="0" vol="197" pos="192"/>
          <note len="384" key="66" pan="0" vol="197" pos="384"/>
          <note len="384" key="63" pan="0" vol="197" pos="384"/>
          <note len="384" key="58" pan="0" vol="197" pos="384"/>
        </pattern>
        <pattern muted="0" name="" steps="16" type="1" pos="51840">
          <note len="384" key="64" pan="0" vol="197" pos="0"/>
          <note len="384" key="59" pan="0" vol="197" pos="0"/>
          <note len="384" key="56" pan="0" vol="197" pos="0"/>
          <note len="384" key="63" pan="0" vol="197" pos="384"/>
          <note len="384" key="58" pan="0" vol="197" pos="384"/>
          <note len="384" key="54" pan="0" vol="197" pos="384"/>
        </pattern>
        <pattern muted="0" name="" steps="16" type="1" pos="52608">
          <note len="384" key="63" pan="0" vol="197" pos="0"/>
          <note len="384" key="60" pan="0" vol="197" pos="0"/>
          <note len="384" key="56" pan="0" vol="197" pos="0"/>
        </pattern>
        <pattern muted="0" name="" steps="16" type="1" pos="53376">
          <note len="192" key="63" pan="0" vol="197" pos="0"/>
          <note len="192" key="59" pan="0" vol="197" pos="0"/>
          <note len="192" key="54" pan="0" vol="197" pos="0"/>
          <note len="192" key="61" pan="0" vol="197" pos="192"/>
          <note len="192" key="56" pan="0" vol="197" pos="192"/>
          <note len="192" key="53" pan="0" vol="197" pos="192"/>
          <note len="384" key="58" pan="0" vol="197" pos="384"/>
          <note len="384" key="54" pan="0" vol="197" pos="384"/>
          <note len="384" key="51" pan="0" vol="197" pos="384"/>
        </pattern>
        <pattern muted="0" name="" steps="16" type="1" pos="54144">
          <note len="384" key="65" pan="0" vol="197" pos="0"/>
          <note len="384" key="61" pan="0" vol="197" pos="0"/>
          <note len="384" key="56" pan="0" vol="197" pos="0"/>
          <note len="384" key="63" pan="0" vol="197" pos="384"/>
          <note len="384" key="60" pan="0" vol="197" pos="384"/>
          <note len="384" key="56" pan="0" vol="197" pos="384"/>
        </pattern>
        <pattern muted="0" name="" steps="16" type="1" pos="54912">
          <note len="192" key="63" pan="0" vol="197" pos="0"/>
          <note len="192" key="59" pan="0" vol="197" pos="0"/>
          <note len="192" key="54" pan="0" vol="197" pos="0"/>
          <note len="192" key="65" pan="0" vol="197" pos="192"/>
          <note len="192" key="61" pan="0" vol="197" pos="192"/>
          <note len="192" key="56" pan="0" vol="197" pos="192"/>
          <note len="192" key="66" pan="0" vol="197" pos="384"/>
          <note len="384" key="63" pan="0" vol="197" pos="384"/>
          <note len="384" key="58" pan="0" vol="197" pos="384"/>
          <note len="96" key="70" pan="0" vol="197" pos="576"/>
          <note len="96" key="68" pan="0" vol="197" pos="672"/>
        </pattern>
        <pattern muted="0" name="" steps="16" type="1" pos="55680">
          <note len="192" key="68" pan="0" vol="197" pos="0"/>
          <note len="192" key="63" pan="0" vol="197" pos="0"/>
          <note len="192" key="60" pan="0" vol="197" pos="0"/>
          <note len="168" key="63" pan="0" vol="197" pos="192"/>
          <note len="192" key="60" pan="0" vol="197" pos="192"/>
          <note len="192" key="56" pan="0" vol="197" pos="192"/>
          <note len="24" key="65" pan="0" vol="197" pos="360"/>
          <note len="192" key="66" pan="0" vol="197" pos="384"/>
          <note len="192" key="63" pan="0" vol="197" pos="384"/>
          <note len="192" key="59" pan="0" vol="197" pos="384"/>
          <note len="96" key="68" pan="0" vol="197" pos="576"/>
          <note len="96" key="65" pan="0" vol="197" pos="576"/>
          <note len="96" key="61" pan="0" vol="197" pos="576"/>
          <note len="96" key="73" pan="0" vol="197" pos="672"/>
          <note len="96" key="68" pan="0" vol="197" pos="672"/>
          <note len="96" key="65" pan="0" vol="197" pos="672"/>
        </pattern>
        <pattern muted="0" name="" steps="16" type="1" pos="52992">
          <note len="384" key="63" pan="0" vol="197" pos="0"/>
          <note len="384" key="60" pan="0" vol="197" pos="0"/>
          <note len="384" key="56" pan="0" vol="197" pos="0"/>
        </pattern>
        <pattern muted="0" name="" steps="16" type="1" pos="6528">
          <note len="24" key="61" pan="0" vol="197" pos="0"/>
          <note len="24" key="57" pan="0" vol="197" pos="0"/>
          <note len="24" key="61" pan="0" vol="197" pos="48"/>
          <note len="24" key="57" pan="0" vol="197" pos="48"/>
          <note len="24" key="61" pan="0" vol="197" pos="96"/>
          <note len="24" key="57" pan="0" vol="197" pos="96"/>
          <note len="24" key="61" pan="0" vol="197" pos="144"/>
          <note len="24" key="57" pan="0" vol="197" pos="144"/>
          <note len="24" key="61" pan="0" vol="197" pos="192"/>
          <note len="24" key="57" pan="0" vol="197" pos="192"/>
          <note len="24" key="61" pan="0" vol="197" pos="240"/>
          <note len="24" key="57" pan="0" vol="197" pos="240"/>
          <note len="24" key="61" pan="0" vol="197" pos="288"/>
          <note len="24" key="57" pan="0" vol="197" pos="288"/>
          <note len="24" key="61" pan="0" vol="197" pos="336"/>
          <note len="24" key="57" pan="0" vol="197" pos="336"/>
          <note len="24" key="61" pan="0" vol="197" pos="384"/>
          <note len="24" key="56" pan="0" vol="197" pos="384"/>
          <note len="24" key="52" pan="0" vol="197" pos="384"/>
          <note len="24" key="61" pan="0" vol="197" pos="432"/>
          <note len="24" key="56" pan="0" vol="197" pos="432"/>
          <note len="24" key="52" pan="0" vol="197" pos="432"/>
          <note len="24" key="61" pan="0" vol="197" pos="480"/>
          <note len="24" key="56" pan="0" vol="197" pos="480"/>
          <note len="24" key="52" pan="0" vol="197" pos="480"/>
          <note len="24" key="61" pan="0" vol="197" pos="528"/>
          <note len="24" key="56" pan="0" vol="197" pos="528"/>
          <note len="24" key="52" pan="0" vol="197" pos="528"/>
          <note len="24" key="61" pan="0" vol="197" pos="576"/>
          <note len="24" key="56" pan="0" vol="197" pos="576"/>
          <note len="24" key="51" pan="0" vol="197" pos="576"/>
          <note len="24" key="61" pan="0" vol="197" pos="624"/>
          <note len="24" key="56" pan="0" vol="197" pos="624"/>
          <note len="24" key="51" pan="0" vol="197" pos="624"/>
          <note len="24" key="61" pan="0" vol="197" pos="672"/>
          <note len="24" key="56" pan="0" vol="197" pos="672"/>
          <note len="24" key="51" pan="0" vol="197" pos="672"/>
          <note len="24" key="61" pan="0" vol="197" pos="720"/>
          <note len="24" key="56" pan="0" vol="197" pos="720"/>
          <note len="24" key="51" pan="0" vol="197" pos="720"/>
        </pattern>
        <pattern muted="0" name="" steps="16" type="1" pos="7296">
          <note len="384" key="61" pan="0" vol="144" pos="0"/>
          <note len="384" key="54" pan="0" vol="144" pos="0"/>
          <note len="192" key="58" pan="0" vol="144" pos="384"/>
          <note len="192" key="51" pan="0" vol="144" pos="384"/>
          <note len="24" key="56" pan="0" vol="144" pos="576"/>
          <note len="24" key="44" pan="0" vol="144" pos="576"/>
          <note len="24" key="60" pan="0" vol="144" pos="600"/>
          <note len="24" key="48" pan="0" vol="144" pos="600"/>
          <note len="24" key="63" pan="0" vol="144" pos="624"/>
          <note len="24" key="51" pan="0" vol="144" pos="624"/>
          <note len="24" key="66" pan="0" vol="144" pos="648"/>
          <note len="24" key="54" pan="0" vol="144" pos="648"/>
          <note len="24" key="69" pan="0" vol="144" pos="672"/>
          <note len="24" key="57" pan="0" vol="144" pos="672"/>
          <note len="24" key="72" pan="0" vol="144" pos="696"/>
          <note len="24" key="60" pan="0" vol="144" pos="696"/>
          <note len="24" key="75" pan="0" vol="144" pos="720"/>
          <note len="24" key="63" pan="0" vol="144" pos="720"/>
          <note len="24" key="78" pan="0" vol="144" pos="744"/>
          <note len="24" key="66" pan="0" vol="144" pos="744"/>
        </pattern>
        <pattern muted="0" name="" steps="16" type="1" pos="14976">
          <note len="384" key="61" pan="0" vol="144" pos="0"/>
          <note len="384" key="54" pan="0" vol="144" pos="0"/>
          <note len="192" key="58" pan="0" vol="144" pos="384"/>
          <note len="192" key="51" pan="0" vol="144" pos="384"/>
          <note len="24" key="56" pan="0" vol="144" pos="576"/>
          <note len="24" key="44" pan="0" vol="144" pos="576"/>
          <note len="24" key="60" pan="0" vol="144" pos="600"/>
          <note len="24" key="48" pan="0" vol="144" pos="600"/>
          <note len="24" key="63" pan="0" vol="144" pos="624"/>
          <note len="24" key="51" pan="0" vol="144" pos="624"/>
          <note len="24" key="66" pan="0" vol="144" pos="648"/>
          <note len="24" key="54" pan="0" vol="144" pos="648"/>
          <note len="24" key="69" pan="0" vol="144" pos="672"/>
          <note len="24" key="57" pan="0" vol="144" pos="672"/>
          <note len="24" key="72" pan="0" vol="144" pos="696"/>
          <note len="24" key="60" pan="0" vol="144" pos="696"/>
          <note len="24" key="75" pan="0" vol="144" pos="720"/>
          <note len="24" key="63" pan="0" vol="144" pos="720"/>
          <note len="24" key="78" pan="0" vol="144" pos="744"/>
          <note len="24" key="66" pan="0" vol="144" pos="744"/>
        </pattern>
        <pattern muted="0" name="" steps="16" type="1" pos="56448">
          <note len="384" key="58" pan="0" vol="200" pos="0"/>
          <note len="384" key="54" pan="0" vol="200" pos="0"/>
          <note len="384" key="51" pan="0" vol="200" pos="0"/>
          <note len="384" key="56" pan="0" vol="200" pos="384"/>
          <note len="384" key="53" pan="0" vol="200" pos="384"/>
          <note len="384" key="49" pan="0" vol="200" pos="384"/>
          <note len="384" key="56" pan="0" vol="200" pos="768"/>
          <note len="384" key="51" pan="0" vol="200" pos="768"/>
          <note len="384" key="48" pan="0" vol="200" pos="768"/>
          <note len="384" key="56" pan="0" vol="200" pos="1152"/>
          <note len="384" key="52" pan="0" vol="200" pos="1152"/>
          <note len="384" key="47" pan="0" vol="200" pos="1152"/>
        </pattern>
        <pattern muted="0" name="" steps="16" type="1" pos="57984">
          <note len="384" key="58" pan="0" vol="200" pos="0"/>
          <note len="384" key="54" pan="0" vol="200" pos="0"/>
          <note len="384" key="51" pan="0" vol="200" pos="0"/>
          <note len="384" key="56" pan="0" vol="200" pos="384"/>
          <note len="384" key="53" pan="0" vol="200" pos="384"/>
          <note len="384" key="49" pan="0" vol="200" pos="384"/>
          <note len="384" key="56" pan="0" vol="200" pos="768"/>
          <note len="384" key="51" pan="0" vol="200" pos="768"/>
          <note len="384" key="48" pan="0" vol="200" pos="768"/>
          <note len="384" key="56" pan="0" vol="200" pos="1152"/>
          <note len="384" key="52" pan="0" vol="200" pos="1152"/>
          <note len="384" key="47" pan="0" vol="200" pos="1152"/>
        </pattern>
        <pattern muted="0" name="" steps="16" type="1" pos="59520">
          <note len="384" key="58" pan="0" vol="200" pos="0"/>
          <note len="384" key="54" pan="0" vol="200" pos="0"/>
          <note len="384" key="51" pan="0" vol="200" pos="0"/>
          <note len="384" key="56" pan="0" vol="200" pos="384"/>
          <note len="384" key="53" pan="0" vol="200" pos="384"/>
          <note len="384" key="49" pan="0" vol="200" pos="384"/>
          <note len="384" key="56" pan="0" vol="200" pos="768"/>
          <note len="384" key="51" pan="0" vol="200" pos="768"/>
          <note len="384" key="48" pan="0" vol="200" pos="768"/>
          <note len="384" key="56" pan="0" vol="200" pos="1152"/>
          <note len="384" key="52" pan="0" vol="200" pos="1152"/>
          <note len="384" key="47" pan="0" vol="200" pos="1152"/>
        </pattern>
        <pattern muted="0" name="" steps="16" type="1" pos="61056">
          <note len="384" key="58" pan="0" vol="200" pos="0"/>
          <note len="384" key="54" pan="0" vol="200" pos="0"/>
          <note len="384" key="51" pan="0" vol="200" pos="0"/>
          <note len="384" key="56" pan="0" vol="200" pos="384"/>
          <note len="384" key="53" pan="0" vol="200" pos="384"/>
          <note len="384" key="49" pan="0" vol="200" pos="384"/>
          <note len="384" key="56" pan="0" vol="200" pos="768"/>
          <note len="384" key="51" pan="0" vol="200" pos="768"/>
          <note len="384" key="48" pan="0" vol="200" pos="768"/>
          <note len="384" key="56" pan="0" vol="200" pos="1152"/>
          <note len="384" key="52" pan="0" vol="200" pos="1152"/>
          <note len="384" key="47" pan="0" vol="200" pos="1152"/>
        </pattern>
        <pattern muted="0" name="" steps="16" type="1" pos="62592">
          <note len="192" key="70" pan="0" vol="197" pos="0"/>
          <note len="192" key="66" pan="0" vol="197" pos="0"/>
          <note len="192" key="63" pan="0" vol="197" pos="0"/>
          <note len="192" key="70" pan="0" vol="197" pos="192"/>
          <note len="192" key="65" pan="0" vol="197" pos="192"/>
          <note len="192" key="61" pan="0" vol="197" pos="192"/>
          <note len="192" key="71" pan="0" vol="197" pos="384"/>
          <note len="192" key="66" pan="0" vol="197" pos="384"/>
          <note len="192" key="63" pan="0" vol="197" pos="384"/>
          <note len="192" key="73" pan="0" vol="197" pos="576"/>
          <note len="192" key="68" pan="0" vol="197" pos="576"/>
          <note len="192" key="65" pan="0" vol="197" pos="576"/>
          <note len="192" key="75" pan="0" vol="197" pos="768"/>
          <note len="192" key="71" pan="0" vol="197" pos="768"/>
          <note len="192" key="68" pan="0" vol="197" pos="768"/>
          <note len="192" key="77" pan="0" vol="197" pos="960"/>
          <note len="192" key="73" pan="0" vol="197" pos="960"/>
          <note len="192" key="70" pan="0" vol="197" pos="960"/>
          <note len="12" key="78" pan="0" vol="63" pos="1152"/>
          <note len="12" key="75" pan="0" vol="63" pos="1152"/>
          <note len="12" key="70" pan="0" vol="63" pos="1152"/>
          <note len="12" key="75" pan="0" vol="63" pos="1164"/>
          <note len="12" key="71" pan="0" vol="63" pos="1164"/>
          <note len="12" key="66" pan="0" vol="63" pos="1164"/>
          <note len="12" key="77" pan="0" vol="63" pos="1176"/>
          <note len="12" key="73" pan="0" vol="63" pos="1176"/>
          <note len="12" key="68" pan="0" vol="63" pos="1176"/>
          <note len="12" key="78" pan="0" vol="63" pos="1188"/>
          <note len="12" key="75" pan="0" vol="63" pos="1188"/>
          <note len="12" key="70" pan="0" vol="63" pos="1188"/>
          <note len="12" key="80" pan="0" vol="63" pos="1200"/>
          <note len="12" key="77" pan="0" vol="63" pos="1200"/>
          <note len="12" key="71" pan="0" vol="63" pos="1200"/>
          <note len="12" key="77" pan="0" vol="63" pos="1212"/>
          <note len="12" key="73" pan="0" vol="63" pos="1212"/>
          <note len="12" key="68" pan="0" vol="63" pos="1212"/>
          <note len="12" key="78" pan="0" vol="63" pos="1224"/>
          <note len="12" key="75" pan="0" vol="63" pos="1224"/>
          <note len="12" key="70" pan="0" vol="63" pos="1224"/>
          <note len="12" key="80" pan="0" vol="63" pos="1236"/>
          <note len="12" key="77" pan="0" vol="63" pos="1236"/>
          <note len="12" key="71" pan="0" vol="63" pos="1236"/>
          <note len="12" key="82" pan="0" vol="63" pos="1248"/>
          <note len="12" key="78" pan="0" vol="63" pos="1248"/>
          <note len="12" key="73" pan="0" vol="63" pos="1248"/>
          <note len="12" key="78" pan="0" vol="63" pos="1260"/>
          <note len="12" key="75" pan="0" vol="63" pos="1260"/>
          <note len="12" key="70" pan="0" vol="63" pos="1260"/>
          <note len="12" key="80" pan="0" vol="63" pos="1272"/>
          <note len="12" key="77" pan="0" vol="63" pos="1272"/>
          <note len="12" key="71" pan="0" vol="63" pos="1272"/>
          <note len="12" key="82" pan="0" vol="63" pos="1284"/>
          <note len="12" key="78" pan="0" vol="63" pos="1284"/>
          <note len="12" key="73" pan="0" vol="63" pos="1284"/>
          <note len="12" key="83" pan="0" vol="63" pos="1296"/>
          <note len="12" key="80" pan="0" vol="63" pos="1296"/>
          <note len="12" key="75" pan="0" vol="63" pos="1296"/>
          <note len="12" key="80" pan="0" vol="63" pos="1308"/>
          <note len="12" key="77" pan="0" vol="63" pos="1308"/>
          <note len="12" key="71" pan="0" vol="63" pos="1308"/>
          <note len="12" key="82" pan="0" vol="63" pos="1320"/>
          <note len="12" key="78" pan="0" vol="63" pos="1320"/>
          <note len="12" key="73" pan="0" vol="63" pos="1320"/>
          <note len="12" key="83" pan="0" vol="63" pos="1332"/>
          <note len="12" key="80" pan="0" vol="63" pos="1332"/>
          <note len="12" key="75" pan="0" vol="63" pos="1332"/>
          <note len="12" key="85" pan="0" vol="63" pos="1344"/>
          <note len="12" key="82" pan="0" vol="63" pos="1344"/>
          <note len="12" key="77" pan="0" vol="63" pos="1344"/>
          <note len="12" key="83" pan="0" vol="63" pos="1356"/>
          <note len="12" key="80" pan="0" vol="63" pos="1356"/>
          <note len="12" key="75" pan="0" vol="63" pos="1356"/>
          <note len="12" key="82" pan="0" vol="63" pos="1368"/>
          <note len="12" key="78" pan="0" vol="63" pos="1368"/>
          <note len="12" key="73" pan="0" vol="63" pos="1368"/>
          <note len="12" key="80" pan="0" vol="63" pos="1380"/>
          <note len="12" key="77" pan="0" vol="63" pos="1380"/>
          <note len="12" key="71" pan="0" vol="63" pos="1380"/>
          <note len="12" key="78" pan="0" vol="63" pos="1392"/>
          <note len="12" key="75" pan="0" vol="63" pos="1392"/>
          <note len="12" key="70" pan="0" vol="63" pos="1392"/>
          <note len="12" key="80" pan="0" vol="63" pos="1404"/>
          <note len="12" key="77" pan="0" vol="63" pos="1404"/>
          <note len="12" key="71" pan="0" vol="63" pos="1404"/>
          <note len="12" key="83" pan="0" vol="63" pos="1416"/>
          <note len="12" key="80" pan="0" vol="63" pos="1416"/>
          <note len="12" key="75" pan="0" vol="63" pos="1416"/>
          <note len="12" key="82" pan="0" vol="63" pos="1428"/>
          <note len="12" key="78" pan="0" vol="63" pos="1428"/>
          <note len="12" key="73" pan="0" vol="63" pos="1428"/>
          <note len="12" key="80" pan="0" vol="63" pos="1440"/>
          <note len="12" key="77" pan="0" vol="63" pos="1440"/>
          <note len="12" key="71" pan="0" vol="63" pos="1440"/>
          <note len="12" key="78" pan="0" vol="63" pos="1452"/>
          <note len="12" key="75" pan="0" vol="63" pos="1452"/>
          <note len="12" key="70" pan="0" vol="63" pos="1452"/>
          <note len="12" key="77" pan="0" vol="63" pos="1464"/>
          <note len="12" key="73" pan="0" vol="63" pos="1464"/>
          <note len="12" key="68" pan="0" vol="63" pos="1464"/>
          <note len="12" key="78" pan="0" vol="63" pos="1476"/>
          <note len="12" key="75" pan="0" vol="63" pos="1476"/>
          <note len="12" key="70" pan="0" vol="63" pos="1476"/>
          <note len="12" key="82" pan="0" vol="63" pos="1488"/>
          <note len="12" key="78" pan="0" vol="63" pos="1488"/>
          <note len="12" key="73" pan="0" vol="63" pos="1488"/>
          <note len="12" key="80" pan="0" vol="63" pos="1500"/>
          <note len="12" key="77" pan="0" vol="63" pos="1500"/>
          <note len="12" key="71" pan="0" vol="63" pos="1500"/>
          <note len="12" key="78" pan="0" vol="63" pos="1512"/>
          <note len="12" key="75" pan="0" vol="63" pos="1512"/>
          <note len="12" key="70" pan="0" vol="63" pos="1512"/>
          <note len="12" key="77" pan="0" vol="63" pos="1524"/>
          <note len="12" key="73" pan="0" vol="63" pos="1524"/>
          <note len="12" key="68" pan="0" vol="63" pos="1524"/>
          <note len="12" key="75" pan="0" vol="63" pos="1536"/>
          <note len="12" key="71" pan="0" vol="63" pos="1536"/>
          <note len="12" key="66" pan="0" vol="63" pos="1536"/>
          <note len="12" key="77" pan="0" vol="63" pos="1548"/>
          <note len="12" key="73" pan="0" vol="63" pos="1548"/>
          <note len="12" key="68" pan="0" vol="63" pos="1548"/>
          <note len="12" key="80" pan="0" vol="63" pos="1560"/>
          <note len="12" key="77" pan="0" vol="63" pos="1560"/>
          <note len="12" key="71" pan="0" vol="63" pos="1560"/>
          <note len="12" key="78" pan="0" vol="63" pos="1572"/>
          <note len="12" key="75" pan="0" vol="63" pos="1572"/>
          <note len="12" key="70" pan="0" vol="63" pos="1572"/>
          <note len="12" key="77" pan="0" vol="63" pos="1584"/>
          <note len="12" key="73" pan="0" vol="63" pos="1584"/>
          <note len="12" key="68" pan="0" vol="63" pos="1584"/>
          <note len="12" key="75" pan="0" vol="63" pos="1596"/>
          <note len="12" key="71" pan="0" vol="63" pos="1596"/>
          <note len="12" key="66" pan="0" vol="63" pos="1596"/>
          <note len="12" key="73" pan="0" vol="63" pos="1608"/>
          <note len="12" key="70" pan="0" vol="63" pos="1608"/>
          <note len="12" key="65" pan="0" vol="63" pos="1608"/>
          <note len="12" key="75" pan="0" vol="63" pos="1620"/>
          <note len="12" key="71" pan="0" vol="63" pos="1620"/>
          <note len="12" key="66" pan="0" vol="63" pos="1620"/>
          <note len="12" key="78" pan="0" vol="63" pos="1632"/>
          <note len="12" key="75" pan="0" vol="63" pos="1632"/>
          <note len="12" key="70" pan="0" vol="63" pos="1632"/>
          <note len="12" key="77" pan="0" vol="63" pos="1644"/>
          <note len="12" key="73" pan="0" vol="63" pos="1644"/>
          <note len="12" key="68" pan="0" vol="63" pos="1644"/>
          <note len="12" key="75" pan="0" vol="63" pos="1656"/>
          <note len="12" key="71" pan="0" vol="63" pos="1656"/>
          <note len="12" key="66" pan="0" vol="63" pos="1656"/>
          <note len="12" key="73" pan="0" vol="63" pos="1668"/>
          <note len="12" key="70" pan="0" vol="63" pos="1668"/>
          <note len="12" key="65" pan="0" vol="63" pos="1668"/>
          <note len="12" key="77" pan="0" vol="63" pos="1680"/>
          <note len="12" key="73" pan="0" vol="63" pos="1680"/>
          <note len="12" key="68" pan="0" vol="63" pos="1680"/>
          <note len="12" key="75" pan="0" vol="63" pos="1692"/>
          <note len="12" key="71" pan="0" vol="63" pos="1692"/>
          <note len="12" key="66" pan="0" vol="63" pos="1692"/>
          <note len="12" key="73" pan="0" vol="63" pos="1704"/>
          <note len="12" key="70" pan="0" vol="63" pos="1704"/>
          <note len="12" key="65" pan="0" vol="63" pos="1704"/>
          <note len="12" key="75" pan="0" vol="63" pos="1716"/>
          <note len="12" key="71" pan="0" vol="63" pos="1716"/>
          <note len="12" key="66" pan="0" vol="63" pos="1716"/>
          <note len="192" key="75" pan="0" vol="197" pos="1728"/>
          <note len="192" key="70" pan="0" vol="197" pos="1728"/>
          <note len="192" key="66" pan="0" vol="197" pos="1728"/>
        </pattern>
      </track>
      <track muted="0" name="dt" type="0" solo="0" mutedBeforeSolo="0">
        <instrumenttrack usemasterpitch="1" pitchrange="1" pitch="0" pan="0" basenote="45" vol="73.8" fxch="0">
          <instrument name="zynaddsubfx">
            <zynaddsubfx fmgain="127" forwardmidicc="1" rescenterfreq="64" bandwidth="64" modifiedcontrollers="" filterq="64" resbandwidth="64" portamento="0" filterfreq="64">
              <ZynAddSubFX-data version-minor="4" version-revision="1" ZynAddSubFX-author="Nasca Octavian Paul" version-major="2">
                <INFORMATION>
                  <par_bool name="PADsynth_used" value="yes"/>
                </INFORMATION>
                <BASE_PARAMETERS>
                  <par name="max_midi_parts" value="16"/>
                  <par name="max_kit_items_per_instrument" value="16"/>
                  <par name="max_system_effects" value="4"/>
                  <par name="max_insertion_effects" value="8"/>
                  <par name="max_instrument_effects" value="3"/>
                  <par name="max_addsynth_voices" value="8"/>
                </BASE_PARAMETERS>
                <MASTER>
                  <par name="volume" value="80"/>
                  <par name="key_shift" value="64"/>
                  <par_bool name="nrpn_receive" value="yes"/>
                  <MICROTONAL>
                    <string name="name">12tET</string>
                    <string name="comment">Equal Temperament 12 notes per octave</string>
                    <par_bool name="invert_up_down" value="no"/>
                    <par name="invert_up_down_center" value="60"/>
                    <par_bool name="enabled" value="no"/>
                    <par name="global_fine_detune" value="64"/>
                    <par name="a_note" value="69"/>
                    <par_real name="a_freq" value="440.000000"/>
                  </MICROTONAL>
                  <PART id="0">
                    <par_bool name="enabled" value="yes"/>
                    <par name="volume" value="96"/>
                    <par name="panning" value="64"/>
                    <par name="min_key" value="0"/>
                    <par name="max_key" value="127"/>
                    <par name="key_shift" value="64"/>
                    <par name="rcv_chn" value="0"/>
                    <par name="velocity_sensing" value="64"/>
                    <par name="velocity_offset" value="64"/>
                    <par_bool name="note_on" value="yes"/>
                    <par_bool name="poly_mode" value="yes"/>
                    <par name="legato_mode" value="0"/>
                    <par name="key_limit" value="15"/>
                    <INSTRUMENT>
                      <INFO>
                        <string name="name">Fantasia</string>
                        <string name="author">Will Godfrey
GPL V 2 or later</string>
                        <string name="comments">Derived from one of Paul's Bells voices</string>
                        <par name="type" value="1"/>
                      </INFO>
                      <INSTRUMENT_KIT>
                        <par name="kit_mode" value="0"/>
                        <par_bool name="drum_mode" value="no"/>
                        <INSTRUMENT_KIT_ITEM id="0">
                          <par_bool name="enabled" value="yes"/>
                          <string name="name"/>
                          <par_bool name="muted" value="no"/>
                          <par name="min_key" value="0"/>
                          <par name="max_key" value="127"/>
                          <par name="send_to_instrument_effect" value="0"/>
                          <par_bool name="add_enabled" value="no"/>
                          <par_bool name="sub_enabled" value="no"/>
                          <par_bool name="pad_enabled" value="yes"/>
                          <PAD_SYNTH_PARAMETERS>
                            <par_bool name="stereo" value="yes"/>
                            <par name="mode" value="0"/>
                            <par name="bandwidth" value="485"/>
                            <par name="bandwidth_scale" value="0"/>
                            <HARMONIC_PROFILE>
                              <par name="base_type" value="0"/>
                              <par name="base_par1" value="99"/>
                              <par name="frequency_multiplier" value="11"/>
                              <par name="modulator_par1" value="0"/>
                              <par name="modulator_frequency" value="55"/>
                              <par name="width" value="127"/>
                              <par name="amplitude_multiplier_type" value="0"/>
                              <par name="amplitude_multiplier_mode" value="2"/>
                              <par name="amplitude_multiplier_par1" value="80"/>
                              <par name="amplitude_multiplier_par2" value="4"/>
                              <par_bool name="autoscale" value="yes"/>
                              <par name="one_half" value="0"/>
                            </HARMONIC_PROFILE>
                            <OSCIL>
                              <par name="harmonic_mag_type" value="0"/>
                              <par name="base_function" value="0"/>
                              <par name="base_function_par" value="48"/>
                              <par name="base_function_modulation" value="0"/>
                              <par name="base_function_modulation_par1" value="64"/>
                              <par name="base_function_modulation_par2" value="64"/>
                              <par name="base_function_modulation_par3" value="32"/>
                              <par name="modulation" value="0"/>
                              <par name="modulation_par1" value="64"/>
                              <par name="modulation_par2" value="64"/>
                              <par name="modulation_par3" value="32"/>
                              <par name="wave_shaping" value="121"/>
                              <par name="wave_shaping_function" value="14"/>
                              <par name="filter_type" value="13"/>
                              <par name="filter_par1" value="23"/>
                              <par name="filter_par2" value="92"/>
                              <par name="filter_before_wave_shaping" value="0"/>
                              <par name="spectrum_adjust_type" value="0"/>
                              <par name="spectrum_adjust_par" value="49"/>
                              <par name="rand" value="64"/>
                              <par name="amp_rand_type" value="0"/>
                              <par name="amp_rand_power" value="64"/>
                              <par name="harmonic_shift" value="0"/>
                              <par_bool name="harmonic_shift_first" value="no"/>
                              <par name="adaptive_harmonics" value="0"/>
                              <par name="adaptive_harmonics_base_frequency" value="114"/>
                              <par name="adaptive_harmonics_power" value="63"/>
                              <HARMONICS>
                                <HARMONIC id="1">
                                  <par name="mag" value="127"/>
                                  <par name="phase" value="64"/>
                                </HARMONIC>
                                <HARMONIC id="2">
                                  <par name="mag" value="75"/>
                                  <par name="phase" value="64"/>
                                </HARMONIC>
                                <HARMONIC id="4">
                                  <par name="mag" value="84"/>
                                  <par name="phase" value="64"/>
                                </HARMONIC>
                              </HARMONICS>
                            </OSCIL>
                            <RESONANCE>
                              <par_bool name="enabled" value="no"/>
                            </RESONANCE>
                            <HARMONIC_POSITION>
                              <par name="type" value="6"/>
                              <par name="parameter1" value="176"/>
                              <par name="parameter2" value="159"/>
                              <par name="parameter3" value="255"/>
                            </HARMONIC_POSITION>
                            <SAMPLE_QUALITY>
                              <par name="samplesize" value="3"/>
                              <par name="basenote" value="5"/>
                              <par name="octaves" value="4"/>
                              <par name="samples_per_octave" value="2"/>
                            </SAMPLE_QUALITY>
                            <AMPLITUDE_PARAMETERS>
                              <par name="volume" value="98"/>
                              <par name="panning" value="64"/>
                              <par name="velocity_sensing" value="73"/>
                              <par name="punch_strength" value="37"/>
                              <par name="punch_time" value="60"/>
                              <par name="punch_stretch" value="64"/>
                              <par name="punch_velocity_sensing" value="56"/>
                              <AMPLITUDE_ENVELOPE>
                                <par_bool name="free_mode" value="no"/>
                                <par name="env_points" value="4"/>
                                <par name="env_sustain" value="2"/>
                                <par name="env_stretch" value="36"/>
                                <par_bool name="forced_release" value="yes"/>
                                <par_bool name="linear_envelope" value="no"/>
                                <par name="A_dt" value="14"/>
                                <par name="D_dt" value="113"/>
                                <par name="R_dt" value="15"/>
                                <par name="A_val" value="64"/>
                                <par name="D_val" value="64"/>
                                <par name="S_val" value="0"/>
                                <par name="R_val" value="64"/>
                              </AMPLITUDE_ENVELOPE>
                              <AMPLITUDE_LFO>
                                <par_real name="freq" value="0.629921"/>
                                <par name="intensity" value="0"/>
                                <par name="start_phase" value="64"/>
                                <par name="lfo_type" value="0"/>
                                <par name="randomness_amplitude" value="0"/>
                                <par name="randomness_frequency" value="0"/>
                                <par name="delay" value="0"/>
                                <par name="stretch" value="64"/>
                                <par_bool name="continous" value="no"/>
                              </AMPLITUDE_LFO>
                            </AMPLITUDE_PARAMETERS>
                            <FREQUENCY_PARAMETERS>
                              <par name="fixed_freq" value="0"/>
                              <par name="fixed_freq_et" value="0"/>
                              <par name="detune" value="8192"/>
                              <par name="coarse_detune" value="0"/>
                              <par name="detune_type" value="1"/>
                              <FREQUENCY_ENVELOPE>
                                <par_bool name="free_mode" value="no"/>
                                <par name="env_points" value="3"/>
                                <par name="env_sustain" value="1"/>
                                <par name="env_stretch" value="0"/>
                                <par_bool name="forced_release" value="no"/>
                                <par_bool name="linear_envelope" value="no"/>
                                <par name="A_dt" value="50"/>
                                <par name="D_dt" value="10"/>
                                <par name="R_dt" value="60"/>
                                <par name="A_val" value="64"/>
                                <par name="D_val" value="64"/>
                                <par name="S_val" value="64"/>
                                <par name="R_val" value="64"/>
                              </FREQUENCY_ENVELOPE>
                              <FREQUENCY_LFO>
                                <par_real name="freq" value="0.610681"/>
                                <par name="intensity" value="0"/>
                                <par name="start_phase" value="64"/>
                                <par name="lfo_type" value="0"/>
                                <par name="randomness_amplitude" value="0"/>
                                <par name="randomness_frequency" value="47"/>
                                <par name="delay" value="0"/>
                                <par name="stretch" value="64"/>
                                <par_bool name="continous" value="no"/>
                              </FREQUENCY_LFO>
                            </FREQUENCY_PARAMETERS>
                            <FILTER_PARAMETERS>
                              <par name="velocity_sensing_amplitude" value="127"/>
                              <par name="velocity_sensing" value="92"/>
                              <FILTER>
                                <par name="category" value="0"/>
                                <par name="type" value="0"/>
                                <par name="freq" value="127"/>
                                <par name="q" value="0"/>
                                <par name="stages" value="2"/>
                                <par name="freq_track" value="63"/>
                                <par name="gain" value="64"/>
                              </FILTER>
                              <FILTER_ENVELOPE>
                                <par_bool name="free_mode" value="no"/>
                                <par name="env_points" value="4"/>
                                <par name="env_sustain" value="2"/>
                                <par name="env_stretch" value="22"/>
                                <par_bool name="forced_release" value="yes"/>
                                <par_bool name="linear_envelope" value="no"/>
                                <par name="A_dt" value="0"/>
                                <par name="D_dt" value="127"/>
                                <par name="R_dt" value="127"/>
                                <par name="A_val" value="127"/>
                                <par name="D_val" value="127"/>
                                <par name="S_val" value="64"/>
                                <par name="R_val" value="0"/>
                              </FILTER_ENVELOPE>
                              <FILTER_LFO>
                                <par_real name="freq" value="0.484921"/>
                                <par name="intensity" value="13"/>
                                <par name="start_phase" value="59"/>
                                <par name="lfo_type" value="0"/>
                                <par name="randomness_amplitude" value="0"/>
                                <par name="randomness_frequency" value="0"/>
                                <par name="delay" value="0"/>
                                <par name="stretch" value="64"/>
                                <par_bool name="continous" value="no"/>
                              </FILTER_LFO>
                            </FILTER_PARAMETERS>
                          </PAD_SYNTH_PARAMETERS>
                        </INSTRUMENT_KIT_ITEM>
                        <INSTRUMENT_KIT_ITEM id="1">
                          <par_bool name="enabled" value="no"/>
                        </INSTRUMENT_KIT_ITEM>
                        <INSTRUMENT_KIT_ITEM id="2">
                          <par_bool name="enabled" value="no"/>
                        </INSTRUMENT_KIT_ITEM>
                        <INSTRUMENT_KIT_ITEM id="3">
                          <par_bool name="enabled" value="no"/>
                        </INSTRUMENT_KIT_ITEM>
                        <INSTRUMENT_KIT_ITEM id="4">
                          <par_bool name="enabled" value="no"/>
                        </INSTRUMENT_KIT_ITEM>
                        <INSTRUMENT_KIT_ITEM id="5">
                          <par_bool name="enabled" value="no"/>
                        </INSTRUMENT_KIT_ITEM>
                        <INSTRUMENT_KIT_ITEM id="6">
                          <par_bool name="enabled" value="no"/>
                        </INSTRUMENT_KIT_ITEM>
                        <INSTRUMENT_KIT_ITEM id="7">
                          <par_bool name="enabled" value="no"/>
                        </INSTRUMENT_KIT_ITEM>
                        <INSTRUMENT_KIT_ITEM id="8">
                          <par_bool name="enabled" value="no"/>
                        </INSTRUMENT_KIT_ITEM>
                        <INSTRUMENT_KIT_ITEM id="9">
                          <par_bool name="enabled" value="no"/>
                        </INSTRUMENT_KIT_ITEM>
                        <INSTRUMENT_KIT_ITEM id="10">
                          <par_bool name="enabled" value="no"/>
                        </INSTRUMENT_KIT_ITEM>
                        <INSTRUMENT_KIT_ITEM id="11">
                          <par_bool name="enabled" value="no"/>
                        </INSTRUMENT_KIT_ITEM>
                        <INSTRUMENT_KIT_ITEM id="12">
                          <par_bool name="enabled" value="no"/>
                        </INSTRUMENT_KIT_ITEM>
                        <INSTRUMENT_KIT_ITEM id="13">
                          <par_bool name="enabled" value="no"/>
                        </INSTRUMENT_KIT_ITEM>
                        <INSTRUMENT_KIT_ITEM id="14">
                          <par_bool name="enabled" value="no"/>
                        </INSTRUMENT_KIT_ITEM>
                        <INSTRUMENT_KIT_ITEM id="15">
                          <par_bool name="enabled" value="no"/>
                        </INSTRUMENT_KIT_ITEM>
                      </INSTRUMENT_KIT>
                      <INSTRUMENT_EFFECTS>
                        <INSTRUMENT_EFFECT id="0">
                          <EFFECT>
                            <par name="type" value="3"/>
                            <par name="preset" value="0"/>
                            <EFFECT_PARAMETERS>
                              <par_no id="0">
                                <par name="par" value="127"/>
                              </par_no>
                              <par_no id="1">
                                <par name="par" value="64"/>
                              </par_no>
                              <par_no id="2">
                                <par name="par" value="80"/>
                              </par_no>
                              <par_no id="5">
                                <par name="par" value="127"/>
                              </par_no>
                              <par_no id="6">
                                <par name="par" value="17"/>
                              </par_no>
                              <par_no id="7">
                                <par name="par" value="85"/>
                              </par_no>
                              <par_no id="8">
                                <par name="par" value="102"/>
                              </par_no>
                              <par_no id="9">
                                <par name="par" value="119"/>
                              </par_no>
                            </EFFECT_PARAMETERS>
                          </EFFECT>
                          <par name="route" value="0"/>
                          <par_bool name="bypass" value="yes"/>
                        </INSTRUMENT_EFFECT>
                        <INSTRUMENT_EFFECT id="1">
                          <EFFECT>
                            <par name="type" value="0"/>
                          </EFFECT>
                          <par name="route" value="0"/>
                          <par_bool name="bypass" value="no"/>
                        </INSTRUMENT_EFFECT>
                        <INSTRUMENT_EFFECT id="2">
                          <EFFECT>
                            <par name="type" value="0"/>
                          </EFFECT>
                          <par name="route" value="0"/>
                          <par_bool name="bypass" value="no"/>
                        </INSTRUMENT_EFFECT>
                      </INSTRUMENT_EFFECTS>
                    </INSTRUMENT>
                    <CONTROLLER>
                      <par name="pitchwheel_bendrange" value="100"/>
                      <par_bool name="expression_receive" value="yes"/>
                      <par name="panning_depth" value="64"/>
                      <par name="filter_cutoff_depth" value="64"/>
                      <par name="filter_q_depth" value="64"/>
                      <par name="bandwidth_depth" value="64"/>
                      <par name="mod_wheel_depth" value="80"/>
                      <par_bool name="mod_wheel_exponential" value="no"/>
                      <par_bool name="fm_amp_receive" value="yes"/>
                      <par_bool name="volume_receive" value="yes"/>
                      <par_bool name="sustain_receive" value="yes"/>
                      <par_bool name="portamento_receive" value="yes"/>
                      <par name="portamento_time" value="64"/>
                      <par name="portamento_pitchthresh" value="3"/>
                      <par name="portamento_pitchthreshtype" value="1"/>
                      <par name="portamento_portamento" value="0"/>
                      <par name="portamento_updowntimestretch" value="64"/>
                      <par name="portamento_proportional" value="0"/>
                      <par name="portamento_proprate" value="80"/>
                      <par name="portamento_propdepth" value="90"/>
                      <par name="resonance_center_depth" value="64"/>
                      <par name="resonance_bandwidth_depth" value="64"/>
                    </CONTROLLER>
                  </PART>
                  <PART id="1">
                    <par_bool name="enabled" value="no"/>
                  </PART>
                  <PART id="2">
                    <par_bool name="enabled" value="no"/>
                  </PART>
                  <PART id="3">
                    <par_bool name="enabled" value="no"/>
                  </PART>
                  <PART id="4">
                    <par_bool name="enabled" value="no"/>
                  </PART>
                  <PART id="5">
                    <par_bool name="enabled" value="no"/>
                  </PART>
                  <PART id="6">
                    <par_bool name="enabled" value="no"/>
                  </PART>
                  <PART id="7">
                    <par_bool name="enabled" value="no"/>
                  </PART>
                  <PART id="8">
                    <par_bool name="enabled" value="no"/>
                  </PART>
                  <PART id="9">
                    <par_bool name="enabled" value="no"/>
                  </PART>
                  <PART id="10">
                    <par_bool name="enabled" value="no"/>
                  </PART>
                  <PART id="11">
                    <par_bool name="enabled" value="no"/>
                  </PART>
                  <PART id="12">
                    <par_bool name="enabled" value="no"/>
                  </PART>
                  <PART id="13">
                    <par_bool name="enabled" value="no"/>
                  </PART>
                  <PART id="14">
                    <par_bool name="enabled" value="no"/>
                  </PART>
                  <PART id="15">
                    <par_bool name="enabled" value="no"/>
                  </PART>
                  <SYSTEM_EFFECTS>
                    <SYSTEM_EFFECT id="0">
                      <EFFECT>
                        <par name="type" value="0"/>
                      </EFFECT>
                      <VOLUME id="0">
                        <par name="vol" value="0"/>
                      </VOLUME>
                      <VOLUME id="1">
                        <par name="vol" value="0"/>
                      </VOLUME>
                      <VOLUME id="2">
                        <par name="vol" value="0"/>
                      </VOLUME>
                      <VOLUME id="3">
                        <par name="vol" value="0"/>
                      </VOLUME>
                      <VOLUME id="4">
                        <par name="vol" value="0"/>
                      </VOLUME>
                      <VOLUME id="5">
                        <par name="vol" value="0"/>
                      </VOLUME>
                      <VOLUME id="6">
                        <par name="vol" value="0"/>
                      </VOLUME>
                      <VOLUME id="7">
                        <par name="vol" value="0"/>
                      </VOLUME>
                      <VOLUME id="8">
                        <par name="vol" value="0"/>
                      </VOLUME>
                      <VOLUME id="9">
                        <par name="vol" value="0"/>
                      </VOLUME>
                      <VOLUME id="10">
                        <par name="vol" value="0"/>
                      </VOLUME>
                      <VOLUME id="11">
                        <par name="vol" value="0"/>
                      </VOLUME>
                      <VOLUME id="12">
                        <par name="vol" value="0"/>
                      </VOLUME>
                      <VOLUME id="13">
                        <par name="vol" value="0"/>
                      </VOLUME>
                      <VOLUME id="14">
                        <par name="vol" value="0"/>
                      </VOLUME>
                      <VOLUME id="15">
                        <par name="vol" value="0"/>
                      </VOLUME>
                      <SENDTO id="1">
                        <par name="send_vol" value="0"/>
                      </SENDTO>
                      <SENDTO id="2">
                        <par name="send_vol" value="0"/>
                      </SENDTO>
                      <SENDTO id="3">
                        <par name="send_vol" value="0"/>
                      </SENDTO>
                    </SYSTEM_EFFECT>
                    <SYSTEM_EFFECT id="1">
                      <EFFECT>
                        <par name="type" value="0"/>
                      </EFFECT>
                      <VOLUME id="0">
                        <par name="vol" value="0"/>
                      </VOLUME>
                      <VOLUME id="1">
                        <par name="vol" value="0"/>
                      </VOLUME>
                      <VOLUME id="2">
                        <par name="vol" value="0"/>
                      </VOLUME>
                      <VOLUME id="3">
                        <par name="vol" value="0"/>
                      </VOLUME>
                      <VOLUME id="4">
                        <par name="vol" value="0"/>
                      </VOLUME>
                      <VOLUME id="5">
                        <par name="vol" value="0"/>
                      </VOLUME>
                      <VOLUME id="6">
                        <par name="vol" value="0"/>
                      </VOLUME>
                      <VOLUME id="7">
                        <par name="vol" value="0"/>
                      </VOLUME>
                      <VOLUME id="8">
                        <par name="vol" value="0"/>
                      </VOLUME>
                      <VOLUME id="9">
                        <par name="vol" value="0"/>
                      </VOLUME>
                      <VOLUME id="10">
                        <par name="vol" value="0"/>
                      </VOLUME>
                      <VOLUME id="11">
                        <par name="vol" value="0"/>
                      </VOLUME>
                      <VOLUME id="12">
                        <par name="vol" value="0"/>
                      </VOLUME>
                      <VOLUME id="13">
                        <par name="vol" value="0"/>
                      </VOLUME>
                      <VOLUME id="14">
                        <par name="vol" value="0"/>
                      </VOLUME>
                      <VOLUME id="15">
                        <par name="vol" value="0"/>
                      </VOLUME>
                      <SENDTO id="2">
                        <par name="send_vol" value="0"/>
                      </SENDTO>
                      <SENDTO id="3">
                        <par name="send_vol" value="0"/>
                      </SENDTO>
                    </SYSTEM_EFFECT>
                    <SYSTEM_EFFECT id="2">
                      <EFFECT>
                        <par name="type" value="0"/>
                      </EFFECT>
                      <VOLUME id="0">
                        <par name="vol" value="0"/>
                      </VOLUME>
                      <VOLUME id="1">
                        <par name="vol" value="0"/>
                      </VOLUME>
                      <VOLUME id="2">
                        <par name="vol" value="0"/>
                      </VOLUME>
                      <VOLUME id="3">
                        <par name="vol" value="0"/>
                      </VOLUME>
                      <VOLUME id="4">
                        <par name="vol" value="0"/>
                      </VOLUME>
                      <VOLUME id="5">
                        <par name="vol" value="0"/>
                      </VOLUME>
                      <VOLUME id="6">
                        <par name="vol" value="0"/>
                      </VOLUME>
                      <VOLUME id="7">
                        <par name="vol" value="0"/>
                      </VOLUME>
                      <VOLUME id="8">
                        <par name="vol" value="0"/>
                      </VOLUME>
                      <VOLUME id="9">
                        <par name="vol" value="0"/>
                      </VOLUME>
                      <VOLUME id="10">
                        <par name="vol" value="0"/>
                      </VOLUME>
                      <VOLUME id="11">
                        <par name="vol" value="0"/>
                      </VOLUME>
                      <VOLUME id="12">
                        <par name="vol" value="0"/>
                      </VOLUME>
                      <VOLUME id="13">
                        <par name="vol" value="0"/>
                      </VOLUME>
                      <VOLUME id="14">
                        <par name="vol" value="0"/>
                      </VOLUME>
                      <VOLUME id="15">
                        <par name="vol" value="0"/>
                      </VOLUME>
                      <SENDTO id="3">
                        <par name="send_vol" value="0"/>
                      </SENDTO>
                    </SYSTEM_EFFECT>
                    <SYSTEM_EFFECT id="3">
                      <EFFECT>
                        <par name="type" value="0"/>
                      </EFFECT>
                      <VOLUME id="0">
                        <par name="vol" value="0"/>
                      </VOLUME>
                      <VOLUME id="1">
                        <par name="vol" value="0"/>
                      </VOLUME>
                      <VOLUME id="2">
                        <par name="vol" value="0"/>
                      </VOLUME>
                      <VOLUME id="3">
                        <par name="vol" value="0"/>
                      </VOLUME>
                      <VOLUME id="4">
                        <par name="vol" value="0"/>
                      </VOLUME>
                      <VOLUME id="5">
                        <par name="vol" value="0"/>
                      </VOLUME>
                      <VOLUME id="6">
                        <par name="vol" value="0"/>
                      </VOLUME>
                      <VOLUME id="7">
                        <par name="vol" value="0"/>
                      </VOLUME>
                      <VOLUME id="8">
                        <par name="vol" value="0"/>
                      </VOLUME>
                      <VOLUME id="9">
                        <par name="vol" value="0"/>
                      </VOLUME>
                      <VOLUME id="10">
                        <par name="vol" value="0"/>
                      </VOLUME>
                      <VOLUME id="11">
                        <par name="vol" value="0"/>
                      </VOLUME>
                      <VOLUME id="12">
                        <par name="vol" value="0"/>
                      </VOLUME>
                      <VOLUME id="13">
                        <par name="vol" value="0"/>
                      </VOLUME>
                      <VOLUME id="14">
                        <par name="vol" value="0"/>
                      </VOLUME>
                      <VOLUME id="15">
                        <par name="vol" value="0"/>
                      </VOLUME>
                    </SYSTEM_EFFECT>
                  </SYSTEM_EFFECTS>
                  <INSERTION_EFFECTS>
                    <INSERTION_EFFECT id="0">
                      <par name="part" value="-1"/>
                      <EFFECT>
                        <par name="type" value="0"/>
                      </EFFECT>
                    </INSERTION_EFFECT>
                    <INSERTION_EFFECT id="1">
                      <par name="part" value="-1"/>
                      <EFFECT>
                        <par name="type" value="0"/>
                      </EFFECT>
                    </INSERTION_EFFECT>
                    <INSERTION_EFFECT id="2">
                      <par name="part" value="-1"/>
                      <EFFECT>
                        <par name="type" value="0"/>
                      </EFFECT>
                    </INSERTION_EFFECT>
                    <INSERTION_EFFECT id="3">
                      <par name="part" value="-1"/>
                      <EFFECT>
                        <par name="type" value="0"/>
                      </EFFECT>
                    </INSERTION_EFFECT>
                    <INSERTION_EFFECT id="4">
                      <par name="part" value="-1"/>
                      <EFFECT>
                        <par name="type" value="0"/>
                      </EFFECT>
                    </INSERTION_EFFECT>
                    <INSERTION_EFFECT id="5">
                      <par name="part" value="-1"/>
                      <EFFECT>
                        <par name="type" value="0"/>
                      </EFFECT>
                    </INSERTION_EFFECT>
                    <INSERTION_EFFECT id="6">
                      <par name="part" value="-1"/>
                      <EFFECT>
                        <par name="type" value="0"/>
                      </EFFECT>
                    </INSERTION_EFFECT>
                    <INSERTION_EFFECT id="7">
                      <par name="part" value="-1"/>
                      <EFFECT>
                        <par name="type" value="0"/>
                      </EFFECT>
                    </INSERTION_EFFECT>
                  </INSERTION_EFFECTS>
                </MASTER>
              </ZynAddSubFX-data>
              <key/>
            </zynaddsubfx>
          </instrument>
          <eldata fcut="14000" fwet="0" fres="0.5" ftype="0">
            <elvol rel="0.1" lspd_syncmode="0" pdel="0" lspd_numerator="4" lpdel="0" amt="0" ctlenvamt="0" lshp="0" userwavefile="" dec="0.5" lspd_denominator="4" sustain="0.5" lspd="0.1" latt="0" hold="0.5" att="0" x100="0" lamt="0"/>
            <elcut rel="0.1" lspd_syncmode="0" pdel="0" lspd_numerator="4" lpdel="0" amt="0" ctlenvamt="0" lshp="0" userwavefile="" dec="0.5" lspd_denominator="4" sustain="0.5" lspd="0.1" latt="0" hold="0.5" att="0" x100="0" lamt="0"/>
            <elres rel="0.1" lspd_syncmode="0" pdel="0" lspd_numerator="4" lpdel="0" amt="0" ctlenvamt="0" lshp="0" userwavefile="" dec="0.5" lspd_denominator="4" sustain="0.5" lspd="0.1" latt="0" hold="0.5" att="0" x100="0" lamt="0"/>
          </eldata>
          <chordcreator chord="0" chordrange="1" chord-enabled="0"/>
          <arpeggiator arptime_denominator="4" arptime="200" arp-enabled="0" arpcycle="0" arpgate="100" arp="0" arpmiss="0" arpdir="0" arprange="1" arpmode="0" arpskip="0" arptime_syncmode="0" arptime_numerator="4"/>
          <midiport inputcontroller="0" fixedinputvelocity="-1" readable="0" outputcontroller="0" fixedoutputnote="-1" outputprogram="1" writable="0" fixedoutputvelocity="-1" basevelocity="63" outputchannel="1" inputchannel="0"/>
          <fxchain enabled="1" numofeffects="1">
            <effect wet="1" autoquit_denominator="4" autoquit="1" name="ladspaeffect" on="1" autoquit_syncmode="0" gate="0" autoquit_numerator="4">
              <ladspacontrols link="1" ports="12">
                <port01 data_numerator="4" data_syncmode="0" link="1" data_denominator="4">
                  <data id="3333524" scale_type="log" value="2.95313"/>
                </port01>
                <port02 data_numerator="4" data="6.67375" data_syncmode="0" link="1" data_denominator="4"/>
                <port03 data="1.45" link="1"/>
                <port04 data="1" link="1"/>
                <port05 data="0.37875" link="1"/>
                <port06 data="0.2825" link="1"/>
                <port11 data_numerator="4" data_syncmode="0" data_denominator="4">
                  <data id="1009611" scale_type="log" value="2.95313"/>
                </port11>
                <port12 data_numerator="4" data="6.67375" data_syncmode="0" data_denominator="4"/>
                <port13 data="1.45"/>
                <port14 data="1"/>
                <port15 data="0.37875"/>
                <port16 data="0.2825"/>
              </ladspacontrols>
              <key>
                <attribute name="file" value="caps"/>
                <attribute name="plugin" value="ChorusI"/>
              </key>
            </effect>
          </fxchain>
        </instrumenttrack>
        <pattern muted="0" name="" steps="16" type="1" pos="8064">
          <note len="24" key="61" pan="0" vol="78" pos="0"/>
          <note len="24" key="68" pan="0" vol="78" pos="24"/>
          <note len="24" key="73" pan="0" vol="78" pos="48"/>
          <note len="24" key="68" pan="0" vol="78" pos="72"/>
          <note len="24" key="76" pan="0" vol="78" pos="96"/>
          <note len="24" key="68" pan="0" vol="78" pos="120"/>
          <note len="24" key="73" pan="0" vol="78" pos="144"/>
          <note len="24" key="68" pan="0" vol="78" pos="168"/>
          <note len="24" key="63" pan="0" vol="78" pos="192"/>
          <note len="24" key="68" pan="0" vol="78" pos="216"/>
          <note len="24" key="71" pan="0" vol="78" pos="240"/>
          <note len="24" key="68" pan="0" vol="78" pos="264"/>
          <note len="24" key="63" pan="0" vol="78" pos="288"/>
          <note len="24" key="68" pan="0" vol="78" pos="312"/>
          <note len="24" key="71" pan="0" vol="78" pos="336"/>
          <note len="24" key="68" pan="0" vol="78" pos="360"/>
          <note len="24" key="64" pan="0" vol="78" pos="384"/>
          <note len="24" key="68" pan="0" vol="78" pos="408"/>
          <note len="24" key="73" pan="0" vol="78" pos="432"/>
          <note len="24" key="68" pan="0" vol="78" pos="456"/>
          <note len="24" key="64" pan="0" vol="78" pos="480"/>
          <note len="24" key="68" pan="0" vol="78" pos="504"/>
          <note len="24" key="73" pan="0" vol="78" pos="528"/>
          <note len="24" key="68" pan="0" vol="78" pos="552"/>
          <note len="24" key="66" pan="0" vol="78" pos="576"/>
          <note len="24" key="71" pan="0" vol="78" pos="600"/>
          <note len="24" key="76" pan="0" vol="78" pos="624"/>
          <note len="24" key="71" pan="0" vol="78" pos="648"/>
          <note len="24" key="66" pan="0" vol="78" pos="672"/>
          <note len="24" key="71" pan="0" vol="78" pos="696"/>
          <note len="24" key="75" pan="0" vol="78" pos="720"/>
          <note len="24" key="71" pan="0" vol="78" pos="744"/>
          <note len="24" key="64" pan="0" vol="78" pos="768"/>
          <note len="24" key="68" pan="0" vol="78" pos="792"/>
          <note len="24" key="73" pan="0" vol="78" pos="816"/>
          <note len="24" key="68" pan="0" vol="78" pos="840"/>
          <note len="24" key="64" pan="0" vol="78" pos="864"/>
          <note len="24" key="68" pan="0" vol="78" pos="888"/>
          <note len="24" key="73" pan="0" vol="78" pos="912"/>
          <note len="24" key="68" pan="0" vol="78" pos="936"/>
          <note len="24" key="63" pan="0" vol="78" pos="960"/>
          <note len="24" key="66" pan="0" vol="78" pos="984"/>
          <note len="24" key="71" pan="0" vol="78" pos="1008"/>
          <note len="24" key="66" pan="0" vol="78" pos="1032"/>
          <note len="24" key="63" pan="0" vol="78" pos="1056"/>
          <note len="24" key="66" pan="0" vol="78" pos="1080"/>
          <note len="24" key="71" pan="0" vol="78" pos="1104"/>
          <note len="24" key="66" pan="0" vol="78" pos="1128"/>
          <note len="24" key="64" pan="0" vol="78" pos="1152"/>
          <note len="24" key="68" pan="0" vol="78" pos="1176"/>
          <note len="24" key="73" pan="0" vol="78" pos="1200"/>
          <note len="24" key="68" pan="0" vol="78" pos="1224"/>
          <note len="24" key="64" pan="0" vol="78" pos="1248"/>
          <note len="24" key="68" pan="0" vol="78" pos="1272"/>
          <note len="24" key="73" pan="0" vol="78" pos="1296"/>
          <note len="24" key="68" pan="0" vol="78" pos="1320"/>
          <note len="24" key="66" pan="0" vol="78" pos="1344"/>
          <note len="24" key="68" pan="0" vol="78" pos="1368"/>
          <note len="24" key="66" pan="0" vol="78" pos="1392"/>
          <note len="24" key="64" pan="0" vol="78" pos="1416"/>
          <note len="24" key="63" pan="0" vol="78" pos="1440"/>
          <note len="24" key="60" pan="0" vol="78" pos="1464"/>
          <note len="24" key="66" pan="0" vol="78" pos="1488"/>
          <note len="24" key="63" pan="0" vol="78" pos="1512"/>
          <note len="24" key="61" pan="0" vol="78" pos="1536"/>
          <note len="24" key="68" pan="0" vol="78" pos="1560"/>
          <note len="24" key="73" pan="0" vol="78" pos="1584"/>
          <note len="24" key="68" pan="0" vol="78" pos="1608"/>
          <note len="24" key="61" pan="0" vol="78" pos="1632"/>
          <note len="24" key="68" pan="0" vol="78" pos="1656"/>
          <note len="24" key="73" pan="0" vol="78" pos="1680"/>
          <note len="24" key="68" pan="0" vol="78" pos="1704"/>
          <note len="24" key="63" pan="0" vol="78" pos="1728"/>
          <note len="24" key="68" pan="0" vol="78" pos="1752"/>
          <note len="24" key="71" pan="0" vol="78" pos="1776"/>
          <note len="24" key="68" pan="0" vol="78" pos="1800"/>
          <note len="24" key="63" pan="0" vol="78" pos="1824"/>
          <note len="24" key="68" pan="0" vol="78" pos="1848"/>
          <note len="24" key="71" pan="0" vol="78" pos="1872"/>
          <note len="24" key="68" pan="0" vol="78" pos="1896"/>
          <note len="24" key="61" pan="0" vol="78" pos="1920"/>
          <note len="24" key="66" pan="0" vol="78" pos="1944"/>
          <note len="24" key="70" pan="0" vol="78" pos="1968"/>
          <note len="24" key="66" pan="0" vol="78" pos="1992"/>
          <note len="24" key="61" pan="0" vol="78" pos="2016"/>
          <note len="24" key="66" pan="0" vol="78" pos="2040"/>
          <note len="24" key="70" pan="0" vol="78" pos="2064"/>
          <note len="24" key="66" pan="0" vol="78" pos="2088"/>
          <note len="24" key="61" pan="0" vol="78" pos="2112"/>
          <note len="24" key="66" pan="0" vol="78" pos="2136"/>
          <note len="24" key="70" pan="0" vol="78" pos="2160"/>
          <note len="24" key="66" pan="0" vol="78" pos="2184"/>
          <note len="24" key="61" pan="0" vol="78" pos="2208"/>
          <note len="24" key="66" pan="0" vol="78" pos="2232"/>
          <note len="24" key="70" pan="0" vol="78" pos="2256"/>
          <note len="24" key="66" pan="0" vol="78" pos="2280"/>
          <note len="24" key="66" pan="0" vol="78" pos="2304"/>
          <note len="24" key="69" pan="0" vol="78" pos="2328"/>
          <note len="24" key="73" pan="0" vol="78" pos="2352"/>
          <note len="24" key="69" pan="0" vol="78" pos="2376"/>
          <note len="24" key="66" pan="0" vol="78" pos="2400"/>
          <note len="24" key="69" pan="0" vol="78" pos="2424"/>
          <note len="24" key="73" pan="0" vol="78" pos="2448"/>
          <note len="24" key="69" pan="0" vol="78" pos="2472"/>
          <note len="24" key="63" pan="0" vol="78" pos="2496"/>
          <note len="24" key="68" pan="0" vol="78" pos="2520"/>
          <note len="24" key="73" pan="0" vol="78" pos="2544"/>
          <note len="24" key="68" pan="0" vol="78" pos="2568"/>
          <note len="24" key="63" pan="0" vol="78" pos="2592"/>
          <note len="24" key="68" pan="0" vol="78" pos="2616"/>
          <note len="24" key="73" pan="0" vol="78" pos="2640"/>
          <note len="24" key="68" pan="0" vol="78" pos="2664"/>
          <note len="24" key="66" pan="0" vol="78" pos="2688"/>
          <note len="24" key="71" pan="0" vol="78" pos="2712"/>
          <note len="24" key="75" pan="0" vol="78" pos="2736"/>
          <note len="24" key="71" pan="0" vol="78" pos="2760"/>
          <note len="24" key="66" pan="0" vol="78" pos="2784"/>
          <note len="24" key="71" pan="0" vol="78" pos="2808"/>
          <note len="24" key="75" pan="0" vol="78" pos="2832"/>
          <note len="24" key="71" pan="0" vol="78" pos="2856"/>
          <note len="96" key="66" pan="0" vol="78" pos="2880"/>
          <note len="96" key="59" pan="0" vol="78" pos="2976"/>
          <note len="12" key="68" pan="0" vol="78" pos="3072"/>
          <note len="12" key="64" pan="0" vol="78" pos="3084"/>
          <note len="12" key="61" pan="0" vol="78" pos="3096"/>
          <note len="12" key="56" pan="0" vol="78" pos="3108"/>
          <note len="12" key="52" pan="0" vol="78" pos="3120"/>
          <note len="12" key="49" pan="0" vol="78" pos="3132"/>
          <note len="12" key="61" pan="0" vol="78" pos="3168"/>
          <note len="12" key="56" pan="0" vol="78" pos="3180"/>
          <note len="12" key="52" pan="0" vol="78" pos="3192"/>
          <note len="12" key="49" pan="0" vol="78" pos="3204"/>
          <note len="12" key="76" pan="0" vol="78" pos="3216"/>
          <note len="12" key="71" pan="0" vol="78" pos="3228"/>
          <note len="12" key="68" pan="0" vol="78" pos="3240"/>
          <note len="12" key="64" pan="0" vol="78" pos="3252"/>
          <note len="12" key="76" pan="0" vol="78" pos="3264"/>
          <note len="12" key="71" pan="0" vol="78" pos="3276"/>
          <note len="12" key="80" pan="0" vol="78" pos="3288"/>
          <note len="12" key="76" pan="0" vol="78" pos="3300"/>
          <note len="12" key="71" pan="0" vol="78" pos="3312"/>
          <note len="12" key="68" pan="0" vol="78" pos="3324"/>
          <note len="12" key="64" pan="0" vol="78" pos="3336"/>
          <note len="12" key="61" pan="0" vol="78" pos="3348"/>
          <note len="12" key="73" pan="0" vol="78" pos="3360"/>
          <note len="12" key="68" pan="0" vol="78" pos="3372"/>
          <note len="12" key="64" pan="0" vol="78" pos="3384"/>
          <note len="12" key="61" pan="0" vol="78" pos="3396"/>
          <note len="12" key="68" pan="0" vol="78" pos="3408"/>
          <note len="12" key="64" pan="0" vol="78" pos="3420"/>
          <note len="12" key="56" pan="0" vol="78" pos="3432"/>
          <note len="12" key="49" pan="0" vol="78" pos="3444"/>
          <note len="12" key="69" pan="0" vol="78" pos="3456"/>
          <note len="12" key="66" pan="0" vol="78" pos="3468"/>
          <note len="12" key="57" pan="0" vol="78" pos="3480"/>
          <note len="12" key="54" pan="0" vol="78" pos="3492"/>
          <note len="12" key="49" pan="0" vol="78" pos="3504"/>
          <note len="12" key="47" pan="0" vol="78" pos="3516"/>
          <note len="12" key="74" pan="0" vol="78" pos="3528"/>
          <note len="12" key="69" pan="0" vol="78" pos="3540"/>
          <note len="12" key="66" pan="0" vol="78" pos="3552"/>
          <note len="12" key="61" pan="0" vol="78" pos="3564"/>
          <note len="12" key="57" pan="0" vol="78" pos="3576"/>
          <note len="12" key="54" pan="0" vol="78" pos="3588"/>
          <note len="12" key="78" pan="0" vol="78" pos="3600"/>
          <note len="12" key="74" pan="0" vol="78" pos="3612"/>
          <note len="12" key="69" pan="0" vol="78" pos="3624"/>
          <note len="12" key="66" pan="0" vol="78" pos="3636"/>
          <note len="12" key="81" pan="0" vol="78" pos="3672"/>
          <note len="12" key="78" pan="0" vol="78" pos="3684"/>
          <note len="12" key="73" pan="0" vol="78" pos="3696"/>
          <note len="12" key="69" pan="0" vol="78" pos="3708"/>
          <note len="12" key="66" pan="0" vol="78" pos="3720"/>
          <note len="12" key="61" pan="0" vol="78" pos="3732"/>
          <note len="12" key="74" pan="0" vol="78" pos="3744"/>
          <note len="12" key="71" pan="0" vol="78" pos="3756"/>
          <note len="12" key="66" pan="0" vol="78" pos="3768"/>
          <note len="12" key="61" pan="0" vol="78" pos="3780"/>
          <note len="12" key="69" pan="0" vol="78" pos="3792"/>
          <note len="12" key="66" pan="0" vol="78" pos="3804"/>
          <note len="12" key="61" pan="0" vol="78" pos="3816"/>
          <note len="12" key="57" pan="0" vol="78" pos="3828"/>
          <note len="12" key="68" pan="0" vol="78" pos="3840"/>
          <note len="12" key="64" pan="0" vol="78" pos="3852"/>
          <note len="12" key="61" pan="0" vol="78" pos="3864"/>
          <note len="12" key="56" pan="0" vol="78" pos="3876"/>
          <note len="12" key="61" pan="0" vol="78" pos="3888"/>
          <note len="12" key="64" pan="0" vol="78" pos="3900"/>
          <note len="12" key="73" pan="0" vol="78" pos="3912"/>
          <note len="12" key="69" pan="0" vol="78" pos="3924"/>
          <note len="12" key="68" pan="0" vol="78" pos="3936"/>
          <note len="12" key="64" pan="0" vol="78" pos="3948"/>
          <note len="12" key="68" pan="0" vol="78" pos="3960"/>
          <note len="12" key="73" pan="0" vol="78" pos="3972"/>
          <note len="12" key="52" pan="0" vol="78" pos="3972"/>
          <note len="12" key="76" pan="0" vol="78" pos="3984"/>
          <note len="12" key="71" pan="0" vol="78" pos="3996"/>
          <note len="12" key="68" pan="0" vol="78" pos="4008"/>
          <note len="12" key="64" pan="0" vol="78" pos="4020"/>
          <note len="12" key="68" pan="0" vol="78" pos="4032"/>
          <note len="12" key="71" pan="0" vol="78" pos="4044"/>
          <note len="12" key="81" pan="0" vol="78" pos="4056"/>
          <note len="12" key="78" pan="0" vol="78" pos="4068"/>
          <note len="12" key="74" pan="0" vol="78" pos="4080"/>
          <note len="12" key="69" pan="0" vol="78" pos="4092"/>
          <note len="12" key="66" pan="0" vol="78" pos="4104"/>
          <note len="12" key="69" pan="0" vol="78" pos="4116"/>
          <note len="12" key="73" pan="0" vol="78" pos="4128"/>
          <note len="12" key="69" pan="0" vol="78" pos="4140"/>
          <note len="12" key="66" pan="0" vol="78" pos="4152"/>
          <note len="12" key="61" pan="0" vol="78" pos="4164"/>
          <note len="12" key="68" pan="0" vol="78" pos="4176"/>
          <note len="12" key="64" pan="0" vol="78" pos="4188"/>
          <note len="12" key="61" pan="0" vol="78" pos="4200"/>
          <note len="12" key="56" pan="0" vol="78" pos="4212"/>
          <note len="12" key="69" pan="0" vol="78" pos="4224"/>
          <note len="12" key="66" pan="0" vol="78" pos="4236"/>
          <note len="12" key="57" pan="0" vol="78" pos="4248"/>
          <note len="12" key="54" pan="0" vol="78" pos="4260"/>
          <note len="12" key="57" pan="0" vol="78" pos="4272"/>
          <note len="12" key="52" pan="0" vol="78" pos="4272"/>
          <note len="12" key="62" pan="0" vol="78" pos="4284"/>
          <note len="12" key="49" pan="0" vol="78" pos="4284"/>
          <note len="12" key="74" pan="0" vol="78" pos="4296"/>
          <note len="12" key="69" pan="0" vol="78" pos="4308"/>
          <note len="12" key="66" pan="0" vol="78" pos="4320"/>
          <note len="12" key="61" pan="0" vol="78" pos="4332"/>
          <note len="12" key="57" pan="0" vol="78" pos="4344"/>
          <note len="12" key="54" pan="0" vol="78" pos="4356"/>
          <note len="12" key="78" pan="0" vol="78" pos="4368"/>
          <note len="12" key="74" pan="0" vol="78" pos="4380"/>
          <note len="12" key="69" pan="0" vol="78" pos="4392"/>
          <note len="12" key="66" pan="0" vol="78" pos="4404"/>
          <note len="12" key="69" pan="0" vol="78" pos="4416"/>
          <note len="12" key="74" pan="0" vol="78" pos="4428"/>
          <note len="12" key="81" pan="0" vol="78" pos="4440"/>
          <note len="12" key="78" pan="0" vol="78" pos="4452"/>
          <note len="12" key="73" pan="0" vol="78" pos="4464"/>
          <note len="12" key="69" pan="0" vol="78" pos="4476"/>
          <note len="12" key="66" pan="0" vol="78" pos="4488"/>
          <note len="12" key="61" pan="0" vol="78" pos="4500"/>
          <note len="12" key="74" pan="0" vol="78" pos="4512"/>
          <note len="12" key="71" pan="0" vol="78" pos="4524"/>
          <note len="12" key="66" pan="0" vol="78" pos="4536"/>
          <note len="12" key="61" pan="0" vol="78" pos="4548"/>
          <note len="12" key="69" pan="0" vol="78" pos="4560"/>
          <note len="12" key="66" pan="0" vol="78" pos="4572"/>
          <note len="12" key="61" pan="0" vol="78" pos="4584"/>
          <note len="12" key="57" pan="0" vol="78" pos="4596"/>
        </pattern>
        <pattern muted="0" name="" steps="16" type="1" pos="15744">
          <note len="24" key="61" pan="0" vol="78" pos="0"/>
          <note len="24" key="68" pan="0" vol="78" pos="24"/>
          <note len="24" key="73" pan="0" vol="78" pos="48"/>
          <note len="24" key="68" pan="0" vol="78" pos="72"/>
          <note len="24" key="76" pan="0" vol="78" pos="96"/>
          <note len="24" key="68" pan="0" vol="78" pos="120"/>
          <note len="24" key="73" pan="0" vol="78" pos="144"/>
          <note len="24" key="68" pan="0" vol="78" pos="168"/>
          <note len="24" key="63" pan="0" vol="78" pos="192"/>
          <note len="24" key="68" pan="0" vol="78" pos="216"/>
          <note len="24" key="71" pan="0" vol="78" pos="240"/>
          <note len="24" key="68" pan="0" vol="78" pos="264"/>
          <note len="24" key="63" pan="0" vol="78" pos="288"/>
          <note len="24" key="68" pan="0" vol="78" pos="312"/>
          <note len="24" key="71" pan="0" vol="78" pos="336"/>
          <note len="24" key="68" pan="0" vol="78" pos="360"/>
          <note len="24" key="64" pan="0" vol="78" pos="384"/>
          <note len="24" key="68" pan="0" vol="78" pos="408"/>
          <note len="24" key="73" pan="0" vol="78" pos="432"/>
          <note len="24" key="68" pan="0" vol="78" pos="456"/>
          <note len="24" key="64" pan="0" vol="78" pos="480"/>
          <note len="24" key="68" pan="0" vol="78" pos="504"/>
          <note len="24" key="73" pan="0" vol="78" pos="528"/>
          <note len="24" key="68" pan="0" vol="78" pos="552"/>
          <note len="24" key="66" pan="0" vol="78" pos="576"/>
          <note len="24" key="71" pan="0" vol="78" pos="600"/>
          <note len="24" key="76" pan="0" vol="78" pos="624"/>
          <note len="24" key="71" pan="0" vol="78" pos="648"/>
          <note len="24" key="66" pan="0" vol="78" pos="672"/>
          <note len="24" key="71" pan="0" vol="78" pos="696"/>
          <note len="24" key="75" pan="0" vol="78" pos="720"/>
          <note len="24" key="71" pan="0" vol="78" pos="744"/>
          <note len="24" key="64" pan="0" vol="78" pos="768"/>
          <note len="24" key="68" pan="0" vol="78" pos="792"/>
          <note len="24" key="73" pan="0" vol="78" pos="816"/>
          <note len="24" key="68" pan="0" vol="78" pos="840"/>
          <note len="24" key="64" pan="0" vol="78" pos="864"/>
          <note len="24" key="68" pan="0" vol="78" pos="888"/>
          <note len="24" key="73" pan="0" vol="78" pos="912"/>
          <note len="24" key="68" pan="0" vol="78" pos="936"/>
          <note len="24" key="63" pan="0" vol="78" pos="960"/>
          <note len="24" key="66" pan="0" vol="78" pos="984"/>
          <note len="24" key="71" pan="0" vol="78" pos="1008"/>
          <note len="24" key="66" pan="0" vol="78" pos="1032"/>
          <note len="24" key="63" pan="0" vol="78" pos="1056"/>
          <note len="24" key="66" pan="0" vol="78" pos="1080"/>
          <note len="24" key="71" pan="0" vol="78" pos="1104"/>
          <note len="24" key="66" pan="0" vol="78" pos="1128"/>
          <note len="24" key="64" pan="0" vol="78" pos="1152"/>
          <note len="24" key="68" pan="0" vol="78" pos="1176"/>
          <note len="24" key="73" pan="0" vol="78" pos="1200"/>
          <note len="24" key="68" pan="0" vol="78" pos="1224"/>
          <note len="24" key="64" pan="0" vol="78" pos="1248"/>
          <note len="24" key="68" pan="0" vol="78" pos="1272"/>
          <note len="24" key="73" pan="0" vol="78" pos="1296"/>
          <note len="24" key="68" pan="0" vol="78" pos="1320"/>
          <note len="24" key="66" pan="0" vol="78" pos="1344"/>
          <note len="24" key="68" pan="0" vol="78" pos="1368"/>
          <note len="24" key="66" pan="0" vol="78" pos="1392"/>
          <note len="24" key="64" pan="0" vol="78" pos="1416"/>
          <note len="24" key="63" pan="0" vol="78" pos="1440"/>
          <note len="24" key="60" pan="0" vol="78" pos="1464"/>
          <note len="24" key="66" pan="0" vol="78" pos="1488"/>
          <note len="24" key="63" pan="0" vol="78" pos="1512"/>
          <note len="24" key="61" pan="0" vol="78" pos="1536"/>
          <note len="24" key="68" pan="0" vol="78" pos="1560"/>
          <note len="24" key="73" pan="0" vol="78" pos="1584"/>
          <note len="24" key="68" pan="0" vol="78" pos="1608"/>
          <note len="24" key="61" pan="0" vol="78" pos="1632"/>
          <note len="24" key="68" pan="0" vol="78" pos="1656"/>
          <note len="24" key="73" pan="0" vol="78" pos="1680"/>
          <note len="24" key="68" pan="0" vol="78" pos="1704"/>
          <note len="24" key="63" pan="0" vol="78" pos="1728"/>
          <note len="24" key="68" pan="0" vol="78" pos="1752"/>
          <note len="24" key="71" pan="0" vol="78" pos="1776"/>
          <note len="24" key="68" pan="0" vol="78" pos="1800"/>
          <note len="24" key="63" pan="0" vol="78" pos="1824"/>
          <note len="24" key="68" pan="0" vol="78" pos="1848"/>
          <note len="24" key="71" pan="0" vol="78" pos="1872"/>
          <note len="24" key="68" pan="0" vol="78" pos="1896"/>
          <note len="24" key="61" pan="0" vol="78" pos="1920"/>
          <note len="24" key="66" pan="0" vol="78" pos="1944"/>
          <note len="24" key="70" pan="0" vol="78" pos="1968"/>
          <note len="24" key="66" pan="0" vol="78" pos="1992"/>
          <note len="24" key="61" pan="0" vol="78" pos="2016"/>
          <note len="24" key="66" pan="0" vol="78" pos="2040"/>
          <note len="24" key="70" pan="0" vol="78" pos="2064"/>
          <note len="24" key="66" pan="0" vol="78" pos="2088"/>
          <note len="24" key="61" pan="0" vol="78" pos="2112"/>
          <note len="24" key="66" pan="0" vol="78" pos="2136"/>
          <note len="24" key="70" pan="0" vol="78" pos="2160"/>
          <note len="24" key="66" pan="0" vol="78" pos="2184"/>
          <note len="24" key="61" pan="0" vol="78" pos="2208"/>
          <note len="24" key="66" pan="0" vol="78" pos="2232"/>
          <note len="24" key="70" pan="0" vol="78" pos="2256"/>
          <note len="24" key="66" pan="0" vol="78" pos="2280"/>
          <note len="24" key="66" pan="0" vol="78" pos="2304"/>
          <note len="24" key="69" pan="0" vol="78" pos="2328"/>
          <note len="24" key="73" pan="0" vol="78" pos="2352"/>
          <note len="24" key="69" pan="0" vol="78" pos="2376"/>
          <note len="24" key="66" pan="0" vol="78" pos="2400"/>
          <note len="24" key="69" pan="0" vol="78" pos="2424"/>
          <note len="24" key="73" pan="0" vol="78" pos="2448"/>
          <note len="24" key="69" pan="0" vol="78" pos="2472"/>
          <note len="24" key="63" pan="0" vol="78" pos="2496"/>
          <note len="24" key="68" pan="0" vol="78" pos="2520"/>
          <note len="24" key="73" pan="0" vol="78" pos="2544"/>
          <note len="24" key="68" pan="0" vol="78" pos="2568"/>
          <note len="24" key="63" pan="0" vol="78" pos="2592"/>
          <note len="24" key="68" pan="0" vol="78" pos="2616"/>
          <note len="24" key="73" pan="0" vol="78" pos="2640"/>
          <note len="24" key="68" pan="0" vol="78" pos="2664"/>
          <note len="24" key="66" pan="0" vol="78" pos="2688"/>
          <note len="24" key="71" pan="0" vol="78" pos="2712"/>
          <note len="24" key="75" pan="0" vol="78" pos="2736"/>
          <note len="24" key="71" pan="0" vol="78" pos="2760"/>
          <note len="24" key="66" pan="0" vol="78" pos="2784"/>
          <note len="24" key="71" pan="0" vol="78" pos="2808"/>
          <note len="24" key="75" pan="0" vol="78" pos="2832"/>
          <note len="24" key="71" pan="0" vol="78" pos="2856"/>
          <note len="24" key="63" pan="0" vol="78" pos="2880"/>
          <note len="24" key="51" pan="0" vol="78" pos="2880"/>
          <note len="24" key="63" pan="0" vol="78" pos="2904"/>
          <note len="24" key="51" pan="0" vol="78" pos="2904"/>
          <note len="24" key="71" pan="0" vol="78" pos="2976"/>
          <note len="24" key="59" pan="0" vol="78" pos="2976"/>
          <note len="24" key="71" pan="0" vol="78" pos="3000"/>
          <note len="24" key="59" pan="0" vol="78" pos="3000"/>
          <note len="12" key="56" pan="0" vol="78" pos="3072"/>
          <note len="12" key="61" pan="0" vol="78" pos="3084"/>
          <note len="12" key="64" pan="0" vol="78" pos="3096"/>
          <note len="12" key="68" pan="0" vol="78" pos="3108"/>
          <note len="12" key="73" pan="0" vol="78" pos="3120"/>
          <note len="12" key="76" pan="0" vol="78" pos="3132"/>
          <note len="12" key="80" pan="0" vol="78" pos="3144"/>
          <note len="12" key="83" pan="0" vol="78" pos="3156"/>
          <note len="12" key="73" pan="0" vol="78" pos="3168"/>
          <note len="12" key="83" pan="0" vol="78" pos="3180"/>
          <note len="12" key="80" pan="0" vol="78" pos="3192"/>
          <note len="12" key="76" pan="0" vol="78" pos="3204"/>
          <note len="12" key="73" pan="0" vol="78" pos="3216"/>
          <note len="12" key="68" pan="0" vol="78" pos="3228"/>
          <note len="12" key="64" pan="0" vol="78" pos="3240"/>
          <note len="12" key="61" pan="0" vol="78" pos="3252"/>
          <note len="12" key="56" pan="0" vol="78" pos="3264"/>
          <note len="12" key="61" pan="0" vol="78" pos="3276"/>
          <note len="12" key="64" pan="0" vol="78" pos="3288"/>
          <note len="12" key="68" pan="0" vol="78" pos="3300"/>
          <note len="12" key="73" pan="0" vol="78" pos="3312"/>
          <note len="12" key="76" pan="0" vol="78" pos="3324"/>
          <note len="12" key="80" pan="0" vol="78" pos="3336"/>
          <note len="12" key="83" pan="0" vol="78" pos="3348"/>
          <note len="12" key="73" pan="0" vol="78" pos="3360"/>
          <note len="12" key="83" pan="0" vol="78" pos="3372"/>
          <note len="12" key="80" pan="0" vol="78" pos="3384"/>
          <note len="12" key="76" pan="0" vol="78" pos="3396"/>
          <note len="12" key="73" pan="0" vol="78" pos="3408"/>
          <note len="12" key="68" pan="0" vol="78" pos="3420"/>
          <note len="12" key="64" pan="0" vol="78" pos="3432"/>
          <note len="12" key="61" pan="0" vol="78" pos="3444"/>
          <note len="12" key="54" pan="0" vol="78" pos="3456"/>
          <note len="12" key="59" pan="0" vol="78" pos="3468"/>
          <note len="12" key="63" pan="0" vol="78" pos="3480"/>
          <note len="12" key="66" pan="0" vol="78" pos="3492"/>
          <note len="12" key="69" pan="0" vol="78" pos="3504"/>
          <note len="12" key="73" pan="0" vol="78" pos="3516"/>
          <note len="12" key="76" pan="0" vol="78" pos="3528"/>
          <note len="12" key="80" pan="0" vol="78" pos="3540"/>
          <note len="12" key="83" pan="0" vol="78" pos="3552"/>
          <note len="12" key="80" pan="0" vol="78" pos="3564"/>
          <note len="12" key="75" pan="0" vol="78" pos="3576"/>
          <note len="12" key="71" pan="0" vol="78" pos="3588"/>
          <note len="12" key="66" pan="0" vol="78" pos="3600"/>
          <note len="12" key="61" pan="0" vol="78" pos="3612"/>
          <note len="12" key="59" pan="0" vol="78" pos="3624"/>
          <note len="12" key="54" pan="0" vol="78" pos="3636"/>
          <note len="12" key="54" pan="0" vol="78" pos="3648"/>
          <note len="12" key="59" pan="0" vol="78" pos="3660"/>
          <note len="12" key="63" pan="0" vol="78" pos="3672"/>
          <note len="12" key="66" pan="0" vol="78" pos="3684"/>
          <note len="12" key="69" pan="0" vol="78" pos="3696"/>
          <note len="12" key="73" pan="0" vol="78" pos="3708"/>
          <note len="12" key="76" pan="0" vol="78" pos="3720"/>
          <note len="12" key="80" pan="0" vol="78" pos="3732"/>
          <note len="12" key="83" pan="0" vol="78" pos="3744"/>
          <note len="12" key="80" pan="0" vol="78" pos="3756"/>
          <note len="12" key="75" pan="0" vol="78" pos="3768"/>
          <note len="12" key="71" pan="0" vol="78" pos="3780"/>
          <note len="12" key="66" pan="0" vol="78" pos="3792"/>
          <note len="12" key="61" pan="0" vol="78" pos="3804"/>
          <note len="12" key="59" pan="0" vol="78" pos="3816"/>
          <note len="12" key="54" pan="0" vol="78" pos="3828"/>
          <note len="12" key="54" pan="0" vol="78" pos="3840"/>
          <note len="12" key="57" pan="0" vol="78" pos="3852"/>
          <note len="12" key="61" pan="0" vol="78" pos="3864"/>
          <note len="12" key="64" pan="0" vol="78" pos="3876"/>
          <note len="12" key="66" pan="0" vol="78" pos="3888"/>
          <note len="12" key="73" pan="0" vol="78" pos="3900"/>
          <note len="12" key="76" pan="0" vol="78" pos="3912"/>
          <note len="12" key="78" pan="0" vol="78" pos="3924"/>
          <note len="12" key="82" pan="0" vol="78" pos="3936"/>
          <note len="12" key="78" pan="0" vol="78" pos="3948"/>
          <note len="12" key="76" pan="0" vol="78" pos="3960"/>
          <note len="12" key="73" pan="0" vol="78" pos="3972"/>
          <note len="12" key="66" pan="0" vol="78" pos="3984"/>
          <note len="12" key="64" pan="0" vol="78" pos="3996"/>
          <note len="12" key="61" pan="0" vol="78" pos="4008"/>
          <note len="12" key="57" pan="0" vol="78" pos="4020"/>
          <note len="12" key="54" pan="0" vol="78" pos="4032"/>
          <note len="12" key="57" pan="0" vol="78" pos="4044"/>
          <note len="12" key="61" pan="0" vol="78" pos="4056"/>
          <note len="12" key="64" pan="0" vol="78" pos="4068"/>
          <note len="12" key="66" pan="0" vol="78" pos="4080"/>
          <note len="12" key="73" pan="0" vol="78" pos="4092"/>
          <note len="12" key="76" pan="0" vol="78" pos="4104"/>
          <note len="12" key="78" pan="0" vol="78" pos="4116"/>
          <note len="12" key="82" pan="0" vol="78" pos="4128"/>
          <note len="12" key="78" pan="0" vol="78" pos="4140"/>
          <note len="12" key="76" pan="0" vol="78" pos="4152"/>
          <note len="12" key="73" pan="0" vol="78" pos="4164"/>
          <note len="12" key="66" pan="0" vol="78" pos="4176"/>
          <note len="12" key="64" pan="0" vol="78" pos="4188"/>
          <note len="12" key="61" pan="0" vol="78" pos="4200"/>
          <note len="12" key="57" pan="0" vol="78" pos="4212"/>
          <note len="12" key="51" pan="0" vol="78" pos="4224"/>
          <note len="12" key="54" pan="0" vol="78" pos="4236"/>
          <note len="12" key="57" pan="0" vol="78" pos="4248"/>
          <note len="12" key="63" pan="0" vol="78" pos="4260"/>
          <note len="12" key="66" pan="0" vol="78" pos="4272"/>
          <note len="12" key="69" pan="0" vol="78" pos="4284"/>
          <note len="12" key="73" pan="0" vol="78" pos="4296"/>
          <note len="12" key="76" pan="0" vol="78" pos="4308"/>
          <note len="12" key="81" pan="0" vol="78" pos="4320"/>
          <note len="12" key="78" pan="0" vol="78" pos="4332"/>
          <note len="12" key="73" pan="0" vol="78" pos="4344"/>
          <note len="12" key="69" pan="0" vol="78" pos="4356"/>
          <note len="12" key="66" pan="0" vol="78" pos="4368"/>
          <note len="12" key="63" pan="0" vol="78" pos="4380"/>
          <note len="12" key="57" pan="0" vol="78" pos="4392"/>
          <note len="12" key="54" pan="0" vol="78" pos="4404"/>
          <note len="12" key="51" pan="0" vol="78" pos="4416"/>
          <note len="12" key="54" pan="0" vol="78" pos="4428"/>
          <note len="12" key="57" pan="0" vol="78" pos="4440"/>
          <note len="12" key="63" pan="0" vol="78" pos="4452"/>
          <note len="12" key="66" pan="0" vol="78" pos="4464"/>
          <note len="12" key="69" pan="0" vol="78" pos="4476"/>
          <note len="12" key="73" pan="0" vol="78" pos="4488"/>
          <note len="12" key="76" pan="0" vol="78" pos="4500"/>
          <note len="12" key="81" pan="0" vol="78" pos="4512"/>
          <note len="12" key="78" pan="0" vol="78" pos="4524"/>
          <note len="12" key="73" pan="0" vol="78" pos="4536"/>
          <note len="12" key="69" pan="0" vol="78" pos="4548"/>
          <note len="12" key="66" pan="0" vol="78" pos="4560"/>
          <note len="12" key="63" pan="0" vol="78" pos="4572"/>
          <note len="12" key="57" pan="0" vol="78" pos="4584"/>
          <note len="12" key="54" pan="0" vol="78" pos="4596"/>
          <note len="12" key="52" pan="0" vol="78" pos="4608"/>
          <note len="12" key="61" pan="0" vol="78" pos="4620"/>
          <note len="12" key="64" pan="0" vol="78" pos="4632"/>
          <note len="12" key="68" pan="0" vol="78" pos="4644"/>
          <note len="12" key="73" pan="0" vol="78" pos="4656"/>
          <note len="12" key="76" pan="0" vol="78" pos="4668"/>
          <note len="12" key="80" pan="0" vol="78" pos="4680"/>
          <note len="12" key="83" pan="0" vol="78" pos="4692"/>
          <note len="12" key="73" pan="0" vol="78" pos="4704"/>
          <note len="12" key="83" pan="0" vol="78" pos="4716"/>
          <note len="12" key="80" pan="0" vol="78" pos="4728"/>
          <note len="12" key="76" pan="0" vol="78" pos="4740"/>
          <note len="12" key="73" pan="0" vol="78" pos="4752"/>
          <note len="12" key="68" pan="0" vol="78" pos="4764"/>
          <note len="12" key="64" pan="0" vol="78" pos="4776"/>
          <note len="12" key="61" pan="0" vol="78" pos="4788"/>
          <note len="12" key="52" pan="0" vol="78" pos="4800"/>
          <note len="12" key="61" pan="0" vol="78" pos="4812"/>
          <note len="12" key="64" pan="0" vol="78" pos="4824"/>
          <note len="12" key="68" pan="0" vol="78" pos="4836"/>
          <note len="12" key="73" pan="0" vol="78" pos="4848"/>
          <note len="12" key="76" pan="0" vol="78" pos="4860"/>
          <note len="12" key="80" pan="0" vol="78" pos="4872"/>
          <note len="12" key="83" pan="0" vol="78" pos="4884"/>
          <note len="12" key="73" pan="0" vol="78" pos="4896"/>
          <note len="12" key="83" pan="0" vol="78" pos="4908"/>
          <note len="12" key="80" pan="0" vol="78" pos="4920"/>
          <note len="12" key="76" pan="0" vol="78" pos="4932"/>
          <note len="12" key="73" pan="0" vol="78" pos="4944"/>
          <note len="12" key="68" pan="0" vol="78" pos="4956"/>
          <note len="12" key="64" pan="0" vol="78" pos="4968"/>
          <note len="12" key="61" pan="0" vol="78" pos="4980"/>
          <note len="12" key="54" pan="0" vol="78" pos="4992"/>
          <note len="12" key="59" pan="0" vol="78" pos="5004"/>
          <note len="12" key="63" pan="0" vol="78" pos="5016"/>
          <note len="12" key="66" pan="0" vol="78" pos="5028"/>
          <note len="12" key="69" pan="0" vol="78" pos="5040"/>
          <note len="12" key="73" pan="0" vol="78" pos="5052"/>
          <note len="12" key="76" pan="0" vol="78" pos="5064"/>
          <note len="12" key="80" pan="0" vol="78" pos="5076"/>
          <note len="12" key="83" pan="0" vol="78" pos="5088"/>
          <note len="12" key="80" pan="0" vol="78" pos="5100"/>
          <note len="12" key="75" pan="0" vol="78" pos="5112"/>
          <note len="12" key="71" pan="0" vol="78" pos="5124"/>
          <note len="12" key="66" pan="0" vol="78" pos="5136"/>
          <note len="12" key="61" pan="0" vol="78" pos="5148"/>
          <note len="12" key="59" pan="0" vol="78" pos="5160"/>
          <note len="12" key="54" pan="0" vol="78" pos="5172"/>
          <note len="12" key="54" pan="0" vol="78" pos="5184"/>
          <note len="12" key="59" pan="0" vol="78" pos="5196"/>
          <note len="12" key="63" pan="0" vol="78" pos="5208"/>
          <note len="12" key="66" pan="0" vol="78" pos="5220"/>
          <note len="12" key="69" pan="0" vol="78" pos="5232"/>
          <note len="12" key="73" pan="0" vol="78" pos="5244"/>
          <note len="12" key="76" pan="0" vol="78" pos="5256"/>
          <note len="12" key="80" pan="0" vol="78" pos="5268"/>
          <note len="12" key="83" pan="0" vol="78" pos="5280"/>
          <note len="12" key="80" pan="0" vol="78" pos="5292"/>
          <note len="12" key="75" pan="0" vol="78" pos="5304"/>
          <note len="12" key="71" pan="0" vol="78" pos="5316"/>
          <note len="12" key="66" pan="0" vol="78" pos="5328"/>
          <note len="12" key="61" pan="0" vol="78" pos="5340"/>
          <note len="12" key="59" pan="0" vol="78" pos="5352"/>
          <note len="12" key="54" pan="0" vol="78" pos="5364"/>
          <note len="12" key="54" pan="0" vol="78" pos="5376"/>
          <note len="12" key="57" pan="0" vol="78" pos="5388"/>
          <note len="12" key="63" pan="0" vol="78" pos="5400"/>
          <note len="12" key="66" pan="0" vol="78" pos="5412"/>
          <note len="12" key="69" pan="0" vol="78" pos="5424"/>
          <note len="12" key="73" pan="0" vol="78" pos="5436"/>
          <note len="12" key="76" pan="0" vol="78" pos="5448"/>
          <note len="12" key="81" pan="0" vol="78" pos="5460"/>
          <note len="12" key="75" pan="0" vol="78" pos="5472"/>
          <note len="12" key="81" pan="0" vol="78" pos="5484"/>
          <note len="12" key="76" pan="0" vol="78" pos="5496"/>
          <note len="12" key="73" pan="0" vol="78" pos="5508"/>
          <note len="12" key="69" pan="0" vol="78" pos="5520"/>
          <note len="12" key="66" pan="0" vol="78" pos="5532"/>
          <note len="12" key="63" pan="0" vol="78" pos="5544"/>
          <note len="12" key="57" pan="0" vol="78" pos="5556"/>
          <note len="12" key="54" pan="0" vol="78" pos="5568"/>
          <note len="12" key="57" pan="0" vol="78" pos="5580"/>
          <note len="12" key="63" pan="0" vol="78" pos="5592"/>
          <note len="12" key="66" pan="0" vol="78" pos="5604"/>
          <note len="12" key="69" pan="0" vol="78" pos="5616"/>
          <note len="12" key="73" pan="0" vol="78" pos="5628"/>
          <note len="12" key="76" pan="0" vol="78" pos="5640"/>
          <note len="12" key="81" pan="0" vol="78" pos="5652"/>
          <note len="12" key="75" pan="0" vol="78" pos="5664"/>
          <note len="12" key="81" pan="0" vol="78" pos="5676"/>
          <note len="12" key="76" pan="0" vol="78" pos="5688"/>
          <note len="12" key="73" pan="0" vol="78" pos="5700"/>
          <note len="12" key="69" pan="0" vol="78" pos="5712"/>
          <note len="12" key="66" pan="0" vol="78" pos="5724"/>
          <note len="12" key="63" pan="0" vol="78" pos="5736"/>
          <note len="12" key="57" pan="0" vol="78" pos="5748"/>
          <note len="12" key="57" pan="0" vol="78" pos="5760"/>
          <note len="12" key="61" pan="0" vol="78" pos="5772"/>
          <note len="12" key="64" pan="0" vol="78" pos="5784"/>
          <note len="12" key="68" pan="0" vol="78" pos="5796"/>
          <note len="12" key="71" pan="0" vol="78" pos="5808"/>
          <note len="12" key="75" pan="0" vol="78" pos="5820"/>
          <note len="12" key="78" pan="0" vol="78" pos="5832"/>
          <note len="12" key="81" pan="0" vol="78" pos="5844"/>
          <note len="12" key="73" pan="0" vol="78" pos="5856"/>
          <note len="12" key="81" pan="0" vol="78" pos="5868"/>
          <note len="12" key="78" pan="0" vol="78" pos="5880"/>
          <note len="12" key="75" pan="0" vol="78" pos="5892"/>
          <note len="12" key="71" pan="0" vol="78" pos="5904"/>
          <note len="12" key="68" pan="0" vol="78" pos="5916"/>
          <note len="12" key="64" pan="0" vol="78" pos="5928"/>
          <note len="12" key="61" pan="0" vol="78" pos="5940"/>
          <note len="12" key="57" pan="0" vol="78" pos="5952"/>
          <note len="12" key="61" pan="0" vol="78" pos="5964"/>
          <note len="12" key="64" pan="0" vol="78" pos="5976"/>
          <note len="12" key="68" pan="0" vol="78" pos="5988"/>
          <note len="12" key="71" pan="0" vol="78" pos="6000"/>
          <note len="12" key="75" pan="0" vol="78" pos="6012"/>
          <note len="12" key="78" pan="0" vol="78" pos="6024"/>
          <note len="12" key="81" pan="0" vol="78" pos="6036"/>
          <note len="12" key="72" pan="0" vol="78" pos="6048"/>
          <note len="12" key="81" pan="0" vol="78" pos="6060"/>
          <note len="12" key="78" pan="0" vol="78" pos="6072"/>
          <note len="12" key="75" pan="0" vol="78" pos="6084"/>
          <note len="12" key="71" pan="0" vol="78" pos="6096"/>
          <note len="12" key="68" pan="0" vol="78" pos="6108"/>
          <note len="12" key="64" pan="0" vol="78" pos="6120"/>
          <note len="12" key="61" pan="0" vol="78" pos="6132"/>
        </pattern>
        <pattern muted="0" name="" steps="16" type="1" pos="4992">
          <note len="24" key="61" pan="0" vol="78" pos="0"/>
          <note len="24" key="63" pan="0" vol="78" pos="24"/>
          <note len="24" key="61" pan="0" vol="78" pos="48"/>
          <note len="48" key="68" pan="0" vol="78" pos="72"/>
          <note len="24" key="61" pan="0" vol="78" pos="120"/>
          <note len="24" key="64" pan="0" vol="78" pos="144"/>
          <note len="24" key="68" pan="0" vol="78" pos="168"/>
          <note len="24" key="71" pan="0" vol="78" pos="192"/>
          <note len="24" key="69" pan="0" vol="78" pos="216"/>
          <note len="24" key="68" pan="0" vol="78" pos="240"/>
          <note len="48" key="69" pan="0" vol="78" pos="264"/>
          <note len="24" key="68" pan="0" vol="78" pos="312"/>
          <note len="24" key="66" pan="0" vol="78" pos="336"/>
          <note len="24" key="68" pan="0" vol="78" pos="360"/>
        </pattern>
        <pattern muted="0" name="" steps="16" type="1" pos="5376">
          <note len="24" key="68" pan="0" vol="78" pos="0"/>
          <note len="24" key="0" pan="0" vol="78" pos="0"/>
          <note len="24" key="71" pan="0" vol="78" pos="24"/>
          <note len="24" key="68" pan="0" vol="78" pos="48"/>
          <note len="48" key="75" pan="0" vol="78" pos="72"/>
          <note len="24" key="68" pan="0" vol="78" pos="120"/>
          <note len="24" key="71" pan="0" vol="78" pos="144"/>
          <note len="24" key="75" pan="0" vol="78" pos="168"/>
          <note len="24" key="76" pan="0" vol="78" pos="192"/>
          <note len="24" key="75" pan="0" vol="78" pos="216"/>
          <note len="24" key="73" pan="0" vol="78" pos="240"/>
          <note len="24" key="71" pan="0" vol="78" pos="264"/>
          <note len="24" key="75" pan="0" vol="78" pos="288"/>
          <note len="24" key="73" pan="0" vol="78" pos="312"/>
          <note len="24" key="71" pan="0" vol="78" pos="336"/>
          <note len="24" key="68" pan="0" vol="78" pos="360"/>
        </pattern>
        <pattern muted="0" name="" steps="16" type="1" pos="5760">
          <note len="24" key="61" pan="0" vol="78" pos="0"/>
          <note len="48" key="0" pan="0" vol="100" pos="0"/>
          <note len="24" key="63" pan="0" vol="78" pos="24"/>
          <note len="24" key="61" pan="0" vol="78" pos="48"/>
          <note len="48" key="68" pan="0" vol="78" pos="72"/>
          <note len="24" key="61" pan="0" vol="78" pos="120"/>
          <note len="24" key="64" pan="0" vol="78" pos="144"/>
          <note len="24" key="68" pan="0" vol="78" pos="168"/>
          <note len="24" key="71" pan="0" vol="78" pos="192"/>
          <note len="24" key="73" pan="0" vol="78" pos="216"/>
          <note len="24" key="75" pan="0" vol="78" pos="240"/>
          <note len="48" key="73" pan="0" vol="78" pos="264"/>
          <note len="24" key="75" pan="0" vol="78" pos="312"/>
          <note len="24" key="76" pan="0" vol="78" pos="336"/>
          <note len="24" key="78" pan="0" vol="78" pos="360"/>
        </pattern>
        <pattern muted="0" name="" steps="16" type="1" pos="6144">
          <note len="24" key="87" pan="0" vol="78" pos="0"/>
          <note len="24" key="76" pan="0" vol="78" pos="24"/>
          <note len="24" key="80" pan="0" vol="78" pos="48"/>
          <note len="48" key="83" pan="0" vol="78" pos="72"/>
          <note len="24" key="80" pan="0" vol="78" pos="120"/>
          <note len="24" key="83" pan="0" vol="78" pos="144"/>
          <note len="24" key="87" pan="0" vol="78" pos="168"/>
          <note len="24" key="85" pan="0" vol="78" pos="192"/>
          <note len="24" key="80" pan="0" vol="78" pos="216"/>
          <note len="24" key="76" pan="0" vol="78" pos="240"/>
          <note len="24" key="73" pan="0" vol="78" pos="264"/>
          <note len="24" key="78" pan="0" vol="78" pos="288"/>
          <note len="24" key="76" pan="0" vol="78" pos="312"/>
          <note len="24" key="80" pan="0" vol="78" pos="336"/>
          <note len="24" key="76" pan="0" vol="78" pos="360"/>
          <note len="120" key="69" pan="0" vol="78" pos="384"/>
          <note len="24" key="68" pan="0" vol="78" pos="504"/>
          <note len="24" key="69" pan="0" vol="78" pos="528"/>
          <note len="24" key="71" pan="0" vol="78" pos="552"/>
          <note len="72" key="73" pan="0" vol="78" pos="576"/>
          <note len="72" key="71" pan="0" vol="78" pos="648"/>
          <note len="48" key="69" pan="0" vol="78" pos="720"/>
          <note len="24" key="68" pan="0" vol="78" pos="768"/>
          <note len="24" key="69" pan="0" vol="78" pos="792"/>
          <note len="24" key="68" pan="0" vol="78" pos="816"/>
          <note len="48" key="64" pan="0" vol="78" pos="840"/>
          <note len="24" key="64" pan="0" vol="78" pos="888"/>
          <note len="24" key="66" pan="0" vol="78" pos="912"/>
          <note len="24" key="68" pan="0" vol="78" pos="936"/>
          <note len="96" key="66" pan="0" vol="78" pos="960"/>
        </pattern>
        <pattern muted="0" name="" steps="16" type="0" pos="12672"/>
        <pattern muted="0" name="" steps="16" type="1" pos="29568">
          <note len="12" key="68" pan="0" vol="152" pos="0"/>
          <note len="12" key="66" pan="0" vol="152" pos="12"/>
          <note len="12" key="64" pan="0" vol="152" pos="24"/>
          <note len="12" key="61" pan="0" vol="152" pos="36"/>
          <note len="12" key="59" pan="0" vol="152" pos="48"/>
          <note len="12" key="61" pan="0" vol="152" pos="60"/>
          <note len="12" key="66" pan="0" vol="152" pos="72"/>
          <note len="12" key="64" pan="0" vol="152" pos="84"/>
          <note len="12" key="61" pan="0" vol="152" pos="96"/>
          <note len="12" key="64" pan="0" vol="152" pos="108"/>
          <note len="12" key="68" pan="0" vol="152" pos="120"/>
          <note len="12" key="66" pan="0" vol="152" pos="132"/>
          <note len="12" key="64" pan="0" vol="152" pos="144"/>
          <note len="12" key="61" pan="0" vol="152" pos="156"/>
          <note len="12" key="64" pan="0" vol="152" pos="168"/>
          <note len="12" key="66" pan="0" vol="152" pos="180"/>
        </pattern>
        <pattern muted="0" name="" steps="16" type="1" pos="29760">
          <note len="12" key="68" pan="0" vol="152" pos="0"/>
          <note len="12" key="66" pan="0" vol="152" pos="12"/>
          <note len="12" key="64" pan="0" vol="152" pos="24"/>
          <note len="12" key="61" pan="0" vol="152" pos="36"/>
          <note len="12" key="59" pan="0" vol="152" pos="48"/>
          <note len="12" key="61" pan="0" vol="152" pos="60"/>
          <note len="12" key="66" pan="0" vol="152" pos="72"/>
          <note len="12" key="64" pan="0" vol="152" pos="84"/>
          <note len="12" key="61" pan="0" vol="152" pos="96"/>
          <note len="12" key="64" pan="0" vol="152" pos="108"/>
          <note len="12" key="71" pan="0" vol="152" pos="120"/>
          <note len="12" key="68" pan="0" vol="152" pos="132"/>
          <note len="12" key="66" pan="0" vol="152" pos="144"/>
          <note len="12" key="68" pan="0" vol="152" pos="156"/>
          <note len="12" key="66" pan="0" vol="152" pos="168"/>
          <note len="12" key="64" pan="0" vol="152" pos="180"/>
        </pattern>
        <pattern muted="0" name="" steps="16" type="1" pos="13824">
          <note len="120" key="69" pan="0" vol="78" pos="384"/>
          <note len="24" key="68" pan="0" vol="78" pos="504"/>
          <note len="24" key="69" pan="0" vol="78" pos="528"/>
          <note len="24" key="71" pan="0" vol="78" pos="552"/>
          <note len="72" key="73" pan="0" vol="78" pos="576"/>
          <note len="72" key="71" pan="0" vol="78" pos="648"/>
          <note len="48" key="69" pan="0" vol="78" pos="720"/>
          <note len="24" key="68" pan="0" vol="78" pos="768"/>
          <note len="24" key="69" pan="0" vol="78" pos="792"/>
          <note len="24" key="68" pan="0" vol="78" pos="816"/>
          <note len="48" key="64" pan="0" vol="78" pos="840"/>
          <note len="24" key="64" pan="0" vol="78" pos="888"/>
          <note len="24" key="66" pan="0" vol="78" pos="912"/>
          <note len="24" key="68" pan="0" vol="78" pos="936"/>
          <note len="96" key="66" pan="0" vol="78" pos="960"/>
        </pattern>
        <pattern muted="0" name="" steps="16" type="1" pos="29952">
          <note len="12" key="73" pan="0" vol="100" pos="0"/>
          <note len="12" key="71" pan="0" vol="100" pos="12"/>
          <note len="12" key="68" pan="0" vol="100" pos="24"/>
          <note len="12" key="66" pan="0" vol="100" pos="36"/>
          <note len="12" key="71" pan="0" vol="100" pos="48"/>
          <note len="12" key="68" pan="0" vol="100" pos="60"/>
          <note len="12" key="66" pan="0" vol="100" pos="72"/>
          <note len="12" key="64" pan="0" vol="100" pos="84"/>
          <note len="12" key="68" pan="0" vol="100" pos="96"/>
          <note len="12" key="66" pan="0" vol="100" pos="108"/>
          <note len="12" key="64" pan="0" vol="100" pos="120"/>
          <note len="12" key="61" pan="0" vol="100" pos="132"/>
          <note len="12" key="64" pan="0" vol="100" pos="144"/>
          <note len="12" key="66" pan="0" vol="100" pos="156"/>
          <note len="12" key="68" pan="0" vol="100" pos="168"/>
          <note len="12" key="71" pan="0" vol="100" pos="180"/>
          <note len="12" key="68" pan="0" vol="100" pos="192"/>
          <note len="12" key="66" pan="0" vol="100" pos="204"/>
          <note len="12" key="64" pan="0" vol="100" pos="216"/>
          <note len="12" key="61" pan="0" vol="100" pos="228"/>
          <note len="12" key="64" pan="0" vol="100" pos="240"/>
          <note len="12" key="61" pan="0" vol="100" pos="252"/>
          <note len="12" key="59" pan="0" vol="100" pos="264"/>
          <note len="12" key="61" pan="0" vol="100" pos="276"/>
          <note len="12" key="59" pan="0" vol="100" pos="288"/>
          <note len="12" key="56" pan="0" vol="100" pos="300"/>
          <note len="12" key="54" pan="0" vol="100" pos="312"/>
          <note len="12" key="56" pan="0" vol="100" pos="324"/>
          <note len="48" key="49" pan="0" vol="100" pos="336"/>
        </pattern>
        <pattern muted="0" name="" steps="16" type="1" pos="30336">
          <note len="12" key="57" pan="0" vol="48" pos="0"/>
          <note len="12" key="57" pan="0" vol="48" pos="12"/>
          <note len="12" key="56" pan="0" vol="48" pos="24"/>
          <note len="12" key="56" pan="0" vol="48" pos="36"/>
          <note len="12" key="54" pan="0" vol="48" pos="48"/>
          <note len="12" key="54" pan="0" vol="48" pos="60"/>
          <note len="12" key="61" pan="0" vol="48" pos="72"/>
          <note len="12" key="61" pan="0" vol="48" pos="84"/>
          <note len="12" key="59" pan="0" vol="48" pos="96"/>
          <note len="12" key="59" pan="0" vol="48" pos="108"/>
          <note len="12" key="57" pan="0" vol="48" pos="120"/>
          <note len="12" key="57" pan="0" vol="48" pos="132"/>
          <note len="12" key="59" pan="0" vol="48" pos="144"/>
          <note len="12" key="59" pan="0" vol="48" pos="156"/>
          <note len="12" key="61" pan="0" vol="48" pos="168"/>
          <note len="12" key="61" pan="0" vol="48" pos="180"/>
          <note len="48" key="62" pan="0" vol="48" pos="192"/>
          <note len="12" key="61" pan="0" vol="48" pos="240"/>
          <note len="12" key="62" pan="0" vol="48" pos="252"/>
          <note len="12" key="64" pan="0" vol="48" pos="264"/>
          <note len="12" key="66" pan="0" vol="48" pos="276"/>
          <note len="12" key="68" pan="0" vol="48" pos="288"/>
          <note len="12" key="66" pan="0" vol="48" pos="300"/>
          <note len="12" key="64" pan="0" vol="48" pos="312"/>
          <note len="12" key="66" pan="0" vol="48" pos="324"/>
          <note len="12" key="69" pan="0" vol="48" pos="336"/>
          <note len="12" key="68" pan="0" vol="48" pos="348"/>
          <note len="12" key="66" pan="0" vol="48" pos="360"/>
          <note len="12" key="68" pan="0" vol="48" pos="372"/>
          <note len="24" key="68" pan="0" vol="48" pos="384"/>
          <note len="24" key="69" pan="0" vol="48" pos="408"/>
          <note len="48" key="66" pan="0" vol="48" pos="456"/>
          <note len="12" key="62" pan="0" vol="48" pos="504"/>
          <note len="12" key="62" pan="0" vol="48" pos="516"/>
          <note len="12" key="66" pan="0" vol="48" pos="528"/>
          <note len="12" key="66" pan="0" vol="48" pos="540"/>
          <note len="12" key="68" pan="0" vol="48" pos="552"/>
          <note len="12" key="68" pan="0" vol="48" pos="564"/>
          <note len="24" key="71" pan="0" vol="48" pos="576"/>
          <note len="12" key="69" pan="0" vol="48" pos="600"/>
          <note len="12" key="71" pan="0" vol="48" pos="612"/>
          <note len="24" key="73" pan="0" vol="48" pos="624"/>
          <note len="12" key="71" pan="0" vol="48" pos="648"/>
          <note len="12" key="73" pan="0" vol="48" pos="660"/>
          <note len="12" key="76" pan="0" vol="48" pos="672"/>
          <note len="12" key="74" pan="0" vol="48" pos="684"/>
          <note len="12" key="73" pan="0" vol="48" pos="696"/>
          <note len="12" key="71" pan="0" vol="48" pos="708"/>
          <note len="12" key="69" pan="0" vol="48" pos="720"/>
          <note len="12" key="68" pan="0" vol="48" pos="732"/>
          <note len="12" key="66" pan="0" vol="48" pos="744"/>
          <note len="12" key="64" pan="0" vol="48" pos="756"/>
        </pattern>
        <pattern muted="0" name="" steps="16" type="1" pos="38016">
          <note len="12" key="69" pan="0" vol="100" pos="0"/>
          <note len="12" key="1" pan="0" vol="100" pos="0"/>
          <note len="12" key="74" pan="0" vol="100" pos="12"/>
          <note len="12" key="78" pan="0" vol="100" pos="24"/>
          <note len="12" key="81" pan="0" vol="100" pos="36"/>
          <note len="12" key="0" pan="0" vol="100" pos="36"/>
          <note len="12" key="86" pan="0" vol="100" pos="48"/>
          <note len="12" key="81" pan="0" vol="100" pos="60"/>
          <note len="12" key="78" pan="0" vol="100" pos="72"/>
          <note len="12" key="1" pan="0" vol="100" pos="72"/>
          <note len="12" key="74" pan="0" vol="100" pos="84"/>
          <note len="12" key="81" pan="0" vol="100" pos="96"/>
          <note len="12" key="0" pan="0" vol="100" pos="96"/>
          <note len="12" key="80" pan="0" vol="100" pos="108"/>
          <note len="12" key="78" pan="0" vol="100" pos="120"/>
          <note len="12" key="1" pan="0" vol="100" pos="120"/>
          <note len="12" key="74" pan="0" vol="100" pos="132"/>
          <note len="12" key="83" pan="0" vol="100" pos="144"/>
          <note len="12" key="0" pan="0" vol="100" pos="144"/>
          <note len="12" key="81" pan="0" vol="100" pos="156"/>
          <note len="12" key="80" pan="0" vol="100" pos="168"/>
          <note len="12" key="1" pan="0" vol="100" pos="168"/>
          <note len="12" key="78" pan="0" vol="100" pos="180"/>
          <note len="12" key="83" pan="0" vol="121" pos="192"/>
          <note len="12" key="85" pan="0" vol="121" pos="204"/>
          <note len="12" key="83" pan="0" vol="121" pos="216"/>
          <note len="12" key="81" pan="0" vol="121" pos="228"/>
          <note len="12" key="80" pan="0" vol="121" pos="240"/>
          <note len="12" key="81" pan="0" vol="121" pos="252"/>
          <note len="12" key="80" pan="0" vol="121" pos="264"/>
          <note len="12" key="78" pan="0" vol="121" pos="276"/>
          <note len="12" key="83" pan="0" vol="121" pos="288"/>
          <note len="24" key="0" pan="0" vol="121" pos="288"/>
          <note len="12" key="85" pan="0" vol="121" pos="300"/>
          <note len="48" key="88" pan="0" vol="121" pos="312"/>
          <note len="24" key="85" pan="0" vol="121" pos="360"/>
          <note len="24" key="81" pan="0" vol="100" pos="384"/>
          <note len="24" key="80" pan="0" vol="100" pos="408"/>
          <note len="24" key="76" pan="0" vol="100" pos="432"/>
          <note len="24" key="81" pan="0" vol="100" pos="456"/>
          <note len="24" key="80" pan="0" vol="100" pos="480"/>
          <note len="24" key="78" pan="0" vol="100" pos="504"/>
          <note len="24" key="76" pan="0" vol="100" pos="528"/>
          <note len="24" key="80" pan="0" vol="100" pos="552"/>
          <note len="12" key="78" pan="0" vol="100" pos="576"/>
          <note len="12" key="0" pan="0" vol="100" pos="576"/>
          <note len="12" key="80" pan="0" vol="100" pos="588"/>
          <note len="12" key="2" pan="0" vol="100" pos="588"/>
          <note len="48" key="78" pan="0" vol="100" pos="600"/>
          <note len="12" key="1" pan="0" vol="100" pos="636"/>
          <note len="12" key="75" pan="0" vol="100" pos="648"/>
          <note len="12" key="76" pan="0" vol="100" pos="660"/>
          <note len="12" key="78" pan="0" vol="100" pos="672"/>
          <note len="12" key="0" pan="0" vol="100" pos="672"/>
          <note len="12" key="76" pan="0" vol="100" pos="684"/>
          <note len="12" key="75" pan="0" vol="100" pos="696"/>
          <note len="12" key="76" pan="0" vol="100" pos="708"/>
          <note len="12" key="1" pan="0" vol="100" pos="708"/>
          <note len="12" key="75" pan="0" vol="100" pos="720"/>
          <note len="12" key="73" pan="0" vol="100" pos="732"/>
          <note len="12" key="71" pan="0" vol="100" pos="744"/>
          <note len="12" key="69" pan="0" vol="100" pos="756"/>
        </pattern>
        <pattern muted="0" name="" steps="16" type="1" pos="3456">
          <note len="144" key="73" pan="0" vol="78" pos="0"/>
          <note len="144" key="0" pan="0" vol="78" pos="0"/>
          <note len="48" key="76" pan="0" vol="78" pos="144"/>
          <note len="144" key="75" pan="0" vol="78" pos="192"/>
          <note len="48" key="80" pan="0" vol="78" pos="336"/>
          <note len="144" key="80" pan="0" vol="78" pos="384"/>
          <note len="24" key="78" pan="0" vol="78" pos="528"/>
          <note len="24" key="76" pan="0" vol="78" pos="552"/>
          <note len="48" key="75" pan="0" vol="78" pos="576"/>
          <note len="48" key="76" pan="0" vol="78" pos="624"/>
          <note len="48" key="71" pan="0" vol="78" pos="672"/>
          <note len="48" key="68" pan="0" vol="78" pos="720"/>
          <note len="144" key="69" pan="0" vol="78" pos="768"/>
          <note len="48" key="76" pan="0" vol="78" pos="912"/>
          <note len="144" key="75" pan="0" vol="78" pos="960"/>
          <note len="48" key="78" pan="0" vol="78" pos="1104"/>
          <note len="96" key="76" pan="0" vol="197" pos="1152"/>
          <note len="48" key="80" pan="0" vol="197" pos="1248"/>
          <note len="48" key="76" pan="0" vol="197" pos="1296"/>
          <note len="48" key="78" pan="0" vol="197" pos="1344"/>
          <note len="48" key="83" pan="0" vol="197" pos="1392"/>
          <note len="48" key="80" pan="0" vol="197" pos="1440"/>
          <note len="48" key="87" pan="0" vol="197" pos="1488"/>
        </pattern>
        <pattern muted="0" name="" steps="16" type="1" pos="43200">
          <note len="144" key="75" pan="0" vol="78" pos="960"/>
          <note len="48" key="78" pan="0" vol="78" pos="1104"/>
          <note len="144" key="77" pan="0" vol="78" pos="1152"/>
          <note len="48" key="82" pan="0" vol="78" pos="1296"/>
          <note len="144" key="82" pan="0" vol="78" pos="1344"/>
          <note len="24" key="80" pan="0" vol="78" pos="1488"/>
          <note len="24" key="78" pan="0" vol="78" pos="1512"/>
          <note len="48" key="77" pan="0" vol="78" pos="1536"/>
          <note len="48" key="78" pan="0" vol="78" pos="1584"/>
          <note len="48" key="73" pan="0" vol="78" pos="1632"/>
          <note len="48" key="70" pan="0" vol="78" pos="1680"/>
          <note len="96" key="71" pan="0" vol="78" pos="1728"/>
          <note len="48" key="75" pan="0" vol="78" pos="1824"/>
          <note len="48" key="78" pan="0" vol="78" pos="1872"/>
          <note len="96" key="78" pan="0" vol="78" pos="1920"/>
          <note len="48" key="77" pan="0" vol="78" pos="2016"/>
          <note len="48" key="78" pan="0" vol="78" pos="2064"/>
          <note len="72" key="85" pan="0" vol="78" pos="2112"/>
          <note len="72" key="83" pan="0" vol="78" pos="2184"/>
          <note len="48" key="82" pan="0" vol="78" pos="2256"/>
          <note len="192" key="80" pan="0" vol="78" pos="2304"/>
          <note len="72" key="78" pan="0" vol="78" pos="2496"/>
          <note len="72" key="77" pan="0" vol="78" pos="2568"/>
          <note len="48" key="78" pan="0" vol="78" pos="2640"/>
          <note len="144" key="82" pan="0" vol="78" pos="2688"/>
          <note len="48" key="77" pan="0" vol="78" pos="2832"/>
          <note len="240" key="75" pan="0" vol="78" pos="2880"/>
          <note len="48" key="78" pan="0" vol="78" pos="3120"/>
          <note len="48" key="80" pan="0" vol="78" pos="3168"/>
          <note len="48" key="82" pan="0" vol="78" pos="3216"/>
          <note len="72" key="83" pan="0" vol="78" pos="3264"/>
          <note len="72" key="82" pan="0" vol="78" pos="3336"/>
          <note len="48" key="80" pan="0" vol="78" pos="3408"/>
          <note len="48" key="78" pan="0" vol="78" pos="3456"/>
          <note len="48" key="75" pan="0" vol="78" pos="3504"/>
          <note len="48" key="78" pan="0" vol="78" pos="3552"/>
          <note len="48" key="82" pan="0" vol="78" pos="3600"/>
          <note len="192" key="80" pan="0" vol="78" pos="3648"/>
        </pattern>
        <pattern muted="0" name="" steps="16" type="1" pos="39552">
          <note len="12" key="73" pan="0" vol="78" pos="0"/>
          <note len="12" key="68" pan="0" vol="78" pos="12"/>
          <note len="12" key="64" pan="0" vol="78" pos="24"/>
          <note len="12" key="61" pan="0" vol="78" pos="36"/>
          <note len="12" key="56" pan="0" vol="78" pos="48"/>
          <note len="12" key="52" pan="0" vol="78" pos="60"/>
          <note len="12" key="56" pan="0" vol="78" pos="72"/>
          <note len="12" key="61" pan="0" vol="78" pos="84"/>
          <note len="12" key="64" pan="0" vol="78" pos="96"/>
          <note len="12" key="68" pan="0" vol="78" pos="108"/>
          <note len="12" key="76" pan="0" vol="78" pos="120"/>
          <note len="12" key="73" pan="0" vol="78" pos="132"/>
          <note len="12" key="68" pan="0" vol="78" pos="144"/>
          <note len="12" key="64" pan="0" vol="78" pos="156"/>
          <note len="12" key="68" pan="0" vol="78" pos="168"/>
          <note len="12" key="73" pan="0" vol="78" pos="180"/>
          <note len="12" key="75" pan="0" vol="78" pos="192"/>
          <note len="12" key="71" pan="0" vol="78" pos="204"/>
          <note len="12" key="68" pan="0" vol="78" pos="216"/>
          <note len="12" key="63" pan="0" vol="78" pos="228"/>
          <note len="12" key="59" pan="0" vol="78" pos="240"/>
          <note len="12" key="56" pan="0" vol="78" pos="252"/>
          <note len="12" key="59" pan="0" vol="78" pos="264"/>
          <note len="12" key="63" pan="0" vol="78" pos="276"/>
          <note len="12" key="68" pan="0" vol="78" pos="288"/>
          <note len="12" key="71" pan="0" vol="78" pos="300"/>
          <note len="12" key="80" pan="0" vol="78" pos="312"/>
          <note len="12" key="75" pan="0" vol="78" pos="324"/>
          <note len="12" key="71" pan="0" vol="78" pos="336"/>
          <note len="12" key="68" pan="0" vol="78" pos="348"/>
          <note len="12" key="71" pan="0" vol="78" pos="360"/>
          <note len="12" key="75" pan="0" vol="78" pos="372"/>
          <note len="24" key="80" pan="0" vol="78" pos="384"/>
          <note len="24" key="76" pan="0" vol="78" pos="408"/>
          <note len="24" key="69" pan="0" vol="78" pos="432"/>
          <note len="24" key="76" pan="0" vol="78" pos="456"/>
          <note len="24" key="75" pan="0" vol="78" pos="480"/>
          <note len="24" key="69" pan="0" vol="78" pos="504"/>
          <note len="24" key="78" pan="0" vol="78" pos="528"/>
          <note len="24" key="76" pan="0" vol="78" pos="552"/>
          <note len="48" key="75" pan="0" vol="78" pos="576"/>
          <note len="48" key="76" pan="0" vol="78" pos="624"/>
          <note len="12" key="76" pan="0" vol="78" pos="672"/>
          <note len="12" key="78" pan="0" vol="78" pos="684"/>
          <note len="12" key="76" pan="0" vol="78" pos="696"/>
          <note len="12" key="75" pan="0" vol="78" pos="708"/>
          <note len="12" key="76" pan="0" vol="78" pos="720"/>
          <note len="12" key="75" pan="0" vol="78" pos="732"/>
          <note len="12" key="73" pan="0" vol="78" pos="744"/>
          <note len="12" key="71" pan="0" vol="78" pos="756"/>
        </pattern>
        <pattern muted="0" name="" steps="16" type="1" pos="40320">
          <note len="12" key="69" pan="0" vol="78" pos="0"/>
          <note len="48" key="1" pan="0" vol="200" pos="0"/>
          <note len="12" key="68" pan="0" vol="78" pos="12"/>
          <note len="12" key="66" pan="0" vol="78" pos="24"/>
          <note len="12" key="68" pan="0" vol="78" pos="36"/>
          <note len="12" key="69" pan="0" vol="78" pos="48"/>
          <note len="12" key="68" pan="0" vol="78" pos="60"/>
          <note len="12" key="66" pan="0" vol="78" pos="72"/>
          <note len="12" key="68" pan="0" vol="78" pos="84"/>
          <note len="12" key="73" pan="0" vol="78" pos="96"/>
          <note len="12" key="71" pan="0" vol="78" pos="108"/>
          <note len="12" key="69" pan="0" vol="78" pos="120"/>
          <note len="12" key="71" pan="0" vol="78" pos="132"/>
          <note len="12" key="73" pan="0" vol="78" pos="144"/>
          <note len="12" key="75" pan="0" vol="78" pos="156"/>
          <note len="12" key="76" pan="0" vol="78" pos="168"/>
          <note len="12" key="75" pan="0" vol="78" pos="180"/>
          <note len="12" key="76" pan="0" vol="78" pos="192"/>
          <note len="12" key="75" pan="0" vol="78" pos="204"/>
          <note len="12" key="73" pan="0" vol="78" pos="216"/>
          <note len="12" key="75" pan="0" vol="78" pos="228"/>
          <note len="12" key="76" pan="0" vol="78" pos="240"/>
          <note len="48" key="0" pan="0" vol="200" pos="240"/>
          <note len="12" key="75" pan="0" vol="78" pos="252"/>
          <note len="12" key="73" pan="0" vol="78" pos="264"/>
          <note len="12" key="75" pan="0" vol="78" pos="276"/>
          <note len="12" key="76" pan="0" vol="78" pos="288"/>
          <note len="12" key="78" pan="0" vol="78" pos="300"/>
          <note len="12" key="80" pan="0" vol="78" pos="312"/>
          <note len="12" key="81" pan="0" vol="78" pos="324"/>
          <note len="12" key="83" pan="0" vol="78" pos="336"/>
          <note len="12" key="76" pan="0" vol="78" pos="348"/>
          <note len="12" key="1" pan="0" vol="200" pos="348"/>
          <note len="12" key="75" pan="0" vol="78" pos="360"/>
          <note len="12" key="76" pan="0" vol="78" pos="372"/>
        </pattern>
        <pattern muted="0" name="" steps="16" type="1" pos="40704">
          <note len="48" key="83" pan="0" vol="78" pos="0"/>
          <note len="48" key="0" pan="0" vol="100" pos="0"/>
          <note len="12" key="81" pan="0" vol="78" pos="48"/>
          <note len="12" key="83" pan="0" vol="78" pos="60"/>
          <note len="48" key="81" pan="0" vol="78" pos="72"/>
          <note len="12" key="80" pan="0" vol="78" pos="120"/>
          <note len="12" key="81" pan="0" vol="78" pos="132"/>
          <note len="12" key="80" pan="0" vol="78" pos="144"/>
          <note len="12" key="0" pan="0" vol="78" pos="144"/>
          <note len="12" key="78" pan="0" vol="78" pos="156"/>
          <note len="12" key="1" pan="0" vol="78" pos="156"/>
          <note len="12" key="76" pan="0" vol="78" pos="168"/>
          <note len="12" key="80" pan="0" vol="78" pos="180"/>
          <note len="48" key="78" pan="0" vol="78" pos="192"/>
          <note len="12" key="0" pan="0" vol="78" pos="192"/>
          <note len="12" key="76" pan="0" vol="78" pos="240"/>
          <note len="12" key="1" pan="0" vol="78" pos="240"/>
          <note len="12" key="75" pan="0" vol="78" pos="252"/>
          <note len="12" key="76" pan="0" vol="78" pos="264"/>
          <note len="12" key="78" pan="0" vol="78" pos="276"/>
          <note len="12" key="80" pan="0" vol="78" pos="288"/>
          <note len="12" key="0" pan="0" vol="78" pos="288"/>
          <note len="12" key="81" pan="0" vol="78" pos="300"/>
          <note len="12" key="80" pan="0" vol="78" pos="312"/>
          <note len="12" key="78" pan="0" vol="78" pos="324"/>
          <note len="12" key="80" pan="0" vol="78" pos="336"/>
          <note len="12" key="78" pan="0" vol="78" pos="348"/>
          <note len="12" key="76" pan="0" vol="78" pos="360"/>
          <note len="12" key="1" pan="0" vol="78" pos="360"/>
          <note len="12" key="75" pan="0" vol="78" pos="372"/>
        </pattern>
        <pattern muted="0" name="" steps="16" type="1" pos="41472">
          <note len="12" key="82" pan="0" vol="78" pos="0"/>
          <note len="12" key="0" pan="0" vol="78" pos="0"/>
          <note len="12" key="78" pan="0" vol="78" pos="12"/>
          <note len="12" key="73" pan="0" vol="78" pos="24"/>
          <note len="12" key="1" pan="0" vol="78" pos="24"/>
          <note len="12" key="78" pan="0" vol="78" pos="36"/>
          <note len="12" key="70" pan="0" vol="78" pos="48"/>
          <note len="12" key="78" pan="0" vol="78" pos="60"/>
          <note len="12" key="73" pan="0" vol="78" pos="72"/>
          <note len="12" key="78" pan="0" vol="78" pos="84"/>
          <note len="12" key="82" pan="0" vol="78" pos="96"/>
          <note len="12" key="78" pan="0" vol="78" pos="108"/>
          <note len="12" key="73" pan="0" vol="78" pos="120"/>
          <note len="12" key="78" pan="0" vol="78" pos="132"/>
          <note len="12" key="70" pan="0" vol="78" pos="144"/>
          <note len="12" key="78" pan="0" vol="78" pos="156"/>
          <note len="12" key="73" pan="0" vol="78" pos="168"/>
          <note len="12" key="78" pan="0" vol="78" pos="180"/>
        </pattern>
        <pattern muted="0" name="" steps="16" type="1" pos="41664">
          <note len="12" key="82" pan="0" vol="78" pos="0"/>
          <note len="12" key="0" pan="0" vol="78" pos="0"/>
          <note len="12" key="78" pan="0" vol="78" pos="12"/>
          <note len="12" key="73" pan="0" vol="78" pos="24"/>
          <note len="12" key="1" pan="0" vol="78" pos="24"/>
          <note len="12" key="78" pan="0" vol="78" pos="36"/>
          <note len="12" key="70" pan="0" vol="78" pos="48"/>
          <note len="12" key="78" pan="0" vol="78" pos="60"/>
          <note len="12" key="73" pan="0" vol="78" pos="72"/>
          <note len="12" key="78" pan="0" vol="78" pos="84"/>
          <note len="12" key="82" pan="0" vol="78" pos="96"/>
          <note len="12" key="78" pan="0" vol="78" pos="108"/>
          <note len="12" key="73" pan="0" vol="78" pos="120"/>
          <note len="12" key="78" pan="0" vol="78" pos="132"/>
          <note len="12" key="70" pan="0" vol="78" pos="144"/>
          <note len="12" key="78" pan="0" vol="78" pos="156"/>
          <note len="12" key="73" pan="0" vol="78" pos="168"/>
          <note len="12" key="78" pan="0" vol="78" pos="180"/>
        </pattern>
        <pattern muted="0" name="" steps="16" type="1" pos="41856">
          <note len="24" key="86" pan="0" vol="78" pos="0"/>
          <note len="48" key="0" pan="0" vol="78" pos="0"/>
          <note len="24" key="81" pan="0" vol="78" pos="24"/>
          <note len="24" key="76" pan="0" vol="78" pos="48"/>
          <note len="24" key="83" pan="0" vol="78" pos="72"/>
          <note len="24" key="85" pan="0" vol="78" pos="96"/>
          <note len="24" key="86" pan="0" vol="78" pos="120"/>
          <note len="24" key="85" pan="0" vol="78" pos="144"/>
          <note len="24" key="83" pan="0" vol="78" pos="168"/>
          <note len="12" key="85" pan="0" vol="78" pos="192"/>
          <note len="24" key="0" pan="0" vol="78" pos="192"/>
          <note len="12" key="81" pan="0" vol="78" pos="204"/>
          <note len="12" key="76" pan="0" vol="78" pos="216"/>
          <note len="24" key="1" pan="0" vol="78" pos="216"/>
          <note len="12" key="73" pan="0" vol="78" pos="228"/>
          <note len="12" key="69" pan="0" vol="78" pos="240"/>
          <note len="12" key="73" pan="0" vol="78" pos="252"/>
          <note len="12" key="81" pan="0" vol="78" pos="264"/>
          <note len="24" key="0" pan="0" vol="78" pos="264"/>
          <note len="12" key="76" pan="0" vol="78" pos="276"/>
          <note len="12" key="73" pan="0" vol="78" pos="288"/>
          <note len="24" key="1" pan="0" vol="78" pos="288"/>
          <note len="12" key="69" pan="0" vol="78" pos="300"/>
          <note len="12" key="73" pan="0" vol="78" pos="312"/>
          <note len="12" key="76" pan="0" vol="78" pos="324"/>
          <note len="12" key="85" pan="0" vol="78" pos="336"/>
          <note len="24" key="0" pan="0" vol="78" pos="336"/>
          <note len="12" key="83" pan="0" vol="78" pos="348"/>
          <note len="12" key="81" pan="0" vol="78" pos="360"/>
          <note len="24" key="1" pan="0" vol="78" pos="360"/>
          <note len="12" key="83" pan="0" vol="78" pos="372"/>
          <note len="384" key="87" pan="0" vol="78" pos="384"/>
          <note len="24" key="0" pan="0" vol="78" pos="384"/>
        </pattern>
        <pattern muted="0" name="" steps="16" type="1" pos="56448">
          <note len="384" key="75" pan="0" vol="102" pos="0"/>
          <note len="12" key="54" pan="0" vol="102" pos="0"/>
          <note len="12" key="58" pan="0" vol="102" pos="12"/>
          <note len="12" key="63" pan="0" vol="100" pos="24"/>
          <note len="12" key="66" pan="0" vol="100" pos="36"/>
          <note len="12" key="70" pan="0" vol="100" pos="48"/>
          <note len="12" key="75" pan="0" vol="100" pos="60"/>
          <note len="12" key="78" pan="0" vol="100" pos="72"/>
          <note len="12" key="82" pan="0" vol="100" pos="84"/>
          <note len="12" key="87" pan="0" vol="100" pos="96"/>
          <note len="12" key="82" pan="0" vol="100" pos="108"/>
          <note len="12" key="78" pan="0" vol="100" pos="120"/>
          <note len="12" key="75" pan="0" vol="100" pos="132"/>
          <note len="12" key="70" pan="0" vol="100" pos="144"/>
          <note len="12" key="66" pan="0" vol="100" pos="156"/>
          <note len="12" key="63" pan="0" vol="100" pos="168"/>
          <note len="12" key="58" pan="0" vol="100" pos="180"/>
        </pattern>
        <pattern muted="0" name="" steps="16" type="1" pos="56832">
          <note len="12" key="53" pan="0" vol="100" pos="0"/>
          <note len="12" key="56" pan="0" vol="100" pos="12"/>
          <note len="12" key="61" pan="0" vol="100" pos="24"/>
          <note len="12" key="65" pan="0" vol="100" pos="36"/>
          <note len="12" key="68" pan="0" vol="100" pos="48"/>
          <note len="12" key="73" pan="0" vol="100" pos="60"/>
          <note len="12" key="77" pan="0" vol="100" pos="72"/>
          <note len="12" key="80" pan="0" vol="100" pos="84"/>
          <note len="12" key="85" pan="0" vol="100" pos="96"/>
          <note len="12" key="80" pan="0" vol="100" pos="108"/>
          <note len="12" key="77" pan="0" vol="100" pos="120"/>
          <note len="12" key="73" pan="0" vol="100" pos="132"/>
          <note len="12" key="68" pan="0" vol="100" pos="144"/>
          <note len="12" key="65" pan="0" vol="100" pos="156"/>
          <note len="12" key="61" pan="0" vol="100" pos="168"/>
          <note len="12" key="56" pan="0" vol="100" pos="180"/>
        </pattern>
        <pattern muted="0" name="" steps="16" type="1" pos="57024">
          <note len="12" key="53" pan="0" vol="100" pos="0"/>
          <note len="12" key="56" pan="0" vol="100" pos="12"/>
          <note len="12" key="61" pan="0" vol="100" pos="24"/>
          <note len="12" key="65" pan="0" vol="100" pos="36"/>
          <note len="12" key="68" pan="0" vol="100" pos="48"/>
          <note len="12" key="73" pan="0" vol="100" pos="60"/>
          <note len="12" key="77" pan="0" vol="100" pos="72"/>
          <note len="12" key="80" pan="0" vol="100" pos="84"/>
          <note len="12" key="85" pan="0" vol="100" pos="96"/>
          <note len="12" key="80" pan="0" vol="100" pos="108"/>
          <note len="12" key="77" pan="0" vol="100" pos="120"/>
          <note len="12" key="73" pan="0" vol="100" pos="132"/>
          <note len="12" key="68" pan="0" vol="100" pos="144"/>
          <note len="12" key="65" pan="0" vol="100" pos="156"/>
          <note len="12" key="61" pan="0" vol="100" pos="168"/>
          <note len="12" key="56" pan="0" vol="100" pos="180"/>
        </pattern>
        <pattern muted="0" name="" steps="16" type="1" pos="56640">
          <note len="12" key="54" pan="0" vol="100" pos="0"/>
          <note len="12" key="58" pan="0" vol="100" pos="12"/>
          <note len="12" key="63" pan="0" vol="100" pos="24"/>
          <note len="12" key="66" pan="0" vol="100" pos="36"/>
          <note len="12" key="70" pan="0" vol="100" pos="48"/>
          <note len="12" key="75" pan="0" vol="100" pos="60"/>
          <note len="12" key="78" pan="0" vol="100" pos="72"/>
          <note len="12" key="82" pan="0" vol="100" pos="84"/>
          <note len="12" key="87" pan="0" vol="100" pos="96"/>
          <note len="12" key="82" pan="0" vol="100" pos="108"/>
          <note len="12" key="78" pan="0" vol="100" pos="120"/>
          <note len="12" key="75" pan="0" vol="100" pos="132"/>
          <note len="12" key="70" pan="0" vol="100" pos="144"/>
          <note len="12" key="66" pan="0" vol="100" pos="156"/>
          <note len="12" key="63" pan="0" vol="100" pos="168"/>
          <note len="12" key="58" pan="0" vol="100" pos="180"/>
        </pattern>
        <pattern muted="0" name="" steps="16" type="1" pos="57216">
          <note len="12" key="51" pan="0" vol="100" pos="0"/>
          <note len="12" key="56" pan="0" vol="100" pos="12"/>
          <note len="12" key="60" pan="0" vol="100" pos="24"/>
          <note len="12" key="63" pan="0" vol="100" pos="36"/>
          <note len="12" key="68" pan="0" vol="100" pos="48"/>
          <note len="12" key="72" pan="0" vol="100" pos="60"/>
          <note len="12" key="75" pan="0" vol="100" pos="72"/>
          <note len="12" key="80" pan="0" vol="100" pos="84"/>
          <note len="12" key="84" pan="0" vol="100" pos="96"/>
          <note len="12" key="80" pan="0" vol="100" pos="108"/>
          <note len="12" key="75" pan="0" vol="100" pos="120"/>
          <note len="12" key="72" pan="0" vol="100" pos="132"/>
          <note len="12" key="68" pan="0" vol="100" pos="144"/>
          <note len="12" key="63" pan="0" vol="100" pos="156"/>
          <note len="12" key="60" pan="0" vol="100" pos="168"/>
          <note len="12" key="56" pan="0" vol="100" pos="180"/>
        </pattern>
        <pattern muted="0" name="" steps="16" type="1" pos="57600">
          <note len="12" key="52" pan="0" vol="100" pos="0"/>
          <note len="12" key="56" pan="0" vol="100" pos="12"/>
          <note len="12" key="59" pan="0" vol="100" pos="24"/>
          <note len="12" key="64" pan="0" vol="100" pos="36"/>
          <note len="12" key="68" pan="0" vol="100" pos="48"/>
          <note len="12" key="71" pan="0" vol="100" pos="60"/>
          <note len="12" key="76" pan="0" vol="100" pos="72"/>
          <note len="12" key="80" pan="0" vol="100" pos="84"/>
          <note len="12" key="83" pan="0" vol="100" pos="96"/>
          <note len="12" key="80" pan="0" vol="100" pos="108"/>
          <note len="12" key="76" pan="0" vol="100" pos="120"/>
          <note len="12" key="71" pan="0" vol="100" pos="132"/>
          <note len="12" key="68" pan="0" vol="100" pos="144"/>
          <note len="12" key="64" pan="0" vol="100" pos="156"/>
          <note len="12" key="59" pan="0" vol="100" pos="168"/>
          <note len="12" key="56" pan="0" vol="100" pos="180"/>
        </pattern>
        <pattern muted="0" name="" steps="16" type="1" pos="57792">
          <note len="12" key="52" pan="0" vol="100" pos="0"/>
          <note len="12" key="56" pan="0" vol="100" pos="12"/>
          <note len="12" key="59" pan="0" vol="100" pos="24"/>
          <note len="12" key="64" pan="0" vol="100" pos="36"/>
          <note len="12" key="68" pan="0" vol="100" pos="48"/>
          <note len="12" key="71" pan="0" vol="100" pos="60"/>
          <note len="12" key="76" pan="0" vol="100" pos="72"/>
          <note len="12" key="80" pan="0" vol="100" pos="84"/>
          <note len="12" key="83" pan="0" vol="100" pos="96"/>
          <note len="12" key="80" pan="0" vol="100" pos="108"/>
          <note len="12" key="76" pan="0" vol="100" pos="120"/>
          <note len="12" key="71" pan="0" vol="100" pos="132"/>
          <note len="12" key="68" pan="0" vol="100" pos="144"/>
          <note len="12" key="64" pan="0" vol="100" pos="156"/>
          <note len="12" key="59" pan="0" vol="100" pos="168"/>
          <note len="12" key="56" pan="0" vol="100" pos="180"/>
        </pattern>
        <pattern muted="0" name="" steps="16" type="1" pos="57984">
          <note len="12" key="54" pan="0" vol="100" pos="0"/>
          <note len="12" key="58" pan="0" vol="100" pos="12"/>
          <note len="12" key="63" pan="0" vol="100" pos="24"/>
          <note len="12" key="66" pan="0" vol="100" pos="36"/>
          <note len="12" key="70" pan="0" vol="100" pos="48"/>
          <note len="12" key="75" pan="0" vol="100" pos="60"/>
          <note len="12" key="78" pan="0" vol="100" pos="72"/>
          <note len="12" key="82" pan="0" vol="100" pos="84"/>
          <note len="12" key="87" pan="0" vol="100" pos="96"/>
          <note len="12" key="82" pan="0" vol="100" pos="108"/>
          <note len="12" key="78" pan="0" vol="100" pos="120"/>
          <note len="12" key="75" pan="0" vol="100" pos="132"/>
          <note len="12" key="70" pan="0" vol="100" pos="144"/>
          <note len="12" key="66" pan="0" vol="100" pos="156"/>
          <note len="12" key="63" pan="0" vol="100" pos="168"/>
          <note len="12" key="58" pan="0" vol="100" pos="180"/>
        </pattern>
        <pattern muted="0" name="" steps="16" type="1" pos="58176">
          <note len="12" key="54" pan="0" vol="100" pos="0"/>
          <note len="12" key="58" pan="0" vol="100" pos="12"/>
          <note len="12" key="63" pan="0" vol="100" pos="24"/>
          <note len="12" key="66" pan="0" vol="100" pos="36"/>
          <note len="12" key="70" pan="0" vol="100" pos="48"/>
          <note len="12" key="75" pan="0" vol="100" pos="60"/>
          <note len="12" key="78" pan="0" vol="100" pos="72"/>
          <note len="12" key="82" pan="0" vol="100" pos="84"/>
          <note len="12" key="87" pan="0" vol="100" pos="96"/>
          <note len="12" key="82" pan="0" vol="100" pos="108"/>
          <note len="12" key="78" pan="0" vol="100" pos="120"/>
          <note len="12" key="75" pan="0" vol="100" pos="132"/>
          <note len="12" key="70" pan="0" vol="100" pos="144"/>
          <note len="12" key="66" pan="0" vol="100" pos="156"/>
          <note len="12" key="63" pan="0" vol="100" pos="168"/>
          <note len="12" key="58" pan="0" vol="100" pos="180"/>
        </pattern>
        <pattern muted="0" name="" steps="16" type="1" pos="58368">
          <note len="12" key="53" pan="0" vol="100" pos="0"/>
          <note len="12" key="56" pan="0" vol="100" pos="12"/>
          <note len="12" key="61" pan="0" vol="100" pos="24"/>
          <note len="12" key="65" pan="0" vol="100" pos="36"/>
          <note len="12" key="68" pan="0" vol="100" pos="48"/>
          <note len="12" key="73" pan="0" vol="100" pos="60"/>
          <note len="12" key="77" pan="0" vol="100" pos="72"/>
          <note len="12" key="80" pan="0" vol="100" pos="84"/>
          <note len="12" key="85" pan="0" vol="100" pos="96"/>
          <note len="12" key="80" pan="0" vol="100" pos="108"/>
          <note len="12" key="77" pan="0" vol="100" pos="120"/>
          <note len="12" key="73" pan="0" vol="100" pos="132"/>
          <note len="12" key="68" pan="0" vol="100" pos="144"/>
          <note len="12" key="65" pan="0" vol="100" pos="156"/>
          <note len="12" key="61" pan="0" vol="100" pos="168"/>
          <note len="12" key="56" pan="0" vol="100" pos="180"/>
        </pattern>
        <pattern muted="0" name="" steps="16" type="1" pos="58560">
          <note len="12" key="53" pan="0" vol="100" pos="0"/>
          <note len="12" key="56" pan="0" vol="100" pos="12"/>
          <note len="12" key="61" pan="0" vol="100" pos="24"/>
          <note len="12" key="65" pan="0" vol="100" pos="36"/>
          <note len="12" key="68" pan="0" vol="100" pos="48"/>
          <note len="12" key="73" pan="0" vol="100" pos="60"/>
          <note len="12" key="77" pan="0" vol="100" pos="72"/>
          <note len="12" key="80" pan="0" vol="100" pos="84"/>
          <note len="12" key="85" pan="0" vol="100" pos="96"/>
          <note len="12" key="80" pan="0" vol="100" pos="108"/>
          <note len="12" key="77" pan="0" vol="100" pos="120"/>
          <note len="12" key="73" pan="0" vol="100" pos="132"/>
          <note len="12" key="68" pan="0" vol="100" pos="144"/>
          <note len="12" key="65" pan="0" vol="100" pos="156"/>
          <note len="12" key="61" pan="0" vol="100" pos="168"/>
          <note len="12" key="56" pan="0" vol="100" pos="180"/>
        </pattern>
        <pattern muted="0" name="" steps="16" type="1" pos="59136">
          <note len="12" key="52" pan="0" vol="100" pos="0"/>
          <note len="12" key="56" pan="0" vol="100" pos="12"/>
          <note len="12" key="59" pan="0" vol="100" pos="24"/>
          <note len="12" key="64" pan="0" vol="100" pos="36"/>
          <note len="12" key="68" pan="0" vol="100" pos="48"/>
          <note len="12" key="71" pan="0" vol="100" pos="60"/>
          <note len="12" key="76" pan="0" vol="100" pos="72"/>
          <note len="12" key="80" pan="0" vol="100" pos="84"/>
          <note len="12" key="83" pan="0" vol="100" pos="96"/>
          <note len="12" key="80" pan="0" vol="100" pos="108"/>
          <note len="12" key="76" pan="0" vol="100" pos="120"/>
          <note len="12" key="71" pan="0" vol="100" pos="132"/>
          <note len="12" key="68" pan="0" vol="100" pos="144"/>
          <note len="12" key="64" pan="0" vol="100" pos="156"/>
          <note len="12" key="59" pan="0" vol="100" pos="168"/>
          <note len="12" key="56" pan="0" vol="100" pos="180"/>
        </pattern>
        <pattern muted="0" name="" steps="16" type="1" pos="59328">
          <note len="12" key="52" pan="0" vol="100" pos="0"/>
          <note len="12" key="56" pan="0" vol="100" pos="12"/>
          <note len="12" key="59" pan="0" vol="100" pos="24"/>
          <note len="12" key="64" pan="0" vol="100" pos="36"/>
          <note len="12" key="68" pan="0" vol="100" pos="48"/>
          <note len="12" key="71" pan="0" vol="100" pos="60"/>
          <note len="12" key="76" pan="0" vol="100" pos="72"/>
          <note len="12" key="80" pan="0" vol="100" pos="84"/>
          <note len="12" key="83" pan="0" vol="100" pos="96"/>
          <note len="12" key="80" pan="0" vol="100" pos="108"/>
          <note len="12" key="76" pan="0" vol="100" pos="120"/>
          <note len="12" key="71" pan="0" vol="100" pos="132"/>
          <note len="12" key="68" pan="0" vol="100" pos="144"/>
          <note len="12" key="64" pan="0" vol="100" pos="156"/>
          <note len="12" key="59" pan="0" vol="100" pos="168"/>
          <note len="12" key="56" pan="0" vol="100" pos="180"/>
        </pattern>
        <pattern muted="0" name="" steps="16" type="1" pos="59520">
          <note len="12" key="54" pan="0" vol="100" pos="0"/>
          <note len="12" key="58" pan="0" vol="100" pos="12"/>
          <note len="12" key="63" pan="0" vol="100" pos="24"/>
          <note len="12" key="66" pan="0" vol="100" pos="36"/>
          <note len="12" key="70" pan="0" vol="100" pos="48"/>
          <note len="12" key="75" pan="0" vol="100" pos="60"/>
          <note len="12" key="78" pan="0" vol="100" pos="72"/>
          <note len="12" key="82" pan="0" vol="100" pos="84"/>
          <note len="12" key="87" pan="0" vol="100" pos="96"/>
          <note len="12" key="82" pan="0" vol="100" pos="108"/>
          <note len="12" key="78" pan="0" vol="100" pos="120"/>
          <note len="12" key="75" pan="0" vol="100" pos="132"/>
          <note len="12" key="70" pan="0" vol="100" pos="144"/>
          <note len="12" key="66" pan="0" vol="100" pos="156"/>
          <note len="12" key="63" pan="0" vol="100" pos="168"/>
          <note len="12" key="58" pan="0" vol="100" pos="180"/>
        </pattern>
        <pattern muted="0" name="" steps="16" type="1" pos="59904">
          <note len="12" key="53" pan="0" vol="100" pos="0"/>
          <note len="12" key="56" pan="0" vol="100" pos="12"/>
          <note len="12" key="61" pan="0" vol="100" pos="24"/>
          <note len="12" key="65" pan="0" vol="100" pos="36"/>
          <note len="12" key="68" pan="0" vol="100" pos="48"/>
          <note len="12" key="73" pan="0" vol="100" pos="60"/>
          <note len="12" key="77" pan="0" vol="100" pos="72"/>
          <note len="12" key="80" pan="0" vol="100" pos="84"/>
          <note len="12" key="85" pan="0" vol="100" pos="96"/>
          <note len="12" key="80" pan="0" vol="100" pos="108"/>
          <note len="12" key="77" pan="0" vol="100" pos="120"/>
          <note len="12" key="73" pan="0" vol="100" pos="132"/>
          <note len="12" key="68" pan="0" vol="100" pos="144"/>
          <note len="12" key="65" pan="0" vol="100" pos="156"/>
          <note len="12" key="61" pan="0" vol="100" pos="168"/>
          <note len="12" key="56" pan="0" vol="100" pos="180"/>
        </pattern>
        <pattern muted="0" name="" steps="16" type="1" pos="60672">
          <note len="12" key="52" pan="0" vol="100" pos="0"/>
          <note len="12" key="56" pan="0" vol="100" pos="12"/>
          <note len="12" key="59" pan="0" vol="100" pos="24"/>
          <note len="12" key="64" pan="0" vol="100" pos="36"/>
          <note len="12" key="68" pan="0" vol="100" pos="48"/>
          <note len="12" key="71" pan="0" vol="100" pos="60"/>
          <note len="12" key="76" pan="0" vol="100" pos="72"/>
          <note len="12" key="80" pan="0" vol="100" pos="84"/>
          <note len="12" key="83" pan="0" vol="100" pos="96"/>
          <note len="12" key="80" pan="0" vol="100" pos="108"/>
          <note len="12" key="76" pan="0" vol="100" pos="120"/>
          <note len="12" key="71" pan="0" vol="100" pos="132"/>
          <note len="12" key="68" pan="0" vol="100" pos="144"/>
          <note len="12" key="64" pan="0" vol="100" pos="156"/>
          <note len="12" key="59" pan="0" vol="100" pos="168"/>
          <note len="12" key="56" pan="0" vol="100" pos="180"/>
        </pattern>
        <pattern muted="0" name="" steps="16" type="1" pos="59712">
          <note len="12" key="54" pan="0" vol="100" pos="0"/>
          <note len="12" key="58" pan="0" vol="100" pos="12"/>
          <note len="12" key="63" pan="0" vol="100" pos="24"/>
          <note len="12" key="66" pan="0" vol="100" pos="36"/>
          <note len="12" key="70" pan="0" vol="100" pos="48"/>
          <note len="12" key="75" pan="0" vol="100" pos="60"/>
          <note len="12" key="78" pan="0" vol="100" pos="72"/>
          <note len="12" key="82" pan="0" vol="100" pos="84"/>
          <note len="12" key="87" pan="0" vol="100" pos="96"/>
          <note len="12" key="82" pan="0" vol="100" pos="108"/>
          <note len="12" key="78" pan="0" vol="100" pos="120"/>
          <note len="12" key="75" pan="0" vol="100" pos="132"/>
          <note len="12" key="70" pan="0" vol="100" pos="144"/>
          <note len="12" key="66" pan="0" vol="100" pos="156"/>
          <note len="12" key="63" pan="0" vol="100" pos="168"/>
          <note len="12" key="58" pan="0" vol="100" pos="180"/>
        </pattern>
        <pattern muted="0" name="" steps="16" type="1" pos="60096">
          <note len="12" key="53" pan="0" vol="100" pos="0"/>
          <note len="12" key="56" pan="0" vol="100" pos="12"/>
          <note len="12" key="61" pan="0" vol="100" pos="24"/>
          <note len="12" key="65" pan="0" vol="100" pos="36"/>
          <note len="12" key="68" pan="0" vol="100" pos="48"/>
          <note len="12" key="73" pan="0" vol="100" pos="60"/>
          <note len="12" key="77" pan="0" vol="100" pos="72"/>
          <note len="12" key="80" pan="0" vol="100" pos="84"/>
          <note len="12" key="85" pan="0" vol="100" pos="96"/>
          <note len="12" key="80" pan="0" vol="100" pos="108"/>
          <note len="12" key="77" pan="0" vol="100" pos="120"/>
          <note len="12" key="73" pan="0" vol="100" pos="132"/>
          <note len="12" key="68" pan="0" vol="100" pos="144"/>
          <note len="12" key="65" pan="0" vol="100" pos="156"/>
          <note len="12" key="61" pan="0" vol="100" pos="168"/>
          <note len="12" key="56" pan="0" vol="100" pos="180"/>
        </pattern>
        <pattern muted="0" name="" steps="16" type="1" pos="60864">
          <note len="12" key="52" pan="0" vol="100" pos="0"/>
          <note len="12" key="56" pan="0" vol="100" pos="12"/>
          <note len="12" key="59" pan="0" vol="100" pos="24"/>
          <note len="12" key="64" pan="0" vol="100" pos="36"/>
          <note len="12" key="68" pan="0" vol="100" pos="48"/>
          <note len="12" key="71" pan="0" vol="100" pos="60"/>
          <note len="12" key="76" pan="0" vol="100" pos="72"/>
          <note len="12" key="80" pan="0" vol="100" pos="84"/>
          <note len="12" key="83" pan="0" vol="100" pos="96"/>
          <note len="12" key="80" pan="0" vol="100" pos="108"/>
          <note len="12" key="76" pan="0" vol="100" pos="120"/>
          <note len="12" key="71" pan="0" vol="100" pos="132"/>
          <note len="12" key="68" pan="0" vol="100" pos="144"/>
          <note len="12" key="64" pan="0" vol="100" pos="156"/>
          <note len="12" key="59" pan="0" vol="100" pos="168"/>
          <note len="12" key="56" pan="0" vol="100" pos="180"/>
        </pattern>
        <pattern muted="0" name="" steps="16" type="1" pos="61056">
          <note len="12" key="54" pan="0" vol="100" pos="0"/>
          <note len="12" key="58" pan="0" vol="100" pos="12"/>
          <note len="12" key="63" pan="0" vol="100" pos="24"/>
          <note len="12" key="66" pan="0" vol="100" pos="36"/>
          <note len="12" key="70" pan="0" vol="100" pos="48"/>
          <note len="12" key="75" pan="0" vol="100" pos="60"/>
          <note len="12" key="78" pan="0" vol="100" pos="72"/>
          <note len="12" key="82" pan="0" vol="100" pos="84"/>
          <note len="12" key="87" pan="0" vol="100" pos="96"/>
          <note len="12" key="82" pan="0" vol="100" pos="108"/>
          <note len="12" key="78" pan="0" vol="100" pos="120"/>
          <note len="12" key="75" pan="0" vol="100" pos="132"/>
          <note len="12" key="70" pan="0" vol="100" pos="144"/>
          <note len="12" key="66" pan="0" vol="100" pos="156"/>
          <note len="12" key="63" pan="0" vol="100" pos="168"/>
          <note len="12" key="58" pan="0" vol="100" pos="180"/>
        </pattern>
        <pattern muted="0" name="" steps="16" type="1" pos="61440">
          <note len="12" key="53" pan="0" vol="100" pos="0"/>
          <note len="12" key="56" pan="0" vol="100" pos="12"/>
          <note len="12" key="61" pan="0" vol="100" pos="24"/>
          <note len="12" key="65" pan="0" vol="100" pos="36"/>
          <note len="12" key="68" pan="0" vol="100" pos="48"/>
          <note len="12" key="73" pan="0" vol="100" pos="60"/>
          <note len="12" key="77" pan="0" vol="100" pos="72"/>
          <note len="12" key="80" pan="0" vol="100" pos="84"/>
          <note len="12" key="85" pan="0" vol="100" pos="96"/>
          <note len="12" key="80" pan="0" vol="100" pos="108"/>
          <note len="12" key="77" pan="0" vol="100" pos="120"/>
          <note len="12" key="73" pan="0" vol="100" pos="132"/>
          <note len="12" key="68" pan="0" vol="100" pos="144"/>
          <note len="12" key="65" pan="0" vol="100" pos="156"/>
          <note len="12" key="61" pan="0" vol="100" pos="168"/>
          <note len="12" key="56" pan="0" vol="100" pos="180"/>
        </pattern>
        <pattern muted="0" name="" steps="16" type="1" pos="62208">
          <note len="12" key="52" pan="0" vol="100" pos="0"/>
          <note len="12" key="56" pan="0" vol="100" pos="12"/>
          <note len="12" key="59" pan="0" vol="100" pos="24"/>
          <note len="12" key="64" pan="0" vol="100" pos="36"/>
          <note len="12" key="68" pan="0" vol="100" pos="48"/>
          <note len="12" key="71" pan="0" vol="100" pos="60"/>
          <note len="12" key="76" pan="0" vol="100" pos="72"/>
          <note len="12" key="80" pan="0" vol="100" pos="84"/>
          <note len="12" key="83" pan="0" vol="100" pos="96"/>
          <note len="12" key="80" pan="0" vol="100" pos="108"/>
          <note len="12" key="76" pan="0" vol="100" pos="120"/>
          <note len="12" key="71" pan="0" vol="100" pos="132"/>
          <note len="12" key="68" pan="0" vol="100" pos="144"/>
          <note len="12" key="64" pan="0" vol="100" pos="156"/>
          <note len="12" key="59" pan="0" vol="100" pos="168"/>
          <note len="12" key="56" pan="0" vol="100" pos="180"/>
        </pattern>
        <pattern muted="0" name="" steps="16" type="1" pos="61248">
          <note len="12" key="54" pan="0" vol="100" pos="0"/>
          <note len="12" key="58" pan="0" vol="100" pos="12"/>
          <note len="12" key="63" pan="0" vol="100" pos="24"/>
          <note len="12" key="66" pan="0" vol="100" pos="36"/>
          <note len="12" key="70" pan="0" vol="100" pos="48"/>
          <note len="12" key="75" pan="0" vol="100" pos="60"/>
          <note len="12" key="78" pan="0" vol="100" pos="72"/>
          <note len="12" key="82" pan="0" vol="100" pos="84"/>
          <note len="12" key="87" pan="0" vol="100" pos="96"/>
          <note len="12" key="82" pan="0" vol="100" pos="108"/>
          <note len="12" key="78" pan="0" vol="100" pos="120"/>
          <note len="12" key="75" pan="0" vol="100" pos="132"/>
          <note len="12" key="70" pan="0" vol="100" pos="144"/>
          <note len="12" key="66" pan="0" vol="100" pos="156"/>
          <note len="12" key="63" pan="0" vol="100" pos="168"/>
          <note len="12" key="58" pan="0" vol="100" pos="180"/>
        </pattern>
        <pattern muted="0" name="" steps="16" type="1" pos="61632">
          <note len="12" key="53" pan="0" vol="100" pos="0"/>
          <note len="12" key="56" pan="0" vol="100" pos="12"/>
          <note len="12" key="61" pan="0" vol="100" pos="24"/>
          <note len="12" key="65" pan="0" vol="100" pos="36"/>
          <note len="12" key="68" pan="0" vol="100" pos="48"/>
          <note len="12" key="73" pan="0" vol="100" pos="60"/>
          <note len="12" key="77" pan="0" vol="100" pos="72"/>
          <note len="12" key="80" pan="0" vol="100" pos="84"/>
          <note len="12" key="85" pan="0" vol="100" pos="96"/>
          <note len="12" key="80" pan="0" vol="100" pos="108"/>
          <note len="12" key="77" pan="0" vol="100" pos="120"/>
          <note len="12" key="73" pan="0" vol="100" pos="132"/>
          <note len="12" key="68" pan="0" vol="100" pos="144"/>
          <note len="12" key="65" pan="0" vol="100" pos="156"/>
          <note len="12" key="61" pan="0" vol="100" pos="168"/>
          <note len="12" key="56" pan="0" vol="100" pos="180"/>
        </pattern>
        <pattern muted="0" name="" steps="16" type="1" pos="62400">
          <note len="12" key="52" pan="0" vol="100" pos="0"/>
          <note len="12" key="56" pan="0" vol="100" pos="12"/>
          <note len="12" key="59" pan="0" vol="100" pos="24"/>
          <note len="12" key="64" pan="0" vol="100" pos="36"/>
          <note len="12" key="68" pan="0" vol="100" pos="48"/>
          <note len="12" key="71" pan="0" vol="100" pos="60"/>
          <note len="12" key="76" pan="0" vol="100" pos="72"/>
          <note len="12" key="80" pan="0" vol="100" pos="84"/>
          <note len="12" key="83" pan="0" vol="100" pos="96"/>
          <note len="12" key="80" pan="0" vol="100" pos="108"/>
          <note len="12" key="76" pan="0" vol="100" pos="120"/>
          <note len="12" key="71" pan="0" vol="100" pos="132"/>
          <note len="12" key="68" pan="0" vol="100" pos="144"/>
          <note len="12" key="64" pan="0" vol="100" pos="156"/>
          <note len="12" key="59" pan="0" vol="100" pos="168"/>
          <note len="12" key="56" pan="0" vol="100" pos="180"/>
        </pattern>
        <pattern muted="0" name="" steps="16" type="1" pos="62592">
          <note len="144" key="75" pan="0" vol="97" pos="0"/>
          <note len="48" key="78" pan="0" vol="97" pos="144"/>
          <note len="144" key="77" pan="0" vol="97" pos="192"/>
          <note len="48" key="82" pan="0" vol="97" pos="336"/>
          <note len="144" key="82" pan="0" vol="97" pos="384"/>
          <note len="24" key="80" pan="0" vol="97" pos="528"/>
          <note len="24" key="78" pan="0" vol="97" pos="552"/>
          <note len="48" key="77" pan="0" vol="97" pos="576"/>
          <note len="48" key="78" pan="0" vol="97" pos="624"/>
          <note len="12" key="73" pan="0" vol="97" pos="672"/>
          <note len="12" key="75" pan="0" vol="97" pos="684"/>
          <note len="12" key="73" pan="0" vol="97" pos="696"/>
          <note len="12" key="70" pan="0" vol="97" pos="708"/>
          <note len="12" key="73" pan="0" vol="97" pos="720"/>
          <note len="12" key="70" pan="0" vol="97" pos="732"/>
          <note len="12" key="68" pan="0" vol="97" pos="744"/>
          <note len="12" key="70" pan="0" vol="97" pos="756"/>
          <note len="96" key="71" pan="0" vol="97" pos="768"/>
          <note len="48" key="75" pan="0" vol="97" pos="864"/>
          <note len="48" key="78" pan="0" vol="97" pos="912"/>
          <note len="96" key="78" pan="0" vol="97" pos="960"/>
          <note len="48" key="77" pan="0" vol="97" pos="1056"/>
          <note len="48" key="78" pan="0" vol="97" pos="1104"/>
          <note len="12" key="78" pan="0" vol="96" pos="1152"/>
          <note len="12" key="75" pan="0" vol="96" pos="1164"/>
          <note len="12" key="77" pan="0" vol="96" pos="1176"/>
          <note len="12" key="78" pan="0" vol="96" pos="1188"/>
          <note len="12" key="80" pan="0" vol="96" pos="1200"/>
          <note len="12" key="77" pan="0" vol="96" pos="1212"/>
          <note len="12" key="78" pan="0" vol="96" pos="1224"/>
          <note len="12" key="80" pan="0" vol="96" pos="1236"/>
          <note len="12" key="82" pan="0" vol="96" pos="1248"/>
          <note len="12" key="78" pan="0" vol="96" pos="1260"/>
          <note len="12" key="80" pan="0" vol="96" pos="1272"/>
          <note len="12" key="82" pan="0" vol="96" pos="1284"/>
          <note len="12" key="83" pan="0" vol="96" pos="1296"/>
          <note len="12" key="80" pan="0" vol="96" pos="1308"/>
          <note len="12" key="82" pan="0" vol="96" pos="1320"/>
          <note len="12" key="83" pan="0" vol="96" pos="1332"/>
          <note len="12" key="85" pan="0" vol="96" pos="1344"/>
          <note len="12" key="83" pan="0" vol="96" pos="1356"/>
          <note len="12" key="82" pan="0" vol="96" pos="1368"/>
          <note len="12" key="80" pan="0" vol="96" pos="1380"/>
          <note len="12" key="78" pan="0" vol="96" pos="1392"/>
          <note len="12" key="80" pan="0" vol="96" pos="1404"/>
          <note len="12" key="83" pan="0" vol="96" pos="1416"/>
          <note len="12" key="82" pan="0" vol="96" pos="1428"/>
          <note len="12" key="80" pan="0" vol="96" pos="1440"/>
          <note len="12" key="78" pan="0" vol="96" pos="1452"/>
          <note len="12" key="77" pan="0" vol="96" pos="1464"/>
          <note len="12" key="78" pan="0" vol="96" pos="1476"/>
          <note len="12" key="82" pan="0" vol="96" pos="1488"/>
          <note len="12" key="80" pan="0" vol="96" pos="1500"/>
          <note len="12" key="78" pan="0" vol="96" pos="1512"/>
          <note len="12" key="77" pan="0" vol="96" pos="1524"/>
          <note len="12" key="75" pan="0" vol="96" pos="1536"/>
          <note len="12" key="77" pan="0" vol="96" pos="1548"/>
          <note len="12" key="80" pan="0" vol="96" pos="1560"/>
          <note len="12" key="78" pan="0" vol="96" pos="1572"/>
          <note len="12" key="77" pan="0" vol="96" pos="1584"/>
          <note len="12" key="75" pan="0" vol="96" pos="1596"/>
          <note len="12" key="73" pan="0" vol="96" pos="1608"/>
          <note len="12" key="75" pan="0" vol="96" pos="1620"/>
          <note len="12" key="78" pan="0" vol="96" pos="1632"/>
          <note len="12" key="77" pan="0" vol="96" pos="1644"/>
          <note len="12" key="75" pan="0" vol="96" pos="1656"/>
          <note len="12" key="73" pan="0" vol="96" pos="1668"/>
          <note len="12" key="77" pan="0" vol="96" pos="1680"/>
          <note len="12" key="75" pan="0" vol="96" pos="1692"/>
          <note len="12" key="73" pan="0" vol="96" pos="1704"/>
          <note len="12" key="75" pan="0" vol="96" pos="1716"/>
          <note len="192" key="87" pan="0" vol="96" pos="1728"/>
        </pattern>
        <pattern muted="0" name="" steps="16" type="1" pos="57408">
          <note len="12" key="51" pan="0" vol="100" pos="0"/>
          <note len="12" key="56" pan="0" vol="100" pos="12"/>
          <note len="12" key="60" pan="0" vol="100" pos="24"/>
          <note len="12" key="63" pan="0" vol="100" pos="36"/>
          <note len="12" key="68" pan="0" vol="100" pos="48"/>
          <note len="12" key="72" pan="0" vol="100" pos="60"/>
          <note len="12" key="75" pan="0" vol="100" pos="72"/>
          <note len="12" key="80" pan="0" vol="100" pos="84"/>
          <note len="12" key="84" pan="0" vol="100" pos="96"/>
          <note len="12" key="80" pan="0" vol="100" pos="108"/>
          <note len="12" key="75" pan="0" vol="100" pos="120"/>
          <note len="12" key="72" pan="0" vol="100" pos="132"/>
          <note len="12" key="68" pan="0" vol="100" pos="144"/>
          <note len="12" key="63" pan="0" vol="100" pos="156"/>
          <note len="12" key="60" pan="0" vol="100" pos="168"/>
          <note len="12" key="56" pan="0" vol="100" pos="180"/>
        </pattern>
        <pattern muted="0" name="" steps="16" type="1" pos="58752">
          <note len="12" key="51" pan="0" vol="100" pos="0"/>
          <note len="12" key="56" pan="0" vol="100" pos="12"/>
          <note len="12" key="60" pan="0" vol="100" pos="24"/>
          <note len="12" key="63" pan="0" vol="100" pos="36"/>
          <note len="12" key="68" pan="0" vol="100" pos="48"/>
          <note len="12" key="72" pan="0" vol="100" pos="60"/>
          <note len="12" key="75" pan="0" vol="100" pos="72"/>
          <note len="12" key="80" pan="0" vol="100" pos="84"/>
          <note len="12" key="84" pan="0" vol="100" pos="96"/>
          <note len="12" key="80" pan="0" vol="100" pos="108"/>
          <note len="12" key="75" pan="0" vol="100" pos="120"/>
          <note len="12" key="72" pan="0" vol="100" pos="132"/>
          <note len="12" key="68" pan="0" vol="100" pos="144"/>
          <note len="12" key="63" pan="0" vol="100" pos="156"/>
          <note len="12" key="60" pan="0" vol="100" pos="168"/>
          <note len="12" key="56" pan="0" vol="100" pos="180"/>
        </pattern>
        <pattern muted="0" name="" steps="16" type="1" pos="58944">
          <note len="12" key="51" pan="0" vol="100" pos="0"/>
          <note len="12" key="56" pan="0" vol="100" pos="12"/>
          <note len="12" key="60" pan="0" vol="100" pos="24"/>
          <note len="12" key="63" pan="0" vol="100" pos="36"/>
          <note len="12" key="68" pan="0" vol="100" pos="48"/>
          <note len="12" key="72" pan="0" vol="100" pos="60"/>
          <note len="12" key="75" pan="0" vol="100" pos="72"/>
          <note len="12" key="80" pan="0" vol="100" pos="84"/>
          <note len="12" key="84" pan="0" vol="100" pos="96"/>
          <note len="12" key="80" pan="0" vol="100" pos="108"/>
          <note len="12" key="75" pan="0" vol="100" pos="120"/>
          <note len="12" key="72" pan="0" vol="100" pos="132"/>
          <note len="12" key="68" pan="0" vol="100" pos="144"/>
          <note len="12" key="63" pan="0" vol="100" pos="156"/>
          <note len="12" key="60" pan="0" vol="100" pos="168"/>
          <note len="12" key="56" pan="0" vol="100" pos="180"/>
        </pattern>
        <pattern muted="0" name="" steps="16" type="1" pos="60288">
          <note len="12" key="51" pan="0" vol="100" pos="0"/>
          <note len="12" key="56" pan="0" vol="100" pos="12"/>
          <note len="12" key="60" pan="0" vol="100" pos="24"/>
          <note len="12" key="63" pan="0" vol="100" pos="36"/>
          <note len="12" key="68" pan="0" vol="100" pos="48"/>
          <note len="12" key="72" pan="0" vol="100" pos="60"/>
          <note len="12" key="75" pan="0" vol="100" pos="72"/>
          <note len="12" key="80" pan="0" vol="100" pos="84"/>
          <note len="12" key="84" pan="0" vol="100" pos="96"/>
          <note len="12" key="80" pan="0" vol="100" pos="108"/>
          <note len="12" key="75" pan="0" vol="100" pos="120"/>
          <note len="12" key="72" pan="0" vol="100" pos="132"/>
          <note len="12" key="68" pan="0" vol="100" pos="144"/>
          <note len="12" key="63" pan="0" vol="100" pos="156"/>
          <note len="12" key="60" pan="0" vol="100" pos="168"/>
          <note len="12" key="56" pan="0" vol="100" pos="180"/>
        </pattern>
        <pattern muted="0" name="" steps="16" type="1" pos="60480">
          <note len="12" key="51" pan="0" vol="100" pos="0"/>
          <note len="12" key="56" pan="0" vol="100" pos="12"/>
          <note len="12" key="60" pan="0" vol="100" pos="24"/>
          <note len="12" key="63" pan="0" vol="100" pos="36"/>
          <note len="12" key="68" pan="0" vol="100" pos="48"/>
          <note len="12" key="72" pan="0" vol="100" pos="60"/>
          <note len="12" key="75" pan="0" vol="100" pos="72"/>
          <note len="12" key="80" pan="0" vol="100" pos="84"/>
          <note len="12" key="84" pan="0" vol="100" pos="96"/>
          <note len="12" key="80" pan="0" vol="100" pos="108"/>
          <note len="12" key="75" pan="0" vol="100" pos="120"/>
          <note len="12" key="72" pan="0" vol="100" pos="132"/>
          <note len="12" key="68" pan="0" vol="100" pos="144"/>
          <note len="12" key="63" pan="0" vol="100" pos="156"/>
          <note len="12" key="60" pan="0" vol="100" pos="168"/>
          <note len="12" key="56" pan="0" vol="100" pos="180"/>
        </pattern>
        <pattern muted="0" name="" steps="16" type="1" pos="61824">
          <note len="12" key="51" pan="0" vol="100" pos="0"/>
          <note len="12" key="56" pan="0" vol="100" pos="12"/>
          <note len="12" key="60" pan="0" vol="100" pos="24"/>
          <note len="12" key="63" pan="0" vol="100" pos="36"/>
          <note len="12" key="68" pan="0" vol="100" pos="48"/>
          <note len="12" key="72" pan="0" vol="100" pos="60"/>
          <note len="12" key="75" pan="0" vol="100" pos="72"/>
          <note len="12" key="80" pan="0" vol="100" pos="84"/>
          <note len="12" key="84" pan="0" vol="100" pos="96"/>
          <note len="12" key="80" pan="0" vol="100" pos="108"/>
          <note len="12" key="75" pan="0" vol="100" pos="120"/>
          <note len="12" key="72" pan="0" vol="100" pos="132"/>
          <note len="12" key="68" pan="0" vol="100" pos="144"/>
          <note len="12" key="63" pan="0" vol="100" pos="156"/>
          <note len="12" key="60" pan="0" vol="100" pos="168"/>
          <note len="12" key="56" pan="0" vol="100" pos="180"/>
        </pattern>
        <pattern muted="0" name="" steps="16" type="1" pos="62016">
          <note len="12" key="51" pan="0" vol="100" pos="0"/>
          <note len="12" key="56" pan="0" vol="100" pos="12"/>
          <note len="12" key="60" pan="0" vol="100" pos="24"/>
          <note len="12" key="63" pan="0" vol="100" pos="36"/>
          <note len="12" key="68" pan="0" vol="100" pos="48"/>
          <note len="12" key="72" pan="0" vol="100" pos="60"/>
          <note len="12" key="75" pan="0" vol="100" pos="72"/>
          <note len="12" key="80" pan="0" vol="100" pos="84"/>
          <note len="12" key="84" pan="0" vol="100" pos="96"/>
          <note len="12" key="80" pan="0" vol="100" pos="108"/>
          <note len="12" key="75" pan="0" vol="100" pos="120"/>
          <note len="12" key="72" pan="0" vol="100" pos="132"/>
          <note len="12" key="68" pan="0" vol="100" pos="144"/>
          <note len="12" key="63" pan="0" vol="100" pos="156"/>
          <note len="12" key="60" pan="0" vol="100" pos="168"/>
          <note len="12" key="56" pan="0" vol="100" pos="180"/>
        </pattern>
        <pattern muted="0" name="" steps="16" type="1" pos="41088">
          <note len="12" key="80" pan="0" vol="78" pos="0"/>
          <note len="12" key="76" pan="0" vol="78" pos="12"/>
          <note len="12" key="75" pan="0" vol="78" pos="24"/>
          <note len="12" key="76" pan="0" vol="78" pos="36"/>
          <note len="12" key="73" pan="0" vol="78" pos="48"/>
          <note len="12" key="76" pan="0" vol="78" pos="60"/>
          <note len="12" key="75" pan="0" vol="78" pos="72"/>
          <note len="12" key="76" pan="0" vol="78" pos="84"/>
          <note len="12" key="80" pan="0" vol="78" pos="96"/>
          <note len="12" key="76" pan="0" vol="78" pos="108"/>
          <note len="12" key="75" pan="0" vol="78" pos="120"/>
          <note len="12" key="76" pan="0" vol="78" pos="132"/>
          <note len="12" key="73" pan="0" vol="78" pos="144"/>
          <note len="12" key="76" pan="0" vol="78" pos="156"/>
          <note len="12" key="75" pan="0" vol="78" pos="168"/>
          <note len="12" key="76" pan="0" vol="78" pos="180"/>
          <note len="12" key="80" pan="0" vol="78" pos="192"/>
          <note len="12" key="75" pan="0" vol="78" pos="204"/>
          <note len="12" key="73" pan="0" vol="78" pos="216"/>
          <note len="12" key="75" pan="0" vol="78" pos="228"/>
          <note len="12" key="71" pan="0" vol="78" pos="240"/>
          <note len="12" key="75" pan="0" vol="78" pos="252"/>
          <note len="12" key="73" pan="0" vol="78" pos="264"/>
          <note len="12" key="75" pan="0" vol="78" pos="276"/>
          <note len="12" key="80" pan="0" vol="78" pos="288"/>
          <note len="12" key="75" pan="0" vol="78" pos="300"/>
          <note len="12" key="73" pan="0" vol="78" pos="312"/>
          <note len="12" key="75" pan="0" vol="78" pos="324"/>
          <note len="12" key="71" pan="0" vol="78" pos="336"/>
          <note len="12" key="75" pan="0" vol="78" pos="348"/>
          <note len="12" key="73" pan="0" vol="78" pos="360"/>
          <note len="12" key="75" pan="0" vol="78" pos="372"/>
        </pattern>
        <pattern muted="0" name="" steps="16" type="1" pos="53376">
          <note len="192" key="75" pan="0" vol="100" pos="0"/>
          <note len="192" key="73" pan="0" vol="100" pos="192"/>
          <note len="288" key="70" pan="0" vol="100" pos="384"/>
          <note len="96" key="70" pan="0" vol="100" pos="672"/>
          <note len="192" key="82" pan="0" vol="100" pos="768"/>
          <note len="192" key="80" pan="0" vol="100" pos="960"/>
          <note len="384" key="75" pan="0" vol="100" pos="1152"/>
          <note len="192" key="75" pan="0" vol="100" pos="1536"/>
          <note len="192" key="77" pan="0" vol="100" pos="1728"/>
          <note len="192" key="78" pan="0" vol="100" pos="1920"/>
          <note len="96" key="82" pan="0" vol="100" pos="2112"/>
          <note len="96" key="80" pan="0" vol="100" pos="2208"/>
          <note len="192" key="80" pan="0" vol="100" pos="2304"/>
          <note len="144" key="75" pan="0" vol="100" pos="2496"/>
          <note len="24" key="75" pan="0" vol="100" pos="2640"/>
          <note len="24" key="77" pan="0" vol="100" pos="2664"/>
          <note len="192" key="78" pan="0" vol="100" pos="2688"/>
          <note len="96" key="80" pan="0" vol="100" pos="2880"/>
          <note len="96" key="85" pan="0" vol="100" pos="2976"/>
        </pattern>
      </track>
      <track muted="0" name="TB_hit_C5_v4_rr1.wav" type="0" solo="0" mutedBeforeSolo="0">
        <instrumenttrack usemasterpitch="1" pitchrange="1" pitch="0" pan="0" basenote="60" vol="26.7" fxch="22">
          <instrument name="audiofileprocessor">
            <audiofileprocessor reversed="0" looped="0" eframe="1" stutter="0" src="/home/pass/samples/VSCO-2-CE-SFZ/VSCO-2-CE-SFZ/Percussion/TB_hit_C5_v4_rr1.wav" lframe="0" sframe="0" amp="100" interp="1">
              <key/>
            </audiofileprocessor>
          </instrument>
          <eldata fcut="14000" fwet="0" fres="0.5" ftype="0">
            <elvol rel="0.32" lspd_syncmode="0" pdel="0" lspd_numerator="4" lpdel="0" amt="1" ctlenvamt="0" lshp="0" userwavefile="" dec="2" lspd_denominator="4" sustain="1" lspd="0.1" latt="0" hold="0.5" att="0" x100="0" lamt="0"/>
            <elcut rel="0.1" lspd_syncmode="0" pdel="0" lspd_numerator="4" lpdel="0" amt="0" ctlenvamt="0" lshp="0" userwavefile="" dec="0.5" lspd_denominator="4" sustain="0.5" lspd="0.1" latt="0" hold="0.5" att="0" x100="0" lamt="0"/>
            <elres rel="0.1" lspd_syncmode="0" pdel="0" lspd_numerator="4" lpdel="0" amt="0" ctlenvamt="0" lshp="0" userwavefile="" dec="0.5" lspd_denominator="4" sustain="0.5" lspd="0.1" latt="0" hold="0.5" att="0" x100="0" lamt="0"/>
          </eldata>
          <chordcreator chord="0" chordrange="1" chord-enabled="0"/>
          <arpeggiator arptime_denominator="4" arptime="200" arp-enabled="0" arpcycle="0" arpgate="100" arp="0" arpmiss="0" arpdir="0" arprange="1" arpmode="0" arpskip="0" arptime_syncmode="0" arptime_numerator="4"/>
          <midiport inputcontroller="0" fixedinputvelocity="-1" readable="0" outputcontroller="0" fixedoutputnote="-1" outputprogram="1" writable="0" fixedoutputvelocity="-1" basevelocity="63" outputchannel="1" inputchannel="0"/>
          <fxchain enabled="1" numofeffects="0"/>
        </instrumenttrack>
        <pattern muted="0" name="" steps="16" type="1" pos="384">
          <note len="384" key="49" pan="0" vol="197" pos="0"/>
          <note len="336" key="49" pan="0" vol="155" pos="48"/>
        </pattern>
        <pattern muted="0" name="" steps="16" type="1" pos="1920">
          <note len="24" key="49" pan="0" vol="195" pos="0"/>
          <note len="24" key="49" pan="0" vol="195" pos="72"/>
          <note len="24" key="49" pan="0" vol="195" pos="144"/>
          <note len="24" key="49" pan="0" vol="195" pos="216"/>
          <note len="24" key="49" pan="0" vol="195" pos="288"/>
          <note len="24" key="49" pan="0" vol="195" pos="312"/>
          <note len="24" key="49" pan="0" vol="195" pos="360"/>
        </pattern>
        <pattern muted="0" name="" steps="16" type="1" pos="3456">
          <note len="144" key="61" pan="0" vol="197" pos="0"/>
          <note len="48" key="64" pan="0" vol="197" pos="144"/>
          <note len="144" key="63" pan="0" vol="197" pos="192"/>
          <note len="48" key="68" pan="0" vol="197" pos="336"/>
          <note len="144" key="68" pan="0" vol="197" pos="384"/>
          <note len="24" key="66" pan="0" vol="197" pos="528"/>
          <note len="24" key="64" pan="0" vol="197" pos="552"/>
          <note len="48" key="63" pan="0" vol="197" pos="576"/>
          <note len="48" key="64" pan="0" vol="197" pos="624"/>
          <note len="48" key="59" pan="0" vol="197" pos="672"/>
          <note len="48" key="56" pan="0" vol="197" pos="720"/>
          <note len="144" key="57" pan="0" vol="197" pos="768"/>
          <note len="48" key="64" pan="0" vol="197" pos="912"/>
          <note len="144" key="63" pan="0" vol="197" pos="960"/>
          <note len="48" key="66" pan="0" vol="197" pos="1104"/>
          <note len="96" key="64" pan="0" vol="197" pos="1152"/>
          <note len="48" key="68" pan="0" vol="197" pos="1248"/>
          <note len="48" key="64" pan="0" vol="197" pos="1296"/>
          <note len="48" key="66" pan="0" vol="197" pos="1344"/>
          <note len="48" key="71" pan="0" vol="197" pos="1392"/>
          <note len="48" key="68" pan="0" vol="197" pos="1440"/>
          <note len="48" key="75" pan="0" vol="197" pos="1488"/>
        </pattern>
        <pattern muted="0" name="" steps="16" type="1" pos="24960">
          <note len="192" key="61" pan="0" vol="197" pos="0"/>
          <note len="192" key="59" pan="0" vol="197" pos="192"/>
          <note len="288" key="56" pan="0" vol="197" pos="384"/>
          <note len="96" key="56" pan="0" vol="197" pos="672"/>
          <note len="192" key="68" pan="0" vol="197" pos="768"/>
          <note len="192" key="66" pan="0" vol="197" pos="960"/>
          <note len="384" key="61" pan="0" vol="197" pos="1152"/>
          <note len="192" key="61" pan="0" vol="197" pos="1536"/>
          <note len="192" key="63" pan="0" vol="197" pos="1728"/>
          <note len="192" key="64" pan="0" vol="197" pos="1920"/>
          <note len="96" key="68" pan="0" vol="197" pos="2112"/>
          <note len="96" key="66" pan="0" vol="197" pos="2208"/>
          <note len="192" key="66" pan="0" vol="197" pos="2304"/>
          <note len="144" key="61" pan="0" vol="197" pos="2496"/>
          <note len="24" key="61" pan="0" vol="197" pos="2640"/>
          <note len="24" key="63" pan="0" vol="197" pos="2664"/>
          <note len="192" key="64" pan="0" vol="197" pos="2688"/>
          <note len="96" key="64" pan="0" vol="197" pos="2880"/>
          <note len="96" key="68" pan="0" vol="197" pos="2976"/>
          <note len="384" key="73" pan="0" vol="197" pos="3072"/>
          <note len="384" key="73" pan="0" vol="197" pos="3456"/>
        </pattern>
        <pattern muted="0" name="" steps="16" type="1" pos="8064">
          <note len="192" key="61" pan="0" vol="97" pos="0"/>
          <note len="192" key="56" pan="0" vol="97" pos="192"/>
          <note len="192" key="57" pan="0" vol="97" pos="384"/>
          <note len="192" key="59" pan="0" vol="97" pos="576"/>
          <note len="192" key="54" pan="0" vol="97" pos="768"/>
          <note len="192" key="56" pan="0" vol="97" pos="960"/>
          <note len="192" key="57" pan="0" vol="97" pos="1152"/>
          <note len="96" key="59" pan="0" vol="97" pos="1344"/>
          <note len="96" key="60" pan="0" vol="97" pos="1440"/>
          <note len="192" key="61" pan="0" vol="97" pos="1536"/>
          <note len="192" key="59" pan="0" vol="97" pos="1728"/>
          <note len="192" key="58" pan="0" vol="97" pos="1920"/>
          <note len="192" key="50" pan="0" vol="97" pos="2304"/>
          <note len="192" key="57" pan="0" vol="97" pos="2496"/>
          <note len="192" key="59" pan="0" vol="97" pos="2688"/>
        </pattern>
        <pattern muted="0" name="" steps="16" type="1" pos="31872">
          <note len="192" key="56" pan="0" vol="200" pos="0"/>
          <note len="192" key="57" pan="0" vol="200" pos="192"/>
          <note len="192" key="59" pan="0" vol="200" pos="384"/>
          <note len="192" key="54" pan="0" vol="200" pos="576"/>
          <note len="192" key="56" pan="0" vol="200" pos="768"/>
          <note len="192" key="57" pan="0" vol="200" pos="960"/>
          <note len="192" key="59" pan="0" vol="200" pos="1152"/>
          <note len="192" key="63" pan="0" vol="200" pos="1344"/>
          <note len="192" key="61" pan="0" vol="200" pos="1536"/>
          <note len="192" key="61" pan="0" vol="200" pos="1920"/>
          <note len="192" key="64" pan="0" vol="200" pos="2112"/>
          <note len="192" key="62" pan="0" vol="200" pos="2304"/>
          <note len="192" key="61" pan="0" vol="200" pos="2688"/>
          <note len="192" key="66" pan="0" vol="200" pos="2880"/>
        </pattern>
        <pattern muted="0" name="" steps="16" type="1" pos="34944">
          <note len="144" key="61" pan="0" vol="197" pos="0"/>
          <note len="48" key="64" pan="0" vol="197" pos="144"/>
          <note len="144" key="63" pan="0" vol="197" pos="192"/>
          <note len="48" key="68" pan="0" vol="197" pos="336"/>
          <note len="144" key="68" pan="0" vol="197" pos="384"/>
          <note len="24" key="66" pan="0" vol="197" pos="528"/>
          <note len="24" key="64" pan="0" vol="197" pos="552"/>
          <note len="48" key="63" pan="0" vol="197" pos="576"/>
          <note len="48" key="64" pan="0" vol="197" pos="624"/>
          <note len="48" key="59" pan="0" vol="197" pos="672"/>
          <note len="48" key="56" pan="0" vol="197" pos="720"/>
          <note len="144" key="57" pan="0" vol="197" pos="768"/>
          <note len="48" key="64" pan="0" vol="197" pos="912"/>
          <note len="144" key="63" pan="0" vol="197" pos="960"/>
          <note len="48" key="66" pan="0" vol="197" pos="1104"/>
          <note len="96" key="64" pan="0" vol="197" pos="1152"/>
          <note len="48" key="68" pan="0" vol="197" pos="1248"/>
          <note len="48" key="64" pan="0" vol="197" pos="1296"/>
          <note len="48" key="66" pan="0" vol="197" pos="1344"/>
          <note len="48" key="71" pan="0" vol="197" pos="1392"/>
          <note len="48" key="68" pan="0" vol="197" pos="1440"/>
          <note len="48" key="75" pan="0" vol="197" pos="1488"/>
        </pattern>
        <pattern muted="0" name="" steps="16" type="1" pos="50304">
          <note len="192" key="63" pan="0" vol="197" pos="0"/>
          <note len="192" key="61" pan="0" vol="197" pos="192"/>
          <note len="288" key="58" pan="0" vol="197" pos="384"/>
          <note len="96" key="58" pan="0" vol="197" pos="672"/>
          <note len="192" key="63" pan="0" vol="197" pos="768"/>
          <note len="192" key="61" pan="0" vol="197" pos="960"/>
          <note len="384" key="58" pan="0" vol="197" pos="1152"/>
          <note len="192" key="58" pan="0" vol="197" pos="1536"/>
          <note len="192" key="59" pan="0" vol="197" pos="1728"/>
          <note len="192" key="61" pan="0" vol="197" pos="1920"/>
          <note len="192" key="66" pan="0" vol="197" pos="2112"/>
          <note len="384" key="63" pan="0" vol="197" pos="2304"/>
        </pattern>
        <pattern muted="0" name="" steps="16" type="1" pos="53376">
          <note len="192" key="63" pan="0" vol="197" pos="0"/>
          <note len="192" key="61" pan="0" vol="197" pos="192"/>
          <note len="288" key="58" pan="0" vol="197" pos="384"/>
          <note len="96" key="58" pan="0" vol="197" pos="672"/>
          <note len="192" key="70" pan="0" vol="197" pos="768"/>
          <note len="192" key="68" pan="0" vol="197" pos="960"/>
          <note len="384" key="63" pan="0" vol="197" pos="1152"/>
          <note len="192" key="63" pan="0" vol="197" pos="1536"/>
          <note len="192" key="65" pan="0" vol="197" pos="1728"/>
          <note len="192" key="66" pan="0" vol="197" pos="1920"/>
          <note len="96" key="70" pan="0" vol="197" pos="2112"/>
          <note len="96" key="68" pan="0" vol="197" pos="2208"/>
          <note len="192" key="68" pan="0" vol="197" pos="2304"/>
          <note len="144" key="63" pan="0" vol="197" pos="2496"/>
          <note len="24" key="63" pan="0" vol="197" pos="2640"/>
          <note len="24" key="65" pan="0" vol="197" pos="2664"/>
          <note len="192" key="66" pan="0" vol="197" pos="2688"/>
          <note len="96" key="68" pan="0" vol="197" pos="2880"/>
          <note len="96" key="73" pan="0" vol="197" pos="2976"/>
          <note len="384" key="75" pan="0" vol="197" pos="3072"/>
        </pattern>
        <pattern muted="0" name="" steps="16" type="1" pos="768">
          <note len="384" key="49" pan="0" vol="197" pos="0"/>
          <note len="336" key="49" pan="0" vol="155" pos="48"/>
        </pattern>
        <pattern muted="0" name="" steps="16" type="1" pos="1152">
          <note len="384" key="49" pan="0" vol="197" pos="0"/>
          <note len="336" key="49" pan="0" vol="155" pos="48"/>
        </pattern>
        <pattern muted="0" name="" steps="16" type="1" pos="1536">
          <note len="384" key="49" pan="0" vol="197" pos="0"/>
          <note len="336" key="49" pan="0" vol="155" pos="48"/>
        </pattern>
        <pattern muted="0" name="" steps="16" type="1" pos="2304">
          <note len="24" key="49" pan="0" vol="195" pos="0"/>
          <note len="24" key="49" pan="0" vol="195" pos="72"/>
          <note len="24" key="49" pan="0" vol="195" pos="144"/>
          <note len="24" key="49" pan="0" vol="195" pos="216"/>
          <note len="24" key="49" pan="0" vol="195" pos="288"/>
          <note len="24" key="49" pan="0" vol="195" pos="312"/>
          <note len="24" key="49" pan="0" vol="195" pos="360"/>
        </pattern>
        <pattern muted="0" name="" steps="16" type="1" pos="2688">
          <note len="24" key="49" pan="0" vol="195" pos="0"/>
          <note len="24" key="49" pan="0" vol="195" pos="72"/>
          <note len="24" key="49" pan="0" vol="195" pos="144"/>
          <note len="24" key="49" pan="0" vol="195" pos="216"/>
          <note len="24" key="49" pan="0" vol="195" pos="288"/>
          <note len="24" key="49" pan="0" vol="195" pos="312"/>
          <note len="24" key="49" pan="0" vol="195" pos="360"/>
        </pattern>
        <pattern muted="0" name="" steps="16" type="1" pos="3072">
          <note len="24" key="49" pan="0" vol="195" pos="0"/>
          <note len="24" key="49" pan="0" vol="195" pos="72"/>
          <note len="24" key="49" pan="0" vol="195" pos="144"/>
          <note len="192" key="49" pan="0" vol="195" pos="192"/>
        </pattern>
        <pattern muted="0" name="" steps="16" type="1" pos="62592">
          <note len="144" key="63" pan="0" vol="197" pos="0"/>
          <note len="48" key="66" pan="0" vol="197" pos="144"/>
          <note len="144" key="65" pan="0" vol="197" pos="192"/>
          <note len="48" key="70" pan="0" vol="197" pos="336"/>
          <note len="144" key="70" pan="0" vol="197" pos="384"/>
          <note len="24" key="68" pan="0" vol="197" pos="528"/>
          <note len="24" key="66" pan="0" vol="197" pos="552"/>
          <note len="48" key="65" pan="0" vol="197" pos="576"/>
          <note len="48" key="66" pan="0" vol="197" pos="624"/>
          <note len="48" key="61" pan="0" vol="197" pos="672"/>
          <note len="48" key="58" pan="0" vol="197" pos="720"/>
          <note len="144" key="59" pan="0" vol="197" pos="768"/>
          <note len="48" key="66" pan="0" vol="197" pos="912"/>
          <note len="144" key="65" pan="0" vol="197" pos="960"/>
          <note len="48" key="68" pan="0" vol="197" pos="1104"/>
        </pattern>
        <pattern muted="0" name="" steps="16" type="1" pos="64320">
          <note len="384" key="63" pan="0" vol="197" pos="0"/>
        </pattern>
      </track>
      <track muted="0" name="choir hi" type="0" solo="0" mutedBeforeSolo="0">
        <instrumenttrack usemasterpitch="1" pitchrange="1" pitch="0" pan="0" basenote="57" vol="54.4" fxch="0">
          <instrument name="carlapatchbay">
            <carlapatchbay>
              <CARLA-PROJECT VERSION="2.2">
                <EngineSettings>
                  <ForceStereo>false</ForceStereo>
                  <PreferPluginBridges>false</PreferPluginBridges>
                  <PreferUiBridges>true</PreferUiBridges>
                  <UIsAlwaysOnTop>false</UIsAlwaysOnTop>
                  <MaxParameters>200</MaxParameters>
                  <UIBridgesTimeout>4000</UIBridgesTimeout>
                  <LADSPA_PATH>/home/pass/.ladspa:/usr/lib/ladspa:/usr/local/lib/ladspa</LADSPA_PATH>
                  <DSSI_PATH>/home/pass/.dssi:/usr/lib/dssi:/usr/local/lib/dssi</DSSI_PATH>
                  <LV2_PATH>/home/pass/.lv2:/usr/lib/lv2:/usr/local/lib/lv2</LV2_PATH>
                  <VST2_PATH>/home/pass/.vst:/home/pass/.wine/drive_c/Program Files (x86)/VstPlugins:/home/pass/.wine/drive_c/Program Files/VstPlugins:/home/pass/Music/winvst/VST32:/home/pass/Music/winvst/VST64/Plogue Art et Technologie, Inc:/home/pass/vst:/usr/lib/lxvst:/usr/lib/vst:/usr/local/lib/lxvst:/usr/local/lib/vst/home/pass/.lxvst</VST2_PATH>
                  <VST3_PATH>/home/pass/.vst3:/home/pass/.wine/drive_c/Program Files (x86)/Common Files/VST3:/home/pass/.wine/drive_c/Program Files/Common Files/VST3:/usr/lib/vst3:/usr/local/lib/vst3</VST3_PATH>
                  <SF2_PATH>/home/pass/.sounds/sf2/home/pass/.sounds/sf3:/home/pass/samples/soundfonts:/usr/share/soundfonts:/usr/share/sounds/sf2:/usr/share/sounds/sf3</SF2_PATH>
                  <SFZ_PATH>/home/pass/.sounds/sfz:/home/pass/samples:/usr/share/sounds/sfz</SFZ_PATH>
                </EngineSettings>
                <!-- liquidsfz -->
                <Plugin>
                  <Info>
                    <Type>LV2</Type>
                    <Name>liquidsfz</Name>
                    <URI>http://spectmorph.org/plugins/liquidsfz</URI>
                  </Info>
                  <Data>
                    <Active>Yes</Active>
                    <ControlChannel>1</ControlChannel>
                    <Options>0x3f0</Options>
                    <Parameter>
                      <Index>0</Index>
                      <Name>Output Level</Name>
                      <Symbol>level</Symbol>
                      <Value>0</Value>
                    </Parameter>
                    <CustomData>
                      <Type>http://lv2plug.in/ns/ext/atom#Path</Type>
                      <Key>http://spectmorph.org/plugins/liquidsfz#sfzfile</Key>
                      <Value>Chorus - Female (nolimits).sfz</Value>
                    </CustomData>
                  </Data>
                </Plugin>
                <Patchbay>
                  <Connection>
                    <Source>Midi Input:Capture 1</Source>
                    <Target>liquidsfz:events-in</Target>
                  </Connection>
                  <Connection>
                    <Source>liquidsfz:Left Output</Source>
                    <Target>Audio Output:Left</Target>
                  </Connection>
                  <Connection>
                    <Source>liquidsfz:Right Output</Source>
                    <Target>Audio Output:Right</Target>
                  </Connection>
                  <Positions>
                    <Position y1="1290" x1="1710" pluginId="0">
                      <Name>liquidsfz</Name>
                    </Position>
                  </Positions>
                </Patchbay>
              </CARLA-PROJECT>
              <key/>
            </carlapatchbay>
          </instrument>
          <eldata fcut="14000" fwet="0" fres="0.5" ftype="0">
            <elvol rel="0.1" lspd_syncmode="0" pdel="0" lspd_numerator="4" lpdel="0" amt="0" ctlenvamt="0" lshp="0" userwavefile="" dec="0.5" lspd_denominator="4" sustain="0.5" lspd="0.1" latt="0" hold="0.5" att="0" x100="0" lamt="0"/>
            <elcut rel="0.1" lspd_syncmode="0" pdel="0" lspd_numerator="4" lpdel="0" amt="0" ctlenvamt="0" lshp="0" userwavefile="" dec="0.5" lspd_denominator="4" sustain="0.5" lspd="0.1" latt="0" hold="0.5" att="0" x100="0" lamt="0"/>
            <elres rel="0.1" lspd_syncmode="0" pdel="0" lspd_numerator="4" lpdel="0" amt="0" ctlenvamt="0" lshp="0" userwavefile="" dec="0.5" lspd_denominator="4" sustain="0.5" lspd="0.1" latt="0" hold="0.5" att="0" x100="0" lamt="0"/>
          </eldata>
          <chordcreator chord="0" chordrange="1" chord-enabled="0"/>
          <arpeggiator arptime_denominator="4" arptime="200" arp-enabled="0" arpcycle="0" arpgate="100" arp="0" arpmiss="0" arpdir="0" arprange="1" arpmode="0" arpskip="0" arptime_syncmode="0" arptime_numerator="4"/>
          <midiport inputcontroller="0" fixedinputvelocity="-1" readable="0" outputcontroller="0" fixedoutputnote="-1" outputprogram="1" writable="0" fixedoutputvelocity="-1" basevelocity="63" outputchannel="1" inputchannel="0"/>
          <fxchain enabled="0" numofeffects="0"/>
        </instrumenttrack>
        <pattern muted="0" name="" steps="16" type="1" pos="1920">
          <note len="36" key="44" pan="0" vol="78" pos="0"/>
          <note len="36" key="37" pan="0" vol="78" pos="0"/>
          <note len="24" key="1" pan="0" vol="78" pos="0"/>
          <note len="36" key="44" pan="0" vol="78" pos="72"/>
          <note len="36" key="37" pan="0" vol="78" pos="72"/>
          <note len="36" key="44" pan="0" vol="78" pos="144"/>
          <note len="36" key="37" pan="0" vol="78" pos="144"/>
          <note len="36" key="44" pan="0" vol="78" pos="216"/>
          <note len="36" key="37" pan="0" vol="78" pos="216"/>
          <note len="24" key="44" pan="0" vol="78" pos="288"/>
          <note len="24" key="37" pan="0" vol="78" pos="288"/>
          <note len="24" key="0" pan="0" vol="78" pos="300"/>
          <note len="48" key="44" pan="0" vol="78" pos="312"/>
          <note len="48" key="37" pan="0" vol="78" pos="312"/>
          <note len="24" key="1" pan="0" vol="78" pos="336"/>
          <note len="24" key="44" pan="0" vol="78" pos="360"/>
          <note len="24" key="37" pan="0" vol="78" pos="360"/>
          <note len="36" key="51" pan="0" vol="78" pos="384"/>
          <note len="36" key="44" pan="0" vol="78" pos="384"/>
          <note len="36" key="51" pan="0" vol="78" pos="456"/>
          <note len="36" key="44" pan="0" vol="78" pos="456"/>
          <note len="36" key="51" pan="0" vol="78" pos="528"/>
          <note len="36" key="44" pan="0" vol="78" pos="528"/>
          <note len="36" key="51" pan="0" vol="78" pos="600"/>
          <note len="36" key="44" pan="0" vol="78" pos="600"/>
          <note len="24" key="51" pan="0" vol="78" pos="672"/>
          <note len="24" key="44" pan="0" vol="78" pos="672"/>
          <note len="24" key="0" pan="0" vol="78" pos="684"/>
          <note len="48" key="51" pan="0" vol="78" pos="696"/>
          <note len="48" key="44" pan="0" vol="78" pos="696"/>
          <note len="24" key="1" pan="0" vol="78" pos="720"/>
          <note len="24" key="51" pan="0" vol="78" pos="744"/>
          <note len="24" key="44" pan="0" vol="78" pos="744"/>
          <note len="36" key="46" pan="0" vol="78" pos="768"/>
          <note len="36" key="39" pan="0" vol="78" pos="768"/>
          <note len="36" key="46" pan="0" vol="78" pos="840"/>
          <note len="36" key="39" pan="0" vol="78" pos="840"/>
          <note len="36" key="46" pan="0" vol="78" pos="912"/>
          <note len="36" key="39" pan="0" vol="78" pos="912"/>
          <note len="36" key="46" pan="0" vol="78" pos="984"/>
          <note len="36" key="39" pan="0" vol="78" pos="984"/>
          <note len="24" key="46" pan="0" vol="78" pos="1056"/>
          <note len="24" key="39" pan="0" vol="78" pos="1056"/>
          <note len="24" key="0" pan="0" vol="78" pos="1068"/>
          <note len="48" key="46" pan="0" vol="78" pos="1080"/>
          <note len="48" key="39" pan="0" vol="78" pos="1080"/>
          <note len="24" key="1" pan="0" vol="78" pos="1116"/>
          <note len="24" key="46" pan="0" vol="78" pos="1128"/>
          <note len="24" key="39" pan="0" vol="78" pos="1128"/>
          <note len="36" key="45" pan="0" vol="78" pos="1152"/>
          <note len="36" key="38" pan="0" vol="78" pos="1152"/>
          <note len="36" key="45" pan="0" vol="78" pos="1224"/>
          <note len="36" key="38" pan="0" vol="78" pos="1224"/>
          <note len="36" key="45" pan="0" vol="78" pos="1296"/>
          <note len="36" key="38" pan="0" vol="78" pos="1296"/>
        </pattern>
        <pattern muted="0" name="" steps="16" type="1" pos="44160">
          <note len="144" key="75" pan="0" vol="200" pos="0"/>
          <note len="144" key="63" pan="0" vol="137" pos="0"/>
          <note len="48" key="78" pan="0" vol="200" pos="144"/>
          <note len="48" key="66" pan="0" vol="137" pos="144"/>
          <note len="144" key="77" pan="0" vol="200" pos="192"/>
          <note len="144" key="65" pan="0" vol="137" pos="192"/>
          <note len="48" key="82" pan="0" vol="200" pos="336"/>
          <note len="48" key="70" pan="0" vol="137" pos="336"/>
          <note len="144" key="82" pan="0" vol="200" pos="384"/>
          <note len="144" key="70" pan="0" vol="137" pos="384"/>
          <note len="24" key="80" pan="0" vol="200" pos="528"/>
          <note len="24" key="68" pan="0" vol="137" pos="528"/>
          <note len="24" key="78" pan="0" vol="200" pos="552"/>
          <note len="24" key="66" pan="0" vol="137" pos="552"/>
          <note len="48" key="77" pan="0" vol="200" pos="576"/>
          <note len="48" key="65" pan="0" vol="137" pos="576"/>
          <note len="48" key="78" pan="0" vol="200" pos="624"/>
          <note len="48" key="66" pan="0" vol="137" pos="624"/>
          <note len="48" key="73" pan="0" vol="200" pos="672"/>
          <note len="48" key="61" pan="0" vol="137" pos="672"/>
          <note len="48" key="70" pan="0" vol="200" pos="720"/>
          <note len="48" key="58" pan="0" vol="137" pos="720"/>
          <note len="96" key="71" pan="0" vol="200" pos="768"/>
          <note len="96" key="59" pan="0" vol="137" pos="768"/>
          <note len="48" key="75" pan="0" vol="200" pos="864"/>
          <note len="48" key="63" pan="0" vol="137" pos="864"/>
          <note len="48" key="78" pan="0" vol="200" pos="912"/>
          <note len="48" key="66" pan="0" vol="137" pos="912"/>
          <note len="96" key="78" pan="0" vol="200" pos="960"/>
          <note len="96" key="66" pan="0" vol="137" pos="960"/>
          <note len="48" key="77" pan="0" vol="200" pos="1056"/>
          <note len="48" key="65" pan="0" vol="137" pos="1056"/>
          <note len="48" key="78" pan="0" vol="200" pos="1104"/>
          <note len="48" key="66" pan="0" vol="137" pos="1104"/>
          <note len="72" key="85" pan="0" vol="200" pos="1152"/>
          <note len="72" key="73" pan="0" vol="137" pos="1152"/>
          <note len="72" key="83" pan="0" vol="200" pos="1224"/>
          <note len="72" key="71" pan="0" vol="137" pos="1224"/>
          <note len="48" key="82" pan="0" vol="200" pos="1296"/>
          <note len="48" key="70" pan="0" vol="137" pos="1296"/>
          <note len="192" key="80" pan="0" vol="200" pos="1344"/>
          <note len="192" key="68" pan="0" vol="137" pos="1344"/>
          <note len="72" key="78" pan="0" vol="200" pos="1536"/>
          <note len="72" key="66" pan="0" vol="137" pos="1536"/>
          <note len="72" key="77" pan="0" vol="200" pos="1608"/>
          <note len="72" key="65" pan="0" vol="137" pos="1608"/>
          <note len="48" key="78" pan="0" vol="200" pos="1680"/>
          <note len="48" key="66" pan="0" vol="137" pos="1680"/>
          <note len="144" key="82" pan="0" vol="200" pos="1728"/>
          <note len="144" key="70" pan="0" vol="137" pos="1728"/>
          <note len="48" key="77" pan="0" vol="179" pos="1872"/>
          <note len="48" key="65" pan="0" vol="137" pos="1872"/>
          <note len="240" key="75" pan="0" vol="144" pos="1920"/>
          <note len="240" key="63" pan="0" vol="137" pos="1920"/>
          <note len="48" key="78" pan="0" vol="200" pos="2160"/>
          <note len="48" key="66" pan="0" vol="137" pos="2160"/>
          <note len="48" key="80" pan="0" vol="200" pos="2208"/>
          <note len="48" key="68" pan="0" vol="137" pos="2208"/>
          <note len="48" key="82" pan="0" vol="200" pos="2256"/>
          <note len="48" key="70" pan="0" vol="137" pos="2256"/>
          <note len="72" key="83" pan="0" vol="200" pos="2304"/>
          <note len="72" key="71" pan="0" vol="137" pos="2304"/>
          <note len="72" key="82" pan="0" vol="200" pos="2376"/>
          <note len="72" key="70" pan="0" vol="137" pos="2376"/>
          <note len="48" key="80" pan="0" vol="200" pos="2448"/>
          <note len="48" key="68" pan="0" vol="137" pos="2448"/>
          <note len="48" key="78" pan="0" vol="200" pos="2496"/>
          <note len="48" key="66" pan="0" vol="137" pos="2496"/>
          <note len="48" key="75" pan="0" vol="200" pos="2544"/>
          <note len="48" key="63" pan="0" vol="137" pos="2544"/>
          <note len="48" key="78" pan="0" vol="200" pos="2592"/>
          <note len="48" key="66" pan="0" vol="137" pos="2592"/>
          <note len="48" key="82" pan="0" vol="200" pos="2640"/>
          <note len="48" key="70" pan="0" vol="137" pos="2640"/>
          <note len="192" key="80" pan="0" vol="200" pos="2688"/>
          <note len="192" key="68" pan="0" vol="137" pos="2688"/>
        </pattern>
        <pattern muted="0" name="" steps="16" type="0" pos="15744"/>
        <pattern muted="0" name="" steps="16" type="1" pos="21888">
          <note len="192" key="73" pan="0" vol="200" pos="0"/>
          <note len="192" key="71" pan="0" vol="200" pos="192"/>
          <note len="384" key="68" pan="0" vol="200" pos="384"/>
          <note len="192" key="68" pan="0" vol="200" pos="768"/>
          <note len="192" key="66" pan="0" vol="200" pos="960"/>
          <note len="384" key="64" pan="0" vol="200" pos="1152"/>
        </pattern>
        <pattern muted="0" name="" steps="16" type="1" pos="24000">
          <note len="192" key="76" pan="0" vol="200" pos="0"/>
          <note len="384" key="73" pan="0" vol="200" pos="192"/>
          <note len="384" key="73" pan="0" vol="200" pos="576"/>
        </pattern>
        <pattern muted="0" name="" steps="16" type="1" pos="24960">
          <note len="192" key="73" pan="0" vol="200" pos="0"/>
          <note len="192" key="71" pan="0" vol="200" pos="192"/>
          <note len="288" key="68" pan="0" vol="200" pos="384"/>
          <note len="96" key="68" pan="0" vol="200" pos="672"/>
          <note len="192" key="80" pan="0" vol="200" pos="768"/>
          <note len="192" key="78" pan="0" vol="200" pos="960"/>
          <note len="384" key="73" pan="0" vol="200" pos="1152"/>
          <note len="192" key="73" pan="0" vol="200" pos="1536"/>
          <note len="192" key="75" pan="0" vol="200" pos="1728"/>
          <note len="192" key="76" pan="0" vol="200" pos="1920"/>
          <note len="96" key="80" pan="0" vol="200" pos="2112"/>
          <note len="96" key="78" pan="0" vol="200" pos="2208"/>
          <note len="192" key="78" pan="0" vol="200" pos="2304"/>
          <note len="144" key="73" pan="0" vol="200" pos="2496"/>
          <note len="24" key="73" pan="0" vol="200" pos="2640"/>
          <note len="24" key="75" pan="0" vol="200" pos="2664"/>
          <note len="192" key="76" pan="0" vol="200" pos="2688"/>
          <note len="96" key="76" pan="0" vol="200" pos="2880"/>
          <note len="96" key="80" pan="0" vol="200" pos="2976"/>
          <note len="384" key="85" pan="0" vol="200" pos="3072"/>
          <note len="384" key="85" pan="0" vol="200" pos="3456"/>
        </pattern>
      </track>
      <track muted="0" name="Plucked 6" type="0" solo="0" mutedBeforeSolo="0">
        <instrumenttrack usemasterpitch="1" pitchrange="1" pitch="0" pan="0" basenote="57" vol="147.2" fxch="0">
          <instrument name="zynaddsubfx">
            <zynaddsubfx fmgain="127" forwardmidicc="1" rescenterfreq="64" bandwidth="64" modifiedcontrollers="" filterq="64" resbandwidth="64" portamento="0" filterfreq="64">
              <ZynAddSubFX-data version-minor="4" version-revision="1" ZynAddSubFX-author="Nasca Octavian Paul" version-major="2">
                <INFORMATION/>
                <BASE_PARAMETERS>
                  <par name="max_midi_parts" value="16"/>
                  <par name="max_kit_items_per_instrument" value="16"/>
                  <par name="max_system_effects" value="4"/>
                  <par name="max_insertion_effects" value="8"/>
                  <par name="max_instrument_effects" value="3"/>
                  <par name="max_addsynth_voices" value="8"/>
                </BASE_PARAMETERS>
                <MASTER>
                  <par name="volume" value="80"/>
                  <par name="key_shift" value="64"/>
                  <par_bool name="nrpn_receive" value="yes"/>
                  <MICROTONAL>
                    <string name="name">12tET</string>
                    <string name="comment">Equal Temperament 12 notes per octave</string>
                    <par_bool name="invert_up_down" value="no"/>
                    <par name="invert_up_down_center" value="60"/>
                    <par_bool name="enabled" value="no"/>
                    <par name="global_fine_detune" value="64"/>
                    <par name="a_note" value="69"/>
                    <par_real name="a_freq" value="440.000000"/>
                  </MICROTONAL>
                  <PART id="0">
                    <par_bool name="enabled" value="yes"/>
                    <par name="volume" value="96"/>
                    <par name="panning" value="64"/>
                    <par name="min_key" value="0"/>
                    <par name="max_key" value="127"/>
                    <par name="key_shift" value="64"/>
                    <par name="rcv_chn" value="0"/>
                    <par name="velocity_sensing" value="64"/>
                    <par name="velocity_offset" value="64"/>
                    <par_bool name="note_on" value="yes"/>
                    <par_bool name="poly_mode" value="yes"/>
                    <par name="legato_mode" value="0"/>
                    <par name="key_limit" value="15"/>
                    <INSTRUMENT>
                      <INFO>
                        <string name="name">bell_pad</string>
                        <string name="author"/>
                        <string name="comments"/>
                        <par name="type" value="0"/>
                      </INFO>
                      <INSTRUMENT_KIT>
                        <par name="kit_mode" value="0"/>
                        <par_bool name="drum_mode" value="no"/>
                        <INSTRUMENT_KIT_ITEM id="0">
                          <par_bool name="enabled" value="yes"/>
                          <string name="name"/>
                          <par_bool name="muted" value="no"/>
                          <par name="min_key" value="0"/>
                          <par name="max_key" value="127"/>
                          <par name="send_to_instrument_effect" value="0"/>
                          <par_bool name="add_enabled" value="yes"/>
                          <ADD_SYNTH_PARAMETERS>
                            <par_bool name="stereo" value="yes"/>
                            <AMPLITUDE_PARAMETERS>
                              <par name="volume" value="90"/>
                              <par name="panning" value="64"/>
                              <par name="velocity_sensing" value="64"/>
                              <par name="punch_strength" value="0"/>
                              <par name="punch_time" value="60"/>
                              <par name="punch_stretch" value="64"/>
                              <par name="punch_velocity_sensing" value="72"/>
                              <par name="harmonic_randomness_grouping" value="0"/>
                              <AMPLITUDE_ENVELOPE>
                                <par_bool name="free_mode" value="no"/>
                                <par name="env_points" value="4"/>
                                <par name="env_sustain" value="2"/>
                                <par name="env_stretch" value="64"/>
                                <par_bool name="forced_release" value="yes"/>
                                <par_bool name="linear_envelope" value="no"/>
                                <par name="A_dt" value="0"/>
                                <par name="D_dt" value="80"/>
                                <par name="R_dt" value="87"/>
                                <par name="A_val" value="64"/>
                                <par name="D_val" value="64"/>
                                <par name="S_val" value="0"/>
                                <par name="R_val" value="64"/>
                              </AMPLITUDE_ENVELOPE>
                              <AMPLITUDE_LFO>
                                <par_real name="freq" value="0.629921"/>
                                <par name="intensity" value="0"/>
                                <par name="start_phase" value="64"/>
                                <par name="lfo_type" value="0"/>
                                <par name="randomness_amplitude" value="0"/>
                                <par name="randomness_frequency" value="0"/>
                                <par name="delay" value="0"/>
                                <par name="stretch" value="64"/>
                                <par_bool name="continous" value="no"/>
                              </AMPLITUDE_LFO>
                            </AMPLITUDE_PARAMETERS>
                            <FREQUENCY_PARAMETERS>
                              <par name="detune" value="8192"/>
                              <par name="coarse_detune" value="0"/>
                              <par name="detune_type" value="1"/>
                              <par name="bandwidth" value="64"/>
                              <FREQUENCY_ENVELOPE>
                                <par_bool name="free_mode" value="no"/>
                                <par name="env_points" value="3"/>
                                <par name="env_sustain" value="1"/>
                                <par name="env_stretch" value="0"/>
                                <par_bool name="forced_release" value="no"/>
                                <par_bool name="linear_envelope" value="no"/>
                                <par name="A_dt" value="50"/>
                                <par name="D_dt" value="10"/>
                                <par name="R_dt" value="60"/>
                                <par name="A_val" value="64"/>
                                <par name="D_val" value="64"/>
                                <par name="S_val" value="64"/>
                                <par name="R_val" value="64"/>
                              </FREQUENCY_ENVELOPE>
                              <FREQUENCY_LFO>
                                <par_real name="freq" value="0.551181"/>
                                <par name="intensity" value="0"/>
                                <par name="start_phase" value="64"/>
                                <par name="lfo_type" value="0"/>
                                <par name="randomness_amplitude" value="0"/>
                                <par name="randomness_frequency" value="0"/>
                                <par name="delay" value="0"/>
                                <par name="stretch" value="64"/>
                                <par_bool name="continous" value="no"/>
                              </FREQUENCY_LFO>
                            </FREQUENCY_PARAMETERS>
                            <FILTER_PARAMETERS>
                              <par name="velocity_sensing_amplitude" value="64"/>
                              <par name="velocity_sensing" value="64"/>
                              <FILTER>
                                <par name="category" value="0"/>
                                <par name="type" value="2"/>
                                <par name="freq" value="94"/>
                                <par name="q" value="40"/>
                                <par name="stages" value="0"/>
                                <par name="freq_track" value="64"/>
                                <par name="gain" value="64"/>
                              </FILTER>
                              <FILTER_ENVELOPE>
                                <par_bool name="free_mode" value="no"/>
                                <par name="env_points" value="4"/>
                                <par name="env_sustain" value="2"/>
                                <par name="env_stretch" value="0"/>
                                <par_bool name="forced_release" value="yes"/>
                                <par_bool name="linear_envelope" value="no"/>
                                <par name="A_dt" value="40"/>
                                <par name="D_dt" value="70"/>
                                <par name="R_dt" value="61"/>
                                <par name="A_val" value="64"/>
                                <par name="D_val" value="64"/>
                                <par name="S_val" value="64"/>
                                <par name="R_val" value="64"/>
                              </FILTER_ENVELOPE>
                              <FILTER_LFO>
                                <par_real name="freq" value="0.629921"/>
                                <par name="intensity" value="0"/>
                                <par name="start_phase" value="64"/>
                                <par name="lfo_type" value="0"/>
                                <par name="randomness_amplitude" value="0"/>
                                <par name="randomness_frequency" value="0"/>
                                <par name="delay" value="0"/>
                                <par name="stretch" value="64"/>
                                <par_bool name="continous" value="no"/>
                              </FILTER_LFO>
                            </FILTER_PARAMETERS>
                            <RESONANCE>
                              <par_bool name="enabled" value="no"/>
                            </RESONANCE>
                            <VOICE id="0">
                              <par_bool name="enabled" value="yes"/>
                              <par name="type" value="0"/>
                              <par name="unison_size" value="10"/>
                              <par name="unison_frequency_spread" value="60"/>
                              <par name="unison_stereo_spread" value="64"/>
                              <par name="unison_vibratto" value="64"/>
                              <par name="unison_vibratto_speed" value="64"/>
                              <par name="unison_invert_phase" value="0"/>
                              <par name="unison_phase_randomness" value="127"/>
                              <par name="delay" value="0"/>
                              <par_bool name="resonance" value="yes"/>
                              <par name="ext_oscil" value="-1"/>
                              <par name="ext_fm_oscil" value="-1"/>
                              <par name="oscil_phase" value="64"/>
                              <par name="oscil_fm_phase" value="64"/>
                              <par_bool name="filter_enabled" value="no"/>
                              <par_bool name="filter_bypass" value="no"/>
                              <par name="fm_enabled" value="0"/>
                              <OSCIL>
                                <par name="harmonic_mag_type" value="0"/>
                                <par name="base_function" value="0"/>
                                <par name="base_function_par" value="64"/>
                                <par name="base_function_modulation" value="0"/>
                                <par name="base_function_modulation_par1" value="64"/>
                                <par name="base_function_modulation_par2" value="64"/>
                                <par name="base_function_modulation_par3" value="32"/>
                                <par name="modulation" value="0"/>
                                <par name="modulation_par1" value="64"/>
                                <par name="modulation_par2" value="64"/>
                                <par name="modulation_par3" value="32"/>
                                <par name="wave_shaping" value="64"/>
                                <par name="wave_shaping_function" value="0"/>
                                <par name="filter_type" value="0"/>
                                <par name="filter_par1" value="64"/>
                                <par name="filter_par2" value="64"/>
                                <par name="filter_before_wave_shaping" value="0"/>
                                <par name="spectrum_adjust_type" value="0"/>
                                <par name="spectrum_adjust_par" value="64"/>
                                <par name="rand" value="64"/>
                                <par name="amp_rand_type" value="0"/>
                                <par name="amp_rand_power" value="64"/>
                                <par name="harmonic_shift" value="0"/>
                                <par_bool name="harmonic_shift_first" value="no"/>
                                <par name="adaptive_harmonics" value="0"/>
                                <par name="adaptive_harmonics_base_frequency" value="128"/>
                                <par name="adaptive_harmonics_power" value="100"/>
                                <HARMONICS>
                                  <HARMONIC id="1">
                                    <par name="mag" value="127"/>
                                    <par name="phase" value="64"/>
                                  </HARMONIC>
                                  <HARMONIC id="2">
                                    <par name="mag" value="127"/>
                                    <par name="phase" value="64"/>
                                  </HARMONIC>
                                  <HARMONIC id="3">
                                    <par name="mag" value="127"/>
                                    <par name="phase" value="64"/>
                                  </HARMONIC>
                                  <HARMONIC id="9">
                                    <par name="mag" value="97"/>
                                    <par name="phase" value="64"/>
                                  </HARMONIC>
                                  <HARMONIC id="15">
                                    <par name="mag" value="88"/>
                                    <par name="phase" value="64"/>
                                  </HARMONIC>
                                </HARMONICS>
                              </OSCIL>
                              <AMPLITUDE_PARAMETERS>
                                <par name="panning" value="64"/>
                                <par name="volume" value="100"/>
                                <par_bool name="volume_minus" value="no"/>
                                <par name="velocity_sensing" value="127"/>
                                <par_bool name="amp_envelope_enabled" value="no"/>
                                <par_bool name="amp_lfo_enabled" value="no"/>
                              </AMPLITUDE_PARAMETERS>
                              <FREQUENCY_PARAMETERS>
                                <par_bool name="fixed_freq" value="no"/>
                                <par name="fixed_freq_et" value="0"/>
                                <par name="detune" value="8192"/>
                                <par name="coarse_detune" value="0"/>
                                <par name="detune_type" value="0"/>
                                <par_bool name="freq_envelope_enabled" value="no"/>
                                <par_bool name="freq_lfo_enabled" value="no"/>
                              </FREQUENCY_PARAMETERS>
                            </VOICE>
                            <VOICE id="1">
                              <par_bool name="enabled" value="no"/>
                            </VOICE>
                            <VOICE id="2">
                              <par_bool name="enabled" value="no"/>
                            </VOICE>
                            <VOICE id="3">
                              <par_bool name="enabled" value="no"/>
                            </VOICE>
                            <VOICE id="4">
                              <par_bool name="enabled" value="no"/>
                            </VOICE>
                            <VOICE id="5">
                              <par_bool name="enabled" value="no"/>
                            </VOICE>
                            <VOICE id="6">
                              <par_bool name="enabled" value="no"/>
                            </VOICE>
                            <VOICE id="7">
                              <par_bool name="enabled" value="no"/>
                            </VOICE>
                          </ADD_SYNTH_PARAMETERS>
                          <par_bool name="sub_enabled" value="no"/>
                          <par_bool name="pad_enabled" value="no"/>
                        </INSTRUMENT_KIT_ITEM>
                        <INSTRUMENT_KIT_ITEM id="1">
                          <par_bool name="enabled" value="no"/>
                        </INSTRUMENT_KIT_ITEM>
                        <INSTRUMENT_KIT_ITEM id="2">
                          <par_bool name="enabled" value="no"/>
                        </INSTRUMENT_KIT_ITEM>
                        <INSTRUMENT_KIT_ITEM id="3">
                          <par_bool name="enabled" value="no"/>
                        </INSTRUMENT_KIT_ITEM>
                        <INSTRUMENT_KIT_ITEM id="4">
                          <par_bool name="enabled" value="no"/>
                        </INSTRUMENT_KIT_ITEM>
                        <INSTRUMENT_KIT_ITEM id="5">
                          <par_bool name="enabled" value="no"/>
                        </INSTRUMENT_KIT_ITEM>
                        <INSTRUMENT_KIT_ITEM id="6">
                          <par_bool name="enabled" value="no"/>
                        </INSTRUMENT_KIT_ITEM>
                        <INSTRUMENT_KIT_ITEM id="7">
                          <par_bool name="enabled" value="no"/>
                        </INSTRUMENT_KIT_ITEM>
                        <INSTRUMENT_KIT_ITEM id="8">
                          <par_bool name="enabled" value="no"/>
                        </INSTRUMENT_KIT_ITEM>
                        <INSTRUMENT_KIT_ITEM id="9">
                          <par_bool name="enabled" value="no"/>
                        </INSTRUMENT_KIT_ITEM>
                        <INSTRUMENT_KIT_ITEM id="10">
                          <par_bool name="enabled" value="no"/>
                        </INSTRUMENT_KIT_ITEM>
                        <INSTRUMENT_KIT_ITEM id="11">
                          <par_bool name="enabled" value="no"/>
                        </INSTRUMENT_KIT_ITEM>
                        <INSTRUMENT_KIT_ITEM id="12">
                          <par_bool name="enabled" value="no"/>
                        </INSTRUMENT_KIT_ITEM>
                        <INSTRUMENT_KIT_ITEM id="13">
                          <par_bool name="enabled" value="no"/>
                        </INSTRUMENT_KIT_ITEM>
                        <INSTRUMENT_KIT_ITEM id="14">
                          <par_bool name="enabled" value="no"/>
                        </INSTRUMENT_KIT_ITEM>
                        <INSTRUMENT_KIT_ITEM id="15">
                          <par_bool name="enabled" value="no"/>
                        </INSTRUMENT_KIT_ITEM>
                      </INSTRUMENT_KIT>
                      <INSTRUMENT_EFFECTS>
                        <INSTRUMENT_EFFECT id="0">
                          <EFFECT>
                            <par name="type" value="1"/>
                            <par name="preset" value="0"/>
                            <EFFECT_PARAMETERS>
                              <par_no id="0">
                                <par name="par" value="40"/>
                              </par_no>
                              <par_no id="1">
                                <par name="par" value="64"/>
                              </par_no>
                              <par_no id="2">
                                <par name="par" value="63"/>
                              </par_no>
                              <par_no id="3">
                                <par name="par" value="24"/>
                              </par_no>
                              <par_no id="7">
                                <par name="par" value="85"/>
                              </par_no>
                              <par_no id="8">
                                <par name="par" value="5"/>
                              </par_no>
                              <par_no id="9">
                                <par name="par" value="83"/>
                              </par_no>
                              <par_no id="10">
                                <par name="par" value="1"/>
                              </par_no>
                              <par_no id="11">
                                <par name="par" value="64"/>
                              </par_no>
                              <par_no id="12">
                                <par name="par" value="20"/>
                              </par_no>
                            </EFFECT_PARAMETERS>
                          </EFFECT>
                          <par name="route" value="0"/>
                          <par_bool name="bypass" value="no"/>
                        </INSTRUMENT_EFFECT>
                        <INSTRUMENT_EFFECT id="1">
                          <EFFECT>
                            <par name="type" value="0"/>
                          </EFFECT>
                          <par name="route" value="0"/>
                          <par_bool name="bypass" value="no"/>
                        </INSTRUMENT_EFFECT>
                        <INSTRUMENT_EFFECT id="2">
                          <EFFECT>
                            <par name="type" value="0"/>
                          </EFFECT>
                          <par name="route" value="0"/>
                          <par_bool name="bypass" value="no"/>
                        </INSTRUMENT_EFFECT>
                      </INSTRUMENT_EFFECTS>
                    </INSTRUMENT>
                    <CONTROLLER>
                      <par name="pitchwheel_bendrange" value="100"/>
                      <par_bool name="expression_receive" value="yes"/>
                      <par name="panning_depth" value="64"/>
                      <par name="filter_cutoff_depth" value="64"/>
                      <par name="filter_q_depth" value="64"/>
                      <par name="bandwidth_depth" value="64"/>
                      <par name="mod_wheel_depth" value="80"/>
                      <par_bool name="mod_wheel_exponential" value="no"/>
                      <par_bool name="fm_amp_receive" value="yes"/>
                      <par_bool name="volume_receive" value="yes"/>
                      <par_bool name="sustain_receive" value="yes"/>
                      <par_bool name="portamento_receive" value="yes"/>
                      <par name="portamento_time" value="64"/>
                      <par name="portamento_pitchthresh" value="3"/>
                      <par name="portamento_pitchthreshtype" value="1"/>
                      <par name="portamento_portamento" value="0"/>
                      <par name="portamento_updowntimestretch" value="64"/>
                      <par name="portamento_proportional" value="0"/>
                      <par name="portamento_proprate" value="80"/>
                      <par name="portamento_propdepth" value="90"/>
                      <par name="resonance_center_depth" value="64"/>
                      <par name="resonance_bandwidth_depth" value="64"/>
                    </CONTROLLER>
                  </PART>
                  <PART id="1">
                    <par_bool name="enabled" value="no"/>
                  </PART>
                  <PART id="2">
                    <par_bool name="enabled" value="no"/>
                  </PART>
                  <PART id="3">
                    <par_bool name="enabled" value="no"/>
                  </PART>
                  <PART id="4">
                    <par_bool name="enabled" value="no"/>
                  </PART>
                  <PART id="5">
                    <par_bool name="enabled" value="no"/>
                  </PART>
                  <PART id="6">
                    <par_bool name="enabled" value="no"/>
                  </PART>
                  <PART id="7">
                    <par_bool name="enabled" value="no"/>
                  </PART>
                  <PART id="8">
                    <par_bool name="enabled" value="no"/>
                  </PART>
                  <PART id="9">
                    <par_bool name="enabled" value="no"/>
                  </PART>
                  <PART id="10">
                    <par_bool name="enabled" value="no"/>
                  </PART>
                  <PART id="11">
                    <par_bool name="enabled" value="no"/>
                  </PART>
                  <PART id="12">
                    <par_bool name="enabled" value="no"/>
                  </PART>
                  <PART id="13">
                    <par_bool name="enabled" value="no"/>
                  </PART>
                  <PART id="14">
                    <par_bool name="enabled" value="no"/>
                  </PART>
                  <PART id="15">
                    <par_bool name="enabled" value="no"/>
                  </PART>
                  <SYSTEM_EFFECTS>
                    <SYSTEM_EFFECT id="0">
                      <EFFECT>
                        <par name="type" value="0"/>
                      </EFFECT>
                      <VOLUME id="0">
                        <par name="vol" value="0"/>
                      </VOLUME>
                      <VOLUME id="1">
                        <par name="vol" value="0"/>
                      </VOLUME>
                      <VOLUME id="2">
                        <par name="vol" value="0"/>
                      </VOLUME>
                      <VOLUME id="3">
                        <par name="vol" value="0"/>
                      </VOLUME>
                      <VOLUME id="4">
                        <par name="vol" value="0"/>
                      </VOLUME>
                      <VOLUME id="5">
                        <par name="vol" value="0"/>
                      </VOLUME>
                      <VOLUME id="6">
                        <par name="vol" value="0"/>
                      </VOLUME>
                      <VOLUME id="7">
                        <par name="vol" value="0"/>
                      </VOLUME>
                      <VOLUME id="8">
                        <par name="vol" value="0"/>
                      </VOLUME>
                      <VOLUME id="9">
                        <par name="vol" value="0"/>
                      </VOLUME>
                      <VOLUME id="10">
                        <par name="vol" value="0"/>
                      </VOLUME>
                      <VOLUME id="11">
                        <par name="vol" value="0"/>
                      </VOLUME>
                      <VOLUME id="12">
                        <par name="vol" value="0"/>
                      </VOLUME>
                      <VOLUME id="13">
                        <par name="vol" value="0"/>
                      </VOLUME>
                      <VOLUME id="14">
                        <par name="vol" value="0"/>
                      </VOLUME>
                      <VOLUME id="15">
                        <par name="vol" value="0"/>
                      </VOLUME>
                      <SENDTO id="1">
                        <par name="send_vol" value="0"/>
                      </SENDTO>
                      <SENDTO id="2">
                        <par name="send_vol" value="0"/>
                      </SENDTO>
                      <SENDTO id="3">
                        <par name="send_vol" value="0"/>
                      </SENDTO>
                    </SYSTEM_EFFECT>
                    <SYSTEM_EFFECT id="1">
                      <EFFECT>
                        <par name="type" value="0"/>
                      </EFFECT>
                      <VOLUME id="0">
                        <par name="vol" value="0"/>
                      </VOLUME>
                      <VOLUME id="1">
                        <par name="vol" value="0"/>
                      </VOLUME>
                      <VOLUME id="2">
                        <par name="vol" value="0"/>
                      </VOLUME>
                      <VOLUME id="3">
                        <par name="vol" value="0"/>
                      </VOLUME>
                      <VOLUME id="4">
                        <par name="vol" value="0"/>
                      </VOLUME>
                      <VOLUME id="5">
                        <par name="vol" value="0"/>
                      </VOLUME>
                      <VOLUME id="6">
                        <par name="vol" value="0"/>
                      </VOLUME>
                      <VOLUME id="7">
                        <par name="vol" value="0"/>
                      </VOLUME>
                      <VOLUME id="8">
                        <par name="vol" value="0"/>
                      </VOLUME>
                      <VOLUME id="9">
                        <par name="vol" value="0"/>
                      </VOLUME>
                      <VOLUME id="10">
                        <par name="vol" value="0"/>
                      </VOLUME>
                      <VOLUME id="11">
                        <par name="vol" value="0"/>
                      </VOLUME>
                      <VOLUME id="12">
                        <par name="vol" value="0"/>
                      </VOLUME>
                      <VOLUME id="13">
                        <par name="vol" value="0"/>
                      </VOLUME>
                      <VOLUME id="14">
                        <par name="vol" value="0"/>
                      </VOLUME>
                      <VOLUME id="15">
                        <par name="vol" value="0"/>
                      </VOLUME>
                      <SENDTO id="2">
                        <par name="send_vol" value="0"/>
                      </SENDTO>
                      <SENDTO id="3">
                        <par name="send_vol" value="0"/>
                      </SENDTO>
                    </SYSTEM_EFFECT>
                    <SYSTEM_EFFECT id="2">
                      <EFFECT>
                        <par name="type" value="0"/>
                      </EFFECT>
                      <VOLUME id="0">
                        <par name="vol" value="0"/>
                      </VOLUME>
                      <VOLUME id="1">
                        <par name="vol" value="0"/>
                      </VOLUME>
                      <VOLUME id="2">
                        <par name="vol" value="0"/>
                      </VOLUME>
                      <VOLUME id="3">
                        <par name="vol" value="0"/>
                      </VOLUME>
                      <VOLUME id="4">
                        <par name="vol" value="0"/>
                      </VOLUME>
                      <VOLUME id="5">
                        <par name="vol" value="0"/>
                      </VOLUME>
                      <VOLUME id="6">
                        <par name="vol" value="0"/>
                      </VOLUME>
                      <VOLUME id="7">
                        <par name="vol" value="0"/>
                      </VOLUME>
                      <VOLUME id="8">
                        <par name="vol" value="0"/>
                      </VOLUME>
                      <VOLUME id="9">
                        <par name="vol" value="0"/>
                      </VOLUME>
                      <VOLUME id="10">
                        <par name="vol" value="0"/>
                      </VOLUME>
                      <VOLUME id="11">
                        <par name="vol" value="0"/>
                      </VOLUME>
                      <VOLUME id="12">
                        <par name="vol" value="0"/>
                      </VOLUME>
                      <VOLUME id="13">
                        <par name="vol" value="0"/>
                      </VOLUME>
                      <VOLUME id="14">
                        <par name="vol" value="0"/>
                      </VOLUME>
                      <VOLUME id="15">
                        <par name="vol" value="0"/>
                      </VOLUME>
                      <SENDTO id="3">
                        <par name="send_vol" value="0"/>
                      </SENDTO>
                    </SYSTEM_EFFECT>
                    <SYSTEM_EFFECT id="3">
                      <EFFECT>
                        <par name="type" value="0"/>
                      </EFFECT>
                      <VOLUME id="0">
                        <par name="vol" value="0"/>
                      </VOLUME>
                      <VOLUME id="1">
                        <par name="vol" value="0"/>
                      </VOLUME>
                      <VOLUME id="2">
                        <par name="vol" value="0"/>
                      </VOLUME>
                      <VOLUME id="3">
                        <par name="vol" value="0"/>
                      </VOLUME>
                      <VOLUME id="4">
                        <par name="vol" value="0"/>
                      </VOLUME>
                      <VOLUME id="5">
                        <par name="vol" value="0"/>
                      </VOLUME>
                      <VOLUME id="6">
                        <par name="vol" value="0"/>
                      </VOLUME>
                      <VOLUME id="7">
                        <par name="vol" value="0"/>
                      </VOLUME>
                      <VOLUME id="8">
                        <par name="vol" value="0"/>
                      </VOLUME>
                      <VOLUME id="9">
                        <par name="vol" value="0"/>
                      </VOLUME>
                      <VOLUME id="10">
                        <par name="vol" value="0"/>
                      </VOLUME>
                      <VOLUME id="11">
                        <par name="vol" value="0"/>
                      </VOLUME>
                      <VOLUME id="12">
                        <par name="vol" value="0"/>
                      </VOLUME>
                      <VOLUME id="13">
                        <par name="vol" value="0"/>
                      </VOLUME>
                      <VOLUME id="14">
                        <par name="vol" value="0"/>
                      </VOLUME>
                      <VOLUME id="15">
                        <par name="vol" value="0"/>
                      </VOLUME>
                    </SYSTEM_EFFECT>
                  </SYSTEM_EFFECTS>
                  <INSERTION_EFFECTS>
                    <INSERTION_EFFECT id="0">
                      <par name="part" value="-1"/>
                      <EFFECT>
                        <par name="type" value="0"/>
                      </EFFECT>
                    </INSERTION_EFFECT>
                    <INSERTION_EFFECT id="1">
                      <par name="part" value="-1"/>
                      <EFFECT>
                        <par name="type" value="0"/>
                      </EFFECT>
                    </INSERTION_EFFECT>
                    <INSERTION_EFFECT id="2">
                      <par name="part" value="-1"/>
                      <EFFECT>
                        <par name="type" value="0"/>
                      </EFFECT>
                    </INSERTION_EFFECT>
                    <INSERTION_EFFECT id="3">
                      <par name="part" value="-1"/>
                      <EFFECT>
                        <par name="type" value="0"/>
                      </EFFECT>
                    </INSERTION_EFFECT>
                    <INSERTION_EFFECT id="4">
                      <par name="part" value="-1"/>
                      <EFFECT>
                        <par name="type" value="0"/>
                      </EFFECT>
                    </INSERTION_EFFECT>
                    <INSERTION_EFFECT id="5">
                      <par name="part" value="-1"/>
                      <EFFECT>
                        <par name="type" value="0"/>
                      </EFFECT>
                    </INSERTION_EFFECT>
                    <INSERTION_EFFECT id="6">
                      <par name="part" value="-1"/>
                      <EFFECT>
                        <par name="type" value="0"/>
                      </EFFECT>
                    </INSERTION_EFFECT>
                    <INSERTION_EFFECT id="7">
                      <par name="part" value="-1"/>
                      <EFFECT>
                        <par name="type" value="0"/>
                      </EFFECT>
                    </INSERTION_EFFECT>
                  </INSERTION_EFFECTS>
                </MASTER>
              </ZynAddSubFX-data>
              <key/>
            </zynaddsubfx>
          </instrument>
          <eldata fcut="14000" fwet="0" fres="0.5" ftype="0">
            <elvol rel="0.1" lspd_syncmode="0" pdel="0" lspd_numerator="4" lpdel="0" amt="0" ctlenvamt="0" lshp="0" userwavefile="" dec="0.5" lspd_denominator="4" sustain="0.5" lspd="0.1" latt="0" hold="0.5" att="0" x100="0" lamt="0"/>
            <elcut rel="0.1" lspd_syncmode="0" pdel="0" lspd_numerator="4" lpdel="0" amt="0" ctlenvamt="0" lshp="0" userwavefile="" dec="0.5" lspd_denominator="4" sustain="0.5" lspd="0.1" latt="0" hold="0.5" att="0" x100="0" lamt="0"/>
            <elres rel="0.1" lspd_syncmode="0" pdel="0" lspd_numerator="4" lpdel="0" amt="0" ctlenvamt="0" lshp="0" userwavefile="" dec="0.5" lspd_denominator="4" sustain="0.5" lspd="0.1" latt="0" hold="0.5" att="0" x100="0" lamt="0"/>
          </eldata>
          <chordcreator chord="0" chordrange="1" chord-enabled="0"/>
          <arpeggiator arptime_denominator="4" arptime="200" arp-enabled="0" arpcycle="0" arpgate="100" arp="0" arpmiss="0" arpdir="0" arprange="1" arpmode="0" arpskip="0" arptime_syncmode="0" arptime_numerator="4"/>
          <midiport inputcontroller="0" fixedinputvelocity="-1" readable="0" outputcontroller="0" fixedoutputnote="-1" outputprogram="1" writable="0" fixedoutputvelocity="-1" basevelocity="63" outputchannel="1" inputchannel="0"/>
          <fxchain enabled="0" numofeffects="0"/>
        </instrumenttrack>
        <pattern muted="0" name="" steps="16" type="0" pos="3456"/>
        <pattern muted="0" name="" steps="16" type="1" pos="13056">
          <note len="24" key="68" pan="0" vol="78" pos="0"/>
          <note len="24" key="71" pan="0" vol="78" pos="24"/>
          <note len="24" key="68" pan="0" vol="78" pos="48"/>
          <note len="48" key="75" pan="0" vol="78" pos="72"/>
          <note len="24" key="68" pan="0" vol="78" pos="120"/>
          <note len="24" key="71" pan="0" vol="78" pos="144"/>
          <note len="24" key="75" pan="0" vol="78" pos="168"/>
          <note len="24" key="76" pan="0" vol="78" pos="192"/>
          <note len="24" key="75" pan="0" vol="78" pos="216"/>
          <note len="24" key="73" pan="0" vol="78" pos="240"/>
          <note len="24" key="71" pan="0" vol="78" pos="264"/>
          <note len="24" key="75" pan="0" vol="78" pos="288"/>
          <note len="24" key="73" pan="0" vol="78" pos="312"/>
          <note len="24" key="71" pan="0" vol="78" pos="336"/>
          <note len="24" key="68" pan="0" vol="78" pos="360"/>
        </pattern>
        <pattern muted="0" name="" steps="16" type="1" pos="13440">
          <note len="24" key="61" pan="0" vol="78" pos="0"/>
          <note len="24" key="63" pan="0" vol="78" pos="24"/>
          <note len="24" key="61" pan="0" vol="78" pos="48"/>
          <note len="48" key="68" pan="0" vol="78" pos="72"/>
          <note len="24" key="61" pan="0" vol="78" pos="120"/>
          <note len="24" key="64" pan="0" vol="78" pos="144"/>
          <note len="24" key="68" pan="0" vol="78" pos="168"/>
          <note len="24" key="71" pan="0" vol="78" pos="192"/>
          <note len="24" key="73" pan="0" vol="78" pos="216"/>
          <note len="24" key="75" pan="0" vol="78" pos="240"/>
          <note len="48" key="73" pan="0" vol="78" pos="264"/>
          <note len="24" key="75" pan="0" vol="78" pos="312"/>
          <note len="24" key="76" pan="0" vol="78" pos="336"/>
          <note len="24" key="78" pan="0" vol="78" pos="360"/>
        </pattern>
        <pattern muted="0" name="" steps="16" type="1" pos="42624">
          <note len="144" key="61" pan="0" vol="136" pos="0"/>
          <note len="48" key="49" pan="0" vol="136" pos="0"/>
          <note len="48" key="52" pan="0" vol="136" pos="48"/>
          <note len="48" key="56" pan="0" vol="136" pos="96"/>
          <note len="48" key="64" pan="0" vol="136" pos="144"/>
          <note len="48" key="61" pan="0" vol="136" pos="144"/>
          <note len="144" key="63" pan="0" vol="136" pos="192"/>
          <note len="48" key="59" pan="0" vol="136" pos="192"/>
          <note len="48" key="54" pan="0" vol="136" pos="240"/>
          <note len="48" key="59" pan="0" vol="136" pos="288"/>
          <note len="48" key="68" pan="0" vol="136" pos="336"/>
          <note len="48" key="63" pan="0" vol="136" pos="336"/>
          <note len="144" key="68" pan="0" vol="136" pos="384"/>
          <note len="48" key="64" pan="0" vol="136" pos="384"/>
          <note len="48" key="57" pan="0" vol="136" pos="432"/>
          <note len="48" key="61" pan="0" vol="136" pos="480"/>
          <note len="24" key="66" pan="0" vol="136" pos="528"/>
          <note len="48" key="52" pan="0" vol="136" pos="528"/>
          <note len="24" key="64" pan="0" vol="136" pos="552"/>
          <note len="48" key="63" pan="0" vol="136" pos="576"/>
          <note len="48" key="54" pan="0" vol="136" pos="576"/>
          <note len="48" key="64" pan="0" vol="136" pos="624"/>
          <note len="48" key="51" pan="0" vol="136" pos="624"/>
          <note len="48" key="59" pan="0" vol="136" pos="672"/>
          <note len="48" key="54" pan="0" vol="136" pos="672"/>
          <note len="48" key="56" pan="0" vol="136" pos="720"/>
          <note len="48" key="47" pan="0" vol="136" pos="720"/>
          <note len="96" key="57" pan="0" vol="136" pos="768"/>
          <note len="48" key="49" pan="0" vol="136" pos="768"/>
          <note len="48" key="54" pan="0" vol="136" pos="816"/>
          <note len="48" key="61" pan="0" vol="136" pos="864"/>
          <note len="48" key="57" pan="0" vol="136" pos="864"/>
          <note len="48" key="64" pan="0" vol="136" pos="912"/>
          <note len="48" key="54" pan="0" vol="136" pos="912"/>
          <note len="96" key="64" pan="0" vol="136" pos="960"/>
          <note len="48" key="56" pan="0" vol="136" pos="960"/>
          <note len="48" key="59" pan="0" vol="136" pos="1008"/>
          <note len="48" key="63" pan="0" vol="136" pos="1056"/>
          <note len="48" key="56" pan="0" vol="136" pos="1056"/>
          <note len="48" key="64" pan="0" vol="136" pos="1104"/>
          <note len="48" key="51" pan="0" vol="136" pos="1104"/>
          <note len="72" key="71" pan="0" vol="136" pos="1152"/>
          <note len="48" key="57" pan="0" vol="136" pos="1152"/>
        </pattern>
        <pattern muted="0" name="" steps="16" type="1" pos="24960">
          <note len="192" key="61" pan="0" vol="197" pos="0"/>
          <note len="192" key="59" pan="0" vol="197" pos="192"/>
          <note len="288" key="56" pan="0" vol="197" pos="384"/>
          <note len="96" key="56" pan="0" vol="197" pos="672"/>
          <note len="192" key="68" pan="0" vol="197" pos="768"/>
          <note len="192" key="66" pan="0" vol="197" pos="960"/>
          <note len="384" key="61" pan="0" vol="197" pos="1152"/>
          <note len="192" key="61" pan="0" vol="197" pos="1536"/>
          <note len="192" key="63" pan="0" vol="197" pos="1728"/>
          <note len="192" key="64" pan="0" vol="197" pos="1920"/>
          <note len="96" key="68" pan="0" vol="197" pos="2112"/>
          <note len="96" key="66" pan="0" vol="197" pos="2208"/>
          <note len="192" key="66" pan="0" vol="197" pos="2304"/>
          <note len="144" key="61" pan="0" vol="197" pos="2496"/>
          <note len="24" key="61" pan="0" vol="197" pos="2640"/>
          <note len="24" key="63" pan="0" vol="197" pos="2664"/>
          <note len="192" key="64" pan="0" vol="197" pos="2688"/>
          <note len="96" key="64" pan="0" vol="197" pos="2880"/>
          <note len="96" key="68" pan="0" vol="197" pos="2976"/>
          <note len="384" key="73" pan="0" vol="197" pos="3072"/>
          <note len="384" key="73" pan="0" vol="197" pos="3456"/>
        </pattern>
        <pattern muted="0" name="" steps="16" type="1" pos="31872">
          <note len="192" key="68" pan="0" vol="171" pos="0"/>
          <note len="192" key="69" pan="0" vol="171" pos="192"/>
          <note len="192" key="71" pan="0" vol="171" pos="384"/>
          <note len="192" key="66" pan="0" vol="171" pos="576"/>
          <note len="192" key="68" pan="0" vol="171" pos="768"/>
          <note len="192" key="69" pan="0" vol="171" pos="960"/>
          <note len="192" key="71" pan="0" vol="171" pos="1152"/>
          <note len="192" key="75" pan="0" vol="171" pos="1344"/>
          <note len="192" key="73" pan="0" vol="171" pos="1536"/>
          <note len="192" key="73" pan="0" vol="171" pos="1920"/>
          <note len="192" key="76" pan="0" vol="171" pos="2112"/>
          <note len="192" key="74" pan="0" vol="171" pos="2304"/>
          <note len="192" key="73" pan="0" vol="171" pos="2688"/>
          <note len="192" key="78" pan="0" vol="171" pos="2880"/>
        </pattern>
        <pattern muted="0" name="" steps="16" type="1" pos="4992">
          <note len="192" key="76" pan="0" vol="121" pos="0"/>
          <note len="192" key="73" pan="0" vol="121" pos="0"/>
          <note len="192" key="68" pan="0" vol="121" pos="0"/>
          <note len="192" key="73" pan="0" vol="121" pos="192"/>
          <note len="192" key="69" pan="0" vol="121" pos="192"/>
          <note len="192" key="66" pan="0" vol="121" pos="192"/>
          <note len="192" key="75" pan="0" vol="121" pos="384"/>
          <note len="192" key="71" pan="0" vol="121" pos="384"/>
          <note len="192" key="68" pan="0" vol="121" pos="384"/>
          <note len="96" key="76" pan="0" vol="121" pos="576"/>
          <note len="96" key="73" pan="0" vol="121" pos="576"/>
          <note len="96" key="69" pan="0" vol="121" pos="576"/>
          <note len="96" key="75" pan="0" vol="121" pos="672"/>
          <note len="96" key="71" pan="0" vol="121" pos="672"/>
          <note len="96" key="66" pan="0" vol="121" pos="672"/>
        </pattern>
        <pattern muted="0" name="" steps="16" type="1" pos="5760">
          <note len="192" key="76" pan="0" vol="121" pos="0"/>
          <note len="192" key="73" pan="0" vol="121" pos="0"/>
          <note len="192" key="68" pan="0" vol="121" pos="0"/>
          <note len="192" key="73" pan="0" vol="121" pos="192"/>
          <note len="192" key="69" pan="0" vol="121" pos="192"/>
          <note len="192" key="66" pan="0" vol="121" pos="192"/>
          <note len="192" key="75" pan="0" vol="121" pos="384"/>
          <note len="192" key="71" pan="0" vol="121" pos="384"/>
          <note len="192" key="68" pan="0" vol="121" pos="384"/>
          <note len="96" key="76" pan="0" vol="121" pos="576"/>
          <note len="96" key="73" pan="0" vol="121" pos="576"/>
          <note len="96" key="69" pan="0" vol="121" pos="576"/>
          <note len="96" key="75" pan="0" vol="121" pos="672"/>
          <note len="96" key="71" pan="0" vol="121" pos="672"/>
          <note len="96" key="66" pan="0" vol="121" pos="672"/>
        </pattern>
        <pattern muted="0" name="" steps="16" type="1" pos="7104">
          <note len="144" key="73" pan="0" vol="200" pos="960"/>
          <note len="48" key="76" pan="0" vol="200" pos="1104"/>
          <note len="144" key="75" pan="0" vol="200" pos="1152"/>
          <note len="48" key="80" pan="0" vol="200" pos="1296"/>
          <note len="144" key="80" pan="0" vol="200" pos="1344"/>
          <note len="24" key="78" pan="0" vol="200" pos="1488"/>
          <note len="24" key="76" pan="0" vol="200" pos="1512"/>
          <note len="48" key="75" pan="0" vol="200" pos="1536"/>
          <note len="48" key="76" pan="0" vol="200" pos="1584"/>
          <note len="48" key="71" pan="0" vol="200" pos="1632"/>
          <note len="48" key="68" pan="0" vol="200" pos="1680"/>
          <note len="96" key="69" pan="0" vol="200" pos="1728"/>
          <note len="48" key="73" pan="0" vol="200" pos="1824"/>
          <note len="48" key="76" pan="0" vol="200" pos="1872"/>
          <note len="96" key="76" pan="0" vol="200" pos="1920"/>
          <note len="48" key="75" pan="0" vol="200" pos="2016"/>
          <note len="48" key="76" pan="0" vol="200" pos="2064"/>
          <note len="72" key="83" pan="0" vol="200" pos="2112"/>
          <note len="72" key="81" pan="0" vol="200" pos="2184"/>
          <note len="48" key="80" pan="0" vol="200" pos="2256"/>
          <note len="192" key="78" pan="0" vol="200" pos="2304"/>
          <note len="72" key="76" pan="0" vol="200" pos="2496"/>
          <note len="72" key="75" pan="0" vol="200" pos="2568"/>
          <note len="48" key="76" pan="0" vol="200" pos="2640"/>
          <note len="144" key="80" pan="0" vol="200" pos="2688"/>
          <note len="48" key="75" pan="0" vol="200" pos="2832"/>
          <note len="240" key="73" pan="0" vol="200" pos="2880"/>
          <note len="48" key="76" pan="0" vol="200" pos="3120"/>
          <note len="48" key="78" pan="0" vol="200" pos="3168"/>
          <note len="48" key="80" pan="0" vol="200" pos="3216"/>
          <note len="72" key="81" pan="0" vol="200" pos="3264"/>
          <note len="72" key="80" pan="0" vol="200" pos="3336"/>
          <note len="48" key="78" pan="0" vol="200" pos="3408"/>
          <note len="48" key="76" pan="0" vol="200" pos="3456"/>
          <note len="48" key="73" pan="0" vol="200" pos="3504"/>
          <note len="48" key="76" pan="0" vol="200" pos="3552"/>
          <note len="48" key="80" pan="0" vol="200" pos="3600"/>
          <note len="192" key="78" pan="0" vol="200" pos="3648"/>
          <note len="96" key="75" pan="0" vol="200" pos="3840"/>
          <note len="96" key="71" pan="0" vol="200" pos="3936"/>
          <note len="384" key="73" pan="0" vol="200" pos="4032"/>
        </pattern>
        <pattern muted="0" name="" steps="16" type="1" pos="14784">
          <note len="144" key="73" pan="0" vol="200" pos="960"/>
          <note len="48" key="76" pan="0" vol="200" pos="1104"/>
          <note len="144" key="75" pan="0" vol="200" pos="1152"/>
          <note len="48" key="80" pan="0" vol="200" pos="1296"/>
          <note len="144" key="80" pan="0" vol="200" pos="1344"/>
          <note len="24" key="78" pan="0" vol="200" pos="1488"/>
          <note len="24" key="76" pan="0" vol="200" pos="1512"/>
          <note len="48" key="75" pan="0" vol="200" pos="1536"/>
          <note len="48" key="76" pan="0" vol="200" pos="1584"/>
          <note len="48" key="71" pan="0" vol="200" pos="1632"/>
          <note len="48" key="68" pan="0" vol="200" pos="1680"/>
          <note len="96" key="69" pan="0" vol="200" pos="1728"/>
          <note len="48" key="73" pan="0" vol="200" pos="1824"/>
          <note len="48" key="76" pan="0" vol="200" pos="1872"/>
          <note len="96" key="76" pan="0" vol="200" pos="1920"/>
          <note len="48" key="75" pan="0" vol="200" pos="2016"/>
          <note len="48" key="76" pan="0" vol="200" pos="2064"/>
          <note len="72" key="83" pan="0" vol="200" pos="2112"/>
          <note len="72" key="81" pan="0" vol="200" pos="2184"/>
          <note len="48" key="80" pan="0" vol="200" pos="2256"/>
          <note len="192" key="78" pan="0" vol="200" pos="2304"/>
          <note len="72" key="76" pan="0" vol="200" pos="2496"/>
          <note len="72" key="75" pan="0" vol="200" pos="2568"/>
          <note len="48" key="76" pan="0" vol="200" pos="2640"/>
          <note len="144" key="80" pan="0" vol="200" pos="2688"/>
          <note len="48" key="75" pan="0" vol="200" pos="2832"/>
          <note len="240" key="73" pan="0" vol="200" pos="2880"/>
          <note len="48" key="76" pan="0" vol="200" pos="3120"/>
          <note len="48" key="78" pan="0" vol="200" pos="3168"/>
          <note len="48" key="80" pan="0" vol="200" pos="3216"/>
          <note len="72" key="81" pan="0" vol="200" pos="3264"/>
          <note len="72" key="80" pan="0" vol="200" pos="3336"/>
          <note len="48" key="78" pan="0" vol="200" pos="3408"/>
          <note len="48" key="76" pan="0" vol="200" pos="3456"/>
          <note len="48" key="73" pan="0" vol="200" pos="3504"/>
          <note len="48" key="76" pan="0" vol="200" pos="3552"/>
          <note len="48" key="80" pan="0" vol="200" pos="3600"/>
          <note len="192" key="78" pan="0" vol="200" pos="3648"/>
          <note len="96" key="75" pan="0" vol="200" pos="3840"/>
          <note len="96" key="71" pan="0" vol="200" pos="3936"/>
          <note len="384" key="73" pan="0" vol="200" pos="4032"/>
        </pattern>
      </track>
      <track muted="0" name="reverb clap.wav" type="0" solo="0" mutedBeforeSolo="0">
        <instrumenttrack usemasterpitch="1" pitchrange="1" pitch="0" pan="0" basenote="57" vol="120.9" fxch="0">
          <instrument name="audiofileprocessor">
            <audiofileprocessor reversed="1" looped="0" eframe="1" stutter="0" src="usersample:reverb clap.wav" lframe="1.37424e-05" sframe="6.8712e-06" amp="100" interp="1">
              <key/>
            </audiofileprocessor>
          </instrument>
          <eldata fcut="8904" fwet="1" fres="0.5" ftype="0">
            <elvol rel="0.1" lspd_syncmode="0" pdel="0" lspd_numerator="4" lpdel="0" amt="0" ctlenvamt="0" lshp="0" userwavefile="" dec="0.5" lspd_denominator="4" sustain="0.5" lspd="0.1" latt="0" hold="0.5" att="0" x100="0" lamt="0"/>
            <elcut rel="0.1" lspd_syncmode="0" pdel="0" lspd_numerator="4" lpdel="0" amt="0" ctlenvamt="0" lshp="0" userwavefile="" dec="0.5" lspd_denominator="4" sustain="0.5" lspd="0.1" latt="0" hold="0.5" att="0" x100="0" lamt="0"/>
            <elres rel="0.1" lspd_syncmode="0" pdel="0" lspd_numerator="4" lpdel="0" amt="0" ctlenvamt="0" lshp="0" userwavefile="" dec="0.5" lspd_denominator="4" sustain="0.5" lspd="0.1" latt="0" hold="0.5" att="0" x100="0" lamt="0"/>
          </eldata>
          <chordcreator chord="0" chordrange="1" chord-enabled="0"/>
          <arpeggiator arptime_denominator="4" arptime="200" arp-enabled="0" arpcycle="0" arpgate="100" arp="0" arpmiss="0" arpdir="0" arprange="1" arpmode="0" arpskip="0" arptime_syncmode="0" arptime_numerator="4"/>
          <midiport inputcontroller="0" fixedinputvelocity="-1" readable="0" outputcontroller="0" fixedoutputnote="-1" outputprogram="1" writable="0" fixedoutputvelocity="-1" basevelocity="63" outputchannel="1" inputchannel="0"/>
          <fxchain enabled="0" numofeffects="0"/>
        </instrumenttrack>
        <pattern muted="0" name="" steps="16" type="1" pos="28224">
          <note len="528" key="57" pan="0" vol="100" pos="48"/>
        </pattern>
        <pattern muted="0" name="" steps="16" type="0" pos="46464"/>
        <pattern muted="0" name="" steps="16" type="1" pos="42048">
          <note len="528" key="57" pan="0" vol="100" pos="48"/>
        </pattern>
      </track>
      <track muted="0" name="bass fender jazz (1,379kb)" type="0" solo="0" mutedBeforeSolo="0">
        <instrumenttrack usemasterpitch="1" pitchrange="2" pitch="0" pan="0" basenote="57" vol="30.6" fxch="0">
          <instrument name="sf2player">
            <sf2player gain="3.16" chorusLevel="2" reverbRoomSize="0.2" reverbWidth="0.5" reverbDamping="0" reverbLevel="0.9" chorusSpeed="0.3" chorusOn="0" chorusDepth="8" src="/home/pass/samples/soundfonts/bass fender jazz (1,379kb).sf2" chorusNum="3" patch="0" bank="0" reverbOn="0">
              <key/>
            </sf2player>
          </instrument>
          <eldata fcut="14000" fwet="0" fres="0.5" ftype="0">
            <elvol rel="0.1" lspd_syncmode="0" pdel="0" lspd_numerator="4" lpdel="0" amt="0" ctlenvamt="0" lshp="0" userwavefile="" dec="0.5" lspd_denominator="4" sustain="0.5" lspd="0.1" latt="0" hold="0.5" att="0" x100="0" lamt="0"/>
            <elcut rel="0.1" lspd_syncmode="0" pdel="0" lspd_numerator="4" lpdel="0" amt="0" ctlenvamt="0" lshp="0" userwavefile="" dec="0.5" lspd_denominator="4" sustain="0.5" lspd="0.1" latt="0" hold="0.5" att="0" x100="0" lamt="0"/>
            <elres rel="0.1" lspd_syncmode="0" pdel="0" lspd_numerator="4" lpdel="0" amt="0" ctlenvamt="0" lshp="0" userwavefile="" dec="0.5" lspd_denominator="4" sustain="0.5" lspd="0.1" latt="0" hold="0.5" att="0" x100="0" lamt="0"/>
          </eldata>
          <chordcreator chord="0" chordrange="1" chord-enabled="0"/>
          <arpeggiator arptime_denominator="4" arptime="200" arp-enabled="0" arpcycle="0" arpgate="100" arp="0" arpmiss="0" arpdir="0" arprange="1" arpmode="0" arpskip="0" arptime_syncmode="0" arptime_numerator="4"/>
          <midiport inputcontroller="0" fixedinputvelocity="-1" readable="0" outputcontroller="0" fixedoutputnote="-1" outputprogram="1" writable="0" fixedoutputvelocity="-1" basevelocity="63" outputchannel="1" inputchannel="0"/>
          <fxchain enabled="0" numofeffects="0"/>
        </instrumenttrack>
        <pattern muted="0" name="" steps="16" type="1" pos="22656">
          <note len="768" key="25" pan="0" vol="195" pos="0"/>
          <note len="384" key="26" pan="0" vol="195" pos="768"/>
          <note len="288" key="25" pan="0" vol="195" pos="1152"/>
          <note len="12" key="31" pan="0" vol="195" pos="1440"/>
          <note len="84" key="32" pan="0" vol="195" pos="1448"/>
          <note len="120" key="30" pan="0" vol="195" pos="1536"/>
          <note len="24" key="30" pan="0" vol="195" pos="1656"/>
          <note len="24" key="25" pan="0" vol="195" pos="1680"/>
          <note len="24" key="30" pan="0" vol="195" pos="1704"/>
          <note len="48" key="32" pan="0" vol="195" pos="1728"/>
          <note len="24" key="30" pan="0" vol="195" pos="1776"/>
          <note len="72" key="25" pan="0" vol="195" pos="1800"/>
          <note len="48" key="20" pan="0" vol="195" pos="1872"/>
          <note len="336" key="16" pan="0" vol="195" pos="1920"/>
          <note len="24" key="18" pan="0" vol="195" pos="2256"/>
          <note len="24" key="20" pan="0" vol="195" pos="2280"/>
          <note len="192" key="21" pan="0" vol="195" pos="2304"/>
          <note len="192" key="23" pan="0" vol="195" pos="2496"/>
          <note len="192" key="25" pan="0" vol="195" pos="2688"/>
          <note len="12" key="27" pan="0" vol="195" pos="2880"/>
          <note len="60" key="28" pan="0" vol="195" pos="2888"/>
          <note len="72" key="27" pan="0" vol="195" pos="2952"/>
          <note len="48" key="25" pan="0" vol="195" pos="3024"/>
          <note len="240" key="23" pan="0" vol="195" pos="3072"/>
          <note len="48" key="18" pan="0" vol="195" pos="3312"/>
          <note len="48" key="23" pan="0" vol="195" pos="3360"/>
          <note len="48" key="25" pan="0" vol="195" pos="3408"/>
          <note len="288" key="18" pan="0" vol="195" pos="3456"/>
          <note len="12" key="19" pan="0" vol="195" pos="3744"/>
          <note len="84" key="20" pan="0" vol="195" pos="3752"/>
          <note len="120" key="23" pan="0" vol="195" pos="3840"/>
          <note len="24" key="18" pan="0" vol="195" pos="3960"/>
          <note len="24" key="21" pan="0" vol="195" pos="3984"/>
          <note len="24" key="27" pan="0" vol="195" pos="4008"/>
          <note len="12" key="27" pan="0" vol="195" pos="4032"/>
          <note len="36" key="28" pan="0" vol="195" pos="4040"/>
          <note len="24" key="27" pan="0" vol="195" pos="4080"/>
          <note len="72" key="25" pan="0" vol="195" pos="4104"/>
          <note len="24" key="25" pan="0" vol="195" pos="4176"/>
          <note len="24" key="23" pan="0" vol="195" pos="4200"/>
          <note len="96" key="25" pan="0" vol="195" pos="4224"/>
          <note len="96" key="23" pan="0" vol="195" pos="4320"/>
          <note len="144" key="22" pan="0" vol="195" pos="4416"/>
          <note len="48" key="20" pan="0" vol="195" pos="4560"/>
          <note len="144" key="18" pan="0" vol="195" pos="4608"/>
          <note len="48" key="25" pan="0" vol="195" pos="4752"/>
          <note len="192" key="18" pan="0" vol="195" pos="4800"/>
          <note len="384" key="20" pan="0" vol="195" pos="4992"/>
          <note len="384" key="21" pan="0" vol="195" pos="5376"/>
          <note len="384" key="23" pan="0" vol="195" pos="5760"/>
        </pattern>
        <pattern muted="0" name="" steps="16" type="1" pos="384">
          <note len="384" key="13" pan="0" vol="191" pos="0"/>
          <note len="384" key="20" pan="0" vol="193" pos="384"/>
          <note len="384" key="15" pan="0" vol="193" pos="768"/>
          <note len="336" key="14" pan="0" vol="193" pos="1152"/>
          <note len="12" key="14" pan="0" vol="193" pos="1488"/>
          <note len="12" key="14" pan="0" vol="193" pos="1500"/>
          <note len="12" key="14" pan="0" vol="193" pos="1512"/>
          <note len="12" key="14" pan="0" vol="193" pos="1524"/>
        </pattern>
        <pattern muted="0" name="" steps="16" type="1" pos="1920">
          <note len="36" key="13" pan="0" vol="195" pos="0"/>
          <note len="24" key="1" pan="0" vol="78" pos="0"/>
          <note len="36" key="13" pan="0" vol="195" pos="72"/>
          <note len="36" key="13" pan="0" vol="195" pos="144"/>
          <note len="36" key="13" pan="0" vol="195" pos="216"/>
          <note len="24" key="13" pan="0" vol="195" pos="288"/>
          <note len="24" key="0" pan="0" vol="78" pos="300"/>
          <note len="48" key="13" pan="0" vol="195" pos="312"/>
          <note len="24" key="1" pan="0" vol="78" pos="336"/>
          <note len="24" key="13" pan="0" vol="195" pos="360"/>
          <note len="36" key="20" pan="0" vol="195" pos="384"/>
          <note len="36" key="20" pan="0" vol="195" pos="456"/>
          <note len="36" key="20" pan="0" vol="195" pos="528"/>
          <note len="36" key="20" pan="0" vol="195" pos="600"/>
          <note len="24" key="20" pan="0" vol="195" pos="672"/>
          <note len="24" key="0" pan="0" vol="78" pos="684"/>
          <note len="48" key="20" pan="0" vol="195" pos="696"/>
          <note len="24" key="1" pan="0" vol="78" pos="720"/>
          <note len="24" key="20" pan="0" vol="195" pos="744"/>
          <note len="36" key="15" pan="0" vol="195" pos="768"/>
          <note len="36" key="15" pan="0" vol="195" pos="840"/>
          <note len="36" key="15" pan="0" vol="195" pos="912"/>
          <note len="36" key="15" pan="0" vol="195" pos="984"/>
          <note len="24" key="15" pan="0" vol="195" pos="1056"/>
          <note len="24" key="0" pan="0" vol="78" pos="1068"/>
          <note len="48" key="15" pan="0" vol="195" pos="1080"/>
          <note len="24" key="1" pan="0" vol="78" pos="1116"/>
          <note len="24" key="15" pan="0" vol="195" pos="1128"/>
          <note len="36" key="14" pan="0" vol="195" pos="1152"/>
          <note len="36" key="14" pan="0" vol="195" pos="1224"/>
          <note len="36" key="14" pan="0" vol="195" pos="1296"/>
        </pattern>
        <pattern muted="0" name="" steps="16" type="1" pos="3456">
          <note len="192" key="13" pan="0" vol="197" pos="0"/>
          <note len="48" key="0" pan="0" vol="78" pos="0"/>
          <note len="192" key="20" pan="0" vol="197" pos="192"/>
          <note len="192" key="21" pan="0" vol="197" pos="384"/>
          <note len="192" key="23" pan="0" vol="197" pos="576"/>
          <note len="12" key="1" pan="0" vol="197" pos="756"/>
          <note len="12" key="18" pan="0" vol="197" pos="768"/>
          <note len="12" key="18" pan="0" vol="197" pos="780"/>
          <note len="12" key="18" pan="0" vol="197" pos="792"/>
          <note len="12" key="18" pan="0" vol="197" pos="804"/>
          <note len="12" key="18" pan="0" vol="197" pos="816"/>
          <note len="12" key="18" pan="0" vol="197" pos="828"/>
          <note len="12" key="18" pan="0" vol="197" pos="840"/>
          <note len="12" key="18" pan="0" vol="197" pos="852"/>
          <note len="12" key="18" pan="0" vol="197" pos="864"/>
          <note len="12" key="18" pan="0" vol="197" pos="876"/>
          <note len="12" key="18" pan="0" vol="197" pos="888"/>
          <note len="12" key="18" pan="0" vol="197" pos="900"/>
          <note len="12" key="18" pan="0" vol="197" pos="912"/>
          <note len="12" key="18" pan="0" vol="197" pos="924"/>
          <note len="12" key="18" pan="0" vol="197" pos="936"/>
          <note len="12" key="18" pan="0" vol="197" pos="948"/>
          <note len="12" key="20" pan="0" vol="197" pos="960"/>
          <note len="12" key="20" pan="0" vol="197" pos="972"/>
          <note len="12" key="20" pan="0" vol="197" pos="984"/>
          <note len="12" key="20" pan="0" vol="197" pos="996"/>
          <note len="12" key="20" pan="0" vol="197" pos="1008"/>
          <note len="12" key="20" pan="0" vol="197" pos="1020"/>
          <note len="12" key="20" pan="0" vol="197" pos="1032"/>
          <note len="12" key="20" pan="0" vol="197" pos="1044"/>
          <note len="12" key="20" pan="0" vol="197" pos="1056"/>
          <note len="12" key="20" pan="0" vol="197" pos="1068"/>
          <note len="12" key="20" pan="0" vol="197" pos="1080"/>
          <note len="12" key="20" pan="0" vol="197" pos="1092"/>
          <note len="12" key="20" pan="0" vol="197" pos="1104"/>
          <note len="12" key="20" pan="0" vol="197" pos="1116"/>
          <note len="12" key="20" pan="0" vol="197" pos="1128"/>
          <note len="12" key="20" pan="0" vol="197" pos="1140"/>
          <note len="12" key="21" pan="0" vol="197" pos="1152"/>
          <note len="12" key="21" pan="0" vol="197" pos="1164"/>
          <note len="12" key="21" pan="0" vol="197" pos="1176"/>
          <note len="12" key="21" pan="0" vol="197" pos="1188"/>
          <note len="12" key="21" pan="0" vol="197" pos="1200"/>
          <note len="12" key="21" pan="0" vol="197" pos="1212"/>
          <note len="12" key="21" pan="0" vol="197" pos="1224"/>
          <note len="12" key="21" pan="0" vol="197" pos="1236"/>
          <note len="12" key="21" pan="0" vol="197" pos="1248"/>
          <note len="12" key="21" pan="0" vol="197" pos="1260"/>
          <note len="12" key="21" pan="0" vol="197" pos="1272"/>
          <note len="12" key="21" pan="0" vol="197" pos="1284"/>
          <note len="12" key="21" pan="0" vol="197" pos="1296"/>
          <note len="12" key="21" pan="0" vol="197" pos="1308"/>
          <note len="12" key="21" pan="0" vol="197" pos="1320"/>
          <note len="12" key="21" pan="0" vol="197" pos="1332"/>
          <note len="48" key="23" pan="0" vol="197" pos="1344"/>
          <note len="12" key="0" pan="0" vol="197" pos="1344"/>
          <note len="48" key="23" pan="0" vol="197" pos="1392"/>
          <note len="48" key="20" pan="0" vol="197" pos="1440"/>
          <note len="48" key="23" pan="0" vol="197" pos="1488"/>
        </pattern>
        <pattern muted="0" name="" steps="16" type="1" pos="4992">
          <note len="24" key="25" pan="0" vol="197" pos="0"/>
          <note len="24" key="23" pan="0" vol="197" pos="24"/>
          <note len="24" key="25" pan="0" vol="197" pos="48"/>
          <note len="24" key="32" pan="0" vol="197" pos="72"/>
          <note len="12" key="25" pan="0" vol="197" pos="96"/>
          <note len="12" key="25" pan="0" vol="197" pos="108"/>
          <note len="12" key="25" pan="0" vol="197" pos="120"/>
          <note len="12" key="25" pan="0" vol="197" pos="132"/>
          <note len="12" key="25" pan="0" vol="197" pos="144"/>
          <note len="12" key="25" pan="0" vol="197" pos="156"/>
          <note len="12" key="25" pan="0" vol="197" pos="168"/>
          <note len="12" key="25" pan="0" vol="197" pos="180"/>
        </pattern>
        <pattern muted="0" name="" steps="16" type="1" pos="5184">
          <note len="24" key="18" pan="0" vol="197" pos="0"/>
          <note len="24" key="16" pan="0" vol="197" pos="24"/>
          <note len="24" key="18" pan="0" vol="197" pos="48"/>
          <note len="24" key="25" pan="0" vol="197" pos="72"/>
          <note len="12" key="18" pan="0" vol="197" pos="96"/>
          <note len="12" key="18" pan="0" vol="197" pos="108"/>
          <note len="12" key="18" pan="0" vol="197" pos="120"/>
          <note len="12" key="18" pan="0" vol="197" pos="132"/>
          <note len="12" key="18" pan="0" vol="197" pos="144"/>
          <note len="12" key="18" pan="0" vol="197" pos="156"/>
          <note len="12" key="18" pan="0" vol="197" pos="168"/>
          <note len="12" key="18" pan="0" vol="197" pos="180"/>
        </pattern>
        <pattern muted="0" name="" steps="16" type="1" pos="5376">
          <note len="24" key="20" pan="0" vol="195" pos="0"/>
          <note len="24" key="23" pan="0" vol="195" pos="24"/>
          <note len="24" key="20" pan="0" vol="195" pos="48"/>
          <note len="48" key="27" pan="0" vol="195" pos="72"/>
          <note len="24" key="20" pan="0" vol="195" pos="120"/>
          <note len="24" key="23" pan="0" vol="195" pos="144"/>
          <note len="24" key="27" pan="0" vol="195" pos="168"/>
          <note len="12" key="21" pan="0" vol="195" pos="192"/>
          <note len="12" key="21" pan="0" vol="195" pos="204"/>
          <note len="12" key="21" pan="0" vol="195" pos="216"/>
          <note len="12" key="21" pan="0" vol="195" pos="228"/>
          <note len="12" key="21" pan="0" vol="195" pos="240"/>
          <note len="12" key="21" pan="0" vol="195" pos="252"/>
          <note len="12" key="25" pan="0" vol="195" pos="264"/>
          <note len="12" key="25" pan="0" vol="195" pos="276"/>
          <note len="12" key="23" pan="0" vol="195" pos="288"/>
          <note len="12" key="23" pan="0" vol="195" pos="300"/>
          <note len="12" key="23" pan="0" vol="195" pos="312"/>
          <note len="12" key="23" pan="0" vol="195" pos="324"/>
          <note len="12" key="27" pan="0" vol="195" pos="336"/>
          <note len="12" key="27" pan="0" vol="195" pos="348"/>
          <note len="12" key="23" pan="0" vol="195" pos="360"/>
          <note len="12" key="23" pan="0" vol="195" pos="372"/>
        </pattern>
        <pattern muted="0" name="" steps="16" type="1" pos="5760">
          <note len="24" key="25" pan="0" vol="197" pos="0"/>
          <note len="24" key="23" pan="0" vol="197" pos="24"/>
          <note len="24" key="25" pan="0" vol="197" pos="48"/>
          <note len="24" key="32" pan="0" vol="197" pos="72"/>
          <note len="12" key="25" pan="0" vol="197" pos="96"/>
          <note len="12" key="25" pan="0" vol="197" pos="108"/>
          <note len="12" key="25" pan="0" vol="197" pos="120"/>
          <note len="12" key="25" pan="0" vol="197" pos="132"/>
          <note len="12" key="25" pan="0" vol="197" pos="144"/>
          <note len="12" key="25" pan="0" vol="197" pos="156"/>
          <note len="12" key="25" pan="0" vol="197" pos="168"/>
          <note len="12" key="25" pan="0" vol="197" pos="180"/>
        </pattern>
        <pattern muted="0" name="" steps="16" type="1" pos="5952">
          <note len="24" key="18" pan="0" vol="197" pos="0"/>
          <note len="24" key="16" pan="0" vol="197" pos="24"/>
          <note len="24" key="18" pan="0" vol="197" pos="48"/>
          <note len="24" key="25" pan="0" vol="197" pos="72"/>
          <note len="12" key="18" pan="0" vol="197" pos="96"/>
          <note len="12" key="18" pan="0" vol="197" pos="108"/>
          <note len="12" key="18" pan="0" vol="197" pos="120"/>
          <note len="12" key="18" pan="0" vol="197" pos="132"/>
          <note len="12" key="18" pan="0" vol="197" pos="144"/>
          <note len="12" key="18" pan="0" vol="197" pos="156"/>
          <note len="12" key="18" pan="0" vol="197" pos="168"/>
          <note len="12" key="18" pan="0" vol="197" pos="180"/>
        </pattern>
        <pattern muted="0" name="" steps="16" type="1" pos="6144">
          <note len="24" key="20" pan="0" vol="195" pos="0"/>
          <note len="24" key="23" pan="0" vol="195" pos="24"/>
          <note len="24" key="20" pan="0" vol="195" pos="48"/>
          <note len="48" key="27" pan="0" vol="195" pos="72"/>
          <note len="24" key="20" pan="0" vol="195" pos="120"/>
          <note len="24" key="23" pan="0" vol="195" pos="144"/>
          <note len="24" key="27" pan="0" vol="195" pos="168"/>
          <note len="12" key="21" pan="0" vol="195" pos="192"/>
          <note len="12" key="21" pan="0" vol="195" pos="204"/>
          <note len="12" key="21" pan="0" vol="195" pos="216"/>
          <note len="12" key="21" pan="0" vol="195" pos="228"/>
          <note len="12" key="21" pan="0" vol="195" pos="240"/>
          <note len="12" key="21" pan="0" vol="195" pos="252"/>
          <note len="12" key="25" pan="0" vol="195" pos="264"/>
          <note len="12" key="25" pan="0" vol="195" pos="276"/>
          <note len="12" key="23" pan="0" vol="195" pos="288"/>
          <note len="12" key="23" pan="0" vol="195" pos="300"/>
          <note len="12" key="23" pan="0" vol="195" pos="312"/>
          <note len="12" key="23" pan="0" vol="195" pos="324"/>
          <note len="12" key="27" pan="0" vol="195" pos="336"/>
          <note len="12" key="27" pan="0" vol="195" pos="348"/>
          <note len="12" key="23" pan="0" vol="195" pos="360"/>
          <note len="12" key="23" pan="0" vol="195" pos="372"/>
        </pattern>
        <pattern muted="0" name="" steps="16" type="1" pos="6528">
          <note len="48" key="11" pan="0" vol="197" pos="0"/>
          <note len="12" key="11" pan="0" vol="197" pos="48"/>
          <note len="12" key="11" pan="0" vol="197" pos="60"/>
          <note len="24" key="11" pan="0" vol="197" pos="72"/>
          <note len="12" key="11" pan="0" vol="197" pos="96"/>
          <note len="12" key="11" pan="0" vol="197" pos="108"/>
          <note len="24" key="11" pan="0" vol="197" pos="120"/>
          <note len="12" key="11" pan="0" vol="197" pos="144"/>
          <note len="12" key="11" pan="0" vol="197" pos="156"/>
          <note len="24" key="11" pan="0" vol="197" pos="168"/>
          <note len="48" key="11" pan="0" vol="197" pos="192"/>
          <note len="12" key="11" pan="0" vol="197" pos="240"/>
          <note len="12" key="11" pan="0" vol="197" pos="252"/>
          <note len="24" key="11" pan="0" vol="197" pos="264"/>
          <note len="12" key="11" pan="0" vol="197" pos="288"/>
          <note len="12" key="11" pan="0" vol="197" pos="300"/>
          <note len="24" key="11" pan="0" vol="197" pos="312"/>
          <note len="12" key="11" pan="0" vol="197" pos="336"/>
          <note len="12" key="11" pan="0" vol="197" pos="348"/>
          <note len="24" key="11" pan="0" vol="197" pos="360"/>
          <note len="48" key="21" pan="0" vol="197" pos="384"/>
          <note len="12" key="21" pan="0" vol="197" pos="432"/>
          <note len="12" key="21" pan="0" vol="197" pos="444"/>
          <note len="24" key="21" pan="0" vol="197" pos="456"/>
          <note len="12" key="21" pan="0" vol="197" pos="480"/>
          <note len="12" key="21" pan="0" vol="197" pos="492"/>
          <note len="24" key="21" pan="0" vol="197" pos="504"/>
          <note len="12" key="21" pan="0" vol="197" pos="528"/>
          <note len="12" key="21" pan="0" vol="197" pos="540"/>
          <note len="24" key="21" pan="0" vol="197" pos="552"/>
          <note len="48" key="20" pan="0" vol="197" pos="576"/>
          <note len="12" key="20" pan="0" vol="197" pos="624"/>
          <note len="12" key="20" pan="0" vol="197" pos="636"/>
          <note len="24" key="20" pan="0" vol="197" pos="648"/>
          <note len="12" key="20" pan="0" vol="197" pos="672"/>
          <note len="12" key="20" pan="0" vol="197" pos="684"/>
          <note len="12" key="20" pan="0" vol="197" pos="696"/>
          <note len="12" key="20" pan="0" vol="197" pos="708"/>
          <note len="12" key="20" pan="0" vol="197" pos="720"/>
          <note len="12" key="20" pan="0" vol="197" pos="732"/>
          <note len="24" key="20" pan="0" vol="197" pos="744"/>
        </pattern>
        <pattern muted="0" name="" steps="16" type="1" pos="8064">
          <note len="48" key="13" pan="0" vol="195" pos="0"/>
          <note len="12" key="13" pan="0" vol="195" pos="48"/>
          <note len="12" key="13" pan="0" vol="195" pos="60"/>
          <note len="12" key="13" pan="0" vol="195" pos="72"/>
          <note len="12" key="13" pan="0" vol="195" pos="84"/>
          <note len="12" key="13" pan="0" vol="195" pos="96"/>
          <note len="12" key="13" pan="0" vol="195" pos="108"/>
          <note len="12" key="13" pan="0" vol="195" pos="120"/>
          <note len="12" key="13" pan="0" vol="195" pos="132"/>
          <note len="12" key="13" pan="0" vol="195" pos="144"/>
          <note len="12" key="13" pan="0" vol="195" pos="156"/>
          <note len="12" key="13" pan="0" vol="195" pos="168"/>
          <note len="12" key="13" pan="0" vol="195" pos="180"/>
          <note len="48" key="20" pan="0" vol="195" pos="192"/>
          <note len="12" key="20" pan="0" vol="195" pos="240"/>
          <note len="12" key="20" pan="0" vol="195" pos="252"/>
          <note len="12" key="20" pan="0" vol="195" pos="264"/>
          <note len="12" key="20" pan="0" vol="195" pos="276"/>
          <note len="12" key="20" pan="0" vol="195" pos="288"/>
          <note len="12" key="20" pan="0" vol="195" pos="300"/>
          <note len="12" key="20" pan="0" vol="195" pos="312"/>
          <note len="12" key="20" pan="0" vol="195" pos="324"/>
          <note len="12" key="20" pan="0" vol="195" pos="336"/>
          <note len="12" key="20" pan="0" vol="195" pos="348"/>
          <note len="12" key="20" pan="0" vol="195" pos="360"/>
          <note len="12" key="20" pan="0" vol="195" pos="372"/>
          <note len="48" key="21" pan="0" vol="195" pos="384"/>
          <note len="12" key="21" pan="0" vol="195" pos="432"/>
          <note len="12" key="21" pan="0" vol="195" pos="444"/>
          <note len="12" key="21" pan="0" vol="195" pos="456"/>
          <note len="12" key="21" pan="0" vol="195" pos="468"/>
          <note len="12" key="21" pan="0" vol="195" pos="480"/>
          <note len="12" key="21" pan="0" vol="195" pos="492"/>
          <note len="12" key="21" pan="0" vol="195" pos="504"/>
          <note len="12" key="21" pan="0" vol="195" pos="516"/>
          <note len="12" key="21" pan="0" vol="195" pos="528"/>
          <note len="12" key="21" pan="0" vol="195" pos="540"/>
          <note len="12" key="21" pan="0" vol="195" pos="552"/>
          <note len="12" key="21" pan="0" vol="195" pos="564"/>
          <note len="48" key="23" pan="0" vol="195" pos="576"/>
          <note len="12" key="23" pan="0" vol="195" pos="624"/>
          <note len="12" key="23" pan="0" vol="195" pos="636"/>
          <note len="12" key="23" pan="0" vol="195" pos="648"/>
          <note len="12" key="23" pan="0" vol="195" pos="660"/>
          <note len="12" key="23" pan="0" vol="195" pos="672"/>
          <note len="12" key="23" pan="0" vol="195" pos="684"/>
          <note len="12" key="23" pan="0" vol="195" pos="696"/>
          <note len="12" key="23" pan="0" vol="195" pos="708"/>
          <note len="12" key="23" pan="0" vol="195" pos="720"/>
          <note len="12" key="23" pan="0" vol="195" pos="732"/>
          <note len="12" key="23" pan="0" vol="195" pos="744"/>
          <note len="12" key="23" pan="0" vol="195" pos="756"/>
          <note len="48" key="18" pan="0" vol="195" pos="768"/>
          <note len="12" key="18" pan="0" vol="195" pos="816"/>
          <note len="12" key="18" pan="0" vol="195" pos="828"/>
          <note len="12" key="18" pan="0" vol="195" pos="840"/>
          <note len="12" key="18" pan="0" vol="195" pos="852"/>
          <note len="12" key="18" pan="0" vol="195" pos="864"/>
          <note len="12" key="18" pan="0" vol="195" pos="876"/>
          <note len="12" key="18" pan="0" vol="195" pos="888"/>
          <note len="12" key="18" pan="0" vol="195" pos="900"/>
          <note len="12" key="18" pan="0" vol="195" pos="912"/>
          <note len="12" key="18" pan="0" vol="195" pos="924"/>
          <note len="12" key="18" pan="0" vol="195" pos="936"/>
          <note len="12" key="18" pan="0" vol="195" pos="948"/>
          <note len="48" key="20" pan="0" vol="195" pos="960"/>
          <note len="12" key="20" pan="0" vol="195" pos="1008"/>
          <note len="12" key="20" pan="0" vol="195" pos="1020"/>
          <note len="12" key="20" pan="0" vol="195" pos="1032"/>
          <note len="12" key="20" pan="0" vol="195" pos="1044"/>
          <note len="12" key="20" pan="0" vol="195" pos="1056"/>
          <note len="12" key="20" pan="0" vol="195" pos="1068"/>
          <note len="12" key="20" pan="0" vol="195" pos="1080"/>
          <note len="12" key="20" pan="0" vol="195" pos="1092"/>
          <note len="12" key="20" pan="0" vol="195" pos="1104"/>
          <note len="12" key="20" pan="0" vol="195" pos="1116"/>
          <note len="12" key="20" pan="0" vol="195" pos="1128"/>
          <note len="12" key="20" pan="0" vol="195" pos="1140"/>
          <note len="48" key="21" pan="0" vol="195" pos="1152"/>
          <note len="12" key="21" pan="0" vol="195" pos="1200"/>
          <note len="12" key="21" pan="0" vol="195" pos="1212"/>
          <note len="12" key="21" pan="0" vol="195" pos="1224"/>
          <note len="12" key="21" pan="0" vol="195" pos="1236"/>
          <note len="12" key="21" pan="0" vol="195" pos="1248"/>
          <note len="12" key="21" pan="0" vol="195" pos="1260"/>
          <note len="12" key="21" pan="0" vol="195" pos="1272"/>
          <note len="12" key="21" pan="0" vol="195" pos="1284"/>
          <note len="12" key="21" pan="0" vol="195" pos="1296"/>
          <note len="12" key="21" pan="0" vol="195" pos="1308"/>
          <note len="12" key="21" pan="0" vol="195" pos="1320"/>
          <note len="12" key="21" pan="0" vol="195" pos="1332"/>
          <note len="48" key="23" pan="0" vol="195" pos="1344"/>
          <note len="12" key="23" pan="0" vol="195" pos="1392"/>
          <note len="12" key="23" pan="0" vol="195" pos="1404"/>
          <note len="12" key="23" pan="0" vol="195" pos="1416"/>
          <note len="12" key="23" pan="0" vol="195" pos="1428"/>
          <note len="48" key="24" pan="0" vol="195" pos="1440"/>
          <note len="12" key="24" pan="0" vol="195" pos="1488"/>
          <note len="12" key="24" pan="0" vol="195" pos="1500"/>
          <note len="12" key="24" pan="0" vol="195" pos="1512"/>
          <note len="12" key="24" pan="0" vol="195" pos="1524"/>
          <note len="48" key="13" pan="0" vol="195" pos="1536"/>
          <note len="12" key="13" pan="0" vol="195" pos="1584"/>
          <note len="12" key="13" pan="0" vol="195" pos="1596"/>
          <note len="12" key="13" pan="0" vol="195" pos="1608"/>
          <note len="12" key="13" pan="0" vol="195" pos="1620"/>
          <note len="12" key="13" pan="0" vol="195" pos="1632"/>
          <note len="12" key="13" pan="0" vol="195" pos="1644"/>
          <note len="12" key="13" pan="0" vol="195" pos="1656"/>
          <note len="12" key="13" pan="0" vol="195" pos="1668"/>
          <note len="12" key="13" pan="0" vol="195" pos="1680"/>
          <note len="12" key="13" pan="0" vol="195" pos="1692"/>
          <note len="12" key="13" pan="0" vol="195" pos="1704"/>
          <note len="12" key="13" pan="0" vol="195" pos="1716"/>
          <note len="48" key="23" pan="0" vol="195" pos="1728"/>
          <note len="12" key="23" pan="0" vol="195" pos="1776"/>
          <note len="12" key="23" pan="0" vol="195" pos="1788"/>
          <note len="12" key="23" pan="0" vol="195" pos="1800"/>
          <note len="12" key="23" pan="0" vol="195" pos="1812"/>
          <note len="12" key="23" pan="0" vol="195" pos="1824"/>
          <note len="12" key="23" pan="0" vol="195" pos="1836"/>
          <note len="12" key="23" pan="0" vol="195" pos="1848"/>
          <note len="12" key="23" pan="0" vol="195" pos="1860"/>
          <note len="12" key="23" pan="0" vol="195" pos="1872"/>
          <note len="12" key="23" pan="0" vol="195" pos="1884"/>
          <note len="12" key="23" pan="0" vol="195" pos="1896"/>
          <note len="12" key="23" pan="0" vol="195" pos="1908"/>
          <note len="48" key="22" pan="0" vol="195" pos="1920"/>
          <note len="12" key="22" pan="0" vol="195" pos="1968"/>
          <note len="12" key="22" pan="0" vol="195" pos="1980"/>
          <note len="12" key="22" pan="0" vol="195" pos="1992"/>
          <note len="12" key="22" pan="0" vol="195" pos="2004"/>
          <note len="12" key="22" pan="0" vol="195" pos="2016"/>
          <note len="12" key="22" pan="0" vol="195" pos="2028"/>
          <note len="12" key="22" pan="0" vol="195" pos="2040"/>
          <note len="12" key="22" pan="0" vol="195" pos="2052"/>
          <note len="12" key="22" pan="0" vol="195" pos="2064"/>
          <note len="12" key="22" pan="0" vol="195" pos="2076"/>
          <note len="12" key="22" pan="0" vol="195" pos="2088"/>
          <note len="12" key="22" pan="0" vol="195" pos="2100"/>
          <note len="48" key="18" pan="0" vol="195" pos="2112"/>
          <note len="12" key="18" pan="0" vol="195" pos="2160"/>
          <note len="12" key="18" pan="0" vol="195" pos="2172"/>
          <note len="12" key="18" pan="0" vol="195" pos="2184"/>
          <note len="12" key="18" pan="0" vol="195" pos="2196"/>
          <note len="48" key="16" pan="0" vol="195" pos="2208"/>
          <note len="12" key="16" pan="0" vol="195" pos="2256"/>
          <note len="12" key="16" pan="0" vol="195" pos="2268"/>
          <note len="12" key="16" pan="0" vol="195" pos="2280"/>
          <note len="12" key="16" pan="0" vol="195" pos="2292"/>
          <note len="48" key="14" pan="0" vol="195" pos="2304"/>
          <note len="12" key="14" pan="0" vol="195" pos="2352"/>
          <note len="12" key="14" pan="0" vol="195" pos="2364"/>
          <note len="12" key="14" pan="0" vol="195" pos="2376"/>
          <note len="12" key="14" pan="0" vol="195" pos="2388"/>
          <note len="48" key="14" pan="0" vol="195" pos="2400"/>
          <note len="12" key="14" pan="0" vol="195" pos="2448"/>
          <note len="12" key="14" pan="0" vol="195" pos="2460"/>
          <note len="12" key="14" pan="0" vol="195" pos="2472"/>
          <note len="12" key="14" pan="0" vol="195" pos="2484"/>
          <note len="48" key="21" pan="0" vol="195" pos="2496"/>
          <note len="12" key="21" pan="0" vol="195" pos="2544"/>
          <note len="12" key="21" pan="0" vol="195" pos="2556"/>
          <note len="12" key="21" pan="0" vol="195" pos="2568"/>
          <note len="12" key="21" pan="0" vol="195" pos="2580"/>
          <note len="12" key="21" pan="0" vol="195" pos="2592"/>
          <note len="12" key="21" pan="0" vol="195" pos="2604"/>
          <note len="12" key="21" pan="0" vol="195" pos="2616"/>
          <note len="12" key="21" pan="0" vol="195" pos="2628"/>
          <note len="12" key="21" pan="0" vol="195" pos="2640"/>
          <note len="12" key="21" pan="0" vol="195" pos="2652"/>
          <note len="12" key="21" pan="0" vol="195" pos="2664"/>
          <note len="12" key="21" pan="0" vol="195" pos="2676"/>
          <note len="48" key="23" pan="0" vol="195" pos="2688"/>
          <note len="12" key="23" pan="0" vol="195" pos="2736"/>
          <note len="12" key="23" pan="0" vol="195" pos="2748"/>
          <note len="12" key="23" pan="0" vol="195" pos="2760"/>
          <note len="12" key="23" pan="0" vol="195" pos="2772"/>
          <note len="12" key="23" pan="0" vol="195" pos="2784"/>
          <note len="12" key="23" pan="0" vol="195" pos="2796"/>
          <note len="12" key="23" pan="0" vol="195" pos="2808"/>
          <note len="12" key="23" pan="0" vol="195" pos="2820"/>
          <note len="12" key="23" pan="0" vol="195" pos="2832"/>
          <note len="12" key="23" pan="0" vol="195" pos="2844"/>
          <note len="12" key="23" pan="0" vol="195" pos="2856"/>
          <note len="12" key="23" pan="0" vol="195" pos="2868"/>
          <note len="96" key="23" pan="0" vol="195" pos="2880"/>
          <note len="96" key="27" pan="0" vol="195" pos="2976"/>
        </pattern>
        <pattern muted="0" name="" steps="16" type="1" pos="11136">
          <note len="24" key="13" pan="0" vol="197" pos="0"/>
          <note len="12" key="13" pan="0" vol="197" pos="24"/>
          <note len="12" key="13" pan="0" vol="197" pos="36"/>
          <note len="12" key="13" pan="0" vol="197" pos="48"/>
          <note len="12" key="13" pan="0" vol="197" pos="60"/>
          <note len="24" key="13" pan="0" vol="197" pos="72"/>
          <note len="12" key="13" pan="0" vol="197" pos="96"/>
          <note len="12" key="13" pan="0" vol="197" pos="108"/>
          <note len="12" key="13" pan="0" vol="197" pos="120"/>
          <note len="12" key="13" pan="0" vol="197" pos="132"/>
          <note len="24" key="13" pan="0" vol="197" pos="144"/>
          <note len="12" key="13" pan="0" vol="197" pos="168"/>
          <note len="12" key="13" pan="0" vol="197" pos="180"/>
          <note len="12" key="13" pan="0" vol="197" pos="192"/>
          <note len="12" key="13" pan="0" vol="197" pos="204"/>
          <note len="24" key="13" pan="0" vol="197" pos="216"/>
          <note len="12" key="13" pan="0" vol="197" pos="240"/>
          <note len="12" key="13" pan="0" vol="197" pos="252"/>
          <note len="12" key="13" pan="0" vol="197" pos="264"/>
          <note len="12" key="13" pan="0" vol="197" pos="276"/>
          <note len="24" key="13" pan="0" vol="197" pos="288"/>
          <note len="12" key="13" pan="0" vol="197" pos="312"/>
          <note len="12" key="13" pan="0" vol="197" pos="324"/>
          <note len="24" key="13" pan="0" vol="197" pos="336"/>
          <note len="12" key="13" pan="0" vol="197" pos="360"/>
          <note len="12" key="13" pan="0" vol="197" pos="372"/>
        </pattern>
        <pattern muted="0" name="" steps="16" type="1" pos="11904">
          <note len="24" key="13" pan="0" vol="197" pos="0"/>
          <note len="12" key="13" pan="0" vol="197" pos="24"/>
          <note len="12" key="13" pan="0" vol="197" pos="36"/>
          <note len="12" key="13" pan="0" vol="197" pos="48"/>
          <note len="12" key="13" pan="0" vol="197" pos="60"/>
          <note len="24" key="13" pan="0" vol="197" pos="72"/>
          <note len="12" key="13" pan="0" vol="197" pos="96"/>
          <note len="12" key="13" pan="0" vol="197" pos="108"/>
          <note len="12" key="13" pan="0" vol="197" pos="120"/>
          <note len="12" key="13" pan="0" vol="197" pos="132"/>
          <note len="24" key="13" pan="0" vol="197" pos="144"/>
          <note len="12" key="13" pan="0" vol="197" pos="168"/>
          <note len="12" key="13" pan="0" vol="197" pos="180"/>
          <note len="12" key="13" pan="0" vol="197" pos="192"/>
          <note len="12" key="13" pan="0" vol="197" pos="204"/>
          <note len="24" key="13" pan="0" vol="197" pos="216"/>
          <note len="12" key="13" pan="0" vol="197" pos="240"/>
          <note len="12" key="13" pan="0" vol="197" pos="252"/>
          <note len="12" key="13" pan="0" vol="197" pos="264"/>
          <note len="12" key="13" pan="0" vol="197" pos="276"/>
          <note len="24" key="13" pan="0" vol="197" pos="288"/>
          <note len="12" key="13" pan="0" vol="197" pos="312"/>
          <note len="12" key="13" pan="0" vol="197" pos="324"/>
          <note len="24" key="13" pan="0" vol="197" pos="336"/>
          <note len="12" key="13" pan="0" vol="197" pos="360"/>
          <note len="12" key="13" pan="0" vol="197" pos="372"/>
        </pattern>
        <pattern muted="0" name="" steps="16" type="1" pos="11520">
          <note len="24" key="14" pan="0" vol="197" pos="0"/>
          <note len="12" key="14" pan="0" vol="197" pos="24"/>
          <note len="12" key="14" pan="0" vol="197" pos="36"/>
          <note len="12" key="14" pan="0" vol="197" pos="48"/>
          <note len="12" key="14" pan="0" vol="197" pos="60"/>
          <note len="24" key="14" pan="0" vol="197" pos="72"/>
          <note len="12" key="14" pan="0" vol="197" pos="96"/>
          <note len="12" key="14" pan="0" vol="197" pos="108"/>
          <note len="12" key="14" pan="0" vol="197" pos="120"/>
          <note len="12" key="14" pan="0" vol="197" pos="132"/>
          <note len="24" key="14" pan="0" vol="197" pos="144"/>
          <note len="12" key="14" pan="0" vol="197" pos="168"/>
          <note len="12" key="14" pan="0" vol="197" pos="180"/>
          <note len="12" key="14" pan="0" vol="197" pos="192"/>
          <note len="12" key="14" pan="0" vol="197" pos="204"/>
          <note len="24" key="14" pan="0" vol="197" pos="216"/>
          <note len="12" key="14" pan="0" vol="197" pos="240"/>
          <note len="12" key="14" pan="0" vol="197" pos="252"/>
          <note len="12" key="14" pan="0" vol="197" pos="264"/>
          <note len="12" key="14" pan="0" vol="197" pos="276"/>
          <note len="24" key="14" pan="0" vol="197" pos="288"/>
          <note len="12" key="14" pan="0" vol="197" pos="312"/>
          <note len="12" key="14" pan="0" vol="197" pos="324"/>
          <note len="24" key="14" pan="0" vol="197" pos="336"/>
          <note len="12" key="14" pan="0" vol="197" pos="360"/>
          <note len="12" key="14" pan="0" vol="197" pos="372"/>
        </pattern>
        <pattern muted="0" name="" steps="16" type="1" pos="12288">
          <note len="24" key="14" pan="0" vol="197" pos="0"/>
          <note len="12" key="14" pan="0" vol="197" pos="24"/>
          <note len="12" key="14" pan="0" vol="197" pos="36"/>
          <note len="12" key="14" pan="0" vol="197" pos="48"/>
          <note len="12" key="14" pan="0" vol="197" pos="60"/>
          <note len="24" key="14" pan="0" vol="197" pos="72"/>
          <note len="12" key="14" pan="0" vol="197" pos="96"/>
          <note len="12" key="14" pan="0" vol="197" pos="108"/>
          <note len="12" key="14" pan="0" vol="197" pos="120"/>
          <note len="12" key="14" pan="0" vol="197" pos="132"/>
          <note len="24" key="14" pan="0" vol="197" pos="144"/>
          <note len="12" key="14" pan="0" vol="197" pos="168"/>
          <note len="12" key="14" pan="0" vol="197" pos="180"/>
          <note len="12" key="14" pan="0" vol="197" pos="192"/>
          <note len="12" key="14" pan="0" vol="197" pos="204"/>
          <note len="24" key="14" pan="0" vol="197" pos="216"/>
          <note len="12" key="14" pan="0" vol="197" pos="240"/>
          <note len="12" key="14" pan="0" vol="197" pos="252"/>
          <note len="12" key="14" pan="0" vol="197" pos="264"/>
          <note len="12" key="14" pan="0" vol="197" pos="276"/>
          <note len="24" key="14" pan="0" vol="197" pos="288"/>
          <note len="12" key="14" pan="0" vol="197" pos="312"/>
          <note len="12" key="14" pan="0" vol="197" pos="324"/>
          <note len="24" key="14" pan="0" vol="197" pos="336"/>
          <note len="12" key="14" pan="0" vol="197" pos="360"/>
          <note len="12" key="14" pan="0" vol="197" pos="372"/>
        </pattern>
        <pattern muted="0" name="" steps="16" type="1" pos="15744">
          <note len="48" key="13" pan="0" vol="195" pos="0"/>
          <note len="12" key="13" pan="0" vol="195" pos="48"/>
          <note len="12" key="13" pan="0" vol="195" pos="60"/>
          <note len="12" key="13" pan="0" vol="195" pos="72"/>
          <note len="12" key="13" pan="0" vol="195" pos="84"/>
          <note len="12" key="13" pan="0" vol="195" pos="96"/>
          <note len="12" key="13" pan="0" vol="195" pos="108"/>
          <note len="12" key="13" pan="0" vol="195" pos="120"/>
          <note len="12" key="13" pan="0" vol="195" pos="132"/>
          <note len="12" key="13" pan="0" vol="195" pos="144"/>
          <note len="12" key="13" pan="0" vol="195" pos="156"/>
          <note len="12" key="13" pan="0" vol="195" pos="168"/>
          <note len="12" key="13" pan="0" vol="195" pos="180"/>
          <note len="48" key="20" pan="0" vol="195" pos="192"/>
          <note len="12" key="20" pan="0" vol="195" pos="240"/>
          <note len="12" key="20" pan="0" vol="195" pos="252"/>
          <note len="12" key="20" pan="0" vol="195" pos="264"/>
          <note len="12" key="20" pan="0" vol="195" pos="276"/>
          <note len="12" key="20" pan="0" vol="195" pos="288"/>
          <note len="12" key="20" pan="0" vol="195" pos="300"/>
          <note len="12" key="20" pan="0" vol="195" pos="312"/>
          <note len="12" key="20" pan="0" vol="195" pos="324"/>
          <note len="12" key="20" pan="0" vol="195" pos="336"/>
          <note len="12" key="20" pan="0" vol="195" pos="348"/>
          <note len="12" key="20" pan="0" vol="195" pos="360"/>
          <note len="12" key="20" pan="0" vol="195" pos="372"/>
          <note len="48" key="21" pan="0" vol="195" pos="384"/>
          <note len="12" key="21" pan="0" vol="195" pos="432"/>
          <note len="12" key="21" pan="0" vol="195" pos="444"/>
          <note len="12" key="21" pan="0" vol="195" pos="456"/>
          <note len="12" key="21" pan="0" vol="195" pos="468"/>
          <note len="12" key="21" pan="0" vol="195" pos="480"/>
          <note len="12" key="21" pan="0" vol="195" pos="492"/>
          <note len="12" key="21" pan="0" vol="195" pos="504"/>
          <note len="12" key="21" pan="0" vol="195" pos="516"/>
          <note len="12" key="21" pan="0" vol="195" pos="528"/>
          <note len="12" key="21" pan="0" vol="195" pos="540"/>
          <note len="12" key="21" pan="0" vol="195" pos="552"/>
          <note len="12" key="21" pan="0" vol="195" pos="564"/>
          <note len="48" key="23" pan="0" vol="195" pos="576"/>
          <note len="12" key="23" pan="0" vol="195" pos="624"/>
          <note len="12" key="23" pan="0" vol="195" pos="636"/>
          <note len="12" key="23" pan="0" vol="195" pos="648"/>
          <note len="12" key="23" pan="0" vol="195" pos="660"/>
          <note len="12" key="23" pan="0" vol="195" pos="672"/>
          <note len="12" key="23" pan="0" vol="195" pos="684"/>
          <note len="12" key="23" pan="0" vol="195" pos="696"/>
          <note len="12" key="23" pan="0" vol="195" pos="708"/>
          <note len="12" key="23" pan="0" vol="195" pos="720"/>
          <note len="12" key="23" pan="0" vol="195" pos="732"/>
          <note len="12" key="23" pan="0" vol="195" pos="744"/>
          <note len="12" key="23" pan="0" vol="195" pos="756"/>
          <note len="48" key="18" pan="0" vol="195" pos="768"/>
          <note len="12" key="18" pan="0" vol="195" pos="816"/>
          <note len="12" key="18" pan="0" vol="195" pos="828"/>
          <note len="12" key="18" pan="0" vol="195" pos="840"/>
          <note len="12" key="18" pan="0" vol="195" pos="852"/>
          <note len="12" key="18" pan="0" vol="195" pos="864"/>
          <note len="12" key="18" pan="0" vol="195" pos="876"/>
          <note len="12" key="18" pan="0" vol="195" pos="888"/>
          <note len="12" key="18" pan="0" vol="195" pos="900"/>
          <note len="12" key="18" pan="0" vol="195" pos="912"/>
          <note len="12" key="18" pan="0" vol="195" pos="924"/>
          <note len="12" key="18" pan="0" vol="195" pos="936"/>
          <note len="12" key="18" pan="0" vol="195" pos="948"/>
          <note len="48" key="20" pan="0" vol="195" pos="960"/>
          <note len="12" key="20" pan="0" vol="195" pos="1008"/>
          <note len="12" key="20" pan="0" vol="195" pos="1020"/>
          <note len="12" key="20" pan="0" vol="195" pos="1032"/>
          <note len="12" key="20" pan="0" vol="195" pos="1044"/>
          <note len="12" key="20" pan="0" vol="195" pos="1056"/>
          <note len="12" key="20" pan="0" vol="195" pos="1068"/>
          <note len="12" key="20" pan="0" vol="195" pos="1080"/>
          <note len="12" key="20" pan="0" vol="195" pos="1092"/>
          <note len="12" key="20" pan="0" vol="195" pos="1104"/>
          <note len="12" key="20" pan="0" vol="195" pos="1116"/>
          <note len="12" key="20" pan="0" vol="195" pos="1128"/>
          <note len="12" key="20" pan="0" vol="195" pos="1140"/>
          <note len="48" key="21" pan="0" vol="195" pos="1152"/>
          <note len="12" key="21" pan="0" vol="195" pos="1200"/>
          <note len="12" key="21" pan="0" vol="195" pos="1212"/>
          <note len="12" key="21" pan="0" vol="195" pos="1224"/>
          <note len="12" key="21" pan="0" vol="195" pos="1236"/>
          <note len="12" key="21" pan="0" vol="195" pos="1248"/>
          <note len="12" key="21" pan="0" vol="195" pos="1260"/>
          <note len="12" key="21" pan="0" vol="195" pos="1272"/>
          <note len="12" key="21" pan="0" vol="195" pos="1284"/>
          <note len="12" key="21" pan="0" vol="195" pos="1296"/>
          <note len="12" key="21" pan="0" vol="195" pos="1308"/>
          <note len="12" key="21" pan="0" vol="195" pos="1320"/>
          <note len="12" key="21" pan="0" vol="195" pos="1332"/>
          <note len="48" key="23" pan="0" vol="195" pos="1344"/>
          <note len="12" key="23" pan="0" vol="195" pos="1392"/>
          <note len="12" key="23" pan="0" vol="195" pos="1404"/>
          <note len="12" key="23" pan="0" vol="195" pos="1416"/>
          <note len="12" key="23" pan="0" vol="195" pos="1428"/>
          <note len="48" key="24" pan="0" vol="195" pos="1440"/>
          <note len="12" key="24" pan="0" vol="195" pos="1488"/>
          <note len="12" key="24" pan="0" vol="195" pos="1500"/>
          <note len="12" key="24" pan="0" vol="195" pos="1512"/>
          <note len="12" key="24" pan="0" vol="195" pos="1524"/>
          <note len="48" key="13" pan="0" vol="195" pos="1536"/>
          <note len="12" key="13" pan="0" vol="195" pos="1584"/>
          <note len="12" key="13" pan="0" vol="195" pos="1596"/>
          <note len="12" key="13" pan="0" vol="195" pos="1608"/>
          <note len="12" key="13" pan="0" vol="195" pos="1620"/>
          <note len="12" key="13" pan="0" vol="195" pos="1632"/>
          <note len="12" key="13" pan="0" vol="195" pos="1644"/>
          <note len="12" key="13" pan="0" vol="195" pos="1656"/>
          <note len="12" key="13" pan="0" vol="195" pos="1668"/>
          <note len="12" key="13" pan="0" vol="195" pos="1680"/>
          <note len="12" key="13" pan="0" vol="195" pos="1692"/>
          <note len="12" key="13" pan="0" vol="195" pos="1704"/>
          <note len="12" key="13" pan="0" vol="195" pos="1716"/>
          <note len="48" key="23" pan="0" vol="195" pos="1728"/>
          <note len="12" key="23" pan="0" vol="195" pos="1776"/>
          <note len="12" key="23" pan="0" vol="195" pos="1788"/>
          <note len="12" key="23" pan="0" vol="195" pos="1800"/>
          <note len="12" key="23" pan="0" vol="195" pos="1812"/>
          <note len="12" key="23" pan="0" vol="195" pos="1824"/>
          <note len="12" key="23" pan="0" vol="195" pos="1836"/>
          <note len="12" key="23" pan="0" vol="195" pos="1848"/>
          <note len="12" key="23" pan="0" vol="195" pos="1860"/>
          <note len="12" key="23" pan="0" vol="195" pos="1872"/>
          <note len="12" key="23" pan="0" vol="195" pos="1884"/>
          <note len="12" key="23" pan="0" vol="195" pos="1896"/>
          <note len="12" key="23" pan="0" vol="195" pos="1908"/>
          <note len="48" key="22" pan="0" vol="195" pos="1920"/>
          <note len="12" key="22" pan="0" vol="195" pos="1968"/>
          <note len="12" key="22" pan="0" vol="195" pos="1980"/>
          <note len="12" key="22" pan="0" vol="195" pos="1992"/>
          <note len="12" key="22" pan="0" vol="195" pos="2004"/>
          <note len="12" key="22" pan="0" vol="195" pos="2016"/>
          <note len="12" key="22" pan="0" vol="195" pos="2028"/>
          <note len="12" key="22" pan="0" vol="195" pos="2040"/>
          <note len="12" key="22" pan="0" vol="195" pos="2052"/>
          <note len="12" key="22" pan="0" vol="195" pos="2064"/>
          <note len="12" key="22" pan="0" vol="195" pos="2076"/>
          <note len="12" key="22" pan="0" vol="195" pos="2088"/>
          <note len="12" key="22" pan="0" vol="195" pos="2100"/>
          <note len="48" key="18" pan="0" vol="195" pos="2112"/>
          <note len="12" key="18" pan="0" vol="195" pos="2160"/>
          <note len="12" key="18" pan="0" vol="195" pos="2172"/>
          <note len="12" key="18" pan="0" vol="195" pos="2184"/>
          <note len="12" key="18" pan="0" vol="195" pos="2196"/>
          <note len="48" key="16" pan="0" vol="195" pos="2208"/>
          <note len="12" key="16" pan="0" vol="195" pos="2256"/>
          <note len="12" key="16" pan="0" vol="195" pos="2268"/>
          <note len="12" key="16" pan="0" vol="195" pos="2280"/>
          <note len="12" key="16" pan="0" vol="195" pos="2292"/>
          <note len="48" key="14" pan="0" vol="195" pos="2304"/>
          <note len="12" key="14" pan="0" vol="195" pos="2352"/>
          <note len="12" key="14" pan="0" vol="195" pos="2364"/>
          <note len="12" key="14" pan="0" vol="195" pos="2376"/>
          <note len="12" key="14" pan="0" vol="195" pos="2388"/>
          <note len="48" key="14" pan="0" vol="195" pos="2400"/>
          <note len="12" key="14" pan="0" vol="195" pos="2448"/>
          <note len="12" key="14" pan="0" vol="195" pos="2460"/>
          <note len="12" key="14" pan="0" vol="195" pos="2472"/>
          <note len="12" key="14" pan="0" vol="195" pos="2484"/>
          <note len="48" key="21" pan="0" vol="195" pos="2496"/>
          <note len="12" key="21" pan="0" vol="195" pos="2544"/>
          <note len="12" key="21" pan="0" vol="195" pos="2556"/>
          <note len="12" key="21" pan="0" vol="195" pos="2568"/>
          <note len="12" key="21" pan="0" vol="195" pos="2580"/>
          <note len="12" key="21" pan="0" vol="195" pos="2592"/>
          <note len="12" key="21" pan="0" vol="195" pos="2604"/>
          <note len="12" key="21" pan="0" vol="195" pos="2616"/>
          <note len="12" key="21" pan="0" vol="195" pos="2628"/>
          <note len="12" key="21" pan="0" vol="195" pos="2640"/>
          <note len="12" key="21" pan="0" vol="195" pos="2652"/>
          <note len="12" key="21" pan="0" vol="195" pos="2664"/>
          <note len="12" key="21" pan="0" vol="195" pos="2676"/>
          <note len="48" key="23" pan="0" vol="195" pos="2688"/>
          <note len="12" key="23" pan="0" vol="195" pos="2736"/>
          <note len="12" key="23" pan="0" vol="195" pos="2748"/>
          <note len="12" key="23" pan="0" vol="195" pos="2760"/>
          <note len="12" key="23" pan="0" vol="195" pos="2772"/>
          <note len="12" key="23" pan="0" vol="195" pos="2784"/>
          <note len="12" key="23" pan="0" vol="195" pos="2796"/>
          <note len="12" key="23" pan="0" vol="195" pos="2808"/>
          <note len="12" key="23" pan="0" vol="195" pos="2820"/>
          <note len="12" key="23" pan="0" vol="195" pos="2832"/>
          <note len="12" key="23" pan="0" vol="195" pos="2844"/>
          <note len="12" key="23" pan="0" vol="195" pos="2856"/>
          <note len="12" key="23" pan="0" vol="195" pos="2868"/>
          <note len="24" key="11" pan="0" vol="195" pos="2880"/>
          <note len="24" key="11" pan="0" vol="195" pos="2904"/>
          <note len="24" key="11" pan="0" vol="195" pos="2976"/>
          <note len="24" key="11" pan="0" vol="195" pos="3000"/>
        </pattern>
        <pattern muted="0" name="" steps="16" type="1" pos="3264">
          <note len="192" key="14" pan="0" vol="172" pos="0"/>
        </pattern>
        <pattern muted="0" name="" steps="16" type="1" pos="7296">
          <note len="24" key="18" pan="0" vol="197" pos="0"/>
          <note len="24" key="16" pan="0" vol="197" pos="24"/>
          <note len="24" key="18" pan="0" vol="197" pos="48"/>
          <note len="24" key="25" pan="0" vol="197" pos="72"/>
          <note len="24" key="18" pan="0" vol="197" pos="96"/>
          <note len="24" key="28" pan="0" vol="197" pos="120"/>
          <note len="24" key="23" pan="0" vol="197" pos="144"/>
          <note len="24" key="25" pan="0" vol="197" pos="168"/>
          <note len="24" key="18" pan="0" vol="197" pos="192"/>
          <note len="24" key="16" pan="0" vol="197" pos="216"/>
          <note len="24" key="18" pan="0" vol="197" pos="240"/>
          <note len="24" key="25" pan="0" vol="197" pos="264"/>
          <note len="24" key="18" pan="0" vol="197" pos="288"/>
          <note len="24" key="28" pan="0" vol="197" pos="312"/>
          <note len="24" key="30" pan="0" vol="197" pos="336"/>
          <note len="24" key="28" pan="0" vol="197" pos="360"/>
        </pattern>
        <pattern muted="0" name="" steps="16" type="1" pos="7680">
          <note len="24" key="15" pan="0" vol="197" pos="0"/>
          <note len="12" key="15" pan="0" vol="197" pos="24"/>
          <note len="12" key="15" pan="0" vol="197" pos="36"/>
          <note len="12" key="15" pan="0" vol="197" pos="48"/>
          <note len="12" key="15" pan="0" vol="197" pos="60"/>
          <note len="12" key="15" pan="0" vol="197" pos="72"/>
          <note len="12" key="15" pan="0" vol="197" pos="84"/>
          <note len="12" key="15" pan="0" vol="197" pos="96"/>
          <note len="12" key="15" pan="0" vol="197" pos="108"/>
          <note len="12" key="15" pan="0" vol="197" pos="120"/>
          <note len="12" key="15" pan="0" vol="197" pos="132"/>
          <note len="12" key="15" pan="0" vol="197" pos="144"/>
          <note len="12" key="15" pan="0" vol="197" pos="156"/>
          <note len="12" key="15" pan="0" vol="197" pos="168"/>
          <note len="12" key="15" pan="0" vol="197" pos="180"/>
          <note len="96" key="21" pan="0" vol="197" pos="192"/>
          <note len="96" key="20" pan="0" vol="197" pos="288"/>
        </pattern>
        <pattern muted="0" name="" steps="16" type="1" pos="18816">
          <note len="24" key="13" pan="0" vol="197" pos="0"/>
          <note len="12" key="13" pan="0" vol="197" pos="24"/>
          <note len="12" key="13" pan="0" vol="197" pos="36"/>
          <note len="24" key="13" pan="0" vol="197" pos="48"/>
          <note len="24" key="13" pan="0" vol="197" pos="72"/>
          <note len="12" key="13" pan="0" vol="197" pos="96"/>
          <note len="12" key="13" pan="0" vol="197" pos="108"/>
          <note len="24" key="13" pan="0" vol="197" pos="120"/>
          <note len="24" key="13" pan="0" vol="197" pos="144"/>
          <note len="12" key="13" pan="0" vol="197" pos="168"/>
          <note len="12" key="13" pan="0" vol="197" pos="180"/>
          <note len="24" key="13" pan="0" vol="197" pos="192"/>
          <note len="24" key="13" pan="0" vol="197" pos="216"/>
          <note len="12" key="13" pan="0" vol="197" pos="240"/>
          <note len="12" key="13" pan="0" vol="197" pos="252"/>
          <note len="24" key="13" pan="0" vol="197" pos="264"/>
          <note len="24" key="13" pan="0" vol="197" pos="288"/>
          <note len="24" key="13" pan="0" vol="197" pos="312"/>
          <note len="12" key="13" pan="0" vol="197" pos="336"/>
          <note len="12" key="13" pan="0" vol="197" pos="348"/>
          <note len="24" key="13" pan="0" vol="197" pos="360"/>
          <note len="24" key="20" pan="0" vol="197" pos="384"/>
          <note len="12" key="20" pan="0" vol="197" pos="408"/>
          <note len="12" key="20" pan="0" vol="197" pos="420"/>
          <note len="24" key="20" pan="0" vol="197" pos="432"/>
          <note len="24" key="20" pan="0" vol="197" pos="456"/>
          <note len="12" key="20" pan="0" vol="197" pos="480"/>
          <note len="12" key="20" pan="0" vol="197" pos="492"/>
          <note len="24" key="20" pan="0" vol="197" pos="504"/>
          <note len="24" key="20" pan="0" vol="197" pos="528"/>
          <note len="12" key="20" pan="0" vol="197" pos="552"/>
          <note len="12" key="20" pan="0" vol="197" pos="564"/>
          <note len="24" key="20" pan="0" vol="197" pos="576"/>
          <note len="24" key="20" pan="0" vol="197" pos="600"/>
          <note len="12" key="20" pan="0" vol="197" pos="624"/>
          <note len="12" key="20" pan="0" vol="197" pos="636"/>
          <note len="24" key="20" pan="0" vol="197" pos="648"/>
          <note len="24" key="20" pan="0" vol="197" pos="672"/>
          <note len="24" key="20" pan="0" vol="197" pos="696"/>
          <note len="12" key="20" pan="0" vol="197" pos="720"/>
          <note len="12" key="20" pan="0" vol="197" pos="732"/>
          <note len="24" key="20" pan="0" vol="197" pos="744"/>
          <note len="24" key="15" pan="0" vol="197" pos="768"/>
          <note len="12" key="15" pan="0" vol="197" pos="792"/>
          <note len="12" key="15" pan="0" vol="197" pos="804"/>
          <note len="24" key="15" pan="0" vol="197" pos="816"/>
          <note len="24" key="15" pan="0" vol="197" pos="840"/>
          <note len="12" key="15" pan="0" vol="197" pos="864"/>
          <note len="12" key="15" pan="0" vol="197" pos="876"/>
          <note len="24" key="15" pan="0" vol="197" pos="888"/>
          <note len="24" key="15" pan="0" vol="197" pos="912"/>
          <note len="12" key="15" pan="0" vol="197" pos="936"/>
          <note len="12" key="15" pan="0" vol="197" pos="948"/>
          <note len="24" key="15" pan="0" vol="197" pos="960"/>
          <note len="24" key="15" pan="0" vol="197" pos="984"/>
          <note len="12" key="15" pan="0" vol="197" pos="1008"/>
          <note len="12" key="15" pan="0" vol="197" pos="1020"/>
          <note len="24" key="15" pan="0" vol="197" pos="1032"/>
          <note len="24" key="15" pan="0" vol="197" pos="1056"/>
          <note len="24" key="15" pan="0" vol="197" pos="1080"/>
          <note len="12" key="15" pan="0" vol="197" pos="1104"/>
          <note len="12" key="15" pan="0" vol="197" pos="1116"/>
          <note len="24" key="15" pan="0" vol="197" pos="1128"/>
          <note len="24" key="14" pan="0" vol="197" pos="1152"/>
          <note len="12" key="14" pan="0" vol="197" pos="1176"/>
          <note len="12" key="14" pan="0" vol="197" pos="1188"/>
          <note len="24" key="14" pan="0" vol="197" pos="1200"/>
          <note len="24" key="14" pan="0" vol="197" pos="1224"/>
          <note len="12" key="14" pan="0" vol="197" pos="1248"/>
          <note len="12" key="14" pan="0" vol="197" pos="1260"/>
          <note len="24" key="14" pan="0" vol="197" pos="1272"/>
          <note len="24" key="14" pan="0" vol="197" pos="1296"/>
          <note len="12" key="14" pan="0" vol="197" pos="1320"/>
          <note len="12" key="14" pan="0" vol="197" pos="1332"/>
          <note len="48" key="20" pan="0" vol="197" pos="1344"/>
          <note len="48" key="15" pan="0" vol="197" pos="1392"/>
          <note len="48" key="11" pan="0" vol="197" pos="1440"/>
          <note len="48" key="8" pan="0" vol="197" pos="1488"/>
          <note len="24" key="13" pan="0" vol="197" pos="1536"/>
          <note len="12" key="13" pan="0" vol="197" pos="1560"/>
          <note len="12" key="13" pan="0" vol="197" pos="1572"/>
          <note len="24" key="13" pan="0" vol="197" pos="1584"/>
          <note len="24" key="13" pan="0" vol="197" pos="1608"/>
          <note len="12" key="13" pan="0" vol="197" pos="1632"/>
          <note len="12" key="13" pan="0" vol="197" pos="1644"/>
          <note len="24" key="13" pan="0" vol="197" pos="1656"/>
          <note len="24" key="13" pan="0" vol="197" pos="1680"/>
          <note len="12" key="13" pan="0" vol="197" pos="1704"/>
          <note len="12" key="13" pan="0" vol="197" pos="1716"/>
          <note len="24" key="13" pan="0" vol="197" pos="1728"/>
          <note len="24" key="13" pan="0" vol="197" pos="1752"/>
          <note len="12" key="13" pan="0" vol="197" pos="1776"/>
          <note len="12" key="13" pan="0" vol="197" pos="1788"/>
          <note len="24" key="13" pan="0" vol="197" pos="1800"/>
          <note len="24" key="13" pan="0" vol="197" pos="1824"/>
          <note len="24" key="13" pan="0" vol="197" pos="1848"/>
          <note len="12" key="13" pan="0" vol="197" pos="1872"/>
          <note len="12" key="13" pan="0" vol="197" pos="1884"/>
          <note len="24" key="13" pan="0" vol="197" pos="1896"/>
          <note len="24" key="14" pan="0" vol="197" pos="1920"/>
          <note len="12" key="14" pan="0" vol="197" pos="1944"/>
          <note len="12" key="14" pan="0" vol="197" pos="1956"/>
          <note len="24" key="14" pan="0" vol="197" pos="1968"/>
          <note len="24" key="14" pan="0" vol="197" pos="1992"/>
          <note len="12" key="14" pan="0" vol="197" pos="2016"/>
          <note len="12" key="14" pan="0" vol="197" pos="2028"/>
          <note len="24" key="14" pan="0" vol="197" pos="2040"/>
          <note len="24" key="14" pan="0" vol="197" pos="2064"/>
          <note len="12" key="14" pan="0" vol="197" pos="2088"/>
          <note len="12" key="14" pan="0" vol="197" pos="2100"/>
          <note len="24" key="14" pan="0" vol="197" pos="2112"/>
          <note len="24" key="14" pan="0" vol="197" pos="2136"/>
          <note len="12" key="14" pan="0" vol="197" pos="2160"/>
          <note len="12" key="14" pan="0" vol="197" pos="2172"/>
          <note len="24" key="14" pan="0" vol="197" pos="2184"/>
          <note len="24" key="14" pan="0" vol="197" pos="2208"/>
          <note len="24" key="14" pan="0" vol="197" pos="2232"/>
          <note len="12" key="14" pan="0" vol="197" pos="2256"/>
          <note len="12" key="14" pan="0" vol="197" pos="2268"/>
          <note len="24" key="14" pan="0" vol="197" pos="2280"/>
          <note len="24" key="15" pan="0" vol="197" pos="2304"/>
          <note len="12" key="15" pan="0" vol="197" pos="2328"/>
          <note len="12" key="15" pan="0" vol="197" pos="2340"/>
          <note len="24" key="15" pan="0" vol="197" pos="2352"/>
          <note len="24" key="15" pan="0" vol="197" pos="2376"/>
          <note len="12" key="15" pan="0" vol="197" pos="2400"/>
          <note len="12" key="15" pan="0" vol="197" pos="2412"/>
          <note len="24" key="15" pan="0" vol="197" pos="2424"/>
          <note len="24" key="15" pan="0" vol="197" pos="2448"/>
          <note len="12" key="15" pan="0" vol="197" pos="2472"/>
          <note len="12" key="15" pan="0" vol="197" pos="2484"/>
          <note len="24" key="15" pan="0" vol="197" pos="2496"/>
          <note len="24" key="15" pan="0" vol="197" pos="2520"/>
          <note len="12" key="15" pan="0" vol="197" pos="2544"/>
          <note len="12" key="15" pan="0" vol="197" pos="2556"/>
          <note len="24" key="15" pan="0" vol="197" pos="2568"/>
          <note len="24" key="15" pan="0" vol="197" pos="2592"/>
          <note len="24" key="15" pan="0" vol="197" pos="2616"/>
          <note len="12" key="15" pan="0" vol="197" pos="2640"/>
          <note len="12" key="15" pan="0" vol="197" pos="2652"/>
          <note len="24" key="15" pan="0" vol="197" pos="2664"/>
          <note len="24" key="20" pan="0" vol="197" pos="2688"/>
          <note len="12" key="20" pan="0" vol="197" pos="2712"/>
          <note len="12" key="20" pan="0" vol="197" pos="2724"/>
          <note len="24" key="20" pan="0" vol="197" pos="2736"/>
          <note len="24" key="20" pan="0" vol="197" pos="2760"/>
          <note len="12" key="20" pan="0" vol="197" pos="2784"/>
          <note len="12" key="20" pan="0" vol="197" pos="2796"/>
          <note len="24" key="20" pan="0" vol="197" pos="2808"/>
          <note len="24" key="20" pan="0" vol="197" pos="2832"/>
          <note len="12" key="20" pan="0" vol="197" pos="2856"/>
          <note len="12" key="20" pan="0" vol="197" pos="2868"/>
          <note len="48" key="20" pan="0" vol="197" pos="2880"/>
          <note len="48" key="20" pan="0" vol="197" pos="2928"/>
          <note len="48" key="20" pan="0" vol="197" pos="2976"/>
          <note len="48" key="20" pan="0" vol="197" pos="3024"/>
        </pattern>
        <pattern muted="0" name="" steps="16" type="1" pos="13824">
          <note len="24" key="23" pan="0" vol="197" pos="0"/>
          <note len="12" key="20" pan="0" vol="197" pos="24"/>
          <note len="12" key="20" pan="0" vol="197" pos="36"/>
          <note len="12" key="20" pan="0" vol="197" pos="48"/>
          <note len="12" key="20" pan="0" vol="197" pos="60"/>
          <note len="48" key="20" pan="0" vol="197" pos="72"/>
          <note len="24" key="20" pan="0" vol="197" pos="120"/>
          <note len="24" key="20" pan="0" vol="197" pos="144"/>
          <note len="24" key="20" pan="0" vol="197" pos="168"/>
        </pattern>
        <pattern muted="0" name="" steps="16" type="1" pos="14016">
          <note len="12" key="21" pan="0" vol="197" pos="0"/>
          <note len="12" key="21" pan="0" vol="197" pos="12"/>
          <note len="12" key="21" pan="0" vol="197" pos="24"/>
          <note len="12" key="21" pan="0" vol="197" pos="36"/>
          <note len="12" key="25" pan="0" vol="197" pos="48"/>
          <note len="12" key="25" pan="0" vol="197" pos="60"/>
          <note len="12" key="21" pan="0" vol="197" pos="72"/>
          <note len="12" key="21" pan="0" vol="197" pos="84"/>
          <note len="12" key="23" pan="0" vol="197" pos="96"/>
          <note len="12" key="23" pan="0" vol="197" pos="108"/>
          <note len="12" key="23" pan="0" vol="197" pos="120"/>
          <note len="12" key="23" pan="0" vol="197" pos="132"/>
          <note len="12" key="28" pan="0" vol="197" pos="144"/>
          <note len="12" key="27" pan="0" vol="197" pos="156"/>
          <note len="12" key="25" pan="0" vol="197" pos="168"/>
          <note len="12" key="23" pan="0" vol="197" pos="180"/>
        </pattern>
        <pattern muted="0" name="" steps="16" type="1" pos="14208">
          <note len="12" key="14" pan="0" vol="200" pos="0"/>
          <note len="12" key="14" pan="0" vol="200" pos="12"/>
          <note len="24" key="14" pan="0" vol="200" pos="24"/>
          <note len="12" key="14" pan="0" vol="200" pos="48"/>
          <note len="12" key="14" pan="0" vol="200" pos="60"/>
          <note len="24" key="14" pan="0" vol="200" pos="72"/>
          <note len="12" key="14" pan="0" vol="200" pos="96"/>
          <note len="12" key="14" pan="0" vol="200" pos="108"/>
          <note len="24" key="14" pan="0" vol="200" pos="120"/>
          <note len="12" key="14" pan="0" vol="200" pos="144"/>
          <note len="12" key="14" pan="0" vol="200" pos="156"/>
          <note len="24" key="14" pan="0" vol="200" pos="168"/>
          <note len="12" key="14" pan="0" vol="200" pos="192"/>
          <note len="12" key="14" pan="0" vol="200" pos="204"/>
          <note len="24" key="14" pan="0" vol="200" pos="216"/>
          <note len="12" key="14" pan="0" vol="200" pos="240"/>
          <note len="12" key="14" pan="0" vol="200" pos="252"/>
          <note len="24" key="14" pan="0" vol="200" pos="264"/>
          <note len="12" key="14" pan="0" vol="200" pos="288"/>
          <note len="12" key="14" pan="0" vol="200" pos="300"/>
          <note len="24" key="14" pan="0" vol="200" pos="312"/>
          <note len="12" key="14" pan="0" vol="200" pos="336"/>
          <note len="12" key="14" pan="0" vol="200" pos="348"/>
          <note len="24" key="14" pan="0" vol="200" pos="360"/>
          <note len="12" key="13" pan="0" vol="200" pos="384"/>
          <note len="12" key="13" pan="0" vol="200" pos="396"/>
          <note len="24" key="13" pan="0" vol="200" pos="408"/>
          <note len="12" key="13" pan="0" vol="200" pos="432"/>
          <note len="12" key="13" pan="0" vol="200" pos="444"/>
          <note len="24" key="13" pan="0" vol="200" pos="456"/>
          <note len="12" key="13" pan="0" vol="200" pos="480"/>
          <note len="12" key="13" pan="0" vol="200" pos="492"/>
          <note len="24" key="13" pan="0" vol="200" pos="504"/>
          <note len="12" key="13" pan="0" vol="200" pos="528"/>
          <note len="12" key="13" pan="0" vol="200" pos="540"/>
          <note len="24" key="13" pan="0" vol="200" pos="552"/>
          <note len="12" key="11" pan="0" vol="200" pos="576"/>
          <note len="12" key="11" pan="0" vol="200" pos="588"/>
          <note len="24" key="11" pan="0" vol="200" pos="600"/>
          <note len="12" key="11" pan="0" vol="200" pos="624"/>
          <note len="12" key="11" pan="0" vol="200" pos="636"/>
          <note len="24" key="11" pan="0" vol="200" pos="648"/>
          <note len="12" key="11" pan="0" vol="200" pos="672"/>
          <note len="12" key="11" pan="0" vol="200" pos="684"/>
          <note len="24" key="11" pan="0" vol="200" pos="696"/>
          <note len="12" key="11" pan="0" vol="200" pos="720"/>
          <note len="12" key="11" pan="0" vol="200" pos="732"/>
          <note len="24" key="11" pan="0" vol="200" pos="744"/>
        </pattern>
        <pattern muted="0" name="" steps="16" type="1" pos="14976">
          <note len="24" key="16" pan="0" vol="197" pos="0"/>
          <note len="24" key="18" pan="0" vol="197" pos="24"/>
          <note len="12" key="18" pan="0" vol="197" pos="48"/>
          <note len="12" key="18" pan="0" vol="197" pos="60"/>
          <note len="24" key="23" pan="0" vol="197" pos="72"/>
          <note len="24" key="25" pan="0" vol="197" pos="96"/>
          <note len="24" key="18" pan="0" vol="197" pos="120"/>
          <note len="24" key="16" pan="0" vol="197" pos="144"/>
          <note len="24" key="18" pan="0" vol="197" pos="168"/>
        </pattern>
        <pattern muted="0" name="" steps="16" type="1" pos="15168">
          <note len="24" key="16" pan="0" vol="197" pos="0"/>
          <note len="24" key="18" pan="0" vol="197" pos="24"/>
          <note len="12" key="18" pan="0" vol="197" pos="48"/>
          <note len="12" key="18" pan="0" vol="197" pos="60"/>
          <note len="24" key="23" pan="0" vol="197" pos="72"/>
          <note len="24" key="25" pan="0" vol="197" pos="96"/>
          <note len="24" key="18" pan="0" vol="197" pos="120"/>
          <note len="24" key="16" pan="0" vol="197" pos="144"/>
          <note len="24" key="18" pan="0" vol="197" pos="168"/>
        </pattern>
        <pattern muted="0" name="" steps="16" type="1" pos="15360">
          <note len="24" key="15" pan="0" vol="197" pos="0"/>
          <note len="12" key="15" pan="0" vol="197" pos="24"/>
          <note len="12" key="15" pan="0" vol="197" pos="36"/>
          <note len="12" key="15" pan="0" vol="197" pos="48"/>
          <note len="12" key="15" pan="0" vol="197" pos="60"/>
          <note len="12" key="15" pan="0" vol="197" pos="72"/>
          <note len="12" key="15" pan="0" vol="197" pos="84"/>
          <note len="12" key="15" pan="0" vol="197" pos="96"/>
          <note len="12" key="15" pan="0" vol="197" pos="108"/>
          <note len="12" key="15" pan="0" vol="197" pos="120"/>
          <note len="12" key="15" pan="0" vol="197" pos="132"/>
          <note len="12" key="15" pan="0" vol="197" pos="144"/>
          <note len="12" key="15" pan="0" vol="197" pos="156"/>
          <note len="12" key="15" pan="0" vol="197" pos="168"/>
          <note len="12" key="15" pan="0" vol="197" pos="180"/>
          <note len="96" key="21" pan="0" vol="197" pos="192"/>
          <note len="96" key="20" pan="0" vol="197" pos="288"/>
        </pattern>
        <pattern muted="0" name="" steps="16" type="1" pos="28800">
          <note len="48" key="25" pan="0" vol="200" pos="0"/>
          <note len="24" key="13" pan="0" vol="200" pos="48"/>
          <note len="12" key="13" pan="0" vol="200" pos="72"/>
          <note len="12" key="13" pan="0" vol="200" pos="84"/>
          <note len="12" key="13" pan="0" vol="200" pos="96"/>
          <note len="12" key="13" pan="0" vol="200" pos="108"/>
          <note len="24" key="13" pan="0" vol="200" pos="120"/>
          <note len="12" key="13" pan="0" vol="200" pos="144"/>
          <note len="12" key="13" pan="0" vol="200" pos="156"/>
          <note len="12" key="13" pan="0" vol="200" pos="168"/>
          <note len="12" key="13" pan="0" vol="200" pos="180"/>
          <note len="24" key="13" pan="0" vol="200" pos="192"/>
          <note len="12" key="13" pan="0" vol="200" pos="216"/>
          <note len="12" key="13" pan="0" vol="200" pos="228"/>
          <note len="12" key="13" pan="0" vol="200" pos="240"/>
          <note len="12" key="13" pan="0" vol="200" pos="252"/>
          <note len="24" key="13" pan="0" vol="200" pos="264"/>
          <note len="12" key="13" pan="0" vol="200" pos="288"/>
          <note len="12" key="13" pan="0" vol="200" pos="300"/>
          <note len="24" key="13" pan="0" vol="200" pos="312"/>
          <note len="12" key="13" pan="0" vol="200" pos="336"/>
          <note len="12" key="13" pan="0" vol="200" pos="348"/>
          <note len="12" key="13" pan="0" vol="200" pos="360"/>
          <note len="12" key="13" pan="0" vol="200" pos="372"/>
          <note len="48" key="13" pan="0" vol="200" pos="384"/>
          <note len="24" key="13" pan="0" vol="200" pos="432"/>
          <note len="12" key="13" pan="0" vol="200" pos="456"/>
          <note len="12" key="13" pan="0" vol="200" pos="468"/>
          <note len="12" key="13" pan="0" vol="200" pos="480"/>
          <note len="12" key="13" pan="0" vol="200" pos="492"/>
          <note len="24" key="13" pan="0" vol="200" pos="504"/>
          <note len="12" key="13" pan="0" vol="200" pos="528"/>
          <note len="12" key="13" pan="0" vol="200" pos="540"/>
          <note len="12" key="13" pan="0" vol="200" pos="552"/>
          <note len="12" key="13" pan="0" vol="200" pos="564"/>
          <note len="24" key="13" pan="0" vol="200" pos="576"/>
          <note len="12" key="13" pan="0" vol="200" pos="600"/>
          <note len="12" key="13" pan="0" vol="200" pos="612"/>
          <note len="12" key="13" pan="0" vol="200" pos="624"/>
          <note len="12" key="13" pan="0" vol="200" pos="636"/>
          <note len="24" key="13" pan="0" vol="200" pos="648"/>
          <note len="12" key="13" pan="0" vol="200" pos="672"/>
          <note len="12" key="13" pan="0" vol="200" pos="684"/>
          <note len="24" key="16" pan="0" vol="200" pos="696"/>
          <note len="24" key="18" pan="0" vol="200" pos="720"/>
          <note len="24" key="20" pan="0" vol="200" pos="744"/>
        </pattern>
        <pattern muted="0" name="" steps="16" type="1" pos="29568">
          <note len="48" key="25" pan="0" vol="200" pos="0"/>
          <note len="24" key="13" pan="0" vol="200" pos="48"/>
          <note len="12" key="13" pan="0" vol="200" pos="72"/>
          <note len="12" key="13" pan="0" vol="200" pos="84"/>
          <note len="12" key="13" pan="0" vol="200" pos="96"/>
          <note len="12" key="13" pan="0" vol="200" pos="108"/>
          <note len="24" key="13" pan="0" vol="200" pos="120"/>
          <note len="12" key="13" pan="0" vol="200" pos="144"/>
          <note len="12" key="13" pan="0" vol="200" pos="156"/>
          <note len="12" key="13" pan="0" vol="200" pos="168"/>
          <note len="12" key="13" pan="0" vol="200" pos="180"/>
          <note len="24" key="13" pan="0" vol="200" pos="192"/>
          <note len="12" key="13" pan="0" vol="200" pos="216"/>
          <note len="12" key="13" pan="0" vol="200" pos="228"/>
          <note len="12" key="13" pan="0" vol="200" pos="240"/>
          <note len="12" key="13" pan="0" vol="200" pos="252"/>
          <note len="24" key="13" pan="0" vol="200" pos="264"/>
          <note len="12" key="13" pan="0" vol="200" pos="288"/>
          <note len="12" key="13" pan="0" vol="200" pos="300"/>
          <note len="24" key="13" pan="0" vol="200" pos="312"/>
          <note len="12" key="13" pan="0" vol="200" pos="336"/>
          <note len="12" key="13" pan="0" vol="200" pos="348"/>
          <note len="12" key="13" pan="0" vol="200" pos="360"/>
          <note len="12" key="13" pan="0" vol="200" pos="372"/>
          <note len="48" key="13" pan="0" vol="200" pos="384"/>
          <note len="24" key="13" pan="0" vol="200" pos="432"/>
          <note len="12" key="13" pan="0" vol="200" pos="456"/>
          <note len="12" key="13" pan="0" vol="200" pos="468"/>
          <note len="12" key="13" pan="0" vol="200" pos="480"/>
          <note len="12" key="13" pan="0" vol="200" pos="492"/>
          <note len="24" key="13" pan="0" vol="200" pos="504"/>
          <note len="12" key="13" pan="0" vol="200" pos="528"/>
          <note len="12" key="13" pan="0" vol="200" pos="540"/>
          <note len="12" key="13" pan="0" vol="200" pos="552"/>
          <note len="12" key="13" pan="0" vol="200" pos="564"/>
          <note len="24" key="13" pan="0" vol="200" pos="576"/>
          <note len="12" key="13" pan="0" vol="200" pos="600"/>
          <note len="12" key="13" pan="0" vol="200" pos="612"/>
          <note len="12" key="13" pan="0" vol="200" pos="624"/>
          <note len="12" key="13" pan="0" vol="200" pos="636"/>
          <note len="24" key="13" pan="0" vol="200" pos="648"/>
          <note len="12" key="13" pan="0" vol="200" pos="672"/>
          <note len="12" key="13" pan="0" vol="200" pos="684"/>
          <note len="24" key="16" pan="0" vol="200" pos="696"/>
          <note len="24" key="18" pan="0" vol="200" pos="720"/>
          <note len="24" key="20" pan="0" vol="200" pos="744"/>
        </pattern>
        <pattern muted="0" name="" steps="16" type="1" pos="30336">
          <note len="48" key="26" pan="0" vol="200" pos="0"/>
          <note len="24" key="0" pan="0" vol="200" pos="0"/>
          <note len="24" key="14" pan="0" vol="200" pos="48"/>
          <note len="24" key="1" pan="0" vol="200" pos="60"/>
          <note len="12" key="14" pan="0" vol="200" pos="72"/>
          <note len="12" key="14" pan="0" vol="200" pos="84"/>
          <note len="12" key="14" pan="0" vol="200" pos="96"/>
          <note len="12" key="14" pan="0" vol="200" pos="108"/>
          <note len="24" key="14" pan="0" vol="200" pos="120"/>
          <note len="24" key="0" pan="0" vol="200" pos="120"/>
          <note len="24" key="1" pan="0" vol="200" pos="132"/>
          <note len="12" key="14" pan="0" vol="200" pos="144"/>
          <note len="12" key="14" pan="0" vol="200" pos="156"/>
          <note len="12" key="14" pan="0" vol="200" pos="168"/>
          <note len="12" key="14" pan="0" vol="200" pos="180"/>
          <note len="24" key="14" pan="0" vol="200" pos="192"/>
          <note len="24" key="0" pan="0" vol="200" pos="192"/>
          <note len="24" key="1" pan="0" vol="200" pos="204"/>
          <note len="12" key="14" pan="0" vol="200" pos="216"/>
          <note len="12" key="14" pan="0" vol="200" pos="228"/>
          <note len="12" key="14" pan="0" vol="200" pos="240"/>
          <note len="12" key="14" pan="0" vol="200" pos="252"/>
          <note len="24" key="14" pan="0" vol="200" pos="264"/>
          <note len="24" key="0" pan="0" vol="200" pos="264"/>
          <note len="24" key="1" pan="0" vol="200" pos="276"/>
          <note len="12" key="14" pan="0" vol="200" pos="288"/>
          <note len="12" key="14" pan="0" vol="200" pos="300"/>
          <note len="24" key="14" pan="0" vol="200" pos="312"/>
          <note len="24" key="0" pan="0" vol="200" pos="312"/>
          <note len="24" key="1" pan="0" vol="200" pos="324"/>
          <note len="12" key="14" pan="0" vol="200" pos="336"/>
          <note len="12" key="14" pan="0" vol="200" pos="348"/>
          <note len="12" key="14" pan="0" vol="200" pos="360"/>
          <note len="12" key="14" pan="0" vol="200" pos="372"/>
          <note len="48" key="14" pan="0" vol="200" pos="384"/>
          <note len="24" key="0" pan="0" vol="200" pos="384"/>
          <note len="24" key="14" pan="0" vol="200" pos="432"/>
          <note len="24" key="1" pan="0" vol="200" pos="444"/>
          <note len="12" key="14" pan="0" vol="200" pos="456"/>
          <note len="12" key="14" pan="0" vol="200" pos="468"/>
          <note len="12" key="14" pan="0" vol="200" pos="480"/>
          <note len="12" key="14" pan="0" vol="200" pos="492"/>
          <note len="24" key="14" pan="0" vol="200" pos="504"/>
          <note len="24" key="0" pan="0" vol="200" pos="504"/>
          <note len="24" key="1" pan="0" vol="200" pos="516"/>
          <note len="12" key="14" pan="0" vol="200" pos="528"/>
          <note len="12" key="14" pan="0" vol="200" pos="540"/>
          <note len="12" key="14" pan="0" vol="200" pos="552"/>
          <note len="12" key="14" pan="0" vol="200" pos="564"/>
          <note len="24" key="14" pan="0" vol="200" pos="576"/>
          <note len="24" key="0" pan="0" vol="200" pos="576"/>
          <note len="24" key="1" pan="0" vol="200" pos="588"/>
          <note len="12" key="14" pan="0" vol="200" pos="600"/>
          <note len="12" key="14" pan="0" vol="200" pos="612"/>
          <note len="12" key="14" pan="0" vol="200" pos="624"/>
          <note len="12" key="14" pan="0" vol="200" pos="636"/>
          <note len="24" key="14" pan="0" vol="200" pos="648"/>
          <note len="24" key="0" pan="0" vol="200" pos="648"/>
          <note len="24" key="1" pan="0" vol="200" pos="660"/>
          <note len="12" key="14" pan="0" vol="200" pos="672"/>
          <note len="12" key="14" pan="0" vol="200" pos="684"/>
          <note len="24" key="21" pan="0" vol="200" pos="696"/>
          <note len="24" key="20" pan="0" vol="200" pos="720"/>
          <note len="24" key="16" pan="0" vol="200" pos="744"/>
        </pattern>
        <pattern muted="0" name="" steps="16" type="1" pos="31104">
          <note len="48" key="25" pan="0" vol="200" pos="0"/>
          <note len="24" key="13" pan="0" vol="200" pos="48"/>
          <note len="12" key="13" pan="0" vol="200" pos="72"/>
          <note len="12" key="13" pan="0" vol="200" pos="84"/>
          <note len="12" key="13" pan="0" vol="200" pos="96"/>
          <note len="12" key="13" pan="0" vol="200" pos="108"/>
          <note len="24" key="13" pan="0" vol="200" pos="120"/>
          <note len="12" key="13" pan="0" vol="200" pos="144"/>
          <note len="12" key="13" pan="0" vol="200" pos="156"/>
          <note len="12" key="13" pan="0" vol="200" pos="168"/>
          <note len="12" key="13" pan="0" vol="200" pos="180"/>
          <note len="24" key="13" pan="0" vol="200" pos="192"/>
          <note len="12" key="13" pan="0" vol="200" pos="216"/>
          <note len="12" key="13" pan="0" vol="200" pos="228"/>
          <note len="12" key="13" pan="0" vol="200" pos="240"/>
          <note len="12" key="13" pan="0" vol="200" pos="252"/>
          <note len="24" key="13" pan="0" vol="200" pos="264"/>
          <note len="12" key="13" pan="0" vol="200" pos="288"/>
          <note len="12" key="13" pan="0" vol="200" pos="300"/>
          <note len="24" key="13" pan="0" vol="200" pos="312"/>
          <note len="12" key="13" pan="0" vol="200" pos="336"/>
          <note len="12" key="13" pan="0" vol="200" pos="348"/>
          <note len="12" key="13" pan="0" vol="200" pos="360"/>
          <note len="12" key="13" pan="0" vol="200" pos="372"/>
          <note len="48" key="11" pan="0" vol="200" pos="384"/>
          <note len="24" key="11" pan="0" vol="200" pos="432"/>
          <note len="12" key="11" pan="0" vol="200" pos="456"/>
          <note len="12" key="11" pan="0" vol="200" pos="468"/>
          <note len="12" key="11" pan="0" vol="200" pos="480"/>
          <note len="12" key="11" pan="0" vol="200" pos="492"/>
          <note len="24" key="11" pan="0" vol="200" pos="504"/>
          <note len="12" key="11" pan="0" vol="200" pos="528"/>
          <note len="12" key="11" pan="0" vol="200" pos="540"/>
          <note len="12" key="11" pan="0" vol="200" pos="552"/>
          <note len="12" key="11" pan="0" vol="200" pos="564"/>
          <note len="24" key="11" pan="0" vol="200" pos="576"/>
          <note len="12" key="11" pan="0" vol="200" pos="600"/>
          <note len="12" key="11" pan="0" vol="200" pos="612"/>
          <note len="12" key="11" pan="0" vol="200" pos="624"/>
          <note len="12" key="11" pan="0" vol="200" pos="636"/>
          <note len="24" key="11" pan="0" vol="200" pos="648"/>
          <note len="12" key="11" pan="0" vol="200" pos="672"/>
          <note len="12" key="11" pan="0" vol="200" pos="684"/>
          <note len="24" key="15" pan="0" vol="200" pos="696"/>
          <note len="24" key="16" pan="0" vol="200" pos="720"/>
          <note len="24" key="18" pan="0" vol="200" pos="744"/>
        </pattern>
        <pattern muted="0" name="" steps="16" type="1" pos="31872">
          <note len="48" key="9" pan="0" vol="200" pos="0"/>
          <note len="24" key="9" pan="0" vol="200" pos="48"/>
          <note len="12" key="9" pan="0" vol="200" pos="72"/>
          <note len="12" key="9" pan="0" vol="200" pos="84"/>
          <note len="12" key="9" pan="0" vol="200" pos="96"/>
          <note len="12" key="9" pan="0" vol="200" pos="108"/>
          <note len="24" key="9" pan="0" vol="200" pos="120"/>
          <note len="12" key="9" pan="0" vol="200" pos="144"/>
          <note len="12" key="9" pan="0" vol="200" pos="156"/>
          <note len="12" key="9" pan="0" vol="200" pos="168"/>
          <note len="12" key="9" pan="0" vol="200" pos="180"/>
          <note len="24" key="9" pan="0" vol="200" pos="192"/>
          <note len="12" key="9" pan="0" vol="200" pos="216"/>
          <note len="12" key="9" pan="0" vol="200" pos="228"/>
          <note len="12" key="9" pan="0" vol="200" pos="240"/>
          <note len="12" key="9" pan="0" vol="200" pos="252"/>
          <note len="24" key="9" pan="0" vol="200" pos="264"/>
          <note len="12" key="9" pan="0" vol="200" pos="288"/>
          <note len="12" key="9" pan="0" vol="200" pos="300"/>
          <note len="24" key="9" pan="0" vol="200" pos="312"/>
          <note len="12" key="9" pan="0" vol="200" pos="336"/>
          <note len="12" key="9" pan="0" vol="200" pos="348"/>
          <note len="12" key="9" pan="0" vol="200" pos="360"/>
          <note len="12" key="9" pan="0" vol="200" pos="372"/>
          <note len="48" key="11" pan="0" vol="200" pos="384"/>
          <note len="24" key="11" pan="0" vol="200" pos="432"/>
          <note len="12" key="11" pan="0" vol="200" pos="456"/>
          <note len="12" key="11" pan="0" vol="200" pos="468"/>
          <note len="12" key="11" pan="0" vol="200" pos="480"/>
          <note len="12" key="11" pan="0" vol="200" pos="492"/>
          <note len="24" key="11" pan="0" vol="200" pos="504"/>
          <note len="12" key="11" pan="0" vol="200" pos="528"/>
          <note len="12" key="11" pan="0" vol="200" pos="540"/>
          <note len="12" key="11" pan="0" vol="200" pos="552"/>
          <note len="12" key="11" pan="0" vol="200" pos="564"/>
          <note len="24" key="11" pan="0" vol="200" pos="576"/>
          <note len="12" key="11" pan="0" vol="200" pos="600"/>
          <note len="12" key="11" pan="0" vol="200" pos="612"/>
          <note len="12" key="11" pan="0" vol="200" pos="624"/>
          <note len="12" key="11" pan="0" vol="200" pos="636"/>
          <note len="24" key="11" pan="0" vol="200" pos="648"/>
          <note len="12" key="11" pan="0" vol="200" pos="672"/>
          <note len="12" key="11" pan="0" vol="200" pos="684"/>
          <note len="24" key="11" pan="0" vol="200" pos="696"/>
          <note len="12" key="11" pan="0" vol="200" pos="720"/>
          <note len="12" key="11" pan="0" vol="200" pos="732"/>
          <note len="12" key="11" pan="0" vol="200" pos="744"/>
          <note len="12" key="11" pan="0" vol="200" pos="756"/>
        </pattern>
        <pattern muted="0" name="" steps="16" type="1" pos="32640">
          <note len="48" key="18" pan="0" vol="200" pos="0"/>
          <note len="24" key="18" pan="0" vol="200" pos="48"/>
          <note len="12" key="18" pan="0" vol="200" pos="72"/>
          <note len="12" key="18" pan="0" vol="200" pos="84"/>
          <note len="12" key="18" pan="0" vol="200" pos="96"/>
          <note len="12" key="18" pan="0" vol="200" pos="108"/>
          <note len="24" key="18" pan="0" vol="200" pos="120"/>
          <note len="12" key="18" pan="0" vol="200" pos="144"/>
          <note len="12" key="18" pan="0" vol="200" pos="156"/>
          <note len="12" key="18" pan="0" vol="200" pos="168"/>
          <note len="12" key="18" pan="0" vol="200" pos="180"/>
          <note len="24" key="18" pan="0" vol="200" pos="192"/>
          <note len="12" key="18" pan="0" vol="200" pos="216"/>
          <note len="12" key="18" pan="0" vol="200" pos="228"/>
          <note len="12" key="18" pan="0" vol="200" pos="240"/>
          <note len="12" key="18" pan="0" vol="200" pos="252"/>
          <note len="24" key="18" pan="0" vol="200" pos="264"/>
          <note len="12" key="18" pan="0" vol="200" pos="288"/>
          <note len="12" key="18" pan="0" vol="200" pos="300"/>
          <note len="24" key="18" pan="0" vol="200" pos="312"/>
          <note len="12" key="18" pan="0" vol="200" pos="336"/>
          <note len="12" key="18" pan="0" vol="200" pos="348"/>
          <note len="12" key="18" pan="0" vol="200" pos="360"/>
          <note len="12" key="18" pan="0" vol="200" pos="372"/>
          <note len="48" key="8" pan="0" vol="200" pos="384"/>
          <note len="24" key="8" pan="0" vol="200" pos="432"/>
          <note len="12" key="8" pan="0" vol="200" pos="456"/>
          <note len="12" key="8" pan="0" vol="200" pos="468"/>
          <note len="12" key="8" pan="0" vol="200" pos="480"/>
          <note len="12" key="8" pan="0" vol="200" pos="492"/>
          <note len="24" key="8" pan="0" vol="200" pos="504"/>
          <note len="12" key="8" pan="0" vol="200" pos="528"/>
          <note len="12" key="8" pan="0" vol="200" pos="540"/>
          <note len="12" key="8" pan="0" vol="200" pos="552"/>
          <note len="12" key="8" pan="0" vol="200" pos="564"/>
          <note len="24" key="8" pan="0" vol="200" pos="576"/>
          <note len="12" key="8" pan="0" vol="200" pos="600"/>
          <note len="12" key="8" pan="0" vol="200" pos="612"/>
          <note len="12" key="8" pan="0" vol="200" pos="624"/>
          <note len="12" key="8" pan="0" vol="200" pos="636"/>
          <note len="24" key="8" pan="0" vol="200" pos="648"/>
          <note len="12" key="8" pan="0" vol="200" pos="672"/>
          <note len="12" key="8" pan="0" vol="200" pos="684"/>
          <note len="24" key="8" pan="0" vol="200" pos="696"/>
          <note len="12" key="8" pan="0" vol="200" pos="720"/>
          <note len="12" key="8" pan="0" vol="200" pos="732"/>
          <note len="12" key="8" pan="0" vol="200" pos="744"/>
          <note len="12" key="8" pan="0" vol="200" pos="756"/>
        </pattern>
        <pattern muted="0" name="" steps="16" type="1" pos="33408">
          <note len="48" key="15" pan="0" vol="200" pos="0"/>
          <note len="24" key="15" pan="0" vol="200" pos="48"/>
          <note len="12" key="15" pan="0" vol="200" pos="72"/>
          <note len="12" key="15" pan="0" vol="200" pos="84"/>
          <note len="12" key="15" pan="0" vol="200" pos="96"/>
          <note len="12" key="15" pan="0" vol="200" pos="108"/>
          <note len="24" key="15" pan="0" vol="200" pos="120"/>
          <note len="12" key="15" pan="0" vol="200" pos="144"/>
          <note len="12" key="15" pan="0" vol="200" pos="156"/>
          <note len="12" key="15" pan="0" vol="200" pos="168"/>
          <note len="12" key="15" pan="0" vol="200" pos="180"/>
          <note len="24" key="15" pan="0" vol="200" pos="192"/>
          <note len="12" key="15" pan="0" vol="200" pos="216"/>
          <note len="12" key="15" pan="0" vol="200" pos="228"/>
          <note len="12" key="15" pan="0" vol="200" pos="240"/>
          <note len="12" key="15" pan="0" vol="200" pos="252"/>
          <note len="24" key="15" pan="0" vol="200" pos="264"/>
          <note len="12" key="15" pan="0" vol="200" pos="288"/>
          <note len="12" key="15" pan="0" vol="200" pos="300"/>
          <note len="24" key="15" pan="0" vol="200" pos="312"/>
          <note len="12" key="15" pan="0" vol="200" pos="336"/>
          <note len="12" key="15" pan="0" vol="200" pos="348"/>
          <note len="12" key="15" pan="0" vol="200" pos="360"/>
          <note len="12" key="15" pan="0" vol="200" pos="372"/>
          <note len="48" key="14" pan="0" vol="200" pos="384"/>
          <note len="24" key="14" pan="0" vol="200" pos="432"/>
          <note len="12" key="14" pan="0" vol="200" pos="456"/>
          <note len="12" key="14" pan="0" vol="200" pos="468"/>
          <note len="12" key="14" pan="0" vol="200" pos="480"/>
          <note len="12" key="14" pan="0" vol="200" pos="492"/>
          <note len="24" key="14" pan="0" vol="200" pos="504"/>
          <note len="12" key="14" pan="0" vol="200" pos="528"/>
          <note len="12" key="14" pan="0" vol="200" pos="540"/>
          <note len="12" key="14" pan="0" vol="200" pos="552"/>
          <note len="12" key="14" pan="0" vol="200" pos="564"/>
          <note len="24" key="14" pan="0" vol="200" pos="576"/>
          <note len="12" key="14" pan="0" vol="200" pos="600"/>
          <note len="12" key="14" pan="0" vol="200" pos="612"/>
          <note len="12" key="14" pan="0" vol="200" pos="624"/>
          <note len="12" key="14" pan="0" vol="200" pos="636"/>
          <note len="24" key="14" pan="0" vol="200" pos="648"/>
          <note len="12" key="14" pan="0" vol="200" pos="672"/>
          <note len="12" key="14" pan="0" vol="200" pos="684"/>
          <note len="24" key="14" pan="0" vol="200" pos="696"/>
          <note len="12" key="14" pan="0" vol="200" pos="720"/>
          <note len="12" key="14" pan="0" vol="200" pos="732"/>
          <note len="12" key="14" pan="0" vol="200" pos="744"/>
          <note len="12" key="14" pan="0" vol="200" pos="756"/>
        </pattern>
        <pattern muted="0" name="" steps="16" type="1" pos="34176">
          <note len="48" key="19" pan="0" vol="200" pos="0"/>
          <note len="24" key="0" pan="0" vol="200" pos="0"/>
          <note len="24" key="19" pan="0" vol="200" pos="48"/>
          <note len="24" key="1" pan="0" vol="200" pos="60"/>
          <note len="12" key="19" pan="0" vol="200" pos="72"/>
          <note len="12" key="19" pan="0" vol="200" pos="84"/>
          <note len="12" key="19" pan="0" vol="200" pos="96"/>
          <note len="12" key="19" pan="0" vol="200" pos="108"/>
          <note len="24" key="19" pan="0" vol="200" pos="120"/>
          <note len="24" key="0" pan="0" vol="200" pos="120"/>
          <note len="24" key="1" pan="0" vol="200" pos="132"/>
          <note len="12" key="19" pan="0" vol="200" pos="144"/>
          <note len="12" key="19" pan="0" vol="200" pos="156"/>
          <note len="12" key="19" pan="0" vol="200" pos="168"/>
          <note len="12" key="19" pan="0" vol="200" pos="180"/>
          <note len="24" key="19" pan="0" vol="200" pos="192"/>
          <note len="24" key="0" pan="0" vol="200" pos="192"/>
          <note len="24" key="1" pan="0" vol="200" pos="204"/>
          <note len="12" key="19" pan="0" vol="200" pos="216"/>
          <note len="12" key="19" pan="0" vol="200" pos="228"/>
          <note len="12" key="19" pan="0" vol="200" pos="240"/>
          <note len="12" key="19" pan="0" vol="200" pos="252"/>
          <note len="24" key="19" pan="0" vol="200" pos="264"/>
          <note len="24" key="0" pan="0" vol="200" pos="264"/>
          <note len="24" key="1" pan="0" vol="200" pos="276"/>
          <note len="12" key="19" pan="0" vol="200" pos="288"/>
          <note len="12" key="19" pan="0" vol="200" pos="300"/>
          <note len="24" key="19" pan="0" vol="200" pos="312"/>
          <note len="24" key="0" pan="0" vol="200" pos="312"/>
          <note len="24" key="1" pan="0" vol="200" pos="324"/>
          <note len="12" key="19" pan="0" vol="200" pos="336"/>
          <note len="12" key="19" pan="0" vol="200" pos="348"/>
          <note len="12" key="19" pan="0" vol="200" pos="360"/>
          <note len="12" key="19" pan="0" vol="200" pos="372"/>
          <note len="48" key="20" pan="0" vol="200" pos="384"/>
          <note len="24" key="0" pan="0" vol="200" pos="384"/>
          <note len="24" key="8" pan="0" vol="200" pos="432"/>
          <note len="24" key="1" pan="0" vol="200" pos="444"/>
          <note len="12" key="8" pan="0" vol="200" pos="456"/>
          <note len="12" key="8" pan="0" vol="200" pos="468"/>
          <note len="12" key="8" pan="0" vol="200" pos="480"/>
          <note len="12" key="8" pan="0" vol="200" pos="492"/>
          <note len="24" key="8" pan="0" vol="200" pos="504"/>
          <note len="24" key="0" pan="0" vol="200" pos="504"/>
          <note len="24" key="1" pan="0" vol="200" pos="516"/>
          <note len="12" key="8" pan="0" vol="200" pos="528"/>
          <note len="12" key="8" pan="0" vol="200" pos="540"/>
          <note len="12" key="8" pan="0" vol="200" pos="552"/>
          <note len="12" key="8" pan="0" vol="200" pos="564"/>
          <note len="192" key="8" pan="0" vol="200" pos="576"/>
          <note len="24" key="0" pan="0" vol="200" pos="576"/>
        </pattern>
        <pattern muted="0" name="" steps="16" type="1" pos="34944">
          <note len="192" key="13" pan="0" vol="197" pos="0"/>
          <note len="48" key="0" pan="0" vol="78" pos="0"/>
          <note len="192" key="20" pan="0" vol="197" pos="192"/>
          <note len="192" key="21" pan="0" vol="197" pos="384"/>
          <note len="192" key="23" pan="0" vol="197" pos="576"/>
          <note len="12" key="1" pan="0" vol="197" pos="756"/>
          <note len="12" key="18" pan="0" vol="197" pos="768"/>
          <note len="12" key="18" pan="0" vol="197" pos="780"/>
          <note len="12" key="18" pan="0" vol="197" pos="792"/>
          <note len="12" key="18" pan="0" vol="197" pos="804"/>
          <note len="12" key="18" pan="0" vol="197" pos="816"/>
          <note len="12" key="18" pan="0" vol="197" pos="828"/>
          <note len="12" key="18" pan="0" vol="197" pos="840"/>
          <note len="12" key="18" pan="0" vol="197" pos="852"/>
          <note len="12" key="18" pan="0" vol="197" pos="864"/>
          <note len="12" key="18" pan="0" vol="197" pos="876"/>
          <note len="12" key="18" pan="0" vol="197" pos="888"/>
          <note len="12" key="18" pan="0" vol="197" pos="900"/>
          <note len="12" key="18" pan="0" vol="197" pos="912"/>
          <note len="12" key="18" pan="0" vol="197" pos="924"/>
          <note len="12" key="18" pan="0" vol="197" pos="936"/>
          <note len="12" key="18" pan="0" vol="197" pos="948"/>
          <note len="12" key="20" pan="0" vol="197" pos="960"/>
          <note len="12" key="20" pan="0" vol="197" pos="972"/>
          <note len="12" key="20" pan="0" vol="197" pos="984"/>
          <note len="12" key="20" pan="0" vol="197" pos="996"/>
          <note len="12" key="20" pan="0" vol="197" pos="1008"/>
          <note len="12" key="20" pan="0" vol="197" pos="1020"/>
          <note len="12" key="20" pan="0" vol="197" pos="1032"/>
          <note len="12" key="20" pan="0" vol="197" pos="1044"/>
          <note len="12" key="20" pan="0" vol="197" pos="1056"/>
          <note len="12" key="20" pan="0" vol="197" pos="1068"/>
          <note len="12" key="20" pan="0" vol="197" pos="1080"/>
          <note len="12" key="20" pan="0" vol="197" pos="1092"/>
          <note len="12" key="20" pan="0" vol="197" pos="1104"/>
          <note len="12" key="20" pan="0" vol="197" pos="1116"/>
          <note len="12" key="20" pan="0" vol="197" pos="1128"/>
          <note len="12" key="20" pan="0" vol="197" pos="1140"/>
          <note len="12" key="21" pan="0" vol="197" pos="1152"/>
          <note len="12" key="21" pan="0" vol="197" pos="1164"/>
          <note len="12" key="21" pan="0" vol="197" pos="1176"/>
          <note len="12" key="21" pan="0" vol="197" pos="1188"/>
          <note len="12" key="21" pan="0" vol="197" pos="1200"/>
          <note len="12" key="21" pan="0" vol="197" pos="1212"/>
          <note len="12" key="21" pan="0" vol="197" pos="1224"/>
          <note len="12" key="21" pan="0" vol="197" pos="1236"/>
          <note len="12" key="21" pan="0" vol="197" pos="1248"/>
          <note len="12" key="21" pan="0" vol="197" pos="1260"/>
          <note len="12" key="21" pan="0" vol="197" pos="1272"/>
          <note len="12" key="21" pan="0" vol="197" pos="1284"/>
          <note len="12" key="21" pan="0" vol="197" pos="1296"/>
          <note len="12" key="21" pan="0" vol="197" pos="1308"/>
          <note len="12" key="21" pan="0" vol="197" pos="1320"/>
          <note len="12" key="21" pan="0" vol="197" pos="1332"/>
          <note len="48" key="23" pan="0" vol="197" pos="1344"/>
          <note len="12" key="0" pan="0" vol="197" pos="1344"/>
          <note len="48" key="23" pan="0" vol="197" pos="1392"/>
          <note len="48" key="20" pan="0" vol="197" pos="1440"/>
          <note len="48" key="23" pan="0" vol="197" pos="1488"/>
        </pattern>
        <pattern muted="0" name="" steps="16" type="1" pos="12672">
          <note len="36" key="13" pan="0" vol="200" pos="0"/>
        </pattern>
        <pattern muted="0" name="" steps="16" type="1" pos="37632">
          <note len="24" key="20" pan="0" vol="195" pos="0"/>
          <note len="24" key="23" pan="0" vol="195" pos="24"/>
          <note len="24" key="20" pan="0" vol="195" pos="48"/>
          <note len="48" key="27" pan="0" vol="195" pos="72"/>
          <note len="24" key="20" pan="0" vol="195" pos="120"/>
          <note len="24" key="23" pan="0" vol="195" pos="144"/>
          <note len="24" key="27" pan="0" vol="195" pos="168"/>
          <note len="12" key="21" pan="0" vol="195" pos="192"/>
          <note len="12" key="21" pan="0" vol="195" pos="204"/>
          <note len="12" key="21" pan="0" vol="195" pos="216"/>
          <note len="12" key="21" pan="0" vol="195" pos="228"/>
          <note len="12" key="21" pan="0" vol="195" pos="240"/>
          <note len="12" key="21" pan="0" vol="195" pos="252"/>
          <note len="12" key="25" pan="0" vol="195" pos="264"/>
          <note len="12" key="25" pan="0" vol="195" pos="276"/>
          <note len="12" key="23" pan="0" vol="195" pos="288"/>
          <note len="12" key="23" pan="0" vol="195" pos="300"/>
          <note len="12" key="23" pan="0" vol="195" pos="312"/>
          <note len="12" key="23" pan="0" vol="195" pos="324"/>
          <note len="12" key="27" pan="0" vol="195" pos="336"/>
          <note len="12" key="27" pan="0" vol="195" pos="348"/>
          <note len="12" key="23" pan="0" vol="195" pos="360"/>
          <note len="12" key="23" pan="0" vol="195" pos="372"/>
        </pattern>
        <pattern muted="0" name="" steps="16" type="1" pos="37440">
          <note len="24" key="18" pan="0" vol="197" pos="0"/>
          <note len="24" key="16" pan="0" vol="197" pos="24"/>
          <note len="24" key="18" pan="0" vol="197" pos="48"/>
          <note len="24" key="25" pan="0" vol="197" pos="72"/>
          <note len="12" key="18" pan="0" vol="197" pos="96"/>
          <note len="12" key="18" pan="0" vol="197" pos="108"/>
          <note len="12" key="18" pan="0" vol="197" pos="120"/>
          <note len="12" key="18" pan="0" vol="197" pos="132"/>
          <note len="12" key="18" pan="0" vol="197" pos="144"/>
          <note len="12" key="18" pan="0" vol="197" pos="156"/>
          <note len="12" key="18" pan="0" vol="197" pos="168"/>
          <note len="12" key="18" pan="0" vol="197" pos="180"/>
        </pattern>
        <pattern muted="0" name="" steps="16" type="1" pos="37248">
          <note len="24" key="25" pan="0" vol="197" pos="0"/>
          <note len="24" key="23" pan="0" vol="197" pos="24"/>
          <note len="24" key="25" pan="0" vol="197" pos="48"/>
          <note len="24" key="32" pan="0" vol="197" pos="72"/>
          <note len="12" key="25" pan="0" vol="197" pos="96"/>
          <note len="12" key="25" pan="0" vol="197" pos="108"/>
          <note len="12" key="25" pan="0" vol="197" pos="120"/>
          <note len="12" key="25" pan="0" vol="197" pos="132"/>
          <note len="12" key="25" pan="0" vol="197" pos="144"/>
          <note len="12" key="25" pan="0" vol="197" pos="156"/>
          <note len="12" key="25" pan="0" vol="197" pos="168"/>
          <note len="12" key="25" pan="0" vol="197" pos="180"/>
        </pattern>
        <pattern muted="0" name="" steps="16" type="1" pos="36480">
          <note len="24" key="25" pan="0" vol="197" pos="0"/>
          <note len="24" key="23" pan="0" vol="197" pos="24"/>
          <note len="24" key="25" pan="0" vol="197" pos="48"/>
          <note len="24" key="32" pan="0" vol="197" pos="72"/>
          <note len="12" key="25" pan="0" vol="197" pos="96"/>
          <note len="12" key="25" pan="0" vol="197" pos="108"/>
          <note len="12" key="25" pan="0" vol="197" pos="120"/>
          <note len="12" key="25" pan="0" vol="197" pos="132"/>
          <note len="12" key="25" pan="0" vol="197" pos="144"/>
          <note len="12" key="25" pan="0" vol="197" pos="156"/>
          <note len="12" key="25" pan="0" vol="197" pos="168"/>
          <note len="12" key="25" pan="0" vol="197" pos="180"/>
        </pattern>
        <pattern muted="0" name="" steps="16" type="1" pos="36672">
          <note len="24" key="18" pan="0" vol="197" pos="0"/>
          <note len="24" key="16" pan="0" vol="197" pos="24"/>
          <note len="24" key="18" pan="0" vol="197" pos="48"/>
          <note len="24" key="25" pan="0" vol="197" pos="72"/>
          <note len="12" key="18" pan="0" vol="197" pos="96"/>
          <note len="12" key="18" pan="0" vol="197" pos="108"/>
          <note len="12" key="18" pan="0" vol="197" pos="120"/>
          <note len="12" key="18" pan="0" vol="197" pos="132"/>
          <note len="12" key="18" pan="0" vol="197" pos="144"/>
          <note len="12" key="18" pan="0" vol="197" pos="156"/>
          <note len="12" key="18" pan="0" vol="197" pos="168"/>
          <note len="12" key="18" pan="0" vol="197" pos="180"/>
        </pattern>
        <pattern muted="0" name="" steps="16" type="1" pos="36864">
          <note len="24" key="20" pan="0" vol="195" pos="0"/>
          <note len="24" key="23" pan="0" vol="195" pos="24"/>
          <note len="24" key="20" pan="0" vol="195" pos="48"/>
          <note len="48" key="27" pan="0" vol="195" pos="72"/>
          <note len="24" key="20" pan="0" vol="195" pos="120"/>
          <note len="24" key="23" pan="0" vol="195" pos="144"/>
          <note len="24" key="27" pan="0" vol="195" pos="168"/>
          <note len="12" key="21" pan="0" vol="195" pos="192"/>
          <note len="12" key="21" pan="0" vol="195" pos="204"/>
          <note len="12" key="21" pan="0" vol="195" pos="216"/>
          <note len="12" key="21" pan="0" vol="195" pos="228"/>
          <note len="12" key="21" pan="0" vol="195" pos="240"/>
          <note len="12" key="21" pan="0" vol="195" pos="252"/>
          <note len="12" key="25" pan="0" vol="195" pos="264"/>
          <note len="12" key="25" pan="0" vol="195" pos="276"/>
          <note len="12" key="23" pan="0" vol="195" pos="288"/>
          <note len="12" key="23" pan="0" vol="195" pos="300"/>
          <note len="12" key="23" pan="0" vol="195" pos="312"/>
          <note len="12" key="23" pan="0" vol="195" pos="324"/>
          <note len="12" key="27" pan="0" vol="195" pos="336"/>
          <note len="12" key="27" pan="0" vol="195" pos="348"/>
          <note len="12" key="23" pan="0" vol="195" pos="360"/>
          <note len="12" key="23" pan="0" vol="195" pos="372"/>
        </pattern>
        <pattern muted="0" name="" steps="16" type="1" pos="38016">
          <note len="12" key="14" pan="0" vol="200" pos="0"/>
          <note len="12" key="14" pan="0" vol="200" pos="12"/>
          <note len="24" key="14" pan="0" vol="200" pos="24"/>
          <note len="12" key="14" pan="0" vol="200" pos="48"/>
          <note len="12" key="14" pan="0" vol="200" pos="60"/>
          <note len="24" key="14" pan="0" vol="200" pos="72"/>
          <note len="12" key="14" pan="0" vol="200" pos="96"/>
          <note len="12" key="14" pan="0" vol="200" pos="108"/>
          <note len="24" key="14" pan="0" vol="200" pos="120"/>
          <note len="12" key="14" pan="0" vol="200" pos="144"/>
          <note len="12" key="14" pan="0" vol="200" pos="156"/>
          <note len="24" key="14" pan="0" vol="200" pos="168"/>
          <note len="12" key="14" pan="0" vol="200" pos="192"/>
          <note len="12" key="14" pan="0" vol="200" pos="204"/>
          <note len="24" key="14" pan="0" vol="200" pos="216"/>
          <note len="12" key="14" pan="0" vol="200" pos="240"/>
          <note len="12" key="14" pan="0" vol="200" pos="252"/>
          <note len="24" key="14" pan="0" vol="200" pos="264"/>
          <note len="12" key="14" pan="0" vol="200" pos="288"/>
          <note len="12" key="14" pan="0" vol="200" pos="300"/>
          <note len="24" key="14" pan="0" vol="200" pos="312"/>
          <note len="12" key="14" pan="0" vol="200" pos="336"/>
          <note len="12" key="14" pan="0" vol="200" pos="348"/>
          <note len="24" key="14" pan="0" vol="200" pos="360"/>
          <note len="12" key="13" pan="0" vol="200" pos="384"/>
          <note len="12" key="13" pan="0" vol="200" pos="396"/>
          <note len="24" key="13" pan="0" vol="200" pos="408"/>
          <note len="12" key="13" pan="0" vol="200" pos="432"/>
          <note len="12" key="13" pan="0" vol="200" pos="444"/>
          <note len="24" key="13" pan="0" vol="200" pos="456"/>
          <note len="12" key="13" pan="0" vol="200" pos="480"/>
          <note len="12" key="13" pan="0" vol="200" pos="492"/>
          <note len="24" key="13" pan="0" vol="200" pos="504"/>
          <note len="12" key="13" pan="0" vol="200" pos="528"/>
          <note len="12" key="13" pan="0" vol="200" pos="540"/>
          <note len="24" key="13" pan="0" vol="200" pos="552"/>
          <note len="12" key="11" pan="0" vol="200" pos="576"/>
          <note len="12" key="11" pan="0" vol="200" pos="588"/>
          <note len="24" key="11" pan="0" vol="200" pos="600"/>
          <note len="12" key="11" pan="0" vol="200" pos="624"/>
          <note len="12" key="11" pan="0" vol="200" pos="636"/>
          <note len="24" key="11" pan="0" vol="200" pos="648"/>
          <note len="12" key="11" pan="0" vol="200" pos="672"/>
          <note len="12" key="11" pan="0" vol="200" pos="684"/>
          <note len="24" key="11" pan="0" vol="200" pos="696"/>
          <note len="12" key="11" pan="0" vol="200" pos="720"/>
          <note len="12" key="11" pan="0" vol="200" pos="732"/>
          <note len="24" key="11" pan="0" vol="200" pos="744"/>
        </pattern>
        <pattern muted="0" name="" steps="16" type="1" pos="39168">
          <note len="24" key="15" pan="0" vol="197" pos="0"/>
          <note len="12" key="15" pan="0" vol="197" pos="24"/>
          <note len="12" key="15" pan="0" vol="197" pos="36"/>
          <note len="12" key="15" pan="0" vol="197" pos="48"/>
          <note len="12" key="15" pan="0" vol="197" pos="60"/>
          <note len="12" key="15" pan="0" vol="197" pos="72"/>
          <note len="12" key="15" pan="0" vol="197" pos="84"/>
          <note len="12" key="15" pan="0" vol="197" pos="96"/>
          <note len="12" key="15" pan="0" vol="197" pos="108"/>
          <note len="12" key="15" pan="0" vol="197" pos="120"/>
          <note len="12" key="15" pan="0" vol="197" pos="132"/>
          <note len="12" key="15" pan="0" vol="197" pos="144"/>
          <note len="12" key="15" pan="0" vol="197" pos="156"/>
          <note len="12" key="15" pan="0" vol="197" pos="168"/>
          <note len="12" key="15" pan="0" vol="197" pos="180"/>
          <note len="96" key="21" pan="0" vol="197" pos="192"/>
          <note len="96" key="20" pan="0" vol="197" pos="288"/>
        </pattern>
        <pattern muted="0" name="" steps="16" type="1" pos="38784">
          <note len="24" key="16" pan="0" vol="197" pos="0"/>
          <note len="24" key="18" pan="0" vol="197" pos="24"/>
          <note len="12" key="18" pan="0" vol="197" pos="48"/>
          <note len="12" key="18" pan="0" vol="197" pos="60"/>
          <note len="24" key="23" pan="0" vol="197" pos="72"/>
          <note len="24" key="25" pan="0" vol="197" pos="96"/>
          <note len="24" key="18" pan="0" vol="197" pos="120"/>
          <note len="24" key="16" pan="0" vol="197" pos="144"/>
          <note len="24" key="18" pan="0" vol="197" pos="168"/>
        </pattern>
        <pattern muted="0" name="" steps="16" type="1" pos="38976">
          <note len="24" key="16" pan="0" vol="197" pos="0"/>
          <note len="24" key="18" pan="0" vol="197" pos="24"/>
          <note len="12" key="18" pan="0" vol="197" pos="48"/>
          <note len="12" key="18" pan="0" vol="197" pos="60"/>
          <note len="24" key="23" pan="0" vol="197" pos="72"/>
          <note len="24" key="25" pan="0" vol="197" pos="96"/>
          <note len="24" key="18" pan="0" vol="197" pos="120"/>
          <note len="24" key="16" pan="0" vol="197" pos="144"/>
          <note len="24" key="18" pan="0" vol="197" pos="168"/>
        </pattern>
        <pattern muted="0" name="" steps="16" type="1" pos="39552">
          <note len="48" key="13" pan="0" vol="195" pos="0"/>
          <note len="12" key="13" pan="0" vol="195" pos="48"/>
          <note len="12" key="13" pan="0" vol="195" pos="60"/>
          <note len="12" key="13" pan="0" vol="195" pos="72"/>
          <note len="12" key="13" pan="0" vol="195" pos="84"/>
          <note len="12" key="13" pan="0" vol="195" pos="96"/>
          <note len="12" key="13" pan="0" vol="195" pos="108"/>
          <note len="12" key="13" pan="0" vol="195" pos="120"/>
          <note len="12" key="13" pan="0" vol="195" pos="132"/>
          <note len="12" key="13" pan="0" vol="195" pos="144"/>
          <note len="12" key="13" pan="0" vol="195" pos="156"/>
          <note len="12" key="13" pan="0" vol="195" pos="168"/>
          <note len="12" key="13" pan="0" vol="195" pos="180"/>
          <note len="48" key="20" pan="0" vol="195" pos="192"/>
          <note len="12" key="20" pan="0" vol="195" pos="240"/>
          <note len="12" key="20" pan="0" vol="195" pos="252"/>
          <note len="12" key="20" pan="0" vol="195" pos="264"/>
          <note len="12" key="20" pan="0" vol="195" pos="276"/>
          <note len="12" key="20" pan="0" vol="195" pos="288"/>
          <note len="12" key="20" pan="0" vol="195" pos="300"/>
          <note len="12" key="20" pan="0" vol="195" pos="312"/>
          <note len="12" key="20" pan="0" vol="195" pos="324"/>
          <note len="12" key="20" pan="0" vol="195" pos="336"/>
          <note len="12" key="20" pan="0" vol="195" pos="348"/>
          <note len="12" key="20" pan="0" vol="195" pos="360"/>
          <note len="12" key="20" pan="0" vol="195" pos="372"/>
          <note len="48" key="21" pan="0" vol="195" pos="384"/>
          <note len="12" key="21" pan="0" vol="195" pos="432"/>
          <note len="12" key="21" pan="0" vol="195" pos="444"/>
          <note len="12" key="21" pan="0" vol="195" pos="456"/>
          <note len="12" key="21" pan="0" vol="195" pos="468"/>
          <note len="12" key="21" pan="0" vol="195" pos="480"/>
          <note len="12" key="21" pan="0" vol="195" pos="492"/>
          <note len="12" key="21" pan="0" vol="195" pos="504"/>
          <note len="12" key="21" pan="0" vol="195" pos="516"/>
          <note len="12" key="21" pan="0" vol="195" pos="528"/>
          <note len="12" key="21" pan="0" vol="195" pos="540"/>
          <note len="12" key="21" pan="0" vol="195" pos="552"/>
          <note len="12" key="21" pan="0" vol="195" pos="564"/>
          <note len="48" key="23" pan="0" vol="195" pos="576"/>
          <note len="12" key="23" pan="0" vol="195" pos="624"/>
          <note len="12" key="23" pan="0" vol="195" pos="636"/>
          <note len="12" key="23" pan="0" vol="195" pos="648"/>
          <note len="12" key="23" pan="0" vol="195" pos="660"/>
          <note len="12" key="23" pan="0" vol="195" pos="672"/>
          <note len="12" key="23" pan="0" vol="195" pos="684"/>
          <note len="12" key="23" pan="0" vol="195" pos="696"/>
          <note len="12" key="23" pan="0" vol="195" pos="708"/>
          <note len="12" key="23" pan="0" vol="195" pos="720"/>
          <note len="12" key="23" pan="0" vol="195" pos="732"/>
          <note len="12" key="23" pan="0" vol="195" pos="744"/>
          <note len="12" key="23" pan="0" vol="195" pos="756"/>
          <note len="48" key="18" pan="0" vol="195" pos="768"/>
          <note len="12" key="18" pan="0" vol="195" pos="816"/>
          <note len="12" key="18" pan="0" vol="195" pos="828"/>
          <note len="12" key="18" pan="0" vol="195" pos="840"/>
          <note len="12" key="18" pan="0" vol="195" pos="852"/>
          <note len="12" key="18" pan="0" vol="195" pos="864"/>
          <note len="12" key="18" pan="0" vol="195" pos="876"/>
          <note len="12" key="18" pan="0" vol="195" pos="888"/>
          <note len="12" key="18" pan="0" vol="195" pos="900"/>
          <note len="12" key="18" pan="0" vol="195" pos="912"/>
          <note len="12" key="18" pan="0" vol="195" pos="924"/>
          <note len="12" key="18" pan="0" vol="195" pos="936"/>
          <note len="12" key="18" pan="0" vol="195" pos="948"/>
          <note len="48" key="20" pan="0" vol="195" pos="960"/>
          <note len="12" key="20" pan="0" vol="195" pos="1008"/>
          <note len="12" key="20" pan="0" vol="195" pos="1020"/>
          <note len="12" key="20" pan="0" vol="195" pos="1032"/>
          <note len="12" key="20" pan="0" vol="195" pos="1044"/>
          <note len="12" key="20" pan="0" vol="195" pos="1056"/>
          <note len="12" key="20" pan="0" vol="195" pos="1068"/>
          <note len="12" key="20" pan="0" vol="195" pos="1080"/>
          <note len="12" key="20" pan="0" vol="195" pos="1092"/>
          <note len="12" key="20" pan="0" vol="195" pos="1104"/>
          <note len="12" key="20" pan="0" vol="195" pos="1116"/>
          <note len="12" key="20" pan="0" vol="195" pos="1128"/>
          <note len="12" key="20" pan="0" vol="195" pos="1140"/>
          <note len="48" key="21" pan="0" vol="195" pos="1152"/>
          <note len="12" key="21" pan="0" vol="195" pos="1200"/>
          <note len="12" key="21" pan="0" vol="195" pos="1212"/>
          <note len="12" key="21" pan="0" vol="195" pos="1224"/>
          <note len="12" key="21" pan="0" vol="195" pos="1236"/>
          <note len="12" key="21" pan="0" vol="195" pos="1248"/>
          <note len="12" key="21" pan="0" vol="195" pos="1260"/>
          <note len="12" key="21" pan="0" vol="195" pos="1272"/>
          <note len="12" key="21" pan="0" vol="195" pos="1284"/>
          <note len="12" key="21" pan="0" vol="195" pos="1296"/>
          <note len="12" key="21" pan="0" vol="195" pos="1308"/>
          <note len="12" key="21" pan="0" vol="195" pos="1320"/>
          <note len="12" key="21" pan="0" vol="195" pos="1332"/>
          <note len="48" key="23" pan="0" vol="195" pos="1344"/>
          <note len="12" key="23" pan="0" vol="195" pos="1392"/>
          <note len="12" key="23" pan="0" vol="195" pos="1404"/>
          <note len="12" key="23" pan="0" vol="195" pos="1416"/>
          <note len="12" key="23" pan="0" vol="195" pos="1428"/>
          <note len="48" key="24" pan="0" vol="195" pos="1440"/>
          <note len="12" key="24" pan="0" vol="195" pos="1488"/>
          <note len="12" key="24" pan="0" vol="195" pos="1500"/>
          <note len="12" key="24" pan="0" vol="195" pos="1512"/>
          <note len="12" key="24" pan="0" vol="195" pos="1524"/>
          <note len="48" key="13" pan="0" vol="195" pos="1536"/>
          <note len="12" key="13" pan="0" vol="195" pos="1584"/>
          <note len="12" key="13" pan="0" vol="195" pos="1596"/>
          <note len="12" key="13" pan="0" vol="195" pos="1608"/>
          <note len="12" key="13" pan="0" vol="195" pos="1620"/>
          <note len="12" key="13" pan="0" vol="195" pos="1632"/>
          <note len="12" key="13" pan="0" vol="195" pos="1644"/>
          <note len="12" key="13" pan="0" vol="195" pos="1656"/>
          <note len="12" key="13" pan="0" vol="195" pos="1668"/>
          <note len="12" key="13" pan="0" vol="195" pos="1680"/>
          <note len="12" key="13" pan="0" vol="195" pos="1692"/>
          <note len="12" key="13" pan="0" vol="195" pos="1704"/>
          <note len="12" key="13" pan="0" vol="195" pos="1716"/>
          <note len="48" key="23" pan="0" vol="195" pos="1728"/>
          <note len="12" key="23" pan="0" vol="195" pos="1776"/>
          <note len="12" key="23" pan="0" vol="195" pos="1788"/>
          <note len="12" key="23" pan="0" vol="195" pos="1800"/>
          <note len="12" key="23" pan="0" vol="195" pos="1812"/>
          <note len="12" key="23" pan="0" vol="195" pos="1824"/>
          <note len="12" key="23" pan="0" vol="195" pos="1836"/>
          <note len="12" key="23" pan="0" vol="195" pos="1848"/>
          <note len="12" key="23" pan="0" vol="195" pos="1860"/>
          <note len="12" key="23" pan="0" vol="195" pos="1872"/>
          <note len="12" key="23" pan="0" vol="195" pos="1884"/>
          <note len="12" key="23" pan="0" vol="195" pos="1896"/>
          <note len="12" key="23" pan="0" vol="195" pos="1908"/>
          <note len="48" key="22" pan="0" vol="195" pos="1920"/>
          <note len="12" key="22" pan="0" vol="195" pos="1968"/>
          <note len="12" key="22" pan="0" vol="195" pos="1980"/>
          <note len="12" key="22" pan="0" vol="195" pos="1992"/>
          <note len="12" key="22" pan="0" vol="195" pos="2004"/>
          <note len="12" key="22" pan="0" vol="195" pos="2016"/>
          <note len="12" key="22" pan="0" vol="195" pos="2028"/>
          <note len="12" key="22" pan="0" vol="195" pos="2040"/>
          <note len="12" key="22" pan="0" vol="195" pos="2052"/>
          <note len="12" key="22" pan="0" vol="195" pos="2064"/>
          <note len="12" key="22" pan="0" vol="195" pos="2076"/>
          <note len="12" key="22" pan="0" vol="195" pos="2088"/>
          <note len="12" key="22" pan="0" vol="195" pos="2100"/>
          <note len="48" key="18" pan="0" vol="195" pos="2112"/>
          <note len="12" key="18" pan="0" vol="195" pos="2160"/>
          <note len="12" key="18" pan="0" vol="195" pos="2172"/>
          <note len="12" key="18" pan="0" vol="195" pos="2184"/>
          <note len="12" key="18" pan="0" vol="195" pos="2196"/>
          <note len="48" key="16" pan="0" vol="195" pos="2208"/>
          <note len="12" key="16" pan="0" vol="195" pos="2256"/>
          <note len="12" key="16" pan="0" vol="195" pos="2268"/>
          <note len="12" key="16" pan="0" vol="195" pos="2280"/>
          <note len="12" key="16" pan="0" vol="195" pos="2292"/>
          <note len="48" key="14" pan="0" vol="195" pos="2304"/>
          <note len="12" key="14" pan="0" vol="195" pos="2352"/>
          <note len="12" key="14" pan="0" vol="195" pos="2364"/>
          <note len="12" key="14" pan="0" vol="195" pos="2376"/>
          <note len="12" key="14" pan="0" vol="195" pos="2388"/>
          <note len="48" key="14" pan="0" vol="195" pos="2400"/>
          <note len="12" key="14" pan="0" vol="195" pos="2448"/>
          <note len="12" key="14" pan="0" vol="195" pos="2460"/>
          <note len="12" key="14" pan="0" vol="195" pos="2472"/>
          <note len="12" key="14" pan="0" vol="195" pos="2484"/>
          <note len="48" key="21" pan="0" vol="195" pos="2496"/>
          <note len="12" key="21" pan="0" vol="195" pos="2544"/>
          <note len="12" key="21" pan="0" vol="195" pos="2556"/>
          <note len="12" key="21" pan="0" vol="195" pos="2568"/>
          <note len="12" key="21" pan="0" vol="195" pos="2580"/>
          <note len="12" key="21" pan="0" vol="195" pos="2592"/>
          <note len="12" key="21" pan="0" vol="195" pos="2604"/>
          <note len="12" key="21" pan="0" vol="195" pos="2616"/>
          <note len="12" key="21" pan="0" vol="195" pos="2628"/>
          <note len="12" key="21" pan="0" vol="195" pos="2640"/>
          <note len="12" key="21" pan="0" vol="195" pos="2652"/>
          <note len="12" key="21" pan="0" vol="195" pos="2664"/>
          <note len="12" key="21" pan="0" vol="195" pos="2676"/>
          <note len="384" key="11" pan="0" vol="195" pos="2688"/>
        </pattern>
        <pattern muted="0" name="" steps="16" type="1" pos="44160">
          <note len="48" key="15" pan="0" vol="195" pos="0"/>
          <note len="12" key="15" pan="0" vol="195" pos="48"/>
          <note len="12" key="15" pan="0" vol="195" pos="60"/>
          <note len="12" key="15" pan="0" vol="195" pos="72"/>
          <note len="12" key="15" pan="0" vol="195" pos="84"/>
          <note len="12" key="15" pan="0" vol="195" pos="96"/>
          <note len="12" key="15" pan="0" vol="195" pos="108"/>
          <note len="12" key="15" pan="0" vol="195" pos="120"/>
          <note len="12" key="15" pan="0" vol="195" pos="132"/>
          <note len="12" key="15" pan="0" vol="195" pos="144"/>
          <note len="12" key="15" pan="0" vol="195" pos="156"/>
          <note len="12" key="15" pan="0" vol="195" pos="168"/>
          <note len="12" key="15" pan="0" vol="195" pos="180"/>
          <note len="48" key="22" pan="0" vol="195" pos="192"/>
          <note len="12" key="22" pan="0" vol="195" pos="240"/>
          <note len="12" key="22" pan="0" vol="195" pos="252"/>
          <note len="12" key="22" pan="0" vol="195" pos="264"/>
          <note len="12" key="22" pan="0" vol="195" pos="276"/>
          <note len="12" key="22" pan="0" vol="195" pos="288"/>
          <note len="12" key="22" pan="0" vol="195" pos="300"/>
          <note len="12" key="22" pan="0" vol="195" pos="312"/>
          <note len="12" key="22" pan="0" vol="195" pos="324"/>
          <note len="12" key="22" pan="0" vol="195" pos="336"/>
          <note len="12" key="22" pan="0" vol="195" pos="348"/>
          <note len="12" key="22" pan="0" vol="195" pos="360"/>
          <note len="12" key="22" pan="0" vol="195" pos="372"/>
          <note len="48" key="23" pan="0" vol="195" pos="384"/>
          <note len="12" key="23" pan="0" vol="195" pos="432"/>
          <note len="12" key="23" pan="0" vol="195" pos="444"/>
          <note len="12" key="23" pan="0" vol="195" pos="456"/>
          <note len="12" key="23" pan="0" vol="195" pos="468"/>
          <note len="12" key="23" pan="0" vol="195" pos="480"/>
          <note len="12" key="23" pan="0" vol="195" pos="492"/>
          <note len="12" key="23" pan="0" vol="195" pos="504"/>
          <note len="12" key="23" pan="0" vol="195" pos="516"/>
          <note len="12" key="23" pan="0" vol="195" pos="528"/>
          <note len="12" key="23" pan="0" vol="195" pos="540"/>
          <note len="12" key="23" pan="0" vol="195" pos="552"/>
          <note len="12" key="23" pan="0" vol="195" pos="564"/>
          <note len="48" key="25" pan="0" vol="195" pos="576"/>
          <note len="12" key="25" pan="0" vol="195" pos="624"/>
          <note len="12" key="25" pan="0" vol="195" pos="636"/>
          <note len="12" key="25" pan="0" vol="195" pos="648"/>
          <note len="12" key="25" pan="0" vol="195" pos="660"/>
          <note len="12" key="25" pan="0" vol="195" pos="672"/>
          <note len="12" key="25" pan="0" vol="195" pos="684"/>
          <note len="12" key="25" pan="0" vol="195" pos="696"/>
          <note len="12" key="25" pan="0" vol="195" pos="708"/>
          <note len="12" key="25" pan="0" vol="195" pos="720"/>
          <note len="12" key="25" pan="0" vol="195" pos="732"/>
          <note len="12" key="25" pan="0" vol="195" pos="744"/>
          <note len="12" key="25" pan="0" vol="195" pos="756"/>
          <note len="48" key="20" pan="0" vol="195" pos="768"/>
          <note len="12" key="20" pan="0" vol="195" pos="816"/>
          <note len="12" key="20" pan="0" vol="195" pos="828"/>
          <note len="12" key="20" pan="0" vol="195" pos="840"/>
          <note len="12" key="20" pan="0" vol="195" pos="852"/>
          <note len="12" key="20" pan="0" vol="195" pos="864"/>
          <note len="12" key="20" pan="0" vol="195" pos="876"/>
          <note len="12" key="20" pan="0" vol="195" pos="888"/>
          <note len="12" key="20" pan="0" vol="195" pos="900"/>
          <note len="12" key="20" pan="0" vol="195" pos="912"/>
          <note len="12" key="20" pan="0" vol="195" pos="924"/>
          <note len="12" key="20" pan="0" vol="195" pos="936"/>
          <note len="12" key="20" pan="0" vol="195" pos="948"/>
          <note len="48" key="22" pan="0" vol="195" pos="960"/>
          <note len="12" key="22" pan="0" vol="195" pos="1008"/>
          <note len="12" key="22" pan="0" vol="195" pos="1020"/>
          <note len="12" key="22" pan="0" vol="195" pos="1032"/>
          <note len="12" key="22" pan="0" vol="195" pos="1044"/>
          <note len="12" key="22" pan="0" vol="195" pos="1056"/>
          <note len="12" key="22" pan="0" vol="195" pos="1068"/>
          <note len="12" key="22" pan="0" vol="195" pos="1080"/>
          <note len="12" key="22" pan="0" vol="195" pos="1092"/>
          <note len="12" key="22" pan="0" vol="195" pos="1104"/>
          <note len="12" key="22" pan="0" vol="195" pos="1116"/>
          <note len="12" key="22" pan="0" vol="195" pos="1128"/>
          <note len="12" key="22" pan="0" vol="195" pos="1140"/>
          <note len="48" key="23" pan="0" vol="195" pos="1152"/>
          <note len="12" key="23" pan="0" vol="195" pos="1200"/>
          <note len="12" key="23" pan="0" vol="195" pos="1212"/>
          <note len="12" key="23" pan="0" vol="195" pos="1224"/>
          <note len="12" key="23" pan="0" vol="195" pos="1236"/>
          <note len="12" key="23" pan="0" vol="195" pos="1248"/>
          <note len="12" key="23" pan="0" vol="195" pos="1260"/>
          <note len="12" key="23" pan="0" vol="195" pos="1272"/>
          <note len="12" key="23" pan="0" vol="195" pos="1284"/>
          <note len="12" key="23" pan="0" vol="195" pos="1296"/>
          <note len="12" key="23" pan="0" vol="195" pos="1308"/>
          <note len="12" key="23" pan="0" vol="195" pos="1320"/>
          <note len="12" key="23" pan="0" vol="195" pos="1332"/>
          <note len="48" key="25" pan="0" vol="195" pos="1344"/>
          <note len="12" key="25" pan="0" vol="195" pos="1392"/>
          <note len="12" key="25" pan="0" vol="195" pos="1404"/>
          <note len="12" key="25" pan="0" vol="195" pos="1416"/>
          <note len="12" key="25" pan="0" vol="195" pos="1428"/>
          <note len="12" key="26" pan="0" vol="195" pos="1440"/>
          <note len="12" key="23" pan="0" vol="195" pos="1452"/>
          <note len="12" key="22" pan="0" vol="195" pos="1464"/>
          <note len="12" key="20" pan="0" vol="195" pos="1476"/>
          <note len="12" key="23" pan="0" vol="195" pos="1488"/>
          <note len="12" key="22" pan="0" vol="195" pos="1500"/>
          <note len="12" key="20" pan="0" vol="195" pos="1512"/>
          <note len="12" key="18" pan="0" vol="195" pos="1524"/>
          <note len="48" key="15" pan="0" vol="195" pos="1536"/>
          <note len="12" key="15" pan="0" vol="195" pos="1584"/>
          <note len="12" key="15" pan="0" vol="195" pos="1596"/>
          <note len="12" key="15" pan="0" vol="195" pos="1608"/>
          <note len="12" key="15" pan="0" vol="195" pos="1620"/>
          <note len="12" key="15" pan="0" vol="195" pos="1632"/>
          <note len="12" key="15" pan="0" vol="195" pos="1644"/>
          <note len="12" key="15" pan="0" vol="195" pos="1656"/>
          <note len="12" key="15" pan="0" vol="195" pos="1668"/>
          <note len="12" key="15" pan="0" vol="195" pos="1680"/>
          <note len="12" key="15" pan="0" vol="195" pos="1692"/>
          <note len="12" key="15" pan="0" vol="195" pos="1704"/>
          <note len="12" key="15" pan="0" vol="195" pos="1716"/>
          <note len="48" key="25" pan="0" vol="195" pos="1728"/>
          <note len="12" key="25" pan="0" vol="195" pos="1776"/>
          <note len="12" key="25" pan="0" vol="195" pos="1788"/>
          <note len="12" key="25" pan="0" vol="195" pos="1800"/>
          <note len="12" key="25" pan="0" vol="195" pos="1812"/>
          <note len="12" key="25" pan="0" vol="195" pos="1824"/>
          <note len="12" key="25" pan="0" vol="195" pos="1836"/>
          <note len="12" key="25" pan="0" vol="195" pos="1848"/>
          <note len="12" key="25" pan="0" vol="195" pos="1860"/>
          <note len="12" key="25" pan="0" vol="195" pos="1872"/>
          <note len="12" key="25" pan="0" vol="195" pos="1884"/>
          <note len="12" key="25" pan="0" vol="195" pos="1896"/>
          <note len="12" key="25" pan="0" vol="195" pos="1908"/>
          <note len="48" key="24" pan="0" vol="195" pos="1920"/>
          <note len="12" key="24" pan="0" vol="195" pos="1968"/>
          <note len="12" key="24" pan="0" vol="195" pos="1980"/>
          <note len="12" key="24" pan="0" vol="195" pos="1992"/>
          <note len="12" key="24" pan="0" vol="195" pos="2004"/>
          <note len="12" key="24" pan="0" vol="195" pos="2016"/>
          <note len="12" key="24" pan="0" vol="195" pos="2028"/>
          <note len="12" key="24" pan="0" vol="195" pos="2040"/>
          <note len="12" key="24" pan="0" vol="195" pos="2052"/>
          <note len="12" key="24" pan="0" vol="195" pos="2064"/>
          <note len="12" key="24" pan="0" vol="195" pos="2076"/>
          <note len="12" key="24" pan="0" vol="195" pos="2088"/>
          <note len="12" key="24" pan="0" vol="195" pos="2100"/>
          <note len="48" key="20" pan="0" vol="195" pos="2112"/>
          <note len="12" key="20" pan="0" vol="195" pos="2160"/>
          <note len="12" key="20" pan="0" vol="195" pos="2172"/>
          <note len="12" key="20" pan="0" vol="195" pos="2184"/>
          <note len="12" key="20" pan="0" vol="195" pos="2196"/>
          <note len="48" key="18" pan="0" vol="195" pos="2208"/>
          <note len="12" key="18" pan="0" vol="195" pos="2256"/>
          <note len="12" key="18" pan="0" vol="195" pos="2268"/>
          <note len="12" key="18" pan="0" vol="195" pos="2280"/>
          <note len="12" key="18" pan="0" vol="195" pos="2292"/>
          <note len="48" key="16" pan="0" vol="195" pos="2304"/>
          <note len="12" key="16" pan="0" vol="195" pos="2352"/>
          <note len="12" key="16" pan="0" vol="195" pos="2364"/>
          <note len="12" key="16" pan="0" vol="195" pos="2376"/>
          <note len="12" key="16" pan="0" vol="195" pos="2388"/>
          <note len="48" key="16" pan="0" vol="195" pos="2400"/>
          <note len="12" key="16" pan="0" vol="195" pos="2448"/>
          <note len="12" key="16" pan="0" vol="195" pos="2460"/>
          <note len="12" key="16" pan="0" vol="195" pos="2472"/>
          <note len="12" key="16" pan="0" vol="195" pos="2484"/>
          <note len="48" key="23" pan="0" vol="195" pos="2496"/>
          <note len="12" key="23" pan="0" vol="195" pos="2544"/>
          <note len="12" key="23" pan="0" vol="195" pos="2556"/>
          <note len="12" key="23" pan="0" vol="195" pos="2568"/>
          <note len="12" key="23" pan="0" vol="195" pos="2580"/>
          <note len="12" key="23" pan="0" vol="195" pos="2592"/>
          <note len="12" key="23" pan="0" vol="195" pos="2604"/>
          <note len="12" key="23" pan="0" vol="195" pos="2616"/>
          <note len="12" key="23" pan="0" vol="195" pos="2628"/>
          <note len="12" key="23" pan="0" vol="195" pos="2640"/>
          <note len="12" key="23" pan="0" vol="195" pos="2652"/>
          <note len="12" key="23" pan="0" vol="195" pos="2664"/>
          <note len="12" key="23" pan="0" vol="195" pos="2676"/>
          <note len="48" key="25" pan="0" vol="195" pos="2688"/>
          <note len="12" key="25" pan="0" vol="195" pos="2736"/>
          <note len="12" key="25" pan="0" vol="195" pos="2748"/>
          <note len="12" key="25" pan="0" vol="195" pos="2760"/>
          <note len="12" key="25" pan="0" vol="195" pos="2772"/>
          <note len="12" key="25" pan="0" vol="195" pos="2784"/>
          <note len="12" key="25" pan="0" vol="195" pos="2796"/>
          <note len="12" key="25" pan="0" vol="195" pos="2808"/>
          <note len="12" key="25" pan="0" vol="195" pos="2820"/>
          <note len="12" key="25" pan="0" vol="195" pos="2832"/>
          <note len="12" key="25" pan="0" vol="195" pos="2844"/>
          <note len="12" key="25" pan="0" vol="195" pos="2856"/>
          <note len="12" key="25" pan="0" vol="195" pos="2868"/>
          <note len="12" key="25" pan="0" vol="195" pos="2880"/>
          <note len="12" key="23" pan="0" vol="195" pos="2892"/>
          <note len="12" key="22" pan="0" vol="195" pos="2904"/>
          <note len="12" key="20" pan="0" vol="195" pos="2916"/>
          <note len="12" key="23" pan="0" vol="195" pos="2928"/>
          <note len="12" key="22" pan="0" vol="195" pos="2940"/>
          <note len="12" key="20" pan="0" vol="195" pos="2952"/>
          <note len="12" key="18" pan="0" vol="195" pos="2964"/>
          <note len="12" key="22" pan="0" vol="195" pos="2976"/>
          <note len="12" key="20" pan="0" vol="195" pos="2988"/>
          <note len="12" key="18" pan="0" vol="195" pos="3000"/>
          <note len="12" key="17" pan="0" vol="195" pos="3012"/>
          <note len="12" key="20" pan="0" vol="195" pos="3024"/>
          <note len="12" key="18" pan="0" vol="195" pos="3036"/>
          <note len="12" key="17" pan="0" vol="195" pos="3048"/>
          <note len="12" key="18" pan="0" vol="195" pos="3060"/>
        </pattern>
        <pattern muted="0" name="" steps="16" type="1" pos="43776">
          <note len="96" key="9" pan="0" vol="200" pos="96"/>
          <note len="96" key="11" pan="0" vol="200" pos="192"/>
          <note len="96" key="13" pan="0" vol="200" pos="288"/>
        </pattern>
        <pattern muted="0" name="" steps="16" type="1" pos="47232">
          <note len="48" key="15" pan="0" vol="195" pos="0"/>
          <note len="12" key="15" pan="0" vol="195" pos="48"/>
          <note len="12" key="15" pan="0" vol="195" pos="60"/>
          <note len="12" key="15" pan="0" vol="195" pos="72"/>
          <note len="12" key="15" pan="0" vol="195" pos="84"/>
          <note len="12" key="15" pan="0" vol="195" pos="96"/>
          <note len="12" key="15" pan="0" vol="195" pos="108"/>
          <note len="12" key="15" pan="0" vol="195" pos="120"/>
          <note len="12" key="15" pan="0" vol="195" pos="132"/>
          <note len="12" key="15" pan="0" vol="195" pos="144"/>
          <note len="12" key="15" pan="0" vol="195" pos="156"/>
          <note len="12" key="15" pan="0" vol="195" pos="168"/>
          <note len="12" key="15" pan="0" vol="195" pos="180"/>
          <note len="48" key="22" pan="0" vol="195" pos="192"/>
          <note len="12" key="22" pan="0" vol="195" pos="240"/>
          <note len="12" key="22" pan="0" vol="195" pos="252"/>
          <note len="12" key="22" pan="0" vol="195" pos="264"/>
          <note len="12" key="22" pan="0" vol="195" pos="276"/>
          <note len="12" key="22" pan="0" vol="195" pos="288"/>
          <note len="12" key="22" pan="0" vol="195" pos="300"/>
          <note len="12" key="22" pan="0" vol="195" pos="312"/>
          <note len="12" key="22" pan="0" vol="195" pos="324"/>
          <note len="12" key="22" pan="0" vol="195" pos="336"/>
          <note len="12" key="22" pan="0" vol="195" pos="348"/>
          <note len="12" key="22" pan="0" vol="195" pos="360"/>
          <note len="12" key="22" pan="0" vol="195" pos="372"/>
          <note len="48" key="23" pan="0" vol="195" pos="384"/>
          <note len="12" key="23" pan="0" vol="195" pos="432"/>
          <note len="12" key="23" pan="0" vol="195" pos="444"/>
          <note len="12" key="23" pan="0" vol="195" pos="456"/>
          <note len="12" key="23" pan="0" vol="195" pos="468"/>
          <note len="12" key="23" pan="0" vol="195" pos="480"/>
          <note len="12" key="23" pan="0" vol="195" pos="492"/>
          <note len="12" key="23" pan="0" vol="195" pos="504"/>
          <note len="12" key="23" pan="0" vol="195" pos="516"/>
          <note len="12" key="23" pan="0" vol="195" pos="528"/>
          <note len="12" key="23" pan="0" vol="195" pos="540"/>
          <note len="12" key="23" pan="0" vol="195" pos="552"/>
          <note len="12" key="23" pan="0" vol="195" pos="564"/>
          <note len="48" key="25" pan="0" vol="195" pos="576"/>
          <note len="12" key="25" pan="0" vol="195" pos="624"/>
          <note len="12" key="25" pan="0" vol="195" pos="636"/>
          <note len="12" key="25" pan="0" vol="195" pos="648"/>
          <note len="12" key="25" pan="0" vol="195" pos="660"/>
          <note len="12" key="25" pan="0" vol="195" pos="672"/>
          <note len="12" key="25" pan="0" vol="195" pos="684"/>
          <note len="12" key="25" pan="0" vol="195" pos="696"/>
          <note len="12" key="25" pan="0" vol="195" pos="708"/>
          <note len="12" key="25" pan="0" vol="195" pos="720"/>
          <note len="12" key="25" pan="0" vol="195" pos="732"/>
          <note len="12" key="25" pan="0" vol="195" pos="744"/>
          <note len="12" key="25" pan="0" vol="195" pos="756"/>
          <note len="48" key="20" pan="0" vol="195" pos="768"/>
          <note len="12" key="20" pan="0" vol="195" pos="816"/>
          <note len="12" key="20" pan="0" vol="195" pos="828"/>
          <note len="12" key="20" pan="0" vol="195" pos="840"/>
          <note len="12" key="20" pan="0" vol="195" pos="852"/>
          <note len="12" key="20" pan="0" vol="195" pos="864"/>
          <note len="12" key="20" pan="0" vol="195" pos="876"/>
          <note len="12" key="20" pan="0" vol="195" pos="888"/>
          <note len="12" key="20" pan="0" vol="195" pos="900"/>
          <note len="12" key="20" pan="0" vol="195" pos="912"/>
          <note len="12" key="20" pan="0" vol="195" pos="924"/>
          <note len="12" key="20" pan="0" vol="195" pos="936"/>
          <note len="12" key="20" pan="0" vol="195" pos="948"/>
          <note len="48" key="22" pan="0" vol="195" pos="960"/>
          <note len="12" key="22" pan="0" vol="195" pos="1008"/>
          <note len="12" key="22" pan="0" vol="195" pos="1020"/>
          <note len="12" key="22" pan="0" vol="195" pos="1032"/>
          <note len="12" key="22" pan="0" vol="195" pos="1044"/>
          <note len="12" key="22" pan="0" vol="195" pos="1056"/>
          <note len="12" key="22" pan="0" vol="195" pos="1068"/>
          <note len="12" key="22" pan="0" vol="195" pos="1080"/>
          <note len="12" key="22" pan="0" vol="195" pos="1092"/>
          <note len="12" key="22" pan="0" vol="195" pos="1104"/>
          <note len="12" key="22" pan="0" vol="195" pos="1116"/>
          <note len="12" key="22" pan="0" vol="195" pos="1128"/>
          <note len="12" key="22" pan="0" vol="195" pos="1140"/>
          <note len="48" key="23" pan="0" vol="195" pos="1152"/>
          <note len="12" key="23" pan="0" vol="195" pos="1200"/>
          <note len="12" key="23" pan="0" vol="195" pos="1212"/>
          <note len="12" key="23" pan="0" vol="195" pos="1224"/>
          <note len="12" key="23" pan="0" vol="195" pos="1236"/>
          <note len="12" key="23" pan="0" vol="195" pos="1248"/>
          <note len="12" key="23" pan="0" vol="195" pos="1260"/>
          <note len="12" key="23" pan="0" vol="195" pos="1272"/>
          <note len="12" key="23" pan="0" vol="195" pos="1284"/>
          <note len="12" key="23" pan="0" vol="195" pos="1296"/>
          <note len="12" key="23" pan="0" vol="195" pos="1308"/>
          <note len="12" key="23" pan="0" vol="195" pos="1320"/>
          <note len="12" key="23" pan="0" vol="195" pos="1332"/>
          <note len="48" key="25" pan="0" vol="195" pos="1344"/>
          <note len="12" key="25" pan="0" vol="195" pos="1392"/>
          <note len="12" key="25" pan="0" vol="195" pos="1404"/>
          <note len="12" key="25" pan="0" vol="195" pos="1416"/>
          <note len="12" key="25" pan="0" vol="195" pos="1428"/>
          <note len="48" key="26" pan="0" vol="195" pos="1440"/>
          <note len="12" key="26" pan="0" vol="195" pos="1488"/>
          <note len="12" key="26" pan="0" vol="195" pos="1500"/>
          <note len="12" key="26" pan="0" vol="195" pos="1512"/>
          <note len="12" key="26" pan="0" vol="195" pos="1524"/>
          <note len="48" key="15" pan="0" vol="195" pos="1536"/>
          <note len="12" key="15" pan="0" vol="195" pos="1584"/>
          <note len="12" key="15" pan="0" vol="195" pos="1596"/>
          <note len="12" key="15" pan="0" vol="195" pos="1608"/>
          <note len="12" key="15" pan="0" vol="195" pos="1620"/>
          <note len="12" key="15" pan="0" vol="195" pos="1632"/>
          <note len="12" key="15" pan="0" vol="195" pos="1644"/>
          <note len="12" key="15" pan="0" vol="195" pos="1656"/>
          <note len="12" key="15" pan="0" vol="195" pos="1668"/>
          <note len="12" key="15" pan="0" vol="195" pos="1680"/>
          <note len="12" key="15" pan="0" vol="195" pos="1692"/>
          <note len="12" key="15" pan="0" vol="195" pos="1704"/>
          <note len="12" key="15" pan="0" vol="195" pos="1716"/>
          <note len="48" key="25" pan="0" vol="195" pos="1728"/>
          <note len="12" key="25" pan="0" vol="195" pos="1776"/>
          <note len="12" key="25" pan="0" vol="195" pos="1788"/>
          <note len="12" key="25" pan="0" vol="195" pos="1800"/>
          <note len="12" key="25" pan="0" vol="195" pos="1812"/>
          <note len="12" key="25" pan="0" vol="195" pos="1824"/>
          <note len="12" key="25" pan="0" vol="195" pos="1836"/>
          <note len="12" key="25" pan="0" vol="195" pos="1848"/>
          <note len="12" key="25" pan="0" vol="195" pos="1860"/>
          <note len="12" key="25" pan="0" vol="195" pos="1872"/>
          <note len="12" key="25" pan="0" vol="195" pos="1884"/>
          <note len="12" key="25" pan="0" vol="195" pos="1896"/>
          <note len="12" key="25" pan="0" vol="195" pos="1908"/>
          <note len="48" key="24" pan="0" vol="195" pos="1920"/>
          <note len="12" key="24" pan="0" vol="195" pos="1968"/>
          <note len="12" key="24" pan="0" vol="195" pos="1980"/>
          <note len="12" key="24" pan="0" vol="195" pos="1992"/>
          <note len="12" key="24" pan="0" vol="195" pos="2004"/>
          <note len="12" key="24" pan="0" vol="195" pos="2016"/>
          <note len="12" key="24" pan="0" vol="195" pos="2028"/>
          <note len="12" key="24" pan="0" vol="195" pos="2040"/>
          <note len="12" key="24" pan="0" vol="195" pos="2052"/>
          <note len="12" key="24" pan="0" vol="195" pos="2064"/>
          <note len="12" key="24" pan="0" vol="195" pos="2076"/>
          <note len="12" key="24" pan="0" vol="195" pos="2088"/>
          <note len="12" key="24" pan="0" vol="195" pos="2100"/>
          <note len="48" key="20" pan="0" vol="195" pos="2112"/>
          <note len="12" key="20" pan="0" vol="195" pos="2160"/>
          <note len="12" key="20" pan="0" vol="195" pos="2172"/>
          <note len="12" key="20" pan="0" vol="195" pos="2184"/>
          <note len="12" key="20" pan="0" vol="195" pos="2196"/>
          <note len="48" key="18" pan="0" vol="195" pos="2208"/>
          <note len="12" key="18" pan="0" vol="195" pos="2256"/>
          <note len="12" key="18" pan="0" vol="195" pos="2268"/>
          <note len="12" key="18" pan="0" vol="195" pos="2280"/>
          <note len="12" key="18" pan="0" vol="195" pos="2292"/>
          <note len="48" key="16" pan="0" vol="195" pos="2304"/>
          <note len="12" key="16" pan="0" vol="195" pos="2352"/>
          <note len="12" key="16" pan="0" vol="195" pos="2364"/>
          <note len="12" key="16" pan="0" vol="195" pos="2376"/>
          <note len="12" key="16" pan="0" vol="195" pos="2388"/>
          <note len="48" key="16" pan="0" vol="195" pos="2400"/>
          <note len="12" key="16" pan="0" vol="195" pos="2448"/>
          <note len="12" key="16" pan="0" vol="195" pos="2460"/>
          <note len="12" key="16" pan="0" vol="195" pos="2472"/>
          <note len="12" key="16" pan="0" vol="195" pos="2484"/>
          <note len="48" key="23" pan="0" vol="195" pos="2496"/>
          <note len="12" key="23" pan="0" vol="195" pos="2544"/>
          <note len="12" key="23" pan="0" vol="195" pos="2556"/>
          <note len="12" key="23" pan="0" vol="195" pos="2568"/>
          <note len="12" key="23" pan="0" vol="195" pos="2580"/>
          <note len="12" key="23" pan="0" vol="195" pos="2592"/>
          <note len="12" key="23" pan="0" vol="195" pos="2604"/>
          <note len="12" key="23" pan="0" vol="195" pos="2616"/>
          <note len="12" key="23" pan="0" vol="195" pos="2628"/>
          <note len="12" key="23" pan="0" vol="195" pos="2640"/>
          <note len="12" key="23" pan="0" vol="195" pos="2652"/>
          <note len="12" key="23" pan="0" vol="195" pos="2664"/>
          <note len="12" key="23" pan="0" vol="195" pos="2676"/>
          <note len="48" key="25" pan="0" vol="195" pos="2688"/>
          <note len="12" key="25" pan="0" vol="195" pos="2736"/>
          <note len="12" key="25" pan="0" vol="195" pos="2748"/>
          <note len="12" key="25" pan="0" vol="195" pos="2760"/>
          <note len="12" key="25" pan="0" vol="195" pos="2772"/>
          <note len="12" key="25" pan="0" vol="195" pos="2784"/>
          <note len="12" key="25" pan="0" vol="195" pos="2796"/>
          <note len="12" key="25" pan="0" vol="195" pos="2808"/>
          <note len="12" key="25" pan="0" vol="195" pos="2820"/>
          <note len="12" key="25" pan="0" vol="195" pos="2832"/>
          <note len="12" key="25" pan="0" vol="195" pos="2844"/>
          <note len="12" key="25" pan="0" vol="195" pos="2856"/>
          <note len="12" key="25" pan="0" vol="195" pos="2868"/>
          <note len="96" key="25" pan="0" vol="197" pos="2880"/>
          <note len="96" key="22" pan="0" vol="197" pos="2976"/>
        </pattern>
        <pattern muted="0" name="" steps="16" type="1" pos="50304">
          <note len="48" key="15" pan="0" vol="197" pos="0"/>
          <note len="24" key="15" pan="0" vol="197" pos="48"/>
          <note len="24" key="15" pan="0" vol="197" pos="72"/>
          <note len="24" key="15" pan="0" vol="197" pos="96"/>
          <note len="24" key="15" pan="0" vol="197" pos="120"/>
          <note len="24" key="15" pan="0" vol="197" pos="144"/>
          <note len="12" key="15" pan="0" vol="197" pos="168"/>
          <note len="12" key="15" pan="0" vol="197" pos="180"/>
          <note len="24" key="15" pan="0" vol="197" pos="192"/>
          <note len="24" key="15" pan="0" vol="197" pos="216"/>
          <note len="12" key="15" pan="0" vol="197" pos="240"/>
          <note len="12" key="15" pan="0" vol="197" pos="252"/>
          <note len="24" key="15" pan="0" vol="197" pos="264"/>
          <note len="24" key="15" pan="0" vol="197" pos="288"/>
          <note len="24" key="15" pan="0" vol="197" pos="312"/>
          <note len="48" key="15" pan="0" vol="197" pos="336"/>
        </pattern>
        <pattern muted="0" name="" steps="16" type="1" pos="50688">
          <note len="48" key="15" pan="0" vol="197" pos="0"/>
          <note len="24" key="15" pan="0" vol="197" pos="48"/>
          <note len="24" key="15" pan="0" vol="197" pos="72"/>
          <note len="24" key="15" pan="0" vol="197" pos="96"/>
          <note len="24" key="15" pan="0" vol="197" pos="120"/>
          <note len="24" key="15" pan="0" vol="197" pos="144"/>
          <note len="12" key="15" pan="0" vol="197" pos="168"/>
          <note len="12" key="15" pan="0" vol="197" pos="180"/>
          <note len="24" key="15" pan="0" vol="197" pos="192"/>
          <note len="24" key="15" pan="0" vol="197" pos="216"/>
          <note len="12" key="15" pan="0" vol="197" pos="240"/>
          <note len="12" key="15" pan="0" vol="197" pos="252"/>
          <note len="24" key="15" pan="0" vol="197" pos="264"/>
          <note len="24" key="15" pan="0" vol="197" pos="288"/>
          <note len="24" key="15" pan="0" vol="197" pos="312"/>
          <note len="48" key="15" pan="0" vol="197" pos="336"/>
        </pattern>
        <pattern muted="0" name="" steps="16" type="1" pos="51072">
          <note len="48" key="15" pan="0" vol="197" pos="0"/>
          <note len="24" key="15" pan="0" vol="197" pos="48"/>
          <note len="24" key="15" pan="0" vol="197" pos="72"/>
          <note len="24" key="15" pan="0" vol="197" pos="96"/>
          <note len="24" key="15" pan="0" vol="197" pos="120"/>
          <note len="24" key="15" pan="0" vol="197" pos="144"/>
          <note len="12" key="15" pan="0" vol="197" pos="168"/>
          <note len="12" key="15" pan="0" vol="197" pos="180"/>
          <note len="24" key="15" pan="0" vol="197" pos="192"/>
          <note len="24" key="15" pan="0" vol="197" pos="216"/>
          <note len="12" key="15" pan="0" vol="197" pos="240"/>
          <note len="12" key="15" pan="0" vol="197" pos="252"/>
          <note len="24" key="15" pan="0" vol="197" pos="264"/>
          <note len="24" key="15" pan="0" vol="197" pos="288"/>
          <note len="24" key="15" pan="0" vol="197" pos="312"/>
          <note len="48" key="15" pan="0" vol="197" pos="336"/>
        </pattern>
        <pattern muted="0" name="" steps="16" type="1" pos="51456">
          <note len="48" key="15" pan="0" vol="197" pos="0"/>
          <note len="24" key="15" pan="0" vol="197" pos="48"/>
          <note len="24" key="15" pan="0" vol="197" pos="72"/>
          <note len="24" key="15" pan="0" vol="197" pos="96"/>
          <note len="24" key="15" pan="0" vol="197" pos="120"/>
          <note len="24" key="15" pan="0" vol="197" pos="144"/>
          <note len="12" key="15" pan="0" vol="197" pos="168"/>
          <note len="12" key="15" pan="0" vol="197" pos="180"/>
          <note len="24" key="15" pan="0" vol="197" pos="192"/>
          <note len="24" key="15" pan="0" vol="197" pos="216"/>
          <note len="12" key="15" pan="0" vol="197" pos="240"/>
          <note len="12" key="15" pan="0" vol="197" pos="252"/>
          <note len="24" key="15" pan="0" vol="197" pos="264"/>
          <note len="24" key="15" pan="0" vol="197" pos="288"/>
          <note len="24" key="15" pan="0" vol="197" pos="312"/>
          <note len="48" key="15" pan="0" vol="197" pos="336"/>
        </pattern>
        <pattern muted="0" name="" steps="16" type="1" pos="51840">
          <note len="48" key="16" pan="0" vol="197" pos="0"/>
          <note len="24" key="16" pan="0" vol="197" pos="48"/>
          <note len="24" key="16" pan="0" vol="197" pos="72"/>
          <note len="24" key="16" pan="0" vol="197" pos="96"/>
          <note len="24" key="16" pan="0" vol="197" pos="120"/>
          <note len="24" key="16" pan="0" vol="197" pos="144"/>
          <note len="12" key="16" pan="0" vol="197" pos="168"/>
          <note len="12" key="16" pan="0" vol="197" pos="180"/>
          <note len="24" key="16" pan="0" vol="197" pos="192"/>
          <note len="24" key="16" pan="0" vol="197" pos="216"/>
          <note len="12" key="16" pan="0" vol="197" pos="240"/>
          <note len="12" key="16" pan="0" vol="197" pos="252"/>
          <note len="24" key="16" pan="0" vol="197" pos="264"/>
          <note len="24" key="16" pan="0" vol="197" pos="288"/>
          <note len="24" key="16" pan="0" vol="197" pos="312"/>
          <note len="48" key="16" pan="0" vol="197" pos="336"/>
        </pattern>
        <pattern muted="0" name="" steps="16" type="1" pos="52224">
          <note len="48" key="15" pan="0" vol="197" pos="0"/>
          <note len="24" key="15" pan="0" vol="197" pos="48"/>
          <note len="24" key="15" pan="0" vol="197" pos="72"/>
          <note len="24" key="15" pan="0" vol="197" pos="96"/>
          <note len="24" key="15" pan="0" vol="197" pos="120"/>
          <note len="24" key="15" pan="0" vol="197" pos="144"/>
          <note len="12" key="15" pan="0" vol="197" pos="168"/>
          <note len="12" key="15" pan="0" vol="197" pos="180"/>
          <note len="24" key="15" pan="0" vol="197" pos="192"/>
          <note len="24" key="15" pan="0" vol="197" pos="216"/>
          <note len="12" key="15" pan="0" vol="197" pos="240"/>
          <note len="12" key="15" pan="0" vol="197" pos="252"/>
          <note len="24" key="15" pan="0" vol="197" pos="264"/>
          <note len="24" key="15" pan="0" vol="197" pos="288"/>
          <note len="24" key="15" pan="0" vol="197" pos="312"/>
          <note len="48" key="15" pan="0" vol="197" pos="336"/>
        </pattern>
        <pattern muted="0" name="" steps="16" type="1" pos="52608">
          <note len="48" key="20" pan="0" vol="197" pos="0"/>
          <note len="24" key="20" pan="0" vol="197" pos="48"/>
          <note len="24" key="20" pan="0" vol="197" pos="72"/>
          <note len="24" key="20" pan="0" vol="197" pos="96"/>
          <note len="24" key="20" pan="0" vol="197" pos="120"/>
          <note len="24" key="20" pan="0" vol="197" pos="144"/>
          <note len="12" key="20" pan="0" vol="197" pos="168"/>
          <note len="12" key="20" pan="0" vol="197" pos="180"/>
          <note len="24" key="20" pan="0" vol="197" pos="192"/>
          <note len="24" key="20" pan="0" vol="197" pos="216"/>
          <note len="12" key="20" pan="0" vol="197" pos="240"/>
          <note len="12" key="20" pan="0" vol="197" pos="252"/>
          <note len="24" key="20" pan="0" vol="197" pos="264"/>
          <note len="24" key="20" pan="0" vol="197" pos="288"/>
          <note len="24" key="20" pan="0" vol="197" pos="312"/>
          <note len="48" key="20" pan="0" vol="197" pos="336"/>
        </pattern>
        <pattern muted="0" name="" steps="16" type="1" pos="53376">
          <note len="48" key="11" pan="0" vol="195" pos="0"/>
          <note len="12" key="11" pan="0" vol="195" pos="48"/>
          <note len="12" key="11" pan="0" vol="195" pos="60"/>
          <note len="12" key="11" pan="0" vol="195" pos="72"/>
          <note len="12" key="11" pan="0" vol="195" pos="84"/>
          <note len="12" key="11" pan="0" vol="195" pos="96"/>
          <note len="12" key="11" pan="0" vol="195" pos="108"/>
          <note len="12" key="11" pan="0" vol="195" pos="120"/>
          <note len="12" key="11" pan="0" vol="195" pos="132"/>
          <note len="12" key="11" pan="0" vol="195" pos="144"/>
          <note len="12" key="11" pan="0" vol="195" pos="156"/>
          <note len="12" key="11" pan="0" vol="195" pos="168"/>
          <note len="12" key="11" pan="0" vol="195" pos="180"/>
          <note len="48" key="13" pan="0" vol="195" pos="192"/>
          <note len="12" key="13" pan="0" vol="195" pos="240"/>
          <note len="12" key="13" pan="0" vol="195" pos="252"/>
          <note len="12" key="13" pan="0" vol="195" pos="264"/>
          <note len="12" key="13" pan="0" vol="195" pos="276"/>
          <note len="12" key="13" pan="0" vol="195" pos="288"/>
          <note len="12" key="13" pan="0" vol="195" pos="300"/>
          <note len="12" key="13" pan="0" vol="195" pos="312"/>
          <note len="12" key="13" pan="0" vol="195" pos="324"/>
          <note len="12" key="13" pan="0" vol="195" pos="336"/>
          <note len="12" key="13" pan="0" vol="195" pos="348"/>
          <note len="12" key="13" pan="0" vol="195" pos="360"/>
          <note len="12" key="13" pan="0" vol="195" pos="372"/>
        </pattern>
        <pattern muted="0" name="" steps="16" type="1" pos="53760">
          <note len="48" key="15" pan="0" vol="195" pos="0"/>
          <note len="12" key="15" pan="0" vol="195" pos="48"/>
          <note len="12" key="15" pan="0" vol="195" pos="60"/>
          <note len="12" key="15" pan="0" vol="195" pos="72"/>
          <note len="12" key="15" pan="0" vol="195" pos="84"/>
          <note len="12" key="15" pan="0" vol="195" pos="96"/>
          <note len="12" key="15" pan="0" vol="195" pos="108"/>
          <note len="12" key="15" pan="0" vol="195" pos="120"/>
          <note len="12" key="15" pan="0" vol="195" pos="132"/>
          <note len="12" key="15" pan="0" vol="195" pos="144"/>
          <note len="12" key="15" pan="0" vol="195" pos="156"/>
          <note len="12" key="15" pan="0" vol="195" pos="168"/>
          <note len="12" key="15" pan="0" vol="195" pos="180"/>
          <note len="12" key="15" pan="0" vol="195" pos="192"/>
          <note len="12" key="15" pan="0" vol="195" pos="204"/>
          <note len="12" key="15" pan="0" vol="195" pos="216"/>
          <note len="12" key="15" pan="0" vol="195" pos="228"/>
          <note len="12" key="15" pan="0" vol="195" pos="240"/>
          <note len="12" key="15" pan="0" vol="195" pos="252"/>
          <note len="12" key="15" pan="0" vol="195" pos="264"/>
          <note len="12" key="15" pan="0" vol="195" pos="276"/>
          <note len="12" key="15" pan="0" vol="195" pos="288"/>
          <note len="12" key="15" pan="0" vol="195" pos="300"/>
          <note len="12" key="15" pan="0" vol="195" pos="312"/>
          <note len="12" key="15" pan="0" vol="195" pos="324"/>
          <note len="12" key="15" pan="0" vol="195" pos="336"/>
          <note len="12" key="15" pan="0" vol="195" pos="348"/>
          <note len="12" key="15" pan="0" vol="195" pos="360"/>
          <note len="12" key="15" pan="0" vol="195" pos="372"/>
        </pattern>
        <pattern muted="0" name="" steps="16" type="1" pos="54144">
          <note len="48" key="13" pan="0" vol="195" pos="0"/>
          <note len="12" key="13" pan="0" vol="195" pos="48"/>
          <note len="12" key="13" pan="0" vol="195" pos="60"/>
          <note len="12" key="13" pan="0" vol="195" pos="72"/>
          <note len="12" key="13" pan="0" vol="195" pos="84"/>
          <note len="12" key="13" pan="0" vol="195" pos="96"/>
          <note len="12" key="13" pan="0" vol="195" pos="108"/>
          <note len="12" key="13" pan="0" vol="195" pos="120"/>
          <note len="12" key="13" pan="0" vol="195" pos="132"/>
          <note len="12" key="13" pan="0" vol="195" pos="144"/>
          <note len="12" key="13" pan="0" vol="195" pos="156"/>
          <note len="12" key="13" pan="0" vol="195" pos="168"/>
          <note len="12" key="13" pan="0" vol="195" pos="180"/>
        </pattern>
        <pattern muted="0" name="" steps="16" type="1" pos="54336">
          <note len="48" key="13" pan="0" vol="195" pos="0"/>
          <note len="12" key="13" pan="0" vol="195" pos="48"/>
          <note len="12" key="13" pan="0" vol="195" pos="60"/>
          <note len="12" key="13" pan="0" vol="195" pos="72"/>
          <note len="12" key="13" pan="0" vol="195" pos="84"/>
          <note len="12" key="13" pan="0" vol="195" pos="96"/>
          <note len="12" key="13" pan="0" vol="195" pos="108"/>
          <note len="12" key="13" pan="0" vol="195" pos="120"/>
          <note len="12" key="13" pan="0" vol="195" pos="132"/>
          <note len="12" key="13" pan="0" vol="195" pos="144"/>
          <note len="12" key="13" pan="0" vol="195" pos="156"/>
          <note len="12" key="13" pan="0" vol="195" pos="168"/>
          <note len="12" key="13" pan="0" vol="195" pos="180"/>
        </pattern>
        <pattern muted="0" name="" steps="16" type="1" pos="54528">
          <note len="48" key="20" pan="0" vol="195" pos="0"/>
          <note len="12" key="20" pan="0" vol="195" pos="48"/>
          <note len="12" key="20" pan="0" vol="195" pos="60"/>
          <note len="12" key="20" pan="0" vol="195" pos="72"/>
          <note len="12" key="20" pan="0" vol="195" pos="84"/>
          <note len="12" key="20" pan="0" vol="195" pos="96"/>
          <note len="12" key="20" pan="0" vol="195" pos="108"/>
          <note len="12" key="20" pan="0" vol="195" pos="120"/>
          <note len="12" key="20" pan="0" vol="195" pos="132"/>
          <note len="12" key="20" pan="0" vol="195" pos="144"/>
          <note len="12" key="20" pan="0" vol="195" pos="156"/>
          <note len="12" key="20" pan="0" vol="195" pos="168"/>
          <note len="12" key="20" pan="0" vol="195" pos="180"/>
          <note len="12" key="20" pan="0" vol="195" pos="192"/>
          <note len="12" key="20" pan="0" vol="195" pos="204"/>
          <note len="12" key="20" pan="0" vol="195" pos="216"/>
          <note len="12" key="20" pan="0" vol="195" pos="228"/>
          <note len="12" key="20" pan="0" vol="195" pos="240"/>
          <note len="12" key="20" pan="0" vol="195" pos="252"/>
          <note len="12" key="20" pan="0" vol="195" pos="264"/>
          <note len="12" key="20" pan="0" vol="195" pos="276"/>
          <note len="12" key="20" pan="0" vol="195" pos="288"/>
          <note len="12" key="20" pan="0" vol="195" pos="300"/>
          <note len="12" key="20" pan="0" vol="195" pos="312"/>
          <note len="12" key="20" pan="0" vol="195" pos="324"/>
          <note len="12" key="20" pan="0" vol="195" pos="336"/>
          <note len="12" key="20" pan="0" vol="195" pos="348"/>
          <note len="12" key="20" pan="0" vol="195" pos="360"/>
          <note len="12" key="20" pan="0" vol="195" pos="372"/>
        </pattern>
        <pattern muted="0" name="" steps="16" type="1" pos="54912">
          <note len="48" key="11" pan="0" vol="195" pos="0"/>
          <note len="12" key="11" pan="0" vol="195" pos="48"/>
          <note len="12" key="11" pan="0" vol="195" pos="60"/>
          <note len="12" key="11" pan="0" vol="195" pos="72"/>
          <note len="12" key="11" pan="0" vol="195" pos="84"/>
          <note len="12" key="11" pan="0" vol="195" pos="96"/>
          <note len="12" key="11" pan="0" vol="195" pos="108"/>
          <note len="12" key="11" pan="0" vol="195" pos="120"/>
          <note len="12" key="11" pan="0" vol="195" pos="132"/>
          <note len="12" key="11" pan="0" vol="195" pos="144"/>
          <note len="12" key="11" pan="0" vol="195" pos="156"/>
          <note len="12" key="11" pan="0" vol="195" pos="168"/>
          <note len="12" key="11" pan="0" vol="195" pos="180"/>
          <note len="48" key="13" pan="0" vol="195" pos="192"/>
          <note len="12" key="13" pan="0" vol="195" pos="240"/>
          <note len="12" key="13" pan="0" vol="195" pos="252"/>
          <note len="12" key="13" pan="0" vol="195" pos="264"/>
          <note len="12" key="13" pan="0" vol="195" pos="276"/>
          <note len="12" key="13" pan="0" vol="195" pos="288"/>
          <note len="12" key="13" pan="0" vol="195" pos="300"/>
          <note len="12" key="13" pan="0" vol="195" pos="312"/>
          <note len="12" key="13" pan="0" vol="195" pos="324"/>
          <note len="12" key="13" pan="0" vol="195" pos="336"/>
          <note len="12" key="13" pan="0" vol="195" pos="348"/>
          <note len="12" key="13" pan="0" vol="195" pos="360"/>
          <note len="12" key="13" pan="0" vol="195" pos="372"/>
        </pattern>
        <pattern muted="0" name="" steps="16" type="1" pos="55296">
          <note len="48" key="15" pan="0" vol="195" pos="0"/>
          <note len="12" key="15" pan="0" vol="195" pos="48"/>
          <note len="12" key="15" pan="0" vol="195" pos="60"/>
          <note len="12" key="15" pan="0" vol="195" pos="72"/>
          <note len="12" key="15" pan="0" vol="195" pos="84"/>
          <note len="12" key="15" pan="0" vol="195" pos="96"/>
          <note len="12" key="15" pan="0" vol="195" pos="108"/>
          <note len="12" key="15" pan="0" vol="195" pos="120"/>
          <note len="12" key="15" pan="0" vol="195" pos="132"/>
          <note len="12" key="15" pan="0" vol="195" pos="144"/>
          <note len="12" key="15" pan="0" vol="195" pos="156"/>
          <note len="12" key="15" pan="0" vol="195" pos="168"/>
          <note len="12" key="15" pan="0" vol="195" pos="180"/>
          <note len="12" key="15" pan="0" vol="195" pos="192"/>
          <note len="12" key="15" pan="0" vol="195" pos="204"/>
          <note len="12" key="15" pan="0" vol="195" pos="216"/>
          <note len="12" key="15" pan="0" vol="195" pos="228"/>
          <note len="12" key="15" pan="0" vol="195" pos="240"/>
          <note len="12" key="15" pan="0" vol="195" pos="252"/>
          <note len="12" key="15" pan="0" vol="195" pos="264"/>
          <note len="12" key="15" pan="0" vol="195" pos="276"/>
          <note len="12" key="15" pan="0" vol="195" pos="288"/>
          <note len="12" key="15" pan="0" vol="195" pos="300"/>
          <note len="12" key="15" pan="0" vol="195" pos="312"/>
          <note len="12" key="15" pan="0" vol="195" pos="324"/>
          <note len="12" key="15" pan="0" vol="195" pos="336"/>
          <note len="12" key="15" pan="0" vol="195" pos="348"/>
          <note len="12" key="15" pan="0" vol="195" pos="360"/>
          <note len="12" key="15" pan="0" vol="195" pos="372"/>
        </pattern>
        <pattern muted="0" name="" steps="16" type="1" pos="55680">
          <note len="48" key="20" pan="0" vol="195" pos="0"/>
          <note len="12" key="20" pan="0" vol="195" pos="48"/>
          <note len="12" key="20" pan="0" vol="195" pos="60"/>
          <note len="12" key="20" pan="0" vol="195" pos="72"/>
          <note len="12" key="20" pan="0" vol="195" pos="84"/>
          <note len="12" key="20" pan="0" vol="195" pos="96"/>
          <note len="12" key="20" pan="0" vol="195" pos="108"/>
          <note len="12" key="20" pan="0" vol="195" pos="120"/>
          <note len="12" key="20" pan="0" vol="195" pos="132"/>
          <note len="12" key="20" pan="0" vol="195" pos="144"/>
          <note len="12" key="20" pan="0" vol="195" pos="156"/>
          <note len="12" key="20" pan="0" vol="195" pos="168"/>
          <note len="12" key="20" pan="0" vol="195" pos="180"/>
          <note len="12" key="20" pan="0" vol="195" pos="192"/>
          <note len="12" key="20" pan="0" vol="195" pos="204"/>
          <note len="12" key="20" pan="0" vol="195" pos="216"/>
          <note len="12" key="20" pan="0" vol="195" pos="228"/>
          <note len="12" key="20" pan="0" vol="195" pos="240"/>
          <note len="12" key="20" pan="0" vol="195" pos="252"/>
          <note len="12" key="20" pan="0" vol="195" pos="264"/>
          <note len="12" key="20" pan="0" vol="195" pos="276"/>
          <note len="12" key="20" pan="0" vol="195" pos="288"/>
          <note len="12" key="20" pan="0" vol="195" pos="300"/>
          <note len="12" key="20" pan="0" vol="195" pos="312"/>
          <note len="12" key="20" pan="0" vol="195" pos="324"/>
          <note len="12" key="20" pan="0" vol="195" pos="336"/>
          <note len="12" key="20" pan="0" vol="195" pos="348"/>
          <note len="12" key="20" pan="0" vol="195" pos="360"/>
          <note len="12" key="20" pan="0" vol="195" pos="372"/>
        </pattern>
        <pattern muted="0" name="" steps="16" type="1" pos="56064">
          <note len="192" key="11" pan="0" vol="197" pos="0"/>
          <note len="96" key="13" pan="0" vol="197" pos="192"/>
          <note len="96" key="13" pan="0" vol="197" pos="288"/>
        </pattern>
        <pattern muted="0" name="" steps="16" type="1" pos="52992">
          <note len="48" key="18" pan="0" vol="197" pos="0"/>
          <note len="24" key="18" pan="0" vol="197" pos="48"/>
          <note len="24" key="18" pan="0" vol="197" pos="72"/>
          <note len="24" key="18" pan="0" vol="197" pos="96"/>
          <note len="24" key="18" pan="0" vol="197" pos="120"/>
          <note len="24" key="18" pan="0" vol="197" pos="144"/>
          <note len="12" key="18" pan="0" vol="197" pos="168"/>
          <note len="12" key="18" pan="0" vol="197" pos="180"/>
          <note len="24" key="18" pan="0" vol="197" pos="192"/>
          <note len="24" key="18" pan="0" vol="197" pos="216"/>
          <note len="12" key="18" pan="0" vol="197" pos="240"/>
          <note len="12" key="18" pan="0" vol="197" pos="252"/>
          <note len="24" key="18" pan="0" vol="197" pos="264"/>
          <note len="24" key="18" pan="0" vol="197" pos="288"/>
          <note len="24" key="18" pan="0" vol="197" pos="312"/>
          <note len="48" key="18" pan="0" vol="197" pos="336"/>
        </pattern>
        <pattern muted="0" name="" steps="16" type="1" pos="56448">
          <note len="384" key="15" pan="0" vol="200" pos="0"/>
          <note len="384" key="13" pan="0" vol="200" pos="384"/>
          <note len="384" key="12" pan="0" vol="200" pos="768"/>
          <note len="384" key="16" pan="0" vol="200" pos="1152"/>
          <note len="384" key="15" pan="0" vol="200" pos="1536"/>
          <note len="384" key="13" pan="0" vol="200" pos="1920"/>
          <note len="384" key="12" pan="0" vol="200" pos="2304"/>
          <note len="384" key="16" pan="0" vol="200" pos="2688"/>
        </pattern>
        <pattern muted="0" name="" steps="16" type="1" pos="59520">
          <note len="48" key="15" pan="0" vol="200" pos="0"/>
          <note len="12" key="15" pan="0" vol="200" pos="48"/>
          <note len="12" key="15" pan="0" vol="200" pos="60"/>
          <note len="12" key="15" pan="0" vol="200" pos="72"/>
          <note len="12" key="15" pan="0" vol="200" pos="84"/>
          <note len="12" key="15" pan="0" vol="200" pos="96"/>
          <note len="12" key="15" pan="0" vol="200" pos="108"/>
          <note len="12" key="15" pan="0" vol="200" pos="120"/>
          <note len="12" key="15" pan="0" vol="200" pos="132"/>
          <note len="12" key="15" pan="0" vol="200" pos="144"/>
          <note len="12" key="15" pan="0" vol="200" pos="156"/>
          <note len="12" key="15" pan="0" vol="200" pos="168"/>
          <note len="12" key="15" pan="0" vol="200" pos="180"/>
          <note len="12" key="15" pan="0" vol="200" pos="192"/>
          <note len="12" key="15" pan="0" vol="200" pos="204"/>
          <note len="12" key="15" pan="0" vol="200" pos="216"/>
          <note len="12" key="15" pan="0" vol="200" pos="228"/>
          <note len="12" key="15" pan="0" vol="200" pos="240"/>
          <note len="12" key="15" pan="0" vol="200" pos="252"/>
          <note len="12" key="15" pan="0" vol="200" pos="264"/>
          <note len="12" key="15" pan="0" vol="200" pos="276"/>
          <note len="12" key="15" pan="0" vol="200" pos="288"/>
          <note len="12" key="15" pan="0" vol="200" pos="300"/>
          <note len="12" key="15" pan="0" vol="200" pos="312"/>
          <note len="12" key="15" pan="0" vol="200" pos="324"/>
          <note len="12" key="15" pan="0" vol="200" pos="336"/>
          <note len="12" key="15" pan="0" vol="200" pos="348"/>
          <note len="12" key="15" pan="0" vol="200" pos="360"/>
          <note len="12" key="15" pan="0" vol="200" pos="372"/>
          <note len="48" key="13" pan="0" vol="200" pos="384"/>
          <note len="12" key="13" pan="0" vol="200" pos="432"/>
          <note len="12" key="13" pan="0" vol="200" pos="444"/>
          <note len="12" key="13" pan="0" vol="200" pos="456"/>
          <note len="12" key="13" pan="0" vol="200" pos="468"/>
          <note len="12" key="13" pan="0" vol="200" pos="480"/>
          <note len="12" key="13" pan="0" vol="200" pos="492"/>
          <note len="12" key="13" pan="0" vol="200" pos="504"/>
          <note len="12" key="13" pan="0" vol="200" pos="516"/>
          <note len="12" key="13" pan="0" vol="200" pos="528"/>
          <note len="12" key="13" pan="0" vol="200" pos="540"/>
          <note len="12" key="13" pan="0" vol="200" pos="552"/>
          <note len="12" key="13" pan="0" vol="200" pos="564"/>
          <note len="12" key="13" pan="0" vol="200" pos="576"/>
          <note len="12" key="13" pan="0" vol="200" pos="588"/>
          <note len="12" key="13" pan="0" vol="200" pos="600"/>
          <note len="12" key="13" pan="0" vol="200" pos="612"/>
          <note len="12" key="13" pan="0" vol="200" pos="624"/>
          <note len="12" key="13" pan="0" vol="200" pos="636"/>
          <note len="12" key="13" pan="0" vol="200" pos="648"/>
          <note len="12" key="13" pan="0" vol="200" pos="660"/>
          <note len="12" key="13" pan="0" vol="200" pos="672"/>
          <note len="12" key="13" pan="0" vol="200" pos="684"/>
          <note len="12" key="13" pan="0" vol="200" pos="696"/>
          <note len="12" key="13" pan="0" vol="200" pos="708"/>
          <note len="12" key="13" pan="0" vol="200" pos="720"/>
          <note len="12" key="13" pan="0" vol="200" pos="732"/>
          <note len="12" key="13" pan="0" vol="200" pos="744"/>
          <note len="12" key="13" pan="0" vol="200" pos="756"/>
          <note len="48" key="12" pan="0" vol="200" pos="768"/>
          <note len="12" key="12" pan="0" vol="200" pos="816"/>
          <note len="12" key="12" pan="0" vol="200" pos="828"/>
          <note len="12" key="12" pan="0" vol="200" pos="840"/>
          <note len="12" key="12" pan="0" vol="200" pos="852"/>
          <note len="12" key="12" pan="0" vol="200" pos="864"/>
          <note len="12" key="12" pan="0" vol="200" pos="876"/>
          <note len="12" key="12" pan="0" vol="200" pos="888"/>
          <note len="12" key="12" pan="0" vol="200" pos="900"/>
          <note len="12" key="12" pan="0" vol="200" pos="912"/>
          <note len="12" key="12" pan="0" vol="200" pos="924"/>
          <note len="12" key="12" pan="0" vol="200" pos="936"/>
          <note len="12" key="12" pan="0" vol="200" pos="948"/>
          <note len="12" key="12" pan="0" vol="200" pos="960"/>
          <note len="12" key="12" pan="0" vol="200" pos="972"/>
          <note len="12" key="12" pan="0" vol="200" pos="984"/>
          <note len="12" key="12" pan="0" vol="200" pos="996"/>
          <note len="12" key="12" pan="0" vol="200" pos="1008"/>
          <note len="12" key="12" pan="0" vol="200" pos="1020"/>
          <note len="12" key="12" pan="0" vol="200" pos="1032"/>
          <note len="12" key="12" pan="0" vol="200" pos="1044"/>
          <note len="12" key="12" pan="0" vol="200" pos="1056"/>
          <note len="12" key="12" pan="0" vol="200" pos="1068"/>
          <note len="12" key="12" pan="0" vol="200" pos="1080"/>
          <note len="12" key="12" pan="0" vol="200" pos="1092"/>
          <note len="12" key="12" pan="0" vol="200" pos="1104"/>
          <note len="12" key="12" pan="0" vol="200" pos="1116"/>
          <note len="12" key="12" pan="0" vol="200" pos="1128"/>
          <note len="12" key="12" pan="0" vol="200" pos="1140"/>
          <note len="48" key="16" pan="0" vol="200" pos="1152"/>
          <note len="12" key="16" pan="0" vol="200" pos="1200"/>
          <note len="12" key="16" pan="0" vol="200" pos="1212"/>
          <note len="12" key="16" pan="0" vol="200" pos="1224"/>
          <note len="12" key="16" pan="0" vol="200" pos="1236"/>
          <note len="12" key="16" pan="0" vol="200" pos="1248"/>
          <note len="12" key="16" pan="0" vol="200" pos="1260"/>
          <note len="12" key="16" pan="0" vol="200" pos="1272"/>
          <note len="12" key="16" pan="0" vol="200" pos="1284"/>
          <note len="12" key="16" pan="0" vol="200" pos="1296"/>
          <note len="12" key="16" pan="0" vol="200" pos="1308"/>
          <note len="12" key="16" pan="0" vol="200" pos="1320"/>
          <note len="12" key="16" pan="0" vol="200" pos="1332"/>
          <note len="12" key="16" pan="0" vol="200" pos="1344"/>
          <note len="12" key="16" pan="0" vol="200" pos="1356"/>
          <note len="12" key="16" pan="0" vol="200" pos="1368"/>
          <note len="12" key="16" pan="0" vol="200" pos="1380"/>
          <note len="12" key="16" pan="0" vol="200" pos="1392"/>
          <note len="12" key="16" pan="0" vol="200" pos="1404"/>
          <note len="12" key="16" pan="0" vol="200" pos="1416"/>
          <note len="12" key="16" pan="0" vol="200" pos="1428"/>
          <note len="12" key="16" pan="0" vol="200" pos="1440"/>
          <note len="12" key="16" pan="0" vol="200" pos="1452"/>
          <note len="12" key="16" pan="0" vol="200" pos="1464"/>
          <note len="12" key="16" pan="0" vol="200" pos="1476"/>
          <note len="12" key="16" pan="0" vol="200" pos="1488"/>
          <note len="12" key="16" pan="0" vol="200" pos="1500"/>
          <note len="12" key="16" pan="0" vol="200" pos="1512"/>
          <note len="12" key="16" pan="0" vol="200" pos="1524"/>
        </pattern>
        <pattern muted="0" name="" steps="16" type="1" pos="61056">
          <note len="48" key="15" pan="0" vol="200" pos="0"/>
          <note len="12" key="15" pan="0" vol="200" pos="48"/>
          <note len="12" key="15" pan="0" vol="200" pos="60"/>
          <note len="12" key="15" pan="0" vol="200" pos="72"/>
          <note len="12" key="15" pan="0" vol="200" pos="84"/>
          <note len="12" key="15" pan="0" vol="200" pos="96"/>
          <note len="12" key="15" pan="0" vol="200" pos="108"/>
          <note len="12" key="15" pan="0" vol="200" pos="120"/>
          <note len="12" key="15" pan="0" vol="200" pos="132"/>
          <note len="12" key="15" pan="0" vol="200" pos="144"/>
          <note len="12" key="15" pan="0" vol="200" pos="156"/>
          <note len="12" key="15" pan="0" vol="200" pos="168"/>
          <note len="12" key="15" pan="0" vol="200" pos="180"/>
          <note len="12" key="15" pan="0" vol="200" pos="192"/>
          <note len="12" key="15" pan="0" vol="200" pos="204"/>
          <note len="12" key="15" pan="0" vol="200" pos="216"/>
          <note len="12" key="15" pan="0" vol="200" pos="228"/>
          <note len="12" key="15" pan="0" vol="200" pos="240"/>
          <note len="12" key="15" pan="0" vol="200" pos="252"/>
          <note len="12" key="15" pan="0" vol="200" pos="264"/>
          <note len="12" key="15" pan="0" vol="200" pos="276"/>
          <note len="12" key="15" pan="0" vol="200" pos="288"/>
          <note len="12" key="15" pan="0" vol="200" pos="300"/>
          <note len="12" key="15" pan="0" vol="200" pos="312"/>
          <note len="12" key="15" pan="0" vol="200" pos="324"/>
          <note len="12" key="15" pan="0" vol="200" pos="336"/>
          <note len="12" key="15" pan="0" vol="200" pos="348"/>
          <note len="12" key="15" pan="0" vol="200" pos="360"/>
          <note len="12" key="15" pan="0" vol="200" pos="372"/>
          <note len="48" key="13" pan="0" vol="200" pos="384"/>
          <note len="12" key="13" pan="0" vol="200" pos="432"/>
          <note len="12" key="13" pan="0" vol="200" pos="444"/>
          <note len="12" key="13" pan="0" vol="200" pos="456"/>
          <note len="12" key="13" pan="0" vol="200" pos="468"/>
          <note len="12" key="13" pan="0" vol="200" pos="480"/>
          <note len="12" key="13" pan="0" vol="200" pos="492"/>
          <note len="12" key="13" pan="0" vol="200" pos="504"/>
          <note len="12" key="13" pan="0" vol="200" pos="516"/>
          <note len="12" key="13" pan="0" vol="200" pos="528"/>
          <note len="12" key="13" pan="0" vol="200" pos="540"/>
          <note len="12" key="13" pan="0" vol="200" pos="552"/>
          <note len="12" key="13" pan="0" vol="200" pos="564"/>
          <note len="12" key="13" pan="0" vol="200" pos="576"/>
          <note len="12" key="13" pan="0" vol="200" pos="588"/>
          <note len="12" key="13" pan="0" vol="200" pos="600"/>
          <note len="12" key="13" pan="0" vol="200" pos="612"/>
          <note len="12" key="13" pan="0" vol="200" pos="624"/>
          <note len="12" key="13" pan="0" vol="200" pos="636"/>
          <note len="12" key="13" pan="0" vol="200" pos="648"/>
          <note len="12" key="13" pan="0" vol="200" pos="660"/>
          <note len="12" key="13" pan="0" vol="200" pos="672"/>
          <note len="12" key="13" pan="0" vol="200" pos="684"/>
          <note len="12" key="13" pan="0" vol="200" pos="696"/>
          <note len="12" key="13" pan="0" vol="200" pos="708"/>
          <note len="12" key="13" pan="0" vol="200" pos="720"/>
          <note len="12" key="13" pan="0" vol="200" pos="732"/>
          <note len="12" key="13" pan="0" vol="200" pos="744"/>
          <note len="12" key="13" pan="0" vol="200" pos="756"/>
          <note len="48" key="12" pan="0" vol="200" pos="768"/>
          <note len="12" key="12" pan="0" vol="200" pos="816"/>
          <note len="12" key="12" pan="0" vol="200" pos="828"/>
          <note len="12" key="12" pan="0" vol="200" pos="840"/>
          <note len="12" key="12" pan="0" vol="200" pos="852"/>
          <note len="12" key="12" pan="0" vol="200" pos="864"/>
          <note len="12" key="12" pan="0" vol="200" pos="876"/>
          <note len="12" key="12" pan="0" vol="200" pos="888"/>
          <note len="12" key="12" pan="0" vol="200" pos="900"/>
          <note len="12" key="12" pan="0" vol="200" pos="912"/>
          <note len="12" key="12" pan="0" vol="200" pos="924"/>
          <note len="12" key="12" pan="0" vol="200" pos="936"/>
          <note len="12" key="12" pan="0" vol="200" pos="948"/>
          <note len="12" key="12" pan="0" vol="200" pos="960"/>
          <note len="12" key="12" pan="0" vol="200" pos="972"/>
          <note len="12" key="12" pan="0" vol="200" pos="984"/>
          <note len="12" key="12" pan="0" vol="200" pos="996"/>
          <note len="12" key="12" pan="0" vol="200" pos="1008"/>
          <note len="12" key="12" pan="0" vol="200" pos="1020"/>
          <note len="12" key="12" pan="0" vol="200" pos="1032"/>
          <note len="12" key="12" pan="0" vol="200" pos="1044"/>
          <note len="12" key="12" pan="0" vol="200" pos="1056"/>
          <note len="12" key="12" pan="0" vol="200" pos="1068"/>
          <note len="12" key="12" pan="0" vol="200" pos="1080"/>
          <note len="12" key="12" pan="0" vol="200" pos="1092"/>
          <note len="12" key="12" pan="0" vol="200" pos="1104"/>
          <note len="12" key="12" pan="0" vol="200" pos="1116"/>
          <note len="12" key="12" pan="0" vol="200" pos="1128"/>
          <note len="12" key="12" pan="0" vol="200" pos="1140"/>
          <note len="48" key="16" pan="0" vol="200" pos="1152"/>
          <note len="12" key="16" pan="0" vol="200" pos="1200"/>
          <note len="12" key="16" pan="0" vol="200" pos="1212"/>
          <note len="12" key="16" pan="0" vol="200" pos="1224"/>
          <note len="12" key="16" pan="0" vol="200" pos="1236"/>
          <note len="12" key="16" pan="0" vol="200" pos="1248"/>
          <note len="12" key="16" pan="0" vol="200" pos="1260"/>
          <note len="12" key="16" pan="0" vol="200" pos="1272"/>
          <note len="12" key="16" pan="0" vol="200" pos="1284"/>
          <note len="12" key="16" pan="0" vol="200" pos="1296"/>
          <note len="12" key="16" pan="0" vol="200" pos="1308"/>
          <note len="12" key="16" pan="0" vol="200" pos="1320"/>
          <note len="12" key="16" pan="0" vol="200" pos="1332"/>
          <note len="12" key="16" pan="0" vol="200" pos="1344"/>
          <note len="12" key="16" pan="0" vol="200" pos="1356"/>
          <note len="12" key="16" pan="0" vol="200" pos="1368"/>
          <note len="12" key="16" pan="0" vol="200" pos="1380"/>
          <note len="12" key="16" pan="0" vol="200" pos="1392"/>
          <note len="12" key="16" pan="0" vol="200" pos="1404"/>
          <note len="12" key="16" pan="0" vol="200" pos="1416"/>
          <note len="12" key="16" pan="0" vol="200" pos="1428"/>
          <note len="12" key="16" pan="0" vol="200" pos="1440"/>
          <note len="12" key="16" pan="0" vol="200" pos="1452"/>
          <note len="12" key="16" pan="0" vol="200" pos="1464"/>
          <note len="12" key="16" pan="0" vol="200" pos="1476"/>
          <note len="12" key="16" pan="0" vol="200" pos="1488"/>
          <note len="12" key="16" pan="0" vol="200" pos="1500"/>
          <note len="12" key="16" pan="0" vol="200" pos="1512"/>
          <note len="12" key="16" pan="0" vol="200" pos="1524"/>
        </pattern>
        <pattern muted="0" name="" steps="16" type="1" pos="62592">
          <note len="192" key="15" pan="0" vol="197" pos="0"/>
          <note len="192" key="22" pan="0" vol="197" pos="192"/>
          <note len="192" key="23" pan="0" vol="197" pos="384"/>
          <note len="192" key="25" pan="0" vol="197" pos="576"/>
          <note len="12" key="20" pan="0" vol="197" pos="768"/>
          <note len="12" key="20" pan="0" vol="197" pos="780"/>
          <note len="12" key="20" pan="0" vol="197" pos="792"/>
          <note len="12" key="20" pan="0" vol="197" pos="804"/>
          <note len="12" key="20" pan="0" vol="197" pos="816"/>
          <note len="12" key="20" pan="0" vol="197" pos="828"/>
          <note len="12" key="20" pan="0" vol="197" pos="840"/>
          <note len="12" key="20" pan="0" vol="197" pos="852"/>
          <note len="12" key="20" pan="0" vol="197" pos="864"/>
          <note len="12" key="20" pan="0" vol="197" pos="876"/>
          <note len="12" key="20" pan="0" vol="197" pos="888"/>
          <note len="12" key="20" pan="0" vol="197" pos="900"/>
          <note len="12" key="20" pan="0" vol="197" pos="912"/>
          <note len="12" key="20" pan="0" vol="197" pos="924"/>
          <note len="12" key="20" pan="0" vol="197" pos="936"/>
          <note len="12" key="20" pan="0" vol="197" pos="948"/>
          <note len="12" key="22" pan="0" vol="197" pos="960"/>
          <note len="12" key="22" pan="0" vol="197" pos="972"/>
          <note len="12" key="22" pan="0" vol="197" pos="984"/>
          <note len="12" key="22" pan="0" vol="197" pos="996"/>
          <note len="12" key="22" pan="0" vol="197" pos="1008"/>
          <note len="12" key="22" pan="0" vol="197" pos="1020"/>
          <note len="12" key="22" pan="0" vol="197" pos="1032"/>
          <note len="12" key="22" pan="0" vol="197" pos="1044"/>
          <note len="12" key="22" pan="0" vol="197" pos="1056"/>
          <note len="12" key="22" pan="0" vol="197" pos="1068"/>
          <note len="12" key="22" pan="0" vol="197" pos="1080"/>
          <note len="12" key="22" pan="0" vol="197" pos="1092"/>
          <note len="12" key="22" pan="0" vol="197" pos="1104"/>
          <note len="12" key="22" pan="0" vol="197" pos="1116"/>
          <note len="12" key="22" pan="0" vol="197" pos="1128"/>
          <note len="12" key="22" pan="0" vol="197" pos="1140"/>
        </pattern>
        <pattern muted="0" name="" steps="16" type="1" pos="63744">
          <note len="12" key="18" pan="0" vol="197" pos="0"/>
          <note len="12" key="15" pan="0" vol="197" pos="12"/>
          <note len="12" key="17" pan="0" vol="197" pos="24"/>
          <note len="12" key="18" pan="0" vol="197" pos="36"/>
          <note len="12" key="20" pan="0" vol="197" pos="48"/>
          <note len="12" key="17" pan="0" vol="197" pos="60"/>
          <note len="12" key="18" pan="0" vol="197" pos="72"/>
          <note len="12" key="20" pan="0" vol="197" pos="84"/>
          <note len="12" key="22" pan="0" vol="197" pos="96"/>
          <note len="12" key="18" pan="0" vol="197" pos="108"/>
          <note len="12" key="20" pan="0" vol="197" pos="120"/>
          <note len="12" key="22" pan="0" vol="197" pos="132"/>
          <note len="12" key="23" pan="0" vol="197" pos="144"/>
          <note len="12" key="20" pan="0" vol="197" pos="156"/>
          <note len="12" key="22" pan="0" vol="197" pos="168"/>
          <note len="12" key="23" pan="0" vol="197" pos="180"/>
          <note len="12" key="25" pan="0" vol="197" pos="192"/>
          <note len="12" key="23" pan="0" vol="197" pos="204"/>
          <note len="12" key="22" pan="0" vol="197" pos="216"/>
          <note len="12" key="20" pan="0" vol="197" pos="228"/>
          <note len="12" key="18" pan="0" vol="197" pos="240"/>
          <note len="12" key="20" pan="0" vol="197" pos="252"/>
          <note len="12" key="23" pan="0" vol="197" pos="264"/>
          <note len="12" key="22" pan="0" vol="197" pos="276"/>
          <note len="12" key="20" pan="0" vol="197" pos="288"/>
          <note len="12" key="18" pan="0" vol="197" pos="300"/>
          <note len="12" key="17" pan="0" vol="197" pos="312"/>
          <note len="12" key="18" pan="0" vol="197" pos="324"/>
          <note len="12" key="22" pan="0" vol="197" pos="336"/>
          <note len="12" key="20" pan="0" vol="197" pos="348"/>
          <note len="12" key="18" pan="0" vol="197" pos="360"/>
          <note len="12" key="17" pan="0" vol="197" pos="372"/>
          <note len="12" key="15" pan="0" vol="197" pos="384"/>
          <note len="12" key="17" pan="0" vol="197" pos="396"/>
          <note len="12" key="20" pan="0" vol="200" pos="408"/>
          <note len="12" key="18" pan="0" vol="200" pos="420"/>
          <note len="12" key="17" pan="0" vol="200" pos="432"/>
          <note len="12" key="15" pan="0" vol="200" pos="444"/>
          <note len="12" key="13" pan="0" vol="200" pos="456"/>
          <note len="12" key="15" pan="0" vol="200" pos="468"/>
          <note len="12" key="18" pan="0" vol="200" pos="480"/>
          <note len="12" key="17" pan="0" vol="200" pos="492"/>
          <note len="12" key="15" pan="0" vol="200" pos="504"/>
          <note len="12" key="13" pan="0" vol="200" pos="516"/>
          <note len="12" key="17" pan="0" vol="200" pos="528"/>
          <note len="12" key="15" pan="0" vol="200" pos="540"/>
          <note len="12" key="13" pan="0" vol="200" pos="552"/>
          <note len="12" key="15" pan="0" vol="200" pos="564"/>
          <note len="192" key="15" pan="0" vol="200" pos="576"/>
        </pattern>
      </track>
      <track muted="0" name="stratobodomarcticaneryus" type="0" solo="0" mutedBeforeSolo="0">
        <instrumenttrack usemasterpitch="1" pitchrange="2" pan="9.6" basenote="57" vol="200" fxch="17">
          <pitch id="6553159" scale_type="linear" value="0"/>
          <instrument name="tripleoscillator">
            <tripleoscillator wavetype1="0" finel1="0" coarse0="0" wavetype2="0" finer0="0" finer1="0" userwavefile1="" pan0="0" vol2="0" phoffset2="0" stphdetun0="0" coarse1="0" finel2="0" finer2="0" stphdetun2="0" pan1="0" vol0="200" phoffset0="0" modalgo1="4" phoffset1="0" stphdetun1="0" vol1="19" userwavefile2="" modalgo2="2" pan2="0" finel0="0" coarse2="-24" modalgo3="2" wavetype0="0" userwavefile0="">
              <key/>
            </tripleoscillator>
          </instrument>
          <eldata fcut="1456" fwet="0" fres="0.89" ftype="17">
            <elvol rel="0" lspd_syncmode="0" pdel="0" lspd_numerator="4" lpdel="0" amt="0" ctlenvamt="0" lshp="0" userwavefile="" dec="0.5" lspd_denominator="4" sustain="0.5" lspd="0.1" latt="0" hold="0.5" att="0" x100="0" lamt="0"/>
            <elcut rel="0" lspd_syncmode="0" pdel="0" lspd_numerator="4" lpdel="0" amt="0" ctlenvamt="0" lshp="2" userwavefile="" dec="0.5" lspd_denominator="4" sustain="0.5" lspd="0.037" latt="0" hold="0.5" att="0" x100="1" lamt="0"/>
            <elres rel="0.1" lspd_syncmode="0" pdel="0" lspd_numerator="4" lpdel="0" amt="0" ctlenvamt="0" lshp="1" userwavefile="" dec="0.5" lspd_denominator="4" sustain="0.5" lspd="0.152" latt="0" hold="0.5" att="0" x100="0" lamt="0"/>
          </eldata>
          <chordcreator chord="0" chordrange="1" chord-enabled="0"/>
          <arpeggiator arptime_denominator="4" arptime="200" arp-enabled="0" arpcycle="0" arpgate="100" arp="0" arpmiss="0" arpdir="0" arprange="1" arpmode="0" arpskip="0" arptime_syncmode="0" arptime_numerator="4"/>
          <midiport inputcontroller="0" fixedinputvelocity="-1" readable="0" outputcontroller="0" fixedoutputnote="-1" outputprogram="1" writable="0" fixedoutputvelocity="-1" basevelocity="63" outputchannel="1" inputchannel="0"/>
          <fxchain enabled="1" numofeffects="7">
            <effect wet="1" autoquit_denominator="4" autoquit="1" name="ladspaeffect" on="0" autoquit_syncmode="0" gate="0" autoquit_numerator="4">
              <ladspacontrols ports="7">
                <port00 data="3.4875"/>
                <port01 data="180"/>
                <port02 data="100"/>
                <port03 data="17"/>
                <port04 data="20000"/>
                <port05 data="0.55"/>
                <port06 data="-0.6875"/>
              </ladspacontrols>
              <key>
                <attribute name="file" value="tap_chorusflanger"/>
                <attribute name="plugin" value="tap_chorusflanger"/>
              </key>
            </effect>
            <effect wet="1" autoquit_denominator="4" autoquit="1" name="eq" on="1" autoquit_syncmode="0" gate="0" autoquit_numerator="4">
              <Eq LPres="0.707" Peak3gain="0" HighShelfres="1.4" LP12="1" Peak2gain="0" Peak2active="0" HP48="0" HP="1" HPres="0.707" LP24="0" AnalyseIn="1" Peak2bw="0.3" LP48="0" HP24="1" Highshelfactive="0" Peak3bw="0.3" Peak4gain="0" Lowshelfgain="0" Peak1active="0" LPactive="1" LowShelfres="1.4" Peak4bw="0.3" Peak3active="0" Peak4active="0" HighShelfgain="0" Peak1bw="0.3" Lowshelfactive="0" Outputgain="0.8" LP="0" AnalyseOut="1" HP12="0" HPactive="1">
                <Inputgain id="6442382" scale_type="log" value="0"/>
                <Peak1gain id="988924" scale_type="log" value="0"/>
                <HPfreq id="6872021" scale_type="log" value="260.717"/>
                <LowShelffreq id="7479213" scale_type="log" value="80"/>
                <Peak1freq id="7350563" scale_type="log" value="120"/>
                <Peak2freq id="5255217" scale_type="log" value="250"/>
                <Peak3freq id="1127550" scale_type="log" value="2000"/>
                <Peak4freq id="1277792" scale_type="log" value="4000"/>
                <Highshelffreq id="6719949" scale_type="log" value="12000"/>
                <LPfreq id="1826032" scale_type="log" value="1667.01"/>
              </Eq>
              <key/>
            </effect>
            <effect wet="1" autoquit_denominator="4" autoquit="1" name="waveshaper" on="0" autoquit_syncmode="0" gate="0" autoquit_numerator="4">
              <waveshapercontrols inputGain="5" outputGain="1" clipInput="1" waveShape="AACAPwAAgD8AAIA/AACAPwAAgD8AAIA/AACAPwAAgD8AAIA/AACAPwAAgD8AAIA/AACAPwAAgD8AAIA/AACAPwAAgD8AAIA/AACAPwAAgD8AAIA/AACAPwAAgD8AAIA/AACAPwAAgD8AAIA/AACAPwAAgD8AAIA/AACAPwAAgD8AAIA/AACAPwAAgD8AAIA/AACAPwAAgD8AAIA/AACAPwAAgD8AAIA/AACAPwAAgD8AAIA/AACAPwAAgD8AAIA/AACAPwAAgD8AAIA/AACAPwAAgD8AAIA/AACAPwAAgD8AAIA/AACAPwAAgD8AAIA/AACAPwAAgD8AAIA/AACAPwAAgD8AAIA/AACAPwAAgD8AAIA/AACAPwAAgD8AAIA/AACAPwAAgD8AAIA/AACAPwAAgD8AAIA/AACAPwAAgD8AAIA/AACAPwAAgD8AAIA/AACAPwAAgD8AAIA/AACAPwAAgD8AAIA/AACAPwAAgD8AAIA/AACAPwAAgD8AAIA/AACAPwAAgD8AAIA/AACAPwAAgD8AAIA/AACAPwAAgD8AAIA/AACAPwAAgD8AAIA/AACAPwAAgD8AAIA/AACAPwAAgD8AAIA/AACAPwAAgD8AAIA/AACAPwAAgD8AAIA/AACAPwAAgD8AAIA/AACAPwAAgD8AAIA/AACAPwAAgD8AAIA/AACAPwAAgD8AAIA/AACAPwAAgD8AAIA/AACAPwAAgD8AAIA/AACAPwAAgD8AAIA/AACAPwAAgD8AAIA/AACAPwAAgD8AAIA/AACAPwAAgD8AAIA/AACAPwAAgD8AAIA/AACAPwAAgD8AAIA/AACAPwAAgD8AAIA/AACAPwAAgD8AAIA/AACAPwAAgD8AAIA/AACAPwAAgD8AAIA/AACAPwAAgD8AAIA/AACAPwAAgD8AAIA/AACAPwAAgD8AAIA/AACAPwAAgD8AAIA/AACAPwAAgD8AAIA/AACAPwAAgD8AAIA/AACAPwAAgD8AAIA/AACAPwAAgD8AAIA/AACAPwAAgD8AAIA/AACAPwAAgD8AAIA/AACAPwAAgD8="/>
              <key/>
            </effect>
            <effect wet="1" autoquit_denominator="4" autoquit="1" name="ladspaeffect" on="1" autoquit_syncmode="0" gate="0" autoquit_numerator="4">
              <ladspacontrols link="1" ports="14">
                <port01 data="10" link="1"/>
                <port02 data="1" link="1"/>
                <port03 data="20" link="1"/>
                <port04 data="20" link="1"/>
                <port05 data="20" link="1"/>
                <port06 data="20" link="1"/>
                <port07 data="1" link="1"/>
                <port11 data="10"/>
                <port12 data="1"/>
                <port13 data="20"/>
                <port14 data="20"/>
                <port15 data="20"/>
                <port16 data="20"/>
                <port17 data="1"/>
              </ladspacontrols>
              <key>
                <attribute name="file" value="caps"/>
                <attribute name="plugin" value="AmpIV"/>
              </key>
            </effect>
            <effect wet="1" autoquit_denominator="4" autoquit="1" name="ladspaeffect" on="0" autoquit_syncmode="0" gate="0" autoquit_numerator="4">
              <ladspacontrols link="1" ports="4">
                <port01 data="1" link="1"/>
                <port02 data="-11.4" link="1"/>
                <port11 data="1"/>
                <port12 data="-11.4"/>
              </ladspacontrols>
              <key>
                <attribute name="file" value="caps"/>
                <attribute name="plugin" value="CabinetI"/>
              </key>
            </effect>
            <effect wet="1" autoquit_denominator="4" autoquit="1" name="ladspaeffect" on="1" autoquit_syncmode="0" gate="0" autoquit_numerator="4">
              <ladspacontrols link="1" ports="4">
                <port00 link="1">
                  <data id="8382794" scale_type="log" value="6549.87"/>
                </port00>
                <port01 data="9" link="1"/>
                <port10>
                  <data id="4111084" scale_type="log" value="6549.87"/>
                </port10>
                <port11 data="9"/>
              </ladspacontrols>
              <key>
                <attribute name="file" value="lowpass_iir_1891"/>
                <attribute name="plugin" value="lowpass_iir"/>
              </key>
            </effect>
            <effect wet="1" autoquit_denominator="4" autoquit="1" name="ladspaeffect" on="1" autoquit_syncmode="0" gate="0" autoquit_numerator="4">
              <ladspacontrols ports="4">
                <port02 data="0.502"/>
                <port03 data="0.3745"/>
                <port04 data="0.218641"/>
                <port05 data="0.2075"/>
              </ladspacontrols>
              <key>
                <attribute name="file" value="caps"/>
                <attribute name="plugin" value="Plate2x2"/>
              </key>
            </effect>
          </fxchain>
        </instrumenttrack>
        <pattern muted="0" name="" steps="16" type="1" pos="47040">
          <note len="12" key="73" pan="0" vol="195" pos="0"/>
          <note len="12" key="71" pan="0" vol="195" pos="12"/>
          <note len="12" key="70" pan="0" vol="195" pos="24"/>
          <note len="12" key="68" pan="0" vol="195" pos="36"/>
          <note len="12" key="71" pan="0" vol="195" pos="48"/>
          <note len="12" key="70" pan="0" vol="195" pos="60"/>
          <note len="12" key="68" pan="0" vol="195" pos="72"/>
          <note len="12" key="66" pan="0" vol="195" pos="84"/>
          <note len="12" key="70" pan="0" vol="195" pos="96"/>
          <note len="12" key="68" pan="0" vol="195" pos="108"/>
          <note len="12" key="66" pan="0" vol="195" pos="120"/>
          <note len="12" key="65" pan="0" vol="195" pos="132"/>
          <note len="12" key="68" pan="0" vol="195" pos="144"/>
          <note len="12" key="66" pan="0" vol="195" pos="156"/>
          <note len="12" key="65" pan="0" vol="195" pos="168"/>
          <note len="12" key="66" pan="0" vol="195" pos="180"/>
        </pattern>
        <pattern muted="0" name="" steps="16" type="1" pos="47232">
          <note len="120" key="63" pan="0" vol="193" pos="0"/>
          <note len="24" key="58" pan="0" vol="193" pos="120"/>
          <note len="24" key="66" pan="0" vol="193" pos="144"/>
          <note len="24" key="58" pan="0" vol="193" pos="168"/>
          <note len="120" key="65" pan="0" vol="193" pos="192"/>
          <note len="12" key="65" pan="0" vol="193" pos="312"/>
          <note len="12" key="66" pan="0" vol="193" pos="324"/>
          <note len="12" key="70" pan="0" vol="193" pos="336"/>
          <note len="12" key="66" pan="0" vol="193" pos="348"/>
          <note len="12" key="65" pan="0" vol="193" pos="360"/>
          <note len="12" key="66" pan="0" vol="193" pos="372"/>
          <note len="144" key="70" pan="0" vol="193" pos="384"/>
          <note len="24" key="68" pan="0" vol="193" pos="528"/>
          <note len="24" key="66" pan="0" vol="193" pos="552"/>
          <note len="48" key="65" pan="0" vol="193" pos="576"/>
          <note len="48" key="66" pan="0" vol="197" pos="624"/>
          <note len="12" key="61" pan="0" vol="193" pos="672"/>
          <note len="12" key="61" pan="0" vol="193" pos="684"/>
          <note len="12" key="61" pan="0" vol="193" pos="696"/>
          <note len="12" key="61" pan="0" vol="193" pos="708"/>
          <note len="12" key="58" pan="0" vol="193" pos="720"/>
          <note len="12" key="54" pan="0" vol="193" pos="732"/>
          <note len="12" key="56" pan="0" vol="193" pos="744"/>
          <note len="12" key="58" pan="0" vol="193" pos="756"/>
          <note len="96" key="59" pan="0" vol="193" pos="768"/>
          <note len="48" key="63" pan="0" vol="193" pos="864"/>
          <note len="48" key="66" pan="0" vol="193" pos="912"/>
          <note len="96" key="66" pan="0" vol="193" pos="960"/>
          <note len="12" key="65" pan="0" vol="193" pos="1056"/>
          <note len="12" key="58" pan="0" vol="193" pos="1068"/>
          <note len="12" key="58" pan="0" vol="193" pos="1080"/>
          <note len="12" key="58" pan="0" vol="193" pos="1092"/>
          <note len="12" key="66" pan="0" vol="193" pos="1104"/>
          <note len="12" key="63" pan="0" vol="193" pos="1116"/>
          <note len="12" key="65" pan="0" vol="193" pos="1128"/>
          <note len="12" key="66" pan="0" vol="193" pos="1140"/>
          <note len="48" key="73" pan="0" vol="193" pos="1152"/>
          <note len="12" key="71" pan="0" vol="193" pos="1200"/>
          <note len="12" key="73" pan="0" vol="193" pos="1212"/>
          <note len="48" key="71" pan="0" vol="193" pos="1224"/>
          <note len="12" key="70" pan="0" vol="193" pos="1272"/>
          <note len="12" key="71" pan="0" vol="193" pos="1284"/>
          <note len="12" key="70" pan="0" vol="193" pos="1296"/>
          <note len="12" key="68" pan="0" vol="193" pos="1308"/>
          <note len="12" key="66" pan="0" vol="193" pos="1320"/>
          <note len="12" key="70" pan="0" vol="193" pos="1332"/>
          <note len="72" key="68" pan="0" vol="193" pos="1344"/>
          <note len="12" key="66" pan="0" vol="193" pos="1416"/>
          <note len="12" key="68" pan="0" vol="193" pos="1428"/>
          <note len="12" key="70" pan="0" vol="193" pos="1440"/>
          <note len="12" key="71" pan="0" vol="193" pos="1452"/>
          <note len="12" key="70" pan="0" vol="193" pos="1464"/>
          <note len="12" key="68" pan="0" vol="193" pos="1476"/>
          <note len="12" key="70" pan="0" vol="193" pos="1488"/>
          <note len="12" key="68" pan="0" vol="193" pos="1500"/>
          <note len="12" key="66" pan="0" vol="193" pos="1512"/>
          <note len="12" key="65" pan="0" vol="193" pos="1524"/>
          <note len="48" key="66" pan="0" vol="193" pos="1536"/>
          <note len="12" key="58" pan="0" vol="193" pos="1584"/>
          <note len="12" key="58" pan="0" vol="193" pos="1596"/>
          <note len="48" key="65" pan="0" vol="193" pos="1608"/>
          <note len="12" key="58" pan="0" vol="193" pos="1656"/>
          <note len="12" key="58" pan="0" vol="193" pos="1668"/>
          <note len="24" key="66" pan="0" vol="193" pos="1680"/>
          <note len="12" key="58" pan="0" vol="193" pos="1704"/>
          <note len="12" key="58" pan="0" vol="193" pos="1716"/>
          <note len="144" key="70" pan="0" vol="193" pos="1728"/>
          <note len="48" key="65" pan="0" vol="193" pos="1872"/>
          <note len="12" key="63" pan="0" vol="193" pos="1920"/>
          <note len="12" key="65" pan="0" vol="193" pos="1932"/>
          <note len="216" key="63" pan="0" vol="193" pos="1944"/>
          <note len="48" key="66" pan="0" vol="193" pos="2160"/>
          <note len="24" key="68" pan="0" vol="193" pos="2208"/>
          <note len="12" key="66" pan="0" vol="193" pos="2232"/>
          <note len="12" key="68" pan="0" vol="193" pos="2244"/>
          <note len="24" key="70" pan="0" vol="193" pos="2256"/>
          <note len="12" key="68" pan="0" vol="193" pos="2280"/>
          <note len="12" key="70" pan="0" vol="193" pos="2292"/>
          <note len="72" key="71" pan="0" vol="193" pos="2304"/>
          <note len="72" key="70" pan="0" vol="193" pos="2376"/>
          <note len="48" key="68" pan="0" vol="193" pos="2448"/>
          <note len="12" key="66" pan="0" vol="193" pos="2496"/>
          <note len="12" key="65" pan="0" vol="193" pos="2508"/>
          <note len="12" key="63" pan="0" vol="193" pos="2520"/>
          <note len="12" key="58" pan="0" vol="193" pos="2532"/>
          <note len="12" key="63" pan="0" vol="193" pos="2544"/>
          <note len="12" key="61" pan="0" vol="193" pos="2556"/>
          <note len="12" key="59" pan="0" vol="193" pos="2568"/>
          <note len="12" key="58" pan="0" vol="193" pos="2580"/>
          <note len="12" key="66" pan="0" vol="193" pos="2592"/>
          <note len="12" key="65" pan="0" vol="193" pos="2604"/>
          <note len="12" key="63" pan="0" vol="193" pos="2616"/>
          <note len="12" key="58" pan="0" vol="193" pos="2628"/>
          <note len="48" key="75" pan="0" vol="193" pos="2640"/>
          <note len="192" key="73" pan="0" vol="193" pos="2688"/>
        </pattern>
        <pattern muted="0" name="" steps="16" type="0" pos="56256"/>
      </track>
      <track muted="0" name="leadsynth pitch" type="5" solo="0" mutedBeforeSolo="0">
        <automationtrack/>
        <automationpattern mute="0" len="192" name="stratobodomneryus>Pitch" tens="1" prog="1" pos="47616">
          <time value="-200" pos="0"/>
          <time value="-30" pos="24"/>
          <time value="-1" pos="48"/>
          <time value="0" pos="120"/>
          <object id="6553159"/>
        </automationpattern>
        <automationpattern mute="0" len="192" name="stratobodomneryus>Pitch" tens="1" prog="0" pos="46848">
          <time value="0" pos="0"/>
          <object id="6553159"/>
        </automationpattern>
        <automationpattern mute="0" len="192" name="stratobodomneryus>Pitch" tens="1" prog="2" pos="48000">
          <time value="-101" pos="0"/>
          <time value="0" pos="12"/>
          <time value="0" pos="24"/>
          <time value="0" pos="48"/>
          <time value="-1" pos="168"/>
          <time value="-12" pos="180"/>
          <time value="-101" pos="192"/>
          <object id="6553159"/>
        </automationpattern>
        <automationpattern mute="0" len="192" name="stratobodomneryus>Pitch" tens="1" prog="2" pos="48192">
          <time value="-101" pos="0"/>
          <time value="0" pos="24"/>
          <object id="6553159"/>
        </automationpattern>
        <automationpattern mute="0" len="192" name="stratobodomneryus>Pitch" tens="1" prog="2" pos="48384">
          <time value="-101" pos="0"/>
          <time value="0" pos="12"/>
          <object id="6553159"/>
        </automationpattern>
        <automationpattern mute="0" len="192" name="stratobodomneryus>Pitch" tens="1" prog="2" pos="48960">
          <time value="-101" pos="0"/>
          <time value="0" pos="36"/>
          <time value="-3" pos="72"/>
          <time value="0" pos="120"/>
          <time value="1" pos="144"/>
          <object id="6553159"/>
        </automationpattern>
        <automationpattern mute="0" len="192" name="stratobodomneryus>Pitch" tens="1" prog="2" pos="49536">
          <time value="-101" pos="0"/>
          <time value="0" pos="24"/>
          <object id="6553159"/>
        </automationpattern>
        <automationpattern mute="0" len="192" name="stratobodomneryus>Pitch" tens="1" prog="2" pos="49728">
          <time value="-100" pos="144"/>
          <time value="0" pos="156"/>
          <object id="6553159"/>
        </automationpattern>
        <automationpattern mute="0" len="192" name="stratobodomneryus>Pitch" tens="1" prog="2" pos="49920">
          <time value="0" pos="144"/>
          <time value="-200" pos="192"/>
          <object id="6553159"/>
        </automationpattern>
        <automationpattern mute="0" len="192" name="stratobodomneryus>Pitch" tens="1" prog="0" pos="5184">
          <time value="0" pos="0"/>
          <object id="6553159"/>
        </automationpattern>
        <automationpattern mute="0" len="192" name="stratobodomneryus>Pitch" tens="1" prog="0" pos="50112">
          <time value="0" pos="0"/>
          <object id="6553159"/>
        </automationpattern>
        <automationpattern mute="0" len="192" name="stratobodomneryus>Pitch" tens="1" prog="0" pos="47808">
          <time value="0" pos="0"/>
          <object id="6553159"/>
        </automationpattern>
        <automationpattern mute="0" len="192" name="stratobodomneryus>Pitch" tens="1" prog="0" pos="59328">
          <time value="0" pos="0"/>
          <object id="6553159"/>
        </automationpattern>
        <automationpattern mute="0" len="384" name="stratobodomneryus>Pitch" tens="1" prog="1" pos="59520">
          <time value="-198" pos="336"/>
          <time value="0" pos="360"/>
          <object id="6553159"/>
        </automationpattern>
        <automationpattern mute="0" len="192" name="stratobodomneryus>Pitch" tens="1" prog="1" pos="60672">
          <time value="-151" pos="0"/>
          <time value="0" pos="24"/>
          <object id="6553159"/>
        </automationpattern>
        <automationpattern mute="0" len="192" name="stratobodomneryus>Pitch" tens="1" prog="1" pos="60864">
          <time value="-151" pos="0"/>
          <time value="0" pos="24"/>
          <time value="-1" pos="96"/>
          <time value="200" pos="120"/>
          <object id="6553159"/>
        </automationpattern>
        <automationpattern mute="0" len="192" name="stratobodomneryus>Pitch" tens="1" prog="0" pos="61056">
          <time value="0" pos="0"/>
          <object id="6553159"/>
        </automationpattern>
        <automationpattern mute="0" len="192" name="stratobodomneryus>Pitch" tens="1" prog="1" pos="61440">
          <time value="-149" pos="144"/>
          <time value="0" pos="168"/>
          <object id="6553159"/>
        </automationpattern>
        <automationpattern mute="0" len="192" name="stratobodomneryus>Pitch" tens="1" prog="0" pos="40704">
          <time value="0" pos="0"/>
          <object id="6553159"/>
        </automationpattern>
        <automationpattern mute="0" len="384" name="stratobodomneryus>Pitch" tens="1" prog="1" pos="42240">
          <time value="-100" pos="0"/>
          <time value="0" pos="24"/>
          <time value="0" pos="360"/>
          <time value="-200" pos="384"/>
          <object id="6553159"/>
        </automationpattern>
        <automationpattern mute="0" len="192" name="stratobodomneryus>Pitch" tens="1" prog="0" pos="42624">
          <time value="0" pos="0"/>
          <object id="6553159"/>
        </automationpattern>
        <automationpattern mute="0" len="192" name="stratobodomneryus>Pitch" tens="1" prog="0" pos="56256">
          <time value="0" pos="0"/>
          <object id="6553159"/>
        </automationpattern>
      </track>
      <track muted="0" name="celloes" type="0" solo="0" mutedBeforeSolo="0">
        <instrumenttrack usemasterpitch="1" pitchrange="2" pitch="0" pan="0" basenote="57" vol="52.8" fxch="0">
          <instrument name="carlapatchbay">
            <carlapatchbay>
              <CARLA-PROJECT VERSION="2.2">
                <EngineSettings>
                  <ForceStereo>false</ForceStereo>
                  <PreferPluginBridges>false</PreferPluginBridges>
                  <PreferUiBridges>true</PreferUiBridges>
                  <UIsAlwaysOnTop>false</UIsAlwaysOnTop>
                  <MaxParameters>200</MaxParameters>
                  <UIBridgesTimeout>4000</UIBridgesTimeout>
                  <LADSPA_PATH>/home/pass/.ladspa:/usr/lib/ladspa:/usr/local/lib/ladspa</LADSPA_PATH>
                  <DSSI_PATH>/home/pass/.dssi:/usr/lib/dssi:/usr/local/lib/dssi</DSSI_PATH>
                  <LV2_PATH>/home/pass/.lv2:/usr/lib/lv2:/usr/local/lib/lv2</LV2_PATH>
                  <VST2_PATH>/home/pass/.vst:/home/pass/.wine/drive_c/Program Files (x86)/VstPlugins:/home/pass/.wine/drive_c/Program Files/VstPlugins:/home/pass/Music/winvst/VST32:/home/pass/Music/winvst/VST64/Plogue Art et Technologie, Inc:/home/pass/vst:/usr/lib/lxvst:/usr/lib/vst:/usr/local/lib/lxvst:/usr/local/lib/vst/home/pass/.lxvst</VST2_PATH>
                  <VST3_PATH>/home/pass/.vst3:/home/pass/.wine/drive_c/Program Files (x86)/Common Files/VST3:/home/pass/.wine/drive_c/Program Files/Common Files/VST3:/usr/lib/vst3:/usr/local/lib/vst3</VST3_PATH>
                  <SF2_PATH>/home/pass/.sounds/sf2/home/pass/.sounds/sf3:/home/pass/samples/soundfonts:/usr/share/soundfonts:/usr/share/sounds/sf2:/usr/share/sounds/sf3</SF2_PATH>
                  <SFZ_PATH>/home/pass/.sounds/sfz:/home/pass/samples:/usr/share/sounds/sfz</SFZ_PATH>
                </EngineSettings>
                <!-- sfizz -->
                <Plugin>
                  <Info>
                    <Type>LV2</Type>
                    <Name>sfizz</Name>
                    <URI>http://sfztools.github.io/sfizz</URI>
                  </Info>
                  <Data>
                    <Active>Yes</Active>
                    <ControlChannel>1</ControlChannel>
                    <Options>0x3f0</Options>
                    <Parameter>
                      <Index>0</Index>
                      <Name>Volume</Name>
                      <Symbol>volume</Symbol>
                      <Value>0</Value>
                    </Parameter>
                    <Parameter>
                      <Index>1</Index>
                      <Name>Polyphony</Name>
                      <Symbol>num_voices</Symbol>
                      <Value>64</Value>
                    </Parameter>
                    <Parameter>
                      <Index>2</Index>
                      <Name>Internal oversampling factor</Name>
                      <Symbol>oversampling</Symbol>
                      <Value>1</Value>
                    </Parameter>
                    <Parameter>
                      <Index>3</Index>
                      <Name>Preload size</Name>
                      <Symbol>preload_size</Symbol>
                      <Value>8192</Value>
                    </Parameter>
                    <Parameter>
                      <Index>5</Index>
                      <Name>Scala root key</Name>
                      <Symbol>scala_root_key</Symbol>
                      <Value>60</Value>
                    </Parameter>
                    <Parameter>
                      <Index>6</Index>
                      <Name>Tuning frequency</Name>
                      <Symbol>tuning_frequency</Symbol>
                      <Value>440</Value>
                    </Parameter>
                    <Parameter>
                      <Index>7</Index>
                      <Name>Stretched tuning</Name>
                      <Symbol>stretched_tuning</Symbol>
                      <Value>0</Value>
                    </Parameter>
                    <CustomData>
                      <Type>http://lv2plug.in/ns/ext/atom#Path</Type>
                      <Key>http://sfztools.github.io/sfizz:sfzfile</Key>
                      <Value>Strings - Celli Sustain.sfz</Value>
                    </CustomData>
                    <CustomData>
                      <Type>http://lv2plug.in/ns/ext/atom#Path</Type>
                      <Key>http://sfztools.github.io/sfizz:tuningfile</Key>
                      <Value>DefaultScale.scl</Value>
                    </CustomData>
                    <CustomData>
                      <Type>http://lv2plug.in/ns/ext/atom#Int</Type>
                      <Key>http://sfztools.github.io/sfizz:numvoices</Key>
                      <Value>QAAAAA==</Value>
                    </CustomData>
                    <CustomData>
                      <Type>http://lv2plug.in/ns/ext/atom#Int</Type>
                      <Key>http://sfztools.github.io/sfizz:preload_size</Key>
                      <Value>ACAAAA==</Value>
                    </CustomData>
                    <CustomData>
                      <Type>http://lv2plug.in/ns/ext/atom#Int</Type>
                      <Key>http://sfztools.github.io/sfizz:oversampling</Key>
                      <Value>AQAAAA==</Value>
                    </CustomData>
                  </Data>
                </Plugin>
                <Patchbay>
                  <Connection>
                    <Source>sfizz:Left Output</Source>
                    <Target>Audio Output:Left</Target>
                  </Connection>
                  <Connection>
                    <Source>sfizz:Right Output</Source>
                    <Target>Audio Output:Right</Target>
                  </Connection>
                  <Connection>
                    <Source>Midi Input:Capture 1</Source>
                    <Target>sfizz:events-in</Target>
                  </Connection>
                  <Positions>
                    <Position y1="1317" x1="1729" pluginId="0">
                      <Name>sfizz</Name>
                    </Position>
                  </Positions>
                </Patchbay>
              </CARLA-PROJECT>
              <key/>
            </carlapatchbay>
          </instrument>
          <eldata fcut="14000" fwet="0" fres="0.5" ftype="0">
            <elvol rel="0.1" lspd_syncmode="0" pdel="0" lspd_numerator="4" lpdel="0" amt="0" ctlenvamt="0" lshp="0" userwavefile="" dec="0.5" lspd_denominator="4" sustain="0.5" lspd="0.1" latt="0" hold="0.5" att="0" x100="0" lamt="0"/>
            <elcut rel="0.1" lspd_syncmode="0" pdel="0" lspd_numerator="4" lpdel="0" amt="0" ctlenvamt="0" lshp="0" userwavefile="" dec="0.5" lspd_denominator="4" sustain="0.5" lspd="0.1" latt="0" hold="0.5" att="0" x100="0" lamt="0"/>
            <elres rel="0.1" lspd_syncmode="0" pdel="0" lspd_numerator="4" lpdel="0" amt="0" ctlenvamt="0" lshp="0" userwavefile="" dec="0.5" lspd_denominator="4" sustain="0.5" lspd="0.1" latt="0" hold="0.5" att="0" x100="0" lamt="0"/>
          </eldata>
          <chordcreator chord="0" chordrange="2" chord-enabled="1"/>
          <arpeggiator arptime_denominator="4" arptime="200" arp-enabled="0" arpcycle="0" arpgate="100" arp="0" arpmiss="0" arpdir="0" arprange="1" arpmode="0" arpskip="0" arptime_syncmode="0" arptime_numerator="4"/>
          <midiport inputcontroller="0" fixedinputvelocity="-1" readable="0" outputcontroller="0" fixedoutputnote="-1" outputprogram="1" writable="0" fixedoutputvelocity="-1" basevelocity="63" outputchannel="1" inputchannel="0"/>
          <fxchain enabled="0" numofeffects="0"/>
        </instrumenttrack>
        <pattern muted="0" name="" steps="16" type="1" pos="50304">
          <note len="192" key="63" pan="0" vol="200" pos="0"/>
          <note len="192" key="61" pan="0" vol="200" pos="192"/>
          <note len="288" key="58" pan="0" vol="200" pos="384"/>
          <note len="96" key="51" pan="0" vol="200" pos="672"/>
          <note len="192" key="63" pan="0" vol="200" pos="768"/>
          <note len="192" key="61" pan="0" vol="200" pos="960"/>
          <note len="192" key="58" pan="0" vol="200" pos="1152"/>
          <note len="192" key="54" pan="0" vol="200" pos="1344"/>
          <note len="192" key="58" pan="0" vol="200" pos="1536"/>
          <note len="96" key="59" pan="0" vol="200" pos="1728"/>
          <note len="96" key="63" pan="0" vol="200" pos="1824"/>
          <note len="192" key="61" pan="0" vol="200" pos="1920"/>
          <note len="192" key="66" pan="0" vol="200" pos="2112"/>
          <note len="384" key="63" pan="0" vol="200" pos="2304"/>
          <note len="96" key="58" pan="0" vol="200" pos="2688"/>
          <note len="96" key="61" pan="0" vol="200" pos="2784"/>
          <note len="96" key="56" pan="0" vol="200" pos="2880"/>
          <note len="96" key="58" pan="0" vol="200" pos="2976"/>
        </pattern>
        <pattern muted="0" name="" steps="16" type="1" pos="53376">
          <note len="192" key="63" pan="0" vol="197" pos="0"/>
          <note len="192" key="61" pan="0" vol="197" pos="192"/>
          <note len="288" key="58" pan="0" vol="197" pos="384"/>
          <note len="96" key="58" pan="0" vol="197" pos="672"/>
          <note len="192" key="70" pan="0" vol="197" pos="768"/>
          <note len="192" key="68" pan="0" vol="197" pos="960"/>
          <note len="384" key="63" pan="0" vol="197" pos="1152"/>
          <note len="192" key="63" pan="0" vol="197" pos="1536"/>
          <note len="192" key="65" pan="0" vol="197" pos="1728"/>
          <note len="192" key="66" pan="0" vol="197" pos="1920"/>
          <note len="96" key="70" pan="0" vol="197" pos="2112"/>
          <note len="96" key="68" pan="0" vol="197" pos="2208"/>
          <note len="192" key="68" pan="0" vol="197" pos="2304"/>
          <note len="144" key="63" pan="0" vol="197" pos="2496"/>
          <note len="24" key="63" pan="0" vol="197" pos="2640"/>
          <note len="24" key="65" pan="0" vol="197" pos="2664"/>
          <note len="192" key="66" pan="0" vol="197" pos="2688"/>
          <note len="96" key="68" pan="0" vol="197" pos="2880"/>
          <note len="96" key="73" pan="0" vol="197" pos="2976"/>
          <note len="384" key="75" pan="0" vol="197" pos="3072"/>
        </pattern>
      </track>
      <track muted="0" name="Harp" type="0" solo="0" mutedBeforeSolo="0">
        <instrumenttrack usemasterpitch="1" pitchrange="1" pitch="0" pan="0" basenote="57" vol="100" fxch="0">
          <instrument name="carlapatchbay">
            <carlapatchbay>
              <CARLA-PROJECT VERSION="2.2">
                <EngineSettings>
                  <ForceStereo>false</ForceStereo>
                  <PreferPluginBridges>false</PreferPluginBridges>
                  <PreferUiBridges>true</PreferUiBridges>
                  <UIsAlwaysOnTop>false</UIsAlwaysOnTop>
                  <MaxParameters>200</MaxParameters>
                  <UIBridgesTimeout>4000</UIBridgesTimeout>
                  <LADSPA_PATH>/home/pass/.ladspa:/usr/lib/ladspa:/usr/local/lib/ladspa</LADSPA_PATH>
                  <DSSI_PATH>/home/pass/.dssi:/usr/lib/dssi:/usr/local/lib/dssi</DSSI_PATH>
                  <LV2_PATH>/home/pass/.lv2:/usr/lib/lv2:/usr/local/lib/lv2</LV2_PATH>
                  <VST2_PATH>/home/pass/.vst:/home/pass/.wine/drive_c/Program Files (x86)/VstPlugins:/home/pass/.wine/drive_c/Program Files/VstPlugins:/home/pass/Music/winvst/VST32:/home/pass/Music/winvst/VST64/Plogue Art et Technologie, Inc:/home/pass/vst:/usr/lib/lxvst:/usr/lib/vst:/usr/local/lib/lxvst:/usr/local/lib/vst/home/pass/.lxvst</VST2_PATH>
                  <VST3_PATH>/home/pass/.vst3:/home/pass/.wine/drive_c/Program Files (x86)/Common Files/VST3:/home/pass/.wine/drive_c/Program Files/Common Files/VST3:/usr/lib/vst3:/usr/local/lib/vst3</VST3_PATH>
                  <SF2_PATH>/home/pass/.sounds/sf2/home/pass/.sounds/sf3:/home/pass/samples/soundfonts:/usr/share/soundfonts:/usr/share/sounds/sf2:/usr/share/sounds/sf3</SF2_PATH>
                  <SFZ_PATH>/home/pass/.sounds/sfz:/home/pass/samples:/usr/share/sounds/sfz</SFZ_PATH>
                </EngineSettings>
                <!-- liquidsfz -->
                <Plugin>
                  <Info>
                    <Type>LV2</Type>
                    <Name>liquidsfz</Name>
                    <URI>http://spectmorph.org/plugins/liquidsfz</URI>
                  </Info>
                  <Data>
                    <Active>Yes</Active>
                    <ControlChannel>1</ControlChannel>
                    <Options>0x3f0</Options>
                    <Parameter>
                      <Index>0</Index>
                      <Name>Output Level</Name>
                      <Symbol>level</Symbol>
                      <Value>0</Value>
                    </Parameter>
                    <CustomData>
                      <Type>http://lv2plug.in/ns/ext/atom#Path</Type>
                      <Key>http://spectmorph.org/plugins/liquidsfz#sfzfile</Key>
                      <Value>Harp.sfz</Value>
                    </CustomData>
                  </Data>
                </Plugin>
                <Patchbay>
                  <Connection>
                    <Source>Midi Input:Capture 1</Source>
                    <Target>liquidsfz:events-in</Target>
                  </Connection>
                  <Connection>
                    <Source>liquidsfz:Left Output</Source>
                    <Target>Audio Output:Left</Target>
                  </Connection>
                  <Connection>
                    <Source>liquidsfz:Right Output</Source>
                    <Target>Audio Output:Right</Target>
                  </Connection>
                  <Positions>
                    <Position y1="1317" x1="1670" pluginId="0">
                      <Name>liquidsfz</Name>
                    </Position>
                  </Positions>
                </Patchbay>
              </CARLA-PROJECT>
              <key/>
            </carlapatchbay>
          </instrument>
          <eldata fcut="14000" fwet="0" fres="0.5" ftype="0">
            <elvol rel="0.1" lspd_syncmode="0" pdel="0" lspd_numerator="4" lpdel="0" amt="0" ctlenvamt="0" lshp="0" userwavefile="" dec="0.5" lspd_denominator="4" sustain="0.5" lspd="0.1" latt="0" hold="0.5" att="0" x100="0" lamt="0"/>
            <elcut rel="0.1" lspd_syncmode="0" pdel="0" lspd_numerator="4" lpdel="0" amt="0" ctlenvamt="0" lshp="0" userwavefile="" dec="0.5" lspd_denominator="4" sustain="0.5" lspd="0.1" latt="0" hold="0.5" att="0" x100="0" lamt="0"/>
            <elres rel="0.1" lspd_syncmode="0" pdel="0" lspd_numerator="4" lpdel="0" amt="0" ctlenvamt="0" lshp="0" userwavefile="" dec="0.5" lspd_denominator="4" sustain="0.5" lspd="0.1" latt="0" hold="0.5" att="0" x100="0" lamt="0"/>
          </eldata>
          <chordcreator chord="0" chordrange="1" chord-enabled="0"/>
          <arpeggiator arptime_denominator="4" arptime="200" arp-enabled="0" arpcycle="0" arpgate="100" arp="0" arpmiss="0" arpdir="0" arprange="1" arpmode="0" arpskip="0" arptime_syncmode="0" arptime_numerator="4"/>
          <midiport inputcontroller="0" fixedinputvelocity="-1" readable="0" outputcontroller="0" fixedoutputnote="-1" outputprogram="1" writable="0" fixedoutputvelocity="-1" basevelocity="63" outputchannel="1" inputchannel="0"/>
          <fxchain enabled="0" numofeffects="0"/>
        </instrumenttrack>
        <pattern muted="0" name="" steps="16" type="1" pos="42624">
          <note len="144" key="73" pan="0" vol="200" pos="0"/>
          <note len="48" key="61" pan="0" vol="200" pos="0"/>
          <note len="48" key="64" pan="0" vol="200" pos="48"/>
          <note len="48" key="68" pan="0" vol="200" pos="96"/>
          <note len="48" key="76" pan="0" vol="200" pos="144"/>
          <note len="48" key="73" pan="0" vol="200" pos="144"/>
          <note len="144" key="75" pan="0" vol="200" pos="192"/>
          <note len="48" key="71" pan="0" vol="200" pos="192"/>
          <note len="48" key="66" pan="0" vol="200" pos="240"/>
          <note len="48" key="71" pan="0" vol="200" pos="288"/>
          <note len="48" key="80" pan="0" vol="200" pos="336"/>
          <note len="48" key="75" pan="0" vol="200" pos="336"/>
          <note len="144" key="80" pan="0" vol="200" pos="384"/>
          <note len="48" key="76" pan="0" vol="200" pos="384"/>
          <note len="48" key="69" pan="0" vol="200" pos="432"/>
          <note len="48" key="73" pan="0" vol="200" pos="480"/>
          <note len="24" key="78" pan="0" vol="200" pos="528"/>
          <note len="48" key="64" pan="0" vol="200" pos="528"/>
          <note len="24" key="76" pan="0" vol="200" pos="552"/>
          <note len="48" key="75" pan="0" vol="200" pos="576"/>
          <note len="48" key="66" pan="0" vol="200" pos="576"/>
          <note len="48" key="76" pan="0" vol="200" pos="624"/>
          <note len="48" key="63" pan="0" vol="200" pos="624"/>
          <note len="48" key="71" pan="0" vol="200" pos="672"/>
          <note len="48" key="66" pan="0" vol="200" pos="672"/>
          <note len="48" key="68" pan="0" vol="200" pos="720"/>
          <note len="48" key="59" pan="0" vol="200" pos="720"/>
          <note len="96" key="69" pan="0" vol="200" pos="768"/>
          <note len="48" key="61" pan="0" vol="200" pos="768"/>
          <note len="48" key="66" pan="0" vol="200" pos="816"/>
          <note len="48" key="73" pan="0" vol="200" pos="864"/>
          <note len="48" key="69" pan="0" vol="200" pos="864"/>
          <note len="48" key="76" pan="0" vol="200" pos="912"/>
          <note len="48" key="66" pan="0" vol="200" pos="912"/>
          <note len="96" key="76" pan="0" vol="200" pos="960"/>
          <note len="48" key="68" pan="0" vol="200" pos="960"/>
          <note len="48" key="71" pan="0" vol="200" pos="1008"/>
          <note len="48" key="75" pan="0" vol="200" pos="1056"/>
          <note len="48" key="68" pan="0" vol="200" pos="1056"/>
          <note len="48" key="76" pan="0" vol="200" pos="1104"/>
          <note len="48" key="63" pan="0" vol="200" pos="1104"/>
          <note len="72" key="83" pan="0" vol="200" pos="1152"/>
          <note len="48" key="69" pan="0" vol="200" pos="1152"/>
        </pattern>
      </track>
      <track muted="1" name="backing sban" type="0" solo="0" mutedBeforeSolo="0">
        <instrumenttrack usemasterpitch="1" pitchrange="2" pitch="0" pan="0" basenote="57" vol="200" fxch="23">
          <instrument name="tripleoscillator">
            <tripleoscillator wavetype1="0" finel1="0" coarse0="0" wavetype2="0" finer0="0" finer1="0" userwavefile1="" pan0="0" vol2="0" phoffset2="0" stphdetun0="0" coarse1="0" finel2="0" finer2="0" stphdetun2="0" pan1="0" vol0="200" phoffset0="0" modalgo1="4" phoffset1="0" stphdetun1="0" vol1="19" userwavefile2="" modalgo2="2" pan2="0" finel0="0" coarse2="-24" modalgo3="2" wavetype0="0" userwavefile0="">
              <key/>
            </tripleoscillator>
          </instrument>
          <eldata fcut="1456" fwet="0" fres="0.89" ftype="17">
            <elvol rel="0" lspd_syncmode="0" pdel="0" lspd_numerator="4" lpdel="0" amt="0" ctlenvamt="0" lshp="0" userwavefile="" dec="0.5" lspd_denominator="4" sustain="0.5" lspd="0.1" latt="0" hold="0.5" att="0" x100="0" lamt="0"/>
            <elcut rel="0" lspd_syncmode="0" pdel="0" lspd_numerator="4" lpdel="0" amt="0" ctlenvamt="0" lshp="2" userwavefile="" dec="0.5" lspd_denominator="4" sustain="0.5" lspd="0.037" latt="0" hold="0.5" att="0" x100="1" lamt="0"/>
            <elres rel="0.1" lspd_syncmode="0" pdel="0" lspd_numerator="4" lpdel="0" amt="0" ctlenvamt="0" lshp="1" userwavefile="" dec="0.5" lspd_denominator="4" sustain="0.5" lspd="0.152" latt="0" hold="0.5" att="0" x100="0" lamt="0"/>
          </eldata>
          <chordcreator chord="0" chordrange="1" chord-enabled="0"/>
          <arpeggiator arptime_denominator="4" arptime="200" arp-enabled="0" arpcycle="0" arpgate="100" arp="0" arpmiss="0" arpdir="0" arprange="1" arpmode="0" arpskip="0" arptime_syncmode="0" arptime_numerator="4"/>
          <midiport inputcontroller="0" fixedinputvelocity="-1" readable="0" outputcontroller="0" fixedoutputnote="-1" outputprogram="1" writable="0" fixedoutputvelocity="-1" basevelocity="63" outputchannel="1" inputchannel="0"/>
          <fxchain enabled="1" numofeffects="7">
            <effect wet="1" autoquit_denominator="4" autoquit="1" name="ladspaeffect" on="0" autoquit_syncmode="0" gate="0" autoquit_numerator="4">
              <ladspacontrols ports="7">
                <port00 data="3.4875"/>
                <port01 data="180"/>
                <port02 data="100"/>
                <port03 data="17"/>
                <port04 data="20000"/>
                <port05 data="0.55"/>
                <port06 data="-0.6875"/>
              </ladspacontrols>
              <key>
                <attribute name="file" value="tap_chorusflanger"/>
                <attribute name="plugin" value="tap_chorusflanger"/>
              </key>
            </effect>
            <effect wet="1" autoquit_denominator="4" autoquit="1" name="eq" on="1" autoquit_syncmode="0" gate="0" autoquit_numerator="4">
              <Eq LPres="0.707" Peak3gain="0" HighShelfres="1.4" LP12="1" Peak2gain="0" Peak2active="0" HP48="0" HP="1" HPres="0.707" LP24="0" AnalyseIn="1" Peak2bw="0.3" LP48="0" HP24="1" Highshelfactive="0" Peak3bw="0.3" Peak4gain="0" Lowshelfgain="0" Peak1active="0" LPactive="1" LowShelfres="1.4" Peak4bw="0.3" Peak3active="0" Peak4active="0" HighShelfgain="0" Peak1bw="0.3" Lowshelfactive="0" Outputgain="0.8" LP="0" AnalyseOut="1" HP12="0" HPactive="1">
                <Inputgain id="5437876" scale_type="log" value="0"/>
                <Peak1gain id="1119964" scale_type="log" value="0"/>
                <HPfreq id="2728972" scale_type="log" value="260.717"/>
                <LowShelffreq id="5226846" scale_type="log" value="80"/>
                <Peak1freq id="2959358" scale_type="log" value="120"/>
                <Peak2freq id="5490259" scale_type="log" value="250"/>
                <Peak3freq id="4102072" scale_type="log" value="2000"/>
                <Peak4freq id="5776592" scale_type="log" value="4000"/>
                <Highshelffreq id="6721283" scale_type="log" value="12000"/>
                <LPfreq id="8252873" scale_type="log" value="1667.01"/>
              </Eq>
              <key/>
            </effect>
            <effect wet="1" autoquit_denominator="4" autoquit="1" name="waveshaper" on="0" autoquit_syncmode="0" gate="0" autoquit_numerator="4">
              <waveshapercontrols inputGain="5" outputGain="1" clipInput="1" waveShape="AACAPwAAgD8AAIA/AACAPwAAgD8AAIA/AACAPwAAgD8AAIA/AACAPwAAgD8AAIA/AACAPwAAgD8AAIA/AACAPwAAgD8AAIA/AACAPwAAgD8AAIA/AACAPwAAgD8AAIA/AACAPwAAgD8AAIA/AACAPwAAgD8AAIA/AACAPwAAgD8AAIA/AACAPwAAgD8AAIA/AACAPwAAgD8AAIA/AACAPwAAgD8AAIA/AACAPwAAgD8AAIA/AACAPwAAgD8AAIA/AACAPwAAgD8AAIA/AACAPwAAgD8AAIA/AACAPwAAgD8AAIA/AACAPwAAgD8AAIA/AACAPwAAgD8AAIA/AACAPwAAgD8AAIA/AACAPwAAgD8AAIA/AACAPwAAgD8AAIA/AACAPwAAgD8AAIA/AACAPwAAgD8AAIA/AACAPwAAgD8AAIA/AACAPwAAgD8AAIA/AACAPwAAgD8AAIA/AACAPwAAgD8AAIA/AACAPwAAgD8AAIA/AACAPwAAgD8AAIA/AACAPwAAgD8AAIA/AACAPwAAgD8AAIA/AACAPwAAgD8AAIA/AACAPwAAgD8AAIA/AACAPwAAgD8AAIA/AACAPwAAgD8AAIA/AACAPwAAgD8AAIA/AACAPwAAgD8AAIA/AACAPwAAgD8AAIA/AACAPwAAgD8AAIA/AACAPwAAgD8AAIA/AACAPwAAgD8AAIA/AACAPwAAgD8AAIA/AACAPwAAgD8AAIA/AACAPwAAgD8AAIA/AACAPwAAgD8AAIA/AACAPwAAgD8AAIA/AACAPwAAgD8AAIA/AACAPwAAgD8AAIA/AACAPwAAgD8AAIA/AACAPwAAgD8AAIA/AACAPwAAgD8AAIA/AACAPwAAgD8AAIA/AACAPwAAgD8AAIA/AACAPwAAgD8AAIA/AACAPwAAgD8AAIA/AACAPwAAgD8AAIA/AACAPwAAgD8AAIA/AACAPwAAgD8AAIA/AACAPwAAgD8AAIA/AACAPwAAgD8AAIA/AACAPwAAgD8AAIA/AACAPwAAgD8AAIA/AACAPwAAgD8AAIA/AACAPwAAgD8="/>
              <key/>
            </effect>
            <effect wet="1" autoquit_denominator="4" autoquit="1" name="ladspaeffect" on="1" autoquit_syncmode="0" gate="0" autoquit_numerator="4">
              <ladspacontrols link="1" ports="14">
                <port01 data="10" link="1"/>
                <port02 data="1" link="1"/>
                <port03 data="20" link="1"/>
                <port04 data="20" link="1"/>
                <port05 data="20" link="1"/>
                <port06 data="20" link="1"/>
                <port07 data="1" link="1"/>
                <port11 data="10"/>
                <port12 data="1"/>
                <port13 data="20"/>
                <port14 data="20"/>
                <port15 data="20"/>
                <port16 data="20"/>
                <port17 data="1"/>
              </ladspacontrols>
              <key>
                <attribute name="file" value="caps"/>
                <attribute name="plugin" value="AmpIV"/>
              </key>
            </effect>
            <effect wet="1" autoquit_denominator="4" autoquit="1" name="ladspaeffect" on="0" autoquit_syncmode="0" gate="0" autoquit_numerator="4">
              <ladspacontrols link="1" ports="4">
                <port01 data="1" link="1"/>
                <port02 data="-11.4" link="1"/>
                <port11 data="1"/>
                <port12 data="-11.4"/>
              </ladspacontrols>
              <key>
                <attribute name="file" value="caps"/>
                <attribute name="plugin" value="CabinetI"/>
              </key>
            </effect>
            <effect wet="1" autoquit_denominator="4" autoquit="1" name="ladspaeffect" on="1" autoquit_syncmode="0" gate="0" autoquit_numerator="4">
              <ladspacontrols link="1" ports="4">
                <port00 link="1">
                  <data id="7599140" scale_type="log" value="6549.87"/>
                </port00>
                <port01 data="9" link="1"/>
                <port10>
                  <data id="5958898" scale_type="log" value="6549.87"/>
                </port10>
                <port11 data="9"/>
              </ladspacontrols>
              <key>
                <attribute name="file" value="lowpass_iir_1891"/>
                <attribute name="plugin" value="lowpass_iir"/>
              </key>
            </effect>
            <effect wet="1" autoquit_denominator="4" autoquit="1" name="ladspaeffect" on="1" autoquit_syncmode="0" gate="0" autoquit_numerator="4">
              <ladspacontrols ports="4">
                <port02 data="0.502"/>
                <port03 data="0.3745"/>
                <port04 data="0.218641"/>
                <port05 data="0.2075"/>
              </ladspacontrols>
              <key>
                <attribute name="file" value="caps"/>
                <attribute name="plugin" value="Plate2x2"/>
              </key>
            </effect>
          </fxchain>
        </instrumenttrack>
        <pattern muted="0" name="" steps="16" type="0" pos="56256"/>
        <pattern muted="0" name="" steps="16" type="1" pos="56448">
          <note len="12" key="54" pan="0" vol="100" pos="0"/>
          <note len="12" key="58" pan="0" vol="100" pos="12"/>
          <note len="12" key="63" pan="0" vol="100" pos="24"/>
          <note len="12" key="66" pan="0" vol="100" pos="36"/>
          <note len="12" key="70" pan="0" vol="100" pos="48"/>
          <note len="12" key="75" pan="0" vol="100" pos="60"/>
          <note len="12" key="78" pan="0" vol="100" pos="72"/>
          <note len="12" key="82" pan="0" vol="100" pos="84"/>
          <note len="12" key="87" pan="0" vol="100" pos="96"/>
          <note len="12" key="82" pan="0" vol="100" pos="108"/>
          <note len="12" key="78" pan="0" vol="100" pos="120"/>
          <note len="12" key="75" pan="0" vol="100" pos="132"/>
          <note len="12" key="70" pan="0" vol="100" pos="144"/>
          <note len="12" key="66" pan="0" vol="100" pos="156"/>
          <note len="12" key="63" pan="0" vol="100" pos="168"/>
          <note len="12" key="58" pan="0" vol="100" pos="180"/>
        </pattern>
        <pattern muted="0" name="" steps="16" type="1" pos="56640">
          <note len="12" key="54" pan="0" vol="100" pos="0"/>
          <note len="12" key="58" pan="0" vol="100" pos="12"/>
          <note len="12" key="63" pan="0" vol="100" pos="24"/>
          <note len="12" key="66" pan="0" vol="100" pos="36"/>
          <note len="12" key="70" pan="0" vol="100" pos="48"/>
          <note len="12" key="75" pan="0" vol="100" pos="60"/>
          <note len="12" key="78" pan="0" vol="100" pos="72"/>
          <note len="12" key="82" pan="0" vol="100" pos="84"/>
          <note len="12" key="87" pan="0" vol="100" pos="96"/>
          <note len="12" key="82" pan="0" vol="100" pos="108"/>
          <note len="12" key="78" pan="0" vol="100" pos="120"/>
          <note len="12" key="75" pan="0" vol="100" pos="132"/>
          <note len="12" key="70" pan="0" vol="100" pos="144"/>
          <note len="12" key="66" pan="0" vol="100" pos="156"/>
          <note len="12" key="63" pan="0" vol="100" pos="168"/>
          <note len="12" key="58" pan="0" vol="100" pos="180"/>
        </pattern>
        <pattern muted="0" name="" steps="16" type="1" pos="56832">
          <note len="12" key="53" pan="0" vol="100" pos="0"/>
          <note len="12" key="56" pan="0" vol="100" pos="12"/>
          <note len="12" key="61" pan="0" vol="100" pos="24"/>
          <note len="12" key="65" pan="0" vol="100" pos="36"/>
          <note len="12" key="68" pan="0" vol="100" pos="48"/>
          <note len="12" key="73" pan="0" vol="100" pos="60"/>
          <note len="12" key="77" pan="0" vol="100" pos="72"/>
          <note len="12" key="80" pan="0" vol="100" pos="84"/>
          <note len="12" key="85" pan="0" vol="100" pos="96"/>
          <note len="12" key="80" pan="0" vol="100" pos="108"/>
          <note len="12" key="77" pan="0" vol="100" pos="120"/>
          <note len="12" key="73" pan="0" vol="100" pos="132"/>
          <note len="12" key="68" pan="0" vol="100" pos="144"/>
          <note len="12" key="65" pan="0" vol="100" pos="156"/>
          <note len="12" key="61" pan="0" vol="100" pos="168"/>
          <note len="12" key="56" pan="0" vol="100" pos="180"/>
        </pattern>
        <pattern muted="0" name="" steps="16" type="1" pos="57216">
          <note len="12" key="51" pan="0" vol="100" pos="0"/>
          <note len="12" key="56" pan="0" vol="100" pos="12"/>
          <note len="12" key="60" pan="0" vol="100" pos="24"/>
          <note len="12" key="63" pan="0" vol="100" pos="36"/>
          <note len="12" key="68" pan="0" vol="100" pos="48"/>
          <note len="12" key="72" pan="0" vol="100" pos="60"/>
          <note len="12" key="75" pan="0" vol="100" pos="72"/>
          <note len="12" key="80" pan="0" vol="100" pos="84"/>
          <note len="12" key="84" pan="0" vol="100" pos="96"/>
          <note len="12" key="80" pan="0" vol="100" pos="108"/>
          <note len="12" key="75" pan="0" vol="100" pos="120"/>
          <note len="12" key="72" pan="0" vol="100" pos="132"/>
          <note len="12" key="68" pan="0" vol="100" pos="144"/>
          <note len="12" key="63" pan="0" vol="100" pos="156"/>
          <note len="12" key="60" pan="0" vol="100" pos="168"/>
          <note len="12" key="56" pan="0" vol="100" pos="180"/>
        </pattern>
        <pattern muted="0" name="" steps="16" type="1" pos="57600">
          <note len="12" key="52" pan="0" vol="100" pos="0"/>
          <note len="12" key="56" pan="0" vol="100" pos="12"/>
          <note len="12" key="59" pan="0" vol="100" pos="24"/>
          <note len="12" key="64" pan="0" vol="100" pos="36"/>
          <note len="12" key="68" pan="0" vol="100" pos="48"/>
          <note len="12" key="71" pan="0" vol="100" pos="60"/>
          <note len="12" key="76" pan="0" vol="100" pos="72"/>
          <note len="12" key="80" pan="0" vol="100" pos="84"/>
          <note len="12" key="83" pan="0" vol="100" pos="96"/>
          <note len="12" key="80" pan="0" vol="100" pos="108"/>
          <note len="12" key="76" pan="0" vol="100" pos="120"/>
          <note len="12" key="71" pan="0" vol="100" pos="132"/>
          <note len="12" key="68" pan="0" vol="100" pos="144"/>
          <note len="12" key="64" pan="0" vol="100" pos="156"/>
          <note len="12" key="59" pan="0" vol="100" pos="168"/>
          <note len="12" key="56" pan="0" vol="100" pos="180"/>
        </pattern>
        <pattern muted="0" name="" steps="16" type="1" pos="57024">
          <note len="12" key="53" pan="0" vol="100" pos="0"/>
          <note len="12" key="56" pan="0" vol="100" pos="12"/>
          <note len="12" key="61" pan="0" vol="100" pos="24"/>
          <note len="12" key="65" pan="0" vol="100" pos="36"/>
          <note len="12" key="68" pan="0" vol="100" pos="48"/>
          <note len="12" key="73" pan="0" vol="100" pos="60"/>
          <note len="12" key="77" pan="0" vol="100" pos="72"/>
          <note len="12" key="80" pan="0" vol="100" pos="84"/>
          <note len="12" key="85" pan="0" vol="100" pos="96"/>
          <note len="12" key="80" pan="0" vol="100" pos="108"/>
          <note len="12" key="77" pan="0" vol="100" pos="120"/>
          <note len="12" key="73" pan="0" vol="100" pos="132"/>
          <note len="12" key="68" pan="0" vol="100" pos="144"/>
          <note len="12" key="65" pan="0" vol="100" pos="156"/>
          <note len="12" key="61" pan="0" vol="100" pos="168"/>
          <note len="12" key="56" pan="0" vol="100" pos="180"/>
        </pattern>
        <pattern muted="0" name="" steps="16" type="1" pos="57408">
          <note len="12" key="51" pan="0" vol="100" pos="0"/>
          <note len="12" key="56" pan="0" vol="100" pos="12"/>
          <note len="12" key="60" pan="0" vol="100" pos="24"/>
          <note len="12" key="63" pan="0" vol="100" pos="36"/>
          <note len="12" key="68" pan="0" vol="100" pos="48"/>
          <note len="12" key="72" pan="0" vol="100" pos="60"/>
          <note len="12" key="75" pan="0" vol="100" pos="72"/>
          <note len="12" key="80" pan="0" vol="100" pos="84"/>
          <note len="12" key="84" pan="0" vol="100" pos="96"/>
          <note len="12" key="80" pan="0" vol="100" pos="108"/>
          <note len="12" key="75" pan="0" vol="100" pos="120"/>
          <note len="12" key="72" pan="0" vol="100" pos="132"/>
          <note len="12" key="68" pan="0" vol="100" pos="144"/>
          <note len="12" key="63" pan="0" vol="100" pos="156"/>
          <note len="12" key="60" pan="0" vol="100" pos="168"/>
          <note len="12" key="56" pan="0" vol="100" pos="180"/>
        </pattern>
        <pattern muted="0" name="" steps="16" type="1" pos="57792">
          <note len="12" key="52" pan="0" vol="100" pos="0"/>
          <note len="12" key="56" pan="0" vol="100" pos="12"/>
          <note len="12" key="59" pan="0" vol="100" pos="24"/>
          <note len="12" key="64" pan="0" vol="100" pos="36"/>
          <note len="12" key="68" pan="0" vol="100" pos="48"/>
          <note len="12" key="71" pan="0" vol="100" pos="60"/>
          <note len="12" key="76" pan="0" vol="100" pos="72"/>
          <note len="12" key="80" pan="0" vol="100" pos="84"/>
          <note len="12" key="83" pan="0" vol="100" pos="96"/>
          <note len="12" key="80" pan="0" vol="100" pos="108"/>
          <note len="12" key="76" pan="0" vol="100" pos="120"/>
          <note len="12" key="71" pan="0" vol="100" pos="132"/>
          <note len="12" key="68" pan="0" vol="100" pos="144"/>
          <note len="12" key="64" pan="0" vol="100" pos="156"/>
          <note len="12" key="59" pan="0" vol="100" pos="168"/>
          <note len="12" key="56" pan="0" vol="100" pos="180"/>
        </pattern>
        <pattern muted="0" name="" steps="16" type="1" pos="63744">
          <note len="12" key="58" pan="0" vol="197" pos="0"/>
          <note len="12" key="54" pan="0" vol="197" pos="12"/>
          <note len="12" key="56" pan="0" vol="197" pos="24"/>
          <note len="12" key="58" pan="0" vol="197" pos="36"/>
          <note len="12" key="59" pan="0" vol="197" pos="48"/>
          <note len="12" key="56" pan="0" vol="197" pos="60"/>
          <note len="12" key="58" pan="0" vol="197" pos="72"/>
          <note len="12" key="59" pan="0" vol="197" pos="84"/>
          <note len="12" key="61" pan="0" vol="197" pos="96"/>
          <note len="12" key="58" pan="0" vol="197" pos="108"/>
          <note len="12" key="59" pan="0" vol="197" pos="120"/>
          <note len="12" key="61" pan="0" vol="197" pos="132"/>
          <note len="12" key="63" pan="0" vol="197" pos="144"/>
          <note len="12" key="59" pan="0" vol="197" pos="156"/>
          <note len="12" key="61" pan="0" vol="197" pos="168"/>
          <note len="12" key="63" pan="0" vol="197" pos="180"/>
          <note len="12" key="65" pan="0" vol="197" pos="192"/>
          <note len="12" key="63" pan="0" vol="197" pos="204"/>
          <note len="12" key="61" pan="0" vol="197" pos="216"/>
          <note len="12" key="59" pan="0" vol="197" pos="228"/>
          <note len="12" key="58" pan="0" vol="197" pos="240"/>
          <note len="12" key="59" pan="0" vol="197" pos="252"/>
          <note len="12" key="63" pan="0" vol="197" pos="264"/>
          <note len="12" key="61" pan="0" vol="197" pos="276"/>
          <note len="12" key="59" pan="0" vol="197" pos="288"/>
          <note len="12" key="58" pan="0" vol="197" pos="300"/>
          <note len="12" key="56" pan="0" vol="197" pos="312"/>
          <note len="12" key="58" pan="0" vol="197" pos="324"/>
          <note len="12" key="61" pan="0" vol="197" pos="336"/>
          <note len="12" key="59" pan="0" vol="197" pos="348"/>
          <note len="12" key="58" pan="0" vol="197" pos="360"/>
          <note len="12" key="56" pan="0" vol="197" pos="372"/>
          <note len="12" key="54" pan="0" vol="197" pos="384"/>
          <note len="12" key="56" pan="0" vol="197" pos="396"/>
          <note len="12" key="59" pan="0" vol="200" pos="408"/>
          <note len="12" key="58" pan="0" vol="200" pos="420"/>
          <note len="12" key="56" pan="0" vol="200" pos="432"/>
          <note len="12" key="54" pan="0" vol="200" pos="444"/>
          <note len="12" key="53" pan="0" vol="200" pos="456"/>
          <note len="12" key="54" pan="0" vol="200" pos="468"/>
          <note len="12" key="58" pan="0" vol="200" pos="480"/>
          <note len="12" key="56" pan="0" vol="200" pos="492"/>
          <note len="12" key="54" pan="0" vol="200" pos="504"/>
          <note len="12" key="53" pan="0" vol="200" pos="516"/>
          <note len="12" key="56" pan="0" vol="200" pos="528"/>
          <note len="12" key="54" pan="0" vol="200" pos="540"/>
          <note len="12" key="53" pan="0" vol="200" pos="552"/>
          <note len="12" key="54" pan="0" vol="200" pos="564"/>
          <note len="192" key="66" pan="0" vol="197" pos="576"/>
        </pattern>
        <pattern muted="0" name="" steps="16" type="1" pos="57984">
          <note len="12" key="54" pan="0" vol="100" pos="0"/>
          <note len="12" key="58" pan="0" vol="100" pos="12"/>
          <note len="12" key="63" pan="0" vol="100" pos="24"/>
          <note len="12" key="66" pan="0" vol="100" pos="36"/>
          <note len="12" key="70" pan="0" vol="100" pos="48"/>
          <note len="12" key="75" pan="0" vol="100" pos="60"/>
          <note len="12" key="78" pan="0" vol="100" pos="72"/>
          <note len="12" key="82" pan="0" vol="100" pos="84"/>
          <note len="12" key="87" pan="0" vol="100" pos="96"/>
          <note len="12" key="82" pan="0" vol="100" pos="108"/>
          <note len="12" key="78" pan="0" vol="100" pos="120"/>
          <note len="12" key="75" pan="0" vol="100" pos="132"/>
          <note len="12" key="70" pan="0" vol="100" pos="144"/>
          <note len="12" key="66" pan="0" vol="100" pos="156"/>
          <note len="12" key="63" pan="0" vol="100" pos="168"/>
          <note len="12" key="58" pan="0" vol="100" pos="180"/>
        </pattern>
        <pattern muted="0" name="" steps="16" type="1" pos="58368">
          <note len="12" key="53" pan="0" vol="100" pos="0"/>
          <note len="12" key="56" pan="0" vol="100" pos="12"/>
          <note len="12" key="61" pan="0" vol="100" pos="24"/>
          <note len="12" key="65" pan="0" vol="100" pos="36"/>
          <note len="12" key="68" pan="0" vol="100" pos="48"/>
          <note len="12" key="73" pan="0" vol="100" pos="60"/>
          <note len="12" key="77" pan="0" vol="100" pos="72"/>
          <note len="12" key="80" pan="0" vol="100" pos="84"/>
          <note len="12" key="85" pan="0" vol="100" pos="96"/>
          <note len="12" key="80" pan="0" vol="100" pos="108"/>
          <note len="12" key="77" pan="0" vol="100" pos="120"/>
          <note len="12" key="73" pan="0" vol="100" pos="132"/>
          <note len="12" key="68" pan="0" vol="100" pos="144"/>
          <note len="12" key="65" pan="0" vol="100" pos="156"/>
          <note len="12" key="61" pan="0" vol="100" pos="168"/>
          <note len="12" key="56" pan="0" vol="100" pos="180"/>
        </pattern>
        <pattern muted="0" name="" steps="16" type="1" pos="58752">
          <note len="12" key="51" pan="0" vol="100" pos="0"/>
          <note len="12" key="56" pan="0" vol="100" pos="12"/>
          <note len="12" key="60" pan="0" vol="100" pos="24"/>
          <note len="12" key="63" pan="0" vol="100" pos="36"/>
          <note len="12" key="68" pan="0" vol="100" pos="48"/>
          <note len="12" key="72" pan="0" vol="100" pos="60"/>
          <note len="12" key="75" pan="0" vol="100" pos="72"/>
          <note len="12" key="80" pan="0" vol="100" pos="84"/>
          <note len="12" key="84" pan="0" vol="100" pos="96"/>
          <note len="12" key="80" pan="0" vol="100" pos="108"/>
          <note len="12" key="75" pan="0" vol="100" pos="120"/>
          <note len="12" key="72" pan="0" vol="100" pos="132"/>
          <note len="12" key="68" pan="0" vol="100" pos="144"/>
          <note len="12" key="63" pan="0" vol="100" pos="156"/>
          <note len="12" key="60" pan="0" vol="100" pos="168"/>
          <note len="12" key="56" pan="0" vol="100" pos="180"/>
        </pattern>
        <pattern muted="0" name="" steps="16" type="1" pos="59136">
          <note len="12" key="52" pan="0" vol="100" pos="0"/>
          <note len="12" key="56" pan="0" vol="100" pos="12"/>
          <note len="12" key="59" pan="0" vol="100" pos="24"/>
          <note len="12" key="64" pan="0" vol="100" pos="36"/>
          <note len="12" key="68" pan="0" vol="100" pos="48"/>
          <note len="12" key="71" pan="0" vol="100" pos="60"/>
          <note len="12" key="76" pan="0" vol="100" pos="72"/>
          <note len="12" key="80" pan="0" vol="100" pos="84"/>
          <note len="12" key="83" pan="0" vol="100" pos="96"/>
          <note len="12" key="80" pan="0" vol="100" pos="108"/>
          <note len="12" key="76" pan="0" vol="100" pos="120"/>
          <note len="12" key="71" pan="0" vol="100" pos="132"/>
          <note len="12" key="68" pan="0" vol="100" pos="144"/>
          <note len="12" key="64" pan="0" vol="100" pos="156"/>
          <note len="12" key="59" pan="0" vol="100" pos="168"/>
          <note len="12" key="56" pan="0" vol="100" pos="180"/>
        </pattern>
        <pattern muted="0" name="" steps="16" type="1" pos="59520">
          <note len="12" key="54" pan="0" vol="100" pos="0"/>
          <note len="12" key="58" pan="0" vol="100" pos="12"/>
          <note len="12" key="63" pan="0" vol="100" pos="24"/>
          <note len="12" key="66" pan="0" vol="100" pos="36"/>
          <note len="12" key="70" pan="0" vol="100" pos="48"/>
          <note len="12" key="75" pan="0" vol="100" pos="60"/>
          <note len="12" key="78" pan="0" vol="100" pos="72"/>
          <note len="12" key="82" pan="0" vol="100" pos="84"/>
          <note len="12" key="87" pan="0" vol="100" pos="96"/>
          <note len="12" key="82" pan="0" vol="100" pos="108"/>
          <note len="12" key="78" pan="0" vol="100" pos="120"/>
          <note len="12" key="75" pan="0" vol="100" pos="132"/>
          <note len="12" key="70" pan="0" vol="100" pos="144"/>
          <note len="12" key="66" pan="0" vol="100" pos="156"/>
          <note len="12" key="63" pan="0" vol="100" pos="168"/>
          <note len="12" key="58" pan="0" vol="100" pos="180"/>
        </pattern>
        <pattern muted="0" name="" steps="16" type="1" pos="61056">
          <note len="12" key="54" pan="0" vol="100" pos="0"/>
          <note len="12" key="58" pan="0" vol="100" pos="12"/>
          <note len="12" key="63" pan="0" vol="100" pos="24"/>
          <note len="12" key="66" pan="0" vol="100" pos="36"/>
          <note len="12" key="70" pan="0" vol="100" pos="48"/>
          <note len="12" key="75" pan="0" vol="100" pos="60"/>
          <note len="12" key="78" pan="0" vol="100" pos="72"/>
          <note len="12" key="82" pan="0" vol="100" pos="84"/>
          <note len="12" key="87" pan="0" vol="100" pos="96"/>
          <note len="12" key="82" pan="0" vol="100" pos="108"/>
          <note len="12" key="78" pan="0" vol="100" pos="120"/>
          <note len="12" key="75" pan="0" vol="100" pos="132"/>
          <note len="12" key="70" pan="0" vol="100" pos="144"/>
          <note len="12" key="66" pan="0" vol="100" pos="156"/>
          <note len="12" key="63" pan="0" vol="100" pos="168"/>
          <note len="12" key="58" pan="0" vol="100" pos="180"/>
        </pattern>
        <pattern muted="0" name="" steps="16" type="1" pos="59904">
          <note len="12" key="53" pan="0" vol="100" pos="0"/>
          <note len="12" key="56" pan="0" vol="100" pos="12"/>
          <note len="12" key="61" pan="0" vol="100" pos="24"/>
          <note len="12" key="65" pan="0" vol="100" pos="36"/>
          <note len="12" key="68" pan="0" vol="100" pos="48"/>
          <note len="12" key="73" pan="0" vol="100" pos="60"/>
          <note len="12" key="77" pan="0" vol="100" pos="72"/>
          <note len="12" key="80" pan="0" vol="100" pos="84"/>
          <note len="12" key="85" pan="0" vol="100" pos="96"/>
          <note len="12" key="80" pan="0" vol="100" pos="108"/>
          <note len="12" key="77" pan="0" vol="100" pos="120"/>
          <note len="12" key="73" pan="0" vol="100" pos="132"/>
          <note len="12" key="68" pan="0" vol="100" pos="144"/>
          <note len="12" key="65" pan="0" vol="100" pos="156"/>
          <note len="12" key="61" pan="0" vol="100" pos="168"/>
          <note len="12" key="56" pan="0" vol="100" pos="180"/>
        </pattern>
        <pattern muted="0" name="" steps="16" type="1" pos="61440">
          <note len="12" key="53" pan="0" vol="100" pos="0"/>
          <note len="12" key="56" pan="0" vol="100" pos="12"/>
          <note len="12" key="61" pan="0" vol="100" pos="24"/>
          <note len="12" key="65" pan="0" vol="100" pos="36"/>
          <note len="12" key="68" pan="0" vol="100" pos="48"/>
          <note len="12" key="73" pan="0" vol="100" pos="60"/>
          <note len="12" key="77" pan="0" vol="100" pos="72"/>
          <note len="12" key="80" pan="0" vol="100" pos="84"/>
          <note len="12" key="85" pan="0" vol="100" pos="96"/>
          <note len="12" key="80" pan="0" vol="100" pos="108"/>
          <note len="12" key="77" pan="0" vol="100" pos="120"/>
          <note len="12" key="73" pan="0" vol="100" pos="132"/>
          <note len="12" key="68" pan="0" vol="100" pos="144"/>
          <note len="12" key="65" pan="0" vol="100" pos="156"/>
          <note len="12" key="61" pan="0" vol="100" pos="168"/>
          <note len="12" key="56" pan="0" vol="100" pos="180"/>
        </pattern>
        <pattern muted="0" name="" steps="16" type="1" pos="60288">
          <note len="12" key="51" pan="0" vol="100" pos="0"/>
          <note len="12" key="56" pan="0" vol="100" pos="12"/>
          <note len="12" key="60" pan="0" vol="100" pos="24"/>
          <note len="12" key="63" pan="0" vol="100" pos="36"/>
          <note len="12" key="68" pan="0" vol="100" pos="48"/>
          <note len="12" key="72" pan="0" vol="100" pos="60"/>
          <note len="12" key="75" pan="0" vol="100" pos="72"/>
          <note len="12" key="80" pan="0" vol="100" pos="84"/>
          <note len="12" key="84" pan="0" vol="100" pos="96"/>
          <note len="12" key="80" pan="0" vol="100" pos="108"/>
          <note len="12" key="75" pan="0" vol="100" pos="120"/>
          <note len="12" key="72" pan="0" vol="100" pos="132"/>
          <note len="12" key="68" pan="0" vol="100" pos="144"/>
          <note len="12" key="63" pan="0" vol="100" pos="156"/>
          <note len="12" key="60" pan="0" vol="100" pos="168"/>
          <note len="12" key="56" pan="0" vol="100" pos="180"/>
        </pattern>
        <pattern muted="0" name="" steps="16" type="1" pos="61824">
          <note len="12" key="51" pan="0" vol="100" pos="0"/>
          <note len="12" key="56" pan="0" vol="100" pos="12"/>
          <note len="12" key="60" pan="0" vol="100" pos="24"/>
          <note len="12" key="63" pan="0" vol="100" pos="36"/>
          <note len="12" key="68" pan="0" vol="100" pos="48"/>
          <note len="12" key="72" pan="0" vol="100" pos="60"/>
          <note len="12" key="75" pan="0" vol="100" pos="72"/>
          <note len="12" key="80" pan="0" vol="100" pos="84"/>
          <note len="12" key="84" pan="0" vol="100" pos="96"/>
          <note len="12" key="80" pan="0" vol="100" pos="108"/>
          <note len="12" key="75" pan="0" vol="100" pos="120"/>
          <note len="12" key="72" pan="0" vol="100" pos="132"/>
          <note len="12" key="68" pan="0" vol="100" pos="144"/>
          <note len="12" key="63" pan="0" vol="100" pos="156"/>
          <note len="12" key="60" pan="0" vol="100" pos="168"/>
          <note len="12" key="56" pan="0" vol="100" pos="180"/>
        </pattern>
        <pattern muted="0" name="" steps="16" type="1" pos="60672">
          <note len="12" key="52" pan="0" vol="100" pos="0"/>
          <note len="12" key="56" pan="0" vol="100" pos="12"/>
          <note len="12" key="59" pan="0" vol="100" pos="24"/>
          <note len="12" key="64" pan="0" vol="100" pos="36"/>
          <note len="12" key="68" pan="0" vol="100" pos="48"/>
          <note len="12" key="71" pan="0" vol="100" pos="60"/>
          <note len="12" key="76" pan="0" vol="100" pos="72"/>
          <note len="12" key="80" pan="0" vol="100" pos="84"/>
          <note len="12" key="83" pan="0" vol="100" pos="96"/>
          <note len="12" key="80" pan="0" vol="100" pos="108"/>
          <note len="12" key="76" pan="0" vol="100" pos="120"/>
          <note len="12" key="71" pan="0" vol="100" pos="132"/>
          <note len="12" key="68" pan="0" vol="100" pos="144"/>
          <note len="12" key="64" pan="0" vol="100" pos="156"/>
          <note len="12" key="59" pan="0" vol="100" pos="168"/>
          <note len="12" key="56" pan="0" vol="100" pos="180"/>
        </pattern>
        <pattern muted="0" name="" steps="16" type="1" pos="62208">
          <note len="12" key="52" pan="0" vol="100" pos="0"/>
          <note len="12" key="56" pan="0" vol="100" pos="12"/>
          <note len="12" key="59" pan="0" vol="100" pos="24"/>
          <note len="12" key="64" pan="0" vol="100" pos="36"/>
          <note len="12" key="68" pan="0" vol="100" pos="48"/>
          <note len="12" key="71" pan="0" vol="100" pos="60"/>
          <note len="12" key="76" pan="0" vol="100" pos="72"/>
          <note len="12" key="80" pan="0" vol="100" pos="84"/>
          <note len="12" key="83" pan="0" vol="100" pos="96"/>
          <note len="12" key="80" pan="0" vol="100" pos="108"/>
          <note len="12" key="76" pan="0" vol="100" pos="120"/>
          <note len="12" key="71" pan="0" vol="100" pos="132"/>
          <note len="12" key="68" pan="0" vol="100" pos="144"/>
          <note len="12" key="64" pan="0" vol="100" pos="156"/>
          <note len="12" key="59" pan="0" vol="100" pos="168"/>
          <note len="12" key="56" pan="0" vol="100" pos="180"/>
        </pattern>
        <pattern muted="0" name="" steps="16" type="1" pos="62400">
          <note len="12" key="52" pan="0" vol="100" pos="0"/>
          <note len="12" key="56" pan="0" vol="100" pos="12"/>
          <note len="12" key="59" pan="0" vol="100" pos="24"/>
          <note len="12" key="64" pan="0" vol="100" pos="36"/>
          <note len="12" key="68" pan="0" vol="100" pos="48"/>
          <note len="12" key="71" pan="0" vol="100" pos="60"/>
          <note len="12" key="76" pan="0" vol="100" pos="72"/>
          <note len="12" key="80" pan="0" vol="100" pos="84"/>
          <note len="12" key="83" pan="0" vol="100" pos="96"/>
          <note len="12" key="80" pan="0" vol="100" pos="108"/>
          <note len="12" key="76" pan="0" vol="100" pos="120"/>
          <note len="12" key="71" pan="0" vol="100" pos="132"/>
          <note len="12" key="68" pan="0" vol="100" pos="144"/>
          <note len="12" key="64" pan="0" vol="100" pos="156"/>
          <note len="12" key="59" pan="0" vol="100" pos="168"/>
          <note len="12" key="56" pan="0" vol="100" pos="180"/>
        </pattern>
        <pattern muted="0" name="" steps="16" type="1" pos="62016">
          <note len="12" key="51" pan="0" vol="100" pos="0"/>
          <note len="12" key="56" pan="0" vol="100" pos="12"/>
          <note len="12" key="60" pan="0" vol="100" pos="24"/>
          <note len="12" key="63" pan="0" vol="100" pos="36"/>
          <note len="12" key="68" pan="0" vol="100" pos="48"/>
          <note len="12" key="72" pan="0" vol="100" pos="60"/>
          <note len="12" key="75" pan="0" vol="100" pos="72"/>
          <note len="12" key="80" pan="0" vol="100" pos="84"/>
          <note len="12" key="84" pan="0" vol="100" pos="96"/>
          <note len="12" key="80" pan="0" vol="100" pos="108"/>
          <note len="12" key="75" pan="0" vol="100" pos="120"/>
          <note len="12" key="72" pan="0" vol="100" pos="132"/>
          <note len="12" key="68" pan="0" vol="100" pos="144"/>
          <note len="12" key="63" pan="0" vol="100" pos="156"/>
          <note len="12" key="60" pan="0" vol="100" pos="168"/>
          <note len="12" key="56" pan="0" vol="100" pos="180"/>
        </pattern>
        <pattern muted="0" name="" steps="16" type="1" pos="61632">
          <note len="12" key="53" pan="0" vol="100" pos="0"/>
          <note len="12" key="56" pan="0" vol="100" pos="12"/>
          <note len="12" key="61" pan="0" vol="100" pos="24"/>
          <note len="12" key="65" pan="0" vol="100" pos="36"/>
          <note len="12" key="68" pan="0" vol="100" pos="48"/>
          <note len="12" key="73" pan="0" vol="100" pos="60"/>
          <note len="12" key="77" pan="0" vol="100" pos="72"/>
          <note len="12" key="80" pan="0" vol="100" pos="84"/>
          <note len="12" key="85" pan="0" vol="100" pos="96"/>
          <note len="12" key="80" pan="0" vol="100" pos="108"/>
          <note len="12" key="77" pan="0" vol="100" pos="120"/>
          <note len="12" key="73" pan="0" vol="100" pos="132"/>
          <note len="12" key="68" pan="0" vol="100" pos="144"/>
          <note len="12" key="65" pan="0" vol="100" pos="156"/>
          <note len="12" key="61" pan="0" vol="100" pos="168"/>
          <note len="12" key="56" pan="0" vol="100" pos="180"/>
        </pattern>
        <pattern muted="0" name="" steps="16" type="1" pos="61248">
          <note len="12" key="54" pan="0" vol="100" pos="0"/>
          <note len="12" key="58" pan="0" vol="100" pos="12"/>
          <note len="12" key="63" pan="0" vol="100" pos="24"/>
          <note len="12" key="66" pan="0" vol="100" pos="36"/>
          <note len="12" key="70" pan="0" vol="100" pos="48"/>
          <note len="12" key="75" pan="0" vol="100" pos="60"/>
          <note len="12" key="78" pan="0" vol="100" pos="72"/>
          <note len="12" key="82" pan="0" vol="100" pos="84"/>
          <note len="12" key="87" pan="0" vol="100" pos="96"/>
          <note len="12" key="82" pan="0" vol="100" pos="108"/>
          <note len="12" key="78" pan="0" vol="100" pos="120"/>
          <note len="12" key="75" pan="0" vol="100" pos="132"/>
          <note len="12" key="70" pan="0" vol="100" pos="144"/>
          <note len="12" key="66" pan="0" vol="100" pos="156"/>
          <note len="12" key="63" pan="0" vol="100" pos="168"/>
          <note len="12" key="58" pan="0" vol="100" pos="180"/>
        </pattern>
        <pattern muted="0" name="" steps="16" type="1" pos="60864">
          <note len="12" key="52" pan="0" vol="100" pos="0"/>
          <note len="12" key="56" pan="0" vol="100" pos="12"/>
          <note len="12" key="59" pan="0" vol="100" pos="24"/>
          <note len="12" key="64" pan="0" vol="100" pos="36"/>
          <note len="12" key="68" pan="0" vol="100" pos="48"/>
          <note len="12" key="71" pan="0" vol="100" pos="60"/>
          <note len="12" key="76" pan="0" vol="100" pos="72"/>
          <note len="12" key="80" pan="0" vol="100" pos="84"/>
          <note len="12" key="83" pan="0" vol="100" pos="96"/>
          <note len="12" key="80" pan="0" vol="100" pos="108"/>
          <note len="12" key="76" pan="0" vol="100" pos="120"/>
          <note len="12" key="71" pan="0" vol="100" pos="132"/>
          <note len="12" key="68" pan="0" vol="100" pos="144"/>
          <note len="12" key="64" pan="0" vol="100" pos="156"/>
          <note len="12" key="59" pan="0" vol="100" pos="168"/>
          <note len="12" key="56" pan="0" vol="100" pos="180"/>
        </pattern>
        <pattern muted="0" name="" steps="16" type="1" pos="60480">
          <note len="12" key="51" pan="0" vol="100" pos="0"/>
          <note len="12" key="56" pan="0" vol="100" pos="12"/>
          <note len="12" key="60" pan="0" vol="100" pos="24"/>
          <note len="12" key="63" pan="0" vol="100" pos="36"/>
          <note len="12" key="68" pan="0" vol="100" pos="48"/>
          <note len="12" key="72" pan="0" vol="100" pos="60"/>
          <note len="12" key="75" pan="0" vol="100" pos="72"/>
          <note len="12" key="80" pan="0" vol="100" pos="84"/>
          <note len="12" key="84" pan="0" vol="100" pos="96"/>
          <note len="12" key="80" pan="0" vol="100" pos="108"/>
          <note len="12" key="75" pan="0" vol="100" pos="120"/>
          <note len="12" key="72" pan="0" vol="100" pos="132"/>
          <note len="12" key="68" pan="0" vol="100" pos="144"/>
          <note len="12" key="63" pan="0" vol="100" pos="156"/>
          <note len="12" key="60" pan="0" vol="100" pos="168"/>
          <note len="12" key="56" pan="0" vol="100" pos="180"/>
        </pattern>
        <pattern muted="0" name="" steps="16" type="1" pos="60096">
          <note len="12" key="53" pan="0" vol="100" pos="0"/>
          <note len="12" key="56" pan="0" vol="100" pos="12"/>
          <note len="12" key="61" pan="0" vol="100" pos="24"/>
          <note len="12" key="65" pan="0" vol="100" pos="36"/>
          <note len="12" key="68" pan="0" vol="100" pos="48"/>
          <note len="12" key="73" pan="0" vol="100" pos="60"/>
          <note len="12" key="77" pan="0" vol="100" pos="72"/>
          <note len="12" key="80" pan="0" vol="100" pos="84"/>
          <note len="12" key="85" pan="0" vol="100" pos="96"/>
          <note len="12" key="80" pan="0" vol="100" pos="108"/>
          <note len="12" key="77" pan="0" vol="100" pos="120"/>
          <note len="12" key="73" pan="0" vol="100" pos="132"/>
          <note len="12" key="68" pan="0" vol="100" pos="144"/>
          <note len="12" key="65" pan="0" vol="100" pos="156"/>
          <note len="12" key="61" pan="0" vol="100" pos="168"/>
          <note len="12" key="56" pan="0" vol="100" pos="180"/>
        </pattern>
        <pattern muted="0" name="" steps="16" type="1" pos="59712">
          <note len="12" key="54" pan="0" vol="100" pos="0"/>
          <note len="12" key="58" pan="0" vol="100" pos="12"/>
          <note len="12" key="63" pan="0" vol="100" pos="24"/>
          <note len="12" key="66" pan="0" vol="100" pos="36"/>
          <note len="12" key="70" pan="0" vol="100" pos="48"/>
          <note len="12" key="75" pan="0" vol="100" pos="60"/>
          <note len="12" key="78" pan="0" vol="100" pos="72"/>
          <note len="12" key="82" pan="0" vol="100" pos="84"/>
          <note len="12" key="87" pan="0" vol="100" pos="96"/>
          <note len="12" key="82" pan="0" vol="100" pos="108"/>
          <note len="12" key="78" pan="0" vol="100" pos="120"/>
          <note len="12" key="75" pan="0" vol="100" pos="132"/>
          <note len="12" key="70" pan="0" vol="100" pos="144"/>
          <note len="12" key="66" pan="0" vol="100" pos="156"/>
          <note len="12" key="63" pan="0" vol="100" pos="168"/>
          <note len="12" key="58" pan="0" vol="100" pos="180"/>
        </pattern>
        <pattern muted="0" name="" steps="16" type="1" pos="59328">
          <note len="12" key="52" pan="0" vol="100" pos="0"/>
          <note len="12" key="56" pan="0" vol="100" pos="12"/>
          <note len="12" key="59" pan="0" vol="100" pos="24"/>
          <note len="12" key="64" pan="0" vol="100" pos="36"/>
          <note len="12" key="68" pan="0" vol="100" pos="48"/>
          <note len="12" key="71" pan="0" vol="100" pos="60"/>
          <note len="12" key="76" pan="0" vol="100" pos="72"/>
          <note len="12" key="80" pan="0" vol="100" pos="84"/>
          <note len="12" key="83" pan="0" vol="100" pos="96"/>
          <note len="12" key="80" pan="0" vol="100" pos="108"/>
          <note len="12" key="76" pan="0" vol="100" pos="120"/>
          <note len="12" key="71" pan="0" vol="100" pos="132"/>
          <note len="12" key="68" pan="0" vol="100" pos="144"/>
          <note len="12" key="64" pan="0" vol="100" pos="156"/>
          <note len="12" key="59" pan="0" vol="100" pos="168"/>
          <note len="12" key="56" pan="0" vol="100" pos="180"/>
        </pattern>
        <pattern muted="0" name="" steps="16" type="1" pos="58944">
          <note len="12" key="51" pan="0" vol="100" pos="0"/>
          <note len="12" key="56" pan="0" vol="100" pos="12"/>
          <note len="12" key="60" pan="0" vol="100" pos="24"/>
          <note len="12" key="63" pan="0" vol="100" pos="36"/>
          <note len="12" key="68" pan="0" vol="100" pos="48"/>
          <note len="12" key="72" pan="0" vol="100" pos="60"/>
          <note len="12" key="75" pan="0" vol="100" pos="72"/>
          <note len="12" key="80" pan="0" vol="100" pos="84"/>
          <note len="12" key="84" pan="0" vol="100" pos="96"/>
          <note len="12" key="80" pan="0" vol="100" pos="108"/>
          <note len="12" key="75" pan="0" vol="100" pos="120"/>
          <note len="12" key="72" pan="0" vol="100" pos="132"/>
          <note len="12" key="68" pan="0" vol="100" pos="144"/>
          <note len="12" key="63" pan="0" vol="100" pos="156"/>
          <note len="12" key="60" pan="0" vol="100" pos="168"/>
          <note len="12" key="56" pan="0" vol="100" pos="180"/>
        </pattern>
        <pattern muted="0" name="" steps="16" type="1" pos="58560">
          <note len="12" key="53" pan="0" vol="100" pos="0"/>
          <note len="12" key="56" pan="0" vol="100" pos="12"/>
          <note len="12" key="61" pan="0" vol="100" pos="24"/>
          <note len="12" key="65" pan="0" vol="100" pos="36"/>
          <note len="12" key="68" pan="0" vol="100" pos="48"/>
          <note len="12" key="73" pan="0" vol="100" pos="60"/>
          <note len="12" key="77" pan="0" vol="100" pos="72"/>
          <note len="12" key="80" pan="0" vol="100" pos="84"/>
          <note len="12" key="85" pan="0" vol="100" pos="96"/>
          <note len="12" key="80" pan="0" vol="100" pos="108"/>
          <note len="12" key="77" pan="0" vol="100" pos="120"/>
          <note len="12" key="73" pan="0" vol="100" pos="132"/>
          <note len="12" key="68" pan="0" vol="100" pos="144"/>
          <note len="12" key="65" pan="0" vol="100" pos="156"/>
          <note len="12" key="61" pan="0" vol="100" pos="168"/>
          <note len="12" key="56" pan="0" vol="100" pos="180"/>
        </pattern>
        <pattern muted="0" name="" steps="16" type="1" pos="58176">
          <note len="12" key="54" pan="0" vol="100" pos="0"/>
          <note len="12" key="58" pan="0" vol="100" pos="12"/>
          <note len="12" key="63" pan="0" vol="100" pos="24"/>
          <note len="12" key="66" pan="0" vol="100" pos="36"/>
          <note len="12" key="70" pan="0" vol="100" pos="48"/>
          <note len="12" key="75" pan="0" vol="100" pos="60"/>
          <note len="12" key="78" pan="0" vol="100" pos="72"/>
          <note len="12" key="82" pan="0" vol="100" pos="84"/>
          <note len="12" key="87" pan="0" vol="100" pos="96"/>
          <note len="12" key="82" pan="0" vol="100" pos="108"/>
          <note len="12" key="78" pan="0" vol="100" pos="120"/>
          <note len="12" key="75" pan="0" vol="100" pos="132"/>
          <note len="12" key="70" pan="0" vol="100" pos="144"/>
          <note len="12" key="66" pan="0" vol="100" pos="156"/>
          <note len="12" key="63" pan="0" vol="100" pos="168"/>
          <note len="12" key="58" pan="0" vol="100" pos="180"/>
        </pattern>
      </track>
      <track muted="0" name="backing sban" type="0" solo="0" mutedBeforeSolo="0">
        <instrumenttrack usemasterpitch="1" pitchrange="2" pitch="0" pan="0" basenote="57" vol="200" fxch="24">
          <instrument name="tripleoscillator">
            <tripleoscillator wavetype1="0" finel1="0" coarse0="0" wavetype2="0" finer0="0" finer1="0" userwavefile1="" pan0="0" vol2="0" phoffset2="0" stphdetun0="0" coarse1="0" finel2="0" finer2="0" stphdetun2="0" pan1="0" vol0="200" phoffset0="0" modalgo1="4" phoffset1="0" stphdetun1="0" vol1="19" userwavefile2="" modalgo2="2" pan2="0" finel0="0" coarse2="-24" modalgo3="2" wavetype0="0" userwavefile0="">
              <key/>
            </tripleoscillator>
          </instrument>
          <eldata fcut="1456" fwet="0" fres="0.89" ftype="17">
            <elvol rel="0" lspd_syncmode="0" pdel="0" lspd_numerator="4" lpdel="0" amt="0" ctlenvamt="0" lshp="0" userwavefile="" dec="0.5" lspd_denominator="4" sustain="0.5" lspd="0.1" latt="0" hold="0.5" att="0" x100="0" lamt="0"/>
            <elcut rel="0" lspd_syncmode="0" pdel="0" lspd_numerator="4" lpdel="0" amt="0" ctlenvamt="0" lshp="2" userwavefile="" dec="0.5" lspd_denominator="4" sustain="0.5" lspd="0.037" latt="0" hold="0.5" att="0" x100="1" lamt="0"/>
            <elres rel="0.1" lspd_syncmode="0" pdel="0" lspd_numerator="4" lpdel="0" amt="0" ctlenvamt="0" lshp="1" userwavefile="" dec="0.5" lspd_denominator="4" sustain="0.5" lspd="0.152" latt="0" hold="0.5" att="0" x100="0" lamt="0"/>
          </eldata>
          <chordcreator chord="0" chordrange="1" chord-enabled="0"/>
          <arpeggiator arptime_denominator="4" arptime="200" arp-enabled="0" arpcycle="0" arpgate="100" arp="0" arpmiss="0" arpdir="0" arprange="1" arpmode="0" arpskip="0" arptime_syncmode="0" arptime_numerator="4"/>
          <midiport inputcontroller="0" fixedinputvelocity="-1" readable="0" outputcontroller="0" fixedoutputnote="-1" outputprogram="1" writable="0" fixedoutputvelocity="-1" basevelocity="63" outputchannel="1" inputchannel="0"/>
          <fxchain enabled="1" numofeffects="7">
            <effect wet="1" autoquit_denominator="4" autoquit="1" name="ladspaeffect" on="0" autoquit_syncmode="0" gate="0" autoquit_numerator="4">
              <ladspacontrols ports="7">
                <port00 data="3.4875"/>
                <port01 data="180"/>
                <port02 data="100"/>
                <port03 data="17"/>
                <port04 data="20000"/>
                <port05 data="0.55"/>
                <port06 data="-0.6875"/>
              </ladspacontrols>
              <key>
                <attribute name="file" value="tap_chorusflanger"/>
                <attribute name="plugin" value="tap_chorusflanger"/>
              </key>
            </effect>
            <effect wet="1" autoquit_denominator="4" autoquit="1" name="eq" on="1" autoquit_syncmode="0" gate="0" autoquit_numerator="4">
              <Eq LPres="0.707" Peak3gain="0" HighShelfres="1.4" LP12="1" Peak2gain="0" Peak2active="0" HP48="0" HP="1" HPres="0.707" LP24="0" AnalyseIn="1" Peak2bw="0.3" LP48="0" HP24="1" Highshelfactive="0" Peak3bw="0.3" Peak4gain="0" Lowshelfgain="0" Peak1active="0" LPactive="1" LowShelfres="1.4" Peak4bw="0.3" Peak3active="0" Peak4active="0" HighShelfgain="0" Peak1bw="0.3" Lowshelfactive="0" Outputgain="0.8" LP="0" AnalyseOut="1" HP12="0" HPactive="1">
                <Inputgain id="1598212" scale_type="log" value="0"/>
                <Peak1gain id="6803051" scale_type="log" value="0"/>
                <HPfreq id="537981" scale_type="log" value="260.717"/>
                <LowShelffreq id="3671222" scale_type="log" value="80"/>
                <Peak1freq id="2474406" scale_type="log" value="120"/>
                <Peak2freq id="1093128" scale_type="log" value="250"/>
                <Peak3freq id="1773899" scale_type="log" value="2000"/>
                <Peak4freq id="5705623" scale_type="log" value="4000"/>
                <Highshelffreq id="3514465" scale_type="log" value="12000"/>
                <LPfreq id="255617" scale_type="log" value="1667.01"/>
              </Eq>
              <key/>
            </effect>
            <effect wet="1" autoquit_denominator="4" autoquit="1" name="waveshaper" on="0" autoquit_syncmode="0" gate="0" autoquit_numerator="4">
              <waveshapercontrols inputGain="5" outputGain="1" clipInput="1" waveShape="AACAPwAAgD8AAIA/AACAPwAAgD8AAIA/AACAPwAAgD8AAIA/AACAPwAAgD8AAIA/AACAPwAAgD8AAIA/AACAPwAAgD8AAIA/AACAPwAAgD8AAIA/AACAPwAAgD8AAIA/AACAPwAAgD8AAIA/AACAPwAAgD8AAIA/AACAPwAAgD8AAIA/AACAPwAAgD8AAIA/AACAPwAAgD8AAIA/AACAPwAAgD8AAIA/AACAPwAAgD8AAIA/AACAPwAAgD8AAIA/AACAPwAAgD8AAIA/AACAPwAAgD8AAIA/AACAPwAAgD8AAIA/AACAPwAAgD8AAIA/AACAPwAAgD8AAIA/AACAPwAAgD8AAIA/AACAPwAAgD8AAIA/AACAPwAAgD8AAIA/AACAPwAAgD8AAIA/AACAPwAAgD8AAIA/AACAPwAAgD8AAIA/AACAPwAAgD8AAIA/AACAPwAAgD8AAIA/AACAPwAAgD8AAIA/AACAPwAAgD8AAIA/AACAPwAAgD8AAIA/AACAPwAAgD8AAIA/AACAPwAAgD8AAIA/AACAPwAAgD8AAIA/AACAPwAAgD8AAIA/AACAPwAAgD8AAIA/AACAPwAAgD8AAIA/AACAPwAAgD8AAIA/AACAPwAAgD8AAIA/AACAPwAAgD8AAIA/AACAPwAAgD8AAIA/AACAPwAAgD8AAIA/AACAPwAAgD8AAIA/AACAPwAAgD8AAIA/AACAPwAAgD8AAIA/AACAPwAAgD8AAIA/AACAPwAAgD8AAIA/AACAPwAAgD8AAIA/AACAPwAAgD8AAIA/AACAPwAAgD8AAIA/AACAPwAAgD8AAIA/AACAPwAAgD8AAIA/AACAPwAAgD8AAIA/AACAPwAAgD8AAIA/AACAPwAAgD8AAIA/AACAPwAAgD8AAIA/AACAPwAAgD8AAIA/AACAPwAAgD8AAIA/AACAPwAAgD8AAIA/AACAPwAAgD8AAIA/AACAPwAAgD8AAIA/AACAPwAAgD8AAIA/AACAPwAAgD8AAIA/AACAPwAAgD8AAIA/AACAPwAAgD8AAIA/AACAPwAAgD8="/>
              <key/>
            </effect>
            <effect wet="1" autoquit_denominator="4" autoquit="1" name="ladspaeffect" on="1" autoquit_syncmode="0" gate="0" autoquit_numerator="4">
              <ladspacontrols link="1" ports="14">
                <port01 data="10" link="1"/>
                <port02 data="1" link="1"/>
                <port03 data="20" link="1"/>
                <port04 data="20" link="1"/>
                <port05 data="20" link="1"/>
                <port06 data="20" link="1"/>
                <port07 data="1" link="1"/>
                <port11 data="10"/>
                <port12 data="1"/>
                <port13 data="20"/>
                <port14 data="20"/>
                <port15 data="20"/>
                <port16 data="20"/>
                <port17 data="1"/>
              </ladspacontrols>
              <key>
                <attribute name="file" value="caps"/>
                <attribute name="plugin" value="AmpIV"/>
              </key>
            </effect>
            <effect wet="1" autoquit_denominator="4" autoquit="1" name="ladspaeffect" on="0" autoquit_syncmode="0" gate="0" autoquit_numerator="4">
              <ladspacontrols link="1" ports="4">
                <port01 data="1" link="1"/>
                <port02 data="-11.4" link="1"/>
                <port11 data="1"/>
                <port12 data="-11.4"/>
              </ladspacontrols>
              <key>
                <attribute name="file" value="caps"/>
                <attribute name="plugin" value="CabinetI"/>
              </key>
            </effect>
            <effect wet="1" autoquit_denominator="4" autoquit="1" name="ladspaeffect" on="1" autoquit_syncmode="0" gate="0" autoquit_numerator="4">
              <ladspacontrols link="1" ports="4">
                <port00 link="1">
                  <data id="7680245" scale_type="log" value="6549.87"/>
                </port00>
                <port01 data="9" link="1"/>
                <port10>
                  <data id="668574" scale_type="log" value="6549.87"/>
                </port10>
                <port11 data="9"/>
              </ladspacontrols>
              <key>
                <attribute name="file" value="lowpass_iir_1891"/>
                <attribute name="plugin" value="lowpass_iir"/>
              </key>
            </effect>
            <effect wet="1" autoquit_denominator="4" autoquit="1" name="ladspaeffect" on="1" autoquit_syncmode="0" gate="0" autoquit_numerator="4">
              <ladspacontrols ports="4">
                <port02 data="0.502"/>
                <port03 data="0.3745"/>
                <port04 data="0.218641"/>
                <port05 data="0.2075"/>
              </ladspacontrols>
              <key>
                <attribute name="file" value="caps"/>
                <attribute name="plugin" value="Plate2x2"/>
              </key>
            </effect>
          </fxchain>
        </instrumenttrack>
        <pattern muted="0" name="" steps="16" type="1" pos="59520">
          <note len="48" key="58" pan="0" vol="197" pos="0"/>
          <note len="48" key="54" pan="0" vol="197" pos="48"/>
          <note len="48" key="58" pan="0" vol="197" pos="96"/>
          <note len="48" key="61" pan="0" vol="197" pos="144"/>
          <note len="48" key="63" pan="0" vol="197" pos="192"/>
          <note len="48" key="65" pan="0" vol="197" pos="240"/>
          <note len="48" key="66" pan="0" vol="197" pos="288"/>
          <note len="48" key="70" pan="0" vol="197" pos="336"/>
          <note len="144" key="68" pan="0" vol="197" pos="384"/>
          <note len="12" key="65" pan="0" vol="197" pos="528"/>
          <note len="36" key="66" pan="0" vol="197" pos="540"/>
          <note len="96" key="65" pan="0" vol="197" pos="576"/>
          <note len="48" key="61" pan="0" vol="197" pos="672"/>
          <note len="48" key="65" pan="0" vol="197" pos="720"/>
          <note len="24" key="63" pan="0" vol="197" pos="768"/>
          <note len="24" key="65" pan="0" vol="197" pos="792"/>
          <note len="24" key="63" pan="0" vol="197" pos="816"/>
          <note len="24" key="60" pan="0" vol="197" pos="840"/>
          <note len="24" key="56" pan="0" vol="197" pos="864"/>
          <note len="24" key="48" pan="0" vol="197" pos="888"/>
          <note len="24" key="55" pan="0" vol="197" pos="912"/>
          <note len="24" key="53" pan="0" vol="197" pos="936"/>
          <note len="96" key="55" pan="0" vol="197" pos="960"/>
          <note len="96" key="58" pan="0" vol="197" pos="1056"/>
          <note len="192" key="59" pan="0" vol="197" pos="1152"/>
          <note len="96" key="63" pan="0" vol="197" pos="1344"/>
          <note len="96" key="63" pan="0" vol="197" pos="1440"/>
          <note len="192" key="66" pan="0" vol="197" pos="1536"/>
          <note len="16" key="58" pan="0" vol="197" pos="1728"/>
          <note len="16" key="61" pan="0" vol="197" pos="1744"/>
          <note len="16" key="58" pan="0" vol="197" pos="1760"/>
          <note len="16" key="63" pan="0" vol="197" pos="1776"/>
          <note len="16" key="65" pan="0" vol="197" pos="1792"/>
          <note len="16" key="66" pan="0" vol="197" pos="1808"/>
          <note len="16" key="70" pan="0" vol="197" pos="1824"/>
          <note len="16" key="66" pan="0" vol="197" pos="1840"/>
          <note len="16" key="65" pan="0" vol="197" pos="1856"/>
          <note len="16" key="63" pan="0" vol="197" pos="1872"/>
          <note len="16" key="61" pan="0" vol="197" pos="1888"/>
          <note len="16" key="58" pan="0" vol="197" pos="1904"/>
          <note len="48" key="61" pan="0" vol="197" pos="1920"/>
          <note len="48" key="63" pan="0" vol="197" pos="1968"/>
          <note len="48" key="65" pan="0" vol="197" pos="2016"/>
          <note len="48" key="70" pan="0" vol="197" pos="2064"/>
          <note len="96" key="56" pan="0" vol="197" pos="2112"/>
          <note len="12" key="59" pan="0" vol="197" pos="2208"/>
          <note len="84" key="61" pan="0" vol="197" pos="2220"/>
          <note len="96" key="60" pan="0" vol="197" pos="2304"/>
          <note len="96" key="61" pan="0" vol="197" pos="2400"/>
          <note len="96" key="54" pan="0" vol="197" pos="2496"/>
          <note len="96" key="59" pan="0" vol="197" pos="2592"/>
          <note len="96" key="65" pan="0" vol="197" pos="2688"/>
          <note len="96" key="66" pan="0" vol="197" pos="2784"/>
          <note len="96" key="70" pan="0" vol="197" pos="2880"/>
        </pattern>
      </track>
      <track muted="1" name="Orchestra Soundfont 2 COMBO" type="0" solo="0" mutedBeforeSolo="0">
        <instrumenttrack usemasterpitch="1" pitchrange="2" pitch="0" pan="0" basenote="57" vol="100" fxch="0">
          <instrument name="sf2player">
            <sf2player gain="5" chorusLevel="2" reverbRoomSize="0.2" reverbWidth="0.5" reverbDamping="0" reverbLevel="0.9" chorusSpeed="0.3" chorusOn="0" chorusDepth="8" src="/home/pass/samples/soundfonts/Orchestra Soundfont 2 COMBO.sf2" chorusNum="3" patch="0" bank="0" reverbOn="0">
              <key/>
            </sf2player>
          </instrument>
          <eldata fcut="14000" fwet="0" fres="0.5" ftype="0">
            <elvol rel="0.1" lspd_syncmode="0" pdel="0" lspd_numerator="4" lpdel="0" amt="0" ctlenvamt="0" lshp="0" userwavefile="" dec="0.5" lspd_denominator="4" sustain="0.5" lspd="0.1" latt="0" hold="0.5" att="0" x100="0" lamt="0"/>
            <elcut rel="0.1" lspd_syncmode="0" pdel="0" lspd_numerator="4" lpdel="0" amt="0" ctlenvamt="0" lshp="0" userwavefile="" dec="0.5" lspd_denominator="4" sustain="0.5" lspd="0.1" latt="0" hold="0.5" att="0" x100="0" lamt="0"/>
            <elres rel="0.1" lspd_syncmode="0" pdel="0" lspd_numerator="4" lpdel="0" amt="0" ctlenvamt="0" lshp="0" userwavefile="" dec="0.5" lspd_denominator="4" sustain="0.5" lspd="0.1" latt="0" hold="0.5" att="0" x100="0" lamt="0"/>
          </eldata>
          <chordcreator chord="0" chordrange="1" chord-enabled="0"/>
          <arpeggiator arptime_denominator="4" arptime="200" arp-enabled="0" arpcycle="0" arpgate="100" arp="0" arpmiss="0" arpdir="0" arprange="1" arpmode="0" arpskip="0" arptime_syncmode="0" arptime_numerator="4"/>
          <midiport inputcontroller="0" fixedinputvelocity="-1" readable="0" outputcontroller="0" fixedoutputnote="-1" outputprogram="1" writable="0" fixedoutputvelocity="-1" basevelocity="63" outputchannel="1" inputchannel="0"/>
          <fxchain enabled="0" numofeffects="0"/>
        </instrumenttrack>
        <pattern muted="0" name="" steps="16" type="1" pos="8064">
          <note len="24" key="61" pan="0" vol="78" pos="0"/>
          <note len="24" key="68" pan="0" vol="78" pos="24"/>
          <note len="24" key="73" pan="0" vol="78" pos="48"/>
          <note len="24" key="68" pan="0" vol="78" pos="72"/>
          <note len="24" key="76" pan="0" vol="78" pos="96"/>
          <note len="24" key="68" pan="0" vol="78" pos="120"/>
          <note len="24" key="73" pan="0" vol="78" pos="144"/>
          <note len="24" key="68" pan="0" vol="78" pos="168"/>
          <note len="24" key="63" pan="0" vol="78" pos="192"/>
          <note len="24" key="68" pan="0" vol="78" pos="216"/>
          <note len="24" key="71" pan="0" vol="78" pos="240"/>
          <note len="24" key="68" pan="0" vol="78" pos="264"/>
          <note len="24" key="63" pan="0" vol="78" pos="288"/>
          <note len="24" key="68" pan="0" vol="78" pos="312"/>
          <note len="24" key="71" pan="0" vol="78" pos="336"/>
          <note len="24" key="68" pan="0" vol="78" pos="360"/>
          <note len="24" key="64" pan="0" vol="78" pos="384"/>
          <note len="24" key="68" pan="0" vol="78" pos="408"/>
          <note len="24" key="73" pan="0" vol="78" pos="432"/>
          <note len="24" key="68" pan="0" vol="78" pos="456"/>
          <note len="24" key="64" pan="0" vol="78" pos="480"/>
          <note len="24" key="68" pan="0" vol="78" pos="504"/>
          <note len="24" key="73" pan="0" vol="78" pos="528"/>
          <note len="24" key="68" pan="0" vol="78" pos="552"/>
          <note len="24" key="66" pan="0" vol="78" pos="576"/>
          <note len="24" key="71" pan="0" vol="78" pos="600"/>
          <note len="24" key="76" pan="0" vol="78" pos="624"/>
          <note len="24" key="71" pan="0" vol="78" pos="648"/>
          <note len="24" key="66" pan="0" vol="78" pos="672"/>
          <note len="24" key="71" pan="0" vol="78" pos="696"/>
          <note len="24" key="75" pan="0" vol="78" pos="720"/>
          <note len="24" key="71" pan="0" vol="78" pos="744"/>
          <note len="24" key="64" pan="0" vol="78" pos="768"/>
          <note len="24" key="68" pan="0" vol="78" pos="792"/>
          <note len="24" key="73" pan="0" vol="78" pos="816"/>
          <note len="24" key="68" pan="0" vol="78" pos="840"/>
          <note len="24" key="64" pan="0" vol="78" pos="864"/>
          <note len="24" key="68" pan="0" vol="78" pos="888"/>
          <note len="24" key="73" pan="0" vol="78" pos="912"/>
          <note len="24" key="68" pan="0" vol="78" pos="936"/>
          <note len="24" key="63" pan="0" vol="78" pos="960"/>
          <note len="24" key="66" pan="0" vol="78" pos="984"/>
          <note len="24" key="71" pan="0" vol="78" pos="1008"/>
          <note len="24" key="66" pan="0" vol="78" pos="1032"/>
          <note len="24" key="63" pan="0" vol="78" pos="1056"/>
          <note len="24" key="66" pan="0" vol="78" pos="1080"/>
          <note len="24" key="71" pan="0" vol="78" pos="1104"/>
          <note len="24" key="66" pan="0" vol="78" pos="1128"/>
          <note len="24" key="64" pan="0" vol="78" pos="1152"/>
          <note len="24" key="68" pan="0" vol="78" pos="1176"/>
          <note len="24" key="73" pan="0" vol="78" pos="1200"/>
          <note len="24" key="68" pan="0" vol="78" pos="1224"/>
          <note len="24" key="64" pan="0" vol="78" pos="1248"/>
          <note len="24" key="68" pan="0" vol="78" pos="1272"/>
          <note len="24" key="73" pan="0" vol="78" pos="1296"/>
          <note len="24" key="68" pan="0" vol="78" pos="1320"/>
          <note len="24" key="66" pan="0" vol="78" pos="1344"/>
          <note len="24" key="68" pan="0" vol="78" pos="1368"/>
          <note len="24" key="66" pan="0" vol="78" pos="1392"/>
          <note len="24" key="64" pan="0" vol="78" pos="1416"/>
          <note len="24" key="63" pan="0" vol="78" pos="1440"/>
          <note len="24" key="60" pan="0" vol="78" pos="1464"/>
          <note len="24" key="66" pan="0" vol="78" pos="1488"/>
          <note len="24" key="63" pan="0" vol="78" pos="1512"/>
          <note len="24" key="61" pan="0" vol="78" pos="1536"/>
          <note len="24" key="68" pan="0" vol="78" pos="1560"/>
          <note len="24" key="73" pan="0" vol="78" pos="1584"/>
          <note len="24" key="68" pan="0" vol="78" pos="1608"/>
          <note len="24" key="61" pan="0" vol="78" pos="1632"/>
          <note len="24" key="68" pan="0" vol="78" pos="1656"/>
          <note len="24" key="73" pan="0" vol="78" pos="1680"/>
          <note len="24" key="68" pan="0" vol="78" pos="1704"/>
          <note len="24" key="63" pan="0" vol="78" pos="1728"/>
          <note len="24" key="68" pan="0" vol="78" pos="1752"/>
          <note len="24" key="71" pan="0" vol="78" pos="1776"/>
          <note len="24" key="68" pan="0" vol="78" pos="1800"/>
          <note len="24" key="63" pan="0" vol="78" pos="1824"/>
          <note len="24" key="68" pan="0" vol="78" pos="1848"/>
          <note len="24" key="71" pan="0" vol="78" pos="1872"/>
          <note len="24" key="68" pan="0" vol="78" pos="1896"/>
          <note len="24" key="61" pan="0" vol="78" pos="1920"/>
          <note len="24" key="66" pan="0" vol="78" pos="1944"/>
          <note len="24" key="70" pan="0" vol="78" pos="1968"/>
          <note len="24" key="66" pan="0" vol="78" pos="1992"/>
          <note len="24" key="61" pan="0" vol="78" pos="2016"/>
          <note len="24" key="66" pan="0" vol="78" pos="2040"/>
          <note len="24" key="70" pan="0" vol="78" pos="2064"/>
          <note len="24" key="66" pan="0" vol="78" pos="2088"/>
          <note len="24" key="61" pan="0" vol="78" pos="2112"/>
          <note len="24" key="66" pan="0" vol="78" pos="2136"/>
          <note len="24" key="70" pan="0" vol="78" pos="2160"/>
          <note len="24" key="66" pan="0" vol="78" pos="2184"/>
          <note len="24" key="61" pan="0" vol="78" pos="2208"/>
          <note len="24" key="66" pan="0" vol="78" pos="2232"/>
          <note len="24" key="70" pan="0" vol="78" pos="2256"/>
          <note len="24" key="66" pan="0" vol="78" pos="2280"/>
          <note len="24" key="66" pan="0" vol="78" pos="2304"/>
          <note len="24" key="69" pan="0" vol="78" pos="2328"/>
          <note len="24" key="73" pan="0" vol="78" pos="2352"/>
          <note len="24" key="69" pan="0" vol="78" pos="2376"/>
          <note len="24" key="66" pan="0" vol="78" pos="2400"/>
          <note len="24" key="69" pan="0" vol="78" pos="2424"/>
          <note len="24" key="73" pan="0" vol="78" pos="2448"/>
          <note len="24" key="69" pan="0" vol="78" pos="2472"/>
          <note len="24" key="63" pan="0" vol="78" pos="2496"/>
          <note len="24" key="68" pan="0" vol="78" pos="2520"/>
          <note len="24" key="73" pan="0" vol="78" pos="2544"/>
          <note len="24" key="68" pan="0" vol="78" pos="2568"/>
          <note len="24" key="63" pan="0" vol="78" pos="2592"/>
          <note len="24" key="68" pan="0" vol="78" pos="2616"/>
          <note len="24" key="73" pan="0" vol="78" pos="2640"/>
          <note len="24" key="68" pan="0" vol="78" pos="2664"/>
          <note len="24" key="66" pan="0" vol="78" pos="2688"/>
          <note len="24" key="71" pan="0" vol="78" pos="2712"/>
          <note len="24" key="75" pan="0" vol="78" pos="2736"/>
          <note len="24" key="71" pan="0" vol="78" pos="2760"/>
          <note len="24" key="66" pan="0" vol="78" pos="2784"/>
          <note len="24" key="71" pan="0" vol="78" pos="2808"/>
          <note len="24" key="75" pan="0" vol="78" pos="2832"/>
          <note len="24" key="71" pan="0" vol="78" pos="2856"/>
          <note len="96" key="66" pan="0" vol="78" pos="2880"/>
          <note len="96" key="59" pan="0" vol="78" pos="2976"/>
          <note len="12" key="68" pan="0" vol="78" pos="3072"/>
          <note len="12" key="64" pan="0" vol="78" pos="3084"/>
          <note len="12" key="61" pan="0" vol="78" pos="3096"/>
          <note len="12" key="56" pan="0" vol="78" pos="3108"/>
          <note len="12" key="52" pan="0" vol="78" pos="3120"/>
          <note len="12" key="49" pan="0" vol="78" pos="3132"/>
          <note len="12" key="61" pan="0" vol="78" pos="3168"/>
          <note len="12" key="56" pan="0" vol="78" pos="3180"/>
          <note len="12" key="52" pan="0" vol="78" pos="3192"/>
          <note len="12" key="49" pan="0" vol="78" pos="3204"/>
          <note len="12" key="76" pan="0" vol="78" pos="3216"/>
          <note len="12" key="71" pan="0" vol="78" pos="3228"/>
          <note len="12" key="68" pan="0" vol="78" pos="3240"/>
          <note len="12" key="64" pan="0" vol="78" pos="3252"/>
          <note len="12" key="76" pan="0" vol="78" pos="3264"/>
          <note len="12" key="71" pan="0" vol="78" pos="3276"/>
          <note len="12" key="80" pan="0" vol="78" pos="3288"/>
          <note len="12" key="76" pan="0" vol="78" pos="3300"/>
          <note len="12" key="71" pan="0" vol="78" pos="3312"/>
          <note len="12" key="68" pan="0" vol="78" pos="3324"/>
          <note len="12" key="64" pan="0" vol="78" pos="3336"/>
          <note len="12" key="61" pan="0" vol="78" pos="3348"/>
          <note len="12" key="73" pan="0" vol="78" pos="3360"/>
          <note len="12" key="68" pan="0" vol="78" pos="3372"/>
          <note len="12" key="64" pan="0" vol="78" pos="3384"/>
          <note len="12" key="61" pan="0" vol="78" pos="3396"/>
          <note len="12" key="68" pan="0" vol="78" pos="3408"/>
          <note len="12" key="64" pan="0" vol="78" pos="3420"/>
          <note len="12" key="56" pan="0" vol="78" pos="3432"/>
          <note len="12" key="49" pan="0" vol="78" pos="3444"/>
          <note len="12" key="69" pan="0" vol="78" pos="3456"/>
          <note len="12" key="66" pan="0" vol="78" pos="3468"/>
          <note len="12" key="57" pan="0" vol="78" pos="3480"/>
          <note len="12" key="54" pan="0" vol="78" pos="3492"/>
          <note len="12" key="49" pan="0" vol="78" pos="3504"/>
          <note len="12" key="47" pan="0" vol="78" pos="3516"/>
          <note len="12" key="74" pan="0" vol="78" pos="3528"/>
          <note len="12" key="69" pan="0" vol="78" pos="3540"/>
          <note len="12" key="66" pan="0" vol="78" pos="3552"/>
          <note len="12" key="61" pan="0" vol="78" pos="3564"/>
          <note len="12" key="57" pan="0" vol="78" pos="3576"/>
          <note len="12" key="54" pan="0" vol="78" pos="3588"/>
          <note len="12" key="78" pan="0" vol="78" pos="3600"/>
          <note len="12" key="74" pan="0" vol="78" pos="3612"/>
          <note len="12" key="69" pan="0" vol="78" pos="3624"/>
          <note len="12" key="66" pan="0" vol="78" pos="3636"/>
          <note len="12" key="81" pan="0" vol="78" pos="3672"/>
          <note len="12" key="78" pan="0" vol="78" pos="3684"/>
          <note len="12" key="73" pan="0" vol="78" pos="3696"/>
          <note len="12" key="69" pan="0" vol="78" pos="3708"/>
          <note len="12" key="66" pan="0" vol="78" pos="3720"/>
          <note len="12" key="61" pan="0" vol="78" pos="3732"/>
          <note len="12" key="74" pan="0" vol="78" pos="3744"/>
          <note len="12" key="71" pan="0" vol="78" pos="3756"/>
          <note len="12" key="66" pan="0" vol="78" pos="3768"/>
          <note len="12" key="61" pan="0" vol="78" pos="3780"/>
          <note len="12" key="69" pan="0" vol="78" pos="3792"/>
          <note len="12" key="66" pan="0" vol="78" pos="3804"/>
          <note len="12" key="61" pan="0" vol="78" pos="3816"/>
          <note len="12" key="57" pan="0" vol="78" pos="3828"/>
          <note len="12" key="68" pan="0" vol="78" pos="3840"/>
          <note len="12" key="64" pan="0" vol="78" pos="3852"/>
          <note len="12" key="61" pan="0" vol="78" pos="3864"/>
          <note len="12" key="56" pan="0" vol="78" pos="3876"/>
          <note len="12" key="73" pan="0" vol="78" pos="3912"/>
          <note len="12" key="69" pan="0" vol="78" pos="3924"/>
          <note len="12" key="68" pan="0" vol="78" pos="3936"/>
          <note len="12" key="64" pan="0" vol="78" pos="3948"/>
          <note len="12" key="56" pan="0" vol="78" pos="3960"/>
          <note len="12" key="52" pan="0" vol="78" pos="3972"/>
          <note len="12" key="76" pan="0" vol="78" pos="3984"/>
          <note len="12" key="71" pan="0" vol="78" pos="3996"/>
          <note len="12" key="68" pan="0" vol="78" pos="4008"/>
          <note len="12" key="64" pan="0" vol="78" pos="4020"/>
          <note len="12" key="81" pan="0" vol="78" pos="4056"/>
          <note len="12" key="78" pan="0" vol="78" pos="4068"/>
          <note len="12" key="78" pan="0" vol="78" pos="4080"/>
          <note len="12" key="69" pan="0" vol="78" pos="4092"/>
          <note len="12" key="66" pan="0" vol="78" pos="4104"/>
          <note len="12" key="64" pan="0" vol="78" pos="4116"/>
          <note len="12" key="73" pan="0" vol="78" pos="4128"/>
          <note len="12" key="69" pan="0" vol="78" pos="4140"/>
          <note len="12" key="66" pan="0" vol="78" pos="4152"/>
          <note len="12" key="61" pan="0" vol="78" pos="4164"/>
          <note len="12" key="68" pan="0" vol="78" pos="4176"/>
          <note len="12" key="64" pan="0" vol="78" pos="4188"/>
          <note len="12" key="61" pan="0" vol="78" pos="4200"/>
          <note len="12" key="56" pan="0" vol="78" pos="4212"/>
          <note len="12" key="69" pan="0" vol="78" pos="4224"/>
          <note len="12" key="66" pan="0" vol="78" pos="4236"/>
          <note len="12" key="57" pan="0" vol="78" pos="4248"/>
          <note len="12" key="54" pan="0" vol="78" pos="4260"/>
          <note len="12" key="52" pan="0" vol="78" pos="4272"/>
          <note len="12" key="49" pan="0" vol="78" pos="4284"/>
          <note len="12" key="74" pan="0" vol="78" pos="4296"/>
          <note len="12" key="69" pan="0" vol="78" pos="4308"/>
          <note len="12" key="66" pan="0" vol="78" pos="4320"/>
          <note len="12" key="61" pan="0" vol="78" pos="4332"/>
          <note len="12" key="57" pan="0" vol="78" pos="4344"/>
          <note len="12" key="54" pan="0" vol="78" pos="4356"/>
          <note len="12" key="78" pan="0" vol="78" pos="4368"/>
          <note len="12" key="74" pan="0" vol="78" pos="4380"/>
          <note len="12" key="69" pan="0" vol="78" pos="4392"/>
          <note len="12" key="66" pan="0" vol="78" pos="4404"/>
          <note len="12" key="81" pan="0" vol="78" pos="4440"/>
          <note len="12" key="78" pan="0" vol="78" pos="4452"/>
          <note len="12" key="73" pan="0" vol="78" pos="4464"/>
          <note len="12" key="69" pan="0" vol="78" pos="4476"/>
          <note len="12" key="66" pan="0" vol="78" pos="4488"/>
          <note len="12" key="61" pan="0" vol="78" pos="4500"/>
          <note len="12" key="74" pan="0" vol="78" pos="4512"/>
          <note len="12" key="71" pan="0" vol="78" pos="4524"/>
          <note len="12" key="66" pan="0" vol="78" pos="4536"/>
          <note len="12" key="61" pan="0" vol="78" pos="4548"/>
          <note len="12" key="69" pan="0" vol="78" pos="4560"/>
          <note len="12" key="66" pan="0" vol="78" pos="4572"/>
          <note len="12" key="61" pan="0" vol="78" pos="4584"/>
          <note len="12" key="57" pan="0" vol="78" pos="4596"/>
        </pattern>
        <pattern muted="0" name="" steps="16" type="1" pos="15744">
          <note len="24" key="61" pan="0" vol="78" pos="0"/>
          <note len="24" key="68" pan="0" vol="78" pos="24"/>
          <note len="24" key="73" pan="0" vol="78" pos="48"/>
          <note len="24" key="68" pan="0" vol="78" pos="72"/>
          <note len="24" key="76" pan="0" vol="78" pos="96"/>
          <note len="24" key="68" pan="0" vol="78" pos="120"/>
          <note len="24" key="73" pan="0" vol="78" pos="144"/>
          <note len="24" key="68" pan="0" vol="78" pos="168"/>
          <note len="24" key="63" pan="0" vol="78" pos="192"/>
          <note len="24" key="68" pan="0" vol="78" pos="216"/>
          <note len="24" key="71" pan="0" vol="78" pos="240"/>
          <note len="24" key="68" pan="0" vol="78" pos="264"/>
          <note len="24" key="63" pan="0" vol="78" pos="288"/>
          <note len="24" key="68" pan="0" vol="78" pos="312"/>
          <note len="24" key="71" pan="0" vol="78" pos="336"/>
          <note len="24" key="68" pan="0" vol="78" pos="360"/>
          <note len="24" key="64" pan="0" vol="78" pos="384"/>
          <note len="24" key="68" pan="0" vol="78" pos="408"/>
          <note len="24" key="73" pan="0" vol="78" pos="432"/>
          <note len="24" key="68" pan="0" vol="78" pos="456"/>
          <note len="24" key="64" pan="0" vol="78" pos="480"/>
          <note len="24" key="68" pan="0" vol="78" pos="504"/>
          <note len="24" key="73" pan="0" vol="78" pos="528"/>
          <note len="24" key="68" pan="0" vol="78" pos="552"/>
          <note len="24" key="66" pan="0" vol="78" pos="576"/>
          <note len="24" key="71" pan="0" vol="78" pos="600"/>
          <note len="24" key="76" pan="0" vol="78" pos="624"/>
          <note len="24" key="71" pan="0" vol="78" pos="648"/>
          <note len="24" key="66" pan="0" vol="78" pos="672"/>
          <note len="24" key="71" pan="0" vol="78" pos="696"/>
          <note len="24" key="75" pan="0" vol="78" pos="720"/>
          <note len="24" key="71" pan="0" vol="78" pos="744"/>
          <note len="24" key="64" pan="0" vol="78" pos="768"/>
          <note len="24" key="68" pan="0" vol="78" pos="792"/>
          <note len="24" key="73" pan="0" vol="78" pos="816"/>
          <note len="24" key="68" pan="0" vol="78" pos="840"/>
          <note len="24" key="64" pan="0" vol="78" pos="864"/>
          <note len="24" key="68" pan="0" vol="78" pos="888"/>
          <note len="24" key="73" pan="0" vol="78" pos="912"/>
          <note len="24" key="68" pan="0" vol="78" pos="936"/>
          <note len="24" key="63" pan="0" vol="78" pos="960"/>
          <note len="24" key="66" pan="0" vol="78" pos="984"/>
          <note len="24" key="71" pan="0" vol="78" pos="1008"/>
          <note len="24" key="66" pan="0" vol="78" pos="1032"/>
          <note len="24" key="63" pan="0" vol="78" pos="1056"/>
          <note len="24" key="66" pan="0" vol="78" pos="1080"/>
          <note len="24" key="71" pan="0" vol="78" pos="1104"/>
          <note len="24" key="66" pan="0" vol="78" pos="1128"/>
          <note len="24" key="64" pan="0" vol="78" pos="1152"/>
          <note len="24" key="68" pan="0" vol="78" pos="1176"/>
          <note len="24" key="73" pan="0" vol="78" pos="1200"/>
          <note len="24" key="68" pan="0" vol="78" pos="1224"/>
          <note len="24" key="64" pan="0" vol="78" pos="1248"/>
          <note len="24" key="68" pan="0" vol="78" pos="1272"/>
          <note len="24" key="73" pan="0" vol="78" pos="1296"/>
          <note len="24" key="68" pan="0" vol="78" pos="1320"/>
          <note len="24" key="66" pan="0" vol="78" pos="1344"/>
          <note len="24" key="68" pan="0" vol="78" pos="1368"/>
          <note len="24" key="66" pan="0" vol="78" pos="1392"/>
          <note len="24" key="64" pan="0" vol="78" pos="1416"/>
          <note len="24" key="63" pan="0" vol="78" pos="1440"/>
          <note len="24" key="60" pan="0" vol="78" pos="1464"/>
          <note len="24" key="66" pan="0" vol="78" pos="1488"/>
          <note len="24" key="63" pan="0" vol="78" pos="1512"/>
          <note len="24" key="61" pan="0" vol="78" pos="1536"/>
          <note len="24" key="68" pan="0" vol="78" pos="1560"/>
          <note len="24" key="73" pan="0" vol="78" pos="1584"/>
          <note len="24" key="68" pan="0" vol="78" pos="1608"/>
          <note len="24" key="61" pan="0" vol="78" pos="1632"/>
          <note len="24" key="68" pan="0" vol="78" pos="1656"/>
          <note len="24" key="73" pan="0" vol="78" pos="1680"/>
          <note len="24" key="68" pan="0" vol="78" pos="1704"/>
          <note len="24" key="63" pan="0" vol="78" pos="1728"/>
          <note len="24" key="68" pan="0" vol="78" pos="1752"/>
          <note len="24" key="71" pan="0" vol="78" pos="1776"/>
          <note len="24" key="68" pan="0" vol="78" pos="1800"/>
          <note len="24" key="63" pan="0" vol="78" pos="1824"/>
          <note len="24" key="68" pan="0" vol="78" pos="1848"/>
          <note len="24" key="71" pan="0" vol="78" pos="1872"/>
          <note len="24" key="68" pan="0" vol="78" pos="1896"/>
          <note len="24" key="61" pan="0" vol="78" pos="1920"/>
          <note len="24" key="66" pan="0" vol="78" pos="1944"/>
          <note len="24" key="70" pan="0" vol="78" pos="1968"/>
          <note len="24" key="66" pan="0" vol="78" pos="1992"/>
          <note len="24" key="61" pan="0" vol="78" pos="2016"/>
          <note len="24" key="66" pan="0" vol="78" pos="2040"/>
          <note len="24" key="70" pan="0" vol="78" pos="2064"/>
          <note len="24" key="66" pan="0" vol="78" pos="2088"/>
          <note len="24" key="61" pan="0" vol="78" pos="2112"/>
          <note len="24" key="66" pan="0" vol="78" pos="2136"/>
          <note len="24" key="70" pan="0" vol="78" pos="2160"/>
          <note len="24" key="66" pan="0" vol="78" pos="2184"/>
          <note len="24" key="61" pan="0" vol="78" pos="2208"/>
          <note len="24" key="66" pan="0" vol="78" pos="2232"/>
          <note len="24" key="70" pan="0" vol="78" pos="2256"/>
          <note len="24" key="66" pan="0" vol="78" pos="2280"/>
          <note len="24" key="66" pan="0" vol="78" pos="2304"/>
          <note len="24" key="69" pan="0" vol="78" pos="2328"/>
          <note len="24" key="73" pan="0" vol="78" pos="2352"/>
          <note len="24" key="69" pan="0" vol="78" pos="2376"/>
          <note len="24" key="66" pan="0" vol="78" pos="2400"/>
          <note len="24" key="69" pan="0" vol="78" pos="2424"/>
          <note len="24" key="73" pan="0" vol="78" pos="2448"/>
          <note len="24" key="69" pan="0" vol="78" pos="2472"/>
          <note len="24" key="63" pan="0" vol="78" pos="2496"/>
          <note len="24" key="68" pan="0" vol="78" pos="2520"/>
          <note len="24" key="73" pan="0" vol="78" pos="2544"/>
          <note len="24" key="68" pan="0" vol="78" pos="2568"/>
          <note len="24" key="63" pan="0" vol="78" pos="2592"/>
          <note len="24" key="68" pan="0" vol="78" pos="2616"/>
          <note len="24" key="73" pan="0" vol="78" pos="2640"/>
          <note len="24" key="68" pan="0" vol="78" pos="2664"/>
          <note len="24" key="66" pan="0" vol="78" pos="2688"/>
          <note len="24" key="71" pan="0" vol="78" pos="2712"/>
          <note len="24" key="75" pan="0" vol="78" pos="2736"/>
          <note len="24" key="71" pan="0" vol="78" pos="2760"/>
          <note len="24" key="66" pan="0" vol="78" pos="2784"/>
          <note len="24" key="71" pan="0" vol="78" pos="2808"/>
          <note len="24" key="75" pan="0" vol="78" pos="2832"/>
          <note len="24" key="71" pan="0" vol="78" pos="2856"/>
          <note len="24" key="63" pan="0" vol="78" pos="2880"/>
          <note len="24" key="51" pan="0" vol="78" pos="2880"/>
          <note len="24" key="63" pan="0" vol="78" pos="2904"/>
          <note len="24" key="51" pan="0" vol="78" pos="2904"/>
          <note len="24" key="71" pan="0" vol="78" pos="2976"/>
          <note len="24" key="59" pan="0" vol="78" pos="2976"/>
          <note len="24" key="71" pan="0" vol="78" pos="3000"/>
          <note len="24" key="59" pan="0" vol="78" pos="3000"/>
          <note len="12" key="56" pan="0" vol="78" pos="3072"/>
          <note len="12" key="61" pan="0" vol="78" pos="3084"/>
          <note len="12" key="64" pan="0" vol="78" pos="3096"/>
          <note len="12" key="68" pan="0" vol="78" pos="3108"/>
          <note len="12" key="73" pan="0" vol="78" pos="3120"/>
          <note len="12" key="76" pan="0" vol="78" pos="3132"/>
          <note len="12" key="80" pan="0" vol="78" pos="3144"/>
          <note len="12" key="83" pan="0" vol="78" pos="3156"/>
          <note len="12" key="73" pan="0" vol="78" pos="3168"/>
          <note len="12" key="83" pan="0" vol="78" pos="3180"/>
          <note len="12" key="80" pan="0" vol="78" pos="3192"/>
          <note len="12" key="76" pan="0" vol="78" pos="3204"/>
          <note len="12" key="73" pan="0" vol="78" pos="3216"/>
          <note len="12" key="68" pan="0" vol="78" pos="3228"/>
          <note len="12" key="64" pan="0" vol="78" pos="3240"/>
          <note len="12" key="61" pan="0" vol="78" pos="3252"/>
          <note len="12" key="56" pan="0" vol="78" pos="3264"/>
          <note len="12" key="61" pan="0" vol="78" pos="3276"/>
          <note len="12" key="64" pan="0" vol="78" pos="3288"/>
          <note len="12" key="68" pan="0" vol="78" pos="3300"/>
          <note len="12" key="73" pan="0" vol="78" pos="3312"/>
          <note len="12" key="76" pan="0" vol="78" pos="3324"/>
          <note len="12" key="80" pan="0" vol="78" pos="3336"/>
          <note len="12" key="83" pan="0" vol="78" pos="3348"/>
          <note len="12" key="73" pan="0" vol="78" pos="3360"/>
          <note len="12" key="83" pan="0" vol="78" pos="3372"/>
          <note len="12" key="80" pan="0" vol="78" pos="3384"/>
          <note len="12" key="76" pan="0" vol="78" pos="3396"/>
          <note len="12" key="73" pan="0" vol="78" pos="3408"/>
          <note len="12" key="68" pan="0" vol="78" pos="3420"/>
          <note len="12" key="64" pan="0" vol="78" pos="3432"/>
          <note len="12" key="61" pan="0" vol="78" pos="3444"/>
          <note len="12" key="54" pan="0" vol="78" pos="3456"/>
          <note len="12" key="59" pan="0" vol="78" pos="3468"/>
          <note len="12" key="63" pan="0" vol="78" pos="3480"/>
          <note len="12" key="66" pan="0" vol="78" pos="3492"/>
          <note len="12" key="69" pan="0" vol="78" pos="3504"/>
          <note len="12" key="73" pan="0" vol="78" pos="3516"/>
          <note len="12" key="76" pan="0" vol="78" pos="3528"/>
          <note len="12" key="80" pan="0" vol="78" pos="3540"/>
          <note len="12" key="83" pan="0" vol="78" pos="3552"/>
          <note len="12" key="80" pan="0" vol="78" pos="3564"/>
          <note len="12" key="75" pan="0" vol="78" pos="3576"/>
          <note len="12" key="71" pan="0" vol="78" pos="3588"/>
          <note len="12" key="66" pan="0" vol="78" pos="3600"/>
          <note len="12" key="61" pan="0" vol="78" pos="3612"/>
          <note len="12" key="59" pan="0" vol="78" pos="3624"/>
          <note len="12" key="54" pan="0" vol="78" pos="3636"/>
          <note len="12" key="54" pan="0" vol="78" pos="3648"/>
          <note len="12" key="59" pan="0" vol="78" pos="3660"/>
          <note len="12" key="63" pan="0" vol="78" pos="3672"/>
          <note len="12" key="66" pan="0" vol="78" pos="3684"/>
          <note len="12" key="69" pan="0" vol="78" pos="3696"/>
          <note len="12" key="73" pan="0" vol="78" pos="3708"/>
          <note len="12" key="76" pan="0" vol="78" pos="3720"/>
          <note len="12" key="80" pan="0" vol="78" pos="3732"/>
          <note len="12" key="83" pan="0" vol="78" pos="3744"/>
          <note len="12" key="80" pan="0" vol="78" pos="3756"/>
          <note len="12" key="75" pan="0" vol="78" pos="3768"/>
          <note len="12" key="71" pan="0" vol="78" pos="3780"/>
          <note len="12" key="66" pan="0" vol="78" pos="3792"/>
          <note len="12" key="61" pan="0" vol="78" pos="3804"/>
          <note len="12" key="59" pan="0" vol="78" pos="3816"/>
          <note len="12" key="54" pan="0" vol="78" pos="3828"/>
          <note len="12" key="54" pan="0" vol="78" pos="3840"/>
          <note len="12" key="57" pan="0" vol="78" pos="3852"/>
          <note len="12" key="61" pan="0" vol="78" pos="3864"/>
          <note len="12" key="64" pan="0" vol="78" pos="3876"/>
          <note len="12" key="66" pan="0" vol="78" pos="3888"/>
          <note len="12" key="73" pan="0" vol="78" pos="3900"/>
          <note len="12" key="76" pan="0" vol="78" pos="3912"/>
          <note len="12" key="78" pan="0" vol="78" pos="3924"/>
          <note len="12" key="82" pan="0" vol="78" pos="3936"/>
          <note len="12" key="78" pan="0" vol="78" pos="3948"/>
          <note len="12" key="76" pan="0" vol="78" pos="3960"/>
          <note len="12" key="73" pan="0" vol="78" pos="3972"/>
          <note len="12" key="66" pan="0" vol="78" pos="3984"/>
          <note len="12" key="64" pan="0" vol="78" pos="3996"/>
          <note len="12" key="61" pan="0" vol="78" pos="4008"/>
          <note len="12" key="57" pan="0" vol="78" pos="4020"/>
          <note len="12" key="54" pan="0" vol="78" pos="4032"/>
          <note len="12" key="57" pan="0" vol="78" pos="4044"/>
          <note len="12" key="61" pan="0" vol="78" pos="4056"/>
          <note len="12" key="64" pan="0" vol="78" pos="4068"/>
          <note len="12" key="66" pan="0" vol="78" pos="4080"/>
          <note len="12" key="73" pan="0" vol="78" pos="4092"/>
          <note len="12" key="76" pan="0" vol="78" pos="4104"/>
          <note len="12" key="78" pan="0" vol="78" pos="4116"/>
          <note len="12" key="82" pan="0" vol="78" pos="4128"/>
          <note len="12" key="78" pan="0" vol="78" pos="4140"/>
          <note len="12" key="76" pan="0" vol="78" pos="4152"/>
          <note len="12" key="73" pan="0" vol="78" pos="4164"/>
          <note len="12" key="66" pan="0" vol="78" pos="4176"/>
          <note len="12" key="64" pan="0" vol="78" pos="4188"/>
          <note len="12" key="61" pan="0" vol="78" pos="4200"/>
          <note len="12" key="57" pan="0" vol="78" pos="4212"/>
          <note len="12" key="51" pan="0" vol="78" pos="4224"/>
          <note len="12" key="54" pan="0" vol="78" pos="4236"/>
          <note len="12" key="57" pan="0" vol="78" pos="4248"/>
          <note len="12" key="63" pan="0" vol="78" pos="4260"/>
          <note len="12" key="66" pan="0" vol="78" pos="4272"/>
          <note len="12" key="69" pan="0" vol="78" pos="4284"/>
          <note len="12" key="73" pan="0" vol="78" pos="4296"/>
          <note len="12" key="76" pan="0" vol="78" pos="4308"/>
          <note len="12" key="81" pan="0" vol="78" pos="4320"/>
          <note len="12" key="78" pan="0" vol="78" pos="4332"/>
          <note len="12" key="73" pan="0" vol="78" pos="4344"/>
          <note len="12" key="69" pan="0" vol="78" pos="4356"/>
          <note len="12" key="66" pan="0" vol="78" pos="4368"/>
          <note len="12" key="63" pan="0" vol="78" pos="4380"/>
          <note len="12" key="57" pan="0" vol="78" pos="4392"/>
          <note len="12" key="54" pan="0" vol="78" pos="4404"/>
          <note len="12" key="51" pan="0" vol="78" pos="4416"/>
          <note len="12" key="54" pan="0" vol="78" pos="4428"/>
          <note len="12" key="57" pan="0" vol="78" pos="4440"/>
          <note len="12" key="63" pan="0" vol="78" pos="4452"/>
          <note len="12" key="66" pan="0" vol="78" pos="4464"/>
          <note len="12" key="69" pan="0" vol="78" pos="4476"/>
          <note len="12" key="73" pan="0" vol="78" pos="4488"/>
          <note len="12" key="76" pan="0" vol="78" pos="4500"/>
          <note len="12" key="81" pan="0" vol="78" pos="4512"/>
          <note len="12" key="78" pan="0" vol="78" pos="4524"/>
          <note len="12" key="73" pan="0" vol="78" pos="4536"/>
          <note len="12" key="69" pan="0" vol="78" pos="4548"/>
          <note len="12" key="66" pan="0" vol="78" pos="4560"/>
          <note len="12" key="63" pan="0" vol="78" pos="4572"/>
          <note len="12" key="57" pan="0" vol="78" pos="4584"/>
          <note len="12" key="54" pan="0" vol="78" pos="4596"/>
          <note len="12" key="52" pan="0" vol="78" pos="4608"/>
          <note len="12" key="61" pan="0" vol="78" pos="4620"/>
          <note len="12" key="64" pan="0" vol="78" pos="4632"/>
          <note len="12" key="68" pan="0" vol="78" pos="4644"/>
          <note len="12" key="73" pan="0" vol="78" pos="4656"/>
          <note len="12" key="76" pan="0" vol="78" pos="4668"/>
          <note len="12" key="80" pan="0" vol="78" pos="4680"/>
          <note len="12" key="83" pan="0" vol="78" pos="4692"/>
          <note len="12" key="73" pan="0" vol="78" pos="4704"/>
          <note len="12" key="83" pan="0" vol="78" pos="4716"/>
          <note len="12" key="80" pan="0" vol="78" pos="4728"/>
          <note len="12" key="76" pan="0" vol="78" pos="4740"/>
          <note len="12" key="73" pan="0" vol="78" pos="4752"/>
          <note len="12" key="68" pan="0" vol="78" pos="4764"/>
          <note len="12" key="64" pan="0" vol="78" pos="4776"/>
          <note len="12" key="61" pan="0" vol="78" pos="4788"/>
          <note len="12" key="52" pan="0" vol="78" pos="4800"/>
          <note len="12" key="61" pan="0" vol="78" pos="4812"/>
          <note len="12" key="64" pan="0" vol="78" pos="4824"/>
          <note len="12" key="68" pan="0" vol="78" pos="4836"/>
          <note len="12" key="73" pan="0" vol="78" pos="4848"/>
          <note len="12" key="76" pan="0" vol="78" pos="4860"/>
          <note len="12" key="80" pan="0" vol="78" pos="4872"/>
          <note len="12" key="83" pan="0" vol="78" pos="4884"/>
          <note len="12" key="73" pan="0" vol="78" pos="4896"/>
          <note len="12" key="83" pan="0" vol="78" pos="4908"/>
          <note len="12" key="80" pan="0" vol="78" pos="4920"/>
          <note len="12" key="76" pan="0" vol="78" pos="4932"/>
          <note len="12" key="73" pan="0" vol="78" pos="4944"/>
          <note len="12" key="68" pan="0" vol="78" pos="4956"/>
          <note len="12" key="64" pan="0" vol="78" pos="4968"/>
          <note len="12" key="61" pan="0" vol="78" pos="4980"/>
          <note len="12" key="54" pan="0" vol="78" pos="4992"/>
          <note len="12" key="59" pan="0" vol="78" pos="5004"/>
          <note len="12" key="63" pan="0" vol="78" pos="5016"/>
          <note len="12" key="66" pan="0" vol="78" pos="5028"/>
          <note len="12" key="69" pan="0" vol="78" pos="5040"/>
          <note len="12" key="73" pan="0" vol="78" pos="5052"/>
          <note len="12" key="76" pan="0" vol="78" pos="5064"/>
          <note len="12" key="80" pan="0" vol="78" pos="5076"/>
          <note len="12" key="83" pan="0" vol="78" pos="5088"/>
          <note len="12" key="80" pan="0" vol="78" pos="5100"/>
          <note len="12" key="75" pan="0" vol="78" pos="5112"/>
          <note len="12" key="71" pan="0" vol="78" pos="5124"/>
          <note len="12" key="66" pan="0" vol="78" pos="5136"/>
          <note len="12" key="61" pan="0" vol="78" pos="5148"/>
          <note len="12" key="59" pan="0" vol="78" pos="5160"/>
          <note len="12" key="54" pan="0" vol="78" pos="5172"/>
          <note len="12" key="54" pan="0" vol="78" pos="5184"/>
          <note len="12" key="59" pan="0" vol="78" pos="5196"/>
          <note len="12" key="63" pan="0" vol="78" pos="5208"/>
          <note len="12" key="66" pan="0" vol="78" pos="5220"/>
          <note len="12" key="69" pan="0" vol="78" pos="5232"/>
          <note len="12" key="73" pan="0" vol="78" pos="5244"/>
          <note len="12" key="76" pan="0" vol="78" pos="5256"/>
          <note len="12" key="80" pan="0" vol="78" pos="5268"/>
          <note len="12" key="83" pan="0" vol="78" pos="5280"/>
          <note len="12" key="80" pan="0" vol="78" pos="5292"/>
          <note len="12" key="75" pan="0" vol="78" pos="5304"/>
          <note len="12" key="71" pan="0" vol="78" pos="5316"/>
          <note len="12" key="66" pan="0" vol="78" pos="5328"/>
          <note len="12" key="61" pan="0" vol="78" pos="5340"/>
          <note len="12" key="59" pan="0" vol="78" pos="5352"/>
          <note len="12" key="54" pan="0" vol="78" pos="5364"/>
          <note len="12" key="54" pan="0" vol="78" pos="5376"/>
          <note len="12" key="57" pan="0" vol="78" pos="5388"/>
          <note len="12" key="63" pan="0" vol="78" pos="5400"/>
          <note len="12" key="66" pan="0" vol="78" pos="5412"/>
          <note len="12" key="69" pan="0" vol="78" pos="5424"/>
          <note len="12" key="73" pan="0" vol="78" pos="5436"/>
          <note len="12" key="76" pan="0" vol="78" pos="5448"/>
          <note len="12" key="81" pan="0" vol="78" pos="5460"/>
          <note len="12" key="75" pan="0" vol="78" pos="5472"/>
          <note len="12" key="81" pan="0" vol="78" pos="5484"/>
          <note len="12" key="76" pan="0" vol="78" pos="5496"/>
          <note len="12" key="73" pan="0" vol="78" pos="5508"/>
          <note len="12" key="69" pan="0" vol="78" pos="5520"/>
          <note len="12" key="66" pan="0" vol="78" pos="5532"/>
          <note len="12" key="63" pan="0" vol="78" pos="5544"/>
          <note len="12" key="57" pan="0" vol="78" pos="5556"/>
          <note len="12" key="54" pan="0" vol="78" pos="5568"/>
          <note len="12" key="57" pan="0" vol="78" pos="5580"/>
          <note len="12" key="63" pan="0" vol="78" pos="5592"/>
          <note len="12" key="66" pan="0" vol="78" pos="5604"/>
          <note len="12" key="69" pan="0" vol="78" pos="5616"/>
          <note len="12" key="73" pan="0" vol="78" pos="5628"/>
          <note len="12" key="76" pan="0" vol="78" pos="5640"/>
          <note len="12" key="81" pan="0" vol="78" pos="5652"/>
          <note len="12" key="75" pan="0" vol="78" pos="5664"/>
          <note len="12" key="81" pan="0" vol="78" pos="5676"/>
          <note len="12" key="76" pan="0" vol="78" pos="5688"/>
          <note len="12" key="73" pan="0" vol="78" pos="5700"/>
          <note len="12" key="69" pan="0" vol="78" pos="5712"/>
          <note len="12" key="66" pan="0" vol="78" pos="5724"/>
          <note len="12" key="63" pan="0" vol="78" pos="5736"/>
          <note len="12" key="57" pan="0" vol="78" pos="5748"/>
          <note len="12" key="57" pan="0" vol="78" pos="5760"/>
          <note len="12" key="61" pan="0" vol="78" pos="5772"/>
          <note len="12" key="64" pan="0" vol="78" pos="5784"/>
          <note len="12" key="68" pan="0" vol="78" pos="5796"/>
          <note len="12" key="71" pan="0" vol="78" pos="5808"/>
          <note len="12" key="75" pan="0" vol="78" pos="5820"/>
          <note len="12" key="78" pan="0" vol="78" pos="5832"/>
          <note len="12" key="81" pan="0" vol="78" pos="5844"/>
          <note len="12" key="73" pan="0" vol="78" pos="5856"/>
          <note len="12" key="81" pan="0" vol="78" pos="5868"/>
          <note len="12" key="78" pan="0" vol="78" pos="5880"/>
          <note len="12" key="75" pan="0" vol="78" pos="5892"/>
          <note len="12" key="71" pan="0" vol="78" pos="5904"/>
          <note len="12" key="68" pan="0" vol="78" pos="5916"/>
          <note len="12" key="64" pan="0" vol="78" pos="5928"/>
          <note len="12" key="61" pan="0" vol="78" pos="5940"/>
          <note len="12" key="57" pan="0" vol="78" pos="5952"/>
          <note len="12" key="61" pan="0" vol="78" pos="5964"/>
          <note len="12" key="64" pan="0" vol="78" pos="5976"/>
          <note len="12" key="68" pan="0" vol="78" pos="5988"/>
          <note len="12" key="71" pan="0" vol="78" pos="6000"/>
          <note len="12" key="75" pan="0" vol="78" pos="6012"/>
          <note len="12" key="78" pan="0" vol="78" pos="6024"/>
          <note len="12" key="81" pan="0" vol="78" pos="6036"/>
          <note len="12" key="72" pan="0" vol="78" pos="6048"/>
          <note len="12" key="81" pan="0" vol="78" pos="6060"/>
          <note len="12" key="78" pan="0" vol="78" pos="6072"/>
          <note len="12" key="75" pan="0" vol="78" pos="6084"/>
          <note len="12" key="71" pan="0" vol="78" pos="6096"/>
          <note len="12" key="68" pan="0" vol="78" pos="6108"/>
          <note len="12" key="64" pan="0" vol="78" pos="6120"/>
          <note len="12" key="61" pan="0" vol="78" pos="6132"/>
        </pattern>
        <pattern muted="0" name="" steps="16" type="1" pos="39552">
          <note len="24" key="61" pan="0" vol="78" pos="0"/>
          <note len="24" key="68" pan="0" vol="78" pos="24"/>
          <note len="24" key="73" pan="0" vol="78" pos="48"/>
          <note len="24" key="68" pan="0" vol="78" pos="72"/>
          <note len="24" key="76" pan="0" vol="78" pos="96"/>
          <note len="24" key="68" pan="0" vol="78" pos="120"/>
          <note len="24" key="73" pan="0" vol="78" pos="144"/>
          <note len="24" key="68" pan="0" vol="78" pos="168"/>
          <note len="24" key="63" pan="0" vol="78" pos="192"/>
          <note len="24" key="68" pan="0" vol="78" pos="216"/>
          <note len="24" key="71" pan="0" vol="78" pos="240"/>
          <note len="24" key="68" pan="0" vol="78" pos="264"/>
          <note len="24" key="63" pan="0" vol="78" pos="288"/>
          <note len="24" key="68" pan="0" vol="78" pos="312"/>
          <note len="24" key="71" pan="0" vol="78" pos="336"/>
          <note len="24" key="68" pan="0" vol="78" pos="360"/>
          <note len="24" key="64" pan="0" vol="78" pos="384"/>
          <note len="24" key="68" pan="0" vol="78" pos="408"/>
          <note len="24" key="73" pan="0" vol="78" pos="432"/>
          <note len="24" key="68" pan="0" vol="78" pos="456"/>
          <note len="24" key="64" pan="0" vol="78" pos="480"/>
          <note len="24" key="68" pan="0" vol="78" pos="504"/>
          <note len="24" key="73" pan="0" vol="78" pos="528"/>
          <note len="24" key="68" pan="0" vol="78" pos="552"/>
          <note len="24" key="66" pan="0" vol="78" pos="576"/>
          <note len="24" key="71" pan="0" vol="78" pos="600"/>
          <note len="24" key="76" pan="0" vol="78" pos="624"/>
          <note len="24" key="71" pan="0" vol="78" pos="648"/>
          <note len="24" key="66" pan="0" vol="78" pos="672"/>
          <note len="24" key="71" pan="0" vol="78" pos="696"/>
          <note len="24" key="75" pan="0" vol="78" pos="720"/>
          <note len="24" key="71" pan="0" vol="78" pos="744"/>
          <note len="24" key="64" pan="0" vol="78" pos="768"/>
          <note len="24" key="68" pan="0" vol="78" pos="792"/>
          <note len="24" key="73" pan="0" vol="78" pos="816"/>
          <note len="24" key="68" pan="0" vol="78" pos="840"/>
          <note len="24" key="64" pan="0" vol="78" pos="864"/>
          <note len="24" key="68" pan="0" vol="78" pos="888"/>
          <note len="24" key="73" pan="0" vol="78" pos="912"/>
          <note len="24" key="68" pan="0" vol="78" pos="936"/>
          <note len="24" key="63" pan="0" vol="78" pos="960"/>
          <note len="24" key="66" pan="0" vol="78" pos="984"/>
          <note len="24" key="71" pan="0" vol="78" pos="1008"/>
          <note len="24" key="66" pan="0" vol="78" pos="1032"/>
          <note len="24" key="63" pan="0" vol="78" pos="1056"/>
          <note len="24" key="66" pan="0" vol="78" pos="1080"/>
          <note len="24" key="71" pan="0" vol="78" pos="1104"/>
          <note len="24" key="66" pan="0" vol="78" pos="1128"/>
          <note len="24" key="64" pan="0" vol="78" pos="1152"/>
          <note len="24" key="68" pan="0" vol="78" pos="1176"/>
          <note len="24" key="73" pan="0" vol="78" pos="1200"/>
          <note len="24" key="68" pan="0" vol="78" pos="1224"/>
          <note len="24" key="64" pan="0" vol="78" pos="1248"/>
          <note len="24" key="68" pan="0" vol="78" pos="1272"/>
          <note len="24" key="73" pan="0" vol="78" pos="1296"/>
          <note len="24" key="68" pan="0" vol="78" pos="1320"/>
          <note len="24" key="66" pan="0" vol="78" pos="1344"/>
          <note len="24" key="68" pan="0" vol="78" pos="1368"/>
          <note len="24" key="66" pan="0" vol="78" pos="1392"/>
          <note len="24" key="64" pan="0" vol="78" pos="1416"/>
          <note len="24" key="63" pan="0" vol="78" pos="1440"/>
          <note len="24" key="60" pan="0" vol="78" pos="1464"/>
          <note len="24" key="66" pan="0" vol="78" pos="1488"/>
          <note len="24" key="63" pan="0" vol="78" pos="1512"/>
          <note len="24" key="61" pan="0" vol="78" pos="1536"/>
          <note len="24" key="68" pan="0" vol="78" pos="1560"/>
          <note len="24" key="73" pan="0" vol="78" pos="1584"/>
          <note len="24" key="68" pan="0" vol="78" pos="1608"/>
          <note len="24" key="61" pan="0" vol="78" pos="1632"/>
          <note len="24" key="68" pan="0" vol="78" pos="1656"/>
          <note len="24" key="73" pan="0" vol="78" pos="1680"/>
          <note len="24" key="68" pan="0" vol="78" pos="1704"/>
          <note len="24" key="63" pan="0" vol="78" pos="1728"/>
          <note len="24" key="68" pan="0" vol="78" pos="1752"/>
          <note len="24" key="71" pan="0" vol="78" pos="1776"/>
          <note len="24" key="68" pan="0" vol="78" pos="1800"/>
          <note len="24" key="63" pan="0" vol="78" pos="1824"/>
          <note len="24" key="68" pan="0" vol="78" pos="1848"/>
          <note len="24" key="71" pan="0" vol="78" pos="1872"/>
          <note len="24" key="68" pan="0" vol="78" pos="1896"/>
          <note len="24" key="61" pan="0" vol="78" pos="1920"/>
          <note len="24" key="66" pan="0" vol="78" pos="1944"/>
          <note len="24" key="70" pan="0" vol="78" pos="1968"/>
          <note len="24" key="66" pan="0" vol="78" pos="1992"/>
          <note len="24" key="61" pan="0" vol="78" pos="2016"/>
          <note len="24" key="66" pan="0" vol="78" pos="2040"/>
          <note len="24" key="70" pan="0" vol="78" pos="2064"/>
          <note len="24" key="66" pan="0" vol="78" pos="2088"/>
          <note len="24" key="61" pan="0" vol="78" pos="2112"/>
          <note len="24" key="66" pan="0" vol="78" pos="2136"/>
          <note len="24" key="70" pan="0" vol="78" pos="2160"/>
          <note len="24" key="66" pan="0" vol="78" pos="2184"/>
          <note len="24" key="61" pan="0" vol="78" pos="2208"/>
          <note len="24" key="66" pan="0" vol="78" pos="2232"/>
          <note len="24" key="70" pan="0" vol="78" pos="2256"/>
          <note len="24" key="66" pan="0" vol="78" pos="2280"/>
          <note len="24" key="66" pan="0" vol="78" pos="2304"/>
          <note len="24" key="69" pan="0" vol="78" pos="2328"/>
          <note len="24" key="73" pan="0" vol="78" pos="2352"/>
          <note len="24" key="69" pan="0" vol="78" pos="2376"/>
          <note len="24" key="66" pan="0" vol="78" pos="2400"/>
          <note len="24" key="69" pan="0" vol="78" pos="2424"/>
          <note len="24" key="73" pan="0" vol="78" pos="2448"/>
          <note len="24" key="69" pan="0" vol="78" pos="2472"/>
          <note len="24" key="63" pan="0" vol="78" pos="2496"/>
          <note len="24" key="68" pan="0" vol="78" pos="2520"/>
          <note len="24" key="73" pan="0" vol="78" pos="2544"/>
          <note len="24" key="68" pan="0" vol="78" pos="2568"/>
          <note len="24" key="63" pan="0" vol="78" pos="2592"/>
          <note len="24" key="68" pan="0" vol="78" pos="2616"/>
          <note len="24" key="73" pan="0" vol="78" pos="2640"/>
          <note len="24" key="68" pan="0" vol="78" pos="2664"/>
          <note len="24" key="66" pan="0" vol="78" pos="2688"/>
          <note len="24" key="71" pan="0" vol="78" pos="2712"/>
          <note len="24" key="75" pan="0" vol="78" pos="2736"/>
          <note len="24" key="71" pan="0" vol="78" pos="2760"/>
          <note len="24" key="66" pan="0" vol="78" pos="2784"/>
          <note len="24" key="71" pan="0" vol="78" pos="2808"/>
          <note len="24" key="75" pan="0" vol="78" pos="2832"/>
          <note len="24" key="71" pan="0" vol="78" pos="2856"/>
          <note len="96" key="66" pan="0" vol="78" pos="2880"/>
          <note len="96" key="59" pan="0" vol="78" pos="2976"/>
          <note len="12" key="68" pan="0" vol="78" pos="3072"/>
          <note len="12" key="64" pan="0" vol="78" pos="3084"/>
          <note len="12" key="61" pan="0" vol="78" pos="3096"/>
          <note len="12" key="56" pan="0" vol="78" pos="3108"/>
          <note len="12" key="52" pan="0" vol="78" pos="3120"/>
          <note len="12" key="49" pan="0" vol="78" pos="3132"/>
          <note len="12" key="61" pan="0" vol="78" pos="3168"/>
          <note len="12" key="56" pan="0" vol="78" pos="3180"/>
          <note len="12" key="52" pan="0" vol="78" pos="3192"/>
          <note len="12" key="49" pan="0" vol="78" pos="3204"/>
          <note len="12" key="76" pan="0" vol="78" pos="3216"/>
          <note len="12" key="71" pan="0" vol="78" pos="3228"/>
          <note len="12" key="68" pan="0" vol="78" pos="3240"/>
          <note len="12" key="64" pan="0" vol="78" pos="3252"/>
          <note len="12" key="76" pan="0" vol="78" pos="3264"/>
          <note len="12" key="71" pan="0" vol="78" pos="3276"/>
          <note len="12" key="80" pan="0" vol="78" pos="3288"/>
          <note len="12" key="76" pan="0" vol="78" pos="3300"/>
          <note len="12" key="71" pan="0" vol="78" pos="3312"/>
          <note len="12" key="68" pan="0" vol="78" pos="3324"/>
          <note len="12" key="64" pan="0" vol="78" pos="3336"/>
          <note len="12" key="61" pan="0" vol="78" pos="3348"/>
          <note len="12" key="73" pan="0" vol="78" pos="3360"/>
          <note len="12" key="68" pan="0" vol="78" pos="3372"/>
          <note len="12" key="64" pan="0" vol="78" pos="3384"/>
          <note len="12" key="61" pan="0" vol="78" pos="3396"/>
          <note len="12" key="68" pan="0" vol="78" pos="3408"/>
          <note len="12" key="64" pan="0" vol="78" pos="3420"/>
          <note len="12" key="56" pan="0" vol="78" pos="3432"/>
          <note len="12" key="49" pan="0" vol="78" pos="3444"/>
          <note len="12" key="69" pan="0" vol="78" pos="3456"/>
          <note len="12" key="66" pan="0" vol="78" pos="3468"/>
          <note len="12" key="57" pan="0" vol="78" pos="3480"/>
          <note len="12" key="54" pan="0" vol="78" pos="3492"/>
          <note len="12" key="49" pan="0" vol="78" pos="3504"/>
          <note len="12" key="47" pan="0" vol="78" pos="3516"/>
          <note len="12" key="74" pan="0" vol="78" pos="3528"/>
          <note len="12" key="69" pan="0" vol="78" pos="3540"/>
          <note len="12" key="66" pan="0" vol="78" pos="3552"/>
          <note len="12" key="61" pan="0" vol="78" pos="3564"/>
          <note len="12" key="57" pan="0" vol="78" pos="3576"/>
          <note len="12" key="54" pan="0" vol="78" pos="3588"/>
          <note len="12" key="78" pan="0" vol="78" pos="3600"/>
          <note len="12" key="74" pan="0" vol="78" pos="3612"/>
          <note len="12" key="69" pan="0" vol="78" pos="3624"/>
          <note len="12" key="66" pan="0" vol="78" pos="3636"/>
          <note len="12" key="81" pan="0" vol="78" pos="3672"/>
          <note len="12" key="78" pan="0" vol="78" pos="3684"/>
          <note len="12" key="73" pan="0" vol="78" pos="3696"/>
          <note len="12" key="69" pan="0" vol="78" pos="3708"/>
          <note len="12" key="66" pan="0" vol="78" pos="3720"/>
          <note len="12" key="61" pan="0" vol="78" pos="3732"/>
          <note len="12" key="74" pan="0" vol="78" pos="3744"/>
          <note len="12" key="71" pan="0" vol="78" pos="3756"/>
          <note len="12" key="66" pan="0" vol="78" pos="3768"/>
          <note len="12" key="61" pan="0" vol="78" pos="3780"/>
          <note len="12" key="69" pan="0" vol="78" pos="3792"/>
          <note len="12" key="66" pan="0" vol="78" pos="3804"/>
          <note len="12" key="61" pan="0" vol="78" pos="3816"/>
          <note len="12" key="57" pan="0" vol="78" pos="3828"/>
          <note len="12" key="68" pan="0" vol="78" pos="3840"/>
          <note len="12" key="64" pan="0" vol="78" pos="3852"/>
          <note len="12" key="61" pan="0" vol="78" pos="3864"/>
          <note len="12" key="56" pan="0" vol="78" pos="3876"/>
          <note len="12" key="73" pan="0" vol="78" pos="3912"/>
          <note len="12" key="69" pan="0" vol="78" pos="3924"/>
          <note len="12" key="68" pan="0" vol="78" pos="3936"/>
          <note len="12" key="64" pan="0" vol="78" pos="3948"/>
          <note len="12" key="56" pan="0" vol="78" pos="3960"/>
          <note len="12" key="52" pan="0" vol="78" pos="3972"/>
          <note len="12" key="76" pan="0" vol="78" pos="3984"/>
          <note len="12" key="71" pan="0" vol="78" pos="3996"/>
          <note len="12" key="68" pan="0" vol="78" pos="4008"/>
          <note len="12" key="64" pan="0" vol="78" pos="4020"/>
          <note len="12" key="81" pan="0" vol="78" pos="4056"/>
          <note len="12" key="78" pan="0" vol="78" pos="4068"/>
          <note len="12" key="78" pan="0" vol="78" pos="4080"/>
          <note len="12" key="69" pan="0" vol="78" pos="4092"/>
          <note len="12" key="66" pan="0" vol="78" pos="4104"/>
          <note len="12" key="64" pan="0" vol="78" pos="4116"/>
          <note len="12" key="73" pan="0" vol="78" pos="4128"/>
          <note len="12" key="69" pan="0" vol="78" pos="4140"/>
          <note len="12" key="66" pan="0" vol="78" pos="4152"/>
          <note len="12" key="61" pan="0" vol="78" pos="4164"/>
          <note len="12" key="68" pan="0" vol="78" pos="4176"/>
          <note len="12" key="64" pan="0" vol="78" pos="4188"/>
          <note len="12" key="61" pan="0" vol="78" pos="4200"/>
          <note len="12" key="56" pan="0" vol="78" pos="4212"/>
          <note len="12" key="69" pan="0" vol="78" pos="4224"/>
          <note len="12" key="66" pan="0" vol="78" pos="4236"/>
          <note len="12" key="57" pan="0" vol="78" pos="4248"/>
          <note len="12" key="54" pan="0" vol="78" pos="4260"/>
          <note len="12" key="52" pan="0" vol="78" pos="4272"/>
          <note len="12" key="49" pan="0" vol="78" pos="4284"/>
          <note len="12" key="74" pan="0" vol="78" pos="4296"/>
          <note len="12" key="69" pan="0" vol="78" pos="4308"/>
          <note len="12" key="66" pan="0" vol="78" pos="4320"/>
          <note len="12" key="61" pan="0" vol="78" pos="4332"/>
          <note len="12" key="57" pan="0" vol="78" pos="4344"/>
          <note len="12" key="54" pan="0" vol="78" pos="4356"/>
          <note len="12" key="78" pan="0" vol="78" pos="4368"/>
          <note len="12" key="74" pan="0" vol="78" pos="4380"/>
          <note len="12" key="69" pan="0" vol="78" pos="4392"/>
          <note len="12" key="66" pan="0" vol="78" pos="4404"/>
          <note len="12" key="81" pan="0" vol="78" pos="4440"/>
          <note len="12" key="78" pan="0" vol="78" pos="4452"/>
          <note len="12" key="73" pan="0" vol="78" pos="4464"/>
          <note len="12" key="69" pan="0" vol="78" pos="4476"/>
          <note len="12" key="66" pan="0" vol="78" pos="4488"/>
          <note len="12" key="61" pan="0" vol="78" pos="4500"/>
          <note len="12" key="74" pan="0" vol="78" pos="4512"/>
          <note len="12" key="71" pan="0" vol="78" pos="4524"/>
          <note len="12" key="66" pan="0" vol="78" pos="4536"/>
          <note len="12" key="61" pan="0" vol="78" pos="4548"/>
          <note len="12" key="69" pan="0" vol="78" pos="4560"/>
          <note len="12" key="66" pan="0" vol="78" pos="4572"/>
          <note len="12" key="61" pan="0" vol="78" pos="4584"/>
          <note len="12" key="57" pan="0" vol="78" pos="4596"/>
        </pattern>
        <pattern muted="0" name="" steps="16" type="1" pos="47232">
          <note len="24" key="61" pan="0" vol="78" pos="0"/>
          <note len="24" key="68" pan="0" vol="78" pos="24"/>
          <note len="24" key="73" pan="0" vol="78" pos="48"/>
          <note len="24" key="68" pan="0" vol="78" pos="72"/>
          <note len="24" key="76" pan="0" vol="78" pos="96"/>
          <note len="24" key="68" pan="0" vol="78" pos="120"/>
          <note len="24" key="73" pan="0" vol="78" pos="144"/>
          <note len="24" key="68" pan="0" vol="78" pos="168"/>
          <note len="24" key="63" pan="0" vol="78" pos="192"/>
          <note len="24" key="68" pan="0" vol="78" pos="216"/>
          <note len="24" key="71" pan="0" vol="78" pos="240"/>
          <note len="24" key="68" pan="0" vol="78" pos="264"/>
          <note len="24" key="63" pan="0" vol="78" pos="288"/>
          <note len="24" key="68" pan="0" vol="78" pos="312"/>
          <note len="24" key="71" pan="0" vol="78" pos="336"/>
          <note len="24" key="68" pan="0" vol="78" pos="360"/>
          <note len="24" key="64" pan="0" vol="78" pos="384"/>
          <note len="24" key="68" pan="0" vol="78" pos="408"/>
          <note len="24" key="73" pan="0" vol="78" pos="432"/>
          <note len="24" key="68" pan="0" vol="78" pos="456"/>
          <note len="24" key="64" pan="0" vol="78" pos="480"/>
          <note len="24" key="68" pan="0" vol="78" pos="504"/>
          <note len="24" key="73" pan="0" vol="78" pos="528"/>
          <note len="24" key="68" pan="0" vol="78" pos="552"/>
          <note len="24" key="66" pan="0" vol="78" pos="576"/>
          <note len="24" key="71" pan="0" vol="78" pos="600"/>
          <note len="24" key="76" pan="0" vol="78" pos="624"/>
          <note len="24" key="71" pan="0" vol="78" pos="648"/>
          <note len="24" key="66" pan="0" vol="78" pos="672"/>
          <note len="24" key="71" pan="0" vol="78" pos="696"/>
          <note len="24" key="75" pan="0" vol="78" pos="720"/>
          <note len="24" key="71" pan="0" vol="78" pos="744"/>
          <note len="24" key="64" pan="0" vol="78" pos="768"/>
          <note len="24" key="68" pan="0" vol="78" pos="792"/>
          <note len="24" key="73" pan="0" vol="78" pos="816"/>
          <note len="24" key="68" pan="0" vol="78" pos="840"/>
          <note len="24" key="64" pan="0" vol="78" pos="864"/>
          <note len="24" key="68" pan="0" vol="78" pos="888"/>
          <note len="24" key="73" pan="0" vol="78" pos="912"/>
          <note len="24" key="68" pan="0" vol="78" pos="936"/>
          <note len="24" key="63" pan="0" vol="78" pos="960"/>
          <note len="24" key="66" pan="0" vol="78" pos="984"/>
          <note len="24" key="71" pan="0" vol="78" pos="1008"/>
          <note len="24" key="66" pan="0" vol="78" pos="1032"/>
          <note len="24" key="63" pan="0" vol="78" pos="1056"/>
          <note len="24" key="66" pan="0" vol="78" pos="1080"/>
          <note len="24" key="71" pan="0" vol="78" pos="1104"/>
          <note len="24" key="66" pan="0" vol="78" pos="1128"/>
          <note len="24" key="64" pan="0" vol="78" pos="1152"/>
          <note len="24" key="68" pan="0" vol="78" pos="1176"/>
          <note len="24" key="73" pan="0" vol="78" pos="1200"/>
          <note len="24" key="68" pan="0" vol="78" pos="1224"/>
          <note len="24" key="64" pan="0" vol="78" pos="1248"/>
          <note len="24" key="68" pan="0" vol="78" pos="1272"/>
          <note len="24" key="73" pan="0" vol="78" pos="1296"/>
          <note len="24" key="68" pan="0" vol="78" pos="1320"/>
          <note len="24" key="66" pan="0" vol="78" pos="1344"/>
          <note len="24" key="68" pan="0" vol="78" pos="1368"/>
          <note len="24" key="66" pan="0" vol="78" pos="1392"/>
          <note len="24" key="64" pan="0" vol="78" pos="1416"/>
          <note len="24" key="63" pan="0" vol="78" pos="1440"/>
          <note len="24" key="60" pan="0" vol="78" pos="1464"/>
          <note len="24" key="66" pan="0" vol="78" pos="1488"/>
          <note len="24" key="63" pan="0" vol="78" pos="1512"/>
          <note len="24" key="61" pan="0" vol="78" pos="1536"/>
          <note len="24" key="68" pan="0" vol="78" pos="1560"/>
          <note len="24" key="73" pan="0" vol="78" pos="1584"/>
          <note len="24" key="68" pan="0" vol="78" pos="1608"/>
          <note len="24" key="61" pan="0" vol="78" pos="1632"/>
          <note len="24" key="68" pan="0" vol="78" pos="1656"/>
          <note len="24" key="73" pan="0" vol="78" pos="1680"/>
          <note len="24" key="68" pan="0" vol="78" pos="1704"/>
          <note len="24" key="63" pan="0" vol="78" pos="1728"/>
          <note len="24" key="68" pan="0" vol="78" pos="1752"/>
          <note len="24" key="71" pan="0" vol="78" pos="1776"/>
          <note len="24" key="68" pan="0" vol="78" pos="1800"/>
          <note len="24" key="63" pan="0" vol="78" pos="1824"/>
          <note len="24" key="68" pan="0" vol="78" pos="1848"/>
          <note len="24" key="71" pan="0" vol="78" pos="1872"/>
          <note len="24" key="68" pan="0" vol="78" pos="1896"/>
          <note len="24" key="61" pan="0" vol="78" pos="1920"/>
          <note len="24" key="66" pan="0" vol="78" pos="1944"/>
          <note len="24" key="70" pan="0" vol="78" pos="1968"/>
          <note len="24" key="66" pan="0" vol="78" pos="1992"/>
          <note len="24" key="61" pan="0" vol="78" pos="2016"/>
          <note len="24" key="66" pan="0" vol="78" pos="2040"/>
          <note len="24" key="70" pan="0" vol="78" pos="2064"/>
          <note len="24" key="66" pan="0" vol="78" pos="2088"/>
          <note len="24" key="61" pan="0" vol="78" pos="2112"/>
          <note len="24" key="66" pan="0" vol="78" pos="2136"/>
          <note len="24" key="70" pan="0" vol="78" pos="2160"/>
          <note len="24" key="66" pan="0" vol="78" pos="2184"/>
          <note len="24" key="61" pan="0" vol="78" pos="2208"/>
          <note len="24" key="66" pan="0" vol="78" pos="2232"/>
          <note len="24" key="70" pan="0" vol="78" pos="2256"/>
          <note len="24" key="66" pan="0" vol="78" pos="2280"/>
          <note len="24" key="66" pan="0" vol="78" pos="2304"/>
          <note len="24" key="69" pan="0" vol="78" pos="2328"/>
          <note len="24" key="73" pan="0" vol="78" pos="2352"/>
          <note len="24" key="69" pan="0" vol="78" pos="2376"/>
          <note len="24" key="66" pan="0" vol="78" pos="2400"/>
          <note len="24" key="69" pan="0" vol="78" pos="2424"/>
          <note len="24" key="73" pan="0" vol="78" pos="2448"/>
          <note len="24" key="69" pan="0" vol="78" pos="2472"/>
          <note len="24" key="63" pan="0" vol="78" pos="2496"/>
          <note len="24" key="68" pan="0" vol="78" pos="2520"/>
          <note len="24" key="73" pan="0" vol="78" pos="2544"/>
          <note len="24" key="68" pan="0" vol="78" pos="2568"/>
          <note len="24" key="63" pan="0" vol="78" pos="2592"/>
          <note len="24" key="68" pan="0" vol="78" pos="2616"/>
          <note len="24" key="73" pan="0" vol="78" pos="2640"/>
          <note len="24" key="68" pan="0" vol="78" pos="2664"/>
          <note len="24" key="66" pan="0" vol="78" pos="2688"/>
          <note len="24" key="71" pan="0" vol="78" pos="2712"/>
          <note len="24" key="75" pan="0" vol="78" pos="2736"/>
          <note len="24" key="71" pan="0" vol="78" pos="2760"/>
          <note len="24" key="66" pan="0" vol="78" pos="2784"/>
          <note len="24" key="71" pan="0" vol="78" pos="2808"/>
          <note len="24" key="75" pan="0" vol="78" pos="2832"/>
          <note len="24" key="71" pan="0" vol="78" pos="2856"/>
          <note len="24" key="63" pan="0" vol="78" pos="2880"/>
          <note len="24" key="51" pan="0" vol="78" pos="2880"/>
          <note len="24" key="63" pan="0" vol="78" pos="2904"/>
          <note len="24" key="51" pan="0" vol="78" pos="2904"/>
          <note len="24" key="71" pan="0" vol="78" pos="2976"/>
          <note len="24" key="59" pan="0" vol="78" pos="2976"/>
          <note len="24" key="71" pan="0" vol="78" pos="3000"/>
          <note len="24" key="59" pan="0" vol="78" pos="3000"/>
          <note len="12" key="56" pan="0" vol="78" pos="3072"/>
          <note len="12" key="61" pan="0" vol="78" pos="3084"/>
          <note len="12" key="64" pan="0" vol="78" pos="3096"/>
          <note len="12" key="68" pan="0" vol="78" pos="3108"/>
          <note len="12" key="73" pan="0" vol="78" pos="3120"/>
          <note len="12" key="76" pan="0" vol="78" pos="3132"/>
          <note len="12" key="80" pan="0" vol="78" pos="3144"/>
          <note len="12" key="83" pan="0" vol="78" pos="3156"/>
          <note len="12" key="73" pan="0" vol="78" pos="3168"/>
          <note len="12" key="83" pan="0" vol="78" pos="3180"/>
          <note len="12" key="80" pan="0" vol="78" pos="3192"/>
          <note len="12" key="76" pan="0" vol="78" pos="3204"/>
          <note len="12" key="73" pan="0" vol="78" pos="3216"/>
          <note len="12" key="68" pan="0" vol="78" pos="3228"/>
          <note len="12" key="64" pan="0" vol="78" pos="3240"/>
          <note len="12" key="61" pan="0" vol="78" pos="3252"/>
          <note len="12" key="56" pan="0" vol="78" pos="3264"/>
          <note len="12" key="61" pan="0" vol="78" pos="3276"/>
          <note len="12" key="64" pan="0" vol="78" pos="3288"/>
          <note len="12" key="68" pan="0" vol="78" pos="3300"/>
          <note len="12" key="73" pan="0" vol="78" pos="3312"/>
          <note len="12" key="76" pan="0" vol="78" pos="3324"/>
          <note len="12" key="80" pan="0" vol="78" pos="3336"/>
          <note len="12" key="83" pan="0" vol="78" pos="3348"/>
          <note len="12" key="73" pan="0" vol="78" pos="3360"/>
          <note len="12" key="83" pan="0" vol="78" pos="3372"/>
          <note len="12" key="80" pan="0" vol="78" pos="3384"/>
          <note len="12" key="76" pan="0" vol="78" pos="3396"/>
          <note len="12" key="73" pan="0" vol="78" pos="3408"/>
          <note len="12" key="68" pan="0" vol="78" pos="3420"/>
          <note len="12" key="64" pan="0" vol="78" pos="3432"/>
          <note len="12" key="61" pan="0" vol="78" pos="3444"/>
          <note len="12" key="54" pan="0" vol="78" pos="3456"/>
          <note len="12" key="59" pan="0" vol="78" pos="3468"/>
          <note len="12" key="63" pan="0" vol="78" pos="3480"/>
          <note len="12" key="66" pan="0" vol="78" pos="3492"/>
          <note len="12" key="69" pan="0" vol="78" pos="3504"/>
          <note len="12" key="73" pan="0" vol="78" pos="3516"/>
          <note len="12" key="76" pan="0" vol="78" pos="3528"/>
          <note len="12" key="80" pan="0" vol="78" pos="3540"/>
          <note len="12" key="83" pan="0" vol="78" pos="3552"/>
          <note len="12" key="80" pan="0" vol="78" pos="3564"/>
          <note len="12" key="75" pan="0" vol="78" pos="3576"/>
          <note len="12" key="71" pan="0" vol="78" pos="3588"/>
          <note len="12" key="66" pan="0" vol="78" pos="3600"/>
          <note len="12" key="61" pan="0" vol="78" pos="3612"/>
          <note len="12" key="59" pan="0" vol="78" pos="3624"/>
          <note len="12" key="54" pan="0" vol="78" pos="3636"/>
          <note len="12" key="54" pan="0" vol="78" pos="3648"/>
          <note len="12" key="59" pan="0" vol="78" pos="3660"/>
          <note len="12" key="63" pan="0" vol="78" pos="3672"/>
          <note len="12" key="66" pan="0" vol="78" pos="3684"/>
          <note len="12" key="69" pan="0" vol="78" pos="3696"/>
          <note len="12" key="73" pan="0" vol="78" pos="3708"/>
          <note len="12" key="76" pan="0" vol="78" pos="3720"/>
          <note len="12" key="80" pan="0" vol="78" pos="3732"/>
          <note len="12" key="83" pan="0" vol="78" pos="3744"/>
          <note len="12" key="80" pan="0" vol="78" pos="3756"/>
          <note len="12" key="75" pan="0" vol="78" pos="3768"/>
          <note len="12" key="71" pan="0" vol="78" pos="3780"/>
          <note len="12" key="66" pan="0" vol="78" pos="3792"/>
          <note len="12" key="61" pan="0" vol="78" pos="3804"/>
          <note len="12" key="59" pan="0" vol="78" pos="3816"/>
          <note len="12" key="54" pan="0" vol="78" pos="3828"/>
          <note len="12" key="54" pan="0" vol="78" pos="3840"/>
          <note len="12" key="57" pan="0" vol="78" pos="3852"/>
          <note len="12" key="61" pan="0" vol="78" pos="3864"/>
          <note len="12" key="64" pan="0" vol="78" pos="3876"/>
          <note len="12" key="66" pan="0" vol="78" pos="3888"/>
          <note len="12" key="73" pan="0" vol="78" pos="3900"/>
          <note len="12" key="76" pan="0" vol="78" pos="3912"/>
          <note len="12" key="78" pan="0" vol="78" pos="3924"/>
          <note len="12" key="82" pan="0" vol="78" pos="3936"/>
          <note len="12" key="78" pan="0" vol="78" pos="3948"/>
          <note len="12" key="76" pan="0" vol="78" pos="3960"/>
          <note len="12" key="73" pan="0" vol="78" pos="3972"/>
          <note len="12" key="66" pan="0" vol="78" pos="3984"/>
          <note len="12" key="64" pan="0" vol="78" pos="3996"/>
          <note len="12" key="61" pan="0" vol="78" pos="4008"/>
          <note len="12" key="57" pan="0" vol="78" pos="4020"/>
          <note len="12" key="54" pan="0" vol="78" pos="4032"/>
          <note len="12" key="57" pan="0" vol="78" pos="4044"/>
          <note len="12" key="61" pan="0" vol="78" pos="4056"/>
          <note len="12" key="64" pan="0" vol="78" pos="4068"/>
          <note len="12" key="66" pan="0" vol="78" pos="4080"/>
          <note len="12" key="73" pan="0" vol="78" pos="4092"/>
          <note len="12" key="76" pan="0" vol="78" pos="4104"/>
          <note len="12" key="78" pan="0" vol="78" pos="4116"/>
          <note len="12" key="82" pan="0" vol="78" pos="4128"/>
          <note len="12" key="78" pan="0" vol="78" pos="4140"/>
          <note len="12" key="76" pan="0" vol="78" pos="4152"/>
          <note len="12" key="73" pan="0" vol="78" pos="4164"/>
          <note len="12" key="66" pan="0" vol="78" pos="4176"/>
          <note len="12" key="64" pan="0" vol="78" pos="4188"/>
          <note len="12" key="61" pan="0" vol="78" pos="4200"/>
          <note len="12" key="57" pan="0" vol="78" pos="4212"/>
          <note len="12" key="51" pan="0" vol="78" pos="4224"/>
          <note len="12" key="54" pan="0" vol="78" pos="4236"/>
          <note len="12" key="57" pan="0" vol="78" pos="4248"/>
          <note len="12" key="63" pan="0" vol="78" pos="4260"/>
          <note len="12" key="66" pan="0" vol="78" pos="4272"/>
          <note len="12" key="69" pan="0" vol="78" pos="4284"/>
          <note len="12" key="73" pan="0" vol="78" pos="4296"/>
          <note len="12" key="76" pan="0" vol="78" pos="4308"/>
          <note len="12" key="81" pan="0" vol="78" pos="4320"/>
          <note len="12" key="78" pan="0" vol="78" pos="4332"/>
          <note len="12" key="73" pan="0" vol="78" pos="4344"/>
          <note len="12" key="69" pan="0" vol="78" pos="4356"/>
          <note len="12" key="66" pan="0" vol="78" pos="4368"/>
          <note len="12" key="63" pan="0" vol="78" pos="4380"/>
          <note len="12" key="57" pan="0" vol="78" pos="4392"/>
          <note len="12" key="54" pan="0" vol="78" pos="4404"/>
          <note len="12" key="51" pan="0" vol="78" pos="4416"/>
          <note len="12" key="54" pan="0" vol="78" pos="4428"/>
          <note len="12" key="57" pan="0" vol="78" pos="4440"/>
          <note len="12" key="63" pan="0" vol="78" pos="4452"/>
          <note len="12" key="66" pan="0" vol="78" pos="4464"/>
          <note len="12" key="69" pan="0" vol="78" pos="4476"/>
          <note len="12" key="73" pan="0" vol="78" pos="4488"/>
          <note len="12" key="76" pan="0" vol="78" pos="4500"/>
          <note len="12" key="81" pan="0" vol="78" pos="4512"/>
          <note len="12" key="78" pan="0" vol="78" pos="4524"/>
          <note len="12" key="73" pan="0" vol="78" pos="4536"/>
          <note len="12" key="69" pan="0" vol="78" pos="4548"/>
          <note len="12" key="66" pan="0" vol="78" pos="4560"/>
          <note len="12" key="63" pan="0" vol="78" pos="4572"/>
          <note len="12" key="57" pan="0" vol="78" pos="4584"/>
          <note len="12" key="54" pan="0" vol="78" pos="4596"/>
          <note len="12" key="52" pan="0" vol="78" pos="4608"/>
          <note len="12" key="61" pan="0" vol="78" pos="4620"/>
          <note len="12" key="64" pan="0" vol="78" pos="4632"/>
          <note len="12" key="68" pan="0" vol="78" pos="4644"/>
          <note len="12" key="73" pan="0" vol="78" pos="4656"/>
          <note len="12" key="76" pan="0" vol="78" pos="4668"/>
          <note len="12" key="80" pan="0" vol="78" pos="4680"/>
          <note len="12" key="83" pan="0" vol="78" pos="4692"/>
          <note len="12" key="73" pan="0" vol="78" pos="4704"/>
          <note len="12" key="83" pan="0" vol="78" pos="4716"/>
          <note len="12" key="80" pan="0" vol="78" pos="4728"/>
          <note len="12" key="76" pan="0" vol="78" pos="4740"/>
          <note len="12" key="73" pan="0" vol="78" pos="4752"/>
          <note len="12" key="68" pan="0" vol="78" pos="4764"/>
          <note len="12" key="64" pan="0" vol="78" pos="4776"/>
          <note len="12" key="61" pan="0" vol="78" pos="4788"/>
          <note len="12" key="52" pan="0" vol="78" pos="4800"/>
          <note len="12" key="61" pan="0" vol="78" pos="4812"/>
          <note len="12" key="64" pan="0" vol="78" pos="4824"/>
          <note len="12" key="68" pan="0" vol="78" pos="4836"/>
          <note len="12" key="73" pan="0" vol="78" pos="4848"/>
          <note len="12" key="76" pan="0" vol="78" pos="4860"/>
          <note len="12" key="80" pan="0" vol="78" pos="4872"/>
          <note len="12" key="83" pan="0" vol="78" pos="4884"/>
          <note len="12" key="73" pan="0" vol="78" pos="4896"/>
          <note len="12" key="83" pan="0" vol="78" pos="4908"/>
          <note len="12" key="80" pan="0" vol="78" pos="4920"/>
          <note len="12" key="76" pan="0" vol="78" pos="4932"/>
          <note len="12" key="73" pan="0" vol="78" pos="4944"/>
          <note len="12" key="68" pan="0" vol="78" pos="4956"/>
          <note len="12" key="64" pan="0" vol="78" pos="4968"/>
          <note len="12" key="61" pan="0" vol="78" pos="4980"/>
          <note len="12" key="54" pan="0" vol="78" pos="4992"/>
          <note len="12" key="59" pan="0" vol="78" pos="5004"/>
          <note len="12" key="63" pan="0" vol="78" pos="5016"/>
          <note len="12" key="66" pan="0" vol="78" pos="5028"/>
          <note len="12" key="69" pan="0" vol="78" pos="5040"/>
          <note len="12" key="73" pan="0" vol="78" pos="5052"/>
          <note len="12" key="76" pan="0" vol="78" pos="5064"/>
          <note len="12" key="80" pan="0" vol="78" pos="5076"/>
          <note len="12" key="83" pan="0" vol="78" pos="5088"/>
          <note len="12" key="80" pan="0" vol="78" pos="5100"/>
          <note len="12" key="75" pan="0" vol="78" pos="5112"/>
          <note len="12" key="71" pan="0" vol="78" pos="5124"/>
          <note len="12" key="66" pan="0" vol="78" pos="5136"/>
          <note len="12" key="61" pan="0" vol="78" pos="5148"/>
          <note len="12" key="59" pan="0" vol="78" pos="5160"/>
          <note len="12" key="54" pan="0" vol="78" pos="5172"/>
          <note len="12" key="54" pan="0" vol="78" pos="5184"/>
          <note len="12" key="59" pan="0" vol="78" pos="5196"/>
          <note len="12" key="63" pan="0" vol="78" pos="5208"/>
          <note len="12" key="66" pan="0" vol="78" pos="5220"/>
          <note len="12" key="69" pan="0" vol="78" pos="5232"/>
          <note len="12" key="73" pan="0" vol="78" pos="5244"/>
          <note len="12" key="76" pan="0" vol="78" pos="5256"/>
          <note len="12" key="80" pan="0" vol="78" pos="5268"/>
          <note len="12" key="83" pan="0" vol="78" pos="5280"/>
          <note len="12" key="80" pan="0" vol="78" pos="5292"/>
          <note len="12" key="75" pan="0" vol="78" pos="5304"/>
          <note len="12" key="71" pan="0" vol="78" pos="5316"/>
          <note len="12" key="66" pan="0" vol="78" pos="5328"/>
          <note len="12" key="61" pan="0" vol="78" pos="5340"/>
          <note len="12" key="59" pan="0" vol="78" pos="5352"/>
          <note len="12" key="54" pan="0" vol="78" pos="5364"/>
          <note len="12" key="54" pan="0" vol="78" pos="5376"/>
          <note len="12" key="57" pan="0" vol="78" pos="5388"/>
          <note len="12" key="63" pan="0" vol="78" pos="5400"/>
          <note len="12" key="66" pan="0" vol="78" pos="5412"/>
          <note len="12" key="69" pan="0" vol="78" pos="5424"/>
          <note len="12" key="73" pan="0" vol="78" pos="5436"/>
          <note len="12" key="76" pan="0" vol="78" pos="5448"/>
          <note len="12" key="81" pan="0" vol="78" pos="5460"/>
          <note len="12" key="75" pan="0" vol="78" pos="5472"/>
          <note len="12" key="81" pan="0" vol="78" pos="5484"/>
          <note len="12" key="76" pan="0" vol="78" pos="5496"/>
          <note len="12" key="73" pan="0" vol="78" pos="5508"/>
          <note len="12" key="69" pan="0" vol="78" pos="5520"/>
          <note len="12" key="66" pan="0" vol="78" pos="5532"/>
          <note len="12" key="63" pan="0" vol="78" pos="5544"/>
          <note len="12" key="57" pan="0" vol="78" pos="5556"/>
          <note len="12" key="54" pan="0" vol="78" pos="5568"/>
          <note len="12" key="57" pan="0" vol="78" pos="5580"/>
          <note len="12" key="63" pan="0" vol="78" pos="5592"/>
          <note len="12" key="66" pan="0" vol="78" pos="5604"/>
          <note len="12" key="69" pan="0" vol="78" pos="5616"/>
          <note len="12" key="73" pan="0" vol="78" pos="5628"/>
          <note len="12" key="76" pan="0" vol="78" pos="5640"/>
          <note len="12" key="81" pan="0" vol="78" pos="5652"/>
          <note len="12" key="75" pan="0" vol="78" pos="5664"/>
          <note len="12" key="81" pan="0" vol="78" pos="5676"/>
          <note len="12" key="76" pan="0" vol="78" pos="5688"/>
          <note len="12" key="73" pan="0" vol="78" pos="5700"/>
          <note len="12" key="69" pan="0" vol="78" pos="5712"/>
          <note len="12" key="66" pan="0" vol="78" pos="5724"/>
          <note len="12" key="63" pan="0" vol="78" pos="5736"/>
          <note len="12" key="57" pan="0" vol="78" pos="5748"/>
          <note len="12" key="57" pan="0" vol="78" pos="5760"/>
          <note len="12" key="61" pan="0" vol="78" pos="5772"/>
          <note len="12" key="64" pan="0" vol="78" pos="5784"/>
          <note len="12" key="68" pan="0" vol="78" pos="5796"/>
          <note len="12" key="71" pan="0" vol="78" pos="5808"/>
          <note len="12" key="75" pan="0" vol="78" pos="5820"/>
          <note len="12" key="78" pan="0" vol="78" pos="5832"/>
          <note len="12" key="81" pan="0" vol="78" pos="5844"/>
          <note len="12" key="73" pan="0" vol="78" pos="5856"/>
          <note len="12" key="81" pan="0" vol="78" pos="5868"/>
          <note len="12" key="78" pan="0" vol="78" pos="5880"/>
          <note len="12" key="75" pan="0" vol="78" pos="5892"/>
          <note len="12" key="71" pan="0" vol="78" pos="5904"/>
          <note len="12" key="68" pan="0" vol="78" pos="5916"/>
          <note len="12" key="64" pan="0" vol="78" pos="5928"/>
          <note len="12" key="61" pan="0" vol="78" pos="5940"/>
          <note len="12" key="57" pan="0" vol="78" pos="5952"/>
          <note len="12" key="61" pan="0" vol="78" pos="5964"/>
          <note len="12" key="64" pan="0" vol="78" pos="5976"/>
          <note len="12" key="68" pan="0" vol="78" pos="5988"/>
          <note len="12" key="71" pan="0" vol="78" pos="6000"/>
          <note len="12" key="75" pan="0" vol="78" pos="6012"/>
          <note len="12" key="78" pan="0" vol="78" pos="6024"/>
          <note len="12" key="81" pan="0" vol="78" pos="6036"/>
          <note len="12" key="72" pan="0" vol="78" pos="6048"/>
          <note len="12" key="81" pan="0" vol="78" pos="6060"/>
          <note len="12" key="78" pan="0" vol="78" pos="6072"/>
          <note len="12" key="75" pan="0" vol="78" pos="6084"/>
          <note len="12" key="71" pan="0" vol="78" pos="6096"/>
          <note len="12" key="68" pan="0" vol="78" pos="6108"/>
          <note len="12" key="64" pan="0" vol="78" pos="6120"/>
          <note len="12" key="61" pan="0" vol="78" pos="6132"/>
        </pattern>
        <pattern muted="0" name="" steps="16" type="1" pos="30336">
          <note len="12" key="57" pan="0" vol="152" pos="0"/>
          <note len="12" key="57" pan="0" vol="152" pos="12"/>
          <note len="12" key="56" pan="0" vol="152" pos="24"/>
          <note len="12" key="56" pan="0" vol="152" pos="36"/>
          <note len="12" key="54" pan="0" vol="152" pos="48"/>
          <note len="12" key="54" pan="0" vol="152" pos="60"/>
          <note len="12" key="61" pan="0" vol="152" pos="72"/>
          <note len="12" key="61" pan="0" vol="152" pos="84"/>
          <note len="12" key="59" pan="0" vol="152" pos="96"/>
          <note len="12" key="59" pan="0" vol="152" pos="108"/>
          <note len="12" key="57" pan="0" vol="152" pos="120"/>
          <note len="12" key="57" pan="0" vol="152" pos="132"/>
          <note len="12" key="59" pan="0" vol="152" pos="144"/>
          <note len="12" key="59" pan="0" vol="152" pos="156"/>
          <note len="12" key="61" pan="0" vol="152" pos="168"/>
          <note len="12" key="61" pan="0" vol="152" pos="180"/>
          <note len="48" key="62" pan="0" vol="152" pos="192"/>
          <note len="12" key="61" pan="0" vol="152" pos="240"/>
          <note len="12" key="62" pan="0" vol="152" pos="252"/>
          <note len="12" key="64" pan="0" vol="152" pos="264"/>
          <note len="12" key="66" pan="0" vol="152" pos="276"/>
          <note len="12" key="68" pan="0" vol="152" pos="288"/>
          <note len="12" key="66" pan="0" vol="152" pos="300"/>
          <note len="12" key="64" pan="0" vol="152" pos="312"/>
          <note len="12" key="66" pan="0" vol="152" pos="324"/>
          <note len="12" key="69" pan="0" vol="152" pos="336"/>
          <note len="12" key="68" pan="0" vol="152" pos="348"/>
          <note len="12" key="66" pan="0" vol="152" pos="360"/>
          <note len="12" key="68" pan="0" vol="152" pos="372"/>
          <note len="24" key="68" pan="0" vol="152" pos="384"/>
          <note len="24" key="69" pan="0" vol="152" pos="408"/>
          <note len="48" key="66" pan="0" vol="152" pos="456"/>
          <note len="12" key="62" pan="0" vol="152" pos="504"/>
          <note len="12" key="62" pan="0" vol="152" pos="516"/>
          <note len="12" key="66" pan="0" vol="152" pos="528"/>
          <note len="12" key="66" pan="0" vol="152" pos="540"/>
          <note len="12" key="68" pan="0" vol="152" pos="552"/>
          <note len="12" key="68" pan="0" vol="152" pos="564"/>
          <note len="24" key="71" pan="0" vol="152" pos="576"/>
          <note len="12" key="69" pan="0" vol="152" pos="600"/>
          <note len="12" key="71" pan="0" vol="152" pos="612"/>
          <note len="24" key="73" pan="0" vol="152" pos="624"/>
          <note len="12" key="71" pan="0" vol="152" pos="648"/>
          <note len="12" key="73" pan="0" vol="152" pos="660"/>
          <note len="12" key="76" pan="0" vol="152" pos="672"/>
          <note len="12" key="74" pan="0" vol="152" pos="684"/>
          <note len="12" key="73" pan="0" vol="152" pos="696"/>
          <note len="12" key="71" pan="0" vol="152" pos="708"/>
          <note len="12" key="69" pan="0" vol="152" pos="720"/>
          <note len="12" key="68" pan="0" vol="152" pos="732"/>
          <note len="12" key="66" pan="0" vol="152" pos="744"/>
          <note len="12" key="64" pan="0" vol="152" pos="756"/>
        </pattern>
        <pattern muted="0" name="" steps="16" type="1" pos="44928">
          <note len="240" key="73" pan="0" vol="78" pos="0"/>
          <note len="48" key="76" pan="0" vol="78" pos="240"/>
          <note len="48" key="78" pan="0" vol="78" pos="288"/>
          <note len="48" key="80" pan="0" vol="78" pos="336"/>
          <note len="72" key="81" pan="0" vol="78" pos="384"/>
          <note len="72" key="80" pan="0" vol="78" pos="456"/>
          <note len="48" key="78" pan="0" vol="78" pos="528"/>
          <note len="48" key="76" pan="0" vol="78" pos="576"/>
          <note len="48" key="73" pan="0" vol="78" pos="624"/>
          <note len="48" key="76" pan="0" vol="78" pos="672"/>
          <note len="48" key="80" pan="0" vol="78" pos="720"/>
          <note len="192" key="78" pan="0" vol="78" pos="768"/>
          <note len="96" key="75" pan="0" vol="78" pos="960"/>
          <note len="96" key="71" pan="0" vol="78" pos="1056"/>
        </pattern>
        <pattern muted="0" name="" steps="16" type="1" pos="38400">
          <note len="12" key="73" pan="0" vol="78" pos="0"/>
          <note len="12" key="71" pan="0" vol="78" pos="12"/>
          <note len="12" key="68" pan="0" vol="78" pos="24"/>
          <note len="12" key="71" pan="0" vol="78" pos="36"/>
          <note len="12" key="66" pan="0" vol="78" pos="48"/>
          <note len="12" key="71" pan="0" vol="78" pos="60"/>
          <note len="12" key="68" pan="0" vol="78" pos="72"/>
          <note len="12" key="71" pan="0" vol="78" pos="84"/>
          <note len="12" key="73" pan="0" vol="78" pos="96"/>
          <note len="12" key="71" pan="0" vol="78" pos="108"/>
          <note len="12" key="68" pan="0" vol="78" pos="120"/>
          <note len="12" key="71" pan="0" vol="78" pos="132"/>
          <note len="12" key="66" pan="0" vol="78" pos="144"/>
          <note len="12" key="71" pan="0" vol="78" pos="156"/>
          <note len="12" key="68" pan="0" vol="78" pos="168"/>
          <note len="12" key="71" pan="0" vol="78" pos="180"/>
          <note len="12" key="76" pan="0" vol="78" pos="192"/>
          <note len="12" key="73" pan="0" vol="78" pos="204"/>
          <note len="12" key="71" pan="0" vol="78" pos="216"/>
          <note len="12" key="73" pan="0" vol="78" pos="228"/>
          <note len="12" key="68" pan="0" vol="78" pos="240"/>
          <note len="12" key="73" pan="0" vol="78" pos="252"/>
          <note len="12" key="71" pan="0" vol="78" pos="264"/>
          <note len="12" key="73" pan="0" vol="78" pos="276"/>
          <note len="12" key="76" pan="0" vol="78" pos="288"/>
          <note len="12" key="73" pan="0" vol="78" pos="300"/>
          <note len="12" key="71" pan="0" vol="78" pos="312"/>
          <note len="12" key="73" pan="0" vol="78" pos="324"/>
          <note len="12" key="68" pan="0" vol="78" pos="336"/>
          <note len="12" key="73" pan="0" vol="78" pos="348"/>
          <note len="12" key="71" pan="0" vol="78" pos="360"/>
          <note len="12" key="73" pan="0" vol="78" pos="372"/>
        </pattern>
        <pattern muted="0" name="" steps="16" type="1" pos="38976">
          <note len="12" key="68" pan="0" vol="78" pos="0"/>
          <note len="12" key="66" pan="0" vol="78" pos="12"/>
          <note len="12" key="64" pan="0" vol="78" pos="24"/>
          <note len="12" key="66" pan="0" vol="78" pos="36"/>
          <note len="12" key="61" pan="0" vol="78" pos="48"/>
          <note len="12" key="66" pan="0" vol="78" pos="60"/>
          <note len="12" key="64" pan="0" vol="78" pos="72"/>
          <note len="12" key="66" pan="0" vol="78" pos="84"/>
          <note len="12" key="68" pan="0" vol="78" pos="96"/>
          <note len="12" key="66" pan="0" vol="78" pos="108"/>
          <note len="12" key="64" pan="0" vol="78" pos="120"/>
          <note len="12" key="66" pan="0" vol="78" pos="132"/>
          <note len="12" key="61" pan="0" vol="78" pos="144"/>
          <note len="12" key="66" pan="0" vol="78" pos="156"/>
          <note len="12" key="64" pan="0" vol="78" pos="168"/>
          <note len="12" key="66" pan="0" vol="78" pos="180"/>
          <note len="12" key="71" pan="0" vol="78" pos="192"/>
          <note len="12" key="68" pan="0" vol="78" pos="204"/>
          <note len="12" key="66" pan="0" vol="78" pos="216"/>
          <note len="12" key="68" pan="0" vol="78" pos="228"/>
          <note len="12" key="64" pan="0" vol="78" pos="240"/>
          <note len="12" key="68" pan="0" vol="78" pos="252"/>
          <note len="12" key="66" pan="0" vol="78" pos="264"/>
          <note len="12" key="68" pan="0" vol="78" pos="276"/>
          <note len="12" key="71" pan="0" vol="78" pos="288"/>
          <note len="12" key="68" pan="0" vol="78" pos="300"/>
          <note len="12" key="66" pan="0" vol="78" pos="312"/>
          <note len="12" key="68" pan="0" vol="78" pos="324"/>
          <note len="12" key="64" pan="0" vol="78" pos="336"/>
          <note len="12" key="68" pan="0" vol="78" pos="348"/>
          <note len="12" key="66" pan="0" vol="78" pos="360"/>
          <note len="12" key="68" pan="0" vol="78" pos="372"/>
        </pattern>
        <pattern muted="0" name="" steps="16" type="1" pos="37632">
          <note len="12" key="78" pan="0" vol="78" pos="0"/>
          <note len="12" key="0" pan="0" vol="78" pos="0"/>
          <note len="12" key="73" pan="0" vol="78" pos="12"/>
          <note len="12" key="70" pan="0" vol="78" pos="24"/>
          <note len="12" key="1" pan="0" vol="78" pos="24"/>
          <note len="12" key="73" pan="0" vol="78" pos="36"/>
          <note len="12" key="66" pan="0" vol="78" pos="48"/>
          <note len="12" key="73" pan="0" vol="78" pos="60"/>
          <note len="12" key="70" pan="0" vol="78" pos="72"/>
          <note len="12" key="73" pan="0" vol="78" pos="84"/>
          <note len="12" key="78" pan="0" vol="78" pos="96"/>
          <note len="12" key="73" pan="0" vol="78" pos="108"/>
          <note len="12" key="70" pan="0" vol="78" pos="120"/>
          <note len="12" key="73" pan="0" vol="78" pos="132"/>
          <note len="12" key="66" pan="0" vol="78" pos="144"/>
          <note len="12" key="73" pan="0" vol="78" pos="156"/>
          <note len="12" key="70" pan="0" vol="78" pos="168"/>
          <note len="12" key="73" pan="0" vol="78" pos="180"/>
        </pattern>
        <pattern muted="0" name="" steps="16" type="1" pos="53568">
          <note len="120" key="63" pan="0" vol="193" pos="0"/>
          <note len="24" key="58" pan="0" vol="193" pos="120"/>
          <note len="24" key="66" pan="0" vol="193" pos="144"/>
          <note len="24" key="58" pan="0" vol="193" pos="168"/>
          <note len="120" key="65" pan="0" vol="193" pos="192"/>
          <note len="12" key="65" pan="0" vol="193" pos="312"/>
          <note len="12" key="66" pan="0" vol="193" pos="324"/>
          <note len="12" key="70" pan="0" vol="193" pos="336"/>
          <note len="12" key="66" pan="0" vol="193" pos="348"/>
          <note len="12" key="65" pan="0" vol="193" pos="360"/>
          <note len="12" key="66" pan="0" vol="193" pos="372"/>
          <note len="144" key="70" pan="0" vol="193" pos="384"/>
          <note len="24" key="68" pan="0" vol="193" pos="528"/>
          <note len="24" key="66" pan="0" vol="193" pos="552"/>
          <note len="48" key="65" pan="0" vol="193" pos="576"/>
          <note len="48" key="66" pan="0" vol="197" pos="624"/>
          <note len="12" key="61" pan="0" vol="193" pos="672"/>
          <note len="12" key="61" pan="0" vol="193" pos="684"/>
          <note len="12" key="61" pan="0" vol="193" pos="696"/>
          <note len="12" key="61" pan="0" vol="193" pos="708"/>
          <note len="12" key="58" pan="0" vol="193" pos="720"/>
          <note len="12" key="54" pan="0" vol="193" pos="732"/>
          <note len="12" key="56" pan="0" vol="193" pos="744"/>
          <note len="12" key="58" pan="0" vol="193" pos="756"/>
          <note len="96" key="59" pan="0" vol="193" pos="768"/>
          <note len="48" key="63" pan="0" vol="193" pos="864"/>
          <note len="48" key="66" pan="0" vol="193" pos="912"/>
          <note len="96" key="66" pan="0" vol="193" pos="960"/>
          <note len="12" key="65" pan="0" vol="193" pos="1056"/>
          <note len="12" key="58" pan="0" vol="193" pos="1068"/>
          <note len="12" key="58" pan="0" vol="193" pos="1080"/>
          <note len="12" key="58" pan="0" vol="193" pos="1092"/>
          <note len="12" key="66" pan="0" vol="193" pos="1104"/>
          <note len="12" key="63" pan="0" vol="193" pos="1116"/>
          <note len="12" key="65" pan="0" vol="193" pos="1128"/>
          <note len="12" key="66" pan="0" vol="193" pos="1140"/>
          <note len="48" key="73" pan="0" vol="193" pos="1152"/>
          <note len="12" key="71" pan="0" vol="193" pos="1200"/>
          <note len="12" key="73" pan="0" vol="193" pos="1212"/>
          <note len="48" key="71" pan="0" vol="193" pos="1224"/>
          <note len="12" key="70" pan="0" vol="193" pos="1272"/>
          <note len="12" key="71" pan="0" vol="193" pos="1284"/>
          <note len="12" key="70" pan="0" vol="193" pos="1296"/>
          <note len="12" key="68" pan="0" vol="193" pos="1308"/>
          <note len="12" key="66" pan="0" vol="193" pos="1320"/>
          <note len="12" key="70" pan="0" vol="193" pos="1332"/>
          <note len="72" key="68" pan="0" vol="193" pos="1344"/>
          <note len="12" key="66" pan="0" vol="193" pos="1416"/>
          <note len="12" key="68" pan="0" vol="193" pos="1428"/>
          <note len="12" key="70" pan="0" vol="193" pos="1440"/>
          <note len="12" key="71" pan="0" vol="193" pos="1452"/>
          <note len="12" key="70" pan="0" vol="193" pos="1464"/>
          <note len="12" key="68" pan="0" vol="193" pos="1476"/>
          <note len="12" key="70" pan="0" vol="193" pos="1488"/>
          <note len="12" key="68" pan="0" vol="193" pos="1500"/>
          <note len="12" key="66" pan="0" vol="193" pos="1512"/>
          <note len="12" key="65" pan="0" vol="193" pos="1524"/>
          <note len="48" key="66" pan="0" vol="193" pos="1536"/>
          <note len="12" key="58" pan="0" vol="193" pos="1584"/>
          <note len="12" key="58" pan="0" vol="193" pos="1596"/>
          <note len="48" key="65" pan="0" vol="193" pos="1608"/>
          <note len="12" key="58" pan="0" vol="193" pos="1656"/>
          <note len="12" key="58" pan="0" vol="193" pos="1668"/>
          <note len="24" key="66" pan="0" vol="193" pos="1680"/>
          <note len="12" key="58" pan="0" vol="193" pos="1704"/>
          <note len="12" key="58" pan="0" vol="193" pos="1716"/>
          <note len="144" key="70" pan="0" vol="193" pos="1728"/>
          <note len="48" key="65" pan="0" vol="193" pos="1872"/>
          <note len="12" key="63" pan="0" vol="193" pos="1920"/>
          <note len="12" key="65" pan="0" vol="193" pos="1932"/>
          <note len="216" key="63" pan="0" vol="193" pos="1944"/>
          <note len="48" key="66" pan="0" vol="193" pos="2160"/>
          <note len="24" key="68" pan="0" vol="193" pos="2208"/>
          <note len="12" key="66" pan="0" vol="193" pos="2232"/>
          <note len="12" key="68" pan="0" vol="193" pos="2244"/>
          <note len="24" key="70" pan="0" vol="193" pos="2256"/>
          <note len="12" key="68" pan="0" vol="193" pos="2280"/>
          <note len="12" key="70" pan="0" vol="193" pos="2292"/>
          <note len="72" key="71" pan="0" vol="193" pos="2304"/>
          <note len="72" key="70" pan="0" vol="193" pos="2376"/>
          <note len="48" key="68" pan="0" vol="193" pos="2448"/>
          <note len="12" key="66" pan="0" vol="193" pos="2496"/>
          <note len="12" key="65" pan="0" vol="193" pos="2508"/>
          <note len="12" key="63" pan="0" vol="193" pos="2520"/>
          <note len="12" key="58" pan="0" vol="193" pos="2532"/>
          <note len="12" key="63" pan="0" vol="193" pos="2544"/>
          <note len="12" key="61" pan="0" vol="193" pos="2556"/>
          <note len="12" key="59" pan="0" vol="193" pos="2568"/>
          <note len="12" key="58" pan="0" vol="193" pos="2580"/>
          <note len="12" key="66" pan="0" vol="193" pos="2592"/>
          <note len="12" key="65" pan="0" vol="193" pos="2604"/>
          <note len="12" key="63" pan="0" vol="193" pos="2616"/>
          <note len="12" key="58" pan="0" vol="193" pos="2628"/>
          <note len="48" key="75" pan="0" vol="193" pos="2640"/>
          <note len="192" key="73" pan="0" vol="193" pos="2688"/>
        </pattern>
        <pattern muted="0" name="" steps="16" type="1" pos="56832">
          <note len="120" key="58" pan="0" vol="78" pos="0"/>
          <note len="24" key="54" pan="0" vol="78" pos="120"/>
          <note len="24" key="63" pan="0" vol="78" pos="144"/>
          <note len="24" key="54" pan="0" vol="78" pos="168"/>
          <note len="120" key="61" pan="0" vol="78" pos="192"/>
          <note len="12" key="61" pan="0" vol="78" pos="312"/>
          <note len="12" key="63" pan="0" vol="78" pos="324"/>
          <note len="12" key="66" pan="0" vol="78" pos="336"/>
          <note len="12" key="63" pan="0" vol="78" pos="348"/>
          <note len="12" key="61" pan="0" vol="78" pos="360"/>
          <note len="12" key="63" pan="0" vol="78" pos="372"/>
          <note len="144" key="66" pan="0" vol="78" pos="384"/>
          <note len="24" key="65" pan="0" vol="78" pos="528"/>
          <note len="24" key="63" pan="0" vol="78" pos="552"/>
          <note len="48" key="61" pan="0" vol="78" pos="576"/>
          <note len="48" key="63" pan="0" vol="78" pos="624"/>
          <note len="12" key="58" pan="0" vol="78" pos="672"/>
          <note len="12" key="58" pan="0" vol="78" pos="684"/>
          <note len="12" key="58" pan="0" vol="78" pos="696"/>
          <note len="12" key="58" pan="0" vol="78" pos="708"/>
          <note len="12" key="54" pan="0" vol="78" pos="720"/>
          <note len="12" key="51" pan="0" vol="78" pos="732"/>
          <note len="12" key="53" pan="0" vol="78" pos="744"/>
          <note len="12" key="54" pan="0" vol="78" pos="756"/>
          <note len="96" key="56" pan="0" vol="78" pos="768"/>
          <note len="48" key="59" pan="0" vol="78" pos="864"/>
          <note len="48" key="63" pan="0" vol="78" pos="912"/>
          <note len="96" key="63" pan="0" vol="78" pos="960"/>
          <note len="12" key="61" pan="0" vol="78" pos="1056"/>
          <note len="12" key="54" pan="0" vol="78" pos="1068"/>
          <note len="12" key="54" pan="0" vol="78" pos="1080"/>
          <note len="12" key="54" pan="0" vol="78" pos="1092"/>
          <note len="12" key="63" pan="0" vol="78" pos="1104"/>
          <note len="12" key="59" pan="0" vol="78" pos="1116"/>
          <note len="12" key="61" pan="0" vol="78" pos="1128"/>
          <note len="12" key="63" pan="0" vol="78" pos="1140"/>
          <note len="48" key="70" pan="0" vol="78" pos="1152"/>
          <note len="12" key="68" pan="0" vol="78" pos="1200"/>
          <note len="12" key="70" pan="0" vol="78" pos="1212"/>
          <note len="48" key="68" pan="0" vol="78" pos="1224"/>
          <note len="12" key="66" pan="0" vol="78" pos="1272"/>
          <note len="12" key="68" pan="0" vol="78" pos="1284"/>
          <note len="12" key="66" pan="0" vol="78" pos="1296"/>
          <note len="12" key="65" pan="0" vol="78" pos="1308"/>
          <note len="12" key="63" pan="0" vol="78" pos="1320"/>
          <note len="12" key="66" pan="0" vol="78" pos="1332"/>
          <note len="72" key="65" pan="0" vol="78" pos="1344"/>
          <note len="12" key="63" pan="0" vol="78" pos="1416"/>
          <note len="12" key="65" pan="0" vol="78" pos="1428"/>
          <note len="12" key="66" pan="0" vol="78" pos="1440"/>
          <note len="12" key="68" pan="0" vol="78" pos="1452"/>
          <note len="12" key="66" pan="0" vol="78" pos="1464"/>
          <note len="12" key="65" pan="0" vol="78" pos="1476"/>
          <note len="12" key="66" pan="0" vol="78" pos="1488"/>
          <note len="12" key="65" pan="0" vol="78" pos="1500"/>
          <note len="12" key="63" pan="0" vol="78" pos="1512"/>
          <note len="12" key="61" pan="0" vol="78" pos="1524"/>
          <note len="48" key="63" pan="0" vol="78" pos="1536"/>
          <note len="12" key="54" pan="0" vol="78" pos="1584"/>
          <note len="12" key="54" pan="0" vol="78" pos="1596"/>
          <note len="48" key="61" pan="0" vol="78" pos="1608"/>
          <note len="12" key="54" pan="0" vol="78" pos="1656"/>
          <note len="12" key="54" pan="0" vol="78" pos="1668"/>
          <note len="24" key="63" pan="0" vol="78" pos="1680"/>
          <note len="12" key="54" pan="0" vol="78" pos="1704"/>
          <note len="12" key="54" pan="0" vol="78" pos="1716"/>
          <note len="144" key="66" pan="0" vol="78" pos="1728"/>
          <note len="48" key="61" pan="0" vol="78" pos="1872"/>
          <note len="12" key="60" pan="0" vol="78" pos="1920"/>
          <note len="12" key="61" pan="0" vol="78" pos="1932"/>
          <note len="216" key="60" pan="0" vol="78" pos="1944"/>
          <note len="48" key="63" pan="0" vol="78" pos="2160"/>
          <note len="24" key="65" pan="0" vol="78" pos="2208"/>
          <note len="12" key="63" pan="0" vol="78" pos="2232"/>
          <note len="12" key="65" pan="0" vol="78" pos="2244"/>
          <note len="24" key="66" pan="0" vol="78" pos="2256"/>
          <note len="12" key="65" pan="0" vol="78" pos="2280"/>
          <note len="12" key="66" pan="0" vol="78" pos="2292"/>
          <note len="72" key="68" pan="0" vol="78" pos="2304"/>
          <note len="72" key="66" pan="0" vol="78" pos="2376"/>
          <note len="48" key="65" pan="0" vol="78" pos="2448"/>
          <note len="12" key="63" pan="0" vol="193" pos="2496"/>
          <note len="12" key="61" pan="0" vol="193" pos="2508"/>
          <note len="12" key="59" pan="0" vol="193" pos="2520"/>
          <note len="12" key="54" pan="0" vol="193" pos="2532"/>
          <note len="12" key="59" pan="0" vol="193" pos="2544"/>
          <note len="12" key="58" pan="0" vol="193" pos="2556"/>
          <note len="12" key="56" pan="0" vol="193" pos="2568"/>
          <note len="12" key="54" pan="0" vol="193" pos="2580"/>
          <note len="12" key="63" pan="0" vol="193" pos="2592"/>
          <note len="12" key="61" pan="0" vol="193" pos="2604"/>
          <note len="12" key="59" pan="0" vol="193" pos="2616"/>
          <note len="12" key="54" pan="0" vol="193" pos="2628"/>
          <note len="48" key="71" pan="0" vol="193" pos="2640"/>
          <note len="192" key="68" pan="0" vol="193" pos="2688"/>
        </pattern>
      </track>
      <track muted="1" name="Orchestra Soundfont 2 COMBO" type="0" solo="0" mutedBeforeSolo="0">
        <instrumenttrack usemasterpitch="1" pitchrange="2" pitch="0" pan="0" basenote="57" vol="100" fxch="0">
          <instrument name="sf2player">
            <sf2player gain="1" chorusLevel="2" reverbRoomSize="0.2" reverbWidth="0.5" reverbDamping="0" reverbLevel="0.9" chorusSpeed="0.3" chorusOn="0" chorusDepth="8" src="/home/pass/samples/soundfonts/Orchestra Soundfont 2 COMBO.sf2" chorusNum="3" patch="48" bank="0" reverbOn="0">
              <key/>
            </sf2player>
          </instrument>
          <eldata fcut="14000" fwet="0" fres="0.5" ftype="0">
            <elvol rel="0.1" lspd_syncmode="0" pdel="0" lspd_numerator="4" lpdel="0" amt="0" ctlenvamt="0" lshp="0" userwavefile="" dec="0.5" lspd_denominator="4" sustain="0.5" lspd="0.1" latt="0" hold="0.5" att="0" x100="0" lamt="0"/>
            <elcut rel="0.1" lspd_syncmode="0" pdel="0" lspd_numerator="4" lpdel="0" amt="0" ctlenvamt="0" lshp="0" userwavefile="" dec="0.5" lspd_denominator="4" sustain="0.5" lspd="0.1" latt="0" hold="0.5" att="0" x100="0" lamt="0"/>
            <elres rel="0.1" lspd_syncmode="0" pdel="0" lspd_numerator="4" lpdel="0" amt="0" ctlenvamt="0" lshp="0" userwavefile="" dec="0.5" lspd_denominator="4" sustain="0.5" lspd="0.1" latt="0" hold="0.5" att="0" x100="0" lamt="0"/>
          </eldata>
          <chordcreator chord="0" chordrange="1" chord-enabled="0"/>
          <arpeggiator arptime_denominator="4" arptime="200" arp-enabled="0" arpcycle="0" arpgate="100" arp="0" arpmiss="0" arpdir="0" arprange="1" arpmode="0" arpskip="0" arptime_syncmode="0" arptime_numerator="4"/>
          <midiport inputcontroller="0" fixedinputvelocity="-1" readable="0" outputcontroller="0" fixedoutputnote="-1" outputprogram="1" writable="0" fixedoutputvelocity="-1" basevelocity="63" outputchannel="1" inputchannel="0"/>
          <fxchain enabled="0" numofeffects="0"/>
        </instrumenttrack>
        <pattern muted="0" name="" steps="16" type="1" pos="384">
          <note len="48" key="49" pan="0" vol="78" pos="0"/>
          <note len="48" key="49" pan="0" vol="78" pos="384"/>
          <note len="48" key="49" pan="0" vol="78" pos="768"/>
          <note len="48" key="49" pan="0" vol="78" pos="1152"/>
          <note len="384" key="49" pan="0" vol="78" pos="1536"/>
          <note len="384" key="49" pan="0" vol="78" pos="1920"/>
          <note len="384" key="49" pan="0" vol="78" pos="2304"/>
          <note len="384" key="49" pan="0" vol="78" pos="2688"/>
          <note len="48" key="61" pan="0" vol="78" pos="3072"/>
          <note len="48" key="49" pan="0" vol="78" pos="3072"/>
          <note len="48" key="61" pan="0" vol="78" pos="3120"/>
          <note len="48" key="49" pan="0" vol="78" pos="3120"/>
          <note len="48" key="61" pan="0" vol="78" pos="3168"/>
          <note len="48" key="49" pan="0" vol="78" pos="3168"/>
          <note len="48" key="64" pan="0" vol="78" pos="3216"/>
          <note len="48" key="52" pan="0" vol="78" pos="3216"/>
          <note len="48" key="63" pan="0" vol="78" pos="3264"/>
          <note len="48" key="51" pan="0" vol="78" pos="3264"/>
          <note len="48" key="63" pan="0" vol="78" pos="3312"/>
          <note len="48" key="51" pan="0" vol="78" pos="3312"/>
          <note len="48" key="63" pan="0" vol="78" pos="3360"/>
          <note len="48" key="51" pan="0" vol="78" pos="3360"/>
          <note len="48" key="68" pan="0" vol="78" pos="3408"/>
          <note len="48" key="56" pan="0" vol="78" pos="3408"/>
          <note len="48" key="68" pan="0" vol="78" pos="3456"/>
          <note len="48" key="56" pan="0" vol="78" pos="3456"/>
          <note len="48" key="68" pan="0" vol="78" pos="3504"/>
          <note len="48" key="56" pan="0" vol="78" pos="3504"/>
          <note len="48" key="68" pan="0" vol="78" pos="3552"/>
          <note len="48" key="56" pan="0" vol="78" pos="3552"/>
          <note len="24" key="66" pan="0" vol="78" pos="3600"/>
          <note len="24" key="54" pan="0" vol="78" pos="3600"/>
          <note len="24" key="64" pan="0" vol="78" pos="3624"/>
          <note len="24" key="52" pan="0" vol="78" pos="3624"/>
          <note len="48" key="63" pan="0" vol="78" pos="3648"/>
          <note len="48" key="51" pan="0" vol="78" pos="3648"/>
          <note len="48" key="64" pan="0" vol="78" pos="3696"/>
          <note len="48" key="52" pan="0" vol="78" pos="3696"/>
          <note len="48" key="59" pan="0" vol="78" pos="3744"/>
          <note len="48" key="47" pan="0" vol="78" pos="3744"/>
          <note len="48" key="56" pan="0" vol="78" pos="3792"/>
          <note len="48" key="44" pan="0" vol="78" pos="3792"/>
          <note len="48" key="57" pan="0" vol="78" pos="3840"/>
          <note len="48" key="45" pan="0" vol="78" pos="3840"/>
          <note len="48" key="57" pan="0" vol="78" pos="3888"/>
          <note len="48" key="45" pan="0" vol="78" pos="3888"/>
          <note len="48" key="57" pan="0" vol="78" pos="3936"/>
          <note len="48" key="45" pan="0" vol="78" pos="3936"/>
          <note len="48" key="64" pan="0" vol="78" pos="3984"/>
          <note len="48" key="52" pan="0" vol="78" pos="3984"/>
          <note len="48" key="63" pan="0" vol="78" pos="4032"/>
          <note len="48" key="51" pan="0" vol="78" pos="4032"/>
          <note len="48" key="63" pan="0" vol="78" pos="4080"/>
          <note len="48" key="51" pan="0" vol="78" pos="4080"/>
          <note len="48" key="63" pan="0" vol="78" pos="4128"/>
          <note len="48" key="51" pan="0" vol="78" pos="4128"/>
          <note len="48" key="66" pan="0" vol="78" pos="4176"/>
          <note len="48" key="54" pan="0" vol="78" pos="4176"/>
          <note len="96" key="64" pan="0" vol="78" pos="4224"/>
          <note len="96" key="52" pan="0" vol="78" pos="4224"/>
          <note len="48" key="68" pan="0" vol="78" pos="4320"/>
          <note len="48" key="56" pan="0" vol="78" pos="4320"/>
          <note len="48" key="64" pan="0" vol="78" pos="4368"/>
          <note len="48" key="52" pan="0" vol="78" pos="4368"/>
          <note len="48" key="66" pan="0" vol="78" pos="4416"/>
          <note len="48" key="54" pan="0" vol="78" pos="4416"/>
          <note len="48" key="71" pan="0" vol="78" pos="4464"/>
          <note len="48" key="59" pan="0" vol="78" pos="4464"/>
          <note len="48" key="68" pan="0" vol="78" pos="4512"/>
          <note len="48" key="56" pan="0" vol="78" pos="4512"/>
          <note len="48" key="75" pan="0" vol="78" pos="4560"/>
          <note len="48" key="63" pan="0" vol="78" pos="4560"/>
        </pattern>
        <pattern muted="0" name="" steps="16" type="1" pos="11136">
          <note len="192" key="61" pan="0" vol="78" pos="0"/>
          <note len="192" key="64" pan="0" vol="78" pos="192"/>
          <note len="192" key="62" pan="0" vol="78" pos="384"/>
          <note len="192" key="66" pan="0" vol="78" pos="576"/>
          <note len="192" key="61" pan="0" vol="78" pos="768"/>
          <note len="192" key="64" pan="0" vol="78" pos="960"/>
          <note len="192" key="62" pan="0" vol="78" pos="1152"/>
          <note len="192" key="66" pan="0" vol="78" pos="1344"/>
        </pattern>
        <pattern muted="0" name="" steps="16" type="1" pos="18816">
          <note len="192" key="61" pan="0" vol="78" pos="0"/>
          <note len="192" key="56" pan="0" vol="78" pos="384"/>
          <note len="192" key="56" pan="0" vol="78" pos="768"/>
          <note len="192" key="68" pan="0" vol="78" pos="1152"/>
          <note len="192" key="69" pan="0" vol="78" pos="1536"/>
          <note len="192" key="69" pan="0" vol="78" pos="1728"/>
          <note len="192" key="68" pan="0" vol="78" pos="1920"/>
          <note len="192" key="68" pan="0" vol="78" pos="2112"/>
          <note len="192" key="66" pan="0" vol="78" pos="2304"/>
          <note len="192" key="66" pan="0" vol="78" pos="2496"/>
          <note len="192" key="73" pan="0" vol="78" pos="2688"/>
          <note len="192" key="72" pan="0" vol="78" pos="2880"/>
        </pattern>
        <pattern muted="0" name="" steps="16" type="1" pos="24960">
          <note len="192" key="61" pan="0" vol="78" pos="0"/>
          <note len="192" key="49" pan="0" vol="78" pos="0"/>
          <note len="192" key="59" pan="0" vol="78" pos="192"/>
          <note len="192" key="47" pan="0" vol="78" pos="192"/>
          <note len="288" key="56" pan="0" vol="78" pos="384"/>
          <note len="288" key="44" pan="0" vol="78" pos="384"/>
          <note len="96" key="56" pan="0" vol="78" pos="672"/>
          <note len="96" key="44" pan="0" vol="78" pos="672"/>
          <note len="192" key="68" pan="0" vol="78" pos="768"/>
          <note len="192" key="56" pan="0" vol="78" pos="768"/>
          <note len="192" key="66" pan="0" vol="78" pos="960"/>
          <note len="192" key="54" pan="0" vol="78" pos="960"/>
          <note len="384" key="61" pan="0" vol="78" pos="1152"/>
          <note len="384" key="49" pan="0" vol="78" pos="1152"/>
          <note len="192" key="61" pan="0" vol="78" pos="1536"/>
          <note len="192" key="49" pan="0" vol="78" pos="1536"/>
          <note len="192" key="63" pan="0" vol="78" pos="1728"/>
          <note len="192" key="51" pan="0" vol="78" pos="1728"/>
          <note len="192" key="64" pan="0" vol="78" pos="1920"/>
          <note len="192" key="52" pan="0" vol="78" pos="1920"/>
          <note len="96" key="68" pan="0" vol="78" pos="2112"/>
          <note len="96" key="56" pan="0" vol="78" pos="2112"/>
          <note len="96" key="66" pan="0" vol="78" pos="2208"/>
          <note len="96" key="54" pan="0" vol="78" pos="2208"/>
          <note len="192" key="66" pan="0" vol="78" pos="2304"/>
          <note len="192" key="54" pan="0" vol="78" pos="2304"/>
          <note len="144" key="61" pan="0" vol="78" pos="2496"/>
          <note len="144" key="49" pan="0" vol="78" pos="2496"/>
          <note len="24" key="61" pan="0" vol="78" pos="2640"/>
          <note len="24" key="49" pan="0" vol="78" pos="2640"/>
          <note len="24" key="63" pan="0" vol="78" pos="2664"/>
          <note len="24" key="51" pan="0" vol="78" pos="2664"/>
          <note len="192" key="64" pan="0" vol="78" pos="2688"/>
          <note len="192" key="52" pan="0" vol="78" pos="2688"/>
          <note len="96" key="64" pan="0" vol="78" pos="2880"/>
          <note len="96" key="52" pan="0" vol="78" pos="2880"/>
          <note len="96" key="68" pan="0" vol="78" pos="2976"/>
          <note len="96" key="56" pan="0" vol="78" pos="2976"/>
          <note len="384" key="73" pan="0" vol="78" pos="3072"/>
          <note len="384" key="61" pan="0" vol="78" pos="3072"/>
          <note len="384" key="73" pan="0" vol="78" pos="3456"/>
          <note len="384" key="61" pan="0" vol="78" pos="3456"/>
        </pattern>
        <pattern muted="0" name="" steps="16" type="1" pos="31872">
          <note len="192" key="56" pan="0" vol="78" pos="0"/>
          <note len="192" key="57" pan="0" vol="78" pos="192"/>
          <note len="192" key="59" pan="0" vol="78" pos="384"/>
          <note len="192" key="54" pan="0" vol="78" pos="576"/>
          <note len="192" key="56" pan="0" vol="78" pos="768"/>
          <note len="192" key="57" pan="0" vol="78" pos="960"/>
          <note len="192" key="59" pan="0" vol="78" pos="1152"/>
          <note len="192" key="63" pan="0" vol="78" pos="1344"/>
          <note len="192" key="61" pan="0" vol="78" pos="1536"/>
          <note len="192" key="61" pan="0" vol="78" pos="1920"/>
          <note len="192" key="64" pan="0" vol="78" pos="2112"/>
          <note len="192" key="62" pan="0" vol="78" pos="2304"/>
          <note len="192" key="61" pan="0" vol="78" pos="2688"/>
          <note len="192" key="66" pan="0" vol="78" pos="2880"/>
          <note len="48" key="61" pan="0" vol="78" pos="3072"/>
          <note len="48" key="49" pan="0" vol="78" pos="3072"/>
          <note len="48" key="61" pan="0" vol="78" pos="3120"/>
          <note len="48" key="49" pan="0" vol="78" pos="3120"/>
          <note len="48" key="61" pan="0" vol="78" pos="3168"/>
          <note len="48" key="49" pan="0" vol="78" pos="3168"/>
          <note len="48" key="64" pan="0" vol="78" pos="3216"/>
          <note len="48" key="52" pan="0" vol="78" pos="3216"/>
          <note len="48" key="63" pan="0" vol="78" pos="3264"/>
          <note len="48" key="51" pan="0" vol="78" pos="3264"/>
          <note len="48" key="63" pan="0" vol="78" pos="3312"/>
          <note len="48" key="51" pan="0" vol="78" pos="3312"/>
          <note len="48" key="63" pan="0" vol="78" pos="3360"/>
          <note len="48" key="51" pan="0" vol="78" pos="3360"/>
          <note len="48" key="68" pan="0" vol="78" pos="3408"/>
          <note len="48" key="56" pan="0" vol="78" pos="3408"/>
          <note len="48" key="68" pan="0" vol="78" pos="3456"/>
          <note len="48" key="56" pan="0" vol="78" pos="3456"/>
          <note len="48" key="68" pan="0" vol="78" pos="3504"/>
          <note len="48" key="56" pan="0" vol="78" pos="3504"/>
          <note len="48" key="68" pan="0" vol="78" pos="3552"/>
          <note len="48" key="56" pan="0" vol="78" pos="3552"/>
          <note len="24" key="66" pan="0" vol="78" pos="3600"/>
          <note len="24" key="54" pan="0" vol="78" pos="3600"/>
          <note len="24" key="64" pan="0" vol="78" pos="3624"/>
          <note len="24" key="52" pan="0" vol="78" pos="3624"/>
          <note len="48" key="63" pan="0" vol="78" pos="3648"/>
          <note len="48" key="51" pan="0" vol="78" pos="3648"/>
          <note len="48" key="64" pan="0" vol="78" pos="3696"/>
          <note len="48" key="52" pan="0" vol="78" pos="3696"/>
          <note len="48" key="59" pan="0" vol="78" pos="3744"/>
          <note len="48" key="47" pan="0" vol="78" pos="3744"/>
          <note len="48" key="56" pan="0" vol="78" pos="3792"/>
          <note len="48" key="44" pan="0" vol="78" pos="3792"/>
          <note len="48" key="57" pan="0" vol="78" pos="3840"/>
          <note len="48" key="45" pan="0" vol="78" pos="3840"/>
          <note len="48" key="57" pan="0" vol="78" pos="3888"/>
          <note len="48" key="45" pan="0" vol="78" pos="3888"/>
          <note len="48" key="57" pan="0" vol="78" pos="3936"/>
          <note len="48" key="45" pan="0" vol="78" pos="3936"/>
          <note len="48" key="64" pan="0" vol="78" pos="3984"/>
          <note len="48" key="52" pan="0" vol="78" pos="3984"/>
          <note len="48" key="63" pan="0" vol="78" pos="4032"/>
          <note len="48" key="51" pan="0" vol="78" pos="4032"/>
          <note len="48" key="63" pan="0" vol="78" pos="4080"/>
          <note len="48" key="51" pan="0" vol="78" pos="4080"/>
          <note len="48" key="63" pan="0" vol="78" pos="4128"/>
          <note len="48" key="51" pan="0" vol="78" pos="4128"/>
          <note len="48" key="66" pan="0" vol="78" pos="4176"/>
          <note len="48" key="54" pan="0" vol="78" pos="4176"/>
          <note len="96" key="64" pan="0" vol="78" pos="4224"/>
          <note len="96" key="52" pan="0" vol="78" pos="4224"/>
          <note len="48" key="68" pan="0" vol="78" pos="4320"/>
          <note len="48" key="56" pan="0" vol="78" pos="4320"/>
          <note len="48" key="64" pan="0" vol="78" pos="4368"/>
          <note len="48" key="52" pan="0" vol="78" pos="4368"/>
          <note len="48" key="66" pan="0" vol="78" pos="4416"/>
          <note len="48" key="54" pan="0" vol="78" pos="4416"/>
          <note len="48" key="71" pan="0" vol="78" pos="4464"/>
          <note len="48" key="59" pan="0" vol="78" pos="4464"/>
          <note len="48" key="68" pan="0" vol="78" pos="4512"/>
          <note len="48" key="56" pan="0" vol="78" pos="4512"/>
          <note len="48" key="75" pan="0" vol="78" pos="4560"/>
          <note len="48" key="63" pan="0" vol="78" pos="4560"/>
        </pattern>
        <pattern muted="0" name="" steps="16" type="1" pos="42624">
          <note len="192" key="61" pan="0" vol="78" pos="0"/>
          <note len="192" key="64" pan="0" vol="78" pos="192"/>
          <note len="192" key="62" pan="0" vol="78" pos="384"/>
          <note len="192" key="66" pan="0" vol="78" pos="576"/>
          <note len="192" key="61" pan="0" vol="78" pos="768"/>
          <note len="192" key="64" pan="0" vol="78" pos="960"/>
          <note len="192" key="62" pan="0" vol="78" pos="1152"/>
          <note len="192" key="66" pan="0" vol="78" pos="1344"/>
        </pattern>
        <pattern muted="0" name="" steps="16" type="1" pos="50304">
          <note len="192" key="61" pan="0" vol="78" pos="0"/>
          <note len="192" key="56" pan="0" vol="78" pos="384"/>
          <note len="192" key="56" pan="0" vol="78" pos="768"/>
          <note len="192" key="68" pan="0" vol="78" pos="1152"/>
          <note len="192" key="69" pan="0" vol="78" pos="1536"/>
          <note len="192" key="69" pan="0" vol="78" pos="1728"/>
          <note len="192" key="68" pan="0" vol="78" pos="1920"/>
          <note len="192" key="68" pan="0" vol="78" pos="2112"/>
          <note len="192" key="66" pan="0" vol="78" pos="2304"/>
          <note len="192" key="66" pan="0" vol="78" pos="2496"/>
          <note len="192" key="73" pan="0" vol="78" pos="2688"/>
          <note len="192" key="72" pan="0" vol="78" pos="2880"/>
        </pattern>
        <pattern muted="0" name="" steps="16" type="1" pos="56448">
          <note len="192" key="61" pan="0" vol="78" pos="0"/>
          <note len="192" key="49" pan="0" vol="78" pos="0"/>
          <note len="192" key="59" pan="0" vol="78" pos="192"/>
          <note len="192" key="47" pan="0" vol="78" pos="192"/>
          <note len="288" key="56" pan="0" vol="78" pos="384"/>
          <note len="288" key="44" pan="0" vol="78" pos="384"/>
          <note len="96" key="56" pan="0" vol="78" pos="672"/>
          <note len="96" key="44" pan="0" vol="78" pos="672"/>
          <note len="192" key="68" pan="0" vol="78" pos="768"/>
          <note len="192" key="56" pan="0" vol="78" pos="768"/>
          <note len="192" key="66" pan="0" vol="78" pos="960"/>
          <note len="192" key="54" pan="0" vol="78" pos="960"/>
          <note len="384" key="61" pan="0" vol="78" pos="1152"/>
          <note len="384" key="49" pan="0" vol="78" pos="1152"/>
          <note len="192" key="61" pan="0" vol="78" pos="1536"/>
          <note len="192" key="49" pan="0" vol="78" pos="1536"/>
          <note len="192" key="63" pan="0" vol="78" pos="1728"/>
          <note len="192" key="51" pan="0" vol="78" pos="1728"/>
          <note len="192" key="64" pan="0" vol="78" pos="1920"/>
          <note len="192" key="52" pan="0" vol="78" pos="1920"/>
          <note len="96" key="68" pan="0" vol="78" pos="2112"/>
          <note len="96" key="56" pan="0" vol="78" pos="2112"/>
          <note len="96" key="66" pan="0" vol="78" pos="2208"/>
          <note len="96" key="54" pan="0" vol="78" pos="2208"/>
          <note len="192" key="66" pan="0" vol="78" pos="2304"/>
          <note len="192" key="54" pan="0" vol="78" pos="2304"/>
          <note len="144" key="61" pan="0" vol="78" pos="2496"/>
          <note len="144" key="49" pan="0" vol="78" pos="2496"/>
          <note len="24" key="61" pan="0" vol="78" pos="2640"/>
          <note len="24" key="49" pan="0" vol="78" pos="2640"/>
          <note len="24" key="63" pan="0" vol="78" pos="2664"/>
          <note len="24" key="51" pan="0" vol="78" pos="2664"/>
          <note len="192" key="64" pan="0" vol="78" pos="2688"/>
          <note len="192" key="52" pan="0" vol="78" pos="2688"/>
          <note len="96" key="64" pan="0" vol="78" pos="2880"/>
          <note len="96" key="52" pan="0" vol="78" pos="2880"/>
          <note len="96" key="68" pan="0" vol="78" pos="2976"/>
          <note len="96" key="56" pan="0" vol="78" pos="2976"/>
          <note len="384" key="73" pan="0" vol="78" pos="3072"/>
          <note len="384" key="61" pan="0" vol="78" pos="3072"/>
          <note len="384" key="73" pan="0" vol="78" pos="3456"/>
          <note len="384" key="61" pan="0" vol="78" pos="3456"/>
        </pattern>
        <pattern muted="0" name="" steps="16" type="1" pos="63360">
          <note len="192" key="56" pan="0" vol="78" pos="0"/>
          <note len="192" key="57" pan="0" vol="78" pos="192"/>
          <note len="192" key="59" pan="0" vol="78" pos="384"/>
          <note len="192" key="54" pan="0" vol="78" pos="576"/>
          <note len="192" key="56" pan="0" vol="78" pos="768"/>
          <note len="192" key="57" pan="0" vol="78" pos="960"/>
          <note len="192" key="59" pan="0" vol="78" pos="1152"/>
          <note len="192" key="63" pan="0" vol="78" pos="1344"/>
          <note len="192" key="61" pan="0" vol="78" pos="1536"/>
          <note len="192" key="61" pan="0" vol="78" pos="1920"/>
          <note len="192" key="64" pan="0" vol="78" pos="2112"/>
          <note len="192" key="62" pan="0" vol="78" pos="2304"/>
          <note len="192" key="61" pan="0" vol="78" pos="2688"/>
          <note len="192" key="66" pan="0" vol="78" pos="2880"/>
          <note len="48" key="61" pan="0" vol="78" pos="3072"/>
          <note len="48" key="49" pan="0" vol="78" pos="3072"/>
          <note len="48" key="61" pan="0" vol="78" pos="3120"/>
          <note len="48" key="49" pan="0" vol="78" pos="3120"/>
          <note len="48" key="61" pan="0" vol="78" pos="3168"/>
          <note len="48" key="49" pan="0" vol="78" pos="3168"/>
          <note len="48" key="64" pan="0" vol="78" pos="3216"/>
          <note len="48" key="52" pan="0" vol="78" pos="3216"/>
          <note len="48" key="63" pan="0" vol="78" pos="3264"/>
          <note len="48" key="51" pan="0" vol="78" pos="3264"/>
          <note len="48" key="63" pan="0" vol="78" pos="3312"/>
          <note len="48" key="51" pan="0" vol="78" pos="3312"/>
          <note len="48" key="63" pan="0" vol="78" pos="3360"/>
          <note len="48" key="51" pan="0" vol="78" pos="3360"/>
          <note len="48" key="68" pan="0" vol="78" pos="3408"/>
          <note len="48" key="56" pan="0" vol="78" pos="3408"/>
          <note len="48" key="68" pan="0" vol="78" pos="3456"/>
          <note len="48" key="56" pan="0" vol="78" pos="3456"/>
          <note len="48" key="68" pan="0" vol="78" pos="3504"/>
          <note len="48" key="56" pan="0" vol="78" pos="3504"/>
          <note len="48" key="68" pan="0" vol="78" pos="3552"/>
          <note len="48" key="56" pan="0" vol="78" pos="3552"/>
          <note len="24" key="66" pan="0" vol="78" pos="3600"/>
          <note len="24" key="54" pan="0" vol="78" pos="3600"/>
          <note len="24" key="64" pan="0" vol="78" pos="3624"/>
          <note len="24" key="52" pan="0" vol="78" pos="3624"/>
          <note len="48" key="63" pan="0" vol="78" pos="3648"/>
          <note len="48" key="51" pan="0" vol="78" pos="3648"/>
          <note len="48" key="64" pan="0" vol="78" pos="3696"/>
          <note len="48" key="52" pan="0" vol="78" pos="3696"/>
          <note len="48" key="59" pan="0" vol="78" pos="3744"/>
          <note len="48" key="47" pan="0" vol="78" pos="3744"/>
          <note len="48" key="56" pan="0" vol="78" pos="3792"/>
          <note len="48" key="44" pan="0" vol="78" pos="3792"/>
          <note len="48" key="57" pan="0" vol="78" pos="3840"/>
          <note len="48" key="45" pan="0" vol="78" pos="3840"/>
          <note len="48" key="57" pan="0" vol="78" pos="3888"/>
          <note len="48" key="45" pan="0" vol="78" pos="3888"/>
          <note len="48" key="57" pan="0" vol="78" pos="3936"/>
          <note len="48" key="45" pan="0" vol="78" pos="3936"/>
          <note len="48" key="64" pan="0" vol="78" pos="3984"/>
          <note len="48" key="52" pan="0" vol="78" pos="3984"/>
          <note len="48" key="63" pan="0" vol="78" pos="4032"/>
          <note len="48" key="51" pan="0" vol="78" pos="4032"/>
          <note len="48" key="63" pan="0" vol="78" pos="4080"/>
          <note len="48" key="51" pan="0" vol="78" pos="4080"/>
          <note len="48" key="63" pan="0" vol="78" pos="4128"/>
          <note len="48" key="51" pan="0" vol="78" pos="4128"/>
          <note len="48" key="66" pan="0" vol="78" pos="4176"/>
          <note len="48" key="54" pan="0" vol="78" pos="4176"/>
          <note len="96" key="64" pan="0" vol="78" pos="4224"/>
          <note len="96" key="52" pan="0" vol="78" pos="4224"/>
          <note len="48" key="68" pan="0" vol="78" pos="4320"/>
          <note len="48" key="56" pan="0" vol="78" pos="4320"/>
          <note len="48" key="64" pan="0" vol="78" pos="4368"/>
          <note len="48" key="52" pan="0" vol="78" pos="4368"/>
          <note len="48" key="66" pan="0" vol="78" pos="4416"/>
          <note len="48" key="54" pan="0" vol="78" pos="4416"/>
          <note len="48" key="71" pan="0" vol="78" pos="4464"/>
          <note len="48" key="59" pan="0" vol="78" pos="4464"/>
          <note len="48" key="68" pan="0" vol="78" pos="4512"/>
          <note len="48" key="56" pan="0" vol="78" pos="4512"/>
          <note len="48" key="75" pan="0" vol="78" pos="4560"/>
          <note len="48" key="63" pan="0" vol="78" pos="4560"/>
          <note len="384" key="73" pan="0" vol="78" pos="4608"/>
          <note len="384" key="61" pan="0" vol="78" pos="4608"/>
          <note len="384" key="73" pan="0" vol="78" pos="4992"/>
          <note len="384" key="61" pan="0" vol="78" pos="4992"/>
          <note len="48" key="73" pan="0" vol="78" pos="5376"/>
          <note len="48" key="61" pan="0" vol="78" pos="5376"/>
        </pattern>
        <pattern muted="0" name="" steps="16" type="1" pos="39744">
          <note len="144" key="61" pan="0" vol="136" pos="0"/>
          <note len="48" key="49" pan="0" vol="136" pos="0"/>
          <note len="48" key="52" pan="0" vol="136" pos="48"/>
          <note len="48" key="56" pan="0" vol="136" pos="96"/>
          <note len="48" key="64" pan="0" vol="136" pos="144"/>
          <note len="48" key="61" pan="0" vol="136" pos="144"/>
          <note len="144" key="63" pan="0" vol="136" pos="192"/>
          <note len="48" key="59" pan="0" vol="136" pos="192"/>
          <note len="48" key="54" pan="0" vol="136" pos="240"/>
          <note len="48" key="59" pan="0" vol="136" pos="288"/>
          <note len="48" key="68" pan="0" vol="136" pos="336"/>
          <note len="48" key="63" pan="0" vol="136" pos="336"/>
          <note len="144" key="68" pan="0" vol="136" pos="384"/>
          <note len="48" key="64" pan="0" vol="136" pos="384"/>
          <note len="48" key="57" pan="0" vol="136" pos="432"/>
          <note len="48" key="61" pan="0" vol="136" pos="480"/>
          <note len="24" key="66" pan="0" vol="136" pos="528"/>
          <note len="48" key="52" pan="0" vol="136" pos="528"/>
          <note len="24" key="64" pan="0" vol="136" pos="552"/>
          <note len="48" key="63" pan="0" vol="136" pos="576"/>
          <note len="48" key="54" pan="0" vol="136" pos="576"/>
          <note len="48" key="64" pan="0" vol="136" pos="624"/>
          <note len="48" key="51" pan="0" vol="136" pos="624"/>
          <note len="48" key="59" pan="0" vol="136" pos="672"/>
          <note len="48" key="54" pan="0" vol="136" pos="672"/>
          <note len="48" key="56" pan="0" vol="136" pos="720"/>
          <note len="48" key="47" pan="0" vol="136" pos="720"/>
          <note len="96" key="57" pan="0" vol="136" pos="768"/>
          <note len="48" key="49" pan="0" vol="136" pos="768"/>
          <note len="48" key="54" pan="0" vol="136" pos="816"/>
          <note len="48" key="61" pan="0" vol="136" pos="864"/>
          <note len="48" key="57" pan="0" vol="136" pos="864"/>
          <note len="48" key="64" pan="0" vol="136" pos="912"/>
          <note len="48" key="54" pan="0" vol="136" pos="912"/>
          <note len="96" key="64" pan="0" vol="136" pos="960"/>
          <note len="48" key="56" pan="0" vol="136" pos="960"/>
          <note len="48" key="59" pan="0" vol="136" pos="1008"/>
          <note len="48" key="63" pan="0" vol="136" pos="1056"/>
          <note len="48" key="56" pan="0" vol="136" pos="1056"/>
          <note len="48" key="64" pan="0" vol="136" pos="1104"/>
          <note len="48" key="51" pan="0" vol="136" pos="1104"/>
          <note len="72" key="71" pan="0" vol="136" pos="1152"/>
          <note len="48" key="57" pan="0" vol="136" pos="1152"/>
        </pattern>
        <pattern muted="0" name="" steps="16" type="1" pos="47232">
          <note len="120" key="63" pan="0" vol="78" pos="0"/>
          <note len="24" key="0" pan="0" vol="78" pos="0"/>
          <note len="24" key="1" pan="0" vol="78" pos="96"/>
          <note len="24" key="58" pan="0" vol="78" pos="120"/>
          <note len="24" key="0" pan="0" vol="78" pos="132"/>
          <note len="24" key="66" pan="0" vol="78" pos="144"/>
          <note len="24" key="58" pan="0" vol="78" pos="168"/>
          <note len="24" key="1" pan="0" vol="78" pos="168"/>
          <note len="120" key="65" pan="0" vol="78" pos="192"/>
          <note len="24" key="0" pan="0" vol="78" pos="192"/>
          <note len="12" key="1" pan="0" vol="78" pos="300"/>
          <note len="12" key="65" pan="0" vol="78" pos="312"/>
          <note len="12" key="66" pan="0" vol="78" pos="324"/>
          <note len="12" key="70" pan="0" vol="78" pos="336"/>
          <note len="12" key="0" pan="0" vol="78" pos="336"/>
          <note len="12" key="66" pan="0" vol="78" pos="348"/>
          <note len="12" key="65" pan="0" vol="78" pos="360"/>
          <note len="12" key="1" pan="0" vol="78" pos="360"/>
          <note len="12" key="66" pan="0" vol="78" pos="372"/>
          <note len="144" key="70" pan="0" vol="78" pos="384"/>
          <note len="12" key="0" pan="0" vol="78" pos="384"/>
          <note len="24" key="68" pan="0" vol="78" pos="528"/>
          <note len="24" key="66" pan="0" vol="78" pos="552"/>
          <note len="48" key="65" pan="0" vol="78" pos="576"/>
          <note len="48" key="66" pan="0" vol="78" pos="624"/>
          <note len="12" key="0" pan="0" vol="78" pos="660"/>
          <note len="12" key="61" pan="0" vol="78" pos="672"/>
          <note len="12" key="1" pan="0" vol="78" pos="672"/>
          <note len="12" key="61" pan="0" vol="78" pos="684"/>
          <note len="12" key="61" pan="0" vol="78" pos="696"/>
          <note len="12" key="61" pan="0" vol="78" pos="708"/>
          <note len="12" key="58" pan="0" vol="78" pos="720"/>
          <note len="12" key="0" pan="0" vol="78" pos="720"/>
          <note len="12" key="54" pan="0" vol="78" pos="732"/>
          <note len="12" key="1" pan="0" vol="78" pos="732"/>
          <note len="12" key="56" pan="0" vol="78" pos="744"/>
          <note len="12" key="58" pan="0" vol="78" pos="756"/>
          <note len="96" key="59" pan="0" vol="78" pos="768"/>
          <note len="12" key="0" pan="0" vol="78" pos="768"/>
          <note len="48" key="63" pan="0" vol="78" pos="864"/>
          <note len="48" key="66" pan="0" vol="78" pos="912"/>
          <note len="96" key="66" pan="0" vol="78" pos="960"/>
          <note len="12" key="65" pan="0" vol="78" pos="1056"/>
          <note len="12" key="0" pan="0" vol="78" pos="1056"/>
          <note len="12" key="58" pan="0" vol="78" pos="1068"/>
          <note len="12" key="2" pan="0" vol="78" pos="1068"/>
          <note len="12" key="58" pan="0" vol="78" pos="1080"/>
          <note len="12" key="1" pan="0" vol="78" pos="1080"/>
          <note len="12" key="58" pan="0" vol="78" pos="1092"/>
          <note len="12" key="66" pan="0" vol="78" pos="1104"/>
          <note len="12" key="0" pan="0" vol="78" pos="1104"/>
          <note len="12" key="63" pan="0" vol="78" pos="1116"/>
          <note len="12" key="2" pan="0" vol="78" pos="1116"/>
          <note len="12" key="65" pan="0" vol="78" pos="1128"/>
          <note len="12" key="1" pan="0" vol="78" pos="1128"/>
          <note len="12" key="66" pan="0" vol="78" pos="1140"/>
          <note len="48" key="73" pan="0" vol="78" pos="1152"/>
          <note len="12" key="0" pan="0" vol="78" pos="1152"/>
          <note len="12" key="71" pan="0" vol="78" pos="1200"/>
          <note len="12" key="73" pan="0" vol="78" pos="1212"/>
          <note len="48" key="71" pan="0" vol="78" pos="1224"/>
          <note len="12" key="70" pan="0" vol="78" pos="1272"/>
          <note len="12" key="0" pan="0" vol="78" pos="1272"/>
          <note len="12" key="71" pan="0" vol="78" pos="1284"/>
          <note len="12" key="70" pan="0" vol="78" pos="1296"/>
          <note len="12" key="1" pan="0" vol="78" pos="1296"/>
          <note len="12" key="68" pan="0" vol="78" pos="1308"/>
          <note len="12" key="66" pan="0" vol="78" pos="1320"/>
          <note len="12" key="70" pan="0" vol="78" pos="1332"/>
          <note len="72" key="68" pan="0" vol="78" pos="1344"/>
          <note len="12" key="0" pan="0" vol="78" pos="1344"/>
          <note len="12" key="66" pan="0" vol="78" pos="1416"/>
          <note len="12" key="1" pan="0" vol="78" pos="1416"/>
          <note len="12" key="68" pan="0" vol="78" pos="1428"/>
          <note len="12" key="70" pan="0" vol="78" pos="1440"/>
          <note len="12" key="0" pan="0" vol="78" pos="1440"/>
          <note len="12" key="71" pan="0" vol="78" pos="1452"/>
          <note len="12" key="70" pan="0" vol="78" pos="1464"/>
          <note len="12" key="1" pan="0" vol="78" pos="1464"/>
          <note len="12" key="68" pan="0" vol="78" pos="1476"/>
          <note len="12" key="70" pan="0" vol="78" pos="1488"/>
          <note len="12" key="0" pan="0" vol="78" pos="1488"/>
          <note len="12" key="68" pan="0" vol="78" pos="1500"/>
          <note len="12" key="66" pan="0" vol="78" pos="1512"/>
          <note len="12" key="65" pan="0" vol="78" pos="1524"/>
          <note len="48" key="66" pan="0" vol="78" pos="1536"/>
          <note len="12" key="0" pan="0" vol="78" pos="1536"/>
          <note len="12" key="1" pan="0" vol="78" pos="1572"/>
          <note len="12" key="58" pan="0" vol="78" pos="1584"/>
          <note len="12" key="58" pan="0" vol="78" pos="1596"/>
          <note len="48" key="65" pan="0" vol="78" pos="1608"/>
          <note len="12" key="0" pan="0" vol="78" pos="1608"/>
          <note len="12" key="1" pan="0" vol="78" pos="1644"/>
          <note len="12" key="58" pan="0" vol="78" pos="1656"/>
          <note len="12" key="58" pan="0" vol="78" pos="1668"/>
          <note len="24" key="66" pan="0" vol="78" pos="1680"/>
          <note len="12" key="0" pan="0" vol="78" pos="1680"/>
          <note len="12" key="1" pan="0" vol="78" pos="1692"/>
          <note len="12" key="58" pan="0" vol="78" pos="1704"/>
          <note len="12" key="58" pan="0" vol="78" pos="1716"/>
          <note len="144" key="70" pan="0" vol="78" pos="1728"/>
          <note len="12" key="0" pan="0" vol="78" pos="1728"/>
          <note len="48" key="77" pan="0" vol="78" pos="1872"/>
          <note len="12" key="0" pan="0" vol="78" pos="1908"/>
          <note len="12" key="75" pan="0" vol="78" pos="1920"/>
          <note len="12" key="77" pan="0" vol="78" pos="1932"/>
          <note len="12" key="2" pan="0" vol="78" pos="1932"/>
          <note len="216" key="75" pan="0" vol="78" pos="1944"/>
          <note len="12" key="0" pan="0" vol="78" pos="2100"/>
          <note len="48" key="78" pan="0" vol="78" pos="2160"/>
          <note len="24" key="80" pan="0" vol="78" pos="2208"/>
          <note len="12" key="78" pan="0" vol="78" pos="2232"/>
          <note len="12" key="80" pan="0" vol="78" pos="2244"/>
          <note len="24" key="82" pan="0" vol="78" pos="2256"/>
          <note len="12" key="80" pan="0" vol="78" pos="2280"/>
          <note len="12" key="82" pan="0" vol="78" pos="2292"/>
          <note len="72" key="83" pan="0" vol="78" pos="2304"/>
          <note len="72" key="82" pan="0" vol="78" pos="2376"/>
          <note len="48" key="80" pan="0" vol="78" pos="2448"/>
          <note len="12" key="1" pan="0" vol="78" pos="2484"/>
          <note len="12" key="78" pan="0" vol="78" pos="2496"/>
          <note len="12" key="78" pan="0" vol="78" pos="2508"/>
          <note len="12" key="78" pan="0" vol="78" pos="2520"/>
          <note len="12" key="78" pan="0" vol="78" pos="2532"/>
          <note len="12" key="75" pan="0" vol="78" pos="2544"/>
          <note len="12" key="75" pan="0" vol="78" pos="2556"/>
          <note len="12" key="75" pan="0" vol="78" pos="2568"/>
          <note len="12" key="75" pan="0" vol="78" pos="2580"/>
          <note len="12" key="78" pan="0" vol="78" pos="2592"/>
          <note len="12" key="0" pan="0" vol="78" pos="2592"/>
          <note len="12" key="78" pan="0" vol="78" pos="2604"/>
          <note len="12" key="78" pan="0" vol="78" pos="2616"/>
          <note len="12" key="78" pan="0" vol="78" pos="2628"/>
          <note len="48" key="87" pan="0" vol="78" pos="2640"/>
          <note len="192" key="85" pan="0" vol="78" pos="2688"/>
        </pattern>
      </track>
      <track muted="1" name="Orchestra Soundfont 2 COMBO" type="0" solo="0" mutedBeforeSolo="0">
        <instrumenttrack usemasterpitch="1" pitchrange="2" pitch="0" pan="0" basenote="57" vol="58.4" fxch="0">
          <instrument name="sf2player">
            <sf2player gain="5" chorusLevel="2" reverbRoomSize="0.2" reverbWidth="0.5" reverbDamping="0" reverbLevel="0.9" chorusSpeed="0.3" chorusOn="0" chorusDepth="8" src="/home/pass/samples/soundfonts/Orchestra Soundfont 2 COMBO.sf2" chorusNum="3" patch="52" bank="0" reverbOn="0">
              <key/>
            </sf2player>
          </instrument>
          <eldata fcut="14000" fwet="0" fres="0.5" ftype="0">
            <elvol rel="0.1" lspd_syncmode="0" pdel="0" lspd_numerator="4" lpdel="0" amt="0" ctlenvamt="0" lshp="0" userwavefile="" dec="0.5" lspd_denominator="4" sustain="0.5" lspd="0.1" latt="0" hold="0.5" att="0" x100="0" lamt="0"/>
            <elcut rel="0.1" lspd_syncmode="0" pdel="0" lspd_numerator="4" lpdel="0" amt="0" ctlenvamt="0" lshp="0" userwavefile="" dec="0.5" lspd_denominator="4" sustain="0.5" lspd="0.1" latt="0" hold="0.5" att="0" x100="0" lamt="0"/>
            <elres rel="0.1" lspd_syncmode="0" pdel="0" lspd_numerator="4" lpdel="0" amt="0" ctlenvamt="0" lshp="0" userwavefile="" dec="0.5" lspd_denominator="4" sustain="0.5" lspd="0.1" latt="0" hold="0.5" att="0" x100="0" lamt="0"/>
          </eldata>
          <chordcreator chord="0" chordrange="1" chord-enabled="0"/>
          <arpeggiator arptime_denominator="4" arptime="200" arp-enabled="0" arpcycle="0" arpgate="100" arp="0" arpmiss="0" arpdir="0" arprange="1" arpmode="0" arpskip="0" arptime_syncmode="0" arptime_numerator="4"/>
          <midiport inputcontroller="0" fixedinputvelocity="-1" readable="0" outputcontroller="0" fixedoutputnote="-1" outputprogram="1" writable="0" fixedoutputvelocity="-1" basevelocity="63" outputchannel="1" inputchannel="0"/>
          <fxchain enabled="0" numofeffects="0"/>
        </instrumenttrack>
        <pattern muted="0" name="" steps="16" type="1" pos="8064">
          <note len="192" key="64" pan="0" vol="78" pos="0"/>
          <note len="192" key="61" pan="0" vol="78" pos="0"/>
          <note len="192" key="63" pan="0" vol="78" pos="192"/>
          <note len="192" key="56" pan="0" vol="78" pos="192"/>
          <note len="192" key="64" pan="0" vol="78" pos="384"/>
          <note len="192" key="57" pan="0" vol="78" pos="384"/>
          <note len="192" key="66" pan="0" vol="78" pos="576"/>
          <note len="192" key="59" pan="0" vol="78" pos="576"/>
          <note len="192" key="64" pan="0" vol="78" pos="768"/>
          <note len="192" key="61" pan="0" vol="78" pos="768"/>
          <note len="192" key="66" pan="0" vol="78" pos="960"/>
          <note len="192" key="59" pan="0" vol="78" pos="960"/>
          <note len="192" key="64" pan="0" vol="78" pos="1152"/>
          <note len="192" key="61" pan="0" vol="78" pos="1152"/>
          <note len="192" key="66" pan="0" vol="78" pos="1344"/>
          <note len="192" key="56" pan="0" vol="78" pos="1344"/>
          <note len="192" key="64" pan="0" vol="78" pos="1536"/>
          <note len="192" key="61" pan="0" vol="78" pos="1536"/>
          <note len="192" key="63" pan="0" vol="78" pos="1728"/>
          <note len="192" key="56" pan="0" vol="78" pos="1728"/>
          <note len="192" key="64" pan="0" vol="78" pos="1920"/>
          <note len="192" key="58" pan="0" vol="78" pos="1920"/>
          <note len="192" key="66" pan="0" vol="78" pos="2112"/>
          <note len="192" key="58" pan="0" vol="78" pos="2112"/>
          <note len="192" key="64" pan="0" vol="78" pos="2304"/>
          <note len="192" key="61" pan="0" vol="78" pos="2304"/>
          <note len="192" key="66" pan="0" vol="78" pos="2496"/>
          <note len="192" key="59" pan="0" vol="78" pos="2496"/>
          <note len="192" key="64" pan="0" vol="78" pos="2688"/>
          <note len="192" key="61" pan="0" vol="78" pos="2688"/>
          <note len="192" key="59" pan="0" vol="78" pos="2880"/>
          <note len="192" key="56" pan="0" vol="78" pos="2880"/>
        </pattern>
        <pattern muted="0" name="" steps="16" type="1" pos="15744">
          <note len="192" key="64" pan="0" vol="78" pos="0"/>
          <note len="192" key="61" pan="0" vol="78" pos="0"/>
          <note len="192" key="63" pan="0" vol="78" pos="192"/>
          <note len="192" key="56" pan="0" vol="78" pos="192"/>
          <note len="192" key="64" pan="0" vol="78" pos="384"/>
          <note len="192" key="57" pan="0" vol="78" pos="384"/>
          <note len="192" key="66" pan="0" vol="78" pos="576"/>
          <note len="192" key="59" pan="0" vol="78" pos="576"/>
          <note len="192" key="64" pan="0" vol="78" pos="768"/>
          <note len="192" key="61" pan="0" vol="78" pos="768"/>
          <note len="192" key="66" pan="0" vol="78" pos="960"/>
          <note len="192" key="59" pan="0" vol="78" pos="960"/>
          <note len="192" key="64" pan="0" vol="78" pos="1152"/>
          <note len="192" key="61" pan="0" vol="78" pos="1152"/>
          <note len="192" key="66" pan="0" vol="78" pos="1344"/>
          <note len="192" key="56" pan="0" vol="78" pos="1344"/>
          <note len="192" key="64" pan="0" vol="78" pos="1536"/>
          <note len="192" key="61" pan="0" vol="78" pos="1536"/>
          <note len="192" key="63" pan="0" vol="78" pos="1728"/>
          <note len="192" key="56" pan="0" vol="78" pos="1728"/>
          <note len="192" key="61" pan="0" vol="78" pos="1920"/>
          <note len="192" key="58" pan="0" vol="78" pos="1920"/>
          <note len="192" key="66" pan="0" vol="78" pos="2112"/>
          <note len="192" key="58" pan="0" vol="78" pos="2112"/>
          <note len="192" key="62" pan="0" vol="78" pos="2304"/>
          <note len="192" key="57" pan="0" vol="78" pos="2304"/>
          <note len="192" key="64" pan="0" vol="78" pos="2496"/>
          <note len="192" key="57" pan="0" vol="78" pos="2496"/>
          <note len="192" key="63" pan="0" vol="78" pos="2688"/>
          <note len="192" key="59" pan="0" vol="78" pos="2688"/>
          <note len="192" key="61" pan="0" vol="78" pos="6144"/>
          <note len="192" key="59" pan="0" vol="78" pos="6336"/>
          <note len="384" key="56" pan="0" vol="78" pos="6528"/>
          <note len="192" key="56" pan="0" vol="78" pos="6912"/>
          <note len="192" key="54" pan="0" vol="78" pos="7104"/>
          <note len="384" key="52" pan="0" vol="78" pos="7296"/>
        </pattern>
        <pattern muted="0" name="" steps="16" type="1" pos="24000">
          <note len="192" key="64" pan="0" vol="78" pos="0"/>
          <note len="384" key="61" pan="0" vol="78" pos="192"/>
          <note len="384" key="61" pan="0" vol="78" pos="576"/>
        </pattern>
        <pattern muted="0" name="" steps="16" type="1" pos="47232">
          <note len="192" key="64" pan="0" vol="78" pos="0"/>
          <note len="192" key="61" pan="0" vol="78" pos="0"/>
          <note len="192" key="63" pan="0" vol="78" pos="192"/>
          <note len="192" key="56" pan="0" vol="78" pos="192"/>
          <note len="192" key="64" pan="0" vol="78" pos="384"/>
          <note len="192" key="57" pan="0" vol="78" pos="384"/>
          <note len="192" key="66" pan="0" vol="78" pos="576"/>
          <note len="192" key="59" pan="0" vol="78" pos="576"/>
          <note len="192" key="64" pan="0" vol="78" pos="768"/>
          <note len="192" key="61" pan="0" vol="78" pos="768"/>
          <note len="192" key="66" pan="0" vol="78" pos="960"/>
          <note len="192" key="59" pan="0" vol="78" pos="960"/>
          <note len="192" key="64" pan="0" vol="78" pos="1152"/>
          <note len="192" key="61" pan="0" vol="78" pos="1152"/>
          <note len="192" key="66" pan="0" vol="78" pos="1344"/>
          <note len="192" key="56" pan="0" vol="78" pos="1344"/>
          <note len="192" key="64" pan="0" vol="78" pos="1536"/>
          <note len="192" key="61" pan="0" vol="78" pos="1536"/>
          <note len="192" key="63" pan="0" vol="78" pos="1728"/>
          <note len="192" key="56" pan="0" vol="78" pos="1728"/>
          <note len="192" key="64" pan="0" vol="78" pos="1920"/>
          <note len="192" key="58" pan="0" vol="78" pos="1920"/>
          <note len="192" key="66" pan="0" vol="78" pos="2112"/>
          <note len="192" key="58" pan="0" vol="78" pos="2112"/>
          <note len="192" key="64" pan="0" vol="78" pos="2304"/>
          <note len="192" key="61" pan="0" vol="78" pos="2304"/>
          <note len="192" key="66" pan="0" vol="78" pos="2496"/>
          <note len="192" key="59" pan="0" vol="78" pos="2496"/>
          <note len="192" key="64" pan="0" vol="78" pos="2688"/>
          <note len="192" key="61" pan="0" vol="78" pos="2688"/>
          <note len="384" key="59" pan="0" vol="78" pos="3072"/>
          <note len="384" key="63" pan="0" vol="78" pos="3456"/>
          <note len="384" key="66" pan="0" vol="78" pos="3840"/>
          <note len="384" key="66" pan="0" vol="78" pos="4224"/>
          <note len="384" key="59" pan="0" vol="78" pos="4608"/>
          <note len="384" key="63" pan="0" vol="78" pos="4992"/>
          <note len="384" key="66" pan="0" vol="78" pos="5376"/>
          <note len="384" key="66" pan="0" vol="78" pos="5760"/>
          <note len="192" key="61" pan="0" vol="78" pos="6144"/>
          <note len="192" key="59" pan="0" vol="78" pos="6336"/>
          <note len="384" key="56" pan="0" vol="78" pos="6528"/>
          <note len="192" key="56" pan="0" vol="78" pos="6912"/>
          <note len="192" key="54" pan="0" vol="78" pos="7104"/>
          <note len="384" key="52" pan="0" vol="78" pos="7296"/>
        </pattern>
        <pattern muted="0" name="" steps="16" type="1" pos="55488">
          <note len="192" key="64" pan="0" vol="78" pos="0"/>
          <note len="384" key="61" pan="0" vol="78" pos="192"/>
          <note len="384" key="61" pan="0" vol="78" pos="576"/>
          <note len="192" key="61" pan="0" vol="78" pos="960"/>
          <note len="192" key="59" pan="0" vol="78" pos="1152"/>
          <note len="384" key="56" pan="0" vol="78" pos="1344"/>
          <note len="192" key="56" pan="0" vol="78" pos="1728"/>
          <note len="192" key="54" pan="0" vol="78" pos="1920"/>
          <note len="384" key="52" pan="0" vol="78" pos="2112"/>
        </pattern>
        <pattern muted="0" name="" steps="16" type="1" pos="58560">
          <note len="192" key="64" pan="0" vol="78" pos="0"/>
          <note len="384" key="61" pan="0" vol="78" pos="192"/>
          <note len="384" key="61" pan="0" vol="78" pos="576"/>
          <note len="384" key="68" pan="0" vol="78" pos="960"/>
          <note len="384" key="68" pan="0" vol="78" pos="1344"/>
        </pattern>
        <pattern muted="0" name="" steps="16" type="1" pos="66432">
          <note len="192" key="64" pan="0" vol="78" pos="0"/>
          <note len="192" key="61" pan="0" vol="78" pos="0"/>
          <note len="192" key="66" pan="0" vol="78" pos="192"/>
          <note len="192" key="63" pan="0" vol="78" pos="192"/>
          <note len="192" key="64" pan="0" vol="78" pos="384"/>
          <note len="192" key="61" pan="0" vol="78" pos="384"/>
          <note len="192" key="66" pan="0" vol="78" pos="576"/>
          <note len="192" key="63" pan="0" vol="78" pos="576"/>
          <note len="192" key="66" pan="0" vol="78" pos="768"/>
          <note len="192" key="63" pan="0" vol="78" pos="768"/>
          <note len="192" key="66" pan="0" vol="78" pos="960"/>
          <note len="192" key="63" pan="0" vol="78" pos="960"/>
          <note len="192" key="64" pan="0" vol="78" pos="1152"/>
          <note len="192" key="61" pan="0" vol="78" pos="1152"/>
          <note len="192" key="66" pan="0" vol="78" pos="1344"/>
          <note len="192" key="63" pan="0" vol="78" pos="1344"/>
          <note len="384" key="73" pan="0" vol="78" pos="1536"/>
          <note len="384" key="61" pan="0" vol="78" pos="1536"/>
          <note len="384" key="73" pan="0" vol="78" pos="1920"/>
          <note len="384" key="61" pan="0" vol="78" pos="1920"/>
          <note len="48" key="73" pan="0" vol="78" pos="2304"/>
          <note len="48" key="61" pan="0" vol="78" pos="2304"/>
        </pattern>
        <pattern muted="0" name="" steps="16" type="1" pos="24960">
          <note len="192" key="61" pan="0" vol="70" pos="0"/>
          <note len="192" key="59" pan="0" vol="70" pos="192"/>
          <note len="288" key="56" pan="0" vol="70" pos="384"/>
          <note len="96" key="56" pan="0" vol="70" pos="672"/>
          <note len="192" key="68" pan="0" vol="70" pos="768"/>
          <note len="192" key="66" pan="0" vol="70" pos="960"/>
          <note len="384" key="61" pan="0" vol="70" pos="1152"/>
          <note len="192" key="61" pan="0" vol="70" pos="1536"/>
          <note len="192" key="63" pan="0" vol="70" pos="1728"/>
          <note len="192" key="64" pan="0" vol="70" pos="1920"/>
          <note len="96" key="68" pan="0" vol="70" pos="2112"/>
          <note len="96" key="66" pan="0" vol="70" pos="2208"/>
          <note len="192" key="66" pan="0" vol="70" pos="2304"/>
          <note len="144" key="61" pan="0" vol="70" pos="2496"/>
          <note len="24" key="61" pan="0" vol="70" pos="2640"/>
          <note len="24" key="63" pan="0" vol="70" pos="2664"/>
          <note len="192" key="64" pan="0" vol="70" pos="2688"/>
          <note len="96" key="64" pan="0" vol="70" pos="2880"/>
          <note len="96" key="68" pan="0" vol="70" pos="2976"/>
          <note len="384" key="73" pan="0" vol="70" pos="3072"/>
          <note len="384" key="73" pan="0" vol="70" pos="3456"/>
        </pattern>
        <pattern muted="0" name="" steps="16" type="1" pos="39744">
          <note len="24" key="86" pan="0" vol="78" pos="0"/>
          <note len="48" key="0" pan="0" vol="78" pos="0"/>
          <note len="24" key="81" pan="0" vol="78" pos="24"/>
          <note len="24" key="76" pan="0" vol="78" pos="48"/>
          <note len="24" key="83" pan="0" vol="78" pos="72"/>
          <note len="24" key="85" pan="0" vol="78" pos="96"/>
          <note len="24" key="86" pan="0" vol="78" pos="120"/>
          <note len="24" key="85" pan="0" vol="78" pos="144"/>
          <note len="24" key="83" pan="0" vol="78" pos="168"/>
          <note len="12" key="85" pan="0" vol="78" pos="192"/>
          <note len="24" key="0" pan="0" vol="78" pos="192"/>
          <note len="12" key="81" pan="0" vol="78" pos="204"/>
          <note len="12" key="76" pan="0" vol="78" pos="216"/>
          <note len="24" key="1" pan="0" vol="78" pos="216"/>
          <note len="12" key="73" pan="0" vol="78" pos="228"/>
          <note len="12" key="69" pan="0" vol="78" pos="240"/>
          <note len="12" key="73" pan="0" vol="78" pos="252"/>
          <note len="12" key="81" pan="0" vol="78" pos="264"/>
          <note len="24" key="0" pan="0" vol="78" pos="264"/>
          <note len="12" key="76" pan="0" vol="78" pos="276"/>
          <note len="12" key="73" pan="0" vol="78" pos="288"/>
          <note len="24" key="1" pan="0" vol="78" pos="288"/>
          <note len="12" key="69" pan="0" vol="78" pos="300"/>
          <note len="12" key="73" pan="0" vol="78" pos="312"/>
          <note len="12" key="76" pan="0" vol="78" pos="324"/>
          <note len="12" key="85" pan="0" vol="78" pos="336"/>
          <note len="24" key="0" pan="0" vol="78" pos="336"/>
          <note len="12" key="83" pan="0" vol="78" pos="348"/>
          <note len="12" key="81" pan="0" vol="78" pos="360"/>
          <note len="24" key="1" pan="0" vol="78" pos="360"/>
          <note len="12" key="83" pan="0" vol="78" pos="372"/>
          <note len="384" key="87" pan="0" vol="78" pos="384"/>
          <note len="24" key="0" pan="0" vol="78" pos="384"/>
        </pattern>
        <pattern muted="0" name="" steps="16" type="1" pos="40512">
          <note len="24" key="81" pan="0" vol="78" pos="0"/>
          <note len="48" key="0" pan="0" vol="78" pos="0"/>
          <note len="24" key="76" pan="0" vol="78" pos="24"/>
          <note len="24" key="73" pan="0" vol="78" pos="48"/>
          <note len="24" key="80" pan="0" vol="78" pos="72"/>
          <note len="24" key="81" pan="0" vol="78" pos="96"/>
          <note len="24" key="83" pan="0" vol="78" pos="120"/>
          <note len="24" key="81" pan="0" vol="78" pos="144"/>
          <note len="24" key="80" pan="0" vol="78" pos="168"/>
          <note len="12" key="81" pan="0" vol="78" pos="192"/>
          <note len="24" key="0" pan="0" vol="78" pos="192"/>
          <note len="12" key="76" pan="0" vol="78" pos="204"/>
          <note len="12" key="73" pan="0" vol="78" pos="216"/>
          <note len="24" key="1" pan="0" vol="78" pos="216"/>
          <note len="12" key="69" pan="0" vol="78" pos="228"/>
          <note len="12" key="64" pan="0" vol="78" pos="240"/>
          <note len="12" key="69" pan="0" vol="78" pos="252"/>
          <note len="12" key="76" pan="0" vol="78" pos="264"/>
          <note len="24" key="0" pan="0" vol="78" pos="264"/>
          <note len="12" key="73" pan="0" vol="78" pos="276"/>
          <note len="12" key="69" pan="0" vol="78" pos="288"/>
          <note len="24" key="1" pan="0" vol="78" pos="288"/>
          <note len="12" key="64" pan="0" vol="78" pos="300"/>
          <note len="12" key="69" pan="0" vol="78" pos="312"/>
          <note len="12" key="73" pan="0" vol="78" pos="324"/>
          <note len="12" key="81" pan="0" vol="78" pos="336"/>
          <note len="24" key="0" pan="0" vol="78" pos="336"/>
          <note len="12" key="80" pan="0" vol="78" pos="348"/>
          <note len="12" key="76" pan="0" vol="78" pos="360"/>
          <note len="24" key="1" pan="0" vol="78" pos="360"/>
          <note len="12" key="80" pan="0" vol="78" pos="372"/>
          <note len="384" key="83" pan="0" vol="78" pos="384"/>
          <note len="24" key="0" pan="0" vol="78" pos="384"/>
        </pattern>
        <pattern muted="0" name="" steps="16" type="1" pos="60288">
          <note len="120" key="75" pan="0" vol="78" pos="0"/>
          <note len="24" key="0" pan="0" vol="78" pos="0"/>
          <note len="24" key="1" pan="0" vol="78" pos="96"/>
          <note len="24" key="70" pan="0" vol="78" pos="120"/>
          <note len="24" key="73" pan="0" vol="78" pos="144"/>
          <note len="24" key="70" pan="0" vol="78" pos="168"/>
          <note len="144" key="75" pan="0" vol="78" pos="192"/>
          <note len="24" key="0" pan="0" vol="78" pos="192"/>
          <note len="48" key="78" pan="0" vol="78" pos="336"/>
          <note len="288" key="77" pan="0" vol="78" pos="384"/>
          <note len="48" key="70" pan="0" vol="78" pos="672"/>
          <note len="48" key="73" pan="0" vol="78" pos="720"/>
          <note len="240" key="75" pan="0" vol="78" pos="768"/>
          <note len="12" key="73" pan="0" vol="78" pos="1008"/>
          <note len="12" key="70" pan="0" vol="78" pos="1020"/>
          <note len="12" key="71" pan="0" vol="78" pos="1032"/>
          <note len="12" key="73" pan="0" vol="78" pos="1044"/>
          <note len="12" key="75" pan="0" vol="78" pos="1056"/>
          <note len="12" key="73" pan="0" vol="78" pos="1068"/>
          <note len="12" key="75" pan="0" vol="78" pos="1080"/>
          <note len="12" key="78" pan="0" vol="78" pos="1092"/>
          <note len="12" key="82" pan="0" vol="78" pos="1104"/>
          <note len="12" key="78" pan="0" vol="78" pos="1116"/>
          <note len="12" key="80" pan="0" vol="78" pos="1128"/>
          <note len="12" key="82" pan="0" vol="78" pos="1140"/>
          <note len="192" key="80" pan="0" vol="78" pos="1152"/>
          <note len="24" key="83" pan="0" vol="78" pos="1344"/>
          <note len="12" key="82" pan="0" vol="78" pos="1368"/>
          <note len="12" key="83" pan="0" vol="78" pos="1380"/>
          <note len="24" key="82" pan="0" vol="78" pos="1392"/>
          <note len="12" key="83" pan="0" vol="78" pos="1416"/>
          <note len="12" key="82" pan="0" vol="78" pos="1428"/>
          <note len="24" key="80" pan="0" vol="78" pos="1440"/>
          <note len="12" key="82" pan="0" vol="78" pos="1464"/>
          <note len="12" key="80" pan="0" vol="78" pos="1476"/>
          <note len="24" key="76" pan="0" vol="78" pos="1488"/>
          <note len="12" key="78" pan="0" vol="78" pos="1512"/>
          <note len="12" key="76" pan="0" vol="78" pos="1524"/>
          <note len="144" key="75" pan="0" vol="78" pos="1536"/>
          <note len="24" key="75" pan="0" vol="78" pos="1680"/>
          <note len="24" key="77" pan="0" vol="78" pos="1704"/>
          <note len="96" key="78" pan="0" vol="78" pos="1728"/>
          <note len="24" key="0" pan="0" vol="78" pos="1812"/>
          <note len="12" key="80" pan="0" vol="78" pos="1824"/>
          <note len="84" key="82" pan="0" vol="78" pos="1836"/>
          <note len="24" key="2" pan="0" vol="78" pos="1836"/>
          <note len="24" key="0" pan="0" vol="78" pos="1896"/>
          <note len="156" key="80" pan="0" vol="78" pos="1920"/>
          <note len="12" key="80" pan="0" vol="78" pos="2076"/>
          <note len="12" key="78" pan="0" vol="78" pos="2088"/>
          <note len="12" key="77" pan="0" vol="78" pos="2100"/>
          <note len="96" key="73" pan="0" vol="78" pos="2112"/>
          <note len="48" key="70" pan="0" vol="78" pos="2208"/>
          <note len="48" key="73" pan="0" vol="78" pos="2256"/>
          <note len="120" key="75" pan="0" vol="78" pos="2304"/>
          <note len="12" key="73" pan="0" vol="78" pos="2424"/>
          <note len="12" key="1" pan="0" vol="78" pos="2424"/>
          <note len="12" key="73" pan="0" vol="78" pos="2436"/>
          <note len="12" key="72" pan="0" vol="78" pos="2448"/>
          <note len="12" key="72" pan="0" vol="78" pos="2460"/>
          <note len="12" key="68" pan="0" vol="78" pos="2472"/>
          <note len="12" key="68" pan="0" vol="78" pos="2484"/>
          <note len="96" key="70" pan="0" vol="78" pos="2496"/>
          <note len="12" key="0" pan="0" vol="78" pos="2496"/>
          <note len="96" key="63" pan="0" vol="78" pos="2592"/>
          <note len="12" key="70" pan="0" vol="78" pos="2688"/>
          <note len="12" key="0" pan="0" vol="78" pos="2688"/>
          <note len="84" key="71" pan="0" vol="78" pos="2700"/>
          <note len="12" key="2" pan="0" vol="78" pos="2700"/>
          <note len="12" key="0" pan="0" vol="78" pos="2712"/>
          <note len="96" key="70" pan="0" vol="78" pos="2784"/>
          <note len="96" key="68" pan="0" vol="78" pos="2880"/>
          <note len="96" key="73" pan="0" vol="78" pos="2976"/>
          <note len="12" key="75" pan="0" vol="78" pos="3072"/>
          <note len="12" key="1" pan="0" vol="78" pos="3072"/>
          <note len="12" key="75" pan="0" vol="78" pos="3084"/>
          <note len="12" key="66" pan="0" vol="78" pos="3096"/>
          <note len="12" key="66" pan="0" vol="78" pos="3108"/>
          <note len="12" key="70" pan="0" vol="78" pos="3120"/>
          <note len="12" key="70" pan="0" vol="78" pos="3132"/>
          <note len="12" key="66" pan="0" vol="78" pos="3144"/>
          <note len="12" key="66" pan="0" vol="78" pos="3156"/>
          <note len="12" key="75" pan="0" vol="78" pos="3168"/>
          <note len="12" key="75" pan="0" vol="78" pos="3180"/>
          <note len="12" key="70" pan="0" vol="78" pos="3192"/>
          <note len="12" key="70" pan="0" vol="78" pos="3204"/>
          <note len="12" key="77" pan="0" vol="78" pos="3216"/>
          <note len="12" key="77" pan="0" vol="78" pos="3228"/>
          <note len="12" key="70" pan="0" vol="78" pos="3240"/>
          <note len="12" key="70" pan="0" vol="78" pos="3252"/>
          <note len="12" key="78" pan="0" vol="78" pos="3264"/>
          <note len="12" key="78" pan="0" vol="78" pos="3276"/>
          <note len="12" key="75" pan="0" vol="78" pos="3288"/>
          <note len="12" key="75" pan="0" vol="78" pos="3300"/>
          <note len="12" key="80" pan="0" vol="78" pos="3312"/>
          <note len="12" key="0" pan="0" vol="78" pos="3312"/>
          <note len="12" key="78" pan="0" vol="78" pos="3324"/>
          <note len="12" key="75" pan="0" vol="78" pos="3336"/>
          <note len="12" key="78" pan="0" vol="78" pos="3348"/>
          <note len="12" key="82" pan="0" vol="78" pos="3360"/>
          <note len="12" key="80" pan="0" vol="78" pos="3372"/>
          <note len="12" key="78" pan="0" vol="78" pos="3384"/>
          <note len="12" key="80" pan="0" vol="78" pos="3396"/>
          <note len="48" key="87" pan="0" vol="78" pos="3408"/>
          <note len="12" key="0" pan="0" vol="78" pos="3408"/>
          <note len="144" key="85" pan="0" vol="78" pos="3456"/>
          <note len="12" key="80" pan="0" vol="78" pos="3600"/>
          <note len="12" key="0" pan="0" vol="78" pos="3600"/>
          <note len="36" key="82" pan="0" vol="78" pos="3612"/>
          <note len="12" key="2" pan="0" vol="78" pos="3612"/>
          <note len="12" key="0" pan="0" vol="78" pos="3624"/>
          <note len="96" key="80" pan="0" vol="78" pos="3648"/>
          <note len="48" key="77" pan="0" vol="78" pos="3744"/>
          <note len="48" key="80" pan="0" vol="78" pos="3792"/>
          <note len="12" key="79" pan="0" vol="78" pos="3840"/>
          <note len="12" key="80" pan="0" vol="78" pos="3852"/>
          <note len="12" key="79" pan="0" vol="78" pos="3864"/>
          <note len="12" key="77" pan="0" vol="78" pos="3876"/>
          <note len="12" key="75" pan="0" vol="78" pos="3888"/>
          <note len="12" key="77" pan="0" vol="78" pos="3900"/>
          <note len="12" key="75" pan="0" vol="78" pos="3912"/>
          <note len="12" key="72" pan="0" vol="78" pos="3924"/>
          <note len="12" key="70" pan="0" vol="78" pos="3936"/>
          <note len="12" key="72" pan="0" vol="78" pos="3948"/>
          <note len="12" key="70" pan="0" vol="78" pos="3960"/>
          <note len="12" key="68" pan="0" vol="78" pos="3972"/>
          <note len="12" key="65" pan="0" vol="78" pos="3984"/>
          <note len="12" key="68" pan="0" vol="78" pos="3996"/>
          <note len="12" key="65" pan="0" vol="78" pos="4008"/>
          <note len="12" key="63" pan="0" vol="78" pos="4020"/>
          <note len="48" key="70" pan="0" vol="78" pos="4032"/>
          <note len="12" key="68" pan="0" vol="78" pos="4080"/>
          <note len="12" key="0" pan="0" vol="78" pos="4080"/>
          <note len="12" key="65" pan="0" vol="78" pos="4092"/>
          <note len="12" key="2" pan="0" vol="78" pos="4092"/>
          <note len="12" key="65" pan="0" vol="78" pos="4104"/>
          <note len="12" key="1" pan="0" vol="78" pos="4104"/>
          <note len="12" key="65" pan="0" vol="78" pos="4116"/>
          <note len="96" key="75" pan="0" vol="78" pos="4128"/>
          <note len="12" key="0" pan="0" vol="78" pos="4128"/>
          <note len="192" key="75" pan="0" vol="78" pos="4224"/>
          <note len="96" key="78" pan="0" vol="78" pos="4416"/>
          <note len="96" key="80" pan="0" vol="78" pos="4512"/>
          <note len="192" key="82" pan="0" vol="78" pos="4608"/>
          <note len="16" key="0" pan="0" vol="78" pos="4608"/>
          <note len="16" key="75" pan="0" vol="78" pos="4800"/>
          <note len="16" key="1" pan="0" vol="78" pos="4800"/>
          <note len="16" key="77" pan="0" vol="78" pos="4816"/>
          <note len="16" key="75" pan="0" vol="78" pos="4832"/>
          <note len="16" key="78" pan="0" vol="78" pos="4848"/>
          <note len="16" key="80" pan="0" vol="78" pos="4864"/>
          <note len="16" key="0" pan="0" vol="78" pos="4864"/>
          <note len="16" key="82" pan="0" vol="78" pos="4880"/>
          <note len="16" key="87" pan="0" vol="78" pos="4896"/>
          <note len="16" key="82" pan="0" vol="78" pos="4912"/>
          <note len="16" key="80" pan="0" vol="78" pos="4928"/>
          <note len="16" key="1" pan="0" vol="78" pos="4928"/>
          <note len="16" key="78" pan="0" vol="78" pos="4944"/>
          <note len="16" key="77" pan="0" vol="78" pos="4960"/>
          <note len="16" key="75" pan="0" vol="78" pos="4976"/>
          <note len="48" key="77" pan="0" vol="78" pos="4992"/>
          <note len="192" key="0" pan="0" vol="78" pos="4992"/>
          <note len="48" key="78" pan="0" vol="78" pos="5040"/>
          <note len="48" key="80" pan="0" vol="78" pos="5088"/>
          <note len="48" key="85" pan="0" vol="78" pos="5136"/>
          <note len="96" key="73" pan="0" vol="78" pos="5184"/>
          <note len="12" key="75" pan="0" vol="78" pos="5280"/>
          <note len="12" key="0" pan="0" vol="78" pos="5280"/>
          <note len="84" key="77" pan="0" vol="78" pos="5292"/>
          <note len="12" key="2" pan="0" vol="78" pos="5292"/>
          <note len="12" key="0" pan="0" vol="78" pos="5304"/>
          <note len="96" key="75" pan="0" vol="78" pos="5376"/>
          <note len="96" key="77" pan="0" vol="78" pos="5472"/>
          <note len="96" key="70" pan="0" vol="78" pos="5568"/>
          <note len="96" key="75" pan="0" vol="78" pos="5664"/>
          <note len="96" key="80" pan="0" vol="78" pos="5760"/>
          <note len="96" key="82" pan="0" vol="78" pos="5856"/>
          <note len="96" key="85" pan="0" vol="200" pos="5952"/>
        </pattern>
      </track>
      <track muted="1" name="Mystery Dungeon" type="0" solo="0" mutedBeforeSolo="0">
        <instrumenttrack usemasterpitch="1" pitchrange="2" pitch="0" pan="0" basenote="57" vol="192" fxch="0">
          <instrument name="sf2player">
            <sf2player gain="1" chorusLevel="2" reverbRoomSize="0.2" reverbWidth="0.5" reverbDamping="0" reverbLevel="0.9" chorusSpeed="0.3" chorusOn="0" chorusDepth="8" src="/home/pass/samples/soundfonts/Mystery Dungeon.sf2" chorusNum="3" patch="1" bank="0" reverbOn="0">
              <key/>
            </sf2player>
          </instrument>
          <eldata fcut="14000" fwet="0" fres="0.5" ftype="0">
            <elvol rel="0.1" lspd_syncmode="0" pdel="0" lspd_numerator="4" lpdel="0" amt="0" ctlenvamt="0" lshp="0" userwavefile="" dec="0.5" lspd_denominator="4" sustain="0.5" lspd="0.1" latt="0" hold="0.5" att="0" x100="0" lamt="0"/>
            <elcut rel="0.1" lspd_syncmode="0" pdel="0" lspd_numerator="4" lpdel="0" amt="0" ctlenvamt="0" lshp="0" userwavefile="" dec="0.5" lspd_denominator="4" sustain="0.5" lspd="0.1" latt="0" hold="0.5" att="0" x100="0" lamt="0"/>
            <elres rel="0.1" lspd_syncmode="0" pdel="0" lspd_numerator="4" lpdel="0" amt="0" ctlenvamt="0" lshp="0" userwavefile="" dec="0.5" lspd_denominator="4" sustain="0.5" lspd="0.1" latt="0" hold="0.5" att="0" x100="0" lamt="0"/>
          </eldata>
          <chordcreator chord="0" chordrange="1" chord-enabled="0"/>
          <arpeggiator arptime_denominator="4" arptime="200" arp-enabled="0" arpcycle="0" arpgate="100" arp="0" arpmiss="0" arpdir="0" arprange="1" arpmode="0" arpskip="0" arptime_syncmode="0" arptime_numerator="4"/>
          <midiport inputcontroller="0" fixedinputvelocity="-1" readable="0" outputcontroller="0" fixedoutputnote="-1" outputprogram="1" writable="0" fixedoutputvelocity="-1" basevelocity="63" outputchannel="1" inputchannel="0"/>
          <fxchain enabled="0" numofeffects="0"/>
        </instrumenttrack>
        <pattern muted="0" name="Sf2 Player" steps="16" type="1" pos="4992">
          <note len="24" key="61" pan="0" vol="78" pos="0"/>
          <note len="24" key="49" pan="0" vol="78" pos="0"/>
          <note len="24" key="63" pan="0" vol="78" pos="24"/>
          <note len="24" key="51" pan="0" vol="78" pos="24"/>
          <note len="24" key="61" pan="0" vol="78" pos="48"/>
          <note len="24" key="49" pan="0" vol="78" pos="48"/>
          <note len="48" key="68" pan="0" vol="78" pos="72"/>
          <note len="48" key="56" pan="0" vol="78" pos="72"/>
          <note len="24" key="61" pan="0" vol="78" pos="120"/>
          <note len="24" key="49" pan="0" vol="78" pos="120"/>
          <note len="24" key="64" pan="0" vol="78" pos="144"/>
          <note len="24" key="52" pan="0" vol="78" pos="144"/>
          <note len="24" key="68" pan="0" vol="78" pos="168"/>
          <note len="24" key="56" pan="0" vol="78" pos="168"/>
          <note len="24" key="71" pan="0" vol="78" pos="192"/>
          <note len="24" key="59" pan="0" vol="78" pos="192"/>
          <note len="24" key="69" pan="0" vol="78" pos="216"/>
          <note len="24" key="57" pan="0" vol="78" pos="216"/>
          <note len="24" key="68" pan="0" vol="78" pos="240"/>
          <note len="24" key="56" pan="0" vol="78" pos="240"/>
          <note len="48" key="69" pan="0" vol="78" pos="264"/>
          <note len="48" key="57" pan="0" vol="78" pos="264"/>
          <note len="24" key="68" pan="0" vol="78" pos="312"/>
          <note len="24" key="56" pan="0" vol="78" pos="312"/>
          <note len="24" key="66" pan="0" vol="78" pos="336"/>
          <note len="24" key="54" pan="0" vol="78" pos="336"/>
          <note len="24" key="68" pan="0" vol="78" pos="360"/>
          <note len="24" key="56" pan="0" vol="78" pos="360"/>
          <note len="96" key="63" pan="0" vol="78" pos="384"/>
          <note len="96" key="51" pan="0" vol="78" pos="384"/>
        </pattern>
        <pattern muted="0" name="Sf2 Player" steps="16" type="1" pos="5760">
          <note len="24" key="61" pan="0" vol="78" pos="0"/>
          <note len="24" key="49" pan="0" vol="78" pos="0"/>
          <note len="24" key="63" pan="0" vol="78" pos="24"/>
          <note len="24" key="51" pan="0" vol="78" pos="24"/>
          <note len="24" key="61" pan="0" vol="78" pos="48"/>
          <note len="24" key="49" pan="0" vol="78" pos="48"/>
          <note len="48" key="68" pan="0" vol="78" pos="72"/>
          <note len="48" key="56" pan="0" vol="78" pos="72"/>
          <note len="24" key="61" pan="0" vol="78" pos="120"/>
          <note len="24" key="49" pan="0" vol="78" pos="120"/>
          <note len="24" key="64" pan="0" vol="78" pos="144"/>
          <note len="24" key="52" pan="0" vol="78" pos="144"/>
          <note len="24" key="68" pan="0" vol="78" pos="168"/>
          <note len="24" key="56" pan="0" vol="78" pos="168"/>
          <note len="24" key="71" pan="0" vol="78" pos="192"/>
          <note len="24" key="59" pan="0" vol="78" pos="192"/>
          <note len="24" key="73" pan="0" vol="78" pos="216"/>
          <note len="24" key="61" pan="0" vol="78" pos="216"/>
          <note len="24" key="75" pan="0" vol="78" pos="240"/>
          <note len="24" key="63" pan="0" vol="78" pos="240"/>
          <note len="48" key="73" pan="0" vol="78" pos="264"/>
          <note len="48" key="61" pan="0" vol="78" pos="264"/>
          <note len="24" key="75" pan="0" vol="78" pos="312"/>
          <note len="24" key="63" pan="0" vol="78" pos="312"/>
          <note len="24" key="76" pan="0" vol="78" pos="336"/>
          <note len="24" key="64" pan="0" vol="78" pos="336"/>
          <note len="24" key="78" pan="0" vol="78" pos="360"/>
          <note len="24" key="66" pan="0" vol="78" pos="360"/>
          <note len="96" key="75" pan="0" vol="78" pos="384"/>
          <note len="96" key="63" pan="0" vol="78" pos="384"/>
        </pattern>
        <pattern muted="0" name="Sf2 Player" steps="16" type="1" pos="7104">
          <note len="48" key="68" pan="0" vol="78" pos="96"/>
          <note len="48" key="56" pan="0" vol="78" pos="96"/>
          <note len="48" key="71" pan="0" vol="78" pos="144"/>
          <note len="48" key="59" pan="0" vol="78" pos="144"/>
          <note len="96" key="73" pan="0" vol="78" pos="192"/>
          <note len="96" key="61" pan="0" vol="78" pos="192"/>
          <note len="24" key="73" pan="0" vol="78" pos="288"/>
          <note len="24" key="61" pan="0" vol="78" pos="288"/>
          <note len="24" key="68" pan="0" vol="78" pos="312"/>
          <note len="24" key="56" pan="0" vol="78" pos="312"/>
          <note len="24" key="73" pan="0" vol="78" pos="336"/>
          <note len="24" key="61" pan="0" vol="78" pos="336"/>
          <note len="168" key="80" pan="0" vol="78" pos="360"/>
          <note len="168" key="68" pan="0" vol="78" pos="360"/>
          <note len="24" key="80" pan="0" vol="78" pos="528"/>
          <note len="24" key="68" pan="0" vol="78" pos="528"/>
          <note len="24" key="78" pan="0" vol="78" pos="552"/>
          <note len="24" key="66" pan="0" vol="78" pos="552"/>
          <note len="48" key="77" pan="0" vol="78" pos="576"/>
          <note len="48" key="65" pan="0" vol="78" pos="576"/>
          <note len="48" key="73" pan="0" vol="78" pos="624"/>
          <note len="48" key="61" pan="0" vol="78" pos="624"/>
          <note len="48" key="70" pan="0" vol="78" pos="672"/>
          <note len="48" key="58" pan="0" vol="78" pos="672"/>
          <note len="48" key="66" pan="0" vol="78" pos="720"/>
          <note len="48" key="54" pan="0" vol="78" pos="720"/>
          <note len="96" key="69" pan="0" vol="78" pos="768"/>
          <note len="96" key="57" pan="0" vol="78" pos="768"/>
          <note len="96" key="68" pan="0" vol="78" pos="864"/>
          <note len="96" key="56" pan="0" vol="78" pos="864"/>
          <note len="144" key="61" pan="0" vol="78" pos="960"/>
          <note len="144" key="49" pan="0" vol="78" pos="960"/>
          <note len="48" key="64" pan="0" vol="78" pos="1104"/>
          <note len="48" key="52" pan="0" vol="78" pos="1104"/>
          <note len="144" key="63" pan="0" vol="78" pos="1152"/>
          <note len="144" key="51" pan="0" vol="78" pos="1152"/>
          <note len="48" key="68" pan="0" vol="78" pos="1296"/>
          <note len="48" key="56" pan="0" vol="78" pos="1296"/>
          <note len="144" key="68" pan="0" vol="78" pos="1344"/>
          <note len="144" key="56" pan="0" vol="78" pos="1344"/>
          <note len="24" key="66" pan="0" vol="78" pos="1488"/>
          <note len="24" key="54" pan="0" vol="78" pos="1488"/>
          <note len="24" key="64" pan="0" vol="78" pos="1512"/>
          <note len="24" key="52" pan="0" vol="78" pos="1512"/>
          <note len="48" key="63" pan="0" vol="78" pos="1536"/>
          <note len="48" key="51" pan="0" vol="78" pos="1536"/>
          <note len="48" key="64" pan="0" vol="78" pos="1584"/>
          <note len="48" key="52" pan="0" vol="78" pos="1584"/>
          <note len="48" key="59" pan="0" vol="78" pos="1632"/>
          <note len="48" key="47" pan="0" vol="78" pos="1632"/>
          <note len="48" key="56" pan="0" vol="78" pos="1680"/>
          <note len="48" key="44" pan="0" vol="78" pos="1680"/>
          <note len="96" key="57" pan="0" vol="78" pos="1728"/>
          <note len="96" key="45" pan="0" vol="78" pos="1728"/>
          <note len="48" key="61" pan="0" vol="78" pos="1824"/>
          <note len="48" key="49" pan="0" vol="78" pos="1824"/>
          <note len="48" key="64" pan="0" vol="78" pos="1872"/>
          <note len="48" key="52" pan="0" vol="78" pos="1872"/>
          <note len="96" key="64" pan="0" vol="78" pos="1920"/>
          <note len="96" key="52" pan="0" vol="78" pos="1920"/>
          <note len="48" key="63" pan="0" vol="78" pos="2016"/>
          <note len="48" key="51" pan="0" vol="78" pos="2016"/>
          <note len="48" key="64" pan="0" vol="78" pos="2064"/>
          <note len="48" key="52" pan="0" vol="78" pos="2064"/>
          <note len="72" key="71" pan="0" vol="78" pos="2112"/>
          <note len="72" key="59" pan="0" vol="78" pos="2112"/>
          <note len="72" key="69" pan="0" vol="78" pos="2184"/>
          <note len="72" key="57" pan="0" vol="78" pos="2184"/>
          <note len="48" key="68" pan="0" vol="78" pos="2256"/>
          <note len="48" key="56" pan="0" vol="78" pos="2256"/>
          <note len="192" key="66" pan="0" vol="78" pos="2304"/>
          <note len="192" key="54" pan="0" vol="78" pos="2304"/>
          <note len="72" key="64" pan="0" vol="78" pos="2496"/>
          <note len="72" key="52" pan="0" vol="78" pos="2496"/>
          <note len="72" key="63" pan="0" vol="78" pos="2568"/>
          <note len="72" key="51" pan="0" vol="78" pos="2568"/>
          <note len="48" key="64" pan="0" vol="78" pos="2640"/>
          <note len="48" key="52" pan="0" vol="78" pos="2640"/>
          <note len="144" key="68" pan="0" vol="78" pos="2688"/>
          <note len="144" key="56" pan="0" vol="78" pos="2688"/>
          <note len="48" key="63" pan="0" vol="78" pos="2832"/>
          <note len="48" key="51" pan="0" vol="78" pos="2832"/>
          <note len="240" key="61" pan="0" vol="78" pos="2880"/>
          <note len="240" key="49" pan="0" vol="78" pos="2880"/>
          <note len="48" key="64" pan="0" vol="78" pos="3120"/>
          <note len="48" key="52" pan="0" vol="78" pos="3120"/>
          <note len="48" key="66" pan="0" vol="78" pos="3168"/>
          <note len="48" key="54" pan="0" vol="78" pos="3168"/>
          <note len="48" key="68" pan="0" vol="78" pos="3216"/>
          <note len="48" key="56" pan="0" vol="78" pos="3216"/>
          <note len="72" key="69" pan="0" vol="78" pos="3264"/>
          <note len="72" key="57" pan="0" vol="78" pos="3264"/>
          <note len="72" key="68" pan="0" vol="78" pos="3336"/>
          <note len="72" key="56" pan="0" vol="78" pos="3336"/>
          <note len="48" key="66" pan="0" vol="78" pos="3408"/>
          <note len="48" key="54" pan="0" vol="78" pos="3408"/>
          <note len="48" key="64" pan="0" vol="78" pos="3456"/>
          <note len="48" key="52" pan="0" vol="78" pos="3456"/>
          <note len="48" key="61" pan="0" vol="78" pos="3504"/>
          <note len="48" key="49" pan="0" vol="78" pos="3504"/>
          <note len="48" key="64" pan="0" vol="78" pos="3552"/>
          <note len="48" key="52" pan="0" vol="78" pos="3552"/>
          <note len="48" key="68" pan="0" vol="78" pos="3600"/>
          <note len="48" key="56" pan="0" vol="78" pos="3600"/>
          <note len="192" key="66" pan="0" vol="78" pos="3648"/>
          <note len="192" key="54" pan="0" vol="78" pos="3648"/>
          <note len="96" key="63" pan="0" vol="78" pos="3840"/>
          <note len="96" key="51" pan="0" vol="78" pos="3840"/>
          <note len="96" key="59" pan="0" vol="78" pos="3936"/>
          <note len="96" key="47" pan="0" vol="78" pos="3936"/>
          <note len="384" key="61" pan="0" vol="78" pos="4032"/>
          <note len="384" key="49" pan="0" vol="78" pos="4032"/>
        </pattern>
        <pattern muted="0" name="Sf2 Player" steps="16" type="1" pos="12672">
          <note len="24" key="49" pan="0" vol="78" pos="0"/>
          <note len="24" key="51" pan="0" vol="78" pos="24"/>
          <note len="24" key="49" pan="0" vol="78" pos="48"/>
          <note len="48" key="56" pan="0" vol="78" pos="72"/>
          <note len="24" key="49" pan="0" vol="78" pos="120"/>
          <note len="24" key="52" pan="0" vol="78" pos="144"/>
          <note len="24" key="56" pan="0" vol="78" pos="168"/>
          <note len="24" key="59" pan="0" vol="78" pos="192"/>
          <note len="24" key="57" pan="0" vol="78" pos="216"/>
          <note len="24" key="56" pan="0" vol="78" pos="240"/>
          <note len="48" key="57" pan="0" vol="78" pos="264"/>
          <note len="24" key="56" pan="0" vol="78" pos="312"/>
          <note len="24" key="54" pan="0" vol="78" pos="336"/>
          <note len="24" key="56" pan="0" vol="78" pos="360"/>
          <note len="96" key="51" pan="0" vol="78" pos="384"/>
        </pattern>
        <pattern muted="0" name="Sf2 Player" steps="16" type="1" pos="13440">
          <note len="24" key="49" pan="0" vol="78" pos="0"/>
          <note len="24" key="51" pan="0" vol="78" pos="24"/>
          <note len="24" key="49" pan="0" vol="78" pos="48"/>
          <note len="48" key="56" pan="0" vol="78" pos="72"/>
          <note len="24" key="49" pan="0" vol="78" pos="120"/>
          <note len="24" key="52" pan="0" vol="78" pos="144"/>
          <note len="24" key="56" pan="0" vol="78" pos="168"/>
          <note len="24" key="59" pan="0" vol="78" pos="192"/>
          <note len="24" key="61" pan="0" vol="78" pos="216"/>
          <note len="24" key="63" pan="0" vol="78" pos="240"/>
          <note len="48" key="61" pan="0" vol="78" pos="264"/>
          <note len="24" key="63" pan="0" vol="78" pos="312"/>
          <note len="24" key="64" pan="0" vol="78" pos="336"/>
          <note len="24" key="66" pan="0" vol="78" pos="360"/>
          <note len="96" key="63" pan="0" vol="78" pos="384"/>
        </pattern>
        <pattern muted="0" name="Sf2 Player" steps="16" type="1" pos="14784">
          <note len="48" key="68" pan="0" vol="78" pos="96"/>
          <note len="48" key="56" pan="0" vol="78" pos="96"/>
          <note len="48" key="71" pan="0" vol="78" pos="144"/>
          <note len="48" key="59" pan="0" vol="78" pos="144"/>
          <note len="96" key="73" pan="0" vol="78" pos="192"/>
          <note len="96" key="61" pan="0" vol="78" pos="192"/>
          <note len="24" key="73" pan="0" vol="78" pos="288"/>
          <note len="24" key="61" pan="0" vol="78" pos="288"/>
          <note len="24" key="68" pan="0" vol="78" pos="312"/>
          <note len="24" key="56" pan="0" vol="78" pos="312"/>
          <note len="24" key="73" pan="0" vol="78" pos="336"/>
          <note len="24" key="61" pan="0" vol="78" pos="336"/>
          <note len="168" key="80" pan="0" vol="78" pos="360"/>
          <note len="168" key="68" pan="0" vol="78" pos="360"/>
          <note len="24" key="80" pan="0" vol="78" pos="528"/>
          <note len="24" key="68" pan="0" vol="78" pos="528"/>
          <note len="24" key="78" pan="0" vol="78" pos="552"/>
          <note len="24" key="66" pan="0" vol="78" pos="552"/>
          <note len="48" key="77" pan="0" vol="78" pos="576"/>
          <note len="48" key="65" pan="0" vol="78" pos="576"/>
          <note len="48" key="73" pan="0" vol="78" pos="624"/>
          <note len="48" key="61" pan="0" vol="78" pos="624"/>
          <note len="48" key="70" pan="0" vol="78" pos="672"/>
          <note len="48" key="58" pan="0" vol="78" pos="672"/>
          <note len="48" key="66" pan="0" vol="78" pos="720"/>
          <note len="48" key="54" pan="0" vol="78" pos="720"/>
          <note len="96" key="69" pan="0" vol="78" pos="768"/>
          <note len="96" key="57" pan="0" vol="78" pos="768"/>
          <note len="96" key="68" pan="0" vol="78" pos="864"/>
          <note len="96" key="56" pan="0" vol="78" pos="864"/>
          <note len="144" key="61" pan="0" vol="78" pos="960"/>
          <note len="144" key="49" pan="0" vol="78" pos="960"/>
          <note len="48" key="64" pan="0" vol="78" pos="1104"/>
          <note len="48" key="52" pan="0" vol="78" pos="1104"/>
          <note len="144" key="63" pan="0" vol="78" pos="1152"/>
          <note len="144" key="51" pan="0" vol="78" pos="1152"/>
          <note len="48" key="68" pan="0" vol="78" pos="1296"/>
          <note len="48" key="56" pan="0" vol="78" pos="1296"/>
          <note len="144" key="68" pan="0" vol="78" pos="1344"/>
          <note len="144" key="56" pan="0" vol="78" pos="1344"/>
          <note len="24" key="66" pan="0" vol="78" pos="1488"/>
          <note len="24" key="54" pan="0" vol="78" pos="1488"/>
          <note len="24" key="64" pan="0" vol="78" pos="1512"/>
          <note len="24" key="52" pan="0" vol="78" pos="1512"/>
          <note len="48" key="63" pan="0" vol="78" pos="1536"/>
          <note len="48" key="51" pan="0" vol="78" pos="1536"/>
          <note len="48" key="64" pan="0" vol="78" pos="1584"/>
          <note len="48" key="52" pan="0" vol="78" pos="1584"/>
          <note len="48" key="59" pan="0" vol="78" pos="1632"/>
          <note len="48" key="47" pan="0" vol="78" pos="1632"/>
          <note len="48" key="56" pan="0" vol="78" pos="1680"/>
          <note len="48" key="44" pan="0" vol="78" pos="1680"/>
          <note len="96" key="57" pan="0" vol="78" pos="1728"/>
          <note len="96" key="45" pan="0" vol="78" pos="1728"/>
          <note len="48" key="61" pan="0" vol="78" pos="1824"/>
          <note len="48" key="49" pan="0" vol="78" pos="1824"/>
          <note len="48" key="64" pan="0" vol="78" pos="1872"/>
          <note len="48" key="52" pan="0" vol="78" pos="1872"/>
          <note len="96" key="64" pan="0" vol="78" pos="1920"/>
          <note len="96" key="52" pan="0" vol="78" pos="1920"/>
          <note len="48" key="63" pan="0" vol="78" pos="2016"/>
          <note len="48" key="51" pan="0" vol="78" pos="2016"/>
          <note len="48" key="64" pan="0" vol="78" pos="2064"/>
          <note len="48" key="52" pan="0" vol="78" pos="2064"/>
          <note len="72" key="71" pan="0" vol="78" pos="2112"/>
          <note len="72" key="59" pan="0" vol="78" pos="2112"/>
          <note len="72" key="69" pan="0" vol="78" pos="2184"/>
          <note len="72" key="57" pan="0" vol="78" pos="2184"/>
          <note len="48" key="68" pan="0" vol="78" pos="2256"/>
          <note len="48" key="56" pan="0" vol="78" pos="2256"/>
          <note len="192" key="66" pan="0" vol="78" pos="2304"/>
          <note len="192" key="54" pan="0" vol="78" pos="2304"/>
          <note len="72" key="64" pan="0" vol="78" pos="2496"/>
          <note len="72" key="52" pan="0" vol="78" pos="2496"/>
          <note len="72" key="63" pan="0" vol="78" pos="2568"/>
          <note len="72" key="51" pan="0" vol="78" pos="2568"/>
          <note len="48" key="64" pan="0" vol="78" pos="2640"/>
          <note len="48" key="52" pan="0" vol="78" pos="2640"/>
          <note len="144" key="68" pan="0" vol="78" pos="2688"/>
          <note len="144" key="56" pan="0" vol="78" pos="2688"/>
          <note len="48" key="63" pan="0" vol="78" pos="2832"/>
          <note len="48" key="51" pan="0" vol="78" pos="2832"/>
          <note len="240" key="61" pan="0" vol="78" pos="2880"/>
          <note len="240" key="49" pan="0" vol="78" pos="2880"/>
          <note len="48" key="64" pan="0" vol="78" pos="3120"/>
          <note len="48" key="52" pan="0" vol="78" pos="3120"/>
          <note len="48" key="66" pan="0" vol="78" pos="3168"/>
          <note len="48" key="54" pan="0" vol="78" pos="3168"/>
          <note len="48" key="68" pan="0" vol="78" pos="3216"/>
          <note len="48" key="56" pan="0" vol="78" pos="3216"/>
          <note len="72" key="69" pan="0" vol="78" pos="3264"/>
          <note len="72" key="57" pan="0" vol="78" pos="3264"/>
          <note len="72" key="68" pan="0" vol="78" pos="3336"/>
          <note len="72" key="56" pan="0" vol="78" pos="3336"/>
          <note len="48" key="66" pan="0" vol="78" pos="3408"/>
          <note len="48" key="54" pan="0" vol="78" pos="3408"/>
          <note len="48" key="64" pan="0" vol="78" pos="3456"/>
          <note len="48" key="52" pan="0" vol="78" pos="3456"/>
          <note len="48" key="61" pan="0" vol="78" pos="3504"/>
          <note len="48" key="49" pan="0" vol="78" pos="3504"/>
          <note len="48" key="64" pan="0" vol="78" pos="3552"/>
          <note len="48" key="52" pan="0" vol="78" pos="3552"/>
          <note len="48" key="68" pan="0" vol="78" pos="3600"/>
          <note len="48" key="56" pan="0" vol="78" pos="3600"/>
          <note len="192" key="66" pan="0" vol="78" pos="3648"/>
          <note len="192" key="54" pan="0" vol="78" pos="3648"/>
          <note len="24" key="63" pan="0" vol="78" pos="3840"/>
          <note len="24" key="51" pan="0" vol="78" pos="3840"/>
          <note len="24" key="63" pan="0" vol="78" pos="3864"/>
          <note len="24" key="51" pan="0" vol="78" pos="3864"/>
          <note len="24" key="71" pan="0" vol="78" pos="3936"/>
          <note len="24" key="59" pan="0" vol="78" pos="3936"/>
          <note len="24" key="71" pan="0" vol="78" pos="3960"/>
          <note len="24" key="59" pan="0" vol="78" pos="3960"/>
          <note len="336" key="73" pan="0" vol="78" pos="4032"/>
          <note len="336" key="61" pan="0" vol="78" pos="4032"/>
          <note len="48" key="64" pan="0" vol="78" pos="4368"/>
          <note len="48" key="52" pan="0" vol="78" pos="4368"/>
          <note len="288" key="63" pan="0" vol="78" pos="4416"/>
          <note len="288" key="51" pan="0" vol="78" pos="4416"/>
          <note len="48" key="56" pan="0" vol="78" pos="4704"/>
          <note len="48" key="44" pan="0" vol="78" pos="4704"/>
          <note len="48" key="59" pan="0" vol="78" pos="4752"/>
          <note len="48" key="47" pan="0" vol="78" pos="4752"/>
          <note len="240" key="61" pan="0" vol="78" pos="4800"/>
          <note len="240" key="49" pan="0" vol="78" pos="4800"/>
          <note len="48" key="59" pan="0" vol="78" pos="5040"/>
          <note len="48" key="47" pan="0" vol="78" pos="5040"/>
          <note len="48" key="61" pan="0" vol="78" pos="5088"/>
          <note len="48" key="49" pan="0" vol="78" pos="5088"/>
          <note len="48" key="68" pan="0" vol="78" pos="5136"/>
          <note len="48" key="56" pan="0" vol="78" pos="5136"/>
          <note len="192" key="66" pan="0" vol="78" pos="5184"/>
          <note len="192" key="54" pan="0" vol="78" pos="5184"/>
          <note len="48" key="69" pan="0" vol="78" pos="5376"/>
          <note len="48" key="57" pan="0" vol="78" pos="5376"/>
          <note len="24" key="68" pan="0" vol="78" pos="5424"/>
          <note len="24" key="56" pan="0" vol="78" pos="5424"/>
          <note len="12" key="68" pan="0" vol="78" pos="5448"/>
          <note len="12" key="56" pan="0" vol="78" pos="5448"/>
          <note len="12" key="69" pan="0" vol="78" pos="5456"/>
          <note len="12" key="57" pan="0" vol="78" pos="5456"/>
          <note len="12" key="68" pan="0" vol="78" pos="5464"/>
          <note len="12" key="56" pan="0" vol="78" pos="5464"/>
          <note len="48" key="66" pan="0" vol="78" pos="5472"/>
          <note len="48" key="54" pan="0" vol="78" pos="5472"/>
          <note len="48" key="68" pan="0" vol="78" pos="5520"/>
          <note len="48" key="56" pan="0" vol="78" pos="5520"/>
          <note len="240" key="64" pan="0" vol="78" pos="5568"/>
          <note len="240" key="52" pan="0" vol="78" pos="5568"/>
          <note len="48" key="61" pan="0" vol="78" pos="5808"/>
          <note len="48" key="49" pan="0" vol="78" pos="5808"/>
          <note len="48" key="64" pan="0" vol="78" pos="5856"/>
          <note len="48" key="52" pan="0" vol="78" pos="5856"/>
          <note len="48" key="68" pan="0" vol="78" pos="5904"/>
          <note len="48" key="56" pan="0" vol="78" pos="5904"/>
          <note len="192" key="68" pan="0" vol="78" pos="5952"/>
          <note len="192" key="56" pan="0" vol="78" pos="5952"/>
          <note len="144" key="66" pan="0" vol="78" pos="6144"/>
          <note len="144" key="54" pan="0" vol="78" pos="6144"/>
          <note len="48" key="68" pan="0" vol="78" pos="6288"/>
          <note len="48" key="56" pan="0" vol="78" pos="6288"/>
          <note len="240" key="61" pan="0" vol="78" pos="6336"/>
          <note len="240" key="49" pan="0" vol="78" pos="6336"/>
          <note len="48" key="56" pan="0" vol="78" pos="6576"/>
          <note len="48" key="44" pan="0" vol="78" pos="6576"/>
          <note len="48" key="61" pan="0" vol="78" pos="6624"/>
          <note len="48" key="49" pan="0" vol="78" pos="6624"/>
          <note len="48" key="68" pan="0" vol="78" pos="6672"/>
          <note len="48" key="56" pan="0" vol="78" pos="6672"/>
          <note len="192" key="73" pan="0" vol="78" pos="6720"/>
          <note len="192" key="61" pan="0" vol="78" pos="6720"/>
          <note len="192" key="72" pan="0" vol="78" pos="6912"/>
          <note len="192" key="60" pan="0" vol="78" pos="6912"/>
        </pattern>
        <pattern muted="0" name="Sf2 Player" steps="16" type="1" pos="36480">
          <note len="24" key="61" pan="0" vol="78" pos="0"/>
          <note len="24" key="49" pan="0" vol="78" pos="0"/>
          <note len="24" key="63" pan="0" vol="78" pos="24"/>
          <note len="24" key="51" pan="0" vol="78" pos="24"/>
          <note len="24" key="61" pan="0" vol="78" pos="48"/>
          <note len="24" key="49" pan="0" vol="78" pos="48"/>
          <note len="48" key="68" pan="0" vol="78" pos="72"/>
          <note len="48" key="56" pan="0" vol="78" pos="72"/>
          <note len="24" key="61" pan="0" vol="78" pos="120"/>
          <note len="24" key="49" pan="0" vol="78" pos="120"/>
          <note len="24" key="64" pan="0" vol="78" pos="144"/>
          <note len="24" key="52" pan="0" vol="78" pos="144"/>
          <note len="24" key="68" pan="0" vol="78" pos="168"/>
          <note len="24" key="56" pan="0" vol="78" pos="168"/>
          <note len="24" key="71" pan="0" vol="78" pos="192"/>
          <note len="24" key="59" pan="0" vol="78" pos="192"/>
          <note len="24" key="69" pan="0" vol="78" pos="216"/>
          <note len="24" key="57" pan="0" vol="78" pos="216"/>
          <note len="24" key="68" pan="0" vol="78" pos="240"/>
          <note len="24" key="56" pan="0" vol="78" pos="240"/>
          <note len="48" key="69" pan="0" vol="78" pos="264"/>
          <note len="48" key="57" pan="0" vol="78" pos="264"/>
          <note len="24" key="68" pan="0" vol="78" pos="312"/>
          <note len="24" key="56" pan="0" vol="78" pos="312"/>
          <note len="24" key="66" pan="0" vol="78" pos="336"/>
          <note len="24" key="54" pan="0" vol="78" pos="336"/>
          <note len="24" key="68" pan="0" vol="78" pos="360"/>
          <note len="24" key="56" pan="0" vol="78" pos="360"/>
          <note len="96" key="63" pan="0" vol="78" pos="384"/>
          <note len="96" key="51" pan="0" vol="78" pos="384"/>
        </pattern>
        <pattern muted="0" name="Sf2 Player" steps="16" type="1" pos="37248">
          <note len="24" key="61" pan="0" vol="78" pos="0"/>
          <note len="24" key="49" pan="0" vol="78" pos="0"/>
          <note len="24" key="63" pan="0" vol="78" pos="24"/>
          <note len="24" key="51" pan="0" vol="78" pos="24"/>
          <note len="24" key="61" pan="0" vol="78" pos="48"/>
          <note len="24" key="49" pan="0" vol="78" pos="48"/>
          <note len="48" key="68" pan="0" vol="78" pos="72"/>
          <note len="48" key="56" pan="0" vol="78" pos="72"/>
          <note len="24" key="61" pan="0" vol="78" pos="120"/>
          <note len="24" key="49" pan="0" vol="78" pos="120"/>
          <note len="24" key="64" pan="0" vol="78" pos="144"/>
          <note len="24" key="52" pan="0" vol="78" pos="144"/>
          <note len="24" key="68" pan="0" vol="78" pos="168"/>
          <note len="24" key="56" pan="0" vol="78" pos="168"/>
          <note len="24" key="71" pan="0" vol="78" pos="192"/>
          <note len="24" key="59" pan="0" vol="78" pos="192"/>
          <note len="24" key="73" pan="0" vol="78" pos="216"/>
          <note len="24" key="61" pan="0" vol="78" pos="216"/>
          <note len="24" key="75" pan="0" vol="78" pos="240"/>
          <note len="24" key="63" pan="0" vol="78" pos="240"/>
          <note len="48" key="73" pan="0" vol="78" pos="264"/>
          <note len="48" key="61" pan="0" vol="78" pos="264"/>
          <note len="24" key="75" pan="0" vol="78" pos="312"/>
          <note len="24" key="63" pan="0" vol="78" pos="312"/>
          <note len="24" key="76" pan="0" vol="78" pos="336"/>
          <note len="24" key="64" pan="0" vol="78" pos="336"/>
          <note len="24" key="78" pan="0" vol="78" pos="360"/>
          <note len="24" key="66" pan="0" vol="78" pos="360"/>
          <note len="96" key="75" pan="0" vol="78" pos="384"/>
          <note len="96" key="63" pan="0" vol="78" pos="384"/>
        </pattern>
        <pattern muted="0" name="Sf2 Player" steps="16" type="1" pos="38592">
          <note len="48" key="68" pan="0" vol="78" pos="96"/>
          <note len="48" key="56" pan="0" vol="78" pos="96"/>
          <note len="48" key="71" pan="0" vol="78" pos="144"/>
          <note len="48" key="59" pan="0" vol="78" pos="144"/>
          <note len="96" key="73" pan="0" vol="78" pos="192"/>
          <note len="96" key="61" pan="0" vol="78" pos="192"/>
          <note len="24" key="73" pan="0" vol="78" pos="288"/>
          <note len="24" key="61" pan="0" vol="78" pos="288"/>
          <note len="24" key="68" pan="0" vol="78" pos="312"/>
          <note len="24" key="56" pan="0" vol="78" pos="312"/>
          <note len="24" key="73" pan="0" vol="78" pos="336"/>
          <note len="24" key="61" pan="0" vol="78" pos="336"/>
          <note len="168" key="80" pan="0" vol="78" pos="360"/>
          <note len="168" key="68" pan="0" vol="78" pos="360"/>
          <note len="24" key="80" pan="0" vol="78" pos="528"/>
          <note len="24" key="68" pan="0" vol="78" pos="528"/>
          <note len="24" key="78" pan="0" vol="78" pos="552"/>
          <note len="24" key="66" pan="0" vol="78" pos="552"/>
          <note len="48" key="77" pan="0" vol="78" pos="576"/>
          <note len="48" key="65" pan="0" vol="78" pos="576"/>
          <note len="48" key="73" pan="0" vol="78" pos="624"/>
          <note len="48" key="61" pan="0" vol="78" pos="624"/>
          <note len="48" key="70" pan="0" vol="78" pos="672"/>
          <note len="48" key="58" pan="0" vol="78" pos="672"/>
          <note len="48" key="66" pan="0" vol="78" pos="720"/>
          <note len="48" key="54" pan="0" vol="78" pos="720"/>
          <note len="96" key="69" pan="0" vol="78" pos="768"/>
          <note len="96" key="57" pan="0" vol="78" pos="768"/>
          <note len="96" key="68" pan="0" vol="78" pos="864"/>
          <note len="96" key="56" pan="0" vol="78" pos="864"/>
          <note len="144" key="61" pan="0" vol="78" pos="960"/>
          <note len="144" key="49" pan="0" vol="78" pos="960"/>
          <note len="48" key="64" pan="0" vol="78" pos="1104"/>
          <note len="48" key="52" pan="0" vol="78" pos="1104"/>
          <note len="144" key="63" pan="0" vol="78" pos="1152"/>
          <note len="144" key="51" pan="0" vol="78" pos="1152"/>
          <note len="48" key="68" pan="0" vol="78" pos="1296"/>
          <note len="48" key="56" pan="0" vol="78" pos="1296"/>
          <note len="144" key="68" pan="0" vol="78" pos="1344"/>
          <note len="144" key="56" pan="0" vol="78" pos="1344"/>
          <note len="24" key="66" pan="0" vol="78" pos="1488"/>
          <note len="24" key="54" pan="0" vol="78" pos="1488"/>
          <note len="24" key="64" pan="0" vol="78" pos="1512"/>
          <note len="24" key="52" pan="0" vol="78" pos="1512"/>
          <note len="48" key="63" pan="0" vol="78" pos="1536"/>
          <note len="48" key="51" pan="0" vol="78" pos="1536"/>
          <note len="48" key="64" pan="0" vol="78" pos="1584"/>
          <note len="48" key="52" pan="0" vol="78" pos="1584"/>
          <note len="48" key="59" pan="0" vol="78" pos="1632"/>
          <note len="48" key="47" pan="0" vol="78" pos="1632"/>
          <note len="48" key="56" pan="0" vol="78" pos="1680"/>
          <note len="48" key="44" pan="0" vol="78" pos="1680"/>
          <note len="96" key="57" pan="0" vol="78" pos="1728"/>
          <note len="96" key="45" pan="0" vol="78" pos="1728"/>
          <note len="48" key="61" pan="0" vol="78" pos="1824"/>
          <note len="48" key="49" pan="0" vol="78" pos="1824"/>
          <note len="48" key="64" pan="0" vol="78" pos="1872"/>
          <note len="48" key="52" pan="0" vol="78" pos="1872"/>
          <note len="96" key="64" pan="0" vol="78" pos="1920"/>
          <note len="96" key="52" pan="0" vol="78" pos="1920"/>
          <note len="48" key="63" pan="0" vol="78" pos="2016"/>
          <note len="48" key="51" pan="0" vol="78" pos="2016"/>
          <note len="48" key="64" pan="0" vol="78" pos="2064"/>
          <note len="48" key="52" pan="0" vol="78" pos="2064"/>
          <note len="72" key="71" pan="0" vol="78" pos="2112"/>
          <note len="72" key="59" pan="0" vol="78" pos="2112"/>
          <note len="72" key="69" pan="0" vol="78" pos="2184"/>
          <note len="72" key="57" pan="0" vol="78" pos="2184"/>
          <note len="48" key="68" pan="0" vol="78" pos="2256"/>
          <note len="48" key="56" pan="0" vol="78" pos="2256"/>
          <note len="192" key="66" pan="0" vol="78" pos="2304"/>
          <note len="192" key="54" pan="0" vol="78" pos="2304"/>
          <note len="72" key="64" pan="0" vol="78" pos="2496"/>
          <note len="72" key="52" pan="0" vol="78" pos="2496"/>
          <note len="72" key="63" pan="0" vol="78" pos="2568"/>
          <note len="72" key="51" pan="0" vol="78" pos="2568"/>
          <note len="48" key="64" pan="0" vol="78" pos="2640"/>
          <note len="48" key="52" pan="0" vol="78" pos="2640"/>
          <note len="144" key="68" pan="0" vol="78" pos="2688"/>
          <note len="144" key="56" pan="0" vol="78" pos="2688"/>
          <note len="48" key="63" pan="0" vol="78" pos="2832"/>
          <note len="48" key="51" pan="0" vol="78" pos="2832"/>
          <note len="240" key="61" pan="0" vol="78" pos="2880"/>
          <note len="240" key="49" pan="0" vol="78" pos="2880"/>
          <note len="48" key="64" pan="0" vol="78" pos="3120"/>
          <note len="48" key="52" pan="0" vol="78" pos="3120"/>
          <note len="48" key="66" pan="0" vol="78" pos="3168"/>
          <note len="48" key="54" pan="0" vol="78" pos="3168"/>
          <note len="48" key="68" pan="0" vol="78" pos="3216"/>
          <note len="48" key="56" pan="0" vol="78" pos="3216"/>
          <note len="72" key="69" pan="0" vol="78" pos="3264"/>
          <note len="72" key="57" pan="0" vol="78" pos="3264"/>
          <note len="72" key="68" pan="0" vol="78" pos="3336"/>
          <note len="72" key="56" pan="0" vol="78" pos="3336"/>
          <note len="48" key="66" pan="0" vol="78" pos="3408"/>
          <note len="48" key="54" pan="0" vol="78" pos="3408"/>
          <note len="48" key="64" pan="0" vol="78" pos="3456"/>
          <note len="48" key="52" pan="0" vol="78" pos="3456"/>
          <note len="48" key="61" pan="0" vol="78" pos="3504"/>
          <note len="48" key="49" pan="0" vol="78" pos="3504"/>
          <note len="48" key="64" pan="0" vol="78" pos="3552"/>
          <note len="48" key="52" pan="0" vol="78" pos="3552"/>
          <note len="48" key="68" pan="0" vol="78" pos="3600"/>
          <note len="48" key="56" pan="0" vol="78" pos="3600"/>
          <note len="192" key="66" pan="0" vol="78" pos="3648"/>
          <note len="192" key="54" pan="0" vol="78" pos="3648"/>
          <note len="96" key="63" pan="0" vol="78" pos="3840"/>
          <note len="96" key="51" pan="0" vol="78" pos="3840"/>
          <note len="96" key="59" pan="0" vol="78" pos="3936"/>
          <note len="96" key="47" pan="0" vol="78" pos="3936"/>
          <note len="384" key="61" pan="0" vol="78" pos="4032"/>
          <note len="384" key="49" pan="0" vol="78" pos="4032"/>
        </pattern>
        <pattern muted="0" name="Sf2 Player" steps="16" type="1" pos="44160">
          <note len="24" key="49" pan="0" vol="78" pos="0"/>
          <note len="24" key="51" pan="0" vol="78" pos="24"/>
          <note len="24" key="49" pan="0" vol="78" pos="48"/>
          <note len="48" key="56" pan="0" vol="78" pos="72"/>
          <note len="24" key="49" pan="0" vol="78" pos="120"/>
          <note len="24" key="52" pan="0" vol="78" pos="144"/>
          <note len="24" key="56" pan="0" vol="78" pos="168"/>
          <note len="24" key="59" pan="0" vol="78" pos="192"/>
          <note len="24" key="57" pan="0" vol="78" pos="216"/>
          <note len="24" key="56" pan="0" vol="78" pos="240"/>
          <note len="48" key="57" pan="0" vol="78" pos="264"/>
          <note len="24" key="56" pan="0" vol="78" pos="312"/>
          <note len="24" key="54" pan="0" vol="78" pos="336"/>
          <note len="24" key="56" pan="0" vol="78" pos="360"/>
          <note len="96" key="51" pan="0" vol="78" pos="384"/>
        </pattern>
        <pattern muted="0" name="Sf2 Player" steps="16" type="1" pos="44928">
          <note len="24" key="49" pan="0" vol="78" pos="0"/>
          <note len="24" key="51" pan="0" vol="78" pos="24"/>
          <note len="24" key="49" pan="0" vol="78" pos="48"/>
          <note len="48" key="56" pan="0" vol="78" pos="72"/>
          <note len="24" key="49" pan="0" vol="78" pos="120"/>
          <note len="24" key="52" pan="0" vol="78" pos="144"/>
          <note len="24" key="56" pan="0" vol="78" pos="168"/>
          <note len="24" key="59" pan="0" vol="78" pos="192"/>
          <note len="24" key="61" pan="0" vol="78" pos="216"/>
          <note len="24" key="63" pan="0" vol="78" pos="240"/>
          <note len="48" key="61" pan="0" vol="78" pos="264"/>
          <note len="24" key="63" pan="0" vol="78" pos="312"/>
          <note len="24" key="64" pan="0" vol="78" pos="336"/>
          <note len="24" key="66" pan="0" vol="78" pos="360"/>
          <note len="96" key="63" pan="0" vol="78" pos="384"/>
        </pattern>
        <pattern muted="0" name="Sf2 Player" steps="16" type="1" pos="46272">
          <note len="48" key="68" pan="0" vol="78" pos="96"/>
          <note len="48" key="56" pan="0" vol="78" pos="96"/>
          <note len="48" key="71" pan="0" vol="78" pos="144"/>
          <note len="48" key="59" pan="0" vol="78" pos="144"/>
          <note len="96" key="73" pan="0" vol="78" pos="192"/>
          <note len="96" key="61" pan="0" vol="78" pos="192"/>
          <note len="24" key="73" pan="0" vol="78" pos="288"/>
          <note len="24" key="61" pan="0" vol="78" pos="288"/>
          <note len="24" key="68" pan="0" vol="78" pos="312"/>
          <note len="24" key="56" pan="0" vol="78" pos="312"/>
          <note len="24" key="73" pan="0" vol="78" pos="336"/>
          <note len="24" key="61" pan="0" vol="78" pos="336"/>
          <note len="168" key="80" pan="0" vol="78" pos="360"/>
          <note len="168" key="68" pan="0" vol="78" pos="360"/>
          <note len="24" key="80" pan="0" vol="78" pos="528"/>
          <note len="24" key="68" pan="0" vol="78" pos="528"/>
          <note len="24" key="78" pan="0" vol="78" pos="552"/>
          <note len="24" key="66" pan="0" vol="78" pos="552"/>
          <note len="48" key="77" pan="0" vol="78" pos="576"/>
          <note len="48" key="65" pan="0" vol="78" pos="576"/>
          <note len="48" key="73" pan="0" vol="78" pos="624"/>
          <note len="48" key="61" pan="0" vol="78" pos="624"/>
          <note len="48" key="70" pan="0" vol="78" pos="672"/>
          <note len="48" key="58" pan="0" vol="78" pos="672"/>
          <note len="48" key="66" pan="0" vol="78" pos="720"/>
          <note len="48" key="54" pan="0" vol="78" pos="720"/>
          <note len="96" key="69" pan="0" vol="78" pos="768"/>
          <note len="96" key="57" pan="0" vol="78" pos="768"/>
          <note len="96" key="68" pan="0" vol="78" pos="864"/>
          <note len="96" key="56" pan="0" vol="78" pos="864"/>
          <note len="144" key="61" pan="0" vol="78" pos="960"/>
          <note len="144" key="49" pan="0" vol="78" pos="960"/>
          <note len="48" key="64" pan="0" vol="78" pos="1104"/>
          <note len="48" key="52" pan="0" vol="78" pos="1104"/>
          <note len="144" key="63" pan="0" vol="78" pos="1152"/>
          <note len="144" key="51" pan="0" vol="78" pos="1152"/>
          <note len="48" key="68" pan="0" vol="78" pos="1296"/>
          <note len="48" key="56" pan="0" vol="78" pos="1296"/>
          <note len="144" key="68" pan="0" vol="78" pos="1344"/>
          <note len="144" key="56" pan="0" vol="78" pos="1344"/>
          <note len="24" key="66" pan="0" vol="78" pos="1488"/>
          <note len="24" key="54" pan="0" vol="78" pos="1488"/>
          <note len="24" key="64" pan="0" vol="78" pos="1512"/>
          <note len="24" key="52" pan="0" vol="78" pos="1512"/>
          <note len="48" key="63" pan="0" vol="78" pos="1536"/>
          <note len="48" key="51" pan="0" vol="78" pos="1536"/>
          <note len="48" key="64" pan="0" vol="78" pos="1584"/>
          <note len="48" key="52" pan="0" vol="78" pos="1584"/>
          <note len="48" key="59" pan="0" vol="78" pos="1632"/>
          <note len="48" key="47" pan="0" vol="78" pos="1632"/>
          <note len="48" key="56" pan="0" vol="78" pos="1680"/>
          <note len="48" key="44" pan="0" vol="78" pos="1680"/>
          <note len="96" key="57" pan="0" vol="78" pos="1728"/>
          <note len="96" key="45" pan="0" vol="78" pos="1728"/>
          <note len="48" key="61" pan="0" vol="78" pos="1824"/>
          <note len="48" key="49" pan="0" vol="78" pos="1824"/>
          <note len="48" key="64" pan="0" vol="78" pos="1872"/>
          <note len="48" key="52" pan="0" vol="78" pos="1872"/>
          <note len="96" key="64" pan="0" vol="78" pos="1920"/>
          <note len="96" key="52" pan="0" vol="78" pos="1920"/>
          <note len="48" key="63" pan="0" vol="78" pos="2016"/>
          <note len="48" key="51" pan="0" vol="78" pos="2016"/>
          <note len="48" key="64" pan="0" vol="78" pos="2064"/>
          <note len="48" key="52" pan="0" vol="78" pos="2064"/>
          <note len="72" key="71" pan="0" vol="78" pos="2112"/>
          <note len="72" key="59" pan="0" vol="78" pos="2112"/>
          <note len="72" key="69" pan="0" vol="78" pos="2184"/>
          <note len="72" key="57" pan="0" vol="78" pos="2184"/>
          <note len="48" key="68" pan="0" vol="78" pos="2256"/>
          <note len="48" key="56" pan="0" vol="78" pos="2256"/>
          <note len="192" key="66" pan="0" vol="78" pos="2304"/>
          <note len="192" key="54" pan="0" vol="78" pos="2304"/>
          <note len="72" key="64" pan="0" vol="78" pos="2496"/>
          <note len="72" key="52" pan="0" vol="78" pos="2496"/>
          <note len="72" key="63" pan="0" vol="78" pos="2568"/>
          <note len="72" key="51" pan="0" vol="78" pos="2568"/>
          <note len="48" key="64" pan="0" vol="78" pos="2640"/>
          <note len="48" key="52" pan="0" vol="78" pos="2640"/>
          <note len="144" key="68" pan="0" vol="78" pos="2688"/>
          <note len="144" key="56" pan="0" vol="78" pos="2688"/>
          <note len="48" key="63" pan="0" vol="78" pos="2832"/>
          <note len="48" key="51" pan="0" vol="78" pos="2832"/>
          <note len="240" key="61" pan="0" vol="78" pos="2880"/>
          <note len="240" key="49" pan="0" vol="78" pos="2880"/>
          <note len="48" key="64" pan="0" vol="78" pos="3120"/>
          <note len="48" key="52" pan="0" vol="78" pos="3120"/>
          <note len="48" key="66" pan="0" vol="78" pos="3168"/>
          <note len="48" key="54" pan="0" vol="78" pos="3168"/>
          <note len="48" key="68" pan="0" vol="78" pos="3216"/>
          <note len="48" key="56" pan="0" vol="78" pos="3216"/>
          <note len="72" key="69" pan="0" vol="78" pos="3264"/>
          <note len="72" key="57" pan="0" vol="78" pos="3264"/>
          <note len="72" key="68" pan="0" vol="78" pos="3336"/>
          <note len="72" key="56" pan="0" vol="78" pos="3336"/>
          <note len="48" key="66" pan="0" vol="78" pos="3408"/>
          <note len="48" key="54" pan="0" vol="78" pos="3408"/>
          <note len="48" key="64" pan="0" vol="78" pos="3456"/>
          <note len="48" key="52" pan="0" vol="78" pos="3456"/>
          <note len="48" key="61" pan="0" vol="78" pos="3504"/>
          <note len="48" key="49" pan="0" vol="78" pos="3504"/>
          <note len="48" key="64" pan="0" vol="78" pos="3552"/>
          <note len="48" key="52" pan="0" vol="78" pos="3552"/>
          <note len="48" key="68" pan="0" vol="78" pos="3600"/>
          <note len="48" key="56" pan="0" vol="78" pos="3600"/>
          <note len="192" key="66" pan="0" vol="78" pos="3648"/>
          <note len="192" key="54" pan="0" vol="78" pos="3648"/>
          <note len="24" key="63" pan="0" vol="78" pos="3840"/>
          <note len="24" key="51" pan="0" vol="78" pos="3840"/>
          <note len="24" key="63" pan="0" vol="78" pos="3864"/>
          <note len="24" key="51" pan="0" vol="78" pos="3864"/>
          <note len="24" key="71" pan="0" vol="78" pos="3936"/>
          <note len="24" key="59" pan="0" vol="78" pos="3936"/>
          <note len="24" key="71" pan="0" vol="78" pos="3960"/>
          <note len="24" key="59" pan="0" vol="78" pos="3960"/>
          <note len="336" key="73" pan="0" vol="78" pos="4032"/>
          <note len="336" key="61" pan="0" vol="78" pos="4032"/>
          <note len="48" key="64" pan="0" vol="78" pos="4368"/>
          <note len="48" key="52" pan="0" vol="78" pos="4368"/>
          <note len="288" key="63" pan="0" vol="78" pos="4416"/>
          <note len="288" key="51" pan="0" vol="78" pos="4416"/>
          <note len="48" key="56" pan="0" vol="78" pos="4704"/>
          <note len="48" key="44" pan="0" vol="78" pos="4704"/>
          <note len="48" key="59" pan="0" vol="78" pos="4752"/>
          <note len="48" key="47" pan="0" vol="78" pos="4752"/>
          <note len="240" key="61" pan="0" vol="78" pos="4800"/>
          <note len="240" key="49" pan="0" vol="78" pos="4800"/>
          <note len="48" key="59" pan="0" vol="78" pos="5040"/>
          <note len="48" key="47" pan="0" vol="78" pos="5040"/>
          <note len="48" key="61" pan="0" vol="78" pos="5088"/>
          <note len="48" key="49" pan="0" vol="78" pos="5088"/>
          <note len="48" key="68" pan="0" vol="78" pos="5136"/>
          <note len="48" key="56" pan="0" vol="78" pos="5136"/>
          <note len="192" key="66" pan="0" vol="78" pos="5184"/>
          <note len="192" key="54" pan="0" vol="78" pos="5184"/>
          <note len="48" key="69" pan="0" vol="78" pos="5376"/>
          <note len="48" key="57" pan="0" vol="78" pos="5376"/>
          <note len="24" key="68" pan="0" vol="78" pos="5424"/>
          <note len="24" key="56" pan="0" vol="78" pos="5424"/>
          <note len="12" key="68" pan="0" vol="78" pos="5448"/>
          <note len="12" key="56" pan="0" vol="78" pos="5448"/>
          <note len="12" key="69" pan="0" vol="78" pos="5456"/>
          <note len="12" key="57" pan="0" vol="78" pos="5456"/>
          <note len="12" key="68" pan="0" vol="78" pos="5464"/>
          <note len="12" key="56" pan="0" vol="78" pos="5464"/>
          <note len="48" key="66" pan="0" vol="78" pos="5472"/>
          <note len="48" key="54" pan="0" vol="78" pos="5472"/>
          <note len="48" key="68" pan="0" vol="78" pos="5520"/>
          <note len="48" key="56" pan="0" vol="78" pos="5520"/>
          <note len="240" key="64" pan="0" vol="78" pos="5568"/>
          <note len="240" key="52" pan="0" vol="78" pos="5568"/>
          <note len="48" key="61" pan="0" vol="78" pos="5808"/>
          <note len="48" key="49" pan="0" vol="78" pos="5808"/>
          <note len="48" key="64" pan="0" vol="78" pos="5856"/>
          <note len="48" key="52" pan="0" vol="78" pos="5856"/>
          <note len="48" key="68" pan="0" vol="78" pos="5904"/>
          <note len="48" key="56" pan="0" vol="78" pos="5904"/>
          <note len="192" key="68" pan="0" vol="78" pos="5952"/>
          <note len="192" key="56" pan="0" vol="78" pos="5952"/>
          <note len="144" key="66" pan="0" vol="78" pos="6144"/>
          <note len="144" key="54" pan="0" vol="78" pos="6144"/>
          <note len="48" key="68" pan="0" vol="78" pos="6288"/>
          <note len="48" key="56" pan="0" vol="78" pos="6288"/>
          <note len="240" key="61" pan="0" vol="78" pos="6336"/>
          <note len="240" key="49" pan="0" vol="78" pos="6336"/>
          <note len="48" key="56" pan="0" vol="78" pos="6576"/>
          <note len="48" key="44" pan="0" vol="78" pos="6576"/>
          <note len="48" key="61" pan="0" vol="78" pos="6624"/>
          <note len="48" key="49" pan="0" vol="78" pos="6624"/>
          <note len="48" key="68" pan="0" vol="78" pos="6672"/>
          <note len="48" key="56" pan="0" vol="78" pos="6672"/>
          <note len="192" key="73" pan="0" vol="78" pos="6720"/>
          <note len="192" key="61" pan="0" vol="78" pos="6720"/>
          <note len="192" key="72" pan="0" vol="78" pos="6912"/>
          <note len="192" key="60" pan="0" vol="78" pos="6912"/>
        </pattern>
        <pattern muted="0" name="" steps="16" type="1" pos="53952">
          <note len="120" key="75" pan="0" vol="193" pos="0"/>
          <note len="24" key="0" pan="0" vol="78" pos="0"/>
          <note len="24" key="1" pan="0" vol="78" pos="96"/>
          <note len="24" key="70" pan="0" vol="193" pos="120"/>
          <note len="24" key="0" pan="0" vol="78" pos="132"/>
          <note len="24" key="78" pan="0" vol="193" pos="144"/>
          <note len="24" key="70" pan="0" vol="193" pos="168"/>
          <note len="24" key="1" pan="0" vol="78" pos="168"/>
          <note len="120" key="77" pan="0" vol="193" pos="192"/>
          <note len="24" key="0" pan="0" vol="78" pos="192"/>
          <note len="12" key="1" pan="0" vol="78" pos="300"/>
          <note len="12" key="77" pan="0" vol="193" pos="312"/>
          <note len="12" key="78" pan="0" vol="193" pos="324"/>
          <note len="12" key="82" pan="0" vol="193" pos="336"/>
          <note len="12" key="0" pan="0" vol="78" pos="336"/>
          <note len="12" key="78" pan="0" vol="193" pos="348"/>
          <note len="12" key="77" pan="0" vol="193" pos="360"/>
          <note len="12" key="1" pan="0" vol="78" pos="360"/>
          <note len="12" key="78" pan="0" vol="193" pos="372"/>
          <note len="144" key="82" pan="0" vol="193" pos="384"/>
          <note len="12" key="0" pan="0" vol="78" pos="384"/>
          <note len="24" key="80" pan="0" vol="193" pos="528"/>
          <note len="24" key="78" pan="0" vol="193" pos="552"/>
          <note len="48" key="77" pan="0" vol="193" pos="576"/>
          <note len="48" key="78" pan="0" vol="197" pos="624"/>
          <note len="12" key="0" pan="0" vol="78" pos="660"/>
          <note len="12" key="73" pan="0" vol="193" pos="672"/>
          <note len="12" key="1" pan="0" vol="78" pos="672"/>
          <note len="12" key="73" pan="0" vol="193" pos="684"/>
          <note len="12" key="73" pan="0" vol="193" pos="696"/>
          <note len="12" key="73" pan="0" vol="193" pos="708"/>
          <note len="12" key="70" pan="0" vol="193" pos="720"/>
          <note len="12" key="0" pan="0" vol="78" pos="720"/>
          <note len="12" key="66" pan="0" vol="193" pos="732"/>
          <note len="12" key="1" pan="0" vol="78" pos="732"/>
          <note len="12" key="68" pan="0" vol="193" pos="744"/>
          <note len="12" key="70" pan="0" vol="193" pos="756"/>
          <note len="96" key="71" pan="0" vol="193" pos="768"/>
          <note len="12" key="0" pan="0" vol="78" pos="768"/>
          <note len="48" key="75" pan="0" vol="193" pos="864"/>
          <note len="48" key="78" pan="0" vol="193" pos="912"/>
          <note len="96" key="78" pan="0" vol="193" pos="960"/>
          <note len="12" key="77" pan="0" vol="193" pos="1056"/>
          <note len="12" key="0" pan="0" vol="78" pos="1056"/>
          <note len="12" key="70" pan="0" vol="193" pos="1068"/>
          <note len="12" key="2" pan="0" vol="78" pos="1068"/>
          <note len="12" key="70" pan="0" vol="193" pos="1080"/>
          <note len="12" key="1" pan="0" vol="78" pos="1080"/>
          <note len="12" key="70" pan="0" vol="193" pos="1092"/>
          <note len="12" key="78" pan="0" vol="193" pos="1104"/>
          <note len="12" key="0" pan="0" vol="78" pos="1104"/>
          <note len="12" key="75" pan="0" vol="193" pos="1116"/>
          <note len="12" key="2" pan="0" vol="78" pos="1116"/>
          <note len="12" key="77" pan="0" vol="193" pos="1128"/>
          <note len="12" key="1" pan="0" vol="78" pos="1128"/>
          <note len="12" key="78" pan="0" vol="193" pos="1140"/>
          <note len="48" key="85" pan="0" vol="193" pos="1152"/>
          <note len="12" key="0" pan="0" vol="78" pos="1152"/>
          <note len="12" key="83" pan="0" vol="193" pos="1200"/>
          <note len="12" key="85" pan="0" vol="193" pos="1212"/>
          <note len="48" key="83" pan="0" vol="193" pos="1224"/>
          <note len="12" key="82" pan="0" vol="193" pos="1272"/>
          <note len="12" key="0" pan="0" vol="78" pos="1272"/>
          <note len="12" key="83" pan="0" vol="193" pos="1284"/>
          <note len="12" key="82" pan="0" vol="193" pos="1296"/>
          <note len="12" key="1" pan="0" vol="78" pos="1296"/>
          <note len="12" key="80" pan="0" vol="193" pos="1308"/>
          <note len="12" key="78" pan="0" vol="193" pos="1320"/>
          <note len="12" key="82" pan="0" vol="193" pos="1332"/>
          <note len="72" key="80" pan="0" vol="193" pos="1344"/>
          <note len="12" key="0" pan="0" vol="78" pos="1344"/>
          <note len="12" key="78" pan="0" vol="193" pos="1416"/>
          <note len="12" key="1" pan="0" vol="78" pos="1416"/>
          <note len="12" key="80" pan="0" vol="193" pos="1428"/>
          <note len="12" key="82" pan="0" vol="193" pos="1440"/>
          <note len="12" key="0" pan="0" vol="78" pos="1440"/>
          <note len="12" key="83" pan="0" vol="193" pos="1452"/>
          <note len="12" key="82" pan="0" vol="193" pos="1464"/>
          <note len="12" key="1" pan="0" vol="78" pos="1464"/>
          <note len="12" key="80" pan="0" vol="193" pos="1476"/>
          <note len="12" key="82" pan="0" vol="193" pos="1488"/>
          <note len="12" key="0" pan="0" vol="78" pos="1488"/>
          <note len="12" key="80" pan="0" vol="193" pos="1500"/>
          <note len="12" key="78" pan="0" vol="193" pos="1512"/>
          <note len="12" key="77" pan="0" vol="193" pos="1524"/>
          <note len="48" key="78" pan="0" vol="193" pos="1536"/>
          <note len="12" key="0" pan="0" vol="78" pos="1536"/>
          <note len="12" key="1" pan="0" vol="78" pos="1572"/>
          <note len="12" key="70" pan="0" vol="193" pos="1584"/>
          <note len="12" key="70" pan="0" vol="193" pos="1596"/>
          <note len="48" key="77" pan="0" vol="193" pos="1608"/>
          <note len="12" key="0" pan="0" vol="78" pos="1608"/>
          <note len="12" key="1" pan="0" vol="78" pos="1644"/>
          <note len="12" key="70" pan="0" vol="193" pos="1656"/>
          <note len="12" key="70" pan="0" vol="193" pos="1668"/>
          <note len="24" key="78" pan="0" vol="193" pos="1680"/>
          <note len="12" key="0" pan="0" vol="78" pos="1680"/>
          <note len="12" key="1" pan="0" vol="78" pos="1692"/>
          <note len="12" key="70" pan="0" vol="193" pos="1704"/>
          <note len="12" key="70" pan="0" vol="193" pos="1716"/>
          <note len="144" key="82" pan="0" vol="193" pos="1728"/>
          <note len="12" key="0" pan="0" vol="78" pos="1728"/>
          <note len="48" key="77" pan="0" vol="193" pos="1872"/>
          <note len="12" key="0" pan="0" vol="78" pos="1908"/>
          <note len="12" key="75" pan="0" vol="193" pos="1920"/>
          <note len="12" key="77" pan="0" vol="193" pos="1932"/>
          <note len="12" key="2" pan="0" vol="78" pos="1932"/>
          <note len="216" key="75" pan="0" vol="193" pos="1944"/>
          <note len="12" key="0" pan="0" vol="78" pos="2100"/>
          <note len="48" key="78" pan="0" vol="193" pos="2160"/>
          <note len="24" key="80" pan="0" vol="193" pos="2208"/>
          <note len="12" key="78" pan="0" vol="193" pos="2232"/>
          <note len="12" key="80" pan="0" vol="193" pos="2244"/>
          <note len="24" key="82" pan="0" vol="193" pos="2256"/>
          <note len="12" key="80" pan="0" vol="193" pos="2280"/>
          <note len="12" key="82" pan="0" vol="193" pos="2292"/>
          <note len="72" key="83" pan="0" vol="193" pos="2304"/>
          <note len="72" key="82" pan="0" vol="193" pos="2376"/>
          <note len="48" key="80" pan="0" vol="193" pos="2448"/>
          <note len="12" key="1" pan="0" vol="78" pos="2484"/>
          <note len="12" key="78" pan="0" vol="193" pos="2496"/>
          <note len="12" key="77" pan="0" vol="193" pos="2508"/>
          <note len="12" key="75" pan="0" vol="193" pos="2520"/>
          <note len="12" key="70" pan="0" vol="193" pos="2532"/>
          <note len="12" key="75" pan="0" vol="193" pos="2544"/>
          <note len="12" key="73" pan="0" vol="193" pos="2556"/>
          <note len="12" key="71" pan="0" vol="193" pos="2568"/>
          <note len="12" key="70" pan="0" vol="193" pos="2580"/>
          <note len="12" key="78" pan="0" vol="193" pos="2592"/>
          <note len="12" key="0" pan="0" vol="78" pos="2592"/>
          <note len="12" key="77" pan="0" vol="193" pos="2604"/>
          <note len="12" key="75" pan="0" vol="193" pos="2616"/>
          <note len="12" key="70" pan="0" vol="193" pos="2628"/>
          <note len="48" key="87" pan="0" vol="193" pos="2640"/>
          <note len="192" key="85" pan="0" vol="193" pos="2688"/>
        </pattern>
      </track>
      <track muted="1" name="Orchestra Soundfont 2 COMBO" type="0" solo="0" mutedBeforeSolo="0">
        <instrumenttrack usemasterpitch="1" pitchrange="2" pitch="0" pan="0" basenote="57" vol="188.8" fxch="0">
          <instrument name="sf2player">
            <sf2player gain="1" chorusLevel="2" reverbRoomSize="0.2" reverbWidth="0.5" reverbDamping="0" reverbLevel="0.9" chorusSpeed="0.3" chorusOn="0" chorusDepth="8" src="/home/pass/samples/soundfonts/Orchestra Soundfont 2 COMBO.sf2" chorusNum="3" patch="0" bank="0" reverbOn="0">
              <key/>
            </sf2player>
          </instrument>
          <eldata fcut="14000" fwet="0" fres="0.5" ftype="0">
            <elvol rel="0.1" lspd_syncmode="0" pdel="0" lspd_numerator="4" lpdel="0" amt="0" ctlenvamt="0" lshp="0" userwavefile="" dec="0.5" lspd_denominator="4" sustain="0.5" lspd="0.1" latt="0" hold="0.5" att="0" x100="0" lamt="0"/>
            <elcut rel="0.1" lspd_syncmode="0" pdel="0" lspd_numerator="4" lpdel="0" amt="0" ctlenvamt="0" lshp="0" userwavefile="" dec="0.5" lspd_denominator="4" sustain="0.5" lspd="0.1" latt="0" hold="0.5" att="0" x100="0" lamt="0"/>
            <elres rel="0.1" lspd_syncmode="0" pdel="0" lspd_numerator="4" lpdel="0" amt="0" ctlenvamt="0" lshp="0" userwavefile="" dec="0.5" lspd_denominator="4" sustain="0.5" lspd="0.1" latt="0" hold="0.5" att="0" x100="0" lamt="0"/>
          </eldata>
          <chordcreator chord="0" chordrange="1" chord-enabled="0"/>
          <arpeggiator arptime_denominator="4" arptime="200" arp-enabled="0" arpcycle="0" arpgate="100" arp="0" arpmiss="0" arpdir="0" arprange="1" arpmode="0" arpskip="0" arptime_syncmode="0" arptime_numerator="4"/>
          <midiport inputcontroller="0" fixedinputvelocity="-1" readable="0" outputcontroller="0" fixedoutputnote="-1" outputprogram="1" writable="0" fixedoutputvelocity="-1" basevelocity="63" outputchannel="1" inputchannel="0"/>
          <fxchain enabled="0" numofeffects="0"/>
        </instrumenttrack>
        <pattern muted="0" name="" steps="16" type="1" pos="5376">
          <note len="24" key="44" pan="0" vol="78" pos="0"/>
          <note len="24" key="47" pan="0" vol="78" pos="24"/>
          <note len="24" key="44" pan="0" vol="78" pos="48"/>
          <note len="48" key="51" pan="0" vol="78" pos="72"/>
          <note len="24" key="44" pan="0" vol="78" pos="120"/>
          <note len="24" key="47" pan="0" vol="78" pos="144"/>
          <note len="24" key="51" pan="0" vol="78" pos="168"/>
          <note len="24" key="52" pan="0" vol="78" pos="192"/>
          <note len="24" key="51" pan="0" vol="78" pos="216"/>
          <note len="24" key="49" pan="0" vol="78" pos="240"/>
          <note len="24" key="47" pan="0" vol="78" pos="264"/>
          <note len="24" key="51" pan="0" vol="78" pos="288"/>
          <note len="24" key="49" pan="0" vol="78" pos="312"/>
          <note len="24" key="47" pan="0" vol="78" pos="336"/>
          <note len="24" key="44" pan="0" vol="78" pos="360"/>
          <note len="96" key="49" pan="0" vol="78" pos="384"/>
        </pattern>
        <pattern muted="0" name="" steps="16" type="1" pos="6144">
          <note len="24" key="47" pan="0" vol="78" pos="0"/>
          <note len="24" key="52" pan="0" vol="78" pos="24"/>
          <note len="24" key="56" pan="0" vol="78" pos="48"/>
          <note len="48" key="59" pan="0" vol="78" pos="72"/>
          <note len="24" key="56" pan="0" vol="78" pos="120"/>
          <note len="24" key="59" pan="0" vol="78" pos="144"/>
          <note len="24" key="63" pan="0" vol="78" pos="168"/>
          <note len="24" key="61" pan="0" vol="78" pos="192"/>
          <note len="24" key="56" pan="0" vol="78" pos="216"/>
          <note len="24" key="52" pan="0" vol="78" pos="240"/>
          <note len="24" key="49" pan="0" vol="78" pos="264"/>
          <note len="24" key="54" pan="0" vol="78" pos="288"/>
          <note len="24" key="52" pan="0" vol="78" pos="312"/>
          <note len="24" key="56" pan="0" vol="78" pos="336"/>
          <note len="24" key="52" pan="0" vol="78" pos="360"/>
          <note len="120" key="57" pan="0" vol="78" pos="384"/>
          <note len="24" key="56" pan="0" vol="78" pos="504"/>
          <note len="24" key="57" pan="0" vol="78" pos="528"/>
          <note len="24" key="59" pan="0" vol="78" pos="552"/>
          <note len="72" key="61" pan="0" vol="78" pos="576"/>
          <note len="72" key="59" pan="0" vol="78" pos="648"/>
          <note len="48" key="57" pan="0" vol="78" pos="720"/>
          <note len="24" key="56" pan="0" vol="78" pos="768"/>
          <note len="24" key="57" pan="0" vol="78" pos="792"/>
          <note len="24" key="56" pan="0" vol="78" pos="816"/>
          <note len="48" key="52" pan="0" vol="78" pos="840"/>
          <note len="24" key="52" pan="0" vol="78" pos="888"/>
          <note len="24" key="54" pan="0" vol="78" pos="912"/>
          <note len="24" key="56" pan="0" vol="78" pos="936"/>
          <note len="96" key="54" pan="0" vol="78" pos="960"/>
          <note len="48" key="51" pan="0" vol="78" pos="1056"/>
          <note len="48" key="56" pan="0" vol="78" pos="1104"/>
          <note len="24" key="44" pan="0" vol="78" pos="1152"/>
          <note len="24" key="42" pan="0" vol="78" pos="1176"/>
          <note len="24" key="44" pan="0" vol="78" pos="1200"/>
          <note len="24" key="49" pan="0" vol="78" pos="1224"/>
          <note len="48" key="52" pan="0" vol="78" pos="1248"/>
          <note len="24" key="51" pan="0" vol="78" pos="1296"/>
          <note len="24" key="49" pan="0" vol="78" pos="1320"/>
          <note len="24" key="56" pan="0" vol="78" pos="1344"/>
          <note len="24" key="54" pan="0" vol="78" pos="1368"/>
          <note len="24" key="52" pan="0" vol="78" pos="1392"/>
          <note len="24" key="51" pan="0" vol="78" pos="1416"/>
          <note len="24" key="49" pan="0" vol="78" pos="1440"/>
          <note len="24" key="51" pan="0" vol="78" pos="1464"/>
          <note len="24" key="52" pan="0" vol="78" pos="1488"/>
          <note len="24" key="56" pan="0" vol="78" pos="1512"/>
          <note len="48" key="58" pan="0" vol="78" pos="1536"/>
          <note len="48" key="54" pan="0" vol="78" pos="1584"/>
          <note len="48" key="51" pan="0" vol="78" pos="1632"/>
          <note len="48" key="46" pan="0" vol="78" pos="1680"/>
          <note len="24" key="45" pan="0" vol="78" pos="1728"/>
          <note len="24" key="49" pan="0" vol="78" pos="1752"/>
          <note len="24" key="51" pan="0" vol="78" pos="1776"/>
          <note len="24" key="54" pan="0" vol="78" pos="1800"/>
          <note len="24" key="57" pan="0" vol="78" pos="1824"/>
          <note len="24" key="61" pan="0" vol="78" pos="1848"/>
          <note len="24" key="63" pan="0" vol="78" pos="1872"/>
          <note len="24" key="66" pan="0" vol="78" pos="1896"/>
        </pattern>
        <pattern muted="0" name="" steps="16" type="1" pos="12672">
          <note len="24" key="49" pan="0" vol="78" pos="0"/>
          <note len="12" key="56" pan="0" vol="78" pos="24"/>
          <note len="24" key="49" pan="0" vol="78" pos="48"/>
          <note len="12" key="56" pan="0" vol="78" pos="72"/>
          <note len="12" key="56" pan="0" vol="78" pos="120"/>
          <note len="24" key="49" pan="0" vol="78" pos="144"/>
          <note len="12" key="56" pan="0" vol="78" pos="168"/>
          <note len="12" key="56" pan="0" vol="78" pos="192"/>
          <note len="24" key="61" pan="0" vol="78" pos="216"/>
          <note len="12" key="56" pan="0" vol="78" pos="240"/>
          <note len="12" key="56" pan="0" vol="78" pos="264"/>
          <note len="24" key="49" pan="0" vol="78" pos="288"/>
          <note len="24" key="52" pan="0" vol="78" pos="312"/>
          <note len="24" key="56" pan="0" vol="78" pos="336"/>
          <note len="24" key="61" pan="0" vol="78" pos="360"/>
          <note len="24" key="44" pan="0" vol="78" pos="384"/>
          <note len="24" key="47" pan="0" vol="78" pos="408"/>
          <note len="24" key="44" pan="0" vol="78" pos="432"/>
          <note len="48" key="51" pan="0" vol="78" pos="456"/>
          <note len="24" key="44" pan="0" vol="78" pos="504"/>
          <note len="24" key="47" pan="0" vol="78" pos="528"/>
          <note len="24" key="51" pan="0" vol="78" pos="552"/>
          <note len="24" key="52" pan="0" vol="78" pos="576"/>
          <note len="24" key="51" pan="0" vol="78" pos="600"/>
          <note len="24" key="49" pan="0" vol="78" pos="624"/>
          <note len="24" key="47" pan="0" vol="78" pos="648"/>
          <note len="24" key="51" pan="0" vol="78" pos="672"/>
          <note len="24" key="49" pan="0" vol="78" pos="696"/>
          <note len="24" key="47" pan="0" vol="78" pos="720"/>
          <note len="24" key="44" pan="0" vol="78" pos="744"/>
          <note len="24" key="49" pan="0" vol="78" pos="768"/>
          <note len="12" key="56" pan="0" vol="78" pos="792"/>
          <note len="12" key="56" pan="0" vol="78" pos="816"/>
          <note len="24" key="61" pan="0" vol="78" pos="840"/>
          <note len="12" key="56" pan="0" vol="78" pos="864"/>
          <note len="12" key="56" pan="0" vol="78" pos="888"/>
          <note len="24" key="49" pan="0" vol="78" pos="912"/>
          <note len="12" key="56" pan="0" vol="78" pos="936"/>
          <note len="12" key="56" pan="0" vol="78" pos="960"/>
          <note len="24" key="61" pan="0" vol="78" pos="984"/>
          <note len="12" key="56" pan="0" vol="78" pos="1008"/>
          <note len="24" key="57" pan="0" vol="78" pos="1032"/>
          <note len="24" key="49" pan="0" vol="78" pos="1056"/>
          <note len="24" key="52" pan="0" vol="78" pos="1080"/>
          <note len="24" key="56" pan="0" vol="78" pos="1104"/>
          <note len="24" key="61" pan="0" vol="78" pos="1128"/>
          <note len="24" key="47" pan="0" vol="78" pos="1152"/>
          <note len="24" key="52" pan="0" vol="78" pos="1176"/>
          <note len="24" key="56" pan="0" vol="78" pos="1200"/>
          <note len="48" key="59" pan="0" vol="78" pos="1224"/>
          <note len="24" key="56" pan="0" vol="78" pos="1272"/>
          <note len="24" key="59" pan="0" vol="78" pos="1296"/>
          <note len="24" key="63" pan="0" vol="78" pos="1320"/>
          <note len="24" key="61" pan="0" vol="78" pos="1344"/>
          <note len="24" key="56" pan="0" vol="78" pos="1368"/>
          <note len="24" key="52" pan="0" vol="78" pos="1392"/>
          <note len="24" key="49" pan="0" vol="78" pos="1416"/>
          <note len="24" key="54" pan="0" vol="78" pos="1440"/>
          <note len="24" key="52" pan="0" vol="78" pos="1464"/>
          <note len="24" key="56" pan="0" vol="78" pos="1488"/>
          <note len="24" key="52" pan="0" vol="78" pos="1512"/>
          <note len="96" key="57" pan="0" vol="78" pos="1536"/>
          <note len="24" key="57" pan="0" vol="78" pos="1632"/>
          <note len="24" key="56" pan="0" vol="78" pos="1656"/>
          <note len="24" key="57" pan="0" vol="78" pos="1680"/>
          <note len="24" key="59" pan="0" vol="78" pos="1704"/>
          <note len="72" key="61" pan="0" vol="78" pos="1728"/>
          <note len="72" key="59" pan="0" vol="78" pos="1800"/>
          <note len="48" key="57" pan="0" vol="78" pos="1872"/>
          <note len="24" key="56" pan="0" vol="78" pos="1920"/>
          <note len="24" key="57" pan="0" vol="78" pos="1944"/>
          <note len="24" key="56" pan="0" vol="78" pos="1968"/>
          <note len="48" key="52" pan="0" vol="78" pos="1992"/>
          <note len="24" key="52" pan="0" vol="78" pos="2040"/>
          <note len="24" key="54" pan="0" vol="78" pos="2064"/>
          <note len="24" key="56" pan="0" vol="78" pos="2088"/>
          <note len="96" key="54" pan="0" vol="78" pos="2112"/>
          <note len="48" key="51" pan="0" vol="78" pos="2208"/>
          <note len="48" key="56" pan="0" vol="78" pos="2256"/>
          <note len="24" key="44" pan="0" vol="78" pos="2304"/>
          <note len="24" key="42" pan="0" vol="78" pos="2328"/>
          <note len="24" key="44" pan="0" vol="78" pos="2352"/>
          <note len="24" key="49" pan="0" vol="78" pos="2376"/>
          <note len="48" key="52" pan="0" vol="78" pos="2400"/>
          <note len="24" key="51" pan="0" vol="78" pos="2448"/>
          <note len="24" key="49" pan="0" vol="78" pos="2472"/>
          <note len="24" key="56" pan="0" vol="78" pos="2496"/>
          <note len="24" key="54" pan="0" vol="78" pos="2520"/>
          <note len="24" key="52" pan="0" vol="78" pos="2544"/>
          <note len="24" key="51" pan="0" vol="78" pos="2568"/>
          <note len="24" key="49" pan="0" vol="78" pos="2592"/>
          <note len="24" key="51" pan="0" vol="78" pos="2616"/>
          <note len="24" key="52" pan="0" vol="78" pos="2640"/>
          <note len="24" key="56" pan="0" vol="78" pos="2664"/>
          <note len="48" key="58" pan="0" vol="78" pos="2688"/>
          <note len="48" key="54" pan="0" vol="78" pos="2736"/>
          <note len="48" key="51" pan="0" vol="78" pos="2784"/>
          <note len="48" key="46" pan="0" vol="78" pos="2832"/>
          <note len="24" key="45" pan="0" vol="78" pos="2880"/>
          <note len="24" key="49" pan="0" vol="78" pos="2904"/>
          <note len="24" key="51" pan="0" vol="78" pos="2928"/>
          <note len="24" key="54" pan="0" vol="78" pos="2952"/>
          <note len="24" key="57" pan="0" vol="78" pos="2976"/>
          <note len="24" key="61" pan="0" vol="78" pos="3000"/>
          <note len="24" key="63" pan="0" vol="78" pos="3024"/>
          <note len="24" key="66" pan="0" vol="78" pos="3048"/>
          <note len="144" key="49" pan="0" vol="78" pos="3072"/>
          <note len="48" key="45" pan="0" vol="78" pos="3216"/>
          <note len="96" key="47" pan="0" vol="78" pos="3264"/>
          <note len="96" key="51" pan="0" vol="78" pos="3360"/>
          <note len="48" key="49" pan="0" vol="78" pos="3456"/>
          <note len="48" key="44" pan="0" vol="78" pos="3504"/>
          <note len="48" key="40" pan="0" vol="78" pos="3552"/>
          <note len="48" key="44" pan="0" vol="78" pos="3600"/>
          <note len="48" key="42" pan="0" vol="78" pos="3648"/>
          <note len="48" key="51" pan="0" vol="78" pos="3696"/>
          <note len="24" key="51" pan="0" vol="78" pos="3744"/>
          <note len="24" key="52" pan="0" vol="78" pos="3768"/>
          <note len="24" key="54" pan="0" vol="78" pos="3792"/>
          <note len="24" key="51" pan="0" vol="78" pos="3816"/>
          <note len="96" key="52" pan="0" vol="78" pos="3840"/>
          <note len="48" key="51" pan="0" vol="78" pos="3936"/>
          <note len="48" key="47" pan="0" vol="78" pos="3984"/>
          <note len="48" key="49" pan="0" vol="78" pos="4032"/>
          <note len="48" key="52" pan="0" vol="78" pos="4080"/>
          <note len="48" key="54" pan="0" vol="78" pos="4128"/>
          <note len="48" key="49" pan="0" vol="78" pos="4176"/>
          <note len="48" key="54" pan="0" vol="78" pos="4224"/>
          <note len="48" key="52" pan="0" vol="78" pos="4272"/>
          <note len="48" key="51" pan="0" vol="78" pos="4320"/>
          <note len="48" key="54" pan="0" vol="78" pos="4368"/>
          <note len="24" key="52" pan="0" vol="78" pos="4416"/>
          <note len="24" key="54" pan="0" vol="78" pos="4440"/>
          <note len="24" key="52" pan="0" vol="78" pos="4464"/>
          <note len="24" key="51" pan="0" vol="78" pos="4488"/>
          <note len="24" key="49" pan="0" vol="78" pos="4512"/>
          <note len="24" key="44" pan="0" vol="78" pos="4536"/>
          <note len="24" key="45" pan="0" vol="78" pos="4560"/>
          <note len="24" key="48" pan="0" vol="78" pos="4584"/>
          <note len="48" key="51" pan="0" vol="78" pos="4608"/>
          <note len="48" key="52" pan="0" vol="78" pos="4656"/>
          <note len="48" key="54" pan="0" vol="78" pos="4704"/>
          <note len="48" key="56" pan="0" vol="78" pos="4752"/>
          <note len="48" key="59" pan="0" vol="78" pos="4800"/>
          <note len="48" key="56" pan="0" vol="78" pos="4848"/>
          <note len="48" key="51" pan="0" vol="78" pos="4896"/>
          <note len="48" key="56" pan="0" vol="78" pos="4944"/>
          <note len="48" key="59" pan="0" vol="78" pos="4992"/>
          <note len="48" key="56" pan="0" vol="78" pos="5040"/>
          <note len="48" key="52" pan="0" vol="78" pos="5088"/>
          <note len="48" key="49" pan="0" vol="78" pos="5136"/>
          <note len="24" key="45" pan="0" vol="78" pos="5184"/>
          <note len="24" key="44" pan="0" vol="78" pos="5208"/>
          <note len="24" key="45" pan="0" vol="78" pos="5232"/>
          <note len="24" key="47" pan="0" vol="78" pos="5256"/>
          <note len="24" key="49" pan="0" vol="78" pos="5280"/>
          <note len="24" key="52" pan="0" vol="78" pos="5304"/>
          <note len="24" key="54" pan="0" vol="78" pos="5328"/>
          <note len="24" key="56" pan="0" vol="78" pos="5352"/>
          <note len="72" key="54" pan="0" vol="78" pos="5376"/>
          <note len="24" key="59" pan="0" vol="78" pos="5448"/>
          <note len="48" key="56" pan="0" vol="78" pos="5472"/>
          <note len="24" key="52" pan="0" vol="78" pos="5520"/>
          <note len="24" key="54" pan="0" vol="78" pos="5544"/>
          <note len="48" key="57" pan="0" vol="78" pos="5568"/>
          <note len="48" key="56" pan="0" vol="78" pos="5616"/>
          <note len="48" key="52" pan="0" vol="78" pos="5664"/>
          <note len="48" key="56" pan="0" vol="78" pos="5712"/>
          <note len="192" key="54" pan="0" vol="78" pos="5760"/>
          <note len="24" key="51" pan="0" vol="78" pos="5952"/>
          <note len="24" key="51" pan="0" vol="78" pos="5976"/>
          <note len="24" key="47" pan="0" vol="78" pos="6048"/>
          <note len="24" key="47" pan="0" vol="78" pos="6072"/>
          <note len="336" key="49" pan="0" vol="78" pos="6144"/>
          <note len="48" key="52" pan="0" vol="78" pos="6480"/>
          <note len="288" key="51" pan="0" vol="78" pos="6528"/>
          <note len="48" key="44" pan="0" vol="78" pos="6816"/>
          <note len="48" key="47" pan="0" vol="78" pos="6864"/>
          <note len="240" key="49" pan="0" vol="78" pos="6912"/>
          <note len="48" key="47" pan="0" vol="78" pos="7152"/>
          <note len="48" key="49" pan="0" vol="78" pos="7200"/>
          <note len="48" key="56" pan="0" vol="78" pos="7248"/>
          <note len="192" key="54" pan="0" vol="78" pos="7296"/>
          <note len="48" key="57" pan="0" vol="78" pos="7488"/>
          <note len="24" key="56" pan="0" vol="78" pos="7536"/>
          <note len="12" key="56" pan="0" vol="78" pos="7560"/>
          <note len="12" key="57" pan="0" vol="78" pos="7568"/>
          <note len="12" key="56" pan="0" vol="78" pos="7576"/>
          <note len="48" key="54" pan="0" vol="78" pos="7584"/>
          <note len="48" key="56" pan="0" vol="78" pos="7632"/>
          <note len="240" key="52" pan="0" vol="78" pos="7680"/>
          <note len="48" key="49" pan="0" vol="78" pos="7920"/>
          <note len="48" key="52" pan="0" vol="78" pos="7968"/>
          <note len="48" key="56" pan="0" vol="78" pos="8016"/>
          <note len="192" key="56" pan="0" vol="78" pos="8064"/>
          <note len="144" key="54" pan="0" vol="78" pos="8256"/>
          <note len="48" key="56" pan="0" vol="78" pos="8400"/>
          <note len="240" key="49" pan="0" vol="78" pos="8448"/>
          <note len="48" key="44" pan="0" vol="78" pos="8688"/>
          <note len="48" key="49" pan="0" vol="78" pos="8736"/>
          <note len="48" key="56" pan="0" vol="78" pos="8784"/>
          <note len="192" key="61" pan="0" vol="78" pos="8832"/>
          <note len="192" key="60" pan="0" vol="78" pos="9024"/>
        </pattern>
        <pattern muted="0" name="" steps="16" type="1" pos="36864">
          <note len="24" key="44" pan="0" vol="78" pos="0"/>
          <note len="24" key="47" pan="0" vol="78" pos="24"/>
          <note len="24" key="44" pan="0" vol="78" pos="48"/>
          <note len="48" key="51" pan="0" vol="78" pos="72"/>
          <note len="24" key="44" pan="0" vol="78" pos="120"/>
          <note len="24" key="47" pan="0" vol="78" pos="144"/>
          <note len="24" key="51" pan="0" vol="78" pos="168"/>
          <note len="24" key="52" pan="0" vol="78" pos="192"/>
          <note len="24" key="51" pan="0" vol="78" pos="216"/>
          <note len="24" key="49" pan="0" vol="78" pos="240"/>
          <note len="24" key="47" pan="0" vol="78" pos="264"/>
          <note len="24" key="51" pan="0" vol="78" pos="288"/>
          <note len="24" key="49" pan="0" vol="78" pos="312"/>
          <note len="24" key="47" pan="0" vol="78" pos="336"/>
          <note len="24" key="44" pan="0" vol="78" pos="360"/>
          <note len="96" key="49" pan="0" vol="78" pos="384"/>
        </pattern>
        <pattern muted="0" name="" steps="16" type="1" pos="37632">
          <note len="24" key="47" pan="0" vol="78" pos="0"/>
          <note len="24" key="52" pan="0" vol="78" pos="24"/>
          <note len="24" key="56" pan="0" vol="78" pos="48"/>
          <note len="48" key="59" pan="0" vol="78" pos="72"/>
          <note len="24" key="56" pan="0" vol="78" pos="120"/>
          <note len="24" key="59" pan="0" vol="78" pos="144"/>
          <note len="24" key="63" pan="0" vol="78" pos="168"/>
          <note len="24" key="61" pan="0" vol="78" pos="192"/>
          <note len="24" key="56" pan="0" vol="78" pos="216"/>
          <note len="24" key="52" pan="0" vol="78" pos="240"/>
          <note len="24" key="49" pan="0" vol="78" pos="264"/>
          <note len="24" key="54" pan="0" vol="78" pos="288"/>
          <note len="24" key="52" pan="0" vol="78" pos="312"/>
          <note len="24" key="56" pan="0" vol="78" pos="336"/>
          <note len="24" key="52" pan="0" vol="78" pos="360"/>
          <note len="120" key="57" pan="0" vol="78" pos="384"/>
          <note len="24" key="56" pan="0" vol="78" pos="504"/>
          <note len="24" key="57" pan="0" vol="78" pos="528"/>
          <note len="24" key="59" pan="0" vol="78" pos="552"/>
          <note len="72" key="61" pan="0" vol="78" pos="576"/>
          <note len="72" key="59" pan="0" vol="78" pos="648"/>
          <note len="48" key="57" pan="0" vol="78" pos="720"/>
          <note len="24" key="56" pan="0" vol="78" pos="768"/>
          <note len="24" key="57" pan="0" vol="78" pos="792"/>
          <note len="24" key="56" pan="0" vol="78" pos="816"/>
          <note len="48" key="52" pan="0" vol="78" pos="840"/>
          <note len="24" key="52" pan="0" vol="78" pos="888"/>
          <note len="24" key="54" pan="0" vol="78" pos="912"/>
          <note len="24" key="56" pan="0" vol="78" pos="936"/>
          <note len="96" key="54" pan="0" vol="78" pos="960"/>
          <note len="48" key="51" pan="0" vol="78" pos="1056"/>
          <note len="48" key="56" pan="0" vol="78" pos="1104"/>
          <note len="24" key="44" pan="0" vol="78" pos="1152"/>
          <note len="24" key="42" pan="0" vol="78" pos="1176"/>
          <note len="24" key="44" pan="0" vol="78" pos="1200"/>
          <note len="24" key="49" pan="0" vol="78" pos="1224"/>
          <note len="48" key="52" pan="0" vol="78" pos="1248"/>
          <note len="24" key="51" pan="0" vol="78" pos="1296"/>
          <note len="24" key="49" pan="0" vol="78" pos="1320"/>
          <note len="24" key="56" pan="0" vol="78" pos="1344"/>
          <note len="24" key="54" pan="0" vol="78" pos="1368"/>
          <note len="24" key="52" pan="0" vol="78" pos="1392"/>
          <note len="24" key="51" pan="0" vol="78" pos="1416"/>
          <note len="24" key="49" pan="0" vol="78" pos="1440"/>
          <note len="24" key="51" pan="0" vol="78" pos="1464"/>
          <note len="24" key="52" pan="0" vol="78" pos="1488"/>
          <note len="24" key="56" pan="0" vol="78" pos="1512"/>
          <note len="48" key="58" pan="0" vol="78" pos="1536"/>
          <note len="48" key="54" pan="0" vol="78" pos="1584"/>
          <note len="48" key="51" pan="0" vol="78" pos="1632"/>
          <note len="48" key="46" pan="0" vol="78" pos="1680"/>
          <note len="24" key="45" pan="0" vol="78" pos="1728"/>
          <note len="24" key="49" pan="0" vol="78" pos="1752"/>
          <note len="24" key="51" pan="0" vol="78" pos="1776"/>
          <note len="24" key="54" pan="0" vol="78" pos="1800"/>
          <note len="24" key="57" pan="0" vol="78" pos="1824"/>
          <note len="24" key="61" pan="0" vol="78" pos="1848"/>
          <note len="24" key="63" pan="0" vol="78" pos="1872"/>
          <note len="24" key="66" pan="0" vol="78" pos="1896"/>
        </pattern>
        <pattern muted="0" name="" steps="16" type="1" pos="44160">
          <note len="24" key="49" pan="0" vol="78" pos="0"/>
          <note len="12" key="56" pan="0" vol="78" pos="24"/>
          <note len="24" key="49" pan="0" vol="78" pos="48"/>
          <note len="12" key="56" pan="0" vol="78" pos="72"/>
          <note len="12" key="56" pan="0" vol="78" pos="120"/>
          <note len="24" key="49" pan="0" vol="78" pos="144"/>
          <note len="12" key="56" pan="0" vol="78" pos="168"/>
          <note len="12" key="56" pan="0" vol="78" pos="192"/>
          <note len="24" key="61" pan="0" vol="78" pos="216"/>
          <note len="12" key="56" pan="0" vol="78" pos="240"/>
          <note len="12" key="56" pan="0" vol="78" pos="264"/>
          <note len="24" key="49" pan="0" vol="78" pos="288"/>
          <note len="24" key="52" pan="0" vol="78" pos="312"/>
          <note len="24" key="56" pan="0" vol="78" pos="336"/>
          <note len="24" key="61" pan="0" vol="78" pos="360"/>
          <note len="24" key="44" pan="0" vol="78" pos="384"/>
          <note len="24" key="47" pan="0" vol="78" pos="408"/>
          <note len="24" key="44" pan="0" vol="78" pos="432"/>
          <note len="48" key="51" pan="0" vol="78" pos="456"/>
          <note len="24" key="44" pan="0" vol="78" pos="504"/>
          <note len="24" key="47" pan="0" vol="78" pos="528"/>
          <note len="24" key="51" pan="0" vol="78" pos="552"/>
          <note len="24" key="52" pan="0" vol="78" pos="576"/>
          <note len="24" key="51" pan="0" vol="78" pos="600"/>
          <note len="24" key="49" pan="0" vol="78" pos="624"/>
          <note len="24" key="47" pan="0" vol="78" pos="648"/>
          <note len="24" key="51" pan="0" vol="78" pos="672"/>
          <note len="24" key="49" pan="0" vol="78" pos="696"/>
          <note len="24" key="47" pan="0" vol="78" pos="720"/>
          <note len="24" key="44" pan="0" vol="78" pos="744"/>
          <note len="24" key="49" pan="0" vol="78" pos="768"/>
          <note len="12" key="56" pan="0" vol="78" pos="792"/>
          <note len="12" key="56" pan="0" vol="78" pos="816"/>
          <note len="24" key="61" pan="0" vol="78" pos="840"/>
          <note len="12" key="56" pan="0" vol="78" pos="864"/>
          <note len="12" key="56" pan="0" vol="78" pos="888"/>
          <note len="24" key="49" pan="0" vol="78" pos="912"/>
          <note len="12" key="56" pan="0" vol="78" pos="936"/>
          <note len="12" key="56" pan="0" vol="78" pos="960"/>
          <note len="24" key="61" pan="0" vol="78" pos="984"/>
          <note len="12" key="56" pan="0" vol="78" pos="1008"/>
          <note len="24" key="57" pan="0" vol="78" pos="1032"/>
          <note len="24" key="49" pan="0" vol="78" pos="1056"/>
          <note len="24" key="52" pan="0" vol="78" pos="1080"/>
          <note len="24" key="56" pan="0" vol="78" pos="1104"/>
          <note len="24" key="61" pan="0" vol="78" pos="1128"/>
          <note len="24" key="47" pan="0" vol="78" pos="1152"/>
          <note len="24" key="52" pan="0" vol="78" pos="1176"/>
          <note len="24" key="56" pan="0" vol="78" pos="1200"/>
          <note len="48" key="59" pan="0" vol="78" pos="1224"/>
          <note len="24" key="56" pan="0" vol="78" pos="1272"/>
          <note len="24" key="59" pan="0" vol="78" pos="1296"/>
          <note len="24" key="63" pan="0" vol="78" pos="1320"/>
          <note len="24" key="61" pan="0" vol="78" pos="1344"/>
          <note len="24" key="56" pan="0" vol="78" pos="1368"/>
          <note len="24" key="52" pan="0" vol="78" pos="1392"/>
          <note len="24" key="49" pan="0" vol="78" pos="1416"/>
          <note len="24" key="54" pan="0" vol="78" pos="1440"/>
          <note len="24" key="52" pan="0" vol="78" pos="1464"/>
          <note len="24" key="56" pan="0" vol="78" pos="1488"/>
          <note len="24" key="52" pan="0" vol="78" pos="1512"/>
          <note len="96" key="57" pan="0" vol="78" pos="1536"/>
          <note len="24" key="57" pan="0" vol="78" pos="1632"/>
          <note len="24" key="56" pan="0" vol="78" pos="1656"/>
          <note len="24" key="57" pan="0" vol="78" pos="1680"/>
          <note len="24" key="59" pan="0" vol="78" pos="1704"/>
          <note len="72" key="61" pan="0" vol="78" pos="1728"/>
          <note len="72" key="59" pan="0" vol="78" pos="1800"/>
          <note len="48" key="57" pan="0" vol="78" pos="1872"/>
          <note len="24" key="56" pan="0" vol="78" pos="1920"/>
          <note len="24" key="57" pan="0" vol="78" pos="1944"/>
          <note len="24" key="56" pan="0" vol="78" pos="1968"/>
          <note len="48" key="52" pan="0" vol="78" pos="1992"/>
          <note len="24" key="52" pan="0" vol="78" pos="2040"/>
          <note len="24" key="54" pan="0" vol="78" pos="2064"/>
          <note len="24" key="56" pan="0" vol="78" pos="2088"/>
          <note len="96" key="54" pan="0" vol="78" pos="2112"/>
          <note len="48" key="51" pan="0" vol="78" pos="2208"/>
          <note len="48" key="56" pan="0" vol="78" pos="2256"/>
          <note len="24" key="44" pan="0" vol="78" pos="2304"/>
          <note len="24" key="42" pan="0" vol="78" pos="2328"/>
          <note len="24" key="44" pan="0" vol="78" pos="2352"/>
          <note len="24" key="49" pan="0" vol="78" pos="2376"/>
          <note len="48" key="52" pan="0" vol="78" pos="2400"/>
          <note len="24" key="51" pan="0" vol="78" pos="2448"/>
          <note len="24" key="49" pan="0" vol="78" pos="2472"/>
          <note len="24" key="56" pan="0" vol="78" pos="2496"/>
          <note len="24" key="54" pan="0" vol="78" pos="2520"/>
          <note len="24" key="52" pan="0" vol="78" pos="2544"/>
          <note len="24" key="51" pan="0" vol="78" pos="2568"/>
          <note len="24" key="49" pan="0" vol="78" pos="2592"/>
          <note len="24" key="51" pan="0" vol="78" pos="2616"/>
          <note len="24" key="52" pan="0" vol="78" pos="2640"/>
          <note len="24" key="56" pan="0" vol="78" pos="2664"/>
          <note len="48" key="58" pan="0" vol="78" pos="2688"/>
          <note len="48" key="54" pan="0" vol="78" pos="2736"/>
          <note len="48" key="51" pan="0" vol="78" pos="2784"/>
          <note len="48" key="46" pan="0" vol="78" pos="2832"/>
          <note len="24" key="45" pan="0" vol="78" pos="2880"/>
          <note len="24" key="49" pan="0" vol="78" pos="2904"/>
          <note len="24" key="51" pan="0" vol="78" pos="2928"/>
          <note len="24" key="54" pan="0" vol="78" pos="2952"/>
          <note len="24" key="57" pan="0" vol="78" pos="2976"/>
          <note len="24" key="61" pan="0" vol="78" pos="3000"/>
          <note len="24" key="63" pan="0" vol="78" pos="3024"/>
          <note len="24" key="66" pan="0" vol="78" pos="3048"/>
          <note len="144" key="49" pan="0" vol="78" pos="3072"/>
          <note len="48" key="45" pan="0" vol="78" pos="3216"/>
          <note len="96" key="47" pan="0" vol="78" pos="3264"/>
          <note len="96" key="51" pan="0" vol="78" pos="3360"/>
          <note len="48" key="49" pan="0" vol="78" pos="3456"/>
          <note len="48" key="44" pan="0" vol="78" pos="3504"/>
          <note len="48" key="40" pan="0" vol="78" pos="3552"/>
          <note len="48" key="44" pan="0" vol="78" pos="3600"/>
          <note len="48" key="42" pan="0" vol="78" pos="3648"/>
          <note len="48" key="51" pan="0" vol="78" pos="3696"/>
          <note len="24" key="51" pan="0" vol="78" pos="3744"/>
          <note len="24" key="52" pan="0" vol="78" pos="3768"/>
          <note len="24" key="54" pan="0" vol="78" pos="3792"/>
          <note len="24" key="51" pan="0" vol="78" pos="3816"/>
          <note len="96" key="52" pan="0" vol="78" pos="3840"/>
          <note len="48" key="51" pan="0" vol="78" pos="3936"/>
          <note len="48" key="47" pan="0" vol="78" pos="3984"/>
          <note len="48" key="49" pan="0" vol="78" pos="4032"/>
          <note len="48" key="52" pan="0" vol="78" pos="4080"/>
          <note len="48" key="54" pan="0" vol="78" pos="4128"/>
          <note len="48" key="49" pan="0" vol="78" pos="4176"/>
          <note len="48" key="54" pan="0" vol="78" pos="4224"/>
          <note len="48" key="52" pan="0" vol="78" pos="4272"/>
          <note len="48" key="51" pan="0" vol="78" pos="4320"/>
          <note len="48" key="54" pan="0" vol="78" pos="4368"/>
          <note len="24" key="52" pan="0" vol="78" pos="4416"/>
          <note len="24" key="54" pan="0" vol="78" pos="4440"/>
          <note len="24" key="52" pan="0" vol="78" pos="4464"/>
          <note len="24" key="51" pan="0" vol="78" pos="4488"/>
          <note len="24" key="49" pan="0" vol="78" pos="4512"/>
          <note len="24" key="44" pan="0" vol="78" pos="4536"/>
          <note len="24" key="45" pan="0" vol="78" pos="4560"/>
          <note len="24" key="48" pan="0" vol="78" pos="4584"/>
          <note len="48" key="51" pan="0" vol="78" pos="4608"/>
          <note len="48" key="52" pan="0" vol="78" pos="4656"/>
          <note len="48" key="54" pan="0" vol="78" pos="4704"/>
          <note len="48" key="56" pan="0" vol="78" pos="4752"/>
          <note len="48" key="59" pan="0" vol="78" pos="4800"/>
          <note len="48" key="56" pan="0" vol="78" pos="4848"/>
          <note len="48" key="51" pan="0" vol="78" pos="4896"/>
          <note len="48" key="56" pan="0" vol="78" pos="4944"/>
          <note len="48" key="59" pan="0" vol="78" pos="4992"/>
          <note len="48" key="56" pan="0" vol="78" pos="5040"/>
          <note len="48" key="52" pan="0" vol="78" pos="5088"/>
          <note len="48" key="49" pan="0" vol="78" pos="5136"/>
          <note len="24" key="45" pan="0" vol="78" pos="5184"/>
          <note len="24" key="44" pan="0" vol="78" pos="5208"/>
          <note len="24" key="45" pan="0" vol="78" pos="5232"/>
          <note len="24" key="47" pan="0" vol="78" pos="5256"/>
          <note len="24" key="49" pan="0" vol="78" pos="5280"/>
          <note len="24" key="52" pan="0" vol="78" pos="5304"/>
          <note len="24" key="54" pan="0" vol="78" pos="5328"/>
          <note len="24" key="56" pan="0" vol="78" pos="5352"/>
          <note len="72" key="54" pan="0" vol="78" pos="5376"/>
          <note len="24" key="59" pan="0" vol="78" pos="5448"/>
          <note len="48" key="56" pan="0" vol="78" pos="5472"/>
          <note len="24" key="52" pan="0" vol="78" pos="5520"/>
          <note len="24" key="54" pan="0" vol="78" pos="5544"/>
          <note len="48" key="57" pan="0" vol="78" pos="5568"/>
          <note len="48" key="56" pan="0" vol="78" pos="5616"/>
          <note len="48" key="52" pan="0" vol="78" pos="5664"/>
          <note len="48" key="56" pan="0" vol="78" pos="5712"/>
          <note len="192" key="54" pan="0" vol="78" pos="5760"/>
          <note len="24" key="51" pan="0" vol="78" pos="5952"/>
          <note len="24" key="51" pan="0" vol="78" pos="5976"/>
          <note len="24" key="47" pan="0" vol="78" pos="6048"/>
          <note len="24" key="47" pan="0" vol="78" pos="6072"/>
          <note len="336" key="49" pan="0" vol="78" pos="6144"/>
          <note len="48" key="52" pan="0" vol="78" pos="6480"/>
          <note len="288" key="51" pan="0" vol="78" pos="6528"/>
          <note len="48" key="44" pan="0" vol="78" pos="6816"/>
          <note len="48" key="47" pan="0" vol="78" pos="6864"/>
          <note len="240" key="49" pan="0" vol="78" pos="6912"/>
          <note len="48" key="47" pan="0" vol="78" pos="7152"/>
          <note len="48" key="49" pan="0" vol="78" pos="7200"/>
          <note len="48" key="56" pan="0" vol="78" pos="7248"/>
          <note len="192" key="54" pan="0" vol="78" pos="7296"/>
          <note len="48" key="57" pan="0" vol="78" pos="7488"/>
          <note len="24" key="56" pan="0" vol="78" pos="7536"/>
          <note len="12" key="56" pan="0" vol="78" pos="7560"/>
          <note len="12" key="57" pan="0" vol="78" pos="7568"/>
          <note len="12" key="56" pan="0" vol="78" pos="7576"/>
          <note len="48" key="54" pan="0" vol="78" pos="7584"/>
          <note len="48" key="56" pan="0" vol="78" pos="7632"/>
          <note len="240" key="52" pan="0" vol="78" pos="7680"/>
          <note len="48" key="49" pan="0" vol="78" pos="7920"/>
          <note len="48" key="52" pan="0" vol="78" pos="7968"/>
          <note len="48" key="56" pan="0" vol="78" pos="8016"/>
          <note len="192" key="56" pan="0" vol="78" pos="8064"/>
          <note len="144" key="54" pan="0" vol="78" pos="8256"/>
          <note len="48" key="56" pan="0" vol="78" pos="8400"/>
          <note len="240" key="49" pan="0" vol="78" pos="8448"/>
          <note len="48" key="44" pan="0" vol="78" pos="8688"/>
          <note len="48" key="49" pan="0" vol="78" pos="8736"/>
          <note len="48" key="56" pan="0" vol="78" pos="8784"/>
          <note len="192" key="61" pan="0" vol="78" pos="8832"/>
          <note len="192" key="60" pan="0" vol="78" pos="9024"/>
        </pattern>
        <pattern muted="0" name="" steps="16" type="1" pos="56448">
          <note len="336" key="75" pan="0" vol="78" pos="0"/>
          <note len="336" key="0" pan="0" vol="78" pos="0"/>
          <note len="48" key="78" pan="0" vol="78" pos="336"/>
          <note len="288" key="77" pan="0" vol="78" pos="384"/>
          <note len="48" key="70" pan="0" vol="78" pos="672"/>
          <note len="48" key="73" pan="0" vol="78" pos="720"/>
          <note len="240" key="75" pan="0" vol="78" pos="768"/>
          <note len="48" key="73" pan="0" vol="78" pos="1008"/>
          <note len="48" key="75" pan="0" vol="78" pos="1056"/>
          <note len="48" key="82" pan="0" vol="78" pos="1104"/>
          <note len="192" key="80" pan="0" vol="78" pos="1152"/>
          <note len="48" key="83" pan="0" vol="78" pos="1344"/>
          <note len="48" key="82" pan="0" vol="78" pos="1392"/>
          <note len="48" key="80" pan="0" vol="78" pos="1440"/>
          <note len="48" key="76" pan="0" vol="78" pos="1488"/>
          <note len="144" key="75" pan="0" vol="78" pos="1536"/>
          <note len="24" key="75" pan="0" vol="78" pos="1680"/>
          <note len="24" key="77" pan="0" vol="78" pos="1704"/>
          <note len="96" key="78" pan="0" vol="78" pos="1728"/>
          <note len="24" key="0" pan="0" vol="78" pos="1812"/>
          <note len="12" key="80" pan="0" vol="78" pos="1824"/>
          <note len="84" key="82" pan="0" vol="78" pos="1836"/>
          <note len="24" key="2" pan="0" vol="78" pos="1836"/>
          <note len="24" key="0" pan="0" vol="78" pos="1896"/>
          <note len="156" key="80" pan="0" vol="78" pos="1920"/>
          <note len="12" key="80" pan="0" vol="78" pos="2076"/>
          <note len="12" key="78" pan="0" vol="78" pos="2088"/>
          <note len="12" key="77" pan="0" vol="78" pos="2100"/>
          <note len="96" key="73" pan="0" vol="78" pos="2112"/>
          <note len="48" key="70" pan="0" vol="78" pos="2208"/>
          <note len="48" key="73" pan="0" vol="78" pos="2256"/>
          <note len="120" key="75" pan="0" vol="78" pos="2304"/>
          <note len="24" key="73" pan="0" vol="78" pos="2424"/>
          <note len="24" key="72" pan="0" vol="78" pos="2448"/>
          <note len="24" key="68" pan="0" vol="78" pos="2472"/>
          <note len="96" key="70" pan="0" vol="78" pos="2496"/>
          <note len="96" key="63" pan="0" vol="78" pos="2592"/>
          <note len="12" key="70" pan="0" vol="78" pos="2688"/>
          <note len="12" key="0" pan="0" vol="78" pos="2688"/>
          <note len="84" key="71" pan="0" vol="78" pos="2700"/>
          <note len="12" key="2" pan="0" vol="78" pos="2700"/>
          <note len="12" key="0" pan="0" vol="78" pos="2712"/>
          <note len="96" key="70" pan="0" vol="78" pos="2784"/>
          <note len="96" key="68" pan="0" vol="78" pos="2880"/>
          <note len="96" key="73" pan="0" vol="78" pos="2976"/>
          <note len="48" key="75" pan="0" vol="78" pos="3072"/>
          <note len="48" key="70" pan="0" vol="78" pos="3120"/>
          <note len="48" key="75" pan="0" vol="78" pos="3168"/>
          <note len="48" key="77" pan="0" vol="78" pos="3216"/>
          <note len="48" key="78" pan="0" vol="78" pos="3264"/>
          <note len="48" key="80" pan="0" vol="78" pos="3312"/>
          <note len="48" key="82" pan="0" vol="78" pos="3360"/>
          <note len="48" key="87" pan="0" vol="78" pos="3408"/>
          <note len="144" key="85" pan="0" vol="78" pos="3456"/>
          <note len="12" key="80" pan="0" vol="78" pos="3600"/>
          <note len="12" key="0" pan="0" vol="78" pos="3600"/>
          <note len="36" key="82" pan="0" vol="78" pos="3612"/>
          <note len="12" key="2" pan="0" vol="78" pos="3612"/>
          <note len="12" key="0" pan="0" vol="78" pos="3624"/>
          <note len="96" key="80" pan="0" vol="78" pos="3648"/>
          <note len="48" key="77" pan="0" vol="78" pos="3744"/>
          <note len="48" key="80" pan="0" vol="78" pos="3792"/>
          <note len="24" key="79" pan="0" vol="78" pos="3840"/>
          <note len="24" key="80" pan="0" vol="78" pos="3864"/>
          <note len="24" key="79" pan="0" vol="78" pos="3888"/>
          <note len="24" key="75" pan="0" vol="78" pos="3912"/>
          <note len="24" key="72" pan="0" vol="78" pos="3936"/>
          <note len="24" key="63" pan="0" vol="78" pos="3960"/>
          <note len="24" key="70" pan="0" vol="78" pos="3984"/>
          <note len="24" key="68" pan="0" vol="78" pos="4008"/>
          <note len="96" key="70" pan="0" vol="78" pos="4032"/>
          <note len="96" key="75" pan="0" vol="78" pos="4128"/>
          <note len="192" key="75" pan="0" vol="78" pos="4224"/>
          <note len="96" key="78" pan="0" vol="78" pos="4416"/>
          <note len="96" key="80" pan="0" vol="78" pos="4512"/>
          <note len="192" key="82" pan="0" vol="78" pos="4608"/>
          <note len="16" key="0" pan="0" vol="78" pos="4608"/>
          <note len="16" key="75" pan="0" vol="78" pos="4800"/>
          <note len="16" key="1" pan="0" vol="78" pos="4800"/>
          <note len="16" key="77" pan="0" vol="78" pos="4816"/>
          <note len="16" key="75" pan="0" vol="78" pos="4832"/>
          <note len="16" key="78" pan="0" vol="78" pos="4848"/>
          <note len="16" key="80" pan="0" vol="78" pos="4864"/>
          <note len="16" key="0" pan="0" vol="78" pos="4864"/>
          <note len="16" key="82" pan="0" vol="78" pos="4880"/>
          <note len="16" key="87" pan="0" vol="78" pos="4896"/>
          <note len="16" key="82" pan="0" vol="78" pos="4912"/>
          <note len="16" key="80" pan="0" vol="78" pos="4928"/>
          <note len="16" key="1" pan="0" vol="78" pos="4928"/>
          <note len="16" key="78" pan="0" vol="78" pos="4944"/>
          <note len="16" key="77" pan="0" vol="78" pos="4960"/>
          <note len="16" key="75" pan="0" vol="78" pos="4976"/>
          <note len="48" key="77" pan="0" vol="78" pos="4992"/>
          <note len="192" key="0" pan="0" vol="78" pos="4992"/>
          <note len="48" key="78" pan="0" vol="78" pos="5040"/>
          <note len="48" key="80" pan="0" vol="78" pos="5088"/>
          <note len="48" key="85" pan="0" vol="78" pos="5136"/>
          <note len="96" key="73" pan="0" vol="78" pos="5184"/>
          <note len="12" key="75" pan="0" vol="78" pos="5280"/>
          <note len="12" key="0" pan="0" vol="78" pos="5280"/>
          <note len="84" key="77" pan="0" vol="78" pos="5292"/>
          <note len="12" key="2" pan="0" vol="78" pos="5292"/>
          <note len="12" key="0" pan="0" vol="78" pos="5304"/>
          <note len="96" key="75" pan="0" vol="78" pos="5376"/>
          <note len="96" key="77" pan="0" vol="78" pos="5472"/>
          <note len="96" key="70" pan="0" vol="78" pos="5568"/>
          <note len="96" key="75" pan="0" vol="78" pos="5664"/>
          <note len="96" key="80" pan="0" vol="78" pos="5760"/>
          <note len="96" key="82" pan="0" vol="78" pos="5856"/>
          <note len="96" key="85" pan="0" vol="200" pos="5952"/>
        </pattern>
      </track>
      <track muted="1" name="Violin" type="0" solo="0" mutedBeforeSolo="0">
        <instrumenttrack usemasterpitch="1" pitchrange="2" pitch="0" pan="0" basenote="57" vol="100" fxch="0">
          <instrument name="sf2player">
            <sf2player gain="1" chorusLevel="2" reverbRoomSize="0.2" reverbWidth="0.5" reverbDamping="0" reverbLevel="0.9" chorusSpeed="0.3" chorusOn="0" chorusDepth="8" src="/home/pass/samples/soundfonts/Mystery Dungeon.sf2" chorusNum="3" patch="15" bank="0" reverbOn="0">
              <key/>
            </sf2player>
          </instrument>
          <eldata fcut="14000" fwet="0" fres="0.5" ftype="0">
            <elvol rel="0.1" lspd_syncmode="0" pdel="0" lspd_numerator="4" lpdel="0" amt="0" ctlenvamt="0" lshp="0" userwavefile="" dec="0.5" lspd_denominator="4" sustain="0.5" lspd="0.1" latt="0" hold="0.5" att="0" x100="0" lamt="0"/>
            <elcut rel="0.1" lspd_syncmode="0" pdel="0" lspd_numerator="4" lpdel="0" amt="0" ctlenvamt="0" lshp="0" userwavefile="" dec="0.5" lspd_denominator="4" sustain="0.5" lspd="0.1" latt="0" hold="0.5" att="0" x100="0" lamt="0"/>
            <elres rel="0.1" lspd_syncmode="0" pdel="0" lspd_numerator="4" lpdel="0" amt="0" ctlenvamt="0" lshp="0" userwavefile="" dec="0.5" lspd_denominator="4" sustain="0.5" lspd="0.1" latt="0" hold="0.5" att="0" x100="0" lamt="0"/>
          </eldata>
          <chordcreator chord="0" chordrange="1" chord-enabled="0"/>
          <arpeggiator arptime_denominator="4" arptime="200" arp-enabled="0" arpcycle="0" arpgate="100" arp="0" arpmiss="0" arpdir="0" arprange="1" arpmode="0" arpskip="0" arptime_syncmode="0" arptime_numerator="4"/>
          <midiport inputcontroller="0" fixedinputvelocity="-1" readable="0" outputcontroller="0" fixedoutputnote="-1" outputprogram="1" writable="0" fixedoutputvelocity="-1" basevelocity="63" outputchannel="1" inputchannel="0"/>
          <fxchain enabled="0" numofeffects="0"/>
        </instrumenttrack>
        <pattern muted="0" name="" steps="16" type="1" pos="0">
          <note len="384" key="61" pan="0" vol="78" pos="0"/>
          <note len="192" key="68" pan="0" vol="78" pos="192"/>
          <note len="384" key="64" pan="0" vol="78" pos="384"/>
          <note len="384" key="61" pan="0" vol="78" pos="384"/>
          <note len="384" key="52" pan="0" vol="78" pos="384"/>
          <note len="384" key="63" pan="0" vol="78" pos="768"/>
          <note len="384" key="59" pan="0" vol="78" pos="768"/>
          <note len="384" key="56" pan="0" vol="78" pos="768"/>
          <note len="384" key="61" pan="0" vol="78" pos="1152"/>
          <note len="384" key="56" pan="0" vol="78" pos="1152"/>
          <note len="384" key="49" pan="0" vol="78" pos="1152"/>
          <note len="384" key="59" pan="0" vol="78" pos="1536"/>
          <note len="384" key="57" pan="0" vol="78" pos="1536"/>
          <note len="384" key="49" pan="0" vol="78" pos="1536"/>
          <note len="24" key="64" pan="0" vol="78" pos="1920"/>
          <note len="24" key="56" pan="0" vol="78" pos="1920"/>
          <note len="24" key="64" pan="0" vol="78" pos="1992"/>
          <note len="24" key="56" pan="0" vol="78" pos="1992"/>
          <note len="24" key="64" pan="0" vol="78" pos="2064"/>
          <note len="24" key="56" pan="0" vol="78" pos="2064"/>
          <note len="24" key="64" pan="0" vol="78" pos="2136"/>
          <note len="24" key="56" pan="0" vol="78" pos="2136"/>
          <note len="24" key="64" pan="0" vol="78" pos="2208"/>
          <note len="24" key="56" pan="0" vol="78" pos="2208"/>
          <note len="24" key="64" pan="0" vol="78" pos="2232"/>
          <note len="24" key="56" pan="0" vol="78" pos="2232"/>
          <note len="24" key="64" pan="0" vol="78" pos="2280"/>
          <note len="24" key="56" pan="0" vol="78" pos="2280"/>
          <note len="24" key="63" pan="0" vol="78" pos="2304"/>
          <note len="24" key="56" pan="0" vol="78" pos="2304"/>
          <note len="24" key="63" pan="0" vol="78" pos="2376"/>
          <note len="24" key="56" pan="0" vol="78" pos="2376"/>
          <note len="24" key="63" pan="0" vol="78" pos="2448"/>
          <note len="24" key="56" pan="0" vol="78" pos="2448"/>
          <note len="24" key="63" pan="0" vol="78" pos="2520"/>
          <note len="24" key="56" pan="0" vol="78" pos="2520"/>
          <note len="24" key="63" pan="0" vol="78" pos="2592"/>
          <note len="24" key="56" pan="0" vol="78" pos="2592"/>
          <note len="24" key="63" pan="0" vol="78" pos="2616"/>
          <note len="24" key="56" pan="0" vol="78" pos="2616"/>
          <note len="24" key="63" pan="0" vol="78" pos="2664"/>
          <note len="24" key="56" pan="0" vol="78" pos="2664"/>
          <note len="24" key="61" pan="0" vol="78" pos="2688"/>
          <note len="24" key="58" pan="0" vol="78" pos="2688"/>
          <note len="24" key="61" pan="0" vol="78" pos="2760"/>
          <note len="24" key="58" pan="0" vol="78" pos="2760"/>
          <note len="24" key="61" pan="0" vol="78" pos="2832"/>
          <note len="24" key="58" pan="0" vol="78" pos="2832"/>
          <note len="24" key="61" pan="0" vol="78" pos="2904"/>
          <note len="24" key="58" pan="0" vol="78" pos="2904"/>
          <note len="24" key="61" pan="0" vol="78" pos="2976"/>
          <note len="24" key="58" pan="0" vol="78" pos="2976"/>
          <note len="24" key="61" pan="0" vol="78" pos="3000"/>
          <note len="24" key="58" pan="0" vol="78" pos="3000"/>
          <note len="24" key="61" pan="0" vol="78" pos="3048"/>
          <note len="24" key="58" pan="0" vol="78" pos="3048"/>
          <note len="24" key="61" pan="0" vol="78" pos="3072"/>
          <note len="24" key="57" pan="0" vol="78" pos="3072"/>
          <note len="24" key="61" pan="0" vol="78" pos="3144"/>
          <note len="24" key="57" pan="0" vol="78" pos="3144"/>
          <note len="24" key="61" pan="0" vol="78" pos="3216"/>
          <note len="24" key="57" pan="0" vol="78" pos="3216"/>
          <note len="192" key="69" pan="0" vol="78" pos="3264"/>
          <note len="192" key="61" pan="0" vol="78" pos="3456"/>
          <note len="192" key="61" pan="0" vol="78" pos="3648"/>
          <note len="192" key="61" pan="0" vol="78" pos="3840"/>
          <note len="192" key="59" pan="0" vol="78" pos="4032"/>
          <note len="192" key="61" pan="0" vol="78" pos="4224"/>
          <note len="192" key="61" pan="0" vol="78" pos="4416"/>
          <note len="192" key="61" pan="0" vol="78" pos="4608"/>
          <note len="192" key="59" pan="0" vol="78" pos="4800"/>
        </pattern>
        <pattern muted="0" name="" steps="16" type="1" pos="11136">
          <note len="384" key="59" pan="0" vol="78" pos="0"/>
          <note len="384" key="54" pan="0" vol="78" pos="0"/>
          <note len="384" key="61" pan="0" vol="78" pos="384"/>
          <note len="384" key="56" pan="0" vol="78" pos="384"/>
          <note len="384" key="61" pan="0" vol="78" pos="768"/>
          <note len="384" key="57" pan="0" vol="78" pos="768"/>
          <note len="384" key="63" pan="0" vol="78" pos="1152"/>
          <note len="384" key="59" pan="0" vol="78" pos="1152"/>
          <note len="384" key="61" pan="0" vol="78" pos="1536"/>
          <note len="384" key="56" pan="0" vol="78" pos="1536"/>
          <note len="384" key="52" pan="0" vol="78" pos="1536"/>
          <note len="384" key="59" pan="0" vol="78" pos="1920"/>
          <note len="192" key="54" pan="0" vol="78" pos="1920"/>
          <note len="192" key="51" pan="0" vol="78" pos="1920"/>
          <note len="96" key="52" pan="0" vol="78" pos="2112"/>
          <note len="192" key="47" pan="0" vol="78" pos="2112"/>
          <note len="96" key="54" pan="0" vol="78" pos="2208"/>
          <note len="384" key="61" pan="0" vol="78" pos="2304"/>
          <note len="384" key="56" pan="0" vol="78" pos="2304"/>
          <note len="384" key="52" pan="0" vol="78" pos="2304"/>
          <note len="384" key="66" pan="0" vol="78" pos="2688"/>
          <note len="384" key="59" pan="0" vol="78" pos="2688"/>
          <note len="384" key="54" pan="0" vol="78" pos="2688"/>
          <note len="24" key="61" pan="0" vol="78" pos="3072"/>
          <note len="24" key="57" pan="0" vol="78" pos="3072"/>
          <note len="24" key="61" pan="0" vol="78" pos="3120"/>
          <note len="24" key="57" pan="0" vol="78" pos="3120"/>
          <note len="24" key="61" pan="0" vol="78" pos="3168"/>
          <note len="24" key="57" pan="0" vol="78" pos="3168"/>
          <note len="24" key="61" pan="0" vol="78" pos="3216"/>
          <note len="24" key="57" pan="0" vol="78" pos="3216"/>
          <note len="24" key="61" pan="0" vol="78" pos="3264"/>
          <note len="24" key="57" pan="0" vol="78" pos="3264"/>
          <note len="24" key="61" pan="0" vol="78" pos="3312"/>
          <note len="24" key="57" pan="0" vol="78" pos="3312"/>
          <note len="24" key="61" pan="0" vol="78" pos="3360"/>
          <note len="24" key="57" pan="0" vol="78" pos="3360"/>
          <note len="24" key="61" pan="0" vol="78" pos="3408"/>
          <note len="24" key="57" pan="0" vol="78" pos="3408"/>
          <note len="24" key="61" pan="0" vol="78" pos="3456"/>
          <note len="24" key="56" pan="0" vol="78" pos="3456"/>
          <note len="24" key="52" pan="0" vol="78" pos="3456"/>
          <note len="24" key="61" pan="0" vol="78" pos="3504"/>
          <note len="24" key="56" pan="0" vol="78" pos="3504"/>
          <note len="24" key="52" pan="0" vol="78" pos="3504"/>
          <note len="24" key="61" pan="0" vol="78" pos="3552"/>
          <note len="24" key="56" pan="0" vol="78" pos="3552"/>
          <note len="24" key="52" pan="0" vol="78" pos="3552"/>
          <note len="24" key="61" pan="0" vol="78" pos="3600"/>
          <note len="24" key="56" pan="0" vol="78" pos="3600"/>
          <note len="24" key="52" pan="0" vol="78" pos="3600"/>
          <note len="24" key="61" pan="0" vol="78" pos="3648"/>
          <note len="24" key="56" pan="0" vol="78" pos="3648"/>
          <note len="24" key="51" pan="0" vol="78" pos="3648"/>
          <note len="24" key="61" pan="0" vol="78" pos="3696"/>
          <note len="24" key="56" pan="0" vol="78" pos="3696"/>
          <note len="24" key="51" pan="0" vol="78" pos="3696"/>
          <note len="24" key="61" pan="0" vol="78" pos="3744"/>
          <note len="24" key="56" pan="0" vol="78" pos="3744"/>
          <note len="24" key="51" pan="0" vol="78" pos="3744"/>
          <note len="24" key="61" pan="0" vol="78" pos="3792"/>
          <note len="24" key="56" pan="0" vol="78" pos="3792"/>
          <note len="24" key="51" pan="0" vol="78" pos="3792"/>
        </pattern>
        <pattern muted="0" name="" steps="16" type="1" pos="18816">
          <note len="384" key="59" pan="0" vol="78" pos="0"/>
          <note len="384" key="54" pan="0" vol="78" pos="0"/>
          <note len="384" key="61" pan="0" vol="78" pos="384"/>
          <note len="384" key="56" pan="0" vol="78" pos="384"/>
          <note len="384" key="61" pan="0" vol="78" pos="768"/>
          <note len="384" key="57" pan="0" vol="78" pos="768"/>
          <note len="384" key="63" pan="0" vol="78" pos="1152"/>
          <note len="384" key="59" pan="0" vol="78" pos="1152"/>
          <note len="384" key="59" pan="0" vol="78" pos="1536"/>
          <note len="384" key="54" pan="0" vol="78" pos="1536"/>
          <note len="384" key="61" pan="0" vol="78" pos="1920"/>
          <note len="384" key="56" pan="0" vol="78" pos="1920"/>
          <note len="384" key="61" pan="0" vol="78" pos="2304"/>
          <note len="384" key="57" pan="0" vol="78" pos="2304"/>
          <note len="384" key="63" pan="0" vol="78" pos="2688"/>
          <note len="384" key="59" pan="0" vol="78" pos="2688"/>
          <note len="192" key="56" pan="0" vol="78" pos="3072"/>
          <note len="192" key="52" pan="0" vol="78" pos="3072"/>
          <note len="192" key="54" pan="0" vol="78" pos="3264"/>
          <note len="192" key="51" pan="0" vol="78" pos="3264"/>
          <note len="384" key="56" pan="0" vol="78" pos="3456"/>
          <note len="384" key="52" pan="0" vol="78" pos="3456"/>
          <note len="384" key="49" pan="0" vol="78" pos="3456"/>
          <note len="192" key="56" pan="0" vol="78" pos="3840"/>
          <note len="192" key="49" pan="0" vol="78" pos="3840"/>
          <note len="192" key="47" pan="0" vol="78" pos="3840"/>
          <note len="192" key="54" pan="0" vol="78" pos="4032"/>
          <note len="192" key="51" pan="0" vol="78" pos="4032"/>
          <note len="192" key="47" pan="0" vol="78" pos="4032"/>
          <note len="384" key="49" pan="0" vol="78" pos="4224"/>
          <note len="192" key="47" pan="0" vol="78" pos="4224"/>
          <note len="384" key="44" pan="0" vol="78" pos="4224"/>
          <note len="192" key="56" pan="0" vol="78" pos="4608"/>
          <note len="192" key="47" pan="0" vol="78" pos="4608"/>
          <note len="192" key="57" pan="0" vol="78" pos="4800"/>
          <note len="192" key="49" pan="0" vol="78" pos="4800"/>
          <note len="192" key="59" pan="0" vol="78" pos="4992"/>
          <note len="192" key="52" pan="0" vol="78" pos="4992"/>
          <note len="192" key="64" pan="0" vol="78" pos="5184"/>
          <note len="192" key="56" pan="0" vol="78" pos="5184"/>
          <note len="384" key="61" pan="0" vol="78" pos="5376"/>
          <note len="384" key="54" pan="0" vol="78" pos="5376"/>
          <note len="384" key="61" pan="0" vol="78" pos="5760"/>
          <note len="384" key="52" pan="0" vol="78" pos="5760"/>
          <note len="192" key="68" pan="0" vol="78" pos="6144"/>
          <note len="192" key="64" pan="0" vol="78" pos="6144"/>
          <note len="192" key="66" pan="0" vol="78" pos="6336"/>
          <note len="192" key="63" pan="0" vol="78" pos="6336"/>
          <note len="384" key="68" pan="0" vol="78" pos="6528"/>
          <note len="384" key="64" pan="0" vol="78" pos="6528"/>
          <note len="384" key="61" pan="0" vol="78" pos="6528"/>
          <note len="192" key="68" pan="0" vol="78" pos="6912"/>
          <note len="192" key="61" pan="0" vol="78" pos="6912"/>
          <note len="192" key="59" pan="0" vol="78" pos="6912"/>
          <note len="192" key="66" pan="0" vol="78" pos="7104"/>
          <note len="192" key="63" pan="0" vol="78" pos="7104"/>
          <note len="192" key="59" pan="0" vol="78" pos="7104"/>
          <note len="384" key="61" pan="0" vol="78" pos="7296"/>
          <note len="384" key="58" pan="0" vol="78" pos="7296"/>
          <note len="384" key="56" pan="0" vol="78" pos="7296"/>
          <note len="192" key="68" pan="0" vol="78" pos="7680"/>
          <note len="192" key="59" pan="0" vol="78" pos="7680"/>
          <note len="192" key="69" pan="0" vol="78" pos="7872"/>
          <note len="192" key="61" pan="0" vol="78" pos="7872"/>
          <note len="192" key="71" pan="0" vol="78" pos="8064"/>
          <note len="192" key="64" pan="0" vol="78" pos="8064"/>
          <note len="192" key="76" pan="0" vol="78" pos="8256"/>
          <note len="192" key="68" pan="0" vol="78" pos="8256"/>
          <note len="384" key="73" pan="0" vol="78" pos="8448"/>
          <note len="384" key="66" pan="0" vol="78" pos="8448"/>
          <note len="384" key="73" pan="0" vol="78" pos="8832"/>
          <note len="384" key="64" pan="0" vol="78" pos="8832"/>
          <note len="384" key="68" pan="0" vol="78" pos="9216"/>
          <note len="384" key="61" pan="0" vol="78" pos="9216"/>
          <note len="48" key="49" pan="0" vol="78" pos="9216"/>
          <note len="48" key="45" pan="0" vol="78" pos="9264"/>
          <note len="48" key="47" pan="0" vol="78" pos="9312"/>
          <note len="48" key="49" pan="0" vol="78" pos="9360"/>
          <note len="48" key="51" pan="0" vol="78" pos="9408"/>
          <note len="48" key="52" pan="0" vol="78" pos="9456"/>
          <note len="48" key="51" pan="0" vol="78" pos="9504"/>
          <note len="48" key="47" pan="0" vol="78" pos="9552"/>
          <note len="384" key="68" pan="0" vol="78" pos="9600"/>
          <note len="384" key="61" pan="0" vol="78" pos="9600"/>
          <note len="48" key="49" pan="0" vol="78" pos="9600"/>
          <note len="48" key="47" pan="0" vol="78" pos="9648"/>
          <note len="48" key="49" pan="0" vol="78" pos="9696"/>
          <note len="48" key="51" pan="0" vol="78" pos="9744"/>
          <note len="192" key="56" pan="0" vol="78" pos="9792"/>
          <note len="192" key="56" pan="0" vol="78" pos="9984"/>
          <note len="192" key="52" pan="0" vol="78" pos="9984"/>
          <note len="192" key="57" pan="0" vol="78" pos="10176"/>
          <note len="192" key="54" pan="0" vol="78" pos="10176"/>
          <note len="192" key="59" pan="0" vol="78" pos="10368"/>
          <note len="192" key="56" pan="0" vol="78" pos="10368"/>
          <note len="192" key="54" pan="0" vol="78" pos="10560"/>
          <note len="192" key="49" pan="0" vol="78" pos="10560"/>
          <note len="192" key="56" pan="0" vol="78" pos="10752"/>
          <note len="192" key="52" pan="0" vol="78" pos="10752"/>
          <note len="192" key="57" pan="0" vol="78" pos="10944"/>
          <note len="192" key="54" pan="0" vol="78" pos="10944"/>
          <note len="192" key="59" pan="0" vol="78" pos="11136"/>
          <note len="192" key="56" pan="0" vol="78" pos="11136"/>
          <note len="192" key="54" pan="0" vol="78" pos="11328"/>
          <note len="192" key="51" pan="0" vol="78" pos="11328"/>
          <note len="192" key="54" pan="0" vol="78" pos="11520"/>
          <note len="192" key="49" pan="0" vol="78" pos="11520"/>
          <note len="192" key="61" pan="0" vol="78" pos="11712"/>
          <note len="192" key="56" pan="0" vol="78" pos="11712"/>
          <note len="192" key="59" pan="0" vol="78" pos="11904"/>
          <note len="192" key="54" pan="0" vol="78" pos="11904"/>
          <note len="192" key="57" pan="0" vol="78" pos="12096"/>
          <note len="192" key="52" pan="0" vol="78" pos="12096"/>
          <note len="384" key="56" pan="0" vol="78" pos="12288"/>
          <note len="384" key="51" pan="0" vol="78" pos="12288"/>
          <note len="384" key="56" pan="0" vol="78" pos="12672"/>
          <note len="384" key="47" pan="0" vol="78" pos="12672"/>
          <note len="192" key="56" pan="0" vol="78" pos="13056"/>
          <note len="192" key="52" pan="0" vol="78" pos="13056"/>
          <note len="192" key="57" pan="0" vol="78" pos="13248"/>
          <note len="192" key="54" pan="0" vol="78" pos="13248"/>
          <note len="192" key="59" pan="0" vol="78" pos="13440"/>
          <note len="192" key="56" pan="0" vol="78" pos="13440"/>
          <note len="192" key="54" pan="0" vol="78" pos="13632"/>
          <note len="192" key="49" pan="0" vol="78" pos="13632"/>
          <note len="192" key="56" pan="0" vol="78" pos="13824"/>
          <note len="192" key="52" pan="0" vol="78" pos="13824"/>
          <note len="192" key="57" pan="0" vol="78" pos="14016"/>
          <note len="192" key="54" pan="0" vol="78" pos="14016"/>
          <note len="192" key="59" pan="0" vol="78" pos="14208"/>
          <note len="192" key="56" pan="0" vol="78" pos="14208"/>
          <note len="192" key="54" pan="0" vol="78" pos="14400"/>
          <note len="192" key="51" pan="0" vol="78" pos="14400"/>
          <note len="192" key="54" pan="0" vol="78" pos="14592"/>
          <note len="192" key="49" pan="0" vol="78" pos="14592"/>
          <note len="192" key="61" pan="0" vol="78" pos="14784"/>
          <note len="192" key="56" pan="0" vol="78" pos="14784"/>
          <note len="192" key="59" pan="0" vol="78" pos="14976"/>
          <note len="192" key="54" pan="0" vol="78" pos="14976"/>
          <note len="192" key="57" pan="0" vol="78" pos="15168"/>
          <note len="192" key="52" pan="0" vol="78" pos="15168"/>
          <note len="384" key="56" pan="0" vol="78" pos="15360"/>
          <note len="384" key="51" pan="0" vol="78" pos="15360"/>
          <note len="192" key="56" pan="0" vol="78" pos="15744"/>
          <note len="192" key="47" pan="0" vol="78" pos="15744"/>
          <note len="192" key="61" pan="0" vol="78" pos="16128"/>
          <note len="192" key="61" pan="0" vol="78" pos="16320"/>
          <note len="192" key="61" pan="0" vol="78" pos="16512"/>
          <note len="192" key="59" pan="0" vol="78" pos="16704"/>
          <note len="192" key="61" pan="0" vol="78" pos="16896"/>
          <note len="192" key="61" pan="0" vol="78" pos="17088"/>
          <note len="192" key="61" pan="0" vol="78" pos="17280"/>
          <note len="192" key="59" pan="0" vol="78" pos="17472"/>
        </pattern>
        <pattern muted="0" name="" steps="16" type="1" pos="42624">
          <note len="384" key="59" pan="0" vol="78" pos="0"/>
          <note len="384" key="54" pan="0" vol="78" pos="0"/>
          <note len="384" key="61" pan="0" vol="78" pos="384"/>
          <note len="384" key="56" pan="0" vol="78" pos="384"/>
          <note len="384" key="61" pan="0" vol="78" pos="768"/>
          <note len="384" key="57" pan="0" vol="78" pos="768"/>
          <note len="384" key="63" pan="0" vol="78" pos="1152"/>
          <note len="384" key="59" pan="0" vol="78" pos="1152"/>
          <note len="384" key="61" pan="0" vol="78" pos="1536"/>
          <note len="384" key="56" pan="0" vol="78" pos="1536"/>
          <note len="384" key="52" pan="0" vol="78" pos="1536"/>
          <note len="384" key="59" pan="0" vol="78" pos="1920"/>
          <note len="192" key="54" pan="0" vol="78" pos="1920"/>
          <note len="192" key="51" pan="0" vol="78" pos="1920"/>
          <note len="96" key="52" pan="0" vol="78" pos="2112"/>
          <note len="192" key="47" pan="0" vol="78" pos="2112"/>
          <note len="96" key="54" pan="0" vol="78" pos="2208"/>
          <note len="384" key="61" pan="0" vol="78" pos="2304"/>
          <note len="384" key="56" pan="0" vol="78" pos="2304"/>
          <note len="384" key="52" pan="0" vol="78" pos="2304"/>
          <note len="384" key="66" pan="0" vol="78" pos="2688"/>
          <note len="384" key="59" pan="0" vol="78" pos="2688"/>
          <note len="384" key="54" pan="0" vol="78" pos="2688"/>
          <note len="24" key="61" pan="0" vol="78" pos="3072"/>
          <note len="24" key="57" pan="0" vol="78" pos="3072"/>
          <note len="24" key="61" pan="0" vol="78" pos="3120"/>
          <note len="24" key="57" pan="0" vol="78" pos="3120"/>
          <note len="24" key="61" pan="0" vol="78" pos="3168"/>
          <note len="24" key="57" pan="0" vol="78" pos="3168"/>
          <note len="24" key="61" pan="0" vol="78" pos="3216"/>
          <note len="24" key="57" pan="0" vol="78" pos="3216"/>
          <note len="24" key="61" pan="0" vol="78" pos="3264"/>
          <note len="24" key="57" pan="0" vol="78" pos="3264"/>
          <note len="24" key="61" pan="0" vol="78" pos="3312"/>
          <note len="24" key="57" pan="0" vol="78" pos="3312"/>
          <note len="24" key="61" pan="0" vol="78" pos="3360"/>
          <note len="24" key="57" pan="0" vol="78" pos="3360"/>
          <note len="24" key="61" pan="0" vol="78" pos="3408"/>
          <note len="24" key="57" pan="0" vol="78" pos="3408"/>
          <note len="24" key="61" pan="0" vol="78" pos="3456"/>
          <note len="24" key="56" pan="0" vol="78" pos="3456"/>
          <note len="24" key="52" pan="0" vol="78" pos="3456"/>
          <note len="24" key="61" pan="0" vol="78" pos="3504"/>
          <note len="24" key="56" pan="0" vol="78" pos="3504"/>
          <note len="24" key="52" pan="0" vol="78" pos="3504"/>
          <note len="24" key="61" pan="0" vol="78" pos="3552"/>
          <note len="24" key="56" pan="0" vol="78" pos="3552"/>
          <note len="24" key="52" pan="0" vol="78" pos="3552"/>
          <note len="24" key="61" pan="0" vol="78" pos="3600"/>
          <note len="24" key="56" pan="0" vol="78" pos="3600"/>
          <note len="24" key="52" pan="0" vol="78" pos="3600"/>
          <note len="24" key="61" pan="0" vol="78" pos="3648"/>
          <note len="24" key="56" pan="0" vol="78" pos="3648"/>
          <note len="24" key="51" pan="0" vol="78" pos="3648"/>
          <note len="24" key="61" pan="0" vol="78" pos="3696"/>
          <note len="24" key="56" pan="0" vol="78" pos="3696"/>
          <note len="24" key="51" pan="0" vol="78" pos="3696"/>
          <note len="24" key="61" pan="0" vol="78" pos="3744"/>
          <note len="24" key="56" pan="0" vol="78" pos="3744"/>
          <note len="24" key="51" pan="0" vol="78" pos="3744"/>
          <note len="24" key="61" pan="0" vol="78" pos="3792"/>
          <note len="24" key="56" pan="0" vol="78" pos="3792"/>
          <note len="24" key="51" pan="0" vol="78" pos="3792"/>
        </pattern>
        <pattern muted="0" name="" steps="16" type="1" pos="50304">
          <note len="384" key="59" pan="0" vol="78" pos="0"/>
          <note len="384" key="54" pan="0" vol="78" pos="0"/>
          <note len="384" key="61" pan="0" vol="78" pos="384"/>
          <note len="384" key="56" pan="0" vol="78" pos="384"/>
          <note len="384" key="61" pan="0" vol="78" pos="768"/>
          <note len="384" key="57" pan="0" vol="78" pos="768"/>
          <note len="384" key="63" pan="0" vol="78" pos="1152"/>
          <note len="384" key="59" pan="0" vol="78" pos="1152"/>
          <note len="384" key="59" pan="0" vol="78" pos="1536"/>
          <note len="384" key="54" pan="0" vol="78" pos="1536"/>
          <note len="384" key="61" pan="0" vol="78" pos="1920"/>
          <note len="384" key="56" pan="0" vol="78" pos="1920"/>
          <note len="384" key="61" pan="0" vol="78" pos="2304"/>
          <note len="384" key="57" pan="0" vol="78" pos="2304"/>
          <note len="384" key="63" pan="0" vol="78" pos="2688"/>
          <note len="384" key="59" pan="0" vol="78" pos="2688"/>
          <note len="192" key="56" pan="0" vol="78" pos="3072"/>
          <note len="192" key="52" pan="0" vol="78" pos="3072"/>
          <note len="192" key="54" pan="0" vol="78" pos="3264"/>
          <note len="192" key="51" pan="0" vol="78" pos="3264"/>
          <note len="384" key="56" pan="0" vol="78" pos="3456"/>
          <note len="384" key="52" pan="0" vol="78" pos="3456"/>
          <note len="384" key="49" pan="0" vol="78" pos="3456"/>
          <note len="192" key="56" pan="0" vol="78" pos="3840"/>
          <note len="192" key="49" pan="0" vol="78" pos="3840"/>
          <note len="192" key="47" pan="0" vol="78" pos="3840"/>
          <note len="192" key="54" pan="0" vol="78" pos="4032"/>
          <note len="192" key="51" pan="0" vol="78" pos="4032"/>
          <note len="192" key="47" pan="0" vol="78" pos="4032"/>
          <note len="384" key="49" pan="0" vol="78" pos="4224"/>
          <note len="192" key="47" pan="0" vol="78" pos="4224"/>
          <note len="384" key="44" pan="0" vol="78" pos="4224"/>
          <note len="192" key="56" pan="0" vol="78" pos="4608"/>
          <note len="192" key="47" pan="0" vol="78" pos="4608"/>
          <note len="192" key="57" pan="0" vol="78" pos="4800"/>
          <note len="192" key="49" pan="0" vol="78" pos="4800"/>
          <note len="192" key="59" pan="0" vol="78" pos="4992"/>
          <note len="192" key="52" pan="0" vol="78" pos="4992"/>
          <note len="192" key="64" pan="0" vol="78" pos="5184"/>
          <note len="192" key="56" pan="0" vol="78" pos="5184"/>
          <note len="384" key="61" pan="0" vol="78" pos="5376"/>
          <note len="384" key="54" pan="0" vol="78" pos="5376"/>
          <note len="384" key="61" pan="0" vol="78" pos="5760"/>
          <note len="384" key="52" pan="0" vol="78" pos="5760"/>
          <note len="192" key="68" pan="0" vol="78" pos="6144"/>
          <note len="192" key="64" pan="0" vol="78" pos="6144"/>
          <note len="192" key="66" pan="0" vol="78" pos="6336"/>
          <note len="192" key="63" pan="0" vol="78" pos="6336"/>
          <note len="384" key="68" pan="0" vol="78" pos="6528"/>
          <note len="384" key="64" pan="0" vol="78" pos="6528"/>
          <note len="384" key="61" pan="0" vol="78" pos="6528"/>
          <note len="192" key="68" pan="0" vol="78" pos="6912"/>
          <note len="192" key="61" pan="0" vol="78" pos="6912"/>
          <note len="192" key="59" pan="0" vol="78" pos="6912"/>
          <note len="192" key="66" pan="0" vol="78" pos="7104"/>
          <note len="192" key="63" pan="0" vol="78" pos="7104"/>
          <note len="192" key="59" pan="0" vol="78" pos="7104"/>
          <note len="384" key="61" pan="0" vol="78" pos="7296"/>
          <note len="384" key="58" pan="0" vol="78" pos="7296"/>
          <note len="384" key="56" pan="0" vol="78" pos="7296"/>
          <note len="192" key="68" pan="0" vol="78" pos="7680"/>
          <note len="192" key="59" pan="0" vol="78" pos="7680"/>
          <note len="192" key="69" pan="0" vol="78" pos="7872"/>
          <note len="192" key="61" pan="0" vol="78" pos="7872"/>
          <note len="192" key="71" pan="0" vol="78" pos="8064"/>
          <note len="192" key="64" pan="0" vol="78" pos="8064"/>
          <note len="192" key="76" pan="0" vol="78" pos="8256"/>
          <note len="192" key="68" pan="0" vol="78" pos="8256"/>
          <note len="384" key="73" pan="0" vol="78" pos="8448"/>
          <note len="384" key="66" pan="0" vol="78" pos="8448"/>
          <note len="384" key="73" pan="0" vol="78" pos="8832"/>
          <note len="384" key="64" pan="0" vol="78" pos="8832"/>
          <note len="384" key="68" pan="0" vol="78" pos="9216"/>
          <note len="384" key="61" pan="0" vol="78" pos="9216"/>
          <note len="48" key="49" pan="0" vol="78" pos="9216"/>
          <note len="48" key="45" pan="0" vol="78" pos="9264"/>
          <note len="48" key="47" pan="0" vol="78" pos="9312"/>
          <note len="48" key="49" pan="0" vol="78" pos="9360"/>
          <note len="48" key="51" pan="0" vol="78" pos="9408"/>
          <note len="48" key="52" pan="0" vol="78" pos="9456"/>
          <note len="48" key="51" pan="0" vol="78" pos="9504"/>
          <note len="48" key="47" pan="0" vol="78" pos="9552"/>
          <note len="384" key="68" pan="0" vol="78" pos="9600"/>
          <note len="384" key="61" pan="0" vol="78" pos="9600"/>
          <note len="48" key="49" pan="0" vol="78" pos="9600"/>
          <note len="48" key="47" pan="0" vol="78" pos="9648"/>
          <note len="48" key="49" pan="0" vol="78" pos="9696"/>
          <note len="48" key="51" pan="0" vol="78" pos="9744"/>
          <note len="192" key="56" pan="0" vol="78" pos="9792"/>
          <note len="192" key="56" pan="0" vol="78" pos="9984"/>
          <note len="192" key="52" pan="0" vol="78" pos="9984"/>
          <note len="192" key="57" pan="0" vol="78" pos="10176"/>
          <note len="192" key="54" pan="0" vol="78" pos="10176"/>
          <note len="192" key="59" pan="0" vol="78" pos="10368"/>
          <note len="192" key="56" pan="0" vol="78" pos="10368"/>
          <note len="192" key="54" pan="0" vol="78" pos="10560"/>
          <note len="192" key="49" pan="0" vol="78" pos="10560"/>
          <note len="192" key="56" pan="0" vol="78" pos="10752"/>
          <note len="192" key="52" pan="0" vol="78" pos="10752"/>
          <note len="192" key="57" pan="0" vol="78" pos="10944"/>
          <note len="192" key="54" pan="0" vol="78" pos="10944"/>
          <note len="192" key="59" pan="0" vol="78" pos="11136"/>
          <note len="192" key="56" pan="0" vol="78" pos="11136"/>
          <note len="192" key="54" pan="0" vol="78" pos="11328"/>
          <note len="192" key="51" pan="0" vol="78" pos="11328"/>
          <note len="192" key="54" pan="0" vol="78" pos="11520"/>
          <note len="192" key="49" pan="0" vol="78" pos="11520"/>
          <note len="192" key="61" pan="0" vol="78" pos="11712"/>
          <note len="192" key="56" pan="0" vol="78" pos="11712"/>
          <note len="192" key="59" pan="0" vol="78" pos="11904"/>
          <note len="192" key="54" pan="0" vol="78" pos="11904"/>
          <note len="192" key="57" pan="0" vol="78" pos="12096"/>
          <note len="192" key="52" pan="0" vol="78" pos="12096"/>
          <note len="384" key="56" pan="0" vol="78" pos="12288"/>
          <note len="384" key="51" pan="0" vol="78" pos="12288"/>
          <note len="384" key="56" pan="0" vol="78" pos="12672"/>
          <note len="384" key="47" pan="0" vol="78" pos="12672"/>
          <note len="192" key="56" pan="0" vol="78" pos="13056"/>
          <note len="192" key="52" pan="0" vol="78" pos="13056"/>
          <note len="192" key="57" pan="0" vol="78" pos="13248"/>
          <note len="192" key="54" pan="0" vol="78" pos="13248"/>
          <note len="192" key="59" pan="0" vol="78" pos="13440"/>
          <note len="192" key="56" pan="0" vol="78" pos="13440"/>
          <note len="192" key="54" pan="0" vol="78" pos="13632"/>
          <note len="192" key="49" pan="0" vol="78" pos="13632"/>
          <note len="192" key="56" pan="0" vol="78" pos="13824"/>
          <note len="192" key="52" pan="0" vol="78" pos="13824"/>
          <note len="192" key="57" pan="0" vol="78" pos="14016"/>
          <note len="192" key="54" pan="0" vol="78" pos="14016"/>
          <note len="192" key="59" pan="0" vol="78" pos="14208"/>
          <note len="192" key="56" pan="0" vol="78" pos="14208"/>
          <note len="192" key="54" pan="0" vol="78" pos="14400"/>
          <note len="192" key="51" pan="0" vol="78" pos="14400"/>
          <note len="192" key="54" pan="0" vol="78" pos="14592"/>
          <note len="192" key="49" pan="0" vol="78" pos="14592"/>
          <note len="192" key="61" pan="0" vol="78" pos="14784"/>
          <note len="192" key="56" pan="0" vol="78" pos="14784"/>
          <note len="192" key="59" pan="0" vol="78" pos="14976"/>
          <note len="192" key="54" pan="0" vol="78" pos="14976"/>
          <note len="192" key="57" pan="0" vol="78" pos="15168"/>
          <note len="192" key="52" pan="0" vol="78" pos="15168"/>
          <note len="384" key="56" pan="0" vol="78" pos="15360"/>
          <note len="384" key="51" pan="0" vol="78" pos="15360"/>
          <note len="192" key="56" pan="0" vol="78" pos="15744"/>
          <note len="192" key="47" pan="0" vol="78" pos="15744"/>
          <note len="192" key="61" pan="0" vol="78" pos="16128"/>
          <note len="192" key="61" pan="0" vol="78" pos="16320"/>
          <note len="192" key="61" pan="0" vol="78" pos="16512"/>
          <note len="192" key="59" pan="0" vol="78" pos="16704"/>
          <note len="192" key="61" pan="0" vol="78" pos="16896"/>
          <note len="192" key="61" pan="0" vol="78" pos="17088"/>
          <note len="192" key="61" pan="0" vol="78" pos="17280"/>
          <note len="192" key="59" pan="0" vol="78" pos="17472"/>
          <note len="384" key="73" pan="0" vol="78" pos="17664"/>
          <note len="384" key="61" pan="0" vol="78" pos="17664"/>
          <note len="384" key="73" pan="0" vol="78" pos="18048"/>
          <note len="384" key="61" pan="0" vol="78" pos="18048"/>
          <note len="48" key="73" pan="0" vol="78" pos="18432"/>
          <note len="48" key="61" pan="0" vol="78" pos="18432"/>
        </pattern>
        <pattern muted="0" name="" steps="16" type="1" pos="7296">
          <note len="24" key="69" pan="0" vol="87" pos="0"/>
          <note len="24" key="66" pan="0" vol="87" pos="24"/>
          <note len="24" key="69" pan="0" vol="87" pos="48"/>
          <note len="24" key="73" pan="0" vol="87" pos="72"/>
          <note len="48" key="76" pan="0" vol="87" pos="96"/>
          <note len="24" key="75" pan="0" vol="87" pos="144"/>
          <note len="24" key="73" pan="0" vol="87" pos="168"/>
          <note len="24" key="80" pan="0" vol="87" pos="192"/>
          <note len="24" key="78" pan="0" vol="87" pos="216"/>
          <note len="24" key="76" pan="0" vol="87" pos="240"/>
          <note len="24" key="75" pan="0" vol="87" pos="264"/>
          <note len="24" key="73" pan="0" vol="87" pos="288"/>
          <note len="24" key="75" pan="0" vol="87" pos="312"/>
          <note len="24" key="76" pan="0" vol="87" pos="336"/>
          <note len="24" key="80" pan="0" vol="87" pos="360"/>
          <note len="48" key="82" pan="0" vol="87" pos="384"/>
          <note len="48" key="78" pan="0" vol="87" pos="432"/>
          <note len="48" key="75" pan="0" vol="87" pos="480"/>
          <note len="48" key="70" pan="0" vol="87" pos="528"/>
          <note len="24" key="68" pan="0" vol="87" pos="576"/>
          <note len="24" key="72" pan="0" vol="87" pos="600"/>
          <note len="24" key="75" pan="0" vol="87" pos="624"/>
          <note len="24" key="78" pan="0" vol="87" pos="648"/>
          <note len="24" key="81" pan="0" vol="87" pos="672"/>
          <note len="24" key="84" pan="0" vol="87" pos="696"/>
          <note len="24" key="87" pan="0" vol="87" pos="720"/>
          <note len="24" key="90" pan="0" vol="87" pos="744"/>
        </pattern>
      </track>
      <track muted="1" name="Mystery Dungeon" type="0" solo="0" mutedBeforeSolo="0">
        <instrumenttrack usemasterpitch="1" pitchrange="2" pitch="0" pan="0" basenote="57" vol="100" fxch="0">
          <instrument name="sf2player">
            <sf2player gain="1" chorusLevel="2" reverbRoomSize="0.2" reverbWidth="0.5" reverbDamping="0" reverbLevel="0.9" chorusSpeed="0.3" chorusOn="0" chorusDepth="8" src="/home/pass/samples/soundfonts/Mystery Dungeon.sf2" chorusNum="3" patch="14" bank="0" reverbOn="0">
              <key/>
            </sf2player>
          </instrument>
          <eldata fcut="14000" fwet="0" fres="0.5" ftype="0">
            <elvol rel="0.1" lspd_syncmode="0" pdel="0" lspd_numerator="4" lpdel="0" amt="0" ctlenvamt="0" lshp="0" userwavefile="" dec="0.5" lspd_denominator="4" sustain="0.5" lspd="0.1" latt="0" hold="0.5" att="0" x100="0" lamt="0"/>
            <elcut rel="0.1" lspd_syncmode="0" pdel="0" lspd_numerator="4" lpdel="0" amt="0" ctlenvamt="0" lshp="0" userwavefile="" dec="0.5" lspd_denominator="4" sustain="0.5" lspd="0.1" latt="0" hold="0.5" att="0" x100="0" lamt="0"/>
            <elres rel="0.1" lspd_syncmode="0" pdel="0" lspd_numerator="4" lpdel="0" amt="0" ctlenvamt="0" lshp="0" userwavefile="" dec="0.5" lspd_denominator="4" sustain="0.5" lspd="0.1" latt="0" hold="0.5" att="0" x100="0" lamt="0"/>
          </eldata>
          <chordcreator chord="0" chordrange="1" chord-enabled="0"/>
          <arpeggiator arptime_denominator="4" arptime="200" arp-enabled="0" arpcycle="0" arpgate="100" arp="0" arpmiss="0" arpdir="0" arprange="1" arpmode="0" arpskip="0" arptime_syncmode="0" arptime_numerator="4"/>
          <midiport inputcontroller="0" fixedinputvelocity="-1" readable="0" outputcontroller="0" fixedoutputnote="-1" outputprogram="1" writable="0" fixedoutputvelocity="-1" basevelocity="63" outputchannel="1" inputchannel="0"/>
          <fxchain enabled="0" numofeffects="0"/>
        </instrumenttrack>
        <pattern muted="0" name="Sf2 Player" steps="16" type="1" pos="24960">
          <note len="24" key="73" pan="0" vol="78" pos="0"/>
          <note len="24" key="69" pan="0" vol="78" pos="24"/>
          <note len="24" key="64" pan="0" vol="78" pos="48"/>
          <note len="24" key="61" pan="0" vol="78" pos="72"/>
          <note len="24" key="69" pan="0" vol="78" pos="96"/>
          <note len="24" key="64" pan="0" vol="78" pos="120"/>
          <note len="24" key="61" pan="0" vol="78" pos="144"/>
          <note len="24" key="57" pan="0" vol="78" pos="168"/>
          <note len="24" key="71" pan="0" vol="78" pos="192"/>
          <note len="24" key="68" pan="0" vol="78" pos="216"/>
          <note len="24" key="63" pan="0" vol="78" pos="240"/>
          <note len="24" key="59" pan="0" vol="78" pos="264"/>
          <note len="24" key="71" pan="0" vol="78" pos="288"/>
          <note len="24" key="68" pan="0" vol="78" pos="312"/>
          <note len="24" key="63" pan="0" vol="78" pos="336"/>
          <note len="24" key="59" pan="0" vol="78" pos="360"/>
          <note len="24" key="73" pan="0" vol="78" pos="384"/>
          <note len="24" key="68" pan="0" vol="78" pos="408"/>
          <note len="24" key="64" pan="0" vol="78" pos="432"/>
          <note len="24" key="61" pan="0" vol="78" pos="456"/>
          <note len="24" key="68" pan="0" vol="78" pos="480"/>
          <note len="24" key="64" pan="0" vol="78" pos="504"/>
          <note len="24" key="61" pan="0" vol="78" pos="528"/>
          <note len="24" key="56" pan="0" vol="78" pos="552"/>
          <note len="24" key="73" pan="0" vol="78" pos="576"/>
          <note len="24" key="68" pan="0" vol="78" pos="600"/>
          <note len="24" key="64" pan="0" vol="78" pos="624"/>
          <note len="24" key="61" pan="0" vol="78" pos="648"/>
          <note len="24" key="68" pan="0" vol="78" pos="672"/>
          <note len="24" key="64" pan="0" vol="78" pos="696"/>
          <note len="24" key="61" pan="0" vol="78" pos="720"/>
          <note len="24" key="56" pan="0" vol="78" pos="744"/>
          <note len="24" key="73" pan="0" vol="78" pos="768"/>
          <note len="24" key="68" pan="0" vol="78" pos="792"/>
          <note len="24" key="66" pan="0" vol="78" pos="816"/>
          <note len="24" key="61" pan="0" vol="78" pos="840"/>
          <note len="24" key="68" pan="0" vol="78" pos="864"/>
          <note len="24" key="66" pan="0" vol="78" pos="888"/>
          <note len="24" key="61" pan="0" vol="78" pos="912"/>
          <note len="24" key="59" pan="0" vol="78" pos="936"/>
          <note len="24" key="73" pan="0" vol="78" pos="960"/>
          <note len="24" key="68" pan="0" vol="78" pos="984"/>
          <note len="24" key="66" pan="0" vol="78" pos="1008"/>
          <note len="24" key="61" pan="0" vol="78" pos="1032"/>
          <note len="24" key="68" pan="0" vol="78" pos="1056"/>
          <note len="24" key="66" pan="0" vol="78" pos="1080"/>
          <note len="24" key="61" pan="0" vol="78" pos="1104"/>
          <note len="24" key="57" pan="0" vol="78" pos="1128"/>
          <note len="24" key="73" pan="0" vol="78" pos="1152"/>
          <note len="24" key="70" pan="0" vol="78" pos="1176"/>
          <note len="24" key="66" pan="0" vol="78" pos="1200"/>
          <note len="24" key="61" pan="0" vol="78" pos="1224"/>
          <note len="24" key="70" pan="0" vol="78" pos="1248"/>
          <note len="24" key="66" pan="0" vol="78" pos="1272"/>
          <note len="24" key="61" pan="0" vol="78" pos="1296"/>
          <note len="24" key="58" pan="0" vol="78" pos="1320"/>
          <note len="24" key="73" pan="0" vol="78" pos="1344"/>
          <note len="24" key="70" pan="0" vol="78" pos="1368"/>
          <note len="24" key="66" pan="0" vol="78" pos="1392"/>
          <note len="24" key="61" pan="0" vol="78" pos="1416"/>
          <note len="24" key="70" pan="0" vol="78" pos="1440"/>
          <note len="24" key="66" pan="0" vol="78" pos="1464"/>
          <note len="24" key="61" pan="0" vol="78" pos="1488"/>
          <note len="24" key="58" pan="0" vol="78" pos="1512"/>
          <note len="24" key="73" pan="0" vol="78" pos="1536"/>
          <note len="24" key="69" pan="0" vol="78" pos="1560"/>
          <note len="24" key="66" pan="0" vol="78" pos="1584"/>
          <note len="24" key="61" pan="0" vol="78" pos="1608"/>
          <note len="24" key="69" pan="0" vol="78" pos="1632"/>
          <note len="24" key="66" pan="0" vol="78" pos="1656"/>
          <note len="24" key="61" pan="0" vol="78" pos="1680"/>
          <note len="24" key="57" pan="0" vol="78" pos="1704"/>
          <note len="24" key="73" pan="0" vol="78" pos="1728"/>
          <note len="24" key="69" pan="0" vol="78" pos="1752"/>
          <note len="24" key="66" pan="0" vol="78" pos="1776"/>
          <note len="24" key="61" pan="0" vol="78" pos="1800"/>
          <note len="24" key="69" pan="0" vol="78" pos="1824"/>
          <note len="24" key="66" pan="0" vol="78" pos="1848"/>
          <note len="24" key="61" pan="0" vol="78" pos="1872"/>
          <note len="24" key="57" pan="0" vol="78" pos="1896"/>
          <note len="24" key="73" pan="0" vol="78" pos="1920"/>
          <note len="24" key="69" pan="0" vol="78" pos="1944"/>
          <note len="24" key="66" pan="0" vol="78" pos="1968"/>
          <note len="24" key="61" pan="0" vol="78" pos="1992"/>
          <note len="24" key="69" pan="0" vol="78" pos="2016"/>
          <note len="24" key="66" pan="0" vol="78" pos="2040"/>
          <note len="24" key="61" pan="0" vol="78" pos="2064"/>
          <note len="24" key="57" pan="0" vol="78" pos="2088"/>
          <note len="24" key="69" pan="0" vol="78" pos="2112"/>
          <note len="24" key="73" pan="0" vol="78" pos="2136"/>
          <note len="24" key="76" pan="0" vol="78" pos="2160"/>
          <note len="24" key="73" pan="0" vol="78" pos="2184"/>
          <note len="24" key="78" pan="0" vol="78" pos="2208"/>
          <note len="24" key="73" pan="0" vol="78" pos="2232"/>
          <note len="24" key="78" pan="0" vol="78" pos="2256"/>
          <note len="24" key="73" pan="0" vol="78" pos="2280"/>
          <note len="24" key="78" pan="0" vol="78" pos="2304"/>
          <note len="24" key="71" pan="0" vol="78" pos="2328"/>
          <note len="24" key="78" pan="0" vol="78" pos="2352"/>
          <note len="24" key="71" pan="0" vol="78" pos="2376"/>
          <note len="24" key="78" pan="0" vol="78" pos="2400"/>
          <note len="24" key="71" pan="0" vol="78" pos="2424"/>
          <note len="24" key="78" pan="0" vol="78" pos="2448"/>
          <note len="24" key="71" pan="0" vol="78" pos="2472"/>
          <note len="24" key="73" pan="0" vol="78" pos="2496"/>
          <note len="24" key="69" pan="0" vol="78" pos="2520"/>
          <note len="24" key="66" pan="0" vol="78" pos="2544"/>
          <note len="24" key="61" pan="0" vol="78" pos="2568"/>
          <note len="24" key="69" pan="0" vol="78" pos="2592"/>
          <note len="24" key="66" pan="0" vol="78" pos="2616"/>
          <note len="24" key="61" pan="0" vol="78" pos="2640"/>
          <note len="24" key="57" pan="0" vol="78" pos="2664"/>
          <note len="24" key="73" pan="0" vol="78" pos="2688"/>
          <note len="24" key="69" pan="0" vol="78" pos="2712"/>
          <note len="24" key="66" pan="0" vol="78" pos="2736"/>
          <note len="24" key="61" pan="0" vol="78" pos="2760"/>
          <note len="24" key="69" pan="0" vol="78" pos="2784"/>
          <note len="24" key="66" pan="0" vol="78" pos="2808"/>
          <note len="24" key="61" pan="0" vol="78" pos="2832"/>
          <note len="24" key="57" pan="0" vol="78" pos="2856"/>
          <note len="24" key="73" pan="0" vol="78" pos="2880"/>
          <note len="24" key="69" pan="0" vol="78" pos="2904"/>
          <note len="24" key="66" pan="0" vol="78" pos="2928"/>
          <note len="24" key="61" pan="0" vol="78" pos="2952"/>
          <note len="24" key="69" pan="0" vol="78" pos="2976"/>
          <note len="24" key="66" pan="0" vol="78" pos="3000"/>
          <note len="24" key="61" pan="0" vol="78" pos="3024"/>
          <note len="24" key="57" pan="0" vol="78" pos="3048"/>
        </pattern>
        <pattern muted="0" name="Sf2 Player" steps="16" type="1" pos="56448">
          <note len="24" key="73" pan="0" vol="78" pos="0"/>
          <note len="24" key="69" pan="0" vol="78" pos="24"/>
          <note len="24" key="64" pan="0" vol="78" pos="48"/>
          <note len="24" key="61" pan="0" vol="78" pos="72"/>
          <note len="24" key="69" pan="0" vol="78" pos="96"/>
          <note len="24" key="64" pan="0" vol="78" pos="120"/>
          <note len="24" key="61" pan="0" vol="78" pos="144"/>
          <note len="24" key="57" pan="0" vol="78" pos="168"/>
          <note len="24" key="71" pan="0" vol="78" pos="192"/>
          <note len="24" key="68" pan="0" vol="78" pos="216"/>
          <note len="24" key="63" pan="0" vol="78" pos="240"/>
          <note len="24" key="59" pan="0" vol="78" pos="264"/>
          <note len="24" key="71" pan="0" vol="78" pos="288"/>
          <note len="24" key="68" pan="0" vol="78" pos="312"/>
          <note len="24" key="63" pan="0" vol="78" pos="336"/>
          <note len="24" key="59" pan="0" vol="78" pos="360"/>
          <note len="24" key="73" pan="0" vol="78" pos="384"/>
          <note len="24" key="68" pan="0" vol="78" pos="408"/>
          <note len="24" key="64" pan="0" vol="78" pos="432"/>
          <note len="24" key="61" pan="0" vol="78" pos="456"/>
          <note len="24" key="68" pan="0" vol="78" pos="480"/>
          <note len="24" key="64" pan="0" vol="78" pos="504"/>
          <note len="24" key="61" pan="0" vol="78" pos="528"/>
          <note len="24" key="56" pan="0" vol="78" pos="552"/>
          <note len="24" key="73" pan="0" vol="78" pos="576"/>
          <note len="24" key="68" pan="0" vol="78" pos="600"/>
          <note len="24" key="64" pan="0" vol="78" pos="624"/>
          <note len="24" key="61" pan="0" vol="78" pos="648"/>
          <note len="24" key="68" pan="0" vol="78" pos="672"/>
          <note len="24" key="64" pan="0" vol="78" pos="696"/>
          <note len="24" key="61" pan="0" vol="78" pos="720"/>
          <note len="24" key="56" pan="0" vol="78" pos="744"/>
          <note len="24" key="73" pan="0" vol="78" pos="768"/>
          <note len="24" key="68" pan="0" vol="78" pos="792"/>
          <note len="24" key="66" pan="0" vol="78" pos="816"/>
          <note len="24" key="61" pan="0" vol="78" pos="840"/>
          <note len="24" key="68" pan="0" vol="78" pos="864"/>
          <note len="24" key="66" pan="0" vol="78" pos="888"/>
          <note len="24" key="61" pan="0" vol="78" pos="912"/>
          <note len="24" key="59" pan="0" vol="78" pos="936"/>
          <note len="24" key="73" pan="0" vol="78" pos="960"/>
          <note len="24" key="68" pan="0" vol="78" pos="984"/>
          <note len="24" key="66" pan="0" vol="78" pos="1008"/>
          <note len="24" key="61" pan="0" vol="78" pos="1032"/>
          <note len="24" key="68" pan="0" vol="78" pos="1056"/>
          <note len="24" key="66" pan="0" vol="78" pos="1080"/>
          <note len="24" key="61" pan="0" vol="78" pos="1104"/>
          <note len="24" key="57" pan="0" vol="78" pos="1128"/>
          <note len="24" key="73" pan="0" vol="78" pos="1152"/>
          <note len="24" key="70" pan="0" vol="78" pos="1176"/>
          <note len="24" key="66" pan="0" vol="78" pos="1200"/>
          <note len="24" key="61" pan="0" vol="78" pos="1224"/>
          <note len="24" key="70" pan="0" vol="78" pos="1248"/>
          <note len="24" key="66" pan="0" vol="78" pos="1272"/>
          <note len="24" key="61" pan="0" vol="78" pos="1296"/>
          <note len="24" key="58" pan="0" vol="78" pos="1320"/>
          <note len="24" key="73" pan="0" vol="78" pos="1344"/>
          <note len="24" key="70" pan="0" vol="78" pos="1368"/>
          <note len="24" key="66" pan="0" vol="78" pos="1392"/>
          <note len="24" key="61" pan="0" vol="78" pos="1416"/>
          <note len="24" key="70" pan="0" vol="78" pos="1440"/>
          <note len="24" key="66" pan="0" vol="78" pos="1464"/>
          <note len="24" key="61" pan="0" vol="78" pos="1488"/>
          <note len="24" key="58" pan="0" vol="78" pos="1512"/>
          <note len="24" key="73" pan="0" vol="78" pos="1536"/>
          <note len="24" key="69" pan="0" vol="78" pos="1560"/>
          <note len="24" key="66" pan="0" vol="78" pos="1584"/>
          <note len="24" key="61" pan="0" vol="78" pos="1608"/>
          <note len="24" key="69" pan="0" vol="78" pos="1632"/>
          <note len="24" key="66" pan="0" vol="78" pos="1656"/>
          <note len="24" key="61" pan="0" vol="78" pos="1680"/>
          <note len="24" key="57" pan="0" vol="78" pos="1704"/>
          <note len="24" key="73" pan="0" vol="78" pos="1728"/>
          <note len="24" key="69" pan="0" vol="78" pos="1752"/>
          <note len="24" key="66" pan="0" vol="78" pos="1776"/>
          <note len="24" key="61" pan="0" vol="78" pos="1800"/>
          <note len="24" key="69" pan="0" vol="78" pos="1824"/>
          <note len="24" key="66" pan="0" vol="78" pos="1848"/>
          <note len="24" key="61" pan="0" vol="78" pos="1872"/>
          <note len="24" key="57" pan="0" vol="78" pos="1896"/>
          <note len="24" key="73" pan="0" vol="78" pos="1920"/>
          <note len="24" key="69" pan="0" vol="78" pos="1944"/>
          <note len="24" key="66" pan="0" vol="78" pos="1968"/>
          <note len="24" key="61" pan="0" vol="78" pos="1992"/>
          <note len="24" key="69" pan="0" vol="78" pos="2016"/>
          <note len="24" key="66" pan="0" vol="78" pos="2040"/>
          <note len="24" key="61" pan="0" vol="78" pos="2064"/>
          <note len="24" key="57" pan="0" vol="78" pos="2088"/>
          <note len="24" key="69" pan="0" vol="78" pos="2112"/>
          <note len="24" key="73" pan="0" vol="78" pos="2136"/>
          <note len="24" key="76" pan="0" vol="78" pos="2160"/>
          <note len="24" key="73" pan="0" vol="78" pos="2184"/>
          <note len="24" key="78" pan="0" vol="78" pos="2208"/>
          <note len="24" key="73" pan="0" vol="78" pos="2232"/>
          <note len="24" key="78" pan="0" vol="78" pos="2256"/>
          <note len="24" key="73" pan="0" vol="78" pos="2280"/>
          <note len="24" key="78" pan="0" vol="78" pos="2304"/>
          <note len="24" key="71" pan="0" vol="78" pos="2328"/>
          <note len="24" key="78" pan="0" vol="78" pos="2352"/>
          <note len="24" key="71" pan="0" vol="78" pos="2376"/>
          <note len="24" key="78" pan="0" vol="78" pos="2400"/>
          <note len="24" key="71" pan="0" vol="78" pos="2424"/>
          <note len="24" key="78" pan="0" vol="78" pos="2448"/>
          <note len="24" key="71" pan="0" vol="78" pos="2472"/>
          <note len="24" key="73" pan="0" vol="78" pos="2496"/>
          <note len="24" key="69" pan="0" vol="78" pos="2520"/>
          <note len="24" key="66" pan="0" vol="78" pos="2544"/>
          <note len="24" key="61" pan="0" vol="78" pos="2568"/>
          <note len="24" key="69" pan="0" vol="78" pos="2592"/>
          <note len="24" key="66" pan="0" vol="78" pos="2616"/>
          <note len="24" key="61" pan="0" vol="78" pos="2640"/>
          <note len="24" key="57" pan="0" vol="78" pos="2664"/>
          <note len="24" key="73" pan="0" vol="78" pos="2688"/>
          <note len="24" key="69" pan="0" vol="78" pos="2712"/>
          <note len="24" key="66" pan="0" vol="78" pos="2736"/>
          <note len="24" key="61" pan="0" vol="78" pos="2760"/>
          <note len="24" key="69" pan="0" vol="78" pos="2784"/>
          <note len="24" key="66" pan="0" vol="78" pos="2808"/>
          <note len="24" key="61" pan="0" vol="78" pos="2832"/>
          <note len="24" key="57" pan="0" vol="78" pos="2856"/>
          <note len="24" key="73" pan="0" vol="78" pos="2880"/>
          <note len="24" key="69" pan="0" vol="78" pos="2904"/>
          <note len="24" key="66" pan="0" vol="78" pos="2928"/>
          <note len="24" key="61" pan="0" vol="78" pos="2952"/>
          <note len="24" key="69" pan="0" vol="78" pos="2976"/>
          <note len="24" key="66" pan="0" vol="78" pos="3000"/>
          <note len="24" key="61" pan="0" vol="78" pos="3024"/>
          <note len="24" key="57" pan="0" vol="78" pos="3048"/>
        </pattern>
      </track>
      <track muted="0" name="Beat/Bassline 10" type="1" solo="0" mutedBeforeSolo="0">
        <bbtrack/>
        <bbtco muted="0" len="768" name="" pos="3456"/>
        <bbtco muted="0" len="768" name="" pos="34944"/>
      </track>
      <track muted="0" name="Clone of Beat/Bassline 10" type="1" solo="0" mutedBeforeSolo="0">
        <bbtrack/>
        <bbtco muted="0" len="768" name="" pos="62592"/>
      </track>
      <track muted="0" name="Clone of Beat/Bassline 11" type="1" solo="0" mutedBeforeSolo="0">
        <bbtrack/>
      </track>
      <track muted="0" name="Beat/Bassline 15" type="1" solo="0" mutedBeforeSolo="0">
        <bbtrack/>
        <bbtco muted="0" len="384" name="" pos="3072"/>
      </track>
      <track muted="0" name="Beat/Bassline 16" type="1" solo="0" mutedBeforeSolo="0">
        <bbtrack/>
        <bbtco muted="0" len="192" name="" pos="7872"/>
        <bbtco muted="0" len="192" name="" pos="39360"/>
      </track>
      <track muted="0" name="Beat/Bassline 17" type="1" solo="0" mutedBeforeSolo="0">
        <bbtrack/>
        <bbtco muted="0" len="384" name="" pos="13824"/>
      </track>
      <track muted="0" name="Beat/Bassline 20" type="1" solo="0" mutedBeforeSolo="0">
        <bbtrack/>
        <bbtco muted="0" len="1536" name="" pos="24960"/>
      </track>
      <track muted="0" name="Clone of Beat/Bassline 20" type="1" solo="0" mutedBeforeSolo="0">
        <bbtrack/>
        <bbtco muted="0" len="768" name="" pos="26496"/>
      </track>
      <track muted="0" name="Clone of Clone of Beat/Bassline 20" type="1" solo="0" mutedBeforeSolo="0">
        <bbtrack/>
        <bbtco muted="0" len="768" name="" pos="27264"/>
        <bbtco muted="0" len="576" name="" pos="28032"/>
      </track>
      <track muted="0" name="Beat/Bassline 23" type="1" solo="0" mutedBeforeSolo="0">
        <bbtrack/>
        <bbtco muted="0" len="3072" name="" pos="28800"/>
        <bbtco muted="0" len="3072" name="" pos="56448"/>
      </track>
      <track muted="0" name="Automation track" type="5" solo="0" mutedBeforeSolo="0">
        <automationtrack/>
        <automationpattern mute="0" len="192" name="AM pitchshifter>Effect enabled" tens="1" prog="0" pos="0">
          <time value="0" pos="0"/>
        </automationpattern>
        <automationpattern mute="0" len="192" name="AM pitchshifter>Effect enabled" tens="1" prog="0" pos="13248">
          <time value="1" pos="0"/>
        </automationpattern>
        <automationpattern mute="0" len="192" name="AM pitchshifter>Effect enabled" tens="1" prog="0" pos="13824">
          <time value="0" pos="0"/>
        </automationpattern>
      </track>
      <track muted="1" name="its not over yet kid.wav" type="0" solo="0" mutedBeforeSolo="0">
        <instrumenttrack usemasterpitch="1" pitchrange="1" pitch="0" pan="0" basenote="57" vol="139.2" fxch="0">
          <instrument name="audiofileprocessor">
            <audiofileprocessor reversed="0" looped="0" eframe="1" stutter="0" src="/home/pass/samples/its not over yet kid.wav" lframe="0" sframe="0" amp="100" interp="1">
              <key/>
            </audiofileprocessor>
          </instrument>
          <eldata fcut="14000" fwet="0" fres="0.5" ftype="0">
            <elvol rel="0.1" lspd_syncmode="0" pdel="0" lspd_numerator="4" lpdel="0" amt="0" ctlenvamt="0" lshp="0" userwavefile="" dec="0.5" lspd_denominator="4" sustain="0.5" lspd="0.1" latt="0" hold="0.5" att="0" x100="0" lamt="0"/>
            <elcut rel="0.1" lspd_syncmode="0" pdel="0" lspd_numerator="4" lpdel="0" amt="0" ctlenvamt="0" lshp="0" userwavefile="" dec="0.5" lspd_denominator="4" sustain="0.5" lspd="0.1" latt="0" hold="0.5" att="0" x100="0" lamt="0"/>
            <elres rel="0.1" lspd_syncmode="0" pdel="0" lspd_numerator="4" lpdel="0" amt="0" ctlenvamt="0" lshp="0" userwavefile="" dec="0.5" lspd_denominator="4" sustain="0.5" lspd="0.1" latt="0" hold="0.5" att="0" x100="0" lamt="0"/>
          </eldata>
          <chordcreator chord="0" chordrange="1" chord-enabled="0"/>
          <arpeggiator arptime_denominator="4" arptime="200" arp-enabled="0" arpcycle="0" arpgate="100" arp="0" arpmiss="0" arpdir="0" arprange="1" arpmode="0" arpskip="0" arptime_syncmode="0" arptime_numerator="4"/>
          <midiport inputcontroller="0" fixedinputvelocity="-1" readable="0" outputcontroller="0" fixedoutputnote="-1" outputprogram="1" writable="0" fixedoutputvelocity="-1" basevelocity="63" outputchannel="1" inputchannel="0"/>
          <fxchain enabled="0" numofeffects="0"/>
        </instrumenttrack>
        <pattern muted="0" name="" steps="16" type="1" pos="43584">
          <note len="756" key="57" pan="0" vol="78" pos="0"/>
        </pattern>
      </track>
      <track muted="0" name="Beat/Bassline 25" type="1" solo="0" mutedBeforeSolo="0">
        <bbtrack/>
        <bbtco muted="0" len="192" name="" pos="47040"/>
      </track>
      <track muted="0" name="Beat/Bassline 26" type="1" solo="0" mutedBeforeSolo="0">
        <bbtrack/>
        <bbtco muted="0" len="2880" name="" pos="50304"/>
      </track>
      <track muted="0" name="Beat/Bassline 28" type="1" solo="0" mutedBeforeSolo="0">
        <bbtrack/>
        <bbtco muted="0" len="192" name="" pos="53184"/>
      </track>
      <track muted="0" name="Beat/Bassline 32" type="1" solo="0" mutedBeforeSolo="0">
        <bbtrack/>
      </track>
      <track muted="0" name="Beat/Bassline 33" type="1" solo="0" mutedBeforeSolo="0">
        <bbtrack/>
      </track>
      <track muted="0" name="lgtH1" type="2" solo="0" mutedBeforeSolo="0">
        <sampletrack pan="-84" vol="100" fxch="21">
          <fxchain enabled="0" numofeffects="0"/>
        </sampletrack>
        <sampletco muted="0" len="86688" sample_rate="44100" src="/home/pass/Music/ardour projects/scourge of the universe/export/lgtH1.wav" pos="0" off="0"/>
      </track>
      <track muted="0" name="Beat/Bassline 34" type="1" solo="0" mutedBeforeSolo="0">
        <bbtrack/>
        <bbtco muted="0" len="768" name="" pos="63744"/>
      </track>
      <track muted="0" name="rgt1" type="2" solo="0" mutedBeforeSolo="0">
        <sampletrack pan="-100" vol="100" fxch="19">
          <fxchain enabled="0" numofeffects="0"/>
        </sampletrack>
        <sampletco muted="0" len="86688" sample_rate="44100" src="/home/pass/Music/ardour projects/scourge of the universe/export/rgt1.wav" pos="0" off="0"/>
      </track>
      <track muted="0" name="rgt2" type="2" solo="0" mutedBeforeSolo="0">
        <sampletrack pan="100" vol="100" fxch="19">
          <fxchain enabled="0" numofeffects="0"/>
        </sampletrack>
        <sampletco muted="0" len="86688" sample_rate="44100" src="/home/pass/Music/ardour projects/scourge of the universe/export/rgt2.wav" pos="0" off="0"/>
      </track>
      <track muted="0" name="lgtS" type="2" solo="0" mutedBeforeSolo="0">
        <sampletrack pan="0" vol="100" fxch="20">
          <fxchain enabled="0" numofeffects="0"/>
        </sampletrack>
        <sampletco muted="0" len="86688" sample_rate="44100" src="/home/pass/Music/ardour projects/scourge of the universe/export/lgtS.wav" pos="0" off="0"/>
      </track>
      <track muted="0" name="Automation track" type="5" solo="0" mutedBeforeSolo="0">
        <automationtrack/>
      </track>
      <track muted="0" name="lgtH2" type="2" solo="0" mutedBeforeSolo="0">
        <sampletrack pan="100" vol="100" fxch="21">
          <fxchain enabled="0" numofeffects="0"/>
        </sampletrack>
        <sampletco muted="0" len="86688" sample_rate="44100" src="/home/pass/Music/ardour projects/scourge of the universe/export/lgtH2.wav" pos="0" off="0"/>
      </track>
    </trackcontainer>
    <track muted="0" name="Automation track" type="6" solo="0" mutedBeforeSolo="0">
      <automationtrack/>
      <automationpattern mute="0" len="192" name="Numerator" tens="1" prog="0" pos="0"/>
      <automationpattern mute="0" len="192" name="Denominator" tens="1" prog="0" pos="0"/>
      <automationpattern mute="0" len="192" name="Tempo" tens="1" prog="0" pos="0"/>
      <automationpattern mute="0" len="192" name="Master volume" tens="1" prog="0" pos="0"/>
      <automationpattern mute="0" len="192" name="Master pitch" tens="1" prog="0" pos="0"/>
      <automationpattern mute="0" len="192" name="Numerator" tens="1" prog="0" pos="0">
        <time value="4" pos="0"/>
        <object id="545120"/>
      </automationpattern>
      <automationpattern mute="0" len="192" name="Denominator" tens="1" prog="0" pos="0">
        <time value="4" pos="0"/>
        <object id="114903"/>
      </automationpattern>
      <automationpattern mute="0" len="192" name="Tempo" tens="1" prog="0" pos="0">
        <time value="184.001" pos="0"/>
        <object id="2356958"/>
      </automationpattern>
    </track>
    <fxmixer visible="0" maximized="0" y="133" width="1260" height="333" minimized="0" x="42">
      <fxchannel muted="0" soloed="0" name="Master" volume="0.535" num="0">
        <fxchain enabled="1" numofeffects="2">
          <effect wet="1" autoquit_denominator="4" autoquit="1" name="vsteffect" on="0" autoquit_syncmode="0" gate="0" autoquit_numerator="4">
            <vsteffectcontrols program="0" chunk="AACAP+tR2D4AAIA/16OwPgAAgD/rUdg+AACAP9ejsD4AAAA/AAAAPwAAgD8AAAA/AACAPwAAAD8AAIA/AACAPwAAgD9kZWZhdWx0AG1ldGVycz4AYQAAAEZSRUVIAUkAOAFJAAAAgD8AAAAAAAAAAAAAAAAAAIA/AAAAAAAAAAAAAAAAAAAAPwAAAD8AAIA/AAAAAAAAgD8AAAA/AACAPwAAgD8AAIA/cGlubmluZyBkb3duAHM+AGEAAABGUkVFSAFJADgBSQAAAIA/AAAAAM3MTD8AAAAAAACAPwAAAADNzEw/AAAAAAAAAAAAAIA/AACAPwAAgD8AAIA/AAAAPwAAgD8AAIA/AAAAAGJpZyBwaWN0dXJlAABzPgBhAAAARlJFRUgBSQA4AUkAAACAPwAAAADNzEw/AAAAAAAAgD8AAAAAzcxMPwAAAAAAAAA/AAAAPwAAgD8AAAAAAACAPwAAAD8AAIA/AACAPwAAAAB2b2NhbHMgZmFzdAAAcz4AYQAAAEZSRUVIAUkAOAFJAAAAgD8AAAAAAACAPwAAAAAAAIA/AAAAAAAAgD8AAAAAAAAAPwAAAD8AAIA/AAAAPwAAgD8AAAA/AACAPwAAgD8AAAAAdm9jYWxzIHNsb3cAAHM+AGEAAABGUkVFSAFJADgBSQAAAIA/AAAAAM3MzD4AAAAAAACAPwAAAADNzMw+AAAAAAAAgD8AAIA/AACAPwAAgD8AAIA/AAAAPwAAAAAAAIA/AACAP3N1bW1pbmcAbG93AABzPgBhAAAARlJFRUgBSQA4AUkAAACAPwAAAADNzEw/AAAAAAAAgD8AAAAAzcxMPwAAAAAAAIA/AAAAPwAAgD8AAIA/AACAPwAAAD8AAIA/AACAPwAAAABnbHVlaW5nAGxvdwAAcz4AYQAAAEZSRUVIAUkAOAFJAAAAgD8AAAAAzcxMPwAAAAAAAIA/AAAAAM3MTD8AAAAAAAAAAAAAgD8AAIA/AAAAPwAAgD8AAIA/AACAPwAAgD8AAAAAbGFyZ2VyIHRoYW4gbGlmZQAAAABGUkVFSAFJADgBSQAAAIA/AAAAAAAAAAAAAAAAAACAPwAAAAAAAAAAAAAAAAAAAD8AAAA/AAAAPwAAgD8AAIA/AAAAPwAAAAAAAIA/AAAAAHNjaG5pdHplbCBOWSBzdHlsZQAARlJFRUgBSQA4AUkAAACAPwAAAADNzEw/AAAAAAAAgD8AAAAAzcxMPwAAAAAAAAA/AAAAPwAAgD8AAAAAAACAPwAAAD8AAAAAAACAPwAAAABzY2huaXR6ZWwgV2llbgB5bGUAAEZSRUVIAUkAOAFJAAAAgD8AAAAAAAAAAAAAAAAAAIA/AAAAAAAAAAAAAAAAAAAAPwAAAD8AAAAAAAAAPwAAgD8AAAA/AAAAAAAAgD8AAAAAc2lnbmFsIHBhdGggb25seQBlAABGUkVFSAFJADgBSQAAAAAAAAAAAAAAAAAehSs+AAAAAAAAAAAAAAAAHoUrPgAAAD8AAAA/AACAPwAAAAAAAIA/AAAAPwAAAAAAAIA/AAAAAG5vbi1saW4gYW1wAG9ubHkAZQAARlJFRUgBSQA4AUkAAACAPwAAAAAAAIA/AAAAAAAAgD8AAAAAzcxMPwAAAAAAAAAAAAAAPwAAgD8AAAA/AACAPwAAgD8AAIA/AACAPwAAAABNL1MgMmJ1cwBtcABvbmx5AGUAAEZSRUVIAUkAOAFJAAAAgD8AAAAAzcxMPgAAAAAAAIA/AAAAAAAAAAAAAAAAAAAAAPYoLD8AAIA/uB49PwAAgD8AAIA/AAAAAAAAgD8AAAAATS9TIGRydW1zAHAAb25seQBlAABGUkVFSAFJADgBSQAAAIA/CtcjO83MzD4AAAAAAACAPwrXIzvNzMw+AAAAAAAAAD8AAAA/AACAPwAAAD8AAIA/AAAAPwAAgD8AAIA/AACAP0EAUyBkcnVtcwBwAG9ubHkAZQAARlJFRUgBSQA4AUkAAACAPwAAAADNzMw+AAAAAAAAgD8AAAAAzczMPgAAAAAAAAA/KVz/PgAAgD8AAAA/AACAPwAAAD8AAIA/AACAPwAAgD9CAFMgZHJ1bXMAcABvbmx5AGUAAEZSRUVIAUkAOAFJAA==" guivisible="0" plugin="VST32/_EFFECTS/VoS_PlugIns_Complete/VoS_PlugIns_Complete/DensitymkIII_3.0/DensitymkIII.dll"/>
            <key>
              <attribute name="file" value="VST32/_EFFECTS/VoS_PlugIns_Complete/VoS_PlugIns_Complete/DensitymkIII_3.0/DensitymkIII.dll"/>
            </key>
          </effect>
          <effect wet="1" autoquit_denominator="4" autoquit="1" name="ladspaeffect" on="0" autoquit_syncmode="0" gate="0" autoquit_numerator="4">
            <ladspacontrols link="1" ports="8">
              <port00 link="1">
                <data id="4483585" scale_type="log" value="0.001"/>
              </port00>
              <port01 data="0.852" link="1"/>
              <port02 data_numerator="4" data="28.75" data_syncmode="0" link="1" data_denominator="4"/>
              <port03 data_numerator="4" data="81.25" data_syncmode="0" link="1" data_denominator="4"/>
              <port10>
                <data id="3091659" scale_type="log" value="0.001"/>
              </port10>
              <port11 data="0.852"/>
              <port12 data_numerator="4" data="28.75" data_syncmode="0" data_denominator="4"/>
              <port13 data_numerator="4" data="81.25" data_syncmode="0" data_denominator="4"/>
            </ladspacontrols>
            <key>
              <attribute name="file" value="cmt"/>
              <attribute name="plugin" value="compress_rms"/>
            </key>
          </effect>
        </fxchain>
      </fxchannel>
      <fxchannel muted="0" soloed="0" name="kick" volume="0.814" num="1">
        <fxchain enabled="1" numofeffects="1">
          <effect wet="1" autoquit_denominator="4" autoquit="1" name="eq" on="0" autoquit_syncmode="0" gate="0" autoquit_numerator="4">
            <Eq LPres="0.707" Peak3gain="0" HighShelfres="1.4" LP12="1" Peak2gain="0" Peak2active="0" HP48="0" HP="0" HPres="0.707" LP24="0" AnalyseIn="1" Peak2bw="0.3" LP48="0" HP24="0" Highshelfactive="0" Peak3bw="0.3" Peak4gain="5.58" Lowshelfgain="0" Peak1active="0" LPactive="0" LowShelfres="1.4" Peak4bw="2.553" Peak3active="0" Peak4active="1" HighShelfgain="0" Peak1bw="0.3" Lowshelfactive="0" Outputgain="0" LP="0" AnalyseOut="1" HP12="1" HPactive="0">
              <Inputgain id="7505604" scale_type="log" value="0"/>
              <Peak1gain id="6986816" scale_type="log" value="0"/>
              <HPfreq id="665393" scale_type="log" value="31"/>
              <LowShelffreq id="4312043" scale_type="log" value="80"/>
              <Peak1freq id="4038170" scale_type="log" value="120"/>
              <Peak2freq id="3517898" scale_type="log" value="250"/>
              <Peak3freq id="5433300" scale_type="log" value="2000"/>
              <Peak4freq id="5587655" scale_type="log" value="4592.62"/>
              <Highshelffreq id="2177796" scale_type="log" value="12000"/>
              <LPfreq id="7051440" scale_type="log" value="18000"/>
            </Eq>
            <key/>
          </effect>
        </fxchain>
        <send amount="0.356" channel="10"/>
        <send amount="1" channel="11"/>
      </fxchannel>
      <fxchannel muted="0" soloed="0" name="hat" volume="1.325" num="2">
        <fxchain enabled="1" numofeffects="1">
          <effect wet="1" autoquit_denominator="4" autoquit="1" name="eq" on="0" autoquit_syncmode="0" gate="0" autoquit_numerator="4">
            <Eq LPres="0.707" Peak3gain="-18" HighShelfres="1.4" LP12="1" Peak2gain="0" Peak2active="0" HP48="0" HP="0" HPres="0.707" LP24="0" AnalyseIn="1" Peak2bw="0.3" LP48="0" HP24="0" Highshelfactive="1" Peak3bw="0.3" Peak4gain="0" Lowshelfgain="0" Peak1active="0" LPactive="1" LowShelfres="1.4" Peak4bw="0.3" Peak3active="1" Peak4active="0" HighShelfgain="-2.88" Peak1bw="0.3" Lowshelfactive="0" Outputgain="0" LP="0" AnalyseOut="1" HP12="1" HPactive="1">
              <Inputgain id="8286259" scale_type="log" value="0"/>
              <Peak1gain id="723187" scale_type="log" value="0"/>
              <HPfreq id="900875" scale_type="log" value="894.05"/>
              <LowShelffreq id="3000889" scale_type="log" value="80"/>
              <Peak1freq id="5937238" scale_type="log" value="120"/>
              <Peak2freq id="1946923" scale_type="log" value="250"/>
              <Peak3freq id="1131236" scale_type="log" value="957.26"/>
              <Peak4freq id="5567039" scale_type="log" value="4000"/>
              <Highshelffreq id="1520587" scale_type="log" value="4356.94"/>
              <LPfreq id="504196" scale_type="log" value="16132.3"/>
            </Eq>
            <key/>
          </effect>
        </fxchain>
        <send amount="0.504" channel="10"/>
        <send amount="1" channel="11"/>
      </fxchannel>
      <fxchannel muted="0" soloed="0" name="snare" volume="0.783" num="3">
        <fxchain enabled="1" numofeffects="2">
          <effect wet="1" autoquit_denominator="4" autoquit="1" name="eq" on="0" autoquit_syncmode="0" gate="0" autoquit_numerator="4">
            <Eq LPres="0.707" Peak3gain="0" HighShelfres="1.435" LP12="1" Peak2gain="0" Peak2active="0" HP48="0" HP="0" HPres="0.707" LP24="0" AnalyseIn="1" Peak2bw="0.3" LP48="0" HP24="0" Highshelfactive="1" Peak3bw="0.3" Peak4gain="-0.718001" Lowshelfgain="0" Peak1active="0" LPactive="1" LowShelfres="1.4" Peak4bw="0.3" Peak3active="0" Peak4active="1" HighShelfgain="1.98" Peak1bw="0.3" Lowshelfactive="0" Outputgain="0" LP="0" AnalyseOut="1" HP12="1" HPactive="0">
              <Inputgain id="6753652" scale_type="log" value="0"/>
              <Peak1gain id="8257704" scale_type="log" value="0"/>
              <HPfreq id="2234845" scale_type="log" value="31"/>
              <LowShelffreq id="5016811" scale_type="log" value="80"/>
              <Peak1freq id="5537746" scale_type="log" value="120"/>
              <Peak2freq id="6539813" scale_type="log" value="250"/>
              <Peak3freq id="6999518" scale_type="log" value="2000"/>
              <Peak4freq id="770028" scale_type="log" value="4000"/>
              <Highshelffreq id="3686018" scale_type="log" value="2615.23"/>
              <LPfreq id="7588449" scale_type="log" value="20000"/>
            </Eq>
            <key/>
          </effect>
          <effect wet="1" autoquit_denominator="4" autoquit="1" name="ladspaeffect" on="0" autoquit_syncmode="0" gate="0" autoquit_numerator="4">
            <ladspacontrols ports="11">
              <port04 data="0"/>
              <port05 data="1"/>
              <port010 data="0.124855"/>
              <port011 data="1"/>
              <port012>
                <data id="3395685" scale_type="log" value="0.01"/>
              </port012>
              <port013>
                <data id="1858960" scale_type="log" value="0.0100001"/>
              </port013>
              <port014 data="1.75597"/>
              <port015 data="1"/>
              <port016 data="0"/>
              <port017 data="0"/>
              <port019 data="1"/>
            </ladspacontrols>
            <key>
              <attribute name="file" value="veal"/>
              <attribute name="plugin" value="Compressor"/>
            </key>
          </effect>
        </fxchain>
        <send amount="0.292" channel="10"/>
        <send amount="1" channel="11"/>
      </fxchannel>
      <fxchannel muted="0" soloed="0" name="crash1" volume="0.661" num="4">
        <fxchain enabled="0" numofeffects="0"/>
        <send amount="0.724" channel="10"/>
        <send amount="1" channel="11"/>
      </fxchannel>
      <fxchannel muted="0" soloed="0" name="crash2" volume="1.301" num="5">
        <fxchain enabled="0" numofeffects="0"/>
        <send amount="0.76" channel="10"/>
        <send amount="1" channel="11"/>
      </fxchannel>
      <fxchannel muted="0" soloed="0" name="china" volume="0.884" num="6">
        <fxchain enabled="0" numofeffects="0"/>
        <send amount="0.292" channel="10"/>
        <send amount="1" channel="11"/>
      </fxchannel>
      <fxchannel muted="0" soloed="0" name="hitom" volume="0.512" num="7">
        <fxchain enabled="0" numofeffects="0"/>
        <send amount="0.212" channel="10"/>
        <send amount="1" channel="11"/>
      </fxchannel>
      <fxchannel muted="0" soloed="0" name="midtom" volume="0.534" num="8">
        <fxchain enabled="0" numofeffects="0"/>
        <send amount="0.236" channel="10"/>
        <send amount="1" channel="11"/>
      </fxchannel>
      <fxchannel muted="0" soloed="0" name="lotom" volume="0.418" num="9">
        <fxchain enabled="0" numofeffects="0"/>
        <send amount="0.212" channel="10"/>
        <send amount="1" channel="11"/>
      </fxchannel>
      <fxchannel muted="0" soloed="0" name="DRUM PLATE" volume="0.558" num="10">
        <fxchain enabled="1" numofeffects="2">
          <effect wet="1" autoquit_denominator="4" autoquit="1" name="ladspaeffect" on="1" autoquit_syncmode="0" gate="0" autoquit_numerator="4">
            <ladspacontrols ports="4">
              <port02 data="0.76538"/>
              <port03 data="0.145119"/>
              <port04 data="0.0005"/>
              <port05 data="1"/>
            </ladspacontrols>
            <key>
              <attribute name="file" value="caps"/>
              <attribute name="plugin" value="Plate2x2"/>
            </key>
          </effect>
          <effect wet="1" autoquit_denominator="4" autoquit="1" name="eq" on="1" autoquit_syncmode="0" gate="0" autoquit_numerator="4">
            <Eq LPres="0.707" Peak3gain="0" HighShelfres="1.4" LP12="1" Peak2gain="0" Peak2active="0" HP48="0" HP="0" HPres="0.707" LP24="0" AnalyseIn="1" Peak2bw="0.3" LP48="0" HP24="0" Highshelfactive="1" Peak3bw="0.3" Peak4gain="0.36" Lowshelfgain="0" Peak1active="0" LPactive="0" LowShelfres="1.4" Peak4bw="0.3" Peak3active="0" Peak4active="1" HighShelfgain="1.62" Peak1bw="0.3" Lowshelfactive="0" Outputgain="0" LP="0" AnalyseOut="1" HP12="1" HPactive="1">
              <Inputgain id="217936" scale_type="log" value="0"/>
              <Peak1gain id="1412862" scale_type="log" value="0"/>
              <HPfreq id="7725025" scale_type="log" value="175.669"/>
              <LowShelffreq id="399642" scale_type="log" value="80"/>
              <Peak1freq id="3213708" scale_type="log" value="120"/>
              <Peak2freq id="1180890" scale_type="log" value="250"/>
              <Peak3freq id="5654965" scale_type="log" value="2000"/>
              <Peak4freq id="757114" scale_type="log" value="3592.47"/>
              <Highshelffreq id="3326661" scale_type="log" value="610.728"/>
              <LPfreq id="825391" scale_type="log" value="18000"/>
            </Eq>
            <key/>
          </effect>
        </fxchain>
        <send amount="1" channel="11"/>
      </fxchannel>
      <fxchannel muted="0" soloed="0" name="drums" volume="0.628" num="11">
        <fxchain enabled="1" numofeffects="1">
          <effect wet="1" autoquit_denominator="4" autoquit="1" name="eq" on="1" autoquit_syncmode="0" gate="0" autoquit_numerator="4">
            <Eq LPres="0.707" Peak3gain="0" HighShelfres="1.4" LP12="1" Peak2gain="0" Peak2active="0" HP48="0" HP="0" HPres="0.707" LP24="0" AnalyseIn="1" Peak2bw="0.3" LP48="0" HP24="0" Highshelfactive="1" Peak3bw="0.3" Peak4gain="0" Lowshelfgain="0" Peak1active="0" LPactive="0" LowShelfres="1.4" Peak4bw="0.3" Peak3active="0" Peak4active="0" HighShelfgain="1.26" Peak1bw="0.3" Lowshelfactive="0" Outputgain="0" LP="0" AnalyseOut="1" HP12="1" HPactive="0">
              <Inputgain id="8074890" scale_type="log" value="0"/>
              <Peak1gain id="4825748" scale_type="log" value="0"/>
              <HPfreq id="618770" scale_type="log" value="31"/>
              <LowShelffreq id="3601803" scale_type="log" value="80"/>
              <Peak1freq id="7411357" scale_type="log" value="120"/>
              <Peak2freq id="3122808" scale_type="log" value="250"/>
              <Peak3freq id="4290153" scale_type="log" value="2000"/>
              <Peak4freq id="2847248" scale_type="log" value="4000"/>
              <Highshelffreq id="4241610" scale_type="log" value="1045.16"/>
              <LPfreq id="7599285" scale_type="log" value="18000"/>
            </Eq>
            <key/>
          </effect>
        </fxchain>
        <send amount="1" channel="0"/>
        <send amount="1" channel="25"/>
      </fxchannel>
      <fxchannel muted="0" soloed="0" name="rhythm guitar" volume="0.601" num="12">
        <fxchain enabled="1" numofeffects="7">
          <effect wet="1" autoquit_denominator="4" autoquit="1" name="ladspaeffect" on="1" autoquit_syncmode="0" gate="0" autoquit_numerator="4">
            <ladspacontrols link="1" ports="4">
              <port00 link="1">
                <data id="7309738" scale_type="log" value="1.00288"/>
              </port00>
              <port01 data="4" link="1"/>
              <port10>
                <data id="4894491" scale_type="log" value="1.00288"/>
              </port10>
              <port11 data="4"/>
            </ladspacontrols>
            <key>
              <attribute name="file" value="am_pitchshift_1433"/>
              <attribute name="plugin" value="amPitchshift"/>
            </key>
          </effect>
          <effect wet="1" autoquit_denominator="4" autoquit="1" name="ladspaeffect" on="1" autoquit_syncmode="0" gate="0" autoquit_numerator="4">
            <ladspacontrols link="1" ports="4">
              <port00 link="1">
                <data id="2205805" scale_type="log" value="5798.41"/>
              </port00>
              <port01 data="0.34715" link="1"/>
              <port10>
                <data id="1377170" scale_type="log" value="5798.41"/>
              </port10>
              <port11 data="0.34715"/>
            </ladspacontrols>
            <key>
              <attribute name="file" value="butterworth_1902"/>
              <attribute name="plugin" value="buttlow_iir"/>
            </key>
          </effect>
          <effect wet="1" autoquit_denominator="4" autoquit="1" name="ladspaeffect" on="0" autoquit_syncmode="0" gate="0" autoquit_numerator="4">
            <ladspacontrols link="1" ports="14">
              <port01 data="2" link="1"/>
              <port02 data="2.88" link="1"/>
              <port03 data="0.5" link="1"/>
              <port04 data="0" link="1"/>
              <port05 data="0.955" link="1"/>
              <port06 data="1" link="1"/>
              <port07 data="0.750025" link="1"/>
              <port11 data="2"/>
              <port12 data="2.88"/>
              <port13 data="0.5"/>
              <port14 data="0"/>
              <port15 data="0.955"/>
              <port16 data="1"/>
              <port17 data="0.750025"/>
            </ladspacontrols>
            <key>
              <attribute name="file" value="caps"/>
              <attribute name="plugin" value="AmpVTS"/>
            </key>
          </effect>
          <effect wet="1" autoquit_denominator="4" autoquit="1" name="waveshaper" on="1" autoquit_syncmode="0" gate="0" autoquit_numerator="4">
            <waveshapercontrols inputGain="3.5" outputGain="0.87" clipInput="1" waveShape="AACAPwAAgD8AAIA/AACAPwAAgD8AAIA/AACAPwAAgD8AAIA/AACAPwAAgD8AAIA/AACAPwAAgD8AAIA/AACAPwAAgD8AAIA/AACAPwAAgD8AAIA/AACAPwAAgD8AAIA/AACAPwAAgD8AAIA/AACAPwAAgD8AAIA/AACAPwAAgD8AAIA/AACAPwAAgD8AAIA/AACAPwAAgD8AAIA/AACAPwAAgD8AAIA/AACAPwAAgD8AAIA/AACAPwAAgD8AAIA/AACAPwAAgD8AAIA/AACAPwAAgD8AAIA/AACAPwAAgD8AAIA/AACAPwAAgD8AAIA/AACAPwAAgD8AAIA/AACAPwAAgD8AAIA/AACAPwAAgD8AAIA/AACAPwAAgD8AAIA/AACAPwAAgD8AAIA/AACAPwAAgD8AAIA/AACAPwAAgD8AAIA/AACAPwAAgD8AAIA/AACAPwAAgD8AAIA/AACAPwAAgD8AAIA/AACAPwAAgD8AAIA/AACAPwAAgD8AAIA/AACAPwAAgD8AAIA/AACAPwAAgD8AAIA/AACAPwAAgD8AAIA/AACAPwAAgD8AAIA/AACAPwAAgD8AAIA/AACAPwAAgD8AAIA/AACAPwAAgD8AAIA/AACAPwAAgD8AAIA/AACAPwAAgD8AAIA/AACAPwAAgD8AAIA/AACAPwAAgD8AAIA/AACAPwAAgD8AAIA/AACAPwAAgD8AAIA/AACAPwAAgD8AAIA/AACAPwAAgD8AAIA/AACAPwAAgD8AAIA/AACAPwAAgD8AAIA/AACAPwAAgD8AAIA/AACAPwAAgD8AAIA/AACAPwAAgD8AAIA/AACAPwAAgD8AAIA/AACAPwAAgD8AAIA/AACAPwAAgD8AAIA/AACAPwAAgD8AAIA/AACAPwAAgD8AAIA/AACAPwAAgD8AAIA/AACAPwAAgD8AAIA/AACAPwAAgD8AAIA/AACAPwAAgD8AAIA/AACAPwAAgD8AAIA/AACAPwAAgD8AAIA/AACAPwAAgD8AAIA/AACAPwAAgD8AAIA/AACAPwAAgD8AAIA/AACAPwAAgD8="/>
            <key/>
          </effect>
          <effect wet="1" autoquit_denominator="4" autoquit="1" name="ladspaeffect" on="1" autoquit_syncmode="0" gate="0" autoquit_numerator="4">
            <ladspacontrols link="1" ports="4">
              <port00 link="1">
                <data id="4291918" scale_type="log" value="7184.77"/>
              </port00>
              <port01 data="7" link="1"/>
              <port10>
                <data id="511769" scale_type="log" value="7184.77"/>
              </port10>
              <port11 data="7"/>
            </ladspacontrols>
            <key>
              <attribute name="file" value="lowpass_iir_1891"/>
              <attribute name="plugin" value="lowpass_iir"/>
            </key>
          </effect>
          <effect wet="1" autoquit_denominator="4" autoquit="1" name="ladspaeffect" on="1" autoquit_syncmode="0" gate="0" autoquit_numerator="4">
            <ladspacontrols link="1" ports="4">
              <port00 link="1">
                <data id="5546061" scale_type="log" value="84.3225"/>
              </port00>
              <port01 data="1.0218" link="1"/>
              <port10>
                <data id="1977316" scale_type="log" value="84.3225"/>
              </port10>
              <port11 data="1.0218"/>
            </ladspacontrols>
            <key>
              <attribute name="file" value="butterworth_1902"/>
              <attribute name="plugin" value="butthigh_iir"/>
            </key>
          </effect>
          <effect wet="1" autoquit_denominator="4" autoquit="1" name="ladspaeffect" on="1" autoquit_syncmode="0" gate="0" autoquit_numerator="4">
            <ladspacontrols link="1" ports="4">
              <port01 data="5" link="1"/>
              <port02 data="0" link="1"/>
              <port11 data="5"/>
              <port12 data="0"/>
            </ladspacontrols>
            <key>
              <attribute name="file" value="caps"/>
              <attribute name="plugin" value="CabinetII"/>
            </key>
          </effect>
        </fxchain>
        <send amount="1" channel="0"/>
      </fxchannel>
      <fxchannel muted="0" soloed="0" name="lgt" volume="0.853" num="13">
        <fxchain enabled="1" numofeffects="5">
          <effect wet="1" autoquit_denominator="4" autoquit="1" name="ladspaeffect" autoquit_syncmode="0" gate="0" autoquit_numerator="4">
            <on id="2786011" scale_type="linear" value="0"/>
            <ladspacontrols link="1" ports="4">
              <port00 link="1">
                <data id="485849" scale_type="log" value="1"/>
              </port00>
              <port01 data="4" link="1"/>
              <port10>
                <data id="4168014" scale_type="log" value="1"/>
              </port10>
              <port11 data="4"/>
            </ladspacontrols>
            <key>
              <attribute name="file" value="am_pitchshift_1433"/>
              <attribute name="plugin" value="amPitchshift"/>
            </key>
          </effect>
          <effect wet="1" autoquit_denominator="4" autoquit="1" name="ladspaeffect" on="1" autoquit_syncmode="0" gate="0" autoquit_numerator="4">
            <ladspacontrols link="1" ports="4">
              <port00 link="1">
                <data id="354059" scale_type="log" value="13230"/>
              </port00>
              <port01 data="1" link="1"/>
              <port10>
                <data id="451672" scale_type="log" value="13230"/>
              </port10>
              <port11 data="1"/>
            </ladspacontrols>
            <key>
              <attribute name="file" value="pointer_cast_1910"/>
              <attribute name="plugin" value="pointerCastDistortion"/>
            </key>
          </effect>
          <effect wet="1" autoquit_denominator="4" autoquit="1" name="waveshaper" on="0" autoquit_syncmode="0" gate="0" autoquit_numerator="4">
            <waveshapercontrols inputGain="1.14" outputGain="0.3" clipInput="0" waveShape="AACAPwAAgD8AAIA/AACAPwAAgD8AAIA/AACAPwAAgD8AAIA/AACAPwAAgD8AAIA/AACAPwAAgD8AAIA/AACAPwAAgD8AAIA/AACAPwAAgD8AAIA/AACAPwAAgD8AAIA/AACAPwAAgD8AAIA/AACAPwAAgD8AAIA/AACAPwAAgD8AAIA/AACAPwAAgD8AAIA/AACAPwAAgD8AAIA/AACAPwAAgD8AAIA/AACAPwAAgD8AAIA/AACAPwAAgD8AAIA/AACAPwAAgD8AAIA/AACAPwAAgD8AAIA/AACAPwAAgD8AAIA/AACAPwAAgD8AAIA/AACAPwAAgD8AAIA/AACAPwAAgD8AAIA/AACAPwAAgD8AAIA/AACAPwAAgD8AAIA/AACAPwAAgD8AAIA/AACAPwAAgD8AAIA/AACAPwAAgD8AAIA/AACAPwAAgD8AAIA/AACAPwAAgD8AAIA/AACAPwAAgD8AAIA/AACAPwAAgD8AAIA/AACAPwAAgD8AAIA/AACAPwAAgD8AAIA/AACAPwAAgD8AAIA/AACAPwAAgD8AAIA/AACAPwAAgD8AAIA/AACAPwAAgD8AAIA/AACAPwAAgD8AAIA/AACAPwAAgD8AAIA/AACAPwAAgD8AAIA/AACAPwAAgD8AAIA/AACAPwAAgD8AAIA/AACAPwAAgD8AAIA/AACAPwAAgD8AAIA/AACAPwAAgD8AAIA/AACAPwAAgD8AAIA/AACAPwAAgD8AAIA/AACAPwAAgD8AAIA/AACAPwAAgD8AAIA/AACAPwAAgD8AAIA/AACAPwAAgD8AAIA/AACAPwAAgD8AAIA/AACAPwAAgD8AAIA/AACAPwAAgD8AAIA/AACAPwAAgD8AAIA/AACAPwAAgD8AAIA/AACAPwAAgD8AAIA/AACAPwAAgD8AAIA/AACAPwAAgD8AAIA/AACAPwAAgD8AAIA/AACAPwAAgD8AAIA/AACAPwAAgD8AAIA/AACAPwAAgD8AAIA/AACAP8aSfz+MJX8/Urh+P1K4fj9SuH4/Urh+P/YofD/2KHw/Urh+PwAAgD8="/>
            <key/>
          </effect>
          <effect wet="1" autoquit_denominator="4" autoquit="1" name="ladspaeffect" on="1" autoquit_syncmode="0" gate="0" autoquit_numerator="4">
            <ladspacontrols link="1" ports="4">
              <port01 data="1" link="1"/>
              <port02 data="0" link="1"/>
              <port11 data="1"/>
              <port12 data="0"/>
            </ladspacontrols>
            <key>
              <attribute name="file" value="caps"/>
              <attribute name="plugin" value="CabinetII"/>
            </key>
          </effect>
          <effect wet="1" autoquit_denominator="4" autoquit="1" name="ladspaeffect" on="0" autoquit_syncmode="0" gate="0" autoquit_numerator="4">
            <ladspacontrols ports="1">
              <port02 data="0.29125"/>
            </ladspacontrols>
            <key>
              <attribute name="file" value="caps"/>
              <attribute name="plugin" value="Narrower"/>
            </key>
          </effect>
        </fxchain>
        <send amount="1" channel="0"/>
        <send amount="0.484" channel="14"/>
      </fxchannel>
      <fxchannel muted="0" soloed="0" name="gt_delay" volume="0.766" num="14">
        <fxchain enabled="1" numofeffects="2">
          <effect wet="1" autoquit_denominator="4" autoquit="1" name="ladspaeffect" on="1" autoquit_syncmode="0" gate="0" autoquit_numerator="4">
            <ladspacontrols link="0" ports="4">
              <port00 data_numerator="4" data="112.5" data_syncmode="0" link="0" data_denominator="4"/>
              <port01 data_numerator="4" data="0" data_syncmode="0" link="0" data_denominator="4"/>
              <port10 data_numerator="4" data="301.25" data_syncmode="0" data_denominator="4"/>
              <port11 data_numerator="4" data="0" data_syncmode="0" data_denominator="4"/>
            </ladspacontrols>
            <key>
              <attribute name="file" value="mod_delay_1419"/>
              <attribute name="plugin" value="modDelay"/>
            </key>
          </effect>
          <effect wet="1" autoquit_denominator="4" autoquit="1" name="amplifier" on="1" autoquit_syncmode="0" gate="0" autoquit_numerator="4">
            <AmplifierControls right="100" left="100" pan="0">
              <volume id="4844454" scale_type="linear" value="2.32734"/>
            </AmplifierControls>
            <key/>
          </effect>
        </fxchain>
        <send amount="1" channel="0"/>
      </fxchannel>
      <fxchannel muted="0" soloed="0" name="bass" volume="1" num="15">
        <fxchain enabled="1" numofeffects="1">
          <effect wet="1" autoquit_denominator="4" autoquit="1" name="eq" on="0" autoquit_syncmode="0" gate="0" autoquit_numerator="4">
            <Eq LPres="0.707" Peak3gain="18" HighShelfres="1.4" LP12="1" Peak2gain="18" Peak2active="1" HP48="0" HP="0" HPres="0.707" LP24="0" AnalyseIn="1" Peak2bw="2.866" LP48="0" HP24="0" Highshelfactive="0" Peak3bw="1.828" Peak4gain="5.76" Lowshelfgain="-6.477" Peak1active="0" LPactive="0" LowShelfres="1.21" Peak4bw="0.811" Peak3active="1" Peak4active="1" HighShelfgain="0" Peak1bw="0.3" Lowshelfactive="1" Outputgain="8" LP="0" AnalyseOut="1" HP12="1" HPactive="0">
              <Inputgain id="1928132" scale_type="log" value="0"/>
              <Peak1gain id="5028906" scale_type="log" value="0"/>
              <HPfreq id="6101787" scale_type="log" value="24.795"/>
              <LowShelffreq id="5056230" scale_type="log" value="179.84"/>
              <Peak1freq id="3218393" scale_type="log" value="120"/>
              <Peak2freq id="4083145" scale_type="log" value="8057.72"/>
              <Peak3freq id="4897974" scale_type="log" value="4557.45"/>
              <Peak4freq id="5404987" scale_type="log" value="4000"/>
              <Highshelffreq id="3053663" scale_type="log" value="12000"/>
              <LPfreq id="1445410" scale_type="log" value="18000"/>
            </Eq>
            <key/>
          </effect>
        </fxchain>
        <send amount="1" channel="0"/>
      </fxchannel>
      <fxchannel muted="0" soloed="0" name="synthStrings" volume="0.79" num="16">
        <fxchain enabled="0" numofeffects="0"/>
        <send amount="1" channel="0"/>
      </fxchannel>
      <fxchannel muted="0" soloed="0" name="dist synth lead 1" volume="0.557" num="17">
        <fxchain enabled="1" numofeffects="2">
          <effect wet="1" autoquit_denominator="4" autoquit="1" name="amplifier" on="1" autoquit_syncmode="0" gate="0" autoquit_numerator="4">
            <AmplifierControls right="100" left="100" volume="32" pan="0"/>
            <key/>
          </effect>
          <effect wet="1" autoquit_denominator="4" autoquit="1" name="ladspaeffect" on="1" autoquit_syncmode="0" gate="0" autoquit_numerator="4">
            <ladspacontrols link="1" ports="4">
              <port00 link="1">
                <data id="2359947" scale_type="log" value="3846.59"/>
              </port00>
              <port01 data="0.755" link="1"/>
              <port10>
                <data id="1056123" scale_type="log" value="3846.59"/>
              </port10>
              <port11 data="0.755"/>
            </ladspacontrols>
            <key>
              <attribute name="file" value="butterworth_1902"/>
              <attribute name="plugin" value="buttlow_iir"/>
            </key>
          </effect>
        </fxchain>
        <send amount="1" channel="0"/>
      </fxchannel>
      <fxchannel muted="0" soloed="0" name="FX 17" volume="1" num="18">
        <fxchain enabled="0" numofeffects="0"/>
        <send amount="1" channel="0"/>
      </fxchannel>
      <fxchannel muted="0" soloed="0" name="rgt_bounced" volume="0.907" num="19">
        <fxchain enabled="1" numofeffects="2">
          <effect wet="1" autoquit_denominator="4" autoquit="1" name="amplifier" on="1" autoquit_syncmode="0" gate="0" autoquit_numerator="4">
            <AmplifierControls right="100" left="100" volume="200" pan="0"/>
            <key/>
          </effect>
          <effect wet="1" autoquit_denominator="4" autoquit="1" name="eq" on="1" autoquit_syncmode="0" gate="0" autoquit_numerator="4">
            <Eq LPres="0.707" Peak3gain="4.32" HighShelfres="1.4" LP12="1" Peak2gain="0" Peak2active="0" HP48="0" HP="0" HPres="0.707" LP24="0" AnalyseIn="1" Peak2bw="0.3" LP48="0" HP24="0" Highshelfactive="0" Peak3bw="1.227" Peak4gain="0" Lowshelfgain="0" Peak1active="0" LPactive="0" LowShelfres="1.4" Peak4bw="0.3" Peak3active="1" Peak4active="0" HighShelfgain="0" Peak1bw="0.3" Lowshelfactive="0" Outputgain="0" LP="0" AnalyseOut="1" HP12="1" HPactive="0">
              <Inputgain id="569119" scale_type="log" value="0"/>
              <Peak1gain id="1579380" scale_type="log" value="0"/>
              <HPfreq id="7712079" scale_type="log" value="31"/>
              <LowShelffreq id="3800981" scale_type="log" value="80"/>
              <Peak1freq id="1889278" scale_type="log" value="120"/>
              <Peak2freq id="5788231" scale_type="log" value="250"/>
              <Peak3freq id="2386803" scale_type="log" value="811.577"/>
              <Peak4freq id="4329255" scale_type="log" value="4000"/>
              <Highshelffreq id="3557122" scale_type="log" value="12000"/>
              <LPfreq id="4421081" scale_type="log" value="18000"/>
            </Eq>
            <key/>
          </effect>
        </fxchain>
        <send amount="1" channel="0"/>
      </fxchannel>
      <fxchannel muted="0" soloed="0" name="lgtS" volume="1.094" num="20">
        <fxchain enabled="1" numofeffects="2">
          <effect wet="1" autoquit_denominator="4" autoquit="1" name="amplifier" on="1" autoquit_syncmode="0" gate="0" autoquit_numerator="4">
            <AmplifierControls right="100" left="100" volume="200" pan="0"/>
            <key/>
          </effect>
          <effect wet="1" autoquit_denominator="4" autoquit="1" name="eq" on="1" autoquit_syncmode="0" gate="0" autoquit_numerator="4">
            <Eq LPres="0.707" Peak3gain="0" HighShelfres="1.4" LP12="1" Peak2gain="-0.18" Peak2active="1" HP48="0" HP="0" HPres="0.707" LP24="0" AnalyseIn="1" Peak2bw="0.3" LP48="0" HP24="0" Highshelfactive="0" Peak3bw="0.3" Peak4gain="0" Lowshelfgain="0" Peak1active="0" LPactive="1" LowShelfres="1.4" Peak4bw="0.3" Peak3active="0" Peak4active="0" HighShelfgain="0" Peak1bw="0.3" Lowshelfactive="0" Outputgain="0" LP="0" AnalyseOut="1" HP12="1" HPactive="1">
              <Inputgain id="5158737" scale_type="log" value="0"/>
              <Peak1gain id="4303613" scale_type="log" value="0"/>
              <HPfreq id="336783" scale_type="log" value="221.154"/>
              <LowShelffreq id="2965143" scale_type="log" value="80"/>
              <Peak1freq id="5696908" scale_type="log" value="120"/>
              <Peak2freq id="3248116" scale_type="log" value="183.911"/>
              <Peak3freq id="1096378" scale_type="log" value="2000"/>
              <Peak4freq id="4157231" scale_type="log" value="4000"/>
              <Highshelffreq id="7147438" scale_type="log" value="12000"/>
              <LPfreq id="2601522" scale_type="log" value="5960.36"/>
            </Eq>
            <key/>
          </effect>
        </fxchain>
        <send amount="1" channel="0"/>
        <send amount="0.276" channel="14"/>
      </fxchannel>
      <fxchannel muted="0" soloed="0" name="lgtH" volume="1.303" num="21">
        <fxchain enabled="1" numofeffects="3">
          <effect wet="1" autoquit_denominator="4" autoquit="1" name="amplifier" on="1" autoquit_syncmode="0" gate="0" autoquit_numerator="4">
            <AmplifierControls right="100" left="100" volume="200" pan="0"/>
            <key/>
          </effect>
          <effect wet="1" autoquit_denominator="4" autoquit="1" name="ladspaeffect" on="1" autoquit_syncmode="0" gate="0" autoquit_numerator="4">
            <ladspacontrols ports="1">
              <port02 data="0.458"/>
            </ladspacontrols>
            <key>
              <attribute name="file" value="caps"/>
              <attribute name="plugin" value="Narrower"/>
            </key>
          </effect>
          <effect wet="1" autoquit_denominator="4" autoquit="1" name="eq" on="1" autoquit_syncmode="0" gate="0" autoquit_numerator="4">
            <Eq LPres="0.707" Peak3gain="0" HighShelfres="1.4" LP12="1" Peak2gain="0" Peak2active="0" HP48="0" HP="0" HPres="0.707" LP24="0" AnalyseIn="1" Peak2bw="0.3" LP48="0" HP24="0" Highshelfactive="0" Peak3bw="0.3" Peak4gain="0" Lowshelfgain="0" Peak1active="0" LPactive="1" LowShelfres="1.4" Peak4bw="0.3" Peak3active="0" Peak4active="0" HighShelfgain="0" Peak1bw="0.3" Lowshelfactive="0" Outputgain="0" LP="0" AnalyseOut="1" HP12="1" HPactive="1">
              <Inputgain id="3124937" scale_type="log" value="0"/>
              <Peak1gain id="912500" scale_type="log" value="0"/>
              <HPfreq id="2880820" scale_type="log" value="189.683"/>
              <LowShelffreq id="7826292" scale_type="log" value="80"/>
              <Peak1freq id="6725157" scale_type="log" value="120"/>
              <Peak2freq id="1952704" scale_type="log" value="250"/>
              <Peak3freq id="3303244" scale_type="log" value="2000"/>
              <Peak4freq id="3378803" scale_type="log" value="4000"/>
              <Highshelffreq id="4132038" scale_type="log" value="12000"/>
              <LPfreq id="3614720" scale_type="log" value="6337.81"/>
            </Eq>
            <key/>
          </effect>
        </fxchain>
        <send amount="1" channel="0"/>
        <send amount="0.244" channel="14"/>
      </fxchannel>
      <fxchannel muted="0" soloed="0" name="bells" volume="0.465" num="22">
        <fxchain enabled="1" numofeffects="2">
          <effect wet="1" autoquit_denominator="4" autoquit="1" name="ladspaeffect" on="1" autoquit_syncmode="0" gate="0" autoquit_numerator="4">
            <ladspacontrols ports="7">
              <port00 data="1.25"/>
              <port01 data="90"/>
              <port02 data="75"/>
              <port03 data="25"/>
              <port04 data="100"/>
              <port05 data="0"/>
              <port06 data="0"/>
            </ladspacontrols>
            <key>
              <attribute name="file" value="tap_chorusflanger"/>
              <attribute name="plugin" value="tap_chorusflanger"/>
            </key>
          </effect>
          <effect wet="1" autoquit_denominator="4" autoquit="1" name="stereoenhancer" on="1" autoquit_syncmode="0" gate="0" autoquit_numerator="4">
            <stereoenhancercontrols width="180"/>
            <key/>
          </effect>
        </fxchain>
        <send amount="1" channel="0"/>
        <send amount="0.288" channel="10"/>
      </fxchannel>
      <fxchannel muted="0" soloed="0" name="FX 22" volume="0.081" num="23">
        <fxchain enabled="0" numofeffects="0"/>
        <send amount="1" channel="0"/>
      </fxchannel>
      <fxchannel muted="0" soloed="0" name="FX 23" volume="0.116" num="24">
        <fxchain enabled="0" numofeffects="0"/>
        <send amount="1" channel="0"/>
      </fxchannel>
      <fxchannel muted="1" soloed="0" name="druum room" volume="0.58" num="25">
        <fxchain enabled="1" numofeffects="5">
          <effect wet="1" autoquit_denominator="4" autoquit="1" name="ladspaeffect" on="1" autoquit_syncmode="0" gate="0" autoquit_numerator="4">
            <ladspacontrols link="1" ports="4">
              <port00 link="1">
                <data id="3531912" scale_type="log" value="282.308"/>
              </port00>
              <port01 data="1" link="1"/>
              <port10>
                <data id="2240726" scale_type="log" value="282.308"/>
              </port10>
              <port11 data="1"/>
            </ladspacontrols>
            <key>
              <attribute name="file" value="highpass_iir_1890"/>
              <attribute name="plugin" value="highpass_iir"/>
            </key>
          </effect>
          <effect wet="1" autoquit_denominator="4" autoquit="1" name="ladspaeffect" on="1" autoquit_syncmode="0" gate="0" autoquit_numerator="4">
            <ladspacontrols link="1" ports="4">
              <port00 link="1">
                <data id="4809791" scale_type="log" value="8047.87"/>
              </port00>
              <port01 data="1" link="1"/>
              <port10>
                <data id="5706757" scale_type="log" value="8047.87"/>
              </port10>
              <port11 data="1"/>
            </ladspacontrols>
            <key>
              <attribute name="file" value="lowpass_iir_1891"/>
              <attribute name="plugin" value="lowpass_iir"/>
            </key>
          </effect>
          <effect wet="1" autoquit_denominator="4" autoquit="1" name="stereoenhancer" on="1" autoquit_syncmode="0" gate="0" autoquit_numerator="4">
            <stereoenhancercontrols width="180"/>
            <key/>
          </effect>
          <effect wet="1" autoquit_denominator="4" autoquit="1" name="ladspaeffect" on="1" autoquit_syncmode="0" gate="0" autoquit_numerator="4">
            <ladspacontrols ports="11">
              <port04 data="0"/>
              <port05 data="1"/>
              <port010 data="0.250732"/>
              <port011 data="1"/>
              <port012>
                <data id="1477554" scale_type="log" value="388.47"/>
              </port012>
              <port013>
                <data id="6007516" scale_type="log" value="1.00975"/>
              </port013>
              <port014 data="1"/>
              <port015 data="2.75"/>
              <port016 data="0"/>
              <port017 data="0"/>
              <port019 data="1"/>
            </ladspacontrols>
            <key>
              <attribute name="file" value="veal"/>
              <attribute name="plugin" value="Compressor"/>
            </key>
          </effect>
          <effect wet="1" autoquit_denominator="4" autoquit="1" name="ladspaeffect" on="1" autoquit_syncmode="0" gate="0" autoquit_numerator="4">
            <ladspacontrols ports="4">
              <port02 data="0.502"/>
              <port03 data="0.19474"/>
              <port04 data="0.746127"/>
              <port05 data="1"/>
            </ladspacontrols>
            <key>
              <attribute name="file" value="caps"/>
              <attribute name="plugin" value="Plate2x2"/>
            </key>
          </effect>
        </fxchain>
        <send amount="1" channel="0"/>
      </fxchannel>
      <fxchannel muted="0" soloed="0" name="FX 24" volume="1" num="26">
        <fxchain enabled="0" numofeffects="0"/>
        <send amount="1" channel="0"/>
      </fxchannel>
      <fxchannel muted="0" soloed="0" name="FX 27" volume="1" num="27">
        <fxchain enabled="0" numofeffects="0"/>
        <send amount="1" channel="0"/>
      </fxchannel>
      <fxchannel muted="0" soloed="0" name="FX 28" volume="1" num="28">
        <fxchain enabled="0" numofeffects="0"/>
        <send amount="1" channel="0"/>
      </fxchannel>
      <fxchannel muted="0" soloed="0" name="FX 29" volume="1" num="29">
        <fxchain enabled="0" numofeffects="0"/>
        <send amount="1" channel="0"/>
      </fxchannel>
      <fxchannel muted="0" soloed="0" name="FX 30" volume="1" num="30">
        <fxchain enabled="0" numofeffects="0"/>
        <send amount="1" channel="0"/>
      </fxchannel>
      <fxchannel muted="0" soloed="0" name="FX 31" volume="1" num="31">
        <fxchain enabled="0" numofeffects="0"/>
        <send amount="1" channel="0"/>
      </fxchannel>
      <fxchannel muted="0" soloed="0" name="FX 32" volume="1" num="32">
        <fxchain enabled="0" numofeffects="0"/>
        <send amount="1" channel="0"/>
      </fxchannel>
      <fxchannel muted="0" soloed="0" name="FX 33" volume="1" num="33">
        <fxchain enabled="0" numofeffects="0"/>
        <send amount="1" channel="0"/>
      </fxchannel>
      <fxchannel muted="0" soloed="0" name="FX 34" volume="1" num="34">
        <fxchain enabled="0" numofeffects="0"/>
        <send amount="1" channel="0"/>
      </fxchannel>
      <fxchannel muted="0" soloed="0" name="FX 35" volume="1" num="35">
        <fxchain enabled="0" numofeffects="0"/>
        <send amount="1" channel="0"/>
      </fxchannel>
      <fxchannel muted="0" soloed="0" name="FX 36" volume="1" num="36">
        <fxchain enabled="0" numofeffects="0"/>
        <send amount="1" channel="0"/>
      </fxchannel>
      <fxchannel muted="0" soloed="0" name="FX 37" volume="1" num="37">
        <fxchain enabled="0" numofeffects="0"/>
        <send amount="1" channel="0"/>
      </fxchannel>
      <fxchannel muted="0" soloed="0" name="FX 38" volume="1" num="38">
        <fxchain enabled="0" numofeffects="0"/>
        <send amount="1" channel="0"/>
      </fxchannel>
      <fxchannel muted="0" soloed="0" name="FX 39" volume="1" num="39">
        <fxchain enabled="0" numofeffects="0"/>
        <send amount="1" channel="0"/>
      </fxchannel>
      <fxchannel muted="0" soloed="0" name="FX 40" volume="1" num="40">
        <fxchain enabled="0" numofeffects="0"/>
        <send amount="1" channel="0"/>
      </fxchannel>
      <fxchannel muted="0" soloed="0" name="FX 41" volume="1" num="41">
        <fxchain enabled="0" numofeffects="0"/>
        <send amount="1" channel="0"/>
      </fxchannel>
      <fxchannel muted="0" soloed="0" name="FX 42" volume="1" num="42">
        <fxchain enabled="0" numofeffects="0"/>
        <send amount="1" channel="0"/>
      </fxchannel>
      <fxchannel muted="0" soloed="0" name="FX 43" volume="1" num="43">
        <fxchain enabled="0" numofeffects="0"/>
        <send amount="1" channel="0"/>
      </fxchannel>
      <fxchannel muted="0" soloed="0" name="FX 44" volume="1" num="44">
        <fxchain enabled="0" numofeffects="0"/>
        <send amount="1" channel="0"/>
      </fxchannel>
      <fxchannel muted="0" soloed="0" name="FX 45" volume="1" num="45">
        <fxchain enabled="0" numofeffects="0"/>
        <send amount="1" channel="0"/>
      </fxchannel>
      <fxchannel muted="0" soloed="0" name="FX 46" volume="1" num="46">
        <fxchain enabled="0" numofeffects="0"/>
        <send amount="1" channel="0"/>
      </fxchannel>
    </fxmixer>
    <ControllerRackView visible="0" maximized="0" y="282" width="350" height="200" minimized="0" x="680"/>
    <pianoroll visible="1" maximized="1" y="71" width="860" height="480" minimized="0" x="317"/>
    <automationeditor visible="0" maximized="0" y="5" width="860" height="400" minimized="0" x="355"/>
    <projectnotes visible="0" maximized="0" y="2" width="692" height="400" minimized="0" x="333"><![CDATA[<!DOCTYPE HTML PUBLIC "-//W3C//DTD HTML 4.0//EN" "http://www.w3.org/TR/REC-html40/strict.dtd">
<html><head><meta name="qrichtext" content="1" /><style type="text/css">
p, li { white-space: pre-wrap; }
</style></head><body style=" font-family:'Ubuntu'; font-size:10pt; font-weight:400; font-style:normal;">
<p style="-qt-paragraph-type:empty; margin-top:0px; margin-bottom:0px; margin-left:0px; margin-right:0px; -qt-block-indent:0; text-indent:0px;"><br /></p></body></html>]]></projectnotes>
    <timeline stopbehaviour="0" lp0pos="9600" lp1pos="48576" lpstate="0"/>
    <controllers>
      <lfocontroller multiplier="0" speed_numerator="4" name="Controller 1" wave="0" amount="1" speed_denominator="4" speed="2" type="1" phase="0" userwavefile="" base="0.5" speed_syncmode="0"/>
    </controllers>
  </song>
</lmms-project>
