<?xml version="1.0"?>
<!DOCTYPE lmms-project>
<lmms-project creator="LMMS" creatorversion="1.2.2" version="1.0" type="song">
  <head mastervol="132" masterpitch="0">
    <bpm scale_type="linear" id="2356958" value="201"/>
    <timesig_numerator scale_type="linear" id="545120" value="4"/>
    <timesig_denominator scale_type="linear" id="114903" value="4"/>
  </head>
  <song>
    <trackcontainer visible="1" maximized="1" height="465" width="720" x="18" minimized="0" type="song" y="76">
      <track name="intro1" solo="0" muted="0" type="1">
        <bbtrack>
          <trackcontainer visible="0" maximized="1" height="378" width="1042" x="52" minimized="0" type="bbtrackcontainer" y="41">
            <track name="kick.wav" solo="0" muted="0" type="0">
              <instrumenttrack basenote="57" fxch="1" usemasterpitch="1" pitch="0" vol="100" pan="0" pitchrange="1">
                <instrument name="audiofileprocessor">
                  <audiofileprocessor src="/home/pass/samples/sillydrums/kick.wav" reversed="0" interp="0" amp="100" looped="0" sframe="0" stutter="0" eframe="1" lframe="0"/>
                </instrument>
                <eldata fwet="0" fcut="14000" ftype="0" fres="0.5">
                  <elvol x100="0" userwavefile="" dec="2" amt="1" pdel="0" hold="2" lamt="0" lpdel="0" lshp="0" lspd_denominator="4" att="0" ctlenvamt="0" lspd="0.1" lspd_syncmode="0" rel="2" latt="0" lspd_numerator="4" sustain="1"/>
                  <elcut x100="0" userwavefile="" dec="0.5" amt="0" pdel="0" hold="0.5" lamt="0" lpdel="0" lshp="0" lspd_denominator="4" att="0" ctlenvamt="0" lspd="0.1" lspd_syncmode="0" rel="0.1" latt="0" lspd_numerator="4" sustain="0.5"/>
                  <elres x100="0" userwavefile="" dec="0.5" amt="0" pdel="0" hold="0.5" lamt="0" lpdel="0" lshp="0" lspd_denominator="4" att="0" ctlenvamt="0" lspd="0.1" lspd_syncmode="0" rel="0.1" latt="0" lspd_numerator="4" sustain="0.5"/>
                </eldata>
                <chordcreator chord-enabled="0" chord="0" chordrange="1"/>
                <arpeggiator arprange="1" arpmode="0" arp="0" arptime_numerator="4" arpmiss="0" arptime_denominator="4" arpcycle="0" arpskip="0" arptime_syncmode="0" arpgate="100" arptime="200" arpdir="0" arp-enabled="0"/>
                <midiport fixedoutputnote="-1" outputprogram="1" inputcontroller="0" writable="0" fixedoutputvelocity="-1" readable="0" outputchannel="1" basevelocity="63" outputcontroller="0" fixedinputvelocity="-1" inputchannel="0"/>
                <fxchain numofeffects="0" enabled="0"/>
              </instrumenttrack>
              <pattern name="kick.wav" steps="64" pos="0" muted="0" type="0">
                <note pos="0" vol="100" len="-192" pan="0" key="57"/>
                <note pos="384" vol="100" len="-192" pan="0" key="57"/>
              </pattern>
              <pattern name="kick.wav" steps="64" pos="192" muted="0" type="0">
                <note pos="0" vol="100" len="-192" pan="0" key="57"/>
                <note pos="384" vol="100" len="-192" pan="0" key="57"/>
                <note pos="720" vol="100" len="-192" pan="0" key="57"/>
                <note pos="732" vol="100" len="-192" pan="0" key="57"/>
                <note pos="744" vol="100" len="-192" pan="0" key="57"/>
                <note pos="756" vol="100" len="-192" pan="0" key="57"/>
              </pattern>
              <pattern name="kick.wav" steps="32" pos="384" muted="0" type="0">
                <note pos="0" vol="100" len="-192" pan="0" key="57"/>
                <note pos="72" vol="100" len="-192" pan="0" key="57"/>
                <note pos="144" vol="100" len="-192" pan="0" key="57"/>
                <note pos="216" vol="100" len="-192" pan="0" key="57"/>
                <note pos="288" vol="100" len="-192" pan="0" key="57"/>
                <note pos="312" vol="100" len="-192" pan="0" key="57"/>
                <note pos="360" vol="100" len="-192" pan="0" key="57"/>
                <note pos="372" vol="100" len="-192" pan="0" key="57"/>
              </pattern>
              <pattern name="kick.wav" steps="64" pos="576" muted="0" type="0">
                <note pos="0" vol="100" len="-192" pan="0" key="57"/>
                <note pos="12" vol="100" len="-192" pan="0" key="57"/>
                <note pos="24" vol="100" len="-192" pan="0" key="57"/>
                <note pos="36" vol="100" len="-192" pan="0" key="57"/>
                <note pos="48" vol="100" len="-192" pan="0" key="57"/>
                <note pos="60" vol="100" len="-192" pan="0" key="57"/>
                <note pos="72" vol="100" len="-192" pan="0" key="57"/>
                <note pos="84" vol="100" len="-192" pan="0" key="57"/>
                <note pos="96" vol="100" len="-192" pan="0" key="57"/>
                <note pos="108" vol="100" len="-192" pan="0" key="57"/>
                <note pos="120" vol="100" len="-192" pan="0" key="57"/>
                <note pos="132" vol="100" len="-192" pan="0" key="57"/>
                <note pos="144" vol="100" len="-192" pan="0" key="57"/>
                <note pos="156" vol="100" len="-192" pan="0" key="57"/>
                <note pos="168" vol="100" len="-192" pan="0" key="57"/>
                <note pos="180" vol="100" len="-192" pan="0" key="57"/>
                <note pos="192" vol="100" len="-192" pan="0" key="57"/>
                <note pos="204" vol="100" len="-192" pan="0" key="57"/>
                <note pos="216" vol="100" len="-192" pan="0" key="57"/>
                <note pos="228" vol="100" len="-192" pan="0" key="57"/>
                <note pos="240" vol="100" len="-192" pan="0" key="57"/>
                <note pos="252" vol="100" len="-192" pan="0" key="57"/>
                <note pos="264" vol="100" len="-192" pan="0" key="57"/>
                <note pos="276" vol="100" len="-192" pan="0" key="57"/>
                <note pos="288" vol="100" len="-192" pan="0" key="57"/>
                <note pos="300" vol="100" len="-192" pan="0" key="57"/>
                <note pos="312" vol="100" len="-192" pan="0" key="57"/>
                <note pos="324" vol="100" len="-192" pan="0" key="57"/>
                <note pos="336" vol="100" len="-192" pan="0" key="57"/>
                <note pos="348" vol="100" len="-192" pan="0" key="57"/>
                <note pos="360" vol="100" len="-192" pan="0" key="57"/>
                <note pos="372" vol="100" len="-192" pan="0" key="57"/>
                <note pos="384" vol="100" len="-192" pan="0" key="57"/>
                <note pos="396" vol="100" len="-192" pan="0" key="57"/>
                <note pos="408" vol="100" len="-192" pan="0" key="57"/>
                <note pos="420" vol="100" len="-192" pan="0" key="57"/>
                <note pos="432" vol="100" len="-192" pan="0" key="57"/>
                <note pos="444" vol="100" len="-192" pan="0" key="57"/>
                <note pos="456" vol="100" len="-192" pan="0" key="57"/>
                <note pos="468" vol="100" len="-192" pan="0" key="57"/>
                <note pos="480" vol="100" len="-192" pan="0" key="57"/>
                <note pos="492" vol="100" len="-192" pan="0" key="57"/>
                <note pos="504" vol="100" len="-192" pan="0" key="57"/>
                <note pos="516" vol="100" len="-192" pan="0" key="57"/>
                <note pos="528" vol="100" len="-192" pan="0" key="57"/>
                <note pos="540" vol="100" len="-192" pan="0" key="57"/>
                <note pos="552" vol="100" len="-192" pan="0" key="57"/>
                <note pos="564" vol="100" len="-192" pan="0" key="57"/>
                <note pos="576" vol="100" len="-192" pan="0" key="57"/>
                <note pos="588" vol="100" len="-192" pan="0" key="57"/>
                <note pos="600" vol="100" len="-192" pan="0" key="57"/>
                <note pos="612" vol="100" len="-192" pan="0" key="57"/>
                <note pos="624" vol="100" len="-192" pan="0" key="57"/>
                <note pos="636" vol="100" len="-192" pan="0" key="57"/>
                <note pos="648" vol="100" len="-192" pan="0" key="57"/>
                <note pos="660" vol="100" len="-192" pan="0" key="57"/>
                <note pos="672" vol="100" len="-192" pan="0" key="57"/>
                <note pos="684" vol="100" len="-192" pan="0" key="57"/>
                <note pos="696" vol="100" len="-192" pan="0" key="57"/>
                <note pos="708" vol="100" len="-192" pan="0" key="57"/>
                <note pos="720" vol="100" len="-192" pan="0" key="57"/>
                <note pos="732" vol="100" len="-192" pan="0" key="57"/>
                <note pos="744" vol="100" len="-192" pan="0" key="57"/>
                <note pos="756" vol="100" len="-192" pan="0" key="57"/>
              </pattern>
              <pattern name="kick.wav" steps="16" pos="768" muted="0" type="0">
                <note pos="0" vol="100" len="-192" pan="0" key="57"/>
                <note pos="12" vol="100" len="-192" pan="0" key="57"/>
                <note pos="24" vol="100" len="-192" pan="0" key="57"/>
                <note pos="36" vol="100" len="-192" pan="0" key="57"/>
                <note pos="48" vol="100" len="-192" pan="0" key="57"/>
                <note pos="60" vol="100" len="-192" pan="0" key="57"/>
                <note pos="72" vol="100" len="-192" pan="0" key="57"/>
                <note pos="84" vol="100" len="-192" pan="0" key="57"/>
                <note pos="96" vol="100" len="-192" pan="0" key="57"/>
                <note pos="108" vol="100" len="-192" pan="0" key="57"/>
                <note pos="120" vol="100" len="-192" pan="0" key="57"/>
                <note pos="132" vol="100" len="-192" pan="0" key="57"/>
                <note pos="144" vol="100" len="-192" pan="0" key="57"/>
                <note pos="156" vol="100" len="-192" pan="0" key="57"/>
                <note pos="168" vol="100" len="-192" pan="0" key="57"/>
                <note pos="180" vol="100" len="-192" pan="0" key="57"/>
              </pattern>
              <pattern name="kick.wav" steps="64" pos="960" muted="0" type="0">
                <note pos="0" vol="100" len="-192" pan="0" key="57"/>
                <note pos="48" vol="100" len="-192" pan="0" key="57"/>
                <note pos="96" vol="100" len="-192" pan="0" key="57"/>
                <note pos="144" vol="100" len="-192" pan="0" key="57"/>
                <note pos="156" vol="100" len="-192" pan="0" key="57"/>
                <note pos="168" vol="100" len="-192" pan="0" key="57"/>
                <note pos="180" vol="100" len="-192" pan="0" key="57"/>
                <note pos="192" vol="100" len="-192" pan="0" key="57"/>
                <note pos="240" vol="100" len="-192" pan="0" key="57"/>
                <note pos="288" vol="100" len="-192" pan="0" key="57"/>
                <note pos="336" vol="100" len="-192" pan="0" key="57"/>
                <note pos="348" vol="100" len="-192" pan="0" key="57"/>
                <note pos="360" vol="100" len="-192" pan="0" key="57"/>
                <note pos="372" vol="100" len="-192" pan="0" key="57"/>
                <note pos="384" vol="100" len="-192" pan="0" key="57"/>
                <note pos="432" vol="100" len="-192" pan="0" key="57"/>
                <note pos="480" vol="100" len="-192" pan="0" key="57"/>
                <note pos="528" vol="100" len="-192" pan="0" key="57"/>
                <note pos="540" vol="100" len="-192" pan="0" key="57"/>
                <note pos="552" vol="100" len="-192" pan="0" key="57"/>
                <note pos="564" vol="100" len="-192" pan="0" key="57"/>
                <note pos="576" vol="100" len="-192" pan="0" key="57"/>
                <note pos="588" vol="100" len="-192" pan="0" key="57"/>
                <note pos="600" vol="100" len="-192" pan="0" key="57"/>
                <note pos="612" vol="100" len="-192" pan="0" key="57"/>
                <note pos="624" vol="100" len="-192" pan="0" key="57"/>
                <note pos="636" vol="100" len="-192" pan="0" key="57"/>
                <note pos="648" vol="100" len="-192" pan="0" key="57"/>
                <note pos="660" vol="100" len="-192" pan="0" key="57"/>
                <note pos="672" vol="100" len="-192" pan="0" key="57"/>
                <note pos="684" vol="100" len="-192" pan="0" key="57"/>
                <note pos="696" vol="100" len="-192" pan="0" key="57"/>
                <note pos="708" vol="100" len="-192" pan="0" key="57"/>
                <note pos="720" vol="100" len="-192" pan="0" key="57"/>
                <note pos="732" vol="100" len="-192" pan="0" key="57"/>
                <note pos="744" vol="100" len="-192" pan="0" key="57"/>
                <note pos="756" vol="100" len="-192" pan="0" key="57"/>
              </pattern>
              <pattern name="kick.wav" steps="64" pos="1152" muted="0" type="0">
                <note pos="0" vol="100" len="-192" pan="0" key="57"/>
                <note pos="48" vol="100" len="-192" pan="0" key="57"/>
                <note pos="96" vol="100" len="-192" pan="0" key="57"/>
                <note pos="144" vol="100" len="-192" pan="0" key="57"/>
                <note pos="156" vol="100" len="-192" pan="0" key="57"/>
                <note pos="168" vol="100" len="-192" pan="0" key="57"/>
                <note pos="180" vol="100" len="-192" pan="0" key="57"/>
                <note pos="192" vol="100" len="-192" pan="0" key="57"/>
                <note pos="240" vol="100" len="-192" pan="0" key="57"/>
                <note pos="288" vol="100" len="-192" pan="0" key="57"/>
                <note pos="336" vol="100" len="-192" pan="0" key="57"/>
                <note pos="348" vol="100" len="-192" pan="0" key="57"/>
                <note pos="360" vol="100" len="-192" pan="0" key="57"/>
                <note pos="372" vol="100" len="-192" pan="0" key="57"/>
                <note pos="384" vol="100" len="-192" pan="0" key="57"/>
                <note pos="432" vol="100" len="-192" pan="0" key="57"/>
                <note pos="480" vol="100" len="-192" pan="0" key="57"/>
                <note pos="528" vol="100" len="-192" pan="0" key="57"/>
                <note pos="540" vol="100" len="-192" pan="0" key="57"/>
                <note pos="552" vol="100" len="-192" pan="0" key="57"/>
                <note pos="564" vol="100" len="-192" pan="0" key="57"/>
                <note pos="576" vol="100" len="-192" pan="0" key="57"/>
                <note pos="624" vol="100" len="-192" pan="0" key="57"/>
                <note pos="672" vol="100" len="-192" pan="0" key="57"/>
                <note pos="720" vol="100" len="-192" pan="0" key="57"/>
                <note pos="732" vol="100" len="-192" pan="0" key="57"/>
                <note pos="744" vol="100" len="-192" pan="0" key="57"/>
                <note pos="756" vol="100" len="-192" pan="0" key="57"/>
              </pattern>
              <pattern name="kick.wav" steps="32" pos="1344" muted="0" type="0">
                <note pos="0" vol="100" len="-192" pan="0" key="57"/>
              </pattern>
              <pattern name="kick.wav" steps="64" pos="1536" muted="0" type="0">
                <note pos="0" vol="100" len="-192" pan="0" key="57"/>
                <note pos="12" vol="100" len="-192" pan="0" key="57"/>
                <note pos="24" vol="100" len="-192" pan="0" key="57"/>
                <note pos="48" vol="100" len="-192" pan="0" key="57"/>
                <note pos="60" vol="100" len="-192" pan="0" key="57"/>
                <note pos="72" vol="100" len="-192" pan="0" key="57"/>
                <note pos="96" vol="100" len="-192" pan="0" key="57"/>
                <note pos="108" vol="100" len="-192" pan="0" key="57"/>
                <note pos="120" vol="100" len="-192" pan="0" key="57"/>
                <note pos="144" vol="100" len="-192" pan="0" key="57"/>
                <note pos="156" vol="100" len="-192" pan="0" key="57"/>
                <note pos="168" vol="100" len="-192" pan="0" key="57"/>
                <note pos="192" vol="100" len="-192" pan="0" key="57"/>
                <note pos="204" vol="100" len="-192" pan="0" key="57"/>
                <note pos="216" vol="100" len="-192" pan="0" key="57"/>
                <note pos="240" vol="100" len="-192" pan="0" key="57"/>
                <note pos="252" vol="100" len="-192" pan="0" key="57"/>
                <note pos="264" vol="100" len="-192" pan="0" key="57"/>
                <note pos="276" vol="100" len="-192" pan="0" key="57"/>
                <note pos="288" vol="100" len="-192" pan="0" key="57"/>
                <note pos="300" vol="100" len="-192" pan="0" key="57"/>
                <note pos="312" vol="100" len="-192" pan="0" key="57"/>
                <note pos="324" vol="100" len="-192" pan="0" key="57"/>
                <note pos="336" vol="100" len="-192" pan="0" key="57"/>
                <note pos="348" vol="100" len="-192" pan="0" key="57"/>
                <note pos="360" vol="100" len="-192" pan="0" key="57"/>
                <note pos="372" vol="100" len="-192" pan="0" key="57"/>
                <note pos="384" vol="100" len="-192" pan="0" key="57"/>
                <note pos="396" vol="100" len="-192" pan="0" key="57"/>
                <note pos="408" vol="100" len="-192" pan="0" key="57"/>
                <note pos="432" vol="100" len="-192" pan="0" key="57"/>
                <note pos="444" vol="100" len="-192" pan="0" key="57"/>
                <note pos="456" vol="100" len="-192" pan="0" key="57"/>
                <note pos="480" vol="100" len="-192" pan="0" key="57"/>
                <note pos="492" vol="100" len="-192" pan="0" key="57"/>
                <note pos="504" vol="100" len="-192" pan="0" key="57"/>
                <note pos="528" vol="100" len="-192" pan="0" key="57"/>
                <note pos="540" vol="100" len="-192" pan="0" key="57"/>
                <note pos="552" vol="100" len="-192" pan="0" key="57"/>
                <note pos="576" vol="100" len="-192" pan="0" key="57"/>
                <note pos="588" vol="100" len="-192" pan="0" key="57"/>
                <note pos="600" vol="100" len="-192" pan="0" key="57"/>
                <note pos="624" vol="100" len="-192" pan="0" key="57"/>
                <note pos="636" vol="100" len="-192" pan="0" key="57"/>
                <note pos="648" vol="100" len="-192" pan="0" key="57"/>
                <note pos="660" vol="100" len="-192" pan="0" key="57"/>
                <note pos="672" vol="100" len="-192" pan="0" key="57"/>
                <note pos="684" vol="100" len="-192" pan="0" key="57"/>
                <note pos="696" vol="100" len="-192" pan="0" key="57"/>
                <note pos="708" vol="100" len="-192" pan="0" key="57"/>
                <note pos="720" vol="100" len="-192" pan="0" key="57"/>
                <note pos="732" vol="100" len="-192" pan="0" key="57"/>
                <note pos="744" vol="100" len="-192" pan="0" key="57"/>
                <note pos="756" vol="100" len="-192" pan="0" key="57"/>
              </pattern>
              <pattern name="kick.wav" steps="32" pos="1728" muted="0" type="0">
                <note pos="0" vol="100" len="-192" pan="0" key="57"/>
                <note pos="12" vol="100" len="-192" pan="0" key="57"/>
                <note pos="24" vol="100" len="-192" pan="0" key="57"/>
                <note pos="36" vol="100" len="-192" pan="0" key="57"/>
                <note pos="48" vol="100" len="-192" pan="0" key="57"/>
                <note pos="60" vol="100" len="-192" pan="0" key="57"/>
                <note pos="72" vol="100" len="-192" pan="0" key="57"/>
                <note pos="84" vol="100" len="-192" pan="0" key="57"/>
                <note pos="96" vol="100" len="-192" pan="0" key="57"/>
                <note pos="108" vol="100" len="-192" pan="0" key="57"/>
                <note pos="120" vol="100" len="-192" pan="0" key="57"/>
                <note pos="132" vol="100" len="-192" pan="0" key="57"/>
                <note pos="144" vol="100" len="-192" pan="0" key="57"/>
                <note pos="156" vol="100" len="-192" pan="0" key="57"/>
                <note pos="168" vol="100" len="-192" pan="0" key="57"/>
                <note pos="180" vol="100" len="-192" pan="0" key="57"/>
                <note pos="192" vol="100" len="-192" pan="0" key="57"/>
                <note pos="204" vol="100" len="-192" pan="0" key="57"/>
                <note pos="216" vol="100" len="-192" pan="0" key="57"/>
                <note pos="228" vol="100" len="-192" pan="0" key="57"/>
                <note pos="240" vol="100" len="-192" pan="0" key="57"/>
                <note pos="252" vol="100" len="-192" pan="0" key="57"/>
                <note pos="264" vol="100" len="-192" pan="0" key="57"/>
                <note pos="276" vol="100" len="-192" pan="0" key="57"/>
                <note pos="288" vol="100" len="-192" pan="0" key="57"/>
                <note pos="300" vol="100" len="-192" pan="0" key="57"/>
                <note pos="312" vol="100" len="-192" pan="0" key="57"/>
                <note pos="324" vol="100" len="-192" pan="0" key="57"/>
                <note pos="336" vol="100" len="-192" pan="0" key="57"/>
                <note pos="348" vol="100" len="-192" pan="0" key="57"/>
                <note pos="360" vol="100" len="-192" pan="0" key="57"/>
                <note pos="372" vol="100" len="-192" pan="0" key="57"/>
              </pattern>
              <pattern name="kick.wav" steps="64" pos="1920" muted="0" type="0">
                <note pos="0" vol="100" len="-192" pan="0" key="57"/>
                <note pos="12" vol="100" len="-192" pan="0" key="57"/>
                <note pos="24" vol="100" len="-192" pan="0" key="57"/>
                <note pos="36" vol="100" len="-192" pan="0" key="57"/>
                <note pos="48" vol="100" len="-192" pan="0" key="57"/>
                <note pos="60" vol="100" len="-192" pan="0" key="57"/>
                <note pos="72" vol="100" len="-192" pan="0" key="57"/>
                <note pos="84" vol="100" len="-192" pan="0" key="57"/>
                <note pos="96" vol="100" len="-192" pan="0" key="57"/>
                <note pos="108" vol="100" len="-192" pan="0" key="57"/>
                <note pos="120" vol="100" len="-192" pan="0" key="57"/>
                <note pos="132" vol="100" len="-192" pan="0" key="57"/>
                <note pos="144" vol="100" len="-192" pan="0" key="57"/>
                <note pos="156" vol="100" len="-192" pan="0" key="57"/>
                <note pos="168" vol="100" len="-192" pan="0" key="57"/>
                <note pos="180" vol="100" len="-192" pan="0" key="57"/>
                <note pos="192" vol="100" len="-192" pan="0" key="57"/>
                <note pos="204" vol="100" len="-192" pan="0" key="57"/>
                <note pos="216" vol="100" len="-192" pan="0" key="57"/>
                <note pos="228" vol="100" len="-192" pan="0" key="57"/>
                <note pos="240" vol="100" len="-192" pan="0" key="57"/>
                <note pos="252" vol="100" len="-192" pan="0" key="57"/>
                <note pos="264" vol="100" len="-192" pan="0" key="57"/>
                <note pos="276" vol="100" len="-192" pan="0" key="57"/>
                <note pos="288" vol="100" len="-192" pan="0" key="57"/>
                <note pos="300" vol="100" len="-192" pan="0" key="57"/>
                <note pos="312" vol="100" len="-192" pan="0" key="57"/>
                <note pos="324" vol="100" len="-192" pan="0" key="57"/>
                <note pos="336" vol="100" len="-192" pan="0" key="57"/>
                <note pos="348" vol="100" len="-192" pan="0" key="57"/>
                <note pos="360" vol="100" len="-192" pan="0" key="57"/>
                <note pos="372" vol="100" len="-192" pan="0" key="57"/>
                <note pos="384" vol="100" len="-192" pan="0" key="57"/>
                <note pos="396" vol="100" len="-192" pan="0" key="57"/>
                <note pos="408" vol="100" len="-192" pan="0" key="57"/>
                <note pos="420" vol="100" len="-192" pan="0" key="57"/>
                <note pos="432" vol="100" len="-192" pan="0" key="57"/>
                <note pos="444" vol="100" len="-192" pan="0" key="57"/>
                <note pos="456" vol="100" len="-192" pan="0" key="57"/>
                <note pos="468" vol="100" len="-192" pan="0" key="57"/>
                <note pos="480" vol="100" len="-192" pan="0" key="57"/>
                <note pos="492" vol="100" len="-192" pan="0" key="57"/>
                <note pos="504" vol="100" len="-192" pan="0" key="57"/>
                <note pos="516" vol="100" len="-192" pan="0" key="57"/>
                <note pos="528" vol="100" len="-192" pan="0" key="57"/>
                <note pos="540" vol="100" len="-192" pan="0" key="57"/>
                <note pos="552" vol="100" len="-192" pan="0" key="57"/>
                <note pos="564" vol="100" len="-192" pan="0" key="57"/>
                <note pos="576" vol="100" len="-192" pan="0" key="57"/>
                <note pos="588" vol="100" len="-192" pan="0" key="57"/>
                <note pos="600" vol="100" len="-192" pan="0" key="57"/>
                <note pos="612" vol="100" len="-192" pan="0" key="57"/>
                <note pos="624" vol="100" len="-192" pan="0" key="57"/>
                <note pos="636" vol="100" len="-192" pan="0" key="57"/>
                <note pos="648" vol="100" len="-192" pan="0" key="57"/>
                <note pos="660" vol="100" len="-192" pan="0" key="57"/>
                <note pos="672" vol="100" len="-192" pan="0" key="57"/>
                <note pos="684" vol="100" len="-192" pan="0" key="57"/>
                <note pos="696" vol="100" len="-192" pan="0" key="57"/>
                <note pos="708" vol="100" len="-192" pan="0" key="57"/>
                <note pos="720" vol="100" len="-192" pan="0" key="57"/>
                <note pos="732" vol="100" len="-192" pan="0" key="57"/>
                <note pos="744" vol="100" len="-192" pan="0" key="57"/>
                <note pos="756" vol="100" len="-192" pan="0" key="57"/>
              </pattern>
              <pattern name="kick.wav" steps="32" pos="2112" muted="0" type="0">
                <note pos="0" vol="100" len="-192" pan="0" key="57"/>
                <note pos="12" vol="100" len="-192" pan="0" key="57"/>
                <note pos="24" vol="100" len="-192" pan="0" key="57"/>
                <note pos="36" vol="100" len="-192" pan="0" key="57"/>
                <note pos="48" vol="100" len="-192" pan="0" key="57"/>
                <note pos="60" vol="100" len="-192" pan="0" key="57"/>
                <note pos="72" vol="100" len="-192" pan="0" key="57"/>
                <note pos="84" vol="100" len="-192" pan="0" key="57"/>
                <note pos="96" vol="100" len="-192" pan="0" key="57"/>
                <note pos="108" vol="100" len="-192" pan="0" key="57"/>
                <note pos="120" vol="100" len="-192" pan="0" key="57"/>
                <note pos="132" vol="100" len="-192" pan="0" key="57"/>
                <note pos="144" vol="100" len="-192" pan="0" key="57"/>
                <note pos="156" vol="100" len="-192" pan="0" key="57"/>
                <note pos="168" vol="100" len="-192" pan="0" key="57"/>
                <note pos="180" vol="100" len="-192" pan="0" key="57"/>
                <note pos="192" vol="100" len="-192" pan="0" key="57"/>
                <note pos="204" vol="100" len="-192" pan="0" key="57"/>
                <note pos="216" vol="100" len="-192" pan="0" key="57"/>
                <note pos="228" vol="100" len="-192" pan="0" key="57"/>
                <note pos="240" vol="100" len="-192" pan="0" key="57"/>
                <note pos="252" vol="100" len="-192" pan="0" key="57"/>
                <note pos="264" vol="100" len="-192" pan="0" key="57"/>
                <note pos="276" vol="100" len="-192" pan="0" key="57"/>
                <note pos="288" vol="100" len="-192" pan="0" key="57"/>
                <note pos="300" vol="100" len="-192" pan="0" key="57"/>
                <note pos="312" vol="100" len="-192" pan="0" key="57"/>
                <note pos="324" vol="100" len="-192" pan="0" key="57"/>
                <note pos="336" vol="100" len="-192" pan="0" key="57"/>
                <note pos="348" vol="100" len="-192" pan="0" key="57"/>
                <note pos="360" vol="100" len="-192" pan="0" key="57"/>
                <note pos="372" vol="100" len="-192" pan="0" key="57"/>
              </pattern>
              <pattern name="kick.wav" steps="32" pos="2304" muted="0" type="0">
                <note pos="0" vol="100" len="-192" pan="0" key="57"/>
                <note pos="12" vol="100" len="-192" pan="0" key="57"/>
                <note pos="24" vol="100" len="-192" pan="0" key="57"/>
                <note pos="36" vol="100" len="-192" pan="0" key="57"/>
                <note pos="48" vol="100" len="-192" pan="0" key="57"/>
                <note pos="60" vol="100" len="-192" pan="0" key="57"/>
                <note pos="72" vol="100" len="-192" pan="0" key="57"/>
                <note pos="84" vol="100" len="-192" pan="0" key="57"/>
                <note pos="96" vol="100" len="-192" pan="0" key="57"/>
                <note pos="108" vol="100" len="-192" pan="0" key="57"/>
                <note pos="120" vol="100" len="-192" pan="0" key="57"/>
                <note pos="132" vol="100" len="-192" pan="0" key="57"/>
                <note pos="144" vol="100" len="-192" pan="0" key="57"/>
                <note pos="156" vol="100" len="-192" pan="0" key="57"/>
                <note pos="168" vol="100" len="-192" pan="0" key="57"/>
                <note pos="180" vol="100" len="-192" pan="0" key="57"/>
                <note pos="192" vol="100" len="-192" pan="0" key="57"/>
                <note pos="204" vol="100" len="-192" pan="0" key="57"/>
                <note pos="216" vol="100" len="-192" pan="0" key="57"/>
                <note pos="228" vol="100" len="-192" pan="0" key="57"/>
                <note pos="240" vol="100" len="-192" pan="0" key="57"/>
                <note pos="252" vol="100" len="-192" pan="0" key="57"/>
                <note pos="264" vol="100" len="-192" pan="0" key="57"/>
                <note pos="276" vol="100" len="-192" pan="0" key="57"/>
                <note pos="288" vol="100" len="-192" pan="0" key="57"/>
                <note pos="300" vol="100" len="-192" pan="0" key="57"/>
                <note pos="312" vol="100" len="-192" pan="0" key="57"/>
                <note pos="324" vol="100" len="-192" pan="0" key="57"/>
                <note pos="336" vol="100" len="-192" pan="0" key="57"/>
                <note pos="348" vol="100" len="-192" pan="0" key="57"/>
                <note pos="360" vol="100" len="-192" pan="0" key="57"/>
                <note pos="372" vol="100" len="-192" pan="0" key="57"/>
              </pattern>
              <pattern name="kick.wav" steps="64" pos="2496" muted="0" type="0">
                <note pos="0" vol="100" len="-192" pan="0" key="57"/>
                <note pos="12" vol="100" len="-192" pan="0" key="57"/>
                <note pos="24" vol="100" len="-192" pan="0" key="57"/>
                <note pos="36" vol="100" len="-192" pan="0" key="57"/>
                <note pos="48" vol="100" len="-192" pan="0" key="57"/>
                <note pos="60" vol="100" len="-192" pan="0" key="57"/>
                <note pos="72" vol="100" len="-192" pan="0" key="57"/>
                <note pos="84" vol="100" len="-192" pan="0" key="57"/>
                <note pos="96" vol="100" len="-192" pan="0" key="57"/>
                <note pos="108" vol="100" len="-192" pan="0" key="57"/>
                <note pos="120" vol="100" len="-192" pan="0" key="57"/>
                <note pos="132" vol="100" len="-192" pan="0" key="57"/>
                <note pos="144" vol="100" len="-192" pan="0" key="57"/>
                <note pos="156" vol="100" len="-192" pan="0" key="57"/>
                <note pos="168" vol="100" len="-192" pan="0" key="57"/>
                <note pos="180" vol="100" len="-192" pan="0" key="57"/>
                <note pos="192" vol="100" len="-192" pan="0" key="57"/>
                <note pos="204" vol="100" len="-192" pan="0" key="57"/>
                <note pos="216" vol="100" len="-192" pan="0" key="57"/>
                <note pos="228" vol="100" len="-192" pan="0" key="57"/>
                <note pos="240" vol="100" len="-192" pan="0" key="57"/>
                <note pos="252" vol="100" len="-192" pan="0" key="57"/>
                <note pos="264" vol="100" len="-192" pan="0" key="57"/>
                <note pos="276" vol="100" len="-192" pan="0" key="57"/>
                <note pos="288" vol="100" len="-192" pan="0" key="57"/>
                <note pos="300" vol="100" len="-192" pan="0" key="57"/>
                <note pos="312" vol="100" len="-192" pan="0" key="57"/>
                <note pos="324" vol="100" len="-192" pan="0" key="57"/>
                <note pos="336" vol="100" len="-192" pan="0" key="57"/>
                <note pos="348" vol="100" len="-192" pan="0" key="57"/>
                <note pos="360" vol="100" len="-192" pan="0" key="57"/>
                <note pos="372" vol="100" len="-192" pan="0" key="57"/>
                <note pos="384" vol="100" len="-192" pan="0" key="57"/>
                <note pos="396" vol="100" len="-192" pan="0" key="57"/>
                <note pos="408" vol="100" len="-192" pan="0" key="57"/>
                <note pos="420" vol="100" len="-192" pan="0" key="57"/>
                <note pos="432" vol="100" len="-192" pan="0" key="57"/>
                <note pos="444" vol="100" len="-192" pan="0" key="57"/>
                <note pos="456" vol="100" len="-192" pan="0" key="57"/>
                <note pos="468" vol="100" len="-192" pan="0" key="57"/>
                <note pos="480" vol="100" len="-192" pan="0" key="57"/>
                <note pos="492" vol="100" len="-192" pan="0" key="57"/>
                <note pos="504" vol="100" len="-192" pan="0" key="57"/>
                <note pos="516" vol="100" len="-192" pan="0" key="57"/>
                <note pos="528" vol="100" len="-192" pan="0" key="57"/>
                <note pos="540" vol="100" len="-192" pan="0" key="57"/>
                <note pos="552" vol="100" len="-192" pan="0" key="57"/>
                <note pos="564" vol="100" len="-192" pan="0" key="57"/>
                <note pos="576" vol="100" len="-192" pan="0" key="57"/>
                <note pos="588" vol="100" len="-192" pan="0" key="57"/>
                <note pos="600" vol="100" len="-192" pan="0" key="57"/>
                <note pos="612" vol="100" len="-192" pan="0" key="57"/>
                <note pos="624" vol="100" len="-192" pan="0" key="57"/>
                <note pos="636" vol="100" len="-192" pan="0" key="57"/>
                <note pos="648" vol="100" len="-192" pan="0" key="57"/>
                <note pos="660" vol="100" len="-192" pan="0" key="57"/>
                <note pos="672" vol="100" len="-192" pan="0" key="57"/>
                <note pos="684" vol="100" len="-192" pan="0" key="57"/>
                <note pos="696" vol="100" len="-192" pan="0" key="57"/>
                <note pos="708" vol="100" len="-192" pan="0" key="57"/>
                <note pos="720" vol="100" len="-192" pan="0" key="57"/>
                <note pos="732" vol="100" len="-192" pan="0" key="57"/>
                <note pos="744" vol="100" len="-192" pan="0" key="57"/>
                <note pos="756" vol="100" len="-192" pan="0" key="57"/>
              </pattern>
              <pattern name="kick.wav" steps="16" pos="2688" muted="0" type="0">
                <note pos="0" vol="100" len="-192" pan="0" key="57"/>
                <note pos="48" vol="100" len="-192" pan="0" key="57"/>
                <note pos="96" vol="100" len="-192" pan="0" key="57"/>
                <note pos="144" vol="100" len="-192" pan="0" key="57"/>
                <note pos="156" vol="100" len="-192" pan="0" key="57"/>
                <note pos="168" vol="100" len="-192" pan="0" key="57"/>
                <note pos="180" vol="100" len="-192" pan="0" key="57"/>
              </pattern>
              <pattern name="kick.wav" steps="16" pos="2880" muted="0" type="0">
                <note pos="0" vol="100" len="-192" pan="0" key="57"/>
                <note pos="12" vol="100" len="-192" pan="0" key="57"/>
                <note pos="24" vol="100" len="-192" pan="0" key="57"/>
                <note pos="36" vol="100" len="-192" pan="0" key="57"/>
                <note pos="48" vol="100" len="-192" pan="0" key="57"/>
                <note pos="60" vol="100" len="-192" pan="0" key="57"/>
                <note pos="72" vol="100" len="-192" pan="0" key="57"/>
                <note pos="84" vol="100" len="-192" pan="0" key="57"/>
                <note pos="96" vol="100" len="-192" pan="0" key="57"/>
                <note pos="144" vol="100" len="-192" pan="0" key="57"/>
              </pattern>
              <pattern name="kick.wav" steps="16" pos="3072" muted="0" type="0">
                <note pos="0" vol="100" len="-192" pan="0" key="57"/>
                <note pos="24" vol="100" len="-192" pan="0" key="57"/>
                <note pos="96" vol="100" len="-192" pan="0" key="57"/>
                <note pos="120" vol="100" len="-192" pan="0" key="57"/>
              </pattern>
              <pattern name="kick.wav" steps="32" pos="3264" muted="0" type="0">
                <note pos="96" vol="100" len="-192" pan="0" key="57"/>
                <note pos="192" vol="100" len="-192" pan="0" key="57"/>
                <note pos="288" vol="100" len="-192" pan="0" key="57"/>
                <note pos="336" vol="100" len="-192" pan="0" key="57"/>
                <note pos="348" vol="100" len="-192" pan="0" key="57"/>
                <note pos="360" vol="100" len="-192" pan="0" key="57"/>
                <note pos="372" vol="100" len="-192" pan="0" key="57"/>
              </pattern>
              <pattern name="kick.wav" steps="16" pos="3456" muted="0" type="0">
                <note pos="0" vol="100" len="-192" pan="0" key="57"/>
                <note pos="96" vol="100" len="-192" pan="0" key="57"/>
              </pattern>
              <pattern name="kick.wav" steps="32" pos="3648" muted="0" type="0">
                <note pos="0" vol="100" len="-192" pan="0" key="57"/>
                <note pos="192" vol="100" len="-192" pan="0" key="57"/>
                <note pos="288" vol="100" len="-192" pan="0" key="57"/>
                <note pos="360" vol="100" len="-192" pan="0" key="57"/>
                <note pos="372" vol="100" len="-192" pan="0" key="57"/>
              </pattern>
              <pattern name="kick.wav" steps="64" pos="3840" muted="0" type="0">
                <note pos="0" vol="100" len="-192" pan="0" key="57"/>
                <note pos="48" vol="100" len="-192" pan="0" key="57"/>
                <note pos="96" vol="100" len="-192" pan="0" key="57"/>
                <note pos="144" vol="100" len="-192" pan="0" key="57"/>
                <note pos="192" vol="100" len="-192" pan="0" key="57"/>
                <note pos="240" vol="100" len="-192" pan="0" key="57"/>
                <note pos="288" vol="100" len="-192" pan="0" key="57"/>
                <note pos="336" vol="100" len="-192" pan="0" key="57"/>
                <note pos="384" vol="100" len="-192" pan="0" key="57"/>
                <note pos="432" vol="100" len="-192" pan="0" key="57"/>
                <note pos="480" vol="100" len="-192" pan="0" key="57"/>
                <note pos="528" vol="100" len="-192" pan="0" key="57"/>
                <note pos="576" vol="100" len="-192" pan="0" key="57"/>
                <note pos="624" vol="100" len="-192" pan="0" key="57"/>
                <note pos="672" vol="100" len="-192" pan="0" key="57"/>
                <note pos="684" vol="100" len="-192" pan="0" key="57"/>
                <note pos="696" vol="100" len="-192" pan="0" key="57"/>
                <note pos="708" vol="100" len="-192" pan="0" key="57"/>
                <note pos="720" vol="100" len="-192" pan="0" key="57"/>
                <note pos="732" vol="100" len="-192" pan="0" key="57"/>
                <note pos="744" vol="100" len="-192" pan="0" key="57"/>
                <note pos="756" vol="100" len="-192" pan="0" key="57"/>
              </pattern>
              <pattern name="kick.wav" steps="64" pos="4032" muted="0" type="0">
                <note pos="0" vol="100" len="-192" pan="0" key="57"/>
                <note pos="144" vol="100" len="-192" pan="0" key="57"/>
                <note pos="192" vol="100" len="-192" pan="0" key="57"/>
                <note pos="336" vol="100" len="-192" pan="0" key="57"/>
                <note pos="384" vol="100" len="-192" pan="0" key="57"/>
                <note pos="528" vol="100" len="-192" pan="0" key="57"/>
                <note pos="576" vol="100" len="-192" pan="0" key="57"/>
                <note pos="624" vol="100" len="-192" pan="0" key="57"/>
                <note pos="672" vol="100" len="-192" pan="0" key="57"/>
                <note pos="684" vol="100" len="-192" pan="0" key="57"/>
                <note pos="696" vol="100" len="-192" pan="0" key="57"/>
                <note pos="708" vol="100" len="-192" pan="0" key="57"/>
                <note pos="720" vol="100" len="-192" pan="0" key="57"/>
                <note pos="732" vol="100" len="-192" pan="0" key="57"/>
                <note pos="744" vol="100" len="-192" pan="0" key="57"/>
                <note pos="756" vol="100" len="-192" pan="0" key="57"/>
              </pattern>
              <pattern name="kick.wav" steps="32" pos="4224" muted="0" type="0">
                <note pos="0" vol="100" len="-192" pan="0" key="57"/>
                <note pos="12" vol="100" len="-192" pan="0" key="57"/>
                <note pos="24" vol="100" len="-192" pan="0" key="57"/>
                <note pos="36" vol="100" len="-192" pan="0" key="57"/>
                <note pos="48" vol="100" len="-192" pan="0" key="57"/>
                <note pos="60" vol="100" len="-192" pan="0" key="57"/>
                <note pos="72" vol="100" len="-192" pan="0" key="57"/>
                <note pos="84" vol="100" len="-192" pan="0" key="57"/>
                <note pos="96" vol="100" len="-192" pan="0" key="57"/>
                <note pos="108" vol="100" len="-192" pan="0" key="57"/>
                <note pos="120" vol="100" len="-192" pan="0" key="57"/>
                <note pos="132" vol="100" len="-192" pan="0" key="57"/>
                <note pos="144" vol="100" len="-192" pan="0" key="57"/>
                <note pos="156" vol="100" len="-192" pan="0" key="57"/>
                <note pos="168" vol="100" len="-192" pan="0" key="57"/>
                <note pos="180" vol="100" len="-192" pan="0" key="57"/>
                <note pos="192" vol="100" len="-192" pan="0" key="57"/>
                <note pos="204" vol="100" len="-192" pan="0" key="57"/>
                <note pos="216" vol="100" len="-192" pan="0" key="57"/>
                <note pos="228" vol="100" len="-192" pan="0" key="57"/>
                <note pos="240" vol="100" len="-192" pan="0" key="57"/>
                <note pos="252" vol="100" len="-192" pan="0" key="57"/>
                <note pos="264" vol="100" len="-192" pan="0" key="57"/>
                <note pos="276" vol="100" len="-192" pan="0" key="57"/>
                <note pos="288" vol="100" len="-192" pan="0" key="57"/>
                <note pos="300" vol="100" len="-192" pan="0" key="57"/>
                <note pos="312" vol="100" len="-192" pan="0" key="57"/>
                <note pos="324" vol="100" len="-192" pan="0" key="57"/>
                <note pos="336" vol="100" len="-192" pan="0" key="57"/>
                <note pos="348" vol="100" len="-192" pan="0" key="57"/>
                <note pos="360" vol="100" len="-192" pan="0" key="57"/>
                <note pos="372" vol="100" len="-192" pan="0" key="57"/>
              </pattern>
              <pattern name="kick.wav" steps="32" pos="4416" muted="0" type="0">
                <note pos="0" vol="100" len="-192" pan="0" key="57"/>
                <note pos="12" vol="100" len="-192" pan="0" key="57"/>
                <note pos="24" vol="100" len="-192" pan="0" key="57"/>
                <note pos="36" vol="100" len="-192" pan="0" key="57"/>
                <note pos="48" vol="100" len="-192" pan="0" key="57"/>
                <note pos="60" vol="100" len="-192" pan="0" key="57"/>
                <note pos="72" vol="100" len="-192" pan="0" key="57"/>
                <note pos="84" vol="100" len="-192" pan="0" key="57"/>
                <note pos="96" vol="100" len="-192" pan="0" key="57"/>
                <note pos="108" vol="100" len="-192" pan="0" key="57"/>
                <note pos="120" vol="100" len="-192" pan="0" key="57"/>
                <note pos="132" vol="100" len="-192" pan="0" key="57"/>
                <note pos="144" vol="100" len="-192" pan="0" key="57"/>
                <note pos="156" vol="100" len="-192" pan="0" key="57"/>
                <note pos="168" vol="100" len="-192" pan="0" key="57"/>
                <note pos="180" vol="100" len="-192" pan="0" key="57"/>
                <note pos="192" vol="100" len="-192" pan="0" key="57"/>
              </pattern>
              <pattern name="kick.wav" steps="16" pos="4608" muted="0" type="0">
                <note pos="0" vol="100" len="-192" pan="0" key="57"/>
                <note pos="96" vol="100" len="-192" pan="0" key="57"/>
                <note pos="168" vol="100" len="-192" pan="0" key="57"/>
                <note pos="180" vol="100" len="-192" pan="0" key="57"/>
              </pattern>
              <pattern name="kick.wav" steps="32" pos="4800" muted="0" type="0">
                <note pos="0" vol="100" len="-192" pan="0" key="57"/>
                <note pos="24" vol="100" len="-192" pan="0" key="57"/>
                <note pos="36" vol="100" len="-192" pan="0" key="57"/>
                <note pos="48" vol="100" len="-192" pan="0" key="57"/>
                <note pos="60" vol="100" len="-192" pan="0" key="57"/>
                <note pos="72" vol="100" len="-192" pan="0" key="57"/>
                <note pos="120" vol="100" len="-192" pan="0" key="57"/>
                <note pos="144" vol="100" len="-192" pan="0" key="57"/>
                <note pos="168" vol="100" len="-192" pan="0" key="57"/>
                <note pos="192" vol="100" len="-192" pan="0" key="57"/>
                <note pos="204" vol="100" len="-192" pan="0" key="57"/>
                <note pos="216" vol="100" len="-192" pan="0" key="57"/>
                <note pos="228" vol="100" len="-192" pan="0" key="57"/>
                <note pos="240" vol="100" len="-192" pan="0" key="57"/>
                <note pos="252" vol="100" len="-192" pan="0" key="57"/>
                <note pos="264" vol="100" len="-192" pan="0" key="57"/>
                <note pos="276" vol="100" len="-192" pan="0" key="57"/>
                <note pos="288" vol="100" len="-192" pan="0" key="57"/>
                <note pos="300" vol="100" len="-192" pan="0" key="57"/>
                <note pos="312" vol="100" len="-192" pan="0" key="57"/>
                <note pos="324" vol="100" len="-192" pan="0" key="57"/>
                <note pos="336" vol="100" len="-192" pan="0" key="57"/>
                <note pos="348" vol="100" len="-192" pan="0" key="57"/>
                <note pos="360" vol="100" len="-192" pan="0" key="57"/>
                <note pos="372" vol="100" len="-192" pan="0" key="57"/>
              </pattern>
              <pattern name="kick.wav" steps="64" pos="4992" muted="0" type="0">
                <note pos="0" vol="100" len="-192" pan="0" key="57"/>
                <note pos="192" vol="100" len="-192" pan="0" key="57"/>
                <note pos="384" vol="100" len="-192" pan="0" key="57"/>
                <note pos="672" vol="100" len="-192" pan="0" key="57"/>
              </pattern>
              <pattern name="kick.wav" steps="64" pos="5184" muted="0" type="0">
                <note pos="0" vol="100" len="-192" pan="0" key="57"/>
                <note pos="192" vol="100" len="-192" pan="0" key="57"/>
                <note pos="384" vol="100" len="-192" pan="0" key="57"/>
                <note pos="576" vol="100" len="-192" pan="0" key="57"/>
                <note pos="672" vol="100" len="-192" pan="0" key="57"/>
              </pattern>
              <pattern name="kick.wav" steps="64" pos="5376" muted="0" type="0">
                <note pos="0" vol="100" len="-192" pan="0" key="57"/>
                <note pos="384" vol="100" len="-192" pan="0" key="57"/>
                <note pos="576" vol="100" len="-192" pan="0" key="57"/>
                <note pos="672" vol="100" len="-192" pan="0" key="57"/>
              </pattern>
              <pattern name="kick.wav" steps="128" pos="5568" muted="0" type="0">
                <note pos="0" vol="100" len="-192" pan="0" key="57"/>
                <note pos="24" vol="100" len="-192" pan="0" key="57"/>
                <note pos="48" vol="100" len="-192" pan="0" key="57"/>
                <note pos="72" vol="100" len="-192" pan="0" key="57"/>
                <note pos="84" vol="100" len="-192" pan="0" key="57"/>
                <note pos="96" vol="100" len="-192" pan="0" key="57"/>
                <note pos="108" vol="100" len="-192" pan="0" key="57"/>
                <note pos="120" vol="100" len="-192" pan="0" key="57"/>
                <note pos="144" vol="100" len="-192" pan="0" key="57"/>
                <note pos="156" vol="100" len="-192" pan="0" key="57"/>
                <note pos="168" vol="100" len="-192" pan="0" key="57"/>
                <note pos="180" vol="100" len="-192" pan="0" key="57"/>
                <note pos="192" vol="100" len="-192" pan="0" key="57"/>
                <note pos="216" vol="100" len="-192" pan="0" key="57"/>
                <note pos="228" vol="100" len="-192" pan="0" key="57"/>
                <note pos="240" vol="100" len="-192" pan="0" key="57"/>
                <note pos="252" vol="100" len="-192" pan="0" key="57"/>
                <note pos="264" vol="100" len="-192" pan="0" key="57"/>
                <note pos="288" vol="100" len="-192" pan="0" key="57"/>
                <note pos="300" vol="100" len="-192" pan="0" key="57"/>
                <note pos="312" vol="100" len="-192" pan="0" key="57"/>
                <note pos="336" vol="100" len="-192" pan="0" key="57"/>
                <note pos="348" vol="100" len="-192" pan="0" key="57"/>
                <note pos="360" vol="100" len="-192" pan="0" key="57"/>
                <note pos="372" vol="100" len="-192" pan="0" key="57"/>
                <note pos="384" vol="100" len="-192" pan="0" key="57"/>
                <note pos="408" vol="100" len="-192" pan="0" key="57"/>
                <note pos="432" vol="100" len="-192" pan="0" key="57"/>
                <note pos="456" vol="100" len="-192" pan="0" key="57"/>
                <note pos="468" vol="100" len="-192" pan="0" key="57"/>
                <note pos="480" vol="100" len="-192" pan="0" key="57"/>
                <note pos="492" vol="100" len="-192" pan="0" key="57"/>
                <note pos="504" vol="100" len="-192" pan="0" key="57"/>
                <note pos="528" vol="100" len="-192" pan="0" key="57"/>
                <note pos="540" vol="100" len="-192" pan="0" key="57"/>
                <note pos="552" vol="100" len="-192" pan="0" key="57"/>
                <note pos="564" vol="100" len="-192" pan="0" key="57"/>
                <note pos="576" vol="100" len="-192" pan="0" key="57"/>
                <note pos="600" vol="100" len="-192" pan="0" key="57"/>
                <note pos="612" vol="100" len="-192" pan="0" key="57"/>
                <note pos="624" vol="100" len="-192" pan="0" key="57"/>
                <note pos="636" vol="100" len="-192" pan="0" key="57"/>
                <note pos="648" vol="100" len="-192" pan="0" key="57"/>
                <note pos="672" vol="100" len="-192" pan="0" key="57"/>
                <note pos="684" vol="100" len="-192" pan="0" key="57"/>
                <note pos="696" vol="100" len="-192" pan="0" key="57"/>
                <note pos="720" vol="100" len="-192" pan="0" key="57"/>
                <note pos="732" vol="100" len="-192" pan="0" key="57"/>
                <note pos="744" vol="100" len="-192" pan="0" key="57"/>
                <note pos="756" vol="100" len="-192" pan="0" key="57"/>
                <note pos="768" vol="100" len="-192" pan="0" key="57"/>
                <note pos="792" vol="100" len="-192" pan="0" key="57"/>
                <note pos="816" vol="100" len="-192" pan="0" key="57"/>
                <note pos="840" vol="100" len="-192" pan="0" key="57"/>
                <note pos="852" vol="100" len="-192" pan="0" key="57"/>
                <note pos="864" vol="100" len="-192" pan="0" key="57"/>
                <note pos="876" vol="100" len="-192" pan="0" key="57"/>
                <note pos="888" vol="100" len="-192" pan="0" key="57"/>
                <note pos="912" vol="100" len="-192" pan="0" key="57"/>
                <note pos="924" vol="100" len="-192" pan="0" key="57"/>
                <note pos="936" vol="100" len="-192" pan="0" key="57"/>
                <note pos="948" vol="100" len="-192" pan="0" key="57"/>
                <note pos="960" vol="100" len="-192" pan="0" key="57"/>
                <note pos="984" vol="100" len="-192" pan="0" key="57"/>
                <note pos="996" vol="100" len="-192" pan="0" key="57"/>
                <note pos="1008" vol="100" len="-192" pan="0" key="57"/>
                <note pos="1020" vol="100" len="-192" pan="0" key="57"/>
                <note pos="1032" vol="100" len="-192" pan="0" key="57"/>
                <note pos="1056" vol="100" len="-192" pan="0" key="57"/>
                <note pos="1068" vol="100" len="-192" pan="0" key="57"/>
                <note pos="1080" vol="100" len="-192" pan="0" key="57"/>
                <note pos="1104" vol="100" len="-192" pan="0" key="57"/>
                <note pos="1116" vol="100" len="-192" pan="0" key="57"/>
                <note pos="1128" vol="100" len="-192" pan="0" key="57"/>
                <note pos="1140" vol="100" len="-192" pan="0" key="57"/>
                <note pos="1152" vol="100" len="-192" pan="0" key="57"/>
                <note pos="1176" vol="100" len="-192" pan="0" key="57"/>
                <note pos="1200" vol="100" len="-192" pan="0" key="57"/>
                <note pos="1224" vol="100" len="-192" pan="0" key="57"/>
                <note pos="1236" vol="100" len="-192" pan="0" key="57"/>
                <note pos="1248" vol="100" len="-192" pan="0" key="57"/>
                <note pos="1260" vol="100" len="-192" pan="0" key="57"/>
                <note pos="1272" vol="100" len="-192" pan="0" key="57"/>
                <note pos="1296" vol="100" len="-192" pan="0" key="57"/>
                <note pos="1308" vol="100" len="-192" pan="0" key="57"/>
                <note pos="1320" vol="100" len="-192" pan="0" key="57"/>
                <note pos="1332" vol="100" len="-192" pan="0" key="57"/>
                <note pos="1344" vol="100" len="-192" pan="0" key="57"/>
                <note pos="1368" vol="100" len="-192" pan="0" key="57"/>
                <note pos="1380" vol="100" len="-192" pan="0" key="57"/>
                <note pos="1392" vol="100" len="-192" pan="0" key="57"/>
                <note pos="1404" vol="100" len="-192" pan="0" key="57"/>
                <note pos="1416" vol="100" len="-192" pan="0" key="57"/>
                <note pos="1440" vol="100" len="-192" pan="0" key="57"/>
                <note pos="1452" vol="100" len="-192" pan="0" key="57"/>
                <note pos="1464" vol="100" len="-192" pan="0" key="57"/>
                <note pos="1488" vol="100" len="-192" pan="0" key="57"/>
                <note pos="1500" vol="100" len="-192" pan="0" key="57"/>
                <note pos="1512" vol="100" len="-192" pan="0" key="57"/>
                <note pos="1524" vol="100" len="-192" pan="0" key="57"/>
              </pattern>
              <pattern name="kick.wav" steps="16" pos="5760" muted="0" type="0">
                <note pos="0" vol="100" len="-192" pan="0" key="57"/>
                <note pos="12" vol="100" len="-192" pan="0" key="57"/>
                <note pos="24" vol="100" len="-192" pan="0" key="57"/>
                <note pos="36" vol="100" len="-192" pan="0" key="57"/>
                <note pos="48" vol="100" len="-192" pan="0" key="57"/>
                <note pos="60" vol="100" len="-192" pan="0" key="57"/>
                <note pos="72" vol="100" len="-192" pan="0" key="57"/>
                <note pos="84" vol="100" len="-192" pan="0" key="57"/>
                <note pos="96" vol="100" len="-192" pan="0" key="57"/>
                <note pos="108" vol="100" len="-192" pan="0" key="57"/>
                <note pos="120" vol="100" len="-192" pan="0" key="57"/>
                <note pos="132" vol="100" len="-192" pan="0" key="57"/>
                <note pos="144" vol="100" len="-192" pan="0" key="57"/>
                <note pos="156" vol="100" len="-192" pan="0" key="57"/>
                <note pos="168" vol="100" len="-192" pan="0" key="57"/>
                <note pos="180" vol="100" len="-192" pan="0" key="57"/>
              </pattern>
              <pattern name="kick.wav" steps="64" pos="5952" muted="0" type="0">
                <note pos="0" vol="100" len="-192" pan="0" key="57"/>
                <note pos="24" vol="100" len="-192" pan="0" key="57"/>
                <note pos="48" vol="100" len="-192" pan="0" key="57"/>
                <note pos="72" vol="100" len="-192" pan="0" key="57"/>
                <note pos="96" vol="100" len="-192" pan="0" key="57"/>
                <note pos="120" vol="100" len="-192" pan="0" key="57"/>
                <note pos="144" vol="100" len="-192" pan="0" key="57"/>
                <note pos="168" vol="100" len="-192" pan="0" key="57"/>
                <note pos="180" vol="100" len="-192" pan="0" key="57"/>
                <note pos="192" vol="100" len="-192" pan="0" key="57"/>
                <note pos="216" vol="100" len="-192" pan="0" key="57"/>
                <note pos="240" vol="100" len="-192" pan="0" key="57"/>
                <note pos="252" vol="100" len="-192" pan="0" key="57"/>
                <note pos="264" vol="100" len="-192" pan="0" key="57"/>
                <note pos="288" vol="100" len="-192" pan="0" key="57"/>
                <note pos="312" vol="100" len="-192" pan="0" key="57"/>
                <note pos="336" vol="100" len="-192" pan="0" key="57"/>
                <note pos="360" vol="100" len="-192" pan="0" key="57"/>
                <note pos="384" vol="100" len="-192" pan="0" key="57"/>
                <note pos="408" vol="100" len="-192" pan="0" key="57"/>
                <note pos="432" vol="100" len="-192" pan="0" key="57"/>
                <note pos="456" vol="100" len="-192" pan="0" key="57"/>
                <note pos="480" vol="100" len="-192" pan="0" key="57"/>
                <note pos="504" vol="100" len="-192" pan="0" key="57"/>
                <note pos="528" vol="100" len="-192" pan="0" key="57"/>
                <note pos="552" vol="100" len="-192" pan="0" key="57"/>
                <note pos="564" vol="100" len="-192" pan="0" key="57"/>
                <note pos="576" vol="100" len="-192" pan="0" key="57"/>
                <note pos="600" vol="100" len="-192" pan="0" key="57"/>
                <note pos="624" vol="100" len="-192" pan="0" key="57"/>
                <note pos="636" vol="100" len="-192" pan="0" key="57"/>
                <note pos="648" vol="100" len="-192" pan="0" key="57"/>
                <note pos="672" vol="100" len="-192" pan="0" key="57"/>
                <note pos="696" vol="100" len="-192" pan="0" key="57"/>
                <note pos="720" vol="100" len="-192" pan="0" key="57"/>
                <note pos="744" vol="100" len="-192" pan="0" key="57"/>
              </pattern>
              <pattern name="kick.wav" steps="16" pos="6144" muted="0" type="0">
                <note pos="0" vol="100" len="-192" pan="0" key="57"/>
                <note pos="24" vol="100" len="-192" pan="0" key="57"/>
                <note pos="48" vol="100" len="-192" pan="0" key="57"/>
                <note pos="60" vol="100" len="-192" pan="0" key="57"/>
                <note pos="72" vol="100" len="-192" pan="0" key="57"/>
                <note pos="96" vol="100" len="-192" pan="0" key="57"/>
                <note pos="108" vol="100" len="-192" pan="0" key="57"/>
                <note pos="120" vol="100" len="-192" pan="0" key="57"/>
                <note pos="132" vol="100" len="-192" pan="0" key="57"/>
                <note pos="144" vol="100" len="-192" pan="0" key="57"/>
                <note pos="156" vol="100" len="-192" pan="0" key="57"/>
                <note pos="168" vol="100" len="-192" pan="0" key="57"/>
                <note pos="180" vol="100" len="-192" pan="0" key="57"/>
              </pattern>
              <pattern name="kick.wav" steps="16" pos="6336" muted="0" type="0"/>
              <pattern name="kick.wav" steps="16" pos="6528" muted="0" type="0"/>
              <pattern name="kick.wav" steps="64" pos="6720" muted="0" type="0">
                <note pos="0" vol="100" len="-192" pan="0" key="57"/>
                <note pos="12" vol="100" len="-192" pan="0" key="57"/>
                <note pos="24" vol="100" len="-192" pan="0" key="57"/>
                <note pos="36" vol="100" len="-192" pan="0" key="57"/>
                <note pos="48" vol="100" len="-192" pan="0" key="57"/>
                <note pos="60" vol="100" len="-192" pan="0" key="57"/>
                <note pos="72" vol="100" len="-192" pan="0" key="57"/>
                <note pos="84" vol="100" len="-192" pan="0" key="57"/>
                <note pos="96" vol="100" len="-192" pan="0" key="57"/>
                <note pos="108" vol="100" len="-192" pan="0" key="57"/>
                <note pos="120" vol="100" len="-192" pan="0" key="57"/>
                <note pos="132" vol="100" len="-192" pan="0" key="57"/>
                <note pos="144" vol="100" len="-192" pan="0" key="57"/>
                <note pos="156" vol="100" len="-192" pan="0" key="57"/>
                <note pos="168" vol="100" len="-192" pan="0" key="57"/>
                <note pos="180" vol="100" len="-192" pan="0" key="57"/>
                <note pos="192" vol="100" len="-192" pan="0" key="57"/>
                <note pos="204" vol="100" len="-192" pan="0" key="57"/>
                <note pos="216" vol="100" len="-192" pan="0" key="57"/>
                <note pos="228" vol="100" len="-192" pan="0" key="57"/>
                <note pos="240" vol="100" len="-192" pan="0" key="57"/>
                <note pos="252" vol="100" len="-192" pan="0" key="57"/>
                <note pos="264" vol="100" len="-192" pan="0" key="57"/>
                <note pos="276" vol="100" len="-192" pan="0" key="57"/>
                <note pos="288" vol="100" len="-192" pan="0" key="57"/>
                <note pos="300" vol="100" len="-192" pan="0" key="57"/>
                <note pos="312" vol="100" len="-192" pan="0" key="57"/>
                <note pos="324" vol="100" len="-192" pan="0" key="57"/>
                <note pos="336" vol="100" len="-192" pan="0" key="57"/>
                <note pos="348" vol="100" len="-192" pan="0" key="57"/>
                <note pos="360" vol="100" len="-192" pan="0" key="57"/>
                <note pos="372" vol="100" len="-192" pan="0" key="57"/>
                <note pos="384" vol="100" len="-192" pan="0" key="57"/>
                <note pos="396" vol="100" len="-192" pan="0" key="57"/>
                <note pos="408" vol="100" len="-192" pan="0" key="57"/>
                <note pos="420" vol="100" len="-192" pan="0" key="57"/>
                <note pos="432" vol="100" len="-192" pan="0" key="57"/>
                <note pos="444" vol="100" len="-192" pan="0" key="57"/>
                <note pos="456" vol="100" len="-192" pan="0" key="57"/>
                <note pos="468" vol="100" len="-192" pan="0" key="57"/>
                <note pos="480" vol="100" len="-192" pan="0" key="57"/>
                <note pos="492" vol="100" len="-192" pan="0" key="57"/>
                <note pos="504" vol="100" len="-192" pan="0" key="57"/>
                <note pos="516" vol="100" len="-192" pan="0" key="57"/>
                <note pos="528" vol="100" len="-192" pan="0" key="57"/>
                <note pos="540" vol="100" len="-192" pan="0" key="57"/>
                <note pos="552" vol="100" len="-192" pan="0" key="57"/>
                <note pos="564" vol="100" len="-192" pan="0" key="57"/>
                <note pos="576" vol="100" len="-192" pan="0" key="57"/>
              </pattern>
            </track>
            <track name="171488__xicecoffeex__savannah-open-hh.wav" solo="0" muted="0" type="0">
              <instrumenttrack basenote="57" fxch="2" usemasterpitch="1" pitch="0" vol="35.2" pan="-9.6" pitchrange="1">
                <instrument name="audiofileprocessor">
                  <audiofileprocessor src="171488__xicecoffeex__savannah-open-hh.wav" reversed="0" interp="1" amp="100" looped="0" sframe="0" stutter="0" eframe="1" lframe="0.016"/>
                </instrument>
                <eldata fwet="0" fcut="14000" ftype="0" fres="0.5">
                  <elvol x100="0" userwavefile="" dec="0.288" amt="1" pdel="0" hold="0" lamt="0" lpdel="0" lshp="0" lspd_denominator="4" att="0" ctlenvamt="0" lspd="0.1" lspd_syncmode="0" rel="0" latt="0" lspd_numerator="4" sustain="0"/>
                  <elcut x100="0" userwavefile="" dec="0.5" amt="0" pdel="0" hold="0.5" lamt="0" lpdel="0" lshp="0" lspd_denominator="4" att="0" ctlenvamt="0" lspd="0.1" lspd_syncmode="0" rel="0.1" latt="0" lspd_numerator="4" sustain="0.5"/>
                  <elres x100="0" userwavefile="" dec="0.5" amt="0" pdel="0" hold="0.5" lamt="0" lpdel="0" lshp="0" lspd_denominator="4" att="0" ctlenvamt="0" lspd="0.1" lspd_syncmode="0" rel="0.1" latt="0" lspd_numerator="4" sustain="0.5"/>
                </eldata>
                <chordcreator chord-enabled="0" chord="0" chordrange="1"/>
                <arpeggiator arprange="1" arpmode="0" arp="0" arptime_numerator="4" arpmiss="0" arptime_denominator="4" arpcycle="0" arpskip="0" arptime_syncmode="0" arpgate="100" arptime="200" arpdir="0" arp-enabled="0"/>
                <midiport fixedoutputnote="-1" outputprogram="1" inputcontroller="0" writable="0" fixedoutputvelocity="-1" readable="0" outputchannel="1" basevelocity="63" outputcontroller="0" fixedinputvelocity="-1" inputchannel="0"/>
                <fxchain numofeffects="0" enabled="0"/>
              </instrumenttrack>
              <pattern name="171488__xicecoffeex__savannah-open-hh.wav" steps="64" pos="0" muted="0" type="0"/>
              <pattern name="171488__xicecoffeex__savannah-open-hh.wav" steps="64" pos="192" muted="0" type="0"/>
              <pattern name="171488__xicecoffeex__savannah-open-hh.wav" steps="32" pos="384" muted="0" type="0"/>
              <pattern name="171488__xicecoffeex__savannah-open-hh.wav" steps="64" pos="576" muted="0" type="0">
                <note pos="0" vol="100" len="-192" pan="0" key="57"/>
                <note pos="48" vol="100" len="-192" pan="0" key="57"/>
                <note pos="96" vol="100" len="-192" pan="0" key="57"/>
                <note pos="144" vol="100" len="-192" pan="0" key="57"/>
                <note pos="192" vol="100" len="-192" pan="0" key="57"/>
                <note pos="240" vol="100" len="-192" pan="0" key="57"/>
                <note pos="288" vol="100" len="-192" pan="0" key="57"/>
                <note pos="336" vol="100" len="-192" pan="0" key="57"/>
                <note pos="384" vol="100" len="-192" pan="0" key="57"/>
                <note pos="432" vol="100" len="-192" pan="0" key="57"/>
                <note pos="480" vol="100" len="-192" pan="0" key="57"/>
                <note pos="528" vol="100" len="-192" pan="0" key="57"/>
                <note pos="576" vol="100" len="-192" pan="0" key="57"/>
                <note pos="624" vol="100" len="-192" pan="0" key="57"/>
                <note pos="672" vol="100" len="-192" pan="0" key="57"/>
                <note pos="720" vol="100" len="-192" pan="0" key="57"/>
              </pattern>
              <pattern name="171488__xicecoffeex__savannah-open-hh.wav" steps="16" pos="768" muted="0" type="0"/>
              <pattern name="171488__xicecoffeex__savannah-open-hh.wav" steps="64" pos="960" muted="0" type="0">
                <note pos="0" vol="100" len="-192" pan="0" key="57"/>
                <note pos="48" vol="100" len="-192" pan="0" key="57"/>
                <note pos="96" vol="100" len="-192" pan="0" key="57"/>
                <note pos="144" vol="100" len="-192" pan="0" key="57"/>
                <note pos="192" vol="100" len="-192" pan="0" key="57"/>
                <note pos="240" vol="100" len="-192" pan="0" key="57"/>
                <note pos="288" vol="100" len="-192" pan="0" key="57"/>
                <note pos="336" vol="100" len="-192" pan="0" key="57"/>
                <note pos="384" vol="100" len="-192" pan="0" key="57"/>
                <note pos="432" vol="100" len="-192" pan="0" key="57"/>
                <note pos="480" vol="100" len="-192" pan="0" key="57"/>
                <note pos="528" vol="100" len="-192" pan="0" key="57"/>
                <note pos="576" vol="100" len="-192" pan="0" key="57"/>
                <note pos="624" vol="100" len="-192" pan="0" key="57"/>
                <note pos="672" vol="100" len="-192" pan="0" key="57"/>
                <note pos="720" vol="100" len="-192" pan="0" key="57"/>
              </pattern>
              <pattern name="171488__xicecoffeex__savannah-open-hh.wav" steps="64" pos="1152" muted="0" type="0">
                <note pos="0" vol="100" len="-192" pan="0" key="57"/>
                <note pos="48" vol="100" len="-192" pan="0" key="57"/>
                <note pos="96" vol="100" len="-192" pan="0" key="57"/>
                <note pos="144" vol="100" len="-192" pan="0" key="57"/>
                <note pos="192" vol="100" len="-192" pan="0" key="57"/>
                <note pos="240" vol="100" len="-192" pan="0" key="57"/>
                <note pos="288" vol="100" len="-192" pan="0" key="57"/>
                <note pos="336" vol="100" len="-192" pan="0" key="57"/>
                <note pos="384" vol="100" len="-192" pan="0" key="57"/>
                <note pos="432" vol="100" len="-192" pan="0" key="57"/>
                <note pos="480" vol="100" len="-192" pan="0" key="57"/>
                <note pos="528" vol="100" len="-192" pan="0" key="57"/>
                <note pos="576" vol="100" len="-192" pan="0" key="57"/>
                <note pos="624" vol="100" len="-192" pan="0" key="57"/>
                <note pos="672" vol="100" len="-192" pan="0" key="57"/>
                <note pos="720" vol="100" len="-192" pan="0" key="57"/>
              </pattern>
              <pattern name="171488__xicecoffeex__savannah-open-hh.wav" steps="32" pos="1344" muted="0" type="0"/>
              <pattern name="171488__xicecoffeex__savannah-open-hh.wav" steps="64" pos="1536" muted="0" type="0">
                <note pos="48" vol="100" len="-192" pan="0" key="57"/>
                <note pos="96" vol="100" len="-192" pan="0" key="57"/>
                <note pos="144" vol="100" len="-192" pan="0" key="57"/>
                <note pos="240" vol="100" len="-192" pan="0" key="57"/>
                <note pos="288" vol="100" len="-192" pan="0" key="57"/>
                <note pos="336" vol="100" len="-192" pan="0" key="57"/>
                <note pos="432" vol="100" len="-192" pan="0" key="57"/>
                <note pos="480" vol="100" len="-192" pan="0" key="57"/>
                <note pos="528" vol="100" len="-192" pan="0" key="57"/>
                <note pos="624" vol="100" len="-192" pan="0" key="57"/>
                <note pos="672" vol="100" len="-192" pan="0" key="57"/>
                <note pos="720" vol="100" len="-192" pan="0" key="57"/>
              </pattern>
              <pattern name="171488__xicecoffeex__savannah-open-hh.wav" steps="32" pos="1728" muted="0" type="0">
                <note pos="48" vol="100" len="-192" pan="0" key="57"/>
                <note pos="96" vol="100" len="-192" pan="0" key="57"/>
                <note pos="144" vol="100" len="-192" pan="0" key="57"/>
                <note pos="240" vol="100" len="-192" pan="0" key="57"/>
                <note pos="288" vol="100" len="-192" pan="0" key="57"/>
                <note pos="336" vol="100" len="-192" pan="0" key="57"/>
              </pattern>
              <pattern name="171488__xicecoffeex__savannah-open-hh.wav" steps="64" pos="1920" muted="0" type="0">
                <note pos="48" vol="100" len="-192" pan="0" key="57"/>
                <note pos="96" vol="100" len="-192" pan="0" key="57"/>
                <note pos="144" vol="100" len="-192" pan="0" key="57"/>
                <note pos="192" vol="100" len="-192" pan="0" key="57"/>
                <note pos="240" vol="100" len="-192" pan="0" key="57"/>
                <note pos="288" vol="100" len="-192" pan="0" key="57"/>
                <note pos="336" vol="100" len="-192" pan="0" key="57"/>
                <note pos="432" vol="100" len="-192" pan="0" key="57"/>
                <note pos="480" vol="100" len="-192" pan="0" key="57"/>
                <note pos="528" vol="100" len="-192" pan="0" key="57"/>
                <note pos="576" vol="100" len="-192" pan="0" key="57"/>
                <note pos="624" vol="100" len="-192" pan="0" key="57"/>
                <note pos="672" vol="100" len="-192" pan="0" key="57"/>
                <note pos="720" vol="100" len="-192" pan="0" key="57"/>
              </pattern>
              <pattern name="171488__xicecoffeex__savannah-open-hh.wav" steps="32" pos="2112" muted="0" type="0">
                <note pos="48" vol="100" len="-192" pan="0" key="57"/>
                <note pos="96" vol="100" len="-192" pan="0" key="57"/>
                <note pos="144" vol="100" len="-192" pan="0" key="57"/>
              </pattern>
              <pattern name="171488__xicecoffeex__savannah-open-hh.wav" steps="32" pos="2304" muted="0" type="0">
                <note pos="0" vol="100" len="-192" pan="0" key="57"/>
                <note pos="96" vol="100" len="-192" pan="0" key="57"/>
                <note pos="192" vol="100" len="-192" pan="0" key="57"/>
                <note pos="288" vol="100" len="-192" pan="0" key="57"/>
              </pattern>
              <pattern name="171488__xicecoffeex__savannah-open-hh.wav" steps="64" pos="2496" muted="0" type="0">
                <note pos="0" vol="100" len="-192" pan="0" key="57"/>
                <note pos="96" vol="100" len="-192" pan="0" key="57"/>
                <note pos="192" vol="100" len="-192" pan="0" key="57"/>
                <note pos="288" vol="100" len="-192" pan="0" key="57"/>
                <note pos="384" vol="100" len="-192" pan="0" key="57"/>
                <note pos="480" vol="100" len="-192" pan="0" key="57"/>
                <note pos="576" vol="100" len="-192" pan="0" key="57"/>
                <note pos="672" vol="100" len="-192" pan="0" key="57"/>
              </pattern>
              <pattern name="171488__xicecoffeex__savannah-open-hh.wav" steps="16" pos="2688" muted="0" type="0"/>
              <pattern name="171488__xicecoffeex__savannah-open-hh.wav" steps="16" pos="2880" muted="0" type="0"/>
              <pattern name="171488__xicecoffeex__savannah-open-hh.wav" steps="16" pos="3072" muted="0" type="0"/>
              <pattern name="171488__xicecoffeex__savannah-open-hh.wav" steps="32" pos="3264" muted="0" type="0"/>
              <pattern name="171488__xicecoffeex__savannah-open-hh.wav" steps="16" pos="3456" muted="0" type="0"/>
              <pattern name="171488__xicecoffeex__savannah-open-hh.wav" steps="32" pos="3648" muted="0" type="0"/>
              <pattern name="171488__xicecoffeex__savannah-open-hh.wav" steps="64" pos="3840" muted="0" type="0"/>
              <pattern name="171488__xicecoffeex__savannah-open-hh.wav" steps="64" pos="4032" muted="0" type="0"/>
              <pattern name="171488__xicecoffeex__savannah-open-hh.wav" steps="32" pos="4224" muted="0" type="0">
                <note pos="0" vol="100" len="-192" pan="0" key="57"/>
              </pattern>
              <pattern name="171488__xicecoffeex__savannah-open-hh.wav" steps="32" pos="4416" muted="0" type="0"/>
              <pattern name="171488__xicecoffeex__savannah-open-hh.wav" steps="16" pos="4608" muted="0" type="0"/>
              <pattern name="171488__xicecoffeex__savannah-open-hh.wav" steps="32" pos="4800" muted="0" type="0"/>
              <pattern name="171488__xicecoffeex__savannah-open-hh.wav" steps="64" pos="4992" muted="0" type="0"/>
              <pattern name="171488__xicecoffeex__savannah-open-hh.wav" steps="64" pos="5184" muted="0" type="0"/>
              <pattern name="171488__xicecoffeex__savannah-open-hh.wav" steps="64" pos="5376" muted="0" type="0"/>
              <pattern name="171488__xicecoffeex__savannah-open-hh.wav" steps="128" pos="5568" muted="0" type="0">
                <note pos="0" vol="100" len="-192" pan="0" key="57"/>
                <note pos="48" vol="100" len="-192" pan="0" key="57"/>
                <note pos="96" vol="100" len="-192" pan="0" key="57"/>
                <note pos="144" vol="100" len="-192" pan="0" key="57"/>
                <note pos="192" vol="100" len="-192" pan="0" key="57"/>
                <note pos="240" vol="100" len="-192" pan="0" key="57"/>
                <note pos="288" vol="100" len="-192" pan="0" key="57"/>
                <note pos="336" vol="100" len="-192" pan="0" key="57"/>
                <note pos="384" vol="100" len="-192" pan="0" key="57"/>
                <note pos="432" vol="100" len="-192" pan="0" key="57"/>
                <note pos="480" vol="100" len="-192" pan="0" key="57"/>
                <note pos="528" vol="100" len="-192" pan="0" key="57"/>
                <note pos="576" vol="100" len="-192" pan="0" key="57"/>
                <note pos="624" vol="100" len="-192" pan="0" key="57"/>
                <note pos="672" vol="100" len="-192" pan="0" key="57"/>
                <note pos="720" vol="100" len="-192" pan="0" key="57"/>
                <note pos="768" vol="100" len="-192" pan="0" key="57"/>
                <note pos="816" vol="100" len="-192" pan="0" key="57"/>
                <note pos="864" vol="100" len="-192" pan="0" key="57"/>
                <note pos="912" vol="100" len="-192" pan="0" key="57"/>
                <note pos="960" vol="100" len="-192" pan="0" key="57"/>
                <note pos="1008" vol="100" len="-192" pan="0" key="57"/>
                <note pos="1056" vol="100" len="-192" pan="0" key="57"/>
                <note pos="1104" vol="100" len="-192" pan="0" key="57"/>
                <note pos="1152" vol="100" len="-192" pan="0" key="57"/>
                <note pos="1200" vol="100" len="-192" pan="0" key="57"/>
                <note pos="1248" vol="100" len="-192" pan="0" key="57"/>
                <note pos="1296" vol="100" len="-192" pan="0" key="57"/>
                <note pos="1344" vol="100" len="-192" pan="0" key="57"/>
                <note pos="1392" vol="100" len="-192" pan="0" key="57"/>
                <note pos="1440" vol="100" len="-192" pan="0" key="57"/>
                <note pos="1488" vol="100" len="-192" pan="0" key="57"/>
              </pattern>
              <pattern name="171488__xicecoffeex__savannah-open-hh.wav" steps="16" pos="5760" muted="0" type="0"/>
              <pattern name="171488__xicecoffeex__savannah-open-hh.wav" steps="64" pos="5952" muted="0" type="0">
                <note pos="0" vol="100" len="-192" pan="0" key="57"/>
                <note pos="192" vol="100" len="-192" pan="0" key="57"/>
                <note pos="384" vol="100" len="-192" pan="0" key="57"/>
                <note pos="576" vol="100" len="-192" pan="0" key="57"/>
              </pattern>
              <pattern name="171488__xicecoffeex__savannah-open-hh.wav" steps="16" pos="6144" muted="0" type="0">
                <note pos="0" vol="100" len="-192" pan="0" key="57"/>
              </pattern>
              <pattern name="171488__xicecoffeex__savannah-open-hh.wav" steps="16" pos="6336" muted="0" type="0"/>
              <pattern name="171488__xicecoffeex__savannah-open-hh.wav" steps="16" pos="6528" muted="0" type="0"/>
              <pattern name="171488__xicecoffeex__savannah-open-hh.wav" steps="64" pos="6720" muted="0" type="0">
                <note pos="480" vol="100" len="-192" pan="0" key="57"/>
              </pattern>
            </track>
            <track name="snare.wav" solo="0" muted="0" type="0">
              <instrumenttrack basenote="57" fxch="3" usemasterpitch="1" pitch="0" vol="200" pan="0" pitchrange="1">
                <instrument name="audiofileprocessor">
                  <audiofileprocessor src="/home/pass/samples/sillydrums/snare.wav" reversed="0" interp="1" amp="100" looped="0" sframe="0" stutter="0" eframe="1" lframe="0"/>
                </instrument>
                <eldata fwet="0" fcut="14000" ftype="0" fres="0.5">
                  <elvol x100="0" userwavefile="" dec="2" amt="1" pdel="0" hold="2" lamt="0" lpdel="0" lshp="0" lspd_denominator="4" att="0" ctlenvamt="0" lspd="0.1" lspd_syncmode="0" rel="2" latt="0" lspd_numerator="4" sustain="1"/>
                  <elcut x100="0" userwavefile="" dec="0.5" amt="0" pdel="0" hold="0.5" lamt="0" lpdel="0" lshp="0" lspd_denominator="4" att="0" ctlenvamt="0" lspd="0.1" lspd_syncmode="0" rel="0.1" latt="0" lspd_numerator="4" sustain="0.5"/>
                  <elres x100="0" userwavefile="" dec="0.5" amt="0" pdel="0" hold="0.5" lamt="0" lpdel="0" lshp="0" lspd_denominator="4" att="0" ctlenvamt="0" lspd="0.1" lspd_syncmode="0" rel="0.1" latt="0" lspd_numerator="4" sustain="0.5"/>
                </eldata>
                <chordcreator chord-enabled="0" chord="0" chordrange="1"/>
                <arpeggiator arprange="1" arpmode="0" arp="0" arptime_numerator="4" arpmiss="0" arptime_denominator="4" arpcycle="0" arpskip="0" arptime_syncmode="0" arpgate="100" arptime="200" arpdir="0" arp-enabled="0"/>
                <midiport fixedoutputnote="-1" outputprogram="1" inputcontroller="0" writable="0" fixedoutputvelocity="-1" readable="0" outputchannel="1" basevelocity="63" outputcontroller="0" fixedinputvelocity="-1" inputchannel="0"/>
                <fxchain numofeffects="0" enabled="0"/>
              </instrumenttrack>
              <pattern name="" steps="64" pos="0" muted="0" type="0"/>
              <pattern name="" steps="64" pos="192" muted="0" type="0">
                <note pos="720" vol="100" len="-192" pan="0" key="57"/>
                <note pos="732" vol="100" len="-192" pan="0" key="57"/>
                <note pos="744" vol="100" len="-192" pan="0" key="57"/>
                <note pos="756" vol="100" len="-192" pan="0" key="57"/>
              </pattern>
              <pattern name="" steps="32" pos="384" muted="0" type="0">
                <note pos="48" vol="100" len="-192" pan="0" key="57"/>
                <note pos="60" vol="100" len="-192" pan="0" key="57"/>
                <note pos="120" vol="100" len="-192" pan="0" key="57"/>
                <note pos="132" vol="100" len="-192" pan="0" key="57"/>
                <note pos="192" vol="100" len="-192" pan="0" key="57"/>
                <note pos="204" vol="100" len="-192" pan="0" key="57"/>
                <note pos="264" vol="100" len="-192" pan="0" key="57"/>
                <note pos="276" vol="100" len="-192" pan="0" key="57"/>
                <note pos="312" vol="100" len="-192" pan="0" key="57"/>
                <note pos="360" vol="100" len="-192" pan="0" key="57"/>
                <note pos="372" vol="100" len="-192" pan="0" key="57"/>
              </pattern>
              <pattern name="" steps="64" pos="576" muted="0" type="0">
                <note pos="24" vol="100" len="-192" pan="0" key="57"/>
                <note pos="72" vol="100" len="-192" pan="0" key="57"/>
                <note pos="120" vol="100" len="-192" pan="0" key="57"/>
                <note pos="168" vol="100" len="-192" pan="0" key="57"/>
                <note pos="216" vol="100" len="-192" pan="0" key="57"/>
                <note pos="264" vol="100" len="-192" pan="0" key="57"/>
                <note pos="312" vol="100" len="-192" pan="0" key="57"/>
                <note pos="360" vol="100" len="-192" pan="0" key="57"/>
                <note pos="408" vol="100" len="-192" pan="0" key="57"/>
                <note pos="456" vol="100" len="-192" pan="0" key="57"/>
                <note pos="504" vol="100" len="-192" pan="0" key="57"/>
                <note pos="552" vol="100" len="-192" pan="0" key="57"/>
                <note pos="600" vol="100" len="-192" pan="0" key="57"/>
                <note pos="648" vol="100" len="-192" pan="0" key="57"/>
                <note pos="696" vol="100" len="-192" pan="0" key="57"/>
                <note pos="744" vol="100" len="-192" pan="0" key="57"/>
              </pattern>
              <pattern name="" steps="16" pos="768" muted="0" type="0">
                <note pos="0" vol="100" len="-192" pan="0" key="57"/>
                <note pos="12" vol="100" len="-192" pan="0" key="57"/>
                <note pos="24" vol="100" len="-192" pan="0" key="57"/>
                <note pos="36" vol="100" len="-192" pan="0" key="57"/>
                <note pos="48" vol="100" len="-192" pan="0" key="57"/>
                <note pos="60" vol="100" len="-192" pan="0" key="57"/>
                <note pos="72" vol="100" len="-192" pan="0" key="57"/>
                <note pos="84" vol="100" len="-192" pan="0" key="57"/>
                <note pos="96" vol="100" len="-192" pan="0" key="57"/>
                <note pos="144" vol="100" len="-192" pan="0" key="57"/>
              </pattern>
              <pattern name="" steps="64" pos="960" muted="0" type="0">
                <note pos="24" vol="100" len="-192" pan="0" key="57"/>
                <note pos="72" vol="100" len="-192" pan="0" key="57"/>
                <note pos="120" vol="100" len="-192" pan="0" key="57"/>
                <note pos="168" vol="100" len="-192" pan="0" key="57"/>
                <note pos="216" vol="100" len="-192" pan="0" key="57"/>
                <note pos="264" vol="100" len="-192" pan="0" key="57"/>
                <note pos="312" vol="100" len="-192" pan="0" key="57"/>
                <note pos="360" vol="100" len="-192" pan="0" key="57"/>
                <note pos="408" vol="100" len="-192" pan="0" key="57"/>
                <note pos="456" vol="100" len="-192" pan="0" key="57"/>
                <note pos="504" vol="100" len="-192" pan="0" key="57"/>
                <note pos="552" vol="100" len="-192" pan="0" key="57"/>
                <note pos="600" vol="100" len="-192" pan="0" key="57"/>
                <note pos="648" vol="100" len="-192" pan="0" key="57"/>
                <note pos="696" vol="100" len="-192" pan="0" key="57"/>
                <note pos="744" vol="100" len="-192" pan="0" key="57"/>
              </pattern>
              <pattern name="" steps="64" pos="1152" muted="0" type="0">
                <note pos="24" vol="100" len="-192" pan="0" key="57"/>
                <note pos="72" vol="100" len="-192" pan="0" key="57"/>
                <note pos="120" vol="100" len="-192" pan="0" key="57"/>
                <note pos="168" vol="100" len="-192" pan="0" key="57"/>
                <note pos="216" vol="100" len="-192" pan="0" key="57"/>
                <note pos="264" vol="100" len="-192" pan="0" key="57"/>
                <note pos="312" vol="100" len="-192" pan="0" key="57"/>
                <note pos="360" vol="100" len="-192" pan="0" key="57"/>
                <note pos="408" vol="100" len="-192" pan="0" key="57"/>
                <note pos="456" vol="100" len="-192" pan="0" key="57"/>
                <note pos="504" vol="100" len="-192" pan="0" key="57"/>
                <note pos="552" vol="100" len="-192" pan="0" key="57"/>
                <note pos="600" vol="100" len="-192" pan="0" key="57"/>
                <note pos="648" vol="100" len="-192" pan="0" key="57"/>
                <note pos="696" vol="100" len="-192" pan="0" key="57"/>
                <note pos="744" vol="100" len="-192" pan="0" key="57"/>
              </pattern>
              <pattern name="" steps="32" pos="1344" muted="0" type="0"/>
              <pattern name="" steps="64" pos="1536" muted="0" type="0">
                <note pos="0" vol="100" len="-192" pan="0" key="57"/>
                <note pos="48" vol="100" len="-192" pan="0" key="57"/>
                <note pos="96" vol="100" len="-192" pan="0" key="57"/>
                <note pos="144" vol="100" len="-192" pan="0" key="57"/>
                <note pos="192" vol="100" len="-192" pan="0" key="57"/>
                <note pos="240" vol="100" len="-192" pan="0" key="57"/>
                <note pos="288" vol="100" len="-192" pan="0" key="57"/>
                <note pos="336" vol="100" len="-192" pan="0" key="57"/>
                <note pos="384" vol="100" len="-192" pan="0" key="57"/>
                <note pos="432" vol="100" len="-192" pan="0" key="57"/>
                <note pos="480" vol="100" len="-192" pan="0" key="57"/>
                <note pos="528" vol="100" len="-192" pan="0" key="57"/>
                <note pos="576" vol="100" len="-192" pan="0" key="57"/>
                <note pos="624" vol="100" len="-192" pan="0" key="57"/>
                <note pos="672" vol="100" len="-192" pan="0" key="57"/>
                <note pos="720" vol="100" len="-192" pan="0" key="57"/>
              </pattern>
              <pattern name="" steps="32" pos="1728" muted="0" type="0">
                <note pos="0" vol="100" len="-192" pan="0" key="57"/>
                <note pos="48" vol="100" len="-192" pan="0" key="57"/>
                <note pos="96" vol="100" len="-192" pan="0" key="57"/>
                <note pos="144" vol="100" len="-192" pan="0" key="57"/>
                <note pos="192" vol="100" len="-192" pan="0" key="57"/>
                <note pos="240" vol="100" len="-192" pan="0" key="57"/>
                <note pos="288" vol="100" len="-192" pan="0" key="57"/>
                <note pos="336" vol="100" len="-192" pan="0" key="57"/>
              </pattern>
              <pattern name="" steps="64" pos="1920" muted="0" type="0">
                <note pos="0" vol="100" len="-192" pan="0" key="57"/>
                <note pos="48" vol="100" len="-192" pan="0" key="57"/>
                <note pos="96" vol="100" len="-192" pan="0" key="57"/>
                <note pos="144" vol="100" len="-192" pan="0" key="57"/>
                <note pos="192" vol="100" len="-192" pan="0" key="57"/>
                <note pos="240" vol="100" len="-192" pan="0" key="57"/>
                <note pos="288" vol="100" len="-192" pan="0" key="57"/>
                <note pos="336" vol="100" len="-192" pan="0" key="57"/>
                <note pos="384" vol="100" len="-192" pan="0" key="57"/>
                <note pos="432" vol="100" len="-192" pan="0" key="57"/>
                <note pos="480" vol="100" len="-192" pan="0" key="57"/>
                <note pos="528" vol="100" len="-192" pan="0" key="57"/>
                <note pos="576" vol="100" len="-192" pan="0" key="57"/>
                <note pos="624" vol="100" len="-192" pan="0" key="57"/>
                <note pos="672" vol="100" len="-192" pan="0" key="57"/>
                <note pos="720" vol="100" len="-192" pan="0" key="57"/>
              </pattern>
              <pattern name="" steps="32" pos="2112" muted="0" type="0">
                <note pos="0" vol="100" len="-192" pan="0" key="57"/>
                <note pos="48" vol="100" len="-192" pan="0" key="57"/>
                <note pos="96" vol="100" len="-192" pan="0" key="57"/>
                <note pos="144" vol="100" len="-192" pan="0" key="57"/>
                <note pos="192" vol="100" len="-192" pan="0" key="57"/>
                <note pos="240" vol="100" len="-192" pan="0" key="57"/>
                <note pos="288" vol="100" len="-192" pan="0" key="57"/>
                <note pos="336" vol="100" len="-192" pan="0" key="57"/>
                <note pos="348" vol="100" len="-192" pan="0" key="57"/>
                <note pos="360" vol="100" len="-192" pan="0" key="57"/>
                <note pos="372" vol="100" len="-192" pan="0" key="57"/>
              </pattern>
              <pattern name="" steps="32" pos="2304" muted="0" type="0">
                <note pos="48" vol="100" len="-192" pan="0" key="57"/>
                <note pos="144" vol="100" len="-192" pan="0" key="57"/>
                <note pos="240" vol="100" len="-192" pan="0" key="57"/>
                <note pos="336" vol="100" len="-192" pan="0" key="57"/>
              </pattern>
              <pattern name="" steps="64" pos="2496" muted="0" type="0">
                <note pos="48" vol="100" len="-192" pan="0" key="57"/>
                <note pos="144" vol="100" len="-192" pan="0" key="57"/>
                <note pos="240" vol="100" len="-192" pan="0" key="57"/>
                <note pos="336" vol="100" len="-192" pan="0" key="57"/>
                <note pos="432" vol="100" len="-192" pan="0" key="57"/>
                <note pos="528" vol="100" len="-192" pan="0" key="57"/>
                <note pos="624" vol="100" len="-192" pan="0" key="57"/>
                <note pos="720" vol="100" len="-192" pan="0" key="57"/>
              </pattern>
              <pattern name="" steps="16" pos="2688" muted="0" type="0">
                <note pos="144" vol="100" len="-192" pan="0" key="57"/>
                <note pos="156" vol="100" len="-192" pan="0" key="57"/>
                <note pos="168" vol="100" len="-192" pan="0" key="57"/>
                <note pos="180" vol="100" len="-192" pan="0" key="57"/>
              </pattern>
              <pattern name="" steps="16" pos="2880" muted="0" type="0">
                <note pos="0" vol="100" len="-192" pan="0" key="57"/>
                <note pos="48" vol="100" len="-192" pan="0" key="57"/>
              </pattern>
              <pattern name="" steps="16" pos="3072" muted="0" type="0">
                <note pos="0" vol="100" len="-192" pan="0" key="57"/>
                <note pos="24" vol="100" len="-192" pan="0" key="57"/>
                <note pos="96" vol="100" len="-192" pan="0" key="57"/>
                <note pos="120" vol="100" len="-192" pan="0" key="57"/>
              </pattern>
              <pattern name="" steps="32" pos="3264" muted="0" type="0">
                <note pos="336" vol="100" len="-192" pan="0" key="57"/>
                <note pos="348" vol="100" len="-192" pan="0" key="57"/>
                <note pos="360" vol="100" len="-192" pan="0" key="57"/>
                <note pos="372" vol="100" len="-192" pan="0" key="57"/>
              </pattern>
              <pattern name="" steps="16" pos="3456" muted="0" type="0"/>
              <pattern name="" steps="32" pos="3648" muted="0" type="0">
                <note pos="360" vol="100" len="-192" pan="0" key="57"/>
                <note pos="372" vol="100" len="-192" pan="0" key="57"/>
              </pattern>
              <pattern name="" steps="64" pos="3840" muted="0" type="0">
                <note pos="96" vol="100" len="-192" pan="0" key="57"/>
                <note pos="288" vol="100" len="-192" pan="0" key="57"/>
                <note pos="480" vol="100" len="-192" pan="0" key="57"/>
                <note pos="672" vol="100" len="-192" pan="0" key="57"/>
                <note pos="720" vol="100" len="-192" pan="0" key="57"/>
              </pattern>
              <pattern name="" steps="64" pos="4032" muted="0" type="0">
                <note pos="192" vol="100" len="-192" pan="0" key="57"/>
                <note pos="384" vol="100" len="-192" pan="0" key="57"/>
                <note pos="576" vol="100" len="-192" pan="0" key="57"/>
                <note pos="672" vol="100" len="-192" pan="0" key="57"/>
                <note pos="720" vol="100" len="-192" pan="0" key="57"/>
              </pattern>
              <pattern name="" steps="32" pos="4224" muted="0" type="0">
                <note pos="48" vol="100" len="-192" pan="0" key="57"/>
                <note pos="144" vol="100" len="-192" pan="0" key="57"/>
                <note pos="240" vol="100" len="-192" pan="0" key="57"/>
                <note pos="336" vol="100" len="-192" pan="0" key="57"/>
              </pattern>
              <pattern name="" steps="32" pos="4416" muted="0" type="0">
                <note pos="0" vol="100" len="-192" pan="0" key="57"/>
                <note pos="12" vol="100" len="-192" pan="0" key="57"/>
                <note pos="72" vol="100" len="-192" pan="0" key="57"/>
                <note pos="84" vol="100" len="-192" pan="0" key="57"/>
                <note pos="144" vol="100" len="-192" pan="0" key="57"/>
                <note pos="156" vol="100" len="-192" pan="0" key="57"/>
              </pattern>
              <pattern name="" steps="16" pos="4608" muted="0" type="0"/>
              <pattern name="" steps="32" pos="4800" muted="0" type="0">
                <note pos="0" vol="100" len="-192" pan="0" key="57"/>
                <note pos="72" vol="100" len="-192" pan="0" key="57"/>
                <note pos="144" vol="100" len="-192" pan="0" key="57"/>
                <note pos="240" vol="100" len="-192" pan="0" key="57"/>
                <note pos="252" vol="100" len="-192" pan="0" key="57"/>
                <note pos="336" vol="100" len="-192" pan="0" key="57"/>
                <note pos="348" vol="100" len="-192" pan="0" key="57"/>
                <note pos="360" vol="100" len="-192" pan="0" key="57"/>
                <note pos="372" vol="100" len="-192" pan="0" key="57"/>
              </pattern>
              <pattern name="" steps="64" pos="4992" muted="0" type="0"/>
              <pattern name="" steps="64" pos="5184" muted="0" type="0"/>
              <pattern name="" steps="64" pos="5376" muted="0" type="0"/>
              <pattern name="" steps="128" pos="5568" muted="0" type="0">
                <note pos="48" vol="100" len="-192" pan="0" key="57"/>
                <note pos="144" vol="100" len="-192" pan="0" key="57"/>
                <note pos="240" vol="100" len="-192" pan="0" key="57"/>
                <note pos="336" vol="100" len="-192" pan="0" key="57"/>
                <note pos="432" vol="100" len="-192" pan="0" key="57"/>
                <note pos="528" vol="100" len="-192" pan="0" key="57"/>
                <note pos="624" vol="100" len="-192" pan="0" key="57"/>
                <note pos="720" vol="100" len="-192" pan="0" key="57"/>
                <note pos="816" vol="100" len="-192" pan="0" key="57"/>
                <note pos="912" vol="100" len="-192" pan="0" key="57"/>
                <note pos="1008" vol="100" len="-192" pan="0" key="57"/>
                <note pos="1104" vol="100" len="-192" pan="0" key="57"/>
                <note pos="1200" vol="100" len="-192" pan="0" key="57"/>
                <note pos="1296" vol="100" len="-192" pan="0" key="57"/>
                <note pos="1392" vol="100" len="-192" pan="0" key="57"/>
                <note pos="1488" vol="100" len="-192" pan="0" key="57"/>
              </pattern>
              <pattern name="" steps="16" pos="5760" muted="0" type="0">
                <note pos="0" vol="100" len="-192" pan="0" key="57"/>
                <note pos="48" vol="100" len="-192" pan="0" key="57"/>
                <note pos="96" vol="100" len="-192" pan="0" key="57"/>
                <note pos="144" vol="100" len="-192" pan="0" key="57"/>
                <note pos="156" vol="100" len="-192" pan="0" key="57"/>
                <note pos="168" vol="100" len="-192" pan="0" key="57"/>
                <note pos="180" vol="100" len="-192" pan="0" key="57"/>
              </pattern>
              <pattern name="" steps="64" pos="5952" muted="0" type="0">
                <note pos="96" vol="100" len="-192" pan="0" key="57"/>
                <note pos="288" vol="100" len="-192" pan="0" key="57"/>
                <note pos="480" vol="100" len="-192" pan="0" key="57"/>
                <note pos="672" vol="100" len="-192" pan="0" key="57"/>
              </pattern>
              <pattern name="" steps="16" pos="6144" muted="0" type="0">
                <note pos="96" vol="100" len="-192" pan="0" key="57"/>
                <note pos="108" vol="100" len="-192" pan="0" key="57"/>
              </pattern>
              <pattern name="snare.wav" steps="16" pos="6336" muted="0" type="0"/>
              <pattern name="snare.wav" steps="16" pos="6528" muted="0" type="0"/>
              <pattern name="snare.wav" steps="64" pos="6720" muted="0" type="0">
                <note pos="0" vol="100" len="-192" pan="0" key="57"/>
                <note pos="48" vol="100" len="-192" pan="0" key="57"/>
                <note pos="96" vol="100" len="-192" pan="0" key="57"/>
                <note pos="144" vol="100" len="-192" pan="0" key="57"/>
                <note pos="192" vol="100" len="-192" pan="0" key="57"/>
                <note pos="204" vol="100" len="-192" pan="0" key="57"/>
                <note pos="264" vol="100" len="-192" pan="0" key="57"/>
                <note pos="276" vol="100" len="-192" pan="0" key="57"/>
                <note pos="336" vol="100" len="-192" pan="0" key="57"/>
                <note pos="348" vol="100" len="-192" pan="0" key="57"/>
                <note pos="408" vol="100" len="-192" pan="0" key="57"/>
                <note pos="420" vol="100" len="-192" pan="0" key="57"/>
                <note pos="480" vol="100" len="-192" pan="0" key="57"/>
                <note pos="528" vol="100" len="-192" pan="0" key="57"/>
                <note pos="540" vol="100" len="-192" pan="0" key="57"/>
                <note pos="552" vol="100" len="-192" pan="0" key="57"/>
                <note pos="564" vol="100" len="-192" pan="0" key="57"/>
              </pattern>
            </track>
            <track name="crash1.wav" solo="0" muted="0" type="0">
              <instrumenttrack basenote="57" fxch="4" usemasterpitch="1" pitch="0" vol="71.2" pan="0" pitchrange="1">
                <instrument name="audiofileprocessor">
                  <audiofileprocessor src="/home/pass/samples/sillydrums/crash1.wav" reversed="0" interp="1" amp="100" looped="0" sframe="0" stutter="0" eframe="1" lframe="0"/>
                </instrument>
                <eldata fwet="0" fcut="14000" ftype="0" fres="0.5">
                  <elvol x100="0" userwavefile="" dec="2" amt="1" pdel="0" hold="2" lamt="0" lpdel="0" lshp="0" lspd_denominator="4" att="0" ctlenvamt="0" lspd="0.1" lspd_syncmode="0" rel="2" latt="0" lspd_numerator="4" sustain="1"/>
                  <elcut x100="0" userwavefile="" dec="0.5" amt="0" pdel="0" hold="0.5" lamt="0" lpdel="0" lshp="0" lspd_denominator="4" att="0" ctlenvamt="0" lspd="0.1" lspd_syncmode="0" rel="0.1" latt="0" lspd_numerator="4" sustain="0.5"/>
                  <elres x100="0" userwavefile="" dec="0.5" amt="0" pdel="0" hold="0.5" lamt="0" lpdel="0" lshp="0" lspd_denominator="4" att="0" ctlenvamt="0" lspd="0.1" lspd_syncmode="0" rel="0.1" latt="0" lspd_numerator="4" sustain="0.5"/>
                </eldata>
                <chordcreator chord-enabled="0" chord="0" chordrange="1"/>
                <arpeggiator arprange="1" arpmode="0" arp="0" arptime_numerator="4" arpmiss="0" arptime_denominator="4" arpcycle="0" arpskip="0" arptime_syncmode="0" arpgate="100" arptime="200" arpdir="0" arp-enabled="0"/>
                <midiport fixedoutputnote="-1" outputprogram="1" inputcontroller="0" writable="0" fixedoutputvelocity="-1" readable="0" outputchannel="1" basevelocity="63" outputcontroller="0" fixedinputvelocity="-1" inputchannel="0"/>
                <fxchain numofeffects="0" enabled="0"/>
              </instrumenttrack>
              <pattern name="" steps="64" pos="0" muted="0" type="0">
                <note pos="0" vol="100" len="-192" pan="0" key="57"/>
              </pattern>
              <pattern name="" steps="64" pos="192" muted="0" type="0">
                <note pos="0" vol="100" len="-192" pan="0" key="57"/>
              </pattern>
              <pattern name="" steps="32" pos="384" muted="0" type="0">
                <note pos="288" vol="100" len="-192" pan="0" key="57"/>
              </pattern>
              <pattern name="" steps="64" pos="576" muted="0" type="0">
                <note pos="0" vol="100" len="-192" pan="0" key="57"/>
              </pattern>
              <pattern name="" steps="16" pos="768" muted="0" type="0"/>
              <pattern name="" steps="64" pos="960" muted="0" type="0">
                <note pos="0" vol="100" len="-192" pan="0" key="57"/>
                <note pos="384" vol="100" len="-192" pan="0" key="57"/>
              </pattern>
              <pattern name="" steps="64" pos="1152" muted="0" type="0">
                <note pos="0" vol="100" len="-192" pan="0" key="57"/>
              </pattern>
              <pattern name="" steps="32" pos="1344" muted="0" type="0"/>
              <pattern name="" steps="64" pos="1536" muted="0" type="0">
                <note pos="0" vol="100" len="-192" pan="0" key="57"/>
              </pattern>
              <pattern name="" steps="32" pos="1728" muted="0" type="0">
                <note pos="0" vol="100" len="-192" pan="0" key="57"/>
              </pattern>
              <pattern name="" steps="64" pos="1920" muted="0" type="0">
                <note pos="0" vol="100" len="-192" pan="0" key="57"/>
              </pattern>
              <pattern name="" steps="32" pos="2112" muted="0" type="0">
                <note pos="0" vol="100" len="-192" pan="0" key="57"/>
              </pattern>
              <pattern name="" steps="32" pos="2304" muted="0" type="0">
                <note pos="0" vol="100" len="-192" pan="0" key="57"/>
              </pattern>
              <pattern name="" steps="64" pos="2496" muted="0" type="0">
                <note pos="0" vol="100" len="-192" pan="0" key="57"/>
                <note pos="384" vol="100" len="-192" pan="0" key="57"/>
              </pattern>
              <pattern name="" steps="16" pos="2688" muted="0" type="0">
                <note pos="0" vol="100" len="-192" pan="0" key="57"/>
                <note pos="96" vol="100" len="-192" pan="0" key="57"/>
              </pattern>
              <pattern name="" steps="16" pos="2880" muted="0" type="0">
                <note pos="96" vol="100" len="-192" pan="0" key="57"/>
              </pattern>
              <pattern name="" steps="16" pos="3072" muted="0" type="0"/>
              <pattern name="" steps="32" pos="3264" muted="0" type="0">
                <note pos="96" vol="100" len="-192" pan="0" key="57"/>
                <note pos="288" vol="100" len="-192" pan="0" key="57"/>
              </pattern>
              <pattern name="" steps="16" pos="3456" muted="0" type="0">
                <note pos="0" vol="100" len="-192" pan="0" key="57"/>
              </pattern>
              <pattern name="" steps="32" pos="3648" muted="0" type="0">
                <note pos="0" vol="100" len="-192" pan="0" key="57"/>
                <note pos="192" vol="100" len="-192" pan="0" key="57"/>
              </pattern>
              <pattern name="" steps="64" pos="3840" muted="0" type="0">
                <note pos="0" vol="100" len="-192" pan="0" key="57"/>
                <note pos="384" vol="100" len="-192" pan="0" key="57"/>
              </pattern>
              <pattern name="" steps="64" pos="4032" muted="0" type="0">
                <note pos="0" vol="100" len="-192" pan="0" key="57"/>
                <note pos="384" vol="100" len="-192" pan="0" key="57"/>
              </pattern>
              <pattern name="" steps="32" pos="4224" muted="0" type="0">
                <note pos="0" vol="100" len="-192" pan="0" key="57"/>
              </pattern>
              <pattern name="" steps="32" pos="4416" muted="0" type="0">
                <note pos="192" vol="100" len="-192" pan="0" key="57"/>
              </pattern>
              <pattern name="" steps="16" pos="4608" muted="0" type="0">
                <note pos="0" vol="100" len="-192" pan="0" key="57"/>
              </pattern>
              <pattern name="" steps="32" pos="4800" muted="0" type="0">
                <note pos="0" vol="100" len="-192" pan="0" key="57"/>
              </pattern>
              <pattern name="" steps="64" pos="4992" muted="0" type="0">
                <note pos="0" vol="100" len="-192" pan="0" key="57"/>
                <note pos="384" vol="100" len="-192" pan="0" key="57"/>
              </pattern>
              <pattern name="" steps="64" pos="5184" muted="0" type="0">
                <note pos="0" vol="100" len="-192" pan="0" key="57"/>
                <note pos="384" vol="100" len="-192" pan="0" key="57"/>
                <note pos="576" vol="100" len="-192" pan="0" key="57"/>
              </pattern>
              <pattern name="" steps="64" pos="5376" muted="0" type="0">
                <note pos="0" vol="100" len="-192" pan="0" key="57"/>
                <note pos="576" vol="100" len="-192" pan="0" key="57"/>
              </pattern>
              <pattern name="" steps="128" pos="5568" muted="0" type="0">
                <note pos="0" vol="100" len="-192" pan="0" key="57"/>
              </pattern>
              <pattern name="" steps="16" pos="5760" muted="0" type="0"/>
              <pattern name="" steps="64" pos="5952" muted="0" type="0">
                <note pos="0" vol="100" len="-192" pan="0" key="57"/>
                <note pos="384" vol="100" len="-192" pan="0" key="57"/>
              </pattern>
              <pattern name="" steps="16" pos="6144" muted="0" type="0"/>
              <pattern name="crash1.wav" steps="16" pos="6336" muted="0" type="0"/>
              <pattern name="crash1.wav" steps="16" pos="6528" muted="0" type="0"/>
              <pattern name="crash1.wav" steps="64" pos="6720" muted="0" type="0">
                <note pos="576" vol="100" len="-192" pan="0" key="57"/>
              </pattern>
            </track>
            <track name="crash1m" solo="0" muted="0" type="0">
              <instrumenttrack basenote="57" fxch="4" usemasterpitch="1" pitch="0" vol="71.2" pan="0" pitchrange="1">
                <instrument name="audiofileprocessor">
                  <audiofileprocessor src="/home/pass/samples/sillydrums/crash1.wav" reversed="0" interp="1" amp="100" looped="0" sframe="0" stutter="0" eframe="1" lframe="0"/>
                </instrument>
                <eldata fwet="0" fcut="14000" ftype="0" fres="0.5">
                  <elvol x100="0" userwavefile="" dec="0.216" amt="1" pdel="0" hold="0.232" lamt="0" lpdel="0" lshp="0" lspd_denominator="4" att="0" ctlenvamt="0" lspd="0.1" lspd_syncmode="0" rel="0.208" latt="0" lspd_numerator="4" sustain="0"/>
                  <elcut x100="0" userwavefile="" dec="0.5" amt="0" pdel="0" hold="0.5" lamt="0" lpdel="0" lshp="0" lspd_denominator="4" att="0" ctlenvamt="0" lspd="0.1" lspd_syncmode="0" rel="0.1" latt="0" lspd_numerator="4" sustain="0.5"/>
                  <elres x100="0" userwavefile="" dec="0.5" amt="0" pdel="0" hold="0.5" lamt="0" lpdel="0" lshp="0" lspd_denominator="4" att="0" ctlenvamt="0" lspd="0.1" lspd_syncmode="0" rel="0.1" latt="0" lspd_numerator="4" sustain="0.5"/>
                </eldata>
                <chordcreator chord-enabled="0" chord="0" chordrange="1"/>
                <arpeggiator arprange="1" arpmode="0" arp="0" arptime_numerator="4" arpmiss="0" arptime_denominator="4" arpcycle="0" arpskip="0" arptime_syncmode="0" arpgate="100" arptime="200" arpdir="0" arp-enabled="0"/>
                <midiport fixedoutputnote="-1" outputprogram="1" inputcontroller="0" writable="0" fixedoutputvelocity="-1" readable="0" outputchannel="1" basevelocity="63" outputcontroller="0" fixedinputvelocity="-1" inputchannel="0"/>
                <fxchain numofeffects="0" enabled="0"/>
              </instrumenttrack>
              <pattern name="" steps="64" pos="0" muted="0" type="0"/>
              <pattern name="" steps="64" pos="192" muted="0" type="0"/>
              <pattern name="" steps="32" pos="384" muted="0" type="0">
                <note pos="0" vol="100" len="-192" pan="0" key="57"/>
                <note pos="72" vol="100" len="-192" pan="0" key="57"/>
                <note pos="144" vol="100" len="-192" pan="0" key="57"/>
                <note pos="216" vol="100" len="-192" pan="0" key="57"/>
              </pattern>
              <pattern name="" steps="64" pos="576" muted="0" type="0"/>
              <pattern name="" steps="16" pos="768" muted="0" type="0"/>
              <pattern name="" steps="64" pos="960" muted="0" type="0"/>
              <pattern name="" steps="64" pos="1152" muted="0" type="0"/>
              <pattern name="" steps="32" pos="1344" muted="0" type="0">
                <note pos="0" vol="100" len="-192" pan="0" key="57"/>
              </pattern>
              <pattern name="" steps="64" pos="1536" muted="0" type="0"/>
              <pattern name="" steps="32" pos="1728" muted="0" type="0"/>
              <pattern name="" steps="64" pos="1920" muted="0" type="0"/>
              <pattern name="" steps="32" pos="2112" muted="0" type="0"/>
              <pattern name="" steps="32" pos="2304" muted="0" type="0"/>
              <pattern name="" steps="64" pos="2496" muted="0" type="0"/>
              <pattern name="" steps="16" pos="2688" muted="0" type="0"/>
              <pattern name="" steps="16" pos="2880" muted="0" type="0"/>
              <pattern name="" steps="16" pos="3072" muted="0" type="0"/>
              <pattern name="" steps="32" pos="3264" muted="0" type="0"/>
              <pattern name="" steps="16" pos="3456" muted="0" type="0"/>
              <pattern name="" steps="32" pos="3648" muted="0" type="0"/>
              <pattern name="" steps="64" pos="3840" muted="0" type="0"/>
              <pattern name="" steps="64" pos="4032" muted="0" type="0"/>
              <pattern name="" steps="32" pos="4224" muted="0" type="0"/>
              <pattern name="" steps="32" pos="4416" muted="0" type="0"/>
              <pattern name="" steps="16" pos="4608" muted="0" type="0"/>
              <pattern name="" steps="32" pos="4800" muted="0" type="0"/>
              <pattern name="" steps="64" pos="4992" muted="0" type="0"/>
              <pattern name="" steps="64" pos="5184" muted="0" type="0"/>
              <pattern name="" steps="64" pos="5376" muted="0" type="0"/>
              <pattern name="" steps="128" pos="5568" muted="0" type="0"/>
              <pattern name="" steps="16" pos="5760" muted="0" type="0"/>
              <pattern name="" steps="64" pos="5952" muted="0" type="0"/>
              <pattern name="" steps="16" pos="6144" muted="0" type="0"/>
              <pattern name="crash1m" steps="16" pos="6336" muted="0" type="0"/>
              <pattern name="crash1m" steps="16" pos="6528" muted="0" type="0"/>
              <pattern name="crash1m" steps="64" pos="6720" muted="0" type="0"/>
            </track>
            <track name="crash2.wav" solo="0" muted="0" type="0">
              <instrumenttrack basenote="57" fxch="5" usemasterpitch="1" pitch="0" vol="76.8" pan="28" pitchrange="1">
                <instrument name="audiofileprocessor">
                  <audiofileprocessor src="/home/pass/samples/sillydrums/crash2.wav" reversed="0" interp="1" amp="100" looped="0" sframe="0" stutter="0" eframe="1" lframe="0"/>
                </instrument>
                <eldata fwet="0" fcut="14000" ftype="0" fres="0.5">
                  <elvol x100="0" userwavefile="" dec="2" amt="1" pdel="0" hold="2" lamt="0" lpdel="0" lshp="0" lspd_denominator="4" att="0" ctlenvamt="0" lspd="0.1" lspd_syncmode="0" rel="2" latt="0" lspd_numerator="4" sustain="1"/>
                  <elcut x100="0" userwavefile="" dec="0.5" amt="0" pdel="0" hold="0.5" lamt="0" lpdel="0" lshp="0" lspd_denominator="4" att="0" ctlenvamt="0" lspd="0.1" lspd_syncmode="0" rel="0.1" latt="0" lspd_numerator="4" sustain="0.5"/>
                  <elres x100="0" userwavefile="" dec="0.5" amt="0" pdel="0" hold="0.5" lamt="0" lpdel="0" lshp="0" lspd_denominator="4" att="0" ctlenvamt="0" lspd="0.1" lspd_syncmode="0" rel="0.1" latt="0" lspd_numerator="4" sustain="0.5"/>
                </eldata>
                <chordcreator chord-enabled="0" chord="0" chordrange="1"/>
                <arpeggiator arprange="1" arpmode="0" arp="0" arptime_numerator="4" arpmiss="0" arptime_denominator="4" arpcycle="0" arpskip="0" arptime_syncmode="0" arpgate="100" arptime="200" arpdir="0" arp-enabled="0"/>
                <midiport fixedoutputnote="-1" outputprogram="1" inputcontroller="0" writable="0" fixedoutputvelocity="-1" readable="0" outputchannel="1" basevelocity="63" outputcontroller="0" fixedinputvelocity="-1" inputchannel="0"/>
                <fxchain numofeffects="0" enabled="0"/>
              </instrumenttrack>
              <pattern name="" steps="64" pos="0" muted="0" type="0">
                <note pos="384" vol="100" len="-192" pan="0" key="57"/>
              </pattern>
              <pattern name="" steps="64" pos="192" muted="0" type="0">
                <note pos="384" vol="100" len="-192" pan="0" key="57"/>
              </pattern>
              <pattern name="" steps="32" pos="384" muted="0" type="0"/>
              <pattern name="" steps="64" pos="576" muted="0" type="0">
                <note pos="384" vol="100" len="-192" pan="0" key="57"/>
              </pattern>
              <pattern name="" steps="16" pos="768" muted="0" type="0"/>
              <pattern name="" steps="64" pos="960" muted="0" type="0">
                <note pos="192" vol="100" len="-192" pan="0" key="57"/>
              </pattern>
              <pattern name="" steps="64" pos="1152" muted="0" type="0">
                <note pos="384" vol="100" len="-192" pan="0" key="57"/>
              </pattern>
              <pattern name="" steps="32" pos="1344" muted="0" type="0"/>
              <pattern name="" steps="64" pos="1536" muted="0" type="0">
                <note pos="384" vol="100" len="-192" pan="0" key="57"/>
              </pattern>
              <pattern name="" steps="32" pos="1728" muted="0" type="0">
                <note pos="192" vol="100" len="-192" pan="0" key="57"/>
              </pattern>
              <pattern name="" steps="64" pos="1920" muted="0" type="0">
                <note pos="384" vol="100" len="-192" pan="0" key="57"/>
              </pattern>
              <pattern name="" steps="32" pos="2112" muted="0" type="0"/>
              <pattern name="" steps="32" pos="2304" muted="0" type="0">
                <note pos="192" vol="100" len="-192" pan="0" key="57"/>
              </pattern>
              <pattern name="" steps="64" pos="2496" muted="0" type="0">
                <note pos="192" vol="100" len="-192" pan="0" key="57"/>
              </pattern>
              <pattern name="" steps="16" pos="2688" muted="0" type="0">
                <note pos="48" vol="100" len="-192" pan="0" key="57"/>
              </pattern>
              <pattern name="" steps="16" pos="2880" muted="0" type="0">
                <note pos="144" vol="100" len="-192" pan="0" key="57"/>
              </pattern>
              <pattern name="" steps="16" pos="3072" muted="0" type="0"/>
              <pattern name="" steps="32" pos="3264" muted="0" type="0">
                <note pos="192" vol="100" len="-192" pan="0" key="57"/>
                <note pos="288" vol="100" len="-192" pan="0" key="57"/>
              </pattern>
              <pattern name="" steps="16" pos="3456" muted="0" type="0">
                <note pos="96" vol="100" len="-192" pan="0" key="57"/>
              </pattern>
              <pattern name="" steps="32" pos="3648" muted="0" type="0">
                <note pos="288" vol="100" len="-192" pan="0" key="57"/>
              </pattern>
              <pattern name="" steps="64" pos="3840" muted="0" type="0">
                <note pos="192" vol="100" len="-192" pan="0" key="57"/>
                <note pos="576" vol="100" len="-192" pan="0" key="57"/>
              </pattern>
              <pattern name="" steps="64" pos="4032" muted="0" type="0">
                <note pos="192" vol="100" len="-192" pan="0" key="57"/>
                <note pos="576" vol="100" len="-192" pan="0" key="57"/>
              </pattern>
              <pattern name="" steps="32" pos="4224" muted="0" type="0">
                <note pos="192" vol="100" len="-192" pan="0" key="57"/>
              </pattern>
              <pattern name="" steps="32" pos="4416" muted="0" type="0">
                <note pos="192" vol="100" len="-192" pan="0" key="57"/>
              </pattern>
              <pattern name="" steps="16" pos="4608" muted="0" type="0">
                <note pos="96" vol="100" len="-192" pan="0" key="57"/>
              </pattern>
              <pattern name="" steps="32" pos="4800" muted="0" type="0">
                <note pos="72" vol="100" len="-192" pan="0" key="57"/>
              </pattern>
              <pattern name="" steps="64" pos="4992" muted="0" type="0">
                <note pos="192" vol="100" len="-192" pan="0" key="57"/>
              </pattern>
              <pattern name="" steps="64" pos="5184" muted="0" type="0">
                <note pos="192" vol="100" len="-192" pan="0" key="57"/>
                <note pos="672" vol="100" len="-192" pan="0" key="57"/>
              </pattern>
              <pattern name="" steps="64" pos="5376" muted="0" type="0">
                <note pos="384" vol="100" len="-192" pan="0" key="57"/>
                <note pos="672" vol="100" len="-192" pan="0" key="57"/>
              </pattern>
              <pattern name="" steps="128" pos="5568" muted="0" type="0">
                <note pos="768" vol="100" len="-192" pan="0" key="57"/>
              </pattern>
              <pattern name="" steps="16" pos="5760" muted="0" type="0"/>
              <pattern name="" steps="64" pos="5952" muted="0" type="0">
                <note pos="192" vol="100" len="-192" pan="0" key="57"/>
              </pattern>
              <pattern name="" steps="16" pos="6144" muted="0" type="0"/>
              <pattern name="crash2.wav" steps="16" pos="6336" muted="0" type="0"/>
              <pattern name="crash2.wav" steps="16" pos="6528" muted="0" type="0"/>
              <pattern name="crash2.wav" steps="64" pos="6720" muted="0" type="0">
                <note pos="576" vol="100" len="-192" pan="0" key="57"/>
              </pattern>
            </track>
            <track name="china.wav" solo="0" muted="0" type="0">
              <instrumenttrack basenote="57" fxch="6" usemasterpitch="1" pitch="0" vol="52" pan="0" pitchrange="1">
                <instrument name="audiofileprocessor">
                  <audiofileprocessor src="/home/pass/samples/sillydrums/china.wav" reversed="0" interp="1" amp="100" looped="0" sframe="0" stutter="0" eframe="1" lframe="0"/>
                </instrument>
                <eldata fwet="0" fcut="14000" ftype="0" fres="0.5">
                  <elvol x100="0" userwavefile="" dec="2" amt="1" pdel="0" hold="2" lamt="0" lpdel="0" lshp="0" lspd_denominator="4" att="0" ctlenvamt="0" lspd="0.1" lspd_syncmode="0" rel="2" latt="0" lspd_numerator="4" sustain="1"/>
                  <elcut x100="0" userwavefile="" dec="0.5" amt="0" pdel="0" hold="0.5" lamt="0" lpdel="0" lshp="0" lspd_denominator="4" att="0" ctlenvamt="0" lspd="0.1" lspd_syncmode="0" rel="0.1" latt="0" lspd_numerator="4" sustain="0.5"/>
                  <elres x100="0" userwavefile="" dec="0.5" amt="0" pdel="0" hold="0.5" lamt="0" lpdel="0" lshp="0" lspd_denominator="4" att="0" ctlenvamt="0" lspd="0.1" lspd_syncmode="0" rel="0.1" latt="0" lspd_numerator="4" sustain="0.5"/>
                </eldata>
                <chordcreator chord-enabled="0" chord="0" chordrange="1"/>
                <arpeggiator arprange="1" arpmode="0" arp="0" arptime_numerator="4" arpmiss="0" arptime_denominator="4" arpcycle="0" arpskip="0" arptime_syncmode="0" arpgate="100" arptime="200" arpdir="0" arp-enabled="0"/>
                <midiport fixedoutputnote="-1" outputprogram="1" inputcontroller="0" writable="0" fixedoutputvelocity="-1" readable="0" outputchannel="1" basevelocity="63" outputcontroller="0" fixedinputvelocity="-1" inputchannel="0"/>
                <fxchain numofeffects="0" enabled="0"/>
              </instrumenttrack>
              <pattern name="" steps="64" pos="0" muted="0" type="0"/>
              <pattern name="" steps="64" pos="192" muted="0" type="0"/>
              <pattern name="" steps="32" pos="384" muted="0" type="0"/>
              <pattern name="" steps="64" pos="576" muted="0" type="0"/>
              <pattern name="" steps="16" pos="768" muted="0" type="0"/>
              <pattern name="" steps="64" pos="960" muted="0" type="0"/>
              <pattern name="" steps="64" pos="1152" muted="0" type="0"/>
              <pattern name="" steps="32" pos="1344" muted="0" type="0"/>
              <pattern name="" steps="64" pos="1536" muted="0" type="0"/>
              <pattern name="" steps="32" pos="1728" muted="0" type="0"/>
              <pattern name="" steps="64" pos="1920" muted="0" type="0"/>
              <pattern name="" steps="32" pos="2112" muted="0" type="0"/>
              <pattern name="" steps="32" pos="2304" muted="0" type="0"/>
              <pattern name="" steps="64" pos="2496" muted="0" type="0"/>
              <pattern name="" steps="16" pos="2688" muted="0" type="0"/>
              <pattern name="" steps="16" pos="2880" muted="0" type="0"/>
              <pattern name="" steps="16" pos="3072" muted="0" type="0"/>
              <pattern name="" steps="32" pos="3264" muted="0" type="0"/>
              <pattern name="" steps="16" pos="3456" muted="0" type="0"/>
              <pattern name="" steps="32" pos="3648" muted="0" type="0"/>
              <pattern name="" steps="64" pos="3840" muted="0" type="0"/>
              <pattern name="" steps="64" pos="4032" muted="0" type="0"/>
              <pattern name="" steps="32" pos="4224" muted="0" type="0">
                <note pos="48" vol="100" len="-192" pan="0" key="57"/>
                <note pos="96" vol="100" len="-192" pan="0" key="57"/>
                <note pos="144" vol="100" len="-192" pan="0" key="57"/>
                <note pos="240" vol="100" len="-192" pan="0" key="57"/>
                <note pos="288" vol="100" len="-192" pan="0" key="57"/>
                <note pos="336" vol="100" len="-192" pan="0" key="57"/>
              </pattern>
              <pattern name="" steps="32" pos="4416" muted="0" type="0"/>
              <pattern name="" steps="16" pos="4608" muted="0" type="0"/>
              <pattern name="" steps="32" pos="4800" muted="0" type="0"/>
              <pattern name="" steps="64" pos="4992" muted="0" type="0">
                <note pos="672" vol="100" len="-192" pan="0" key="57"/>
              </pattern>
              <pattern name="" steps="64" pos="5184" muted="0" type="0"/>
              <pattern name="" steps="64" pos="5376" muted="0" type="0"/>
              <pattern name="" steps="128" pos="5568" muted="0" type="0"/>
              <pattern name="" steps="16" pos="5760" muted="0" type="0"/>
              <pattern name="" steps="64" pos="5952" muted="0" type="0"/>
              <pattern name="" steps="16" pos="6144" muted="0" type="0"/>
              <pattern name="china.wav" steps="16" pos="6336" muted="0" type="0"/>
              <pattern name="china.wav" steps="16" pos="6528" muted="0" type="0"/>
              <pattern name="china.wav" steps="64" pos="6720" muted="0" type="0">
                <note pos="0" vol="100" len="-192" pan="0" key="57"/>
                <note pos="48" vol="100" len="-192" pan="0" key="57"/>
                <note pos="96" vol="100" len="-192" pan="0" key="57"/>
                <note pos="144" vol="100" len="-192" pan="0" key="57"/>
              </pattern>
            </track>
            <track name="hiTom.wav" solo="0" muted="0" type="0">
              <instrumenttrack basenote="57" fxch="7" usemasterpitch="1" pitch="0" vol="130.4" pan="0" pitchrange="1">
                <instrument name="audiofileprocessor">
                  <audiofileprocessor src="/home/pass/samples/sillydrums/hiTom.wav" reversed="0" interp="1" amp="100" looped="0" sframe="0" stutter="0" eframe="1" lframe="0"/>
                </instrument>
                <eldata fwet="0" fcut="14000" ftype="0" fres="0.5">
                  <elvol x100="0" userwavefile="" dec="2" amt="1" pdel="0" hold="2" lamt="0" lpdel="0" lshp="0" lspd_denominator="4" att="0" ctlenvamt="0" lspd="0.1" lspd_syncmode="0" rel="2" latt="0" lspd_numerator="4" sustain="1"/>
                  <elcut x100="0" userwavefile="" dec="0.5" amt="0" pdel="0" hold="0.5" lamt="0" lpdel="0" lshp="0" lspd_denominator="4" att="0" ctlenvamt="0" lspd="0.1" lspd_syncmode="0" rel="0.1" latt="0" lspd_numerator="4" sustain="0.5"/>
                  <elres x100="0" userwavefile="" dec="0.5" amt="0" pdel="0" hold="0.5" lamt="0" lpdel="0" lshp="0" lspd_denominator="4" att="0" ctlenvamt="0" lspd="0.1" lspd_syncmode="0" rel="0.1" latt="0" lspd_numerator="4" sustain="0.5"/>
                </eldata>
                <chordcreator chord-enabled="0" chord="0" chordrange="1"/>
                <arpeggiator arprange="1" arpmode="0" arp="0" arptime_numerator="4" arpmiss="0" arptime_denominator="4" arpcycle="0" arpskip="0" arptime_syncmode="0" arpgate="100" arptime="200" arpdir="0" arp-enabled="0"/>
                <midiport fixedoutputnote="-1" outputprogram="1" inputcontroller="0" writable="0" fixedoutputvelocity="-1" readable="0" outputchannel="1" basevelocity="63" outputcontroller="0" fixedinputvelocity="-1" inputchannel="0"/>
                <fxchain numofeffects="0" enabled="0"/>
              </instrumenttrack>
              <pattern name="" steps="64" pos="0" muted="0" type="0"/>
              <pattern name="" steps="64" pos="192" muted="0" type="0"/>
              <pattern name="" steps="32" pos="384" muted="0" type="0"/>
              <pattern name="" steps="64" pos="576" muted="0" type="0"/>
              <pattern name="" steps="16" pos="768" muted="0" type="0"/>
              <pattern name="" steps="64" pos="960" muted="0" type="0"/>
              <pattern name="" steps="64" pos="1152" muted="0" type="0"/>
              <pattern name="" steps="32" pos="1344" muted="0" type="0"/>
              <pattern name="" steps="64" pos="1536" muted="0" type="0"/>
              <pattern name="" steps="32" pos="1728" muted="0" type="0"/>
              <pattern name="" steps="64" pos="1920" muted="0" type="0"/>
              <pattern name="" steps="32" pos="2112" muted="0" type="0">
                <note pos="204" vol="100" len="-192" pan="0" key="57"/>
                <note pos="216" vol="100" len="-192" pan="0" key="57"/>
                <note pos="228" vol="100" len="-192" pan="0" key="57"/>
              </pattern>
              <pattern name="" steps="32" pos="2304" muted="0" type="0"/>
              <pattern name="" steps="64" pos="2496" muted="0" type="0"/>
              <pattern name="" steps="16" pos="2688" muted="0" type="0"/>
              <pattern name="" steps="16" pos="2880" muted="0" type="0">
                <note pos="12" vol="100" len="-192" pan="0" key="57"/>
                <note pos="60" vol="100" len="-192" pan="0" key="57"/>
              </pattern>
              <pattern name="" steps="16" pos="3072" muted="0" type="0"/>
              <pattern name="" steps="32" pos="3264" muted="0" type="0"/>
              <pattern name="" steps="16" pos="3456" muted="0" type="0"/>
              <pattern name="" steps="32" pos="3648" muted="0" type="0"/>
              <pattern name="" steps="64" pos="3840" muted="0" type="0"/>
              <pattern name="" steps="64" pos="4032" muted="0" type="0"/>
              <pattern name="" steps="32" pos="4224" muted="0" type="0"/>
              <pattern name="" steps="32" pos="4416" muted="0" type="0">
                <note pos="24" vol="100" len="-192" pan="0" key="57"/>
                <note pos="36" vol="100" len="-192" pan="0" key="57"/>
                <note pos="48" vol="100" len="-192" pan="0" key="57"/>
                <note pos="60" vol="100" len="-192" pan="0" key="57"/>
              </pattern>
              <pattern name="" steps="16" pos="4608" muted="0" type="0"/>
              <pattern name="" steps="32" pos="4800" muted="0" type="0">
                <note pos="192" vol="100" len="-192" pan="0" key="57"/>
                <note pos="204" vol="100" len="-192" pan="0" key="57"/>
                <note pos="288" vol="100" len="-192" pan="0" key="57"/>
                <note pos="300" vol="100" len="-192" pan="0" key="57"/>
              </pattern>
              <pattern name="" steps="64" pos="4992" muted="0" type="0"/>
              <pattern name="" steps="64" pos="5184" muted="0" type="0"/>
              <pattern name="" steps="64" pos="5376" muted="0" type="0"/>
              <pattern name="" steps="128" pos="5568" muted="0" type="0"/>
              <pattern name="" steps="16" pos="5760" muted="0" type="0">
                <note pos="12" vol="100" len="-192" pan="0" key="57"/>
                <note pos="24" vol="100" len="-192" pan="0" key="57"/>
                <note pos="36" vol="100" len="-192" pan="0" key="57"/>
              </pattern>
              <pattern name="" steps="64" pos="5952" muted="0" type="0"/>
              <pattern name="" steps="16" pos="6144" muted="0" type="0">
                <note pos="120" vol="100" len="-192" pan="0" key="57"/>
                <note pos="132" vol="100" len="-192" pan="0" key="57"/>
              </pattern>
              <pattern name="hiTom.wav" steps="16" pos="6336" muted="0" type="0"/>
              <pattern name="hiTom.wav" steps="16" pos="6528" muted="0" type="0"/>
              <pattern name="hiTom.wav" steps="64" pos="6720" muted="0" type="0">
                <note pos="12" vol="100" len="-192" pan="0" key="57"/>
                <note pos="60" vol="100" len="-192" pan="0" key="57"/>
                <note pos="108" vol="100" len="-192" pan="0" key="57"/>
                <note pos="156" vol="100" len="-192" pan="0" key="57"/>
                <note pos="216" vol="100" len="-192" pan="0" key="57"/>
                <note pos="228" vol="100" len="-192" pan="0" key="57"/>
                <note pos="240" vol="100" len="-192" pan="0" key="57"/>
                <note pos="252" vol="100" len="-192" pan="0" key="57"/>
                <note pos="492" vol="100" len="-192" pan="0" key="57"/>
              </pattern>
            </track>
            <track name="midTom.wav" solo="0" muted="0" type="0">
              <instrumenttrack basenote="57" fxch="8" usemasterpitch="1" pitch="0" vol="130.4" pan="0" pitchrange="1">
                <instrument name="audiofileprocessor">
                  <audiofileprocessor src="/home/pass/samples/sillydrums/midTom.wav" reversed="0" interp="1" amp="100" looped="0" sframe="0" stutter="0" eframe="1" lframe="0"/>
                </instrument>
                <eldata fwet="0" fcut="14000" ftype="0" fres="0.5">
                  <elvol x100="0" userwavefile="" dec="2" amt="1" pdel="0" hold="2" lamt="0" lpdel="0" lshp="0" lspd_denominator="4" att="0" ctlenvamt="0" lspd="0.1" lspd_syncmode="0" rel="2" latt="0" lspd_numerator="4" sustain="1"/>
                  <elcut x100="0" userwavefile="" dec="0.5" amt="0" pdel="0" hold="0.5" lamt="0" lpdel="0" lshp="0" lspd_denominator="4" att="0" ctlenvamt="0" lspd="0.1" lspd_syncmode="0" rel="0.1" latt="0" lspd_numerator="4" sustain="0.5"/>
                  <elres x100="0" userwavefile="" dec="0.5" amt="0" pdel="0" hold="0.5" lamt="0" lpdel="0" lshp="0" lspd_denominator="4" att="0" ctlenvamt="0" lspd="0.1" lspd_syncmode="0" rel="0.1" latt="0" lspd_numerator="4" sustain="0.5"/>
                </eldata>
                <chordcreator chord-enabled="0" chord="0" chordrange="1"/>
                <arpeggiator arprange="1" arpmode="0" arp="0" arptime_numerator="4" arpmiss="0" arptime_denominator="4" arpcycle="0" arpskip="0" arptime_syncmode="0" arpgate="100" arptime="200" arpdir="0" arp-enabled="0"/>
                <midiport fixedoutputnote="-1" outputprogram="1" inputcontroller="0" writable="0" fixedoutputvelocity="-1" readable="0" outputchannel="1" basevelocity="63" outputcontroller="0" fixedinputvelocity="-1" inputchannel="0"/>
                <fxchain numofeffects="0" enabled="0"/>
              </instrumenttrack>
              <pattern name="" steps="64" pos="0" muted="0" type="0"/>
              <pattern name="" steps="64" pos="192" muted="0" type="0"/>
              <pattern name="" steps="32" pos="384" muted="0" type="0"/>
              <pattern name="" steps="64" pos="576" muted="0" type="0"/>
              <pattern name="" steps="16" pos="768" muted="0" type="0">
                <note pos="108" vol="100" len="-192" pan="0" key="57"/>
                <note pos="120" vol="100" len="-192" pan="0" key="57"/>
                <note pos="132" vol="100" len="-192" pan="0" key="57"/>
              </pattern>
              <pattern name="" steps="64" pos="960" muted="0" type="0"/>
              <pattern name="" steps="64" pos="1152" muted="0" type="0"/>
              <pattern name="" steps="32" pos="1344" muted="0" type="0"/>
              <pattern name="" steps="64" pos="1536" muted="0" type="0"/>
              <pattern name="" steps="32" pos="1728" muted="0" type="0"/>
              <pattern name="" steps="64" pos="1920" muted="0" type="0"/>
              <pattern name="" steps="32" pos="2112" muted="0" type="0">
                <note pos="252" vol="100" len="-192" pan="0" key="57"/>
                <note pos="264" vol="100" len="-192" pan="0" key="57"/>
                <note pos="276" vol="100" len="-192" pan="0" key="57"/>
              </pattern>
              <pattern name="" steps="32" pos="2304" muted="0" type="0"/>
              <pattern name="" steps="64" pos="2496" muted="0" type="0"/>
              <pattern name="" steps="16" pos="2688" muted="0" type="0"/>
              <pattern name="" steps="16" pos="2880" muted="0" type="0">
                <note pos="24" vol="100" len="-192" pan="0" key="57"/>
                <note pos="72" vol="100" len="-192" pan="0" key="57"/>
              </pattern>
              <pattern name="" steps="16" pos="3072" muted="0" type="0"/>
              <pattern name="" steps="32" pos="3264" muted="0" type="0"/>
              <pattern name="" steps="16" pos="3456" muted="0" type="0"/>
              <pattern name="" steps="32" pos="3648" muted="0" type="0"/>
              <pattern name="" steps="64" pos="3840" muted="0" type="0">
                <note pos="684" vol="100" len="-192" pan="0" key="57"/>
                <note pos="696" vol="100" len="-192" pan="0" key="57"/>
                <note pos="708" vol="100" len="-192" pan="0" key="57"/>
              </pattern>
              <pattern name="" steps="64" pos="4032" muted="0" type="0">
                <note pos="684" vol="100" len="-192" pan="0" key="57"/>
                <note pos="696" vol="100" len="-192" pan="0" key="57"/>
                <note pos="708" vol="100" len="-192" pan="0" key="57"/>
              </pattern>
              <pattern name="" steps="32" pos="4224" muted="0" type="0"/>
              <pattern name="" steps="32" pos="4416" muted="0" type="0">
                <note pos="96" vol="100" len="-192" pan="0" key="57"/>
                <note pos="108" vol="100" len="-192" pan="0" key="57"/>
                <note pos="120" vol="100" len="-192" pan="0" key="57"/>
                <note pos="132" vol="100" len="-192" pan="0" key="57"/>
              </pattern>
              <pattern name="" steps="16" pos="4608" muted="0" type="0"/>
              <pattern name="" steps="32" pos="4800" muted="0" type="0">
                <note pos="24" vol="100" len="-192" pan="0" key="57"/>
                <note pos="36" vol="100" len="-192" pan="0" key="57"/>
                <note pos="120" vol="100" len="-192" pan="0" key="57"/>
                <note pos="168" vol="100" len="-192" pan="0" key="57"/>
                <note pos="216" vol="100" len="-192" pan="0" key="57"/>
                <note pos="228" vol="100" len="-192" pan="0" key="57"/>
                <note pos="312" vol="100" len="-192" pan="0" key="57"/>
                <note pos="324" vol="100" len="-192" pan="0" key="57"/>
              </pattern>
              <pattern name="" steps="64" pos="4992" muted="0" type="0"/>
              <pattern name="" steps="64" pos="5184" muted="0" type="0"/>
              <pattern name="" steps="64" pos="5376" muted="0" type="0"/>
              <pattern name="" steps="128" pos="5568" muted="0" type="0"/>
              <pattern name="" steps="16" pos="5760" muted="0" type="0">
                <note pos="60" vol="100" len="-192" pan="0" key="57"/>
                <note pos="72" vol="100" len="-192" pan="0" key="57"/>
                <note pos="84" vol="100" len="-192" pan="0" key="57"/>
              </pattern>
              <pattern name="" steps="64" pos="5952" muted="0" type="0"/>
              <pattern name="" steps="16" pos="6144" muted="0" type="0">
                <note pos="144" vol="100" len="-192" pan="0" key="57"/>
                <note pos="156" vol="100" len="-192" pan="0" key="57"/>
              </pattern>
              <pattern name="midTom.wav" steps="16" pos="6336" muted="0" type="0"/>
              <pattern name="midTom.wav" steps="16" pos="6528" muted="0" type="0"/>
              <pattern name="midTom.wav" steps="64" pos="6720" muted="0" type="0">
                <note pos="24" vol="100" len="-192" pan="0" key="57"/>
                <note pos="72" vol="100" len="-192" pan="0" key="57"/>
                <note pos="120" vol="100" len="-192" pan="0" key="57"/>
                <note pos="168" vol="100" len="-192" pan="0" key="57"/>
                <note pos="288" vol="100" len="-192" pan="0" key="57"/>
                <note pos="300" vol="100" len="-192" pan="0" key="57"/>
                <note pos="312" vol="100" len="-192" pan="0" key="57"/>
                <note pos="324" vol="100" len="-192" pan="0" key="57"/>
                <note pos="504" vol="100" len="-192" pan="0" key="57"/>
              </pattern>
            </track>
            <track name="loTom.wav" solo="0" muted="0" type="0">
              <instrumenttrack basenote="57" fxch="9" usemasterpitch="1" pitch="0" vol="130.4" pan="0" pitchrange="1">
                <instrument name="audiofileprocessor">
                  <audiofileprocessor src="/home/pass/samples/sillydrums/loTom.wav" reversed="0" interp="1" amp="100" looped="0" sframe="0" stutter="0" eframe="1" lframe="0"/>
                </instrument>
                <eldata fwet="0" fcut="14000" ftype="0" fres="0.5">
                  <elvol x100="0" userwavefile="" dec="2" amt="1" pdel="0" hold="2" lamt="0" lpdel="0" lshp="0" lspd_denominator="4" att="0" ctlenvamt="0" lspd="0.1" lspd_syncmode="0" rel="2" latt="0" lspd_numerator="4" sustain="1"/>
                  <elcut x100="0" userwavefile="" dec="0.5" amt="0" pdel="0" hold="0.5" lamt="0" lpdel="0" lshp="0" lspd_denominator="4" att="0" ctlenvamt="0" lspd="0.1" lspd_syncmode="0" rel="0.1" latt="0" lspd_numerator="4" sustain="0.5"/>
                  <elres x100="0" userwavefile="" dec="0.5" amt="0" pdel="0" hold="0.5" lamt="0" lpdel="0" lshp="0" lspd_denominator="4" att="0" ctlenvamt="0" lspd="0.1" lspd_syncmode="0" rel="0.1" latt="0" lspd_numerator="4" sustain="0.5"/>
                </eldata>
                <chordcreator chord-enabled="0" chord="0" chordrange="1"/>
                <arpeggiator arprange="1" arpmode="0" arp="0" arptime_numerator="4" arpmiss="0" arptime_denominator="4" arpcycle="0" arpskip="0" arptime_syncmode="0" arpgate="100" arptime="200" arpdir="0" arp-enabled="0"/>
                <midiport fixedoutputnote="-1" outputprogram="1" inputcontroller="0" writable="0" fixedoutputvelocity="-1" readable="0" outputchannel="1" basevelocity="63" outputcontroller="0" fixedinputvelocity="-1" inputchannel="0"/>
                <fxchain numofeffects="0" enabled="0"/>
              </instrumenttrack>
              <pattern name="" steps="64" pos="0" muted="0" type="0"/>
              <pattern name="" steps="64" pos="192" muted="0" type="0"/>
              <pattern name="" steps="32" pos="384" muted="0" type="0"/>
              <pattern name="" steps="64" pos="576" muted="0" type="0"/>
              <pattern name="" steps="16" pos="768" muted="0" type="0">
                <note pos="156" vol="100" len="-192" pan="0" key="57"/>
                <note pos="168" vol="100" len="-192" pan="0" key="57"/>
                <note pos="180" vol="100" len="-192" pan="0" key="57"/>
              </pattern>
              <pattern name="" steps="64" pos="960" muted="0" type="0"/>
              <pattern name="" steps="64" pos="1152" muted="0" type="0"/>
              <pattern name="" steps="32" pos="1344" muted="0" type="0"/>
              <pattern name="" steps="64" pos="1536" muted="0" type="0"/>
              <pattern name="" steps="32" pos="1728" muted="0" type="0"/>
              <pattern name="" steps="64" pos="1920" muted="0" type="0"/>
              <pattern name="" steps="32" pos="2112" muted="0" type="0">
                <note pos="300" vol="100" len="-192" pan="0" key="57"/>
                <note pos="312" vol="100" len="-192" pan="0" key="57"/>
                <note pos="324" vol="100" len="-192" pan="0" key="57"/>
              </pattern>
              <pattern name="" steps="32" pos="2304" muted="0" type="0"/>
              <pattern name="" steps="64" pos="2496" muted="0" type="0"/>
              <pattern name="" steps="16" pos="2688" muted="0" type="0"/>
              <pattern name="" steps="16" pos="2880" muted="0" type="0">
                <note pos="36" vol="100" len="-192" pan="0" key="57"/>
                <note pos="84" vol="100" len="-192" pan="0" key="57"/>
              </pattern>
              <pattern name="" steps="16" pos="3072" muted="0" type="0"/>
              <pattern name="" steps="32" pos="3264" muted="0" type="0"/>
              <pattern name="" steps="16" pos="3456" muted="0" type="0"/>
              <pattern name="" steps="32" pos="3648" muted="0" type="0"/>
              <pattern name="" steps="64" pos="3840" muted="0" type="0">
                <note pos="732" vol="100" len="-192" pan="0" key="57"/>
                <note pos="744" vol="100" len="-192" pan="0" key="57"/>
                <note pos="756" vol="100" len="-192" pan="0" key="57"/>
              </pattern>
              <pattern name="" steps="64" pos="4032" muted="0" type="0">
                <note pos="732" vol="100" len="-192" pan="0" key="57"/>
                <note pos="744" vol="100" len="-192" pan="0" key="57"/>
                <note pos="756" vol="100" len="-192" pan="0" key="57"/>
              </pattern>
              <pattern name="" steps="32" pos="4224" muted="0" type="0"/>
              <pattern name="" steps="32" pos="4416" muted="0" type="0">
                <note pos="168" vol="100" len="-192" pan="0" key="57"/>
                <note pos="180" vol="100" len="-192" pan="0" key="57"/>
              </pattern>
              <pattern name="" steps="16" pos="4608" muted="0" type="0">
                <note pos="168" vol="100" len="-192" pan="0" key="57"/>
                <note pos="180" vol="100" len="-192" pan="0" key="57"/>
              </pattern>
              <pattern name="" steps="32" pos="4800" muted="0" type="0">
                <note pos="48" vol="100" len="-192" pan="0" key="57"/>
                <note pos="60" vol="100" len="-192" pan="0" key="57"/>
                <note pos="120" vol="100" len="-192" pan="0" key="57"/>
                <note pos="168" vol="100" len="-192" pan="0" key="57"/>
                <note pos="264" vol="100" len="-192" pan="0" key="57"/>
                <note pos="276" vol="100" len="-192" pan="0" key="57"/>
              </pattern>
              <pattern name="" steps="64" pos="4992" muted="0" type="0"/>
              <pattern name="" steps="64" pos="5184" muted="0" type="0"/>
              <pattern name="" steps="64" pos="5376" muted="0" type="0"/>
              <pattern name="" steps="128" pos="5568" muted="0" type="0"/>
              <pattern name="" steps="16" pos="5760" muted="0" type="0">
                <note pos="108" vol="100" len="-192" pan="0" key="57"/>
                <note pos="120" vol="100" len="-192" pan="0" key="57"/>
                <note pos="132" vol="100" len="-192" pan="0" key="57"/>
              </pattern>
              <pattern name="" steps="64" pos="5952" muted="0" type="0"/>
              <pattern name="" steps="16" pos="6144" muted="0" type="0">
                <note pos="168" vol="100" len="-192" pan="0" key="57"/>
                <note pos="180" vol="100" len="-192" pan="0" key="57"/>
              </pattern>
              <pattern name="loTom.wav" steps="16" pos="6336" muted="0" type="0"/>
              <pattern name="loTom.wav" steps="16" pos="6528" muted="0" type="0"/>
              <pattern name="loTom.wav" steps="64" pos="6720" muted="0" type="0">
                <note pos="36" vol="100" len="-192" pan="0" key="57"/>
                <note pos="84" vol="100" len="-192" pan="0" key="57"/>
                <note pos="132" vol="100" len="-192" pan="0" key="57"/>
                <note pos="180" vol="100" len="-192" pan="0" key="57"/>
                <note pos="360" vol="100" len="-192" pan="0" key="57"/>
                <note pos="372" vol="100" len="-192" pan="0" key="57"/>
                <note pos="384" vol="100" len="-192" pan="0" key="57"/>
                <note pos="396" vol="100" len="-192" pan="0" key="57"/>
                <note pos="432" vol="100" len="-192" pan="0" key="57"/>
                <note pos="444" vol="100" len="-192" pan="0" key="57"/>
                <note pos="456" vol="100" len="-192" pan="0" key="57"/>
                <note pos="468" vol="100" len="-192" pan="0" key="57"/>
                <note pos="516" vol="100" len="-192" pan="0" key="57"/>
              </pattern>
            </track>
            <track name="hatClosed.wav" solo="0" muted="0" type="0">
              <instrumenttrack basenote="57" fxch="0" usemasterpitch="1" pitch="0" vol="100" pan="-27.2" pitchrange="1">
                <instrument name="audiofileprocessor">
                  <audiofileprocessor src="/home/pass/samples/sillydrums/hatClosed.wav" reversed="0" interp="1" amp="100" looped="0" sframe="0" stutter="0" eframe="1" lframe="0"/>
                </instrument>
                <eldata fwet="0" fcut="14000" ftype="0" fres="0.5">
                  <elvol x100="0" userwavefile="" dec="0.5" amt="0" pdel="0" hold="0.5" lamt="0" lpdel="0" lshp="0" lspd_denominator="4" att="0" ctlenvamt="0" lspd="0.1" lspd_syncmode="0" rel="0.1" latt="0" lspd_numerator="4" sustain="0.5"/>
                  <elcut x100="0" userwavefile="" dec="0.5" amt="0" pdel="0" hold="0.5" lamt="0" lpdel="0" lshp="0" lspd_denominator="4" att="0" ctlenvamt="0" lspd="0.1" lspd_syncmode="0" rel="0.1" latt="0" lspd_numerator="4" sustain="0.5"/>
                  <elres x100="0" userwavefile="" dec="0.5" amt="0" pdel="0" hold="0.5" lamt="0" lpdel="0" lshp="0" lspd_denominator="4" att="0" ctlenvamt="0" lspd="0.1" lspd_syncmode="0" rel="0.1" latt="0" lspd_numerator="4" sustain="0.5"/>
                </eldata>
                <chordcreator chord-enabled="0" chord="0" chordrange="1"/>
                <arpeggiator arprange="1" arpmode="0" arp="0" arptime_numerator="4" arpmiss="0" arptime_denominator="4" arpcycle="0" arpskip="0" arptime_syncmode="0" arpgate="100" arptime="200" arpdir="0" arp-enabled="0"/>
                <midiport fixedoutputnote="-1" outputprogram="1" inputcontroller="0" writable="0" fixedoutputvelocity="-1" readable="0" outputchannel="1" basevelocity="63" outputcontroller="0" fixedinputvelocity="-1" inputchannel="0"/>
                <fxchain numofeffects="0" enabled="0"/>
              </instrumenttrack>
              <pattern name="hatClosed.wav" steps="64" pos="0" muted="0" type="0"/>
              <pattern name="hatClosed.wav" steps="64" pos="192" muted="0" type="0"/>
              <pattern name="hatClosed.wav" steps="32" pos="384" muted="0" type="0"/>
              <pattern name="hatClosed.wav" steps="64" pos="576" muted="0" type="0"/>
              <pattern name="hatClosed.wav" steps="16" pos="768" muted="0" type="0"/>
              <pattern name="hatClosed.wav" steps="64" pos="960" muted="0" type="0"/>
              <pattern name="hatClosed.wav" steps="64" pos="1152" muted="0" type="0"/>
              <pattern name="hatClosed.wav" steps="32" pos="1344" muted="0" type="0"/>
              <pattern name="hatClosed.wav" steps="64" pos="1536" muted="0" type="0"/>
              <pattern name="hatClosed.wav" steps="32" pos="1728" muted="0" type="0"/>
              <pattern name="hatClosed.wav" steps="64" pos="1920" muted="0" type="0"/>
              <pattern name="hatClosed.wav" steps="32" pos="2112" muted="0" type="0"/>
              <pattern name="hatClosed.wav" steps="32" pos="2304" muted="0" type="0"/>
              <pattern name="hatClosed.wav" steps="64" pos="2496" muted="0" type="0"/>
              <pattern name="hatClosed.wav" steps="16" pos="2688" muted="0" type="0"/>
              <pattern name="hatClosed.wav" steps="16" pos="2880" muted="0" type="0"/>
              <pattern name="hatClosed.wav" steps="16" pos="3072" muted="0" type="0"/>
              <pattern name="hatClosed.wav" steps="32" pos="3264" muted="0" type="0"/>
              <pattern name="hatClosed.wav" steps="16" pos="3456" muted="0" type="0"/>
              <pattern name="hatClosed.wav" steps="32" pos="3648" muted="0" type="0"/>
              <pattern name="hatClosed.wav" steps="64" pos="3840" muted="0" type="0"/>
              <pattern name="hatClosed.wav" steps="64" pos="4032" muted="0" type="0"/>
              <pattern name="hatClosed.wav" steps="32" pos="4224" muted="0" type="0"/>
              <pattern name="hatClosed.wav" steps="32" pos="4416" muted="0" type="0"/>
              <pattern name="hatClosed.wav" steps="16" pos="4608" muted="0" type="0"/>
              <pattern name="hatClosed.wav" steps="32" pos="4800" muted="0" type="0"/>
              <pattern name="hatClosed.wav" steps="64" pos="4992" muted="0" type="0"/>
              <pattern name="hatClosed.wav" steps="64" pos="5184" muted="0" type="0"/>
              <pattern name="hatClosed.wav" steps="64" pos="5376" muted="0" type="0"/>
              <pattern name="hatClosed.wav" steps="128" pos="5568" muted="0" type="0"/>
              <pattern name="hatClosed.wav" steps="16" pos="5760" muted="0" type="0"/>
              <pattern name="hatClosed.wav" steps="64" pos="5952" muted="0" type="0"/>
              <pattern name="hatClosed.wav" steps="16" pos="6144" muted="0" type="0"/>
              <pattern name="hatClosed.wav" steps="16" pos="6336" muted="0" type="0"/>
              <pattern name="hatClosed.wav" steps="16" pos="6528" muted="0" type="0"/>
              <pattern name="hatClosed.wav" steps="64" pos="6720" muted="0" type="0"/>
            </track>
          </trackcontainer>
        </bbtrack>
        <bbtco name="" pos="384" len="768" muted="0" color="4286611584" usestyle="0"/>
      </track>
      <track name="Clone of intro1" solo="0" muted="0" type="1">
        <bbtrack/>
        <bbtco name="" pos="1152" len="768" muted="0" color="4286611584" usestyle="0"/>
      </track>
      <track name="intro2" solo="0" muted="0" type="1">
        <bbtrack/>
        <bbtco name="" pos="1920" len="1152" muted="0" color="4286611584" usestyle="0"/>
      </track>
      <track name="bootcamp1" solo="0" muted="0" type="1">
        <bbtrack/>
        <bbtco name="" pos="9600" len="1536" muted="0" color="4286611584" usestyle="0"/>
        <bbtco name="" pos="17280" len="1344" muted="0" color="4286611584" usestyle="0"/>
        <bbtco name="" pos="41088" len="1152" muted="0" color="4286611584" usestyle="0"/>
        <bbtco name="" pos="45696" len="1344" muted="0" color="4286611584" usestyle="0"/>
      </track>
      <track name="fill1" solo="0" muted="0" type="1">
        <bbtrack/>
      </track>
      <track name="Clone of bootcamp1" solo="0" muted="0" type="1">
        <bbtrack/>
        <bbtco name="" pos="4992" len="1536" muted="0" color="4286611584" usestyle="0"/>
        <bbtco name="" pos="14976" len="768" muted="0" color="4286611584" usestyle="0"/>
        <bbtco name="" pos="36480" len="1536" muted="0" color="4286611584" usestyle="0"/>
      </track>
      <track name="Clone of Clone of bootcamp1" solo="0" muted="0" type="1">
        <bbtrack/>
        <bbtco name="" pos="38784" len="576" muted="0" color="4286611584" usestyle="0"/>
      </track>
      <track name="kick/mutecrash" solo="0" muted="0" type="1">
        <bbtrack/>
        <bbtco name="" pos="12672" len="384" muted="0" color="4286611584" usestyle="0"/>
      </track>
      <track name="Beat/Bassline 6" solo="0" muted="0" type="1">
        <bbtrack/>
        <bbtco name="" pos="6528" len="768" muted="0" color="4286611584" usestyle="0"/>
        <bbtco name="" pos="14208" len="768" muted="0" color="4286611584" usestyle="0"/>
        <bbtco name="" pos="38016" len="768" muted="0" color="4286611584" usestyle="0"/>
      </track>
      <track name="Clone of Beat/Bassline 6" solo="0" muted="0" type="1">
        <bbtrack/>
        <bbtco name="" pos="8064" len="1152" muted="0" color="4286611584" usestyle="0"/>
        <bbtco name="" pos="15744" len="1152" muted="0" color="4286611584" usestyle="0"/>
        <bbtco name="" pos="20352" len="1344" muted="0" color="4286611584" usestyle="0"/>
        <bbtco name="" pos="31872" len="2496" muted="0" color="4286611584" usestyle="0"/>
        <bbtco name="" pos="44160" len="1152" muted="0" color="4286611584" usestyle="0"/>
      </track>
      <track name="Clone of Clone of Beat/Bassline 6" solo="0" muted="0" type="1">
        <bbtrack/>
        <bbtco name="" pos="59520" len="3072" muted="0" color="4286611584" usestyle="1"/>
      </track>
      <track name="Clone of Clone of Beat/Bassline 6" solo="0" muted="0" type="1">
        <bbtrack/>
        <bbtco name="" pos="9216" len="384" muted="0" color="4286611584" usestyle="0"/>
        <bbtco name="" pos="16896" len="384" muted="0" color="4286611584" usestyle="0"/>
        <bbtco name="" pos="40704" len="384" muted="0" color="4286611584" usestyle="0"/>
        <bbtco name="" pos="45312" len="384" muted="0" color="4286611584" usestyle="0"/>
      </track>
      <track name="Automation track" solo="0" muted="0" type="5">
        <automationtrack/>
      </track>
      <track name="Beat/Bassline 11" solo="0" muted="0" type="1">
        <bbtrack/>
        <bbtco name="" pos="4224" len="576" muted="0" color="4286611584" usestyle="0"/>
        <bbtco name="" pos="11136" len="1536" muted="0" color="4286611584" usestyle="0"/>
        <bbtco name="" pos="7296" len="576" muted="0" color="4286611584" usestyle="0"/>
        <bbtco name="" pos="18816" len="1344" muted="0" color="4286611584" usestyle="0"/>
        <bbtco name="" pos="35712" len="768" muted="0" color="4286611584" usestyle="0"/>
        <bbtco name="" pos="39552" len="1152" muted="0" color="4286611584" usestyle="0"/>
        <bbtco name="" pos="47232" len="2880" muted="0" color="4286611584" usestyle="0"/>
        <bbtco name="" pos="63360" len="384" muted="0" color="4286611584" usestyle="1"/>
      </track>
      <track name="Clone of Beat/Bassline 11" solo="0" muted="0" type="1">
        <bbtrack/>
        <bbtco name="" pos="53376" len="2688" muted="0" color="4286611584" usestyle="0"/>
      </track>
      <track name="Beat/Bassline 18" solo="0" muted="0" type="1">
        <bbtrack/>
        <bbtco name="" pos="20160" len="192" muted="0" color="4286611584" usestyle="0"/>
      </track>
      <track name="Beat/Bassline 12" solo="0" muted="0" type="1">
        <bbtrack/>
        <bbtco name="" pos="4800" len="192" muted="0" color="4286611584" usestyle="0"/>
        <bbtco name="" pos="21696" len="192" muted="0" color="4286611584" usestyle="0"/>
      </track>
      <track name="Beat/Bassline 19" solo="0" muted="0" type="1">
        <bbtrack/>
        <bbtco name="" pos="18624" len="192" muted="0" color="4286611584" usestyle="0"/>
      </track>
      <track name="rgt pitch" solo="0" muted="0" type="5">
        <automationtrack/>
        <automationpattern name="AM pitchshifter>>>Pitch shift" tens="1" pos="13440" mute="0" len="384" prog="2">
          <time pos="0" value="1.09031"/>
          <time pos="96" value="2.28938"/>
          <time pos="192" value="1.21734"/>
          <time pos="384" value="2.76844"/>
          <object id="7309738"/>
        </automationpattern>
        <automationpattern name="AM pitchshifter>>>Pitch shift" tens="1" pos="11904" mute="0" len="192" prog="0">
          <time pos="0" value="2.32734"/>
          <object id="7309738"/>
        </automationpattern>
        <automationpattern name="AM pitchshifter>>>Pitch shift" tens="1" pos="13824" mute="0" len="192" prog="0">
          <time pos="0" value="2.32734"/>
          <object id="7309738"/>
        </automationpattern>
        <automationpattern name="AM pitchshifter>>>Pitch shift" tens="1" pos="0" mute="0" len="192" prog="0">
          <time pos="0" value="2.32734"/>
          <object id="7309738"/>
        </automationpattern>
      </track>
      <track name="lgt pitch" solo="0" muted="0" type="5">
        <automationtrack/>
        <automationpattern name="Tempo" tens="1" pos="0" mute="0" len="192" prog="0">
          <time pos="0" value="201"/>
          <object id="2356958"/>
        </automationpattern>
        <automationpattern name="AM pitchshifter>>>Pitch shift" tens="1" pos="31680" mute="0" len="192" prog="0">
          <time pos="0" value="2.32441"/>
          <object id="485849"/>
        </automationpattern>
        <automationpattern name="AM pitchshifter>>>Pitch shift" tens="1" pos="31872" mute="0" len="384" prog="2">
          <time pos="0" value="1.34484"/>
          <time pos="24" value="2.74078"/>
          <time pos="240" value="1.31766"/>
          <time pos="384" value="0.25"/>
          <object id="485849"/>
        </automationpattern>
        <automationpattern name="AM pitchshifter>>>Pitch shift" tens="1" pos="32256" mute="0" len="192" prog="0">
          <time pos="0" value="2.32441"/>
          <object id="485849"/>
        </automationpattern>
        <automationpattern name="AM pitchshifter>>>Pitch shift" tens="1" pos="64320" mute="0" len="192" prog="2">
          <time pos="0" value="1.34484"/>
          <time pos="24" value="2.66859"/>
          <time pos="216" value="1.62469"/>
          <object id="485849"/>
        </automationpattern>
      </track>
      <track name="lgt pitch on/off" solo="0" muted="0" type="5">
        <automationtrack/>
        <automationpattern name="AM pitchshifter>Effect enabled" tens="1" pos="31680" mute="0" len="192" prog="0">
          <time pos="0" value="1"/>
          <object id="2786011"/>
        </automationpattern>
        <automationpattern name="AM pitchshifter>Effect enabled" tens="1" pos="32256" mute="0" len="192" prog="0">
          <time pos="0" value="0"/>
          <object id="2786011"/>
        </automationpattern>
        <automationpattern name="AM pitchshifter>Effect enabled" tens="1" pos="0" mute="0" len="192" prog="0">
          <time pos="0" value="0"/>
          <object id="2786011"/>
        </automationpattern>
        <automationpattern name="AM pitchshifter>Effect enabled" tens="1" pos="64320" mute="0" len="192" prog="0">
          <time pos="0" value="1"/>
          <object id="2786011"/>
        </automationpattern>
        <automationpattern name="AM pitchshifter>Effect enabled" tens="1" pos="64704" mute="0" len="192" prog="0">
          <time pos="0" value="0"/>
          <object id="2786011"/>
        </automationpattern>
      </track>
      <track name="rgt pitch" solo="0" muted="0" type="5">
        <automationtrack/>
        <automationpattern name="AM pitchshifter>>>Pitch shift" tens="1" pos="13440" mute="0" len="384" prog="2">
          <time pos="0" value="1.09031"/>
          <time pos="96" value="2.28938"/>
          <time pos="192" value="1.21734"/>
          <time pos="384" value="2.76844"/>
          <object id="7309738"/>
          <object id="4307265"/>
        </automationpattern>
        <automationpattern name="AM pitchshifter>>>Pitch shift" tens="1" pos="13248" mute="0" len="192" prog="0">
          <time pos="0" value="2.32734"/>
          <object id="7309738"/>
        </automationpattern>
        <automationpattern name="AM pitchshifter>>>Pitch shift" tens="1" pos="13824" mute="0" len="192" prog="0">
          <time pos="0" value="2.32734"/>
          <object id="7309738"/>
        </automationpattern>
        <automationpattern name="AM pitchshifter>>>Pitch shift" tens="1" pos="0" mute="0" len="192" prog="0">
          <time pos="0" value="2.32734"/>
          <object id="7309738"/>
        </automationpattern>
      </track>
      <track name="lgt pitch" solo="0" muted="0" type="5">
        <automationtrack/>
        <automationpattern name="Tempo" tens="1" pos="0" mute="0" len="192" prog="0">
          <time pos="0" value="201"/>
          <object id="2356958"/>
        </automationpattern>
        <automationpattern name="AM pitchshifter>>>Pitch shift" tens="1" pos="31680" mute="0" len="192" prog="0">
          <time pos="0" value="2.32441"/>
          <object id="485849"/>
          <object id="2557451"/>
        </automationpattern>
        <automationpattern name="AM pitchshifter>>>Pitch shift" tens="1" pos="31872" mute="0" len="384" prog="2">
          <time pos="0" value="1.34484"/>
          <time pos="24" value="2.74078"/>
          <time pos="240" value="1.31766"/>
          <time pos="384" value="0.25"/>
          <object id="485849"/>
          <object id="2557451"/>
        </automationpattern>
        <automationpattern name="AM pitchshifter>>>Pitch shift" tens="1" pos="32256" mute="0" len="192" prog="0">
          <time pos="0" value="2.32441"/>
          <object id="485849"/>
          <object id="2557451"/>
        </automationpattern>
      </track>
      <track name="lgt pitch on/off" solo="0" muted="0" type="5">
        <automationtrack/>
        <automationpattern name="AM pitchshifter>Effect enabled" tens="1" pos="31872" mute="0" len="192" prog="0">
          <time pos="0" value="1"/>
          <object id="2786011"/>
          <object id="2274258"/>
        </automationpattern>
        <automationpattern name="AM pitchshifter>Effect enabled" tens="1" pos="32256" mute="0" len="192" prog="0">
          <time pos="0" value="0"/>
          <object id="2786011"/>
          <object id="2274258"/>
        </automationpattern>
        <automationpattern name="AM pitchshifter>Effect enabled" tens="1" pos="0" mute="0" len="192" prog="0">
          <time pos="0" value="0"/>
          <object id="2786011"/>
          <object id="2274258"/>
          <object id="2557451"/>
        </automationpattern>
      </track>
      <track name="Beat/Bassline 24" solo="0" muted="0" type="1">
        <bbtrack/>
        <bbtco name="" pos="43776" len="384" muted="0" color="4286611584" usestyle="0"/>
      </track>
      <track name="Clone of Beat/Bassline 24" solo="0" muted="0" type="1">
        <bbtrack/>
        <bbtco name="" pos="50112" len="192" muted="0" color="4286611584" usestyle="0"/>
      </track>
      <track name="Clone of Clone of Beat/Bassline 24" solo="0" muted="0" type="1">
        <bbtrack/>
        <bbtco name="" pos="56064" len="384" muted="0" color="4286611584" usestyle="0"/>
        <bbtco name="" pos="42240" len="192" muted="0" color="4286611584" usestyle="1"/>
      </track>
      <track name="Rhythm Guitar" solo="0" muted="1" type="0">
        <instrumenttrack basenote="57" fxch="11" usemasterpitch="1" pitch="0" vol="200" pan="0" pitchrange="1">
          <instrument name="carlapatchbay">
            <carlapatchbay>
              <CARLA-PROJECT VERSION="2.2">
                <EngineSettings>
                  <ForceStereo>false</ForceStereo>
                  <PreferPluginBridges>false</PreferPluginBridges>
                  <PreferUiBridges>true</PreferUiBridges>
                  <UIsAlwaysOnTop>false</UIsAlwaysOnTop>
                  <MaxParameters>200</MaxParameters>
                  <UIBridgesTimeout>4000</UIBridgesTimeout>
                  <LADSPA_PATH>/home/pass/.ladspa:/usr/lib/ladspa:/usr/local/lib/ladspa</LADSPA_PATH>
                  <DSSI_PATH>/home/pass/.dssi:/usr/lib/dssi:/usr/local/lib/dssi</DSSI_PATH>
                  <LV2_PATH>/home/pass/.lv2:/usr/lib/lv2:/usr/local/lib/lv2</LV2_PATH>
                  <VST2_PATH>/home/pass/.vst:/home/pass/.wine/drive_c/Program Files (x86)/VstPlugins:/home/pass/.wine/drive_c/Program Files/VstPlugins:/home/pass/vst:/usr/lib/lxvst:/usr/lib/vst:/usr/local/lib/lxvst:/usr/local/lib/vst/home/pass/.lxvst</VST2_PATH>
                  <VST3_PATH>/home/pass/.vst3:/home/pass/.wine/drive_c/Program Files (x86)/Common Files/VST3:/home/pass/.wine/drive_c/Program Files/Common Files/VST3:/usr/lib/vst3:/usr/local/lib/vst3</VST3_PATH>
                  <SF2_PATH>/home/pass/.sounds/sf2/home/pass/.sounds/sf3:/usr/share/soundfonts:/usr/share/sounds/sf2:/usr/share/sounds/sf3</SF2_PATH>
                  <SFZ_PATH>/home/pass/.sounds/sfz:/home/pass/samples:/usr/share/sounds/sfz</SFZ_PATH>
                </EngineSettings>
                <!-- sfizz -->
                <Plugin>
                  <Info>
                    <Type>LV2</Type>
                    <Name>sfizz</Name>
                    <URI>http://sfztools.github.io/sfizz</URI>
                  </Info>
                  <Data>
                    <Active>Yes</Active>
                    <ControlChannel>1</ControlChannel>
                    <Options>0x3f0</Options>
                    <Parameter>
                      <Index>0</Index>
                      <Name>Volume</Name>
                      <Symbol>volume</Symbol>
                      <Value>0</Value>
                    </Parameter>
                    <Parameter>
                      <Index>1</Index>
                      <Name>Polyphony</Name>
                      <Symbol>num_voices</Symbol>
                      <Value>64</Value>
                    </Parameter>
                    <Parameter>
                      <Index>2</Index>
                      <Name>Internal oversampling factor</Name>
                      <Symbol>oversampling</Symbol>
                      <Value>1</Value>
                    </Parameter>
                    <Parameter>
                      <Index>3</Index>
                      <Name>Preload size</Name>
                      <Symbol>preload_size</Symbol>
                      <Value>8192</Value>
                    </Parameter>
                    <Parameter>
                      <Index>5</Index>
                      <Name>Scala root key</Name>
                      <Symbol>scala_root_key</Symbol>
                      <Value>60</Value>
                    </Parameter>
                    <Parameter>
                      <Index>6</Index>
                      <Name>Tuning frequency</Name>
                      <Symbol>tuning_frequency</Symbol>
                      <Value>440</Value>
                    </Parameter>
                    <Parameter>
                      <Index>7</Index>
                      <Name>Stretched tuning</Name>
                      <Symbol>stretched_tuning</Symbol>
                      <Value>0</Value>
                    </Parameter>
                    <CustomData>
                      <Type>http://lv2plug.in/ns/ext/atom#Path</Type>
                      <Key>http://sfztools.github.io/sfizz:sfzfile</Key>
                      <Value>_fakeguitar1_integrated.sfz</Value>
                    </CustomData>
                    <CustomData>
                      <Type>http://lv2plug.in/ns/ext/atom#Int</Type>
                      <Key>http://sfztools.github.io/sfizz:numvoices</Key>
                      <Value>QAAAAA==</Value>
                    </CustomData>
                    <CustomData>
                      <Type>http://lv2plug.in/ns/ext/atom#Int</Type>
                      <Key>http://sfztools.github.io/sfizz:preload_size</Key>
                      <Value>ACAAAA==</Value>
                    </CustomData>
                    <CustomData>
                      <Type>http://lv2plug.in/ns/ext/atom#Int</Type>
                      <Key>http://sfztools.github.io/sfizz:oversampling</Key>
                      <Value>AQAAAA==</Value>
                    </CustomData>
                    <CustomData>
                      <Type>http://lv2plug.in/ns/ext/atom#Path</Type>
                      <Key>http://sfztools.github.io/sfizz:tuningfile</Key>
                      <Value>DefaultScale.scl</Value>
                    </CustomData>
                  </Data>
                </Plugin>
                <!-- sfizz -->
                <Plugin>
                  <Info>
                    <Type>LV2</Type>
                    <Name>sfizz (2)</Name>
                    <URI>http://sfztools.github.io/sfizz</URI>
                  </Info>
                  <Data>
                    <Active>Yes</Active>
                    <ControlChannel>1</ControlChannel>
                    <Options>0x3f0</Options>
                    <Parameter>
                      <Index>0</Index>
                      <Name>Volume</Name>
                      <Symbol>volume</Symbol>
                      <Value>0</Value>
                    </Parameter>
                    <Parameter>
                      <Index>1</Index>
                      <Name>Polyphony</Name>
                      <Symbol>num_voices</Symbol>
                      <Value>64</Value>
                    </Parameter>
                    <Parameter>
                      <Index>2</Index>
                      <Name>Internal oversampling factor</Name>
                      <Symbol>oversampling</Symbol>
                      <Value>1</Value>
                    </Parameter>
                    <Parameter>
                      <Index>3</Index>
                      <Name>Preload size</Name>
                      <Symbol>preload_size</Symbol>
                      <Value>8192</Value>
                    </Parameter>
                    <Parameter>
                      <Index>5</Index>
                      <Name>Scala root key</Name>
                      <Symbol>scala_root_key</Symbol>
                      <Value>60</Value>
                    </Parameter>
                    <Parameter>
                      <Index>6</Index>
                      <Name>Tuning frequency</Name>
                      <Symbol>tuning_frequency</Symbol>
                      <Value>440</Value>
                    </Parameter>
                    <Parameter>
                      <Index>7</Index>
                      <Name>Stretched tuning</Name>
                      <Symbol>stretched_tuning</Symbol>
                      <Value>0</Value>
                    </Parameter>
                    <CustomData>
                      <Type>http://lv2plug.in/ns/ext/atom#Path</Type>
                      <Key>http://sfztools.github.io/sfizz:sfzfile</Key>
                      <Value>_fakeguitar2_integrated.sfz</Value>
                    </CustomData>
                    <CustomData>
                      <Type>http://lv2plug.in/ns/ext/atom#Int</Type>
                      <Key>http://sfztools.github.io/sfizz:numvoices</Key>
                      <Value>QAAAAA==</Value>
                    </CustomData>
                    <CustomData>
                      <Type>http://lv2plug.in/ns/ext/atom#Int</Type>
                      <Key>http://sfztools.github.io/sfizz:preload_size</Key>
                      <Value>ACAAAA==</Value>
                    </CustomData>
                    <CustomData>
                      <Type>http://lv2plug.in/ns/ext/atom#Int</Type>
                      <Key>http://sfztools.github.io/sfizz:oversampling</Key>
                      <Value>AQAAAA==</Value>
                    </CustomData>
                    <CustomData>
                      <Type>http://lv2plug.in/ns/ext/atom#Path</Type>
                      <Key>http://sfztools.github.io/sfizz:tuningfile</Key>
                      <Value>DefaultScale.scl</Value>
                    </CustomData>
                  </Data>
                </Plugin>
                <Patchbay>
                  <Connection>
                    <Source>Midi Input:Capture 1</Source>
                    <Target>sfizz:events-in</Target>
                  </Connection>
                  <Connection>
                    <Source>sfizz:Left Output</Source>
                    <Target>Audio Output:Left</Target>
                  </Connection>
                  <Connection>
                    <Source>sfizz:Right Output</Source>
                    <Target>Audio Output:Left</Target>
                  </Connection>
                  <Connection>
                    <Source>Midi Input:Capture 1</Source>
                    <Target>sfizz (2):events-in</Target>
                  </Connection>
                  <Connection>
                    <Source>sfizz (2):Right Output</Source>
                    <Target>Audio Output:Right</Target>
                  </Connection>
                  <Connection>
                    <Source>sfizz (2):Left Output</Source>
                    <Target>Audio Output:Right</Target>
                  </Connection>
                  <Positions>
                    <Position y1="1350" x1="1711" pluginId="1">
                      <Name>sfizz (2)</Name>
                    </Position>
                    <Position y1="1297" x1="1704" pluginId="0">
                      <Name>sfizz</Name>
                    </Position>
                  </Positions>
                </Patchbay>
              </CARLA-PROJECT>
            </carlapatchbay>
          </instrument>
          <eldata fwet="0" fcut="14000" ftype="0" fres="0.5">
            <elvol x100="0" userwavefile="" dec="0.5" amt="0" pdel="0" hold="0.5" lamt="0" lpdel="0" lshp="0" lspd_denominator="4" att="0" ctlenvamt="0" lspd="0.1" lspd_syncmode="0" rel="0.1" latt="0" lspd_numerator="4" sustain="0.5"/>
            <elcut x100="0" userwavefile="" dec="0.5" amt="0" pdel="0" hold="0.5" lamt="0" lpdel="0" lshp="0" lspd_denominator="4" att="0" ctlenvamt="0" lspd="0.1" lspd_syncmode="0" rel="0.1" latt="0" lspd_numerator="4" sustain="0.5"/>
            <elres x100="0" userwavefile="" dec="0.5" amt="0" pdel="0" hold="0.5" lamt="0" lpdel="0" lshp="0" lspd_denominator="4" att="0" ctlenvamt="0" lspd="0.1" lspd_syncmode="0" rel="0.1" latt="0" lspd_numerator="4" sustain="0.5"/>
          </eldata>
          <chordcreator chord-enabled="0" chord="0" chordrange="1"/>
          <arpeggiator arprange="1" arpmode="0" arp="0" arptime_numerator="4" arpmiss="0" arptime_denominator="4" arpcycle="0" arpskip="0" arptime_syncmode="0" arpgate="100" arptime="200" arpdir="0" arp-enabled="0"/>
          <midiport fixedoutputnote="-1" outputprogram="1" inputcontroller="0" writable="0" fixedoutputvelocity="-1" readable="0" outputchannel="1" basevelocity="127" outputcontroller="0" fixedinputvelocity="-1" inputchannel="0"/>
          <fxchain numofeffects="0" enabled="1"/>
        </instrumenttrack>
        <pattern name="" steps="16" pos="384" muted="0" type="1">
          <note pos="0" vol="191" len="384" pan="0" key="44"/>
          <note pos="0" vol="191" len="384" pan="0" key="37"/>
          <note pos="0" vol="191" len="48" pan="0" key="0"/>
          <note pos="384" vol="193" len="384" pan="0" key="51"/>
          <note pos="384" vol="193" len="384" pan="0" key="44"/>
          <note pos="768" vol="193" len="384" pan="0" key="46"/>
          <note pos="768" vol="193" len="384" pan="0" key="39"/>
          <note pos="1152" vol="193" len="336" pan="0" key="45"/>
          <note pos="1152" vol="193" len="336" pan="0" key="38"/>
          <note pos="1476" vol="193" len="12" pan="0" key="1"/>
          <note pos="1488" vol="193" len="12" pan="0" key="38"/>
          <note pos="1500" vol="193" len="12" pan="0" key="38"/>
          <note pos="1512" vol="193" len="12" pan="0" key="38"/>
          <note pos="1524" vol="193" len="12" pan="0" key="38"/>
        </pattern>
        <pattern name="" steps="16" pos="1920" muted="0" type="1">
          <note pos="0" vol="78" len="36" pan="0" key="44"/>
          <note pos="0" vol="78" len="36" pan="0" key="37"/>
          <note pos="0" vol="78" len="24" pan="0" key="1"/>
          <note pos="72" vol="78" len="36" pan="0" key="44"/>
          <note pos="72" vol="78" len="36" pan="0" key="37"/>
          <note pos="144" vol="78" len="36" pan="0" key="44"/>
          <note pos="144" vol="78" len="36" pan="0" key="37"/>
          <note pos="216" vol="78" len="36" pan="0" key="44"/>
          <note pos="216" vol="78" len="36" pan="0" key="37"/>
          <note pos="288" vol="78" len="24" pan="0" key="44"/>
          <note pos="288" vol="78" len="24" pan="0" key="37"/>
          <note pos="300" vol="78" len="24" pan="0" key="0"/>
          <note pos="312" vol="78" len="48" pan="0" key="44"/>
          <note pos="312" vol="78" len="48" pan="0" key="37"/>
          <note pos="336" vol="78" len="24" pan="0" key="1"/>
          <note pos="360" vol="78" len="24" pan="0" key="44"/>
          <note pos="360" vol="78" len="24" pan="0" key="37"/>
          <note pos="384" vol="78" len="36" pan="0" key="51"/>
          <note pos="384" vol="78" len="36" pan="0" key="44"/>
          <note pos="456" vol="78" len="36" pan="0" key="51"/>
          <note pos="456" vol="78" len="36" pan="0" key="44"/>
          <note pos="528" vol="78" len="36" pan="0" key="51"/>
          <note pos="528" vol="78" len="36" pan="0" key="44"/>
          <note pos="600" vol="78" len="36" pan="0" key="51"/>
          <note pos="600" vol="78" len="36" pan="0" key="44"/>
          <note pos="672" vol="78" len="24" pan="0" key="51"/>
          <note pos="672" vol="78" len="24" pan="0" key="44"/>
          <note pos="684" vol="78" len="24" pan="0" key="0"/>
          <note pos="696" vol="78" len="48" pan="0" key="51"/>
          <note pos="696" vol="78" len="48" pan="0" key="44"/>
          <note pos="720" vol="78" len="24" pan="0" key="1"/>
          <note pos="744" vol="78" len="24" pan="0" key="51"/>
          <note pos="744" vol="78" len="24" pan="0" key="44"/>
          <note pos="768" vol="78" len="36" pan="0" key="46"/>
          <note pos="768" vol="78" len="36" pan="0" key="39"/>
          <note pos="840" vol="78" len="36" pan="0" key="46"/>
          <note pos="840" vol="78" len="36" pan="0" key="39"/>
          <note pos="912" vol="78" len="36" pan="0" key="46"/>
          <note pos="912" vol="78" len="36" pan="0" key="39"/>
          <note pos="984" vol="78" len="36" pan="0" key="46"/>
          <note pos="984" vol="78" len="36" pan="0" key="39"/>
          <note pos="1056" vol="78" len="24" pan="0" key="46"/>
          <note pos="1056" vol="78" len="24" pan="0" key="39"/>
          <note pos="1068" vol="78" len="24" pan="0" key="0"/>
          <note pos="1080" vol="78" len="48" pan="0" key="46"/>
          <note pos="1080" vol="78" len="48" pan="0" key="39"/>
          <note pos="1116" vol="78" len="24" pan="0" key="1"/>
          <note pos="1128" vol="78" len="24" pan="0" key="46"/>
          <note pos="1128" vol="78" len="24" pan="0" key="39"/>
          <note pos="1140" vol="78" len="12" pan="0" key="0"/>
          <note pos="1152" vol="78" len="24" pan="0" key="45"/>
          <note pos="1152" vol="78" len="24" pan="0" key="38"/>
          <note pos="1164" vol="78" len="12" pan="0" key="0"/>
          <note pos="1176" vol="78" len="12" pan="0" key="38"/>
          <note pos="1188" vol="78" len="12" pan="0" key="38"/>
          <note pos="1200" vol="78" len="12" pan="0" key="38"/>
          <note pos="1212" vol="78" len="12" pan="0" key="38"/>
          <note pos="1224" vol="78" len="24" pan="0" key="45"/>
          <note pos="1224" vol="78" len="24" pan="0" key="38"/>
          <note pos="1224" vol="78" len="12" pan="0" key="0"/>
          <note pos="1236" vol="78" len="12" pan="0" key="1"/>
          <note pos="1248" vol="78" len="12" pan="0" key="38"/>
          <note pos="1260" vol="78" len="12" pan="0" key="38"/>
          <note pos="1272" vol="78" len="12" pan="0" key="38"/>
          <note pos="1284" vol="78" len="12" pan="0" key="38"/>
          <note pos="1296" vol="78" len="24" pan="0" key="45"/>
          <note pos="1296" vol="78" len="24" pan="0" key="38"/>
          <note pos="1296" vol="78" len="12" pan="0" key="0"/>
          <note pos="1308" vol="78" len="12" pan="0" key="1"/>
          <note pos="1320" vol="78" len="12" pan="0" key="38"/>
          <note pos="1332" vol="78" len="12" pan="0" key="38"/>
          <note pos="1344" vol="78" len="192" pan="0" key="45"/>
          <note pos="1344" vol="78" len="192" pan="0" key="38"/>
          <note pos="1344" vol="78" len="12" pan="0" key="0"/>
        </pattern>
        <pattern name="" steps="16" pos="3456" muted="0" type="1">
          <note pos="0" vol="197" len="192" pan="0" key="44"/>
          <note pos="0" vol="197" len="192" pan="0" key="37"/>
          <note pos="0" vol="78" len="48" pan="0" key="0"/>
          <note pos="192" vol="197" len="192" pan="0" key="51"/>
          <note pos="192" vol="197" len="192" pan="0" key="44"/>
          <note pos="384" vol="197" len="192" pan="0" key="52"/>
          <note pos="384" vol="197" len="192" pan="0" key="45"/>
          <note pos="576" vol="197" len="192" pan="0" key="54"/>
          <note pos="576" vol="197" len="192" pan="0" key="47"/>
          <note pos="756" vol="197" len="12" pan="0" key="1"/>
          <note pos="768" vol="197" len="12" pan="0" key="42"/>
          <note pos="780" vol="197" len="12" pan="0" key="42"/>
          <note pos="792" vol="197" len="12" pan="0" key="42"/>
          <note pos="804" vol="197" len="12" pan="0" key="42"/>
          <note pos="816" vol="197" len="12" pan="0" key="42"/>
          <note pos="828" vol="197" len="12" pan="0" key="42"/>
          <note pos="840" vol="197" len="12" pan="0" key="42"/>
          <note pos="852" vol="197" len="12" pan="0" key="42"/>
          <note pos="864" vol="197" len="12" pan="0" key="42"/>
          <note pos="876" vol="197" len="12" pan="0" key="42"/>
          <note pos="888" vol="197" len="12" pan="0" key="42"/>
          <note pos="900" vol="197" len="12" pan="0" key="42"/>
          <note pos="912" vol="197" len="12" pan="0" key="42"/>
          <note pos="924" vol="197" len="12" pan="0" key="42"/>
          <note pos="936" vol="197" len="12" pan="0" key="42"/>
          <note pos="948" vol="197" len="12" pan="0" key="42"/>
          <note pos="960" vol="197" len="12" pan="0" key="44"/>
          <note pos="972" vol="197" len="12" pan="0" key="44"/>
          <note pos="984" vol="197" len="12" pan="0" key="44"/>
          <note pos="996" vol="197" len="12" pan="0" key="44"/>
          <note pos="1008" vol="197" len="12" pan="0" key="44"/>
          <note pos="1020" vol="197" len="12" pan="0" key="44"/>
          <note pos="1032" vol="197" len="12" pan="0" key="44"/>
          <note pos="1044" vol="197" len="12" pan="0" key="44"/>
          <note pos="1056" vol="197" len="12" pan="0" key="44"/>
          <note pos="1068" vol="197" len="12" pan="0" key="44"/>
          <note pos="1080" vol="197" len="12" pan="0" key="44"/>
          <note pos="1092" vol="197" len="12" pan="0" key="44"/>
          <note pos="1104" vol="197" len="12" pan="0" key="44"/>
          <note pos="1116" vol="197" len="12" pan="0" key="44"/>
          <note pos="1128" vol="197" len="12" pan="0" key="44"/>
          <note pos="1140" vol="197" len="12" pan="0" key="44"/>
          <note pos="1152" vol="197" len="12" pan="0" key="45"/>
          <note pos="1164" vol="197" len="12" pan="0" key="45"/>
          <note pos="1176" vol="197" len="12" pan="0" key="45"/>
          <note pos="1188" vol="197" len="12" pan="0" key="45"/>
          <note pos="1200" vol="197" len="12" pan="0" key="45"/>
          <note pos="1212" vol="197" len="12" pan="0" key="45"/>
          <note pos="1224" vol="197" len="12" pan="0" key="45"/>
          <note pos="1236" vol="197" len="12" pan="0" key="45"/>
          <note pos="1248" vol="197" len="12" pan="0" key="45"/>
          <note pos="1260" vol="197" len="12" pan="0" key="45"/>
          <note pos="1272" vol="197" len="12" pan="0" key="45"/>
          <note pos="1284" vol="197" len="12" pan="0" key="45"/>
          <note pos="1296" vol="197" len="12" pan="0" key="45"/>
          <note pos="1308" vol="197" len="12" pan="0" key="45"/>
          <note pos="1320" vol="197" len="12" pan="0" key="45"/>
          <note pos="1332" vol="197" len="12" pan="0" key="45"/>
          <note pos="1344" vol="197" len="48" pan="0" key="54"/>
          <note pos="1344" vol="197" len="48" pan="0" key="47"/>
          <note pos="1344" vol="197" len="12" pan="0" key="0"/>
          <note pos="1392" vol="197" len="48" pan="0" key="54"/>
          <note pos="1392" vol="197" len="48" pan="0" key="47"/>
          <note pos="1440" vol="197" len="48" pan="0" key="51"/>
          <note pos="1440" vol="197" len="48" pan="0" key="44"/>
          <note pos="1488" vol="197" len="48" pan="0" key="54"/>
          <note pos="1488" vol="197" len="48" pan="0" key="47"/>
        </pattern>
        <pattern name="" steps="16" pos="4992" muted="0" type="1">
          <note pos="0" vol="197" len="24" pan="0" key="49"/>
          <note pos="0" vol="197" len="12" pan="0" key="0"/>
          <note pos="24" vol="197" len="24" pan="0" key="47"/>
          <note pos="48" vol="197" len="24" pan="0" key="49"/>
          <note pos="72" vol="197" len="24" pan="0" key="56"/>
          <note pos="84" vol="197" len="12" pan="0" key="1"/>
          <note pos="96" vol="197" len="12" pan="0" key="49"/>
          <note pos="108" vol="197" len="12" pan="0" key="49"/>
          <note pos="120" vol="197" len="12" pan="0" key="49"/>
          <note pos="132" vol="197" len="12" pan="0" key="49"/>
          <note pos="144" vol="197" len="12" pan="0" key="49"/>
          <note pos="156" vol="197" len="12" pan="0" key="49"/>
          <note pos="168" vol="197" len="12" pan="0" key="49"/>
          <note pos="180" vol="197" len="12" pan="0" key="49"/>
        </pattern>
        <pattern name="" steps="16" pos="5184" muted="0" type="1">
          <note pos="0" vol="197" len="24" pan="0" key="42"/>
          <note pos="0" vol="197" len="12" pan="0" key="0"/>
          <note pos="24" vol="197" len="24" pan="0" key="40"/>
          <note pos="48" vol="197" len="24" pan="0" key="42"/>
          <note pos="72" vol="197" len="24" pan="0" key="49"/>
          <note pos="84" vol="197" len="12" pan="0" key="1"/>
          <note pos="96" vol="197" len="12" pan="0" key="42"/>
          <note pos="108" vol="197" len="12" pan="0" key="42"/>
          <note pos="120" vol="197" len="12" pan="0" key="42"/>
          <note pos="132" vol="197" len="12" pan="0" key="42"/>
          <note pos="144" vol="197" len="12" pan="0" key="42"/>
          <note pos="156" vol="197" len="12" pan="0" key="42"/>
          <note pos="168" vol="197" len="12" pan="0" key="42"/>
          <note pos="180" vol="197" len="12" pan="0" key="42"/>
        </pattern>
        <pattern name="" steps="16" pos="5376" muted="0" type="1">
          <note pos="0" vol="78" len="24" pan="0" key="44"/>
          <note pos="0" vol="78" len="24" pan="0" key="1"/>
          <note pos="24" vol="78" len="24" pan="0" key="47"/>
          <note pos="48" vol="78" len="24" pan="0" key="44"/>
          <note pos="60" vol="78" len="24" pan="0" key="0"/>
          <note pos="72" vol="78" len="48" pan="0" key="51"/>
          <note pos="108" vol="78" len="24" pan="0" key="1"/>
          <note pos="120" vol="78" len="24" pan="0" key="44"/>
          <note pos="144" vol="78" len="24" pan="0" key="47"/>
          <note pos="168" vol="78" len="24" pan="0" key="51"/>
          <note pos="192" vol="78" len="12" pan="0" key="45"/>
          <note pos="204" vol="78" len="12" pan="0" key="45"/>
          <note pos="216" vol="78" len="12" pan="0" key="45"/>
          <note pos="228" vol="78" len="12" pan="0" key="45"/>
          <note pos="240" vol="78" len="12" pan="0" key="45"/>
          <note pos="252" vol="78" len="12" pan="0" key="45"/>
          <note pos="264" vol="78" len="12" pan="0" key="49"/>
          <note pos="276" vol="78" len="12" pan="0" key="49"/>
          <note pos="288" vol="78" len="12" pan="0" key="47"/>
          <note pos="300" vol="78" len="12" pan="0" key="47"/>
          <note pos="312" vol="78" len="12" pan="0" key="47"/>
          <note pos="324" vol="78" len="12" pan="0" key="47"/>
          <note pos="336" vol="78" len="12" pan="0" key="51"/>
          <note pos="348" vol="78" len="12" pan="0" key="51"/>
          <note pos="360" vol="78" len="12" pan="0" key="47"/>
          <note pos="372" vol="78" len="12" pan="0" key="47"/>
        </pattern>
        <pattern name="" steps="16" pos="5760" muted="0" type="1">
          <note pos="0" vol="197" len="24" pan="0" key="49"/>
          <note pos="0" vol="197" len="12" pan="0" key="0"/>
          <note pos="24" vol="197" len="24" pan="0" key="47"/>
          <note pos="48" vol="197" len="24" pan="0" key="49"/>
          <note pos="72" vol="197" len="24" pan="0" key="56"/>
          <note pos="84" vol="197" len="12" pan="0" key="1"/>
          <note pos="96" vol="197" len="12" pan="0" key="49"/>
          <note pos="108" vol="197" len="12" pan="0" key="49"/>
          <note pos="120" vol="197" len="12" pan="0" key="49"/>
          <note pos="132" vol="197" len="12" pan="0" key="49"/>
          <note pos="144" vol="197" len="12" pan="0" key="49"/>
          <note pos="156" vol="197" len="12" pan="0" key="49"/>
          <note pos="168" vol="197" len="12" pan="0" key="49"/>
          <note pos="180" vol="197" len="12" pan="0" key="49"/>
        </pattern>
        <pattern name="" steps="16" pos="5952" muted="0" type="1">
          <note pos="0" vol="197" len="24" pan="0" key="42"/>
          <note pos="0" vol="197" len="12" pan="0" key="0"/>
          <note pos="24" vol="197" len="24" pan="0" key="40"/>
          <note pos="48" vol="197" len="24" pan="0" key="42"/>
          <note pos="72" vol="197" len="24" pan="0" key="49"/>
          <note pos="84" vol="197" len="12" pan="0" key="1"/>
          <note pos="96" vol="197" len="12" pan="0" key="42"/>
          <note pos="108" vol="197" len="12" pan="0" key="42"/>
          <note pos="120" vol="197" len="12" pan="0" key="42"/>
          <note pos="132" vol="197" len="12" pan="0" key="42"/>
          <note pos="144" vol="197" len="12" pan="0" key="42"/>
          <note pos="156" vol="197" len="12" pan="0" key="42"/>
          <note pos="168" vol="197" len="12" pan="0" key="42"/>
          <note pos="180" vol="197" len="12" pan="0" key="42"/>
        </pattern>
        <pattern name="" steps="16" pos="6144" muted="0" type="1">
          <note pos="0" vol="78" len="24" pan="0" key="44"/>
          <note pos="0" vol="78" len="24" pan="0" key="1"/>
          <note pos="24" vol="78" len="24" pan="0" key="47"/>
          <note pos="48" vol="78" len="24" pan="0" key="44"/>
          <note pos="60" vol="78" len="24" pan="0" key="0"/>
          <note pos="72" vol="78" len="48" pan="0" key="51"/>
          <note pos="108" vol="78" len="24" pan="0" key="1"/>
          <note pos="120" vol="78" len="24" pan="0" key="44"/>
          <note pos="144" vol="78" len="24" pan="0" key="47"/>
          <note pos="168" vol="78" len="24" pan="0" key="51"/>
          <note pos="192" vol="78" len="12" pan="0" key="45"/>
          <note pos="204" vol="78" len="12" pan="0" key="45"/>
          <note pos="216" vol="78" len="12" pan="0" key="45"/>
          <note pos="228" vol="78" len="12" pan="0" key="45"/>
          <note pos="240" vol="78" len="12" pan="0" key="45"/>
          <note pos="252" vol="78" len="12" pan="0" key="45"/>
          <note pos="264" vol="78" len="12" pan="0" key="49"/>
          <note pos="276" vol="78" len="12" pan="0" key="49"/>
          <note pos="288" vol="78" len="12" pan="0" key="47"/>
          <note pos="300" vol="78" len="12" pan="0" key="47"/>
          <note pos="312" vol="78" len="12" pan="0" key="47"/>
          <note pos="324" vol="78" len="12" pan="0" key="47"/>
          <note pos="336" vol="78" len="12" pan="0" key="51"/>
          <note pos="348" vol="78" len="12" pan="0" key="51"/>
          <note pos="360" vol="78" len="12" pan="0" key="47"/>
          <note pos="372" vol="78" len="12" pan="0" key="47"/>
        </pattern>
        <pattern name="" steps="16" pos="6528" muted="0" type="1">
          <note pos="0" vol="197" len="48" pan="0" key="42"/>
          <note pos="0" vol="197" len="48" pan="0" key="35"/>
          <note pos="0" vol="78" len="48" pan="0" key="0"/>
          <note pos="36" vol="78" len="24" pan="0" key="1"/>
          <note pos="48" vol="197" len="12" pan="0" key="35"/>
          <note pos="60" vol="197" len="12" pan="0" key="35"/>
          <note pos="72" vol="197" len="24" pan="0" key="35"/>
          <note pos="96" vol="197" len="12" pan="0" key="35"/>
          <note pos="108" vol="197" len="12" pan="0" key="35"/>
          <note pos="120" vol="197" len="24" pan="0" key="35"/>
          <note pos="144" vol="197" len="12" pan="0" key="35"/>
          <note pos="156" vol="197" len="12" pan="0" key="35"/>
          <note pos="168" vol="197" len="24" pan="0" key="35"/>
          <note pos="180" vol="78" len="48" pan="0" key="0"/>
          <note pos="192" vol="197" len="48" pan="0" key="42"/>
          <note pos="192" vol="197" len="48" pan="0" key="35"/>
          <note pos="228" vol="78" len="48" pan="0" key="1"/>
          <note pos="240" vol="197" len="12" pan="0" key="35"/>
          <note pos="252" vol="197" len="12" pan="0" key="35"/>
          <note pos="264" vol="197" len="24" pan="0" key="35"/>
          <note pos="288" vol="197" len="12" pan="0" key="35"/>
          <note pos="300" vol="197" len="12" pan="0" key="35"/>
          <note pos="312" vol="197" len="24" pan="0" key="35"/>
          <note pos="336" vol="197" len="12" pan="0" key="35"/>
          <note pos="348" vol="197" len="12" pan="0" key="35"/>
          <note pos="360" vol="197" len="24" pan="0" key="35"/>
          <note pos="372" vol="78" len="48" pan="0" key="0"/>
          <note pos="384" vol="197" len="48" pan="0" key="52"/>
          <note pos="384" vol="197" len="48" pan="0" key="45"/>
          <note pos="408" vol="78" len="48" pan="0" key="1"/>
          <note pos="432" vol="197" len="12" pan="0" key="45"/>
          <note pos="444" vol="197" len="12" pan="0" key="45"/>
          <note pos="456" vol="197" len="24" pan="0" key="45"/>
          <note pos="480" vol="197" len="12" pan="0" key="45"/>
          <note pos="492" vol="197" len="12" pan="0" key="45"/>
          <note pos="504" vol="197" len="24" pan="0" key="45"/>
          <note pos="528" vol="197" len="12" pan="0" key="45"/>
          <note pos="540" vol="197" len="12" pan="0" key="45"/>
          <note pos="552" vol="197" len="24" pan="0" key="45"/>
          <note pos="564" vol="78" len="48" pan="0" key="0"/>
          <note pos="576" vol="197" len="48" pan="0" key="51"/>
          <note pos="576" vol="197" len="48" pan="0" key="44"/>
          <note pos="612" vol="78" len="48" pan="0" key="1"/>
          <note pos="624" vol="197" len="12" pan="0" key="44"/>
          <note pos="636" vol="197" len="12" pan="0" key="44"/>
          <note pos="648" vol="197" len="24" pan="0" key="44"/>
          <note pos="672" vol="197" len="12" pan="0" key="44"/>
          <note pos="684" vol="197" len="12" pan="0" key="44"/>
          <note pos="696" vol="197" len="12" pan="0" key="44"/>
          <note pos="708" vol="197" len="12" pan="0" key="44"/>
          <note pos="720" vol="197" len="12" pan="0" key="44"/>
          <note pos="732" vol="197" len="12" pan="0" key="44"/>
          <note pos="744" vol="197" len="24" pan="0" key="44"/>
        </pattern>
        <pattern name="" steps="16" pos="8064" muted="0" type="1">
          <note pos="0" vol="195" len="48" pan="0" key="44"/>
          <note pos="0" vol="195" len="48" pan="0" key="37"/>
          <note pos="0" vol="195" len="36" pan="0" key="0"/>
          <note pos="36" vol="195" len="36" pan="0" key="1"/>
          <note pos="48" vol="195" len="12" pan="0" key="37"/>
          <note pos="60" vol="195" len="12" pan="0" key="37"/>
          <note pos="72" vol="195" len="12" pan="0" key="37"/>
          <note pos="84" vol="195" len="12" pan="0" key="37"/>
          <note pos="96" vol="195" len="12" pan="0" key="37"/>
          <note pos="108" vol="195" len="12" pan="0" key="37"/>
          <note pos="120" vol="195" len="12" pan="0" key="37"/>
          <note pos="132" vol="195" len="12" pan="0" key="37"/>
          <note pos="144" vol="195" len="12" pan="0" key="37"/>
          <note pos="156" vol="195" len="12" pan="0" key="37"/>
          <note pos="168" vol="195" len="12" pan="0" key="37"/>
          <note pos="180" vol="195" len="12" pan="0" key="37"/>
          <note pos="180" vol="195" len="36" pan="0" key="0"/>
          <note pos="192" vol="195" len="48" pan="0" key="51"/>
          <note pos="192" vol="195" len="48" pan="0" key="44"/>
          <note pos="216" vol="195" len="36" pan="0" key="1"/>
          <note pos="240" vol="195" len="12" pan="0" key="44"/>
          <note pos="252" vol="195" len="12" pan="0" key="44"/>
          <note pos="264" vol="195" len="12" pan="0" key="44"/>
          <note pos="276" vol="195" len="12" pan="0" key="44"/>
          <note pos="288" vol="195" len="12" pan="0" key="44"/>
          <note pos="300" vol="195" len="12" pan="0" key="44"/>
          <note pos="312" vol="195" len="12" pan="0" key="44"/>
          <note pos="324" vol="195" len="12" pan="0" key="44"/>
          <note pos="336" vol="195" len="12" pan="0" key="44"/>
          <note pos="348" vol="195" len="12" pan="0" key="44"/>
          <note pos="360" vol="195" len="12" pan="0" key="44"/>
          <note pos="372" vol="195" len="12" pan="0" key="44"/>
          <note pos="372" vol="195" len="36" pan="0" key="0"/>
          <note pos="384" vol="195" len="48" pan="0" key="52"/>
          <note pos="384" vol="195" len="48" pan="0" key="45"/>
          <note pos="408" vol="195" len="36" pan="0" key="1"/>
          <note pos="432" vol="195" len="12" pan="0" key="45"/>
          <note pos="444" vol="195" len="12" pan="0" key="45"/>
          <note pos="456" vol="195" len="12" pan="0" key="45"/>
          <note pos="468" vol="195" len="12" pan="0" key="45"/>
          <note pos="480" vol="195" len="12" pan="0" key="45"/>
          <note pos="492" vol="195" len="12" pan="0" key="45"/>
          <note pos="504" vol="195" len="12" pan="0" key="45"/>
          <note pos="516" vol="195" len="12" pan="0" key="45"/>
          <note pos="528" vol="195" len="12" pan="0" key="45"/>
          <note pos="540" vol="195" len="12" pan="0" key="45"/>
          <note pos="552" vol="195" len="12" pan="0" key="45"/>
          <note pos="564" vol="195" len="12" pan="0" key="45"/>
          <note pos="564" vol="195" len="36" pan="0" key="0"/>
          <note pos="576" vol="195" len="48" pan="0" key="54"/>
          <note pos="576" vol="195" len="48" pan="0" key="47"/>
          <note pos="600" vol="195" len="36" pan="0" key="1"/>
          <note pos="624" vol="195" len="12" pan="0" key="47"/>
          <note pos="636" vol="195" len="12" pan="0" key="47"/>
          <note pos="648" vol="195" len="12" pan="0" key="47"/>
          <note pos="660" vol="195" len="12" pan="0" key="47"/>
          <note pos="672" vol="195" len="12" pan="0" key="47"/>
          <note pos="684" vol="195" len="12" pan="0" key="47"/>
          <note pos="696" vol="195" len="12" pan="0" key="47"/>
          <note pos="708" vol="195" len="12" pan="0" key="47"/>
          <note pos="720" vol="195" len="12" pan="0" key="47"/>
          <note pos="732" vol="195" len="12" pan="0" key="47"/>
          <note pos="744" vol="195" len="12" pan="0" key="47"/>
          <note pos="756" vol="195" len="12" pan="0" key="47"/>
          <note pos="768" vol="195" len="48" pan="0" key="49"/>
          <note pos="768" vol="195" len="48" pan="0" key="42"/>
          <note pos="768" vol="195" len="36" pan="0" key="0"/>
          <note pos="792" vol="195" len="36" pan="0" key="1"/>
          <note pos="816" vol="195" len="12" pan="0" key="42"/>
          <note pos="828" vol="195" len="12" pan="0" key="42"/>
          <note pos="840" vol="195" len="12" pan="0" key="42"/>
          <note pos="852" vol="195" len="12" pan="0" key="42"/>
          <note pos="864" vol="195" len="12" pan="0" key="42"/>
          <note pos="876" vol="195" len="12" pan="0" key="42"/>
          <note pos="888" vol="195" len="12" pan="0" key="42"/>
          <note pos="900" vol="195" len="12" pan="0" key="42"/>
          <note pos="912" vol="195" len="12" pan="0" key="42"/>
          <note pos="924" vol="195" len="12" pan="0" key="42"/>
          <note pos="936" vol="195" len="12" pan="0" key="42"/>
          <note pos="948" vol="195" len="12" pan="0" key="42"/>
          <note pos="948" vol="195" len="36" pan="0" key="0"/>
          <note pos="960" vol="195" len="48" pan="0" key="51"/>
          <note pos="960" vol="195" len="48" pan="0" key="44"/>
          <note pos="984" vol="195" len="36" pan="0" key="1"/>
          <note pos="1008" vol="195" len="12" pan="0" key="44"/>
          <note pos="1020" vol="195" len="12" pan="0" key="44"/>
          <note pos="1032" vol="195" len="12" pan="0" key="44"/>
          <note pos="1044" vol="195" len="12" pan="0" key="44"/>
          <note pos="1056" vol="195" len="12" pan="0" key="44"/>
          <note pos="1068" vol="195" len="12" pan="0" key="44"/>
          <note pos="1080" vol="195" len="12" pan="0" key="44"/>
          <note pos="1092" vol="195" len="12" pan="0" key="44"/>
          <note pos="1104" vol="195" len="12" pan="0" key="44"/>
          <note pos="1116" vol="195" len="12" pan="0" key="44"/>
          <note pos="1128" vol="195" len="12" pan="0" key="44"/>
          <note pos="1140" vol="195" len="12" pan="0" key="44"/>
          <note pos="1140" vol="195" len="36" pan="0" key="0"/>
          <note pos="1152" vol="195" len="48" pan="0" key="52"/>
          <note pos="1152" vol="195" len="48" pan="0" key="45"/>
          <note pos="1176" vol="195" len="36" pan="0" key="1"/>
          <note pos="1200" vol="195" len="12" pan="0" key="45"/>
          <note pos="1212" vol="195" len="12" pan="0" key="45"/>
          <note pos="1224" vol="195" len="12" pan="0" key="45"/>
          <note pos="1236" vol="195" len="12" pan="0" key="45"/>
          <note pos="1248" vol="195" len="12" pan="0" key="45"/>
          <note pos="1260" vol="195" len="12" pan="0" key="45"/>
          <note pos="1272" vol="195" len="12" pan="0" key="45"/>
          <note pos="1284" vol="195" len="12" pan="0" key="45"/>
          <note pos="1296" vol="195" len="12" pan="0" key="45"/>
          <note pos="1308" vol="195" len="12" pan="0" key="45"/>
          <note pos="1320" vol="195" len="12" pan="0" key="45"/>
          <note pos="1332" vol="195" len="12" pan="0" key="45"/>
          <note pos="1332" vol="195" len="36" pan="0" key="0"/>
          <note pos="1344" vol="195" len="48" pan="0" key="54"/>
          <note pos="1344" vol="195" len="48" pan="0" key="47"/>
          <note pos="1368" vol="195" len="36" pan="0" key="1"/>
          <note pos="1392" vol="195" len="12" pan="0" key="47"/>
          <note pos="1404" vol="195" len="12" pan="0" key="47"/>
          <note pos="1416" vol="195" len="12" pan="0" key="47"/>
          <note pos="1428" vol="195" len="12" pan="0" key="47"/>
          <note pos="1440" vol="195" len="12" pan="0" key="48"/>
          <note pos="1452" vol="195" len="12" pan="0" key="48"/>
          <note pos="1464" vol="195" len="12" pan="0" key="48"/>
          <note pos="1464" vol="195" len="36" pan="0" key="1"/>
          <note pos="1476" vol="195" len="12" pan="0" key="48"/>
          <note pos="1488" vol="195" len="12" pan="0" key="48"/>
          <note pos="1500" vol="195" len="12" pan="0" key="48"/>
          <note pos="1512" vol="195" len="12" pan="0" key="48"/>
          <note pos="1524" vol="195" len="12" pan="0" key="48"/>
          <note pos="1524" vol="195" len="36" pan="0" key="0"/>
          <note pos="1536" vol="195" len="48" pan="0" key="44"/>
          <note pos="1536" vol="195" len="48" pan="0" key="37"/>
          <note pos="1560" vol="195" len="36" pan="0" key="1"/>
          <note pos="1584" vol="195" len="12" pan="0" key="37"/>
          <note pos="1596" vol="195" len="12" pan="0" key="37"/>
          <note pos="1608" vol="195" len="12" pan="0" key="37"/>
          <note pos="1620" vol="195" len="12" pan="0" key="37"/>
          <note pos="1632" vol="195" len="12" pan="0" key="37"/>
          <note pos="1644" vol="195" len="12" pan="0" key="37"/>
          <note pos="1656" vol="195" len="12" pan="0" key="37"/>
          <note pos="1668" vol="195" len="12" pan="0" key="37"/>
          <note pos="1680" vol="195" len="12" pan="0" key="37"/>
          <note pos="1692" vol="195" len="12" pan="0" key="37"/>
          <note pos="1704" vol="195" len="12" pan="0" key="37"/>
          <note pos="1716" vol="195" len="12" pan="0" key="37"/>
          <note pos="1716" vol="195" len="36" pan="0" key="0"/>
          <note pos="1728" vol="195" len="48" pan="0" key="54"/>
          <note pos="1728" vol="195" len="48" pan="0" key="47"/>
          <note pos="1752" vol="195" len="36" pan="0" key="1"/>
          <note pos="1776" vol="195" len="12" pan="0" key="47"/>
          <note pos="1788" vol="195" len="12" pan="0" key="47"/>
          <note pos="1800" vol="195" len="12" pan="0" key="47"/>
          <note pos="1812" vol="195" len="12" pan="0" key="47"/>
          <note pos="1824" vol="195" len="12" pan="0" key="47"/>
          <note pos="1836" vol="195" len="12" pan="0" key="47"/>
          <note pos="1848" vol="195" len="12" pan="0" key="47"/>
          <note pos="1860" vol="195" len="12" pan="0" key="47"/>
          <note pos="1872" vol="195" len="12" pan="0" key="47"/>
          <note pos="1884" vol="195" len="12" pan="0" key="47"/>
          <note pos="1896" vol="195" len="12" pan="0" key="47"/>
          <note pos="1908" vol="195" len="12" pan="0" key="47"/>
          <note pos="1908" vol="195" len="36" pan="0" key="0"/>
          <note pos="1920" vol="195" len="48" pan="0" key="54"/>
          <note pos="1920" vol="195" len="48" pan="0" key="46"/>
          <note pos="1944" vol="195" len="36" pan="0" key="1"/>
          <note pos="1968" vol="195" len="12" pan="0" key="46"/>
          <note pos="1980" vol="195" len="12" pan="0" key="46"/>
          <note pos="1992" vol="195" len="12" pan="0" key="46"/>
          <note pos="2004" vol="195" len="12" pan="0" key="46"/>
          <note pos="2016" vol="195" len="12" pan="0" key="46"/>
          <note pos="2028" vol="195" len="12" pan="0" key="46"/>
          <note pos="2040" vol="195" len="12" pan="0" key="46"/>
          <note pos="2052" vol="195" len="12" pan="0" key="46"/>
          <note pos="2064" vol="195" len="12" pan="0" key="46"/>
          <note pos="2076" vol="195" len="12" pan="0" key="46"/>
          <note pos="2088" vol="195" len="12" pan="0" key="46"/>
          <note pos="2100" vol="195" len="12" pan="0" key="46"/>
          <note pos="2100" vol="195" len="36" pan="0" key="0"/>
          <note pos="2112" vol="195" len="48" pan="0" key="49"/>
          <note pos="2112" vol="195" len="48" pan="0" key="42"/>
          <note pos="2136" vol="195" len="36" pan="0" key="1"/>
          <note pos="2160" vol="195" len="12" pan="0" key="42"/>
          <note pos="2172" vol="195" len="12" pan="0" key="42"/>
          <note pos="2184" vol="195" len="12" pan="0" key="42"/>
          <note pos="2196" vol="195" len="12" pan="0" key="42"/>
          <note pos="2196" vol="195" len="36" pan="0" key="0"/>
          <note pos="2208" vol="195" len="48" pan="0" key="47"/>
          <note pos="2208" vol="195" len="48" pan="0" key="40"/>
          <note pos="2232" vol="195" len="36" pan="0" key="1"/>
          <note pos="2256" vol="195" len="12" pan="0" key="40"/>
          <note pos="2268" vol="195" len="12" pan="0" key="40"/>
          <note pos="2280" vol="195" len="12" pan="0" key="40"/>
          <note pos="2292" vol="195" len="12" pan="0" key="40"/>
          <note pos="2292" vol="195" len="36" pan="0" key="0"/>
          <note pos="2304" vol="195" len="48" pan="0" key="45"/>
          <note pos="2304" vol="195" len="48" pan="0" key="38"/>
          <note pos="2328" vol="195" len="36" pan="0" key="1"/>
          <note pos="2352" vol="195" len="12" pan="0" key="38"/>
          <note pos="2364" vol="195" len="12" pan="0" key="38"/>
          <note pos="2376" vol="195" len="12" pan="0" key="38"/>
          <note pos="2388" vol="195" len="12" pan="0" key="38"/>
          <note pos="2400" vol="195" len="12" pan="0" key="38"/>
          <note pos="2412" vol="195" len="12" pan="0" key="38"/>
          <note pos="2424" vol="195" len="12" pan="0" key="38"/>
          <note pos="2436" vol="195" len="12" pan="0" key="38"/>
          <note pos="2448" vol="195" len="12" pan="0" key="38"/>
          <note pos="2460" vol="195" len="12" pan="0" key="38"/>
          <note pos="2472" vol="195" len="12" pan="0" key="38"/>
          <note pos="2484" vol="195" len="12" pan="0" key="38"/>
          <note pos="2484" vol="195" len="36" pan="0" key="0"/>
          <note pos="2496" vol="195" len="48" pan="0" key="52"/>
          <note pos="2496" vol="195" len="48" pan="0" key="45"/>
          <note pos="2520" vol="195" len="36" pan="0" key="1"/>
          <note pos="2544" vol="195" len="12" pan="0" key="45"/>
          <note pos="2556" vol="195" len="12" pan="0" key="45"/>
          <note pos="2568" vol="195" len="12" pan="0" key="45"/>
          <note pos="2580" vol="195" len="12" pan="0" key="45"/>
          <note pos="2592" vol="195" len="12" pan="0" key="45"/>
          <note pos="2604" vol="195" len="12" pan="0" key="45"/>
          <note pos="2616" vol="195" len="12" pan="0" key="45"/>
          <note pos="2628" vol="195" len="12" pan="0" key="45"/>
          <note pos="2640" vol="195" len="12" pan="0" key="45"/>
          <note pos="2652" vol="195" len="12" pan="0" key="45"/>
          <note pos="2664" vol="195" len="12" pan="0" key="45"/>
          <note pos="2676" vol="195" len="12" pan="0" key="45"/>
          <note pos="2676" vol="195" len="36" pan="0" key="0"/>
          <note pos="2688" vol="195" len="48" pan="0" key="54"/>
          <note pos="2688" vol="195" len="48" pan="0" key="47"/>
          <note pos="2712" vol="195" len="36" pan="0" key="1"/>
          <note pos="2736" vol="195" len="12" pan="0" key="47"/>
          <note pos="2748" vol="195" len="12" pan="0" key="47"/>
          <note pos="2760" vol="195" len="12" pan="0" key="47"/>
          <note pos="2772" vol="195" len="12" pan="0" key="47"/>
          <note pos="2784" vol="195" len="12" pan="0" key="47"/>
          <note pos="2796" vol="195" len="12" pan="0" key="47"/>
          <note pos="2808" vol="195" len="12" pan="0" key="47"/>
          <note pos="2820" vol="195" len="12" pan="0" key="47"/>
          <note pos="2832" vol="195" len="12" pan="0" key="47"/>
          <note pos="2844" vol="195" len="12" pan="0" key="47"/>
          <note pos="2856" vol="195" len="12" pan="0" key="47"/>
          <note pos="2868" vol="195" len="12" pan="0" key="47"/>
          <note pos="2868" vol="195" len="36" pan="0" key="0"/>
          <note pos="2880" vol="195" len="96" pan="0" key="54"/>
          <note pos="2880" vol="195" len="96" pan="0" key="47"/>
          <note pos="2976" vol="195" len="96" pan="0" key="58"/>
          <note pos="2976" vol="195" len="96" pan="0" key="51"/>
        </pattern>
        <pattern name="" steps="16" pos="11136" muted="0" type="1">
          <note pos="0" vol="197" len="24" pan="0" key="44"/>
          <note pos="0" vol="197" len="24" pan="0" key="37"/>
          <note pos="0" vol="197" len="12" pan="0" key="0"/>
          <note pos="12" vol="197" len="12" pan="0" key="1"/>
          <note pos="24" vol="197" len="12" pan="0" key="37"/>
          <note pos="36" vol="197" len="12" pan="0" key="37"/>
          <note pos="48" vol="197" len="12" pan="0" key="37"/>
          <note pos="60" vol="197" len="12" pan="0" key="37"/>
          <note pos="72" vol="197" len="24" pan="0" key="44"/>
          <note pos="72" vol="197" len="24" pan="0" key="37"/>
          <note pos="72" vol="197" len="12" pan="0" key="0"/>
          <note pos="84" vol="197" len="12" pan="0" key="1"/>
          <note pos="96" vol="197" len="12" pan="0" key="37"/>
          <note pos="108" vol="197" len="12" pan="0" key="37"/>
          <note pos="120" vol="197" len="12" pan="0" key="37"/>
          <note pos="132" vol="197" len="12" pan="0" key="37"/>
          <note pos="144" vol="197" len="24" pan="0" key="44"/>
          <note pos="144" vol="197" len="24" pan="0" key="37"/>
          <note pos="144" vol="197" len="24" pan="0" key="0"/>
          <note pos="156" vol="197" len="24" pan="0" key="1"/>
          <note pos="168" vol="197" len="12" pan="0" key="37"/>
          <note pos="180" vol="197" len="12" pan="0" key="37"/>
          <note pos="192" vol="197" len="12" pan="0" key="37"/>
          <note pos="204" vol="197" len="12" pan="0" key="37"/>
          <note pos="216" vol="197" len="24" pan="0" key="44"/>
          <note pos="216" vol="197" len="24" pan="0" key="37"/>
          <note pos="216" vol="197" len="24" pan="0" key="0"/>
          <note pos="228" vol="197" len="24" pan="0" key="1"/>
          <note pos="240" vol="197" len="12" pan="0" key="37"/>
          <note pos="252" vol="197" len="12" pan="0" key="37"/>
          <note pos="264" vol="197" len="12" pan="0" key="37"/>
          <note pos="276" vol="197" len="12" pan="0" key="37"/>
          <note pos="288" vol="197" len="24" pan="0" key="44"/>
          <note pos="288" vol="197" len="24" pan="0" key="37"/>
          <note pos="288" vol="197" len="24" pan="0" key="0"/>
          <note pos="300" vol="197" len="24" pan="0" key="1"/>
          <note pos="312" vol="197" len="12" pan="0" key="37"/>
          <note pos="324" vol="197" len="12" pan="0" key="37"/>
          <note pos="336" vol="197" len="24" pan="0" key="44"/>
          <note pos="336" vol="197" len="24" pan="0" key="37"/>
          <note pos="336" vol="197" len="24" pan="0" key="0"/>
          <note pos="348" vol="197" len="24" pan="0" key="1"/>
          <note pos="360" vol="197" len="12" pan="0" key="37"/>
          <note pos="372" vol="197" len="12" pan="0" key="37"/>
        </pattern>
        <pattern name="" steps="16" pos="11904" muted="0" type="1">
          <note pos="0" vol="197" len="24" pan="0" key="44"/>
          <note pos="0" vol="197" len="24" pan="0" key="37"/>
          <note pos="0" vol="197" len="12" pan="0" key="0"/>
          <note pos="12" vol="197" len="12" pan="0" key="1"/>
          <note pos="24" vol="197" len="12" pan="0" key="37"/>
          <note pos="36" vol="197" len="12" pan="0" key="37"/>
          <note pos="48" vol="197" len="12" pan="0" key="37"/>
          <note pos="60" vol="197" len="12" pan="0" key="37"/>
          <note pos="72" vol="197" len="24" pan="0" key="44"/>
          <note pos="72" vol="197" len="24" pan="0" key="37"/>
          <note pos="72" vol="197" len="12" pan="0" key="0"/>
          <note pos="84" vol="197" len="12" pan="0" key="1"/>
          <note pos="96" vol="197" len="12" pan="0" key="37"/>
          <note pos="108" vol="197" len="12" pan="0" key="37"/>
          <note pos="120" vol="197" len="12" pan="0" key="37"/>
          <note pos="132" vol="197" len="12" pan="0" key="37"/>
          <note pos="144" vol="197" len="24" pan="0" key="44"/>
          <note pos="144" vol="197" len="24" pan="0" key="37"/>
          <note pos="144" vol="197" len="24" pan="0" key="0"/>
          <note pos="156" vol="197" len="24" pan="0" key="1"/>
          <note pos="168" vol="197" len="12" pan="0" key="37"/>
          <note pos="180" vol="197" len="12" pan="0" key="37"/>
          <note pos="192" vol="197" len="12" pan="0" key="37"/>
          <note pos="204" vol="197" len="12" pan="0" key="37"/>
          <note pos="216" vol="197" len="24" pan="0" key="44"/>
          <note pos="216" vol="197" len="24" pan="0" key="37"/>
          <note pos="216" vol="197" len="24" pan="0" key="0"/>
          <note pos="228" vol="197" len="24" pan="0" key="1"/>
          <note pos="240" vol="197" len="12" pan="0" key="37"/>
          <note pos="252" vol="197" len="12" pan="0" key="37"/>
          <note pos="264" vol="197" len="12" pan="0" key="37"/>
          <note pos="276" vol="197" len="12" pan="0" key="37"/>
          <note pos="288" vol="197" len="24" pan="0" key="44"/>
          <note pos="288" vol="197" len="24" pan="0" key="37"/>
          <note pos="288" vol="197" len="24" pan="0" key="0"/>
          <note pos="300" vol="197" len="24" pan="0" key="1"/>
          <note pos="312" vol="197" len="12" pan="0" key="37"/>
          <note pos="324" vol="197" len="12" pan="0" key="37"/>
          <note pos="336" vol="197" len="24" pan="0" key="44"/>
          <note pos="336" vol="197" len="24" pan="0" key="37"/>
          <note pos="336" vol="197" len="24" pan="0" key="0"/>
          <note pos="348" vol="197" len="24" pan="0" key="1"/>
          <note pos="360" vol="197" len="12" pan="0" key="37"/>
          <note pos="372" vol="197" len="12" pan="0" key="37"/>
        </pattern>
        <pattern name="" steps="16" pos="11520" muted="0" type="1">
          <note pos="0" vol="197" len="24" pan="0" key="45"/>
          <note pos="0" vol="197" len="24" pan="0" key="38"/>
          <note pos="0" vol="197" len="12" pan="0" key="0"/>
          <note pos="12" vol="197" len="12" pan="0" key="1"/>
          <note pos="24" vol="197" len="12" pan="0" key="38"/>
          <note pos="36" vol="197" len="12" pan="0" key="38"/>
          <note pos="48" vol="197" len="12" pan="0" key="38"/>
          <note pos="60" vol="197" len="12" pan="0" key="38"/>
          <note pos="72" vol="197" len="24" pan="0" key="45"/>
          <note pos="72" vol="197" len="24" pan="0" key="38"/>
          <note pos="72" vol="197" len="12" pan="0" key="0"/>
          <note pos="84" vol="197" len="12" pan="0" key="1"/>
          <note pos="96" vol="197" len="12" pan="0" key="38"/>
          <note pos="108" vol="197" len="12" pan="0" key="38"/>
          <note pos="120" vol="197" len="12" pan="0" key="38"/>
          <note pos="132" vol="197" len="12" pan="0" key="38"/>
          <note pos="144" vol="197" len="24" pan="0" key="45"/>
          <note pos="144" vol="197" len="24" pan="0" key="38"/>
          <note pos="144" vol="197" len="24" pan="0" key="0"/>
          <note pos="156" vol="197" len="24" pan="0" key="1"/>
          <note pos="168" vol="197" len="12" pan="0" key="38"/>
          <note pos="180" vol="197" len="12" pan="0" key="38"/>
          <note pos="192" vol="197" len="12" pan="0" key="38"/>
          <note pos="204" vol="197" len="12" pan="0" key="38"/>
          <note pos="216" vol="197" len="24" pan="0" key="45"/>
          <note pos="216" vol="197" len="24" pan="0" key="38"/>
          <note pos="216" vol="197" len="24" pan="0" key="0"/>
          <note pos="228" vol="197" len="24" pan="0" key="1"/>
          <note pos="240" vol="197" len="12" pan="0" key="38"/>
          <note pos="252" vol="197" len="12" pan="0" key="38"/>
          <note pos="264" vol="197" len="12" pan="0" key="38"/>
          <note pos="276" vol="197" len="12" pan="0" key="38"/>
          <note pos="288" vol="197" len="24" pan="0" key="45"/>
          <note pos="288" vol="197" len="24" pan="0" key="38"/>
          <note pos="288" vol="197" len="24" pan="0" key="0"/>
          <note pos="300" vol="197" len="24" pan="0" key="1"/>
          <note pos="312" vol="197" len="12" pan="0" key="38"/>
          <note pos="324" vol="197" len="12" pan="0" key="38"/>
          <note pos="336" vol="197" len="24" pan="0" key="45"/>
          <note pos="336" vol="197" len="24" pan="0" key="38"/>
          <note pos="336" vol="197" len="24" pan="0" key="0"/>
          <note pos="348" vol="197" len="24" pan="0" key="1"/>
          <note pos="360" vol="197" len="12" pan="0" key="38"/>
          <note pos="372" vol="197" len="12" pan="0" key="38"/>
        </pattern>
        <pattern name="" steps="16" pos="12288" muted="0" type="1">
          <note pos="0" vol="197" len="24" pan="0" key="45"/>
          <note pos="0" vol="197" len="24" pan="0" key="38"/>
          <note pos="0" vol="197" len="12" pan="0" key="0"/>
          <note pos="12" vol="197" len="12" pan="0" key="1"/>
          <note pos="24" vol="197" len="12" pan="0" key="38"/>
          <note pos="36" vol="197" len="12" pan="0" key="38"/>
          <note pos="48" vol="197" len="12" pan="0" key="38"/>
          <note pos="60" vol="197" len="12" pan="0" key="38"/>
          <note pos="72" vol="197" len="24" pan="0" key="45"/>
          <note pos="72" vol="197" len="24" pan="0" key="38"/>
          <note pos="72" vol="197" len="12" pan="0" key="0"/>
          <note pos="84" vol="197" len="12" pan="0" key="1"/>
          <note pos="96" vol="197" len="12" pan="0" key="38"/>
          <note pos="108" vol="197" len="12" pan="0" key="38"/>
          <note pos="120" vol="197" len="12" pan="0" key="38"/>
          <note pos="132" vol="197" len="12" pan="0" key="38"/>
          <note pos="144" vol="197" len="24" pan="0" key="45"/>
          <note pos="144" vol="197" len="24" pan="0" key="38"/>
          <note pos="144" vol="197" len="24" pan="0" key="0"/>
          <note pos="156" vol="197" len="24" pan="0" key="1"/>
          <note pos="168" vol="197" len="12" pan="0" key="38"/>
          <note pos="180" vol="197" len="12" pan="0" key="38"/>
          <note pos="192" vol="197" len="12" pan="0" key="38"/>
          <note pos="204" vol="197" len="12" pan="0" key="38"/>
          <note pos="216" vol="197" len="24" pan="0" key="45"/>
          <note pos="216" vol="197" len="24" pan="0" key="38"/>
          <note pos="216" vol="197" len="24" pan="0" key="0"/>
          <note pos="228" vol="197" len="24" pan="0" key="1"/>
          <note pos="240" vol="197" len="12" pan="0" key="38"/>
          <note pos="252" vol="197" len="12" pan="0" key="38"/>
          <note pos="264" vol="197" len="12" pan="0" key="38"/>
          <note pos="276" vol="197" len="12" pan="0" key="38"/>
          <note pos="288" vol="197" len="24" pan="0" key="45"/>
          <note pos="288" vol="197" len="24" pan="0" key="38"/>
          <note pos="288" vol="197" len="24" pan="0" key="0"/>
          <note pos="300" vol="197" len="24" pan="0" key="1"/>
          <note pos="312" vol="197" len="12" pan="0" key="38"/>
          <note pos="324" vol="197" len="12" pan="0" key="38"/>
          <note pos="336" vol="197" len="24" pan="0" key="45"/>
          <note pos="336" vol="197" len="24" pan="0" key="38"/>
          <note pos="336" vol="197" len="24" pan="0" key="0"/>
          <note pos="348" vol="197" len="24" pan="0" key="1"/>
          <note pos="360" vol="197" len="12" pan="0" key="38"/>
          <note pos="372" vol="197" len="12" pan="0" key="38"/>
        </pattern>
        <pattern name="" steps="16" pos="13440" muted="0" type="1">
          <note pos="0" vol="197" len="192" pan="0" key="37"/>
          <note pos="0" vol="197" len="384" pan="0" key="0"/>
          <note pos="192" vol="197" len="192" pan="0" key="37"/>
        </pattern>
        <pattern name="" steps="16" pos="15744" muted="0" type="1">
          <note pos="0" vol="195" len="48" pan="0" key="44"/>
          <note pos="0" vol="195" len="48" pan="0" key="37"/>
          <note pos="0" vol="195" len="36" pan="0" key="0"/>
          <note pos="36" vol="195" len="36" pan="0" key="1"/>
          <note pos="48" vol="195" len="12" pan="0" key="37"/>
          <note pos="60" vol="195" len="12" pan="0" key="37"/>
          <note pos="72" vol="195" len="12" pan="0" key="37"/>
          <note pos="84" vol="195" len="12" pan="0" key="37"/>
          <note pos="96" vol="195" len="12" pan="0" key="37"/>
          <note pos="108" vol="195" len="12" pan="0" key="37"/>
          <note pos="120" vol="195" len="12" pan="0" key="37"/>
          <note pos="132" vol="195" len="12" pan="0" key="37"/>
          <note pos="144" vol="195" len="12" pan="0" key="37"/>
          <note pos="156" vol="195" len="12" pan="0" key="37"/>
          <note pos="168" vol="195" len="12" pan="0" key="37"/>
          <note pos="180" vol="195" len="12" pan="0" key="37"/>
          <note pos="180" vol="195" len="36" pan="0" key="0"/>
          <note pos="192" vol="195" len="48" pan="0" key="51"/>
          <note pos="192" vol="195" len="48" pan="0" key="44"/>
          <note pos="216" vol="195" len="36" pan="0" key="1"/>
          <note pos="240" vol="195" len="12" pan="0" key="44"/>
          <note pos="252" vol="195" len="12" pan="0" key="44"/>
          <note pos="264" vol="195" len="12" pan="0" key="44"/>
          <note pos="276" vol="195" len="12" pan="0" key="44"/>
          <note pos="288" vol="195" len="12" pan="0" key="44"/>
          <note pos="300" vol="195" len="12" pan="0" key="44"/>
          <note pos="312" vol="195" len="12" pan="0" key="44"/>
          <note pos="324" vol="195" len="12" pan="0" key="44"/>
          <note pos="336" vol="195" len="12" pan="0" key="44"/>
          <note pos="348" vol="195" len="12" pan="0" key="44"/>
          <note pos="360" vol="195" len="12" pan="0" key="44"/>
          <note pos="372" vol="195" len="12" pan="0" key="44"/>
          <note pos="372" vol="195" len="36" pan="0" key="0"/>
          <note pos="384" vol="195" len="48" pan="0" key="52"/>
          <note pos="384" vol="195" len="48" pan="0" key="45"/>
          <note pos="408" vol="195" len="36" pan="0" key="1"/>
          <note pos="432" vol="195" len="12" pan="0" key="45"/>
          <note pos="444" vol="195" len="12" pan="0" key="45"/>
          <note pos="456" vol="195" len="12" pan="0" key="45"/>
          <note pos="468" vol="195" len="12" pan="0" key="45"/>
          <note pos="480" vol="195" len="12" pan="0" key="45"/>
          <note pos="492" vol="195" len="12" pan="0" key="45"/>
          <note pos="504" vol="195" len="12" pan="0" key="45"/>
          <note pos="516" vol="195" len="12" pan="0" key="45"/>
          <note pos="528" vol="195" len="12" pan="0" key="45"/>
          <note pos="540" vol="195" len="12" pan="0" key="45"/>
          <note pos="552" vol="195" len="12" pan="0" key="45"/>
          <note pos="564" vol="195" len="12" pan="0" key="45"/>
          <note pos="564" vol="195" len="36" pan="0" key="0"/>
          <note pos="576" vol="195" len="48" pan="0" key="54"/>
          <note pos="576" vol="195" len="48" pan="0" key="47"/>
          <note pos="600" vol="195" len="36" pan="0" key="1"/>
          <note pos="624" vol="195" len="12" pan="0" key="47"/>
          <note pos="636" vol="195" len="12" pan="0" key="47"/>
          <note pos="648" vol="195" len="12" pan="0" key="47"/>
          <note pos="660" vol="195" len="12" pan="0" key="47"/>
          <note pos="672" vol="195" len="12" pan="0" key="47"/>
          <note pos="684" vol="195" len="12" pan="0" key="47"/>
          <note pos="696" vol="195" len="12" pan="0" key="47"/>
          <note pos="708" vol="195" len="12" pan="0" key="47"/>
          <note pos="720" vol="195" len="12" pan="0" key="47"/>
          <note pos="732" vol="195" len="12" pan="0" key="47"/>
          <note pos="744" vol="195" len="12" pan="0" key="47"/>
          <note pos="756" vol="195" len="12" pan="0" key="47"/>
          <note pos="768" vol="195" len="48" pan="0" key="49"/>
          <note pos="768" vol="195" len="48" pan="0" key="42"/>
          <note pos="768" vol="195" len="36" pan="0" key="0"/>
          <note pos="792" vol="195" len="36" pan="0" key="1"/>
          <note pos="816" vol="195" len="12" pan="0" key="42"/>
          <note pos="828" vol="195" len="12" pan="0" key="42"/>
          <note pos="840" vol="195" len="12" pan="0" key="42"/>
          <note pos="852" vol="195" len="12" pan="0" key="42"/>
          <note pos="864" vol="195" len="12" pan="0" key="42"/>
          <note pos="876" vol="195" len="12" pan="0" key="42"/>
          <note pos="888" vol="195" len="12" pan="0" key="42"/>
          <note pos="900" vol="195" len="12" pan="0" key="42"/>
          <note pos="912" vol="195" len="12" pan="0" key="42"/>
          <note pos="924" vol="195" len="12" pan="0" key="42"/>
          <note pos="936" vol="195" len="12" pan="0" key="42"/>
          <note pos="948" vol="195" len="12" pan="0" key="42"/>
          <note pos="948" vol="195" len="36" pan="0" key="0"/>
          <note pos="960" vol="195" len="48" pan="0" key="51"/>
          <note pos="960" vol="195" len="48" pan="0" key="44"/>
          <note pos="984" vol="195" len="36" pan="0" key="1"/>
          <note pos="1008" vol="195" len="12" pan="0" key="44"/>
          <note pos="1020" vol="195" len="12" pan="0" key="44"/>
          <note pos="1032" vol="195" len="12" pan="0" key="44"/>
          <note pos="1044" vol="195" len="12" pan="0" key="44"/>
          <note pos="1056" vol="195" len="12" pan="0" key="44"/>
          <note pos="1068" vol="195" len="12" pan="0" key="44"/>
          <note pos="1080" vol="195" len="12" pan="0" key="44"/>
          <note pos="1092" vol="195" len="12" pan="0" key="44"/>
          <note pos="1104" vol="195" len="12" pan="0" key="44"/>
          <note pos="1116" vol="195" len="12" pan="0" key="44"/>
          <note pos="1128" vol="195" len="12" pan="0" key="44"/>
          <note pos="1140" vol="195" len="12" pan="0" key="44"/>
          <note pos="1140" vol="195" len="36" pan="0" key="0"/>
          <note pos="1152" vol="195" len="48" pan="0" key="52"/>
          <note pos="1152" vol="195" len="48" pan="0" key="45"/>
          <note pos="1176" vol="195" len="36" pan="0" key="1"/>
          <note pos="1200" vol="195" len="12" pan="0" key="45"/>
          <note pos="1212" vol="195" len="12" pan="0" key="45"/>
          <note pos="1224" vol="195" len="12" pan="0" key="45"/>
          <note pos="1236" vol="195" len="12" pan="0" key="45"/>
          <note pos="1248" vol="195" len="12" pan="0" key="45"/>
          <note pos="1260" vol="195" len="12" pan="0" key="45"/>
          <note pos="1272" vol="195" len="12" pan="0" key="45"/>
          <note pos="1284" vol="195" len="12" pan="0" key="45"/>
          <note pos="1296" vol="195" len="12" pan="0" key="45"/>
          <note pos="1308" vol="195" len="12" pan="0" key="45"/>
          <note pos="1320" vol="195" len="12" pan="0" key="45"/>
          <note pos="1332" vol="195" len="12" pan="0" key="45"/>
          <note pos="1332" vol="195" len="36" pan="0" key="0"/>
          <note pos="1344" vol="195" len="48" pan="0" key="54"/>
          <note pos="1344" vol="195" len="48" pan="0" key="47"/>
          <note pos="1368" vol="195" len="36" pan="0" key="1"/>
          <note pos="1392" vol="195" len="12" pan="0" key="47"/>
          <note pos="1404" vol="195" len="12" pan="0" key="47"/>
          <note pos="1416" vol="195" len="12" pan="0" key="47"/>
          <note pos="1428" vol="195" len="12" pan="0" key="47"/>
          <note pos="1440" vol="195" len="12" pan="0" key="48"/>
          <note pos="1452" vol="195" len="12" pan="0" key="48"/>
          <note pos="1464" vol="195" len="12" pan="0" key="48"/>
          <note pos="1464" vol="195" len="36" pan="0" key="1"/>
          <note pos="1476" vol="195" len="12" pan="0" key="48"/>
          <note pos="1488" vol="195" len="12" pan="0" key="48"/>
          <note pos="1500" vol="195" len="12" pan="0" key="48"/>
          <note pos="1512" vol="195" len="12" pan="0" key="48"/>
          <note pos="1524" vol="195" len="12" pan="0" key="48"/>
          <note pos="1524" vol="195" len="36" pan="0" key="0"/>
          <note pos="1536" vol="195" len="48" pan="0" key="44"/>
          <note pos="1536" vol="195" len="48" pan="0" key="37"/>
          <note pos="1560" vol="195" len="36" pan="0" key="1"/>
          <note pos="1584" vol="195" len="12" pan="0" key="37"/>
          <note pos="1596" vol="195" len="12" pan="0" key="37"/>
          <note pos="1608" vol="195" len="12" pan="0" key="37"/>
          <note pos="1620" vol="195" len="12" pan="0" key="37"/>
          <note pos="1632" vol="195" len="12" pan="0" key="37"/>
          <note pos="1644" vol="195" len="12" pan="0" key="37"/>
          <note pos="1656" vol="195" len="12" pan="0" key="37"/>
          <note pos="1668" vol="195" len="12" pan="0" key="37"/>
          <note pos="1680" vol="195" len="12" pan="0" key="37"/>
          <note pos="1692" vol="195" len="12" pan="0" key="37"/>
          <note pos="1704" vol="195" len="12" pan="0" key="37"/>
          <note pos="1716" vol="195" len="12" pan="0" key="37"/>
          <note pos="1716" vol="195" len="36" pan="0" key="0"/>
          <note pos="1728" vol="195" len="48" pan="0" key="54"/>
          <note pos="1728" vol="195" len="48" pan="0" key="47"/>
          <note pos="1752" vol="195" len="36" pan="0" key="1"/>
          <note pos="1776" vol="195" len="12" pan="0" key="47"/>
          <note pos="1788" vol="195" len="12" pan="0" key="47"/>
          <note pos="1800" vol="195" len="12" pan="0" key="47"/>
          <note pos="1812" vol="195" len="12" pan="0" key="47"/>
          <note pos="1824" vol="195" len="12" pan="0" key="47"/>
          <note pos="1836" vol="195" len="12" pan="0" key="47"/>
          <note pos="1848" vol="195" len="12" pan="0" key="47"/>
          <note pos="1860" vol="195" len="12" pan="0" key="47"/>
          <note pos="1872" vol="195" len="12" pan="0" key="47"/>
          <note pos="1884" vol="195" len="12" pan="0" key="47"/>
          <note pos="1896" vol="195" len="12" pan="0" key="47"/>
          <note pos="1908" vol="195" len="12" pan="0" key="47"/>
          <note pos="1908" vol="195" len="36" pan="0" key="0"/>
          <note pos="1920" vol="195" len="48" pan="0" key="54"/>
          <note pos="1920" vol="195" len="48" pan="0" key="46"/>
          <note pos="1944" vol="195" len="36" pan="0" key="1"/>
          <note pos="1968" vol="195" len="12" pan="0" key="46"/>
          <note pos="1980" vol="195" len="12" pan="0" key="46"/>
          <note pos="1992" vol="195" len="12" pan="0" key="46"/>
          <note pos="2004" vol="195" len="12" pan="0" key="46"/>
          <note pos="2016" vol="195" len="12" pan="0" key="46"/>
          <note pos="2028" vol="195" len="12" pan="0" key="46"/>
          <note pos="2040" vol="195" len="12" pan="0" key="46"/>
          <note pos="2052" vol="195" len="12" pan="0" key="46"/>
          <note pos="2064" vol="195" len="12" pan="0" key="46"/>
          <note pos="2076" vol="195" len="12" pan="0" key="46"/>
          <note pos="2088" vol="195" len="12" pan="0" key="46"/>
          <note pos="2100" vol="195" len="12" pan="0" key="46"/>
          <note pos="2100" vol="195" len="36" pan="0" key="0"/>
          <note pos="2112" vol="195" len="48" pan="0" key="49"/>
          <note pos="2112" vol="195" len="48" pan="0" key="42"/>
          <note pos="2136" vol="195" len="36" pan="0" key="1"/>
          <note pos="2160" vol="195" len="12" pan="0" key="42"/>
          <note pos="2172" vol="195" len="12" pan="0" key="42"/>
          <note pos="2184" vol="195" len="12" pan="0" key="42"/>
          <note pos="2196" vol="195" len="12" pan="0" key="42"/>
          <note pos="2196" vol="195" len="36" pan="0" key="0"/>
          <note pos="2208" vol="195" len="48" pan="0" key="47"/>
          <note pos="2208" vol="195" len="48" pan="0" key="40"/>
          <note pos="2232" vol="195" len="36" pan="0" key="1"/>
          <note pos="2256" vol="195" len="12" pan="0" key="40"/>
          <note pos="2268" vol="195" len="12" pan="0" key="40"/>
          <note pos="2280" vol="195" len="12" pan="0" key="40"/>
          <note pos="2292" vol="195" len="12" pan="0" key="40"/>
          <note pos="2292" vol="195" len="36" pan="0" key="0"/>
          <note pos="2304" vol="195" len="48" pan="0" key="45"/>
          <note pos="2304" vol="195" len="48" pan="0" key="38"/>
          <note pos="2328" vol="195" len="36" pan="0" key="1"/>
          <note pos="2352" vol="195" len="12" pan="0" key="38"/>
          <note pos="2364" vol="195" len="12" pan="0" key="38"/>
          <note pos="2376" vol="195" len="12" pan="0" key="38"/>
          <note pos="2388" vol="195" len="12" pan="0" key="38"/>
          <note pos="2400" vol="195" len="12" pan="0" key="38"/>
          <note pos="2412" vol="195" len="12" pan="0" key="38"/>
          <note pos="2424" vol="195" len="12" pan="0" key="38"/>
          <note pos="2436" vol="195" len="12" pan="0" key="38"/>
          <note pos="2448" vol="195" len="12" pan="0" key="38"/>
          <note pos="2460" vol="195" len="12" pan="0" key="38"/>
          <note pos="2472" vol="195" len="12" pan="0" key="38"/>
          <note pos="2484" vol="195" len="12" pan="0" key="38"/>
          <note pos="2484" vol="195" len="36" pan="0" key="0"/>
          <note pos="2496" vol="195" len="48" pan="0" key="52"/>
          <note pos="2496" vol="195" len="48" pan="0" key="45"/>
          <note pos="2520" vol="195" len="36" pan="0" key="1"/>
          <note pos="2544" vol="195" len="12" pan="0" key="45"/>
          <note pos="2556" vol="195" len="12" pan="0" key="45"/>
          <note pos="2568" vol="195" len="12" pan="0" key="45"/>
          <note pos="2580" vol="195" len="12" pan="0" key="45"/>
          <note pos="2592" vol="195" len="12" pan="0" key="45"/>
          <note pos="2604" vol="195" len="12" pan="0" key="45"/>
          <note pos="2616" vol="195" len="12" pan="0" key="45"/>
          <note pos="2628" vol="195" len="12" pan="0" key="45"/>
          <note pos="2640" vol="195" len="12" pan="0" key="45"/>
          <note pos="2652" vol="195" len="12" pan="0" key="45"/>
          <note pos="2664" vol="195" len="12" pan="0" key="45"/>
          <note pos="2676" vol="195" len="12" pan="0" key="45"/>
          <note pos="2676" vol="195" len="36" pan="0" key="0"/>
          <note pos="2688" vol="195" len="48" pan="0" key="54"/>
          <note pos="2688" vol="195" len="48" pan="0" key="47"/>
          <note pos="2712" vol="195" len="36" pan="0" key="1"/>
          <note pos="2736" vol="195" len="12" pan="0" key="47"/>
          <note pos="2748" vol="195" len="12" pan="0" key="47"/>
          <note pos="2760" vol="195" len="12" pan="0" key="47"/>
          <note pos="2772" vol="195" len="12" pan="0" key="47"/>
          <note pos="2784" vol="195" len="12" pan="0" key="47"/>
          <note pos="2796" vol="195" len="12" pan="0" key="47"/>
          <note pos="2808" vol="195" len="12" pan="0" key="47"/>
          <note pos="2820" vol="195" len="12" pan="0" key="47"/>
          <note pos="2832" vol="195" len="12" pan="0" key="47"/>
          <note pos="2844" vol="195" len="12" pan="0" key="47"/>
          <note pos="2856" vol="195" len="12" pan="0" key="47"/>
          <note pos="2868" vol="195" len="12" pan="0" key="47"/>
          <note pos="2868" vol="195" len="36" pan="0" key="0"/>
          <note pos="2880" vol="195" len="24" pan="0" key="42"/>
          <note pos="2880" vol="195" len="24" pan="0" key="35"/>
          <note pos="2904" vol="195" len="24" pan="0" key="42"/>
          <note pos="2904" vol="195" len="24" pan="0" key="35"/>
          <note pos="2976" vol="195" len="24" pan="0" key="42"/>
          <note pos="2976" vol="195" len="24" pan="0" key="35"/>
          <note pos="3000" vol="195" len="24" pan="0" key="42"/>
          <note pos="3000" vol="195" len="24" pan="0" key="35"/>
        </pattern>
        <pattern name="" steps="16" pos="13824" muted="0" type="1">
          <note pos="0" vol="197" len="24" pan="0" key="47"/>
          <note pos="0" vol="197" len="24" pan="0" key="0"/>
          <note pos="12" vol="197" len="24" pan="0" key="1"/>
          <note pos="24" vol="197" len="12" pan="0" key="44"/>
          <note pos="36" vol="197" len="12" pan="0" key="44"/>
          <note pos="48" vol="197" len="12" pan="0" key="44"/>
          <note pos="60" vol="197" len="12" pan="0" key="44"/>
          <note pos="72" vol="197" len="48" pan="0" key="51"/>
          <note pos="72" vol="197" len="48" pan="0" key="44"/>
          <note pos="72" vol="197" len="24" pan="0" key="0"/>
          <note pos="108" vol="197" len="24" pan="0" key="1"/>
          <note pos="120" vol="197" len="24" pan="0" key="44"/>
          <note pos="144" vol="197" len="24" pan="0" key="44"/>
          <note pos="168" vol="197" len="24" pan="0" key="44"/>
        </pattern>
        <pattern name="" steps="16" pos="12672" muted="0" type="1">
          <note pos="0" vol="172" len="36" pan="0" key="44"/>
          <note pos="0" vol="172" len="36" pan="0" key="37"/>
          <note pos="0" vol="172" len="36" pan="0" key="0"/>
        </pattern>
        <pattern name="" steps="16" pos="14016" muted="0" type="1">
          <note pos="0" vol="172" len="12" pan="0" key="45"/>
          <note pos="0" vol="172" len="12" pan="0" key="1"/>
          <note pos="12" vol="172" len="12" pan="0" key="45"/>
          <note pos="24" vol="172" len="12" pan="0" key="45"/>
          <note pos="36" vol="172" len="12" pan="0" key="45"/>
          <note pos="48" vol="172" len="12" pan="0" key="49"/>
          <note pos="60" vol="172" len="12" pan="0" key="49"/>
          <note pos="72" vol="172" len="12" pan="0" key="45"/>
          <note pos="84" vol="172" len="12" pan="0" key="45"/>
          <note pos="96" vol="172" len="12" pan="0" key="47"/>
          <note pos="108" vol="172" len="12" pan="0" key="47"/>
          <note pos="120" vol="172" len="12" pan="0" key="47"/>
          <note pos="132" vol="172" len="12" pan="0" key="47"/>
          <note pos="144" vol="172" len="12" pan="0" key="52"/>
          <note pos="144" vol="172" len="12" pan="0" key="0"/>
          <note pos="156" vol="172" len="12" pan="0" key="51"/>
          <note pos="156" vol="172" len="12" pan="0" key="2"/>
          <note pos="168" vol="172" len="12" pan="0" key="49"/>
          <note pos="168" vol="172" len="12" pan="0" key="1"/>
          <note pos="180" vol="172" len="12" pan="0" key="47"/>
        </pattern>
        <pattern name="" steps="16" pos="14208" muted="0" type="1">
          <note pos="0" vol="200" len="12" pan="0" key="38"/>
          <note pos="0" vol="200" len="24" pan="0" key="1"/>
          <note pos="12" vol="200" len="12" pan="0" key="38"/>
          <note pos="24" vol="200" len="24" pan="0" key="38"/>
          <note pos="48" vol="200" len="12" pan="0" key="38"/>
          <note pos="60" vol="200" len="12" pan="0" key="38"/>
          <note pos="72" vol="200" len="24" pan="0" key="38"/>
          <note pos="96" vol="200" len="12" pan="0" key="38"/>
          <note pos="108" vol="200" len="12" pan="0" key="38"/>
          <note pos="120" vol="200" len="24" pan="0" key="38"/>
          <note pos="144" vol="200" len="12" pan="0" key="38"/>
          <note pos="156" vol="200" len="12" pan="0" key="38"/>
          <note pos="168" vol="200" len="24" pan="0" key="38"/>
          <note pos="192" vol="200" len="12" pan="0" key="38"/>
          <note pos="204" vol="200" len="12" pan="0" key="38"/>
          <note pos="216" vol="200" len="24" pan="0" key="38"/>
          <note pos="240" vol="200" len="12" pan="0" key="38"/>
          <note pos="252" vol="200" len="12" pan="0" key="38"/>
          <note pos="264" vol="200" len="24" pan="0" key="38"/>
          <note pos="288" vol="200" len="12" pan="0" key="38"/>
          <note pos="300" vol="200" len="12" pan="0" key="38"/>
          <note pos="312" vol="200" len="24" pan="0" key="38"/>
          <note pos="336" vol="200" len="12" pan="0" key="38"/>
          <note pos="348" vol="200" len="12" pan="0" key="38"/>
          <note pos="360" vol="200" len="24" pan="0" key="38"/>
          <note pos="384" vol="200" len="12" pan="0" key="37"/>
          <note pos="396" vol="200" len="12" pan="0" key="37"/>
          <note pos="408" vol="200" len="24" pan="0" key="37"/>
          <note pos="432" vol="200" len="12" pan="0" key="37"/>
          <note pos="444" vol="200" len="12" pan="0" key="37"/>
          <note pos="456" vol="200" len="24" pan="0" key="37"/>
          <note pos="480" vol="200" len="12" pan="0" key="37"/>
          <note pos="492" vol="200" len="12" pan="0" key="37"/>
          <note pos="504" vol="200" len="24" pan="0" key="37"/>
          <note pos="528" vol="200" len="12" pan="0" key="37"/>
          <note pos="540" vol="200" len="12" pan="0" key="37"/>
          <note pos="552" vol="200" len="24" pan="0" key="37"/>
          <note pos="576" vol="200" len="12" pan="0" key="35"/>
          <note pos="588" vol="200" len="12" pan="0" key="35"/>
          <note pos="600" vol="200" len="24" pan="0" key="35"/>
          <note pos="624" vol="200" len="12" pan="0" key="35"/>
          <note pos="636" vol="200" len="12" pan="0" key="35"/>
          <note pos="648" vol="200" len="24" pan="0" key="35"/>
          <note pos="672" vol="200" len="12" pan="0" key="35"/>
          <note pos="684" vol="200" len="12" pan="0" key="35"/>
          <note pos="696" vol="200" len="24" pan="0" key="35"/>
          <note pos="720" vol="200" len="12" pan="0" key="35"/>
          <note pos="732" vol="200" len="12" pan="0" key="35"/>
          <note pos="744" vol="200" len="24" pan="0" key="35"/>
        </pattern>
        <pattern name="" steps="16" pos="18816" muted="0" type="1">
          <note pos="0" vol="197" len="24" pan="0" key="44"/>
          <note pos="0" vol="197" len="24" pan="0" key="37"/>
          <note pos="0" vol="197" len="12" pan="0" key="0"/>
          <note pos="12" vol="197" len="12" pan="0" key="1"/>
          <note pos="24" vol="197" len="12" pan="0" key="37"/>
          <note pos="36" vol="197" len="12" pan="0" key="37"/>
          <note pos="48" vol="197" len="24" pan="0" key="44"/>
          <note pos="48" vol="197" len="24" pan="0" key="37"/>
          <note pos="48" vol="197" len="12" pan="0" key="0"/>
          <note pos="72" vol="197" len="24" pan="0" key="44"/>
          <note pos="72" vol="197" len="24" pan="0" key="37"/>
          <note pos="84" vol="197" len="12" pan="0" key="1"/>
          <note pos="96" vol="197" len="12" pan="0" key="37"/>
          <note pos="108" vol="197" len="12" pan="0" key="37"/>
          <note pos="120" vol="197" len="24" pan="0" key="44"/>
          <note pos="120" vol="197" len="24" pan="0" key="37"/>
          <note pos="120" vol="197" len="12" pan="0" key="0"/>
          <note pos="144" vol="197" len="24" pan="0" key="44"/>
          <note pos="144" vol="197" len="24" pan="0" key="37"/>
          <note pos="156" vol="197" len="12" pan="0" key="1"/>
          <note pos="168" vol="197" len="12" pan="0" key="37"/>
          <note pos="180" vol="197" len="12" pan="0" key="37"/>
          <note pos="192" vol="197" len="24" pan="0" key="44"/>
          <note pos="192" vol="197" len="24" pan="0" key="37"/>
          <note pos="192" vol="197" len="12" pan="0" key="0"/>
          <note pos="216" vol="197" len="24" pan="0" key="44"/>
          <note pos="216" vol="197" len="24" pan="0" key="37"/>
          <note pos="228" vol="197" len="12" pan="0" key="1"/>
          <note pos="240" vol="197" len="12" pan="0" key="37"/>
          <note pos="252" vol="197" len="12" pan="0" key="37"/>
          <note pos="264" vol="197" len="24" pan="0" key="44"/>
          <note pos="264" vol="197" len="24" pan="0" key="37"/>
          <note pos="264" vol="197" len="12" pan="0" key="0"/>
          <note pos="288" vol="197" len="24" pan="0" key="44"/>
          <note pos="288" vol="197" len="24" pan="0" key="37"/>
          <note pos="312" vol="197" len="24" pan="0" key="44"/>
          <note pos="312" vol="197" len="24" pan="0" key="37"/>
          <note pos="324" vol="197" len="12" pan="0" key="1"/>
          <note pos="336" vol="197" len="12" pan="0" key="37"/>
          <note pos="348" vol="197" len="12" pan="0" key="37"/>
          <note pos="360" vol="197" len="24" pan="0" key="44"/>
          <note pos="360" vol="197" len="24" pan="0" key="37"/>
          <note pos="360" vol="197" len="12" pan="0" key="0"/>
          <note pos="384" vol="197" len="24" pan="0" key="51"/>
          <note pos="384" vol="197" len="24" pan="0" key="44"/>
          <note pos="396" vol="197" len="12" pan="0" key="1"/>
          <note pos="408" vol="197" len="12" pan="0" key="44"/>
          <note pos="420" vol="197" len="12" pan="0" key="44"/>
          <note pos="432" vol="197" len="24" pan="0" key="51"/>
          <note pos="432" vol="197" len="24" pan="0" key="44"/>
          <note pos="432" vol="197" len="12" pan="0" key="0"/>
          <note pos="456" vol="197" len="24" pan="0" key="51"/>
          <note pos="456" vol="197" len="24" pan="0" key="44"/>
          <note pos="468" vol="197" len="12" pan="0" key="1"/>
          <note pos="480" vol="197" len="12" pan="0" key="44"/>
          <note pos="492" vol="197" len="12" pan="0" key="44"/>
          <note pos="504" vol="197" len="24" pan="0" key="51"/>
          <note pos="504" vol="197" len="24" pan="0" key="44"/>
          <note pos="504" vol="197" len="12" pan="0" key="0"/>
          <note pos="528" vol="197" len="24" pan="0" key="51"/>
          <note pos="528" vol="197" len="24" pan="0" key="44"/>
          <note pos="540" vol="197" len="12" pan="0" key="1"/>
          <note pos="552" vol="197" len="12" pan="0" key="44"/>
          <note pos="564" vol="197" len="12" pan="0" key="44"/>
          <note pos="576" vol="197" len="24" pan="0" key="51"/>
          <note pos="576" vol="197" len="24" pan="0" key="44"/>
          <note pos="576" vol="197" len="12" pan="0" key="0"/>
          <note pos="600" vol="197" len="24" pan="0" key="51"/>
          <note pos="600" vol="197" len="24" pan="0" key="44"/>
          <note pos="612" vol="197" len="12" pan="0" key="1"/>
          <note pos="624" vol="197" len="12" pan="0" key="44"/>
          <note pos="636" vol="197" len="12" pan="0" key="44"/>
          <note pos="648" vol="197" len="24" pan="0" key="51"/>
          <note pos="648" vol="197" len="24" pan="0" key="44"/>
          <note pos="648" vol="197" len="12" pan="0" key="0"/>
          <note pos="672" vol="197" len="24" pan="0" key="51"/>
          <note pos="672" vol="197" len="24" pan="0" key="44"/>
          <note pos="696" vol="197" len="24" pan="0" key="51"/>
          <note pos="696" vol="197" len="24" pan="0" key="44"/>
          <note pos="708" vol="197" len="12" pan="0" key="1"/>
          <note pos="720" vol="197" len="12" pan="0" key="44"/>
          <note pos="732" vol="197" len="12" pan="0" key="44"/>
          <note pos="744" vol="197" len="24" pan="0" key="51"/>
          <note pos="744" vol="197" len="24" pan="0" key="44"/>
          <note pos="744" vol="197" len="12" pan="0" key="0"/>
          <note pos="768" vol="197" len="24" pan="0" key="46"/>
          <note pos="768" vol="197" len="24" pan="0" key="39"/>
          <note pos="780" vol="197" len="12" pan="0" key="1"/>
          <note pos="792" vol="197" len="12" pan="0" key="39"/>
          <note pos="804" vol="197" len="12" pan="0" key="39"/>
          <note pos="816" vol="197" len="24" pan="0" key="46"/>
          <note pos="816" vol="197" len="24" pan="0" key="39"/>
          <note pos="816" vol="197" len="12" pan="0" key="0"/>
          <note pos="840" vol="197" len="24" pan="0" key="46"/>
          <note pos="840" vol="197" len="24" pan="0" key="39"/>
          <note pos="852" vol="197" len="12" pan="0" key="1"/>
          <note pos="864" vol="197" len="12" pan="0" key="39"/>
          <note pos="876" vol="197" len="12" pan="0" key="39"/>
          <note pos="888" vol="197" len="24" pan="0" key="46"/>
          <note pos="888" vol="197" len="24" pan="0" key="39"/>
          <note pos="888" vol="197" len="12" pan="0" key="0"/>
          <note pos="912" vol="197" len="24" pan="0" key="46"/>
          <note pos="912" vol="197" len="24" pan="0" key="39"/>
          <note pos="924" vol="197" len="12" pan="0" key="1"/>
          <note pos="936" vol="197" len="12" pan="0" key="39"/>
          <note pos="948" vol="197" len="12" pan="0" key="39"/>
          <note pos="960" vol="197" len="24" pan="0" key="46"/>
          <note pos="960" vol="197" len="24" pan="0" key="39"/>
          <note pos="960" vol="197" len="12" pan="0" key="0"/>
          <note pos="984" vol="197" len="24" pan="0" key="46"/>
          <note pos="984" vol="197" len="24" pan="0" key="39"/>
          <note pos="996" vol="197" len="12" pan="0" key="1"/>
          <note pos="1008" vol="197" len="12" pan="0" key="39"/>
          <note pos="1020" vol="197" len="12" pan="0" key="39"/>
          <note pos="1032" vol="197" len="24" pan="0" key="46"/>
          <note pos="1032" vol="197" len="24" pan="0" key="39"/>
          <note pos="1032" vol="197" len="12" pan="0" key="0"/>
          <note pos="1056" vol="197" len="24" pan="0" key="46"/>
          <note pos="1056" vol="197" len="24" pan="0" key="39"/>
          <note pos="1080" vol="197" len="24" pan="0" key="46"/>
          <note pos="1080" vol="197" len="24" pan="0" key="39"/>
          <note pos="1092" vol="197" len="12" pan="0" key="1"/>
          <note pos="1104" vol="197" len="12" pan="0" key="39"/>
          <note pos="1116" vol="197" len="12" pan="0" key="39"/>
          <note pos="1128" vol="197" len="24" pan="0" key="46"/>
          <note pos="1128" vol="197" len="24" pan="0" key="39"/>
          <note pos="1128" vol="197" len="12" pan="0" key="0"/>
          <note pos="1152" vol="197" len="24" pan="0" key="45"/>
          <note pos="1152" vol="197" len="24" pan="0" key="38"/>
          <note pos="1164" vol="197" len="12" pan="0" key="1"/>
          <note pos="1176" vol="197" len="12" pan="0" key="38"/>
          <note pos="1188" vol="197" len="12" pan="0" key="38"/>
          <note pos="1200" vol="197" len="24" pan="0" key="45"/>
          <note pos="1200" vol="197" len="24" pan="0" key="38"/>
          <note pos="1200" vol="197" len="12" pan="0" key="0"/>
          <note pos="1224" vol="197" len="24" pan="0" key="45"/>
          <note pos="1224" vol="197" len="24" pan="0" key="38"/>
          <note pos="1236" vol="197" len="12" pan="0" key="1"/>
          <note pos="1248" vol="197" len="12" pan="0" key="38"/>
          <note pos="1260" vol="197" len="12" pan="0" key="38"/>
          <note pos="1272" vol="197" len="24" pan="0" key="45"/>
          <note pos="1272" vol="197" len="24" pan="0" key="38"/>
          <note pos="1272" vol="197" len="12" pan="0" key="0"/>
          <note pos="1296" vol="197" len="24" pan="0" key="45"/>
          <note pos="1296" vol="197" len="24" pan="0" key="38"/>
          <note pos="1308" vol="197" len="12" pan="0" key="1"/>
          <note pos="1320" vol="197" len="12" pan="0" key="38"/>
          <note pos="1332" vol="197" len="12" pan="0" key="38"/>
          <note pos="1344" vol="197" len="48" pan="0" key="51"/>
          <note pos="1344" vol="197" len="48" pan="0" key="44"/>
          <note pos="1344" vol="197" len="12" pan="0" key="0"/>
          <note pos="1392" vol="197" len="48" pan="0" key="46"/>
          <note pos="1392" vol="197" len="48" pan="0" key="39"/>
          <note pos="1440" vol="197" len="48" pan="0" key="35"/>
          <note pos="1488" vol="197" len="48" pan="0" key="32"/>
          <note pos="1536" vol="197" len="24" pan="0" key="44"/>
          <note pos="1536" vol="197" len="24" pan="0" key="37"/>
          <note pos="1548" vol="197" len="12" pan="0" key="1"/>
          <note pos="1560" vol="197" len="12" pan="0" key="37"/>
          <note pos="1572" vol="197" len="12" pan="0" key="37"/>
          <note pos="1584" vol="197" len="24" pan="0" key="44"/>
          <note pos="1584" vol="197" len="24" pan="0" key="37"/>
          <note pos="1584" vol="197" len="12" pan="0" key="0"/>
          <note pos="1608" vol="197" len="24" pan="0" key="44"/>
          <note pos="1608" vol="197" len="24" pan="0" key="37"/>
          <note pos="1620" vol="197" len="12" pan="0" key="1"/>
          <note pos="1632" vol="197" len="12" pan="0" key="37"/>
          <note pos="1644" vol="197" len="12" pan="0" key="37"/>
          <note pos="1656" vol="197" len="24" pan="0" key="44"/>
          <note pos="1656" vol="197" len="24" pan="0" key="37"/>
          <note pos="1656" vol="197" len="12" pan="0" key="0"/>
          <note pos="1680" vol="197" len="24" pan="0" key="44"/>
          <note pos="1680" vol="197" len="24" pan="0" key="37"/>
          <note pos="1692" vol="197" len="12" pan="0" key="1"/>
          <note pos="1704" vol="197" len="12" pan="0" key="37"/>
          <note pos="1716" vol="197" len="12" pan="0" key="37"/>
          <note pos="1728" vol="197" len="24" pan="0" key="44"/>
          <note pos="1728" vol="197" len="24" pan="0" key="37"/>
          <note pos="1728" vol="197" len="12" pan="0" key="0"/>
          <note pos="1752" vol="197" len="24" pan="0" key="44"/>
          <note pos="1752" vol="197" len="24" pan="0" key="37"/>
          <note pos="1764" vol="197" len="12" pan="0" key="1"/>
          <note pos="1776" vol="197" len="12" pan="0" key="37"/>
          <note pos="1788" vol="197" len="12" pan="0" key="37"/>
          <note pos="1800" vol="197" len="24" pan="0" key="44"/>
          <note pos="1800" vol="197" len="24" pan="0" key="37"/>
          <note pos="1800" vol="197" len="12" pan="0" key="0"/>
          <note pos="1824" vol="197" len="24" pan="0" key="44"/>
          <note pos="1824" vol="197" len="24" pan="0" key="37"/>
          <note pos="1848" vol="197" len="24" pan="0" key="44"/>
          <note pos="1848" vol="197" len="24" pan="0" key="37"/>
          <note pos="1860" vol="197" len="12" pan="0" key="1"/>
          <note pos="1872" vol="197" len="12" pan="0" key="37"/>
          <note pos="1884" vol="197" len="12" pan="0" key="37"/>
          <note pos="1896" vol="197" len="24" pan="0" key="44"/>
          <note pos="1896" vol="197" len="24" pan="0" key="37"/>
          <note pos="1896" vol="197" len="12" pan="0" key="0"/>
          <note pos="1920" vol="197" len="24" pan="0" key="45"/>
          <note pos="1920" vol="197" len="24" pan="0" key="38"/>
          <note pos="1932" vol="197" len="12" pan="0" key="1"/>
          <note pos="1944" vol="197" len="12" pan="0" key="38"/>
          <note pos="1956" vol="197" len="12" pan="0" key="38"/>
          <note pos="1968" vol="197" len="24" pan="0" key="45"/>
          <note pos="1968" vol="197" len="24" pan="0" key="38"/>
          <note pos="1968" vol="197" len="12" pan="0" key="0"/>
          <note pos="1992" vol="197" len="24" pan="0" key="45"/>
          <note pos="1992" vol="197" len="24" pan="0" key="38"/>
          <note pos="2004" vol="197" len="12" pan="0" key="1"/>
          <note pos="2016" vol="197" len="12" pan="0" key="38"/>
          <note pos="2028" vol="197" len="12" pan="0" key="38"/>
          <note pos="2040" vol="197" len="24" pan="0" key="45"/>
          <note pos="2040" vol="197" len="24" pan="0" key="38"/>
          <note pos="2040" vol="197" len="12" pan="0" key="0"/>
          <note pos="2064" vol="197" len="24" pan="0" key="45"/>
          <note pos="2064" vol="197" len="24" pan="0" key="38"/>
          <note pos="2076" vol="197" len="12" pan="0" key="1"/>
          <note pos="2088" vol="197" len="12" pan="0" key="38"/>
          <note pos="2100" vol="197" len="12" pan="0" key="38"/>
          <note pos="2112" vol="197" len="24" pan="0" key="45"/>
          <note pos="2112" vol="197" len="24" pan="0" key="38"/>
          <note pos="2112" vol="197" len="12" pan="0" key="0"/>
          <note pos="2136" vol="197" len="24" pan="0" key="45"/>
          <note pos="2136" vol="197" len="24" pan="0" key="38"/>
          <note pos="2148" vol="197" len="12" pan="0" key="1"/>
          <note pos="2160" vol="197" len="12" pan="0" key="38"/>
          <note pos="2172" vol="197" len="12" pan="0" key="38"/>
          <note pos="2184" vol="197" len="24" pan="0" key="45"/>
          <note pos="2184" vol="197" len="24" pan="0" key="38"/>
          <note pos="2184" vol="197" len="12" pan="0" key="0"/>
          <note pos="2208" vol="197" len="24" pan="0" key="45"/>
          <note pos="2208" vol="197" len="24" pan="0" key="38"/>
          <note pos="2232" vol="197" len="24" pan="0" key="45"/>
          <note pos="2232" vol="197" len="24" pan="0" key="38"/>
          <note pos="2244" vol="197" len="12" pan="0" key="1"/>
          <note pos="2256" vol="197" len="12" pan="0" key="38"/>
          <note pos="2268" vol="197" len="12" pan="0" key="38"/>
          <note pos="2280" vol="197" len="24" pan="0" key="45"/>
          <note pos="2280" vol="197" len="24" pan="0" key="38"/>
          <note pos="2280" vol="197" len="12" pan="0" key="0"/>
          <note pos="2304" vol="197" len="24" pan="0" key="46"/>
          <note pos="2304" vol="197" len="24" pan="0" key="39"/>
          <note pos="2316" vol="197" len="12" pan="0" key="1"/>
          <note pos="2328" vol="197" len="12" pan="0" key="39"/>
          <note pos="2340" vol="197" len="12" pan="0" key="39"/>
          <note pos="2352" vol="197" len="24" pan="0" key="46"/>
          <note pos="2352" vol="197" len="24" pan="0" key="39"/>
          <note pos="2352" vol="197" len="12" pan="0" key="0"/>
          <note pos="2376" vol="197" len="24" pan="0" key="46"/>
          <note pos="2376" vol="197" len="24" pan="0" key="39"/>
          <note pos="2388" vol="197" len="12" pan="0" key="1"/>
          <note pos="2400" vol="197" len="12" pan="0" key="39"/>
          <note pos="2412" vol="197" len="12" pan="0" key="39"/>
          <note pos="2424" vol="197" len="24" pan="0" key="46"/>
          <note pos="2424" vol="197" len="24" pan="0" key="39"/>
          <note pos="2424" vol="197" len="12" pan="0" key="0"/>
          <note pos="2448" vol="197" len="24" pan="0" key="46"/>
          <note pos="2448" vol="197" len="24" pan="0" key="39"/>
          <note pos="2460" vol="197" len="12" pan="0" key="1"/>
          <note pos="2472" vol="197" len="12" pan="0" key="39"/>
          <note pos="2484" vol="197" len="12" pan="0" key="39"/>
          <note pos="2496" vol="197" len="24" pan="0" key="46"/>
          <note pos="2496" vol="197" len="24" pan="0" key="39"/>
          <note pos="2496" vol="197" len="12" pan="0" key="0"/>
          <note pos="2520" vol="197" len="24" pan="0" key="46"/>
          <note pos="2520" vol="197" len="24" pan="0" key="39"/>
          <note pos="2532" vol="197" len="12" pan="0" key="1"/>
          <note pos="2544" vol="197" len="12" pan="0" key="39"/>
          <note pos="2556" vol="197" len="12" pan="0" key="39"/>
          <note pos="2568" vol="197" len="24" pan="0" key="46"/>
          <note pos="2568" vol="197" len="24" pan="0" key="39"/>
          <note pos="2568" vol="197" len="12" pan="0" key="0"/>
          <note pos="2592" vol="197" len="24" pan="0" key="46"/>
          <note pos="2592" vol="197" len="24" pan="0" key="39"/>
          <note pos="2616" vol="197" len="24" pan="0" key="46"/>
          <note pos="2616" vol="197" len="24" pan="0" key="39"/>
          <note pos="2628" vol="197" len="12" pan="0" key="1"/>
          <note pos="2640" vol="197" len="12" pan="0" key="39"/>
          <note pos="2652" vol="197" len="12" pan="0" key="39"/>
          <note pos="2664" vol="197" len="24" pan="0" key="46"/>
          <note pos="2664" vol="197" len="24" pan="0" key="39"/>
          <note pos="2664" vol="197" len="12" pan="0" key="0"/>
          <note pos="2688" vol="197" len="24" pan="0" key="51"/>
          <note pos="2688" vol="197" len="24" pan="0" key="44"/>
          <note pos="2700" vol="197" len="12" pan="0" key="1"/>
          <note pos="2712" vol="197" len="12" pan="0" key="44"/>
          <note pos="2724" vol="197" len="12" pan="0" key="44"/>
          <note pos="2736" vol="197" len="24" pan="0" key="51"/>
          <note pos="2736" vol="197" len="24" pan="0" key="44"/>
          <note pos="2736" vol="197" len="12" pan="0" key="0"/>
          <note pos="2760" vol="197" len="24" pan="0" key="51"/>
          <note pos="2760" vol="197" len="24" pan="0" key="44"/>
          <note pos="2772" vol="197" len="12" pan="0" key="1"/>
          <note pos="2784" vol="197" len="12" pan="0" key="44"/>
          <note pos="2796" vol="197" len="12" pan="0" key="44"/>
          <note pos="2808" vol="197" len="24" pan="0" key="51"/>
          <note pos="2808" vol="197" len="24" pan="0" key="44"/>
          <note pos="2808" vol="197" len="12" pan="0" key="0"/>
          <note pos="2832" vol="197" len="24" pan="0" key="51"/>
          <note pos="2832" vol="197" len="24" pan="0" key="44"/>
          <note pos="2844" vol="197" len="12" pan="0" key="1"/>
          <note pos="2856" vol="197" len="12" pan="0" key="44"/>
          <note pos="2868" vol="197" len="12" pan="0" key="44"/>
          <note pos="2880" vol="197" len="48" pan="0" key="51"/>
          <note pos="2880" vol="197" len="48" pan="0" key="44"/>
          <note pos="2880" vol="197" len="12" pan="0" key="0"/>
          <note pos="2928" vol="197" len="48" pan="0" key="51"/>
          <note pos="2928" vol="197" len="48" pan="0" key="44"/>
          <note pos="2976" vol="197" len="48" pan="0" key="51"/>
          <note pos="2976" vol="197" len="48" pan="0" key="44"/>
          <note pos="3024" vol="197" len="48" pan="0" key="51"/>
          <note pos="3024" vol="197" len="48" pan="0" key="44"/>
        </pattern>
        <pattern name="" steps="16" pos="14976" muted="0" type="1">
          <note pos="0" vol="197" len="24" pan="0" key="40"/>
          <note pos="0" vol="197" len="12" pan="0" key="0"/>
          <note pos="24" vol="197" len="24" pan="0" key="42"/>
          <note pos="36" vol="197" len="12" pan="0" key="1"/>
          <note pos="48" vol="197" len="12" pan="0" key="42"/>
          <note pos="60" vol="197" len="12" pan="0" key="42"/>
          <note pos="72" vol="197" len="24" pan="0" key="47"/>
          <note pos="72" vol="197" len="24" pan="0" key="0"/>
          <note pos="96" vol="197" len="24" pan="0" key="49"/>
          <note pos="120" vol="197" len="24" pan="0" key="42"/>
          <note pos="144" vol="197" len="24" pan="0" key="40"/>
          <note pos="168" vol="197" len="24" pan="0" key="42"/>
        </pattern>
        <pattern name="" steps="16" pos="15360" muted="0" type="1">
          <note pos="0" vol="78" len="24" pan="0" key="46"/>
          <note pos="0" vol="78" len="24" pan="0" key="39"/>
          <note pos="0" vol="78" len="12" pan="0" key="0"/>
          <note pos="12" vol="78" len="12" pan="0" key="1"/>
          <note pos="24" vol="78" len="12" pan="0" key="39"/>
          <note pos="36" vol="78" len="12" pan="0" key="39"/>
          <note pos="48" vol="78" len="12" pan="0" key="39"/>
          <note pos="60" vol="78" len="12" pan="0" key="39"/>
          <note pos="72" vol="78" len="12" pan="0" key="39"/>
          <note pos="84" vol="78" len="12" pan="0" key="39"/>
          <note pos="96" vol="78" len="12" pan="0" key="39"/>
          <note pos="108" vol="78" len="12" pan="0" key="39"/>
          <note pos="120" vol="78" len="12" pan="0" key="39"/>
          <note pos="132" vol="78" len="12" pan="0" key="39"/>
          <note pos="144" vol="78" len="12" pan="0" key="39"/>
          <note pos="156" vol="78" len="12" pan="0" key="39"/>
          <note pos="168" vol="78" len="12" pan="0" key="39"/>
          <note pos="180" vol="78" len="12" pan="0" key="39"/>
          <note pos="192" vol="78" len="96" pan="0" key="52"/>
          <note pos="192" vol="78" len="96" pan="0" key="45"/>
          <note pos="192" vol="78" len="12" pan="0" key="0"/>
          <note pos="288" vol="78" len="96" pan="0" key="51"/>
          <note pos="288" vol="78" len="96" pan="0" key="44"/>
        </pattern>
        <pattern name="" steps="16" pos="15168" muted="0" type="1">
          <note pos="0" vol="197" len="24" pan="0" key="40"/>
          <note pos="0" vol="197" len="12" pan="0" key="0"/>
          <note pos="24" vol="197" len="24" pan="0" key="42"/>
          <note pos="36" vol="197" len="12" pan="0" key="1"/>
          <note pos="48" vol="197" len="12" pan="0" key="42"/>
          <note pos="60" vol="197" len="12" pan="0" key="42"/>
          <note pos="72" vol="197" len="24" pan="0" key="47"/>
          <note pos="72" vol="197" len="24" pan="0" key="0"/>
          <note pos="96" vol="197" len="24" pan="0" key="49"/>
          <note pos="120" vol="197" len="24" pan="0" key="42"/>
          <note pos="144" vol="197" len="24" pan="0" key="40"/>
          <note pos="168" vol="197" len="24" pan="0" key="42"/>
        </pattern>
        <pattern name="" steps="16" pos="24960" muted="0" type="1">
          <note pos="0" vol="195" len="192" pan="0" key="52"/>
          <note pos="0" vol="195" len="192" pan="0" key="45"/>
          <note pos="0" vol="195" len="384" pan="0" key="0"/>
          <note pos="192" vol="195" len="192" pan="0" key="54"/>
          <note pos="192" vol="195" len="192" pan="0" key="47"/>
          <note pos="384" vol="195" len="384" pan="0" key="44"/>
          <note pos="384" vol="195" len="384" pan="0" key="37"/>
          <note pos="768" vol="195" len="192" pan="0" key="42"/>
          <note pos="768" vol="195" len="192" pan="0" key="35"/>
          <note pos="960" vol="195" len="192" pan="0" key="42"/>
          <note pos="960" vol="195" len="192" pan="0" key="35"/>
          <note pos="1152" vol="195" len="384" pan="0" key="49"/>
          <note pos="1152" vol="195" len="384" pan="0" key="42"/>
          <note pos="1536" vol="195" len="192" pan="0" key="52"/>
          <note pos="1536" vol="195" len="192" pan="0" key="45"/>
          <note pos="1728" vol="195" len="192" pan="0" key="54"/>
          <note pos="1728" vol="195" len="192" pan="0" key="47"/>
          <note pos="1920" vol="195" len="192" pan="0" key="44"/>
          <note pos="1920" vol="195" len="192" pan="0" key="37"/>
          <note pos="2112" vol="195" len="192" pan="0" key="44"/>
          <note pos="2112" vol="195" len="192" pan="0" key="37"/>
        </pattern>
        <pattern name="" steps="16" pos="28032" muted="0" type="1">
          <note pos="0" vol="195" len="384" pan="0" key="52"/>
          <note pos="0" vol="195" len="384" pan="0" key="45"/>
          <note pos="0" vol="195" len="384" pan="0" key="0"/>
          <note pos="384" vol="195" len="384" pan="0" key="42"/>
          <note pos="384" vol="195" len="384" pan="0" key="35"/>
        </pattern>
        <pattern name="" steps="16" pos="27264" muted="0" type="1">
          <note pos="0" vol="200" len="192" pan="0" key="49"/>
          <note pos="0" vol="200" len="192" pan="0" key="42"/>
          <note pos="0" vol="200" len="192" pan="0" key="0"/>
          <note pos="192" vol="200" len="192" pan="0" key="49"/>
          <note pos="192" vol="200" len="192" pan="0" key="42"/>
          <note pos="384" vol="200" len="192" pan="0" key="51"/>
          <note pos="384" vol="200" len="192" pan="0" key="44"/>
          <note pos="576" vol="200" len="192" pan="0" key="51"/>
          <note pos="576" vol="200" len="192" pan="0" key="44"/>
        </pattern>
        <pattern name="" steps="16" pos="28800" muted="0" type="1">
          <note pos="0" vol="200" len="48" pan="0" key="49"/>
          <note pos="0" vol="200" len="24" pan="0" key="0"/>
          <note pos="48" vol="200" len="24" pan="0" key="37"/>
          <note pos="60" vol="200" len="24" pan="0" key="1"/>
          <note pos="72" vol="200" len="12" pan="0" key="37"/>
          <note pos="84" vol="200" len="12" pan="0" key="37"/>
          <note pos="96" vol="200" len="12" pan="0" key="37"/>
          <note pos="108" vol="200" len="12" pan="0" key="37"/>
          <note pos="120" vol="200" len="24" pan="0" key="37"/>
          <note pos="120" vol="200" len="24" pan="0" key="0"/>
          <note pos="132" vol="200" len="24" pan="0" key="1"/>
          <note pos="144" vol="200" len="12" pan="0" key="37"/>
          <note pos="156" vol="200" len="12" pan="0" key="37"/>
          <note pos="168" vol="200" len="12" pan="0" key="37"/>
          <note pos="180" vol="200" len="12" pan="0" key="37"/>
          <note pos="192" vol="200" len="24" pan="0" key="37"/>
          <note pos="192" vol="200" len="24" pan="0" key="0"/>
          <note pos="204" vol="200" len="24" pan="0" key="1"/>
          <note pos="216" vol="200" len="12" pan="0" key="37"/>
          <note pos="228" vol="200" len="12" pan="0" key="37"/>
          <note pos="240" vol="200" len="12" pan="0" key="37"/>
          <note pos="252" vol="200" len="12" pan="0" key="37"/>
          <note pos="264" vol="200" len="24" pan="0" key="37"/>
          <note pos="264" vol="200" len="24" pan="0" key="0"/>
          <note pos="276" vol="200" len="24" pan="0" key="1"/>
          <note pos="288" vol="200" len="12" pan="0" key="37"/>
          <note pos="300" vol="200" len="12" pan="0" key="37"/>
          <note pos="312" vol="200" len="24" pan="0" key="37"/>
          <note pos="312" vol="200" len="24" pan="0" key="0"/>
          <note pos="324" vol="200" len="24" pan="0" key="1"/>
          <note pos="336" vol="200" len="12" pan="0" key="37"/>
          <note pos="348" vol="200" len="12" pan="0" key="37"/>
          <note pos="360" vol="200" len="12" pan="0" key="37"/>
          <note pos="372" vol="200" len="12" pan="0" key="37"/>
          <note pos="384" vol="200" len="48" pan="0" key="37"/>
          <note pos="384" vol="200" len="24" pan="0" key="0"/>
          <note pos="432" vol="200" len="24" pan="0" key="37"/>
          <note pos="444" vol="200" len="24" pan="0" key="1"/>
          <note pos="456" vol="200" len="12" pan="0" key="37"/>
          <note pos="468" vol="200" len="12" pan="0" key="37"/>
          <note pos="480" vol="200" len="12" pan="0" key="37"/>
          <note pos="492" vol="200" len="12" pan="0" key="37"/>
          <note pos="504" vol="200" len="24" pan="0" key="37"/>
          <note pos="504" vol="200" len="24" pan="0" key="0"/>
          <note pos="516" vol="200" len="24" pan="0" key="1"/>
          <note pos="528" vol="200" len="12" pan="0" key="37"/>
          <note pos="540" vol="200" len="12" pan="0" key="37"/>
          <note pos="552" vol="200" len="12" pan="0" key="37"/>
          <note pos="564" vol="200" len="12" pan="0" key="37"/>
          <note pos="576" vol="200" len="24" pan="0" key="37"/>
          <note pos="576" vol="200" len="24" pan="0" key="0"/>
          <note pos="588" vol="200" len="24" pan="0" key="1"/>
          <note pos="600" vol="200" len="12" pan="0" key="37"/>
          <note pos="612" vol="200" len="12" pan="0" key="37"/>
          <note pos="624" vol="200" len="12" pan="0" key="37"/>
          <note pos="636" vol="200" len="12" pan="0" key="37"/>
          <note pos="648" vol="200" len="24" pan="0" key="37"/>
          <note pos="648" vol="200" len="24" pan="0" key="0"/>
          <note pos="660" vol="200" len="24" pan="0" key="1"/>
          <note pos="672" vol="200" len="12" pan="0" key="37"/>
          <note pos="684" vol="200" len="12" pan="0" key="37"/>
          <note pos="696" vol="200" len="24" pan="0" key="40"/>
          <note pos="720" vol="200" len="24" pan="0" key="42"/>
          <note pos="744" vol="200" len="24" pan="0" key="44"/>
        </pattern>
        <pattern name="" steps="16" pos="29568" muted="0" type="1">
          <note pos="0" vol="200" len="48" pan="0" key="49"/>
          <note pos="0" vol="200" len="24" pan="0" key="0"/>
          <note pos="48" vol="200" len="24" pan="0" key="37"/>
          <note pos="60" vol="200" len="24" pan="0" key="1"/>
          <note pos="72" vol="200" len="12" pan="0" key="37"/>
          <note pos="84" vol="200" len="12" pan="0" key="37"/>
          <note pos="96" vol="200" len="12" pan="0" key="37"/>
          <note pos="108" vol="200" len="12" pan="0" key="37"/>
          <note pos="120" vol="200" len="24" pan="0" key="37"/>
          <note pos="120" vol="200" len="24" pan="0" key="0"/>
          <note pos="132" vol="200" len="24" pan="0" key="1"/>
          <note pos="144" vol="200" len="12" pan="0" key="37"/>
          <note pos="156" vol="200" len="12" pan="0" key="37"/>
          <note pos="168" vol="200" len="12" pan="0" key="37"/>
          <note pos="180" vol="200" len="12" pan="0" key="37"/>
          <note pos="192" vol="200" len="24" pan="0" key="37"/>
          <note pos="192" vol="200" len="24" pan="0" key="0"/>
          <note pos="204" vol="200" len="24" pan="0" key="1"/>
          <note pos="216" vol="200" len="12" pan="0" key="37"/>
          <note pos="228" vol="200" len="12" pan="0" key="37"/>
          <note pos="240" vol="200" len="12" pan="0" key="37"/>
          <note pos="252" vol="200" len="12" pan="0" key="37"/>
          <note pos="264" vol="200" len="24" pan="0" key="37"/>
          <note pos="264" vol="200" len="24" pan="0" key="0"/>
          <note pos="276" vol="200" len="24" pan="0" key="1"/>
          <note pos="288" vol="200" len="12" pan="0" key="37"/>
          <note pos="300" vol="200" len="12" pan="0" key="37"/>
          <note pos="312" vol="200" len="24" pan="0" key="37"/>
          <note pos="312" vol="200" len="24" pan="0" key="0"/>
          <note pos="324" vol="200" len="24" pan="0" key="1"/>
          <note pos="336" vol="200" len="12" pan="0" key="37"/>
          <note pos="348" vol="200" len="12" pan="0" key="37"/>
          <note pos="360" vol="200" len="12" pan="0" key="37"/>
          <note pos="372" vol="200" len="12" pan="0" key="37"/>
          <note pos="384" vol="200" len="48" pan="0" key="37"/>
          <note pos="384" vol="200" len="24" pan="0" key="0"/>
          <note pos="432" vol="200" len="24" pan="0" key="37"/>
          <note pos="444" vol="200" len="24" pan="0" key="1"/>
          <note pos="456" vol="200" len="12" pan="0" key="37"/>
          <note pos="468" vol="200" len="12" pan="0" key="37"/>
          <note pos="480" vol="200" len="12" pan="0" key="37"/>
          <note pos="492" vol="200" len="12" pan="0" key="37"/>
          <note pos="504" vol="200" len="24" pan="0" key="37"/>
          <note pos="504" vol="200" len="24" pan="0" key="0"/>
          <note pos="516" vol="200" len="24" pan="0" key="1"/>
          <note pos="528" vol="200" len="12" pan="0" key="37"/>
          <note pos="540" vol="200" len="12" pan="0" key="37"/>
          <note pos="552" vol="200" len="12" pan="0" key="37"/>
          <note pos="564" vol="200" len="12" pan="0" key="37"/>
          <note pos="576" vol="200" len="24" pan="0" key="37"/>
          <note pos="576" vol="200" len="24" pan="0" key="0"/>
          <note pos="588" vol="200" len="24" pan="0" key="1"/>
          <note pos="600" vol="200" len="12" pan="0" key="37"/>
          <note pos="612" vol="200" len="12" pan="0" key="37"/>
          <note pos="624" vol="200" len="12" pan="0" key="37"/>
          <note pos="636" vol="200" len="12" pan="0" key="37"/>
          <note pos="648" vol="200" len="24" pan="0" key="37"/>
          <note pos="648" vol="200" len="24" pan="0" key="0"/>
          <note pos="660" vol="200" len="24" pan="0" key="1"/>
          <note pos="672" vol="200" len="12" pan="0" key="37"/>
          <note pos="684" vol="200" len="12" pan="0" key="37"/>
          <note pos="696" vol="200" len="24" pan="0" key="40"/>
          <note pos="720" vol="200" len="24" pan="0" key="42"/>
          <note pos="744" vol="200" len="24" pan="0" key="44"/>
        </pattern>
        <pattern name="" steps="16" pos="30336" muted="0" type="1">
          <note pos="0" vol="200" len="48" pan="0" key="50"/>
          <note pos="0" vol="200" len="24" pan="0" key="0"/>
          <note pos="48" vol="200" len="24" pan="0" key="38"/>
          <note pos="60" vol="200" len="24" pan="0" key="1"/>
          <note pos="72" vol="200" len="12" pan="0" key="38"/>
          <note pos="84" vol="200" len="12" pan="0" key="38"/>
          <note pos="96" vol="200" len="12" pan="0" key="38"/>
          <note pos="108" vol="200" len="12" pan="0" key="38"/>
          <note pos="120" vol="200" len="24" pan="0" key="38"/>
          <note pos="120" vol="200" len="24" pan="0" key="0"/>
          <note pos="132" vol="200" len="24" pan="0" key="1"/>
          <note pos="144" vol="200" len="12" pan="0" key="38"/>
          <note pos="156" vol="200" len="12" pan="0" key="38"/>
          <note pos="168" vol="200" len="12" pan="0" key="38"/>
          <note pos="180" vol="200" len="12" pan="0" key="38"/>
          <note pos="192" vol="200" len="24" pan="0" key="38"/>
          <note pos="192" vol="200" len="24" pan="0" key="0"/>
          <note pos="204" vol="200" len="24" pan="0" key="1"/>
          <note pos="216" vol="200" len="12" pan="0" key="38"/>
          <note pos="228" vol="200" len="12" pan="0" key="38"/>
          <note pos="240" vol="200" len="12" pan="0" key="38"/>
          <note pos="252" vol="200" len="12" pan="0" key="38"/>
          <note pos="264" vol="200" len="24" pan="0" key="38"/>
          <note pos="264" vol="200" len="24" pan="0" key="0"/>
          <note pos="276" vol="200" len="24" pan="0" key="1"/>
          <note pos="288" vol="200" len="12" pan="0" key="38"/>
          <note pos="300" vol="200" len="12" pan="0" key="38"/>
          <note pos="312" vol="200" len="24" pan="0" key="38"/>
          <note pos="312" vol="200" len="24" pan="0" key="0"/>
          <note pos="324" vol="200" len="24" pan="0" key="1"/>
          <note pos="336" vol="200" len="12" pan="0" key="38"/>
          <note pos="348" vol="200" len="12" pan="0" key="38"/>
          <note pos="360" vol="200" len="12" pan="0" key="38"/>
          <note pos="372" vol="200" len="12" pan="0" key="38"/>
          <note pos="384" vol="200" len="48" pan="0" key="38"/>
          <note pos="384" vol="200" len="24" pan="0" key="0"/>
          <note pos="432" vol="200" len="24" pan="0" key="38"/>
          <note pos="444" vol="200" len="24" pan="0" key="1"/>
          <note pos="456" vol="200" len="12" pan="0" key="38"/>
          <note pos="468" vol="200" len="12" pan="0" key="38"/>
          <note pos="480" vol="200" len="12" pan="0" key="38"/>
          <note pos="492" vol="200" len="12" pan="0" key="38"/>
          <note pos="504" vol="200" len="24" pan="0" key="38"/>
          <note pos="504" vol="200" len="24" pan="0" key="0"/>
          <note pos="516" vol="200" len="24" pan="0" key="1"/>
          <note pos="528" vol="200" len="12" pan="0" key="38"/>
          <note pos="540" vol="200" len="12" pan="0" key="38"/>
          <note pos="552" vol="200" len="12" pan="0" key="38"/>
          <note pos="564" vol="200" len="12" pan="0" key="38"/>
          <note pos="576" vol="200" len="24" pan="0" key="38"/>
          <note pos="576" vol="200" len="24" pan="0" key="0"/>
          <note pos="588" vol="200" len="24" pan="0" key="1"/>
          <note pos="600" vol="200" len="12" pan="0" key="38"/>
          <note pos="612" vol="200" len="12" pan="0" key="38"/>
          <note pos="624" vol="200" len="12" pan="0" key="38"/>
          <note pos="636" vol="200" len="12" pan="0" key="38"/>
          <note pos="648" vol="200" len="24" pan="0" key="38"/>
          <note pos="648" vol="200" len="24" pan="0" key="0"/>
          <note pos="660" vol="200" len="24" pan="0" key="1"/>
          <note pos="672" vol="200" len="12" pan="0" key="38"/>
          <note pos="684" vol="200" len="12" pan="0" key="38"/>
          <note pos="696" vol="200" len="24" pan="0" key="45"/>
          <note pos="720" vol="200" len="24" pan="0" key="44"/>
          <note pos="744" vol="200" len="24" pan="0" key="40"/>
        </pattern>
        <pattern name="" steps="16" pos="31104" muted="0" type="1">
          <note pos="0" vol="200" len="48" pan="0" key="49"/>
          <note pos="0" vol="200" len="24" pan="0" key="0"/>
          <note pos="48" vol="200" len="24" pan="0" key="37"/>
          <note pos="60" vol="200" len="24" pan="0" key="1"/>
          <note pos="72" vol="200" len="12" pan="0" key="37"/>
          <note pos="84" vol="200" len="12" pan="0" key="37"/>
          <note pos="96" vol="200" len="12" pan="0" key="37"/>
          <note pos="108" vol="200" len="12" pan="0" key="37"/>
          <note pos="120" vol="200" len="24" pan="0" key="37"/>
          <note pos="120" vol="200" len="24" pan="0" key="0"/>
          <note pos="132" vol="200" len="24" pan="0" key="1"/>
          <note pos="144" vol="200" len="12" pan="0" key="37"/>
          <note pos="156" vol="200" len="12" pan="0" key="37"/>
          <note pos="168" vol="200" len="12" pan="0" key="37"/>
          <note pos="180" vol="200" len="12" pan="0" key="37"/>
          <note pos="192" vol="200" len="24" pan="0" key="37"/>
          <note pos="192" vol="200" len="24" pan="0" key="0"/>
          <note pos="204" vol="200" len="24" pan="0" key="1"/>
          <note pos="216" vol="200" len="12" pan="0" key="37"/>
          <note pos="228" vol="200" len="12" pan="0" key="37"/>
          <note pos="240" vol="200" len="12" pan="0" key="37"/>
          <note pos="252" vol="200" len="12" pan="0" key="37"/>
          <note pos="264" vol="200" len="24" pan="0" key="37"/>
          <note pos="264" vol="200" len="24" pan="0" key="0"/>
          <note pos="276" vol="200" len="24" pan="0" key="1"/>
          <note pos="288" vol="200" len="12" pan="0" key="37"/>
          <note pos="300" vol="200" len="12" pan="0" key="37"/>
          <note pos="312" vol="200" len="24" pan="0" key="37"/>
          <note pos="312" vol="200" len="24" pan="0" key="0"/>
          <note pos="324" vol="200" len="24" pan="0" key="1"/>
          <note pos="336" vol="200" len="12" pan="0" key="37"/>
          <note pos="348" vol="200" len="12" pan="0" key="37"/>
          <note pos="360" vol="200" len="12" pan="0" key="37"/>
          <note pos="372" vol="200" len="12" pan="0" key="37"/>
          <note pos="384" vol="200" len="48" pan="0" key="35"/>
          <note pos="384" vol="200" len="24" pan="0" key="0"/>
          <note pos="432" vol="200" len="24" pan="0" key="35"/>
          <note pos="444" vol="200" len="24" pan="0" key="1"/>
          <note pos="456" vol="200" len="12" pan="0" key="35"/>
          <note pos="468" vol="200" len="12" pan="0" key="35"/>
          <note pos="480" vol="200" len="12" pan="0" key="35"/>
          <note pos="492" vol="200" len="12" pan="0" key="35"/>
          <note pos="504" vol="200" len="24" pan="0" key="35"/>
          <note pos="504" vol="200" len="24" pan="0" key="0"/>
          <note pos="516" vol="200" len="24" pan="0" key="1"/>
          <note pos="528" vol="200" len="12" pan="0" key="35"/>
          <note pos="540" vol="200" len="12" pan="0" key="35"/>
          <note pos="552" vol="200" len="12" pan="0" key="35"/>
          <note pos="564" vol="200" len="12" pan="0" key="35"/>
          <note pos="576" vol="200" len="24" pan="0" key="35"/>
          <note pos="576" vol="200" len="24" pan="0" key="0"/>
          <note pos="588" vol="200" len="24" pan="0" key="1"/>
          <note pos="600" vol="200" len="12" pan="0" key="35"/>
          <note pos="612" vol="200" len="12" pan="0" key="35"/>
          <note pos="624" vol="200" len="12" pan="0" key="35"/>
          <note pos="636" vol="200" len="12" pan="0" key="35"/>
          <note pos="648" vol="200" len="24" pan="0" key="35"/>
          <note pos="648" vol="200" len="24" pan="0" key="0"/>
          <note pos="660" vol="200" len="24" pan="0" key="1"/>
          <note pos="672" vol="200" len="12" pan="0" key="35"/>
          <note pos="684" vol="200" len="12" pan="0" key="35"/>
          <note pos="696" vol="200" len="24" pan="0" key="39"/>
          <note pos="720" vol="200" len="24" pan="0" key="40"/>
          <note pos="744" vol="200" len="24" pan="0" key="42"/>
        </pattern>
        <pattern name="" steps="16" pos="31872" muted="0" type="1">
          <note pos="0" vol="200" len="48" pan="0" key="33"/>
          <note pos="0" vol="200" len="24" pan="0" key="0"/>
          <note pos="48" vol="200" len="24" pan="0" key="33"/>
          <note pos="60" vol="200" len="24" pan="0" key="1"/>
          <note pos="72" vol="200" len="12" pan="0" key="33"/>
          <note pos="84" vol="200" len="12" pan="0" key="33"/>
          <note pos="96" vol="200" len="12" pan="0" key="33"/>
          <note pos="108" vol="200" len="12" pan="0" key="33"/>
          <note pos="120" vol="200" len="24" pan="0" key="33"/>
          <note pos="120" vol="200" len="24" pan="0" key="0"/>
          <note pos="132" vol="200" len="24" pan="0" key="1"/>
          <note pos="144" vol="200" len="12" pan="0" key="33"/>
          <note pos="156" vol="200" len="12" pan="0" key="33"/>
          <note pos="168" vol="200" len="12" pan="0" key="33"/>
          <note pos="180" vol="200" len="12" pan="0" key="33"/>
          <note pos="192" vol="200" len="24" pan="0" key="33"/>
          <note pos="192" vol="200" len="24" pan="0" key="0"/>
          <note pos="204" vol="200" len="24" pan="0" key="1"/>
          <note pos="216" vol="200" len="12" pan="0" key="33"/>
          <note pos="228" vol="200" len="12" pan="0" key="33"/>
          <note pos="240" vol="200" len="12" pan="0" key="33"/>
          <note pos="252" vol="200" len="12" pan="0" key="33"/>
          <note pos="264" vol="200" len="24" pan="0" key="33"/>
          <note pos="264" vol="200" len="24" pan="0" key="0"/>
          <note pos="276" vol="200" len="24" pan="0" key="1"/>
          <note pos="288" vol="200" len="12" pan="0" key="33"/>
          <note pos="300" vol="200" len="12" pan="0" key="33"/>
          <note pos="312" vol="200" len="24" pan="0" key="33"/>
          <note pos="312" vol="200" len="24" pan="0" key="0"/>
          <note pos="324" vol="200" len="24" pan="0" key="1"/>
          <note pos="336" vol="200" len="12" pan="0" key="33"/>
          <note pos="348" vol="200" len="12" pan="0" key="33"/>
          <note pos="360" vol="200" len="12" pan="0" key="33"/>
          <note pos="372" vol="200" len="12" pan="0" key="33"/>
          <note pos="384" vol="200" len="48" pan="0" key="35"/>
          <note pos="384" vol="200" len="24" pan="0" key="0"/>
          <note pos="432" vol="200" len="24" pan="0" key="35"/>
          <note pos="444" vol="200" len="24" pan="0" key="1"/>
          <note pos="456" vol="200" len="12" pan="0" key="35"/>
          <note pos="468" vol="200" len="12" pan="0" key="35"/>
          <note pos="480" vol="200" len="12" pan="0" key="35"/>
          <note pos="492" vol="200" len="12" pan="0" key="35"/>
          <note pos="504" vol="200" len="24" pan="0" key="35"/>
          <note pos="504" vol="200" len="24" pan="0" key="0"/>
          <note pos="516" vol="200" len="24" pan="0" key="1"/>
          <note pos="528" vol="200" len="12" pan="0" key="35"/>
          <note pos="540" vol="200" len="12" pan="0" key="35"/>
          <note pos="552" vol="200" len="12" pan="0" key="35"/>
          <note pos="564" vol="200" len="12" pan="0" key="35"/>
          <note pos="576" vol="200" len="24" pan="0" key="35"/>
          <note pos="576" vol="200" len="24" pan="0" key="0"/>
          <note pos="588" vol="200" len="24" pan="0" key="1"/>
          <note pos="600" vol="200" len="12" pan="0" key="35"/>
          <note pos="612" vol="200" len="12" pan="0" key="35"/>
          <note pos="624" vol="200" len="12" pan="0" key="35"/>
          <note pos="636" vol="200" len="12" pan="0" key="35"/>
          <note pos="648" vol="200" len="24" pan="0" key="35"/>
          <note pos="648" vol="200" len="24" pan="0" key="0"/>
          <note pos="660" vol="200" len="24" pan="0" key="1"/>
          <note pos="672" vol="200" len="12" pan="0" key="35"/>
          <note pos="684" vol="200" len="12" pan="0" key="35"/>
          <note pos="696" vol="200" len="24" pan="0" key="35"/>
          <note pos="720" vol="200" len="12" pan="0" key="35"/>
          <note pos="732" vol="200" len="12" pan="0" key="35"/>
          <note pos="744" vol="200" len="12" pan="0" key="35"/>
          <note pos="756" vol="200" len="12" pan="0" key="35"/>
        </pattern>
        <pattern name="" steps="16" pos="32640" muted="0" type="1">
          <note pos="0" vol="200" len="48" pan="0" key="42"/>
          <note pos="0" vol="200" len="24" pan="0" key="0"/>
          <note pos="48" vol="200" len="24" pan="0" key="42"/>
          <note pos="60" vol="200" len="24" pan="0" key="1"/>
          <note pos="72" vol="200" len="12" pan="0" key="42"/>
          <note pos="84" vol="200" len="12" pan="0" key="42"/>
          <note pos="96" vol="200" len="12" pan="0" key="42"/>
          <note pos="108" vol="200" len="12" pan="0" key="42"/>
          <note pos="120" vol="200" len="24" pan="0" key="42"/>
          <note pos="120" vol="200" len="24" pan="0" key="0"/>
          <note pos="132" vol="200" len="24" pan="0" key="1"/>
          <note pos="144" vol="200" len="12" pan="0" key="42"/>
          <note pos="156" vol="200" len="12" pan="0" key="42"/>
          <note pos="168" vol="200" len="12" pan="0" key="42"/>
          <note pos="180" vol="200" len="12" pan="0" key="42"/>
          <note pos="192" vol="200" len="24" pan="0" key="42"/>
          <note pos="192" vol="200" len="24" pan="0" key="0"/>
          <note pos="204" vol="200" len="24" pan="0" key="1"/>
          <note pos="216" vol="200" len="12" pan="0" key="42"/>
          <note pos="228" vol="200" len="12" pan="0" key="42"/>
          <note pos="240" vol="200" len="12" pan="0" key="42"/>
          <note pos="252" vol="200" len="12" pan="0" key="42"/>
          <note pos="264" vol="200" len="24" pan="0" key="42"/>
          <note pos="264" vol="200" len="24" pan="0" key="0"/>
          <note pos="276" vol="200" len="24" pan="0" key="1"/>
          <note pos="288" vol="200" len="12" pan="0" key="42"/>
          <note pos="300" vol="200" len="12" pan="0" key="42"/>
          <note pos="312" vol="200" len="24" pan="0" key="42"/>
          <note pos="312" vol="200" len="24" pan="0" key="0"/>
          <note pos="324" vol="200" len="24" pan="0" key="1"/>
          <note pos="336" vol="200" len="12" pan="0" key="42"/>
          <note pos="348" vol="200" len="12" pan="0" key="42"/>
          <note pos="360" vol="200" len="12" pan="0" key="42"/>
          <note pos="372" vol="200" len="12" pan="0" key="42"/>
          <note pos="384" vol="200" len="48" pan="0" key="32"/>
          <note pos="384" vol="200" len="24" pan="0" key="0"/>
          <note pos="432" vol="200" len="24" pan="0" key="32"/>
          <note pos="444" vol="200" len="24" pan="0" key="1"/>
          <note pos="456" vol="200" len="12" pan="0" key="32"/>
          <note pos="468" vol="200" len="12" pan="0" key="32"/>
          <note pos="480" vol="200" len="12" pan="0" key="32"/>
          <note pos="492" vol="200" len="12" pan="0" key="32"/>
          <note pos="504" vol="200" len="24" pan="0" key="32"/>
          <note pos="504" vol="200" len="24" pan="0" key="0"/>
          <note pos="516" vol="200" len="24" pan="0" key="1"/>
          <note pos="528" vol="200" len="12" pan="0" key="32"/>
          <note pos="540" vol="200" len="12" pan="0" key="32"/>
          <note pos="552" vol="200" len="12" pan="0" key="32"/>
          <note pos="564" vol="200" len="12" pan="0" key="32"/>
          <note pos="576" vol="200" len="24" pan="0" key="32"/>
          <note pos="576" vol="200" len="24" pan="0" key="0"/>
          <note pos="588" vol="200" len="24" pan="0" key="1"/>
          <note pos="600" vol="200" len="12" pan="0" key="32"/>
          <note pos="612" vol="200" len="12" pan="0" key="32"/>
          <note pos="624" vol="200" len="12" pan="0" key="32"/>
          <note pos="636" vol="200" len="12" pan="0" key="32"/>
          <note pos="648" vol="200" len="24" pan="0" key="32"/>
          <note pos="648" vol="200" len="24" pan="0" key="0"/>
          <note pos="660" vol="200" len="24" pan="0" key="1"/>
          <note pos="672" vol="200" len="12" pan="0" key="32"/>
          <note pos="684" vol="200" len="12" pan="0" key="32"/>
          <note pos="696" vol="200" len="24" pan="0" key="32"/>
          <note pos="720" vol="200" len="12" pan="0" key="32"/>
          <note pos="732" vol="200" len="12" pan="0" key="32"/>
          <note pos="744" vol="200" len="12" pan="0" key="32"/>
          <note pos="756" vol="200" len="12" pan="0" key="32"/>
        </pattern>
        <pattern name="" steps="16" pos="33408" muted="0" type="1">
          <note pos="0" vol="200" len="48" pan="0" key="39"/>
          <note pos="0" vol="200" len="24" pan="0" key="0"/>
          <note pos="48" vol="200" len="24" pan="0" key="39"/>
          <note pos="60" vol="200" len="24" pan="0" key="1"/>
          <note pos="72" vol="200" len="12" pan="0" key="39"/>
          <note pos="84" vol="200" len="12" pan="0" key="39"/>
          <note pos="96" vol="200" len="12" pan="0" key="39"/>
          <note pos="108" vol="200" len="12" pan="0" key="39"/>
          <note pos="120" vol="200" len="24" pan="0" key="39"/>
          <note pos="120" vol="200" len="24" pan="0" key="0"/>
          <note pos="132" vol="200" len="24" pan="0" key="1"/>
          <note pos="144" vol="200" len="12" pan="0" key="39"/>
          <note pos="156" vol="200" len="12" pan="0" key="39"/>
          <note pos="168" vol="200" len="12" pan="0" key="39"/>
          <note pos="180" vol="200" len="12" pan="0" key="39"/>
          <note pos="192" vol="200" len="24" pan="0" key="39"/>
          <note pos="192" vol="200" len="24" pan="0" key="0"/>
          <note pos="204" vol="200" len="24" pan="0" key="1"/>
          <note pos="216" vol="200" len="12" pan="0" key="39"/>
          <note pos="228" vol="200" len="12" pan="0" key="39"/>
          <note pos="240" vol="200" len="12" pan="0" key="39"/>
          <note pos="252" vol="200" len="12" pan="0" key="39"/>
          <note pos="264" vol="200" len="24" pan="0" key="39"/>
          <note pos="264" vol="200" len="24" pan="0" key="0"/>
          <note pos="276" vol="200" len="24" pan="0" key="1"/>
          <note pos="288" vol="200" len="12" pan="0" key="39"/>
          <note pos="300" vol="200" len="12" pan="0" key="39"/>
          <note pos="312" vol="200" len="24" pan="0" key="39"/>
          <note pos="312" vol="200" len="24" pan="0" key="0"/>
          <note pos="324" vol="200" len="24" pan="0" key="1"/>
          <note pos="336" vol="200" len="12" pan="0" key="39"/>
          <note pos="348" vol="200" len="12" pan="0" key="39"/>
          <note pos="360" vol="200" len="12" pan="0" key="39"/>
          <note pos="372" vol="200" len="12" pan="0" key="39"/>
          <note pos="384" vol="200" len="48" pan="0" key="38"/>
          <note pos="384" vol="200" len="24" pan="0" key="0"/>
          <note pos="432" vol="200" len="24" pan="0" key="38"/>
          <note pos="444" vol="200" len="24" pan="0" key="1"/>
          <note pos="456" vol="200" len="12" pan="0" key="38"/>
          <note pos="468" vol="200" len="12" pan="0" key="38"/>
          <note pos="480" vol="200" len="12" pan="0" key="38"/>
          <note pos="492" vol="200" len="12" pan="0" key="38"/>
          <note pos="504" vol="200" len="24" pan="0" key="38"/>
          <note pos="504" vol="200" len="24" pan="0" key="0"/>
          <note pos="516" vol="200" len="24" pan="0" key="1"/>
          <note pos="528" vol="200" len="12" pan="0" key="38"/>
          <note pos="540" vol="200" len="12" pan="0" key="38"/>
          <note pos="552" vol="200" len="12" pan="0" key="38"/>
          <note pos="564" vol="200" len="12" pan="0" key="38"/>
          <note pos="576" vol="200" len="24" pan="0" key="38"/>
          <note pos="576" vol="200" len="24" pan="0" key="0"/>
          <note pos="588" vol="200" len="24" pan="0" key="1"/>
          <note pos="600" vol="200" len="12" pan="0" key="38"/>
          <note pos="612" vol="200" len="12" pan="0" key="38"/>
          <note pos="624" vol="200" len="12" pan="0" key="38"/>
          <note pos="636" vol="200" len="12" pan="0" key="38"/>
          <note pos="648" vol="200" len="24" pan="0" key="38"/>
          <note pos="648" vol="200" len="24" pan="0" key="0"/>
          <note pos="660" vol="200" len="24" pan="0" key="1"/>
          <note pos="672" vol="200" len="12" pan="0" key="38"/>
          <note pos="684" vol="200" len="12" pan="0" key="38"/>
          <note pos="696" vol="200" len="24" pan="0" key="38"/>
          <note pos="720" vol="200" len="12" pan="0" key="38"/>
          <note pos="732" vol="200" len="12" pan="0" key="38"/>
          <note pos="744" vol="200" len="12" pan="0" key="38"/>
          <note pos="756" vol="200" len="12" pan="0" key="38"/>
        </pattern>
        <pattern name="" steps="16" pos="34176" muted="0" type="1">
          <note pos="0" vol="200" len="48" pan="0" key="43"/>
          <note pos="0" vol="200" len="24" pan="0" key="0"/>
          <note pos="48" vol="200" len="24" pan="0" key="43"/>
          <note pos="60" vol="200" len="24" pan="0" key="1"/>
          <note pos="72" vol="200" len="12" pan="0" key="43"/>
          <note pos="84" vol="200" len="12" pan="0" key="43"/>
          <note pos="96" vol="200" len="12" pan="0" key="43"/>
          <note pos="108" vol="200" len="12" pan="0" key="43"/>
          <note pos="120" vol="200" len="24" pan="0" key="43"/>
          <note pos="120" vol="200" len="24" pan="0" key="0"/>
          <note pos="132" vol="200" len="24" pan="0" key="1"/>
          <note pos="144" vol="200" len="12" pan="0" key="43"/>
          <note pos="156" vol="200" len="12" pan="0" key="43"/>
          <note pos="168" vol="200" len="12" pan="0" key="43"/>
          <note pos="180" vol="200" len="12" pan="0" key="43"/>
          <note pos="192" vol="200" len="24" pan="0" key="43"/>
          <note pos="192" vol="200" len="24" pan="0" key="0"/>
          <note pos="204" vol="200" len="24" pan="0" key="1"/>
          <note pos="216" vol="200" len="12" pan="0" key="43"/>
          <note pos="228" vol="200" len="12" pan="0" key="43"/>
          <note pos="240" vol="200" len="12" pan="0" key="43"/>
          <note pos="252" vol="200" len="12" pan="0" key="43"/>
          <note pos="264" vol="200" len="24" pan="0" key="43"/>
          <note pos="264" vol="200" len="24" pan="0" key="0"/>
          <note pos="276" vol="200" len="24" pan="0" key="1"/>
          <note pos="288" vol="200" len="12" pan="0" key="43"/>
          <note pos="300" vol="200" len="12" pan="0" key="43"/>
          <note pos="312" vol="200" len="24" pan="0" key="43"/>
          <note pos="312" vol="200" len="24" pan="0" key="0"/>
          <note pos="324" vol="200" len="24" pan="0" key="1"/>
          <note pos="336" vol="200" len="12" pan="0" key="43"/>
          <note pos="348" vol="200" len="12" pan="0" key="43"/>
          <note pos="360" vol="200" len="12" pan="0" key="43"/>
          <note pos="372" vol="200" len="12" pan="0" key="43"/>
          <note pos="384" vol="200" len="48" pan="0" key="44"/>
          <note pos="384" vol="200" len="24" pan="0" key="0"/>
          <note pos="432" vol="200" len="24" pan="0" key="32"/>
          <note pos="444" vol="200" len="24" pan="0" key="1"/>
          <note pos="456" vol="200" len="12" pan="0" key="32"/>
          <note pos="468" vol="200" len="12" pan="0" key="32"/>
          <note pos="480" vol="200" len="12" pan="0" key="32"/>
          <note pos="492" vol="200" len="12" pan="0" key="32"/>
          <note pos="504" vol="200" len="24" pan="0" key="32"/>
          <note pos="504" vol="200" len="24" pan="0" key="0"/>
          <note pos="516" vol="200" len="24" pan="0" key="1"/>
          <note pos="528" vol="200" len="12" pan="0" key="32"/>
          <note pos="540" vol="200" len="12" pan="0" key="32"/>
          <note pos="552" vol="200" len="12" pan="0" key="32"/>
          <note pos="564" vol="200" len="12" pan="0" key="32"/>
          <note pos="576" vol="200" len="192" pan="0" key="39"/>
          <note pos="576" vol="200" len="192" pan="0" key="32"/>
          <note pos="576" vol="200" len="24" pan="0" key="0"/>
        </pattern>
        <pattern name="" steps="16" pos="34944" muted="0" type="1">
          <note pos="0" vol="197" len="192" pan="0" key="44"/>
          <note pos="0" vol="197" len="192" pan="0" key="37"/>
          <note pos="0" vol="78" len="48" pan="0" key="0"/>
          <note pos="192" vol="197" len="192" pan="0" key="51"/>
          <note pos="192" vol="197" len="192" pan="0" key="44"/>
          <note pos="384" vol="197" len="192" pan="0" key="52"/>
          <note pos="384" vol="197" len="192" pan="0" key="45"/>
          <note pos="576" vol="197" len="192" pan="0" key="54"/>
          <note pos="576" vol="197" len="192" pan="0" key="47"/>
          <note pos="756" vol="197" len="12" pan="0" key="1"/>
          <note pos="768" vol="197" len="12" pan="0" key="42"/>
          <note pos="780" vol="197" len="12" pan="0" key="42"/>
          <note pos="792" vol="197" len="12" pan="0" key="42"/>
          <note pos="804" vol="197" len="12" pan="0" key="42"/>
          <note pos="816" vol="197" len="12" pan="0" key="42"/>
          <note pos="828" vol="197" len="12" pan="0" key="42"/>
          <note pos="840" vol="197" len="12" pan="0" key="42"/>
          <note pos="852" vol="197" len="12" pan="0" key="42"/>
          <note pos="864" vol="197" len="12" pan="0" key="42"/>
          <note pos="876" vol="197" len="12" pan="0" key="42"/>
          <note pos="888" vol="197" len="12" pan="0" key="42"/>
          <note pos="900" vol="197" len="12" pan="0" key="42"/>
          <note pos="912" vol="197" len="12" pan="0" key="42"/>
          <note pos="924" vol="197" len="12" pan="0" key="42"/>
          <note pos="936" vol="197" len="12" pan="0" key="42"/>
          <note pos="948" vol="197" len="12" pan="0" key="42"/>
          <note pos="960" vol="197" len="12" pan="0" key="44"/>
          <note pos="972" vol="197" len="12" pan="0" key="44"/>
          <note pos="984" vol="197" len="12" pan="0" key="44"/>
          <note pos="996" vol="197" len="12" pan="0" key="44"/>
          <note pos="1008" vol="197" len="12" pan="0" key="44"/>
          <note pos="1020" vol="197" len="12" pan="0" key="44"/>
          <note pos="1032" vol="197" len="12" pan="0" key="44"/>
          <note pos="1044" vol="197" len="12" pan="0" key="44"/>
          <note pos="1056" vol="197" len="12" pan="0" key="44"/>
          <note pos="1068" vol="197" len="12" pan="0" key="44"/>
          <note pos="1080" vol="197" len="12" pan="0" key="44"/>
          <note pos="1092" vol="197" len="12" pan="0" key="44"/>
          <note pos="1104" vol="197" len="12" pan="0" key="44"/>
          <note pos="1116" vol="197" len="12" pan="0" key="44"/>
          <note pos="1128" vol="197" len="12" pan="0" key="44"/>
          <note pos="1140" vol="197" len="12" pan="0" key="44"/>
          <note pos="1152" vol="197" len="12" pan="0" key="45"/>
          <note pos="1164" vol="197" len="12" pan="0" key="45"/>
          <note pos="1176" vol="197" len="12" pan="0" key="45"/>
          <note pos="1188" vol="197" len="12" pan="0" key="45"/>
          <note pos="1200" vol="197" len="12" pan="0" key="45"/>
          <note pos="1212" vol="197" len="12" pan="0" key="45"/>
          <note pos="1224" vol="197" len="12" pan="0" key="45"/>
          <note pos="1236" vol="197" len="12" pan="0" key="45"/>
          <note pos="1248" vol="197" len="12" pan="0" key="45"/>
          <note pos="1260" vol="197" len="12" pan="0" key="45"/>
          <note pos="1272" vol="197" len="12" pan="0" key="45"/>
          <note pos="1284" vol="197" len="12" pan="0" key="45"/>
          <note pos="1296" vol="197" len="12" pan="0" key="45"/>
          <note pos="1308" vol="197" len="12" pan="0" key="45"/>
          <note pos="1320" vol="197" len="12" pan="0" key="45"/>
          <note pos="1332" vol="197" len="12" pan="0" key="45"/>
          <note pos="1344" vol="197" len="48" pan="0" key="54"/>
          <note pos="1344" vol="197" len="48" pan="0" key="47"/>
          <note pos="1344" vol="197" len="12" pan="0" key="0"/>
          <note pos="1392" vol="197" len="48" pan="0" key="54"/>
          <note pos="1392" vol="197" len="48" pan="0" key="47"/>
          <note pos="1440" vol="197" len="48" pan="0" key="51"/>
          <note pos="1440" vol="197" len="48" pan="0" key="44"/>
          <note pos="1488" vol="197" len="48" pan="0" key="54"/>
          <note pos="1488" vol="197" len="48" pan="0" key="47"/>
        </pattern>
        <pattern name="" steps="16" pos="36480" muted="0" type="1">
          <note pos="0" vol="197" len="24" pan="0" key="49"/>
          <note pos="0" vol="197" len="12" pan="0" key="0"/>
          <note pos="24" vol="197" len="24" pan="0" key="47"/>
          <note pos="48" vol="197" len="24" pan="0" key="49"/>
          <note pos="72" vol="197" len="24" pan="0" key="56"/>
          <note pos="84" vol="197" len="12" pan="0" key="1"/>
          <note pos="96" vol="197" len="12" pan="0" key="49"/>
          <note pos="108" vol="197" len="12" pan="0" key="49"/>
          <note pos="120" vol="197" len="12" pan="0" key="49"/>
          <note pos="132" vol="197" len="12" pan="0" key="49"/>
          <note pos="144" vol="197" len="12" pan="0" key="49"/>
          <note pos="156" vol="197" len="12" pan="0" key="49"/>
          <note pos="168" vol="197" len="12" pan="0" key="49"/>
          <note pos="180" vol="197" len="12" pan="0" key="49"/>
        </pattern>
        <pattern name="" steps="16" pos="36672" muted="0" type="1">
          <note pos="0" vol="197" len="24" pan="0" key="42"/>
          <note pos="0" vol="197" len="12" pan="0" key="0"/>
          <note pos="24" vol="197" len="24" pan="0" key="40"/>
          <note pos="48" vol="197" len="24" pan="0" key="42"/>
          <note pos="72" vol="197" len="24" pan="0" key="49"/>
          <note pos="84" vol="197" len="12" pan="0" key="1"/>
          <note pos="96" vol="197" len="12" pan="0" key="42"/>
          <note pos="108" vol="197" len="12" pan="0" key="42"/>
          <note pos="120" vol="197" len="12" pan="0" key="42"/>
          <note pos="132" vol="197" len="12" pan="0" key="42"/>
          <note pos="144" vol="197" len="12" pan="0" key="42"/>
          <note pos="156" vol="197" len="12" pan="0" key="42"/>
          <note pos="168" vol="197" len="12" pan="0" key="42"/>
          <note pos="180" vol="197" len="12" pan="0" key="42"/>
        </pattern>
        <pattern name="" steps="16" pos="36864" muted="0" type="1">
          <note pos="0" vol="78" len="24" pan="0" key="44"/>
          <note pos="0" vol="78" len="24" pan="0" key="1"/>
          <note pos="24" vol="78" len="24" pan="0" key="47"/>
          <note pos="48" vol="78" len="24" pan="0" key="44"/>
          <note pos="60" vol="78" len="24" pan="0" key="0"/>
          <note pos="72" vol="78" len="48" pan="0" key="51"/>
          <note pos="108" vol="78" len="24" pan="0" key="1"/>
          <note pos="120" vol="78" len="24" pan="0" key="44"/>
          <note pos="144" vol="78" len="24" pan="0" key="47"/>
          <note pos="168" vol="78" len="24" pan="0" key="51"/>
          <note pos="192" vol="78" len="12" pan="0" key="45"/>
          <note pos="204" vol="78" len="12" pan="0" key="45"/>
          <note pos="216" vol="78" len="12" pan="0" key="45"/>
          <note pos="228" vol="78" len="12" pan="0" key="45"/>
          <note pos="240" vol="78" len="12" pan="0" key="45"/>
          <note pos="252" vol="78" len="12" pan="0" key="45"/>
          <note pos="264" vol="78" len="12" pan="0" key="49"/>
          <note pos="276" vol="78" len="12" pan="0" key="49"/>
          <note pos="288" vol="78" len="12" pan="0" key="47"/>
          <note pos="300" vol="78" len="12" pan="0" key="47"/>
          <note pos="312" vol="78" len="12" pan="0" key="47"/>
          <note pos="324" vol="78" len="12" pan="0" key="47"/>
          <note pos="336" vol="78" len="12" pan="0" key="51"/>
          <note pos="348" vol="78" len="12" pan="0" key="51"/>
          <note pos="360" vol="78" len="12" pan="0" key="47"/>
          <note pos="372" vol="78" len="12" pan="0" key="47"/>
        </pattern>
        <pattern name="" steps="16" pos="38784" muted="0" type="1">
          <note pos="0" vol="197" len="24" pan="0" key="42"/>
          <note pos="0" vol="197" len="24" pan="0" key="1"/>
          <note pos="24" vol="197" len="24" pan="0" key="40"/>
          <note pos="48" vol="197" len="24" pan="0" key="42"/>
          <note pos="60" vol="197" len="24" pan="0" key="0"/>
          <note pos="72" vol="197" len="24" pan="0" key="49"/>
          <note pos="84" vol="197" len="24" pan="0" key="1"/>
          <note pos="96" vol="197" len="24" pan="0" key="42"/>
          <note pos="108" vol="197" len="24" pan="0" key="0"/>
          <note pos="120" vol="197" len="24" pan="0" key="52"/>
          <note pos="144" vol="197" len="24" pan="0" key="47"/>
          <note pos="168" vol="197" len="24" pan="0" key="49"/>
          <note pos="192" vol="197" len="24" pan="0" key="42"/>
          <note pos="216" vol="197" len="24" pan="0" key="40"/>
          <note pos="240" vol="197" len="24" pan="0" key="42"/>
          <note pos="264" vol="197" len="24" pan="0" key="49"/>
          <note pos="288" vol="197" len="24" pan="0" key="42"/>
          <note pos="312" vol="197" len="24" pan="0" key="52"/>
          <note pos="336" vol="197" len="24" pan="0" key="54"/>
          <note pos="360" vol="197" len="24" pan="0" key="52"/>
        </pattern>
        <pattern name="" steps="16" pos="37248" muted="0" type="1">
          <note pos="0" vol="197" len="24" pan="0" key="49"/>
          <note pos="0" vol="197" len="12" pan="0" key="0"/>
          <note pos="24" vol="197" len="24" pan="0" key="47"/>
          <note pos="48" vol="197" len="24" pan="0" key="49"/>
          <note pos="72" vol="197" len="24" pan="0" key="56"/>
          <note pos="84" vol="197" len="12" pan="0" key="1"/>
          <note pos="96" vol="197" len="12" pan="0" key="49"/>
          <note pos="108" vol="197" len="12" pan="0" key="49"/>
          <note pos="120" vol="197" len="12" pan="0" key="49"/>
          <note pos="132" vol="197" len="12" pan="0" key="49"/>
          <note pos="144" vol="197" len="12" pan="0" key="49"/>
          <note pos="156" vol="197" len="12" pan="0" key="49"/>
          <note pos="168" vol="197" len="12" pan="0" key="49"/>
          <note pos="180" vol="197" len="12" pan="0" key="49"/>
        </pattern>
        <pattern name="" steps="16" pos="37440" muted="0" type="1">
          <note pos="0" vol="197" len="24" pan="0" key="42"/>
          <note pos="0" vol="197" len="12" pan="0" key="0"/>
          <note pos="24" vol="197" len="24" pan="0" key="40"/>
          <note pos="48" vol="197" len="24" pan="0" key="42"/>
          <note pos="72" vol="197" len="24" pan="0" key="49"/>
          <note pos="84" vol="197" len="12" pan="0" key="1"/>
          <note pos="96" vol="197" len="12" pan="0" key="42"/>
          <note pos="108" vol="197" len="12" pan="0" key="42"/>
          <note pos="120" vol="197" len="12" pan="0" key="42"/>
          <note pos="132" vol="197" len="12" pan="0" key="42"/>
          <note pos="144" vol="197" len="12" pan="0" key="42"/>
          <note pos="156" vol="197" len="12" pan="0" key="42"/>
          <note pos="168" vol="197" len="12" pan="0" key="42"/>
          <note pos="180" vol="197" len="12" pan="0" key="42"/>
        </pattern>
        <pattern name="" steps="16" pos="37632" muted="0" type="1">
          <note pos="0" vol="78" len="24" pan="0" key="44"/>
          <note pos="0" vol="78" len="24" pan="0" key="1"/>
          <note pos="24" vol="78" len="24" pan="0" key="47"/>
          <note pos="48" vol="78" len="24" pan="0" key="44"/>
          <note pos="60" vol="78" len="24" pan="0" key="0"/>
          <note pos="72" vol="78" len="48" pan="0" key="51"/>
          <note pos="108" vol="78" len="24" pan="0" key="1"/>
          <note pos="120" vol="78" len="24" pan="0" key="44"/>
          <note pos="144" vol="78" len="24" pan="0" key="47"/>
          <note pos="168" vol="78" len="24" pan="0" key="51"/>
          <note pos="192" vol="78" len="12" pan="0" key="45"/>
          <note pos="204" vol="78" len="12" pan="0" key="45"/>
          <note pos="216" vol="78" len="12" pan="0" key="45"/>
          <note pos="228" vol="78" len="12" pan="0" key="45"/>
          <note pos="240" vol="78" len="12" pan="0" key="45"/>
          <note pos="252" vol="78" len="12" pan="0" key="45"/>
          <note pos="264" vol="78" len="12" pan="0" key="49"/>
          <note pos="276" vol="78" len="12" pan="0" key="49"/>
          <note pos="288" vol="78" len="12" pan="0" key="47"/>
          <note pos="300" vol="78" len="12" pan="0" key="47"/>
          <note pos="312" vol="78" len="12" pan="0" key="47"/>
          <note pos="324" vol="78" len="12" pan="0" key="47"/>
          <note pos="336" vol="78" len="12" pan="0" key="51"/>
          <note pos="348" vol="78" len="12" pan="0" key="51"/>
          <note pos="360" vol="78" len="12" pan="0" key="47"/>
          <note pos="372" vol="78" len="12" pan="0" key="47"/>
        </pattern>
        <pattern name="" steps="16" pos="38016" muted="0" type="1">
          <note pos="0" vol="200" len="12" pan="0" key="38"/>
          <note pos="0" vol="200" len="24" pan="0" key="1"/>
          <note pos="12" vol="200" len="12" pan="0" key="38"/>
          <note pos="24" vol="200" len="24" pan="0" key="38"/>
          <note pos="48" vol="200" len="12" pan="0" key="38"/>
          <note pos="60" vol="200" len="12" pan="0" key="38"/>
          <note pos="72" vol="200" len="24" pan="0" key="38"/>
          <note pos="96" vol="200" len="12" pan="0" key="38"/>
          <note pos="108" vol="200" len="12" pan="0" key="38"/>
          <note pos="120" vol="200" len="24" pan="0" key="38"/>
          <note pos="144" vol="200" len="12" pan="0" key="38"/>
          <note pos="156" vol="200" len="12" pan="0" key="38"/>
          <note pos="168" vol="200" len="24" pan="0" key="38"/>
          <note pos="192" vol="200" len="12" pan="0" key="38"/>
          <note pos="204" vol="200" len="12" pan="0" key="38"/>
          <note pos="216" vol="200" len="24" pan="0" key="38"/>
          <note pos="240" vol="200" len="12" pan="0" key="38"/>
          <note pos="252" vol="200" len="12" pan="0" key="38"/>
          <note pos="264" vol="200" len="24" pan="0" key="38"/>
          <note pos="288" vol="200" len="12" pan="0" key="38"/>
          <note pos="300" vol="200" len="12" pan="0" key="38"/>
          <note pos="312" vol="200" len="24" pan="0" key="38"/>
          <note pos="336" vol="200" len="12" pan="0" key="38"/>
          <note pos="348" vol="200" len="12" pan="0" key="38"/>
          <note pos="360" vol="200" len="24" pan="0" key="38"/>
          <note pos="384" vol="200" len="12" pan="0" key="37"/>
          <note pos="396" vol="200" len="12" pan="0" key="37"/>
          <note pos="408" vol="200" len="24" pan="0" key="37"/>
          <note pos="432" vol="200" len="12" pan="0" key="37"/>
          <note pos="444" vol="200" len="12" pan="0" key="37"/>
          <note pos="456" vol="200" len="24" pan="0" key="37"/>
          <note pos="480" vol="200" len="12" pan="0" key="37"/>
          <note pos="492" vol="200" len="12" pan="0" key="37"/>
          <note pos="504" vol="200" len="24" pan="0" key="37"/>
          <note pos="528" vol="200" len="12" pan="0" key="37"/>
          <note pos="540" vol="200" len="12" pan="0" key="37"/>
          <note pos="552" vol="200" len="24" pan="0" key="37"/>
          <note pos="576" vol="200" len="12" pan="0" key="35"/>
          <note pos="588" vol="200" len="12" pan="0" key="35"/>
          <note pos="600" vol="200" len="24" pan="0" key="35"/>
          <note pos="624" vol="200" len="12" pan="0" key="35"/>
          <note pos="636" vol="200" len="12" pan="0" key="35"/>
          <note pos="648" vol="200" len="24" pan="0" key="35"/>
          <note pos="672" vol="200" len="12" pan="0" key="35"/>
          <note pos="684" vol="200" len="12" pan="0" key="35"/>
          <note pos="696" vol="200" len="24" pan="0" key="35"/>
          <note pos="720" vol="200" len="12" pan="0" key="35"/>
          <note pos="732" vol="200" len="12" pan="0" key="35"/>
          <note pos="744" vol="200" len="24" pan="0" key="35"/>
        </pattern>
        <pattern name="" steps="16" pos="39168" muted="0" type="1">
          <note pos="0" vol="78" len="24" pan="0" key="46"/>
          <note pos="0" vol="78" len="24" pan="0" key="39"/>
          <note pos="0" vol="78" len="12" pan="0" key="0"/>
          <note pos="12" vol="78" len="12" pan="0" key="1"/>
          <note pos="24" vol="78" len="12" pan="0" key="39"/>
          <note pos="36" vol="78" len="12" pan="0" key="39"/>
          <note pos="48" vol="78" len="12" pan="0" key="39"/>
          <note pos="60" vol="78" len="12" pan="0" key="39"/>
          <note pos="72" vol="78" len="12" pan="0" key="39"/>
          <note pos="84" vol="78" len="12" pan="0" key="39"/>
          <note pos="96" vol="78" len="12" pan="0" key="39"/>
          <note pos="108" vol="78" len="12" pan="0" key="39"/>
          <note pos="120" vol="78" len="12" pan="0" key="39"/>
          <note pos="132" vol="78" len="12" pan="0" key="39"/>
          <note pos="144" vol="78" len="12" pan="0" key="39"/>
          <note pos="156" vol="78" len="12" pan="0" key="39"/>
          <note pos="168" vol="78" len="12" pan="0" key="39"/>
          <note pos="180" vol="78" len="12" pan="0" key="39"/>
          <note pos="192" vol="78" len="96" pan="0" key="52"/>
          <note pos="192" vol="78" len="96" pan="0" key="45"/>
          <note pos="192" vol="78" len="12" pan="0" key="0"/>
          <note pos="288" vol="78" len="96" pan="0" key="51"/>
          <note pos="288" vol="78" len="96" pan="0" key="44"/>
        </pattern>
        <pattern name="" steps="16" pos="39552" muted="0" type="1">
          <note pos="0" vol="195" len="48" pan="0" key="44"/>
          <note pos="0" vol="195" len="48" pan="0" key="37"/>
          <note pos="0" vol="195" len="36" pan="0" key="0"/>
          <note pos="36" vol="195" len="36" pan="0" key="1"/>
          <note pos="48" vol="195" len="12" pan="0" key="37"/>
          <note pos="60" vol="195" len="12" pan="0" key="37"/>
          <note pos="72" vol="195" len="12" pan="0" key="37"/>
          <note pos="84" vol="195" len="12" pan="0" key="37"/>
          <note pos="96" vol="195" len="12" pan="0" key="37"/>
          <note pos="108" vol="195" len="12" pan="0" key="37"/>
          <note pos="120" vol="195" len="12" pan="0" key="37"/>
          <note pos="132" vol="195" len="12" pan="0" key="37"/>
          <note pos="144" vol="195" len="12" pan="0" key="37"/>
          <note pos="156" vol="195" len="12" pan="0" key="37"/>
          <note pos="168" vol="195" len="12" pan="0" key="37"/>
          <note pos="180" vol="195" len="12" pan="0" key="37"/>
          <note pos="180" vol="195" len="36" pan="0" key="0"/>
          <note pos="192" vol="195" len="48" pan="0" key="51"/>
          <note pos="192" vol="195" len="48" pan="0" key="44"/>
          <note pos="216" vol="195" len="36" pan="0" key="1"/>
          <note pos="240" vol="195" len="12" pan="0" key="44"/>
          <note pos="252" vol="195" len="12" pan="0" key="44"/>
          <note pos="264" vol="195" len="12" pan="0" key="44"/>
          <note pos="276" vol="195" len="12" pan="0" key="44"/>
          <note pos="288" vol="195" len="12" pan="0" key="44"/>
          <note pos="300" vol="195" len="12" pan="0" key="44"/>
          <note pos="312" vol="195" len="12" pan="0" key="44"/>
          <note pos="324" vol="195" len="12" pan="0" key="44"/>
          <note pos="336" vol="195" len="12" pan="0" key="44"/>
          <note pos="348" vol="195" len="12" pan="0" key="44"/>
          <note pos="360" vol="195" len="12" pan="0" key="44"/>
          <note pos="372" vol="195" len="12" pan="0" key="44"/>
          <note pos="372" vol="195" len="36" pan="0" key="0"/>
          <note pos="384" vol="195" len="48" pan="0" key="52"/>
          <note pos="384" vol="195" len="48" pan="0" key="45"/>
          <note pos="408" vol="195" len="36" pan="0" key="1"/>
          <note pos="432" vol="195" len="12" pan="0" key="45"/>
          <note pos="444" vol="195" len="12" pan="0" key="45"/>
          <note pos="456" vol="195" len="12" pan="0" key="45"/>
          <note pos="468" vol="195" len="12" pan="0" key="45"/>
          <note pos="480" vol="195" len="12" pan="0" key="45"/>
          <note pos="492" vol="195" len="12" pan="0" key="45"/>
          <note pos="504" vol="195" len="12" pan="0" key="45"/>
          <note pos="516" vol="195" len="12" pan="0" key="45"/>
          <note pos="528" vol="195" len="12" pan="0" key="45"/>
          <note pos="540" vol="195" len="12" pan="0" key="45"/>
          <note pos="552" vol="195" len="12" pan="0" key="45"/>
          <note pos="564" vol="195" len="12" pan="0" key="45"/>
          <note pos="564" vol="195" len="36" pan="0" key="0"/>
          <note pos="576" vol="195" len="48" pan="0" key="54"/>
          <note pos="576" vol="195" len="48" pan="0" key="47"/>
          <note pos="600" vol="195" len="36" pan="0" key="1"/>
          <note pos="624" vol="195" len="12" pan="0" key="47"/>
          <note pos="636" vol="195" len="12" pan="0" key="47"/>
          <note pos="648" vol="195" len="12" pan="0" key="47"/>
          <note pos="660" vol="195" len="12" pan="0" key="47"/>
          <note pos="672" vol="195" len="12" pan="0" key="47"/>
          <note pos="684" vol="195" len="12" pan="0" key="47"/>
          <note pos="696" vol="195" len="12" pan="0" key="47"/>
          <note pos="708" vol="195" len="12" pan="0" key="47"/>
          <note pos="720" vol="195" len="12" pan="0" key="47"/>
          <note pos="732" vol="195" len="12" pan="0" key="47"/>
          <note pos="744" vol="195" len="12" pan="0" key="47"/>
          <note pos="756" vol="195" len="12" pan="0" key="47"/>
          <note pos="768" vol="195" len="48" pan="0" key="49"/>
          <note pos="768" vol="195" len="48" pan="0" key="42"/>
          <note pos="768" vol="195" len="36" pan="0" key="0"/>
          <note pos="792" vol="195" len="36" pan="0" key="1"/>
          <note pos="816" vol="195" len="12" pan="0" key="42"/>
          <note pos="828" vol="195" len="12" pan="0" key="42"/>
          <note pos="840" vol="195" len="12" pan="0" key="42"/>
          <note pos="852" vol="195" len="12" pan="0" key="42"/>
          <note pos="864" vol="195" len="12" pan="0" key="42"/>
          <note pos="876" vol="195" len="12" pan="0" key="42"/>
          <note pos="888" vol="195" len="12" pan="0" key="42"/>
          <note pos="900" vol="195" len="12" pan="0" key="42"/>
          <note pos="912" vol="195" len="12" pan="0" key="42"/>
          <note pos="924" vol="195" len="12" pan="0" key="42"/>
          <note pos="936" vol="195" len="12" pan="0" key="42"/>
          <note pos="948" vol="195" len="12" pan="0" key="42"/>
          <note pos="948" vol="195" len="36" pan="0" key="0"/>
          <note pos="960" vol="195" len="48" pan="0" key="51"/>
          <note pos="960" vol="195" len="48" pan="0" key="44"/>
          <note pos="984" vol="195" len="36" pan="0" key="1"/>
          <note pos="1008" vol="195" len="12" pan="0" key="44"/>
          <note pos="1020" vol="195" len="12" pan="0" key="44"/>
          <note pos="1032" vol="195" len="12" pan="0" key="44"/>
          <note pos="1044" vol="195" len="12" pan="0" key="44"/>
          <note pos="1056" vol="195" len="12" pan="0" key="44"/>
          <note pos="1068" vol="195" len="12" pan="0" key="44"/>
          <note pos="1080" vol="195" len="12" pan="0" key="44"/>
          <note pos="1092" vol="195" len="12" pan="0" key="44"/>
          <note pos="1104" vol="195" len="12" pan="0" key="44"/>
          <note pos="1116" vol="195" len="12" pan="0" key="44"/>
          <note pos="1128" vol="195" len="12" pan="0" key="44"/>
          <note pos="1140" vol="195" len="12" pan="0" key="44"/>
          <note pos="1140" vol="195" len="36" pan="0" key="0"/>
          <note pos="1152" vol="195" len="48" pan="0" key="52"/>
          <note pos="1152" vol="195" len="48" pan="0" key="45"/>
          <note pos="1176" vol="195" len="36" pan="0" key="1"/>
          <note pos="1200" vol="195" len="12" pan="0" key="45"/>
          <note pos="1212" vol="195" len="12" pan="0" key="45"/>
          <note pos="1224" vol="195" len="12" pan="0" key="45"/>
          <note pos="1236" vol="195" len="12" pan="0" key="45"/>
          <note pos="1248" vol="195" len="12" pan="0" key="45"/>
          <note pos="1260" vol="195" len="12" pan="0" key="45"/>
          <note pos="1272" vol="195" len="12" pan="0" key="45"/>
          <note pos="1284" vol="195" len="12" pan="0" key="45"/>
          <note pos="1296" vol="195" len="12" pan="0" key="45"/>
          <note pos="1308" vol="195" len="12" pan="0" key="45"/>
          <note pos="1320" vol="195" len="12" pan="0" key="45"/>
          <note pos="1332" vol="195" len="12" pan="0" key="45"/>
          <note pos="1332" vol="195" len="36" pan="0" key="0"/>
          <note pos="1344" vol="195" len="48" pan="0" key="54"/>
          <note pos="1344" vol="195" len="48" pan="0" key="47"/>
          <note pos="1368" vol="195" len="36" pan="0" key="1"/>
          <note pos="1392" vol="195" len="12" pan="0" key="47"/>
          <note pos="1404" vol="195" len="12" pan="0" key="47"/>
          <note pos="1416" vol="195" len="12" pan="0" key="47"/>
          <note pos="1428" vol="195" len="12" pan="0" key="47"/>
          <note pos="1440" vol="195" len="12" pan="0" key="48"/>
          <note pos="1452" vol="195" len="12" pan="0" key="48"/>
          <note pos="1464" vol="195" len="12" pan="0" key="48"/>
          <note pos="1464" vol="195" len="36" pan="0" key="1"/>
          <note pos="1476" vol="195" len="12" pan="0" key="48"/>
          <note pos="1488" vol="195" len="12" pan="0" key="48"/>
          <note pos="1500" vol="195" len="12" pan="0" key="48"/>
          <note pos="1512" vol="195" len="12" pan="0" key="48"/>
          <note pos="1524" vol="195" len="12" pan="0" key="48"/>
          <note pos="1524" vol="195" len="36" pan="0" key="0"/>
          <note pos="1536" vol="195" len="48" pan="0" key="44"/>
          <note pos="1536" vol="195" len="48" pan="0" key="37"/>
          <note pos="1560" vol="195" len="36" pan="0" key="1"/>
          <note pos="1584" vol="195" len="12" pan="0" key="37"/>
          <note pos="1596" vol="195" len="12" pan="0" key="37"/>
          <note pos="1608" vol="195" len="12" pan="0" key="37"/>
          <note pos="1620" vol="195" len="12" pan="0" key="37"/>
          <note pos="1632" vol="195" len="12" pan="0" key="37"/>
          <note pos="1644" vol="195" len="12" pan="0" key="37"/>
          <note pos="1656" vol="195" len="12" pan="0" key="37"/>
          <note pos="1668" vol="195" len="12" pan="0" key="37"/>
          <note pos="1680" vol="195" len="12" pan="0" key="37"/>
          <note pos="1692" vol="195" len="12" pan="0" key="37"/>
          <note pos="1704" vol="195" len="12" pan="0" key="37"/>
          <note pos="1716" vol="195" len="12" pan="0" key="37"/>
          <note pos="1716" vol="195" len="36" pan="0" key="0"/>
          <note pos="1728" vol="195" len="48" pan="0" key="54"/>
          <note pos="1728" vol="195" len="48" pan="0" key="47"/>
          <note pos="1752" vol="195" len="36" pan="0" key="1"/>
          <note pos="1776" vol="195" len="12" pan="0" key="47"/>
          <note pos="1788" vol="195" len="12" pan="0" key="47"/>
          <note pos="1800" vol="195" len="12" pan="0" key="47"/>
          <note pos="1812" vol="195" len="12" pan="0" key="47"/>
          <note pos="1824" vol="195" len="12" pan="0" key="47"/>
          <note pos="1836" vol="195" len="12" pan="0" key="47"/>
          <note pos="1848" vol="195" len="12" pan="0" key="47"/>
          <note pos="1860" vol="195" len="12" pan="0" key="47"/>
          <note pos="1872" vol="195" len="12" pan="0" key="47"/>
          <note pos="1884" vol="195" len="12" pan="0" key="47"/>
          <note pos="1896" vol="195" len="12" pan="0" key="47"/>
          <note pos="1908" vol="195" len="12" pan="0" key="47"/>
          <note pos="1908" vol="195" len="36" pan="0" key="0"/>
          <note pos="1920" vol="195" len="48" pan="0" key="54"/>
          <note pos="1920" vol="195" len="48" pan="0" key="46"/>
          <note pos="1944" vol="195" len="36" pan="0" key="1"/>
          <note pos="1968" vol="195" len="12" pan="0" key="46"/>
          <note pos="1980" vol="195" len="12" pan="0" key="46"/>
          <note pos="1992" vol="195" len="12" pan="0" key="46"/>
          <note pos="2004" vol="195" len="12" pan="0" key="46"/>
          <note pos="2016" vol="195" len="12" pan="0" key="46"/>
          <note pos="2028" vol="195" len="12" pan="0" key="46"/>
          <note pos="2040" vol="195" len="12" pan="0" key="46"/>
          <note pos="2052" vol="195" len="12" pan="0" key="46"/>
          <note pos="2064" vol="195" len="12" pan="0" key="46"/>
          <note pos="2076" vol="195" len="12" pan="0" key="46"/>
          <note pos="2088" vol="195" len="12" pan="0" key="46"/>
          <note pos="2100" vol="195" len="12" pan="0" key="46"/>
          <note pos="2100" vol="195" len="36" pan="0" key="0"/>
          <note pos="2112" vol="195" len="48" pan="0" key="49"/>
          <note pos="2112" vol="195" len="48" pan="0" key="42"/>
          <note pos="2136" vol="195" len="36" pan="0" key="1"/>
          <note pos="2160" vol="195" len="12" pan="0" key="42"/>
          <note pos="2172" vol="195" len="12" pan="0" key="42"/>
          <note pos="2184" vol="195" len="12" pan="0" key="42"/>
          <note pos="2196" vol="195" len="12" pan="0" key="42"/>
          <note pos="2196" vol="195" len="36" pan="0" key="0"/>
          <note pos="2208" vol="195" len="48" pan="0" key="47"/>
          <note pos="2208" vol="195" len="48" pan="0" key="40"/>
          <note pos="2232" vol="195" len="36" pan="0" key="1"/>
          <note pos="2256" vol="195" len="12" pan="0" key="40"/>
          <note pos="2268" vol="195" len="12" pan="0" key="40"/>
          <note pos="2280" vol="195" len="12" pan="0" key="40"/>
          <note pos="2292" vol="195" len="12" pan="0" key="40"/>
          <note pos="2292" vol="195" len="36" pan="0" key="0"/>
          <note pos="2304" vol="195" len="48" pan="0" key="45"/>
          <note pos="2304" vol="195" len="48" pan="0" key="38"/>
          <note pos="2328" vol="195" len="36" pan="0" key="1"/>
          <note pos="2352" vol="195" len="12" pan="0" key="38"/>
          <note pos="2364" vol="195" len="12" pan="0" key="38"/>
          <note pos="2376" vol="195" len="12" pan="0" key="38"/>
          <note pos="2388" vol="195" len="12" pan="0" key="38"/>
          <note pos="2400" vol="195" len="12" pan="0" key="38"/>
          <note pos="2412" vol="195" len="12" pan="0" key="38"/>
          <note pos="2424" vol="195" len="12" pan="0" key="38"/>
          <note pos="2436" vol="195" len="12" pan="0" key="38"/>
          <note pos="2448" vol="195" len="12" pan="0" key="38"/>
          <note pos="2460" vol="195" len="12" pan="0" key="38"/>
          <note pos="2472" vol="195" len="12" pan="0" key="38"/>
          <note pos="2484" vol="195" len="12" pan="0" key="38"/>
          <note pos="2484" vol="195" len="36" pan="0" key="0"/>
          <note pos="2496" vol="195" len="48" pan="0" key="52"/>
          <note pos="2496" vol="195" len="48" pan="0" key="45"/>
          <note pos="2520" vol="195" len="36" pan="0" key="1"/>
          <note pos="2544" vol="195" len="12" pan="0" key="45"/>
          <note pos="2556" vol="195" len="12" pan="0" key="45"/>
          <note pos="2568" vol="195" len="12" pan="0" key="45"/>
          <note pos="2580" vol="195" len="12" pan="0" key="45"/>
          <note pos="2592" vol="195" len="12" pan="0" key="45"/>
          <note pos="2604" vol="195" len="12" pan="0" key="45"/>
          <note pos="2616" vol="195" len="12" pan="0" key="45"/>
          <note pos="2628" vol="195" len="12" pan="0" key="45"/>
          <note pos="2640" vol="195" len="12" pan="0" key="45"/>
          <note pos="2652" vol="195" len="12" pan="0" key="45"/>
          <note pos="2664" vol="195" len="12" pan="0" key="45"/>
          <note pos="2676" vol="195" len="12" pan="0" key="45"/>
          <note pos="2688" vol="100" len="384" pan="0" key="42"/>
          <note pos="2688" vol="195" len="384" pan="0" key="35"/>
          <note pos="2688" vol="195" len="36" pan="0" key="0"/>
        </pattern>
        <pattern name="" steps="16" pos="43776" muted="0" type="1">
          <note pos="0" vol="78" len="96" pan="0" key="0"/>
          <note pos="96" vol="78" len="96" pan="0" key="40"/>
          <note pos="96" vol="78" len="96" pan="0" key="33"/>
          <note pos="192" vol="78" len="96" pan="0" key="42"/>
          <note pos="192" vol="78" len="96" pan="0" key="35"/>
          <note pos="288" vol="78" len="96" pan="0" key="44"/>
          <note pos="288" vol="78" len="96" pan="0" key="37"/>
        </pattern>
        <pattern name="" steps="16" pos="44160" muted="0" type="1">
          <note pos="0" vol="195" len="48" pan="0" key="46"/>
          <note pos="0" vol="195" len="48" pan="0" key="39"/>
          <note pos="0" vol="195" len="36" pan="0" key="0"/>
          <note pos="36" vol="195" len="36" pan="0" key="1"/>
          <note pos="48" vol="195" len="12" pan="0" key="39"/>
          <note pos="60" vol="195" len="12" pan="0" key="39"/>
          <note pos="72" vol="195" len="12" pan="0" key="39"/>
          <note pos="84" vol="195" len="12" pan="0" key="39"/>
          <note pos="96" vol="195" len="12" pan="0" key="39"/>
          <note pos="108" vol="195" len="12" pan="0" key="39"/>
          <note pos="120" vol="195" len="12" pan="0" key="39"/>
          <note pos="132" vol="195" len="12" pan="0" key="39"/>
          <note pos="144" vol="195" len="12" pan="0" key="39"/>
          <note pos="156" vol="195" len="12" pan="0" key="39"/>
          <note pos="168" vol="195" len="12" pan="0" key="39"/>
          <note pos="180" vol="195" len="12" pan="0" key="39"/>
          <note pos="180" vol="195" len="36" pan="0" key="0"/>
          <note pos="192" vol="195" len="48" pan="0" key="53"/>
          <note pos="192" vol="195" len="48" pan="0" key="46"/>
          <note pos="216" vol="195" len="36" pan="0" key="1"/>
          <note pos="240" vol="195" len="12" pan="0" key="46"/>
          <note pos="252" vol="195" len="12" pan="0" key="46"/>
          <note pos="264" vol="195" len="12" pan="0" key="46"/>
          <note pos="276" vol="195" len="12" pan="0" key="46"/>
          <note pos="288" vol="195" len="12" pan="0" key="46"/>
          <note pos="300" vol="195" len="12" pan="0" key="46"/>
          <note pos="312" vol="195" len="12" pan="0" key="46"/>
          <note pos="324" vol="195" len="12" pan="0" key="46"/>
          <note pos="336" vol="195" len="12" pan="0" key="46"/>
          <note pos="348" vol="195" len="12" pan="0" key="46"/>
          <note pos="360" vol="195" len="12" pan="0" key="46"/>
          <note pos="372" vol="195" len="12" pan="0" key="46"/>
          <note pos="372" vol="195" len="36" pan="0" key="0"/>
          <note pos="384" vol="195" len="48" pan="0" key="54"/>
          <note pos="384" vol="195" len="48" pan="0" key="47"/>
          <note pos="408" vol="195" len="36" pan="0" key="1"/>
          <note pos="432" vol="195" len="12" pan="0" key="47"/>
          <note pos="444" vol="195" len="12" pan="0" key="47"/>
          <note pos="456" vol="195" len="12" pan="0" key="47"/>
          <note pos="468" vol="195" len="12" pan="0" key="47"/>
          <note pos="480" vol="195" len="12" pan="0" key="47"/>
          <note pos="492" vol="195" len="12" pan="0" key="47"/>
          <note pos="504" vol="195" len="12" pan="0" key="47"/>
          <note pos="516" vol="195" len="12" pan="0" key="47"/>
          <note pos="528" vol="195" len="12" pan="0" key="47"/>
          <note pos="540" vol="195" len="12" pan="0" key="47"/>
          <note pos="552" vol="195" len="12" pan="0" key="47"/>
          <note pos="564" vol="195" len="12" pan="0" key="47"/>
          <note pos="564" vol="195" len="36" pan="0" key="0"/>
          <note pos="576" vol="195" len="48" pan="0" key="56"/>
          <note pos="576" vol="195" len="48" pan="0" key="49"/>
          <note pos="600" vol="195" len="36" pan="0" key="1"/>
          <note pos="624" vol="195" len="12" pan="0" key="49"/>
          <note pos="636" vol="195" len="12" pan="0" key="49"/>
          <note pos="648" vol="195" len="12" pan="0" key="49"/>
          <note pos="660" vol="195" len="12" pan="0" key="49"/>
          <note pos="672" vol="195" len="12" pan="0" key="49"/>
          <note pos="684" vol="195" len="12" pan="0" key="49"/>
          <note pos="696" vol="195" len="12" pan="0" key="49"/>
          <note pos="708" vol="195" len="12" pan="0" key="49"/>
          <note pos="720" vol="195" len="12" pan="0" key="49"/>
          <note pos="732" vol="195" len="12" pan="0" key="49"/>
          <note pos="744" vol="195" len="12" pan="0" key="49"/>
          <note pos="756" vol="195" len="12" pan="0" key="49"/>
          <note pos="768" vol="195" len="48" pan="0" key="51"/>
          <note pos="768" vol="195" len="48" pan="0" key="44"/>
          <note pos="768" vol="195" len="36" pan="0" key="0"/>
          <note pos="792" vol="195" len="36" pan="0" key="1"/>
          <note pos="816" vol="195" len="12" pan="0" key="44"/>
          <note pos="828" vol="195" len="12" pan="0" key="44"/>
          <note pos="840" vol="195" len="12" pan="0" key="44"/>
          <note pos="852" vol="195" len="12" pan="0" key="44"/>
          <note pos="864" vol="195" len="12" pan="0" key="44"/>
          <note pos="876" vol="195" len="12" pan="0" key="44"/>
          <note pos="888" vol="195" len="12" pan="0" key="44"/>
          <note pos="900" vol="195" len="12" pan="0" key="44"/>
          <note pos="912" vol="195" len="12" pan="0" key="44"/>
          <note pos="924" vol="195" len="12" pan="0" key="44"/>
          <note pos="936" vol="195" len="12" pan="0" key="44"/>
          <note pos="948" vol="195" len="12" pan="0" key="44"/>
          <note pos="948" vol="195" len="36" pan="0" key="0"/>
          <note pos="960" vol="195" len="48" pan="0" key="53"/>
          <note pos="960" vol="195" len="48" pan="0" key="46"/>
          <note pos="984" vol="195" len="36" pan="0" key="1"/>
          <note pos="1008" vol="195" len="12" pan="0" key="46"/>
          <note pos="1020" vol="195" len="12" pan="0" key="46"/>
          <note pos="1032" vol="195" len="12" pan="0" key="46"/>
          <note pos="1044" vol="195" len="12" pan="0" key="46"/>
          <note pos="1056" vol="195" len="12" pan="0" key="46"/>
          <note pos="1068" vol="195" len="12" pan="0" key="46"/>
          <note pos="1080" vol="195" len="12" pan="0" key="46"/>
          <note pos="1092" vol="195" len="12" pan="0" key="46"/>
          <note pos="1104" vol="195" len="12" pan="0" key="46"/>
          <note pos="1116" vol="195" len="12" pan="0" key="46"/>
          <note pos="1128" vol="195" len="12" pan="0" key="46"/>
          <note pos="1140" vol="195" len="12" pan="0" key="46"/>
          <note pos="1140" vol="195" len="36" pan="0" key="0"/>
          <note pos="1152" vol="195" len="48" pan="0" key="54"/>
          <note pos="1152" vol="195" len="48" pan="0" key="47"/>
          <note pos="1176" vol="195" len="36" pan="0" key="1"/>
          <note pos="1200" vol="195" len="12" pan="0" key="47"/>
          <note pos="1212" vol="195" len="12" pan="0" key="47"/>
          <note pos="1224" vol="195" len="12" pan="0" key="47"/>
          <note pos="1236" vol="195" len="12" pan="0" key="47"/>
          <note pos="1248" vol="195" len="12" pan="0" key="47"/>
          <note pos="1260" vol="195" len="12" pan="0" key="47"/>
          <note pos="1272" vol="195" len="12" pan="0" key="47"/>
          <note pos="1284" vol="195" len="12" pan="0" key="47"/>
          <note pos="1296" vol="195" len="12" pan="0" key="47"/>
          <note pos="1308" vol="195" len="12" pan="0" key="47"/>
          <note pos="1320" vol="195" len="12" pan="0" key="47"/>
          <note pos="1332" vol="195" len="12" pan="0" key="47"/>
          <note pos="1344" vol="197" len="12" pan="0" key="56"/>
          <note pos="1356" vol="197" len="12" pan="0" key="56"/>
          <note pos="1368" vol="197" len="12" pan="0" key="58"/>
          <note pos="1380" vol="197" len="12" pan="0" key="58"/>
          <note pos="1392" vol="197" len="12" pan="0" key="56"/>
          <note pos="1404" vol="197" len="12" pan="0" key="56"/>
          <note pos="1416" vol="197" len="12" pan="0" key="54"/>
          <note pos="1428" vol="197" len="12" pan="0" key="54"/>
          <note pos="1440" vol="197" len="12" pan="0" key="53"/>
          <note pos="1452" vol="197" len="12" pan="0" key="53"/>
          <note pos="1464" vol="197" len="12" pan="0" key="51"/>
          <note pos="1476" vol="197" len="12" pan="0" key="51"/>
          <note pos="1488" vol="197" len="12" pan="0" key="50"/>
          <note pos="1500" vol="197" len="12" pan="0" key="50"/>
          <note pos="1512" vol="197" len="12" pan="0" key="46"/>
          <note pos="1524" vol="197" len="12" pan="0" key="46"/>
          <note pos="1524" vol="195" len="36" pan="0" key="0"/>
          <note pos="1536" vol="195" len="48" pan="0" key="46"/>
          <note pos="1536" vol="195" len="48" pan="0" key="39"/>
          <note pos="1560" vol="195" len="36" pan="0" key="1"/>
          <note pos="1584" vol="195" len="12" pan="0" key="39"/>
          <note pos="1596" vol="195" len="12" pan="0" key="39"/>
          <note pos="1608" vol="195" len="12" pan="0" key="39"/>
          <note pos="1620" vol="195" len="12" pan="0" key="39"/>
          <note pos="1632" vol="195" len="12" pan="0" key="39"/>
          <note pos="1644" vol="195" len="12" pan="0" key="39"/>
          <note pos="1656" vol="195" len="12" pan="0" key="39"/>
          <note pos="1668" vol="195" len="12" pan="0" key="39"/>
          <note pos="1680" vol="195" len="12" pan="0" key="39"/>
          <note pos="1692" vol="195" len="12" pan="0" key="39"/>
          <note pos="1704" vol="195" len="12" pan="0" key="39"/>
          <note pos="1716" vol="195" len="12" pan="0" key="39"/>
          <note pos="1716" vol="195" len="36" pan="0" key="0"/>
          <note pos="1728" vol="195" len="48" pan="0" key="56"/>
          <note pos="1728" vol="195" len="48" pan="0" key="49"/>
          <note pos="1752" vol="195" len="36" pan="0" key="1"/>
          <note pos="1776" vol="195" len="12" pan="0" key="49"/>
          <note pos="1788" vol="195" len="12" pan="0" key="49"/>
          <note pos="1800" vol="195" len="12" pan="0" key="49"/>
          <note pos="1812" vol="195" len="12" pan="0" key="49"/>
          <note pos="1824" vol="195" len="12" pan="0" key="49"/>
          <note pos="1836" vol="195" len="12" pan="0" key="49"/>
          <note pos="1848" vol="195" len="12" pan="0" key="49"/>
          <note pos="1860" vol="195" len="12" pan="0" key="49"/>
          <note pos="1872" vol="195" len="12" pan="0" key="49"/>
          <note pos="1884" vol="195" len="12" pan="0" key="49"/>
          <note pos="1896" vol="195" len="12" pan="0" key="49"/>
          <note pos="1908" vol="195" len="12" pan="0" key="49"/>
          <note pos="1908" vol="195" len="36" pan="0" key="0"/>
          <note pos="1920" vol="195" len="48" pan="0" key="56"/>
          <note pos="1920" vol="195" len="48" pan="0" key="48"/>
          <note pos="1944" vol="195" len="36" pan="0" key="1"/>
          <note pos="1968" vol="195" len="12" pan="0" key="48"/>
          <note pos="1980" vol="195" len="12" pan="0" key="48"/>
          <note pos="1992" vol="195" len="12" pan="0" key="48"/>
          <note pos="2004" vol="195" len="12" pan="0" key="48"/>
          <note pos="2016" vol="195" len="12" pan="0" key="48"/>
          <note pos="2028" vol="195" len="12" pan="0" key="48"/>
          <note pos="2040" vol="195" len="12" pan="0" key="48"/>
          <note pos="2052" vol="195" len="12" pan="0" key="48"/>
          <note pos="2064" vol="195" len="12" pan="0" key="48"/>
          <note pos="2076" vol="195" len="12" pan="0" key="48"/>
          <note pos="2088" vol="195" len="12" pan="0" key="48"/>
          <note pos="2100" vol="195" len="12" pan="0" key="48"/>
          <note pos="2100" vol="195" len="36" pan="0" key="0"/>
          <note pos="2112" vol="195" len="48" pan="0" key="51"/>
          <note pos="2112" vol="195" len="48" pan="0" key="44"/>
          <note pos="2136" vol="195" len="36" pan="0" key="1"/>
          <note pos="2160" vol="195" len="12" pan="0" key="44"/>
          <note pos="2172" vol="195" len="12" pan="0" key="44"/>
          <note pos="2184" vol="195" len="12" pan="0" key="44"/>
          <note pos="2196" vol="195" len="12" pan="0" key="44"/>
          <note pos="2196" vol="195" len="36" pan="0" key="0"/>
          <note pos="2208" vol="195" len="48" pan="0" key="49"/>
          <note pos="2208" vol="195" len="48" pan="0" key="42"/>
          <note pos="2232" vol="195" len="36" pan="0" key="1"/>
          <note pos="2256" vol="195" len="12" pan="0" key="42"/>
          <note pos="2268" vol="195" len="12" pan="0" key="42"/>
          <note pos="2280" vol="195" len="12" pan="0" key="42"/>
          <note pos="2292" vol="195" len="12" pan="0" key="42"/>
          <note pos="2292" vol="195" len="36" pan="0" key="0"/>
          <note pos="2304" vol="195" len="48" pan="0" key="47"/>
          <note pos="2304" vol="195" len="48" pan="0" key="40"/>
          <note pos="2328" vol="195" len="36" pan="0" key="1"/>
          <note pos="2352" vol="195" len="12" pan="0" key="40"/>
          <note pos="2364" vol="195" len="12" pan="0" key="40"/>
          <note pos="2376" vol="195" len="12" pan="0" key="40"/>
          <note pos="2388" vol="195" len="12" pan="0" key="40"/>
          <note pos="2400" vol="195" len="12" pan="0" key="40"/>
          <note pos="2412" vol="195" len="12" pan="0" key="40"/>
          <note pos="2424" vol="195" len="12" pan="0" key="40"/>
          <note pos="2436" vol="195" len="12" pan="0" key="40"/>
          <note pos="2448" vol="195" len="12" pan="0" key="40"/>
          <note pos="2460" vol="195" len="12" pan="0" key="40"/>
          <note pos="2472" vol="195" len="12" pan="0" key="40"/>
          <note pos="2484" vol="195" len="12" pan="0" key="40"/>
          <note pos="2484" vol="195" len="36" pan="0" key="0"/>
          <note pos="2496" vol="195" len="48" pan="0" key="54"/>
          <note pos="2496" vol="195" len="48" pan="0" key="47"/>
          <note pos="2520" vol="195" len="36" pan="0" key="1"/>
          <note pos="2544" vol="195" len="12" pan="0" key="47"/>
          <note pos="2556" vol="195" len="12" pan="0" key="47"/>
          <note pos="2568" vol="195" len="12" pan="0" key="47"/>
          <note pos="2580" vol="195" len="12" pan="0" key="47"/>
          <note pos="2592" vol="195" len="12" pan="0" key="47"/>
          <note pos="2604" vol="195" len="12" pan="0" key="47"/>
          <note pos="2616" vol="195" len="12" pan="0" key="47"/>
          <note pos="2628" vol="195" len="12" pan="0" key="47"/>
          <note pos="2640" vol="195" len="12" pan="0" key="47"/>
          <note pos="2652" vol="195" len="12" pan="0" key="47"/>
          <note pos="2664" vol="195" len="12" pan="0" key="47"/>
          <note pos="2676" vol="195" len="12" pan="0" key="47"/>
          <note pos="2676" vol="195" len="36" pan="0" key="0"/>
          <note pos="2688" vol="195" len="48" pan="0" key="56"/>
          <note pos="2688" vol="195" len="48" pan="0" key="49"/>
          <note pos="2712" vol="195" len="36" pan="0" key="1"/>
          <note pos="2736" vol="195" len="12" pan="0" key="49"/>
          <note pos="2748" vol="195" len="12" pan="0" key="49"/>
          <note pos="2760" vol="195" len="12" pan="0" key="49"/>
          <note pos="2772" vol="195" len="12" pan="0" key="49"/>
          <note pos="2784" vol="195" len="12" pan="0" key="49"/>
          <note pos="2796" vol="195" len="12" pan="0" key="49"/>
          <note pos="2808" vol="195" len="12" pan="0" key="49"/>
          <note pos="2820" vol="195" len="12" pan="0" key="49"/>
          <note pos="2832" vol="195" len="12" pan="0" key="49"/>
          <note pos="2844" vol="195" len="12" pan="0" key="49"/>
          <note pos="2856" vol="195" len="12" pan="0" key="49"/>
          <note pos="2868" vol="195" len="12" pan="0" key="49"/>
          <note pos="2880" vol="195" len="12" pan="0" key="49"/>
          <note pos="2892" vol="195" len="12" pan="0" key="47"/>
          <note pos="2904" vol="195" len="12" pan="0" key="46"/>
          <note pos="2916" vol="195" len="12" pan="0" key="44"/>
          <note pos="2928" vol="195" len="12" pan="0" key="47"/>
          <note pos="2940" vol="195" len="12" pan="0" key="46"/>
          <note pos="2952" vol="195" len="12" pan="0" key="44"/>
          <note pos="2964" vol="195" len="12" pan="0" key="42"/>
          <note pos="2976" vol="195" len="12" pan="0" key="46"/>
          <note pos="2988" vol="195" len="12" pan="0" key="44"/>
          <note pos="3000" vol="195" len="12" pan="0" key="42"/>
          <note pos="3012" vol="195" len="12" pan="0" key="41"/>
          <note pos="3024" vol="195" len="12" pan="0" key="44"/>
          <note pos="3036" vol="195" len="12" pan="0" key="42"/>
          <note pos="3048" vol="195" len="12" pan="0" key="41"/>
          <note pos="3060" vol="195" len="12" pan="0" key="42"/>
        </pattern>
        <pattern name="" steps="16" pos="47232" muted="0" type="1">
          <note pos="0" vol="195" len="48" pan="0" key="46"/>
          <note pos="0" vol="195" len="48" pan="0" key="39"/>
          <note pos="0" vol="195" len="36" pan="0" key="0"/>
          <note pos="36" vol="195" len="36" pan="0" key="1"/>
          <note pos="48" vol="195" len="12" pan="0" key="39"/>
          <note pos="60" vol="195" len="12" pan="0" key="39"/>
          <note pos="72" vol="195" len="12" pan="0" key="39"/>
          <note pos="84" vol="195" len="12" pan="0" key="39"/>
          <note pos="96" vol="195" len="12" pan="0" key="39"/>
          <note pos="108" vol="195" len="12" pan="0" key="39"/>
          <note pos="120" vol="195" len="12" pan="0" key="39"/>
          <note pos="132" vol="195" len="12" pan="0" key="39"/>
          <note pos="144" vol="195" len="12" pan="0" key="39"/>
          <note pos="156" vol="195" len="12" pan="0" key="39"/>
          <note pos="168" vol="195" len="12" pan="0" key="39"/>
          <note pos="180" vol="195" len="12" pan="0" key="39"/>
          <note pos="180" vol="195" len="36" pan="0" key="0"/>
          <note pos="192" vol="195" len="48" pan="0" key="53"/>
          <note pos="192" vol="195" len="48" pan="0" key="46"/>
          <note pos="216" vol="195" len="36" pan="0" key="1"/>
          <note pos="240" vol="195" len="12" pan="0" key="46"/>
          <note pos="252" vol="195" len="12" pan="0" key="46"/>
          <note pos="264" vol="195" len="12" pan="0" key="46"/>
          <note pos="276" vol="195" len="12" pan="0" key="46"/>
          <note pos="288" vol="195" len="12" pan="0" key="46"/>
          <note pos="300" vol="195" len="12" pan="0" key="46"/>
          <note pos="312" vol="195" len="12" pan="0" key="46"/>
          <note pos="324" vol="195" len="12" pan="0" key="46"/>
          <note pos="336" vol="195" len="12" pan="0" key="46"/>
          <note pos="348" vol="195" len="12" pan="0" key="46"/>
          <note pos="360" vol="195" len="12" pan="0" key="46"/>
          <note pos="372" vol="195" len="12" pan="0" key="46"/>
          <note pos="372" vol="195" len="36" pan="0" key="0"/>
          <note pos="384" vol="195" len="48" pan="0" key="54"/>
          <note pos="384" vol="195" len="48" pan="0" key="47"/>
          <note pos="408" vol="195" len="36" pan="0" key="1"/>
          <note pos="432" vol="195" len="12" pan="0" key="47"/>
          <note pos="444" vol="195" len="12" pan="0" key="47"/>
          <note pos="456" vol="195" len="12" pan="0" key="47"/>
          <note pos="468" vol="195" len="12" pan="0" key="47"/>
          <note pos="480" vol="195" len="12" pan="0" key="47"/>
          <note pos="492" vol="195" len="12" pan="0" key="47"/>
          <note pos="504" vol="195" len="12" pan="0" key="47"/>
          <note pos="516" vol="195" len="12" pan="0" key="47"/>
          <note pos="528" vol="195" len="12" pan="0" key="47"/>
          <note pos="540" vol="195" len="12" pan="0" key="47"/>
          <note pos="552" vol="195" len="12" pan="0" key="47"/>
          <note pos="564" vol="195" len="12" pan="0" key="47"/>
          <note pos="564" vol="195" len="36" pan="0" key="0"/>
          <note pos="576" vol="195" len="48" pan="0" key="56"/>
          <note pos="576" vol="195" len="48" pan="0" key="49"/>
          <note pos="600" vol="195" len="36" pan="0" key="1"/>
          <note pos="624" vol="195" len="12" pan="0" key="49"/>
          <note pos="636" vol="195" len="12" pan="0" key="49"/>
          <note pos="648" vol="195" len="12" pan="0" key="49"/>
          <note pos="660" vol="195" len="12" pan="0" key="49"/>
          <note pos="672" vol="195" len="12" pan="0" key="49"/>
          <note pos="684" vol="195" len="12" pan="0" key="49"/>
          <note pos="696" vol="195" len="12" pan="0" key="49"/>
          <note pos="708" vol="195" len="12" pan="0" key="49"/>
          <note pos="720" vol="195" len="12" pan="0" key="49"/>
          <note pos="732" vol="195" len="12" pan="0" key="49"/>
          <note pos="744" vol="195" len="12" pan="0" key="49"/>
          <note pos="756" vol="195" len="12" pan="0" key="49"/>
          <note pos="768" vol="195" len="48" pan="0" key="51"/>
          <note pos="768" vol="195" len="48" pan="0" key="44"/>
          <note pos="768" vol="195" len="36" pan="0" key="0"/>
          <note pos="792" vol="195" len="36" pan="0" key="1"/>
          <note pos="816" vol="195" len="12" pan="0" key="44"/>
          <note pos="828" vol="195" len="12" pan="0" key="44"/>
          <note pos="840" vol="195" len="12" pan="0" key="44"/>
          <note pos="852" vol="195" len="12" pan="0" key="44"/>
          <note pos="864" vol="195" len="12" pan="0" key="44"/>
          <note pos="876" vol="195" len="12" pan="0" key="44"/>
          <note pos="888" vol="195" len="12" pan="0" key="44"/>
          <note pos="900" vol="195" len="12" pan="0" key="44"/>
          <note pos="912" vol="195" len="12" pan="0" key="44"/>
          <note pos="924" vol="195" len="12" pan="0" key="44"/>
          <note pos="936" vol="195" len="12" pan="0" key="44"/>
          <note pos="948" vol="195" len="12" pan="0" key="44"/>
          <note pos="948" vol="195" len="36" pan="0" key="0"/>
          <note pos="960" vol="195" len="48" pan="0" key="53"/>
          <note pos="960" vol="195" len="48" pan="0" key="46"/>
          <note pos="984" vol="195" len="36" pan="0" key="1"/>
          <note pos="1008" vol="195" len="12" pan="0" key="46"/>
          <note pos="1020" vol="195" len="12" pan="0" key="46"/>
          <note pos="1032" vol="195" len="12" pan="0" key="46"/>
          <note pos="1044" vol="195" len="12" pan="0" key="46"/>
          <note pos="1056" vol="195" len="12" pan="0" key="46"/>
          <note pos="1068" vol="195" len="12" pan="0" key="46"/>
          <note pos="1080" vol="195" len="12" pan="0" key="46"/>
          <note pos="1092" vol="195" len="12" pan="0" key="46"/>
          <note pos="1104" vol="195" len="12" pan="0" key="46"/>
          <note pos="1116" vol="195" len="12" pan="0" key="46"/>
          <note pos="1128" vol="195" len="12" pan="0" key="46"/>
          <note pos="1140" vol="195" len="12" pan="0" key="46"/>
          <note pos="1140" vol="195" len="36" pan="0" key="0"/>
          <note pos="1152" vol="195" len="48" pan="0" key="54"/>
          <note pos="1152" vol="195" len="48" pan="0" key="47"/>
          <note pos="1176" vol="195" len="36" pan="0" key="1"/>
          <note pos="1200" vol="195" len="12" pan="0" key="47"/>
          <note pos="1212" vol="195" len="12" pan="0" key="47"/>
          <note pos="1224" vol="195" len="12" pan="0" key="47"/>
          <note pos="1236" vol="195" len="12" pan="0" key="47"/>
          <note pos="1248" vol="195" len="12" pan="0" key="47"/>
          <note pos="1260" vol="195" len="12" pan="0" key="47"/>
          <note pos="1272" vol="195" len="12" pan="0" key="47"/>
          <note pos="1284" vol="195" len="12" pan="0" key="47"/>
          <note pos="1296" vol="195" len="12" pan="0" key="47"/>
          <note pos="1308" vol="195" len="12" pan="0" key="47"/>
          <note pos="1320" vol="195" len="12" pan="0" key="47"/>
          <note pos="1332" vol="195" len="12" pan="0" key="47"/>
          <note pos="1332" vol="195" len="36" pan="0" key="0"/>
          <note pos="1344" vol="195" len="48" pan="0" key="56"/>
          <note pos="1344" vol="195" len="48" pan="0" key="49"/>
          <note pos="1368" vol="195" len="36" pan="0" key="1"/>
          <note pos="1392" vol="195" len="12" pan="0" key="49"/>
          <note pos="1404" vol="195" len="12" pan="0" key="49"/>
          <note pos="1416" vol="195" len="12" pan="0" key="49"/>
          <note pos="1428" vol="195" len="12" pan="0" key="49"/>
          <note pos="1440" vol="195" len="12" pan="0" key="50"/>
          <note pos="1452" vol="195" len="12" pan="0" key="50"/>
          <note pos="1464" vol="195" len="12" pan="0" key="50"/>
          <note pos="1464" vol="195" len="36" pan="0" key="1"/>
          <note pos="1476" vol="195" len="12" pan="0" key="50"/>
          <note pos="1488" vol="195" len="12" pan="0" key="50"/>
          <note pos="1500" vol="195" len="12" pan="0" key="50"/>
          <note pos="1512" vol="195" len="12" pan="0" key="50"/>
          <note pos="1524" vol="195" len="12" pan="0" key="50"/>
          <note pos="1524" vol="195" len="36" pan="0" key="0"/>
          <note pos="1536" vol="195" len="48" pan="0" key="46"/>
          <note pos="1536" vol="195" len="48" pan="0" key="39"/>
          <note pos="1560" vol="195" len="36" pan="0" key="1"/>
          <note pos="1584" vol="195" len="12" pan="0" key="39"/>
          <note pos="1596" vol="195" len="12" pan="0" key="39"/>
          <note pos="1608" vol="195" len="12" pan="0" key="39"/>
          <note pos="1620" vol="195" len="12" pan="0" key="39"/>
          <note pos="1632" vol="195" len="12" pan="0" key="39"/>
          <note pos="1644" vol="195" len="12" pan="0" key="39"/>
          <note pos="1656" vol="195" len="12" pan="0" key="39"/>
          <note pos="1668" vol="195" len="12" pan="0" key="39"/>
          <note pos="1680" vol="195" len="12" pan="0" key="39"/>
          <note pos="1692" vol="195" len="12" pan="0" key="39"/>
          <note pos="1704" vol="195" len="12" pan="0" key="39"/>
          <note pos="1716" vol="195" len="12" pan="0" key="39"/>
          <note pos="1716" vol="195" len="36" pan="0" key="0"/>
          <note pos="1728" vol="195" len="48" pan="0" key="56"/>
          <note pos="1728" vol="195" len="48" pan="0" key="49"/>
          <note pos="1752" vol="195" len="36" pan="0" key="1"/>
          <note pos="1776" vol="195" len="12" pan="0" key="49"/>
          <note pos="1788" vol="195" len="12" pan="0" key="49"/>
          <note pos="1800" vol="195" len="12" pan="0" key="49"/>
          <note pos="1812" vol="195" len="12" pan="0" key="49"/>
          <note pos="1824" vol="195" len="12" pan="0" key="49"/>
          <note pos="1836" vol="195" len="12" pan="0" key="49"/>
          <note pos="1848" vol="195" len="12" pan="0" key="49"/>
          <note pos="1860" vol="195" len="12" pan="0" key="49"/>
          <note pos="1872" vol="195" len="12" pan="0" key="49"/>
          <note pos="1884" vol="195" len="12" pan="0" key="49"/>
          <note pos="1896" vol="195" len="12" pan="0" key="49"/>
          <note pos="1908" vol="195" len="12" pan="0" key="49"/>
          <note pos="1908" vol="195" len="36" pan="0" key="0"/>
          <note pos="1920" vol="195" len="48" pan="0" key="56"/>
          <note pos="1920" vol="195" len="48" pan="0" key="48"/>
          <note pos="1944" vol="195" len="36" pan="0" key="1"/>
          <note pos="1968" vol="195" len="12" pan="0" key="48"/>
          <note pos="1980" vol="195" len="12" pan="0" key="48"/>
          <note pos="1992" vol="195" len="12" pan="0" key="48"/>
          <note pos="2004" vol="195" len="12" pan="0" key="48"/>
          <note pos="2016" vol="195" len="12" pan="0" key="48"/>
          <note pos="2028" vol="195" len="12" pan="0" key="48"/>
          <note pos="2040" vol="195" len="12" pan="0" key="48"/>
          <note pos="2052" vol="195" len="12" pan="0" key="48"/>
          <note pos="2064" vol="195" len="12" pan="0" key="48"/>
          <note pos="2076" vol="195" len="12" pan="0" key="48"/>
          <note pos="2088" vol="195" len="12" pan="0" key="48"/>
          <note pos="2100" vol="195" len="12" pan="0" key="48"/>
          <note pos="2100" vol="195" len="36" pan="0" key="0"/>
          <note pos="2112" vol="195" len="48" pan="0" key="51"/>
          <note pos="2112" vol="195" len="48" pan="0" key="44"/>
          <note pos="2136" vol="195" len="36" pan="0" key="1"/>
          <note pos="2160" vol="195" len="12" pan="0" key="44"/>
          <note pos="2172" vol="195" len="12" pan="0" key="44"/>
          <note pos="2184" vol="195" len="12" pan="0" key="44"/>
          <note pos="2196" vol="195" len="12" pan="0" key="44"/>
          <note pos="2196" vol="195" len="36" pan="0" key="0"/>
          <note pos="2208" vol="195" len="48" pan="0" key="49"/>
          <note pos="2208" vol="195" len="48" pan="0" key="42"/>
          <note pos="2232" vol="195" len="36" pan="0" key="1"/>
          <note pos="2256" vol="195" len="12" pan="0" key="42"/>
          <note pos="2268" vol="195" len="12" pan="0" key="42"/>
          <note pos="2280" vol="195" len="12" pan="0" key="42"/>
          <note pos="2292" vol="195" len="12" pan="0" key="42"/>
          <note pos="2292" vol="195" len="36" pan="0" key="0"/>
          <note pos="2304" vol="195" len="48" pan="0" key="47"/>
          <note pos="2304" vol="195" len="48" pan="0" key="40"/>
          <note pos="2328" vol="195" len="36" pan="0" key="1"/>
          <note pos="2352" vol="195" len="12" pan="0" key="40"/>
          <note pos="2364" vol="195" len="12" pan="0" key="40"/>
          <note pos="2376" vol="195" len="12" pan="0" key="40"/>
          <note pos="2388" vol="195" len="12" pan="0" key="40"/>
          <note pos="2400" vol="195" len="12" pan="0" key="40"/>
          <note pos="2412" vol="195" len="12" pan="0" key="40"/>
          <note pos="2424" vol="195" len="12" pan="0" key="40"/>
          <note pos="2436" vol="195" len="12" pan="0" key="40"/>
          <note pos="2448" vol="195" len="12" pan="0" key="40"/>
          <note pos="2460" vol="195" len="12" pan="0" key="40"/>
          <note pos="2472" vol="195" len="12" pan="0" key="40"/>
          <note pos="2484" vol="195" len="12" pan="0" key="40"/>
          <note pos="2484" vol="195" len="36" pan="0" key="0"/>
          <note pos="2496" vol="195" len="48" pan="0" key="54"/>
          <note pos="2496" vol="195" len="48" pan="0" key="47"/>
          <note pos="2520" vol="195" len="36" pan="0" key="1"/>
          <note pos="2544" vol="195" len="12" pan="0" key="47"/>
          <note pos="2556" vol="195" len="12" pan="0" key="47"/>
          <note pos="2568" vol="195" len="12" pan="0" key="47"/>
          <note pos="2580" vol="195" len="12" pan="0" key="47"/>
          <note pos="2592" vol="195" len="12" pan="0" key="47"/>
          <note pos="2604" vol="195" len="12" pan="0" key="47"/>
          <note pos="2616" vol="195" len="12" pan="0" key="47"/>
          <note pos="2628" vol="195" len="12" pan="0" key="47"/>
          <note pos="2640" vol="195" len="12" pan="0" key="47"/>
          <note pos="2652" vol="195" len="12" pan="0" key="47"/>
          <note pos="2664" vol="195" len="12" pan="0" key="47"/>
          <note pos="2676" vol="195" len="12" pan="0" key="47"/>
          <note pos="2676" vol="195" len="36" pan="0" key="0"/>
          <note pos="2688" vol="195" len="48" pan="0" key="56"/>
          <note pos="2688" vol="195" len="48" pan="0" key="49"/>
          <note pos="2712" vol="195" len="36" pan="0" key="1"/>
          <note pos="2736" vol="195" len="12" pan="0" key="49"/>
          <note pos="2748" vol="195" len="12" pan="0" key="49"/>
          <note pos="2760" vol="195" len="12" pan="0" key="49"/>
          <note pos="2772" vol="195" len="12" pan="0" key="49"/>
          <note pos="2784" vol="195" len="12" pan="0" key="49"/>
          <note pos="2796" vol="195" len="12" pan="0" key="49"/>
          <note pos="2808" vol="195" len="12" pan="0" key="49"/>
          <note pos="2820" vol="195" len="12" pan="0" key="49"/>
          <note pos="2832" vol="195" len="12" pan="0" key="49"/>
          <note pos="2844" vol="195" len="12" pan="0" key="49"/>
          <note pos="2856" vol="195" len="12" pan="0" key="49"/>
          <note pos="2868" vol="195" len="12" pan="0" key="49"/>
          <note pos="2868" vol="195" len="36" pan="0" key="0"/>
          <note pos="2880" vol="197" len="96" pan="0" key="56"/>
          <note pos="2880" vol="197" len="96" pan="0" key="49"/>
          <note pos="2976" vol="197" len="96" pan="0" key="53"/>
          <note pos="2976" vol="197" len="96" pan="0" key="46"/>
        </pattern>
        <pattern name="" steps="16" pos="50304" muted="0" type="1">
          <note pos="0" vol="197" len="48" pan="0" key="46"/>
          <note pos="0" vol="197" len="48" pan="0" key="39"/>
          <note pos="0" vol="197" len="36" pan="0" key="0"/>
          <note pos="36" vol="197" len="36" pan="0" key="1"/>
          <note pos="48" vol="197" len="24" pan="0" key="39"/>
          <note pos="72" vol="197" len="24" pan="0" key="39"/>
          <note pos="96" vol="197" len="24" pan="0" key="39"/>
          <note pos="120" vol="197" len="24" pan="0" key="39"/>
          <note pos="144" vol="197" len="24" pan="0" key="39"/>
          <note pos="168" vol="197" len="12" pan="0" key="39"/>
          <note pos="180" vol="197" len="12" pan="0" key="39"/>
          <note pos="192" vol="197" len="24" pan="0" key="39"/>
          <note pos="216" vol="197" len="24" pan="0" key="39"/>
          <note pos="240" vol="197" len="12" pan="0" key="39"/>
          <note pos="252" vol="197" len="12" pan="0" key="39"/>
          <note pos="264" vol="197" len="24" pan="0" key="39"/>
          <note pos="288" vol="197" len="24" pan="0" key="39"/>
          <note pos="312" vol="197" len="24" pan="0" key="39"/>
          <note pos="324" vol="197" len="48" pan="0" key="0"/>
          <note pos="336" vol="197" len="48" pan="0" key="46"/>
          <note pos="336" vol="197" len="48" pan="0" key="39"/>
        </pattern>
        <pattern name="" steps="16" pos="50688" muted="0" type="1">
          <note pos="0" vol="197" len="48" pan="0" key="46"/>
          <note pos="0" vol="197" len="48" pan="0" key="39"/>
          <note pos="0" vol="197" len="36" pan="0" key="0"/>
          <note pos="36" vol="197" len="36" pan="0" key="1"/>
          <note pos="48" vol="197" len="24" pan="0" key="39"/>
          <note pos="72" vol="197" len="24" pan="0" key="39"/>
          <note pos="96" vol="197" len="24" pan="0" key="39"/>
          <note pos="120" vol="197" len="24" pan="0" key="39"/>
          <note pos="144" vol="197" len="24" pan="0" key="39"/>
          <note pos="168" vol="197" len="12" pan="0" key="39"/>
          <note pos="180" vol="197" len="12" pan="0" key="39"/>
          <note pos="192" vol="197" len="24" pan="0" key="39"/>
          <note pos="216" vol="197" len="24" pan="0" key="39"/>
          <note pos="240" vol="197" len="12" pan="0" key="39"/>
          <note pos="252" vol="197" len="12" pan="0" key="39"/>
          <note pos="264" vol="197" len="24" pan="0" key="39"/>
          <note pos="288" vol="197" len="24" pan="0" key="39"/>
          <note pos="312" vol="197" len="24" pan="0" key="39"/>
          <note pos="324" vol="197" len="48" pan="0" key="0"/>
          <note pos="336" vol="197" len="48" pan="0" key="46"/>
          <note pos="336" vol="197" len="48" pan="0" key="39"/>
        </pattern>
        <pattern name="" steps="16" pos="51072" muted="0" type="1">
          <note pos="0" vol="197" len="48" pan="0" key="46"/>
          <note pos="0" vol="197" len="48" pan="0" key="39"/>
          <note pos="0" vol="197" len="36" pan="0" key="0"/>
          <note pos="36" vol="197" len="36" pan="0" key="1"/>
          <note pos="48" vol="197" len="24" pan="0" key="39"/>
          <note pos="72" vol="197" len="24" pan="0" key="39"/>
          <note pos="96" vol="197" len="24" pan="0" key="39"/>
          <note pos="120" vol="197" len="24" pan="0" key="39"/>
          <note pos="144" vol="197" len="24" pan="0" key="39"/>
          <note pos="168" vol="197" len="12" pan="0" key="39"/>
          <note pos="180" vol="197" len="12" pan="0" key="39"/>
          <note pos="192" vol="197" len="24" pan="0" key="39"/>
          <note pos="216" vol="197" len="24" pan="0" key="39"/>
          <note pos="240" vol="197" len="12" pan="0" key="39"/>
          <note pos="252" vol="197" len="12" pan="0" key="39"/>
          <note pos="264" vol="197" len="24" pan="0" key="39"/>
          <note pos="288" vol="197" len="24" pan="0" key="39"/>
          <note pos="312" vol="197" len="24" pan="0" key="39"/>
          <note pos="324" vol="197" len="48" pan="0" key="0"/>
          <note pos="336" vol="197" len="48" pan="0" key="46"/>
          <note pos="336" vol="197" len="48" pan="0" key="39"/>
        </pattern>
        <pattern name="" steps="16" pos="51456" muted="0" type="1">
          <note pos="0" vol="197" len="48" pan="0" key="46"/>
          <note pos="0" vol="197" len="48" pan="0" key="39"/>
          <note pos="0" vol="197" len="36" pan="0" key="0"/>
          <note pos="36" vol="197" len="36" pan="0" key="1"/>
          <note pos="48" vol="197" len="24" pan="0" key="39"/>
          <note pos="72" vol="197" len="24" pan="0" key="39"/>
          <note pos="96" vol="197" len="24" pan="0" key="39"/>
          <note pos="120" vol="197" len="24" pan="0" key="39"/>
          <note pos="144" vol="197" len="24" pan="0" key="39"/>
          <note pos="168" vol="197" len="12" pan="0" key="39"/>
          <note pos="180" vol="197" len="12" pan="0" key="39"/>
          <note pos="192" vol="197" len="24" pan="0" key="39"/>
          <note pos="216" vol="197" len="24" pan="0" key="39"/>
          <note pos="240" vol="197" len="12" pan="0" key="39"/>
          <note pos="252" vol="197" len="12" pan="0" key="39"/>
          <note pos="264" vol="197" len="24" pan="0" key="39"/>
          <note pos="288" vol="197" len="24" pan="0" key="39"/>
          <note pos="312" vol="197" len="24" pan="0" key="39"/>
          <note pos="324" vol="197" len="48" pan="0" key="0"/>
          <note pos="336" vol="197" len="48" pan="0" key="46"/>
          <note pos="336" vol="197" len="48" pan="0" key="39"/>
        </pattern>
        <pattern name="" steps="16" pos="51840" muted="0" type="1">
          <note pos="0" vol="197" len="48" pan="0" key="47"/>
          <note pos="0" vol="197" len="48" pan="0" key="40"/>
          <note pos="0" vol="197" len="36" pan="0" key="0"/>
          <note pos="36" vol="197" len="36" pan="0" key="1"/>
          <note pos="48" vol="197" len="24" pan="0" key="40"/>
          <note pos="72" vol="197" len="24" pan="0" key="40"/>
          <note pos="96" vol="197" len="24" pan="0" key="40"/>
          <note pos="120" vol="197" len="24" pan="0" key="40"/>
          <note pos="144" vol="197" len="24" pan="0" key="40"/>
          <note pos="168" vol="197" len="12" pan="0" key="40"/>
          <note pos="180" vol="197" len="12" pan="0" key="40"/>
          <note pos="192" vol="197" len="24" pan="0" key="40"/>
          <note pos="216" vol="197" len="24" pan="0" key="40"/>
          <note pos="240" vol="197" len="12" pan="0" key="40"/>
          <note pos="252" vol="197" len="12" pan="0" key="40"/>
          <note pos="264" vol="197" len="24" pan="0" key="40"/>
          <note pos="288" vol="197" len="24" pan="0" key="40"/>
          <note pos="312" vol="197" len="24" pan="0" key="40"/>
          <note pos="324" vol="197" len="48" pan="0" key="0"/>
          <note pos="336" vol="197" len="48" pan="0" key="47"/>
          <note pos="336" vol="197" len="48" pan="0" key="40"/>
        </pattern>
        <pattern name="" steps="16" pos="52224" muted="0" type="1">
          <note pos="0" vol="197" len="48" pan="0" key="46"/>
          <note pos="0" vol="197" len="48" pan="0" key="39"/>
          <note pos="0" vol="197" len="36" pan="0" key="0"/>
          <note pos="36" vol="197" len="36" pan="0" key="1"/>
          <note pos="48" vol="197" len="24" pan="0" key="39"/>
          <note pos="72" vol="197" len="24" pan="0" key="39"/>
          <note pos="96" vol="197" len="24" pan="0" key="39"/>
          <note pos="120" vol="197" len="24" pan="0" key="39"/>
          <note pos="144" vol="197" len="24" pan="0" key="39"/>
          <note pos="168" vol="197" len="12" pan="0" key="39"/>
          <note pos="180" vol="197" len="12" pan="0" key="39"/>
          <note pos="192" vol="197" len="24" pan="0" key="39"/>
          <note pos="216" vol="197" len="24" pan="0" key="39"/>
          <note pos="240" vol="197" len="12" pan="0" key="39"/>
          <note pos="252" vol="197" len="12" pan="0" key="39"/>
          <note pos="264" vol="197" len="24" pan="0" key="39"/>
          <note pos="288" vol="197" len="24" pan="0" key="39"/>
          <note pos="312" vol="197" len="24" pan="0" key="39"/>
          <note pos="324" vol="197" len="48" pan="0" key="0"/>
          <note pos="336" vol="197" len="48" pan="0" key="46"/>
          <note pos="336" vol="197" len="48" pan="0" key="39"/>
        </pattern>
        <pattern name="" steps="16" pos="52608" muted="0" type="1">
          <note pos="0" vol="197" len="48" pan="0" key="51"/>
          <note pos="0" vol="197" len="48" pan="0" key="44"/>
          <note pos="0" vol="197" len="36" pan="0" key="0"/>
          <note pos="36" vol="197" len="36" pan="0" key="1"/>
          <note pos="48" vol="197" len="24" pan="0" key="44"/>
          <note pos="72" vol="197" len="24" pan="0" key="44"/>
          <note pos="96" vol="197" len="24" pan="0" key="44"/>
          <note pos="120" vol="197" len="24" pan="0" key="44"/>
          <note pos="144" vol="197" len="24" pan="0" key="44"/>
          <note pos="168" vol="197" len="12" pan="0" key="44"/>
          <note pos="180" vol="197" len="12" pan="0" key="44"/>
          <note pos="192" vol="197" len="24" pan="0" key="44"/>
          <note pos="216" vol="197" len="24" pan="0" key="44"/>
          <note pos="240" vol="197" len="12" pan="0" key="44"/>
          <note pos="252" vol="197" len="12" pan="0" key="44"/>
          <note pos="264" vol="197" len="24" pan="0" key="44"/>
          <note pos="288" vol="197" len="24" pan="0" key="44"/>
          <note pos="312" vol="197" len="24" pan="0" key="44"/>
          <note pos="324" vol="197" len="48" pan="0" key="0"/>
          <note pos="336" vol="197" len="48" pan="0" key="51"/>
          <note pos="336" vol="197" len="48" pan="0" key="44"/>
        </pattern>
        <pattern name="" steps="16" pos="53376" muted="0" type="1">
          <note pos="0" vol="195" len="48" pan="0" key="42"/>
          <note pos="0" vol="195" len="48" pan="0" key="35"/>
          <note pos="0" vol="195" len="24" pan="0" key="0"/>
          <note pos="24" vol="195" len="24" pan="0" key="1"/>
          <note pos="48" vol="195" len="12" pan="0" key="35"/>
          <note pos="60" vol="195" len="12" pan="0" key="35"/>
          <note pos="72" vol="195" len="12" pan="0" key="35"/>
          <note pos="84" vol="195" len="12" pan="0" key="35"/>
          <note pos="96" vol="195" len="12" pan="0" key="35"/>
          <note pos="108" vol="195" len="12" pan="0" key="35"/>
          <note pos="120" vol="195" len="12" pan="0" key="35"/>
          <note pos="132" vol="195" len="12" pan="0" key="35"/>
          <note pos="144" vol="195" len="12" pan="0" key="35"/>
          <note pos="156" vol="195" len="12" pan="0" key="35"/>
          <note pos="168" vol="195" len="12" pan="0" key="35"/>
          <note pos="180" vol="195" len="12" pan="0" key="35"/>
          <note pos="192" vol="195" len="48" pan="0" key="44"/>
          <note pos="192" vol="195" len="48" pan="0" key="37"/>
          <note pos="192" vol="195" len="48" pan="0" key="0"/>
          <note pos="216" vol="195" len="48" pan="0" key="1"/>
          <note pos="240" vol="195" len="12" pan="0" key="37"/>
          <note pos="252" vol="195" len="12" pan="0" key="37"/>
          <note pos="264" vol="195" len="12" pan="0" key="37"/>
          <note pos="276" vol="195" len="12" pan="0" key="37"/>
          <note pos="288" vol="195" len="12" pan="0" key="37"/>
          <note pos="300" vol="195" len="12" pan="0" key="37"/>
          <note pos="312" vol="195" len="12" pan="0" key="37"/>
          <note pos="324" vol="195" len="12" pan="0" key="37"/>
          <note pos="336" vol="195" len="12" pan="0" key="37"/>
          <note pos="348" vol="195" len="12" pan="0" key="37"/>
          <note pos="360" vol="195" len="12" pan="0" key="37"/>
          <note pos="372" vol="195" len="12" pan="0" key="37"/>
        </pattern>
        <pattern name="" steps="16" pos="53760" muted="0" type="1">
          <note pos="0" vol="195" len="48" pan="0" key="46"/>
          <note pos="0" vol="195" len="48" pan="0" key="39"/>
          <note pos="0" vol="195" len="24" pan="0" key="0"/>
          <note pos="24" vol="195" len="24" pan="0" key="1"/>
          <note pos="48" vol="195" len="12" pan="0" key="39"/>
          <note pos="60" vol="195" len="12" pan="0" key="39"/>
          <note pos="72" vol="195" len="12" pan="0" key="39"/>
          <note pos="84" vol="195" len="12" pan="0" key="39"/>
          <note pos="96" vol="195" len="12" pan="0" key="39"/>
          <note pos="108" vol="195" len="12" pan="0" key="39"/>
          <note pos="120" vol="195" len="12" pan="0" key="39"/>
          <note pos="132" vol="195" len="12" pan="0" key="39"/>
          <note pos="144" vol="195" len="12" pan="0" key="39"/>
          <note pos="156" vol="195" len="12" pan="0" key="39"/>
          <note pos="168" vol="195" len="12" pan="0" key="39"/>
          <note pos="180" vol="195" len="12" pan="0" key="39"/>
          <note pos="192" vol="195" len="12" pan="0" key="39"/>
          <note pos="204" vol="195" len="12" pan="0" key="39"/>
          <note pos="216" vol="195" len="12" pan="0" key="39"/>
          <note pos="228" vol="195" len="12" pan="0" key="39"/>
          <note pos="240" vol="195" len="12" pan="0" key="39"/>
          <note pos="252" vol="195" len="12" pan="0" key="39"/>
          <note pos="264" vol="195" len="12" pan="0" key="39"/>
          <note pos="276" vol="195" len="12" pan="0" key="39"/>
          <note pos="288" vol="195" len="12" pan="0" key="39"/>
          <note pos="300" vol="195" len="12" pan="0" key="39"/>
          <note pos="312" vol="195" len="12" pan="0" key="39"/>
          <note pos="324" vol="195" len="12" pan="0" key="39"/>
          <note pos="336" vol="195" len="12" pan="0" key="39"/>
          <note pos="348" vol="195" len="12" pan="0" key="39"/>
          <note pos="360" vol="195" len="12" pan="0" key="39"/>
          <note pos="372" vol="195" len="12" pan="0" key="39"/>
        </pattern>
        <pattern name="" steps="16" pos="54144" muted="0" type="1">
          <note pos="0" vol="195" len="48" pan="0" key="44"/>
          <note pos="0" vol="195" len="48" pan="0" key="37"/>
          <note pos="0" vol="195" len="24" pan="0" key="0"/>
          <note pos="24" vol="195" len="24" pan="0" key="1"/>
          <note pos="48" vol="195" len="12" pan="0" key="37"/>
          <note pos="60" vol="195" len="12" pan="0" key="37"/>
          <note pos="72" vol="195" len="12" pan="0" key="37"/>
          <note pos="84" vol="195" len="12" pan="0" key="37"/>
          <note pos="96" vol="195" len="12" pan="0" key="37"/>
          <note pos="108" vol="195" len="12" pan="0" key="37"/>
          <note pos="120" vol="195" len="12" pan="0" key="37"/>
          <note pos="132" vol="195" len="12" pan="0" key="37"/>
          <note pos="144" vol="195" len="12" pan="0" key="37"/>
          <note pos="156" vol="195" len="12" pan="0" key="37"/>
          <note pos="168" vol="195" len="12" pan="0" key="37"/>
          <note pos="180" vol="195" len="12" pan="0" key="37"/>
        </pattern>
        <pattern name="" steps="16" pos="54336" muted="0" type="1">
          <note pos="0" vol="195" len="48" pan="0" key="44"/>
          <note pos="0" vol="195" len="48" pan="0" key="37"/>
          <note pos="0" vol="195" len="24" pan="0" key="0"/>
          <note pos="24" vol="195" len="24" pan="0" key="1"/>
          <note pos="48" vol="195" len="12" pan="0" key="37"/>
          <note pos="60" vol="195" len="12" pan="0" key="37"/>
          <note pos="72" vol="195" len="12" pan="0" key="37"/>
          <note pos="84" vol="195" len="12" pan="0" key="37"/>
          <note pos="96" vol="195" len="12" pan="0" key="37"/>
          <note pos="108" vol="195" len="12" pan="0" key="37"/>
          <note pos="120" vol="195" len="12" pan="0" key="37"/>
          <note pos="132" vol="195" len="12" pan="0" key="37"/>
          <note pos="144" vol="195" len="12" pan="0" key="37"/>
          <note pos="156" vol="195" len="12" pan="0" key="37"/>
          <note pos="168" vol="195" len="12" pan="0" key="37"/>
          <note pos="180" vol="195" len="12" pan="0" key="37"/>
        </pattern>
        <pattern name="" steps="16" pos="54528" muted="0" type="1">
          <note pos="0" vol="195" len="48" pan="0" key="51"/>
          <note pos="0" vol="195" len="48" pan="0" key="44"/>
          <note pos="0" vol="195" len="24" pan="0" key="0"/>
          <note pos="24" vol="195" len="24" pan="0" key="1"/>
          <note pos="48" vol="195" len="12" pan="0" key="44"/>
          <note pos="60" vol="195" len="12" pan="0" key="44"/>
          <note pos="72" vol="195" len="12" pan="0" key="44"/>
          <note pos="84" vol="195" len="12" pan="0" key="44"/>
          <note pos="96" vol="195" len="12" pan="0" key="44"/>
          <note pos="108" vol="195" len="12" pan="0" key="44"/>
          <note pos="120" vol="195" len="12" pan="0" key="44"/>
          <note pos="132" vol="195" len="12" pan="0" key="44"/>
          <note pos="144" vol="195" len="12" pan="0" key="44"/>
          <note pos="156" vol="195" len="12" pan="0" key="44"/>
          <note pos="168" vol="195" len="12" pan="0" key="44"/>
          <note pos="180" vol="195" len="12" pan="0" key="44"/>
          <note pos="192" vol="195" len="12" pan="0" key="44"/>
          <note pos="204" vol="195" len="12" pan="0" key="44"/>
          <note pos="216" vol="195" len="12" pan="0" key="44"/>
          <note pos="228" vol="195" len="12" pan="0" key="44"/>
          <note pos="240" vol="195" len="12" pan="0" key="44"/>
          <note pos="252" vol="195" len="12" pan="0" key="44"/>
          <note pos="264" vol="195" len="12" pan="0" key="44"/>
          <note pos="276" vol="195" len="12" pan="0" key="44"/>
          <note pos="288" vol="195" len="12" pan="0" key="44"/>
          <note pos="300" vol="195" len="12" pan="0" key="44"/>
          <note pos="312" vol="195" len="12" pan="0" key="44"/>
          <note pos="324" vol="195" len="12" pan="0" key="44"/>
          <note pos="336" vol="195" len="12" pan="0" key="44"/>
          <note pos="348" vol="195" len="12" pan="0" key="44"/>
          <note pos="360" vol="195" len="12" pan="0" key="44"/>
          <note pos="372" vol="195" len="12" pan="0" key="44"/>
        </pattern>
        <pattern name="" steps="16" pos="54912" muted="0" type="1">
          <note pos="0" vol="195" len="48" pan="0" key="42"/>
          <note pos="0" vol="195" len="48" pan="0" key="35"/>
          <note pos="0" vol="195" len="24" pan="0" key="0"/>
          <note pos="24" vol="195" len="24" pan="0" key="1"/>
          <note pos="48" vol="195" len="12" pan="0" key="35"/>
          <note pos="60" vol="195" len="12" pan="0" key="35"/>
          <note pos="72" vol="195" len="12" pan="0" key="35"/>
          <note pos="84" vol="195" len="12" pan="0" key="35"/>
          <note pos="96" vol="195" len="12" pan="0" key="35"/>
          <note pos="108" vol="195" len="12" pan="0" key="35"/>
          <note pos="120" vol="195" len="12" pan="0" key="35"/>
          <note pos="132" vol="195" len="12" pan="0" key="35"/>
          <note pos="144" vol="195" len="12" pan="0" key="35"/>
          <note pos="156" vol="195" len="12" pan="0" key="35"/>
          <note pos="168" vol="195" len="12" pan="0" key="35"/>
          <note pos="180" vol="195" len="12" pan="0" key="35"/>
          <note pos="192" vol="195" len="48" pan="0" key="44"/>
          <note pos="192" vol="195" len="48" pan="0" key="37"/>
          <note pos="192" vol="195" len="48" pan="0" key="0"/>
          <note pos="216" vol="195" len="48" pan="0" key="1"/>
          <note pos="240" vol="195" len="12" pan="0" key="37"/>
          <note pos="252" vol="195" len="12" pan="0" key="37"/>
          <note pos="264" vol="195" len="12" pan="0" key="37"/>
          <note pos="276" vol="195" len="12" pan="0" key="37"/>
          <note pos="288" vol="195" len="12" pan="0" key="37"/>
          <note pos="300" vol="195" len="12" pan="0" key="37"/>
          <note pos="312" vol="195" len="12" pan="0" key="37"/>
          <note pos="324" vol="195" len="12" pan="0" key="37"/>
          <note pos="336" vol="195" len="12" pan="0" key="37"/>
          <note pos="348" vol="195" len="12" pan="0" key="37"/>
          <note pos="360" vol="195" len="12" pan="0" key="37"/>
          <note pos="372" vol="195" len="12" pan="0" key="37"/>
        </pattern>
        <pattern name="" steps="16" pos="55296" muted="0" type="1">
          <note pos="0" vol="195" len="48" pan="0" key="46"/>
          <note pos="0" vol="195" len="48" pan="0" key="39"/>
          <note pos="0" vol="195" len="24" pan="0" key="0"/>
          <note pos="24" vol="195" len="24" pan="0" key="1"/>
          <note pos="48" vol="195" len="12" pan="0" key="39"/>
          <note pos="60" vol="195" len="12" pan="0" key="39"/>
          <note pos="72" vol="195" len="12" pan="0" key="39"/>
          <note pos="84" vol="195" len="12" pan="0" key="39"/>
          <note pos="96" vol="195" len="12" pan="0" key="39"/>
          <note pos="108" vol="195" len="12" pan="0" key="39"/>
          <note pos="120" vol="195" len="12" pan="0" key="39"/>
          <note pos="132" vol="195" len="12" pan="0" key="39"/>
          <note pos="144" vol="195" len="12" pan="0" key="39"/>
          <note pos="156" vol="195" len="12" pan="0" key="39"/>
          <note pos="168" vol="195" len="12" pan="0" key="39"/>
          <note pos="180" vol="195" len="12" pan="0" key="39"/>
          <note pos="192" vol="195" len="12" pan="0" key="39"/>
          <note pos="204" vol="195" len="12" pan="0" key="39"/>
          <note pos="216" vol="195" len="12" pan="0" key="39"/>
          <note pos="228" vol="195" len="12" pan="0" key="39"/>
          <note pos="240" vol="195" len="12" pan="0" key="39"/>
          <note pos="252" vol="195" len="12" pan="0" key="39"/>
          <note pos="264" vol="195" len="12" pan="0" key="39"/>
          <note pos="276" vol="195" len="12" pan="0" key="39"/>
          <note pos="288" vol="195" len="12" pan="0" key="39"/>
          <note pos="300" vol="195" len="12" pan="0" key="39"/>
          <note pos="312" vol="195" len="12" pan="0" key="39"/>
          <note pos="324" vol="195" len="12" pan="0" key="39"/>
          <note pos="336" vol="195" len="12" pan="0" key="39"/>
          <note pos="348" vol="195" len="12" pan="0" key="39"/>
          <note pos="360" vol="195" len="12" pan="0" key="39"/>
          <note pos="372" vol="195" len="12" pan="0" key="39"/>
        </pattern>
        <pattern name="" steps="16" pos="55680" muted="0" type="1">
          <note pos="0" vol="195" len="48" pan="0" key="51"/>
          <note pos="0" vol="195" len="48" pan="0" key="44"/>
          <note pos="0" vol="195" len="24" pan="0" key="0"/>
          <note pos="24" vol="195" len="24" pan="0" key="1"/>
          <note pos="48" vol="195" len="12" pan="0" key="44"/>
          <note pos="60" vol="195" len="12" pan="0" key="44"/>
          <note pos="72" vol="195" len="12" pan="0" key="44"/>
          <note pos="84" vol="195" len="12" pan="0" key="44"/>
          <note pos="96" vol="195" len="12" pan="0" key="44"/>
          <note pos="108" vol="195" len="12" pan="0" key="44"/>
          <note pos="120" vol="195" len="12" pan="0" key="44"/>
          <note pos="132" vol="195" len="12" pan="0" key="44"/>
          <note pos="144" vol="195" len="12" pan="0" key="44"/>
          <note pos="156" vol="195" len="12" pan="0" key="44"/>
          <note pos="168" vol="195" len="12" pan="0" key="44"/>
          <note pos="180" vol="195" len="12" pan="0" key="44"/>
          <note pos="192" vol="195" len="12" pan="0" key="44"/>
          <note pos="204" vol="195" len="12" pan="0" key="44"/>
          <note pos="216" vol="195" len="12" pan="0" key="44"/>
          <note pos="228" vol="195" len="12" pan="0" key="44"/>
          <note pos="240" vol="195" len="12" pan="0" key="44"/>
          <note pos="252" vol="195" len="12" pan="0" key="44"/>
          <note pos="264" vol="195" len="12" pan="0" key="44"/>
          <note pos="276" vol="195" len="12" pan="0" key="44"/>
          <note pos="288" vol="195" len="12" pan="0" key="44"/>
          <note pos="300" vol="195" len="12" pan="0" key="44"/>
          <note pos="312" vol="195" len="12" pan="0" key="44"/>
          <note pos="324" vol="195" len="12" pan="0" key="44"/>
          <note pos="336" vol="195" len="12" pan="0" key="44"/>
          <note pos="348" vol="195" len="12" pan="0" key="44"/>
          <note pos="360" vol="195" len="12" pan="0" key="44"/>
          <note pos="372" vol="195" len="12" pan="0" key="44"/>
        </pattern>
        <pattern name="" steps="16" pos="56064" muted="0" type="1">
          <note pos="0" vol="197" len="192" pan="0" key="42"/>
          <note pos="0" vol="197" len="192" pan="0" key="35"/>
          <note pos="0" vol="197" len="96" pan="0" key="0"/>
          <note pos="192" vol="197" len="96" pan="0" key="44"/>
          <note pos="192" vol="197" len="96" pan="0" key="37"/>
          <note pos="288" vol="197" len="96" pan="0" key="44"/>
          <note pos="288" vol="197" len="96" pan="0" key="37"/>
        </pattern>
        <pattern name="" steps="16" pos="56448" muted="0" type="1">
          <note pos="0" vol="78" len="384" pan="0" key="46"/>
          <note pos="0" vol="78" len="384" pan="0" key="39"/>
          <note pos="0" vol="78" len="192" pan="0" key="0"/>
          <note pos="384" vol="78" len="384" pan="0" key="44"/>
          <note pos="384" vol="78" len="384" pan="0" key="37"/>
          <note pos="768" vol="78" len="384" pan="0" key="44"/>
          <note pos="768" vol="78" len="384" pan="0" key="36"/>
          <note pos="1152" vol="78" len="384" pan="0" key="47"/>
          <note pos="1152" vol="78" len="384" pan="0" key="40"/>
          <note pos="1536" vol="78" len="384" pan="0" key="46"/>
          <note pos="1536" vol="78" len="384" pan="0" key="39"/>
          <note pos="1920" vol="78" len="384" pan="0" key="44"/>
          <note pos="1920" vol="78" len="384" pan="0" key="37"/>
          <note pos="2304" vol="78" len="384" pan="0" key="44"/>
          <note pos="2304" vol="78" len="384" pan="0" key="36"/>
          <note pos="2688" vol="78" len="384" pan="0" key="47"/>
          <note pos="2688" vol="78" len="384" pan="0" key="40"/>
        </pattern>
        <pattern name="" steps="16" pos="52992" muted="0" type="1">
          <note pos="0" vol="197" len="48" pan="0" key="49"/>
          <note pos="0" vol="197" len="48" pan="0" key="42"/>
          <note pos="0" vol="197" len="36" pan="0" key="0"/>
          <note pos="36" vol="197" len="36" pan="0" key="1"/>
          <note pos="48" vol="197" len="24" pan="0" key="42"/>
          <note pos="72" vol="197" len="24" pan="0" key="42"/>
          <note pos="96" vol="197" len="24" pan="0" key="42"/>
          <note pos="120" vol="197" len="24" pan="0" key="42"/>
          <note pos="144" vol="197" len="24" pan="0" key="42"/>
          <note pos="168" vol="197" len="12" pan="0" key="42"/>
          <note pos="180" vol="197" len="12" pan="0" key="42"/>
          <note pos="192" vol="197" len="24" pan="0" key="42"/>
          <note pos="216" vol="197" len="24" pan="0" key="42"/>
          <note pos="240" vol="197" len="12" pan="0" key="42"/>
          <note pos="252" vol="197" len="12" pan="0" key="42"/>
          <note pos="264" vol="197" len="24" pan="0" key="42"/>
          <note pos="288" vol="197" len="24" pan="0" key="42"/>
          <note pos="312" vol="197" len="24" pan="0" key="42"/>
          <note pos="324" vol="197" len="48" pan="0" key="0"/>
          <note pos="336" vol="197" len="48" pan="0" key="49"/>
          <note pos="336" vol="197" len="48" pan="0" key="42"/>
        </pattern>
        <pattern name="" steps="16" pos="7680" muted="0" type="1">
          <note pos="0" vol="78" len="24" pan="0" key="46"/>
          <note pos="0" vol="78" len="24" pan="0" key="39"/>
          <note pos="0" vol="78" len="12" pan="0" key="0"/>
          <note pos="12" vol="78" len="12" pan="0" key="1"/>
          <note pos="24" vol="78" len="12" pan="0" key="39"/>
          <note pos="36" vol="78" len="12" pan="0" key="39"/>
          <note pos="48" vol="78" len="12" pan="0" key="39"/>
          <note pos="60" vol="78" len="12" pan="0" key="39"/>
          <note pos="72" vol="78" len="12" pan="0" key="39"/>
          <note pos="84" vol="78" len="12" pan="0" key="39"/>
          <note pos="96" vol="78" len="12" pan="0" key="39"/>
          <note pos="108" vol="78" len="12" pan="0" key="39"/>
          <note pos="120" vol="78" len="12" pan="0" key="39"/>
          <note pos="132" vol="78" len="12" pan="0" key="39"/>
          <note pos="144" vol="78" len="12" pan="0" key="39"/>
          <note pos="156" vol="78" len="12" pan="0" key="39"/>
          <note pos="168" vol="78" len="12" pan="0" key="39"/>
          <note pos="180" vol="78" len="12" pan="0" key="39"/>
          <note pos="192" vol="78" len="96" pan="0" key="52"/>
          <note pos="192" vol="78" len="96" pan="0" key="45"/>
          <note pos="192" vol="78" len="12" pan="0" key="0"/>
          <note pos="288" vol="78" len="96" pan="0" key="51"/>
          <note pos="288" vol="78" len="96" pan="0" key="44"/>
        </pattern>
        <pattern name="" steps="16" pos="7296" muted="0" type="1">
          <note pos="0" vol="191" len="12" pan="0" key="45"/>
          <note pos="0" vol="191" len="12" pan="0" key="1"/>
          <note pos="12" vol="191" len="12" pan="0" key="45"/>
          <note pos="24" vol="191" len="12" pan="0" key="42"/>
          <note pos="36" vol="191" len="12" pan="0" key="42"/>
          <note pos="48" vol="191" len="12" pan="0" key="45"/>
          <note pos="60" vol="191" len="12" pan="0" key="45"/>
          <note pos="72" vol="191" len="12" pan="0" key="49"/>
          <note pos="84" vol="191" len="12" pan="0" key="49"/>
          <note pos="96" vol="191" len="48" pan="0" key="52"/>
          <note pos="96" vol="191" len="12" pan="0" key="0"/>
          <note pos="144" vol="191" len="24" pan="0" key="51"/>
          <note pos="168" vol="191" len="24" pan="0" key="49"/>
          <note pos="192" vol="191" len="12" pan="0" key="44"/>
          <note pos="192" vol="191" len="12" pan="0" key="1"/>
          <note pos="204" vol="191" len="12" pan="0" key="44"/>
          <note pos="216" vol="191" len="12" pan="0" key="42"/>
          <note pos="228" vol="191" len="12" pan="0" key="42"/>
          <note pos="240" vol="191" len="12" pan="0" key="40"/>
          <note pos="252" vol="191" len="12" pan="0" key="40"/>
          <note pos="264" vol="191" len="12" pan="0" key="39"/>
          <note pos="276" vol="191" len="12" pan="0" key="39"/>
          <note pos="288" vol="191" len="12" pan="0" key="37"/>
          <note pos="300" vol="191" len="12" pan="0" key="37"/>
          <note pos="312" vol="191" len="12" pan="0" key="39"/>
          <note pos="324" vol="191" len="12" pan="0" key="39"/>
          <note pos="336" vol="191" len="12" pan="0" key="40"/>
          <note pos="348" vol="191" len="12" pan="0" key="40"/>
          <note pos="360" vol="191" len="12" pan="0" key="44"/>
          <note pos="372" vol="191" len="12" pan="0" key="44"/>
        </pattern>
        <pattern name="" steps="16" pos="59520" muted="0" type="1">
          <note pos="0" vol="78" len="48" pan="0" key="46"/>
          <note pos="0" vol="78" len="48" pan="0" key="39"/>
          <note pos="0" vol="78" len="24" pan="0" key="0"/>
          <note pos="24" vol="78" len="24" pan="0" key="1"/>
          <note pos="48" vol="78" len="12" pan="0" key="39"/>
          <note pos="60" vol="78" len="12" pan="0" key="39"/>
          <note pos="72" vol="78" len="12" pan="0" key="39"/>
          <note pos="84" vol="78" len="12" pan="0" key="39"/>
          <note pos="96" vol="78" len="12" pan="0" key="39"/>
          <note pos="108" vol="78" len="12" pan="0" key="39"/>
          <note pos="120" vol="78" len="12" pan="0" key="39"/>
          <note pos="132" vol="78" len="12" pan="0" key="39"/>
          <note pos="144" vol="78" len="12" pan="0" key="39"/>
          <note pos="156" vol="78" len="12" pan="0" key="39"/>
          <note pos="168" vol="78" len="12" pan="0" key="39"/>
          <note pos="180" vol="78" len="12" pan="0" key="39"/>
          <note pos="192" vol="78" len="12" pan="0" key="39"/>
          <note pos="204" vol="78" len="12" pan="0" key="39"/>
          <note pos="216" vol="78" len="12" pan="0" key="39"/>
          <note pos="228" vol="78" len="12" pan="0" key="39"/>
          <note pos="240" vol="78" len="12" pan="0" key="39"/>
          <note pos="252" vol="78" len="12" pan="0" key="39"/>
          <note pos="264" vol="78" len="12" pan="0" key="39"/>
          <note pos="276" vol="78" len="12" pan="0" key="39"/>
          <note pos="288" vol="78" len="12" pan="0" key="39"/>
          <note pos="300" vol="78" len="12" pan="0" key="39"/>
          <note pos="312" vol="78" len="12" pan="0" key="39"/>
          <note pos="324" vol="78" len="12" pan="0" key="39"/>
          <note pos="336" vol="78" len="12" pan="0" key="39"/>
          <note pos="348" vol="78" len="12" pan="0" key="39"/>
          <note pos="360" vol="78" len="12" pan="0" key="39"/>
          <note pos="372" vol="78" len="12" pan="0" key="39"/>
          <note pos="384" vol="78" len="48" pan="0" key="44"/>
          <note pos="384" vol="78" len="48" pan="0" key="37"/>
          <note pos="384" vol="78" len="24" pan="0" key="0"/>
          <note pos="408" vol="78" len="24" pan="0" key="1"/>
          <note pos="432" vol="78" len="12" pan="0" key="37"/>
          <note pos="444" vol="78" len="12" pan="0" key="37"/>
          <note pos="456" vol="78" len="12" pan="0" key="37"/>
          <note pos="468" vol="78" len="12" pan="0" key="37"/>
          <note pos="480" vol="78" len="12" pan="0" key="37"/>
          <note pos="492" vol="78" len="12" pan="0" key="37"/>
          <note pos="504" vol="78" len="12" pan="0" key="37"/>
          <note pos="516" vol="78" len="12" pan="0" key="37"/>
          <note pos="528" vol="78" len="12" pan="0" key="37"/>
          <note pos="540" vol="78" len="12" pan="0" key="37"/>
          <note pos="552" vol="78" len="12" pan="0" key="37"/>
          <note pos="564" vol="78" len="12" pan="0" key="37"/>
          <note pos="576" vol="78" len="12" pan="0" key="37"/>
          <note pos="588" vol="78" len="12" pan="0" key="37"/>
          <note pos="600" vol="78" len="12" pan="0" key="37"/>
          <note pos="612" vol="78" len="12" pan="0" key="37"/>
          <note pos="624" vol="78" len="12" pan="0" key="37"/>
          <note pos="636" vol="78" len="12" pan="0" key="37"/>
          <note pos="648" vol="78" len="12" pan="0" key="37"/>
          <note pos="660" vol="78" len="12" pan="0" key="37"/>
          <note pos="672" vol="78" len="12" pan="0" key="37"/>
          <note pos="684" vol="78" len="12" pan="0" key="37"/>
          <note pos="696" vol="78" len="12" pan="0" key="37"/>
          <note pos="708" vol="78" len="12" pan="0" key="37"/>
          <note pos="720" vol="78" len="12" pan="0" key="37"/>
          <note pos="732" vol="78" len="12" pan="0" key="37"/>
          <note pos="744" vol="78" len="12" pan="0" key="37"/>
          <note pos="756" vol="78" len="12" pan="0" key="37"/>
          <note pos="768" vol="78" len="48" pan="0" key="44"/>
          <note pos="768" vol="78" len="48" pan="0" key="36"/>
          <note pos="768" vol="78" len="24" pan="0" key="0"/>
          <note pos="792" vol="78" len="24" pan="0" key="1"/>
          <note pos="816" vol="78" len="12" pan="0" key="36"/>
          <note pos="828" vol="78" len="12" pan="0" key="36"/>
          <note pos="840" vol="78" len="12" pan="0" key="36"/>
          <note pos="852" vol="78" len="12" pan="0" key="36"/>
          <note pos="864" vol="78" len="12" pan="0" key="36"/>
          <note pos="876" vol="78" len="12" pan="0" key="36"/>
          <note pos="888" vol="78" len="12" pan="0" key="36"/>
          <note pos="900" vol="78" len="12" pan="0" key="36"/>
          <note pos="912" vol="78" len="12" pan="0" key="36"/>
          <note pos="924" vol="78" len="12" pan="0" key="36"/>
          <note pos="936" vol="78" len="12" pan="0" key="36"/>
          <note pos="948" vol="78" len="12" pan="0" key="36"/>
          <note pos="960" vol="78" len="12" pan="0" key="36"/>
          <note pos="972" vol="78" len="12" pan="0" key="36"/>
          <note pos="984" vol="78" len="12" pan="0" key="36"/>
          <note pos="996" vol="78" len="12" pan="0" key="36"/>
          <note pos="1008" vol="78" len="12" pan="0" key="36"/>
          <note pos="1020" vol="78" len="12" pan="0" key="36"/>
          <note pos="1032" vol="78" len="12" pan="0" key="36"/>
          <note pos="1044" vol="78" len="12" pan="0" key="36"/>
          <note pos="1056" vol="78" len="12" pan="0" key="36"/>
          <note pos="1068" vol="78" len="12" pan="0" key="36"/>
          <note pos="1080" vol="78" len="12" pan="0" key="36"/>
          <note pos="1092" vol="78" len="12" pan="0" key="36"/>
          <note pos="1104" vol="78" len="12" pan="0" key="36"/>
          <note pos="1116" vol="78" len="12" pan="0" key="36"/>
          <note pos="1128" vol="78" len="12" pan="0" key="36"/>
          <note pos="1140" vol="78" len="12" pan="0" key="36"/>
          <note pos="1152" vol="78" len="48" pan="0" key="47"/>
          <note pos="1152" vol="78" len="48" pan="0" key="40"/>
          <note pos="1152" vol="78" len="24" pan="0" key="0"/>
          <note pos="1176" vol="78" len="24" pan="0" key="1"/>
          <note pos="1200" vol="78" len="12" pan="0" key="40"/>
          <note pos="1212" vol="78" len="12" pan="0" key="40"/>
          <note pos="1224" vol="78" len="12" pan="0" key="40"/>
          <note pos="1236" vol="78" len="12" pan="0" key="40"/>
          <note pos="1248" vol="78" len="12" pan="0" key="40"/>
          <note pos="1260" vol="78" len="12" pan="0" key="40"/>
          <note pos="1272" vol="78" len="12" pan="0" key="40"/>
          <note pos="1284" vol="78" len="12" pan="0" key="40"/>
          <note pos="1296" vol="78" len="12" pan="0" key="40"/>
          <note pos="1308" vol="78" len="12" pan="0" key="40"/>
          <note pos="1320" vol="78" len="12" pan="0" key="40"/>
          <note pos="1332" vol="78" len="12" pan="0" key="40"/>
          <note pos="1344" vol="78" len="12" pan="0" key="40"/>
          <note pos="1356" vol="78" len="12" pan="0" key="40"/>
          <note pos="1368" vol="78" len="12" pan="0" key="40"/>
          <note pos="1380" vol="78" len="12" pan="0" key="40"/>
          <note pos="1392" vol="78" len="12" pan="0" key="40"/>
          <note pos="1404" vol="78" len="12" pan="0" key="40"/>
          <note pos="1416" vol="78" len="12" pan="0" key="40"/>
          <note pos="1428" vol="78" len="12" pan="0" key="40"/>
          <note pos="1440" vol="78" len="12" pan="0" key="40"/>
          <note pos="1452" vol="78" len="12" pan="0" key="40"/>
          <note pos="1464" vol="78" len="12" pan="0" key="40"/>
          <note pos="1476" vol="78" len="12" pan="0" key="40"/>
          <note pos="1488" vol="78" len="12" pan="0" key="40"/>
          <note pos="1500" vol="78" len="12" pan="0" key="40"/>
          <note pos="1512" vol="78" len="12" pan="0" key="40"/>
          <note pos="1524" vol="78" len="12" pan="0" key="40"/>
        </pattern>
        <pattern name="" steps="16" pos="61056" muted="0" type="1">
          <note pos="0" vol="78" len="48" pan="0" key="46"/>
          <note pos="0" vol="78" len="48" pan="0" key="39"/>
          <note pos="0" vol="78" len="24" pan="0" key="0"/>
          <note pos="24" vol="78" len="24" pan="0" key="1"/>
          <note pos="48" vol="78" len="12" pan="0" key="39"/>
          <note pos="60" vol="78" len="12" pan="0" key="39"/>
          <note pos="72" vol="78" len="12" pan="0" key="39"/>
          <note pos="84" vol="78" len="12" pan="0" key="39"/>
          <note pos="96" vol="78" len="12" pan="0" key="39"/>
          <note pos="108" vol="78" len="12" pan="0" key="39"/>
          <note pos="120" vol="78" len="12" pan="0" key="39"/>
          <note pos="132" vol="78" len="12" pan="0" key="39"/>
          <note pos="144" vol="78" len="12" pan="0" key="39"/>
          <note pos="156" vol="78" len="12" pan="0" key="39"/>
          <note pos="168" vol="78" len="12" pan="0" key="39"/>
          <note pos="180" vol="78" len="12" pan="0" key="39"/>
          <note pos="192" vol="78" len="12" pan="0" key="39"/>
          <note pos="204" vol="78" len="12" pan="0" key="39"/>
          <note pos="216" vol="78" len="12" pan="0" key="39"/>
          <note pos="228" vol="78" len="12" pan="0" key="39"/>
          <note pos="240" vol="78" len="12" pan="0" key="39"/>
          <note pos="252" vol="78" len="12" pan="0" key="39"/>
          <note pos="264" vol="78" len="12" pan="0" key="39"/>
          <note pos="276" vol="78" len="12" pan="0" key="39"/>
          <note pos="288" vol="78" len="12" pan="0" key="39"/>
          <note pos="300" vol="78" len="12" pan="0" key="39"/>
          <note pos="312" vol="78" len="12" pan="0" key="39"/>
          <note pos="324" vol="78" len="12" pan="0" key="39"/>
          <note pos="336" vol="78" len="12" pan="0" key="39"/>
          <note pos="348" vol="78" len="12" pan="0" key="39"/>
          <note pos="360" vol="78" len="12" pan="0" key="39"/>
          <note pos="372" vol="78" len="12" pan="0" key="39"/>
          <note pos="384" vol="78" len="48" pan="0" key="44"/>
          <note pos="384" vol="78" len="48" pan="0" key="37"/>
          <note pos="384" vol="78" len="24" pan="0" key="0"/>
          <note pos="408" vol="78" len="24" pan="0" key="1"/>
          <note pos="432" vol="78" len="12" pan="0" key="37"/>
          <note pos="444" vol="78" len="12" pan="0" key="37"/>
          <note pos="456" vol="78" len="12" pan="0" key="37"/>
          <note pos="468" vol="78" len="12" pan="0" key="37"/>
          <note pos="480" vol="78" len="12" pan="0" key="37"/>
          <note pos="492" vol="78" len="12" pan="0" key="37"/>
          <note pos="504" vol="78" len="12" pan="0" key="37"/>
          <note pos="516" vol="78" len="12" pan="0" key="37"/>
          <note pos="528" vol="78" len="12" pan="0" key="37"/>
          <note pos="540" vol="78" len="12" pan="0" key="37"/>
          <note pos="552" vol="78" len="12" pan="0" key="37"/>
          <note pos="564" vol="78" len="12" pan="0" key="37"/>
          <note pos="576" vol="78" len="12" pan="0" key="37"/>
          <note pos="588" vol="78" len="12" pan="0" key="37"/>
          <note pos="600" vol="78" len="12" pan="0" key="37"/>
          <note pos="612" vol="78" len="12" pan="0" key="37"/>
          <note pos="624" vol="78" len="12" pan="0" key="37"/>
          <note pos="636" vol="78" len="12" pan="0" key="37"/>
          <note pos="648" vol="78" len="12" pan="0" key="37"/>
          <note pos="660" vol="78" len="12" pan="0" key="37"/>
          <note pos="672" vol="78" len="12" pan="0" key="37"/>
          <note pos="684" vol="78" len="12" pan="0" key="37"/>
          <note pos="696" vol="78" len="12" pan="0" key="37"/>
          <note pos="708" vol="78" len="12" pan="0" key="37"/>
          <note pos="720" vol="78" len="12" pan="0" key="37"/>
          <note pos="732" vol="78" len="12" pan="0" key="37"/>
          <note pos="744" vol="78" len="12" pan="0" key="37"/>
          <note pos="756" vol="78" len="12" pan="0" key="37"/>
          <note pos="768" vol="78" len="48" pan="0" key="44"/>
          <note pos="768" vol="78" len="48" pan="0" key="36"/>
          <note pos="768" vol="78" len="24" pan="0" key="0"/>
          <note pos="792" vol="78" len="24" pan="0" key="1"/>
          <note pos="816" vol="78" len="12" pan="0" key="36"/>
          <note pos="828" vol="78" len="12" pan="0" key="36"/>
          <note pos="840" vol="78" len="12" pan="0" key="36"/>
          <note pos="852" vol="78" len="12" pan="0" key="36"/>
          <note pos="864" vol="78" len="12" pan="0" key="36"/>
          <note pos="876" vol="78" len="12" pan="0" key="36"/>
          <note pos="888" vol="78" len="12" pan="0" key="36"/>
          <note pos="900" vol="78" len="12" pan="0" key="36"/>
          <note pos="912" vol="78" len="12" pan="0" key="36"/>
          <note pos="924" vol="78" len="12" pan="0" key="36"/>
          <note pos="936" vol="78" len="12" pan="0" key="36"/>
          <note pos="948" vol="78" len="12" pan="0" key="36"/>
          <note pos="960" vol="78" len="12" pan="0" key="36"/>
          <note pos="972" vol="78" len="12" pan="0" key="36"/>
          <note pos="984" vol="78" len="12" pan="0" key="36"/>
          <note pos="996" vol="78" len="12" pan="0" key="36"/>
          <note pos="1008" vol="78" len="12" pan="0" key="36"/>
          <note pos="1020" vol="78" len="12" pan="0" key="36"/>
          <note pos="1032" vol="78" len="12" pan="0" key="36"/>
          <note pos="1044" vol="78" len="12" pan="0" key="36"/>
          <note pos="1056" vol="78" len="12" pan="0" key="36"/>
          <note pos="1068" vol="78" len="12" pan="0" key="36"/>
          <note pos="1080" vol="78" len="12" pan="0" key="36"/>
          <note pos="1092" vol="78" len="12" pan="0" key="36"/>
          <note pos="1104" vol="78" len="12" pan="0" key="36"/>
          <note pos="1116" vol="78" len="12" pan="0" key="36"/>
          <note pos="1128" vol="78" len="12" pan="0" key="36"/>
          <note pos="1140" vol="78" len="12" pan="0" key="36"/>
          <note pos="1152" vol="78" len="48" pan="0" key="47"/>
          <note pos="1152" vol="78" len="48" pan="0" key="40"/>
          <note pos="1152" vol="78" len="24" pan="0" key="0"/>
          <note pos="1176" vol="78" len="24" pan="0" key="1"/>
          <note pos="1200" vol="78" len="12" pan="0" key="40"/>
          <note pos="1212" vol="78" len="12" pan="0" key="40"/>
          <note pos="1224" vol="78" len="12" pan="0" key="40"/>
          <note pos="1236" vol="78" len="12" pan="0" key="40"/>
          <note pos="1248" vol="78" len="12" pan="0" key="40"/>
          <note pos="1260" vol="78" len="12" pan="0" key="40"/>
          <note pos="1272" vol="78" len="12" pan="0" key="40"/>
          <note pos="1284" vol="78" len="12" pan="0" key="40"/>
          <note pos="1296" vol="78" len="12" pan="0" key="40"/>
          <note pos="1308" vol="78" len="12" pan="0" key="40"/>
          <note pos="1320" vol="78" len="12" pan="0" key="40"/>
          <note pos="1332" vol="78" len="12" pan="0" key="40"/>
          <note pos="1344" vol="78" len="12" pan="0" key="40"/>
          <note pos="1356" vol="78" len="12" pan="0" key="40"/>
          <note pos="1368" vol="78" len="12" pan="0" key="40"/>
          <note pos="1380" vol="78" len="12" pan="0" key="40"/>
          <note pos="1392" vol="78" len="12" pan="0" key="40"/>
          <note pos="1404" vol="78" len="12" pan="0" key="40"/>
          <note pos="1416" vol="78" len="12" pan="0" key="40"/>
          <note pos="1428" vol="78" len="12" pan="0" key="40"/>
          <note pos="1440" vol="78" len="12" pan="0" key="40"/>
          <note pos="1452" vol="78" len="12" pan="0" key="40"/>
          <note pos="1464" vol="78" len="12" pan="0" key="40"/>
          <note pos="1476" vol="78" len="12" pan="0" key="40"/>
          <note pos="1488" vol="78" len="12" pan="0" key="40"/>
          <note pos="1500" vol="78" len="12" pan="0" key="40"/>
          <note pos="1512" vol="78" len="12" pan="0" key="40"/>
          <note pos="1524" vol="78" len="12" pan="0" key="40"/>
        </pattern>
        <pattern name="Rhythm Guitar" steps="16" pos="63744" muted="0" type="1">
          <note pos="0" vol="197" len="12" pan="0" key="42"/>
          <note pos="0" vol="197" len="12" pan="0" key="0"/>
          <note pos="12" vol="197" len="12" pan="0" key="39"/>
          <note pos="12" vol="197" len="12" pan="0" key="1"/>
          <note pos="24" vol="197" len="12" pan="0" key="41"/>
          <note pos="36" vol="197" len="12" pan="0" key="42"/>
          <note pos="48" vol="197" len="12" pan="0" key="44"/>
          <note pos="48" vol="197" len="12" pan="0" key="0"/>
          <note pos="60" vol="197" len="12" pan="0" key="41"/>
          <note pos="60" vol="197" len="12" pan="0" key="1"/>
          <note pos="72" vol="197" len="12" pan="0" key="42"/>
          <note pos="84" vol="197" len="12" pan="0" key="44"/>
          <note pos="96" vol="197" len="12" pan="0" key="46"/>
          <note pos="96" vol="197" len="12" pan="0" key="0"/>
          <note pos="108" vol="197" len="12" pan="0" key="42"/>
          <note pos="108" vol="197" len="12" pan="0" key="1"/>
          <note pos="120" vol="197" len="12" pan="0" key="44"/>
          <note pos="132" vol="197" len="12" pan="0" key="46"/>
          <note pos="144" vol="197" len="12" pan="0" key="47"/>
          <note pos="144" vol="197" len="12" pan="0" key="0"/>
          <note pos="156" vol="197" len="12" pan="0" key="44"/>
          <note pos="156" vol="197" len="12" pan="0" key="1"/>
          <note pos="168" vol="197" len="12" pan="0" key="46"/>
          <note pos="180" vol="197" len="12" pan="0" key="47"/>
          <note pos="192" vol="197" len="12" pan="0" key="49"/>
          <note pos="192" vol="197" len="12" pan="0" key="0"/>
          <note pos="204" vol="197" len="12" pan="0" key="47"/>
          <note pos="204" vol="197" len="12" pan="0" key="1"/>
          <note pos="216" vol="197" len="12" pan="0" key="46"/>
          <note pos="228" vol="197" len="12" pan="0" key="44"/>
          <note pos="240" vol="197" len="12" pan="0" key="42"/>
          <note pos="252" vol="197" len="12" pan="0" key="44"/>
          <note pos="264" vol="197" len="12" pan="0" key="47"/>
          <note pos="264" vol="197" len="12" pan="0" key="0"/>
          <note pos="276" vol="197" len="12" pan="0" key="46"/>
          <note pos="276" vol="197" len="12" pan="0" key="1"/>
          <note pos="288" vol="197" len="12" pan="0" key="44"/>
          <note pos="300" vol="197" len="12" pan="0" key="42"/>
          <note pos="312" vol="197" len="12" pan="0" key="41"/>
          <note pos="324" vol="197" len="12" pan="0" key="42"/>
          <note pos="336" vol="197" len="12" pan="0" key="46"/>
          <note pos="336" vol="197" len="12" pan="0" key="0"/>
          <note pos="348" vol="197" len="12" pan="0" key="44"/>
          <note pos="348" vol="197" len="12" pan="0" key="1"/>
          <note pos="360" vol="197" len="12" pan="0" key="42"/>
          <note pos="372" vol="197" len="12" pan="0" key="41"/>
          <note pos="384" vol="197" len="12" pan="0" key="39"/>
          <note pos="396" vol="197" len="12" pan="0" key="41"/>
          <note pos="408" vol="200" len="12" pan="0" key="44"/>
          <note pos="408" vol="197" len="12" pan="0" key="0"/>
          <note pos="420" vol="200" len="12" pan="0" key="42"/>
          <note pos="420" vol="197" len="12" pan="0" key="1"/>
          <note pos="432" vol="200" len="12" pan="0" key="41"/>
          <note pos="444" vol="200" len="12" pan="0" key="39"/>
          <note pos="456" vol="200" len="12" pan="0" key="37"/>
          <note pos="468" vol="200" len="12" pan="0" key="39"/>
          <note pos="480" vol="200" len="12" pan="0" key="42"/>
          <note pos="480" vol="197" len="12" pan="0" key="0"/>
          <note pos="492" vol="200" len="12" pan="0" key="41"/>
          <note pos="492" vol="197" len="12" pan="0" key="1"/>
          <note pos="504" vol="200" len="12" pan="0" key="39"/>
          <note pos="516" vol="200" len="12" pan="0" key="37"/>
          <note pos="528" vol="200" len="12" pan="0" key="41"/>
          <note pos="528" vol="197" len="12" pan="0" key="0"/>
          <note pos="540" vol="200" len="12" pan="0" key="39"/>
          <note pos="540" vol="197" len="12" pan="0" key="1"/>
          <note pos="552" vol="200" len="12" pan="0" key="37"/>
          <note pos="564" vol="200" len="12" pan="0" key="39"/>
        </pattern>
        <pattern name="" steps="16" pos="62592" muted="0" type="1">
          <note pos="0" vol="197" len="192" pan="0" key="46"/>
          <note pos="0" vol="197" len="192" pan="0" key="39"/>
          <note pos="0" vol="78" len="48" pan="0" key="0"/>
          <note pos="192" vol="197" len="192" pan="0" key="53"/>
          <note pos="192" vol="197" len="192" pan="0" key="46"/>
          <note pos="384" vol="197" len="192" pan="0" key="54"/>
          <note pos="384" vol="197" len="192" pan="0" key="47"/>
          <note pos="576" vol="197" len="192" pan="0" key="56"/>
          <note pos="576" vol="197" len="192" pan="0" key="49"/>
          <note pos="756" vol="197" len="12" pan="0" key="1"/>
          <note pos="768" vol="197" len="12" pan="0" key="44"/>
          <note pos="780" vol="197" len="12" pan="0" key="44"/>
          <note pos="792" vol="197" len="12" pan="0" key="44"/>
          <note pos="804" vol="197" len="12" pan="0" key="44"/>
          <note pos="816" vol="197" len="12" pan="0" key="44"/>
          <note pos="828" vol="197" len="12" pan="0" key="44"/>
          <note pos="840" vol="197" len="12" pan="0" key="44"/>
          <note pos="852" vol="197" len="12" pan="0" key="44"/>
          <note pos="864" vol="197" len="12" pan="0" key="44"/>
          <note pos="876" vol="197" len="12" pan="0" key="44"/>
          <note pos="888" vol="197" len="12" pan="0" key="44"/>
          <note pos="900" vol="197" len="12" pan="0" key="44"/>
          <note pos="912" vol="197" len="12" pan="0" key="44"/>
          <note pos="924" vol="197" len="12" pan="0" key="44"/>
          <note pos="936" vol="197" len="12" pan="0" key="44"/>
          <note pos="948" vol="197" len="12" pan="0" key="44"/>
          <note pos="960" vol="197" len="12" pan="0" key="46"/>
          <note pos="972" vol="197" len="12" pan="0" key="46"/>
          <note pos="984" vol="197" len="12" pan="0" key="46"/>
          <note pos="996" vol="197" len="12" pan="0" key="46"/>
          <note pos="1008" vol="197" len="12" pan="0" key="46"/>
          <note pos="1020" vol="197" len="12" pan="0" key="46"/>
          <note pos="1032" vol="197" len="12" pan="0" key="46"/>
          <note pos="1044" vol="197" len="12" pan="0" key="46"/>
          <note pos="1056" vol="197" len="12" pan="0" key="46"/>
          <note pos="1068" vol="197" len="12" pan="0" key="46"/>
          <note pos="1080" vol="197" len="12" pan="0" key="46"/>
          <note pos="1092" vol="197" len="12" pan="0" key="46"/>
          <note pos="1104" vol="197" len="12" pan="0" key="46"/>
          <note pos="1116" vol="197" len="12" pan="0" key="46"/>
          <note pos="1128" vol="197" len="12" pan="0" key="46"/>
          <note pos="1140" vol="197" len="12" pan="0" key="46"/>
        </pattern>
        <pattern name="Rhythm Guitar" steps="16" pos="64320" muted="0" type="1">
          <note pos="0" vol="197" len="192" pan="0" key="46"/>
          <note pos="0" vol="197" len="192" pan="0" key="39"/>
          <note pos="0" vol="197" len="192" pan="0" key="0"/>
        </pattern>
      </track>
      <track name="Lead Guitar S" solo="0" muted="1" type="0">
        <instrumenttrack basenote="57" fxch="12" usemasterpitch="1" pitch="0" vol="200" pan="0" pitchrange="1">
          <instrument name="carlapatchbay">
            <carlapatchbay>
              <CARLA-PROJECT VERSION="2.2">
                <EngineSettings>
                  <ForceStereo>false</ForceStereo>
                  <PreferPluginBridges>false</PreferPluginBridges>
                  <PreferUiBridges>true</PreferUiBridges>
                  <UIsAlwaysOnTop>false</UIsAlwaysOnTop>
                  <MaxParameters>200</MaxParameters>
                  <UIBridgesTimeout>4000</UIBridgesTimeout>
                  <LADSPA_PATH>/home/pass/.ladspa:/usr/lib/ladspa:/usr/local/lib/ladspa</LADSPA_PATH>
                  <DSSI_PATH>/home/pass/.dssi:/usr/lib/dssi:/usr/local/lib/dssi</DSSI_PATH>
                  <LV2_PATH>/home/pass/.lv2:/usr/lib/lv2:/usr/local/lib/lv2</LV2_PATH>
                  <VST2_PATH>/home/pass/.vst:/home/pass/.wine/drive_c/Program Files (x86)/VstPlugins:/home/pass/.wine/drive_c/Program Files/VstPlugins:/usr/lib/lxvst:/usr/lib/vst:/usr/local/lib/lxvst:/usr/local/lib/vst/home/pass/.lxvst:/home/pass/vst</VST2_PATH>
                  <VST3_PATH>/home/pass/.vst3:/home/pass/.wine/drive_c/Program Files (x86)/Common Files/VST3:/home/pass/.wine/drive_c/Program Files/Common Files/VST3:/usr/lib/vst3:/usr/local/lib/vst3</VST3_PATH>
                  <SF2_PATH>/home/pass/.sounds/sf2/home/pass/.sounds/sf3:/usr/share/soundfonts:/usr/share/sounds/sf2:/usr/share/sounds/sf3</SF2_PATH>
                  <SFZ_PATH>/home/pass/.sounds/sfz:/home/pass/samples:/usr/share/sounds/sfz</SFZ_PATH>
                </EngineSettings>
                <!-- sfizz -->
                <Plugin>
                  <Info>
                    <Type>LV2</Type>
                    <Name>sfizz</Name>
                    <URI>http://sfztools.github.io/sfizz</URI>
                  </Info>
                  <Data>
                    <Active>Yes</Active>
                    <ControlChannel>1</ControlChannel>
                    <Options>0x3f0</Options>
                    <Parameter>
                      <Index>0</Index>
                      <Name>Volume</Name>
                      <Symbol>volume</Symbol>
                      <Value>0</Value>
                    </Parameter>
                    <Parameter>
                      <Index>1</Index>
                      <Name>Polyphony</Name>
                      <Symbol>num_voices</Symbol>
                      <Value>64</Value>
                    </Parameter>
                    <Parameter>
                      <Index>2</Index>
                      <Name>Internal oversampling factor</Name>
                      <Symbol>oversampling</Symbol>
                      <Value>1</Value>
                    </Parameter>
                    <Parameter>
                      <Index>3</Index>
                      <Name>Preload size</Name>
                      <Symbol>preload_size</Symbol>
                      <Value>8192</Value>
                    </Parameter>
                    <Parameter>
                      <Index>5</Index>
                      <Name>Scala root key</Name>
                      <Symbol>scala_root_key</Symbol>
                      <Value>60</Value>
                    </Parameter>
                    <Parameter>
                      <Index>6</Index>
                      <Name>Tuning frequency</Name>
                      <Symbol>tuning_frequency</Symbol>
                      <Value>440</Value>
                    </Parameter>
                    <Parameter>
                      <Index>7</Index>
                      <Name>Stretched tuning</Name>
                      <Symbol>stretched_tuning</Symbol>
                      <Value>0</Value>
                    </Parameter>
                    <CustomData>
                      <Type>http://lv2plug.in/ns/ext/atom#Path</Type>
                      <Key>http://sfztools.github.io/sfizz:sfzfile</Key>
                      <Value>_fakeguitar1_integrated.sfz</Value>
                    </CustomData>
                    <CustomData>
                      <Type>http://lv2plug.in/ns/ext/atom#Int</Type>
                      <Key>http://sfztools.github.io/sfizz:numvoices</Key>
                      <Value>QAAAAA==</Value>
                    </CustomData>
                    <CustomData>
                      <Type>http://lv2plug.in/ns/ext/atom#Int</Type>
                      <Key>http://sfztools.github.io/sfizz:preload_size</Key>
                      <Value>ACAAAA==</Value>
                    </CustomData>
                    <CustomData>
                      <Type>http://lv2plug.in/ns/ext/atom#Int</Type>
                      <Key>http://sfztools.github.io/sfizz:oversampling</Key>
                      <Value>AQAAAA==</Value>
                    </CustomData>
                    <CustomData>
                      <Type>http://lv2plug.in/ns/ext/atom#Path</Type>
                      <Key>http://sfztools.github.io/sfizz:tuningfile</Key>
                      <Value>DefaultScale.scl</Value>
                    </CustomData>
                  </Data>
                </Plugin>
                <Patchbay>
                  <Connection>
                    <Source>Midi Input:Capture 1</Source>
                    <Target>sfizz:events-in</Target>
                  </Connection>
                  <Connection>
                    <Source>sfizz:Left Output</Source>
                    <Target>Audio Output:Left</Target>
                  </Connection>
                  <Connection>
                    <Source>sfizz:Right Output</Source>
                    <Target>Audio Output:Right</Target>
                  </Connection>
                  <Positions>
                    <Position y1="1353" x1="1693" pluginId="0">
                      <Name>sfizz</Name>
                    </Position>
                  </Positions>
                </Patchbay>
              </CARLA-PROJECT>
            </carlapatchbay>
          </instrument>
          <eldata fwet="0" fcut="14000" ftype="0" fres="0.5">
            <elvol x100="0" userwavefile="" dec="0.5" amt="0" pdel="0" hold="0.5" lamt="0" lpdel="0" lshp="0" lspd_denominator="4" att="0" ctlenvamt="0" lspd="0.1" lspd_syncmode="0" rel="0.1" latt="0" lspd_numerator="4" sustain="0.5"/>
            <elcut x100="0" userwavefile="" dec="0.5" amt="0" pdel="0" hold="0.5" lamt="0" lpdel="0" lshp="0" lspd_denominator="4" att="0" ctlenvamt="0" lspd="0.1" lspd_syncmode="0" rel="0.1" latt="0" lspd_numerator="4" sustain="0.5"/>
            <elres x100="0" userwavefile="" dec="0.5" amt="0" pdel="0" hold="0.5" lamt="0" lpdel="0" lshp="0" lspd_denominator="4" att="0" ctlenvamt="0" lspd="0.1" lspd_syncmode="0" rel="0.1" latt="0" lspd_numerator="4" sustain="0.5"/>
          </eldata>
          <chordcreator chord-enabled="0" chord="0" chordrange="1"/>
          <arpeggiator arprange="1" arpmode="0" arp="0" arptime_numerator="4" arpmiss="0" arptime_denominator="4" arpcycle="0" arpskip="0" arptime_syncmode="0" arpgate="100" arptime="200" arpdir="0" arp-enabled="0"/>
          <midiport fixedoutputnote="-1" outputprogram="1" inputcontroller="0" writable="0" fixedoutputvelocity="-1" readable="0" outputchannel="1" basevelocity="63" outputcontroller="0" fixedinputvelocity="-1" inputchannel="0"/>
          <fxchain numofeffects="0" enabled="0"/>
        </instrumenttrack>
        <pattern name="" steps="16" pos="3456" muted="0" type="1">
          <note pos="0" vol="78" len="144" pan="0" key="73"/>
          <note pos="0" vol="78" len="144" pan="0" key="0"/>
          <note pos="144" vol="78" len="48" pan="0" key="76"/>
          <note pos="192" vol="78" len="144" pan="0" key="75"/>
          <note pos="336" vol="78" len="48" pan="0" key="80"/>
          <note pos="384" vol="78" len="144" pan="0" key="80"/>
          <note pos="528" vol="78" len="24" pan="0" key="78"/>
          <note pos="552" vol="78" len="24" pan="0" key="76"/>
          <note pos="576" vol="78" len="48" pan="0" key="75"/>
          <note pos="624" vol="78" len="48" pan="0" key="76"/>
          <note pos="672" vol="78" len="48" pan="0" key="71"/>
          <note pos="720" vol="78" len="48" pan="0" key="68"/>
          <note pos="768" vol="78" len="144" pan="0" key="69"/>
          <note pos="912" vol="78" len="48" pan="0" key="76"/>
          <note pos="960" vol="78" len="144" pan="0" key="75"/>
          <note pos="1104" vol="78" len="48" pan="0" key="78"/>
          <note pos="1152" vol="197" len="96" pan="0" key="76"/>
          <note pos="1248" vol="197" len="48" pan="0" key="80"/>
          <note pos="1296" vol="197" len="48" pan="0" key="76"/>
          <note pos="1344" vol="197" len="48" pan="0" key="78"/>
          <note pos="1392" vol="197" len="48" pan="0" key="83"/>
          <note pos="1440" vol="197" len="48" pan="0" key="80"/>
          <note pos="1488" vol="197" len="48" pan="0" key="87"/>
        </pattern>
        <pattern name="" steps="16" pos="6144" muted="0" type="1">
          <note pos="384" vol="78" len="120" pan="0" key="69"/>
          <note pos="504" vol="78" len="24" pan="0" key="68"/>
          <note pos="528" vol="78" len="24" pan="0" key="69"/>
          <note pos="552" vol="78" len="24" pan="0" key="71"/>
          <note pos="576" vol="78" len="72" pan="0" key="73"/>
          <note pos="648" vol="78" len="72" pan="0" key="71"/>
          <note pos="720" vol="78" len="48" pan="0" key="69"/>
          <note pos="768" vol="78" len="24" pan="0" key="68"/>
          <note pos="792" vol="78" len="24" pan="0" key="69"/>
          <note pos="816" vol="78" len="24" pan="0" key="68"/>
          <note pos="840" vol="78" len="48" pan="0" key="64"/>
          <note pos="888" vol="78" len="24" pan="0" key="64"/>
          <note pos="912" vol="78" len="24" pan="0" key="66"/>
          <note pos="936" vol="78" len="24" pan="0" key="68"/>
          <note pos="960" vol="78" len="96" pan="0" key="66"/>
        </pattern>
        <pattern name="" steps="16" pos="4992" muted="0" type="1">
          <note pos="0" vol="78" len="24" pan="0" key="61"/>
          <note pos="0" vol="100" len="48" pan="0" key="0"/>
          <note pos="24" vol="78" len="24" pan="0" key="63"/>
          <note pos="48" vol="78" len="24" pan="0" key="61"/>
          <note pos="72" vol="78" len="48" pan="0" key="68"/>
          <note pos="120" vol="78" len="24" pan="0" key="61"/>
          <note pos="144" vol="78" len="24" pan="0" key="64"/>
          <note pos="168" vol="78" len="24" pan="0" key="68"/>
          <note pos="192" vol="78" len="24" pan="0" key="71"/>
          <note pos="216" vol="78" len="24" pan="0" key="69"/>
          <note pos="240" vol="78" len="24" pan="0" key="68"/>
          <note pos="264" vol="78" len="48" pan="0" key="69"/>
          <note pos="312" vol="78" len="24" pan="0" key="68"/>
          <note pos="336" vol="78" len="24" pan="0" key="66"/>
          <note pos="360" vol="78" len="24" pan="0" key="68"/>
        </pattern>
        <pattern name="" steps="16" pos="5760" muted="0" type="1">
          <note pos="0" vol="78" len="24" pan="0" key="61"/>
          <note pos="0" vol="100" len="48" pan="0" key="0"/>
          <note pos="24" vol="78" len="24" pan="0" key="63"/>
          <note pos="48" vol="78" len="24" pan="0" key="61"/>
          <note pos="72" vol="78" len="48" pan="0" key="68"/>
          <note pos="120" vol="78" len="24" pan="0" key="61"/>
          <note pos="144" vol="78" len="24" pan="0" key="64"/>
          <note pos="168" vol="78" len="24" pan="0" key="68"/>
          <note pos="192" vol="78" len="24" pan="0" key="71"/>
          <note pos="216" vol="78" len="24" pan="0" key="73"/>
          <note pos="240" vol="78" len="24" pan="0" key="75"/>
          <note pos="264" vol="78" len="48" pan="0" key="73"/>
          <note pos="312" vol="78" len="24" pan="0" key="75"/>
          <note pos="336" vol="78" len="24" pan="0" key="76"/>
          <note pos="360" vol="78" len="24" pan="0" key="78"/>
        </pattern>
        <pattern name="" steps="16" pos="12672" muted="0" type="1">
          <note pos="0" vol="78" len="24" pan="0" key="61"/>
          <note pos="0" vol="197" len="12" pan="0" key="1"/>
          <note pos="24" vol="78" len="24" pan="0" key="63"/>
          <note pos="48" vol="78" len="24" pan="0" key="61"/>
          <note pos="60" vol="197" len="12" pan="0" key="0"/>
          <note pos="72" vol="78" len="48" pan="0" key="68"/>
          <note pos="120" vol="78" len="24" pan="0" key="61"/>
          <note pos="144" vol="78" len="24" pan="0" key="64"/>
          <note pos="168" vol="78" len="24" pan="0" key="68"/>
          <note pos="192" vol="78" len="24" pan="0" key="71"/>
          <note pos="216" vol="78" len="24" pan="0" key="69"/>
          <note pos="240" vol="78" len="24" pan="0" key="68"/>
          <note pos="264" vol="78" len="48" pan="0" key="69"/>
          <note pos="312" vol="78" len="24" pan="0" key="68"/>
          <note pos="336" vol="78" len="24" pan="0" key="66"/>
          <note pos="360" vol="78" len="24" pan="0" key="68"/>
        </pattern>
        <pattern name="" steps="16" pos="13440" muted="0" type="1">
          <note pos="0" vol="78" len="24" pan="0" key="61"/>
          <note pos="24" vol="78" len="24" pan="0" key="63"/>
          <note pos="48" vol="78" len="24" pan="0" key="61"/>
          <note pos="72" vol="78" len="48" pan="0" key="68"/>
          <note pos="120" vol="78" len="24" pan="0" key="61"/>
          <note pos="144" vol="78" len="24" pan="0" key="64"/>
          <note pos="168" vol="78" len="24" pan="0" key="68"/>
          <note pos="192" vol="78" len="24" pan="0" key="71"/>
          <note pos="216" vol="78" len="24" pan="0" key="73"/>
          <note pos="240" vol="78" len="24" pan="0" key="75"/>
          <note pos="264" vol="78" len="48" pan="0" key="73"/>
          <note pos="312" vol="78" len="24" pan="0" key="75"/>
          <note pos="336" vol="78" len="24" pan="0" key="76"/>
          <note pos="360" vol="78" len="24" pan="0" key="78"/>
        </pattern>
        <pattern name="" steps="16" pos="13824" muted="0" type="1">
          <note pos="384" vol="78" len="120" pan="0" key="69"/>
          <note pos="504" vol="78" len="24" pan="0" key="68"/>
          <note pos="528" vol="78" len="24" pan="0" key="69"/>
          <note pos="552" vol="78" len="24" pan="0" key="71"/>
          <note pos="576" vol="78" len="72" pan="0" key="73"/>
          <note pos="648" vol="78" len="72" pan="0" key="71"/>
          <note pos="720" vol="78" len="48" pan="0" key="69"/>
          <note pos="768" vol="78" len="24" pan="0" key="68"/>
          <note pos="792" vol="78" len="24" pan="0" key="69"/>
          <note pos="816" vol="78" len="24" pan="0" key="68"/>
          <note pos="840" vol="78" len="48" pan="0" key="64"/>
          <note pos="888" vol="78" len="24" pan="0" key="64"/>
          <note pos="912" vol="78" len="24" pan="0" key="66"/>
          <note pos="936" vol="78" len="24" pan="0" key="68"/>
          <note pos="960" vol="78" len="96" pan="0" key="66"/>
        </pattern>
        <pattern name="" steps="16" pos="11904" muted="0" type="1">
          <note pos="0" vol="78" len="12" pan="0" key="68"/>
          <note pos="0" vol="78" len="24" pan="0" key="0"/>
          <note pos="12" vol="78" len="12" pan="0" key="64"/>
          <note pos="24" vol="78" len="12" pan="0" key="61"/>
          <note pos="24" vol="78" len="24" pan="0" key="1"/>
          <note pos="36" vol="78" len="12" pan="0" key="56"/>
          <note pos="48" vol="78" len="12" pan="0" key="61"/>
          <note pos="60" vol="78" len="12" pan="0" key="64"/>
          <note pos="72" vol="78" len="12" pan="0" key="73"/>
          <note pos="72" vol="78" len="24" pan="0" key="0"/>
          <note pos="84" vol="78" len="12" pan="0" key="69"/>
          <note pos="96" vol="78" len="12" pan="0" key="68"/>
          <note pos="96" vol="78" len="24" pan="0" key="1"/>
          <note pos="108" vol="78" len="12" pan="0" key="64"/>
          <note pos="120" vol="78" len="12" pan="0" key="68"/>
          <note pos="132" vol="78" len="12" pan="0" key="73"/>
          <note pos="144" vol="78" len="12" pan="0" key="76"/>
          <note pos="144" vol="78" len="24" pan="0" key="0"/>
          <note pos="156" vol="78" len="12" pan="0" key="71"/>
          <note pos="168" vol="78" len="12" pan="0" key="68"/>
          <note pos="168" vol="78" len="24" pan="0" key="1"/>
          <note pos="180" vol="78" len="12" pan="0" key="64"/>
          <note pos="192" vol="78" len="12" pan="0" key="68"/>
          <note pos="204" vol="78" len="12" pan="0" key="71"/>
          <note pos="216" vol="78" len="12" pan="0" key="81"/>
          <note pos="216" vol="78" len="24" pan="0" key="0"/>
          <note pos="228" vol="78" len="12" pan="0" key="78"/>
          <note pos="240" vol="78" len="12" pan="0" key="74"/>
          <note pos="240" vol="78" len="24" pan="0" key="1"/>
          <note pos="252" vol="78" len="12" pan="0" key="69"/>
          <note pos="264" vol="78" len="12" pan="0" key="66"/>
          <note pos="276" vol="78" len="12" pan="0" key="69"/>
          <note pos="288" vol="78" len="12" pan="0" key="73"/>
          <note pos="288" vol="78" len="24" pan="0" key="0"/>
          <note pos="300" vol="78" len="12" pan="0" key="69"/>
          <note pos="312" vol="78" len="12" pan="0" key="66"/>
          <note pos="312" vol="78" len="24" pan="0" key="1"/>
          <note pos="324" vol="78" len="12" pan="0" key="61"/>
          <note pos="336" vol="78" len="12" pan="0" key="68"/>
          <note pos="336" vol="78" len="24" pan="0" key="0"/>
          <note pos="348" vol="78" len="12" pan="0" key="64"/>
          <note pos="360" vol="78" len="12" pan="0" key="61"/>
          <note pos="360" vol="78" len="24" pan="0" key="1"/>
          <note pos="372" vol="78" len="12" pan="0" key="56"/>
          <note pos="384" vol="78" len="12" pan="0" key="69"/>
          <note pos="384" vol="78" len="24" pan="0" key="0"/>
          <note pos="396" vol="78" len="12" pan="0" key="66"/>
          <note pos="408" vol="78" len="12" pan="0" key="57"/>
          <note pos="408" vol="78" len="24" pan="0" key="1"/>
          <note pos="420" vol="78" len="12" pan="0" key="54"/>
          <note pos="432" vol="78" len="12" pan="0" key="57"/>
          <note pos="444" vol="78" len="12" pan="0" key="62"/>
          <note pos="456" vol="78" len="12" pan="0" key="74"/>
          <note pos="456" vol="78" len="24" pan="0" key="0"/>
          <note pos="468" vol="78" len="12" pan="0" key="69"/>
          <note pos="480" vol="78" len="12" pan="0" key="66"/>
          <note pos="480" vol="78" len="24" pan="0" key="1"/>
          <note pos="492" vol="78" len="12" pan="0" key="61"/>
          <note pos="504" vol="78" len="12" pan="0" key="57"/>
          <note pos="516" vol="78" len="12" pan="0" key="54"/>
          <note pos="528" vol="78" len="12" pan="0" key="78"/>
          <note pos="528" vol="78" len="24" pan="0" key="0"/>
          <note pos="540" vol="78" len="12" pan="0" key="74"/>
          <note pos="552" vol="78" len="12" pan="0" key="69"/>
          <note pos="552" vol="78" len="24" pan="0" key="1"/>
          <note pos="564" vol="78" len="12" pan="0" key="66"/>
          <note pos="576" vol="78" len="12" pan="0" key="69"/>
          <note pos="588" vol="78" len="12" pan="0" key="74"/>
          <note pos="600" vol="78" len="12" pan="0" key="81"/>
          <note pos="600" vol="78" len="24" pan="0" key="0"/>
          <note pos="612" vol="78" len="12" pan="0" key="78"/>
          <note pos="624" vol="78" len="12" pan="0" key="73"/>
          <note pos="624" vol="78" len="24" pan="0" key="1"/>
          <note pos="636" vol="78" len="12" pan="0" key="69"/>
          <note pos="648" vol="78" len="12" pan="0" key="66"/>
          <note pos="660" vol="78" len="12" pan="0" key="61"/>
          <note pos="672" vol="78" len="12" pan="0" key="74"/>
          <note pos="672" vol="78" len="24" pan="0" key="0"/>
          <note pos="684" vol="78" len="12" pan="0" key="71"/>
          <note pos="696" vol="78" len="12" pan="0" key="66"/>
          <note pos="696" vol="78" len="24" pan="0" key="1"/>
          <note pos="708" vol="78" len="12" pan="0" key="61"/>
          <note pos="720" vol="78" len="12" pan="0" key="69"/>
          <note pos="720" vol="78" len="24" pan="0" key="0"/>
          <note pos="732" vol="78" len="12" pan="0" key="66"/>
          <note pos="744" vol="78" len="12" pan="0" key="61"/>
          <note pos="744" vol="78" len="24" pan="0" key="1"/>
          <note pos="756" vol="78" len="12" pan="0" key="57"/>
        </pattern>
        <pattern name="" steps="16" pos="28800" muted="0" type="1">
          <note pos="0" vol="200" len="24" pan="0" key="56"/>
          <note pos="0" vol="200" len="24" pan="0" key="1"/>
          <note pos="24" vol="200" len="24" pan="0" key="61"/>
          <note pos="36" vol="200" len="24" pan="0" key="0"/>
          <note pos="48" vol="200" len="24" pan="0" key="63"/>
          <note pos="60" vol="200" len="24" pan="0" key="1"/>
          <note pos="72" vol="200" len="24" pan="0" key="56"/>
          <note pos="84" vol="200" len="24" pan="0" key="0"/>
          <note pos="96" vol="200" len="24" pan="0" key="64"/>
          <note pos="108" vol="200" len="24" pan="0" key="1"/>
          <note pos="120" vol="200" len="24" pan="0" key="63"/>
          <note pos="144" vol="200" len="24" pan="0" key="59"/>
          <note pos="168" vol="200" len="24" pan="0" key="61"/>
          <note pos="180" vol="200" len="48" pan="0" key="0"/>
          <note pos="192" vol="200" len="48" pan="0" key="63"/>
          <note pos="240" vol="200" len="12" pan="0" key="64"/>
          <note pos="252" vol="200" len="12" pan="0" key="63"/>
          <note pos="264" vol="200" len="48" pan="0" key="61"/>
          <note pos="300" vol="200" len="12" pan="0" key="1"/>
          <note pos="312" vol="200" len="12" pan="0" key="56"/>
          <note pos="324" vol="200" len="12" pan="0" key="59"/>
          <note pos="336" vol="200" len="12" pan="0" key="61"/>
          <note pos="348" vol="200" len="12" pan="0" key="59"/>
          <note pos="360" vol="200" len="12" pan="0" key="54"/>
          <note pos="372" vol="200" len="12" pan="0" key="56"/>
          <note pos="384" vol="131" len="12" pan="0" key="54"/>
          <note pos="384" vol="131" len="12" pan="0" key="2"/>
          <note pos="396" vol="131" len="12" pan="0" key="56"/>
          <note pos="408" vol="131" len="12" pan="0" key="54"/>
          <note pos="420" vol="131" len="12" pan="0" key="52"/>
          <note pos="432" vol="131" len="12" pan="0" key="54"/>
          <note pos="444" vol="131" len="12" pan="0" key="52"/>
          <note pos="456" vol="131" len="12" pan="0" key="49"/>
          <note pos="468" vol="131" len="12" pan="0" key="47"/>
          <note pos="480" vol="131" len="12" pan="0" key="49"/>
          <note pos="492" vol="131" len="12" pan="0" key="52"/>
          <note pos="504" vol="131" len="12" pan="0" key="54"/>
          <note pos="516" vol="131" len="12" pan="0" key="52"/>
          <note pos="528" vol="131" len="12" pan="0" key="54"/>
          <note pos="540" vol="131" len="12" pan="0" key="56"/>
          <note pos="552" vol="131" len="12" pan="0" key="59"/>
          <note pos="564" vol="131" len="12" pan="0" key="61"/>
          <note pos="576" vol="131" len="12" pan="0" key="63"/>
          <note pos="588" vol="131" len="12" pan="0" key="61"/>
          <note pos="600" vol="131" len="12" pan="0" key="63"/>
          <note pos="612" vol="131" len="12" pan="0" key="64"/>
          <note pos="612" vol="131" len="12" pan="0" key="1"/>
          <note pos="624" vol="131" len="12" pan="0" key="66"/>
          <note pos="636" vol="131" len="12" pan="0" key="64"/>
          <note pos="648" vol="131" len="12" pan="0" key="66"/>
          <note pos="660" vol="131" len="12" pan="0" key="68"/>
          <note pos="672" vol="131" len="12" pan="0" key="69"/>
          <note pos="684" vol="131" len="12" pan="0" key="68"/>
          <note pos="696" vol="131" len="12" pan="0" key="69"/>
          <note pos="708" vol="131" len="12" pan="0" key="71"/>
          <note pos="708" vol="131" len="48" pan="0" key="0"/>
          <note pos="720" vol="131" len="48" pan="0" key="73"/>
        </pattern>
        <pattern name="" steps="16" pos="29568" muted="0" type="1">
          <note pos="0" vol="200" len="12" pan="0" key="80"/>
          <note pos="12" vol="200" len="12" pan="0" key="78"/>
          <note pos="24" vol="200" len="12" pan="0" key="76"/>
          <note pos="36" vol="200" len="12" pan="0" key="73"/>
          <note pos="48" vol="200" len="12" pan="0" key="71"/>
          <note pos="60" vol="200" len="12" pan="0" key="73"/>
          <note pos="72" vol="200" len="12" pan="0" key="78"/>
          <note pos="84" vol="200" len="12" pan="0" key="76"/>
          <note pos="96" vol="200" len="12" pan="0" key="73"/>
          <note pos="108" vol="200" len="12" pan="0" key="76"/>
          <note pos="120" vol="200" len="12" pan="0" key="80"/>
          <note pos="132" vol="200" len="12" pan="0" key="78"/>
          <note pos="144" vol="200" len="12" pan="0" key="76"/>
          <note pos="156" vol="200" len="12" pan="0" key="73"/>
          <note pos="168" vol="200" len="12" pan="0" key="76"/>
          <note pos="180" vol="200" len="12" pan="0" key="78"/>
        </pattern>
        <pattern name="" steps="16" pos="29760" muted="0" type="1">
          <note pos="0" vol="200" len="12" pan="0" key="80"/>
          <note pos="12" vol="200" len="12" pan="0" key="78"/>
          <note pos="24" vol="200" len="12" pan="0" key="76"/>
          <note pos="36" vol="200" len="12" pan="0" key="73"/>
          <note pos="48" vol="200" len="12" pan="0" key="71"/>
          <note pos="60" vol="200" len="12" pan="0" key="73"/>
          <note pos="72" vol="200" len="12" pan="0" key="78"/>
          <note pos="84" vol="200" len="12" pan="0" key="76"/>
          <note pos="96" vol="200" len="12" pan="0" key="73"/>
          <note pos="108" vol="200" len="12" pan="0" key="76"/>
          <note pos="120" vol="200" len="12" pan="0" key="83"/>
          <note pos="132" vol="200" len="12" pan="0" key="80"/>
          <note pos="144" vol="200" len="12" pan="0" key="78"/>
          <note pos="156" vol="200" len="12" pan="0" key="80"/>
          <note pos="168" vol="200" len="12" pan="0" key="78"/>
          <note pos="180" vol="200" len="12" pan="0" key="76"/>
        </pattern>
        <pattern name="" steps="16" pos="29952" muted="0" type="1">
          <note pos="0" vol="197" len="12" pan="0" key="85"/>
          <note pos="0" vol="197" len="48" pan="0" key="0"/>
          <note pos="12" vol="197" len="12" pan="0" key="83"/>
          <note pos="24" vol="197" len="12" pan="0" key="80"/>
          <note pos="36" vol="197" len="12" pan="0" key="78"/>
          <note pos="48" vol="197" len="12" pan="0" key="83"/>
          <note pos="60" vol="197" len="12" pan="0" key="80"/>
          <note pos="72" vol="197" len="12" pan="0" key="78"/>
          <note pos="84" vol="197" len="12" pan="0" key="76"/>
          <note pos="96" vol="197" len="12" pan="0" key="80"/>
          <note pos="108" vol="197" len="12" pan="0" key="78"/>
          <note pos="120" vol="197" len="12" pan="0" key="76"/>
          <note pos="132" vol="197" len="12" pan="0" key="73"/>
          <note pos="144" vol="197" len="12" pan="0" key="76"/>
          <note pos="156" vol="197" len="12" pan="0" key="78"/>
          <note pos="168" vol="197" len="12" pan="0" key="80"/>
          <note pos="180" vol="197" len="12" pan="0" key="83"/>
          <note pos="192" vol="197" len="12" pan="0" key="80"/>
          <note pos="204" vol="197" len="12" pan="0" key="78"/>
          <note pos="216" vol="197" len="12" pan="0" key="76"/>
          <note pos="228" vol="197" len="12" pan="0" key="73"/>
          <note pos="240" vol="197" len="12" pan="0" key="76"/>
          <note pos="240" vol="197" len="48" pan="0" key="1"/>
          <note pos="252" vol="197" len="12" pan="0" key="73"/>
          <note pos="264" vol="197" len="12" pan="0" key="71"/>
          <note pos="276" vol="197" len="12" pan="0" key="73"/>
          <note pos="288" vol="197" len="12" pan="0" key="71"/>
          <note pos="300" vol="197" len="12" pan="0" key="68"/>
          <note pos="312" vol="197" len="12" pan="0" key="66"/>
          <note pos="324" vol="197" len="12" pan="0" key="68"/>
          <note pos="336" vol="197" len="48" pan="0" key="61"/>
          <note pos="336" vol="197" len="48" pan="0" key="0"/>
        </pattern>
        <pattern name="" steps="16" pos="31488" muted="0" type="0"/>
        <pattern name="" steps="16" pos="36480" muted="0" type="1">
          <note pos="0" vol="200" len="12" pan="0" key="61"/>
          <note pos="0" vol="200" len="12" pan="0" key="1"/>
          <note pos="12" vol="200" len="12" pan="0" key="68"/>
          <note pos="24" vol="200" len="12" pan="0" key="66"/>
          <note pos="36" vol="200" len="12" pan="0" key="68"/>
          <note pos="48" vol="200" len="12" pan="0" key="61"/>
          <note pos="60" vol="200" len="12" pan="0" key="68"/>
          <note pos="72" vol="200" len="12" pan="0" key="66"/>
          <note pos="84" vol="200" len="12" pan="0" key="68"/>
          <note pos="96" vol="200" len="12" pan="0" key="71"/>
          <note pos="96" vol="200" len="12" pan="0" key="0"/>
          <note pos="108" vol="200" len="12" pan="0" key="68"/>
          <note pos="108" vol="200" len="12" pan="0" key="2"/>
          <note pos="120" vol="200" len="12" pan="0" key="66"/>
          <note pos="120" vol="200" len="12" pan="0" key="1"/>
          <note pos="132" vol="200" len="12" pan="0" key="64"/>
          <note pos="144" vol="200" len="12" pan="0" key="66"/>
          <note pos="156" vol="200" len="12" pan="0" key="64"/>
          <note pos="168" vol="200" len="12" pan="0" key="66"/>
          <note pos="180" vol="200" len="12" pan="0" key="68"/>
          <note pos="192" vol="200" len="12" pan="0" key="71"/>
          <note pos="204" vol="200" len="12" pan="0" key="68"/>
          <note pos="216" vol="200" len="12" pan="0" key="66"/>
          <note pos="228" vol="200" len="12" pan="0" key="64"/>
          <note pos="240" vol="200" len="12" pan="0" key="66"/>
          <note pos="252" vol="200" len="12" pan="0" key="68"/>
          <note pos="264" vol="200" len="6" pan="0" key="71"/>
          <note pos="264" vol="200" len="12" pan="0" key="0"/>
          <note pos="270" vol="200" len="42" pan="0" key="73"/>
          <note pos="276" vol="200" len="12" pan="0" key="2"/>
          <note pos="312" vol="200" len="12" pan="0" key="73"/>
          <note pos="312" vol="200" len="12" pan="0" key="1"/>
          <note pos="324" vol="200" len="12" pan="0" key="75"/>
          <note pos="336" vol="200" len="12" pan="0" key="76"/>
          <note pos="336" vol="200" len="12" pan="0" key="0"/>
          <note pos="348" vol="200" len="12" pan="0" key="75"/>
          <note pos="360" vol="200" len="12" pan="0" key="73"/>
          <note pos="360" vol="200" len="12" pan="0" key="1"/>
          <note pos="372" vol="200" len="12" pan="0" key="71"/>
          <note pos="384" vol="197" len="12" pan="0" key="76"/>
          <note pos="384" vol="197" len="12" pan="0" key="0"/>
          <note pos="396" vol="197" len="12" pan="0" key="64"/>
          <note pos="396" vol="197" len="12" pan="0" key="2"/>
          <note pos="408" vol="197" len="12" pan="0" key="64"/>
          <note pos="408" vol="197" len="12" pan="0" key="0"/>
          <note pos="420" vol="197" len="12" pan="0" key="75"/>
          <note pos="420" vol="197" len="12" pan="0" key="0"/>
          <note pos="432" vol="197" len="12" pan="0" key="64"/>
          <note pos="432" vol="197" len="12" pan="0" key="2"/>
          <note pos="444" vol="197" len="12" pan="0" key="64"/>
          <note pos="444" vol="197" len="12" pan="0" key="0"/>
          <note pos="456" vol="197" len="12" pan="0" key="76"/>
          <note pos="456" vol="197" len="12" pan="0" key="0"/>
          <note pos="468" vol="197" len="12" pan="0" key="64"/>
          <note pos="468" vol="197" len="12" pan="0" key="2"/>
          <note pos="480" vol="197" len="12" pan="0" key="64"/>
          <note pos="480" vol="197" len="12" pan="0" key="0"/>
          <note pos="492" vol="197" len="12" pan="0" key="75"/>
          <note pos="492" vol="197" len="12" pan="0" key="0"/>
          <note pos="504" vol="197" len="12" pan="0" key="64"/>
          <note pos="504" vol="197" len="12" pan="0" key="2"/>
          <note pos="516" vol="197" len="12" pan="0" key="64"/>
          <note pos="516" vol="197" len="12" pan="0" key="0"/>
          <note pos="528" vol="197" len="12" pan="0" key="76"/>
          <note pos="528" vol="197" len="12" pan="0" key="0"/>
          <note pos="540" vol="197" len="12" pan="0" key="64"/>
          <note pos="540" vol="197" len="12" pan="0" key="2"/>
          <note pos="552" vol="197" len="12" pan="0" key="75"/>
          <note pos="552" vol="197" len="12" pan="0" key="0"/>
          <note pos="564" vol="197" len="12" pan="0" key="64"/>
          <note pos="564" vol="197" len="12" pan="0" key="2"/>
        </pattern>
        <pattern name="" steps="16" pos="28032" muted="0" type="1">
          <note pos="0" vol="200" len="48" pan="0" key="61"/>
          <note pos="0" vol="200" len="36" pan="0" key="0"/>
          <note pos="36" vol="200" len="36" pan="0" key="1"/>
          <note pos="48" vol="200" len="48" pan="0" key="57"/>
          <note pos="96" vol="200" len="48" pan="0" key="59"/>
          <note pos="144" vol="200" len="48" pan="0" key="61"/>
          <note pos="180" vol="200" len="36" pan="0" key="0"/>
          <note pos="192" vol="200" len="48" pan="0" key="63"/>
          <note pos="240" vol="200" len="48" pan="0" key="64"/>
          <note pos="288" vol="200" len="48" pan="0" key="63"/>
          <note pos="336" vol="200" len="48" pan="0" key="59"/>
          <note pos="384" vol="200" len="48" pan="0" key="61"/>
          <note pos="432" vol="200" len="48" pan="0" key="59"/>
          <note pos="480" vol="200" len="48" pan="0" key="61"/>
          <note pos="528" vol="200" len="48" pan="0" key="63"/>
          <note pos="576" vol="200" len="192" pan="0" key="68"/>
        </pattern>
        <pattern name="" steps="16" pos="38016" muted="0" type="1">
          <note pos="0" vol="100" len="12" pan="0" key="69"/>
          <note pos="0" vol="100" len="12" pan="0" key="1"/>
          <note pos="12" vol="100" len="12" pan="0" key="74"/>
          <note pos="24" vol="100" len="12" pan="0" key="78"/>
          <note pos="36" vol="100" len="12" pan="0" key="81"/>
          <note pos="36" vol="100" len="12" pan="0" key="0"/>
          <note pos="48" vol="100" len="12" pan="0" key="86"/>
          <note pos="60" vol="100" len="12" pan="0" key="81"/>
          <note pos="72" vol="100" len="12" pan="0" key="78"/>
          <note pos="72" vol="100" len="12" pan="0" key="1"/>
          <note pos="84" vol="100" len="12" pan="0" key="74"/>
          <note pos="96" vol="100" len="12" pan="0" key="81"/>
          <note pos="96" vol="100" len="12" pan="0" key="0"/>
          <note pos="108" vol="100" len="12" pan="0" key="80"/>
          <note pos="120" vol="100" len="12" pan="0" key="78"/>
          <note pos="120" vol="100" len="12" pan="0" key="1"/>
          <note pos="132" vol="100" len="12" pan="0" key="74"/>
          <note pos="144" vol="100" len="12" pan="0" key="83"/>
          <note pos="144" vol="100" len="12" pan="0" key="0"/>
          <note pos="156" vol="100" len="12" pan="0" key="81"/>
          <note pos="168" vol="100" len="12" pan="0" key="80"/>
          <note pos="168" vol="100" len="12" pan="0" key="1"/>
          <note pos="180" vol="100" len="12" pan="0" key="78"/>
          <note pos="192" vol="121" len="12" pan="0" key="83"/>
          <note pos="204" vol="121" len="12" pan="0" key="85"/>
          <note pos="216" vol="121" len="12" pan="0" key="83"/>
          <note pos="228" vol="121" len="12" pan="0" key="81"/>
          <note pos="240" vol="121" len="12" pan="0" key="80"/>
          <note pos="252" vol="121" len="12" pan="0" key="81"/>
          <note pos="264" vol="121" len="12" pan="0" key="80"/>
          <note pos="276" vol="121" len="12" pan="0" key="78"/>
          <note pos="288" vol="121" len="12" pan="0" key="83"/>
          <note pos="288" vol="121" len="24" pan="0" key="0"/>
          <note pos="300" vol="121" len="12" pan="0" key="85"/>
          <note pos="312" vol="121" len="48" pan="0" key="88"/>
          <note pos="360" vol="121" len="24" pan="0" key="85"/>
          <note pos="384" vol="100" len="24" pan="0" key="81"/>
          <note pos="408" vol="100" len="24" pan="0" key="80"/>
          <note pos="432" vol="100" len="24" pan="0" key="76"/>
          <note pos="456" vol="100" len="24" pan="0" key="81"/>
          <note pos="480" vol="100" len="24" pan="0" key="80"/>
          <note pos="504" vol="100" len="24" pan="0" key="78"/>
          <note pos="528" vol="100" len="24" pan="0" key="76"/>
          <note pos="552" vol="100" len="24" pan="0" key="80"/>
          <note pos="576" vol="100" len="12" pan="0" key="78"/>
          <note pos="576" vol="100" len="12" pan="0" key="0"/>
          <note pos="588" vol="100" len="12" pan="0" key="80"/>
          <note pos="588" vol="100" len="12" pan="0" key="2"/>
          <note pos="600" vol="100" len="48" pan="0" key="78"/>
          <note pos="636" vol="100" len="12" pan="0" key="1"/>
          <note pos="648" vol="100" len="12" pan="0" key="75"/>
          <note pos="660" vol="100" len="12" pan="0" key="76"/>
          <note pos="672" vol="100" len="12" pan="0" key="78"/>
          <note pos="672" vol="100" len="12" pan="0" key="0"/>
          <note pos="684" vol="100" len="12" pan="0" key="76"/>
          <note pos="696" vol="100" len="12" pan="0" key="75"/>
          <note pos="708" vol="100" len="12" pan="0" key="76"/>
          <note pos="708" vol="100" len="12" pan="0" key="1"/>
          <note pos="720" vol="100" len="12" pan="0" key="75"/>
          <note pos="732" vol="100" len="12" pan="0" key="73"/>
          <note pos="744" vol="100" len="12" pan="0" key="71"/>
          <note pos="756" vol="100" len="12" pan="0" key="69"/>
        </pattern>
        <pattern name="" steps="16" pos="39552" muted="0" type="1">
          <note pos="0" vol="78" len="12" pan="0" key="73"/>
          <note pos="0" vol="78" len="48" pan="0" key="0"/>
          <note pos="12" vol="78" len="12" pan="0" key="68"/>
          <note pos="24" vol="78" len="12" pan="0" key="64"/>
          <note pos="36" vol="78" len="12" pan="0" key="61"/>
          <note pos="48" vol="78" len="12" pan="0" key="56"/>
          <note pos="48" vol="78" len="12" pan="0" key="1"/>
          <note pos="60" vol="78" len="12" pan="0" key="52"/>
          <note pos="72" vol="78" len="12" pan="0" key="56"/>
          <note pos="84" vol="78" len="12" pan="0" key="61"/>
          <note pos="96" vol="78" len="12" pan="0" key="64"/>
          <note pos="108" vol="78" len="12" pan="0" key="68"/>
          <note pos="120" vol="78" len="12" pan="0" key="76"/>
          <note pos="120" vol="78" len="12" pan="0" key="0"/>
          <note pos="132" vol="78" len="12" pan="0" key="73"/>
          <note pos="144" vol="78" len="12" pan="0" key="68"/>
          <note pos="156" vol="78" len="12" pan="0" key="64"/>
          <note pos="156" vol="78" len="12" pan="0" key="1"/>
          <note pos="168" vol="78" len="12" pan="0" key="68"/>
          <note pos="180" vol="78" len="12" pan="0" key="73"/>
          <note pos="192" vol="78" len="12" pan="0" key="75"/>
          <note pos="192" vol="78" len="12" pan="0" key="0"/>
          <note pos="204" vol="78" len="12" pan="0" key="71"/>
          <note pos="216" vol="78" len="12" pan="0" key="68"/>
          <note pos="228" vol="78" len="12" pan="0" key="63"/>
          <note pos="228" vol="78" len="12" pan="0" key="1"/>
          <note pos="240" vol="78" len="12" pan="0" key="59"/>
          <note pos="252" vol="78" len="12" pan="0" key="56"/>
          <note pos="264" vol="78" len="12" pan="0" key="59"/>
          <note pos="276" vol="78" len="12" pan="0" key="63"/>
          <note pos="288" vol="78" len="12" pan="0" key="68"/>
          <note pos="300" vol="78" len="12" pan="0" key="71"/>
          <note pos="312" vol="78" len="12" pan="0" key="80"/>
          <note pos="312" vol="78" len="12" pan="0" key="0"/>
          <note pos="324" vol="78" len="12" pan="0" key="75"/>
          <note pos="336" vol="78" len="12" pan="0" key="71"/>
          <note pos="348" vol="78" len="12" pan="0" key="68"/>
          <note pos="348" vol="78" len="12" pan="0" key="1"/>
          <note pos="360" vol="78" len="12" pan="0" key="71"/>
          <note pos="372" vol="78" len="12" pan="0" key="75"/>
          <note pos="384" vol="78" len="24" pan="0" key="80"/>
          <note pos="384" vol="78" len="12" pan="0" key="0"/>
          <note pos="408" vol="78" len="24" pan="0" key="76"/>
          <note pos="432" vol="78" len="24" pan="0" key="69"/>
          <note pos="456" vol="78" len="24" pan="0" key="76"/>
          <note pos="480" vol="78" len="24" pan="0" key="75"/>
          <note pos="504" vol="78" len="24" pan="0" key="69"/>
          <note pos="528" vol="78" len="24" pan="0" key="78"/>
          <note pos="552" vol="78" len="24" pan="0" key="76"/>
          <note pos="576" vol="78" len="48" pan="0" key="75"/>
          <note pos="624" vol="78" len="48" pan="0" key="76"/>
          <note pos="672" vol="78" len="12" pan="0" key="76"/>
          <note pos="684" vol="78" len="12" pan="0" key="78"/>
          <note pos="696" vol="78" len="12" pan="0" key="76"/>
          <note pos="708" vol="78" len="12" pan="0" key="75"/>
          <note pos="720" vol="78" len="12" pan="0" key="76"/>
          <note pos="732" vol="78" len="12" pan="0" key="75"/>
          <note pos="744" vol="78" len="12" pan="0" key="73"/>
          <note pos="756" vol="78" len="12" pan="0" key="71"/>
          <note pos="768" vol="78" len="12" pan="0" key="1"/>
          <note pos="960" vol="78" len="12" pan="0" key="0"/>
        </pattern>
        <pattern name="" steps="16" pos="46656" muted="0" type="0"/>
        <pattern name="" steps="16" pos="47232" muted="0" type="1">
          <note pos="0" vol="78" len="120" pan="0" key="70"/>
          <note pos="0" vol="78" len="24" pan="0" key="0"/>
          <note pos="96" vol="78" len="24" pan="0" key="1"/>
          <note pos="120" vol="78" len="24" pan="0" key="66"/>
          <note pos="132" vol="78" len="24" pan="0" key="0"/>
          <note pos="144" vol="78" len="24" pan="0" key="75"/>
          <note pos="168" vol="78" len="24" pan="0" key="66"/>
          <note pos="168" vol="78" len="24" pan="0" key="1"/>
          <note pos="192" vol="78" len="120" pan="0" key="73"/>
          <note pos="192" vol="78" len="24" pan="0" key="0"/>
          <note pos="300" vol="78" len="12" pan="0" key="1"/>
          <note pos="312" vol="78" len="12" pan="0" key="73"/>
          <note pos="324" vol="78" len="12" pan="0" key="75"/>
          <note pos="336" vol="78" len="12" pan="0" key="78"/>
          <note pos="336" vol="78" len="12" pan="0" key="0"/>
          <note pos="348" vol="78" len="12" pan="0" key="75"/>
          <note pos="360" vol="78" len="12" pan="0" key="73"/>
          <note pos="360" vol="78" len="12" pan="0" key="1"/>
          <note pos="372" vol="78" len="12" pan="0" key="75"/>
          <note pos="384" vol="78" len="144" pan="0" key="78"/>
          <note pos="384" vol="78" len="12" pan="0" key="0"/>
          <note pos="528" vol="78" len="24" pan="0" key="77"/>
          <note pos="552" vol="78" len="24" pan="0" key="75"/>
          <note pos="576" vol="78" len="48" pan="0" key="73"/>
          <note pos="624" vol="78" len="48" pan="0" key="75"/>
          <note pos="660" vol="78" len="12" pan="0" key="0"/>
          <note pos="672" vol="78" len="12" pan="0" key="70"/>
          <note pos="672" vol="78" len="12" pan="0" key="1"/>
          <note pos="684" vol="78" len="12" pan="0" key="70"/>
          <note pos="696" vol="78" len="12" pan="0" key="70"/>
          <note pos="708" vol="78" len="12" pan="0" key="70"/>
          <note pos="720" vol="78" len="12" pan="0" key="66"/>
          <note pos="720" vol="78" len="12" pan="0" key="0"/>
          <note pos="732" vol="78" len="12" pan="0" key="63"/>
          <note pos="732" vol="78" len="12" pan="0" key="1"/>
          <note pos="744" vol="78" len="12" pan="0" key="65"/>
          <note pos="756" vol="78" len="12" pan="0" key="66"/>
          <note pos="768" vol="78" len="96" pan="0" key="68"/>
          <note pos="768" vol="78" len="12" pan="0" key="0"/>
          <note pos="864" vol="78" len="48" pan="0" key="71"/>
          <note pos="912" vol="78" len="48" pan="0" key="75"/>
          <note pos="960" vol="78" len="96" pan="0" key="75"/>
          <note pos="1056" vol="78" len="12" pan="0" key="73"/>
          <note pos="1056" vol="78" len="12" pan="0" key="0"/>
          <note pos="1068" vol="78" len="12" pan="0" key="66"/>
          <note pos="1068" vol="78" len="12" pan="0" key="2"/>
          <note pos="1080" vol="78" len="12" pan="0" key="66"/>
          <note pos="1080" vol="78" len="12" pan="0" key="1"/>
          <note pos="1092" vol="78" len="12" pan="0" key="66"/>
          <note pos="1104" vol="78" len="12" pan="0" key="75"/>
          <note pos="1104" vol="78" len="12" pan="0" key="0"/>
          <note pos="1116" vol="78" len="12" pan="0" key="71"/>
          <note pos="1116" vol="78" len="12" pan="0" key="2"/>
          <note pos="1128" vol="78" len="12" pan="0" key="73"/>
          <note pos="1128" vol="78" len="12" pan="0" key="1"/>
          <note pos="1140" vol="78" len="12" pan="0" key="75"/>
          <note pos="1152" vol="78" len="48" pan="0" key="82"/>
          <note pos="1152" vol="78" len="12" pan="0" key="0"/>
          <note pos="1200" vol="78" len="12" pan="0" key="80"/>
          <note pos="1212" vol="78" len="12" pan="0" key="82"/>
          <note pos="1224" vol="78" len="48" pan="0" key="80"/>
          <note pos="1272" vol="78" len="12" pan="0" key="78"/>
          <note pos="1272" vol="78" len="12" pan="0" key="0"/>
          <note pos="1284" vol="78" len="12" pan="0" key="80"/>
          <note pos="1296" vol="78" len="12" pan="0" key="78"/>
          <note pos="1296" vol="78" len="12" pan="0" key="1"/>
          <note pos="1308" vol="78" len="12" pan="0" key="77"/>
          <note pos="1320" vol="78" len="12" pan="0" key="75"/>
          <note pos="1332" vol="78" len="12" pan="0" key="78"/>
          <note pos="1344" vol="78" len="72" pan="0" key="77"/>
          <note pos="1344" vol="78" len="12" pan="0" key="0"/>
          <note pos="1416" vol="78" len="12" pan="0" key="75"/>
          <note pos="1416" vol="78" len="12" pan="0" key="1"/>
          <note pos="1428" vol="78" len="12" pan="0" key="77"/>
          <note pos="1440" vol="78" len="12" pan="0" key="78"/>
          <note pos="1440" vol="78" len="12" pan="0" key="0"/>
          <note pos="1452" vol="78" len="12" pan="0" key="80"/>
          <note pos="1464" vol="78" len="12" pan="0" key="78"/>
          <note pos="1464" vol="78" len="12" pan="0" key="1"/>
          <note pos="1476" vol="78" len="12" pan="0" key="77"/>
          <note pos="1488" vol="78" len="12" pan="0" key="78"/>
          <note pos="1488" vol="78" len="12" pan="0" key="0"/>
          <note pos="1500" vol="78" len="12" pan="0" key="77"/>
          <note pos="1512" vol="78" len="12" pan="0" key="75"/>
          <note pos="1524" vol="78" len="12" pan="0" key="73"/>
          <note pos="1536" vol="78" len="48" pan="0" key="75"/>
          <note pos="1536" vol="78" len="12" pan="0" key="0"/>
          <note pos="1572" vol="78" len="12" pan="0" key="1"/>
          <note pos="1584" vol="78" len="12" pan="0" key="66"/>
          <note pos="1596" vol="78" len="12" pan="0" key="66"/>
          <note pos="1608" vol="78" len="48" pan="0" key="73"/>
          <note pos="1608" vol="78" len="12" pan="0" key="0"/>
          <note pos="1644" vol="78" len="12" pan="0" key="1"/>
          <note pos="1656" vol="78" len="12" pan="0" key="66"/>
          <note pos="1668" vol="78" len="12" pan="0" key="66"/>
          <note pos="1680" vol="78" len="24" pan="0" key="75"/>
          <note pos="1680" vol="78" len="12" pan="0" key="0"/>
          <note pos="1692" vol="78" len="12" pan="0" key="1"/>
          <note pos="1704" vol="78" len="12" pan="0" key="66"/>
          <note pos="1716" vol="78" len="12" pan="0" key="66"/>
          <note pos="1728" vol="78" len="144" pan="0" key="78"/>
          <note pos="1728" vol="78" len="12" pan="0" key="0"/>
          <note pos="1872" vol="78" len="48" pan="0" key="73"/>
          <note pos="1908" vol="78" len="12" pan="0" key="0"/>
          <note pos="1920" vol="78" len="12" pan="0" key="72"/>
          <note pos="1932" vol="78" len="12" pan="0" key="73"/>
          <note pos="1932" vol="78" len="12" pan="0" key="2"/>
          <note pos="1944" vol="78" len="216" pan="0" key="72"/>
          <note pos="2100" vol="78" len="12" pan="0" key="0"/>
          <note pos="2160" vol="78" len="48" pan="0" key="75"/>
          <note pos="2208" vol="78" len="24" pan="0" key="77"/>
          <note pos="2232" vol="78" len="12" pan="0" key="75"/>
          <note pos="2244" vol="78" len="12" pan="0" key="77"/>
          <note pos="2256" vol="78" len="24" pan="0" key="78"/>
          <note pos="2280" vol="78" len="12" pan="0" key="77"/>
          <note pos="2292" vol="78" len="12" pan="0" key="78"/>
          <note pos="2304" vol="78" len="72" pan="0" key="80"/>
          <note pos="2376" vol="78" len="72" pan="0" key="78"/>
          <note pos="2448" vol="78" len="48" pan="0" key="77"/>
          <note pos="2484" vol="78" len="12" pan="0" key="1"/>
          <note pos="2496" vol="193" len="12" pan="0" key="75"/>
          <note pos="2508" vol="193" len="12" pan="0" key="73"/>
          <note pos="2520" vol="193" len="12" pan="0" key="71"/>
          <note pos="2532" vol="193" len="12" pan="0" key="66"/>
          <note pos="2544" vol="193" len="12" pan="0" key="71"/>
          <note pos="2556" vol="193" len="12" pan="0" key="70"/>
          <note pos="2568" vol="193" len="12" pan="0" key="68"/>
          <note pos="2580" vol="193" len="12" pan="0" key="66"/>
          <note pos="2592" vol="193" len="12" pan="0" key="75"/>
          <note pos="2592" vol="78" len="12" pan="0" key="0"/>
          <note pos="2604" vol="193" len="12" pan="0" key="73"/>
          <note pos="2616" vol="193" len="12" pan="0" key="71"/>
          <note pos="2628" vol="193" len="12" pan="0" key="66"/>
          <note pos="2640" vol="193" len="48" pan="0" key="83"/>
          <note pos="2688" vol="193" len="192" pan="0" key="80"/>
        </pattern>
        <pattern name="" steps="16" pos="56448" muted="0" type="1">
          <note pos="0" vol="78" len="336" pan="0" key="75"/>
          <note pos="0" vol="78" len="336" pan="0" key="0"/>
          <note pos="336" vol="78" len="48" pan="0" key="78"/>
          <note pos="384" vol="78" len="288" pan="0" key="77"/>
          <note pos="672" vol="78" len="48" pan="0" key="70"/>
          <note pos="720" vol="78" len="48" pan="0" key="73"/>
          <note pos="768" vol="78" len="240" pan="0" key="75"/>
          <note pos="1008" vol="78" len="48" pan="0" key="73"/>
          <note pos="1056" vol="78" len="48" pan="0" key="75"/>
          <note pos="1104" vol="78" len="48" pan="0" key="82"/>
          <note pos="1152" vol="78" len="192" pan="0" key="80"/>
          <note pos="1344" vol="78" len="48" pan="0" key="83"/>
          <note pos="1392" vol="78" len="48" pan="0" key="82"/>
          <note pos="1440" vol="78" len="48" pan="0" key="80"/>
          <note pos="1488" vol="78" len="48" pan="0" key="76"/>
          <note pos="1536" vol="78" len="144" pan="0" key="75"/>
          <note pos="1680" vol="78" len="24" pan="0" key="75"/>
          <note pos="1704" vol="78" len="24" pan="0" key="77"/>
          <note pos="1728" vol="78" len="96" pan="0" key="78"/>
          <note pos="1812" vol="78" len="24" pan="0" key="0"/>
          <note pos="1824" vol="78" len="12" pan="0" key="80"/>
          <note pos="1836" vol="78" len="84" pan="0" key="82"/>
          <note pos="1836" vol="78" len="24" pan="0" key="2"/>
          <note pos="1896" vol="78" len="24" pan="0" key="0"/>
          <note pos="1920" vol="78" len="156" pan="0" key="80"/>
          <note pos="2076" vol="78" len="12" pan="0" key="80"/>
          <note pos="2088" vol="78" len="12" pan="0" key="78"/>
          <note pos="2100" vol="78" len="12" pan="0" key="77"/>
          <note pos="2112" vol="78" len="96" pan="0" key="73"/>
          <note pos="2208" vol="78" len="48" pan="0" key="70"/>
          <note pos="2256" vol="78" len="48" pan="0" key="73"/>
          <note pos="2304" vol="78" len="120" pan="0" key="75"/>
          <note pos="2424" vol="78" len="24" pan="0" key="73"/>
          <note pos="2448" vol="78" len="24" pan="0" key="72"/>
          <note pos="2472" vol="78" len="24" pan="0" key="68"/>
          <note pos="2496" vol="78" len="96" pan="0" key="70"/>
          <note pos="2592" vol="78" len="96" pan="0" key="63"/>
          <note pos="2688" vol="78" len="12" pan="0" key="70"/>
          <note pos="2688" vol="78" len="12" pan="0" key="0"/>
          <note pos="2700" vol="78" len="84" pan="0" key="71"/>
          <note pos="2700" vol="78" len="12" pan="0" key="2"/>
          <note pos="2712" vol="78" len="12" pan="0" key="0"/>
          <note pos="2784" vol="78" len="96" pan="0" key="70"/>
          <note pos="2880" vol="78" len="96" pan="0" key="68"/>
          <note pos="2976" vol="78" len="96" pan="0" key="73"/>
          <note pos="3072" vol="78" len="48" pan="0" key="75"/>
          <note pos="3120" vol="78" len="48" pan="0" key="70"/>
          <note pos="3168" vol="78" len="48" pan="0" key="75"/>
          <note pos="3216" vol="78" len="48" pan="0" key="77"/>
          <note pos="3264" vol="78" len="48" pan="0" key="78"/>
          <note pos="3312" vol="78" len="48" pan="0" key="80"/>
          <note pos="3360" vol="78" len="48" pan="0" key="82"/>
          <note pos="3408" vol="78" len="48" pan="0" key="87"/>
          <note pos="3456" vol="78" len="144" pan="0" key="85"/>
          <note pos="3600" vol="78" len="12" pan="0" key="80"/>
          <note pos="3600" vol="78" len="12" pan="0" key="0"/>
          <note pos="3612" vol="78" len="36" pan="0" key="82"/>
          <note pos="3612" vol="78" len="12" pan="0" key="2"/>
          <note pos="3624" vol="78" len="12" pan="0" key="0"/>
          <note pos="3648" vol="78" len="96" pan="0" key="80"/>
          <note pos="3744" vol="78" len="48" pan="0" key="77"/>
          <note pos="3792" vol="78" len="48" pan="0" key="80"/>
          <note pos="3840" vol="78" len="24" pan="0" key="79"/>
          <note pos="3864" vol="78" len="24" pan="0" key="80"/>
          <note pos="3888" vol="78" len="24" pan="0" key="79"/>
          <note pos="3912" vol="78" len="24" pan="0" key="75"/>
          <note pos="3936" vol="78" len="24" pan="0" key="72"/>
          <note pos="3960" vol="78" len="24" pan="0" key="63"/>
          <note pos="3984" vol="78" len="24" pan="0" key="70"/>
          <note pos="4008" vol="78" len="24" pan="0" key="68"/>
          <note pos="4032" vol="78" len="96" pan="0" key="70"/>
          <note pos="4128" vol="78" len="96" pan="0" key="75"/>
          <note pos="4224" vol="78" len="192" pan="0" key="75"/>
          <note pos="4416" vol="78" len="96" pan="0" key="78"/>
          <note pos="4512" vol="78" len="96" pan="0" key="80"/>
          <note pos="4608" vol="78" len="192" pan="0" key="82"/>
          <note pos="4608" vol="78" len="16" pan="0" key="0"/>
          <note pos="4800" vol="78" len="16" pan="0" key="75"/>
          <note pos="4800" vol="78" len="16" pan="0" key="1"/>
          <note pos="4816" vol="78" len="16" pan="0" key="77"/>
          <note pos="4832" vol="78" len="16" pan="0" key="75"/>
          <note pos="4848" vol="78" len="16" pan="0" key="78"/>
          <note pos="4864" vol="78" len="16" pan="0" key="80"/>
          <note pos="4864" vol="78" len="16" pan="0" key="0"/>
          <note pos="4880" vol="78" len="16" pan="0" key="82"/>
          <note pos="4896" vol="78" len="16" pan="0" key="87"/>
          <note pos="4912" vol="78" len="16" pan="0" key="82"/>
          <note pos="4928" vol="78" len="16" pan="0" key="80"/>
          <note pos="4928" vol="78" len="16" pan="0" key="1"/>
          <note pos="4944" vol="78" len="16" pan="0" key="78"/>
          <note pos="4960" vol="78" len="16" pan="0" key="77"/>
          <note pos="4976" vol="78" len="16" pan="0" key="75"/>
          <note pos="4992" vol="78" len="48" pan="0" key="77"/>
          <note pos="4992" vol="78" len="192" pan="0" key="0"/>
          <note pos="5040" vol="78" len="48" pan="0" key="78"/>
          <note pos="5088" vol="78" len="48" pan="0" key="80"/>
          <note pos="5136" vol="78" len="48" pan="0" key="85"/>
          <note pos="5184" vol="78" len="96" pan="0" key="73"/>
          <note pos="5280" vol="78" len="12" pan="0" key="75"/>
          <note pos="5280" vol="78" len="12" pan="0" key="0"/>
          <note pos="5292" vol="78" len="84" pan="0" key="77"/>
          <note pos="5292" vol="78" len="12" pan="0" key="2"/>
          <note pos="5304" vol="78" len="12" pan="0" key="0"/>
          <note pos="5376" vol="78" len="96" pan="0" key="75"/>
          <note pos="5472" vol="78" len="96" pan="0" key="77"/>
          <note pos="5568" vol="78" len="96" pan="0" key="70"/>
          <note pos="5664" vol="78" len="96" pan="0" key="75"/>
          <note pos="5760" vol="78" len="96" pan="0" key="80"/>
          <note pos="5856" vol="78" len="96" pan="0" key="82"/>
          <note pos="5952" vol="200" len="96" pan="0" key="85"/>
        </pattern>
      </track>
      <track name="lgtH1" solo="0" muted="1" type="0">
        <instrumenttrack basenote="57" fxch="12" usemasterpitch="1" pitch="0" vol="200" pan="-100" pitchrange="1">
          <instrument name="carlapatchbay">
            <carlapatchbay>
              <CARLA-PROJECT VERSION="2.2">
                <EngineSettings>
                  <ForceStereo>false</ForceStereo>
                  <PreferPluginBridges>false</PreferPluginBridges>
                  <PreferUiBridges>true</PreferUiBridges>
                  <UIsAlwaysOnTop>false</UIsAlwaysOnTop>
                  <MaxParameters>200</MaxParameters>
                  <UIBridgesTimeout>4000</UIBridgesTimeout>
                  <LADSPA_PATH>/home/pass/.ladspa:/usr/lib/ladspa:/usr/local/lib/ladspa</LADSPA_PATH>
                  <DSSI_PATH>/home/pass/.dssi:/usr/lib/dssi:/usr/local/lib/dssi</DSSI_PATH>
                  <LV2_PATH>/home/pass/.lv2:/usr/lib/lv2:/usr/local/lib/lv2</LV2_PATH>
                  <VST2_PATH>/home/pass/.vst:/home/pass/.wine/drive_c/Program Files (x86)/VstPlugins:/home/pass/.wine/drive_c/Program Files/VstPlugins:/usr/lib/lxvst:/usr/lib/vst:/usr/local/lib/lxvst:/usr/local/lib/vst/home/pass/.lxvst:/home/pass/vst</VST2_PATH>
                  <VST3_PATH>/home/pass/.vst3:/home/pass/.wine/drive_c/Program Files (x86)/Common Files/VST3:/home/pass/.wine/drive_c/Program Files/Common Files/VST3:/usr/lib/vst3:/usr/local/lib/vst3</VST3_PATH>
                  <SF2_PATH>/home/pass/.sounds/sf2/home/pass/.sounds/sf3:/usr/share/soundfonts:/usr/share/sounds/sf2:/usr/share/sounds/sf3</SF2_PATH>
                  <SFZ_PATH>/home/pass/.sounds/sfz:/home/pass/samples:/usr/share/sounds/sfz</SFZ_PATH>
                </EngineSettings>
                <!-- sfizz -->
                <Plugin>
                  <Info>
                    <Type>LV2</Type>
                    <Name>sfizz</Name>
                    <URI>http://sfztools.github.io/sfizz</URI>
                  </Info>
                  <Data>
                    <Active>Yes</Active>
                    <ControlChannel>1</ControlChannel>
                    <Options>0x3f0</Options>
                    <Parameter>
                      <Index>0</Index>
                      <Name>Volume</Name>
                      <Symbol>volume</Symbol>
                      <Value>0</Value>
                    </Parameter>
                    <Parameter>
                      <Index>1</Index>
                      <Name>Polyphony</Name>
                      <Symbol>num_voices</Symbol>
                      <Value>64</Value>
                    </Parameter>
                    <Parameter>
                      <Index>2</Index>
                      <Name>Internal oversampling factor</Name>
                      <Symbol>oversampling</Symbol>
                      <Value>1</Value>
                    </Parameter>
                    <Parameter>
                      <Index>3</Index>
                      <Name>Preload size</Name>
                      <Symbol>preload_size</Symbol>
                      <Value>8192</Value>
                    </Parameter>
                    <Parameter>
                      <Index>5</Index>
                      <Name>Scala root key</Name>
                      <Symbol>scala_root_key</Symbol>
                      <Value>60</Value>
                    </Parameter>
                    <Parameter>
                      <Index>6</Index>
                      <Name>Tuning frequency</Name>
                      <Symbol>tuning_frequency</Symbol>
                      <Value>440</Value>
                    </Parameter>
                    <Parameter>
                      <Index>7</Index>
                      <Name>Stretched tuning</Name>
                      <Symbol>stretched_tuning</Symbol>
                      <Value>0</Value>
                    </Parameter>
                    <CustomData>
                      <Type>http://lv2plug.in/ns/ext/atom#Path</Type>
                      <Key>http://sfztools.github.io/sfizz:sfzfile</Key>
                      <Value>_fakeguitar1_integrated.sfz</Value>
                    </CustomData>
                    <CustomData>
                      <Type>http://lv2plug.in/ns/ext/atom#Int</Type>
                      <Key>http://sfztools.github.io/sfizz:numvoices</Key>
                      <Value>QAAAAA==</Value>
                    </CustomData>
                    <CustomData>
                      <Type>http://lv2plug.in/ns/ext/atom#Int</Type>
                      <Key>http://sfztools.github.io/sfizz:preload_size</Key>
                      <Value>ACAAAA==</Value>
                    </CustomData>
                    <CustomData>
                      <Type>http://lv2plug.in/ns/ext/atom#Int</Type>
                      <Key>http://sfztools.github.io/sfizz:oversampling</Key>
                      <Value>AQAAAA==</Value>
                    </CustomData>
                    <CustomData>
                      <Type>http://lv2plug.in/ns/ext/atom#Path</Type>
                      <Key>http://sfztools.github.io/sfizz:tuningfile</Key>
                      <Value>DefaultScale.scl</Value>
                    </CustomData>
                  </Data>
                </Plugin>
                <Patchbay>
                  <Connection>
                    <Source>Midi Input:Capture 1</Source>
                    <Target>sfizz:events-in</Target>
                  </Connection>
                  <Connection>
                    <Source>sfizz:Left Output</Source>
                    <Target>Audio Output:Left</Target>
                  </Connection>
                  <Connection>
                    <Source>sfizz:Right Output</Source>
                    <Target>Audio Output:Right</Target>
                  </Connection>
                  <Positions>
                    <Position y1="1353" x1="1693" pluginId="0">
                      <Name>sfizz</Name>
                    </Position>
                  </Positions>
                </Patchbay>
              </CARLA-PROJECT>
            </carlapatchbay>
          </instrument>
          <eldata fwet="0" fcut="14000" ftype="0" fres="0.5">
            <elvol x100="0" userwavefile="" dec="0.5" amt="0" pdel="0" hold="0.5" lamt="0" lpdel="0" lshp="0" lspd_denominator="4" att="0" ctlenvamt="0" lspd="0.1" lspd_syncmode="0" rel="0.1" latt="0" lspd_numerator="4" sustain="0.5"/>
            <elcut x100="0" userwavefile="" dec="0.5" amt="0" pdel="0" hold="0.5" lamt="0" lpdel="0" lshp="0" lspd_denominator="4" att="0" ctlenvamt="0" lspd="0.1" lspd_syncmode="0" rel="0.1" latt="0" lspd_numerator="4" sustain="0.5"/>
            <elres x100="0" userwavefile="" dec="0.5" amt="0" pdel="0" hold="0.5" lamt="0" lpdel="0" lshp="0" lspd_denominator="4" att="0" ctlenvamt="0" lspd="0.1" lspd_syncmode="0" rel="0.1" latt="0" lspd_numerator="4" sustain="0.5"/>
          </eldata>
          <chordcreator chord-enabled="0" chord="0" chordrange="1"/>
          <arpeggiator arprange="1" arpmode="0" arp="0" arptime_numerator="4" arpmiss="0" arptime_denominator="4" arpcycle="0" arpskip="0" arptime_syncmode="0" arpgate="100" arptime="200" arpdir="0" arp-enabled="0"/>
          <midiport fixedoutputnote="-1" outputprogram="1" inputcontroller="0" writable="0" fixedoutputvelocity="-1" readable="0" outputchannel="1" basevelocity="63" outputcontroller="0" fixedinputvelocity="-1" inputchannel="0"/>
          <fxchain numofeffects="0" enabled="0"/>
        </instrumenttrack>
        <pattern name="" steps="16" pos="7104" muted="0" type="1">
          <note pos="0" vol="78" len="72" pan="0" key="0"/>
          <note pos="96" vol="78" len="48" pan="0" key="68"/>
          <note pos="144" vol="78" len="48" pan="0" key="71"/>
          <note pos="192" vol="78" len="96" pan="0" key="73"/>
          <note pos="288" vol="78" len="24" pan="0" key="73"/>
          <note pos="312" vol="78" len="24" pan="0" key="68"/>
          <note pos="336" vol="78" len="24" pan="0" key="73"/>
          <note pos="360" vol="78" len="168" pan="0" key="80"/>
          <note pos="528" vol="78" len="24" pan="0" key="80"/>
          <note pos="552" vol="78" len="24" pan="0" key="78"/>
          <note pos="576" vol="78" len="48" pan="0" key="77"/>
          <note pos="624" vol="78" len="48" pan="0" key="73"/>
          <note pos="672" vol="78" len="48" pan="0" key="70"/>
          <note pos="720" vol="78" len="48" pan="0" key="66"/>
          <note pos="768" vol="78" len="96" pan="0" key="69"/>
          <note pos="864" vol="78" len="96" pan="0" key="68"/>
          <note pos="960" vol="78" len="144" pan="0" key="73"/>
          <note pos="1104" vol="78" len="48" pan="0" key="76"/>
          <note pos="1152" vol="78" len="144" pan="0" key="75"/>
          <note pos="1296" vol="78" len="48" pan="0" key="80"/>
          <note pos="1344" vol="78" len="144" pan="0" key="80"/>
          <note pos="1488" vol="78" len="24" pan="0" key="78"/>
          <note pos="1512" vol="78" len="24" pan="0" key="76"/>
          <note pos="1536" vol="78" len="48" pan="0" key="75"/>
          <note pos="1584" vol="78" len="48" pan="0" key="76"/>
          <note pos="1632" vol="78" len="48" pan="0" key="71"/>
          <note pos="1680" vol="78" len="48" pan="0" key="68"/>
          <note pos="1728" vol="78" len="96" pan="0" key="69"/>
          <note pos="1824" vol="78" len="48" pan="0" key="73"/>
          <note pos="1872" vol="78" len="48" pan="0" key="76"/>
          <note pos="1920" vol="78" len="96" pan="0" key="76"/>
          <note pos="2016" vol="78" len="48" pan="0" key="75"/>
          <note pos="2064" vol="78" len="48" pan="0" key="76"/>
          <note pos="2112" vol="78" len="72" pan="0" key="83"/>
          <note pos="2184" vol="78" len="72" pan="0" key="81"/>
          <note pos="2256" vol="78" len="48" pan="0" key="80"/>
          <note pos="2304" vol="78" len="192" pan="0" key="78"/>
          <note pos="2496" vol="78" len="72" pan="0" key="76"/>
          <note pos="2568" vol="78" len="72" pan="0" key="75"/>
          <note pos="2640" vol="78" len="48" pan="0" key="76"/>
          <note pos="2688" vol="78" len="144" pan="0" key="80"/>
          <note pos="2832" vol="78" len="48" pan="0" key="75"/>
          <note pos="2880" vol="78" len="240" pan="0" key="73"/>
          <note pos="3120" vol="78" len="48" pan="0" key="76"/>
          <note pos="3168" vol="78" len="48" pan="0" key="78"/>
          <note pos="3216" vol="78" len="48" pan="0" key="80"/>
          <note pos="3264" vol="78" len="72" pan="0" key="81"/>
          <note pos="3336" vol="78" len="72" pan="0" key="80"/>
          <note pos="3408" vol="78" len="48" pan="0" key="78"/>
          <note pos="3456" vol="78" len="48" pan="0" key="76"/>
          <note pos="3504" vol="78" len="48" pan="0" key="73"/>
          <note pos="3552" vol="78" len="48" pan="0" key="76"/>
          <note pos="3600" vol="78" len="48" pan="0" key="80"/>
          <note pos="3648" vol="78" len="192" pan="0" key="78"/>
          <note pos="3840" vol="78" len="96" pan="0" key="75"/>
          <note pos="3936" vol="78" len="96" pan="0" key="71"/>
          <note pos="4032" vol="78" len="384" pan="0" key="73"/>
        </pattern>
        <pattern name="" steps="16" pos="5376" muted="0" type="1">
          <note pos="0" vol="78" len="24" pan="0" key="68"/>
          <note pos="0" vol="78" len="24" pan="0" key="0"/>
          <note pos="24" vol="78" len="24" pan="0" key="71"/>
          <note pos="48" vol="78" len="24" pan="0" key="68"/>
          <note pos="72" vol="78" len="48" pan="0" key="75"/>
          <note pos="120" vol="78" len="24" pan="0" key="68"/>
          <note pos="144" vol="78" len="24" pan="0" key="71"/>
          <note pos="168" vol="78" len="24" pan="0" key="75"/>
          <note pos="192" vol="78" len="24" pan="0" key="76"/>
          <note pos="216" vol="78" len="24" pan="0" key="75"/>
          <note pos="240" vol="78" len="24" pan="0" key="73"/>
          <note pos="264" vol="78" len="24" pan="0" key="71"/>
          <note pos="288" vol="78" len="24" pan="0" key="75"/>
          <note pos="312" vol="78" len="24" pan="0" key="73"/>
          <note pos="336" vol="78" len="24" pan="0" key="71"/>
          <note pos="360" vol="78" len="24" pan="0" key="68"/>
        </pattern>
        <pattern name="" steps="16" pos="6144" muted="0" type="1">
          <note pos="0" vol="78" len="24" pan="0" key="87"/>
          <note pos="0" vol="100" len="48" pan="0" key="0"/>
          <note pos="24" vol="78" len="24" pan="0" key="76"/>
          <note pos="48" vol="78" len="24" pan="0" key="80"/>
          <note pos="72" vol="78" len="48" pan="0" key="83"/>
          <note pos="120" vol="78" len="24" pan="0" key="80"/>
          <note pos="144" vol="78" len="24" pan="0" key="83"/>
          <note pos="168" vol="78" len="24" pan="0" key="87"/>
          <note pos="180" vol="100" len="48" pan="0" key="1"/>
          <note pos="192" vol="78" len="12" pan="0" key="85"/>
          <note pos="204" vol="78" len="12" pan="0" key="85"/>
          <note pos="216" vol="78" len="12" pan="0" key="80"/>
          <note pos="228" vol="78" len="12" pan="0" key="80"/>
          <note pos="240" vol="78" len="12" pan="0" key="76"/>
          <note pos="252" vol="78" len="12" pan="0" key="76"/>
          <note pos="264" vol="78" len="12" pan="0" key="73"/>
          <note pos="276" vol="78" len="12" pan="0" key="73"/>
          <note pos="288" vol="78" len="12" pan="0" key="78"/>
          <note pos="300" vol="78" len="12" pan="0" key="78"/>
          <note pos="312" vol="78" len="12" pan="0" key="76"/>
          <note pos="324" vol="78" len="12" pan="0" key="76"/>
          <note pos="336" vol="78" len="12" pan="0" key="80"/>
          <note pos="348" vol="78" len="12" pan="0" key="80"/>
          <note pos="360" vol="78" len="12" pan="0" key="76"/>
          <note pos="372" vol="78" len="12" pan="0" key="76"/>
          <note pos="384" vol="78" len="12" pan="0" key="0"/>
        </pattern>
        <pattern name="" steps="16" pos="13056" muted="0" type="1">
          <note pos="0" vol="78" len="24" pan="0" key="68"/>
          <note pos="0" vol="78" len="24" pan="0" key="0"/>
          <note pos="24" vol="78" len="24" pan="0" key="71"/>
          <note pos="48" vol="78" len="24" pan="0" key="68"/>
          <note pos="72" vol="78" len="48" pan="0" key="75"/>
          <note pos="120" vol="78" len="24" pan="0" key="68"/>
          <note pos="144" vol="78" len="24" pan="0" key="71"/>
          <note pos="168" vol="78" len="24" pan="0" key="75"/>
          <note pos="192" vol="78" len="24" pan="0" key="76"/>
          <note pos="216" vol="78" len="24" pan="0" key="75"/>
          <note pos="240" vol="78" len="24" pan="0" key="73"/>
          <note pos="264" vol="78" len="24" pan="0" key="71"/>
          <note pos="288" vol="78" len="24" pan="0" key="75"/>
          <note pos="312" vol="78" len="24" pan="0" key="73"/>
          <note pos="336" vol="78" len="24" pan="0" key="71"/>
          <note pos="360" vol="78" len="24" pan="0" key="68"/>
        </pattern>
        <pattern name="" steps="16" pos="13824" muted="0" type="1">
          <note pos="0" vol="78" len="24" pan="0" key="71"/>
          <note pos="0" vol="78" len="12" pan="0" key="0"/>
          <note pos="12" vol="78" len="12" pan="0" key="1"/>
          <note pos="24" vol="78" len="12" pan="0" key="61"/>
          <note pos="36" vol="78" len="12" pan="0" key="61"/>
          <note pos="48" vol="78" len="24" pan="0" key="64"/>
          <note pos="48" vol="78" len="12" pan="0" key="0"/>
          <note pos="72" vol="78" len="48" pan="0" key="68"/>
          <note pos="120" vol="78" len="24" pan="0" key="64"/>
          <note pos="144" vol="78" len="24" pan="0" key="68"/>
          <note pos="168" vol="78" len="24" pan="0" key="71"/>
          <note pos="192" vol="78" len="24" pan="0" key="69"/>
          <note pos="216" vol="78" len="24" pan="0" key="64"/>
          <note pos="240" vol="78" len="24" pan="0" key="61"/>
          <note pos="264" vol="78" len="24" pan="0" key="57"/>
          <note pos="288" vol="78" len="24" pan="0" key="63"/>
          <note pos="312" vol="78" len="24" pan="0" key="61"/>
          <note pos="336" vol="78" len="24" pan="0" key="64"/>
          <note pos="360" vol="78" len="24" pan="0" key="61"/>
        </pattern>
        <pattern name="" steps="16" pos="18816" muted="0" type="1">
          <note pos="0" vol="78" len="336" pan="0" key="73"/>
          <note pos="336" vol="78" len="48" pan="0" key="64"/>
          <note pos="384" vol="78" len="288" pan="0" key="63"/>
          <note pos="672" vol="78" len="48" pan="0" key="56"/>
          <note pos="720" vol="78" len="48" pan="0" key="59"/>
          <note pos="768" vol="78" len="240" pan="0" key="61"/>
          <note pos="1008" vol="78" len="48" pan="0" key="59"/>
          <note pos="1056" vol="78" len="48" pan="0" key="61"/>
          <note pos="1104" vol="78" len="48" pan="0" key="68"/>
          <note pos="1152" vol="78" len="192" pan="0" key="66"/>
          <note pos="1344" vol="78" len="48" pan="0" key="69"/>
          <note pos="1392" vol="78" len="24" pan="0" key="68"/>
          <note pos="1416" vol="78" len="12" pan="0" key="68"/>
          <note pos="1424" vol="78" len="12" pan="0" key="69"/>
          <note pos="1432" vol="78" len="12" pan="0" key="68"/>
          <note pos="1440" vol="78" len="48" pan="0" key="66"/>
          <note pos="1488" vol="78" len="48" pan="0" key="68"/>
          <note pos="1536" vol="78" len="240" pan="0" key="64"/>
          <note pos="1776" vol="78" len="48" pan="0" key="61"/>
          <note pos="1824" vol="78" len="48" pan="0" key="64"/>
          <note pos="1872" vol="78" len="48" pan="0" key="68"/>
          <note pos="1920" vol="78" len="192" pan="0" key="68"/>
          <note pos="2112" vol="78" len="144" pan="0" key="66"/>
          <note pos="2256" vol="78" len="48" pan="0" key="68"/>
          <note pos="2304" vol="78" len="240" pan="0" key="61"/>
          <note pos="2544" vol="78" len="48" pan="0" key="56"/>
          <note pos="2592" vol="78" len="48" pan="0" key="61"/>
          <note pos="2640" vol="78" len="48" pan="0" key="68"/>
          <note pos="2688" vol="78" len="192" pan="0" key="73"/>
          <note pos="2880" vol="78" len="192" pan="0" key="72"/>
        </pattern>
        <pattern name="" steps="16" pos="14784" muted="0" type="1">
          <note pos="0" vol="78" len="72" pan="0" key="0"/>
          <note pos="96" vol="78" len="48" pan="0" key="68"/>
          <note pos="144" vol="78" len="48" pan="0" key="71"/>
          <note pos="192" vol="78" len="96" pan="0" key="73"/>
          <note pos="288" vol="78" len="24" pan="0" key="73"/>
          <note pos="312" vol="78" len="24" pan="0" key="68"/>
          <note pos="336" vol="78" len="24" pan="0" key="73"/>
          <note pos="360" vol="78" len="168" pan="0" key="80"/>
          <note pos="528" vol="78" len="24" pan="0" key="80"/>
          <note pos="552" vol="78" len="24" pan="0" key="78"/>
          <note pos="576" vol="78" len="48" pan="0" key="77"/>
          <note pos="624" vol="78" len="48" pan="0" key="73"/>
          <note pos="672" vol="78" len="48" pan="0" key="70"/>
          <note pos="720" vol="78" len="48" pan="0" key="66"/>
          <note pos="768" vol="78" len="96" pan="0" key="69"/>
          <note pos="864" vol="78" len="96" pan="0" key="68"/>
          <note pos="960" vol="78" len="144" pan="0" key="73"/>
          <note pos="1104" vol="78" len="48" pan="0" key="76"/>
          <note pos="1152" vol="78" len="144" pan="0" key="75"/>
          <note pos="1296" vol="78" len="48" pan="0" key="80"/>
          <note pos="1344" vol="78" len="144" pan="0" key="80"/>
          <note pos="1488" vol="78" len="24" pan="0" key="78"/>
          <note pos="1512" vol="78" len="24" pan="0" key="76"/>
          <note pos="1536" vol="78" len="48" pan="0" key="75"/>
          <note pos="1584" vol="78" len="48" pan="0" key="76"/>
          <note pos="1632" vol="78" len="48" pan="0" key="71"/>
          <note pos="1680" vol="78" len="48" pan="0" key="68"/>
          <note pos="1728" vol="78" len="96" pan="0" key="69"/>
          <note pos="1824" vol="78" len="48" pan="0" key="73"/>
          <note pos="1872" vol="78" len="48" pan="0" key="76"/>
          <note pos="1920" vol="78" len="96" pan="0" key="76"/>
          <note pos="2016" vol="78" len="48" pan="0" key="75"/>
          <note pos="2064" vol="78" len="48" pan="0" key="76"/>
          <note pos="2112" vol="78" len="72" pan="0" key="83"/>
          <note pos="2184" vol="78" len="72" pan="0" key="81"/>
          <note pos="2256" vol="78" len="48" pan="0" key="80"/>
          <note pos="2304" vol="78" len="192" pan="0" key="78"/>
          <note pos="2496" vol="78" len="72" pan="0" key="76"/>
          <note pos="2568" vol="78" len="72" pan="0" key="75"/>
          <note pos="2640" vol="78" len="48" pan="0" key="76"/>
          <note pos="2688" vol="78" len="144" pan="0" key="80"/>
          <note pos="2832" vol="78" len="48" pan="0" key="75"/>
          <note pos="2880" vol="78" len="240" pan="0" key="73"/>
          <note pos="3120" vol="78" len="48" pan="0" key="76"/>
          <note pos="3168" vol="78" len="48" pan="0" key="78"/>
          <note pos="3216" vol="78" len="48" pan="0" key="80"/>
          <note pos="3264" vol="78" len="72" pan="0" key="81"/>
          <note pos="3336" vol="78" len="72" pan="0" key="80"/>
          <note pos="3408" vol="78" len="48" pan="0" key="78"/>
          <note pos="3456" vol="78" len="48" pan="0" key="76"/>
          <note pos="3504" vol="78" len="48" pan="0" key="73"/>
          <note pos="3552" vol="78" len="48" pan="0" key="76"/>
          <note pos="3600" vol="78" len="48" pan="0" key="80"/>
          <note pos="3648" vol="78" len="192" pan="0" key="78"/>
          <note pos="3840" vol="78" len="96" pan="0" key="75"/>
          <note pos="3936" vol="78" len="96" pan="0" key="71"/>
        </pattern>
        <pattern name="" steps="16" pos="34944" muted="0" type="1">
          <note pos="0" vol="197" len="144" pan="0" key="73"/>
          <note pos="0" vol="197" len="12" pan="0" key="0"/>
          <note pos="144" vol="197" len="48" pan="0" key="76"/>
          <note pos="192" vol="197" len="144" pan="0" key="75"/>
          <note pos="336" vol="197" len="48" pan="0" key="80"/>
          <note pos="384" vol="197" len="144" pan="0" key="80"/>
          <note pos="528" vol="197" len="24" pan="0" key="78"/>
          <note pos="552" vol="197" len="24" pan="0" key="76"/>
          <note pos="576" vol="197" len="48" pan="0" key="75"/>
          <note pos="624" vol="197" len="48" pan="0" key="76"/>
          <note pos="672" vol="197" len="12" pan="0" key="71"/>
          <note pos="672" vol="197" len="12" pan="0" key="1"/>
          <note pos="684" vol="197" len="12" pan="0" key="73"/>
          <note pos="696" vol="197" len="12" pan="0" key="71"/>
          <note pos="708" vol="197" len="12" pan="0" key="68"/>
          <note pos="720" vol="197" len="12" pan="0" key="71"/>
          <note pos="732" vol="197" len="12" pan="0" key="68"/>
          <note pos="744" vol="197" len="12" pan="0" key="66"/>
          <note pos="756" vol="197" len="12" pan="0" key="68"/>
          <note pos="768" vol="197" len="96" pan="0" key="69"/>
          <note pos="768" vol="197" len="12" pan="0" key="0"/>
          <note pos="864" vol="197" len="48" pan="0" key="73"/>
          <note pos="912" vol="197" len="48" pan="0" key="76"/>
          <note pos="960" vol="197" len="96" pan="0" key="76"/>
          <note pos="1056" vol="197" len="48" pan="0" key="75"/>
          <note pos="1104" vol="197" len="48" pan="0" key="76"/>
          <note pos="1152" vol="197" len="12" pan="0" key="76"/>
          <note pos="1152" vol="200" len="12" pan="0" key="0"/>
          <note pos="1164" vol="197" len="12" pan="0" key="73"/>
          <note pos="1176" vol="197" len="12" pan="0" key="75"/>
          <note pos="1188" vol="197" len="12" pan="0" key="76"/>
          <note pos="1200" vol="197" len="12" pan="0" key="78"/>
          <note pos="1212" vol="197" len="12" pan="0" key="75"/>
          <note pos="1224" vol="197" len="12" pan="0" key="76"/>
          <note pos="1236" vol="197" len="12" pan="0" key="78"/>
          <note pos="1248" vol="197" len="12" pan="0" key="80"/>
          <note pos="1260" vol="197" len="12" pan="0" key="76"/>
          <note pos="1272" vol="197" len="12" pan="0" key="78"/>
          <note pos="1284" vol="197" len="12" pan="0" key="80"/>
          <note pos="1296" vol="197" len="12" pan="0" key="81"/>
          <note pos="1308" vol="197" len="12" pan="0" key="78"/>
          <note pos="1320" vol="197" len="12" pan="0" key="80"/>
          <note pos="1332" vol="197" len="12" pan="0" key="81"/>
          <note pos="1344" vol="200" len="12" pan="0" key="83"/>
          <note pos="1356" vol="200" len="12" pan="0" key="81"/>
          <note pos="1368" vol="200" len="12" pan="0" key="80"/>
          <note pos="1380" vol="200" len="12" pan="0" key="78"/>
          <note pos="1392" vol="200" len="12" pan="0" key="81"/>
          <note pos="1404" vol="200" len="12" pan="0" key="80"/>
          <note pos="1416" vol="200" len="12" pan="0" key="78"/>
          <note pos="1428" vol="200" len="12" pan="0" key="76"/>
          <note pos="1440" vol="200" len="12" pan="0" key="80"/>
          <note pos="1452" vol="200" len="12" pan="0" key="78"/>
          <note pos="1464" vol="200" len="12" pan="0" key="80"/>
          <note pos="1476" vol="200" len="12" pan="0" key="81"/>
          <note pos="1488" vol="200" len="12" pan="0" key="87"/>
          <note pos="1488" vol="200" len="12" pan="0" key="2"/>
          <note pos="1500" vol="200" len="12" pan="0" key="83"/>
          <note pos="1512" vol="200" len="12" pan="0" key="87"/>
          <note pos="1524" vol="200" len="12" pan="0" key="83"/>
        </pattern>
        <pattern name="" steps="16" pos="31104" muted="0" type="1">
          <note pos="0" vol="197" len="24" pan="0" key="85"/>
          <note pos="0" vol="197" len="24" pan="0" key="1"/>
          <note pos="24" vol="197" len="24" pan="0" key="80"/>
          <note pos="48" vol="197" len="24" pan="0" key="83"/>
          <note pos="72" vol="197" len="24" pan="0" key="78"/>
          <note pos="96" vol="197" len="24" pan="0" key="80"/>
          <note pos="120" vol="197" len="24" pan="0" key="78"/>
          <note pos="144" vol="197" len="24" pan="0" key="76"/>
          <note pos="168" vol="197" len="24" pan="0" key="78"/>
          <note pos="192" vol="197" len="24" pan="0" key="80"/>
          <note pos="216" vol="197" len="24" pan="0" key="78"/>
          <note pos="240" vol="197" len="24" pan="0" key="80"/>
          <note pos="264" vol="197" len="24" pan="0" key="83"/>
          <note pos="288" vol="197" len="24" pan="0" key="85"/>
          <note pos="312" vol="197" len="24" pan="0" key="83"/>
          <note pos="336" vol="197" len="24" pan="0" key="80"/>
          <note pos="360" vol="197" len="24" pan="0" key="83"/>
        </pattern>
        <pattern name="" steps="16" pos="31488" muted="0" type="1">
          <note pos="0" vol="197" len="12" pan="0" key="71"/>
          <note pos="0" vol="197" len="24" pan="0" key="0"/>
          <note pos="12" vol="197" len="12" pan="0" key="69"/>
          <note pos="12" vol="197" len="24" pan="0" key="1"/>
          <note pos="24" vol="197" len="12" pan="0" key="71"/>
          <note pos="36" vol="197" len="12" pan="0" key="73"/>
          <note pos="48" vol="197" len="12" pan="0" key="75"/>
          <note pos="48" vol="197" len="12" pan="0" key="0"/>
          <note pos="60" vol="197" len="12" pan="0" key="71"/>
          <note pos="60" vol="197" len="12" pan="0" key="1"/>
          <note pos="72" vol="197" len="12" pan="0" key="73"/>
          <note pos="84" vol="197" len="12" pan="0" key="75"/>
          <note pos="96" vol="197" len="12" pan="0" key="76"/>
          <note pos="96" vol="197" len="12" pan="0" key="0"/>
          <note pos="108" vol="197" len="12" pan="0" key="75"/>
          <note pos="108" vol="197" len="12" pan="0" key="1"/>
          <note pos="120" vol="197" len="12" pan="0" key="73"/>
          <note pos="132" vol="197" len="12" pan="0" key="75"/>
          <note pos="144" vol="197" len="12" pan="0" key="76"/>
          <note pos="156" vol="197" len="12" pan="0" key="78"/>
          <note pos="168" vol="197" len="12" pan="0" key="80"/>
          <note pos="180" vol="197" len="12" pan="0" key="81"/>
          <note pos="192" vol="197" len="12" pan="0" key="83"/>
          <note pos="192" vol="197" len="12" pan="0" key="0"/>
          <note pos="204" vol="197" len="12" pan="0" key="78"/>
          <note pos="216" vol="197" len="12" pan="0" key="75"/>
          <note pos="216" vol="197" len="12" pan="0" key="1"/>
          <note pos="228" vol="197" len="12" pan="0" key="71"/>
          <note pos="240" vol="197" len="12" pan="0" key="66"/>
          <note pos="252" vol="197" len="12" pan="0" key="71"/>
          <note pos="264" vol="197" len="12" pan="0" key="87"/>
          <note pos="264" vol="197" len="12" pan="0" key="2"/>
          <note pos="276" vol="197" len="12" pan="0" key="78"/>
          <note pos="288" vol="197" len="12" pan="0" key="75"/>
          <note pos="288" vol="197" len="12" pan="0" key="1"/>
          <note pos="300" vol="197" len="12" pan="0" key="71"/>
          <note pos="312" vol="197" len="12" pan="0" key="75"/>
          <note pos="324" vol="197" len="12" pan="0" key="78"/>
          <note pos="336" vol="197" len="12" pan="0" key="83"/>
          <note pos="336" vol="197" len="12" pan="0" key="0"/>
          <note pos="348" vol="197" len="12" pan="0" key="78"/>
          <note pos="360" vol="197" len="12" pan="0" key="75"/>
          <note pos="372" vol="197" len="12" pan="0" key="78"/>
        </pattern>
        <pattern name="" steps="16" pos="31872" muted="0" type="1">
          <note pos="0" vol="100" len="240" pan="0" key="85"/>
        </pattern>
        <pattern name="" steps="16" pos="37056" muted="0" type="1">
          <note pos="0" vol="197" len="12" pan="0" key="80"/>
          <note pos="0" vol="197" len="12" pan="0" key="0"/>
          <note pos="12" vol="197" len="12" pan="0" key="64"/>
          <note pos="12" vol="197" len="12" pan="0" key="2"/>
          <note pos="24" vol="197" len="12" pan="0" key="64"/>
          <note pos="24" vol="197" len="12" pan="0" key="0"/>
          <note pos="36" vol="197" len="12" pan="0" key="78"/>
          <note pos="36" vol="197" len="12" pan="0" key="0"/>
          <note pos="48" vol="197" len="12" pan="0" key="64"/>
          <note pos="48" vol="197" len="12" pan="0" key="2"/>
          <note pos="60" vol="197" len="12" pan="0" key="64"/>
          <note pos="60" vol="197" len="12" pan="0" key="0"/>
          <note pos="72" vol="197" len="12" pan="0" key="80"/>
          <note pos="72" vol="197" len="12" pan="0" key="0"/>
          <note pos="84" vol="197" len="12" pan="0" key="64"/>
          <note pos="84" vol="197" len="12" pan="0" key="2"/>
          <note pos="96" vol="197" len="12" pan="0" key="64"/>
          <note pos="96" vol="197" len="12" pan="0" key="0"/>
          <note pos="108" vol="197" len="12" pan="0" key="78"/>
          <note pos="108" vol="197" len="12" pan="0" key="0"/>
          <note pos="120" vol="197" len="12" pan="0" key="64"/>
          <note pos="120" vol="197" len="12" pan="0" key="2"/>
          <note pos="132" vol="197" len="12" pan="0" key="64"/>
          <note pos="132" vol="197" len="12" pan="0" key="0"/>
          <note pos="144" vol="197" len="12" pan="0" key="83"/>
          <note pos="144" vol="197" len="12" pan="0" key="0"/>
          <note pos="156" vol="197" len="12" pan="0" key="64"/>
          <note pos="156" vol="197" len="12" pan="0" key="2"/>
          <note pos="168" vol="197" len="12" pan="0" key="81"/>
          <note pos="168" vol="197" len="12" pan="0" key="0"/>
          <note pos="180" vol="197" len="12" pan="0" key="64"/>
          <note pos="180" vol="197" len="12" pan="0" key="2"/>
        </pattern>
        <pattern name="" steps="16" pos="37248" muted="0" type="1">
          <note pos="0" vol="100" len="12" pan="0" key="85"/>
          <note pos="0" vol="100" len="48" pan="0" key="0"/>
          <note pos="12" vol="100" len="12" pan="0" key="83"/>
          <note pos="24" vol="100" len="12" pan="0" key="80"/>
          <note pos="24" vol="100" len="12" pan="0" key="1"/>
          <note pos="36" vol="100" len="12" pan="0" key="78"/>
          <note pos="48" vol="100" len="12" pan="0" key="76"/>
          <note pos="60" vol="100" len="12" pan="0" key="73"/>
          <note pos="72" vol="100" len="12" pan="0" key="76"/>
          <note pos="84" vol="100" len="12" pan="0" key="80"/>
          <note pos="96" vol="100" len="12" pan="0" key="85"/>
          <note pos="96" vol="100" len="12" pan="0" key="0"/>
          <note pos="108" vol="100" len="12" pan="0" key="83"/>
          <note pos="120" vol="100" len="12" pan="0" key="80"/>
          <note pos="120" vol="100" len="12" pan="0" key="1"/>
          <note pos="132" vol="100" len="12" pan="0" key="78"/>
          <note pos="144" vol="100" len="12" pan="0" key="76"/>
          <note pos="156" vol="100" len="12" pan="0" key="73"/>
          <note pos="168" vol="100" len="12" pan="0" key="76"/>
          <note pos="180" vol="100" len="12" pan="0" key="80"/>
        </pattern>
        <pattern name="" steps="16" pos="37440" muted="0" type="1">
          <note pos="0" vol="197" len="12" pan="0" key="71"/>
          <note pos="0" vol="100" len="12" pan="0" key="0"/>
          <note pos="12" vol="197" len="12" pan="0" key="73"/>
          <note pos="24" vol="197" len="12" pan="0" key="71"/>
          <note pos="36" vol="197" len="12" pan="0" key="68"/>
          <note pos="36" vol="100" len="12" pan="0" key="1"/>
          <note pos="48" vol="197" len="12" pan="0" key="69"/>
          <note pos="60" vol="197" len="12" pan="0" key="64"/>
          <note pos="72" vol="197" len="12" pan="0" key="68"/>
          <note pos="72" vol="100" len="12" pan="0" key="0"/>
          <note pos="84" vol="197" len="12" pan="0" key="69"/>
          <note pos="96" vol="197" len="12" pan="0" key="75"/>
          <note pos="96" vol="100" len="12" pan="0" key="0"/>
          <note pos="108" vol="197" len="12" pan="0" key="76"/>
          <note pos="120" vol="197" len="12" pan="0" key="75"/>
          <note pos="132" vol="197" len="12" pan="0" key="73"/>
          <note pos="132" vol="100" len="12" pan="0" key="1"/>
          <note pos="144" vol="197" len="12" pan="0" key="75"/>
          <note pos="156" vol="197" len="12" pan="0" key="69"/>
          <note pos="168" vol="197" len="12" pan="0" key="71"/>
          <note pos="168" vol="100" len="12" pan="0" key="0"/>
          <note pos="180" vol="197" len="12" pan="0" key="73"/>
        </pattern>
        <pattern name="" steps="16" pos="34752" muted="0" type="1">
          <note pos="96" vol="95" len="12" pan="0" key="80"/>
          <note pos="96" vol="95" len="12" pan="0" key="0"/>
          <note pos="108" vol="95" len="12" pan="0" key="81"/>
          <note pos="120" vol="95" len="12" pan="0" key="80"/>
          <note pos="132" vol="95" len="12" pan="0" key="78"/>
          <note pos="132" vol="95" len="12" pan="0" key="1"/>
          <note pos="144" vol="95" len="12" pan="0" key="80"/>
          <note pos="144" vol="95" len="12" pan="0" key="0"/>
          <note pos="156" vol="95" len="12" pan="0" key="78"/>
          <note pos="156" vol="95" len="12" pan="0" key="1"/>
          <note pos="168" vol="95" len="12" pan="0" key="76"/>
          <note pos="180" vol="95" len="12" pan="0" key="75"/>
        </pattern>
        <pattern name="" steps="16" pos="37632" muted="0" type="1">
          <note pos="0" vol="197" len="12" pan="0" key="68"/>
          <note pos="0" vol="197" len="12" pan="0" key="1"/>
          <note pos="12" vol="197" len="12" pan="0" key="69"/>
          <note pos="24" vol="197" len="12" pan="0" key="68"/>
          <note pos="36" vol="197" len="12" pan="0" key="66"/>
          <note pos="48" vol="197" len="12" pan="0" key="69"/>
          <note pos="60" vol="197" len="12" pan="0" key="71"/>
          <note pos="72" vol="197" len="12" pan="0" key="69"/>
          <note pos="84" vol="197" len="12" pan="0" key="68"/>
          <note pos="96" vol="197" len="12" pan="0" key="71"/>
          <note pos="96" vol="197" len="12" pan="0" key="0"/>
          <note pos="108" vol="197" len="12" pan="0" key="73"/>
          <note pos="120" vol="197" len="12" pan="0" key="71"/>
          <note pos="120" vol="197" len="12" pan="0" key="1"/>
          <note pos="132" vol="197" len="12" pan="0" key="69"/>
          <note pos="144" vol="197" len="12" pan="0" key="73"/>
          <note pos="144" vol="197" len="12" pan="0" key="0"/>
          <note pos="156" vol="197" len="12" pan="0" key="75"/>
          <note pos="168" vol="197" len="12" pan="0" key="73"/>
          <note pos="168" vol="197" len="12" pan="0" key="1"/>
          <note pos="180" vol="197" len="12" pan="0" key="71"/>
          <note pos="192" vol="197" len="12" pan="0" key="76"/>
          <note pos="192" vol="197" len="12" pan="0" key="0"/>
          <note pos="204" vol="197" len="12" pan="0" key="73"/>
          <note pos="216" vol="197" len="12" pan="0" key="75"/>
          <note pos="216" vol="197" len="12" pan="0" key="1"/>
          <note pos="228" vol="197" len="12" pan="0" key="76"/>
          <note pos="240" vol="197" len="12" pan="0" key="78"/>
          <note pos="240" vol="197" len="12" pan="0" key="0"/>
          <note pos="252" vol="197" len="12" pan="0" key="75"/>
          <note pos="264" vol="197" len="12" pan="0" key="76"/>
          <note pos="264" vol="197" len="12" pan="0" key="1"/>
          <note pos="276" vol="197" len="12" pan="0" key="78"/>
          <note pos="288" vol="197" len="12" pan="0" key="81"/>
          <note pos="288" vol="197" len="12" pan="0" key="0"/>
          <note pos="300" vol="197" len="12" pan="0" key="80"/>
          <note pos="312" vol="197" len="12" pan="0" key="81"/>
          <note pos="324" vol="197" len="12" pan="0" key="83"/>
          <note pos="336" vol="197" len="12" pan="0" key="87"/>
          <note pos="336" vol="197" len="12" pan="0" key="0"/>
          <note pos="348" vol="197" len="12" pan="0" key="83"/>
          <note pos="360" vol="197" len="12" pan="0" key="78"/>
          <note pos="360" vol="197" len="12" pan="0" key="1"/>
          <note pos="372" vol="197" len="12" pan="0" key="75"/>
        </pattern>
        <pattern name="" steps="16" pos="38784" muted="0" type="1">
          <note pos="0" vol="100" len="12" pan="0" key="66"/>
          <note pos="0" vol="100" len="12" pan="0" key="1"/>
          <note pos="12" vol="100" len="12" pan="0" key="68"/>
          <note pos="24" vol="100" len="12" pan="0" key="69"/>
          <note pos="36" vol="100" len="12" pan="0" key="71"/>
          <note pos="48" vol="100" len="12" pan="0" key="73"/>
          <note pos="48" vol="100" len="12" pan="0" key="0"/>
          <note pos="60" vol="100" len="12" pan="0" key="71"/>
          <note pos="72" vol="100" len="12" pan="0" key="69"/>
          <note pos="72" vol="100" len="12" pan="0" key="1"/>
          <note pos="84" vol="100" len="12" pan="0" key="68"/>
          <note pos="96" vol="100" len="12" pan="0" key="69"/>
          <note pos="108" vol="100" len="12" pan="0" key="71"/>
          <note pos="120" vol="100" len="12" pan="0" key="73"/>
          <note pos="132" vol="100" len="12" pan="0" key="75"/>
          <note pos="144" vol="100" len="12" pan="0" key="76"/>
          <note pos="144" vol="100" len="12" pan="0" key="0"/>
          <note pos="156" vol="100" len="12" pan="0" key="75"/>
          <note pos="168" vol="100" len="12" pan="0" key="73"/>
          <note pos="168" vol="100" len="12" pan="0" key="1"/>
          <note pos="180" vol="100" len="12" pan="0" key="71"/>
          <note pos="192" vol="100" len="12" pan="0" key="73"/>
          <note pos="204" vol="100" len="12" pan="0" key="75"/>
          <note pos="216" vol="100" len="12" pan="0" key="76"/>
          <note pos="228" vol="100" len="12" pan="0" key="78"/>
          <note pos="240" vol="100" len="12" pan="0" key="80"/>
          <note pos="240" vol="100" len="12" pan="0" key="0"/>
          <note pos="252" vol="100" len="12" pan="0" key="78"/>
          <note pos="264" vol="100" len="12" pan="0" key="76"/>
          <note pos="264" vol="100" len="12" pan="0" key="1"/>
          <note pos="276" vol="100" len="12" pan="0" key="75"/>
          <note pos="288" vol="100" len="12" pan="0" key="81"/>
          <note pos="288" vol="100" len="12" pan="0" key="0"/>
          <note pos="300" vol="100" len="12" pan="0" key="80"/>
          <note pos="312" vol="100" len="12" pan="0" key="78"/>
          <note pos="324" vol="100" len="12" pan="0" key="76"/>
          <note pos="336" vol="100" len="12" pan="0" key="83"/>
          <note pos="348" vol="100" len="12" pan="0" key="81"/>
          <note pos="360" vol="100" len="12" pan="0" key="80"/>
          <note pos="372" vol="100" len="12" pan="0" key="78"/>
        </pattern>
        <pattern name="" steps="16" pos="39168" muted="0" type="1">
          <note pos="0" vol="78" len="24" pan="0" key="82"/>
          <note pos="0" vol="78" len="24" pan="0" key="0"/>
          <note pos="24" vol="78" len="24" pan="0" key="79"/>
          <note pos="48" vol="78" len="24" pan="0" key="75"/>
          <note pos="72" vol="78" len="24" pan="0" key="79"/>
          <note pos="96" vol="78" len="24" pan="0" key="75"/>
          <note pos="120" vol="78" len="24" pan="0" key="70"/>
          <note pos="144" vol="78" len="24" pan="0" key="75"/>
          <note pos="168" vol="78" len="24" pan="0" key="79"/>
          <note pos="192" vol="78" len="48" pan="0" key="80"/>
          <note pos="240" vol="78" len="48" pan="0" key="84"/>
          <note pos="288" vol="78" len="48" pan="0" key="85"/>
          <note pos="336" vol="78" len="48" pan="0" key="87"/>
        </pattern>
        <pattern name="" steps="16" pos="43200" muted="0" type="1">
          <note pos="0" vol="78" len="72" pan="0" key="0"/>
          <note pos="960" vol="78" len="144" pan="0" key="75"/>
          <note pos="1104" vol="78" len="48" pan="0" key="78"/>
          <note pos="1152" vol="78" len="144" pan="0" key="77"/>
          <note pos="1296" vol="78" len="48" pan="0" key="82"/>
          <note pos="1344" vol="78" len="144" pan="0" key="82"/>
          <note pos="1488" vol="78" len="24" pan="0" key="80"/>
          <note pos="1512" vol="78" len="24" pan="0" key="78"/>
          <note pos="1536" vol="78" len="48" pan="0" key="77"/>
          <note pos="1584" vol="78" len="48" pan="0" key="78"/>
          <note pos="1632" vol="78" len="48" pan="0" key="73"/>
          <note pos="1680" vol="78" len="48" pan="0" key="70"/>
          <note pos="1728" vol="78" len="96" pan="0" key="71"/>
          <note pos="1824" vol="78" len="48" pan="0" key="75"/>
          <note pos="1872" vol="78" len="48" pan="0" key="78"/>
          <note pos="1920" vol="78" len="96" pan="0" key="78"/>
          <note pos="2016" vol="78" len="48" pan="0" key="77"/>
          <note pos="2064" vol="78" len="48" pan="0" key="78"/>
          <note pos="2112" vol="78" len="72" pan="0" key="85"/>
          <note pos="2184" vol="78" len="72" pan="0" key="83"/>
          <note pos="2256" vol="78" len="48" pan="0" key="82"/>
          <note pos="2304" vol="78" len="192" pan="0" key="80"/>
          <note pos="2496" vol="78" len="72" pan="0" key="78"/>
          <note pos="2568" vol="78" len="72" pan="0" key="77"/>
          <note pos="2640" vol="78" len="48" pan="0" key="78"/>
          <note pos="2688" vol="78" len="144" pan="0" key="82"/>
          <note pos="2832" vol="78" len="48" pan="0" key="77"/>
          <note pos="2880" vol="78" len="240" pan="0" key="75"/>
          <note pos="3120" vol="78" len="48" pan="0" key="78"/>
          <note pos="3168" vol="78" len="48" pan="0" key="80"/>
          <note pos="3216" vol="78" len="48" pan="0" key="82"/>
          <note pos="3264" vol="78" len="72" pan="0" key="83"/>
          <note pos="3336" vol="78" len="72" pan="0" key="82"/>
          <note pos="3408" vol="78" len="48" pan="0" key="80"/>
          <note pos="3456" vol="78" len="48" pan="0" key="78"/>
          <note pos="3504" vol="78" len="48" pan="0" key="75"/>
          <note pos="3552" vol="78" len="48" pan="0" key="78"/>
          <note pos="3600" vol="78" len="48" pan="0" key="82"/>
          <note pos="3648" vol="78" len="192" pan="0" key="80"/>
          <note pos="3840" vol="106" len="12" pan="0" key="73"/>
          <note pos="3852" vol="106" len="12" pan="0" key="71"/>
          <note pos="3864" vol="106" len="12" pan="0" key="70"/>
          <note pos="3876" vol="106" len="12" pan="0" key="68"/>
          <note pos="3888" vol="106" len="12" pan="0" key="71"/>
          <note pos="3900" vol="106" len="12" pan="0" key="70"/>
          <note pos="3912" vol="106" len="12" pan="0" key="68"/>
          <note pos="3924" vol="106" len="12" pan="0" key="66"/>
          <note pos="3936" vol="106" len="12" pan="0" key="70"/>
          <note pos="3948" vol="106" len="12" pan="0" key="68"/>
          <note pos="3960" vol="106" len="12" pan="0" key="66"/>
          <note pos="3972" vol="106" len="12" pan="0" key="65"/>
          <note pos="3984" vol="106" len="12" pan="0" key="68"/>
          <note pos="3996" vol="106" len="12" pan="0" key="66"/>
          <note pos="4008" vol="106" len="12" pan="0" key="65"/>
          <note pos="4020" vol="106" len="12" pan="0" key="66"/>
        </pattern>
        <pattern name="" steps="16" pos="40320" muted="0" type="1">
          <note pos="0" vol="78" len="12" pan="0" key="69"/>
          <note pos="0" vol="200" len="48" pan="0" key="1"/>
          <note pos="12" vol="78" len="12" pan="0" key="68"/>
          <note pos="24" vol="78" len="12" pan="0" key="66"/>
          <note pos="36" vol="78" len="12" pan="0" key="68"/>
          <note pos="48" vol="78" len="12" pan="0" key="69"/>
          <note pos="60" vol="78" len="12" pan="0" key="68"/>
          <note pos="72" vol="78" len="12" pan="0" key="66"/>
          <note pos="84" vol="78" len="12" pan="0" key="68"/>
          <note pos="96" vol="78" len="12" pan="0" key="73"/>
          <note pos="108" vol="78" len="12" pan="0" key="71"/>
          <note pos="120" vol="78" len="12" pan="0" key="69"/>
          <note pos="132" vol="78" len="12" pan="0" key="71"/>
          <note pos="144" vol="78" len="12" pan="0" key="73"/>
          <note pos="156" vol="78" len="12" pan="0" key="75"/>
          <note pos="168" vol="78" len="12" pan="0" key="76"/>
          <note pos="180" vol="78" len="12" pan="0" key="75"/>
          <note pos="192" vol="78" len="12" pan="0" key="76"/>
          <note pos="204" vol="78" len="12" pan="0" key="75"/>
          <note pos="216" vol="78" len="12" pan="0" key="73"/>
          <note pos="228" vol="78" len="12" pan="0" key="75"/>
          <note pos="240" vol="78" len="12" pan="0" key="76"/>
          <note pos="240" vol="200" len="48" pan="0" key="0"/>
          <note pos="252" vol="78" len="12" pan="0" key="75"/>
          <note pos="264" vol="78" len="12" pan="0" key="73"/>
          <note pos="276" vol="78" len="12" pan="0" key="75"/>
          <note pos="288" vol="78" len="12" pan="0" key="76"/>
          <note pos="300" vol="78" len="12" pan="0" key="78"/>
          <note pos="312" vol="78" len="12" pan="0" key="80"/>
          <note pos="324" vol="78" len="12" pan="0" key="81"/>
          <note pos="336" vol="78" len="12" pan="0" key="83"/>
          <note pos="348" vol="78" len="12" pan="0" key="76"/>
          <note pos="348" vol="200" len="12" pan="0" key="1"/>
          <note pos="360" vol="78" len="12" pan="0" key="75"/>
          <note pos="372" vol="78" len="12" pan="0" key="76"/>
        </pattern>
        <pattern name="" steps="16" pos="40704" muted="0" type="1">
          <note pos="0" vol="78" len="48" pan="0" key="83"/>
          <note pos="0" vol="100" len="48" pan="0" key="0"/>
          <note pos="48" vol="78" len="12" pan="0" key="81"/>
          <note pos="60" vol="78" len="12" pan="0" key="83"/>
          <note pos="72" vol="78" len="48" pan="0" key="81"/>
          <note pos="120" vol="78" len="12" pan="0" key="80"/>
          <note pos="132" vol="78" len="12" pan="0" key="81"/>
          <note pos="144" vol="78" len="12" pan="0" key="80"/>
          <note pos="144" vol="78" len="12" pan="0" key="0"/>
          <note pos="156" vol="78" len="12" pan="0" key="78"/>
          <note pos="156" vol="78" len="12" pan="0" key="1"/>
          <note pos="168" vol="78" len="12" pan="0" key="76"/>
          <note pos="180" vol="78" len="12" pan="0" key="80"/>
          <note pos="192" vol="78" len="48" pan="0" key="78"/>
          <note pos="192" vol="78" len="12" pan="0" key="0"/>
          <note pos="240" vol="78" len="12" pan="0" key="76"/>
          <note pos="240" vol="78" len="12" pan="0" key="1"/>
          <note pos="252" vol="78" len="12" pan="0" key="75"/>
          <note pos="264" vol="78" len="12" pan="0" key="76"/>
          <note pos="276" vol="78" len="12" pan="0" key="78"/>
          <note pos="288" vol="78" len="12" pan="0" key="80"/>
          <note pos="288" vol="78" len="12" pan="0" key="0"/>
          <note pos="300" vol="78" len="12" pan="0" key="81"/>
          <note pos="312" vol="78" len="12" pan="0" key="80"/>
          <note pos="324" vol="78" len="12" pan="0" key="78"/>
          <note pos="336" vol="78" len="12" pan="0" key="80"/>
          <note pos="348" vol="78" len="12" pan="0" key="78"/>
          <note pos="360" vol="78" len="12" pan="0" key="76"/>
          <note pos="360" vol="78" len="12" pan="0" key="1"/>
          <note pos="372" vol="78" len="12" pan="0" key="75"/>
        </pattern>
        <pattern name="" steps="16" pos="41088" muted="0" type="1">
          <note pos="0" vol="78" len="12" pan="0" key="80"/>
          <note pos="0" vol="78" len="12" pan="0" key="0"/>
          <note pos="12" vol="78" len="12" pan="0" key="76"/>
          <note pos="24" vol="78" len="12" pan="0" key="75"/>
          <note pos="24" vol="78" len="12" pan="0" key="1"/>
          <note pos="36" vol="78" len="12" pan="0" key="76"/>
          <note pos="48" vol="78" len="12" pan="0" key="73"/>
          <note pos="60" vol="78" len="12" pan="0" key="76"/>
          <note pos="72" vol="78" len="12" pan="0" key="75"/>
          <note pos="84" vol="78" len="12" pan="0" key="76"/>
          <note pos="96" vol="78" len="12" pan="0" key="80"/>
          <note pos="96" vol="78" len="12" pan="0" key="0"/>
          <note pos="108" vol="78" len="12" pan="0" key="76"/>
          <note pos="120" vol="78" len="12" pan="0" key="75"/>
          <note pos="120" vol="78" len="12" pan="0" key="1"/>
          <note pos="132" vol="78" len="12" pan="0" key="76"/>
          <note pos="144" vol="78" len="12" pan="0" key="73"/>
          <note pos="156" vol="78" len="12" pan="0" key="76"/>
          <note pos="168" vol="78" len="12" pan="0" key="75"/>
          <note pos="180" vol="78" len="12" pan="0" key="76"/>
          <note pos="192" vol="78" len="12" pan="0" key="80"/>
          <note pos="192" vol="78" len="12" pan="0" key="0"/>
          <note pos="204" vol="78" len="12" pan="0" key="75"/>
          <note pos="216" vol="78" len="12" pan="0" key="73"/>
          <note pos="216" vol="78" len="12" pan="0" key="1"/>
          <note pos="228" vol="78" len="12" pan="0" key="75"/>
          <note pos="240" vol="78" len="12" pan="0" key="71"/>
          <note pos="252" vol="78" len="12" pan="0" key="75"/>
          <note pos="264" vol="78" len="12" pan="0" key="73"/>
          <note pos="276" vol="78" len="12" pan="0" key="75"/>
          <note pos="288" vol="78" len="12" pan="0" key="80"/>
          <note pos="288" vol="78" len="12" pan="0" key="0"/>
          <note pos="300" vol="78" len="12" pan="0" key="75"/>
          <note pos="312" vol="78" len="12" pan="0" key="73"/>
          <note pos="312" vol="78" len="12" pan="0" key="1"/>
          <note pos="324" vol="78" len="12" pan="0" key="75"/>
          <note pos="336" vol="78" len="12" pan="0" key="71"/>
          <note pos="348" vol="78" len="12" pan="0" key="75"/>
          <note pos="360" vol="78" len="12" pan="0" key="73"/>
          <note pos="372" vol="78" len="12" pan="0" key="75"/>
        </pattern>
        <pattern name="" steps="16" pos="41472" muted="0" type="1">
          <note pos="0" vol="78" len="12" pan="0" key="82"/>
          <note pos="0" vol="78" len="12" pan="0" key="0"/>
          <note pos="12" vol="78" len="12" pan="0" key="78"/>
          <note pos="24" vol="78" len="12" pan="0" key="73"/>
          <note pos="24" vol="78" len="12" pan="0" key="1"/>
          <note pos="36" vol="78" len="12" pan="0" key="78"/>
          <note pos="48" vol="78" len="12" pan="0" key="70"/>
          <note pos="60" vol="78" len="12" pan="0" key="78"/>
          <note pos="72" vol="78" len="12" pan="0" key="73"/>
          <note pos="84" vol="78" len="12" pan="0" key="78"/>
          <note pos="96" vol="78" len="12" pan="0" key="82"/>
          <note pos="108" vol="78" len="12" pan="0" key="78"/>
          <note pos="120" vol="78" len="12" pan="0" key="73"/>
          <note pos="132" vol="78" len="12" pan="0" key="78"/>
          <note pos="144" vol="78" len="12" pan="0" key="70"/>
          <note pos="156" vol="78" len="12" pan="0" key="78"/>
          <note pos="168" vol="78" len="12" pan="0" key="73"/>
          <note pos="180" vol="78" len="12" pan="0" key="78"/>
        </pattern>
        <pattern name="" steps="16" pos="41664" muted="0" type="1">
          <note pos="0" vol="78" len="12" pan="0" key="82"/>
          <note pos="0" vol="78" len="12" pan="0" key="0"/>
          <note pos="12" vol="78" len="12" pan="0" key="78"/>
          <note pos="24" vol="78" len="12" pan="0" key="73"/>
          <note pos="24" vol="78" len="12" pan="0" key="1"/>
          <note pos="36" vol="78" len="12" pan="0" key="70"/>
          <note pos="48" vol="78" len="12" pan="0" key="73"/>
          <note pos="60" vol="78" len="12" pan="0" key="70"/>
          <note pos="72" vol="78" len="12" pan="0" key="66"/>
          <note pos="84" vol="78" len="12" pan="0" key="70"/>
          <note pos="96" vol="78" len="12" pan="0" key="78"/>
          <note pos="108" vol="78" len="12" pan="0" key="73"/>
          <note pos="120" vol="78" len="12" pan="0" key="70"/>
          <note pos="132" vol="78" len="12" pan="0" key="73"/>
          <note pos="144" vol="78" len="12" pan="0" key="78"/>
          <note pos="156" vol="78" len="12" pan="0" key="82"/>
          <note pos="156" vol="78" len="12" pan="0" key="1"/>
          <note pos="168" vol="78" len="12" pan="0" key="85"/>
          <note pos="180" vol="78" len="12" pan="0" key="82"/>
        </pattern>
        <pattern name="" steps="16" pos="41856" muted="0" type="1">
          <note pos="0" vol="78" len="24" pan="0" key="86"/>
          <note pos="0" vol="78" len="48" pan="0" key="0"/>
          <note pos="24" vol="78" len="24" pan="0" key="81"/>
          <note pos="48" vol="78" len="24" pan="0" key="76"/>
          <note pos="72" vol="78" len="24" pan="0" key="83"/>
          <note pos="96" vol="78" len="24" pan="0" key="85"/>
          <note pos="120" vol="78" len="24" pan="0" key="86"/>
          <note pos="144" vol="78" len="24" pan="0" key="85"/>
          <note pos="168" vol="78" len="24" pan="0" key="83"/>
          <note pos="192" vol="78" len="12" pan="0" key="85"/>
          <note pos="192" vol="78" len="24" pan="0" key="0"/>
          <note pos="204" vol="78" len="12" pan="0" key="83"/>
          <note pos="216" vol="78" len="12" pan="0" key="81"/>
          <note pos="216" vol="78" len="24" pan="0" key="1"/>
          <note pos="228" vol="78" len="12" pan="0" key="80"/>
          <note pos="240" vol="78" len="12" pan="0" key="78"/>
          <note pos="252" vol="78" len="12" pan="0" key="80"/>
          <note pos="264" vol="78" len="12" pan="0" key="81"/>
          <note pos="264" vol="78" len="24" pan="0" key="0"/>
          <note pos="276" vol="78" len="12" pan="0" key="80"/>
          <note pos="288" vol="78" len="12" pan="0" key="78"/>
          <note pos="288" vol="78" len="24" pan="0" key="1"/>
          <note pos="300" vol="78" len="12" pan="0" key="76"/>
          <note pos="312" vol="78" len="12" pan="0" key="78"/>
          <note pos="324" vol="78" len="12" pan="0" key="80"/>
          <note pos="336" vol="78" len="12" pan="0" key="85"/>
          <note pos="336" vol="78" len="24" pan="0" key="0"/>
          <note pos="348" vol="78" len="12" pan="0" key="83"/>
          <note pos="360" vol="78" len="12" pan="0" key="81"/>
          <note pos="360" vol="78" len="24" pan="0" key="1"/>
          <note pos="372" vol="78" len="12" pan="0" key="83"/>
          <note pos="384" vol="78" len="384" pan="0" key="87"/>
          <note pos="384" vol="78" len="24" pan="0" key="0"/>
        </pattern>
        <pattern name="" steps="16" pos="30336" muted="0" type="1">
          <note pos="0" vol="197" len="12" pan="0" key="66"/>
          <note pos="0" vol="197" len="12" pan="0" key="1"/>
          <note pos="12" vol="197" len="12" pan="0" key="66"/>
          <note pos="24" vol="197" len="12" pan="0" key="64"/>
          <note pos="36" vol="197" len="12" pan="0" key="64"/>
          <note pos="48" vol="197" len="12" pan="0" key="62"/>
          <note pos="60" vol="197" len="12" pan="0" key="62"/>
          <note pos="72" vol="197" len="12" pan="0" key="69"/>
          <note pos="84" vol="197" len="12" pan="0" key="69"/>
          <note pos="96" vol="197" len="12" pan="0" key="68"/>
          <note pos="108" vol="197" len="12" pan="0" key="68"/>
          <note pos="120" vol="197" len="12" pan="0" key="66"/>
          <note pos="132" vol="197" len="12" pan="0" key="66"/>
          <note pos="144" vol="197" len="12" pan="0" key="68"/>
          <note pos="156" vol="197" len="12" pan="0" key="68"/>
          <note pos="168" vol="197" len="12" pan="0" key="69"/>
          <note pos="180" vol="197" len="12" pan="0" key="69"/>
          <note pos="192" vol="197" len="48" pan="0" key="71"/>
          <note pos="192" vol="197" len="48" pan="0" key="0"/>
          <note pos="240" vol="197" len="12" pan="0" key="69"/>
          <note pos="240" vol="197" len="12" pan="0" key="2"/>
          <note pos="252" vol="197" len="12" pan="0" key="71"/>
          <note pos="264" vol="197" len="12" pan="0" key="73"/>
          <note pos="264" vol="197" len="12" pan="0" key="0"/>
          <note pos="276" vol="197" len="12" pan="0" key="74"/>
          <note pos="288" vol="197" len="12" pan="0" key="76"/>
          <note pos="288" vol="197" len="12" pan="0" key="0"/>
          <note pos="300" vol="197" len="12" pan="0" key="74"/>
          <note pos="300" vol="197" len="12" pan="0" key="1"/>
          <note pos="312" vol="197" len="12" pan="0" key="73"/>
          <note pos="324" vol="197" len="12" pan="0" key="74"/>
          <note pos="336" vol="197" len="12" pan="0" key="78"/>
          <note pos="336" vol="197" len="12" pan="0" key="0"/>
          <note pos="348" vol="197" len="12" pan="0" key="76"/>
          <note pos="348" vol="197" len="12" pan="0" key="1"/>
          <note pos="360" vol="197" len="12" pan="0" key="74"/>
          <note pos="372" vol="197" len="12" pan="0" key="76"/>
          <note pos="384" vol="197" len="24" pan="0" key="76"/>
          <note pos="384" vol="197" len="24" pan="0" key="0"/>
          <note pos="408" vol="197" len="24" pan="0" key="78"/>
          <note pos="456" vol="197" len="48" pan="0" key="74"/>
          <note pos="480" vol="197" len="24" pan="0" key="1"/>
          <note pos="504" vol="197" len="12" pan="0" key="71"/>
          <note pos="516" vol="197" len="12" pan="0" key="71"/>
          <note pos="528" vol="197" len="12" pan="0" key="74"/>
          <note pos="540" vol="197" len="12" pan="0" key="74"/>
          <note pos="552" vol="197" len="12" pan="0" key="76"/>
          <note pos="564" vol="197" len="12" pan="0" key="76"/>
          <note pos="576" vol="197" len="24" pan="0" key="80"/>
          <note pos="600" vol="197" len="12" pan="0" key="78"/>
          <note pos="612" vol="197" len="12" pan="0" key="80"/>
          <note pos="624" vol="197" len="24" pan="0" key="81"/>
          <note pos="648" vol="197" len="12" pan="0" key="80"/>
          <note pos="660" vol="197" len="12" pan="0" key="81"/>
          <note pos="672" vol="197" len="12" pan="0" key="85"/>
          <note pos="684" vol="197" len="12" pan="0" key="83"/>
          <note pos="696" vol="197" len="12" pan="0" key="81"/>
          <note pos="708" vol="197" len="12" pan="0" key="80"/>
          <note pos="720" vol="197" len="12" pan="0" key="78"/>
          <note pos="732" vol="197" len="12" pan="0" key="76"/>
          <note pos="744" vol="197" len="12" pan="0" key="74"/>
          <note pos="756" vol="197" len="12" pan="0" key="73"/>
        </pattern>
        <pattern name="" steps="16" pos="53376" muted="0" type="1">
          <note pos="0" vol="197" len="192" pan="0" key="75"/>
          <note pos="0" vol="197" len="384" pan="0" key="0"/>
          <note pos="192" vol="197" len="192" pan="0" key="73"/>
          <note pos="384" vol="197" len="288" pan="0" key="70"/>
          <note pos="672" vol="197" len="96" pan="0" key="70"/>
          <note pos="768" vol="197" len="192" pan="0" key="82"/>
          <note pos="960" vol="197" len="192" pan="0" key="80"/>
          <note pos="1152" vol="197" len="384" pan="0" key="75"/>
          <note pos="1536" vol="197" len="192" pan="0" key="75"/>
          <note pos="1728" vol="197" len="192" pan="0" key="77"/>
          <note pos="1920" vol="197" len="192" pan="0" key="78"/>
          <note pos="2112" vol="197" len="96" pan="0" key="82"/>
          <note pos="2208" vol="197" len="96" pan="0" key="80"/>
          <note pos="2304" vol="197" len="192" pan="0" key="80"/>
          <note pos="2496" vol="197" len="144" pan="0" key="75"/>
          <note pos="2640" vol="197" len="24" pan="0" key="75"/>
          <note pos="2664" vol="197" len="24" pan="0" key="77"/>
          <note pos="2688" vol="197" len="192" pan="0" key="78"/>
          <note pos="2880" vol="197" len="96" pan="0" key="80"/>
          <note pos="2976" vol="197" len="96" pan="0" key="85"/>
          <note pos="3072" vol="197" len="384" pan="0" key="87"/>
        </pattern>
        <pattern name="" steps="16" pos="62400" muted="0" type="1">
          <note pos="96" vol="95" len="12" pan="0" key="82"/>
          <note pos="96" vol="95" len="12" pan="0" key="0"/>
          <note pos="108" vol="95" len="12" pan="0" key="83"/>
          <note pos="120" vol="95" len="12" pan="0" key="82"/>
          <note pos="132" vol="95" len="12" pan="0" key="80"/>
          <note pos="132" vol="95" len="12" pan="0" key="1"/>
          <note pos="144" vol="95" len="12" pan="0" key="82"/>
          <note pos="144" vol="95" len="12" pan="0" key="0"/>
          <note pos="156" vol="95" len="12" pan="0" key="80"/>
          <note pos="156" vol="95" len="12" pan="0" key="1"/>
          <note pos="168" vol="95" len="12" pan="0" key="78"/>
          <note pos="180" vol="95" len="12" pan="0" key="77"/>
        </pattern>
        <pattern name="" steps="16" pos="62592" muted="0" type="1">
          <note pos="0" vol="197" len="144" pan="0" key="75"/>
          <note pos="0" vol="197" len="12" pan="0" key="0"/>
          <note pos="144" vol="197" len="48" pan="0" key="78"/>
          <note pos="192" vol="197" len="144" pan="0" key="77"/>
          <note pos="336" vol="197" len="48" pan="0" key="82"/>
          <note pos="384" vol="197" len="144" pan="0" key="82"/>
          <note pos="528" vol="197" len="24" pan="0" key="80"/>
          <note pos="552" vol="197" len="24" pan="0" key="78"/>
          <note pos="576" vol="197" len="48" pan="0" key="77"/>
          <note pos="624" vol="197" len="48" pan="0" key="78"/>
          <note pos="672" vol="197" len="12" pan="0" key="73"/>
          <note pos="672" vol="197" len="12" pan="0" key="1"/>
          <note pos="684" vol="197" len="12" pan="0" key="75"/>
          <note pos="696" vol="197" len="12" pan="0" key="73"/>
          <note pos="708" vol="197" len="12" pan="0" key="70"/>
          <note pos="720" vol="197" len="12" pan="0" key="73"/>
          <note pos="732" vol="197" len="12" pan="0" key="70"/>
          <note pos="744" vol="197" len="12" pan="0" key="68"/>
          <note pos="756" vol="197" len="12" pan="0" key="70"/>
          <note pos="768" vol="197" len="96" pan="0" key="71"/>
          <note pos="768" vol="197" len="12" pan="0" key="0"/>
          <note pos="864" vol="197" len="48" pan="0" key="75"/>
          <note pos="912" vol="197" len="48" pan="0" key="78"/>
          <note pos="960" vol="197" len="96" pan="0" key="78"/>
          <note pos="1056" vol="197" len="48" pan="0" key="77"/>
          <note pos="1104" vol="197" len="48" pan="0" key="78"/>
          <note pos="1152" vol="197" len="12" pan="0" key="78"/>
          <note pos="1152" vol="200" len="12" pan="0" key="0"/>
          <note pos="1164" vol="197" len="12" pan="0" key="75"/>
          <note pos="1176" vol="197" len="12" pan="0" key="77"/>
          <note pos="1188" vol="197" len="12" pan="0" key="78"/>
          <note pos="1200" vol="197" len="12" pan="0" key="80"/>
          <note pos="1212" vol="197" len="12" pan="0" key="77"/>
          <note pos="1224" vol="197" len="12" pan="0" key="78"/>
          <note pos="1236" vol="197" len="12" pan="0" key="80"/>
          <note pos="1248" vol="197" len="12" pan="0" key="82"/>
          <note pos="1260" vol="197" len="12" pan="0" key="78"/>
          <note pos="1272" vol="197" len="12" pan="0" key="80"/>
          <note pos="1284" vol="197" len="12" pan="0" key="82"/>
          <note pos="1296" vol="197" len="12" pan="0" key="83"/>
          <note pos="1308" vol="197" len="12" pan="0" key="80"/>
          <note pos="1320" vol="197" len="12" pan="0" key="82"/>
          <note pos="1332" vol="197" len="12" pan="0" key="83"/>
          <note pos="1344" vol="197" len="12" pan="0" key="85"/>
          <note pos="1356" vol="197" len="12" pan="0" key="83"/>
          <note pos="1368" vol="197" len="12" pan="0" key="82"/>
          <note pos="1380" vol="197" len="12" pan="0" key="80"/>
          <note pos="1392" vol="197" len="12" pan="0" key="78"/>
          <note pos="1404" vol="197" len="12" pan="0" key="80"/>
          <note pos="1416" vol="197" len="12" pan="0" key="83"/>
          <note pos="1428" vol="197" len="12" pan="0" key="82"/>
          <note pos="1440" vol="197" len="12" pan="0" key="80"/>
          <note pos="1452" vol="197" len="12" pan="0" key="78"/>
          <note pos="1464" vol="197" len="12" pan="0" key="77"/>
          <note pos="1476" vol="197" len="12" pan="0" key="78"/>
          <note pos="1488" vol="197" len="12" pan="0" key="82"/>
          <note pos="1488" vol="200" len="12" pan="0" key="0"/>
          <note pos="1500" vol="197" len="12" pan="0" key="80"/>
          <note pos="1512" vol="197" len="12" pan="0" key="78"/>
          <note pos="1524" vol="197" len="12" pan="0" key="77"/>
          <note pos="1536" vol="197" len="12" pan="0" key="75"/>
          <note pos="1548" vol="197" len="12" pan="0" key="77"/>
          <note pos="1560" vol="200" len="12" pan="0" key="80"/>
          <note pos="1572" vol="200" len="12" pan="0" key="78"/>
          <note pos="1584" vol="200" len="12" pan="0" key="77"/>
          <note pos="1596" vol="200" len="12" pan="0" key="75"/>
          <note pos="1608" vol="200" len="12" pan="0" key="73"/>
          <note pos="1620" vol="200" len="12" pan="0" key="75"/>
          <note pos="1632" vol="200" len="12" pan="0" key="78"/>
          <note pos="1644" vol="200" len="12" pan="0" key="77"/>
          <note pos="1656" vol="200" len="12" pan="0" key="75"/>
          <note pos="1668" vol="200" len="12" pan="0" key="73"/>
          <note pos="1680" vol="200" len="12" pan="0" key="77"/>
          <note pos="1692" vol="200" len="12" pan="0" key="75"/>
          <note pos="1704" vol="200" len="12" pan="0" key="73"/>
          <note pos="1716" vol="200" len="12" pan="0" key="75"/>
          <note pos="1728" vol="197" len="192" pan="0" key="87"/>
        </pattern>
      </track>
      <track name="lgtH2" solo="0" muted="1" type="0">
        <instrumenttrack basenote="57" fxch="12" usemasterpitch="1" pitch="0" vol="200" pan="100" pitchrange="1">
          <instrument name="carlapatchbay">
            <carlapatchbay>
              <CARLA-PROJECT VERSION="2.2">
                <EngineSettings>
                  <ForceStereo>false</ForceStereo>
                  <PreferPluginBridges>false</PreferPluginBridges>
                  <PreferUiBridges>true</PreferUiBridges>
                  <UIsAlwaysOnTop>false</UIsAlwaysOnTop>
                  <MaxParameters>200</MaxParameters>
                  <UIBridgesTimeout>4000</UIBridgesTimeout>
                  <LADSPA_PATH>/home/pass/.ladspa:/usr/lib/ladspa:/usr/local/lib/ladspa</LADSPA_PATH>
                  <DSSI_PATH>/home/pass/.dssi:/usr/lib/dssi:/usr/local/lib/dssi</DSSI_PATH>
                  <LV2_PATH>/home/pass/.lv2:/usr/lib/lv2:/usr/local/lib/lv2</LV2_PATH>
                  <VST2_PATH>/home/pass/.vst:/home/pass/.wine/drive_c/Program Files (x86)/VstPlugins:/home/pass/.wine/drive_c/Program Files/VstPlugins:/usr/lib/lxvst:/usr/lib/vst:/usr/local/lib/lxvst:/usr/local/lib/vst/home/pass/.lxvst:/home/pass/vst</VST2_PATH>
                  <VST3_PATH>/home/pass/.vst3:/home/pass/.wine/drive_c/Program Files (x86)/Common Files/VST3:/home/pass/.wine/drive_c/Program Files/Common Files/VST3:/usr/lib/vst3:/usr/local/lib/vst3</VST3_PATH>
                  <SF2_PATH>/home/pass/.sounds/sf2/home/pass/.sounds/sf3:/usr/share/soundfonts:/usr/share/sounds/sf2:/usr/share/sounds/sf3</SF2_PATH>
                  <SFZ_PATH>/home/pass/.sounds/sfz:/home/pass/samples:/usr/share/sounds/sfz</SFZ_PATH>
                </EngineSettings>
                <!-- sfizz -->
                <Plugin>
                  <Info>
                    <Type>LV2</Type>
                    <Name>sfizz</Name>
                    <URI>http://sfztools.github.io/sfizz</URI>
                  </Info>
                  <Data>
                    <Active>Yes</Active>
                    <ControlChannel>1</ControlChannel>
                    <Options>0x3f0</Options>
                    <Parameter>
                      <Index>0</Index>
                      <Name>Volume</Name>
                      <Symbol>volume</Symbol>
                      <Value>0</Value>
                    </Parameter>
                    <Parameter>
                      <Index>1</Index>
                      <Name>Polyphony</Name>
                      <Symbol>num_voices</Symbol>
                      <Value>64</Value>
                    </Parameter>
                    <Parameter>
                      <Index>2</Index>
                      <Name>Internal oversampling factor</Name>
                      <Symbol>oversampling</Symbol>
                      <Value>1</Value>
                    </Parameter>
                    <Parameter>
                      <Index>3</Index>
                      <Name>Preload size</Name>
                      <Symbol>preload_size</Symbol>
                      <Value>8192</Value>
                    </Parameter>
                    <Parameter>
                      <Index>5</Index>
                      <Name>Scala root key</Name>
                      <Symbol>scala_root_key</Symbol>
                      <Value>60</Value>
                    </Parameter>
                    <Parameter>
                      <Index>6</Index>
                      <Name>Tuning frequency</Name>
                      <Symbol>tuning_frequency</Symbol>
                      <Value>440</Value>
                    </Parameter>
                    <Parameter>
                      <Index>7</Index>
                      <Name>Stretched tuning</Name>
                      <Symbol>stretched_tuning</Symbol>
                      <Value>0</Value>
                    </Parameter>
                    <CustomData>
                      <Type>http://lv2plug.in/ns/ext/atom#Path</Type>
                      <Key>http://sfztools.github.io/sfizz:sfzfile</Key>
                      <Value>_fakeguitar2_integrated.sfz</Value>
                    </CustomData>
                    <CustomData>
                      <Type>http://lv2plug.in/ns/ext/atom#Int</Type>
                      <Key>http://sfztools.github.io/sfizz:numvoices</Key>
                      <Value>QAAAAA==</Value>
                    </CustomData>
                    <CustomData>
                      <Type>http://lv2plug.in/ns/ext/atom#Int</Type>
                      <Key>http://sfztools.github.io/sfizz:preload_size</Key>
                      <Value>ACAAAA==</Value>
                    </CustomData>
                    <CustomData>
                      <Type>http://lv2plug.in/ns/ext/atom#Int</Type>
                      <Key>http://sfztools.github.io/sfizz:oversampling</Key>
                      <Value>AQAAAA==</Value>
                    </CustomData>
                    <CustomData>
                      <Type>http://lv2plug.in/ns/ext/atom#Path</Type>
                      <Key>http://sfztools.github.io/sfizz:tuningfile</Key>
                      <Value>DefaultScale.scl</Value>
                    </CustomData>
                  </Data>
                </Plugin>
                <Patchbay>
                  <Connection>
                    <Source>Midi Input:Capture 1</Source>
                    <Target>sfizz:events-in</Target>
                  </Connection>
                  <Connection>
                    <Source>sfizz:Left Output</Source>
                    <Target>Audio Output:Left</Target>
                  </Connection>
                  <Connection>
                    <Source>sfizz:Right Output</Source>
                    <Target>Audio Output:Right</Target>
                  </Connection>
                  <Positions>
                    <Position y1="1353" x1="1693" pluginId="0">
                      <Name>sfizz</Name>
                    </Position>
                  </Positions>
                </Patchbay>
              </CARLA-PROJECT>
            </carlapatchbay>
          </instrument>
          <eldata fwet="0" fcut="14000" ftype="0" fres="0.5">
            <elvol x100="0" userwavefile="" dec="0.5" amt="0" pdel="0" hold="0.5" lamt="0" lpdel="0" lshp="0" lspd_denominator="4" att="0" ctlenvamt="0" lspd="0.1" lspd_syncmode="0" rel="0.1" latt="0" lspd_numerator="4" sustain="0.5"/>
            <elcut x100="0" userwavefile="" dec="0.5" amt="0" pdel="0" hold="0.5" lamt="0" lpdel="0" lshp="0" lspd_denominator="4" att="0" ctlenvamt="0" lspd="0.1" lspd_syncmode="0" rel="0.1" latt="0" lspd_numerator="4" sustain="0.5"/>
            <elres x100="0" userwavefile="" dec="0.5" amt="0" pdel="0" hold="0.5" lamt="0" lpdel="0" lshp="0" lspd_denominator="4" att="0" ctlenvamt="0" lspd="0.1" lspd_syncmode="0" rel="0.1" latt="0" lspd_numerator="4" sustain="0.5"/>
          </eldata>
          <chordcreator chord-enabled="0" chord="0" chordrange="1"/>
          <arpeggiator arprange="1" arpmode="0" arp="0" arptime_numerator="4" arpmiss="0" arptime_denominator="4" arpcycle="0" arpskip="0" arptime_syncmode="0" arpgate="100" arptime="200" arpdir="0" arp-enabled="0"/>
          <midiport fixedoutputnote="-1" outputprogram="1" inputcontroller="0" writable="0" fixedoutputvelocity="-1" readable="0" outputchannel="1" basevelocity="63" outputcontroller="0" fixedinputvelocity="-1" inputchannel="0"/>
          <fxchain numofeffects="0" enabled="0"/>
        </instrumenttrack>
        <pattern name="" steps="16" pos="5376" muted="0" type="1">
          <note pos="0" vol="78" len="24" pan="0" key="68"/>
          <note pos="0" vol="78" len="24" pan="0" key="0"/>
          <note pos="24" vol="78" len="24" pan="0" key="71"/>
          <note pos="48" vol="78" len="24" pan="0" key="68"/>
          <note pos="72" vol="78" len="48" pan="0" key="75"/>
          <note pos="120" vol="78" len="24" pan="0" key="68"/>
          <note pos="144" vol="78" len="24" pan="0" key="71"/>
          <note pos="168" vol="78" len="24" pan="0" key="75"/>
          <note pos="192" vol="78" len="24" pan="0" key="76"/>
          <note pos="216" vol="78" len="24" pan="0" key="75"/>
          <note pos="240" vol="78" len="24" pan="0" key="73"/>
          <note pos="264" vol="78" len="24" pan="0" key="71"/>
          <note pos="288" vol="78" len="24" pan="0" key="75"/>
          <note pos="312" vol="78" len="24" pan="0" key="73"/>
          <note pos="336" vol="78" len="24" pan="0" key="71"/>
          <note pos="360" vol="78" len="24" pan="0" key="68"/>
        </pattern>
        <pattern name="" steps="16" pos="6144" muted="0" type="1">
          <note pos="0" vol="78" len="24" pan="0" key="75"/>
          <note pos="0" vol="78" len="24" pan="0" key="0"/>
          <note pos="24" vol="78" len="24" pan="0" key="64"/>
          <note pos="48" vol="78" len="24" pan="0" key="68"/>
          <note pos="72" vol="78" len="48" pan="0" key="71"/>
          <note pos="120" vol="78" len="24" pan="0" key="68"/>
          <note pos="144" vol="78" len="24" pan="0" key="71"/>
          <note pos="168" vol="78" len="24" pan="0" key="75"/>
          <note pos="180" vol="78" len="24" pan="0" key="1"/>
          <note pos="192" vol="78" len="12" pan="0" key="73"/>
          <note pos="204" vol="78" len="12" pan="0" key="73"/>
          <note pos="216" vol="78" len="12" pan="0" key="68"/>
          <note pos="228" vol="78" len="12" pan="0" key="68"/>
          <note pos="240" vol="78" len="12" pan="0" key="64"/>
          <note pos="252" vol="78" len="12" pan="0" key="64"/>
          <note pos="264" vol="78" len="12" pan="0" key="61"/>
          <note pos="276" vol="78" len="12" pan="0" key="61"/>
          <note pos="288" vol="78" len="12" pan="0" key="66"/>
          <note pos="300" vol="78" len="12" pan="0" key="66"/>
          <note pos="312" vol="78" len="12" pan="0" key="64"/>
          <note pos="324" vol="78" len="12" pan="0" key="64"/>
          <note pos="336" vol="78" len="12" pan="0" key="68"/>
          <note pos="348" vol="78" len="12" pan="0" key="68"/>
          <note pos="360" vol="78" len="12" pan="0" key="64"/>
          <note pos="372" vol="78" len="12" pan="0" key="64"/>
          <note pos="384" vol="78" len="24" pan="0" key="0"/>
        </pattern>
        <pattern name="" steps="16" pos="7104" muted="0" type="1">
          <note pos="0" vol="78" len="72" pan="0" key="0"/>
          <note pos="96" vol="78" len="48" pan="0" key="64"/>
          <note pos="144" vol="78" len="48" pan="0" key="68"/>
          <note pos="192" vol="78" len="96" pan="0" key="68"/>
          <note pos="288" vol="78" len="24" pan="0" key="68"/>
          <note pos="312" vol="78" len="24" pan="0" key="64"/>
          <note pos="336" vol="78" len="24" pan="0" key="68"/>
          <note pos="360" vol="78" len="168" pan="0" key="76"/>
          <note pos="528" vol="78" len="24" pan="0" key="76"/>
          <note pos="552" vol="78" len="24" pan="0" key="75"/>
          <note pos="576" vol="78" len="48" pan="0" key="73"/>
          <note pos="624" vol="78" len="48" pan="0" key="70"/>
          <note pos="672" vol="78" len="48" pan="0" key="66"/>
          <note pos="720" vol="78" len="48" pan="0" key="63"/>
          <note pos="768" vol="78" len="96" pan="0" key="66"/>
          <note pos="864" vol="78" len="96" pan="0" key="64"/>
          <note pos="960" vol="78" len="144" pan="0" key="68"/>
          <note pos="1104" vol="78" len="48" pan="0" key="73"/>
          <note pos="1152" vol="78" len="144" pan="0" key="71"/>
          <note pos="1296" vol="78" len="48" pan="0" key="76"/>
          <note pos="1344" vol="78" len="144" pan="0" key="76"/>
          <note pos="1488" vol="78" len="24" pan="0" key="75"/>
          <note pos="1512" vol="78" len="24" pan="0" key="73"/>
          <note pos="1536" vol="78" len="48" pan="0" key="71"/>
          <note pos="1584" vol="78" len="48" pan="0" key="73"/>
          <note pos="1632" vol="78" len="48" pan="0" key="68"/>
          <note pos="1680" vol="78" len="48" pan="0" key="64"/>
          <note pos="1728" vol="78" len="96" pan="0" key="66"/>
          <note pos="1824" vol="78" len="48" pan="0" key="69"/>
          <note pos="1872" vol="78" len="48" pan="0" key="73"/>
          <note pos="1920" vol="78" len="96" pan="0" key="73"/>
          <note pos="2016" vol="78" len="48" pan="0" key="71"/>
          <note pos="2064" vol="78" len="48" pan="0" key="73"/>
          <note pos="2112" vol="78" len="72" pan="0" key="80"/>
          <note pos="2184" vol="78" len="72" pan="0" key="78"/>
          <note pos="2256" vol="78" len="48" pan="0" key="76"/>
          <note pos="2304" vol="78" len="192" pan="0" key="75"/>
          <note pos="2496" vol="78" len="72" pan="0" key="73"/>
          <note pos="2568" vol="78" len="72" pan="0" key="71"/>
          <note pos="2640" vol="78" len="48" pan="0" key="73"/>
          <note pos="2688" vol="78" len="144" pan="0" key="76"/>
          <note pos="2832" vol="78" len="48" pan="0" key="71"/>
          <note pos="2880" vol="78" len="240" pan="0" key="70"/>
          <note pos="3120" vol="78" len="48" pan="0" key="73"/>
          <note pos="3168" vol="78" len="48" pan="0" key="75"/>
          <note pos="3216" vol="78" len="48" pan="0" key="76"/>
          <note pos="3264" vol="78" len="72" pan="0" key="78"/>
          <note pos="3336" vol="78" len="72" pan="0" key="76"/>
          <note pos="3408" vol="78" len="48" pan="0" key="75"/>
          <note pos="3456" vol="78" len="48" pan="0" key="73"/>
          <note pos="3504" vol="78" len="48" pan="0" key="68"/>
          <note pos="3552" vol="78" len="48" pan="0" key="73"/>
          <note pos="3600" vol="78" len="48" pan="0" key="76"/>
          <note pos="3648" vol="78" len="192" pan="0" key="75"/>
          <note pos="3840" vol="78" len="96" pan="0" key="71"/>
          <note pos="3936" vol="78" len="96" pan="0" key="68"/>
          <note pos="4032" vol="78" len="384" pan="0" key="68"/>
        </pattern>
        <pattern name="" steps="16" pos="13056" muted="0" type="1">
          <note pos="0" vol="78" len="24" pan="0" key="68"/>
          <note pos="0" vol="78" len="24" pan="0" key="0"/>
          <note pos="24" vol="78" len="24" pan="0" key="71"/>
          <note pos="48" vol="78" len="24" pan="0" key="68"/>
          <note pos="72" vol="78" len="48" pan="0" key="75"/>
          <note pos="120" vol="78" len="24" pan="0" key="68"/>
          <note pos="144" vol="78" len="24" pan="0" key="71"/>
          <note pos="168" vol="78" len="24" pan="0" key="75"/>
          <note pos="192" vol="78" len="24" pan="0" key="76"/>
          <note pos="216" vol="78" len="24" pan="0" key="75"/>
          <note pos="240" vol="78" len="24" pan="0" key="73"/>
          <note pos="264" vol="78" len="24" pan="0" key="71"/>
          <note pos="288" vol="78" len="24" pan="0" key="75"/>
          <note pos="312" vol="78" len="24" pan="0" key="73"/>
          <note pos="336" vol="78" len="24" pan="0" key="71"/>
          <note pos="360" vol="78" len="24" pan="0" key="68"/>
        </pattern>
        <pattern name="" steps="16" pos="13824" muted="0" type="1">
          <note pos="0" vol="78" len="24" pan="0" key="75"/>
          <note pos="0" vol="78" len="12" pan="0" key="0"/>
          <note pos="12" vol="78" len="12" pan="0" key="1"/>
          <note pos="24" vol="78" len="12" pan="0" key="64"/>
          <note pos="36" vol="78" len="12" pan="0" key="64"/>
          <note pos="48" vol="78" len="24" pan="0" key="68"/>
          <note pos="48" vol="78" len="12" pan="0" key="0"/>
          <note pos="72" vol="78" len="48" pan="0" key="71"/>
          <note pos="120" vol="78" len="24" pan="0" key="68"/>
          <note pos="144" vol="78" len="24" pan="0" key="71"/>
          <note pos="168" vol="78" len="24" pan="0" key="75"/>
          <note pos="192" vol="78" len="24" pan="0" key="73"/>
          <note pos="216" vol="78" len="24" pan="0" key="68"/>
          <note pos="240" vol="78" len="24" pan="0" key="64"/>
          <note pos="264" vol="78" len="24" pan="0" key="61"/>
          <note pos="288" vol="78" len="24" pan="0" key="66"/>
          <note pos="312" vol="78" len="24" pan="0" key="64"/>
          <note pos="336" vol="78" len="24" pan="0" key="68"/>
          <note pos="360" vol="78" len="24" pan="0" key="64"/>
        </pattern>
        <pattern name="" steps="16" pos="14784" muted="0" type="1">
          <note pos="0" vol="78" len="72" pan="0" key="0"/>
          <note pos="96" vol="78" len="48" pan="0" key="64"/>
          <note pos="144" vol="78" len="48" pan="0" key="68"/>
          <note pos="192" vol="78" len="96" pan="0" key="68"/>
          <note pos="288" vol="78" len="24" pan="0" key="68"/>
          <note pos="312" vol="78" len="24" pan="0" key="64"/>
          <note pos="336" vol="78" len="24" pan="0" key="68"/>
          <note pos="360" vol="78" len="168" pan="0" key="76"/>
          <note pos="528" vol="78" len="24" pan="0" key="76"/>
          <note pos="552" vol="78" len="24" pan="0" key="75"/>
          <note pos="576" vol="78" len="48" pan="0" key="73"/>
          <note pos="624" vol="78" len="48" pan="0" key="70"/>
          <note pos="672" vol="78" len="48" pan="0" key="66"/>
          <note pos="720" vol="78" len="48" pan="0" key="63"/>
          <note pos="768" vol="78" len="96" pan="0" key="66"/>
          <note pos="864" vol="78" len="96" pan="0" key="64"/>
          <note pos="960" vol="78" len="144" pan="0" key="68"/>
          <note pos="1104" vol="78" len="48" pan="0" key="73"/>
          <note pos="1152" vol="78" len="144" pan="0" key="71"/>
          <note pos="1296" vol="78" len="48" pan="0" key="76"/>
          <note pos="1344" vol="78" len="144" pan="0" key="76"/>
          <note pos="1488" vol="78" len="24" pan="0" key="75"/>
          <note pos="1512" vol="78" len="24" pan="0" key="73"/>
          <note pos="1536" vol="78" len="48" pan="0" key="71"/>
          <note pos="1584" vol="78" len="48" pan="0" key="73"/>
          <note pos="1632" vol="78" len="48" pan="0" key="68"/>
          <note pos="1680" vol="78" len="48" pan="0" key="64"/>
          <note pos="1728" vol="78" len="96" pan="0" key="66"/>
          <note pos="1824" vol="78" len="48" pan="0" key="69"/>
          <note pos="1872" vol="78" len="48" pan="0" key="73"/>
          <note pos="1920" vol="78" len="96" pan="0" key="73"/>
          <note pos="2016" vol="78" len="48" pan="0" key="71"/>
          <note pos="2064" vol="78" len="48" pan="0" key="73"/>
          <note pos="2112" vol="78" len="72" pan="0" key="80"/>
          <note pos="2184" vol="78" len="72" pan="0" key="78"/>
          <note pos="2256" vol="78" len="48" pan="0" key="76"/>
          <note pos="2304" vol="78" len="192" pan="0" key="75"/>
          <note pos="2496" vol="78" len="72" pan="0" key="73"/>
          <note pos="2568" vol="78" len="72" pan="0" key="71"/>
          <note pos="2640" vol="78" len="48" pan="0" key="73"/>
          <note pos="2688" vol="78" len="144" pan="0" key="76"/>
          <note pos="2832" vol="78" len="48" pan="0" key="71"/>
          <note pos="2880" vol="78" len="240" pan="0" key="70"/>
          <note pos="3120" vol="78" len="48" pan="0" key="73"/>
          <note pos="3168" vol="78" len="48" pan="0" key="75"/>
          <note pos="3216" vol="78" len="48" pan="0" key="76"/>
          <note pos="3264" vol="78" len="72" pan="0" key="78"/>
          <note pos="3336" vol="78" len="72" pan="0" key="76"/>
          <note pos="3408" vol="78" len="48" pan="0" key="75"/>
          <note pos="3456" vol="78" len="48" pan="0" key="73"/>
          <note pos="3504" vol="78" len="48" pan="0" key="68"/>
          <note pos="3552" vol="78" len="48" pan="0" key="73"/>
          <note pos="3600" vol="78" len="48" pan="0" key="76"/>
          <note pos="3648" vol="78" len="192" pan="0" key="75"/>
          <note pos="3840" vol="78" len="96" pan="0" key="71"/>
          <note pos="3936" vol="78" len="96" pan="0" key="68"/>
        </pattern>
        <pattern name="" steps="16" pos="18816" muted="0" type="1">
          <note pos="0" vol="78" len="336" pan="0" key="68"/>
          <note pos="336" vol="78" len="48" pan="0" key="61"/>
          <note pos="384" vol="78" len="288" pan="0" key="59"/>
          <note pos="672" vol="78" len="48" pan="0" key="52"/>
          <note pos="720" vol="78" len="48" pan="0" key="56"/>
          <note pos="768" vol="78" len="240" pan="0" key="58"/>
          <note pos="1008" vol="78" len="48" pan="0" key="56"/>
          <note pos="1056" vol="78" len="48" pan="0" key="58"/>
          <note pos="1104" vol="78" len="48" pan="0" key="64"/>
          <note pos="1152" vol="78" len="192" pan="0" key="62"/>
          <note pos="1344" vol="78" len="48" pan="0" key="66"/>
          <note pos="1392" vol="78" len="24" pan="0" key="64"/>
          <note pos="1416" vol="78" len="12" pan="0" key="64"/>
          <note pos="1424" vol="78" len="12" pan="0" key="66"/>
          <note pos="1432" vol="78" len="12" pan="0" key="64"/>
          <note pos="1440" vol="78" len="48" pan="0" key="63"/>
          <note pos="1488" vol="78" len="48" pan="0" key="64"/>
          <note pos="1536" vol="78" len="240" pan="0" key="61"/>
          <note pos="1776" vol="78" len="48" pan="0" key="56"/>
          <note pos="1824" vol="78" len="48" pan="0" key="61"/>
          <note pos="1872" vol="78" len="48" pan="0" key="64"/>
          <note pos="1920" vol="78" len="192" pan="0" key="64"/>
          <note pos="2112" vol="78" len="144" pan="0" key="63"/>
          <note pos="2256" vol="78" len="48" pan="0" key="64"/>
          <note pos="2304" vol="78" len="240" pan="0" key="56"/>
          <note pos="2544" vol="78" len="48" pan="0" key="52"/>
          <note pos="2592" vol="78" len="48" pan="0" key="56"/>
          <note pos="2640" vol="78" len="48" pan="0" key="64"/>
          <note pos="2688" vol="78" len="192" pan="0" key="68"/>
          <note pos="2880" vol="78" len="192" pan="0" key="68"/>
        </pattern>
        <pattern name="" steps="16" pos="30336" muted="0" type="1">
          <note pos="0" vol="197" len="12" pan="0" key="69"/>
          <note pos="0" vol="197" len="12" pan="0" key="1"/>
          <note pos="12" vol="197" len="12" pan="0" key="69"/>
          <note pos="24" vol="197" len="12" pan="0" key="68"/>
          <note pos="36" vol="197" len="12" pan="0" key="68"/>
          <note pos="48" vol="197" len="12" pan="0" key="66"/>
          <note pos="60" vol="197" len="12" pan="0" key="66"/>
          <note pos="72" vol="197" len="12" pan="0" key="73"/>
          <note pos="84" vol="197" len="12" pan="0" key="73"/>
          <note pos="96" vol="197" len="12" pan="0" key="71"/>
          <note pos="108" vol="197" len="12" pan="0" key="71"/>
          <note pos="120" vol="197" len="12" pan="0" key="69"/>
          <note pos="132" vol="197" len="12" pan="0" key="69"/>
          <note pos="144" vol="197" len="12" pan="0" key="71"/>
          <note pos="156" vol="197" len="12" pan="0" key="71"/>
          <note pos="168" vol="197" len="12" pan="0" key="73"/>
          <note pos="180" vol="197" len="12" pan="0" key="73"/>
          <note pos="192" vol="197" len="48" pan="0" key="74"/>
          <note pos="192" vol="197" len="48" pan="0" key="0"/>
          <note pos="240" vol="197" len="12" pan="0" key="73"/>
          <note pos="240" vol="197" len="12" pan="0" key="2"/>
          <note pos="252" vol="197" len="12" pan="0" key="74"/>
          <note pos="264" vol="197" len="12" pan="0" key="76"/>
          <note pos="264" vol="197" len="12" pan="0" key="0"/>
          <note pos="276" vol="197" len="12" pan="0" key="78"/>
          <note pos="288" vol="197" len="12" pan="0" key="80"/>
          <note pos="288" vol="197" len="12" pan="0" key="0"/>
          <note pos="300" vol="197" len="12" pan="0" key="78"/>
          <note pos="300" vol="197" len="12" pan="0" key="1"/>
          <note pos="312" vol="197" len="12" pan="0" key="76"/>
          <note pos="324" vol="197" len="12" pan="0" key="78"/>
          <note pos="336" vol="197" len="12" pan="0" key="81"/>
          <note pos="336" vol="197" len="12" pan="0" key="0"/>
          <note pos="348" vol="197" len="12" pan="0" key="80"/>
          <note pos="348" vol="197" len="12" pan="0" key="1"/>
          <note pos="360" vol="197" len="12" pan="0" key="78"/>
          <note pos="372" vol="197" len="12" pan="0" key="80"/>
          <note pos="384" vol="197" len="24" pan="0" key="80"/>
          <note pos="384" vol="197" len="48" pan="0" key="0"/>
          <note pos="408" vol="197" len="24" pan="0" key="81"/>
          <note pos="456" vol="197" len="48" pan="0" key="78"/>
          <note pos="492" vol="197" len="12" pan="0" key="1"/>
          <note pos="504" vol="197" len="12" pan="0" key="74"/>
          <note pos="516" vol="197" len="12" pan="0" key="74"/>
          <note pos="528" vol="197" len="12" pan="0" key="78"/>
          <note pos="540" vol="197" len="12" pan="0" key="78"/>
          <note pos="552" vol="197" len="12" pan="0" key="80"/>
          <note pos="564" vol="197" len="12" pan="0" key="80"/>
          <note pos="576" vol="197" len="24" pan="0" key="83"/>
          <note pos="576" vol="197" len="24" pan="0" key="0"/>
          <note pos="600" vol="197" len="12" pan="0" key="81"/>
          <note pos="612" vol="197" len="12" pan="0" key="83"/>
          <note pos="624" vol="197" len="24" pan="0" key="85"/>
          <note pos="648" vol="197" len="12" pan="0" key="83"/>
          <note pos="660" vol="197" len="12" pan="0" key="85"/>
          <note pos="672" vol="197" len="12" pan="0" key="88"/>
          <note pos="684" vol="197" len="12" pan="0" key="86"/>
          <note pos="696" vol="197" len="12" pan="0" key="85"/>
          <note pos="708" vol="197" len="12" pan="0" key="83"/>
          <note pos="720" vol="197" len="12" pan="0" key="81"/>
          <note pos="732" vol="197" len="12" pan="0" key="80"/>
          <note pos="744" vol="197" len="12" pan="0" key="78"/>
          <note pos="756" vol="197" len="12" pan="0" key="76"/>
        </pattern>
        <pattern name="" steps="16" pos="34944" muted="0" type="1">
          <note pos="0" vol="78" len="144" pan="0" key="68"/>
          <note pos="0" vol="140" len="12" pan="0" key="0"/>
          <note pos="144" vol="78" len="48" pan="0" key="73"/>
          <note pos="192" vol="78" len="144" pan="0" key="71"/>
          <note pos="336" vol="78" len="48" pan="0" key="76"/>
          <note pos="384" vol="78" len="144" pan="0" key="76"/>
          <note pos="528" vol="78" len="24" pan="0" key="75"/>
          <note pos="552" vol="78" len="24" pan="0" key="73"/>
          <note pos="576" vol="78" len="48" pan="0" key="71"/>
          <note pos="624" vol="78" len="48" pan="0" key="73"/>
          <note pos="672" vol="197" len="12" pan="0" key="66"/>
          <note pos="672" vol="197" len="12" pan="0" key="1"/>
          <note pos="684" vol="197" len="12" pan="0" key="68"/>
          <note pos="696" vol="197" len="12" pan="0" key="66"/>
          <note pos="708" vol="197" len="12" pan="0" key="64"/>
          <note pos="720" vol="197" len="12" pan="0" key="66"/>
          <note pos="732" vol="197" len="12" pan="0" key="64"/>
          <note pos="744" vol="197" len="12" pan="0" key="61"/>
          <note pos="756" vol="197" len="12" pan="0" key="64"/>
          <note pos="768" vol="78" len="96" pan="0" key="66"/>
          <note pos="768" vol="197" len="12" pan="0" key="0"/>
          <note pos="864" vol="78" len="48" pan="0" key="69"/>
          <note pos="912" vol="78" len="48" pan="0" key="73"/>
          <note pos="960" vol="78" len="96" pan="0" key="73"/>
          <note pos="1056" vol="78" len="48" pan="0" key="71"/>
          <note pos="1104" vol="78" len="48" pan="0" key="73"/>
          <note pos="1152" vol="197" len="12" pan="0" key="73"/>
          <note pos="1152" vol="200" len="12" pan="0" key="0"/>
          <note pos="1164" vol="197" len="12" pan="0" key="69"/>
          <note pos="1176" vol="197" len="12" pan="0" key="71"/>
          <note pos="1188" vol="197" len="12" pan="0" key="73"/>
          <note pos="1200" vol="197" len="12" pan="0" key="75"/>
          <note pos="1212" vol="197" len="12" pan="0" key="71"/>
          <note pos="1224" vol="197" len="12" pan="0" key="73"/>
          <note pos="1236" vol="197" len="12" pan="0" key="75"/>
          <note pos="1248" vol="197" len="12" pan="0" key="76"/>
          <note pos="1260" vol="197" len="12" pan="0" key="73"/>
          <note pos="1272" vol="197" len="12" pan="0" key="75"/>
          <note pos="1284" vol="197" len="12" pan="0" key="76"/>
          <note pos="1296" vol="197" len="12" pan="0" key="78"/>
          <note pos="1308" vol="197" len="12" pan="0" key="75"/>
          <note pos="1320" vol="197" len="12" pan="0" key="76"/>
          <note pos="1332" vol="197" len="12" pan="0" key="78"/>
          <note pos="1344" vol="200" len="12" pan="0" key="80"/>
          <note pos="1356" vol="200" len="12" pan="0" key="78"/>
          <note pos="1368" vol="200" len="12" pan="0" key="76"/>
          <note pos="1380" vol="200" len="12" pan="0" key="75"/>
          <note pos="1392" vol="200" len="12" pan="0" key="78"/>
          <note pos="1404" vol="200" len="12" pan="0" key="76"/>
          <note pos="1416" vol="200" len="12" pan="0" key="75"/>
          <note pos="1428" vol="200" len="12" pan="0" key="73"/>
          <note pos="1440" vol="200" len="12" pan="0" key="76"/>
          <note pos="1440" vol="200" len="12" pan="0" key="0"/>
          <note pos="1452" vol="200" len="12" pan="0" key="75"/>
          <note pos="1464" vol="200" len="12" pan="0" key="76"/>
          <note pos="1476" vol="200" len="12" pan="0" key="78"/>
          <note pos="1488" vol="200" len="12" pan="0" key="83"/>
          <note pos="1488" vol="200" len="12" pan="0" key="2"/>
          <note pos="1500" vol="200" len="12" pan="0" key="78"/>
          <note pos="1512" vol="200" len="12" pan="0" key="83"/>
          <note pos="1524" vol="200" len="12" pan="0" key="78"/>
        </pattern>
        <pattern name="" steps="16" pos="31104" muted="0" type="1">
          <note pos="0" vol="197" len="24" pan="0" key="80"/>
          <note pos="0" vol="197" len="24" pan="0" key="1"/>
          <note pos="24" vol="197" len="24" pan="0" key="76"/>
          <note pos="48" vol="197" len="24" pan="0" key="78"/>
          <note pos="72" vol="197" len="24" pan="0" key="73"/>
          <note pos="96" vol="197" len="24" pan="0" key="76"/>
          <note pos="120" vol="197" len="24" pan="0" key="73"/>
          <note pos="144" vol="197" len="24" pan="0" key="71"/>
          <note pos="168" vol="197" len="24" pan="0" key="73"/>
          <note pos="192" vol="197" len="24" pan="0" key="76"/>
          <note pos="216" vol="197" len="24" pan="0" key="73"/>
          <note pos="240" vol="197" len="24" pan="0" key="76"/>
          <note pos="264" vol="197" len="24" pan="0" key="78"/>
          <note pos="288" vol="197" len="24" pan="0" key="80"/>
          <note pos="312" vol="197" len="24" pan="0" key="78"/>
          <note pos="336" vol="197" len="24" pan="0" key="76"/>
          <note pos="360" vol="197" len="24" pan="0" key="78"/>
        </pattern>
        <pattern name="" steps="16" pos="31488" muted="0" type="1">
          <note pos="0" vol="197" len="12" pan="0" key="68"/>
          <note pos="0" vol="197" len="24" pan="0" key="0"/>
          <note pos="12" vol="197" len="12" pan="0" key="66"/>
          <note pos="12" vol="197" len="24" pan="0" key="1"/>
          <note pos="24" vol="197" len="12" pan="0" key="68"/>
          <note pos="36" vol="197" len="12" pan="0" key="69"/>
          <note pos="48" vol="197" len="12" pan="0" key="71"/>
          <note pos="48" vol="197" len="12" pan="0" key="0"/>
          <note pos="60" vol="197" len="12" pan="0" key="68"/>
          <note pos="60" vol="197" len="12" pan="0" key="1"/>
          <note pos="72" vol="197" len="12" pan="0" key="69"/>
          <note pos="84" vol="197" len="12" pan="0" key="71"/>
          <note pos="96" vol="197" len="12" pan="0" key="73"/>
          <note pos="96" vol="197" len="12" pan="0" key="0"/>
          <note pos="108" vol="197" len="12" pan="0" key="71"/>
          <note pos="108" vol="197" len="12" pan="0" key="1"/>
          <note pos="120" vol="197" len="12" pan="0" key="69"/>
          <note pos="132" vol="197" len="12" pan="0" key="71"/>
          <note pos="144" vol="197" len="12" pan="0" key="73"/>
          <note pos="156" vol="197" len="12" pan="0" key="75"/>
          <note pos="168" vol="197" len="12" pan="0" key="76"/>
          <note pos="180" vol="197" len="12" pan="0" key="78"/>
          <note pos="192" vol="197" len="12" pan="0" key="78"/>
          <note pos="204" vol="197" len="12" pan="0" key="75"/>
          <note pos="216" vol="197" len="12" pan="0" key="71"/>
          <note pos="228" vol="197" len="12" pan="0" key="66"/>
          <note pos="240" vol="197" len="12" pan="0" key="63"/>
          <note pos="252" vol="197" len="12" pan="0" key="66"/>
          <note pos="264" vol="197" len="12" pan="0" key="83"/>
          <note pos="276" vol="197" len="12" pan="0" key="75"/>
          <note pos="288" vol="197" len="12" pan="0" key="71"/>
          <note pos="300" vol="197" len="12" pan="0" key="66"/>
          <note pos="312" vol="197" len="12" pan="0" key="71"/>
          <note pos="324" vol="197" len="12" pan="0" key="75"/>
          <note pos="336" vol="197" len="12" pan="0" key="78"/>
          <note pos="348" vol="197" len="12" pan="0" key="75"/>
          <note pos="360" vol="197" len="12" pan="0" key="71"/>
          <note pos="372" vol="197" len="12" pan="0" key="75"/>
        </pattern>
        <pattern name="" steps="16" pos="31872" muted="0" type="1">
          <note pos="0" vol="100" len="240" pan="0" key="80"/>
          <note pos="0" vol="100" len="108" pan="0" key="0"/>
        </pattern>
        <pattern name="" steps="16" pos="37056" muted="0" type="1">
          <note pos="0" vol="197" len="12" pan="0" key="76"/>
          <note pos="0" vol="197" len="12" pan="0" key="0"/>
          <note pos="12" vol="197" len="12" pan="0" key="59"/>
          <note pos="12" vol="197" len="12" pan="0" key="2"/>
          <note pos="24" vol="197" len="12" pan="0" key="59"/>
          <note pos="24" vol="197" len="12" pan="0" key="0"/>
          <note pos="36" vol="197" len="12" pan="0" key="75"/>
          <note pos="36" vol="197" len="12" pan="0" key="0"/>
          <note pos="48" vol="197" len="12" pan="0" key="59"/>
          <note pos="48" vol="197" len="12" pan="0" key="2"/>
          <note pos="60" vol="197" len="12" pan="0" key="59"/>
          <note pos="60" vol="197" len="12" pan="0" key="0"/>
          <note pos="72" vol="197" len="12" pan="0" key="76"/>
          <note pos="72" vol="197" len="12" pan="0" key="0"/>
          <note pos="84" vol="197" len="12" pan="0" key="59"/>
          <note pos="84" vol="197" len="12" pan="0" key="2"/>
          <note pos="96" vol="197" len="12" pan="0" key="59"/>
          <note pos="96" vol="197" len="12" pan="0" key="0"/>
          <note pos="108" vol="197" len="12" pan="0" key="75"/>
          <note pos="108" vol="197" len="12" pan="0" key="0"/>
          <note pos="120" vol="197" len="12" pan="0" key="59"/>
          <note pos="120" vol="197" len="12" pan="0" key="2"/>
          <note pos="132" vol="197" len="12" pan="0" key="59"/>
          <note pos="132" vol="197" len="12" pan="0" key="0"/>
          <note pos="144" vol="197" len="12" pan="0" key="80"/>
          <note pos="144" vol="197" len="12" pan="0" key="0"/>
          <note pos="156" vol="197" len="12" pan="0" key="59"/>
          <note pos="156" vol="197" len="12" pan="0" key="2"/>
          <note pos="168" vol="197" len="12" pan="0" key="78"/>
          <note pos="168" vol="197" len="12" pan="0" key="0"/>
          <note pos="180" vol="197" len="12" pan="0" key="59"/>
          <note pos="180" vol="197" len="12" pan="0" key="2"/>
        </pattern>
        <pattern name="" steps="16" pos="37248" muted="0" type="1">
          <note pos="0" vol="100" len="12" pan="0" key="73"/>
          <note pos="0" vol="100" len="48" pan="0" key="0"/>
          <note pos="12" vol="100" len="12" pan="0" key="71"/>
          <note pos="24" vol="100" len="12" pan="0" key="68"/>
          <note pos="24" vol="100" len="12" pan="0" key="1"/>
          <note pos="36" vol="100" len="12" pan="0" key="66"/>
          <note pos="48" vol="100" len="12" pan="0" key="64"/>
          <note pos="60" vol="100" len="12" pan="0" key="61"/>
          <note pos="72" vol="100" len="12" pan="0" key="64"/>
          <note pos="84" vol="100" len="12" pan="0" key="68"/>
          <note pos="96" vol="100" len="12" pan="0" key="73"/>
          <note pos="96" vol="100" len="12" pan="0" key="0"/>
          <note pos="108" vol="100" len="12" pan="0" key="71"/>
          <note pos="120" vol="100" len="12" pan="0" key="68"/>
          <note pos="120" vol="100" len="12" pan="0" key="1"/>
          <note pos="132" vol="100" len="12" pan="0" key="66"/>
          <note pos="144" vol="100" len="12" pan="0" key="64"/>
          <note pos="156" vol="100" len="12" pan="0" key="61"/>
          <note pos="168" vol="100" len="12" pan="0" key="64"/>
          <note pos="180" vol="100" len="12" pan="0" key="68"/>
        </pattern>
        <pattern name="" steps="16" pos="37440" muted="0" type="1">
          <note pos="0" vol="197" len="12" pan="0" key="75"/>
          <note pos="0" vol="100" len="12" pan="0" key="0"/>
          <note pos="12" vol="197" len="12" pan="0" key="76"/>
          <note pos="24" vol="197" len="12" pan="0" key="75"/>
          <note pos="36" vol="197" len="12" pan="0" key="71"/>
          <note pos="36" vol="100" len="12" pan="0" key="1"/>
          <note pos="48" vol="197" len="12" pan="0" key="73"/>
          <note pos="60" vol="197" len="12" pan="0" key="68"/>
          <note pos="72" vol="197" len="12" pan="0" key="71"/>
          <note pos="72" vol="100" len="12" pan="0" key="0"/>
          <note pos="84" vol="197" len="12" pan="0" key="73"/>
          <note pos="96" vol="197" len="12" pan="0" key="78"/>
          <note pos="96" vol="100" len="12" pan="0" key="0"/>
          <note pos="108" vol="197" len="12" pan="0" key="80"/>
          <note pos="120" vol="197" len="12" pan="0" key="78"/>
          <note pos="132" vol="197" len="12" pan="0" key="76"/>
          <note pos="132" vol="100" len="12" pan="0" key="1"/>
          <note pos="144" vol="197" len="12" pan="0" key="78"/>
          <note pos="156" vol="197" len="12" pan="0" key="73"/>
          <note pos="168" vol="197" len="12" pan="0" key="75"/>
          <note pos="168" vol="100" len="12" pan="0" key="0"/>
          <note pos="180" vol="197" len="12" pan="0" key="76"/>
        </pattern>
        <pattern name="" steps="16" pos="34752" muted="0" type="1">
          <note pos="96" vol="95" len="12" pan="0" key="76"/>
          <note pos="96" vol="95" len="12" pan="0" key="0"/>
          <note pos="108" vol="95" len="12" pan="0" key="78"/>
          <note pos="120" vol="95" len="12" pan="0" key="76"/>
          <note pos="132" vol="95" len="12" pan="0" key="75"/>
          <note pos="132" vol="95" len="12" pan="0" key="1"/>
          <note pos="144" vol="95" len="12" pan="0" key="76"/>
          <note pos="144" vol="95" len="12" pan="0" key="0"/>
          <note pos="156" vol="95" len="12" pan="0" key="75"/>
          <note pos="156" vol="95" len="12" pan="0" key="1"/>
          <note pos="168" vol="95" len="12" pan="0" key="73"/>
          <note pos="180" vol="95" len="12" pan="0" key="72"/>
        </pattern>
        <pattern name="" steps="16" pos="37632" muted="0" type="1">
          <note pos="0" vol="197" len="12" pan="0" key="64"/>
          <note pos="0" vol="197" len="12" pan="0" key="1"/>
          <note pos="12" vol="197" len="12" pan="0" key="66"/>
          <note pos="24" vol="197" len="12" pan="0" key="64"/>
          <note pos="36" vol="197" len="12" pan="0" key="63"/>
          <note pos="48" vol="197" len="12" pan="0" key="66"/>
          <note pos="60" vol="197" len="12" pan="0" key="68"/>
          <note pos="72" vol="197" len="12" pan="0" key="66"/>
          <note pos="84" vol="197" len="12" pan="0" key="64"/>
          <note pos="96" vol="197" len="12" pan="0" key="68"/>
          <note pos="96" vol="197" len="12" pan="0" key="0"/>
          <note pos="108" vol="197" len="12" pan="0" key="69"/>
          <note pos="120" vol="197" len="12" pan="0" key="68"/>
          <note pos="120" vol="197" len="12" pan="0" key="1"/>
          <note pos="132" vol="197" len="12" pan="0" key="66"/>
          <note pos="144" vol="197" len="12" pan="0" key="69"/>
          <note pos="144" vol="197" len="12" pan="0" key="0"/>
          <note pos="156" vol="197" len="12" pan="0" key="71"/>
          <note pos="168" vol="197" len="12" pan="0" key="69"/>
          <note pos="168" vol="197" len="12" pan="0" key="1"/>
          <note pos="180" vol="197" len="12" pan="0" key="68"/>
          <note pos="192" vol="197" len="12" pan="0" key="73"/>
          <note pos="192" vol="197" len="12" pan="0" key="0"/>
          <note pos="204" vol="197" len="12" pan="0" key="69"/>
          <note pos="216" vol="197" len="12" pan="0" key="71"/>
          <note pos="216" vol="197" len="12" pan="0" key="1"/>
          <note pos="228" vol="197" len="12" pan="0" key="73"/>
          <note pos="240" vol="197" len="12" pan="0" key="75"/>
          <note pos="240" vol="197" len="12" pan="0" key="0"/>
          <note pos="252" vol="197" len="12" pan="0" key="71"/>
          <note pos="264" vol="197" len="12" pan="0" key="73"/>
          <note pos="264" vol="197" len="12" pan="0" key="1"/>
          <note pos="276" vol="197" len="12" pan="0" key="75"/>
          <note pos="288" vol="197" len="12" pan="0" key="78"/>
          <note pos="288" vol="197" len="12" pan="0" key="0"/>
          <note pos="300" vol="197" len="12" pan="0" key="76"/>
          <note pos="312" vol="197" len="12" pan="0" key="78"/>
          <note pos="324" vol="197" len="12" pan="0" key="80"/>
          <note pos="336" vol="197" len="12" pan="0" key="83"/>
          <note pos="336" vol="197" len="12" pan="0" key="0"/>
          <note pos="348" vol="197" len="12" pan="0" key="78"/>
          <note pos="360" vol="197" len="12" pan="0" key="75"/>
          <note pos="360" vol="197" len="12" pan="0" key="1"/>
          <note pos="372" vol="197" len="12" pan="0" key="71"/>
        </pattern>
        <pattern name="" steps="16" pos="38784" muted="0" type="1">
          <note pos="0" vol="100" len="12" pan="0" key="63"/>
          <note pos="0" vol="100" len="12" pan="0" key="1"/>
          <note pos="12" vol="100" len="12" pan="0" key="64"/>
          <note pos="24" vol="100" len="12" pan="0" key="66"/>
          <note pos="36" vol="100" len="12" pan="0" key="68"/>
          <note pos="48" vol="100" len="12" pan="0" key="69"/>
          <note pos="48" vol="100" len="12" pan="0" key="0"/>
          <note pos="60" vol="100" len="12" pan="0" key="68"/>
          <note pos="72" vol="100" len="12" pan="0" key="66"/>
          <note pos="72" vol="100" len="12" pan="0" key="1"/>
          <note pos="84" vol="100" len="12" pan="0" key="64"/>
          <note pos="96" vol="100" len="12" pan="0" key="66"/>
          <note pos="108" vol="100" len="12" pan="0" key="68"/>
          <note pos="120" vol="100" len="12" pan="0" key="69"/>
          <note pos="132" vol="100" len="12" pan="0" key="71"/>
          <note pos="144" vol="100" len="12" pan="0" key="73"/>
          <note pos="144" vol="100" len="12" pan="0" key="0"/>
          <note pos="156" vol="100" len="12" pan="0" key="71"/>
          <note pos="168" vol="100" len="12" pan="0" key="69"/>
          <note pos="168" vol="100" len="12" pan="0" key="1"/>
          <note pos="180" vol="100" len="12" pan="0" key="68"/>
          <note pos="192" vol="100" len="12" pan="0" key="69"/>
          <note pos="204" vol="100" len="12" pan="0" key="71"/>
          <note pos="216" vol="100" len="12" pan="0" key="73"/>
          <note pos="228" vol="100" len="12" pan="0" key="75"/>
          <note pos="240" vol="100" len="12" pan="0" key="76"/>
          <note pos="240" vol="100" len="12" pan="0" key="0"/>
          <note pos="252" vol="100" len="12" pan="0" key="75"/>
          <note pos="264" vol="100" len="12" pan="0" key="73"/>
          <note pos="264" vol="100" len="12" pan="0" key="1"/>
          <note pos="276" vol="100" len="12" pan="0" key="71"/>
          <note pos="288" vol="100" len="12" pan="0" key="78"/>
          <note pos="288" vol="100" len="12" pan="0" key="0"/>
          <note pos="300" vol="100" len="12" pan="0" key="76"/>
          <note pos="312" vol="100" len="12" pan="0" key="75"/>
          <note pos="324" vol="100" len="12" pan="0" key="73"/>
          <note pos="336" vol="100" len="12" pan="0" key="80"/>
          <note pos="348" vol="100" len="12" pan="0" key="78"/>
          <note pos="360" vol="100" len="12" pan="0" key="76"/>
          <note pos="372" vol="100" len="12" pan="0" key="75"/>
        </pattern>
        <pattern name="" steps="16" pos="39168" muted="0" type="1">
          <note pos="0" vol="78" len="24" pan="0" key="79"/>
          <note pos="0" vol="78" len="24" pan="0" key="0"/>
          <note pos="24" vol="78" len="24" pan="0" key="75"/>
          <note pos="48" vol="78" len="24" pan="0" key="70"/>
          <note pos="72" vol="78" len="24" pan="0" key="75"/>
          <note pos="96" vol="78" len="24" pan="0" key="70"/>
          <note pos="120" vol="78" len="24" pan="0" key="67"/>
          <note pos="144" vol="78" len="24" pan="0" key="70"/>
          <note pos="168" vol="78" len="24" pan="0" key="75"/>
          <note pos="192" vol="78" len="48" pan="0" key="75"/>
          <note pos="240" vol="78" len="48" pan="0" key="80"/>
          <note pos="288" vol="78" len="48" pan="0" key="81"/>
          <note pos="336" vol="78" len="48" pan="0" key="84"/>
        </pattern>
        <pattern name="" steps="16" pos="43200" muted="0" type="1">
          <note pos="0" vol="78" len="72" pan="0" key="0"/>
          <note pos="960" vol="78" len="144" pan="0" key="70"/>
          <note pos="1104" vol="78" len="48" pan="0" key="75"/>
          <note pos="1152" vol="78" len="144" pan="0" key="73"/>
          <note pos="1296" vol="78" len="48" pan="0" key="78"/>
          <note pos="1344" vol="78" len="144" pan="0" key="78"/>
          <note pos="1488" vol="78" len="24" pan="0" key="77"/>
          <note pos="1512" vol="78" len="24" pan="0" key="75"/>
          <note pos="1536" vol="78" len="48" pan="0" key="73"/>
          <note pos="1584" vol="78" len="48" pan="0" key="75"/>
          <note pos="1632" vol="78" len="48" pan="0" key="70"/>
          <note pos="1680" vol="78" len="48" pan="0" key="66"/>
          <note pos="1728" vol="78" len="96" pan="0" key="68"/>
          <note pos="1824" vol="78" len="48" pan="0" key="71"/>
          <note pos="1872" vol="78" len="48" pan="0" key="75"/>
          <note pos="1920" vol="78" len="96" pan="0" key="75"/>
          <note pos="2016" vol="78" len="48" pan="0" key="73"/>
          <note pos="2064" vol="78" len="48" pan="0" key="75"/>
          <note pos="2112" vol="78" len="72" pan="0" key="82"/>
          <note pos="2184" vol="78" len="72" pan="0" key="80"/>
          <note pos="2256" vol="78" len="48" pan="0" key="78"/>
          <note pos="2304" vol="78" len="192" pan="0" key="77"/>
          <note pos="2496" vol="78" len="72" pan="0" key="75"/>
          <note pos="2568" vol="78" len="72" pan="0" key="73"/>
          <note pos="2640" vol="78" len="48" pan="0" key="75"/>
          <note pos="2688" vol="78" len="144" pan="0" key="78"/>
          <note pos="2832" vol="78" len="48" pan="0" key="73"/>
          <note pos="2880" vol="78" len="240" pan="0" key="72"/>
          <note pos="3120" vol="78" len="48" pan="0" key="75"/>
          <note pos="3168" vol="78" len="48" pan="0" key="77"/>
          <note pos="3216" vol="78" len="48" pan="0" key="78"/>
          <note pos="3264" vol="78" len="72" pan="0" key="80"/>
          <note pos="3336" vol="78" len="72" pan="0" key="78"/>
          <note pos="3408" vol="78" len="48" pan="0" key="76"/>
          <note pos="3456" vol="78" len="48" pan="0" key="75"/>
          <note pos="3504" vol="78" len="48" pan="0" key="70"/>
          <note pos="3552" vol="78" len="48" pan="0" key="82"/>
          <note pos="3600" vol="78" len="48" pan="0" key="87"/>
          <note pos="3648" vol="78" len="192" pan="0" key="85"/>
          <note pos="3840" vol="195" len="12" pan="0" key="82"/>
          <note pos="3852" vol="195" len="12" pan="0" key="80"/>
          <note pos="3864" vol="195" len="12" pan="0" key="78"/>
          <note pos="3876" vol="195" len="12" pan="0" key="77"/>
          <note pos="3888" vol="195" len="12" pan="0" key="80"/>
          <note pos="3900" vol="195" len="12" pan="0" key="78"/>
          <note pos="3912" vol="195" len="12" pan="0" key="77"/>
          <note pos="3924" vol="195" len="12" pan="0" key="75"/>
          <note pos="3936" vol="195" len="12" pan="0" key="78"/>
          <note pos="3948" vol="195" len="12" pan="0" key="77"/>
          <note pos="3960" vol="195" len="12" pan="0" key="75"/>
          <note pos="3972" vol="195" len="12" pan="0" key="73"/>
          <note pos="3984" vol="195" len="12" pan="0" key="77"/>
          <note pos="3996" vol="195" len="12" pan="0" key="75"/>
          <note pos="4008" vol="195" len="12" pan="0" key="73"/>
          <note pos="4020" vol="195" len="12" pan="0" key="75"/>
        </pattern>
        <pattern name="" steps="16" pos="40320" muted="0" type="1">
          <note pos="0" vol="78" len="12" pan="0" key="66"/>
          <note pos="0" vol="200" len="48" pan="0" key="1"/>
          <note pos="12" vol="78" len="12" pan="0" key="64"/>
          <note pos="24" vol="78" len="12" pan="0" key="61"/>
          <note pos="36" vol="78" len="12" pan="0" key="64"/>
          <note pos="48" vol="78" len="12" pan="0" key="66"/>
          <note pos="60" vol="78" len="12" pan="0" key="64"/>
          <note pos="72" vol="78" len="12" pan="0" key="61"/>
          <note pos="84" vol="78" len="12" pan="0" key="64"/>
          <note pos="96" vol="78" len="12" pan="0" key="69"/>
          <note pos="108" vol="78" len="12" pan="0" key="68"/>
          <note pos="120" vol="78" len="12" pan="0" key="66"/>
          <note pos="132" vol="78" len="12" pan="0" key="68"/>
          <note pos="144" vol="78" len="12" pan="0" key="69"/>
          <note pos="156" vol="78" len="12" pan="0" key="71"/>
          <note pos="168" vol="78" len="12" pan="0" key="73"/>
          <note pos="180" vol="78" len="12" pan="0" key="71"/>
          <note pos="192" vol="78" len="12" pan="0" key="73"/>
          <note pos="204" vol="78" len="12" pan="0" key="71"/>
          <note pos="216" vol="78" len="12" pan="0" key="68"/>
          <note pos="228" vol="78" len="12" pan="0" key="71"/>
          <note pos="240" vol="78" len="12" pan="0" key="73"/>
          <note pos="240" vol="200" len="48" pan="0" key="0"/>
          <note pos="252" vol="78" len="12" pan="0" key="71"/>
          <note pos="264" vol="78" len="12" pan="0" key="68"/>
          <note pos="276" vol="78" len="12" pan="0" key="71"/>
          <note pos="288" vol="78" len="12" pan="0" key="73"/>
          <note pos="300" vol="78" len="12" pan="0" key="75"/>
          <note pos="312" vol="78" len="12" pan="0" key="76"/>
          <note pos="324" vol="78" len="12" pan="0" key="78"/>
          <note pos="336" vol="78" len="12" pan="0" key="80"/>
          <note pos="348" vol="78" len="12" pan="0" key="73"/>
          <note pos="348" vol="200" len="12" pan="0" key="1"/>
          <note pos="360" vol="78" len="12" pan="0" key="71"/>
          <note pos="372" vol="78" len="12" pan="0" key="73"/>
        </pattern>
        <pattern name="" steps="16" pos="40704" muted="0" type="1">
          <note pos="0" vol="78" len="48" pan="0" key="80"/>
          <note pos="0" vol="100" len="48" pan="0" key="0"/>
          <note pos="48" vol="78" len="12" pan="0" key="78"/>
          <note pos="60" vol="78" len="12" pan="0" key="80"/>
          <note pos="72" vol="78" len="48" pan="0" key="78"/>
          <note pos="120" vol="78" len="12" pan="0" key="76"/>
          <note pos="132" vol="78" len="12" pan="0" key="78"/>
          <note pos="144" vol="78" len="12" pan="0" key="76"/>
          <note pos="144" vol="78" len="12" pan="0" key="0"/>
          <note pos="156" vol="78" len="12" pan="0" key="75"/>
          <note pos="156" vol="78" len="12" pan="0" key="1"/>
          <note pos="168" vol="78" len="12" pan="0" key="73"/>
          <note pos="180" vol="78" len="12" pan="0" key="76"/>
          <note pos="192" vol="78" len="48" pan="0" key="75"/>
          <note pos="192" vol="78" len="12" pan="0" key="0"/>
          <note pos="240" vol="78" len="12" pan="0" key="73"/>
          <note pos="240" vol="78" len="12" pan="0" key="1"/>
          <note pos="252" vol="78" len="12" pan="0" key="71"/>
          <note pos="264" vol="78" len="12" pan="0" key="73"/>
          <note pos="276" vol="78" len="12" pan="0" key="75"/>
          <note pos="288" vol="78" len="12" pan="0" key="76"/>
          <note pos="288" vol="78" len="12" pan="0" key="0"/>
          <note pos="300" vol="78" len="12" pan="0" key="78"/>
          <note pos="312" vol="78" len="12" pan="0" key="76"/>
          <note pos="324" vol="78" len="12" pan="0" key="75"/>
          <note pos="336" vol="78" len="12" pan="0" key="76"/>
          <note pos="348" vol="78" len="12" pan="0" key="75"/>
          <note pos="360" vol="78" len="12" pan="0" key="73"/>
          <note pos="360" vol="78" len="12" pan="0" key="1"/>
          <note pos="372" vol="78" len="12" pan="0" key="71"/>
        </pattern>
        <pattern name="" steps="16" pos="41088" muted="0" type="1">
          <note pos="0" vol="78" len="12" pan="0" key="76"/>
          <note pos="0" vol="78" len="12" pan="0" key="0"/>
          <note pos="12" vol="78" len="12" pan="0" key="73"/>
          <note pos="24" vol="78" len="12" pan="0" key="71"/>
          <note pos="24" vol="78" len="12" pan="0" key="1"/>
          <note pos="36" vol="78" len="12" pan="0" key="73"/>
          <note pos="48" vol="78" len="12" pan="0" key="68"/>
          <note pos="60" vol="78" len="12" pan="0" key="73"/>
          <note pos="72" vol="78" len="12" pan="0" key="71"/>
          <note pos="84" vol="78" len="12" pan="0" key="73"/>
          <note pos="96" vol="78" len="12" pan="0" key="76"/>
          <note pos="96" vol="78" len="12" pan="0" key="0"/>
          <note pos="108" vol="78" len="12" pan="0" key="73"/>
          <note pos="120" vol="78" len="12" pan="0" key="71"/>
          <note pos="120" vol="78" len="12" pan="0" key="1"/>
          <note pos="132" vol="78" len="12" pan="0" key="73"/>
          <note pos="144" vol="78" len="12" pan="0" key="68"/>
          <note pos="156" vol="78" len="12" pan="0" key="73"/>
          <note pos="168" vol="78" len="12" pan="0" key="71"/>
          <note pos="180" vol="78" len="12" pan="0" key="73"/>
          <note pos="192" vol="78" len="12" pan="0" key="76"/>
          <note pos="192" vol="78" len="12" pan="0" key="0"/>
          <note pos="204" vol="78" len="12" pan="0" key="71"/>
          <note pos="216" vol="78" len="12" pan="0" key="69"/>
          <note pos="216" vol="78" len="12" pan="0" key="1"/>
          <note pos="228" vol="78" len="12" pan="0" key="71"/>
          <note pos="240" vol="78" len="12" pan="0" key="68"/>
          <note pos="252" vol="78" len="12" pan="0" key="71"/>
          <note pos="264" vol="78" len="12" pan="0" key="69"/>
          <note pos="276" vol="78" len="12" pan="0" key="71"/>
          <note pos="288" vol="78" len="12" pan="0" key="76"/>
          <note pos="288" vol="78" len="12" pan="0" key="0"/>
          <note pos="300" vol="78" len="12" pan="0" key="71"/>
          <note pos="312" vol="78" len="12" pan="0" key="69"/>
          <note pos="312" vol="78" len="12" pan="0" key="1"/>
          <note pos="324" vol="78" len="12" pan="0" key="71"/>
          <note pos="336" vol="78" len="12" pan="0" key="68"/>
          <note pos="348" vol="78" len="12" pan="0" key="71"/>
          <note pos="360" vol="78" len="12" pan="0" key="69"/>
          <note pos="372" vol="78" len="12" pan="0" key="71"/>
        </pattern>
        <pattern name="" steps="16" pos="41472" muted="0" type="1">
          <note pos="0" vol="78" len="12" pan="0" key="78"/>
          <note pos="0" vol="78" len="12" pan="0" key="0"/>
          <note pos="12" vol="78" len="12" pan="0" key="73"/>
          <note pos="24" vol="78" len="12" pan="0" key="70"/>
          <note pos="24" vol="78" len="12" pan="0" key="1"/>
          <note pos="36" vol="78" len="12" pan="0" key="73"/>
          <note pos="48" vol="78" len="12" pan="0" key="66"/>
          <note pos="60" vol="78" len="12" pan="0" key="73"/>
          <note pos="72" vol="78" len="12" pan="0" key="70"/>
          <note pos="84" vol="78" len="12" pan="0" key="73"/>
          <note pos="96" vol="78" len="12" pan="0" key="78"/>
          <note pos="108" vol="78" len="12" pan="0" key="73"/>
          <note pos="120" vol="78" len="12" pan="0" key="70"/>
          <note pos="132" vol="78" len="12" pan="0" key="73"/>
          <note pos="144" vol="78" len="12" pan="0" key="66"/>
          <note pos="156" vol="78" len="12" pan="0" key="73"/>
          <note pos="168" vol="78" len="12" pan="0" key="70"/>
          <note pos="180" vol="78" len="12" pan="0" key="73"/>
        </pattern>
        <pattern name="" steps="16" pos="41664" muted="0" type="1">
          <note pos="0" vol="78" len="12" pan="0" key="78"/>
          <note pos="0" vol="78" len="12" pan="0" key="0"/>
          <note pos="12" vol="78" len="12" pan="0" key="73"/>
          <note pos="24" vol="78" len="12" pan="0" key="70"/>
          <note pos="24" vol="78" len="12" pan="0" key="1"/>
          <note pos="36" vol="78" len="12" pan="0" key="66"/>
          <note pos="48" vol="78" len="12" pan="0" key="70"/>
          <note pos="60" vol="78" len="12" pan="0" key="66"/>
          <note pos="72" vol="78" len="12" pan="0" key="61"/>
          <note pos="84" vol="78" len="12" pan="0" key="66"/>
          <note pos="96" vol="78" len="12" pan="0" key="73"/>
          <note pos="108" vol="78" len="12" pan="0" key="70"/>
          <note pos="120" vol="78" len="12" pan="0" key="66"/>
          <note pos="132" vol="78" len="12" pan="0" key="70"/>
          <note pos="144" vol="78" len="12" pan="0" key="73"/>
          <note pos="156" vol="78" len="12" pan="0" key="78"/>
          <note pos="156" vol="78" len="12" pan="0" key="1"/>
          <note pos="168" vol="78" len="12" pan="0" key="82"/>
          <note pos="180" vol="78" len="12" pan="0" key="78"/>
        </pattern>
        <pattern name="" steps="16" pos="41856" muted="0" type="1">
          <note pos="0" vol="78" len="24" pan="0" key="81"/>
          <note pos="0" vol="78" len="48" pan="0" key="0"/>
          <note pos="24" vol="78" len="24" pan="0" key="76"/>
          <note pos="48" vol="78" len="24" pan="0" key="73"/>
          <note pos="72" vol="78" len="24" pan="0" key="80"/>
          <note pos="96" vol="78" len="24" pan="0" key="81"/>
          <note pos="120" vol="78" len="24" pan="0" key="83"/>
          <note pos="144" vol="78" len="24" pan="0" key="81"/>
          <note pos="168" vol="78" len="24" pan="0" key="80"/>
          <note pos="192" vol="78" len="12" pan="0" key="81"/>
          <note pos="192" vol="78" len="24" pan="0" key="0"/>
          <note pos="204" vol="78" len="12" pan="0" key="80"/>
          <note pos="216" vol="78" len="12" pan="0" key="78"/>
          <note pos="216" vol="78" len="24" pan="0" key="1"/>
          <note pos="228" vol="78" len="12" pan="0" key="76"/>
          <note pos="240" vol="78" len="12" pan="0" key="75"/>
          <note pos="252" vol="78" len="12" pan="0" key="76"/>
          <note pos="264" vol="78" len="12" pan="0" key="78"/>
          <note pos="264" vol="78" len="24" pan="0" key="0"/>
          <note pos="276" vol="78" len="12" pan="0" key="76"/>
          <note pos="288" vol="78" len="12" pan="0" key="75"/>
          <note pos="288" vol="78" len="24" pan="0" key="1"/>
          <note pos="300" vol="78" len="12" pan="0" key="73"/>
          <note pos="312" vol="78" len="12" pan="0" key="75"/>
          <note pos="324" vol="78" len="12" pan="0" key="76"/>
          <note pos="336" vol="78" len="12" pan="0" key="81"/>
          <note pos="336" vol="78" len="24" pan="0" key="0"/>
          <note pos="348" vol="78" len="12" pan="0" key="80"/>
          <note pos="360" vol="78" len="12" pan="0" key="78"/>
          <note pos="360" vol="78" len="24" pan="0" key="1"/>
          <note pos="372" vol="78" len="12" pan="0" key="80"/>
          <note pos="384" vol="78" len="384" pan="0" key="83"/>
          <note pos="384" vol="78" len="24" pan="0" key="0"/>
        </pattern>
        <pattern name="" steps="16" pos="53376" muted="0" type="1">
          <note pos="0" vol="197" len="192" pan="0" key="70"/>
          <note pos="0" vol="197" len="384" pan="0" key="0"/>
          <note pos="192" vol="197" len="192" pan="0" key="68"/>
          <note pos="384" vol="197" len="288" pan="0" key="66"/>
          <note pos="672" vol="197" len="96" pan="0" key="66"/>
          <note pos="768" vol="197" len="192" pan="0" key="78"/>
          <note pos="960" vol="197" len="192" pan="0" key="77"/>
          <note pos="1152" vol="197" len="384" pan="0" key="72"/>
          <note pos="1536" vol="197" len="192" pan="0" key="71"/>
          <note pos="1728" vol="197" len="192" pan="0" key="73"/>
          <note pos="1920" vol="197" len="192" pan="0" key="75"/>
          <note pos="2112" vol="197" len="96" pan="0" key="70"/>
          <note pos="2208" vol="197" len="96" pan="0" key="68"/>
          <note pos="2304" vol="197" len="192" pan="0" key="68"/>
          <note pos="2496" vol="197" len="144" pan="0" key="63"/>
          <note pos="2640" vol="197" len="24" pan="0" key="63"/>
          <note pos="2664" vol="197" len="24" pan="0" key="65"/>
          <note pos="2688" vol="197" len="192" pan="0" key="66"/>
          <note pos="2880" vol="197" len="96" pan="0" key="68"/>
          <note pos="2976" vol="197" len="96" pan="0" key="73"/>
          <note pos="3072" vol="197" len="384" pan="0" key="75"/>
        </pattern>
        <pattern name="" steps="16" pos="62400" muted="0" type="1">
          <note pos="96" vol="95" len="12" pan="0" key="78"/>
          <note pos="96" vol="95" len="12" pan="0" key="0"/>
          <note pos="108" vol="95" len="12" pan="0" key="80"/>
          <note pos="120" vol="95" len="12" pan="0" key="78"/>
          <note pos="132" vol="95" len="12" pan="0" key="77"/>
          <note pos="132" vol="95" len="12" pan="0" key="1"/>
          <note pos="144" vol="95" len="12" pan="0" key="78"/>
          <note pos="144" vol="95" len="12" pan="0" key="0"/>
          <note pos="156" vol="95" len="12" pan="0" key="77"/>
          <note pos="156" vol="95" len="12" pan="0" key="1"/>
          <note pos="168" vol="95" len="12" pan="0" key="75"/>
          <note pos="180" vol="95" len="12" pan="0" key="74"/>
        </pattern>
        <pattern name="" steps="16" pos="62592" muted="0" type="1">
          <note pos="0" vol="78" len="144" pan="0" key="70"/>
          <note pos="0" vol="140" len="12" pan="0" key="0"/>
          <note pos="144" vol="78" len="48" pan="0" key="75"/>
          <note pos="192" vol="78" len="144" pan="0" key="73"/>
          <note pos="336" vol="78" len="48" pan="0" key="78"/>
          <note pos="384" vol="78" len="144" pan="0" key="78"/>
          <note pos="528" vol="78" len="24" pan="0" key="77"/>
          <note pos="552" vol="78" len="24" pan="0" key="75"/>
          <note pos="576" vol="78" len="48" pan="0" key="73"/>
          <note pos="624" vol="78" len="48" pan="0" key="75"/>
          <note pos="672" vol="197" len="12" pan="0" key="68"/>
          <note pos="672" vol="197" len="12" pan="0" key="1"/>
          <note pos="684" vol="197" len="12" pan="0" key="70"/>
          <note pos="696" vol="197" len="12" pan="0" key="68"/>
          <note pos="708" vol="197" len="12" pan="0" key="66"/>
          <note pos="720" vol="197" len="12" pan="0" key="68"/>
          <note pos="732" vol="197" len="12" pan="0" key="66"/>
          <note pos="744" vol="197" len="12" pan="0" key="63"/>
          <note pos="756" vol="197" len="12" pan="0" key="66"/>
          <note pos="768" vol="78" len="96" pan="0" key="68"/>
          <note pos="768" vol="197" len="12" pan="0" key="0"/>
          <note pos="864" vol="78" len="48" pan="0" key="71"/>
          <note pos="912" vol="78" len="48" pan="0" key="75"/>
          <note pos="960" vol="78" len="96" pan="0" key="75"/>
          <note pos="1056" vol="78" len="48" pan="0" key="73"/>
          <note pos="1104" vol="78" len="48" pan="0" key="75"/>
          <note pos="1152" vol="197" len="12" pan="0" key="75"/>
          <note pos="1152" vol="200" len="12" pan="0" key="0"/>
          <note pos="1164" vol="197" len="12" pan="0" key="71"/>
          <note pos="1176" vol="197" len="12" pan="0" key="73"/>
          <note pos="1188" vol="197" len="12" pan="0" key="75"/>
          <note pos="1200" vol="197" len="12" pan="0" key="77"/>
          <note pos="1212" vol="197" len="12" pan="0" key="73"/>
          <note pos="1224" vol="197" len="12" pan="0" key="75"/>
          <note pos="1236" vol="197" len="12" pan="0" key="77"/>
          <note pos="1248" vol="197" len="12" pan="0" key="78"/>
          <note pos="1260" vol="197" len="12" pan="0" key="75"/>
          <note pos="1272" vol="197" len="12" pan="0" key="77"/>
          <note pos="1284" vol="197" len="12" pan="0" key="78"/>
          <note pos="1296" vol="197" len="12" pan="0" key="80"/>
          <note pos="1308" vol="197" len="12" pan="0" key="77"/>
          <note pos="1320" vol="197" len="12" pan="0" key="78"/>
          <note pos="1332" vol="197" len="12" pan="0" key="80"/>
          <note pos="1344" vol="197" len="12" pan="0" key="82"/>
          <note pos="1356" vol="197" len="12" pan="0" key="80"/>
          <note pos="1368" vol="197" len="12" pan="0" key="78"/>
          <note pos="1380" vol="197" len="12" pan="0" key="77"/>
          <note pos="1392" vol="197" len="12" pan="0" key="75"/>
          <note pos="1404" vol="197" len="12" pan="0" key="77"/>
          <note pos="1416" vol="197" len="12" pan="0" key="80"/>
          <note pos="1428" vol="197" len="12" pan="0" key="78"/>
          <note pos="1440" vol="197" len="12" pan="0" key="77"/>
          <note pos="1440" vol="200" len="12" pan="0" key="0"/>
          <note pos="1452" vol="197" len="12" pan="0" key="75"/>
          <note pos="1464" vol="197" len="12" pan="0" key="73"/>
          <note pos="1476" vol="197" len="12" pan="0" key="75"/>
          <note pos="1488" vol="197" len="12" pan="0" key="78"/>
          <note pos="1500" vol="197" len="12" pan="0" key="77"/>
          <note pos="1512" vol="197" len="12" pan="0" key="75"/>
          <note pos="1524" vol="197" len="12" pan="0" key="73"/>
          <note pos="1536" vol="197" len="12" pan="0" key="71"/>
          <note pos="1548" vol="197" len="12" pan="0" key="73"/>
          <note pos="1560" vol="200" len="12" pan="0" key="77"/>
          <note pos="1572" vol="200" len="12" pan="0" key="75"/>
          <note pos="1584" vol="200" len="12" pan="0" key="73"/>
          <note pos="1596" vol="200" len="12" pan="0" key="71"/>
          <note pos="1608" vol="200" len="12" pan="0" key="70"/>
          <note pos="1620" vol="200" len="12" pan="0" key="71"/>
          <note pos="1632" vol="200" len="12" pan="0" key="75"/>
          <note pos="1644" vol="200" len="12" pan="0" key="73"/>
          <note pos="1656" vol="200" len="12" pan="0" key="71"/>
          <note pos="1668" vol="200" len="12" pan="0" key="70"/>
          <note pos="1680" vol="200" len="12" pan="0" key="73"/>
          <note pos="1692" vol="200" len="12" pan="0" key="71"/>
          <note pos="1704" vol="200" len="12" pan="0" key="70"/>
          <note pos="1716" vol="200" len="12" pan="0" key="71"/>
          <note pos="1728" vol="197" len="192" pan="0" key="82"/>
        </pattern>
      </track>
      <track name="ZynAddSubFX" solo="0" muted="0" type="0">
        <instrumenttrack basenote="57" fxch="15" usemasterpitch="1" pitch="0" vol="60.7" pan="0" pitchrange="1">
          <instrument name="zynaddsubfx">
            <zynaddsubfx forwardmidicc="1" filterq="64" fmgain="127" bandwidth="64" filterfreq="64" resbandwidth="64" portamento="0" rescenterfreq="64" modifiedcontrollers="">
              <ZynAddSubFX-data version-revision="1" version-major="2" ZynAddSubFX-author="Nasca Octavian Paul" version-minor="4">
                <INFORMATION>
                  <par_bool name="PADsynth_used" value="yes"/>
                </INFORMATION>
                <BASE_PARAMETERS>
                  <par name="max_midi_parts" value="16"/>
                  <par name="max_kit_items_per_instrument" value="16"/>
                  <par name="max_system_effects" value="4"/>
                  <par name="max_insertion_effects" value="8"/>
                  <par name="max_instrument_effects" value="3"/>
                  <par name="max_addsynth_voices" value="8"/>
                </BASE_PARAMETERS>
                <MASTER>
                  <par name="volume" value="80"/>
                  <par name="key_shift" value="64"/>
                  <par_bool name="nrpn_receive" value="yes"/>
                  <MICROTONAL>
                    <string name="name">12tET</string>
                    <string name="comment">Equal Temperament 12 notes per octave</string>
                    <par_bool name="invert_up_down" value="no"/>
                    <par name="invert_up_down_center" value="60"/>
                    <par_bool name="enabled" value="no"/>
                    <par name="global_fine_detune" value="64"/>
                    <par name="a_note" value="69"/>
                    <par_real name="a_freq" value="440.000000"/>
                  </MICROTONAL>
                  <PART id="0">
                    <par_bool name="enabled" value="yes"/>
                    <par name="volume" value="96"/>
                    <par name="panning" value="64"/>
                    <par name="min_key" value="0"/>
                    <par name="max_key" value="127"/>
                    <par name="key_shift" value="76"/>
                    <par name="rcv_chn" value="0"/>
                    <par name="velocity_sensing" value="64"/>
                    <par name="velocity_offset" value="64"/>
                    <par_bool name="note_on" value="yes"/>
                    <par_bool name="poly_mode" value="yes"/>
                    <par name="legato_mode" value="0"/>
                    <par name="key_limit" value="15"/>
                    <INSTRUMENT>
                      <INFO>
                        <string name="name">Full Strings</string>
                        <string name="author">Will Godfrey
GPL V 2 or later</string>
                        <string name="comments">Developed from Paul's Strings Pad5</string>
                        <par name="type" value="12"/>
                      </INFO>
                      <INSTRUMENT_KIT>
                        <par name="kit_mode" value="1"/>
                        <par_bool name="drum_mode" value="no"/>
                        <INSTRUMENT_KIT_ITEM id="0">
                          <par_bool name="enabled" value="yes"/>
                          <string name="name"/>
                          <par_bool name="muted" value="no"/>
                          <par name="min_key" value="0"/>
                          <par name="max_key" value="127"/>
                          <par name="send_to_instrument_effect" value="0"/>
                          <par_bool name="add_enabled" value="no"/>
                          <par_bool name="sub_enabled" value="no"/>
                          <par_bool name="pad_enabled" value="yes"/>
                          <PAD_SYNTH_PARAMETERS>
                            <par_bool name="stereo" value="yes"/>
                            <par name="mode" value="0"/>
                            <par name="bandwidth" value="620"/>
                            <par name="bandwidth_scale" value="0"/>
                            <HARMONIC_PROFILE>
                              <par name="base_type" value="0"/>
                              <par name="base_par1" value="99"/>
                              <par name="frequency_multiplier" value="8"/>
                              <par name="modulator_par1" value="0"/>
                              <par name="modulator_frequency" value="55"/>
                              <par name="width" value="127"/>
                              <par name="amplitude_multiplier_type" value="0"/>
                              <par name="amplitude_multiplier_mode" value="2"/>
                              <par name="amplitude_multiplier_par1" value="80"/>
                              <par name="amplitude_multiplier_par2" value="4"/>
                              <par_bool name="autoscale" value="yes"/>
                              <par name="one_half" value="0"/>
                            </HARMONIC_PROFILE>
                            <OSCIL>
                              <par name="harmonic_mag_type" value="0"/>
                              <par name="base_function" value="4"/>
                              <par name="base_function_par" value="51"/>
                              <par name="base_function_modulation" value="0"/>
                              <par name="base_function_modulation_par1" value="64"/>
                              <par name="base_function_modulation_par2" value="64"/>
                              <par name="base_function_modulation_par3" value="32"/>
                              <par name="modulation" value="0"/>
                              <par name="modulation_par1" value="64"/>
                              <par name="modulation_par2" value="64"/>
                              <par name="modulation_par3" value="32"/>
                              <par name="wave_shaping" value="64"/>
                              <par name="wave_shaping_function" value="0"/>
                              <par name="filter_type" value="0"/>
                              <par name="filter_par1" value="37"/>
                              <par name="filter_par2" value="64"/>
                              <par name="filter_before_wave_shaping" value="0"/>
                              <par name="spectrum_adjust_type" value="0"/>
                              <par name="spectrum_adjust_par" value="64"/>
                              <par name="rand" value="64"/>
                              <par name="amp_rand_type" value="0"/>
                              <par name="amp_rand_power" value="64"/>
                              <par name="harmonic_shift" value="0"/>
                              <par_bool name="harmonic_shift_first" value="no"/>
                              <par name="adaptive_harmonics" value="0"/>
                              <par name="adaptive_harmonics_base_frequency" value="128"/>
                              <par name="adaptive_harmonics_power" value="100"/>
                              <HARMONICS>
                                <HARMONIC id="1">
                                  <par name="mag" value="83"/>
                                  <par name="phase" value="64"/>
                                </HARMONIC>
                                <HARMONIC id="2">
                                  <par name="mag" value="127"/>
                                  <par name="phase" value="64"/>
                                </HARMONIC>
                              </HARMONICS>
                            </OSCIL>
                            <RESONANCE>
                              <par_bool name="enabled" value="no"/>
                            </RESONANCE>
                            <HARMONIC_POSITION>
                              <par name="type" value="0"/>
                              <par name="parameter1" value="255"/>
                              <par name="parameter2" value="64"/>
                              <par name="parameter3" value="0"/>
                            </HARMONIC_POSITION>
                            <SAMPLE_QUALITY>
                              <par name="samplesize" value="4"/>
                              <par name="basenote" value="4"/>
                              <par name="octaves" value="5"/>
                              <par name="samples_per_octave" value="2"/>
                            </SAMPLE_QUALITY>
                            <AMPLITUDE_PARAMETERS>
                              <par name="volume" value="94"/>
                              <par name="panning" value="67"/>
                              <par name="velocity_sensing" value="70"/>
                              <par name="punch_strength" value="0"/>
                              <par name="punch_time" value="60"/>
                              <par name="punch_stretch" value="64"/>
                              <par name="punch_velocity_sensing" value="72"/>
                              <AMPLITUDE_ENVELOPE>
                                <par_bool name="free_mode" value="no"/>
                                <par name="env_points" value="4"/>
                                <par name="env_sustain" value="2"/>
                                <par name="env_stretch" value="0"/>
                                <par_bool name="forced_release" value="no"/>
                                <par_bool name="linear_envelope" value="no"/>
                                <par name="A_dt" value="12"/>
                                <par name="D_dt" value="39"/>
                                <par name="R_dt" value="71"/>
                                <par name="A_val" value="64"/>
                                <par name="D_val" value="64"/>
                                <par name="S_val" value="127"/>
                                <par name="R_val" value="64"/>
                              </AMPLITUDE_ENVELOPE>
                              <AMPLITUDE_LFO>
                                <par_real name="freq" value="0.629921"/>
                                <par name="intensity" value="0"/>
                                <par name="start_phase" value="64"/>
                                <par name="lfo_type" value="0"/>
                                <par name="randomness_amplitude" value="0"/>
                                <par name="randomness_frequency" value="0"/>
                                <par name="delay" value="0"/>
                                <par name="stretch" value="64"/>
                                <par_bool name="continous" value="no"/>
                              </AMPLITUDE_LFO>
                            </AMPLITUDE_PARAMETERS>
                            <FREQUENCY_PARAMETERS>
                              <par name="fixed_freq" value="0"/>
                              <par name="fixed_freq_et" value="0"/>
                              <par name="detune" value="8192"/>
                              <par name="coarse_detune" value="15360"/>
                              <par name="detune_type" value="1"/>
                              <FREQUENCY_ENVELOPE>
                                <par_bool name="free_mode" value="no"/>
                                <par name="env_points" value="3"/>
                                <par name="env_sustain" value="1"/>
                                <par name="env_stretch" value="0"/>
                                <par_bool name="forced_release" value="no"/>
                                <par_bool name="linear_envelope" value="no"/>
                                <par name="A_dt" value="50"/>
                                <par name="D_dt" value="10"/>
                                <par name="R_dt" value="60"/>
                                <par name="A_val" value="64"/>
                                <par name="D_val" value="64"/>
                                <par name="S_val" value="64"/>
                                <par name="R_val" value="64"/>
                              </FREQUENCY_ENVELOPE>
                              <FREQUENCY_LFO>
                                <par_real name="freq" value="0.621181"/>
                                <par name="intensity" value="0"/>
                                <par name="start_phase" value="64"/>
                                <par name="lfo_type" value="0"/>
                                <par name="randomness_amplitude" value="0"/>
                                <par name="randomness_frequency" value="0"/>
                                <par name="delay" value="0"/>
                                <par name="stretch" value="64"/>
                                <par_bool name="continous" value="no"/>
                              </FREQUENCY_LFO>
                            </FREQUENCY_PARAMETERS>
                            <FILTER_PARAMETERS>
                              <par name="velocity_sensing_amplitude" value="25"/>
                              <par name="velocity_sensing" value="64"/>
                              <FILTER>
                                <par name="category" value="0"/>
                                <par name="type" value="2"/>
                                <par name="freq" value="99"/>
                                <par name="q" value="28"/>
                                <par name="stages" value="1"/>
                                <par name="freq_track" value="97"/>
                                <par name="gain" value="64"/>
                              </FILTER>
                              <FILTER_ENVELOPE>
                                <par_bool name="free_mode" value="no"/>
                                <par name="env_points" value="4"/>
                                <par name="env_sustain" value="2"/>
                                <par name="env_stretch" value="0"/>
                                <par_bool name="forced_release" value="yes"/>
                                <par_bool name="linear_envelope" value="no"/>
                                <par name="A_dt" value="17"/>
                                <par name="D_dt" value="70"/>
                                <par name="R_dt" value="98"/>
                                <par name="A_val" value="37"/>
                                <par name="D_val" value="64"/>
                                <par name="S_val" value="64"/>
                                <par name="R_val" value="43"/>
                              </FILTER_ENVELOPE>
                              <FILTER_LFO>
                                <par_real name="freq" value="0.629921"/>
                                <par name="intensity" value="0"/>
                                <par name="start_phase" value="64"/>
                                <par name="lfo_type" value="0"/>
                                <par name="randomness_amplitude" value="0"/>
                                <par name="randomness_frequency" value="0"/>
                                <par name="delay" value="0"/>
                                <par name="stretch" value="64"/>
                                <par_bool name="continous" value="no"/>
                              </FILTER_LFO>
                            </FILTER_PARAMETERS>
                          </PAD_SYNTH_PARAMETERS>
                        </INSTRUMENT_KIT_ITEM>
                        <INSTRUMENT_KIT_ITEM id="1">
                          <par_bool name="enabled" value="no"/>
                        </INSTRUMENT_KIT_ITEM>
                        <INSTRUMENT_KIT_ITEM id="2">
                          <par_bool name="enabled" value="no"/>
                        </INSTRUMENT_KIT_ITEM>
                        <INSTRUMENT_KIT_ITEM id="3">
                          <par_bool name="enabled" value="no"/>
                        </INSTRUMENT_KIT_ITEM>
                        <INSTRUMENT_KIT_ITEM id="4">
                          <par_bool name="enabled" value="no"/>
                        </INSTRUMENT_KIT_ITEM>
                        <INSTRUMENT_KIT_ITEM id="5">
                          <par_bool name="enabled" value="no"/>
                        </INSTRUMENT_KIT_ITEM>
                        <INSTRUMENT_KIT_ITEM id="6">
                          <par_bool name="enabled" value="no"/>
                        </INSTRUMENT_KIT_ITEM>
                        <INSTRUMENT_KIT_ITEM id="7">
                          <par_bool name="enabled" value="no"/>
                        </INSTRUMENT_KIT_ITEM>
                        <INSTRUMENT_KIT_ITEM id="8">
                          <par_bool name="enabled" value="no"/>
                        </INSTRUMENT_KIT_ITEM>
                        <INSTRUMENT_KIT_ITEM id="9">
                          <par_bool name="enabled" value="no"/>
                        </INSTRUMENT_KIT_ITEM>
                        <INSTRUMENT_KIT_ITEM id="10">
                          <par_bool name="enabled" value="no"/>
                        </INSTRUMENT_KIT_ITEM>
                        <INSTRUMENT_KIT_ITEM id="11">
                          <par_bool name="enabled" value="no"/>
                        </INSTRUMENT_KIT_ITEM>
                        <INSTRUMENT_KIT_ITEM id="12">
                          <par_bool name="enabled" value="no"/>
                        </INSTRUMENT_KIT_ITEM>
                        <INSTRUMENT_KIT_ITEM id="13">
                          <par_bool name="enabled" value="no"/>
                        </INSTRUMENT_KIT_ITEM>
                        <INSTRUMENT_KIT_ITEM id="14">
                          <par_bool name="enabled" value="no"/>
                        </INSTRUMENT_KIT_ITEM>
                        <INSTRUMENT_KIT_ITEM id="15">
                          <par_bool name="enabled" value="no"/>
                        </INSTRUMENT_KIT_ITEM>
                      </INSTRUMENT_KIT>
                      <INSTRUMENT_EFFECTS>
                        <INSTRUMENT_EFFECT id="0">
                          <EFFECT>
                            <par name="type" value="3"/>
                            <par name="preset" value="0"/>
                            <EFFECT_PARAMETERS>
                              <par_no id="0">
                                <par name="par" value="64"/>
                              </par_no>
                              <par_no id="1">
                                <par name="par" value="64"/>
                              </par_no>
                              <par_no id="2">
                                <par name="par" value="50"/>
                              </par_no>
                              <par_no id="5">
                                <par name="par" value="90"/>
                              </par_no>
                              <par_no id="6">
                                <par name="par" value="40"/>
                              </par_no>
                              <par_no id="7">
                                <par name="par" value="85"/>
                              </par_no>
                              <par_no id="8">
                                <par name="par" value="67"/>
                              </par_no>
                              <par_no id="9">
                                <par name="par" value="119"/>
                              </par_no>
                            </EFFECT_PARAMETERS>
                          </EFFECT>
                          <par name="route" value="0"/>
                          <par_bool name="bypass" value="no"/>
                        </INSTRUMENT_EFFECT>
                        <INSTRUMENT_EFFECT id="1">
                          <EFFECT>
                            <par name="type" value="1"/>
                            <par name="preset" value="0"/>
                            <EFFECT_PARAMETERS>
                              <par_no id="0">
                                <par name="par" value="40"/>
                              </par_no>
                              <par_no id="1">
                                <par name="par" value="64"/>
                              </par_no>
                              <par_no id="2">
                                <par name="par" value="85"/>
                              </par_no>
                              <par_no id="3">
                                <par name="par" value="23"/>
                              </par_no>
                              <par_no id="7">
                                <par name="par" value="85"/>
                              </par_no>
                              <par_no id="8">
                                <par name="par" value="5"/>
                              </par_no>
                              <par_no id="9">
                                <par name="par" value="83"/>
                              </par_no>
                              <par_no id="10">
                                <par name="par" value="1"/>
                              </par_no>
                              <par_no id="11">
                                <par name="par" value="64"/>
                              </par_no>
                            </EFFECT_PARAMETERS>
                          </EFFECT>
                          <par name="route" value="0"/>
                          <par_bool name="bypass" value="yes"/>
                        </INSTRUMENT_EFFECT>
                        <INSTRUMENT_EFFECT id="2">
                          <EFFECT>
                            <par name="type" value="0"/>
                          </EFFECT>
                          <par name="route" value="0"/>
                          <par_bool name="bypass" value="no"/>
                        </INSTRUMENT_EFFECT>
                      </INSTRUMENT_EFFECTS>
                    </INSTRUMENT>
                    <CONTROLLER>
                      <par name="pitchwheel_bendrange" value="100"/>
                      <par_bool name="expression_receive" value="yes"/>
                      <par name="panning_depth" value="64"/>
                      <par name="filter_cutoff_depth" value="64"/>
                      <par name="filter_q_depth" value="64"/>
                      <par name="bandwidth_depth" value="64"/>
                      <par name="mod_wheel_depth" value="80"/>
                      <par_bool name="mod_wheel_exponential" value="no"/>
                      <par_bool name="fm_amp_receive" value="yes"/>
                      <par_bool name="volume_receive" value="yes"/>
                      <par_bool name="sustain_receive" value="yes"/>
                      <par_bool name="portamento_receive" value="yes"/>
                      <par name="portamento_time" value="64"/>
                      <par name="portamento_pitchthresh" value="3"/>
                      <par name="portamento_pitchthreshtype" value="1"/>
                      <par name="portamento_portamento" value="0"/>
                      <par name="portamento_updowntimestretch" value="64"/>
                      <par name="portamento_proportional" value="0"/>
                      <par name="portamento_proprate" value="80"/>
                      <par name="portamento_propdepth" value="90"/>
                      <par name="resonance_center_depth" value="64"/>
                      <par name="resonance_bandwidth_depth" value="64"/>
                    </CONTROLLER>
                  </PART>
                  <PART id="1">
                    <par_bool name="enabled" value="no"/>
                  </PART>
                  <PART id="2">
                    <par_bool name="enabled" value="no"/>
                  </PART>
                  <PART id="3">
                    <par_bool name="enabled" value="no"/>
                  </PART>
                  <PART id="4">
                    <par_bool name="enabled" value="no"/>
                  </PART>
                  <PART id="5">
                    <par_bool name="enabled" value="no"/>
                  </PART>
                  <PART id="6">
                    <par_bool name="enabled" value="no"/>
                  </PART>
                  <PART id="7">
                    <par_bool name="enabled" value="no"/>
                  </PART>
                  <PART id="8">
                    <par_bool name="enabled" value="no"/>
                  </PART>
                  <PART id="9">
                    <par_bool name="enabled" value="no"/>
                  </PART>
                  <PART id="10">
                    <par_bool name="enabled" value="no"/>
                  </PART>
                  <PART id="11">
                    <par_bool name="enabled" value="no"/>
                  </PART>
                  <PART id="12">
                    <par_bool name="enabled" value="no"/>
                  </PART>
                  <PART id="13">
                    <par_bool name="enabled" value="no"/>
                  </PART>
                  <PART id="14">
                    <par_bool name="enabled" value="no"/>
                  </PART>
                  <PART id="15">
                    <par_bool name="enabled" value="no"/>
                  </PART>
                  <SYSTEM_EFFECTS>
                    <SYSTEM_EFFECT id="0">
                      <EFFECT>
                        <par name="type" value="0"/>
                      </EFFECT>
                      <VOLUME id="0">
                        <par name="vol" value="0"/>
                      </VOLUME>
                      <VOLUME id="1">
                        <par name="vol" value="0"/>
                      </VOLUME>
                      <VOLUME id="2">
                        <par name="vol" value="0"/>
                      </VOLUME>
                      <VOLUME id="3">
                        <par name="vol" value="0"/>
                      </VOLUME>
                      <VOLUME id="4">
                        <par name="vol" value="0"/>
                      </VOLUME>
                      <VOLUME id="5">
                        <par name="vol" value="0"/>
                      </VOLUME>
                      <VOLUME id="6">
                        <par name="vol" value="0"/>
                      </VOLUME>
                      <VOLUME id="7">
                        <par name="vol" value="0"/>
                      </VOLUME>
                      <VOLUME id="8">
                        <par name="vol" value="0"/>
                      </VOLUME>
                      <VOLUME id="9">
                        <par name="vol" value="0"/>
                      </VOLUME>
                      <VOLUME id="10">
                        <par name="vol" value="0"/>
                      </VOLUME>
                      <VOLUME id="11">
                        <par name="vol" value="0"/>
                      </VOLUME>
                      <VOLUME id="12">
                        <par name="vol" value="0"/>
                      </VOLUME>
                      <VOLUME id="13">
                        <par name="vol" value="0"/>
                      </VOLUME>
                      <VOLUME id="14">
                        <par name="vol" value="0"/>
                      </VOLUME>
                      <VOLUME id="15">
                        <par name="vol" value="0"/>
                      </VOLUME>
                      <SENDTO id="1">
                        <par name="send_vol" value="0"/>
                      </SENDTO>
                      <SENDTO id="2">
                        <par name="send_vol" value="0"/>
                      </SENDTO>
                      <SENDTO id="3">
                        <par name="send_vol" value="0"/>
                      </SENDTO>
                    </SYSTEM_EFFECT>
                    <SYSTEM_EFFECT id="1">
                      <EFFECT>
                        <par name="type" value="0"/>
                      </EFFECT>
                      <VOLUME id="0">
                        <par name="vol" value="0"/>
                      </VOLUME>
                      <VOLUME id="1">
                        <par name="vol" value="0"/>
                      </VOLUME>
                      <VOLUME id="2">
                        <par name="vol" value="0"/>
                      </VOLUME>
                      <VOLUME id="3">
                        <par name="vol" value="0"/>
                      </VOLUME>
                      <VOLUME id="4">
                        <par name="vol" value="0"/>
                      </VOLUME>
                      <VOLUME id="5">
                        <par name="vol" value="0"/>
                      </VOLUME>
                      <VOLUME id="6">
                        <par name="vol" value="0"/>
                      </VOLUME>
                      <VOLUME id="7">
                        <par name="vol" value="0"/>
                      </VOLUME>
                      <VOLUME id="8">
                        <par name="vol" value="0"/>
                      </VOLUME>
                      <VOLUME id="9">
                        <par name="vol" value="0"/>
                      </VOLUME>
                      <VOLUME id="10">
                        <par name="vol" value="0"/>
                      </VOLUME>
                      <VOLUME id="11">
                        <par name="vol" value="0"/>
                      </VOLUME>
                      <VOLUME id="12">
                        <par name="vol" value="0"/>
                      </VOLUME>
                      <VOLUME id="13">
                        <par name="vol" value="0"/>
                      </VOLUME>
                      <VOLUME id="14">
                        <par name="vol" value="0"/>
                      </VOLUME>
                      <VOLUME id="15">
                        <par name="vol" value="0"/>
                      </VOLUME>
                      <SENDTO id="2">
                        <par name="send_vol" value="0"/>
                      </SENDTO>
                      <SENDTO id="3">
                        <par name="send_vol" value="0"/>
                      </SENDTO>
                    </SYSTEM_EFFECT>
                    <SYSTEM_EFFECT id="2">
                      <EFFECT>
                        <par name="type" value="0"/>
                      </EFFECT>
                      <VOLUME id="0">
                        <par name="vol" value="0"/>
                      </VOLUME>
                      <VOLUME id="1">
                        <par name="vol" value="0"/>
                      </VOLUME>
                      <VOLUME id="2">
                        <par name="vol" value="0"/>
                      </VOLUME>
                      <VOLUME id="3">
                        <par name="vol" value="0"/>
                      </VOLUME>
                      <VOLUME id="4">
                        <par name="vol" value="0"/>
                      </VOLUME>
                      <VOLUME id="5">
                        <par name="vol" value="0"/>
                      </VOLUME>
                      <VOLUME id="6">
                        <par name="vol" value="0"/>
                      </VOLUME>
                      <VOLUME id="7">
                        <par name="vol" value="0"/>
                      </VOLUME>
                      <VOLUME id="8">
                        <par name="vol" value="0"/>
                      </VOLUME>
                      <VOLUME id="9">
                        <par name="vol" value="0"/>
                      </VOLUME>
                      <VOLUME id="10">
                        <par name="vol" value="0"/>
                      </VOLUME>
                      <VOLUME id="11">
                        <par name="vol" value="0"/>
                      </VOLUME>
                      <VOLUME id="12">
                        <par name="vol" value="0"/>
                      </VOLUME>
                      <VOLUME id="13">
                        <par name="vol" value="0"/>
                      </VOLUME>
                      <VOLUME id="14">
                        <par name="vol" value="0"/>
                      </VOLUME>
                      <VOLUME id="15">
                        <par name="vol" value="0"/>
                      </VOLUME>
                      <SENDTO id="3">
                        <par name="send_vol" value="0"/>
                      </SENDTO>
                    </SYSTEM_EFFECT>
                    <SYSTEM_EFFECT id="3">
                      <EFFECT>
                        <par name="type" value="0"/>
                      </EFFECT>
                      <VOLUME id="0">
                        <par name="vol" value="0"/>
                      </VOLUME>
                      <VOLUME id="1">
                        <par name="vol" value="0"/>
                      </VOLUME>
                      <VOLUME id="2">
                        <par name="vol" value="0"/>
                      </VOLUME>
                      <VOLUME id="3">
                        <par name="vol" value="0"/>
                      </VOLUME>
                      <VOLUME id="4">
                        <par name="vol" value="0"/>
                      </VOLUME>
                      <VOLUME id="5">
                        <par name="vol" value="0"/>
                      </VOLUME>
                      <VOLUME id="6">
                        <par name="vol" value="0"/>
                      </VOLUME>
                      <VOLUME id="7">
                        <par name="vol" value="0"/>
                      </VOLUME>
                      <VOLUME id="8">
                        <par name="vol" value="0"/>
                      </VOLUME>
                      <VOLUME id="9">
                        <par name="vol" value="0"/>
                      </VOLUME>
                      <VOLUME id="10">
                        <par name="vol" value="0"/>
                      </VOLUME>
                      <VOLUME id="11">
                        <par name="vol" value="0"/>
                      </VOLUME>
                      <VOLUME id="12">
                        <par name="vol" value="0"/>
                      </VOLUME>
                      <VOLUME id="13">
                        <par name="vol" value="0"/>
                      </VOLUME>
                      <VOLUME id="14">
                        <par name="vol" value="0"/>
                      </VOLUME>
                      <VOLUME id="15">
                        <par name="vol" value="0"/>
                      </VOLUME>
                    </SYSTEM_EFFECT>
                  </SYSTEM_EFFECTS>
                  <INSERTION_EFFECTS>
                    <INSERTION_EFFECT id="0">
                      <par name="part" value="-1"/>
                      <EFFECT>
                        <par name="type" value="0"/>
                      </EFFECT>
                    </INSERTION_EFFECT>
                    <INSERTION_EFFECT id="1">
                      <par name="part" value="-1"/>
                      <EFFECT>
                        <par name="type" value="0"/>
                      </EFFECT>
                    </INSERTION_EFFECT>
                    <INSERTION_EFFECT id="2">
                      <par name="part" value="-1"/>
                      <EFFECT>
                        <par name="type" value="0"/>
                      </EFFECT>
                    </INSERTION_EFFECT>
                    <INSERTION_EFFECT id="3">
                      <par name="part" value="-1"/>
                      <EFFECT>
                        <par name="type" value="0"/>
                      </EFFECT>
                    </INSERTION_EFFECT>
                    <INSERTION_EFFECT id="4">
                      <par name="part" value="-1"/>
                      <EFFECT>
                        <par name="type" value="0"/>
                      </EFFECT>
                    </INSERTION_EFFECT>
                    <INSERTION_EFFECT id="5">
                      <par name="part" value="-1"/>
                      <EFFECT>
                        <par name="type" value="0"/>
                      </EFFECT>
                    </INSERTION_EFFECT>
                    <INSERTION_EFFECT id="6">
                      <par name="part" value="-1"/>
                      <EFFECT>
                        <par name="type" value="0"/>
                      </EFFECT>
                    </INSERTION_EFFECT>
                    <INSERTION_EFFECT id="7">
                      <par name="part" value="-1"/>
                      <EFFECT>
                        <par name="type" value="0"/>
                      </EFFECT>
                    </INSERTION_EFFECT>
                  </INSERTION_EFFECTS>
                </MASTER>
              </ZynAddSubFX-data>
            </zynaddsubfx>
          </instrument>
          <eldata fwet="0" fcut="14000" ftype="0" fres="0.5">
            <elvol x100="0" userwavefile="" dec="0.5" amt="0" pdel="0" hold="0.5" lamt="0" lpdel="0" lshp="0" lspd_denominator="4" att="0" ctlenvamt="0" lspd="0.1" lspd_syncmode="0" rel="0.1" latt="0" lspd_numerator="4" sustain="0.5"/>
            <elcut x100="0" userwavefile="" dec="0.5" amt="0" pdel="0" hold="0.5" lamt="0" lpdel="0" lshp="0" lspd_denominator="4" att="0" ctlenvamt="0" lspd="0.1" lspd_syncmode="0" rel="0.1" latt="0" lspd_numerator="4" sustain="0.5"/>
            <elres x100="0" userwavefile="" dec="0.5" amt="0" pdel="0" hold="0.5" lamt="0" lpdel="0" lshp="0" lspd_denominator="4" att="0" ctlenvamt="0" lspd="0.1" lspd_syncmode="0" rel="0.1" latt="0" lspd_numerator="4" sustain="0.5"/>
          </eldata>
          <chordcreator chord-enabled="0" chord="0" chordrange="1"/>
          <arpeggiator arprange="1" arpmode="0" arp="0" arptime_numerator="4" arpmiss="0" arptime_denominator="4" arpcycle="0" arpskip="0" arptime_syncmode="0" arpgate="100" arptime="200" arpdir="0" arp-enabled="0"/>
          <midiport fixedoutputnote="-1" outputprogram="1" inputcontroller="0" writable="0" fixedoutputvelocity="-1" readable="0" outputchannel="1" basevelocity="63" outputcontroller="0" fixedinputvelocity="-1" inputchannel="0"/>
          <fxchain numofeffects="0" enabled="0"/>
        </instrumenttrack>
        <pattern name="" steps="16" pos="0" muted="0" type="1">
          <note pos="0" vol="193" len="384" pan="0" key="61"/>
          <note pos="192" vol="193" len="192" pan="0" key="68"/>
          <note pos="384" vol="193" len="384" pan="0" key="64"/>
          <note pos="384" vol="193" len="384" pan="0" key="61"/>
          <note pos="384" vol="193" len="384" pan="0" key="52"/>
          <note pos="768" vol="193" len="384" pan="0" key="63"/>
          <note pos="768" vol="193" len="384" pan="0" key="59"/>
          <note pos="768" vol="193" len="384" pan="0" key="56"/>
          <note pos="1152" vol="193" len="384" pan="0" key="61"/>
          <note pos="1152" vol="193" len="384" pan="0" key="56"/>
          <note pos="1152" vol="193" len="384" pan="0" key="49"/>
          <note pos="1536" vol="193" len="384" pan="0" key="59"/>
          <note pos="1536" vol="193" len="384" pan="0" key="57"/>
          <note pos="1536" vol="193" len="384" pan="0" key="49"/>
          <note pos="1920" vol="193" len="24" pan="0" key="64"/>
          <note pos="1920" vol="193" len="24" pan="0" key="61"/>
          <note pos="1920" vol="193" len="24" pan="0" key="56"/>
          <note pos="1992" vol="193" len="24" pan="0" key="64"/>
          <note pos="1992" vol="193" len="24" pan="0" key="61"/>
          <note pos="1992" vol="193" len="24" pan="0" key="56"/>
          <note pos="2064" vol="193" len="24" pan="0" key="64"/>
          <note pos="2064" vol="193" len="24" pan="0" key="61"/>
          <note pos="2064" vol="193" len="24" pan="0" key="56"/>
          <note pos="2136" vol="193" len="24" pan="0" key="64"/>
          <note pos="2136" vol="193" len="24" pan="0" key="61"/>
          <note pos="2136" vol="193" len="24" pan="0" key="56"/>
          <note pos="2208" vol="193" len="24" pan="0" key="64"/>
          <note pos="2208" vol="193" len="24" pan="0" key="61"/>
          <note pos="2208" vol="193" len="24" pan="0" key="56"/>
          <note pos="2232" vol="193" len="24" pan="0" key="64"/>
          <note pos="2232" vol="193" len="24" pan="0" key="61"/>
          <note pos="2232" vol="193" len="24" pan="0" key="56"/>
          <note pos="2280" vol="193" len="24" pan="0" key="64"/>
          <note pos="2280" vol="193" len="24" pan="0" key="61"/>
          <note pos="2280" vol="193" len="24" pan="0" key="56"/>
          <note pos="2304" vol="193" len="24" pan="0" key="63"/>
          <note pos="2304" vol="193" len="24" pan="0" key="59"/>
          <note pos="2304" vol="193" len="24" pan="0" key="56"/>
          <note pos="2376" vol="193" len="24" pan="0" key="63"/>
          <note pos="2376" vol="193" len="24" pan="0" key="59"/>
          <note pos="2376" vol="193" len="24" pan="0" key="56"/>
          <note pos="2448" vol="193" len="24" pan="0" key="63"/>
          <note pos="2448" vol="193" len="24" pan="0" key="59"/>
          <note pos="2448" vol="193" len="24" pan="0" key="56"/>
          <note pos="2520" vol="193" len="24" pan="0" key="63"/>
          <note pos="2520" vol="193" len="24" pan="0" key="59"/>
          <note pos="2520" vol="193" len="24" pan="0" key="56"/>
          <note pos="2592" vol="193" len="24" pan="0" key="63"/>
          <note pos="2592" vol="193" len="24" pan="0" key="59"/>
          <note pos="2592" vol="193" len="24" pan="0" key="56"/>
          <note pos="2616" vol="193" len="24" pan="0" key="63"/>
          <note pos="2616" vol="193" len="24" pan="0" key="59"/>
          <note pos="2616" vol="193" len="24" pan="0" key="56"/>
          <note pos="2664" vol="193" len="24" pan="0" key="63"/>
          <note pos="2664" vol="193" len="24" pan="0" key="59"/>
          <note pos="2664" vol="193" len="24" pan="0" key="56"/>
          <note pos="2688" vol="193" len="24" pan="0" key="61"/>
          <note pos="2688" vol="193" len="24" pan="0" key="58"/>
          <note pos="2760" vol="193" len="24" pan="0" key="61"/>
          <note pos="2760" vol="193" len="24" pan="0" key="58"/>
          <note pos="2832" vol="193" len="24" pan="0" key="61"/>
          <note pos="2832" vol="193" len="24" pan="0" key="58"/>
          <note pos="2904" vol="193" len="24" pan="0" key="61"/>
          <note pos="2904" vol="193" len="24" pan="0" key="58"/>
          <note pos="2976" vol="193" len="24" pan="0" key="61"/>
          <note pos="2976" vol="193" len="24" pan="0" key="58"/>
          <note pos="3000" vol="193" len="24" pan="0" key="61"/>
          <note pos="3000" vol="193" len="24" pan="0" key="58"/>
          <note pos="3048" vol="193" len="24" pan="0" key="61"/>
          <note pos="3048" vol="193" len="24" pan="0" key="58"/>
          <note pos="3072" vol="193" len="24" pan="0" key="61"/>
          <note pos="3072" vol="193" len="24" pan="0" key="57"/>
          <note pos="3144" vol="193" len="24" pan="0" key="61"/>
          <note pos="3144" vol="193" len="24" pan="0" key="57"/>
          <note pos="3216" vol="193" len="24" pan="0" key="61"/>
          <note pos="3216" vol="193" len="24" pan="0" key="57"/>
        </pattern>
        <pattern name="" steps="16" pos="8064" muted="0" type="1">
          <note pos="0" vol="197" len="192" pan="0" key="68"/>
          <note pos="0" vol="197" len="192" pan="0" key="64"/>
          <note pos="0" vol="197" len="192" pan="0" key="61"/>
          <note pos="192" vol="197" len="192" pan="0" key="68"/>
          <note pos="192" vol="197" len="192" pan="0" key="63"/>
          <note pos="192" vol="197" len="192" pan="0" key="59"/>
          <note pos="384" vol="197" len="192" pan="0" key="69"/>
          <note pos="384" vol="197" len="192" pan="0" key="64"/>
          <note pos="384" vol="197" len="192" pan="0" key="61"/>
          <note pos="576" vol="197" len="192" pan="0" key="71"/>
          <note pos="576" vol="197" len="192" pan="0" key="66"/>
          <note pos="576" vol="197" len="192" pan="0" key="63"/>
          <note pos="768" vol="197" len="192" pan="0" key="73"/>
          <note pos="768" vol="197" len="192" pan="0" key="69"/>
          <note pos="768" vol="197" len="192" pan="0" key="66"/>
          <note pos="960" vol="197" len="192" pan="0" key="75"/>
          <note pos="960" vol="197" len="192" pan="0" key="71"/>
          <note pos="960" vol="197" len="192" pan="0" key="68"/>
          <note pos="1152" vol="197" len="192" pan="0" key="76"/>
          <note pos="1152" vol="197" len="192" pan="0" key="73"/>
          <note pos="1152" vol="197" len="192" pan="0" key="69"/>
          <note pos="1344" vol="197" len="192" pan="0" key="75"/>
          <note pos="1344" vol="197" len="192" pan="0" key="71"/>
          <note pos="1344" vol="197" len="192" pan="0" key="66"/>
          <note pos="1536" vol="197" len="192" pan="0" key="76"/>
          <note pos="1536" vol="197" len="192" pan="0" key="73"/>
          <note pos="1536" vol="197" len="192" pan="0" key="68"/>
          <note pos="1728" vol="197" len="192" pan="0" key="75"/>
          <note pos="1728" vol="197" len="192" pan="0" key="71"/>
          <note pos="1728" vol="197" len="192" pan="0" key="66"/>
          <note pos="1920" vol="197" len="384" pan="0" key="73"/>
          <note pos="1920" vol="197" len="384" pan="0" key="70"/>
          <note pos="1920" vol="197" len="384" pan="0" key="66"/>
          <note pos="2304" vol="197" len="192" pan="0" key="74"/>
          <note pos="2304" vol="197" len="192" pan="0" key="69"/>
          <note pos="2304" vol="197" len="192" pan="0" key="66"/>
          <note pos="2496" vol="197" len="192" pan="0" key="73"/>
          <note pos="2496" vol="197" len="192" pan="0" key="69"/>
          <note pos="2496" vol="197" len="192" pan="0" key="64"/>
          <note pos="2688" vol="197" len="384" pan="0" key="75"/>
          <note pos="2688" vol="197" len="384" pan="0" key="71"/>
          <note pos="2688" vol="197" len="384" pan="0" key="66"/>
        </pattern>
        <pattern name="" steps="16" pos="15744" muted="0" type="1">
          <note pos="0" vol="197" len="192" pan="0" key="68"/>
          <note pos="0" vol="197" len="192" pan="0" key="64"/>
          <note pos="0" vol="197" len="192" pan="0" key="61"/>
          <note pos="192" vol="197" len="192" pan="0" key="68"/>
          <note pos="192" vol="197" len="192" pan="0" key="63"/>
          <note pos="192" vol="197" len="192" pan="0" key="59"/>
          <note pos="384" vol="197" len="192" pan="0" key="69"/>
          <note pos="384" vol="197" len="192" pan="0" key="64"/>
          <note pos="384" vol="197" len="192" pan="0" key="61"/>
          <note pos="576" vol="197" len="192" pan="0" key="71"/>
          <note pos="576" vol="197" len="192" pan="0" key="66"/>
          <note pos="576" vol="197" len="192" pan="0" key="63"/>
          <note pos="768" vol="197" len="192" pan="0" key="73"/>
          <note pos="768" vol="197" len="192" pan="0" key="69"/>
          <note pos="768" vol="197" len="192" pan="0" key="66"/>
          <note pos="960" vol="197" len="192" pan="0" key="75"/>
          <note pos="960" vol="197" len="192" pan="0" key="71"/>
          <note pos="960" vol="197" len="192" pan="0" key="68"/>
          <note pos="1152" vol="197" len="192" pan="0" key="76"/>
          <note pos="1152" vol="197" len="192" pan="0" key="73"/>
          <note pos="1152" vol="197" len="192" pan="0" key="69"/>
          <note pos="1344" vol="197" len="96" pan="0" key="75"/>
          <note pos="1344" vol="197" len="96" pan="0" key="71"/>
          <note pos="1344" vol="197" len="96" pan="0" key="66"/>
          <note pos="1440" vol="197" len="96" pan="0" key="75"/>
          <note pos="1440" vol="197" len="96" pan="0" key="72"/>
          <note pos="1440" vol="197" len="96" pan="0" key="66"/>
          <note pos="1536" vol="197" len="192" pan="0" key="76"/>
          <note pos="1536" vol="197" len="192" pan="0" key="73"/>
          <note pos="1536" vol="197" len="192" pan="0" key="68"/>
          <note pos="1728" vol="197" len="192" pan="0" key="75"/>
          <note pos="1728" vol="197" len="192" pan="0" key="71"/>
          <note pos="1728" vol="197" len="192" pan="0" key="66"/>
          <note pos="1920" vol="197" len="384" pan="0" key="73"/>
          <note pos="1920" vol="197" len="384" pan="0" key="70"/>
          <note pos="1920" vol="197" len="384" pan="0" key="66"/>
          <note pos="2304" vol="197" len="192" pan="0" key="74"/>
          <note pos="2304" vol="197" len="192" pan="0" key="69"/>
          <note pos="2304" vol="197" len="192" pan="0" key="66"/>
          <note pos="2496" vol="197" len="192" pan="0" key="73"/>
          <note pos="2496" vol="197" len="192" pan="0" key="69"/>
          <note pos="2496" vol="197" len="192" pan="0" key="64"/>
          <note pos="2688" vol="197" len="216" pan="0" key="75"/>
          <note pos="2688" vol="197" len="216" pan="0" key="71"/>
          <note pos="2688" vol="197" len="216" pan="0" key="66"/>
          <note pos="2976" vol="197" len="24" pan="0" key="78"/>
          <note pos="2976" vol="197" len="24" pan="0" key="75"/>
          <note pos="2976" vol="197" len="24" pan="0" key="71"/>
        </pattern>
        <pattern name="" steps="16" pos="11136" muted="0" type="1">
          <note pos="0" vol="197" len="384" pan="0" key="73"/>
          <note pos="0" vol="197" len="384" pan="0" key="68"/>
          <note pos="0" vol="197" len="384" pan="0" key="64"/>
          <note pos="384" vol="197" len="384" pan="0" key="74"/>
          <note pos="384" vol="197" len="384" pan="0" key="69"/>
          <note pos="384" vol="197" len="384" pan="0" key="66"/>
        </pattern>
        <pattern name="" steps="16" pos="11904" muted="0" type="1">
          <note pos="0" vol="197" len="384" pan="0" key="73"/>
          <note pos="0" vol="197" len="384" pan="0" key="68"/>
          <note pos="0" vol="197" len="384" pan="0" key="64"/>
          <note pos="384" vol="197" len="384" pan="0" key="74"/>
          <note pos="384" vol="197" len="384" pan="0" key="69"/>
          <note pos="384" vol="197" len="384" pan="0" key="66"/>
        </pattern>
        <pattern name="" steps="16" pos="18816" muted="0" type="1">
          <note pos="0" vol="193" len="384" pan="0" key="64"/>
          <note pos="0" vol="193" len="384" pan="0" key="61"/>
          <note pos="0" vol="193" len="384" pan="0" key="52"/>
          <note pos="384" vol="193" len="384" pan="0" key="63"/>
          <note pos="384" vol="193" len="384" pan="0" key="59"/>
          <note pos="384" vol="193" len="384" pan="0" key="56"/>
          <note pos="768" vol="193" len="384" pan="0" key="61"/>
          <note pos="768" vol="193" len="384" pan="0" key="56"/>
          <note pos="768" vol="193" len="384" pan="0" key="49"/>
          <note pos="1152" vol="193" len="384" pan="0" key="59"/>
          <note pos="1152" vol="193" len="384" pan="0" key="57"/>
          <note pos="1152" vol="193" len="384" pan="0" key="49"/>
        </pattern>
        <pattern name="" steps="16" pos="20352" muted="0" type="1">
          <note pos="0" vol="193" len="384" pan="0" key="64"/>
          <note pos="0" vol="193" len="384" pan="0" key="61"/>
          <note pos="0" vol="193" len="384" pan="0" key="56"/>
          <note pos="384" vol="193" len="384" pan="0" key="66"/>
          <note pos="384" vol="193" len="384" pan="0" key="62"/>
          <note pos="384" vol="193" len="384" pan="0" key="57"/>
          <note pos="768" vol="193" len="384" pan="0" key="66"/>
          <note pos="768" vol="193" len="384" pan="0" key="63"/>
          <note pos="768" vol="193" len="384" pan="0" key="58"/>
          <note pos="1152" vol="193" len="384" pan="0" key="68"/>
          <note pos="1152" vol="193" len="384" pan="0" key="63"/>
          <note pos="1152" vol="193" len="384" pan="0" key="60"/>
        </pattern>
        <pattern name="" steps="16" pos="23424" muted="0" type="1">
          <note pos="0" vol="200" len="192" pan="0" key="68"/>
          <note pos="0" vol="200" len="192" pan="0" key="59"/>
          <note pos="192" vol="200" len="192" pan="0" key="69"/>
          <note pos="192" vol="200" len="192" pan="0" key="61"/>
          <note pos="384" vol="200" len="192" pan="0" key="71"/>
          <note pos="384" vol="200" len="192" pan="0" key="64"/>
          <note pos="576" vol="200" len="192" pan="0" key="76"/>
          <note pos="576" vol="200" len="192" pan="0" key="68"/>
          <note pos="768" vol="200" len="384" pan="0" key="73"/>
          <note pos="768" vol="200" len="384" pan="0" key="66"/>
          <note pos="1152" vol="200" len="384" pan="0" key="73"/>
          <note pos="1152" vol="200" len="384" pan="0" key="64"/>
          <note pos="1536" vol="200" len="192" pan="0" key="80"/>
          <note pos="1536" vol="200" len="192" pan="0" key="76"/>
          <note pos="1728" vol="200" len="192" pan="0" key="78"/>
          <note pos="1728" vol="200" len="192" pan="0" key="75"/>
          <note pos="1920" vol="200" len="384" pan="0" key="80"/>
          <note pos="1920" vol="200" len="384" pan="0" key="76"/>
          <note pos="1920" vol="200" len="384" pan="0" key="73"/>
          <note pos="2304" vol="200" len="192" pan="0" key="80"/>
          <note pos="2304" vol="200" len="192" pan="0" key="73"/>
          <note pos="2304" vol="200" len="192" pan="0" key="71"/>
          <note pos="2496" vol="200" len="192" pan="0" key="78"/>
          <note pos="2496" vol="200" len="192" pan="0" key="75"/>
          <note pos="2496" vol="200" len="192" pan="0" key="71"/>
          <note pos="2688" vol="200" len="384" pan="0" key="73"/>
          <note pos="2688" vol="200" len="384" pan="0" key="70"/>
          <note pos="2688" vol="200" len="384" pan="0" key="68"/>
          <note pos="3072" vol="200" len="192" pan="0" key="80"/>
          <note pos="3072" vol="200" len="192" pan="0" key="71"/>
          <note pos="3264" vol="200" len="192" pan="0" key="81"/>
          <note pos="3264" vol="200" len="192" pan="0" key="73"/>
          <note pos="3456" vol="200" len="192" pan="0" key="83"/>
          <note pos="3456" vol="200" len="192" pan="0" key="76"/>
          <note pos="3648" vol="200" len="192" pan="0" key="88"/>
          <note pos="3648" vol="200" len="192" pan="0" key="80"/>
          <note pos="3840" vol="200" len="384" pan="0" key="85"/>
          <note pos="3840" vol="200" len="384" pan="0" key="78"/>
          <note pos="4224" vol="200" len="384" pan="0" key="85"/>
          <note pos="4224" vol="200" len="384" pan="0" key="76"/>
          <note pos="4608" vol="200" len="384" pan="0" key="80"/>
          <note pos="4608" vol="200" len="384" pan="0" key="73"/>
          <note pos="4608" vol="200" len="48" pan="0" key="61"/>
          <note pos="4656" vol="200" len="48" pan="0" key="57"/>
          <note pos="4704" vol="200" len="48" pan="0" key="59"/>
          <note pos="4752" vol="200" len="48" pan="0" key="61"/>
          <note pos="4800" vol="200" len="48" pan="0" key="63"/>
          <note pos="4848" vol="200" len="48" pan="0" key="64"/>
          <note pos="4896" vol="200" len="48" pan="0" key="63"/>
          <note pos="4944" vol="200" len="48" pan="0" key="59"/>
          <note pos="4992" vol="200" len="384" pan="0" key="80"/>
          <note pos="4992" vol="200" len="384" pan="0" key="73"/>
          <note pos="4992" vol="200" len="48" pan="0" key="61"/>
          <note pos="5040" vol="200" len="48" pan="0" key="59"/>
          <note pos="5088" vol="200" len="48" pan="0" key="61"/>
          <note pos="5136" vol="200" len="48" pan="0" key="63"/>
          <note pos="5184" vol="200" len="192" pan="0" key="68"/>
        </pattern>
        <pattern name="" steps="16" pos="21888" muted="0" type="1">
          <note pos="0" vol="200" len="192" pan="0" key="68"/>
          <note pos="0" vol="200" len="192" pan="0" key="64"/>
          <note pos="192" vol="200" len="192" pan="0" key="66"/>
          <note pos="192" vol="200" len="192" pan="0" key="63"/>
          <note pos="384" vol="200" len="384" pan="0" key="68"/>
          <note pos="384" vol="200" len="384" pan="0" key="64"/>
          <note pos="384" vol="200" len="384" pan="0" key="61"/>
          <note pos="768" vol="200" len="192" pan="0" key="68"/>
          <note pos="768" vol="200" len="192" pan="0" key="61"/>
          <note pos="768" vol="200" len="192" pan="0" key="59"/>
          <note pos="960" vol="200" len="192" pan="0" key="66"/>
          <note pos="960" vol="200" len="192" pan="0" key="63"/>
          <note pos="960" vol="200" len="192" pan="0" key="59"/>
          <note pos="1152" vol="200" len="384" pan="0" key="61"/>
          <note pos="1152" vol="200" len="192" pan="0" key="59"/>
          <note pos="1152" vol="200" len="384" pan="0" key="56"/>
        </pattern>
        <pattern name="" steps="16" pos="3264" muted="0" type="1">
          <note pos="0" vol="193" len="192" pan="0" key="69"/>
          <note pos="0" vol="193" len="192" pan="0" key="64"/>
        </pattern>
        <pattern name="" steps="16" pos="3456" muted="0" type="1">
          <note pos="0" vol="193" len="192" pan="0" key="68"/>
          <note pos="0" vol="193" len="192" pan="0" key="64"/>
          <note pos="0" vol="193" len="192" pan="0" key="61"/>
          <note pos="192" vol="193" len="192" pan="0" key="68"/>
          <note pos="192" vol="193" len="192" pan="0" key="63"/>
          <note pos="192" vol="193" len="192" pan="0" key="59"/>
          <note pos="384" vol="193" len="192" pan="0" key="69"/>
          <note pos="384" vol="193" len="192" pan="0" key="64"/>
          <note pos="384" vol="193" len="192" pan="0" key="61"/>
          <note pos="576" vol="193" len="192" pan="0" key="71"/>
          <note pos="576" vol="193" len="192" pan="0" key="66"/>
          <note pos="576" vol="193" len="192" pan="0" key="63"/>
          <note pos="768" vol="193" len="192" pan="0" key="73"/>
          <note pos="768" vol="193" len="192" pan="0" key="69"/>
          <note pos="768" vol="193" len="192" pan="0" key="66"/>
          <note pos="960" vol="193" len="192" pan="0" key="75"/>
          <note pos="960" vol="193" len="192" pan="0" key="71"/>
          <note pos="960" vol="193" len="192" pan="0" key="68"/>
          <note pos="1152" vol="193" len="192" pan="0" key="76"/>
          <note pos="1152" vol="193" len="192" pan="0" key="73"/>
          <note pos="1152" vol="193" len="192" pan="0" key="69"/>
          <note pos="1344" vol="193" len="96" pan="0" key="75"/>
          <note pos="1344" vol="193" len="96" pan="0" key="71"/>
          <note pos="1344" vol="193" len="96" pan="0" key="66"/>
          <note pos="1440" vol="193" len="48" pan="0" key="75"/>
          <note pos="1440" vol="193" len="48" pan="0" key="71"/>
          <note pos="1440" vol="193" len="48" pan="0" key="68"/>
          <note pos="1488" vol="193" len="48" pan="0" key="75"/>
          <note pos="1488" vol="193" len="48" pan="0" key="71"/>
          <note pos="1488" vol="193" len="48" pan="0" key="66"/>
        </pattern>
        <pattern name="" steps="16" pos="4992" muted="0" type="0"/>
        <pattern name="" steps="16" pos="28800" muted="0" type="1">
          <note pos="0" vol="200" len="192" pan="0" key="56"/>
          <note pos="0" vol="200" len="192" pan="0" key="52"/>
          <note pos="192" vol="200" len="192" pan="0" key="57"/>
          <note pos="192" vol="200" len="192" pan="0" key="54"/>
          <note pos="384" vol="200" len="192" pan="0" key="59"/>
          <note pos="384" vol="200" len="192" pan="0" key="56"/>
          <note pos="576" vol="200" len="192" pan="0" key="54"/>
          <note pos="576" vol="200" len="192" pan="0" key="49"/>
          <note pos="768" vol="200" len="192" pan="0" key="56"/>
          <note pos="768" vol="200" len="192" pan="0" key="52"/>
          <note pos="960" vol="200" len="192" pan="0" key="57"/>
          <note pos="960" vol="200" len="192" pan="0" key="54"/>
          <note pos="1152" vol="200" len="192" pan="0" key="59"/>
          <note pos="1152" vol="200" len="192" pan="0" key="56"/>
          <note pos="1344" vol="200" len="192" pan="0" key="54"/>
          <note pos="1344" vol="200" len="192" pan="0" key="51"/>
          <note pos="1536" vol="200" len="192" pan="0" key="54"/>
          <note pos="1536" vol="200" len="192" pan="0" key="49"/>
          <note pos="1728" vol="200" len="192" pan="0" key="61"/>
          <note pos="1728" vol="200" len="192" pan="0" key="56"/>
          <note pos="1920" vol="200" len="192" pan="0" key="59"/>
          <note pos="1920" vol="200" len="192" pan="0" key="54"/>
          <note pos="2112" vol="200" len="192" pan="0" key="57"/>
          <note pos="2112" vol="200" len="192" pan="0" key="52"/>
          <note pos="2304" vol="200" len="384" pan="0" key="56"/>
          <note pos="2304" vol="200" len="384" pan="0" key="51"/>
          <note pos="2688" vol="200" len="384" pan="0" key="56"/>
          <note pos="2688" vol="200" len="384" pan="0" key="47"/>
          <note pos="3072" vol="200" len="192" pan="0" key="56"/>
          <note pos="3072" vol="200" len="192" pan="0" key="52"/>
          <note pos="3264" vol="200" len="192" pan="0" key="57"/>
          <note pos="3264" vol="200" len="192" pan="0" key="54"/>
          <note pos="3456" vol="200" len="192" pan="0" key="59"/>
          <note pos="3456" vol="200" len="192" pan="0" key="56"/>
          <note pos="3648" vol="200" len="192" pan="0" key="54"/>
          <note pos="3648" vol="200" len="192" pan="0" key="49"/>
          <note pos="3840" vol="200" len="192" pan="0" key="56"/>
          <note pos="3840" vol="200" len="192" pan="0" key="52"/>
          <note pos="4032" vol="200" len="192" pan="0" key="57"/>
          <note pos="4032" vol="200" len="192" pan="0" key="54"/>
          <note pos="4224" vol="200" len="192" pan="0" key="59"/>
          <note pos="4224" vol="200" len="192" pan="0" key="56"/>
          <note pos="4416" vol="200" len="192" pan="0" key="54"/>
          <note pos="4416" vol="200" len="192" pan="0" key="51"/>
          <note pos="4608" vol="200" len="192" pan="0" key="54"/>
          <note pos="4608" vol="200" len="192" pan="0" key="49"/>
          <note pos="4800" vol="200" len="192" pan="0" key="61"/>
          <note pos="4800" vol="200" len="192" pan="0" key="56"/>
          <note pos="4992" vol="200" len="192" pan="0" key="59"/>
          <note pos="4992" vol="200" len="192" pan="0" key="54"/>
          <note pos="5184" vol="200" len="192" pan="0" key="57"/>
          <note pos="5184" vol="200" len="192" pan="0" key="52"/>
          <note pos="5376" vol="200" len="384" pan="0" key="55"/>
          <note pos="5376" vol="200" len="384" pan="0" key="50"/>
          <note pos="5760" vol="200" len="384" pan="0" key="56"/>
          <note pos="5760" vol="200" len="384" pan="0" key="47"/>
        </pattern>
        <pattern name="" steps="16" pos="14208" muted="0" type="1">
          <note pos="0" vol="197" len="24" pan="0" key="61"/>
          <note pos="0" vol="197" len="24" pan="0" key="57"/>
          <note pos="48" vol="197" len="24" pan="0" key="61"/>
          <note pos="48" vol="197" len="24" pan="0" key="57"/>
          <note pos="96" vol="197" len="24" pan="0" key="61"/>
          <note pos="96" vol="197" len="24" pan="0" key="57"/>
          <note pos="144" vol="197" len="24" pan="0" key="61"/>
          <note pos="144" vol="197" len="24" pan="0" key="57"/>
          <note pos="192" vol="197" len="24" pan="0" key="61"/>
          <note pos="192" vol="197" len="24" pan="0" key="57"/>
          <note pos="240" vol="197" len="24" pan="0" key="61"/>
          <note pos="240" vol="197" len="24" pan="0" key="57"/>
          <note pos="288" vol="197" len="24" pan="0" key="61"/>
          <note pos="288" vol="197" len="24" pan="0" key="57"/>
          <note pos="336" vol="197" len="24" pan="0" key="61"/>
          <note pos="336" vol="197" len="24" pan="0" key="57"/>
          <note pos="384" vol="197" len="24" pan="0" key="61"/>
          <note pos="384" vol="197" len="24" pan="0" key="56"/>
          <note pos="384" vol="197" len="24" pan="0" key="52"/>
          <note pos="432" vol="197" len="24" pan="0" key="61"/>
          <note pos="432" vol="197" len="24" pan="0" key="56"/>
          <note pos="432" vol="197" len="24" pan="0" key="52"/>
          <note pos="480" vol="197" len="24" pan="0" key="61"/>
          <note pos="480" vol="197" len="24" pan="0" key="56"/>
          <note pos="480" vol="197" len="24" pan="0" key="52"/>
          <note pos="528" vol="197" len="24" pan="0" key="61"/>
          <note pos="528" vol="197" len="24" pan="0" key="56"/>
          <note pos="528" vol="197" len="24" pan="0" key="52"/>
          <note pos="576" vol="197" len="24" pan="0" key="61"/>
          <note pos="576" vol="197" len="24" pan="0" key="56"/>
          <note pos="576" vol="197" len="24" pan="0" key="51"/>
          <note pos="624" vol="197" len="24" pan="0" key="61"/>
          <note pos="624" vol="197" len="24" pan="0" key="56"/>
          <note pos="624" vol="197" len="24" pan="0" key="51"/>
          <note pos="672" vol="197" len="24" pan="0" key="61"/>
          <note pos="672" vol="197" len="24" pan="0" key="56"/>
          <note pos="672" vol="197" len="24" pan="0" key="51"/>
          <note pos="720" vol="197" len="24" pan="0" key="61"/>
          <note pos="720" vol="197" len="24" pan="0" key="56"/>
          <note pos="720" vol="197" len="24" pan="0" key="51"/>
        </pattern>
        <pattern name="" steps="16" pos="34944" muted="0" type="1">
          <note pos="0" vol="193" len="192" pan="0" key="68"/>
          <note pos="0" vol="193" len="192" pan="0" key="64"/>
          <note pos="0" vol="193" len="192" pan="0" key="61"/>
          <note pos="192" vol="193" len="192" pan="0" key="68"/>
          <note pos="192" vol="193" len="192" pan="0" key="63"/>
          <note pos="192" vol="193" len="192" pan="0" key="59"/>
          <note pos="384" vol="193" len="192" pan="0" key="69"/>
          <note pos="384" vol="193" len="192" pan="0" key="64"/>
          <note pos="384" vol="193" len="192" pan="0" key="61"/>
          <note pos="576" vol="193" len="192" pan="0" key="71"/>
          <note pos="576" vol="193" len="192" pan="0" key="66"/>
          <note pos="576" vol="193" len="192" pan="0" key="63"/>
          <note pos="768" vol="193" len="192" pan="0" key="73"/>
          <note pos="768" vol="193" len="192" pan="0" key="69"/>
          <note pos="768" vol="193" len="192" pan="0" key="66"/>
          <note pos="960" vol="193" len="192" pan="0" key="75"/>
          <note pos="960" vol="193" len="192" pan="0" key="71"/>
          <note pos="960" vol="193" len="192" pan="0" key="68"/>
          <note pos="1152" vol="193" len="192" pan="0" key="76"/>
          <note pos="1152" vol="193" len="192" pan="0" key="73"/>
          <note pos="1152" vol="193" len="192" pan="0" key="69"/>
          <note pos="1344" vol="193" len="96" pan="0" key="75"/>
          <note pos="1344" vol="193" len="96" pan="0" key="71"/>
          <note pos="1344" vol="193" len="96" pan="0" key="66"/>
          <note pos="1440" vol="193" len="48" pan="0" key="75"/>
          <note pos="1440" vol="193" len="48" pan="0" key="71"/>
          <note pos="1440" vol="193" len="48" pan="0" key="68"/>
          <note pos="1488" vol="193" len="48" pan="0" key="75"/>
          <note pos="1488" vol="193" len="48" pan="0" key="71"/>
          <note pos="1488" vol="193" len="48" pan="0" key="66"/>
        </pattern>
        <pattern name="" steps="16" pos="39552" muted="0" type="1">
          <note pos="0" vol="197" len="192" pan="0" key="68"/>
          <note pos="0" vol="197" len="192" pan="0" key="64"/>
          <note pos="0" vol="197" len="192" pan="0" key="61"/>
          <note pos="192" vol="197" len="192" pan="0" key="68"/>
          <note pos="192" vol="197" len="192" pan="0" key="63"/>
          <note pos="192" vol="197" len="192" pan="0" key="59"/>
          <note pos="384" vol="197" len="192" pan="0" key="69"/>
          <note pos="384" vol="197" len="192" pan="0" key="64"/>
          <note pos="384" vol="197" len="192" pan="0" key="61"/>
          <note pos="576" vol="197" len="192" pan="0" key="71"/>
          <note pos="576" vol="197" len="192" pan="0" key="66"/>
          <note pos="576" vol="197" len="192" pan="0" key="63"/>
          <note pos="768" vol="197" len="192" pan="0" key="73"/>
          <note pos="768" vol="197" len="192" pan="0" key="69"/>
          <note pos="768" vol="197" len="192" pan="0" key="66"/>
          <note pos="960" vol="197" len="192" pan="0" key="75"/>
          <note pos="960" vol="197" len="192" pan="0" key="71"/>
          <note pos="960" vol="197" len="192" pan="0" key="68"/>
          <note pos="1152" vol="197" len="192" pan="0" key="76"/>
          <note pos="1152" vol="197" len="192" pan="0" key="73"/>
          <note pos="1152" vol="197" len="192" pan="0" key="69"/>
          <note pos="1344" vol="197" len="96" pan="0" key="75"/>
          <note pos="1344" vol="197" len="96" pan="0" key="71"/>
          <note pos="1344" vol="197" len="96" pan="0" key="66"/>
          <note pos="1440" vol="197" len="96" pan="0" key="75"/>
          <note pos="1440" vol="197" len="96" pan="0" key="72"/>
          <note pos="1440" vol="197" len="96" pan="0" key="66"/>
          <note pos="1536" vol="197" len="192" pan="0" key="76"/>
          <note pos="1536" vol="197" len="192" pan="0" key="73"/>
          <note pos="1536" vol="197" len="192" pan="0" key="68"/>
          <note pos="1728" vol="197" len="192" pan="0" key="75"/>
          <note pos="1728" vol="197" len="192" pan="0" key="71"/>
          <note pos="1728" vol="197" len="192" pan="0" key="66"/>
          <note pos="1920" vol="197" len="384" pan="0" key="73"/>
          <note pos="1920" vol="197" len="384" pan="0" key="70"/>
          <note pos="1920" vol="197" len="384" pan="0" key="66"/>
          <note pos="2304" vol="197" len="192" pan="0" key="74"/>
          <note pos="2304" vol="197" len="192" pan="0" key="69"/>
          <note pos="2304" vol="197" len="192" pan="0" key="66"/>
          <note pos="2496" vol="197" len="192" pan="0" key="73"/>
          <note pos="2496" vol="197" len="192" pan="0" key="69"/>
          <note pos="2496" vol="197" len="192" pan="0" key="64"/>
          <note pos="2688" vol="197" len="384" pan="0" key="75"/>
          <note pos="2688" vol="197" len="384" pan="0" key="71"/>
          <note pos="2688" vol="197" len="384" pan="0" key="66"/>
        </pattern>
        <pattern name="" steps="16" pos="44160" muted="0" type="1">
          <note pos="0" vol="197" len="192" pan="0" key="70"/>
          <note pos="0" vol="197" len="192" pan="0" key="66"/>
          <note pos="0" vol="197" len="192" pan="0" key="63"/>
          <note pos="192" vol="197" len="192" pan="0" key="70"/>
          <note pos="192" vol="197" len="192" pan="0" key="65"/>
          <note pos="192" vol="197" len="192" pan="0" key="61"/>
          <note pos="384" vol="197" len="192" pan="0" key="71"/>
          <note pos="384" vol="197" len="192" pan="0" key="66"/>
          <note pos="384" vol="197" len="192" pan="0" key="63"/>
          <note pos="576" vol="197" len="192" pan="0" key="73"/>
          <note pos="576" vol="197" len="192" pan="0" key="68"/>
          <note pos="576" vol="197" len="192" pan="0" key="65"/>
          <note pos="768" vol="197" len="192" pan="0" key="75"/>
          <note pos="768" vol="197" len="192" pan="0" key="71"/>
          <note pos="768" vol="197" len="192" pan="0" key="68"/>
          <note pos="960" vol="197" len="192" pan="0" key="77"/>
          <note pos="960" vol="197" len="192" pan="0" key="73"/>
          <note pos="960" vol="197" len="192" pan="0" key="70"/>
          <note pos="1152" vol="197" len="192" pan="0" key="78"/>
          <note pos="1152" vol="197" len="192" pan="0" key="75"/>
          <note pos="1152" vol="197" len="192" pan="0" key="71"/>
          <note pos="1344" vol="197" len="96" pan="0" key="77"/>
          <note pos="1344" vol="197" len="96" pan="0" key="73"/>
          <note pos="1344" vol="197" len="96" pan="0" key="68"/>
          <note pos="1440" vol="197" len="96" pan="0" key="77"/>
          <note pos="1440" vol="197" len="96" pan="0" key="74"/>
          <note pos="1440" vol="197" len="96" pan="0" key="68"/>
          <note pos="1536" vol="197" len="192" pan="0" key="78"/>
          <note pos="1536" vol="197" len="192" pan="0" key="75"/>
          <note pos="1536" vol="197" len="192" pan="0" key="70"/>
          <note pos="1728" vol="197" len="192" pan="0" key="77"/>
          <note pos="1728" vol="197" len="192" pan="0" key="73"/>
          <note pos="1728" vol="197" len="192" pan="0" key="68"/>
          <note pos="1920" vol="197" len="384" pan="0" key="75"/>
          <note pos="1920" vol="197" len="384" pan="0" key="72"/>
          <note pos="1920" vol="197" len="384" pan="0" key="68"/>
          <note pos="2304" vol="197" len="192" pan="0" key="76"/>
          <note pos="2304" vol="197" len="192" pan="0" key="71"/>
          <note pos="2304" vol="197" len="192" pan="0" key="68"/>
          <note pos="2496" vol="197" len="192" pan="0" key="75"/>
          <note pos="2496" vol="197" len="192" pan="0" key="71"/>
          <note pos="2496" vol="197" len="192" pan="0" key="66"/>
          <note pos="2688" vol="197" len="192" pan="0" key="77"/>
          <note pos="2688" vol="197" len="192" pan="0" key="73"/>
          <note pos="2688" vol="197" len="192" pan="0" key="68"/>
          <note pos="2880" vol="195" len="48" pan="0" key="73"/>
          <note pos="2928" vol="195" len="48" pan="0" key="71"/>
          <note pos="2976" vol="195" len="48" pan="0" key="70"/>
          <note pos="3024" vol="195" len="48" pan="0" key="68"/>
        </pattern>
        <pattern name="" steps="16" pos="43776" muted="0" type="1">
          <note pos="96" vol="197" len="96" pan="0" key="64"/>
          <note pos="96" vol="197" len="96" pan="0" key="61"/>
          <note pos="96" vol="197" len="96" pan="0" key="57"/>
          <note pos="192" vol="197" len="96" pan="0" key="66"/>
          <note pos="192" vol="197" len="96" pan="0" key="63"/>
          <note pos="192" vol="197" len="96" pan="0" key="59"/>
          <note pos="288" vol="197" len="96" pan="0" key="68"/>
          <note pos="288" vol="197" len="96" pan="0" key="65"/>
          <note pos="288" vol="197" len="96" pan="0" key="61"/>
        </pattern>
        <pattern name="" steps="16" pos="47232" muted="0" type="1">
          <note pos="0" vol="197" len="192" pan="0" key="58"/>
          <note pos="0" vol="197" len="192" pan="0" key="54"/>
          <note pos="0" vol="197" len="192" pan="0" key="51"/>
          <note pos="192" vol="197" len="192" pan="0" key="58"/>
          <note pos="192" vol="197" len="192" pan="0" key="53"/>
          <note pos="192" vol="197" len="192" pan="0" key="49"/>
          <note pos="384" vol="197" len="192" pan="0" key="59"/>
          <note pos="384" vol="197" len="192" pan="0" key="54"/>
          <note pos="384" vol="197" len="192" pan="0" key="51"/>
          <note pos="576" vol="197" len="192" pan="0" key="61"/>
          <note pos="576" vol="197" len="192" pan="0" key="56"/>
          <note pos="576" vol="197" len="192" pan="0" key="53"/>
          <note pos="768" vol="197" len="192" pan="0" key="63"/>
          <note pos="768" vol="197" len="192" pan="0" key="59"/>
          <note pos="768" vol="197" len="192" pan="0" key="56"/>
          <note pos="960" vol="197" len="192" pan="0" key="65"/>
          <note pos="960" vol="197" len="192" pan="0" key="61"/>
          <note pos="960" vol="197" len="192" pan="0" key="58"/>
          <note pos="1152" vol="197" len="192" pan="0" key="66"/>
          <note pos="1152" vol="197" len="192" pan="0" key="63"/>
          <note pos="1152" vol="197" len="192" pan="0" key="59"/>
          <note pos="1344" vol="197" len="96" pan="0" key="65"/>
          <note pos="1344" vol="197" len="96" pan="0" key="61"/>
          <note pos="1344" vol="197" len="96" pan="0" key="56"/>
          <note pos="1440" vol="197" len="96" pan="0" key="65"/>
          <note pos="1440" vol="197" len="96" pan="0" key="62"/>
          <note pos="1440" vol="197" len="96" pan="0" key="56"/>
          <note pos="1536" vol="197" len="192" pan="0" key="66"/>
          <note pos="1536" vol="197" len="192" pan="0" key="63"/>
          <note pos="1536" vol="197" len="192" pan="0" key="58"/>
          <note pos="1728" vol="197" len="192" pan="0" key="65"/>
          <note pos="1728" vol="197" len="192" pan="0" key="61"/>
          <note pos="1728" vol="197" len="192" pan="0" key="56"/>
          <note pos="1920" vol="197" len="384" pan="0" key="63"/>
          <note pos="1920" vol="197" len="384" pan="0" key="60"/>
          <note pos="1920" vol="197" len="384" pan="0" key="56"/>
          <note pos="2304" vol="197" len="192" pan="0" key="64"/>
          <note pos="2304" vol="197" len="192" pan="0" key="59"/>
          <note pos="2304" vol="197" len="192" pan="0" key="56"/>
          <note pos="2496" vol="197" len="192" pan="0" key="63"/>
          <note pos="2496" vol="197" len="192" pan="0" key="59"/>
          <note pos="2496" vol="197" len="192" pan="0" key="54"/>
          <note pos="2688" vol="197" len="192" pan="0" key="65"/>
          <note pos="2688" vol="197" len="192" pan="0" key="61"/>
          <note pos="2688" vol="197" len="192" pan="0" key="56"/>
          <note pos="2880" vol="197" len="96" pan="0" key="65"/>
          <note pos="2880" vol="197" len="96" pan="0" key="61"/>
          <note pos="2880" vol="197" len="96" pan="0" key="56"/>
          <note pos="2976" vol="197" len="96" pan="0" key="65"/>
          <note pos="2976" vol="197" len="96" pan="0" key="61"/>
          <note pos="2976" vol="197" len="96" pan="0" key="58"/>
        </pattern>
        <pattern name="" steps="16" pos="50304" muted="0" type="1">
          <note pos="0" vol="197" len="192" pan="0" key="63"/>
          <note pos="0" vol="197" len="192" pan="0" key="58"/>
          <note pos="0" vol="197" len="192" pan="0" key="54"/>
          <note pos="192" vol="197" len="192" pan="0" key="61"/>
          <note pos="192" vol="197" len="192" pan="0" key="56"/>
          <note pos="192" vol="197" len="192" pan="0" key="53"/>
          <note pos="384" vol="197" len="384" pan="0" key="58"/>
          <note pos="384" vol="197" len="384" pan="0" key="54"/>
          <note pos="384" vol="197" len="384" pan="0" key="51"/>
        </pattern>
        <pattern name="" steps="16" pos="51072" muted="0" type="1">
          <note pos="0" vol="197" len="192" pan="0" key="66"/>
          <note pos="0" vol="197" len="192" pan="0" key="63"/>
          <note pos="0" vol="197" len="192" pan="0" key="59"/>
          <note pos="192" vol="197" len="192" pan="0" key="65"/>
          <note pos="192" vol="197" len="192" pan="0" key="61"/>
          <note pos="192" vol="197" len="192" pan="0" key="56"/>
          <note pos="384" vol="197" len="384" pan="0" key="66"/>
          <note pos="384" vol="197" len="384" pan="0" key="63"/>
          <note pos="384" vol="197" len="384" pan="0" key="58"/>
        </pattern>
        <pattern name="" steps="16" pos="51840" muted="0" type="1">
          <note pos="0" vol="197" len="384" pan="0" key="64"/>
          <note pos="0" vol="197" len="384" pan="0" key="59"/>
          <note pos="0" vol="197" len="384" pan="0" key="56"/>
          <note pos="384" vol="197" len="384" pan="0" key="63"/>
          <note pos="384" vol="197" len="384" pan="0" key="58"/>
          <note pos="384" vol="197" len="384" pan="0" key="54"/>
        </pattern>
        <pattern name="" steps="16" pos="52608" muted="0" type="1">
          <note pos="0" vol="197" len="384" pan="0" key="63"/>
          <note pos="0" vol="197" len="384" pan="0" key="60"/>
          <note pos="0" vol="197" len="384" pan="0" key="56"/>
        </pattern>
        <pattern name="" steps="16" pos="53376" muted="0" type="1">
          <note pos="0" vol="197" len="192" pan="0" key="63"/>
          <note pos="0" vol="197" len="192" pan="0" key="59"/>
          <note pos="0" vol="197" len="192" pan="0" key="54"/>
          <note pos="192" vol="197" len="192" pan="0" key="61"/>
          <note pos="192" vol="197" len="192" pan="0" key="56"/>
          <note pos="192" vol="197" len="192" pan="0" key="53"/>
          <note pos="384" vol="197" len="384" pan="0" key="58"/>
          <note pos="384" vol="197" len="384" pan="0" key="54"/>
          <note pos="384" vol="197" len="384" pan="0" key="51"/>
        </pattern>
        <pattern name="" steps="16" pos="54144" muted="0" type="1">
          <note pos="0" vol="197" len="384" pan="0" key="65"/>
          <note pos="0" vol="197" len="384" pan="0" key="61"/>
          <note pos="0" vol="197" len="384" pan="0" key="56"/>
          <note pos="384" vol="197" len="384" pan="0" key="63"/>
          <note pos="384" vol="197" len="384" pan="0" key="60"/>
          <note pos="384" vol="197" len="384" pan="0" key="56"/>
        </pattern>
        <pattern name="" steps="16" pos="54912" muted="0" type="1">
          <note pos="0" vol="197" len="192" pan="0" key="63"/>
          <note pos="0" vol="197" len="192" pan="0" key="59"/>
          <note pos="0" vol="197" len="192" pan="0" key="54"/>
          <note pos="192" vol="197" len="192" pan="0" key="65"/>
          <note pos="192" vol="197" len="192" pan="0" key="61"/>
          <note pos="192" vol="197" len="192" pan="0" key="56"/>
          <note pos="384" vol="197" len="192" pan="0" key="66"/>
          <note pos="384" vol="197" len="384" pan="0" key="63"/>
          <note pos="384" vol="197" len="384" pan="0" key="58"/>
          <note pos="576" vol="197" len="96" pan="0" key="70"/>
          <note pos="672" vol="197" len="96" pan="0" key="68"/>
        </pattern>
        <pattern name="" steps="16" pos="55680" muted="0" type="1">
          <note pos="0" vol="197" len="192" pan="0" key="68"/>
          <note pos="0" vol="197" len="192" pan="0" key="63"/>
          <note pos="0" vol="197" len="192" pan="0" key="60"/>
          <note pos="192" vol="197" len="168" pan="0" key="63"/>
          <note pos="192" vol="197" len="192" pan="0" key="60"/>
          <note pos="192" vol="197" len="192" pan="0" key="56"/>
          <note pos="360" vol="197" len="24" pan="0" key="65"/>
          <note pos="384" vol="197" len="192" pan="0" key="66"/>
          <note pos="384" vol="197" len="192" pan="0" key="63"/>
          <note pos="384" vol="197" len="192" pan="0" key="59"/>
          <note pos="576" vol="197" len="96" pan="0" key="68"/>
          <note pos="576" vol="197" len="96" pan="0" key="65"/>
          <note pos="576" vol="197" len="96" pan="0" key="61"/>
          <note pos="672" vol="197" len="96" pan="0" key="73"/>
          <note pos="672" vol="197" len="96" pan="0" key="68"/>
          <note pos="672" vol="197" len="96" pan="0" key="65"/>
        </pattern>
        <pattern name="" steps="16" pos="52992" muted="0" type="1">
          <note pos="0" vol="197" len="384" pan="0" key="63"/>
          <note pos="0" vol="197" len="384" pan="0" key="60"/>
          <note pos="0" vol="197" len="384" pan="0" key="56"/>
        </pattern>
        <pattern name="" steps="16" pos="6528" muted="0" type="1">
          <note pos="0" vol="197" len="24" pan="0" key="61"/>
          <note pos="0" vol="197" len="24" pan="0" key="57"/>
          <note pos="48" vol="197" len="24" pan="0" key="61"/>
          <note pos="48" vol="197" len="24" pan="0" key="57"/>
          <note pos="96" vol="197" len="24" pan="0" key="61"/>
          <note pos="96" vol="197" len="24" pan="0" key="57"/>
          <note pos="144" vol="197" len="24" pan="0" key="61"/>
          <note pos="144" vol="197" len="24" pan="0" key="57"/>
          <note pos="192" vol="197" len="24" pan="0" key="61"/>
          <note pos="192" vol="197" len="24" pan="0" key="57"/>
          <note pos="240" vol="197" len="24" pan="0" key="61"/>
          <note pos="240" vol="197" len="24" pan="0" key="57"/>
          <note pos="288" vol="197" len="24" pan="0" key="61"/>
          <note pos="288" vol="197" len="24" pan="0" key="57"/>
          <note pos="336" vol="197" len="24" pan="0" key="61"/>
          <note pos="336" vol="197" len="24" pan="0" key="57"/>
          <note pos="384" vol="197" len="24" pan="0" key="61"/>
          <note pos="384" vol="197" len="24" pan="0" key="56"/>
          <note pos="384" vol="197" len="24" pan="0" key="52"/>
          <note pos="432" vol="197" len="24" pan="0" key="61"/>
          <note pos="432" vol="197" len="24" pan="0" key="56"/>
          <note pos="432" vol="197" len="24" pan="0" key="52"/>
          <note pos="480" vol="197" len="24" pan="0" key="61"/>
          <note pos="480" vol="197" len="24" pan="0" key="56"/>
          <note pos="480" vol="197" len="24" pan="0" key="52"/>
          <note pos="528" vol="197" len="24" pan="0" key="61"/>
          <note pos="528" vol="197" len="24" pan="0" key="56"/>
          <note pos="528" vol="197" len="24" pan="0" key="52"/>
          <note pos="576" vol="197" len="24" pan="0" key="61"/>
          <note pos="576" vol="197" len="24" pan="0" key="56"/>
          <note pos="576" vol="197" len="24" pan="0" key="51"/>
          <note pos="624" vol="197" len="24" pan="0" key="61"/>
          <note pos="624" vol="197" len="24" pan="0" key="56"/>
          <note pos="624" vol="197" len="24" pan="0" key="51"/>
          <note pos="672" vol="197" len="24" pan="0" key="61"/>
          <note pos="672" vol="197" len="24" pan="0" key="56"/>
          <note pos="672" vol="197" len="24" pan="0" key="51"/>
          <note pos="720" vol="197" len="24" pan="0" key="61"/>
          <note pos="720" vol="197" len="24" pan="0" key="56"/>
          <note pos="720" vol="197" len="24" pan="0" key="51"/>
        </pattern>
        <pattern name="" steps="16" pos="7296" muted="0" type="1">
          <note pos="0" vol="144" len="384" pan="0" key="61"/>
          <note pos="0" vol="144" len="384" pan="0" key="54"/>
          <note pos="384" vol="144" len="192" pan="0" key="58"/>
          <note pos="384" vol="144" len="192" pan="0" key="51"/>
          <note pos="576" vol="144" len="24" pan="0" key="56"/>
          <note pos="576" vol="144" len="24" pan="0" key="44"/>
          <note pos="600" vol="144" len="24" pan="0" key="60"/>
          <note pos="600" vol="144" len="24" pan="0" key="48"/>
          <note pos="624" vol="144" len="24" pan="0" key="63"/>
          <note pos="624" vol="144" len="24" pan="0" key="51"/>
          <note pos="648" vol="144" len="24" pan="0" key="66"/>
          <note pos="648" vol="144" len="24" pan="0" key="54"/>
          <note pos="672" vol="144" len="24" pan="0" key="69"/>
          <note pos="672" vol="144" len="24" pan="0" key="57"/>
          <note pos="696" vol="144" len="24" pan="0" key="72"/>
          <note pos="696" vol="144" len="24" pan="0" key="60"/>
          <note pos="720" vol="144" len="24" pan="0" key="75"/>
          <note pos="720" vol="144" len="24" pan="0" key="63"/>
          <note pos="744" vol="144" len="24" pan="0" key="78"/>
          <note pos="744" vol="144" len="24" pan="0" key="66"/>
        </pattern>
        <pattern name="" steps="16" pos="14976" muted="0" type="1">
          <note pos="0" vol="144" len="384" pan="0" key="61"/>
          <note pos="0" vol="144" len="384" pan="0" key="54"/>
          <note pos="384" vol="144" len="192" pan="0" key="58"/>
          <note pos="384" vol="144" len="192" pan="0" key="51"/>
          <note pos="576" vol="144" len="24" pan="0" key="56"/>
          <note pos="576" vol="144" len="24" pan="0" key="44"/>
          <note pos="600" vol="144" len="24" pan="0" key="60"/>
          <note pos="600" vol="144" len="24" pan="0" key="48"/>
          <note pos="624" vol="144" len="24" pan="0" key="63"/>
          <note pos="624" vol="144" len="24" pan="0" key="51"/>
          <note pos="648" vol="144" len="24" pan="0" key="66"/>
          <note pos="648" vol="144" len="24" pan="0" key="54"/>
          <note pos="672" vol="144" len="24" pan="0" key="69"/>
          <note pos="672" vol="144" len="24" pan="0" key="57"/>
          <note pos="696" vol="144" len="24" pan="0" key="72"/>
          <note pos="696" vol="144" len="24" pan="0" key="60"/>
          <note pos="720" vol="144" len="24" pan="0" key="75"/>
          <note pos="720" vol="144" len="24" pan="0" key="63"/>
          <note pos="744" vol="144" len="24" pan="0" key="78"/>
          <note pos="744" vol="144" len="24" pan="0" key="66"/>
        </pattern>
        <pattern name="" steps="16" pos="56448" muted="0" type="1">
          <note pos="0" vol="200" len="384" pan="0" key="58"/>
          <note pos="0" vol="200" len="384" pan="0" key="54"/>
          <note pos="0" vol="200" len="384" pan="0" key="51"/>
          <note pos="384" vol="200" len="384" pan="0" key="56"/>
          <note pos="384" vol="200" len="384" pan="0" key="53"/>
          <note pos="384" vol="200" len="384" pan="0" key="49"/>
          <note pos="768" vol="200" len="384" pan="0" key="56"/>
          <note pos="768" vol="200" len="384" pan="0" key="51"/>
          <note pos="768" vol="200" len="384" pan="0" key="48"/>
          <note pos="1152" vol="200" len="384" pan="0" key="56"/>
          <note pos="1152" vol="200" len="384" pan="0" key="52"/>
          <note pos="1152" vol="200" len="384" pan="0" key="47"/>
        </pattern>
        <pattern name="" steps="16" pos="57984" muted="0" type="1">
          <note pos="0" vol="200" len="384" pan="0" key="58"/>
          <note pos="0" vol="200" len="384" pan="0" key="54"/>
          <note pos="0" vol="200" len="384" pan="0" key="51"/>
          <note pos="384" vol="200" len="384" pan="0" key="56"/>
          <note pos="384" vol="200" len="384" pan="0" key="53"/>
          <note pos="384" vol="200" len="384" pan="0" key="49"/>
          <note pos="768" vol="200" len="384" pan="0" key="56"/>
          <note pos="768" vol="200" len="384" pan="0" key="51"/>
          <note pos="768" vol="200" len="384" pan="0" key="48"/>
          <note pos="1152" vol="200" len="384" pan="0" key="56"/>
          <note pos="1152" vol="200" len="384" pan="0" key="52"/>
          <note pos="1152" vol="200" len="384" pan="0" key="47"/>
        </pattern>
        <pattern name="" steps="16" pos="59520" muted="0" type="1">
          <note pos="0" vol="200" len="384" pan="0" key="58"/>
          <note pos="0" vol="200" len="384" pan="0" key="54"/>
          <note pos="0" vol="200" len="384" pan="0" key="51"/>
          <note pos="384" vol="200" len="384" pan="0" key="56"/>
          <note pos="384" vol="200" len="384" pan="0" key="53"/>
          <note pos="384" vol="200" len="384" pan="0" key="49"/>
          <note pos="768" vol="200" len="384" pan="0" key="56"/>
          <note pos="768" vol="200" len="384" pan="0" key="51"/>
          <note pos="768" vol="200" len="384" pan="0" key="48"/>
          <note pos="1152" vol="200" len="384" pan="0" key="56"/>
          <note pos="1152" vol="200" len="384" pan="0" key="52"/>
          <note pos="1152" vol="200" len="384" pan="0" key="47"/>
        </pattern>
        <pattern name="" steps="16" pos="61056" muted="0" type="1">
          <note pos="0" vol="200" len="384" pan="0" key="58"/>
          <note pos="0" vol="200" len="384" pan="0" key="54"/>
          <note pos="0" vol="200" len="384" pan="0" key="51"/>
          <note pos="384" vol="200" len="384" pan="0" key="56"/>
          <note pos="384" vol="200" len="384" pan="0" key="53"/>
          <note pos="384" vol="200" len="384" pan="0" key="49"/>
          <note pos="768" vol="200" len="384" pan="0" key="56"/>
          <note pos="768" vol="200" len="384" pan="0" key="51"/>
          <note pos="768" vol="200" len="384" pan="0" key="48"/>
          <note pos="1152" vol="200" len="384" pan="0" key="56"/>
          <note pos="1152" vol="200" len="384" pan="0" key="52"/>
          <note pos="1152" vol="200" len="384" pan="0" key="47"/>
        </pattern>
      </track>
      <track name="dt" solo="0" muted="0" type="0">
        <instrumenttrack basenote="45" fxch="0" usemasterpitch="1" pitch="0" vol="89.8" pan="0" pitchrange="1">
          <instrument name="zynaddsubfx">
            <zynaddsubfx forwardmidicc="1" filterq="64" fmgain="127" bandwidth="64" filterfreq="64" resbandwidth="64" portamento="0" rescenterfreq="64" modifiedcontrollers="">
              <ZynAddSubFX-data version-revision="1" version-major="2" ZynAddSubFX-author="Nasca Octavian Paul" version-minor="4">
                <INFORMATION>
                  <par_bool name="PADsynth_used" value="yes"/>
                </INFORMATION>
                <BASE_PARAMETERS>
                  <par name="max_midi_parts" value="16"/>
                  <par name="max_kit_items_per_instrument" value="16"/>
                  <par name="max_system_effects" value="4"/>
                  <par name="max_insertion_effects" value="8"/>
                  <par name="max_instrument_effects" value="3"/>
                  <par name="max_addsynth_voices" value="8"/>
                </BASE_PARAMETERS>
                <MASTER>
                  <par name="volume" value="80"/>
                  <par name="key_shift" value="64"/>
                  <par_bool name="nrpn_receive" value="yes"/>
                  <MICROTONAL>
                    <string name="name">12tET</string>
                    <string name="comment">Equal Temperament 12 notes per octave</string>
                    <par_bool name="invert_up_down" value="no"/>
                    <par name="invert_up_down_center" value="60"/>
                    <par_bool name="enabled" value="no"/>
                    <par name="global_fine_detune" value="64"/>
                    <par name="a_note" value="69"/>
                    <par_real name="a_freq" value="440.000000"/>
                  </MICROTONAL>
                  <PART id="0">
                    <par_bool name="enabled" value="yes"/>
                    <par name="volume" value="96"/>
                    <par name="panning" value="64"/>
                    <par name="min_key" value="0"/>
                    <par name="max_key" value="127"/>
                    <par name="key_shift" value="64"/>
                    <par name="rcv_chn" value="0"/>
                    <par name="velocity_sensing" value="64"/>
                    <par name="velocity_offset" value="64"/>
                    <par_bool name="note_on" value="yes"/>
                    <par_bool name="poly_mode" value="yes"/>
                    <par name="legato_mode" value="0"/>
                    <par name="key_limit" value="15"/>
                    <INSTRUMENT>
                      <INFO>
                        <string name="name">Fantasia</string>
                        <string name="author">Will Godfrey
GPL V 2 or later</string>
                        <string name="comments">Derived from one of Paul's Bells voices</string>
                        <par name="type" value="1"/>
                      </INFO>
                      <INSTRUMENT_KIT>
                        <par name="kit_mode" value="0"/>
                        <par_bool name="drum_mode" value="no"/>
                        <INSTRUMENT_KIT_ITEM id="0">
                          <par_bool name="enabled" value="yes"/>
                          <string name="name"/>
                          <par_bool name="muted" value="no"/>
                          <par name="min_key" value="0"/>
                          <par name="max_key" value="127"/>
                          <par name="send_to_instrument_effect" value="0"/>
                          <par_bool name="add_enabled" value="no"/>
                          <par_bool name="sub_enabled" value="no"/>
                          <par_bool name="pad_enabled" value="yes"/>
                          <PAD_SYNTH_PARAMETERS>
                            <par_bool name="stereo" value="yes"/>
                            <par name="mode" value="0"/>
                            <par name="bandwidth" value="485"/>
                            <par name="bandwidth_scale" value="0"/>
                            <HARMONIC_PROFILE>
                              <par name="base_type" value="0"/>
                              <par name="base_par1" value="99"/>
                              <par name="frequency_multiplier" value="11"/>
                              <par name="modulator_par1" value="0"/>
                              <par name="modulator_frequency" value="55"/>
                              <par name="width" value="127"/>
                              <par name="amplitude_multiplier_type" value="0"/>
                              <par name="amplitude_multiplier_mode" value="2"/>
                              <par name="amplitude_multiplier_par1" value="80"/>
                              <par name="amplitude_multiplier_par2" value="4"/>
                              <par_bool name="autoscale" value="yes"/>
                              <par name="one_half" value="0"/>
                            </HARMONIC_PROFILE>
                            <OSCIL>
                              <par name="harmonic_mag_type" value="0"/>
                              <par name="base_function" value="0"/>
                              <par name="base_function_par" value="48"/>
                              <par name="base_function_modulation" value="0"/>
                              <par name="base_function_modulation_par1" value="64"/>
                              <par name="base_function_modulation_par2" value="64"/>
                              <par name="base_function_modulation_par3" value="32"/>
                              <par name="modulation" value="0"/>
                              <par name="modulation_par1" value="64"/>
                              <par name="modulation_par2" value="64"/>
                              <par name="modulation_par3" value="32"/>
                              <par name="wave_shaping" value="121"/>
                              <par name="wave_shaping_function" value="14"/>
                              <par name="filter_type" value="13"/>
                              <par name="filter_par1" value="23"/>
                              <par name="filter_par2" value="92"/>
                              <par name="filter_before_wave_shaping" value="0"/>
                              <par name="spectrum_adjust_type" value="0"/>
                              <par name="spectrum_adjust_par" value="49"/>
                              <par name="rand" value="64"/>
                              <par name="amp_rand_type" value="0"/>
                              <par name="amp_rand_power" value="64"/>
                              <par name="harmonic_shift" value="0"/>
                              <par_bool name="harmonic_shift_first" value="no"/>
                              <par name="adaptive_harmonics" value="0"/>
                              <par name="adaptive_harmonics_base_frequency" value="114"/>
                              <par name="adaptive_harmonics_power" value="63"/>
                              <HARMONICS>
                                <HARMONIC id="1">
                                  <par name="mag" value="127"/>
                                  <par name="phase" value="64"/>
                                </HARMONIC>
                                <HARMONIC id="2">
                                  <par name="mag" value="75"/>
                                  <par name="phase" value="64"/>
                                </HARMONIC>
                                <HARMONIC id="4">
                                  <par name="mag" value="84"/>
                                  <par name="phase" value="64"/>
                                </HARMONIC>
                              </HARMONICS>
                            </OSCIL>
                            <RESONANCE>
                              <par_bool name="enabled" value="no"/>
                            </RESONANCE>
                            <HARMONIC_POSITION>
                              <par name="type" value="6"/>
                              <par name="parameter1" value="176"/>
                              <par name="parameter2" value="159"/>
                              <par name="parameter3" value="255"/>
                            </HARMONIC_POSITION>
                            <SAMPLE_QUALITY>
                              <par name="samplesize" value="3"/>
                              <par name="basenote" value="5"/>
                              <par name="octaves" value="4"/>
                              <par name="samples_per_octave" value="2"/>
                            </SAMPLE_QUALITY>
                            <AMPLITUDE_PARAMETERS>
                              <par name="volume" value="98"/>
                              <par name="panning" value="64"/>
                              <par name="velocity_sensing" value="73"/>
                              <par name="punch_strength" value="37"/>
                              <par name="punch_time" value="60"/>
                              <par name="punch_stretch" value="64"/>
                              <par name="punch_velocity_sensing" value="56"/>
                              <AMPLITUDE_ENVELOPE>
                                <par_bool name="free_mode" value="no"/>
                                <par name="env_points" value="4"/>
                                <par name="env_sustain" value="2"/>
                                <par name="env_stretch" value="36"/>
                                <par_bool name="forced_release" value="yes"/>
                                <par_bool name="linear_envelope" value="no"/>
                                <par name="A_dt" value="14"/>
                                <par name="D_dt" value="113"/>
                                <par name="R_dt" value="15"/>
                                <par name="A_val" value="64"/>
                                <par name="D_val" value="64"/>
                                <par name="S_val" value="0"/>
                                <par name="R_val" value="64"/>
                              </AMPLITUDE_ENVELOPE>
                              <AMPLITUDE_LFO>
                                <par_real name="freq" value="0.629921"/>
                                <par name="intensity" value="0"/>
                                <par name="start_phase" value="64"/>
                                <par name="lfo_type" value="0"/>
                                <par name="randomness_amplitude" value="0"/>
                                <par name="randomness_frequency" value="0"/>
                                <par name="delay" value="0"/>
                                <par name="stretch" value="64"/>
                                <par_bool name="continous" value="no"/>
                              </AMPLITUDE_LFO>
                            </AMPLITUDE_PARAMETERS>
                            <FREQUENCY_PARAMETERS>
                              <par name="fixed_freq" value="0"/>
                              <par name="fixed_freq_et" value="0"/>
                              <par name="detune" value="8192"/>
                              <par name="coarse_detune" value="0"/>
                              <par name="detune_type" value="1"/>
                              <FREQUENCY_ENVELOPE>
                                <par_bool name="free_mode" value="no"/>
                                <par name="env_points" value="3"/>
                                <par name="env_sustain" value="1"/>
                                <par name="env_stretch" value="0"/>
                                <par_bool name="forced_release" value="no"/>
                                <par_bool name="linear_envelope" value="no"/>
                                <par name="A_dt" value="50"/>
                                <par name="D_dt" value="10"/>
                                <par name="R_dt" value="60"/>
                                <par name="A_val" value="64"/>
                                <par name="D_val" value="64"/>
                                <par name="S_val" value="64"/>
                                <par name="R_val" value="64"/>
                              </FREQUENCY_ENVELOPE>
                              <FREQUENCY_LFO>
                                <par_real name="freq" value="0.610681"/>
                                <par name="intensity" value="0"/>
                                <par name="start_phase" value="64"/>
                                <par name="lfo_type" value="0"/>
                                <par name="randomness_amplitude" value="0"/>
                                <par name="randomness_frequency" value="47"/>
                                <par name="delay" value="0"/>
                                <par name="stretch" value="64"/>
                                <par_bool name="continous" value="no"/>
                              </FREQUENCY_LFO>
                            </FREQUENCY_PARAMETERS>
                            <FILTER_PARAMETERS>
                              <par name="velocity_sensing_amplitude" value="127"/>
                              <par name="velocity_sensing" value="92"/>
                              <FILTER>
                                <par name="category" value="0"/>
                                <par name="type" value="0"/>
                                <par name="freq" value="127"/>
                                <par name="q" value="0"/>
                                <par name="stages" value="2"/>
                                <par name="freq_track" value="63"/>
                                <par name="gain" value="64"/>
                              </FILTER>
                              <FILTER_ENVELOPE>
                                <par_bool name="free_mode" value="no"/>
                                <par name="env_points" value="4"/>
                                <par name="env_sustain" value="2"/>
                                <par name="env_stretch" value="22"/>
                                <par_bool name="forced_release" value="yes"/>
                                <par_bool name="linear_envelope" value="no"/>
                                <par name="A_dt" value="0"/>
                                <par name="D_dt" value="127"/>
                                <par name="R_dt" value="127"/>
                                <par name="A_val" value="127"/>
                                <par name="D_val" value="127"/>
                                <par name="S_val" value="64"/>
                                <par name="R_val" value="0"/>
                              </FILTER_ENVELOPE>
                              <FILTER_LFO>
                                <par_real name="freq" value="0.484921"/>
                                <par name="intensity" value="13"/>
                                <par name="start_phase" value="59"/>
                                <par name="lfo_type" value="0"/>
                                <par name="randomness_amplitude" value="0"/>
                                <par name="randomness_frequency" value="0"/>
                                <par name="delay" value="0"/>
                                <par name="stretch" value="64"/>
                                <par_bool name="continous" value="no"/>
                              </FILTER_LFO>
                            </FILTER_PARAMETERS>
                          </PAD_SYNTH_PARAMETERS>
                        </INSTRUMENT_KIT_ITEM>
                        <INSTRUMENT_KIT_ITEM id="1">
                          <par_bool name="enabled" value="no"/>
                        </INSTRUMENT_KIT_ITEM>
                        <INSTRUMENT_KIT_ITEM id="2">
                          <par_bool name="enabled" value="no"/>
                        </INSTRUMENT_KIT_ITEM>
                        <INSTRUMENT_KIT_ITEM id="3">
                          <par_bool name="enabled" value="no"/>
                        </INSTRUMENT_KIT_ITEM>
                        <INSTRUMENT_KIT_ITEM id="4">
                          <par_bool name="enabled" value="no"/>
                        </INSTRUMENT_KIT_ITEM>
                        <INSTRUMENT_KIT_ITEM id="5">
                          <par_bool name="enabled" value="no"/>
                        </INSTRUMENT_KIT_ITEM>
                        <INSTRUMENT_KIT_ITEM id="6">
                          <par_bool name="enabled" value="no"/>
                        </INSTRUMENT_KIT_ITEM>
                        <INSTRUMENT_KIT_ITEM id="7">
                          <par_bool name="enabled" value="no"/>
                        </INSTRUMENT_KIT_ITEM>
                        <INSTRUMENT_KIT_ITEM id="8">
                          <par_bool name="enabled" value="no"/>
                        </INSTRUMENT_KIT_ITEM>
                        <INSTRUMENT_KIT_ITEM id="9">
                          <par_bool name="enabled" value="no"/>
                        </INSTRUMENT_KIT_ITEM>
                        <INSTRUMENT_KIT_ITEM id="10">
                          <par_bool name="enabled" value="no"/>
                        </INSTRUMENT_KIT_ITEM>
                        <INSTRUMENT_KIT_ITEM id="11">
                          <par_bool name="enabled" value="no"/>
                        </INSTRUMENT_KIT_ITEM>
                        <INSTRUMENT_KIT_ITEM id="12">
                          <par_bool name="enabled" value="no"/>
                        </INSTRUMENT_KIT_ITEM>
                        <INSTRUMENT_KIT_ITEM id="13">
                          <par_bool name="enabled" value="no"/>
                        </INSTRUMENT_KIT_ITEM>
                        <INSTRUMENT_KIT_ITEM id="14">
                          <par_bool name="enabled" value="no"/>
                        </INSTRUMENT_KIT_ITEM>
                        <INSTRUMENT_KIT_ITEM id="15">
                          <par_bool name="enabled" value="no"/>
                        </INSTRUMENT_KIT_ITEM>
                      </INSTRUMENT_KIT>
                      <INSTRUMENT_EFFECTS>
                        <INSTRUMENT_EFFECT id="0">
                          <EFFECT>
                            <par name="type" value="3"/>
                            <par name="preset" value="0"/>
                            <EFFECT_PARAMETERS>
                              <par_no id="0">
                                <par name="par" value="127"/>
                              </par_no>
                              <par_no id="1">
                                <par name="par" value="64"/>
                              </par_no>
                              <par_no id="2">
                                <par name="par" value="80"/>
                              </par_no>
                              <par_no id="5">
                                <par name="par" value="127"/>
                              </par_no>
                              <par_no id="6">
                                <par name="par" value="17"/>
                              </par_no>
                              <par_no id="7">
                                <par name="par" value="85"/>
                              </par_no>
                              <par_no id="8">
                                <par name="par" value="102"/>
                              </par_no>
                              <par_no id="9">
                                <par name="par" value="119"/>
                              </par_no>
                            </EFFECT_PARAMETERS>
                          </EFFECT>
                          <par name="route" value="0"/>
                          <par_bool name="bypass" value="yes"/>
                        </INSTRUMENT_EFFECT>
                        <INSTRUMENT_EFFECT id="1">
                          <EFFECT>
                            <par name="type" value="0"/>
                          </EFFECT>
                          <par name="route" value="0"/>
                          <par_bool name="bypass" value="no"/>
                        </INSTRUMENT_EFFECT>
                        <INSTRUMENT_EFFECT id="2">
                          <EFFECT>
                            <par name="type" value="0"/>
                          </EFFECT>
                          <par name="route" value="0"/>
                          <par_bool name="bypass" value="no"/>
                        </INSTRUMENT_EFFECT>
                      </INSTRUMENT_EFFECTS>
                    </INSTRUMENT>
                    <CONTROLLER>
                      <par name="pitchwheel_bendrange" value="100"/>
                      <par_bool name="expression_receive" value="yes"/>
                      <par name="panning_depth" value="64"/>
                      <par name="filter_cutoff_depth" value="64"/>
                      <par name="filter_q_depth" value="64"/>
                      <par name="bandwidth_depth" value="64"/>
                      <par name="mod_wheel_depth" value="80"/>
                      <par_bool name="mod_wheel_exponential" value="no"/>
                      <par_bool name="fm_amp_receive" value="yes"/>
                      <par_bool name="volume_receive" value="yes"/>
                      <par_bool name="sustain_receive" value="yes"/>
                      <par_bool name="portamento_receive" value="yes"/>
                      <par name="portamento_time" value="64"/>
                      <par name="portamento_pitchthresh" value="3"/>
                      <par name="portamento_pitchthreshtype" value="1"/>
                      <par name="portamento_portamento" value="0"/>
                      <par name="portamento_updowntimestretch" value="64"/>
                      <par name="portamento_proportional" value="0"/>
                      <par name="portamento_proprate" value="80"/>
                      <par name="portamento_propdepth" value="90"/>
                      <par name="resonance_center_depth" value="64"/>
                      <par name="resonance_bandwidth_depth" value="64"/>
                    </CONTROLLER>
                  </PART>
                  <PART id="1">
                    <par_bool name="enabled" value="no"/>
                  </PART>
                  <PART id="2">
                    <par_bool name="enabled" value="no"/>
                  </PART>
                  <PART id="3">
                    <par_bool name="enabled" value="no"/>
                  </PART>
                  <PART id="4">
                    <par_bool name="enabled" value="no"/>
                  </PART>
                  <PART id="5">
                    <par_bool name="enabled" value="no"/>
                  </PART>
                  <PART id="6">
                    <par_bool name="enabled" value="no"/>
                  </PART>
                  <PART id="7">
                    <par_bool name="enabled" value="no"/>
                  </PART>
                  <PART id="8">
                    <par_bool name="enabled" value="no"/>
                  </PART>
                  <PART id="9">
                    <par_bool name="enabled" value="no"/>
                  </PART>
                  <PART id="10">
                    <par_bool name="enabled" value="no"/>
                  </PART>
                  <PART id="11">
                    <par_bool name="enabled" value="no"/>
                  </PART>
                  <PART id="12">
                    <par_bool name="enabled" value="no"/>
                  </PART>
                  <PART id="13">
                    <par_bool name="enabled" value="no"/>
                  </PART>
                  <PART id="14">
                    <par_bool name="enabled" value="no"/>
                  </PART>
                  <PART id="15">
                    <par_bool name="enabled" value="no"/>
                  </PART>
                  <SYSTEM_EFFECTS>
                    <SYSTEM_EFFECT id="0">
                      <EFFECT>
                        <par name="type" value="0"/>
                      </EFFECT>
                      <VOLUME id="0">
                        <par name="vol" value="0"/>
                      </VOLUME>
                      <VOLUME id="1">
                        <par name="vol" value="0"/>
                      </VOLUME>
                      <VOLUME id="2">
                        <par name="vol" value="0"/>
                      </VOLUME>
                      <VOLUME id="3">
                        <par name="vol" value="0"/>
                      </VOLUME>
                      <VOLUME id="4">
                        <par name="vol" value="0"/>
                      </VOLUME>
                      <VOLUME id="5">
                        <par name="vol" value="0"/>
                      </VOLUME>
                      <VOLUME id="6">
                        <par name="vol" value="0"/>
                      </VOLUME>
                      <VOLUME id="7">
                        <par name="vol" value="0"/>
                      </VOLUME>
                      <VOLUME id="8">
                        <par name="vol" value="0"/>
                      </VOLUME>
                      <VOLUME id="9">
                        <par name="vol" value="0"/>
                      </VOLUME>
                      <VOLUME id="10">
                        <par name="vol" value="0"/>
                      </VOLUME>
                      <VOLUME id="11">
                        <par name="vol" value="0"/>
                      </VOLUME>
                      <VOLUME id="12">
                        <par name="vol" value="0"/>
                      </VOLUME>
                      <VOLUME id="13">
                        <par name="vol" value="0"/>
                      </VOLUME>
                      <VOLUME id="14">
                        <par name="vol" value="0"/>
                      </VOLUME>
                      <VOLUME id="15">
                        <par name="vol" value="0"/>
                      </VOLUME>
                      <SENDTO id="1">
                        <par name="send_vol" value="0"/>
                      </SENDTO>
                      <SENDTO id="2">
                        <par name="send_vol" value="0"/>
                      </SENDTO>
                      <SENDTO id="3">
                        <par name="send_vol" value="0"/>
                      </SENDTO>
                    </SYSTEM_EFFECT>
                    <SYSTEM_EFFECT id="1">
                      <EFFECT>
                        <par name="type" value="0"/>
                      </EFFECT>
                      <VOLUME id="0">
                        <par name="vol" value="0"/>
                      </VOLUME>
                      <VOLUME id="1">
                        <par name="vol" value="0"/>
                      </VOLUME>
                      <VOLUME id="2">
                        <par name="vol" value="0"/>
                      </VOLUME>
                      <VOLUME id="3">
                        <par name="vol" value="0"/>
                      </VOLUME>
                      <VOLUME id="4">
                        <par name="vol" value="0"/>
                      </VOLUME>
                      <VOLUME id="5">
                        <par name="vol" value="0"/>
                      </VOLUME>
                      <VOLUME id="6">
                        <par name="vol" value="0"/>
                      </VOLUME>
                      <VOLUME id="7">
                        <par name="vol" value="0"/>
                      </VOLUME>
                      <VOLUME id="8">
                        <par name="vol" value="0"/>
                      </VOLUME>
                      <VOLUME id="9">
                        <par name="vol" value="0"/>
                      </VOLUME>
                      <VOLUME id="10">
                        <par name="vol" value="0"/>
                      </VOLUME>
                      <VOLUME id="11">
                        <par name="vol" value="0"/>
                      </VOLUME>
                      <VOLUME id="12">
                        <par name="vol" value="0"/>
                      </VOLUME>
                      <VOLUME id="13">
                        <par name="vol" value="0"/>
                      </VOLUME>
                      <VOLUME id="14">
                        <par name="vol" value="0"/>
                      </VOLUME>
                      <VOLUME id="15">
                        <par name="vol" value="0"/>
                      </VOLUME>
                      <SENDTO id="2">
                        <par name="send_vol" value="0"/>
                      </SENDTO>
                      <SENDTO id="3">
                        <par name="send_vol" value="0"/>
                      </SENDTO>
                    </SYSTEM_EFFECT>
                    <SYSTEM_EFFECT id="2">
                      <EFFECT>
                        <par name="type" value="0"/>
                      </EFFECT>
                      <VOLUME id="0">
                        <par name="vol" value="0"/>
                      </VOLUME>
                      <VOLUME id="1">
                        <par name="vol" value="0"/>
                      </VOLUME>
                      <VOLUME id="2">
                        <par name="vol" value="0"/>
                      </VOLUME>
                      <VOLUME id="3">
                        <par name="vol" value="0"/>
                      </VOLUME>
                      <VOLUME id="4">
                        <par name="vol" value="0"/>
                      </VOLUME>
                      <VOLUME id="5">
                        <par name="vol" value="0"/>
                      </VOLUME>
                      <VOLUME id="6">
                        <par name="vol" value="0"/>
                      </VOLUME>
                      <VOLUME id="7">
                        <par name="vol" value="0"/>
                      </VOLUME>
                      <VOLUME id="8">
                        <par name="vol" value="0"/>
                      </VOLUME>
                      <VOLUME id="9">
                        <par name="vol" value="0"/>
                      </VOLUME>
                      <VOLUME id="10">
                        <par name="vol" value="0"/>
                      </VOLUME>
                      <VOLUME id="11">
                        <par name="vol" value="0"/>
                      </VOLUME>
                      <VOLUME id="12">
                        <par name="vol" value="0"/>
                      </VOLUME>
                      <VOLUME id="13">
                        <par name="vol" value="0"/>
                      </VOLUME>
                      <VOLUME id="14">
                        <par name="vol" value="0"/>
                      </VOLUME>
                      <VOLUME id="15">
                        <par name="vol" value="0"/>
                      </VOLUME>
                      <SENDTO id="3">
                        <par name="send_vol" value="0"/>
                      </SENDTO>
                    </SYSTEM_EFFECT>
                    <SYSTEM_EFFECT id="3">
                      <EFFECT>
                        <par name="type" value="0"/>
                      </EFFECT>
                      <VOLUME id="0">
                        <par name="vol" value="0"/>
                      </VOLUME>
                      <VOLUME id="1">
                        <par name="vol" value="0"/>
                      </VOLUME>
                      <VOLUME id="2">
                        <par name="vol" value="0"/>
                      </VOLUME>
                      <VOLUME id="3">
                        <par name="vol" value="0"/>
                      </VOLUME>
                      <VOLUME id="4">
                        <par name="vol" value="0"/>
                      </VOLUME>
                      <VOLUME id="5">
                        <par name="vol" value="0"/>
                      </VOLUME>
                      <VOLUME id="6">
                        <par name="vol" value="0"/>
                      </VOLUME>
                      <VOLUME id="7">
                        <par name="vol" value="0"/>
                      </VOLUME>
                      <VOLUME id="8">
                        <par name="vol" value="0"/>
                      </VOLUME>
                      <VOLUME id="9">
                        <par name="vol" value="0"/>
                      </VOLUME>
                      <VOLUME id="10">
                        <par name="vol" value="0"/>
                      </VOLUME>
                      <VOLUME id="11">
                        <par name="vol" value="0"/>
                      </VOLUME>
                      <VOLUME id="12">
                        <par name="vol" value="0"/>
                      </VOLUME>
                      <VOLUME id="13">
                        <par name="vol" value="0"/>
                      </VOLUME>
                      <VOLUME id="14">
                        <par name="vol" value="0"/>
                      </VOLUME>
                      <VOLUME id="15">
                        <par name="vol" value="0"/>
                      </VOLUME>
                    </SYSTEM_EFFECT>
                  </SYSTEM_EFFECTS>
                  <INSERTION_EFFECTS>
                    <INSERTION_EFFECT id="0">
                      <par name="part" value="-1"/>
                      <EFFECT>
                        <par name="type" value="0"/>
                      </EFFECT>
                    </INSERTION_EFFECT>
                    <INSERTION_EFFECT id="1">
                      <par name="part" value="-1"/>
                      <EFFECT>
                        <par name="type" value="0"/>
                      </EFFECT>
                    </INSERTION_EFFECT>
                    <INSERTION_EFFECT id="2">
                      <par name="part" value="-1"/>
                      <EFFECT>
                        <par name="type" value="0"/>
                      </EFFECT>
                    </INSERTION_EFFECT>
                    <INSERTION_EFFECT id="3">
                      <par name="part" value="-1"/>
                      <EFFECT>
                        <par name="type" value="0"/>
                      </EFFECT>
                    </INSERTION_EFFECT>
                    <INSERTION_EFFECT id="4">
                      <par name="part" value="-1"/>
                      <EFFECT>
                        <par name="type" value="0"/>
                      </EFFECT>
                    </INSERTION_EFFECT>
                    <INSERTION_EFFECT id="5">
                      <par name="part" value="-1"/>
                      <EFFECT>
                        <par name="type" value="0"/>
                      </EFFECT>
                    </INSERTION_EFFECT>
                    <INSERTION_EFFECT id="6">
                      <par name="part" value="-1"/>
                      <EFFECT>
                        <par name="type" value="0"/>
                      </EFFECT>
                    </INSERTION_EFFECT>
                    <INSERTION_EFFECT id="7">
                      <par name="part" value="-1"/>
                      <EFFECT>
                        <par name="type" value="0"/>
                      </EFFECT>
                    </INSERTION_EFFECT>
                  </INSERTION_EFFECTS>
                </MASTER>
              </ZynAddSubFX-data>
            </zynaddsubfx>
          </instrument>
          <eldata fwet="0" fcut="14000" ftype="0" fres="0.5">
            <elvol x100="0" userwavefile="" dec="0.5" amt="0" pdel="0" hold="0.5" lamt="0" lpdel="0" lshp="0" lspd_denominator="4" att="0" ctlenvamt="0" lspd="0.1" lspd_syncmode="0" rel="0.1" latt="0" lspd_numerator="4" sustain="0.5"/>
            <elcut x100="0" userwavefile="" dec="0.5" amt="0" pdel="0" hold="0.5" lamt="0" lpdel="0" lshp="0" lspd_denominator="4" att="0" ctlenvamt="0" lspd="0.1" lspd_syncmode="0" rel="0.1" latt="0" lspd_numerator="4" sustain="0.5"/>
            <elres x100="0" userwavefile="" dec="0.5" amt="0" pdel="0" hold="0.5" lamt="0" lpdel="0" lshp="0" lspd_denominator="4" att="0" ctlenvamt="0" lspd="0.1" lspd_syncmode="0" rel="0.1" latt="0" lspd_numerator="4" sustain="0.5"/>
          </eldata>
          <chordcreator chord-enabled="0" chord="0" chordrange="1"/>
          <arpeggiator arprange="1" arpmode="0" arp="0" arptime_numerator="4" arpmiss="0" arptime_denominator="4" arpcycle="0" arpskip="0" arptime_syncmode="0" arpgate="100" arptime="200" arpdir="0" arp-enabled="0"/>
          <midiport fixedoutputnote="-1" outputprogram="1" inputcontroller="0" writable="0" fixedoutputvelocity="-1" readable="0" outputchannel="1" basevelocity="63" outputcontroller="0" fixedinputvelocity="-1" inputchannel="0"/>
          <fxchain numofeffects="1" enabled="1">
            <effect autoquit_numerator="4" name="ladspaeffect" autoquit_denominator="4" autoquit="1" wet="1" autoquit_syncmode="0" gate="0" on="1">
              <ladspacontrols link="1" ports="12">
                <port01 link="1" data_numerator="4" data_syncmode="0" data_denominator="4">
                  <data scale_type="log" id="3333524" value="2.95313"/>
                </port01>
                <port02 link="1" data="6.67375" data_numerator="4" data_syncmode="0" data_denominator="4"/>
                <port03 link="1" data="1.45"/>
                <port04 link="1" data="1"/>
                <port05 link="1" data="0.37875"/>
                <port06 link="1" data="0.2825"/>
                <port11 data_numerator="4" data_syncmode="0" data_denominator="4">
                  <data scale_type="log" id="1009611" value="2.95313"/>
                </port11>
                <port12 data="6.67375" data_numerator="4" data_syncmode="0" data_denominator="4"/>
                <port13 data="1.45"/>
                <port14 data="1"/>
                <port15 data="0.37875"/>
                <port16 data="0.2825"/>
              </ladspacontrols>
              <key>
                <attribute name="file" value="caps"/>
                <attribute name="plugin" value="ChorusI"/>
              </key>
            </effect>
          </fxchain>
        </instrumenttrack>
        <pattern name="" steps="16" pos="8064" muted="0" type="1">
          <note pos="0" vol="78" len="24" pan="0" key="61"/>
          <note pos="24" vol="78" len="24" pan="0" key="68"/>
          <note pos="48" vol="78" len="24" pan="0" key="73"/>
          <note pos="72" vol="78" len="24" pan="0" key="68"/>
          <note pos="96" vol="78" len="24" pan="0" key="76"/>
          <note pos="120" vol="78" len="24" pan="0" key="68"/>
          <note pos="144" vol="78" len="24" pan="0" key="73"/>
          <note pos="168" vol="78" len="24" pan="0" key="68"/>
          <note pos="192" vol="78" len="24" pan="0" key="63"/>
          <note pos="216" vol="78" len="24" pan="0" key="68"/>
          <note pos="240" vol="78" len="24" pan="0" key="71"/>
          <note pos="264" vol="78" len="24" pan="0" key="68"/>
          <note pos="288" vol="78" len="24" pan="0" key="63"/>
          <note pos="312" vol="78" len="24" pan="0" key="68"/>
          <note pos="336" vol="78" len="24" pan="0" key="71"/>
          <note pos="360" vol="78" len="24" pan="0" key="68"/>
          <note pos="384" vol="78" len="24" pan="0" key="64"/>
          <note pos="408" vol="78" len="24" pan="0" key="68"/>
          <note pos="432" vol="78" len="24" pan="0" key="73"/>
          <note pos="456" vol="78" len="24" pan="0" key="68"/>
          <note pos="480" vol="78" len="24" pan="0" key="64"/>
          <note pos="504" vol="78" len="24" pan="0" key="68"/>
          <note pos="528" vol="78" len="24" pan="0" key="73"/>
          <note pos="552" vol="78" len="24" pan="0" key="68"/>
          <note pos="576" vol="78" len="24" pan="0" key="66"/>
          <note pos="600" vol="78" len="24" pan="0" key="71"/>
          <note pos="624" vol="78" len="24" pan="0" key="76"/>
          <note pos="648" vol="78" len="24" pan="0" key="71"/>
          <note pos="672" vol="78" len="24" pan="0" key="66"/>
          <note pos="696" vol="78" len="24" pan="0" key="71"/>
          <note pos="720" vol="78" len="24" pan="0" key="75"/>
          <note pos="744" vol="78" len="24" pan="0" key="71"/>
          <note pos="768" vol="78" len="24" pan="0" key="64"/>
          <note pos="792" vol="78" len="24" pan="0" key="68"/>
          <note pos="816" vol="78" len="24" pan="0" key="73"/>
          <note pos="840" vol="78" len="24" pan="0" key="68"/>
          <note pos="864" vol="78" len="24" pan="0" key="64"/>
          <note pos="888" vol="78" len="24" pan="0" key="68"/>
          <note pos="912" vol="78" len="24" pan="0" key="73"/>
          <note pos="936" vol="78" len="24" pan="0" key="68"/>
          <note pos="960" vol="78" len="24" pan="0" key="63"/>
          <note pos="984" vol="78" len="24" pan="0" key="66"/>
          <note pos="1008" vol="78" len="24" pan="0" key="71"/>
          <note pos="1032" vol="78" len="24" pan="0" key="66"/>
          <note pos="1056" vol="78" len="24" pan="0" key="63"/>
          <note pos="1080" vol="78" len="24" pan="0" key="66"/>
          <note pos="1104" vol="78" len="24" pan="0" key="71"/>
          <note pos="1128" vol="78" len="24" pan="0" key="66"/>
          <note pos="1152" vol="78" len="24" pan="0" key="64"/>
          <note pos="1176" vol="78" len="24" pan="0" key="68"/>
          <note pos="1200" vol="78" len="24" pan="0" key="73"/>
          <note pos="1224" vol="78" len="24" pan="0" key="68"/>
          <note pos="1248" vol="78" len="24" pan="0" key="64"/>
          <note pos="1272" vol="78" len="24" pan="0" key="68"/>
          <note pos="1296" vol="78" len="24" pan="0" key="73"/>
          <note pos="1320" vol="78" len="24" pan="0" key="68"/>
          <note pos="1344" vol="78" len="24" pan="0" key="66"/>
          <note pos="1368" vol="78" len="24" pan="0" key="68"/>
          <note pos="1392" vol="78" len="24" pan="0" key="66"/>
          <note pos="1416" vol="78" len="24" pan="0" key="64"/>
          <note pos="1440" vol="78" len="24" pan="0" key="63"/>
          <note pos="1464" vol="78" len="24" pan="0" key="60"/>
          <note pos="1488" vol="78" len="24" pan="0" key="66"/>
          <note pos="1512" vol="78" len="24" pan="0" key="63"/>
          <note pos="1536" vol="78" len="24" pan="0" key="61"/>
          <note pos="1560" vol="78" len="24" pan="0" key="68"/>
          <note pos="1584" vol="78" len="24" pan="0" key="73"/>
          <note pos="1608" vol="78" len="24" pan="0" key="68"/>
          <note pos="1632" vol="78" len="24" pan="0" key="61"/>
          <note pos="1656" vol="78" len="24" pan="0" key="68"/>
          <note pos="1680" vol="78" len="24" pan="0" key="73"/>
          <note pos="1704" vol="78" len="24" pan="0" key="68"/>
          <note pos="1728" vol="78" len="24" pan="0" key="63"/>
          <note pos="1752" vol="78" len="24" pan="0" key="68"/>
          <note pos="1776" vol="78" len="24" pan="0" key="71"/>
          <note pos="1800" vol="78" len="24" pan="0" key="68"/>
          <note pos="1824" vol="78" len="24" pan="0" key="63"/>
          <note pos="1848" vol="78" len="24" pan="0" key="68"/>
          <note pos="1872" vol="78" len="24" pan="0" key="71"/>
          <note pos="1896" vol="78" len="24" pan="0" key="68"/>
          <note pos="1920" vol="78" len="24" pan="0" key="61"/>
          <note pos="1944" vol="78" len="24" pan="0" key="66"/>
          <note pos="1968" vol="78" len="24" pan="0" key="70"/>
          <note pos="1992" vol="78" len="24" pan="0" key="66"/>
          <note pos="2016" vol="78" len="24" pan="0" key="61"/>
          <note pos="2040" vol="78" len="24" pan="0" key="66"/>
          <note pos="2064" vol="78" len="24" pan="0" key="70"/>
          <note pos="2088" vol="78" len="24" pan="0" key="66"/>
          <note pos="2112" vol="78" len="24" pan="0" key="61"/>
          <note pos="2136" vol="78" len="24" pan="0" key="66"/>
          <note pos="2160" vol="78" len="24" pan="0" key="70"/>
          <note pos="2184" vol="78" len="24" pan="0" key="66"/>
          <note pos="2208" vol="78" len="24" pan="0" key="61"/>
          <note pos="2232" vol="78" len="24" pan="0" key="66"/>
          <note pos="2256" vol="78" len="24" pan="0" key="70"/>
          <note pos="2280" vol="78" len="24" pan="0" key="66"/>
          <note pos="2304" vol="78" len="24" pan="0" key="66"/>
          <note pos="2328" vol="78" len="24" pan="0" key="69"/>
          <note pos="2352" vol="78" len="24" pan="0" key="73"/>
          <note pos="2376" vol="78" len="24" pan="0" key="69"/>
          <note pos="2400" vol="78" len="24" pan="0" key="66"/>
          <note pos="2424" vol="78" len="24" pan="0" key="69"/>
          <note pos="2448" vol="78" len="24" pan="0" key="73"/>
          <note pos="2472" vol="78" len="24" pan="0" key="69"/>
          <note pos="2496" vol="78" len="24" pan="0" key="63"/>
          <note pos="2520" vol="78" len="24" pan="0" key="68"/>
          <note pos="2544" vol="78" len="24" pan="0" key="73"/>
          <note pos="2568" vol="78" len="24" pan="0" key="68"/>
          <note pos="2592" vol="78" len="24" pan="0" key="63"/>
          <note pos="2616" vol="78" len="24" pan="0" key="68"/>
          <note pos="2640" vol="78" len="24" pan="0" key="73"/>
          <note pos="2664" vol="78" len="24" pan="0" key="68"/>
          <note pos="2688" vol="78" len="24" pan="0" key="66"/>
          <note pos="2712" vol="78" len="24" pan="0" key="71"/>
          <note pos="2736" vol="78" len="24" pan="0" key="75"/>
          <note pos="2760" vol="78" len="24" pan="0" key="71"/>
          <note pos="2784" vol="78" len="24" pan="0" key="66"/>
          <note pos="2808" vol="78" len="24" pan="0" key="71"/>
          <note pos="2832" vol="78" len="24" pan="0" key="75"/>
          <note pos="2856" vol="78" len="24" pan="0" key="71"/>
          <note pos="2880" vol="78" len="96" pan="0" key="66"/>
          <note pos="2976" vol="78" len="96" pan="0" key="59"/>
          <note pos="3072" vol="78" len="12" pan="0" key="68"/>
          <note pos="3084" vol="78" len="12" pan="0" key="64"/>
          <note pos="3096" vol="78" len="12" pan="0" key="61"/>
          <note pos="3108" vol="78" len="12" pan="0" key="56"/>
          <note pos="3120" vol="78" len="12" pan="0" key="52"/>
          <note pos="3132" vol="78" len="12" pan="0" key="49"/>
          <note pos="3168" vol="78" len="12" pan="0" key="61"/>
          <note pos="3180" vol="78" len="12" pan="0" key="56"/>
          <note pos="3192" vol="78" len="12" pan="0" key="52"/>
          <note pos="3204" vol="78" len="12" pan="0" key="49"/>
          <note pos="3216" vol="78" len="12" pan="0" key="76"/>
          <note pos="3228" vol="78" len="12" pan="0" key="71"/>
          <note pos="3240" vol="78" len="12" pan="0" key="68"/>
          <note pos="3252" vol="78" len="12" pan="0" key="64"/>
          <note pos="3264" vol="78" len="12" pan="0" key="76"/>
          <note pos="3276" vol="78" len="12" pan="0" key="71"/>
          <note pos="3288" vol="78" len="12" pan="0" key="80"/>
          <note pos="3300" vol="78" len="12" pan="0" key="76"/>
          <note pos="3312" vol="78" len="12" pan="0" key="71"/>
          <note pos="3324" vol="78" len="12" pan="0" key="68"/>
          <note pos="3336" vol="78" len="12" pan="0" key="64"/>
          <note pos="3348" vol="78" len="12" pan="0" key="61"/>
          <note pos="3360" vol="78" len="12" pan="0" key="73"/>
          <note pos="3372" vol="78" len="12" pan="0" key="68"/>
          <note pos="3384" vol="78" len="12" pan="0" key="64"/>
          <note pos="3396" vol="78" len="12" pan="0" key="61"/>
          <note pos="3408" vol="78" len="12" pan="0" key="68"/>
          <note pos="3420" vol="78" len="12" pan="0" key="64"/>
          <note pos="3432" vol="78" len="12" pan="0" key="56"/>
          <note pos="3444" vol="78" len="12" pan="0" key="49"/>
          <note pos="3456" vol="78" len="12" pan="0" key="69"/>
          <note pos="3468" vol="78" len="12" pan="0" key="66"/>
          <note pos="3480" vol="78" len="12" pan="0" key="57"/>
          <note pos="3492" vol="78" len="12" pan="0" key="54"/>
          <note pos="3504" vol="78" len="12" pan="0" key="49"/>
          <note pos="3516" vol="78" len="12" pan="0" key="47"/>
          <note pos="3528" vol="78" len="12" pan="0" key="74"/>
          <note pos="3540" vol="78" len="12" pan="0" key="69"/>
          <note pos="3552" vol="78" len="12" pan="0" key="66"/>
          <note pos="3564" vol="78" len="12" pan="0" key="61"/>
          <note pos="3576" vol="78" len="12" pan="0" key="57"/>
          <note pos="3588" vol="78" len="12" pan="0" key="54"/>
          <note pos="3600" vol="78" len="12" pan="0" key="78"/>
          <note pos="3612" vol="78" len="12" pan="0" key="74"/>
          <note pos="3624" vol="78" len="12" pan="0" key="69"/>
          <note pos="3636" vol="78" len="12" pan="0" key="66"/>
          <note pos="3672" vol="78" len="12" pan="0" key="81"/>
          <note pos="3684" vol="78" len="12" pan="0" key="78"/>
          <note pos="3696" vol="78" len="12" pan="0" key="73"/>
          <note pos="3708" vol="78" len="12" pan="0" key="69"/>
          <note pos="3720" vol="78" len="12" pan="0" key="66"/>
          <note pos="3732" vol="78" len="12" pan="0" key="61"/>
          <note pos="3744" vol="78" len="12" pan="0" key="74"/>
          <note pos="3756" vol="78" len="12" pan="0" key="71"/>
          <note pos="3768" vol="78" len="12" pan="0" key="66"/>
          <note pos="3780" vol="78" len="12" pan="0" key="61"/>
          <note pos="3792" vol="78" len="12" pan="0" key="69"/>
          <note pos="3804" vol="78" len="12" pan="0" key="66"/>
          <note pos="3816" vol="78" len="12" pan="0" key="61"/>
          <note pos="3828" vol="78" len="12" pan="0" key="57"/>
          <note pos="3840" vol="78" len="12" pan="0" key="68"/>
          <note pos="3852" vol="78" len="12" pan="0" key="64"/>
          <note pos="3864" vol="78" len="12" pan="0" key="61"/>
          <note pos="3876" vol="78" len="12" pan="0" key="56"/>
          <note pos="3888" vol="78" len="12" pan="0" key="61"/>
          <note pos="3900" vol="78" len="12" pan="0" key="64"/>
          <note pos="3912" vol="78" len="12" pan="0" key="73"/>
          <note pos="3924" vol="78" len="12" pan="0" key="69"/>
          <note pos="3936" vol="78" len="12" pan="0" key="68"/>
          <note pos="3948" vol="78" len="12" pan="0" key="64"/>
          <note pos="3960" vol="78" len="12" pan="0" key="68"/>
          <note pos="3972" vol="78" len="12" pan="0" key="73"/>
          <note pos="3972" vol="78" len="12" pan="0" key="52"/>
          <note pos="3984" vol="78" len="12" pan="0" key="76"/>
          <note pos="3996" vol="78" len="12" pan="0" key="71"/>
          <note pos="4008" vol="78" len="12" pan="0" key="68"/>
          <note pos="4020" vol="78" len="12" pan="0" key="64"/>
          <note pos="4032" vol="78" len="12" pan="0" key="68"/>
          <note pos="4044" vol="78" len="12" pan="0" key="71"/>
          <note pos="4056" vol="78" len="12" pan="0" key="81"/>
          <note pos="4068" vol="78" len="12" pan="0" key="78"/>
          <note pos="4080" vol="78" len="12" pan="0" key="74"/>
          <note pos="4092" vol="78" len="12" pan="0" key="69"/>
          <note pos="4104" vol="78" len="12" pan="0" key="66"/>
          <note pos="4116" vol="78" len="12" pan="0" key="69"/>
          <note pos="4128" vol="78" len="12" pan="0" key="73"/>
          <note pos="4140" vol="78" len="12" pan="0" key="69"/>
          <note pos="4152" vol="78" len="12" pan="0" key="66"/>
          <note pos="4164" vol="78" len="12" pan="0" key="61"/>
          <note pos="4176" vol="78" len="12" pan="0" key="68"/>
          <note pos="4188" vol="78" len="12" pan="0" key="64"/>
          <note pos="4200" vol="78" len="12" pan="0" key="61"/>
          <note pos="4212" vol="78" len="12" pan="0" key="56"/>
          <note pos="4224" vol="78" len="12" pan="0" key="69"/>
          <note pos="4236" vol="78" len="12" pan="0" key="66"/>
          <note pos="4248" vol="78" len="12" pan="0" key="57"/>
          <note pos="4260" vol="78" len="12" pan="0" key="54"/>
          <note pos="4272" vol="78" len="12" pan="0" key="57"/>
          <note pos="4272" vol="78" len="12" pan="0" key="52"/>
          <note pos="4284" vol="78" len="12" pan="0" key="62"/>
          <note pos="4284" vol="78" len="12" pan="0" key="49"/>
          <note pos="4296" vol="78" len="12" pan="0" key="74"/>
          <note pos="4308" vol="78" len="12" pan="0" key="69"/>
          <note pos="4320" vol="78" len="12" pan="0" key="66"/>
          <note pos="4332" vol="78" len="12" pan="0" key="61"/>
          <note pos="4344" vol="78" len="12" pan="0" key="57"/>
          <note pos="4356" vol="78" len="12" pan="0" key="54"/>
          <note pos="4368" vol="78" len="12" pan="0" key="78"/>
          <note pos="4380" vol="78" len="12" pan="0" key="74"/>
          <note pos="4392" vol="78" len="12" pan="0" key="69"/>
          <note pos="4404" vol="78" len="12" pan="0" key="66"/>
          <note pos="4416" vol="78" len="12" pan="0" key="69"/>
          <note pos="4428" vol="78" len="12" pan="0" key="74"/>
          <note pos="4440" vol="78" len="12" pan="0" key="81"/>
          <note pos="4452" vol="78" len="12" pan="0" key="78"/>
          <note pos="4464" vol="78" len="12" pan="0" key="73"/>
          <note pos="4476" vol="78" len="12" pan="0" key="69"/>
          <note pos="4488" vol="78" len="12" pan="0" key="66"/>
          <note pos="4500" vol="78" len="12" pan="0" key="61"/>
          <note pos="4512" vol="78" len="12" pan="0" key="74"/>
          <note pos="4524" vol="78" len="12" pan="0" key="71"/>
          <note pos="4536" vol="78" len="12" pan="0" key="66"/>
          <note pos="4548" vol="78" len="12" pan="0" key="61"/>
          <note pos="4560" vol="78" len="12" pan="0" key="69"/>
          <note pos="4572" vol="78" len="12" pan="0" key="66"/>
          <note pos="4584" vol="78" len="12" pan="0" key="61"/>
          <note pos="4596" vol="78" len="12" pan="0" key="57"/>
        </pattern>
        <pattern name="" steps="16" pos="15744" muted="0" type="1">
          <note pos="0" vol="78" len="24" pan="0" key="61"/>
          <note pos="24" vol="78" len="24" pan="0" key="68"/>
          <note pos="48" vol="78" len="24" pan="0" key="73"/>
          <note pos="72" vol="78" len="24" pan="0" key="68"/>
          <note pos="96" vol="78" len="24" pan="0" key="76"/>
          <note pos="120" vol="78" len="24" pan="0" key="68"/>
          <note pos="144" vol="78" len="24" pan="0" key="73"/>
          <note pos="168" vol="78" len="24" pan="0" key="68"/>
          <note pos="192" vol="78" len="24" pan="0" key="63"/>
          <note pos="216" vol="78" len="24" pan="0" key="68"/>
          <note pos="240" vol="78" len="24" pan="0" key="71"/>
          <note pos="264" vol="78" len="24" pan="0" key="68"/>
          <note pos="288" vol="78" len="24" pan="0" key="63"/>
          <note pos="312" vol="78" len="24" pan="0" key="68"/>
          <note pos="336" vol="78" len="24" pan="0" key="71"/>
          <note pos="360" vol="78" len="24" pan="0" key="68"/>
          <note pos="384" vol="78" len="24" pan="0" key="64"/>
          <note pos="408" vol="78" len="24" pan="0" key="68"/>
          <note pos="432" vol="78" len="24" pan="0" key="73"/>
          <note pos="456" vol="78" len="24" pan="0" key="68"/>
          <note pos="480" vol="78" len="24" pan="0" key="64"/>
          <note pos="504" vol="78" len="24" pan="0" key="68"/>
          <note pos="528" vol="78" len="24" pan="0" key="73"/>
          <note pos="552" vol="78" len="24" pan="0" key="68"/>
          <note pos="576" vol="78" len="24" pan="0" key="66"/>
          <note pos="600" vol="78" len="24" pan="0" key="71"/>
          <note pos="624" vol="78" len="24" pan="0" key="76"/>
          <note pos="648" vol="78" len="24" pan="0" key="71"/>
          <note pos="672" vol="78" len="24" pan="0" key="66"/>
          <note pos="696" vol="78" len="24" pan="0" key="71"/>
          <note pos="720" vol="78" len="24" pan="0" key="75"/>
          <note pos="744" vol="78" len="24" pan="0" key="71"/>
          <note pos="768" vol="78" len="24" pan="0" key="64"/>
          <note pos="792" vol="78" len="24" pan="0" key="68"/>
          <note pos="816" vol="78" len="24" pan="0" key="73"/>
          <note pos="840" vol="78" len="24" pan="0" key="68"/>
          <note pos="864" vol="78" len="24" pan="0" key="64"/>
          <note pos="888" vol="78" len="24" pan="0" key="68"/>
          <note pos="912" vol="78" len="24" pan="0" key="73"/>
          <note pos="936" vol="78" len="24" pan="0" key="68"/>
          <note pos="960" vol="78" len="24" pan="0" key="63"/>
          <note pos="984" vol="78" len="24" pan="0" key="66"/>
          <note pos="1008" vol="78" len="24" pan="0" key="71"/>
          <note pos="1032" vol="78" len="24" pan="0" key="66"/>
          <note pos="1056" vol="78" len="24" pan="0" key="63"/>
          <note pos="1080" vol="78" len="24" pan="0" key="66"/>
          <note pos="1104" vol="78" len="24" pan="0" key="71"/>
          <note pos="1128" vol="78" len="24" pan="0" key="66"/>
          <note pos="1152" vol="78" len="24" pan="0" key="64"/>
          <note pos="1176" vol="78" len="24" pan="0" key="68"/>
          <note pos="1200" vol="78" len="24" pan="0" key="73"/>
          <note pos="1224" vol="78" len="24" pan="0" key="68"/>
          <note pos="1248" vol="78" len="24" pan="0" key="64"/>
          <note pos="1272" vol="78" len="24" pan="0" key="68"/>
          <note pos="1296" vol="78" len="24" pan="0" key="73"/>
          <note pos="1320" vol="78" len="24" pan="0" key="68"/>
          <note pos="1344" vol="78" len="24" pan="0" key="66"/>
          <note pos="1368" vol="78" len="24" pan="0" key="68"/>
          <note pos="1392" vol="78" len="24" pan="0" key="66"/>
          <note pos="1416" vol="78" len="24" pan="0" key="64"/>
          <note pos="1440" vol="78" len="24" pan="0" key="63"/>
          <note pos="1464" vol="78" len="24" pan="0" key="60"/>
          <note pos="1488" vol="78" len="24" pan="0" key="66"/>
          <note pos="1512" vol="78" len="24" pan="0" key="63"/>
          <note pos="1536" vol="78" len="24" pan="0" key="61"/>
          <note pos="1560" vol="78" len="24" pan="0" key="68"/>
          <note pos="1584" vol="78" len="24" pan="0" key="73"/>
          <note pos="1608" vol="78" len="24" pan="0" key="68"/>
          <note pos="1632" vol="78" len="24" pan="0" key="61"/>
          <note pos="1656" vol="78" len="24" pan="0" key="68"/>
          <note pos="1680" vol="78" len="24" pan="0" key="73"/>
          <note pos="1704" vol="78" len="24" pan="0" key="68"/>
          <note pos="1728" vol="78" len="24" pan="0" key="63"/>
          <note pos="1752" vol="78" len="24" pan="0" key="68"/>
          <note pos="1776" vol="78" len="24" pan="0" key="71"/>
          <note pos="1800" vol="78" len="24" pan="0" key="68"/>
          <note pos="1824" vol="78" len="24" pan="0" key="63"/>
          <note pos="1848" vol="78" len="24" pan="0" key="68"/>
          <note pos="1872" vol="78" len="24" pan="0" key="71"/>
          <note pos="1896" vol="78" len="24" pan="0" key="68"/>
          <note pos="1920" vol="78" len="24" pan="0" key="61"/>
          <note pos="1944" vol="78" len="24" pan="0" key="66"/>
          <note pos="1968" vol="78" len="24" pan="0" key="70"/>
          <note pos="1992" vol="78" len="24" pan="0" key="66"/>
          <note pos="2016" vol="78" len="24" pan="0" key="61"/>
          <note pos="2040" vol="78" len="24" pan="0" key="66"/>
          <note pos="2064" vol="78" len="24" pan="0" key="70"/>
          <note pos="2088" vol="78" len="24" pan="0" key="66"/>
          <note pos="2112" vol="78" len="24" pan="0" key="61"/>
          <note pos="2136" vol="78" len="24" pan="0" key="66"/>
          <note pos="2160" vol="78" len="24" pan="0" key="70"/>
          <note pos="2184" vol="78" len="24" pan="0" key="66"/>
          <note pos="2208" vol="78" len="24" pan="0" key="61"/>
          <note pos="2232" vol="78" len="24" pan="0" key="66"/>
          <note pos="2256" vol="78" len="24" pan="0" key="70"/>
          <note pos="2280" vol="78" len="24" pan="0" key="66"/>
          <note pos="2304" vol="78" len="24" pan="0" key="66"/>
          <note pos="2328" vol="78" len="24" pan="0" key="69"/>
          <note pos="2352" vol="78" len="24" pan="0" key="73"/>
          <note pos="2376" vol="78" len="24" pan="0" key="69"/>
          <note pos="2400" vol="78" len="24" pan="0" key="66"/>
          <note pos="2424" vol="78" len="24" pan="0" key="69"/>
          <note pos="2448" vol="78" len="24" pan="0" key="73"/>
          <note pos="2472" vol="78" len="24" pan="0" key="69"/>
          <note pos="2496" vol="78" len="24" pan="0" key="63"/>
          <note pos="2520" vol="78" len="24" pan="0" key="68"/>
          <note pos="2544" vol="78" len="24" pan="0" key="73"/>
          <note pos="2568" vol="78" len="24" pan="0" key="68"/>
          <note pos="2592" vol="78" len="24" pan="0" key="63"/>
          <note pos="2616" vol="78" len="24" pan="0" key="68"/>
          <note pos="2640" vol="78" len="24" pan="0" key="73"/>
          <note pos="2664" vol="78" len="24" pan="0" key="68"/>
          <note pos="2688" vol="78" len="24" pan="0" key="66"/>
          <note pos="2712" vol="78" len="24" pan="0" key="71"/>
          <note pos="2736" vol="78" len="24" pan="0" key="75"/>
          <note pos="2760" vol="78" len="24" pan="0" key="71"/>
          <note pos="2784" vol="78" len="24" pan="0" key="66"/>
          <note pos="2808" vol="78" len="24" pan="0" key="71"/>
          <note pos="2832" vol="78" len="24" pan="0" key="75"/>
          <note pos="2856" vol="78" len="24" pan="0" key="71"/>
          <note pos="2880" vol="78" len="24" pan="0" key="63"/>
          <note pos="2880" vol="78" len="24" pan="0" key="51"/>
          <note pos="2904" vol="78" len="24" pan="0" key="63"/>
          <note pos="2904" vol="78" len="24" pan="0" key="51"/>
          <note pos="2976" vol="78" len="24" pan="0" key="71"/>
          <note pos="2976" vol="78" len="24" pan="0" key="59"/>
          <note pos="3000" vol="78" len="24" pan="0" key="71"/>
          <note pos="3000" vol="78" len="24" pan="0" key="59"/>
          <note pos="3072" vol="78" len="12" pan="0" key="56"/>
          <note pos="3084" vol="78" len="12" pan="0" key="61"/>
          <note pos="3096" vol="78" len="12" pan="0" key="64"/>
          <note pos="3108" vol="78" len="12" pan="0" key="68"/>
          <note pos="3120" vol="78" len="12" pan="0" key="73"/>
          <note pos="3132" vol="78" len="12" pan="0" key="76"/>
          <note pos="3144" vol="78" len="12" pan="0" key="80"/>
          <note pos="3156" vol="78" len="12" pan="0" key="83"/>
          <note pos="3168" vol="78" len="12" pan="0" key="73"/>
          <note pos="3180" vol="78" len="12" pan="0" key="83"/>
          <note pos="3192" vol="78" len="12" pan="0" key="80"/>
          <note pos="3204" vol="78" len="12" pan="0" key="76"/>
          <note pos="3216" vol="78" len="12" pan="0" key="73"/>
          <note pos="3228" vol="78" len="12" pan="0" key="68"/>
          <note pos="3240" vol="78" len="12" pan="0" key="64"/>
          <note pos="3252" vol="78" len="12" pan="0" key="61"/>
          <note pos="3264" vol="78" len="12" pan="0" key="56"/>
          <note pos="3276" vol="78" len="12" pan="0" key="61"/>
          <note pos="3288" vol="78" len="12" pan="0" key="64"/>
          <note pos="3300" vol="78" len="12" pan="0" key="68"/>
          <note pos="3312" vol="78" len="12" pan="0" key="73"/>
          <note pos="3324" vol="78" len="12" pan="0" key="76"/>
          <note pos="3336" vol="78" len="12" pan="0" key="80"/>
          <note pos="3348" vol="78" len="12" pan="0" key="83"/>
          <note pos="3360" vol="78" len="12" pan="0" key="73"/>
          <note pos="3372" vol="78" len="12" pan="0" key="83"/>
          <note pos="3384" vol="78" len="12" pan="0" key="80"/>
          <note pos="3396" vol="78" len="12" pan="0" key="76"/>
          <note pos="3408" vol="78" len="12" pan="0" key="73"/>
          <note pos="3420" vol="78" len="12" pan="0" key="68"/>
          <note pos="3432" vol="78" len="12" pan="0" key="64"/>
          <note pos="3444" vol="78" len="12" pan="0" key="61"/>
          <note pos="3456" vol="78" len="12" pan="0" key="54"/>
          <note pos="3468" vol="78" len="12" pan="0" key="59"/>
          <note pos="3480" vol="78" len="12" pan="0" key="63"/>
          <note pos="3492" vol="78" len="12" pan="0" key="66"/>
          <note pos="3504" vol="78" len="12" pan="0" key="69"/>
          <note pos="3516" vol="78" len="12" pan="0" key="73"/>
          <note pos="3528" vol="78" len="12" pan="0" key="76"/>
          <note pos="3540" vol="78" len="12" pan="0" key="80"/>
          <note pos="3552" vol="78" len="12" pan="0" key="83"/>
          <note pos="3564" vol="78" len="12" pan="0" key="80"/>
          <note pos="3576" vol="78" len="12" pan="0" key="75"/>
          <note pos="3588" vol="78" len="12" pan="0" key="71"/>
          <note pos="3600" vol="78" len="12" pan="0" key="66"/>
          <note pos="3612" vol="78" len="12" pan="0" key="61"/>
          <note pos="3624" vol="78" len="12" pan="0" key="59"/>
          <note pos="3636" vol="78" len="12" pan="0" key="54"/>
          <note pos="3648" vol="78" len="12" pan="0" key="54"/>
          <note pos="3660" vol="78" len="12" pan="0" key="59"/>
          <note pos="3672" vol="78" len="12" pan="0" key="63"/>
          <note pos="3684" vol="78" len="12" pan="0" key="66"/>
          <note pos="3696" vol="78" len="12" pan="0" key="69"/>
          <note pos="3708" vol="78" len="12" pan="0" key="73"/>
          <note pos="3720" vol="78" len="12" pan="0" key="76"/>
          <note pos="3732" vol="78" len="12" pan="0" key="80"/>
          <note pos="3744" vol="78" len="12" pan="0" key="83"/>
          <note pos="3756" vol="78" len="12" pan="0" key="80"/>
          <note pos="3768" vol="78" len="12" pan="0" key="75"/>
          <note pos="3780" vol="78" len="12" pan="0" key="71"/>
          <note pos="3792" vol="78" len="12" pan="0" key="66"/>
          <note pos="3804" vol="78" len="12" pan="0" key="61"/>
          <note pos="3816" vol="78" len="12" pan="0" key="59"/>
          <note pos="3828" vol="78" len="12" pan="0" key="54"/>
          <note pos="3840" vol="78" len="12" pan="0" key="54"/>
          <note pos="3852" vol="78" len="12" pan="0" key="57"/>
          <note pos="3864" vol="78" len="12" pan="0" key="61"/>
          <note pos="3876" vol="78" len="12" pan="0" key="64"/>
          <note pos="3888" vol="78" len="12" pan="0" key="66"/>
          <note pos="3900" vol="78" len="12" pan="0" key="73"/>
          <note pos="3912" vol="78" len="12" pan="0" key="76"/>
          <note pos="3924" vol="78" len="12" pan="0" key="78"/>
          <note pos="3936" vol="78" len="12" pan="0" key="82"/>
          <note pos="3948" vol="78" len="12" pan="0" key="78"/>
          <note pos="3960" vol="78" len="12" pan="0" key="76"/>
          <note pos="3972" vol="78" len="12" pan="0" key="73"/>
          <note pos="3984" vol="78" len="12" pan="0" key="66"/>
          <note pos="3996" vol="78" len="12" pan="0" key="64"/>
          <note pos="4008" vol="78" len="12" pan="0" key="61"/>
          <note pos="4020" vol="78" len="12" pan="0" key="57"/>
          <note pos="4032" vol="78" len="12" pan="0" key="54"/>
          <note pos="4044" vol="78" len="12" pan="0" key="57"/>
          <note pos="4056" vol="78" len="12" pan="0" key="61"/>
          <note pos="4068" vol="78" len="12" pan="0" key="64"/>
          <note pos="4080" vol="78" len="12" pan="0" key="66"/>
          <note pos="4092" vol="78" len="12" pan="0" key="73"/>
          <note pos="4104" vol="78" len="12" pan="0" key="76"/>
          <note pos="4116" vol="78" len="12" pan="0" key="78"/>
          <note pos="4128" vol="78" len="12" pan="0" key="82"/>
          <note pos="4140" vol="78" len="12" pan="0" key="78"/>
          <note pos="4152" vol="78" len="12" pan="0" key="76"/>
          <note pos="4164" vol="78" len="12" pan="0" key="73"/>
          <note pos="4176" vol="78" len="12" pan="0" key="66"/>
          <note pos="4188" vol="78" len="12" pan="0" key="64"/>
          <note pos="4200" vol="78" len="12" pan="0" key="61"/>
          <note pos="4212" vol="78" len="12" pan="0" key="57"/>
          <note pos="4224" vol="78" len="12" pan="0" key="51"/>
          <note pos="4236" vol="78" len="12" pan="0" key="54"/>
          <note pos="4248" vol="78" len="12" pan="0" key="57"/>
          <note pos="4260" vol="78" len="12" pan="0" key="63"/>
          <note pos="4272" vol="78" len="12" pan="0" key="66"/>
          <note pos="4284" vol="78" len="12" pan="0" key="69"/>
          <note pos="4296" vol="78" len="12" pan="0" key="73"/>
          <note pos="4308" vol="78" len="12" pan="0" key="76"/>
          <note pos="4320" vol="78" len="12" pan="0" key="81"/>
          <note pos="4332" vol="78" len="12" pan="0" key="78"/>
          <note pos="4344" vol="78" len="12" pan="0" key="73"/>
          <note pos="4356" vol="78" len="12" pan="0" key="69"/>
          <note pos="4368" vol="78" len="12" pan="0" key="66"/>
          <note pos="4380" vol="78" len="12" pan="0" key="63"/>
          <note pos="4392" vol="78" len="12" pan="0" key="57"/>
          <note pos="4404" vol="78" len="12" pan="0" key="54"/>
          <note pos="4416" vol="78" len="12" pan="0" key="51"/>
          <note pos="4428" vol="78" len="12" pan="0" key="54"/>
          <note pos="4440" vol="78" len="12" pan="0" key="57"/>
          <note pos="4452" vol="78" len="12" pan="0" key="63"/>
          <note pos="4464" vol="78" len="12" pan="0" key="66"/>
          <note pos="4476" vol="78" len="12" pan="0" key="69"/>
          <note pos="4488" vol="78" len="12" pan="0" key="73"/>
          <note pos="4500" vol="78" len="12" pan="0" key="76"/>
          <note pos="4512" vol="78" len="12" pan="0" key="81"/>
          <note pos="4524" vol="78" len="12" pan="0" key="78"/>
          <note pos="4536" vol="78" len="12" pan="0" key="73"/>
          <note pos="4548" vol="78" len="12" pan="0" key="69"/>
          <note pos="4560" vol="78" len="12" pan="0" key="66"/>
          <note pos="4572" vol="78" len="12" pan="0" key="63"/>
          <note pos="4584" vol="78" len="12" pan="0" key="57"/>
          <note pos="4596" vol="78" len="12" pan="0" key="54"/>
          <note pos="4608" vol="78" len="12" pan="0" key="52"/>
          <note pos="4620" vol="78" len="12" pan="0" key="61"/>
          <note pos="4632" vol="78" len="12" pan="0" key="64"/>
          <note pos="4644" vol="78" len="12" pan="0" key="68"/>
          <note pos="4656" vol="78" len="12" pan="0" key="73"/>
          <note pos="4668" vol="78" len="12" pan="0" key="76"/>
          <note pos="4680" vol="78" len="12" pan="0" key="80"/>
          <note pos="4692" vol="78" len="12" pan="0" key="83"/>
          <note pos="4704" vol="78" len="12" pan="0" key="73"/>
          <note pos="4716" vol="78" len="12" pan="0" key="83"/>
          <note pos="4728" vol="78" len="12" pan="0" key="80"/>
          <note pos="4740" vol="78" len="12" pan="0" key="76"/>
          <note pos="4752" vol="78" len="12" pan="0" key="73"/>
          <note pos="4764" vol="78" len="12" pan="0" key="68"/>
          <note pos="4776" vol="78" len="12" pan="0" key="64"/>
          <note pos="4788" vol="78" len="12" pan="0" key="61"/>
          <note pos="4800" vol="78" len="12" pan="0" key="52"/>
          <note pos="4812" vol="78" len="12" pan="0" key="61"/>
          <note pos="4824" vol="78" len="12" pan="0" key="64"/>
          <note pos="4836" vol="78" len="12" pan="0" key="68"/>
          <note pos="4848" vol="78" len="12" pan="0" key="73"/>
          <note pos="4860" vol="78" len="12" pan="0" key="76"/>
          <note pos="4872" vol="78" len="12" pan="0" key="80"/>
          <note pos="4884" vol="78" len="12" pan="0" key="83"/>
          <note pos="4896" vol="78" len="12" pan="0" key="73"/>
          <note pos="4908" vol="78" len="12" pan="0" key="83"/>
          <note pos="4920" vol="78" len="12" pan="0" key="80"/>
          <note pos="4932" vol="78" len="12" pan="0" key="76"/>
          <note pos="4944" vol="78" len="12" pan="0" key="73"/>
          <note pos="4956" vol="78" len="12" pan="0" key="68"/>
          <note pos="4968" vol="78" len="12" pan="0" key="64"/>
          <note pos="4980" vol="78" len="12" pan="0" key="61"/>
          <note pos="4992" vol="78" len="12" pan="0" key="54"/>
          <note pos="5004" vol="78" len="12" pan="0" key="59"/>
          <note pos="5016" vol="78" len="12" pan="0" key="63"/>
          <note pos="5028" vol="78" len="12" pan="0" key="66"/>
          <note pos="5040" vol="78" len="12" pan="0" key="69"/>
          <note pos="5052" vol="78" len="12" pan="0" key="73"/>
          <note pos="5064" vol="78" len="12" pan="0" key="76"/>
          <note pos="5076" vol="78" len="12" pan="0" key="80"/>
          <note pos="5088" vol="78" len="12" pan="0" key="83"/>
          <note pos="5100" vol="78" len="12" pan="0" key="80"/>
          <note pos="5112" vol="78" len="12" pan="0" key="75"/>
          <note pos="5124" vol="78" len="12" pan="0" key="71"/>
          <note pos="5136" vol="78" len="12" pan="0" key="66"/>
          <note pos="5148" vol="78" len="12" pan="0" key="61"/>
          <note pos="5160" vol="78" len="12" pan="0" key="59"/>
          <note pos="5172" vol="78" len="12" pan="0" key="54"/>
          <note pos="5184" vol="78" len="12" pan="0" key="54"/>
          <note pos="5196" vol="78" len="12" pan="0" key="59"/>
          <note pos="5208" vol="78" len="12" pan="0" key="63"/>
          <note pos="5220" vol="78" len="12" pan="0" key="66"/>
          <note pos="5232" vol="78" len="12" pan="0" key="69"/>
          <note pos="5244" vol="78" len="12" pan="0" key="73"/>
          <note pos="5256" vol="78" len="12" pan="0" key="76"/>
          <note pos="5268" vol="78" len="12" pan="0" key="80"/>
          <note pos="5280" vol="78" len="12" pan="0" key="83"/>
          <note pos="5292" vol="78" len="12" pan="0" key="80"/>
          <note pos="5304" vol="78" len="12" pan="0" key="75"/>
          <note pos="5316" vol="78" len="12" pan="0" key="71"/>
          <note pos="5328" vol="78" len="12" pan="0" key="66"/>
          <note pos="5340" vol="78" len="12" pan="0" key="61"/>
          <note pos="5352" vol="78" len="12" pan="0" key="59"/>
          <note pos="5364" vol="78" len="12" pan="0" key="54"/>
          <note pos="5376" vol="78" len="12" pan="0" key="54"/>
          <note pos="5388" vol="78" len="12" pan="0" key="57"/>
          <note pos="5400" vol="78" len="12" pan="0" key="63"/>
          <note pos="5412" vol="78" len="12" pan="0" key="66"/>
          <note pos="5424" vol="78" len="12" pan="0" key="69"/>
          <note pos="5436" vol="78" len="12" pan="0" key="73"/>
          <note pos="5448" vol="78" len="12" pan="0" key="76"/>
          <note pos="5460" vol="78" len="12" pan="0" key="81"/>
          <note pos="5472" vol="78" len="12" pan="0" key="75"/>
          <note pos="5484" vol="78" len="12" pan="0" key="81"/>
          <note pos="5496" vol="78" len="12" pan="0" key="76"/>
          <note pos="5508" vol="78" len="12" pan="0" key="73"/>
          <note pos="5520" vol="78" len="12" pan="0" key="69"/>
          <note pos="5532" vol="78" len="12" pan="0" key="66"/>
          <note pos="5544" vol="78" len="12" pan="0" key="63"/>
          <note pos="5556" vol="78" len="12" pan="0" key="57"/>
          <note pos="5568" vol="78" len="12" pan="0" key="54"/>
          <note pos="5580" vol="78" len="12" pan="0" key="57"/>
          <note pos="5592" vol="78" len="12" pan="0" key="63"/>
          <note pos="5604" vol="78" len="12" pan="0" key="66"/>
          <note pos="5616" vol="78" len="12" pan="0" key="69"/>
          <note pos="5628" vol="78" len="12" pan="0" key="73"/>
          <note pos="5640" vol="78" len="12" pan="0" key="76"/>
          <note pos="5652" vol="78" len="12" pan="0" key="81"/>
          <note pos="5664" vol="78" len="12" pan="0" key="75"/>
          <note pos="5676" vol="78" len="12" pan="0" key="81"/>
          <note pos="5688" vol="78" len="12" pan="0" key="76"/>
          <note pos="5700" vol="78" len="12" pan="0" key="73"/>
          <note pos="5712" vol="78" len="12" pan="0" key="69"/>
          <note pos="5724" vol="78" len="12" pan="0" key="66"/>
          <note pos="5736" vol="78" len="12" pan="0" key="63"/>
          <note pos="5748" vol="78" len="12" pan="0" key="57"/>
          <note pos="5760" vol="78" len="12" pan="0" key="57"/>
          <note pos="5772" vol="78" len="12" pan="0" key="61"/>
          <note pos="5784" vol="78" len="12" pan="0" key="64"/>
          <note pos="5796" vol="78" len="12" pan="0" key="68"/>
          <note pos="5808" vol="78" len="12" pan="0" key="71"/>
          <note pos="5820" vol="78" len="12" pan="0" key="75"/>
          <note pos="5832" vol="78" len="12" pan="0" key="78"/>
          <note pos="5844" vol="78" len="12" pan="0" key="81"/>
          <note pos="5856" vol="78" len="12" pan="0" key="73"/>
          <note pos="5868" vol="78" len="12" pan="0" key="81"/>
          <note pos="5880" vol="78" len="12" pan="0" key="78"/>
          <note pos="5892" vol="78" len="12" pan="0" key="75"/>
          <note pos="5904" vol="78" len="12" pan="0" key="71"/>
          <note pos="5916" vol="78" len="12" pan="0" key="68"/>
          <note pos="5928" vol="78" len="12" pan="0" key="64"/>
          <note pos="5940" vol="78" len="12" pan="0" key="61"/>
          <note pos="5952" vol="78" len="12" pan="0" key="57"/>
          <note pos="5964" vol="78" len="12" pan="0" key="61"/>
          <note pos="5976" vol="78" len="12" pan="0" key="64"/>
          <note pos="5988" vol="78" len="12" pan="0" key="68"/>
          <note pos="6000" vol="78" len="12" pan="0" key="71"/>
          <note pos="6012" vol="78" len="12" pan="0" key="75"/>
          <note pos="6024" vol="78" len="12" pan="0" key="78"/>
          <note pos="6036" vol="78" len="12" pan="0" key="81"/>
          <note pos="6048" vol="78" len="12" pan="0" key="72"/>
          <note pos="6060" vol="78" len="12" pan="0" key="81"/>
          <note pos="6072" vol="78" len="12" pan="0" key="78"/>
          <note pos="6084" vol="78" len="12" pan="0" key="75"/>
          <note pos="6096" vol="78" len="12" pan="0" key="71"/>
          <note pos="6108" vol="78" len="12" pan="0" key="68"/>
          <note pos="6120" vol="78" len="12" pan="0" key="64"/>
          <note pos="6132" vol="78" len="12" pan="0" key="61"/>
        </pattern>
        <pattern name="" steps="16" pos="4992" muted="0" type="1">
          <note pos="0" vol="78" len="24" pan="0" key="61"/>
          <note pos="24" vol="78" len="24" pan="0" key="63"/>
          <note pos="48" vol="78" len="24" pan="0" key="61"/>
          <note pos="72" vol="78" len="48" pan="0" key="68"/>
          <note pos="120" vol="78" len="24" pan="0" key="61"/>
          <note pos="144" vol="78" len="24" pan="0" key="64"/>
          <note pos="168" vol="78" len="24" pan="0" key="68"/>
          <note pos="192" vol="78" len="24" pan="0" key="71"/>
          <note pos="216" vol="78" len="24" pan="0" key="69"/>
          <note pos="240" vol="78" len="24" pan="0" key="68"/>
          <note pos="264" vol="78" len="48" pan="0" key="69"/>
          <note pos="312" vol="78" len="24" pan="0" key="68"/>
          <note pos="336" vol="78" len="24" pan="0" key="66"/>
          <note pos="360" vol="78" len="24" pan="0" key="68"/>
        </pattern>
        <pattern name="" steps="16" pos="5376" muted="0" type="1">
          <note pos="0" vol="78" len="24" pan="0" key="68"/>
          <note pos="0" vol="78" len="24" pan="0" key="0"/>
          <note pos="24" vol="78" len="24" pan="0" key="71"/>
          <note pos="48" vol="78" len="24" pan="0" key="68"/>
          <note pos="72" vol="78" len="48" pan="0" key="75"/>
          <note pos="120" vol="78" len="24" pan="0" key="68"/>
          <note pos="144" vol="78" len="24" pan="0" key="71"/>
          <note pos="168" vol="78" len="24" pan="0" key="75"/>
          <note pos="192" vol="78" len="24" pan="0" key="76"/>
          <note pos="216" vol="78" len="24" pan="0" key="75"/>
          <note pos="240" vol="78" len="24" pan="0" key="73"/>
          <note pos="264" vol="78" len="24" pan="0" key="71"/>
          <note pos="288" vol="78" len="24" pan="0" key="75"/>
          <note pos="312" vol="78" len="24" pan="0" key="73"/>
          <note pos="336" vol="78" len="24" pan="0" key="71"/>
          <note pos="360" vol="78" len="24" pan="0" key="68"/>
        </pattern>
        <pattern name="" steps="16" pos="5760" muted="0" type="1">
          <note pos="0" vol="78" len="24" pan="0" key="61"/>
          <note pos="0" vol="100" len="48" pan="0" key="0"/>
          <note pos="24" vol="78" len="24" pan="0" key="63"/>
          <note pos="48" vol="78" len="24" pan="0" key="61"/>
          <note pos="72" vol="78" len="48" pan="0" key="68"/>
          <note pos="120" vol="78" len="24" pan="0" key="61"/>
          <note pos="144" vol="78" len="24" pan="0" key="64"/>
          <note pos="168" vol="78" len="24" pan="0" key="68"/>
          <note pos="192" vol="78" len="24" pan="0" key="71"/>
          <note pos="216" vol="78" len="24" pan="0" key="73"/>
          <note pos="240" vol="78" len="24" pan="0" key="75"/>
          <note pos="264" vol="78" len="48" pan="0" key="73"/>
          <note pos="312" vol="78" len="24" pan="0" key="75"/>
          <note pos="336" vol="78" len="24" pan="0" key="76"/>
          <note pos="360" vol="78" len="24" pan="0" key="78"/>
        </pattern>
        <pattern name="" steps="16" pos="6144" muted="0" type="1">
          <note pos="0" vol="78" len="24" pan="0" key="87"/>
          <note pos="24" vol="78" len="24" pan="0" key="76"/>
          <note pos="48" vol="78" len="24" pan="0" key="80"/>
          <note pos="72" vol="78" len="48" pan="0" key="83"/>
          <note pos="120" vol="78" len="24" pan="0" key="80"/>
          <note pos="144" vol="78" len="24" pan="0" key="83"/>
          <note pos="168" vol="78" len="24" pan="0" key="87"/>
          <note pos="192" vol="78" len="24" pan="0" key="85"/>
          <note pos="216" vol="78" len="24" pan="0" key="80"/>
          <note pos="240" vol="78" len="24" pan="0" key="76"/>
          <note pos="264" vol="78" len="24" pan="0" key="73"/>
          <note pos="288" vol="78" len="24" pan="0" key="78"/>
          <note pos="312" vol="78" len="24" pan="0" key="76"/>
          <note pos="336" vol="78" len="24" pan="0" key="80"/>
          <note pos="360" vol="78" len="24" pan="0" key="76"/>
          <note pos="384" vol="78" len="120" pan="0" key="69"/>
          <note pos="504" vol="78" len="24" pan="0" key="68"/>
          <note pos="528" vol="78" len="24" pan="0" key="69"/>
          <note pos="552" vol="78" len="24" pan="0" key="71"/>
          <note pos="576" vol="78" len="72" pan="0" key="73"/>
          <note pos="648" vol="78" len="72" pan="0" key="71"/>
          <note pos="720" vol="78" len="48" pan="0" key="69"/>
          <note pos="768" vol="78" len="24" pan="0" key="68"/>
          <note pos="792" vol="78" len="24" pan="0" key="69"/>
          <note pos="816" vol="78" len="24" pan="0" key="68"/>
          <note pos="840" vol="78" len="48" pan="0" key="64"/>
          <note pos="888" vol="78" len="24" pan="0" key="64"/>
          <note pos="912" vol="78" len="24" pan="0" key="66"/>
          <note pos="936" vol="78" len="24" pan="0" key="68"/>
          <note pos="960" vol="78" len="96" pan="0" key="66"/>
        </pattern>
        <pattern name="" steps="16" pos="12672" muted="0" type="0"/>
        <pattern name="" steps="16" pos="29568" muted="0" type="1">
          <note pos="0" vol="152" len="12" pan="0" key="68"/>
          <note pos="12" vol="152" len="12" pan="0" key="66"/>
          <note pos="24" vol="152" len="12" pan="0" key="64"/>
          <note pos="36" vol="152" len="12" pan="0" key="61"/>
          <note pos="48" vol="152" len="12" pan="0" key="59"/>
          <note pos="60" vol="152" len="12" pan="0" key="61"/>
          <note pos="72" vol="152" len="12" pan="0" key="66"/>
          <note pos="84" vol="152" len="12" pan="0" key="64"/>
          <note pos="96" vol="152" len="12" pan="0" key="61"/>
          <note pos="108" vol="152" len="12" pan="0" key="64"/>
          <note pos="120" vol="152" len="12" pan="0" key="68"/>
          <note pos="132" vol="152" len="12" pan="0" key="66"/>
          <note pos="144" vol="152" len="12" pan="0" key="64"/>
          <note pos="156" vol="152" len="12" pan="0" key="61"/>
          <note pos="168" vol="152" len="12" pan="0" key="64"/>
          <note pos="180" vol="152" len="12" pan="0" key="66"/>
        </pattern>
        <pattern name="" steps="16" pos="29760" muted="0" type="1">
          <note pos="0" vol="152" len="12" pan="0" key="68"/>
          <note pos="12" vol="152" len="12" pan="0" key="66"/>
          <note pos="24" vol="152" len="12" pan="0" key="64"/>
          <note pos="36" vol="152" len="12" pan="0" key="61"/>
          <note pos="48" vol="152" len="12" pan="0" key="59"/>
          <note pos="60" vol="152" len="12" pan="0" key="61"/>
          <note pos="72" vol="152" len="12" pan="0" key="66"/>
          <note pos="84" vol="152" len="12" pan="0" key="64"/>
          <note pos="96" vol="152" len="12" pan="0" key="61"/>
          <note pos="108" vol="152" len="12" pan="0" key="64"/>
          <note pos="120" vol="152" len="12" pan="0" key="71"/>
          <note pos="132" vol="152" len="12" pan="0" key="68"/>
          <note pos="144" vol="152" len="12" pan="0" key="66"/>
          <note pos="156" vol="152" len="12" pan="0" key="68"/>
          <note pos="168" vol="152" len="12" pan="0" key="66"/>
          <note pos="180" vol="152" len="12" pan="0" key="64"/>
        </pattern>
        <pattern name="" steps="16" pos="13824" muted="0" type="1">
          <note pos="384" vol="78" len="120" pan="0" key="69"/>
          <note pos="504" vol="78" len="24" pan="0" key="68"/>
          <note pos="528" vol="78" len="24" pan="0" key="69"/>
          <note pos="552" vol="78" len="24" pan="0" key="71"/>
          <note pos="576" vol="78" len="72" pan="0" key="73"/>
          <note pos="648" vol="78" len="72" pan="0" key="71"/>
          <note pos="720" vol="78" len="48" pan="0" key="69"/>
          <note pos="768" vol="78" len="24" pan="0" key="68"/>
          <note pos="792" vol="78" len="24" pan="0" key="69"/>
          <note pos="816" vol="78" len="24" pan="0" key="68"/>
          <note pos="840" vol="78" len="48" pan="0" key="64"/>
          <note pos="888" vol="78" len="24" pan="0" key="64"/>
          <note pos="912" vol="78" len="24" pan="0" key="66"/>
          <note pos="936" vol="78" len="24" pan="0" key="68"/>
          <note pos="960" vol="78" len="96" pan="0" key="66"/>
        </pattern>
        <pattern name="" steps="16" pos="29952" muted="0" type="1">
          <note pos="0" vol="100" len="12" pan="0" key="73"/>
          <note pos="12" vol="100" len="12" pan="0" key="71"/>
          <note pos="24" vol="100" len="12" pan="0" key="68"/>
          <note pos="36" vol="100" len="12" pan="0" key="66"/>
          <note pos="48" vol="100" len="12" pan="0" key="71"/>
          <note pos="60" vol="100" len="12" pan="0" key="68"/>
          <note pos="72" vol="100" len="12" pan="0" key="66"/>
          <note pos="84" vol="100" len="12" pan="0" key="64"/>
          <note pos="96" vol="100" len="12" pan="0" key="68"/>
          <note pos="108" vol="100" len="12" pan="0" key="66"/>
          <note pos="120" vol="100" len="12" pan="0" key="64"/>
          <note pos="132" vol="100" len="12" pan="0" key="61"/>
          <note pos="144" vol="100" len="12" pan="0" key="64"/>
          <note pos="156" vol="100" len="12" pan="0" key="66"/>
          <note pos="168" vol="100" len="12" pan="0" key="68"/>
          <note pos="180" vol="100" len="12" pan="0" key="71"/>
          <note pos="192" vol="100" len="12" pan="0" key="68"/>
          <note pos="204" vol="100" len="12" pan="0" key="66"/>
          <note pos="216" vol="100" len="12" pan="0" key="64"/>
          <note pos="228" vol="100" len="12" pan="0" key="61"/>
          <note pos="240" vol="100" len="12" pan="0" key="64"/>
          <note pos="252" vol="100" len="12" pan="0" key="61"/>
          <note pos="264" vol="100" len="12" pan="0" key="59"/>
          <note pos="276" vol="100" len="12" pan="0" key="61"/>
          <note pos="288" vol="100" len="12" pan="0" key="59"/>
          <note pos="300" vol="100" len="12" pan="0" key="56"/>
          <note pos="312" vol="100" len="12" pan="0" key="54"/>
          <note pos="324" vol="100" len="12" pan="0" key="56"/>
          <note pos="336" vol="100" len="48" pan="0" key="49"/>
        </pattern>
        <pattern name="" steps="16" pos="30336" muted="0" type="1">
          <note pos="0" vol="48" len="12" pan="0" key="57"/>
          <note pos="12" vol="48" len="12" pan="0" key="57"/>
          <note pos="24" vol="48" len="12" pan="0" key="56"/>
          <note pos="36" vol="48" len="12" pan="0" key="56"/>
          <note pos="48" vol="48" len="12" pan="0" key="54"/>
          <note pos="60" vol="48" len="12" pan="0" key="54"/>
          <note pos="72" vol="48" len="12" pan="0" key="61"/>
          <note pos="84" vol="48" len="12" pan="0" key="61"/>
          <note pos="96" vol="48" len="12" pan="0" key="59"/>
          <note pos="108" vol="48" len="12" pan="0" key="59"/>
          <note pos="120" vol="48" len="12" pan="0" key="57"/>
          <note pos="132" vol="48" len="12" pan="0" key="57"/>
          <note pos="144" vol="48" len="12" pan="0" key="59"/>
          <note pos="156" vol="48" len="12" pan="0" key="59"/>
          <note pos="168" vol="48" len="12" pan="0" key="61"/>
          <note pos="180" vol="48" len="12" pan="0" key="61"/>
          <note pos="192" vol="48" len="48" pan="0" key="62"/>
          <note pos="240" vol="48" len="12" pan="0" key="61"/>
          <note pos="252" vol="48" len="12" pan="0" key="62"/>
          <note pos="264" vol="48" len="12" pan="0" key="64"/>
          <note pos="276" vol="48" len="12" pan="0" key="66"/>
          <note pos="288" vol="48" len="12" pan="0" key="68"/>
          <note pos="300" vol="48" len="12" pan="0" key="66"/>
          <note pos="312" vol="48" len="12" pan="0" key="64"/>
          <note pos="324" vol="48" len="12" pan="0" key="66"/>
          <note pos="336" vol="48" len="12" pan="0" key="69"/>
          <note pos="348" vol="48" len="12" pan="0" key="68"/>
          <note pos="360" vol="48" len="12" pan="0" key="66"/>
          <note pos="372" vol="48" len="12" pan="0" key="68"/>
          <note pos="384" vol="48" len="24" pan="0" key="68"/>
          <note pos="408" vol="48" len="24" pan="0" key="69"/>
          <note pos="456" vol="48" len="48" pan="0" key="66"/>
          <note pos="504" vol="48" len="12" pan="0" key="62"/>
          <note pos="516" vol="48" len="12" pan="0" key="62"/>
          <note pos="528" vol="48" len="12" pan="0" key="66"/>
          <note pos="540" vol="48" len="12" pan="0" key="66"/>
          <note pos="552" vol="48" len="12" pan="0" key="68"/>
          <note pos="564" vol="48" len="12" pan="0" key="68"/>
          <note pos="576" vol="48" len="24" pan="0" key="71"/>
          <note pos="600" vol="48" len="12" pan="0" key="69"/>
          <note pos="612" vol="48" len="12" pan="0" key="71"/>
          <note pos="624" vol="48" len="24" pan="0" key="73"/>
          <note pos="648" vol="48" len="12" pan="0" key="71"/>
          <note pos="660" vol="48" len="12" pan="0" key="73"/>
          <note pos="672" vol="48" len="12" pan="0" key="76"/>
          <note pos="684" vol="48" len="12" pan="0" key="74"/>
          <note pos="696" vol="48" len="12" pan="0" key="73"/>
          <note pos="708" vol="48" len="12" pan="0" key="71"/>
          <note pos="720" vol="48" len="12" pan="0" key="69"/>
          <note pos="732" vol="48" len="12" pan="0" key="68"/>
          <note pos="744" vol="48" len="12" pan="0" key="66"/>
          <note pos="756" vol="48" len="12" pan="0" key="64"/>
        </pattern>
        <pattern name="" steps="16" pos="38016" muted="0" type="1">
          <note pos="0" vol="100" len="12" pan="0" key="69"/>
          <note pos="0" vol="100" len="12" pan="0" key="1"/>
          <note pos="12" vol="100" len="12" pan="0" key="74"/>
          <note pos="24" vol="100" len="12" pan="0" key="78"/>
          <note pos="36" vol="100" len="12" pan="0" key="81"/>
          <note pos="36" vol="100" len="12" pan="0" key="0"/>
          <note pos="48" vol="100" len="12" pan="0" key="86"/>
          <note pos="60" vol="100" len="12" pan="0" key="81"/>
          <note pos="72" vol="100" len="12" pan="0" key="78"/>
          <note pos="72" vol="100" len="12" pan="0" key="1"/>
          <note pos="84" vol="100" len="12" pan="0" key="74"/>
          <note pos="96" vol="100" len="12" pan="0" key="81"/>
          <note pos="96" vol="100" len="12" pan="0" key="0"/>
          <note pos="108" vol="100" len="12" pan="0" key="80"/>
          <note pos="120" vol="100" len="12" pan="0" key="78"/>
          <note pos="120" vol="100" len="12" pan="0" key="1"/>
          <note pos="132" vol="100" len="12" pan="0" key="74"/>
          <note pos="144" vol="100" len="12" pan="0" key="83"/>
          <note pos="144" vol="100" len="12" pan="0" key="0"/>
          <note pos="156" vol="100" len="12" pan="0" key="81"/>
          <note pos="168" vol="100" len="12" pan="0" key="80"/>
          <note pos="168" vol="100" len="12" pan="0" key="1"/>
          <note pos="180" vol="100" len="12" pan="0" key="78"/>
          <note pos="192" vol="121" len="12" pan="0" key="83"/>
          <note pos="204" vol="121" len="12" pan="0" key="85"/>
          <note pos="216" vol="121" len="12" pan="0" key="83"/>
          <note pos="228" vol="121" len="12" pan="0" key="81"/>
          <note pos="240" vol="121" len="12" pan="0" key="80"/>
          <note pos="252" vol="121" len="12" pan="0" key="81"/>
          <note pos="264" vol="121" len="12" pan="0" key="80"/>
          <note pos="276" vol="121" len="12" pan="0" key="78"/>
          <note pos="288" vol="121" len="12" pan="0" key="83"/>
          <note pos="288" vol="121" len="24" pan="0" key="0"/>
          <note pos="300" vol="121" len="12" pan="0" key="85"/>
          <note pos="312" vol="121" len="48" pan="0" key="88"/>
          <note pos="360" vol="121" len="24" pan="0" key="85"/>
          <note pos="384" vol="100" len="24" pan="0" key="81"/>
          <note pos="408" vol="100" len="24" pan="0" key="80"/>
          <note pos="432" vol="100" len="24" pan="0" key="76"/>
          <note pos="456" vol="100" len="24" pan="0" key="81"/>
          <note pos="480" vol="100" len="24" pan="0" key="80"/>
          <note pos="504" vol="100" len="24" pan="0" key="78"/>
          <note pos="528" vol="100" len="24" pan="0" key="76"/>
          <note pos="552" vol="100" len="24" pan="0" key="80"/>
          <note pos="576" vol="100" len="12" pan="0" key="78"/>
          <note pos="576" vol="100" len="12" pan="0" key="0"/>
          <note pos="588" vol="100" len="12" pan="0" key="80"/>
          <note pos="588" vol="100" len="12" pan="0" key="2"/>
          <note pos="600" vol="100" len="48" pan="0" key="78"/>
          <note pos="636" vol="100" len="12" pan="0" key="1"/>
          <note pos="648" vol="100" len="12" pan="0" key="75"/>
          <note pos="660" vol="100" len="12" pan="0" key="76"/>
          <note pos="672" vol="100" len="12" pan="0" key="78"/>
          <note pos="672" vol="100" len="12" pan="0" key="0"/>
          <note pos="684" vol="100" len="12" pan="0" key="76"/>
          <note pos="696" vol="100" len="12" pan="0" key="75"/>
          <note pos="708" vol="100" len="12" pan="0" key="76"/>
          <note pos="708" vol="100" len="12" pan="0" key="1"/>
          <note pos="720" vol="100" len="12" pan="0" key="75"/>
          <note pos="732" vol="100" len="12" pan="0" key="73"/>
          <note pos="744" vol="100" len="12" pan="0" key="71"/>
          <note pos="756" vol="100" len="12" pan="0" key="69"/>
        </pattern>
        <pattern name="" steps="16" pos="3456" muted="0" type="1">
          <note pos="0" vol="78" len="144" pan="0" key="73"/>
          <note pos="0" vol="78" len="144" pan="0" key="0"/>
          <note pos="144" vol="78" len="48" pan="0" key="76"/>
          <note pos="192" vol="78" len="144" pan="0" key="75"/>
          <note pos="336" vol="78" len="48" pan="0" key="80"/>
          <note pos="384" vol="78" len="144" pan="0" key="80"/>
          <note pos="528" vol="78" len="24" pan="0" key="78"/>
          <note pos="552" vol="78" len="24" pan="0" key="76"/>
          <note pos="576" vol="78" len="48" pan="0" key="75"/>
          <note pos="624" vol="78" len="48" pan="0" key="76"/>
          <note pos="672" vol="78" len="48" pan="0" key="71"/>
          <note pos="720" vol="78" len="48" pan="0" key="68"/>
          <note pos="768" vol="78" len="144" pan="0" key="69"/>
          <note pos="912" vol="78" len="48" pan="0" key="76"/>
          <note pos="960" vol="78" len="144" pan="0" key="75"/>
          <note pos="1104" vol="78" len="48" pan="0" key="78"/>
          <note pos="1152" vol="197" len="96" pan="0" key="76"/>
          <note pos="1248" vol="197" len="48" pan="0" key="80"/>
          <note pos="1296" vol="197" len="48" pan="0" key="76"/>
          <note pos="1344" vol="197" len="48" pan="0" key="78"/>
          <note pos="1392" vol="197" len="48" pan="0" key="83"/>
          <note pos="1440" vol="197" len="48" pan="0" key="80"/>
          <note pos="1488" vol="197" len="48" pan="0" key="87"/>
        </pattern>
        <pattern name="" steps="16" pos="43200" muted="0" type="1">
          <note pos="960" vol="78" len="144" pan="0" key="75"/>
          <note pos="1104" vol="78" len="48" pan="0" key="78"/>
          <note pos="1152" vol="78" len="144" pan="0" key="77"/>
          <note pos="1296" vol="78" len="48" pan="0" key="82"/>
          <note pos="1344" vol="78" len="144" pan="0" key="82"/>
          <note pos="1488" vol="78" len="24" pan="0" key="80"/>
          <note pos="1512" vol="78" len="24" pan="0" key="78"/>
          <note pos="1536" vol="78" len="48" pan="0" key="77"/>
          <note pos="1584" vol="78" len="48" pan="0" key="78"/>
          <note pos="1632" vol="78" len="48" pan="0" key="73"/>
          <note pos="1680" vol="78" len="48" pan="0" key="70"/>
          <note pos="1728" vol="78" len="96" pan="0" key="71"/>
          <note pos="1824" vol="78" len="48" pan="0" key="75"/>
          <note pos="1872" vol="78" len="48" pan="0" key="78"/>
          <note pos="1920" vol="78" len="96" pan="0" key="78"/>
          <note pos="2016" vol="78" len="48" pan="0" key="77"/>
          <note pos="2064" vol="78" len="48" pan="0" key="78"/>
          <note pos="2112" vol="78" len="72" pan="0" key="85"/>
          <note pos="2184" vol="78" len="72" pan="0" key="83"/>
          <note pos="2256" vol="78" len="48" pan="0" key="82"/>
          <note pos="2304" vol="78" len="192" pan="0" key="80"/>
          <note pos="2496" vol="78" len="72" pan="0" key="78"/>
          <note pos="2568" vol="78" len="72" pan="0" key="77"/>
          <note pos="2640" vol="78" len="48" pan="0" key="78"/>
          <note pos="2688" vol="78" len="144" pan="0" key="82"/>
          <note pos="2832" vol="78" len="48" pan="0" key="77"/>
          <note pos="2880" vol="78" len="240" pan="0" key="75"/>
          <note pos="3120" vol="78" len="48" pan="0" key="78"/>
          <note pos="3168" vol="78" len="48" pan="0" key="80"/>
          <note pos="3216" vol="78" len="48" pan="0" key="82"/>
          <note pos="3264" vol="78" len="72" pan="0" key="83"/>
          <note pos="3336" vol="78" len="72" pan="0" key="82"/>
          <note pos="3408" vol="78" len="48" pan="0" key="80"/>
          <note pos="3456" vol="78" len="48" pan="0" key="78"/>
          <note pos="3504" vol="78" len="48" pan="0" key="75"/>
          <note pos="3552" vol="78" len="48" pan="0" key="78"/>
          <note pos="3600" vol="78" len="48" pan="0" key="82"/>
          <note pos="3648" vol="78" len="192" pan="0" key="80"/>
        </pattern>
        <pattern name="" steps="16" pos="39552" muted="0" type="1">
          <note pos="0" vol="78" len="12" pan="0" key="73"/>
          <note pos="12" vol="78" len="12" pan="0" key="68"/>
          <note pos="24" vol="78" len="12" pan="0" key="64"/>
          <note pos="36" vol="78" len="12" pan="0" key="61"/>
          <note pos="48" vol="78" len="12" pan="0" key="56"/>
          <note pos="60" vol="78" len="12" pan="0" key="52"/>
          <note pos="72" vol="78" len="12" pan="0" key="56"/>
          <note pos="84" vol="78" len="12" pan="0" key="61"/>
          <note pos="96" vol="78" len="12" pan="0" key="64"/>
          <note pos="108" vol="78" len="12" pan="0" key="68"/>
          <note pos="120" vol="78" len="12" pan="0" key="76"/>
          <note pos="132" vol="78" len="12" pan="0" key="73"/>
          <note pos="144" vol="78" len="12" pan="0" key="68"/>
          <note pos="156" vol="78" len="12" pan="0" key="64"/>
          <note pos="168" vol="78" len="12" pan="0" key="68"/>
          <note pos="180" vol="78" len="12" pan="0" key="73"/>
          <note pos="192" vol="78" len="12" pan="0" key="75"/>
          <note pos="204" vol="78" len="12" pan="0" key="71"/>
          <note pos="216" vol="78" len="12" pan="0" key="68"/>
          <note pos="228" vol="78" len="12" pan="0" key="63"/>
          <note pos="240" vol="78" len="12" pan="0" key="59"/>
          <note pos="252" vol="78" len="12" pan="0" key="56"/>
          <note pos="264" vol="78" len="12" pan="0" key="59"/>
          <note pos="276" vol="78" len="12" pan="0" key="63"/>
          <note pos="288" vol="78" len="12" pan="0" key="68"/>
          <note pos="300" vol="78" len="12" pan="0" key="71"/>
          <note pos="312" vol="78" len="12" pan="0" key="80"/>
          <note pos="324" vol="78" len="12" pan="0" key="75"/>
          <note pos="336" vol="78" len="12" pan="0" key="71"/>
          <note pos="348" vol="78" len="12" pan="0" key="68"/>
          <note pos="360" vol="78" len="12" pan="0" key="71"/>
          <note pos="372" vol="78" len="12" pan="0" key="75"/>
          <note pos="384" vol="78" len="24" pan="0" key="80"/>
          <note pos="408" vol="78" len="24" pan="0" key="76"/>
          <note pos="432" vol="78" len="24" pan="0" key="69"/>
          <note pos="456" vol="78" len="24" pan="0" key="76"/>
          <note pos="480" vol="78" len="24" pan="0" key="75"/>
          <note pos="504" vol="78" len="24" pan="0" key="69"/>
          <note pos="528" vol="78" len="24" pan="0" key="78"/>
          <note pos="552" vol="78" len="24" pan="0" key="76"/>
          <note pos="576" vol="78" len="48" pan="0" key="75"/>
          <note pos="624" vol="78" len="48" pan="0" key="76"/>
          <note pos="672" vol="78" len="12" pan="0" key="76"/>
          <note pos="684" vol="78" len="12" pan="0" key="78"/>
          <note pos="696" vol="78" len="12" pan="0" key="76"/>
          <note pos="708" vol="78" len="12" pan="0" key="75"/>
          <note pos="720" vol="78" len="12" pan="0" key="76"/>
          <note pos="732" vol="78" len="12" pan="0" key="75"/>
          <note pos="744" vol="78" len="12" pan="0" key="73"/>
          <note pos="756" vol="78" len="12" pan="0" key="71"/>
        </pattern>
        <pattern name="" steps="16" pos="40320" muted="0" type="1">
          <note pos="0" vol="78" len="12" pan="0" key="69"/>
          <note pos="0" vol="200" len="48" pan="0" key="1"/>
          <note pos="12" vol="78" len="12" pan="0" key="68"/>
          <note pos="24" vol="78" len="12" pan="0" key="66"/>
          <note pos="36" vol="78" len="12" pan="0" key="68"/>
          <note pos="48" vol="78" len="12" pan="0" key="69"/>
          <note pos="60" vol="78" len="12" pan="0" key="68"/>
          <note pos="72" vol="78" len="12" pan="0" key="66"/>
          <note pos="84" vol="78" len="12" pan="0" key="68"/>
          <note pos="96" vol="78" len="12" pan="0" key="73"/>
          <note pos="108" vol="78" len="12" pan="0" key="71"/>
          <note pos="120" vol="78" len="12" pan="0" key="69"/>
          <note pos="132" vol="78" len="12" pan="0" key="71"/>
          <note pos="144" vol="78" len="12" pan="0" key="73"/>
          <note pos="156" vol="78" len="12" pan="0" key="75"/>
          <note pos="168" vol="78" len="12" pan="0" key="76"/>
          <note pos="180" vol="78" len="12" pan="0" key="75"/>
          <note pos="192" vol="78" len="12" pan="0" key="76"/>
          <note pos="204" vol="78" len="12" pan="0" key="75"/>
          <note pos="216" vol="78" len="12" pan="0" key="73"/>
          <note pos="228" vol="78" len="12" pan="0" key="75"/>
          <note pos="240" vol="78" len="12" pan="0" key="76"/>
          <note pos="240" vol="200" len="48" pan="0" key="0"/>
          <note pos="252" vol="78" len="12" pan="0" key="75"/>
          <note pos="264" vol="78" len="12" pan="0" key="73"/>
          <note pos="276" vol="78" len="12" pan="0" key="75"/>
          <note pos="288" vol="78" len="12" pan="0" key="76"/>
          <note pos="300" vol="78" len="12" pan="0" key="78"/>
          <note pos="312" vol="78" len="12" pan="0" key="80"/>
          <note pos="324" vol="78" len="12" pan="0" key="81"/>
          <note pos="336" vol="78" len="12" pan="0" key="83"/>
          <note pos="348" vol="78" len="12" pan="0" key="76"/>
          <note pos="348" vol="200" len="12" pan="0" key="1"/>
          <note pos="360" vol="78" len="12" pan="0" key="75"/>
          <note pos="372" vol="78" len="12" pan="0" key="76"/>
        </pattern>
        <pattern name="" steps="16" pos="40704" muted="0" type="1">
          <note pos="0" vol="78" len="48" pan="0" key="83"/>
          <note pos="0" vol="100" len="48" pan="0" key="0"/>
          <note pos="48" vol="78" len="12" pan="0" key="81"/>
          <note pos="60" vol="78" len="12" pan="0" key="83"/>
          <note pos="72" vol="78" len="48" pan="0" key="81"/>
          <note pos="120" vol="78" len="12" pan="0" key="80"/>
          <note pos="132" vol="78" len="12" pan="0" key="81"/>
          <note pos="144" vol="78" len="12" pan="0" key="80"/>
          <note pos="144" vol="78" len="12" pan="0" key="0"/>
          <note pos="156" vol="78" len="12" pan="0" key="78"/>
          <note pos="156" vol="78" len="12" pan="0" key="1"/>
          <note pos="168" vol="78" len="12" pan="0" key="76"/>
          <note pos="180" vol="78" len="12" pan="0" key="80"/>
          <note pos="192" vol="78" len="48" pan="0" key="78"/>
          <note pos="192" vol="78" len="12" pan="0" key="0"/>
          <note pos="240" vol="78" len="12" pan="0" key="76"/>
          <note pos="240" vol="78" len="12" pan="0" key="1"/>
          <note pos="252" vol="78" len="12" pan="0" key="75"/>
          <note pos="264" vol="78" len="12" pan="0" key="76"/>
          <note pos="276" vol="78" len="12" pan="0" key="78"/>
          <note pos="288" vol="78" len="12" pan="0" key="80"/>
          <note pos="288" vol="78" len="12" pan="0" key="0"/>
          <note pos="300" vol="78" len="12" pan="0" key="81"/>
          <note pos="312" vol="78" len="12" pan="0" key="80"/>
          <note pos="324" vol="78" len="12" pan="0" key="78"/>
          <note pos="336" vol="78" len="12" pan="0" key="80"/>
          <note pos="348" vol="78" len="12" pan="0" key="78"/>
          <note pos="360" vol="78" len="12" pan="0" key="76"/>
          <note pos="360" vol="78" len="12" pan="0" key="1"/>
          <note pos="372" vol="78" len="12" pan="0" key="75"/>
        </pattern>
        <pattern name="" steps="16" pos="41472" muted="0" type="1">
          <note pos="0" vol="78" len="12" pan="0" key="82"/>
          <note pos="0" vol="78" len="12" pan="0" key="0"/>
          <note pos="12" vol="78" len="12" pan="0" key="78"/>
          <note pos="24" vol="78" len="12" pan="0" key="73"/>
          <note pos="24" vol="78" len="12" pan="0" key="1"/>
          <note pos="36" vol="78" len="12" pan="0" key="78"/>
          <note pos="48" vol="78" len="12" pan="0" key="70"/>
          <note pos="60" vol="78" len="12" pan="0" key="78"/>
          <note pos="72" vol="78" len="12" pan="0" key="73"/>
          <note pos="84" vol="78" len="12" pan="0" key="78"/>
          <note pos="96" vol="78" len="12" pan="0" key="82"/>
          <note pos="108" vol="78" len="12" pan="0" key="78"/>
          <note pos="120" vol="78" len="12" pan="0" key="73"/>
          <note pos="132" vol="78" len="12" pan="0" key="78"/>
          <note pos="144" vol="78" len="12" pan="0" key="70"/>
          <note pos="156" vol="78" len="12" pan="0" key="78"/>
          <note pos="168" vol="78" len="12" pan="0" key="73"/>
          <note pos="180" vol="78" len="12" pan="0" key="78"/>
        </pattern>
        <pattern name="" steps="16" pos="41664" muted="0" type="1">
          <note pos="0" vol="78" len="12" pan="0" key="82"/>
          <note pos="0" vol="78" len="12" pan="0" key="0"/>
          <note pos="12" vol="78" len="12" pan="0" key="78"/>
          <note pos="24" vol="78" len="12" pan="0" key="73"/>
          <note pos="24" vol="78" len="12" pan="0" key="1"/>
          <note pos="36" vol="78" len="12" pan="0" key="78"/>
          <note pos="48" vol="78" len="12" pan="0" key="70"/>
          <note pos="60" vol="78" len="12" pan="0" key="78"/>
          <note pos="72" vol="78" len="12" pan="0" key="73"/>
          <note pos="84" vol="78" len="12" pan="0" key="78"/>
          <note pos="96" vol="78" len="12" pan="0" key="82"/>
          <note pos="108" vol="78" len="12" pan="0" key="78"/>
          <note pos="120" vol="78" len="12" pan="0" key="73"/>
          <note pos="132" vol="78" len="12" pan="0" key="78"/>
          <note pos="144" vol="78" len="12" pan="0" key="70"/>
          <note pos="156" vol="78" len="12" pan="0" key="78"/>
          <note pos="168" vol="78" len="12" pan="0" key="73"/>
          <note pos="180" vol="78" len="12" pan="0" key="78"/>
        </pattern>
        <pattern name="" steps="16" pos="41856" muted="0" type="1">
          <note pos="0" vol="78" len="24" pan="0" key="86"/>
          <note pos="0" vol="78" len="48" pan="0" key="0"/>
          <note pos="24" vol="78" len="24" pan="0" key="81"/>
          <note pos="48" vol="78" len="24" pan="0" key="76"/>
          <note pos="72" vol="78" len="24" pan="0" key="83"/>
          <note pos="96" vol="78" len="24" pan="0" key="85"/>
          <note pos="120" vol="78" len="24" pan="0" key="86"/>
          <note pos="144" vol="78" len="24" pan="0" key="85"/>
          <note pos="168" vol="78" len="24" pan="0" key="83"/>
          <note pos="192" vol="78" len="12" pan="0" key="85"/>
          <note pos="192" vol="78" len="24" pan="0" key="0"/>
          <note pos="204" vol="78" len="12" pan="0" key="81"/>
          <note pos="216" vol="78" len="12" pan="0" key="76"/>
          <note pos="216" vol="78" len="24" pan="0" key="1"/>
          <note pos="228" vol="78" len="12" pan="0" key="73"/>
          <note pos="240" vol="78" len="12" pan="0" key="69"/>
          <note pos="252" vol="78" len="12" pan="0" key="73"/>
          <note pos="264" vol="78" len="12" pan="0" key="81"/>
          <note pos="264" vol="78" len="24" pan="0" key="0"/>
          <note pos="276" vol="78" len="12" pan="0" key="76"/>
          <note pos="288" vol="78" len="12" pan="0" key="73"/>
          <note pos="288" vol="78" len="24" pan="0" key="1"/>
          <note pos="300" vol="78" len="12" pan="0" key="69"/>
          <note pos="312" vol="78" len="12" pan="0" key="73"/>
          <note pos="324" vol="78" len="12" pan="0" key="76"/>
          <note pos="336" vol="78" len="12" pan="0" key="85"/>
          <note pos="336" vol="78" len="24" pan="0" key="0"/>
          <note pos="348" vol="78" len="12" pan="0" key="83"/>
          <note pos="360" vol="78" len="12" pan="0" key="81"/>
          <note pos="360" vol="78" len="24" pan="0" key="1"/>
          <note pos="372" vol="78" len="12" pan="0" key="83"/>
          <note pos="384" vol="78" len="384" pan="0" key="87"/>
          <note pos="384" vol="78" len="24" pan="0" key="0"/>
        </pattern>
        <pattern name="" steps="16" pos="56448" muted="0" type="1">
          <note pos="0" vol="102" len="384" pan="0" key="75"/>
          <note pos="0" vol="102" len="12" pan="0" key="54"/>
          <note pos="12" vol="102" len="12" pan="0" key="58"/>
          <note pos="24" vol="100" len="12" pan="0" key="63"/>
          <note pos="36" vol="100" len="12" pan="0" key="66"/>
          <note pos="48" vol="100" len="12" pan="0" key="70"/>
          <note pos="60" vol="100" len="12" pan="0" key="75"/>
          <note pos="72" vol="100" len="12" pan="0" key="78"/>
          <note pos="84" vol="100" len="12" pan="0" key="82"/>
          <note pos="96" vol="100" len="12" pan="0" key="87"/>
          <note pos="108" vol="100" len="12" pan="0" key="82"/>
          <note pos="120" vol="100" len="12" pan="0" key="78"/>
          <note pos="132" vol="100" len="12" pan="0" key="75"/>
          <note pos="144" vol="100" len="12" pan="0" key="70"/>
          <note pos="156" vol="100" len="12" pan="0" key="66"/>
          <note pos="168" vol="100" len="12" pan="0" key="63"/>
          <note pos="180" vol="100" len="12" pan="0" key="58"/>
        </pattern>
        <pattern name="" steps="16" pos="56832" muted="0" type="1">
          <note pos="0" vol="100" len="12" pan="0" key="53"/>
          <note pos="12" vol="100" len="12" pan="0" key="56"/>
          <note pos="24" vol="100" len="12" pan="0" key="61"/>
          <note pos="36" vol="100" len="12" pan="0" key="65"/>
          <note pos="48" vol="100" len="12" pan="0" key="68"/>
          <note pos="60" vol="100" len="12" pan="0" key="73"/>
          <note pos="72" vol="100" len="12" pan="0" key="77"/>
          <note pos="84" vol="100" len="12" pan="0" key="80"/>
          <note pos="96" vol="100" len="12" pan="0" key="85"/>
          <note pos="108" vol="100" len="12" pan="0" key="80"/>
          <note pos="120" vol="100" len="12" pan="0" key="77"/>
          <note pos="132" vol="100" len="12" pan="0" key="73"/>
          <note pos="144" vol="100" len="12" pan="0" key="68"/>
          <note pos="156" vol="100" len="12" pan="0" key="65"/>
          <note pos="168" vol="100" len="12" pan="0" key="61"/>
          <note pos="180" vol="100" len="12" pan="0" key="56"/>
        </pattern>
        <pattern name="" steps="16" pos="57024" muted="0" type="1">
          <note pos="0" vol="100" len="12" pan="0" key="53"/>
          <note pos="12" vol="100" len="12" pan="0" key="56"/>
          <note pos="24" vol="100" len="12" pan="0" key="61"/>
          <note pos="36" vol="100" len="12" pan="0" key="65"/>
          <note pos="48" vol="100" len="12" pan="0" key="68"/>
          <note pos="60" vol="100" len="12" pan="0" key="73"/>
          <note pos="72" vol="100" len="12" pan="0" key="77"/>
          <note pos="84" vol="100" len="12" pan="0" key="80"/>
          <note pos="96" vol="100" len="12" pan="0" key="85"/>
          <note pos="108" vol="100" len="12" pan="0" key="80"/>
          <note pos="120" vol="100" len="12" pan="0" key="77"/>
          <note pos="132" vol="100" len="12" pan="0" key="73"/>
          <note pos="144" vol="100" len="12" pan="0" key="68"/>
          <note pos="156" vol="100" len="12" pan="0" key="65"/>
          <note pos="168" vol="100" len="12" pan="0" key="61"/>
          <note pos="180" vol="100" len="12" pan="0" key="56"/>
        </pattern>
        <pattern name="" steps="16" pos="56640" muted="0" type="1">
          <note pos="0" vol="100" len="12" pan="0" key="54"/>
          <note pos="12" vol="100" len="12" pan="0" key="58"/>
          <note pos="24" vol="100" len="12" pan="0" key="63"/>
          <note pos="36" vol="100" len="12" pan="0" key="66"/>
          <note pos="48" vol="100" len="12" pan="0" key="70"/>
          <note pos="60" vol="100" len="12" pan="0" key="75"/>
          <note pos="72" vol="100" len="12" pan="0" key="78"/>
          <note pos="84" vol="100" len="12" pan="0" key="82"/>
          <note pos="96" vol="100" len="12" pan="0" key="87"/>
          <note pos="108" vol="100" len="12" pan="0" key="82"/>
          <note pos="120" vol="100" len="12" pan="0" key="78"/>
          <note pos="132" vol="100" len="12" pan="0" key="75"/>
          <note pos="144" vol="100" len="12" pan="0" key="70"/>
          <note pos="156" vol="100" len="12" pan="0" key="66"/>
          <note pos="168" vol="100" len="12" pan="0" key="63"/>
          <note pos="180" vol="100" len="12" pan="0" key="58"/>
        </pattern>
        <pattern name="" steps="16" pos="57216" muted="0" type="1">
          <note pos="0" vol="100" len="12" pan="0" key="51"/>
          <note pos="12" vol="100" len="12" pan="0" key="56"/>
          <note pos="24" vol="100" len="12" pan="0" key="60"/>
          <note pos="36" vol="100" len="12" pan="0" key="63"/>
          <note pos="48" vol="100" len="12" pan="0" key="68"/>
          <note pos="60" vol="100" len="12" pan="0" key="72"/>
          <note pos="72" vol="100" len="12" pan="0" key="75"/>
          <note pos="84" vol="100" len="12" pan="0" key="80"/>
          <note pos="96" vol="100" len="12" pan="0" key="84"/>
          <note pos="108" vol="100" len="12" pan="0" key="80"/>
          <note pos="120" vol="100" len="12" pan="0" key="75"/>
          <note pos="132" vol="100" len="12" pan="0" key="72"/>
          <note pos="144" vol="100" len="12" pan="0" key="68"/>
          <note pos="156" vol="100" len="12" pan="0" key="63"/>
          <note pos="168" vol="100" len="12" pan="0" key="60"/>
          <note pos="180" vol="100" len="12" pan="0" key="56"/>
        </pattern>
        <pattern name="" steps="16" pos="57600" muted="0" type="1">
          <note pos="0" vol="100" len="12" pan="0" key="52"/>
          <note pos="12" vol="100" len="12" pan="0" key="56"/>
          <note pos="24" vol="100" len="12" pan="0" key="59"/>
          <note pos="36" vol="100" len="12" pan="0" key="64"/>
          <note pos="48" vol="100" len="12" pan="0" key="68"/>
          <note pos="60" vol="100" len="12" pan="0" key="71"/>
          <note pos="72" vol="100" len="12" pan="0" key="76"/>
          <note pos="84" vol="100" len="12" pan="0" key="80"/>
          <note pos="96" vol="100" len="12" pan="0" key="83"/>
          <note pos="108" vol="100" len="12" pan="0" key="80"/>
          <note pos="120" vol="100" len="12" pan="0" key="76"/>
          <note pos="132" vol="100" len="12" pan="0" key="71"/>
          <note pos="144" vol="100" len="12" pan="0" key="68"/>
          <note pos="156" vol="100" len="12" pan="0" key="64"/>
          <note pos="168" vol="100" len="12" pan="0" key="59"/>
          <note pos="180" vol="100" len="12" pan="0" key="56"/>
        </pattern>
        <pattern name="" steps="16" pos="57792" muted="0" type="1">
          <note pos="0" vol="100" len="12" pan="0" key="52"/>
          <note pos="12" vol="100" len="12" pan="0" key="56"/>
          <note pos="24" vol="100" len="12" pan="0" key="59"/>
          <note pos="36" vol="100" len="12" pan="0" key="64"/>
          <note pos="48" vol="100" len="12" pan="0" key="68"/>
          <note pos="60" vol="100" len="12" pan="0" key="71"/>
          <note pos="72" vol="100" len="12" pan="0" key="76"/>
          <note pos="84" vol="100" len="12" pan="0" key="80"/>
          <note pos="96" vol="100" len="12" pan="0" key="83"/>
          <note pos="108" vol="100" len="12" pan="0" key="80"/>
          <note pos="120" vol="100" len="12" pan="0" key="76"/>
          <note pos="132" vol="100" len="12" pan="0" key="71"/>
          <note pos="144" vol="100" len="12" pan="0" key="68"/>
          <note pos="156" vol="100" len="12" pan="0" key="64"/>
          <note pos="168" vol="100" len="12" pan="0" key="59"/>
          <note pos="180" vol="100" len="12" pan="0" key="56"/>
        </pattern>
        <pattern name="" steps="16" pos="57984" muted="0" type="1">
          <note pos="0" vol="100" len="12" pan="0" key="54"/>
          <note pos="12" vol="100" len="12" pan="0" key="58"/>
          <note pos="24" vol="100" len="12" pan="0" key="63"/>
          <note pos="36" vol="100" len="12" pan="0" key="66"/>
          <note pos="48" vol="100" len="12" pan="0" key="70"/>
          <note pos="60" vol="100" len="12" pan="0" key="75"/>
          <note pos="72" vol="100" len="12" pan="0" key="78"/>
          <note pos="84" vol="100" len="12" pan="0" key="82"/>
          <note pos="96" vol="100" len="12" pan="0" key="87"/>
          <note pos="108" vol="100" len="12" pan="0" key="82"/>
          <note pos="120" vol="100" len="12" pan="0" key="78"/>
          <note pos="132" vol="100" len="12" pan="0" key="75"/>
          <note pos="144" vol="100" len="12" pan="0" key="70"/>
          <note pos="156" vol="100" len="12" pan="0" key="66"/>
          <note pos="168" vol="100" len="12" pan="0" key="63"/>
          <note pos="180" vol="100" len="12" pan="0" key="58"/>
        </pattern>
        <pattern name="" steps="16" pos="58176" muted="0" type="1">
          <note pos="0" vol="100" len="12" pan="0" key="54"/>
          <note pos="12" vol="100" len="12" pan="0" key="58"/>
          <note pos="24" vol="100" len="12" pan="0" key="63"/>
          <note pos="36" vol="100" len="12" pan="0" key="66"/>
          <note pos="48" vol="100" len="12" pan="0" key="70"/>
          <note pos="60" vol="100" len="12" pan="0" key="75"/>
          <note pos="72" vol="100" len="12" pan="0" key="78"/>
          <note pos="84" vol="100" len="12" pan="0" key="82"/>
          <note pos="96" vol="100" len="12" pan="0" key="87"/>
          <note pos="108" vol="100" len="12" pan="0" key="82"/>
          <note pos="120" vol="100" len="12" pan="0" key="78"/>
          <note pos="132" vol="100" len="12" pan="0" key="75"/>
          <note pos="144" vol="100" len="12" pan="0" key="70"/>
          <note pos="156" vol="100" len="12" pan="0" key="66"/>
          <note pos="168" vol="100" len="12" pan="0" key="63"/>
          <note pos="180" vol="100" len="12" pan="0" key="58"/>
        </pattern>
        <pattern name="" steps="16" pos="58368" muted="0" type="1">
          <note pos="0" vol="100" len="12" pan="0" key="53"/>
          <note pos="12" vol="100" len="12" pan="0" key="56"/>
          <note pos="24" vol="100" len="12" pan="0" key="61"/>
          <note pos="36" vol="100" len="12" pan="0" key="65"/>
          <note pos="48" vol="100" len="12" pan="0" key="68"/>
          <note pos="60" vol="100" len="12" pan="0" key="73"/>
          <note pos="72" vol="100" len="12" pan="0" key="77"/>
          <note pos="84" vol="100" len="12" pan="0" key="80"/>
          <note pos="96" vol="100" len="12" pan="0" key="85"/>
          <note pos="108" vol="100" len="12" pan="0" key="80"/>
          <note pos="120" vol="100" len="12" pan="0" key="77"/>
          <note pos="132" vol="100" len="12" pan="0" key="73"/>
          <note pos="144" vol="100" len="12" pan="0" key="68"/>
          <note pos="156" vol="100" len="12" pan="0" key="65"/>
          <note pos="168" vol="100" len="12" pan="0" key="61"/>
          <note pos="180" vol="100" len="12" pan="0" key="56"/>
        </pattern>
        <pattern name="" steps="16" pos="58560" muted="0" type="1">
          <note pos="0" vol="100" len="12" pan="0" key="53"/>
          <note pos="12" vol="100" len="12" pan="0" key="56"/>
          <note pos="24" vol="100" len="12" pan="0" key="61"/>
          <note pos="36" vol="100" len="12" pan="0" key="65"/>
          <note pos="48" vol="100" len="12" pan="0" key="68"/>
          <note pos="60" vol="100" len="12" pan="0" key="73"/>
          <note pos="72" vol="100" len="12" pan="0" key="77"/>
          <note pos="84" vol="100" len="12" pan="0" key="80"/>
          <note pos="96" vol="100" len="12" pan="0" key="85"/>
          <note pos="108" vol="100" len="12" pan="0" key="80"/>
          <note pos="120" vol="100" len="12" pan="0" key="77"/>
          <note pos="132" vol="100" len="12" pan="0" key="73"/>
          <note pos="144" vol="100" len="12" pan="0" key="68"/>
          <note pos="156" vol="100" len="12" pan="0" key="65"/>
          <note pos="168" vol="100" len="12" pan="0" key="61"/>
          <note pos="180" vol="100" len="12" pan="0" key="56"/>
        </pattern>
        <pattern name="" steps="16" pos="59136" muted="0" type="1">
          <note pos="0" vol="100" len="12" pan="0" key="52"/>
          <note pos="12" vol="100" len="12" pan="0" key="56"/>
          <note pos="24" vol="100" len="12" pan="0" key="59"/>
          <note pos="36" vol="100" len="12" pan="0" key="64"/>
          <note pos="48" vol="100" len="12" pan="0" key="68"/>
          <note pos="60" vol="100" len="12" pan="0" key="71"/>
          <note pos="72" vol="100" len="12" pan="0" key="76"/>
          <note pos="84" vol="100" len="12" pan="0" key="80"/>
          <note pos="96" vol="100" len="12" pan="0" key="83"/>
          <note pos="108" vol="100" len="12" pan="0" key="80"/>
          <note pos="120" vol="100" len="12" pan="0" key="76"/>
          <note pos="132" vol="100" len="12" pan="0" key="71"/>
          <note pos="144" vol="100" len="12" pan="0" key="68"/>
          <note pos="156" vol="100" len="12" pan="0" key="64"/>
          <note pos="168" vol="100" len="12" pan="0" key="59"/>
          <note pos="180" vol="100" len="12" pan="0" key="56"/>
        </pattern>
        <pattern name="" steps="16" pos="59328" muted="0" type="1">
          <note pos="0" vol="100" len="12" pan="0" key="52"/>
          <note pos="12" vol="100" len="12" pan="0" key="56"/>
          <note pos="24" vol="100" len="12" pan="0" key="59"/>
          <note pos="36" vol="100" len="12" pan="0" key="64"/>
          <note pos="48" vol="100" len="12" pan="0" key="68"/>
          <note pos="60" vol="100" len="12" pan="0" key="71"/>
          <note pos="72" vol="100" len="12" pan="0" key="76"/>
          <note pos="84" vol="100" len="12" pan="0" key="80"/>
          <note pos="96" vol="100" len="12" pan="0" key="83"/>
          <note pos="108" vol="100" len="12" pan="0" key="80"/>
          <note pos="120" vol="100" len="12" pan="0" key="76"/>
          <note pos="132" vol="100" len="12" pan="0" key="71"/>
          <note pos="144" vol="100" len="12" pan="0" key="68"/>
          <note pos="156" vol="100" len="12" pan="0" key="64"/>
          <note pos="168" vol="100" len="12" pan="0" key="59"/>
          <note pos="180" vol="100" len="12" pan="0" key="56"/>
        </pattern>
        <pattern name="" steps="16" pos="59520" muted="0" type="1">
          <note pos="0" vol="100" len="12" pan="0" key="54"/>
          <note pos="12" vol="100" len="12" pan="0" key="58"/>
          <note pos="24" vol="100" len="12" pan="0" key="63"/>
          <note pos="36" vol="100" len="12" pan="0" key="66"/>
          <note pos="48" vol="100" len="12" pan="0" key="70"/>
          <note pos="60" vol="100" len="12" pan="0" key="75"/>
          <note pos="72" vol="100" len="12" pan="0" key="78"/>
          <note pos="84" vol="100" len="12" pan="0" key="82"/>
          <note pos="96" vol="100" len="12" pan="0" key="87"/>
          <note pos="108" vol="100" len="12" pan="0" key="82"/>
          <note pos="120" vol="100" len="12" pan="0" key="78"/>
          <note pos="132" vol="100" len="12" pan="0" key="75"/>
          <note pos="144" vol="100" len="12" pan="0" key="70"/>
          <note pos="156" vol="100" len="12" pan="0" key="66"/>
          <note pos="168" vol="100" len="12" pan="0" key="63"/>
          <note pos="180" vol="100" len="12" pan="0" key="58"/>
        </pattern>
        <pattern name="" steps="16" pos="59904" muted="0" type="1">
          <note pos="0" vol="100" len="12" pan="0" key="53"/>
          <note pos="12" vol="100" len="12" pan="0" key="56"/>
          <note pos="24" vol="100" len="12" pan="0" key="61"/>
          <note pos="36" vol="100" len="12" pan="0" key="65"/>
          <note pos="48" vol="100" len="12" pan="0" key="68"/>
          <note pos="60" vol="100" len="12" pan="0" key="73"/>
          <note pos="72" vol="100" len="12" pan="0" key="77"/>
          <note pos="84" vol="100" len="12" pan="0" key="80"/>
          <note pos="96" vol="100" len="12" pan="0" key="85"/>
          <note pos="108" vol="100" len="12" pan="0" key="80"/>
          <note pos="120" vol="100" len="12" pan="0" key="77"/>
          <note pos="132" vol="100" len="12" pan="0" key="73"/>
          <note pos="144" vol="100" len="12" pan="0" key="68"/>
          <note pos="156" vol="100" len="12" pan="0" key="65"/>
          <note pos="168" vol="100" len="12" pan="0" key="61"/>
          <note pos="180" vol="100" len="12" pan="0" key="56"/>
        </pattern>
        <pattern name="" steps="16" pos="60672" muted="0" type="1">
          <note pos="0" vol="100" len="12" pan="0" key="52"/>
          <note pos="12" vol="100" len="12" pan="0" key="56"/>
          <note pos="24" vol="100" len="12" pan="0" key="59"/>
          <note pos="36" vol="100" len="12" pan="0" key="64"/>
          <note pos="48" vol="100" len="12" pan="0" key="68"/>
          <note pos="60" vol="100" len="12" pan="0" key="71"/>
          <note pos="72" vol="100" len="12" pan="0" key="76"/>
          <note pos="84" vol="100" len="12" pan="0" key="80"/>
          <note pos="96" vol="100" len="12" pan="0" key="83"/>
          <note pos="108" vol="100" len="12" pan="0" key="80"/>
          <note pos="120" vol="100" len="12" pan="0" key="76"/>
          <note pos="132" vol="100" len="12" pan="0" key="71"/>
          <note pos="144" vol="100" len="12" pan="0" key="68"/>
          <note pos="156" vol="100" len="12" pan="0" key="64"/>
          <note pos="168" vol="100" len="12" pan="0" key="59"/>
          <note pos="180" vol="100" len="12" pan="0" key="56"/>
        </pattern>
        <pattern name="" steps="16" pos="59712" muted="0" type="1">
          <note pos="0" vol="100" len="12" pan="0" key="54"/>
          <note pos="12" vol="100" len="12" pan="0" key="58"/>
          <note pos="24" vol="100" len="12" pan="0" key="63"/>
          <note pos="36" vol="100" len="12" pan="0" key="66"/>
          <note pos="48" vol="100" len="12" pan="0" key="70"/>
          <note pos="60" vol="100" len="12" pan="0" key="75"/>
          <note pos="72" vol="100" len="12" pan="0" key="78"/>
          <note pos="84" vol="100" len="12" pan="0" key="82"/>
          <note pos="96" vol="100" len="12" pan="0" key="87"/>
          <note pos="108" vol="100" len="12" pan="0" key="82"/>
          <note pos="120" vol="100" len="12" pan="0" key="78"/>
          <note pos="132" vol="100" len="12" pan="0" key="75"/>
          <note pos="144" vol="100" len="12" pan="0" key="70"/>
          <note pos="156" vol="100" len="12" pan="0" key="66"/>
          <note pos="168" vol="100" len="12" pan="0" key="63"/>
          <note pos="180" vol="100" len="12" pan="0" key="58"/>
        </pattern>
        <pattern name="" steps="16" pos="60096" muted="0" type="1">
          <note pos="0" vol="100" len="12" pan="0" key="53"/>
          <note pos="12" vol="100" len="12" pan="0" key="56"/>
          <note pos="24" vol="100" len="12" pan="0" key="61"/>
          <note pos="36" vol="100" len="12" pan="0" key="65"/>
          <note pos="48" vol="100" len="12" pan="0" key="68"/>
          <note pos="60" vol="100" len="12" pan="0" key="73"/>
          <note pos="72" vol="100" len="12" pan="0" key="77"/>
          <note pos="84" vol="100" len="12" pan="0" key="80"/>
          <note pos="96" vol="100" len="12" pan="0" key="85"/>
          <note pos="108" vol="100" len="12" pan="0" key="80"/>
          <note pos="120" vol="100" len="12" pan="0" key="77"/>
          <note pos="132" vol="100" len="12" pan="0" key="73"/>
          <note pos="144" vol="100" len="12" pan="0" key="68"/>
          <note pos="156" vol="100" len="12" pan="0" key="65"/>
          <note pos="168" vol="100" len="12" pan="0" key="61"/>
          <note pos="180" vol="100" len="12" pan="0" key="56"/>
        </pattern>
        <pattern name="" steps="16" pos="60864" muted="0" type="1">
          <note pos="0" vol="100" len="12" pan="0" key="52"/>
          <note pos="12" vol="100" len="12" pan="0" key="56"/>
          <note pos="24" vol="100" len="12" pan="0" key="59"/>
          <note pos="36" vol="100" len="12" pan="0" key="64"/>
          <note pos="48" vol="100" len="12" pan="0" key="68"/>
          <note pos="60" vol="100" len="12" pan="0" key="71"/>
          <note pos="72" vol="100" len="12" pan="0" key="76"/>
          <note pos="84" vol="100" len="12" pan="0" key="80"/>
          <note pos="96" vol="100" len="12" pan="0" key="83"/>
          <note pos="108" vol="100" len="12" pan="0" key="80"/>
          <note pos="120" vol="100" len="12" pan="0" key="76"/>
          <note pos="132" vol="100" len="12" pan="0" key="71"/>
          <note pos="144" vol="100" len="12" pan="0" key="68"/>
          <note pos="156" vol="100" len="12" pan="0" key="64"/>
          <note pos="168" vol="100" len="12" pan="0" key="59"/>
          <note pos="180" vol="100" len="12" pan="0" key="56"/>
        </pattern>
        <pattern name="" steps="16" pos="61056" muted="0" type="1">
          <note pos="0" vol="100" len="12" pan="0" key="54"/>
          <note pos="12" vol="100" len="12" pan="0" key="58"/>
          <note pos="24" vol="100" len="12" pan="0" key="63"/>
          <note pos="36" vol="100" len="12" pan="0" key="66"/>
          <note pos="48" vol="100" len="12" pan="0" key="70"/>
          <note pos="60" vol="100" len="12" pan="0" key="75"/>
          <note pos="72" vol="100" len="12" pan="0" key="78"/>
          <note pos="84" vol="100" len="12" pan="0" key="82"/>
          <note pos="96" vol="100" len="12" pan="0" key="87"/>
          <note pos="108" vol="100" len="12" pan="0" key="82"/>
          <note pos="120" vol="100" len="12" pan="0" key="78"/>
          <note pos="132" vol="100" len="12" pan="0" key="75"/>
          <note pos="144" vol="100" len="12" pan="0" key="70"/>
          <note pos="156" vol="100" len="12" pan="0" key="66"/>
          <note pos="168" vol="100" len="12" pan="0" key="63"/>
          <note pos="180" vol="100" len="12" pan="0" key="58"/>
        </pattern>
        <pattern name="" steps="16" pos="61440" muted="0" type="1">
          <note pos="0" vol="100" len="12" pan="0" key="53"/>
          <note pos="12" vol="100" len="12" pan="0" key="56"/>
          <note pos="24" vol="100" len="12" pan="0" key="61"/>
          <note pos="36" vol="100" len="12" pan="0" key="65"/>
          <note pos="48" vol="100" len="12" pan="0" key="68"/>
          <note pos="60" vol="100" len="12" pan="0" key="73"/>
          <note pos="72" vol="100" len="12" pan="0" key="77"/>
          <note pos="84" vol="100" len="12" pan="0" key="80"/>
          <note pos="96" vol="100" len="12" pan="0" key="85"/>
          <note pos="108" vol="100" len="12" pan="0" key="80"/>
          <note pos="120" vol="100" len="12" pan="0" key="77"/>
          <note pos="132" vol="100" len="12" pan="0" key="73"/>
          <note pos="144" vol="100" len="12" pan="0" key="68"/>
          <note pos="156" vol="100" len="12" pan="0" key="65"/>
          <note pos="168" vol="100" len="12" pan="0" key="61"/>
          <note pos="180" vol="100" len="12" pan="0" key="56"/>
        </pattern>
        <pattern name="" steps="16" pos="62208" muted="0" type="1">
          <note pos="0" vol="100" len="12" pan="0" key="52"/>
          <note pos="12" vol="100" len="12" pan="0" key="56"/>
          <note pos="24" vol="100" len="12" pan="0" key="59"/>
          <note pos="36" vol="100" len="12" pan="0" key="64"/>
          <note pos="48" vol="100" len="12" pan="0" key="68"/>
          <note pos="60" vol="100" len="12" pan="0" key="71"/>
          <note pos="72" vol="100" len="12" pan="0" key="76"/>
          <note pos="84" vol="100" len="12" pan="0" key="80"/>
          <note pos="96" vol="100" len="12" pan="0" key="83"/>
          <note pos="108" vol="100" len="12" pan="0" key="80"/>
          <note pos="120" vol="100" len="12" pan="0" key="76"/>
          <note pos="132" vol="100" len="12" pan="0" key="71"/>
          <note pos="144" vol="100" len="12" pan="0" key="68"/>
          <note pos="156" vol="100" len="12" pan="0" key="64"/>
          <note pos="168" vol="100" len="12" pan="0" key="59"/>
          <note pos="180" vol="100" len="12" pan="0" key="56"/>
        </pattern>
        <pattern name="" steps="16" pos="61248" muted="0" type="1">
          <note pos="0" vol="100" len="12" pan="0" key="54"/>
          <note pos="12" vol="100" len="12" pan="0" key="58"/>
          <note pos="24" vol="100" len="12" pan="0" key="63"/>
          <note pos="36" vol="100" len="12" pan="0" key="66"/>
          <note pos="48" vol="100" len="12" pan="0" key="70"/>
          <note pos="60" vol="100" len="12" pan="0" key="75"/>
          <note pos="72" vol="100" len="12" pan="0" key="78"/>
          <note pos="84" vol="100" len="12" pan="0" key="82"/>
          <note pos="96" vol="100" len="12" pan="0" key="87"/>
          <note pos="108" vol="100" len="12" pan="0" key="82"/>
          <note pos="120" vol="100" len="12" pan="0" key="78"/>
          <note pos="132" vol="100" len="12" pan="0" key="75"/>
          <note pos="144" vol="100" len="12" pan="0" key="70"/>
          <note pos="156" vol="100" len="12" pan="0" key="66"/>
          <note pos="168" vol="100" len="12" pan="0" key="63"/>
          <note pos="180" vol="100" len="12" pan="0" key="58"/>
        </pattern>
        <pattern name="" steps="16" pos="61632" muted="0" type="1">
          <note pos="0" vol="100" len="12" pan="0" key="53"/>
          <note pos="12" vol="100" len="12" pan="0" key="56"/>
          <note pos="24" vol="100" len="12" pan="0" key="61"/>
          <note pos="36" vol="100" len="12" pan="0" key="65"/>
          <note pos="48" vol="100" len="12" pan="0" key="68"/>
          <note pos="60" vol="100" len="12" pan="0" key="73"/>
          <note pos="72" vol="100" len="12" pan="0" key="77"/>
          <note pos="84" vol="100" len="12" pan="0" key="80"/>
          <note pos="96" vol="100" len="12" pan="0" key="85"/>
          <note pos="108" vol="100" len="12" pan="0" key="80"/>
          <note pos="120" vol="100" len="12" pan="0" key="77"/>
          <note pos="132" vol="100" len="12" pan="0" key="73"/>
          <note pos="144" vol="100" len="12" pan="0" key="68"/>
          <note pos="156" vol="100" len="12" pan="0" key="65"/>
          <note pos="168" vol="100" len="12" pan="0" key="61"/>
          <note pos="180" vol="100" len="12" pan="0" key="56"/>
        </pattern>
        <pattern name="" steps="16" pos="62400" muted="0" type="1">
          <note pos="0" vol="100" len="12" pan="0" key="52"/>
          <note pos="12" vol="100" len="12" pan="0" key="56"/>
          <note pos="24" vol="100" len="12" pan="0" key="59"/>
          <note pos="36" vol="100" len="12" pan="0" key="64"/>
          <note pos="48" vol="100" len="12" pan="0" key="68"/>
          <note pos="60" vol="100" len="12" pan="0" key="71"/>
          <note pos="72" vol="100" len="12" pan="0" key="76"/>
          <note pos="84" vol="100" len="12" pan="0" key="80"/>
          <note pos="96" vol="100" len="12" pan="0" key="83"/>
          <note pos="108" vol="100" len="12" pan="0" key="80"/>
          <note pos="120" vol="100" len="12" pan="0" key="76"/>
          <note pos="132" vol="100" len="12" pan="0" key="71"/>
          <note pos="144" vol="100" len="12" pan="0" key="68"/>
          <note pos="156" vol="100" len="12" pan="0" key="64"/>
          <note pos="168" vol="100" len="12" pan="0" key="59"/>
          <note pos="180" vol="100" len="12" pan="0" key="56"/>
        </pattern>
        <pattern name="" steps="16" pos="62592" muted="0" type="1">
          <note pos="0" vol="97" len="144" pan="0" key="75"/>
          <note pos="144" vol="97" len="48" pan="0" key="78"/>
          <note pos="192" vol="97" len="144" pan="0" key="77"/>
          <note pos="336" vol="97" len="48" pan="0" key="82"/>
          <note pos="384" vol="97" len="144" pan="0" key="82"/>
          <note pos="528" vol="97" len="24" pan="0" key="80"/>
          <note pos="552" vol="97" len="24" pan="0" key="78"/>
          <note pos="576" vol="97" len="48" pan="0" key="77"/>
          <note pos="624" vol="97" len="48" pan="0" key="78"/>
          <note pos="672" vol="97" len="12" pan="0" key="73"/>
          <note pos="684" vol="97" len="12" pan="0" key="75"/>
          <note pos="696" vol="97" len="12" pan="0" key="73"/>
          <note pos="708" vol="97" len="12" pan="0" key="70"/>
          <note pos="720" vol="97" len="12" pan="0" key="73"/>
          <note pos="732" vol="97" len="12" pan="0" key="70"/>
          <note pos="744" vol="97" len="12" pan="0" key="68"/>
          <note pos="756" vol="97" len="12" pan="0" key="70"/>
          <note pos="768" vol="97" len="96" pan="0" key="71"/>
          <note pos="864" vol="97" len="48" pan="0" key="75"/>
          <note pos="912" vol="97" len="48" pan="0" key="78"/>
          <note pos="960" vol="97" len="96" pan="0" key="78"/>
          <note pos="1056" vol="97" len="48" pan="0" key="77"/>
          <note pos="1104" vol="97" len="48" pan="0" key="78"/>
          <note pos="1152" vol="97" len="12" pan="0" key="78"/>
          <note pos="1164" vol="97" len="12" pan="0" key="75"/>
          <note pos="1176" vol="97" len="12" pan="0" key="77"/>
          <note pos="1188" vol="97" len="12" pan="0" key="78"/>
          <note pos="1200" vol="97" len="12" pan="0" key="80"/>
          <note pos="1212" vol="97" len="12" pan="0" key="77"/>
          <note pos="1224" vol="97" len="12" pan="0" key="78"/>
          <note pos="1236" vol="97" len="12" pan="0" key="80"/>
          <note pos="1248" vol="97" len="12" pan="0" key="82"/>
          <note pos="1260" vol="97" len="12" pan="0" key="78"/>
          <note pos="1272" vol="97" len="12" pan="0" key="80"/>
          <note pos="1284" vol="97" len="12" pan="0" key="82"/>
          <note pos="1296" vol="97" len="12" pan="0" key="83"/>
          <note pos="1308" vol="97" len="12" pan="0" key="80"/>
          <note pos="1320" vol="97" len="12" pan="0" key="82"/>
          <note pos="1332" vol="97" len="12" pan="0" key="83"/>
        </pattern>
        <pattern name="" steps="16" pos="57408" muted="0" type="1">
          <note pos="0" vol="100" len="12" pan="0" key="51"/>
          <note pos="12" vol="100" len="12" pan="0" key="56"/>
          <note pos="24" vol="100" len="12" pan="0" key="60"/>
          <note pos="36" vol="100" len="12" pan="0" key="63"/>
          <note pos="48" vol="100" len="12" pan="0" key="68"/>
          <note pos="60" vol="100" len="12" pan="0" key="72"/>
          <note pos="72" vol="100" len="12" pan="0" key="75"/>
          <note pos="84" vol="100" len="12" pan="0" key="80"/>
          <note pos="96" vol="100" len="12" pan="0" key="84"/>
          <note pos="108" vol="100" len="12" pan="0" key="80"/>
          <note pos="120" vol="100" len="12" pan="0" key="75"/>
          <note pos="132" vol="100" len="12" pan="0" key="72"/>
          <note pos="144" vol="100" len="12" pan="0" key="68"/>
          <note pos="156" vol="100" len="12" pan="0" key="63"/>
          <note pos="168" vol="100" len="12" pan="0" key="60"/>
          <note pos="180" vol="100" len="12" pan="0" key="56"/>
        </pattern>
        <pattern name="" steps="16" pos="58752" muted="0" type="1">
          <note pos="0" vol="100" len="12" pan="0" key="51"/>
          <note pos="12" vol="100" len="12" pan="0" key="56"/>
          <note pos="24" vol="100" len="12" pan="0" key="60"/>
          <note pos="36" vol="100" len="12" pan="0" key="63"/>
          <note pos="48" vol="100" len="12" pan="0" key="68"/>
          <note pos="60" vol="100" len="12" pan="0" key="72"/>
          <note pos="72" vol="100" len="12" pan="0" key="75"/>
          <note pos="84" vol="100" len="12" pan="0" key="80"/>
          <note pos="96" vol="100" len="12" pan="0" key="84"/>
          <note pos="108" vol="100" len="12" pan="0" key="80"/>
          <note pos="120" vol="100" len="12" pan="0" key="75"/>
          <note pos="132" vol="100" len="12" pan="0" key="72"/>
          <note pos="144" vol="100" len="12" pan="0" key="68"/>
          <note pos="156" vol="100" len="12" pan="0" key="63"/>
          <note pos="168" vol="100" len="12" pan="0" key="60"/>
          <note pos="180" vol="100" len="12" pan="0" key="56"/>
        </pattern>
        <pattern name="" steps="16" pos="58944" muted="0" type="1">
          <note pos="0" vol="100" len="12" pan="0" key="51"/>
          <note pos="12" vol="100" len="12" pan="0" key="56"/>
          <note pos="24" vol="100" len="12" pan="0" key="60"/>
          <note pos="36" vol="100" len="12" pan="0" key="63"/>
          <note pos="48" vol="100" len="12" pan="0" key="68"/>
          <note pos="60" vol="100" len="12" pan="0" key="72"/>
          <note pos="72" vol="100" len="12" pan="0" key="75"/>
          <note pos="84" vol="100" len="12" pan="0" key="80"/>
          <note pos="96" vol="100" len="12" pan="0" key="84"/>
          <note pos="108" vol="100" len="12" pan="0" key="80"/>
          <note pos="120" vol="100" len="12" pan="0" key="75"/>
          <note pos="132" vol="100" len="12" pan="0" key="72"/>
          <note pos="144" vol="100" len="12" pan="0" key="68"/>
          <note pos="156" vol="100" len="12" pan="0" key="63"/>
          <note pos="168" vol="100" len="12" pan="0" key="60"/>
          <note pos="180" vol="100" len="12" pan="0" key="56"/>
        </pattern>
        <pattern name="" steps="16" pos="60288" muted="0" type="1">
          <note pos="0" vol="100" len="12" pan="0" key="51"/>
          <note pos="12" vol="100" len="12" pan="0" key="56"/>
          <note pos="24" vol="100" len="12" pan="0" key="60"/>
          <note pos="36" vol="100" len="12" pan="0" key="63"/>
          <note pos="48" vol="100" len="12" pan="0" key="68"/>
          <note pos="60" vol="100" len="12" pan="0" key="72"/>
          <note pos="72" vol="100" len="12" pan="0" key="75"/>
          <note pos="84" vol="100" len="12" pan="0" key="80"/>
          <note pos="96" vol="100" len="12" pan="0" key="84"/>
          <note pos="108" vol="100" len="12" pan="0" key="80"/>
          <note pos="120" vol="100" len="12" pan="0" key="75"/>
          <note pos="132" vol="100" len="12" pan="0" key="72"/>
          <note pos="144" vol="100" len="12" pan="0" key="68"/>
          <note pos="156" vol="100" len="12" pan="0" key="63"/>
          <note pos="168" vol="100" len="12" pan="0" key="60"/>
          <note pos="180" vol="100" len="12" pan="0" key="56"/>
        </pattern>
        <pattern name="" steps="16" pos="60480" muted="0" type="1">
          <note pos="0" vol="100" len="12" pan="0" key="51"/>
          <note pos="12" vol="100" len="12" pan="0" key="56"/>
          <note pos="24" vol="100" len="12" pan="0" key="60"/>
          <note pos="36" vol="100" len="12" pan="0" key="63"/>
          <note pos="48" vol="100" len="12" pan="0" key="68"/>
          <note pos="60" vol="100" len="12" pan="0" key="72"/>
          <note pos="72" vol="100" len="12" pan="0" key="75"/>
          <note pos="84" vol="100" len="12" pan="0" key="80"/>
          <note pos="96" vol="100" len="12" pan="0" key="84"/>
          <note pos="108" vol="100" len="12" pan="0" key="80"/>
          <note pos="120" vol="100" len="12" pan="0" key="75"/>
          <note pos="132" vol="100" len="12" pan="0" key="72"/>
          <note pos="144" vol="100" len="12" pan="0" key="68"/>
          <note pos="156" vol="100" len="12" pan="0" key="63"/>
          <note pos="168" vol="100" len="12" pan="0" key="60"/>
          <note pos="180" vol="100" len="12" pan="0" key="56"/>
        </pattern>
        <pattern name="" steps="16" pos="61824" muted="0" type="1">
          <note pos="0" vol="100" len="12" pan="0" key="51"/>
          <note pos="12" vol="100" len="12" pan="0" key="56"/>
          <note pos="24" vol="100" len="12" pan="0" key="60"/>
          <note pos="36" vol="100" len="12" pan="0" key="63"/>
          <note pos="48" vol="100" len="12" pan="0" key="68"/>
          <note pos="60" vol="100" len="12" pan="0" key="72"/>
          <note pos="72" vol="100" len="12" pan="0" key="75"/>
          <note pos="84" vol="100" len="12" pan="0" key="80"/>
          <note pos="96" vol="100" len="12" pan="0" key="84"/>
          <note pos="108" vol="100" len="12" pan="0" key="80"/>
          <note pos="120" vol="100" len="12" pan="0" key="75"/>
          <note pos="132" vol="100" len="12" pan="0" key="72"/>
          <note pos="144" vol="100" len="12" pan="0" key="68"/>
          <note pos="156" vol="100" len="12" pan="0" key="63"/>
          <note pos="168" vol="100" len="12" pan="0" key="60"/>
          <note pos="180" vol="100" len="12" pan="0" key="56"/>
        </pattern>
        <pattern name="" steps="16" pos="62016" muted="0" type="1">
          <note pos="0" vol="100" len="12" pan="0" key="51"/>
          <note pos="12" vol="100" len="12" pan="0" key="56"/>
          <note pos="24" vol="100" len="12" pan="0" key="60"/>
          <note pos="36" vol="100" len="12" pan="0" key="63"/>
          <note pos="48" vol="100" len="12" pan="0" key="68"/>
          <note pos="60" vol="100" len="12" pan="0" key="72"/>
          <note pos="72" vol="100" len="12" pan="0" key="75"/>
          <note pos="84" vol="100" len="12" pan="0" key="80"/>
          <note pos="96" vol="100" len="12" pan="0" key="84"/>
          <note pos="108" vol="100" len="12" pan="0" key="80"/>
          <note pos="120" vol="100" len="12" pan="0" key="75"/>
          <note pos="132" vol="100" len="12" pan="0" key="72"/>
          <note pos="144" vol="100" len="12" pan="0" key="68"/>
          <note pos="156" vol="100" len="12" pan="0" key="63"/>
          <note pos="168" vol="100" len="12" pan="0" key="60"/>
          <note pos="180" vol="100" len="12" pan="0" key="56"/>
        </pattern>
        <pattern name="" steps="16" pos="41088" muted="0" type="1">
          <note pos="0" vol="78" len="12" pan="0" key="80"/>
          <note pos="12" vol="78" len="12" pan="0" key="76"/>
          <note pos="24" vol="78" len="12" pan="0" key="75"/>
          <note pos="36" vol="78" len="12" pan="0" key="76"/>
          <note pos="48" vol="78" len="12" pan="0" key="73"/>
          <note pos="60" vol="78" len="12" pan="0" key="76"/>
          <note pos="72" vol="78" len="12" pan="0" key="75"/>
          <note pos="84" vol="78" len="12" pan="0" key="76"/>
          <note pos="96" vol="78" len="12" pan="0" key="80"/>
          <note pos="108" vol="78" len="12" pan="0" key="76"/>
          <note pos="120" vol="78" len="12" pan="0" key="75"/>
          <note pos="132" vol="78" len="12" pan="0" key="76"/>
          <note pos="144" vol="78" len="12" pan="0" key="73"/>
          <note pos="156" vol="78" len="12" pan="0" key="76"/>
          <note pos="168" vol="78" len="12" pan="0" key="75"/>
          <note pos="180" vol="78" len="12" pan="0" key="76"/>
          <note pos="192" vol="78" len="12" pan="0" key="80"/>
          <note pos="204" vol="78" len="12" pan="0" key="75"/>
          <note pos="216" vol="78" len="12" pan="0" key="73"/>
          <note pos="228" vol="78" len="12" pan="0" key="75"/>
          <note pos="240" vol="78" len="12" pan="0" key="71"/>
          <note pos="252" vol="78" len="12" pan="0" key="75"/>
          <note pos="264" vol="78" len="12" pan="0" key="73"/>
          <note pos="276" vol="78" len="12" pan="0" key="75"/>
          <note pos="288" vol="78" len="12" pan="0" key="80"/>
          <note pos="300" vol="78" len="12" pan="0" key="75"/>
          <note pos="312" vol="78" len="12" pan="0" key="73"/>
          <note pos="324" vol="78" len="12" pan="0" key="75"/>
          <note pos="336" vol="78" len="12" pan="0" key="71"/>
          <note pos="348" vol="78" len="12" pan="0" key="75"/>
          <note pos="360" vol="78" len="12" pan="0" key="73"/>
          <note pos="372" vol="78" len="12" pan="0" key="75"/>
        </pattern>
        <pattern name="" steps="16" pos="53376" muted="0" type="1">
          <note pos="0" vol="100" len="192" pan="0" key="75"/>
          <note pos="192" vol="100" len="192" pan="0" key="73"/>
          <note pos="384" vol="100" len="288" pan="0" key="70"/>
          <note pos="672" vol="100" len="96" pan="0" key="70"/>
          <note pos="768" vol="100" len="192" pan="0" key="82"/>
          <note pos="960" vol="100" len="192" pan="0" key="80"/>
          <note pos="1152" vol="100" len="384" pan="0" key="75"/>
          <note pos="1536" vol="100" len="192" pan="0" key="75"/>
          <note pos="1728" vol="100" len="192" pan="0" key="77"/>
          <note pos="1920" vol="100" len="192" pan="0" key="78"/>
          <note pos="2112" vol="100" len="96" pan="0" key="82"/>
          <note pos="2208" vol="100" len="96" pan="0" key="80"/>
          <note pos="2304" vol="100" len="192" pan="0" key="80"/>
          <note pos="2496" vol="100" len="144" pan="0" key="75"/>
          <note pos="2640" vol="100" len="24" pan="0" key="75"/>
          <note pos="2664" vol="100" len="24" pan="0" key="77"/>
          <note pos="2688" vol="100" len="192" pan="0" key="78"/>
          <note pos="2880" vol="100" len="96" pan="0" key="80"/>
          <note pos="2976" vol="100" len="96" pan="0" key="85"/>
        </pattern>
      </track>
      <track name="TB_hit_C5_v4_rr1.wav" solo="0" muted="0" type="0">
        <instrumenttrack basenote="60" fxch="0" usemasterpitch="1" pitch="0" vol="26.4" pan="0" pitchrange="1">
          <instrument name="audiofileprocessor">
            <audiofileprocessor src="/home/pass/samples/VSCO-2-CE-SFZ/VSCO-2-CE-SFZ/Percussion/TB_hit_C5_v4_rr1.wav" reversed="0" interp="1" amp="100" looped="0" sframe="0" stutter="0" eframe="1" lframe="0"/>
          </instrument>
          <eldata fwet="0" fcut="14000" ftype="0" fres="0.5">
            <elvol x100="0" userwavefile="" dec="0.5" amt="1" pdel="0" hold="0.5" lamt="0" lpdel="0" lshp="0" lspd_denominator="4" att="0" ctlenvamt="0" lspd="0.1" lspd_syncmode="0" rel="0.448" latt="0" lspd_numerator="4" sustain="1"/>
            <elcut x100="0" userwavefile="" dec="0.5" amt="0" pdel="0" hold="0.5" lamt="0" lpdel="0" lshp="0" lspd_denominator="4" att="0" ctlenvamt="0" lspd="0.1" lspd_syncmode="0" rel="0.1" latt="0" lspd_numerator="4" sustain="0.5"/>
            <elres x100="0" userwavefile="" dec="0.5" amt="0" pdel="0" hold="0.5" lamt="0" lpdel="0" lshp="0" lspd_denominator="4" att="0" ctlenvamt="0" lspd="0.1" lspd_syncmode="0" rel="0.1" latt="0" lspd_numerator="4" sustain="0.5"/>
          </eldata>
          <chordcreator chord-enabled="0" chord="0" chordrange="1"/>
          <arpeggiator arprange="1" arpmode="0" arp="0" arptime_numerator="4" arpmiss="0" arptime_denominator="4" arpcycle="0" arpskip="0" arptime_syncmode="0" arpgate="100" arptime="200" arpdir="0" arp-enabled="0"/>
          <midiport fixedoutputnote="-1" outputprogram="1" inputcontroller="0" writable="0" fixedoutputvelocity="-1" readable="0" outputchannel="1" basevelocity="63" outputcontroller="0" fixedinputvelocity="-1" inputchannel="0"/>
          <fxchain numofeffects="0" enabled="1"/>
        </instrumenttrack>
        <pattern name="TB_hit_C5_v4_rr1.wav" steps="16" pos="384" muted="0" type="1">
          <note pos="0" vol="197" len="384" pan="0" key="49"/>
          <note pos="48" vol="155" len="336" pan="0" key="49"/>
        </pattern>
        <pattern name="TB_hit_C5_v4_rr1.wav" steps="16" pos="1920" muted="0" type="1">
          <note pos="0" vol="197" len="384" pan="0" key="49"/>
        </pattern>
        <pattern name="TB_hit_C5_v4_rr1.wav" steps="16" pos="2304" muted="0" type="1">
          <note pos="0" vol="197" len="384" pan="0" key="49"/>
        </pattern>
        <pattern name="TB_hit_C5_v4_rr1.wav" steps="16" pos="2688" muted="0" type="1">
          <note pos="0" vol="197" len="384" pan="0" key="49"/>
        </pattern>
        <pattern name="TB_hit_C5_v4_rr1.wav" steps="16" pos="3456" muted="0" type="1">
          <note pos="0" vol="197" len="144" pan="0" key="61"/>
          <note pos="144" vol="197" len="48" pan="0" key="64"/>
          <note pos="192" vol="197" len="144" pan="0" key="63"/>
          <note pos="336" vol="197" len="48" pan="0" key="68"/>
          <note pos="384" vol="197" len="144" pan="0" key="68"/>
          <note pos="528" vol="197" len="24" pan="0" key="66"/>
          <note pos="552" vol="197" len="24" pan="0" key="64"/>
          <note pos="576" vol="197" len="48" pan="0" key="63"/>
          <note pos="624" vol="197" len="48" pan="0" key="64"/>
          <note pos="672" vol="197" len="48" pan="0" key="59"/>
          <note pos="720" vol="197" len="48" pan="0" key="56"/>
          <note pos="768" vol="197" len="144" pan="0" key="57"/>
          <note pos="912" vol="197" len="48" pan="0" key="64"/>
          <note pos="960" vol="197" len="144" pan="0" key="63"/>
          <note pos="1104" vol="197" len="48" pan="0" key="66"/>
          <note pos="1152" vol="197" len="96" pan="0" key="64"/>
          <note pos="1248" vol="197" len="48" pan="0" key="68"/>
          <note pos="1296" vol="197" len="48" pan="0" key="64"/>
          <note pos="1344" vol="197" len="48" pan="0" key="66"/>
          <note pos="1392" vol="197" len="48" pan="0" key="71"/>
          <note pos="1440" vol="197" len="48" pan="0" key="68"/>
          <note pos="1488" vol="197" len="48" pan="0" key="75"/>
        </pattern>
        <pattern name="TB_hit_C5_v4_rr1.wav" steps="16" pos="3072" muted="0" type="1">
          <note pos="0" vol="197" len="384" pan="0" key="49"/>
        </pattern>
        <pattern name="TB_hit_C5_v4_rr1.wav" steps="16" pos="24960" muted="0" type="1">
          <note pos="0" vol="197" len="192" pan="0" key="61"/>
          <note pos="192" vol="197" len="192" pan="0" key="59"/>
          <note pos="384" vol="197" len="288" pan="0" key="56"/>
          <note pos="672" vol="197" len="96" pan="0" key="56"/>
          <note pos="768" vol="197" len="192" pan="0" key="68"/>
          <note pos="960" vol="197" len="192" pan="0" key="66"/>
          <note pos="1152" vol="197" len="384" pan="0" key="61"/>
          <note pos="1536" vol="197" len="192" pan="0" key="61"/>
          <note pos="1728" vol="197" len="192" pan="0" key="63"/>
          <note pos="1920" vol="197" len="192" pan="0" key="64"/>
          <note pos="2112" vol="197" len="96" pan="0" key="68"/>
          <note pos="2208" vol="197" len="96" pan="0" key="66"/>
          <note pos="2304" vol="197" len="192" pan="0" key="66"/>
          <note pos="2496" vol="197" len="144" pan="0" key="61"/>
          <note pos="2640" vol="197" len="24" pan="0" key="61"/>
          <note pos="2664" vol="197" len="24" pan="0" key="63"/>
          <note pos="2688" vol="197" len="192" pan="0" key="64"/>
          <note pos="2880" vol="197" len="96" pan="0" key="64"/>
          <note pos="2976" vol="197" len="96" pan="0" key="68"/>
          <note pos="3072" vol="197" len="384" pan="0" key="73"/>
          <note pos="3456" vol="197" len="384" pan="0" key="73"/>
        </pattern>
        <pattern name="TB_hit_C5_v4_rr1.wav" steps="16" pos="8064" muted="0" type="1">
          <note pos="0" vol="97" len="192" pan="0" key="61"/>
          <note pos="192" vol="97" len="192" pan="0" key="56"/>
          <note pos="384" vol="97" len="192" pan="0" key="57"/>
          <note pos="576" vol="97" len="192" pan="0" key="59"/>
          <note pos="768" vol="97" len="192" pan="0" key="54"/>
          <note pos="960" vol="97" len="192" pan="0" key="56"/>
          <note pos="1152" vol="97" len="192" pan="0" key="57"/>
          <note pos="1344" vol="97" len="96" pan="0" key="59"/>
          <note pos="1440" vol="97" len="96" pan="0" key="60"/>
          <note pos="1536" vol="97" len="192" pan="0" key="61"/>
          <note pos="1728" vol="97" len="192" pan="0" key="59"/>
          <note pos="1920" vol="97" len="192" pan="0" key="58"/>
          <note pos="2304" vol="97" len="192" pan="0" key="50"/>
          <note pos="2496" vol="97" len="192" pan="0" key="57"/>
          <note pos="2688" vol="97" len="192" pan="0" key="59"/>
        </pattern>
        <pattern name="TB_hit_C5_v4_rr1.wav" steps="16" pos="31872" muted="0" type="1">
          <note pos="0" vol="200" len="192" pan="0" key="56"/>
          <note pos="192" vol="200" len="192" pan="0" key="57"/>
          <note pos="384" vol="200" len="192" pan="0" key="59"/>
          <note pos="576" vol="200" len="192" pan="0" key="54"/>
          <note pos="768" vol="200" len="192" pan="0" key="56"/>
          <note pos="960" vol="200" len="192" pan="0" key="57"/>
          <note pos="1152" vol="200" len="192" pan="0" key="59"/>
          <note pos="1344" vol="200" len="192" pan="0" key="63"/>
          <note pos="1536" vol="200" len="192" pan="0" key="61"/>
          <note pos="1920" vol="200" len="192" pan="0" key="61"/>
          <note pos="2112" vol="200" len="192" pan="0" key="64"/>
          <note pos="2304" vol="200" len="192" pan="0" key="62"/>
          <note pos="2688" vol="200" len="192" pan="0" key="61"/>
          <note pos="2880" vol="200" len="192" pan="0" key="66"/>
        </pattern>
        <pattern name="TB_hit_C5_v4_rr1.wav" steps="16" pos="34944" muted="0" type="1">
          <note pos="0" vol="197" len="144" pan="0" key="61"/>
          <note pos="144" vol="197" len="48" pan="0" key="64"/>
          <note pos="192" vol="197" len="144" pan="0" key="63"/>
          <note pos="336" vol="197" len="48" pan="0" key="68"/>
          <note pos="384" vol="197" len="144" pan="0" key="68"/>
          <note pos="528" vol="197" len="24" pan="0" key="66"/>
          <note pos="552" vol="197" len="24" pan="0" key="64"/>
          <note pos="576" vol="197" len="48" pan="0" key="63"/>
          <note pos="624" vol="197" len="48" pan="0" key="64"/>
          <note pos="672" vol="197" len="48" pan="0" key="59"/>
          <note pos="720" vol="197" len="48" pan="0" key="56"/>
          <note pos="768" vol="197" len="144" pan="0" key="57"/>
          <note pos="912" vol="197" len="48" pan="0" key="64"/>
          <note pos="960" vol="197" len="144" pan="0" key="63"/>
          <note pos="1104" vol="197" len="48" pan="0" key="66"/>
          <note pos="1152" vol="197" len="96" pan="0" key="64"/>
          <note pos="1248" vol="197" len="48" pan="0" key="68"/>
          <note pos="1296" vol="197" len="48" pan="0" key="64"/>
          <note pos="1344" vol="197" len="48" pan="0" key="66"/>
          <note pos="1392" vol="197" len="48" pan="0" key="71"/>
          <note pos="1440" vol="197" len="48" pan="0" key="68"/>
          <note pos="1488" vol="197" len="48" pan="0" key="75"/>
        </pattern>
        <pattern name="TB_hit_C5_v4_rr1.wav" steps="16" pos="50304" muted="0" type="1">
          <note pos="0" vol="197" len="192" pan="0" key="63"/>
          <note pos="192" vol="197" len="192" pan="0" key="61"/>
          <note pos="384" vol="197" len="288" pan="0" key="58"/>
          <note pos="672" vol="197" len="96" pan="0" key="58"/>
          <note pos="768" vol="197" len="192" pan="0" key="63"/>
          <note pos="960" vol="197" len="192" pan="0" key="61"/>
          <note pos="1152" vol="197" len="384" pan="0" key="58"/>
          <note pos="1536" vol="197" len="192" pan="0" key="58"/>
          <note pos="1728" vol="197" len="192" pan="0" key="59"/>
          <note pos="1920" vol="197" len="192" pan="0" key="61"/>
          <note pos="2112" vol="197" len="192" pan="0" key="66"/>
          <note pos="2304" vol="197" len="384" pan="0" key="63"/>
        </pattern>
        <pattern name="TB_hit_C5_v4_rr1.wav" steps="16" pos="53376" muted="0" type="1">
          <note pos="0" vol="197" len="192" pan="0" key="63"/>
          <note pos="192" vol="197" len="192" pan="0" key="61"/>
          <note pos="384" vol="197" len="288" pan="0" key="58"/>
          <note pos="672" vol="197" len="96" pan="0" key="58"/>
          <note pos="768" vol="197" len="192" pan="0" key="70"/>
          <note pos="960" vol="197" len="192" pan="0" key="68"/>
          <note pos="1152" vol="197" len="384" pan="0" key="63"/>
          <note pos="1536" vol="197" len="192" pan="0" key="63"/>
          <note pos="1728" vol="197" len="192" pan="0" key="65"/>
          <note pos="1920" vol="197" len="192" pan="0" key="66"/>
          <note pos="2112" vol="197" len="96" pan="0" key="70"/>
          <note pos="2208" vol="197" len="96" pan="0" key="68"/>
          <note pos="2304" vol="197" len="192" pan="0" key="68"/>
          <note pos="2496" vol="197" len="144" pan="0" key="63"/>
          <note pos="2640" vol="197" len="24" pan="0" key="63"/>
          <note pos="2664" vol="197" len="24" pan="0" key="65"/>
          <note pos="2688" vol="197" len="192" pan="0" key="66"/>
          <note pos="2880" vol="197" len="96" pan="0" key="68"/>
          <note pos="2976" vol="197" len="96" pan="0" key="73"/>
          <note pos="3072" vol="197" len="384" pan="0" key="75"/>
        </pattern>
        <pattern name="TB_hit_C5_v4_rr1.wav" steps="16" pos="768" muted="0" type="1">
          <note pos="0" vol="197" len="384" pan="0" key="49"/>
          <note pos="48" vol="155" len="336" pan="0" key="49"/>
        </pattern>
        <pattern name="TB_hit_C5_v4_rr1.wav" steps="16" pos="1152" muted="0" type="1">
          <note pos="0" vol="197" len="384" pan="0" key="49"/>
          <note pos="48" vol="155" len="336" pan="0" key="49"/>
        </pattern>
        <pattern name="TB_hit_C5_v4_rr1.wav" steps="16" pos="1536" muted="0" type="1">
          <note pos="0" vol="197" len="384" pan="0" key="49"/>
          <note pos="48" vol="155" len="336" pan="0" key="49"/>
        </pattern>
      </track>
      <track name="choir hi" solo="0" muted="0" type="0">
        <instrumenttrack basenote="57" fxch="0" usemasterpitch="1" pitch="0" vol="54.4" pan="0" pitchrange="1">
          <instrument name="carlapatchbay">
            <carlapatchbay>
              <CARLA-PROJECT VERSION="2.2">
                <EngineSettings>
                  <ForceStereo>false</ForceStereo>
                  <PreferPluginBridges>false</PreferPluginBridges>
                  <PreferUiBridges>true</PreferUiBridges>
                  <UIsAlwaysOnTop>false</UIsAlwaysOnTop>
                  <MaxParameters>200</MaxParameters>
                  <UIBridgesTimeout>4000</UIBridgesTimeout>
                  <LADSPA_PATH>/home/pass/.ladspa:/usr/lib/ladspa:/usr/local/lib/ladspa</LADSPA_PATH>
                  <DSSI_PATH>/home/pass/.dssi:/usr/lib/dssi:/usr/local/lib/dssi</DSSI_PATH>
                  <LV2_PATH>/home/pass/.lv2:/usr/lib/lv2:/usr/local/lib/lv2</LV2_PATH>
                  <VST2_PATH>/home/pass/.vst:/home/pass/.wine/drive_c/Program Files (x86)/VstPlugins:/home/pass/.wine/drive_c/Program Files/VstPlugins:/home/pass/Music/winvst/VST32:/home/pass/Music/winvst/VST64/Plogue Art et Technologie, Inc:/home/pass/vst:/usr/lib/lxvst:/usr/lib/vst:/usr/local/lib/lxvst:/usr/local/lib/vst/home/pass/.lxvst</VST2_PATH>
                  <VST3_PATH>/home/pass/.vst3:/home/pass/.wine/drive_c/Program Files (x86)/Common Files/VST3:/home/pass/.wine/drive_c/Program Files/Common Files/VST3:/usr/lib/vst3:/usr/local/lib/vst3</VST3_PATH>
                  <SF2_PATH>/home/pass/.sounds/sf2/home/pass/.sounds/sf3:/home/pass/samples/soundfonts:/usr/share/soundfonts:/usr/share/sounds/sf2:/usr/share/sounds/sf3</SF2_PATH>
                  <SFZ_PATH>/home/pass/.sounds/sfz:/home/pass/samples:/usr/share/sounds/sfz</SFZ_PATH>
                </EngineSettings>
                <!-- liquidsfz -->
                <Plugin>
                  <Info>
                    <Type>LV2</Type>
                    <Name>liquidsfz</Name>
                    <URI>http://spectmorph.org/plugins/liquidsfz</URI>
                  </Info>
                  <Data>
                    <Active>Yes</Active>
                    <ControlChannel>1</ControlChannel>
                    <Options>0x3f0</Options>
                    <Parameter>
                      <Index>0</Index>
                      <Name>Output Level</Name>
                      <Symbol>level</Symbol>
                      <Value>0</Value>
                    </Parameter>
                    <CustomData>
                      <Type>http://lv2plug.in/ns/ext/atom#Path</Type>
                      <Key>http://spectmorph.org/plugins/liquidsfz#sfzfile</Key>
                      <Value>Chorus - Female (nolimits).sfz</Value>
                    </CustomData>
                  </Data>
                </Plugin>
                <Patchbay>
                  <Connection>
                    <Source>Midi Input:Capture 1</Source>
                    <Target>liquidsfz:events-in</Target>
                  </Connection>
                  <Connection>
                    <Source>liquidsfz:Left Output</Source>
                    <Target>Audio Output:Left</Target>
                  </Connection>
                  <Connection>
                    <Source>liquidsfz:Right Output</Source>
                    <Target>Audio Output:Right</Target>
                  </Connection>
                  <Positions>
                    <Position y1="1290" x1="1710" pluginId="0">
                      <Name>liquidsfz</Name>
                    </Position>
                  </Positions>
                </Patchbay>
              </CARLA-PROJECT>
            </carlapatchbay>
          </instrument>
          <eldata fwet="0" fcut="14000" ftype="0" fres="0.5">
            <elvol x100="0" userwavefile="" dec="0.5" amt="0" pdel="0" hold="0.5" lamt="0" lpdel="0" lshp="0" lspd_denominator="4" att="0" ctlenvamt="0" lspd="0.1" lspd_syncmode="0" rel="0.1" latt="0" lspd_numerator="4" sustain="0.5"/>
            <elcut x100="0" userwavefile="" dec="0.5" amt="0" pdel="0" hold="0.5" lamt="0" lpdel="0" lshp="0" lspd_denominator="4" att="0" ctlenvamt="0" lspd="0.1" lspd_syncmode="0" rel="0.1" latt="0" lspd_numerator="4" sustain="0.5"/>
            <elres x100="0" userwavefile="" dec="0.5" amt="0" pdel="0" hold="0.5" lamt="0" lpdel="0" lshp="0" lspd_denominator="4" att="0" ctlenvamt="0" lspd="0.1" lspd_syncmode="0" rel="0.1" latt="0" lspd_numerator="4" sustain="0.5"/>
          </eldata>
          <chordcreator chord-enabled="0" chord="0" chordrange="1"/>
          <arpeggiator arprange="1" arpmode="0" arp="0" arptime_numerator="4" arpmiss="0" arptime_denominator="4" arpcycle="0" arpskip="0" arptime_syncmode="0" arpgate="100" arptime="200" arpdir="0" arp-enabled="0"/>
          <midiport fixedoutputnote="-1" outputprogram="1" inputcontroller="0" writable="0" fixedoutputvelocity="-1" readable="0" outputchannel="1" basevelocity="63" outputcontroller="0" fixedinputvelocity="-1" inputchannel="0"/>
          <fxchain numofeffects="0" enabled="0"/>
        </instrumenttrack>
        <pattern name="" steps="16" pos="1920" muted="0" type="1">
          <note pos="0" vol="78" len="36" pan="0" key="44"/>
          <note pos="0" vol="78" len="36" pan="0" key="37"/>
          <note pos="0" vol="78" len="24" pan="0" key="1"/>
          <note pos="72" vol="78" len="36" pan="0" key="44"/>
          <note pos="72" vol="78" len="36" pan="0" key="37"/>
          <note pos="144" vol="78" len="36" pan="0" key="44"/>
          <note pos="144" vol="78" len="36" pan="0" key="37"/>
          <note pos="216" vol="78" len="36" pan="0" key="44"/>
          <note pos="216" vol="78" len="36" pan="0" key="37"/>
          <note pos="288" vol="78" len="24" pan="0" key="44"/>
          <note pos="288" vol="78" len="24" pan="0" key="37"/>
          <note pos="300" vol="78" len="24" pan="0" key="0"/>
          <note pos="312" vol="78" len="48" pan="0" key="44"/>
          <note pos="312" vol="78" len="48" pan="0" key="37"/>
          <note pos="336" vol="78" len="24" pan="0" key="1"/>
          <note pos="360" vol="78" len="24" pan="0" key="44"/>
          <note pos="360" vol="78" len="24" pan="0" key="37"/>
          <note pos="384" vol="78" len="36" pan="0" key="51"/>
          <note pos="384" vol="78" len="36" pan="0" key="44"/>
          <note pos="456" vol="78" len="36" pan="0" key="51"/>
          <note pos="456" vol="78" len="36" pan="0" key="44"/>
          <note pos="528" vol="78" len="36" pan="0" key="51"/>
          <note pos="528" vol="78" len="36" pan="0" key="44"/>
          <note pos="600" vol="78" len="36" pan="0" key="51"/>
          <note pos="600" vol="78" len="36" pan="0" key="44"/>
          <note pos="672" vol="78" len="24" pan="0" key="51"/>
          <note pos="672" vol="78" len="24" pan="0" key="44"/>
          <note pos="684" vol="78" len="24" pan="0" key="0"/>
          <note pos="696" vol="78" len="48" pan="0" key="51"/>
          <note pos="696" vol="78" len="48" pan="0" key="44"/>
          <note pos="720" vol="78" len="24" pan="0" key="1"/>
          <note pos="744" vol="78" len="24" pan="0" key="51"/>
          <note pos="744" vol="78" len="24" pan="0" key="44"/>
          <note pos="768" vol="78" len="36" pan="0" key="46"/>
          <note pos="768" vol="78" len="36" pan="0" key="39"/>
          <note pos="840" vol="78" len="36" pan="0" key="46"/>
          <note pos="840" vol="78" len="36" pan="0" key="39"/>
          <note pos="912" vol="78" len="36" pan="0" key="46"/>
          <note pos="912" vol="78" len="36" pan="0" key="39"/>
          <note pos="984" vol="78" len="36" pan="0" key="46"/>
          <note pos="984" vol="78" len="36" pan="0" key="39"/>
          <note pos="1056" vol="78" len="24" pan="0" key="46"/>
          <note pos="1056" vol="78" len="24" pan="0" key="39"/>
          <note pos="1068" vol="78" len="24" pan="0" key="0"/>
          <note pos="1080" vol="78" len="48" pan="0" key="46"/>
          <note pos="1080" vol="78" len="48" pan="0" key="39"/>
          <note pos="1116" vol="78" len="24" pan="0" key="1"/>
          <note pos="1128" vol="78" len="24" pan="0" key="46"/>
          <note pos="1128" vol="78" len="24" pan="0" key="39"/>
          <note pos="1152" vol="78" len="36" pan="0" key="45"/>
          <note pos="1152" vol="78" len="36" pan="0" key="38"/>
          <note pos="1224" vol="78" len="36" pan="0" key="45"/>
          <note pos="1224" vol="78" len="36" pan="0" key="38"/>
          <note pos="1296" vol="78" len="36" pan="0" key="45"/>
          <note pos="1296" vol="78" len="36" pan="0" key="38"/>
        </pattern>
        <pattern name="" steps="16" pos="44160" muted="0" type="1">
          <note pos="0" vol="200" len="144" pan="0" key="75"/>
          <note pos="0" vol="137" len="144" pan="0" key="63"/>
          <note pos="144" vol="200" len="48" pan="0" key="78"/>
          <note pos="144" vol="137" len="48" pan="0" key="66"/>
          <note pos="192" vol="200" len="144" pan="0" key="77"/>
          <note pos="192" vol="137" len="144" pan="0" key="65"/>
          <note pos="336" vol="200" len="48" pan="0" key="82"/>
          <note pos="336" vol="137" len="48" pan="0" key="70"/>
          <note pos="384" vol="200" len="144" pan="0" key="82"/>
          <note pos="384" vol="137" len="144" pan="0" key="70"/>
          <note pos="528" vol="200" len="24" pan="0" key="80"/>
          <note pos="528" vol="137" len="24" pan="0" key="68"/>
          <note pos="552" vol="200" len="24" pan="0" key="78"/>
          <note pos="552" vol="137" len="24" pan="0" key="66"/>
          <note pos="576" vol="200" len="48" pan="0" key="77"/>
          <note pos="576" vol="137" len="48" pan="0" key="65"/>
          <note pos="624" vol="200" len="48" pan="0" key="78"/>
          <note pos="624" vol="137" len="48" pan="0" key="66"/>
          <note pos="672" vol="200" len="48" pan="0" key="73"/>
          <note pos="672" vol="137" len="48" pan="0" key="61"/>
          <note pos="720" vol="200" len="48" pan="0" key="70"/>
          <note pos="720" vol="137" len="48" pan="0" key="58"/>
          <note pos="768" vol="200" len="96" pan="0" key="71"/>
          <note pos="768" vol="137" len="96" pan="0" key="59"/>
          <note pos="864" vol="200" len="48" pan="0" key="75"/>
          <note pos="864" vol="137" len="48" pan="0" key="63"/>
          <note pos="912" vol="200" len="48" pan="0" key="78"/>
          <note pos="912" vol="137" len="48" pan="0" key="66"/>
          <note pos="960" vol="200" len="96" pan="0" key="78"/>
          <note pos="960" vol="137" len="96" pan="0" key="66"/>
          <note pos="1056" vol="200" len="48" pan="0" key="77"/>
          <note pos="1056" vol="137" len="48" pan="0" key="65"/>
          <note pos="1104" vol="200" len="48" pan="0" key="78"/>
          <note pos="1104" vol="137" len="48" pan="0" key="66"/>
          <note pos="1152" vol="200" len="72" pan="0" key="85"/>
          <note pos="1152" vol="137" len="72" pan="0" key="73"/>
          <note pos="1224" vol="200" len="72" pan="0" key="83"/>
          <note pos="1224" vol="137" len="72" pan="0" key="71"/>
          <note pos="1296" vol="200" len="48" pan="0" key="82"/>
          <note pos="1296" vol="137" len="48" pan="0" key="70"/>
          <note pos="1344" vol="200" len="192" pan="0" key="80"/>
          <note pos="1344" vol="137" len="192" pan="0" key="68"/>
          <note pos="1536" vol="200" len="72" pan="0" key="78"/>
          <note pos="1536" vol="137" len="72" pan="0" key="66"/>
          <note pos="1608" vol="200" len="72" pan="0" key="77"/>
          <note pos="1608" vol="137" len="72" pan="0" key="65"/>
          <note pos="1680" vol="200" len="48" pan="0" key="78"/>
          <note pos="1680" vol="137" len="48" pan="0" key="66"/>
          <note pos="1728" vol="200" len="144" pan="0" key="82"/>
          <note pos="1728" vol="137" len="144" pan="0" key="70"/>
          <note pos="1872" vol="179" len="48" pan="0" key="77"/>
          <note pos="1872" vol="137" len="48" pan="0" key="65"/>
          <note pos="1920" vol="144" len="240" pan="0" key="75"/>
          <note pos="1920" vol="137" len="240" pan="0" key="63"/>
          <note pos="2160" vol="200" len="48" pan="0" key="78"/>
          <note pos="2160" vol="137" len="48" pan="0" key="66"/>
          <note pos="2208" vol="200" len="48" pan="0" key="80"/>
          <note pos="2208" vol="137" len="48" pan="0" key="68"/>
          <note pos="2256" vol="200" len="48" pan="0" key="82"/>
          <note pos="2256" vol="137" len="48" pan="0" key="70"/>
          <note pos="2304" vol="200" len="72" pan="0" key="83"/>
          <note pos="2304" vol="137" len="72" pan="0" key="71"/>
          <note pos="2376" vol="200" len="72" pan="0" key="82"/>
          <note pos="2376" vol="137" len="72" pan="0" key="70"/>
          <note pos="2448" vol="200" len="48" pan="0" key="80"/>
          <note pos="2448" vol="137" len="48" pan="0" key="68"/>
          <note pos="2496" vol="200" len="48" pan="0" key="78"/>
          <note pos="2496" vol="137" len="48" pan="0" key="66"/>
          <note pos="2544" vol="200" len="48" pan="0" key="75"/>
          <note pos="2544" vol="137" len="48" pan="0" key="63"/>
          <note pos="2592" vol="200" len="48" pan="0" key="78"/>
          <note pos="2592" vol="137" len="48" pan="0" key="66"/>
          <note pos="2640" vol="200" len="48" pan="0" key="82"/>
          <note pos="2640" vol="137" len="48" pan="0" key="70"/>
          <note pos="2688" vol="200" len="192" pan="0" key="80"/>
          <note pos="2688" vol="137" len="192" pan="0" key="68"/>
        </pattern>
        <pattern name="" steps="16" pos="15744" muted="0" type="0"/>
        <pattern name="" steps="16" pos="21888" muted="0" type="1">
          <note pos="0" vol="200" len="192" pan="0" key="73"/>
          <note pos="192" vol="200" len="192" pan="0" key="71"/>
          <note pos="384" vol="200" len="384" pan="0" key="68"/>
          <note pos="768" vol="200" len="192" pan="0" key="68"/>
          <note pos="960" vol="200" len="192" pan="0" key="66"/>
          <note pos="1152" vol="200" len="384" pan="0" key="64"/>
        </pattern>
        <pattern name="" steps="16" pos="24000" muted="0" type="1">
          <note pos="0" vol="200" len="192" pan="0" key="76"/>
          <note pos="192" vol="200" len="384" pan="0" key="73"/>
          <note pos="576" vol="200" len="384" pan="0" key="73"/>
        </pattern>
        <pattern name="" steps="16" pos="24960" muted="0" type="1">
          <note pos="0" vol="200" len="192" pan="0" key="73"/>
          <note pos="192" vol="200" len="192" pan="0" key="71"/>
          <note pos="384" vol="200" len="288" pan="0" key="68"/>
          <note pos="672" vol="200" len="96" pan="0" key="68"/>
          <note pos="768" vol="200" len="192" pan="0" key="80"/>
          <note pos="960" vol="200" len="192" pan="0" key="78"/>
          <note pos="1152" vol="200" len="384" pan="0" key="73"/>
          <note pos="1536" vol="200" len="192" pan="0" key="73"/>
          <note pos="1728" vol="200" len="192" pan="0" key="75"/>
          <note pos="1920" vol="200" len="192" pan="0" key="76"/>
          <note pos="2112" vol="200" len="96" pan="0" key="80"/>
          <note pos="2208" vol="200" len="96" pan="0" key="78"/>
          <note pos="2304" vol="200" len="192" pan="0" key="78"/>
          <note pos="2496" vol="200" len="144" pan="0" key="73"/>
          <note pos="2640" vol="200" len="24" pan="0" key="73"/>
          <note pos="2664" vol="200" len="24" pan="0" key="75"/>
          <note pos="2688" vol="200" len="192" pan="0" key="76"/>
          <note pos="2880" vol="200" len="96" pan="0" key="76"/>
          <note pos="2976" vol="200" len="96" pan="0" key="80"/>
          <note pos="3072" vol="200" len="384" pan="0" key="85"/>
          <note pos="3456" vol="200" len="384" pan="0" key="85"/>
        </pattern>
      </track>
      <track name="Plucked 6" solo="0" muted="0" type="0">
        <instrumenttrack basenote="57" fxch="0" usemasterpitch="1" pitch="0" vol="147.2" pan="0" pitchrange="1">
          <instrument name="zynaddsubfx">
            <zynaddsubfx forwardmidicc="1" filterq="64" fmgain="127" bandwidth="64" filterfreq="64" resbandwidth="64" portamento="0" rescenterfreq="64" modifiedcontrollers="">
              <ZynAddSubFX-data version-revision="1" version-major="2" ZynAddSubFX-author="Nasca Octavian Paul" version-minor="4">
                <INFORMATION/>
                <BASE_PARAMETERS>
                  <par name="max_midi_parts" value="16"/>
                  <par name="max_kit_items_per_instrument" value="16"/>
                  <par name="max_system_effects" value="4"/>
                  <par name="max_insertion_effects" value="8"/>
                  <par name="max_instrument_effects" value="3"/>
                  <par name="max_addsynth_voices" value="8"/>
                </BASE_PARAMETERS>
                <MASTER>
                  <par name="volume" value="80"/>
                  <par name="key_shift" value="64"/>
                  <par_bool name="nrpn_receive" value="yes"/>
                  <MICROTONAL>
                    <string name="name">12tET</string>
                    <string name="comment">Equal Temperament 12 notes per octave</string>
                    <par_bool name="invert_up_down" value="no"/>
                    <par name="invert_up_down_center" value="60"/>
                    <par_bool name="enabled" value="no"/>
                    <par name="global_fine_detune" value="64"/>
                    <par name="a_note" value="69"/>
                    <par_real name="a_freq" value="440.000000"/>
                  </MICROTONAL>
                  <PART id="0">
                    <par_bool name="enabled" value="yes"/>
                    <par name="volume" value="96"/>
                    <par name="panning" value="64"/>
                    <par name="min_key" value="0"/>
                    <par name="max_key" value="127"/>
                    <par name="key_shift" value="64"/>
                    <par name="rcv_chn" value="0"/>
                    <par name="velocity_sensing" value="64"/>
                    <par name="velocity_offset" value="64"/>
                    <par_bool name="note_on" value="yes"/>
                    <par_bool name="poly_mode" value="yes"/>
                    <par name="legato_mode" value="0"/>
                    <par name="key_limit" value="15"/>
                    <INSTRUMENT>
                      <INFO>
                        <string name="name">bell_pad</string>
                        <string name="author"/>
                        <string name="comments"/>
                        <par name="type" value="0"/>
                      </INFO>
                      <INSTRUMENT_KIT>
                        <par name="kit_mode" value="0"/>
                        <par_bool name="drum_mode" value="no"/>
                        <INSTRUMENT_KIT_ITEM id="0">
                          <par_bool name="enabled" value="yes"/>
                          <string name="name"/>
                          <par_bool name="muted" value="no"/>
                          <par name="min_key" value="0"/>
                          <par name="max_key" value="127"/>
                          <par name="send_to_instrument_effect" value="0"/>
                          <par_bool name="add_enabled" value="yes"/>
                          <ADD_SYNTH_PARAMETERS>
                            <par_bool name="stereo" value="yes"/>
                            <AMPLITUDE_PARAMETERS>
                              <par name="volume" value="90"/>
                              <par name="panning" value="64"/>
                              <par name="velocity_sensing" value="64"/>
                              <par name="punch_strength" value="0"/>
                              <par name="punch_time" value="60"/>
                              <par name="punch_stretch" value="64"/>
                              <par name="punch_velocity_sensing" value="72"/>
                              <par name="harmonic_randomness_grouping" value="0"/>
                              <AMPLITUDE_ENVELOPE>
                                <par_bool name="free_mode" value="no"/>
                                <par name="env_points" value="4"/>
                                <par name="env_sustain" value="2"/>
                                <par name="env_stretch" value="64"/>
                                <par_bool name="forced_release" value="yes"/>
                                <par_bool name="linear_envelope" value="no"/>
                                <par name="A_dt" value="0"/>
                                <par name="D_dt" value="80"/>
                                <par name="R_dt" value="87"/>
                                <par name="A_val" value="64"/>
                                <par name="D_val" value="64"/>
                                <par name="S_val" value="0"/>
                                <par name="R_val" value="64"/>
                              </AMPLITUDE_ENVELOPE>
                              <AMPLITUDE_LFO>
                                <par_real name="freq" value="0.629921"/>
                                <par name="intensity" value="0"/>
                                <par name="start_phase" value="64"/>
                                <par name="lfo_type" value="0"/>
                                <par name="randomness_amplitude" value="0"/>
                                <par name="randomness_frequency" value="0"/>
                                <par name="delay" value="0"/>
                                <par name="stretch" value="64"/>
                                <par_bool name="continous" value="no"/>
                              </AMPLITUDE_LFO>
                            </AMPLITUDE_PARAMETERS>
                            <FREQUENCY_PARAMETERS>
                              <par name="detune" value="8192"/>
                              <par name="coarse_detune" value="0"/>
                              <par name="detune_type" value="1"/>
                              <par name="bandwidth" value="64"/>
                              <FREQUENCY_ENVELOPE>
                                <par_bool name="free_mode" value="no"/>
                                <par name="env_points" value="3"/>
                                <par name="env_sustain" value="1"/>
                                <par name="env_stretch" value="0"/>
                                <par_bool name="forced_release" value="no"/>
                                <par_bool name="linear_envelope" value="no"/>
                                <par name="A_dt" value="50"/>
                                <par name="D_dt" value="10"/>
                                <par name="R_dt" value="60"/>
                                <par name="A_val" value="64"/>
                                <par name="D_val" value="64"/>
                                <par name="S_val" value="64"/>
                                <par name="R_val" value="64"/>
                              </FREQUENCY_ENVELOPE>
                              <FREQUENCY_LFO>
                                <par_real name="freq" value="0.551181"/>
                                <par name="intensity" value="0"/>
                                <par name="start_phase" value="64"/>
                                <par name="lfo_type" value="0"/>
                                <par name="randomness_amplitude" value="0"/>
                                <par name="randomness_frequency" value="0"/>
                                <par name="delay" value="0"/>
                                <par name="stretch" value="64"/>
                                <par_bool name="continous" value="no"/>
                              </FREQUENCY_LFO>
                            </FREQUENCY_PARAMETERS>
                            <FILTER_PARAMETERS>
                              <par name="velocity_sensing_amplitude" value="64"/>
                              <par name="velocity_sensing" value="64"/>
                              <FILTER>
                                <par name="category" value="0"/>
                                <par name="type" value="2"/>
                                <par name="freq" value="94"/>
                                <par name="q" value="40"/>
                                <par name="stages" value="0"/>
                                <par name="freq_track" value="64"/>
                                <par name="gain" value="64"/>
                              </FILTER>
                              <FILTER_ENVELOPE>
                                <par_bool name="free_mode" value="no"/>
                                <par name="env_points" value="4"/>
                                <par name="env_sustain" value="2"/>
                                <par name="env_stretch" value="0"/>
                                <par_bool name="forced_release" value="yes"/>
                                <par_bool name="linear_envelope" value="no"/>
                                <par name="A_dt" value="40"/>
                                <par name="D_dt" value="70"/>
                                <par name="R_dt" value="61"/>
                                <par name="A_val" value="64"/>
                                <par name="D_val" value="64"/>
                                <par name="S_val" value="64"/>
                                <par name="R_val" value="64"/>
                              </FILTER_ENVELOPE>
                              <FILTER_LFO>
                                <par_real name="freq" value="0.629921"/>
                                <par name="intensity" value="0"/>
                                <par name="start_phase" value="64"/>
                                <par name="lfo_type" value="0"/>
                                <par name="randomness_amplitude" value="0"/>
                                <par name="randomness_frequency" value="0"/>
                                <par name="delay" value="0"/>
                                <par name="stretch" value="64"/>
                                <par_bool name="continous" value="no"/>
                              </FILTER_LFO>
                            </FILTER_PARAMETERS>
                            <RESONANCE>
                              <par_bool name="enabled" value="no"/>
                            </RESONANCE>
                            <VOICE id="0">
                              <par_bool name="enabled" value="yes"/>
                              <par name="type" value="0"/>
                              <par name="unison_size" value="10"/>
                              <par name="unison_frequency_spread" value="60"/>
                              <par name="unison_stereo_spread" value="64"/>
                              <par name="unison_vibratto" value="64"/>
                              <par name="unison_vibratto_speed" value="64"/>
                              <par name="unison_invert_phase" value="0"/>
                              <par name="unison_phase_randomness" value="127"/>
                              <par name="delay" value="0"/>
                              <par_bool name="resonance" value="yes"/>
                              <par name="ext_oscil" value="-1"/>
                              <par name="ext_fm_oscil" value="-1"/>
                              <par name="oscil_phase" value="64"/>
                              <par name="oscil_fm_phase" value="64"/>
                              <par_bool name="filter_enabled" value="no"/>
                              <par_bool name="filter_bypass" value="no"/>
                              <par name="fm_enabled" value="0"/>
                              <OSCIL>
                                <par name="harmonic_mag_type" value="0"/>
                                <par name="base_function" value="0"/>
                                <par name="base_function_par" value="64"/>
                                <par name="base_function_modulation" value="0"/>
                                <par name="base_function_modulation_par1" value="64"/>
                                <par name="base_function_modulation_par2" value="64"/>
                                <par name="base_function_modulation_par3" value="32"/>
                                <par name="modulation" value="0"/>
                                <par name="modulation_par1" value="64"/>
                                <par name="modulation_par2" value="64"/>
                                <par name="modulation_par3" value="32"/>
                                <par name="wave_shaping" value="64"/>
                                <par name="wave_shaping_function" value="0"/>
                                <par name="filter_type" value="0"/>
                                <par name="filter_par1" value="64"/>
                                <par name="filter_par2" value="64"/>
                                <par name="filter_before_wave_shaping" value="0"/>
                                <par name="spectrum_adjust_type" value="0"/>
                                <par name="spectrum_adjust_par" value="64"/>
                                <par name="rand" value="64"/>
                                <par name="amp_rand_type" value="0"/>
                                <par name="amp_rand_power" value="64"/>
                                <par name="harmonic_shift" value="0"/>
                                <par_bool name="harmonic_shift_first" value="no"/>
                                <par name="adaptive_harmonics" value="0"/>
                                <par name="adaptive_harmonics_base_frequency" value="128"/>
                                <par name="adaptive_harmonics_power" value="100"/>
                                <HARMONICS>
                                  <HARMONIC id="1">
                                    <par name="mag" value="127"/>
                                    <par name="phase" value="64"/>
                                  </HARMONIC>
                                  <HARMONIC id="2">
                                    <par name="mag" value="127"/>
                                    <par name="phase" value="64"/>
                                  </HARMONIC>
                                  <HARMONIC id="3">
                                    <par name="mag" value="127"/>
                                    <par name="phase" value="64"/>
                                  </HARMONIC>
                                  <HARMONIC id="9">
                                    <par name="mag" value="97"/>
                                    <par name="phase" value="64"/>
                                  </HARMONIC>
                                  <HARMONIC id="15">
                                    <par name="mag" value="88"/>
                                    <par name="phase" value="64"/>
                                  </HARMONIC>
                                </HARMONICS>
                              </OSCIL>
                              <AMPLITUDE_PARAMETERS>
                                <par name="panning" value="64"/>
                                <par name="volume" value="100"/>
                                <par_bool name="volume_minus" value="no"/>
                                <par name="velocity_sensing" value="127"/>
                                <par_bool name="amp_envelope_enabled" value="no"/>
                                <par_bool name="amp_lfo_enabled" value="no"/>
                              </AMPLITUDE_PARAMETERS>
                              <FREQUENCY_PARAMETERS>
                                <par_bool name="fixed_freq" value="no"/>
                                <par name="fixed_freq_et" value="0"/>
                                <par name="detune" value="8192"/>
                                <par name="coarse_detune" value="0"/>
                                <par name="detune_type" value="0"/>
                                <par_bool name="freq_envelope_enabled" value="no"/>
                                <par_bool name="freq_lfo_enabled" value="no"/>
                              </FREQUENCY_PARAMETERS>
                            </VOICE>
                            <VOICE id="1">
                              <par_bool name="enabled" value="no"/>
                            </VOICE>
                            <VOICE id="2">
                              <par_bool name="enabled" value="no"/>
                            </VOICE>
                            <VOICE id="3">
                              <par_bool name="enabled" value="no"/>
                            </VOICE>
                            <VOICE id="4">
                              <par_bool name="enabled" value="no"/>
                            </VOICE>
                            <VOICE id="5">
                              <par_bool name="enabled" value="no"/>
                            </VOICE>
                            <VOICE id="6">
                              <par_bool name="enabled" value="no"/>
                            </VOICE>
                            <VOICE id="7">
                              <par_bool name="enabled" value="no"/>
                            </VOICE>
                          </ADD_SYNTH_PARAMETERS>
                          <par_bool name="sub_enabled" value="no"/>
                          <par_bool name="pad_enabled" value="no"/>
                        </INSTRUMENT_KIT_ITEM>
                        <INSTRUMENT_KIT_ITEM id="1">
                          <par_bool name="enabled" value="no"/>
                        </INSTRUMENT_KIT_ITEM>
                        <INSTRUMENT_KIT_ITEM id="2">
                          <par_bool name="enabled" value="no"/>
                        </INSTRUMENT_KIT_ITEM>
                        <INSTRUMENT_KIT_ITEM id="3">
                          <par_bool name="enabled" value="no"/>
                        </INSTRUMENT_KIT_ITEM>
                        <INSTRUMENT_KIT_ITEM id="4">
                          <par_bool name="enabled" value="no"/>
                        </INSTRUMENT_KIT_ITEM>
                        <INSTRUMENT_KIT_ITEM id="5">
                          <par_bool name="enabled" value="no"/>
                        </INSTRUMENT_KIT_ITEM>
                        <INSTRUMENT_KIT_ITEM id="6">
                          <par_bool name="enabled" value="no"/>
                        </INSTRUMENT_KIT_ITEM>
                        <INSTRUMENT_KIT_ITEM id="7">
                          <par_bool name="enabled" value="no"/>
                        </INSTRUMENT_KIT_ITEM>
                        <INSTRUMENT_KIT_ITEM id="8">
                          <par_bool name="enabled" value="no"/>
                        </INSTRUMENT_KIT_ITEM>
                        <INSTRUMENT_KIT_ITEM id="9">
                          <par_bool name="enabled" value="no"/>
                        </INSTRUMENT_KIT_ITEM>
                        <INSTRUMENT_KIT_ITEM id="10">
                          <par_bool name="enabled" value="no"/>
                        </INSTRUMENT_KIT_ITEM>
                        <INSTRUMENT_KIT_ITEM id="11">
                          <par_bool name="enabled" value="no"/>
                        </INSTRUMENT_KIT_ITEM>
                        <INSTRUMENT_KIT_ITEM id="12">
                          <par_bool name="enabled" value="no"/>
                        </INSTRUMENT_KIT_ITEM>
                        <INSTRUMENT_KIT_ITEM id="13">
                          <par_bool name="enabled" value="no"/>
                        </INSTRUMENT_KIT_ITEM>
                        <INSTRUMENT_KIT_ITEM id="14">
                          <par_bool name="enabled" value="no"/>
                        </INSTRUMENT_KIT_ITEM>
                        <INSTRUMENT_KIT_ITEM id="15">
                          <par_bool name="enabled" value="no"/>
                        </INSTRUMENT_KIT_ITEM>
                      </INSTRUMENT_KIT>
                      <INSTRUMENT_EFFECTS>
                        <INSTRUMENT_EFFECT id="0">
                          <EFFECT>
                            <par name="type" value="1"/>
                            <par name="preset" value="0"/>
                            <EFFECT_PARAMETERS>
                              <par_no id="0">
                                <par name="par" value="40"/>
                              </par_no>
                              <par_no id="1">
                                <par name="par" value="64"/>
                              </par_no>
                              <par_no id="2">
                                <par name="par" value="63"/>
                              </par_no>
                              <par_no id="3">
                                <par name="par" value="24"/>
                              </par_no>
                              <par_no id="7">
                                <par name="par" value="85"/>
                              </par_no>
                              <par_no id="8">
                                <par name="par" value="5"/>
                              </par_no>
                              <par_no id="9">
                                <par name="par" value="83"/>
                              </par_no>
                              <par_no id="10">
                                <par name="par" value="1"/>
                              </par_no>
                              <par_no id="11">
                                <par name="par" value="64"/>
                              </par_no>
                              <par_no id="12">
                                <par name="par" value="20"/>
                              </par_no>
                            </EFFECT_PARAMETERS>
                          </EFFECT>
                          <par name="route" value="0"/>
                          <par_bool name="bypass" value="no"/>
                        </INSTRUMENT_EFFECT>
                        <INSTRUMENT_EFFECT id="1">
                          <EFFECT>
                            <par name="type" value="0"/>
                          </EFFECT>
                          <par name="route" value="0"/>
                          <par_bool name="bypass" value="no"/>
                        </INSTRUMENT_EFFECT>
                        <INSTRUMENT_EFFECT id="2">
                          <EFFECT>
                            <par name="type" value="0"/>
                          </EFFECT>
                          <par name="route" value="0"/>
                          <par_bool name="bypass" value="no"/>
                        </INSTRUMENT_EFFECT>
                      </INSTRUMENT_EFFECTS>
                    </INSTRUMENT>
                    <CONTROLLER>
                      <par name="pitchwheel_bendrange" value="100"/>
                      <par_bool name="expression_receive" value="yes"/>
                      <par name="panning_depth" value="64"/>
                      <par name="filter_cutoff_depth" value="64"/>
                      <par name="filter_q_depth" value="64"/>
                      <par name="bandwidth_depth" value="64"/>
                      <par name="mod_wheel_depth" value="80"/>
                      <par_bool name="mod_wheel_exponential" value="no"/>
                      <par_bool name="fm_amp_receive" value="yes"/>
                      <par_bool name="volume_receive" value="yes"/>
                      <par_bool name="sustain_receive" value="yes"/>
                      <par_bool name="portamento_receive" value="yes"/>
                      <par name="portamento_time" value="64"/>
                      <par name="portamento_pitchthresh" value="3"/>
                      <par name="portamento_pitchthreshtype" value="1"/>
                      <par name="portamento_portamento" value="0"/>
                      <par name="portamento_updowntimestretch" value="64"/>
                      <par name="portamento_proportional" value="0"/>
                      <par name="portamento_proprate" value="80"/>
                      <par name="portamento_propdepth" value="90"/>
                      <par name="resonance_center_depth" value="64"/>
                      <par name="resonance_bandwidth_depth" value="64"/>
                    </CONTROLLER>
                  </PART>
                  <PART id="1">
                    <par_bool name="enabled" value="no"/>
                  </PART>
                  <PART id="2">
                    <par_bool name="enabled" value="no"/>
                  </PART>
                  <PART id="3">
                    <par_bool name="enabled" value="no"/>
                  </PART>
                  <PART id="4">
                    <par_bool name="enabled" value="no"/>
                  </PART>
                  <PART id="5">
                    <par_bool name="enabled" value="no"/>
                  </PART>
                  <PART id="6">
                    <par_bool name="enabled" value="no"/>
                  </PART>
                  <PART id="7">
                    <par_bool name="enabled" value="no"/>
                  </PART>
                  <PART id="8">
                    <par_bool name="enabled" value="no"/>
                  </PART>
                  <PART id="9">
                    <par_bool name="enabled" value="no"/>
                  </PART>
                  <PART id="10">
                    <par_bool name="enabled" value="no"/>
                  </PART>
                  <PART id="11">
                    <par_bool name="enabled" value="no"/>
                  </PART>
                  <PART id="12">
                    <par_bool name="enabled" value="no"/>
                  </PART>
                  <PART id="13">
                    <par_bool name="enabled" value="no"/>
                  </PART>
                  <PART id="14">
                    <par_bool name="enabled" value="no"/>
                  </PART>
                  <PART id="15">
                    <par_bool name="enabled" value="no"/>
                  </PART>
                  <SYSTEM_EFFECTS>
                    <SYSTEM_EFFECT id="0">
                      <EFFECT>
                        <par name="type" value="0"/>
                      </EFFECT>
                      <VOLUME id="0">
                        <par name="vol" value="0"/>
                      </VOLUME>
                      <VOLUME id="1">
                        <par name="vol" value="0"/>
                      </VOLUME>
                      <VOLUME id="2">
                        <par name="vol" value="0"/>
                      </VOLUME>
                      <VOLUME id="3">
                        <par name="vol" value="0"/>
                      </VOLUME>
                      <VOLUME id="4">
                        <par name="vol" value="0"/>
                      </VOLUME>
                      <VOLUME id="5">
                        <par name="vol" value="0"/>
                      </VOLUME>
                      <VOLUME id="6">
                        <par name="vol" value="0"/>
                      </VOLUME>
                      <VOLUME id="7">
                        <par name="vol" value="0"/>
                      </VOLUME>
                      <VOLUME id="8">
                        <par name="vol" value="0"/>
                      </VOLUME>
                      <VOLUME id="9">
                        <par name="vol" value="0"/>
                      </VOLUME>
                      <VOLUME id="10">
                        <par name="vol" value="0"/>
                      </VOLUME>
                      <VOLUME id="11">
                        <par name="vol" value="0"/>
                      </VOLUME>
                      <VOLUME id="12">
                        <par name="vol" value="0"/>
                      </VOLUME>
                      <VOLUME id="13">
                        <par name="vol" value="0"/>
                      </VOLUME>
                      <VOLUME id="14">
                        <par name="vol" value="0"/>
                      </VOLUME>
                      <VOLUME id="15">
                        <par name="vol" value="0"/>
                      </VOLUME>
                      <SENDTO id="1">
                        <par name="send_vol" value="0"/>
                      </SENDTO>
                      <SENDTO id="2">
                        <par name="send_vol" value="0"/>
                      </SENDTO>
                      <SENDTO id="3">
                        <par name="send_vol" value="0"/>
                      </SENDTO>
                    </SYSTEM_EFFECT>
                    <SYSTEM_EFFECT id="1">
                      <EFFECT>
                        <par name="type" value="0"/>
                      </EFFECT>
                      <VOLUME id="0">
                        <par name="vol" value="0"/>
                      </VOLUME>
                      <VOLUME id="1">
                        <par name="vol" value="0"/>
                      </VOLUME>
                      <VOLUME id="2">
                        <par name="vol" value="0"/>
                      </VOLUME>
                      <VOLUME id="3">
                        <par name="vol" value="0"/>
                      </VOLUME>
                      <VOLUME id="4">
                        <par name="vol" value="0"/>
                      </VOLUME>
                      <VOLUME id="5">
                        <par name="vol" value="0"/>
                      </VOLUME>
                      <VOLUME id="6">
                        <par name="vol" value="0"/>
                      </VOLUME>
                      <VOLUME id="7">
                        <par name="vol" value="0"/>
                      </VOLUME>
                      <VOLUME id="8">
                        <par name="vol" value="0"/>
                      </VOLUME>
                      <VOLUME id="9">
                        <par name="vol" value="0"/>
                      </VOLUME>
                      <VOLUME id="10">
                        <par name="vol" value="0"/>
                      </VOLUME>
                      <VOLUME id="11">
                        <par name="vol" value="0"/>
                      </VOLUME>
                      <VOLUME id="12">
                        <par name="vol" value="0"/>
                      </VOLUME>
                      <VOLUME id="13">
                        <par name="vol" value="0"/>
                      </VOLUME>
                      <VOLUME id="14">
                        <par name="vol" value="0"/>
                      </VOLUME>
                      <VOLUME id="15">
                        <par name="vol" value="0"/>
                      </VOLUME>
                      <SENDTO id="2">
                        <par name="send_vol" value="0"/>
                      </SENDTO>
                      <SENDTO id="3">
                        <par name="send_vol" value="0"/>
                      </SENDTO>
                    </SYSTEM_EFFECT>
                    <SYSTEM_EFFECT id="2">
                      <EFFECT>
                        <par name="type" value="0"/>
                      </EFFECT>
                      <VOLUME id="0">
                        <par name="vol" value="0"/>
                      </VOLUME>
                      <VOLUME id="1">
                        <par name="vol" value="0"/>
                      </VOLUME>
                      <VOLUME id="2">
                        <par name="vol" value="0"/>
                      </VOLUME>
                      <VOLUME id="3">
                        <par name="vol" value="0"/>
                      </VOLUME>
                      <VOLUME id="4">
                        <par name="vol" value="0"/>
                      </VOLUME>
                      <VOLUME id="5">
                        <par name="vol" value="0"/>
                      </VOLUME>
                      <VOLUME id="6">
                        <par name="vol" value="0"/>
                      </VOLUME>
                      <VOLUME id="7">
                        <par name="vol" value="0"/>
                      </VOLUME>
                      <VOLUME id="8">
                        <par name="vol" value="0"/>
                      </VOLUME>
                      <VOLUME id="9">
                        <par name="vol" value="0"/>
                      </VOLUME>
                      <VOLUME id="10">
                        <par name="vol" value="0"/>
                      </VOLUME>
                      <VOLUME id="11">
                        <par name="vol" value="0"/>
                      </VOLUME>
                      <VOLUME id="12">
                        <par name="vol" value="0"/>
                      </VOLUME>
                      <VOLUME id="13">
                        <par name="vol" value="0"/>
                      </VOLUME>
                      <VOLUME id="14">
                        <par name="vol" value="0"/>
                      </VOLUME>
                      <VOLUME id="15">
                        <par name="vol" value="0"/>
                      </VOLUME>
                      <SENDTO id="3">
                        <par name="send_vol" value="0"/>
                      </SENDTO>
                    </SYSTEM_EFFECT>
                    <SYSTEM_EFFECT id="3">
                      <EFFECT>
                        <par name="type" value="0"/>
                      </EFFECT>
                      <VOLUME id="0">
                        <par name="vol" value="0"/>
                      </VOLUME>
                      <VOLUME id="1">
                        <par name="vol" value="0"/>
                      </VOLUME>
                      <VOLUME id="2">
                        <par name="vol" value="0"/>
                      </VOLUME>
                      <VOLUME id="3">
                        <par name="vol" value="0"/>
                      </VOLUME>
                      <VOLUME id="4">
                        <par name="vol" value="0"/>
                      </VOLUME>
                      <VOLUME id="5">
                        <par name="vol" value="0"/>
                      </VOLUME>
                      <VOLUME id="6">
                        <par name="vol" value="0"/>
                      </VOLUME>
                      <VOLUME id="7">
                        <par name="vol" value="0"/>
                      </VOLUME>
                      <VOLUME id="8">
                        <par name="vol" value="0"/>
                      </VOLUME>
                      <VOLUME id="9">
                        <par name="vol" value="0"/>
                      </VOLUME>
                      <VOLUME id="10">
                        <par name="vol" value="0"/>
                      </VOLUME>
                      <VOLUME id="11">
                        <par name="vol" value="0"/>
                      </VOLUME>
                      <VOLUME id="12">
                        <par name="vol" value="0"/>
                      </VOLUME>
                      <VOLUME id="13">
                        <par name="vol" value="0"/>
                      </VOLUME>
                      <VOLUME id="14">
                        <par name="vol" value="0"/>
                      </VOLUME>
                      <VOLUME id="15">
                        <par name="vol" value="0"/>
                      </VOLUME>
                    </SYSTEM_EFFECT>
                  </SYSTEM_EFFECTS>
                  <INSERTION_EFFECTS>
                    <INSERTION_EFFECT id="0">
                      <par name="part" value="-1"/>
                      <EFFECT>
                        <par name="type" value="0"/>
                      </EFFECT>
                    </INSERTION_EFFECT>
                    <INSERTION_EFFECT id="1">
                      <par name="part" value="-1"/>
                      <EFFECT>
                        <par name="type" value="0"/>
                      </EFFECT>
                    </INSERTION_EFFECT>
                    <INSERTION_EFFECT id="2">
                      <par name="part" value="-1"/>
                      <EFFECT>
                        <par name="type" value="0"/>
                      </EFFECT>
                    </INSERTION_EFFECT>
                    <INSERTION_EFFECT id="3">
                      <par name="part" value="-1"/>
                      <EFFECT>
                        <par name="type" value="0"/>
                      </EFFECT>
                    </INSERTION_EFFECT>
                    <INSERTION_EFFECT id="4">
                      <par name="part" value="-1"/>
                      <EFFECT>
                        <par name="type" value="0"/>
                      </EFFECT>
                    </INSERTION_EFFECT>
                    <INSERTION_EFFECT id="5">
                      <par name="part" value="-1"/>
                      <EFFECT>
                        <par name="type" value="0"/>
                      </EFFECT>
                    </INSERTION_EFFECT>
                    <INSERTION_EFFECT id="6">
                      <par name="part" value="-1"/>
                      <EFFECT>
                        <par name="type" value="0"/>
                      </EFFECT>
                    </INSERTION_EFFECT>
                    <INSERTION_EFFECT id="7">
                      <par name="part" value="-1"/>
                      <EFFECT>
                        <par name="type" value="0"/>
                      </EFFECT>
                    </INSERTION_EFFECT>
                  </INSERTION_EFFECTS>
                </MASTER>
              </ZynAddSubFX-data>
            </zynaddsubfx>
          </instrument>
          <eldata fwet="0" fcut="14000" ftype="0" fres="0.5">
            <elvol x100="0" userwavefile="" dec="0.5" amt="0" pdel="0" hold="0.5" lamt="0" lpdel="0" lshp="0" lspd_denominator="4" att="0" ctlenvamt="0" lspd="0.1" lspd_syncmode="0" rel="0.1" latt="0" lspd_numerator="4" sustain="0.5"/>
            <elcut x100="0" userwavefile="" dec="0.5" amt="0" pdel="0" hold="0.5" lamt="0" lpdel="0" lshp="0" lspd_denominator="4" att="0" ctlenvamt="0" lspd="0.1" lspd_syncmode="0" rel="0.1" latt="0" lspd_numerator="4" sustain="0.5"/>
            <elres x100="0" userwavefile="" dec="0.5" amt="0" pdel="0" hold="0.5" lamt="0" lpdel="0" lshp="0" lspd_denominator="4" att="0" ctlenvamt="0" lspd="0.1" lspd_syncmode="0" rel="0.1" latt="0" lspd_numerator="4" sustain="0.5"/>
          </eldata>
          <chordcreator chord-enabled="0" chord="0" chordrange="1"/>
          <arpeggiator arprange="1" arpmode="0" arp="0" arptime_numerator="4" arpmiss="0" arptime_denominator="4" arpcycle="0" arpskip="0" arptime_syncmode="0" arpgate="100" arptime="200" arpdir="0" arp-enabled="0"/>
          <midiport fixedoutputnote="-1" outputprogram="1" inputcontroller="0" writable="0" fixedoutputvelocity="-1" readable="0" outputchannel="1" basevelocity="63" outputcontroller="0" fixedinputvelocity="-1" inputchannel="0"/>
          <fxchain numofeffects="0" enabled="0"/>
        </instrumenttrack>
        <pattern name="" steps="16" pos="3456" muted="0" type="0"/>
        <pattern name="" steps="16" pos="13056" muted="0" type="1">
          <note pos="0" vol="78" len="24" pan="0" key="68"/>
          <note pos="24" vol="78" len="24" pan="0" key="71"/>
          <note pos="48" vol="78" len="24" pan="0" key="68"/>
          <note pos="72" vol="78" len="48" pan="0" key="75"/>
          <note pos="120" vol="78" len="24" pan="0" key="68"/>
          <note pos="144" vol="78" len="24" pan="0" key="71"/>
          <note pos="168" vol="78" len="24" pan="0" key="75"/>
          <note pos="192" vol="78" len="24" pan="0" key="76"/>
          <note pos="216" vol="78" len="24" pan="0" key="75"/>
          <note pos="240" vol="78" len="24" pan="0" key="73"/>
          <note pos="264" vol="78" len="24" pan="0" key="71"/>
          <note pos="288" vol="78" len="24" pan="0" key="75"/>
          <note pos="312" vol="78" len="24" pan="0" key="73"/>
          <note pos="336" vol="78" len="24" pan="0" key="71"/>
          <note pos="360" vol="78" len="24" pan="0" key="68"/>
        </pattern>
        <pattern name="" steps="16" pos="13440" muted="0" type="1">
          <note pos="0" vol="78" len="24" pan="0" key="61"/>
          <note pos="24" vol="78" len="24" pan="0" key="63"/>
          <note pos="48" vol="78" len="24" pan="0" key="61"/>
          <note pos="72" vol="78" len="48" pan="0" key="68"/>
          <note pos="120" vol="78" len="24" pan="0" key="61"/>
          <note pos="144" vol="78" len="24" pan="0" key="64"/>
          <note pos="168" vol="78" len="24" pan="0" key="68"/>
          <note pos="192" vol="78" len="24" pan="0" key="71"/>
          <note pos="216" vol="78" len="24" pan="0" key="73"/>
          <note pos="240" vol="78" len="24" pan="0" key="75"/>
          <note pos="264" vol="78" len="48" pan="0" key="73"/>
          <note pos="312" vol="78" len="24" pan="0" key="75"/>
          <note pos="336" vol="78" len="24" pan="0" key="76"/>
          <note pos="360" vol="78" len="24" pan="0" key="78"/>
        </pattern>
        <pattern name="" steps="16" pos="42624" muted="0" type="1">
          <note pos="0" vol="136" len="144" pan="0" key="61"/>
          <note pos="0" vol="136" len="48" pan="0" key="49"/>
          <note pos="48" vol="136" len="48" pan="0" key="52"/>
          <note pos="96" vol="136" len="48" pan="0" key="56"/>
          <note pos="144" vol="136" len="48" pan="0" key="64"/>
          <note pos="144" vol="136" len="48" pan="0" key="61"/>
          <note pos="192" vol="136" len="144" pan="0" key="63"/>
          <note pos="192" vol="136" len="48" pan="0" key="59"/>
          <note pos="240" vol="136" len="48" pan="0" key="54"/>
          <note pos="288" vol="136" len="48" pan="0" key="59"/>
          <note pos="336" vol="136" len="48" pan="0" key="68"/>
          <note pos="336" vol="136" len="48" pan="0" key="63"/>
          <note pos="384" vol="136" len="144" pan="0" key="68"/>
          <note pos="384" vol="136" len="48" pan="0" key="64"/>
          <note pos="432" vol="136" len="48" pan="0" key="57"/>
          <note pos="480" vol="136" len="48" pan="0" key="61"/>
          <note pos="528" vol="136" len="24" pan="0" key="66"/>
          <note pos="528" vol="136" len="48" pan="0" key="52"/>
          <note pos="552" vol="136" len="24" pan="0" key="64"/>
          <note pos="576" vol="136" len="48" pan="0" key="63"/>
          <note pos="576" vol="136" len="48" pan="0" key="54"/>
          <note pos="624" vol="136" len="48" pan="0" key="64"/>
          <note pos="624" vol="136" len="48" pan="0" key="51"/>
          <note pos="672" vol="136" len="48" pan="0" key="59"/>
          <note pos="672" vol="136" len="48" pan="0" key="54"/>
          <note pos="720" vol="136" len="48" pan="0" key="56"/>
          <note pos="720" vol="136" len="48" pan="0" key="47"/>
          <note pos="768" vol="136" len="96" pan="0" key="57"/>
          <note pos="768" vol="136" len="48" pan="0" key="49"/>
          <note pos="816" vol="136" len="48" pan="0" key="54"/>
          <note pos="864" vol="136" len="48" pan="0" key="61"/>
          <note pos="864" vol="136" len="48" pan="0" key="57"/>
          <note pos="912" vol="136" len="48" pan="0" key="64"/>
          <note pos="912" vol="136" len="48" pan="0" key="54"/>
          <note pos="960" vol="136" len="96" pan="0" key="64"/>
          <note pos="960" vol="136" len="48" pan="0" key="56"/>
          <note pos="1008" vol="136" len="48" pan="0" key="59"/>
          <note pos="1056" vol="136" len="48" pan="0" key="63"/>
          <note pos="1056" vol="136" len="48" pan="0" key="56"/>
          <note pos="1104" vol="136" len="48" pan="0" key="64"/>
          <note pos="1104" vol="136" len="48" pan="0" key="51"/>
          <note pos="1152" vol="136" len="72" pan="0" key="71"/>
          <note pos="1152" vol="136" len="48" pan="0" key="57"/>
        </pattern>
        <pattern name="" steps="16" pos="24960" muted="0" type="1">
          <note pos="0" vol="197" len="192" pan="0" key="61"/>
          <note pos="192" vol="197" len="192" pan="0" key="59"/>
          <note pos="384" vol="197" len="288" pan="0" key="56"/>
          <note pos="672" vol="197" len="96" pan="0" key="56"/>
          <note pos="768" vol="197" len="192" pan="0" key="68"/>
          <note pos="960" vol="197" len="192" pan="0" key="66"/>
          <note pos="1152" vol="197" len="384" pan="0" key="61"/>
          <note pos="1536" vol="197" len="192" pan="0" key="61"/>
          <note pos="1728" vol="197" len="192" pan="0" key="63"/>
          <note pos="1920" vol="197" len="192" pan="0" key="64"/>
          <note pos="2112" vol="197" len="96" pan="0" key="68"/>
          <note pos="2208" vol="197" len="96" pan="0" key="66"/>
          <note pos="2304" vol="197" len="192" pan="0" key="66"/>
          <note pos="2496" vol="197" len="144" pan="0" key="61"/>
          <note pos="2640" vol="197" len="24" pan="0" key="61"/>
          <note pos="2664" vol="197" len="24" pan="0" key="63"/>
          <note pos="2688" vol="197" len="192" pan="0" key="64"/>
          <note pos="2880" vol="197" len="96" pan="0" key="64"/>
          <note pos="2976" vol="197" len="96" pan="0" key="68"/>
          <note pos="3072" vol="197" len="384" pan="0" key="73"/>
          <note pos="3456" vol="197" len="384" pan="0" key="73"/>
        </pattern>
        <pattern name="" steps="16" pos="31872" muted="0" type="1">
          <note pos="0" vol="171" len="192" pan="0" key="68"/>
          <note pos="192" vol="171" len="192" pan="0" key="69"/>
          <note pos="384" vol="171" len="192" pan="0" key="71"/>
          <note pos="576" vol="171" len="192" pan="0" key="66"/>
          <note pos="768" vol="171" len="192" pan="0" key="68"/>
          <note pos="960" vol="171" len="192" pan="0" key="69"/>
          <note pos="1152" vol="171" len="192" pan="0" key="71"/>
          <note pos="1344" vol="171" len="192" pan="0" key="75"/>
          <note pos="1536" vol="171" len="192" pan="0" key="73"/>
          <note pos="1920" vol="171" len="192" pan="0" key="73"/>
          <note pos="2112" vol="171" len="192" pan="0" key="76"/>
          <note pos="2304" vol="171" len="192" pan="0" key="74"/>
          <note pos="2688" vol="171" len="192" pan="0" key="73"/>
          <note pos="2880" vol="171" len="192" pan="0" key="78"/>
        </pattern>
        <pattern name="" steps="16" pos="4992" muted="0" type="1">
          <note pos="0" vol="121" len="192" pan="0" key="76"/>
          <note pos="0" vol="121" len="192" pan="0" key="73"/>
          <note pos="0" vol="121" len="192" pan="0" key="68"/>
          <note pos="192" vol="121" len="192" pan="0" key="73"/>
          <note pos="192" vol="121" len="192" pan="0" key="69"/>
          <note pos="192" vol="121" len="192" pan="0" key="66"/>
          <note pos="384" vol="121" len="192" pan="0" key="75"/>
          <note pos="384" vol="121" len="192" pan="0" key="71"/>
          <note pos="384" vol="121" len="192" pan="0" key="68"/>
          <note pos="576" vol="121" len="96" pan="0" key="76"/>
          <note pos="576" vol="121" len="96" pan="0" key="73"/>
          <note pos="576" vol="121" len="96" pan="0" key="69"/>
          <note pos="672" vol="121" len="96" pan="0" key="75"/>
          <note pos="672" vol="121" len="96" pan="0" key="71"/>
          <note pos="672" vol="121" len="96" pan="0" key="66"/>
        </pattern>
        <pattern name="" steps="16" pos="5760" muted="0" type="1">
          <note pos="0" vol="121" len="192" pan="0" key="76"/>
          <note pos="0" vol="121" len="192" pan="0" key="73"/>
          <note pos="0" vol="121" len="192" pan="0" key="68"/>
          <note pos="192" vol="121" len="192" pan="0" key="73"/>
          <note pos="192" vol="121" len="192" pan="0" key="69"/>
          <note pos="192" vol="121" len="192" pan="0" key="66"/>
          <note pos="384" vol="121" len="192" pan="0" key="75"/>
          <note pos="384" vol="121" len="192" pan="0" key="71"/>
          <note pos="384" vol="121" len="192" pan="0" key="68"/>
          <note pos="576" vol="121" len="96" pan="0" key="76"/>
          <note pos="576" vol="121" len="96" pan="0" key="73"/>
          <note pos="576" vol="121" len="96" pan="0" key="69"/>
          <note pos="672" vol="121" len="96" pan="0" key="75"/>
          <note pos="672" vol="121" len="96" pan="0" key="71"/>
          <note pos="672" vol="121" len="96" pan="0" key="66"/>
        </pattern>
        <pattern name="" steps="16" pos="7104" muted="0" type="1">
          <note pos="960" vol="200" len="144" pan="0" key="73"/>
          <note pos="1104" vol="200" len="48" pan="0" key="76"/>
          <note pos="1152" vol="200" len="144" pan="0" key="75"/>
          <note pos="1296" vol="200" len="48" pan="0" key="80"/>
          <note pos="1344" vol="200" len="144" pan="0" key="80"/>
          <note pos="1488" vol="200" len="24" pan="0" key="78"/>
          <note pos="1512" vol="200" len="24" pan="0" key="76"/>
          <note pos="1536" vol="200" len="48" pan="0" key="75"/>
          <note pos="1584" vol="200" len="48" pan="0" key="76"/>
          <note pos="1632" vol="200" len="48" pan="0" key="71"/>
          <note pos="1680" vol="200" len="48" pan="0" key="68"/>
          <note pos="1728" vol="200" len="96" pan="0" key="69"/>
          <note pos="1824" vol="200" len="48" pan="0" key="73"/>
          <note pos="1872" vol="200" len="48" pan="0" key="76"/>
          <note pos="1920" vol="200" len="96" pan="0" key="76"/>
          <note pos="2016" vol="200" len="48" pan="0" key="75"/>
          <note pos="2064" vol="200" len="48" pan="0" key="76"/>
          <note pos="2112" vol="200" len="72" pan="0" key="83"/>
          <note pos="2184" vol="200" len="72" pan="0" key="81"/>
          <note pos="2256" vol="200" len="48" pan="0" key="80"/>
          <note pos="2304" vol="200" len="192" pan="0" key="78"/>
          <note pos="2496" vol="200" len="72" pan="0" key="76"/>
          <note pos="2568" vol="200" len="72" pan="0" key="75"/>
          <note pos="2640" vol="200" len="48" pan="0" key="76"/>
          <note pos="2688" vol="200" len="144" pan="0" key="80"/>
          <note pos="2832" vol="200" len="48" pan="0" key="75"/>
          <note pos="2880" vol="200" len="240" pan="0" key="73"/>
          <note pos="3120" vol="200" len="48" pan="0" key="76"/>
          <note pos="3168" vol="200" len="48" pan="0" key="78"/>
          <note pos="3216" vol="200" len="48" pan="0" key="80"/>
          <note pos="3264" vol="200" len="72" pan="0" key="81"/>
          <note pos="3336" vol="200" len="72" pan="0" key="80"/>
          <note pos="3408" vol="200" len="48" pan="0" key="78"/>
          <note pos="3456" vol="200" len="48" pan="0" key="76"/>
          <note pos="3504" vol="200" len="48" pan="0" key="73"/>
          <note pos="3552" vol="200" len="48" pan="0" key="76"/>
          <note pos="3600" vol="200" len="48" pan="0" key="80"/>
          <note pos="3648" vol="200" len="192" pan="0" key="78"/>
          <note pos="3840" vol="200" len="96" pan="0" key="75"/>
          <note pos="3936" vol="200" len="96" pan="0" key="71"/>
          <note pos="4032" vol="200" len="384" pan="0" key="73"/>
        </pattern>
        <pattern name="" steps="16" pos="14784" muted="0" type="1">
          <note pos="960" vol="200" len="144" pan="0" key="73"/>
          <note pos="1104" vol="200" len="48" pan="0" key="76"/>
          <note pos="1152" vol="200" len="144" pan="0" key="75"/>
          <note pos="1296" vol="200" len="48" pan="0" key="80"/>
          <note pos="1344" vol="200" len="144" pan="0" key="80"/>
          <note pos="1488" vol="200" len="24" pan="0" key="78"/>
          <note pos="1512" vol="200" len="24" pan="0" key="76"/>
          <note pos="1536" vol="200" len="48" pan="0" key="75"/>
          <note pos="1584" vol="200" len="48" pan="0" key="76"/>
          <note pos="1632" vol="200" len="48" pan="0" key="71"/>
          <note pos="1680" vol="200" len="48" pan="0" key="68"/>
          <note pos="1728" vol="200" len="96" pan="0" key="69"/>
          <note pos="1824" vol="200" len="48" pan="0" key="73"/>
          <note pos="1872" vol="200" len="48" pan="0" key="76"/>
          <note pos="1920" vol="200" len="96" pan="0" key="76"/>
          <note pos="2016" vol="200" len="48" pan="0" key="75"/>
          <note pos="2064" vol="200" len="48" pan="0" key="76"/>
          <note pos="2112" vol="200" len="72" pan="0" key="83"/>
          <note pos="2184" vol="200" len="72" pan="0" key="81"/>
          <note pos="2256" vol="200" len="48" pan="0" key="80"/>
          <note pos="2304" vol="200" len="192" pan="0" key="78"/>
          <note pos="2496" vol="200" len="72" pan="0" key="76"/>
          <note pos="2568" vol="200" len="72" pan="0" key="75"/>
          <note pos="2640" vol="200" len="48" pan="0" key="76"/>
          <note pos="2688" vol="200" len="144" pan="0" key="80"/>
          <note pos="2832" vol="200" len="48" pan="0" key="75"/>
          <note pos="2880" vol="200" len="240" pan="0" key="73"/>
          <note pos="3120" vol="200" len="48" pan="0" key="76"/>
          <note pos="3168" vol="200" len="48" pan="0" key="78"/>
          <note pos="3216" vol="200" len="48" pan="0" key="80"/>
          <note pos="3264" vol="200" len="72" pan="0" key="81"/>
          <note pos="3336" vol="200" len="72" pan="0" key="80"/>
          <note pos="3408" vol="200" len="48" pan="0" key="78"/>
          <note pos="3456" vol="200" len="48" pan="0" key="76"/>
          <note pos="3504" vol="200" len="48" pan="0" key="73"/>
          <note pos="3552" vol="200" len="48" pan="0" key="76"/>
          <note pos="3600" vol="200" len="48" pan="0" key="80"/>
          <note pos="3648" vol="200" len="192" pan="0" key="78"/>
          <note pos="3840" vol="200" len="96" pan="0" key="75"/>
          <note pos="3936" vol="200" len="96" pan="0" key="71"/>
          <note pos="4032" vol="200" len="384" pan="0" key="73"/>
        </pattern>
      </track>
      <track name="reverb clap.wav" solo="0" muted="0" type="0">
        <instrumenttrack basenote="57" fxch="0" usemasterpitch="1" pitch="0" vol="149.7" pan="0" pitchrange="1">
          <instrument name="audiofileprocessor">
            <audiofileprocessor src="usersample:reverb clap.wav" reversed="1" interp="1" amp="100" looped="0" sframe="6.8712e-6" stutter="0" eframe="1" lframe="1.37424e-5"/>
          </instrument>
          <eldata fwet="1" fcut="8904" ftype="0" fres="0.5">
            <elvol x100="0" userwavefile="" dec="0.5" amt="0" pdel="0" hold="0.5" lamt="0" lpdel="0" lshp="0" lspd_denominator="4" att="0" ctlenvamt="0" lspd="0.1" lspd_syncmode="0" rel="0.1" latt="0" lspd_numerator="4" sustain="0.5"/>
            <elcut x100="0" userwavefile="" dec="0.5" amt="0" pdel="0" hold="0.5" lamt="0" lpdel="0" lshp="0" lspd_denominator="4" att="0" ctlenvamt="0" lspd="0.1" lspd_syncmode="0" rel="0.1" latt="0" lspd_numerator="4" sustain="0.5"/>
            <elres x100="0" userwavefile="" dec="0.5" amt="0" pdel="0" hold="0.5" lamt="0" lpdel="0" lshp="0" lspd_denominator="4" att="0" ctlenvamt="0" lspd="0.1" lspd_syncmode="0" rel="0.1" latt="0" lspd_numerator="4" sustain="0.5"/>
          </eldata>
          <chordcreator chord-enabled="0" chord="0" chordrange="1"/>
          <arpeggiator arprange="1" arpmode="0" arp="0" arptime_numerator="4" arpmiss="0" arptime_denominator="4" arpcycle="0" arpskip="0" arptime_syncmode="0" arpgate="100" arptime="200" arpdir="0" arp-enabled="0"/>
          <midiport fixedoutputnote="-1" outputprogram="1" inputcontroller="0" writable="0" fixedoutputvelocity="-1" readable="0" outputchannel="1" basevelocity="63" outputcontroller="0" fixedinputvelocity="-1" inputchannel="0"/>
          <fxchain numofeffects="0" enabled="0"/>
        </instrumenttrack>
        <pattern name="" steps="16" pos="28224" muted="0" type="1">
          <note pos="48" vol="100" len="528" pan="0" key="57"/>
        </pattern>
        <pattern name="" steps="16" pos="46464" muted="0" type="0"/>
      </track>
      <track name="bass fender jazz (1,379kb)" solo="0" muted="0" type="0">
        <instrumenttrack basenote="57" fxch="0" usemasterpitch="1" pitch="0" vol="30.6" pan="0" pitchrange="2">
          <instrument name="sf2player">
            <sf2player reverbRoomSize="0.2" src="/home/pass/samples/soundfonts/bass fender jazz (1,379kb).sf2" chorusOn="0" chorusDepth="8" gain="3.16" reverbDamping="0" chorusNum="3" chorusLevel="2" bank="0" reverbLevel="0.9" patch="0" reverbOn="0" chorusSpeed="0.3" reverbWidth="0.5"/>
          </instrument>
          <eldata fwet="0" fcut="14000" ftype="0" fres="0.5">
            <elvol x100="0" userwavefile="" dec="0.5" amt="0" pdel="0" hold="0.5" lamt="0" lpdel="0" lshp="0" lspd_denominator="4" att="0" ctlenvamt="0" lspd="0.1" lspd_syncmode="0" rel="0.1" latt="0" lspd_numerator="4" sustain="0.5"/>
            <elcut x100="0" userwavefile="" dec="0.5" amt="0" pdel="0" hold="0.5" lamt="0" lpdel="0" lshp="0" lspd_denominator="4" att="0" ctlenvamt="0" lspd="0.1" lspd_syncmode="0" rel="0.1" latt="0" lspd_numerator="4" sustain="0.5"/>
            <elres x100="0" userwavefile="" dec="0.5" amt="0" pdel="0" hold="0.5" lamt="0" lpdel="0" lshp="0" lspd_denominator="4" att="0" ctlenvamt="0" lspd="0.1" lspd_syncmode="0" rel="0.1" latt="0" lspd_numerator="4" sustain="0.5"/>
          </eldata>
          <chordcreator chord-enabled="0" chord="0" chordrange="1"/>
          <arpeggiator arprange="1" arpmode="0" arp="0" arptime_numerator="4" arpmiss="0" arptime_denominator="4" arpcycle="0" arpskip="0" arptime_syncmode="0" arpgate="100" arptime="200" arpdir="0" arp-enabled="0"/>
          <midiport fixedoutputnote="-1" outputprogram="1" inputcontroller="0" writable="0" fixedoutputvelocity="-1" readable="0" outputchannel="1" basevelocity="63" outputcontroller="0" fixedinputvelocity="-1" inputchannel="0"/>
          <fxchain numofeffects="0" enabled="0"/>
        </instrumenttrack>
        <pattern name="" steps="16" pos="22656" muted="0" type="1">
          <note pos="0" vol="195" len="768" pan="0" key="25"/>
          <note pos="768" vol="195" len="384" pan="0" key="26"/>
          <note pos="1152" vol="195" len="288" pan="0" key="25"/>
          <note pos="1440" vol="195" len="12" pan="0" key="31"/>
          <note pos="1448" vol="195" len="84" pan="0" key="32"/>
          <note pos="1536" vol="195" len="120" pan="0" key="30"/>
          <note pos="1656" vol="195" len="24" pan="0" key="30"/>
          <note pos="1680" vol="195" len="24" pan="0" key="25"/>
          <note pos="1704" vol="195" len="24" pan="0" key="30"/>
          <note pos="1728" vol="195" len="48" pan="0" key="32"/>
          <note pos="1776" vol="195" len="24" pan="0" key="30"/>
          <note pos="1800" vol="195" len="72" pan="0" key="25"/>
          <note pos="1872" vol="195" len="48" pan="0" key="20"/>
          <note pos="1920" vol="195" len="336" pan="0" key="16"/>
          <note pos="2256" vol="195" len="24" pan="0" key="18"/>
          <note pos="2280" vol="195" len="24" pan="0" key="20"/>
          <note pos="2304" vol="195" len="192" pan="0" key="21"/>
          <note pos="2496" vol="195" len="192" pan="0" key="23"/>
          <note pos="2688" vol="195" len="192" pan="0" key="25"/>
          <note pos="2880" vol="195" len="12" pan="0" key="27"/>
          <note pos="2888" vol="195" len="60" pan="0" key="28"/>
          <note pos="2952" vol="195" len="72" pan="0" key="27"/>
          <note pos="3024" vol="195" len="48" pan="0" key="25"/>
          <note pos="3072" vol="195" len="240" pan="0" key="23"/>
          <note pos="3312" vol="195" len="48" pan="0" key="18"/>
          <note pos="3360" vol="195" len="48" pan="0" key="23"/>
          <note pos="3408" vol="195" len="48" pan="0" key="25"/>
          <note pos="3456" vol="195" len="288" pan="0" key="18"/>
          <note pos="3744" vol="195" len="12" pan="0" key="19"/>
          <note pos="3752" vol="195" len="84" pan="0" key="20"/>
          <note pos="3840" vol="195" len="120" pan="0" key="23"/>
          <note pos="3960" vol="195" len="24" pan="0" key="18"/>
          <note pos="3984" vol="195" len="24" pan="0" key="21"/>
          <note pos="4008" vol="195" len="24" pan="0" key="27"/>
          <note pos="4032" vol="195" len="12" pan="0" key="27"/>
          <note pos="4040" vol="195" len="36" pan="0" key="28"/>
          <note pos="4080" vol="195" len="24" pan="0" key="27"/>
          <note pos="4104" vol="195" len="72" pan="0" key="25"/>
          <note pos="4176" vol="195" len="24" pan="0" key="25"/>
          <note pos="4200" vol="195" len="24" pan="0" key="23"/>
          <note pos="4224" vol="195" len="96" pan="0" key="25"/>
          <note pos="4320" vol="195" len="96" pan="0" key="23"/>
          <note pos="4416" vol="195" len="144" pan="0" key="22"/>
          <note pos="4560" vol="195" len="48" pan="0" key="20"/>
          <note pos="4608" vol="195" len="144" pan="0" key="18"/>
          <note pos="4752" vol="195" len="48" pan="0" key="25"/>
          <note pos="4800" vol="195" len="192" pan="0" key="18"/>
          <note pos="4992" vol="195" len="384" pan="0" key="20"/>
          <note pos="5376" vol="195" len="384" pan="0" key="21"/>
          <note pos="5760" vol="195" len="384" pan="0" key="23"/>
        </pattern>
        <pattern name="" steps="16" pos="384" muted="0" type="1">
          <note pos="0" vol="191" len="384" pan="0" key="13"/>
          <note pos="384" vol="193" len="384" pan="0" key="20"/>
          <note pos="768" vol="193" len="384" pan="0" key="15"/>
          <note pos="1152" vol="193" len="336" pan="0" key="14"/>
          <note pos="1488" vol="193" len="12" pan="0" key="14"/>
          <note pos="1500" vol="193" len="12" pan="0" key="14"/>
          <note pos="1512" vol="193" len="12" pan="0" key="14"/>
          <note pos="1524" vol="193" len="12" pan="0" key="14"/>
        </pattern>
        <pattern name="" steps="16" pos="1920" muted="0" type="1">
          <note pos="0" vol="195" len="36" pan="0" key="13"/>
          <note pos="0" vol="78" len="24" pan="0" key="1"/>
          <note pos="72" vol="195" len="36" pan="0" key="13"/>
          <note pos="144" vol="195" len="36" pan="0" key="13"/>
          <note pos="216" vol="195" len="36" pan="0" key="13"/>
          <note pos="288" vol="195" len="24" pan="0" key="13"/>
          <note pos="300" vol="78" len="24" pan="0" key="0"/>
          <note pos="312" vol="195" len="48" pan="0" key="13"/>
          <note pos="336" vol="78" len="24" pan="0" key="1"/>
          <note pos="360" vol="195" len="24" pan="0" key="13"/>
          <note pos="384" vol="195" len="36" pan="0" key="20"/>
          <note pos="456" vol="195" len="36" pan="0" key="20"/>
          <note pos="528" vol="195" len="36" pan="0" key="20"/>
          <note pos="600" vol="195" len="36" pan="0" key="20"/>
          <note pos="672" vol="195" len="24" pan="0" key="20"/>
          <note pos="684" vol="78" len="24" pan="0" key="0"/>
          <note pos="696" vol="195" len="48" pan="0" key="20"/>
          <note pos="720" vol="78" len="24" pan="0" key="1"/>
          <note pos="744" vol="195" len="24" pan="0" key="20"/>
          <note pos="768" vol="195" len="36" pan="0" key="15"/>
          <note pos="840" vol="195" len="36" pan="0" key="15"/>
          <note pos="912" vol="195" len="36" pan="0" key="15"/>
          <note pos="984" vol="195" len="36" pan="0" key="15"/>
          <note pos="1056" vol="195" len="24" pan="0" key="15"/>
          <note pos="1068" vol="78" len="24" pan="0" key="0"/>
          <note pos="1080" vol="195" len="48" pan="0" key="15"/>
          <note pos="1116" vol="78" len="24" pan="0" key="1"/>
          <note pos="1128" vol="195" len="24" pan="0" key="15"/>
          <note pos="1152" vol="195" len="36" pan="0" key="14"/>
          <note pos="1224" vol="195" len="36" pan="0" key="14"/>
          <note pos="1296" vol="195" len="36" pan="0" key="14"/>
        </pattern>
        <pattern name="" steps="16" pos="3456" muted="0" type="1">
          <note pos="0" vol="197" len="192" pan="0" key="13"/>
          <note pos="0" vol="78" len="48" pan="0" key="0"/>
          <note pos="192" vol="197" len="192" pan="0" key="20"/>
          <note pos="384" vol="197" len="192" pan="0" key="21"/>
          <note pos="576" vol="197" len="192" pan="0" key="23"/>
          <note pos="756" vol="197" len="12" pan="0" key="1"/>
          <note pos="768" vol="197" len="12" pan="0" key="18"/>
          <note pos="780" vol="197" len="12" pan="0" key="18"/>
          <note pos="792" vol="197" len="12" pan="0" key="18"/>
          <note pos="804" vol="197" len="12" pan="0" key="18"/>
          <note pos="816" vol="197" len="12" pan="0" key="18"/>
          <note pos="828" vol="197" len="12" pan="0" key="18"/>
          <note pos="840" vol="197" len="12" pan="0" key="18"/>
          <note pos="852" vol="197" len="12" pan="0" key="18"/>
          <note pos="864" vol="197" len="12" pan="0" key="18"/>
          <note pos="876" vol="197" len="12" pan="0" key="18"/>
          <note pos="888" vol="197" len="12" pan="0" key="18"/>
          <note pos="900" vol="197" len="12" pan="0" key="18"/>
          <note pos="912" vol="197" len="12" pan="0" key="18"/>
          <note pos="924" vol="197" len="12" pan="0" key="18"/>
          <note pos="936" vol="197" len="12" pan="0" key="18"/>
          <note pos="948" vol="197" len="12" pan="0" key="18"/>
          <note pos="960" vol="197" len="12" pan="0" key="20"/>
          <note pos="972" vol="197" len="12" pan="0" key="20"/>
          <note pos="984" vol="197" len="12" pan="0" key="20"/>
          <note pos="996" vol="197" len="12" pan="0" key="20"/>
          <note pos="1008" vol="197" len="12" pan="0" key="20"/>
          <note pos="1020" vol="197" len="12" pan="0" key="20"/>
          <note pos="1032" vol="197" len="12" pan="0" key="20"/>
          <note pos="1044" vol="197" len="12" pan="0" key="20"/>
          <note pos="1056" vol="197" len="12" pan="0" key="20"/>
          <note pos="1068" vol="197" len="12" pan="0" key="20"/>
          <note pos="1080" vol="197" len="12" pan="0" key="20"/>
          <note pos="1092" vol="197" len="12" pan="0" key="20"/>
          <note pos="1104" vol="197" len="12" pan="0" key="20"/>
          <note pos="1116" vol="197" len="12" pan="0" key="20"/>
          <note pos="1128" vol="197" len="12" pan="0" key="20"/>
          <note pos="1140" vol="197" len="12" pan="0" key="20"/>
          <note pos="1152" vol="197" len="12" pan="0" key="21"/>
          <note pos="1164" vol="197" len="12" pan="0" key="21"/>
          <note pos="1176" vol="197" len="12" pan="0" key="21"/>
          <note pos="1188" vol="197" len="12" pan="0" key="21"/>
          <note pos="1200" vol="197" len="12" pan="0" key="21"/>
          <note pos="1212" vol="197" len="12" pan="0" key="21"/>
          <note pos="1224" vol="197" len="12" pan="0" key="21"/>
          <note pos="1236" vol="197" len="12" pan="0" key="21"/>
          <note pos="1248" vol="197" len="12" pan="0" key="21"/>
          <note pos="1260" vol="197" len="12" pan="0" key="21"/>
          <note pos="1272" vol="197" len="12" pan="0" key="21"/>
          <note pos="1284" vol="197" len="12" pan="0" key="21"/>
          <note pos="1296" vol="197" len="12" pan="0" key="21"/>
          <note pos="1308" vol="197" len="12" pan="0" key="21"/>
          <note pos="1320" vol="197" len="12" pan="0" key="21"/>
          <note pos="1332" vol="197" len="12" pan="0" key="21"/>
          <note pos="1344" vol="197" len="48" pan="0" key="23"/>
          <note pos="1344" vol="197" len="12" pan="0" key="0"/>
          <note pos="1392" vol="197" len="48" pan="0" key="23"/>
          <note pos="1440" vol="197" len="48" pan="0" key="20"/>
          <note pos="1488" vol="197" len="48" pan="0" key="23"/>
        </pattern>
        <pattern name="" steps="16" pos="4992" muted="0" type="1">
          <note pos="0" vol="197" len="24" pan="0" key="25"/>
          <note pos="24" vol="197" len="24" pan="0" key="23"/>
          <note pos="48" vol="197" len="24" pan="0" key="25"/>
          <note pos="72" vol="197" len="24" pan="0" key="32"/>
          <note pos="96" vol="197" len="12" pan="0" key="25"/>
          <note pos="108" vol="197" len="12" pan="0" key="25"/>
          <note pos="120" vol="197" len="12" pan="0" key="25"/>
          <note pos="132" vol="197" len="12" pan="0" key="25"/>
          <note pos="144" vol="197" len="12" pan="0" key="25"/>
          <note pos="156" vol="197" len="12" pan="0" key="25"/>
          <note pos="168" vol="197" len="12" pan="0" key="25"/>
          <note pos="180" vol="197" len="12" pan="0" key="25"/>
        </pattern>
        <pattern name="" steps="16" pos="5184" muted="0" type="1">
          <note pos="0" vol="197" len="24" pan="0" key="18"/>
          <note pos="24" vol="197" len="24" pan="0" key="16"/>
          <note pos="48" vol="197" len="24" pan="0" key="18"/>
          <note pos="72" vol="197" len="24" pan="0" key="25"/>
          <note pos="96" vol="197" len="12" pan="0" key="18"/>
          <note pos="108" vol="197" len="12" pan="0" key="18"/>
          <note pos="120" vol="197" len="12" pan="0" key="18"/>
          <note pos="132" vol="197" len="12" pan="0" key="18"/>
          <note pos="144" vol="197" len="12" pan="0" key="18"/>
          <note pos="156" vol="197" len="12" pan="0" key="18"/>
          <note pos="168" vol="197" len="12" pan="0" key="18"/>
          <note pos="180" vol="197" len="12" pan="0" key="18"/>
        </pattern>
        <pattern name="" steps="16" pos="5376" muted="0" type="1">
          <note pos="0" vol="195" len="24" pan="0" key="20"/>
          <note pos="24" vol="195" len="24" pan="0" key="23"/>
          <note pos="48" vol="195" len="24" pan="0" key="20"/>
          <note pos="72" vol="195" len="48" pan="0" key="27"/>
          <note pos="120" vol="195" len="24" pan="0" key="20"/>
          <note pos="144" vol="195" len="24" pan="0" key="23"/>
          <note pos="168" vol="195" len="24" pan="0" key="27"/>
          <note pos="192" vol="195" len="12" pan="0" key="21"/>
          <note pos="204" vol="195" len="12" pan="0" key="21"/>
          <note pos="216" vol="195" len="12" pan="0" key="21"/>
          <note pos="228" vol="195" len="12" pan="0" key="21"/>
          <note pos="240" vol="195" len="12" pan="0" key="21"/>
          <note pos="252" vol="195" len="12" pan="0" key="21"/>
          <note pos="264" vol="195" len="12" pan="0" key="25"/>
          <note pos="276" vol="195" len="12" pan="0" key="25"/>
          <note pos="288" vol="195" len="12" pan="0" key="23"/>
          <note pos="300" vol="195" len="12" pan="0" key="23"/>
          <note pos="312" vol="195" len="12" pan="0" key="23"/>
          <note pos="324" vol="195" len="12" pan="0" key="23"/>
          <note pos="336" vol="195" len="12" pan="0" key="27"/>
          <note pos="348" vol="195" len="12" pan="0" key="27"/>
          <note pos="360" vol="195" len="12" pan="0" key="23"/>
          <note pos="372" vol="195" len="12" pan="0" key="23"/>
        </pattern>
        <pattern name="" steps="16" pos="5760" muted="0" type="1">
          <note pos="0" vol="197" len="24" pan="0" key="25"/>
          <note pos="24" vol="197" len="24" pan="0" key="23"/>
          <note pos="48" vol="197" len="24" pan="0" key="25"/>
          <note pos="72" vol="197" len="24" pan="0" key="32"/>
          <note pos="96" vol="197" len="12" pan="0" key="25"/>
          <note pos="108" vol="197" len="12" pan="0" key="25"/>
          <note pos="120" vol="197" len="12" pan="0" key="25"/>
          <note pos="132" vol="197" len="12" pan="0" key="25"/>
          <note pos="144" vol="197" len="12" pan="0" key="25"/>
          <note pos="156" vol="197" len="12" pan="0" key="25"/>
          <note pos="168" vol="197" len="12" pan="0" key="25"/>
          <note pos="180" vol="197" len="12" pan="0" key="25"/>
        </pattern>
        <pattern name="" steps="16" pos="5952" muted="0" type="1">
          <note pos="0" vol="197" len="24" pan="0" key="18"/>
          <note pos="24" vol="197" len="24" pan="0" key="16"/>
          <note pos="48" vol="197" len="24" pan="0" key="18"/>
          <note pos="72" vol="197" len="24" pan="0" key="25"/>
          <note pos="96" vol="197" len="12" pan="0" key="18"/>
          <note pos="108" vol="197" len="12" pan="0" key="18"/>
          <note pos="120" vol="197" len="12" pan="0" key="18"/>
          <note pos="132" vol="197" len="12" pan="0" key="18"/>
          <note pos="144" vol="197" len="12" pan="0" key="18"/>
          <note pos="156" vol="197" len="12" pan="0" key="18"/>
          <note pos="168" vol="197" len="12" pan="0" key="18"/>
          <note pos="180" vol="197" len="12" pan="0" key="18"/>
        </pattern>
        <pattern name="" steps="16" pos="6144" muted="0" type="1">
          <note pos="0" vol="195" len="24" pan="0" key="20"/>
          <note pos="24" vol="195" len="24" pan="0" key="23"/>
          <note pos="48" vol="195" len="24" pan="0" key="20"/>
          <note pos="72" vol="195" len="48" pan="0" key="27"/>
          <note pos="120" vol="195" len="24" pan="0" key="20"/>
          <note pos="144" vol="195" len="24" pan="0" key="23"/>
          <note pos="168" vol="195" len="24" pan="0" key="27"/>
          <note pos="192" vol="195" len="12" pan="0" key="21"/>
          <note pos="204" vol="195" len="12" pan="0" key="21"/>
          <note pos="216" vol="195" len="12" pan="0" key="21"/>
          <note pos="228" vol="195" len="12" pan="0" key="21"/>
          <note pos="240" vol="195" len="12" pan="0" key="21"/>
          <note pos="252" vol="195" len="12" pan="0" key="21"/>
          <note pos="264" vol="195" len="12" pan="0" key="25"/>
          <note pos="276" vol="195" len="12" pan="0" key="25"/>
          <note pos="288" vol="195" len="12" pan="0" key="23"/>
          <note pos="300" vol="195" len="12" pan="0" key="23"/>
          <note pos="312" vol="195" len="12" pan="0" key="23"/>
          <note pos="324" vol="195" len="12" pan="0" key="23"/>
          <note pos="336" vol="195" len="12" pan="0" key="27"/>
          <note pos="348" vol="195" len="12" pan="0" key="27"/>
          <note pos="360" vol="195" len="12" pan="0" key="23"/>
          <note pos="372" vol="195" len="12" pan="0" key="23"/>
        </pattern>
        <pattern name="" steps="16" pos="6528" muted="0" type="1">
          <note pos="0" vol="197" len="48" pan="0" key="11"/>
          <note pos="48" vol="197" len="12" pan="0" key="11"/>
          <note pos="60" vol="197" len="12" pan="0" key="11"/>
          <note pos="72" vol="197" len="24" pan="0" key="11"/>
          <note pos="96" vol="197" len="12" pan="0" key="11"/>
          <note pos="108" vol="197" len="12" pan="0" key="11"/>
          <note pos="120" vol="197" len="24" pan="0" key="11"/>
          <note pos="144" vol="197" len="12" pan="0" key="11"/>
          <note pos="156" vol="197" len="12" pan="0" key="11"/>
          <note pos="168" vol="197" len="24" pan="0" key="11"/>
          <note pos="192" vol="197" len="48" pan="0" key="11"/>
          <note pos="240" vol="197" len="12" pan="0" key="11"/>
          <note pos="252" vol="197" len="12" pan="0" key="11"/>
          <note pos="264" vol="197" len="24" pan="0" key="11"/>
          <note pos="288" vol="197" len="12" pan="0" key="11"/>
          <note pos="300" vol="197" len="12" pan="0" key="11"/>
          <note pos="312" vol="197" len="24" pan="0" key="11"/>
          <note pos="336" vol="197" len="12" pan="0" key="11"/>
          <note pos="348" vol="197" len="12" pan="0" key="11"/>
          <note pos="360" vol="197" len="24" pan="0" key="11"/>
          <note pos="384" vol="197" len="48" pan="0" key="21"/>
          <note pos="432" vol="197" len="12" pan="0" key="21"/>
          <note pos="444" vol="197" len="12" pan="0" key="21"/>
          <note pos="456" vol="197" len="24" pan="0" key="21"/>
          <note pos="480" vol="197" len="12" pan="0" key="21"/>
          <note pos="492" vol="197" len="12" pan="0" key="21"/>
          <note pos="504" vol="197" len="24" pan="0" key="21"/>
          <note pos="528" vol="197" len="12" pan="0" key="21"/>
          <note pos="540" vol="197" len="12" pan="0" key="21"/>
          <note pos="552" vol="197" len="24" pan="0" key="21"/>
          <note pos="576" vol="197" len="48" pan="0" key="20"/>
          <note pos="624" vol="197" len="12" pan="0" key="20"/>
          <note pos="636" vol="197" len="12" pan="0" key="20"/>
          <note pos="648" vol="197" len="24" pan="0" key="20"/>
          <note pos="672" vol="197" len="12" pan="0" key="20"/>
          <note pos="684" vol="197" len="12" pan="0" key="20"/>
          <note pos="696" vol="197" len="12" pan="0" key="20"/>
          <note pos="708" vol="197" len="12" pan="0" key="20"/>
          <note pos="720" vol="197" len="12" pan="0" key="20"/>
          <note pos="732" vol="197" len="12" pan="0" key="20"/>
          <note pos="744" vol="197" len="24" pan="0" key="20"/>
        </pattern>
        <pattern name="" steps="16" pos="8064" muted="0" type="1">
          <note pos="0" vol="195" len="48" pan="0" key="13"/>
          <note pos="48" vol="195" len="12" pan="0" key="13"/>
          <note pos="60" vol="195" len="12" pan="0" key="13"/>
          <note pos="72" vol="195" len="12" pan="0" key="13"/>
          <note pos="84" vol="195" len="12" pan="0" key="13"/>
          <note pos="96" vol="195" len="12" pan="0" key="13"/>
          <note pos="108" vol="195" len="12" pan="0" key="13"/>
          <note pos="120" vol="195" len="12" pan="0" key="13"/>
          <note pos="132" vol="195" len="12" pan="0" key="13"/>
          <note pos="144" vol="195" len="12" pan="0" key="13"/>
          <note pos="156" vol="195" len="12" pan="0" key="13"/>
          <note pos="168" vol="195" len="12" pan="0" key="13"/>
          <note pos="180" vol="195" len="12" pan="0" key="13"/>
          <note pos="192" vol="195" len="48" pan="0" key="20"/>
          <note pos="240" vol="195" len="12" pan="0" key="20"/>
          <note pos="252" vol="195" len="12" pan="0" key="20"/>
          <note pos="264" vol="195" len="12" pan="0" key="20"/>
          <note pos="276" vol="195" len="12" pan="0" key="20"/>
          <note pos="288" vol="195" len="12" pan="0" key="20"/>
          <note pos="300" vol="195" len="12" pan="0" key="20"/>
          <note pos="312" vol="195" len="12" pan="0" key="20"/>
          <note pos="324" vol="195" len="12" pan="0" key="20"/>
          <note pos="336" vol="195" len="12" pan="0" key="20"/>
          <note pos="348" vol="195" len="12" pan="0" key="20"/>
          <note pos="360" vol="195" len="12" pan="0" key="20"/>
          <note pos="372" vol="195" len="12" pan="0" key="20"/>
          <note pos="384" vol="195" len="48" pan="0" key="21"/>
          <note pos="432" vol="195" len="12" pan="0" key="21"/>
          <note pos="444" vol="195" len="12" pan="0" key="21"/>
          <note pos="456" vol="195" len="12" pan="0" key="21"/>
          <note pos="468" vol="195" len="12" pan="0" key="21"/>
          <note pos="480" vol="195" len="12" pan="0" key="21"/>
          <note pos="492" vol="195" len="12" pan="0" key="21"/>
          <note pos="504" vol="195" len="12" pan="0" key="21"/>
          <note pos="516" vol="195" len="12" pan="0" key="21"/>
          <note pos="528" vol="195" len="12" pan="0" key="21"/>
          <note pos="540" vol="195" len="12" pan="0" key="21"/>
          <note pos="552" vol="195" len="12" pan="0" key="21"/>
          <note pos="564" vol="195" len="12" pan="0" key="21"/>
          <note pos="576" vol="195" len="48" pan="0" key="23"/>
          <note pos="624" vol="195" len="12" pan="0" key="23"/>
          <note pos="636" vol="195" len="12" pan="0" key="23"/>
          <note pos="648" vol="195" len="12" pan="0" key="23"/>
          <note pos="660" vol="195" len="12" pan="0" key="23"/>
          <note pos="672" vol="195" len="12" pan="0" key="23"/>
          <note pos="684" vol="195" len="12" pan="0" key="23"/>
          <note pos="696" vol="195" len="12" pan="0" key="23"/>
          <note pos="708" vol="195" len="12" pan="0" key="23"/>
          <note pos="720" vol="195" len="12" pan="0" key="23"/>
          <note pos="732" vol="195" len="12" pan="0" key="23"/>
          <note pos="744" vol="195" len="12" pan="0" key="23"/>
          <note pos="756" vol="195" len="12" pan="0" key="23"/>
          <note pos="768" vol="195" len="48" pan="0" key="18"/>
          <note pos="816" vol="195" len="12" pan="0" key="18"/>
          <note pos="828" vol="195" len="12" pan="0" key="18"/>
          <note pos="840" vol="195" len="12" pan="0" key="18"/>
          <note pos="852" vol="195" len="12" pan="0" key="18"/>
          <note pos="864" vol="195" len="12" pan="0" key="18"/>
          <note pos="876" vol="195" len="12" pan="0" key="18"/>
          <note pos="888" vol="195" len="12" pan="0" key="18"/>
          <note pos="900" vol="195" len="12" pan="0" key="18"/>
          <note pos="912" vol="195" len="12" pan="0" key="18"/>
          <note pos="924" vol="195" len="12" pan="0" key="18"/>
          <note pos="936" vol="195" len="12" pan="0" key="18"/>
          <note pos="948" vol="195" len="12" pan="0" key="18"/>
          <note pos="960" vol="195" len="48" pan="0" key="20"/>
          <note pos="1008" vol="195" len="12" pan="0" key="20"/>
          <note pos="1020" vol="195" len="12" pan="0" key="20"/>
          <note pos="1032" vol="195" len="12" pan="0" key="20"/>
          <note pos="1044" vol="195" len="12" pan="0" key="20"/>
          <note pos="1056" vol="195" len="12" pan="0" key="20"/>
          <note pos="1068" vol="195" len="12" pan="0" key="20"/>
          <note pos="1080" vol="195" len="12" pan="0" key="20"/>
          <note pos="1092" vol="195" len="12" pan="0" key="20"/>
          <note pos="1104" vol="195" len="12" pan="0" key="20"/>
          <note pos="1116" vol="195" len="12" pan="0" key="20"/>
          <note pos="1128" vol="195" len="12" pan="0" key="20"/>
          <note pos="1140" vol="195" len="12" pan="0" key="20"/>
          <note pos="1152" vol="195" len="48" pan="0" key="21"/>
          <note pos="1200" vol="195" len="12" pan="0" key="21"/>
          <note pos="1212" vol="195" len="12" pan="0" key="21"/>
          <note pos="1224" vol="195" len="12" pan="0" key="21"/>
          <note pos="1236" vol="195" len="12" pan="0" key="21"/>
          <note pos="1248" vol="195" len="12" pan="0" key="21"/>
          <note pos="1260" vol="195" len="12" pan="0" key="21"/>
          <note pos="1272" vol="195" len="12" pan="0" key="21"/>
          <note pos="1284" vol="195" len="12" pan="0" key="21"/>
          <note pos="1296" vol="195" len="12" pan="0" key="21"/>
          <note pos="1308" vol="195" len="12" pan="0" key="21"/>
          <note pos="1320" vol="195" len="12" pan="0" key="21"/>
          <note pos="1332" vol="195" len="12" pan="0" key="21"/>
          <note pos="1344" vol="195" len="48" pan="0" key="23"/>
          <note pos="1392" vol="195" len="12" pan="0" key="23"/>
          <note pos="1404" vol="195" len="12" pan="0" key="23"/>
          <note pos="1416" vol="195" len="12" pan="0" key="23"/>
          <note pos="1428" vol="195" len="12" pan="0" key="23"/>
          <note pos="1440" vol="195" len="48" pan="0" key="24"/>
          <note pos="1488" vol="195" len="12" pan="0" key="24"/>
          <note pos="1500" vol="195" len="12" pan="0" key="24"/>
          <note pos="1512" vol="195" len="12" pan="0" key="24"/>
          <note pos="1524" vol="195" len="12" pan="0" key="24"/>
          <note pos="1536" vol="195" len="48" pan="0" key="13"/>
          <note pos="1584" vol="195" len="12" pan="0" key="13"/>
          <note pos="1596" vol="195" len="12" pan="0" key="13"/>
          <note pos="1608" vol="195" len="12" pan="0" key="13"/>
          <note pos="1620" vol="195" len="12" pan="0" key="13"/>
          <note pos="1632" vol="195" len="12" pan="0" key="13"/>
          <note pos="1644" vol="195" len="12" pan="0" key="13"/>
          <note pos="1656" vol="195" len="12" pan="0" key="13"/>
          <note pos="1668" vol="195" len="12" pan="0" key="13"/>
          <note pos="1680" vol="195" len="12" pan="0" key="13"/>
          <note pos="1692" vol="195" len="12" pan="0" key="13"/>
          <note pos="1704" vol="195" len="12" pan="0" key="13"/>
          <note pos="1716" vol="195" len="12" pan="0" key="13"/>
          <note pos="1728" vol="195" len="48" pan="0" key="23"/>
          <note pos="1776" vol="195" len="12" pan="0" key="23"/>
          <note pos="1788" vol="195" len="12" pan="0" key="23"/>
          <note pos="1800" vol="195" len="12" pan="0" key="23"/>
          <note pos="1812" vol="195" len="12" pan="0" key="23"/>
          <note pos="1824" vol="195" len="12" pan="0" key="23"/>
          <note pos="1836" vol="195" len="12" pan="0" key="23"/>
          <note pos="1848" vol="195" len="12" pan="0" key="23"/>
          <note pos="1860" vol="195" len="12" pan="0" key="23"/>
          <note pos="1872" vol="195" len="12" pan="0" key="23"/>
          <note pos="1884" vol="195" len="12" pan="0" key="23"/>
          <note pos="1896" vol="195" len="12" pan="0" key="23"/>
          <note pos="1908" vol="195" len="12" pan="0" key="23"/>
          <note pos="1920" vol="195" len="48" pan="0" key="22"/>
          <note pos="1968" vol="195" len="12" pan="0" key="22"/>
          <note pos="1980" vol="195" len="12" pan="0" key="22"/>
          <note pos="1992" vol="195" len="12" pan="0" key="22"/>
          <note pos="2004" vol="195" len="12" pan="0" key="22"/>
          <note pos="2016" vol="195" len="12" pan="0" key="22"/>
          <note pos="2028" vol="195" len="12" pan="0" key="22"/>
          <note pos="2040" vol="195" len="12" pan="0" key="22"/>
          <note pos="2052" vol="195" len="12" pan="0" key="22"/>
          <note pos="2064" vol="195" len="12" pan="0" key="22"/>
          <note pos="2076" vol="195" len="12" pan="0" key="22"/>
          <note pos="2088" vol="195" len="12" pan="0" key="22"/>
          <note pos="2100" vol="195" len="12" pan="0" key="22"/>
          <note pos="2112" vol="195" len="48" pan="0" key="18"/>
          <note pos="2160" vol="195" len="12" pan="0" key="18"/>
          <note pos="2172" vol="195" len="12" pan="0" key="18"/>
          <note pos="2184" vol="195" len="12" pan="0" key="18"/>
          <note pos="2196" vol="195" len="12" pan="0" key="18"/>
          <note pos="2208" vol="195" len="48" pan="0" key="16"/>
          <note pos="2256" vol="195" len="12" pan="0" key="16"/>
          <note pos="2268" vol="195" len="12" pan="0" key="16"/>
          <note pos="2280" vol="195" len="12" pan="0" key="16"/>
          <note pos="2292" vol="195" len="12" pan="0" key="16"/>
          <note pos="2304" vol="195" len="48" pan="0" key="14"/>
          <note pos="2352" vol="195" len="12" pan="0" key="14"/>
          <note pos="2364" vol="195" len="12" pan="0" key="14"/>
          <note pos="2376" vol="195" len="12" pan="0" key="14"/>
          <note pos="2388" vol="195" len="12" pan="0" key="14"/>
          <note pos="2400" vol="195" len="48" pan="0" key="14"/>
          <note pos="2448" vol="195" len="12" pan="0" key="14"/>
          <note pos="2460" vol="195" len="12" pan="0" key="14"/>
          <note pos="2472" vol="195" len="12" pan="0" key="14"/>
          <note pos="2484" vol="195" len="12" pan="0" key="14"/>
          <note pos="2496" vol="195" len="48" pan="0" key="21"/>
          <note pos="2544" vol="195" len="12" pan="0" key="21"/>
          <note pos="2556" vol="195" len="12" pan="0" key="21"/>
          <note pos="2568" vol="195" len="12" pan="0" key="21"/>
          <note pos="2580" vol="195" len="12" pan="0" key="21"/>
          <note pos="2592" vol="195" len="12" pan="0" key="21"/>
          <note pos="2604" vol="195" len="12" pan="0" key="21"/>
          <note pos="2616" vol="195" len="12" pan="0" key="21"/>
          <note pos="2628" vol="195" len="12" pan="0" key="21"/>
          <note pos="2640" vol="195" len="12" pan="0" key="21"/>
          <note pos="2652" vol="195" len="12" pan="0" key="21"/>
          <note pos="2664" vol="195" len="12" pan="0" key="21"/>
          <note pos="2676" vol="195" len="12" pan="0" key="21"/>
          <note pos="2688" vol="195" len="48" pan="0" key="23"/>
          <note pos="2736" vol="195" len="12" pan="0" key="23"/>
          <note pos="2748" vol="195" len="12" pan="0" key="23"/>
          <note pos="2760" vol="195" len="12" pan="0" key="23"/>
          <note pos="2772" vol="195" len="12" pan="0" key="23"/>
          <note pos="2784" vol="195" len="12" pan="0" key="23"/>
          <note pos="2796" vol="195" len="12" pan="0" key="23"/>
          <note pos="2808" vol="195" len="12" pan="0" key="23"/>
          <note pos="2820" vol="195" len="12" pan="0" key="23"/>
          <note pos="2832" vol="195" len="12" pan="0" key="23"/>
          <note pos="2844" vol="195" len="12" pan="0" key="23"/>
          <note pos="2856" vol="195" len="12" pan="0" key="23"/>
          <note pos="2868" vol="195" len="12" pan="0" key="23"/>
          <note pos="2880" vol="195" len="96" pan="0" key="23"/>
          <note pos="2976" vol="195" len="96" pan="0" key="27"/>
        </pattern>
        <pattern name="" steps="16" pos="11136" muted="0" type="1">
          <note pos="0" vol="197" len="24" pan="0" key="13"/>
          <note pos="24" vol="197" len="12" pan="0" key="13"/>
          <note pos="36" vol="197" len="12" pan="0" key="13"/>
          <note pos="48" vol="197" len="12" pan="0" key="13"/>
          <note pos="60" vol="197" len="12" pan="0" key="13"/>
          <note pos="72" vol="197" len="24" pan="0" key="13"/>
          <note pos="96" vol="197" len="12" pan="0" key="13"/>
          <note pos="108" vol="197" len="12" pan="0" key="13"/>
          <note pos="120" vol="197" len="12" pan="0" key="13"/>
          <note pos="132" vol="197" len="12" pan="0" key="13"/>
          <note pos="144" vol="197" len="24" pan="0" key="13"/>
          <note pos="168" vol="197" len="12" pan="0" key="13"/>
          <note pos="180" vol="197" len="12" pan="0" key="13"/>
          <note pos="192" vol="197" len="12" pan="0" key="13"/>
          <note pos="204" vol="197" len="12" pan="0" key="13"/>
          <note pos="216" vol="197" len="24" pan="0" key="13"/>
          <note pos="240" vol="197" len="12" pan="0" key="13"/>
          <note pos="252" vol="197" len="12" pan="0" key="13"/>
          <note pos="264" vol="197" len="12" pan="0" key="13"/>
          <note pos="276" vol="197" len="12" pan="0" key="13"/>
          <note pos="288" vol="197" len="24" pan="0" key="13"/>
          <note pos="312" vol="197" len="12" pan="0" key="13"/>
          <note pos="324" vol="197" len="12" pan="0" key="13"/>
          <note pos="336" vol="197" len="24" pan="0" key="13"/>
          <note pos="360" vol="197" len="12" pan="0" key="13"/>
          <note pos="372" vol="197" len="12" pan="0" key="13"/>
        </pattern>
        <pattern name="" steps="16" pos="11904" muted="0" type="1">
          <note pos="0" vol="197" len="24" pan="0" key="13"/>
          <note pos="24" vol="197" len="12" pan="0" key="13"/>
          <note pos="36" vol="197" len="12" pan="0" key="13"/>
          <note pos="48" vol="197" len="12" pan="0" key="13"/>
          <note pos="60" vol="197" len="12" pan="0" key="13"/>
          <note pos="72" vol="197" len="24" pan="0" key="13"/>
          <note pos="96" vol="197" len="12" pan="0" key="13"/>
          <note pos="108" vol="197" len="12" pan="0" key="13"/>
          <note pos="120" vol="197" len="12" pan="0" key="13"/>
          <note pos="132" vol="197" len="12" pan="0" key="13"/>
          <note pos="144" vol="197" len="24" pan="0" key="13"/>
          <note pos="168" vol="197" len="12" pan="0" key="13"/>
          <note pos="180" vol="197" len="12" pan="0" key="13"/>
          <note pos="192" vol="197" len="12" pan="0" key="13"/>
          <note pos="204" vol="197" len="12" pan="0" key="13"/>
          <note pos="216" vol="197" len="24" pan="0" key="13"/>
          <note pos="240" vol="197" len="12" pan="0" key="13"/>
          <note pos="252" vol="197" len="12" pan="0" key="13"/>
          <note pos="264" vol="197" len="12" pan="0" key="13"/>
          <note pos="276" vol="197" len="12" pan="0" key="13"/>
          <note pos="288" vol="197" len="24" pan="0" key="13"/>
          <note pos="312" vol="197" len="12" pan="0" key="13"/>
          <note pos="324" vol="197" len="12" pan="0" key="13"/>
          <note pos="336" vol="197" len="24" pan="0" key="13"/>
          <note pos="360" vol="197" len="12" pan="0" key="13"/>
          <note pos="372" vol="197" len="12" pan="0" key="13"/>
        </pattern>
        <pattern name="" steps="16" pos="11520" muted="0" type="1">
          <note pos="0" vol="197" len="24" pan="0" key="14"/>
          <note pos="24" vol="197" len="12" pan="0" key="14"/>
          <note pos="36" vol="197" len="12" pan="0" key="14"/>
          <note pos="48" vol="197" len="12" pan="0" key="14"/>
          <note pos="60" vol="197" len="12" pan="0" key="14"/>
          <note pos="72" vol="197" len="24" pan="0" key="14"/>
          <note pos="96" vol="197" len="12" pan="0" key="14"/>
          <note pos="108" vol="197" len="12" pan="0" key="14"/>
          <note pos="120" vol="197" len="12" pan="0" key="14"/>
          <note pos="132" vol="197" len="12" pan="0" key="14"/>
          <note pos="144" vol="197" len="24" pan="0" key="14"/>
          <note pos="168" vol="197" len="12" pan="0" key="14"/>
          <note pos="180" vol="197" len="12" pan="0" key="14"/>
          <note pos="192" vol="197" len="12" pan="0" key="14"/>
          <note pos="204" vol="197" len="12" pan="0" key="14"/>
          <note pos="216" vol="197" len="24" pan="0" key="14"/>
          <note pos="240" vol="197" len="12" pan="0" key="14"/>
          <note pos="252" vol="197" len="12" pan="0" key="14"/>
          <note pos="264" vol="197" len="12" pan="0" key="14"/>
          <note pos="276" vol="197" len="12" pan="0" key="14"/>
          <note pos="288" vol="197" len="24" pan="0" key="14"/>
          <note pos="312" vol="197" len="12" pan="0" key="14"/>
          <note pos="324" vol="197" len="12" pan="0" key="14"/>
          <note pos="336" vol="197" len="24" pan="0" key="14"/>
          <note pos="360" vol="197" len="12" pan="0" key="14"/>
          <note pos="372" vol="197" len="12" pan="0" key="14"/>
        </pattern>
        <pattern name="" steps="16" pos="12288" muted="0" type="1">
          <note pos="0" vol="197" len="24" pan="0" key="14"/>
          <note pos="24" vol="197" len="12" pan="0" key="14"/>
          <note pos="36" vol="197" len="12" pan="0" key="14"/>
          <note pos="48" vol="197" len="12" pan="0" key="14"/>
          <note pos="60" vol="197" len="12" pan="0" key="14"/>
          <note pos="72" vol="197" len="24" pan="0" key="14"/>
          <note pos="96" vol="197" len="12" pan="0" key="14"/>
          <note pos="108" vol="197" len="12" pan="0" key="14"/>
          <note pos="120" vol="197" len="12" pan="0" key="14"/>
          <note pos="132" vol="197" len="12" pan="0" key="14"/>
          <note pos="144" vol="197" len="24" pan="0" key="14"/>
          <note pos="168" vol="197" len="12" pan="0" key="14"/>
          <note pos="180" vol="197" len="12" pan="0" key="14"/>
          <note pos="192" vol="197" len="12" pan="0" key="14"/>
          <note pos="204" vol="197" len="12" pan="0" key="14"/>
          <note pos="216" vol="197" len="24" pan="0" key="14"/>
          <note pos="240" vol="197" len="12" pan="0" key="14"/>
          <note pos="252" vol="197" len="12" pan="0" key="14"/>
          <note pos="264" vol="197" len="12" pan="0" key="14"/>
          <note pos="276" vol="197" len="12" pan="0" key="14"/>
          <note pos="288" vol="197" len="24" pan="0" key="14"/>
          <note pos="312" vol="197" len="12" pan="0" key="14"/>
          <note pos="324" vol="197" len="12" pan="0" key="14"/>
          <note pos="336" vol="197" len="24" pan="0" key="14"/>
          <note pos="360" vol="197" len="12" pan="0" key="14"/>
          <note pos="372" vol="197" len="12" pan="0" key="14"/>
        </pattern>
        <pattern name="" steps="16" pos="15744" muted="0" type="1">
          <note pos="0" vol="195" len="48" pan="0" key="13"/>
          <note pos="48" vol="195" len="12" pan="0" key="13"/>
          <note pos="60" vol="195" len="12" pan="0" key="13"/>
          <note pos="72" vol="195" len="12" pan="0" key="13"/>
          <note pos="84" vol="195" len="12" pan="0" key="13"/>
          <note pos="96" vol="195" len="12" pan="0" key="13"/>
          <note pos="108" vol="195" len="12" pan="0" key="13"/>
          <note pos="120" vol="195" len="12" pan="0" key="13"/>
          <note pos="132" vol="195" len="12" pan="0" key="13"/>
          <note pos="144" vol="195" len="12" pan="0" key="13"/>
          <note pos="156" vol="195" len="12" pan="0" key="13"/>
          <note pos="168" vol="195" len="12" pan="0" key="13"/>
          <note pos="180" vol="195" len="12" pan="0" key="13"/>
          <note pos="192" vol="195" len="48" pan="0" key="20"/>
          <note pos="240" vol="195" len="12" pan="0" key="20"/>
          <note pos="252" vol="195" len="12" pan="0" key="20"/>
          <note pos="264" vol="195" len="12" pan="0" key="20"/>
          <note pos="276" vol="195" len="12" pan="0" key="20"/>
          <note pos="288" vol="195" len="12" pan="0" key="20"/>
          <note pos="300" vol="195" len="12" pan="0" key="20"/>
          <note pos="312" vol="195" len="12" pan="0" key="20"/>
          <note pos="324" vol="195" len="12" pan="0" key="20"/>
          <note pos="336" vol="195" len="12" pan="0" key="20"/>
          <note pos="348" vol="195" len="12" pan="0" key="20"/>
          <note pos="360" vol="195" len="12" pan="0" key="20"/>
          <note pos="372" vol="195" len="12" pan="0" key="20"/>
          <note pos="384" vol="195" len="48" pan="0" key="21"/>
          <note pos="432" vol="195" len="12" pan="0" key="21"/>
          <note pos="444" vol="195" len="12" pan="0" key="21"/>
          <note pos="456" vol="195" len="12" pan="0" key="21"/>
          <note pos="468" vol="195" len="12" pan="0" key="21"/>
          <note pos="480" vol="195" len="12" pan="0" key="21"/>
          <note pos="492" vol="195" len="12" pan="0" key="21"/>
          <note pos="504" vol="195" len="12" pan="0" key="21"/>
          <note pos="516" vol="195" len="12" pan="0" key="21"/>
          <note pos="528" vol="195" len="12" pan="0" key="21"/>
          <note pos="540" vol="195" len="12" pan="0" key="21"/>
          <note pos="552" vol="195" len="12" pan="0" key="21"/>
          <note pos="564" vol="195" len="12" pan="0" key="21"/>
          <note pos="576" vol="195" len="48" pan="0" key="23"/>
          <note pos="624" vol="195" len="12" pan="0" key="23"/>
          <note pos="636" vol="195" len="12" pan="0" key="23"/>
          <note pos="648" vol="195" len="12" pan="0" key="23"/>
          <note pos="660" vol="195" len="12" pan="0" key="23"/>
          <note pos="672" vol="195" len="12" pan="0" key="23"/>
          <note pos="684" vol="195" len="12" pan="0" key="23"/>
          <note pos="696" vol="195" len="12" pan="0" key="23"/>
          <note pos="708" vol="195" len="12" pan="0" key="23"/>
          <note pos="720" vol="195" len="12" pan="0" key="23"/>
          <note pos="732" vol="195" len="12" pan="0" key="23"/>
          <note pos="744" vol="195" len="12" pan="0" key="23"/>
          <note pos="756" vol="195" len="12" pan="0" key="23"/>
          <note pos="768" vol="195" len="48" pan="0" key="18"/>
          <note pos="816" vol="195" len="12" pan="0" key="18"/>
          <note pos="828" vol="195" len="12" pan="0" key="18"/>
          <note pos="840" vol="195" len="12" pan="0" key="18"/>
          <note pos="852" vol="195" len="12" pan="0" key="18"/>
          <note pos="864" vol="195" len="12" pan="0" key="18"/>
          <note pos="876" vol="195" len="12" pan="0" key="18"/>
          <note pos="888" vol="195" len="12" pan="0" key="18"/>
          <note pos="900" vol="195" len="12" pan="0" key="18"/>
          <note pos="912" vol="195" len="12" pan="0" key="18"/>
          <note pos="924" vol="195" len="12" pan="0" key="18"/>
          <note pos="936" vol="195" len="12" pan="0" key="18"/>
          <note pos="948" vol="195" len="12" pan="0" key="18"/>
          <note pos="960" vol="195" len="48" pan="0" key="20"/>
          <note pos="1008" vol="195" len="12" pan="0" key="20"/>
          <note pos="1020" vol="195" len="12" pan="0" key="20"/>
          <note pos="1032" vol="195" len="12" pan="0" key="20"/>
          <note pos="1044" vol="195" len="12" pan="0" key="20"/>
          <note pos="1056" vol="195" len="12" pan="0" key="20"/>
          <note pos="1068" vol="195" len="12" pan="0" key="20"/>
          <note pos="1080" vol="195" len="12" pan="0" key="20"/>
          <note pos="1092" vol="195" len="12" pan="0" key="20"/>
          <note pos="1104" vol="195" len="12" pan="0" key="20"/>
          <note pos="1116" vol="195" len="12" pan="0" key="20"/>
          <note pos="1128" vol="195" len="12" pan="0" key="20"/>
          <note pos="1140" vol="195" len="12" pan="0" key="20"/>
          <note pos="1152" vol="195" len="48" pan="0" key="21"/>
          <note pos="1200" vol="195" len="12" pan="0" key="21"/>
          <note pos="1212" vol="195" len="12" pan="0" key="21"/>
          <note pos="1224" vol="195" len="12" pan="0" key="21"/>
          <note pos="1236" vol="195" len="12" pan="0" key="21"/>
          <note pos="1248" vol="195" len="12" pan="0" key="21"/>
          <note pos="1260" vol="195" len="12" pan="0" key="21"/>
          <note pos="1272" vol="195" len="12" pan="0" key="21"/>
          <note pos="1284" vol="195" len="12" pan="0" key="21"/>
          <note pos="1296" vol="195" len="12" pan="0" key="21"/>
          <note pos="1308" vol="195" len="12" pan="0" key="21"/>
          <note pos="1320" vol="195" len="12" pan="0" key="21"/>
          <note pos="1332" vol="195" len="12" pan="0" key="21"/>
          <note pos="1344" vol="195" len="48" pan="0" key="23"/>
          <note pos="1392" vol="195" len="12" pan="0" key="23"/>
          <note pos="1404" vol="195" len="12" pan="0" key="23"/>
          <note pos="1416" vol="195" len="12" pan="0" key="23"/>
          <note pos="1428" vol="195" len="12" pan="0" key="23"/>
          <note pos="1440" vol="195" len="48" pan="0" key="24"/>
          <note pos="1488" vol="195" len="12" pan="0" key="24"/>
          <note pos="1500" vol="195" len="12" pan="0" key="24"/>
          <note pos="1512" vol="195" len="12" pan="0" key="24"/>
          <note pos="1524" vol="195" len="12" pan="0" key="24"/>
          <note pos="1536" vol="195" len="48" pan="0" key="13"/>
          <note pos="1584" vol="195" len="12" pan="0" key="13"/>
          <note pos="1596" vol="195" len="12" pan="0" key="13"/>
          <note pos="1608" vol="195" len="12" pan="0" key="13"/>
          <note pos="1620" vol="195" len="12" pan="0" key="13"/>
          <note pos="1632" vol="195" len="12" pan="0" key="13"/>
          <note pos="1644" vol="195" len="12" pan="0" key="13"/>
          <note pos="1656" vol="195" len="12" pan="0" key="13"/>
          <note pos="1668" vol="195" len="12" pan="0" key="13"/>
          <note pos="1680" vol="195" len="12" pan="0" key="13"/>
          <note pos="1692" vol="195" len="12" pan="0" key="13"/>
          <note pos="1704" vol="195" len="12" pan="0" key="13"/>
          <note pos="1716" vol="195" len="12" pan="0" key="13"/>
          <note pos="1728" vol="195" len="48" pan="0" key="23"/>
          <note pos="1776" vol="195" len="12" pan="0" key="23"/>
          <note pos="1788" vol="195" len="12" pan="0" key="23"/>
          <note pos="1800" vol="195" len="12" pan="0" key="23"/>
          <note pos="1812" vol="195" len="12" pan="0" key="23"/>
          <note pos="1824" vol="195" len="12" pan="0" key="23"/>
          <note pos="1836" vol="195" len="12" pan="0" key="23"/>
          <note pos="1848" vol="195" len="12" pan="0" key="23"/>
          <note pos="1860" vol="195" len="12" pan="0" key="23"/>
          <note pos="1872" vol="195" len="12" pan="0" key="23"/>
          <note pos="1884" vol="195" len="12" pan="0" key="23"/>
          <note pos="1896" vol="195" len="12" pan="0" key="23"/>
          <note pos="1908" vol="195" len="12" pan="0" key="23"/>
          <note pos="1920" vol="195" len="48" pan="0" key="22"/>
          <note pos="1968" vol="195" len="12" pan="0" key="22"/>
          <note pos="1980" vol="195" len="12" pan="0" key="22"/>
          <note pos="1992" vol="195" len="12" pan="0" key="22"/>
          <note pos="2004" vol="195" len="12" pan="0" key="22"/>
          <note pos="2016" vol="195" len="12" pan="0" key="22"/>
          <note pos="2028" vol="195" len="12" pan="0" key="22"/>
          <note pos="2040" vol="195" len="12" pan="0" key="22"/>
          <note pos="2052" vol="195" len="12" pan="0" key="22"/>
          <note pos="2064" vol="195" len="12" pan="0" key="22"/>
          <note pos="2076" vol="195" len="12" pan="0" key="22"/>
          <note pos="2088" vol="195" len="12" pan="0" key="22"/>
          <note pos="2100" vol="195" len="12" pan="0" key="22"/>
          <note pos="2112" vol="195" len="48" pan="0" key="18"/>
          <note pos="2160" vol="195" len="12" pan="0" key="18"/>
          <note pos="2172" vol="195" len="12" pan="0" key="18"/>
          <note pos="2184" vol="195" len="12" pan="0" key="18"/>
          <note pos="2196" vol="195" len="12" pan="0" key="18"/>
          <note pos="2208" vol="195" len="48" pan="0" key="16"/>
          <note pos="2256" vol="195" len="12" pan="0" key="16"/>
          <note pos="2268" vol="195" len="12" pan="0" key="16"/>
          <note pos="2280" vol="195" len="12" pan="0" key="16"/>
          <note pos="2292" vol="195" len="12" pan="0" key="16"/>
          <note pos="2304" vol="195" len="48" pan="0" key="14"/>
          <note pos="2352" vol="195" len="12" pan="0" key="14"/>
          <note pos="2364" vol="195" len="12" pan="0" key="14"/>
          <note pos="2376" vol="195" len="12" pan="0" key="14"/>
          <note pos="2388" vol="195" len="12" pan="0" key="14"/>
          <note pos="2400" vol="195" len="48" pan="0" key="14"/>
          <note pos="2448" vol="195" len="12" pan="0" key="14"/>
          <note pos="2460" vol="195" len="12" pan="0" key="14"/>
          <note pos="2472" vol="195" len="12" pan="0" key="14"/>
          <note pos="2484" vol="195" len="12" pan="0" key="14"/>
          <note pos="2496" vol="195" len="48" pan="0" key="21"/>
          <note pos="2544" vol="195" len="12" pan="0" key="21"/>
          <note pos="2556" vol="195" len="12" pan="0" key="21"/>
          <note pos="2568" vol="195" len="12" pan="0" key="21"/>
          <note pos="2580" vol="195" len="12" pan="0" key="21"/>
          <note pos="2592" vol="195" len="12" pan="0" key="21"/>
          <note pos="2604" vol="195" len="12" pan="0" key="21"/>
          <note pos="2616" vol="195" len="12" pan="0" key="21"/>
          <note pos="2628" vol="195" len="12" pan="0" key="21"/>
          <note pos="2640" vol="195" len="12" pan="0" key="21"/>
          <note pos="2652" vol="195" len="12" pan="0" key="21"/>
          <note pos="2664" vol="195" len="12" pan="0" key="21"/>
          <note pos="2676" vol="195" len="12" pan="0" key="21"/>
          <note pos="2688" vol="195" len="48" pan="0" key="23"/>
          <note pos="2736" vol="195" len="12" pan="0" key="23"/>
          <note pos="2748" vol="195" len="12" pan="0" key="23"/>
          <note pos="2760" vol="195" len="12" pan="0" key="23"/>
          <note pos="2772" vol="195" len="12" pan="0" key="23"/>
          <note pos="2784" vol="195" len="12" pan="0" key="23"/>
          <note pos="2796" vol="195" len="12" pan="0" key="23"/>
          <note pos="2808" vol="195" len="12" pan="0" key="23"/>
          <note pos="2820" vol="195" len="12" pan="0" key="23"/>
          <note pos="2832" vol="195" len="12" pan="0" key="23"/>
          <note pos="2844" vol="195" len="12" pan="0" key="23"/>
          <note pos="2856" vol="195" len="12" pan="0" key="23"/>
          <note pos="2868" vol="195" len="12" pan="0" key="23"/>
          <note pos="2880" vol="195" len="24" pan="0" key="11"/>
          <note pos="2904" vol="195" len="24" pan="0" key="11"/>
          <note pos="2976" vol="195" len="24" pan="0" key="11"/>
          <note pos="3000" vol="195" len="24" pan="0" key="11"/>
        </pattern>
        <pattern name="" steps="16" pos="3264" muted="0" type="1">
          <note pos="0" vol="172" len="192" pan="0" key="14"/>
        </pattern>
        <pattern name="" steps="16" pos="7296" muted="0" type="1">
          <note pos="0" vol="197" len="24" pan="0" key="18"/>
          <note pos="24" vol="197" len="24" pan="0" key="16"/>
          <note pos="48" vol="197" len="24" pan="0" key="18"/>
          <note pos="72" vol="197" len="24" pan="0" key="25"/>
          <note pos="96" vol="197" len="24" pan="0" key="18"/>
          <note pos="120" vol="197" len="24" pan="0" key="28"/>
          <note pos="144" vol="197" len="24" pan="0" key="23"/>
          <note pos="168" vol="197" len="24" pan="0" key="25"/>
          <note pos="192" vol="197" len="24" pan="0" key="18"/>
          <note pos="216" vol="197" len="24" pan="0" key="16"/>
          <note pos="240" vol="197" len="24" pan="0" key="18"/>
          <note pos="264" vol="197" len="24" pan="0" key="25"/>
          <note pos="288" vol="197" len="24" pan="0" key="18"/>
          <note pos="312" vol="197" len="24" pan="0" key="28"/>
          <note pos="336" vol="197" len="24" pan="0" key="30"/>
          <note pos="360" vol="197" len="24" pan="0" key="28"/>
        </pattern>
        <pattern name="" steps="16" pos="7680" muted="0" type="1">
          <note pos="0" vol="197" len="24" pan="0" key="15"/>
          <note pos="24" vol="197" len="12" pan="0" key="15"/>
          <note pos="36" vol="197" len="12" pan="0" key="15"/>
          <note pos="48" vol="197" len="12" pan="0" key="15"/>
          <note pos="60" vol="197" len="12" pan="0" key="15"/>
          <note pos="72" vol="197" len="12" pan="0" key="15"/>
          <note pos="84" vol="197" len="12" pan="0" key="15"/>
          <note pos="96" vol="197" len="12" pan="0" key="15"/>
          <note pos="108" vol="197" len="12" pan="0" key="15"/>
          <note pos="120" vol="197" len="12" pan="0" key="15"/>
          <note pos="132" vol="197" len="12" pan="0" key="15"/>
          <note pos="144" vol="197" len="12" pan="0" key="15"/>
          <note pos="156" vol="197" len="12" pan="0" key="15"/>
          <note pos="168" vol="197" len="12" pan="0" key="15"/>
          <note pos="180" vol="197" len="12" pan="0" key="15"/>
          <note pos="192" vol="197" len="96" pan="0" key="21"/>
          <note pos="288" vol="197" len="96" pan="0" key="20"/>
        </pattern>
        <pattern name="" steps="16" pos="18816" muted="0" type="1">
          <note pos="0" vol="197" len="24" pan="0" key="13"/>
          <note pos="24" vol="197" len="12" pan="0" key="13"/>
          <note pos="36" vol="197" len="12" pan="0" key="13"/>
          <note pos="48" vol="197" len="24" pan="0" key="13"/>
          <note pos="72" vol="197" len="24" pan="0" key="13"/>
          <note pos="96" vol="197" len="12" pan="0" key="13"/>
          <note pos="108" vol="197" len="12" pan="0" key="13"/>
          <note pos="120" vol="197" len="24" pan="0" key="13"/>
          <note pos="144" vol="197" len="24" pan="0" key="13"/>
          <note pos="168" vol="197" len="12" pan="0" key="13"/>
          <note pos="180" vol="197" len="12" pan="0" key="13"/>
          <note pos="192" vol="197" len="24" pan="0" key="13"/>
          <note pos="216" vol="197" len="24" pan="0" key="13"/>
          <note pos="240" vol="197" len="12" pan="0" key="13"/>
          <note pos="252" vol="197" len="12" pan="0" key="13"/>
          <note pos="264" vol="197" len="24" pan="0" key="13"/>
          <note pos="288" vol="197" len="24" pan="0" key="13"/>
          <note pos="312" vol="197" len="24" pan="0" key="13"/>
          <note pos="336" vol="197" len="12" pan="0" key="13"/>
          <note pos="348" vol="197" len="12" pan="0" key="13"/>
          <note pos="360" vol="197" len="24" pan="0" key="13"/>
          <note pos="384" vol="197" len="24" pan="0" key="20"/>
          <note pos="408" vol="197" len="12" pan="0" key="20"/>
          <note pos="420" vol="197" len="12" pan="0" key="20"/>
          <note pos="432" vol="197" len="24" pan="0" key="20"/>
          <note pos="456" vol="197" len="24" pan="0" key="20"/>
          <note pos="480" vol="197" len="12" pan="0" key="20"/>
          <note pos="492" vol="197" len="12" pan="0" key="20"/>
          <note pos="504" vol="197" len="24" pan="0" key="20"/>
          <note pos="528" vol="197" len="24" pan="0" key="20"/>
          <note pos="552" vol="197" len="12" pan="0" key="20"/>
          <note pos="564" vol="197" len="12" pan="0" key="20"/>
          <note pos="576" vol="197" len="24" pan="0" key="20"/>
          <note pos="600" vol="197" len="24" pan="0" key="20"/>
          <note pos="624" vol="197" len="12" pan="0" key="20"/>
          <note pos="636" vol="197" len="12" pan="0" key="20"/>
          <note pos="648" vol="197" len="24" pan="0" key="20"/>
          <note pos="672" vol="197" len="24" pan="0" key="20"/>
          <note pos="696" vol="197" len="24" pan="0" key="20"/>
          <note pos="720" vol="197" len="12" pan="0" key="20"/>
          <note pos="732" vol="197" len="12" pan="0" key="20"/>
          <note pos="744" vol="197" len="24" pan="0" key="20"/>
          <note pos="768" vol="197" len="24" pan="0" key="15"/>
          <note pos="792" vol="197" len="12" pan="0" key="15"/>
          <note pos="804" vol="197" len="12" pan="0" key="15"/>
          <note pos="816" vol="197" len="24" pan="0" key="15"/>
          <note pos="840" vol="197" len="24" pan="0" key="15"/>
          <note pos="864" vol="197" len="12" pan="0" key="15"/>
          <note pos="876" vol="197" len="12" pan="0" key="15"/>
          <note pos="888" vol="197" len="24" pan="0" key="15"/>
          <note pos="912" vol="197" len="24" pan="0" key="15"/>
          <note pos="936" vol="197" len="12" pan="0" key="15"/>
          <note pos="948" vol="197" len="12" pan="0" key="15"/>
          <note pos="960" vol="197" len="24" pan="0" key="15"/>
          <note pos="984" vol="197" len="24" pan="0" key="15"/>
          <note pos="1008" vol="197" len="12" pan="0" key="15"/>
          <note pos="1020" vol="197" len="12" pan="0" key="15"/>
          <note pos="1032" vol="197" len="24" pan="0" key="15"/>
          <note pos="1056" vol="197" len="24" pan="0" key="15"/>
          <note pos="1080" vol="197" len="24" pan="0" key="15"/>
          <note pos="1104" vol="197" len="12" pan="0" key="15"/>
          <note pos="1116" vol="197" len="12" pan="0" key="15"/>
          <note pos="1128" vol="197" len="24" pan="0" key="15"/>
          <note pos="1152" vol="197" len="24" pan="0" key="14"/>
          <note pos="1176" vol="197" len="12" pan="0" key="14"/>
          <note pos="1188" vol="197" len="12" pan="0" key="14"/>
          <note pos="1200" vol="197" len="24" pan="0" key="14"/>
          <note pos="1224" vol="197" len="24" pan="0" key="14"/>
          <note pos="1248" vol="197" len="12" pan="0" key="14"/>
          <note pos="1260" vol="197" len="12" pan="0" key="14"/>
          <note pos="1272" vol="197" len="24" pan="0" key="14"/>
          <note pos="1296" vol="197" len="24" pan="0" key="14"/>
          <note pos="1320" vol="197" len="12" pan="0" key="14"/>
          <note pos="1332" vol="197" len="12" pan="0" key="14"/>
          <note pos="1344" vol="197" len="48" pan="0" key="20"/>
          <note pos="1392" vol="197" len="48" pan="0" key="15"/>
          <note pos="1440" vol="197" len="48" pan="0" key="11"/>
          <note pos="1488" vol="197" len="48" pan="0" key="8"/>
          <note pos="1536" vol="197" len="24" pan="0" key="13"/>
          <note pos="1560" vol="197" len="12" pan="0" key="13"/>
          <note pos="1572" vol="197" len="12" pan="0" key="13"/>
          <note pos="1584" vol="197" len="24" pan="0" key="13"/>
          <note pos="1608" vol="197" len="24" pan="0" key="13"/>
          <note pos="1632" vol="197" len="12" pan="0" key="13"/>
          <note pos="1644" vol="197" len="12" pan="0" key="13"/>
          <note pos="1656" vol="197" len="24" pan="0" key="13"/>
          <note pos="1680" vol="197" len="24" pan="0" key="13"/>
          <note pos="1704" vol="197" len="12" pan="0" key="13"/>
          <note pos="1716" vol="197" len="12" pan="0" key="13"/>
          <note pos="1728" vol="197" len="24" pan="0" key="13"/>
          <note pos="1752" vol="197" len="24" pan="0" key="13"/>
          <note pos="1776" vol="197" len="12" pan="0" key="13"/>
          <note pos="1788" vol="197" len="12" pan="0" key="13"/>
          <note pos="1800" vol="197" len="24" pan="0" key="13"/>
          <note pos="1824" vol="197" len="24" pan="0" key="13"/>
          <note pos="1848" vol="197" len="24" pan="0" key="13"/>
          <note pos="1872" vol="197" len="12" pan="0" key="13"/>
          <note pos="1884" vol="197" len="12" pan="0" key="13"/>
          <note pos="1896" vol="197" len="24" pan="0" key="13"/>
          <note pos="1920" vol="197" len="24" pan="0" key="14"/>
          <note pos="1944" vol="197" len="12" pan="0" key="14"/>
          <note pos="1956" vol="197" len="12" pan="0" key="14"/>
          <note pos="1968" vol="197" len="24" pan="0" key="14"/>
          <note pos="1992" vol="197" len="24" pan="0" key="14"/>
          <note pos="2016" vol="197" len="12" pan="0" key="14"/>
          <note pos="2028" vol="197" len="12" pan="0" key="14"/>
          <note pos="2040" vol="197" len="24" pan="0" key="14"/>
          <note pos="2064" vol="197" len="24" pan="0" key="14"/>
          <note pos="2088" vol="197" len="12" pan="0" key="14"/>
          <note pos="2100" vol="197" len="12" pan="0" key="14"/>
          <note pos="2112" vol="197" len="24" pan="0" key="14"/>
          <note pos="2136" vol="197" len="24" pan="0" key="14"/>
          <note pos="2160" vol="197" len="12" pan="0" key="14"/>
          <note pos="2172" vol="197" len="12" pan="0" key="14"/>
          <note pos="2184" vol="197" len="24" pan="0" key="14"/>
          <note pos="2208" vol="197" len="24" pan="0" key="14"/>
          <note pos="2232" vol="197" len="24" pan="0" key="14"/>
          <note pos="2256" vol="197" len="12" pan="0" key="14"/>
          <note pos="2268" vol="197" len="12" pan="0" key="14"/>
          <note pos="2280" vol="197" len="24" pan="0" key="14"/>
          <note pos="2304" vol="197" len="24" pan="0" key="15"/>
          <note pos="2328" vol="197" len="12" pan="0" key="15"/>
          <note pos="2340" vol="197" len="12" pan="0" key="15"/>
          <note pos="2352" vol="197" len="24" pan="0" key="15"/>
          <note pos="2376" vol="197" len="24" pan="0" key="15"/>
          <note pos="2400" vol="197" len="12" pan="0" key="15"/>
          <note pos="2412" vol="197" len="12" pan="0" key="15"/>
          <note pos="2424" vol="197" len="24" pan="0" key="15"/>
          <note pos="2448" vol="197" len="24" pan="0" key="15"/>
          <note pos="2472" vol="197" len="12" pan="0" key="15"/>
          <note pos="2484" vol="197" len="12" pan="0" key="15"/>
          <note pos="2496" vol="197" len="24" pan="0" key="15"/>
          <note pos="2520" vol="197" len="24" pan="0" key="15"/>
          <note pos="2544" vol="197" len="12" pan="0" key="15"/>
          <note pos="2556" vol="197" len="12" pan="0" key="15"/>
          <note pos="2568" vol="197" len="24" pan="0" key="15"/>
          <note pos="2592" vol="197" len="24" pan="0" key="15"/>
          <note pos="2616" vol="197" len="24" pan="0" key="15"/>
          <note pos="2640" vol="197" len="12" pan="0" key="15"/>
          <note pos="2652" vol="197" len="12" pan="0" key="15"/>
          <note pos="2664" vol="197" len="24" pan="0" key="15"/>
          <note pos="2688" vol="197" len="24" pan="0" key="20"/>
          <note pos="2712" vol="197" len="12" pan="0" key="20"/>
          <note pos="2724" vol="197" len="12" pan="0" key="20"/>
          <note pos="2736" vol="197" len="24" pan="0" key="20"/>
          <note pos="2760" vol="197" len="24" pan="0" key="20"/>
          <note pos="2784" vol="197" len="12" pan="0" key="20"/>
          <note pos="2796" vol="197" len="12" pan="0" key="20"/>
          <note pos="2808" vol="197" len="24" pan="0" key="20"/>
          <note pos="2832" vol="197" len="24" pan="0" key="20"/>
          <note pos="2856" vol="197" len="12" pan="0" key="20"/>
          <note pos="2868" vol="197" len="12" pan="0" key="20"/>
          <note pos="2880" vol="197" len="48" pan="0" key="20"/>
          <note pos="2928" vol="197" len="48" pan="0" key="20"/>
          <note pos="2976" vol="197" len="48" pan="0" key="20"/>
          <note pos="3024" vol="197" len="48" pan="0" key="20"/>
        </pattern>
        <pattern name="" steps="16" pos="13824" muted="0" type="1">
          <note pos="0" vol="197" len="24" pan="0" key="23"/>
          <note pos="24" vol="197" len="12" pan="0" key="20"/>
          <note pos="36" vol="197" len="12" pan="0" key="20"/>
          <note pos="48" vol="197" len="12" pan="0" key="20"/>
          <note pos="60" vol="197" len="12" pan="0" key="20"/>
          <note pos="72" vol="197" len="48" pan="0" key="20"/>
          <note pos="120" vol="197" len="24" pan="0" key="20"/>
          <note pos="144" vol="197" len="24" pan="0" key="20"/>
          <note pos="168" vol="197" len="24" pan="0" key="20"/>
        </pattern>
        <pattern name="" steps="16" pos="14016" muted="0" type="1">
          <note pos="0" vol="197" len="12" pan="0" key="21"/>
          <note pos="12" vol="197" len="12" pan="0" key="21"/>
          <note pos="24" vol="197" len="12" pan="0" key="21"/>
          <note pos="36" vol="197" len="12" pan="0" key="21"/>
          <note pos="48" vol="197" len="12" pan="0" key="25"/>
          <note pos="60" vol="197" len="12" pan="0" key="25"/>
          <note pos="72" vol="197" len="12" pan="0" key="21"/>
          <note pos="84" vol="197" len="12" pan="0" key="21"/>
          <note pos="96" vol="197" len="12" pan="0" key="23"/>
          <note pos="108" vol="197" len="12" pan="0" key="23"/>
          <note pos="120" vol="197" len="12" pan="0" key="23"/>
          <note pos="132" vol="197" len="12" pan="0" key="23"/>
          <note pos="144" vol="197" len="12" pan="0" key="28"/>
          <note pos="156" vol="197" len="12" pan="0" key="27"/>
          <note pos="168" vol="197" len="12" pan="0" key="25"/>
          <note pos="180" vol="197" len="12" pan="0" key="23"/>
        </pattern>
        <pattern name="" steps="16" pos="14208" muted="0" type="1">
          <note pos="0" vol="200" len="12" pan="0" key="14"/>
          <note pos="12" vol="200" len="12" pan="0" key="14"/>
          <note pos="24" vol="200" len="24" pan="0" key="14"/>
          <note pos="48" vol="200" len="12" pan="0" key="14"/>
          <note pos="60" vol="200" len="12" pan="0" key="14"/>
          <note pos="72" vol="200" len="24" pan="0" key="14"/>
          <note pos="96" vol="200" len="12" pan="0" key="14"/>
          <note pos="108" vol="200" len="12" pan="0" key="14"/>
          <note pos="120" vol="200" len="24" pan="0" key="14"/>
          <note pos="144" vol="200" len="12" pan="0" key="14"/>
          <note pos="156" vol="200" len="12" pan="0" key="14"/>
          <note pos="168" vol="200" len="24" pan="0" key="14"/>
          <note pos="192" vol="200" len="12" pan="0" key="14"/>
          <note pos="204" vol="200" len="12" pan="0" key="14"/>
          <note pos="216" vol="200" len="24" pan="0" key="14"/>
          <note pos="240" vol="200" len="12" pan="0" key="14"/>
          <note pos="252" vol="200" len="12" pan="0" key="14"/>
          <note pos="264" vol="200" len="24" pan="0" key="14"/>
          <note pos="288" vol="200" len="12" pan="0" key="14"/>
          <note pos="300" vol="200" len="12" pan="0" key="14"/>
          <note pos="312" vol="200" len="24" pan="0" key="14"/>
          <note pos="336" vol="200" len="12" pan="0" key="14"/>
          <note pos="348" vol="200" len="12" pan="0" key="14"/>
          <note pos="360" vol="200" len="24" pan="0" key="14"/>
          <note pos="384" vol="200" len="12" pan="0" key="13"/>
          <note pos="396" vol="200" len="12" pan="0" key="13"/>
          <note pos="408" vol="200" len="24" pan="0" key="13"/>
          <note pos="432" vol="200" len="12" pan="0" key="13"/>
          <note pos="444" vol="200" len="12" pan="0" key="13"/>
          <note pos="456" vol="200" len="24" pan="0" key="13"/>
          <note pos="480" vol="200" len="12" pan="0" key="13"/>
          <note pos="492" vol="200" len="12" pan="0" key="13"/>
          <note pos="504" vol="200" len="24" pan="0" key="13"/>
          <note pos="528" vol="200" len="12" pan="0" key="13"/>
          <note pos="540" vol="200" len="12" pan="0" key="13"/>
          <note pos="552" vol="200" len="24" pan="0" key="13"/>
          <note pos="576" vol="200" len="12" pan="0" key="11"/>
          <note pos="588" vol="200" len="12" pan="0" key="11"/>
          <note pos="600" vol="200" len="24" pan="0" key="11"/>
          <note pos="624" vol="200" len="12" pan="0" key="11"/>
          <note pos="636" vol="200" len="12" pan="0" key="11"/>
          <note pos="648" vol="200" len="24" pan="0" key="11"/>
          <note pos="672" vol="200" len="12" pan="0" key="11"/>
          <note pos="684" vol="200" len="12" pan="0" key="11"/>
          <note pos="696" vol="200" len="24" pan="0" key="11"/>
          <note pos="720" vol="200" len="12" pan="0" key="11"/>
          <note pos="732" vol="200" len="12" pan="0" key="11"/>
          <note pos="744" vol="200" len="24" pan="0" key="11"/>
        </pattern>
        <pattern name="" steps="16" pos="14976" muted="0" type="1">
          <note pos="0" vol="197" len="24" pan="0" key="16"/>
          <note pos="24" vol="197" len="24" pan="0" key="18"/>
          <note pos="48" vol="197" len="12" pan="0" key="18"/>
          <note pos="60" vol="197" len="12" pan="0" key="18"/>
          <note pos="72" vol="197" len="24" pan="0" key="23"/>
          <note pos="96" vol="197" len="24" pan="0" key="25"/>
          <note pos="120" vol="197" len="24" pan="0" key="18"/>
          <note pos="144" vol="197" len="24" pan="0" key="16"/>
          <note pos="168" vol="197" len="24" pan="0" key="18"/>
        </pattern>
        <pattern name="" steps="16" pos="15168" muted="0" type="1">
          <note pos="0" vol="197" len="24" pan="0" key="16"/>
          <note pos="24" vol="197" len="24" pan="0" key="18"/>
          <note pos="48" vol="197" len="12" pan="0" key="18"/>
          <note pos="60" vol="197" len="12" pan="0" key="18"/>
          <note pos="72" vol="197" len="24" pan="0" key="23"/>
          <note pos="96" vol="197" len="24" pan="0" key="25"/>
          <note pos="120" vol="197" len="24" pan="0" key="18"/>
          <note pos="144" vol="197" len="24" pan="0" key="16"/>
          <note pos="168" vol="197" len="24" pan="0" key="18"/>
        </pattern>
        <pattern name="" steps="16" pos="15360" muted="0" type="1">
          <note pos="0" vol="197" len="24" pan="0" key="15"/>
          <note pos="24" vol="197" len="12" pan="0" key="15"/>
          <note pos="36" vol="197" len="12" pan="0" key="15"/>
          <note pos="48" vol="197" len="12" pan="0" key="15"/>
          <note pos="60" vol="197" len="12" pan="0" key="15"/>
          <note pos="72" vol="197" len="12" pan="0" key="15"/>
          <note pos="84" vol="197" len="12" pan="0" key="15"/>
          <note pos="96" vol="197" len="12" pan="0" key="15"/>
          <note pos="108" vol="197" len="12" pan="0" key="15"/>
          <note pos="120" vol="197" len="12" pan="0" key="15"/>
          <note pos="132" vol="197" len="12" pan="0" key="15"/>
          <note pos="144" vol="197" len="12" pan="0" key="15"/>
          <note pos="156" vol="197" len="12" pan="0" key="15"/>
          <note pos="168" vol="197" len="12" pan="0" key="15"/>
          <note pos="180" vol="197" len="12" pan="0" key="15"/>
          <note pos="192" vol="197" len="96" pan="0" key="21"/>
          <note pos="288" vol="197" len="96" pan="0" key="20"/>
        </pattern>
        <pattern name="" steps="16" pos="28800" muted="0" type="1">
          <note pos="0" vol="200" len="48" pan="0" key="25"/>
          <note pos="48" vol="200" len="24" pan="0" key="13"/>
          <note pos="72" vol="200" len="12" pan="0" key="13"/>
          <note pos="84" vol="200" len="12" pan="0" key="13"/>
          <note pos="96" vol="200" len="12" pan="0" key="13"/>
          <note pos="108" vol="200" len="12" pan="0" key="13"/>
          <note pos="120" vol="200" len="24" pan="0" key="13"/>
          <note pos="144" vol="200" len="12" pan="0" key="13"/>
          <note pos="156" vol="200" len="12" pan="0" key="13"/>
          <note pos="168" vol="200" len="12" pan="0" key="13"/>
          <note pos="180" vol="200" len="12" pan="0" key="13"/>
          <note pos="192" vol="200" len="24" pan="0" key="13"/>
          <note pos="216" vol="200" len="12" pan="0" key="13"/>
          <note pos="228" vol="200" len="12" pan="0" key="13"/>
          <note pos="240" vol="200" len="12" pan="0" key="13"/>
          <note pos="252" vol="200" len="12" pan="0" key="13"/>
          <note pos="264" vol="200" len="24" pan="0" key="13"/>
          <note pos="288" vol="200" len="12" pan="0" key="13"/>
          <note pos="300" vol="200" len="12" pan="0" key="13"/>
          <note pos="312" vol="200" len="24" pan="0" key="13"/>
          <note pos="336" vol="200" len="12" pan="0" key="13"/>
          <note pos="348" vol="200" len="12" pan="0" key="13"/>
          <note pos="360" vol="200" len="12" pan="0" key="13"/>
          <note pos="372" vol="200" len="12" pan="0" key="13"/>
          <note pos="384" vol="200" len="48" pan="0" key="13"/>
          <note pos="432" vol="200" len="24" pan="0" key="13"/>
          <note pos="456" vol="200" len="12" pan="0" key="13"/>
          <note pos="468" vol="200" len="12" pan="0" key="13"/>
          <note pos="480" vol="200" len="12" pan="0" key="13"/>
          <note pos="492" vol="200" len="12" pan="0" key="13"/>
          <note pos="504" vol="200" len="24" pan="0" key="13"/>
          <note pos="528" vol="200" len="12" pan="0" key="13"/>
          <note pos="540" vol="200" len="12" pan="0" key="13"/>
          <note pos="552" vol="200" len="12" pan="0" key="13"/>
          <note pos="564" vol="200" len="12" pan="0" key="13"/>
          <note pos="576" vol="200" len="24" pan="0" key="13"/>
          <note pos="600" vol="200" len="12" pan="0" key="13"/>
          <note pos="612" vol="200" len="12" pan="0" key="13"/>
          <note pos="624" vol="200" len="12" pan="0" key="13"/>
          <note pos="636" vol="200" len="12" pan="0" key="13"/>
          <note pos="648" vol="200" len="24" pan="0" key="13"/>
          <note pos="672" vol="200" len="12" pan="0" key="13"/>
          <note pos="684" vol="200" len="12" pan="0" key="13"/>
          <note pos="696" vol="200" len="24" pan="0" key="16"/>
          <note pos="720" vol="200" len="24" pan="0" key="18"/>
          <note pos="744" vol="200" len="24" pan="0" key="20"/>
        </pattern>
        <pattern name="" steps="16" pos="29568" muted="0" type="1">
          <note pos="0" vol="200" len="48" pan="0" key="25"/>
          <note pos="48" vol="200" len="24" pan="0" key="13"/>
          <note pos="72" vol="200" len="12" pan="0" key="13"/>
          <note pos="84" vol="200" len="12" pan="0" key="13"/>
          <note pos="96" vol="200" len="12" pan="0" key="13"/>
          <note pos="108" vol="200" len="12" pan="0" key="13"/>
          <note pos="120" vol="200" len="24" pan="0" key="13"/>
          <note pos="144" vol="200" len="12" pan="0" key="13"/>
          <note pos="156" vol="200" len="12" pan="0" key="13"/>
          <note pos="168" vol="200" len="12" pan="0" key="13"/>
          <note pos="180" vol="200" len="12" pan="0" key="13"/>
          <note pos="192" vol="200" len="24" pan="0" key="13"/>
          <note pos="216" vol="200" len="12" pan="0" key="13"/>
          <note pos="228" vol="200" len="12" pan="0" key="13"/>
          <note pos="240" vol="200" len="12" pan="0" key="13"/>
          <note pos="252" vol="200" len="12" pan="0" key="13"/>
          <note pos="264" vol="200" len="24" pan="0" key="13"/>
          <note pos="288" vol="200" len="12" pan="0" key="13"/>
          <note pos="300" vol="200" len="12" pan="0" key="13"/>
          <note pos="312" vol="200" len="24" pan="0" key="13"/>
          <note pos="336" vol="200" len="12" pan="0" key="13"/>
          <note pos="348" vol="200" len="12" pan="0" key="13"/>
          <note pos="360" vol="200" len="12" pan="0" key="13"/>
          <note pos="372" vol="200" len="12" pan="0" key="13"/>
          <note pos="384" vol="200" len="48" pan="0" key="13"/>
          <note pos="432" vol="200" len="24" pan="0" key="13"/>
          <note pos="456" vol="200" len="12" pan="0" key="13"/>
          <note pos="468" vol="200" len="12" pan="0" key="13"/>
          <note pos="480" vol="200" len="12" pan="0" key="13"/>
          <note pos="492" vol="200" len="12" pan="0" key="13"/>
          <note pos="504" vol="200" len="24" pan="0" key="13"/>
          <note pos="528" vol="200" len="12" pan="0" key="13"/>
          <note pos="540" vol="200" len="12" pan="0" key="13"/>
          <note pos="552" vol="200" len="12" pan="0" key="13"/>
          <note pos="564" vol="200" len="12" pan="0" key="13"/>
          <note pos="576" vol="200" len="24" pan="0" key="13"/>
          <note pos="600" vol="200" len="12" pan="0" key="13"/>
          <note pos="612" vol="200" len="12" pan="0" key="13"/>
          <note pos="624" vol="200" len="12" pan="0" key="13"/>
          <note pos="636" vol="200" len="12" pan="0" key="13"/>
          <note pos="648" vol="200" len="24" pan="0" key="13"/>
          <note pos="672" vol="200" len="12" pan="0" key="13"/>
          <note pos="684" vol="200" len="12" pan="0" key="13"/>
          <note pos="696" vol="200" len="24" pan="0" key="16"/>
          <note pos="720" vol="200" len="24" pan="0" key="18"/>
          <note pos="744" vol="200" len="24" pan="0" key="20"/>
        </pattern>
        <pattern name="" steps="16" pos="30336" muted="0" type="1">
          <note pos="0" vol="200" len="48" pan="0" key="26"/>
          <note pos="0" vol="200" len="24" pan="0" key="0"/>
          <note pos="48" vol="200" len="24" pan="0" key="14"/>
          <note pos="60" vol="200" len="24" pan="0" key="1"/>
          <note pos="72" vol="200" len="12" pan="0" key="14"/>
          <note pos="84" vol="200" len="12" pan="0" key="14"/>
          <note pos="96" vol="200" len="12" pan="0" key="14"/>
          <note pos="108" vol="200" len="12" pan="0" key="14"/>
          <note pos="120" vol="200" len="24" pan="0" key="14"/>
          <note pos="120" vol="200" len="24" pan="0" key="0"/>
          <note pos="132" vol="200" len="24" pan="0" key="1"/>
          <note pos="144" vol="200" len="12" pan="0" key="14"/>
          <note pos="156" vol="200" len="12" pan="0" key="14"/>
          <note pos="168" vol="200" len="12" pan="0" key="14"/>
          <note pos="180" vol="200" len="12" pan="0" key="14"/>
          <note pos="192" vol="200" len="24" pan="0" key="14"/>
          <note pos="192" vol="200" len="24" pan="0" key="0"/>
          <note pos="204" vol="200" len="24" pan="0" key="1"/>
          <note pos="216" vol="200" len="12" pan="0" key="14"/>
          <note pos="228" vol="200" len="12" pan="0" key="14"/>
          <note pos="240" vol="200" len="12" pan="0" key="14"/>
          <note pos="252" vol="200" len="12" pan="0" key="14"/>
          <note pos="264" vol="200" len="24" pan="0" key="14"/>
          <note pos="264" vol="200" len="24" pan="0" key="0"/>
          <note pos="276" vol="200" len="24" pan="0" key="1"/>
          <note pos="288" vol="200" len="12" pan="0" key="14"/>
          <note pos="300" vol="200" len="12" pan="0" key="14"/>
          <note pos="312" vol="200" len="24" pan="0" key="14"/>
          <note pos="312" vol="200" len="24" pan="0" key="0"/>
          <note pos="324" vol="200" len="24" pan="0" key="1"/>
          <note pos="336" vol="200" len="12" pan="0" key="14"/>
          <note pos="348" vol="200" len="12" pan="0" key="14"/>
          <note pos="360" vol="200" len="12" pan="0" key="14"/>
          <note pos="372" vol="200" len="12" pan="0" key="14"/>
          <note pos="384" vol="200" len="48" pan="0" key="14"/>
          <note pos="384" vol="200" len="24" pan="0" key="0"/>
          <note pos="432" vol="200" len="24" pan="0" key="14"/>
          <note pos="444" vol="200" len="24" pan="0" key="1"/>
          <note pos="456" vol="200" len="12" pan="0" key="14"/>
          <note pos="468" vol="200" len="12" pan="0" key="14"/>
          <note pos="480" vol="200" len="12" pan="0" key="14"/>
          <note pos="492" vol="200" len="12" pan="0" key="14"/>
          <note pos="504" vol="200" len="24" pan="0" key="14"/>
          <note pos="504" vol="200" len="24" pan="0" key="0"/>
          <note pos="516" vol="200" len="24" pan="0" key="1"/>
          <note pos="528" vol="200" len="12" pan="0" key="14"/>
          <note pos="540" vol="200" len="12" pan="0" key="14"/>
          <note pos="552" vol="200" len="12" pan="0" key="14"/>
          <note pos="564" vol="200" len="12" pan="0" key="14"/>
          <note pos="576" vol="200" len="24" pan="0" key="14"/>
          <note pos="576" vol="200" len="24" pan="0" key="0"/>
          <note pos="588" vol="200" len="24" pan="0" key="1"/>
          <note pos="600" vol="200" len="12" pan="0" key="14"/>
          <note pos="612" vol="200" len="12" pan="0" key="14"/>
          <note pos="624" vol="200" len="12" pan="0" key="14"/>
          <note pos="636" vol="200" len="12" pan="0" key="14"/>
          <note pos="648" vol="200" len="24" pan="0" key="14"/>
          <note pos="648" vol="200" len="24" pan="0" key="0"/>
          <note pos="660" vol="200" len="24" pan="0" key="1"/>
          <note pos="672" vol="200" len="12" pan="0" key="14"/>
          <note pos="684" vol="200" len="12" pan="0" key="14"/>
          <note pos="696" vol="200" len="24" pan="0" key="21"/>
          <note pos="720" vol="200" len="24" pan="0" key="20"/>
          <note pos="744" vol="200" len="24" pan="0" key="16"/>
        </pattern>
        <pattern name="" steps="16" pos="31104" muted="0" type="1">
          <note pos="0" vol="200" len="48" pan="0" key="25"/>
          <note pos="48" vol="200" len="24" pan="0" key="13"/>
          <note pos="72" vol="200" len="12" pan="0" key="13"/>
          <note pos="84" vol="200" len="12" pan="0" key="13"/>
          <note pos="96" vol="200" len="12" pan="0" key="13"/>
          <note pos="108" vol="200" len="12" pan="0" key="13"/>
          <note pos="120" vol="200" len="24" pan="0" key="13"/>
          <note pos="144" vol="200" len="12" pan="0" key="13"/>
          <note pos="156" vol="200" len="12" pan="0" key="13"/>
          <note pos="168" vol="200" len="12" pan="0" key="13"/>
          <note pos="180" vol="200" len="12" pan="0" key="13"/>
          <note pos="192" vol="200" len="24" pan="0" key="13"/>
          <note pos="216" vol="200" len="12" pan="0" key="13"/>
          <note pos="228" vol="200" len="12" pan="0" key="13"/>
          <note pos="240" vol="200" len="12" pan="0" key="13"/>
          <note pos="252" vol="200" len="12" pan="0" key="13"/>
          <note pos="264" vol="200" len="24" pan="0" key="13"/>
          <note pos="288" vol="200" len="12" pan="0" key="13"/>
          <note pos="300" vol="200" len="12" pan="0" key="13"/>
          <note pos="312" vol="200" len="24" pan="0" key="13"/>
          <note pos="336" vol="200" len="12" pan="0" key="13"/>
          <note pos="348" vol="200" len="12" pan="0" key="13"/>
          <note pos="360" vol="200" len="12" pan="0" key="13"/>
          <note pos="372" vol="200" len="12" pan="0" key="13"/>
          <note pos="384" vol="200" len="48" pan="0" key="11"/>
          <note pos="432" vol="200" len="24" pan="0" key="11"/>
          <note pos="456" vol="200" len="12" pan="0" key="11"/>
          <note pos="468" vol="200" len="12" pan="0" key="11"/>
          <note pos="480" vol="200" len="12" pan="0" key="11"/>
          <note pos="492" vol="200" len="12" pan="0" key="11"/>
          <note pos="504" vol="200" len="24" pan="0" key="11"/>
          <note pos="528" vol="200" len="12" pan="0" key="11"/>
          <note pos="540" vol="200" len="12" pan="0" key="11"/>
          <note pos="552" vol="200" len="12" pan="0" key="11"/>
          <note pos="564" vol="200" len="12" pan="0" key="11"/>
          <note pos="576" vol="200" len="24" pan="0" key="11"/>
          <note pos="600" vol="200" len="12" pan="0" key="11"/>
          <note pos="612" vol="200" len="12" pan="0" key="11"/>
          <note pos="624" vol="200" len="12" pan="0" key="11"/>
          <note pos="636" vol="200" len="12" pan="0" key="11"/>
          <note pos="648" vol="200" len="24" pan="0" key="11"/>
          <note pos="672" vol="200" len="12" pan="0" key="11"/>
          <note pos="684" vol="200" len="12" pan="0" key="11"/>
          <note pos="696" vol="200" len="24" pan="0" key="15"/>
          <note pos="720" vol="200" len="24" pan="0" key="16"/>
          <note pos="744" vol="200" len="24" pan="0" key="18"/>
        </pattern>
        <pattern name="" steps="16" pos="31872" muted="0" type="1">
          <note pos="0" vol="200" len="48" pan="0" key="9"/>
          <note pos="48" vol="200" len="24" pan="0" key="9"/>
          <note pos="72" vol="200" len="12" pan="0" key="9"/>
          <note pos="84" vol="200" len="12" pan="0" key="9"/>
          <note pos="96" vol="200" len="12" pan="0" key="9"/>
          <note pos="108" vol="200" len="12" pan="0" key="9"/>
          <note pos="120" vol="200" len="24" pan="0" key="9"/>
          <note pos="144" vol="200" len="12" pan="0" key="9"/>
          <note pos="156" vol="200" len="12" pan="0" key="9"/>
          <note pos="168" vol="200" len="12" pan="0" key="9"/>
          <note pos="180" vol="200" len="12" pan="0" key="9"/>
          <note pos="192" vol="200" len="24" pan="0" key="9"/>
          <note pos="216" vol="200" len="12" pan="0" key="9"/>
          <note pos="228" vol="200" len="12" pan="0" key="9"/>
          <note pos="240" vol="200" len="12" pan="0" key="9"/>
          <note pos="252" vol="200" len="12" pan="0" key="9"/>
          <note pos="264" vol="200" len="24" pan="0" key="9"/>
          <note pos="288" vol="200" len="12" pan="0" key="9"/>
          <note pos="300" vol="200" len="12" pan="0" key="9"/>
          <note pos="312" vol="200" len="24" pan="0" key="9"/>
          <note pos="336" vol="200" len="12" pan="0" key="9"/>
          <note pos="348" vol="200" len="12" pan="0" key="9"/>
          <note pos="360" vol="200" len="12" pan="0" key="9"/>
          <note pos="372" vol="200" len="12" pan="0" key="9"/>
          <note pos="384" vol="200" len="48" pan="0" key="11"/>
          <note pos="432" vol="200" len="24" pan="0" key="11"/>
          <note pos="456" vol="200" len="12" pan="0" key="11"/>
          <note pos="468" vol="200" len="12" pan="0" key="11"/>
          <note pos="480" vol="200" len="12" pan="0" key="11"/>
          <note pos="492" vol="200" len="12" pan="0" key="11"/>
          <note pos="504" vol="200" len="24" pan="0" key="11"/>
          <note pos="528" vol="200" len="12" pan="0" key="11"/>
          <note pos="540" vol="200" len="12" pan="0" key="11"/>
          <note pos="552" vol="200" len="12" pan="0" key="11"/>
          <note pos="564" vol="200" len="12" pan="0" key="11"/>
          <note pos="576" vol="200" len="24" pan="0" key="11"/>
          <note pos="600" vol="200" len="12" pan="0" key="11"/>
          <note pos="612" vol="200" len="12" pan="0" key="11"/>
          <note pos="624" vol="200" len="12" pan="0" key="11"/>
          <note pos="636" vol="200" len="12" pan="0" key="11"/>
          <note pos="648" vol="200" len="24" pan="0" key="11"/>
          <note pos="672" vol="200" len="12" pan="0" key="11"/>
          <note pos="684" vol="200" len="12" pan="0" key="11"/>
          <note pos="696" vol="200" len="24" pan="0" key="11"/>
          <note pos="720" vol="200" len="12" pan="0" key="11"/>
          <note pos="732" vol="200" len="12" pan="0" key="11"/>
          <note pos="744" vol="200" len="12" pan="0" key="11"/>
          <note pos="756" vol="200" len="12" pan="0" key="11"/>
        </pattern>
        <pattern name="" steps="16" pos="32640" muted="0" type="1">
          <note pos="0" vol="200" len="48" pan="0" key="18"/>
          <note pos="48" vol="200" len="24" pan="0" key="18"/>
          <note pos="72" vol="200" len="12" pan="0" key="18"/>
          <note pos="84" vol="200" len="12" pan="0" key="18"/>
          <note pos="96" vol="200" len="12" pan="0" key="18"/>
          <note pos="108" vol="200" len="12" pan="0" key="18"/>
          <note pos="120" vol="200" len="24" pan="0" key="18"/>
          <note pos="144" vol="200" len="12" pan="0" key="18"/>
          <note pos="156" vol="200" len="12" pan="0" key="18"/>
          <note pos="168" vol="200" len="12" pan="0" key="18"/>
          <note pos="180" vol="200" len="12" pan="0" key="18"/>
          <note pos="192" vol="200" len="24" pan="0" key="18"/>
          <note pos="216" vol="200" len="12" pan="0" key="18"/>
          <note pos="228" vol="200" len="12" pan="0" key="18"/>
          <note pos="240" vol="200" len="12" pan="0" key="18"/>
          <note pos="252" vol="200" len="12" pan="0" key="18"/>
          <note pos="264" vol="200" len="24" pan="0" key="18"/>
          <note pos="288" vol="200" len="12" pan="0" key="18"/>
          <note pos="300" vol="200" len="12" pan="0" key="18"/>
          <note pos="312" vol="200" len="24" pan="0" key="18"/>
          <note pos="336" vol="200" len="12" pan="0" key="18"/>
          <note pos="348" vol="200" len="12" pan="0" key="18"/>
          <note pos="360" vol="200" len="12" pan="0" key="18"/>
          <note pos="372" vol="200" len="12" pan="0" key="18"/>
          <note pos="384" vol="200" len="48" pan="0" key="8"/>
          <note pos="432" vol="200" len="24" pan="0" key="8"/>
          <note pos="456" vol="200" len="12" pan="0" key="8"/>
          <note pos="468" vol="200" len="12" pan="0" key="8"/>
          <note pos="480" vol="200" len="12" pan="0" key="8"/>
          <note pos="492" vol="200" len="12" pan="0" key="8"/>
          <note pos="504" vol="200" len="24" pan="0" key="8"/>
          <note pos="528" vol="200" len="12" pan="0" key="8"/>
          <note pos="540" vol="200" len="12" pan="0" key="8"/>
          <note pos="552" vol="200" len="12" pan="0" key="8"/>
          <note pos="564" vol="200" len="12" pan="0" key="8"/>
          <note pos="576" vol="200" len="24" pan="0" key="8"/>
          <note pos="600" vol="200" len="12" pan="0" key="8"/>
          <note pos="612" vol="200" len="12" pan="0" key="8"/>
          <note pos="624" vol="200" len="12" pan="0" key="8"/>
          <note pos="636" vol="200" len="12" pan="0" key="8"/>
          <note pos="648" vol="200" len="24" pan="0" key="8"/>
          <note pos="672" vol="200" len="12" pan="0" key="8"/>
          <note pos="684" vol="200" len="12" pan="0" key="8"/>
          <note pos="696" vol="200" len="24" pan="0" key="8"/>
          <note pos="720" vol="200" len="12" pan="0" key="8"/>
          <note pos="732" vol="200" len="12" pan="0" key="8"/>
          <note pos="744" vol="200" len="12" pan="0" key="8"/>
          <note pos="756" vol="200" len="12" pan="0" key="8"/>
        </pattern>
        <pattern name="" steps="16" pos="33408" muted="0" type="1">
          <note pos="0" vol="200" len="48" pan="0" key="15"/>
          <note pos="48" vol="200" len="24" pan="0" key="15"/>
          <note pos="72" vol="200" len="12" pan="0" key="15"/>
          <note pos="84" vol="200" len="12" pan="0" key="15"/>
          <note pos="96" vol="200" len="12" pan="0" key="15"/>
          <note pos="108" vol="200" len="12" pan="0" key="15"/>
          <note pos="120" vol="200" len="24" pan="0" key="15"/>
          <note pos="144" vol="200" len="12" pan="0" key="15"/>
          <note pos="156" vol="200" len="12" pan="0" key="15"/>
          <note pos="168" vol="200" len="12" pan="0" key="15"/>
          <note pos="180" vol="200" len="12" pan="0" key="15"/>
          <note pos="192" vol="200" len="24" pan="0" key="15"/>
          <note pos="216" vol="200" len="12" pan="0" key="15"/>
          <note pos="228" vol="200" len="12" pan="0" key="15"/>
          <note pos="240" vol="200" len="12" pan="0" key="15"/>
          <note pos="252" vol="200" len="12" pan="0" key="15"/>
          <note pos="264" vol="200" len="24" pan="0" key="15"/>
          <note pos="288" vol="200" len="12" pan="0" key="15"/>
          <note pos="300" vol="200" len="12" pan="0" key="15"/>
          <note pos="312" vol="200" len="24" pan="0" key="15"/>
          <note pos="336" vol="200" len="12" pan="0" key="15"/>
          <note pos="348" vol="200" len="12" pan="0" key="15"/>
          <note pos="360" vol="200" len="12" pan="0" key="15"/>
          <note pos="372" vol="200" len="12" pan="0" key="15"/>
          <note pos="384" vol="200" len="48" pan="0" key="14"/>
          <note pos="432" vol="200" len="24" pan="0" key="14"/>
          <note pos="456" vol="200" len="12" pan="0" key="14"/>
          <note pos="468" vol="200" len="12" pan="0" key="14"/>
          <note pos="480" vol="200" len="12" pan="0" key="14"/>
          <note pos="492" vol="200" len="12" pan="0" key="14"/>
          <note pos="504" vol="200" len="24" pan="0" key="14"/>
          <note pos="528" vol="200" len="12" pan="0" key="14"/>
          <note pos="540" vol="200" len="12" pan="0" key="14"/>
          <note pos="552" vol="200" len="12" pan="0" key="14"/>
          <note pos="564" vol="200" len="12" pan="0" key="14"/>
          <note pos="576" vol="200" len="24" pan="0" key="14"/>
          <note pos="600" vol="200" len="12" pan="0" key="14"/>
          <note pos="612" vol="200" len="12" pan="0" key="14"/>
          <note pos="624" vol="200" len="12" pan="0" key="14"/>
          <note pos="636" vol="200" len="12" pan="0" key="14"/>
          <note pos="648" vol="200" len="24" pan="0" key="14"/>
          <note pos="672" vol="200" len="12" pan="0" key="14"/>
          <note pos="684" vol="200" len="12" pan="0" key="14"/>
          <note pos="696" vol="200" len="24" pan="0" key="14"/>
          <note pos="720" vol="200" len="12" pan="0" key="14"/>
          <note pos="732" vol="200" len="12" pan="0" key="14"/>
          <note pos="744" vol="200" len="12" pan="0" key="14"/>
          <note pos="756" vol="200" len="12" pan="0" key="14"/>
        </pattern>
        <pattern name="" steps="16" pos="34176" muted="0" type="1">
          <note pos="0" vol="200" len="48" pan="0" key="19"/>
          <note pos="0" vol="200" len="24" pan="0" key="0"/>
          <note pos="48" vol="200" len="24" pan="0" key="19"/>
          <note pos="60" vol="200" len="24" pan="0" key="1"/>
          <note pos="72" vol="200" len="12" pan="0" key="19"/>
          <note pos="84" vol="200" len="12" pan="0" key="19"/>
          <note pos="96" vol="200" len="12" pan="0" key="19"/>
          <note pos="108" vol="200" len="12" pan="0" key="19"/>
          <note pos="120" vol="200" len="24" pan="0" key="19"/>
          <note pos="120" vol="200" len="24" pan="0" key="0"/>
          <note pos="132" vol="200" len="24" pan="0" key="1"/>
          <note pos="144" vol="200" len="12" pan="0" key="19"/>
          <note pos="156" vol="200" len="12" pan="0" key="19"/>
          <note pos="168" vol="200" len="12" pan="0" key="19"/>
          <note pos="180" vol="200" len="12" pan="0" key="19"/>
          <note pos="192" vol="200" len="24" pan="0" key="19"/>
          <note pos="192" vol="200" len="24" pan="0" key="0"/>
          <note pos="204" vol="200" len="24" pan="0" key="1"/>
          <note pos="216" vol="200" len="12" pan="0" key="19"/>
          <note pos="228" vol="200" len="12" pan="0" key="19"/>
          <note pos="240" vol="200" len="12" pan="0" key="19"/>
          <note pos="252" vol="200" len="12" pan="0" key="19"/>
          <note pos="264" vol="200" len="24" pan="0" key="19"/>
          <note pos="264" vol="200" len="24" pan="0" key="0"/>
          <note pos="276" vol="200" len="24" pan="0" key="1"/>
          <note pos="288" vol="200" len="12" pan="0" key="19"/>
          <note pos="300" vol="200" len="12" pan="0" key="19"/>
          <note pos="312" vol="200" len="24" pan="0" key="19"/>
          <note pos="312" vol="200" len="24" pan="0" key="0"/>
          <note pos="324" vol="200" len="24" pan="0" key="1"/>
          <note pos="336" vol="200" len="12" pan="0" key="19"/>
          <note pos="348" vol="200" len="12" pan="0" key="19"/>
          <note pos="360" vol="200" len="12" pan="0" key="19"/>
          <note pos="372" vol="200" len="12" pan="0" key="19"/>
          <note pos="384" vol="200" len="48" pan="0" key="20"/>
          <note pos="384" vol="200" len="24" pan="0" key="0"/>
          <note pos="432" vol="200" len="24" pan="0" key="8"/>
          <note pos="444" vol="200" len="24" pan="0" key="1"/>
          <note pos="456" vol="200" len="12" pan="0" key="8"/>
          <note pos="468" vol="200" len="12" pan="0" key="8"/>
          <note pos="480" vol="200" len="12" pan="0" key="8"/>
          <note pos="492" vol="200" len="12" pan="0" key="8"/>
          <note pos="504" vol="200" len="24" pan="0" key="8"/>
          <note pos="504" vol="200" len="24" pan="0" key="0"/>
          <note pos="516" vol="200" len="24" pan="0" key="1"/>
          <note pos="528" vol="200" len="12" pan="0" key="8"/>
          <note pos="540" vol="200" len="12" pan="0" key="8"/>
          <note pos="552" vol="200" len="12" pan="0" key="8"/>
          <note pos="564" vol="200" len="12" pan="0" key="8"/>
          <note pos="576" vol="200" len="192" pan="0" key="8"/>
          <note pos="576" vol="200" len="24" pan="0" key="0"/>
        </pattern>
        <pattern name="" steps="16" pos="34944" muted="0" type="1">
          <note pos="0" vol="197" len="192" pan="0" key="13"/>
          <note pos="0" vol="78" len="48" pan="0" key="0"/>
          <note pos="192" vol="197" len="192" pan="0" key="20"/>
          <note pos="384" vol="197" len="192" pan="0" key="21"/>
          <note pos="576" vol="197" len="192" pan="0" key="23"/>
          <note pos="756" vol="197" len="12" pan="0" key="1"/>
          <note pos="768" vol="197" len="12" pan="0" key="18"/>
          <note pos="780" vol="197" len="12" pan="0" key="18"/>
          <note pos="792" vol="197" len="12" pan="0" key="18"/>
          <note pos="804" vol="197" len="12" pan="0" key="18"/>
          <note pos="816" vol="197" len="12" pan="0" key="18"/>
          <note pos="828" vol="197" len="12" pan="0" key="18"/>
          <note pos="840" vol="197" len="12" pan="0" key="18"/>
          <note pos="852" vol="197" len="12" pan="0" key="18"/>
          <note pos="864" vol="197" len="12" pan="0" key="18"/>
          <note pos="876" vol="197" len="12" pan="0" key="18"/>
          <note pos="888" vol="197" len="12" pan="0" key="18"/>
          <note pos="900" vol="197" len="12" pan="0" key="18"/>
          <note pos="912" vol="197" len="12" pan="0" key="18"/>
          <note pos="924" vol="197" len="12" pan="0" key="18"/>
          <note pos="936" vol="197" len="12" pan="0" key="18"/>
          <note pos="948" vol="197" len="12" pan="0" key="18"/>
          <note pos="960" vol="197" len="12" pan="0" key="20"/>
          <note pos="972" vol="197" len="12" pan="0" key="20"/>
          <note pos="984" vol="197" len="12" pan="0" key="20"/>
          <note pos="996" vol="197" len="12" pan="0" key="20"/>
          <note pos="1008" vol="197" len="12" pan="0" key="20"/>
          <note pos="1020" vol="197" len="12" pan="0" key="20"/>
          <note pos="1032" vol="197" len="12" pan="0" key="20"/>
          <note pos="1044" vol="197" len="12" pan="0" key="20"/>
          <note pos="1056" vol="197" len="12" pan="0" key="20"/>
          <note pos="1068" vol="197" len="12" pan="0" key="20"/>
          <note pos="1080" vol="197" len="12" pan="0" key="20"/>
          <note pos="1092" vol="197" len="12" pan="0" key="20"/>
          <note pos="1104" vol="197" len="12" pan="0" key="20"/>
          <note pos="1116" vol="197" len="12" pan="0" key="20"/>
          <note pos="1128" vol="197" len="12" pan="0" key="20"/>
          <note pos="1140" vol="197" len="12" pan="0" key="20"/>
          <note pos="1152" vol="197" len="12" pan="0" key="21"/>
          <note pos="1164" vol="197" len="12" pan="0" key="21"/>
          <note pos="1176" vol="197" len="12" pan="0" key="21"/>
          <note pos="1188" vol="197" len="12" pan="0" key="21"/>
          <note pos="1200" vol="197" len="12" pan="0" key="21"/>
          <note pos="1212" vol="197" len="12" pan="0" key="21"/>
          <note pos="1224" vol="197" len="12" pan="0" key="21"/>
          <note pos="1236" vol="197" len="12" pan="0" key="21"/>
          <note pos="1248" vol="197" len="12" pan="0" key="21"/>
          <note pos="1260" vol="197" len="12" pan="0" key="21"/>
          <note pos="1272" vol="197" len="12" pan="0" key="21"/>
          <note pos="1284" vol="197" len="12" pan="0" key="21"/>
          <note pos="1296" vol="197" len="12" pan="0" key="21"/>
          <note pos="1308" vol="197" len="12" pan="0" key="21"/>
          <note pos="1320" vol="197" len="12" pan="0" key="21"/>
          <note pos="1332" vol="197" len="12" pan="0" key="21"/>
          <note pos="1344" vol="197" len="48" pan="0" key="23"/>
          <note pos="1344" vol="197" len="12" pan="0" key="0"/>
          <note pos="1392" vol="197" len="48" pan="0" key="23"/>
          <note pos="1440" vol="197" len="48" pan="0" key="20"/>
          <note pos="1488" vol="197" len="48" pan="0" key="23"/>
        </pattern>
        <pattern name="" steps="16" pos="12672" muted="0" type="1">
          <note pos="0" vol="200" len="36" pan="0" key="13"/>
        </pattern>
        <pattern name="" steps="16" pos="37632" muted="0" type="1">
          <note pos="0" vol="195" len="24" pan="0" key="20"/>
          <note pos="24" vol="195" len="24" pan="0" key="23"/>
          <note pos="48" vol="195" len="24" pan="0" key="20"/>
          <note pos="72" vol="195" len="48" pan="0" key="27"/>
          <note pos="120" vol="195" len="24" pan="0" key="20"/>
          <note pos="144" vol="195" len="24" pan="0" key="23"/>
          <note pos="168" vol="195" len="24" pan="0" key="27"/>
          <note pos="192" vol="195" len="12" pan="0" key="21"/>
          <note pos="204" vol="195" len="12" pan="0" key="21"/>
          <note pos="216" vol="195" len="12" pan="0" key="21"/>
          <note pos="228" vol="195" len="12" pan="0" key="21"/>
          <note pos="240" vol="195" len="12" pan="0" key="21"/>
          <note pos="252" vol="195" len="12" pan="0" key="21"/>
          <note pos="264" vol="195" len="12" pan="0" key="25"/>
          <note pos="276" vol="195" len="12" pan="0" key="25"/>
          <note pos="288" vol="195" len="12" pan="0" key="23"/>
          <note pos="300" vol="195" len="12" pan="0" key="23"/>
          <note pos="312" vol="195" len="12" pan="0" key="23"/>
          <note pos="324" vol="195" len="12" pan="0" key="23"/>
          <note pos="336" vol="195" len="12" pan="0" key="27"/>
          <note pos="348" vol="195" len="12" pan="0" key="27"/>
          <note pos="360" vol="195" len="12" pan="0" key="23"/>
          <note pos="372" vol="195" len="12" pan="0" key="23"/>
        </pattern>
        <pattern name="" steps="16" pos="37440" muted="0" type="1">
          <note pos="0" vol="197" len="24" pan="0" key="18"/>
          <note pos="24" vol="197" len="24" pan="0" key="16"/>
          <note pos="48" vol="197" len="24" pan="0" key="18"/>
          <note pos="72" vol="197" len="24" pan="0" key="25"/>
          <note pos="96" vol="197" len="12" pan="0" key="18"/>
          <note pos="108" vol="197" len="12" pan="0" key="18"/>
          <note pos="120" vol="197" len="12" pan="0" key="18"/>
          <note pos="132" vol="197" len="12" pan="0" key="18"/>
          <note pos="144" vol="197" len="12" pan="0" key="18"/>
          <note pos="156" vol="197" len="12" pan="0" key="18"/>
          <note pos="168" vol="197" len="12" pan="0" key="18"/>
          <note pos="180" vol="197" len="12" pan="0" key="18"/>
        </pattern>
        <pattern name="" steps="16" pos="37248" muted="0" type="1">
          <note pos="0" vol="197" len="24" pan="0" key="25"/>
          <note pos="24" vol="197" len="24" pan="0" key="23"/>
          <note pos="48" vol="197" len="24" pan="0" key="25"/>
          <note pos="72" vol="197" len="24" pan="0" key="32"/>
          <note pos="96" vol="197" len="12" pan="0" key="25"/>
          <note pos="108" vol="197" len="12" pan="0" key="25"/>
          <note pos="120" vol="197" len="12" pan="0" key="25"/>
          <note pos="132" vol="197" len="12" pan="0" key="25"/>
          <note pos="144" vol="197" len="12" pan="0" key="25"/>
          <note pos="156" vol="197" len="12" pan="0" key="25"/>
          <note pos="168" vol="197" len="12" pan="0" key="25"/>
          <note pos="180" vol="197" len="12" pan="0" key="25"/>
        </pattern>
        <pattern name="" steps="16" pos="36480" muted="0" type="1">
          <note pos="0" vol="197" len="24" pan="0" key="25"/>
          <note pos="24" vol="197" len="24" pan="0" key="23"/>
          <note pos="48" vol="197" len="24" pan="0" key="25"/>
          <note pos="72" vol="197" len="24" pan="0" key="32"/>
          <note pos="96" vol="197" len="12" pan="0" key="25"/>
          <note pos="108" vol="197" len="12" pan="0" key="25"/>
          <note pos="120" vol="197" len="12" pan="0" key="25"/>
          <note pos="132" vol="197" len="12" pan="0" key="25"/>
          <note pos="144" vol="197" len="12" pan="0" key="25"/>
          <note pos="156" vol="197" len="12" pan="0" key="25"/>
          <note pos="168" vol="197" len="12" pan="0" key="25"/>
          <note pos="180" vol="197" len="12" pan="0" key="25"/>
        </pattern>
        <pattern name="" steps="16" pos="36672" muted="0" type="1">
          <note pos="0" vol="197" len="24" pan="0" key="18"/>
          <note pos="24" vol="197" len="24" pan="0" key="16"/>
          <note pos="48" vol="197" len="24" pan="0" key="18"/>
          <note pos="72" vol="197" len="24" pan="0" key="25"/>
          <note pos="96" vol="197" len="12" pan="0" key="18"/>
          <note pos="108" vol="197" len="12" pan="0" key="18"/>
          <note pos="120" vol="197" len="12" pan="0" key="18"/>
          <note pos="132" vol="197" len="12" pan="0" key="18"/>
          <note pos="144" vol="197" len="12" pan="0" key="18"/>
          <note pos="156" vol="197" len="12" pan="0" key="18"/>
          <note pos="168" vol="197" len="12" pan="0" key="18"/>
          <note pos="180" vol="197" len="12" pan="0" key="18"/>
        </pattern>
        <pattern name="" steps="16" pos="36864" muted="0" type="1">
          <note pos="0" vol="195" len="24" pan="0" key="20"/>
          <note pos="24" vol="195" len="24" pan="0" key="23"/>
          <note pos="48" vol="195" len="24" pan="0" key="20"/>
          <note pos="72" vol="195" len="48" pan="0" key="27"/>
          <note pos="120" vol="195" len="24" pan="0" key="20"/>
          <note pos="144" vol="195" len="24" pan="0" key="23"/>
          <note pos="168" vol="195" len="24" pan="0" key="27"/>
          <note pos="192" vol="195" len="12" pan="0" key="21"/>
          <note pos="204" vol="195" len="12" pan="0" key="21"/>
          <note pos="216" vol="195" len="12" pan="0" key="21"/>
          <note pos="228" vol="195" len="12" pan="0" key="21"/>
          <note pos="240" vol="195" len="12" pan="0" key="21"/>
          <note pos="252" vol="195" len="12" pan="0" key="21"/>
          <note pos="264" vol="195" len="12" pan="0" key="25"/>
          <note pos="276" vol="195" len="12" pan="0" key="25"/>
          <note pos="288" vol="195" len="12" pan="0" key="23"/>
          <note pos="300" vol="195" len="12" pan="0" key="23"/>
          <note pos="312" vol="195" len="12" pan="0" key="23"/>
          <note pos="324" vol="195" len="12" pan="0" key="23"/>
          <note pos="336" vol="195" len="12" pan="0" key="27"/>
          <note pos="348" vol="195" len="12" pan="0" key="27"/>
          <note pos="360" vol="195" len="12" pan="0" key="23"/>
          <note pos="372" vol="195" len="12" pan="0" key="23"/>
        </pattern>
        <pattern name="" steps="16" pos="38016" muted="0" type="1">
          <note pos="0" vol="200" len="12" pan="0" key="14"/>
          <note pos="12" vol="200" len="12" pan="0" key="14"/>
          <note pos="24" vol="200" len="24" pan="0" key="14"/>
          <note pos="48" vol="200" len="12" pan="0" key="14"/>
          <note pos="60" vol="200" len="12" pan="0" key="14"/>
          <note pos="72" vol="200" len="24" pan="0" key="14"/>
          <note pos="96" vol="200" len="12" pan="0" key="14"/>
          <note pos="108" vol="200" len="12" pan="0" key="14"/>
          <note pos="120" vol="200" len="24" pan="0" key="14"/>
          <note pos="144" vol="200" len="12" pan="0" key="14"/>
          <note pos="156" vol="200" len="12" pan="0" key="14"/>
          <note pos="168" vol="200" len="24" pan="0" key="14"/>
          <note pos="192" vol="200" len="12" pan="0" key="14"/>
          <note pos="204" vol="200" len="12" pan="0" key="14"/>
          <note pos="216" vol="200" len="24" pan="0" key="14"/>
          <note pos="240" vol="200" len="12" pan="0" key="14"/>
          <note pos="252" vol="200" len="12" pan="0" key="14"/>
          <note pos="264" vol="200" len="24" pan="0" key="14"/>
          <note pos="288" vol="200" len="12" pan="0" key="14"/>
          <note pos="300" vol="200" len="12" pan="0" key="14"/>
          <note pos="312" vol="200" len="24" pan="0" key="14"/>
          <note pos="336" vol="200" len="12" pan="0" key="14"/>
          <note pos="348" vol="200" len="12" pan="0" key="14"/>
          <note pos="360" vol="200" len="24" pan="0" key="14"/>
          <note pos="384" vol="200" len="12" pan="0" key="13"/>
          <note pos="396" vol="200" len="12" pan="0" key="13"/>
          <note pos="408" vol="200" len="24" pan="0" key="13"/>
          <note pos="432" vol="200" len="12" pan="0" key="13"/>
          <note pos="444" vol="200" len="12" pan="0" key="13"/>
          <note pos="456" vol="200" len="24" pan="0" key="13"/>
          <note pos="480" vol="200" len="12" pan="0" key="13"/>
          <note pos="492" vol="200" len="12" pan="0" key="13"/>
          <note pos="504" vol="200" len="24" pan="0" key="13"/>
          <note pos="528" vol="200" len="12" pan="0" key="13"/>
          <note pos="540" vol="200" len="12" pan="0" key="13"/>
          <note pos="552" vol="200" len="24" pan="0" key="13"/>
          <note pos="576" vol="200" len="12" pan="0" key="11"/>
          <note pos="588" vol="200" len="12" pan="0" key="11"/>
          <note pos="600" vol="200" len="24" pan="0" key="11"/>
          <note pos="624" vol="200" len="12" pan="0" key="11"/>
          <note pos="636" vol="200" len="12" pan="0" key="11"/>
          <note pos="648" vol="200" len="24" pan="0" key="11"/>
          <note pos="672" vol="200" len="12" pan="0" key="11"/>
          <note pos="684" vol="200" len="12" pan="0" key="11"/>
          <note pos="696" vol="200" len="24" pan="0" key="11"/>
          <note pos="720" vol="200" len="12" pan="0" key="11"/>
          <note pos="732" vol="200" len="12" pan="0" key="11"/>
          <note pos="744" vol="200" len="24" pan="0" key="11"/>
        </pattern>
        <pattern name="" steps="16" pos="39168" muted="0" type="1">
          <note pos="0" vol="197" len="24" pan="0" key="15"/>
          <note pos="24" vol="197" len="12" pan="0" key="15"/>
          <note pos="36" vol="197" len="12" pan="0" key="15"/>
          <note pos="48" vol="197" len="12" pan="0" key="15"/>
          <note pos="60" vol="197" len="12" pan="0" key="15"/>
          <note pos="72" vol="197" len="12" pan="0" key="15"/>
          <note pos="84" vol="197" len="12" pan="0" key="15"/>
          <note pos="96" vol="197" len="12" pan="0" key="15"/>
          <note pos="108" vol="197" len="12" pan="0" key="15"/>
          <note pos="120" vol="197" len="12" pan="0" key="15"/>
          <note pos="132" vol="197" len="12" pan="0" key="15"/>
          <note pos="144" vol="197" len="12" pan="0" key="15"/>
          <note pos="156" vol="197" len="12" pan="0" key="15"/>
          <note pos="168" vol="197" len="12" pan="0" key="15"/>
          <note pos="180" vol="197" len="12" pan="0" key="15"/>
          <note pos="192" vol="197" len="96" pan="0" key="21"/>
          <note pos="288" vol="197" len="96" pan="0" key="20"/>
        </pattern>
        <pattern name="" steps="16" pos="38784" muted="0" type="1">
          <note pos="0" vol="197" len="24" pan="0" key="16"/>
          <note pos="24" vol="197" len="24" pan="0" key="18"/>
          <note pos="48" vol="197" len="12" pan="0" key="18"/>
          <note pos="60" vol="197" len="12" pan="0" key="18"/>
          <note pos="72" vol="197" len="24" pan="0" key="23"/>
          <note pos="96" vol="197" len="24" pan="0" key="25"/>
          <note pos="120" vol="197" len="24" pan="0" key="18"/>
          <note pos="144" vol="197" len="24" pan="0" key="16"/>
          <note pos="168" vol="197" len="24" pan="0" key="18"/>
        </pattern>
        <pattern name="" steps="16" pos="38976" muted="0" type="1">
          <note pos="0" vol="197" len="24" pan="0" key="16"/>
          <note pos="24" vol="197" len="24" pan="0" key="18"/>
          <note pos="48" vol="197" len="12" pan="0" key="18"/>
          <note pos="60" vol="197" len="12" pan="0" key="18"/>
          <note pos="72" vol="197" len="24" pan="0" key="23"/>
          <note pos="96" vol="197" len="24" pan="0" key="25"/>
          <note pos="120" vol="197" len="24" pan="0" key="18"/>
          <note pos="144" vol="197" len="24" pan="0" key="16"/>
          <note pos="168" vol="197" len="24" pan="0" key="18"/>
        </pattern>
        <pattern name="" steps="16" pos="39552" muted="0" type="1">
          <note pos="0" vol="195" len="48" pan="0" key="13"/>
          <note pos="48" vol="195" len="12" pan="0" key="13"/>
          <note pos="60" vol="195" len="12" pan="0" key="13"/>
          <note pos="72" vol="195" len="12" pan="0" key="13"/>
          <note pos="84" vol="195" len="12" pan="0" key="13"/>
          <note pos="96" vol="195" len="12" pan="0" key="13"/>
          <note pos="108" vol="195" len="12" pan="0" key="13"/>
          <note pos="120" vol="195" len="12" pan="0" key="13"/>
          <note pos="132" vol="195" len="12" pan="0" key="13"/>
          <note pos="144" vol="195" len="12" pan="0" key="13"/>
          <note pos="156" vol="195" len="12" pan="0" key="13"/>
          <note pos="168" vol="195" len="12" pan="0" key="13"/>
          <note pos="180" vol="195" len="12" pan="0" key="13"/>
          <note pos="192" vol="195" len="48" pan="0" key="20"/>
          <note pos="240" vol="195" len="12" pan="0" key="20"/>
          <note pos="252" vol="195" len="12" pan="0" key="20"/>
          <note pos="264" vol="195" len="12" pan="0" key="20"/>
          <note pos="276" vol="195" len="12" pan="0" key="20"/>
          <note pos="288" vol="195" len="12" pan="0" key="20"/>
          <note pos="300" vol="195" len="12" pan="0" key="20"/>
          <note pos="312" vol="195" len="12" pan="0" key="20"/>
          <note pos="324" vol="195" len="12" pan="0" key="20"/>
          <note pos="336" vol="195" len="12" pan="0" key="20"/>
          <note pos="348" vol="195" len="12" pan="0" key="20"/>
          <note pos="360" vol="195" len="12" pan="0" key="20"/>
          <note pos="372" vol="195" len="12" pan="0" key="20"/>
          <note pos="384" vol="195" len="48" pan="0" key="21"/>
          <note pos="432" vol="195" len="12" pan="0" key="21"/>
          <note pos="444" vol="195" len="12" pan="0" key="21"/>
          <note pos="456" vol="195" len="12" pan="0" key="21"/>
          <note pos="468" vol="195" len="12" pan="0" key="21"/>
          <note pos="480" vol="195" len="12" pan="0" key="21"/>
          <note pos="492" vol="195" len="12" pan="0" key="21"/>
          <note pos="504" vol="195" len="12" pan="0" key="21"/>
          <note pos="516" vol="195" len="12" pan="0" key="21"/>
          <note pos="528" vol="195" len="12" pan="0" key="21"/>
          <note pos="540" vol="195" len="12" pan="0" key="21"/>
          <note pos="552" vol="195" len="12" pan="0" key="21"/>
          <note pos="564" vol="195" len="12" pan="0" key="21"/>
          <note pos="576" vol="195" len="48" pan="0" key="23"/>
          <note pos="624" vol="195" len="12" pan="0" key="23"/>
          <note pos="636" vol="195" len="12" pan="0" key="23"/>
          <note pos="648" vol="195" len="12" pan="0" key="23"/>
          <note pos="660" vol="195" len="12" pan="0" key="23"/>
          <note pos="672" vol="195" len="12" pan="0" key="23"/>
          <note pos="684" vol="195" len="12" pan="0" key="23"/>
          <note pos="696" vol="195" len="12" pan="0" key="23"/>
          <note pos="708" vol="195" len="12" pan="0" key="23"/>
          <note pos="720" vol="195" len="12" pan="0" key="23"/>
          <note pos="732" vol="195" len="12" pan="0" key="23"/>
          <note pos="744" vol="195" len="12" pan="0" key="23"/>
          <note pos="756" vol="195" len="12" pan="0" key="23"/>
          <note pos="768" vol="195" len="48" pan="0" key="18"/>
          <note pos="816" vol="195" len="12" pan="0" key="18"/>
          <note pos="828" vol="195" len="12" pan="0" key="18"/>
          <note pos="840" vol="195" len="12" pan="0" key="18"/>
          <note pos="852" vol="195" len="12" pan="0" key="18"/>
          <note pos="864" vol="195" len="12" pan="0" key="18"/>
          <note pos="876" vol="195" len="12" pan="0" key="18"/>
          <note pos="888" vol="195" len="12" pan="0" key="18"/>
          <note pos="900" vol="195" len="12" pan="0" key="18"/>
          <note pos="912" vol="195" len="12" pan="0" key="18"/>
          <note pos="924" vol="195" len="12" pan="0" key="18"/>
          <note pos="936" vol="195" len="12" pan="0" key="18"/>
          <note pos="948" vol="195" len="12" pan="0" key="18"/>
          <note pos="960" vol="195" len="48" pan="0" key="20"/>
          <note pos="1008" vol="195" len="12" pan="0" key="20"/>
          <note pos="1020" vol="195" len="12" pan="0" key="20"/>
          <note pos="1032" vol="195" len="12" pan="0" key="20"/>
          <note pos="1044" vol="195" len="12" pan="0" key="20"/>
          <note pos="1056" vol="195" len="12" pan="0" key="20"/>
          <note pos="1068" vol="195" len="12" pan="0" key="20"/>
          <note pos="1080" vol="195" len="12" pan="0" key="20"/>
          <note pos="1092" vol="195" len="12" pan="0" key="20"/>
          <note pos="1104" vol="195" len="12" pan="0" key="20"/>
          <note pos="1116" vol="195" len="12" pan="0" key="20"/>
          <note pos="1128" vol="195" len="12" pan="0" key="20"/>
          <note pos="1140" vol="195" len="12" pan="0" key="20"/>
          <note pos="1152" vol="195" len="48" pan="0" key="21"/>
          <note pos="1200" vol="195" len="12" pan="0" key="21"/>
          <note pos="1212" vol="195" len="12" pan="0" key="21"/>
          <note pos="1224" vol="195" len="12" pan="0" key="21"/>
          <note pos="1236" vol="195" len="12" pan="0" key="21"/>
          <note pos="1248" vol="195" len="12" pan="0" key="21"/>
          <note pos="1260" vol="195" len="12" pan="0" key="21"/>
          <note pos="1272" vol="195" len="12" pan="0" key="21"/>
          <note pos="1284" vol="195" len="12" pan="0" key="21"/>
          <note pos="1296" vol="195" len="12" pan="0" key="21"/>
          <note pos="1308" vol="195" len="12" pan="0" key="21"/>
          <note pos="1320" vol="195" len="12" pan="0" key="21"/>
          <note pos="1332" vol="195" len="12" pan="0" key="21"/>
          <note pos="1344" vol="195" len="48" pan="0" key="23"/>
          <note pos="1392" vol="195" len="12" pan="0" key="23"/>
          <note pos="1404" vol="195" len="12" pan="0" key="23"/>
          <note pos="1416" vol="195" len="12" pan="0" key="23"/>
          <note pos="1428" vol="195" len="12" pan="0" key="23"/>
          <note pos="1440" vol="195" len="48" pan="0" key="24"/>
          <note pos="1488" vol="195" len="12" pan="0" key="24"/>
          <note pos="1500" vol="195" len="12" pan="0" key="24"/>
          <note pos="1512" vol="195" len="12" pan="0" key="24"/>
          <note pos="1524" vol="195" len="12" pan="0" key="24"/>
          <note pos="1536" vol="195" len="48" pan="0" key="13"/>
          <note pos="1584" vol="195" len="12" pan="0" key="13"/>
          <note pos="1596" vol="195" len="12" pan="0" key="13"/>
          <note pos="1608" vol="195" len="12" pan="0" key="13"/>
          <note pos="1620" vol="195" len="12" pan="0" key="13"/>
          <note pos="1632" vol="195" len="12" pan="0" key="13"/>
          <note pos="1644" vol="195" len="12" pan="0" key="13"/>
          <note pos="1656" vol="195" len="12" pan="0" key="13"/>
          <note pos="1668" vol="195" len="12" pan="0" key="13"/>
          <note pos="1680" vol="195" len="12" pan="0" key="13"/>
          <note pos="1692" vol="195" len="12" pan="0" key="13"/>
          <note pos="1704" vol="195" len="12" pan="0" key="13"/>
          <note pos="1716" vol="195" len="12" pan="0" key="13"/>
          <note pos="1728" vol="195" len="48" pan="0" key="23"/>
          <note pos="1776" vol="195" len="12" pan="0" key="23"/>
          <note pos="1788" vol="195" len="12" pan="0" key="23"/>
          <note pos="1800" vol="195" len="12" pan="0" key="23"/>
          <note pos="1812" vol="195" len="12" pan="0" key="23"/>
          <note pos="1824" vol="195" len="12" pan="0" key="23"/>
          <note pos="1836" vol="195" len="12" pan="0" key="23"/>
          <note pos="1848" vol="195" len="12" pan="0" key="23"/>
          <note pos="1860" vol="195" len="12" pan="0" key="23"/>
          <note pos="1872" vol="195" len="12" pan="0" key="23"/>
          <note pos="1884" vol="195" len="12" pan="0" key="23"/>
          <note pos="1896" vol="195" len="12" pan="0" key="23"/>
          <note pos="1908" vol="195" len="12" pan="0" key="23"/>
          <note pos="1920" vol="195" len="48" pan="0" key="22"/>
          <note pos="1968" vol="195" len="12" pan="0" key="22"/>
          <note pos="1980" vol="195" len="12" pan="0" key="22"/>
          <note pos="1992" vol="195" len="12" pan="0" key="22"/>
          <note pos="2004" vol="195" len="12" pan="0" key="22"/>
          <note pos="2016" vol="195" len="12" pan="0" key="22"/>
          <note pos="2028" vol="195" len="12" pan="0" key="22"/>
          <note pos="2040" vol="195" len="12" pan="0" key="22"/>
          <note pos="2052" vol="195" len="12" pan="0" key="22"/>
          <note pos="2064" vol="195" len="12" pan="0" key="22"/>
          <note pos="2076" vol="195" len="12" pan="0" key="22"/>
          <note pos="2088" vol="195" len="12" pan="0" key="22"/>
          <note pos="2100" vol="195" len="12" pan="0" key="22"/>
          <note pos="2112" vol="195" len="48" pan="0" key="18"/>
          <note pos="2160" vol="195" len="12" pan="0" key="18"/>
          <note pos="2172" vol="195" len="12" pan="0" key="18"/>
          <note pos="2184" vol="195" len="12" pan="0" key="18"/>
          <note pos="2196" vol="195" len="12" pan="0" key="18"/>
          <note pos="2208" vol="195" len="48" pan="0" key="16"/>
          <note pos="2256" vol="195" len="12" pan="0" key="16"/>
          <note pos="2268" vol="195" len="12" pan="0" key="16"/>
          <note pos="2280" vol="195" len="12" pan="0" key="16"/>
          <note pos="2292" vol="195" len="12" pan="0" key="16"/>
          <note pos="2304" vol="195" len="48" pan="0" key="14"/>
          <note pos="2352" vol="195" len="12" pan="0" key="14"/>
          <note pos="2364" vol="195" len="12" pan="0" key="14"/>
          <note pos="2376" vol="195" len="12" pan="0" key="14"/>
          <note pos="2388" vol="195" len="12" pan="0" key="14"/>
          <note pos="2400" vol="195" len="48" pan="0" key="14"/>
          <note pos="2448" vol="195" len="12" pan="0" key="14"/>
          <note pos="2460" vol="195" len="12" pan="0" key="14"/>
          <note pos="2472" vol="195" len="12" pan="0" key="14"/>
          <note pos="2484" vol="195" len="12" pan="0" key="14"/>
          <note pos="2496" vol="195" len="48" pan="0" key="21"/>
          <note pos="2544" vol="195" len="12" pan="0" key="21"/>
          <note pos="2556" vol="195" len="12" pan="0" key="21"/>
          <note pos="2568" vol="195" len="12" pan="0" key="21"/>
          <note pos="2580" vol="195" len="12" pan="0" key="21"/>
          <note pos="2592" vol="195" len="12" pan="0" key="21"/>
          <note pos="2604" vol="195" len="12" pan="0" key="21"/>
          <note pos="2616" vol="195" len="12" pan="0" key="21"/>
          <note pos="2628" vol="195" len="12" pan="0" key="21"/>
          <note pos="2640" vol="195" len="12" pan="0" key="21"/>
          <note pos="2652" vol="195" len="12" pan="0" key="21"/>
          <note pos="2664" vol="195" len="12" pan="0" key="21"/>
          <note pos="2676" vol="195" len="12" pan="0" key="21"/>
          <note pos="2688" vol="195" len="384" pan="0" key="11"/>
        </pattern>
        <pattern name="" steps="16" pos="44160" muted="0" type="1">
          <note pos="0" vol="195" len="48" pan="0" key="15"/>
          <note pos="48" vol="195" len="12" pan="0" key="15"/>
          <note pos="60" vol="195" len="12" pan="0" key="15"/>
          <note pos="72" vol="195" len="12" pan="0" key="15"/>
          <note pos="84" vol="195" len="12" pan="0" key="15"/>
          <note pos="96" vol="195" len="12" pan="0" key="15"/>
          <note pos="108" vol="195" len="12" pan="0" key="15"/>
          <note pos="120" vol="195" len="12" pan="0" key="15"/>
          <note pos="132" vol="195" len="12" pan="0" key="15"/>
          <note pos="144" vol="195" len="12" pan="0" key="15"/>
          <note pos="156" vol="195" len="12" pan="0" key="15"/>
          <note pos="168" vol="195" len="12" pan="0" key="15"/>
          <note pos="180" vol="195" len="12" pan="0" key="15"/>
          <note pos="192" vol="195" len="48" pan="0" key="22"/>
          <note pos="240" vol="195" len="12" pan="0" key="22"/>
          <note pos="252" vol="195" len="12" pan="0" key="22"/>
          <note pos="264" vol="195" len="12" pan="0" key="22"/>
          <note pos="276" vol="195" len="12" pan="0" key="22"/>
          <note pos="288" vol="195" len="12" pan="0" key="22"/>
          <note pos="300" vol="195" len="12" pan="0" key="22"/>
          <note pos="312" vol="195" len="12" pan="0" key="22"/>
          <note pos="324" vol="195" len="12" pan="0" key="22"/>
          <note pos="336" vol="195" len="12" pan="0" key="22"/>
          <note pos="348" vol="195" len="12" pan="0" key="22"/>
          <note pos="360" vol="195" len="12" pan="0" key="22"/>
          <note pos="372" vol="195" len="12" pan="0" key="22"/>
          <note pos="384" vol="195" len="48" pan="0" key="23"/>
          <note pos="432" vol="195" len="12" pan="0" key="23"/>
          <note pos="444" vol="195" len="12" pan="0" key="23"/>
          <note pos="456" vol="195" len="12" pan="0" key="23"/>
          <note pos="468" vol="195" len="12" pan="0" key="23"/>
          <note pos="480" vol="195" len="12" pan="0" key="23"/>
          <note pos="492" vol="195" len="12" pan="0" key="23"/>
          <note pos="504" vol="195" len="12" pan="0" key="23"/>
          <note pos="516" vol="195" len="12" pan="0" key="23"/>
          <note pos="528" vol="195" len="12" pan="0" key="23"/>
          <note pos="540" vol="195" len="12" pan="0" key="23"/>
          <note pos="552" vol="195" len="12" pan="0" key="23"/>
          <note pos="564" vol="195" len="12" pan="0" key="23"/>
          <note pos="576" vol="195" len="48" pan="0" key="25"/>
          <note pos="624" vol="195" len="12" pan="0" key="25"/>
          <note pos="636" vol="195" len="12" pan="0" key="25"/>
          <note pos="648" vol="195" len="12" pan="0" key="25"/>
          <note pos="660" vol="195" len="12" pan="0" key="25"/>
          <note pos="672" vol="195" len="12" pan="0" key="25"/>
          <note pos="684" vol="195" len="12" pan="0" key="25"/>
          <note pos="696" vol="195" len="12" pan="0" key="25"/>
          <note pos="708" vol="195" len="12" pan="0" key="25"/>
          <note pos="720" vol="195" len="12" pan="0" key="25"/>
          <note pos="732" vol="195" len="12" pan="0" key="25"/>
          <note pos="744" vol="195" len="12" pan="0" key="25"/>
          <note pos="756" vol="195" len="12" pan="0" key="25"/>
          <note pos="768" vol="195" len="48" pan="0" key="20"/>
          <note pos="816" vol="195" len="12" pan="0" key="20"/>
          <note pos="828" vol="195" len="12" pan="0" key="20"/>
          <note pos="840" vol="195" len="12" pan="0" key="20"/>
          <note pos="852" vol="195" len="12" pan="0" key="20"/>
          <note pos="864" vol="195" len="12" pan="0" key="20"/>
          <note pos="876" vol="195" len="12" pan="0" key="20"/>
          <note pos="888" vol="195" len="12" pan="0" key="20"/>
          <note pos="900" vol="195" len="12" pan="0" key="20"/>
          <note pos="912" vol="195" len="12" pan="0" key="20"/>
          <note pos="924" vol="195" len="12" pan="0" key="20"/>
          <note pos="936" vol="195" len="12" pan="0" key="20"/>
          <note pos="948" vol="195" len="12" pan="0" key="20"/>
          <note pos="960" vol="195" len="48" pan="0" key="22"/>
          <note pos="1008" vol="195" len="12" pan="0" key="22"/>
          <note pos="1020" vol="195" len="12" pan="0" key="22"/>
          <note pos="1032" vol="195" len="12" pan="0" key="22"/>
          <note pos="1044" vol="195" len="12" pan="0" key="22"/>
          <note pos="1056" vol="195" len="12" pan="0" key="22"/>
          <note pos="1068" vol="195" len="12" pan="0" key="22"/>
          <note pos="1080" vol="195" len="12" pan="0" key="22"/>
          <note pos="1092" vol="195" len="12" pan="0" key="22"/>
          <note pos="1104" vol="195" len="12" pan="0" key="22"/>
          <note pos="1116" vol="195" len="12" pan="0" key="22"/>
          <note pos="1128" vol="195" len="12" pan="0" key="22"/>
          <note pos="1140" vol="195" len="12" pan="0" key="22"/>
          <note pos="1152" vol="195" len="48" pan="0" key="23"/>
          <note pos="1200" vol="195" len="12" pan="0" key="23"/>
          <note pos="1212" vol="195" len="12" pan="0" key="23"/>
          <note pos="1224" vol="195" len="12" pan="0" key="23"/>
          <note pos="1236" vol="195" len="12" pan="0" key="23"/>
          <note pos="1248" vol="195" len="12" pan="0" key="23"/>
          <note pos="1260" vol="195" len="12" pan="0" key="23"/>
          <note pos="1272" vol="195" len="12" pan="0" key="23"/>
          <note pos="1284" vol="195" len="12" pan="0" key="23"/>
          <note pos="1296" vol="195" len="12" pan="0" key="23"/>
          <note pos="1308" vol="195" len="12" pan="0" key="23"/>
          <note pos="1320" vol="195" len="12" pan="0" key="23"/>
          <note pos="1332" vol="195" len="12" pan="0" key="23"/>
          <note pos="1344" vol="195" len="48" pan="0" key="25"/>
          <note pos="1392" vol="195" len="12" pan="0" key="25"/>
          <note pos="1404" vol="195" len="12" pan="0" key="25"/>
          <note pos="1416" vol="195" len="12" pan="0" key="25"/>
          <note pos="1428" vol="195" len="12" pan="0" key="25"/>
          <note pos="1440" vol="195" len="12" pan="0" key="26"/>
          <note pos="1452" vol="195" len="12" pan="0" key="23"/>
          <note pos="1464" vol="195" len="12" pan="0" key="22"/>
          <note pos="1476" vol="195" len="12" pan="0" key="20"/>
          <note pos="1488" vol="195" len="12" pan="0" key="23"/>
          <note pos="1500" vol="195" len="12" pan="0" key="22"/>
          <note pos="1512" vol="195" len="12" pan="0" key="20"/>
          <note pos="1524" vol="195" len="12" pan="0" key="18"/>
          <note pos="1536" vol="195" len="48" pan="0" key="15"/>
          <note pos="1584" vol="195" len="12" pan="0" key="15"/>
          <note pos="1596" vol="195" len="12" pan="0" key="15"/>
          <note pos="1608" vol="195" len="12" pan="0" key="15"/>
          <note pos="1620" vol="195" len="12" pan="0" key="15"/>
          <note pos="1632" vol="195" len="12" pan="0" key="15"/>
          <note pos="1644" vol="195" len="12" pan="0" key="15"/>
          <note pos="1656" vol="195" len="12" pan="0" key="15"/>
          <note pos="1668" vol="195" len="12" pan="0" key="15"/>
          <note pos="1680" vol="195" len="12" pan="0" key="15"/>
          <note pos="1692" vol="195" len="12" pan="0" key="15"/>
          <note pos="1704" vol="195" len="12" pan="0" key="15"/>
          <note pos="1716" vol="195" len="12" pan="0" key="15"/>
          <note pos="1728" vol="195" len="48" pan="0" key="25"/>
          <note pos="1776" vol="195" len="12" pan="0" key="25"/>
          <note pos="1788" vol="195" len="12" pan="0" key="25"/>
          <note pos="1800" vol="195" len="12" pan="0" key="25"/>
          <note pos="1812" vol="195" len="12" pan="0" key="25"/>
          <note pos="1824" vol="195" len="12" pan="0" key="25"/>
          <note pos="1836" vol="195" len="12" pan="0" key="25"/>
          <note pos="1848" vol="195" len="12" pan="0" key="25"/>
          <note pos="1860" vol="195" len="12" pan="0" key="25"/>
          <note pos="1872" vol="195" len="12" pan="0" key="25"/>
          <note pos="1884" vol="195" len="12" pan="0" key="25"/>
          <note pos="1896" vol="195" len="12" pan="0" key="25"/>
          <note pos="1908" vol="195" len="12" pan="0" key="25"/>
          <note pos="1920" vol="195" len="48" pan="0" key="24"/>
          <note pos="1968" vol="195" len="12" pan="0" key="24"/>
          <note pos="1980" vol="195" len="12" pan="0" key="24"/>
          <note pos="1992" vol="195" len="12" pan="0" key="24"/>
          <note pos="2004" vol="195" len="12" pan="0" key="24"/>
          <note pos="2016" vol="195" len="12" pan="0" key="24"/>
          <note pos="2028" vol="195" len="12" pan="0" key="24"/>
          <note pos="2040" vol="195" len="12" pan="0" key="24"/>
          <note pos="2052" vol="195" len="12" pan="0" key="24"/>
          <note pos="2064" vol="195" len="12" pan="0" key="24"/>
          <note pos="2076" vol="195" len="12" pan="0" key="24"/>
          <note pos="2088" vol="195" len="12" pan="0" key="24"/>
          <note pos="2100" vol="195" len="12" pan="0" key="24"/>
          <note pos="2112" vol="195" len="48" pan="0" key="20"/>
          <note pos="2160" vol="195" len="12" pan="0" key="20"/>
          <note pos="2172" vol="195" len="12" pan="0" key="20"/>
          <note pos="2184" vol="195" len="12" pan="0" key="20"/>
          <note pos="2196" vol="195" len="12" pan="0" key="20"/>
          <note pos="2208" vol="195" len="48" pan="0" key="18"/>
          <note pos="2256" vol="195" len="12" pan="0" key="18"/>
          <note pos="2268" vol="195" len="12" pan="0" key="18"/>
          <note pos="2280" vol="195" len="12" pan="0" key="18"/>
          <note pos="2292" vol="195" len="12" pan="0" key="18"/>
          <note pos="2304" vol="195" len="48" pan="0" key="16"/>
          <note pos="2352" vol="195" len="12" pan="0" key="16"/>
          <note pos="2364" vol="195" len="12" pan="0" key="16"/>
          <note pos="2376" vol="195" len="12" pan="0" key="16"/>
          <note pos="2388" vol="195" len="12" pan="0" key="16"/>
          <note pos="2400" vol="195" len="48" pan="0" key="16"/>
          <note pos="2448" vol="195" len="12" pan="0" key="16"/>
          <note pos="2460" vol="195" len="12" pan="0" key="16"/>
          <note pos="2472" vol="195" len="12" pan="0" key="16"/>
          <note pos="2484" vol="195" len="12" pan="0" key="16"/>
          <note pos="2496" vol="195" len="48" pan="0" key="23"/>
          <note pos="2544" vol="195" len="12" pan="0" key="23"/>
          <note pos="2556" vol="195" len="12" pan="0" key="23"/>
          <note pos="2568" vol="195" len="12" pan="0" key="23"/>
          <note pos="2580" vol="195" len="12" pan="0" key="23"/>
          <note pos="2592" vol="195" len="12" pan="0" key="23"/>
          <note pos="2604" vol="195" len="12" pan="0" key="23"/>
          <note pos="2616" vol="195" len="12" pan="0" key="23"/>
          <note pos="2628" vol="195" len="12" pan="0" key="23"/>
          <note pos="2640" vol="195" len="12" pan="0" key="23"/>
          <note pos="2652" vol="195" len="12" pan="0" key="23"/>
          <note pos="2664" vol="195" len="12" pan="0" key="23"/>
          <note pos="2676" vol="195" len="12" pan="0" key="23"/>
          <note pos="2688" vol="195" len="48" pan="0" key="25"/>
          <note pos="2736" vol="195" len="12" pan="0" key="25"/>
          <note pos="2748" vol="195" len="12" pan="0" key="25"/>
          <note pos="2760" vol="195" len="12" pan="0" key="25"/>
          <note pos="2772" vol="195" len="12" pan="0" key="25"/>
          <note pos="2784" vol="195" len="12" pan="0" key="25"/>
          <note pos="2796" vol="195" len="12" pan="0" key="25"/>
          <note pos="2808" vol="195" len="12" pan="0" key="25"/>
          <note pos="2820" vol="195" len="12" pan="0" key="25"/>
          <note pos="2832" vol="195" len="12" pan="0" key="25"/>
          <note pos="2844" vol="195" len="12" pan="0" key="25"/>
          <note pos="2856" vol="195" len="12" pan="0" key="25"/>
          <note pos="2868" vol="195" len="12" pan="0" key="25"/>
          <note pos="2880" vol="195" len="12" pan="0" key="25"/>
          <note pos="2892" vol="195" len="12" pan="0" key="23"/>
          <note pos="2904" vol="195" len="12" pan="0" key="22"/>
          <note pos="2916" vol="195" len="12" pan="0" key="20"/>
          <note pos="2928" vol="195" len="12" pan="0" key="23"/>
          <note pos="2940" vol="195" len="12" pan="0" key="22"/>
          <note pos="2952" vol="195" len="12" pan="0" key="20"/>
          <note pos="2964" vol="195" len="12" pan="0" key="18"/>
          <note pos="2976" vol="195" len="12" pan="0" key="22"/>
          <note pos="2988" vol="195" len="12" pan="0" key="20"/>
          <note pos="3000" vol="195" len="12" pan="0" key="18"/>
          <note pos="3012" vol="195" len="12" pan="0" key="17"/>
          <note pos="3024" vol="195" len="12" pan="0" key="20"/>
          <note pos="3036" vol="195" len="12" pan="0" key="18"/>
          <note pos="3048" vol="195" len="12" pan="0" key="17"/>
          <note pos="3060" vol="195" len="12" pan="0" key="18"/>
        </pattern>
        <pattern name="" steps="16" pos="43776" muted="0" type="1">
          <note pos="96" vol="200" len="96" pan="0" key="9"/>
          <note pos="192" vol="200" len="96" pan="0" key="11"/>
          <note pos="288" vol="200" len="96" pan="0" key="13"/>
        </pattern>
        <pattern name="" steps="16" pos="47232" muted="0" type="1">
          <note pos="0" vol="195" len="48" pan="0" key="15"/>
          <note pos="48" vol="195" len="12" pan="0" key="15"/>
          <note pos="60" vol="195" len="12" pan="0" key="15"/>
          <note pos="72" vol="195" len="12" pan="0" key="15"/>
          <note pos="84" vol="195" len="12" pan="0" key="15"/>
          <note pos="96" vol="195" len="12" pan="0" key="15"/>
          <note pos="108" vol="195" len="12" pan="0" key="15"/>
          <note pos="120" vol="195" len="12" pan="0" key="15"/>
          <note pos="132" vol="195" len="12" pan="0" key="15"/>
          <note pos="144" vol="195" len="12" pan="0" key="15"/>
          <note pos="156" vol="195" len="12" pan="0" key="15"/>
          <note pos="168" vol="195" len="12" pan="0" key="15"/>
          <note pos="180" vol="195" len="12" pan="0" key="15"/>
          <note pos="192" vol="195" len="48" pan="0" key="22"/>
          <note pos="240" vol="195" len="12" pan="0" key="22"/>
          <note pos="252" vol="195" len="12" pan="0" key="22"/>
          <note pos="264" vol="195" len="12" pan="0" key="22"/>
          <note pos="276" vol="195" len="12" pan="0" key="22"/>
          <note pos="288" vol="195" len="12" pan="0" key="22"/>
          <note pos="300" vol="195" len="12" pan="0" key="22"/>
          <note pos="312" vol="195" len="12" pan="0" key="22"/>
          <note pos="324" vol="195" len="12" pan="0" key="22"/>
          <note pos="336" vol="195" len="12" pan="0" key="22"/>
          <note pos="348" vol="195" len="12" pan="0" key="22"/>
          <note pos="360" vol="195" len="12" pan="0" key="22"/>
          <note pos="372" vol="195" len="12" pan="0" key="22"/>
          <note pos="384" vol="195" len="48" pan="0" key="23"/>
          <note pos="432" vol="195" len="12" pan="0" key="23"/>
          <note pos="444" vol="195" len="12" pan="0" key="23"/>
          <note pos="456" vol="195" len="12" pan="0" key="23"/>
          <note pos="468" vol="195" len="12" pan="0" key="23"/>
          <note pos="480" vol="195" len="12" pan="0" key="23"/>
          <note pos="492" vol="195" len="12" pan="0" key="23"/>
          <note pos="504" vol="195" len="12" pan="0" key="23"/>
          <note pos="516" vol="195" len="12" pan="0" key="23"/>
          <note pos="528" vol="195" len="12" pan="0" key="23"/>
          <note pos="540" vol="195" len="12" pan="0" key="23"/>
          <note pos="552" vol="195" len="12" pan="0" key="23"/>
          <note pos="564" vol="195" len="12" pan="0" key="23"/>
          <note pos="576" vol="195" len="48" pan="0" key="25"/>
          <note pos="624" vol="195" len="12" pan="0" key="25"/>
          <note pos="636" vol="195" len="12" pan="0" key="25"/>
          <note pos="648" vol="195" len="12" pan="0" key="25"/>
          <note pos="660" vol="195" len="12" pan="0" key="25"/>
          <note pos="672" vol="195" len="12" pan="0" key="25"/>
          <note pos="684" vol="195" len="12" pan="0" key="25"/>
          <note pos="696" vol="195" len="12" pan="0" key="25"/>
          <note pos="708" vol="195" len="12" pan="0" key="25"/>
          <note pos="720" vol="195" len="12" pan="0" key="25"/>
          <note pos="732" vol="195" len="12" pan="0" key="25"/>
          <note pos="744" vol="195" len="12" pan="0" key="25"/>
          <note pos="756" vol="195" len="12" pan="0" key="25"/>
          <note pos="768" vol="195" len="48" pan="0" key="20"/>
          <note pos="816" vol="195" len="12" pan="0" key="20"/>
          <note pos="828" vol="195" len="12" pan="0" key="20"/>
          <note pos="840" vol="195" len="12" pan="0" key="20"/>
          <note pos="852" vol="195" len="12" pan="0" key="20"/>
          <note pos="864" vol="195" len="12" pan="0" key="20"/>
          <note pos="876" vol="195" len="12" pan="0" key="20"/>
          <note pos="888" vol="195" len="12" pan="0" key="20"/>
          <note pos="900" vol="195" len="12" pan="0" key="20"/>
          <note pos="912" vol="195" len="12" pan="0" key="20"/>
          <note pos="924" vol="195" len="12" pan="0" key="20"/>
          <note pos="936" vol="195" len="12" pan="0" key="20"/>
          <note pos="948" vol="195" len="12" pan="0" key="20"/>
          <note pos="960" vol="195" len="48" pan="0" key="22"/>
          <note pos="1008" vol="195" len="12" pan="0" key="22"/>
          <note pos="1020" vol="195" len="12" pan="0" key="22"/>
          <note pos="1032" vol="195" len="12" pan="0" key="22"/>
          <note pos="1044" vol="195" len="12" pan="0" key="22"/>
          <note pos="1056" vol="195" len="12" pan="0" key="22"/>
          <note pos="1068" vol="195" len="12" pan="0" key="22"/>
          <note pos="1080" vol="195" len="12" pan="0" key="22"/>
          <note pos="1092" vol="195" len="12" pan="0" key="22"/>
          <note pos="1104" vol="195" len="12" pan="0" key="22"/>
          <note pos="1116" vol="195" len="12" pan="0" key="22"/>
          <note pos="1128" vol="195" len="12" pan="0" key="22"/>
          <note pos="1140" vol="195" len="12" pan="0" key="22"/>
          <note pos="1152" vol="195" len="48" pan="0" key="23"/>
          <note pos="1200" vol="195" len="12" pan="0" key="23"/>
          <note pos="1212" vol="195" len="12" pan="0" key="23"/>
          <note pos="1224" vol="195" len="12" pan="0" key="23"/>
          <note pos="1236" vol="195" len="12" pan="0" key="23"/>
          <note pos="1248" vol="195" len="12" pan="0" key="23"/>
          <note pos="1260" vol="195" len="12" pan="0" key="23"/>
          <note pos="1272" vol="195" len="12" pan="0" key="23"/>
          <note pos="1284" vol="195" len="12" pan="0" key="23"/>
          <note pos="1296" vol="195" len="12" pan="0" key="23"/>
          <note pos="1308" vol="195" len="12" pan="0" key="23"/>
          <note pos="1320" vol="195" len="12" pan="0" key="23"/>
          <note pos="1332" vol="195" len="12" pan="0" key="23"/>
          <note pos="1344" vol="195" len="48" pan="0" key="25"/>
          <note pos="1392" vol="195" len="12" pan="0" key="25"/>
          <note pos="1404" vol="195" len="12" pan="0" key="25"/>
          <note pos="1416" vol="195" len="12" pan="0" key="25"/>
          <note pos="1428" vol="195" len="12" pan="0" key="25"/>
          <note pos="1440" vol="195" len="48" pan="0" key="26"/>
          <note pos="1488" vol="195" len="12" pan="0" key="26"/>
          <note pos="1500" vol="195" len="12" pan="0" key="26"/>
          <note pos="1512" vol="195" len="12" pan="0" key="26"/>
          <note pos="1524" vol="195" len="12" pan="0" key="26"/>
          <note pos="1536" vol="195" len="48" pan="0" key="15"/>
          <note pos="1584" vol="195" len="12" pan="0" key="15"/>
          <note pos="1596" vol="195" len="12" pan="0" key="15"/>
          <note pos="1608" vol="195" len="12" pan="0" key="15"/>
          <note pos="1620" vol="195" len="12" pan="0" key="15"/>
          <note pos="1632" vol="195" len="12" pan="0" key="15"/>
          <note pos="1644" vol="195" len="12" pan="0" key="15"/>
          <note pos="1656" vol="195" len="12" pan="0" key="15"/>
          <note pos="1668" vol="195" len="12" pan="0" key="15"/>
          <note pos="1680" vol="195" len="12" pan="0" key="15"/>
          <note pos="1692" vol="195" len="12" pan="0" key="15"/>
          <note pos="1704" vol="195" len="12" pan="0" key="15"/>
          <note pos="1716" vol="195" len="12" pan="0" key="15"/>
          <note pos="1728" vol="195" len="48" pan="0" key="25"/>
          <note pos="1776" vol="195" len="12" pan="0" key="25"/>
          <note pos="1788" vol="195" len="12" pan="0" key="25"/>
          <note pos="1800" vol="195" len="12" pan="0" key="25"/>
          <note pos="1812" vol="195" len="12" pan="0" key="25"/>
          <note pos="1824" vol="195" len="12" pan="0" key="25"/>
          <note pos="1836" vol="195" len="12" pan="0" key="25"/>
          <note pos="1848" vol="195" len="12" pan="0" key="25"/>
          <note pos="1860" vol="195" len="12" pan="0" key="25"/>
          <note pos="1872" vol="195" len="12" pan="0" key="25"/>
          <note pos="1884" vol="195" len="12" pan="0" key="25"/>
          <note pos="1896" vol="195" len="12" pan="0" key="25"/>
          <note pos="1908" vol="195" len="12" pan="0" key="25"/>
          <note pos="1920" vol="195" len="48" pan="0" key="24"/>
          <note pos="1968" vol="195" len="12" pan="0" key="24"/>
          <note pos="1980" vol="195" len="12" pan="0" key="24"/>
          <note pos="1992" vol="195" len="12" pan="0" key="24"/>
          <note pos="2004" vol="195" len="12" pan="0" key="24"/>
          <note pos="2016" vol="195" len="12" pan="0" key="24"/>
          <note pos="2028" vol="195" len="12" pan="0" key="24"/>
          <note pos="2040" vol="195" len="12" pan="0" key="24"/>
          <note pos="2052" vol="195" len="12" pan="0" key="24"/>
          <note pos="2064" vol="195" len="12" pan="0" key="24"/>
          <note pos="2076" vol="195" len="12" pan="0" key="24"/>
          <note pos="2088" vol="195" len="12" pan="0" key="24"/>
          <note pos="2100" vol="195" len="12" pan="0" key="24"/>
          <note pos="2112" vol="195" len="48" pan="0" key="20"/>
          <note pos="2160" vol="195" len="12" pan="0" key="20"/>
          <note pos="2172" vol="195" len="12" pan="0" key="20"/>
          <note pos="2184" vol="195" len="12" pan="0" key="20"/>
          <note pos="2196" vol="195" len="12" pan="0" key="20"/>
          <note pos="2208" vol="195" len="48" pan="0" key="18"/>
          <note pos="2256" vol="195" len="12" pan="0" key="18"/>
          <note pos="2268" vol="195" len="12" pan="0" key="18"/>
          <note pos="2280" vol="195" len="12" pan="0" key="18"/>
          <note pos="2292" vol="195" len="12" pan="0" key="18"/>
          <note pos="2304" vol="195" len="48" pan="0" key="16"/>
          <note pos="2352" vol="195" len="12" pan="0" key="16"/>
          <note pos="2364" vol="195" len="12" pan="0" key="16"/>
          <note pos="2376" vol="195" len="12" pan="0" key="16"/>
          <note pos="2388" vol="195" len="12" pan="0" key="16"/>
          <note pos="2400" vol="195" len="48" pan="0" key="16"/>
          <note pos="2448" vol="195" len="12" pan="0" key="16"/>
          <note pos="2460" vol="195" len="12" pan="0" key="16"/>
          <note pos="2472" vol="195" len="12" pan="0" key="16"/>
          <note pos="2484" vol="195" len="12" pan="0" key="16"/>
          <note pos="2496" vol="195" len="48" pan="0" key="23"/>
          <note pos="2544" vol="195" len="12" pan="0" key="23"/>
          <note pos="2556" vol="195" len="12" pan="0" key="23"/>
          <note pos="2568" vol="195" len="12" pan="0" key="23"/>
          <note pos="2580" vol="195" len="12" pan="0" key="23"/>
          <note pos="2592" vol="195" len="12" pan="0" key="23"/>
          <note pos="2604" vol="195" len="12" pan="0" key="23"/>
          <note pos="2616" vol="195" len="12" pan="0" key="23"/>
          <note pos="2628" vol="195" len="12" pan="0" key="23"/>
          <note pos="2640" vol="195" len="12" pan="0" key="23"/>
          <note pos="2652" vol="195" len="12" pan="0" key="23"/>
          <note pos="2664" vol="195" len="12" pan="0" key="23"/>
          <note pos="2676" vol="195" len="12" pan="0" key="23"/>
          <note pos="2688" vol="195" len="48" pan="0" key="25"/>
          <note pos="2736" vol="195" len="12" pan="0" key="25"/>
          <note pos="2748" vol="195" len="12" pan="0" key="25"/>
          <note pos="2760" vol="195" len="12" pan="0" key="25"/>
          <note pos="2772" vol="195" len="12" pan="0" key="25"/>
          <note pos="2784" vol="195" len="12" pan="0" key="25"/>
          <note pos="2796" vol="195" len="12" pan="0" key="25"/>
          <note pos="2808" vol="195" len="12" pan="0" key="25"/>
          <note pos="2820" vol="195" len="12" pan="0" key="25"/>
          <note pos="2832" vol="195" len="12" pan="0" key="25"/>
          <note pos="2844" vol="195" len="12" pan="0" key="25"/>
          <note pos="2856" vol="195" len="12" pan="0" key="25"/>
          <note pos="2868" vol="195" len="12" pan="0" key="25"/>
          <note pos="2880" vol="197" len="96" pan="0" key="25"/>
          <note pos="2976" vol="197" len="96" pan="0" key="22"/>
        </pattern>
        <pattern name="" steps="16" pos="50304" muted="0" type="1">
          <note pos="0" vol="197" len="48" pan="0" key="15"/>
          <note pos="48" vol="197" len="24" pan="0" key="15"/>
          <note pos="72" vol="197" len="24" pan="0" key="15"/>
          <note pos="96" vol="197" len="24" pan="0" key="15"/>
          <note pos="120" vol="197" len="24" pan="0" key="15"/>
          <note pos="144" vol="197" len="24" pan="0" key="15"/>
          <note pos="168" vol="197" len="12" pan="0" key="15"/>
          <note pos="180" vol="197" len="12" pan="0" key="15"/>
          <note pos="192" vol="197" len="24" pan="0" key="15"/>
          <note pos="216" vol="197" len="24" pan="0" key="15"/>
          <note pos="240" vol="197" len="12" pan="0" key="15"/>
          <note pos="252" vol="197" len="12" pan="0" key="15"/>
          <note pos="264" vol="197" len="24" pan="0" key="15"/>
          <note pos="288" vol="197" len="24" pan="0" key="15"/>
          <note pos="312" vol="197" len="24" pan="0" key="15"/>
          <note pos="336" vol="197" len="48" pan="0" key="15"/>
        </pattern>
        <pattern name="" steps="16" pos="50688" muted="0" type="1">
          <note pos="0" vol="197" len="48" pan="0" key="15"/>
          <note pos="48" vol="197" len="24" pan="0" key="15"/>
          <note pos="72" vol="197" len="24" pan="0" key="15"/>
          <note pos="96" vol="197" len="24" pan="0" key="15"/>
          <note pos="120" vol="197" len="24" pan="0" key="15"/>
          <note pos="144" vol="197" len="24" pan="0" key="15"/>
          <note pos="168" vol="197" len="12" pan="0" key="15"/>
          <note pos="180" vol="197" len="12" pan="0" key="15"/>
          <note pos="192" vol="197" len="24" pan="0" key="15"/>
          <note pos="216" vol="197" len="24" pan="0" key="15"/>
          <note pos="240" vol="197" len="12" pan="0" key="15"/>
          <note pos="252" vol="197" len="12" pan="0" key="15"/>
          <note pos="264" vol="197" len="24" pan="0" key="15"/>
          <note pos="288" vol="197" len="24" pan="0" key="15"/>
          <note pos="312" vol="197" len="24" pan="0" key="15"/>
          <note pos="336" vol="197" len="48" pan="0" key="15"/>
        </pattern>
        <pattern name="" steps="16" pos="51072" muted="0" type="1">
          <note pos="0" vol="197" len="48" pan="0" key="15"/>
          <note pos="48" vol="197" len="24" pan="0" key="15"/>
          <note pos="72" vol="197" len="24" pan="0" key="15"/>
          <note pos="96" vol="197" len="24" pan="0" key="15"/>
          <note pos="120" vol="197" len="24" pan="0" key="15"/>
          <note pos="144" vol="197" len="24" pan="0" key="15"/>
          <note pos="168" vol="197" len="12" pan="0" key="15"/>
          <note pos="180" vol="197" len="12" pan="0" key="15"/>
          <note pos="192" vol="197" len="24" pan="0" key="15"/>
          <note pos="216" vol="197" len="24" pan="0" key="15"/>
          <note pos="240" vol="197" len="12" pan="0" key="15"/>
          <note pos="252" vol="197" len="12" pan="0" key="15"/>
          <note pos="264" vol="197" len="24" pan="0" key="15"/>
          <note pos="288" vol="197" len="24" pan="0" key="15"/>
          <note pos="312" vol="197" len="24" pan="0" key="15"/>
          <note pos="336" vol="197" len="48" pan="0" key="15"/>
        </pattern>
        <pattern name="" steps="16" pos="51456" muted="0" type="1">
          <note pos="0" vol="197" len="48" pan="0" key="15"/>
          <note pos="48" vol="197" len="24" pan="0" key="15"/>
          <note pos="72" vol="197" len="24" pan="0" key="15"/>
          <note pos="96" vol="197" len="24" pan="0" key="15"/>
          <note pos="120" vol="197" len="24" pan="0" key="15"/>
          <note pos="144" vol="197" len="24" pan="0" key="15"/>
          <note pos="168" vol="197" len="12" pan="0" key="15"/>
          <note pos="180" vol="197" len="12" pan="0" key="15"/>
          <note pos="192" vol="197" len="24" pan="0" key="15"/>
          <note pos="216" vol="197" len="24" pan="0" key="15"/>
          <note pos="240" vol="197" len="12" pan="0" key="15"/>
          <note pos="252" vol="197" len="12" pan="0" key="15"/>
          <note pos="264" vol="197" len="24" pan="0" key="15"/>
          <note pos="288" vol="197" len="24" pan="0" key="15"/>
          <note pos="312" vol="197" len="24" pan="0" key="15"/>
          <note pos="336" vol="197" len="48" pan="0" key="15"/>
        </pattern>
        <pattern name="" steps="16" pos="51840" muted="0" type="1">
          <note pos="0" vol="197" len="48" pan="0" key="16"/>
          <note pos="48" vol="197" len="24" pan="0" key="16"/>
          <note pos="72" vol="197" len="24" pan="0" key="16"/>
          <note pos="96" vol="197" len="24" pan="0" key="16"/>
          <note pos="120" vol="197" len="24" pan="0" key="16"/>
          <note pos="144" vol="197" len="24" pan="0" key="16"/>
          <note pos="168" vol="197" len="12" pan="0" key="16"/>
          <note pos="180" vol="197" len="12" pan="0" key="16"/>
          <note pos="192" vol="197" len="24" pan="0" key="16"/>
          <note pos="216" vol="197" len="24" pan="0" key="16"/>
          <note pos="240" vol="197" len="12" pan="0" key="16"/>
          <note pos="252" vol="197" len="12" pan="0" key="16"/>
          <note pos="264" vol="197" len="24" pan="0" key="16"/>
          <note pos="288" vol="197" len="24" pan="0" key="16"/>
          <note pos="312" vol="197" len="24" pan="0" key="16"/>
          <note pos="336" vol="197" len="48" pan="0" key="16"/>
        </pattern>
        <pattern name="" steps="16" pos="52224" muted="0" type="1">
          <note pos="0" vol="197" len="48" pan="0" key="15"/>
          <note pos="48" vol="197" len="24" pan="0" key="15"/>
          <note pos="72" vol="197" len="24" pan="0" key="15"/>
          <note pos="96" vol="197" len="24" pan="0" key="15"/>
          <note pos="120" vol="197" len="24" pan="0" key="15"/>
          <note pos="144" vol="197" len="24" pan="0" key="15"/>
          <note pos="168" vol="197" len="12" pan="0" key="15"/>
          <note pos="180" vol="197" len="12" pan="0" key="15"/>
          <note pos="192" vol="197" len="24" pan="0" key="15"/>
          <note pos="216" vol="197" len="24" pan="0" key="15"/>
          <note pos="240" vol="197" len="12" pan="0" key="15"/>
          <note pos="252" vol="197" len="12" pan="0" key="15"/>
          <note pos="264" vol="197" len="24" pan="0" key="15"/>
          <note pos="288" vol="197" len="24" pan="0" key="15"/>
          <note pos="312" vol="197" len="24" pan="0" key="15"/>
          <note pos="336" vol="197" len="48" pan="0" key="15"/>
        </pattern>
        <pattern name="" steps="16" pos="52608" muted="0" type="1">
          <note pos="0" vol="197" len="48" pan="0" key="20"/>
          <note pos="48" vol="197" len="24" pan="0" key="20"/>
          <note pos="72" vol="197" len="24" pan="0" key="20"/>
          <note pos="96" vol="197" len="24" pan="0" key="20"/>
          <note pos="120" vol="197" len="24" pan="0" key="20"/>
          <note pos="144" vol="197" len="24" pan="0" key="20"/>
          <note pos="168" vol="197" len="12" pan="0" key="20"/>
          <note pos="180" vol="197" len="12" pan="0" key="20"/>
          <note pos="192" vol="197" len="24" pan="0" key="20"/>
          <note pos="216" vol="197" len="24" pan="0" key="20"/>
          <note pos="240" vol="197" len="12" pan="0" key="20"/>
          <note pos="252" vol="197" len="12" pan="0" key="20"/>
          <note pos="264" vol="197" len="24" pan="0" key="20"/>
          <note pos="288" vol="197" len="24" pan="0" key="20"/>
          <note pos="312" vol="197" len="24" pan="0" key="20"/>
          <note pos="336" vol="197" len="48" pan="0" key="20"/>
        </pattern>
        <pattern name="" steps="16" pos="53376" muted="0" type="1">
          <note pos="0" vol="195" len="48" pan="0" key="11"/>
          <note pos="48" vol="195" len="12" pan="0" key="11"/>
          <note pos="60" vol="195" len="12" pan="0" key="11"/>
          <note pos="72" vol="195" len="12" pan="0" key="11"/>
          <note pos="84" vol="195" len="12" pan="0" key="11"/>
          <note pos="96" vol="195" len="12" pan="0" key="11"/>
          <note pos="108" vol="195" len="12" pan="0" key="11"/>
          <note pos="120" vol="195" len="12" pan="0" key="11"/>
          <note pos="132" vol="195" len="12" pan="0" key="11"/>
          <note pos="144" vol="195" len="12" pan="0" key="11"/>
          <note pos="156" vol="195" len="12" pan="0" key="11"/>
          <note pos="168" vol="195" len="12" pan="0" key="11"/>
          <note pos="180" vol="195" len="12" pan="0" key="11"/>
          <note pos="192" vol="195" len="48" pan="0" key="13"/>
          <note pos="240" vol="195" len="12" pan="0" key="13"/>
          <note pos="252" vol="195" len="12" pan="0" key="13"/>
          <note pos="264" vol="195" len="12" pan="0" key="13"/>
          <note pos="276" vol="195" len="12" pan="0" key="13"/>
          <note pos="288" vol="195" len="12" pan="0" key="13"/>
          <note pos="300" vol="195" len="12" pan="0" key="13"/>
          <note pos="312" vol="195" len="12" pan="0" key="13"/>
          <note pos="324" vol="195" len="12" pan="0" key="13"/>
          <note pos="336" vol="195" len="12" pan="0" key="13"/>
          <note pos="348" vol="195" len="12" pan="0" key="13"/>
          <note pos="360" vol="195" len="12" pan="0" key="13"/>
          <note pos="372" vol="195" len="12" pan="0" key="13"/>
        </pattern>
        <pattern name="" steps="16" pos="53760" muted="0" type="1">
          <note pos="0" vol="195" len="48" pan="0" key="15"/>
          <note pos="48" vol="195" len="12" pan="0" key="15"/>
          <note pos="60" vol="195" len="12" pan="0" key="15"/>
          <note pos="72" vol="195" len="12" pan="0" key="15"/>
          <note pos="84" vol="195" len="12" pan="0" key="15"/>
          <note pos="96" vol="195" len="12" pan="0" key="15"/>
          <note pos="108" vol="195" len="12" pan="0" key="15"/>
          <note pos="120" vol="195" len="12" pan="0" key="15"/>
          <note pos="132" vol="195" len="12" pan="0" key="15"/>
          <note pos="144" vol="195" len="12" pan="0" key="15"/>
          <note pos="156" vol="195" len="12" pan="0" key="15"/>
          <note pos="168" vol="195" len="12" pan="0" key="15"/>
          <note pos="180" vol="195" len="12" pan="0" key="15"/>
          <note pos="192" vol="195" len="12" pan="0" key="15"/>
          <note pos="204" vol="195" len="12" pan="0" key="15"/>
          <note pos="216" vol="195" len="12" pan="0" key="15"/>
          <note pos="228" vol="195" len="12" pan="0" key="15"/>
          <note pos="240" vol="195" len="12" pan="0" key="15"/>
          <note pos="252" vol="195" len="12" pan="0" key="15"/>
          <note pos="264" vol="195" len="12" pan="0" key="15"/>
          <note pos="276" vol="195" len="12" pan="0" key="15"/>
          <note pos="288" vol="195" len="12" pan="0" key="15"/>
          <note pos="300" vol="195" len="12" pan="0" key="15"/>
          <note pos="312" vol="195" len="12" pan="0" key="15"/>
          <note pos="324" vol="195" len="12" pan="0" key="15"/>
          <note pos="336" vol="195" len="12" pan="0" key="15"/>
          <note pos="348" vol="195" len="12" pan="0" key="15"/>
          <note pos="360" vol="195" len="12" pan="0" key="15"/>
          <note pos="372" vol="195" len="12" pan="0" key="15"/>
        </pattern>
        <pattern name="" steps="16" pos="54144" muted="0" type="1">
          <note pos="0" vol="195" len="48" pan="0" key="13"/>
          <note pos="48" vol="195" len="12" pan="0" key="13"/>
          <note pos="60" vol="195" len="12" pan="0" key="13"/>
          <note pos="72" vol="195" len="12" pan="0" key="13"/>
          <note pos="84" vol="195" len="12" pan="0" key="13"/>
          <note pos="96" vol="195" len="12" pan="0" key="13"/>
          <note pos="108" vol="195" len="12" pan="0" key="13"/>
          <note pos="120" vol="195" len="12" pan="0" key="13"/>
          <note pos="132" vol="195" len="12" pan="0" key="13"/>
          <note pos="144" vol="195" len="12" pan="0" key="13"/>
          <note pos="156" vol="195" len="12" pan="0" key="13"/>
          <note pos="168" vol="195" len="12" pan="0" key="13"/>
          <note pos="180" vol="195" len="12" pan="0" key="13"/>
        </pattern>
        <pattern name="" steps="16" pos="54336" muted="0" type="1">
          <note pos="0" vol="195" len="48" pan="0" key="13"/>
          <note pos="48" vol="195" len="12" pan="0" key="13"/>
          <note pos="60" vol="195" len="12" pan="0" key="13"/>
          <note pos="72" vol="195" len="12" pan="0" key="13"/>
          <note pos="84" vol="195" len="12" pan="0" key="13"/>
          <note pos="96" vol="195" len="12" pan="0" key="13"/>
          <note pos="108" vol="195" len="12" pan="0" key="13"/>
          <note pos="120" vol="195" len="12" pan="0" key="13"/>
          <note pos="132" vol="195" len="12" pan="0" key="13"/>
          <note pos="144" vol="195" len="12" pan="0" key="13"/>
          <note pos="156" vol="195" len="12" pan="0" key="13"/>
          <note pos="168" vol="195" len="12" pan="0" key="13"/>
          <note pos="180" vol="195" len="12" pan="0" key="13"/>
        </pattern>
        <pattern name="" steps="16" pos="54528" muted="0" type="1">
          <note pos="0" vol="195" len="48" pan="0" key="20"/>
          <note pos="48" vol="195" len="12" pan="0" key="20"/>
          <note pos="60" vol="195" len="12" pan="0" key="20"/>
          <note pos="72" vol="195" len="12" pan="0" key="20"/>
          <note pos="84" vol="195" len="12" pan="0" key="20"/>
          <note pos="96" vol="195" len="12" pan="0" key="20"/>
          <note pos="108" vol="195" len="12" pan="0" key="20"/>
          <note pos="120" vol="195" len="12" pan="0" key="20"/>
          <note pos="132" vol="195" len="12" pan="0" key="20"/>
          <note pos="144" vol="195" len="12" pan="0" key="20"/>
          <note pos="156" vol="195" len="12" pan="0" key="20"/>
          <note pos="168" vol="195" len="12" pan="0" key="20"/>
          <note pos="180" vol="195" len="12" pan="0" key="20"/>
          <note pos="192" vol="195" len="12" pan="0" key="20"/>
          <note pos="204" vol="195" len="12" pan="0" key="20"/>
          <note pos="216" vol="195" len="12" pan="0" key="20"/>
          <note pos="228" vol="195" len="12" pan="0" key="20"/>
          <note pos="240" vol="195" len="12" pan="0" key="20"/>
          <note pos="252" vol="195" len="12" pan="0" key="20"/>
          <note pos="264" vol="195" len="12" pan="0" key="20"/>
          <note pos="276" vol="195" len="12" pan="0" key="20"/>
          <note pos="288" vol="195" len="12" pan="0" key="20"/>
          <note pos="300" vol="195" len="12" pan="0" key="20"/>
          <note pos="312" vol="195" len="12" pan="0" key="20"/>
          <note pos="324" vol="195" len="12" pan="0" key="20"/>
          <note pos="336" vol="195" len="12" pan="0" key="20"/>
          <note pos="348" vol="195" len="12" pan="0" key="20"/>
          <note pos="360" vol="195" len="12" pan="0" key="20"/>
          <note pos="372" vol="195" len="12" pan="0" key="20"/>
        </pattern>
        <pattern name="" steps="16" pos="54912" muted="0" type="1">
          <note pos="0" vol="195" len="48" pan="0" key="11"/>
          <note pos="48" vol="195" len="12" pan="0" key="11"/>
          <note pos="60" vol="195" len="12" pan="0" key="11"/>
          <note pos="72" vol="195" len="12" pan="0" key="11"/>
          <note pos="84" vol="195" len="12" pan="0" key="11"/>
          <note pos="96" vol="195" len="12" pan="0" key="11"/>
          <note pos="108" vol="195" len="12" pan="0" key="11"/>
          <note pos="120" vol="195" len="12" pan="0" key="11"/>
          <note pos="132" vol="195" len="12" pan="0" key="11"/>
          <note pos="144" vol="195" len="12" pan="0" key="11"/>
          <note pos="156" vol="195" len="12" pan="0" key="11"/>
          <note pos="168" vol="195" len="12" pan="0" key="11"/>
          <note pos="180" vol="195" len="12" pan="0" key="11"/>
          <note pos="192" vol="195" len="48" pan="0" key="13"/>
          <note pos="240" vol="195" len="12" pan="0" key="13"/>
          <note pos="252" vol="195" len="12" pan="0" key="13"/>
          <note pos="264" vol="195" len="12" pan="0" key="13"/>
          <note pos="276" vol="195" len="12" pan="0" key="13"/>
          <note pos="288" vol="195" len="12" pan="0" key="13"/>
          <note pos="300" vol="195" len="12" pan="0" key="13"/>
          <note pos="312" vol="195" len="12" pan="0" key="13"/>
          <note pos="324" vol="195" len="12" pan="0" key="13"/>
          <note pos="336" vol="195" len="12" pan="0" key="13"/>
          <note pos="348" vol="195" len="12" pan="0" key="13"/>
          <note pos="360" vol="195" len="12" pan="0" key="13"/>
          <note pos="372" vol="195" len="12" pan="0" key="13"/>
        </pattern>
        <pattern name="" steps="16" pos="55296" muted="0" type="1">
          <note pos="0" vol="195" len="48" pan="0" key="15"/>
          <note pos="48" vol="195" len="12" pan="0" key="15"/>
          <note pos="60" vol="195" len="12" pan="0" key="15"/>
          <note pos="72" vol="195" len="12" pan="0" key="15"/>
          <note pos="84" vol="195" len="12" pan="0" key="15"/>
          <note pos="96" vol="195" len="12" pan="0" key="15"/>
          <note pos="108" vol="195" len="12" pan="0" key="15"/>
          <note pos="120" vol="195" len="12" pan="0" key="15"/>
          <note pos="132" vol="195" len="12" pan="0" key="15"/>
          <note pos="144" vol="195" len="12" pan="0" key="15"/>
          <note pos="156" vol="195" len="12" pan="0" key="15"/>
          <note pos="168" vol="195" len="12" pan="0" key="15"/>
          <note pos="180" vol="195" len="12" pan="0" key="15"/>
          <note pos="192" vol="195" len="12" pan="0" key="15"/>
          <note pos="204" vol="195" len="12" pan="0" key="15"/>
          <note pos="216" vol="195" len="12" pan="0" key="15"/>
          <note pos="228" vol="195" len="12" pan="0" key="15"/>
          <note pos="240" vol="195" len="12" pan="0" key="15"/>
          <note pos="252" vol="195" len="12" pan="0" key="15"/>
          <note pos="264" vol="195" len="12" pan="0" key="15"/>
          <note pos="276" vol="195" len="12" pan="0" key="15"/>
          <note pos="288" vol="195" len="12" pan="0" key="15"/>
          <note pos="300" vol="195" len="12" pan="0" key="15"/>
          <note pos="312" vol="195" len="12" pan="0" key="15"/>
          <note pos="324" vol="195" len="12" pan="0" key="15"/>
          <note pos="336" vol="195" len="12" pan="0" key="15"/>
          <note pos="348" vol="195" len="12" pan="0" key="15"/>
          <note pos="360" vol="195" len="12" pan="0" key="15"/>
          <note pos="372" vol="195" len="12" pan="0" key="15"/>
        </pattern>
        <pattern name="" steps="16" pos="55680" muted="0" type="1">
          <note pos="0" vol="195" len="48" pan="0" key="20"/>
          <note pos="48" vol="195" len="12" pan="0" key="20"/>
          <note pos="60" vol="195" len="12" pan="0" key="20"/>
          <note pos="72" vol="195" len="12" pan="0" key="20"/>
          <note pos="84" vol="195" len="12" pan="0" key="20"/>
          <note pos="96" vol="195" len="12" pan="0" key="20"/>
          <note pos="108" vol="195" len="12" pan="0" key="20"/>
          <note pos="120" vol="195" len="12" pan="0" key="20"/>
          <note pos="132" vol="195" len="12" pan="0" key="20"/>
          <note pos="144" vol="195" len="12" pan="0" key="20"/>
          <note pos="156" vol="195" len="12" pan="0" key="20"/>
          <note pos="168" vol="195" len="12" pan="0" key="20"/>
          <note pos="180" vol="195" len="12" pan="0" key="20"/>
          <note pos="192" vol="195" len="12" pan="0" key="20"/>
          <note pos="204" vol="195" len="12" pan="0" key="20"/>
          <note pos="216" vol="195" len="12" pan="0" key="20"/>
          <note pos="228" vol="195" len="12" pan="0" key="20"/>
          <note pos="240" vol="195" len="12" pan="0" key="20"/>
          <note pos="252" vol="195" len="12" pan="0" key="20"/>
          <note pos="264" vol="195" len="12" pan="0" key="20"/>
          <note pos="276" vol="195" len="12" pan="0" key="20"/>
          <note pos="288" vol="195" len="12" pan="0" key="20"/>
          <note pos="300" vol="195" len="12" pan="0" key="20"/>
          <note pos="312" vol="195" len="12" pan="0" key="20"/>
          <note pos="324" vol="195" len="12" pan="0" key="20"/>
          <note pos="336" vol="195" len="12" pan="0" key="20"/>
          <note pos="348" vol="195" len="12" pan="0" key="20"/>
          <note pos="360" vol="195" len="12" pan="0" key="20"/>
          <note pos="372" vol="195" len="12" pan="0" key="20"/>
        </pattern>
        <pattern name="" steps="16" pos="56064" muted="0" type="1">
          <note pos="0" vol="197" len="192" pan="0" key="11"/>
          <note pos="192" vol="197" len="96" pan="0" key="13"/>
          <note pos="288" vol="197" len="96" pan="0" key="13"/>
        </pattern>
        <pattern name="" steps="16" pos="52992" muted="0" type="1">
          <note pos="0" vol="197" len="48" pan="0" key="18"/>
          <note pos="48" vol="197" len="24" pan="0" key="18"/>
          <note pos="72" vol="197" len="24" pan="0" key="18"/>
          <note pos="96" vol="197" len="24" pan="0" key="18"/>
          <note pos="120" vol="197" len="24" pan="0" key="18"/>
          <note pos="144" vol="197" len="24" pan="0" key="18"/>
          <note pos="168" vol="197" len="12" pan="0" key="18"/>
          <note pos="180" vol="197" len="12" pan="0" key="18"/>
          <note pos="192" vol="197" len="24" pan="0" key="18"/>
          <note pos="216" vol="197" len="24" pan="0" key="18"/>
          <note pos="240" vol="197" len="12" pan="0" key="18"/>
          <note pos="252" vol="197" len="12" pan="0" key="18"/>
          <note pos="264" vol="197" len="24" pan="0" key="18"/>
          <note pos="288" vol="197" len="24" pan="0" key="18"/>
          <note pos="312" vol="197" len="24" pan="0" key="18"/>
          <note pos="336" vol="197" len="48" pan="0" key="18"/>
        </pattern>
        <pattern name="" steps="16" pos="56448" muted="0" type="1">
          <note pos="0" vol="200" len="384" pan="0" key="15"/>
          <note pos="384" vol="200" len="384" pan="0" key="13"/>
          <note pos="768" vol="200" len="384" pan="0" key="12"/>
          <note pos="1152" vol="200" len="384" pan="0" key="16"/>
          <note pos="1536" vol="200" len="384" pan="0" key="15"/>
          <note pos="1920" vol="200" len="384" pan="0" key="13"/>
          <note pos="2304" vol="200" len="384" pan="0" key="12"/>
          <note pos="2688" vol="200" len="384" pan="0" key="16"/>
        </pattern>
        <pattern name="" steps="16" pos="59520" muted="0" type="1">
          <note pos="0" vol="200" len="48" pan="0" key="15"/>
          <note pos="48" vol="200" len="12" pan="0" key="15"/>
          <note pos="60" vol="200" len="12" pan="0" key="15"/>
          <note pos="72" vol="200" len="12" pan="0" key="15"/>
          <note pos="84" vol="200" len="12" pan="0" key="15"/>
          <note pos="96" vol="200" len="12" pan="0" key="15"/>
          <note pos="108" vol="200" len="12" pan="0" key="15"/>
          <note pos="120" vol="200" len="12" pan="0" key="15"/>
          <note pos="132" vol="200" len="12" pan="0" key="15"/>
          <note pos="144" vol="200" len="12" pan="0" key="15"/>
          <note pos="156" vol="200" len="12" pan="0" key="15"/>
          <note pos="168" vol="200" len="12" pan="0" key="15"/>
          <note pos="180" vol="200" len="12" pan="0" key="15"/>
          <note pos="192" vol="200" len="12" pan="0" key="15"/>
          <note pos="204" vol="200" len="12" pan="0" key="15"/>
          <note pos="216" vol="200" len="12" pan="0" key="15"/>
          <note pos="228" vol="200" len="12" pan="0" key="15"/>
          <note pos="240" vol="200" len="12" pan="0" key="15"/>
          <note pos="252" vol="200" len="12" pan="0" key="15"/>
          <note pos="264" vol="200" len="12" pan="0" key="15"/>
          <note pos="276" vol="200" len="12" pan="0" key="15"/>
          <note pos="288" vol="200" len="12" pan="0" key="15"/>
          <note pos="300" vol="200" len="12" pan="0" key="15"/>
          <note pos="312" vol="200" len="12" pan="0" key="15"/>
          <note pos="324" vol="200" len="12" pan="0" key="15"/>
          <note pos="336" vol="200" len="12" pan="0" key="15"/>
          <note pos="348" vol="200" len="12" pan="0" key="15"/>
          <note pos="360" vol="200" len="12" pan="0" key="15"/>
          <note pos="372" vol="200" len="12" pan="0" key="15"/>
          <note pos="384" vol="200" len="48" pan="0" key="13"/>
          <note pos="432" vol="200" len="12" pan="0" key="13"/>
          <note pos="444" vol="200" len="12" pan="0" key="13"/>
          <note pos="456" vol="200" len="12" pan="0" key="13"/>
          <note pos="468" vol="200" len="12" pan="0" key="13"/>
          <note pos="480" vol="200" len="12" pan="0" key="13"/>
          <note pos="492" vol="200" len="12" pan="0" key="13"/>
          <note pos="504" vol="200" len="12" pan="0" key="13"/>
          <note pos="516" vol="200" len="12" pan="0" key="13"/>
          <note pos="528" vol="200" len="12" pan="0" key="13"/>
          <note pos="540" vol="200" len="12" pan="0" key="13"/>
          <note pos="552" vol="200" len="12" pan="0" key="13"/>
          <note pos="564" vol="200" len="12" pan="0" key="13"/>
          <note pos="576" vol="200" len="12" pan="0" key="13"/>
          <note pos="588" vol="200" len="12" pan="0" key="13"/>
          <note pos="600" vol="200" len="12" pan="0" key="13"/>
          <note pos="612" vol="200" len="12" pan="0" key="13"/>
          <note pos="624" vol="200" len="12" pan="0" key="13"/>
          <note pos="636" vol="200" len="12" pan="0" key="13"/>
          <note pos="648" vol="200" len="12" pan="0" key="13"/>
          <note pos="660" vol="200" len="12" pan="0" key="13"/>
          <note pos="672" vol="200" len="12" pan="0" key="13"/>
          <note pos="684" vol="200" len="12" pan="0" key="13"/>
          <note pos="696" vol="200" len="12" pan="0" key="13"/>
          <note pos="708" vol="200" len="12" pan="0" key="13"/>
          <note pos="720" vol="200" len="12" pan="0" key="13"/>
          <note pos="732" vol="200" len="12" pan="0" key="13"/>
          <note pos="744" vol="200" len="12" pan="0" key="13"/>
          <note pos="756" vol="200" len="12" pan="0" key="13"/>
          <note pos="768" vol="200" len="48" pan="0" key="12"/>
          <note pos="816" vol="200" len="12" pan="0" key="12"/>
          <note pos="828" vol="200" len="12" pan="0" key="12"/>
          <note pos="840" vol="200" len="12" pan="0" key="12"/>
          <note pos="852" vol="200" len="12" pan="0" key="12"/>
          <note pos="864" vol="200" len="12" pan="0" key="12"/>
          <note pos="876" vol="200" len="12" pan="0" key="12"/>
          <note pos="888" vol="200" len="12" pan="0" key="12"/>
          <note pos="900" vol="200" len="12" pan="0" key="12"/>
          <note pos="912" vol="200" len="12" pan="0" key="12"/>
          <note pos="924" vol="200" len="12" pan="0" key="12"/>
          <note pos="936" vol="200" len="12" pan="0" key="12"/>
          <note pos="948" vol="200" len="12" pan="0" key="12"/>
          <note pos="960" vol="200" len="12" pan="0" key="12"/>
          <note pos="972" vol="200" len="12" pan="0" key="12"/>
          <note pos="984" vol="200" len="12" pan="0" key="12"/>
          <note pos="996" vol="200" len="12" pan="0" key="12"/>
          <note pos="1008" vol="200" len="12" pan="0" key="12"/>
          <note pos="1020" vol="200" len="12" pan="0" key="12"/>
          <note pos="1032" vol="200" len="12" pan="0" key="12"/>
          <note pos="1044" vol="200" len="12" pan="0" key="12"/>
          <note pos="1056" vol="200" len="12" pan="0" key="12"/>
          <note pos="1068" vol="200" len="12" pan="0" key="12"/>
          <note pos="1080" vol="200" len="12" pan="0" key="12"/>
          <note pos="1092" vol="200" len="12" pan="0" key="12"/>
          <note pos="1104" vol="200" len="12" pan="0" key="12"/>
          <note pos="1116" vol="200" len="12" pan="0" key="12"/>
          <note pos="1128" vol="200" len="12" pan="0" key="12"/>
          <note pos="1140" vol="200" len="12" pan="0" key="12"/>
          <note pos="1152" vol="200" len="48" pan="0" key="16"/>
          <note pos="1200" vol="200" len="12" pan="0" key="16"/>
          <note pos="1212" vol="200" len="12" pan="0" key="16"/>
          <note pos="1224" vol="200" len="12" pan="0" key="16"/>
          <note pos="1236" vol="200" len="12" pan="0" key="16"/>
          <note pos="1248" vol="200" len="12" pan="0" key="16"/>
          <note pos="1260" vol="200" len="12" pan="0" key="16"/>
          <note pos="1272" vol="200" len="12" pan="0" key="16"/>
          <note pos="1284" vol="200" len="12" pan="0" key="16"/>
          <note pos="1296" vol="200" len="12" pan="0" key="16"/>
          <note pos="1308" vol="200" len="12" pan="0" key="16"/>
          <note pos="1320" vol="200" len="12" pan="0" key="16"/>
          <note pos="1332" vol="200" len="12" pan="0" key="16"/>
          <note pos="1344" vol="200" len="12" pan="0" key="16"/>
          <note pos="1356" vol="200" len="12" pan="0" key="16"/>
          <note pos="1368" vol="200" len="12" pan="0" key="16"/>
          <note pos="1380" vol="200" len="12" pan="0" key="16"/>
          <note pos="1392" vol="200" len="12" pan="0" key="16"/>
          <note pos="1404" vol="200" len="12" pan="0" key="16"/>
          <note pos="1416" vol="200" len="12" pan="0" key="16"/>
          <note pos="1428" vol="200" len="12" pan="0" key="16"/>
          <note pos="1440" vol="200" len="12" pan="0" key="16"/>
          <note pos="1452" vol="200" len="12" pan="0" key="16"/>
          <note pos="1464" vol="200" len="12" pan="0" key="16"/>
          <note pos="1476" vol="200" len="12" pan="0" key="16"/>
          <note pos="1488" vol="200" len="12" pan="0" key="16"/>
          <note pos="1500" vol="200" len="12" pan="0" key="16"/>
          <note pos="1512" vol="200" len="12" pan="0" key="16"/>
          <note pos="1524" vol="200" len="12" pan="0" key="16"/>
        </pattern>
        <pattern name="" steps="16" pos="61056" muted="0" type="1">
          <note pos="0" vol="200" len="48" pan="0" key="15"/>
          <note pos="48" vol="200" len="12" pan="0" key="15"/>
          <note pos="60" vol="200" len="12" pan="0" key="15"/>
          <note pos="72" vol="200" len="12" pan="0" key="15"/>
          <note pos="84" vol="200" len="12" pan="0" key="15"/>
          <note pos="96" vol="200" len="12" pan="0" key="15"/>
          <note pos="108" vol="200" len="12" pan="0" key="15"/>
          <note pos="120" vol="200" len="12" pan="0" key="15"/>
          <note pos="132" vol="200" len="12" pan="0" key="15"/>
          <note pos="144" vol="200" len="12" pan="0" key="15"/>
          <note pos="156" vol="200" len="12" pan="0" key="15"/>
          <note pos="168" vol="200" len="12" pan="0" key="15"/>
          <note pos="180" vol="200" len="12" pan="0" key="15"/>
          <note pos="192" vol="200" len="12" pan="0" key="15"/>
          <note pos="204" vol="200" len="12" pan="0" key="15"/>
          <note pos="216" vol="200" len="12" pan="0" key="15"/>
          <note pos="228" vol="200" len="12" pan="0" key="15"/>
          <note pos="240" vol="200" len="12" pan="0" key="15"/>
          <note pos="252" vol="200" len="12" pan="0" key="15"/>
          <note pos="264" vol="200" len="12" pan="0" key="15"/>
          <note pos="276" vol="200" len="12" pan="0" key="15"/>
          <note pos="288" vol="200" len="12" pan="0" key="15"/>
          <note pos="300" vol="200" len="12" pan="0" key="15"/>
          <note pos="312" vol="200" len="12" pan="0" key="15"/>
          <note pos="324" vol="200" len="12" pan="0" key="15"/>
          <note pos="336" vol="200" len="12" pan="0" key="15"/>
          <note pos="348" vol="200" len="12" pan="0" key="15"/>
          <note pos="360" vol="200" len="12" pan="0" key="15"/>
          <note pos="372" vol="200" len="12" pan="0" key="15"/>
          <note pos="384" vol="200" len="48" pan="0" key="13"/>
          <note pos="432" vol="200" len="12" pan="0" key="13"/>
          <note pos="444" vol="200" len="12" pan="0" key="13"/>
          <note pos="456" vol="200" len="12" pan="0" key="13"/>
          <note pos="468" vol="200" len="12" pan="0" key="13"/>
          <note pos="480" vol="200" len="12" pan="0" key="13"/>
          <note pos="492" vol="200" len="12" pan="0" key="13"/>
          <note pos="504" vol="200" len="12" pan="0" key="13"/>
          <note pos="516" vol="200" len="12" pan="0" key="13"/>
          <note pos="528" vol="200" len="12" pan="0" key="13"/>
          <note pos="540" vol="200" len="12" pan="0" key="13"/>
          <note pos="552" vol="200" len="12" pan="0" key="13"/>
          <note pos="564" vol="200" len="12" pan="0" key="13"/>
          <note pos="576" vol="200" len="12" pan="0" key="13"/>
          <note pos="588" vol="200" len="12" pan="0" key="13"/>
          <note pos="600" vol="200" len="12" pan="0" key="13"/>
          <note pos="612" vol="200" len="12" pan="0" key="13"/>
          <note pos="624" vol="200" len="12" pan="0" key="13"/>
          <note pos="636" vol="200" len="12" pan="0" key="13"/>
          <note pos="648" vol="200" len="12" pan="0" key="13"/>
          <note pos="660" vol="200" len="12" pan="0" key="13"/>
          <note pos="672" vol="200" len="12" pan="0" key="13"/>
          <note pos="684" vol="200" len="12" pan="0" key="13"/>
          <note pos="696" vol="200" len="12" pan="0" key="13"/>
          <note pos="708" vol="200" len="12" pan="0" key="13"/>
          <note pos="720" vol="200" len="12" pan="0" key="13"/>
          <note pos="732" vol="200" len="12" pan="0" key="13"/>
          <note pos="744" vol="200" len="12" pan="0" key="13"/>
          <note pos="756" vol="200" len="12" pan="0" key="13"/>
          <note pos="768" vol="200" len="48" pan="0" key="12"/>
          <note pos="816" vol="200" len="12" pan="0" key="12"/>
          <note pos="828" vol="200" len="12" pan="0" key="12"/>
          <note pos="840" vol="200" len="12" pan="0" key="12"/>
          <note pos="852" vol="200" len="12" pan="0" key="12"/>
          <note pos="864" vol="200" len="12" pan="0" key="12"/>
          <note pos="876" vol="200" len="12" pan="0" key="12"/>
          <note pos="888" vol="200" len="12" pan="0" key="12"/>
          <note pos="900" vol="200" len="12" pan="0" key="12"/>
          <note pos="912" vol="200" len="12" pan="0" key="12"/>
          <note pos="924" vol="200" len="12" pan="0" key="12"/>
          <note pos="936" vol="200" len="12" pan="0" key="12"/>
          <note pos="948" vol="200" len="12" pan="0" key="12"/>
          <note pos="960" vol="200" len="12" pan="0" key="12"/>
          <note pos="972" vol="200" len="12" pan="0" key="12"/>
          <note pos="984" vol="200" len="12" pan="0" key="12"/>
          <note pos="996" vol="200" len="12" pan="0" key="12"/>
          <note pos="1008" vol="200" len="12" pan="0" key="12"/>
          <note pos="1020" vol="200" len="12" pan="0" key="12"/>
          <note pos="1032" vol="200" len="12" pan="0" key="12"/>
          <note pos="1044" vol="200" len="12" pan="0" key="12"/>
          <note pos="1056" vol="200" len="12" pan="0" key="12"/>
          <note pos="1068" vol="200" len="12" pan="0" key="12"/>
          <note pos="1080" vol="200" len="12" pan="0" key="12"/>
          <note pos="1092" vol="200" len="12" pan="0" key="12"/>
          <note pos="1104" vol="200" len="12" pan="0" key="12"/>
          <note pos="1116" vol="200" len="12" pan="0" key="12"/>
          <note pos="1128" vol="200" len="12" pan="0" key="12"/>
          <note pos="1140" vol="200" len="12" pan="0" key="12"/>
          <note pos="1152" vol="200" len="48" pan="0" key="16"/>
          <note pos="1200" vol="200" len="12" pan="0" key="16"/>
          <note pos="1212" vol="200" len="12" pan="0" key="16"/>
          <note pos="1224" vol="200" len="12" pan="0" key="16"/>
          <note pos="1236" vol="200" len="12" pan="0" key="16"/>
          <note pos="1248" vol="200" len="12" pan="0" key="16"/>
          <note pos="1260" vol="200" len="12" pan="0" key="16"/>
          <note pos="1272" vol="200" len="12" pan="0" key="16"/>
          <note pos="1284" vol="200" len="12" pan="0" key="16"/>
          <note pos="1296" vol="200" len="12" pan="0" key="16"/>
          <note pos="1308" vol="200" len="12" pan="0" key="16"/>
          <note pos="1320" vol="200" len="12" pan="0" key="16"/>
          <note pos="1332" vol="200" len="12" pan="0" key="16"/>
          <note pos="1344" vol="200" len="12" pan="0" key="16"/>
          <note pos="1356" vol="200" len="12" pan="0" key="16"/>
          <note pos="1368" vol="200" len="12" pan="0" key="16"/>
          <note pos="1380" vol="200" len="12" pan="0" key="16"/>
          <note pos="1392" vol="200" len="12" pan="0" key="16"/>
          <note pos="1404" vol="200" len="12" pan="0" key="16"/>
          <note pos="1416" vol="200" len="12" pan="0" key="16"/>
          <note pos="1428" vol="200" len="12" pan="0" key="16"/>
          <note pos="1440" vol="200" len="12" pan="0" key="16"/>
          <note pos="1452" vol="200" len="12" pan="0" key="16"/>
          <note pos="1464" vol="200" len="12" pan="0" key="16"/>
          <note pos="1476" vol="200" len="12" pan="0" key="16"/>
          <note pos="1488" vol="200" len="12" pan="0" key="16"/>
          <note pos="1500" vol="200" len="12" pan="0" key="16"/>
          <note pos="1512" vol="200" len="12" pan="0" key="16"/>
          <note pos="1524" vol="200" len="12" pan="0" key="16"/>
        </pattern>
        <pattern name="" steps="16" pos="62592" muted="0" type="1">
          <note pos="0" vol="197" len="192" pan="0" key="15"/>
          <note pos="192" vol="197" len="192" pan="0" key="22"/>
          <note pos="384" vol="197" len="192" pan="0" key="23"/>
          <note pos="576" vol="197" len="192" pan="0" key="25"/>
          <note pos="768" vol="197" len="12" pan="0" key="20"/>
          <note pos="780" vol="197" len="12" pan="0" key="20"/>
          <note pos="792" vol="197" len="12" pan="0" key="20"/>
          <note pos="804" vol="197" len="12" pan="0" key="20"/>
          <note pos="816" vol="197" len="12" pan="0" key="20"/>
          <note pos="828" vol="197" len="12" pan="0" key="20"/>
          <note pos="840" vol="197" len="12" pan="0" key="20"/>
          <note pos="852" vol="197" len="12" pan="0" key="20"/>
          <note pos="864" vol="197" len="12" pan="0" key="20"/>
          <note pos="876" vol="197" len="12" pan="0" key="20"/>
          <note pos="888" vol="197" len="12" pan="0" key="20"/>
          <note pos="900" vol="197" len="12" pan="0" key="20"/>
          <note pos="912" vol="197" len="12" pan="0" key="20"/>
          <note pos="924" vol="197" len="12" pan="0" key="20"/>
          <note pos="936" vol="197" len="12" pan="0" key="20"/>
          <note pos="948" vol="197" len="12" pan="0" key="20"/>
          <note pos="960" vol="197" len="12" pan="0" key="22"/>
          <note pos="972" vol="197" len="12" pan="0" key="22"/>
          <note pos="984" vol="197" len="12" pan="0" key="22"/>
          <note pos="996" vol="197" len="12" pan="0" key="22"/>
          <note pos="1008" vol="197" len="12" pan="0" key="22"/>
          <note pos="1020" vol="197" len="12" pan="0" key="22"/>
          <note pos="1032" vol="197" len="12" pan="0" key="22"/>
          <note pos="1044" vol="197" len="12" pan="0" key="22"/>
          <note pos="1056" vol="197" len="12" pan="0" key="22"/>
          <note pos="1068" vol="197" len="12" pan="0" key="22"/>
          <note pos="1080" vol="197" len="12" pan="0" key="22"/>
          <note pos="1092" vol="197" len="12" pan="0" key="22"/>
          <note pos="1104" vol="197" len="12" pan="0" key="22"/>
          <note pos="1116" vol="197" len="12" pan="0" key="22"/>
          <note pos="1128" vol="197" len="12" pan="0" key="22"/>
          <note pos="1140" vol="197" len="12" pan="0" key="22"/>
        </pattern>
        <pattern name="" steps="16" pos="63744" muted="0" type="1">
          <note pos="0" vol="197" len="12" pan="0" key="18"/>
          <note pos="12" vol="197" len="12" pan="0" key="15"/>
          <note pos="24" vol="197" len="12" pan="0" key="17"/>
          <note pos="36" vol="197" len="12" pan="0" key="18"/>
          <note pos="48" vol="197" len="12" pan="0" key="20"/>
          <note pos="60" vol="197" len="12" pan="0" key="17"/>
          <note pos="72" vol="197" len="12" pan="0" key="18"/>
          <note pos="84" vol="197" len="12" pan="0" key="20"/>
          <note pos="96" vol="197" len="12" pan="0" key="22"/>
          <note pos="108" vol="197" len="12" pan="0" key="18"/>
          <note pos="120" vol="197" len="12" pan="0" key="20"/>
          <note pos="132" vol="197" len="12" pan="0" key="22"/>
          <note pos="144" vol="197" len="12" pan="0" key="23"/>
          <note pos="156" vol="197" len="12" pan="0" key="20"/>
          <note pos="168" vol="197" len="12" pan="0" key="22"/>
          <note pos="180" vol="197" len="12" pan="0" key="23"/>
          <note pos="192" vol="197" len="12" pan="0" key="25"/>
          <note pos="204" vol="197" len="12" pan="0" key="23"/>
          <note pos="216" vol="197" len="12" pan="0" key="22"/>
          <note pos="228" vol="197" len="12" pan="0" key="20"/>
          <note pos="240" vol="197" len="12" pan="0" key="18"/>
          <note pos="252" vol="197" len="12" pan="0" key="20"/>
          <note pos="264" vol="197" len="12" pan="0" key="23"/>
          <note pos="276" vol="197" len="12" pan="0" key="22"/>
          <note pos="288" vol="197" len="12" pan="0" key="20"/>
          <note pos="300" vol="197" len="12" pan="0" key="18"/>
          <note pos="312" vol="197" len="12" pan="0" key="17"/>
          <note pos="324" vol="197" len="12" pan="0" key="18"/>
          <note pos="336" vol="197" len="12" pan="0" key="22"/>
          <note pos="348" vol="197" len="12" pan="0" key="20"/>
          <note pos="360" vol="197" len="12" pan="0" key="18"/>
          <note pos="372" vol="197" len="12" pan="0" key="17"/>
          <note pos="384" vol="197" len="12" pan="0" key="15"/>
          <note pos="396" vol="197" len="12" pan="0" key="17"/>
          <note pos="408" vol="200" len="12" pan="0" key="20"/>
          <note pos="420" vol="200" len="12" pan="0" key="18"/>
          <note pos="432" vol="200" len="12" pan="0" key="17"/>
          <note pos="444" vol="200" len="12" pan="0" key="15"/>
          <note pos="456" vol="200" len="12" pan="0" key="13"/>
          <note pos="468" vol="200" len="12" pan="0" key="15"/>
          <note pos="480" vol="200" len="12" pan="0" key="18"/>
          <note pos="492" vol="200" len="12" pan="0" key="17"/>
          <note pos="504" vol="200" len="12" pan="0" key="15"/>
          <note pos="516" vol="200" len="12" pan="0" key="13"/>
          <note pos="528" vol="200" len="12" pan="0" key="17"/>
          <note pos="540" vol="200" len="12" pan="0" key="15"/>
          <note pos="552" vol="200" len="12" pan="0" key="13"/>
          <note pos="564" vol="200" len="12" pan="0" key="15"/>
        </pattern>
      </track>
      <track name="stratobodomarcticaneryus" solo="0" muted="0" type="0">
        <instrumenttrack basenote="57" fxch="16" usemasterpitch="1" vol="200" pan="0" pitchrange="2">
          <pitch scale_type="linear" id="6553159" value="0"/>
          <instrument name="tripleoscillator">
            <tripleoscillator coarse2="-24" finer2="0" modalgo3="2" finer0="0" vol0="200" modalgo1="4" coarse0="0" userwavefile2="" coarse1="0" wavetype0="0" stphdetun2="0" userwavefile0="" stphdetun1="0" finer1="0" userwavefile1="" pan2="0" phoffset2="0" phoffset1="0" modalgo2="2" finel0="0" finel1="0" wavetype1="0" pan0="0" vol1="19" vol2="0" finel2="0" phoffset0="0" stphdetun0="0" wavetype2="0" pan1="0"/>
          </instrument>
          <eldata fwet="0" fcut="1456" ftype="17" fres="0.89">
            <elvol x100="0" userwavefile="" dec="0.5" amt="0" pdel="0" hold="0.5" lamt="0" lpdel="0" lshp="0" lspd_denominator="4" att="0" ctlenvamt="0" lspd="0.1" lspd_syncmode="0" rel="0" latt="0" lspd_numerator="4" sustain="0.5"/>
            <elcut x100="1" userwavefile="" dec="0.5" amt="0" pdel="0" hold="0.5" lamt="0" lpdel="0" lshp="2" lspd_denominator="4" att="0" ctlenvamt="0" lspd="0.037" lspd_syncmode="0" rel="0" latt="0" lspd_numerator="4" sustain="0.5"/>
            <elres x100="0" userwavefile="" dec="0.5" amt="0" pdel="0" hold="0.5" lamt="0" lpdel="0" lshp="1" lspd_denominator="4" att="0" ctlenvamt="0" lspd="0.152" lspd_syncmode="0" rel="0.1" latt="0" lspd_numerator="4" sustain="0.5"/>
          </eldata>
          <chordcreator chord-enabled="0" chord="0" chordrange="1"/>
          <arpeggiator arprange="1" arpmode="0" arp="0" arptime_numerator="4" arpmiss="0" arptime_denominator="4" arpcycle="0" arpskip="0" arptime_syncmode="0" arpgate="100" arptime="200" arpdir="0" arp-enabled="0"/>
          <midiport fixedoutputnote="-1" outputprogram="1" inputcontroller="0" writable="0" fixedoutputvelocity="-1" readable="0" outputchannel="1" basevelocity="63" outputcontroller="0" fixedinputvelocity="-1" inputchannel="0"/>
          <fxchain numofeffects="7" enabled="1">
            <effect autoquit_numerator="4" name="ladspaeffect" autoquit_denominator="4" autoquit="1" wet="1" autoquit_syncmode="0" gate="0" on="0">
              <ladspacontrols ports="7">
                <port00 data="3.4875"/>
                <port01 data="180"/>
                <port02 data="100"/>
                <port03 data="17"/>
                <port04 data="20000"/>
                <port05 data="0.55"/>
                <port06 data="-0.6875"/>
              </ladspacontrols>
              <key>
                <attribute name="file" value="tap_chorusflanger"/>
                <attribute name="plugin" value="tap_chorusflanger"/>
              </key>
            </effect>
            <effect autoquit_numerator="4" name="eq" autoquit_denominator="4" autoquit="1" wet="1" autoquit_syncmode="0" gate="0" on="1">
              <Eq Peak3active="0" AnalyseIn="1" Peak3gain="0" Peak3bw="0.3" HP12="0" HighShelfgain="0" LPres="0.707" Lowshelfactive="0" Peak4active="0" HP24="1" Peak4bw="0.3" Peak1active="0" Peak2active="0" HPres="0.707" LP24="0" LP48="0" Peak2bw="0.3" HPactive="1" LowShelfres="1.4" Highshelfactive="0" Lowshelfgain="0" Peak4gain="0" Outputgain="0.8" LP12="1" Peak1bw="0.3" LPactive="1" AnalyseOut="1" HP48="0" Peak2gain="0" HighShelfres="1.4" LP="0" HP="1">
                <Inputgain scale_type="log" id="6442382" value="0"/>
                <Peak1gain scale_type="log" id="988924" value="0"/>
                <HPfreq scale_type="log" id="6872021" value="260.717"/>
                <LowShelffreq scale_type="log" id="7479213" value="80"/>
                <Peak1freq scale_type="log" id="7350563" value="120"/>
                <Peak2freq scale_type="log" id="5255217" value="250"/>
                <Peak3freq scale_type="log" id="1127550" value="2000"/>
                <Peak4freq scale_type="log" id="1277792" value="4000"/>
                <Highshelffreq scale_type="log" id="6719949" value="12000"/>
                <LPfreq scale_type="log" id="1826032" value="1667.01"/>
              </Eq>
              <key/>
            </effect>
            <effect autoquit_numerator="4" name="waveshaper" autoquit_denominator="4" autoquit="1" wet="1" autoquit_syncmode="0" gate="0" on="0">
              <waveshapercontrols outputGain="1" clipInput="1" waveShape="AACAPwAAgD8AAIA/AACAPwAAgD8AAIA/AACAPwAAgD8AAIA/AACAPwAAgD8AAIA/AACAPwAAgD8AAIA/AACAPwAAgD8AAIA/AACAPwAAgD8AAIA/AACAPwAAgD8AAIA/AACAPwAAgD8AAIA/AACAPwAAgD8AAIA/AACAPwAAgD8AAIA/AACAPwAAgD8AAIA/AACAPwAAgD8AAIA/AACAPwAAgD8AAIA/AACAPwAAgD8AAIA/AACAPwAAgD8AAIA/AACAPwAAgD8AAIA/AACAPwAAgD8AAIA/AACAPwAAgD8AAIA/AACAPwAAgD8AAIA/AACAPwAAgD8AAIA/AACAPwAAgD8AAIA/AACAPwAAgD8AAIA/AACAPwAAgD8AAIA/AACAPwAAgD8AAIA/AACAPwAAgD8AAIA/AACAPwAAgD8AAIA/AACAPwAAgD8AAIA/AACAPwAAgD8AAIA/AACAPwAAgD8AAIA/AACAPwAAgD8AAIA/AACAPwAAgD8AAIA/AACAPwAAgD8AAIA/AACAPwAAgD8AAIA/AACAPwAAgD8AAIA/AACAPwAAgD8AAIA/AACAPwAAgD8AAIA/AACAPwAAgD8AAIA/AACAPwAAgD8AAIA/AACAPwAAgD8AAIA/AACAPwAAgD8AAIA/AACAPwAAgD8AAIA/AACAPwAAgD8AAIA/AACAPwAAgD8AAIA/AACAPwAAgD8AAIA/AACAPwAAgD8AAIA/AACAPwAAgD8AAIA/AACAPwAAgD8AAIA/AACAPwAAgD8AAIA/AACAPwAAgD8AAIA/AACAPwAAgD8AAIA/AACAPwAAgD8AAIA/AACAPwAAgD8AAIA/AACAPwAAgD8AAIA/AACAPwAAgD8AAIA/AACAPwAAgD8AAIA/AACAPwAAgD8AAIA/AACAPwAAgD8AAIA/AACAPwAAgD8AAIA/AACAPwAAgD8AAIA/AACAPwAAgD8AAIA/AACAPwAAgD8AAIA/AACAPwAAgD8AAIA/AACAPwAAgD8AAIA/AACAPwAAgD8AAIA/AACAPwAAgD8AAIA/AACAPwAAgD8=" inputGain="5"/>
              <key/>
            </effect>
            <effect autoquit_numerator="4" name="ladspaeffect" autoquit_denominator="4" autoquit="1" wet="1" autoquit_syncmode="0" gate="0" on="1">
              <ladspacontrols link="1" ports="14">
                <port01 link="1" data="10"/>
                <port02 link="1" data="1"/>
                <port03 link="1" data="20"/>
                <port04 link="1" data="20"/>
                <port05 link="1" data="20"/>
                <port06 link="1" data="20"/>
                <port07 link="1" data="1"/>
                <port11 data="10"/>
                <port12 data="1"/>
                <port13 data="20"/>
                <port14 data="20"/>
                <port15 data="20"/>
                <port16 data="20"/>
                <port17 data="1"/>
              </ladspacontrols>
              <key>
                <attribute name="file" value="caps"/>
                <attribute name="plugin" value="AmpIV"/>
              </key>
            </effect>
            <effect autoquit_numerator="4" name="ladspaeffect" autoquit_denominator="4" autoquit="1" wet="1" autoquit_syncmode="0" gate="0" on="0">
              <ladspacontrols link="1" ports="4">
                <port01 link="1" data="1"/>
                <port02 link="1" data="-11.4"/>
                <port11 data="1"/>
                <port12 data="-11.4"/>
              </ladspacontrols>
              <key>
                <attribute name="file" value="caps"/>
                <attribute name="plugin" value="CabinetI"/>
              </key>
            </effect>
            <effect autoquit_numerator="4" name="ladspaeffect" autoquit_denominator="4" autoquit="1" wet="1" autoquit_syncmode="0" gate="0" on="1">
              <ladspacontrols link="1" ports="4">
                <port00 link="1">
                  <data scale_type="log" id="8382794" value="6549.87"/>
                </port00>
                <port01 link="1" data="9"/>
                <port10>
                  <data scale_type="log" id="4111084" value="6549.87"/>
                </port10>
                <port11 data="9"/>
              </ladspacontrols>
              <key>
                <attribute name="file" value="lowpass_iir_1891"/>
                <attribute name="plugin" value="lowpass_iir"/>
              </key>
            </effect>
            <effect autoquit_numerator="4" name="ladspaeffect" autoquit_denominator="4" autoquit="1" wet="1" autoquit_syncmode="0" gate="0" on="1">
              <ladspacontrols ports="4">
                <port02 data="0.502"/>
                <port03 data="0.3745"/>
                <port04 data="0.218641"/>
                <port05 data="0.2075"/>
              </ladspacontrols>
              <key>
                <attribute name="file" value="caps"/>
                <attribute name="plugin" value="Plate2x2"/>
              </key>
            </effect>
          </fxchain>
        </instrumenttrack>
        <pattern name="stratobodomarcticaneryus" steps="16" pos="47040" muted="0" type="1">
          <note pos="0" vol="195" len="12" pan="0" key="73"/>
          <note pos="12" vol="195" len="12" pan="0" key="71"/>
          <note pos="24" vol="195" len="12" pan="0" key="70"/>
          <note pos="36" vol="195" len="12" pan="0" key="68"/>
          <note pos="48" vol="195" len="12" pan="0" key="71"/>
          <note pos="60" vol="195" len="12" pan="0" key="70"/>
          <note pos="72" vol="195" len="12" pan="0" key="68"/>
          <note pos="84" vol="195" len="12" pan="0" key="66"/>
          <note pos="96" vol="195" len="12" pan="0" key="70"/>
          <note pos="108" vol="195" len="12" pan="0" key="68"/>
          <note pos="120" vol="195" len="12" pan="0" key="66"/>
          <note pos="132" vol="195" len="12" pan="0" key="65"/>
          <note pos="144" vol="195" len="12" pan="0" key="68"/>
          <note pos="156" vol="195" len="12" pan="0" key="66"/>
          <note pos="168" vol="195" len="12" pan="0" key="65"/>
          <note pos="180" vol="195" len="12" pan="0" key="66"/>
        </pattern>
        <pattern name="stratobodomarcticaneryus" steps="16" pos="47232" muted="0" type="1">
          <note pos="0" vol="193" len="120" pan="0" key="63"/>
          <note pos="120" vol="193" len="24" pan="0" key="58"/>
          <note pos="144" vol="193" len="24" pan="0" key="66"/>
          <note pos="168" vol="193" len="24" pan="0" key="58"/>
          <note pos="192" vol="193" len="120" pan="0" key="65"/>
          <note pos="312" vol="193" len="12" pan="0" key="65"/>
          <note pos="324" vol="193" len="12" pan="0" key="66"/>
          <note pos="336" vol="193" len="12" pan="0" key="70"/>
          <note pos="348" vol="193" len="12" pan="0" key="66"/>
          <note pos="360" vol="193" len="12" pan="0" key="65"/>
          <note pos="372" vol="193" len="12" pan="0" key="66"/>
          <note pos="384" vol="193" len="144" pan="0" key="70"/>
          <note pos="528" vol="193" len="24" pan="0" key="68"/>
          <note pos="552" vol="193" len="24" pan="0" key="66"/>
          <note pos="576" vol="193" len="48" pan="0" key="65"/>
          <note pos="624" vol="197" len="48" pan="0" key="66"/>
          <note pos="672" vol="193" len="12" pan="0" key="61"/>
          <note pos="684" vol="193" len="12" pan="0" key="61"/>
          <note pos="696" vol="193" len="12" pan="0" key="61"/>
          <note pos="708" vol="193" len="12" pan="0" key="61"/>
          <note pos="720" vol="193" len="12" pan="0" key="58"/>
          <note pos="732" vol="193" len="12" pan="0" key="54"/>
          <note pos="744" vol="193" len="12" pan="0" key="56"/>
          <note pos="756" vol="193" len="12" pan="0" key="58"/>
          <note pos="768" vol="193" len="96" pan="0" key="59"/>
          <note pos="864" vol="193" len="48" pan="0" key="63"/>
          <note pos="912" vol="193" len="48" pan="0" key="66"/>
          <note pos="960" vol="193" len="96" pan="0" key="66"/>
          <note pos="1056" vol="193" len="12" pan="0" key="65"/>
          <note pos="1068" vol="193" len="12" pan="0" key="58"/>
          <note pos="1080" vol="193" len="12" pan="0" key="58"/>
          <note pos="1092" vol="193" len="12" pan="0" key="58"/>
          <note pos="1104" vol="193" len="12" pan="0" key="66"/>
          <note pos="1116" vol="193" len="12" pan="0" key="63"/>
          <note pos="1128" vol="193" len="12" pan="0" key="65"/>
          <note pos="1140" vol="193" len="12" pan="0" key="66"/>
          <note pos="1152" vol="193" len="48" pan="0" key="73"/>
          <note pos="1200" vol="193" len="12" pan="0" key="71"/>
          <note pos="1212" vol="193" len="12" pan="0" key="73"/>
          <note pos="1224" vol="193" len="48" pan="0" key="71"/>
          <note pos="1272" vol="193" len="12" pan="0" key="70"/>
          <note pos="1284" vol="193" len="12" pan="0" key="71"/>
          <note pos="1296" vol="193" len="12" pan="0" key="70"/>
          <note pos="1308" vol="193" len="12" pan="0" key="68"/>
          <note pos="1320" vol="193" len="12" pan="0" key="66"/>
          <note pos="1332" vol="193" len="12" pan="0" key="70"/>
          <note pos="1344" vol="193" len="72" pan="0" key="68"/>
          <note pos="1416" vol="193" len="12" pan="0" key="66"/>
          <note pos="1428" vol="193" len="12" pan="0" key="68"/>
          <note pos="1440" vol="193" len="12" pan="0" key="70"/>
          <note pos="1452" vol="193" len="12" pan="0" key="71"/>
          <note pos="1464" vol="193" len="12" pan="0" key="70"/>
          <note pos="1476" vol="193" len="12" pan="0" key="68"/>
          <note pos="1488" vol="193" len="12" pan="0" key="70"/>
          <note pos="1500" vol="193" len="12" pan="0" key="68"/>
          <note pos="1512" vol="193" len="12" pan="0" key="66"/>
          <note pos="1524" vol="193" len="12" pan="0" key="65"/>
          <note pos="1536" vol="193" len="48" pan="0" key="66"/>
          <note pos="1584" vol="193" len="12" pan="0" key="58"/>
          <note pos="1596" vol="193" len="12" pan="0" key="58"/>
          <note pos="1608" vol="193" len="48" pan="0" key="65"/>
          <note pos="1656" vol="193" len="12" pan="0" key="58"/>
          <note pos="1668" vol="193" len="12" pan="0" key="58"/>
          <note pos="1680" vol="193" len="24" pan="0" key="66"/>
          <note pos="1704" vol="193" len="12" pan="0" key="58"/>
          <note pos="1716" vol="193" len="12" pan="0" key="58"/>
          <note pos="1728" vol="193" len="144" pan="0" key="70"/>
          <note pos="1872" vol="193" len="48" pan="0" key="65"/>
          <note pos="1920" vol="193" len="12" pan="0" key="63"/>
          <note pos="1932" vol="193" len="12" pan="0" key="65"/>
          <note pos="1944" vol="193" len="216" pan="0" key="63"/>
          <note pos="2160" vol="193" len="48" pan="0" key="66"/>
          <note pos="2208" vol="193" len="24" pan="0" key="68"/>
          <note pos="2232" vol="193" len="12" pan="0" key="66"/>
          <note pos="2244" vol="193" len="12" pan="0" key="68"/>
          <note pos="2256" vol="193" len="24" pan="0" key="70"/>
          <note pos="2280" vol="193" len="12" pan="0" key="68"/>
          <note pos="2292" vol="193" len="12" pan="0" key="70"/>
          <note pos="2304" vol="193" len="72" pan="0" key="71"/>
          <note pos="2376" vol="193" len="72" pan="0" key="70"/>
          <note pos="2448" vol="193" len="48" pan="0" key="68"/>
          <note pos="2496" vol="193" len="12" pan="0" key="66"/>
          <note pos="2508" vol="193" len="12" pan="0" key="65"/>
          <note pos="2520" vol="193" len="12" pan="0" key="63"/>
          <note pos="2532" vol="193" len="12" pan="0" key="58"/>
          <note pos="2544" vol="193" len="12" pan="0" key="63"/>
          <note pos="2556" vol="193" len="12" pan="0" key="61"/>
          <note pos="2568" vol="193" len="12" pan="0" key="59"/>
          <note pos="2580" vol="193" len="12" pan="0" key="58"/>
          <note pos="2592" vol="193" len="12" pan="0" key="66"/>
          <note pos="2604" vol="193" len="12" pan="0" key="65"/>
          <note pos="2616" vol="193" len="12" pan="0" key="63"/>
          <note pos="2628" vol="193" len="12" pan="0" key="58"/>
          <note pos="2640" vol="193" len="48" pan="0" key="75"/>
          <note pos="2688" vol="193" len="192" pan="0" key="73"/>
        </pattern>
        <pattern name="stratobodomarcticaneryus" steps="16" pos="56256" muted="0" type="0"/>
        <pattern name="stratobodomarcticaneryus" steps="16" pos="59520" muted="0" type="1">
          <note pos="0" vol="197" len="48" pan="0" key="58"/>
          <note pos="48" vol="197" len="48" pan="0" key="54"/>
          <note pos="96" vol="197" len="48" pan="0" key="58"/>
          <note pos="144" vol="197" len="48" pan="0" key="61"/>
          <note pos="192" vol="197" len="48" pan="0" key="63"/>
          <note pos="240" vol="197" len="48" pan="0" key="65"/>
          <note pos="288" vol="197" len="48" pan="0" key="66"/>
          <note pos="336" vol="197" len="48" pan="0" key="70"/>
          <note pos="384" vol="197" len="144" pan="0" key="68"/>
          <note pos="528" vol="197" len="12" pan="0" key="65"/>
          <note pos="540" vol="197" len="36" pan="0" key="66"/>
          <note pos="576" vol="197" len="96" pan="0" key="65"/>
          <note pos="672" vol="197" len="48" pan="0" key="61"/>
          <note pos="720" vol="197" len="48" pan="0" key="65"/>
          <note pos="768" vol="197" len="24" pan="0" key="63"/>
          <note pos="792" vol="197" len="24" pan="0" key="65"/>
          <note pos="816" vol="197" len="24" pan="0" key="63"/>
          <note pos="840" vol="197" len="24" pan="0" key="60"/>
          <note pos="864" vol="197" len="24" pan="0" key="56"/>
          <note pos="888" vol="197" len="24" pan="0" key="48"/>
          <note pos="912" vol="197" len="24" pan="0" key="55"/>
          <note pos="936" vol="197" len="24" pan="0" key="53"/>
          <note pos="960" vol="197" len="96" pan="0" key="55"/>
          <note pos="1056" vol="197" len="96" pan="0" key="58"/>
          <note pos="1152" vol="197" len="192" pan="0" key="59"/>
          <note pos="1344" vol="197" len="96" pan="0" key="63"/>
          <note pos="1440" vol="197" len="96" pan="0" key="63"/>
          <note pos="1536" vol="197" len="192" pan="0" key="66"/>
          <note pos="1728" vol="197" len="16" pan="0" key="58"/>
          <note pos="1744" vol="197" len="16" pan="0" key="61"/>
          <note pos="1760" vol="197" len="16" pan="0" key="58"/>
          <note pos="1776" vol="197" len="16" pan="0" key="63"/>
          <note pos="1792" vol="197" len="16" pan="0" key="65"/>
          <note pos="1808" vol="197" len="16" pan="0" key="66"/>
          <note pos="1824" vol="197" len="16" pan="0" key="70"/>
          <note pos="1840" vol="197" len="16" pan="0" key="66"/>
          <note pos="1856" vol="197" len="16" pan="0" key="65"/>
          <note pos="1872" vol="197" len="16" pan="0" key="63"/>
          <note pos="1888" vol="197" len="16" pan="0" key="61"/>
          <note pos="1904" vol="197" len="16" pan="0" key="58"/>
          <note pos="1920" vol="197" len="48" pan="0" key="61"/>
          <note pos="1968" vol="197" len="48" pan="0" key="63"/>
          <note pos="2016" vol="197" len="48" pan="0" key="65"/>
          <note pos="2064" vol="197" len="48" pan="0" key="70"/>
          <note pos="2112" vol="197" len="96" pan="0" key="56"/>
          <note pos="2208" vol="197" len="12" pan="0" key="59"/>
          <note pos="2220" vol="197" len="84" pan="0" key="61"/>
          <note pos="2304" vol="197" len="96" pan="0" key="60"/>
          <note pos="2400" vol="197" len="96" pan="0" key="61"/>
          <note pos="2496" vol="197" len="96" pan="0" key="54"/>
          <note pos="2592" vol="197" len="96" pan="0" key="59"/>
          <note pos="2688" vol="197" len="96" pan="0" key="65"/>
          <note pos="2784" vol="197" len="96" pan="0" key="66"/>
          <note pos="2880" vol="197" len="96" pan="0" key="70"/>
        </pattern>
        <pattern name="stratobodomarcticaneryus" steps="16" pos="41088" muted="0" type="1">
          <note pos="0" vol="78" len="12" pan="0" key="68"/>
          <note pos="12" vol="78" len="12" pan="0" key="64"/>
          <note pos="24" vol="78" len="12" pan="0" key="63"/>
          <note pos="36" vol="78" len="12" pan="0" key="64"/>
          <note pos="48" vol="78" len="12" pan="0" key="61"/>
          <note pos="60" vol="78" len="12" pan="0" key="64"/>
          <note pos="72" vol="78" len="12" pan="0" key="63"/>
          <note pos="84" vol="78" len="12" pan="0" key="64"/>
          <note pos="96" vol="78" len="12" pan="0" key="68"/>
          <note pos="108" vol="78" len="12" pan="0" key="64"/>
          <note pos="120" vol="78" len="12" pan="0" key="63"/>
          <note pos="132" vol="78" len="12" pan="0" key="64"/>
          <note pos="144" vol="78" len="12" pan="0" key="61"/>
          <note pos="156" vol="78" len="12" pan="0" key="64"/>
          <note pos="168" vol="78" len="12" pan="0" key="63"/>
          <note pos="180" vol="78" len="12" pan="0" key="64"/>
          <note pos="192" vol="78" len="12" pan="0" key="68"/>
          <note pos="204" vol="78" len="12" pan="0" key="63"/>
          <note pos="216" vol="78" len="12" pan="0" key="61"/>
          <note pos="228" vol="78" len="12" pan="0" key="63"/>
          <note pos="240" vol="78" len="12" pan="0" key="59"/>
          <note pos="252" vol="78" len="12" pan="0" key="63"/>
          <note pos="264" vol="78" len="12" pan="0" key="61"/>
          <note pos="276" vol="78" len="12" pan="0" key="63"/>
          <note pos="288" vol="78" len="12" pan="0" key="68"/>
          <note pos="300" vol="78" len="12" pan="0" key="63"/>
          <note pos="312" vol="78" len="12" pan="0" key="61"/>
          <note pos="324" vol="78" len="12" pan="0" key="63"/>
          <note pos="336" vol="78" len="12" pan="0" key="59"/>
          <note pos="348" vol="78" len="12" pan="0" key="63"/>
          <note pos="360" vol="78" len="12" pan="0" key="61"/>
          <note pos="372" vol="78" len="12" pan="0" key="63"/>
        </pattern>
        <pattern name="stratobodomarcticaneryus" steps="16" pos="41856" muted="0" type="1">
          <note pos="0" vol="78" len="24" pan="0" key="66"/>
          <note pos="24" vol="78" len="24" pan="0" key="61"/>
          <note pos="48" vol="78" len="24" pan="0" key="57"/>
          <note pos="72" vol="78" len="24" pan="0" key="62"/>
          <note pos="96" vol="78" len="24" pan="0" key="64"/>
          <note pos="120" vol="78" len="24" pan="0" key="66"/>
          <note pos="144" vol="78" len="24" pan="0" key="64"/>
          <note pos="168" vol="78" len="24" pan="0" key="62"/>
          <note pos="192" vol="78" len="12" pan="0" key="64"/>
          <note pos="204" vol="78" len="12" pan="0" key="63"/>
          <note pos="216" vol="78" len="12" pan="0" key="61"/>
          <note pos="228" vol="78" len="12" pan="0" key="59"/>
          <note pos="240" vol="78" len="12" pan="0" key="57"/>
          <note pos="252" vol="78" len="12" pan="0" key="59"/>
          <note pos="264" vol="78" len="12" pan="0" key="61"/>
          <note pos="276" vol="78" len="12" pan="0" key="59"/>
          <note pos="288" vol="78" len="12" pan="0" key="57"/>
          <note pos="300" vol="78" len="12" pan="0" key="56"/>
          <note pos="312" vol="78" len="12" pan="0" key="57"/>
          <note pos="324" vol="78" len="12" pan="0" key="59"/>
          <note pos="336" vol="78" len="12" pan="0" key="64"/>
          <note pos="348" vol="78" len="12" pan="0" key="63"/>
          <note pos="360" vol="78" len="12" pan="0" key="61"/>
          <note pos="372" vol="78" len="12" pan="0" key="63"/>
          <note pos="384" vol="78" len="384" pan="0" key="66"/>
        </pattern>
        <pattern name="stratobodomarcticaneryus" steps="16" pos="41472" muted="0" type="1">
          <note pos="0" vol="78" len="12" pan="0" key="70"/>
          <note pos="12" vol="78" len="12" pan="0" key="66"/>
          <note pos="24" vol="78" len="12" pan="0" key="61"/>
          <note pos="36" vol="78" len="12" pan="0" key="66"/>
          <note pos="48" vol="78" len="12" pan="0" key="58"/>
          <note pos="60" vol="78" len="12" pan="0" key="66"/>
          <note pos="72" vol="78" len="12" pan="0" key="61"/>
          <note pos="84" vol="78" len="12" pan="0" key="66"/>
          <note pos="96" vol="78" len="12" pan="0" key="70"/>
          <note pos="108" vol="78" len="12" pan="0" key="66"/>
          <note pos="120" vol="78" len="12" pan="0" key="61"/>
          <note pos="132" vol="78" len="12" pan="0" key="66"/>
          <note pos="144" vol="78" len="12" pan="0" key="58"/>
          <note pos="156" vol="78" len="12" pan="0" key="66"/>
          <note pos="168" vol="78" len="12" pan="0" key="61"/>
          <note pos="180" vol="78" len="12" pan="0" key="66"/>
        </pattern>
        <pattern name="stratobodomarcticaneryus" steps="16" pos="41664" muted="0" type="1">
          <note pos="0" vol="78" len="12" pan="0" key="70"/>
          <note pos="12" vol="78" len="12" pan="0" key="66"/>
          <note pos="24" vol="78" len="12" pan="0" key="61"/>
          <note pos="36" vol="78" len="12" pan="0" key="58"/>
          <note pos="48" vol="78" len="12" pan="0" key="61"/>
          <note pos="60" vol="78" len="12" pan="0" key="58"/>
          <note pos="72" vol="78" len="12" pan="0" key="54"/>
          <note pos="84" vol="78" len="12" pan="0" key="58"/>
          <note pos="96" vol="78" len="12" pan="0" key="66"/>
          <note pos="108" vol="78" len="12" pan="0" key="61"/>
          <note pos="120" vol="78" len="12" pan="0" key="58"/>
          <note pos="132" vol="78" len="12" pan="0" key="61"/>
          <note pos="144" vol="78" len="12" pan="0" key="66"/>
          <note pos="156" vol="78" len="12" pan="0" key="70"/>
          <note pos="168" vol="78" len="12" pan="0" key="73"/>
          <note pos="180" vol="78" len="12" pan="0" key="70"/>
        </pattern>
        <pattern name="" steps="16" pos="56448" muted="0" type="1">
          <note pos="0" vol="100" len="12" pan="0" key="54"/>
          <note pos="12" vol="100" len="12" pan="0" key="58"/>
          <note pos="24" vol="100" len="12" pan="0" key="63"/>
          <note pos="36" vol="100" len="12" pan="0" key="66"/>
          <note pos="48" vol="100" len="12" pan="0" key="70"/>
          <note pos="60" vol="100" len="12" pan="0" key="75"/>
          <note pos="72" vol="100" len="12" pan="0" key="78"/>
          <note pos="84" vol="100" len="12" pan="0" key="82"/>
          <note pos="96" vol="100" len="12" pan="0" key="87"/>
          <note pos="108" vol="100" len="12" pan="0" key="82"/>
          <note pos="120" vol="100" len="12" pan="0" key="78"/>
          <note pos="132" vol="100" len="12" pan="0" key="75"/>
          <note pos="144" vol="100" len="12" pan="0" key="70"/>
          <note pos="156" vol="100" len="12" pan="0" key="66"/>
          <note pos="168" vol="100" len="12" pan="0" key="63"/>
          <note pos="180" vol="100" len="12" pan="0" key="58"/>
        </pattern>
        <pattern name="" steps="16" pos="56640" muted="0" type="1">
          <note pos="0" vol="100" len="12" pan="0" key="54"/>
          <note pos="12" vol="100" len="12" pan="0" key="58"/>
          <note pos="24" vol="100" len="12" pan="0" key="63"/>
          <note pos="36" vol="100" len="12" pan="0" key="66"/>
          <note pos="48" vol="100" len="12" pan="0" key="70"/>
          <note pos="60" vol="100" len="12" pan="0" key="75"/>
          <note pos="72" vol="100" len="12" pan="0" key="78"/>
          <note pos="84" vol="100" len="12" pan="0" key="82"/>
          <note pos="96" vol="100" len="12" pan="0" key="87"/>
          <note pos="108" vol="100" len="12" pan="0" key="82"/>
          <note pos="120" vol="100" len="12" pan="0" key="78"/>
          <note pos="132" vol="100" len="12" pan="0" key="75"/>
          <note pos="144" vol="100" len="12" pan="0" key="70"/>
          <note pos="156" vol="100" len="12" pan="0" key="66"/>
          <note pos="168" vol="100" len="12" pan="0" key="63"/>
          <note pos="180" vol="100" len="12" pan="0" key="58"/>
        </pattern>
        <pattern name="" steps="16" pos="56832" muted="0" type="1">
          <note pos="0" vol="100" len="12" pan="0" key="53"/>
          <note pos="12" vol="100" len="12" pan="0" key="56"/>
          <note pos="24" vol="100" len="12" pan="0" key="61"/>
          <note pos="36" vol="100" len="12" pan="0" key="65"/>
          <note pos="48" vol="100" len="12" pan="0" key="68"/>
          <note pos="60" vol="100" len="12" pan="0" key="73"/>
          <note pos="72" vol="100" len="12" pan="0" key="77"/>
          <note pos="84" vol="100" len="12" pan="0" key="80"/>
          <note pos="96" vol="100" len="12" pan="0" key="85"/>
          <note pos="108" vol="100" len="12" pan="0" key="80"/>
          <note pos="120" vol="100" len="12" pan="0" key="77"/>
          <note pos="132" vol="100" len="12" pan="0" key="73"/>
          <note pos="144" vol="100" len="12" pan="0" key="68"/>
          <note pos="156" vol="100" len="12" pan="0" key="65"/>
          <note pos="168" vol="100" len="12" pan="0" key="61"/>
          <note pos="180" vol="100" len="12" pan="0" key="56"/>
        </pattern>
        <pattern name="" steps="16" pos="57216" muted="0" type="1">
          <note pos="0" vol="100" len="12" pan="0" key="51"/>
          <note pos="12" vol="100" len="12" pan="0" key="56"/>
          <note pos="24" vol="100" len="12" pan="0" key="60"/>
          <note pos="36" vol="100" len="12" pan="0" key="63"/>
          <note pos="48" vol="100" len="12" pan="0" key="68"/>
          <note pos="60" vol="100" len="12" pan="0" key="72"/>
          <note pos="72" vol="100" len="12" pan="0" key="75"/>
          <note pos="84" vol="100" len="12" pan="0" key="80"/>
          <note pos="96" vol="100" len="12" pan="0" key="84"/>
          <note pos="108" vol="100" len="12" pan="0" key="80"/>
          <note pos="120" vol="100" len="12" pan="0" key="75"/>
          <note pos="132" vol="100" len="12" pan="0" key="72"/>
          <note pos="144" vol="100" len="12" pan="0" key="68"/>
          <note pos="156" vol="100" len="12" pan="0" key="63"/>
          <note pos="168" vol="100" len="12" pan="0" key="60"/>
          <note pos="180" vol="100" len="12" pan="0" key="56"/>
        </pattern>
        <pattern name="" steps="16" pos="57600" muted="0" type="1">
          <note pos="0" vol="100" len="12" pan="0" key="52"/>
          <note pos="12" vol="100" len="12" pan="0" key="56"/>
          <note pos="24" vol="100" len="12" pan="0" key="59"/>
          <note pos="36" vol="100" len="12" pan="0" key="64"/>
          <note pos="48" vol="100" len="12" pan="0" key="68"/>
          <note pos="60" vol="100" len="12" pan="0" key="71"/>
          <note pos="72" vol="100" len="12" pan="0" key="76"/>
          <note pos="84" vol="100" len="12" pan="0" key="80"/>
          <note pos="96" vol="100" len="12" pan="0" key="83"/>
          <note pos="108" vol="100" len="12" pan="0" key="80"/>
          <note pos="120" vol="100" len="12" pan="0" key="76"/>
          <note pos="132" vol="100" len="12" pan="0" key="71"/>
          <note pos="144" vol="100" len="12" pan="0" key="68"/>
          <note pos="156" vol="100" len="12" pan="0" key="64"/>
          <note pos="168" vol="100" len="12" pan="0" key="59"/>
          <note pos="180" vol="100" len="12" pan="0" key="56"/>
        </pattern>
        <pattern name="" steps="16" pos="57024" muted="0" type="1">
          <note pos="0" vol="100" len="12" pan="0" key="53"/>
          <note pos="12" vol="100" len="12" pan="0" key="56"/>
          <note pos="24" vol="100" len="12" pan="0" key="61"/>
          <note pos="36" vol="100" len="12" pan="0" key="65"/>
          <note pos="48" vol="100" len="12" pan="0" key="68"/>
          <note pos="60" vol="100" len="12" pan="0" key="73"/>
          <note pos="72" vol="100" len="12" pan="0" key="77"/>
          <note pos="84" vol="100" len="12" pan="0" key="80"/>
          <note pos="96" vol="100" len="12" pan="0" key="85"/>
          <note pos="108" vol="100" len="12" pan="0" key="80"/>
          <note pos="120" vol="100" len="12" pan="0" key="77"/>
          <note pos="132" vol="100" len="12" pan="0" key="73"/>
          <note pos="144" vol="100" len="12" pan="0" key="68"/>
          <note pos="156" vol="100" len="12" pan="0" key="65"/>
          <note pos="168" vol="100" len="12" pan="0" key="61"/>
          <note pos="180" vol="100" len="12" pan="0" key="56"/>
        </pattern>
        <pattern name="" steps="16" pos="57408" muted="0" type="1">
          <note pos="0" vol="100" len="12" pan="0" key="51"/>
          <note pos="12" vol="100" len="12" pan="0" key="56"/>
          <note pos="24" vol="100" len="12" pan="0" key="60"/>
          <note pos="36" vol="100" len="12" pan="0" key="63"/>
          <note pos="48" vol="100" len="12" pan="0" key="68"/>
          <note pos="60" vol="100" len="12" pan="0" key="72"/>
          <note pos="72" vol="100" len="12" pan="0" key="75"/>
          <note pos="84" vol="100" len="12" pan="0" key="80"/>
          <note pos="96" vol="100" len="12" pan="0" key="84"/>
          <note pos="108" vol="100" len="12" pan="0" key="80"/>
          <note pos="120" vol="100" len="12" pan="0" key="75"/>
          <note pos="132" vol="100" len="12" pan="0" key="72"/>
          <note pos="144" vol="100" len="12" pan="0" key="68"/>
          <note pos="156" vol="100" len="12" pan="0" key="63"/>
          <note pos="168" vol="100" len="12" pan="0" key="60"/>
          <note pos="180" vol="100" len="12" pan="0" key="56"/>
        </pattern>
        <pattern name="" steps="16" pos="57792" muted="0" type="1">
          <note pos="0" vol="100" len="12" pan="0" key="52"/>
          <note pos="12" vol="100" len="12" pan="0" key="56"/>
          <note pos="24" vol="100" len="12" pan="0" key="59"/>
          <note pos="36" vol="100" len="12" pan="0" key="64"/>
          <note pos="48" vol="100" len="12" pan="0" key="68"/>
          <note pos="60" vol="100" len="12" pan="0" key="71"/>
          <note pos="72" vol="100" len="12" pan="0" key="76"/>
          <note pos="84" vol="100" len="12" pan="0" key="80"/>
          <note pos="96" vol="100" len="12" pan="0" key="83"/>
          <note pos="108" vol="100" len="12" pan="0" key="80"/>
          <note pos="120" vol="100" len="12" pan="0" key="76"/>
          <note pos="132" vol="100" len="12" pan="0" key="71"/>
          <note pos="144" vol="100" len="12" pan="0" key="68"/>
          <note pos="156" vol="100" len="12" pan="0" key="64"/>
          <note pos="168" vol="100" len="12" pan="0" key="59"/>
          <note pos="180" vol="100" len="12" pan="0" key="56"/>
        </pattern>
        <pattern name="stratobodomarcticaneryus" steps="16" pos="63744" muted="0" type="1">
          <note pos="0" vol="197" len="12" pan="0" key="66"/>
          <note pos="12" vol="197" len="12" pan="0" key="63"/>
          <note pos="24" vol="197" len="12" pan="0" key="65"/>
          <note pos="36" vol="197" len="12" pan="0" key="66"/>
          <note pos="48" vol="197" len="12" pan="0" key="68"/>
          <note pos="60" vol="197" len="12" pan="0" key="65"/>
          <note pos="72" vol="197" len="12" pan="0" key="66"/>
          <note pos="84" vol="197" len="12" pan="0" key="68"/>
          <note pos="96" vol="197" len="12" pan="0" key="70"/>
          <note pos="108" vol="197" len="12" pan="0" key="66"/>
          <note pos="120" vol="197" len="12" pan="0" key="68"/>
          <note pos="132" vol="197" len="12" pan="0" key="70"/>
          <note pos="144" vol="197" len="12" pan="0" key="71"/>
          <note pos="156" vol="197" len="12" pan="0" key="68"/>
          <note pos="168" vol="197" len="12" pan="0" key="70"/>
          <note pos="180" vol="197" len="12" pan="0" key="71"/>
          <note pos="192" vol="197" len="12" pan="0" key="73"/>
          <note pos="204" vol="197" len="12" pan="0" key="71"/>
          <note pos="216" vol="197" len="12" pan="0" key="70"/>
          <note pos="228" vol="197" len="12" pan="0" key="68"/>
          <note pos="240" vol="197" len="12" pan="0" key="66"/>
          <note pos="252" vol="197" len="12" pan="0" key="68"/>
          <note pos="264" vol="197" len="12" pan="0" key="71"/>
          <note pos="276" vol="197" len="12" pan="0" key="70"/>
          <note pos="288" vol="197" len="12" pan="0" key="68"/>
          <note pos="300" vol="197" len="12" pan="0" key="66"/>
          <note pos="312" vol="197" len="12" pan="0" key="65"/>
          <note pos="324" vol="197" len="12" pan="0" key="66"/>
          <note pos="336" vol="197" len="12" pan="0" key="70"/>
          <note pos="348" vol="197" len="12" pan="0" key="68"/>
          <note pos="360" vol="197" len="12" pan="0" key="66"/>
          <note pos="372" vol="197" len="12" pan="0" key="65"/>
          <note pos="384" vol="197" len="12" pan="0" key="63"/>
          <note pos="396" vol="197" len="12" pan="0" key="65"/>
          <note pos="408" vol="200" len="12" pan="0" key="68"/>
          <note pos="420" vol="200" len="12" pan="0" key="66"/>
          <note pos="432" vol="200" len="12" pan="0" key="65"/>
          <note pos="444" vol="200" len="12" pan="0" key="63"/>
          <note pos="456" vol="200" len="12" pan="0" key="61"/>
          <note pos="468" vol="200" len="12" pan="0" key="63"/>
          <note pos="480" vol="200" len="12" pan="0" key="66"/>
          <note pos="492" vol="200" len="12" pan="0" key="65"/>
          <note pos="504" vol="200" len="12" pan="0" key="63"/>
          <note pos="516" vol="200" len="12" pan="0" key="61"/>
          <note pos="528" vol="200" len="12" pan="0" key="65"/>
          <note pos="540" vol="200" len="12" pan="0" key="63"/>
          <note pos="552" vol="200" len="12" pan="0" key="61"/>
          <note pos="564" vol="200" len="12" pan="0" key="63"/>
        </pattern>
      </track>
      <track name="leadsynth pitch" solo="0" muted="0" type="5">
        <automationtrack/>
        <automationpattern name="stratobodomneryus>Pitch" tens="1" pos="47616" mute="0" len="192" prog="1">
          <time pos="0" value="-200"/>
          <time pos="24" value="-30"/>
          <time pos="48" value="-1"/>
          <time pos="120" value="0"/>
          <object id="6553159"/>
        </automationpattern>
        <automationpattern name="stratobodomneryus>Pitch" tens="1" pos="46848" mute="0" len="192" prog="0">
          <time pos="0" value="0"/>
          <object id="6553159"/>
        </automationpattern>
        <automationpattern name="stratobodomneryus>Pitch" tens="1" pos="48000" mute="0" len="192" prog="2">
          <time pos="0" value="-101"/>
          <time pos="12" value="0"/>
          <time pos="24" value="0"/>
          <time pos="48" value="0"/>
          <time pos="168" value="-1"/>
          <time pos="180" value="-12"/>
          <time pos="192" value="-101"/>
          <object id="6553159"/>
        </automationpattern>
        <automationpattern name="stratobodomneryus>Pitch" tens="1" pos="48192" mute="0" len="192" prog="2">
          <time pos="0" value="-101"/>
          <time pos="24" value="0"/>
          <object id="6553159"/>
        </automationpattern>
        <automationpattern name="stratobodomneryus>Pitch" tens="1" pos="48384" mute="0" len="192" prog="2">
          <time pos="0" value="-101"/>
          <time pos="12" value="0"/>
          <object id="6553159"/>
        </automationpattern>
        <automationpattern name="stratobodomneryus>Pitch" tens="1" pos="48960" mute="0" len="192" prog="2">
          <time pos="0" value="-101"/>
          <time pos="36" value="0"/>
          <time pos="72" value="-3"/>
          <time pos="120" value="0"/>
          <time pos="144" value="1"/>
          <object id="6553159"/>
        </automationpattern>
        <automationpattern name="stratobodomneryus>Pitch" tens="1" pos="49536" mute="0" len="192" prog="2">
          <time pos="0" value="-101"/>
          <time pos="24" value="0"/>
          <object id="6553159"/>
        </automationpattern>
        <automationpattern name="stratobodomneryus>Pitch" tens="1" pos="49728" mute="0" len="192" prog="2">
          <time pos="144" value="-100"/>
          <time pos="156" value="0"/>
          <object id="6553159"/>
        </automationpattern>
        <automationpattern name="stratobodomneryus>Pitch" tens="1" pos="49920" mute="0" len="192" prog="2">
          <time pos="144" value="0"/>
          <time pos="192" value="-200"/>
          <object id="6553159"/>
        </automationpattern>
        <automationpattern name="stratobodomneryus>Pitch" tens="1" pos="5184" mute="0" len="192" prog="0">
          <time pos="0" value="0"/>
          <object id="6553159"/>
        </automationpattern>
        <automationpattern name="stratobodomneryus>Pitch" tens="1" pos="50112" mute="0" len="192" prog="0">
          <time pos="0" value="0"/>
          <object id="6553159"/>
        </automationpattern>
        <automationpattern name="stratobodomneryus>Pitch" tens="1" pos="47808" mute="0" len="192" prog="0">
          <time pos="0" value="0"/>
          <object id="6553159"/>
        </automationpattern>
        <automationpattern name="stratobodomneryus>Pitch" tens="1" pos="59328" mute="0" len="192" prog="0">
          <time pos="0" value="0"/>
          <object id="6553159"/>
        </automationpattern>
        <automationpattern name="stratobodomneryus>Pitch" tens="1" pos="59520" mute="0" len="384" prog="1">
          <time pos="336" value="-198"/>
          <time pos="360" value="0"/>
          <object id="6553159"/>
        </automationpattern>
        <automationpattern name="stratobodomneryus>Pitch" tens="1" pos="60672" mute="0" len="192" prog="1">
          <time pos="0" value="-151"/>
          <time pos="24" value="0"/>
          <object id="6553159"/>
        </automationpattern>
        <automationpattern name="stratobodomneryus>Pitch" tens="1" pos="60864" mute="0" len="192" prog="1">
          <time pos="0" value="-151"/>
          <time pos="24" value="0"/>
          <time pos="96" value="-1"/>
          <time pos="120" value="200"/>
          <object id="6553159"/>
        </automationpattern>
        <automationpattern name="stratobodomneryus>Pitch" tens="1" pos="61056" mute="0" len="192" prog="0">
          <time pos="0" value="0"/>
          <object id="6553159"/>
        </automationpattern>
        <automationpattern name="stratobodomneryus>Pitch" tens="1" pos="61440" mute="0" len="192" prog="1">
          <time pos="144" value="-149"/>
          <time pos="168" value="0"/>
          <object id="6553159"/>
        </automationpattern>
        <automationpattern name="stratobodomneryus>Pitch" tens="1" pos="40704" mute="0" len="192" prog="0">
          <time pos="0" value="0"/>
          <object id="6553159"/>
        </automationpattern>
        <automationpattern name="stratobodomneryus>Pitch" tens="1" pos="42240" mute="0" len="384" prog="1">
          <time pos="0" value="-100"/>
          <time pos="24" value="0"/>
          <time pos="360" value="0"/>
          <time pos="384" value="-200"/>
          <object id="6553159"/>
        </automationpattern>
        <automationpattern name="stratobodomneryus>Pitch" tens="1" pos="42624" mute="0" len="192" prog="0">
          <time pos="0" value="0"/>
          <object id="6553159"/>
        </automationpattern>
        <automationpattern name="stratobodomneryus>Pitch" tens="1" pos="56256" mute="0" len="192" prog="0">
          <time pos="0" value="0"/>
          <object id="6553159"/>
        </automationpattern>
      </track>
      <track name="celloes" solo="0" muted="0" type="0">
        <instrumenttrack basenote="57" fxch="0" usemasterpitch="1" pitch="0" vol="52.8" pan="0" pitchrange="2">
          <instrument name="carlapatchbay">
            <carlapatchbay>
              <CARLA-PROJECT VERSION="2.2">
                <EngineSettings>
                  <ForceStereo>false</ForceStereo>
                  <PreferPluginBridges>false</PreferPluginBridges>
                  <PreferUiBridges>true</PreferUiBridges>
                  <UIsAlwaysOnTop>false</UIsAlwaysOnTop>
                  <MaxParameters>200</MaxParameters>
                  <UIBridgesTimeout>4000</UIBridgesTimeout>
                  <LADSPA_PATH>/home/pass/.ladspa:/usr/lib/ladspa:/usr/local/lib/ladspa</LADSPA_PATH>
                  <DSSI_PATH>/home/pass/.dssi:/usr/lib/dssi:/usr/local/lib/dssi</DSSI_PATH>
                  <LV2_PATH>/home/pass/.lv2:/usr/lib/lv2:/usr/local/lib/lv2</LV2_PATH>
                  <VST2_PATH>/home/pass/.vst:/home/pass/.wine/drive_c/Program Files (x86)/VstPlugins:/home/pass/.wine/drive_c/Program Files/VstPlugins:/home/pass/Music/winvst/VST32:/home/pass/Music/winvst/VST64/Plogue Art et Technologie, Inc:/home/pass/vst:/usr/lib/lxvst:/usr/lib/vst:/usr/local/lib/lxvst:/usr/local/lib/vst/home/pass/.lxvst</VST2_PATH>
                  <VST3_PATH>/home/pass/.vst3:/home/pass/.wine/drive_c/Program Files (x86)/Common Files/VST3:/home/pass/.wine/drive_c/Program Files/Common Files/VST3:/usr/lib/vst3:/usr/local/lib/vst3</VST3_PATH>
                  <SF2_PATH>/home/pass/.sounds/sf2/home/pass/.sounds/sf3:/home/pass/samples/soundfonts:/usr/share/soundfonts:/usr/share/sounds/sf2:/usr/share/sounds/sf3</SF2_PATH>
                  <SFZ_PATH>/home/pass/.sounds/sfz:/home/pass/samples:/usr/share/sounds/sfz</SFZ_PATH>
                </EngineSettings>
                <!-- sfizz -->
                <Plugin>
                  <Info>
                    <Type>LV2</Type>
                    <Name>sfizz</Name>
                    <URI>http://sfztools.github.io/sfizz</URI>
                  </Info>
                  <Data>
                    <Active>Yes</Active>
                    <ControlChannel>1</ControlChannel>
                    <Options>0x3f0</Options>
                    <Parameter>
                      <Index>0</Index>
                      <Name>Volume</Name>
                      <Symbol>volume</Symbol>
                      <Value>0</Value>
                    </Parameter>
                    <Parameter>
                      <Index>1</Index>
                      <Name>Polyphony</Name>
                      <Symbol>num_voices</Symbol>
                      <Value>64</Value>
                    </Parameter>
                    <Parameter>
                      <Index>2</Index>
                      <Name>Internal oversampling factor</Name>
                      <Symbol>oversampling</Symbol>
                      <Value>1</Value>
                    </Parameter>
                    <Parameter>
                      <Index>3</Index>
                      <Name>Preload size</Name>
                      <Symbol>preload_size</Symbol>
                      <Value>8192</Value>
                    </Parameter>
                    <Parameter>
                      <Index>5</Index>
                      <Name>Scala root key</Name>
                      <Symbol>scala_root_key</Symbol>
                      <Value>60</Value>
                    </Parameter>
                    <Parameter>
                      <Index>6</Index>
                      <Name>Tuning frequency</Name>
                      <Symbol>tuning_frequency</Symbol>
                      <Value>440</Value>
                    </Parameter>
                    <Parameter>
                      <Index>7</Index>
                      <Name>Stretched tuning</Name>
                      <Symbol>stretched_tuning</Symbol>
                      <Value>0</Value>
                    </Parameter>
                    <CustomData>
                      <Type>http://lv2plug.in/ns/ext/atom#Path</Type>
                      <Key>http://sfztools.github.io/sfizz:sfzfile</Key>
                      <Value>Strings - Celli Sustain.sfz</Value>
                    </CustomData>
                    <CustomData>
                      <Type>http://lv2plug.in/ns/ext/atom#Path</Type>
                      <Key>http://sfztools.github.io/sfizz:tuningfile</Key>
                      <Value>DefaultScale.scl</Value>
                    </CustomData>
                    <CustomData>
                      <Type>http://lv2plug.in/ns/ext/atom#Int</Type>
                      <Key>http://sfztools.github.io/sfizz:numvoices</Key>
                      <Value>QAAAAA==</Value>
                    </CustomData>
                    <CustomData>
                      <Type>http://lv2plug.in/ns/ext/atom#Int</Type>
                      <Key>http://sfztools.github.io/sfizz:preload_size</Key>
                      <Value>ACAAAA==</Value>
                    </CustomData>
                    <CustomData>
                      <Type>http://lv2plug.in/ns/ext/atom#Int</Type>
                      <Key>http://sfztools.github.io/sfizz:oversampling</Key>
                      <Value>AQAAAA==</Value>
                    </CustomData>
                  </Data>
                </Plugin>
                <Patchbay>
                  <Connection>
                    <Source>sfizz:Left Output</Source>
                    <Target>Audio Output:Left</Target>
                  </Connection>
                  <Connection>
                    <Source>sfizz:Right Output</Source>
                    <Target>Audio Output:Right</Target>
                  </Connection>
                  <Connection>
                    <Source>Midi Input:Capture 1</Source>
                    <Target>sfizz:events-in</Target>
                  </Connection>
                  <Positions>
                    <Position y1="1317" x1="1729" pluginId="0">
                      <Name>sfizz</Name>
                    </Position>
                  </Positions>
                </Patchbay>
              </CARLA-PROJECT>
            </carlapatchbay>
          </instrument>
          <eldata fwet="0" fcut="14000" ftype="0" fres="0.5">
            <elvol x100="0" userwavefile="" dec="0.5" amt="0" pdel="0" hold="0.5" lamt="0" lpdel="0" lshp="0" lspd_denominator="4" att="0" ctlenvamt="0" lspd="0.1" lspd_syncmode="0" rel="0.1" latt="0" lspd_numerator="4" sustain="0.5"/>
            <elcut x100="0" userwavefile="" dec="0.5" amt="0" pdel="0" hold="0.5" lamt="0" lpdel="0" lshp="0" lspd_denominator="4" att="0" ctlenvamt="0" lspd="0.1" lspd_syncmode="0" rel="0.1" latt="0" lspd_numerator="4" sustain="0.5"/>
            <elres x100="0" userwavefile="" dec="0.5" amt="0" pdel="0" hold="0.5" lamt="0" lpdel="0" lshp="0" lspd_denominator="4" att="0" ctlenvamt="0" lspd="0.1" lspd_syncmode="0" rel="0.1" latt="0" lspd_numerator="4" sustain="0.5"/>
          </eldata>
          <chordcreator chord-enabled="1" chord="0" chordrange="2"/>
          <arpeggiator arprange="1" arpmode="0" arp="0" arptime_numerator="4" arpmiss="0" arptime_denominator="4" arpcycle="0" arpskip="0" arptime_syncmode="0" arpgate="100" arptime="200" arpdir="0" arp-enabled="0"/>
          <midiport fixedoutputnote="-1" outputprogram="1" inputcontroller="0" writable="0" fixedoutputvelocity="-1" readable="0" outputchannel="1" basevelocity="63" outputcontroller="0" fixedinputvelocity="-1" inputchannel="0"/>
          <fxchain numofeffects="0" enabled="0"/>
        </instrumenttrack>
        <pattern name="" steps="16" pos="50304" muted="0" type="1">
          <note pos="0" vol="200" len="192" pan="0" key="63"/>
          <note pos="192" vol="200" len="192" pan="0" key="61"/>
          <note pos="384" vol="200" len="288" pan="0" key="58"/>
          <note pos="672" vol="200" len="96" pan="0" key="51"/>
          <note pos="768" vol="200" len="192" pan="0" key="63"/>
          <note pos="960" vol="200" len="192" pan="0" key="61"/>
          <note pos="1152" vol="200" len="192" pan="0" key="58"/>
          <note pos="1344" vol="200" len="192" pan="0" key="54"/>
          <note pos="1536" vol="200" len="192" pan="0" key="58"/>
          <note pos="1728" vol="200" len="96" pan="0" key="59"/>
          <note pos="1824" vol="200" len="96" pan="0" key="63"/>
          <note pos="1920" vol="200" len="192" pan="0" key="61"/>
          <note pos="2112" vol="200" len="192" pan="0" key="66"/>
          <note pos="2304" vol="200" len="384" pan="0" key="63"/>
          <note pos="2688" vol="200" len="96" pan="0" key="58"/>
          <note pos="2784" vol="200" len="96" pan="0" key="61"/>
          <note pos="2880" vol="200" len="96" pan="0" key="56"/>
          <note pos="2976" vol="200" len="96" pan="0" key="58"/>
        </pattern>
        <pattern name="" steps="16" pos="53376" muted="0" type="1">
          <note pos="0" vol="197" len="192" pan="0" key="63"/>
          <note pos="192" vol="197" len="192" pan="0" key="61"/>
          <note pos="384" vol="197" len="288" pan="0" key="58"/>
          <note pos="672" vol="197" len="96" pan="0" key="58"/>
          <note pos="768" vol="197" len="192" pan="0" key="70"/>
          <note pos="960" vol="197" len="192" pan="0" key="68"/>
          <note pos="1152" vol="197" len="384" pan="0" key="63"/>
          <note pos="1536" vol="197" len="192" pan="0" key="63"/>
          <note pos="1728" vol="197" len="192" pan="0" key="65"/>
          <note pos="1920" vol="197" len="192" pan="0" key="66"/>
          <note pos="2112" vol="197" len="96" pan="0" key="70"/>
          <note pos="2208" vol="197" len="96" pan="0" key="68"/>
          <note pos="2304" vol="197" len="192" pan="0" key="68"/>
          <note pos="2496" vol="197" len="144" pan="0" key="63"/>
          <note pos="2640" vol="197" len="24" pan="0" key="63"/>
          <note pos="2664" vol="197" len="24" pan="0" key="65"/>
          <note pos="2688" vol="197" len="192" pan="0" key="66"/>
          <note pos="2880" vol="197" len="96" pan="0" key="68"/>
          <note pos="2976" vol="197" len="96" pan="0" key="73"/>
          <note pos="3072" vol="197" len="384" pan="0" key="75"/>
        </pattern>
      </track>
      <track name="Harp" solo="0" muted="0" type="0">
        <instrumenttrack basenote="57" fxch="0" usemasterpitch="1" pitch="0" vol="100" pan="0" pitchrange="1">
          <instrument name="carlapatchbay">
            <carlapatchbay>
              <CARLA-PROJECT VERSION="2.2">
                <EngineSettings>
                  <ForceStereo>false</ForceStereo>
                  <PreferPluginBridges>false</PreferPluginBridges>
                  <PreferUiBridges>true</PreferUiBridges>
                  <UIsAlwaysOnTop>false</UIsAlwaysOnTop>
                  <MaxParameters>200</MaxParameters>
                  <UIBridgesTimeout>4000</UIBridgesTimeout>
                  <LADSPA_PATH>/home/pass/.ladspa:/usr/lib/ladspa:/usr/local/lib/ladspa</LADSPA_PATH>
                  <DSSI_PATH>/home/pass/.dssi:/usr/lib/dssi:/usr/local/lib/dssi</DSSI_PATH>
                  <LV2_PATH>/home/pass/.lv2:/usr/lib/lv2:/usr/local/lib/lv2</LV2_PATH>
                  <VST2_PATH>/home/pass/.vst:/home/pass/.wine/drive_c/Program Files (x86)/VstPlugins:/home/pass/.wine/drive_c/Program Files/VstPlugins:/home/pass/Music/winvst/VST32:/home/pass/Music/winvst/VST64/Plogue Art et Technologie, Inc:/home/pass/vst:/usr/lib/lxvst:/usr/lib/vst:/usr/local/lib/lxvst:/usr/local/lib/vst/home/pass/.lxvst</VST2_PATH>
                  <VST3_PATH>/home/pass/.vst3:/home/pass/.wine/drive_c/Program Files (x86)/Common Files/VST3:/home/pass/.wine/drive_c/Program Files/Common Files/VST3:/usr/lib/vst3:/usr/local/lib/vst3</VST3_PATH>
                  <SF2_PATH>/home/pass/.sounds/sf2/home/pass/.sounds/sf3:/home/pass/samples/soundfonts:/usr/share/soundfonts:/usr/share/sounds/sf2:/usr/share/sounds/sf3</SF2_PATH>
                  <SFZ_PATH>/home/pass/.sounds/sfz:/home/pass/samples:/usr/share/sounds/sfz</SFZ_PATH>
                </EngineSettings>
                <!-- liquidsfz -->
                <Plugin>
                  <Info>
                    <Type>LV2</Type>
                    <Name>liquidsfz</Name>
                    <URI>http://spectmorph.org/plugins/liquidsfz</URI>
                  </Info>
                  <Data>
                    <Active>Yes</Active>
                    <ControlChannel>1</ControlChannel>
                    <Options>0x3f0</Options>
                    <Parameter>
                      <Index>0</Index>
                      <Name>Output Level</Name>
                      <Symbol>level</Symbol>
                      <Value>0</Value>
                    </Parameter>
                    <CustomData>
                      <Type>http://lv2plug.in/ns/ext/atom#Path</Type>
                      <Key>http://spectmorph.org/plugins/liquidsfz#sfzfile</Key>
                      <Value>Harp.sfz</Value>
                    </CustomData>
                  </Data>
                </Plugin>
                <Patchbay>
                  <Connection>
                    <Source>Midi Input:Capture 1</Source>
                    <Target>liquidsfz:events-in</Target>
                  </Connection>
                  <Connection>
                    <Source>liquidsfz:Left Output</Source>
                    <Target>Audio Output:Left</Target>
                  </Connection>
                  <Connection>
                    <Source>liquidsfz:Right Output</Source>
                    <Target>Audio Output:Right</Target>
                  </Connection>
                  <Positions>
                    <Position y1="1317" x1="1670" pluginId="0">
                      <Name>liquidsfz</Name>
                    </Position>
                  </Positions>
                </Patchbay>
              </CARLA-PROJECT>
            </carlapatchbay>
          </instrument>
          <eldata fwet="0" fcut="14000" ftype="0" fres="0.5">
            <elvol x100="0" userwavefile="" dec="0.5" amt="0" pdel="0" hold="0.5" lamt="0" lpdel="0" lshp="0" lspd_denominator="4" att="0" ctlenvamt="0" lspd="0.1" lspd_syncmode="0" rel="0.1" latt="0" lspd_numerator="4" sustain="0.5"/>
            <elcut x100="0" userwavefile="" dec="0.5" amt="0" pdel="0" hold="0.5" lamt="0" lpdel="0" lshp="0" lspd_denominator="4" att="0" ctlenvamt="0" lspd="0.1" lspd_syncmode="0" rel="0.1" latt="0" lspd_numerator="4" sustain="0.5"/>
            <elres x100="0" userwavefile="" dec="0.5" amt="0" pdel="0" hold="0.5" lamt="0" lpdel="0" lshp="0" lspd_denominator="4" att="0" ctlenvamt="0" lspd="0.1" lspd_syncmode="0" rel="0.1" latt="0" lspd_numerator="4" sustain="0.5"/>
          </eldata>
          <chordcreator chord-enabled="0" chord="0" chordrange="1"/>
          <arpeggiator arprange="1" arpmode="0" arp="0" arptime_numerator="4" arpmiss="0" arptime_denominator="4" arpcycle="0" arpskip="0" arptime_syncmode="0" arpgate="100" arptime="200" arpdir="0" arp-enabled="0"/>
          <midiport fixedoutputnote="-1" outputprogram="1" inputcontroller="0" writable="0" fixedoutputvelocity="-1" readable="0" outputchannel="1" basevelocity="63" outputcontroller="0" fixedinputvelocity="-1" inputchannel="0"/>
          <fxchain numofeffects="0" enabled="0"/>
        </instrumenttrack>
        <pattern name="" steps="16" pos="42624" muted="0" type="1">
          <note pos="0" vol="200" len="144" pan="0" key="73"/>
          <note pos="0" vol="200" len="48" pan="0" key="61"/>
          <note pos="48" vol="200" len="48" pan="0" key="64"/>
          <note pos="96" vol="200" len="48" pan="0" key="68"/>
          <note pos="144" vol="200" len="48" pan="0" key="76"/>
          <note pos="144" vol="200" len="48" pan="0" key="73"/>
          <note pos="192" vol="200" len="144" pan="0" key="75"/>
          <note pos="192" vol="200" len="48" pan="0" key="71"/>
          <note pos="240" vol="200" len="48" pan="0" key="66"/>
          <note pos="288" vol="200" len="48" pan="0" key="71"/>
          <note pos="336" vol="200" len="48" pan="0" key="80"/>
          <note pos="336" vol="200" len="48" pan="0" key="75"/>
          <note pos="384" vol="200" len="144" pan="0" key="80"/>
          <note pos="384" vol="200" len="48" pan="0" key="76"/>
          <note pos="432" vol="200" len="48" pan="0" key="69"/>
          <note pos="480" vol="200" len="48" pan="0" key="73"/>
          <note pos="528" vol="200" len="24" pan="0" key="78"/>
          <note pos="528" vol="200" len="48" pan="0" key="64"/>
          <note pos="552" vol="200" len="24" pan="0" key="76"/>
          <note pos="576" vol="200" len="48" pan="0" key="75"/>
          <note pos="576" vol="200" len="48" pan="0" key="66"/>
          <note pos="624" vol="200" len="48" pan="0" key="76"/>
          <note pos="624" vol="200" len="48" pan="0" key="63"/>
          <note pos="672" vol="200" len="48" pan="0" key="71"/>
          <note pos="672" vol="200" len="48" pan="0" key="66"/>
          <note pos="720" vol="200" len="48" pan="0" key="68"/>
          <note pos="720" vol="200" len="48" pan="0" key="59"/>
          <note pos="768" vol="200" len="96" pan="0" key="69"/>
          <note pos="768" vol="200" len="48" pan="0" key="61"/>
          <note pos="816" vol="200" len="48" pan="0" key="66"/>
          <note pos="864" vol="200" len="48" pan="0" key="73"/>
          <note pos="864" vol="200" len="48" pan="0" key="69"/>
          <note pos="912" vol="200" len="48" pan="0" key="76"/>
          <note pos="912" vol="200" len="48" pan="0" key="66"/>
          <note pos="960" vol="200" len="96" pan="0" key="76"/>
          <note pos="960" vol="200" len="48" pan="0" key="68"/>
          <note pos="1008" vol="200" len="48" pan="0" key="71"/>
          <note pos="1056" vol="200" len="48" pan="0" key="75"/>
          <note pos="1056" vol="200" len="48" pan="0" key="68"/>
          <note pos="1104" vol="200" len="48" pan="0" key="76"/>
          <note pos="1104" vol="200" len="48" pan="0" key="63"/>
          <note pos="1152" vol="200" len="72" pan="0" key="83"/>
          <note pos="1152" vol="200" len="48" pan="0" key="69"/>
        </pattern>
      </track>
      <track name="Orchestra Soundfont 2 COMBO" solo="0" muted="1" type="0">
        <instrumenttrack basenote="57" fxch="0" usemasterpitch="1" pitch="0" vol="100" pan="0" pitchrange="2">
          <instrument name="sf2player">
            <sf2player reverbRoomSize="0.2" src="/home/pass/samples/soundfonts/Orchestra Soundfont 2 COMBO.sf2" chorusOn="0" chorusDepth="8" gain="5" reverbDamping="0" chorusNum="3" chorusLevel="2" bank="0" reverbLevel="0.9" patch="0" reverbOn="0" chorusSpeed="0.3" reverbWidth="0.5"/>
          </instrument>
          <eldata fwet="0" fcut="14000" ftype="0" fres="0.5">
            <elvol x100="0" userwavefile="" dec="0.5" amt="0" pdel="0" hold="0.5" lamt="0" lpdel="0" lshp="0" lspd_denominator="4" att="0" ctlenvamt="0" lspd="0.1" lspd_syncmode="0" rel="0.1" latt="0" lspd_numerator="4" sustain="0.5"/>
            <elcut x100="0" userwavefile="" dec="0.5" amt="0" pdel="0" hold="0.5" lamt="0" lpdel="0" lshp="0" lspd_denominator="4" att="0" ctlenvamt="0" lspd="0.1" lspd_syncmode="0" rel="0.1" latt="0" lspd_numerator="4" sustain="0.5"/>
            <elres x100="0" userwavefile="" dec="0.5" amt="0" pdel="0" hold="0.5" lamt="0" lpdel="0" lshp="0" lspd_denominator="4" att="0" ctlenvamt="0" lspd="0.1" lspd_syncmode="0" rel="0.1" latt="0" lspd_numerator="4" sustain="0.5"/>
          </eldata>
          <chordcreator chord-enabled="0" chord="0" chordrange="1"/>
          <arpeggiator arprange="1" arpmode="0" arp="0" arptime_numerator="4" arpmiss="0" arptime_denominator="4" arpcycle="0" arpskip="0" arptime_syncmode="0" arpgate="100" arptime="200" arpdir="0" arp-enabled="0"/>
          <midiport fixedoutputnote="-1" outputprogram="1" inputcontroller="0" writable="0" fixedoutputvelocity="-1" readable="0" outputchannel="1" basevelocity="63" outputcontroller="0" fixedinputvelocity="-1" inputchannel="0"/>
          <fxchain numofeffects="0" enabled="0"/>
        </instrumenttrack>
        <pattern name="" steps="16" pos="8064" muted="0" type="1">
          <note pos="0" vol="78" len="24" pan="0" key="61"/>
          <note pos="24" vol="78" len="24" pan="0" key="68"/>
          <note pos="48" vol="78" len="24" pan="0" key="73"/>
          <note pos="72" vol="78" len="24" pan="0" key="68"/>
          <note pos="96" vol="78" len="24" pan="0" key="76"/>
          <note pos="120" vol="78" len="24" pan="0" key="68"/>
          <note pos="144" vol="78" len="24" pan="0" key="73"/>
          <note pos="168" vol="78" len="24" pan="0" key="68"/>
          <note pos="192" vol="78" len="24" pan="0" key="63"/>
          <note pos="216" vol="78" len="24" pan="0" key="68"/>
          <note pos="240" vol="78" len="24" pan="0" key="71"/>
          <note pos="264" vol="78" len="24" pan="0" key="68"/>
          <note pos="288" vol="78" len="24" pan="0" key="63"/>
          <note pos="312" vol="78" len="24" pan="0" key="68"/>
          <note pos="336" vol="78" len="24" pan="0" key="71"/>
          <note pos="360" vol="78" len="24" pan="0" key="68"/>
          <note pos="384" vol="78" len="24" pan="0" key="64"/>
          <note pos="408" vol="78" len="24" pan="0" key="68"/>
          <note pos="432" vol="78" len="24" pan="0" key="73"/>
          <note pos="456" vol="78" len="24" pan="0" key="68"/>
          <note pos="480" vol="78" len="24" pan="0" key="64"/>
          <note pos="504" vol="78" len="24" pan="0" key="68"/>
          <note pos="528" vol="78" len="24" pan="0" key="73"/>
          <note pos="552" vol="78" len="24" pan="0" key="68"/>
          <note pos="576" vol="78" len="24" pan="0" key="66"/>
          <note pos="600" vol="78" len="24" pan="0" key="71"/>
          <note pos="624" vol="78" len="24" pan="0" key="76"/>
          <note pos="648" vol="78" len="24" pan="0" key="71"/>
          <note pos="672" vol="78" len="24" pan="0" key="66"/>
          <note pos="696" vol="78" len="24" pan="0" key="71"/>
          <note pos="720" vol="78" len="24" pan="0" key="75"/>
          <note pos="744" vol="78" len="24" pan="0" key="71"/>
          <note pos="768" vol="78" len="24" pan="0" key="64"/>
          <note pos="792" vol="78" len="24" pan="0" key="68"/>
          <note pos="816" vol="78" len="24" pan="0" key="73"/>
          <note pos="840" vol="78" len="24" pan="0" key="68"/>
          <note pos="864" vol="78" len="24" pan="0" key="64"/>
          <note pos="888" vol="78" len="24" pan="0" key="68"/>
          <note pos="912" vol="78" len="24" pan="0" key="73"/>
          <note pos="936" vol="78" len="24" pan="0" key="68"/>
          <note pos="960" vol="78" len="24" pan="0" key="63"/>
          <note pos="984" vol="78" len="24" pan="0" key="66"/>
          <note pos="1008" vol="78" len="24" pan="0" key="71"/>
          <note pos="1032" vol="78" len="24" pan="0" key="66"/>
          <note pos="1056" vol="78" len="24" pan="0" key="63"/>
          <note pos="1080" vol="78" len="24" pan="0" key="66"/>
          <note pos="1104" vol="78" len="24" pan="0" key="71"/>
          <note pos="1128" vol="78" len="24" pan="0" key="66"/>
          <note pos="1152" vol="78" len="24" pan="0" key="64"/>
          <note pos="1176" vol="78" len="24" pan="0" key="68"/>
          <note pos="1200" vol="78" len="24" pan="0" key="73"/>
          <note pos="1224" vol="78" len="24" pan="0" key="68"/>
          <note pos="1248" vol="78" len="24" pan="0" key="64"/>
          <note pos="1272" vol="78" len="24" pan="0" key="68"/>
          <note pos="1296" vol="78" len="24" pan="0" key="73"/>
          <note pos="1320" vol="78" len="24" pan="0" key="68"/>
          <note pos="1344" vol="78" len="24" pan="0" key="66"/>
          <note pos="1368" vol="78" len="24" pan="0" key="68"/>
          <note pos="1392" vol="78" len="24" pan="0" key="66"/>
          <note pos="1416" vol="78" len="24" pan="0" key="64"/>
          <note pos="1440" vol="78" len="24" pan="0" key="63"/>
          <note pos="1464" vol="78" len="24" pan="0" key="60"/>
          <note pos="1488" vol="78" len="24" pan="0" key="66"/>
          <note pos="1512" vol="78" len="24" pan="0" key="63"/>
          <note pos="1536" vol="78" len="24" pan="0" key="61"/>
          <note pos="1560" vol="78" len="24" pan="0" key="68"/>
          <note pos="1584" vol="78" len="24" pan="0" key="73"/>
          <note pos="1608" vol="78" len="24" pan="0" key="68"/>
          <note pos="1632" vol="78" len="24" pan="0" key="61"/>
          <note pos="1656" vol="78" len="24" pan="0" key="68"/>
          <note pos="1680" vol="78" len="24" pan="0" key="73"/>
          <note pos="1704" vol="78" len="24" pan="0" key="68"/>
          <note pos="1728" vol="78" len="24" pan="0" key="63"/>
          <note pos="1752" vol="78" len="24" pan="0" key="68"/>
          <note pos="1776" vol="78" len="24" pan="0" key="71"/>
          <note pos="1800" vol="78" len="24" pan="0" key="68"/>
          <note pos="1824" vol="78" len="24" pan="0" key="63"/>
          <note pos="1848" vol="78" len="24" pan="0" key="68"/>
          <note pos="1872" vol="78" len="24" pan="0" key="71"/>
          <note pos="1896" vol="78" len="24" pan="0" key="68"/>
          <note pos="1920" vol="78" len="24" pan="0" key="61"/>
          <note pos="1944" vol="78" len="24" pan="0" key="66"/>
          <note pos="1968" vol="78" len="24" pan="0" key="70"/>
          <note pos="1992" vol="78" len="24" pan="0" key="66"/>
          <note pos="2016" vol="78" len="24" pan="0" key="61"/>
          <note pos="2040" vol="78" len="24" pan="0" key="66"/>
          <note pos="2064" vol="78" len="24" pan="0" key="70"/>
          <note pos="2088" vol="78" len="24" pan="0" key="66"/>
          <note pos="2112" vol="78" len="24" pan="0" key="61"/>
          <note pos="2136" vol="78" len="24" pan="0" key="66"/>
          <note pos="2160" vol="78" len="24" pan="0" key="70"/>
          <note pos="2184" vol="78" len="24" pan="0" key="66"/>
          <note pos="2208" vol="78" len="24" pan="0" key="61"/>
          <note pos="2232" vol="78" len="24" pan="0" key="66"/>
          <note pos="2256" vol="78" len="24" pan="0" key="70"/>
          <note pos="2280" vol="78" len="24" pan="0" key="66"/>
          <note pos="2304" vol="78" len="24" pan="0" key="66"/>
          <note pos="2328" vol="78" len="24" pan="0" key="69"/>
          <note pos="2352" vol="78" len="24" pan="0" key="73"/>
          <note pos="2376" vol="78" len="24" pan="0" key="69"/>
          <note pos="2400" vol="78" len="24" pan="0" key="66"/>
          <note pos="2424" vol="78" len="24" pan="0" key="69"/>
          <note pos="2448" vol="78" len="24" pan="0" key="73"/>
          <note pos="2472" vol="78" len="24" pan="0" key="69"/>
          <note pos="2496" vol="78" len="24" pan="0" key="63"/>
          <note pos="2520" vol="78" len="24" pan="0" key="68"/>
          <note pos="2544" vol="78" len="24" pan="0" key="73"/>
          <note pos="2568" vol="78" len="24" pan="0" key="68"/>
          <note pos="2592" vol="78" len="24" pan="0" key="63"/>
          <note pos="2616" vol="78" len="24" pan="0" key="68"/>
          <note pos="2640" vol="78" len="24" pan="0" key="73"/>
          <note pos="2664" vol="78" len="24" pan="0" key="68"/>
          <note pos="2688" vol="78" len="24" pan="0" key="66"/>
          <note pos="2712" vol="78" len="24" pan="0" key="71"/>
          <note pos="2736" vol="78" len="24" pan="0" key="75"/>
          <note pos="2760" vol="78" len="24" pan="0" key="71"/>
          <note pos="2784" vol="78" len="24" pan="0" key="66"/>
          <note pos="2808" vol="78" len="24" pan="0" key="71"/>
          <note pos="2832" vol="78" len="24" pan="0" key="75"/>
          <note pos="2856" vol="78" len="24" pan="0" key="71"/>
          <note pos="2880" vol="78" len="96" pan="0" key="66"/>
          <note pos="2976" vol="78" len="96" pan="0" key="59"/>
          <note pos="3072" vol="78" len="12" pan="0" key="68"/>
          <note pos="3084" vol="78" len="12" pan="0" key="64"/>
          <note pos="3096" vol="78" len="12" pan="0" key="61"/>
          <note pos="3108" vol="78" len="12" pan="0" key="56"/>
          <note pos="3120" vol="78" len="12" pan="0" key="52"/>
          <note pos="3132" vol="78" len="12" pan="0" key="49"/>
          <note pos="3168" vol="78" len="12" pan="0" key="61"/>
          <note pos="3180" vol="78" len="12" pan="0" key="56"/>
          <note pos="3192" vol="78" len="12" pan="0" key="52"/>
          <note pos="3204" vol="78" len="12" pan="0" key="49"/>
          <note pos="3216" vol="78" len="12" pan="0" key="76"/>
          <note pos="3228" vol="78" len="12" pan="0" key="71"/>
          <note pos="3240" vol="78" len="12" pan="0" key="68"/>
          <note pos="3252" vol="78" len="12" pan="0" key="64"/>
          <note pos="3264" vol="78" len="12" pan="0" key="76"/>
          <note pos="3276" vol="78" len="12" pan="0" key="71"/>
          <note pos="3288" vol="78" len="12" pan="0" key="80"/>
          <note pos="3300" vol="78" len="12" pan="0" key="76"/>
          <note pos="3312" vol="78" len="12" pan="0" key="71"/>
          <note pos="3324" vol="78" len="12" pan="0" key="68"/>
          <note pos="3336" vol="78" len="12" pan="0" key="64"/>
          <note pos="3348" vol="78" len="12" pan="0" key="61"/>
          <note pos="3360" vol="78" len="12" pan="0" key="73"/>
          <note pos="3372" vol="78" len="12" pan="0" key="68"/>
          <note pos="3384" vol="78" len="12" pan="0" key="64"/>
          <note pos="3396" vol="78" len="12" pan="0" key="61"/>
          <note pos="3408" vol="78" len="12" pan="0" key="68"/>
          <note pos="3420" vol="78" len="12" pan="0" key="64"/>
          <note pos="3432" vol="78" len="12" pan="0" key="56"/>
          <note pos="3444" vol="78" len="12" pan="0" key="49"/>
          <note pos="3456" vol="78" len="12" pan="0" key="69"/>
          <note pos="3468" vol="78" len="12" pan="0" key="66"/>
          <note pos="3480" vol="78" len="12" pan="0" key="57"/>
          <note pos="3492" vol="78" len="12" pan="0" key="54"/>
          <note pos="3504" vol="78" len="12" pan="0" key="49"/>
          <note pos="3516" vol="78" len="12" pan="0" key="47"/>
          <note pos="3528" vol="78" len="12" pan="0" key="74"/>
          <note pos="3540" vol="78" len="12" pan="0" key="69"/>
          <note pos="3552" vol="78" len="12" pan="0" key="66"/>
          <note pos="3564" vol="78" len="12" pan="0" key="61"/>
          <note pos="3576" vol="78" len="12" pan="0" key="57"/>
          <note pos="3588" vol="78" len="12" pan="0" key="54"/>
          <note pos="3600" vol="78" len="12" pan="0" key="78"/>
          <note pos="3612" vol="78" len="12" pan="0" key="74"/>
          <note pos="3624" vol="78" len="12" pan="0" key="69"/>
          <note pos="3636" vol="78" len="12" pan="0" key="66"/>
          <note pos="3672" vol="78" len="12" pan="0" key="81"/>
          <note pos="3684" vol="78" len="12" pan="0" key="78"/>
          <note pos="3696" vol="78" len="12" pan="0" key="73"/>
          <note pos="3708" vol="78" len="12" pan="0" key="69"/>
          <note pos="3720" vol="78" len="12" pan="0" key="66"/>
          <note pos="3732" vol="78" len="12" pan="0" key="61"/>
          <note pos="3744" vol="78" len="12" pan="0" key="74"/>
          <note pos="3756" vol="78" len="12" pan="0" key="71"/>
          <note pos="3768" vol="78" len="12" pan="0" key="66"/>
          <note pos="3780" vol="78" len="12" pan="0" key="61"/>
          <note pos="3792" vol="78" len="12" pan="0" key="69"/>
          <note pos="3804" vol="78" len="12" pan="0" key="66"/>
          <note pos="3816" vol="78" len="12" pan="0" key="61"/>
          <note pos="3828" vol="78" len="12" pan="0" key="57"/>
          <note pos="3840" vol="78" len="12" pan="0" key="68"/>
          <note pos="3852" vol="78" len="12" pan="0" key="64"/>
          <note pos="3864" vol="78" len="12" pan="0" key="61"/>
          <note pos="3876" vol="78" len="12" pan="0" key="56"/>
          <note pos="3912" vol="78" len="12" pan="0" key="73"/>
          <note pos="3924" vol="78" len="12" pan="0" key="69"/>
          <note pos="3936" vol="78" len="12" pan="0" key="68"/>
          <note pos="3948" vol="78" len="12" pan="0" key="64"/>
          <note pos="3960" vol="78" len="12" pan="0" key="56"/>
          <note pos="3972" vol="78" len="12" pan="0" key="52"/>
          <note pos="3984" vol="78" len="12" pan="0" key="76"/>
          <note pos="3996" vol="78" len="12" pan="0" key="71"/>
          <note pos="4008" vol="78" len="12" pan="0" key="68"/>
          <note pos="4020" vol="78" len="12" pan="0" key="64"/>
          <note pos="4056" vol="78" len="12" pan="0" key="81"/>
          <note pos="4068" vol="78" len="12" pan="0" key="78"/>
          <note pos="4080" vol="78" len="12" pan="0" key="78"/>
          <note pos="4092" vol="78" len="12" pan="0" key="69"/>
          <note pos="4104" vol="78" len="12" pan="0" key="66"/>
          <note pos="4116" vol="78" len="12" pan="0" key="64"/>
          <note pos="4128" vol="78" len="12" pan="0" key="73"/>
          <note pos="4140" vol="78" len="12" pan="0" key="69"/>
          <note pos="4152" vol="78" len="12" pan="0" key="66"/>
          <note pos="4164" vol="78" len="12" pan="0" key="61"/>
          <note pos="4176" vol="78" len="12" pan="0" key="68"/>
          <note pos="4188" vol="78" len="12" pan="0" key="64"/>
          <note pos="4200" vol="78" len="12" pan="0" key="61"/>
          <note pos="4212" vol="78" len="12" pan="0" key="56"/>
          <note pos="4224" vol="78" len="12" pan="0" key="69"/>
          <note pos="4236" vol="78" len="12" pan="0" key="66"/>
          <note pos="4248" vol="78" len="12" pan="0" key="57"/>
          <note pos="4260" vol="78" len="12" pan="0" key="54"/>
          <note pos="4272" vol="78" len="12" pan="0" key="52"/>
          <note pos="4284" vol="78" len="12" pan="0" key="49"/>
          <note pos="4296" vol="78" len="12" pan="0" key="74"/>
          <note pos="4308" vol="78" len="12" pan="0" key="69"/>
          <note pos="4320" vol="78" len="12" pan="0" key="66"/>
          <note pos="4332" vol="78" len="12" pan="0" key="61"/>
          <note pos="4344" vol="78" len="12" pan="0" key="57"/>
          <note pos="4356" vol="78" len="12" pan="0" key="54"/>
          <note pos="4368" vol="78" len="12" pan="0" key="78"/>
          <note pos="4380" vol="78" len="12" pan="0" key="74"/>
          <note pos="4392" vol="78" len="12" pan="0" key="69"/>
          <note pos="4404" vol="78" len="12" pan="0" key="66"/>
          <note pos="4440" vol="78" len="12" pan="0" key="81"/>
          <note pos="4452" vol="78" len="12" pan="0" key="78"/>
          <note pos="4464" vol="78" len="12" pan="0" key="73"/>
          <note pos="4476" vol="78" len="12" pan="0" key="69"/>
          <note pos="4488" vol="78" len="12" pan="0" key="66"/>
          <note pos="4500" vol="78" len="12" pan="0" key="61"/>
          <note pos="4512" vol="78" len="12" pan="0" key="74"/>
          <note pos="4524" vol="78" len="12" pan="0" key="71"/>
          <note pos="4536" vol="78" len="12" pan="0" key="66"/>
          <note pos="4548" vol="78" len="12" pan="0" key="61"/>
          <note pos="4560" vol="78" len="12" pan="0" key="69"/>
          <note pos="4572" vol="78" len="12" pan="0" key="66"/>
          <note pos="4584" vol="78" len="12" pan="0" key="61"/>
          <note pos="4596" vol="78" len="12" pan="0" key="57"/>
        </pattern>
        <pattern name="" steps="16" pos="15744" muted="0" type="1">
          <note pos="0" vol="78" len="24" pan="0" key="61"/>
          <note pos="24" vol="78" len="24" pan="0" key="68"/>
          <note pos="48" vol="78" len="24" pan="0" key="73"/>
          <note pos="72" vol="78" len="24" pan="0" key="68"/>
          <note pos="96" vol="78" len="24" pan="0" key="76"/>
          <note pos="120" vol="78" len="24" pan="0" key="68"/>
          <note pos="144" vol="78" len="24" pan="0" key="73"/>
          <note pos="168" vol="78" len="24" pan="0" key="68"/>
          <note pos="192" vol="78" len="24" pan="0" key="63"/>
          <note pos="216" vol="78" len="24" pan="0" key="68"/>
          <note pos="240" vol="78" len="24" pan="0" key="71"/>
          <note pos="264" vol="78" len="24" pan="0" key="68"/>
          <note pos="288" vol="78" len="24" pan="0" key="63"/>
          <note pos="312" vol="78" len="24" pan="0" key="68"/>
          <note pos="336" vol="78" len="24" pan="0" key="71"/>
          <note pos="360" vol="78" len="24" pan="0" key="68"/>
          <note pos="384" vol="78" len="24" pan="0" key="64"/>
          <note pos="408" vol="78" len="24" pan="0" key="68"/>
          <note pos="432" vol="78" len="24" pan="0" key="73"/>
          <note pos="456" vol="78" len="24" pan="0" key="68"/>
          <note pos="480" vol="78" len="24" pan="0" key="64"/>
          <note pos="504" vol="78" len="24" pan="0" key="68"/>
          <note pos="528" vol="78" len="24" pan="0" key="73"/>
          <note pos="552" vol="78" len="24" pan="0" key="68"/>
          <note pos="576" vol="78" len="24" pan="0" key="66"/>
          <note pos="600" vol="78" len="24" pan="0" key="71"/>
          <note pos="624" vol="78" len="24" pan="0" key="76"/>
          <note pos="648" vol="78" len="24" pan="0" key="71"/>
          <note pos="672" vol="78" len="24" pan="0" key="66"/>
          <note pos="696" vol="78" len="24" pan="0" key="71"/>
          <note pos="720" vol="78" len="24" pan="0" key="75"/>
          <note pos="744" vol="78" len="24" pan="0" key="71"/>
          <note pos="768" vol="78" len="24" pan="0" key="64"/>
          <note pos="792" vol="78" len="24" pan="0" key="68"/>
          <note pos="816" vol="78" len="24" pan="0" key="73"/>
          <note pos="840" vol="78" len="24" pan="0" key="68"/>
          <note pos="864" vol="78" len="24" pan="0" key="64"/>
          <note pos="888" vol="78" len="24" pan="0" key="68"/>
          <note pos="912" vol="78" len="24" pan="0" key="73"/>
          <note pos="936" vol="78" len="24" pan="0" key="68"/>
          <note pos="960" vol="78" len="24" pan="0" key="63"/>
          <note pos="984" vol="78" len="24" pan="0" key="66"/>
          <note pos="1008" vol="78" len="24" pan="0" key="71"/>
          <note pos="1032" vol="78" len="24" pan="0" key="66"/>
          <note pos="1056" vol="78" len="24" pan="0" key="63"/>
          <note pos="1080" vol="78" len="24" pan="0" key="66"/>
          <note pos="1104" vol="78" len="24" pan="0" key="71"/>
          <note pos="1128" vol="78" len="24" pan="0" key="66"/>
          <note pos="1152" vol="78" len="24" pan="0" key="64"/>
          <note pos="1176" vol="78" len="24" pan="0" key="68"/>
          <note pos="1200" vol="78" len="24" pan="0" key="73"/>
          <note pos="1224" vol="78" len="24" pan="0" key="68"/>
          <note pos="1248" vol="78" len="24" pan="0" key="64"/>
          <note pos="1272" vol="78" len="24" pan="0" key="68"/>
          <note pos="1296" vol="78" len="24" pan="0" key="73"/>
          <note pos="1320" vol="78" len="24" pan="0" key="68"/>
          <note pos="1344" vol="78" len="24" pan="0" key="66"/>
          <note pos="1368" vol="78" len="24" pan="0" key="68"/>
          <note pos="1392" vol="78" len="24" pan="0" key="66"/>
          <note pos="1416" vol="78" len="24" pan="0" key="64"/>
          <note pos="1440" vol="78" len="24" pan="0" key="63"/>
          <note pos="1464" vol="78" len="24" pan="0" key="60"/>
          <note pos="1488" vol="78" len="24" pan="0" key="66"/>
          <note pos="1512" vol="78" len="24" pan="0" key="63"/>
          <note pos="1536" vol="78" len="24" pan="0" key="61"/>
          <note pos="1560" vol="78" len="24" pan="0" key="68"/>
          <note pos="1584" vol="78" len="24" pan="0" key="73"/>
          <note pos="1608" vol="78" len="24" pan="0" key="68"/>
          <note pos="1632" vol="78" len="24" pan="0" key="61"/>
          <note pos="1656" vol="78" len="24" pan="0" key="68"/>
          <note pos="1680" vol="78" len="24" pan="0" key="73"/>
          <note pos="1704" vol="78" len="24" pan="0" key="68"/>
          <note pos="1728" vol="78" len="24" pan="0" key="63"/>
          <note pos="1752" vol="78" len="24" pan="0" key="68"/>
          <note pos="1776" vol="78" len="24" pan="0" key="71"/>
          <note pos="1800" vol="78" len="24" pan="0" key="68"/>
          <note pos="1824" vol="78" len="24" pan="0" key="63"/>
          <note pos="1848" vol="78" len="24" pan="0" key="68"/>
          <note pos="1872" vol="78" len="24" pan="0" key="71"/>
          <note pos="1896" vol="78" len="24" pan="0" key="68"/>
          <note pos="1920" vol="78" len="24" pan="0" key="61"/>
          <note pos="1944" vol="78" len="24" pan="0" key="66"/>
          <note pos="1968" vol="78" len="24" pan="0" key="70"/>
          <note pos="1992" vol="78" len="24" pan="0" key="66"/>
          <note pos="2016" vol="78" len="24" pan="0" key="61"/>
          <note pos="2040" vol="78" len="24" pan="0" key="66"/>
          <note pos="2064" vol="78" len="24" pan="0" key="70"/>
          <note pos="2088" vol="78" len="24" pan="0" key="66"/>
          <note pos="2112" vol="78" len="24" pan="0" key="61"/>
          <note pos="2136" vol="78" len="24" pan="0" key="66"/>
          <note pos="2160" vol="78" len="24" pan="0" key="70"/>
          <note pos="2184" vol="78" len="24" pan="0" key="66"/>
          <note pos="2208" vol="78" len="24" pan="0" key="61"/>
          <note pos="2232" vol="78" len="24" pan="0" key="66"/>
          <note pos="2256" vol="78" len="24" pan="0" key="70"/>
          <note pos="2280" vol="78" len="24" pan="0" key="66"/>
          <note pos="2304" vol="78" len="24" pan="0" key="66"/>
          <note pos="2328" vol="78" len="24" pan="0" key="69"/>
          <note pos="2352" vol="78" len="24" pan="0" key="73"/>
          <note pos="2376" vol="78" len="24" pan="0" key="69"/>
          <note pos="2400" vol="78" len="24" pan="0" key="66"/>
          <note pos="2424" vol="78" len="24" pan="0" key="69"/>
          <note pos="2448" vol="78" len="24" pan="0" key="73"/>
          <note pos="2472" vol="78" len="24" pan="0" key="69"/>
          <note pos="2496" vol="78" len="24" pan="0" key="63"/>
          <note pos="2520" vol="78" len="24" pan="0" key="68"/>
          <note pos="2544" vol="78" len="24" pan="0" key="73"/>
          <note pos="2568" vol="78" len="24" pan="0" key="68"/>
          <note pos="2592" vol="78" len="24" pan="0" key="63"/>
          <note pos="2616" vol="78" len="24" pan="0" key="68"/>
          <note pos="2640" vol="78" len="24" pan="0" key="73"/>
          <note pos="2664" vol="78" len="24" pan="0" key="68"/>
          <note pos="2688" vol="78" len="24" pan="0" key="66"/>
          <note pos="2712" vol="78" len="24" pan="0" key="71"/>
          <note pos="2736" vol="78" len="24" pan="0" key="75"/>
          <note pos="2760" vol="78" len="24" pan="0" key="71"/>
          <note pos="2784" vol="78" len="24" pan="0" key="66"/>
          <note pos="2808" vol="78" len="24" pan="0" key="71"/>
          <note pos="2832" vol="78" len="24" pan="0" key="75"/>
          <note pos="2856" vol="78" len="24" pan="0" key="71"/>
          <note pos="2880" vol="78" len="24" pan="0" key="63"/>
          <note pos="2880" vol="78" len="24" pan="0" key="51"/>
          <note pos="2904" vol="78" len="24" pan="0" key="63"/>
          <note pos="2904" vol="78" len="24" pan="0" key="51"/>
          <note pos="2976" vol="78" len="24" pan="0" key="71"/>
          <note pos="2976" vol="78" len="24" pan="0" key="59"/>
          <note pos="3000" vol="78" len="24" pan="0" key="71"/>
          <note pos="3000" vol="78" len="24" pan="0" key="59"/>
          <note pos="3072" vol="78" len="12" pan="0" key="56"/>
          <note pos="3084" vol="78" len="12" pan="0" key="61"/>
          <note pos="3096" vol="78" len="12" pan="0" key="64"/>
          <note pos="3108" vol="78" len="12" pan="0" key="68"/>
          <note pos="3120" vol="78" len="12" pan="0" key="73"/>
          <note pos="3132" vol="78" len="12" pan="0" key="76"/>
          <note pos="3144" vol="78" len="12" pan="0" key="80"/>
          <note pos="3156" vol="78" len="12" pan="0" key="83"/>
          <note pos="3168" vol="78" len="12" pan="0" key="73"/>
          <note pos="3180" vol="78" len="12" pan="0" key="83"/>
          <note pos="3192" vol="78" len="12" pan="0" key="80"/>
          <note pos="3204" vol="78" len="12" pan="0" key="76"/>
          <note pos="3216" vol="78" len="12" pan="0" key="73"/>
          <note pos="3228" vol="78" len="12" pan="0" key="68"/>
          <note pos="3240" vol="78" len="12" pan="0" key="64"/>
          <note pos="3252" vol="78" len="12" pan="0" key="61"/>
          <note pos="3264" vol="78" len="12" pan="0" key="56"/>
          <note pos="3276" vol="78" len="12" pan="0" key="61"/>
          <note pos="3288" vol="78" len="12" pan="0" key="64"/>
          <note pos="3300" vol="78" len="12" pan="0" key="68"/>
          <note pos="3312" vol="78" len="12" pan="0" key="73"/>
          <note pos="3324" vol="78" len="12" pan="0" key="76"/>
          <note pos="3336" vol="78" len="12" pan="0" key="80"/>
          <note pos="3348" vol="78" len="12" pan="0" key="83"/>
          <note pos="3360" vol="78" len="12" pan="0" key="73"/>
          <note pos="3372" vol="78" len="12" pan="0" key="83"/>
          <note pos="3384" vol="78" len="12" pan="0" key="80"/>
          <note pos="3396" vol="78" len="12" pan="0" key="76"/>
          <note pos="3408" vol="78" len="12" pan="0" key="73"/>
          <note pos="3420" vol="78" len="12" pan="0" key="68"/>
          <note pos="3432" vol="78" len="12" pan="0" key="64"/>
          <note pos="3444" vol="78" len="12" pan="0" key="61"/>
          <note pos="3456" vol="78" len="12" pan="0" key="54"/>
          <note pos="3468" vol="78" len="12" pan="0" key="59"/>
          <note pos="3480" vol="78" len="12" pan="0" key="63"/>
          <note pos="3492" vol="78" len="12" pan="0" key="66"/>
          <note pos="3504" vol="78" len="12" pan="0" key="69"/>
          <note pos="3516" vol="78" len="12" pan="0" key="73"/>
          <note pos="3528" vol="78" len="12" pan="0" key="76"/>
          <note pos="3540" vol="78" len="12" pan="0" key="80"/>
          <note pos="3552" vol="78" len="12" pan="0" key="83"/>
          <note pos="3564" vol="78" len="12" pan="0" key="80"/>
          <note pos="3576" vol="78" len="12" pan="0" key="75"/>
          <note pos="3588" vol="78" len="12" pan="0" key="71"/>
          <note pos="3600" vol="78" len="12" pan="0" key="66"/>
          <note pos="3612" vol="78" len="12" pan="0" key="61"/>
          <note pos="3624" vol="78" len="12" pan="0" key="59"/>
          <note pos="3636" vol="78" len="12" pan="0" key="54"/>
          <note pos="3648" vol="78" len="12" pan="0" key="54"/>
          <note pos="3660" vol="78" len="12" pan="0" key="59"/>
          <note pos="3672" vol="78" len="12" pan="0" key="63"/>
          <note pos="3684" vol="78" len="12" pan="0" key="66"/>
          <note pos="3696" vol="78" len="12" pan="0" key="69"/>
          <note pos="3708" vol="78" len="12" pan="0" key="73"/>
          <note pos="3720" vol="78" len="12" pan="0" key="76"/>
          <note pos="3732" vol="78" len="12" pan="0" key="80"/>
          <note pos="3744" vol="78" len="12" pan="0" key="83"/>
          <note pos="3756" vol="78" len="12" pan="0" key="80"/>
          <note pos="3768" vol="78" len="12" pan="0" key="75"/>
          <note pos="3780" vol="78" len="12" pan="0" key="71"/>
          <note pos="3792" vol="78" len="12" pan="0" key="66"/>
          <note pos="3804" vol="78" len="12" pan="0" key="61"/>
          <note pos="3816" vol="78" len="12" pan="0" key="59"/>
          <note pos="3828" vol="78" len="12" pan="0" key="54"/>
          <note pos="3840" vol="78" len="12" pan="0" key="54"/>
          <note pos="3852" vol="78" len="12" pan="0" key="57"/>
          <note pos="3864" vol="78" len="12" pan="0" key="61"/>
          <note pos="3876" vol="78" len="12" pan="0" key="64"/>
          <note pos="3888" vol="78" len="12" pan="0" key="66"/>
          <note pos="3900" vol="78" len="12" pan="0" key="73"/>
          <note pos="3912" vol="78" len="12" pan="0" key="76"/>
          <note pos="3924" vol="78" len="12" pan="0" key="78"/>
          <note pos="3936" vol="78" len="12" pan="0" key="82"/>
          <note pos="3948" vol="78" len="12" pan="0" key="78"/>
          <note pos="3960" vol="78" len="12" pan="0" key="76"/>
          <note pos="3972" vol="78" len="12" pan="0" key="73"/>
          <note pos="3984" vol="78" len="12" pan="0" key="66"/>
          <note pos="3996" vol="78" len="12" pan="0" key="64"/>
          <note pos="4008" vol="78" len="12" pan="0" key="61"/>
          <note pos="4020" vol="78" len="12" pan="0" key="57"/>
          <note pos="4032" vol="78" len="12" pan="0" key="54"/>
          <note pos="4044" vol="78" len="12" pan="0" key="57"/>
          <note pos="4056" vol="78" len="12" pan="0" key="61"/>
          <note pos="4068" vol="78" len="12" pan="0" key="64"/>
          <note pos="4080" vol="78" len="12" pan="0" key="66"/>
          <note pos="4092" vol="78" len="12" pan="0" key="73"/>
          <note pos="4104" vol="78" len="12" pan="0" key="76"/>
          <note pos="4116" vol="78" len="12" pan="0" key="78"/>
          <note pos="4128" vol="78" len="12" pan="0" key="82"/>
          <note pos="4140" vol="78" len="12" pan="0" key="78"/>
          <note pos="4152" vol="78" len="12" pan="0" key="76"/>
          <note pos="4164" vol="78" len="12" pan="0" key="73"/>
          <note pos="4176" vol="78" len="12" pan="0" key="66"/>
          <note pos="4188" vol="78" len="12" pan="0" key="64"/>
          <note pos="4200" vol="78" len="12" pan="0" key="61"/>
          <note pos="4212" vol="78" len="12" pan="0" key="57"/>
          <note pos="4224" vol="78" len="12" pan="0" key="51"/>
          <note pos="4236" vol="78" len="12" pan="0" key="54"/>
          <note pos="4248" vol="78" len="12" pan="0" key="57"/>
          <note pos="4260" vol="78" len="12" pan="0" key="63"/>
          <note pos="4272" vol="78" len="12" pan="0" key="66"/>
          <note pos="4284" vol="78" len="12" pan="0" key="69"/>
          <note pos="4296" vol="78" len="12" pan="0" key="73"/>
          <note pos="4308" vol="78" len="12" pan="0" key="76"/>
          <note pos="4320" vol="78" len="12" pan="0" key="81"/>
          <note pos="4332" vol="78" len="12" pan="0" key="78"/>
          <note pos="4344" vol="78" len="12" pan="0" key="73"/>
          <note pos="4356" vol="78" len="12" pan="0" key="69"/>
          <note pos="4368" vol="78" len="12" pan="0" key="66"/>
          <note pos="4380" vol="78" len="12" pan="0" key="63"/>
          <note pos="4392" vol="78" len="12" pan="0" key="57"/>
          <note pos="4404" vol="78" len="12" pan="0" key="54"/>
          <note pos="4416" vol="78" len="12" pan="0" key="51"/>
          <note pos="4428" vol="78" len="12" pan="0" key="54"/>
          <note pos="4440" vol="78" len="12" pan="0" key="57"/>
          <note pos="4452" vol="78" len="12" pan="0" key="63"/>
          <note pos="4464" vol="78" len="12" pan="0" key="66"/>
          <note pos="4476" vol="78" len="12" pan="0" key="69"/>
          <note pos="4488" vol="78" len="12" pan="0" key="73"/>
          <note pos="4500" vol="78" len="12" pan="0" key="76"/>
          <note pos="4512" vol="78" len="12" pan="0" key="81"/>
          <note pos="4524" vol="78" len="12" pan="0" key="78"/>
          <note pos="4536" vol="78" len="12" pan="0" key="73"/>
          <note pos="4548" vol="78" len="12" pan="0" key="69"/>
          <note pos="4560" vol="78" len="12" pan="0" key="66"/>
          <note pos="4572" vol="78" len="12" pan="0" key="63"/>
          <note pos="4584" vol="78" len="12" pan="0" key="57"/>
          <note pos="4596" vol="78" len="12" pan="0" key="54"/>
          <note pos="4608" vol="78" len="12" pan="0" key="52"/>
          <note pos="4620" vol="78" len="12" pan="0" key="61"/>
          <note pos="4632" vol="78" len="12" pan="0" key="64"/>
          <note pos="4644" vol="78" len="12" pan="0" key="68"/>
          <note pos="4656" vol="78" len="12" pan="0" key="73"/>
          <note pos="4668" vol="78" len="12" pan="0" key="76"/>
          <note pos="4680" vol="78" len="12" pan="0" key="80"/>
          <note pos="4692" vol="78" len="12" pan="0" key="83"/>
          <note pos="4704" vol="78" len="12" pan="0" key="73"/>
          <note pos="4716" vol="78" len="12" pan="0" key="83"/>
          <note pos="4728" vol="78" len="12" pan="0" key="80"/>
          <note pos="4740" vol="78" len="12" pan="0" key="76"/>
          <note pos="4752" vol="78" len="12" pan="0" key="73"/>
          <note pos="4764" vol="78" len="12" pan="0" key="68"/>
          <note pos="4776" vol="78" len="12" pan="0" key="64"/>
          <note pos="4788" vol="78" len="12" pan="0" key="61"/>
          <note pos="4800" vol="78" len="12" pan="0" key="52"/>
          <note pos="4812" vol="78" len="12" pan="0" key="61"/>
          <note pos="4824" vol="78" len="12" pan="0" key="64"/>
          <note pos="4836" vol="78" len="12" pan="0" key="68"/>
          <note pos="4848" vol="78" len="12" pan="0" key="73"/>
          <note pos="4860" vol="78" len="12" pan="0" key="76"/>
          <note pos="4872" vol="78" len="12" pan="0" key="80"/>
          <note pos="4884" vol="78" len="12" pan="0" key="83"/>
          <note pos="4896" vol="78" len="12" pan="0" key="73"/>
          <note pos="4908" vol="78" len="12" pan="0" key="83"/>
          <note pos="4920" vol="78" len="12" pan="0" key="80"/>
          <note pos="4932" vol="78" len="12" pan="0" key="76"/>
          <note pos="4944" vol="78" len="12" pan="0" key="73"/>
          <note pos="4956" vol="78" len="12" pan="0" key="68"/>
          <note pos="4968" vol="78" len="12" pan="0" key="64"/>
          <note pos="4980" vol="78" len="12" pan="0" key="61"/>
          <note pos="4992" vol="78" len="12" pan="0" key="54"/>
          <note pos="5004" vol="78" len="12" pan="0" key="59"/>
          <note pos="5016" vol="78" len="12" pan="0" key="63"/>
          <note pos="5028" vol="78" len="12" pan="0" key="66"/>
          <note pos="5040" vol="78" len="12" pan="0" key="69"/>
          <note pos="5052" vol="78" len="12" pan="0" key="73"/>
          <note pos="5064" vol="78" len="12" pan="0" key="76"/>
          <note pos="5076" vol="78" len="12" pan="0" key="80"/>
          <note pos="5088" vol="78" len="12" pan="0" key="83"/>
          <note pos="5100" vol="78" len="12" pan="0" key="80"/>
          <note pos="5112" vol="78" len="12" pan="0" key="75"/>
          <note pos="5124" vol="78" len="12" pan="0" key="71"/>
          <note pos="5136" vol="78" len="12" pan="0" key="66"/>
          <note pos="5148" vol="78" len="12" pan="0" key="61"/>
          <note pos="5160" vol="78" len="12" pan="0" key="59"/>
          <note pos="5172" vol="78" len="12" pan="0" key="54"/>
          <note pos="5184" vol="78" len="12" pan="0" key="54"/>
          <note pos="5196" vol="78" len="12" pan="0" key="59"/>
          <note pos="5208" vol="78" len="12" pan="0" key="63"/>
          <note pos="5220" vol="78" len="12" pan="0" key="66"/>
          <note pos="5232" vol="78" len="12" pan="0" key="69"/>
          <note pos="5244" vol="78" len="12" pan="0" key="73"/>
          <note pos="5256" vol="78" len="12" pan="0" key="76"/>
          <note pos="5268" vol="78" len="12" pan="0" key="80"/>
          <note pos="5280" vol="78" len="12" pan="0" key="83"/>
          <note pos="5292" vol="78" len="12" pan="0" key="80"/>
          <note pos="5304" vol="78" len="12" pan="0" key="75"/>
          <note pos="5316" vol="78" len="12" pan="0" key="71"/>
          <note pos="5328" vol="78" len="12" pan="0" key="66"/>
          <note pos="5340" vol="78" len="12" pan="0" key="61"/>
          <note pos="5352" vol="78" len="12" pan="0" key="59"/>
          <note pos="5364" vol="78" len="12" pan="0" key="54"/>
          <note pos="5376" vol="78" len="12" pan="0" key="54"/>
          <note pos="5388" vol="78" len="12" pan="0" key="57"/>
          <note pos="5400" vol="78" len="12" pan="0" key="63"/>
          <note pos="5412" vol="78" len="12" pan="0" key="66"/>
          <note pos="5424" vol="78" len="12" pan="0" key="69"/>
          <note pos="5436" vol="78" len="12" pan="0" key="73"/>
          <note pos="5448" vol="78" len="12" pan="0" key="76"/>
          <note pos="5460" vol="78" len="12" pan="0" key="81"/>
          <note pos="5472" vol="78" len="12" pan="0" key="75"/>
          <note pos="5484" vol="78" len="12" pan="0" key="81"/>
          <note pos="5496" vol="78" len="12" pan="0" key="76"/>
          <note pos="5508" vol="78" len="12" pan="0" key="73"/>
          <note pos="5520" vol="78" len="12" pan="0" key="69"/>
          <note pos="5532" vol="78" len="12" pan="0" key="66"/>
          <note pos="5544" vol="78" len="12" pan="0" key="63"/>
          <note pos="5556" vol="78" len="12" pan="0" key="57"/>
          <note pos="5568" vol="78" len="12" pan="0" key="54"/>
          <note pos="5580" vol="78" len="12" pan="0" key="57"/>
          <note pos="5592" vol="78" len="12" pan="0" key="63"/>
          <note pos="5604" vol="78" len="12" pan="0" key="66"/>
          <note pos="5616" vol="78" len="12" pan="0" key="69"/>
          <note pos="5628" vol="78" len="12" pan="0" key="73"/>
          <note pos="5640" vol="78" len="12" pan="0" key="76"/>
          <note pos="5652" vol="78" len="12" pan="0" key="81"/>
          <note pos="5664" vol="78" len="12" pan="0" key="75"/>
          <note pos="5676" vol="78" len="12" pan="0" key="81"/>
          <note pos="5688" vol="78" len="12" pan="0" key="76"/>
          <note pos="5700" vol="78" len="12" pan="0" key="73"/>
          <note pos="5712" vol="78" len="12" pan="0" key="69"/>
          <note pos="5724" vol="78" len="12" pan="0" key="66"/>
          <note pos="5736" vol="78" len="12" pan="0" key="63"/>
          <note pos="5748" vol="78" len="12" pan="0" key="57"/>
          <note pos="5760" vol="78" len="12" pan="0" key="57"/>
          <note pos="5772" vol="78" len="12" pan="0" key="61"/>
          <note pos="5784" vol="78" len="12" pan="0" key="64"/>
          <note pos="5796" vol="78" len="12" pan="0" key="68"/>
          <note pos="5808" vol="78" len="12" pan="0" key="71"/>
          <note pos="5820" vol="78" len="12" pan="0" key="75"/>
          <note pos="5832" vol="78" len="12" pan="0" key="78"/>
          <note pos="5844" vol="78" len="12" pan="0" key="81"/>
          <note pos="5856" vol="78" len="12" pan="0" key="73"/>
          <note pos="5868" vol="78" len="12" pan="0" key="81"/>
          <note pos="5880" vol="78" len="12" pan="0" key="78"/>
          <note pos="5892" vol="78" len="12" pan="0" key="75"/>
          <note pos="5904" vol="78" len="12" pan="0" key="71"/>
          <note pos="5916" vol="78" len="12" pan="0" key="68"/>
          <note pos="5928" vol="78" len="12" pan="0" key="64"/>
          <note pos="5940" vol="78" len="12" pan="0" key="61"/>
          <note pos="5952" vol="78" len="12" pan="0" key="57"/>
          <note pos="5964" vol="78" len="12" pan="0" key="61"/>
          <note pos="5976" vol="78" len="12" pan="0" key="64"/>
          <note pos="5988" vol="78" len="12" pan="0" key="68"/>
          <note pos="6000" vol="78" len="12" pan="0" key="71"/>
          <note pos="6012" vol="78" len="12" pan="0" key="75"/>
          <note pos="6024" vol="78" len="12" pan="0" key="78"/>
          <note pos="6036" vol="78" len="12" pan="0" key="81"/>
          <note pos="6048" vol="78" len="12" pan="0" key="72"/>
          <note pos="6060" vol="78" len="12" pan="0" key="81"/>
          <note pos="6072" vol="78" len="12" pan="0" key="78"/>
          <note pos="6084" vol="78" len="12" pan="0" key="75"/>
          <note pos="6096" vol="78" len="12" pan="0" key="71"/>
          <note pos="6108" vol="78" len="12" pan="0" key="68"/>
          <note pos="6120" vol="78" len="12" pan="0" key="64"/>
          <note pos="6132" vol="78" len="12" pan="0" key="61"/>
        </pattern>
        <pattern name="" steps="16" pos="39552" muted="0" type="1">
          <note pos="0" vol="78" len="24" pan="0" key="61"/>
          <note pos="24" vol="78" len="24" pan="0" key="68"/>
          <note pos="48" vol="78" len="24" pan="0" key="73"/>
          <note pos="72" vol="78" len="24" pan="0" key="68"/>
          <note pos="96" vol="78" len="24" pan="0" key="76"/>
          <note pos="120" vol="78" len="24" pan="0" key="68"/>
          <note pos="144" vol="78" len="24" pan="0" key="73"/>
          <note pos="168" vol="78" len="24" pan="0" key="68"/>
          <note pos="192" vol="78" len="24" pan="0" key="63"/>
          <note pos="216" vol="78" len="24" pan="0" key="68"/>
          <note pos="240" vol="78" len="24" pan="0" key="71"/>
          <note pos="264" vol="78" len="24" pan="0" key="68"/>
          <note pos="288" vol="78" len="24" pan="0" key="63"/>
          <note pos="312" vol="78" len="24" pan="0" key="68"/>
          <note pos="336" vol="78" len="24" pan="0" key="71"/>
          <note pos="360" vol="78" len="24" pan="0" key="68"/>
          <note pos="384" vol="78" len="24" pan="0" key="64"/>
          <note pos="408" vol="78" len="24" pan="0" key="68"/>
          <note pos="432" vol="78" len="24" pan="0" key="73"/>
          <note pos="456" vol="78" len="24" pan="0" key="68"/>
          <note pos="480" vol="78" len="24" pan="0" key="64"/>
          <note pos="504" vol="78" len="24" pan="0" key="68"/>
          <note pos="528" vol="78" len="24" pan="0" key="73"/>
          <note pos="552" vol="78" len="24" pan="0" key="68"/>
          <note pos="576" vol="78" len="24" pan="0" key="66"/>
          <note pos="600" vol="78" len="24" pan="0" key="71"/>
          <note pos="624" vol="78" len="24" pan="0" key="76"/>
          <note pos="648" vol="78" len="24" pan="0" key="71"/>
          <note pos="672" vol="78" len="24" pan="0" key="66"/>
          <note pos="696" vol="78" len="24" pan="0" key="71"/>
          <note pos="720" vol="78" len="24" pan="0" key="75"/>
          <note pos="744" vol="78" len="24" pan="0" key="71"/>
          <note pos="768" vol="78" len="24" pan="0" key="64"/>
          <note pos="792" vol="78" len="24" pan="0" key="68"/>
          <note pos="816" vol="78" len="24" pan="0" key="73"/>
          <note pos="840" vol="78" len="24" pan="0" key="68"/>
          <note pos="864" vol="78" len="24" pan="0" key="64"/>
          <note pos="888" vol="78" len="24" pan="0" key="68"/>
          <note pos="912" vol="78" len="24" pan="0" key="73"/>
          <note pos="936" vol="78" len="24" pan="0" key="68"/>
          <note pos="960" vol="78" len="24" pan="0" key="63"/>
          <note pos="984" vol="78" len="24" pan="0" key="66"/>
          <note pos="1008" vol="78" len="24" pan="0" key="71"/>
          <note pos="1032" vol="78" len="24" pan="0" key="66"/>
          <note pos="1056" vol="78" len="24" pan="0" key="63"/>
          <note pos="1080" vol="78" len="24" pan="0" key="66"/>
          <note pos="1104" vol="78" len="24" pan="0" key="71"/>
          <note pos="1128" vol="78" len="24" pan="0" key="66"/>
          <note pos="1152" vol="78" len="24" pan="0" key="64"/>
          <note pos="1176" vol="78" len="24" pan="0" key="68"/>
          <note pos="1200" vol="78" len="24" pan="0" key="73"/>
          <note pos="1224" vol="78" len="24" pan="0" key="68"/>
          <note pos="1248" vol="78" len="24" pan="0" key="64"/>
          <note pos="1272" vol="78" len="24" pan="0" key="68"/>
          <note pos="1296" vol="78" len="24" pan="0" key="73"/>
          <note pos="1320" vol="78" len="24" pan="0" key="68"/>
          <note pos="1344" vol="78" len="24" pan="0" key="66"/>
          <note pos="1368" vol="78" len="24" pan="0" key="68"/>
          <note pos="1392" vol="78" len="24" pan="0" key="66"/>
          <note pos="1416" vol="78" len="24" pan="0" key="64"/>
          <note pos="1440" vol="78" len="24" pan="0" key="63"/>
          <note pos="1464" vol="78" len="24" pan="0" key="60"/>
          <note pos="1488" vol="78" len="24" pan="0" key="66"/>
          <note pos="1512" vol="78" len="24" pan="0" key="63"/>
          <note pos="1536" vol="78" len="24" pan="0" key="61"/>
          <note pos="1560" vol="78" len="24" pan="0" key="68"/>
          <note pos="1584" vol="78" len="24" pan="0" key="73"/>
          <note pos="1608" vol="78" len="24" pan="0" key="68"/>
          <note pos="1632" vol="78" len="24" pan="0" key="61"/>
          <note pos="1656" vol="78" len="24" pan="0" key="68"/>
          <note pos="1680" vol="78" len="24" pan="0" key="73"/>
          <note pos="1704" vol="78" len="24" pan="0" key="68"/>
          <note pos="1728" vol="78" len="24" pan="0" key="63"/>
          <note pos="1752" vol="78" len="24" pan="0" key="68"/>
          <note pos="1776" vol="78" len="24" pan="0" key="71"/>
          <note pos="1800" vol="78" len="24" pan="0" key="68"/>
          <note pos="1824" vol="78" len="24" pan="0" key="63"/>
          <note pos="1848" vol="78" len="24" pan="0" key="68"/>
          <note pos="1872" vol="78" len="24" pan="0" key="71"/>
          <note pos="1896" vol="78" len="24" pan="0" key="68"/>
          <note pos="1920" vol="78" len="24" pan="0" key="61"/>
          <note pos="1944" vol="78" len="24" pan="0" key="66"/>
          <note pos="1968" vol="78" len="24" pan="0" key="70"/>
          <note pos="1992" vol="78" len="24" pan="0" key="66"/>
          <note pos="2016" vol="78" len="24" pan="0" key="61"/>
          <note pos="2040" vol="78" len="24" pan="0" key="66"/>
          <note pos="2064" vol="78" len="24" pan="0" key="70"/>
          <note pos="2088" vol="78" len="24" pan="0" key="66"/>
          <note pos="2112" vol="78" len="24" pan="0" key="61"/>
          <note pos="2136" vol="78" len="24" pan="0" key="66"/>
          <note pos="2160" vol="78" len="24" pan="0" key="70"/>
          <note pos="2184" vol="78" len="24" pan="0" key="66"/>
          <note pos="2208" vol="78" len="24" pan="0" key="61"/>
          <note pos="2232" vol="78" len="24" pan="0" key="66"/>
          <note pos="2256" vol="78" len="24" pan="0" key="70"/>
          <note pos="2280" vol="78" len="24" pan="0" key="66"/>
          <note pos="2304" vol="78" len="24" pan="0" key="66"/>
          <note pos="2328" vol="78" len="24" pan="0" key="69"/>
          <note pos="2352" vol="78" len="24" pan="0" key="73"/>
          <note pos="2376" vol="78" len="24" pan="0" key="69"/>
          <note pos="2400" vol="78" len="24" pan="0" key="66"/>
          <note pos="2424" vol="78" len="24" pan="0" key="69"/>
          <note pos="2448" vol="78" len="24" pan="0" key="73"/>
          <note pos="2472" vol="78" len="24" pan="0" key="69"/>
          <note pos="2496" vol="78" len="24" pan="0" key="63"/>
          <note pos="2520" vol="78" len="24" pan="0" key="68"/>
          <note pos="2544" vol="78" len="24" pan="0" key="73"/>
          <note pos="2568" vol="78" len="24" pan="0" key="68"/>
          <note pos="2592" vol="78" len="24" pan="0" key="63"/>
          <note pos="2616" vol="78" len="24" pan="0" key="68"/>
          <note pos="2640" vol="78" len="24" pan="0" key="73"/>
          <note pos="2664" vol="78" len="24" pan="0" key="68"/>
          <note pos="2688" vol="78" len="24" pan="0" key="66"/>
          <note pos="2712" vol="78" len="24" pan="0" key="71"/>
          <note pos="2736" vol="78" len="24" pan="0" key="75"/>
          <note pos="2760" vol="78" len="24" pan="0" key="71"/>
          <note pos="2784" vol="78" len="24" pan="0" key="66"/>
          <note pos="2808" vol="78" len="24" pan="0" key="71"/>
          <note pos="2832" vol="78" len="24" pan="0" key="75"/>
          <note pos="2856" vol="78" len="24" pan="0" key="71"/>
          <note pos="2880" vol="78" len="96" pan="0" key="66"/>
          <note pos="2976" vol="78" len="96" pan="0" key="59"/>
          <note pos="3072" vol="78" len="12" pan="0" key="68"/>
          <note pos="3084" vol="78" len="12" pan="0" key="64"/>
          <note pos="3096" vol="78" len="12" pan="0" key="61"/>
          <note pos="3108" vol="78" len="12" pan="0" key="56"/>
          <note pos="3120" vol="78" len="12" pan="0" key="52"/>
          <note pos="3132" vol="78" len="12" pan="0" key="49"/>
          <note pos="3168" vol="78" len="12" pan="0" key="61"/>
          <note pos="3180" vol="78" len="12" pan="0" key="56"/>
          <note pos="3192" vol="78" len="12" pan="0" key="52"/>
          <note pos="3204" vol="78" len="12" pan="0" key="49"/>
          <note pos="3216" vol="78" len="12" pan="0" key="76"/>
          <note pos="3228" vol="78" len="12" pan="0" key="71"/>
          <note pos="3240" vol="78" len="12" pan="0" key="68"/>
          <note pos="3252" vol="78" len="12" pan="0" key="64"/>
          <note pos="3264" vol="78" len="12" pan="0" key="76"/>
          <note pos="3276" vol="78" len="12" pan="0" key="71"/>
          <note pos="3288" vol="78" len="12" pan="0" key="80"/>
          <note pos="3300" vol="78" len="12" pan="0" key="76"/>
          <note pos="3312" vol="78" len="12" pan="0" key="71"/>
          <note pos="3324" vol="78" len="12" pan="0" key="68"/>
          <note pos="3336" vol="78" len="12" pan="0" key="64"/>
          <note pos="3348" vol="78" len="12" pan="0" key="61"/>
          <note pos="3360" vol="78" len="12" pan="0" key="73"/>
          <note pos="3372" vol="78" len="12" pan="0" key="68"/>
          <note pos="3384" vol="78" len="12" pan="0" key="64"/>
          <note pos="3396" vol="78" len="12" pan="0" key="61"/>
          <note pos="3408" vol="78" len="12" pan="0" key="68"/>
          <note pos="3420" vol="78" len="12" pan="0" key="64"/>
          <note pos="3432" vol="78" len="12" pan="0" key="56"/>
          <note pos="3444" vol="78" len="12" pan="0" key="49"/>
          <note pos="3456" vol="78" len="12" pan="0" key="69"/>
          <note pos="3468" vol="78" len="12" pan="0" key="66"/>
          <note pos="3480" vol="78" len="12" pan="0" key="57"/>
          <note pos="3492" vol="78" len="12" pan="0" key="54"/>
          <note pos="3504" vol="78" len="12" pan="0" key="49"/>
          <note pos="3516" vol="78" len="12" pan="0" key="47"/>
          <note pos="3528" vol="78" len="12" pan="0" key="74"/>
          <note pos="3540" vol="78" len="12" pan="0" key="69"/>
          <note pos="3552" vol="78" len="12" pan="0" key="66"/>
          <note pos="3564" vol="78" len="12" pan="0" key="61"/>
          <note pos="3576" vol="78" len="12" pan="0" key="57"/>
          <note pos="3588" vol="78" len="12" pan="0" key="54"/>
          <note pos="3600" vol="78" len="12" pan="0" key="78"/>
          <note pos="3612" vol="78" len="12" pan="0" key="74"/>
          <note pos="3624" vol="78" len="12" pan="0" key="69"/>
          <note pos="3636" vol="78" len="12" pan="0" key="66"/>
          <note pos="3672" vol="78" len="12" pan="0" key="81"/>
          <note pos="3684" vol="78" len="12" pan="0" key="78"/>
          <note pos="3696" vol="78" len="12" pan="0" key="73"/>
          <note pos="3708" vol="78" len="12" pan="0" key="69"/>
          <note pos="3720" vol="78" len="12" pan="0" key="66"/>
          <note pos="3732" vol="78" len="12" pan="0" key="61"/>
          <note pos="3744" vol="78" len="12" pan="0" key="74"/>
          <note pos="3756" vol="78" len="12" pan="0" key="71"/>
          <note pos="3768" vol="78" len="12" pan="0" key="66"/>
          <note pos="3780" vol="78" len="12" pan="0" key="61"/>
          <note pos="3792" vol="78" len="12" pan="0" key="69"/>
          <note pos="3804" vol="78" len="12" pan="0" key="66"/>
          <note pos="3816" vol="78" len="12" pan="0" key="61"/>
          <note pos="3828" vol="78" len="12" pan="0" key="57"/>
          <note pos="3840" vol="78" len="12" pan="0" key="68"/>
          <note pos="3852" vol="78" len="12" pan="0" key="64"/>
          <note pos="3864" vol="78" len="12" pan="0" key="61"/>
          <note pos="3876" vol="78" len="12" pan="0" key="56"/>
          <note pos="3912" vol="78" len="12" pan="0" key="73"/>
          <note pos="3924" vol="78" len="12" pan="0" key="69"/>
          <note pos="3936" vol="78" len="12" pan="0" key="68"/>
          <note pos="3948" vol="78" len="12" pan="0" key="64"/>
          <note pos="3960" vol="78" len="12" pan="0" key="56"/>
          <note pos="3972" vol="78" len="12" pan="0" key="52"/>
          <note pos="3984" vol="78" len="12" pan="0" key="76"/>
          <note pos="3996" vol="78" len="12" pan="0" key="71"/>
          <note pos="4008" vol="78" len="12" pan="0" key="68"/>
          <note pos="4020" vol="78" len="12" pan="0" key="64"/>
          <note pos="4056" vol="78" len="12" pan="0" key="81"/>
          <note pos="4068" vol="78" len="12" pan="0" key="78"/>
          <note pos="4080" vol="78" len="12" pan="0" key="78"/>
          <note pos="4092" vol="78" len="12" pan="0" key="69"/>
          <note pos="4104" vol="78" len="12" pan="0" key="66"/>
          <note pos="4116" vol="78" len="12" pan="0" key="64"/>
          <note pos="4128" vol="78" len="12" pan="0" key="73"/>
          <note pos="4140" vol="78" len="12" pan="0" key="69"/>
          <note pos="4152" vol="78" len="12" pan="0" key="66"/>
          <note pos="4164" vol="78" len="12" pan="0" key="61"/>
          <note pos="4176" vol="78" len="12" pan="0" key="68"/>
          <note pos="4188" vol="78" len="12" pan="0" key="64"/>
          <note pos="4200" vol="78" len="12" pan="0" key="61"/>
          <note pos="4212" vol="78" len="12" pan="0" key="56"/>
          <note pos="4224" vol="78" len="12" pan="0" key="69"/>
          <note pos="4236" vol="78" len="12" pan="0" key="66"/>
          <note pos="4248" vol="78" len="12" pan="0" key="57"/>
          <note pos="4260" vol="78" len="12" pan="0" key="54"/>
          <note pos="4272" vol="78" len="12" pan="0" key="52"/>
          <note pos="4284" vol="78" len="12" pan="0" key="49"/>
          <note pos="4296" vol="78" len="12" pan="0" key="74"/>
          <note pos="4308" vol="78" len="12" pan="0" key="69"/>
          <note pos="4320" vol="78" len="12" pan="0" key="66"/>
          <note pos="4332" vol="78" len="12" pan="0" key="61"/>
          <note pos="4344" vol="78" len="12" pan="0" key="57"/>
          <note pos="4356" vol="78" len="12" pan="0" key="54"/>
          <note pos="4368" vol="78" len="12" pan="0" key="78"/>
          <note pos="4380" vol="78" len="12" pan="0" key="74"/>
          <note pos="4392" vol="78" len="12" pan="0" key="69"/>
          <note pos="4404" vol="78" len="12" pan="0" key="66"/>
          <note pos="4440" vol="78" len="12" pan="0" key="81"/>
          <note pos="4452" vol="78" len="12" pan="0" key="78"/>
          <note pos="4464" vol="78" len="12" pan="0" key="73"/>
          <note pos="4476" vol="78" len="12" pan="0" key="69"/>
          <note pos="4488" vol="78" len="12" pan="0" key="66"/>
          <note pos="4500" vol="78" len="12" pan="0" key="61"/>
          <note pos="4512" vol="78" len="12" pan="0" key="74"/>
          <note pos="4524" vol="78" len="12" pan="0" key="71"/>
          <note pos="4536" vol="78" len="12" pan="0" key="66"/>
          <note pos="4548" vol="78" len="12" pan="0" key="61"/>
          <note pos="4560" vol="78" len="12" pan="0" key="69"/>
          <note pos="4572" vol="78" len="12" pan="0" key="66"/>
          <note pos="4584" vol="78" len="12" pan="0" key="61"/>
          <note pos="4596" vol="78" len="12" pan="0" key="57"/>
        </pattern>
        <pattern name="" steps="16" pos="47232" muted="0" type="1">
          <note pos="0" vol="78" len="24" pan="0" key="61"/>
          <note pos="24" vol="78" len="24" pan="0" key="68"/>
          <note pos="48" vol="78" len="24" pan="0" key="73"/>
          <note pos="72" vol="78" len="24" pan="0" key="68"/>
          <note pos="96" vol="78" len="24" pan="0" key="76"/>
          <note pos="120" vol="78" len="24" pan="0" key="68"/>
          <note pos="144" vol="78" len="24" pan="0" key="73"/>
          <note pos="168" vol="78" len="24" pan="0" key="68"/>
          <note pos="192" vol="78" len="24" pan="0" key="63"/>
          <note pos="216" vol="78" len="24" pan="0" key="68"/>
          <note pos="240" vol="78" len="24" pan="0" key="71"/>
          <note pos="264" vol="78" len="24" pan="0" key="68"/>
          <note pos="288" vol="78" len="24" pan="0" key="63"/>
          <note pos="312" vol="78" len="24" pan="0" key="68"/>
          <note pos="336" vol="78" len="24" pan="0" key="71"/>
          <note pos="360" vol="78" len="24" pan="0" key="68"/>
          <note pos="384" vol="78" len="24" pan="0" key="64"/>
          <note pos="408" vol="78" len="24" pan="0" key="68"/>
          <note pos="432" vol="78" len="24" pan="0" key="73"/>
          <note pos="456" vol="78" len="24" pan="0" key="68"/>
          <note pos="480" vol="78" len="24" pan="0" key="64"/>
          <note pos="504" vol="78" len="24" pan="0" key="68"/>
          <note pos="528" vol="78" len="24" pan="0" key="73"/>
          <note pos="552" vol="78" len="24" pan="0" key="68"/>
          <note pos="576" vol="78" len="24" pan="0" key="66"/>
          <note pos="600" vol="78" len="24" pan="0" key="71"/>
          <note pos="624" vol="78" len="24" pan="0" key="76"/>
          <note pos="648" vol="78" len="24" pan="0" key="71"/>
          <note pos="672" vol="78" len="24" pan="0" key="66"/>
          <note pos="696" vol="78" len="24" pan="0" key="71"/>
          <note pos="720" vol="78" len="24" pan="0" key="75"/>
          <note pos="744" vol="78" len="24" pan="0" key="71"/>
          <note pos="768" vol="78" len="24" pan="0" key="64"/>
          <note pos="792" vol="78" len="24" pan="0" key="68"/>
          <note pos="816" vol="78" len="24" pan="0" key="73"/>
          <note pos="840" vol="78" len="24" pan="0" key="68"/>
          <note pos="864" vol="78" len="24" pan="0" key="64"/>
          <note pos="888" vol="78" len="24" pan="0" key="68"/>
          <note pos="912" vol="78" len="24" pan="0" key="73"/>
          <note pos="936" vol="78" len="24" pan="0" key="68"/>
          <note pos="960" vol="78" len="24" pan="0" key="63"/>
          <note pos="984" vol="78" len="24" pan="0" key="66"/>
          <note pos="1008" vol="78" len="24" pan="0" key="71"/>
          <note pos="1032" vol="78" len="24" pan="0" key="66"/>
          <note pos="1056" vol="78" len="24" pan="0" key="63"/>
          <note pos="1080" vol="78" len="24" pan="0" key="66"/>
          <note pos="1104" vol="78" len="24" pan="0" key="71"/>
          <note pos="1128" vol="78" len="24" pan="0" key="66"/>
          <note pos="1152" vol="78" len="24" pan="0" key="64"/>
          <note pos="1176" vol="78" len="24" pan="0" key="68"/>
          <note pos="1200" vol="78" len="24" pan="0" key="73"/>
          <note pos="1224" vol="78" len="24" pan="0" key="68"/>
          <note pos="1248" vol="78" len="24" pan="0" key="64"/>
          <note pos="1272" vol="78" len="24" pan="0" key="68"/>
          <note pos="1296" vol="78" len="24" pan="0" key="73"/>
          <note pos="1320" vol="78" len="24" pan="0" key="68"/>
          <note pos="1344" vol="78" len="24" pan="0" key="66"/>
          <note pos="1368" vol="78" len="24" pan="0" key="68"/>
          <note pos="1392" vol="78" len="24" pan="0" key="66"/>
          <note pos="1416" vol="78" len="24" pan="0" key="64"/>
          <note pos="1440" vol="78" len="24" pan="0" key="63"/>
          <note pos="1464" vol="78" len="24" pan="0" key="60"/>
          <note pos="1488" vol="78" len="24" pan="0" key="66"/>
          <note pos="1512" vol="78" len="24" pan="0" key="63"/>
          <note pos="1536" vol="78" len="24" pan="0" key="61"/>
          <note pos="1560" vol="78" len="24" pan="0" key="68"/>
          <note pos="1584" vol="78" len="24" pan="0" key="73"/>
          <note pos="1608" vol="78" len="24" pan="0" key="68"/>
          <note pos="1632" vol="78" len="24" pan="0" key="61"/>
          <note pos="1656" vol="78" len="24" pan="0" key="68"/>
          <note pos="1680" vol="78" len="24" pan="0" key="73"/>
          <note pos="1704" vol="78" len="24" pan="0" key="68"/>
          <note pos="1728" vol="78" len="24" pan="0" key="63"/>
          <note pos="1752" vol="78" len="24" pan="0" key="68"/>
          <note pos="1776" vol="78" len="24" pan="0" key="71"/>
          <note pos="1800" vol="78" len="24" pan="0" key="68"/>
          <note pos="1824" vol="78" len="24" pan="0" key="63"/>
          <note pos="1848" vol="78" len="24" pan="0" key="68"/>
          <note pos="1872" vol="78" len="24" pan="0" key="71"/>
          <note pos="1896" vol="78" len="24" pan="0" key="68"/>
          <note pos="1920" vol="78" len="24" pan="0" key="61"/>
          <note pos="1944" vol="78" len="24" pan="0" key="66"/>
          <note pos="1968" vol="78" len="24" pan="0" key="70"/>
          <note pos="1992" vol="78" len="24" pan="0" key="66"/>
          <note pos="2016" vol="78" len="24" pan="0" key="61"/>
          <note pos="2040" vol="78" len="24" pan="0" key="66"/>
          <note pos="2064" vol="78" len="24" pan="0" key="70"/>
          <note pos="2088" vol="78" len="24" pan="0" key="66"/>
          <note pos="2112" vol="78" len="24" pan="0" key="61"/>
          <note pos="2136" vol="78" len="24" pan="0" key="66"/>
          <note pos="2160" vol="78" len="24" pan="0" key="70"/>
          <note pos="2184" vol="78" len="24" pan="0" key="66"/>
          <note pos="2208" vol="78" len="24" pan="0" key="61"/>
          <note pos="2232" vol="78" len="24" pan="0" key="66"/>
          <note pos="2256" vol="78" len="24" pan="0" key="70"/>
          <note pos="2280" vol="78" len="24" pan="0" key="66"/>
          <note pos="2304" vol="78" len="24" pan="0" key="66"/>
          <note pos="2328" vol="78" len="24" pan="0" key="69"/>
          <note pos="2352" vol="78" len="24" pan="0" key="73"/>
          <note pos="2376" vol="78" len="24" pan="0" key="69"/>
          <note pos="2400" vol="78" len="24" pan="0" key="66"/>
          <note pos="2424" vol="78" len="24" pan="0" key="69"/>
          <note pos="2448" vol="78" len="24" pan="0" key="73"/>
          <note pos="2472" vol="78" len="24" pan="0" key="69"/>
          <note pos="2496" vol="78" len="24" pan="0" key="63"/>
          <note pos="2520" vol="78" len="24" pan="0" key="68"/>
          <note pos="2544" vol="78" len="24" pan="0" key="73"/>
          <note pos="2568" vol="78" len="24" pan="0" key="68"/>
          <note pos="2592" vol="78" len="24" pan="0" key="63"/>
          <note pos="2616" vol="78" len="24" pan="0" key="68"/>
          <note pos="2640" vol="78" len="24" pan="0" key="73"/>
          <note pos="2664" vol="78" len="24" pan="0" key="68"/>
          <note pos="2688" vol="78" len="24" pan="0" key="66"/>
          <note pos="2712" vol="78" len="24" pan="0" key="71"/>
          <note pos="2736" vol="78" len="24" pan="0" key="75"/>
          <note pos="2760" vol="78" len="24" pan="0" key="71"/>
          <note pos="2784" vol="78" len="24" pan="0" key="66"/>
          <note pos="2808" vol="78" len="24" pan="0" key="71"/>
          <note pos="2832" vol="78" len="24" pan="0" key="75"/>
          <note pos="2856" vol="78" len="24" pan="0" key="71"/>
          <note pos="2880" vol="78" len="24" pan="0" key="63"/>
          <note pos="2880" vol="78" len="24" pan="0" key="51"/>
          <note pos="2904" vol="78" len="24" pan="0" key="63"/>
          <note pos="2904" vol="78" len="24" pan="0" key="51"/>
          <note pos="2976" vol="78" len="24" pan="0" key="71"/>
          <note pos="2976" vol="78" len="24" pan="0" key="59"/>
          <note pos="3000" vol="78" len="24" pan="0" key="71"/>
          <note pos="3000" vol="78" len="24" pan="0" key="59"/>
          <note pos="3072" vol="78" len="12" pan="0" key="56"/>
          <note pos="3084" vol="78" len="12" pan="0" key="61"/>
          <note pos="3096" vol="78" len="12" pan="0" key="64"/>
          <note pos="3108" vol="78" len="12" pan="0" key="68"/>
          <note pos="3120" vol="78" len="12" pan="0" key="73"/>
          <note pos="3132" vol="78" len="12" pan="0" key="76"/>
          <note pos="3144" vol="78" len="12" pan="0" key="80"/>
          <note pos="3156" vol="78" len="12" pan="0" key="83"/>
          <note pos="3168" vol="78" len="12" pan="0" key="73"/>
          <note pos="3180" vol="78" len="12" pan="0" key="83"/>
          <note pos="3192" vol="78" len="12" pan="0" key="80"/>
          <note pos="3204" vol="78" len="12" pan="0" key="76"/>
          <note pos="3216" vol="78" len="12" pan="0" key="73"/>
          <note pos="3228" vol="78" len="12" pan="0" key="68"/>
          <note pos="3240" vol="78" len="12" pan="0" key="64"/>
          <note pos="3252" vol="78" len="12" pan="0" key="61"/>
          <note pos="3264" vol="78" len="12" pan="0" key="56"/>
          <note pos="3276" vol="78" len="12" pan="0" key="61"/>
          <note pos="3288" vol="78" len="12" pan="0" key="64"/>
          <note pos="3300" vol="78" len="12" pan="0" key="68"/>
          <note pos="3312" vol="78" len="12" pan="0" key="73"/>
          <note pos="3324" vol="78" len="12" pan="0" key="76"/>
          <note pos="3336" vol="78" len="12" pan="0" key="80"/>
          <note pos="3348" vol="78" len="12" pan="0" key="83"/>
          <note pos="3360" vol="78" len="12" pan="0" key="73"/>
          <note pos="3372" vol="78" len="12" pan="0" key="83"/>
          <note pos="3384" vol="78" len="12" pan="0" key="80"/>
          <note pos="3396" vol="78" len="12" pan="0" key="76"/>
          <note pos="3408" vol="78" len="12" pan="0" key="73"/>
          <note pos="3420" vol="78" len="12" pan="0" key="68"/>
          <note pos="3432" vol="78" len="12" pan="0" key="64"/>
          <note pos="3444" vol="78" len="12" pan="0" key="61"/>
          <note pos="3456" vol="78" len="12" pan="0" key="54"/>
          <note pos="3468" vol="78" len="12" pan="0" key="59"/>
          <note pos="3480" vol="78" len="12" pan="0" key="63"/>
          <note pos="3492" vol="78" len="12" pan="0" key="66"/>
          <note pos="3504" vol="78" len="12" pan="0" key="69"/>
          <note pos="3516" vol="78" len="12" pan="0" key="73"/>
          <note pos="3528" vol="78" len="12" pan="0" key="76"/>
          <note pos="3540" vol="78" len="12" pan="0" key="80"/>
          <note pos="3552" vol="78" len="12" pan="0" key="83"/>
          <note pos="3564" vol="78" len="12" pan="0" key="80"/>
          <note pos="3576" vol="78" len="12" pan="0" key="75"/>
          <note pos="3588" vol="78" len="12" pan="0" key="71"/>
          <note pos="3600" vol="78" len="12" pan="0" key="66"/>
          <note pos="3612" vol="78" len="12" pan="0" key="61"/>
          <note pos="3624" vol="78" len="12" pan="0" key="59"/>
          <note pos="3636" vol="78" len="12" pan="0" key="54"/>
          <note pos="3648" vol="78" len="12" pan="0" key="54"/>
          <note pos="3660" vol="78" len="12" pan="0" key="59"/>
          <note pos="3672" vol="78" len="12" pan="0" key="63"/>
          <note pos="3684" vol="78" len="12" pan="0" key="66"/>
          <note pos="3696" vol="78" len="12" pan="0" key="69"/>
          <note pos="3708" vol="78" len="12" pan="0" key="73"/>
          <note pos="3720" vol="78" len="12" pan="0" key="76"/>
          <note pos="3732" vol="78" len="12" pan="0" key="80"/>
          <note pos="3744" vol="78" len="12" pan="0" key="83"/>
          <note pos="3756" vol="78" len="12" pan="0" key="80"/>
          <note pos="3768" vol="78" len="12" pan="0" key="75"/>
          <note pos="3780" vol="78" len="12" pan="0" key="71"/>
          <note pos="3792" vol="78" len="12" pan="0" key="66"/>
          <note pos="3804" vol="78" len="12" pan="0" key="61"/>
          <note pos="3816" vol="78" len="12" pan="0" key="59"/>
          <note pos="3828" vol="78" len="12" pan="0" key="54"/>
          <note pos="3840" vol="78" len="12" pan="0" key="54"/>
          <note pos="3852" vol="78" len="12" pan="0" key="57"/>
          <note pos="3864" vol="78" len="12" pan="0" key="61"/>
          <note pos="3876" vol="78" len="12" pan="0" key="64"/>
          <note pos="3888" vol="78" len="12" pan="0" key="66"/>
          <note pos="3900" vol="78" len="12" pan="0" key="73"/>
          <note pos="3912" vol="78" len="12" pan="0" key="76"/>
          <note pos="3924" vol="78" len="12" pan="0" key="78"/>
          <note pos="3936" vol="78" len="12" pan="0" key="82"/>
          <note pos="3948" vol="78" len="12" pan="0" key="78"/>
          <note pos="3960" vol="78" len="12" pan="0" key="76"/>
          <note pos="3972" vol="78" len="12" pan="0" key="73"/>
          <note pos="3984" vol="78" len="12" pan="0" key="66"/>
          <note pos="3996" vol="78" len="12" pan="0" key="64"/>
          <note pos="4008" vol="78" len="12" pan="0" key="61"/>
          <note pos="4020" vol="78" len="12" pan="0" key="57"/>
          <note pos="4032" vol="78" len="12" pan="0" key="54"/>
          <note pos="4044" vol="78" len="12" pan="0" key="57"/>
          <note pos="4056" vol="78" len="12" pan="0" key="61"/>
          <note pos="4068" vol="78" len="12" pan="0" key="64"/>
          <note pos="4080" vol="78" len="12" pan="0" key="66"/>
          <note pos="4092" vol="78" len="12" pan="0" key="73"/>
          <note pos="4104" vol="78" len="12" pan="0" key="76"/>
          <note pos="4116" vol="78" len="12" pan="0" key="78"/>
          <note pos="4128" vol="78" len="12" pan="0" key="82"/>
          <note pos="4140" vol="78" len="12" pan="0" key="78"/>
          <note pos="4152" vol="78" len="12" pan="0" key="76"/>
          <note pos="4164" vol="78" len="12" pan="0" key="73"/>
          <note pos="4176" vol="78" len="12" pan="0" key="66"/>
          <note pos="4188" vol="78" len="12" pan="0" key="64"/>
          <note pos="4200" vol="78" len="12" pan="0" key="61"/>
          <note pos="4212" vol="78" len="12" pan="0" key="57"/>
          <note pos="4224" vol="78" len="12" pan="0" key="51"/>
          <note pos="4236" vol="78" len="12" pan="0" key="54"/>
          <note pos="4248" vol="78" len="12" pan="0" key="57"/>
          <note pos="4260" vol="78" len="12" pan="0" key="63"/>
          <note pos="4272" vol="78" len="12" pan="0" key="66"/>
          <note pos="4284" vol="78" len="12" pan="0" key="69"/>
          <note pos="4296" vol="78" len="12" pan="0" key="73"/>
          <note pos="4308" vol="78" len="12" pan="0" key="76"/>
          <note pos="4320" vol="78" len="12" pan="0" key="81"/>
          <note pos="4332" vol="78" len="12" pan="0" key="78"/>
          <note pos="4344" vol="78" len="12" pan="0" key="73"/>
          <note pos="4356" vol="78" len="12" pan="0" key="69"/>
          <note pos="4368" vol="78" len="12" pan="0" key="66"/>
          <note pos="4380" vol="78" len="12" pan="0" key="63"/>
          <note pos="4392" vol="78" len="12" pan="0" key="57"/>
          <note pos="4404" vol="78" len="12" pan="0" key="54"/>
          <note pos="4416" vol="78" len="12" pan="0" key="51"/>
          <note pos="4428" vol="78" len="12" pan="0" key="54"/>
          <note pos="4440" vol="78" len="12" pan="0" key="57"/>
          <note pos="4452" vol="78" len="12" pan="0" key="63"/>
          <note pos="4464" vol="78" len="12" pan="0" key="66"/>
          <note pos="4476" vol="78" len="12" pan="0" key="69"/>
          <note pos="4488" vol="78" len="12" pan="0" key="73"/>
          <note pos="4500" vol="78" len="12" pan="0" key="76"/>
          <note pos="4512" vol="78" len="12" pan="0" key="81"/>
          <note pos="4524" vol="78" len="12" pan="0" key="78"/>
          <note pos="4536" vol="78" len="12" pan="0" key="73"/>
          <note pos="4548" vol="78" len="12" pan="0" key="69"/>
          <note pos="4560" vol="78" len="12" pan="0" key="66"/>
          <note pos="4572" vol="78" len="12" pan="0" key="63"/>
          <note pos="4584" vol="78" len="12" pan="0" key="57"/>
          <note pos="4596" vol="78" len="12" pan="0" key="54"/>
          <note pos="4608" vol="78" len="12" pan="0" key="52"/>
          <note pos="4620" vol="78" len="12" pan="0" key="61"/>
          <note pos="4632" vol="78" len="12" pan="0" key="64"/>
          <note pos="4644" vol="78" len="12" pan="0" key="68"/>
          <note pos="4656" vol="78" len="12" pan="0" key="73"/>
          <note pos="4668" vol="78" len="12" pan="0" key="76"/>
          <note pos="4680" vol="78" len="12" pan="0" key="80"/>
          <note pos="4692" vol="78" len="12" pan="0" key="83"/>
          <note pos="4704" vol="78" len="12" pan="0" key="73"/>
          <note pos="4716" vol="78" len="12" pan="0" key="83"/>
          <note pos="4728" vol="78" len="12" pan="0" key="80"/>
          <note pos="4740" vol="78" len="12" pan="0" key="76"/>
          <note pos="4752" vol="78" len="12" pan="0" key="73"/>
          <note pos="4764" vol="78" len="12" pan="0" key="68"/>
          <note pos="4776" vol="78" len="12" pan="0" key="64"/>
          <note pos="4788" vol="78" len="12" pan="0" key="61"/>
          <note pos="4800" vol="78" len="12" pan="0" key="52"/>
          <note pos="4812" vol="78" len="12" pan="0" key="61"/>
          <note pos="4824" vol="78" len="12" pan="0" key="64"/>
          <note pos="4836" vol="78" len="12" pan="0" key="68"/>
          <note pos="4848" vol="78" len="12" pan="0" key="73"/>
          <note pos="4860" vol="78" len="12" pan="0" key="76"/>
          <note pos="4872" vol="78" len="12" pan="0" key="80"/>
          <note pos="4884" vol="78" len="12" pan="0" key="83"/>
          <note pos="4896" vol="78" len="12" pan="0" key="73"/>
          <note pos="4908" vol="78" len="12" pan="0" key="83"/>
          <note pos="4920" vol="78" len="12" pan="0" key="80"/>
          <note pos="4932" vol="78" len="12" pan="0" key="76"/>
          <note pos="4944" vol="78" len="12" pan="0" key="73"/>
          <note pos="4956" vol="78" len="12" pan="0" key="68"/>
          <note pos="4968" vol="78" len="12" pan="0" key="64"/>
          <note pos="4980" vol="78" len="12" pan="0" key="61"/>
          <note pos="4992" vol="78" len="12" pan="0" key="54"/>
          <note pos="5004" vol="78" len="12" pan="0" key="59"/>
          <note pos="5016" vol="78" len="12" pan="0" key="63"/>
          <note pos="5028" vol="78" len="12" pan="0" key="66"/>
          <note pos="5040" vol="78" len="12" pan="0" key="69"/>
          <note pos="5052" vol="78" len="12" pan="0" key="73"/>
          <note pos="5064" vol="78" len="12" pan="0" key="76"/>
          <note pos="5076" vol="78" len="12" pan="0" key="80"/>
          <note pos="5088" vol="78" len="12" pan="0" key="83"/>
          <note pos="5100" vol="78" len="12" pan="0" key="80"/>
          <note pos="5112" vol="78" len="12" pan="0" key="75"/>
          <note pos="5124" vol="78" len="12" pan="0" key="71"/>
          <note pos="5136" vol="78" len="12" pan="0" key="66"/>
          <note pos="5148" vol="78" len="12" pan="0" key="61"/>
          <note pos="5160" vol="78" len="12" pan="0" key="59"/>
          <note pos="5172" vol="78" len="12" pan="0" key="54"/>
          <note pos="5184" vol="78" len="12" pan="0" key="54"/>
          <note pos="5196" vol="78" len="12" pan="0" key="59"/>
          <note pos="5208" vol="78" len="12" pan="0" key="63"/>
          <note pos="5220" vol="78" len="12" pan="0" key="66"/>
          <note pos="5232" vol="78" len="12" pan="0" key="69"/>
          <note pos="5244" vol="78" len="12" pan="0" key="73"/>
          <note pos="5256" vol="78" len="12" pan="0" key="76"/>
          <note pos="5268" vol="78" len="12" pan="0" key="80"/>
          <note pos="5280" vol="78" len="12" pan="0" key="83"/>
          <note pos="5292" vol="78" len="12" pan="0" key="80"/>
          <note pos="5304" vol="78" len="12" pan="0" key="75"/>
          <note pos="5316" vol="78" len="12" pan="0" key="71"/>
          <note pos="5328" vol="78" len="12" pan="0" key="66"/>
          <note pos="5340" vol="78" len="12" pan="0" key="61"/>
          <note pos="5352" vol="78" len="12" pan="0" key="59"/>
          <note pos="5364" vol="78" len="12" pan="0" key="54"/>
          <note pos="5376" vol="78" len="12" pan="0" key="54"/>
          <note pos="5388" vol="78" len="12" pan="0" key="57"/>
          <note pos="5400" vol="78" len="12" pan="0" key="63"/>
          <note pos="5412" vol="78" len="12" pan="0" key="66"/>
          <note pos="5424" vol="78" len="12" pan="0" key="69"/>
          <note pos="5436" vol="78" len="12" pan="0" key="73"/>
          <note pos="5448" vol="78" len="12" pan="0" key="76"/>
          <note pos="5460" vol="78" len="12" pan="0" key="81"/>
          <note pos="5472" vol="78" len="12" pan="0" key="75"/>
          <note pos="5484" vol="78" len="12" pan="0" key="81"/>
          <note pos="5496" vol="78" len="12" pan="0" key="76"/>
          <note pos="5508" vol="78" len="12" pan="0" key="73"/>
          <note pos="5520" vol="78" len="12" pan="0" key="69"/>
          <note pos="5532" vol="78" len="12" pan="0" key="66"/>
          <note pos="5544" vol="78" len="12" pan="0" key="63"/>
          <note pos="5556" vol="78" len="12" pan="0" key="57"/>
          <note pos="5568" vol="78" len="12" pan="0" key="54"/>
          <note pos="5580" vol="78" len="12" pan="0" key="57"/>
          <note pos="5592" vol="78" len="12" pan="0" key="63"/>
          <note pos="5604" vol="78" len="12" pan="0" key="66"/>
          <note pos="5616" vol="78" len="12" pan="0" key="69"/>
          <note pos="5628" vol="78" len="12" pan="0" key="73"/>
          <note pos="5640" vol="78" len="12" pan="0" key="76"/>
          <note pos="5652" vol="78" len="12" pan="0" key="81"/>
          <note pos="5664" vol="78" len="12" pan="0" key="75"/>
          <note pos="5676" vol="78" len="12" pan="0" key="81"/>
          <note pos="5688" vol="78" len="12" pan="0" key="76"/>
          <note pos="5700" vol="78" len="12" pan="0" key="73"/>
          <note pos="5712" vol="78" len="12" pan="0" key="69"/>
          <note pos="5724" vol="78" len="12" pan="0" key="66"/>
          <note pos="5736" vol="78" len="12" pan="0" key="63"/>
          <note pos="5748" vol="78" len="12" pan="0" key="57"/>
          <note pos="5760" vol="78" len="12" pan="0" key="57"/>
          <note pos="5772" vol="78" len="12" pan="0" key="61"/>
          <note pos="5784" vol="78" len="12" pan="0" key="64"/>
          <note pos="5796" vol="78" len="12" pan="0" key="68"/>
          <note pos="5808" vol="78" len="12" pan="0" key="71"/>
          <note pos="5820" vol="78" len="12" pan="0" key="75"/>
          <note pos="5832" vol="78" len="12" pan="0" key="78"/>
          <note pos="5844" vol="78" len="12" pan="0" key="81"/>
          <note pos="5856" vol="78" len="12" pan="0" key="73"/>
          <note pos="5868" vol="78" len="12" pan="0" key="81"/>
          <note pos="5880" vol="78" len="12" pan="0" key="78"/>
          <note pos="5892" vol="78" len="12" pan="0" key="75"/>
          <note pos="5904" vol="78" len="12" pan="0" key="71"/>
          <note pos="5916" vol="78" len="12" pan="0" key="68"/>
          <note pos="5928" vol="78" len="12" pan="0" key="64"/>
          <note pos="5940" vol="78" len="12" pan="0" key="61"/>
          <note pos="5952" vol="78" len="12" pan="0" key="57"/>
          <note pos="5964" vol="78" len="12" pan="0" key="61"/>
          <note pos="5976" vol="78" len="12" pan="0" key="64"/>
          <note pos="5988" vol="78" len="12" pan="0" key="68"/>
          <note pos="6000" vol="78" len="12" pan="0" key="71"/>
          <note pos="6012" vol="78" len="12" pan="0" key="75"/>
          <note pos="6024" vol="78" len="12" pan="0" key="78"/>
          <note pos="6036" vol="78" len="12" pan="0" key="81"/>
          <note pos="6048" vol="78" len="12" pan="0" key="72"/>
          <note pos="6060" vol="78" len="12" pan="0" key="81"/>
          <note pos="6072" vol="78" len="12" pan="0" key="78"/>
          <note pos="6084" vol="78" len="12" pan="0" key="75"/>
          <note pos="6096" vol="78" len="12" pan="0" key="71"/>
          <note pos="6108" vol="78" len="12" pan="0" key="68"/>
          <note pos="6120" vol="78" len="12" pan="0" key="64"/>
          <note pos="6132" vol="78" len="12" pan="0" key="61"/>
        </pattern>
        <pattern name="" steps="16" pos="30336" muted="0" type="1">
          <note pos="0" vol="152" len="12" pan="0" key="57"/>
          <note pos="12" vol="152" len="12" pan="0" key="57"/>
          <note pos="24" vol="152" len="12" pan="0" key="56"/>
          <note pos="36" vol="152" len="12" pan="0" key="56"/>
          <note pos="48" vol="152" len="12" pan="0" key="54"/>
          <note pos="60" vol="152" len="12" pan="0" key="54"/>
          <note pos="72" vol="152" len="12" pan="0" key="61"/>
          <note pos="84" vol="152" len="12" pan="0" key="61"/>
          <note pos="96" vol="152" len="12" pan="0" key="59"/>
          <note pos="108" vol="152" len="12" pan="0" key="59"/>
          <note pos="120" vol="152" len="12" pan="0" key="57"/>
          <note pos="132" vol="152" len="12" pan="0" key="57"/>
          <note pos="144" vol="152" len="12" pan="0" key="59"/>
          <note pos="156" vol="152" len="12" pan="0" key="59"/>
          <note pos="168" vol="152" len="12" pan="0" key="61"/>
          <note pos="180" vol="152" len="12" pan="0" key="61"/>
          <note pos="192" vol="152" len="48" pan="0" key="62"/>
          <note pos="240" vol="152" len="12" pan="0" key="61"/>
          <note pos="252" vol="152" len="12" pan="0" key="62"/>
          <note pos="264" vol="152" len="12" pan="0" key="64"/>
          <note pos="276" vol="152" len="12" pan="0" key="66"/>
          <note pos="288" vol="152" len="12" pan="0" key="68"/>
          <note pos="300" vol="152" len="12" pan="0" key="66"/>
          <note pos="312" vol="152" len="12" pan="0" key="64"/>
          <note pos="324" vol="152" len="12" pan="0" key="66"/>
          <note pos="336" vol="152" len="12" pan="0" key="69"/>
          <note pos="348" vol="152" len="12" pan="0" key="68"/>
          <note pos="360" vol="152" len="12" pan="0" key="66"/>
          <note pos="372" vol="152" len="12" pan="0" key="68"/>
          <note pos="384" vol="152" len="24" pan="0" key="68"/>
          <note pos="408" vol="152" len="24" pan="0" key="69"/>
          <note pos="456" vol="152" len="48" pan="0" key="66"/>
          <note pos="504" vol="152" len="12" pan="0" key="62"/>
          <note pos="516" vol="152" len="12" pan="0" key="62"/>
          <note pos="528" vol="152" len="12" pan="0" key="66"/>
          <note pos="540" vol="152" len="12" pan="0" key="66"/>
          <note pos="552" vol="152" len="12" pan="0" key="68"/>
          <note pos="564" vol="152" len="12" pan="0" key="68"/>
          <note pos="576" vol="152" len="24" pan="0" key="71"/>
          <note pos="600" vol="152" len="12" pan="0" key="69"/>
          <note pos="612" vol="152" len="12" pan="0" key="71"/>
          <note pos="624" vol="152" len="24" pan="0" key="73"/>
          <note pos="648" vol="152" len="12" pan="0" key="71"/>
          <note pos="660" vol="152" len="12" pan="0" key="73"/>
          <note pos="672" vol="152" len="12" pan="0" key="76"/>
          <note pos="684" vol="152" len="12" pan="0" key="74"/>
          <note pos="696" vol="152" len="12" pan="0" key="73"/>
          <note pos="708" vol="152" len="12" pan="0" key="71"/>
          <note pos="720" vol="152" len="12" pan="0" key="69"/>
          <note pos="732" vol="152" len="12" pan="0" key="68"/>
          <note pos="744" vol="152" len="12" pan="0" key="66"/>
          <note pos="756" vol="152" len="12" pan="0" key="64"/>
        </pattern>
        <pattern name="" steps="16" pos="44928" muted="0" type="1">
          <note pos="0" vol="78" len="240" pan="0" key="73"/>
          <note pos="240" vol="78" len="48" pan="0" key="76"/>
          <note pos="288" vol="78" len="48" pan="0" key="78"/>
          <note pos="336" vol="78" len="48" pan="0" key="80"/>
          <note pos="384" vol="78" len="72" pan="0" key="81"/>
          <note pos="456" vol="78" len="72" pan="0" key="80"/>
          <note pos="528" vol="78" len="48" pan="0" key="78"/>
          <note pos="576" vol="78" len="48" pan="0" key="76"/>
          <note pos="624" vol="78" len="48" pan="0" key="73"/>
          <note pos="672" vol="78" len="48" pan="0" key="76"/>
          <note pos="720" vol="78" len="48" pan="0" key="80"/>
          <note pos="768" vol="78" len="192" pan="0" key="78"/>
          <note pos="960" vol="78" len="96" pan="0" key="75"/>
          <note pos="1056" vol="78" len="96" pan="0" key="71"/>
        </pattern>
        <pattern name="" steps="16" pos="38400" muted="0" type="1">
          <note pos="0" vol="78" len="12" pan="0" key="73"/>
          <note pos="12" vol="78" len="12" pan="0" key="71"/>
          <note pos="24" vol="78" len="12" pan="0" key="68"/>
          <note pos="36" vol="78" len="12" pan="0" key="71"/>
          <note pos="48" vol="78" len="12" pan="0" key="66"/>
          <note pos="60" vol="78" len="12" pan="0" key="71"/>
          <note pos="72" vol="78" len="12" pan="0" key="68"/>
          <note pos="84" vol="78" len="12" pan="0" key="71"/>
          <note pos="96" vol="78" len="12" pan="0" key="73"/>
          <note pos="108" vol="78" len="12" pan="0" key="71"/>
          <note pos="120" vol="78" len="12" pan="0" key="68"/>
          <note pos="132" vol="78" len="12" pan="0" key="71"/>
          <note pos="144" vol="78" len="12" pan="0" key="66"/>
          <note pos="156" vol="78" len="12" pan="0" key="71"/>
          <note pos="168" vol="78" len="12" pan="0" key="68"/>
          <note pos="180" vol="78" len="12" pan="0" key="71"/>
          <note pos="192" vol="78" len="12" pan="0" key="76"/>
          <note pos="204" vol="78" len="12" pan="0" key="73"/>
          <note pos="216" vol="78" len="12" pan="0" key="71"/>
          <note pos="228" vol="78" len="12" pan="0" key="73"/>
          <note pos="240" vol="78" len="12" pan="0" key="68"/>
          <note pos="252" vol="78" len="12" pan="0" key="73"/>
          <note pos="264" vol="78" len="12" pan="0" key="71"/>
          <note pos="276" vol="78" len="12" pan="0" key="73"/>
          <note pos="288" vol="78" len="12" pan="0" key="76"/>
          <note pos="300" vol="78" len="12" pan="0" key="73"/>
          <note pos="312" vol="78" len="12" pan="0" key="71"/>
          <note pos="324" vol="78" len="12" pan="0" key="73"/>
          <note pos="336" vol="78" len="12" pan="0" key="68"/>
          <note pos="348" vol="78" len="12" pan="0" key="73"/>
          <note pos="360" vol="78" len="12" pan="0" key="71"/>
          <note pos="372" vol="78" len="12" pan="0" key="73"/>
        </pattern>
        <pattern name="" steps="16" pos="38976" muted="0" type="1">
          <note pos="0" vol="78" len="12" pan="0" key="68"/>
          <note pos="12" vol="78" len="12" pan="0" key="66"/>
          <note pos="24" vol="78" len="12" pan="0" key="64"/>
          <note pos="36" vol="78" len="12" pan="0" key="66"/>
          <note pos="48" vol="78" len="12" pan="0" key="61"/>
          <note pos="60" vol="78" len="12" pan="0" key="66"/>
          <note pos="72" vol="78" len="12" pan="0" key="64"/>
          <note pos="84" vol="78" len="12" pan="0" key="66"/>
          <note pos="96" vol="78" len="12" pan="0" key="68"/>
          <note pos="108" vol="78" len="12" pan="0" key="66"/>
          <note pos="120" vol="78" len="12" pan="0" key="64"/>
          <note pos="132" vol="78" len="12" pan="0" key="66"/>
          <note pos="144" vol="78" len="12" pan="0" key="61"/>
          <note pos="156" vol="78" len="12" pan="0" key="66"/>
          <note pos="168" vol="78" len="12" pan="0" key="64"/>
          <note pos="180" vol="78" len="12" pan="0" key="66"/>
          <note pos="192" vol="78" len="12" pan="0" key="71"/>
          <note pos="204" vol="78" len="12" pan="0" key="68"/>
          <note pos="216" vol="78" len="12" pan="0" key="66"/>
          <note pos="228" vol="78" len="12" pan="0" key="68"/>
          <note pos="240" vol="78" len="12" pan="0" key="64"/>
          <note pos="252" vol="78" len="12" pan="0" key="68"/>
          <note pos="264" vol="78" len="12" pan="0" key="66"/>
          <note pos="276" vol="78" len="12" pan="0" key="68"/>
          <note pos="288" vol="78" len="12" pan="0" key="71"/>
          <note pos="300" vol="78" len="12" pan="0" key="68"/>
          <note pos="312" vol="78" len="12" pan="0" key="66"/>
          <note pos="324" vol="78" len="12" pan="0" key="68"/>
          <note pos="336" vol="78" len="12" pan="0" key="64"/>
          <note pos="348" vol="78" len="12" pan="0" key="68"/>
          <note pos="360" vol="78" len="12" pan="0" key="66"/>
          <note pos="372" vol="78" len="12" pan="0" key="68"/>
        </pattern>
        <pattern name="" steps="16" pos="37632" muted="0" type="1">
          <note pos="0" vol="78" len="12" pan="0" key="78"/>
          <note pos="0" vol="78" len="12" pan="0" key="0"/>
          <note pos="12" vol="78" len="12" pan="0" key="73"/>
          <note pos="24" vol="78" len="12" pan="0" key="70"/>
          <note pos="24" vol="78" len="12" pan="0" key="1"/>
          <note pos="36" vol="78" len="12" pan="0" key="73"/>
          <note pos="48" vol="78" len="12" pan="0" key="66"/>
          <note pos="60" vol="78" len="12" pan="0" key="73"/>
          <note pos="72" vol="78" len="12" pan="0" key="70"/>
          <note pos="84" vol="78" len="12" pan="0" key="73"/>
          <note pos="96" vol="78" len="12" pan="0" key="78"/>
          <note pos="108" vol="78" len="12" pan="0" key="73"/>
          <note pos="120" vol="78" len="12" pan="0" key="70"/>
          <note pos="132" vol="78" len="12" pan="0" key="73"/>
          <note pos="144" vol="78" len="12" pan="0" key="66"/>
          <note pos="156" vol="78" len="12" pan="0" key="73"/>
          <note pos="168" vol="78" len="12" pan="0" key="70"/>
          <note pos="180" vol="78" len="12" pan="0" key="73"/>
        </pattern>
        <pattern name="" steps="16" pos="53568" muted="0" type="1">
          <note pos="0" vol="193" len="120" pan="0" key="63"/>
          <note pos="120" vol="193" len="24" pan="0" key="58"/>
          <note pos="144" vol="193" len="24" pan="0" key="66"/>
          <note pos="168" vol="193" len="24" pan="0" key="58"/>
          <note pos="192" vol="193" len="120" pan="0" key="65"/>
          <note pos="312" vol="193" len="12" pan="0" key="65"/>
          <note pos="324" vol="193" len="12" pan="0" key="66"/>
          <note pos="336" vol="193" len="12" pan="0" key="70"/>
          <note pos="348" vol="193" len="12" pan="0" key="66"/>
          <note pos="360" vol="193" len="12" pan="0" key="65"/>
          <note pos="372" vol="193" len="12" pan="0" key="66"/>
          <note pos="384" vol="193" len="144" pan="0" key="70"/>
          <note pos="528" vol="193" len="24" pan="0" key="68"/>
          <note pos="552" vol="193" len="24" pan="0" key="66"/>
          <note pos="576" vol="193" len="48" pan="0" key="65"/>
          <note pos="624" vol="197" len="48" pan="0" key="66"/>
          <note pos="672" vol="193" len="12" pan="0" key="61"/>
          <note pos="684" vol="193" len="12" pan="0" key="61"/>
          <note pos="696" vol="193" len="12" pan="0" key="61"/>
          <note pos="708" vol="193" len="12" pan="0" key="61"/>
          <note pos="720" vol="193" len="12" pan="0" key="58"/>
          <note pos="732" vol="193" len="12" pan="0" key="54"/>
          <note pos="744" vol="193" len="12" pan="0" key="56"/>
          <note pos="756" vol="193" len="12" pan="0" key="58"/>
          <note pos="768" vol="193" len="96" pan="0" key="59"/>
          <note pos="864" vol="193" len="48" pan="0" key="63"/>
          <note pos="912" vol="193" len="48" pan="0" key="66"/>
          <note pos="960" vol="193" len="96" pan="0" key="66"/>
          <note pos="1056" vol="193" len="12" pan="0" key="65"/>
          <note pos="1068" vol="193" len="12" pan="0" key="58"/>
          <note pos="1080" vol="193" len="12" pan="0" key="58"/>
          <note pos="1092" vol="193" len="12" pan="0" key="58"/>
          <note pos="1104" vol="193" len="12" pan="0" key="66"/>
          <note pos="1116" vol="193" len="12" pan="0" key="63"/>
          <note pos="1128" vol="193" len="12" pan="0" key="65"/>
          <note pos="1140" vol="193" len="12" pan="0" key="66"/>
          <note pos="1152" vol="193" len="48" pan="0" key="73"/>
          <note pos="1200" vol="193" len="12" pan="0" key="71"/>
          <note pos="1212" vol="193" len="12" pan="0" key="73"/>
          <note pos="1224" vol="193" len="48" pan="0" key="71"/>
          <note pos="1272" vol="193" len="12" pan="0" key="70"/>
          <note pos="1284" vol="193" len="12" pan="0" key="71"/>
          <note pos="1296" vol="193" len="12" pan="0" key="70"/>
          <note pos="1308" vol="193" len="12" pan="0" key="68"/>
          <note pos="1320" vol="193" len="12" pan="0" key="66"/>
          <note pos="1332" vol="193" len="12" pan="0" key="70"/>
          <note pos="1344" vol="193" len="72" pan="0" key="68"/>
          <note pos="1416" vol="193" len="12" pan="0" key="66"/>
          <note pos="1428" vol="193" len="12" pan="0" key="68"/>
          <note pos="1440" vol="193" len="12" pan="0" key="70"/>
          <note pos="1452" vol="193" len="12" pan="0" key="71"/>
          <note pos="1464" vol="193" len="12" pan="0" key="70"/>
          <note pos="1476" vol="193" len="12" pan="0" key="68"/>
          <note pos="1488" vol="193" len="12" pan="0" key="70"/>
          <note pos="1500" vol="193" len="12" pan="0" key="68"/>
          <note pos="1512" vol="193" len="12" pan="0" key="66"/>
          <note pos="1524" vol="193" len="12" pan="0" key="65"/>
          <note pos="1536" vol="193" len="48" pan="0" key="66"/>
          <note pos="1584" vol="193" len="12" pan="0" key="58"/>
          <note pos="1596" vol="193" len="12" pan="0" key="58"/>
          <note pos="1608" vol="193" len="48" pan="0" key="65"/>
          <note pos="1656" vol="193" len="12" pan="0" key="58"/>
          <note pos="1668" vol="193" len="12" pan="0" key="58"/>
          <note pos="1680" vol="193" len="24" pan="0" key="66"/>
          <note pos="1704" vol="193" len="12" pan="0" key="58"/>
          <note pos="1716" vol="193" len="12" pan="0" key="58"/>
          <note pos="1728" vol="193" len="144" pan="0" key="70"/>
          <note pos="1872" vol="193" len="48" pan="0" key="65"/>
          <note pos="1920" vol="193" len="12" pan="0" key="63"/>
          <note pos="1932" vol="193" len="12" pan="0" key="65"/>
          <note pos="1944" vol="193" len="216" pan="0" key="63"/>
          <note pos="2160" vol="193" len="48" pan="0" key="66"/>
          <note pos="2208" vol="193" len="24" pan="0" key="68"/>
          <note pos="2232" vol="193" len="12" pan="0" key="66"/>
          <note pos="2244" vol="193" len="12" pan="0" key="68"/>
          <note pos="2256" vol="193" len="24" pan="0" key="70"/>
          <note pos="2280" vol="193" len="12" pan="0" key="68"/>
          <note pos="2292" vol="193" len="12" pan="0" key="70"/>
          <note pos="2304" vol="193" len="72" pan="0" key="71"/>
          <note pos="2376" vol="193" len="72" pan="0" key="70"/>
          <note pos="2448" vol="193" len="48" pan="0" key="68"/>
          <note pos="2496" vol="193" len="12" pan="0" key="66"/>
          <note pos="2508" vol="193" len="12" pan="0" key="65"/>
          <note pos="2520" vol="193" len="12" pan="0" key="63"/>
          <note pos="2532" vol="193" len="12" pan="0" key="58"/>
          <note pos="2544" vol="193" len="12" pan="0" key="63"/>
          <note pos="2556" vol="193" len="12" pan="0" key="61"/>
          <note pos="2568" vol="193" len="12" pan="0" key="59"/>
          <note pos="2580" vol="193" len="12" pan="0" key="58"/>
          <note pos="2592" vol="193" len="12" pan="0" key="66"/>
          <note pos="2604" vol="193" len="12" pan="0" key="65"/>
          <note pos="2616" vol="193" len="12" pan="0" key="63"/>
          <note pos="2628" vol="193" len="12" pan="0" key="58"/>
          <note pos="2640" vol="193" len="48" pan="0" key="75"/>
          <note pos="2688" vol="193" len="192" pan="0" key="73"/>
        </pattern>
        <pattern name="" steps="16" pos="56832" muted="0" type="1">
          <note pos="0" vol="78" len="120" pan="0" key="58"/>
          <note pos="120" vol="78" len="24" pan="0" key="54"/>
          <note pos="144" vol="78" len="24" pan="0" key="63"/>
          <note pos="168" vol="78" len="24" pan="0" key="54"/>
          <note pos="192" vol="78" len="120" pan="0" key="61"/>
          <note pos="312" vol="78" len="12" pan="0" key="61"/>
          <note pos="324" vol="78" len="12" pan="0" key="63"/>
          <note pos="336" vol="78" len="12" pan="0" key="66"/>
          <note pos="348" vol="78" len="12" pan="0" key="63"/>
          <note pos="360" vol="78" len="12" pan="0" key="61"/>
          <note pos="372" vol="78" len="12" pan="0" key="63"/>
          <note pos="384" vol="78" len="144" pan="0" key="66"/>
          <note pos="528" vol="78" len="24" pan="0" key="65"/>
          <note pos="552" vol="78" len="24" pan="0" key="63"/>
          <note pos="576" vol="78" len="48" pan="0" key="61"/>
          <note pos="624" vol="78" len="48" pan="0" key="63"/>
          <note pos="672" vol="78" len="12" pan="0" key="58"/>
          <note pos="684" vol="78" len="12" pan="0" key="58"/>
          <note pos="696" vol="78" len="12" pan="0" key="58"/>
          <note pos="708" vol="78" len="12" pan="0" key="58"/>
          <note pos="720" vol="78" len="12" pan="0" key="54"/>
          <note pos="732" vol="78" len="12" pan="0" key="51"/>
          <note pos="744" vol="78" len="12" pan="0" key="53"/>
          <note pos="756" vol="78" len="12" pan="0" key="54"/>
          <note pos="768" vol="78" len="96" pan="0" key="56"/>
          <note pos="864" vol="78" len="48" pan="0" key="59"/>
          <note pos="912" vol="78" len="48" pan="0" key="63"/>
          <note pos="960" vol="78" len="96" pan="0" key="63"/>
          <note pos="1056" vol="78" len="12" pan="0" key="61"/>
          <note pos="1068" vol="78" len="12" pan="0" key="54"/>
          <note pos="1080" vol="78" len="12" pan="0" key="54"/>
          <note pos="1092" vol="78" len="12" pan="0" key="54"/>
          <note pos="1104" vol="78" len="12" pan="0" key="63"/>
          <note pos="1116" vol="78" len="12" pan="0" key="59"/>
          <note pos="1128" vol="78" len="12" pan="0" key="61"/>
          <note pos="1140" vol="78" len="12" pan="0" key="63"/>
          <note pos="1152" vol="78" len="48" pan="0" key="70"/>
          <note pos="1200" vol="78" len="12" pan="0" key="68"/>
          <note pos="1212" vol="78" len="12" pan="0" key="70"/>
          <note pos="1224" vol="78" len="48" pan="0" key="68"/>
          <note pos="1272" vol="78" len="12" pan="0" key="66"/>
          <note pos="1284" vol="78" len="12" pan="0" key="68"/>
          <note pos="1296" vol="78" len="12" pan="0" key="66"/>
          <note pos="1308" vol="78" len="12" pan="0" key="65"/>
          <note pos="1320" vol="78" len="12" pan="0" key="63"/>
          <note pos="1332" vol="78" len="12" pan="0" key="66"/>
          <note pos="1344" vol="78" len="72" pan="0" key="65"/>
          <note pos="1416" vol="78" len="12" pan="0" key="63"/>
          <note pos="1428" vol="78" len="12" pan="0" key="65"/>
          <note pos="1440" vol="78" len="12" pan="0" key="66"/>
          <note pos="1452" vol="78" len="12" pan="0" key="68"/>
          <note pos="1464" vol="78" len="12" pan="0" key="66"/>
          <note pos="1476" vol="78" len="12" pan="0" key="65"/>
          <note pos="1488" vol="78" len="12" pan="0" key="66"/>
          <note pos="1500" vol="78" len="12" pan="0" key="65"/>
          <note pos="1512" vol="78" len="12" pan="0" key="63"/>
          <note pos="1524" vol="78" len="12" pan="0" key="61"/>
          <note pos="1536" vol="78" len="48" pan="0" key="63"/>
          <note pos="1584" vol="78" len="12" pan="0" key="54"/>
          <note pos="1596" vol="78" len="12" pan="0" key="54"/>
          <note pos="1608" vol="78" len="48" pan="0" key="61"/>
          <note pos="1656" vol="78" len="12" pan="0" key="54"/>
          <note pos="1668" vol="78" len="12" pan="0" key="54"/>
          <note pos="1680" vol="78" len="24" pan="0" key="63"/>
          <note pos="1704" vol="78" len="12" pan="0" key="54"/>
          <note pos="1716" vol="78" len="12" pan="0" key="54"/>
          <note pos="1728" vol="78" len="144" pan="0" key="66"/>
          <note pos="1872" vol="78" len="48" pan="0" key="61"/>
          <note pos="1920" vol="78" len="12" pan="0" key="60"/>
          <note pos="1932" vol="78" len="12" pan="0" key="61"/>
          <note pos="1944" vol="78" len="216" pan="0" key="60"/>
          <note pos="2160" vol="78" len="48" pan="0" key="63"/>
          <note pos="2208" vol="78" len="24" pan="0" key="65"/>
          <note pos="2232" vol="78" len="12" pan="0" key="63"/>
          <note pos="2244" vol="78" len="12" pan="0" key="65"/>
          <note pos="2256" vol="78" len="24" pan="0" key="66"/>
          <note pos="2280" vol="78" len="12" pan="0" key="65"/>
          <note pos="2292" vol="78" len="12" pan="0" key="66"/>
          <note pos="2304" vol="78" len="72" pan="0" key="68"/>
          <note pos="2376" vol="78" len="72" pan="0" key="66"/>
          <note pos="2448" vol="78" len="48" pan="0" key="65"/>
          <note pos="2496" vol="193" len="12" pan="0" key="63"/>
          <note pos="2508" vol="193" len="12" pan="0" key="61"/>
          <note pos="2520" vol="193" len="12" pan="0" key="59"/>
          <note pos="2532" vol="193" len="12" pan="0" key="54"/>
          <note pos="2544" vol="193" len="12" pan="0" key="59"/>
          <note pos="2556" vol="193" len="12" pan="0" key="58"/>
          <note pos="2568" vol="193" len="12" pan="0" key="56"/>
          <note pos="2580" vol="193" len="12" pan="0" key="54"/>
          <note pos="2592" vol="193" len="12" pan="0" key="63"/>
          <note pos="2604" vol="193" len="12" pan="0" key="61"/>
          <note pos="2616" vol="193" len="12" pan="0" key="59"/>
          <note pos="2628" vol="193" len="12" pan="0" key="54"/>
          <note pos="2640" vol="193" len="48" pan="0" key="71"/>
          <note pos="2688" vol="193" len="192" pan="0" key="68"/>
        </pattern>
      </track>
      <track name="Orchestra Soundfont 2 COMBO" solo="0" muted="1" type="0">
        <instrumenttrack basenote="57" fxch="0" usemasterpitch="1" pitch="0" vol="100" pan="0" pitchrange="2">
          <instrument name="sf2player">
            <sf2player reverbRoomSize="0.2" src="/home/pass/samples/soundfonts/Orchestra Soundfont 2 COMBO.sf2" chorusOn="0" chorusDepth="8" gain="1" reverbDamping="0" chorusNum="3" chorusLevel="2" bank="0" reverbLevel="0.9" patch="48" reverbOn="0" chorusSpeed="0.3" reverbWidth="0.5"/>
          </instrument>
          <eldata fwet="0" fcut="14000" ftype="0" fres="0.5">
            <elvol x100="0" userwavefile="" dec="0.5" amt="0" pdel="0" hold="0.5" lamt="0" lpdel="0" lshp="0" lspd_denominator="4" att="0" ctlenvamt="0" lspd="0.1" lspd_syncmode="0" rel="0.1" latt="0" lspd_numerator="4" sustain="0.5"/>
            <elcut x100="0" userwavefile="" dec="0.5" amt="0" pdel="0" hold="0.5" lamt="0" lpdel="0" lshp="0" lspd_denominator="4" att="0" ctlenvamt="0" lspd="0.1" lspd_syncmode="0" rel="0.1" latt="0" lspd_numerator="4" sustain="0.5"/>
            <elres x100="0" userwavefile="" dec="0.5" amt="0" pdel="0" hold="0.5" lamt="0" lpdel="0" lshp="0" lspd_denominator="4" att="0" ctlenvamt="0" lspd="0.1" lspd_syncmode="0" rel="0.1" latt="0" lspd_numerator="4" sustain="0.5"/>
          </eldata>
          <chordcreator chord-enabled="0" chord="0" chordrange="1"/>
          <arpeggiator arprange="1" arpmode="0" arp="0" arptime_numerator="4" arpmiss="0" arptime_denominator="4" arpcycle="0" arpskip="0" arptime_syncmode="0" arpgate="100" arptime="200" arpdir="0" arp-enabled="0"/>
          <midiport fixedoutputnote="-1" outputprogram="1" inputcontroller="0" writable="0" fixedoutputvelocity="-1" readable="0" outputchannel="1" basevelocity="63" outputcontroller="0" fixedinputvelocity="-1" inputchannel="0"/>
          <fxchain numofeffects="0" enabled="0"/>
        </instrumenttrack>
        <pattern name="" steps="16" pos="384" muted="0" type="1">
          <note pos="0" vol="78" len="48" pan="0" key="49"/>
          <note pos="384" vol="78" len="48" pan="0" key="49"/>
          <note pos="768" vol="78" len="48" pan="0" key="49"/>
          <note pos="1152" vol="78" len="48" pan="0" key="49"/>
          <note pos="1536" vol="78" len="384" pan="0" key="49"/>
          <note pos="1920" vol="78" len="384" pan="0" key="49"/>
          <note pos="2304" vol="78" len="384" pan="0" key="49"/>
          <note pos="2688" vol="78" len="384" pan="0" key="49"/>
          <note pos="3072" vol="78" len="48" pan="0" key="61"/>
          <note pos="3072" vol="78" len="48" pan="0" key="49"/>
          <note pos="3120" vol="78" len="48" pan="0" key="61"/>
          <note pos="3120" vol="78" len="48" pan="0" key="49"/>
          <note pos="3168" vol="78" len="48" pan="0" key="61"/>
          <note pos="3168" vol="78" len="48" pan="0" key="49"/>
          <note pos="3216" vol="78" len="48" pan="0" key="64"/>
          <note pos="3216" vol="78" len="48" pan="0" key="52"/>
          <note pos="3264" vol="78" len="48" pan="0" key="63"/>
          <note pos="3264" vol="78" len="48" pan="0" key="51"/>
          <note pos="3312" vol="78" len="48" pan="0" key="63"/>
          <note pos="3312" vol="78" len="48" pan="0" key="51"/>
          <note pos="3360" vol="78" len="48" pan="0" key="63"/>
          <note pos="3360" vol="78" len="48" pan="0" key="51"/>
          <note pos="3408" vol="78" len="48" pan="0" key="68"/>
          <note pos="3408" vol="78" len="48" pan="0" key="56"/>
          <note pos="3456" vol="78" len="48" pan="0" key="68"/>
          <note pos="3456" vol="78" len="48" pan="0" key="56"/>
          <note pos="3504" vol="78" len="48" pan="0" key="68"/>
          <note pos="3504" vol="78" len="48" pan="0" key="56"/>
          <note pos="3552" vol="78" len="48" pan="0" key="68"/>
          <note pos="3552" vol="78" len="48" pan="0" key="56"/>
          <note pos="3600" vol="78" len="24" pan="0" key="66"/>
          <note pos="3600" vol="78" len="24" pan="0" key="54"/>
          <note pos="3624" vol="78" len="24" pan="0" key="64"/>
          <note pos="3624" vol="78" len="24" pan="0" key="52"/>
          <note pos="3648" vol="78" len="48" pan="0" key="63"/>
          <note pos="3648" vol="78" len="48" pan="0" key="51"/>
          <note pos="3696" vol="78" len="48" pan="0" key="64"/>
          <note pos="3696" vol="78" len="48" pan="0" key="52"/>
          <note pos="3744" vol="78" len="48" pan="0" key="59"/>
          <note pos="3744" vol="78" len="48" pan="0" key="47"/>
          <note pos="3792" vol="78" len="48" pan="0" key="56"/>
          <note pos="3792" vol="78" len="48" pan="0" key="44"/>
          <note pos="3840" vol="78" len="48" pan="0" key="57"/>
          <note pos="3840" vol="78" len="48" pan="0" key="45"/>
          <note pos="3888" vol="78" len="48" pan="0" key="57"/>
          <note pos="3888" vol="78" len="48" pan="0" key="45"/>
          <note pos="3936" vol="78" len="48" pan="0" key="57"/>
          <note pos="3936" vol="78" len="48" pan="0" key="45"/>
          <note pos="3984" vol="78" len="48" pan="0" key="64"/>
          <note pos="3984" vol="78" len="48" pan="0" key="52"/>
          <note pos="4032" vol="78" len="48" pan="0" key="63"/>
          <note pos="4032" vol="78" len="48" pan="0" key="51"/>
          <note pos="4080" vol="78" len="48" pan="0" key="63"/>
          <note pos="4080" vol="78" len="48" pan="0" key="51"/>
          <note pos="4128" vol="78" len="48" pan="0" key="63"/>
          <note pos="4128" vol="78" len="48" pan="0" key="51"/>
          <note pos="4176" vol="78" len="48" pan="0" key="66"/>
          <note pos="4176" vol="78" len="48" pan="0" key="54"/>
          <note pos="4224" vol="78" len="96" pan="0" key="64"/>
          <note pos="4224" vol="78" len="96" pan="0" key="52"/>
          <note pos="4320" vol="78" len="48" pan="0" key="68"/>
          <note pos="4320" vol="78" len="48" pan="0" key="56"/>
          <note pos="4368" vol="78" len="48" pan="0" key="64"/>
          <note pos="4368" vol="78" len="48" pan="0" key="52"/>
          <note pos="4416" vol="78" len="48" pan="0" key="66"/>
          <note pos="4416" vol="78" len="48" pan="0" key="54"/>
          <note pos="4464" vol="78" len="48" pan="0" key="71"/>
          <note pos="4464" vol="78" len="48" pan="0" key="59"/>
          <note pos="4512" vol="78" len="48" pan="0" key="68"/>
          <note pos="4512" vol="78" len="48" pan="0" key="56"/>
          <note pos="4560" vol="78" len="48" pan="0" key="75"/>
          <note pos="4560" vol="78" len="48" pan="0" key="63"/>
        </pattern>
        <pattern name="" steps="16" pos="11136" muted="0" type="1">
          <note pos="0" vol="78" len="192" pan="0" key="61"/>
          <note pos="192" vol="78" len="192" pan="0" key="64"/>
          <note pos="384" vol="78" len="192" pan="0" key="62"/>
          <note pos="576" vol="78" len="192" pan="0" key="66"/>
          <note pos="768" vol="78" len="192" pan="0" key="61"/>
          <note pos="960" vol="78" len="192" pan="0" key="64"/>
          <note pos="1152" vol="78" len="192" pan="0" key="62"/>
          <note pos="1344" vol="78" len="192" pan="0" key="66"/>
        </pattern>
        <pattern name="" steps="16" pos="18816" muted="0" type="1">
          <note pos="0" vol="78" len="192" pan="0" key="61"/>
          <note pos="384" vol="78" len="192" pan="0" key="56"/>
          <note pos="768" vol="78" len="192" pan="0" key="56"/>
          <note pos="1152" vol="78" len="192" pan="0" key="68"/>
          <note pos="1536" vol="78" len="192" pan="0" key="69"/>
          <note pos="1728" vol="78" len="192" pan="0" key="69"/>
          <note pos="1920" vol="78" len="192" pan="0" key="68"/>
          <note pos="2112" vol="78" len="192" pan="0" key="68"/>
          <note pos="2304" vol="78" len="192" pan="0" key="66"/>
          <note pos="2496" vol="78" len="192" pan="0" key="66"/>
          <note pos="2688" vol="78" len="192" pan="0" key="73"/>
          <note pos="2880" vol="78" len="192" pan="0" key="72"/>
        </pattern>
        <pattern name="" steps="16" pos="24960" muted="0" type="1">
          <note pos="0" vol="78" len="192" pan="0" key="61"/>
          <note pos="0" vol="78" len="192" pan="0" key="49"/>
          <note pos="192" vol="78" len="192" pan="0" key="59"/>
          <note pos="192" vol="78" len="192" pan="0" key="47"/>
          <note pos="384" vol="78" len="288" pan="0" key="56"/>
          <note pos="384" vol="78" len="288" pan="0" key="44"/>
          <note pos="672" vol="78" len="96" pan="0" key="56"/>
          <note pos="672" vol="78" len="96" pan="0" key="44"/>
          <note pos="768" vol="78" len="192" pan="0" key="68"/>
          <note pos="768" vol="78" len="192" pan="0" key="56"/>
          <note pos="960" vol="78" len="192" pan="0" key="66"/>
          <note pos="960" vol="78" len="192" pan="0" key="54"/>
          <note pos="1152" vol="78" len="384" pan="0" key="61"/>
          <note pos="1152" vol="78" len="384" pan="0" key="49"/>
          <note pos="1536" vol="78" len="192" pan="0" key="61"/>
          <note pos="1536" vol="78" len="192" pan="0" key="49"/>
          <note pos="1728" vol="78" len="192" pan="0" key="63"/>
          <note pos="1728" vol="78" len="192" pan="0" key="51"/>
          <note pos="1920" vol="78" len="192" pan="0" key="64"/>
          <note pos="1920" vol="78" len="192" pan="0" key="52"/>
          <note pos="2112" vol="78" len="96" pan="0" key="68"/>
          <note pos="2112" vol="78" len="96" pan="0" key="56"/>
          <note pos="2208" vol="78" len="96" pan="0" key="66"/>
          <note pos="2208" vol="78" len="96" pan="0" key="54"/>
          <note pos="2304" vol="78" len="192" pan="0" key="66"/>
          <note pos="2304" vol="78" len="192" pan="0" key="54"/>
          <note pos="2496" vol="78" len="144" pan="0" key="61"/>
          <note pos="2496" vol="78" len="144" pan="0" key="49"/>
          <note pos="2640" vol="78" len="24" pan="0" key="61"/>
          <note pos="2640" vol="78" len="24" pan="0" key="49"/>
          <note pos="2664" vol="78" len="24" pan="0" key="63"/>
          <note pos="2664" vol="78" len="24" pan="0" key="51"/>
          <note pos="2688" vol="78" len="192" pan="0" key="64"/>
          <note pos="2688" vol="78" len="192" pan="0" key="52"/>
          <note pos="2880" vol="78" len="96" pan="0" key="64"/>
          <note pos="2880" vol="78" len="96" pan="0" key="52"/>
          <note pos="2976" vol="78" len="96" pan="0" key="68"/>
          <note pos="2976" vol="78" len="96" pan="0" key="56"/>
          <note pos="3072" vol="78" len="384" pan="0" key="73"/>
          <note pos="3072" vol="78" len="384" pan="0" key="61"/>
          <note pos="3456" vol="78" len="384" pan="0" key="73"/>
          <note pos="3456" vol="78" len="384" pan="0" key="61"/>
        </pattern>
        <pattern name="" steps="16" pos="31872" muted="0" type="1">
          <note pos="0" vol="78" len="192" pan="0" key="56"/>
          <note pos="192" vol="78" len="192" pan="0" key="57"/>
          <note pos="384" vol="78" len="192" pan="0" key="59"/>
          <note pos="576" vol="78" len="192" pan="0" key="54"/>
          <note pos="768" vol="78" len="192" pan="0" key="56"/>
          <note pos="960" vol="78" len="192" pan="0" key="57"/>
          <note pos="1152" vol="78" len="192" pan="0" key="59"/>
          <note pos="1344" vol="78" len="192" pan="0" key="63"/>
          <note pos="1536" vol="78" len="192" pan="0" key="61"/>
          <note pos="1920" vol="78" len="192" pan="0" key="61"/>
          <note pos="2112" vol="78" len="192" pan="0" key="64"/>
          <note pos="2304" vol="78" len="192" pan="0" key="62"/>
          <note pos="2688" vol="78" len="192" pan="0" key="61"/>
          <note pos="2880" vol="78" len="192" pan="0" key="66"/>
          <note pos="3072" vol="78" len="48" pan="0" key="61"/>
          <note pos="3072" vol="78" len="48" pan="0" key="49"/>
          <note pos="3120" vol="78" len="48" pan="0" key="61"/>
          <note pos="3120" vol="78" len="48" pan="0" key="49"/>
          <note pos="3168" vol="78" len="48" pan="0" key="61"/>
          <note pos="3168" vol="78" len="48" pan="0" key="49"/>
          <note pos="3216" vol="78" len="48" pan="0" key="64"/>
          <note pos="3216" vol="78" len="48" pan="0" key="52"/>
          <note pos="3264" vol="78" len="48" pan="0" key="63"/>
          <note pos="3264" vol="78" len="48" pan="0" key="51"/>
          <note pos="3312" vol="78" len="48" pan="0" key="63"/>
          <note pos="3312" vol="78" len="48" pan="0" key="51"/>
          <note pos="3360" vol="78" len="48" pan="0" key="63"/>
          <note pos="3360" vol="78" len="48" pan="0" key="51"/>
          <note pos="3408" vol="78" len="48" pan="0" key="68"/>
          <note pos="3408" vol="78" len="48" pan="0" key="56"/>
          <note pos="3456" vol="78" len="48" pan="0" key="68"/>
          <note pos="3456" vol="78" len="48" pan="0" key="56"/>
          <note pos="3504" vol="78" len="48" pan="0" key="68"/>
          <note pos="3504" vol="78" len="48" pan="0" key="56"/>
          <note pos="3552" vol="78" len="48" pan="0" key="68"/>
          <note pos="3552" vol="78" len="48" pan="0" key="56"/>
          <note pos="3600" vol="78" len="24" pan="0" key="66"/>
          <note pos="3600" vol="78" len="24" pan="0" key="54"/>
          <note pos="3624" vol="78" len="24" pan="0" key="64"/>
          <note pos="3624" vol="78" len="24" pan="0" key="52"/>
          <note pos="3648" vol="78" len="48" pan="0" key="63"/>
          <note pos="3648" vol="78" len="48" pan="0" key="51"/>
          <note pos="3696" vol="78" len="48" pan="0" key="64"/>
          <note pos="3696" vol="78" len="48" pan="0" key="52"/>
          <note pos="3744" vol="78" len="48" pan="0" key="59"/>
          <note pos="3744" vol="78" len="48" pan="0" key="47"/>
          <note pos="3792" vol="78" len="48" pan="0" key="56"/>
          <note pos="3792" vol="78" len="48" pan="0" key="44"/>
          <note pos="3840" vol="78" len="48" pan="0" key="57"/>
          <note pos="3840" vol="78" len="48" pan="0" key="45"/>
          <note pos="3888" vol="78" len="48" pan="0" key="57"/>
          <note pos="3888" vol="78" len="48" pan="0" key="45"/>
          <note pos="3936" vol="78" len="48" pan="0" key="57"/>
          <note pos="3936" vol="78" len="48" pan="0" key="45"/>
          <note pos="3984" vol="78" len="48" pan="0" key="64"/>
          <note pos="3984" vol="78" len="48" pan="0" key="52"/>
          <note pos="4032" vol="78" len="48" pan="0" key="63"/>
          <note pos="4032" vol="78" len="48" pan="0" key="51"/>
          <note pos="4080" vol="78" len="48" pan="0" key="63"/>
          <note pos="4080" vol="78" len="48" pan="0" key="51"/>
          <note pos="4128" vol="78" len="48" pan="0" key="63"/>
          <note pos="4128" vol="78" len="48" pan="0" key="51"/>
          <note pos="4176" vol="78" len="48" pan="0" key="66"/>
          <note pos="4176" vol="78" len="48" pan="0" key="54"/>
          <note pos="4224" vol="78" len="96" pan="0" key="64"/>
          <note pos="4224" vol="78" len="96" pan="0" key="52"/>
          <note pos="4320" vol="78" len="48" pan="0" key="68"/>
          <note pos="4320" vol="78" len="48" pan="0" key="56"/>
          <note pos="4368" vol="78" len="48" pan="0" key="64"/>
          <note pos="4368" vol="78" len="48" pan="0" key="52"/>
          <note pos="4416" vol="78" len="48" pan="0" key="66"/>
          <note pos="4416" vol="78" len="48" pan="0" key="54"/>
          <note pos="4464" vol="78" len="48" pan="0" key="71"/>
          <note pos="4464" vol="78" len="48" pan="0" key="59"/>
          <note pos="4512" vol="78" len="48" pan="0" key="68"/>
          <note pos="4512" vol="78" len="48" pan="0" key="56"/>
          <note pos="4560" vol="78" len="48" pan="0" key="75"/>
          <note pos="4560" vol="78" len="48" pan="0" key="63"/>
        </pattern>
        <pattern name="" steps="16" pos="42624" muted="0" type="1">
          <note pos="0" vol="78" len="192" pan="0" key="61"/>
          <note pos="192" vol="78" len="192" pan="0" key="64"/>
          <note pos="384" vol="78" len="192" pan="0" key="62"/>
          <note pos="576" vol="78" len="192" pan="0" key="66"/>
          <note pos="768" vol="78" len="192" pan="0" key="61"/>
          <note pos="960" vol="78" len="192" pan="0" key="64"/>
          <note pos="1152" vol="78" len="192" pan="0" key="62"/>
          <note pos="1344" vol="78" len="192" pan="0" key="66"/>
        </pattern>
        <pattern name="" steps="16" pos="50304" muted="0" type="1">
          <note pos="0" vol="78" len="192" pan="0" key="61"/>
          <note pos="384" vol="78" len="192" pan="0" key="56"/>
          <note pos="768" vol="78" len="192" pan="0" key="56"/>
          <note pos="1152" vol="78" len="192" pan="0" key="68"/>
          <note pos="1536" vol="78" len="192" pan="0" key="69"/>
          <note pos="1728" vol="78" len="192" pan="0" key="69"/>
          <note pos="1920" vol="78" len="192" pan="0" key="68"/>
          <note pos="2112" vol="78" len="192" pan="0" key="68"/>
          <note pos="2304" vol="78" len="192" pan="0" key="66"/>
          <note pos="2496" vol="78" len="192" pan="0" key="66"/>
          <note pos="2688" vol="78" len="192" pan="0" key="73"/>
          <note pos="2880" vol="78" len="192" pan="0" key="72"/>
        </pattern>
        <pattern name="" steps="16" pos="56448" muted="0" type="1">
          <note pos="0" vol="78" len="192" pan="0" key="61"/>
          <note pos="0" vol="78" len="192" pan="0" key="49"/>
          <note pos="192" vol="78" len="192" pan="0" key="59"/>
          <note pos="192" vol="78" len="192" pan="0" key="47"/>
          <note pos="384" vol="78" len="288" pan="0" key="56"/>
          <note pos="384" vol="78" len="288" pan="0" key="44"/>
          <note pos="672" vol="78" len="96" pan="0" key="56"/>
          <note pos="672" vol="78" len="96" pan="0" key="44"/>
          <note pos="768" vol="78" len="192" pan="0" key="68"/>
          <note pos="768" vol="78" len="192" pan="0" key="56"/>
          <note pos="960" vol="78" len="192" pan="0" key="66"/>
          <note pos="960" vol="78" len="192" pan="0" key="54"/>
          <note pos="1152" vol="78" len="384" pan="0" key="61"/>
          <note pos="1152" vol="78" len="384" pan="0" key="49"/>
          <note pos="1536" vol="78" len="192" pan="0" key="61"/>
          <note pos="1536" vol="78" len="192" pan="0" key="49"/>
          <note pos="1728" vol="78" len="192" pan="0" key="63"/>
          <note pos="1728" vol="78" len="192" pan="0" key="51"/>
          <note pos="1920" vol="78" len="192" pan="0" key="64"/>
          <note pos="1920" vol="78" len="192" pan="0" key="52"/>
          <note pos="2112" vol="78" len="96" pan="0" key="68"/>
          <note pos="2112" vol="78" len="96" pan="0" key="56"/>
          <note pos="2208" vol="78" len="96" pan="0" key="66"/>
          <note pos="2208" vol="78" len="96" pan="0" key="54"/>
          <note pos="2304" vol="78" len="192" pan="0" key="66"/>
          <note pos="2304" vol="78" len="192" pan="0" key="54"/>
          <note pos="2496" vol="78" len="144" pan="0" key="61"/>
          <note pos="2496" vol="78" len="144" pan="0" key="49"/>
          <note pos="2640" vol="78" len="24" pan="0" key="61"/>
          <note pos="2640" vol="78" len="24" pan="0" key="49"/>
          <note pos="2664" vol="78" len="24" pan="0" key="63"/>
          <note pos="2664" vol="78" len="24" pan="0" key="51"/>
          <note pos="2688" vol="78" len="192" pan="0" key="64"/>
          <note pos="2688" vol="78" len="192" pan="0" key="52"/>
          <note pos="2880" vol="78" len="96" pan="0" key="64"/>
          <note pos="2880" vol="78" len="96" pan="0" key="52"/>
          <note pos="2976" vol="78" len="96" pan="0" key="68"/>
          <note pos="2976" vol="78" len="96" pan="0" key="56"/>
          <note pos="3072" vol="78" len="384" pan="0" key="73"/>
          <note pos="3072" vol="78" len="384" pan="0" key="61"/>
          <note pos="3456" vol="78" len="384" pan="0" key="73"/>
          <note pos="3456" vol="78" len="384" pan="0" key="61"/>
        </pattern>
        <pattern name="" steps="16" pos="63360" muted="0" type="1">
          <note pos="0" vol="78" len="192" pan="0" key="56"/>
          <note pos="192" vol="78" len="192" pan="0" key="57"/>
          <note pos="384" vol="78" len="192" pan="0" key="59"/>
          <note pos="576" vol="78" len="192" pan="0" key="54"/>
          <note pos="768" vol="78" len="192" pan="0" key="56"/>
          <note pos="960" vol="78" len="192" pan="0" key="57"/>
          <note pos="1152" vol="78" len="192" pan="0" key="59"/>
          <note pos="1344" vol="78" len="192" pan="0" key="63"/>
          <note pos="1536" vol="78" len="192" pan="0" key="61"/>
          <note pos="1920" vol="78" len="192" pan="0" key="61"/>
          <note pos="2112" vol="78" len="192" pan="0" key="64"/>
          <note pos="2304" vol="78" len="192" pan="0" key="62"/>
          <note pos="2688" vol="78" len="192" pan="0" key="61"/>
          <note pos="2880" vol="78" len="192" pan="0" key="66"/>
          <note pos="3072" vol="78" len="48" pan="0" key="61"/>
          <note pos="3072" vol="78" len="48" pan="0" key="49"/>
          <note pos="3120" vol="78" len="48" pan="0" key="61"/>
          <note pos="3120" vol="78" len="48" pan="0" key="49"/>
          <note pos="3168" vol="78" len="48" pan="0" key="61"/>
          <note pos="3168" vol="78" len="48" pan="0" key="49"/>
          <note pos="3216" vol="78" len="48" pan="0" key="64"/>
          <note pos="3216" vol="78" len="48" pan="0" key="52"/>
          <note pos="3264" vol="78" len="48" pan="0" key="63"/>
          <note pos="3264" vol="78" len="48" pan="0" key="51"/>
          <note pos="3312" vol="78" len="48" pan="0" key="63"/>
          <note pos="3312" vol="78" len="48" pan="0" key="51"/>
          <note pos="3360" vol="78" len="48" pan="0" key="63"/>
          <note pos="3360" vol="78" len="48" pan="0" key="51"/>
          <note pos="3408" vol="78" len="48" pan="0" key="68"/>
          <note pos="3408" vol="78" len="48" pan="0" key="56"/>
          <note pos="3456" vol="78" len="48" pan="0" key="68"/>
          <note pos="3456" vol="78" len="48" pan="0" key="56"/>
          <note pos="3504" vol="78" len="48" pan="0" key="68"/>
          <note pos="3504" vol="78" len="48" pan="0" key="56"/>
          <note pos="3552" vol="78" len="48" pan="0" key="68"/>
          <note pos="3552" vol="78" len="48" pan="0" key="56"/>
          <note pos="3600" vol="78" len="24" pan="0" key="66"/>
          <note pos="3600" vol="78" len="24" pan="0" key="54"/>
          <note pos="3624" vol="78" len="24" pan="0" key="64"/>
          <note pos="3624" vol="78" len="24" pan="0" key="52"/>
          <note pos="3648" vol="78" len="48" pan="0" key="63"/>
          <note pos="3648" vol="78" len="48" pan="0" key="51"/>
          <note pos="3696" vol="78" len="48" pan="0" key="64"/>
          <note pos="3696" vol="78" len="48" pan="0" key="52"/>
          <note pos="3744" vol="78" len="48" pan="0" key="59"/>
          <note pos="3744" vol="78" len="48" pan="0" key="47"/>
          <note pos="3792" vol="78" len="48" pan="0" key="56"/>
          <note pos="3792" vol="78" len="48" pan="0" key="44"/>
          <note pos="3840" vol="78" len="48" pan="0" key="57"/>
          <note pos="3840" vol="78" len="48" pan="0" key="45"/>
          <note pos="3888" vol="78" len="48" pan="0" key="57"/>
          <note pos="3888" vol="78" len="48" pan="0" key="45"/>
          <note pos="3936" vol="78" len="48" pan="0" key="57"/>
          <note pos="3936" vol="78" len="48" pan="0" key="45"/>
          <note pos="3984" vol="78" len="48" pan="0" key="64"/>
          <note pos="3984" vol="78" len="48" pan="0" key="52"/>
          <note pos="4032" vol="78" len="48" pan="0" key="63"/>
          <note pos="4032" vol="78" len="48" pan="0" key="51"/>
          <note pos="4080" vol="78" len="48" pan="0" key="63"/>
          <note pos="4080" vol="78" len="48" pan="0" key="51"/>
          <note pos="4128" vol="78" len="48" pan="0" key="63"/>
          <note pos="4128" vol="78" len="48" pan="0" key="51"/>
          <note pos="4176" vol="78" len="48" pan="0" key="66"/>
          <note pos="4176" vol="78" len="48" pan="0" key="54"/>
          <note pos="4224" vol="78" len="96" pan="0" key="64"/>
          <note pos="4224" vol="78" len="96" pan="0" key="52"/>
          <note pos="4320" vol="78" len="48" pan="0" key="68"/>
          <note pos="4320" vol="78" len="48" pan="0" key="56"/>
          <note pos="4368" vol="78" len="48" pan="0" key="64"/>
          <note pos="4368" vol="78" len="48" pan="0" key="52"/>
          <note pos="4416" vol="78" len="48" pan="0" key="66"/>
          <note pos="4416" vol="78" len="48" pan="0" key="54"/>
          <note pos="4464" vol="78" len="48" pan="0" key="71"/>
          <note pos="4464" vol="78" len="48" pan="0" key="59"/>
          <note pos="4512" vol="78" len="48" pan="0" key="68"/>
          <note pos="4512" vol="78" len="48" pan="0" key="56"/>
          <note pos="4560" vol="78" len="48" pan="0" key="75"/>
          <note pos="4560" vol="78" len="48" pan="0" key="63"/>
          <note pos="4608" vol="78" len="384" pan="0" key="73"/>
          <note pos="4608" vol="78" len="384" pan="0" key="61"/>
          <note pos="4992" vol="78" len="384" pan="0" key="73"/>
          <note pos="4992" vol="78" len="384" pan="0" key="61"/>
          <note pos="5376" vol="78" len="48" pan="0" key="73"/>
          <note pos="5376" vol="78" len="48" pan="0" key="61"/>
        </pattern>
        <pattern name="" steps="16" pos="39744" muted="0" type="1">
          <note pos="0" vol="136" len="144" pan="0" key="61"/>
          <note pos="0" vol="136" len="48" pan="0" key="49"/>
          <note pos="48" vol="136" len="48" pan="0" key="52"/>
          <note pos="96" vol="136" len="48" pan="0" key="56"/>
          <note pos="144" vol="136" len="48" pan="0" key="64"/>
          <note pos="144" vol="136" len="48" pan="0" key="61"/>
          <note pos="192" vol="136" len="144" pan="0" key="63"/>
          <note pos="192" vol="136" len="48" pan="0" key="59"/>
          <note pos="240" vol="136" len="48" pan="0" key="54"/>
          <note pos="288" vol="136" len="48" pan="0" key="59"/>
          <note pos="336" vol="136" len="48" pan="0" key="68"/>
          <note pos="336" vol="136" len="48" pan="0" key="63"/>
          <note pos="384" vol="136" len="144" pan="0" key="68"/>
          <note pos="384" vol="136" len="48" pan="0" key="64"/>
          <note pos="432" vol="136" len="48" pan="0" key="57"/>
          <note pos="480" vol="136" len="48" pan="0" key="61"/>
          <note pos="528" vol="136" len="24" pan="0" key="66"/>
          <note pos="528" vol="136" len="48" pan="0" key="52"/>
          <note pos="552" vol="136" len="24" pan="0" key="64"/>
          <note pos="576" vol="136" len="48" pan="0" key="63"/>
          <note pos="576" vol="136" len="48" pan="0" key="54"/>
          <note pos="624" vol="136" len="48" pan="0" key="64"/>
          <note pos="624" vol="136" len="48" pan="0" key="51"/>
          <note pos="672" vol="136" len="48" pan="0" key="59"/>
          <note pos="672" vol="136" len="48" pan="0" key="54"/>
          <note pos="720" vol="136" len="48" pan="0" key="56"/>
          <note pos="720" vol="136" len="48" pan="0" key="47"/>
          <note pos="768" vol="136" len="96" pan="0" key="57"/>
          <note pos="768" vol="136" len="48" pan="0" key="49"/>
          <note pos="816" vol="136" len="48" pan="0" key="54"/>
          <note pos="864" vol="136" len="48" pan="0" key="61"/>
          <note pos="864" vol="136" len="48" pan="0" key="57"/>
          <note pos="912" vol="136" len="48" pan="0" key="64"/>
          <note pos="912" vol="136" len="48" pan="0" key="54"/>
          <note pos="960" vol="136" len="96" pan="0" key="64"/>
          <note pos="960" vol="136" len="48" pan="0" key="56"/>
          <note pos="1008" vol="136" len="48" pan="0" key="59"/>
          <note pos="1056" vol="136" len="48" pan="0" key="63"/>
          <note pos="1056" vol="136" len="48" pan="0" key="56"/>
          <note pos="1104" vol="136" len="48" pan="0" key="64"/>
          <note pos="1104" vol="136" len="48" pan="0" key="51"/>
          <note pos="1152" vol="136" len="72" pan="0" key="71"/>
          <note pos="1152" vol="136" len="48" pan="0" key="57"/>
        </pattern>
        <pattern name="" steps="16" pos="47232" muted="0" type="1">
          <note pos="0" vol="78" len="120" pan="0" key="63"/>
          <note pos="0" vol="78" len="24" pan="0" key="0"/>
          <note pos="96" vol="78" len="24" pan="0" key="1"/>
          <note pos="120" vol="78" len="24" pan="0" key="58"/>
          <note pos="132" vol="78" len="24" pan="0" key="0"/>
          <note pos="144" vol="78" len="24" pan="0" key="66"/>
          <note pos="168" vol="78" len="24" pan="0" key="58"/>
          <note pos="168" vol="78" len="24" pan="0" key="1"/>
          <note pos="192" vol="78" len="120" pan="0" key="65"/>
          <note pos="192" vol="78" len="24" pan="0" key="0"/>
          <note pos="300" vol="78" len="12" pan="0" key="1"/>
          <note pos="312" vol="78" len="12" pan="0" key="65"/>
          <note pos="324" vol="78" len="12" pan="0" key="66"/>
          <note pos="336" vol="78" len="12" pan="0" key="70"/>
          <note pos="336" vol="78" len="12" pan="0" key="0"/>
          <note pos="348" vol="78" len="12" pan="0" key="66"/>
          <note pos="360" vol="78" len="12" pan="0" key="65"/>
          <note pos="360" vol="78" len="12" pan="0" key="1"/>
          <note pos="372" vol="78" len="12" pan="0" key="66"/>
          <note pos="384" vol="78" len="144" pan="0" key="70"/>
          <note pos="384" vol="78" len="12" pan="0" key="0"/>
          <note pos="528" vol="78" len="24" pan="0" key="68"/>
          <note pos="552" vol="78" len="24" pan="0" key="66"/>
          <note pos="576" vol="78" len="48" pan="0" key="65"/>
          <note pos="624" vol="78" len="48" pan="0" key="66"/>
          <note pos="660" vol="78" len="12" pan="0" key="0"/>
          <note pos="672" vol="78" len="12" pan="0" key="61"/>
          <note pos="672" vol="78" len="12" pan="0" key="1"/>
          <note pos="684" vol="78" len="12" pan="0" key="61"/>
          <note pos="696" vol="78" len="12" pan="0" key="61"/>
          <note pos="708" vol="78" len="12" pan="0" key="61"/>
          <note pos="720" vol="78" len="12" pan="0" key="58"/>
          <note pos="720" vol="78" len="12" pan="0" key="0"/>
          <note pos="732" vol="78" len="12" pan="0" key="54"/>
          <note pos="732" vol="78" len="12" pan="0" key="1"/>
          <note pos="744" vol="78" len="12" pan="0" key="56"/>
          <note pos="756" vol="78" len="12" pan="0" key="58"/>
          <note pos="768" vol="78" len="96" pan="0" key="59"/>
          <note pos="768" vol="78" len="12" pan="0" key="0"/>
          <note pos="864" vol="78" len="48" pan="0" key="63"/>
          <note pos="912" vol="78" len="48" pan="0" key="66"/>
          <note pos="960" vol="78" len="96" pan="0" key="66"/>
          <note pos="1056" vol="78" len="12" pan="0" key="65"/>
          <note pos="1056" vol="78" len="12" pan="0" key="0"/>
          <note pos="1068" vol="78" len="12" pan="0" key="58"/>
          <note pos="1068" vol="78" len="12" pan="0" key="2"/>
          <note pos="1080" vol="78" len="12" pan="0" key="58"/>
          <note pos="1080" vol="78" len="12" pan="0" key="1"/>
          <note pos="1092" vol="78" len="12" pan="0" key="58"/>
          <note pos="1104" vol="78" len="12" pan="0" key="66"/>
          <note pos="1104" vol="78" len="12" pan="0" key="0"/>
          <note pos="1116" vol="78" len="12" pan="0" key="63"/>
          <note pos="1116" vol="78" len="12" pan="0" key="2"/>
          <note pos="1128" vol="78" len="12" pan="0" key="65"/>
          <note pos="1128" vol="78" len="12" pan="0" key="1"/>
          <note pos="1140" vol="78" len="12" pan="0" key="66"/>
          <note pos="1152" vol="78" len="48" pan="0" key="73"/>
          <note pos="1152" vol="78" len="12" pan="0" key="0"/>
          <note pos="1200" vol="78" len="12" pan="0" key="71"/>
          <note pos="1212" vol="78" len="12" pan="0" key="73"/>
          <note pos="1224" vol="78" len="48" pan="0" key="71"/>
          <note pos="1272" vol="78" len="12" pan="0" key="70"/>
          <note pos="1272" vol="78" len="12" pan="0" key="0"/>
          <note pos="1284" vol="78" len="12" pan="0" key="71"/>
          <note pos="1296" vol="78" len="12" pan="0" key="70"/>
          <note pos="1296" vol="78" len="12" pan="0" key="1"/>
          <note pos="1308" vol="78" len="12" pan="0" key="68"/>
          <note pos="1320" vol="78" len="12" pan="0" key="66"/>
          <note pos="1332" vol="78" len="12" pan="0" key="70"/>
          <note pos="1344" vol="78" len="72" pan="0" key="68"/>
          <note pos="1344" vol="78" len="12" pan="0" key="0"/>
          <note pos="1416" vol="78" len="12" pan="0" key="66"/>
          <note pos="1416" vol="78" len="12" pan="0" key="1"/>
          <note pos="1428" vol="78" len="12" pan="0" key="68"/>
          <note pos="1440" vol="78" len="12" pan="0" key="70"/>
          <note pos="1440" vol="78" len="12" pan="0" key="0"/>
          <note pos="1452" vol="78" len="12" pan="0" key="71"/>
          <note pos="1464" vol="78" len="12" pan="0" key="70"/>
          <note pos="1464" vol="78" len="12" pan="0" key="1"/>
          <note pos="1476" vol="78" len="12" pan="0" key="68"/>
          <note pos="1488" vol="78" len="12" pan="0" key="70"/>
          <note pos="1488" vol="78" len="12" pan="0" key="0"/>
          <note pos="1500" vol="78" len="12" pan="0" key="68"/>
          <note pos="1512" vol="78" len="12" pan="0" key="66"/>
          <note pos="1524" vol="78" len="12" pan="0" key="65"/>
          <note pos="1536" vol="78" len="48" pan="0" key="66"/>
          <note pos="1536" vol="78" len="12" pan="0" key="0"/>
          <note pos="1572" vol="78" len="12" pan="0" key="1"/>
          <note pos="1584" vol="78" len="12" pan="0" key="58"/>
          <note pos="1596" vol="78" len="12" pan="0" key="58"/>
          <note pos="1608" vol="78" len="48" pan="0" key="65"/>
          <note pos="1608" vol="78" len="12" pan="0" key="0"/>
          <note pos="1644" vol="78" len="12" pan="0" key="1"/>
          <note pos="1656" vol="78" len="12" pan="0" key="58"/>
          <note pos="1668" vol="78" len="12" pan="0" key="58"/>
          <note pos="1680" vol="78" len="24" pan="0" key="66"/>
          <note pos="1680" vol="78" len="12" pan="0" key="0"/>
          <note pos="1692" vol="78" len="12" pan="0" key="1"/>
          <note pos="1704" vol="78" len="12" pan="0" key="58"/>
          <note pos="1716" vol="78" len="12" pan="0" key="58"/>
          <note pos="1728" vol="78" len="144" pan="0" key="70"/>
          <note pos="1728" vol="78" len="12" pan="0" key="0"/>
          <note pos="1872" vol="78" len="48" pan="0" key="77"/>
          <note pos="1908" vol="78" len="12" pan="0" key="0"/>
          <note pos="1920" vol="78" len="12" pan="0" key="75"/>
          <note pos="1932" vol="78" len="12" pan="0" key="77"/>
          <note pos="1932" vol="78" len="12" pan="0" key="2"/>
          <note pos="1944" vol="78" len="216" pan="0" key="75"/>
          <note pos="2100" vol="78" len="12" pan="0" key="0"/>
          <note pos="2160" vol="78" len="48" pan="0" key="78"/>
          <note pos="2208" vol="78" len="24" pan="0" key="80"/>
          <note pos="2232" vol="78" len="12" pan="0" key="78"/>
          <note pos="2244" vol="78" len="12" pan="0" key="80"/>
          <note pos="2256" vol="78" len="24" pan="0" key="82"/>
          <note pos="2280" vol="78" len="12" pan="0" key="80"/>
          <note pos="2292" vol="78" len="12" pan="0" key="82"/>
          <note pos="2304" vol="78" len="72" pan="0" key="83"/>
          <note pos="2376" vol="78" len="72" pan="0" key="82"/>
          <note pos="2448" vol="78" len="48" pan="0" key="80"/>
          <note pos="2484" vol="78" len="12" pan="0" key="1"/>
          <note pos="2496" vol="78" len="12" pan="0" key="78"/>
          <note pos="2508" vol="78" len="12" pan="0" key="78"/>
          <note pos="2520" vol="78" len="12" pan="0" key="78"/>
          <note pos="2532" vol="78" len="12" pan="0" key="78"/>
          <note pos="2544" vol="78" len="12" pan="0" key="75"/>
          <note pos="2556" vol="78" len="12" pan="0" key="75"/>
          <note pos="2568" vol="78" len="12" pan="0" key="75"/>
          <note pos="2580" vol="78" len="12" pan="0" key="75"/>
          <note pos="2592" vol="78" len="12" pan="0" key="78"/>
          <note pos="2592" vol="78" len="12" pan="0" key="0"/>
          <note pos="2604" vol="78" len="12" pan="0" key="78"/>
          <note pos="2616" vol="78" len="12" pan="0" key="78"/>
          <note pos="2628" vol="78" len="12" pan="0" key="78"/>
          <note pos="2640" vol="78" len="48" pan="0" key="87"/>
          <note pos="2688" vol="78" len="192" pan="0" key="85"/>
        </pattern>
      </track>
      <track name="Orchestra Soundfont 2 COMBO" solo="0" muted="1" type="0">
        <instrumenttrack basenote="57" fxch="0" usemasterpitch="1" pitch="0" vol="58.4" pan="0" pitchrange="2">
          <instrument name="sf2player">
            <sf2player reverbRoomSize="0.2" src="/home/pass/samples/soundfonts/Orchestra Soundfont 2 COMBO.sf2" chorusOn="0" chorusDepth="8" gain="5" reverbDamping="0" chorusNum="3" chorusLevel="2" bank="0" reverbLevel="0.9" patch="52" reverbOn="0" chorusSpeed="0.3" reverbWidth="0.5"/>
          </instrument>
          <eldata fwet="0" fcut="14000" ftype="0" fres="0.5">
            <elvol x100="0" userwavefile="" dec="0.5" amt="0" pdel="0" hold="0.5" lamt="0" lpdel="0" lshp="0" lspd_denominator="4" att="0" ctlenvamt="0" lspd="0.1" lspd_syncmode="0" rel="0.1" latt="0" lspd_numerator="4" sustain="0.5"/>
            <elcut x100="0" userwavefile="" dec="0.5" amt="0" pdel="0" hold="0.5" lamt="0" lpdel="0" lshp="0" lspd_denominator="4" att="0" ctlenvamt="0" lspd="0.1" lspd_syncmode="0" rel="0.1" latt="0" lspd_numerator="4" sustain="0.5"/>
            <elres x100="0" userwavefile="" dec="0.5" amt="0" pdel="0" hold="0.5" lamt="0" lpdel="0" lshp="0" lspd_denominator="4" att="0" ctlenvamt="0" lspd="0.1" lspd_syncmode="0" rel="0.1" latt="0" lspd_numerator="4" sustain="0.5"/>
          </eldata>
          <chordcreator chord-enabled="0" chord="0" chordrange="1"/>
          <arpeggiator arprange="1" arpmode="0" arp="0" arptime_numerator="4" arpmiss="0" arptime_denominator="4" arpcycle="0" arpskip="0" arptime_syncmode="0" arpgate="100" arptime="200" arpdir="0" arp-enabled="0"/>
          <midiport fixedoutputnote="-1" outputprogram="1" inputcontroller="0" writable="0" fixedoutputvelocity="-1" readable="0" outputchannel="1" basevelocity="63" outputcontroller="0" fixedinputvelocity="-1" inputchannel="0"/>
          <fxchain numofeffects="0" enabled="0"/>
        </instrumenttrack>
        <pattern name="" steps="16" pos="8064" muted="0" type="1">
          <note pos="0" vol="78" len="192" pan="0" key="64"/>
          <note pos="0" vol="78" len="192" pan="0" key="61"/>
          <note pos="192" vol="78" len="192" pan="0" key="63"/>
          <note pos="192" vol="78" len="192" pan="0" key="56"/>
          <note pos="384" vol="78" len="192" pan="0" key="64"/>
          <note pos="384" vol="78" len="192" pan="0" key="57"/>
          <note pos="576" vol="78" len="192" pan="0" key="66"/>
          <note pos="576" vol="78" len="192" pan="0" key="59"/>
          <note pos="768" vol="78" len="192" pan="0" key="64"/>
          <note pos="768" vol="78" len="192" pan="0" key="61"/>
          <note pos="960" vol="78" len="192" pan="0" key="66"/>
          <note pos="960" vol="78" len="192" pan="0" key="59"/>
          <note pos="1152" vol="78" len="192" pan="0" key="64"/>
          <note pos="1152" vol="78" len="192" pan="0" key="61"/>
          <note pos="1344" vol="78" len="192" pan="0" key="66"/>
          <note pos="1344" vol="78" len="192" pan="0" key="56"/>
          <note pos="1536" vol="78" len="192" pan="0" key="64"/>
          <note pos="1536" vol="78" len="192" pan="0" key="61"/>
          <note pos="1728" vol="78" len="192" pan="0" key="63"/>
          <note pos="1728" vol="78" len="192" pan="0" key="56"/>
          <note pos="1920" vol="78" len="192" pan="0" key="64"/>
          <note pos="1920" vol="78" len="192" pan="0" key="58"/>
          <note pos="2112" vol="78" len="192" pan="0" key="66"/>
          <note pos="2112" vol="78" len="192" pan="0" key="58"/>
          <note pos="2304" vol="78" len="192" pan="0" key="64"/>
          <note pos="2304" vol="78" len="192" pan="0" key="61"/>
          <note pos="2496" vol="78" len="192" pan="0" key="66"/>
          <note pos="2496" vol="78" len="192" pan="0" key="59"/>
          <note pos="2688" vol="78" len="192" pan="0" key="64"/>
          <note pos="2688" vol="78" len="192" pan="0" key="61"/>
          <note pos="2880" vol="78" len="192" pan="0" key="59"/>
          <note pos="2880" vol="78" len="192" pan="0" key="56"/>
        </pattern>
        <pattern name="" steps="16" pos="15744" muted="0" type="1">
          <note pos="0" vol="78" len="192" pan="0" key="64"/>
          <note pos="0" vol="78" len="192" pan="0" key="61"/>
          <note pos="192" vol="78" len="192" pan="0" key="63"/>
          <note pos="192" vol="78" len="192" pan="0" key="56"/>
          <note pos="384" vol="78" len="192" pan="0" key="64"/>
          <note pos="384" vol="78" len="192" pan="0" key="57"/>
          <note pos="576" vol="78" len="192" pan="0" key="66"/>
          <note pos="576" vol="78" len="192" pan="0" key="59"/>
          <note pos="768" vol="78" len="192" pan="0" key="64"/>
          <note pos="768" vol="78" len="192" pan="0" key="61"/>
          <note pos="960" vol="78" len="192" pan="0" key="66"/>
          <note pos="960" vol="78" len="192" pan="0" key="59"/>
          <note pos="1152" vol="78" len="192" pan="0" key="64"/>
          <note pos="1152" vol="78" len="192" pan="0" key="61"/>
          <note pos="1344" vol="78" len="192" pan="0" key="66"/>
          <note pos="1344" vol="78" len="192" pan="0" key="56"/>
          <note pos="1536" vol="78" len="192" pan="0" key="64"/>
          <note pos="1536" vol="78" len="192" pan="0" key="61"/>
          <note pos="1728" vol="78" len="192" pan="0" key="63"/>
          <note pos="1728" vol="78" len="192" pan="0" key="56"/>
          <note pos="1920" vol="78" len="192" pan="0" key="61"/>
          <note pos="1920" vol="78" len="192" pan="0" key="58"/>
          <note pos="2112" vol="78" len="192" pan="0" key="66"/>
          <note pos="2112" vol="78" len="192" pan="0" key="58"/>
          <note pos="2304" vol="78" len="192" pan="0" key="62"/>
          <note pos="2304" vol="78" len="192" pan="0" key="57"/>
          <note pos="2496" vol="78" len="192" pan="0" key="64"/>
          <note pos="2496" vol="78" len="192" pan="0" key="57"/>
          <note pos="2688" vol="78" len="192" pan="0" key="63"/>
          <note pos="2688" vol="78" len="192" pan="0" key="59"/>
          <note pos="6144" vol="78" len="192" pan="0" key="61"/>
          <note pos="6336" vol="78" len="192" pan="0" key="59"/>
          <note pos="6528" vol="78" len="384" pan="0" key="56"/>
          <note pos="6912" vol="78" len="192" pan="0" key="56"/>
          <note pos="7104" vol="78" len="192" pan="0" key="54"/>
          <note pos="7296" vol="78" len="384" pan="0" key="52"/>
        </pattern>
        <pattern name="" steps="16" pos="24000" muted="0" type="1">
          <note pos="0" vol="78" len="192" pan="0" key="64"/>
          <note pos="192" vol="78" len="384" pan="0" key="61"/>
          <note pos="576" vol="78" len="384" pan="0" key="61"/>
        </pattern>
        <pattern name="" steps="16" pos="47232" muted="0" type="1">
          <note pos="0" vol="78" len="192" pan="0" key="64"/>
          <note pos="0" vol="78" len="192" pan="0" key="61"/>
          <note pos="192" vol="78" len="192" pan="0" key="63"/>
          <note pos="192" vol="78" len="192" pan="0" key="56"/>
          <note pos="384" vol="78" len="192" pan="0" key="64"/>
          <note pos="384" vol="78" len="192" pan="0" key="57"/>
          <note pos="576" vol="78" len="192" pan="0" key="66"/>
          <note pos="576" vol="78" len="192" pan="0" key="59"/>
          <note pos="768" vol="78" len="192" pan="0" key="64"/>
          <note pos="768" vol="78" len="192" pan="0" key="61"/>
          <note pos="960" vol="78" len="192" pan="0" key="66"/>
          <note pos="960" vol="78" len="192" pan="0" key="59"/>
          <note pos="1152" vol="78" len="192" pan="0" key="64"/>
          <note pos="1152" vol="78" len="192" pan="0" key="61"/>
          <note pos="1344" vol="78" len="192" pan="0" key="66"/>
          <note pos="1344" vol="78" len="192" pan="0" key="56"/>
          <note pos="1536" vol="78" len="192" pan="0" key="64"/>
          <note pos="1536" vol="78" len="192" pan="0" key="61"/>
          <note pos="1728" vol="78" len="192" pan="0" key="63"/>
          <note pos="1728" vol="78" len="192" pan="0" key="56"/>
          <note pos="1920" vol="78" len="192" pan="0" key="64"/>
          <note pos="1920" vol="78" len="192" pan="0" key="58"/>
          <note pos="2112" vol="78" len="192" pan="0" key="66"/>
          <note pos="2112" vol="78" len="192" pan="0" key="58"/>
          <note pos="2304" vol="78" len="192" pan="0" key="64"/>
          <note pos="2304" vol="78" len="192" pan="0" key="61"/>
          <note pos="2496" vol="78" len="192" pan="0" key="66"/>
          <note pos="2496" vol="78" len="192" pan="0" key="59"/>
          <note pos="2688" vol="78" len="192" pan="0" key="64"/>
          <note pos="2688" vol="78" len="192" pan="0" key="61"/>
          <note pos="3072" vol="78" len="384" pan="0" key="59"/>
          <note pos="3456" vol="78" len="384" pan="0" key="63"/>
          <note pos="3840" vol="78" len="384" pan="0" key="66"/>
          <note pos="4224" vol="78" len="384" pan="0" key="66"/>
          <note pos="4608" vol="78" len="384" pan="0" key="59"/>
          <note pos="4992" vol="78" len="384" pan="0" key="63"/>
          <note pos="5376" vol="78" len="384" pan="0" key="66"/>
          <note pos="5760" vol="78" len="384" pan="0" key="66"/>
          <note pos="6144" vol="78" len="192" pan="0" key="61"/>
          <note pos="6336" vol="78" len="192" pan="0" key="59"/>
          <note pos="6528" vol="78" len="384" pan="0" key="56"/>
          <note pos="6912" vol="78" len="192" pan="0" key="56"/>
          <note pos="7104" vol="78" len="192" pan="0" key="54"/>
          <note pos="7296" vol="78" len="384" pan="0" key="52"/>
        </pattern>
        <pattern name="" steps="16" pos="55488" muted="0" type="1">
          <note pos="0" vol="78" len="192" pan="0" key="64"/>
          <note pos="192" vol="78" len="384" pan="0" key="61"/>
          <note pos="576" vol="78" len="384" pan="0" key="61"/>
          <note pos="960" vol="78" len="192" pan="0" key="61"/>
          <note pos="1152" vol="78" len="192" pan="0" key="59"/>
          <note pos="1344" vol="78" len="384" pan="0" key="56"/>
          <note pos="1728" vol="78" len="192" pan="0" key="56"/>
          <note pos="1920" vol="78" len="192" pan="0" key="54"/>
          <note pos="2112" vol="78" len="384" pan="0" key="52"/>
        </pattern>
        <pattern name="" steps="16" pos="58560" muted="0" type="1">
          <note pos="0" vol="78" len="192" pan="0" key="64"/>
          <note pos="192" vol="78" len="384" pan="0" key="61"/>
          <note pos="576" vol="78" len="384" pan="0" key="61"/>
          <note pos="960" vol="78" len="384" pan="0" key="68"/>
          <note pos="1344" vol="78" len="384" pan="0" key="68"/>
        </pattern>
        <pattern name="" steps="16" pos="66432" muted="0" type="1">
          <note pos="0" vol="78" len="192" pan="0" key="64"/>
          <note pos="0" vol="78" len="192" pan="0" key="61"/>
          <note pos="192" vol="78" len="192" pan="0" key="66"/>
          <note pos="192" vol="78" len="192" pan="0" key="63"/>
          <note pos="384" vol="78" len="192" pan="0" key="64"/>
          <note pos="384" vol="78" len="192" pan="0" key="61"/>
          <note pos="576" vol="78" len="192" pan="0" key="66"/>
          <note pos="576" vol="78" len="192" pan="0" key="63"/>
          <note pos="768" vol="78" len="192" pan="0" key="66"/>
          <note pos="768" vol="78" len="192" pan="0" key="63"/>
          <note pos="960" vol="78" len="192" pan="0" key="66"/>
          <note pos="960" vol="78" len="192" pan="0" key="63"/>
          <note pos="1152" vol="78" len="192" pan="0" key="64"/>
          <note pos="1152" vol="78" len="192" pan="0" key="61"/>
          <note pos="1344" vol="78" len="192" pan="0" key="66"/>
          <note pos="1344" vol="78" len="192" pan="0" key="63"/>
          <note pos="1536" vol="78" len="384" pan="0" key="73"/>
          <note pos="1536" vol="78" len="384" pan="0" key="61"/>
          <note pos="1920" vol="78" len="384" pan="0" key="73"/>
          <note pos="1920" vol="78" len="384" pan="0" key="61"/>
          <note pos="2304" vol="78" len="48" pan="0" key="73"/>
          <note pos="2304" vol="78" len="48" pan="0" key="61"/>
        </pattern>
        <pattern name="" steps="16" pos="24960" muted="0" type="1">
          <note pos="0" vol="70" len="192" pan="0" key="61"/>
          <note pos="192" vol="70" len="192" pan="0" key="59"/>
          <note pos="384" vol="70" len="288" pan="0" key="56"/>
          <note pos="672" vol="70" len="96" pan="0" key="56"/>
          <note pos="768" vol="70" len="192" pan="0" key="68"/>
          <note pos="960" vol="70" len="192" pan="0" key="66"/>
          <note pos="1152" vol="70" len="384" pan="0" key="61"/>
          <note pos="1536" vol="70" len="192" pan="0" key="61"/>
          <note pos="1728" vol="70" len="192" pan="0" key="63"/>
          <note pos="1920" vol="70" len="192" pan="0" key="64"/>
          <note pos="2112" vol="70" len="96" pan="0" key="68"/>
          <note pos="2208" vol="70" len="96" pan="0" key="66"/>
          <note pos="2304" vol="70" len="192" pan="0" key="66"/>
          <note pos="2496" vol="70" len="144" pan="0" key="61"/>
          <note pos="2640" vol="70" len="24" pan="0" key="61"/>
          <note pos="2664" vol="70" len="24" pan="0" key="63"/>
          <note pos="2688" vol="70" len="192" pan="0" key="64"/>
          <note pos="2880" vol="70" len="96" pan="0" key="64"/>
          <note pos="2976" vol="70" len="96" pan="0" key="68"/>
          <note pos="3072" vol="70" len="384" pan="0" key="73"/>
          <note pos="3456" vol="70" len="384" pan="0" key="73"/>
        </pattern>
        <pattern name="" steps="16" pos="39744" muted="0" type="1">
          <note pos="0" vol="78" len="24" pan="0" key="86"/>
          <note pos="0" vol="78" len="48" pan="0" key="0"/>
          <note pos="24" vol="78" len="24" pan="0" key="81"/>
          <note pos="48" vol="78" len="24" pan="0" key="76"/>
          <note pos="72" vol="78" len="24" pan="0" key="83"/>
          <note pos="96" vol="78" len="24" pan="0" key="85"/>
          <note pos="120" vol="78" len="24" pan="0" key="86"/>
          <note pos="144" vol="78" len="24" pan="0" key="85"/>
          <note pos="168" vol="78" len="24" pan="0" key="83"/>
          <note pos="192" vol="78" len="12" pan="0" key="85"/>
          <note pos="192" vol="78" len="24" pan="0" key="0"/>
          <note pos="204" vol="78" len="12" pan="0" key="81"/>
          <note pos="216" vol="78" len="12" pan="0" key="76"/>
          <note pos="216" vol="78" len="24" pan="0" key="1"/>
          <note pos="228" vol="78" len="12" pan="0" key="73"/>
          <note pos="240" vol="78" len="12" pan="0" key="69"/>
          <note pos="252" vol="78" len="12" pan="0" key="73"/>
          <note pos="264" vol="78" len="12" pan="0" key="81"/>
          <note pos="264" vol="78" len="24" pan="0" key="0"/>
          <note pos="276" vol="78" len="12" pan="0" key="76"/>
          <note pos="288" vol="78" len="12" pan="0" key="73"/>
          <note pos="288" vol="78" len="24" pan="0" key="1"/>
          <note pos="300" vol="78" len="12" pan="0" key="69"/>
          <note pos="312" vol="78" len="12" pan="0" key="73"/>
          <note pos="324" vol="78" len="12" pan="0" key="76"/>
          <note pos="336" vol="78" len="12" pan="0" key="85"/>
          <note pos="336" vol="78" len="24" pan="0" key="0"/>
          <note pos="348" vol="78" len="12" pan="0" key="83"/>
          <note pos="360" vol="78" len="12" pan="0" key="81"/>
          <note pos="360" vol="78" len="24" pan="0" key="1"/>
          <note pos="372" vol="78" len="12" pan="0" key="83"/>
          <note pos="384" vol="78" len="384" pan="0" key="87"/>
          <note pos="384" vol="78" len="24" pan="0" key="0"/>
        </pattern>
        <pattern name="" steps="16" pos="40512" muted="0" type="1">
          <note pos="0" vol="78" len="24" pan="0" key="81"/>
          <note pos="0" vol="78" len="48" pan="0" key="0"/>
          <note pos="24" vol="78" len="24" pan="0" key="76"/>
          <note pos="48" vol="78" len="24" pan="0" key="73"/>
          <note pos="72" vol="78" len="24" pan="0" key="80"/>
          <note pos="96" vol="78" len="24" pan="0" key="81"/>
          <note pos="120" vol="78" len="24" pan="0" key="83"/>
          <note pos="144" vol="78" len="24" pan="0" key="81"/>
          <note pos="168" vol="78" len="24" pan="0" key="80"/>
          <note pos="192" vol="78" len="12" pan="0" key="81"/>
          <note pos="192" vol="78" len="24" pan="0" key="0"/>
          <note pos="204" vol="78" len="12" pan="0" key="76"/>
          <note pos="216" vol="78" len="12" pan="0" key="73"/>
          <note pos="216" vol="78" len="24" pan="0" key="1"/>
          <note pos="228" vol="78" len="12" pan="0" key="69"/>
          <note pos="240" vol="78" len="12" pan="0" key="64"/>
          <note pos="252" vol="78" len="12" pan="0" key="69"/>
          <note pos="264" vol="78" len="12" pan="0" key="76"/>
          <note pos="264" vol="78" len="24" pan="0" key="0"/>
          <note pos="276" vol="78" len="12" pan="0" key="73"/>
          <note pos="288" vol="78" len="12" pan="0" key="69"/>
          <note pos="288" vol="78" len="24" pan="0" key="1"/>
          <note pos="300" vol="78" len="12" pan="0" key="64"/>
          <note pos="312" vol="78" len="12" pan="0" key="69"/>
          <note pos="324" vol="78" len="12" pan="0" key="73"/>
          <note pos="336" vol="78" len="12" pan="0" key="81"/>
          <note pos="336" vol="78" len="24" pan="0" key="0"/>
          <note pos="348" vol="78" len="12" pan="0" key="80"/>
          <note pos="360" vol="78" len="12" pan="0" key="76"/>
          <note pos="360" vol="78" len="24" pan="0" key="1"/>
          <note pos="372" vol="78" len="12" pan="0" key="80"/>
          <note pos="384" vol="78" len="384" pan="0" key="83"/>
          <note pos="384" vol="78" len="24" pan="0" key="0"/>
        </pattern>
        <pattern name="" steps="16" pos="60288" muted="0" type="1">
          <note pos="0" vol="78" len="120" pan="0" key="75"/>
          <note pos="0" vol="78" len="24" pan="0" key="0"/>
          <note pos="96" vol="78" len="24" pan="0" key="1"/>
          <note pos="120" vol="78" len="24" pan="0" key="70"/>
          <note pos="144" vol="78" len="24" pan="0" key="73"/>
          <note pos="168" vol="78" len="24" pan="0" key="70"/>
          <note pos="192" vol="78" len="144" pan="0" key="75"/>
          <note pos="192" vol="78" len="24" pan="0" key="0"/>
          <note pos="336" vol="78" len="48" pan="0" key="78"/>
          <note pos="384" vol="78" len="288" pan="0" key="77"/>
          <note pos="672" vol="78" len="48" pan="0" key="70"/>
          <note pos="720" vol="78" len="48" pan="0" key="73"/>
          <note pos="768" vol="78" len="240" pan="0" key="75"/>
          <note pos="1008" vol="78" len="12" pan="0" key="73"/>
          <note pos="1020" vol="78" len="12" pan="0" key="70"/>
          <note pos="1032" vol="78" len="12" pan="0" key="71"/>
          <note pos="1044" vol="78" len="12" pan="0" key="73"/>
          <note pos="1056" vol="78" len="12" pan="0" key="75"/>
          <note pos="1068" vol="78" len="12" pan="0" key="73"/>
          <note pos="1080" vol="78" len="12" pan="0" key="75"/>
          <note pos="1092" vol="78" len="12" pan="0" key="78"/>
          <note pos="1104" vol="78" len="12" pan="0" key="82"/>
          <note pos="1116" vol="78" len="12" pan="0" key="78"/>
          <note pos="1128" vol="78" len="12" pan="0" key="80"/>
          <note pos="1140" vol="78" len="12" pan="0" key="82"/>
          <note pos="1152" vol="78" len="192" pan="0" key="80"/>
          <note pos="1344" vol="78" len="24" pan="0" key="83"/>
          <note pos="1368" vol="78" len="12" pan="0" key="82"/>
          <note pos="1380" vol="78" len="12" pan="0" key="83"/>
          <note pos="1392" vol="78" len="24" pan="0" key="82"/>
          <note pos="1416" vol="78" len="12" pan="0" key="83"/>
          <note pos="1428" vol="78" len="12" pan="0" key="82"/>
          <note pos="1440" vol="78" len="24" pan="0" key="80"/>
          <note pos="1464" vol="78" len="12" pan="0" key="82"/>
          <note pos="1476" vol="78" len="12" pan="0" key="80"/>
          <note pos="1488" vol="78" len="24" pan="0" key="76"/>
          <note pos="1512" vol="78" len="12" pan="0" key="78"/>
          <note pos="1524" vol="78" len="12" pan="0" key="76"/>
          <note pos="1536" vol="78" len="144" pan="0" key="75"/>
          <note pos="1680" vol="78" len="24" pan="0" key="75"/>
          <note pos="1704" vol="78" len="24" pan="0" key="77"/>
          <note pos="1728" vol="78" len="96" pan="0" key="78"/>
          <note pos="1812" vol="78" len="24" pan="0" key="0"/>
          <note pos="1824" vol="78" len="12" pan="0" key="80"/>
          <note pos="1836" vol="78" len="84" pan="0" key="82"/>
          <note pos="1836" vol="78" len="24" pan="0" key="2"/>
          <note pos="1896" vol="78" len="24" pan="0" key="0"/>
          <note pos="1920" vol="78" len="156" pan="0" key="80"/>
          <note pos="2076" vol="78" len="12" pan="0" key="80"/>
          <note pos="2088" vol="78" len="12" pan="0" key="78"/>
          <note pos="2100" vol="78" len="12" pan="0" key="77"/>
          <note pos="2112" vol="78" len="96" pan="0" key="73"/>
          <note pos="2208" vol="78" len="48" pan="0" key="70"/>
          <note pos="2256" vol="78" len="48" pan="0" key="73"/>
          <note pos="2304" vol="78" len="120" pan="0" key="75"/>
          <note pos="2424" vol="78" len="12" pan="0" key="73"/>
          <note pos="2424" vol="78" len="12" pan="0" key="1"/>
          <note pos="2436" vol="78" len="12" pan="0" key="73"/>
          <note pos="2448" vol="78" len="12" pan="0" key="72"/>
          <note pos="2460" vol="78" len="12" pan="0" key="72"/>
          <note pos="2472" vol="78" len="12" pan="0" key="68"/>
          <note pos="2484" vol="78" len="12" pan="0" key="68"/>
          <note pos="2496" vol="78" len="96" pan="0" key="70"/>
          <note pos="2496" vol="78" len="12" pan="0" key="0"/>
          <note pos="2592" vol="78" len="96" pan="0" key="63"/>
          <note pos="2688" vol="78" len="12" pan="0" key="70"/>
          <note pos="2688" vol="78" len="12" pan="0" key="0"/>
          <note pos="2700" vol="78" len="84" pan="0" key="71"/>
          <note pos="2700" vol="78" len="12" pan="0" key="2"/>
          <note pos="2712" vol="78" len="12" pan="0" key="0"/>
          <note pos="2784" vol="78" len="96" pan="0" key="70"/>
          <note pos="2880" vol="78" len="96" pan="0" key="68"/>
          <note pos="2976" vol="78" len="96" pan="0" key="73"/>
          <note pos="3072" vol="78" len="12" pan="0" key="75"/>
          <note pos="3072" vol="78" len="12" pan="0" key="1"/>
          <note pos="3084" vol="78" len="12" pan="0" key="75"/>
          <note pos="3096" vol="78" len="12" pan="0" key="66"/>
          <note pos="3108" vol="78" len="12" pan="0" key="66"/>
          <note pos="3120" vol="78" len="12" pan="0" key="70"/>
          <note pos="3132" vol="78" len="12" pan="0" key="70"/>
          <note pos="3144" vol="78" len="12" pan="0" key="66"/>
          <note pos="3156" vol="78" len="12" pan="0" key="66"/>
          <note pos="3168" vol="78" len="12" pan="0" key="75"/>
          <note pos="3180" vol="78" len="12" pan="0" key="75"/>
          <note pos="3192" vol="78" len="12" pan="0" key="70"/>
          <note pos="3204" vol="78" len="12" pan="0" key="70"/>
          <note pos="3216" vol="78" len="12" pan="0" key="77"/>
          <note pos="3228" vol="78" len="12" pan="0" key="77"/>
          <note pos="3240" vol="78" len="12" pan="0" key="70"/>
          <note pos="3252" vol="78" len="12" pan="0" key="70"/>
          <note pos="3264" vol="78" len="12" pan="0" key="78"/>
          <note pos="3276" vol="78" len="12" pan="0" key="78"/>
          <note pos="3288" vol="78" len="12" pan="0" key="75"/>
          <note pos="3300" vol="78" len="12" pan="0" key="75"/>
          <note pos="3312" vol="78" len="12" pan="0" key="80"/>
          <note pos="3312" vol="78" len="12" pan="0" key="0"/>
          <note pos="3324" vol="78" len="12" pan="0" key="78"/>
          <note pos="3336" vol="78" len="12" pan="0" key="75"/>
          <note pos="3348" vol="78" len="12" pan="0" key="78"/>
          <note pos="3360" vol="78" len="12" pan="0" key="82"/>
          <note pos="3372" vol="78" len="12" pan="0" key="80"/>
          <note pos="3384" vol="78" len="12" pan="0" key="78"/>
          <note pos="3396" vol="78" len="12" pan="0" key="80"/>
          <note pos="3408" vol="78" len="48" pan="0" key="87"/>
          <note pos="3408" vol="78" len="12" pan="0" key="0"/>
          <note pos="3456" vol="78" len="144" pan="0" key="85"/>
          <note pos="3600" vol="78" len="12" pan="0" key="80"/>
          <note pos="3600" vol="78" len="12" pan="0" key="0"/>
          <note pos="3612" vol="78" len="36" pan="0" key="82"/>
          <note pos="3612" vol="78" len="12" pan="0" key="2"/>
          <note pos="3624" vol="78" len="12" pan="0" key="0"/>
          <note pos="3648" vol="78" len="96" pan="0" key="80"/>
          <note pos="3744" vol="78" len="48" pan="0" key="77"/>
          <note pos="3792" vol="78" len="48" pan="0" key="80"/>
          <note pos="3840" vol="78" len="12" pan="0" key="79"/>
          <note pos="3852" vol="78" len="12" pan="0" key="80"/>
          <note pos="3864" vol="78" len="12" pan="0" key="79"/>
          <note pos="3876" vol="78" len="12" pan="0" key="77"/>
          <note pos="3888" vol="78" len="12" pan="0" key="75"/>
          <note pos="3900" vol="78" len="12" pan="0" key="77"/>
          <note pos="3912" vol="78" len="12" pan="0" key="75"/>
          <note pos="3924" vol="78" len="12" pan="0" key="72"/>
          <note pos="3936" vol="78" len="12" pan="0" key="70"/>
          <note pos="3948" vol="78" len="12" pan="0" key="72"/>
          <note pos="3960" vol="78" len="12" pan="0" key="70"/>
          <note pos="3972" vol="78" len="12" pan="0" key="68"/>
          <note pos="3984" vol="78" len="12" pan="0" key="65"/>
          <note pos="3996" vol="78" len="12" pan="0" key="68"/>
          <note pos="4008" vol="78" len="12" pan="0" key="65"/>
          <note pos="4020" vol="78" len="12" pan="0" key="63"/>
          <note pos="4032" vol="78" len="48" pan="0" key="70"/>
          <note pos="4080" vol="78" len="12" pan="0" key="68"/>
          <note pos="4080" vol="78" len="12" pan="0" key="0"/>
          <note pos="4092" vol="78" len="12" pan="0" key="65"/>
          <note pos="4092" vol="78" len="12" pan="0" key="2"/>
          <note pos="4104" vol="78" len="12" pan="0" key="65"/>
          <note pos="4104" vol="78" len="12" pan="0" key="1"/>
          <note pos="4116" vol="78" len="12" pan="0" key="65"/>
          <note pos="4128" vol="78" len="96" pan="0" key="75"/>
          <note pos="4128" vol="78" len="12" pan="0" key="0"/>
          <note pos="4224" vol="78" len="192" pan="0" key="75"/>
          <note pos="4416" vol="78" len="96" pan="0" key="78"/>
          <note pos="4512" vol="78" len="96" pan="0" key="80"/>
          <note pos="4608" vol="78" len="192" pan="0" key="82"/>
          <note pos="4608" vol="78" len="16" pan="0" key="0"/>
          <note pos="4800" vol="78" len="16" pan="0" key="75"/>
          <note pos="4800" vol="78" len="16" pan="0" key="1"/>
          <note pos="4816" vol="78" len="16" pan="0" key="77"/>
          <note pos="4832" vol="78" len="16" pan="0" key="75"/>
          <note pos="4848" vol="78" len="16" pan="0" key="78"/>
          <note pos="4864" vol="78" len="16" pan="0" key="80"/>
          <note pos="4864" vol="78" len="16" pan="0" key="0"/>
          <note pos="4880" vol="78" len="16" pan="0" key="82"/>
          <note pos="4896" vol="78" len="16" pan="0" key="87"/>
          <note pos="4912" vol="78" len="16" pan="0" key="82"/>
          <note pos="4928" vol="78" len="16" pan="0" key="80"/>
          <note pos="4928" vol="78" len="16" pan="0" key="1"/>
          <note pos="4944" vol="78" len="16" pan="0" key="78"/>
          <note pos="4960" vol="78" len="16" pan="0" key="77"/>
          <note pos="4976" vol="78" len="16" pan="0" key="75"/>
          <note pos="4992" vol="78" len="48" pan="0" key="77"/>
          <note pos="4992" vol="78" len="192" pan="0" key="0"/>
          <note pos="5040" vol="78" len="48" pan="0" key="78"/>
          <note pos="5088" vol="78" len="48" pan="0" key="80"/>
          <note pos="5136" vol="78" len="48" pan="0" key="85"/>
          <note pos="5184" vol="78" len="96" pan="0" key="73"/>
          <note pos="5280" vol="78" len="12" pan="0" key="75"/>
          <note pos="5280" vol="78" len="12" pan="0" key="0"/>
          <note pos="5292" vol="78" len="84" pan="0" key="77"/>
          <note pos="5292" vol="78" len="12" pan="0" key="2"/>
          <note pos="5304" vol="78" len="12" pan="0" key="0"/>
          <note pos="5376" vol="78" len="96" pan="0" key="75"/>
          <note pos="5472" vol="78" len="96" pan="0" key="77"/>
          <note pos="5568" vol="78" len="96" pan="0" key="70"/>
          <note pos="5664" vol="78" len="96" pan="0" key="75"/>
          <note pos="5760" vol="78" len="96" pan="0" key="80"/>
          <note pos="5856" vol="78" len="96" pan="0" key="82"/>
          <note pos="5952" vol="200" len="96" pan="0" key="85"/>
        </pattern>
      </track>
      <track name="Mystery Dungeon" solo="0" muted="1" type="0">
        <instrumenttrack basenote="57" fxch="0" usemasterpitch="1" pitch="0" vol="192" pan="0" pitchrange="2">
          <instrument name="sf2player">
            <sf2player reverbRoomSize="0.2" src="/home/pass/samples/soundfonts/Mystery Dungeon.sf2" chorusOn="0" chorusDepth="8" gain="1" reverbDamping="0" chorusNum="3" chorusLevel="2" bank="0" reverbLevel="0.9" patch="1" reverbOn="0" chorusSpeed="0.3" reverbWidth="0.5"/>
          </instrument>
          <eldata fwet="0" fcut="14000" ftype="0" fres="0.5">
            <elvol x100="0" userwavefile="" dec="0.5" amt="0" pdel="0" hold="0.5" lamt="0" lpdel="0" lshp="0" lspd_denominator="4" att="0" ctlenvamt="0" lspd="0.1" lspd_syncmode="0" rel="0.1" latt="0" lspd_numerator="4" sustain="0.5"/>
            <elcut x100="0" userwavefile="" dec="0.5" amt="0" pdel="0" hold="0.5" lamt="0" lpdel="0" lshp="0" lspd_denominator="4" att="0" ctlenvamt="0" lspd="0.1" lspd_syncmode="0" rel="0.1" latt="0" lspd_numerator="4" sustain="0.5"/>
            <elres x100="0" userwavefile="" dec="0.5" amt="0" pdel="0" hold="0.5" lamt="0" lpdel="0" lshp="0" lspd_denominator="4" att="0" ctlenvamt="0" lspd="0.1" lspd_syncmode="0" rel="0.1" latt="0" lspd_numerator="4" sustain="0.5"/>
          </eldata>
          <chordcreator chord-enabled="0" chord="0" chordrange="1"/>
          <arpeggiator arprange="1" arpmode="0" arp="0" arptime_numerator="4" arpmiss="0" arptime_denominator="4" arpcycle="0" arpskip="0" arptime_syncmode="0" arpgate="100" arptime="200" arpdir="0" arp-enabled="0"/>
          <midiport fixedoutputnote="-1" outputprogram="1" inputcontroller="0" writable="0" fixedoutputvelocity="-1" readable="0" outputchannel="1" basevelocity="63" outputcontroller="0" fixedinputvelocity="-1" inputchannel="0"/>
          <fxchain numofeffects="0" enabled="0"/>
        </instrumenttrack>
        <pattern name="Sf2 Player" steps="16" pos="4992" muted="0" type="1">
          <note pos="0" vol="78" len="24" pan="0" key="61"/>
          <note pos="0" vol="78" len="24" pan="0" key="49"/>
          <note pos="24" vol="78" len="24" pan="0" key="63"/>
          <note pos="24" vol="78" len="24" pan="0" key="51"/>
          <note pos="48" vol="78" len="24" pan="0" key="61"/>
          <note pos="48" vol="78" len="24" pan="0" key="49"/>
          <note pos="72" vol="78" len="48" pan="0" key="68"/>
          <note pos="72" vol="78" len="48" pan="0" key="56"/>
          <note pos="120" vol="78" len="24" pan="0" key="61"/>
          <note pos="120" vol="78" len="24" pan="0" key="49"/>
          <note pos="144" vol="78" len="24" pan="0" key="64"/>
          <note pos="144" vol="78" len="24" pan="0" key="52"/>
          <note pos="168" vol="78" len="24" pan="0" key="68"/>
          <note pos="168" vol="78" len="24" pan="0" key="56"/>
          <note pos="192" vol="78" len="24" pan="0" key="71"/>
          <note pos="192" vol="78" len="24" pan="0" key="59"/>
          <note pos="216" vol="78" len="24" pan="0" key="69"/>
          <note pos="216" vol="78" len="24" pan="0" key="57"/>
          <note pos="240" vol="78" len="24" pan="0" key="68"/>
          <note pos="240" vol="78" len="24" pan="0" key="56"/>
          <note pos="264" vol="78" len="48" pan="0" key="69"/>
          <note pos="264" vol="78" len="48" pan="0" key="57"/>
          <note pos="312" vol="78" len="24" pan="0" key="68"/>
          <note pos="312" vol="78" len="24" pan="0" key="56"/>
          <note pos="336" vol="78" len="24" pan="0" key="66"/>
          <note pos="336" vol="78" len="24" pan="0" key="54"/>
          <note pos="360" vol="78" len="24" pan="0" key="68"/>
          <note pos="360" vol="78" len="24" pan="0" key="56"/>
          <note pos="384" vol="78" len="96" pan="0" key="63"/>
          <note pos="384" vol="78" len="96" pan="0" key="51"/>
        </pattern>
        <pattern name="Sf2 Player" steps="16" pos="5760" muted="0" type="1">
          <note pos="0" vol="78" len="24" pan="0" key="61"/>
          <note pos="0" vol="78" len="24" pan="0" key="49"/>
          <note pos="24" vol="78" len="24" pan="0" key="63"/>
          <note pos="24" vol="78" len="24" pan="0" key="51"/>
          <note pos="48" vol="78" len="24" pan="0" key="61"/>
          <note pos="48" vol="78" len="24" pan="0" key="49"/>
          <note pos="72" vol="78" len="48" pan="0" key="68"/>
          <note pos="72" vol="78" len="48" pan="0" key="56"/>
          <note pos="120" vol="78" len="24" pan="0" key="61"/>
          <note pos="120" vol="78" len="24" pan="0" key="49"/>
          <note pos="144" vol="78" len="24" pan="0" key="64"/>
          <note pos="144" vol="78" len="24" pan="0" key="52"/>
          <note pos="168" vol="78" len="24" pan="0" key="68"/>
          <note pos="168" vol="78" len="24" pan="0" key="56"/>
          <note pos="192" vol="78" len="24" pan="0" key="71"/>
          <note pos="192" vol="78" len="24" pan="0" key="59"/>
          <note pos="216" vol="78" len="24" pan="0" key="73"/>
          <note pos="216" vol="78" len="24" pan="0" key="61"/>
          <note pos="240" vol="78" len="24" pan="0" key="75"/>
          <note pos="240" vol="78" len="24" pan="0" key="63"/>
          <note pos="264" vol="78" len="48" pan="0" key="73"/>
          <note pos="264" vol="78" len="48" pan="0" key="61"/>
          <note pos="312" vol="78" len="24" pan="0" key="75"/>
          <note pos="312" vol="78" len="24" pan="0" key="63"/>
          <note pos="336" vol="78" len="24" pan="0" key="76"/>
          <note pos="336" vol="78" len="24" pan="0" key="64"/>
          <note pos="360" vol="78" len="24" pan="0" key="78"/>
          <note pos="360" vol="78" len="24" pan="0" key="66"/>
          <note pos="384" vol="78" len="96" pan="0" key="75"/>
          <note pos="384" vol="78" len="96" pan="0" key="63"/>
        </pattern>
        <pattern name="Sf2 Player" steps="16" pos="7104" muted="0" type="1">
          <note pos="96" vol="78" len="48" pan="0" key="68"/>
          <note pos="96" vol="78" len="48" pan="0" key="56"/>
          <note pos="144" vol="78" len="48" pan="0" key="71"/>
          <note pos="144" vol="78" len="48" pan="0" key="59"/>
          <note pos="192" vol="78" len="96" pan="0" key="73"/>
          <note pos="192" vol="78" len="96" pan="0" key="61"/>
          <note pos="288" vol="78" len="24" pan="0" key="73"/>
          <note pos="288" vol="78" len="24" pan="0" key="61"/>
          <note pos="312" vol="78" len="24" pan="0" key="68"/>
          <note pos="312" vol="78" len="24" pan="0" key="56"/>
          <note pos="336" vol="78" len="24" pan="0" key="73"/>
          <note pos="336" vol="78" len="24" pan="0" key="61"/>
          <note pos="360" vol="78" len="168" pan="0" key="80"/>
          <note pos="360" vol="78" len="168" pan="0" key="68"/>
          <note pos="528" vol="78" len="24" pan="0" key="80"/>
          <note pos="528" vol="78" len="24" pan="0" key="68"/>
          <note pos="552" vol="78" len="24" pan="0" key="78"/>
          <note pos="552" vol="78" len="24" pan="0" key="66"/>
          <note pos="576" vol="78" len="48" pan="0" key="77"/>
          <note pos="576" vol="78" len="48" pan="0" key="65"/>
          <note pos="624" vol="78" len="48" pan="0" key="73"/>
          <note pos="624" vol="78" len="48" pan="0" key="61"/>
          <note pos="672" vol="78" len="48" pan="0" key="70"/>
          <note pos="672" vol="78" len="48" pan="0" key="58"/>
          <note pos="720" vol="78" len="48" pan="0" key="66"/>
          <note pos="720" vol="78" len="48" pan="0" key="54"/>
          <note pos="768" vol="78" len="96" pan="0" key="69"/>
          <note pos="768" vol="78" len="96" pan="0" key="57"/>
          <note pos="864" vol="78" len="96" pan="0" key="68"/>
          <note pos="864" vol="78" len="96" pan="0" key="56"/>
          <note pos="960" vol="78" len="144" pan="0" key="61"/>
          <note pos="960" vol="78" len="144" pan="0" key="49"/>
          <note pos="1104" vol="78" len="48" pan="0" key="64"/>
          <note pos="1104" vol="78" len="48" pan="0" key="52"/>
          <note pos="1152" vol="78" len="144" pan="0" key="63"/>
          <note pos="1152" vol="78" len="144" pan="0" key="51"/>
          <note pos="1296" vol="78" len="48" pan="0" key="68"/>
          <note pos="1296" vol="78" len="48" pan="0" key="56"/>
          <note pos="1344" vol="78" len="144" pan="0" key="68"/>
          <note pos="1344" vol="78" len="144" pan="0" key="56"/>
          <note pos="1488" vol="78" len="24" pan="0" key="66"/>
          <note pos="1488" vol="78" len="24" pan="0" key="54"/>
          <note pos="1512" vol="78" len="24" pan="0" key="64"/>
          <note pos="1512" vol="78" len="24" pan="0" key="52"/>
          <note pos="1536" vol="78" len="48" pan="0" key="63"/>
          <note pos="1536" vol="78" len="48" pan="0" key="51"/>
          <note pos="1584" vol="78" len="48" pan="0" key="64"/>
          <note pos="1584" vol="78" len="48" pan="0" key="52"/>
          <note pos="1632" vol="78" len="48" pan="0" key="59"/>
          <note pos="1632" vol="78" len="48" pan="0" key="47"/>
          <note pos="1680" vol="78" len="48" pan="0" key="56"/>
          <note pos="1680" vol="78" len="48" pan="0" key="44"/>
          <note pos="1728" vol="78" len="96" pan="0" key="57"/>
          <note pos="1728" vol="78" len="96" pan="0" key="45"/>
          <note pos="1824" vol="78" len="48" pan="0" key="61"/>
          <note pos="1824" vol="78" len="48" pan="0" key="49"/>
          <note pos="1872" vol="78" len="48" pan="0" key="64"/>
          <note pos="1872" vol="78" len="48" pan="0" key="52"/>
          <note pos="1920" vol="78" len="96" pan="0" key="64"/>
          <note pos="1920" vol="78" len="96" pan="0" key="52"/>
          <note pos="2016" vol="78" len="48" pan="0" key="63"/>
          <note pos="2016" vol="78" len="48" pan="0" key="51"/>
          <note pos="2064" vol="78" len="48" pan="0" key="64"/>
          <note pos="2064" vol="78" len="48" pan="0" key="52"/>
          <note pos="2112" vol="78" len="72" pan="0" key="71"/>
          <note pos="2112" vol="78" len="72" pan="0" key="59"/>
          <note pos="2184" vol="78" len="72" pan="0" key="69"/>
          <note pos="2184" vol="78" len="72" pan="0" key="57"/>
          <note pos="2256" vol="78" len="48" pan="0" key="68"/>
          <note pos="2256" vol="78" len="48" pan="0" key="56"/>
          <note pos="2304" vol="78" len="192" pan="0" key="66"/>
          <note pos="2304" vol="78" len="192" pan="0" key="54"/>
          <note pos="2496" vol="78" len="72" pan="0" key="64"/>
          <note pos="2496" vol="78" len="72" pan="0" key="52"/>
          <note pos="2568" vol="78" len="72" pan="0" key="63"/>
          <note pos="2568" vol="78" len="72" pan="0" key="51"/>
          <note pos="2640" vol="78" len="48" pan="0" key="64"/>
          <note pos="2640" vol="78" len="48" pan="0" key="52"/>
          <note pos="2688" vol="78" len="144" pan="0" key="68"/>
          <note pos="2688" vol="78" len="144" pan="0" key="56"/>
          <note pos="2832" vol="78" len="48" pan="0" key="63"/>
          <note pos="2832" vol="78" len="48" pan="0" key="51"/>
          <note pos="2880" vol="78" len="240" pan="0" key="61"/>
          <note pos="2880" vol="78" len="240" pan="0" key="49"/>
          <note pos="3120" vol="78" len="48" pan="0" key="64"/>
          <note pos="3120" vol="78" len="48" pan="0" key="52"/>
          <note pos="3168" vol="78" len="48" pan="0" key="66"/>
          <note pos="3168" vol="78" len="48" pan="0" key="54"/>
          <note pos="3216" vol="78" len="48" pan="0" key="68"/>
          <note pos="3216" vol="78" len="48" pan="0" key="56"/>
          <note pos="3264" vol="78" len="72" pan="0" key="69"/>
          <note pos="3264" vol="78" len="72" pan="0" key="57"/>
          <note pos="3336" vol="78" len="72" pan="0" key="68"/>
          <note pos="3336" vol="78" len="72" pan="0" key="56"/>
          <note pos="3408" vol="78" len="48" pan="0" key="66"/>
          <note pos="3408" vol="78" len="48" pan="0" key="54"/>
          <note pos="3456" vol="78" len="48" pan="0" key="64"/>
          <note pos="3456" vol="78" len="48" pan="0" key="52"/>
          <note pos="3504" vol="78" len="48" pan="0" key="61"/>
          <note pos="3504" vol="78" len="48" pan="0" key="49"/>
          <note pos="3552" vol="78" len="48" pan="0" key="64"/>
          <note pos="3552" vol="78" len="48" pan="0" key="52"/>
          <note pos="3600" vol="78" len="48" pan="0" key="68"/>
          <note pos="3600" vol="78" len="48" pan="0" key="56"/>
          <note pos="3648" vol="78" len="192" pan="0" key="66"/>
          <note pos="3648" vol="78" len="192" pan="0" key="54"/>
          <note pos="3840" vol="78" len="96" pan="0" key="63"/>
          <note pos="3840" vol="78" len="96" pan="0" key="51"/>
          <note pos="3936" vol="78" len="96" pan="0" key="59"/>
          <note pos="3936" vol="78" len="96" pan="0" key="47"/>
          <note pos="4032" vol="78" len="384" pan="0" key="61"/>
          <note pos="4032" vol="78" len="384" pan="0" key="49"/>
        </pattern>
        <pattern name="Sf2 Player" steps="16" pos="12672" muted="0" type="1">
          <note pos="0" vol="78" len="24" pan="0" key="49"/>
          <note pos="24" vol="78" len="24" pan="0" key="51"/>
          <note pos="48" vol="78" len="24" pan="0" key="49"/>
          <note pos="72" vol="78" len="48" pan="0" key="56"/>
          <note pos="120" vol="78" len="24" pan="0" key="49"/>
          <note pos="144" vol="78" len="24" pan="0" key="52"/>
          <note pos="168" vol="78" len="24" pan="0" key="56"/>
          <note pos="192" vol="78" len="24" pan="0" key="59"/>
          <note pos="216" vol="78" len="24" pan="0" key="57"/>
          <note pos="240" vol="78" len="24" pan="0" key="56"/>
          <note pos="264" vol="78" len="48" pan="0" key="57"/>
          <note pos="312" vol="78" len="24" pan="0" key="56"/>
          <note pos="336" vol="78" len="24" pan="0" key="54"/>
          <note pos="360" vol="78" len="24" pan="0" key="56"/>
          <note pos="384" vol="78" len="96" pan="0" key="51"/>
        </pattern>
        <pattern name="Sf2 Player" steps="16" pos="13440" muted="0" type="1">
          <note pos="0" vol="78" len="24" pan="0" key="49"/>
          <note pos="24" vol="78" len="24" pan="0" key="51"/>
          <note pos="48" vol="78" len="24" pan="0" key="49"/>
          <note pos="72" vol="78" len="48" pan="0" key="56"/>
          <note pos="120" vol="78" len="24" pan="0" key="49"/>
          <note pos="144" vol="78" len="24" pan="0" key="52"/>
          <note pos="168" vol="78" len="24" pan="0" key="56"/>
          <note pos="192" vol="78" len="24" pan="0" key="59"/>
          <note pos="216" vol="78" len="24" pan="0" key="61"/>
          <note pos="240" vol="78" len="24" pan="0" key="63"/>
          <note pos="264" vol="78" len="48" pan="0" key="61"/>
          <note pos="312" vol="78" len="24" pan="0" key="63"/>
          <note pos="336" vol="78" len="24" pan="0" key="64"/>
          <note pos="360" vol="78" len="24" pan="0" key="66"/>
          <note pos="384" vol="78" len="96" pan="0" key="63"/>
        </pattern>
        <pattern name="Sf2 Player" steps="16" pos="14784" muted="0" type="1">
          <note pos="96" vol="78" len="48" pan="0" key="68"/>
          <note pos="96" vol="78" len="48" pan="0" key="56"/>
          <note pos="144" vol="78" len="48" pan="0" key="71"/>
          <note pos="144" vol="78" len="48" pan="0" key="59"/>
          <note pos="192" vol="78" len="96" pan="0" key="73"/>
          <note pos="192" vol="78" len="96" pan="0" key="61"/>
          <note pos="288" vol="78" len="24" pan="0" key="73"/>
          <note pos="288" vol="78" len="24" pan="0" key="61"/>
          <note pos="312" vol="78" len="24" pan="0" key="68"/>
          <note pos="312" vol="78" len="24" pan="0" key="56"/>
          <note pos="336" vol="78" len="24" pan="0" key="73"/>
          <note pos="336" vol="78" len="24" pan="0" key="61"/>
          <note pos="360" vol="78" len="168" pan="0" key="80"/>
          <note pos="360" vol="78" len="168" pan="0" key="68"/>
          <note pos="528" vol="78" len="24" pan="0" key="80"/>
          <note pos="528" vol="78" len="24" pan="0" key="68"/>
          <note pos="552" vol="78" len="24" pan="0" key="78"/>
          <note pos="552" vol="78" len="24" pan="0" key="66"/>
          <note pos="576" vol="78" len="48" pan="0" key="77"/>
          <note pos="576" vol="78" len="48" pan="0" key="65"/>
          <note pos="624" vol="78" len="48" pan="0" key="73"/>
          <note pos="624" vol="78" len="48" pan="0" key="61"/>
          <note pos="672" vol="78" len="48" pan="0" key="70"/>
          <note pos="672" vol="78" len="48" pan="0" key="58"/>
          <note pos="720" vol="78" len="48" pan="0" key="66"/>
          <note pos="720" vol="78" len="48" pan="0" key="54"/>
          <note pos="768" vol="78" len="96" pan="0" key="69"/>
          <note pos="768" vol="78" len="96" pan="0" key="57"/>
          <note pos="864" vol="78" len="96" pan="0" key="68"/>
          <note pos="864" vol="78" len="96" pan="0" key="56"/>
          <note pos="960" vol="78" len="144" pan="0" key="61"/>
          <note pos="960" vol="78" len="144" pan="0" key="49"/>
          <note pos="1104" vol="78" len="48" pan="0" key="64"/>
          <note pos="1104" vol="78" len="48" pan="0" key="52"/>
          <note pos="1152" vol="78" len="144" pan="0" key="63"/>
          <note pos="1152" vol="78" len="144" pan="0" key="51"/>
          <note pos="1296" vol="78" len="48" pan="0" key="68"/>
          <note pos="1296" vol="78" len="48" pan="0" key="56"/>
          <note pos="1344" vol="78" len="144" pan="0" key="68"/>
          <note pos="1344" vol="78" len="144" pan="0" key="56"/>
          <note pos="1488" vol="78" len="24" pan="0" key="66"/>
          <note pos="1488" vol="78" len="24" pan="0" key="54"/>
          <note pos="1512" vol="78" len="24" pan="0" key="64"/>
          <note pos="1512" vol="78" len="24" pan="0" key="52"/>
          <note pos="1536" vol="78" len="48" pan="0" key="63"/>
          <note pos="1536" vol="78" len="48" pan="0" key="51"/>
          <note pos="1584" vol="78" len="48" pan="0" key="64"/>
          <note pos="1584" vol="78" len="48" pan="0" key="52"/>
          <note pos="1632" vol="78" len="48" pan="0" key="59"/>
          <note pos="1632" vol="78" len="48" pan="0" key="47"/>
          <note pos="1680" vol="78" len="48" pan="0" key="56"/>
          <note pos="1680" vol="78" len="48" pan="0" key="44"/>
          <note pos="1728" vol="78" len="96" pan="0" key="57"/>
          <note pos="1728" vol="78" len="96" pan="0" key="45"/>
          <note pos="1824" vol="78" len="48" pan="0" key="61"/>
          <note pos="1824" vol="78" len="48" pan="0" key="49"/>
          <note pos="1872" vol="78" len="48" pan="0" key="64"/>
          <note pos="1872" vol="78" len="48" pan="0" key="52"/>
          <note pos="1920" vol="78" len="96" pan="0" key="64"/>
          <note pos="1920" vol="78" len="96" pan="0" key="52"/>
          <note pos="2016" vol="78" len="48" pan="0" key="63"/>
          <note pos="2016" vol="78" len="48" pan="0" key="51"/>
          <note pos="2064" vol="78" len="48" pan="0" key="64"/>
          <note pos="2064" vol="78" len="48" pan="0" key="52"/>
          <note pos="2112" vol="78" len="72" pan="0" key="71"/>
          <note pos="2112" vol="78" len="72" pan="0" key="59"/>
          <note pos="2184" vol="78" len="72" pan="0" key="69"/>
          <note pos="2184" vol="78" len="72" pan="0" key="57"/>
          <note pos="2256" vol="78" len="48" pan="0" key="68"/>
          <note pos="2256" vol="78" len="48" pan="0" key="56"/>
          <note pos="2304" vol="78" len="192" pan="0" key="66"/>
          <note pos="2304" vol="78" len="192" pan="0" key="54"/>
          <note pos="2496" vol="78" len="72" pan="0" key="64"/>
          <note pos="2496" vol="78" len="72" pan="0" key="52"/>
          <note pos="2568" vol="78" len="72" pan="0" key="63"/>
          <note pos="2568" vol="78" len="72" pan="0" key="51"/>
          <note pos="2640" vol="78" len="48" pan="0" key="64"/>
          <note pos="2640" vol="78" len="48" pan="0" key="52"/>
          <note pos="2688" vol="78" len="144" pan="0" key="68"/>
          <note pos="2688" vol="78" len="144" pan="0" key="56"/>
          <note pos="2832" vol="78" len="48" pan="0" key="63"/>
          <note pos="2832" vol="78" len="48" pan="0" key="51"/>
          <note pos="2880" vol="78" len="240" pan="0" key="61"/>
          <note pos="2880" vol="78" len="240" pan="0" key="49"/>
          <note pos="3120" vol="78" len="48" pan="0" key="64"/>
          <note pos="3120" vol="78" len="48" pan="0" key="52"/>
          <note pos="3168" vol="78" len="48" pan="0" key="66"/>
          <note pos="3168" vol="78" len="48" pan="0" key="54"/>
          <note pos="3216" vol="78" len="48" pan="0" key="68"/>
          <note pos="3216" vol="78" len="48" pan="0" key="56"/>
          <note pos="3264" vol="78" len="72" pan="0" key="69"/>
          <note pos="3264" vol="78" len="72" pan="0" key="57"/>
          <note pos="3336" vol="78" len="72" pan="0" key="68"/>
          <note pos="3336" vol="78" len="72" pan="0" key="56"/>
          <note pos="3408" vol="78" len="48" pan="0" key="66"/>
          <note pos="3408" vol="78" len="48" pan="0" key="54"/>
          <note pos="3456" vol="78" len="48" pan="0" key="64"/>
          <note pos="3456" vol="78" len="48" pan="0" key="52"/>
          <note pos="3504" vol="78" len="48" pan="0" key="61"/>
          <note pos="3504" vol="78" len="48" pan="0" key="49"/>
          <note pos="3552" vol="78" len="48" pan="0" key="64"/>
          <note pos="3552" vol="78" len="48" pan="0" key="52"/>
          <note pos="3600" vol="78" len="48" pan="0" key="68"/>
          <note pos="3600" vol="78" len="48" pan="0" key="56"/>
          <note pos="3648" vol="78" len="192" pan="0" key="66"/>
          <note pos="3648" vol="78" len="192" pan="0" key="54"/>
          <note pos="3840" vol="78" len="24" pan="0" key="63"/>
          <note pos="3840" vol="78" len="24" pan="0" key="51"/>
          <note pos="3864" vol="78" len="24" pan="0" key="63"/>
          <note pos="3864" vol="78" len="24" pan="0" key="51"/>
          <note pos="3936" vol="78" len="24" pan="0" key="71"/>
          <note pos="3936" vol="78" len="24" pan="0" key="59"/>
          <note pos="3960" vol="78" len="24" pan="0" key="71"/>
          <note pos="3960" vol="78" len="24" pan="0" key="59"/>
          <note pos="4032" vol="78" len="336" pan="0" key="73"/>
          <note pos="4032" vol="78" len="336" pan="0" key="61"/>
          <note pos="4368" vol="78" len="48" pan="0" key="64"/>
          <note pos="4368" vol="78" len="48" pan="0" key="52"/>
          <note pos="4416" vol="78" len="288" pan="0" key="63"/>
          <note pos="4416" vol="78" len="288" pan="0" key="51"/>
          <note pos="4704" vol="78" len="48" pan="0" key="56"/>
          <note pos="4704" vol="78" len="48" pan="0" key="44"/>
          <note pos="4752" vol="78" len="48" pan="0" key="59"/>
          <note pos="4752" vol="78" len="48" pan="0" key="47"/>
          <note pos="4800" vol="78" len="240" pan="0" key="61"/>
          <note pos="4800" vol="78" len="240" pan="0" key="49"/>
          <note pos="5040" vol="78" len="48" pan="0" key="59"/>
          <note pos="5040" vol="78" len="48" pan="0" key="47"/>
          <note pos="5088" vol="78" len="48" pan="0" key="61"/>
          <note pos="5088" vol="78" len="48" pan="0" key="49"/>
          <note pos="5136" vol="78" len="48" pan="0" key="68"/>
          <note pos="5136" vol="78" len="48" pan="0" key="56"/>
          <note pos="5184" vol="78" len="192" pan="0" key="66"/>
          <note pos="5184" vol="78" len="192" pan="0" key="54"/>
          <note pos="5376" vol="78" len="48" pan="0" key="69"/>
          <note pos="5376" vol="78" len="48" pan="0" key="57"/>
          <note pos="5424" vol="78" len="24" pan="0" key="68"/>
          <note pos="5424" vol="78" len="24" pan="0" key="56"/>
          <note pos="5448" vol="78" len="12" pan="0" key="68"/>
          <note pos="5448" vol="78" len="12" pan="0" key="56"/>
          <note pos="5456" vol="78" len="12" pan="0" key="69"/>
          <note pos="5456" vol="78" len="12" pan="0" key="57"/>
          <note pos="5464" vol="78" len="12" pan="0" key="68"/>
          <note pos="5464" vol="78" len="12" pan="0" key="56"/>
          <note pos="5472" vol="78" len="48" pan="0" key="66"/>
          <note pos="5472" vol="78" len="48" pan="0" key="54"/>
          <note pos="5520" vol="78" len="48" pan="0" key="68"/>
          <note pos="5520" vol="78" len="48" pan="0" key="56"/>
          <note pos="5568" vol="78" len="240" pan="0" key="64"/>
          <note pos="5568" vol="78" len="240" pan="0" key="52"/>
          <note pos="5808" vol="78" len="48" pan="0" key="61"/>
          <note pos="5808" vol="78" len="48" pan="0" key="49"/>
          <note pos="5856" vol="78" len="48" pan="0" key="64"/>
          <note pos="5856" vol="78" len="48" pan="0" key="52"/>
          <note pos="5904" vol="78" len="48" pan="0" key="68"/>
          <note pos="5904" vol="78" len="48" pan="0" key="56"/>
          <note pos="5952" vol="78" len="192" pan="0" key="68"/>
          <note pos="5952" vol="78" len="192" pan="0" key="56"/>
          <note pos="6144" vol="78" len="144" pan="0" key="66"/>
          <note pos="6144" vol="78" len="144" pan="0" key="54"/>
          <note pos="6288" vol="78" len="48" pan="0" key="68"/>
          <note pos="6288" vol="78" len="48" pan="0" key="56"/>
          <note pos="6336" vol="78" len="240" pan="0" key="61"/>
          <note pos="6336" vol="78" len="240" pan="0" key="49"/>
          <note pos="6576" vol="78" len="48" pan="0" key="56"/>
          <note pos="6576" vol="78" len="48" pan="0" key="44"/>
          <note pos="6624" vol="78" len="48" pan="0" key="61"/>
          <note pos="6624" vol="78" len="48" pan="0" key="49"/>
          <note pos="6672" vol="78" len="48" pan="0" key="68"/>
          <note pos="6672" vol="78" len="48" pan="0" key="56"/>
          <note pos="6720" vol="78" len="192" pan="0" key="73"/>
          <note pos="6720" vol="78" len="192" pan="0" key="61"/>
          <note pos="6912" vol="78" len="192" pan="0" key="72"/>
          <note pos="6912" vol="78" len="192" pan="0" key="60"/>
        </pattern>
        <pattern name="Sf2 Player" steps="16" pos="36480" muted="0" type="1">
          <note pos="0" vol="78" len="24" pan="0" key="61"/>
          <note pos="0" vol="78" len="24" pan="0" key="49"/>
          <note pos="24" vol="78" len="24" pan="0" key="63"/>
          <note pos="24" vol="78" len="24" pan="0" key="51"/>
          <note pos="48" vol="78" len="24" pan="0" key="61"/>
          <note pos="48" vol="78" len="24" pan="0" key="49"/>
          <note pos="72" vol="78" len="48" pan="0" key="68"/>
          <note pos="72" vol="78" len="48" pan="0" key="56"/>
          <note pos="120" vol="78" len="24" pan="0" key="61"/>
          <note pos="120" vol="78" len="24" pan="0" key="49"/>
          <note pos="144" vol="78" len="24" pan="0" key="64"/>
          <note pos="144" vol="78" len="24" pan="0" key="52"/>
          <note pos="168" vol="78" len="24" pan="0" key="68"/>
          <note pos="168" vol="78" len="24" pan="0" key="56"/>
          <note pos="192" vol="78" len="24" pan="0" key="71"/>
          <note pos="192" vol="78" len="24" pan="0" key="59"/>
          <note pos="216" vol="78" len="24" pan="0" key="69"/>
          <note pos="216" vol="78" len="24" pan="0" key="57"/>
          <note pos="240" vol="78" len="24" pan="0" key="68"/>
          <note pos="240" vol="78" len="24" pan="0" key="56"/>
          <note pos="264" vol="78" len="48" pan="0" key="69"/>
          <note pos="264" vol="78" len="48" pan="0" key="57"/>
          <note pos="312" vol="78" len="24" pan="0" key="68"/>
          <note pos="312" vol="78" len="24" pan="0" key="56"/>
          <note pos="336" vol="78" len="24" pan="0" key="66"/>
          <note pos="336" vol="78" len="24" pan="0" key="54"/>
          <note pos="360" vol="78" len="24" pan="0" key="68"/>
          <note pos="360" vol="78" len="24" pan="0" key="56"/>
          <note pos="384" vol="78" len="96" pan="0" key="63"/>
          <note pos="384" vol="78" len="96" pan="0" key="51"/>
        </pattern>
        <pattern name="Sf2 Player" steps="16" pos="37248" muted="0" type="1">
          <note pos="0" vol="78" len="24" pan="0" key="61"/>
          <note pos="0" vol="78" len="24" pan="0" key="49"/>
          <note pos="24" vol="78" len="24" pan="0" key="63"/>
          <note pos="24" vol="78" len="24" pan="0" key="51"/>
          <note pos="48" vol="78" len="24" pan="0" key="61"/>
          <note pos="48" vol="78" len="24" pan="0" key="49"/>
          <note pos="72" vol="78" len="48" pan="0" key="68"/>
          <note pos="72" vol="78" len="48" pan="0" key="56"/>
          <note pos="120" vol="78" len="24" pan="0" key="61"/>
          <note pos="120" vol="78" len="24" pan="0" key="49"/>
          <note pos="144" vol="78" len="24" pan="0" key="64"/>
          <note pos="144" vol="78" len="24" pan="0" key="52"/>
          <note pos="168" vol="78" len="24" pan="0" key="68"/>
          <note pos="168" vol="78" len="24" pan="0" key="56"/>
          <note pos="192" vol="78" len="24" pan="0" key="71"/>
          <note pos="192" vol="78" len="24" pan="0" key="59"/>
          <note pos="216" vol="78" len="24" pan="0" key="73"/>
          <note pos="216" vol="78" len="24" pan="0" key="61"/>
          <note pos="240" vol="78" len="24" pan="0" key="75"/>
          <note pos="240" vol="78" len="24" pan="0" key="63"/>
          <note pos="264" vol="78" len="48" pan="0" key="73"/>
          <note pos="264" vol="78" len="48" pan="0" key="61"/>
          <note pos="312" vol="78" len="24" pan="0" key="75"/>
          <note pos="312" vol="78" len="24" pan="0" key="63"/>
          <note pos="336" vol="78" len="24" pan="0" key="76"/>
          <note pos="336" vol="78" len="24" pan="0" key="64"/>
          <note pos="360" vol="78" len="24" pan="0" key="78"/>
          <note pos="360" vol="78" len="24" pan="0" key="66"/>
          <note pos="384" vol="78" len="96" pan="0" key="75"/>
          <note pos="384" vol="78" len="96" pan="0" key="63"/>
        </pattern>
        <pattern name="Sf2 Player" steps="16" pos="38592" muted="0" type="1">
          <note pos="96" vol="78" len="48" pan="0" key="68"/>
          <note pos="96" vol="78" len="48" pan="0" key="56"/>
          <note pos="144" vol="78" len="48" pan="0" key="71"/>
          <note pos="144" vol="78" len="48" pan="0" key="59"/>
          <note pos="192" vol="78" len="96" pan="0" key="73"/>
          <note pos="192" vol="78" len="96" pan="0" key="61"/>
          <note pos="288" vol="78" len="24" pan="0" key="73"/>
          <note pos="288" vol="78" len="24" pan="0" key="61"/>
          <note pos="312" vol="78" len="24" pan="0" key="68"/>
          <note pos="312" vol="78" len="24" pan="0" key="56"/>
          <note pos="336" vol="78" len="24" pan="0" key="73"/>
          <note pos="336" vol="78" len="24" pan="0" key="61"/>
          <note pos="360" vol="78" len="168" pan="0" key="80"/>
          <note pos="360" vol="78" len="168" pan="0" key="68"/>
          <note pos="528" vol="78" len="24" pan="0" key="80"/>
          <note pos="528" vol="78" len="24" pan="0" key="68"/>
          <note pos="552" vol="78" len="24" pan="0" key="78"/>
          <note pos="552" vol="78" len="24" pan="0" key="66"/>
          <note pos="576" vol="78" len="48" pan="0" key="77"/>
          <note pos="576" vol="78" len="48" pan="0" key="65"/>
          <note pos="624" vol="78" len="48" pan="0" key="73"/>
          <note pos="624" vol="78" len="48" pan="0" key="61"/>
          <note pos="672" vol="78" len="48" pan="0" key="70"/>
          <note pos="672" vol="78" len="48" pan="0" key="58"/>
          <note pos="720" vol="78" len="48" pan="0" key="66"/>
          <note pos="720" vol="78" len="48" pan="0" key="54"/>
          <note pos="768" vol="78" len="96" pan="0" key="69"/>
          <note pos="768" vol="78" len="96" pan="0" key="57"/>
          <note pos="864" vol="78" len="96" pan="0" key="68"/>
          <note pos="864" vol="78" len="96" pan="0" key="56"/>
          <note pos="960" vol="78" len="144" pan="0" key="61"/>
          <note pos="960" vol="78" len="144" pan="0" key="49"/>
          <note pos="1104" vol="78" len="48" pan="0" key="64"/>
          <note pos="1104" vol="78" len="48" pan="0" key="52"/>
          <note pos="1152" vol="78" len="144" pan="0" key="63"/>
          <note pos="1152" vol="78" len="144" pan="0" key="51"/>
          <note pos="1296" vol="78" len="48" pan="0" key="68"/>
          <note pos="1296" vol="78" len="48" pan="0" key="56"/>
          <note pos="1344" vol="78" len="144" pan="0" key="68"/>
          <note pos="1344" vol="78" len="144" pan="0" key="56"/>
          <note pos="1488" vol="78" len="24" pan="0" key="66"/>
          <note pos="1488" vol="78" len="24" pan="0" key="54"/>
          <note pos="1512" vol="78" len="24" pan="0" key="64"/>
          <note pos="1512" vol="78" len="24" pan="0" key="52"/>
          <note pos="1536" vol="78" len="48" pan="0" key="63"/>
          <note pos="1536" vol="78" len="48" pan="0" key="51"/>
          <note pos="1584" vol="78" len="48" pan="0" key="64"/>
          <note pos="1584" vol="78" len="48" pan="0" key="52"/>
          <note pos="1632" vol="78" len="48" pan="0" key="59"/>
          <note pos="1632" vol="78" len="48" pan="0" key="47"/>
          <note pos="1680" vol="78" len="48" pan="0" key="56"/>
          <note pos="1680" vol="78" len="48" pan="0" key="44"/>
          <note pos="1728" vol="78" len="96" pan="0" key="57"/>
          <note pos="1728" vol="78" len="96" pan="0" key="45"/>
          <note pos="1824" vol="78" len="48" pan="0" key="61"/>
          <note pos="1824" vol="78" len="48" pan="0" key="49"/>
          <note pos="1872" vol="78" len="48" pan="0" key="64"/>
          <note pos="1872" vol="78" len="48" pan="0" key="52"/>
          <note pos="1920" vol="78" len="96" pan="0" key="64"/>
          <note pos="1920" vol="78" len="96" pan="0" key="52"/>
          <note pos="2016" vol="78" len="48" pan="0" key="63"/>
          <note pos="2016" vol="78" len="48" pan="0" key="51"/>
          <note pos="2064" vol="78" len="48" pan="0" key="64"/>
          <note pos="2064" vol="78" len="48" pan="0" key="52"/>
          <note pos="2112" vol="78" len="72" pan="0" key="71"/>
          <note pos="2112" vol="78" len="72" pan="0" key="59"/>
          <note pos="2184" vol="78" len="72" pan="0" key="69"/>
          <note pos="2184" vol="78" len="72" pan="0" key="57"/>
          <note pos="2256" vol="78" len="48" pan="0" key="68"/>
          <note pos="2256" vol="78" len="48" pan="0" key="56"/>
          <note pos="2304" vol="78" len="192" pan="0" key="66"/>
          <note pos="2304" vol="78" len="192" pan="0" key="54"/>
          <note pos="2496" vol="78" len="72" pan="0" key="64"/>
          <note pos="2496" vol="78" len="72" pan="0" key="52"/>
          <note pos="2568" vol="78" len="72" pan="0" key="63"/>
          <note pos="2568" vol="78" len="72" pan="0" key="51"/>
          <note pos="2640" vol="78" len="48" pan="0" key="64"/>
          <note pos="2640" vol="78" len="48" pan="0" key="52"/>
          <note pos="2688" vol="78" len="144" pan="0" key="68"/>
          <note pos="2688" vol="78" len="144" pan="0" key="56"/>
          <note pos="2832" vol="78" len="48" pan="0" key="63"/>
          <note pos="2832" vol="78" len="48" pan="0" key="51"/>
          <note pos="2880" vol="78" len="240" pan="0" key="61"/>
          <note pos="2880" vol="78" len="240" pan="0" key="49"/>
          <note pos="3120" vol="78" len="48" pan="0" key="64"/>
          <note pos="3120" vol="78" len="48" pan="0" key="52"/>
          <note pos="3168" vol="78" len="48" pan="0" key="66"/>
          <note pos="3168" vol="78" len="48" pan="0" key="54"/>
          <note pos="3216" vol="78" len="48" pan="0" key="68"/>
          <note pos="3216" vol="78" len="48" pan="0" key="56"/>
          <note pos="3264" vol="78" len="72" pan="0" key="69"/>
          <note pos="3264" vol="78" len="72" pan="0" key="57"/>
          <note pos="3336" vol="78" len="72" pan="0" key="68"/>
          <note pos="3336" vol="78" len="72" pan="0" key="56"/>
          <note pos="3408" vol="78" len="48" pan="0" key="66"/>
          <note pos="3408" vol="78" len="48" pan="0" key="54"/>
          <note pos="3456" vol="78" len="48" pan="0" key="64"/>
          <note pos="3456" vol="78" len="48" pan="0" key="52"/>
          <note pos="3504" vol="78" len="48" pan="0" key="61"/>
          <note pos="3504" vol="78" len="48" pan="0" key="49"/>
          <note pos="3552" vol="78" len="48" pan="0" key="64"/>
          <note pos="3552" vol="78" len="48" pan="0" key="52"/>
          <note pos="3600" vol="78" len="48" pan="0" key="68"/>
          <note pos="3600" vol="78" len="48" pan="0" key="56"/>
          <note pos="3648" vol="78" len="192" pan="0" key="66"/>
          <note pos="3648" vol="78" len="192" pan="0" key="54"/>
          <note pos="3840" vol="78" len="96" pan="0" key="63"/>
          <note pos="3840" vol="78" len="96" pan="0" key="51"/>
          <note pos="3936" vol="78" len="96" pan="0" key="59"/>
          <note pos="3936" vol="78" len="96" pan="0" key="47"/>
          <note pos="4032" vol="78" len="384" pan="0" key="61"/>
          <note pos="4032" vol="78" len="384" pan="0" key="49"/>
        </pattern>
        <pattern name="Sf2 Player" steps="16" pos="44160" muted="0" type="1">
          <note pos="0" vol="78" len="24" pan="0" key="49"/>
          <note pos="24" vol="78" len="24" pan="0" key="51"/>
          <note pos="48" vol="78" len="24" pan="0" key="49"/>
          <note pos="72" vol="78" len="48" pan="0" key="56"/>
          <note pos="120" vol="78" len="24" pan="0" key="49"/>
          <note pos="144" vol="78" len="24" pan="0" key="52"/>
          <note pos="168" vol="78" len="24" pan="0" key="56"/>
          <note pos="192" vol="78" len="24" pan="0" key="59"/>
          <note pos="216" vol="78" len="24" pan="0" key="57"/>
          <note pos="240" vol="78" len="24" pan="0" key="56"/>
          <note pos="264" vol="78" len="48" pan="0" key="57"/>
          <note pos="312" vol="78" len="24" pan="0" key="56"/>
          <note pos="336" vol="78" len="24" pan="0" key="54"/>
          <note pos="360" vol="78" len="24" pan="0" key="56"/>
          <note pos="384" vol="78" len="96" pan="0" key="51"/>
        </pattern>
        <pattern name="Sf2 Player" steps="16" pos="44928" muted="0" type="1">
          <note pos="0" vol="78" len="24" pan="0" key="49"/>
          <note pos="24" vol="78" len="24" pan="0" key="51"/>
          <note pos="48" vol="78" len="24" pan="0" key="49"/>
          <note pos="72" vol="78" len="48" pan="0" key="56"/>
          <note pos="120" vol="78" len="24" pan="0" key="49"/>
          <note pos="144" vol="78" len="24" pan="0" key="52"/>
          <note pos="168" vol="78" len="24" pan="0" key="56"/>
          <note pos="192" vol="78" len="24" pan="0" key="59"/>
          <note pos="216" vol="78" len="24" pan="0" key="61"/>
          <note pos="240" vol="78" len="24" pan="0" key="63"/>
          <note pos="264" vol="78" len="48" pan="0" key="61"/>
          <note pos="312" vol="78" len="24" pan="0" key="63"/>
          <note pos="336" vol="78" len="24" pan="0" key="64"/>
          <note pos="360" vol="78" len="24" pan="0" key="66"/>
          <note pos="384" vol="78" len="96" pan="0" key="63"/>
        </pattern>
        <pattern name="Sf2 Player" steps="16" pos="46272" muted="0" type="1">
          <note pos="96" vol="78" len="48" pan="0" key="68"/>
          <note pos="96" vol="78" len="48" pan="0" key="56"/>
          <note pos="144" vol="78" len="48" pan="0" key="71"/>
          <note pos="144" vol="78" len="48" pan="0" key="59"/>
          <note pos="192" vol="78" len="96" pan="0" key="73"/>
          <note pos="192" vol="78" len="96" pan="0" key="61"/>
          <note pos="288" vol="78" len="24" pan="0" key="73"/>
          <note pos="288" vol="78" len="24" pan="0" key="61"/>
          <note pos="312" vol="78" len="24" pan="0" key="68"/>
          <note pos="312" vol="78" len="24" pan="0" key="56"/>
          <note pos="336" vol="78" len="24" pan="0" key="73"/>
          <note pos="336" vol="78" len="24" pan="0" key="61"/>
          <note pos="360" vol="78" len="168" pan="0" key="80"/>
          <note pos="360" vol="78" len="168" pan="0" key="68"/>
          <note pos="528" vol="78" len="24" pan="0" key="80"/>
          <note pos="528" vol="78" len="24" pan="0" key="68"/>
          <note pos="552" vol="78" len="24" pan="0" key="78"/>
          <note pos="552" vol="78" len="24" pan="0" key="66"/>
          <note pos="576" vol="78" len="48" pan="0" key="77"/>
          <note pos="576" vol="78" len="48" pan="0" key="65"/>
          <note pos="624" vol="78" len="48" pan="0" key="73"/>
          <note pos="624" vol="78" len="48" pan="0" key="61"/>
          <note pos="672" vol="78" len="48" pan="0" key="70"/>
          <note pos="672" vol="78" len="48" pan="0" key="58"/>
          <note pos="720" vol="78" len="48" pan="0" key="66"/>
          <note pos="720" vol="78" len="48" pan="0" key="54"/>
          <note pos="768" vol="78" len="96" pan="0" key="69"/>
          <note pos="768" vol="78" len="96" pan="0" key="57"/>
          <note pos="864" vol="78" len="96" pan="0" key="68"/>
          <note pos="864" vol="78" len="96" pan="0" key="56"/>
          <note pos="960" vol="78" len="144" pan="0" key="61"/>
          <note pos="960" vol="78" len="144" pan="0" key="49"/>
          <note pos="1104" vol="78" len="48" pan="0" key="64"/>
          <note pos="1104" vol="78" len="48" pan="0" key="52"/>
          <note pos="1152" vol="78" len="144" pan="0" key="63"/>
          <note pos="1152" vol="78" len="144" pan="0" key="51"/>
          <note pos="1296" vol="78" len="48" pan="0" key="68"/>
          <note pos="1296" vol="78" len="48" pan="0" key="56"/>
          <note pos="1344" vol="78" len="144" pan="0" key="68"/>
          <note pos="1344" vol="78" len="144" pan="0" key="56"/>
          <note pos="1488" vol="78" len="24" pan="0" key="66"/>
          <note pos="1488" vol="78" len="24" pan="0" key="54"/>
          <note pos="1512" vol="78" len="24" pan="0" key="64"/>
          <note pos="1512" vol="78" len="24" pan="0" key="52"/>
          <note pos="1536" vol="78" len="48" pan="0" key="63"/>
          <note pos="1536" vol="78" len="48" pan="0" key="51"/>
          <note pos="1584" vol="78" len="48" pan="0" key="64"/>
          <note pos="1584" vol="78" len="48" pan="0" key="52"/>
          <note pos="1632" vol="78" len="48" pan="0" key="59"/>
          <note pos="1632" vol="78" len="48" pan="0" key="47"/>
          <note pos="1680" vol="78" len="48" pan="0" key="56"/>
          <note pos="1680" vol="78" len="48" pan="0" key="44"/>
          <note pos="1728" vol="78" len="96" pan="0" key="57"/>
          <note pos="1728" vol="78" len="96" pan="0" key="45"/>
          <note pos="1824" vol="78" len="48" pan="0" key="61"/>
          <note pos="1824" vol="78" len="48" pan="0" key="49"/>
          <note pos="1872" vol="78" len="48" pan="0" key="64"/>
          <note pos="1872" vol="78" len="48" pan="0" key="52"/>
          <note pos="1920" vol="78" len="96" pan="0" key="64"/>
          <note pos="1920" vol="78" len="96" pan="0" key="52"/>
          <note pos="2016" vol="78" len="48" pan="0" key="63"/>
          <note pos="2016" vol="78" len="48" pan="0" key="51"/>
          <note pos="2064" vol="78" len="48" pan="0" key="64"/>
          <note pos="2064" vol="78" len="48" pan="0" key="52"/>
          <note pos="2112" vol="78" len="72" pan="0" key="71"/>
          <note pos="2112" vol="78" len="72" pan="0" key="59"/>
          <note pos="2184" vol="78" len="72" pan="0" key="69"/>
          <note pos="2184" vol="78" len="72" pan="0" key="57"/>
          <note pos="2256" vol="78" len="48" pan="0" key="68"/>
          <note pos="2256" vol="78" len="48" pan="0" key="56"/>
          <note pos="2304" vol="78" len="192" pan="0" key="66"/>
          <note pos="2304" vol="78" len="192" pan="0" key="54"/>
          <note pos="2496" vol="78" len="72" pan="0" key="64"/>
          <note pos="2496" vol="78" len="72" pan="0" key="52"/>
          <note pos="2568" vol="78" len="72" pan="0" key="63"/>
          <note pos="2568" vol="78" len="72" pan="0" key="51"/>
          <note pos="2640" vol="78" len="48" pan="0" key="64"/>
          <note pos="2640" vol="78" len="48" pan="0" key="52"/>
          <note pos="2688" vol="78" len="144" pan="0" key="68"/>
          <note pos="2688" vol="78" len="144" pan="0" key="56"/>
          <note pos="2832" vol="78" len="48" pan="0" key="63"/>
          <note pos="2832" vol="78" len="48" pan="0" key="51"/>
          <note pos="2880" vol="78" len="240" pan="0" key="61"/>
          <note pos="2880" vol="78" len="240" pan="0" key="49"/>
          <note pos="3120" vol="78" len="48" pan="0" key="64"/>
          <note pos="3120" vol="78" len="48" pan="0" key="52"/>
          <note pos="3168" vol="78" len="48" pan="0" key="66"/>
          <note pos="3168" vol="78" len="48" pan="0" key="54"/>
          <note pos="3216" vol="78" len="48" pan="0" key="68"/>
          <note pos="3216" vol="78" len="48" pan="0" key="56"/>
          <note pos="3264" vol="78" len="72" pan="0" key="69"/>
          <note pos="3264" vol="78" len="72" pan="0" key="57"/>
          <note pos="3336" vol="78" len="72" pan="0" key="68"/>
          <note pos="3336" vol="78" len="72" pan="0" key="56"/>
          <note pos="3408" vol="78" len="48" pan="0" key="66"/>
          <note pos="3408" vol="78" len="48" pan="0" key="54"/>
          <note pos="3456" vol="78" len="48" pan="0" key="64"/>
          <note pos="3456" vol="78" len="48" pan="0" key="52"/>
          <note pos="3504" vol="78" len="48" pan="0" key="61"/>
          <note pos="3504" vol="78" len="48" pan="0" key="49"/>
          <note pos="3552" vol="78" len="48" pan="0" key="64"/>
          <note pos="3552" vol="78" len="48" pan="0" key="52"/>
          <note pos="3600" vol="78" len="48" pan="0" key="68"/>
          <note pos="3600" vol="78" len="48" pan="0" key="56"/>
          <note pos="3648" vol="78" len="192" pan="0" key="66"/>
          <note pos="3648" vol="78" len="192" pan="0" key="54"/>
          <note pos="3840" vol="78" len="24" pan="0" key="63"/>
          <note pos="3840" vol="78" len="24" pan="0" key="51"/>
          <note pos="3864" vol="78" len="24" pan="0" key="63"/>
          <note pos="3864" vol="78" len="24" pan="0" key="51"/>
          <note pos="3936" vol="78" len="24" pan="0" key="71"/>
          <note pos="3936" vol="78" len="24" pan="0" key="59"/>
          <note pos="3960" vol="78" len="24" pan="0" key="71"/>
          <note pos="3960" vol="78" len="24" pan="0" key="59"/>
          <note pos="4032" vol="78" len="336" pan="0" key="73"/>
          <note pos="4032" vol="78" len="336" pan="0" key="61"/>
          <note pos="4368" vol="78" len="48" pan="0" key="64"/>
          <note pos="4368" vol="78" len="48" pan="0" key="52"/>
          <note pos="4416" vol="78" len="288" pan="0" key="63"/>
          <note pos="4416" vol="78" len="288" pan="0" key="51"/>
          <note pos="4704" vol="78" len="48" pan="0" key="56"/>
          <note pos="4704" vol="78" len="48" pan="0" key="44"/>
          <note pos="4752" vol="78" len="48" pan="0" key="59"/>
          <note pos="4752" vol="78" len="48" pan="0" key="47"/>
          <note pos="4800" vol="78" len="240" pan="0" key="61"/>
          <note pos="4800" vol="78" len="240" pan="0" key="49"/>
          <note pos="5040" vol="78" len="48" pan="0" key="59"/>
          <note pos="5040" vol="78" len="48" pan="0" key="47"/>
          <note pos="5088" vol="78" len="48" pan="0" key="61"/>
          <note pos="5088" vol="78" len="48" pan="0" key="49"/>
          <note pos="5136" vol="78" len="48" pan="0" key="68"/>
          <note pos="5136" vol="78" len="48" pan="0" key="56"/>
          <note pos="5184" vol="78" len="192" pan="0" key="66"/>
          <note pos="5184" vol="78" len="192" pan="0" key="54"/>
          <note pos="5376" vol="78" len="48" pan="0" key="69"/>
          <note pos="5376" vol="78" len="48" pan="0" key="57"/>
          <note pos="5424" vol="78" len="24" pan="0" key="68"/>
          <note pos="5424" vol="78" len="24" pan="0" key="56"/>
          <note pos="5448" vol="78" len="12" pan="0" key="68"/>
          <note pos="5448" vol="78" len="12" pan="0" key="56"/>
          <note pos="5456" vol="78" len="12" pan="0" key="69"/>
          <note pos="5456" vol="78" len="12" pan="0" key="57"/>
          <note pos="5464" vol="78" len="12" pan="0" key="68"/>
          <note pos="5464" vol="78" len="12" pan="0" key="56"/>
          <note pos="5472" vol="78" len="48" pan="0" key="66"/>
          <note pos="5472" vol="78" len="48" pan="0" key="54"/>
          <note pos="5520" vol="78" len="48" pan="0" key="68"/>
          <note pos="5520" vol="78" len="48" pan="0" key="56"/>
          <note pos="5568" vol="78" len="240" pan="0" key="64"/>
          <note pos="5568" vol="78" len="240" pan="0" key="52"/>
          <note pos="5808" vol="78" len="48" pan="0" key="61"/>
          <note pos="5808" vol="78" len="48" pan="0" key="49"/>
          <note pos="5856" vol="78" len="48" pan="0" key="64"/>
          <note pos="5856" vol="78" len="48" pan="0" key="52"/>
          <note pos="5904" vol="78" len="48" pan="0" key="68"/>
          <note pos="5904" vol="78" len="48" pan="0" key="56"/>
          <note pos="5952" vol="78" len="192" pan="0" key="68"/>
          <note pos="5952" vol="78" len="192" pan="0" key="56"/>
          <note pos="6144" vol="78" len="144" pan="0" key="66"/>
          <note pos="6144" vol="78" len="144" pan="0" key="54"/>
          <note pos="6288" vol="78" len="48" pan="0" key="68"/>
          <note pos="6288" vol="78" len="48" pan="0" key="56"/>
          <note pos="6336" vol="78" len="240" pan="0" key="61"/>
          <note pos="6336" vol="78" len="240" pan="0" key="49"/>
          <note pos="6576" vol="78" len="48" pan="0" key="56"/>
          <note pos="6576" vol="78" len="48" pan="0" key="44"/>
          <note pos="6624" vol="78" len="48" pan="0" key="61"/>
          <note pos="6624" vol="78" len="48" pan="0" key="49"/>
          <note pos="6672" vol="78" len="48" pan="0" key="68"/>
          <note pos="6672" vol="78" len="48" pan="0" key="56"/>
          <note pos="6720" vol="78" len="192" pan="0" key="73"/>
          <note pos="6720" vol="78" len="192" pan="0" key="61"/>
          <note pos="6912" vol="78" len="192" pan="0" key="72"/>
          <note pos="6912" vol="78" len="192" pan="0" key="60"/>
        </pattern>
        <pattern name="" steps="16" pos="53952" muted="0" type="1">
          <note pos="0" vol="193" len="120" pan="0" key="75"/>
          <note pos="0" vol="78" len="24" pan="0" key="0"/>
          <note pos="96" vol="78" len="24" pan="0" key="1"/>
          <note pos="120" vol="193" len="24" pan="0" key="70"/>
          <note pos="132" vol="78" len="24" pan="0" key="0"/>
          <note pos="144" vol="193" len="24" pan="0" key="78"/>
          <note pos="168" vol="193" len="24" pan="0" key="70"/>
          <note pos="168" vol="78" len="24" pan="0" key="1"/>
          <note pos="192" vol="193" len="120" pan="0" key="77"/>
          <note pos="192" vol="78" len="24" pan="0" key="0"/>
          <note pos="300" vol="78" len="12" pan="0" key="1"/>
          <note pos="312" vol="193" len="12" pan="0" key="77"/>
          <note pos="324" vol="193" len="12" pan="0" key="78"/>
          <note pos="336" vol="193" len="12" pan="0" key="82"/>
          <note pos="336" vol="78" len="12" pan="0" key="0"/>
          <note pos="348" vol="193" len="12" pan="0" key="78"/>
          <note pos="360" vol="193" len="12" pan="0" key="77"/>
          <note pos="360" vol="78" len="12" pan="0" key="1"/>
          <note pos="372" vol="193" len="12" pan="0" key="78"/>
          <note pos="384" vol="193" len="144" pan="0" key="82"/>
          <note pos="384" vol="78" len="12" pan="0" key="0"/>
          <note pos="528" vol="193" len="24" pan="0" key="80"/>
          <note pos="552" vol="193" len="24" pan="0" key="78"/>
          <note pos="576" vol="193" len="48" pan="0" key="77"/>
          <note pos="624" vol="197" len="48" pan="0" key="78"/>
          <note pos="660" vol="78" len="12" pan="0" key="0"/>
          <note pos="672" vol="193" len="12" pan="0" key="73"/>
          <note pos="672" vol="78" len="12" pan="0" key="1"/>
          <note pos="684" vol="193" len="12" pan="0" key="73"/>
          <note pos="696" vol="193" len="12" pan="0" key="73"/>
          <note pos="708" vol="193" len="12" pan="0" key="73"/>
          <note pos="720" vol="193" len="12" pan="0" key="70"/>
          <note pos="720" vol="78" len="12" pan="0" key="0"/>
          <note pos="732" vol="193" len="12" pan="0" key="66"/>
          <note pos="732" vol="78" len="12" pan="0" key="1"/>
          <note pos="744" vol="193" len="12" pan="0" key="68"/>
          <note pos="756" vol="193" len="12" pan="0" key="70"/>
          <note pos="768" vol="193" len="96" pan="0" key="71"/>
          <note pos="768" vol="78" len="12" pan="0" key="0"/>
          <note pos="864" vol="193" len="48" pan="0" key="75"/>
          <note pos="912" vol="193" len="48" pan="0" key="78"/>
          <note pos="960" vol="193" len="96" pan="0" key="78"/>
          <note pos="1056" vol="193" len="12" pan="0" key="77"/>
          <note pos="1056" vol="78" len="12" pan="0" key="0"/>
          <note pos="1068" vol="193" len="12" pan="0" key="70"/>
          <note pos="1068" vol="78" len="12" pan="0" key="2"/>
          <note pos="1080" vol="193" len="12" pan="0" key="70"/>
          <note pos="1080" vol="78" len="12" pan="0" key="1"/>
          <note pos="1092" vol="193" len="12" pan="0" key="70"/>
          <note pos="1104" vol="193" len="12" pan="0" key="78"/>
          <note pos="1104" vol="78" len="12" pan="0" key="0"/>
          <note pos="1116" vol="193" len="12" pan="0" key="75"/>
          <note pos="1116" vol="78" len="12" pan="0" key="2"/>
          <note pos="1128" vol="193" len="12" pan="0" key="77"/>
          <note pos="1128" vol="78" len="12" pan="0" key="1"/>
          <note pos="1140" vol="193" len="12" pan="0" key="78"/>
          <note pos="1152" vol="193" len="48" pan="0" key="85"/>
          <note pos="1152" vol="78" len="12" pan="0" key="0"/>
          <note pos="1200" vol="193" len="12" pan="0" key="83"/>
          <note pos="1212" vol="193" len="12" pan="0" key="85"/>
          <note pos="1224" vol="193" len="48" pan="0" key="83"/>
          <note pos="1272" vol="193" len="12" pan="0" key="82"/>
          <note pos="1272" vol="78" len="12" pan="0" key="0"/>
          <note pos="1284" vol="193" len="12" pan="0" key="83"/>
          <note pos="1296" vol="193" len="12" pan="0" key="82"/>
          <note pos="1296" vol="78" len="12" pan="0" key="1"/>
          <note pos="1308" vol="193" len="12" pan="0" key="80"/>
          <note pos="1320" vol="193" len="12" pan="0" key="78"/>
          <note pos="1332" vol="193" len="12" pan="0" key="82"/>
          <note pos="1344" vol="193" len="72" pan="0" key="80"/>
          <note pos="1344" vol="78" len="12" pan="0" key="0"/>
          <note pos="1416" vol="193" len="12" pan="0" key="78"/>
          <note pos="1416" vol="78" len="12" pan="0" key="1"/>
          <note pos="1428" vol="193" len="12" pan="0" key="80"/>
          <note pos="1440" vol="193" len="12" pan="0" key="82"/>
          <note pos="1440" vol="78" len="12" pan="0" key="0"/>
          <note pos="1452" vol="193" len="12" pan="0" key="83"/>
          <note pos="1464" vol="193" len="12" pan="0" key="82"/>
          <note pos="1464" vol="78" len="12" pan="0" key="1"/>
          <note pos="1476" vol="193" len="12" pan="0" key="80"/>
          <note pos="1488" vol="193" len="12" pan="0" key="82"/>
          <note pos="1488" vol="78" len="12" pan="0" key="0"/>
          <note pos="1500" vol="193" len="12" pan="0" key="80"/>
          <note pos="1512" vol="193" len="12" pan="0" key="78"/>
          <note pos="1524" vol="193" len="12" pan="0" key="77"/>
          <note pos="1536" vol="193" len="48" pan="0" key="78"/>
          <note pos="1536" vol="78" len="12" pan="0" key="0"/>
          <note pos="1572" vol="78" len="12" pan="0" key="1"/>
          <note pos="1584" vol="193" len="12" pan="0" key="70"/>
          <note pos="1596" vol="193" len="12" pan="0" key="70"/>
          <note pos="1608" vol="193" len="48" pan="0" key="77"/>
          <note pos="1608" vol="78" len="12" pan="0" key="0"/>
          <note pos="1644" vol="78" len="12" pan="0" key="1"/>
          <note pos="1656" vol="193" len="12" pan="0" key="70"/>
          <note pos="1668" vol="193" len="12" pan="0" key="70"/>
          <note pos="1680" vol="193" len="24" pan="0" key="78"/>
          <note pos="1680" vol="78" len="12" pan="0" key="0"/>
          <note pos="1692" vol="78" len="12" pan="0" key="1"/>
          <note pos="1704" vol="193" len="12" pan="0" key="70"/>
          <note pos="1716" vol="193" len="12" pan="0" key="70"/>
          <note pos="1728" vol="193" len="144" pan="0" key="82"/>
          <note pos="1728" vol="78" len="12" pan="0" key="0"/>
          <note pos="1872" vol="193" len="48" pan="0" key="77"/>
          <note pos="1908" vol="78" len="12" pan="0" key="0"/>
          <note pos="1920" vol="193" len="12" pan="0" key="75"/>
          <note pos="1932" vol="193" len="12" pan="0" key="77"/>
          <note pos="1932" vol="78" len="12" pan="0" key="2"/>
          <note pos="1944" vol="193" len="216" pan="0" key="75"/>
          <note pos="2100" vol="78" len="12" pan="0" key="0"/>
          <note pos="2160" vol="193" len="48" pan="0" key="78"/>
          <note pos="2208" vol="193" len="24" pan="0" key="80"/>
          <note pos="2232" vol="193" len="12" pan="0" key="78"/>
          <note pos="2244" vol="193" len="12" pan="0" key="80"/>
          <note pos="2256" vol="193" len="24" pan="0" key="82"/>
          <note pos="2280" vol="193" len="12" pan="0" key="80"/>
          <note pos="2292" vol="193" len="12" pan="0" key="82"/>
          <note pos="2304" vol="193" len="72" pan="0" key="83"/>
          <note pos="2376" vol="193" len="72" pan="0" key="82"/>
          <note pos="2448" vol="193" len="48" pan="0" key="80"/>
          <note pos="2484" vol="78" len="12" pan="0" key="1"/>
          <note pos="2496" vol="193" len="12" pan="0" key="78"/>
          <note pos="2508" vol="193" len="12" pan="0" key="77"/>
          <note pos="2520" vol="193" len="12" pan="0" key="75"/>
          <note pos="2532" vol="193" len="12" pan="0" key="70"/>
          <note pos="2544" vol="193" len="12" pan="0" key="75"/>
          <note pos="2556" vol="193" len="12" pan="0" key="73"/>
          <note pos="2568" vol="193" len="12" pan="0" key="71"/>
          <note pos="2580" vol="193" len="12" pan="0" key="70"/>
          <note pos="2592" vol="193" len="12" pan="0" key="78"/>
          <note pos="2592" vol="78" len="12" pan="0" key="0"/>
          <note pos="2604" vol="193" len="12" pan="0" key="77"/>
          <note pos="2616" vol="193" len="12" pan="0" key="75"/>
          <note pos="2628" vol="193" len="12" pan="0" key="70"/>
          <note pos="2640" vol="193" len="48" pan="0" key="87"/>
          <note pos="2688" vol="193" len="192" pan="0" key="85"/>
        </pattern>
      </track>
      <track name="Orchestra Soundfont 2 COMBO" solo="0" muted="1" type="0">
        <instrumenttrack basenote="57" fxch="0" usemasterpitch="1" pitch="0" vol="188.8" pan="0" pitchrange="2">
          <instrument name="sf2player">
            <sf2player reverbRoomSize="0.2" src="/home/pass/samples/soundfonts/Orchestra Soundfont 2 COMBO.sf2" chorusOn="0" chorusDepth="8" gain="1" reverbDamping="0" chorusNum="3" chorusLevel="2" bank="0" reverbLevel="0.9" patch="0" reverbOn="0" chorusSpeed="0.3" reverbWidth="0.5"/>
          </instrument>
          <eldata fwet="0" fcut="14000" ftype="0" fres="0.5">
            <elvol x100="0" userwavefile="" dec="0.5" amt="0" pdel="0" hold="0.5" lamt="0" lpdel="0" lshp="0" lspd_denominator="4" att="0" ctlenvamt="0" lspd="0.1" lspd_syncmode="0" rel="0.1" latt="0" lspd_numerator="4" sustain="0.5"/>
            <elcut x100="0" userwavefile="" dec="0.5" amt="0" pdel="0" hold="0.5" lamt="0" lpdel="0" lshp="0" lspd_denominator="4" att="0" ctlenvamt="0" lspd="0.1" lspd_syncmode="0" rel="0.1" latt="0" lspd_numerator="4" sustain="0.5"/>
            <elres x100="0" userwavefile="" dec="0.5" amt="0" pdel="0" hold="0.5" lamt="0" lpdel="0" lshp="0" lspd_denominator="4" att="0" ctlenvamt="0" lspd="0.1" lspd_syncmode="0" rel="0.1" latt="0" lspd_numerator="4" sustain="0.5"/>
          </eldata>
          <chordcreator chord-enabled="0" chord="0" chordrange="1"/>
          <arpeggiator arprange="1" arpmode="0" arp="0" arptime_numerator="4" arpmiss="0" arptime_denominator="4" arpcycle="0" arpskip="0" arptime_syncmode="0" arpgate="100" arptime="200" arpdir="0" arp-enabled="0"/>
          <midiport fixedoutputnote="-1" outputprogram="1" inputcontroller="0" writable="0" fixedoutputvelocity="-1" readable="0" outputchannel="1" basevelocity="63" outputcontroller="0" fixedinputvelocity="-1" inputchannel="0"/>
          <fxchain numofeffects="0" enabled="0"/>
        </instrumenttrack>
        <pattern name="" steps="16" pos="5376" muted="0" type="1">
          <note pos="0" vol="78" len="24" pan="0" key="44"/>
          <note pos="24" vol="78" len="24" pan="0" key="47"/>
          <note pos="48" vol="78" len="24" pan="0" key="44"/>
          <note pos="72" vol="78" len="48" pan="0" key="51"/>
          <note pos="120" vol="78" len="24" pan="0" key="44"/>
          <note pos="144" vol="78" len="24" pan="0" key="47"/>
          <note pos="168" vol="78" len="24" pan="0" key="51"/>
          <note pos="192" vol="78" len="24" pan="0" key="52"/>
          <note pos="216" vol="78" len="24" pan="0" key="51"/>
          <note pos="240" vol="78" len="24" pan="0" key="49"/>
          <note pos="264" vol="78" len="24" pan="0" key="47"/>
          <note pos="288" vol="78" len="24" pan="0" key="51"/>
          <note pos="312" vol="78" len="24" pan="0" key="49"/>
          <note pos="336" vol="78" len="24" pan="0" key="47"/>
          <note pos="360" vol="78" len="24" pan="0" key="44"/>
          <note pos="384" vol="78" len="96" pan="0" key="49"/>
        </pattern>
        <pattern name="" steps="16" pos="6144" muted="0" type="1">
          <note pos="0" vol="78" len="24" pan="0" key="47"/>
          <note pos="24" vol="78" len="24" pan="0" key="52"/>
          <note pos="48" vol="78" len="24" pan="0" key="56"/>
          <note pos="72" vol="78" len="48" pan="0" key="59"/>
          <note pos="120" vol="78" len="24" pan="0" key="56"/>
          <note pos="144" vol="78" len="24" pan="0" key="59"/>
          <note pos="168" vol="78" len="24" pan="0" key="63"/>
          <note pos="192" vol="78" len="24" pan="0" key="61"/>
          <note pos="216" vol="78" len="24" pan="0" key="56"/>
          <note pos="240" vol="78" len="24" pan="0" key="52"/>
          <note pos="264" vol="78" len="24" pan="0" key="49"/>
          <note pos="288" vol="78" len="24" pan="0" key="54"/>
          <note pos="312" vol="78" len="24" pan="0" key="52"/>
          <note pos="336" vol="78" len="24" pan="0" key="56"/>
          <note pos="360" vol="78" len="24" pan="0" key="52"/>
          <note pos="384" vol="78" len="120" pan="0" key="57"/>
          <note pos="504" vol="78" len="24" pan="0" key="56"/>
          <note pos="528" vol="78" len="24" pan="0" key="57"/>
          <note pos="552" vol="78" len="24" pan="0" key="59"/>
          <note pos="576" vol="78" len="72" pan="0" key="61"/>
          <note pos="648" vol="78" len="72" pan="0" key="59"/>
          <note pos="720" vol="78" len="48" pan="0" key="57"/>
          <note pos="768" vol="78" len="24" pan="0" key="56"/>
          <note pos="792" vol="78" len="24" pan="0" key="57"/>
          <note pos="816" vol="78" len="24" pan="0" key="56"/>
          <note pos="840" vol="78" len="48" pan="0" key="52"/>
          <note pos="888" vol="78" len="24" pan="0" key="52"/>
          <note pos="912" vol="78" len="24" pan="0" key="54"/>
          <note pos="936" vol="78" len="24" pan="0" key="56"/>
          <note pos="960" vol="78" len="96" pan="0" key="54"/>
          <note pos="1056" vol="78" len="48" pan="0" key="51"/>
          <note pos="1104" vol="78" len="48" pan="0" key="56"/>
          <note pos="1152" vol="78" len="24" pan="0" key="44"/>
          <note pos="1176" vol="78" len="24" pan="0" key="42"/>
          <note pos="1200" vol="78" len="24" pan="0" key="44"/>
          <note pos="1224" vol="78" len="24" pan="0" key="49"/>
          <note pos="1248" vol="78" len="48" pan="0" key="52"/>
          <note pos="1296" vol="78" len="24" pan="0" key="51"/>
          <note pos="1320" vol="78" len="24" pan="0" key="49"/>
          <note pos="1344" vol="78" len="24" pan="0" key="56"/>
          <note pos="1368" vol="78" len="24" pan="0" key="54"/>
          <note pos="1392" vol="78" len="24" pan="0" key="52"/>
          <note pos="1416" vol="78" len="24" pan="0" key="51"/>
          <note pos="1440" vol="78" len="24" pan="0" key="49"/>
          <note pos="1464" vol="78" len="24" pan="0" key="51"/>
          <note pos="1488" vol="78" len="24" pan="0" key="52"/>
          <note pos="1512" vol="78" len="24" pan="0" key="56"/>
          <note pos="1536" vol="78" len="48" pan="0" key="58"/>
          <note pos="1584" vol="78" len="48" pan="0" key="54"/>
          <note pos="1632" vol="78" len="48" pan="0" key="51"/>
          <note pos="1680" vol="78" len="48" pan="0" key="46"/>
          <note pos="1728" vol="78" len="24" pan="0" key="45"/>
          <note pos="1752" vol="78" len="24" pan="0" key="49"/>
          <note pos="1776" vol="78" len="24" pan="0" key="51"/>
          <note pos="1800" vol="78" len="24" pan="0" key="54"/>
          <note pos="1824" vol="78" len="24" pan="0" key="57"/>
          <note pos="1848" vol="78" len="24" pan="0" key="61"/>
          <note pos="1872" vol="78" len="24" pan="0" key="63"/>
          <note pos="1896" vol="78" len="24" pan="0" key="66"/>
        </pattern>
        <pattern name="" steps="16" pos="12672" muted="0" type="1">
          <note pos="0" vol="78" len="24" pan="0" key="49"/>
          <note pos="24" vol="78" len="12" pan="0" key="56"/>
          <note pos="48" vol="78" len="24" pan="0" key="49"/>
          <note pos="72" vol="78" len="12" pan="0" key="56"/>
          <note pos="120" vol="78" len="12" pan="0" key="56"/>
          <note pos="144" vol="78" len="24" pan="0" key="49"/>
          <note pos="168" vol="78" len="12" pan="0" key="56"/>
          <note pos="192" vol="78" len="12" pan="0" key="56"/>
          <note pos="216" vol="78" len="24" pan="0" key="61"/>
          <note pos="240" vol="78" len="12" pan="0" key="56"/>
          <note pos="264" vol="78" len="12" pan="0" key="56"/>
          <note pos="288" vol="78" len="24" pan="0" key="49"/>
          <note pos="312" vol="78" len="24" pan="0" key="52"/>
          <note pos="336" vol="78" len="24" pan="0" key="56"/>
          <note pos="360" vol="78" len="24" pan="0" key="61"/>
          <note pos="384" vol="78" len="24" pan="0" key="44"/>
          <note pos="408" vol="78" len="24" pan="0" key="47"/>
          <note pos="432" vol="78" len="24" pan="0" key="44"/>
          <note pos="456" vol="78" len="48" pan="0" key="51"/>
          <note pos="504" vol="78" len="24" pan="0" key="44"/>
          <note pos="528" vol="78" len="24" pan="0" key="47"/>
          <note pos="552" vol="78" len="24" pan="0" key="51"/>
          <note pos="576" vol="78" len="24" pan="0" key="52"/>
          <note pos="600" vol="78" len="24" pan="0" key="51"/>
          <note pos="624" vol="78" len="24" pan="0" key="49"/>
          <note pos="648" vol="78" len="24" pan="0" key="47"/>
          <note pos="672" vol="78" len="24" pan="0" key="51"/>
          <note pos="696" vol="78" len="24" pan="0" key="49"/>
          <note pos="720" vol="78" len="24" pan="0" key="47"/>
          <note pos="744" vol="78" len="24" pan="0" key="44"/>
          <note pos="768" vol="78" len="24" pan="0" key="49"/>
          <note pos="792" vol="78" len="12" pan="0" key="56"/>
          <note pos="816" vol="78" len="12" pan="0" key="56"/>
          <note pos="840" vol="78" len="24" pan="0" key="61"/>
          <note pos="864" vol="78" len="12" pan="0" key="56"/>
          <note pos="888" vol="78" len="12" pan="0" key="56"/>
          <note pos="912" vol="78" len="24" pan="0" key="49"/>
          <note pos="936" vol="78" len="12" pan="0" key="56"/>
          <note pos="960" vol="78" len="12" pan="0" key="56"/>
          <note pos="984" vol="78" len="24" pan="0" key="61"/>
          <note pos="1008" vol="78" len="12" pan="0" key="56"/>
          <note pos="1032" vol="78" len="24" pan="0" key="57"/>
          <note pos="1056" vol="78" len="24" pan="0" key="49"/>
          <note pos="1080" vol="78" len="24" pan="0" key="52"/>
          <note pos="1104" vol="78" len="24" pan="0" key="56"/>
          <note pos="1128" vol="78" len="24" pan="0" key="61"/>
          <note pos="1152" vol="78" len="24" pan="0" key="47"/>
          <note pos="1176" vol="78" len="24" pan="0" key="52"/>
          <note pos="1200" vol="78" len="24" pan="0" key="56"/>
          <note pos="1224" vol="78" len="48" pan="0" key="59"/>
          <note pos="1272" vol="78" len="24" pan="0" key="56"/>
          <note pos="1296" vol="78" len="24" pan="0" key="59"/>
          <note pos="1320" vol="78" len="24" pan="0" key="63"/>
          <note pos="1344" vol="78" len="24" pan="0" key="61"/>
          <note pos="1368" vol="78" len="24" pan="0" key="56"/>
          <note pos="1392" vol="78" len="24" pan="0" key="52"/>
          <note pos="1416" vol="78" len="24" pan="0" key="49"/>
          <note pos="1440" vol="78" len="24" pan="0" key="54"/>
          <note pos="1464" vol="78" len="24" pan="0" key="52"/>
          <note pos="1488" vol="78" len="24" pan="0" key="56"/>
          <note pos="1512" vol="78" len="24" pan="0" key="52"/>
          <note pos="1536" vol="78" len="96" pan="0" key="57"/>
          <note pos="1632" vol="78" len="24" pan="0" key="57"/>
          <note pos="1656" vol="78" len="24" pan="0" key="56"/>
          <note pos="1680" vol="78" len="24" pan="0" key="57"/>
          <note pos="1704" vol="78" len="24" pan="0" key="59"/>
          <note pos="1728" vol="78" len="72" pan="0" key="61"/>
          <note pos="1800" vol="78" len="72" pan="0" key="59"/>
          <note pos="1872" vol="78" len="48" pan="0" key="57"/>
          <note pos="1920" vol="78" len="24" pan="0" key="56"/>
          <note pos="1944" vol="78" len="24" pan="0" key="57"/>
          <note pos="1968" vol="78" len="24" pan="0" key="56"/>
          <note pos="1992" vol="78" len="48" pan="0" key="52"/>
          <note pos="2040" vol="78" len="24" pan="0" key="52"/>
          <note pos="2064" vol="78" len="24" pan="0" key="54"/>
          <note pos="2088" vol="78" len="24" pan="0" key="56"/>
          <note pos="2112" vol="78" len="96" pan="0" key="54"/>
          <note pos="2208" vol="78" len="48" pan="0" key="51"/>
          <note pos="2256" vol="78" len="48" pan="0" key="56"/>
          <note pos="2304" vol="78" len="24" pan="0" key="44"/>
          <note pos="2328" vol="78" len="24" pan="0" key="42"/>
          <note pos="2352" vol="78" len="24" pan="0" key="44"/>
          <note pos="2376" vol="78" len="24" pan="0" key="49"/>
          <note pos="2400" vol="78" len="48" pan="0" key="52"/>
          <note pos="2448" vol="78" len="24" pan="0" key="51"/>
          <note pos="2472" vol="78" len="24" pan="0" key="49"/>
          <note pos="2496" vol="78" len="24" pan="0" key="56"/>
          <note pos="2520" vol="78" len="24" pan="0" key="54"/>
          <note pos="2544" vol="78" len="24" pan="0" key="52"/>
          <note pos="2568" vol="78" len="24" pan="0" key="51"/>
          <note pos="2592" vol="78" len="24" pan="0" key="49"/>
          <note pos="2616" vol="78" len="24" pan="0" key="51"/>
          <note pos="2640" vol="78" len="24" pan="0" key="52"/>
          <note pos="2664" vol="78" len="24" pan="0" key="56"/>
          <note pos="2688" vol="78" len="48" pan="0" key="58"/>
          <note pos="2736" vol="78" len="48" pan="0" key="54"/>
          <note pos="2784" vol="78" len="48" pan="0" key="51"/>
          <note pos="2832" vol="78" len="48" pan="0" key="46"/>
          <note pos="2880" vol="78" len="24" pan="0" key="45"/>
          <note pos="2904" vol="78" len="24" pan="0" key="49"/>
          <note pos="2928" vol="78" len="24" pan="0" key="51"/>
          <note pos="2952" vol="78" len="24" pan="0" key="54"/>
          <note pos="2976" vol="78" len="24" pan="0" key="57"/>
          <note pos="3000" vol="78" len="24" pan="0" key="61"/>
          <note pos="3024" vol="78" len="24" pan="0" key="63"/>
          <note pos="3048" vol="78" len="24" pan="0" key="66"/>
          <note pos="3072" vol="78" len="144" pan="0" key="49"/>
          <note pos="3216" vol="78" len="48" pan="0" key="45"/>
          <note pos="3264" vol="78" len="96" pan="0" key="47"/>
          <note pos="3360" vol="78" len="96" pan="0" key="51"/>
          <note pos="3456" vol="78" len="48" pan="0" key="49"/>
          <note pos="3504" vol="78" len="48" pan="0" key="44"/>
          <note pos="3552" vol="78" len="48" pan="0" key="40"/>
          <note pos="3600" vol="78" len="48" pan="0" key="44"/>
          <note pos="3648" vol="78" len="48" pan="0" key="42"/>
          <note pos="3696" vol="78" len="48" pan="0" key="51"/>
          <note pos="3744" vol="78" len="24" pan="0" key="51"/>
          <note pos="3768" vol="78" len="24" pan="0" key="52"/>
          <note pos="3792" vol="78" len="24" pan="0" key="54"/>
          <note pos="3816" vol="78" len="24" pan="0" key="51"/>
          <note pos="3840" vol="78" len="96" pan="0" key="52"/>
          <note pos="3936" vol="78" len="48" pan="0" key="51"/>
          <note pos="3984" vol="78" len="48" pan="0" key="47"/>
          <note pos="4032" vol="78" len="48" pan="0" key="49"/>
          <note pos="4080" vol="78" len="48" pan="0" key="52"/>
          <note pos="4128" vol="78" len="48" pan="0" key="54"/>
          <note pos="4176" vol="78" len="48" pan="0" key="49"/>
          <note pos="4224" vol="78" len="48" pan="0" key="54"/>
          <note pos="4272" vol="78" len="48" pan="0" key="52"/>
          <note pos="4320" vol="78" len="48" pan="0" key="51"/>
          <note pos="4368" vol="78" len="48" pan="0" key="54"/>
          <note pos="4416" vol="78" len="24" pan="0" key="52"/>
          <note pos="4440" vol="78" len="24" pan="0" key="54"/>
          <note pos="4464" vol="78" len="24" pan="0" key="52"/>
          <note pos="4488" vol="78" len="24" pan="0" key="51"/>
          <note pos="4512" vol="78" len="24" pan="0" key="49"/>
          <note pos="4536" vol="78" len="24" pan="0" key="44"/>
          <note pos="4560" vol="78" len="24" pan="0" key="45"/>
          <note pos="4584" vol="78" len="24" pan="0" key="48"/>
          <note pos="4608" vol="78" len="48" pan="0" key="51"/>
          <note pos="4656" vol="78" len="48" pan="0" key="52"/>
          <note pos="4704" vol="78" len="48" pan="0" key="54"/>
          <note pos="4752" vol="78" len="48" pan="0" key="56"/>
          <note pos="4800" vol="78" len="48" pan="0" key="59"/>
          <note pos="4848" vol="78" len="48" pan="0" key="56"/>
          <note pos="4896" vol="78" len="48" pan="0" key="51"/>
          <note pos="4944" vol="78" len="48" pan="0" key="56"/>
          <note pos="4992" vol="78" len="48" pan="0" key="59"/>
          <note pos="5040" vol="78" len="48" pan="0" key="56"/>
          <note pos="5088" vol="78" len="48" pan="0" key="52"/>
          <note pos="5136" vol="78" len="48" pan="0" key="49"/>
          <note pos="5184" vol="78" len="24" pan="0" key="45"/>
          <note pos="5208" vol="78" len="24" pan="0" key="44"/>
          <note pos="5232" vol="78" len="24" pan="0" key="45"/>
          <note pos="5256" vol="78" len="24" pan="0" key="47"/>
          <note pos="5280" vol="78" len="24" pan="0" key="49"/>
          <note pos="5304" vol="78" len="24" pan="0" key="52"/>
          <note pos="5328" vol="78" len="24" pan="0" key="54"/>
          <note pos="5352" vol="78" len="24" pan="0" key="56"/>
          <note pos="5376" vol="78" len="72" pan="0" key="54"/>
          <note pos="5448" vol="78" len="24" pan="0" key="59"/>
          <note pos="5472" vol="78" len="48" pan="0" key="56"/>
          <note pos="5520" vol="78" len="24" pan="0" key="52"/>
          <note pos="5544" vol="78" len="24" pan="0" key="54"/>
          <note pos="5568" vol="78" len="48" pan="0" key="57"/>
          <note pos="5616" vol="78" len="48" pan="0" key="56"/>
          <note pos="5664" vol="78" len="48" pan="0" key="52"/>
          <note pos="5712" vol="78" len="48" pan="0" key="56"/>
          <note pos="5760" vol="78" len="192" pan="0" key="54"/>
          <note pos="5952" vol="78" len="24" pan="0" key="51"/>
          <note pos="5976" vol="78" len="24" pan="0" key="51"/>
          <note pos="6048" vol="78" len="24" pan="0" key="47"/>
          <note pos="6072" vol="78" len="24" pan="0" key="47"/>
          <note pos="6144" vol="78" len="336" pan="0" key="49"/>
          <note pos="6480" vol="78" len="48" pan="0" key="52"/>
          <note pos="6528" vol="78" len="288" pan="0" key="51"/>
          <note pos="6816" vol="78" len="48" pan="0" key="44"/>
          <note pos="6864" vol="78" len="48" pan="0" key="47"/>
          <note pos="6912" vol="78" len="240" pan="0" key="49"/>
          <note pos="7152" vol="78" len="48" pan="0" key="47"/>
          <note pos="7200" vol="78" len="48" pan="0" key="49"/>
          <note pos="7248" vol="78" len="48" pan="0" key="56"/>
          <note pos="7296" vol="78" len="192" pan="0" key="54"/>
          <note pos="7488" vol="78" len="48" pan="0" key="57"/>
          <note pos="7536" vol="78" len="24" pan="0" key="56"/>
          <note pos="7560" vol="78" len="12" pan="0" key="56"/>
          <note pos="7568" vol="78" len="12" pan="0" key="57"/>
          <note pos="7576" vol="78" len="12" pan="0" key="56"/>
          <note pos="7584" vol="78" len="48" pan="0" key="54"/>
          <note pos="7632" vol="78" len="48" pan="0" key="56"/>
          <note pos="7680" vol="78" len="240" pan="0" key="52"/>
          <note pos="7920" vol="78" len="48" pan="0" key="49"/>
          <note pos="7968" vol="78" len="48" pan="0" key="52"/>
          <note pos="8016" vol="78" len="48" pan="0" key="56"/>
          <note pos="8064" vol="78" len="192" pan="0" key="56"/>
          <note pos="8256" vol="78" len="144" pan="0" key="54"/>
          <note pos="8400" vol="78" len="48" pan="0" key="56"/>
          <note pos="8448" vol="78" len="240" pan="0" key="49"/>
          <note pos="8688" vol="78" len="48" pan="0" key="44"/>
          <note pos="8736" vol="78" len="48" pan="0" key="49"/>
          <note pos="8784" vol="78" len="48" pan="0" key="56"/>
          <note pos="8832" vol="78" len="192" pan="0" key="61"/>
          <note pos="9024" vol="78" len="192" pan="0" key="60"/>
        </pattern>
        <pattern name="" steps="16" pos="36864" muted="0" type="1">
          <note pos="0" vol="78" len="24" pan="0" key="44"/>
          <note pos="24" vol="78" len="24" pan="0" key="47"/>
          <note pos="48" vol="78" len="24" pan="0" key="44"/>
          <note pos="72" vol="78" len="48" pan="0" key="51"/>
          <note pos="120" vol="78" len="24" pan="0" key="44"/>
          <note pos="144" vol="78" len="24" pan="0" key="47"/>
          <note pos="168" vol="78" len="24" pan="0" key="51"/>
          <note pos="192" vol="78" len="24" pan="0" key="52"/>
          <note pos="216" vol="78" len="24" pan="0" key="51"/>
          <note pos="240" vol="78" len="24" pan="0" key="49"/>
          <note pos="264" vol="78" len="24" pan="0" key="47"/>
          <note pos="288" vol="78" len="24" pan="0" key="51"/>
          <note pos="312" vol="78" len="24" pan="0" key="49"/>
          <note pos="336" vol="78" len="24" pan="0" key="47"/>
          <note pos="360" vol="78" len="24" pan="0" key="44"/>
          <note pos="384" vol="78" len="96" pan="0" key="49"/>
        </pattern>
        <pattern name="" steps="16" pos="37632" muted="0" type="1">
          <note pos="0" vol="78" len="24" pan="0" key="47"/>
          <note pos="24" vol="78" len="24" pan="0" key="52"/>
          <note pos="48" vol="78" len="24" pan="0" key="56"/>
          <note pos="72" vol="78" len="48" pan="0" key="59"/>
          <note pos="120" vol="78" len="24" pan="0" key="56"/>
          <note pos="144" vol="78" len="24" pan="0" key="59"/>
          <note pos="168" vol="78" len="24" pan="0" key="63"/>
          <note pos="192" vol="78" len="24" pan="0" key="61"/>
          <note pos="216" vol="78" len="24" pan="0" key="56"/>
          <note pos="240" vol="78" len="24" pan="0" key="52"/>
          <note pos="264" vol="78" len="24" pan="0" key="49"/>
          <note pos="288" vol="78" len="24" pan="0" key="54"/>
          <note pos="312" vol="78" len="24" pan="0" key="52"/>
          <note pos="336" vol="78" len="24" pan="0" key="56"/>
          <note pos="360" vol="78" len="24" pan="0" key="52"/>
          <note pos="384" vol="78" len="120" pan="0" key="57"/>
          <note pos="504" vol="78" len="24" pan="0" key="56"/>
          <note pos="528" vol="78" len="24" pan="0" key="57"/>
          <note pos="552" vol="78" len="24" pan="0" key="59"/>
          <note pos="576" vol="78" len="72" pan="0" key="61"/>
          <note pos="648" vol="78" len="72" pan="0" key="59"/>
          <note pos="720" vol="78" len="48" pan="0" key="57"/>
          <note pos="768" vol="78" len="24" pan="0" key="56"/>
          <note pos="792" vol="78" len="24" pan="0" key="57"/>
          <note pos="816" vol="78" len="24" pan="0" key="56"/>
          <note pos="840" vol="78" len="48" pan="0" key="52"/>
          <note pos="888" vol="78" len="24" pan="0" key="52"/>
          <note pos="912" vol="78" len="24" pan="0" key="54"/>
          <note pos="936" vol="78" len="24" pan="0" key="56"/>
          <note pos="960" vol="78" len="96" pan="0" key="54"/>
          <note pos="1056" vol="78" len="48" pan="0" key="51"/>
          <note pos="1104" vol="78" len="48" pan="0" key="56"/>
          <note pos="1152" vol="78" len="24" pan="0" key="44"/>
          <note pos="1176" vol="78" len="24" pan="0" key="42"/>
          <note pos="1200" vol="78" len="24" pan="0" key="44"/>
          <note pos="1224" vol="78" len="24" pan="0" key="49"/>
          <note pos="1248" vol="78" len="48" pan="0" key="52"/>
          <note pos="1296" vol="78" len="24" pan="0" key="51"/>
          <note pos="1320" vol="78" len="24" pan="0" key="49"/>
          <note pos="1344" vol="78" len="24" pan="0" key="56"/>
          <note pos="1368" vol="78" len="24" pan="0" key="54"/>
          <note pos="1392" vol="78" len="24" pan="0" key="52"/>
          <note pos="1416" vol="78" len="24" pan="0" key="51"/>
          <note pos="1440" vol="78" len="24" pan="0" key="49"/>
          <note pos="1464" vol="78" len="24" pan="0" key="51"/>
          <note pos="1488" vol="78" len="24" pan="0" key="52"/>
          <note pos="1512" vol="78" len="24" pan="0" key="56"/>
          <note pos="1536" vol="78" len="48" pan="0" key="58"/>
          <note pos="1584" vol="78" len="48" pan="0" key="54"/>
          <note pos="1632" vol="78" len="48" pan="0" key="51"/>
          <note pos="1680" vol="78" len="48" pan="0" key="46"/>
          <note pos="1728" vol="78" len="24" pan="0" key="45"/>
          <note pos="1752" vol="78" len="24" pan="0" key="49"/>
          <note pos="1776" vol="78" len="24" pan="0" key="51"/>
          <note pos="1800" vol="78" len="24" pan="0" key="54"/>
          <note pos="1824" vol="78" len="24" pan="0" key="57"/>
          <note pos="1848" vol="78" len="24" pan="0" key="61"/>
          <note pos="1872" vol="78" len="24" pan="0" key="63"/>
          <note pos="1896" vol="78" len="24" pan="0" key="66"/>
        </pattern>
        <pattern name="" steps="16" pos="44160" muted="0" type="1">
          <note pos="0" vol="78" len="24" pan="0" key="49"/>
          <note pos="24" vol="78" len="12" pan="0" key="56"/>
          <note pos="48" vol="78" len="24" pan="0" key="49"/>
          <note pos="72" vol="78" len="12" pan="0" key="56"/>
          <note pos="120" vol="78" len="12" pan="0" key="56"/>
          <note pos="144" vol="78" len="24" pan="0" key="49"/>
          <note pos="168" vol="78" len="12" pan="0" key="56"/>
          <note pos="192" vol="78" len="12" pan="0" key="56"/>
          <note pos="216" vol="78" len="24" pan="0" key="61"/>
          <note pos="240" vol="78" len="12" pan="0" key="56"/>
          <note pos="264" vol="78" len="12" pan="0" key="56"/>
          <note pos="288" vol="78" len="24" pan="0" key="49"/>
          <note pos="312" vol="78" len="24" pan="0" key="52"/>
          <note pos="336" vol="78" len="24" pan="0" key="56"/>
          <note pos="360" vol="78" len="24" pan="0" key="61"/>
          <note pos="384" vol="78" len="24" pan="0" key="44"/>
          <note pos="408" vol="78" len="24" pan="0" key="47"/>
          <note pos="432" vol="78" len="24" pan="0" key="44"/>
          <note pos="456" vol="78" len="48" pan="0" key="51"/>
          <note pos="504" vol="78" len="24" pan="0" key="44"/>
          <note pos="528" vol="78" len="24" pan="0" key="47"/>
          <note pos="552" vol="78" len="24" pan="0" key="51"/>
          <note pos="576" vol="78" len="24" pan="0" key="52"/>
          <note pos="600" vol="78" len="24" pan="0" key="51"/>
          <note pos="624" vol="78" len="24" pan="0" key="49"/>
          <note pos="648" vol="78" len="24" pan="0" key="47"/>
          <note pos="672" vol="78" len="24" pan="0" key="51"/>
          <note pos="696" vol="78" len="24" pan="0" key="49"/>
          <note pos="720" vol="78" len="24" pan="0" key="47"/>
          <note pos="744" vol="78" len="24" pan="0" key="44"/>
          <note pos="768" vol="78" len="24" pan="0" key="49"/>
          <note pos="792" vol="78" len="12" pan="0" key="56"/>
          <note pos="816" vol="78" len="12" pan="0" key="56"/>
          <note pos="840" vol="78" len="24" pan="0" key="61"/>
          <note pos="864" vol="78" len="12" pan="0" key="56"/>
          <note pos="888" vol="78" len="12" pan="0" key="56"/>
          <note pos="912" vol="78" len="24" pan="0" key="49"/>
          <note pos="936" vol="78" len="12" pan="0" key="56"/>
          <note pos="960" vol="78" len="12" pan="0" key="56"/>
          <note pos="984" vol="78" len="24" pan="0" key="61"/>
          <note pos="1008" vol="78" len="12" pan="0" key="56"/>
          <note pos="1032" vol="78" len="24" pan="0" key="57"/>
          <note pos="1056" vol="78" len="24" pan="0" key="49"/>
          <note pos="1080" vol="78" len="24" pan="0" key="52"/>
          <note pos="1104" vol="78" len="24" pan="0" key="56"/>
          <note pos="1128" vol="78" len="24" pan="0" key="61"/>
          <note pos="1152" vol="78" len="24" pan="0" key="47"/>
          <note pos="1176" vol="78" len="24" pan="0" key="52"/>
          <note pos="1200" vol="78" len="24" pan="0" key="56"/>
          <note pos="1224" vol="78" len="48" pan="0" key="59"/>
          <note pos="1272" vol="78" len="24" pan="0" key="56"/>
          <note pos="1296" vol="78" len="24" pan="0" key="59"/>
          <note pos="1320" vol="78" len="24" pan="0" key="63"/>
          <note pos="1344" vol="78" len="24" pan="0" key="61"/>
          <note pos="1368" vol="78" len="24" pan="0" key="56"/>
          <note pos="1392" vol="78" len="24" pan="0" key="52"/>
          <note pos="1416" vol="78" len="24" pan="0" key="49"/>
          <note pos="1440" vol="78" len="24" pan="0" key="54"/>
          <note pos="1464" vol="78" len="24" pan="0" key="52"/>
          <note pos="1488" vol="78" len="24" pan="0" key="56"/>
          <note pos="1512" vol="78" len="24" pan="0" key="52"/>
          <note pos="1536" vol="78" len="96" pan="0" key="57"/>
          <note pos="1632" vol="78" len="24" pan="0" key="57"/>
          <note pos="1656" vol="78" len="24" pan="0" key="56"/>
          <note pos="1680" vol="78" len="24" pan="0" key="57"/>
          <note pos="1704" vol="78" len="24" pan="0" key="59"/>
          <note pos="1728" vol="78" len="72" pan="0" key="61"/>
          <note pos="1800" vol="78" len="72" pan="0" key="59"/>
          <note pos="1872" vol="78" len="48" pan="0" key="57"/>
          <note pos="1920" vol="78" len="24" pan="0" key="56"/>
          <note pos="1944" vol="78" len="24" pan="0" key="57"/>
          <note pos="1968" vol="78" len="24" pan="0" key="56"/>
          <note pos="1992" vol="78" len="48" pan="0" key="52"/>
          <note pos="2040" vol="78" len="24" pan="0" key="52"/>
          <note pos="2064" vol="78" len="24" pan="0" key="54"/>
          <note pos="2088" vol="78" len="24" pan="0" key="56"/>
          <note pos="2112" vol="78" len="96" pan="0" key="54"/>
          <note pos="2208" vol="78" len="48" pan="0" key="51"/>
          <note pos="2256" vol="78" len="48" pan="0" key="56"/>
          <note pos="2304" vol="78" len="24" pan="0" key="44"/>
          <note pos="2328" vol="78" len="24" pan="0" key="42"/>
          <note pos="2352" vol="78" len="24" pan="0" key="44"/>
          <note pos="2376" vol="78" len="24" pan="0" key="49"/>
          <note pos="2400" vol="78" len="48" pan="0" key="52"/>
          <note pos="2448" vol="78" len="24" pan="0" key="51"/>
          <note pos="2472" vol="78" len="24" pan="0" key="49"/>
          <note pos="2496" vol="78" len="24" pan="0" key="56"/>
          <note pos="2520" vol="78" len="24" pan="0" key="54"/>
          <note pos="2544" vol="78" len="24" pan="0" key="52"/>
          <note pos="2568" vol="78" len="24" pan="0" key="51"/>
          <note pos="2592" vol="78" len="24" pan="0" key="49"/>
          <note pos="2616" vol="78" len="24" pan="0" key="51"/>
          <note pos="2640" vol="78" len="24" pan="0" key="52"/>
          <note pos="2664" vol="78" len="24" pan="0" key="56"/>
          <note pos="2688" vol="78" len="48" pan="0" key="58"/>
          <note pos="2736" vol="78" len="48" pan="0" key="54"/>
          <note pos="2784" vol="78" len="48" pan="0" key="51"/>
          <note pos="2832" vol="78" len="48" pan="0" key="46"/>
          <note pos="2880" vol="78" len="24" pan="0" key="45"/>
          <note pos="2904" vol="78" len="24" pan="0" key="49"/>
          <note pos="2928" vol="78" len="24" pan="0" key="51"/>
          <note pos="2952" vol="78" len="24" pan="0" key="54"/>
          <note pos="2976" vol="78" len="24" pan="0" key="57"/>
          <note pos="3000" vol="78" len="24" pan="0" key="61"/>
          <note pos="3024" vol="78" len="24" pan="0" key="63"/>
          <note pos="3048" vol="78" len="24" pan="0" key="66"/>
          <note pos="3072" vol="78" len="144" pan="0" key="49"/>
          <note pos="3216" vol="78" len="48" pan="0" key="45"/>
          <note pos="3264" vol="78" len="96" pan="0" key="47"/>
          <note pos="3360" vol="78" len="96" pan="0" key="51"/>
          <note pos="3456" vol="78" len="48" pan="0" key="49"/>
          <note pos="3504" vol="78" len="48" pan="0" key="44"/>
          <note pos="3552" vol="78" len="48" pan="0" key="40"/>
          <note pos="3600" vol="78" len="48" pan="0" key="44"/>
          <note pos="3648" vol="78" len="48" pan="0" key="42"/>
          <note pos="3696" vol="78" len="48" pan="0" key="51"/>
          <note pos="3744" vol="78" len="24" pan="0" key="51"/>
          <note pos="3768" vol="78" len="24" pan="0" key="52"/>
          <note pos="3792" vol="78" len="24" pan="0" key="54"/>
          <note pos="3816" vol="78" len="24" pan="0" key="51"/>
          <note pos="3840" vol="78" len="96" pan="0" key="52"/>
          <note pos="3936" vol="78" len="48" pan="0" key="51"/>
          <note pos="3984" vol="78" len="48" pan="0" key="47"/>
          <note pos="4032" vol="78" len="48" pan="0" key="49"/>
          <note pos="4080" vol="78" len="48" pan="0" key="52"/>
          <note pos="4128" vol="78" len="48" pan="0" key="54"/>
          <note pos="4176" vol="78" len="48" pan="0" key="49"/>
          <note pos="4224" vol="78" len="48" pan="0" key="54"/>
          <note pos="4272" vol="78" len="48" pan="0" key="52"/>
          <note pos="4320" vol="78" len="48" pan="0" key="51"/>
          <note pos="4368" vol="78" len="48" pan="0" key="54"/>
          <note pos="4416" vol="78" len="24" pan="0" key="52"/>
          <note pos="4440" vol="78" len="24" pan="0" key="54"/>
          <note pos="4464" vol="78" len="24" pan="0" key="52"/>
          <note pos="4488" vol="78" len="24" pan="0" key="51"/>
          <note pos="4512" vol="78" len="24" pan="0" key="49"/>
          <note pos="4536" vol="78" len="24" pan="0" key="44"/>
          <note pos="4560" vol="78" len="24" pan="0" key="45"/>
          <note pos="4584" vol="78" len="24" pan="0" key="48"/>
          <note pos="4608" vol="78" len="48" pan="0" key="51"/>
          <note pos="4656" vol="78" len="48" pan="0" key="52"/>
          <note pos="4704" vol="78" len="48" pan="0" key="54"/>
          <note pos="4752" vol="78" len="48" pan="0" key="56"/>
          <note pos="4800" vol="78" len="48" pan="0" key="59"/>
          <note pos="4848" vol="78" len="48" pan="0" key="56"/>
          <note pos="4896" vol="78" len="48" pan="0" key="51"/>
          <note pos="4944" vol="78" len="48" pan="0" key="56"/>
          <note pos="4992" vol="78" len="48" pan="0" key="59"/>
          <note pos="5040" vol="78" len="48" pan="0" key="56"/>
          <note pos="5088" vol="78" len="48" pan="0" key="52"/>
          <note pos="5136" vol="78" len="48" pan="0" key="49"/>
          <note pos="5184" vol="78" len="24" pan="0" key="45"/>
          <note pos="5208" vol="78" len="24" pan="0" key="44"/>
          <note pos="5232" vol="78" len="24" pan="0" key="45"/>
          <note pos="5256" vol="78" len="24" pan="0" key="47"/>
          <note pos="5280" vol="78" len="24" pan="0" key="49"/>
          <note pos="5304" vol="78" len="24" pan="0" key="52"/>
          <note pos="5328" vol="78" len="24" pan="0" key="54"/>
          <note pos="5352" vol="78" len="24" pan="0" key="56"/>
          <note pos="5376" vol="78" len="72" pan="0" key="54"/>
          <note pos="5448" vol="78" len="24" pan="0" key="59"/>
          <note pos="5472" vol="78" len="48" pan="0" key="56"/>
          <note pos="5520" vol="78" len="24" pan="0" key="52"/>
          <note pos="5544" vol="78" len="24" pan="0" key="54"/>
          <note pos="5568" vol="78" len="48" pan="0" key="57"/>
          <note pos="5616" vol="78" len="48" pan="0" key="56"/>
          <note pos="5664" vol="78" len="48" pan="0" key="52"/>
          <note pos="5712" vol="78" len="48" pan="0" key="56"/>
          <note pos="5760" vol="78" len="192" pan="0" key="54"/>
          <note pos="5952" vol="78" len="24" pan="0" key="51"/>
          <note pos="5976" vol="78" len="24" pan="0" key="51"/>
          <note pos="6048" vol="78" len="24" pan="0" key="47"/>
          <note pos="6072" vol="78" len="24" pan="0" key="47"/>
          <note pos="6144" vol="78" len="336" pan="0" key="49"/>
          <note pos="6480" vol="78" len="48" pan="0" key="52"/>
          <note pos="6528" vol="78" len="288" pan="0" key="51"/>
          <note pos="6816" vol="78" len="48" pan="0" key="44"/>
          <note pos="6864" vol="78" len="48" pan="0" key="47"/>
          <note pos="6912" vol="78" len="240" pan="0" key="49"/>
          <note pos="7152" vol="78" len="48" pan="0" key="47"/>
          <note pos="7200" vol="78" len="48" pan="0" key="49"/>
          <note pos="7248" vol="78" len="48" pan="0" key="56"/>
          <note pos="7296" vol="78" len="192" pan="0" key="54"/>
          <note pos="7488" vol="78" len="48" pan="0" key="57"/>
          <note pos="7536" vol="78" len="24" pan="0" key="56"/>
          <note pos="7560" vol="78" len="12" pan="0" key="56"/>
          <note pos="7568" vol="78" len="12" pan="0" key="57"/>
          <note pos="7576" vol="78" len="12" pan="0" key="56"/>
          <note pos="7584" vol="78" len="48" pan="0" key="54"/>
          <note pos="7632" vol="78" len="48" pan="0" key="56"/>
          <note pos="7680" vol="78" len="240" pan="0" key="52"/>
          <note pos="7920" vol="78" len="48" pan="0" key="49"/>
          <note pos="7968" vol="78" len="48" pan="0" key="52"/>
          <note pos="8016" vol="78" len="48" pan="0" key="56"/>
          <note pos="8064" vol="78" len="192" pan="0" key="56"/>
          <note pos="8256" vol="78" len="144" pan="0" key="54"/>
          <note pos="8400" vol="78" len="48" pan="0" key="56"/>
          <note pos="8448" vol="78" len="240" pan="0" key="49"/>
          <note pos="8688" vol="78" len="48" pan="0" key="44"/>
          <note pos="8736" vol="78" len="48" pan="0" key="49"/>
          <note pos="8784" vol="78" len="48" pan="0" key="56"/>
          <note pos="8832" vol="78" len="192" pan="0" key="61"/>
          <note pos="9024" vol="78" len="192" pan="0" key="60"/>
        </pattern>
        <pattern name="" steps="16" pos="56448" muted="0" type="1">
          <note pos="0" vol="78" len="336" pan="0" key="75"/>
          <note pos="0" vol="78" len="336" pan="0" key="0"/>
          <note pos="336" vol="78" len="48" pan="0" key="78"/>
          <note pos="384" vol="78" len="288" pan="0" key="77"/>
          <note pos="672" vol="78" len="48" pan="0" key="70"/>
          <note pos="720" vol="78" len="48" pan="0" key="73"/>
          <note pos="768" vol="78" len="240" pan="0" key="75"/>
          <note pos="1008" vol="78" len="48" pan="0" key="73"/>
          <note pos="1056" vol="78" len="48" pan="0" key="75"/>
          <note pos="1104" vol="78" len="48" pan="0" key="82"/>
          <note pos="1152" vol="78" len="192" pan="0" key="80"/>
          <note pos="1344" vol="78" len="48" pan="0" key="83"/>
          <note pos="1392" vol="78" len="48" pan="0" key="82"/>
          <note pos="1440" vol="78" len="48" pan="0" key="80"/>
          <note pos="1488" vol="78" len="48" pan="0" key="76"/>
          <note pos="1536" vol="78" len="144" pan="0" key="75"/>
          <note pos="1680" vol="78" len="24" pan="0" key="75"/>
          <note pos="1704" vol="78" len="24" pan="0" key="77"/>
          <note pos="1728" vol="78" len="96" pan="0" key="78"/>
          <note pos="1812" vol="78" len="24" pan="0" key="0"/>
          <note pos="1824" vol="78" len="12" pan="0" key="80"/>
          <note pos="1836" vol="78" len="84" pan="0" key="82"/>
          <note pos="1836" vol="78" len="24" pan="0" key="2"/>
          <note pos="1896" vol="78" len="24" pan="0" key="0"/>
          <note pos="1920" vol="78" len="156" pan="0" key="80"/>
          <note pos="2076" vol="78" len="12" pan="0" key="80"/>
          <note pos="2088" vol="78" len="12" pan="0" key="78"/>
          <note pos="2100" vol="78" len="12" pan="0" key="77"/>
          <note pos="2112" vol="78" len="96" pan="0" key="73"/>
          <note pos="2208" vol="78" len="48" pan="0" key="70"/>
          <note pos="2256" vol="78" len="48" pan="0" key="73"/>
          <note pos="2304" vol="78" len="120" pan="0" key="75"/>
          <note pos="2424" vol="78" len="24" pan="0" key="73"/>
          <note pos="2448" vol="78" len="24" pan="0" key="72"/>
          <note pos="2472" vol="78" len="24" pan="0" key="68"/>
          <note pos="2496" vol="78" len="96" pan="0" key="70"/>
          <note pos="2592" vol="78" len="96" pan="0" key="63"/>
          <note pos="2688" vol="78" len="12" pan="0" key="70"/>
          <note pos="2688" vol="78" len="12" pan="0" key="0"/>
          <note pos="2700" vol="78" len="84" pan="0" key="71"/>
          <note pos="2700" vol="78" len="12" pan="0" key="2"/>
          <note pos="2712" vol="78" len="12" pan="0" key="0"/>
          <note pos="2784" vol="78" len="96" pan="0" key="70"/>
          <note pos="2880" vol="78" len="96" pan="0" key="68"/>
          <note pos="2976" vol="78" len="96" pan="0" key="73"/>
          <note pos="3072" vol="78" len="48" pan="0" key="75"/>
          <note pos="3120" vol="78" len="48" pan="0" key="70"/>
          <note pos="3168" vol="78" len="48" pan="0" key="75"/>
          <note pos="3216" vol="78" len="48" pan="0" key="77"/>
          <note pos="3264" vol="78" len="48" pan="0" key="78"/>
          <note pos="3312" vol="78" len="48" pan="0" key="80"/>
          <note pos="3360" vol="78" len="48" pan="0" key="82"/>
          <note pos="3408" vol="78" len="48" pan="0" key="87"/>
          <note pos="3456" vol="78" len="144" pan="0" key="85"/>
          <note pos="3600" vol="78" len="12" pan="0" key="80"/>
          <note pos="3600" vol="78" len="12" pan="0" key="0"/>
          <note pos="3612" vol="78" len="36" pan="0" key="82"/>
          <note pos="3612" vol="78" len="12" pan="0" key="2"/>
          <note pos="3624" vol="78" len="12" pan="0" key="0"/>
          <note pos="3648" vol="78" len="96" pan="0" key="80"/>
          <note pos="3744" vol="78" len="48" pan="0" key="77"/>
          <note pos="3792" vol="78" len="48" pan="0" key="80"/>
          <note pos="3840" vol="78" len="24" pan="0" key="79"/>
          <note pos="3864" vol="78" len="24" pan="0" key="80"/>
          <note pos="3888" vol="78" len="24" pan="0" key="79"/>
          <note pos="3912" vol="78" len="24" pan="0" key="75"/>
          <note pos="3936" vol="78" len="24" pan="0" key="72"/>
          <note pos="3960" vol="78" len="24" pan="0" key="63"/>
          <note pos="3984" vol="78" len="24" pan="0" key="70"/>
          <note pos="4008" vol="78" len="24" pan="0" key="68"/>
          <note pos="4032" vol="78" len="96" pan="0" key="70"/>
          <note pos="4128" vol="78" len="96" pan="0" key="75"/>
          <note pos="4224" vol="78" len="192" pan="0" key="75"/>
          <note pos="4416" vol="78" len="96" pan="0" key="78"/>
          <note pos="4512" vol="78" len="96" pan="0" key="80"/>
          <note pos="4608" vol="78" len="192" pan="0" key="82"/>
          <note pos="4608" vol="78" len="16" pan="0" key="0"/>
          <note pos="4800" vol="78" len="16" pan="0" key="75"/>
          <note pos="4800" vol="78" len="16" pan="0" key="1"/>
          <note pos="4816" vol="78" len="16" pan="0" key="77"/>
          <note pos="4832" vol="78" len="16" pan="0" key="75"/>
          <note pos="4848" vol="78" len="16" pan="0" key="78"/>
          <note pos="4864" vol="78" len="16" pan="0" key="80"/>
          <note pos="4864" vol="78" len="16" pan="0" key="0"/>
          <note pos="4880" vol="78" len="16" pan="0" key="82"/>
          <note pos="4896" vol="78" len="16" pan="0" key="87"/>
          <note pos="4912" vol="78" len="16" pan="0" key="82"/>
          <note pos="4928" vol="78" len="16" pan="0" key="80"/>
          <note pos="4928" vol="78" len="16" pan="0" key="1"/>
          <note pos="4944" vol="78" len="16" pan="0" key="78"/>
          <note pos="4960" vol="78" len="16" pan="0" key="77"/>
          <note pos="4976" vol="78" len="16" pan="0" key="75"/>
          <note pos="4992" vol="78" len="48" pan="0" key="77"/>
          <note pos="4992" vol="78" len="192" pan="0" key="0"/>
          <note pos="5040" vol="78" len="48" pan="0" key="78"/>
          <note pos="5088" vol="78" len="48" pan="0" key="80"/>
          <note pos="5136" vol="78" len="48" pan="0" key="85"/>
          <note pos="5184" vol="78" len="96" pan="0" key="73"/>
          <note pos="5280" vol="78" len="12" pan="0" key="75"/>
          <note pos="5280" vol="78" len="12" pan="0" key="0"/>
          <note pos="5292" vol="78" len="84" pan="0" key="77"/>
          <note pos="5292" vol="78" len="12" pan="0" key="2"/>
          <note pos="5304" vol="78" len="12" pan="0" key="0"/>
          <note pos="5376" vol="78" len="96" pan="0" key="75"/>
          <note pos="5472" vol="78" len="96" pan="0" key="77"/>
          <note pos="5568" vol="78" len="96" pan="0" key="70"/>
          <note pos="5664" vol="78" len="96" pan="0" key="75"/>
          <note pos="5760" vol="78" len="96" pan="0" key="80"/>
          <note pos="5856" vol="78" len="96" pan="0" key="82"/>
          <note pos="5952" vol="200" len="96" pan="0" key="85"/>
        </pattern>
      </track>
      <track name="Violin" solo="0" muted="1" type="0">
        <instrumenttrack basenote="57" fxch="0" usemasterpitch="1" pitch="0" vol="100" pan="0" pitchrange="2">
          <instrument name="sf2player">
            <sf2player reverbRoomSize="0.2" src="/home/pass/samples/soundfonts/Mystery Dungeon.sf2" chorusOn="0" chorusDepth="8" gain="1" reverbDamping="0" chorusNum="3" chorusLevel="2" bank="0" reverbLevel="0.9" patch="15" reverbOn="0" chorusSpeed="0.3" reverbWidth="0.5"/>
          </instrument>
          <eldata fwet="0" fcut="14000" ftype="0" fres="0.5">
            <elvol x100="0" userwavefile="" dec="0.5" amt="0" pdel="0" hold="0.5" lamt="0" lpdel="0" lshp="0" lspd_denominator="4" att="0" ctlenvamt="0" lspd="0.1" lspd_syncmode="0" rel="0.1" latt="0" lspd_numerator="4" sustain="0.5"/>
            <elcut x100="0" userwavefile="" dec="0.5" amt="0" pdel="0" hold="0.5" lamt="0" lpdel="0" lshp="0" lspd_denominator="4" att="0" ctlenvamt="0" lspd="0.1" lspd_syncmode="0" rel="0.1" latt="0" lspd_numerator="4" sustain="0.5"/>
            <elres x100="0" userwavefile="" dec="0.5" amt="0" pdel="0" hold="0.5" lamt="0" lpdel="0" lshp="0" lspd_denominator="4" att="0" ctlenvamt="0" lspd="0.1" lspd_syncmode="0" rel="0.1" latt="0" lspd_numerator="4" sustain="0.5"/>
          </eldata>
          <chordcreator chord-enabled="0" chord="0" chordrange="1"/>
          <arpeggiator arprange="1" arpmode="0" arp="0" arptime_numerator="4" arpmiss="0" arptime_denominator="4" arpcycle="0" arpskip="0" arptime_syncmode="0" arpgate="100" arptime="200" arpdir="0" arp-enabled="0"/>
          <midiport fixedoutputnote="-1" outputprogram="1" inputcontroller="0" writable="0" fixedoutputvelocity="-1" readable="0" outputchannel="1" basevelocity="63" outputcontroller="0" fixedinputvelocity="-1" inputchannel="0"/>
          <fxchain numofeffects="0" enabled="0"/>
        </instrumenttrack>
        <pattern name="" steps="16" pos="0" muted="0" type="1">
          <note pos="0" vol="78" len="384" pan="0" key="61"/>
          <note pos="192" vol="78" len="192" pan="0" key="68"/>
          <note pos="384" vol="78" len="384" pan="0" key="64"/>
          <note pos="384" vol="78" len="384" pan="0" key="61"/>
          <note pos="384" vol="78" len="384" pan="0" key="52"/>
          <note pos="768" vol="78" len="384" pan="0" key="63"/>
          <note pos="768" vol="78" len="384" pan="0" key="59"/>
          <note pos="768" vol="78" len="384" pan="0" key="56"/>
          <note pos="1152" vol="78" len="384" pan="0" key="61"/>
          <note pos="1152" vol="78" len="384" pan="0" key="56"/>
          <note pos="1152" vol="78" len="384" pan="0" key="49"/>
          <note pos="1536" vol="78" len="384" pan="0" key="59"/>
          <note pos="1536" vol="78" len="384" pan="0" key="57"/>
          <note pos="1536" vol="78" len="384" pan="0" key="49"/>
          <note pos="1920" vol="78" len="24" pan="0" key="64"/>
          <note pos="1920" vol="78" len="24" pan="0" key="56"/>
          <note pos="1992" vol="78" len="24" pan="0" key="64"/>
          <note pos="1992" vol="78" len="24" pan="0" key="56"/>
          <note pos="2064" vol="78" len="24" pan="0" key="64"/>
          <note pos="2064" vol="78" len="24" pan="0" key="56"/>
          <note pos="2136" vol="78" len="24" pan="0" key="64"/>
          <note pos="2136" vol="78" len="24" pan="0" key="56"/>
          <note pos="2208" vol="78" len="24" pan="0" key="64"/>
          <note pos="2208" vol="78" len="24" pan="0" key="56"/>
          <note pos="2232" vol="78" len="24" pan="0" key="64"/>
          <note pos="2232" vol="78" len="24" pan="0" key="56"/>
          <note pos="2280" vol="78" len="24" pan="0" key="64"/>
          <note pos="2280" vol="78" len="24" pan="0" key="56"/>
          <note pos="2304" vol="78" len="24" pan="0" key="63"/>
          <note pos="2304" vol="78" len="24" pan="0" key="56"/>
          <note pos="2376" vol="78" len="24" pan="0" key="63"/>
          <note pos="2376" vol="78" len="24" pan="0" key="56"/>
          <note pos="2448" vol="78" len="24" pan="0" key="63"/>
          <note pos="2448" vol="78" len="24" pan="0" key="56"/>
          <note pos="2520" vol="78" len="24" pan="0" key="63"/>
          <note pos="2520" vol="78" len="24" pan="0" key="56"/>
          <note pos="2592" vol="78" len="24" pan="0" key="63"/>
          <note pos="2592" vol="78" len="24" pan="0" key="56"/>
          <note pos="2616" vol="78" len="24" pan="0" key="63"/>
          <note pos="2616" vol="78" len="24" pan="0" key="56"/>
          <note pos="2664" vol="78" len="24" pan="0" key="63"/>
          <note pos="2664" vol="78" len="24" pan="0" key="56"/>
          <note pos="2688" vol="78" len="24" pan="0" key="61"/>
          <note pos="2688" vol="78" len="24" pan="0" key="58"/>
          <note pos="2760" vol="78" len="24" pan="0" key="61"/>
          <note pos="2760" vol="78" len="24" pan="0" key="58"/>
          <note pos="2832" vol="78" len="24" pan="0" key="61"/>
          <note pos="2832" vol="78" len="24" pan="0" key="58"/>
          <note pos="2904" vol="78" len="24" pan="0" key="61"/>
          <note pos="2904" vol="78" len="24" pan="0" key="58"/>
          <note pos="2976" vol="78" len="24" pan="0" key="61"/>
          <note pos="2976" vol="78" len="24" pan="0" key="58"/>
          <note pos="3000" vol="78" len="24" pan="0" key="61"/>
          <note pos="3000" vol="78" len="24" pan="0" key="58"/>
          <note pos="3048" vol="78" len="24" pan="0" key="61"/>
          <note pos="3048" vol="78" len="24" pan="0" key="58"/>
          <note pos="3072" vol="78" len="24" pan="0" key="61"/>
          <note pos="3072" vol="78" len="24" pan="0" key="57"/>
          <note pos="3144" vol="78" len="24" pan="0" key="61"/>
          <note pos="3144" vol="78" len="24" pan="0" key="57"/>
          <note pos="3216" vol="78" len="24" pan="0" key="61"/>
          <note pos="3216" vol="78" len="24" pan="0" key="57"/>
          <note pos="3264" vol="78" len="192" pan="0" key="69"/>
          <note pos="3456" vol="78" len="192" pan="0" key="61"/>
          <note pos="3648" vol="78" len="192" pan="0" key="61"/>
          <note pos="3840" vol="78" len="192" pan="0" key="61"/>
          <note pos="4032" vol="78" len="192" pan="0" key="59"/>
          <note pos="4224" vol="78" len="192" pan="0" key="61"/>
          <note pos="4416" vol="78" len="192" pan="0" key="61"/>
          <note pos="4608" vol="78" len="192" pan="0" key="61"/>
          <note pos="4800" vol="78" len="192" pan="0" key="59"/>
        </pattern>
        <pattern name="" steps="16" pos="11136" muted="0" type="1">
          <note pos="0" vol="78" len="384" pan="0" key="59"/>
          <note pos="0" vol="78" len="384" pan="0" key="54"/>
          <note pos="384" vol="78" len="384" pan="0" key="61"/>
          <note pos="384" vol="78" len="384" pan="0" key="56"/>
          <note pos="768" vol="78" len="384" pan="0" key="61"/>
          <note pos="768" vol="78" len="384" pan="0" key="57"/>
          <note pos="1152" vol="78" len="384" pan="0" key="63"/>
          <note pos="1152" vol="78" len="384" pan="0" key="59"/>
          <note pos="1536" vol="78" len="384" pan="0" key="61"/>
          <note pos="1536" vol="78" len="384" pan="0" key="56"/>
          <note pos="1536" vol="78" len="384" pan="0" key="52"/>
          <note pos="1920" vol="78" len="384" pan="0" key="59"/>
          <note pos="1920" vol="78" len="192" pan="0" key="54"/>
          <note pos="1920" vol="78" len="192" pan="0" key="51"/>
          <note pos="2112" vol="78" len="96" pan="0" key="52"/>
          <note pos="2112" vol="78" len="192" pan="0" key="47"/>
          <note pos="2208" vol="78" len="96" pan="0" key="54"/>
          <note pos="2304" vol="78" len="384" pan="0" key="61"/>
          <note pos="2304" vol="78" len="384" pan="0" key="56"/>
          <note pos="2304" vol="78" len="384" pan="0" key="52"/>
          <note pos="2688" vol="78" len="384" pan="0" key="66"/>
          <note pos="2688" vol="78" len="384" pan="0" key="59"/>
          <note pos="2688" vol="78" len="384" pan="0" key="54"/>
          <note pos="3072" vol="78" len="24" pan="0" key="61"/>
          <note pos="3072" vol="78" len="24" pan="0" key="57"/>
          <note pos="3120" vol="78" len="24" pan="0" key="61"/>
          <note pos="3120" vol="78" len="24" pan="0" key="57"/>
          <note pos="3168" vol="78" len="24" pan="0" key="61"/>
          <note pos="3168" vol="78" len="24" pan="0" key="57"/>
          <note pos="3216" vol="78" len="24" pan="0" key="61"/>
          <note pos="3216" vol="78" len="24" pan="0" key="57"/>
          <note pos="3264" vol="78" len="24" pan="0" key="61"/>
          <note pos="3264" vol="78" len="24" pan="0" key="57"/>
          <note pos="3312" vol="78" len="24" pan="0" key="61"/>
          <note pos="3312" vol="78" len="24" pan="0" key="57"/>
          <note pos="3360" vol="78" len="24" pan="0" key="61"/>
          <note pos="3360" vol="78" len="24" pan="0" key="57"/>
          <note pos="3408" vol="78" len="24" pan="0" key="61"/>
          <note pos="3408" vol="78" len="24" pan="0" key="57"/>
          <note pos="3456" vol="78" len="24" pan="0" key="61"/>
          <note pos="3456" vol="78" len="24" pan="0" key="56"/>
          <note pos="3456" vol="78" len="24" pan="0" key="52"/>
          <note pos="3504" vol="78" len="24" pan="0" key="61"/>
          <note pos="3504" vol="78" len="24" pan="0" key="56"/>
          <note pos="3504" vol="78" len="24" pan="0" key="52"/>
          <note pos="3552" vol="78" len="24" pan="0" key="61"/>
          <note pos="3552" vol="78" len="24" pan="0" key="56"/>
          <note pos="3552" vol="78" len="24" pan="0" key="52"/>
          <note pos="3600" vol="78" len="24" pan="0" key="61"/>
          <note pos="3600" vol="78" len="24" pan="0" key="56"/>
          <note pos="3600" vol="78" len="24" pan="0" key="52"/>
          <note pos="3648" vol="78" len="24" pan="0" key="61"/>
          <note pos="3648" vol="78" len="24" pan="0" key="56"/>
          <note pos="3648" vol="78" len="24" pan="0" key="51"/>
          <note pos="3696" vol="78" len="24" pan="0" key="61"/>
          <note pos="3696" vol="78" len="24" pan="0" key="56"/>
          <note pos="3696" vol="78" len="24" pan="0" key="51"/>
          <note pos="3744" vol="78" len="24" pan="0" key="61"/>
          <note pos="3744" vol="78" len="24" pan="0" key="56"/>
          <note pos="3744" vol="78" len="24" pan="0" key="51"/>
          <note pos="3792" vol="78" len="24" pan="0" key="61"/>
          <note pos="3792" vol="78" len="24" pan="0" key="56"/>
          <note pos="3792" vol="78" len="24" pan="0" key="51"/>
        </pattern>
        <pattern name="" steps="16" pos="18816" muted="0" type="1">
          <note pos="0" vol="78" len="384" pan="0" key="59"/>
          <note pos="0" vol="78" len="384" pan="0" key="54"/>
          <note pos="384" vol="78" len="384" pan="0" key="61"/>
          <note pos="384" vol="78" len="384" pan="0" key="56"/>
          <note pos="768" vol="78" len="384" pan="0" key="61"/>
          <note pos="768" vol="78" len="384" pan="0" key="57"/>
          <note pos="1152" vol="78" len="384" pan="0" key="63"/>
          <note pos="1152" vol="78" len="384" pan="0" key="59"/>
          <note pos="1536" vol="78" len="384" pan="0" key="59"/>
          <note pos="1536" vol="78" len="384" pan="0" key="54"/>
          <note pos="1920" vol="78" len="384" pan="0" key="61"/>
          <note pos="1920" vol="78" len="384" pan="0" key="56"/>
          <note pos="2304" vol="78" len="384" pan="0" key="61"/>
          <note pos="2304" vol="78" len="384" pan="0" key="57"/>
          <note pos="2688" vol="78" len="384" pan="0" key="63"/>
          <note pos="2688" vol="78" len="384" pan="0" key="59"/>
          <note pos="3072" vol="78" len="192" pan="0" key="56"/>
          <note pos="3072" vol="78" len="192" pan="0" key="52"/>
          <note pos="3264" vol="78" len="192" pan="0" key="54"/>
          <note pos="3264" vol="78" len="192" pan="0" key="51"/>
          <note pos="3456" vol="78" len="384" pan="0" key="56"/>
          <note pos="3456" vol="78" len="384" pan="0" key="52"/>
          <note pos="3456" vol="78" len="384" pan="0" key="49"/>
          <note pos="3840" vol="78" len="192" pan="0" key="56"/>
          <note pos="3840" vol="78" len="192" pan="0" key="49"/>
          <note pos="3840" vol="78" len="192" pan="0" key="47"/>
          <note pos="4032" vol="78" len="192" pan="0" key="54"/>
          <note pos="4032" vol="78" len="192" pan="0" key="51"/>
          <note pos="4032" vol="78" len="192" pan="0" key="47"/>
          <note pos="4224" vol="78" len="384" pan="0" key="49"/>
          <note pos="4224" vol="78" len="192" pan="0" key="47"/>
          <note pos="4224" vol="78" len="384" pan="0" key="44"/>
          <note pos="4608" vol="78" len="192" pan="0" key="56"/>
          <note pos="4608" vol="78" len="192" pan="0" key="47"/>
          <note pos="4800" vol="78" len="192" pan="0" key="57"/>
          <note pos="4800" vol="78" len="192" pan="0" key="49"/>
          <note pos="4992" vol="78" len="192" pan="0" key="59"/>
          <note pos="4992" vol="78" len="192" pan="0" key="52"/>
          <note pos="5184" vol="78" len="192" pan="0" key="64"/>
          <note pos="5184" vol="78" len="192" pan="0" key="56"/>
          <note pos="5376" vol="78" len="384" pan="0" key="61"/>
          <note pos="5376" vol="78" len="384" pan="0" key="54"/>
          <note pos="5760" vol="78" len="384" pan="0" key="61"/>
          <note pos="5760" vol="78" len="384" pan="0" key="52"/>
          <note pos="6144" vol="78" len="192" pan="0" key="68"/>
          <note pos="6144" vol="78" len="192" pan="0" key="64"/>
          <note pos="6336" vol="78" len="192" pan="0" key="66"/>
          <note pos="6336" vol="78" len="192" pan="0" key="63"/>
          <note pos="6528" vol="78" len="384" pan="0" key="68"/>
          <note pos="6528" vol="78" len="384" pan="0" key="64"/>
          <note pos="6528" vol="78" len="384" pan="0" key="61"/>
          <note pos="6912" vol="78" len="192" pan="0" key="68"/>
          <note pos="6912" vol="78" len="192" pan="0" key="61"/>
          <note pos="6912" vol="78" len="192" pan="0" key="59"/>
          <note pos="7104" vol="78" len="192" pan="0" key="66"/>
          <note pos="7104" vol="78" len="192" pan="0" key="63"/>
          <note pos="7104" vol="78" len="192" pan="0" key="59"/>
          <note pos="7296" vol="78" len="384" pan="0" key="61"/>
          <note pos="7296" vol="78" len="384" pan="0" key="58"/>
          <note pos="7296" vol="78" len="384" pan="0" key="56"/>
          <note pos="7680" vol="78" len="192" pan="0" key="68"/>
          <note pos="7680" vol="78" len="192" pan="0" key="59"/>
          <note pos="7872" vol="78" len="192" pan="0" key="69"/>
          <note pos="7872" vol="78" len="192" pan="0" key="61"/>
          <note pos="8064" vol="78" len="192" pan="0" key="71"/>
          <note pos="8064" vol="78" len="192" pan="0" key="64"/>
          <note pos="8256" vol="78" len="192" pan="0" key="76"/>
          <note pos="8256" vol="78" len="192" pan="0" key="68"/>
          <note pos="8448" vol="78" len="384" pan="0" key="73"/>
          <note pos="8448" vol="78" len="384" pan="0" key="66"/>
          <note pos="8832" vol="78" len="384" pan="0" key="73"/>
          <note pos="8832" vol="78" len="384" pan="0" key="64"/>
          <note pos="9216" vol="78" len="384" pan="0" key="68"/>
          <note pos="9216" vol="78" len="384" pan="0" key="61"/>
          <note pos="9216" vol="78" len="48" pan="0" key="49"/>
          <note pos="9264" vol="78" len="48" pan="0" key="45"/>
          <note pos="9312" vol="78" len="48" pan="0" key="47"/>
          <note pos="9360" vol="78" len="48" pan="0" key="49"/>
          <note pos="9408" vol="78" len="48" pan="0" key="51"/>
          <note pos="9456" vol="78" len="48" pan="0" key="52"/>
          <note pos="9504" vol="78" len="48" pan="0" key="51"/>
          <note pos="9552" vol="78" len="48" pan="0" key="47"/>
          <note pos="9600" vol="78" len="384" pan="0" key="68"/>
          <note pos="9600" vol="78" len="384" pan="0" key="61"/>
          <note pos="9600" vol="78" len="48" pan="0" key="49"/>
          <note pos="9648" vol="78" len="48" pan="0" key="47"/>
          <note pos="9696" vol="78" len="48" pan="0" key="49"/>
          <note pos="9744" vol="78" len="48" pan="0" key="51"/>
          <note pos="9792" vol="78" len="192" pan="0" key="56"/>
          <note pos="9984" vol="78" len="192" pan="0" key="56"/>
          <note pos="9984" vol="78" len="192" pan="0" key="52"/>
          <note pos="10176" vol="78" len="192" pan="0" key="57"/>
          <note pos="10176" vol="78" len="192" pan="0" key="54"/>
          <note pos="10368" vol="78" len="192" pan="0" key="59"/>
          <note pos="10368" vol="78" len="192" pan="0" key="56"/>
          <note pos="10560" vol="78" len="192" pan="0" key="54"/>
          <note pos="10560" vol="78" len="192" pan="0" key="49"/>
          <note pos="10752" vol="78" len="192" pan="0" key="56"/>
          <note pos="10752" vol="78" len="192" pan="0" key="52"/>
          <note pos="10944" vol="78" len="192" pan="0" key="57"/>
          <note pos="10944" vol="78" len="192" pan="0" key="54"/>
          <note pos="11136" vol="78" len="192" pan="0" key="59"/>
          <note pos="11136" vol="78" len="192" pan="0" key="56"/>
          <note pos="11328" vol="78" len="192" pan="0" key="54"/>
          <note pos="11328" vol="78" len="192" pan="0" key="51"/>
          <note pos="11520" vol="78" len="192" pan="0" key="54"/>
          <note pos="11520" vol="78" len="192" pan="0" key="49"/>
          <note pos="11712" vol="78" len="192" pan="0" key="61"/>
          <note pos="11712" vol="78" len="192" pan="0" key="56"/>
          <note pos="11904" vol="78" len="192" pan="0" key="59"/>
          <note pos="11904" vol="78" len="192" pan="0" key="54"/>
          <note pos="12096" vol="78" len="192" pan="0" key="57"/>
          <note pos="12096" vol="78" len="192" pan="0" key="52"/>
          <note pos="12288" vol="78" len="384" pan="0" key="56"/>
          <note pos="12288" vol="78" len="384" pan="0" key="51"/>
          <note pos="12672" vol="78" len="384" pan="0" key="56"/>
          <note pos="12672" vol="78" len="384" pan="0" key="47"/>
          <note pos="13056" vol="78" len="192" pan="0" key="56"/>
          <note pos="13056" vol="78" len="192" pan="0" key="52"/>
          <note pos="13248" vol="78" len="192" pan="0" key="57"/>
          <note pos="13248" vol="78" len="192" pan="0" key="54"/>
          <note pos="13440" vol="78" len="192" pan="0" key="59"/>
          <note pos="13440" vol="78" len="192" pan="0" key="56"/>
          <note pos="13632" vol="78" len="192" pan="0" key="54"/>
          <note pos="13632" vol="78" len="192" pan="0" key="49"/>
          <note pos="13824" vol="78" len="192" pan="0" key="56"/>
          <note pos="13824" vol="78" len="192" pan="0" key="52"/>
          <note pos="14016" vol="78" len="192" pan="0" key="57"/>
          <note pos="14016" vol="78" len="192" pan="0" key="54"/>
          <note pos="14208" vol="78" len="192" pan="0" key="59"/>
          <note pos="14208" vol="78" len="192" pan="0" key="56"/>
          <note pos="14400" vol="78" len="192" pan="0" key="54"/>
          <note pos="14400" vol="78" len="192" pan="0" key="51"/>
          <note pos="14592" vol="78" len="192" pan="0" key="54"/>
          <note pos="14592" vol="78" len="192" pan="0" key="49"/>
          <note pos="14784" vol="78" len="192" pan="0" key="61"/>
          <note pos="14784" vol="78" len="192" pan="0" key="56"/>
          <note pos="14976" vol="78" len="192" pan="0" key="59"/>
          <note pos="14976" vol="78" len="192" pan="0" key="54"/>
          <note pos="15168" vol="78" len="192" pan="0" key="57"/>
          <note pos="15168" vol="78" len="192" pan="0" key="52"/>
          <note pos="15360" vol="78" len="384" pan="0" key="56"/>
          <note pos="15360" vol="78" len="384" pan="0" key="51"/>
          <note pos="15744" vol="78" len="192" pan="0" key="56"/>
          <note pos="15744" vol="78" len="192" pan="0" key="47"/>
          <note pos="16128" vol="78" len="192" pan="0" key="61"/>
          <note pos="16320" vol="78" len="192" pan="0" key="61"/>
          <note pos="16512" vol="78" len="192" pan="0" key="61"/>
          <note pos="16704" vol="78" len="192" pan="0" key="59"/>
          <note pos="16896" vol="78" len="192" pan="0" key="61"/>
          <note pos="17088" vol="78" len="192" pan="0" key="61"/>
          <note pos="17280" vol="78" len="192" pan="0" key="61"/>
          <note pos="17472" vol="78" len="192" pan="0" key="59"/>
        </pattern>
        <pattern name="" steps="16" pos="42624" muted="0" type="1">
          <note pos="0" vol="78" len="384" pan="0" key="59"/>
          <note pos="0" vol="78" len="384" pan="0" key="54"/>
          <note pos="384" vol="78" len="384" pan="0" key="61"/>
          <note pos="384" vol="78" len="384" pan="0" key="56"/>
          <note pos="768" vol="78" len="384" pan="0" key="61"/>
          <note pos="768" vol="78" len="384" pan="0" key="57"/>
          <note pos="1152" vol="78" len="384" pan="0" key="63"/>
          <note pos="1152" vol="78" len="384" pan="0" key="59"/>
          <note pos="1536" vol="78" len="384" pan="0" key="61"/>
          <note pos="1536" vol="78" len="384" pan="0" key="56"/>
          <note pos="1536" vol="78" len="384" pan="0" key="52"/>
          <note pos="1920" vol="78" len="384" pan="0" key="59"/>
          <note pos="1920" vol="78" len="192" pan="0" key="54"/>
          <note pos="1920" vol="78" len="192" pan="0" key="51"/>
          <note pos="2112" vol="78" len="96" pan="0" key="52"/>
          <note pos="2112" vol="78" len="192" pan="0" key="47"/>
          <note pos="2208" vol="78" len="96" pan="0" key="54"/>
          <note pos="2304" vol="78" len="384" pan="0" key="61"/>
          <note pos="2304" vol="78" len="384" pan="0" key="56"/>
          <note pos="2304" vol="78" len="384" pan="0" key="52"/>
          <note pos="2688" vol="78" len="384" pan="0" key="66"/>
          <note pos="2688" vol="78" len="384" pan="0" key="59"/>
          <note pos="2688" vol="78" len="384" pan="0" key="54"/>
          <note pos="3072" vol="78" len="24" pan="0" key="61"/>
          <note pos="3072" vol="78" len="24" pan="0" key="57"/>
          <note pos="3120" vol="78" len="24" pan="0" key="61"/>
          <note pos="3120" vol="78" len="24" pan="0" key="57"/>
          <note pos="3168" vol="78" len="24" pan="0" key="61"/>
          <note pos="3168" vol="78" len="24" pan="0" key="57"/>
          <note pos="3216" vol="78" len="24" pan="0" key="61"/>
          <note pos="3216" vol="78" len="24" pan="0" key="57"/>
          <note pos="3264" vol="78" len="24" pan="0" key="61"/>
          <note pos="3264" vol="78" len="24" pan="0" key="57"/>
          <note pos="3312" vol="78" len="24" pan="0" key="61"/>
          <note pos="3312" vol="78" len="24" pan="0" key="57"/>
          <note pos="3360" vol="78" len="24" pan="0" key="61"/>
          <note pos="3360" vol="78" len="24" pan="0" key="57"/>
          <note pos="3408" vol="78" len="24" pan="0" key="61"/>
          <note pos="3408" vol="78" len="24" pan="0" key="57"/>
          <note pos="3456" vol="78" len="24" pan="0" key="61"/>
          <note pos="3456" vol="78" len="24" pan="0" key="56"/>
          <note pos="3456" vol="78" len="24" pan="0" key="52"/>
          <note pos="3504" vol="78" len="24" pan="0" key="61"/>
          <note pos="3504" vol="78" len="24" pan="0" key="56"/>
          <note pos="3504" vol="78" len="24" pan="0" key="52"/>
          <note pos="3552" vol="78" len="24" pan="0" key="61"/>
          <note pos="3552" vol="78" len="24" pan="0" key="56"/>
          <note pos="3552" vol="78" len="24" pan="0" key="52"/>
          <note pos="3600" vol="78" len="24" pan="0" key="61"/>
          <note pos="3600" vol="78" len="24" pan="0" key="56"/>
          <note pos="3600" vol="78" len="24" pan="0" key="52"/>
          <note pos="3648" vol="78" len="24" pan="0" key="61"/>
          <note pos="3648" vol="78" len="24" pan="0" key="56"/>
          <note pos="3648" vol="78" len="24" pan="0" key="51"/>
          <note pos="3696" vol="78" len="24" pan="0" key="61"/>
          <note pos="3696" vol="78" len="24" pan="0" key="56"/>
          <note pos="3696" vol="78" len="24" pan="0" key="51"/>
          <note pos="3744" vol="78" len="24" pan="0" key="61"/>
          <note pos="3744" vol="78" len="24" pan="0" key="56"/>
          <note pos="3744" vol="78" len="24" pan="0" key="51"/>
          <note pos="3792" vol="78" len="24" pan="0" key="61"/>
          <note pos="3792" vol="78" len="24" pan="0" key="56"/>
          <note pos="3792" vol="78" len="24" pan="0" key="51"/>
        </pattern>
        <pattern name="" steps="16" pos="50304" muted="0" type="1">
          <note pos="0" vol="78" len="384" pan="0" key="59"/>
          <note pos="0" vol="78" len="384" pan="0" key="54"/>
          <note pos="384" vol="78" len="384" pan="0" key="61"/>
          <note pos="384" vol="78" len="384" pan="0" key="56"/>
          <note pos="768" vol="78" len="384" pan="0" key="61"/>
          <note pos="768" vol="78" len="384" pan="0" key="57"/>
          <note pos="1152" vol="78" len="384" pan="0" key="63"/>
          <note pos="1152" vol="78" len="384" pan="0" key="59"/>
          <note pos="1536" vol="78" len="384" pan="0" key="59"/>
          <note pos="1536" vol="78" len="384" pan="0" key="54"/>
          <note pos="1920" vol="78" len="384" pan="0" key="61"/>
          <note pos="1920" vol="78" len="384" pan="0" key="56"/>
          <note pos="2304" vol="78" len="384" pan="0" key="61"/>
          <note pos="2304" vol="78" len="384" pan="0" key="57"/>
          <note pos="2688" vol="78" len="384" pan="0" key="63"/>
          <note pos="2688" vol="78" len="384" pan="0" key="59"/>
          <note pos="3072" vol="78" len="192" pan="0" key="56"/>
          <note pos="3072" vol="78" len="192" pan="0" key="52"/>
          <note pos="3264" vol="78" len="192" pan="0" key="54"/>
          <note pos="3264" vol="78" len="192" pan="0" key="51"/>
          <note pos="3456" vol="78" len="384" pan="0" key="56"/>
          <note pos="3456" vol="78" len="384" pan="0" key="52"/>
          <note pos="3456" vol="78" len="384" pan="0" key="49"/>
          <note pos="3840" vol="78" len="192" pan="0" key="56"/>
          <note pos="3840" vol="78" len="192" pan="0" key="49"/>
          <note pos="3840" vol="78" len="192" pan="0" key="47"/>
          <note pos="4032" vol="78" len="192" pan="0" key="54"/>
          <note pos="4032" vol="78" len="192" pan="0" key="51"/>
          <note pos="4032" vol="78" len="192" pan="0" key="47"/>
          <note pos="4224" vol="78" len="384" pan="0" key="49"/>
          <note pos="4224" vol="78" len="192" pan="0" key="47"/>
          <note pos="4224" vol="78" len="384" pan="0" key="44"/>
          <note pos="4608" vol="78" len="192" pan="0" key="56"/>
          <note pos="4608" vol="78" len="192" pan="0" key="47"/>
          <note pos="4800" vol="78" len="192" pan="0" key="57"/>
          <note pos="4800" vol="78" len="192" pan="0" key="49"/>
          <note pos="4992" vol="78" len="192" pan="0" key="59"/>
          <note pos="4992" vol="78" len="192" pan="0" key="52"/>
          <note pos="5184" vol="78" len="192" pan="0" key="64"/>
          <note pos="5184" vol="78" len="192" pan="0" key="56"/>
          <note pos="5376" vol="78" len="384" pan="0" key="61"/>
          <note pos="5376" vol="78" len="384" pan="0" key="54"/>
          <note pos="5760" vol="78" len="384" pan="0" key="61"/>
          <note pos="5760" vol="78" len="384" pan="0" key="52"/>
          <note pos="6144" vol="78" len="192" pan="0" key="68"/>
          <note pos="6144" vol="78" len="192" pan="0" key="64"/>
          <note pos="6336" vol="78" len="192" pan="0" key="66"/>
          <note pos="6336" vol="78" len="192" pan="0" key="63"/>
          <note pos="6528" vol="78" len="384" pan="0" key="68"/>
          <note pos="6528" vol="78" len="384" pan="0" key="64"/>
          <note pos="6528" vol="78" len="384" pan="0" key="61"/>
          <note pos="6912" vol="78" len="192" pan="0" key="68"/>
          <note pos="6912" vol="78" len="192" pan="0" key="61"/>
          <note pos="6912" vol="78" len="192" pan="0" key="59"/>
          <note pos="7104" vol="78" len="192" pan="0" key="66"/>
          <note pos="7104" vol="78" len="192" pan="0" key="63"/>
          <note pos="7104" vol="78" len="192" pan="0" key="59"/>
          <note pos="7296" vol="78" len="384" pan="0" key="61"/>
          <note pos="7296" vol="78" len="384" pan="0" key="58"/>
          <note pos="7296" vol="78" len="384" pan="0" key="56"/>
          <note pos="7680" vol="78" len="192" pan="0" key="68"/>
          <note pos="7680" vol="78" len="192" pan="0" key="59"/>
          <note pos="7872" vol="78" len="192" pan="0" key="69"/>
          <note pos="7872" vol="78" len="192" pan="0" key="61"/>
          <note pos="8064" vol="78" len="192" pan="0" key="71"/>
          <note pos="8064" vol="78" len="192" pan="0" key="64"/>
          <note pos="8256" vol="78" len="192" pan="0" key="76"/>
          <note pos="8256" vol="78" len="192" pan="0" key="68"/>
          <note pos="8448" vol="78" len="384" pan="0" key="73"/>
          <note pos="8448" vol="78" len="384" pan="0" key="66"/>
          <note pos="8832" vol="78" len="384" pan="0" key="73"/>
          <note pos="8832" vol="78" len="384" pan="0" key="64"/>
          <note pos="9216" vol="78" len="384" pan="0" key="68"/>
          <note pos="9216" vol="78" len="384" pan="0" key="61"/>
          <note pos="9216" vol="78" len="48" pan="0" key="49"/>
          <note pos="9264" vol="78" len="48" pan="0" key="45"/>
          <note pos="9312" vol="78" len="48" pan="0" key="47"/>
          <note pos="9360" vol="78" len="48" pan="0" key="49"/>
          <note pos="9408" vol="78" len="48" pan="0" key="51"/>
          <note pos="9456" vol="78" len="48" pan="0" key="52"/>
          <note pos="9504" vol="78" len="48" pan="0" key="51"/>
          <note pos="9552" vol="78" len="48" pan="0" key="47"/>
          <note pos="9600" vol="78" len="384" pan="0" key="68"/>
          <note pos="9600" vol="78" len="384" pan="0" key="61"/>
          <note pos="9600" vol="78" len="48" pan="0" key="49"/>
          <note pos="9648" vol="78" len="48" pan="0" key="47"/>
          <note pos="9696" vol="78" len="48" pan="0" key="49"/>
          <note pos="9744" vol="78" len="48" pan="0" key="51"/>
          <note pos="9792" vol="78" len="192" pan="0" key="56"/>
          <note pos="9984" vol="78" len="192" pan="0" key="56"/>
          <note pos="9984" vol="78" len="192" pan="0" key="52"/>
          <note pos="10176" vol="78" len="192" pan="0" key="57"/>
          <note pos="10176" vol="78" len="192" pan="0" key="54"/>
          <note pos="10368" vol="78" len="192" pan="0" key="59"/>
          <note pos="10368" vol="78" len="192" pan="0" key="56"/>
          <note pos="10560" vol="78" len="192" pan="0" key="54"/>
          <note pos="10560" vol="78" len="192" pan="0" key="49"/>
          <note pos="10752" vol="78" len="192" pan="0" key="56"/>
          <note pos="10752" vol="78" len="192" pan="0" key="52"/>
          <note pos="10944" vol="78" len="192" pan="0" key="57"/>
          <note pos="10944" vol="78" len="192" pan="0" key="54"/>
          <note pos="11136" vol="78" len="192" pan="0" key="59"/>
          <note pos="11136" vol="78" len="192" pan="0" key="56"/>
          <note pos="11328" vol="78" len="192" pan="0" key="54"/>
          <note pos="11328" vol="78" len="192" pan="0" key="51"/>
          <note pos="11520" vol="78" len="192" pan="0" key="54"/>
          <note pos="11520" vol="78" len="192" pan="0" key="49"/>
          <note pos="11712" vol="78" len="192" pan="0" key="61"/>
          <note pos="11712" vol="78" len="192" pan="0" key="56"/>
          <note pos="11904" vol="78" len="192" pan="0" key="59"/>
          <note pos="11904" vol="78" len="192" pan="0" key="54"/>
          <note pos="12096" vol="78" len="192" pan="0" key="57"/>
          <note pos="12096" vol="78" len="192" pan="0" key="52"/>
          <note pos="12288" vol="78" len="384" pan="0" key="56"/>
          <note pos="12288" vol="78" len="384" pan="0" key="51"/>
          <note pos="12672" vol="78" len="384" pan="0" key="56"/>
          <note pos="12672" vol="78" len="384" pan="0" key="47"/>
          <note pos="13056" vol="78" len="192" pan="0" key="56"/>
          <note pos="13056" vol="78" len="192" pan="0" key="52"/>
          <note pos="13248" vol="78" len="192" pan="0" key="57"/>
          <note pos="13248" vol="78" len="192" pan="0" key="54"/>
          <note pos="13440" vol="78" len="192" pan="0" key="59"/>
          <note pos="13440" vol="78" len="192" pan="0" key="56"/>
          <note pos="13632" vol="78" len="192" pan="0" key="54"/>
          <note pos="13632" vol="78" len="192" pan="0" key="49"/>
          <note pos="13824" vol="78" len="192" pan="0" key="56"/>
          <note pos="13824" vol="78" len="192" pan="0" key="52"/>
          <note pos="14016" vol="78" len="192" pan="0" key="57"/>
          <note pos="14016" vol="78" len="192" pan="0" key="54"/>
          <note pos="14208" vol="78" len="192" pan="0" key="59"/>
          <note pos="14208" vol="78" len="192" pan="0" key="56"/>
          <note pos="14400" vol="78" len="192" pan="0" key="54"/>
          <note pos="14400" vol="78" len="192" pan="0" key="51"/>
          <note pos="14592" vol="78" len="192" pan="0" key="54"/>
          <note pos="14592" vol="78" len="192" pan="0" key="49"/>
          <note pos="14784" vol="78" len="192" pan="0" key="61"/>
          <note pos="14784" vol="78" len="192" pan="0" key="56"/>
          <note pos="14976" vol="78" len="192" pan="0" key="59"/>
          <note pos="14976" vol="78" len="192" pan="0" key="54"/>
          <note pos="15168" vol="78" len="192" pan="0" key="57"/>
          <note pos="15168" vol="78" len="192" pan="0" key="52"/>
          <note pos="15360" vol="78" len="384" pan="0" key="56"/>
          <note pos="15360" vol="78" len="384" pan="0" key="51"/>
          <note pos="15744" vol="78" len="192" pan="0" key="56"/>
          <note pos="15744" vol="78" len="192" pan="0" key="47"/>
          <note pos="16128" vol="78" len="192" pan="0" key="61"/>
          <note pos="16320" vol="78" len="192" pan="0" key="61"/>
          <note pos="16512" vol="78" len="192" pan="0" key="61"/>
          <note pos="16704" vol="78" len="192" pan="0" key="59"/>
          <note pos="16896" vol="78" len="192" pan="0" key="61"/>
          <note pos="17088" vol="78" len="192" pan="0" key="61"/>
          <note pos="17280" vol="78" len="192" pan="0" key="61"/>
          <note pos="17472" vol="78" len="192" pan="0" key="59"/>
          <note pos="17664" vol="78" len="384" pan="0" key="73"/>
          <note pos="17664" vol="78" len="384" pan="0" key="61"/>
          <note pos="18048" vol="78" len="384" pan="0" key="73"/>
          <note pos="18048" vol="78" len="384" pan="0" key="61"/>
          <note pos="18432" vol="78" len="48" pan="0" key="73"/>
          <note pos="18432" vol="78" len="48" pan="0" key="61"/>
        </pattern>
        <pattern name="" steps="16" pos="7296" muted="0" type="1">
          <note pos="0" vol="87" len="24" pan="0" key="69"/>
          <note pos="24" vol="87" len="24" pan="0" key="66"/>
          <note pos="48" vol="87" len="24" pan="0" key="69"/>
          <note pos="72" vol="87" len="24" pan="0" key="73"/>
          <note pos="96" vol="87" len="48" pan="0" key="76"/>
          <note pos="144" vol="87" len="24" pan="0" key="75"/>
          <note pos="168" vol="87" len="24" pan="0" key="73"/>
          <note pos="192" vol="87" len="24" pan="0" key="80"/>
          <note pos="216" vol="87" len="24" pan="0" key="78"/>
          <note pos="240" vol="87" len="24" pan="0" key="76"/>
          <note pos="264" vol="87" len="24" pan="0" key="75"/>
          <note pos="288" vol="87" len="24" pan="0" key="73"/>
          <note pos="312" vol="87" len="24" pan="0" key="75"/>
          <note pos="336" vol="87" len="24" pan="0" key="76"/>
          <note pos="360" vol="87" len="24" pan="0" key="80"/>
          <note pos="384" vol="87" len="48" pan="0" key="82"/>
          <note pos="432" vol="87" len="48" pan="0" key="78"/>
          <note pos="480" vol="87" len="48" pan="0" key="75"/>
          <note pos="528" vol="87" len="48" pan="0" key="70"/>
          <note pos="576" vol="87" len="24" pan="0" key="68"/>
          <note pos="600" vol="87" len="24" pan="0" key="72"/>
          <note pos="624" vol="87" len="24" pan="0" key="75"/>
          <note pos="648" vol="87" len="24" pan="0" key="78"/>
          <note pos="672" vol="87" len="24" pan="0" key="81"/>
          <note pos="696" vol="87" len="24" pan="0" key="84"/>
          <note pos="720" vol="87" len="24" pan="0" key="87"/>
          <note pos="744" vol="87" len="24" pan="0" key="90"/>
        </pattern>
      </track>
      <track name="Mystery Dungeon" solo="0" muted="1" type="0">
        <instrumenttrack basenote="57" fxch="0" usemasterpitch="1" pitch="0" vol="100" pan="0" pitchrange="2">
          <instrument name="sf2player">
            <sf2player reverbRoomSize="0.2" src="/home/pass/samples/soundfonts/Mystery Dungeon.sf2" chorusOn="0" chorusDepth="8" gain="1" reverbDamping="0" chorusNum="3" chorusLevel="2" bank="0" reverbLevel="0.9" patch="14" reverbOn="0" chorusSpeed="0.3" reverbWidth="0.5"/>
          </instrument>
          <eldata fwet="0" fcut="14000" ftype="0" fres="0.5">
            <elvol x100="0" userwavefile="" dec="0.5" amt="0" pdel="0" hold="0.5" lamt="0" lpdel="0" lshp="0" lspd_denominator="4" att="0" ctlenvamt="0" lspd="0.1" lspd_syncmode="0" rel="0.1" latt="0" lspd_numerator="4" sustain="0.5"/>
            <elcut x100="0" userwavefile="" dec="0.5" amt="0" pdel="0" hold="0.5" lamt="0" lpdel="0" lshp="0" lspd_denominator="4" att="0" ctlenvamt="0" lspd="0.1" lspd_syncmode="0" rel="0.1" latt="0" lspd_numerator="4" sustain="0.5"/>
            <elres x100="0" userwavefile="" dec="0.5" amt="0" pdel="0" hold="0.5" lamt="0" lpdel="0" lshp="0" lspd_denominator="4" att="0" ctlenvamt="0" lspd="0.1" lspd_syncmode="0" rel="0.1" latt="0" lspd_numerator="4" sustain="0.5"/>
          </eldata>
          <chordcreator chord-enabled="0" chord="0" chordrange="1"/>
          <arpeggiator arprange="1" arpmode="0" arp="0" arptime_numerator="4" arpmiss="0" arptime_denominator="4" arpcycle="0" arpskip="0" arptime_syncmode="0" arpgate="100" arptime="200" arpdir="0" arp-enabled="0"/>
          <midiport fixedoutputnote="-1" outputprogram="1" inputcontroller="0" writable="0" fixedoutputvelocity="-1" readable="0" outputchannel="1" basevelocity="63" outputcontroller="0" fixedinputvelocity="-1" inputchannel="0"/>
          <fxchain numofeffects="0" enabled="0"/>
        </instrumenttrack>
        <pattern name="Sf2 Player" steps="16" pos="24960" muted="0" type="1">
          <note pos="0" vol="78" len="24" pan="0" key="73"/>
          <note pos="24" vol="78" len="24" pan="0" key="69"/>
          <note pos="48" vol="78" len="24" pan="0" key="64"/>
          <note pos="72" vol="78" len="24" pan="0" key="61"/>
          <note pos="96" vol="78" len="24" pan="0" key="69"/>
          <note pos="120" vol="78" len="24" pan="0" key="64"/>
          <note pos="144" vol="78" len="24" pan="0" key="61"/>
          <note pos="168" vol="78" len="24" pan="0" key="57"/>
          <note pos="192" vol="78" len="24" pan="0" key="71"/>
          <note pos="216" vol="78" len="24" pan="0" key="68"/>
          <note pos="240" vol="78" len="24" pan="0" key="63"/>
          <note pos="264" vol="78" len="24" pan="0" key="59"/>
          <note pos="288" vol="78" len="24" pan="0" key="71"/>
          <note pos="312" vol="78" len="24" pan="0" key="68"/>
          <note pos="336" vol="78" len="24" pan="0" key="63"/>
          <note pos="360" vol="78" len="24" pan="0" key="59"/>
          <note pos="384" vol="78" len="24" pan="0" key="73"/>
          <note pos="408" vol="78" len="24" pan="0" key="68"/>
          <note pos="432" vol="78" len="24" pan="0" key="64"/>
          <note pos="456" vol="78" len="24" pan="0" key="61"/>
          <note pos="480" vol="78" len="24" pan="0" key="68"/>
          <note pos="504" vol="78" len="24" pan="0" key="64"/>
          <note pos="528" vol="78" len="24" pan="0" key="61"/>
          <note pos="552" vol="78" len="24" pan="0" key="56"/>
          <note pos="576" vol="78" len="24" pan="0" key="73"/>
          <note pos="600" vol="78" len="24" pan="0" key="68"/>
          <note pos="624" vol="78" len="24" pan="0" key="64"/>
          <note pos="648" vol="78" len="24" pan="0" key="61"/>
          <note pos="672" vol="78" len="24" pan="0" key="68"/>
          <note pos="696" vol="78" len="24" pan="0" key="64"/>
          <note pos="720" vol="78" len="24" pan="0" key="61"/>
          <note pos="744" vol="78" len="24" pan="0" key="56"/>
          <note pos="768" vol="78" len="24" pan="0" key="73"/>
          <note pos="792" vol="78" len="24" pan="0" key="68"/>
          <note pos="816" vol="78" len="24" pan="0" key="66"/>
          <note pos="840" vol="78" len="24" pan="0" key="61"/>
          <note pos="864" vol="78" len="24" pan="0" key="68"/>
          <note pos="888" vol="78" len="24" pan="0" key="66"/>
          <note pos="912" vol="78" len="24" pan="0" key="61"/>
          <note pos="936" vol="78" len="24" pan="0" key="59"/>
          <note pos="960" vol="78" len="24" pan="0" key="73"/>
          <note pos="984" vol="78" len="24" pan="0" key="68"/>
          <note pos="1008" vol="78" len="24" pan="0" key="66"/>
          <note pos="1032" vol="78" len="24" pan="0" key="61"/>
          <note pos="1056" vol="78" len="24" pan="0" key="68"/>
          <note pos="1080" vol="78" len="24" pan="0" key="66"/>
          <note pos="1104" vol="78" len="24" pan="0" key="61"/>
          <note pos="1128" vol="78" len="24" pan="0" key="57"/>
          <note pos="1152" vol="78" len="24" pan="0" key="73"/>
          <note pos="1176" vol="78" len="24" pan="0" key="70"/>
          <note pos="1200" vol="78" len="24" pan="0" key="66"/>
          <note pos="1224" vol="78" len="24" pan="0" key="61"/>
          <note pos="1248" vol="78" len="24" pan="0" key="70"/>
          <note pos="1272" vol="78" len="24" pan="0" key="66"/>
          <note pos="1296" vol="78" len="24" pan="0" key="61"/>
          <note pos="1320" vol="78" len="24" pan="0" key="58"/>
          <note pos="1344" vol="78" len="24" pan="0" key="73"/>
          <note pos="1368" vol="78" len="24" pan="0" key="70"/>
          <note pos="1392" vol="78" len="24" pan="0" key="66"/>
          <note pos="1416" vol="78" len="24" pan="0" key="61"/>
          <note pos="1440" vol="78" len="24" pan="0" key="70"/>
          <note pos="1464" vol="78" len="24" pan="0" key="66"/>
          <note pos="1488" vol="78" len="24" pan="0" key="61"/>
          <note pos="1512" vol="78" len="24" pan="0" key="58"/>
          <note pos="1536" vol="78" len="24" pan="0" key="73"/>
          <note pos="1560" vol="78" len="24" pan="0" key="69"/>
          <note pos="1584" vol="78" len="24" pan="0" key="66"/>
          <note pos="1608" vol="78" len="24" pan="0" key="61"/>
          <note pos="1632" vol="78" len="24" pan="0" key="69"/>
          <note pos="1656" vol="78" len="24" pan="0" key="66"/>
          <note pos="1680" vol="78" len="24" pan="0" key="61"/>
          <note pos="1704" vol="78" len="24" pan="0" key="57"/>
          <note pos="1728" vol="78" len="24" pan="0" key="73"/>
          <note pos="1752" vol="78" len="24" pan="0" key="69"/>
          <note pos="1776" vol="78" len="24" pan="0" key="66"/>
          <note pos="1800" vol="78" len="24" pan="0" key="61"/>
          <note pos="1824" vol="78" len="24" pan="0" key="69"/>
          <note pos="1848" vol="78" len="24" pan="0" key="66"/>
          <note pos="1872" vol="78" len="24" pan="0" key="61"/>
          <note pos="1896" vol="78" len="24" pan="0" key="57"/>
          <note pos="1920" vol="78" len="24" pan="0" key="73"/>
          <note pos="1944" vol="78" len="24" pan="0" key="69"/>
          <note pos="1968" vol="78" len="24" pan="0" key="66"/>
          <note pos="1992" vol="78" len="24" pan="0" key="61"/>
          <note pos="2016" vol="78" len="24" pan="0" key="69"/>
          <note pos="2040" vol="78" len="24" pan="0" key="66"/>
          <note pos="2064" vol="78" len="24" pan="0" key="61"/>
          <note pos="2088" vol="78" len="24" pan="0" key="57"/>
          <note pos="2112" vol="78" len="24" pan="0" key="69"/>
          <note pos="2136" vol="78" len="24" pan="0" key="73"/>
          <note pos="2160" vol="78" len="24" pan="0" key="76"/>
          <note pos="2184" vol="78" len="24" pan="0" key="73"/>
          <note pos="2208" vol="78" len="24" pan="0" key="78"/>
          <note pos="2232" vol="78" len="24" pan="0" key="73"/>
          <note pos="2256" vol="78" len="24" pan="0" key="78"/>
          <note pos="2280" vol="78" len="24" pan="0" key="73"/>
          <note pos="2304" vol="78" len="24" pan="0" key="78"/>
          <note pos="2328" vol="78" len="24" pan="0" key="71"/>
          <note pos="2352" vol="78" len="24" pan="0" key="78"/>
          <note pos="2376" vol="78" len="24" pan="0" key="71"/>
          <note pos="2400" vol="78" len="24" pan="0" key="78"/>
          <note pos="2424" vol="78" len="24" pan="0" key="71"/>
          <note pos="2448" vol="78" len="24" pan="0" key="78"/>
          <note pos="2472" vol="78" len="24" pan="0" key="71"/>
          <note pos="2496" vol="78" len="24" pan="0" key="73"/>
          <note pos="2520" vol="78" len="24" pan="0" key="69"/>
          <note pos="2544" vol="78" len="24" pan="0" key="66"/>
          <note pos="2568" vol="78" len="24" pan="0" key="61"/>
          <note pos="2592" vol="78" len="24" pan="0" key="69"/>
          <note pos="2616" vol="78" len="24" pan="0" key="66"/>
          <note pos="2640" vol="78" len="24" pan="0" key="61"/>
          <note pos="2664" vol="78" len="24" pan="0" key="57"/>
          <note pos="2688" vol="78" len="24" pan="0" key="73"/>
          <note pos="2712" vol="78" len="24" pan="0" key="69"/>
          <note pos="2736" vol="78" len="24" pan="0" key="66"/>
          <note pos="2760" vol="78" len="24" pan="0" key="61"/>
          <note pos="2784" vol="78" len="24" pan="0" key="69"/>
          <note pos="2808" vol="78" len="24" pan="0" key="66"/>
          <note pos="2832" vol="78" len="24" pan="0" key="61"/>
          <note pos="2856" vol="78" len="24" pan="0" key="57"/>
          <note pos="2880" vol="78" len="24" pan="0" key="73"/>
          <note pos="2904" vol="78" len="24" pan="0" key="69"/>
          <note pos="2928" vol="78" len="24" pan="0" key="66"/>
          <note pos="2952" vol="78" len="24" pan="0" key="61"/>
          <note pos="2976" vol="78" len="24" pan="0" key="69"/>
          <note pos="3000" vol="78" len="24" pan="0" key="66"/>
          <note pos="3024" vol="78" len="24" pan="0" key="61"/>
          <note pos="3048" vol="78" len="24" pan="0" key="57"/>
        </pattern>
        <pattern name="Sf2 Player" steps="16" pos="56448" muted="0" type="1">
          <note pos="0" vol="78" len="24" pan="0" key="73"/>
          <note pos="24" vol="78" len="24" pan="0" key="69"/>
          <note pos="48" vol="78" len="24" pan="0" key="64"/>
          <note pos="72" vol="78" len="24" pan="0" key="61"/>
          <note pos="96" vol="78" len="24" pan="0" key="69"/>
          <note pos="120" vol="78" len="24" pan="0" key="64"/>
          <note pos="144" vol="78" len="24" pan="0" key="61"/>
          <note pos="168" vol="78" len="24" pan="0" key="57"/>
          <note pos="192" vol="78" len="24" pan="0" key="71"/>
          <note pos="216" vol="78" len="24" pan="0" key="68"/>
          <note pos="240" vol="78" len="24" pan="0" key="63"/>
          <note pos="264" vol="78" len="24" pan="0" key="59"/>
          <note pos="288" vol="78" len="24" pan="0" key="71"/>
          <note pos="312" vol="78" len="24" pan="0" key="68"/>
          <note pos="336" vol="78" len="24" pan="0" key="63"/>
          <note pos="360" vol="78" len="24" pan="0" key="59"/>
          <note pos="384" vol="78" len="24" pan="0" key="73"/>
          <note pos="408" vol="78" len="24" pan="0" key="68"/>
          <note pos="432" vol="78" len="24" pan="0" key="64"/>
          <note pos="456" vol="78" len="24" pan="0" key="61"/>
          <note pos="480" vol="78" len="24" pan="0" key="68"/>
          <note pos="504" vol="78" len="24" pan="0" key="64"/>
          <note pos="528" vol="78" len="24" pan="0" key="61"/>
          <note pos="552" vol="78" len="24" pan="0" key="56"/>
          <note pos="576" vol="78" len="24" pan="0" key="73"/>
          <note pos="600" vol="78" len="24" pan="0" key="68"/>
          <note pos="624" vol="78" len="24" pan="0" key="64"/>
          <note pos="648" vol="78" len="24" pan="0" key="61"/>
          <note pos="672" vol="78" len="24" pan="0" key="68"/>
          <note pos="696" vol="78" len="24" pan="0" key="64"/>
          <note pos="720" vol="78" len="24" pan="0" key="61"/>
          <note pos="744" vol="78" len="24" pan="0" key="56"/>
          <note pos="768" vol="78" len="24" pan="0" key="73"/>
          <note pos="792" vol="78" len="24" pan="0" key="68"/>
          <note pos="816" vol="78" len="24" pan="0" key="66"/>
          <note pos="840" vol="78" len="24" pan="0" key="61"/>
          <note pos="864" vol="78" len="24" pan="0" key="68"/>
          <note pos="888" vol="78" len="24" pan="0" key="66"/>
          <note pos="912" vol="78" len="24" pan="0" key="61"/>
          <note pos="936" vol="78" len="24" pan="0" key="59"/>
          <note pos="960" vol="78" len="24" pan="0" key="73"/>
          <note pos="984" vol="78" len="24" pan="0" key="68"/>
          <note pos="1008" vol="78" len="24" pan="0" key="66"/>
          <note pos="1032" vol="78" len="24" pan="0" key="61"/>
          <note pos="1056" vol="78" len="24" pan="0" key="68"/>
          <note pos="1080" vol="78" len="24" pan="0" key="66"/>
          <note pos="1104" vol="78" len="24" pan="0" key="61"/>
          <note pos="1128" vol="78" len="24" pan="0" key="57"/>
          <note pos="1152" vol="78" len="24" pan="0" key="73"/>
          <note pos="1176" vol="78" len="24" pan="0" key="70"/>
          <note pos="1200" vol="78" len="24" pan="0" key="66"/>
          <note pos="1224" vol="78" len="24" pan="0" key="61"/>
          <note pos="1248" vol="78" len="24" pan="0" key="70"/>
          <note pos="1272" vol="78" len="24" pan="0" key="66"/>
          <note pos="1296" vol="78" len="24" pan="0" key="61"/>
          <note pos="1320" vol="78" len="24" pan="0" key="58"/>
          <note pos="1344" vol="78" len="24" pan="0" key="73"/>
          <note pos="1368" vol="78" len="24" pan="0" key="70"/>
          <note pos="1392" vol="78" len="24" pan="0" key="66"/>
          <note pos="1416" vol="78" len="24" pan="0" key="61"/>
          <note pos="1440" vol="78" len="24" pan="0" key="70"/>
          <note pos="1464" vol="78" len="24" pan="0" key="66"/>
          <note pos="1488" vol="78" len="24" pan="0" key="61"/>
          <note pos="1512" vol="78" len="24" pan="0" key="58"/>
          <note pos="1536" vol="78" len="24" pan="0" key="73"/>
          <note pos="1560" vol="78" len="24" pan="0" key="69"/>
          <note pos="1584" vol="78" len="24" pan="0" key="66"/>
          <note pos="1608" vol="78" len="24" pan="0" key="61"/>
          <note pos="1632" vol="78" len="24" pan="0" key="69"/>
          <note pos="1656" vol="78" len="24" pan="0" key="66"/>
          <note pos="1680" vol="78" len="24" pan="0" key="61"/>
          <note pos="1704" vol="78" len="24" pan="0" key="57"/>
          <note pos="1728" vol="78" len="24" pan="0" key="73"/>
          <note pos="1752" vol="78" len="24" pan="0" key="69"/>
          <note pos="1776" vol="78" len="24" pan="0" key="66"/>
          <note pos="1800" vol="78" len="24" pan="0" key="61"/>
          <note pos="1824" vol="78" len="24" pan="0" key="69"/>
          <note pos="1848" vol="78" len="24" pan="0" key="66"/>
          <note pos="1872" vol="78" len="24" pan="0" key="61"/>
          <note pos="1896" vol="78" len="24" pan="0" key="57"/>
          <note pos="1920" vol="78" len="24" pan="0" key="73"/>
          <note pos="1944" vol="78" len="24" pan="0" key="69"/>
          <note pos="1968" vol="78" len="24" pan="0" key="66"/>
          <note pos="1992" vol="78" len="24" pan="0" key="61"/>
          <note pos="2016" vol="78" len="24" pan="0" key="69"/>
          <note pos="2040" vol="78" len="24" pan="0" key="66"/>
          <note pos="2064" vol="78" len="24" pan="0" key="61"/>
          <note pos="2088" vol="78" len="24" pan="0" key="57"/>
          <note pos="2112" vol="78" len="24" pan="0" key="69"/>
          <note pos="2136" vol="78" len="24" pan="0" key="73"/>
          <note pos="2160" vol="78" len="24" pan="0" key="76"/>
          <note pos="2184" vol="78" len="24" pan="0" key="73"/>
          <note pos="2208" vol="78" len="24" pan="0" key="78"/>
          <note pos="2232" vol="78" len="24" pan="0" key="73"/>
          <note pos="2256" vol="78" len="24" pan="0" key="78"/>
          <note pos="2280" vol="78" len="24" pan="0" key="73"/>
          <note pos="2304" vol="78" len="24" pan="0" key="78"/>
          <note pos="2328" vol="78" len="24" pan="0" key="71"/>
          <note pos="2352" vol="78" len="24" pan="0" key="78"/>
          <note pos="2376" vol="78" len="24" pan="0" key="71"/>
          <note pos="2400" vol="78" len="24" pan="0" key="78"/>
          <note pos="2424" vol="78" len="24" pan="0" key="71"/>
          <note pos="2448" vol="78" len="24" pan="0" key="78"/>
          <note pos="2472" vol="78" len="24" pan="0" key="71"/>
          <note pos="2496" vol="78" len="24" pan="0" key="73"/>
          <note pos="2520" vol="78" len="24" pan="0" key="69"/>
          <note pos="2544" vol="78" len="24" pan="0" key="66"/>
          <note pos="2568" vol="78" len="24" pan="0" key="61"/>
          <note pos="2592" vol="78" len="24" pan="0" key="69"/>
          <note pos="2616" vol="78" len="24" pan="0" key="66"/>
          <note pos="2640" vol="78" len="24" pan="0" key="61"/>
          <note pos="2664" vol="78" len="24" pan="0" key="57"/>
          <note pos="2688" vol="78" len="24" pan="0" key="73"/>
          <note pos="2712" vol="78" len="24" pan="0" key="69"/>
          <note pos="2736" vol="78" len="24" pan="0" key="66"/>
          <note pos="2760" vol="78" len="24" pan="0" key="61"/>
          <note pos="2784" vol="78" len="24" pan="0" key="69"/>
          <note pos="2808" vol="78" len="24" pan="0" key="66"/>
          <note pos="2832" vol="78" len="24" pan="0" key="61"/>
          <note pos="2856" vol="78" len="24" pan="0" key="57"/>
          <note pos="2880" vol="78" len="24" pan="0" key="73"/>
          <note pos="2904" vol="78" len="24" pan="0" key="69"/>
          <note pos="2928" vol="78" len="24" pan="0" key="66"/>
          <note pos="2952" vol="78" len="24" pan="0" key="61"/>
          <note pos="2976" vol="78" len="24" pan="0" key="69"/>
          <note pos="3000" vol="78" len="24" pan="0" key="66"/>
          <note pos="3024" vol="78" len="24" pan="0" key="61"/>
          <note pos="3048" vol="78" len="24" pan="0" key="57"/>
        </pattern>
      </track>
      <track name="Beat/Bassline 10" solo="0" muted="0" type="1">
        <bbtrack/>
        <bbtco name="" pos="3456" len="768" muted="0" color="4286611584" usestyle="0"/>
        <bbtco name="" pos="34944" len="768" muted="0" color="4286611584" usestyle="0"/>
      </track>
      <track name="Clone of Beat/Bassline 10" solo="0" muted="0" type="1">
        <bbtrack/>
        <bbtco name="" pos="62592" len="768" muted="0" color="4286611584" usestyle="1"/>
      </track>
      <track name="Clone of Beat/Bassline 11" solo="0" muted="0" type="1">
        <bbtrack/>
      </track>
      <track name="Beat/Bassline 15" solo="0" muted="0" type="1">
        <bbtrack/>
        <bbtco name="" pos="3072" len="384" muted="0" color="4286611584" usestyle="0"/>
      </track>
      <track name="Beat/Bassline 16" solo="0" muted="0" type="1">
        <bbtrack/>
        <bbtco name="" pos="7872" len="192" muted="0" color="4286611584" usestyle="0"/>
        <bbtco name="" pos="39360" len="192" muted="0" color="4286611584" usestyle="0"/>
      </track>
      <track name="Beat/Bassline 17" solo="0" muted="0" type="1">
        <bbtrack/>
        <bbtco name="" pos="13824" len="384" muted="0" color="4286611584" usestyle="0"/>
      </track>
      <track name="Beat/Bassline 20" solo="0" muted="0" type="1">
        <bbtrack/>
        <bbtco name="" pos="24960" len="1536" muted="0" color="4286611584" usestyle="0"/>
      </track>
      <track name="Clone of Beat/Bassline 20" solo="0" muted="0" type="1">
        <bbtrack/>
        <bbtco name="" pos="26496" len="768" muted="0" color="4286611584" usestyle="0"/>
      </track>
      <track name="Clone of Clone of Beat/Bassline 20" solo="0" muted="0" type="1">
        <bbtrack/>
        <bbtco name="" pos="27264" len="768" muted="0" color="4286611584" usestyle="0"/>
        <bbtco name="" pos="28032" len="576" muted="0" color="4286611584" usestyle="0"/>
      </track>
      <track name="Beat/Bassline 23" solo="0" muted="0" type="1">
        <bbtrack/>
        <bbtco name="" pos="28800" len="3072" muted="0" color="4286611584" usestyle="0"/>
        <bbtco name="" pos="56448" len="3072" muted="0" color="4286611584" usestyle="1"/>
      </track>
      <track name="Automation track" solo="0" muted="0" type="5">
        <automationtrack/>
        <automationpattern name="AM pitchshifter>Effect enabled" tens="1" pos="0" mute="0" len="192" prog="0">
          <time pos="0" value="0"/>
          <object id="8166122"/>
        </automationpattern>
        <automationpattern name="AM pitchshifter>Effect enabled" tens="1" pos="13248" mute="0" len="192" prog="0">
          <time pos="0" value="1"/>
          <object id="8166122"/>
        </automationpattern>
        <automationpattern name="AM pitchshifter>Effect enabled" tens="1" pos="13824" mute="0" len="192" prog="0">
          <time pos="0" value="0"/>
          <object id="8166122"/>
        </automationpattern>
      </track>
      <track name="lgt" solo="0" muted="1" type="2">
        <sampletrack vol="69.6" pan="0">
          <fxchain numofeffects="1" enabled="1">
            <effect autoquit_numerator="4" name="ladspaeffect" autoquit_denominator="4" autoquit="1" wet="1" autoquit_syncmode="0" gate="0">
              <on scale_type="linear" id="2274258" value="0"/>
              <ladspacontrols link="1" ports="4">
                <port00 link="1">
                  <data scale_type="log" id="2557451" value="1"/>
                </port00>
                <port01 link="1" data="4"/>
                <port10>
                  <data scale_type="log" id="5387230" value="1"/>
                </port10>
                <port11 data="4"/>
              </ladspacontrols>
              <key>
                <attribute name="file" value="am_pitchshift_1433"/>
                <attribute name="plugin" value="amPitchshift"/>
              </key>
            </effect>
          </fxchain>
        </sampletrack>
      </track>
      <track name="rgt" solo="0" muted="1" type="2">
        <sampletrack vol="81" pan="0">
          <fxchain numofeffects="2" enabled="1">
            <effect autoquit_numerator="4" name="ladspaeffect" autoquit_denominator="4" autoquit="1" wet="1" autoquit_syncmode="0" gate="0">
              <on scale_type="linear" id="8166122" value="0"/>
              <ladspacontrols link="1" ports="4">
                <port00 link="1">
                  <data scale_type="log" id="4307265" value="1.52069"/>
                </port00>
                <port01 link="1" data="4"/>
                <port10>
                  <data scale_type="log" id="1768188" value="1.52069"/>
                </port10>
                <port11 data="4"/>
              </ladspacontrols>
              <key>
                <attribute name="file" value="am_pitchshift_1433"/>
                <attribute name="plugin" value="amPitchshift"/>
              </key>
            </effect>
            <effect autoquit_numerator="4" name="eq" autoquit_denominator="4" autoquit="1" wet="1" autoquit_syncmode="0" gate="0" on="1">
              <Eq Peak3active="1" AnalyseIn="1" Peak3gain="-6.48" Peak3bw="0.416" HP12="1" HighShelfgain="0" LPres="0.707" Lowshelfactive="0" Peak4active="0" HP24="0" Peak4bw="0.3" Peak1active="0" Peak2active="0" HPres="0.707" LP24="0" LP48="0" Peak2bw="0.3" HPactive="1" LowShelfres="1.4" Highshelfactive="0" Lowshelfgain="0" Peak4gain="0" Outputgain="0" LP12="1" Peak1bw="0.3" LPactive="0" AnalyseOut="1" HP48="0" Peak2gain="0" HighShelfres="1.4" LP="0" HP="0">
                <Inputgain scale_type="log" id="825244" value="0"/>
                <Peak1gain scale_type="log" id="5740135" value="0"/>
                <HPfreq scale_type="log" id="2263674" value="101.087"/>
                <LowShelffreq scale_type="log" id="891990" value="80"/>
                <Peak1freq scale_type="log" id="6707296" value="120"/>
                <Peak2freq scale_type="log" id="4630572" value="250"/>
                <Peak3freq scale_type="log" id="5800292" value="808.531"/>
                <Peak4freq scale_type="log" id="2682057" value="4000"/>
                <Highshelffreq scale_type="log" id="4630541" value="12000"/>
                <LPfreq scale_type="log" id="3765193" value="18000"/>
              </Eq>
              <key/>
            </effect>
          </fxchain>
        </sampletrack>
      </track>
      <track name="its not over yet kid.wav" solo="0" muted="1" type="0">
        <instrumenttrack basenote="57" fxch="0" usemasterpitch="1" pitch="0" vol="139.2" pan="0" pitchrange="1">
          <instrument name="audiofileprocessor">
            <audiofileprocessor src="/home/pass/samples/its not over yet kid.wav" reversed="0" interp="1" amp="100" looped="0" sframe="0" stutter="0" eframe="1" lframe="0"/>
          </instrument>
          <eldata fwet="0" fcut="14000" ftype="0" fres="0.5">
            <elvol x100="0" userwavefile="" dec="0.5" amt="0" pdel="0" hold="0.5" lamt="0" lpdel="0" lshp="0" lspd_denominator="4" att="0" ctlenvamt="0" lspd="0.1" lspd_syncmode="0" rel="0.1" latt="0" lspd_numerator="4" sustain="0.5"/>
            <elcut x100="0" userwavefile="" dec="0.5" amt="0" pdel="0" hold="0.5" lamt="0" lpdel="0" lshp="0" lspd_denominator="4" att="0" ctlenvamt="0" lspd="0.1" lspd_syncmode="0" rel="0.1" latt="0" lspd_numerator="4" sustain="0.5"/>
            <elres x100="0" userwavefile="" dec="0.5" amt="0" pdel="0" hold="0.5" lamt="0" lpdel="0" lshp="0" lspd_denominator="4" att="0" ctlenvamt="0" lspd="0.1" lspd_syncmode="0" rel="0.1" latt="0" lspd_numerator="4" sustain="0.5"/>
          </eldata>
          <chordcreator chord-enabled="0" chord="0" chordrange="1"/>
          <arpeggiator arprange="1" arpmode="0" arp="0" arptime_numerator="4" arpmiss="0" arptime_denominator="4" arpcycle="0" arpskip="0" arptime_syncmode="0" arpgate="100" arptime="200" arpdir="0" arp-enabled="0"/>
          <midiport fixedoutputnote="-1" outputprogram="1" inputcontroller="0" writable="0" fixedoutputvelocity="-1" readable="0" outputchannel="1" basevelocity="63" outputcontroller="0" fixedinputvelocity="-1" inputchannel="0"/>
          <fxchain numofeffects="0" enabled="0"/>
        </instrumenttrack>
        <pattern name="" steps="16" pos="43584" muted="0" type="1">
          <note pos="0" vol="78" len="756" pan="0" key="57"/>
        </pattern>
      </track>
      <track name="Beat/Bassline 25" solo="0" muted="0" type="1">
        <bbtrack/>
        <bbtco name="" pos="47040" len="192" muted="0" color="4286611584" usestyle="0"/>
      </track>
      <track name="Beat/Bassline 26" solo="0" muted="0" type="1">
        <bbtrack/>
        <bbtco name="" pos="50304" len="2880" muted="0" color="4286611584" usestyle="0"/>
      </track>
      <track name="Beat/Bassline 28" solo="0" muted="0" type="1">
        <bbtrack/>
        <bbtco name="" pos="53184" len="192" muted="0" color="4286611584" usestyle="0"/>
      </track>
      <track name="Beat/Bassline 32" solo="0" muted="0" type="1">
        <bbtrack/>
      </track>
      <track name="Beat/Bassline 33" solo="0" muted="0" type="1">
        <bbtrack/>
      </track>
      <track name="Beat/Bassline 34" solo="0" muted="0" type="1">
        <bbtrack/>
        <bbtco name="" pos="63744" len="768" muted="0" color="4286611584" usestyle="1"/>
      </track>
    </trackcontainer>
    <track name="Automation track" solo="0" muted="0" type="6">
      <automationtrack/>
      <automationpattern name="Numerator" tens="1" pos="0" mute="0" len="192" prog="0"/>
      <automationpattern name="Denominator" tens="1" pos="0" mute="0" len="192" prog="0"/>
      <automationpattern name="Tempo" tens="1" pos="0" mute="0" len="192" prog="0"/>
      <automationpattern name="Master volume" tens="1" pos="0" mute="0" len="192" prog="0"/>
      <automationpattern name="Master pitch" tens="1" pos="0" mute="0" len="192" prog="0"/>
      <automationpattern name="Numerator" tens="1" pos="0" mute="0" len="192" prog="0">
        <time pos="0" value="4"/>
        <object id="545120"/>
      </automationpattern>
      <automationpattern name="Denominator" tens="1" pos="0" mute="0" len="192" prog="0">
        <time pos="0" value="4"/>
        <object id="114903"/>
      </automationpattern>
      <automationpattern name="Tempo" tens="1" pos="0" mute="0" len="192" prog="0">
        <time pos="0" value="184.001"/>
        <object id="2356958"/>
      </automationpattern>
    </track>
    <fxmixer visible="0" maximized="0" height="333" width="1260" x="33" minimized="0" y="137">
      <fxchannel name="Master" num="0" muted="0" volume="0.568" soloed="0">
        <fxchain numofeffects="0" enabled="1"/>
      </fxchannel>
      <fxchannel name="kick" num="1" muted="0" volume="0.535" soloed="0">
        <fxchain numofeffects="0" enabled="1"/>
        <send channel="0" amount="1"/>
        <send channel="10" amount="0.512"/>
      </fxchannel>
      <fxchannel name="hat" num="2" muted="0" volume="0.385" soloed="0">
        <fxchain numofeffects="1" enabled="1">
          <effect autoquit_numerator="4" name="eq" autoquit_denominator="4" autoquit="1" wet="1" autoquit_syncmode="0" gate="0" on="1">
            <Eq Peak3active="1" AnalyseIn="1" Peak3gain="-18" Peak3bw="0.3" HP12="1" HighShelfgain="-2.88" LPres="0.707" Lowshelfactive="0" Peak4active="0" HP24="0" Peak4bw="0.3" Peak1active="0" Peak2active="0" HPres="0.707" LP24="0" LP48="0" Peak2bw="0.3" HPactive="1" LowShelfres="1.4" Highshelfactive="1" Lowshelfgain="0" Peak4gain="0" Outputgain="0" LP12="1" Peak1bw="0.3" LPactive="1" AnalyseOut="1" HP48="0" Peak2gain="0" HighShelfres="1.4" LP="0" HP="0">
              <Inputgain scale_type="log" id="8286259" value="0"/>
              <Peak1gain scale_type="log" id="723187" value="0"/>
              <HPfreq scale_type="log" id="900875" value="894.05"/>
              <LowShelffreq scale_type="log" id="3000889" value="80"/>
              <Peak1freq scale_type="log" id="5937238" value="120"/>
              <Peak2freq scale_type="log" id="1946923" value="250"/>
              <Peak3freq scale_type="log" id="1131236" value="957.26"/>
              <Peak4freq scale_type="log" id="5567039" value="4000"/>
              <Highshelffreq scale_type="log" id="1520587" value="4356.94"/>
              <LPfreq scale_type="log" id="504196" value="16132.3"/>
            </Eq>
            <key/>
          </effect>
        </fxchain>
        <send channel="0" amount="1"/>
        <send channel="10" amount="0.992"/>
      </fxchannel>
      <fxchannel name="snare" num="3" muted="0" volume="0.644" soloed="0">
        <fxchain numofeffects="1" enabled="1">
          <effect autoquit_numerator="4" name="eq" autoquit_denominator="4" autoquit="1" wet="1" autoquit_syncmode="0" gate="0" on="1">
            <Eq Peak3active="0" AnalyseIn="1" Peak3gain="0" Peak3bw="0.3" HP12="1" HighShelfgain="5.58" LPres="0.707" Lowshelfactive="0" Peak4active="1" HP24="0" Peak4bw="0.3" Peak1active="0" Peak2active="0" HPres="0.707" LP24="0" LP48="0" Peak2bw="0.3" HPactive="0" LowShelfres="1.4" Highshelfactive="1" Lowshelfgain="0" Peak4gain="-0.718001" Outputgain="0" LP12="1" Peak1bw="0.3" LPactive="1" AnalyseOut="1" HP48="0" Peak2gain="0" HighShelfres="1.435" LP="0" HP="0">
              <Inputgain scale_type="log" id="6753652" value="0"/>
              <Peak1gain scale_type="log" id="8257704" value="0"/>
              <HPfreq scale_type="log" id="2234845" value="31"/>
              <LowShelffreq scale_type="log" id="5016811" value="80"/>
              <Peak1freq scale_type="log" id="5537746" value="120"/>
              <Peak2freq scale_type="log" id="6539813" value="250"/>
              <Peak3freq scale_type="log" id="6999518" value="2000"/>
              <Peak4freq scale_type="log" id="770028" value="4000"/>
              <Highshelffreq scale_type="log" id="3686018" value="2459.48"/>
              <LPfreq scale_type="log" id="7588449" value="20000"/>
            </Eq>
            <key/>
          </effect>
        </fxchain>
        <send channel="0" amount="1"/>
        <send channel="10" amount="0.316"/>
      </fxchannel>
      <fxchannel name="crash1" num="4" muted="0" volume="0.546" soloed="0">
        <fxchain numofeffects="0" enabled="0"/>
        <send channel="0" amount="1"/>
        <send channel="10" amount="0.724"/>
      </fxchannel>
      <fxchannel name="crash2" num="5" muted="0" volume="0.534" soloed="0">
        <fxchain numofeffects="0" enabled="0"/>
        <send channel="0" amount="1"/>
        <send channel="10" amount="0.76"/>
      </fxchannel>
      <fxchannel name="china" num="6" muted="0" volume="0.884" soloed="0">
        <fxchain numofeffects="0" enabled="0"/>
        <send channel="0" amount="1"/>
        <send channel="10" amount="0.292"/>
      </fxchannel>
      <fxchannel name="hitom" num="7" muted="0" volume="0.512" soloed="0">
        <fxchain numofeffects="0" enabled="0"/>
        <send channel="0" amount="1"/>
        <send channel="10" amount="0.42"/>
      </fxchannel>
      <fxchannel name="midtom" num="8" muted="0" volume="0.534" soloed="0">
        <fxchain numofeffects="0" enabled="0"/>
        <send channel="0" amount="1"/>
        <send channel="10" amount="0.412"/>
      </fxchannel>
      <fxchannel name="lotom" num="9" muted="0" volume="0.418" soloed="0">
        <fxchain numofeffects="0" enabled="0"/>
        <send channel="0" amount="1"/>
        <send channel="10" amount="0.432"/>
      </fxchannel>
      <fxchannel name="DRUM PLATE" num="10" muted="0" volume="0.535" soloed="0">
        <fxchain numofeffects="2" enabled="1">
          <effect autoquit_numerator="4" name="ladspaeffect" autoquit_denominator="4" autoquit="1" wet="1" autoquit_syncmode="0" gate="0" on="1">
            <ladspacontrols ports="4">
              <port02 data="0.76538"/>
              <port03 data="0.145119"/>
              <port04 data="0.0005"/>
              <port05 data="1"/>
            </ladspacontrols>
            <key>
              <attribute name="file" value="caps"/>
              <attribute name="plugin" value="Plate2x2"/>
            </key>
          </effect>
          <effect autoquit_numerator="4" name="eq" autoquit_denominator="4" autoquit="1" wet="1" autoquit_syncmode="0" gate="0" on="1">
            <Eq Peak3active="0" AnalyseIn="1" Peak3gain="0" Peak3bw="0.3" HP12="1" HighShelfgain="1.62" LPres="0.707" Lowshelfactive="0" Peak4active="1" HP24="0" Peak4bw="0.3" Peak1active="0" Peak2active="0" HPres="0.707" LP24="0" LP48="0" Peak2bw="0.3" HPactive="1" LowShelfres="1.4" Highshelfactive="1" Lowshelfgain="0" Peak4gain="0.36" Outputgain="0" LP12="1" Peak1bw="0.3" LPactive="0" AnalyseOut="1" HP48="0" Peak2gain="0" HighShelfres="1.4" LP="0" HP="0">
              <Inputgain scale_type="log" id="217936" value="0"/>
              <Peak1gain scale_type="log" id="1412862" value="0"/>
              <HPfreq scale_type="log" id="7725025" value="175.669"/>
              <LowShelffreq scale_type="log" id="399642" value="80"/>
              <Peak1freq scale_type="log" id="3213708" value="120"/>
              <Peak2freq scale_type="log" id="1180890" value="250"/>
              <Peak3freq scale_type="log" id="5654965" value="2000"/>
              <Peak4freq scale_type="log" id="757114" value="3592.47"/>
              <Highshelffreq scale_type="log" id="3326661" value="610.728"/>
              <LPfreq scale_type="log" id="825391" value="18000"/>
            </Eq>
            <key/>
          </effect>
        </fxchain>
        <send channel="0" amount="1"/>
      </fxchannel>
      <fxchannel name="rhythm guitar" num="11" muted="0" volume="0.601" soloed="0">
        <fxchain numofeffects="7" enabled="1">
          <effect autoquit_numerator="4" name="ladspaeffect" autoquit_denominator="4" autoquit="1" wet="1" autoquit_syncmode="0" gate="0" on="1">
            <ladspacontrols link="1" ports="4">
              <port00 link="1">
                <data scale_type="log" id="7309738" value="1.00288"/>
              </port00>
              <port01 link="1" data="4"/>
              <port10>
                <data scale_type="log" id="4894491" value="1.00288"/>
              </port10>
              <port11 data="4"/>
            </ladspacontrols>
            <key>
              <attribute name="file" value="am_pitchshift_1433"/>
              <attribute name="plugin" value="amPitchshift"/>
            </key>
          </effect>
          <effect autoquit_numerator="4" name="ladspaeffect" autoquit_denominator="4" autoquit="1" wet="1" autoquit_syncmode="0" gate="0" on="1">
            <ladspacontrols link="1" ports="4">
              <port00 link="1">
                <data scale_type="log" id="2205805" value="5798.41"/>
              </port00>
              <port01 link="1" data="0.34715"/>
              <port10>
                <data scale_type="log" id="1377170" value="5798.41"/>
              </port10>
              <port11 data="0.34715"/>
            </ladspacontrols>
            <key>
              <attribute name="file" value="butterworth_1902"/>
              <attribute name="plugin" value="buttlow_iir"/>
            </key>
          </effect>
          <effect autoquit_numerator="4" name="ladspaeffect" autoquit_denominator="4" autoquit="1" wet="1" autoquit_syncmode="0" gate="0" on="0">
            <ladspacontrols link="1" ports="14">
              <port01 link="1" data="2"/>
              <port02 link="1" data="2.88"/>
              <port03 link="1" data="0.5"/>
              <port04 link="1" data="0"/>
              <port05 link="1" data="0.955"/>
              <port06 link="1" data="1"/>
              <port07 link="1" data="0.750025"/>
              <port11 data="2"/>
              <port12 data="2.88"/>
              <port13 data="0.5"/>
              <port14 data="0"/>
              <port15 data="0.955"/>
              <port16 data="1"/>
              <port17 data="0.750025"/>
            </ladspacontrols>
            <key>
              <attribute name="file" value="caps"/>
              <attribute name="plugin" value="AmpVTS"/>
            </key>
          </effect>
          <effect autoquit_numerator="4" name="waveshaper" autoquit_denominator="4" autoquit="1" wet="1" autoquit_syncmode="0" gate="0" on="1">
            <waveshapercontrols outputGain="0.87" clipInput="1" waveShape="AACAPwAAgD8AAIA/AACAPwAAgD8AAIA/AACAPwAAgD8AAIA/AACAPwAAgD8AAIA/AACAPwAAgD8AAIA/AACAPwAAgD8AAIA/AACAPwAAgD8AAIA/AACAPwAAgD8AAIA/AACAPwAAgD8AAIA/AACAPwAAgD8AAIA/AACAPwAAgD8AAIA/AACAPwAAgD8AAIA/AACAPwAAgD8AAIA/AACAPwAAgD8AAIA/AACAPwAAgD8AAIA/AACAPwAAgD8AAIA/AACAPwAAgD8AAIA/AACAPwAAgD8AAIA/AACAPwAAgD8AAIA/AACAPwAAgD8AAIA/AACAPwAAgD8AAIA/AACAPwAAgD8AAIA/AACAPwAAgD8AAIA/AACAPwAAgD8AAIA/AACAPwAAgD8AAIA/AACAPwAAgD8AAIA/AACAPwAAgD8AAIA/AACAPwAAgD8AAIA/AACAPwAAgD8AAIA/AACAPwAAgD8AAIA/AACAPwAAgD8AAIA/AACAPwAAgD8AAIA/AACAPwAAgD8AAIA/AACAPwAAgD8AAIA/AACAPwAAgD8AAIA/AACAPwAAgD8AAIA/AACAPwAAgD8AAIA/AACAPwAAgD8AAIA/AACAPwAAgD8AAIA/AACAPwAAgD8AAIA/AACAPwAAgD8AAIA/AACAPwAAgD8AAIA/AACAPwAAgD8AAIA/AACAPwAAgD8AAIA/AACAPwAAgD8AAIA/AACAPwAAgD8AAIA/AACAPwAAgD8AAIA/AACAPwAAgD8AAIA/AACAPwAAgD8AAIA/AACAPwAAgD8AAIA/AACAPwAAgD8AAIA/AACAPwAAgD8AAIA/AACAPwAAgD8AAIA/AACAPwAAgD8AAIA/AACAPwAAgD8AAIA/AACAPwAAgD8AAIA/AACAPwAAgD8AAIA/AACAPwAAgD8AAIA/AACAPwAAgD8AAIA/AACAPwAAgD8AAIA/AACAPwAAgD8AAIA/AACAPwAAgD8AAIA/AACAPwAAgD8AAIA/AACAPwAAgD8AAIA/AACAPwAAgD8AAIA/AACAPwAAgD8AAIA/AACAPwAAgD8=" inputGain="3.5"/>
            <key/>
          </effect>
          <effect autoquit_numerator="4" name="ladspaeffect" autoquit_denominator="4" autoquit="1" wet="1" autoquit_syncmode="0" gate="0" on="1">
            <ladspacontrols link="1" ports="4">
              <port00 link="1">
                <data scale_type="log" id="4291918" value="7184.77"/>
              </port00>
              <port01 link="1" data="7"/>
              <port10>
                <data scale_type="log" id="511769" value="7184.77"/>
              </port10>
              <port11 data="7"/>
            </ladspacontrols>
            <key>
              <attribute name="file" value="lowpass_iir_1891"/>
              <attribute name="plugin" value="lowpass_iir"/>
            </key>
          </effect>
          <effect autoquit_numerator="4" name="ladspaeffect" autoquit_denominator="4" autoquit="1" wet="1" autoquit_syncmode="0" gate="0" on="1">
            <ladspacontrols link="1" ports="4">
              <port00 link="1">
                <data scale_type="log" id="5546061" value="84.3225"/>
              </port00>
              <port01 link="1" data="1.0218"/>
              <port10>
                <data scale_type="log" id="1977316" value="84.3225"/>
              </port10>
              <port11 data="1.0218"/>
            </ladspacontrols>
            <key>
              <attribute name="file" value="butterworth_1902"/>
              <attribute name="plugin" value="butthigh_iir"/>
            </key>
          </effect>
          <effect autoquit_numerator="4" name="ladspaeffect" autoquit_denominator="4" autoquit="1" wet="1" autoquit_syncmode="0" gate="0" on="1">
            <ladspacontrols link="1" ports="4">
              <port01 link="1" data="5"/>
              <port02 link="1" data="0"/>
              <port11 data="5"/>
              <port12 data="0"/>
            </ladspacontrols>
            <key>
              <attribute name="file" value="caps"/>
              <attribute name="plugin" value="CabinetII"/>
            </key>
          </effect>
        </fxchain>
        <send channel="0" amount="1"/>
      </fxchannel>
      <fxchannel name="lgt" num="12" muted="0" volume="0.853" soloed="0">
        <fxchain numofeffects="5" enabled="1">
          <effect autoquit_numerator="4" name="ladspaeffect" autoquit_denominator="4" autoquit="1" wet="1" autoquit_syncmode="0" gate="0">
            <on scale_type="linear" id="2786011" value="0"/>
            <ladspacontrols link="1" ports="4">
              <port00 link="1">
                <data scale_type="log" id="485849" value="1"/>
              </port00>
              <port01 link="1" data="4"/>
              <port10>
                <data scale_type="log" id="4168014" value="1"/>
              </port10>
              <port11 data="4"/>
            </ladspacontrols>
            <key>
              <attribute name="file" value="am_pitchshift_1433"/>
              <attribute name="plugin" value="amPitchshift"/>
            </key>
          </effect>
          <effect autoquit_numerator="4" name="ladspaeffect" autoquit_denominator="4" autoquit="1" wet="1" autoquit_syncmode="0" gate="0" on="1">
            <ladspacontrols link="1" ports="4">
              <port00 link="1">
                <data scale_type="log" id="354059" value="13230"/>
              </port00>
              <port01 link="1" data="1"/>
              <port10>
                <data scale_type="log" id="451672" value="13230"/>
              </port10>
              <port11 data="1"/>
            </ladspacontrols>
            <key>
              <attribute name="file" value="pointer_cast_1910"/>
              <attribute name="plugin" value="pointerCastDistortion"/>
            </key>
          </effect>
          <effect autoquit_numerator="4" name="waveshaper" autoquit_denominator="4" autoquit="1" wet="1" autoquit_syncmode="0" gate="0" on="0">
            <waveshapercontrols outputGain="0.3" clipInput="0" waveShape="AACAPwAAgD8AAIA/AACAPwAAgD8AAIA/AACAPwAAgD8AAIA/AACAPwAAgD8AAIA/AACAPwAAgD8AAIA/AACAPwAAgD8AAIA/AACAPwAAgD8AAIA/AACAPwAAgD8AAIA/AACAPwAAgD8AAIA/AACAPwAAgD8AAIA/AACAPwAAgD8AAIA/AACAPwAAgD8AAIA/AACAPwAAgD8AAIA/AACAPwAAgD8AAIA/AACAPwAAgD8AAIA/AACAPwAAgD8AAIA/AACAPwAAgD8AAIA/AACAPwAAgD8AAIA/AACAPwAAgD8AAIA/AACAPwAAgD8AAIA/AACAPwAAgD8AAIA/AACAPwAAgD8AAIA/AACAPwAAgD8AAIA/AACAPwAAgD8AAIA/AACAPwAAgD8AAIA/AACAPwAAgD8AAIA/AACAPwAAgD8AAIA/AACAPwAAgD8AAIA/AACAPwAAgD8AAIA/AACAPwAAgD8AAIA/AACAPwAAgD8AAIA/AACAPwAAgD8AAIA/AACAPwAAgD8AAIA/AACAPwAAgD8AAIA/AACAPwAAgD8AAIA/AACAPwAAgD8AAIA/AACAPwAAgD8AAIA/AACAPwAAgD8AAIA/AACAPwAAgD8AAIA/AACAPwAAgD8AAIA/AACAPwAAgD8AAIA/AACAPwAAgD8AAIA/AACAPwAAgD8AAIA/AACAPwAAgD8AAIA/AACAPwAAgD8AAIA/AACAPwAAgD8AAIA/AACAPwAAgD8AAIA/AACAPwAAgD8AAIA/AACAPwAAgD8AAIA/AACAPwAAgD8AAIA/AACAPwAAgD8AAIA/AACAPwAAgD8AAIA/AACAPwAAgD8AAIA/AACAPwAAgD8AAIA/AACAPwAAgD8AAIA/AACAPwAAgD8AAIA/AACAPwAAgD8AAIA/AACAPwAAgD8AAIA/AACAPwAAgD8AAIA/AACAPwAAgD8AAIA/AACAPwAAgD8AAIA/AACAPwAAgD8AAIA/AACAPwAAgD8AAIA/AACAP8aSfz+MJX8/Urh+P1K4fj9SuH4/Urh+P/YofD/2KHw/Urh+PwAAgD8=" inputGain="1.14"/>
            <key/>
          </effect>
          <effect autoquit_numerator="4" name="ladspaeffect" autoquit_denominator="4" autoquit="1" wet="1" autoquit_syncmode="0" gate="0" on="1">
            <ladspacontrols link="1" ports="4">
              <port01 link="1" data="1"/>
              <port02 link="1" data="0"/>
              <port11 data="1"/>
              <port12 data="0"/>
            </ladspacontrols>
            <key>
              <attribute name="file" value="caps"/>
              <attribute name="plugin" value="CabinetII"/>
            </key>
          </effect>
          <effect autoquit_numerator="4" name="ladspaeffect" autoquit_denominator="4" autoquit="1" wet="1" autoquit_syncmode="0" gate="0" on="0">
            <ladspacontrols ports="1">
              <port02 data="0.29125"/>
            </ladspacontrols>
            <key>
              <attribute name="file" value="caps"/>
              <attribute name="plugin" value="Narrower"/>
            </key>
          </effect>
        </fxchain>
        <send channel="0" amount="1"/>
        <send channel="13" amount="0.484"/>
      </fxchannel>
      <fxchannel name="FX 14" num="13" muted="0" volume="0.535" soloed="0">
        <fxchain numofeffects="1" enabled="1">
          <effect autoquit_numerator="4" name="ladspaeffect" autoquit_denominator="4" autoquit="1" wet="1" autoquit_syncmode="0" gate="0" on="1">
            <ladspacontrols link="0" ports="4">
              <port00 link="0" data="112.5" data_numerator="4" data_syncmode="0" data_denominator="4"/>
              <port01 link="0" data="0" data_numerator="4" data_syncmode="0" data_denominator="4"/>
              <port10 data="301.25" data_numerator="4" data_syncmode="0" data_denominator="4"/>
              <port11 data="0" data_numerator="4" data_syncmode="0" data_denominator="4"/>
            </ladspacontrols>
            <key>
              <attribute name="file" value="mod_delay_1419"/>
              <attribute name="plugin" value="modDelay"/>
            </key>
          </effect>
        </fxchain>
        <send channel="0" amount="1"/>
      </fxchannel>
      <fxchannel name="bass" num="14" muted="0" volume="1" soloed="0">
        <fxchain numofeffects="1" enabled="1">
          <effect autoquit_numerator="4" name="eq" autoquit_denominator="4" autoquit="1" wet="1" autoquit_syncmode="0" gate="0" on="0">
            <Eq Peak3active="1" AnalyseIn="1" Peak3gain="18" Peak3bw="1.828" HP12="1" HighShelfgain="0" LPres="0.707" Lowshelfactive="1" Peak4active="1" HP24="0" Peak4bw="0.811" Peak1active="0" Peak2active="1" HPres="0.707" LP24="0" LP48="0" Peak2bw="2.866" HPactive="0" LowShelfres="1.21" Highshelfactive="0" Lowshelfgain="-6.477" Peak4gain="5.76" Outputgain="8" LP12="1" Peak1bw="0.3" LPactive="0" AnalyseOut="1" HP48="0" Peak2gain="18" HighShelfres="1.4" LP="0" HP="0">
              <Inputgain scale_type="log" id="1928132" value="0"/>
              <Peak1gain scale_type="log" id="5028906" value="0"/>
              <HPfreq scale_type="log" id="6101787" value="24.795"/>
              <LowShelffreq scale_type="log" id="5056230" value="179.84"/>
              <Peak1freq scale_type="log" id="3218393" value="120"/>
              <Peak2freq scale_type="log" id="4083145" value="8057.72"/>
              <Peak3freq scale_type="log" id="4897974" value="4557.45"/>
              <Peak4freq scale_type="log" id="5404987" value="4000"/>
              <Highshelffreq scale_type="log" id="3053663" value="12000"/>
              <LPfreq scale_type="log" id="1445410" value="18000"/>
            </Eq>
            <key/>
          </effect>
        </fxchain>
        <send channel="0" amount="1"/>
      </fxchannel>
      <fxchannel name="synthStrings" num="15" muted="0" volume="1" soloed="0">
        <fxchain numofeffects="0" enabled="0"/>
        <send channel="0" amount="1"/>
      </fxchannel>
      <fxchannel name="FX 16" num="16" muted="0" volume="0.581" soloed="0">
        <fxchain numofeffects="2" enabled="1">
          <effect autoquit_numerator="4" name="amplifier" autoquit_denominator="4" autoquit="1" wet="1" autoquit_syncmode="0" gate="0" on="1">
            <AmplifierControls right="100" left="100" volume="32" pan="0"/>
            <key/>
          </effect>
          <effect autoquit_numerator="4" name="ladspaeffect" autoquit_denominator="4" autoquit="1" wet="1" autoquit_syncmode="0" gate="0" on="1">
            <ladspacontrols link="1" ports="4">
              <port00 link="1">
                <data scale_type="log" id="2359947" value="3846.59"/>
              </port00>
              <port01 link="1" data="0.755"/>
              <port10>
                <data scale_type="log" id="1056123" value="3846.59"/>
              </port10>
              <port11 data="0.755"/>
            </ladspacontrols>
            <key>
              <attribute name="file" value="butterworth_1902"/>
              <attribute name="plugin" value="buttlow_iir"/>
            </key>
          </effect>
        </fxchain>
        <send channel="0" amount="1"/>
      </fxchannel>
      <fxchannel name="FX 17" num="17" muted="0" volume="1" soloed="0">
        <fxchain numofeffects="0" enabled="0"/>
        <send channel="0" amount="1"/>
      </fxchannel>
      <fxchannel name="FX 18" num="18" muted="0" volume="1" soloed="0">
        <fxchain numofeffects="0" enabled="0"/>
        <send channel="0" amount="1"/>
      </fxchannel>
      <fxchannel name="FX 19" num="19" muted="0" volume="1" soloed="0">
        <fxchain numofeffects="0" enabled="0"/>
        <send channel="0" amount="1"/>
      </fxchannel>
      <fxchannel name="FX 20" num="20" muted="0" volume="1" soloed="0">
        <fxchain numofeffects="0" enabled="0"/>
        <send channel="0" amount="1"/>
      </fxchannel>
      <fxchannel name="FX 21" num="21" muted="0" volume="1" soloed="0">
        <fxchain numofeffects="0" enabled="0"/>
        <send channel="0" amount="1"/>
      </fxchannel>
      <fxchannel name="FX 22" num="22" muted="0" volume="1" soloed="0">
        <fxchain numofeffects="0" enabled="0"/>
        <send channel="0" amount="1"/>
      </fxchannel>
      <fxchannel name="FX 23" num="23" muted="0" volume="1" soloed="0">
        <fxchain numofeffects="0" enabled="0"/>
        <send channel="0" amount="1"/>
      </fxchannel>
      <fxchannel name="FX 24" num="24" muted="0" volume="1" soloed="0">
        <fxchain numofeffects="0" enabled="0"/>
        <send channel="0" amount="1"/>
      </fxchannel>
      <fxchannel name="FX 25" num="25" muted="0" volume="1" soloed="0">
        <fxchain numofeffects="0" enabled="0"/>
        <send channel="0" amount="1"/>
      </fxchannel>
      <fxchannel name="FX 26" num="26" muted="0" volume="1" soloed="0">
        <fxchain numofeffects="0" enabled="0"/>
        <send channel="0" amount="1"/>
      </fxchannel>
      <fxchannel name="FX 27" num="27" muted="0" volume="1" soloed="0">
        <fxchain numofeffects="0" enabled="0"/>
        <send channel="0" amount="1"/>
      </fxchannel>
      <fxchannel name="FX 28" num="28" muted="0" volume="1" soloed="0">
        <fxchain numofeffects="0" enabled="0"/>
        <send channel="0" amount="1"/>
      </fxchannel>
      <fxchannel name="FX 29" num="29" muted="0" volume="1" soloed="0">
        <fxchain numofeffects="0" enabled="0"/>
        <send channel="0" amount="1"/>
      </fxchannel>
      <fxchannel name="FX 30" num="30" muted="0" volume="1" soloed="0">
        <fxchain numofeffects="0" enabled="0"/>
        <send channel="0" amount="1"/>
      </fxchannel>
    </fxmixer>
    <ControllerRackView visible="0" maximized="0" height="200" width="350" x="680" minimized="0" y="282"/>
    <pianoroll visible="0" maximized="1" height="480" width="860" x="317" minimized="0" y="71"/>
    <automationeditor visible="0" maximized="1" height="400" width="860" x="349" minimized="0" y="54"/>
    <projectnotes visible="0" maximized="0" height="400" width="692" x="333" minimized="0" y="2"><![CDATA[<!DOCTYPE HTML PUBLIC "-//W3C//DTD HTML 4.0//EN" "http://www.w3.org/TR/REC-html40/strict.dtd">
<html><head><meta name="qrichtext" content="1" /><style type="text/css">
p, li { white-space: pre-wrap; }
</style></head><body style=" font-family:'Sans Serif'; font-size:9pt; font-weight:400; font-style:normal;">
<p style="-qt-paragraph-type:empty; margin-top:0px; margin-bottom:0px; margin-left:0px; margin-right:0px; -qt-block-indent:0; text-indent:0px; font-family:'Ubuntu'; font-size:10pt;"><br /></p></body></html>]]></projectnotes>
    <timeline lp0pos="9600" lp1pos="48576" lpstate="0"/>
    <controllers>
      <lfocontroller speed_denominator="4" speed="2" wave="0" phase="0" userwavefile="" name="Controller 1" speed_numerator="4" amount="1" base="0.5" multiplier="0" speed_syncmode="0" type="1"/>
    </controllers>
  </song>
</lmms-project>
