<?xml version="1.0"?>
<!DOCTYPE lmms-project>
<lmms-project creatorversion="1.2.2" type="song" version="1.0" creator="LMMS">
  <head masterpitch="0" mastervol="88">
    <bpm id="2356958" scale_type="linear" value="201"/>
    <timesig_numerator id="545120" scale_type="linear" value="4"/>
    <timesig_denominator id="114903" scale_type="linear" value="4"/>
  </head>
  <song>
    <trackcontainer width="600" type="song" visible="1" maximized="1" minimized="0" height="300" y="33" x="106">
      <track type="1" muted="0" name="intro1" solo="0">
        <bbtrack>
          <trackcontainer width="1042" type="bbtrackcontainer" visible="0" maximized="1" minimized="0" height="378" y="41" x="52">
            <track type="0" muted="0" name="kick.wav" solo="0">
              <instrumenttrack pan="0" pitch="0" basenote="57" usemasterpitch="1" vol="100" fxch="1" pitchrange="1">
                <instrument name="audiofileprocessor">
                  <audiofileprocessor looped="0" stutter="0" reversed="0" lframe="0" amp="100" eframe="1" sframe="0" interp="0" src="/home/huggypie/samples/sillydrums/kick.wav"/>
                </instrument>
                <eldata fres="0.5" fcut="14000" fwet="0" ftype="0">
                  <elvol lspd_numerator="4" userwavefile="" lshp="0" x100="0" amt="1" lspd_syncmode="0" ctlenvamt="0" dec="2" hold="2" lspd_denominator="4" sustain="1" lamt="0" lspd="0.1" pdel="0" att="0" lpdel="0" latt="0" rel="2"/>
                  <elcut lspd_numerator="4" userwavefile="" lshp="0" x100="0" amt="0" lspd_syncmode="0" ctlenvamt="0" dec="0.5" hold="0.5" lspd_denominator="4" sustain="0.5" lamt="0" lspd="0.1" pdel="0" att="0" lpdel="0" latt="0" rel="0.1"/>
                  <elres lspd_numerator="4" userwavefile="" lshp="0" x100="0" amt="0" lspd_syncmode="0" ctlenvamt="0" dec="0.5" hold="0.5" lspd_denominator="4" sustain="0.5" lamt="0" lspd="0.1" pdel="0" att="0" lpdel="0" latt="0" rel="0.1"/>
                </eldata>
                <chordcreator chordrange="1" chord="0" chord-enabled="0"/>
                <arpeggiator arpskip="0" arpmiss="0" arp-enabled="0" arpgate="100" arpdir="0" arpcycle="0" arprange="1" arptime_numerator="4" arptime_denominator="4" arptime_syncmode="0" arptime="200" arp="0" arpmode="0"/>
                <midiport outputcontroller="0" inputchannel="0" outputchannel="1" fixedoutputvelocity="-1" readable="0" inputcontroller="0" basevelocity="63" fixedoutputnote="-1" fixedinputvelocity="-1" outputprogram="1" writable="0"/>
                <fxchain enabled="0" numofeffects="0"/>
              </instrumenttrack>
              <pattern type="0" pos="0" muted="0" name="kick.wav" steps="64">
                <note pan="0" pos="0" key="57" len="-192" vol="100"/>
                <note pan="0" pos="384" key="57" len="-192" vol="100"/>
              </pattern>
              <pattern type="0" pos="192" muted="0" name="kick.wav" steps="64">
                <note pan="0" pos="0" key="57" len="-192" vol="100"/>
                <note pan="0" pos="384" key="57" len="-192" vol="100"/>
                <note pan="0" pos="720" key="57" len="-192" vol="100"/>
                <note pan="0" pos="732" key="57" len="-192" vol="100"/>
                <note pan="0" pos="744" key="57" len="-192" vol="100"/>
                <note pan="0" pos="756" key="57" len="-192" vol="100"/>
              </pattern>
              <pattern type="0" pos="384" muted="0" name="kick.wav" steps="32">
                <note pan="0" pos="0" key="57" len="-192" vol="100"/>
                <note pan="0" pos="72" key="57" len="-192" vol="100"/>
                <note pan="0" pos="144" key="57" len="-192" vol="100"/>
                <note pan="0" pos="216" key="57" len="-192" vol="100"/>
                <note pan="0" pos="288" key="57" len="-192" vol="100"/>
                <note pan="0" pos="312" key="57" len="-192" vol="100"/>
                <note pan="0" pos="360" key="57" len="-192" vol="100"/>
                <note pan="0" pos="372" key="57" len="-192" vol="100"/>
              </pattern>
              <pattern type="0" pos="576" muted="0" name="kick.wav" steps="64">
                <note pan="0" pos="0" key="57" len="-192" vol="100"/>
                <note pan="0" pos="12" key="57" len="-192" vol="100"/>
                <note pan="0" pos="24" key="57" len="-192" vol="100"/>
                <note pan="0" pos="36" key="57" len="-192" vol="100"/>
                <note pan="0" pos="48" key="57" len="-192" vol="100"/>
                <note pan="0" pos="60" key="57" len="-192" vol="100"/>
                <note pan="0" pos="72" key="57" len="-192" vol="100"/>
                <note pan="0" pos="84" key="57" len="-192" vol="100"/>
                <note pan="0" pos="96" key="57" len="-192" vol="100"/>
                <note pan="0" pos="108" key="57" len="-192" vol="100"/>
                <note pan="0" pos="120" key="57" len="-192" vol="100"/>
                <note pan="0" pos="132" key="57" len="-192" vol="100"/>
                <note pan="0" pos="144" key="57" len="-192" vol="100"/>
                <note pan="0" pos="156" key="57" len="-192" vol="100"/>
                <note pan="0" pos="168" key="57" len="-192" vol="100"/>
                <note pan="0" pos="180" key="57" len="-192" vol="100"/>
                <note pan="0" pos="192" key="57" len="-192" vol="100"/>
                <note pan="0" pos="204" key="57" len="-192" vol="100"/>
                <note pan="0" pos="216" key="57" len="-192" vol="100"/>
                <note pan="0" pos="228" key="57" len="-192" vol="100"/>
                <note pan="0" pos="240" key="57" len="-192" vol="100"/>
                <note pan="0" pos="252" key="57" len="-192" vol="100"/>
                <note pan="0" pos="264" key="57" len="-192" vol="100"/>
                <note pan="0" pos="276" key="57" len="-192" vol="100"/>
                <note pan="0" pos="288" key="57" len="-192" vol="100"/>
                <note pan="0" pos="300" key="57" len="-192" vol="100"/>
                <note pan="0" pos="312" key="57" len="-192" vol="100"/>
                <note pan="0" pos="324" key="57" len="-192" vol="100"/>
                <note pan="0" pos="336" key="57" len="-192" vol="100"/>
                <note pan="0" pos="348" key="57" len="-192" vol="100"/>
                <note pan="0" pos="360" key="57" len="-192" vol="100"/>
                <note pan="0" pos="372" key="57" len="-192" vol="100"/>
                <note pan="0" pos="384" key="57" len="-192" vol="100"/>
                <note pan="0" pos="396" key="57" len="-192" vol="100"/>
                <note pan="0" pos="408" key="57" len="-192" vol="100"/>
                <note pan="0" pos="420" key="57" len="-192" vol="100"/>
                <note pan="0" pos="432" key="57" len="-192" vol="100"/>
                <note pan="0" pos="444" key="57" len="-192" vol="100"/>
                <note pan="0" pos="456" key="57" len="-192" vol="100"/>
                <note pan="0" pos="468" key="57" len="-192" vol="100"/>
                <note pan="0" pos="480" key="57" len="-192" vol="100"/>
                <note pan="0" pos="492" key="57" len="-192" vol="100"/>
                <note pan="0" pos="504" key="57" len="-192" vol="100"/>
                <note pan="0" pos="516" key="57" len="-192" vol="100"/>
                <note pan="0" pos="528" key="57" len="-192" vol="100"/>
                <note pan="0" pos="540" key="57" len="-192" vol="100"/>
                <note pan="0" pos="552" key="57" len="-192" vol="100"/>
                <note pan="0" pos="564" key="57" len="-192" vol="100"/>
                <note pan="0" pos="576" key="57" len="-192" vol="100"/>
                <note pan="0" pos="588" key="57" len="-192" vol="100"/>
                <note pan="0" pos="600" key="57" len="-192" vol="100"/>
                <note pan="0" pos="612" key="57" len="-192" vol="100"/>
                <note pan="0" pos="624" key="57" len="-192" vol="100"/>
                <note pan="0" pos="636" key="57" len="-192" vol="100"/>
                <note pan="0" pos="648" key="57" len="-192" vol="100"/>
                <note pan="0" pos="660" key="57" len="-192" vol="100"/>
                <note pan="0" pos="672" key="57" len="-192" vol="100"/>
                <note pan="0" pos="684" key="57" len="-192" vol="100"/>
                <note pan="0" pos="696" key="57" len="-192" vol="100"/>
                <note pan="0" pos="708" key="57" len="-192" vol="100"/>
                <note pan="0" pos="720" key="57" len="-192" vol="100"/>
                <note pan="0" pos="732" key="57" len="-192" vol="100"/>
                <note pan="0" pos="744" key="57" len="-192" vol="100"/>
                <note pan="0" pos="756" key="57" len="-192" vol="100"/>
              </pattern>
              <pattern type="0" pos="768" muted="0" name="kick.wav" steps="16">
                <note pan="0" pos="0" key="57" len="-192" vol="100"/>
                <note pan="0" pos="12" key="57" len="-192" vol="100"/>
                <note pan="0" pos="24" key="57" len="-192" vol="100"/>
                <note pan="0" pos="36" key="57" len="-192" vol="100"/>
                <note pan="0" pos="48" key="57" len="-192" vol="100"/>
                <note pan="0" pos="60" key="57" len="-192" vol="100"/>
                <note pan="0" pos="72" key="57" len="-192" vol="100"/>
                <note pan="0" pos="84" key="57" len="-192" vol="100"/>
                <note pan="0" pos="96" key="57" len="-192" vol="100"/>
                <note pan="0" pos="108" key="57" len="-192" vol="100"/>
                <note pan="0" pos="120" key="57" len="-192" vol="100"/>
                <note pan="0" pos="132" key="57" len="-192" vol="100"/>
                <note pan="0" pos="144" key="57" len="-192" vol="100"/>
                <note pan="0" pos="156" key="57" len="-192" vol="100"/>
                <note pan="0" pos="168" key="57" len="-192" vol="100"/>
                <note pan="0" pos="180" key="57" len="-192" vol="100"/>
              </pattern>
              <pattern type="0" pos="960" muted="0" name="kick.wav" steps="64">
                <note pan="0" pos="0" key="57" len="-192" vol="100"/>
                <note pan="0" pos="48" key="57" len="-192" vol="100"/>
                <note pan="0" pos="96" key="57" len="-192" vol="100"/>
                <note pan="0" pos="144" key="57" len="-192" vol="100"/>
                <note pan="0" pos="156" key="57" len="-192" vol="100"/>
                <note pan="0" pos="168" key="57" len="-192" vol="100"/>
                <note pan="0" pos="180" key="57" len="-192" vol="100"/>
                <note pan="0" pos="192" key="57" len="-192" vol="100"/>
                <note pan="0" pos="240" key="57" len="-192" vol="100"/>
                <note pan="0" pos="288" key="57" len="-192" vol="100"/>
                <note pan="0" pos="336" key="57" len="-192" vol="100"/>
                <note pan="0" pos="348" key="57" len="-192" vol="100"/>
                <note pan="0" pos="360" key="57" len="-192" vol="100"/>
                <note pan="0" pos="372" key="57" len="-192" vol="100"/>
                <note pan="0" pos="384" key="57" len="-192" vol="100"/>
                <note pan="0" pos="432" key="57" len="-192" vol="100"/>
                <note pan="0" pos="480" key="57" len="-192" vol="100"/>
                <note pan="0" pos="528" key="57" len="-192" vol="100"/>
                <note pan="0" pos="540" key="57" len="-192" vol="100"/>
                <note pan="0" pos="552" key="57" len="-192" vol="100"/>
                <note pan="0" pos="564" key="57" len="-192" vol="100"/>
                <note pan="0" pos="576" key="57" len="-192" vol="100"/>
                <note pan="0" pos="588" key="57" len="-192" vol="100"/>
                <note pan="0" pos="600" key="57" len="-192" vol="100"/>
                <note pan="0" pos="612" key="57" len="-192" vol="100"/>
                <note pan="0" pos="624" key="57" len="-192" vol="100"/>
                <note pan="0" pos="636" key="57" len="-192" vol="100"/>
                <note pan="0" pos="648" key="57" len="-192" vol="100"/>
                <note pan="0" pos="660" key="57" len="-192" vol="100"/>
                <note pan="0" pos="672" key="57" len="-192" vol="100"/>
                <note pan="0" pos="684" key="57" len="-192" vol="100"/>
                <note pan="0" pos="696" key="57" len="-192" vol="100"/>
                <note pan="0" pos="708" key="57" len="-192" vol="100"/>
                <note pan="0" pos="720" key="57" len="-192" vol="100"/>
                <note pan="0" pos="732" key="57" len="-192" vol="100"/>
                <note pan="0" pos="744" key="57" len="-192" vol="100"/>
                <note pan="0" pos="756" key="57" len="-192" vol="100"/>
              </pattern>
              <pattern type="0" pos="1152" muted="0" name="kick.wav" steps="64">
                <note pan="0" pos="0" key="57" len="-192" vol="100"/>
                <note pan="0" pos="48" key="57" len="-192" vol="100"/>
                <note pan="0" pos="96" key="57" len="-192" vol="100"/>
                <note pan="0" pos="144" key="57" len="-192" vol="100"/>
                <note pan="0" pos="156" key="57" len="-192" vol="100"/>
                <note pan="0" pos="168" key="57" len="-192" vol="100"/>
                <note pan="0" pos="180" key="57" len="-192" vol="100"/>
                <note pan="0" pos="192" key="57" len="-192" vol="100"/>
                <note pan="0" pos="240" key="57" len="-192" vol="100"/>
                <note pan="0" pos="288" key="57" len="-192" vol="100"/>
                <note pan="0" pos="336" key="57" len="-192" vol="100"/>
                <note pan="0" pos="348" key="57" len="-192" vol="100"/>
                <note pan="0" pos="360" key="57" len="-192" vol="100"/>
                <note pan="0" pos="372" key="57" len="-192" vol="100"/>
                <note pan="0" pos="384" key="57" len="-192" vol="100"/>
                <note pan="0" pos="432" key="57" len="-192" vol="100"/>
                <note pan="0" pos="480" key="57" len="-192" vol="100"/>
                <note pan="0" pos="528" key="57" len="-192" vol="100"/>
                <note pan="0" pos="540" key="57" len="-192" vol="100"/>
                <note pan="0" pos="552" key="57" len="-192" vol="100"/>
                <note pan="0" pos="564" key="57" len="-192" vol="100"/>
                <note pan="0" pos="576" key="57" len="-192" vol="100"/>
                <note pan="0" pos="624" key="57" len="-192" vol="100"/>
                <note pan="0" pos="672" key="57" len="-192" vol="100"/>
                <note pan="0" pos="720" key="57" len="-192" vol="100"/>
                <note pan="0" pos="732" key="57" len="-192" vol="100"/>
                <note pan="0" pos="744" key="57" len="-192" vol="100"/>
                <note pan="0" pos="756" key="57" len="-192" vol="100"/>
              </pattern>
              <pattern type="0" pos="1344" muted="0" name="kick.wav" steps="32">
                <note pan="0" pos="0" key="57" len="-192" vol="100"/>
              </pattern>
              <pattern type="0" pos="1536" muted="0" name="kick.wav" steps="64">
                <note pan="0" pos="0" key="57" len="-192" vol="100"/>
                <note pan="0" pos="12" key="57" len="-192" vol="100"/>
                <note pan="0" pos="24" key="57" len="-192" vol="100"/>
                <note pan="0" pos="48" key="57" len="-192" vol="100"/>
                <note pan="0" pos="60" key="57" len="-192" vol="100"/>
                <note pan="0" pos="72" key="57" len="-192" vol="100"/>
                <note pan="0" pos="96" key="57" len="-192" vol="100"/>
                <note pan="0" pos="108" key="57" len="-192" vol="100"/>
                <note pan="0" pos="120" key="57" len="-192" vol="100"/>
                <note pan="0" pos="144" key="57" len="-192" vol="100"/>
                <note pan="0" pos="156" key="57" len="-192" vol="100"/>
                <note pan="0" pos="168" key="57" len="-192" vol="100"/>
                <note pan="0" pos="192" key="57" len="-192" vol="100"/>
                <note pan="0" pos="204" key="57" len="-192" vol="100"/>
                <note pan="0" pos="216" key="57" len="-192" vol="100"/>
                <note pan="0" pos="240" key="57" len="-192" vol="100"/>
                <note pan="0" pos="252" key="57" len="-192" vol="100"/>
                <note pan="0" pos="264" key="57" len="-192" vol="100"/>
                <note pan="0" pos="276" key="57" len="-192" vol="100"/>
                <note pan="0" pos="288" key="57" len="-192" vol="100"/>
                <note pan="0" pos="300" key="57" len="-192" vol="100"/>
                <note pan="0" pos="312" key="57" len="-192" vol="100"/>
                <note pan="0" pos="324" key="57" len="-192" vol="100"/>
                <note pan="0" pos="336" key="57" len="-192" vol="100"/>
                <note pan="0" pos="348" key="57" len="-192" vol="100"/>
                <note pan="0" pos="360" key="57" len="-192" vol="100"/>
                <note pan="0" pos="372" key="57" len="-192" vol="100"/>
                <note pan="0" pos="384" key="57" len="-192" vol="100"/>
                <note pan="0" pos="396" key="57" len="-192" vol="100"/>
                <note pan="0" pos="408" key="57" len="-192" vol="100"/>
                <note pan="0" pos="432" key="57" len="-192" vol="100"/>
                <note pan="0" pos="444" key="57" len="-192" vol="100"/>
                <note pan="0" pos="456" key="57" len="-192" vol="100"/>
                <note pan="0" pos="480" key="57" len="-192" vol="100"/>
                <note pan="0" pos="492" key="57" len="-192" vol="100"/>
                <note pan="0" pos="504" key="57" len="-192" vol="100"/>
                <note pan="0" pos="528" key="57" len="-192" vol="100"/>
                <note pan="0" pos="540" key="57" len="-192" vol="100"/>
                <note pan="0" pos="552" key="57" len="-192" vol="100"/>
                <note pan="0" pos="576" key="57" len="-192" vol="100"/>
                <note pan="0" pos="588" key="57" len="-192" vol="100"/>
                <note pan="0" pos="600" key="57" len="-192" vol="100"/>
                <note pan="0" pos="624" key="57" len="-192" vol="100"/>
                <note pan="0" pos="636" key="57" len="-192" vol="100"/>
                <note pan="0" pos="648" key="57" len="-192" vol="100"/>
                <note pan="0" pos="660" key="57" len="-192" vol="100"/>
                <note pan="0" pos="672" key="57" len="-192" vol="100"/>
                <note pan="0" pos="684" key="57" len="-192" vol="100"/>
                <note pan="0" pos="696" key="57" len="-192" vol="100"/>
                <note pan="0" pos="708" key="57" len="-192" vol="100"/>
                <note pan="0" pos="720" key="57" len="-192" vol="100"/>
                <note pan="0" pos="732" key="57" len="-192" vol="100"/>
                <note pan="0" pos="744" key="57" len="-192" vol="100"/>
                <note pan="0" pos="756" key="57" len="-192" vol="100"/>
              </pattern>
              <pattern type="0" pos="1728" muted="0" name="kick.wav" steps="32">
                <note pan="0" pos="0" key="57" len="-192" vol="100"/>
                <note pan="0" pos="12" key="57" len="-192" vol="100"/>
                <note pan="0" pos="24" key="57" len="-192" vol="100"/>
                <note pan="0" pos="36" key="57" len="-192" vol="100"/>
                <note pan="0" pos="48" key="57" len="-192" vol="100"/>
                <note pan="0" pos="60" key="57" len="-192" vol="100"/>
                <note pan="0" pos="72" key="57" len="-192" vol="100"/>
                <note pan="0" pos="84" key="57" len="-192" vol="100"/>
                <note pan="0" pos="96" key="57" len="-192" vol="100"/>
                <note pan="0" pos="108" key="57" len="-192" vol="100"/>
                <note pan="0" pos="120" key="57" len="-192" vol="100"/>
                <note pan="0" pos="132" key="57" len="-192" vol="100"/>
                <note pan="0" pos="144" key="57" len="-192" vol="100"/>
                <note pan="0" pos="156" key="57" len="-192" vol="100"/>
                <note pan="0" pos="168" key="57" len="-192" vol="100"/>
                <note pan="0" pos="180" key="57" len="-192" vol="100"/>
                <note pan="0" pos="192" key="57" len="-192" vol="100"/>
                <note pan="0" pos="204" key="57" len="-192" vol="100"/>
                <note pan="0" pos="216" key="57" len="-192" vol="100"/>
                <note pan="0" pos="228" key="57" len="-192" vol="100"/>
                <note pan="0" pos="240" key="57" len="-192" vol="100"/>
                <note pan="0" pos="252" key="57" len="-192" vol="100"/>
                <note pan="0" pos="264" key="57" len="-192" vol="100"/>
                <note pan="0" pos="276" key="57" len="-192" vol="100"/>
                <note pan="0" pos="288" key="57" len="-192" vol="100"/>
                <note pan="0" pos="300" key="57" len="-192" vol="100"/>
                <note pan="0" pos="312" key="57" len="-192" vol="100"/>
                <note pan="0" pos="324" key="57" len="-192" vol="100"/>
                <note pan="0" pos="336" key="57" len="-192" vol="100"/>
                <note pan="0" pos="348" key="57" len="-192" vol="100"/>
                <note pan="0" pos="360" key="57" len="-192" vol="100"/>
                <note pan="0" pos="372" key="57" len="-192" vol="100"/>
              </pattern>
              <pattern type="0" pos="1920" muted="0" name="kick.wav" steps="32">
                <note pan="0" pos="0" key="57" len="-192" vol="100"/>
                <note pan="0" pos="12" key="57" len="-192" vol="100"/>
                <note pan="0" pos="24" key="57" len="-192" vol="100"/>
                <note pan="0" pos="36" key="57" len="-192" vol="100"/>
                <note pan="0" pos="48" key="57" len="-192" vol="100"/>
                <note pan="0" pos="60" key="57" len="-192" vol="100"/>
                <note pan="0" pos="72" key="57" len="-192" vol="100"/>
                <note pan="0" pos="84" key="57" len="-192" vol="100"/>
                <note pan="0" pos="96" key="57" len="-192" vol="100"/>
                <note pan="0" pos="108" key="57" len="-192" vol="100"/>
                <note pan="0" pos="120" key="57" len="-192" vol="100"/>
                <note pan="0" pos="132" key="57" len="-192" vol="100"/>
                <note pan="0" pos="144" key="57" len="-192" vol="100"/>
                <note pan="0" pos="156" key="57" len="-192" vol="100"/>
                <note pan="0" pos="168" key="57" len="-192" vol="100"/>
                <note pan="0" pos="180" key="57" len="-192" vol="100"/>
                <note pan="0" pos="192" key="57" len="-192" vol="100"/>
                <note pan="0" pos="204" key="57" len="-192" vol="100"/>
                <note pan="0" pos="216" key="57" len="-192" vol="100"/>
                <note pan="0" pos="228" key="57" len="-192" vol="100"/>
                <note pan="0" pos="240" key="57" len="-192" vol="100"/>
                <note pan="0" pos="252" key="57" len="-192" vol="100"/>
                <note pan="0" pos="264" key="57" len="-192" vol="100"/>
                <note pan="0" pos="276" key="57" len="-192" vol="100"/>
                <note pan="0" pos="288" key="57" len="-192" vol="100"/>
                <note pan="0" pos="300" key="57" len="-192" vol="100"/>
                <note pan="0" pos="312" key="57" len="-192" vol="100"/>
                <note pan="0" pos="324" key="57" len="-192" vol="100"/>
                <note pan="0" pos="336" key="57" len="-192" vol="100"/>
                <note pan="0" pos="348" key="57" len="-192" vol="100"/>
                <note pan="0" pos="360" key="57" len="-192" vol="100"/>
                <note pan="0" pos="372" key="57" len="-192" vol="100"/>
              </pattern>
              <pattern type="0" pos="2112" muted="0" name="kick.wav" steps="32">
                <note pan="0" pos="0" key="57" len="-192" vol="100"/>
                <note pan="0" pos="12" key="57" len="-192" vol="100"/>
                <note pan="0" pos="24" key="57" len="-192" vol="100"/>
                <note pan="0" pos="36" key="57" len="-192" vol="100"/>
                <note pan="0" pos="48" key="57" len="-192" vol="100"/>
                <note pan="0" pos="60" key="57" len="-192" vol="100"/>
                <note pan="0" pos="72" key="57" len="-192" vol="100"/>
                <note pan="0" pos="84" key="57" len="-192" vol="100"/>
                <note pan="0" pos="96" key="57" len="-192" vol="100"/>
                <note pan="0" pos="108" key="57" len="-192" vol="100"/>
                <note pan="0" pos="120" key="57" len="-192" vol="100"/>
                <note pan="0" pos="132" key="57" len="-192" vol="100"/>
                <note pan="0" pos="144" key="57" len="-192" vol="100"/>
                <note pan="0" pos="156" key="57" len="-192" vol="100"/>
                <note pan="0" pos="168" key="57" len="-192" vol="100"/>
                <note pan="0" pos="180" key="57" len="-192" vol="100"/>
                <note pan="0" pos="192" key="57" len="-192" vol="100"/>
                <note pan="0" pos="204" key="57" len="-192" vol="100"/>
                <note pan="0" pos="216" key="57" len="-192" vol="100"/>
                <note pan="0" pos="228" key="57" len="-192" vol="100"/>
                <note pan="0" pos="240" key="57" len="-192" vol="100"/>
                <note pan="0" pos="252" key="57" len="-192" vol="100"/>
                <note pan="0" pos="264" key="57" len="-192" vol="100"/>
                <note pan="0" pos="276" key="57" len="-192" vol="100"/>
                <note pan="0" pos="288" key="57" len="-192" vol="100"/>
                <note pan="0" pos="300" key="57" len="-192" vol="100"/>
                <note pan="0" pos="312" key="57" len="-192" vol="100"/>
                <note pan="0" pos="324" key="57" len="-192" vol="100"/>
                <note pan="0" pos="336" key="57" len="-192" vol="100"/>
                <note pan="0" pos="348" key="57" len="-192" vol="100"/>
                <note pan="0" pos="360" key="57" len="-192" vol="100"/>
                <note pan="0" pos="372" key="57" len="-192" vol="100"/>
              </pattern>
              <pattern type="0" pos="2304" muted="0" name="kick.wav" steps="16">
                <note pan="0" pos="0" key="57" len="-192" vol="100"/>
                <note pan="0" pos="48" key="57" len="-192" vol="100"/>
                <note pan="0" pos="96" key="57" len="-192" vol="100"/>
                <note pan="0" pos="144" key="57" len="-192" vol="100"/>
                <note pan="0" pos="156" key="57" len="-192" vol="100"/>
                <note pan="0" pos="168" key="57" len="-192" vol="100"/>
                <note pan="0" pos="180" key="57" len="-192" vol="100"/>
              </pattern>
              <pattern type="0" pos="2496" muted="0" name="kick.wav" steps="16">
                <note pan="0" pos="0" key="57" len="-192" vol="100"/>
                <note pan="0" pos="12" key="57" len="-192" vol="100"/>
                <note pan="0" pos="24" key="57" len="-192" vol="100"/>
                <note pan="0" pos="36" key="57" len="-192" vol="100"/>
                <note pan="0" pos="48" key="57" len="-192" vol="100"/>
                <note pan="0" pos="60" key="57" len="-192" vol="100"/>
                <note pan="0" pos="72" key="57" len="-192" vol="100"/>
                <note pan="0" pos="84" key="57" len="-192" vol="100"/>
                <note pan="0" pos="96" key="57" len="-192" vol="100"/>
                <note pan="0" pos="144" key="57" len="-192" vol="100"/>
              </pattern>
              <pattern type="0" pos="2688" muted="0" name="kick.wav" steps="16">
                <note pan="0" pos="0" key="57" len="-192" vol="100"/>
                <note pan="0" pos="24" key="57" len="-192" vol="100"/>
                <note pan="0" pos="96" key="57" len="-192" vol="100"/>
                <note pan="0" pos="120" key="57" len="-192" vol="100"/>
              </pattern>
              <pattern type="0" pos="2880" muted="0" name="kick.wav" steps="32">
                <note pan="0" pos="96" key="57" len="-192" vol="100"/>
                <note pan="0" pos="192" key="57" len="-192" vol="100"/>
                <note pan="0" pos="288" key="57" len="-192" vol="100"/>
                <note pan="0" pos="336" key="57" len="-192" vol="100"/>
                <note pan="0" pos="348" key="57" len="-192" vol="100"/>
                <note pan="0" pos="360" key="57" len="-192" vol="100"/>
                <note pan="0" pos="372" key="57" len="-192" vol="100"/>
              </pattern>
              <pattern type="0" pos="3072" muted="0" name="kick.wav" steps="64">
                <note pan="0" pos="0" key="57" len="-192" vol="100"/>
                <note pan="0" pos="48" key="57" len="-192" vol="100"/>
                <note pan="0" pos="96" key="57" len="-192" vol="100"/>
                <note pan="0" pos="144" key="57" len="-192" vol="100"/>
                <note pan="0" pos="192" key="57" len="-192" vol="100"/>
                <note pan="0" pos="240" key="57" len="-192" vol="100"/>
                <note pan="0" pos="288" key="57" len="-192" vol="100"/>
                <note pan="0" pos="336" key="57" len="-192" vol="100"/>
                <note pan="0" pos="384" key="57" len="-192" vol="100"/>
                <note pan="0" pos="432" key="57" len="-192" vol="100"/>
                <note pan="0" pos="480" key="57" len="-192" vol="100"/>
                <note pan="0" pos="528" key="57" len="-192" vol="100"/>
                <note pan="0" pos="576" key="57" len="-192" vol="100"/>
                <note pan="0" pos="624" key="57" len="-192" vol="100"/>
                <note pan="0" pos="672" key="57" len="-192" vol="100"/>
                <note pan="0" pos="684" key="57" len="-192" vol="100"/>
                <note pan="0" pos="696" key="57" len="-192" vol="100"/>
                <note pan="0" pos="708" key="57" len="-192" vol="100"/>
                <note pan="0" pos="720" key="57" len="-192" vol="100"/>
                <note pan="0" pos="732" key="57" len="-192" vol="100"/>
                <note pan="0" pos="744" key="57" len="-192" vol="100"/>
                <note pan="0" pos="756" key="57" len="-192" vol="100"/>
              </pattern>
              <pattern type="0" pos="3264" muted="0" name="kick.wav" steps="32">
                <note pan="0" pos="0" key="57" len="-192" vol="100"/>
                <note pan="0" pos="12" key="57" len="-192" vol="100"/>
                <note pan="0" pos="24" key="57" len="-192" vol="100"/>
                <note pan="0" pos="36" key="57" len="-192" vol="100"/>
                <note pan="0" pos="48" key="57" len="-192" vol="100"/>
                <note pan="0" pos="60" key="57" len="-192" vol="100"/>
                <note pan="0" pos="72" key="57" len="-192" vol="100"/>
                <note pan="0" pos="84" key="57" len="-192" vol="100"/>
                <note pan="0" pos="96" key="57" len="-192" vol="100"/>
                <note pan="0" pos="108" key="57" len="-192" vol="100"/>
                <note pan="0" pos="120" key="57" len="-192" vol="100"/>
                <note pan="0" pos="132" key="57" len="-192" vol="100"/>
                <note pan="0" pos="144" key="57" len="-192" vol="100"/>
                <note pan="0" pos="156" key="57" len="-192" vol="100"/>
                <note pan="0" pos="168" key="57" len="-192" vol="100"/>
                <note pan="0" pos="180" key="57" len="-192" vol="100"/>
                <note pan="0" pos="192" key="57" len="-192" vol="100"/>
                <note pan="0" pos="204" key="57" len="-192" vol="100"/>
                <note pan="0" pos="216" key="57" len="-192" vol="100"/>
                <note pan="0" pos="228" key="57" len="-192" vol="100"/>
                <note pan="0" pos="240" key="57" len="-192" vol="100"/>
                <note pan="0" pos="252" key="57" len="-192" vol="100"/>
                <note pan="0" pos="264" key="57" len="-192" vol="100"/>
                <note pan="0" pos="276" key="57" len="-192" vol="100"/>
                <note pan="0" pos="288" key="57" len="-192" vol="100"/>
                <note pan="0" pos="300" key="57" len="-192" vol="100"/>
                <note pan="0" pos="312" key="57" len="-192" vol="100"/>
                <note pan="0" pos="324" key="57" len="-192" vol="100"/>
                <note pan="0" pos="336" key="57" len="-192" vol="100"/>
                <note pan="0" pos="348" key="57" len="-192" vol="100"/>
                <note pan="0" pos="360" key="57" len="-192" vol="100"/>
                <note pan="0" pos="372" key="57" len="-192" vol="100"/>
              </pattern>
              <pattern type="0" pos="3456" muted="0" name="kick.wav" steps="32">
                <note pan="0" pos="0" key="57" len="-192" vol="100"/>
                <note pan="0" pos="12" key="57" len="-192" vol="100"/>
                <note pan="0" pos="24" key="57" len="-192" vol="100"/>
                <note pan="0" pos="36" key="57" len="-192" vol="100"/>
                <note pan="0" pos="48" key="57" len="-192" vol="100"/>
                <note pan="0" pos="60" key="57" len="-192" vol="100"/>
                <note pan="0" pos="72" key="57" len="-192" vol="100"/>
                <note pan="0" pos="84" key="57" len="-192" vol="100"/>
                <note pan="0" pos="96" key="57" len="-192" vol="100"/>
                <note pan="0" pos="108" key="57" len="-192" vol="100"/>
                <note pan="0" pos="120" key="57" len="-192" vol="100"/>
                <note pan="0" pos="132" key="57" len="-192" vol="100"/>
                <note pan="0" pos="144" key="57" len="-192" vol="100"/>
                <note pan="0" pos="156" key="57" len="-192" vol="100"/>
                <note pan="0" pos="168" key="57" len="-192" vol="100"/>
                <note pan="0" pos="180" key="57" len="-192" vol="100"/>
                <note pan="0" pos="192" key="57" len="-192" vol="100"/>
              </pattern>
              <pattern type="0" pos="3648" muted="0" name="kick.wav" steps="16">
                <note pan="0" pos="0" key="57" len="-192" vol="100"/>
                <note pan="0" pos="96" key="57" len="-192" vol="100"/>
                <note pan="0" pos="168" key="57" len="-192" vol="100"/>
                <note pan="0" pos="180" key="57" len="-192" vol="100"/>
              </pattern>
              <pattern type="0" pos="3840" muted="0" name="kick.wav" steps="32">
                <note pan="0" pos="0" key="57" len="-192" vol="100"/>
                <note pan="0" pos="24" key="57" len="-192" vol="100"/>
                <note pan="0" pos="36" key="57" len="-192" vol="100"/>
                <note pan="0" pos="48" key="57" len="-192" vol="100"/>
                <note pan="0" pos="60" key="57" len="-192" vol="100"/>
                <note pan="0" pos="72" key="57" len="-192" vol="100"/>
                <note pan="0" pos="120" key="57" len="-192" vol="100"/>
                <note pan="0" pos="144" key="57" len="-192" vol="100"/>
                <note pan="0" pos="168" key="57" len="-192" vol="100"/>
                <note pan="0" pos="192" key="57" len="-192" vol="100"/>
                <note pan="0" pos="204" key="57" len="-192" vol="100"/>
                <note pan="0" pos="216" key="57" len="-192" vol="100"/>
                <note pan="0" pos="228" key="57" len="-192" vol="100"/>
                <note pan="0" pos="240" key="57" len="-192" vol="100"/>
                <note pan="0" pos="252" key="57" len="-192" vol="100"/>
                <note pan="0" pos="264" key="57" len="-192" vol="100"/>
                <note pan="0" pos="276" key="57" len="-192" vol="100"/>
                <note pan="0" pos="288" key="57" len="-192" vol="100"/>
                <note pan="0" pos="300" key="57" len="-192" vol="100"/>
                <note pan="0" pos="312" key="57" len="-192" vol="100"/>
                <note pan="0" pos="324" key="57" len="-192" vol="100"/>
                <note pan="0" pos="336" key="57" len="-192" vol="100"/>
                <note pan="0" pos="348" key="57" len="-192" vol="100"/>
                <note pan="0" pos="360" key="57" len="-192" vol="100"/>
                <note pan="0" pos="372" key="57" len="-192" vol="100"/>
              </pattern>
              <pattern type="0" pos="4032" muted="0" name="kick.wav" steps="64">
                <note pan="0" pos="0" key="57" len="-192" vol="100"/>
                <note pan="0" pos="192" key="57" len="-192" vol="100"/>
                <note pan="0" pos="384" key="57" len="-192" vol="100"/>
                <note pan="0" pos="672" key="57" len="-192" vol="100"/>
              </pattern>
              <pattern type="0" pos="4224" muted="0" name="kick.wav" steps="64">
                <note pan="0" pos="0" key="57" len="-192" vol="100"/>
                <note pan="0" pos="192" key="57" len="-192" vol="100"/>
                <note pan="0" pos="384" key="57" len="-192" vol="100"/>
                <note pan="0" pos="576" key="57" len="-192" vol="100"/>
                <note pan="0" pos="672" key="57" len="-192" vol="100"/>
              </pattern>
              <pattern type="0" pos="4416" muted="0" name="kick.wav" steps="64">
                <note pan="0" pos="0" key="57" len="-192" vol="100"/>
                <note pan="0" pos="384" key="57" len="-192" vol="100"/>
                <note pan="0" pos="576" key="57" len="-192" vol="100"/>
                <note pan="0" pos="672" key="57" len="-192" vol="100"/>
              </pattern>
              <pattern type="0" pos="4608" muted="0" name="kick.wav" steps="128">
                <note pan="0" pos="0" key="57" len="-192" vol="100"/>
                <note pan="0" pos="24" key="57" len="-192" vol="100"/>
                <note pan="0" pos="48" key="57" len="-192" vol="100"/>
                <note pan="0" pos="72" key="57" len="-192" vol="100"/>
                <note pan="0" pos="84" key="57" len="-192" vol="100"/>
                <note pan="0" pos="96" key="57" len="-192" vol="100"/>
                <note pan="0" pos="108" key="57" len="-192" vol="100"/>
                <note pan="0" pos="120" key="57" len="-192" vol="100"/>
                <note pan="0" pos="144" key="57" len="-192" vol="100"/>
                <note pan="0" pos="156" key="57" len="-192" vol="100"/>
                <note pan="0" pos="168" key="57" len="-192" vol="100"/>
                <note pan="0" pos="180" key="57" len="-192" vol="100"/>
                <note pan="0" pos="192" key="57" len="-192" vol="100"/>
                <note pan="0" pos="216" key="57" len="-192" vol="100"/>
                <note pan="0" pos="228" key="57" len="-192" vol="100"/>
                <note pan="0" pos="240" key="57" len="-192" vol="100"/>
                <note pan="0" pos="252" key="57" len="-192" vol="100"/>
                <note pan="0" pos="264" key="57" len="-192" vol="100"/>
                <note pan="0" pos="288" key="57" len="-192" vol="100"/>
                <note pan="0" pos="300" key="57" len="-192" vol="100"/>
                <note pan="0" pos="312" key="57" len="-192" vol="100"/>
                <note pan="0" pos="336" key="57" len="-192" vol="100"/>
                <note pan="0" pos="348" key="57" len="-192" vol="100"/>
                <note pan="0" pos="360" key="57" len="-192" vol="100"/>
                <note pan="0" pos="372" key="57" len="-192" vol="100"/>
                <note pan="0" pos="384" key="57" len="-192" vol="100"/>
                <note pan="0" pos="408" key="57" len="-192" vol="100"/>
                <note pan="0" pos="432" key="57" len="-192" vol="100"/>
                <note pan="0" pos="456" key="57" len="-192" vol="100"/>
                <note pan="0" pos="468" key="57" len="-192" vol="100"/>
                <note pan="0" pos="480" key="57" len="-192" vol="100"/>
                <note pan="0" pos="492" key="57" len="-192" vol="100"/>
                <note pan="0" pos="504" key="57" len="-192" vol="100"/>
                <note pan="0" pos="528" key="57" len="-192" vol="100"/>
                <note pan="0" pos="540" key="57" len="-192" vol="100"/>
                <note pan="0" pos="552" key="57" len="-192" vol="100"/>
                <note pan="0" pos="564" key="57" len="-192" vol="100"/>
                <note pan="0" pos="576" key="57" len="-192" vol="100"/>
                <note pan="0" pos="600" key="57" len="-192" vol="100"/>
                <note pan="0" pos="612" key="57" len="-192" vol="100"/>
                <note pan="0" pos="624" key="57" len="-192" vol="100"/>
                <note pan="0" pos="636" key="57" len="-192" vol="100"/>
                <note pan="0" pos="648" key="57" len="-192" vol="100"/>
                <note pan="0" pos="672" key="57" len="-192" vol="100"/>
                <note pan="0" pos="684" key="57" len="-192" vol="100"/>
                <note pan="0" pos="696" key="57" len="-192" vol="100"/>
                <note pan="0" pos="720" key="57" len="-192" vol="100"/>
                <note pan="0" pos="732" key="57" len="-192" vol="100"/>
                <note pan="0" pos="744" key="57" len="-192" vol="100"/>
                <note pan="0" pos="756" key="57" len="-192" vol="100"/>
                <note pan="0" pos="768" key="57" len="-192" vol="100"/>
                <note pan="0" pos="792" key="57" len="-192" vol="100"/>
                <note pan="0" pos="816" key="57" len="-192" vol="100"/>
                <note pan="0" pos="840" key="57" len="-192" vol="100"/>
                <note pan="0" pos="852" key="57" len="-192" vol="100"/>
                <note pan="0" pos="864" key="57" len="-192" vol="100"/>
                <note pan="0" pos="876" key="57" len="-192" vol="100"/>
                <note pan="0" pos="888" key="57" len="-192" vol="100"/>
                <note pan="0" pos="912" key="57" len="-192" vol="100"/>
                <note pan="0" pos="924" key="57" len="-192" vol="100"/>
                <note pan="0" pos="936" key="57" len="-192" vol="100"/>
                <note pan="0" pos="948" key="57" len="-192" vol="100"/>
                <note pan="0" pos="960" key="57" len="-192" vol="100"/>
                <note pan="0" pos="984" key="57" len="-192" vol="100"/>
                <note pan="0" pos="996" key="57" len="-192" vol="100"/>
                <note pan="0" pos="1008" key="57" len="-192" vol="100"/>
                <note pan="0" pos="1020" key="57" len="-192" vol="100"/>
                <note pan="0" pos="1032" key="57" len="-192" vol="100"/>
                <note pan="0" pos="1056" key="57" len="-192" vol="100"/>
                <note pan="0" pos="1068" key="57" len="-192" vol="100"/>
                <note pan="0" pos="1080" key="57" len="-192" vol="100"/>
                <note pan="0" pos="1104" key="57" len="-192" vol="100"/>
                <note pan="0" pos="1116" key="57" len="-192" vol="100"/>
                <note pan="0" pos="1128" key="57" len="-192" vol="100"/>
                <note pan="0" pos="1140" key="57" len="-192" vol="100"/>
                <note pan="0" pos="1152" key="57" len="-192" vol="100"/>
                <note pan="0" pos="1176" key="57" len="-192" vol="100"/>
                <note pan="0" pos="1200" key="57" len="-192" vol="100"/>
                <note pan="0" pos="1224" key="57" len="-192" vol="100"/>
                <note pan="0" pos="1236" key="57" len="-192" vol="100"/>
                <note pan="0" pos="1248" key="57" len="-192" vol="100"/>
                <note pan="0" pos="1260" key="57" len="-192" vol="100"/>
                <note pan="0" pos="1272" key="57" len="-192" vol="100"/>
                <note pan="0" pos="1296" key="57" len="-192" vol="100"/>
                <note pan="0" pos="1308" key="57" len="-192" vol="100"/>
                <note pan="0" pos="1320" key="57" len="-192" vol="100"/>
                <note pan="0" pos="1332" key="57" len="-192" vol="100"/>
                <note pan="0" pos="1344" key="57" len="-192" vol="100"/>
                <note pan="0" pos="1368" key="57" len="-192" vol="100"/>
                <note pan="0" pos="1380" key="57" len="-192" vol="100"/>
                <note pan="0" pos="1392" key="57" len="-192" vol="100"/>
                <note pan="0" pos="1404" key="57" len="-192" vol="100"/>
                <note pan="0" pos="1416" key="57" len="-192" vol="100"/>
                <note pan="0" pos="1440" key="57" len="-192" vol="100"/>
                <note pan="0" pos="1452" key="57" len="-192" vol="100"/>
                <note pan="0" pos="1464" key="57" len="-192" vol="100"/>
                <note pan="0" pos="1488" key="57" len="-192" vol="100"/>
                <note pan="0" pos="1500" key="57" len="-192" vol="100"/>
                <note pan="0" pos="1512" key="57" len="-192" vol="100"/>
                <note pan="0" pos="1524" key="57" len="-192" vol="100"/>
              </pattern>
              <pattern type="0" pos="4800" muted="0" name="kick.wav" steps="16">
                <note pan="0" pos="0" key="57" len="-192" vol="100"/>
                <note pan="0" pos="12" key="57" len="-192" vol="100"/>
                <note pan="0" pos="24" key="57" len="-192" vol="100"/>
                <note pan="0" pos="36" key="57" len="-192" vol="100"/>
                <note pan="0" pos="48" key="57" len="-192" vol="100"/>
                <note pan="0" pos="60" key="57" len="-192" vol="100"/>
                <note pan="0" pos="72" key="57" len="-192" vol="100"/>
                <note pan="0" pos="84" key="57" len="-192" vol="100"/>
                <note pan="0" pos="96" key="57" len="-192" vol="100"/>
                <note pan="0" pos="108" key="57" len="-192" vol="100"/>
                <note pan="0" pos="120" key="57" len="-192" vol="100"/>
                <note pan="0" pos="132" key="57" len="-192" vol="100"/>
                <note pan="0" pos="144" key="57" len="-192" vol="100"/>
                <note pan="0" pos="156" key="57" len="-192" vol="100"/>
                <note pan="0" pos="168" key="57" len="-192" vol="100"/>
                <note pan="0" pos="180" key="57" len="-192" vol="100"/>
              </pattern>
              <pattern type="0" pos="4992" muted="0" name="kick.wav" steps="16">
                <note pan="0" pos="0" key="57" len="-192" vol="100"/>
              </pattern>
            </track>
            <track type="0" muted="0" name="hihat_opened02.ogg" solo="0">
              <instrumenttrack pan="-16.8" pitch="0" basenote="57" usemasterpitch="1" vol="47.2" fxch="2" pitchrange="1">
                <instrument name="audiofileprocessor">
                  <audiofileprocessor looped="0" stutter="0" reversed="0" lframe="0" amp="100" eframe="1" sframe="0" interp="1" src="drums/hihat_opened02.ogg"/>
                </instrument>
                <eldata fres="0.5" fcut="14000" fwet="0" ftype="0">
                  <elvol lspd_numerator="4" userwavefile="" lshp="0" x100="0" amt="1" lspd_syncmode="0" ctlenvamt="0" dec="2" hold="2" lspd_denominator="4" sustain="0" lamt="0" lspd="0.1" pdel="0" att="0" lpdel="0" latt="0" rel="0"/>
                  <elcut lspd_numerator="4" userwavefile="" lshp="0" x100="0" amt="0" lspd_syncmode="0" ctlenvamt="0" dec="0.5" hold="0.5" lspd_denominator="4" sustain="0.5" lamt="0" lspd="0.1" pdel="0" att="0" lpdel="0" latt="0" rel="0.1"/>
                  <elres lspd_numerator="4" userwavefile="" lshp="0" x100="0" amt="0" lspd_syncmode="0" ctlenvamt="0" dec="0.5" hold="0.5" lspd_denominator="4" sustain="0.5" lamt="0" lspd="0.1" pdel="0" att="0" lpdel="0" latt="0" rel="0.1"/>
                </eldata>
                <chordcreator chordrange="1" chord="0" chord-enabled="0"/>
                <arpeggiator arpskip="0" arpmiss="0" arp-enabled="0" arpgate="100" arpdir="0" arpcycle="0" arprange="1" arptime_numerator="4" arptime_denominator="4" arptime_syncmode="0" arptime="200" arp="0" arpmode="0"/>
                <midiport outputcontroller="0" inputchannel="0" outputchannel="1" fixedoutputvelocity="-1" readable="0" inputcontroller="0" basevelocity="63" fixedoutputnote="-1" fixedinputvelocity="-1" outputprogram="1" writable="0"/>
                <fxchain enabled="0" numofeffects="0"/>
              </instrumenttrack>
              <pattern type="0" pos="0" muted="0" name="hihat_opened02.ogg" steps="64"/>
              <pattern type="0" pos="192" muted="0" name="hihat_opened02.ogg" steps="64"/>
              <pattern type="0" pos="384" muted="0" name="hihat_opened02.ogg" steps="32"/>
              <pattern type="0" pos="576" muted="0" name="hihat_opened02.ogg" steps="64">
                <note pan="0" pos="0" key="57" len="-192" vol="100"/>
                <note pan="0" pos="48" key="57" len="-192" vol="100"/>
                <note pan="0" pos="96" key="57" len="-192" vol="100"/>
                <note pan="0" pos="144" key="57" len="-192" vol="100"/>
                <note pan="0" pos="192" key="57" len="-192" vol="100"/>
                <note pan="0" pos="240" key="57" len="-192" vol="100"/>
                <note pan="0" pos="288" key="57" len="-192" vol="100"/>
                <note pan="0" pos="336" key="57" len="-192" vol="100"/>
                <note pan="0" pos="384" key="57" len="-192" vol="100"/>
                <note pan="0" pos="432" key="57" len="-192" vol="100"/>
                <note pan="0" pos="480" key="57" len="-192" vol="100"/>
                <note pan="0" pos="528" key="57" len="-192" vol="100"/>
                <note pan="0" pos="576" key="57" len="-192" vol="100"/>
                <note pan="0" pos="624" key="57" len="-192" vol="100"/>
                <note pan="0" pos="672" key="57" len="-192" vol="100"/>
                <note pan="0" pos="720" key="57" len="-192" vol="100"/>
              </pattern>
              <pattern type="0" pos="768" muted="0" name="hihat_opened02.ogg" steps="16"/>
              <pattern type="0" pos="960" muted="0" name="hihat_opened02.ogg" steps="64">
                <note pan="0" pos="0" key="57" len="-192" vol="100"/>
                <note pan="0" pos="48" key="57" len="-192" vol="100"/>
                <note pan="0" pos="96" key="57" len="-192" vol="100"/>
                <note pan="0" pos="144" key="57" len="-192" vol="100"/>
                <note pan="0" pos="192" key="57" len="-192" vol="100"/>
                <note pan="0" pos="240" key="57" len="-192" vol="100"/>
                <note pan="0" pos="288" key="57" len="-192" vol="100"/>
                <note pan="0" pos="336" key="57" len="-192" vol="100"/>
                <note pan="0" pos="384" key="57" len="-192" vol="100"/>
                <note pan="0" pos="432" key="57" len="-192" vol="100"/>
                <note pan="0" pos="480" key="57" len="-192" vol="100"/>
                <note pan="0" pos="528" key="57" len="-192" vol="100"/>
                <note pan="0" pos="576" key="57" len="-192" vol="100"/>
                <note pan="0" pos="624" key="57" len="-192" vol="100"/>
                <note pan="0" pos="672" key="57" len="-192" vol="100"/>
                <note pan="0" pos="720" key="57" len="-192" vol="100"/>
              </pattern>
              <pattern type="0" pos="1152" muted="0" name="hihat_opened02.ogg" steps="64">
                <note pan="0" pos="0" key="57" len="-192" vol="100"/>
                <note pan="0" pos="48" key="57" len="-192" vol="100"/>
                <note pan="0" pos="96" key="57" len="-192" vol="100"/>
                <note pan="0" pos="144" key="57" len="-192" vol="100"/>
                <note pan="0" pos="192" key="57" len="-192" vol="100"/>
                <note pan="0" pos="240" key="57" len="-192" vol="100"/>
                <note pan="0" pos="288" key="57" len="-192" vol="100"/>
                <note pan="0" pos="336" key="57" len="-192" vol="100"/>
                <note pan="0" pos="384" key="57" len="-192" vol="100"/>
                <note pan="0" pos="432" key="57" len="-192" vol="100"/>
                <note pan="0" pos="480" key="57" len="-192" vol="100"/>
                <note pan="0" pos="528" key="57" len="-192" vol="100"/>
                <note pan="0" pos="576" key="57" len="-192" vol="100"/>
                <note pan="0" pos="624" key="57" len="-192" vol="100"/>
                <note pan="0" pos="672" key="57" len="-192" vol="100"/>
                <note pan="0" pos="720" key="57" len="-192" vol="100"/>
              </pattern>
              <pattern type="0" pos="1344" muted="0" name="hihat_opened02.ogg" steps="32"/>
              <pattern type="0" pos="1536" muted="0" name="hihat_opened02.ogg" steps="64">
                <note pan="0" pos="48" key="57" len="-192" vol="100"/>
                <note pan="0" pos="96" key="57" len="-192" vol="100"/>
                <note pan="0" pos="144" key="57" len="-192" vol="100"/>
                <note pan="0" pos="240" key="57" len="-192" vol="100"/>
                <note pan="0" pos="288" key="57" len="-192" vol="100"/>
                <note pan="0" pos="336" key="57" len="-192" vol="100"/>
                <note pan="0" pos="432" key="57" len="-192" vol="100"/>
                <note pan="0" pos="480" key="57" len="-192" vol="100"/>
                <note pan="0" pos="528" key="57" len="-192" vol="100"/>
                <note pan="0" pos="624" key="57" len="-192" vol="100"/>
                <note pan="0" pos="672" key="57" len="-192" vol="100"/>
                <note pan="0" pos="720" key="57" len="-192" vol="100"/>
              </pattern>
              <pattern type="0" pos="1728" muted="0" name="hihat_opened02.ogg" steps="32">
                <note pan="0" pos="48" key="57" len="-192" vol="100"/>
                <note pan="0" pos="96" key="57" len="-192" vol="100"/>
                <note pan="0" pos="144" key="57" len="-192" vol="100"/>
                <note pan="0" pos="240" key="57" len="-192" vol="100"/>
                <note pan="0" pos="288" key="57" len="-192" vol="100"/>
                <note pan="0" pos="336" key="57" len="-192" vol="100"/>
              </pattern>
              <pattern type="0" pos="1920" muted="0" name="hihat_opened02.ogg" steps="32">
                <note pan="0" pos="48" key="57" len="-192" vol="100"/>
                <note pan="0" pos="96" key="57" len="-192" vol="100"/>
                <note pan="0" pos="144" key="57" len="-192" vol="100"/>
                <note pan="0" pos="240" key="57" len="-192" vol="100"/>
                <note pan="0" pos="288" key="57" len="-192" vol="100"/>
              </pattern>
              <pattern type="0" pos="2112" muted="0" name="hihat_opened02.ogg" steps="32">
                <note pan="0" pos="0" key="57" len="-192" vol="100"/>
                <note pan="0" pos="96" key="57" len="-192" vol="100"/>
                <note pan="0" pos="192" key="57" len="-192" vol="100"/>
                <note pan="0" pos="288" key="57" len="-192" vol="100"/>
              </pattern>
              <pattern type="0" pos="2304" muted="0" name="hihat_opened02.ogg" steps="16"/>
              <pattern type="0" pos="2496" muted="0" name="hihat_opened02.ogg" steps="16"/>
              <pattern type="0" pos="2688" muted="0" name="hihat_opened02.ogg" steps="16"/>
              <pattern type="0" pos="2880" muted="0" name="hihat_opened02.ogg" steps="32"/>
              <pattern type="0" pos="3072" muted="0" name="hihat_opened02.ogg" steps="64"/>
              <pattern type="0" pos="3264" muted="0" name="hihat_opened02.ogg" steps="32">
                <note pan="0" pos="0" key="57" len="-192" vol="100"/>
              </pattern>
              <pattern type="0" pos="3456" muted="0" name="hihat_opened02.ogg" steps="32"/>
              <pattern type="0" pos="3648" muted="0" name="hihat_opened02.ogg" steps="16"/>
              <pattern type="0" pos="3840" muted="0" name="hihat_opened02.ogg" steps="32"/>
              <pattern type="0" pos="4032" muted="0" name="hihat_opened02.ogg" steps="64"/>
              <pattern type="0" pos="4224" muted="0" name="hihat_opened02.ogg" steps="64"/>
              <pattern type="0" pos="4416" muted="0" name="hihat_opened02.ogg" steps="64"/>
              <pattern type="0" pos="4608" muted="0" name="hihat_opened02.ogg" steps="128">
                <note pan="0" pos="0" key="57" len="-192" vol="100"/>
                <note pan="0" pos="48" key="57" len="-192" vol="100"/>
                <note pan="0" pos="96" key="57" len="-192" vol="100"/>
                <note pan="0" pos="144" key="57" len="-192" vol="100"/>
                <note pan="0" pos="192" key="57" len="-192" vol="100"/>
                <note pan="0" pos="240" key="57" len="-192" vol="100"/>
                <note pan="0" pos="288" key="57" len="-192" vol="100"/>
                <note pan="0" pos="336" key="57" len="-192" vol="100"/>
                <note pan="0" pos="384" key="57" len="-192" vol="100"/>
                <note pan="0" pos="432" key="57" len="-192" vol="100"/>
                <note pan="0" pos="480" key="57" len="-192" vol="100"/>
                <note pan="0" pos="528" key="57" len="-192" vol="100"/>
                <note pan="0" pos="576" key="57" len="-192" vol="100"/>
                <note pan="0" pos="624" key="57" len="-192" vol="100"/>
                <note pan="0" pos="672" key="57" len="-192" vol="100"/>
                <note pan="0" pos="720" key="57" len="-192" vol="100"/>
                <note pan="0" pos="768" key="57" len="-192" vol="100"/>
                <note pan="0" pos="816" key="57" len="-192" vol="100"/>
                <note pan="0" pos="864" key="57" len="-192" vol="100"/>
                <note pan="0" pos="912" key="57" len="-192" vol="100"/>
                <note pan="0" pos="960" key="57" len="-192" vol="100"/>
                <note pan="0" pos="1008" key="57" len="-192" vol="100"/>
                <note pan="0" pos="1056" key="57" len="-192" vol="100"/>
                <note pan="0" pos="1104" key="57" len="-192" vol="100"/>
                <note pan="0" pos="1152" key="57" len="-192" vol="100"/>
                <note pan="0" pos="1200" key="57" len="-192" vol="100"/>
                <note pan="0" pos="1248" key="57" len="-192" vol="100"/>
                <note pan="0" pos="1296" key="57" len="-192" vol="100"/>
                <note pan="0" pos="1344" key="57" len="-192" vol="100"/>
                <note pan="0" pos="1392" key="57" len="-192" vol="100"/>
                <note pan="0" pos="1440" key="57" len="-192" vol="100"/>
                <note pan="0" pos="1488" key="57" len="-192" vol="100"/>
              </pattern>
              <pattern type="0" pos="4800" muted="0" name="hihat_opened02.ogg" steps="16"/>
              <pattern type="0" pos="4992" muted="0" name="hihat_opened02.ogg" steps="16"/>
            </track>
            <track type="0" muted="0" name="snare.wav" solo="0">
              <instrumenttrack pan="0" pitch="0" basenote="57" usemasterpitch="1" vol="200" fxch="3" pitchrange="1">
                <instrument name="audiofileprocessor">
                  <audiofileprocessor looped="0" stutter="0" reversed="0" lframe="0" amp="100" eframe="1" sframe="0" interp="1" src="/home/huggypie/samples/sillydrums/snare.wav"/>
                </instrument>
                <eldata fres="0.5" fcut="14000" fwet="0" ftype="0">
                  <elvol lspd_numerator="4" userwavefile="" lshp="0" x100="0" amt="1" lspd_syncmode="0" ctlenvamt="0" dec="2" hold="2" lspd_denominator="4" sustain="1" lamt="0" lspd="0.1" pdel="0" att="0" lpdel="0" latt="0" rel="2"/>
                  <elcut lspd_numerator="4" userwavefile="" lshp="0" x100="0" amt="0" lspd_syncmode="0" ctlenvamt="0" dec="0.5" hold="0.5" lspd_denominator="4" sustain="0.5" lamt="0" lspd="0.1" pdel="0" att="0" lpdel="0" latt="0" rel="0.1"/>
                  <elres lspd_numerator="4" userwavefile="" lshp="0" x100="0" amt="0" lspd_syncmode="0" ctlenvamt="0" dec="0.5" hold="0.5" lspd_denominator="4" sustain="0.5" lamt="0" lspd="0.1" pdel="0" att="0" lpdel="0" latt="0" rel="0.1"/>
                </eldata>
                <chordcreator chordrange="1" chord="0" chord-enabled="0"/>
                <arpeggiator arpskip="0" arpmiss="0" arp-enabled="0" arpgate="100" arpdir="0" arpcycle="0" arprange="1" arptime_numerator="4" arptime_denominator="4" arptime_syncmode="0" arptime="200" arp="0" arpmode="0"/>
                <midiport outputcontroller="0" inputchannel="0" outputchannel="1" fixedoutputvelocity="-1" readable="0" inputcontroller="0" basevelocity="63" fixedoutputnote="-1" fixedinputvelocity="-1" outputprogram="1" writable="0"/>
                <fxchain enabled="0" numofeffects="0"/>
              </instrumenttrack>
              <pattern type="0" pos="0" muted="0" name="snare.wav" steps="64"/>
              <pattern type="0" pos="192" muted="0" name="snare.wav" steps="64">
                <note pan="0" pos="720" key="57" len="-192" vol="100"/>
                <note pan="0" pos="732" key="57" len="-192" vol="100"/>
                <note pan="0" pos="744" key="57" len="-192" vol="100"/>
                <note pan="0" pos="756" key="57" len="-192" vol="100"/>
              </pattern>
              <pattern type="0" pos="384" muted="0" name="snare.wav" steps="32">
                <note pan="0" pos="48" key="57" len="-192" vol="100"/>
                <note pan="0" pos="60" key="57" len="-192" vol="100"/>
                <note pan="0" pos="120" key="57" len="-192" vol="100"/>
                <note pan="0" pos="132" key="57" len="-192" vol="100"/>
                <note pan="0" pos="192" key="57" len="-192" vol="100"/>
                <note pan="0" pos="204" key="57" len="-192" vol="100"/>
                <note pan="0" pos="264" key="57" len="-192" vol="100"/>
                <note pan="0" pos="276" key="57" len="-192" vol="100"/>
                <note pan="0" pos="312" key="57" len="-192" vol="100"/>
                <note pan="0" pos="360" key="57" len="-192" vol="100"/>
                <note pan="0" pos="372" key="57" len="-192" vol="100"/>
              </pattern>
              <pattern type="0" pos="576" muted="0" name="snare.wav" steps="64">
                <note pan="0" pos="24" key="57" len="-192" vol="100"/>
                <note pan="0" pos="72" key="57" len="-192" vol="100"/>
                <note pan="0" pos="120" key="57" len="-192" vol="100"/>
                <note pan="0" pos="168" key="57" len="-192" vol="100"/>
                <note pan="0" pos="216" key="57" len="-192" vol="100"/>
                <note pan="0" pos="264" key="57" len="-192" vol="100"/>
                <note pan="0" pos="312" key="57" len="-192" vol="100"/>
                <note pan="0" pos="360" key="57" len="-192" vol="100"/>
                <note pan="0" pos="408" key="57" len="-192" vol="100"/>
                <note pan="0" pos="456" key="57" len="-192" vol="100"/>
                <note pan="0" pos="504" key="57" len="-192" vol="100"/>
                <note pan="0" pos="552" key="57" len="-192" vol="100"/>
                <note pan="0" pos="600" key="57" len="-192" vol="100"/>
                <note pan="0" pos="648" key="57" len="-192" vol="100"/>
                <note pan="0" pos="696" key="57" len="-192" vol="100"/>
                <note pan="0" pos="744" key="57" len="-192" vol="100"/>
              </pattern>
              <pattern type="0" pos="768" muted="0" name="snare.wav" steps="16">
                <note pan="0" pos="0" key="57" len="-192" vol="100"/>
                <note pan="0" pos="12" key="57" len="-192" vol="100"/>
                <note pan="0" pos="24" key="57" len="-192" vol="100"/>
                <note pan="0" pos="36" key="57" len="-192" vol="100"/>
                <note pan="0" pos="48" key="57" len="-192" vol="100"/>
                <note pan="0" pos="60" key="57" len="-192" vol="100"/>
                <note pan="0" pos="72" key="57" len="-192" vol="100"/>
                <note pan="0" pos="84" key="57" len="-192" vol="100"/>
                <note pan="0" pos="96" key="57" len="-192" vol="100"/>
                <note pan="0" pos="144" key="57" len="-192" vol="100"/>
              </pattern>
              <pattern type="0" pos="960" muted="0" name="snare.wav" steps="64">
                <note pan="0" pos="24" key="57" len="-192" vol="100"/>
                <note pan="0" pos="72" key="57" len="-192" vol="100"/>
                <note pan="0" pos="120" key="57" len="-192" vol="100"/>
                <note pan="0" pos="168" key="57" len="-192" vol="100"/>
                <note pan="0" pos="216" key="57" len="-192" vol="100"/>
                <note pan="0" pos="264" key="57" len="-192" vol="100"/>
                <note pan="0" pos="312" key="57" len="-192" vol="100"/>
                <note pan="0" pos="360" key="57" len="-192" vol="100"/>
                <note pan="0" pos="408" key="57" len="-192" vol="100"/>
                <note pan="0" pos="456" key="57" len="-192" vol="100"/>
                <note pan="0" pos="504" key="57" len="-192" vol="100"/>
                <note pan="0" pos="552" key="57" len="-192" vol="100"/>
                <note pan="0" pos="600" key="57" len="-192" vol="100"/>
                <note pan="0" pos="648" key="57" len="-192" vol="100"/>
                <note pan="0" pos="696" key="57" len="-192" vol="100"/>
                <note pan="0" pos="744" key="57" len="-192" vol="100"/>
              </pattern>
              <pattern type="0" pos="1152" muted="0" name="snare.wav" steps="64">
                <note pan="0" pos="24" key="57" len="-192" vol="100"/>
                <note pan="0" pos="72" key="57" len="-192" vol="100"/>
                <note pan="0" pos="120" key="57" len="-192" vol="100"/>
                <note pan="0" pos="168" key="57" len="-192" vol="100"/>
                <note pan="0" pos="216" key="57" len="-192" vol="100"/>
                <note pan="0" pos="264" key="57" len="-192" vol="100"/>
                <note pan="0" pos="312" key="57" len="-192" vol="100"/>
                <note pan="0" pos="360" key="57" len="-192" vol="100"/>
                <note pan="0" pos="408" key="57" len="-192" vol="100"/>
                <note pan="0" pos="456" key="57" len="-192" vol="100"/>
                <note pan="0" pos="504" key="57" len="-192" vol="100"/>
                <note pan="0" pos="552" key="57" len="-192" vol="100"/>
                <note pan="0" pos="600" key="57" len="-192" vol="100"/>
                <note pan="0" pos="648" key="57" len="-192" vol="100"/>
                <note pan="0" pos="696" key="57" len="-192" vol="100"/>
                <note pan="0" pos="744" key="57" len="-192" vol="100"/>
              </pattern>
              <pattern type="0" pos="1344" muted="0" name="snare.wav" steps="32"/>
              <pattern type="0" pos="1536" muted="0" name="snare.wav" steps="64">
                <note pan="0" pos="0" key="57" len="-192" vol="100"/>
                <note pan="0" pos="48" key="57" len="-192" vol="100"/>
                <note pan="0" pos="96" key="57" len="-192" vol="100"/>
                <note pan="0" pos="144" key="57" len="-192" vol="100"/>
                <note pan="0" pos="192" key="57" len="-192" vol="100"/>
                <note pan="0" pos="240" key="57" len="-192" vol="100"/>
                <note pan="0" pos="288" key="57" len="-192" vol="100"/>
                <note pan="0" pos="336" key="57" len="-192" vol="100"/>
                <note pan="0" pos="384" key="57" len="-192" vol="100"/>
                <note pan="0" pos="432" key="57" len="-192" vol="100"/>
                <note pan="0" pos="480" key="57" len="-192" vol="100"/>
                <note pan="0" pos="528" key="57" len="-192" vol="100"/>
                <note pan="0" pos="576" key="57" len="-192" vol="100"/>
                <note pan="0" pos="624" key="57" len="-192" vol="100"/>
                <note pan="0" pos="672" key="57" len="-192" vol="100"/>
                <note pan="0" pos="720" key="57" len="-192" vol="100"/>
              </pattern>
              <pattern type="0" pos="1728" muted="0" name="snare.wav" steps="32">
                <note pan="0" pos="0" key="57" len="-192" vol="100"/>
                <note pan="0" pos="48" key="57" len="-192" vol="100"/>
                <note pan="0" pos="96" key="57" len="-192" vol="100"/>
                <note pan="0" pos="144" key="57" len="-192" vol="100"/>
                <note pan="0" pos="192" key="57" len="-192" vol="100"/>
                <note pan="0" pos="240" key="57" len="-192" vol="100"/>
                <note pan="0" pos="288" key="57" len="-192" vol="100"/>
                <note pan="0" pos="336" key="57" len="-192" vol="100"/>
              </pattern>
              <pattern type="0" pos="1920" muted="0" name="snare.wav" steps="32">
                <note pan="0" pos="0" key="57" len="-192" vol="100"/>
                <note pan="0" pos="48" key="57" len="-192" vol="100"/>
                <note pan="0" pos="96" key="57" len="-192" vol="100"/>
                <note pan="0" pos="144" key="57" len="-192" vol="100"/>
                <note pan="0" pos="192" key="57" len="-192" vol="100"/>
                <note pan="0" pos="240" key="57" len="-192" vol="100"/>
                <note pan="0" pos="288" key="57" len="-192" vol="100"/>
                <note pan="0" pos="336" key="57" len="-192" vol="100"/>
                <note pan="0" pos="348" key="57" len="-192" vol="100"/>
                <note pan="0" pos="360" key="57" len="-192" vol="100"/>
                <note pan="0" pos="372" key="57" len="-192" vol="100"/>
              </pattern>
              <pattern type="0" pos="2112" muted="0" name="snare.wav" steps="32">
                <note pan="0" pos="48" key="57" len="-192" vol="100"/>
                <note pan="0" pos="144" key="57" len="-192" vol="100"/>
                <note pan="0" pos="240" key="57" len="-192" vol="100"/>
                <note pan="0" pos="336" key="57" len="-192" vol="100"/>
              </pattern>
              <pattern type="0" pos="2304" muted="0" name="snare.wav" steps="16">
                <note pan="0" pos="144" key="57" len="-192" vol="100"/>
                <note pan="0" pos="156" key="57" len="-192" vol="100"/>
                <note pan="0" pos="168" key="57" len="-192" vol="100"/>
                <note pan="0" pos="180" key="57" len="-192" vol="100"/>
              </pattern>
              <pattern type="0" pos="2496" muted="0" name="snare.wav" steps="16">
                <note pan="0" pos="0" key="57" len="-192" vol="100"/>
                <note pan="0" pos="48" key="57" len="-192" vol="100"/>
              </pattern>
              <pattern type="0" pos="2688" muted="0" name="snare.wav" steps="16">
                <note pan="0" pos="0" key="57" len="-192" vol="100"/>
                <note pan="0" pos="24" key="57" len="-192" vol="100"/>
                <note pan="0" pos="96" key="57" len="-192" vol="100"/>
                <note pan="0" pos="120" key="57" len="-192" vol="100"/>
              </pattern>
              <pattern type="0" pos="2880" muted="0" name="snare.wav" steps="32">
                <note pan="0" pos="336" key="57" len="-192" vol="100"/>
                <note pan="0" pos="348" key="57" len="-192" vol="100"/>
                <note pan="0" pos="360" key="57" len="-192" vol="100"/>
                <note pan="0" pos="372" key="57" len="-192" vol="100"/>
              </pattern>
              <pattern type="0" pos="3072" muted="0" name="snare.wav" steps="64">
                <note pan="0" pos="96" key="57" len="-192" vol="100"/>
                <note pan="0" pos="288" key="57" len="-192" vol="100"/>
                <note pan="0" pos="480" key="57" len="-192" vol="100"/>
                <note pan="0" pos="672" key="57" len="-192" vol="100"/>
                <note pan="0" pos="720" key="57" len="-192" vol="100"/>
              </pattern>
              <pattern type="0" pos="3264" muted="0" name="snare.wav" steps="32">
                <note pan="0" pos="48" key="57" len="-192" vol="100"/>
                <note pan="0" pos="144" key="57" len="-192" vol="100"/>
                <note pan="0" pos="240" key="57" len="-192" vol="100"/>
                <note pan="0" pos="336" key="57" len="-192" vol="100"/>
              </pattern>
              <pattern type="0" pos="3456" muted="0" name="snare.wav" steps="32">
                <note pan="0" pos="0" key="57" len="-192" vol="100"/>
                <note pan="0" pos="12" key="57" len="-192" vol="100"/>
                <note pan="0" pos="72" key="57" len="-192" vol="100"/>
                <note pan="0" pos="84" key="57" len="-192" vol="100"/>
                <note pan="0" pos="144" key="57" len="-192" vol="100"/>
                <note pan="0" pos="156" key="57" len="-192" vol="100"/>
              </pattern>
              <pattern type="0" pos="3648" muted="0" name="snare.wav" steps="16"/>
              <pattern type="0" pos="3840" muted="0" name="snare.wav" steps="32">
                <note pan="0" pos="0" key="57" len="-192" vol="100"/>
                <note pan="0" pos="72" key="57" len="-192" vol="100"/>
                <note pan="0" pos="144" key="57" len="-192" vol="100"/>
                <note pan="0" pos="240" key="57" len="-192" vol="100"/>
                <note pan="0" pos="252" key="57" len="-192" vol="100"/>
                <note pan="0" pos="336" key="57" len="-192" vol="100"/>
                <note pan="0" pos="348" key="57" len="-192" vol="100"/>
                <note pan="0" pos="360" key="57" len="-192" vol="100"/>
                <note pan="0" pos="372" key="57" len="-192" vol="100"/>
              </pattern>
              <pattern type="0" pos="4032" muted="0" name="snare.wav" steps="64"/>
              <pattern type="0" pos="4224" muted="0" name="snare.wav" steps="64"/>
              <pattern type="0" pos="4416" muted="0" name="snare.wav" steps="64"/>
              <pattern type="0" pos="4608" muted="0" name="snare.wav" steps="128">
                <note pan="0" pos="48" key="57" len="-192" vol="100"/>
                <note pan="0" pos="144" key="57" len="-192" vol="100"/>
                <note pan="0" pos="240" key="57" len="-192" vol="100"/>
                <note pan="0" pos="336" key="57" len="-192" vol="100"/>
                <note pan="0" pos="432" key="57" len="-192" vol="100"/>
                <note pan="0" pos="528" key="57" len="-192" vol="100"/>
                <note pan="0" pos="624" key="57" len="-192" vol="100"/>
                <note pan="0" pos="720" key="57" len="-192" vol="100"/>
                <note pan="0" pos="816" key="57" len="-192" vol="100"/>
                <note pan="0" pos="912" key="57" len="-192" vol="100"/>
                <note pan="0" pos="1008" key="57" len="-192" vol="100"/>
                <note pan="0" pos="1104" key="57" len="-192" vol="100"/>
                <note pan="0" pos="1200" key="57" len="-192" vol="100"/>
                <note pan="0" pos="1296" key="57" len="-192" vol="100"/>
                <note pan="0" pos="1392" key="57" len="-192" vol="100"/>
                <note pan="0" pos="1488" key="57" len="-192" vol="100"/>
              </pattern>
              <pattern type="0" pos="4800" muted="0" name="snare.wav" steps="16">
                <note pan="0" pos="0" key="57" len="-192" vol="100"/>
                <note pan="0" pos="48" key="57" len="-192" vol="100"/>
                <note pan="0" pos="96" key="57" len="-192" vol="100"/>
                <note pan="0" pos="144" key="57" len="-192" vol="100"/>
                <note pan="0" pos="156" key="57" len="-192" vol="100"/>
                <note pan="0" pos="168" key="57" len="-192" vol="100"/>
                <note pan="0" pos="180" key="57" len="-192" vol="100"/>
              </pattern>
              <pattern type="0" pos="4992" muted="0" name="snare.wav" steps="16"/>
            </track>
            <track type="0" muted="0" name="crash1.wav" solo="0">
              <instrumenttrack pan="0" pitch="0" basenote="57" usemasterpitch="1" vol="71.2" fxch="4" pitchrange="1">
                <instrument name="audiofileprocessor">
                  <audiofileprocessor looped="0" stutter="0" reversed="0" lframe="0" amp="100" eframe="1" sframe="0" interp="1" src="/home/huggypie/samples/sillydrums/crash1.wav"/>
                </instrument>
                <eldata fres="0.5" fcut="14000" fwet="0" ftype="0">
                  <elvol lspd_numerator="4" userwavefile="" lshp="0" x100="0" amt="1" lspd_syncmode="0" ctlenvamt="0" dec="2" hold="2" lspd_denominator="4" sustain="1" lamt="0" lspd="0.1" pdel="0" att="0" lpdel="0" latt="0" rel="2"/>
                  <elcut lspd_numerator="4" userwavefile="" lshp="0" x100="0" amt="0" lspd_syncmode="0" ctlenvamt="0" dec="0.5" hold="0.5" lspd_denominator="4" sustain="0.5" lamt="0" lspd="0.1" pdel="0" att="0" lpdel="0" latt="0" rel="0.1"/>
                  <elres lspd_numerator="4" userwavefile="" lshp="0" x100="0" amt="0" lspd_syncmode="0" ctlenvamt="0" dec="0.5" hold="0.5" lspd_denominator="4" sustain="0.5" lamt="0" lspd="0.1" pdel="0" att="0" lpdel="0" latt="0" rel="0.1"/>
                </eldata>
                <chordcreator chordrange="1" chord="0" chord-enabled="0"/>
                <arpeggiator arpskip="0" arpmiss="0" arp-enabled="0" arpgate="100" arpdir="0" arpcycle="0" arprange="1" arptime_numerator="4" arptime_denominator="4" arptime_syncmode="0" arptime="200" arp="0" arpmode="0"/>
                <midiport outputcontroller="0" inputchannel="0" outputchannel="1" fixedoutputvelocity="-1" readable="0" inputcontroller="0" basevelocity="63" fixedoutputnote="-1" fixedinputvelocity="-1" outputprogram="1" writable="0"/>
                <fxchain enabled="0" numofeffects="0"/>
              </instrumenttrack>
              <pattern type="0" pos="0" muted="0" name="crash1.wav" steps="64">
                <note pan="0" pos="0" key="57" len="-192" vol="100"/>
              </pattern>
              <pattern type="0" pos="192" muted="0" name="crash1.wav" steps="64">
                <note pan="0" pos="0" key="57" len="-192" vol="100"/>
              </pattern>
              <pattern type="0" pos="384" muted="0" name="crash1.wav" steps="32">
                <note pan="0" pos="288" key="57" len="-192" vol="100"/>
              </pattern>
              <pattern type="0" pos="576" muted="0" name="crash1.wav" steps="64">
                <note pan="0" pos="0" key="57" len="-192" vol="100"/>
              </pattern>
              <pattern type="0" pos="768" muted="0" name="crash1.wav" steps="16"/>
              <pattern type="0" pos="960" muted="0" name="crash1.wav" steps="64">
                <note pan="0" pos="0" key="57" len="-192" vol="100"/>
                <note pan="0" pos="384" key="57" len="-192" vol="100"/>
              </pattern>
              <pattern type="0" pos="1152" muted="0" name="crash1.wav" steps="64">
                <note pan="0" pos="0" key="57" len="-192" vol="100"/>
              </pattern>
              <pattern type="0" pos="1344" muted="0" name="crash1.wav" steps="32"/>
              <pattern type="0" pos="1536" muted="0" name="crash1.wav" steps="64">
                <note pan="0" pos="0" key="57" len="-192" vol="100"/>
              </pattern>
              <pattern type="0" pos="1728" muted="0" name="crash1.wav" steps="32">
                <note pan="0" pos="0" key="57" len="-192" vol="100"/>
              </pattern>
              <pattern type="0" pos="1920" muted="0" name="crash1.wav" steps="32">
                <note pan="0" pos="0" key="57" len="-192" vol="100"/>
              </pattern>
              <pattern type="0" pos="2112" muted="0" name="crash1.wav" steps="32">
                <note pan="0" pos="0" key="57" len="-192" vol="100"/>
              </pattern>
              <pattern type="0" pos="2304" muted="0" name="crash1.wav" steps="16">
                <note pan="0" pos="0" key="57" len="-192" vol="100"/>
                <note pan="0" pos="96" key="57" len="-192" vol="100"/>
              </pattern>
              <pattern type="0" pos="2496" muted="0" name="crash1.wav" steps="16">
                <note pan="0" pos="96" key="57" len="-192" vol="100"/>
              </pattern>
              <pattern type="0" pos="2688" muted="0" name="crash1.wav" steps="16"/>
              <pattern type="0" pos="2880" muted="0" name="crash1.wav" steps="32">
                <note pan="0" pos="96" key="57" len="-192" vol="100"/>
                <note pan="0" pos="288" key="57" len="-192" vol="100"/>
              </pattern>
              <pattern type="0" pos="3072" muted="0" name="crash1.wav" steps="64">
                <note pan="0" pos="0" key="57" len="-192" vol="100"/>
                <note pan="0" pos="384" key="57" len="-192" vol="100"/>
              </pattern>
              <pattern type="0" pos="3264" muted="0" name="crash1.wav" steps="32">
                <note pan="0" pos="0" key="57" len="-192" vol="100"/>
              </pattern>
              <pattern type="0" pos="3456" muted="0" name="crash1.wav" steps="32">
                <note pan="0" pos="192" key="57" len="-192" vol="100"/>
              </pattern>
              <pattern type="0" pos="3648" muted="0" name="crash1.wav" steps="16">
                <note pan="0" pos="0" key="57" len="-192" vol="100"/>
              </pattern>
              <pattern type="0" pos="3840" muted="0" name="crash1.wav" steps="32">
                <note pan="0" pos="0" key="57" len="-192" vol="100"/>
              </pattern>
              <pattern type="0" pos="4032" muted="0" name="crash1.wav" steps="64">
                <note pan="0" pos="0" key="57" len="-192" vol="100"/>
                <note pan="0" pos="384" key="57" len="-192" vol="100"/>
              </pattern>
              <pattern type="0" pos="4224" muted="0" name="crash1.wav" steps="64">
                <note pan="0" pos="0" key="57" len="-192" vol="100"/>
                <note pan="0" pos="384" key="57" len="-192" vol="100"/>
                <note pan="0" pos="576" key="57" len="-192" vol="100"/>
              </pattern>
              <pattern type="0" pos="4416" muted="0" name="crash1.wav" steps="64">
                <note pan="0" pos="0" key="57" len="-192" vol="100"/>
                <note pan="0" pos="576" key="57" len="-192" vol="100"/>
              </pattern>
              <pattern type="0" pos="4608" muted="0" name="crash1.wav" steps="128">
                <note pan="0" pos="0" key="57" len="-192" vol="100"/>
              </pattern>
              <pattern type="0" pos="4800" muted="0" name="crash1.wav" steps="16"/>
              <pattern type="0" pos="4992" muted="0" name="crash1.wav" steps="16">
                <note pan="0" pos="0" key="57" len="-192" vol="100"/>
              </pattern>
            </track>
            <track type="0" muted="0" name="crash1m" solo="0">
              <instrumenttrack pan="0" pitch="0" basenote="57" usemasterpitch="1" vol="71.2" fxch="4" pitchrange="1">
                <instrument name="audiofileprocessor">
                  <audiofileprocessor looped="0" stutter="0" reversed="0" lframe="0" amp="100" eframe="1" sframe="0" interp="1" src="/home/huggypie/samples/sillydrums/crash1.wav"/>
                </instrument>
                <eldata fres="0.5" fcut="14000" fwet="0" ftype="0">
                  <elvol lspd_numerator="4" userwavefile="" lshp="0" x100="0" amt="1" lspd_syncmode="0" ctlenvamt="0" dec="0.216" hold="0.232" lspd_denominator="4" sustain="0" lamt="0" lspd="0.1" pdel="0" att="0" lpdel="0" latt="0" rel="0.208"/>
                  <elcut lspd_numerator="4" userwavefile="" lshp="0" x100="0" amt="0" lspd_syncmode="0" ctlenvamt="0" dec="0.5" hold="0.5" lspd_denominator="4" sustain="0.5" lamt="0" lspd="0.1" pdel="0" att="0" lpdel="0" latt="0" rel="0.1"/>
                  <elres lspd_numerator="4" userwavefile="" lshp="0" x100="0" amt="0" lspd_syncmode="0" ctlenvamt="0" dec="0.5" hold="0.5" lspd_denominator="4" sustain="0.5" lamt="0" lspd="0.1" pdel="0" att="0" lpdel="0" latt="0" rel="0.1"/>
                </eldata>
                <chordcreator chordrange="1" chord="0" chord-enabled="0"/>
                <arpeggiator arpskip="0" arpmiss="0" arp-enabled="0" arpgate="100" arpdir="0" arpcycle="0" arprange="1" arptime_numerator="4" arptime_denominator="4" arptime_syncmode="0" arptime="200" arp="0" arpmode="0"/>
                <midiport outputcontroller="0" inputchannel="0" outputchannel="1" fixedoutputvelocity="-1" readable="0" inputcontroller="0" basevelocity="63" fixedoutputnote="-1" fixedinputvelocity="-1" outputprogram="1" writable="0"/>
                <fxchain enabled="0" numofeffects="0"/>
              </instrumenttrack>
              <pattern type="0" pos="0" muted="0" name="crash1m" steps="64"/>
              <pattern type="0" pos="192" muted="0" name="crash1m" steps="64"/>
              <pattern type="0" pos="384" muted="0" name="crash1m" steps="32">
                <note pan="0" pos="0" key="57" len="-192" vol="100"/>
                <note pan="0" pos="72" key="57" len="-192" vol="100"/>
                <note pan="0" pos="144" key="57" len="-192" vol="100"/>
                <note pan="0" pos="216" key="57" len="-192" vol="100"/>
              </pattern>
              <pattern type="0" pos="576" muted="0" name="crash1m" steps="64"/>
              <pattern type="0" pos="768" muted="0" name="crash1m" steps="16"/>
              <pattern type="0" pos="960" muted="0" name="crash1m" steps="64"/>
              <pattern type="0" pos="1152" muted="0" name="crash1m" steps="64"/>
              <pattern type="0" pos="1344" muted="0" name="crash1m" steps="32">
                <note pan="0" pos="0" key="57" len="-192" vol="100"/>
              </pattern>
              <pattern type="0" pos="1536" muted="0" name="crash1m" steps="64"/>
              <pattern type="0" pos="1728" muted="0" name="crash1m" steps="32"/>
              <pattern type="0" pos="1920" muted="0" name="crash1m" steps="32"/>
              <pattern type="0" pos="2112" muted="0" name="crash1m" steps="32"/>
              <pattern type="0" pos="2304" muted="0" name="crash1m" steps="16"/>
              <pattern type="0" pos="2496" muted="0" name="crash1m" steps="16"/>
              <pattern type="0" pos="2688" muted="0" name="crash1m" steps="16"/>
              <pattern type="0" pos="2880" muted="0" name="crash1m" steps="32"/>
              <pattern type="0" pos="3072" muted="0" name="crash1m" steps="64"/>
              <pattern type="0" pos="3264" muted="0" name="crash1m" steps="32"/>
              <pattern type="0" pos="3456" muted="0" name="crash1m" steps="32"/>
              <pattern type="0" pos="3648" muted="0" name="crash1m" steps="16"/>
              <pattern type="0" pos="3840" muted="0" name="crash1m" steps="32"/>
              <pattern type="0" pos="4032" muted="0" name="crash1m" steps="64"/>
              <pattern type="0" pos="4224" muted="0" name="crash1m" steps="64"/>
              <pattern type="0" pos="4416" muted="0" name="crash1m" steps="64"/>
              <pattern type="0" pos="4608" muted="0" name="crash1m" steps="128"/>
              <pattern type="0" pos="4800" muted="0" name="crash1m" steps="16"/>
              <pattern type="0" pos="4992" muted="0" name="crash1m" steps="16"/>
            </track>
            <track type="0" muted="0" name="crash2.wav" solo="0">
              <instrumenttrack pan="28" pitch="0" basenote="57" usemasterpitch="1" vol="76.8" fxch="5" pitchrange="1">
                <instrument name="audiofileprocessor">
                  <audiofileprocessor looped="0" stutter="0" reversed="0" lframe="0" amp="100" eframe="1" sframe="0" interp="1" src="/home/huggypie/samples/sillydrums/crash2.wav"/>
                </instrument>
                <eldata fres="0.5" fcut="14000" fwet="0" ftype="0">
                  <elvol lspd_numerator="4" userwavefile="" lshp="0" x100="0" amt="1" lspd_syncmode="0" ctlenvamt="0" dec="2" hold="2" lspd_denominator="4" sustain="1" lamt="0" lspd="0.1" pdel="0" att="0" lpdel="0" latt="0" rel="2"/>
                  <elcut lspd_numerator="4" userwavefile="" lshp="0" x100="0" amt="0" lspd_syncmode="0" ctlenvamt="0" dec="0.5" hold="0.5" lspd_denominator="4" sustain="0.5" lamt="0" lspd="0.1" pdel="0" att="0" lpdel="0" latt="0" rel="0.1"/>
                  <elres lspd_numerator="4" userwavefile="" lshp="0" x100="0" amt="0" lspd_syncmode="0" ctlenvamt="0" dec="0.5" hold="0.5" lspd_denominator="4" sustain="0.5" lamt="0" lspd="0.1" pdel="0" att="0" lpdel="0" latt="0" rel="0.1"/>
                </eldata>
                <chordcreator chordrange="1" chord="0" chord-enabled="0"/>
                <arpeggiator arpskip="0" arpmiss="0" arp-enabled="0" arpgate="100" arpdir="0" arpcycle="0" arprange="1" arptime_numerator="4" arptime_denominator="4" arptime_syncmode="0" arptime="200" arp="0" arpmode="0"/>
                <midiport outputcontroller="0" inputchannel="0" outputchannel="1" fixedoutputvelocity="-1" readable="0" inputcontroller="0" basevelocity="63" fixedoutputnote="-1" fixedinputvelocity="-1" outputprogram="1" writable="0"/>
                <fxchain enabled="0" numofeffects="0"/>
              </instrumenttrack>
              <pattern type="0" pos="0" muted="0" name="crash2.wav" steps="64">
                <note pan="0" pos="384" key="57" len="-192" vol="100"/>
              </pattern>
              <pattern type="0" pos="192" muted="0" name="crash2.wav" steps="64">
                <note pan="0" pos="384" key="57" len="-192" vol="100"/>
              </pattern>
              <pattern type="0" pos="384" muted="0" name="crash2.wav" steps="32"/>
              <pattern type="0" pos="576" muted="0" name="crash2.wav" steps="64">
                <note pan="0" pos="384" key="57" len="-192" vol="100"/>
              </pattern>
              <pattern type="0" pos="768" muted="0" name="crash2.wav" steps="16"/>
              <pattern type="0" pos="960" muted="0" name="crash2.wav" steps="64">
                <note pan="0" pos="192" key="57" len="-192" vol="100"/>
              </pattern>
              <pattern type="0" pos="1152" muted="0" name="crash2.wav" steps="64">
                <note pan="0" pos="384" key="57" len="-192" vol="100"/>
              </pattern>
              <pattern type="0" pos="1344" muted="0" name="crash2.wav" steps="32"/>
              <pattern type="0" pos="1536" muted="0" name="crash2.wav" steps="64">
                <note pan="0" pos="384" key="57" len="-192" vol="100"/>
              </pattern>
              <pattern type="0" pos="1728" muted="0" name="crash2.wav" steps="32">
                <note pan="0" pos="192" key="57" len="-192" vol="100"/>
              </pattern>
              <pattern type="0" pos="1920" muted="0" name="crash2.wav" steps="32">
                <note pan="0" pos="192" key="57" len="-192" vol="100"/>
              </pattern>
              <pattern type="0" pos="2112" muted="0" name="crash2.wav" steps="32">
                <note pan="0" pos="192" key="57" len="-192" vol="100"/>
              </pattern>
              <pattern type="0" pos="2304" muted="0" name="crash2.wav" steps="16">
                <note pan="0" pos="48" key="57" len="-192" vol="100"/>
              </pattern>
              <pattern type="0" pos="2496" muted="0" name="crash2.wav" steps="16">
                <note pan="0" pos="144" key="57" len="-192" vol="100"/>
              </pattern>
              <pattern type="0" pos="2688" muted="0" name="crash2.wav" steps="16"/>
              <pattern type="0" pos="2880" muted="0" name="crash2.wav" steps="32">
                <note pan="0" pos="192" key="57" len="-192" vol="100"/>
                <note pan="0" pos="288" key="57" len="-192" vol="100"/>
              </pattern>
              <pattern type="0" pos="3072" muted="0" name="crash2.wav" steps="64">
                <note pan="0" pos="192" key="57" len="-192" vol="100"/>
                <note pan="0" pos="576" key="57" len="-192" vol="100"/>
              </pattern>
              <pattern type="0" pos="3264" muted="0" name="crash2.wav" steps="32">
                <note pan="0" pos="192" key="57" len="-192" vol="100"/>
              </pattern>
              <pattern type="0" pos="3456" muted="0" name="crash2.wav" steps="32">
                <note pan="0" pos="192" key="57" len="-192" vol="100"/>
              </pattern>
              <pattern type="0" pos="3648" muted="0" name="crash2.wav" steps="16">
                <note pan="0" pos="96" key="57" len="-192" vol="100"/>
              </pattern>
              <pattern type="0" pos="3840" muted="0" name="crash2.wav" steps="32">
                <note pan="0" pos="72" key="57" len="-192" vol="100"/>
              </pattern>
              <pattern type="0" pos="4032" muted="0" name="crash2.wav" steps="64">
                <note pan="0" pos="192" key="57" len="-192" vol="100"/>
              </pattern>
              <pattern type="0" pos="4224" muted="0" name="crash2.wav" steps="64">
                <note pan="0" pos="192" key="57" len="-192" vol="100"/>
                <note pan="0" pos="672" key="57" len="-192" vol="100"/>
              </pattern>
              <pattern type="0" pos="4416" muted="0" name="crash2.wav" steps="64">
                <note pan="0" pos="384" key="57" len="-192" vol="100"/>
                <note pan="0" pos="672" key="57" len="-192" vol="100"/>
              </pattern>
              <pattern type="0" pos="4608" muted="0" name="crash2.wav" steps="128">
                <note pan="0" pos="768" key="57" len="-192" vol="100"/>
              </pattern>
              <pattern type="0" pos="4800" muted="0" name="crash2.wav" steps="16"/>
              <pattern type="0" pos="4992" muted="0" name="crash2.wav" steps="16">
                <note pan="0" pos="0" key="57" len="-192" vol="100"/>
              </pattern>
            </track>
            <track type="0" muted="0" name="china.wav" solo="0">
              <instrumenttrack pan="0" pitch="0" basenote="57" usemasterpitch="1" vol="130.4" fxch="6" pitchrange="1">
                <instrument name="audiofileprocessor">
                  <audiofileprocessor looped="0" stutter="0" reversed="0" lframe="0" amp="100" eframe="1" sframe="0" interp="1" src="/home/huggypie/samples/sillydrums/china.wav"/>
                </instrument>
                <eldata fres="0.5" fcut="14000" fwet="0" ftype="0">
                  <elvol lspd_numerator="4" userwavefile="" lshp="0" x100="0" amt="1" lspd_syncmode="0" ctlenvamt="0" dec="2" hold="2" lspd_denominator="4" sustain="1" lamt="0" lspd="0.1" pdel="0" att="0" lpdel="0" latt="0" rel="2"/>
                  <elcut lspd_numerator="4" userwavefile="" lshp="0" x100="0" amt="0" lspd_syncmode="0" ctlenvamt="0" dec="0.5" hold="0.5" lspd_denominator="4" sustain="0.5" lamt="0" lspd="0.1" pdel="0" att="0" lpdel="0" latt="0" rel="0.1"/>
                  <elres lspd_numerator="4" userwavefile="" lshp="0" x100="0" amt="0" lspd_syncmode="0" ctlenvamt="0" dec="0.5" hold="0.5" lspd_denominator="4" sustain="0.5" lamt="0" lspd="0.1" pdel="0" att="0" lpdel="0" latt="0" rel="0.1"/>
                </eldata>
                <chordcreator chordrange="1" chord="0" chord-enabled="0"/>
                <arpeggiator arpskip="0" arpmiss="0" arp-enabled="0" arpgate="100" arpdir="0" arpcycle="0" arprange="1" arptime_numerator="4" arptime_denominator="4" arptime_syncmode="0" arptime="200" arp="0" arpmode="0"/>
                <midiport outputcontroller="0" inputchannel="0" outputchannel="1" fixedoutputvelocity="-1" readable="0" inputcontroller="0" basevelocity="63" fixedoutputnote="-1" fixedinputvelocity="-1" outputprogram="1" writable="0"/>
                <fxchain enabled="0" numofeffects="0"/>
              </instrumenttrack>
              <pattern type="0" pos="0" muted="0" name="china.wav" steps="64"/>
              <pattern type="0" pos="192" muted="0" name="china.wav" steps="64"/>
              <pattern type="0" pos="384" muted="0" name="china.wav" steps="32"/>
              <pattern type="0" pos="576" muted="0" name="china.wav" steps="64"/>
              <pattern type="0" pos="768" muted="0" name="china.wav" steps="16"/>
              <pattern type="0" pos="960" muted="0" name="china.wav" steps="64"/>
              <pattern type="0" pos="1152" muted="0" name="china.wav" steps="64"/>
              <pattern type="0" pos="1344" muted="0" name="china.wav" steps="32"/>
              <pattern type="0" pos="1536" muted="0" name="china.wav" steps="64"/>
              <pattern type="0" pos="1728" muted="0" name="china.wav" steps="32"/>
              <pattern type="0" pos="1920" muted="0" name="china.wav" steps="32"/>
              <pattern type="0" pos="2112" muted="0" name="china.wav" steps="32"/>
              <pattern type="0" pos="2304" muted="0" name="china.wav" steps="16"/>
              <pattern type="0" pos="2496" muted="0" name="china.wav" steps="16"/>
              <pattern type="0" pos="2688" muted="0" name="china.wav" steps="16"/>
              <pattern type="0" pos="2880" muted="0" name="china.wav" steps="32"/>
              <pattern type="0" pos="3072" muted="0" name="china.wav" steps="64"/>
              <pattern type="0" pos="3264" muted="0" name="china.wav" steps="32">
                <note pan="0" pos="48" key="57" len="-192" vol="100"/>
                <note pan="0" pos="96" key="57" len="-192" vol="100"/>
                <note pan="0" pos="144" key="57" len="-192" vol="100"/>
                <note pan="0" pos="240" key="57" len="-192" vol="100"/>
                <note pan="0" pos="288" key="57" len="-192" vol="100"/>
                <note pan="0" pos="336" key="57" len="-192" vol="100"/>
              </pattern>
              <pattern type="0" pos="3456" muted="0" name="china.wav" steps="32"/>
              <pattern type="0" pos="3648" muted="0" name="china.wav" steps="16"/>
              <pattern type="0" pos="3840" muted="0" name="china.wav" steps="32"/>
              <pattern type="0" pos="4032" muted="0" name="china.wav" steps="64">
                <note pan="0" pos="672" key="57" len="-192" vol="100"/>
              </pattern>
              <pattern type="0" pos="4224" muted="0" name="china.wav" steps="64"/>
              <pattern type="0" pos="4416" muted="0" name="china.wav" steps="64"/>
              <pattern type="0" pos="4608" muted="0" name="china.wav" steps="128"/>
              <pattern type="0" pos="4800" muted="0" name="china.wav" steps="16"/>
              <pattern type="0" pos="4992" muted="0" name="china.wav" steps="16"/>
            </track>
            <track type="0" muted="0" name="hiTom.wav" solo="0">
              <instrumenttrack pan="0" pitch="0" basenote="57" usemasterpitch="1" vol="130.4" fxch="7" pitchrange="1">
                <instrument name="audiofileprocessor">
                  <audiofileprocessor looped="0" stutter="0" reversed="0" lframe="0" amp="100" eframe="1" sframe="0" interp="1" src="/home/huggypie/samples/sillydrums/hiTom.wav"/>
                </instrument>
                <eldata fres="0.5" fcut="14000" fwet="0" ftype="0">
                  <elvol lspd_numerator="4" userwavefile="" lshp="0" x100="0" amt="1" lspd_syncmode="0" ctlenvamt="0" dec="2" hold="2" lspd_denominator="4" sustain="1" lamt="0" lspd="0.1" pdel="0" att="0" lpdel="0" latt="0" rel="2"/>
                  <elcut lspd_numerator="4" userwavefile="" lshp="0" x100="0" amt="0" lspd_syncmode="0" ctlenvamt="0" dec="0.5" hold="0.5" lspd_denominator="4" sustain="0.5" lamt="0" lspd="0.1" pdel="0" att="0" lpdel="0" latt="0" rel="0.1"/>
                  <elres lspd_numerator="4" userwavefile="" lshp="0" x100="0" amt="0" lspd_syncmode="0" ctlenvamt="0" dec="0.5" hold="0.5" lspd_denominator="4" sustain="0.5" lamt="0" lspd="0.1" pdel="0" att="0" lpdel="0" latt="0" rel="0.1"/>
                </eldata>
                <chordcreator chordrange="1" chord="0" chord-enabled="0"/>
                <arpeggiator arpskip="0" arpmiss="0" arp-enabled="0" arpgate="100" arpdir="0" arpcycle="0" arprange="1" arptime_numerator="4" arptime_denominator="4" arptime_syncmode="0" arptime="200" arp="0" arpmode="0"/>
                <midiport outputcontroller="0" inputchannel="0" outputchannel="1" fixedoutputvelocity="-1" readable="0" inputcontroller="0" basevelocity="63" fixedoutputnote="-1" fixedinputvelocity="-1" outputprogram="1" writable="0"/>
                <fxchain enabled="0" numofeffects="0"/>
              </instrumenttrack>
              <pattern type="0" pos="0" muted="0" name="hiTom.wav" steps="64"/>
              <pattern type="0" pos="192" muted="0" name="hiTom.wav" steps="64"/>
              <pattern type="0" pos="384" muted="0" name="hiTom.wav" steps="32"/>
              <pattern type="0" pos="576" muted="0" name="hiTom.wav" steps="64"/>
              <pattern type="0" pos="768" muted="0" name="hiTom.wav" steps="16"/>
              <pattern type="0" pos="960" muted="0" name="hiTom.wav" steps="64"/>
              <pattern type="0" pos="1152" muted="0" name="hiTom.wav" steps="64"/>
              <pattern type="0" pos="1344" muted="0" name="hiTom.wav" steps="32"/>
              <pattern type="0" pos="1536" muted="0" name="hiTom.wav" steps="64"/>
              <pattern type="0" pos="1728" muted="0" name="hiTom.wav" steps="32"/>
              <pattern type="0" pos="1920" muted="0" name="hiTom.wav" steps="32"/>
              <pattern type="0" pos="2112" muted="0" name="hiTom.wav" steps="32"/>
              <pattern type="0" pos="2304" muted="0" name="hiTom.wav" steps="16"/>
              <pattern type="0" pos="2496" muted="0" name="hiTom.wav" steps="16">
                <note pan="0" pos="12" key="57" len="-192" vol="100"/>
                <note pan="0" pos="60" key="57" len="-192" vol="100"/>
              </pattern>
              <pattern type="0" pos="2688" muted="0" name="hiTom.wav" steps="16"/>
              <pattern type="0" pos="2880" muted="0" name="hiTom.wav" steps="32"/>
              <pattern type="0" pos="3072" muted="0" name="hiTom.wav" steps="64"/>
              <pattern type="0" pos="3264" muted="0" name="hiTom.wav" steps="32"/>
              <pattern type="0" pos="3456" muted="0" name="hiTom.wav" steps="32">
                <note pan="0" pos="24" key="57" len="-192" vol="100"/>
                <note pan="0" pos="36" key="57" len="-192" vol="100"/>
                <note pan="0" pos="48" key="57" len="-192" vol="100"/>
                <note pan="0" pos="60" key="57" len="-192" vol="100"/>
              </pattern>
              <pattern type="0" pos="3648" muted="0" name="hiTom.wav" steps="16"/>
              <pattern type="0" pos="3840" muted="0" name="hiTom.wav" steps="32">
                <note pan="0" pos="192" key="57" len="-192" vol="100"/>
                <note pan="0" pos="204" key="57" len="-192" vol="100"/>
                <note pan="0" pos="288" key="57" len="-192" vol="100"/>
                <note pan="0" pos="300" key="57" len="-192" vol="100"/>
              </pattern>
              <pattern type="0" pos="4032" muted="0" name="hiTom.wav" steps="64"/>
              <pattern type="0" pos="4224" muted="0" name="hiTom.wav" steps="64"/>
              <pattern type="0" pos="4416" muted="0" name="hiTom.wav" steps="64"/>
              <pattern type="0" pos="4608" muted="0" name="hiTom.wav" steps="128"/>
              <pattern type="0" pos="4800" muted="0" name="hiTom.wav" steps="16">
                <note pan="0" pos="12" key="57" len="-192" vol="100"/>
                <note pan="0" pos="24" key="57" len="-192" vol="100"/>
                <note pan="0" pos="36" key="57" len="-192" vol="100"/>
              </pattern>
              <pattern type="0" pos="4992" muted="0" name="hiTom.wav" steps="16"/>
            </track>
            <track type="0" muted="0" name="midTom.wav" solo="0">
              <instrumenttrack pan="0" pitch="0" basenote="57" usemasterpitch="1" vol="130.4" fxch="8" pitchrange="1">
                <instrument name="audiofileprocessor">
                  <audiofileprocessor looped="0" stutter="0" reversed="0" lframe="0" amp="100" eframe="1" sframe="0" interp="1" src="/home/huggypie/samples/sillydrums/midTom.wav"/>
                </instrument>
                <eldata fres="0.5" fcut="14000" fwet="0" ftype="0">
                  <elvol lspd_numerator="4" userwavefile="" lshp="0" x100="0" amt="1" lspd_syncmode="0" ctlenvamt="0" dec="2" hold="2" lspd_denominator="4" sustain="1" lamt="0" lspd="0.1" pdel="0" att="0" lpdel="0" latt="0" rel="2"/>
                  <elcut lspd_numerator="4" userwavefile="" lshp="0" x100="0" amt="0" lspd_syncmode="0" ctlenvamt="0" dec="0.5" hold="0.5" lspd_denominator="4" sustain="0.5" lamt="0" lspd="0.1" pdel="0" att="0" lpdel="0" latt="0" rel="0.1"/>
                  <elres lspd_numerator="4" userwavefile="" lshp="0" x100="0" amt="0" lspd_syncmode="0" ctlenvamt="0" dec="0.5" hold="0.5" lspd_denominator="4" sustain="0.5" lamt="0" lspd="0.1" pdel="0" att="0" lpdel="0" latt="0" rel="0.1"/>
                </eldata>
                <chordcreator chordrange="1" chord="0" chord-enabled="0"/>
                <arpeggiator arpskip="0" arpmiss="0" arp-enabled="0" arpgate="100" arpdir="0" arpcycle="0" arprange="1" arptime_numerator="4" arptime_denominator="4" arptime_syncmode="0" arptime="200" arp="0" arpmode="0"/>
                <midiport outputcontroller="0" inputchannel="0" outputchannel="1" fixedoutputvelocity="-1" readable="0" inputcontroller="0" basevelocity="63" fixedoutputnote="-1" fixedinputvelocity="-1" outputprogram="1" writable="0"/>
                <fxchain enabled="0" numofeffects="0"/>
              </instrumenttrack>
              <pattern type="0" pos="0" muted="0" name="midTom.wav" steps="64"/>
              <pattern type="0" pos="192" muted="0" name="midTom.wav" steps="64"/>
              <pattern type="0" pos="384" muted="0" name="midTom.wav" steps="32"/>
              <pattern type="0" pos="576" muted="0" name="midTom.wav" steps="64"/>
              <pattern type="0" pos="768" muted="0" name="midTom.wav" steps="16">
                <note pan="0" pos="108" key="57" len="-192" vol="100"/>
                <note pan="0" pos="120" key="57" len="-192" vol="100"/>
                <note pan="0" pos="132" key="57" len="-192" vol="100"/>
              </pattern>
              <pattern type="0" pos="960" muted="0" name="midTom.wav" steps="64"/>
              <pattern type="0" pos="1152" muted="0" name="midTom.wav" steps="64"/>
              <pattern type="0" pos="1344" muted="0" name="midTom.wav" steps="32"/>
              <pattern type="0" pos="1536" muted="0" name="midTom.wav" steps="64"/>
              <pattern type="0" pos="1728" muted="0" name="midTom.wav" steps="32"/>
              <pattern type="0" pos="1920" muted="0" name="midTom.wav" steps="32"/>
              <pattern type="0" pos="2112" muted="0" name="midTom.wav" steps="32"/>
              <pattern type="0" pos="2304" muted="0" name="midTom.wav" steps="16"/>
              <pattern type="0" pos="2496" muted="0" name="midTom.wav" steps="16">
                <note pan="0" pos="24" key="57" len="-192" vol="100"/>
                <note pan="0" pos="72" key="57" len="-192" vol="100"/>
              </pattern>
              <pattern type="0" pos="2688" muted="0" name="midTom.wav" steps="16"/>
              <pattern type="0" pos="2880" muted="0" name="midTom.wav" steps="32"/>
              <pattern type="0" pos="3072" muted="0" name="midTom.wav" steps="64">
                <note pan="0" pos="684" key="57" len="-192" vol="100"/>
                <note pan="0" pos="696" key="57" len="-192" vol="100"/>
                <note pan="0" pos="708" key="57" len="-192" vol="100"/>
              </pattern>
              <pattern type="0" pos="3264" muted="0" name="midTom.wav" steps="32"/>
              <pattern type="0" pos="3456" muted="0" name="midTom.wav" steps="32">
                <note pan="0" pos="96" key="57" len="-192" vol="100"/>
                <note pan="0" pos="108" key="57" len="-192" vol="100"/>
                <note pan="0" pos="120" key="57" len="-192" vol="100"/>
                <note pan="0" pos="132" key="57" len="-192" vol="100"/>
              </pattern>
              <pattern type="0" pos="3648" muted="0" name="midTom.wav" steps="16"/>
              <pattern type="0" pos="3840" muted="0" name="midTom.wav" steps="32">
                <note pan="0" pos="24" key="57" len="-192" vol="100"/>
                <note pan="0" pos="36" key="57" len="-192" vol="100"/>
                <note pan="0" pos="120" key="57" len="-192" vol="100"/>
                <note pan="0" pos="168" key="57" len="-192" vol="100"/>
                <note pan="0" pos="216" key="57" len="-192" vol="100"/>
                <note pan="0" pos="228" key="57" len="-192" vol="100"/>
                <note pan="0" pos="312" key="57" len="-192" vol="100"/>
                <note pan="0" pos="324" key="57" len="-192" vol="100"/>
              </pattern>
              <pattern type="0" pos="4032" muted="0" name="midTom.wav" steps="64"/>
              <pattern type="0" pos="4224" muted="0" name="midTom.wav" steps="64"/>
              <pattern type="0" pos="4416" muted="0" name="midTom.wav" steps="64"/>
              <pattern type="0" pos="4608" muted="0" name="midTom.wav" steps="128"/>
              <pattern type="0" pos="4800" muted="0" name="midTom.wav" steps="16">
                <note pan="0" pos="60" key="57" len="-192" vol="100"/>
                <note pan="0" pos="72" key="57" len="-192" vol="100"/>
                <note pan="0" pos="84" key="57" len="-192" vol="100"/>
              </pattern>
              <pattern type="0" pos="4992" muted="0" name="midTom.wav" steps="16"/>
            </track>
            <track type="0" muted="0" name="loTom.wav" solo="0">
              <instrumenttrack pan="0" pitch="0" basenote="57" usemasterpitch="1" vol="130.4" fxch="9" pitchrange="1">
                <instrument name="audiofileprocessor">
                  <audiofileprocessor looped="0" stutter="0" reversed="0" lframe="0" amp="100" eframe="1" sframe="0" interp="1" src="/home/huggypie/samples/sillydrums/loTom.wav"/>
                </instrument>
                <eldata fres="0.5" fcut="14000" fwet="0" ftype="0">
                  <elvol lspd_numerator="4" userwavefile="" lshp="0" x100="0" amt="1" lspd_syncmode="0" ctlenvamt="0" dec="2" hold="2" lspd_denominator="4" sustain="1" lamt="0" lspd="0.1" pdel="0" att="0" lpdel="0" latt="0" rel="2"/>
                  <elcut lspd_numerator="4" userwavefile="" lshp="0" x100="0" amt="0" lspd_syncmode="0" ctlenvamt="0" dec="0.5" hold="0.5" lspd_denominator="4" sustain="0.5" lamt="0" lspd="0.1" pdel="0" att="0" lpdel="0" latt="0" rel="0.1"/>
                  <elres lspd_numerator="4" userwavefile="" lshp="0" x100="0" amt="0" lspd_syncmode="0" ctlenvamt="0" dec="0.5" hold="0.5" lspd_denominator="4" sustain="0.5" lamt="0" lspd="0.1" pdel="0" att="0" lpdel="0" latt="0" rel="0.1"/>
                </eldata>
                <chordcreator chordrange="1" chord="0" chord-enabled="0"/>
                <arpeggiator arpskip="0" arpmiss="0" arp-enabled="0" arpgate="100" arpdir="0" arpcycle="0" arprange="1" arptime_numerator="4" arptime_denominator="4" arptime_syncmode="0" arptime="200" arp="0" arpmode="0"/>
                <midiport outputcontroller="0" inputchannel="0" outputchannel="1" fixedoutputvelocity="-1" readable="0" inputcontroller="0" basevelocity="63" fixedoutputnote="-1" fixedinputvelocity="-1" outputprogram="1" writable="0"/>
                <fxchain enabled="0" numofeffects="0"/>
              </instrumenttrack>
              <pattern type="0" pos="0" muted="0" name="loTom.wav" steps="64"/>
              <pattern type="0" pos="192" muted="0" name="loTom.wav" steps="64"/>
              <pattern type="0" pos="384" muted="0" name="loTom.wav" steps="32"/>
              <pattern type="0" pos="576" muted="0" name="loTom.wav" steps="64"/>
              <pattern type="0" pos="768" muted="0" name="loTom.wav" steps="16">
                <note pan="0" pos="156" key="57" len="-192" vol="100"/>
                <note pan="0" pos="168" key="57" len="-192" vol="100"/>
                <note pan="0" pos="180" key="57" len="-192" vol="100"/>
              </pattern>
              <pattern type="0" pos="960" muted="0" name="loTom.wav" steps="64"/>
              <pattern type="0" pos="1152" muted="0" name="loTom.wav" steps="64"/>
              <pattern type="0" pos="1344" muted="0" name="loTom.wav" steps="32"/>
              <pattern type="0" pos="1536" muted="0" name="loTom.wav" steps="64"/>
              <pattern type="0" pos="1728" muted="0" name="loTom.wav" steps="32"/>
              <pattern type="0" pos="1920" muted="0" name="loTom.wav" steps="32"/>
              <pattern type="0" pos="2112" muted="0" name="loTom.wav" steps="32"/>
              <pattern type="0" pos="2304" muted="0" name="loTom.wav" steps="16"/>
              <pattern type="0" pos="2496" muted="0" name="loTom.wav" steps="16">
                <note pan="0" pos="36" key="57" len="-192" vol="100"/>
                <note pan="0" pos="84" key="57" len="-192" vol="100"/>
              </pattern>
              <pattern type="0" pos="2688" muted="0" name="loTom.wav" steps="16"/>
              <pattern type="0" pos="2880" muted="0" name="loTom.wav" steps="32"/>
              <pattern type="0" pos="3072" muted="0" name="loTom.wav" steps="64">
                <note pan="0" pos="732" key="57" len="-192" vol="100"/>
                <note pan="0" pos="744" key="57" len="-192" vol="100"/>
                <note pan="0" pos="756" key="57" len="-192" vol="100"/>
              </pattern>
              <pattern type="0" pos="3264" muted="0" name="loTom.wav" steps="32"/>
              <pattern type="0" pos="3456" muted="0" name="loTom.wav" steps="32">
                <note pan="0" pos="168" key="57" len="-192" vol="100"/>
                <note pan="0" pos="180" key="57" len="-192" vol="100"/>
              </pattern>
              <pattern type="0" pos="3648" muted="0" name="loTom.wav" steps="16">
                <note pan="0" pos="168" key="57" len="-192" vol="100"/>
                <note pan="0" pos="180" key="57" len="-192" vol="100"/>
              </pattern>
              <pattern type="0" pos="3840" muted="0" name="loTom.wav" steps="32">
                <note pan="0" pos="48" key="57" len="-192" vol="100"/>
                <note pan="0" pos="60" key="57" len="-192" vol="100"/>
                <note pan="0" pos="120" key="57" len="-192" vol="100"/>
                <note pan="0" pos="168" key="57" len="-192" vol="100"/>
                <note pan="0" pos="264" key="57" len="-192" vol="100"/>
                <note pan="0" pos="276" key="57" len="-192" vol="100"/>
              </pattern>
              <pattern type="0" pos="4032" muted="0" name="loTom.wav" steps="64"/>
              <pattern type="0" pos="4224" muted="0" name="loTom.wav" steps="64"/>
              <pattern type="0" pos="4416" muted="0" name="loTom.wav" steps="64"/>
              <pattern type="0" pos="4608" muted="0" name="loTom.wav" steps="128"/>
              <pattern type="0" pos="4800" muted="0" name="loTom.wav" steps="16">
                <note pan="0" pos="108" key="57" len="-192" vol="100"/>
                <note pan="0" pos="120" key="57" len="-192" vol="100"/>
                <note pan="0" pos="132" key="57" len="-192" vol="100"/>
              </pattern>
              <pattern type="0" pos="4992" muted="0" name="loTom.wav" steps="16"/>
            </track>
            <track type="0" muted="0" name="hihat_opened02.ogg" solo="0">
              <instrumenttrack pan="0" pitch="0" basenote="57" usemasterpitch="1" vol="100" fxch="0" pitchrange="1">
                <instrument name="audiofileprocessor">
                  <audiofileprocessor looped="0" stutter="0" reversed="0" lframe="0" amp="100" eframe="1" sframe="0" interp="1" src="drums/hihat_opened02.ogg"/>
                </instrument>
                <eldata fres="0.5" fcut="14000" fwet="0" ftype="0">
                  <elvol lspd_numerator="4" userwavefile="" lshp="0" x100="0" amt="0" lspd_syncmode="0" ctlenvamt="0" dec="0.5" hold="0.5" lspd_denominator="4" sustain="0.5" lamt="0" lspd="0.1" pdel="0" att="0" lpdel="0" latt="0" rel="0.1"/>
                  <elcut lspd_numerator="4" userwavefile="" lshp="0" x100="0" amt="0" lspd_syncmode="0" ctlenvamt="0" dec="0.5" hold="0.5" lspd_denominator="4" sustain="0.5" lamt="0" lspd="0.1" pdel="0" att="0" lpdel="0" latt="0" rel="0.1"/>
                  <elres lspd_numerator="4" userwavefile="" lshp="0" x100="0" amt="0" lspd_syncmode="0" ctlenvamt="0" dec="0.5" hold="0.5" lspd_denominator="4" sustain="0.5" lamt="0" lspd="0.1" pdel="0" att="0" lpdel="0" latt="0" rel="0.1"/>
                </eldata>
                <chordcreator chordrange="1" chord="0" chord-enabled="0"/>
                <arpeggiator arpskip="0" arpmiss="0" arp-enabled="0" arpgate="100" arpdir="0" arpcycle="0" arprange="1" arptime_numerator="4" arptime_denominator="4" arptime_syncmode="0" arptime="200" arp="0" arpmode="0"/>
                <midiport outputcontroller="0" inputchannel="0" outputchannel="1" fixedoutputvelocity="-1" readable="0" inputcontroller="0" basevelocity="63" fixedoutputnote="-1" fixedinputvelocity="-1" outputprogram="1" writable="0"/>
                <fxchain enabled="0" numofeffects="0"/>
              </instrumenttrack>
              <pattern type="0" pos="0" muted="0" name="hihat_opened02.ogg" steps="64"/>
              <pattern type="0" pos="192" muted="0" name="hihat_opened02.ogg" steps="64"/>
              <pattern type="0" pos="384" muted="0" name="hihat_opened02.ogg" steps="32"/>
              <pattern type="0" pos="576" muted="0" name="hihat_opened02.ogg" steps="64"/>
              <pattern type="0" pos="768" muted="0" name="hihat_opened02.ogg" steps="16"/>
              <pattern type="0" pos="960" muted="0" name="hihat_opened02.ogg" steps="64"/>
              <pattern type="0" pos="1152" muted="0" name="hihat_opened02.ogg" steps="64"/>
              <pattern type="0" pos="1344" muted="0" name="hihat_opened02.ogg" steps="32"/>
              <pattern type="0" pos="1536" muted="0" name="hihat_opened02.ogg" steps="64"/>
              <pattern type="0" pos="1728" muted="0" name="hihat_opened02.ogg" steps="32"/>
              <pattern type="0" pos="1920" muted="0" name="hihat_opened02.ogg" steps="32"/>
              <pattern type="0" pos="2112" muted="0" name="hihat_opened02.ogg" steps="32"/>
              <pattern type="0" pos="2304" muted="0" name="hihat_opened02.ogg" steps="16"/>
              <pattern type="0" pos="2496" muted="0" name="hihat_opened02.ogg" steps="16"/>
              <pattern type="0" pos="2688" muted="0" name="hihat_opened02.ogg" steps="16"/>
              <pattern type="0" pos="2880" muted="0" name="hihat_opened02.ogg" steps="32"/>
              <pattern type="0" pos="3072" muted="0" name="hihat_opened02.ogg" steps="64"/>
              <pattern type="0" pos="3264" muted="0" name="hihat_opened02.ogg" steps="32"/>
              <pattern type="0" pos="3456" muted="0" name="hihat_opened02.ogg" steps="32"/>
              <pattern type="0" pos="3648" muted="0" name="hihat_opened02.ogg" steps="16"/>
              <pattern type="0" pos="3840" muted="0" name="hihat_opened02.ogg" steps="32"/>
              <pattern type="0" pos="4032" muted="0" name="hihat_opened02.ogg" steps="64"/>
              <pattern type="0" pos="4224" muted="0" name="hihat_opened02.ogg" steps="64"/>
              <pattern type="0" pos="4416" muted="0" name="hihat_opened02.ogg" steps="64"/>
              <pattern type="0" pos="4608" muted="0" name="hihat_opened02.ogg" steps="128"/>
              <pattern type="0" pos="4800" muted="0" name="hihat_opened02.ogg" steps="16"/>
              <pattern type="0" pos="4992" muted="0" name="hihat_opened02.ogg" steps="16"/>
            </track>
          </trackcontainer>
        </bbtrack>
        <bbtco color="4286611584" pos="384" muted="0" usestyle="1" name="" len="768"/>
      </track>
      <track type="1" muted="0" name="Clone of intro1" solo="0">
        <bbtrack/>
        <bbtco color="4286611584" pos="1152" muted="0" usestyle="1" name="" len="768"/>
      </track>
      <track type="1" muted="0" name="intro2" solo="0">
        <bbtrack/>
        <bbtco color="4286611584" pos="1920" muted="0" usestyle="1" name="" len="1152"/>
      </track>
      <track type="1" muted="0" name="bootcamp1" solo="0">
        <bbtrack/>
        <bbtco color="4286611584" pos="9600" muted="0" usestyle="1" name="" len="1536"/>
        <bbtco color="4286611584" pos="17280" muted="0" usestyle="1" name="" len="1344"/>
        <bbtco color="4286611584" pos="41088" muted="0" usestyle="1" name="" len="1152"/>
        <bbtco color="4286611584" pos="45696" muted="0" usestyle="1" name="" len="1344"/>
      </track>
      <track type="1" muted="0" name="fill1" solo="0">
        <bbtrack/>
      </track>
      <track type="1" muted="0" name="Clone of bootcamp1" solo="0">
        <bbtrack/>
        <bbtco color="4286611584" pos="4992" muted="0" usestyle="1" name="" len="1536"/>
        <bbtco color="4286611584" pos="14976" muted="0" usestyle="1" name="" len="768"/>
        <bbtco color="4286611584" pos="36480" muted="0" usestyle="1" name="" len="1536"/>
      </track>
      <track type="1" muted="0" name="Clone of Clone of bootcamp1" solo="0">
        <bbtrack/>
        <bbtco color="4286611584" pos="38784" muted="0" usestyle="1" name="" len="576"/>
      </track>
      <track type="1" muted="0" name="kick/mutecrash" solo="0">
        <bbtrack/>
        <bbtco color="4286611584" pos="12672" muted="0" usestyle="1" name="" len="384"/>
      </track>
      <track type="1" muted="0" name="Beat/Bassline 6" solo="0">
        <bbtrack/>
        <bbtco color="4286611584" pos="6528" muted="0" usestyle="1" name="" len="768"/>
        <bbtco color="4286611584" pos="14208" muted="0" usestyle="1" name="" len="768"/>
        <bbtco color="4286611584" pos="38016" muted="0" usestyle="1" name="" len="768"/>
      </track>
      <track type="1" muted="0" name="Clone of Beat/Bassline 6" solo="0">
        <bbtrack/>
        <bbtco color="4286611584" pos="8064" muted="0" usestyle="1" name="" len="1152"/>
        <bbtco color="4286611584" pos="15744" muted="0" usestyle="1" name="" len="1152"/>
        <bbtco color="4286611584" pos="20352" muted="0" usestyle="1" name="" len="1344"/>
        <bbtco color="4286611584" pos="31872" muted="0" usestyle="1" name="" len="2496"/>
        <bbtco color="4286611584" pos="44160" muted="0" usestyle="1" name="" len="1152"/>
      </track>
      <track type="1" muted="0" name="Clone of Clone of Beat/Bassline 6" solo="0">
        <bbtrack/>
        <bbtco color="4286611584" pos="9216" muted="0" usestyle="1" name="" len="384"/>
        <bbtco color="4286611584" pos="16896" muted="0" usestyle="1" name="" len="384"/>
        <bbtco color="4286611584" pos="40704" muted="0" usestyle="1" name="" len="384"/>
        <bbtco color="4286611584" pos="45312" muted="0" usestyle="1" name="" len="384"/>
      </track>
      <track type="5" muted="0" name="Automation track" solo="0">
        <automationtrack/>
      </track>
      <track type="1" muted="0" name="Beat/Bassline 11" solo="0">
        <bbtrack/>
        <bbtco color="4286611584" pos="4224" muted="0" usestyle="1" name="" len="576"/>
        <bbtco color="4286611584" pos="11136" muted="0" usestyle="1" name="" len="1536"/>
        <bbtco color="4286611584" pos="7296" muted="0" usestyle="1" name="" len="576"/>
        <bbtco color="4286611584" pos="18816" muted="0" usestyle="1" name="" len="1344"/>
        <bbtco color="4286611584" pos="35712" muted="0" usestyle="1" name="" len="768"/>
        <bbtco color="4286611584" pos="39552" muted="0" usestyle="1" name="" len="1152"/>
        <bbtco color="4286611584" pos="47232" muted="0" usestyle="1" name="" len="1536"/>
      </track>
      <track type="1" muted="0" name="Beat/Bassline 18" solo="0">
        <bbtrack/>
        <bbtco color="4286611584" pos="20160" muted="0" usestyle="1" name="" len="192"/>
      </track>
      <track type="1" muted="0" name="Beat/Bassline 12" solo="0">
        <bbtrack/>
        <bbtco color="4286611584" pos="4800" muted="0" usestyle="1" name="" len="192"/>
        <bbtco color="4286611584" pos="21696" muted="0" usestyle="1" name="" len="192"/>
      </track>
      <track type="1" muted="0" name="Beat/Bassline 19" solo="0">
        <bbtrack/>
        <bbtco color="4286611584" pos="18624" muted="0" usestyle="1" name="" len="192"/>
      </track>
      <track type="5" muted="0" name="rgt pitch" height="32" solo="0">
        <automationtrack/>
        <automationpattern prog="2" mute="0" pos="13440" name="AM pitchshifter>>>Pitch shift" tens="1" len="384">
          <time pos="0" value="1.09031"/>
          <time pos="96" value="2.28938"/>
          <time pos="192" value="1.21734"/>
          <time pos="384" value="2.76844"/>
          <object id="7309738"/>
        </automationpattern>
        <automationpattern prog="0" mute="0" pos="11904" name="AM pitchshifter>>>Pitch shift" tens="1" len="192">
          <time pos="0" value="2.32734"/>
          <object id="7309738"/>
        </automationpattern>
        <automationpattern prog="0" mute="0" pos="13824" name="AM pitchshifter>>>Pitch shift" tens="1" len="192">
          <time pos="0" value="2.32734"/>
          <object id="7309738"/>
        </automationpattern>
        <automationpattern prog="0" mute="0" pos="0" name="AM pitchshifter>>>Pitch shift" tens="1" len="192">
          <time pos="0" value="2.32734"/>
          <object id="7309738"/>
        </automationpattern>
      </track>
      <track type="5" muted="0" name="lgt pitch" solo="0">
        <automationtrack/>
        <automationpattern prog="0" mute="0" pos="0" name="Tempo" tens="1" len="192">
          <time pos="0" value="201"/>
          <object id="2356958"/>
        </automationpattern>
        <automationpattern prog="0" mute="0" pos="31680" name="AM pitchshifter>>>Pitch shift" tens="1" len="192">
          <time pos="0" value="2.32441"/>
          <object id="485849"/>
        </automationpattern>
        <automationpattern prog="2" mute="0" pos="31872" name="AM pitchshifter>>>Pitch shift" tens="1" len="384">
          <time pos="0" value="1.34484"/>
          <time pos="24" value="2.74078"/>
          <time pos="240" value="1.31766"/>
          <time pos="384" value="0.25"/>
          <object id="485849"/>
        </automationpattern>
        <automationpattern prog="0" mute="0" pos="32256" name="AM pitchshifter>>>Pitch shift" tens="1" len="192">
          <time pos="0" value="2.32441"/>
          <object id="485849"/>
        </automationpattern>
      </track>
      <track type="5" muted="0" name="lgt pitch on/off" solo="0">
        <automationtrack/>
        <automationpattern prog="0" mute="0" pos="31680" name="AM pitchshifter>Effect enabled" tens="1" len="192">
          <time pos="0" value="1"/>
          <object id="2786011"/>
        </automationpattern>
        <automationpattern prog="0" mute="0" pos="32256" name="AM pitchshifter>Effect enabled" tens="1" len="192">
          <time pos="0" value="0"/>
          <object id="2786011"/>
        </automationpattern>
        <automationpattern prog="0" mute="0" pos="0" name="AM pitchshifter>Effect enabled" tens="1" len="192">
          <time pos="0" value="0"/>
          <object id="2786011"/>
        </automationpattern>
      </track>
      <track type="5" muted="0" name="rgt pitch" height="32" solo="0">
        <automationtrack/>
        <automationpattern prog="2" mute="0" pos="13440" name="AM pitchshifter>>>Pitch shift" tens="1" len="384">
          <time pos="0" value="1.09031"/>
          <time pos="96" value="2.28938"/>
          <time pos="192" value="1.21734"/>
          <time pos="384" value="2.76844"/>
          <object id="7309738"/>
          <object id="4307265"/>
        </automationpattern>
        <automationpattern prog="0" mute="0" pos="13248" name="AM pitchshifter>>>Pitch shift" tens="1" len="192">
          <time pos="0" value="2.32734"/>
          <object id="7309738"/>
        </automationpattern>
        <automationpattern prog="0" mute="0" pos="13824" name="AM pitchshifter>>>Pitch shift" tens="1" len="192">
          <time pos="0" value="2.32734"/>
          <object id="7309738"/>
        </automationpattern>
        <automationpattern prog="0" mute="0" pos="0" name="AM pitchshifter>>>Pitch shift" tens="1" len="192">
          <time pos="0" value="2.32734"/>
          <object id="7309738"/>
        </automationpattern>
      </track>
      <track type="5" muted="0" name="lgt pitch" solo="0">
        <automationtrack/>
        <automationpattern prog="0" mute="0" pos="0" name="Tempo" tens="1" len="192">
          <time pos="0" value="201"/>
          <object id="2356958"/>
        </automationpattern>
        <automationpattern prog="0" mute="0" pos="31680" name="AM pitchshifter>>>Pitch shift" tens="1" len="192">
          <time pos="0" value="2.32441"/>
          <object id="485849"/>
          <object id="2557451"/>
        </automationpattern>
        <automationpattern prog="2" mute="0" pos="31872" name="AM pitchshifter>>>Pitch shift" tens="1" len="384">
          <time pos="0" value="1.34484"/>
          <time pos="24" value="2.74078"/>
          <time pos="240" value="1.31766"/>
          <time pos="384" value="0.25"/>
          <object id="485849"/>
          <object id="2557451"/>
        </automationpattern>
        <automationpattern prog="0" mute="0" pos="32256" name="AM pitchshifter>>>Pitch shift" tens="1" len="192">
          <time pos="0" value="2.32441"/>
          <object id="485849"/>
          <object id="2557451"/>
        </automationpattern>
      </track>
      <track type="5" muted="0" name="lgt pitch on/off" solo="0">
        <automationtrack/>
        <automationpattern prog="0" mute="0" pos="31872" name="AM pitchshifter>Effect enabled" tens="1" len="192">
          <time pos="0" value="1"/>
          <object id="2786011"/>
          <object id="2274258"/>
        </automationpattern>
        <automationpattern prog="0" mute="0" pos="32256" name="AM pitchshifter>Effect enabled" tens="1" len="192">
          <time pos="0" value="0"/>
          <object id="2786011"/>
          <object id="2274258"/>
        </automationpattern>
        <automationpattern prog="0" mute="0" pos="0" name="AM pitchshifter>Effect enabled" tens="1" len="192">
          <time pos="0" value="0"/>
          <object id="2786011"/>
          <object id="2274258"/>
          <object id="2557451"/>
        </automationpattern>
      </track>
      <track type="1" muted="0" name="Beat/Bassline 24" solo="0">
        <bbtrack/>
        <bbtco color="4286611584" pos="43776" muted="0" usestyle="1" name="" len="384"/>
      </track>
      <track type="0" muted="0" name="Rhythm Guitar" height="32" solo="0">
        <instrumenttrack pan="0" pitch="0" basenote="57" usemasterpitch="1" vol="200" fxch="11" pitchrange="1">
          <instrument name="carlapatchbay">
            <carlapatchbay>
              <CARLA-PROJECT VERSION="2.0">
                <EngineSettings>
                  <ForceStereo>false</ForceStereo>
                  <PreferPluginBridges>false</PreferPluginBridges>
                  <PreferUiBridges>true</PreferUiBridges>
                  <UIsAlwaysOnTop>false</UIsAlwaysOnTop>
                  <MaxParameters>200</MaxParameters>
                  <UIBridgesTimeout>4000</UIBridgesTimeout>
                  <LADSPA_PATH>/home/huggypie/.ladspa:/usr/lib/ladspa:/usr/local/lib/ladspa</LADSPA_PATH>
                  <DSSI_PATH>/home/huggypie/.dssi:/usr/lib/dssi:/usr/local/lib/dssi</DSSI_PATH>
                  <LV2_PATH>/home/huggypie/.lv2:/usr/lib/lv2:/usr/local/lib/lv2</LV2_PATH>
                  <VST2_PATH>/home/huggypie/.vst:/home/huggypie/.wine/drive_c/Program Files (x86)/VstPlugins:/home/huggypie/.wine/drive_c/Program Files/VstPlugins:/home/huggypie/vst:/usr/lib/lxvst:/usr/lib/vst:/usr/local/lib/lxvst:/usr/local/lib/vst/home/huggypie/.lxvst</VST2_PATH>
                  <VST3_PATH>/home/huggypie/.vst3:/home/huggypie/.wine/drive_c/Program Files (x86)/Common Files/VST3:/home/huggypie/.wine/drive_c/Program Files/Common Files/VST3:/usr/lib/vst3:/usr/local/lib/vst3</VST3_PATH>
                  <SF2_PATH>/home/huggypie/.sounds/sf2/home/huggypie/.sounds/sf3:/usr/share/soundfonts:/usr/share/sounds/sf2:/usr/share/sounds/sf3</SF2_PATH>
                  <SFZ_PATH>/home/huggypie/.sounds/sfz:/home/huggypie/samples:/usr/share/sounds/sfz</SFZ_PATH>
                </EngineSettings>
                <!-- sfizz -->
                <Plugin>
                  <Info>
                    <Type>LV2</Type>
                    <Name>sfizz</Name>
                    <URI>http://sfztools.github.io/sfizz</URI>
                  </Info>
                  <Data>
                    <Active>Yes</Active>
                    <ControlChannel>1</ControlChannel>
                    <Options>0x3f0</Options>
                    <Parameter>
                      <Index>0</Index>
                      <Name>Volume</Name>
                      <Symbol>volume</Symbol>
                      <Value>0</Value>
                    </Parameter>
                    <Parameter>
                      <Index>1</Index>
                      <Name>Polyphony</Name>
                      <Symbol>num_voices</Symbol>
                      <Value>64</Value>
                    </Parameter>
                    <Parameter>
                      <Index>2</Index>
                      <Name>Internal oversampling factor</Name>
                      <Symbol>oversampling</Symbol>
                      <Value>1</Value>
                    </Parameter>
                    <Parameter>
                      <Index>3</Index>
                      <Name>Preload size</Name>
                      <Symbol>preload_size</Symbol>
                      <Value>8192</Value>
                    </Parameter>
                    <Parameter>
                      <Index>5</Index>
                      <Name>Scala root key</Name>
                      <Symbol>scala_root_key</Symbol>
                      <Value>60</Value>
                    </Parameter>
                    <Parameter>
                      <Index>6</Index>
                      <Name>Tuning frequency</Name>
                      <Symbol>tuning_frequency</Symbol>
                      <Value>440</Value>
                    </Parameter>
                    <Parameter>
                      <Index>7</Index>
                      <Name>Stretched tuning</Name>
                      <Symbol>stretched_tuning</Symbol>
                      <Value>0</Value>
                    </Parameter>
                    <CustomData>
                      <Type>http://lv2plug.in/ns/ext/atom#Path</Type>
                      <Key>http://sfztools.github.io/sfizz:sfzfile</Key>
                      <Value>../samples/fakeguitar/_fakeguitar1_integrated.sfz</Value>
                    </CustomData>
                    <CustomData>
                      <Type>http://lv2plug.in/ns/ext/atom#Int</Type>
                      <Key>http://sfztools.github.io/sfizz:numvoices</Key>
                      <Value>QAAAAA==</Value>
                    </CustomData>
                    <CustomData>
                      <Type>http://lv2plug.in/ns/ext/atom#Int</Type>
                      <Key>http://sfztools.github.io/sfizz:preload_size</Key>
                      <Value>ACAAAA==</Value>
                    </CustomData>
                    <CustomData>
                      <Type>http://lv2plug.in/ns/ext/atom#Int</Type>
                      <Key>http://sfztools.github.io/sfizz:oversampling</Key>
                      <Value>AQAAAA==</Value>
                    </CustomData>
                    <CustomData>
                      <Type>http://lv2plug.in/ns/ext/atom#Path</Type>
                      <Key>http://sfztools.github.io/sfizz:tuningfile</Key>
                      <Value>../../../usr/lib/lv2/sfizz.lv2//Contents/Resources/DefaultScale.scl</Value>
                    </CustomData>
                  </Data>
                </Plugin>
                <!-- sfizz -->
                <Plugin>
                  <Info>
                    <Type>LV2</Type>
                    <Name>sfizz (2)</Name>
                    <URI>http://sfztools.github.io/sfizz</URI>
                  </Info>
                  <Data>
                    <Active>Yes</Active>
                    <ControlChannel>1</ControlChannel>
                    <Options>0x3f0</Options>
                    <Parameter>
                      <Index>0</Index>
                      <Name>Volume</Name>
                      <Symbol>volume</Symbol>
                      <Value>0</Value>
                    </Parameter>
                    <Parameter>
                      <Index>1</Index>
                      <Name>Polyphony</Name>
                      <Symbol>num_voices</Symbol>
                      <Value>64</Value>
                    </Parameter>
                    <Parameter>
                      <Index>2</Index>
                      <Name>Internal oversampling factor</Name>
                      <Symbol>oversampling</Symbol>
                      <Value>1</Value>
                    </Parameter>
                    <Parameter>
                      <Index>3</Index>
                      <Name>Preload size</Name>
                      <Symbol>preload_size</Symbol>
                      <Value>8192</Value>
                    </Parameter>
                    <Parameter>
                      <Index>5</Index>
                      <Name>Scala root key</Name>
                      <Symbol>scala_root_key</Symbol>
                      <Value>60</Value>
                    </Parameter>
                    <Parameter>
                      <Index>6</Index>
                      <Name>Tuning frequency</Name>
                      <Symbol>tuning_frequency</Symbol>
                      <Value>440</Value>
                    </Parameter>
                    <Parameter>
                      <Index>7</Index>
                      <Name>Stretched tuning</Name>
                      <Symbol>stretched_tuning</Symbol>
                      <Value>0</Value>
                    </Parameter>
                    <CustomData>
                      <Type>http://lv2plug.in/ns/ext/atom#Path</Type>
                      <Key>http://sfztools.github.io/sfizz:sfzfile</Key>
                      <Value>../samples/fakeguitar/_fakeguitar2_integrated.sfz</Value>
                    </CustomData>
                    <CustomData>
                      <Type>http://lv2plug.in/ns/ext/atom#Int</Type>
                      <Key>http://sfztools.github.io/sfizz:numvoices</Key>
                      <Value>QAAAAA==</Value>
                    </CustomData>
                    <CustomData>
                      <Type>http://lv2plug.in/ns/ext/atom#Int</Type>
                      <Key>http://sfztools.github.io/sfizz:preload_size</Key>
                      <Value>ACAAAA==</Value>
                    </CustomData>
                    <CustomData>
                      <Type>http://lv2plug.in/ns/ext/atom#Int</Type>
                      <Key>http://sfztools.github.io/sfizz:oversampling</Key>
                      <Value>AQAAAA==</Value>
                    </CustomData>
                    <CustomData>
                      <Type>http://lv2plug.in/ns/ext/atom#Path</Type>
                      <Key>http://sfztools.github.io/sfizz:tuningfile</Key>
                      <Value>../../../usr/lib/lv2/sfizz.lv2//Contents/Resources/DefaultScale.scl</Value>
                    </CustomData>
                  </Data>
                </Plugin>
                <Patchbay>
                  <Connection>
                    <Source>Midi Input:Capture 1</Source>
                    <Target>sfizz:events-in</Target>
                  </Connection>
                  <Connection>
                    <Source>sfizz:Left Output</Source>
                    <Target>Audio Output:Left</Target>
                  </Connection>
                  <Connection>
                    <Source>sfizz:Right Output</Source>
                    <Target>Audio Output:Left</Target>
                  </Connection>
                  <Connection>
                    <Source>Midi Input:Capture 1</Source>
                    <Target>sfizz (2):events-in</Target>
                  </Connection>
                  <Connection>
                    <Source>sfizz (2):Right Output</Source>
                    <Target>Audio Output:Right</Target>
                  </Connection>
                  <Connection>
                    <Source>sfizz (2):Left Output</Source>
                    <Target>Audio Output:Right</Target>
                  </Connection>
                </Patchbay>
              </CARLA-PROJECT>
            </carlapatchbay>
          </instrument>
          <eldata fres="0.5" fcut="14000" fwet="0" ftype="0">
            <elvol lspd_numerator="4" userwavefile="" lshp="0" x100="0" amt="0" lspd_syncmode="0" ctlenvamt="0" dec="0.5" hold="0.5" lspd_denominator="4" sustain="0.5" lamt="0" lspd="0.1" pdel="0" att="0" lpdel="0" latt="0" rel="0.1"/>
            <elcut lspd_numerator="4" userwavefile="" lshp="0" x100="0" amt="0" lspd_syncmode="0" ctlenvamt="0" dec="0.5" hold="0.5" lspd_denominator="4" sustain="0.5" lamt="0" lspd="0.1" pdel="0" att="0" lpdel="0" latt="0" rel="0.1"/>
            <elres lspd_numerator="4" userwavefile="" lshp="0" x100="0" amt="0" lspd_syncmode="0" ctlenvamt="0" dec="0.5" hold="0.5" lspd_denominator="4" sustain="0.5" lamt="0" lspd="0.1" pdel="0" att="0" lpdel="0" latt="0" rel="0.1"/>
          </eldata>
          <chordcreator chordrange="1" chord="0" chord-enabled="0"/>
          <arpeggiator arpskip="0" arpmiss="0" arp-enabled="0" arpgate="100" arpdir="0" arpcycle="0" arprange="1" arptime_numerator="4" arptime_denominator="4" arptime_syncmode="0" arptime="200" arp="0" arpmode="0"/>
          <midiport outputcontroller="0" inputchannel="0" outputchannel="1" fixedoutputvelocity="-1" readable="0" inputcontroller="0" basevelocity="127" fixedoutputnote="-1" fixedinputvelocity="-1" outputprogram="1" writable="0"/>
          <fxchain enabled="1" numofeffects="0"/>
        </instrumenttrack>
        <pattern type="1" pos="384" muted="0" name="Rhythm Guitar" steps="16">
          <note pan="0" pos="0" key="44" len="384" vol="191"/>
          <note pan="0" pos="0" key="37" len="384" vol="191"/>
          <note pan="0" pos="0" key="0" len="48" vol="191"/>
          <note pan="0" pos="384" key="51" len="384" vol="193"/>
          <note pan="0" pos="384" key="44" len="384" vol="193"/>
          <note pan="0" pos="768" key="46" len="384" vol="193"/>
          <note pan="0" pos="768" key="39" len="384" vol="193"/>
          <note pan="0" pos="1152" key="45" len="336" vol="193"/>
          <note pan="0" pos="1152" key="38" len="336" vol="193"/>
          <note pan="0" pos="1476" key="1" len="12" vol="193"/>
          <note pan="0" pos="1488" key="38" len="12" vol="193"/>
          <note pan="0" pos="1500" key="38" len="12" vol="193"/>
          <note pan="0" pos="1512" key="38" len="12" vol="193"/>
          <note pan="0" pos="1524" key="38" len="12" vol="193"/>
        </pattern>
        <pattern type="1" pos="1920" muted="0" name="Rhythm Guitar" steps="16">
          <note pan="0" pos="0" key="44" len="36" vol="78"/>
          <note pan="0" pos="0" key="37" len="36" vol="78"/>
          <note pan="0" pos="0" key="1" len="24" vol="78"/>
          <note pan="0" pos="72" key="44" len="36" vol="78"/>
          <note pan="0" pos="72" key="37" len="36" vol="78"/>
          <note pan="0" pos="144" key="44" len="36" vol="78"/>
          <note pan="0" pos="144" key="37" len="36" vol="78"/>
          <note pan="0" pos="216" key="44" len="36" vol="78"/>
          <note pan="0" pos="216" key="37" len="36" vol="78"/>
          <note pan="0" pos="288" key="44" len="24" vol="78"/>
          <note pan="0" pos="288" key="37" len="24" vol="78"/>
          <note pan="0" pos="300" key="0" len="24" vol="78"/>
          <note pan="0" pos="312" key="44" len="48" vol="78"/>
          <note pan="0" pos="312" key="37" len="48" vol="78"/>
          <note pan="0" pos="336" key="1" len="24" vol="78"/>
          <note pan="0" pos="360" key="44" len="24" vol="78"/>
          <note pan="0" pos="360" key="37" len="24" vol="78"/>
          <note pan="0" pos="384" key="51" len="36" vol="78"/>
          <note pan="0" pos="384" key="44" len="36" vol="78"/>
          <note pan="0" pos="456" key="51" len="36" vol="78"/>
          <note pan="0" pos="456" key="44" len="36" vol="78"/>
          <note pan="0" pos="528" key="51" len="36" vol="78"/>
          <note pan="0" pos="528" key="44" len="36" vol="78"/>
          <note pan="0" pos="600" key="51" len="36" vol="78"/>
          <note pan="0" pos="600" key="44" len="36" vol="78"/>
          <note pan="0" pos="672" key="51" len="24" vol="78"/>
          <note pan="0" pos="672" key="44" len="24" vol="78"/>
          <note pan="0" pos="684" key="0" len="24" vol="78"/>
          <note pan="0" pos="696" key="51" len="48" vol="78"/>
          <note pan="0" pos="696" key="44" len="48" vol="78"/>
          <note pan="0" pos="720" key="1" len="24" vol="78"/>
          <note pan="0" pos="744" key="51" len="24" vol="78"/>
          <note pan="0" pos="744" key="44" len="24" vol="78"/>
          <note pan="0" pos="768" key="46" len="36" vol="78"/>
          <note pan="0" pos="768" key="39" len="36" vol="78"/>
          <note pan="0" pos="840" key="46" len="36" vol="78"/>
          <note pan="0" pos="840" key="39" len="36" vol="78"/>
          <note pan="0" pos="912" key="46" len="36" vol="78"/>
          <note pan="0" pos="912" key="39" len="36" vol="78"/>
          <note pan="0" pos="984" key="46" len="36" vol="78"/>
          <note pan="0" pos="984" key="39" len="36" vol="78"/>
          <note pan="0" pos="1056" key="46" len="24" vol="78"/>
          <note pan="0" pos="1056" key="39" len="24" vol="78"/>
          <note pan="0" pos="1068" key="0" len="24" vol="78"/>
          <note pan="0" pos="1080" key="46" len="48" vol="78"/>
          <note pan="0" pos="1080" key="39" len="48" vol="78"/>
          <note pan="0" pos="1116" key="1" len="24" vol="78"/>
          <note pan="0" pos="1128" key="46" len="24" vol="78"/>
          <note pan="0" pos="1128" key="39" len="24" vol="78"/>
          <note pan="0" pos="1140" key="0" len="12" vol="78"/>
          <note pan="0" pos="1152" key="45" len="24" vol="78"/>
          <note pan="0" pos="1152" key="38" len="24" vol="78"/>
          <note pan="0" pos="1164" key="0" len="12" vol="78"/>
          <note pan="0" pos="1176" key="38" len="12" vol="78"/>
          <note pan="0" pos="1188" key="38" len="12" vol="78"/>
          <note pan="0" pos="1200" key="38" len="12" vol="78"/>
          <note pan="0" pos="1212" key="38" len="12" vol="78"/>
          <note pan="0" pos="1224" key="45" len="24" vol="78"/>
          <note pan="0" pos="1224" key="38" len="24" vol="78"/>
          <note pan="0" pos="1224" key="0" len="12" vol="78"/>
          <note pan="0" pos="1236" key="1" len="12" vol="78"/>
          <note pan="0" pos="1248" key="38" len="12" vol="78"/>
          <note pan="0" pos="1260" key="38" len="12" vol="78"/>
          <note pan="0" pos="1272" key="38" len="12" vol="78"/>
          <note pan="0" pos="1284" key="38" len="12" vol="78"/>
          <note pan="0" pos="1296" key="45" len="24" vol="78"/>
          <note pan="0" pos="1296" key="38" len="24" vol="78"/>
          <note pan="0" pos="1296" key="0" len="12" vol="78"/>
          <note pan="0" pos="1308" key="1" len="12" vol="78"/>
          <note pan="0" pos="1320" key="38" len="12" vol="78"/>
          <note pan="0" pos="1332" key="38" len="12" vol="78"/>
          <note pan="0" pos="1344" key="45" len="192" vol="78"/>
          <note pan="0" pos="1344" key="38" len="192" vol="78"/>
          <note pan="0" pos="1344" key="0" len="12" vol="78"/>
        </pattern>
        <pattern type="1" pos="3456" muted="0" name="Rhythm Guitar" steps="16">
          <note pan="0" pos="0" key="44" len="192" vol="197"/>
          <note pan="0" pos="0" key="37" len="192" vol="197"/>
          <note pan="0" pos="0" key="0" len="48" vol="78"/>
          <note pan="0" pos="192" key="51" len="192" vol="197"/>
          <note pan="0" pos="192" key="44" len="192" vol="197"/>
          <note pan="0" pos="384" key="52" len="192" vol="197"/>
          <note pan="0" pos="384" key="45" len="192" vol="197"/>
          <note pan="0" pos="576" key="54" len="192" vol="197"/>
          <note pan="0" pos="576" key="47" len="192" vol="197"/>
          <note pan="0" pos="756" key="1" len="12" vol="197"/>
          <note pan="0" pos="768" key="42" len="12" vol="197"/>
          <note pan="0" pos="780" key="42" len="12" vol="197"/>
          <note pan="0" pos="792" key="42" len="12" vol="197"/>
          <note pan="0" pos="804" key="42" len="12" vol="197"/>
          <note pan="0" pos="816" key="42" len="12" vol="197"/>
          <note pan="0" pos="828" key="42" len="12" vol="197"/>
          <note pan="0" pos="840" key="42" len="12" vol="197"/>
          <note pan="0" pos="852" key="42" len="12" vol="197"/>
          <note pan="0" pos="864" key="42" len="12" vol="197"/>
          <note pan="0" pos="876" key="42" len="12" vol="197"/>
          <note pan="0" pos="888" key="42" len="12" vol="197"/>
          <note pan="0" pos="900" key="42" len="12" vol="197"/>
          <note pan="0" pos="912" key="42" len="12" vol="197"/>
          <note pan="0" pos="924" key="42" len="12" vol="197"/>
          <note pan="0" pos="936" key="42" len="12" vol="197"/>
          <note pan="0" pos="948" key="42" len="12" vol="197"/>
          <note pan="0" pos="960" key="44" len="12" vol="197"/>
          <note pan="0" pos="972" key="44" len="12" vol="197"/>
          <note pan="0" pos="984" key="44" len="12" vol="197"/>
          <note pan="0" pos="996" key="44" len="12" vol="197"/>
          <note pan="0" pos="1008" key="44" len="12" vol="197"/>
          <note pan="0" pos="1020" key="44" len="12" vol="197"/>
          <note pan="0" pos="1032" key="44" len="12" vol="197"/>
          <note pan="0" pos="1044" key="44" len="12" vol="197"/>
          <note pan="0" pos="1056" key="44" len="12" vol="197"/>
          <note pan="0" pos="1068" key="44" len="12" vol="197"/>
          <note pan="0" pos="1080" key="44" len="12" vol="197"/>
          <note pan="0" pos="1092" key="44" len="12" vol="197"/>
          <note pan="0" pos="1104" key="44" len="12" vol="197"/>
          <note pan="0" pos="1116" key="44" len="12" vol="197"/>
          <note pan="0" pos="1128" key="44" len="12" vol="197"/>
          <note pan="0" pos="1140" key="44" len="12" vol="197"/>
          <note pan="0" pos="1152" key="45" len="12" vol="197"/>
          <note pan="0" pos="1164" key="45" len="12" vol="197"/>
          <note pan="0" pos="1176" key="45" len="12" vol="197"/>
          <note pan="0" pos="1188" key="45" len="12" vol="197"/>
          <note pan="0" pos="1200" key="45" len="12" vol="197"/>
          <note pan="0" pos="1212" key="45" len="12" vol="197"/>
          <note pan="0" pos="1224" key="45" len="12" vol="197"/>
          <note pan="0" pos="1236" key="45" len="12" vol="197"/>
          <note pan="0" pos="1248" key="45" len="12" vol="197"/>
          <note pan="0" pos="1260" key="45" len="12" vol="197"/>
          <note pan="0" pos="1272" key="45" len="12" vol="197"/>
          <note pan="0" pos="1284" key="45" len="12" vol="197"/>
          <note pan="0" pos="1296" key="45" len="12" vol="197"/>
          <note pan="0" pos="1308" key="45" len="12" vol="197"/>
          <note pan="0" pos="1320" key="45" len="12" vol="197"/>
          <note pan="0" pos="1332" key="45" len="12" vol="197"/>
          <note pan="0" pos="1344" key="54" len="48" vol="197"/>
          <note pan="0" pos="1344" key="47" len="48" vol="197"/>
          <note pan="0" pos="1344" key="0" len="12" vol="197"/>
          <note pan="0" pos="1392" key="54" len="48" vol="197"/>
          <note pan="0" pos="1392" key="47" len="48" vol="197"/>
          <note pan="0" pos="1440" key="51" len="48" vol="197"/>
          <note pan="0" pos="1440" key="44" len="48" vol="197"/>
          <note pan="0" pos="1488" key="54" len="48" vol="197"/>
          <note pan="0" pos="1488" key="47" len="48" vol="197"/>
        </pattern>
        <pattern type="1" pos="4992" muted="0" name="Rhythm Guitar" steps="16">
          <note pan="0" pos="0" key="49" len="24" vol="197"/>
          <note pan="0" pos="0" key="0" len="12" vol="197"/>
          <note pan="0" pos="24" key="47" len="24" vol="197"/>
          <note pan="0" pos="48" key="49" len="24" vol="197"/>
          <note pan="0" pos="72" key="56" len="24" vol="197"/>
          <note pan="0" pos="84" key="1" len="12" vol="197"/>
          <note pan="0" pos="96" key="49" len="12" vol="197"/>
          <note pan="0" pos="108" key="49" len="12" vol="197"/>
          <note pan="0" pos="120" key="49" len="12" vol="197"/>
          <note pan="0" pos="132" key="49" len="12" vol="197"/>
          <note pan="0" pos="144" key="49" len="12" vol="197"/>
          <note pan="0" pos="156" key="49" len="12" vol="197"/>
          <note pan="0" pos="168" key="49" len="12" vol="197"/>
          <note pan="0" pos="180" key="49" len="12" vol="197"/>
        </pattern>
        <pattern type="1" pos="5184" muted="0" name="Rhythm Guitar" steps="16">
          <note pan="0" pos="0" key="42" len="24" vol="197"/>
          <note pan="0" pos="0" key="0" len="12" vol="197"/>
          <note pan="0" pos="24" key="40" len="24" vol="197"/>
          <note pan="0" pos="48" key="42" len="24" vol="197"/>
          <note pan="0" pos="72" key="49" len="24" vol="197"/>
          <note pan="0" pos="84" key="1" len="12" vol="197"/>
          <note pan="0" pos="96" key="42" len="12" vol="197"/>
          <note pan="0" pos="108" key="42" len="12" vol="197"/>
          <note pan="0" pos="120" key="42" len="12" vol="197"/>
          <note pan="0" pos="132" key="42" len="12" vol="197"/>
          <note pan="0" pos="144" key="42" len="12" vol="197"/>
          <note pan="0" pos="156" key="42" len="12" vol="197"/>
          <note pan="0" pos="168" key="42" len="12" vol="197"/>
          <note pan="0" pos="180" key="42" len="12" vol="197"/>
        </pattern>
        <pattern type="1" pos="5376" muted="0" name="Rhythm Guitar" steps="16">
          <note pan="0" pos="0" key="44" len="24" vol="78"/>
          <note pan="0" pos="0" key="1" len="24" vol="78"/>
          <note pan="0" pos="24" key="47" len="24" vol="78"/>
          <note pan="0" pos="48" key="44" len="24" vol="78"/>
          <note pan="0" pos="60" key="0" len="24" vol="78"/>
          <note pan="0" pos="72" key="51" len="48" vol="78"/>
          <note pan="0" pos="108" key="1" len="24" vol="78"/>
          <note pan="0" pos="120" key="44" len="24" vol="78"/>
          <note pan="0" pos="144" key="47" len="24" vol="78"/>
          <note pan="0" pos="168" key="51" len="24" vol="78"/>
          <note pan="0" pos="192" key="45" len="12" vol="78"/>
          <note pan="0" pos="204" key="45" len="12" vol="78"/>
          <note pan="0" pos="216" key="45" len="12" vol="78"/>
          <note pan="0" pos="228" key="45" len="12" vol="78"/>
          <note pan="0" pos="240" key="45" len="12" vol="78"/>
          <note pan="0" pos="252" key="45" len="12" vol="78"/>
          <note pan="0" pos="264" key="49" len="12" vol="78"/>
          <note pan="0" pos="276" key="49" len="12" vol="78"/>
          <note pan="0" pos="288" key="47" len="12" vol="78"/>
          <note pan="0" pos="300" key="47" len="12" vol="78"/>
          <note pan="0" pos="312" key="47" len="12" vol="78"/>
          <note pan="0" pos="324" key="47" len="12" vol="78"/>
          <note pan="0" pos="336" key="51" len="12" vol="78"/>
          <note pan="0" pos="348" key="51" len="12" vol="78"/>
          <note pan="0" pos="360" key="47" len="12" vol="78"/>
          <note pan="0" pos="372" key="47" len="12" vol="78"/>
        </pattern>
        <pattern type="1" pos="5760" muted="0" name="Rhythm Guitar" steps="16">
          <note pan="0" pos="0" key="49" len="24" vol="197"/>
          <note pan="0" pos="0" key="0" len="12" vol="197"/>
          <note pan="0" pos="24" key="47" len="24" vol="197"/>
          <note pan="0" pos="48" key="49" len="24" vol="197"/>
          <note pan="0" pos="72" key="56" len="24" vol="197"/>
          <note pan="0" pos="84" key="1" len="12" vol="197"/>
          <note pan="0" pos="96" key="49" len="12" vol="197"/>
          <note pan="0" pos="108" key="49" len="12" vol="197"/>
          <note pan="0" pos="120" key="49" len="12" vol="197"/>
          <note pan="0" pos="132" key="49" len="12" vol="197"/>
          <note pan="0" pos="144" key="49" len="12" vol="197"/>
          <note pan="0" pos="156" key="49" len="12" vol="197"/>
          <note pan="0" pos="168" key="49" len="12" vol="197"/>
          <note pan="0" pos="180" key="49" len="12" vol="197"/>
        </pattern>
        <pattern type="1" pos="5952" muted="0" name="Rhythm Guitar" steps="16">
          <note pan="0" pos="0" key="42" len="24" vol="197"/>
          <note pan="0" pos="0" key="0" len="12" vol="197"/>
          <note pan="0" pos="24" key="40" len="24" vol="197"/>
          <note pan="0" pos="48" key="42" len="24" vol="197"/>
          <note pan="0" pos="72" key="49" len="24" vol="197"/>
          <note pan="0" pos="84" key="1" len="12" vol="197"/>
          <note pan="0" pos="96" key="42" len="12" vol="197"/>
          <note pan="0" pos="108" key="42" len="12" vol="197"/>
          <note pan="0" pos="120" key="42" len="12" vol="197"/>
          <note pan="0" pos="132" key="42" len="12" vol="197"/>
          <note pan="0" pos="144" key="42" len="12" vol="197"/>
          <note pan="0" pos="156" key="42" len="12" vol="197"/>
          <note pan="0" pos="168" key="42" len="12" vol="197"/>
          <note pan="0" pos="180" key="42" len="12" vol="197"/>
        </pattern>
        <pattern type="1" pos="6144" muted="0" name="Rhythm Guitar" steps="16">
          <note pan="0" pos="0" key="44" len="24" vol="78"/>
          <note pan="0" pos="0" key="1" len="24" vol="78"/>
          <note pan="0" pos="24" key="47" len="24" vol="78"/>
          <note pan="0" pos="48" key="44" len="24" vol="78"/>
          <note pan="0" pos="60" key="0" len="24" vol="78"/>
          <note pan="0" pos="72" key="51" len="48" vol="78"/>
          <note pan="0" pos="108" key="1" len="24" vol="78"/>
          <note pan="0" pos="120" key="44" len="24" vol="78"/>
          <note pan="0" pos="144" key="47" len="24" vol="78"/>
          <note pan="0" pos="168" key="51" len="24" vol="78"/>
          <note pan="0" pos="192" key="45" len="12" vol="78"/>
          <note pan="0" pos="204" key="45" len="12" vol="78"/>
          <note pan="0" pos="216" key="45" len="12" vol="78"/>
          <note pan="0" pos="228" key="45" len="12" vol="78"/>
          <note pan="0" pos="240" key="45" len="12" vol="78"/>
          <note pan="0" pos="252" key="45" len="12" vol="78"/>
          <note pan="0" pos="264" key="49" len="12" vol="78"/>
          <note pan="0" pos="276" key="49" len="12" vol="78"/>
          <note pan="0" pos="288" key="47" len="12" vol="78"/>
          <note pan="0" pos="300" key="47" len="12" vol="78"/>
          <note pan="0" pos="312" key="47" len="12" vol="78"/>
          <note pan="0" pos="324" key="47" len="12" vol="78"/>
          <note pan="0" pos="336" key="51" len="12" vol="78"/>
          <note pan="0" pos="348" key="51" len="12" vol="78"/>
          <note pan="0" pos="360" key="47" len="12" vol="78"/>
          <note pan="0" pos="372" key="47" len="12" vol="78"/>
        </pattern>
        <pattern type="1" pos="6528" muted="0" name="Rhythm Guitar" steps="16">
          <note pan="0" pos="0" key="42" len="48" vol="197"/>
          <note pan="0" pos="0" key="35" len="48" vol="197"/>
          <note pan="0" pos="0" key="0" len="48" vol="78"/>
          <note pan="0" pos="36" key="1" len="24" vol="78"/>
          <note pan="0" pos="48" key="35" len="12" vol="197"/>
          <note pan="0" pos="60" key="35" len="12" vol="197"/>
          <note pan="0" pos="72" key="35" len="24" vol="197"/>
          <note pan="0" pos="96" key="35" len="12" vol="197"/>
          <note pan="0" pos="108" key="35" len="12" vol="197"/>
          <note pan="0" pos="120" key="35" len="24" vol="197"/>
          <note pan="0" pos="144" key="35" len="12" vol="197"/>
          <note pan="0" pos="156" key="35" len="12" vol="197"/>
          <note pan="0" pos="168" key="35" len="24" vol="197"/>
          <note pan="0" pos="180" key="0" len="48" vol="78"/>
          <note pan="0" pos="192" key="42" len="48" vol="197"/>
          <note pan="0" pos="192" key="35" len="48" vol="197"/>
          <note pan="0" pos="228" key="1" len="48" vol="78"/>
          <note pan="0" pos="240" key="35" len="12" vol="197"/>
          <note pan="0" pos="252" key="35" len="12" vol="197"/>
          <note pan="0" pos="264" key="35" len="24" vol="197"/>
          <note pan="0" pos="288" key="35" len="12" vol="197"/>
          <note pan="0" pos="300" key="35" len="12" vol="197"/>
          <note pan="0" pos="312" key="35" len="24" vol="197"/>
          <note pan="0" pos="336" key="35" len="12" vol="197"/>
          <note pan="0" pos="348" key="35" len="12" vol="197"/>
          <note pan="0" pos="360" key="35" len="24" vol="197"/>
          <note pan="0" pos="372" key="0" len="48" vol="78"/>
          <note pan="0" pos="384" key="52" len="48" vol="197"/>
          <note pan="0" pos="384" key="45" len="48" vol="197"/>
          <note pan="0" pos="408" key="1" len="48" vol="78"/>
          <note pan="0" pos="432" key="45" len="12" vol="197"/>
          <note pan="0" pos="444" key="45" len="12" vol="197"/>
          <note pan="0" pos="456" key="45" len="24" vol="197"/>
          <note pan="0" pos="480" key="45" len="12" vol="197"/>
          <note pan="0" pos="492" key="45" len="12" vol="197"/>
          <note pan="0" pos="504" key="45" len="24" vol="197"/>
          <note pan="0" pos="528" key="45" len="12" vol="197"/>
          <note pan="0" pos="540" key="45" len="12" vol="197"/>
          <note pan="0" pos="552" key="45" len="24" vol="197"/>
          <note pan="0" pos="564" key="0" len="48" vol="78"/>
          <note pan="0" pos="576" key="51" len="48" vol="197"/>
          <note pan="0" pos="576" key="44" len="48" vol="197"/>
          <note pan="0" pos="612" key="1" len="48" vol="78"/>
          <note pan="0" pos="624" key="44" len="12" vol="197"/>
          <note pan="0" pos="636" key="44" len="12" vol="197"/>
          <note pan="0" pos="648" key="44" len="24" vol="197"/>
          <note pan="0" pos="672" key="44" len="12" vol="197"/>
          <note pan="0" pos="684" key="44" len="12" vol="197"/>
          <note pan="0" pos="696" key="44" len="12" vol="197"/>
          <note pan="0" pos="708" key="44" len="12" vol="197"/>
          <note pan="0" pos="720" key="44" len="12" vol="197"/>
          <note pan="0" pos="732" key="44" len="12" vol="197"/>
          <note pan="0" pos="744" key="44" len="24" vol="197"/>
        </pattern>
        <pattern type="1" pos="7296" muted="0" name="Rhythm Guitar" steps="16">
          <note pan="0" pos="0" key="42" len="24" vol="197"/>
          <note pan="0" pos="0" key="1" len="24" vol="197"/>
          <note pan="0" pos="24" key="40" len="24" vol="197"/>
          <note pan="0" pos="48" key="42" len="24" vol="197"/>
          <note pan="0" pos="60" key="0" len="24" vol="197"/>
          <note pan="0" pos="72" key="49" len="24" vol="197"/>
          <note pan="0" pos="84" key="1" len="24" vol="197"/>
          <note pan="0" pos="96" key="42" len="24" vol="197"/>
          <note pan="0" pos="108" key="0" len="24" vol="197"/>
          <note pan="0" pos="120" key="52" len="24" vol="197"/>
          <note pan="0" pos="144" key="47" len="24" vol="197"/>
          <note pan="0" pos="168" key="49" len="24" vol="197"/>
          <note pan="0" pos="192" key="42" len="24" vol="197"/>
          <note pan="0" pos="216" key="40" len="24" vol="197"/>
          <note pan="0" pos="240" key="42" len="24" vol="197"/>
          <note pan="0" pos="264" key="49" len="24" vol="197"/>
          <note pan="0" pos="288" key="42" len="24" vol="197"/>
          <note pan="0" pos="312" key="52" len="24" vol="197"/>
          <note pan="0" pos="336" key="54" len="24" vol="197"/>
          <note pan="0" pos="360" key="52" len="24" vol="197"/>
        </pattern>
        <pattern type="1" pos="8064" muted="0" name="Rhythm Guitar" steps="16">
          <note pan="0" pos="0" key="44" len="48" vol="195"/>
          <note pan="0" pos="0" key="37" len="48" vol="195"/>
          <note pan="0" pos="0" key="0" len="36" vol="195"/>
          <note pan="0" pos="36" key="1" len="36" vol="195"/>
          <note pan="0" pos="48" key="37" len="12" vol="195"/>
          <note pan="0" pos="60" key="37" len="12" vol="195"/>
          <note pan="0" pos="72" key="37" len="12" vol="195"/>
          <note pan="0" pos="84" key="37" len="12" vol="195"/>
          <note pan="0" pos="96" key="37" len="12" vol="195"/>
          <note pan="0" pos="108" key="37" len="12" vol="195"/>
          <note pan="0" pos="120" key="37" len="12" vol="195"/>
          <note pan="0" pos="132" key="37" len="12" vol="195"/>
          <note pan="0" pos="144" key="37" len="12" vol="195"/>
          <note pan="0" pos="156" key="37" len="12" vol="195"/>
          <note pan="0" pos="168" key="37" len="12" vol="195"/>
          <note pan="0" pos="180" key="37" len="12" vol="195"/>
          <note pan="0" pos="180" key="0" len="36" vol="195"/>
          <note pan="0" pos="192" key="51" len="48" vol="195"/>
          <note pan="0" pos="192" key="44" len="48" vol="195"/>
          <note pan="0" pos="216" key="1" len="36" vol="195"/>
          <note pan="0" pos="240" key="44" len="12" vol="195"/>
          <note pan="0" pos="252" key="44" len="12" vol="195"/>
          <note pan="0" pos="264" key="44" len="12" vol="195"/>
          <note pan="0" pos="276" key="44" len="12" vol="195"/>
          <note pan="0" pos="288" key="44" len="12" vol="195"/>
          <note pan="0" pos="300" key="44" len="12" vol="195"/>
          <note pan="0" pos="312" key="44" len="12" vol="195"/>
          <note pan="0" pos="324" key="44" len="12" vol="195"/>
          <note pan="0" pos="336" key="44" len="12" vol="195"/>
          <note pan="0" pos="348" key="44" len="12" vol="195"/>
          <note pan="0" pos="360" key="44" len="12" vol="195"/>
          <note pan="0" pos="372" key="44" len="12" vol="195"/>
          <note pan="0" pos="372" key="0" len="36" vol="195"/>
          <note pan="0" pos="384" key="52" len="48" vol="195"/>
          <note pan="0" pos="384" key="45" len="48" vol="195"/>
          <note pan="0" pos="408" key="1" len="36" vol="195"/>
          <note pan="0" pos="432" key="45" len="12" vol="195"/>
          <note pan="0" pos="444" key="45" len="12" vol="195"/>
          <note pan="0" pos="456" key="45" len="12" vol="195"/>
          <note pan="0" pos="468" key="45" len="12" vol="195"/>
          <note pan="0" pos="480" key="45" len="12" vol="195"/>
          <note pan="0" pos="492" key="45" len="12" vol="195"/>
          <note pan="0" pos="504" key="45" len="12" vol="195"/>
          <note pan="0" pos="516" key="45" len="12" vol="195"/>
          <note pan="0" pos="528" key="45" len="12" vol="195"/>
          <note pan="0" pos="540" key="45" len="12" vol="195"/>
          <note pan="0" pos="552" key="45" len="12" vol="195"/>
          <note pan="0" pos="564" key="45" len="12" vol="195"/>
          <note pan="0" pos="564" key="0" len="36" vol="195"/>
          <note pan="0" pos="576" key="54" len="48" vol="195"/>
          <note pan="0" pos="576" key="47" len="48" vol="195"/>
          <note pan="0" pos="600" key="1" len="36" vol="195"/>
          <note pan="0" pos="624" key="47" len="12" vol="195"/>
          <note pan="0" pos="636" key="47" len="12" vol="195"/>
          <note pan="0" pos="648" key="47" len="12" vol="195"/>
          <note pan="0" pos="660" key="47" len="12" vol="195"/>
          <note pan="0" pos="672" key="47" len="12" vol="195"/>
          <note pan="0" pos="684" key="47" len="12" vol="195"/>
          <note pan="0" pos="696" key="47" len="12" vol="195"/>
          <note pan="0" pos="708" key="47" len="12" vol="195"/>
          <note pan="0" pos="720" key="47" len="12" vol="195"/>
          <note pan="0" pos="732" key="47" len="12" vol="195"/>
          <note pan="0" pos="744" key="47" len="12" vol="195"/>
          <note pan="0" pos="756" key="47" len="12" vol="195"/>
          <note pan="0" pos="768" key="49" len="48" vol="195"/>
          <note pan="0" pos="768" key="42" len="48" vol="195"/>
          <note pan="0" pos="768" key="0" len="36" vol="195"/>
          <note pan="0" pos="792" key="1" len="36" vol="195"/>
          <note pan="0" pos="816" key="42" len="12" vol="195"/>
          <note pan="0" pos="828" key="42" len="12" vol="195"/>
          <note pan="0" pos="840" key="42" len="12" vol="195"/>
          <note pan="0" pos="852" key="42" len="12" vol="195"/>
          <note pan="0" pos="864" key="42" len="12" vol="195"/>
          <note pan="0" pos="876" key="42" len="12" vol="195"/>
          <note pan="0" pos="888" key="42" len="12" vol="195"/>
          <note pan="0" pos="900" key="42" len="12" vol="195"/>
          <note pan="0" pos="912" key="42" len="12" vol="195"/>
          <note pan="0" pos="924" key="42" len="12" vol="195"/>
          <note pan="0" pos="936" key="42" len="12" vol="195"/>
          <note pan="0" pos="948" key="42" len="12" vol="195"/>
          <note pan="0" pos="948" key="0" len="36" vol="195"/>
          <note pan="0" pos="960" key="51" len="48" vol="195"/>
          <note pan="0" pos="960" key="44" len="48" vol="195"/>
          <note pan="0" pos="984" key="1" len="36" vol="195"/>
          <note pan="0" pos="1008" key="44" len="12" vol="195"/>
          <note pan="0" pos="1020" key="44" len="12" vol="195"/>
          <note pan="0" pos="1032" key="44" len="12" vol="195"/>
          <note pan="0" pos="1044" key="44" len="12" vol="195"/>
          <note pan="0" pos="1056" key="44" len="12" vol="195"/>
          <note pan="0" pos="1068" key="44" len="12" vol="195"/>
          <note pan="0" pos="1080" key="44" len="12" vol="195"/>
          <note pan="0" pos="1092" key="44" len="12" vol="195"/>
          <note pan="0" pos="1104" key="44" len="12" vol="195"/>
          <note pan="0" pos="1116" key="44" len="12" vol="195"/>
          <note pan="0" pos="1128" key="44" len="12" vol="195"/>
          <note pan="0" pos="1140" key="44" len="12" vol="195"/>
          <note pan="0" pos="1140" key="0" len="36" vol="195"/>
          <note pan="0" pos="1152" key="52" len="48" vol="195"/>
          <note pan="0" pos="1152" key="45" len="48" vol="195"/>
          <note pan="0" pos="1176" key="1" len="36" vol="195"/>
          <note pan="0" pos="1200" key="45" len="12" vol="195"/>
          <note pan="0" pos="1212" key="45" len="12" vol="195"/>
          <note pan="0" pos="1224" key="45" len="12" vol="195"/>
          <note pan="0" pos="1236" key="45" len="12" vol="195"/>
          <note pan="0" pos="1248" key="45" len="12" vol="195"/>
          <note pan="0" pos="1260" key="45" len="12" vol="195"/>
          <note pan="0" pos="1272" key="45" len="12" vol="195"/>
          <note pan="0" pos="1284" key="45" len="12" vol="195"/>
          <note pan="0" pos="1296" key="45" len="12" vol="195"/>
          <note pan="0" pos="1308" key="45" len="12" vol="195"/>
          <note pan="0" pos="1320" key="45" len="12" vol="195"/>
          <note pan="0" pos="1332" key="45" len="12" vol="195"/>
          <note pan="0" pos="1332" key="0" len="36" vol="195"/>
          <note pan="0" pos="1344" key="54" len="48" vol="195"/>
          <note pan="0" pos="1344" key="47" len="48" vol="195"/>
          <note pan="0" pos="1368" key="1" len="36" vol="195"/>
          <note pan="0" pos="1392" key="47" len="12" vol="195"/>
          <note pan="0" pos="1404" key="47" len="12" vol="195"/>
          <note pan="0" pos="1416" key="47" len="12" vol="195"/>
          <note pan="0" pos="1428" key="47" len="12" vol="195"/>
          <note pan="0" pos="1440" key="48" len="12" vol="195"/>
          <note pan="0" pos="1452" key="48" len="12" vol="195"/>
          <note pan="0" pos="1464" key="48" len="12" vol="195"/>
          <note pan="0" pos="1464" key="1" len="36" vol="195"/>
          <note pan="0" pos="1476" key="48" len="12" vol="195"/>
          <note pan="0" pos="1488" key="48" len="12" vol="195"/>
          <note pan="0" pos="1500" key="48" len="12" vol="195"/>
          <note pan="0" pos="1512" key="48" len="12" vol="195"/>
          <note pan="0" pos="1524" key="48" len="12" vol="195"/>
          <note pan="0" pos="1524" key="0" len="36" vol="195"/>
          <note pan="0" pos="1536" key="44" len="48" vol="195"/>
          <note pan="0" pos="1536" key="37" len="48" vol="195"/>
          <note pan="0" pos="1560" key="1" len="36" vol="195"/>
          <note pan="0" pos="1584" key="37" len="12" vol="195"/>
          <note pan="0" pos="1596" key="37" len="12" vol="195"/>
          <note pan="0" pos="1608" key="37" len="12" vol="195"/>
          <note pan="0" pos="1620" key="37" len="12" vol="195"/>
          <note pan="0" pos="1632" key="37" len="12" vol="195"/>
          <note pan="0" pos="1644" key="37" len="12" vol="195"/>
          <note pan="0" pos="1656" key="37" len="12" vol="195"/>
          <note pan="0" pos="1668" key="37" len="12" vol="195"/>
          <note pan="0" pos="1680" key="37" len="12" vol="195"/>
          <note pan="0" pos="1692" key="37" len="12" vol="195"/>
          <note pan="0" pos="1704" key="37" len="12" vol="195"/>
          <note pan="0" pos="1716" key="37" len="12" vol="195"/>
          <note pan="0" pos="1716" key="0" len="36" vol="195"/>
          <note pan="0" pos="1728" key="54" len="48" vol="195"/>
          <note pan="0" pos="1728" key="47" len="48" vol="195"/>
          <note pan="0" pos="1752" key="1" len="36" vol="195"/>
          <note pan="0" pos="1776" key="47" len="12" vol="195"/>
          <note pan="0" pos="1788" key="47" len="12" vol="195"/>
          <note pan="0" pos="1800" key="47" len="12" vol="195"/>
          <note pan="0" pos="1812" key="47" len="12" vol="195"/>
          <note pan="0" pos="1824" key="47" len="12" vol="195"/>
          <note pan="0" pos="1836" key="47" len="12" vol="195"/>
          <note pan="0" pos="1848" key="47" len="12" vol="195"/>
          <note pan="0" pos="1860" key="47" len="12" vol="195"/>
          <note pan="0" pos="1872" key="47" len="12" vol="195"/>
          <note pan="0" pos="1884" key="47" len="12" vol="195"/>
          <note pan="0" pos="1896" key="47" len="12" vol="195"/>
          <note pan="0" pos="1908" key="47" len="12" vol="195"/>
          <note pan="0" pos="1908" key="0" len="36" vol="195"/>
          <note pan="0" pos="1920" key="54" len="48" vol="195"/>
          <note pan="0" pos="1920" key="46" len="48" vol="195"/>
          <note pan="0" pos="1944" key="1" len="36" vol="195"/>
          <note pan="0" pos="1968" key="46" len="12" vol="195"/>
          <note pan="0" pos="1980" key="46" len="12" vol="195"/>
          <note pan="0" pos="1992" key="46" len="12" vol="195"/>
          <note pan="0" pos="2004" key="46" len="12" vol="195"/>
          <note pan="0" pos="2016" key="46" len="12" vol="195"/>
          <note pan="0" pos="2028" key="46" len="12" vol="195"/>
          <note pan="0" pos="2040" key="46" len="12" vol="195"/>
          <note pan="0" pos="2052" key="46" len="12" vol="195"/>
          <note pan="0" pos="2064" key="46" len="12" vol="195"/>
          <note pan="0" pos="2076" key="46" len="12" vol="195"/>
          <note pan="0" pos="2088" key="46" len="12" vol="195"/>
          <note pan="0" pos="2100" key="46" len="12" vol="195"/>
          <note pan="0" pos="2100" key="0" len="36" vol="195"/>
          <note pan="0" pos="2112" key="49" len="48" vol="195"/>
          <note pan="0" pos="2112" key="42" len="48" vol="195"/>
          <note pan="0" pos="2136" key="1" len="36" vol="195"/>
          <note pan="0" pos="2160" key="42" len="12" vol="195"/>
          <note pan="0" pos="2172" key="42" len="12" vol="195"/>
          <note pan="0" pos="2184" key="42" len="12" vol="195"/>
          <note pan="0" pos="2196" key="42" len="12" vol="195"/>
          <note pan="0" pos="2196" key="0" len="36" vol="195"/>
          <note pan="0" pos="2208" key="47" len="48" vol="195"/>
          <note pan="0" pos="2208" key="40" len="48" vol="195"/>
          <note pan="0" pos="2232" key="1" len="36" vol="195"/>
          <note pan="0" pos="2256" key="40" len="12" vol="195"/>
          <note pan="0" pos="2268" key="40" len="12" vol="195"/>
          <note pan="0" pos="2280" key="40" len="12" vol="195"/>
          <note pan="0" pos="2292" key="40" len="12" vol="195"/>
          <note pan="0" pos="2292" key="0" len="36" vol="195"/>
          <note pan="0" pos="2304" key="45" len="48" vol="195"/>
          <note pan="0" pos="2304" key="38" len="48" vol="195"/>
          <note pan="0" pos="2328" key="1" len="36" vol="195"/>
          <note pan="0" pos="2352" key="38" len="12" vol="195"/>
          <note pan="0" pos="2364" key="38" len="12" vol="195"/>
          <note pan="0" pos="2376" key="38" len="12" vol="195"/>
          <note pan="0" pos="2388" key="38" len="12" vol="195"/>
          <note pan="0" pos="2400" key="38" len="12" vol="195"/>
          <note pan="0" pos="2412" key="38" len="12" vol="195"/>
          <note pan="0" pos="2424" key="38" len="12" vol="195"/>
          <note pan="0" pos="2436" key="38" len="12" vol="195"/>
          <note pan="0" pos="2448" key="38" len="12" vol="195"/>
          <note pan="0" pos="2460" key="38" len="12" vol="195"/>
          <note pan="0" pos="2472" key="38" len="12" vol="195"/>
          <note pan="0" pos="2484" key="38" len="12" vol="195"/>
          <note pan="0" pos="2484" key="0" len="36" vol="195"/>
          <note pan="0" pos="2496" key="52" len="48" vol="195"/>
          <note pan="0" pos="2496" key="45" len="48" vol="195"/>
          <note pan="0" pos="2520" key="1" len="36" vol="195"/>
          <note pan="0" pos="2544" key="45" len="12" vol="195"/>
          <note pan="0" pos="2556" key="45" len="12" vol="195"/>
          <note pan="0" pos="2568" key="45" len="12" vol="195"/>
          <note pan="0" pos="2580" key="45" len="12" vol="195"/>
          <note pan="0" pos="2592" key="45" len="12" vol="195"/>
          <note pan="0" pos="2604" key="45" len="12" vol="195"/>
          <note pan="0" pos="2616" key="45" len="12" vol="195"/>
          <note pan="0" pos="2628" key="45" len="12" vol="195"/>
          <note pan="0" pos="2640" key="45" len="12" vol="195"/>
          <note pan="0" pos="2652" key="45" len="12" vol="195"/>
          <note pan="0" pos="2664" key="45" len="12" vol="195"/>
          <note pan="0" pos="2676" key="45" len="12" vol="195"/>
          <note pan="0" pos="2676" key="0" len="36" vol="195"/>
          <note pan="0" pos="2688" key="54" len="48" vol="195"/>
          <note pan="0" pos="2688" key="47" len="48" vol="195"/>
          <note pan="0" pos="2712" key="1" len="36" vol="195"/>
          <note pan="0" pos="2736" key="47" len="12" vol="195"/>
          <note pan="0" pos="2748" key="47" len="12" vol="195"/>
          <note pan="0" pos="2760" key="47" len="12" vol="195"/>
          <note pan="0" pos="2772" key="47" len="12" vol="195"/>
          <note pan="0" pos="2784" key="47" len="12" vol="195"/>
          <note pan="0" pos="2796" key="47" len="12" vol="195"/>
          <note pan="0" pos="2808" key="47" len="12" vol="195"/>
          <note pan="0" pos="2820" key="47" len="12" vol="195"/>
          <note pan="0" pos="2832" key="47" len="12" vol="195"/>
          <note pan="0" pos="2844" key="47" len="12" vol="195"/>
          <note pan="0" pos="2856" key="47" len="12" vol="195"/>
          <note pan="0" pos="2868" key="47" len="12" vol="195"/>
          <note pan="0" pos="2868" key="0" len="36" vol="195"/>
          <note pan="0" pos="2880" key="54" len="96" vol="195"/>
          <note pan="0" pos="2880" key="47" len="96" vol="195"/>
          <note pan="0" pos="2976" key="58" len="96" vol="195"/>
          <note pan="0" pos="2976" key="51" len="96" vol="195"/>
        </pattern>
        <pattern type="1" pos="7680" muted="0" name="Rhythm Guitar" steps="16">
          <note pan="0" pos="0" key="46" len="24" vol="78"/>
          <note pan="0" pos="0" key="39" len="24" vol="78"/>
          <note pan="0" pos="0" key="0" len="12" vol="78"/>
          <note pan="0" pos="12" key="1" len="12" vol="78"/>
          <note pan="0" pos="24" key="39" len="12" vol="78"/>
          <note pan="0" pos="36" key="39" len="12" vol="78"/>
          <note pan="0" pos="48" key="39" len="12" vol="78"/>
          <note pan="0" pos="60" key="39" len="12" vol="78"/>
          <note pan="0" pos="72" key="39" len="12" vol="78"/>
          <note pan="0" pos="84" key="39" len="12" vol="78"/>
          <note pan="0" pos="96" key="39" len="12" vol="78"/>
          <note pan="0" pos="108" key="39" len="12" vol="78"/>
          <note pan="0" pos="120" key="39" len="12" vol="78"/>
          <note pan="0" pos="132" key="39" len="12" vol="78"/>
          <note pan="0" pos="144" key="39" len="12" vol="78"/>
          <note pan="0" pos="156" key="39" len="12" vol="78"/>
          <note pan="0" pos="168" key="39" len="12" vol="78"/>
          <note pan="0" pos="180" key="39" len="12" vol="78"/>
          <note pan="0" pos="192" key="52" len="96" vol="78"/>
          <note pan="0" pos="192" key="45" len="96" vol="78"/>
          <note pan="0" pos="192" key="0" len="12" vol="78"/>
          <note pan="0" pos="288" key="51" len="96" vol="78"/>
          <note pan="0" pos="288" key="44" len="96" vol="78"/>
        </pattern>
        <pattern type="1" pos="11136" muted="0" name="Rhythm Guitar" steps="16">
          <note pan="0" pos="0" key="44" len="24" vol="197"/>
          <note pan="0" pos="0" key="37" len="24" vol="197"/>
          <note pan="0" pos="0" key="0" len="12" vol="197"/>
          <note pan="0" pos="12" key="1" len="12" vol="197"/>
          <note pan="0" pos="24" key="37" len="12" vol="197"/>
          <note pan="0" pos="36" key="37" len="12" vol="197"/>
          <note pan="0" pos="48" key="37" len="12" vol="197"/>
          <note pan="0" pos="60" key="37" len="12" vol="197"/>
          <note pan="0" pos="72" key="44" len="24" vol="197"/>
          <note pan="0" pos="72" key="37" len="24" vol="197"/>
          <note pan="0" pos="72" key="0" len="12" vol="197"/>
          <note pan="0" pos="84" key="1" len="12" vol="197"/>
          <note pan="0" pos="96" key="37" len="12" vol="197"/>
          <note pan="0" pos="108" key="37" len="12" vol="197"/>
          <note pan="0" pos="120" key="37" len="12" vol="197"/>
          <note pan="0" pos="132" key="37" len="12" vol="197"/>
          <note pan="0" pos="144" key="44" len="24" vol="197"/>
          <note pan="0" pos="144" key="37" len="24" vol="197"/>
          <note pan="0" pos="144" key="0" len="24" vol="197"/>
          <note pan="0" pos="156" key="1" len="24" vol="197"/>
          <note pan="0" pos="168" key="37" len="12" vol="197"/>
          <note pan="0" pos="180" key="37" len="12" vol="197"/>
          <note pan="0" pos="192" key="37" len="12" vol="197"/>
          <note pan="0" pos="204" key="37" len="12" vol="197"/>
          <note pan="0" pos="216" key="44" len="24" vol="197"/>
          <note pan="0" pos="216" key="37" len="24" vol="197"/>
          <note pan="0" pos="216" key="0" len="24" vol="197"/>
          <note pan="0" pos="228" key="1" len="24" vol="197"/>
          <note pan="0" pos="240" key="37" len="12" vol="197"/>
          <note pan="0" pos="252" key="37" len="12" vol="197"/>
          <note pan="0" pos="264" key="37" len="12" vol="197"/>
          <note pan="0" pos="276" key="37" len="12" vol="197"/>
          <note pan="0" pos="288" key="44" len="24" vol="197"/>
          <note pan="0" pos="288" key="37" len="24" vol="197"/>
          <note pan="0" pos="288" key="0" len="24" vol="197"/>
          <note pan="0" pos="300" key="1" len="24" vol="197"/>
          <note pan="0" pos="312" key="37" len="12" vol="197"/>
          <note pan="0" pos="324" key="37" len="12" vol="197"/>
          <note pan="0" pos="336" key="44" len="24" vol="197"/>
          <note pan="0" pos="336" key="37" len="24" vol="197"/>
          <note pan="0" pos="336" key="0" len="24" vol="197"/>
          <note pan="0" pos="348" key="1" len="24" vol="197"/>
          <note pan="0" pos="360" key="37" len="12" vol="197"/>
          <note pan="0" pos="372" key="37" len="12" vol="197"/>
        </pattern>
        <pattern type="1" pos="11904" muted="0" name="Rhythm Guitar" steps="16">
          <note pan="0" pos="0" key="44" len="24" vol="197"/>
          <note pan="0" pos="0" key="37" len="24" vol="197"/>
          <note pan="0" pos="0" key="0" len="12" vol="197"/>
          <note pan="0" pos="12" key="1" len="12" vol="197"/>
          <note pan="0" pos="24" key="37" len="12" vol="197"/>
          <note pan="0" pos="36" key="37" len="12" vol="197"/>
          <note pan="0" pos="48" key="37" len="12" vol="197"/>
          <note pan="0" pos="60" key="37" len="12" vol="197"/>
          <note pan="0" pos="72" key="44" len="24" vol="197"/>
          <note pan="0" pos="72" key="37" len="24" vol="197"/>
          <note pan="0" pos="72" key="0" len="12" vol="197"/>
          <note pan="0" pos="84" key="1" len="12" vol="197"/>
          <note pan="0" pos="96" key="37" len="12" vol="197"/>
          <note pan="0" pos="108" key="37" len="12" vol="197"/>
          <note pan="0" pos="120" key="37" len="12" vol="197"/>
          <note pan="0" pos="132" key="37" len="12" vol="197"/>
          <note pan="0" pos="144" key="44" len="24" vol="197"/>
          <note pan="0" pos="144" key="37" len="24" vol="197"/>
          <note pan="0" pos="144" key="0" len="24" vol="197"/>
          <note pan="0" pos="156" key="1" len="24" vol="197"/>
          <note pan="0" pos="168" key="37" len="12" vol="197"/>
          <note pan="0" pos="180" key="37" len="12" vol="197"/>
          <note pan="0" pos="192" key="37" len="12" vol="197"/>
          <note pan="0" pos="204" key="37" len="12" vol="197"/>
          <note pan="0" pos="216" key="44" len="24" vol="197"/>
          <note pan="0" pos="216" key="37" len="24" vol="197"/>
          <note pan="0" pos="216" key="0" len="24" vol="197"/>
          <note pan="0" pos="228" key="1" len="24" vol="197"/>
          <note pan="0" pos="240" key="37" len="12" vol="197"/>
          <note pan="0" pos="252" key="37" len="12" vol="197"/>
          <note pan="0" pos="264" key="37" len="12" vol="197"/>
          <note pan="0" pos="276" key="37" len="12" vol="197"/>
          <note pan="0" pos="288" key="44" len="24" vol="197"/>
          <note pan="0" pos="288" key="37" len="24" vol="197"/>
          <note pan="0" pos="288" key="0" len="24" vol="197"/>
          <note pan="0" pos="300" key="1" len="24" vol="197"/>
          <note pan="0" pos="312" key="37" len="12" vol="197"/>
          <note pan="0" pos="324" key="37" len="12" vol="197"/>
          <note pan="0" pos="336" key="44" len="24" vol="197"/>
          <note pan="0" pos="336" key="37" len="24" vol="197"/>
          <note pan="0" pos="336" key="0" len="24" vol="197"/>
          <note pan="0" pos="348" key="1" len="24" vol="197"/>
          <note pan="0" pos="360" key="37" len="12" vol="197"/>
          <note pan="0" pos="372" key="37" len="12" vol="197"/>
        </pattern>
        <pattern type="1" pos="11520" muted="0" name="Rhythm Guitar" steps="16">
          <note pan="0" pos="0" key="45" len="24" vol="197"/>
          <note pan="0" pos="0" key="38" len="24" vol="197"/>
          <note pan="0" pos="0" key="0" len="12" vol="197"/>
          <note pan="0" pos="12" key="1" len="12" vol="197"/>
          <note pan="0" pos="24" key="38" len="12" vol="197"/>
          <note pan="0" pos="36" key="38" len="12" vol="197"/>
          <note pan="0" pos="48" key="38" len="12" vol="197"/>
          <note pan="0" pos="60" key="38" len="12" vol="197"/>
          <note pan="0" pos="72" key="45" len="24" vol="197"/>
          <note pan="0" pos="72" key="38" len="24" vol="197"/>
          <note pan="0" pos="72" key="0" len="12" vol="197"/>
          <note pan="0" pos="84" key="1" len="12" vol="197"/>
          <note pan="0" pos="96" key="38" len="12" vol="197"/>
          <note pan="0" pos="108" key="38" len="12" vol="197"/>
          <note pan="0" pos="120" key="38" len="12" vol="197"/>
          <note pan="0" pos="132" key="38" len="12" vol="197"/>
          <note pan="0" pos="144" key="45" len="24" vol="197"/>
          <note pan="0" pos="144" key="38" len="24" vol="197"/>
          <note pan="0" pos="144" key="0" len="24" vol="197"/>
          <note pan="0" pos="156" key="1" len="24" vol="197"/>
          <note pan="0" pos="168" key="38" len="12" vol="197"/>
          <note pan="0" pos="180" key="38" len="12" vol="197"/>
          <note pan="0" pos="192" key="38" len="12" vol="197"/>
          <note pan="0" pos="204" key="38" len="12" vol="197"/>
          <note pan="0" pos="216" key="45" len="24" vol="197"/>
          <note pan="0" pos="216" key="38" len="24" vol="197"/>
          <note pan="0" pos="216" key="0" len="24" vol="197"/>
          <note pan="0" pos="228" key="1" len="24" vol="197"/>
          <note pan="0" pos="240" key="38" len="12" vol="197"/>
          <note pan="0" pos="252" key="38" len="12" vol="197"/>
          <note pan="0" pos="264" key="38" len="12" vol="197"/>
          <note pan="0" pos="276" key="38" len="12" vol="197"/>
          <note pan="0" pos="288" key="45" len="24" vol="197"/>
          <note pan="0" pos="288" key="38" len="24" vol="197"/>
          <note pan="0" pos="288" key="0" len="24" vol="197"/>
          <note pan="0" pos="300" key="1" len="24" vol="197"/>
          <note pan="0" pos="312" key="38" len="12" vol="197"/>
          <note pan="0" pos="324" key="38" len="12" vol="197"/>
          <note pan="0" pos="336" key="45" len="24" vol="197"/>
          <note pan="0" pos="336" key="38" len="24" vol="197"/>
          <note pan="0" pos="336" key="0" len="24" vol="197"/>
          <note pan="0" pos="348" key="1" len="24" vol="197"/>
          <note pan="0" pos="360" key="38" len="12" vol="197"/>
          <note pan="0" pos="372" key="38" len="12" vol="197"/>
        </pattern>
        <pattern type="1" pos="12288" muted="0" name="Rhythm Guitar" steps="16">
          <note pan="0" pos="0" key="45" len="24" vol="197"/>
          <note pan="0" pos="0" key="38" len="24" vol="197"/>
          <note pan="0" pos="0" key="0" len="12" vol="197"/>
          <note pan="0" pos="12" key="1" len="12" vol="197"/>
          <note pan="0" pos="24" key="38" len="12" vol="197"/>
          <note pan="0" pos="36" key="38" len="12" vol="197"/>
          <note pan="0" pos="48" key="38" len="12" vol="197"/>
          <note pan="0" pos="60" key="38" len="12" vol="197"/>
          <note pan="0" pos="72" key="45" len="24" vol="197"/>
          <note pan="0" pos="72" key="38" len="24" vol="197"/>
          <note pan="0" pos="72" key="0" len="12" vol="197"/>
          <note pan="0" pos="84" key="1" len="12" vol="197"/>
          <note pan="0" pos="96" key="38" len="12" vol="197"/>
          <note pan="0" pos="108" key="38" len="12" vol="197"/>
          <note pan="0" pos="120" key="38" len="12" vol="197"/>
          <note pan="0" pos="132" key="38" len="12" vol="197"/>
          <note pan="0" pos="144" key="45" len="24" vol="197"/>
          <note pan="0" pos="144" key="38" len="24" vol="197"/>
          <note pan="0" pos="144" key="0" len="24" vol="197"/>
          <note pan="0" pos="156" key="1" len="24" vol="197"/>
          <note pan="0" pos="168" key="38" len="12" vol="197"/>
          <note pan="0" pos="180" key="38" len="12" vol="197"/>
          <note pan="0" pos="192" key="38" len="12" vol="197"/>
          <note pan="0" pos="204" key="38" len="12" vol="197"/>
          <note pan="0" pos="216" key="45" len="24" vol="197"/>
          <note pan="0" pos="216" key="38" len="24" vol="197"/>
          <note pan="0" pos="216" key="0" len="24" vol="197"/>
          <note pan="0" pos="228" key="1" len="24" vol="197"/>
          <note pan="0" pos="240" key="38" len="12" vol="197"/>
          <note pan="0" pos="252" key="38" len="12" vol="197"/>
          <note pan="0" pos="264" key="38" len="12" vol="197"/>
          <note pan="0" pos="276" key="38" len="12" vol="197"/>
          <note pan="0" pos="288" key="45" len="24" vol="197"/>
          <note pan="0" pos="288" key="38" len="24" vol="197"/>
          <note pan="0" pos="288" key="0" len="24" vol="197"/>
          <note pan="0" pos="300" key="1" len="24" vol="197"/>
          <note pan="0" pos="312" key="38" len="12" vol="197"/>
          <note pan="0" pos="324" key="38" len="12" vol="197"/>
          <note pan="0" pos="336" key="45" len="24" vol="197"/>
          <note pan="0" pos="336" key="38" len="24" vol="197"/>
          <note pan="0" pos="336" key="0" len="24" vol="197"/>
          <note pan="0" pos="348" key="1" len="24" vol="197"/>
          <note pan="0" pos="360" key="38" len="12" vol="197"/>
          <note pan="0" pos="372" key="38" len="12" vol="197"/>
        </pattern>
        <pattern type="1" pos="13440" muted="0" name="Rhythm Guitar" steps="16">
          <note pan="0" pos="0" key="37" len="192" vol="197"/>
          <note pan="0" pos="0" key="0" len="384" vol="197"/>
          <note pan="0" pos="192" key="37" len="192" vol="197"/>
        </pattern>
        <pattern type="1" pos="15744" muted="0" name="Rhythm Guitar" steps="16">
          <note pan="0" pos="0" key="44" len="48" vol="195"/>
          <note pan="0" pos="0" key="37" len="48" vol="195"/>
          <note pan="0" pos="0" key="0" len="36" vol="195"/>
          <note pan="0" pos="36" key="1" len="36" vol="195"/>
          <note pan="0" pos="48" key="37" len="12" vol="195"/>
          <note pan="0" pos="60" key="37" len="12" vol="195"/>
          <note pan="0" pos="72" key="37" len="12" vol="195"/>
          <note pan="0" pos="84" key="37" len="12" vol="195"/>
          <note pan="0" pos="96" key="37" len="12" vol="195"/>
          <note pan="0" pos="108" key="37" len="12" vol="195"/>
          <note pan="0" pos="120" key="37" len="12" vol="195"/>
          <note pan="0" pos="132" key="37" len="12" vol="195"/>
          <note pan="0" pos="144" key="37" len="12" vol="195"/>
          <note pan="0" pos="156" key="37" len="12" vol="195"/>
          <note pan="0" pos="168" key="37" len="12" vol="195"/>
          <note pan="0" pos="180" key="37" len="12" vol="195"/>
          <note pan="0" pos="180" key="0" len="36" vol="195"/>
          <note pan="0" pos="192" key="51" len="48" vol="195"/>
          <note pan="0" pos="192" key="44" len="48" vol="195"/>
          <note pan="0" pos="216" key="1" len="36" vol="195"/>
          <note pan="0" pos="240" key="44" len="12" vol="195"/>
          <note pan="0" pos="252" key="44" len="12" vol="195"/>
          <note pan="0" pos="264" key="44" len="12" vol="195"/>
          <note pan="0" pos="276" key="44" len="12" vol="195"/>
          <note pan="0" pos="288" key="44" len="12" vol="195"/>
          <note pan="0" pos="300" key="44" len="12" vol="195"/>
          <note pan="0" pos="312" key="44" len="12" vol="195"/>
          <note pan="0" pos="324" key="44" len="12" vol="195"/>
          <note pan="0" pos="336" key="44" len="12" vol="195"/>
          <note pan="0" pos="348" key="44" len="12" vol="195"/>
          <note pan="0" pos="360" key="44" len="12" vol="195"/>
          <note pan="0" pos="372" key="44" len="12" vol="195"/>
          <note pan="0" pos="372" key="0" len="36" vol="195"/>
          <note pan="0" pos="384" key="52" len="48" vol="195"/>
          <note pan="0" pos="384" key="45" len="48" vol="195"/>
          <note pan="0" pos="408" key="1" len="36" vol="195"/>
          <note pan="0" pos="432" key="45" len="12" vol="195"/>
          <note pan="0" pos="444" key="45" len="12" vol="195"/>
          <note pan="0" pos="456" key="45" len="12" vol="195"/>
          <note pan="0" pos="468" key="45" len="12" vol="195"/>
          <note pan="0" pos="480" key="45" len="12" vol="195"/>
          <note pan="0" pos="492" key="45" len="12" vol="195"/>
          <note pan="0" pos="504" key="45" len="12" vol="195"/>
          <note pan="0" pos="516" key="45" len="12" vol="195"/>
          <note pan="0" pos="528" key="45" len="12" vol="195"/>
          <note pan="0" pos="540" key="45" len="12" vol="195"/>
          <note pan="0" pos="552" key="45" len="12" vol="195"/>
          <note pan="0" pos="564" key="45" len="12" vol="195"/>
          <note pan="0" pos="564" key="0" len="36" vol="195"/>
          <note pan="0" pos="576" key="54" len="48" vol="195"/>
          <note pan="0" pos="576" key="47" len="48" vol="195"/>
          <note pan="0" pos="600" key="1" len="36" vol="195"/>
          <note pan="0" pos="624" key="47" len="12" vol="195"/>
          <note pan="0" pos="636" key="47" len="12" vol="195"/>
          <note pan="0" pos="648" key="47" len="12" vol="195"/>
          <note pan="0" pos="660" key="47" len="12" vol="195"/>
          <note pan="0" pos="672" key="47" len="12" vol="195"/>
          <note pan="0" pos="684" key="47" len="12" vol="195"/>
          <note pan="0" pos="696" key="47" len="12" vol="195"/>
          <note pan="0" pos="708" key="47" len="12" vol="195"/>
          <note pan="0" pos="720" key="47" len="12" vol="195"/>
          <note pan="0" pos="732" key="47" len="12" vol="195"/>
          <note pan="0" pos="744" key="47" len="12" vol="195"/>
          <note pan="0" pos="756" key="47" len="12" vol="195"/>
          <note pan="0" pos="768" key="49" len="48" vol="195"/>
          <note pan="0" pos="768" key="42" len="48" vol="195"/>
          <note pan="0" pos="768" key="0" len="36" vol="195"/>
          <note pan="0" pos="792" key="1" len="36" vol="195"/>
          <note pan="0" pos="816" key="42" len="12" vol="195"/>
          <note pan="0" pos="828" key="42" len="12" vol="195"/>
          <note pan="0" pos="840" key="42" len="12" vol="195"/>
          <note pan="0" pos="852" key="42" len="12" vol="195"/>
          <note pan="0" pos="864" key="42" len="12" vol="195"/>
          <note pan="0" pos="876" key="42" len="12" vol="195"/>
          <note pan="0" pos="888" key="42" len="12" vol="195"/>
          <note pan="0" pos="900" key="42" len="12" vol="195"/>
          <note pan="0" pos="912" key="42" len="12" vol="195"/>
          <note pan="0" pos="924" key="42" len="12" vol="195"/>
          <note pan="0" pos="936" key="42" len="12" vol="195"/>
          <note pan="0" pos="948" key="42" len="12" vol="195"/>
          <note pan="0" pos="948" key="0" len="36" vol="195"/>
          <note pan="0" pos="960" key="51" len="48" vol="195"/>
          <note pan="0" pos="960" key="44" len="48" vol="195"/>
          <note pan="0" pos="984" key="1" len="36" vol="195"/>
          <note pan="0" pos="1008" key="44" len="12" vol="195"/>
          <note pan="0" pos="1020" key="44" len="12" vol="195"/>
          <note pan="0" pos="1032" key="44" len="12" vol="195"/>
          <note pan="0" pos="1044" key="44" len="12" vol="195"/>
          <note pan="0" pos="1056" key="44" len="12" vol="195"/>
          <note pan="0" pos="1068" key="44" len="12" vol="195"/>
          <note pan="0" pos="1080" key="44" len="12" vol="195"/>
          <note pan="0" pos="1092" key="44" len="12" vol="195"/>
          <note pan="0" pos="1104" key="44" len="12" vol="195"/>
          <note pan="0" pos="1116" key="44" len="12" vol="195"/>
          <note pan="0" pos="1128" key="44" len="12" vol="195"/>
          <note pan="0" pos="1140" key="44" len="12" vol="195"/>
          <note pan="0" pos="1140" key="0" len="36" vol="195"/>
          <note pan="0" pos="1152" key="52" len="48" vol="195"/>
          <note pan="0" pos="1152" key="45" len="48" vol="195"/>
          <note pan="0" pos="1176" key="1" len="36" vol="195"/>
          <note pan="0" pos="1200" key="45" len="12" vol="195"/>
          <note pan="0" pos="1212" key="45" len="12" vol="195"/>
          <note pan="0" pos="1224" key="45" len="12" vol="195"/>
          <note pan="0" pos="1236" key="45" len="12" vol="195"/>
          <note pan="0" pos="1248" key="45" len="12" vol="195"/>
          <note pan="0" pos="1260" key="45" len="12" vol="195"/>
          <note pan="0" pos="1272" key="45" len="12" vol="195"/>
          <note pan="0" pos="1284" key="45" len="12" vol="195"/>
          <note pan="0" pos="1296" key="45" len="12" vol="195"/>
          <note pan="0" pos="1308" key="45" len="12" vol="195"/>
          <note pan="0" pos="1320" key="45" len="12" vol="195"/>
          <note pan="0" pos="1332" key="45" len="12" vol="195"/>
          <note pan="0" pos="1332" key="0" len="36" vol="195"/>
          <note pan="0" pos="1344" key="54" len="48" vol="195"/>
          <note pan="0" pos="1344" key="47" len="48" vol="195"/>
          <note pan="0" pos="1368" key="1" len="36" vol="195"/>
          <note pan="0" pos="1392" key="47" len="12" vol="195"/>
          <note pan="0" pos="1404" key="47" len="12" vol="195"/>
          <note pan="0" pos="1416" key="47" len="12" vol="195"/>
          <note pan="0" pos="1428" key="47" len="12" vol="195"/>
          <note pan="0" pos="1440" key="48" len="12" vol="195"/>
          <note pan="0" pos="1452" key="48" len="12" vol="195"/>
          <note pan="0" pos="1464" key="48" len="12" vol="195"/>
          <note pan="0" pos="1464" key="1" len="36" vol="195"/>
          <note pan="0" pos="1476" key="48" len="12" vol="195"/>
          <note pan="0" pos="1488" key="48" len="12" vol="195"/>
          <note pan="0" pos="1500" key="48" len="12" vol="195"/>
          <note pan="0" pos="1512" key="48" len="12" vol="195"/>
          <note pan="0" pos="1524" key="48" len="12" vol="195"/>
          <note pan="0" pos="1524" key="0" len="36" vol="195"/>
          <note pan="0" pos="1536" key="44" len="48" vol="195"/>
          <note pan="0" pos="1536" key="37" len="48" vol="195"/>
          <note pan="0" pos="1560" key="1" len="36" vol="195"/>
          <note pan="0" pos="1584" key="37" len="12" vol="195"/>
          <note pan="0" pos="1596" key="37" len="12" vol="195"/>
          <note pan="0" pos="1608" key="37" len="12" vol="195"/>
          <note pan="0" pos="1620" key="37" len="12" vol="195"/>
          <note pan="0" pos="1632" key="37" len="12" vol="195"/>
          <note pan="0" pos="1644" key="37" len="12" vol="195"/>
          <note pan="0" pos="1656" key="37" len="12" vol="195"/>
          <note pan="0" pos="1668" key="37" len="12" vol="195"/>
          <note pan="0" pos="1680" key="37" len="12" vol="195"/>
          <note pan="0" pos="1692" key="37" len="12" vol="195"/>
          <note pan="0" pos="1704" key="37" len="12" vol="195"/>
          <note pan="0" pos="1716" key="37" len="12" vol="195"/>
          <note pan="0" pos="1716" key="0" len="36" vol="195"/>
          <note pan="0" pos="1728" key="54" len="48" vol="195"/>
          <note pan="0" pos="1728" key="47" len="48" vol="195"/>
          <note pan="0" pos="1752" key="1" len="36" vol="195"/>
          <note pan="0" pos="1776" key="47" len="12" vol="195"/>
          <note pan="0" pos="1788" key="47" len="12" vol="195"/>
          <note pan="0" pos="1800" key="47" len="12" vol="195"/>
          <note pan="0" pos="1812" key="47" len="12" vol="195"/>
          <note pan="0" pos="1824" key="47" len="12" vol="195"/>
          <note pan="0" pos="1836" key="47" len="12" vol="195"/>
          <note pan="0" pos="1848" key="47" len="12" vol="195"/>
          <note pan="0" pos="1860" key="47" len="12" vol="195"/>
          <note pan="0" pos="1872" key="47" len="12" vol="195"/>
          <note pan="0" pos="1884" key="47" len="12" vol="195"/>
          <note pan="0" pos="1896" key="47" len="12" vol="195"/>
          <note pan="0" pos="1908" key="47" len="12" vol="195"/>
          <note pan="0" pos="1908" key="0" len="36" vol="195"/>
          <note pan="0" pos="1920" key="54" len="48" vol="195"/>
          <note pan="0" pos="1920" key="46" len="48" vol="195"/>
          <note pan="0" pos="1944" key="1" len="36" vol="195"/>
          <note pan="0" pos="1968" key="46" len="12" vol="195"/>
          <note pan="0" pos="1980" key="46" len="12" vol="195"/>
          <note pan="0" pos="1992" key="46" len="12" vol="195"/>
          <note pan="0" pos="2004" key="46" len="12" vol="195"/>
          <note pan="0" pos="2016" key="46" len="12" vol="195"/>
          <note pan="0" pos="2028" key="46" len="12" vol="195"/>
          <note pan="0" pos="2040" key="46" len="12" vol="195"/>
          <note pan="0" pos="2052" key="46" len="12" vol="195"/>
          <note pan="0" pos="2064" key="46" len="12" vol="195"/>
          <note pan="0" pos="2076" key="46" len="12" vol="195"/>
          <note pan="0" pos="2088" key="46" len="12" vol="195"/>
          <note pan="0" pos="2100" key="46" len="12" vol="195"/>
          <note pan="0" pos="2100" key="0" len="36" vol="195"/>
          <note pan="0" pos="2112" key="49" len="48" vol="195"/>
          <note pan="0" pos="2112" key="42" len="48" vol="195"/>
          <note pan="0" pos="2136" key="1" len="36" vol="195"/>
          <note pan="0" pos="2160" key="42" len="12" vol="195"/>
          <note pan="0" pos="2172" key="42" len="12" vol="195"/>
          <note pan="0" pos="2184" key="42" len="12" vol="195"/>
          <note pan="0" pos="2196" key="42" len="12" vol="195"/>
          <note pan="0" pos="2196" key="0" len="36" vol="195"/>
          <note pan="0" pos="2208" key="47" len="48" vol="195"/>
          <note pan="0" pos="2208" key="40" len="48" vol="195"/>
          <note pan="0" pos="2232" key="1" len="36" vol="195"/>
          <note pan="0" pos="2256" key="40" len="12" vol="195"/>
          <note pan="0" pos="2268" key="40" len="12" vol="195"/>
          <note pan="0" pos="2280" key="40" len="12" vol="195"/>
          <note pan="0" pos="2292" key="40" len="12" vol="195"/>
          <note pan="0" pos="2292" key="0" len="36" vol="195"/>
          <note pan="0" pos="2304" key="45" len="48" vol="195"/>
          <note pan="0" pos="2304" key="38" len="48" vol="195"/>
          <note pan="0" pos="2328" key="1" len="36" vol="195"/>
          <note pan="0" pos="2352" key="38" len="12" vol="195"/>
          <note pan="0" pos="2364" key="38" len="12" vol="195"/>
          <note pan="0" pos="2376" key="38" len="12" vol="195"/>
          <note pan="0" pos="2388" key="38" len="12" vol="195"/>
          <note pan="0" pos="2400" key="38" len="12" vol="195"/>
          <note pan="0" pos="2412" key="38" len="12" vol="195"/>
          <note pan="0" pos="2424" key="38" len="12" vol="195"/>
          <note pan="0" pos="2436" key="38" len="12" vol="195"/>
          <note pan="0" pos="2448" key="38" len="12" vol="195"/>
          <note pan="0" pos="2460" key="38" len="12" vol="195"/>
          <note pan="0" pos="2472" key="38" len="12" vol="195"/>
          <note pan="0" pos="2484" key="38" len="12" vol="195"/>
          <note pan="0" pos="2484" key="0" len="36" vol="195"/>
          <note pan="0" pos="2496" key="52" len="48" vol="195"/>
          <note pan="0" pos="2496" key="45" len="48" vol="195"/>
          <note pan="0" pos="2520" key="1" len="36" vol="195"/>
          <note pan="0" pos="2544" key="45" len="12" vol="195"/>
          <note pan="0" pos="2556" key="45" len="12" vol="195"/>
          <note pan="0" pos="2568" key="45" len="12" vol="195"/>
          <note pan="0" pos="2580" key="45" len="12" vol="195"/>
          <note pan="0" pos="2592" key="45" len="12" vol="195"/>
          <note pan="0" pos="2604" key="45" len="12" vol="195"/>
          <note pan="0" pos="2616" key="45" len="12" vol="195"/>
          <note pan="0" pos="2628" key="45" len="12" vol="195"/>
          <note pan="0" pos="2640" key="45" len="12" vol="195"/>
          <note pan="0" pos="2652" key="45" len="12" vol="195"/>
          <note pan="0" pos="2664" key="45" len="12" vol="195"/>
          <note pan="0" pos="2676" key="45" len="12" vol="195"/>
          <note pan="0" pos="2676" key="0" len="36" vol="195"/>
          <note pan="0" pos="2688" key="54" len="48" vol="195"/>
          <note pan="0" pos="2688" key="47" len="48" vol="195"/>
          <note pan="0" pos="2712" key="1" len="36" vol="195"/>
          <note pan="0" pos="2736" key="47" len="12" vol="195"/>
          <note pan="0" pos="2748" key="47" len="12" vol="195"/>
          <note pan="0" pos="2760" key="47" len="12" vol="195"/>
          <note pan="0" pos="2772" key="47" len="12" vol="195"/>
          <note pan="0" pos="2784" key="47" len="12" vol="195"/>
          <note pan="0" pos="2796" key="47" len="12" vol="195"/>
          <note pan="0" pos="2808" key="47" len="12" vol="195"/>
          <note pan="0" pos="2820" key="47" len="12" vol="195"/>
          <note pan="0" pos="2832" key="47" len="12" vol="195"/>
          <note pan="0" pos="2844" key="47" len="12" vol="195"/>
          <note pan="0" pos="2856" key="47" len="12" vol="195"/>
          <note pan="0" pos="2868" key="47" len="12" vol="195"/>
          <note pan="0" pos="2868" key="0" len="36" vol="195"/>
          <note pan="0" pos="2880" key="42" len="24" vol="195"/>
          <note pan="0" pos="2880" key="35" len="24" vol="195"/>
          <note pan="0" pos="2904" key="42" len="24" vol="195"/>
          <note pan="0" pos="2904" key="35" len="24" vol="195"/>
          <note pan="0" pos="2976" key="42" len="24" vol="195"/>
          <note pan="0" pos="2976" key="35" len="24" vol="195"/>
          <note pan="0" pos="3000" key="42" len="24" vol="195"/>
          <note pan="0" pos="3000" key="35" len="24" vol="195"/>
        </pattern>
        <pattern type="1" pos="13824" muted="0" name="Rhythm Guitar" steps="16">
          <note pan="0" pos="0" key="47" len="24" vol="197"/>
          <note pan="0" pos="0" key="0" len="24" vol="197"/>
          <note pan="0" pos="12" key="1" len="24" vol="197"/>
          <note pan="0" pos="24" key="44" len="12" vol="197"/>
          <note pan="0" pos="36" key="44" len="12" vol="197"/>
          <note pan="0" pos="48" key="44" len="12" vol="197"/>
          <note pan="0" pos="60" key="44" len="12" vol="197"/>
          <note pan="0" pos="72" key="51" len="48" vol="197"/>
          <note pan="0" pos="72" key="44" len="48" vol="197"/>
          <note pan="0" pos="72" key="0" len="24" vol="197"/>
          <note pan="0" pos="108" key="1" len="24" vol="197"/>
          <note pan="0" pos="120" key="44" len="24" vol="197"/>
          <note pan="0" pos="144" key="44" len="24" vol="197"/>
          <note pan="0" pos="168" key="44" len="24" vol="197"/>
        </pattern>
        <pattern type="1" pos="12672" muted="0" name="Rhythm Guitar" steps="16">
          <note pan="0" pos="0" key="44" len="36" vol="172"/>
          <note pan="0" pos="0" key="37" len="36" vol="172"/>
          <note pan="0" pos="0" key="0" len="36" vol="172"/>
        </pattern>
        <pattern type="1" pos="14016" muted="0" name="Rhythm Guitar" steps="16">
          <note pan="0" pos="0" key="45" len="12" vol="172"/>
          <note pan="0" pos="0" key="1" len="12" vol="172"/>
          <note pan="0" pos="12" key="45" len="12" vol="172"/>
          <note pan="0" pos="24" key="45" len="12" vol="172"/>
          <note pan="0" pos="36" key="45" len="12" vol="172"/>
          <note pan="0" pos="48" key="49" len="12" vol="172"/>
          <note pan="0" pos="60" key="49" len="12" vol="172"/>
          <note pan="0" pos="72" key="45" len="12" vol="172"/>
          <note pan="0" pos="84" key="45" len="12" vol="172"/>
          <note pan="0" pos="96" key="47" len="12" vol="172"/>
          <note pan="0" pos="108" key="47" len="12" vol="172"/>
          <note pan="0" pos="120" key="47" len="12" vol="172"/>
          <note pan="0" pos="132" key="47" len="12" vol="172"/>
          <note pan="0" pos="144" key="52" len="12" vol="172"/>
          <note pan="0" pos="144" key="0" len="12" vol="172"/>
          <note pan="0" pos="156" key="51" len="12" vol="172"/>
          <note pan="0" pos="156" key="2" len="12" vol="172"/>
          <note pan="0" pos="168" key="49" len="12" vol="172"/>
          <note pan="0" pos="168" key="1" len="12" vol="172"/>
          <note pan="0" pos="180" key="47" len="12" vol="172"/>
        </pattern>
        <pattern type="1" pos="14208" muted="0" name="Rhythm Guitar" steps="16">
          <note pan="0" pos="0" key="38" len="12" vol="200"/>
          <note pan="0" pos="0" key="1" len="24" vol="200"/>
          <note pan="0" pos="12" key="38" len="12" vol="200"/>
          <note pan="0" pos="24" key="38" len="24" vol="200"/>
          <note pan="0" pos="48" key="38" len="12" vol="200"/>
          <note pan="0" pos="60" key="38" len="12" vol="200"/>
          <note pan="0" pos="72" key="38" len="24" vol="200"/>
          <note pan="0" pos="96" key="38" len="12" vol="200"/>
          <note pan="0" pos="108" key="38" len="12" vol="200"/>
          <note pan="0" pos="120" key="38" len="24" vol="200"/>
          <note pan="0" pos="144" key="38" len="12" vol="200"/>
          <note pan="0" pos="156" key="38" len="12" vol="200"/>
          <note pan="0" pos="168" key="38" len="24" vol="200"/>
          <note pan="0" pos="192" key="38" len="12" vol="200"/>
          <note pan="0" pos="204" key="38" len="12" vol="200"/>
          <note pan="0" pos="216" key="38" len="24" vol="200"/>
          <note pan="0" pos="240" key="38" len="12" vol="200"/>
          <note pan="0" pos="252" key="38" len="12" vol="200"/>
          <note pan="0" pos="264" key="38" len="24" vol="200"/>
          <note pan="0" pos="288" key="38" len="12" vol="200"/>
          <note pan="0" pos="300" key="38" len="12" vol="200"/>
          <note pan="0" pos="312" key="38" len="24" vol="200"/>
          <note pan="0" pos="336" key="38" len="12" vol="200"/>
          <note pan="0" pos="348" key="38" len="12" vol="200"/>
          <note pan="0" pos="360" key="38" len="24" vol="200"/>
          <note pan="0" pos="384" key="37" len="12" vol="200"/>
          <note pan="0" pos="396" key="37" len="12" vol="200"/>
          <note pan="0" pos="408" key="37" len="24" vol="200"/>
          <note pan="0" pos="432" key="37" len="12" vol="200"/>
          <note pan="0" pos="444" key="37" len="12" vol="200"/>
          <note pan="0" pos="456" key="37" len="24" vol="200"/>
          <note pan="0" pos="480" key="37" len="12" vol="200"/>
          <note pan="0" pos="492" key="37" len="12" vol="200"/>
          <note pan="0" pos="504" key="37" len="24" vol="200"/>
          <note pan="0" pos="528" key="37" len="12" vol="200"/>
          <note pan="0" pos="540" key="37" len="12" vol="200"/>
          <note pan="0" pos="552" key="37" len="24" vol="200"/>
          <note pan="0" pos="576" key="35" len="12" vol="200"/>
          <note pan="0" pos="588" key="35" len="12" vol="200"/>
          <note pan="0" pos="600" key="35" len="24" vol="200"/>
          <note pan="0" pos="624" key="35" len="12" vol="200"/>
          <note pan="0" pos="636" key="35" len="12" vol="200"/>
          <note pan="0" pos="648" key="35" len="24" vol="200"/>
          <note pan="0" pos="672" key="35" len="12" vol="200"/>
          <note pan="0" pos="684" key="35" len="12" vol="200"/>
          <note pan="0" pos="696" key="35" len="24" vol="200"/>
          <note pan="0" pos="720" key="35" len="12" vol="200"/>
          <note pan="0" pos="732" key="35" len="12" vol="200"/>
          <note pan="0" pos="744" key="35" len="24" vol="200"/>
        </pattern>
        <pattern type="1" pos="18816" muted="0" name="Rhythm Guitar" steps="16">
          <note pan="0" pos="0" key="44" len="24" vol="197"/>
          <note pan="0" pos="0" key="37" len="24" vol="197"/>
          <note pan="0" pos="0" key="0" len="12" vol="197"/>
          <note pan="0" pos="12" key="1" len="12" vol="197"/>
          <note pan="0" pos="24" key="37" len="12" vol="197"/>
          <note pan="0" pos="36" key="37" len="12" vol="197"/>
          <note pan="0" pos="48" key="44" len="24" vol="197"/>
          <note pan="0" pos="48" key="37" len="24" vol="197"/>
          <note pan="0" pos="48" key="0" len="12" vol="197"/>
          <note pan="0" pos="72" key="44" len="24" vol="197"/>
          <note pan="0" pos="72" key="37" len="24" vol="197"/>
          <note pan="0" pos="84" key="1" len="12" vol="197"/>
          <note pan="0" pos="96" key="37" len="12" vol="197"/>
          <note pan="0" pos="108" key="37" len="12" vol="197"/>
          <note pan="0" pos="120" key="44" len="24" vol="197"/>
          <note pan="0" pos="120" key="37" len="24" vol="197"/>
          <note pan="0" pos="120" key="0" len="12" vol="197"/>
          <note pan="0" pos="144" key="44" len="24" vol="197"/>
          <note pan="0" pos="144" key="37" len="24" vol="197"/>
          <note pan="0" pos="156" key="1" len="12" vol="197"/>
          <note pan="0" pos="168" key="37" len="12" vol="197"/>
          <note pan="0" pos="180" key="37" len="12" vol="197"/>
          <note pan="0" pos="192" key="44" len="24" vol="197"/>
          <note pan="0" pos="192" key="37" len="24" vol="197"/>
          <note pan="0" pos="192" key="0" len="12" vol="197"/>
          <note pan="0" pos="216" key="44" len="24" vol="197"/>
          <note pan="0" pos="216" key="37" len="24" vol="197"/>
          <note pan="0" pos="228" key="1" len="12" vol="197"/>
          <note pan="0" pos="240" key="37" len="12" vol="197"/>
          <note pan="0" pos="252" key="37" len="12" vol="197"/>
          <note pan="0" pos="264" key="44" len="24" vol="197"/>
          <note pan="0" pos="264" key="37" len="24" vol="197"/>
          <note pan="0" pos="264" key="0" len="12" vol="197"/>
          <note pan="0" pos="288" key="44" len="24" vol="197"/>
          <note pan="0" pos="288" key="37" len="24" vol="197"/>
          <note pan="0" pos="312" key="44" len="24" vol="197"/>
          <note pan="0" pos="312" key="37" len="24" vol="197"/>
          <note pan="0" pos="324" key="1" len="12" vol="197"/>
          <note pan="0" pos="336" key="37" len="12" vol="197"/>
          <note pan="0" pos="348" key="37" len="12" vol="197"/>
          <note pan="0" pos="360" key="44" len="24" vol="197"/>
          <note pan="0" pos="360" key="37" len="24" vol="197"/>
          <note pan="0" pos="360" key="0" len="12" vol="197"/>
          <note pan="0" pos="384" key="51" len="24" vol="197"/>
          <note pan="0" pos="384" key="44" len="24" vol="197"/>
          <note pan="0" pos="396" key="1" len="12" vol="197"/>
          <note pan="0" pos="408" key="44" len="12" vol="197"/>
          <note pan="0" pos="420" key="44" len="12" vol="197"/>
          <note pan="0" pos="432" key="51" len="24" vol="197"/>
          <note pan="0" pos="432" key="44" len="24" vol="197"/>
          <note pan="0" pos="432" key="0" len="12" vol="197"/>
          <note pan="0" pos="456" key="51" len="24" vol="197"/>
          <note pan="0" pos="456" key="44" len="24" vol="197"/>
          <note pan="0" pos="468" key="1" len="12" vol="197"/>
          <note pan="0" pos="480" key="44" len="12" vol="197"/>
          <note pan="0" pos="492" key="44" len="12" vol="197"/>
          <note pan="0" pos="504" key="51" len="24" vol="197"/>
          <note pan="0" pos="504" key="44" len="24" vol="197"/>
          <note pan="0" pos="504" key="0" len="12" vol="197"/>
          <note pan="0" pos="528" key="51" len="24" vol="197"/>
          <note pan="0" pos="528" key="44" len="24" vol="197"/>
          <note pan="0" pos="540" key="1" len="12" vol="197"/>
          <note pan="0" pos="552" key="44" len="12" vol="197"/>
          <note pan="0" pos="564" key="44" len="12" vol="197"/>
          <note pan="0" pos="576" key="51" len="24" vol="197"/>
          <note pan="0" pos="576" key="44" len="24" vol="197"/>
          <note pan="0" pos="576" key="0" len="12" vol="197"/>
          <note pan="0" pos="600" key="51" len="24" vol="197"/>
          <note pan="0" pos="600" key="44" len="24" vol="197"/>
          <note pan="0" pos="612" key="1" len="12" vol="197"/>
          <note pan="0" pos="624" key="44" len="12" vol="197"/>
          <note pan="0" pos="636" key="44" len="12" vol="197"/>
          <note pan="0" pos="648" key="51" len="24" vol="197"/>
          <note pan="0" pos="648" key="44" len="24" vol="197"/>
          <note pan="0" pos="648" key="0" len="12" vol="197"/>
          <note pan="0" pos="672" key="51" len="24" vol="197"/>
          <note pan="0" pos="672" key="44" len="24" vol="197"/>
          <note pan="0" pos="696" key="51" len="24" vol="197"/>
          <note pan="0" pos="696" key="44" len="24" vol="197"/>
          <note pan="0" pos="708" key="1" len="12" vol="197"/>
          <note pan="0" pos="720" key="44" len="12" vol="197"/>
          <note pan="0" pos="732" key="44" len="12" vol="197"/>
          <note pan="0" pos="744" key="51" len="24" vol="197"/>
          <note pan="0" pos="744" key="44" len="24" vol="197"/>
          <note pan="0" pos="744" key="0" len="12" vol="197"/>
          <note pan="0" pos="768" key="46" len="24" vol="197"/>
          <note pan="0" pos="768" key="39" len="24" vol="197"/>
          <note pan="0" pos="780" key="1" len="12" vol="197"/>
          <note pan="0" pos="792" key="39" len="12" vol="197"/>
          <note pan="0" pos="804" key="39" len="12" vol="197"/>
          <note pan="0" pos="816" key="46" len="24" vol="197"/>
          <note pan="0" pos="816" key="39" len="24" vol="197"/>
          <note pan="0" pos="816" key="0" len="12" vol="197"/>
          <note pan="0" pos="840" key="46" len="24" vol="197"/>
          <note pan="0" pos="840" key="39" len="24" vol="197"/>
          <note pan="0" pos="852" key="1" len="12" vol="197"/>
          <note pan="0" pos="864" key="39" len="12" vol="197"/>
          <note pan="0" pos="876" key="39" len="12" vol="197"/>
          <note pan="0" pos="888" key="46" len="24" vol="197"/>
          <note pan="0" pos="888" key="39" len="24" vol="197"/>
          <note pan="0" pos="888" key="0" len="12" vol="197"/>
          <note pan="0" pos="912" key="46" len="24" vol="197"/>
          <note pan="0" pos="912" key="39" len="24" vol="197"/>
          <note pan="0" pos="924" key="1" len="12" vol="197"/>
          <note pan="0" pos="936" key="39" len="12" vol="197"/>
          <note pan="0" pos="948" key="39" len="12" vol="197"/>
          <note pan="0" pos="960" key="46" len="24" vol="197"/>
          <note pan="0" pos="960" key="39" len="24" vol="197"/>
          <note pan="0" pos="960" key="0" len="12" vol="197"/>
          <note pan="0" pos="984" key="46" len="24" vol="197"/>
          <note pan="0" pos="984" key="39" len="24" vol="197"/>
          <note pan="0" pos="996" key="1" len="12" vol="197"/>
          <note pan="0" pos="1008" key="39" len="12" vol="197"/>
          <note pan="0" pos="1020" key="39" len="12" vol="197"/>
          <note pan="0" pos="1032" key="46" len="24" vol="197"/>
          <note pan="0" pos="1032" key="39" len="24" vol="197"/>
          <note pan="0" pos="1032" key="0" len="12" vol="197"/>
          <note pan="0" pos="1056" key="46" len="24" vol="197"/>
          <note pan="0" pos="1056" key="39" len="24" vol="197"/>
          <note pan="0" pos="1080" key="46" len="24" vol="197"/>
          <note pan="0" pos="1080" key="39" len="24" vol="197"/>
          <note pan="0" pos="1092" key="1" len="12" vol="197"/>
          <note pan="0" pos="1104" key="39" len="12" vol="197"/>
          <note pan="0" pos="1116" key="39" len="12" vol="197"/>
          <note pan="0" pos="1128" key="46" len="24" vol="197"/>
          <note pan="0" pos="1128" key="39" len="24" vol="197"/>
          <note pan="0" pos="1128" key="0" len="12" vol="197"/>
          <note pan="0" pos="1152" key="45" len="24" vol="197"/>
          <note pan="0" pos="1152" key="38" len="24" vol="197"/>
          <note pan="0" pos="1164" key="1" len="12" vol="197"/>
          <note pan="0" pos="1176" key="38" len="12" vol="197"/>
          <note pan="0" pos="1188" key="38" len="12" vol="197"/>
          <note pan="0" pos="1200" key="45" len="24" vol="197"/>
          <note pan="0" pos="1200" key="38" len="24" vol="197"/>
          <note pan="0" pos="1200" key="0" len="12" vol="197"/>
          <note pan="0" pos="1224" key="45" len="24" vol="197"/>
          <note pan="0" pos="1224" key="38" len="24" vol="197"/>
          <note pan="0" pos="1236" key="1" len="12" vol="197"/>
          <note pan="0" pos="1248" key="38" len="12" vol="197"/>
          <note pan="0" pos="1260" key="38" len="12" vol="197"/>
          <note pan="0" pos="1272" key="45" len="24" vol="197"/>
          <note pan="0" pos="1272" key="38" len="24" vol="197"/>
          <note pan="0" pos="1272" key="0" len="12" vol="197"/>
          <note pan="0" pos="1296" key="45" len="24" vol="197"/>
          <note pan="0" pos="1296" key="38" len="24" vol="197"/>
          <note pan="0" pos="1308" key="1" len="12" vol="197"/>
          <note pan="0" pos="1320" key="38" len="12" vol="197"/>
          <note pan="0" pos="1332" key="38" len="12" vol="197"/>
          <note pan="0" pos="1344" key="51" len="48" vol="197"/>
          <note pan="0" pos="1344" key="44" len="48" vol="197"/>
          <note pan="0" pos="1344" key="0" len="12" vol="197"/>
          <note pan="0" pos="1392" key="46" len="48" vol="197"/>
          <note pan="0" pos="1392" key="39" len="48" vol="197"/>
          <note pan="0" pos="1440" key="35" len="48" vol="197"/>
          <note pan="0" pos="1488" key="32" len="48" vol="197"/>
          <note pan="0" pos="1536" key="44" len="24" vol="197"/>
          <note pan="0" pos="1536" key="37" len="24" vol="197"/>
          <note pan="0" pos="1548" key="1" len="12" vol="197"/>
          <note pan="0" pos="1560" key="37" len="12" vol="197"/>
          <note pan="0" pos="1572" key="37" len="12" vol="197"/>
          <note pan="0" pos="1584" key="44" len="24" vol="197"/>
          <note pan="0" pos="1584" key="37" len="24" vol="197"/>
          <note pan="0" pos="1584" key="0" len="12" vol="197"/>
          <note pan="0" pos="1608" key="44" len="24" vol="197"/>
          <note pan="0" pos="1608" key="37" len="24" vol="197"/>
          <note pan="0" pos="1620" key="1" len="12" vol="197"/>
          <note pan="0" pos="1632" key="37" len="12" vol="197"/>
          <note pan="0" pos="1644" key="37" len="12" vol="197"/>
          <note pan="0" pos="1656" key="44" len="24" vol="197"/>
          <note pan="0" pos="1656" key="37" len="24" vol="197"/>
          <note pan="0" pos="1656" key="0" len="12" vol="197"/>
          <note pan="0" pos="1680" key="44" len="24" vol="197"/>
          <note pan="0" pos="1680" key="37" len="24" vol="197"/>
          <note pan="0" pos="1692" key="1" len="12" vol="197"/>
          <note pan="0" pos="1704" key="37" len="12" vol="197"/>
          <note pan="0" pos="1716" key="37" len="12" vol="197"/>
          <note pan="0" pos="1728" key="44" len="24" vol="197"/>
          <note pan="0" pos="1728" key="37" len="24" vol="197"/>
          <note pan="0" pos="1728" key="0" len="12" vol="197"/>
          <note pan="0" pos="1752" key="44" len="24" vol="197"/>
          <note pan="0" pos="1752" key="37" len="24" vol="197"/>
          <note pan="0" pos="1764" key="1" len="12" vol="197"/>
          <note pan="0" pos="1776" key="37" len="12" vol="197"/>
          <note pan="0" pos="1788" key="37" len="12" vol="197"/>
          <note pan="0" pos="1800" key="44" len="24" vol="197"/>
          <note pan="0" pos="1800" key="37" len="24" vol="197"/>
          <note pan="0" pos="1800" key="0" len="12" vol="197"/>
          <note pan="0" pos="1824" key="44" len="24" vol="197"/>
          <note pan="0" pos="1824" key="37" len="24" vol="197"/>
          <note pan="0" pos="1848" key="44" len="24" vol="197"/>
          <note pan="0" pos="1848" key="37" len="24" vol="197"/>
          <note pan="0" pos="1860" key="1" len="12" vol="197"/>
          <note pan="0" pos="1872" key="37" len="12" vol="197"/>
          <note pan="0" pos="1884" key="37" len="12" vol="197"/>
          <note pan="0" pos="1896" key="44" len="24" vol="197"/>
          <note pan="0" pos="1896" key="37" len="24" vol="197"/>
          <note pan="0" pos="1896" key="0" len="12" vol="197"/>
          <note pan="0" pos="1920" key="45" len="24" vol="197"/>
          <note pan="0" pos="1920" key="38" len="24" vol="197"/>
          <note pan="0" pos="1932" key="1" len="12" vol="197"/>
          <note pan="0" pos="1944" key="38" len="12" vol="197"/>
          <note pan="0" pos="1956" key="38" len="12" vol="197"/>
          <note pan="0" pos="1968" key="45" len="24" vol="197"/>
          <note pan="0" pos="1968" key="38" len="24" vol="197"/>
          <note pan="0" pos="1968" key="0" len="12" vol="197"/>
          <note pan="0" pos="1992" key="45" len="24" vol="197"/>
          <note pan="0" pos="1992" key="38" len="24" vol="197"/>
          <note pan="0" pos="2004" key="1" len="12" vol="197"/>
          <note pan="0" pos="2016" key="38" len="12" vol="197"/>
          <note pan="0" pos="2028" key="38" len="12" vol="197"/>
          <note pan="0" pos="2040" key="45" len="24" vol="197"/>
          <note pan="0" pos="2040" key="38" len="24" vol="197"/>
          <note pan="0" pos="2040" key="0" len="12" vol="197"/>
          <note pan="0" pos="2064" key="45" len="24" vol="197"/>
          <note pan="0" pos="2064" key="38" len="24" vol="197"/>
          <note pan="0" pos="2076" key="1" len="12" vol="197"/>
          <note pan="0" pos="2088" key="38" len="12" vol="197"/>
          <note pan="0" pos="2100" key="38" len="12" vol="197"/>
          <note pan="0" pos="2112" key="45" len="24" vol="197"/>
          <note pan="0" pos="2112" key="38" len="24" vol="197"/>
          <note pan="0" pos="2112" key="0" len="12" vol="197"/>
          <note pan="0" pos="2136" key="45" len="24" vol="197"/>
          <note pan="0" pos="2136" key="38" len="24" vol="197"/>
          <note pan="0" pos="2148" key="1" len="12" vol="197"/>
          <note pan="0" pos="2160" key="38" len="12" vol="197"/>
          <note pan="0" pos="2172" key="38" len="12" vol="197"/>
          <note pan="0" pos="2184" key="45" len="24" vol="197"/>
          <note pan="0" pos="2184" key="38" len="24" vol="197"/>
          <note pan="0" pos="2184" key="0" len="12" vol="197"/>
          <note pan="0" pos="2208" key="45" len="24" vol="197"/>
          <note pan="0" pos="2208" key="38" len="24" vol="197"/>
          <note pan="0" pos="2232" key="45" len="24" vol="197"/>
          <note pan="0" pos="2232" key="38" len="24" vol="197"/>
          <note pan="0" pos="2244" key="1" len="12" vol="197"/>
          <note pan="0" pos="2256" key="38" len="12" vol="197"/>
          <note pan="0" pos="2268" key="38" len="12" vol="197"/>
          <note pan="0" pos="2280" key="45" len="24" vol="197"/>
          <note pan="0" pos="2280" key="38" len="24" vol="197"/>
          <note pan="0" pos="2280" key="0" len="12" vol="197"/>
          <note pan="0" pos="2304" key="46" len="24" vol="197"/>
          <note pan="0" pos="2304" key="39" len="24" vol="197"/>
          <note pan="0" pos="2316" key="1" len="12" vol="197"/>
          <note pan="0" pos="2328" key="39" len="12" vol="197"/>
          <note pan="0" pos="2340" key="39" len="12" vol="197"/>
          <note pan="0" pos="2352" key="46" len="24" vol="197"/>
          <note pan="0" pos="2352" key="39" len="24" vol="197"/>
          <note pan="0" pos="2352" key="0" len="12" vol="197"/>
          <note pan="0" pos="2376" key="46" len="24" vol="197"/>
          <note pan="0" pos="2376" key="39" len="24" vol="197"/>
          <note pan="0" pos="2388" key="1" len="12" vol="197"/>
          <note pan="0" pos="2400" key="39" len="12" vol="197"/>
          <note pan="0" pos="2412" key="39" len="12" vol="197"/>
          <note pan="0" pos="2424" key="46" len="24" vol="197"/>
          <note pan="0" pos="2424" key="39" len="24" vol="197"/>
          <note pan="0" pos="2424" key="0" len="12" vol="197"/>
          <note pan="0" pos="2448" key="46" len="24" vol="197"/>
          <note pan="0" pos="2448" key="39" len="24" vol="197"/>
          <note pan="0" pos="2460" key="1" len="12" vol="197"/>
          <note pan="0" pos="2472" key="39" len="12" vol="197"/>
          <note pan="0" pos="2484" key="39" len="12" vol="197"/>
          <note pan="0" pos="2496" key="46" len="24" vol="197"/>
          <note pan="0" pos="2496" key="39" len="24" vol="197"/>
          <note pan="0" pos="2496" key="0" len="12" vol="197"/>
          <note pan="0" pos="2520" key="46" len="24" vol="197"/>
          <note pan="0" pos="2520" key="39" len="24" vol="197"/>
          <note pan="0" pos="2532" key="1" len="12" vol="197"/>
          <note pan="0" pos="2544" key="39" len="12" vol="197"/>
          <note pan="0" pos="2556" key="39" len="12" vol="197"/>
          <note pan="0" pos="2568" key="46" len="24" vol="197"/>
          <note pan="0" pos="2568" key="39" len="24" vol="197"/>
          <note pan="0" pos="2568" key="0" len="12" vol="197"/>
          <note pan="0" pos="2592" key="46" len="24" vol="197"/>
          <note pan="0" pos="2592" key="39" len="24" vol="197"/>
          <note pan="0" pos="2616" key="46" len="24" vol="197"/>
          <note pan="0" pos="2616" key="39" len="24" vol="197"/>
          <note pan="0" pos="2628" key="1" len="12" vol="197"/>
          <note pan="0" pos="2640" key="39" len="12" vol="197"/>
          <note pan="0" pos="2652" key="39" len="12" vol="197"/>
          <note pan="0" pos="2664" key="46" len="24" vol="197"/>
          <note pan="0" pos="2664" key="39" len="24" vol="197"/>
          <note pan="0" pos="2664" key="0" len="12" vol="197"/>
          <note pan="0" pos="2688" key="51" len="24" vol="197"/>
          <note pan="0" pos="2688" key="44" len="24" vol="197"/>
          <note pan="0" pos="2700" key="1" len="12" vol="197"/>
          <note pan="0" pos="2712" key="44" len="12" vol="197"/>
          <note pan="0" pos="2724" key="44" len="12" vol="197"/>
          <note pan="0" pos="2736" key="51" len="24" vol="197"/>
          <note pan="0" pos="2736" key="44" len="24" vol="197"/>
          <note pan="0" pos="2736" key="0" len="12" vol="197"/>
          <note pan="0" pos="2760" key="51" len="24" vol="197"/>
          <note pan="0" pos="2760" key="44" len="24" vol="197"/>
          <note pan="0" pos="2772" key="1" len="12" vol="197"/>
          <note pan="0" pos="2784" key="44" len="12" vol="197"/>
          <note pan="0" pos="2796" key="44" len="12" vol="197"/>
          <note pan="0" pos="2808" key="51" len="24" vol="197"/>
          <note pan="0" pos="2808" key="44" len="24" vol="197"/>
          <note pan="0" pos="2808" key="0" len="12" vol="197"/>
          <note pan="0" pos="2832" key="51" len="24" vol="197"/>
          <note pan="0" pos="2832" key="44" len="24" vol="197"/>
          <note pan="0" pos="2844" key="1" len="12" vol="197"/>
          <note pan="0" pos="2856" key="44" len="12" vol="197"/>
          <note pan="0" pos="2868" key="44" len="12" vol="197"/>
          <note pan="0" pos="2880" key="51" len="48" vol="197"/>
          <note pan="0" pos="2880" key="44" len="48" vol="197"/>
          <note pan="0" pos="2880" key="0" len="12" vol="197"/>
          <note pan="0" pos="2928" key="51" len="48" vol="197"/>
          <note pan="0" pos="2928" key="44" len="48" vol="197"/>
          <note pan="0" pos="2976" key="51" len="48" vol="197"/>
          <note pan="0" pos="2976" key="44" len="48" vol="197"/>
          <note pan="0" pos="3024" key="51" len="48" vol="197"/>
          <note pan="0" pos="3024" key="44" len="48" vol="197"/>
        </pattern>
        <pattern type="1" pos="14976" muted="0" name="Rhythm Guitar" steps="16">
          <note pan="0" pos="0" key="40" len="24" vol="197"/>
          <note pan="0" pos="0" key="0" len="12" vol="197"/>
          <note pan="0" pos="24" key="42" len="24" vol="197"/>
          <note pan="0" pos="36" key="1" len="12" vol="197"/>
          <note pan="0" pos="48" key="42" len="12" vol="197"/>
          <note pan="0" pos="60" key="42" len="12" vol="197"/>
          <note pan="0" pos="72" key="47" len="24" vol="197"/>
          <note pan="0" pos="72" key="0" len="24" vol="197"/>
          <note pan="0" pos="96" key="49" len="24" vol="197"/>
          <note pan="0" pos="120" key="42" len="24" vol="197"/>
          <note pan="0" pos="144" key="40" len="24" vol="197"/>
          <note pan="0" pos="168" key="42" len="24" vol="197"/>
        </pattern>
        <pattern type="1" pos="15360" muted="0" name="Rhythm Guitar" steps="16">
          <note pan="0" pos="0" key="46" len="24" vol="78"/>
          <note pan="0" pos="0" key="39" len="24" vol="78"/>
          <note pan="0" pos="0" key="0" len="12" vol="78"/>
          <note pan="0" pos="12" key="1" len="12" vol="78"/>
          <note pan="0" pos="24" key="39" len="12" vol="78"/>
          <note pan="0" pos="36" key="39" len="12" vol="78"/>
          <note pan="0" pos="48" key="39" len="12" vol="78"/>
          <note pan="0" pos="60" key="39" len="12" vol="78"/>
          <note pan="0" pos="72" key="39" len="12" vol="78"/>
          <note pan="0" pos="84" key="39" len="12" vol="78"/>
          <note pan="0" pos="96" key="39" len="12" vol="78"/>
          <note pan="0" pos="108" key="39" len="12" vol="78"/>
          <note pan="0" pos="120" key="39" len="12" vol="78"/>
          <note pan="0" pos="132" key="39" len="12" vol="78"/>
          <note pan="0" pos="144" key="39" len="12" vol="78"/>
          <note pan="0" pos="156" key="39" len="12" vol="78"/>
          <note pan="0" pos="168" key="39" len="12" vol="78"/>
          <note pan="0" pos="180" key="39" len="12" vol="78"/>
          <note pan="0" pos="192" key="52" len="96" vol="78"/>
          <note pan="0" pos="192" key="45" len="96" vol="78"/>
          <note pan="0" pos="192" key="0" len="12" vol="78"/>
          <note pan="0" pos="288" key="51" len="96" vol="78"/>
          <note pan="0" pos="288" key="44" len="96" vol="78"/>
        </pattern>
        <pattern type="1" pos="15168" muted="0" name="Rhythm Guitar" steps="16">
          <note pan="0" pos="0" key="40" len="24" vol="197"/>
          <note pan="0" pos="0" key="0" len="12" vol="197"/>
          <note pan="0" pos="24" key="42" len="24" vol="197"/>
          <note pan="0" pos="36" key="1" len="12" vol="197"/>
          <note pan="0" pos="48" key="42" len="12" vol="197"/>
          <note pan="0" pos="60" key="42" len="12" vol="197"/>
          <note pan="0" pos="72" key="47" len="24" vol="197"/>
          <note pan="0" pos="72" key="0" len="24" vol="197"/>
          <note pan="0" pos="96" key="49" len="24" vol="197"/>
          <note pan="0" pos="120" key="42" len="24" vol="197"/>
          <note pan="0" pos="144" key="40" len="24" vol="197"/>
          <note pan="0" pos="168" key="42" len="24" vol="197"/>
        </pattern>
        <pattern type="1" pos="24960" muted="0" name="Rhythm Guitar" steps="16">
          <note pan="0" pos="0" key="52" len="192" vol="195"/>
          <note pan="0" pos="0" key="45" len="192" vol="195"/>
          <note pan="0" pos="0" key="0" len="384" vol="195"/>
          <note pan="0" pos="192" key="54" len="192" vol="195"/>
          <note pan="0" pos="192" key="47" len="192" vol="195"/>
          <note pan="0" pos="384" key="44" len="384" vol="195"/>
          <note pan="0" pos="384" key="37" len="384" vol="195"/>
          <note pan="0" pos="768" key="42" len="192" vol="195"/>
          <note pan="0" pos="768" key="35" len="192" vol="195"/>
          <note pan="0" pos="960" key="42" len="192" vol="195"/>
          <note pan="0" pos="960" key="35" len="192" vol="195"/>
          <note pan="0" pos="1152" key="49" len="384" vol="195"/>
          <note pan="0" pos="1152" key="42" len="384" vol="195"/>
          <note pan="0" pos="1536" key="52" len="192" vol="195"/>
          <note pan="0" pos="1536" key="45" len="192" vol="195"/>
          <note pan="0" pos="1728" key="54" len="192" vol="195"/>
          <note pan="0" pos="1728" key="47" len="192" vol="195"/>
          <note pan="0" pos="1920" key="44" len="192" vol="195"/>
          <note pan="0" pos="1920" key="37" len="192" vol="195"/>
          <note pan="0" pos="2112" key="44" len="192" vol="195"/>
          <note pan="0" pos="2112" key="37" len="192" vol="195"/>
        </pattern>
        <pattern type="1" pos="28032" muted="0" name="Rhythm Guitar" steps="16">
          <note pan="0" pos="0" key="52" len="384" vol="195"/>
          <note pan="0" pos="0" key="45" len="384" vol="195"/>
          <note pan="0" pos="0" key="0" len="384" vol="195"/>
          <note pan="0" pos="384" key="42" len="384" vol="195"/>
          <note pan="0" pos="384" key="35" len="384" vol="195"/>
        </pattern>
        <pattern type="1" pos="27264" muted="0" name="Rhythm Guitar" steps="16">
          <note pan="0" pos="0" key="49" len="192" vol="200"/>
          <note pan="0" pos="0" key="42" len="192" vol="200"/>
          <note pan="0" pos="0" key="0" len="192" vol="200"/>
          <note pan="0" pos="192" key="49" len="192" vol="200"/>
          <note pan="0" pos="192" key="42" len="192" vol="200"/>
          <note pan="0" pos="384" key="51" len="192" vol="200"/>
          <note pan="0" pos="384" key="44" len="192" vol="200"/>
          <note pan="0" pos="576" key="51" len="192" vol="200"/>
          <note pan="0" pos="576" key="44" len="192" vol="200"/>
        </pattern>
        <pattern type="1" pos="28800" muted="0" name="Rhythm Guitar" steps="16">
          <note pan="0" pos="0" key="49" len="48" vol="200"/>
          <note pan="0" pos="0" key="0" len="24" vol="200"/>
          <note pan="0" pos="48" key="37" len="24" vol="200"/>
          <note pan="0" pos="60" key="1" len="24" vol="200"/>
          <note pan="0" pos="72" key="37" len="12" vol="200"/>
          <note pan="0" pos="84" key="37" len="12" vol="200"/>
          <note pan="0" pos="96" key="37" len="12" vol="200"/>
          <note pan="0" pos="108" key="37" len="12" vol="200"/>
          <note pan="0" pos="120" key="37" len="24" vol="200"/>
          <note pan="0" pos="120" key="0" len="24" vol="200"/>
          <note pan="0" pos="132" key="1" len="24" vol="200"/>
          <note pan="0" pos="144" key="37" len="12" vol="200"/>
          <note pan="0" pos="156" key="37" len="12" vol="200"/>
          <note pan="0" pos="168" key="37" len="12" vol="200"/>
          <note pan="0" pos="180" key="37" len="12" vol="200"/>
          <note pan="0" pos="192" key="37" len="24" vol="200"/>
          <note pan="0" pos="192" key="0" len="24" vol="200"/>
          <note pan="0" pos="204" key="1" len="24" vol="200"/>
          <note pan="0" pos="216" key="37" len="12" vol="200"/>
          <note pan="0" pos="228" key="37" len="12" vol="200"/>
          <note pan="0" pos="240" key="37" len="12" vol="200"/>
          <note pan="0" pos="252" key="37" len="12" vol="200"/>
          <note pan="0" pos="264" key="37" len="24" vol="200"/>
          <note pan="0" pos="264" key="0" len="24" vol="200"/>
          <note pan="0" pos="276" key="1" len="24" vol="200"/>
          <note pan="0" pos="288" key="37" len="12" vol="200"/>
          <note pan="0" pos="300" key="37" len="12" vol="200"/>
          <note pan="0" pos="312" key="37" len="24" vol="200"/>
          <note pan="0" pos="312" key="0" len="24" vol="200"/>
          <note pan="0" pos="324" key="1" len="24" vol="200"/>
          <note pan="0" pos="336" key="37" len="12" vol="200"/>
          <note pan="0" pos="348" key="37" len="12" vol="200"/>
          <note pan="0" pos="360" key="37" len="12" vol="200"/>
          <note pan="0" pos="372" key="37" len="12" vol="200"/>
          <note pan="0" pos="384" key="37" len="48" vol="200"/>
          <note pan="0" pos="384" key="0" len="24" vol="200"/>
          <note pan="0" pos="432" key="37" len="24" vol="200"/>
          <note pan="0" pos="444" key="1" len="24" vol="200"/>
          <note pan="0" pos="456" key="37" len="12" vol="200"/>
          <note pan="0" pos="468" key="37" len="12" vol="200"/>
          <note pan="0" pos="480" key="37" len="12" vol="200"/>
          <note pan="0" pos="492" key="37" len="12" vol="200"/>
          <note pan="0" pos="504" key="37" len="24" vol="200"/>
          <note pan="0" pos="504" key="0" len="24" vol="200"/>
          <note pan="0" pos="516" key="1" len="24" vol="200"/>
          <note pan="0" pos="528" key="37" len="12" vol="200"/>
          <note pan="0" pos="540" key="37" len="12" vol="200"/>
          <note pan="0" pos="552" key="37" len="12" vol="200"/>
          <note pan="0" pos="564" key="37" len="12" vol="200"/>
          <note pan="0" pos="576" key="37" len="24" vol="200"/>
          <note pan="0" pos="576" key="0" len="24" vol="200"/>
          <note pan="0" pos="588" key="1" len="24" vol="200"/>
          <note pan="0" pos="600" key="37" len="12" vol="200"/>
          <note pan="0" pos="612" key="37" len="12" vol="200"/>
          <note pan="0" pos="624" key="37" len="12" vol="200"/>
          <note pan="0" pos="636" key="37" len="12" vol="200"/>
          <note pan="0" pos="648" key="37" len="24" vol="200"/>
          <note pan="0" pos="648" key="0" len="24" vol="200"/>
          <note pan="0" pos="660" key="1" len="24" vol="200"/>
          <note pan="0" pos="672" key="37" len="12" vol="200"/>
          <note pan="0" pos="684" key="37" len="12" vol="200"/>
          <note pan="0" pos="696" key="40" len="24" vol="200"/>
          <note pan="0" pos="720" key="42" len="24" vol="200"/>
          <note pan="0" pos="744" key="44" len="24" vol="200"/>
        </pattern>
        <pattern type="1" pos="29568" muted="0" name="Rhythm Guitar" steps="16">
          <note pan="0" pos="0" key="49" len="48" vol="200"/>
          <note pan="0" pos="0" key="0" len="24" vol="200"/>
          <note pan="0" pos="48" key="37" len="24" vol="200"/>
          <note pan="0" pos="60" key="1" len="24" vol="200"/>
          <note pan="0" pos="72" key="37" len="12" vol="200"/>
          <note pan="0" pos="84" key="37" len="12" vol="200"/>
          <note pan="0" pos="96" key="37" len="12" vol="200"/>
          <note pan="0" pos="108" key="37" len="12" vol="200"/>
          <note pan="0" pos="120" key="37" len="24" vol="200"/>
          <note pan="0" pos="120" key="0" len="24" vol="200"/>
          <note pan="0" pos="132" key="1" len="24" vol="200"/>
          <note pan="0" pos="144" key="37" len="12" vol="200"/>
          <note pan="0" pos="156" key="37" len="12" vol="200"/>
          <note pan="0" pos="168" key="37" len="12" vol="200"/>
          <note pan="0" pos="180" key="37" len="12" vol="200"/>
          <note pan="0" pos="192" key="37" len="24" vol="200"/>
          <note pan="0" pos="192" key="0" len="24" vol="200"/>
          <note pan="0" pos="204" key="1" len="24" vol="200"/>
          <note pan="0" pos="216" key="37" len="12" vol="200"/>
          <note pan="0" pos="228" key="37" len="12" vol="200"/>
          <note pan="0" pos="240" key="37" len="12" vol="200"/>
          <note pan="0" pos="252" key="37" len="12" vol="200"/>
          <note pan="0" pos="264" key="37" len="24" vol="200"/>
          <note pan="0" pos="264" key="0" len="24" vol="200"/>
          <note pan="0" pos="276" key="1" len="24" vol="200"/>
          <note pan="0" pos="288" key="37" len="12" vol="200"/>
          <note pan="0" pos="300" key="37" len="12" vol="200"/>
          <note pan="0" pos="312" key="37" len="24" vol="200"/>
          <note pan="0" pos="312" key="0" len="24" vol="200"/>
          <note pan="0" pos="324" key="1" len="24" vol="200"/>
          <note pan="0" pos="336" key="37" len="12" vol="200"/>
          <note pan="0" pos="348" key="37" len="12" vol="200"/>
          <note pan="0" pos="360" key="37" len="12" vol="200"/>
          <note pan="0" pos="372" key="37" len="12" vol="200"/>
          <note pan="0" pos="384" key="37" len="48" vol="200"/>
          <note pan="0" pos="384" key="0" len="24" vol="200"/>
          <note pan="0" pos="432" key="37" len="24" vol="200"/>
          <note pan="0" pos="444" key="1" len="24" vol="200"/>
          <note pan="0" pos="456" key="37" len="12" vol="200"/>
          <note pan="0" pos="468" key="37" len="12" vol="200"/>
          <note pan="0" pos="480" key="37" len="12" vol="200"/>
          <note pan="0" pos="492" key="37" len="12" vol="200"/>
          <note pan="0" pos="504" key="37" len="24" vol="200"/>
          <note pan="0" pos="504" key="0" len="24" vol="200"/>
          <note pan="0" pos="516" key="1" len="24" vol="200"/>
          <note pan="0" pos="528" key="37" len="12" vol="200"/>
          <note pan="0" pos="540" key="37" len="12" vol="200"/>
          <note pan="0" pos="552" key="37" len="12" vol="200"/>
          <note pan="0" pos="564" key="37" len="12" vol="200"/>
          <note pan="0" pos="576" key="37" len="24" vol="200"/>
          <note pan="0" pos="576" key="0" len="24" vol="200"/>
          <note pan="0" pos="588" key="1" len="24" vol="200"/>
          <note pan="0" pos="600" key="37" len="12" vol="200"/>
          <note pan="0" pos="612" key="37" len="12" vol="200"/>
          <note pan="0" pos="624" key="37" len="12" vol="200"/>
          <note pan="0" pos="636" key="37" len="12" vol="200"/>
          <note pan="0" pos="648" key="37" len="24" vol="200"/>
          <note pan="0" pos="648" key="0" len="24" vol="200"/>
          <note pan="0" pos="660" key="1" len="24" vol="200"/>
          <note pan="0" pos="672" key="37" len="12" vol="200"/>
          <note pan="0" pos="684" key="37" len="12" vol="200"/>
          <note pan="0" pos="696" key="40" len="24" vol="200"/>
          <note pan="0" pos="720" key="42" len="24" vol="200"/>
          <note pan="0" pos="744" key="44" len="24" vol="200"/>
        </pattern>
        <pattern type="1" pos="30336" muted="0" name="Rhythm Guitar" steps="16">
          <note pan="0" pos="0" key="50" len="48" vol="200"/>
          <note pan="0" pos="0" key="0" len="24" vol="200"/>
          <note pan="0" pos="48" key="38" len="24" vol="200"/>
          <note pan="0" pos="60" key="1" len="24" vol="200"/>
          <note pan="0" pos="72" key="38" len="12" vol="200"/>
          <note pan="0" pos="84" key="38" len="12" vol="200"/>
          <note pan="0" pos="96" key="38" len="12" vol="200"/>
          <note pan="0" pos="108" key="38" len="12" vol="200"/>
          <note pan="0" pos="120" key="38" len="24" vol="200"/>
          <note pan="0" pos="120" key="0" len="24" vol="200"/>
          <note pan="0" pos="132" key="1" len="24" vol="200"/>
          <note pan="0" pos="144" key="38" len="12" vol="200"/>
          <note pan="0" pos="156" key="38" len="12" vol="200"/>
          <note pan="0" pos="168" key="38" len="12" vol="200"/>
          <note pan="0" pos="180" key="38" len="12" vol="200"/>
          <note pan="0" pos="192" key="38" len="24" vol="200"/>
          <note pan="0" pos="192" key="0" len="24" vol="200"/>
          <note pan="0" pos="204" key="1" len="24" vol="200"/>
          <note pan="0" pos="216" key="38" len="12" vol="200"/>
          <note pan="0" pos="228" key="38" len="12" vol="200"/>
          <note pan="0" pos="240" key="38" len="12" vol="200"/>
          <note pan="0" pos="252" key="38" len="12" vol="200"/>
          <note pan="0" pos="264" key="38" len="24" vol="200"/>
          <note pan="0" pos="264" key="0" len="24" vol="200"/>
          <note pan="0" pos="276" key="1" len="24" vol="200"/>
          <note pan="0" pos="288" key="38" len="12" vol="200"/>
          <note pan="0" pos="300" key="38" len="12" vol="200"/>
          <note pan="0" pos="312" key="38" len="24" vol="200"/>
          <note pan="0" pos="312" key="0" len="24" vol="200"/>
          <note pan="0" pos="324" key="1" len="24" vol="200"/>
          <note pan="0" pos="336" key="38" len="12" vol="200"/>
          <note pan="0" pos="348" key="38" len="12" vol="200"/>
          <note pan="0" pos="360" key="38" len="12" vol="200"/>
          <note pan="0" pos="372" key="38" len="12" vol="200"/>
          <note pan="0" pos="384" key="38" len="48" vol="200"/>
          <note pan="0" pos="384" key="0" len="24" vol="200"/>
          <note pan="0" pos="432" key="38" len="24" vol="200"/>
          <note pan="0" pos="444" key="1" len="24" vol="200"/>
          <note pan="0" pos="456" key="38" len="12" vol="200"/>
          <note pan="0" pos="468" key="38" len="12" vol="200"/>
          <note pan="0" pos="480" key="38" len="12" vol="200"/>
          <note pan="0" pos="492" key="38" len="12" vol="200"/>
          <note pan="0" pos="504" key="38" len="24" vol="200"/>
          <note pan="0" pos="504" key="0" len="24" vol="200"/>
          <note pan="0" pos="516" key="1" len="24" vol="200"/>
          <note pan="0" pos="528" key="38" len="12" vol="200"/>
          <note pan="0" pos="540" key="38" len="12" vol="200"/>
          <note pan="0" pos="552" key="38" len="12" vol="200"/>
          <note pan="0" pos="564" key="38" len="12" vol="200"/>
          <note pan="0" pos="576" key="38" len="24" vol="200"/>
          <note pan="0" pos="576" key="0" len="24" vol="200"/>
          <note pan="0" pos="588" key="1" len="24" vol="200"/>
          <note pan="0" pos="600" key="38" len="12" vol="200"/>
          <note pan="0" pos="612" key="38" len="12" vol="200"/>
          <note pan="0" pos="624" key="38" len="12" vol="200"/>
          <note pan="0" pos="636" key="38" len="12" vol="200"/>
          <note pan="0" pos="648" key="38" len="24" vol="200"/>
          <note pan="0" pos="648" key="0" len="24" vol="200"/>
          <note pan="0" pos="660" key="1" len="24" vol="200"/>
          <note pan="0" pos="672" key="38" len="12" vol="200"/>
          <note pan="0" pos="684" key="38" len="12" vol="200"/>
          <note pan="0" pos="696" key="45" len="24" vol="200"/>
          <note pan="0" pos="720" key="44" len="24" vol="200"/>
          <note pan="0" pos="744" key="40" len="24" vol="200"/>
        </pattern>
        <pattern type="1" pos="31104" muted="0" name="Rhythm Guitar" steps="16">
          <note pan="0" pos="0" key="49" len="48" vol="200"/>
          <note pan="0" pos="0" key="0" len="24" vol="200"/>
          <note pan="0" pos="48" key="37" len="24" vol="200"/>
          <note pan="0" pos="60" key="1" len="24" vol="200"/>
          <note pan="0" pos="72" key="37" len="12" vol="200"/>
          <note pan="0" pos="84" key="37" len="12" vol="200"/>
          <note pan="0" pos="96" key="37" len="12" vol="200"/>
          <note pan="0" pos="108" key="37" len="12" vol="200"/>
          <note pan="0" pos="120" key="37" len="24" vol="200"/>
          <note pan="0" pos="120" key="0" len="24" vol="200"/>
          <note pan="0" pos="132" key="1" len="24" vol="200"/>
          <note pan="0" pos="144" key="37" len="12" vol="200"/>
          <note pan="0" pos="156" key="37" len="12" vol="200"/>
          <note pan="0" pos="168" key="37" len="12" vol="200"/>
          <note pan="0" pos="180" key="37" len="12" vol="200"/>
          <note pan="0" pos="192" key="37" len="24" vol="200"/>
          <note pan="0" pos="192" key="0" len="24" vol="200"/>
          <note pan="0" pos="204" key="1" len="24" vol="200"/>
          <note pan="0" pos="216" key="37" len="12" vol="200"/>
          <note pan="0" pos="228" key="37" len="12" vol="200"/>
          <note pan="0" pos="240" key="37" len="12" vol="200"/>
          <note pan="0" pos="252" key="37" len="12" vol="200"/>
          <note pan="0" pos="264" key="37" len="24" vol="200"/>
          <note pan="0" pos="264" key="0" len="24" vol="200"/>
          <note pan="0" pos="276" key="1" len="24" vol="200"/>
          <note pan="0" pos="288" key="37" len="12" vol="200"/>
          <note pan="0" pos="300" key="37" len="12" vol="200"/>
          <note pan="0" pos="312" key="37" len="24" vol="200"/>
          <note pan="0" pos="312" key="0" len="24" vol="200"/>
          <note pan="0" pos="324" key="1" len="24" vol="200"/>
          <note pan="0" pos="336" key="37" len="12" vol="200"/>
          <note pan="0" pos="348" key="37" len="12" vol="200"/>
          <note pan="0" pos="360" key="37" len="12" vol="200"/>
          <note pan="0" pos="372" key="37" len="12" vol="200"/>
          <note pan="0" pos="384" key="35" len="48" vol="200"/>
          <note pan="0" pos="384" key="0" len="24" vol="200"/>
          <note pan="0" pos="432" key="35" len="24" vol="200"/>
          <note pan="0" pos="444" key="1" len="24" vol="200"/>
          <note pan="0" pos="456" key="35" len="12" vol="200"/>
          <note pan="0" pos="468" key="35" len="12" vol="200"/>
          <note pan="0" pos="480" key="35" len="12" vol="200"/>
          <note pan="0" pos="492" key="35" len="12" vol="200"/>
          <note pan="0" pos="504" key="35" len="24" vol="200"/>
          <note pan="0" pos="504" key="0" len="24" vol="200"/>
          <note pan="0" pos="516" key="1" len="24" vol="200"/>
          <note pan="0" pos="528" key="35" len="12" vol="200"/>
          <note pan="0" pos="540" key="35" len="12" vol="200"/>
          <note pan="0" pos="552" key="35" len="12" vol="200"/>
          <note pan="0" pos="564" key="35" len="12" vol="200"/>
          <note pan="0" pos="576" key="35" len="24" vol="200"/>
          <note pan="0" pos="576" key="0" len="24" vol="200"/>
          <note pan="0" pos="588" key="1" len="24" vol="200"/>
          <note pan="0" pos="600" key="35" len="12" vol="200"/>
          <note pan="0" pos="612" key="35" len="12" vol="200"/>
          <note pan="0" pos="624" key="35" len="12" vol="200"/>
          <note pan="0" pos="636" key="35" len="12" vol="200"/>
          <note pan="0" pos="648" key="35" len="24" vol="200"/>
          <note pan="0" pos="648" key="0" len="24" vol="200"/>
          <note pan="0" pos="660" key="1" len="24" vol="200"/>
          <note pan="0" pos="672" key="35" len="12" vol="200"/>
          <note pan="0" pos="684" key="35" len="12" vol="200"/>
          <note pan="0" pos="696" key="39" len="24" vol="200"/>
          <note pan="0" pos="720" key="40" len="24" vol="200"/>
          <note pan="0" pos="744" key="42" len="24" vol="200"/>
        </pattern>
        <pattern type="1" pos="31872" muted="0" name="Rhythm Guitar" steps="16">
          <note pan="0" pos="0" key="33" len="48" vol="200"/>
          <note pan="0" pos="0" key="0" len="24" vol="200"/>
          <note pan="0" pos="48" key="33" len="24" vol="200"/>
          <note pan="0" pos="60" key="1" len="24" vol="200"/>
          <note pan="0" pos="72" key="33" len="12" vol="200"/>
          <note pan="0" pos="84" key="33" len="12" vol="200"/>
          <note pan="0" pos="96" key="33" len="12" vol="200"/>
          <note pan="0" pos="108" key="33" len="12" vol="200"/>
          <note pan="0" pos="120" key="33" len="24" vol="200"/>
          <note pan="0" pos="120" key="0" len="24" vol="200"/>
          <note pan="0" pos="132" key="1" len="24" vol="200"/>
          <note pan="0" pos="144" key="33" len="12" vol="200"/>
          <note pan="0" pos="156" key="33" len="12" vol="200"/>
          <note pan="0" pos="168" key="33" len="12" vol="200"/>
          <note pan="0" pos="180" key="33" len="12" vol="200"/>
          <note pan="0" pos="192" key="33" len="24" vol="200"/>
          <note pan="0" pos="192" key="0" len="24" vol="200"/>
          <note pan="0" pos="204" key="1" len="24" vol="200"/>
          <note pan="0" pos="216" key="33" len="12" vol="200"/>
          <note pan="0" pos="228" key="33" len="12" vol="200"/>
          <note pan="0" pos="240" key="33" len="12" vol="200"/>
          <note pan="0" pos="252" key="33" len="12" vol="200"/>
          <note pan="0" pos="264" key="33" len="24" vol="200"/>
          <note pan="0" pos="264" key="0" len="24" vol="200"/>
          <note pan="0" pos="276" key="1" len="24" vol="200"/>
          <note pan="0" pos="288" key="33" len="12" vol="200"/>
          <note pan="0" pos="300" key="33" len="12" vol="200"/>
          <note pan="0" pos="312" key="33" len="24" vol="200"/>
          <note pan="0" pos="312" key="0" len="24" vol="200"/>
          <note pan="0" pos="324" key="1" len="24" vol="200"/>
          <note pan="0" pos="336" key="33" len="12" vol="200"/>
          <note pan="0" pos="348" key="33" len="12" vol="200"/>
          <note pan="0" pos="360" key="33" len="12" vol="200"/>
          <note pan="0" pos="372" key="33" len="12" vol="200"/>
          <note pan="0" pos="384" key="35" len="48" vol="200"/>
          <note pan="0" pos="384" key="0" len="24" vol="200"/>
          <note pan="0" pos="432" key="35" len="24" vol="200"/>
          <note pan="0" pos="444" key="1" len="24" vol="200"/>
          <note pan="0" pos="456" key="35" len="12" vol="200"/>
          <note pan="0" pos="468" key="35" len="12" vol="200"/>
          <note pan="0" pos="480" key="35" len="12" vol="200"/>
          <note pan="0" pos="492" key="35" len="12" vol="200"/>
          <note pan="0" pos="504" key="35" len="24" vol="200"/>
          <note pan="0" pos="504" key="0" len="24" vol="200"/>
          <note pan="0" pos="516" key="1" len="24" vol="200"/>
          <note pan="0" pos="528" key="35" len="12" vol="200"/>
          <note pan="0" pos="540" key="35" len="12" vol="200"/>
          <note pan="0" pos="552" key="35" len="12" vol="200"/>
          <note pan="0" pos="564" key="35" len="12" vol="200"/>
          <note pan="0" pos="576" key="35" len="24" vol="200"/>
          <note pan="0" pos="576" key="0" len="24" vol="200"/>
          <note pan="0" pos="588" key="1" len="24" vol="200"/>
          <note pan="0" pos="600" key="35" len="12" vol="200"/>
          <note pan="0" pos="612" key="35" len="12" vol="200"/>
          <note pan="0" pos="624" key="35" len="12" vol="200"/>
          <note pan="0" pos="636" key="35" len="12" vol="200"/>
          <note pan="0" pos="648" key="35" len="24" vol="200"/>
          <note pan="0" pos="648" key="0" len="24" vol="200"/>
          <note pan="0" pos="660" key="1" len="24" vol="200"/>
          <note pan="0" pos="672" key="35" len="12" vol="200"/>
          <note pan="0" pos="684" key="35" len="12" vol="200"/>
          <note pan="0" pos="696" key="35" len="24" vol="200"/>
          <note pan="0" pos="720" key="35" len="12" vol="200"/>
          <note pan="0" pos="732" key="35" len="12" vol="200"/>
          <note pan="0" pos="744" key="35" len="12" vol="200"/>
          <note pan="0" pos="756" key="35" len="12" vol="200"/>
        </pattern>
        <pattern type="1" pos="32640" muted="0" name="Rhythm Guitar" steps="16">
          <note pan="0" pos="0" key="42" len="48" vol="200"/>
          <note pan="0" pos="0" key="0" len="24" vol="200"/>
          <note pan="0" pos="48" key="42" len="24" vol="200"/>
          <note pan="0" pos="60" key="1" len="24" vol="200"/>
          <note pan="0" pos="72" key="42" len="12" vol="200"/>
          <note pan="0" pos="84" key="42" len="12" vol="200"/>
          <note pan="0" pos="96" key="42" len="12" vol="200"/>
          <note pan="0" pos="108" key="42" len="12" vol="200"/>
          <note pan="0" pos="120" key="42" len="24" vol="200"/>
          <note pan="0" pos="120" key="0" len="24" vol="200"/>
          <note pan="0" pos="132" key="1" len="24" vol="200"/>
          <note pan="0" pos="144" key="42" len="12" vol="200"/>
          <note pan="0" pos="156" key="42" len="12" vol="200"/>
          <note pan="0" pos="168" key="42" len="12" vol="200"/>
          <note pan="0" pos="180" key="42" len="12" vol="200"/>
          <note pan="0" pos="192" key="42" len="24" vol="200"/>
          <note pan="0" pos="192" key="0" len="24" vol="200"/>
          <note pan="0" pos="204" key="1" len="24" vol="200"/>
          <note pan="0" pos="216" key="42" len="12" vol="200"/>
          <note pan="0" pos="228" key="42" len="12" vol="200"/>
          <note pan="0" pos="240" key="42" len="12" vol="200"/>
          <note pan="0" pos="252" key="42" len="12" vol="200"/>
          <note pan="0" pos="264" key="42" len="24" vol="200"/>
          <note pan="0" pos="264" key="0" len="24" vol="200"/>
          <note pan="0" pos="276" key="1" len="24" vol="200"/>
          <note pan="0" pos="288" key="42" len="12" vol="200"/>
          <note pan="0" pos="300" key="42" len="12" vol="200"/>
          <note pan="0" pos="312" key="42" len="24" vol="200"/>
          <note pan="0" pos="312" key="0" len="24" vol="200"/>
          <note pan="0" pos="324" key="1" len="24" vol="200"/>
          <note pan="0" pos="336" key="42" len="12" vol="200"/>
          <note pan="0" pos="348" key="42" len="12" vol="200"/>
          <note pan="0" pos="360" key="42" len="12" vol="200"/>
          <note pan="0" pos="372" key="42" len="12" vol="200"/>
          <note pan="0" pos="384" key="32" len="48" vol="200"/>
          <note pan="0" pos="384" key="0" len="24" vol="200"/>
          <note pan="0" pos="432" key="32" len="24" vol="200"/>
          <note pan="0" pos="444" key="1" len="24" vol="200"/>
          <note pan="0" pos="456" key="32" len="12" vol="200"/>
          <note pan="0" pos="468" key="32" len="12" vol="200"/>
          <note pan="0" pos="480" key="32" len="12" vol="200"/>
          <note pan="0" pos="492" key="32" len="12" vol="200"/>
          <note pan="0" pos="504" key="32" len="24" vol="200"/>
          <note pan="0" pos="504" key="0" len="24" vol="200"/>
          <note pan="0" pos="516" key="1" len="24" vol="200"/>
          <note pan="0" pos="528" key="32" len="12" vol="200"/>
          <note pan="0" pos="540" key="32" len="12" vol="200"/>
          <note pan="0" pos="552" key="32" len="12" vol="200"/>
          <note pan="0" pos="564" key="32" len="12" vol="200"/>
          <note pan="0" pos="576" key="32" len="24" vol="200"/>
          <note pan="0" pos="576" key="0" len="24" vol="200"/>
          <note pan="0" pos="588" key="1" len="24" vol="200"/>
          <note pan="0" pos="600" key="32" len="12" vol="200"/>
          <note pan="0" pos="612" key="32" len="12" vol="200"/>
          <note pan="0" pos="624" key="32" len="12" vol="200"/>
          <note pan="0" pos="636" key="32" len="12" vol="200"/>
          <note pan="0" pos="648" key="32" len="24" vol="200"/>
          <note pan="0" pos="648" key="0" len="24" vol="200"/>
          <note pan="0" pos="660" key="1" len="24" vol="200"/>
          <note pan="0" pos="672" key="32" len="12" vol="200"/>
          <note pan="0" pos="684" key="32" len="12" vol="200"/>
          <note pan="0" pos="696" key="32" len="24" vol="200"/>
          <note pan="0" pos="720" key="32" len="12" vol="200"/>
          <note pan="0" pos="732" key="32" len="12" vol="200"/>
          <note pan="0" pos="744" key="32" len="12" vol="200"/>
          <note pan="0" pos="756" key="32" len="12" vol="200"/>
        </pattern>
        <pattern type="1" pos="33408" muted="0" name="Rhythm Guitar" steps="16">
          <note pan="0" pos="0" key="39" len="48" vol="200"/>
          <note pan="0" pos="0" key="0" len="24" vol="200"/>
          <note pan="0" pos="48" key="39" len="24" vol="200"/>
          <note pan="0" pos="60" key="1" len="24" vol="200"/>
          <note pan="0" pos="72" key="39" len="12" vol="200"/>
          <note pan="0" pos="84" key="39" len="12" vol="200"/>
          <note pan="0" pos="96" key="39" len="12" vol="200"/>
          <note pan="0" pos="108" key="39" len="12" vol="200"/>
          <note pan="0" pos="120" key="39" len="24" vol="200"/>
          <note pan="0" pos="120" key="0" len="24" vol="200"/>
          <note pan="0" pos="132" key="1" len="24" vol="200"/>
          <note pan="0" pos="144" key="39" len="12" vol="200"/>
          <note pan="0" pos="156" key="39" len="12" vol="200"/>
          <note pan="0" pos="168" key="39" len="12" vol="200"/>
          <note pan="0" pos="180" key="39" len="12" vol="200"/>
          <note pan="0" pos="192" key="39" len="24" vol="200"/>
          <note pan="0" pos="192" key="0" len="24" vol="200"/>
          <note pan="0" pos="204" key="1" len="24" vol="200"/>
          <note pan="0" pos="216" key="39" len="12" vol="200"/>
          <note pan="0" pos="228" key="39" len="12" vol="200"/>
          <note pan="0" pos="240" key="39" len="12" vol="200"/>
          <note pan="0" pos="252" key="39" len="12" vol="200"/>
          <note pan="0" pos="264" key="39" len="24" vol="200"/>
          <note pan="0" pos="264" key="0" len="24" vol="200"/>
          <note pan="0" pos="276" key="1" len="24" vol="200"/>
          <note pan="0" pos="288" key="39" len="12" vol="200"/>
          <note pan="0" pos="300" key="39" len="12" vol="200"/>
          <note pan="0" pos="312" key="39" len="24" vol="200"/>
          <note pan="0" pos="312" key="0" len="24" vol="200"/>
          <note pan="0" pos="324" key="1" len="24" vol="200"/>
          <note pan="0" pos="336" key="39" len="12" vol="200"/>
          <note pan="0" pos="348" key="39" len="12" vol="200"/>
          <note pan="0" pos="360" key="39" len="12" vol="200"/>
          <note pan="0" pos="372" key="39" len="12" vol="200"/>
          <note pan="0" pos="384" key="38" len="48" vol="200"/>
          <note pan="0" pos="384" key="0" len="24" vol="200"/>
          <note pan="0" pos="432" key="38" len="24" vol="200"/>
          <note pan="0" pos="444" key="1" len="24" vol="200"/>
          <note pan="0" pos="456" key="38" len="12" vol="200"/>
          <note pan="0" pos="468" key="38" len="12" vol="200"/>
          <note pan="0" pos="480" key="38" len="12" vol="200"/>
          <note pan="0" pos="492" key="38" len="12" vol="200"/>
          <note pan="0" pos="504" key="38" len="24" vol="200"/>
          <note pan="0" pos="504" key="0" len="24" vol="200"/>
          <note pan="0" pos="516" key="1" len="24" vol="200"/>
          <note pan="0" pos="528" key="38" len="12" vol="200"/>
          <note pan="0" pos="540" key="38" len="12" vol="200"/>
          <note pan="0" pos="552" key="38" len="12" vol="200"/>
          <note pan="0" pos="564" key="38" len="12" vol="200"/>
          <note pan="0" pos="576" key="38" len="24" vol="200"/>
          <note pan="0" pos="576" key="0" len="24" vol="200"/>
          <note pan="0" pos="588" key="1" len="24" vol="200"/>
          <note pan="0" pos="600" key="38" len="12" vol="200"/>
          <note pan="0" pos="612" key="38" len="12" vol="200"/>
          <note pan="0" pos="624" key="38" len="12" vol="200"/>
          <note pan="0" pos="636" key="38" len="12" vol="200"/>
          <note pan="0" pos="648" key="38" len="24" vol="200"/>
          <note pan="0" pos="648" key="0" len="24" vol="200"/>
          <note pan="0" pos="660" key="1" len="24" vol="200"/>
          <note pan="0" pos="672" key="38" len="12" vol="200"/>
          <note pan="0" pos="684" key="38" len="12" vol="200"/>
          <note pan="0" pos="696" key="38" len="24" vol="200"/>
          <note pan="0" pos="720" key="38" len="12" vol="200"/>
          <note pan="0" pos="732" key="38" len="12" vol="200"/>
          <note pan="0" pos="744" key="38" len="12" vol="200"/>
          <note pan="0" pos="756" key="38" len="12" vol="200"/>
        </pattern>
        <pattern type="1" pos="34176" muted="0" name="Rhythm Guitar" steps="16">
          <note pan="0" pos="0" key="43" len="48" vol="200"/>
          <note pan="0" pos="0" key="0" len="24" vol="200"/>
          <note pan="0" pos="48" key="43" len="24" vol="200"/>
          <note pan="0" pos="60" key="1" len="24" vol="200"/>
          <note pan="0" pos="72" key="43" len="12" vol="200"/>
          <note pan="0" pos="84" key="43" len="12" vol="200"/>
          <note pan="0" pos="96" key="43" len="12" vol="200"/>
          <note pan="0" pos="108" key="43" len="12" vol="200"/>
          <note pan="0" pos="120" key="43" len="24" vol="200"/>
          <note pan="0" pos="120" key="0" len="24" vol="200"/>
          <note pan="0" pos="132" key="1" len="24" vol="200"/>
          <note pan="0" pos="144" key="43" len="12" vol="200"/>
          <note pan="0" pos="156" key="43" len="12" vol="200"/>
          <note pan="0" pos="168" key="43" len="12" vol="200"/>
          <note pan="0" pos="180" key="43" len="12" vol="200"/>
          <note pan="0" pos="192" key="43" len="24" vol="200"/>
          <note pan="0" pos="192" key="0" len="24" vol="200"/>
          <note pan="0" pos="204" key="1" len="24" vol="200"/>
          <note pan="0" pos="216" key="43" len="12" vol="200"/>
          <note pan="0" pos="228" key="43" len="12" vol="200"/>
          <note pan="0" pos="240" key="43" len="12" vol="200"/>
          <note pan="0" pos="252" key="43" len="12" vol="200"/>
          <note pan="0" pos="264" key="43" len="24" vol="200"/>
          <note pan="0" pos="264" key="0" len="24" vol="200"/>
          <note pan="0" pos="276" key="1" len="24" vol="200"/>
          <note pan="0" pos="288" key="43" len="12" vol="200"/>
          <note pan="0" pos="300" key="43" len="12" vol="200"/>
          <note pan="0" pos="312" key="43" len="24" vol="200"/>
          <note pan="0" pos="312" key="0" len="24" vol="200"/>
          <note pan="0" pos="324" key="1" len="24" vol="200"/>
          <note pan="0" pos="336" key="43" len="12" vol="200"/>
          <note pan="0" pos="348" key="43" len="12" vol="200"/>
          <note pan="0" pos="360" key="43" len="12" vol="200"/>
          <note pan="0" pos="372" key="43" len="12" vol="200"/>
          <note pan="0" pos="384" key="44" len="48" vol="200"/>
          <note pan="0" pos="384" key="0" len="24" vol="200"/>
          <note pan="0" pos="432" key="32" len="24" vol="200"/>
          <note pan="0" pos="444" key="1" len="24" vol="200"/>
          <note pan="0" pos="456" key="32" len="12" vol="200"/>
          <note pan="0" pos="468" key="32" len="12" vol="200"/>
          <note pan="0" pos="480" key="32" len="12" vol="200"/>
          <note pan="0" pos="492" key="32" len="12" vol="200"/>
          <note pan="0" pos="504" key="32" len="24" vol="200"/>
          <note pan="0" pos="504" key="0" len="24" vol="200"/>
          <note pan="0" pos="516" key="1" len="24" vol="200"/>
          <note pan="0" pos="528" key="32" len="12" vol="200"/>
          <note pan="0" pos="540" key="32" len="12" vol="200"/>
          <note pan="0" pos="552" key="32" len="12" vol="200"/>
          <note pan="0" pos="564" key="32" len="12" vol="200"/>
          <note pan="0" pos="576" key="39" len="192" vol="200"/>
          <note pan="0" pos="576" key="32" len="192" vol="200"/>
          <note pan="0" pos="576" key="0" len="24" vol="200"/>
        </pattern>
        <pattern type="1" pos="34944" muted="0" name="Rhythm Guitar" steps="16">
          <note pan="0" pos="0" key="44" len="192" vol="197"/>
          <note pan="0" pos="0" key="37" len="192" vol="197"/>
          <note pan="0" pos="0" key="0" len="48" vol="78"/>
          <note pan="0" pos="192" key="51" len="192" vol="197"/>
          <note pan="0" pos="192" key="44" len="192" vol="197"/>
          <note pan="0" pos="384" key="52" len="192" vol="197"/>
          <note pan="0" pos="384" key="45" len="192" vol="197"/>
          <note pan="0" pos="576" key="54" len="192" vol="197"/>
          <note pan="0" pos="576" key="47" len="192" vol="197"/>
          <note pan="0" pos="756" key="1" len="12" vol="197"/>
          <note pan="0" pos="768" key="42" len="12" vol="197"/>
          <note pan="0" pos="780" key="42" len="12" vol="197"/>
          <note pan="0" pos="792" key="42" len="12" vol="197"/>
          <note pan="0" pos="804" key="42" len="12" vol="197"/>
          <note pan="0" pos="816" key="42" len="12" vol="197"/>
          <note pan="0" pos="828" key="42" len="12" vol="197"/>
          <note pan="0" pos="840" key="42" len="12" vol="197"/>
          <note pan="0" pos="852" key="42" len="12" vol="197"/>
          <note pan="0" pos="864" key="42" len="12" vol="197"/>
          <note pan="0" pos="876" key="42" len="12" vol="197"/>
          <note pan="0" pos="888" key="42" len="12" vol="197"/>
          <note pan="0" pos="900" key="42" len="12" vol="197"/>
          <note pan="0" pos="912" key="42" len="12" vol="197"/>
          <note pan="0" pos="924" key="42" len="12" vol="197"/>
          <note pan="0" pos="936" key="42" len="12" vol="197"/>
          <note pan="0" pos="948" key="42" len="12" vol="197"/>
          <note pan="0" pos="960" key="44" len="12" vol="197"/>
          <note pan="0" pos="972" key="44" len="12" vol="197"/>
          <note pan="0" pos="984" key="44" len="12" vol="197"/>
          <note pan="0" pos="996" key="44" len="12" vol="197"/>
          <note pan="0" pos="1008" key="44" len="12" vol="197"/>
          <note pan="0" pos="1020" key="44" len="12" vol="197"/>
          <note pan="0" pos="1032" key="44" len="12" vol="197"/>
          <note pan="0" pos="1044" key="44" len="12" vol="197"/>
          <note pan="0" pos="1056" key="44" len="12" vol="197"/>
          <note pan="0" pos="1068" key="44" len="12" vol="197"/>
          <note pan="0" pos="1080" key="44" len="12" vol="197"/>
          <note pan="0" pos="1092" key="44" len="12" vol="197"/>
          <note pan="0" pos="1104" key="44" len="12" vol="197"/>
          <note pan="0" pos="1116" key="44" len="12" vol="197"/>
          <note pan="0" pos="1128" key="44" len="12" vol="197"/>
          <note pan="0" pos="1140" key="44" len="12" vol="197"/>
          <note pan="0" pos="1152" key="45" len="12" vol="197"/>
          <note pan="0" pos="1164" key="45" len="12" vol="197"/>
          <note pan="0" pos="1176" key="45" len="12" vol="197"/>
          <note pan="0" pos="1188" key="45" len="12" vol="197"/>
          <note pan="0" pos="1200" key="45" len="12" vol="197"/>
          <note pan="0" pos="1212" key="45" len="12" vol="197"/>
          <note pan="0" pos="1224" key="45" len="12" vol="197"/>
          <note pan="0" pos="1236" key="45" len="12" vol="197"/>
          <note pan="0" pos="1248" key="45" len="12" vol="197"/>
          <note pan="0" pos="1260" key="45" len="12" vol="197"/>
          <note pan="0" pos="1272" key="45" len="12" vol="197"/>
          <note pan="0" pos="1284" key="45" len="12" vol="197"/>
          <note pan="0" pos="1296" key="45" len="12" vol="197"/>
          <note pan="0" pos="1308" key="45" len="12" vol="197"/>
          <note pan="0" pos="1320" key="45" len="12" vol="197"/>
          <note pan="0" pos="1332" key="45" len="12" vol="197"/>
          <note pan="0" pos="1344" key="54" len="48" vol="197"/>
          <note pan="0" pos="1344" key="47" len="48" vol="197"/>
          <note pan="0" pos="1344" key="0" len="12" vol="197"/>
          <note pan="0" pos="1392" key="54" len="48" vol="197"/>
          <note pan="0" pos="1392" key="47" len="48" vol="197"/>
          <note pan="0" pos="1440" key="51" len="48" vol="197"/>
          <note pan="0" pos="1440" key="44" len="48" vol="197"/>
          <note pan="0" pos="1488" key="54" len="48" vol="197"/>
          <note pan="0" pos="1488" key="47" len="48" vol="197"/>
        </pattern>
        <pattern type="1" pos="36480" muted="0" name="Rhythm Guitar" steps="16">
          <note pan="0" pos="0" key="49" len="24" vol="197"/>
          <note pan="0" pos="0" key="0" len="12" vol="197"/>
          <note pan="0" pos="24" key="47" len="24" vol="197"/>
          <note pan="0" pos="48" key="49" len="24" vol="197"/>
          <note pan="0" pos="72" key="56" len="24" vol="197"/>
          <note pan="0" pos="84" key="1" len="12" vol="197"/>
          <note pan="0" pos="96" key="49" len="12" vol="197"/>
          <note pan="0" pos="108" key="49" len="12" vol="197"/>
          <note pan="0" pos="120" key="49" len="12" vol="197"/>
          <note pan="0" pos="132" key="49" len="12" vol="197"/>
          <note pan="0" pos="144" key="49" len="12" vol="197"/>
          <note pan="0" pos="156" key="49" len="12" vol="197"/>
          <note pan="0" pos="168" key="49" len="12" vol="197"/>
          <note pan="0" pos="180" key="49" len="12" vol="197"/>
        </pattern>
        <pattern type="1" pos="36672" muted="0" name="Rhythm Guitar" steps="16">
          <note pan="0" pos="0" key="42" len="24" vol="197"/>
          <note pan="0" pos="0" key="0" len="12" vol="197"/>
          <note pan="0" pos="24" key="40" len="24" vol="197"/>
          <note pan="0" pos="48" key="42" len="24" vol="197"/>
          <note pan="0" pos="72" key="49" len="24" vol="197"/>
          <note pan="0" pos="84" key="1" len="12" vol="197"/>
          <note pan="0" pos="96" key="42" len="12" vol="197"/>
          <note pan="0" pos="108" key="42" len="12" vol="197"/>
          <note pan="0" pos="120" key="42" len="12" vol="197"/>
          <note pan="0" pos="132" key="42" len="12" vol="197"/>
          <note pan="0" pos="144" key="42" len="12" vol="197"/>
          <note pan="0" pos="156" key="42" len="12" vol="197"/>
          <note pan="0" pos="168" key="42" len="12" vol="197"/>
          <note pan="0" pos="180" key="42" len="12" vol="197"/>
        </pattern>
        <pattern type="1" pos="36864" muted="0" name="Rhythm Guitar" steps="16">
          <note pan="0" pos="0" key="44" len="24" vol="78"/>
          <note pan="0" pos="0" key="1" len="24" vol="78"/>
          <note pan="0" pos="24" key="47" len="24" vol="78"/>
          <note pan="0" pos="48" key="44" len="24" vol="78"/>
          <note pan="0" pos="60" key="0" len="24" vol="78"/>
          <note pan="0" pos="72" key="51" len="48" vol="78"/>
          <note pan="0" pos="108" key="1" len="24" vol="78"/>
          <note pan="0" pos="120" key="44" len="24" vol="78"/>
          <note pan="0" pos="144" key="47" len="24" vol="78"/>
          <note pan="0" pos="168" key="51" len="24" vol="78"/>
          <note pan="0" pos="192" key="45" len="12" vol="78"/>
          <note pan="0" pos="204" key="45" len="12" vol="78"/>
          <note pan="0" pos="216" key="45" len="12" vol="78"/>
          <note pan="0" pos="228" key="45" len="12" vol="78"/>
          <note pan="0" pos="240" key="45" len="12" vol="78"/>
          <note pan="0" pos="252" key="45" len="12" vol="78"/>
          <note pan="0" pos="264" key="49" len="12" vol="78"/>
          <note pan="0" pos="276" key="49" len="12" vol="78"/>
          <note pan="0" pos="288" key="47" len="12" vol="78"/>
          <note pan="0" pos="300" key="47" len="12" vol="78"/>
          <note pan="0" pos="312" key="47" len="12" vol="78"/>
          <note pan="0" pos="324" key="47" len="12" vol="78"/>
          <note pan="0" pos="336" key="51" len="12" vol="78"/>
          <note pan="0" pos="348" key="51" len="12" vol="78"/>
          <note pan="0" pos="360" key="47" len="12" vol="78"/>
          <note pan="0" pos="372" key="47" len="12" vol="78"/>
        </pattern>
        <pattern type="1" pos="38784" muted="0" name="Rhythm Guitar" steps="16">
          <note pan="0" pos="0" key="42" len="24" vol="197"/>
          <note pan="0" pos="0" key="1" len="24" vol="197"/>
          <note pan="0" pos="24" key="40" len="24" vol="197"/>
          <note pan="0" pos="48" key="42" len="24" vol="197"/>
          <note pan="0" pos="60" key="0" len="24" vol="197"/>
          <note pan="0" pos="72" key="49" len="24" vol="197"/>
          <note pan="0" pos="84" key="1" len="24" vol="197"/>
          <note pan="0" pos="96" key="42" len="24" vol="197"/>
          <note pan="0" pos="108" key="0" len="24" vol="197"/>
          <note pan="0" pos="120" key="52" len="24" vol="197"/>
          <note pan="0" pos="144" key="47" len="24" vol="197"/>
          <note pan="0" pos="168" key="49" len="24" vol="197"/>
          <note pan="0" pos="192" key="42" len="24" vol="197"/>
          <note pan="0" pos="216" key="40" len="24" vol="197"/>
          <note pan="0" pos="240" key="42" len="24" vol="197"/>
          <note pan="0" pos="264" key="49" len="24" vol="197"/>
          <note pan="0" pos="288" key="42" len="24" vol="197"/>
          <note pan="0" pos="312" key="52" len="24" vol="197"/>
          <note pan="0" pos="336" key="54" len="24" vol="197"/>
          <note pan="0" pos="360" key="52" len="24" vol="197"/>
        </pattern>
        <pattern type="1" pos="37248" muted="0" name="Rhythm Guitar" steps="16">
          <note pan="0" pos="0" key="49" len="24" vol="197"/>
          <note pan="0" pos="0" key="0" len="12" vol="197"/>
          <note pan="0" pos="24" key="47" len="24" vol="197"/>
          <note pan="0" pos="48" key="49" len="24" vol="197"/>
          <note pan="0" pos="72" key="56" len="24" vol="197"/>
          <note pan="0" pos="84" key="1" len="12" vol="197"/>
          <note pan="0" pos="96" key="49" len="12" vol="197"/>
          <note pan="0" pos="108" key="49" len="12" vol="197"/>
          <note pan="0" pos="120" key="49" len="12" vol="197"/>
          <note pan="0" pos="132" key="49" len="12" vol="197"/>
          <note pan="0" pos="144" key="49" len="12" vol="197"/>
          <note pan="0" pos="156" key="49" len="12" vol="197"/>
          <note pan="0" pos="168" key="49" len="12" vol="197"/>
          <note pan="0" pos="180" key="49" len="12" vol="197"/>
        </pattern>
        <pattern type="1" pos="37440" muted="0" name="Rhythm Guitar" steps="16">
          <note pan="0" pos="0" key="42" len="24" vol="197"/>
          <note pan="0" pos="0" key="0" len="12" vol="197"/>
          <note pan="0" pos="24" key="40" len="24" vol="197"/>
          <note pan="0" pos="48" key="42" len="24" vol="197"/>
          <note pan="0" pos="72" key="49" len="24" vol="197"/>
          <note pan="0" pos="84" key="1" len="12" vol="197"/>
          <note pan="0" pos="96" key="42" len="12" vol="197"/>
          <note pan="0" pos="108" key="42" len="12" vol="197"/>
          <note pan="0" pos="120" key="42" len="12" vol="197"/>
          <note pan="0" pos="132" key="42" len="12" vol="197"/>
          <note pan="0" pos="144" key="42" len="12" vol="197"/>
          <note pan="0" pos="156" key="42" len="12" vol="197"/>
          <note pan="0" pos="168" key="42" len="12" vol="197"/>
          <note pan="0" pos="180" key="42" len="12" vol="197"/>
        </pattern>
        <pattern type="1" pos="37632" muted="0" name="Rhythm Guitar" steps="16">
          <note pan="0" pos="0" key="44" len="24" vol="78"/>
          <note pan="0" pos="0" key="1" len="24" vol="78"/>
          <note pan="0" pos="24" key="47" len="24" vol="78"/>
          <note pan="0" pos="48" key="44" len="24" vol="78"/>
          <note pan="0" pos="60" key="0" len="24" vol="78"/>
          <note pan="0" pos="72" key="51" len="48" vol="78"/>
          <note pan="0" pos="108" key="1" len="24" vol="78"/>
          <note pan="0" pos="120" key="44" len="24" vol="78"/>
          <note pan="0" pos="144" key="47" len="24" vol="78"/>
          <note pan="0" pos="168" key="51" len="24" vol="78"/>
          <note pan="0" pos="192" key="45" len="12" vol="78"/>
          <note pan="0" pos="204" key="45" len="12" vol="78"/>
          <note pan="0" pos="216" key="45" len="12" vol="78"/>
          <note pan="0" pos="228" key="45" len="12" vol="78"/>
          <note pan="0" pos="240" key="45" len="12" vol="78"/>
          <note pan="0" pos="252" key="45" len="12" vol="78"/>
          <note pan="0" pos="264" key="49" len="12" vol="78"/>
          <note pan="0" pos="276" key="49" len="12" vol="78"/>
          <note pan="0" pos="288" key="47" len="12" vol="78"/>
          <note pan="0" pos="300" key="47" len="12" vol="78"/>
          <note pan="0" pos="312" key="47" len="12" vol="78"/>
          <note pan="0" pos="324" key="47" len="12" vol="78"/>
          <note pan="0" pos="336" key="51" len="12" vol="78"/>
          <note pan="0" pos="348" key="51" len="12" vol="78"/>
          <note pan="0" pos="360" key="47" len="12" vol="78"/>
          <note pan="0" pos="372" key="47" len="12" vol="78"/>
        </pattern>
        <pattern type="1" pos="38016" muted="0" name="" steps="16">
          <note pan="0" pos="0" key="38" len="12" vol="200"/>
          <note pan="0" pos="0" key="1" len="24" vol="200"/>
          <note pan="0" pos="12" key="38" len="12" vol="200"/>
          <note pan="0" pos="24" key="38" len="24" vol="200"/>
          <note pan="0" pos="48" key="38" len="12" vol="200"/>
          <note pan="0" pos="60" key="38" len="12" vol="200"/>
          <note pan="0" pos="72" key="38" len="24" vol="200"/>
          <note pan="0" pos="96" key="38" len="12" vol="200"/>
          <note pan="0" pos="108" key="38" len="12" vol="200"/>
          <note pan="0" pos="120" key="38" len="24" vol="200"/>
          <note pan="0" pos="144" key="38" len="12" vol="200"/>
          <note pan="0" pos="156" key="38" len="12" vol="200"/>
          <note pan="0" pos="168" key="38" len="24" vol="200"/>
          <note pan="0" pos="192" key="38" len="12" vol="200"/>
          <note pan="0" pos="204" key="38" len="12" vol="200"/>
          <note pan="0" pos="216" key="38" len="24" vol="200"/>
          <note pan="0" pos="240" key="38" len="12" vol="200"/>
          <note pan="0" pos="252" key="38" len="12" vol="200"/>
          <note pan="0" pos="264" key="38" len="24" vol="200"/>
          <note pan="0" pos="288" key="38" len="12" vol="200"/>
          <note pan="0" pos="300" key="38" len="12" vol="200"/>
          <note pan="0" pos="312" key="38" len="24" vol="200"/>
          <note pan="0" pos="336" key="38" len="12" vol="200"/>
          <note pan="0" pos="348" key="38" len="12" vol="200"/>
          <note pan="0" pos="360" key="38" len="24" vol="200"/>
          <note pan="0" pos="384" key="37" len="12" vol="200"/>
          <note pan="0" pos="396" key="37" len="12" vol="200"/>
          <note pan="0" pos="408" key="37" len="24" vol="200"/>
          <note pan="0" pos="432" key="37" len="12" vol="200"/>
          <note pan="0" pos="444" key="37" len="12" vol="200"/>
          <note pan="0" pos="456" key="37" len="24" vol="200"/>
          <note pan="0" pos="480" key="37" len="12" vol="200"/>
          <note pan="0" pos="492" key="37" len="12" vol="200"/>
          <note pan="0" pos="504" key="37" len="24" vol="200"/>
          <note pan="0" pos="528" key="37" len="12" vol="200"/>
          <note pan="0" pos="540" key="37" len="12" vol="200"/>
          <note pan="0" pos="552" key="37" len="24" vol="200"/>
          <note pan="0" pos="576" key="35" len="12" vol="200"/>
          <note pan="0" pos="588" key="35" len="12" vol="200"/>
          <note pan="0" pos="600" key="35" len="24" vol="200"/>
          <note pan="0" pos="624" key="35" len="12" vol="200"/>
          <note pan="0" pos="636" key="35" len="12" vol="200"/>
          <note pan="0" pos="648" key="35" len="24" vol="200"/>
          <note pan="0" pos="672" key="35" len="12" vol="200"/>
          <note pan="0" pos="684" key="35" len="12" vol="200"/>
          <note pan="0" pos="696" key="35" len="24" vol="200"/>
          <note pan="0" pos="720" key="35" len="12" vol="200"/>
          <note pan="0" pos="732" key="35" len="12" vol="200"/>
          <note pan="0" pos="744" key="35" len="24" vol="200"/>
        </pattern>
        <pattern type="1" pos="39168" muted="0" name="" steps="16">
          <note pan="0" pos="0" key="46" len="24" vol="78"/>
          <note pan="0" pos="0" key="39" len="24" vol="78"/>
          <note pan="0" pos="0" key="0" len="12" vol="78"/>
          <note pan="0" pos="12" key="1" len="12" vol="78"/>
          <note pan="0" pos="24" key="39" len="12" vol="78"/>
          <note pan="0" pos="36" key="39" len="12" vol="78"/>
          <note pan="0" pos="48" key="39" len="12" vol="78"/>
          <note pan="0" pos="60" key="39" len="12" vol="78"/>
          <note pan="0" pos="72" key="39" len="12" vol="78"/>
          <note pan="0" pos="84" key="39" len="12" vol="78"/>
          <note pan="0" pos="96" key="39" len="12" vol="78"/>
          <note pan="0" pos="108" key="39" len="12" vol="78"/>
          <note pan="0" pos="120" key="39" len="12" vol="78"/>
          <note pan="0" pos="132" key="39" len="12" vol="78"/>
          <note pan="0" pos="144" key="39" len="12" vol="78"/>
          <note pan="0" pos="156" key="39" len="12" vol="78"/>
          <note pan="0" pos="168" key="39" len="12" vol="78"/>
          <note pan="0" pos="180" key="39" len="12" vol="78"/>
          <note pan="0" pos="192" key="52" len="96" vol="78"/>
          <note pan="0" pos="192" key="45" len="96" vol="78"/>
          <note pan="0" pos="192" key="0" len="12" vol="78"/>
          <note pan="0" pos="288" key="51" len="96" vol="78"/>
          <note pan="0" pos="288" key="44" len="96" vol="78"/>
        </pattern>
        <pattern type="1" pos="39552" muted="0" name="" steps="16">
          <note pan="0" pos="0" key="44" len="48" vol="195"/>
          <note pan="0" pos="0" key="37" len="48" vol="195"/>
          <note pan="0" pos="0" key="0" len="36" vol="195"/>
          <note pan="0" pos="36" key="1" len="36" vol="195"/>
          <note pan="0" pos="48" key="37" len="12" vol="195"/>
          <note pan="0" pos="60" key="37" len="12" vol="195"/>
          <note pan="0" pos="72" key="37" len="12" vol="195"/>
          <note pan="0" pos="84" key="37" len="12" vol="195"/>
          <note pan="0" pos="96" key="37" len="12" vol="195"/>
          <note pan="0" pos="108" key="37" len="12" vol="195"/>
          <note pan="0" pos="120" key="37" len="12" vol="195"/>
          <note pan="0" pos="132" key="37" len="12" vol="195"/>
          <note pan="0" pos="144" key="37" len="12" vol="195"/>
          <note pan="0" pos="156" key="37" len="12" vol="195"/>
          <note pan="0" pos="168" key="37" len="12" vol="195"/>
          <note pan="0" pos="180" key="37" len="12" vol="195"/>
          <note pan="0" pos="180" key="0" len="36" vol="195"/>
          <note pan="0" pos="192" key="51" len="48" vol="195"/>
          <note pan="0" pos="192" key="44" len="48" vol="195"/>
          <note pan="0" pos="216" key="1" len="36" vol="195"/>
          <note pan="0" pos="240" key="44" len="12" vol="195"/>
          <note pan="0" pos="252" key="44" len="12" vol="195"/>
          <note pan="0" pos="264" key="44" len="12" vol="195"/>
          <note pan="0" pos="276" key="44" len="12" vol="195"/>
          <note pan="0" pos="288" key="44" len="12" vol="195"/>
          <note pan="0" pos="300" key="44" len="12" vol="195"/>
          <note pan="0" pos="312" key="44" len="12" vol="195"/>
          <note pan="0" pos="324" key="44" len="12" vol="195"/>
          <note pan="0" pos="336" key="44" len="12" vol="195"/>
          <note pan="0" pos="348" key="44" len="12" vol="195"/>
          <note pan="0" pos="360" key="44" len="12" vol="195"/>
          <note pan="0" pos="372" key="44" len="12" vol="195"/>
          <note pan="0" pos="372" key="0" len="36" vol="195"/>
          <note pan="0" pos="384" key="52" len="48" vol="195"/>
          <note pan="0" pos="384" key="45" len="48" vol="195"/>
          <note pan="0" pos="408" key="1" len="36" vol="195"/>
          <note pan="0" pos="432" key="45" len="12" vol="195"/>
          <note pan="0" pos="444" key="45" len="12" vol="195"/>
          <note pan="0" pos="456" key="45" len="12" vol="195"/>
          <note pan="0" pos="468" key="45" len="12" vol="195"/>
          <note pan="0" pos="480" key="45" len="12" vol="195"/>
          <note pan="0" pos="492" key="45" len="12" vol="195"/>
          <note pan="0" pos="504" key="45" len="12" vol="195"/>
          <note pan="0" pos="516" key="45" len="12" vol="195"/>
          <note pan="0" pos="528" key="45" len="12" vol="195"/>
          <note pan="0" pos="540" key="45" len="12" vol="195"/>
          <note pan="0" pos="552" key="45" len="12" vol="195"/>
          <note pan="0" pos="564" key="45" len="12" vol="195"/>
          <note pan="0" pos="564" key="0" len="36" vol="195"/>
          <note pan="0" pos="576" key="54" len="48" vol="195"/>
          <note pan="0" pos="576" key="47" len="48" vol="195"/>
          <note pan="0" pos="600" key="1" len="36" vol="195"/>
          <note pan="0" pos="624" key="47" len="12" vol="195"/>
          <note pan="0" pos="636" key="47" len="12" vol="195"/>
          <note pan="0" pos="648" key="47" len="12" vol="195"/>
          <note pan="0" pos="660" key="47" len="12" vol="195"/>
          <note pan="0" pos="672" key="47" len="12" vol="195"/>
          <note pan="0" pos="684" key="47" len="12" vol="195"/>
          <note pan="0" pos="696" key="47" len="12" vol="195"/>
          <note pan="0" pos="708" key="47" len="12" vol="195"/>
          <note pan="0" pos="720" key="47" len="12" vol="195"/>
          <note pan="0" pos="732" key="47" len="12" vol="195"/>
          <note pan="0" pos="744" key="47" len="12" vol="195"/>
          <note pan="0" pos="756" key="47" len="12" vol="195"/>
          <note pan="0" pos="768" key="49" len="48" vol="195"/>
          <note pan="0" pos="768" key="42" len="48" vol="195"/>
          <note pan="0" pos="768" key="0" len="36" vol="195"/>
          <note pan="0" pos="792" key="1" len="36" vol="195"/>
          <note pan="0" pos="816" key="42" len="12" vol="195"/>
          <note pan="0" pos="828" key="42" len="12" vol="195"/>
          <note pan="0" pos="840" key="42" len="12" vol="195"/>
          <note pan="0" pos="852" key="42" len="12" vol="195"/>
          <note pan="0" pos="864" key="42" len="12" vol="195"/>
          <note pan="0" pos="876" key="42" len="12" vol="195"/>
          <note pan="0" pos="888" key="42" len="12" vol="195"/>
          <note pan="0" pos="900" key="42" len="12" vol="195"/>
          <note pan="0" pos="912" key="42" len="12" vol="195"/>
          <note pan="0" pos="924" key="42" len="12" vol="195"/>
          <note pan="0" pos="936" key="42" len="12" vol="195"/>
          <note pan="0" pos="948" key="42" len="12" vol="195"/>
          <note pan="0" pos="948" key="0" len="36" vol="195"/>
          <note pan="0" pos="960" key="51" len="48" vol="195"/>
          <note pan="0" pos="960" key="44" len="48" vol="195"/>
          <note pan="0" pos="984" key="1" len="36" vol="195"/>
          <note pan="0" pos="1008" key="44" len="12" vol="195"/>
          <note pan="0" pos="1020" key="44" len="12" vol="195"/>
          <note pan="0" pos="1032" key="44" len="12" vol="195"/>
          <note pan="0" pos="1044" key="44" len="12" vol="195"/>
          <note pan="0" pos="1056" key="44" len="12" vol="195"/>
          <note pan="0" pos="1068" key="44" len="12" vol="195"/>
          <note pan="0" pos="1080" key="44" len="12" vol="195"/>
          <note pan="0" pos="1092" key="44" len="12" vol="195"/>
          <note pan="0" pos="1104" key="44" len="12" vol="195"/>
          <note pan="0" pos="1116" key="44" len="12" vol="195"/>
          <note pan="0" pos="1128" key="44" len="12" vol="195"/>
          <note pan="0" pos="1140" key="44" len="12" vol="195"/>
          <note pan="0" pos="1140" key="0" len="36" vol="195"/>
          <note pan="0" pos="1152" key="52" len="48" vol="195"/>
          <note pan="0" pos="1152" key="45" len="48" vol="195"/>
          <note pan="0" pos="1176" key="1" len="36" vol="195"/>
          <note pan="0" pos="1200" key="45" len="12" vol="195"/>
          <note pan="0" pos="1212" key="45" len="12" vol="195"/>
          <note pan="0" pos="1224" key="45" len="12" vol="195"/>
          <note pan="0" pos="1236" key="45" len="12" vol="195"/>
          <note pan="0" pos="1248" key="45" len="12" vol="195"/>
          <note pan="0" pos="1260" key="45" len="12" vol="195"/>
          <note pan="0" pos="1272" key="45" len="12" vol="195"/>
          <note pan="0" pos="1284" key="45" len="12" vol="195"/>
          <note pan="0" pos="1296" key="45" len="12" vol="195"/>
          <note pan="0" pos="1308" key="45" len="12" vol="195"/>
          <note pan="0" pos="1320" key="45" len="12" vol="195"/>
          <note pan="0" pos="1332" key="45" len="12" vol="195"/>
          <note pan="0" pos="1332" key="0" len="36" vol="195"/>
          <note pan="0" pos="1344" key="54" len="48" vol="195"/>
          <note pan="0" pos="1344" key="47" len="48" vol="195"/>
          <note pan="0" pos="1368" key="1" len="36" vol="195"/>
          <note pan="0" pos="1392" key="47" len="12" vol="195"/>
          <note pan="0" pos="1404" key="47" len="12" vol="195"/>
          <note pan="0" pos="1416" key="47" len="12" vol="195"/>
          <note pan="0" pos="1428" key="47" len="12" vol="195"/>
          <note pan="0" pos="1440" key="48" len="12" vol="195"/>
          <note pan="0" pos="1452" key="48" len="12" vol="195"/>
          <note pan="0" pos="1464" key="48" len="12" vol="195"/>
          <note pan="0" pos="1464" key="1" len="36" vol="195"/>
          <note pan="0" pos="1476" key="48" len="12" vol="195"/>
          <note pan="0" pos="1488" key="48" len="12" vol="195"/>
          <note pan="0" pos="1500" key="48" len="12" vol="195"/>
          <note pan="0" pos="1512" key="48" len="12" vol="195"/>
          <note pan="0" pos="1524" key="48" len="12" vol="195"/>
          <note pan="0" pos="1524" key="0" len="36" vol="195"/>
          <note pan="0" pos="1536" key="44" len="48" vol="195"/>
          <note pan="0" pos="1536" key="37" len="48" vol="195"/>
          <note pan="0" pos="1560" key="1" len="36" vol="195"/>
          <note pan="0" pos="1584" key="37" len="12" vol="195"/>
          <note pan="0" pos="1596" key="37" len="12" vol="195"/>
          <note pan="0" pos="1608" key="37" len="12" vol="195"/>
          <note pan="0" pos="1620" key="37" len="12" vol="195"/>
          <note pan="0" pos="1632" key="37" len="12" vol="195"/>
          <note pan="0" pos="1644" key="37" len="12" vol="195"/>
          <note pan="0" pos="1656" key="37" len="12" vol="195"/>
          <note pan="0" pos="1668" key="37" len="12" vol="195"/>
          <note pan="0" pos="1680" key="37" len="12" vol="195"/>
          <note pan="0" pos="1692" key="37" len="12" vol="195"/>
          <note pan="0" pos="1704" key="37" len="12" vol="195"/>
          <note pan="0" pos="1716" key="37" len="12" vol="195"/>
          <note pan="0" pos="1716" key="0" len="36" vol="195"/>
          <note pan="0" pos="1728" key="54" len="48" vol="195"/>
          <note pan="0" pos="1728" key="47" len="48" vol="195"/>
          <note pan="0" pos="1752" key="1" len="36" vol="195"/>
          <note pan="0" pos="1776" key="47" len="12" vol="195"/>
          <note pan="0" pos="1788" key="47" len="12" vol="195"/>
          <note pan="0" pos="1800" key="47" len="12" vol="195"/>
          <note pan="0" pos="1812" key="47" len="12" vol="195"/>
          <note pan="0" pos="1824" key="47" len="12" vol="195"/>
          <note pan="0" pos="1836" key="47" len="12" vol="195"/>
          <note pan="0" pos="1848" key="47" len="12" vol="195"/>
          <note pan="0" pos="1860" key="47" len="12" vol="195"/>
          <note pan="0" pos="1872" key="47" len="12" vol="195"/>
          <note pan="0" pos="1884" key="47" len="12" vol="195"/>
          <note pan="0" pos="1896" key="47" len="12" vol="195"/>
          <note pan="0" pos="1908" key="47" len="12" vol="195"/>
          <note pan="0" pos="1908" key="0" len="36" vol="195"/>
          <note pan="0" pos="1920" key="54" len="48" vol="195"/>
          <note pan="0" pos="1920" key="46" len="48" vol="195"/>
          <note pan="0" pos="1944" key="1" len="36" vol="195"/>
          <note pan="0" pos="1968" key="46" len="12" vol="195"/>
          <note pan="0" pos="1980" key="46" len="12" vol="195"/>
          <note pan="0" pos="1992" key="46" len="12" vol="195"/>
          <note pan="0" pos="2004" key="46" len="12" vol="195"/>
          <note pan="0" pos="2016" key="46" len="12" vol="195"/>
          <note pan="0" pos="2028" key="46" len="12" vol="195"/>
          <note pan="0" pos="2040" key="46" len="12" vol="195"/>
          <note pan="0" pos="2052" key="46" len="12" vol="195"/>
          <note pan="0" pos="2064" key="46" len="12" vol="195"/>
          <note pan="0" pos="2076" key="46" len="12" vol="195"/>
          <note pan="0" pos="2088" key="46" len="12" vol="195"/>
          <note pan="0" pos="2100" key="46" len="12" vol="195"/>
          <note pan="0" pos="2100" key="0" len="36" vol="195"/>
          <note pan="0" pos="2112" key="49" len="48" vol="195"/>
          <note pan="0" pos="2112" key="42" len="48" vol="195"/>
          <note pan="0" pos="2136" key="1" len="36" vol="195"/>
          <note pan="0" pos="2160" key="42" len="12" vol="195"/>
          <note pan="0" pos="2172" key="42" len="12" vol="195"/>
          <note pan="0" pos="2184" key="42" len="12" vol="195"/>
          <note pan="0" pos="2196" key="42" len="12" vol="195"/>
          <note pan="0" pos="2196" key="0" len="36" vol="195"/>
          <note pan="0" pos="2208" key="47" len="48" vol="195"/>
          <note pan="0" pos="2208" key="40" len="48" vol="195"/>
          <note pan="0" pos="2232" key="1" len="36" vol="195"/>
          <note pan="0" pos="2256" key="40" len="12" vol="195"/>
          <note pan="0" pos="2268" key="40" len="12" vol="195"/>
          <note pan="0" pos="2280" key="40" len="12" vol="195"/>
          <note pan="0" pos="2292" key="40" len="12" vol="195"/>
          <note pan="0" pos="2292" key="0" len="36" vol="195"/>
          <note pan="0" pos="2304" key="45" len="48" vol="195"/>
          <note pan="0" pos="2304" key="38" len="48" vol="195"/>
          <note pan="0" pos="2328" key="1" len="36" vol="195"/>
          <note pan="0" pos="2352" key="38" len="12" vol="195"/>
          <note pan="0" pos="2364" key="38" len="12" vol="195"/>
          <note pan="0" pos="2376" key="38" len="12" vol="195"/>
          <note pan="0" pos="2388" key="38" len="12" vol="195"/>
          <note pan="0" pos="2400" key="38" len="12" vol="195"/>
          <note pan="0" pos="2412" key="38" len="12" vol="195"/>
          <note pan="0" pos="2424" key="38" len="12" vol="195"/>
          <note pan="0" pos="2436" key="38" len="12" vol="195"/>
          <note pan="0" pos="2448" key="38" len="12" vol="195"/>
          <note pan="0" pos="2460" key="38" len="12" vol="195"/>
          <note pan="0" pos="2472" key="38" len="12" vol="195"/>
          <note pan="0" pos="2484" key="38" len="12" vol="195"/>
          <note pan="0" pos="2484" key="0" len="36" vol="195"/>
          <note pan="0" pos="2496" key="52" len="48" vol="195"/>
          <note pan="0" pos="2496" key="45" len="48" vol="195"/>
          <note pan="0" pos="2520" key="1" len="36" vol="195"/>
          <note pan="0" pos="2544" key="45" len="12" vol="195"/>
          <note pan="0" pos="2556" key="45" len="12" vol="195"/>
          <note pan="0" pos="2568" key="45" len="12" vol="195"/>
          <note pan="0" pos="2580" key="45" len="12" vol="195"/>
          <note pan="0" pos="2592" key="45" len="12" vol="195"/>
          <note pan="0" pos="2604" key="45" len="12" vol="195"/>
          <note pan="0" pos="2616" key="45" len="12" vol="195"/>
          <note pan="0" pos="2628" key="45" len="12" vol="195"/>
          <note pan="0" pos="2640" key="45" len="12" vol="195"/>
          <note pan="0" pos="2652" key="45" len="12" vol="195"/>
          <note pan="0" pos="2664" key="45" len="12" vol="195"/>
          <note pan="0" pos="2676" key="45" len="12" vol="195"/>
          <note pan="0" pos="2688" key="42" len="384" vol="100"/>
          <note pan="0" pos="2688" key="35" len="384" vol="195"/>
          <note pan="0" pos="2688" key="0" len="36" vol="195"/>
        </pattern>
        <pattern type="1" pos="43776" muted="0" name="Rhythm Guitar" steps="16">
          <note pan="0" pos="0" key="0" len="96" vol="78"/>
          <note pan="0" pos="96" key="40" len="96" vol="78"/>
          <note pan="0" pos="96" key="33" len="96" vol="78"/>
          <note pan="0" pos="192" key="42" len="96" vol="78"/>
          <note pan="0" pos="192" key="35" len="96" vol="78"/>
          <note pan="0" pos="288" key="44" len="96" vol="78"/>
          <note pan="0" pos="288" key="37" len="96" vol="78"/>
        </pattern>
        <pattern type="1" pos="44160" muted="0" name="" steps="16">
          <note pan="0" pos="0" key="46" len="48" vol="195"/>
          <note pan="0" pos="0" key="39" len="48" vol="195"/>
          <note pan="0" pos="0" key="0" len="36" vol="195"/>
          <note pan="0" pos="36" key="1" len="36" vol="195"/>
          <note pan="0" pos="48" key="39" len="12" vol="195"/>
          <note pan="0" pos="60" key="39" len="12" vol="195"/>
          <note pan="0" pos="72" key="39" len="12" vol="195"/>
          <note pan="0" pos="84" key="39" len="12" vol="195"/>
          <note pan="0" pos="96" key="39" len="12" vol="195"/>
          <note pan="0" pos="108" key="39" len="12" vol="195"/>
          <note pan="0" pos="120" key="39" len="12" vol="195"/>
          <note pan="0" pos="132" key="39" len="12" vol="195"/>
          <note pan="0" pos="144" key="39" len="12" vol="195"/>
          <note pan="0" pos="156" key="39" len="12" vol="195"/>
          <note pan="0" pos="168" key="39" len="12" vol="195"/>
          <note pan="0" pos="180" key="39" len="12" vol="195"/>
          <note pan="0" pos="180" key="0" len="36" vol="195"/>
          <note pan="0" pos="192" key="53" len="48" vol="195"/>
          <note pan="0" pos="192" key="46" len="48" vol="195"/>
          <note pan="0" pos="216" key="1" len="36" vol="195"/>
          <note pan="0" pos="240" key="46" len="12" vol="195"/>
          <note pan="0" pos="252" key="46" len="12" vol="195"/>
          <note pan="0" pos="264" key="46" len="12" vol="195"/>
          <note pan="0" pos="276" key="46" len="12" vol="195"/>
          <note pan="0" pos="288" key="46" len="12" vol="195"/>
          <note pan="0" pos="300" key="46" len="12" vol="195"/>
          <note pan="0" pos="312" key="46" len="12" vol="195"/>
          <note pan="0" pos="324" key="46" len="12" vol="195"/>
          <note pan="0" pos="336" key="46" len="12" vol="195"/>
          <note pan="0" pos="348" key="46" len="12" vol="195"/>
          <note pan="0" pos="360" key="46" len="12" vol="195"/>
          <note pan="0" pos="372" key="46" len="12" vol="195"/>
          <note pan="0" pos="372" key="0" len="36" vol="195"/>
          <note pan="0" pos="384" key="54" len="48" vol="195"/>
          <note pan="0" pos="384" key="47" len="48" vol="195"/>
          <note pan="0" pos="408" key="1" len="36" vol="195"/>
          <note pan="0" pos="432" key="47" len="12" vol="195"/>
          <note pan="0" pos="444" key="47" len="12" vol="195"/>
          <note pan="0" pos="456" key="47" len="12" vol="195"/>
          <note pan="0" pos="468" key="47" len="12" vol="195"/>
          <note pan="0" pos="480" key="47" len="12" vol="195"/>
          <note pan="0" pos="492" key="47" len="12" vol="195"/>
          <note pan="0" pos="504" key="47" len="12" vol="195"/>
          <note pan="0" pos="516" key="47" len="12" vol="195"/>
          <note pan="0" pos="528" key="47" len="12" vol="195"/>
          <note pan="0" pos="540" key="47" len="12" vol="195"/>
          <note pan="0" pos="552" key="47" len="12" vol="195"/>
          <note pan="0" pos="564" key="47" len="12" vol="195"/>
          <note pan="0" pos="564" key="0" len="36" vol="195"/>
          <note pan="0" pos="576" key="56" len="48" vol="195"/>
          <note pan="0" pos="576" key="49" len="48" vol="195"/>
          <note pan="0" pos="600" key="1" len="36" vol="195"/>
          <note pan="0" pos="624" key="49" len="12" vol="195"/>
          <note pan="0" pos="636" key="49" len="12" vol="195"/>
          <note pan="0" pos="648" key="49" len="12" vol="195"/>
          <note pan="0" pos="660" key="49" len="12" vol="195"/>
          <note pan="0" pos="672" key="49" len="12" vol="195"/>
          <note pan="0" pos="684" key="49" len="12" vol="195"/>
          <note pan="0" pos="696" key="49" len="12" vol="195"/>
          <note pan="0" pos="708" key="49" len="12" vol="195"/>
          <note pan="0" pos="720" key="49" len="12" vol="195"/>
          <note pan="0" pos="732" key="49" len="12" vol="195"/>
          <note pan="0" pos="744" key="49" len="12" vol="195"/>
          <note pan="0" pos="756" key="49" len="12" vol="195"/>
          <note pan="0" pos="768" key="51" len="48" vol="195"/>
          <note pan="0" pos="768" key="44" len="48" vol="195"/>
          <note pan="0" pos="768" key="0" len="36" vol="195"/>
          <note pan="0" pos="792" key="1" len="36" vol="195"/>
          <note pan="0" pos="816" key="44" len="12" vol="195"/>
          <note pan="0" pos="828" key="44" len="12" vol="195"/>
          <note pan="0" pos="840" key="44" len="12" vol="195"/>
          <note pan="0" pos="852" key="44" len="12" vol="195"/>
          <note pan="0" pos="864" key="44" len="12" vol="195"/>
          <note pan="0" pos="876" key="44" len="12" vol="195"/>
          <note pan="0" pos="888" key="44" len="12" vol="195"/>
          <note pan="0" pos="900" key="44" len="12" vol="195"/>
          <note pan="0" pos="912" key="44" len="12" vol="195"/>
          <note pan="0" pos="924" key="44" len="12" vol="195"/>
          <note pan="0" pos="936" key="44" len="12" vol="195"/>
          <note pan="0" pos="948" key="44" len="12" vol="195"/>
          <note pan="0" pos="948" key="0" len="36" vol="195"/>
          <note pan="0" pos="960" key="53" len="48" vol="195"/>
          <note pan="0" pos="960" key="46" len="48" vol="195"/>
          <note pan="0" pos="984" key="1" len="36" vol="195"/>
          <note pan="0" pos="1008" key="46" len="12" vol="195"/>
          <note pan="0" pos="1020" key="46" len="12" vol="195"/>
          <note pan="0" pos="1032" key="46" len="12" vol="195"/>
          <note pan="0" pos="1044" key="46" len="12" vol="195"/>
          <note pan="0" pos="1056" key="46" len="12" vol="195"/>
          <note pan="0" pos="1068" key="46" len="12" vol="195"/>
          <note pan="0" pos="1080" key="46" len="12" vol="195"/>
          <note pan="0" pos="1092" key="46" len="12" vol="195"/>
          <note pan="0" pos="1104" key="46" len="12" vol="195"/>
          <note pan="0" pos="1116" key="46" len="12" vol="195"/>
          <note pan="0" pos="1128" key="46" len="12" vol="195"/>
          <note pan="0" pos="1140" key="46" len="12" vol="195"/>
          <note pan="0" pos="1140" key="0" len="36" vol="195"/>
          <note pan="0" pos="1152" key="54" len="48" vol="195"/>
          <note pan="0" pos="1152" key="47" len="48" vol="195"/>
          <note pan="0" pos="1176" key="1" len="36" vol="195"/>
          <note pan="0" pos="1200" key="47" len="12" vol="195"/>
          <note pan="0" pos="1212" key="47" len="12" vol="195"/>
          <note pan="0" pos="1224" key="47" len="12" vol="195"/>
          <note pan="0" pos="1236" key="47" len="12" vol="195"/>
          <note pan="0" pos="1248" key="47" len="12" vol="195"/>
          <note pan="0" pos="1260" key="47" len="12" vol="195"/>
          <note pan="0" pos="1272" key="47" len="12" vol="195"/>
          <note pan="0" pos="1284" key="47" len="12" vol="195"/>
          <note pan="0" pos="1296" key="47" len="12" vol="195"/>
          <note pan="0" pos="1308" key="47" len="12" vol="195"/>
          <note pan="0" pos="1320" key="47" len="12" vol="195"/>
          <note pan="0" pos="1332" key="47" len="12" vol="195"/>
          <note pan="0" pos="1332" key="0" len="36" vol="195"/>
          <note pan="0" pos="1344" key="56" len="48" vol="195"/>
          <note pan="0" pos="1344" key="49" len="48" vol="195"/>
          <note pan="0" pos="1368" key="1" len="36" vol="195"/>
          <note pan="0" pos="1392" key="49" len="12" vol="195"/>
          <note pan="0" pos="1404" key="49" len="12" vol="195"/>
          <note pan="0" pos="1416" key="49" len="12" vol="195"/>
          <note pan="0" pos="1428" key="49" len="12" vol="195"/>
          <note pan="0" pos="1440" key="50" len="12" vol="195"/>
          <note pan="0" pos="1452" key="47" len="12" vol="195"/>
          <note pan="0" pos="1464" key="46" len="12" vol="195"/>
          <note pan="0" pos="1476" key="44" len="12" vol="195"/>
          <note pan="0" pos="1488" key="47" len="12" vol="195"/>
          <note pan="0" pos="1500" key="46" len="12" vol="195"/>
          <note pan="0" pos="1512" key="44" len="12" vol="195"/>
          <note pan="0" pos="1524" key="42" len="12" vol="195"/>
          <note pan="0" pos="1524" key="0" len="36" vol="195"/>
          <note pan="0" pos="1536" key="46" len="48" vol="195"/>
          <note pan="0" pos="1536" key="39" len="48" vol="195"/>
          <note pan="0" pos="1560" key="1" len="36" vol="195"/>
          <note pan="0" pos="1584" key="39" len="12" vol="195"/>
          <note pan="0" pos="1596" key="39" len="12" vol="195"/>
          <note pan="0" pos="1608" key="39" len="12" vol="195"/>
          <note pan="0" pos="1620" key="39" len="12" vol="195"/>
          <note pan="0" pos="1632" key="39" len="12" vol="195"/>
          <note pan="0" pos="1644" key="39" len="12" vol="195"/>
          <note pan="0" pos="1656" key="39" len="12" vol="195"/>
          <note pan="0" pos="1668" key="39" len="12" vol="195"/>
          <note pan="0" pos="1680" key="39" len="12" vol="195"/>
          <note pan="0" pos="1692" key="39" len="12" vol="195"/>
          <note pan="0" pos="1704" key="39" len="12" vol="195"/>
          <note pan="0" pos="1716" key="39" len="12" vol="195"/>
          <note pan="0" pos="1716" key="0" len="36" vol="195"/>
          <note pan="0" pos="1728" key="56" len="48" vol="195"/>
          <note pan="0" pos="1728" key="49" len="48" vol="195"/>
          <note pan="0" pos="1752" key="1" len="36" vol="195"/>
          <note pan="0" pos="1776" key="49" len="12" vol="195"/>
          <note pan="0" pos="1788" key="49" len="12" vol="195"/>
          <note pan="0" pos="1800" key="49" len="12" vol="195"/>
          <note pan="0" pos="1812" key="49" len="12" vol="195"/>
          <note pan="0" pos="1824" key="49" len="12" vol="195"/>
          <note pan="0" pos="1836" key="49" len="12" vol="195"/>
          <note pan="0" pos="1848" key="49" len="12" vol="195"/>
          <note pan="0" pos="1860" key="49" len="12" vol="195"/>
          <note pan="0" pos="1872" key="49" len="12" vol="195"/>
          <note pan="0" pos="1884" key="49" len="12" vol="195"/>
          <note pan="0" pos="1896" key="49" len="12" vol="195"/>
          <note pan="0" pos="1908" key="49" len="12" vol="195"/>
          <note pan="0" pos="1908" key="0" len="36" vol="195"/>
          <note pan="0" pos="1920" key="56" len="48" vol="195"/>
          <note pan="0" pos="1920" key="48" len="48" vol="195"/>
          <note pan="0" pos="1944" key="1" len="36" vol="195"/>
          <note pan="0" pos="1968" key="48" len="12" vol="195"/>
          <note pan="0" pos="1980" key="48" len="12" vol="195"/>
          <note pan="0" pos="1992" key="48" len="12" vol="195"/>
          <note pan="0" pos="2004" key="48" len="12" vol="195"/>
          <note pan="0" pos="2016" key="48" len="12" vol="195"/>
          <note pan="0" pos="2028" key="48" len="12" vol="195"/>
          <note pan="0" pos="2040" key="48" len="12" vol="195"/>
          <note pan="0" pos="2052" key="48" len="12" vol="195"/>
          <note pan="0" pos="2064" key="48" len="12" vol="195"/>
          <note pan="0" pos="2076" key="48" len="12" vol="195"/>
          <note pan="0" pos="2088" key="48" len="12" vol="195"/>
          <note pan="0" pos="2100" key="48" len="12" vol="195"/>
          <note pan="0" pos="2100" key="0" len="36" vol="195"/>
          <note pan="0" pos="2112" key="51" len="48" vol="195"/>
          <note pan="0" pos="2112" key="44" len="48" vol="195"/>
          <note pan="0" pos="2136" key="1" len="36" vol="195"/>
          <note pan="0" pos="2160" key="44" len="12" vol="195"/>
          <note pan="0" pos="2172" key="44" len="12" vol="195"/>
          <note pan="0" pos="2184" key="44" len="12" vol="195"/>
          <note pan="0" pos="2196" key="44" len="12" vol="195"/>
          <note pan="0" pos="2196" key="0" len="36" vol="195"/>
          <note pan="0" pos="2208" key="49" len="48" vol="195"/>
          <note pan="0" pos="2208" key="42" len="48" vol="195"/>
          <note pan="0" pos="2232" key="1" len="36" vol="195"/>
          <note pan="0" pos="2256" key="42" len="12" vol="195"/>
          <note pan="0" pos="2268" key="42" len="12" vol="195"/>
          <note pan="0" pos="2280" key="42" len="12" vol="195"/>
          <note pan="0" pos="2292" key="42" len="12" vol="195"/>
          <note pan="0" pos="2292" key="0" len="36" vol="195"/>
          <note pan="0" pos="2304" key="47" len="48" vol="195"/>
          <note pan="0" pos="2304" key="40" len="48" vol="195"/>
          <note pan="0" pos="2328" key="1" len="36" vol="195"/>
          <note pan="0" pos="2352" key="40" len="12" vol="195"/>
          <note pan="0" pos="2364" key="40" len="12" vol="195"/>
          <note pan="0" pos="2376" key="40" len="12" vol="195"/>
          <note pan="0" pos="2388" key="40" len="12" vol="195"/>
          <note pan="0" pos="2400" key="40" len="12" vol="195"/>
          <note pan="0" pos="2412" key="40" len="12" vol="195"/>
          <note pan="0" pos="2424" key="40" len="12" vol="195"/>
          <note pan="0" pos="2436" key="40" len="12" vol="195"/>
          <note pan="0" pos="2448" key="40" len="12" vol="195"/>
          <note pan="0" pos="2460" key="40" len="12" vol="195"/>
          <note pan="0" pos="2472" key="40" len="12" vol="195"/>
          <note pan="0" pos="2484" key="40" len="12" vol="195"/>
          <note pan="0" pos="2484" key="0" len="36" vol="195"/>
          <note pan="0" pos="2496" key="54" len="48" vol="195"/>
          <note pan="0" pos="2496" key="47" len="48" vol="195"/>
          <note pan="0" pos="2520" key="1" len="36" vol="195"/>
          <note pan="0" pos="2544" key="47" len="12" vol="195"/>
          <note pan="0" pos="2556" key="47" len="12" vol="195"/>
          <note pan="0" pos="2568" key="47" len="12" vol="195"/>
          <note pan="0" pos="2580" key="47" len="12" vol="195"/>
          <note pan="0" pos="2592" key="47" len="12" vol="195"/>
          <note pan="0" pos="2604" key="47" len="12" vol="195"/>
          <note pan="0" pos="2616" key="47" len="12" vol="195"/>
          <note pan="0" pos="2628" key="47" len="12" vol="195"/>
          <note pan="0" pos="2640" key="47" len="12" vol="195"/>
          <note pan="0" pos="2652" key="47" len="12" vol="195"/>
          <note pan="0" pos="2664" key="47" len="12" vol="195"/>
          <note pan="0" pos="2676" key="47" len="12" vol="195"/>
          <note pan="0" pos="2676" key="0" len="36" vol="195"/>
          <note pan="0" pos="2688" key="56" len="48" vol="195"/>
          <note pan="0" pos="2688" key="49" len="48" vol="195"/>
          <note pan="0" pos="2712" key="1" len="36" vol="195"/>
          <note pan="0" pos="2736" key="49" len="12" vol="195"/>
          <note pan="0" pos="2748" key="49" len="12" vol="195"/>
          <note pan="0" pos="2760" key="49" len="12" vol="195"/>
          <note pan="0" pos="2772" key="49" len="12" vol="195"/>
          <note pan="0" pos="2784" key="49" len="12" vol="195"/>
          <note pan="0" pos="2796" key="49" len="12" vol="195"/>
          <note pan="0" pos="2808" key="49" len="12" vol="195"/>
          <note pan="0" pos="2820" key="49" len="12" vol="195"/>
          <note pan="0" pos="2832" key="49" len="12" vol="195"/>
          <note pan="0" pos="2844" key="49" len="12" vol="195"/>
          <note pan="0" pos="2856" key="49" len="12" vol="195"/>
          <note pan="0" pos="2868" key="49" len="12" vol="195"/>
          <note pan="0" pos="2880" key="49" len="12" vol="195"/>
          <note pan="0" pos="2892" key="47" len="12" vol="195"/>
          <note pan="0" pos="2904" key="46" len="12" vol="195"/>
          <note pan="0" pos="2916" key="44" len="12" vol="195"/>
          <note pan="0" pos="2928" key="47" len="12" vol="195"/>
          <note pan="0" pos="2940" key="46" len="12" vol="195"/>
          <note pan="0" pos="2952" key="44" len="12" vol="195"/>
          <note pan="0" pos="2964" key="42" len="12" vol="195"/>
          <note pan="0" pos="2976" key="46" len="12" vol="195"/>
          <note pan="0" pos="2988" key="44" len="12" vol="195"/>
          <note pan="0" pos="3000" key="42" len="12" vol="195"/>
          <note pan="0" pos="3012" key="41" len="12" vol="195"/>
          <note pan="0" pos="3024" key="44" len="12" vol="195"/>
          <note pan="0" pos="3036" key="42" len="12" vol="195"/>
          <note pan="0" pos="3048" key="41" len="12" vol="195"/>
          <note pan="0" pos="3060" key="42" len="12" vol="195"/>
        </pattern>
        <pattern type="1" pos="47232" muted="0" name="" steps="16">
          <note pan="0" pos="0" key="46" len="48" vol="195"/>
          <note pan="0" pos="0" key="39" len="48" vol="195"/>
          <note pan="0" pos="0" key="0" len="36" vol="195"/>
          <note pan="0" pos="36" key="1" len="36" vol="195"/>
          <note pan="0" pos="48" key="39" len="12" vol="195"/>
          <note pan="0" pos="60" key="39" len="12" vol="195"/>
          <note pan="0" pos="72" key="39" len="12" vol="195"/>
          <note pan="0" pos="84" key="39" len="12" vol="195"/>
          <note pan="0" pos="96" key="39" len="12" vol="195"/>
          <note pan="0" pos="108" key="39" len="12" vol="195"/>
          <note pan="0" pos="120" key="39" len="12" vol="195"/>
          <note pan="0" pos="132" key="39" len="12" vol="195"/>
          <note pan="0" pos="144" key="39" len="12" vol="195"/>
          <note pan="0" pos="156" key="39" len="12" vol="195"/>
          <note pan="0" pos="168" key="39" len="12" vol="195"/>
          <note pan="0" pos="180" key="39" len="12" vol="195"/>
          <note pan="0" pos="180" key="0" len="36" vol="195"/>
          <note pan="0" pos="192" key="53" len="48" vol="195"/>
          <note pan="0" pos="192" key="46" len="48" vol="195"/>
          <note pan="0" pos="216" key="1" len="36" vol="195"/>
          <note pan="0" pos="240" key="46" len="12" vol="195"/>
          <note pan="0" pos="252" key="46" len="12" vol="195"/>
          <note pan="0" pos="264" key="46" len="12" vol="195"/>
          <note pan="0" pos="276" key="46" len="12" vol="195"/>
          <note pan="0" pos="288" key="46" len="12" vol="195"/>
          <note pan="0" pos="300" key="46" len="12" vol="195"/>
          <note pan="0" pos="312" key="46" len="12" vol="195"/>
          <note pan="0" pos="324" key="46" len="12" vol="195"/>
          <note pan="0" pos="336" key="46" len="12" vol="195"/>
          <note pan="0" pos="348" key="46" len="12" vol="195"/>
          <note pan="0" pos="360" key="46" len="12" vol="195"/>
          <note pan="0" pos="372" key="46" len="12" vol="195"/>
          <note pan="0" pos="372" key="0" len="36" vol="195"/>
          <note pan="0" pos="384" key="54" len="48" vol="195"/>
          <note pan="0" pos="384" key="47" len="48" vol="195"/>
          <note pan="0" pos="408" key="1" len="36" vol="195"/>
          <note pan="0" pos="432" key="47" len="12" vol="195"/>
          <note pan="0" pos="444" key="47" len="12" vol="195"/>
          <note pan="0" pos="456" key="47" len="12" vol="195"/>
          <note pan="0" pos="468" key="47" len="12" vol="195"/>
          <note pan="0" pos="480" key="47" len="12" vol="195"/>
          <note pan="0" pos="492" key="47" len="12" vol="195"/>
          <note pan="0" pos="504" key="47" len="12" vol="195"/>
          <note pan="0" pos="516" key="47" len="12" vol="195"/>
          <note pan="0" pos="528" key="47" len="12" vol="195"/>
          <note pan="0" pos="540" key="47" len="12" vol="195"/>
          <note pan="0" pos="552" key="47" len="12" vol="195"/>
          <note pan="0" pos="564" key="47" len="12" vol="195"/>
          <note pan="0" pos="564" key="0" len="36" vol="195"/>
          <note pan="0" pos="576" key="56" len="48" vol="195"/>
          <note pan="0" pos="576" key="49" len="48" vol="195"/>
          <note pan="0" pos="600" key="1" len="36" vol="195"/>
          <note pan="0" pos="624" key="49" len="12" vol="195"/>
          <note pan="0" pos="636" key="49" len="12" vol="195"/>
          <note pan="0" pos="648" key="49" len="12" vol="195"/>
          <note pan="0" pos="660" key="49" len="12" vol="195"/>
          <note pan="0" pos="672" key="49" len="12" vol="195"/>
          <note pan="0" pos="684" key="49" len="12" vol="195"/>
          <note pan="0" pos="696" key="49" len="12" vol="195"/>
          <note pan="0" pos="708" key="49" len="12" vol="195"/>
          <note pan="0" pos="720" key="49" len="12" vol="195"/>
          <note pan="0" pos="732" key="49" len="12" vol="195"/>
          <note pan="0" pos="744" key="49" len="12" vol="195"/>
          <note pan="0" pos="756" key="49" len="12" vol="195"/>
          <note pan="0" pos="768" key="51" len="48" vol="195"/>
          <note pan="0" pos="768" key="44" len="48" vol="195"/>
          <note pan="0" pos="768" key="0" len="36" vol="195"/>
          <note pan="0" pos="792" key="1" len="36" vol="195"/>
          <note pan="0" pos="816" key="44" len="12" vol="195"/>
          <note pan="0" pos="828" key="44" len="12" vol="195"/>
          <note pan="0" pos="840" key="44" len="12" vol="195"/>
          <note pan="0" pos="852" key="44" len="12" vol="195"/>
          <note pan="0" pos="864" key="44" len="12" vol="195"/>
          <note pan="0" pos="876" key="44" len="12" vol="195"/>
          <note pan="0" pos="888" key="44" len="12" vol="195"/>
          <note pan="0" pos="900" key="44" len="12" vol="195"/>
          <note pan="0" pos="912" key="44" len="12" vol="195"/>
          <note pan="0" pos="924" key="44" len="12" vol="195"/>
          <note pan="0" pos="936" key="44" len="12" vol="195"/>
          <note pan="0" pos="948" key="44" len="12" vol="195"/>
          <note pan="0" pos="948" key="0" len="36" vol="195"/>
          <note pan="0" pos="960" key="53" len="48" vol="195"/>
          <note pan="0" pos="960" key="46" len="48" vol="195"/>
          <note pan="0" pos="984" key="1" len="36" vol="195"/>
          <note pan="0" pos="1008" key="46" len="12" vol="195"/>
          <note pan="0" pos="1020" key="46" len="12" vol="195"/>
          <note pan="0" pos="1032" key="46" len="12" vol="195"/>
          <note pan="0" pos="1044" key="46" len="12" vol="195"/>
          <note pan="0" pos="1056" key="46" len="12" vol="195"/>
          <note pan="0" pos="1068" key="46" len="12" vol="195"/>
          <note pan="0" pos="1080" key="46" len="12" vol="195"/>
          <note pan="0" pos="1092" key="46" len="12" vol="195"/>
          <note pan="0" pos="1104" key="46" len="12" vol="195"/>
          <note pan="0" pos="1116" key="46" len="12" vol="195"/>
          <note pan="0" pos="1128" key="46" len="12" vol="195"/>
          <note pan="0" pos="1140" key="46" len="12" vol="195"/>
          <note pan="0" pos="1140" key="0" len="36" vol="195"/>
          <note pan="0" pos="1152" key="54" len="48" vol="195"/>
          <note pan="0" pos="1152" key="47" len="48" vol="195"/>
          <note pan="0" pos="1176" key="1" len="36" vol="195"/>
          <note pan="0" pos="1200" key="47" len="12" vol="195"/>
          <note pan="0" pos="1212" key="47" len="12" vol="195"/>
          <note pan="0" pos="1224" key="47" len="12" vol="195"/>
          <note pan="0" pos="1236" key="47" len="12" vol="195"/>
          <note pan="0" pos="1248" key="47" len="12" vol="195"/>
          <note pan="0" pos="1260" key="47" len="12" vol="195"/>
          <note pan="0" pos="1272" key="47" len="12" vol="195"/>
          <note pan="0" pos="1284" key="47" len="12" vol="195"/>
          <note pan="0" pos="1296" key="47" len="12" vol="195"/>
          <note pan="0" pos="1308" key="47" len="12" vol="195"/>
          <note pan="0" pos="1320" key="47" len="12" vol="195"/>
          <note pan="0" pos="1332" key="47" len="12" vol="195"/>
          <note pan="0" pos="1332" key="0" len="36" vol="195"/>
          <note pan="0" pos="1344" key="56" len="48" vol="195"/>
          <note pan="0" pos="1344" key="49" len="48" vol="195"/>
          <note pan="0" pos="1368" key="1" len="36" vol="195"/>
          <note pan="0" pos="1392" key="49" len="12" vol="195"/>
          <note pan="0" pos="1404" key="49" len="12" vol="195"/>
          <note pan="0" pos="1416" key="49" len="12" vol="195"/>
          <note pan="0" pos="1428" key="49" len="12" vol="195"/>
          <note pan="0" pos="1440" key="50" len="12" vol="195"/>
          <note pan="0" pos="1452" key="50" len="12" vol="195"/>
          <note pan="0" pos="1464" key="50" len="12" vol="195"/>
          <note pan="0" pos="1464" key="1" len="36" vol="195"/>
          <note pan="0" pos="1476" key="50" len="12" vol="195"/>
          <note pan="0" pos="1488" key="50" len="12" vol="195"/>
          <note pan="0" pos="1500" key="50" len="12" vol="195"/>
          <note pan="0" pos="1512" key="50" len="12" vol="195"/>
          <note pan="0" pos="1524" key="50" len="12" vol="195"/>
          <note pan="0" pos="1524" key="0" len="36" vol="195"/>
          <note pan="0" pos="1536" key="46" len="48" vol="195"/>
          <note pan="0" pos="1536" key="39" len="48" vol="195"/>
          <note pan="0" pos="1560" key="1" len="36" vol="195"/>
          <note pan="0" pos="1584" key="39" len="12" vol="195"/>
          <note pan="0" pos="1596" key="39" len="12" vol="195"/>
          <note pan="0" pos="1608" key="39" len="12" vol="195"/>
          <note pan="0" pos="1620" key="39" len="12" vol="195"/>
          <note pan="0" pos="1632" key="39" len="12" vol="195"/>
          <note pan="0" pos="1644" key="39" len="12" vol="195"/>
          <note pan="0" pos="1656" key="39" len="12" vol="195"/>
          <note pan="0" pos="1668" key="39" len="12" vol="195"/>
          <note pan="0" pos="1680" key="39" len="12" vol="195"/>
          <note pan="0" pos="1692" key="39" len="12" vol="195"/>
          <note pan="0" pos="1704" key="39" len="12" vol="195"/>
          <note pan="0" pos="1716" key="39" len="12" vol="195"/>
          <note pan="0" pos="1716" key="0" len="36" vol="195"/>
          <note pan="0" pos="1728" key="56" len="48" vol="195"/>
          <note pan="0" pos="1728" key="49" len="48" vol="195"/>
          <note pan="0" pos="1752" key="1" len="36" vol="195"/>
          <note pan="0" pos="1776" key="49" len="12" vol="195"/>
          <note pan="0" pos="1788" key="49" len="12" vol="195"/>
          <note pan="0" pos="1800" key="49" len="12" vol="195"/>
          <note pan="0" pos="1812" key="49" len="12" vol="195"/>
          <note pan="0" pos="1824" key="49" len="12" vol="195"/>
          <note pan="0" pos="1836" key="49" len="12" vol="195"/>
          <note pan="0" pos="1848" key="49" len="12" vol="195"/>
          <note pan="0" pos="1860" key="49" len="12" vol="195"/>
          <note pan="0" pos="1872" key="49" len="12" vol="195"/>
          <note pan="0" pos="1884" key="49" len="12" vol="195"/>
          <note pan="0" pos="1896" key="49" len="12" vol="195"/>
          <note pan="0" pos="1908" key="49" len="12" vol="195"/>
          <note pan="0" pos="1908" key="0" len="36" vol="195"/>
          <note pan="0" pos="1920" key="56" len="48" vol="195"/>
          <note pan="0" pos="1920" key="48" len="48" vol="195"/>
          <note pan="0" pos="1944" key="1" len="36" vol="195"/>
          <note pan="0" pos="1968" key="48" len="12" vol="195"/>
          <note pan="0" pos="1980" key="48" len="12" vol="195"/>
          <note pan="0" pos="1992" key="48" len="12" vol="195"/>
          <note pan="0" pos="2004" key="48" len="12" vol="195"/>
          <note pan="0" pos="2016" key="48" len="12" vol="195"/>
          <note pan="0" pos="2028" key="48" len="12" vol="195"/>
          <note pan="0" pos="2040" key="48" len="12" vol="195"/>
          <note pan="0" pos="2052" key="48" len="12" vol="195"/>
          <note pan="0" pos="2064" key="48" len="12" vol="195"/>
          <note pan="0" pos="2076" key="48" len="12" vol="195"/>
          <note pan="0" pos="2088" key="48" len="12" vol="195"/>
          <note pan="0" pos="2100" key="48" len="12" vol="195"/>
          <note pan="0" pos="2100" key="0" len="36" vol="195"/>
          <note pan="0" pos="2112" key="51" len="48" vol="195"/>
          <note pan="0" pos="2112" key="44" len="48" vol="195"/>
          <note pan="0" pos="2136" key="1" len="36" vol="195"/>
          <note pan="0" pos="2160" key="44" len="12" vol="195"/>
          <note pan="0" pos="2172" key="44" len="12" vol="195"/>
          <note pan="0" pos="2184" key="44" len="12" vol="195"/>
          <note pan="0" pos="2196" key="44" len="12" vol="195"/>
          <note pan="0" pos="2196" key="0" len="36" vol="195"/>
          <note pan="0" pos="2208" key="49" len="48" vol="195"/>
          <note pan="0" pos="2208" key="42" len="48" vol="195"/>
          <note pan="0" pos="2232" key="1" len="36" vol="195"/>
          <note pan="0" pos="2256" key="42" len="12" vol="195"/>
          <note pan="0" pos="2268" key="42" len="12" vol="195"/>
          <note pan="0" pos="2280" key="42" len="12" vol="195"/>
          <note pan="0" pos="2292" key="42" len="12" vol="195"/>
          <note pan="0" pos="2292" key="0" len="36" vol="195"/>
          <note pan="0" pos="2304" key="47" len="48" vol="195"/>
          <note pan="0" pos="2304" key="40" len="48" vol="195"/>
          <note pan="0" pos="2328" key="1" len="36" vol="195"/>
          <note pan="0" pos="2352" key="40" len="12" vol="195"/>
          <note pan="0" pos="2364" key="40" len="12" vol="195"/>
          <note pan="0" pos="2376" key="40" len="12" vol="195"/>
          <note pan="0" pos="2388" key="40" len="12" vol="195"/>
          <note pan="0" pos="2400" key="40" len="12" vol="195"/>
          <note pan="0" pos="2412" key="40" len="12" vol="195"/>
          <note pan="0" pos="2424" key="40" len="12" vol="195"/>
          <note pan="0" pos="2436" key="40" len="12" vol="195"/>
          <note pan="0" pos="2448" key="40" len="12" vol="195"/>
          <note pan="0" pos="2460" key="40" len="12" vol="195"/>
          <note pan="0" pos="2472" key="40" len="12" vol="195"/>
          <note pan="0" pos="2484" key="40" len="12" vol="195"/>
          <note pan="0" pos="2484" key="0" len="36" vol="195"/>
          <note pan="0" pos="2496" key="54" len="48" vol="195"/>
          <note pan="0" pos="2496" key="47" len="48" vol="195"/>
          <note pan="0" pos="2520" key="1" len="36" vol="195"/>
          <note pan="0" pos="2544" key="47" len="12" vol="195"/>
          <note pan="0" pos="2556" key="47" len="12" vol="195"/>
          <note pan="0" pos="2568" key="47" len="12" vol="195"/>
          <note pan="0" pos="2580" key="47" len="12" vol="195"/>
          <note pan="0" pos="2592" key="47" len="12" vol="195"/>
          <note pan="0" pos="2604" key="47" len="12" vol="195"/>
          <note pan="0" pos="2616" key="47" len="12" vol="195"/>
          <note pan="0" pos="2628" key="47" len="12" vol="195"/>
          <note pan="0" pos="2640" key="47" len="12" vol="195"/>
          <note pan="0" pos="2652" key="47" len="12" vol="195"/>
          <note pan="0" pos="2664" key="47" len="12" vol="195"/>
          <note pan="0" pos="2676" key="47" len="12" vol="195"/>
          <note pan="0" pos="2676" key="0" len="36" vol="195"/>
          <note pan="0" pos="2688" key="56" len="48" vol="195"/>
          <note pan="0" pos="2688" key="49" len="48" vol="195"/>
          <note pan="0" pos="2712" key="1" len="36" vol="195"/>
          <note pan="0" pos="2736" key="49" len="12" vol="195"/>
          <note pan="0" pos="2748" key="49" len="12" vol="195"/>
          <note pan="0" pos="2760" key="49" len="12" vol="195"/>
          <note pan="0" pos="2772" key="49" len="12" vol="195"/>
          <note pan="0" pos="2784" key="49" len="12" vol="195"/>
          <note pan="0" pos="2796" key="49" len="12" vol="195"/>
          <note pan="0" pos="2808" key="49" len="12" vol="195"/>
          <note pan="0" pos="2820" key="49" len="12" vol="195"/>
          <note pan="0" pos="2832" key="49" len="12" vol="195"/>
          <note pan="0" pos="2844" key="49" len="12" vol="195"/>
          <note pan="0" pos="2856" key="49" len="12" vol="195"/>
          <note pan="0" pos="2868" key="49" len="12" vol="195"/>
          <note pan="0" pos="2880" key="53" len="96" vol="195"/>
          <note pan="0" pos="2880" key="46" len="96" vol="195"/>
          <note pan="0" pos="2880" key="0" len="36" vol="195"/>
          <note pan="0" pos="2976" key="56" len="96" vol="195"/>
          <note pan="0" pos="2976" key="49" len="96" vol="195"/>
        </pattern>
      </track>
      <track type="0" muted="0" name="Lead Guitar S" solo="0">
        <instrumenttrack pan="0" pitch="0" basenote="57" usemasterpitch="1" vol="200" fxch="12" pitchrange="1">
          <instrument name="carlapatchbay">
            <carlapatchbay>
              <CARLA-PROJECT VERSION="2.0">
                <EngineSettings>
                  <ForceStereo>false</ForceStereo>
                  <PreferPluginBridges>false</PreferPluginBridges>
                  <PreferUiBridges>true</PreferUiBridges>
                  <UIsAlwaysOnTop>false</UIsAlwaysOnTop>
                  <MaxParameters>200</MaxParameters>
                  <UIBridgesTimeout>4000</UIBridgesTimeout>
                  <LADSPA_PATH>/home/huggypie/.ladspa:/usr/lib/ladspa:/usr/local/lib/ladspa</LADSPA_PATH>
                  <DSSI_PATH>/home/huggypie/.dssi:/usr/lib/dssi:/usr/local/lib/dssi</DSSI_PATH>
                  <LV2_PATH>/home/huggypie/.lv2:/usr/lib/lv2:/usr/local/lib/lv2</LV2_PATH>
                  <VST2_PATH>/home/huggypie/.vst:/home/huggypie/.wine/drive_c/Program Files (x86)/VstPlugins:/home/huggypie/.wine/drive_c/Program Files/VstPlugins:/usr/lib/lxvst:/usr/lib/vst:/usr/local/lib/lxvst:/usr/local/lib/vst/home/huggypie/.lxvst:/home/huggypie/vst</VST2_PATH>
                  <VST3_PATH>/home/huggypie/.vst3:/home/huggypie/.wine/drive_c/Program Files (x86)/Common Files/VST3:/home/huggypie/.wine/drive_c/Program Files/Common Files/VST3:/usr/lib/vst3:/usr/local/lib/vst3</VST3_PATH>
                  <SF2_PATH>/home/huggypie/.sounds/sf2/home/huggypie/.sounds/sf3:/usr/share/soundfonts:/usr/share/sounds/sf2:/usr/share/sounds/sf3</SF2_PATH>
                  <SFZ_PATH>/home/huggypie/.sounds/sfz:/home/huggypie/samples:/usr/share/sounds/sfz</SFZ_PATH>
                </EngineSettings>
                <!-- sfizz -->
                <Plugin>
                  <Info>
                    <Type>LV2</Type>
                    <Name>sfizz</Name>
                    <URI>http://sfztools.github.io/sfizz</URI>
                  </Info>
                  <Data>
                    <Active>Yes</Active>
                    <ControlChannel>1</ControlChannel>
                    <Options>0x3f0</Options>
                    <Parameter>
                      <Index>0</Index>
                      <Name>Volume</Name>
                      <Symbol>volume</Symbol>
                      <Value>0</Value>
                    </Parameter>
                    <Parameter>
                      <Index>1</Index>
                      <Name>Polyphony</Name>
                      <Symbol>num_voices</Symbol>
                      <Value>64</Value>
                    </Parameter>
                    <Parameter>
                      <Index>2</Index>
                      <Name>Internal oversampling factor</Name>
                      <Symbol>oversampling</Symbol>
                      <Value>1</Value>
                    </Parameter>
                    <Parameter>
                      <Index>3</Index>
                      <Name>Preload size</Name>
                      <Symbol>preload_size</Symbol>
                      <Value>8192</Value>
                    </Parameter>
                    <Parameter>
                      <Index>5</Index>
                      <Name>Scala root key</Name>
                      <Symbol>scala_root_key</Symbol>
                      <Value>60</Value>
                    </Parameter>
                    <Parameter>
                      <Index>6</Index>
                      <Name>Tuning frequency</Name>
                      <Symbol>tuning_frequency</Symbol>
                      <Value>440</Value>
                    </Parameter>
                    <Parameter>
                      <Index>7</Index>
                      <Name>Stretched tuning</Name>
                      <Symbol>stretched_tuning</Symbol>
                      <Value>0</Value>
                    </Parameter>
                    <CustomData>
                      <Type>http://lv2plug.in/ns/ext/atom#Path</Type>
                      <Key>http://sfztools.github.io/sfizz:sfzfile</Key>
                      <Value>../samples/fakeguitar/_fakeguitar1_integrated.sfz</Value>
                    </CustomData>
                    <CustomData>
                      <Type>http://lv2plug.in/ns/ext/atom#Int</Type>
                      <Key>http://sfztools.github.io/sfizz:numvoices</Key>
                      <Value>QAAAAA==</Value>
                    </CustomData>
                    <CustomData>
                      <Type>http://lv2plug.in/ns/ext/atom#Int</Type>
                      <Key>http://sfztools.github.io/sfizz:preload_size</Key>
                      <Value>ACAAAA==</Value>
                    </CustomData>
                    <CustomData>
                      <Type>http://lv2plug.in/ns/ext/atom#Int</Type>
                      <Key>http://sfztools.github.io/sfizz:oversampling</Key>
                      <Value>AQAAAA==</Value>
                    </CustomData>
                    <CustomData>
                      <Type>http://lv2plug.in/ns/ext/atom#Path</Type>
                      <Key>http://sfztools.github.io/sfizz:tuningfile</Key>
                      <Value>../../../usr/lib/lv2/sfizz.lv2//Contents/Resources/DefaultScale.scl</Value>
                    </CustomData>
                  </Data>
                </Plugin>
                <Patchbay>
                  <Connection>
                    <Source>Midi Input:Capture 1</Source>
                    <Target>sfizz:events-in</Target>
                  </Connection>
                  <Connection>
                    <Source>sfizz:Left Output</Source>
                    <Target>Audio Output:Left</Target>
                  </Connection>
                  <Connection>
                    <Source>sfizz:Right Output</Source>
                    <Target>Audio Output:Right</Target>
                  </Connection>
                </Patchbay>
              </CARLA-PROJECT>
            </carlapatchbay>
          </instrument>
          <eldata fres="0.5" fcut="14000" fwet="0" ftype="0">
            <elvol lspd_numerator="4" userwavefile="" lshp="0" x100="0" amt="0" lspd_syncmode="0" ctlenvamt="0" dec="0.5" hold="0.5" lspd_denominator="4" sustain="0.5" lamt="0" lspd="0.1" pdel="0" att="0" lpdel="0" latt="0" rel="0.1"/>
            <elcut lspd_numerator="4" userwavefile="" lshp="0" x100="0" amt="0" lspd_syncmode="0" ctlenvamt="0" dec="0.5" hold="0.5" lspd_denominator="4" sustain="0.5" lamt="0" lspd="0.1" pdel="0" att="0" lpdel="0" latt="0" rel="0.1"/>
            <elres lspd_numerator="4" userwavefile="" lshp="0" x100="0" amt="0" lspd_syncmode="0" ctlenvamt="0" dec="0.5" hold="0.5" lspd_denominator="4" sustain="0.5" lamt="0" lspd="0.1" pdel="0" att="0" lpdel="0" latt="0" rel="0.1"/>
          </eldata>
          <chordcreator chordrange="1" chord="0" chord-enabled="0"/>
          <arpeggiator arpskip="0" arpmiss="0" arp-enabled="0" arpgate="100" arpdir="0" arpcycle="0" arprange="1" arptime_numerator="4" arptime_denominator="4" arptime_syncmode="0" arptime="200" arp="0" arpmode="0"/>
          <midiport outputcontroller="0" inputchannel="0" outputchannel="1" fixedoutputvelocity="-1" readable="0" inputcontroller="0" basevelocity="63" fixedoutputnote="-1" fixedinputvelocity="-1" outputprogram="1" writable="0"/>
          <fxchain enabled="0" numofeffects="0"/>
        </instrumenttrack>
        <pattern type="1" pos="3456" muted="0" name="" steps="16">
          <note pan="0" pos="0" key="73" len="144" vol="78"/>
          <note pan="0" pos="0" key="0" len="144" vol="78"/>
          <note pan="0" pos="144" key="76" len="48" vol="78"/>
          <note pan="0" pos="192" key="75" len="144" vol="78"/>
          <note pan="0" pos="336" key="80" len="48" vol="78"/>
          <note pan="0" pos="384" key="80" len="144" vol="78"/>
          <note pan="0" pos="528" key="78" len="24" vol="78"/>
          <note pan="0" pos="552" key="76" len="24" vol="78"/>
          <note pan="0" pos="576" key="75" len="48" vol="78"/>
          <note pan="0" pos="624" key="76" len="48" vol="78"/>
          <note pan="0" pos="672" key="71" len="48" vol="78"/>
          <note pan="0" pos="720" key="68" len="48" vol="78"/>
          <note pan="0" pos="768" key="69" len="144" vol="78"/>
          <note pan="0" pos="912" key="76" len="48" vol="78"/>
          <note pan="0" pos="960" key="75" len="144" vol="78"/>
          <note pan="0" pos="1104" key="78" len="48" vol="78"/>
          <note pan="0" pos="1152" key="76" len="96" vol="197"/>
          <note pan="0" pos="1248" key="80" len="48" vol="197"/>
          <note pan="0" pos="1296" key="76" len="48" vol="197"/>
          <note pan="0" pos="1344" key="78" len="48" vol="197"/>
          <note pan="0" pos="1392" key="83" len="48" vol="197"/>
          <note pan="0" pos="1440" key="80" len="48" vol="197"/>
          <note pan="0" pos="1488" key="87" len="48" vol="197"/>
        </pattern>
        <pattern type="1" pos="6144" muted="0" name="" steps="16">
          <note pan="0" pos="384" key="69" len="120" vol="78"/>
          <note pan="0" pos="504" key="68" len="24" vol="78"/>
          <note pan="0" pos="528" key="69" len="24" vol="78"/>
          <note pan="0" pos="552" key="71" len="24" vol="78"/>
          <note pan="0" pos="576" key="73" len="72" vol="78"/>
          <note pan="0" pos="648" key="71" len="72" vol="78"/>
          <note pan="0" pos="720" key="69" len="48" vol="78"/>
          <note pan="0" pos="768" key="68" len="24" vol="78"/>
          <note pan="0" pos="792" key="69" len="24" vol="78"/>
          <note pan="0" pos="816" key="68" len="24" vol="78"/>
          <note pan="0" pos="840" key="64" len="48" vol="78"/>
          <note pan="0" pos="888" key="64" len="24" vol="78"/>
          <note pan="0" pos="912" key="66" len="24" vol="78"/>
          <note pan="0" pos="936" key="68" len="24" vol="78"/>
          <note pan="0" pos="960" key="66" len="96" vol="78"/>
        </pattern>
        <pattern type="1" pos="4992" muted="0" name="" steps="16">
          <note pan="0" pos="0" key="61" len="24" vol="78"/>
          <note pan="0" pos="24" key="63" len="24" vol="78"/>
          <note pan="0" pos="48" key="61" len="24" vol="78"/>
          <note pan="0" pos="72" key="68" len="48" vol="78"/>
          <note pan="0" pos="120" key="61" len="24" vol="78"/>
          <note pan="0" pos="144" key="64" len="24" vol="78"/>
          <note pan="0" pos="168" key="68" len="24" vol="78"/>
          <note pan="0" pos="192" key="71" len="24" vol="78"/>
          <note pan="0" pos="216" key="69" len="24" vol="78"/>
          <note pan="0" pos="240" key="68" len="24" vol="78"/>
          <note pan="0" pos="264" key="69" len="48" vol="78"/>
          <note pan="0" pos="312" key="68" len="24" vol="78"/>
          <note pan="0" pos="336" key="66" len="24" vol="78"/>
          <note pan="0" pos="360" key="68" len="24" vol="78"/>
        </pattern>
        <pattern type="1" pos="5760" muted="0" name="" steps="16">
          <note pan="0" pos="0" key="61" len="24" vol="78"/>
          <note pan="0" pos="0" key="0" len="48" vol="100"/>
          <note pan="0" pos="24" key="63" len="24" vol="78"/>
          <note pan="0" pos="48" key="61" len="24" vol="78"/>
          <note pan="0" pos="72" key="68" len="48" vol="78"/>
          <note pan="0" pos="120" key="61" len="24" vol="78"/>
          <note pan="0" pos="144" key="64" len="24" vol="78"/>
          <note pan="0" pos="168" key="68" len="24" vol="78"/>
          <note pan="0" pos="192" key="71" len="24" vol="78"/>
          <note pan="0" pos="216" key="73" len="24" vol="78"/>
          <note pan="0" pos="240" key="75" len="24" vol="78"/>
          <note pan="0" pos="264" key="73" len="48" vol="78"/>
          <note pan="0" pos="312" key="75" len="24" vol="78"/>
          <note pan="0" pos="336" key="76" len="24" vol="78"/>
          <note pan="0" pos="360" key="78" len="24" vol="78"/>
        </pattern>
        <pattern type="1" pos="12672" muted="0" name="" steps="16">
          <note pan="0" pos="0" key="61" len="24" vol="78"/>
          <note pan="0" pos="0" key="1" len="12" vol="197"/>
          <note pan="0" pos="24" key="63" len="24" vol="78"/>
          <note pan="0" pos="48" key="61" len="24" vol="78"/>
          <note pan="0" pos="60" key="0" len="12" vol="197"/>
          <note pan="0" pos="72" key="68" len="48" vol="78"/>
          <note pan="0" pos="120" key="61" len="24" vol="78"/>
          <note pan="0" pos="144" key="64" len="24" vol="78"/>
          <note pan="0" pos="168" key="68" len="24" vol="78"/>
          <note pan="0" pos="192" key="71" len="24" vol="78"/>
          <note pan="0" pos="216" key="69" len="24" vol="78"/>
          <note pan="0" pos="240" key="68" len="24" vol="78"/>
          <note pan="0" pos="264" key="69" len="48" vol="78"/>
          <note pan="0" pos="312" key="68" len="24" vol="78"/>
          <note pan="0" pos="336" key="66" len="24" vol="78"/>
          <note pan="0" pos="360" key="68" len="24" vol="78"/>
        </pattern>
        <pattern type="1" pos="13440" muted="0" name="" steps="16">
          <note pan="0" pos="0" key="61" len="24" vol="78"/>
          <note pan="0" pos="24" key="63" len="24" vol="78"/>
          <note pan="0" pos="48" key="61" len="24" vol="78"/>
          <note pan="0" pos="72" key="68" len="48" vol="78"/>
          <note pan="0" pos="120" key="61" len="24" vol="78"/>
          <note pan="0" pos="144" key="64" len="24" vol="78"/>
          <note pan="0" pos="168" key="68" len="24" vol="78"/>
          <note pan="0" pos="192" key="71" len="24" vol="78"/>
          <note pan="0" pos="216" key="73" len="24" vol="78"/>
          <note pan="0" pos="240" key="75" len="24" vol="78"/>
          <note pan="0" pos="264" key="73" len="48" vol="78"/>
          <note pan="0" pos="312" key="75" len="24" vol="78"/>
          <note pan="0" pos="336" key="76" len="24" vol="78"/>
          <note pan="0" pos="360" key="78" len="24" vol="78"/>
        </pattern>
        <pattern type="1" pos="13824" muted="0" name="" steps="16">
          <note pan="0" pos="384" key="69" len="120" vol="78"/>
          <note pan="0" pos="504" key="68" len="24" vol="78"/>
          <note pan="0" pos="528" key="69" len="24" vol="78"/>
          <note pan="0" pos="552" key="71" len="24" vol="78"/>
          <note pan="0" pos="576" key="73" len="72" vol="78"/>
          <note pan="0" pos="648" key="71" len="72" vol="78"/>
          <note pan="0" pos="720" key="69" len="48" vol="78"/>
          <note pan="0" pos="768" key="68" len="24" vol="78"/>
          <note pan="0" pos="792" key="69" len="24" vol="78"/>
          <note pan="0" pos="816" key="68" len="24" vol="78"/>
          <note pan="0" pos="840" key="64" len="48" vol="78"/>
          <note pan="0" pos="888" key="64" len="24" vol="78"/>
          <note pan="0" pos="912" key="66" len="24" vol="78"/>
          <note pan="0" pos="936" key="68" len="24" vol="78"/>
          <note pan="0" pos="960" key="66" len="96" vol="78"/>
        </pattern>
        <pattern type="1" pos="11904" muted="0" name="" steps="16">
          <note pan="0" pos="0" key="68" len="12" vol="78"/>
          <note pan="0" pos="0" key="0" len="24" vol="78"/>
          <note pan="0" pos="12" key="64" len="12" vol="78"/>
          <note pan="0" pos="24" key="61" len="12" vol="78"/>
          <note pan="0" pos="24" key="1" len="24" vol="78"/>
          <note pan="0" pos="36" key="56" len="12" vol="78"/>
          <note pan="0" pos="48" key="61" len="12" vol="78"/>
          <note pan="0" pos="60" key="64" len="12" vol="78"/>
          <note pan="0" pos="72" key="73" len="12" vol="78"/>
          <note pan="0" pos="72" key="0" len="24" vol="78"/>
          <note pan="0" pos="84" key="69" len="12" vol="78"/>
          <note pan="0" pos="96" key="68" len="12" vol="78"/>
          <note pan="0" pos="96" key="1" len="24" vol="78"/>
          <note pan="0" pos="108" key="64" len="12" vol="78"/>
          <note pan="0" pos="120" key="68" len="12" vol="78"/>
          <note pan="0" pos="132" key="73" len="12" vol="78"/>
          <note pan="0" pos="144" key="76" len="12" vol="78"/>
          <note pan="0" pos="144" key="0" len="24" vol="78"/>
          <note pan="0" pos="156" key="71" len="12" vol="78"/>
          <note pan="0" pos="168" key="68" len="12" vol="78"/>
          <note pan="0" pos="168" key="1" len="24" vol="78"/>
          <note pan="0" pos="180" key="64" len="12" vol="78"/>
          <note pan="0" pos="192" key="68" len="12" vol="78"/>
          <note pan="0" pos="204" key="71" len="12" vol="78"/>
          <note pan="0" pos="216" key="81" len="12" vol="78"/>
          <note pan="0" pos="216" key="0" len="24" vol="78"/>
          <note pan="0" pos="228" key="78" len="12" vol="78"/>
          <note pan="0" pos="240" key="74" len="12" vol="78"/>
          <note pan="0" pos="240" key="1" len="24" vol="78"/>
          <note pan="0" pos="252" key="69" len="12" vol="78"/>
          <note pan="0" pos="264" key="66" len="12" vol="78"/>
          <note pan="0" pos="276" key="69" len="12" vol="78"/>
          <note pan="0" pos="288" key="73" len="12" vol="78"/>
          <note pan="0" pos="288" key="0" len="24" vol="78"/>
          <note pan="0" pos="300" key="69" len="12" vol="78"/>
          <note pan="0" pos="312" key="66" len="12" vol="78"/>
          <note pan="0" pos="312" key="1" len="24" vol="78"/>
          <note pan="0" pos="324" key="61" len="12" vol="78"/>
          <note pan="0" pos="336" key="68" len="12" vol="78"/>
          <note pan="0" pos="336" key="0" len="24" vol="78"/>
          <note pan="0" pos="348" key="64" len="12" vol="78"/>
          <note pan="0" pos="360" key="61" len="12" vol="78"/>
          <note pan="0" pos="360" key="1" len="24" vol="78"/>
          <note pan="0" pos="372" key="56" len="12" vol="78"/>
          <note pan="0" pos="384" key="69" len="12" vol="78"/>
          <note pan="0" pos="384" key="0" len="24" vol="78"/>
          <note pan="0" pos="396" key="66" len="12" vol="78"/>
          <note pan="0" pos="408" key="57" len="12" vol="78"/>
          <note pan="0" pos="408" key="1" len="24" vol="78"/>
          <note pan="0" pos="420" key="54" len="12" vol="78"/>
          <note pan="0" pos="432" key="57" len="12" vol="78"/>
          <note pan="0" pos="444" key="62" len="12" vol="78"/>
          <note pan="0" pos="456" key="74" len="12" vol="78"/>
          <note pan="0" pos="456" key="0" len="24" vol="78"/>
          <note pan="0" pos="468" key="69" len="12" vol="78"/>
          <note pan="0" pos="480" key="66" len="12" vol="78"/>
          <note pan="0" pos="480" key="1" len="24" vol="78"/>
          <note pan="0" pos="492" key="61" len="12" vol="78"/>
          <note pan="0" pos="504" key="57" len="12" vol="78"/>
          <note pan="0" pos="516" key="54" len="12" vol="78"/>
          <note pan="0" pos="528" key="78" len="12" vol="78"/>
          <note pan="0" pos="528" key="0" len="24" vol="78"/>
          <note pan="0" pos="540" key="74" len="12" vol="78"/>
          <note pan="0" pos="552" key="69" len="12" vol="78"/>
          <note pan="0" pos="552" key="1" len="24" vol="78"/>
          <note pan="0" pos="564" key="66" len="12" vol="78"/>
          <note pan="0" pos="576" key="69" len="12" vol="78"/>
          <note pan="0" pos="588" key="74" len="12" vol="78"/>
          <note pan="0" pos="600" key="81" len="12" vol="78"/>
          <note pan="0" pos="600" key="0" len="24" vol="78"/>
          <note pan="0" pos="612" key="78" len="12" vol="78"/>
          <note pan="0" pos="624" key="73" len="12" vol="78"/>
          <note pan="0" pos="624" key="1" len="24" vol="78"/>
          <note pan="0" pos="636" key="69" len="12" vol="78"/>
          <note pan="0" pos="648" key="66" len="12" vol="78"/>
          <note pan="0" pos="660" key="61" len="12" vol="78"/>
          <note pan="0" pos="672" key="74" len="12" vol="78"/>
          <note pan="0" pos="672" key="0" len="24" vol="78"/>
          <note pan="0" pos="684" key="71" len="12" vol="78"/>
          <note pan="0" pos="696" key="66" len="12" vol="78"/>
          <note pan="0" pos="696" key="1" len="24" vol="78"/>
          <note pan="0" pos="708" key="61" len="12" vol="78"/>
          <note pan="0" pos="720" key="69" len="12" vol="78"/>
          <note pan="0" pos="720" key="0" len="24" vol="78"/>
          <note pan="0" pos="732" key="66" len="12" vol="78"/>
          <note pan="0" pos="744" key="61" len="12" vol="78"/>
          <note pan="0" pos="744" key="1" len="24" vol="78"/>
          <note pan="0" pos="756" key="57" len="12" vol="78"/>
        </pattern>
        <pattern type="1" pos="28800" muted="0" name="Lead Guitar S" steps="16">
          <note pan="0" pos="0" key="56" len="24" vol="200"/>
          <note pan="0" pos="0" key="1" len="24" vol="200"/>
          <note pan="0" pos="24" key="61" len="24" vol="200"/>
          <note pan="0" pos="36" key="0" len="24" vol="200"/>
          <note pan="0" pos="48" key="63" len="24" vol="200"/>
          <note pan="0" pos="60" key="1" len="24" vol="200"/>
          <note pan="0" pos="72" key="56" len="24" vol="200"/>
          <note pan="0" pos="84" key="0" len="24" vol="200"/>
          <note pan="0" pos="96" key="64" len="24" vol="200"/>
          <note pan="0" pos="108" key="1" len="24" vol="200"/>
          <note pan="0" pos="120" key="63" len="24" vol="200"/>
          <note pan="0" pos="144" key="59" len="24" vol="200"/>
          <note pan="0" pos="168" key="61" len="24" vol="200"/>
          <note pan="0" pos="180" key="0" len="48" vol="200"/>
          <note pan="0" pos="192" key="63" len="48" vol="200"/>
          <note pan="0" pos="240" key="64" len="12" vol="200"/>
          <note pan="0" pos="252" key="63" len="12" vol="200"/>
          <note pan="0" pos="264" key="61" len="48" vol="200"/>
          <note pan="0" pos="300" key="1" len="12" vol="200"/>
          <note pan="0" pos="312" key="56" len="12" vol="200"/>
          <note pan="0" pos="324" key="59" len="12" vol="200"/>
          <note pan="0" pos="336" key="61" len="12" vol="200"/>
          <note pan="0" pos="348" key="59" len="12" vol="200"/>
          <note pan="0" pos="360" key="54" len="12" vol="200"/>
          <note pan="0" pos="372" key="56" len="12" vol="200"/>
          <note pan="0" pos="384" key="54" len="12" vol="131"/>
          <note pan="0" pos="384" key="2" len="12" vol="131"/>
          <note pan="0" pos="396" key="56" len="12" vol="131"/>
          <note pan="0" pos="408" key="54" len="12" vol="131"/>
          <note pan="0" pos="420" key="52" len="12" vol="131"/>
          <note pan="0" pos="432" key="54" len="12" vol="131"/>
          <note pan="0" pos="444" key="52" len="12" vol="131"/>
          <note pan="0" pos="456" key="49" len="12" vol="131"/>
          <note pan="0" pos="468" key="47" len="12" vol="131"/>
          <note pan="0" pos="480" key="49" len="12" vol="131"/>
          <note pan="0" pos="492" key="52" len="12" vol="131"/>
          <note pan="0" pos="504" key="54" len="12" vol="131"/>
          <note pan="0" pos="516" key="52" len="12" vol="131"/>
          <note pan="0" pos="528" key="54" len="12" vol="131"/>
          <note pan="0" pos="540" key="56" len="12" vol="131"/>
          <note pan="0" pos="552" key="59" len="12" vol="131"/>
          <note pan="0" pos="564" key="61" len="12" vol="131"/>
          <note pan="0" pos="576" key="63" len="12" vol="131"/>
          <note pan="0" pos="588" key="61" len="12" vol="131"/>
          <note pan="0" pos="600" key="63" len="12" vol="131"/>
          <note pan="0" pos="612" key="64" len="12" vol="131"/>
          <note pan="0" pos="612" key="1" len="12" vol="131"/>
          <note pan="0" pos="624" key="66" len="12" vol="131"/>
          <note pan="0" pos="636" key="64" len="12" vol="131"/>
          <note pan="0" pos="648" key="66" len="12" vol="131"/>
          <note pan="0" pos="660" key="68" len="12" vol="131"/>
          <note pan="0" pos="672" key="69" len="12" vol="131"/>
          <note pan="0" pos="684" key="68" len="12" vol="131"/>
          <note pan="0" pos="696" key="69" len="12" vol="131"/>
          <note pan="0" pos="708" key="71" len="12" vol="131"/>
          <note pan="0" pos="708" key="0" len="48" vol="131"/>
          <note pan="0" pos="720" key="73" len="48" vol="131"/>
        </pattern>
        <pattern type="1" pos="29568" muted="0" name="Lead Guitar S" steps="16">
          <note pan="0" pos="0" key="80" len="12" vol="200"/>
          <note pan="0" pos="12" key="78" len="12" vol="200"/>
          <note pan="0" pos="24" key="76" len="12" vol="200"/>
          <note pan="0" pos="36" key="73" len="12" vol="200"/>
          <note pan="0" pos="48" key="71" len="12" vol="200"/>
          <note pan="0" pos="60" key="73" len="12" vol="200"/>
          <note pan="0" pos="72" key="78" len="12" vol="200"/>
          <note pan="0" pos="84" key="76" len="12" vol="200"/>
          <note pan="0" pos="96" key="73" len="12" vol="200"/>
          <note pan="0" pos="108" key="76" len="12" vol="200"/>
          <note pan="0" pos="120" key="80" len="12" vol="200"/>
          <note pan="0" pos="132" key="78" len="12" vol="200"/>
          <note pan="0" pos="144" key="76" len="12" vol="200"/>
          <note pan="0" pos="156" key="73" len="12" vol="200"/>
          <note pan="0" pos="168" key="76" len="12" vol="200"/>
          <note pan="0" pos="180" key="78" len="12" vol="200"/>
        </pattern>
        <pattern type="1" pos="29760" muted="0" name="" steps="16">
          <note pan="0" pos="0" key="80" len="12" vol="200"/>
          <note pan="0" pos="12" key="78" len="12" vol="200"/>
          <note pan="0" pos="24" key="76" len="12" vol="200"/>
          <note pan="0" pos="36" key="73" len="12" vol="200"/>
          <note pan="0" pos="48" key="71" len="12" vol="200"/>
          <note pan="0" pos="60" key="73" len="12" vol="200"/>
          <note pan="0" pos="72" key="78" len="12" vol="200"/>
          <note pan="0" pos="84" key="76" len="12" vol="200"/>
          <note pan="0" pos="96" key="73" len="12" vol="200"/>
          <note pan="0" pos="108" key="76" len="12" vol="200"/>
          <note pan="0" pos="120" key="83" len="12" vol="200"/>
          <note pan="0" pos="132" key="80" len="12" vol="200"/>
          <note pan="0" pos="144" key="78" len="12" vol="200"/>
          <note pan="0" pos="156" key="80" len="12" vol="200"/>
          <note pan="0" pos="168" key="78" len="12" vol="200"/>
          <note pan="0" pos="180" key="76" len="12" vol="200"/>
        </pattern>
        <pattern type="1" pos="29952" muted="0" name="Lead Guitar S" steps="16">
          <note pan="0" pos="0" key="85" len="12" vol="197"/>
          <note pan="0" pos="0" key="0" len="48" vol="197"/>
          <note pan="0" pos="12" key="83" len="12" vol="197"/>
          <note pan="0" pos="24" key="80" len="12" vol="197"/>
          <note pan="0" pos="36" key="78" len="12" vol="197"/>
          <note pan="0" pos="48" key="83" len="12" vol="197"/>
          <note pan="0" pos="60" key="80" len="12" vol="197"/>
          <note pan="0" pos="72" key="78" len="12" vol="197"/>
          <note pan="0" pos="84" key="76" len="12" vol="197"/>
          <note pan="0" pos="96" key="80" len="12" vol="197"/>
          <note pan="0" pos="108" key="78" len="12" vol="197"/>
          <note pan="0" pos="120" key="76" len="12" vol="197"/>
          <note pan="0" pos="132" key="73" len="12" vol="197"/>
          <note pan="0" pos="144" key="76" len="12" vol="197"/>
          <note pan="0" pos="156" key="78" len="12" vol="197"/>
          <note pan="0" pos="168" key="80" len="12" vol="197"/>
          <note pan="0" pos="180" key="83" len="12" vol="197"/>
          <note pan="0" pos="192" key="80" len="12" vol="197"/>
          <note pan="0" pos="204" key="78" len="12" vol="197"/>
          <note pan="0" pos="216" key="76" len="12" vol="197"/>
          <note pan="0" pos="228" key="73" len="12" vol="197"/>
          <note pan="0" pos="240" key="76" len="12" vol="197"/>
          <note pan="0" pos="240" key="1" len="48" vol="197"/>
          <note pan="0" pos="252" key="73" len="12" vol="197"/>
          <note pan="0" pos="264" key="71" len="12" vol="197"/>
          <note pan="0" pos="276" key="73" len="12" vol="197"/>
          <note pan="0" pos="288" key="71" len="12" vol="197"/>
          <note pan="0" pos="300" key="68" len="12" vol="197"/>
          <note pan="0" pos="312" key="66" len="12" vol="197"/>
          <note pan="0" pos="324" key="68" len="12" vol="197"/>
          <note pan="0" pos="336" key="61" len="48" vol="197"/>
          <note pan="0" pos="336" key="0" len="48" vol="197"/>
        </pattern>
        <pattern type="0" pos="31488" muted="0" name="Lead Guitar S" steps="16"/>
        <pattern type="1" pos="36480" muted="0" name="Lead Guitar S" steps="16">
          <note pan="0" pos="0" key="61" len="12" vol="200"/>
          <note pan="0" pos="0" key="1" len="12" vol="200"/>
          <note pan="0" pos="12" key="68" len="12" vol="200"/>
          <note pan="0" pos="24" key="66" len="12" vol="200"/>
          <note pan="0" pos="36" key="68" len="12" vol="200"/>
          <note pan="0" pos="48" key="61" len="12" vol="200"/>
          <note pan="0" pos="60" key="68" len="12" vol="200"/>
          <note pan="0" pos="72" key="66" len="12" vol="200"/>
          <note pan="0" pos="84" key="68" len="12" vol="200"/>
          <note pan="0" pos="96" key="71" len="12" vol="200"/>
          <note pan="0" pos="96" key="0" len="12" vol="200"/>
          <note pan="0" pos="108" key="68" len="12" vol="200"/>
          <note pan="0" pos="108" key="2" len="12" vol="200"/>
          <note pan="0" pos="120" key="66" len="12" vol="200"/>
          <note pan="0" pos="120" key="1" len="12" vol="200"/>
          <note pan="0" pos="132" key="64" len="12" vol="200"/>
          <note pan="0" pos="144" key="66" len="12" vol="200"/>
          <note pan="0" pos="156" key="64" len="12" vol="200"/>
          <note pan="0" pos="168" key="66" len="12" vol="200"/>
          <note pan="0" pos="180" key="68" len="12" vol="200"/>
          <note pan="0" pos="192" key="71" len="12" vol="200"/>
          <note pan="0" pos="204" key="68" len="12" vol="200"/>
          <note pan="0" pos="216" key="66" len="12" vol="200"/>
          <note pan="0" pos="228" key="64" len="12" vol="200"/>
          <note pan="0" pos="240" key="66" len="12" vol="200"/>
          <note pan="0" pos="252" key="68" len="12" vol="200"/>
          <note pan="0" pos="264" key="71" len="6" vol="200"/>
          <note pan="0" pos="264" key="0" len="12" vol="200"/>
          <note pan="0" pos="270" key="73" len="42" vol="200"/>
          <note pan="0" pos="276" key="2" len="12" vol="200"/>
          <note pan="0" pos="312" key="73" len="12" vol="200"/>
          <note pan="0" pos="312" key="1" len="12" vol="200"/>
          <note pan="0" pos="324" key="75" len="12" vol="200"/>
          <note pan="0" pos="336" key="76" len="12" vol="200"/>
          <note pan="0" pos="336" key="0" len="12" vol="200"/>
          <note pan="0" pos="348" key="75" len="12" vol="200"/>
          <note pan="0" pos="360" key="73" len="12" vol="200"/>
          <note pan="0" pos="360" key="1" len="12" vol="200"/>
          <note pan="0" pos="372" key="71" len="12" vol="200"/>
          <note pan="0" pos="384" key="76" len="12" vol="197"/>
          <note pan="0" pos="384" key="0" len="12" vol="197"/>
          <note pan="0" pos="396" key="64" len="12" vol="197"/>
          <note pan="0" pos="396" key="2" len="12" vol="197"/>
          <note pan="0" pos="408" key="64" len="12" vol="197"/>
          <note pan="0" pos="408" key="0" len="12" vol="197"/>
          <note pan="0" pos="420" key="75" len="12" vol="197"/>
          <note pan="0" pos="420" key="0" len="12" vol="197"/>
          <note pan="0" pos="432" key="64" len="12" vol="197"/>
          <note pan="0" pos="432" key="2" len="12" vol="197"/>
          <note pan="0" pos="444" key="64" len="12" vol="197"/>
          <note pan="0" pos="444" key="0" len="12" vol="197"/>
          <note pan="0" pos="456" key="76" len="12" vol="197"/>
          <note pan="0" pos="456" key="0" len="12" vol="197"/>
          <note pan="0" pos="468" key="64" len="12" vol="197"/>
          <note pan="0" pos="468" key="2" len="12" vol="197"/>
          <note pan="0" pos="480" key="64" len="12" vol="197"/>
          <note pan="0" pos="480" key="0" len="12" vol="197"/>
          <note pan="0" pos="492" key="75" len="12" vol="197"/>
          <note pan="0" pos="492" key="0" len="12" vol="197"/>
          <note pan="0" pos="504" key="64" len="12" vol="197"/>
          <note pan="0" pos="504" key="2" len="12" vol="197"/>
          <note pan="0" pos="516" key="64" len="12" vol="197"/>
          <note pan="0" pos="516" key="0" len="12" vol="197"/>
          <note pan="0" pos="528" key="76" len="12" vol="197"/>
          <note pan="0" pos="528" key="0" len="12" vol="197"/>
          <note pan="0" pos="540" key="64" len="12" vol="197"/>
          <note pan="0" pos="540" key="2" len="12" vol="197"/>
          <note pan="0" pos="552" key="75" len="12" vol="197"/>
          <note pan="0" pos="552" key="0" len="12" vol="197"/>
          <note pan="0" pos="564" key="64" len="12" vol="197"/>
          <note pan="0" pos="564" key="2" len="12" vol="197"/>
        </pattern>
        <pattern type="1" pos="28032" muted="0" name="Lead Guitar S" steps="16">
          <note pan="0" pos="0" key="61" len="48" vol="200"/>
          <note pan="0" pos="0" key="0" len="36" vol="200"/>
          <note pan="0" pos="36" key="1" len="36" vol="200"/>
          <note pan="0" pos="48" key="57" len="48" vol="200"/>
          <note pan="0" pos="96" key="59" len="48" vol="200"/>
          <note pan="0" pos="144" key="61" len="48" vol="200"/>
          <note pan="0" pos="180" key="0" len="36" vol="200"/>
          <note pan="0" pos="192" key="63" len="48" vol="200"/>
          <note pan="0" pos="240" key="64" len="48" vol="200"/>
          <note pan="0" pos="288" key="63" len="48" vol="200"/>
          <note pan="0" pos="336" key="59" len="48" vol="200"/>
          <note pan="0" pos="384" key="61" len="48" vol="200"/>
          <note pan="0" pos="432" key="59" len="48" vol="200"/>
          <note pan="0" pos="480" key="61" len="48" vol="200"/>
          <note pan="0" pos="528" key="63" len="48" vol="200"/>
          <note pan="0" pos="576" key="68" len="192" vol="200"/>
        </pattern>
        <pattern type="1" pos="38016" muted="0" name="Lead Guitar S" steps="16">
          <note pan="0" pos="0" key="69" len="12" vol="100"/>
          <note pan="0" pos="0" key="1" len="12" vol="100"/>
          <note pan="0" pos="12" key="74" len="12" vol="100"/>
          <note pan="0" pos="24" key="78" len="12" vol="100"/>
          <note pan="0" pos="36" key="81" len="12" vol="100"/>
          <note pan="0" pos="36" key="0" len="12" vol="100"/>
          <note pan="0" pos="48" key="86" len="12" vol="100"/>
          <note pan="0" pos="60" key="81" len="12" vol="100"/>
          <note pan="0" pos="72" key="78" len="12" vol="100"/>
          <note pan="0" pos="72" key="1" len="12" vol="100"/>
          <note pan="0" pos="84" key="74" len="12" vol="100"/>
          <note pan="0" pos="96" key="81" len="12" vol="100"/>
          <note pan="0" pos="96" key="0" len="12" vol="100"/>
          <note pan="0" pos="108" key="80" len="12" vol="100"/>
          <note pan="0" pos="120" key="78" len="12" vol="100"/>
          <note pan="0" pos="120" key="1" len="12" vol="100"/>
          <note pan="0" pos="132" key="74" len="12" vol="100"/>
          <note pan="0" pos="144" key="83" len="12" vol="100"/>
          <note pan="0" pos="144" key="0" len="12" vol="100"/>
          <note pan="0" pos="156" key="81" len="12" vol="100"/>
          <note pan="0" pos="168" key="80" len="12" vol="100"/>
          <note pan="0" pos="168" key="1" len="12" vol="100"/>
          <note pan="0" pos="180" key="78" len="12" vol="100"/>
          <note pan="0" pos="192" key="83" len="12" vol="121"/>
          <note pan="0" pos="204" key="85" len="12" vol="121"/>
          <note pan="0" pos="216" key="83" len="12" vol="121"/>
          <note pan="0" pos="228" key="81" len="12" vol="121"/>
          <note pan="0" pos="240" key="80" len="12" vol="121"/>
          <note pan="0" pos="252" key="81" len="12" vol="121"/>
          <note pan="0" pos="264" key="80" len="12" vol="121"/>
          <note pan="0" pos="276" key="78" len="12" vol="121"/>
          <note pan="0" pos="288" key="83" len="12" vol="121"/>
          <note pan="0" pos="288" key="0" len="24" vol="121"/>
          <note pan="0" pos="300" key="85" len="12" vol="121"/>
          <note pan="0" pos="312" key="88" len="48" vol="121"/>
          <note pan="0" pos="360" key="85" len="24" vol="121"/>
          <note pan="0" pos="384" key="81" len="24" vol="100"/>
          <note pan="0" pos="408" key="80" len="24" vol="100"/>
          <note pan="0" pos="432" key="76" len="24" vol="100"/>
          <note pan="0" pos="456" key="81" len="24" vol="100"/>
          <note pan="0" pos="480" key="80" len="24" vol="100"/>
          <note pan="0" pos="504" key="78" len="24" vol="100"/>
          <note pan="0" pos="528" key="76" len="24" vol="100"/>
          <note pan="0" pos="552" key="80" len="24" vol="100"/>
          <note pan="0" pos="576" key="78" len="12" vol="100"/>
          <note pan="0" pos="576" key="0" len="12" vol="100"/>
          <note pan="0" pos="588" key="80" len="12" vol="100"/>
          <note pan="0" pos="588" key="2" len="12" vol="100"/>
          <note pan="0" pos="600" key="78" len="48" vol="100"/>
          <note pan="0" pos="636" key="1" len="12" vol="100"/>
          <note pan="0" pos="648" key="75" len="12" vol="100"/>
          <note pan="0" pos="660" key="76" len="12" vol="100"/>
          <note pan="0" pos="672" key="78" len="12" vol="100"/>
          <note pan="0" pos="672" key="0" len="12" vol="100"/>
          <note pan="0" pos="684" key="76" len="12" vol="100"/>
          <note pan="0" pos="696" key="75" len="12" vol="100"/>
          <note pan="0" pos="708" key="76" len="12" vol="100"/>
          <note pan="0" pos="708" key="1" len="12" vol="100"/>
          <note pan="0" pos="720" key="75" len="12" vol="100"/>
          <note pan="0" pos="732" key="73" len="12" vol="100"/>
          <note pan="0" pos="744" key="71" len="12" vol="100"/>
          <note pan="0" pos="756" key="69" len="12" vol="100"/>
        </pattern>
        <pattern type="1" pos="39552" muted="0" name="" steps="16">
          <note pan="0" pos="0" key="73" len="12" vol="78"/>
          <note pan="0" pos="0" key="0" len="48" vol="78"/>
          <note pan="0" pos="12" key="68" len="12" vol="78"/>
          <note pan="0" pos="24" key="64" len="12" vol="78"/>
          <note pan="0" pos="36" key="61" len="12" vol="78"/>
          <note pan="0" pos="48" key="56" len="12" vol="78"/>
          <note pan="0" pos="48" key="1" len="12" vol="78"/>
          <note pan="0" pos="60" key="52" len="12" vol="78"/>
          <note pan="0" pos="72" key="56" len="12" vol="78"/>
          <note pan="0" pos="84" key="61" len="12" vol="78"/>
          <note pan="0" pos="96" key="64" len="12" vol="78"/>
          <note pan="0" pos="108" key="68" len="12" vol="78"/>
          <note pan="0" pos="120" key="76" len="12" vol="78"/>
          <note pan="0" pos="120" key="0" len="12" vol="78"/>
          <note pan="0" pos="132" key="73" len="12" vol="78"/>
          <note pan="0" pos="144" key="68" len="12" vol="78"/>
          <note pan="0" pos="156" key="64" len="12" vol="78"/>
          <note pan="0" pos="156" key="1" len="12" vol="78"/>
          <note pan="0" pos="168" key="68" len="12" vol="78"/>
          <note pan="0" pos="180" key="73" len="12" vol="78"/>
          <note pan="0" pos="192" key="75" len="12" vol="78"/>
          <note pan="0" pos="192" key="0" len="12" vol="78"/>
          <note pan="0" pos="204" key="71" len="12" vol="78"/>
          <note pan="0" pos="216" key="68" len="12" vol="78"/>
          <note pan="0" pos="228" key="63" len="12" vol="78"/>
          <note pan="0" pos="228" key="1" len="12" vol="78"/>
          <note pan="0" pos="240" key="59" len="12" vol="78"/>
          <note pan="0" pos="252" key="56" len="12" vol="78"/>
          <note pan="0" pos="264" key="59" len="12" vol="78"/>
          <note pan="0" pos="276" key="63" len="12" vol="78"/>
          <note pan="0" pos="288" key="68" len="12" vol="78"/>
          <note pan="0" pos="300" key="71" len="12" vol="78"/>
          <note pan="0" pos="312" key="80" len="12" vol="78"/>
          <note pan="0" pos="312" key="0" len="12" vol="78"/>
          <note pan="0" pos="324" key="75" len="12" vol="78"/>
          <note pan="0" pos="336" key="71" len="12" vol="78"/>
          <note pan="0" pos="348" key="68" len="12" vol="78"/>
          <note pan="0" pos="348" key="1" len="12" vol="78"/>
          <note pan="0" pos="360" key="71" len="12" vol="78"/>
          <note pan="0" pos="372" key="75" len="12" vol="78"/>
          <note pan="0" pos="384" key="80" len="24" vol="78"/>
          <note pan="0" pos="384" key="0" len="12" vol="78"/>
          <note pan="0" pos="408" key="76" len="24" vol="78"/>
          <note pan="0" pos="432" key="69" len="24" vol="78"/>
          <note pan="0" pos="456" key="76" len="24" vol="78"/>
          <note pan="0" pos="480" key="75" len="24" vol="78"/>
          <note pan="0" pos="504" key="69" len="24" vol="78"/>
          <note pan="0" pos="528" key="78" len="24" vol="78"/>
          <note pan="0" pos="552" key="76" len="24" vol="78"/>
          <note pan="0" pos="576" key="75" len="48" vol="78"/>
          <note pan="0" pos="624" key="76" len="48" vol="78"/>
          <note pan="0" pos="672" key="76" len="12" vol="78"/>
          <note pan="0" pos="684" key="78" len="12" vol="78"/>
          <note pan="0" pos="696" key="76" len="12" vol="78"/>
          <note pan="0" pos="708" key="75" len="12" vol="78"/>
          <note pan="0" pos="720" key="76" len="12" vol="78"/>
          <note pan="0" pos="732" key="75" len="12" vol="78"/>
          <note pan="0" pos="744" key="73" len="12" vol="78"/>
          <note pan="0" pos="756" key="71" len="12" vol="78"/>
          <note pan="0" pos="768" key="1" len="12" vol="78"/>
          <note pan="0" pos="960" key="0" len="12" vol="78"/>
        </pattern>
        <pattern type="1" pos="46272" muted="0" name="" steps="16">
          <note pan="0" pos="0" key="0" len="72" vol="78"/>
          <note pan="0" pos="960" key="63" len="120" vol="78"/>
          <note pan="0" pos="960" key="0" len="24" vol="78"/>
          <note pan="0" pos="1056" key="1" len="24" vol="78"/>
          <note pan="0" pos="1080" key="58" len="24" vol="78"/>
          <note pan="0" pos="1092" key="0" len="24" vol="78"/>
          <note pan="0" pos="1104" key="66" len="24" vol="78"/>
          <note pan="0" pos="1128" key="58" len="24" vol="78"/>
          <note pan="0" pos="1128" key="1" len="24" vol="78"/>
          <note pan="0" pos="1152" key="65" len="120" vol="78"/>
          <note pan="0" pos="1152" key="0" len="24" vol="78"/>
          <note pan="0" pos="1260" key="1" len="12" vol="78"/>
          <note pan="0" pos="1272" key="65" len="12" vol="78"/>
          <note pan="0" pos="1284" key="66" len="12" vol="78"/>
          <note pan="0" pos="1296" key="70" len="12" vol="78"/>
          <note pan="0" pos="1296" key="0" len="12" vol="78"/>
          <note pan="0" pos="1308" key="66" len="12" vol="78"/>
          <note pan="0" pos="1320" key="65" len="12" vol="78"/>
          <note pan="0" pos="1320" key="1" len="12" vol="78"/>
          <note pan="0" pos="1332" key="66" len="12" vol="78"/>
          <note pan="0" pos="1344" key="70" len="144" vol="78"/>
          <note pan="0" pos="1344" key="0" len="12" vol="78"/>
          <note pan="0" pos="1488" key="68" len="24" vol="78"/>
          <note pan="0" pos="1512" key="66" len="24" vol="78"/>
          <note pan="0" pos="1536" key="65" len="48" vol="78"/>
          <note pan="0" pos="1584" key="66" len="48" vol="78"/>
          <note pan="0" pos="1620" key="0" len="12" vol="78"/>
          <note pan="0" pos="1632" key="61" len="12" vol="78"/>
          <note pan="0" pos="1632" key="1" len="12" vol="78"/>
          <note pan="0" pos="1644" key="61" len="12" vol="78"/>
          <note pan="0" pos="1656" key="61" len="12" vol="78"/>
          <note pan="0" pos="1668" key="61" len="12" vol="78"/>
          <note pan="0" pos="1680" key="58" len="12" vol="78"/>
          <note pan="0" pos="1680" key="0" len="12" vol="78"/>
          <note pan="0" pos="1692" key="54" len="12" vol="78"/>
          <note pan="0" pos="1692" key="1" len="12" vol="78"/>
          <note pan="0" pos="1704" key="56" len="12" vol="78"/>
          <note pan="0" pos="1716" key="58" len="12" vol="78"/>
          <note pan="0" pos="1728" key="59" len="96" vol="78"/>
          <note pan="0" pos="1728" key="0" len="12" vol="78"/>
          <note pan="0" pos="1824" key="63" len="48" vol="78"/>
          <note pan="0" pos="1872" key="66" len="48" vol="78"/>
          <note pan="0" pos="1920" key="66" len="96" vol="78"/>
          <note pan="0" pos="2016" key="65" len="12" vol="78"/>
          <note pan="0" pos="2016" key="0" len="12" vol="78"/>
          <note pan="0" pos="2028" key="58" len="12" vol="78"/>
          <note pan="0" pos="2028" key="2" len="12" vol="78"/>
          <note pan="0" pos="2040" key="58" len="12" vol="78"/>
          <note pan="0" pos="2040" key="1" len="12" vol="78"/>
          <note pan="0" pos="2052" key="58" len="12" vol="78"/>
          <note pan="0" pos="2064" key="66" len="12" vol="78"/>
          <note pan="0" pos="2064" key="0" len="12" vol="78"/>
          <note pan="0" pos="2076" key="63" len="12" vol="78"/>
          <note pan="0" pos="2076" key="2" len="12" vol="78"/>
          <note pan="0" pos="2088" key="65" len="12" vol="78"/>
          <note pan="0" pos="2088" key="1" len="12" vol="78"/>
          <note pan="0" pos="2100" key="66" len="12" vol="78"/>
          <note pan="0" pos="2112" key="73" len="48" vol="78"/>
          <note pan="0" pos="2112" key="0" len="12" vol="78"/>
          <note pan="0" pos="2160" key="71" len="12" vol="78"/>
          <note pan="0" pos="2172" key="73" len="12" vol="78"/>
          <note pan="0" pos="2184" key="71" len="48" vol="78"/>
          <note pan="0" pos="2232" key="70" len="12" vol="78"/>
          <note pan="0" pos="2232" key="0" len="12" vol="78"/>
          <note pan="0" pos="2244" key="71" len="12" vol="78"/>
          <note pan="0" pos="2256" key="70" len="12" vol="78"/>
          <note pan="0" pos="2256" key="1" len="12" vol="78"/>
          <note pan="0" pos="2268" key="68" len="12" vol="78"/>
          <note pan="0" pos="2280" key="66" len="12" vol="78"/>
          <note pan="0" pos="2292" key="70" len="12" vol="78"/>
          <note pan="0" pos="2304" key="68" len="72" vol="78"/>
          <note pan="0" pos="2304" key="0" len="12" vol="78"/>
          <note pan="0" pos="2376" key="66" len="12" vol="78"/>
          <note pan="0" pos="2388" key="68" len="12" vol="78"/>
          <note pan="0" pos="2400" key="70" len="12" vol="78"/>
          <note pan="0" pos="2412" key="71" len="12" vol="78"/>
          <note pan="0" pos="2424" key="70" len="12" vol="78"/>
          <note pan="0" pos="2436" key="68" len="12" vol="78"/>
          <note pan="0" pos="2448" key="70" len="12" vol="78"/>
          <note pan="0" pos="2460" key="68" len="12" vol="78"/>
          <note pan="0" pos="2472" key="66" len="12" vol="78"/>
          <note pan="0" pos="2484" key="65" len="12" vol="78"/>
          <note pan="0" pos="2496" key="66" len="24" vol="78"/>
          <note pan="0" pos="2496" key="0" len="12" vol="78"/>
          <note pan="0" pos="2508" key="1" len="12" vol="78"/>
          <note pan="0" pos="2520" key="58" len="12" vol="78"/>
          <note pan="0" pos="2532" key="58" len="12" vol="78"/>
          <note pan="0" pos="2544" key="58" len="12" vol="78"/>
          <note pan="0" pos="2556" key="58" len="12" vol="78"/>
          <note pan="0" pos="2568" key="65" len="24" vol="78"/>
          <note pan="0" pos="2568" key="0" len="12" vol="78"/>
          <note pan="0" pos="2580" key="1" len="12" vol="78"/>
          <note pan="0" pos="2592" key="58" len="12" vol="78"/>
          <note pan="0" pos="2604" key="58" len="12" vol="78"/>
          <note pan="0" pos="2616" key="58" len="12" vol="78"/>
          <note pan="0" pos="2628" key="58" len="12" vol="78"/>
          <note pan="0" pos="2640" key="66" len="24" vol="78"/>
          <note pan="0" pos="2640" key="0" len="12" vol="78"/>
          <note pan="0" pos="2652" key="1" len="12" vol="78"/>
          <note pan="0" pos="2664" key="58" len="12" vol="78"/>
          <note pan="0" pos="2676" key="58" len="12" vol="78"/>
          <note pan="0" pos="2688" key="70" len="144" vol="78"/>
          <note pan="0" pos="2688" key="0" len="12" vol="78"/>
          <note pan="0" pos="2832" key="75" len="12" vol="78"/>
          <note pan="0" pos="2844" key="77" len="36" vol="78"/>
          <note pan="0" pos="2844" key="1" len="12" vol="78"/>
          <note pan="0" pos="2880" key="75" len="240" vol="78"/>
          <note pan="0" pos="2880" key="0" len="12" vol="78"/>
          <note pan="0" pos="3120" key="78" len="48" vol="78"/>
          <note pan="0" pos="3168" key="80" len="48" vol="78"/>
          <note pan="0" pos="3216" key="82" len="48" vol="78"/>
          <note pan="0" pos="3264" key="83" len="72" vol="78"/>
          <note pan="0" pos="3336" key="82" len="72" vol="78"/>
          <note pan="0" pos="3408" key="80" len="48" vol="78"/>
          <note pan="0" pos="3456" key="78" len="48" vol="78"/>
          <note pan="0" pos="3504" key="75" len="48" vol="78"/>
          <note pan="0" pos="3552" key="78" len="48" vol="78"/>
          <note pan="0" pos="3600" key="82" len="48" vol="78"/>
          <note pan="0" pos="3648" key="80" len="192" vol="78"/>
          <note pan="0" pos="3840" key="77" len="96" vol="78"/>
          <note pan="0" pos="3936" key="73" len="96" vol="78"/>
        </pattern>
      </track>
      <track type="0" muted="0" name="lgtH1" solo="0">
        <instrumenttrack pan="-100" pitch="0" basenote="57" usemasterpitch="1" vol="200" fxch="12" pitchrange="1">
          <instrument name="carlapatchbay">
            <carlapatchbay>
              <CARLA-PROJECT VERSION="2.0">
                <EngineSettings>
                  <ForceStereo>false</ForceStereo>
                  <PreferPluginBridges>false</PreferPluginBridges>
                  <PreferUiBridges>true</PreferUiBridges>
                  <UIsAlwaysOnTop>false</UIsAlwaysOnTop>
                  <MaxParameters>200</MaxParameters>
                  <UIBridgesTimeout>4000</UIBridgesTimeout>
                  <LADSPA_PATH>/home/huggypie/.ladspa:/usr/lib/ladspa:/usr/local/lib/ladspa</LADSPA_PATH>
                  <DSSI_PATH>/home/huggypie/.dssi:/usr/lib/dssi:/usr/local/lib/dssi</DSSI_PATH>
                  <LV2_PATH>/home/huggypie/.lv2:/usr/lib/lv2:/usr/local/lib/lv2</LV2_PATH>
                  <VST2_PATH>/home/huggypie/.vst:/home/huggypie/.wine/drive_c/Program Files (x86)/VstPlugins:/home/huggypie/.wine/drive_c/Program Files/VstPlugins:/usr/lib/lxvst:/usr/lib/vst:/usr/local/lib/lxvst:/usr/local/lib/vst/home/huggypie/.lxvst:/home/huggypie/vst</VST2_PATH>
                  <VST3_PATH>/home/huggypie/.vst3:/home/huggypie/.wine/drive_c/Program Files (x86)/Common Files/VST3:/home/huggypie/.wine/drive_c/Program Files/Common Files/VST3:/usr/lib/vst3:/usr/local/lib/vst3</VST3_PATH>
                  <SF2_PATH>/home/huggypie/.sounds/sf2/home/huggypie/.sounds/sf3:/usr/share/soundfonts:/usr/share/sounds/sf2:/usr/share/sounds/sf3</SF2_PATH>
                  <SFZ_PATH>/home/huggypie/.sounds/sfz:/home/huggypie/samples:/usr/share/sounds/sfz</SFZ_PATH>
                </EngineSettings>
                <!-- sfizz -->
                <Plugin>
                  <Info>
                    <Type>LV2</Type>
                    <Name>sfizz</Name>
                    <URI>http://sfztools.github.io/sfizz</URI>
                  </Info>
                  <Data>
                    <Active>Yes</Active>
                    <ControlChannel>1</ControlChannel>
                    <Options>0x3f0</Options>
                    <Parameter>
                      <Index>0</Index>
                      <Name>Volume</Name>
                      <Symbol>volume</Symbol>
                      <Value>0</Value>
                    </Parameter>
                    <Parameter>
                      <Index>1</Index>
                      <Name>Polyphony</Name>
                      <Symbol>num_voices</Symbol>
                      <Value>64</Value>
                    </Parameter>
                    <Parameter>
                      <Index>2</Index>
                      <Name>Internal oversampling factor</Name>
                      <Symbol>oversampling</Symbol>
                      <Value>1</Value>
                    </Parameter>
                    <Parameter>
                      <Index>3</Index>
                      <Name>Preload size</Name>
                      <Symbol>preload_size</Symbol>
                      <Value>8192</Value>
                    </Parameter>
                    <Parameter>
                      <Index>5</Index>
                      <Name>Scala root key</Name>
                      <Symbol>scala_root_key</Symbol>
                      <Value>60</Value>
                    </Parameter>
                    <Parameter>
                      <Index>6</Index>
                      <Name>Tuning frequency</Name>
                      <Symbol>tuning_frequency</Symbol>
                      <Value>440</Value>
                    </Parameter>
                    <Parameter>
                      <Index>7</Index>
                      <Name>Stretched tuning</Name>
                      <Symbol>stretched_tuning</Symbol>
                      <Value>0</Value>
                    </Parameter>
                    <CustomData>
                      <Type>http://lv2plug.in/ns/ext/atom#Path</Type>
                      <Key>http://sfztools.github.io/sfizz:sfzfile</Key>
                      <Value>../samples/fakeguitar/_fakeguitar1_integrated.sfz</Value>
                    </CustomData>
                    <CustomData>
                      <Type>http://lv2plug.in/ns/ext/atom#Int</Type>
                      <Key>http://sfztools.github.io/sfizz:numvoices</Key>
                      <Value>QAAAAA==</Value>
                    </CustomData>
                    <CustomData>
                      <Type>http://lv2plug.in/ns/ext/atom#Int</Type>
                      <Key>http://sfztools.github.io/sfizz:preload_size</Key>
                      <Value>ACAAAA==</Value>
                    </CustomData>
                    <CustomData>
                      <Type>http://lv2plug.in/ns/ext/atom#Int</Type>
                      <Key>http://sfztools.github.io/sfizz:oversampling</Key>
                      <Value>AQAAAA==</Value>
                    </CustomData>
                    <CustomData>
                      <Type>http://lv2plug.in/ns/ext/atom#Path</Type>
                      <Key>http://sfztools.github.io/sfizz:tuningfile</Key>
                      <Value>../../../usr/lib/lv2/sfizz.lv2//Contents/Resources/DefaultScale.scl</Value>
                    </CustomData>
                  </Data>
                </Plugin>
                <Patchbay>
                  <Connection>
                    <Source>Midi Input:Capture 1</Source>
                    <Target>sfizz:events-in</Target>
                  </Connection>
                  <Connection>
                    <Source>sfizz:Left Output</Source>
                    <Target>Audio Output:Left</Target>
                  </Connection>
                  <Connection>
                    <Source>sfizz:Right Output</Source>
                    <Target>Audio Output:Right</Target>
                  </Connection>
                </Patchbay>
              </CARLA-PROJECT>
            </carlapatchbay>
          </instrument>
          <eldata fres="0.5" fcut="14000" fwet="0" ftype="0">
            <elvol lspd_numerator="4" userwavefile="" lshp="0" x100="0" amt="0" lspd_syncmode="0" ctlenvamt="0" dec="0.5" hold="0.5" lspd_denominator="4" sustain="0.5" lamt="0" lspd="0.1" pdel="0" att="0" lpdel="0" latt="0" rel="0.1"/>
            <elcut lspd_numerator="4" userwavefile="" lshp="0" x100="0" amt="0" lspd_syncmode="0" ctlenvamt="0" dec="0.5" hold="0.5" lspd_denominator="4" sustain="0.5" lamt="0" lspd="0.1" pdel="0" att="0" lpdel="0" latt="0" rel="0.1"/>
            <elres lspd_numerator="4" userwavefile="" lshp="0" x100="0" amt="0" lspd_syncmode="0" ctlenvamt="0" dec="0.5" hold="0.5" lspd_denominator="4" sustain="0.5" lamt="0" lspd="0.1" pdel="0" att="0" lpdel="0" latt="0" rel="0.1"/>
          </eldata>
          <chordcreator chordrange="1" chord="0" chord-enabled="0"/>
          <arpeggiator arpskip="0" arpmiss="0" arp-enabled="0" arpgate="100" arpdir="0" arpcycle="0" arprange="1" arptime_numerator="4" arptime_denominator="4" arptime_syncmode="0" arptime="200" arp="0" arpmode="0"/>
          <midiport outputcontroller="0" inputchannel="0" outputchannel="1" fixedoutputvelocity="-1" readable="0" inputcontroller="0" basevelocity="63" fixedoutputnote="-1" fixedinputvelocity="-1" outputprogram="1" writable="0"/>
          <fxchain enabled="0" numofeffects="0"/>
        </instrumenttrack>
        <pattern type="1" pos="7104" muted="0" name="" steps="16">
          <note pan="0" pos="0" key="0" len="72" vol="78"/>
          <note pan="0" pos="96" key="68" len="48" vol="78"/>
          <note pan="0" pos="144" key="71" len="48" vol="78"/>
          <note pan="0" pos="192" key="73" len="96" vol="78"/>
          <note pan="0" pos="288" key="73" len="24" vol="78"/>
          <note pan="0" pos="312" key="68" len="24" vol="78"/>
          <note pan="0" pos="336" key="73" len="24" vol="78"/>
          <note pan="0" pos="360" key="80" len="168" vol="78"/>
          <note pan="0" pos="528" key="80" len="24" vol="78"/>
          <note pan="0" pos="552" key="78" len="24" vol="78"/>
          <note pan="0" pos="576" key="77" len="48" vol="78"/>
          <note pan="0" pos="624" key="73" len="48" vol="78"/>
          <note pan="0" pos="672" key="70" len="48" vol="78"/>
          <note pan="0" pos="720" key="66" len="48" vol="78"/>
          <note pan="0" pos="768" key="69" len="96" vol="78"/>
          <note pan="0" pos="864" key="68" len="96" vol="78"/>
          <note pan="0" pos="960" key="73" len="144" vol="78"/>
          <note pan="0" pos="1104" key="76" len="48" vol="78"/>
          <note pan="0" pos="1152" key="75" len="144" vol="78"/>
          <note pan="0" pos="1296" key="80" len="48" vol="78"/>
          <note pan="0" pos="1344" key="80" len="144" vol="78"/>
          <note pan="0" pos="1488" key="78" len="24" vol="78"/>
          <note pan="0" pos="1512" key="76" len="24" vol="78"/>
          <note pan="0" pos="1536" key="75" len="48" vol="78"/>
          <note pan="0" pos="1584" key="76" len="48" vol="78"/>
          <note pan="0" pos="1632" key="71" len="48" vol="78"/>
          <note pan="0" pos="1680" key="68" len="48" vol="78"/>
          <note pan="0" pos="1728" key="69" len="96" vol="78"/>
          <note pan="0" pos="1824" key="73" len="48" vol="78"/>
          <note pan="0" pos="1872" key="76" len="48" vol="78"/>
          <note pan="0" pos="1920" key="76" len="96" vol="78"/>
          <note pan="0" pos="2016" key="75" len="48" vol="78"/>
          <note pan="0" pos="2064" key="76" len="48" vol="78"/>
          <note pan="0" pos="2112" key="83" len="72" vol="78"/>
          <note pan="0" pos="2184" key="81" len="72" vol="78"/>
          <note pan="0" pos="2256" key="80" len="48" vol="78"/>
          <note pan="0" pos="2304" key="78" len="192" vol="78"/>
          <note pan="0" pos="2496" key="76" len="72" vol="78"/>
          <note pan="0" pos="2568" key="75" len="72" vol="78"/>
          <note pan="0" pos="2640" key="76" len="48" vol="78"/>
          <note pan="0" pos="2688" key="80" len="144" vol="78"/>
          <note pan="0" pos="2832" key="75" len="48" vol="78"/>
          <note pan="0" pos="2880" key="73" len="240" vol="78"/>
          <note pan="0" pos="3120" key="76" len="48" vol="78"/>
          <note pan="0" pos="3168" key="78" len="48" vol="78"/>
          <note pan="0" pos="3216" key="80" len="48" vol="78"/>
          <note pan="0" pos="3264" key="81" len="72" vol="78"/>
          <note pan="0" pos="3336" key="80" len="72" vol="78"/>
          <note pan="0" pos="3408" key="78" len="48" vol="78"/>
          <note pan="0" pos="3456" key="76" len="48" vol="78"/>
          <note pan="0" pos="3504" key="73" len="48" vol="78"/>
          <note pan="0" pos="3552" key="76" len="48" vol="78"/>
          <note pan="0" pos="3600" key="80" len="48" vol="78"/>
          <note pan="0" pos="3648" key="78" len="192" vol="78"/>
          <note pan="0" pos="3840" key="75" len="96" vol="78"/>
          <note pan="0" pos="3936" key="71" len="96" vol="78"/>
          <note pan="0" pos="4032" key="73" len="384" vol="78"/>
        </pattern>
        <pattern type="1" pos="5376" muted="0" name="" steps="16">
          <note pan="0" pos="0" key="68" len="24" vol="78"/>
          <note pan="0" pos="0" key="0" len="24" vol="78"/>
          <note pan="0" pos="24" key="71" len="24" vol="78"/>
          <note pan="0" pos="48" key="68" len="24" vol="78"/>
          <note pan="0" pos="72" key="75" len="48" vol="78"/>
          <note pan="0" pos="120" key="68" len="24" vol="78"/>
          <note pan="0" pos="144" key="71" len="24" vol="78"/>
          <note pan="0" pos="168" key="75" len="24" vol="78"/>
          <note pan="0" pos="192" key="76" len="24" vol="78"/>
          <note pan="0" pos="216" key="75" len="24" vol="78"/>
          <note pan="0" pos="240" key="73" len="24" vol="78"/>
          <note pan="0" pos="264" key="71" len="24" vol="78"/>
          <note pan="0" pos="288" key="75" len="24" vol="78"/>
          <note pan="0" pos="312" key="73" len="24" vol="78"/>
          <note pan="0" pos="336" key="71" len="24" vol="78"/>
          <note pan="0" pos="360" key="68" len="24" vol="78"/>
        </pattern>
        <pattern type="1" pos="6144" muted="0" name="lgtH1" steps="16">
          <note pan="0" pos="0" key="87" len="24" vol="78"/>
          <note pan="0" pos="0" key="0" len="48" vol="100"/>
          <note pan="0" pos="24" key="76" len="24" vol="78"/>
          <note pan="0" pos="48" key="80" len="24" vol="78"/>
          <note pan="0" pos="72" key="83" len="48" vol="78"/>
          <note pan="0" pos="120" key="80" len="24" vol="78"/>
          <note pan="0" pos="144" key="83" len="24" vol="78"/>
          <note pan="0" pos="168" key="87" len="24" vol="78"/>
          <note pan="0" pos="180" key="1" len="48" vol="100"/>
          <note pan="0" pos="192" key="85" len="12" vol="78"/>
          <note pan="0" pos="204" key="85" len="12" vol="78"/>
          <note pan="0" pos="216" key="80" len="12" vol="78"/>
          <note pan="0" pos="228" key="80" len="12" vol="78"/>
          <note pan="0" pos="240" key="76" len="12" vol="78"/>
          <note pan="0" pos="252" key="76" len="12" vol="78"/>
          <note pan="0" pos="264" key="73" len="12" vol="78"/>
          <note pan="0" pos="276" key="73" len="12" vol="78"/>
          <note pan="0" pos="288" key="78" len="12" vol="78"/>
          <note pan="0" pos="300" key="78" len="12" vol="78"/>
          <note pan="0" pos="312" key="76" len="12" vol="78"/>
          <note pan="0" pos="324" key="76" len="12" vol="78"/>
          <note pan="0" pos="336" key="80" len="12" vol="78"/>
          <note pan="0" pos="348" key="80" len="12" vol="78"/>
          <note pan="0" pos="360" key="76" len="12" vol="78"/>
          <note pan="0" pos="372" key="76" len="12" vol="78"/>
          <note pan="0" pos="384" key="0" len="12" vol="78"/>
        </pattern>
        <pattern type="1" pos="13056" muted="0" name="" steps="16">
          <note pan="0" pos="0" key="68" len="24" vol="78"/>
          <note pan="0" pos="0" key="0" len="24" vol="78"/>
          <note pan="0" pos="24" key="71" len="24" vol="78"/>
          <note pan="0" pos="48" key="68" len="24" vol="78"/>
          <note pan="0" pos="72" key="75" len="48" vol="78"/>
          <note pan="0" pos="120" key="68" len="24" vol="78"/>
          <note pan="0" pos="144" key="71" len="24" vol="78"/>
          <note pan="0" pos="168" key="75" len="24" vol="78"/>
          <note pan="0" pos="192" key="76" len="24" vol="78"/>
          <note pan="0" pos="216" key="75" len="24" vol="78"/>
          <note pan="0" pos="240" key="73" len="24" vol="78"/>
          <note pan="0" pos="264" key="71" len="24" vol="78"/>
          <note pan="0" pos="288" key="75" len="24" vol="78"/>
          <note pan="0" pos="312" key="73" len="24" vol="78"/>
          <note pan="0" pos="336" key="71" len="24" vol="78"/>
          <note pan="0" pos="360" key="68" len="24" vol="78"/>
        </pattern>
        <pattern type="1" pos="13824" muted="0" name="" steps="16">
          <note pan="0" pos="0" key="71" len="24" vol="78"/>
          <note pan="0" pos="0" key="0" len="12" vol="78"/>
          <note pan="0" pos="12" key="1" len="12" vol="78"/>
          <note pan="0" pos="24" key="61" len="12" vol="78"/>
          <note pan="0" pos="36" key="61" len="12" vol="78"/>
          <note pan="0" pos="48" key="64" len="24" vol="78"/>
          <note pan="0" pos="48" key="0" len="12" vol="78"/>
          <note pan="0" pos="72" key="68" len="48" vol="78"/>
          <note pan="0" pos="120" key="64" len="24" vol="78"/>
          <note pan="0" pos="144" key="68" len="24" vol="78"/>
          <note pan="0" pos="168" key="71" len="24" vol="78"/>
          <note pan="0" pos="192" key="69" len="24" vol="78"/>
          <note pan="0" pos="216" key="64" len="24" vol="78"/>
          <note pan="0" pos="240" key="61" len="24" vol="78"/>
          <note pan="0" pos="264" key="57" len="24" vol="78"/>
          <note pan="0" pos="288" key="63" len="24" vol="78"/>
          <note pan="0" pos="312" key="61" len="24" vol="78"/>
          <note pan="0" pos="336" key="64" len="24" vol="78"/>
          <note pan="0" pos="360" key="61" len="24" vol="78"/>
        </pattern>
        <pattern type="1" pos="18816" muted="0" name="" steps="16">
          <note pan="0" pos="0" key="73" len="336" vol="78"/>
          <note pan="0" pos="336" key="64" len="48" vol="78"/>
          <note pan="0" pos="384" key="63" len="288" vol="78"/>
          <note pan="0" pos="672" key="56" len="48" vol="78"/>
          <note pan="0" pos="720" key="59" len="48" vol="78"/>
          <note pan="0" pos="768" key="61" len="240" vol="78"/>
          <note pan="0" pos="1008" key="59" len="48" vol="78"/>
          <note pan="0" pos="1056" key="61" len="48" vol="78"/>
          <note pan="0" pos="1104" key="68" len="48" vol="78"/>
          <note pan="0" pos="1152" key="66" len="192" vol="78"/>
          <note pan="0" pos="1344" key="69" len="48" vol="78"/>
          <note pan="0" pos="1392" key="68" len="24" vol="78"/>
          <note pan="0" pos="1416" key="68" len="12" vol="78"/>
          <note pan="0" pos="1424" key="69" len="12" vol="78"/>
          <note pan="0" pos="1432" key="68" len="12" vol="78"/>
          <note pan="0" pos="1440" key="66" len="48" vol="78"/>
          <note pan="0" pos="1488" key="68" len="48" vol="78"/>
          <note pan="0" pos="1536" key="64" len="240" vol="78"/>
          <note pan="0" pos="1776" key="61" len="48" vol="78"/>
          <note pan="0" pos="1824" key="64" len="48" vol="78"/>
          <note pan="0" pos="1872" key="68" len="48" vol="78"/>
          <note pan="0" pos="1920" key="68" len="192" vol="78"/>
          <note pan="0" pos="2112" key="66" len="144" vol="78"/>
          <note pan="0" pos="2256" key="68" len="48" vol="78"/>
          <note pan="0" pos="2304" key="61" len="240" vol="78"/>
          <note pan="0" pos="2544" key="56" len="48" vol="78"/>
          <note pan="0" pos="2592" key="61" len="48" vol="78"/>
          <note pan="0" pos="2640" key="68" len="48" vol="78"/>
          <note pan="0" pos="2688" key="73" len="192" vol="78"/>
          <note pan="0" pos="2880" key="72" len="192" vol="78"/>
        </pattern>
        <pattern type="1" pos="14784" muted="0" name="" steps="16">
          <note pan="0" pos="0" key="0" len="72" vol="78"/>
          <note pan="0" pos="96" key="68" len="48" vol="78"/>
          <note pan="0" pos="144" key="71" len="48" vol="78"/>
          <note pan="0" pos="192" key="73" len="96" vol="78"/>
          <note pan="0" pos="288" key="73" len="24" vol="78"/>
          <note pan="0" pos="312" key="68" len="24" vol="78"/>
          <note pan="0" pos="336" key="73" len="24" vol="78"/>
          <note pan="0" pos="360" key="80" len="168" vol="78"/>
          <note pan="0" pos="528" key="80" len="24" vol="78"/>
          <note pan="0" pos="552" key="78" len="24" vol="78"/>
          <note pan="0" pos="576" key="77" len="48" vol="78"/>
          <note pan="0" pos="624" key="73" len="48" vol="78"/>
          <note pan="0" pos="672" key="70" len="48" vol="78"/>
          <note pan="0" pos="720" key="66" len="48" vol="78"/>
          <note pan="0" pos="768" key="69" len="96" vol="78"/>
          <note pan="0" pos="864" key="68" len="96" vol="78"/>
          <note pan="0" pos="960" key="73" len="144" vol="78"/>
          <note pan="0" pos="1104" key="76" len="48" vol="78"/>
          <note pan="0" pos="1152" key="75" len="144" vol="78"/>
          <note pan="0" pos="1296" key="80" len="48" vol="78"/>
          <note pan="0" pos="1344" key="80" len="144" vol="78"/>
          <note pan="0" pos="1488" key="78" len="24" vol="78"/>
          <note pan="0" pos="1512" key="76" len="24" vol="78"/>
          <note pan="0" pos="1536" key="75" len="48" vol="78"/>
          <note pan="0" pos="1584" key="76" len="48" vol="78"/>
          <note pan="0" pos="1632" key="71" len="48" vol="78"/>
          <note pan="0" pos="1680" key="68" len="48" vol="78"/>
          <note pan="0" pos="1728" key="69" len="96" vol="78"/>
          <note pan="0" pos="1824" key="73" len="48" vol="78"/>
          <note pan="0" pos="1872" key="76" len="48" vol="78"/>
          <note pan="0" pos="1920" key="76" len="96" vol="78"/>
          <note pan="0" pos="2016" key="75" len="48" vol="78"/>
          <note pan="0" pos="2064" key="76" len="48" vol="78"/>
          <note pan="0" pos="2112" key="83" len="72" vol="78"/>
          <note pan="0" pos="2184" key="81" len="72" vol="78"/>
          <note pan="0" pos="2256" key="80" len="48" vol="78"/>
          <note pan="0" pos="2304" key="78" len="192" vol="78"/>
          <note pan="0" pos="2496" key="76" len="72" vol="78"/>
          <note pan="0" pos="2568" key="75" len="72" vol="78"/>
          <note pan="0" pos="2640" key="76" len="48" vol="78"/>
          <note pan="0" pos="2688" key="80" len="144" vol="78"/>
          <note pan="0" pos="2832" key="75" len="48" vol="78"/>
          <note pan="0" pos="2880" key="73" len="240" vol="78"/>
          <note pan="0" pos="3120" key="76" len="48" vol="78"/>
          <note pan="0" pos="3168" key="78" len="48" vol="78"/>
          <note pan="0" pos="3216" key="80" len="48" vol="78"/>
          <note pan="0" pos="3264" key="81" len="72" vol="78"/>
          <note pan="0" pos="3336" key="80" len="72" vol="78"/>
          <note pan="0" pos="3408" key="78" len="48" vol="78"/>
          <note pan="0" pos="3456" key="76" len="48" vol="78"/>
          <note pan="0" pos="3504" key="73" len="48" vol="78"/>
          <note pan="0" pos="3552" key="76" len="48" vol="78"/>
          <note pan="0" pos="3600" key="80" len="48" vol="78"/>
          <note pan="0" pos="3648" key="78" len="192" vol="78"/>
          <note pan="0" pos="3840" key="75" len="96" vol="78"/>
          <note pan="0" pos="3936" key="71" len="96" vol="78"/>
        </pattern>
        <pattern type="1" pos="30336" muted="0" name="lgtH1" steps="16">
          <note pan="0" pos="0" key="66" len="12" vol="197"/>
          <note pan="0" pos="0" key="1" len="12" vol="197"/>
          <note pan="0" pos="12" key="66" len="12" vol="197"/>
          <note pan="0" pos="24" key="64" len="12" vol="197"/>
          <note pan="0" pos="36" key="64" len="12" vol="197"/>
          <note pan="0" pos="48" key="62" len="12" vol="197"/>
          <note pan="0" pos="60" key="62" len="12" vol="197"/>
          <note pan="0" pos="72" key="69" len="12" vol="197"/>
          <note pan="0" pos="84" key="69" len="12" vol="197"/>
          <note pan="0" pos="96" key="68" len="12" vol="197"/>
          <note pan="0" pos="108" key="68" len="12" vol="197"/>
          <note pan="0" pos="120" key="66" len="12" vol="197"/>
          <note pan="0" pos="132" key="66" len="12" vol="197"/>
          <note pan="0" pos="144" key="68" len="12" vol="197"/>
          <note pan="0" pos="156" key="68" len="12" vol="197"/>
          <note pan="0" pos="168" key="69" len="12" vol="197"/>
          <note pan="0" pos="180" key="69" len="12" vol="197"/>
          <note pan="0" pos="192" key="71" len="48" vol="197"/>
          <note pan="0" pos="192" key="0" len="48" vol="197"/>
          <note pan="0" pos="240" key="69" len="12" vol="197"/>
          <note pan="0" pos="240" key="2" len="12" vol="197"/>
          <note pan="0" pos="252" key="71" len="12" vol="197"/>
          <note pan="0" pos="264" key="73" len="12" vol="197"/>
          <note pan="0" pos="264" key="0" len="12" vol="197"/>
          <note pan="0" pos="276" key="74" len="12" vol="197"/>
          <note pan="0" pos="288" key="76" len="12" vol="197"/>
          <note pan="0" pos="288" key="0" len="12" vol="197"/>
          <note pan="0" pos="300" key="74" len="12" vol="197"/>
          <note pan="0" pos="300" key="1" len="12" vol="197"/>
          <note pan="0" pos="312" key="73" len="12" vol="197"/>
          <note pan="0" pos="324" key="74" len="12" vol="197"/>
          <note pan="0" pos="336" key="78" len="12" vol="197"/>
          <note pan="0" pos="336" key="0" len="12" vol="197"/>
          <note pan="0" pos="348" key="76" len="12" vol="197"/>
          <note pan="0" pos="348" key="1" len="12" vol="197"/>
          <note pan="0" pos="360" key="74" len="12" vol="197"/>
          <note pan="0" pos="372" key="76" len="12" vol="197"/>
          <note pan="0" pos="384" key="76" len="24" vol="197"/>
          <note pan="0" pos="384" key="0" len="24" vol="197"/>
          <note pan="0" pos="408" key="78" len="24" vol="197"/>
          <note pan="0" pos="456" key="74" len="48" vol="197"/>
          <note pan="0" pos="480" key="1" len="24" vol="197"/>
          <note pan="0" pos="504" key="71" len="12" vol="197"/>
          <note pan="0" pos="516" key="71" len="12" vol="197"/>
          <note pan="0" pos="528" key="74" len="12" vol="197"/>
          <note pan="0" pos="540" key="74" len="12" vol="197"/>
          <note pan="0" pos="552" key="76" len="12" vol="197"/>
          <note pan="0" pos="564" key="76" len="12" vol="197"/>
          <note pan="0" pos="576" key="80" len="24" vol="197"/>
          <note pan="0" pos="600" key="78" len="12" vol="197"/>
          <note pan="0" pos="612" key="80" len="12" vol="197"/>
          <note pan="0" pos="624" key="81" len="24" vol="197"/>
          <note pan="0" pos="648" key="80" len="12" vol="197"/>
          <note pan="0" pos="660" key="81" len="12" vol="197"/>
          <note pan="0" pos="672" key="85" len="12" vol="197"/>
          <note pan="0" pos="684" key="83" len="12" vol="197"/>
          <note pan="0" pos="696" key="81" len="12" vol="197"/>
          <note pan="0" pos="708" key="80" len="12" vol="197"/>
          <note pan="0" pos="720" key="78" len="12" vol="197"/>
          <note pan="0" pos="732" key="76" len="12" vol="197"/>
          <note pan="0" pos="744" key="74" len="12" vol="197"/>
          <note pan="0" pos="756" key="73" len="12" vol="197"/>
        </pattern>
        <pattern type="1" pos="34944" muted="0" name="lgtH1" steps="16">
          <note pan="0" pos="0" key="73" len="144" vol="197"/>
          <note pan="0" pos="0" key="0" len="12" vol="197"/>
          <note pan="0" pos="144" key="76" len="48" vol="197"/>
          <note pan="0" pos="192" key="75" len="144" vol="197"/>
          <note pan="0" pos="336" key="80" len="48" vol="197"/>
          <note pan="0" pos="384" key="80" len="144" vol="197"/>
          <note pan="0" pos="528" key="78" len="24" vol="197"/>
          <note pan="0" pos="552" key="76" len="24" vol="197"/>
          <note pan="0" pos="576" key="75" len="48" vol="197"/>
          <note pan="0" pos="624" key="76" len="48" vol="197"/>
          <note pan="0" pos="672" key="71" len="12" vol="197"/>
          <note pan="0" pos="672" key="1" len="12" vol="197"/>
          <note pan="0" pos="684" key="73" len="12" vol="197"/>
          <note pan="0" pos="696" key="71" len="12" vol="197"/>
          <note pan="0" pos="708" key="68" len="12" vol="197"/>
          <note pan="0" pos="720" key="71" len="12" vol="197"/>
          <note pan="0" pos="732" key="68" len="12" vol="197"/>
          <note pan="0" pos="744" key="66" len="12" vol="197"/>
          <note pan="0" pos="756" key="68" len="12" vol="197"/>
          <note pan="0" pos="768" key="69" len="96" vol="197"/>
          <note pan="0" pos="768" key="0" len="12" vol="197"/>
          <note pan="0" pos="864" key="73" len="48" vol="197"/>
          <note pan="0" pos="912" key="76" len="48" vol="197"/>
          <note pan="0" pos="960" key="76" len="96" vol="197"/>
          <note pan="0" pos="1056" key="75" len="48" vol="197"/>
          <note pan="0" pos="1104" key="76" len="48" vol="197"/>
          <note pan="0" pos="1152" key="76" len="12" vol="197"/>
          <note pan="0" pos="1152" key="0" len="12" vol="200"/>
          <note pan="0" pos="1164" key="73" len="12" vol="197"/>
          <note pan="0" pos="1176" key="75" len="12" vol="197"/>
          <note pan="0" pos="1188" key="76" len="12" vol="197"/>
          <note pan="0" pos="1200" key="78" len="12" vol="197"/>
          <note pan="0" pos="1212" key="75" len="12" vol="197"/>
          <note pan="0" pos="1224" key="76" len="12" vol="197"/>
          <note pan="0" pos="1236" key="78" len="12" vol="197"/>
          <note pan="0" pos="1248" key="80" len="12" vol="197"/>
          <note pan="0" pos="1260" key="76" len="12" vol="197"/>
          <note pan="0" pos="1272" key="78" len="12" vol="197"/>
          <note pan="0" pos="1284" key="80" len="12" vol="197"/>
          <note pan="0" pos="1296" key="81" len="12" vol="197"/>
          <note pan="0" pos="1308" key="78" len="12" vol="197"/>
          <note pan="0" pos="1320" key="80" len="12" vol="197"/>
          <note pan="0" pos="1332" key="81" len="12" vol="197"/>
          <note pan="0" pos="1344" key="83" len="12" vol="200"/>
          <note pan="0" pos="1356" key="81" len="12" vol="200"/>
          <note pan="0" pos="1368" key="80" len="12" vol="200"/>
          <note pan="0" pos="1380" key="78" len="12" vol="200"/>
          <note pan="0" pos="1392" key="81" len="12" vol="200"/>
          <note pan="0" pos="1404" key="80" len="12" vol="200"/>
          <note pan="0" pos="1416" key="78" len="12" vol="200"/>
          <note pan="0" pos="1428" key="76" len="12" vol="200"/>
          <note pan="0" pos="1440" key="80" len="12" vol="200"/>
          <note pan="0" pos="1452" key="78" len="12" vol="200"/>
          <note pan="0" pos="1464" key="80" len="12" vol="200"/>
          <note pan="0" pos="1476" key="81" len="12" vol="200"/>
          <note pan="0" pos="1488" key="87" len="12" vol="200"/>
          <note pan="0" pos="1488" key="2" len="12" vol="200"/>
          <note pan="0" pos="1500" key="83" len="12" vol="200"/>
          <note pan="0" pos="1512" key="87" len="12" vol="200"/>
          <note pan="0" pos="1524" key="83" len="12" vol="200"/>
        </pattern>
        <pattern type="1" pos="31104" muted="0" name="lgtH1" steps="16">
          <note pan="0" pos="0" key="85" len="24" vol="197"/>
          <note pan="0" pos="0" key="1" len="24" vol="197"/>
          <note pan="0" pos="24" key="80" len="24" vol="197"/>
          <note pan="0" pos="48" key="83" len="24" vol="197"/>
          <note pan="0" pos="72" key="78" len="24" vol="197"/>
          <note pan="0" pos="96" key="80" len="24" vol="197"/>
          <note pan="0" pos="120" key="78" len="24" vol="197"/>
          <note pan="0" pos="144" key="76" len="24" vol="197"/>
          <note pan="0" pos="168" key="78" len="24" vol="197"/>
          <note pan="0" pos="192" key="80" len="24" vol="197"/>
          <note pan="0" pos="216" key="78" len="24" vol="197"/>
          <note pan="0" pos="240" key="80" len="24" vol="197"/>
          <note pan="0" pos="264" key="83" len="24" vol="197"/>
          <note pan="0" pos="288" key="85" len="24" vol="197"/>
          <note pan="0" pos="312" key="83" len="24" vol="197"/>
          <note pan="0" pos="336" key="80" len="24" vol="197"/>
          <note pan="0" pos="360" key="83" len="24" vol="197"/>
        </pattern>
        <pattern type="1" pos="31488" muted="0" name="" steps="16">
          <note pan="0" pos="0" key="71" len="12" vol="197"/>
          <note pan="0" pos="0" key="0" len="24" vol="197"/>
          <note pan="0" pos="12" key="69" len="12" vol="197"/>
          <note pan="0" pos="12" key="1" len="24" vol="197"/>
          <note pan="0" pos="24" key="71" len="12" vol="197"/>
          <note pan="0" pos="36" key="73" len="12" vol="197"/>
          <note pan="0" pos="48" key="75" len="12" vol="197"/>
          <note pan="0" pos="48" key="0" len="12" vol="197"/>
          <note pan="0" pos="60" key="71" len="12" vol="197"/>
          <note pan="0" pos="60" key="1" len="12" vol="197"/>
          <note pan="0" pos="72" key="73" len="12" vol="197"/>
          <note pan="0" pos="84" key="75" len="12" vol="197"/>
          <note pan="0" pos="96" key="76" len="12" vol="197"/>
          <note pan="0" pos="96" key="0" len="12" vol="197"/>
          <note pan="0" pos="108" key="75" len="12" vol="197"/>
          <note pan="0" pos="108" key="1" len="12" vol="197"/>
          <note pan="0" pos="120" key="73" len="12" vol="197"/>
          <note pan="0" pos="132" key="75" len="12" vol="197"/>
          <note pan="0" pos="144" key="76" len="12" vol="197"/>
          <note pan="0" pos="156" key="78" len="12" vol="197"/>
          <note pan="0" pos="168" key="80" len="12" vol="197"/>
          <note pan="0" pos="180" key="81" len="12" vol="197"/>
          <note pan="0" pos="192" key="83" len="12" vol="197"/>
          <note pan="0" pos="192" key="0" len="12" vol="197"/>
          <note pan="0" pos="204" key="78" len="12" vol="197"/>
          <note pan="0" pos="216" key="75" len="12" vol="197"/>
          <note pan="0" pos="216" key="1" len="12" vol="197"/>
          <note pan="0" pos="228" key="71" len="12" vol="197"/>
          <note pan="0" pos="240" key="66" len="12" vol="197"/>
          <note pan="0" pos="252" key="71" len="12" vol="197"/>
          <note pan="0" pos="264" key="87" len="12" vol="197"/>
          <note pan="0" pos="264" key="2" len="12" vol="197"/>
          <note pan="0" pos="276" key="78" len="12" vol="197"/>
          <note pan="0" pos="288" key="75" len="12" vol="197"/>
          <note pan="0" pos="288" key="1" len="12" vol="197"/>
          <note pan="0" pos="300" key="71" len="12" vol="197"/>
          <note pan="0" pos="312" key="75" len="12" vol="197"/>
          <note pan="0" pos="324" key="78" len="12" vol="197"/>
          <note pan="0" pos="336" key="83" len="12" vol="197"/>
          <note pan="0" pos="336" key="0" len="12" vol="197"/>
          <note pan="0" pos="348" key="78" len="12" vol="197"/>
          <note pan="0" pos="360" key="75" len="12" vol="197"/>
          <note pan="0" pos="372" key="78" len="12" vol="197"/>
        </pattern>
        <pattern type="1" pos="31872" muted="0" name="lgtH1" steps="16">
          <note pan="0" pos="0" key="85" len="240" vol="100"/>
        </pattern>
        <pattern type="1" pos="37056" muted="0" name="lgtH1" steps="16">
          <note pan="0" pos="0" key="80" len="12" vol="197"/>
          <note pan="0" pos="0" key="0" len="12" vol="197"/>
          <note pan="0" pos="12" key="64" len="12" vol="197"/>
          <note pan="0" pos="12" key="2" len="12" vol="197"/>
          <note pan="0" pos="24" key="64" len="12" vol="197"/>
          <note pan="0" pos="24" key="0" len="12" vol="197"/>
          <note pan="0" pos="36" key="78" len="12" vol="197"/>
          <note pan="0" pos="36" key="0" len="12" vol="197"/>
          <note pan="0" pos="48" key="64" len="12" vol="197"/>
          <note pan="0" pos="48" key="2" len="12" vol="197"/>
          <note pan="0" pos="60" key="64" len="12" vol="197"/>
          <note pan="0" pos="60" key="0" len="12" vol="197"/>
          <note pan="0" pos="72" key="80" len="12" vol="197"/>
          <note pan="0" pos="72" key="0" len="12" vol="197"/>
          <note pan="0" pos="84" key="64" len="12" vol="197"/>
          <note pan="0" pos="84" key="2" len="12" vol="197"/>
          <note pan="0" pos="96" key="64" len="12" vol="197"/>
          <note pan="0" pos="96" key="0" len="12" vol="197"/>
          <note pan="0" pos="108" key="78" len="12" vol="197"/>
          <note pan="0" pos="108" key="0" len="12" vol="197"/>
          <note pan="0" pos="120" key="64" len="12" vol="197"/>
          <note pan="0" pos="120" key="2" len="12" vol="197"/>
          <note pan="0" pos="132" key="64" len="12" vol="197"/>
          <note pan="0" pos="132" key="0" len="12" vol="197"/>
          <note pan="0" pos="144" key="83" len="12" vol="197"/>
          <note pan="0" pos="144" key="0" len="12" vol="197"/>
          <note pan="0" pos="156" key="64" len="12" vol="197"/>
          <note pan="0" pos="156" key="2" len="12" vol="197"/>
          <note pan="0" pos="168" key="81" len="12" vol="197"/>
          <note pan="0" pos="168" key="0" len="12" vol="197"/>
          <note pan="0" pos="180" key="64" len="12" vol="197"/>
          <note pan="0" pos="180" key="2" len="12" vol="197"/>
        </pattern>
        <pattern type="1" pos="37248" muted="0" name="lgtH1" steps="16">
          <note pan="0" pos="0" key="85" len="12" vol="100"/>
          <note pan="0" pos="0" key="0" len="48" vol="100"/>
          <note pan="0" pos="12" key="83" len="12" vol="100"/>
          <note pan="0" pos="24" key="80" len="12" vol="100"/>
          <note pan="0" pos="24" key="1" len="12" vol="100"/>
          <note pan="0" pos="36" key="78" len="12" vol="100"/>
          <note pan="0" pos="48" key="76" len="12" vol="100"/>
          <note pan="0" pos="60" key="73" len="12" vol="100"/>
          <note pan="0" pos="72" key="76" len="12" vol="100"/>
          <note pan="0" pos="84" key="80" len="12" vol="100"/>
          <note pan="0" pos="96" key="85" len="12" vol="100"/>
          <note pan="0" pos="96" key="0" len="12" vol="100"/>
          <note pan="0" pos="108" key="83" len="12" vol="100"/>
          <note pan="0" pos="120" key="80" len="12" vol="100"/>
          <note pan="0" pos="120" key="1" len="12" vol="100"/>
          <note pan="0" pos="132" key="78" len="12" vol="100"/>
          <note pan="0" pos="144" key="76" len="12" vol="100"/>
          <note pan="0" pos="156" key="73" len="12" vol="100"/>
          <note pan="0" pos="168" key="76" len="12" vol="100"/>
          <note pan="0" pos="180" key="80" len="12" vol="100"/>
        </pattern>
        <pattern type="1" pos="37440" muted="0" name="" steps="16">
          <note pan="0" pos="0" key="71" len="12" vol="197"/>
          <note pan="0" pos="0" key="0" len="12" vol="100"/>
          <note pan="0" pos="12" key="73" len="12" vol="197"/>
          <note pan="0" pos="24" key="71" len="12" vol="197"/>
          <note pan="0" pos="36" key="68" len="12" vol="197"/>
          <note pan="0" pos="36" key="1" len="12" vol="100"/>
          <note pan="0" pos="48" key="69" len="12" vol="197"/>
          <note pan="0" pos="60" key="64" len="12" vol="197"/>
          <note pan="0" pos="72" key="68" len="12" vol="197"/>
          <note pan="0" pos="72" key="0" len="12" vol="100"/>
          <note pan="0" pos="84" key="69" len="12" vol="197"/>
          <note pan="0" pos="96" key="75" len="12" vol="197"/>
          <note pan="0" pos="96" key="0" len="12" vol="100"/>
          <note pan="0" pos="108" key="76" len="12" vol="197"/>
          <note pan="0" pos="120" key="75" len="12" vol="197"/>
          <note pan="0" pos="132" key="73" len="12" vol="197"/>
          <note pan="0" pos="132" key="1" len="12" vol="100"/>
          <note pan="0" pos="144" key="75" len="12" vol="197"/>
          <note pan="0" pos="156" key="69" len="12" vol="197"/>
          <note pan="0" pos="168" key="71" len="12" vol="197"/>
          <note pan="0" pos="168" key="0" len="12" vol="100"/>
          <note pan="0" pos="180" key="73" len="12" vol="197"/>
        </pattern>
        <pattern type="1" pos="34752" muted="0" name="lgtH1" steps="16">
          <note pan="0" pos="96" key="80" len="12" vol="95"/>
          <note pan="0" pos="96" key="0" len="12" vol="95"/>
          <note pan="0" pos="108" key="81" len="12" vol="95"/>
          <note pan="0" pos="120" key="80" len="12" vol="95"/>
          <note pan="0" pos="132" key="78" len="12" vol="95"/>
          <note pan="0" pos="132" key="1" len="12" vol="95"/>
          <note pan="0" pos="144" key="80" len="12" vol="95"/>
          <note pan="0" pos="144" key="0" len="12" vol="95"/>
          <note pan="0" pos="156" key="78" len="12" vol="95"/>
          <note pan="0" pos="156" key="1" len="12" vol="95"/>
          <note pan="0" pos="168" key="76" len="12" vol="95"/>
          <note pan="0" pos="180" key="75" len="12" vol="95"/>
        </pattern>
        <pattern type="1" pos="37632" muted="0" name="lgtH1" steps="16">
          <note pan="0" pos="0" key="68" len="12" vol="197"/>
          <note pan="0" pos="0" key="1" len="12" vol="197"/>
          <note pan="0" pos="12" key="69" len="12" vol="197"/>
          <note pan="0" pos="24" key="68" len="12" vol="197"/>
          <note pan="0" pos="36" key="66" len="12" vol="197"/>
          <note pan="0" pos="48" key="69" len="12" vol="197"/>
          <note pan="0" pos="60" key="71" len="12" vol="197"/>
          <note pan="0" pos="72" key="69" len="12" vol="197"/>
          <note pan="0" pos="84" key="68" len="12" vol="197"/>
          <note pan="0" pos="96" key="71" len="12" vol="197"/>
          <note pan="0" pos="96" key="0" len="12" vol="197"/>
          <note pan="0" pos="108" key="73" len="12" vol="197"/>
          <note pan="0" pos="120" key="71" len="12" vol="197"/>
          <note pan="0" pos="120" key="1" len="12" vol="197"/>
          <note pan="0" pos="132" key="69" len="12" vol="197"/>
          <note pan="0" pos="144" key="73" len="12" vol="197"/>
          <note pan="0" pos="144" key="0" len="12" vol="197"/>
          <note pan="0" pos="156" key="75" len="12" vol="197"/>
          <note pan="0" pos="168" key="73" len="12" vol="197"/>
          <note pan="0" pos="168" key="1" len="12" vol="197"/>
          <note pan="0" pos="180" key="71" len="12" vol="197"/>
          <note pan="0" pos="192" key="76" len="12" vol="197"/>
          <note pan="0" pos="192" key="0" len="12" vol="197"/>
          <note pan="0" pos="204" key="73" len="12" vol="197"/>
          <note pan="0" pos="216" key="75" len="12" vol="197"/>
          <note pan="0" pos="216" key="1" len="12" vol="197"/>
          <note pan="0" pos="228" key="76" len="12" vol="197"/>
          <note pan="0" pos="240" key="78" len="12" vol="197"/>
          <note pan="0" pos="240" key="0" len="12" vol="197"/>
          <note pan="0" pos="252" key="75" len="12" vol="197"/>
          <note pan="0" pos="264" key="76" len="12" vol="197"/>
          <note pan="0" pos="264" key="1" len="12" vol="197"/>
          <note pan="0" pos="276" key="78" len="12" vol="197"/>
          <note pan="0" pos="288" key="81" len="12" vol="197"/>
          <note pan="0" pos="288" key="0" len="12" vol="197"/>
          <note pan="0" pos="300" key="80" len="12" vol="197"/>
          <note pan="0" pos="312" key="81" len="12" vol="197"/>
          <note pan="0" pos="324" key="83" len="12" vol="197"/>
          <note pan="0" pos="336" key="87" len="12" vol="197"/>
          <note pan="0" pos="336" key="0" len="12" vol="197"/>
          <note pan="0" pos="348" key="83" len="12" vol="197"/>
          <note pan="0" pos="360" key="78" len="12" vol="197"/>
          <note pan="0" pos="360" key="1" len="12" vol="197"/>
          <note pan="0" pos="372" key="75" len="12" vol="197"/>
        </pattern>
        <pattern type="1" pos="38784" muted="0" name="lgtH1" steps="16">
          <note pan="0" pos="0" key="66" len="12" vol="100"/>
          <note pan="0" pos="0" key="1" len="12" vol="100"/>
          <note pan="0" pos="12" key="68" len="12" vol="100"/>
          <note pan="0" pos="24" key="69" len="12" vol="100"/>
          <note pan="0" pos="36" key="71" len="12" vol="100"/>
          <note pan="0" pos="48" key="73" len="12" vol="100"/>
          <note pan="0" pos="48" key="0" len="12" vol="100"/>
          <note pan="0" pos="60" key="71" len="12" vol="100"/>
          <note pan="0" pos="72" key="69" len="12" vol="100"/>
          <note pan="0" pos="72" key="1" len="12" vol="100"/>
          <note pan="0" pos="84" key="68" len="12" vol="100"/>
          <note pan="0" pos="96" key="69" len="12" vol="100"/>
          <note pan="0" pos="108" key="71" len="12" vol="100"/>
          <note pan="0" pos="120" key="73" len="12" vol="100"/>
          <note pan="0" pos="132" key="75" len="12" vol="100"/>
          <note pan="0" pos="144" key="76" len="12" vol="100"/>
          <note pan="0" pos="144" key="0" len="12" vol="100"/>
          <note pan="0" pos="156" key="75" len="12" vol="100"/>
          <note pan="0" pos="168" key="73" len="12" vol="100"/>
          <note pan="0" pos="168" key="1" len="12" vol="100"/>
          <note pan="0" pos="180" key="71" len="12" vol="100"/>
          <note pan="0" pos="192" key="73" len="12" vol="100"/>
          <note pan="0" pos="204" key="75" len="12" vol="100"/>
          <note pan="0" pos="216" key="76" len="12" vol="100"/>
          <note pan="0" pos="228" key="78" len="12" vol="100"/>
          <note pan="0" pos="240" key="80" len="12" vol="100"/>
          <note pan="0" pos="240" key="0" len="12" vol="100"/>
          <note pan="0" pos="252" key="78" len="12" vol="100"/>
          <note pan="0" pos="264" key="76" len="12" vol="100"/>
          <note pan="0" pos="264" key="1" len="12" vol="100"/>
          <note pan="0" pos="276" key="75" len="12" vol="100"/>
          <note pan="0" pos="288" key="81" len="12" vol="100"/>
          <note pan="0" pos="288" key="0" len="12" vol="100"/>
          <note pan="0" pos="300" key="80" len="12" vol="100"/>
          <note pan="0" pos="312" key="78" len="12" vol="100"/>
          <note pan="0" pos="324" key="76" len="12" vol="100"/>
          <note pan="0" pos="336" key="83" len="12" vol="100"/>
          <note pan="0" pos="348" key="81" len="12" vol="100"/>
          <note pan="0" pos="360" key="80" len="12" vol="100"/>
          <note pan="0" pos="372" key="78" len="12" vol="100"/>
        </pattern>
        <pattern type="1" pos="39168" muted="0" name="lgtH1" steps="16">
          <note pan="0" pos="0" key="82" len="24" vol="78"/>
          <note pan="0" pos="0" key="0" len="24" vol="78"/>
          <note pan="0" pos="24" key="79" len="24" vol="78"/>
          <note pan="0" pos="48" key="75" len="24" vol="78"/>
          <note pan="0" pos="72" key="79" len="24" vol="78"/>
          <note pan="0" pos="96" key="75" len="24" vol="78"/>
          <note pan="0" pos="120" key="70" len="24" vol="78"/>
          <note pan="0" pos="144" key="75" len="24" vol="78"/>
          <note pan="0" pos="168" key="79" len="24" vol="78"/>
          <note pan="0" pos="192" key="80" len="48" vol="78"/>
          <note pan="0" pos="240" key="84" len="48" vol="78"/>
          <note pan="0" pos="288" key="85" len="48" vol="78"/>
          <note pan="0" pos="336" key="87" len="48" vol="78"/>
        </pattern>
        <pattern type="1" pos="43200" muted="0" name="" steps="16">
          <note pan="0" pos="0" key="0" len="72" vol="78"/>
          <note pan="0" pos="960" key="75" len="144" vol="78"/>
          <note pan="0" pos="1104" key="78" len="48" vol="78"/>
          <note pan="0" pos="1152" key="77" len="144" vol="78"/>
          <note pan="0" pos="1296" key="82" len="48" vol="78"/>
          <note pan="0" pos="1344" key="82" len="144" vol="78"/>
          <note pan="0" pos="1488" key="80" len="24" vol="78"/>
          <note pan="0" pos="1512" key="78" len="24" vol="78"/>
          <note pan="0" pos="1536" key="77" len="48" vol="78"/>
          <note pan="0" pos="1584" key="78" len="48" vol="78"/>
          <note pan="0" pos="1632" key="73" len="48" vol="78"/>
          <note pan="0" pos="1680" key="70" len="48" vol="78"/>
          <note pan="0" pos="1728" key="71" len="96" vol="78"/>
          <note pan="0" pos="1824" key="75" len="48" vol="78"/>
          <note pan="0" pos="1872" key="78" len="48" vol="78"/>
          <note pan="0" pos="1920" key="78" len="96" vol="78"/>
          <note pan="0" pos="2016" key="77" len="48" vol="78"/>
          <note pan="0" pos="2064" key="78" len="48" vol="78"/>
          <note pan="0" pos="2112" key="85" len="72" vol="78"/>
          <note pan="0" pos="2184" key="83" len="72" vol="78"/>
          <note pan="0" pos="2256" key="82" len="48" vol="78"/>
          <note pan="0" pos="2304" key="80" len="192" vol="78"/>
          <note pan="0" pos="2496" key="78" len="72" vol="78"/>
          <note pan="0" pos="2568" key="77" len="72" vol="78"/>
          <note pan="0" pos="2640" key="78" len="48" vol="78"/>
          <note pan="0" pos="2688" key="82" len="144" vol="78"/>
          <note pan="0" pos="2832" key="77" len="48" vol="78"/>
          <note pan="0" pos="2880" key="75" len="240" vol="78"/>
          <note pan="0" pos="3120" key="78" len="48" vol="78"/>
          <note pan="0" pos="3168" key="80" len="48" vol="78"/>
          <note pan="0" pos="3216" key="82" len="48" vol="78"/>
          <note pan="0" pos="3264" key="83" len="72" vol="78"/>
          <note pan="0" pos="3336" key="82" len="72" vol="78"/>
          <note pan="0" pos="3408" key="80" len="48" vol="78"/>
          <note pan="0" pos="3456" key="78" len="48" vol="78"/>
          <note pan="0" pos="3504" key="75" len="48" vol="78"/>
          <note pan="0" pos="3552" key="78" len="48" vol="78"/>
          <note pan="0" pos="3600" key="82" len="48" vol="78"/>
          <note pan="0" pos="3648" key="80" len="192" vol="78"/>
          <note pan="0" pos="3840" key="73" len="12" vol="106"/>
          <note pan="0" pos="3852" key="71" len="12" vol="106"/>
          <note pan="0" pos="3864" key="70" len="12" vol="106"/>
          <note pan="0" pos="3876" key="68" len="12" vol="106"/>
          <note pan="0" pos="3888" key="71" len="12" vol="106"/>
          <note pan="0" pos="3900" key="70" len="12" vol="106"/>
          <note pan="0" pos="3912" key="68" len="12" vol="106"/>
          <note pan="0" pos="3924" key="66" len="12" vol="106"/>
          <note pan="0" pos="3936" key="70" len="12" vol="106"/>
          <note pan="0" pos="3948" key="68" len="12" vol="106"/>
          <note pan="0" pos="3960" key="66" len="12" vol="106"/>
          <note pan="0" pos="3972" key="65" len="12" vol="106"/>
          <note pan="0" pos="3984" key="68" len="12" vol="106"/>
          <note pan="0" pos="3996" key="66" len="12" vol="106"/>
          <note pan="0" pos="4008" key="65" len="12" vol="106"/>
          <note pan="0" pos="4020" key="66" len="12" vol="106"/>
        </pattern>
        <pattern type="1" pos="40320" muted="0" name="" steps="16">
          <note pan="0" pos="0" key="69" len="12" vol="78"/>
          <note pan="0" pos="0" key="1" len="48" vol="200"/>
          <note pan="0" pos="12" key="68" len="12" vol="78"/>
          <note pan="0" pos="24" key="66" len="12" vol="78"/>
          <note pan="0" pos="36" key="68" len="12" vol="78"/>
          <note pan="0" pos="48" key="69" len="12" vol="78"/>
          <note pan="0" pos="60" key="68" len="12" vol="78"/>
          <note pan="0" pos="72" key="66" len="12" vol="78"/>
          <note pan="0" pos="84" key="68" len="12" vol="78"/>
          <note pan="0" pos="96" key="73" len="12" vol="78"/>
          <note pan="0" pos="108" key="71" len="12" vol="78"/>
          <note pan="0" pos="120" key="69" len="12" vol="78"/>
          <note pan="0" pos="132" key="71" len="12" vol="78"/>
          <note pan="0" pos="144" key="73" len="12" vol="78"/>
          <note pan="0" pos="156" key="75" len="12" vol="78"/>
          <note pan="0" pos="168" key="76" len="12" vol="78"/>
          <note pan="0" pos="180" key="75" len="12" vol="78"/>
          <note pan="0" pos="192" key="76" len="12" vol="78"/>
          <note pan="0" pos="204" key="75" len="12" vol="78"/>
          <note pan="0" pos="216" key="73" len="12" vol="78"/>
          <note pan="0" pos="228" key="75" len="12" vol="78"/>
          <note pan="0" pos="240" key="76" len="12" vol="78"/>
          <note pan="0" pos="240" key="0" len="48" vol="200"/>
          <note pan="0" pos="252" key="75" len="12" vol="78"/>
          <note pan="0" pos="264" key="73" len="12" vol="78"/>
          <note pan="0" pos="276" key="75" len="12" vol="78"/>
          <note pan="0" pos="288" key="76" len="12" vol="78"/>
          <note pan="0" pos="300" key="78" len="12" vol="78"/>
          <note pan="0" pos="312" key="80" len="12" vol="78"/>
          <note pan="0" pos="324" key="81" len="12" vol="78"/>
          <note pan="0" pos="336" key="83" len="12" vol="78"/>
          <note pan="0" pos="348" key="76" len="12" vol="78"/>
          <note pan="0" pos="348" key="1" len="12" vol="200"/>
          <note pan="0" pos="360" key="75" len="12" vol="78"/>
          <note pan="0" pos="372" key="76" len="12" vol="78"/>
        </pattern>
        <pattern type="1" pos="40704" muted="0" name="lgtH1" steps="16">
          <note pan="0" pos="0" key="83" len="48" vol="78"/>
          <note pan="0" pos="0" key="0" len="48" vol="100"/>
          <note pan="0" pos="48" key="81" len="12" vol="78"/>
          <note pan="0" pos="60" key="83" len="12" vol="78"/>
          <note pan="0" pos="72" key="81" len="48" vol="78"/>
          <note pan="0" pos="120" key="80" len="12" vol="78"/>
          <note pan="0" pos="132" key="81" len="12" vol="78"/>
          <note pan="0" pos="144" key="80" len="12" vol="78"/>
          <note pan="0" pos="144" key="0" len="12" vol="78"/>
          <note pan="0" pos="156" key="78" len="12" vol="78"/>
          <note pan="0" pos="156" key="1" len="12" vol="78"/>
          <note pan="0" pos="168" key="76" len="12" vol="78"/>
          <note pan="0" pos="180" key="80" len="12" vol="78"/>
          <note pan="0" pos="192" key="78" len="48" vol="78"/>
          <note pan="0" pos="192" key="0" len="12" vol="78"/>
          <note pan="0" pos="240" key="76" len="12" vol="78"/>
          <note pan="0" pos="240" key="1" len="12" vol="78"/>
          <note pan="0" pos="252" key="75" len="12" vol="78"/>
          <note pan="0" pos="264" key="76" len="12" vol="78"/>
          <note pan="0" pos="276" key="78" len="12" vol="78"/>
          <note pan="0" pos="288" key="80" len="12" vol="78"/>
          <note pan="0" pos="288" key="0" len="12" vol="78"/>
          <note pan="0" pos="300" key="81" len="12" vol="78"/>
          <note pan="0" pos="312" key="80" len="12" vol="78"/>
          <note pan="0" pos="324" key="78" len="12" vol="78"/>
          <note pan="0" pos="336" key="80" len="12" vol="78"/>
          <note pan="0" pos="348" key="78" len="12" vol="78"/>
          <note pan="0" pos="360" key="76" len="12" vol="78"/>
          <note pan="0" pos="360" key="1" len="12" vol="78"/>
          <note pan="0" pos="372" key="75" len="12" vol="78"/>
        </pattern>
        <pattern type="1" pos="41088" muted="0" name="lgtH1" steps="16">
          <note pan="0" pos="0" key="80" len="12" vol="78"/>
          <note pan="0" pos="0" key="0" len="12" vol="78"/>
          <note pan="0" pos="12" key="76" len="12" vol="78"/>
          <note pan="0" pos="24" key="75" len="12" vol="78"/>
          <note pan="0" pos="24" key="1" len="12" vol="78"/>
          <note pan="0" pos="36" key="76" len="12" vol="78"/>
          <note pan="0" pos="48" key="73" len="12" vol="78"/>
          <note pan="0" pos="60" key="76" len="12" vol="78"/>
          <note pan="0" pos="72" key="75" len="12" vol="78"/>
          <note pan="0" pos="84" key="76" len="12" vol="78"/>
          <note pan="0" pos="96" key="80" len="12" vol="78"/>
          <note pan="0" pos="96" key="0" len="12" vol="78"/>
          <note pan="0" pos="108" key="76" len="12" vol="78"/>
          <note pan="0" pos="120" key="75" len="12" vol="78"/>
          <note pan="0" pos="120" key="1" len="12" vol="78"/>
          <note pan="0" pos="132" key="76" len="12" vol="78"/>
          <note pan="0" pos="144" key="73" len="12" vol="78"/>
          <note pan="0" pos="156" key="76" len="12" vol="78"/>
          <note pan="0" pos="168" key="75" len="12" vol="78"/>
          <note pan="0" pos="180" key="76" len="12" vol="78"/>
          <note pan="0" pos="192" key="80" len="12" vol="78"/>
          <note pan="0" pos="192" key="0" len="12" vol="78"/>
          <note pan="0" pos="204" key="75" len="12" vol="78"/>
          <note pan="0" pos="216" key="73" len="12" vol="78"/>
          <note pan="0" pos="216" key="1" len="12" vol="78"/>
          <note pan="0" pos="228" key="75" len="12" vol="78"/>
          <note pan="0" pos="240" key="71" len="12" vol="78"/>
          <note pan="0" pos="252" key="75" len="12" vol="78"/>
          <note pan="0" pos="264" key="73" len="12" vol="78"/>
          <note pan="0" pos="276" key="75" len="12" vol="78"/>
          <note pan="0" pos="288" key="80" len="12" vol="78"/>
          <note pan="0" pos="288" key="0" len="12" vol="78"/>
          <note pan="0" pos="300" key="75" len="12" vol="78"/>
          <note pan="0" pos="312" key="73" len="12" vol="78"/>
          <note pan="0" pos="312" key="1" len="12" vol="78"/>
          <note pan="0" pos="324" key="75" len="12" vol="78"/>
          <note pan="0" pos="336" key="71" len="12" vol="78"/>
          <note pan="0" pos="348" key="75" len="12" vol="78"/>
          <note pan="0" pos="360" key="73" len="12" vol="78"/>
          <note pan="0" pos="372" key="75" len="12" vol="78"/>
        </pattern>
        <pattern type="1" pos="41472" muted="0" name="lgtH1" steps="16">
          <note pan="0" pos="0" key="82" len="12" vol="78"/>
          <note pan="0" pos="0" key="0" len="12" vol="78"/>
          <note pan="0" pos="12" key="78" len="12" vol="78"/>
          <note pan="0" pos="24" key="73" len="12" vol="78"/>
          <note pan="0" pos="24" key="1" len="12" vol="78"/>
          <note pan="0" pos="36" key="78" len="12" vol="78"/>
          <note pan="0" pos="48" key="70" len="12" vol="78"/>
          <note pan="0" pos="60" key="78" len="12" vol="78"/>
          <note pan="0" pos="72" key="73" len="12" vol="78"/>
          <note pan="0" pos="84" key="78" len="12" vol="78"/>
          <note pan="0" pos="96" key="82" len="12" vol="78"/>
          <note pan="0" pos="108" key="78" len="12" vol="78"/>
          <note pan="0" pos="120" key="73" len="12" vol="78"/>
          <note pan="0" pos="132" key="78" len="12" vol="78"/>
          <note pan="0" pos="144" key="70" len="12" vol="78"/>
          <note pan="0" pos="156" key="78" len="12" vol="78"/>
          <note pan="0" pos="168" key="73" len="12" vol="78"/>
          <note pan="0" pos="180" key="78" len="12" vol="78"/>
        </pattern>
        <pattern type="1" pos="41664" muted="0" name="" steps="16">
          <note pan="0" pos="0" key="82" len="12" vol="78"/>
          <note pan="0" pos="0" key="0" len="12" vol="78"/>
          <note pan="0" pos="12" key="78" len="12" vol="78"/>
          <note pan="0" pos="24" key="73" len="12" vol="78"/>
          <note pan="0" pos="24" key="1" len="12" vol="78"/>
          <note pan="0" pos="36" key="70" len="12" vol="78"/>
          <note pan="0" pos="48" key="73" len="12" vol="78"/>
          <note pan="0" pos="60" key="70" len="12" vol="78"/>
          <note pan="0" pos="72" key="66" len="12" vol="78"/>
          <note pan="0" pos="84" key="70" len="12" vol="78"/>
          <note pan="0" pos="96" key="78" len="12" vol="78"/>
          <note pan="0" pos="108" key="73" len="12" vol="78"/>
          <note pan="0" pos="120" key="70" len="12" vol="78"/>
          <note pan="0" pos="132" key="73" len="12" vol="78"/>
          <note pan="0" pos="144" key="78" len="12" vol="78"/>
          <note pan="0" pos="156" key="82" len="12" vol="78"/>
          <note pan="0" pos="156" key="1" len="12" vol="78"/>
          <note pan="0" pos="168" key="85" len="12" vol="78"/>
          <note pan="0" pos="180" key="82" len="12" vol="78"/>
        </pattern>
        <pattern type="1" pos="41856" muted="0" name="lgtH1" steps="16">
          <note pan="0" pos="0" key="86" len="24" vol="78"/>
          <note pan="0" pos="0" key="0" len="48" vol="78"/>
          <note pan="0" pos="24" key="81" len="24" vol="78"/>
          <note pan="0" pos="48" key="76" len="24" vol="78"/>
          <note pan="0" pos="72" key="83" len="24" vol="78"/>
          <note pan="0" pos="96" key="85" len="24" vol="78"/>
          <note pan="0" pos="120" key="86" len="24" vol="78"/>
          <note pan="0" pos="144" key="85" len="24" vol="78"/>
          <note pan="0" pos="168" key="83" len="24" vol="78"/>
          <note pan="0" pos="192" key="85" len="12" vol="78"/>
          <note pan="0" pos="192" key="0" len="24" vol="78"/>
          <note pan="0" pos="204" key="81" len="12" vol="78"/>
          <note pan="0" pos="216" key="76" len="12" vol="78"/>
          <note pan="0" pos="216" key="1" len="24" vol="78"/>
          <note pan="0" pos="228" key="73" len="12" vol="78"/>
          <note pan="0" pos="240" key="69" len="12" vol="78"/>
          <note pan="0" pos="252" key="73" len="12" vol="78"/>
          <note pan="0" pos="264" key="81" len="12" vol="78"/>
          <note pan="0" pos="264" key="0" len="24" vol="78"/>
          <note pan="0" pos="276" key="76" len="12" vol="78"/>
          <note pan="0" pos="288" key="73" len="12" vol="78"/>
          <note pan="0" pos="288" key="1" len="24" vol="78"/>
          <note pan="0" pos="300" key="69" len="12" vol="78"/>
          <note pan="0" pos="312" key="73" len="12" vol="78"/>
          <note pan="0" pos="324" key="76" len="12" vol="78"/>
          <note pan="0" pos="336" key="85" len="12" vol="78"/>
          <note pan="0" pos="336" key="0" len="24" vol="78"/>
          <note pan="0" pos="348" key="83" len="12" vol="78"/>
          <note pan="0" pos="360" key="81" len="12" vol="78"/>
          <note pan="0" pos="360" key="1" len="24" vol="78"/>
          <note pan="0" pos="372" key="83" len="12" vol="78"/>
          <note pan="0" pos="384" key="87" len="384" vol="78"/>
          <note pan="0" pos="384" key="0" len="24" vol="78"/>
        </pattern>
      </track>
      <track type="0" muted="0" name="lgtH2" solo="0">
        <instrumenttrack pan="100" pitch="0" basenote="57" usemasterpitch="1" vol="200" fxch="12" pitchrange="1">
          <instrument name="carlapatchbay">
            <carlapatchbay>
              <CARLA-PROJECT VERSION="2.0">
                <EngineSettings>
                  <ForceStereo>false</ForceStereo>
                  <PreferPluginBridges>false</PreferPluginBridges>
                  <PreferUiBridges>true</PreferUiBridges>
                  <UIsAlwaysOnTop>false</UIsAlwaysOnTop>
                  <MaxParameters>200</MaxParameters>
                  <UIBridgesTimeout>4000</UIBridgesTimeout>
                  <LADSPA_PATH>/home/huggypie/.ladspa:/usr/lib/ladspa:/usr/local/lib/ladspa</LADSPA_PATH>
                  <DSSI_PATH>/home/huggypie/.dssi:/usr/lib/dssi:/usr/local/lib/dssi</DSSI_PATH>
                  <LV2_PATH>/home/huggypie/.lv2:/usr/lib/lv2:/usr/local/lib/lv2</LV2_PATH>
                  <VST2_PATH>/home/huggypie/.vst:/home/huggypie/.wine/drive_c/Program Files/VstPlugins:/usr/lib/lxvst:/usr/lib/vst:/usr/local/lib/lxvst:/usr/local/lib/vst/home/huggypie/.lxvst</VST2_PATH>
                  <VST3_PATH>/home/huggypie/.vst3:/home/huggypie/.wine/drive_c/Program Files/Common Files/VST3:/usr/lib/vst3:/usr/local/lib/vst3</VST3_PATH>
                  <SF2_PATH>/home/huggypie/.sounds/sf2/home/huggypie/.sounds/sf3:/home/huggypie/samples/soundfonts:/usr/share/soundfonts:/usr/share/sounds/sf2:/usr/share/sounds/sf3</SF2_PATH>
                  <SFZ_PATH>/home/huggypie/.sounds/sfz:/home/huggypie/samples:/home/huggypie/samples:/home/huggypie/samples/VSCO-2-CE-SFZ/VSCO-2-CE-SFZ:/usr/share/sounds/sfz</SFZ_PATH>
                </EngineSettings>
                <!-- sfizz -->
                <Plugin>
                  <Info>
                    <Type>LV2</Type>
                    <Name>sfizz</Name>
                    <URI>http://sfztools.github.io/sfizz</URI>
                  </Info>
                  <Data>
                    <Active>Yes</Active>
                    <ControlChannel>1</ControlChannel>
                    <Options>0x3f0</Options>
                    <Parameter>
                      <Index>0</Index>
                      <Name>Volume</Name>
                      <Symbol>volume</Symbol>
                      <Value>0</Value>
                    </Parameter>
                    <Parameter>
                      <Index>1</Index>
                      <Name>Polyphony</Name>
                      <Symbol>num_voices</Symbol>
                      <Value>64</Value>
                    </Parameter>
                    <Parameter>
                      <Index>2</Index>
                      <Name>Internal oversampling factor</Name>
                      <Symbol>oversampling</Symbol>
                      <Value>1</Value>
                    </Parameter>
                    <Parameter>
                      <Index>3</Index>
                      <Name>Preload size</Name>
                      <Symbol>preload_size</Symbol>
                      <Value>8192</Value>
                    </Parameter>
                    <Parameter>
                      <Index>5</Index>
                      <Name>Scala root key</Name>
                      <Symbol>scala_root_key</Symbol>
                      <Value>60</Value>
                    </Parameter>
                    <Parameter>
                      <Index>6</Index>
                      <Name>Tuning frequency</Name>
                      <Symbol>tuning_frequency</Symbol>
                      <Value>440</Value>
                    </Parameter>
                    <Parameter>
                      <Index>7</Index>
                      <Name>Stretched tuning</Name>
                      <Symbol>stretched_tuning</Symbol>
                      <Value>0</Value>
                    </Parameter>
                    <CustomData>
                      <Type>http://lv2plug.in/ns/ext/atom#Path</Type>
                      <Key>http://sfztools.github.io/sfizz:sfzfile</Key>
                      <Value>../samples/fakeguitar/_fakeguitar2_integrated.sfz</Value>
                    </CustomData>
                    <CustomData>
                      <Type>http://lv2plug.in/ns/ext/atom#Int</Type>
                      <Key>http://sfztools.github.io/sfizz:numvoices</Key>
                      <Value>QAAAAA==</Value>
                    </CustomData>
                    <CustomData>
                      <Type>http://lv2plug.in/ns/ext/atom#Int</Type>
                      <Key>http://sfztools.github.io/sfizz:preload_size</Key>
                      <Value>ACAAAA==</Value>
                    </CustomData>
                    <CustomData>
                      <Type>http://lv2plug.in/ns/ext/atom#Int</Type>
                      <Key>http://sfztools.github.io/sfizz:oversampling</Key>
                      <Value>AQAAAA==</Value>
                    </CustomData>
                    <CustomData>
                      <Type>http://lv2plug.in/ns/ext/atom#Path</Type>
                      <Key>http://sfztools.github.io/sfizz:tuningfile</Key>
                      <Value>../../../usr/lib/lv2/sfizz.lv2//Contents/Resources/DefaultScale.scl</Value>
                    </CustomData>
                  </Data>
                </Plugin>
                <Patchbay>
                  <Connection>
                    <Source>Midi Input:Capture 1</Source>
                    <Target>sfizz:events-in</Target>
                  </Connection>
                  <Connection>
                    <Source>sfizz:Left Output</Source>
                    <Target>Audio Output:Left</Target>
                  </Connection>
                  <Connection>
                    <Source>sfizz:Right Output</Source>
                    <Target>Audio Output:Right</Target>
                  </Connection>
                </Patchbay>
              </CARLA-PROJECT>
            </carlapatchbay>
          </instrument>
          <eldata fres="0.5" fcut="14000" fwet="0" ftype="0">
            <elvol lspd_numerator="4" userwavefile="" lshp="0" x100="0" amt="0" lspd_syncmode="0" ctlenvamt="0" dec="0.5" hold="0.5" lspd_denominator="4" sustain="0.5" lamt="0" lspd="0.1" pdel="0" att="0" lpdel="0" latt="0" rel="0.1"/>
            <elcut lspd_numerator="4" userwavefile="" lshp="0" x100="0" amt="0" lspd_syncmode="0" ctlenvamt="0" dec="0.5" hold="0.5" lspd_denominator="4" sustain="0.5" lamt="0" lspd="0.1" pdel="0" att="0" lpdel="0" latt="0" rel="0.1"/>
            <elres lspd_numerator="4" userwavefile="" lshp="0" x100="0" amt="0" lspd_syncmode="0" ctlenvamt="0" dec="0.5" hold="0.5" lspd_denominator="4" sustain="0.5" lamt="0" lspd="0.1" pdel="0" att="0" lpdel="0" latt="0" rel="0.1"/>
          </eldata>
          <chordcreator chordrange="1" chord="0" chord-enabled="0"/>
          <arpeggiator arpskip="0" arpmiss="0" arp-enabled="0" arpgate="100" arpdir="0" arpcycle="0" arprange="1" arptime_numerator="4" arptime_denominator="4" arptime_syncmode="0" arptime="200" arp="0" arpmode="0"/>
          <midiport outputcontroller="0" inputchannel="0" outputchannel="1" fixedoutputvelocity="-1" readable="0" inputcontroller="0" basevelocity="63" fixedoutputnote="-1" fixedinputvelocity="-1" outputprogram="1" writable="0"/>
          <fxchain enabled="0" numofeffects="0"/>
        </instrumenttrack>
        <pattern type="1" pos="5376" muted="0" name="lgtH2" steps="16">
          <note pan="0" pos="0" key="68" len="24" vol="78"/>
          <note pan="0" pos="0" key="0" len="24" vol="78"/>
          <note pan="0" pos="24" key="71" len="24" vol="78"/>
          <note pan="0" pos="48" key="68" len="24" vol="78"/>
          <note pan="0" pos="72" key="75" len="48" vol="78"/>
          <note pan="0" pos="120" key="68" len="24" vol="78"/>
          <note pan="0" pos="144" key="71" len="24" vol="78"/>
          <note pan="0" pos="168" key="75" len="24" vol="78"/>
          <note pan="0" pos="192" key="76" len="24" vol="78"/>
          <note pan="0" pos="216" key="75" len="24" vol="78"/>
          <note pan="0" pos="240" key="73" len="24" vol="78"/>
          <note pan="0" pos="264" key="71" len="24" vol="78"/>
          <note pan="0" pos="288" key="75" len="24" vol="78"/>
          <note pan="0" pos="312" key="73" len="24" vol="78"/>
          <note pan="0" pos="336" key="71" len="24" vol="78"/>
          <note pan="0" pos="360" key="68" len="24" vol="78"/>
        </pattern>
        <pattern type="1" pos="6144" muted="0" name="lgtH2" steps="16">
          <note pan="0" pos="0" key="75" len="24" vol="78"/>
          <note pan="0" pos="0" key="0" len="24" vol="78"/>
          <note pan="0" pos="24" key="64" len="24" vol="78"/>
          <note pan="0" pos="48" key="68" len="24" vol="78"/>
          <note pan="0" pos="72" key="71" len="48" vol="78"/>
          <note pan="0" pos="120" key="68" len="24" vol="78"/>
          <note pan="0" pos="144" key="71" len="24" vol="78"/>
          <note pan="0" pos="168" key="75" len="24" vol="78"/>
          <note pan="0" pos="180" key="1" len="24" vol="78"/>
          <note pan="0" pos="192" key="73" len="12" vol="78"/>
          <note pan="0" pos="204" key="73" len="12" vol="78"/>
          <note pan="0" pos="216" key="68" len="12" vol="78"/>
          <note pan="0" pos="228" key="68" len="12" vol="78"/>
          <note pan="0" pos="240" key="64" len="12" vol="78"/>
          <note pan="0" pos="252" key="64" len="12" vol="78"/>
          <note pan="0" pos="264" key="61" len="12" vol="78"/>
          <note pan="0" pos="276" key="61" len="12" vol="78"/>
          <note pan="0" pos="288" key="66" len="12" vol="78"/>
          <note pan="0" pos="300" key="66" len="12" vol="78"/>
          <note pan="0" pos="312" key="64" len="12" vol="78"/>
          <note pan="0" pos="324" key="64" len="12" vol="78"/>
          <note pan="0" pos="336" key="68" len="12" vol="78"/>
          <note pan="0" pos="348" key="68" len="12" vol="78"/>
          <note pan="0" pos="360" key="64" len="12" vol="78"/>
          <note pan="0" pos="372" key="64" len="12" vol="78"/>
          <note pan="0" pos="384" key="0" len="24" vol="78"/>
        </pattern>
        <pattern type="1" pos="7104" muted="0" name="lgtH2" steps="16">
          <note pan="0" pos="0" key="0" len="72" vol="78"/>
          <note pan="0" pos="96" key="64" len="48" vol="78"/>
          <note pan="0" pos="144" key="68" len="48" vol="78"/>
          <note pan="0" pos="192" key="68" len="96" vol="78"/>
          <note pan="0" pos="288" key="68" len="24" vol="78"/>
          <note pan="0" pos="312" key="64" len="24" vol="78"/>
          <note pan="0" pos="336" key="68" len="24" vol="78"/>
          <note pan="0" pos="360" key="76" len="168" vol="78"/>
          <note pan="0" pos="528" key="76" len="24" vol="78"/>
          <note pan="0" pos="552" key="75" len="24" vol="78"/>
          <note pan="0" pos="576" key="73" len="48" vol="78"/>
          <note pan="0" pos="624" key="70" len="48" vol="78"/>
          <note pan="0" pos="672" key="66" len="48" vol="78"/>
          <note pan="0" pos="720" key="63" len="48" vol="78"/>
          <note pan="0" pos="768" key="66" len="96" vol="78"/>
          <note pan="0" pos="864" key="64" len="96" vol="78"/>
          <note pan="0" pos="960" key="68" len="144" vol="78"/>
          <note pan="0" pos="1104" key="73" len="48" vol="78"/>
          <note pan="0" pos="1152" key="71" len="144" vol="78"/>
          <note pan="0" pos="1296" key="76" len="48" vol="78"/>
          <note pan="0" pos="1344" key="76" len="144" vol="78"/>
          <note pan="0" pos="1488" key="75" len="24" vol="78"/>
          <note pan="0" pos="1512" key="73" len="24" vol="78"/>
          <note pan="0" pos="1536" key="71" len="48" vol="78"/>
          <note pan="0" pos="1584" key="73" len="48" vol="78"/>
          <note pan="0" pos="1632" key="68" len="48" vol="78"/>
          <note pan="0" pos="1680" key="64" len="48" vol="78"/>
          <note pan="0" pos="1728" key="66" len="96" vol="78"/>
          <note pan="0" pos="1824" key="69" len="48" vol="78"/>
          <note pan="0" pos="1872" key="73" len="48" vol="78"/>
          <note pan="0" pos="1920" key="73" len="96" vol="78"/>
          <note pan="0" pos="2016" key="71" len="48" vol="78"/>
          <note pan="0" pos="2064" key="73" len="48" vol="78"/>
          <note pan="0" pos="2112" key="80" len="72" vol="78"/>
          <note pan="0" pos="2184" key="78" len="72" vol="78"/>
          <note pan="0" pos="2256" key="76" len="48" vol="78"/>
          <note pan="0" pos="2304" key="75" len="192" vol="78"/>
          <note pan="0" pos="2496" key="73" len="72" vol="78"/>
          <note pan="0" pos="2568" key="71" len="72" vol="78"/>
          <note pan="0" pos="2640" key="73" len="48" vol="78"/>
          <note pan="0" pos="2688" key="76" len="144" vol="78"/>
          <note pan="0" pos="2832" key="71" len="48" vol="78"/>
          <note pan="0" pos="2880" key="70" len="240" vol="78"/>
          <note pan="0" pos="3120" key="73" len="48" vol="78"/>
          <note pan="0" pos="3168" key="75" len="48" vol="78"/>
          <note pan="0" pos="3216" key="76" len="48" vol="78"/>
          <note pan="0" pos="3264" key="78" len="72" vol="78"/>
          <note pan="0" pos="3336" key="76" len="72" vol="78"/>
          <note pan="0" pos="3408" key="75" len="48" vol="78"/>
          <note pan="0" pos="3456" key="73" len="48" vol="78"/>
          <note pan="0" pos="3504" key="68" len="48" vol="78"/>
          <note pan="0" pos="3552" key="73" len="48" vol="78"/>
          <note pan="0" pos="3600" key="76" len="48" vol="78"/>
          <note pan="0" pos="3648" key="75" len="192" vol="78"/>
          <note pan="0" pos="3840" key="71" len="96" vol="78"/>
          <note pan="0" pos="3936" key="68" len="96" vol="78"/>
          <note pan="0" pos="4032" key="68" len="384" vol="78"/>
        </pattern>
        <pattern type="1" pos="13056" muted="0" name="lgtH2" steps="16">
          <note pan="0" pos="0" key="68" len="24" vol="78"/>
          <note pan="0" pos="0" key="0" len="24" vol="78"/>
          <note pan="0" pos="24" key="71" len="24" vol="78"/>
          <note pan="0" pos="48" key="68" len="24" vol="78"/>
          <note pan="0" pos="72" key="75" len="48" vol="78"/>
          <note pan="0" pos="120" key="68" len="24" vol="78"/>
          <note pan="0" pos="144" key="71" len="24" vol="78"/>
          <note pan="0" pos="168" key="75" len="24" vol="78"/>
          <note pan="0" pos="192" key="76" len="24" vol="78"/>
          <note pan="0" pos="216" key="75" len="24" vol="78"/>
          <note pan="0" pos="240" key="73" len="24" vol="78"/>
          <note pan="0" pos="264" key="71" len="24" vol="78"/>
          <note pan="0" pos="288" key="75" len="24" vol="78"/>
          <note pan="0" pos="312" key="73" len="24" vol="78"/>
          <note pan="0" pos="336" key="71" len="24" vol="78"/>
          <note pan="0" pos="360" key="68" len="24" vol="78"/>
        </pattern>
        <pattern type="1" pos="13824" muted="0" name="lgtH2" steps="16">
          <note pan="0" pos="0" key="75" len="24" vol="78"/>
          <note pan="0" pos="0" key="0" len="12" vol="78"/>
          <note pan="0" pos="12" key="1" len="12" vol="78"/>
          <note pan="0" pos="24" key="64" len="12" vol="78"/>
          <note pan="0" pos="36" key="64" len="12" vol="78"/>
          <note pan="0" pos="48" key="68" len="24" vol="78"/>
          <note pan="0" pos="48" key="0" len="12" vol="78"/>
          <note pan="0" pos="72" key="71" len="48" vol="78"/>
          <note pan="0" pos="120" key="68" len="24" vol="78"/>
          <note pan="0" pos="144" key="71" len="24" vol="78"/>
          <note pan="0" pos="168" key="75" len="24" vol="78"/>
          <note pan="0" pos="192" key="73" len="24" vol="78"/>
          <note pan="0" pos="216" key="68" len="24" vol="78"/>
          <note pan="0" pos="240" key="64" len="24" vol="78"/>
          <note pan="0" pos="264" key="61" len="24" vol="78"/>
          <note pan="0" pos="288" key="66" len="24" vol="78"/>
          <note pan="0" pos="312" key="64" len="24" vol="78"/>
          <note pan="0" pos="336" key="68" len="24" vol="78"/>
          <note pan="0" pos="360" key="64" len="24" vol="78"/>
        </pattern>
        <pattern type="1" pos="14784" muted="0" name="lgtH2" steps="16">
          <note pan="0" pos="0" key="0" len="72" vol="78"/>
          <note pan="0" pos="96" key="64" len="48" vol="78"/>
          <note pan="0" pos="144" key="68" len="48" vol="78"/>
          <note pan="0" pos="192" key="68" len="96" vol="78"/>
          <note pan="0" pos="288" key="68" len="24" vol="78"/>
          <note pan="0" pos="312" key="64" len="24" vol="78"/>
          <note pan="0" pos="336" key="68" len="24" vol="78"/>
          <note pan="0" pos="360" key="76" len="168" vol="78"/>
          <note pan="0" pos="528" key="76" len="24" vol="78"/>
          <note pan="0" pos="552" key="75" len="24" vol="78"/>
          <note pan="0" pos="576" key="73" len="48" vol="78"/>
          <note pan="0" pos="624" key="70" len="48" vol="78"/>
          <note pan="0" pos="672" key="66" len="48" vol="78"/>
          <note pan="0" pos="720" key="63" len="48" vol="78"/>
          <note pan="0" pos="768" key="66" len="96" vol="78"/>
          <note pan="0" pos="864" key="64" len="96" vol="78"/>
          <note pan="0" pos="960" key="68" len="144" vol="78"/>
          <note pan="0" pos="1104" key="73" len="48" vol="78"/>
          <note pan="0" pos="1152" key="71" len="144" vol="78"/>
          <note pan="0" pos="1296" key="76" len="48" vol="78"/>
          <note pan="0" pos="1344" key="76" len="144" vol="78"/>
          <note pan="0" pos="1488" key="75" len="24" vol="78"/>
          <note pan="0" pos="1512" key="73" len="24" vol="78"/>
          <note pan="0" pos="1536" key="71" len="48" vol="78"/>
          <note pan="0" pos="1584" key="73" len="48" vol="78"/>
          <note pan="0" pos="1632" key="68" len="48" vol="78"/>
          <note pan="0" pos="1680" key="64" len="48" vol="78"/>
          <note pan="0" pos="1728" key="66" len="96" vol="78"/>
          <note pan="0" pos="1824" key="69" len="48" vol="78"/>
          <note pan="0" pos="1872" key="73" len="48" vol="78"/>
          <note pan="0" pos="1920" key="73" len="96" vol="78"/>
          <note pan="0" pos="2016" key="71" len="48" vol="78"/>
          <note pan="0" pos="2064" key="73" len="48" vol="78"/>
          <note pan="0" pos="2112" key="80" len="72" vol="78"/>
          <note pan="0" pos="2184" key="78" len="72" vol="78"/>
          <note pan="0" pos="2256" key="76" len="48" vol="78"/>
          <note pan="0" pos="2304" key="75" len="192" vol="78"/>
          <note pan="0" pos="2496" key="73" len="72" vol="78"/>
          <note pan="0" pos="2568" key="71" len="72" vol="78"/>
          <note pan="0" pos="2640" key="73" len="48" vol="78"/>
          <note pan="0" pos="2688" key="76" len="144" vol="78"/>
          <note pan="0" pos="2832" key="71" len="48" vol="78"/>
          <note pan="0" pos="2880" key="70" len="240" vol="78"/>
          <note pan="0" pos="3120" key="73" len="48" vol="78"/>
          <note pan="0" pos="3168" key="75" len="48" vol="78"/>
          <note pan="0" pos="3216" key="76" len="48" vol="78"/>
          <note pan="0" pos="3264" key="78" len="72" vol="78"/>
          <note pan="0" pos="3336" key="76" len="72" vol="78"/>
          <note pan="0" pos="3408" key="75" len="48" vol="78"/>
          <note pan="0" pos="3456" key="73" len="48" vol="78"/>
          <note pan="0" pos="3504" key="68" len="48" vol="78"/>
          <note pan="0" pos="3552" key="73" len="48" vol="78"/>
          <note pan="0" pos="3600" key="76" len="48" vol="78"/>
          <note pan="0" pos="3648" key="75" len="192" vol="78"/>
          <note pan="0" pos="3840" key="71" len="96" vol="78"/>
          <note pan="0" pos="3936" key="68" len="96" vol="78"/>
        </pattern>
        <pattern type="1" pos="18816" muted="0" name="lgtH2" steps="16">
          <note pan="0" pos="0" key="68" len="336" vol="78"/>
          <note pan="0" pos="336" key="61" len="48" vol="78"/>
          <note pan="0" pos="384" key="59" len="288" vol="78"/>
          <note pan="0" pos="672" key="52" len="48" vol="78"/>
          <note pan="0" pos="720" key="56" len="48" vol="78"/>
          <note pan="0" pos="768" key="58" len="240" vol="78"/>
          <note pan="0" pos="1008" key="56" len="48" vol="78"/>
          <note pan="0" pos="1056" key="58" len="48" vol="78"/>
          <note pan="0" pos="1104" key="64" len="48" vol="78"/>
          <note pan="0" pos="1152" key="62" len="192" vol="78"/>
          <note pan="0" pos="1344" key="66" len="48" vol="78"/>
          <note pan="0" pos="1392" key="64" len="24" vol="78"/>
          <note pan="0" pos="1416" key="64" len="12" vol="78"/>
          <note pan="0" pos="1424" key="66" len="12" vol="78"/>
          <note pan="0" pos="1432" key="64" len="12" vol="78"/>
          <note pan="0" pos="1440" key="63" len="48" vol="78"/>
          <note pan="0" pos="1488" key="64" len="48" vol="78"/>
          <note pan="0" pos="1536" key="61" len="240" vol="78"/>
          <note pan="0" pos="1776" key="56" len="48" vol="78"/>
          <note pan="0" pos="1824" key="61" len="48" vol="78"/>
          <note pan="0" pos="1872" key="64" len="48" vol="78"/>
          <note pan="0" pos="1920" key="64" len="192" vol="78"/>
          <note pan="0" pos="2112" key="63" len="144" vol="78"/>
          <note pan="0" pos="2256" key="64" len="48" vol="78"/>
          <note pan="0" pos="2304" key="56" len="240" vol="78"/>
          <note pan="0" pos="2544" key="52" len="48" vol="78"/>
          <note pan="0" pos="2592" key="56" len="48" vol="78"/>
          <note pan="0" pos="2640" key="64" len="48" vol="78"/>
          <note pan="0" pos="2688" key="68" len="192" vol="78"/>
          <note pan="0" pos="2880" key="68" len="192" vol="78"/>
        </pattern>
        <pattern type="1" pos="30336" muted="0" name="lgtH2" steps="16">
          <note pan="0" pos="0" key="69" len="12" vol="197"/>
          <note pan="0" pos="0" key="1" len="12" vol="197"/>
          <note pan="0" pos="12" key="69" len="12" vol="197"/>
          <note pan="0" pos="24" key="68" len="12" vol="197"/>
          <note pan="0" pos="36" key="68" len="12" vol="197"/>
          <note pan="0" pos="48" key="66" len="12" vol="197"/>
          <note pan="0" pos="60" key="66" len="12" vol="197"/>
          <note pan="0" pos="72" key="73" len="12" vol="197"/>
          <note pan="0" pos="84" key="73" len="12" vol="197"/>
          <note pan="0" pos="96" key="71" len="12" vol="197"/>
          <note pan="0" pos="108" key="71" len="12" vol="197"/>
          <note pan="0" pos="120" key="69" len="12" vol="197"/>
          <note pan="0" pos="132" key="69" len="12" vol="197"/>
          <note pan="0" pos="144" key="71" len="12" vol="197"/>
          <note pan="0" pos="156" key="71" len="12" vol="197"/>
          <note pan="0" pos="168" key="73" len="12" vol="197"/>
          <note pan="0" pos="180" key="73" len="12" vol="197"/>
          <note pan="0" pos="192" key="74" len="48" vol="197"/>
          <note pan="0" pos="192" key="0" len="48" vol="197"/>
          <note pan="0" pos="240" key="73" len="12" vol="197"/>
          <note pan="0" pos="240" key="2" len="12" vol="197"/>
          <note pan="0" pos="252" key="74" len="12" vol="197"/>
          <note pan="0" pos="264" key="76" len="12" vol="197"/>
          <note pan="0" pos="264" key="0" len="12" vol="197"/>
          <note pan="0" pos="276" key="78" len="12" vol="197"/>
          <note pan="0" pos="288" key="80" len="12" vol="197"/>
          <note pan="0" pos="288" key="0" len="12" vol="197"/>
          <note pan="0" pos="300" key="78" len="12" vol="197"/>
          <note pan="0" pos="300" key="1" len="12" vol="197"/>
          <note pan="0" pos="312" key="76" len="12" vol="197"/>
          <note pan="0" pos="324" key="78" len="12" vol="197"/>
          <note pan="0" pos="336" key="81" len="12" vol="197"/>
          <note pan="0" pos="336" key="0" len="12" vol="197"/>
          <note pan="0" pos="348" key="80" len="12" vol="197"/>
          <note pan="0" pos="348" key="1" len="12" vol="197"/>
          <note pan="0" pos="360" key="78" len="12" vol="197"/>
          <note pan="0" pos="372" key="80" len="12" vol="197"/>
          <note pan="0" pos="384" key="80" len="24" vol="197"/>
          <note pan="0" pos="384" key="0" len="48" vol="197"/>
          <note pan="0" pos="408" key="81" len="24" vol="197"/>
          <note pan="0" pos="456" key="78" len="48" vol="197"/>
          <note pan="0" pos="492" key="1" len="12" vol="197"/>
          <note pan="0" pos="504" key="74" len="12" vol="197"/>
          <note pan="0" pos="516" key="74" len="12" vol="197"/>
          <note pan="0" pos="528" key="78" len="12" vol="197"/>
          <note pan="0" pos="540" key="78" len="12" vol="197"/>
          <note pan="0" pos="552" key="80" len="12" vol="197"/>
          <note pan="0" pos="564" key="80" len="12" vol="197"/>
          <note pan="0" pos="576" key="83" len="24" vol="197"/>
          <note pan="0" pos="576" key="0" len="24" vol="197"/>
          <note pan="0" pos="600" key="81" len="12" vol="197"/>
          <note pan="0" pos="612" key="83" len="12" vol="197"/>
          <note pan="0" pos="624" key="85" len="24" vol="197"/>
          <note pan="0" pos="648" key="83" len="12" vol="197"/>
          <note pan="0" pos="660" key="85" len="12" vol="197"/>
          <note pan="0" pos="672" key="88" len="12" vol="197"/>
          <note pan="0" pos="684" key="86" len="12" vol="197"/>
          <note pan="0" pos="696" key="85" len="12" vol="197"/>
          <note pan="0" pos="708" key="83" len="12" vol="197"/>
          <note pan="0" pos="720" key="81" len="12" vol="197"/>
          <note pan="0" pos="732" key="80" len="12" vol="197"/>
          <note pan="0" pos="744" key="78" len="12" vol="197"/>
          <note pan="0" pos="756" key="76" len="12" vol="197"/>
        </pattern>
        <pattern type="1" pos="34944" muted="0" name="lgtH2" steps="16">
          <note pan="0" pos="0" key="68" len="144" vol="78"/>
          <note pan="0" pos="0" key="0" len="12" vol="140"/>
          <note pan="0" pos="144" key="73" len="48" vol="78"/>
          <note pan="0" pos="192" key="71" len="144" vol="78"/>
          <note pan="0" pos="336" key="76" len="48" vol="78"/>
          <note pan="0" pos="384" key="76" len="144" vol="78"/>
          <note pan="0" pos="528" key="75" len="24" vol="78"/>
          <note pan="0" pos="552" key="73" len="24" vol="78"/>
          <note pan="0" pos="576" key="71" len="48" vol="78"/>
          <note pan="0" pos="624" key="73" len="48" vol="78"/>
          <note pan="0" pos="672" key="66" len="12" vol="197"/>
          <note pan="0" pos="672" key="1" len="12" vol="197"/>
          <note pan="0" pos="684" key="68" len="12" vol="197"/>
          <note pan="0" pos="696" key="66" len="12" vol="197"/>
          <note pan="0" pos="708" key="64" len="12" vol="197"/>
          <note pan="0" pos="720" key="66" len="12" vol="197"/>
          <note pan="0" pos="732" key="64" len="12" vol="197"/>
          <note pan="0" pos="744" key="61" len="12" vol="197"/>
          <note pan="0" pos="756" key="64" len="12" vol="197"/>
          <note pan="0" pos="768" key="66" len="96" vol="78"/>
          <note pan="0" pos="768" key="0" len="12" vol="197"/>
          <note pan="0" pos="864" key="69" len="48" vol="78"/>
          <note pan="0" pos="912" key="73" len="48" vol="78"/>
          <note pan="0" pos="960" key="73" len="96" vol="78"/>
          <note pan="0" pos="1056" key="71" len="48" vol="78"/>
          <note pan="0" pos="1104" key="73" len="48" vol="78"/>
          <note pan="0" pos="1152" key="73" len="12" vol="197"/>
          <note pan="0" pos="1152" key="0" len="12" vol="200"/>
          <note pan="0" pos="1164" key="69" len="12" vol="197"/>
          <note pan="0" pos="1176" key="71" len="12" vol="197"/>
          <note pan="0" pos="1188" key="73" len="12" vol="197"/>
          <note pan="0" pos="1200" key="75" len="12" vol="197"/>
          <note pan="0" pos="1212" key="71" len="12" vol="197"/>
          <note pan="0" pos="1224" key="73" len="12" vol="197"/>
          <note pan="0" pos="1236" key="75" len="12" vol="197"/>
          <note pan="0" pos="1248" key="76" len="12" vol="197"/>
          <note pan="0" pos="1260" key="73" len="12" vol="197"/>
          <note pan="0" pos="1272" key="75" len="12" vol="197"/>
          <note pan="0" pos="1284" key="76" len="12" vol="197"/>
          <note pan="0" pos="1296" key="78" len="12" vol="197"/>
          <note pan="0" pos="1308" key="75" len="12" vol="197"/>
          <note pan="0" pos="1320" key="76" len="12" vol="197"/>
          <note pan="0" pos="1332" key="78" len="12" vol="197"/>
          <note pan="0" pos="1344" key="80" len="12" vol="200"/>
          <note pan="0" pos="1356" key="78" len="12" vol="200"/>
          <note pan="0" pos="1368" key="76" len="12" vol="200"/>
          <note pan="0" pos="1380" key="75" len="12" vol="200"/>
          <note pan="0" pos="1392" key="78" len="12" vol="200"/>
          <note pan="0" pos="1404" key="76" len="12" vol="200"/>
          <note pan="0" pos="1416" key="75" len="12" vol="200"/>
          <note pan="0" pos="1428" key="73" len="12" vol="200"/>
          <note pan="0" pos="1440" key="76" len="12" vol="200"/>
          <note pan="0" pos="1440" key="0" len="12" vol="200"/>
          <note pan="0" pos="1452" key="75" len="12" vol="200"/>
          <note pan="0" pos="1464" key="76" len="12" vol="200"/>
          <note pan="0" pos="1476" key="78" len="12" vol="200"/>
          <note pan="0" pos="1488" key="83" len="12" vol="200"/>
          <note pan="0" pos="1488" key="2" len="12" vol="200"/>
          <note pan="0" pos="1500" key="78" len="12" vol="200"/>
          <note pan="0" pos="1512" key="83" len="12" vol="200"/>
          <note pan="0" pos="1524" key="78" len="12" vol="200"/>
        </pattern>
        <pattern type="1" pos="31104" muted="0" name="lgtH2" steps="16">
          <note pan="0" pos="0" key="80" len="24" vol="197"/>
          <note pan="0" pos="0" key="1" len="24" vol="197"/>
          <note pan="0" pos="24" key="76" len="24" vol="197"/>
          <note pan="0" pos="48" key="78" len="24" vol="197"/>
          <note pan="0" pos="72" key="73" len="24" vol="197"/>
          <note pan="0" pos="96" key="76" len="24" vol="197"/>
          <note pan="0" pos="120" key="73" len="24" vol="197"/>
          <note pan="0" pos="144" key="71" len="24" vol="197"/>
          <note pan="0" pos="168" key="73" len="24" vol="197"/>
          <note pan="0" pos="192" key="76" len="24" vol="197"/>
          <note pan="0" pos="216" key="73" len="24" vol="197"/>
          <note pan="0" pos="240" key="76" len="24" vol="197"/>
          <note pan="0" pos="264" key="78" len="24" vol="197"/>
          <note pan="0" pos="288" key="80" len="24" vol="197"/>
          <note pan="0" pos="312" key="78" len="24" vol="197"/>
          <note pan="0" pos="336" key="76" len="24" vol="197"/>
          <note pan="0" pos="360" key="78" len="24" vol="197"/>
        </pattern>
        <pattern type="1" pos="31488" muted="0" name="lgtH2" steps="16">
          <note pan="0" pos="0" key="68" len="12" vol="197"/>
          <note pan="0" pos="0" key="0" len="24" vol="197"/>
          <note pan="0" pos="12" key="66" len="12" vol="197"/>
          <note pan="0" pos="12" key="1" len="24" vol="197"/>
          <note pan="0" pos="24" key="68" len="12" vol="197"/>
          <note pan="0" pos="36" key="69" len="12" vol="197"/>
          <note pan="0" pos="48" key="71" len="12" vol="197"/>
          <note pan="0" pos="48" key="0" len="12" vol="197"/>
          <note pan="0" pos="60" key="68" len="12" vol="197"/>
          <note pan="0" pos="60" key="1" len="12" vol="197"/>
          <note pan="0" pos="72" key="69" len="12" vol="197"/>
          <note pan="0" pos="84" key="71" len="12" vol="197"/>
          <note pan="0" pos="96" key="73" len="12" vol="197"/>
          <note pan="0" pos="96" key="0" len="12" vol="197"/>
          <note pan="0" pos="108" key="71" len="12" vol="197"/>
          <note pan="0" pos="108" key="1" len="12" vol="197"/>
          <note pan="0" pos="120" key="69" len="12" vol="197"/>
          <note pan="0" pos="132" key="71" len="12" vol="197"/>
          <note pan="0" pos="144" key="73" len="12" vol="197"/>
          <note pan="0" pos="156" key="75" len="12" vol="197"/>
          <note pan="0" pos="168" key="76" len="12" vol="197"/>
          <note pan="0" pos="180" key="78" len="12" vol="197"/>
          <note pan="0" pos="192" key="78" len="12" vol="197"/>
          <note pan="0" pos="204" key="75" len="12" vol="197"/>
          <note pan="0" pos="216" key="71" len="12" vol="197"/>
          <note pan="0" pos="228" key="66" len="12" vol="197"/>
          <note pan="0" pos="240" key="63" len="12" vol="197"/>
          <note pan="0" pos="252" key="66" len="12" vol="197"/>
          <note pan="0" pos="264" key="83" len="12" vol="197"/>
          <note pan="0" pos="276" key="75" len="12" vol="197"/>
          <note pan="0" pos="288" key="71" len="12" vol="197"/>
          <note pan="0" pos="300" key="66" len="12" vol="197"/>
          <note pan="0" pos="312" key="71" len="12" vol="197"/>
          <note pan="0" pos="324" key="75" len="12" vol="197"/>
          <note pan="0" pos="336" key="78" len="12" vol="197"/>
          <note pan="0" pos="348" key="75" len="12" vol="197"/>
          <note pan="0" pos="360" key="71" len="12" vol="197"/>
          <note pan="0" pos="372" key="75" len="12" vol="197"/>
        </pattern>
        <pattern type="1" pos="31872" muted="0" name="lgtH2" steps="16">
          <note pan="0" pos="0" key="80" len="240" vol="100"/>
          <note pan="0" pos="0" key="0" len="108" vol="100"/>
        </pattern>
        <pattern type="1" pos="37056" muted="0" name="lgtH2" steps="16">
          <note pan="0" pos="0" key="76" len="12" vol="197"/>
          <note pan="0" pos="0" key="0" len="12" vol="197"/>
          <note pan="0" pos="12" key="59" len="12" vol="197"/>
          <note pan="0" pos="12" key="2" len="12" vol="197"/>
          <note pan="0" pos="24" key="59" len="12" vol="197"/>
          <note pan="0" pos="24" key="0" len="12" vol="197"/>
          <note pan="0" pos="36" key="75" len="12" vol="197"/>
          <note pan="0" pos="36" key="0" len="12" vol="197"/>
          <note pan="0" pos="48" key="59" len="12" vol="197"/>
          <note pan="0" pos="48" key="2" len="12" vol="197"/>
          <note pan="0" pos="60" key="59" len="12" vol="197"/>
          <note pan="0" pos="60" key="0" len="12" vol="197"/>
          <note pan="0" pos="72" key="76" len="12" vol="197"/>
          <note pan="0" pos="72" key="0" len="12" vol="197"/>
          <note pan="0" pos="84" key="59" len="12" vol="197"/>
          <note pan="0" pos="84" key="2" len="12" vol="197"/>
          <note pan="0" pos="96" key="59" len="12" vol="197"/>
          <note pan="0" pos="96" key="0" len="12" vol="197"/>
          <note pan="0" pos="108" key="75" len="12" vol="197"/>
          <note pan="0" pos="108" key="0" len="12" vol="197"/>
          <note pan="0" pos="120" key="59" len="12" vol="197"/>
          <note pan="0" pos="120" key="2" len="12" vol="197"/>
          <note pan="0" pos="132" key="59" len="12" vol="197"/>
          <note pan="0" pos="132" key="0" len="12" vol="197"/>
          <note pan="0" pos="144" key="80" len="12" vol="197"/>
          <note pan="0" pos="144" key="0" len="12" vol="197"/>
          <note pan="0" pos="156" key="59" len="12" vol="197"/>
          <note pan="0" pos="156" key="2" len="12" vol="197"/>
          <note pan="0" pos="168" key="78" len="12" vol="197"/>
          <note pan="0" pos="168" key="0" len="12" vol="197"/>
          <note pan="0" pos="180" key="59" len="12" vol="197"/>
          <note pan="0" pos="180" key="2" len="12" vol="197"/>
        </pattern>
        <pattern type="1" pos="37248" muted="0" name="lgtH2" steps="16">
          <note pan="0" pos="0" key="73" len="12" vol="100"/>
          <note pan="0" pos="0" key="0" len="48" vol="100"/>
          <note pan="0" pos="12" key="71" len="12" vol="100"/>
          <note pan="0" pos="24" key="68" len="12" vol="100"/>
          <note pan="0" pos="24" key="1" len="12" vol="100"/>
          <note pan="0" pos="36" key="66" len="12" vol="100"/>
          <note pan="0" pos="48" key="64" len="12" vol="100"/>
          <note pan="0" pos="60" key="61" len="12" vol="100"/>
          <note pan="0" pos="72" key="64" len="12" vol="100"/>
          <note pan="0" pos="84" key="68" len="12" vol="100"/>
          <note pan="0" pos="96" key="73" len="12" vol="100"/>
          <note pan="0" pos="96" key="0" len="12" vol="100"/>
          <note pan="0" pos="108" key="71" len="12" vol="100"/>
          <note pan="0" pos="120" key="68" len="12" vol="100"/>
          <note pan="0" pos="120" key="1" len="12" vol="100"/>
          <note pan="0" pos="132" key="66" len="12" vol="100"/>
          <note pan="0" pos="144" key="64" len="12" vol="100"/>
          <note pan="0" pos="156" key="61" len="12" vol="100"/>
          <note pan="0" pos="168" key="64" len="12" vol="100"/>
          <note pan="0" pos="180" key="68" len="12" vol="100"/>
        </pattern>
        <pattern type="1" pos="37440" muted="0" name="lgtH2" steps="16">
          <note pan="0" pos="0" key="75" len="12" vol="197"/>
          <note pan="0" pos="0" key="0" len="12" vol="100"/>
          <note pan="0" pos="12" key="76" len="12" vol="197"/>
          <note pan="0" pos="24" key="75" len="12" vol="197"/>
          <note pan="0" pos="36" key="71" len="12" vol="197"/>
          <note pan="0" pos="36" key="1" len="12" vol="100"/>
          <note pan="0" pos="48" key="73" len="12" vol="197"/>
          <note pan="0" pos="60" key="68" len="12" vol="197"/>
          <note pan="0" pos="72" key="71" len="12" vol="197"/>
          <note pan="0" pos="72" key="0" len="12" vol="100"/>
          <note pan="0" pos="84" key="73" len="12" vol="197"/>
          <note pan="0" pos="96" key="78" len="12" vol="197"/>
          <note pan="0" pos="96" key="0" len="12" vol="100"/>
          <note pan="0" pos="108" key="80" len="12" vol="197"/>
          <note pan="0" pos="120" key="78" len="12" vol="197"/>
          <note pan="0" pos="132" key="76" len="12" vol="197"/>
          <note pan="0" pos="132" key="1" len="12" vol="100"/>
          <note pan="0" pos="144" key="78" len="12" vol="197"/>
          <note pan="0" pos="156" key="73" len="12" vol="197"/>
          <note pan="0" pos="168" key="75" len="12" vol="197"/>
          <note pan="0" pos="168" key="0" len="12" vol="100"/>
          <note pan="0" pos="180" key="76" len="12" vol="197"/>
        </pattern>
        <pattern type="1" pos="34752" muted="0" name="lgtH2" steps="16">
          <note pan="0" pos="96" key="76" len="12" vol="95"/>
          <note pan="0" pos="96" key="0" len="12" vol="95"/>
          <note pan="0" pos="108" key="78" len="12" vol="95"/>
          <note pan="0" pos="120" key="76" len="12" vol="95"/>
          <note pan="0" pos="132" key="75" len="12" vol="95"/>
          <note pan="0" pos="132" key="1" len="12" vol="95"/>
          <note pan="0" pos="144" key="76" len="12" vol="95"/>
          <note pan="0" pos="144" key="0" len="12" vol="95"/>
          <note pan="0" pos="156" key="75" len="12" vol="95"/>
          <note pan="0" pos="156" key="1" len="12" vol="95"/>
          <note pan="0" pos="168" key="73" len="12" vol="95"/>
          <note pan="0" pos="180" key="72" len="12" vol="95"/>
        </pattern>
        <pattern type="1" pos="37632" muted="0" name="lgtH2" steps="16">
          <note pan="0" pos="0" key="64" len="12" vol="197"/>
          <note pan="0" pos="0" key="1" len="12" vol="197"/>
          <note pan="0" pos="12" key="66" len="12" vol="197"/>
          <note pan="0" pos="24" key="64" len="12" vol="197"/>
          <note pan="0" pos="36" key="63" len="12" vol="197"/>
          <note pan="0" pos="48" key="66" len="12" vol="197"/>
          <note pan="0" pos="60" key="68" len="12" vol="197"/>
          <note pan="0" pos="72" key="66" len="12" vol="197"/>
          <note pan="0" pos="84" key="64" len="12" vol="197"/>
          <note pan="0" pos="96" key="68" len="12" vol="197"/>
          <note pan="0" pos="96" key="0" len="12" vol="197"/>
          <note pan="0" pos="108" key="69" len="12" vol="197"/>
          <note pan="0" pos="120" key="68" len="12" vol="197"/>
          <note pan="0" pos="120" key="1" len="12" vol="197"/>
          <note pan="0" pos="132" key="66" len="12" vol="197"/>
          <note pan="0" pos="144" key="69" len="12" vol="197"/>
          <note pan="0" pos="144" key="0" len="12" vol="197"/>
          <note pan="0" pos="156" key="71" len="12" vol="197"/>
          <note pan="0" pos="168" key="69" len="12" vol="197"/>
          <note pan="0" pos="168" key="1" len="12" vol="197"/>
          <note pan="0" pos="180" key="68" len="12" vol="197"/>
          <note pan="0" pos="192" key="73" len="12" vol="197"/>
          <note pan="0" pos="192" key="0" len="12" vol="197"/>
          <note pan="0" pos="204" key="69" len="12" vol="197"/>
          <note pan="0" pos="216" key="71" len="12" vol="197"/>
          <note pan="0" pos="216" key="1" len="12" vol="197"/>
          <note pan="0" pos="228" key="73" len="12" vol="197"/>
          <note pan="0" pos="240" key="75" len="12" vol="197"/>
          <note pan="0" pos="240" key="0" len="12" vol="197"/>
          <note pan="0" pos="252" key="71" len="12" vol="197"/>
          <note pan="0" pos="264" key="73" len="12" vol="197"/>
          <note pan="0" pos="264" key="1" len="12" vol="197"/>
          <note pan="0" pos="276" key="75" len="12" vol="197"/>
          <note pan="0" pos="288" key="78" len="12" vol="197"/>
          <note pan="0" pos="288" key="0" len="12" vol="197"/>
          <note pan="0" pos="300" key="76" len="12" vol="197"/>
          <note pan="0" pos="312" key="78" len="12" vol="197"/>
          <note pan="0" pos="324" key="80" len="12" vol="197"/>
          <note pan="0" pos="336" key="83" len="12" vol="197"/>
          <note pan="0" pos="336" key="0" len="12" vol="197"/>
          <note pan="0" pos="348" key="78" len="12" vol="197"/>
          <note pan="0" pos="360" key="75" len="12" vol="197"/>
          <note pan="0" pos="360" key="1" len="12" vol="197"/>
          <note pan="0" pos="372" key="71" len="12" vol="197"/>
        </pattern>
        <pattern type="1" pos="38784" muted="0" name="lgtH2" steps="16">
          <note pan="0" pos="0" key="63" len="12" vol="100"/>
          <note pan="0" pos="0" key="1" len="12" vol="100"/>
          <note pan="0" pos="12" key="64" len="12" vol="100"/>
          <note pan="0" pos="24" key="66" len="12" vol="100"/>
          <note pan="0" pos="36" key="68" len="12" vol="100"/>
          <note pan="0" pos="48" key="69" len="12" vol="100"/>
          <note pan="0" pos="48" key="0" len="12" vol="100"/>
          <note pan="0" pos="60" key="68" len="12" vol="100"/>
          <note pan="0" pos="72" key="66" len="12" vol="100"/>
          <note pan="0" pos="72" key="1" len="12" vol="100"/>
          <note pan="0" pos="84" key="64" len="12" vol="100"/>
          <note pan="0" pos="96" key="66" len="12" vol="100"/>
          <note pan="0" pos="108" key="68" len="12" vol="100"/>
          <note pan="0" pos="120" key="69" len="12" vol="100"/>
          <note pan="0" pos="132" key="71" len="12" vol="100"/>
          <note pan="0" pos="144" key="73" len="12" vol="100"/>
          <note pan="0" pos="144" key="0" len="12" vol="100"/>
          <note pan="0" pos="156" key="71" len="12" vol="100"/>
          <note pan="0" pos="168" key="69" len="12" vol="100"/>
          <note pan="0" pos="168" key="1" len="12" vol="100"/>
          <note pan="0" pos="180" key="68" len="12" vol="100"/>
          <note pan="0" pos="192" key="69" len="12" vol="100"/>
          <note pan="0" pos="204" key="71" len="12" vol="100"/>
          <note pan="0" pos="216" key="73" len="12" vol="100"/>
          <note pan="0" pos="228" key="75" len="12" vol="100"/>
          <note pan="0" pos="240" key="76" len="12" vol="100"/>
          <note pan="0" pos="240" key="0" len="12" vol="100"/>
          <note pan="0" pos="252" key="75" len="12" vol="100"/>
          <note pan="0" pos="264" key="73" len="12" vol="100"/>
          <note pan="0" pos="264" key="1" len="12" vol="100"/>
          <note pan="0" pos="276" key="71" len="12" vol="100"/>
          <note pan="0" pos="288" key="78" len="12" vol="100"/>
          <note pan="0" pos="288" key="0" len="12" vol="100"/>
          <note pan="0" pos="300" key="76" len="12" vol="100"/>
          <note pan="0" pos="312" key="75" len="12" vol="100"/>
          <note pan="0" pos="324" key="73" len="12" vol="100"/>
          <note pan="0" pos="336" key="80" len="12" vol="100"/>
          <note pan="0" pos="348" key="78" len="12" vol="100"/>
          <note pan="0" pos="360" key="76" len="12" vol="100"/>
          <note pan="0" pos="372" key="75" len="12" vol="100"/>
        </pattern>
        <pattern type="1" pos="39168" muted="0" name="lgtH2" steps="16">
          <note pan="0" pos="0" key="79" len="24" vol="78"/>
          <note pan="0" pos="0" key="0" len="24" vol="78"/>
          <note pan="0" pos="24" key="75" len="24" vol="78"/>
          <note pan="0" pos="48" key="70" len="24" vol="78"/>
          <note pan="0" pos="72" key="75" len="24" vol="78"/>
          <note pan="0" pos="96" key="70" len="24" vol="78"/>
          <note pan="0" pos="120" key="67" len="24" vol="78"/>
          <note pan="0" pos="144" key="70" len="24" vol="78"/>
          <note pan="0" pos="168" key="75" len="24" vol="78"/>
          <note pan="0" pos="192" key="75" len="48" vol="78"/>
          <note pan="0" pos="240" key="80" len="48" vol="78"/>
          <note pan="0" pos="288" key="81" len="48" vol="78"/>
          <note pan="0" pos="336" key="84" len="48" vol="78"/>
        </pattern>
        <pattern type="1" pos="43200" muted="0" name="lgtH2" steps="16">
          <note pan="0" pos="0" key="0" len="72" vol="78"/>
          <note pan="0" pos="960" key="70" len="144" vol="78"/>
          <note pan="0" pos="1104" key="75" len="48" vol="78"/>
          <note pan="0" pos="1152" key="73" len="144" vol="78"/>
          <note pan="0" pos="1296" key="78" len="48" vol="78"/>
          <note pan="0" pos="1344" key="78" len="144" vol="78"/>
          <note pan="0" pos="1488" key="77" len="24" vol="78"/>
          <note pan="0" pos="1512" key="75" len="24" vol="78"/>
          <note pan="0" pos="1536" key="73" len="48" vol="78"/>
          <note pan="0" pos="1584" key="75" len="48" vol="78"/>
          <note pan="0" pos="1632" key="70" len="48" vol="78"/>
          <note pan="0" pos="1680" key="66" len="48" vol="78"/>
          <note pan="0" pos="1728" key="68" len="96" vol="78"/>
          <note pan="0" pos="1824" key="71" len="48" vol="78"/>
          <note pan="0" pos="1872" key="75" len="48" vol="78"/>
          <note pan="0" pos="1920" key="75" len="96" vol="78"/>
          <note pan="0" pos="2016" key="73" len="48" vol="78"/>
          <note pan="0" pos="2064" key="75" len="48" vol="78"/>
          <note pan="0" pos="2112" key="82" len="72" vol="78"/>
          <note pan="0" pos="2184" key="80" len="72" vol="78"/>
          <note pan="0" pos="2256" key="78" len="48" vol="78"/>
          <note pan="0" pos="2304" key="77" len="192" vol="78"/>
          <note pan="0" pos="2496" key="75" len="72" vol="78"/>
          <note pan="0" pos="2568" key="73" len="72" vol="78"/>
          <note pan="0" pos="2640" key="75" len="48" vol="78"/>
          <note pan="0" pos="2688" key="78" len="144" vol="78"/>
          <note pan="0" pos="2832" key="73" len="48" vol="78"/>
          <note pan="0" pos="2880" key="72" len="240" vol="78"/>
          <note pan="0" pos="3120" key="75" len="48" vol="78"/>
          <note pan="0" pos="3168" key="77" len="48" vol="78"/>
          <note pan="0" pos="3216" key="78" len="48" vol="78"/>
          <note pan="0" pos="3264" key="80" len="72" vol="78"/>
          <note pan="0" pos="3336" key="78" len="72" vol="78"/>
          <note pan="0" pos="3408" key="76" len="48" vol="78"/>
          <note pan="0" pos="3456" key="75" len="48" vol="78"/>
          <note pan="0" pos="3504" key="70" len="48" vol="78"/>
          <note pan="0" pos="3552" key="82" len="48" vol="78"/>
          <note pan="0" pos="3600" key="87" len="48" vol="78"/>
          <note pan="0" pos="3648" key="85" len="192" vol="78"/>
          <note pan="0" pos="3840" key="82" len="12" vol="195"/>
          <note pan="0" pos="3852" key="80" len="12" vol="195"/>
          <note pan="0" pos="3864" key="78" len="12" vol="195"/>
          <note pan="0" pos="3876" key="77" len="12" vol="195"/>
          <note pan="0" pos="3888" key="80" len="12" vol="195"/>
          <note pan="0" pos="3900" key="78" len="12" vol="195"/>
          <note pan="0" pos="3912" key="77" len="12" vol="195"/>
          <note pan="0" pos="3924" key="75" len="12" vol="195"/>
          <note pan="0" pos="3936" key="78" len="12" vol="195"/>
          <note pan="0" pos="3948" key="77" len="12" vol="195"/>
          <note pan="0" pos="3960" key="75" len="12" vol="195"/>
          <note pan="0" pos="3972" key="73" len="12" vol="195"/>
          <note pan="0" pos="3984" key="77" len="12" vol="195"/>
          <note pan="0" pos="3996" key="75" len="12" vol="195"/>
          <note pan="0" pos="4008" key="73" len="12" vol="195"/>
          <note pan="0" pos="4020" key="75" len="12" vol="195"/>
        </pattern>
        <pattern type="1" pos="40320" muted="0" name="lgtH2" steps="16">
          <note pan="0" pos="0" key="66" len="12" vol="78"/>
          <note pan="0" pos="0" key="1" len="48" vol="200"/>
          <note pan="0" pos="12" key="64" len="12" vol="78"/>
          <note pan="0" pos="24" key="61" len="12" vol="78"/>
          <note pan="0" pos="36" key="64" len="12" vol="78"/>
          <note pan="0" pos="48" key="66" len="12" vol="78"/>
          <note pan="0" pos="60" key="64" len="12" vol="78"/>
          <note pan="0" pos="72" key="61" len="12" vol="78"/>
          <note pan="0" pos="84" key="64" len="12" vol="78"/>
          <note pan="0" pos="96" key="69" len="12" vol="78"/>
          <note pan="0" pos="108" key="68" len="12" vol="78"/>
          <note pan="0" pos="120" key="66" len="12" vol="78"/>
          <note pan="0" pos="132" key="68" len="12" vol="78"/>
          <note pan="0" pos="144" key="69" len="12" vol="78"/>
          <note pan="0" pos="156" key="71" len="12" vol="78"/>
          <note pan="0" pos="168" key="73" len="12" vol="78"/>
          <note pan="0" pos="180" key="71" len="12" vol="78"/>
          <note pan="0" pos="192" key="73" len="12" vol="78"/>
          <note pan="0" pos="204" key="71" len="12" vol="78"/>
          <note pan="0" pos="216" key="68" len="12" vol="78"/>
          <note pan="0" pos="228" key="71" len="12" vol="78"/>
          <note pan="0" pos="240" key="73" len="12" vol="78"/>
          <note pan="0" pos="240" key="0" len="48" vol="200"/>
          <note pan="0" pos="252" key="71" len="12" vol="78"/>
          <note pan="0" pos="264" key="68" len="12" vol="78"/>
          <note pan="0" pos="276" key="71" len="12" vol="78"/>
          <note pan="0" pos="288" key="73" len="12" vol="78"/>
          <note pan="0" pos="300" key="75" len="12" vol="78"/>
          <note pan="0" pos="312" key="76" len="12" vol="78"/>
          <note pan="0" pos="324" key="78" len="12" vol="78"/>
          <note pan="0" pos="336" key="80" len="12" vol="78"/>
          <note pan="0" pos="348" key="73" len="12" vol="78"/>
          <note pan="0" pos="348" key="1" len="12" vol="200"/>
          <note pan="0" pos="360" key="71" len="12" vol="78"/>
          <note pan="0" pos="372" key="73" len="12" vol="78"/>
        </pattern>
        <pattern type="1" pos="40704" muted="0" name="lgtH2" steps="16">
          <note pan="0" pos="0" key="80" len="48" vol="78"/>
          <note pan="0" pos="0" key="0" len="48" vol="100"/>
          <note pan="0" pos="48" key="78" len="12" vol="78"/>
          <note pan="0" pos="60" key="80" len="12" vol="78"/>
          <note pan="0" pos="72" key="78" len="48" vol="78"/>
          <note pan="0" pos="120" key="76" len="12" vol="78"/>
          <note pan="0" pos="132" key="78" len="12" vol="78"/>
          <note pan="0" pos="144" key="76" len="12" vol="78"/>
          <note pan="0" pos="144" key="0" len="12" vol="78"/>
          <note pan="0" pos="156" key="75" len="12" vol="78"/>
          <note pan="0" pos="156" key="1" len="12" vol="78"/>
          <note pan="0" pos="168" key="73" len="12" vol="78"/>
          <note pan="0" pos="180" key="76" len="12" vol="78"/>
          <note pan="0" pos="192" key="75" len="48" vol="78"/>
          <note pan="0" pos="192" key="0" len="12" vol="78"/>
          <note pan="0" pos="240" key="73" len="12" vol="78"/>
          <note pan="0" pos="240" key="1" len="12" vol="78"/>
          <note pan="0" pos="252" key="71" len="12" vol="78"/>
          <note pan="0" pos="264" key="73" len="12" vol="78"/>
          <note pan="0" pos="276" key="75" len="12" vol="78"/>
          <note pan="0" pos="288" key="76" len="12" vol="78"/>
          <note pan="0" pos="288" key="0" len="12" vol="78"/>
          <note pan="0" pos="300" key="78" len="12" vol="78"/>
          <note pan="0" pos="312" key="76" len="12" vol="78"/>
          <note pan="0" pos="324" key="75" len="12" vol="78"/>
          <note pan="0" pos="336" key="76" len="12" vol="78"/>
          <note pan="0" pos="348" key="75" len="12" vol="78"/>
          <note pan="0" pos="360" key="73" len="12" vol="78"/>
          <note pan="0" pos="360" key="1" len="12" vol="78"/>
          <note pan="0" pos="372" key="71" len="12" vol="78"/>
        </pattern>
        <pattern type="1" pos="41088" muted="0" name="lgtH2" steps="16">
          <note pan="0" pos="0" key="76" len="12" vol="78"/>
          <note pan="0" pos="0" key="0" len="12" vol="78"/>
          <note pan="0" pos="12" key="73" len="12" vol="78"/>
          <note pan="0" pos="24" key="71" len="12" vol="78"/>
          <note pan="0" pos="24" key="1" len="12" vol="78"/>
          <note pan="0" pos="36" key="73" len="12" vol="78"/>
          <note pan="0" pos="48" key="68" len="12" vol="78"/>
          <note pan="0" pos="60" key="73" len="12" vol="78"/>
          <note pan="0" pos="72" key="71" len="12" vol="78"/>
          <note pan="0" pos="84" key="73" len="12" vol="78"/>
          <note pan="0" pos="96" key="76" len="12" vol="78"/>
          <note pan="0" pos="96" key="0" len="12" vol="78"/>
          <note pan="0" pos="108" key="73" len="12" vol="78"/>
          <note pan="0" pos="120" key="71" len="12" vol="78"/>
          <note pan="0" pos="120" key="1" len="12" vol="78"/>
          <note pan="0" pos="132" key="73" len="12" vol="78"/>
          <note pan="0" pos="144" key="68" len="12" vol="78"/>
          <note pan="0" pos="156" key="73" len="12" vol="78"/>
          <note pan="0" pos="168" key="71" len="12" vol="78"/>
          <note pan="0" pos="180" key="73" len="12" vol="78"/>
          <note pan="0" pos="192" key="76" len="12" vol="78"/>
          <note pan="0" pos="192" key="0" len="12" vol="78"/>
          <note pan="0" pos="204" key="71" len="12" vol="78"/>
          <note pan="0" pos="216" key="69" len="12" vol="78"/>
          <note pan="0" pos="216" key="1" len="12" vol="78"/>
          <note pan="0" pos="228" key="71" len="12" vol="78"/>
          <note pan="0" pos="240" key="68" len="12" vol="78"/>
          <note pan="0" pos="252" key="71" len="12" vol="78"/>
          <note pan="0" pos="264" key="69" len="12" vol="78"/>
          <note pan="0" pos="276" key="71" len="12" vol="78"/>
          <note pan="0" pos="288" key="76" len="12" vol="78"/>
          <note pan="0" pos="288" key="0" len="12" vol="78"/>
          <note pan="0" pos="300" key="71" len="12" vol="78"/>
          <note pan="0" pos="312" key="69" len="12" vol="78"/>
          <note pan="0" pos="312" key="1" len="12" vol="78"/>
          <note pan="0" pos="324" key="71" len="12" vol="78"/>
          <note pan="0" pos="336" key="68" len="12" vol="78"/>
          <note pan="0" pos="348" key="71" len="12" vol="78"/>
          <note pan="0" pos="360" key="69" len="12" vol="78"/>
          <note pan="0" pos="372" key="71" len="12" vol="78"/>
        </pattern>
        <pattern type="1" pos="41472" muted="0" name="lgtH2" steps="16">
          <note pan="0" pos="0" key="78" len="12" vol="78"/>
          <note pan="0" pos="0" key="0" len="12" vol="78"/>
          <note pan="0" pos="12" key="73" len="12" vol="78"/>
          <note pan="0" pos="24" key="70" len="12" vol="78"/>
          <note pan="0" pos="24" key="1" len="12" vol="78"/>
          <note pan="0" pos="36" key="73" len="12" vol="78"/>
          <note pan="0" pos="48" key="66" len="12" vol="78"/>
          <note pan="0" pos="60" key="73" len="12" vol="78"/>
          <note pan="0" pos="72" key="70" len="12" vol="78"/>
          <note pan="0" pos="84" key="73" len="12" vol="78"/>
          <note pan="0" pos="96" key="78" len="12" vol="78"/>
          <note pan="0" pos="108" key="73" len="12" vol="78"/>
          <note pan="0" pos="120" key="70" len="12" vol="78"/>
          <note pan="0" pos="132" key="73" len="12" vol="78"/>
          <note pan="0" pos="144" key="66" len="12" vol="78"/>
          <note pan="0" pos="156" key="73" len="12" vol="78"/>
          <note pan="0" pos="168" key="70" len="12" vol="78"/>
          <note pan="0" pos="180" key="73" len="12" vol="78"/>
        </pattern>
        <pattern type="1" pos="41664" muted="0" name="lgtH2" steps="16">
          <note pan="0" pos="0" key="78" len="12" vol="78"/>
          <note pan="0" pos="0" key="0" len="12" vol="78"/>
          <note pan="0" pos="12" key="73" len="12" vol="78"/>
          <note pan="0" pos="24" key="70" len="12" vol="78"/>
          <note pan="0" pos="24" key="1" len="12" vol="78"/>
          <note pan="0" pos="36" key="66" len="12" vol="78"/>
          <note pan="0" pos="48" key="70" len="12" vol="78"/>
          <note pan="0" pos="60" key="66" len="12" vol="78"/>
          <note pan="0" pos="72" key="61" len="12" vol="78"/>
          <note pan="0" pos="84" key="66" len="12" vol="78"/>
          <note pan="0" pos="96" key="73" len="12" vol="78"/>
          <note pan="0" pos="108" key="70" len="12" vol="78"/>
          <note pan="0" pos="120" key="66" len="12" vol="78"/>
          <note pan="0" pos="132" key="70" len="12" vol="78"/>
          <note pan="0" pos="144" key="73" len="12" vol="78"/>
          <note pan="0" pos="156" key="78" len="12" vol="78"/>
          <note pan="0" pos="156" key="1" len="12" vol="78"/>
          <note pan="0" pos="168" key="82" len="12" vol="78"/>
          <note pan="0" pos="180" key="78" len="12" vol="78"/>
        </pattern>
        <pattern type="1" pos="41856" muted="0" name="lgtH2" steps="16">
          <note pan="0" pos="0" key="81" len="24" vol="78"/>
          <note pan="0" pos="0" key="0" len="48" vol="78"/>
          <note pan="0" pos="24" key="76" len="24" vol="78"/>
          <note pan="0" pos="48" key="73" len="24" vol="78"/>
          <note pan="0" pos="72" key="80" len="24" vol="78"/>
          <note pan="0" pos="96" key="81" len="24" vol="78"/>
          <note pan="0" pos="120" key="83" len="24" vol="78"/>
          <note pan="0" pos="144" key="81" len="24" vol="78"/>
          <note pan="0" pos="168" key="80" len="24" vol="78"/>
          <note pan="0" pos="192" key="81" len="12" vol="78"/>
          <note pan="0" pos="192" key="0" len="24" vol="78"/>
          <note pan="0" pos="204" key="76" len="12" vol="78"/>
          <note pan="0" pos="216" key="73" len="12" vol="78"/>
          <note pan="0" pos="216" key="1" len="24" vol="78"/>
          <note pan="0" pos="228" key="69" len="12" vol="78"/>
          <note pan="0" pos="240" key="64" len="12" vol="78"/>
          <note pan="0" pos="252" key="69" len="12" vol="78"/>
          <note pan="0" pos="264" key="76" len="12" vol="78"/>
          <note pan="0" pos="264" key="0" len="24" vol="78"/>
          <note pan="0" pos="276" key="73" len="12" vol="78"/>
          <note pan="0" pos="288" key="69" len="12" vol="78"/>
          <note pan="0" pos="288" key="1" len="24" vol="78"/>
          <note pan="0" pos="300" key="64" len="12" vol="78"/>
          <note pan="0" pos="312" key="69" len="12" vol="78"/>
          <note pan="0" pos="324" key="73" len="12" vol="78"/>
          <note pan="0" pos="336" key="81" len="12" vol="78"/>
          <note pan="0" pos="336" key="0" len="24" vol="78"/>
          <note pan="0" pos="348" key="80" len="12" vol="78"/>
          <note pan="0" pos="360" key="76" len="12" vol="78"/>
          <note pan="0" pos="360" key="1" len="24" vol="78"/>
          <note pan="0" pos="372" key="80" len="12" vol="78"/>
          <note pan="0" pos="384" key="83" len="384" vol="78"/>
          <note pan="0" pos="384" key="0" len="24" vol="78"/>
        </pattern>
      </track>
      <track type="0" muted="0" name="ZynAddSubFX" solo="0">
        <instrumenttrack pan="0" pitch="0" basenote="57" usemasterpitch="1" vol="60.7" fxch="15" pitchrange="1">
          <instrument name="zynaddsubfx">
            <zynaddsubfx bandwidth="64" fmgain="127" rescenterfreq="64" portamento="0" filterq="64" modifiedcontrollers="" filterfreq="64" resbandwidth="64" forwardmidicc="1">
              <ZynAddSubFX-data version-major="2" version-minor="4" ZynAddSubFX-author="Nasca Octavian Paul" version-revision="1">
                <INFORMATION>
                  <par_bool name="PADsynth_used" value="yes"/>
                </INFORMATION>
                <BASE_PARAMETERS>
                  <par name="max_midi_parts" value="16"/>
                  <par name="max_kit_items_per_instrument" value="16"/>
                  <par name="max_system_effects" value="4"/>
                  <par name="max_insertion_effects" value="8"/>
                  <par name="max_instrument_effects" value="3"/>
                  <par name="max_addsynth_voices" value="8"/>
                </BASE_PARAMETERS>
                <MASTER>
                  <par name="volume" value="80"/>
                  <par name="key_shift" value="64"/>
                  <par_bool name="nrpn_receive" value="yes"/>
                  <MICROTONAL>
                    <string name="name">12tET</string>
                    <string name="comment">Equal Temperament 12 notes per octave</string>
                    <par_bool name="invert_up_down" value="no"/>
                    <par name="invert_up_down_center" value="60"/>
                    <par_bool name="enabled" value="no"/>
                    <par name="global_fine_detune" value="64"/>
                    <par name="a_note" value="69"/>
                    <par_real name="a_freq" value="440.000000"/>
                  </MICROTONAL>
                  <PART id="0">
                    <par_bool name="enabled" value="yes"/>
                    <par name="volume" value="96"/>
                    <par name="panning" value="64"/>
                    <par name="min_key" value="0"/>
                    <par name="max_key" value="127"/>
                    <par name="key_shift" value="76"/>
                    <par name="rcv_chn" value="0"/>
                    <par name="velocity_sensing" value="64"/>
                    <par name="velocity_offset" value="64"/>
                    <par_bool name="note_on" value="yes"/>
                    <par_bool name="poly_mode" value="yes"/>
                    <par name="legato_mode" value="0"/>
                    <par name="key_limit" value="15"/>
                    <INSTRUMENT>
                      <INFO>
                        <string name="name">Full Strings</string>
                        <string name="author">Will Godfrey
GPL V 2 or later</string>
                        <string name="comments">Developed from Paul's Strings Pad5</string>
                        <par name="type" value="12"/>
                      </INFO>
                      <INSTRUMENT_KIT>
                        <par name="kit_mode" value="1"/>
                        <par_bool name="drum_mode" value="no"/>
                        <INSTRUMENT_KIT_ITEM id="0">
                          <par_bool name="enabled" value="yes"/>
                          <string name="name"/>
                          <par_bool name="muted" value="no"/>
                          <par name="min_key" value="0"/>
                          <par name="max_key" value="127"/>
                          <par name="send_to_instrument_effect" value="0"/>
                          <par_bool name="add_enabled" value="no"/>
                          <par_bool name="sub_enabled" value="no"/>
                          <par_bool name="pad_enabled" value="yes"/>
                          <PAD_SYNTH_PARAMETERS>
                            <par_bool name="stereo" value="yes"/>
                            <par name="mode" value="0"/>
                            <par name="bandwidth" value="620"/>
                            <par name="bandwidth_scale" value="0"/>
                            <HARMONIC_PROFILE>
                              <par name="base_type" value="0"/>
                              <par name="base_par1" value="99"/>
                              <par name="frequency_multiplier" value="8"/>
                              <par name="modulator_par1" value="0"/>
                              <par name="modulator_frequency" value="55"/>
                              <par name="width" value="127"/>
                              <par name="amplitude_multiplier_type" value="0"/>
                              <par name="amplitude_multiplier_mode" value="2"/>
                              <par name="amplitude_multiplier_par1" value="80"/>
                              <par name="amplitude_multiplier_par2" value="4"/>
                              <par_bool name="autoscale" value="yes"/>
                              <par name="one_half" value="0"/>
                            </HARMONIC_PROFILE>
                            <OSCIL>
                              <par name="harmonic_mag_type" value="0"/>
                              <par name="base_function" value="4"/>
                              <par name="base_function_par" value="51"/>
                              <par name="base_function_modulation" value="0"/>
                              <par name="base_function_modulation_par1" value="64"/>
                              <par name="base_function_modulation_par2" value="64"/>
                              <par name="base_function_modulation_par3" value="32"/>
                              <par name="modulation" value="0"/>
                              <par name="modulation_par1" value="64"/>
                              <par name="modulation_par2" value="64"/>
                              <par name="modulation_par3" value="32"/>
                              <par name="wave_shaping" value="64"/>
                              <par name="wave_shaping_function" value="0"/>
                              <par name="filter_type" value="0"/>
                              <par name="filter_par1" value="37"/>
                              <par name="filter_par2" value="64"/>
                              <par name="filter_before_wave_shaping" value="0"/>
                              <par name="spectrum_adjust_type" value="0"/>
                              <par name="spectrum_adjust_par" value="64"/>
                              <par name="rand" value="64"/>
                              <par name="amp_rand_type" value="0"/>
                              <par name="amp_rand_power" value="64"/>
                              <par name="harmonic_shift" value="0"/>
                              <par_bool name="harmonic_shift_first" value="no"/>
                              <par name="adaptive_harmonics" value="0"/>
                              <par name="adaptive_harmonics_base_frequency" value="128"/>
                              <par name="adaptive_harmonics_power" value="100"/>
                              <HARMONICS>
                                <HARMONIC id="1">
                                  <par name="mag" value="83"/>
                                  <par name="phase" value="64"/>
                                </HARMONIC>
                                <HARMONIC id="2">
                                  <par name="mag" value="127"/>
                                  <par name="phase" value="64"/>
                                </HARMONIC>
                              </HARMONICS>
                            </OSCIL>
                            <RESONANCE>
                              <par_bool name="enabled" value="no"/>
                            </RESONANCE>
                            <HARMONIC_POSITION>
                              <par name="type" value="0"/>
                              <par name="parameter1" value="255"/>
                              <par name="parameter2" value="64"/>
                              <par name="parameter3" value="0"/>
                            </HARMONIC_POSITION>
                            <SAMPLE_QUALITY>
                              <par name="samplesize" value="4"/>
                              <par name="basenote" value="4"/>
                              <par name="octaves" value="5"/>
                              <par name="samples_per_octave" value="2"/>
                            </SAMPLE_QUALITY>
                            <AMPLITUDE_PARAMETERS>
                              <par name="volume" value="94"/>
                              <par name="panning" value="67"/>
                              <par name="velocity_sensing" value="70"/>
                              <par name="punch_strength" value="0"/>
                              <par name="punch_time" value="60"/>
                              <par name="punch_stretch" value="64"/>
                              <par name="punch_velocity_sensing" value="72"/>
                              <AMPLITUDE_ENVELOPE>
                                <par_bool name="free_mode" value="no"/>
                                <par name="env_points" value="4"/>
                                <par name="env_sustain" value="2"/>
                                <par name="env_stretch" value="0"/>
                                <par_bool name="forced_release" value="no"/>
                                <par_bool name="linear_envelope" value="no"/>
                                <par name="A_dt" value="12"/>
                                <par name="D_dt" value="39"/>
                                <par name="R_dt" value="71"/>
                                <par name="A_val" value="64"/>
                                <par name="D_val" value="64"/>
                                <par name="S_val" value="127"/>
                                <par name="R_val" value="64"/>
                              </AMPLITUDE_ENVELOPE>
                              <AMPLITUDE_LFO>
                                <par_real name="freq" value="0.629921"/>
                                <par name="intensity" value="0"/>
                                <par name="start_phase" value="64"/>
                                <par name="lfo_type" value="0"/>
                                <par name="randomness_amplitude" value="0"/>
                                <par name="randomness_frequency" value="0"/>
                                <par name="delay" value="0"/>
                                <par name="stretch" value="64"/>
                                <par_bool name="continous" value="no"/>
                              </AMPLITUDE_LFO>
                            </AMPLITUDE_PARAMETERS>
                            <FREQUENCY_PARAMETERS>
                              <par name="fixed_freq" value="0"/>
                              <par name="fixed_freq_et" value="0"/>
                              <par name="detune" value="8192"/>
                              <par name="coarse_detune" value="15360"/>
                              <par name="detune_type" value="1"/>
                              <FREQUENCY_ENVELOPE>
                                <par_bool name="free_mode" value="no"/>
                                <par name="env_points" value="3"/>
                                <par name="env_sustain" value="1"/>
                                <par name="env_stretch" value="0"/>
                                <par_bool name="forced_release" value="no"/>
                                <par_bool name="linear_envelope" value="no"/>
                                <par name="A_dt" value="50"/>
                                <par name="D_dt" value="10"/>
                                <par name="R_dt" value="60"/>
                                <par name="A_val" value="64"/>
                                <par name="D_val" value="64"/>
                                <par name="S_val" value="64"/>
                                <par name="R_val" value="64"/>
                              </FREQUENCY_ENVELOPE>
                              <FREQUENCY_LFO>
                                <par_real name="freq" value="0.621181"/>
                                <par name="intensity" value="0"/>
                                <par name="start_phase" value="64"/>
                                <par name="lfo_type" value="0"/>
                                <par name="randomness_amplitude" value="0"/>
                                <par name="randomness_frequency" value="0"/>
                                <par name="delay" value="0"/>
                                <par name="stretch" value="64"/>
                                <par_bool name="continous" value="no"/>
                              </FREQUENCY_LFO>
                            </FREQUENCY_PARAMETERS>
                            <FILTER_PARAMETERS>
                              <par name="velocity_sensing_amplitude" value="25"/>
                              <par name="velocity_sensing" value="64"/>
                              <FILTER>
                                <par name="category" value="0"/>
                                <par name="type" value="2"/>
                                <par name="freq" value="99"/>
                                <par name="q" value="28"/>
                                <par name="stages" value="1"/>
                                <par name="freq_track" value="97"/>
                                <par name="gain" value="64"/>
                              </FILTER>
                              <FILTER_ENVELOPE>
                                <par_bool name="free_mode" value="no"/>
                                <par name="env_points" value="4"/>
                                <par name="env_sustain" value="2"/>
                                <par name="env_stretch" value="0"/>
                                <par_bool name="forced_release" value="yes"/>
                                <par_bool name="linear_envelope" value="no"/>
                                <par name="A_dt" value="17"/>
                                <par name="D_dt" value="70"/>
                                <par name="R_dt" value="98"/>
                                <par name="A_val" value="37"/>
                                <par name="D_val" value="64"/>
                                <par name="S_val" value="64"/>
                                <par name="R_val" value="43"/>
                              </FILTER_ENVELOPE>
                              <FILTER_LFO>
                                <par_real name="freq" value="0.629921"/>
                                <par name="intensity" value="0"/>
                                <par name="start_phase" value="64"/>
                                <par name="lfo_type" value="0"/>
                                <par name="randomness_amplitude" value="0"/>
                                <par name="randomness_frequency" value="0"/>
                                <par name="delay" value="0"/>
                                <par name="stretch" value="64"/>
                                <par_bool name="continous" value="no"/>
                              </FILTER_LFO>
                            </FILTER_PARAMETERS>
                          </PAD_SYNTH_PARAMETERS>
                        </INSTRUMENT_KIT_ITEM>
                        <INSTRUMENT_KIT_ITEM id="1">
                          <par_bool name="enabled" value="no"/>
                        </INSTRUMENT_KIT_ITEM>
                        <INSTRUMENT_KIT_ITEM id="2">
                          <par_bool name="enabled" value="no"/>
                        </INSTRUMENT_KIT_ITEM>
                        <INSTRUMENT_KIT_ITEM id="3">
                          <par_bool name="enabled" value="no"/>
                        </INSTRUMENT_KIT_ITEM>
                        <INSTRUMENT_KIT_ITEM id="4">
                          <par_bool name="enabled" value="no"/>
                        </INSTRUMENT_KIT_ITEM>
                        <INSTRUMENT_KIT_ITEM id="5">
                          <par_bool name="enabled" value="no"/>
                        </INSTRUMENT_KIT_ITEM>
                        <INSTRUMENT_KIT_ITEM id="6">
                          <par_bool name="enabled" value="no"/>
                        </INSTRUMENT_KIT_ITEM>
                        <INSTRUMENT_KIT_ITEM id="7">
                          <par_bool name="enabled" value="no"/>
                        </INSTRUMENT_KIT_ITEM>
                        <INSTRUMENT_KIT_ITEM id="8">
                          <par_bool name="enabled" value="no"/>
                        </INSTRUMENT_KIT_ITEM>
                        <INSTRUMENT_KIT_ITEM id="9">
                          <par_bool name="enabled" value="no"/>
                        </INSTRUMENT_KIT_ITEM>
                        <INSTRUMENT_KIT_ITEM id="10">
                          <par_bool name="enabled" value="no"/>
                        </INSTRUMENT_KIT_ITEM>
                        <INSTRUMENT_KIT_ITEM id="11">
                          <par_bool name="enabled" value="no"/>
                        </INSTRUMENT_KIT_ITEM>
                        <INSTRUMENT_KIT_ITEM id="12">
                          <par_bool name="enabled" value="no"/>
                        </INSTRUMENT_KIT_ITEM>
                        <INSTRUMENT_KIT_ITEM id="13">
                          <par_bool name="enabled" value="no"/>
                        </INSTRUMENT_KIT_ITEM>
                        <INSTRUMENT_KIT_ITEM id="14">
                          <par_bool name="enabled" value="no"/>
                        </INSTRUMENT_KIT_ITEM>
                        <INSTRUMENT_KIT_ITEM id="15">
                          <par_bool name="enabled" value="no"/>
                        </INSTRUMENT_KIT_ITEM>
                      </INSTRUMENT_KIT>
                      <INSTRUMENT_EFFECTS>
                        <INSTRUMENT_EFFECT id="0">
                          <EFFECT>
                            <par name="type" value="3"/>
                            <par name="preset" value="0"/>
                            <EFFECT_PARAMETERS>
                              <par_no id="0">
                                <par name="par" value="64"/>
                              </par_no>
                              <par_no id="1">
                                <par name="par" value="64"/>
                              </par_no>
                              <par_no id="2">
                                <par name="par" value="50"/>
                              </par_no>
                              <par_no id="5">
                                <par name="par" value="90"/>
                              </par_no>
                              <par_no id="6">
                                <par name="par" value="40"/>
                              </par_no>
                              <par_no id="7">
                                <par name="par" value="85"/>
                              </par_no>
                              <par_no id="8">
                                <par name="par" value="67"/>
                              </par_no>
                              <par_no id="9">
                                <par name="par" value="119"/>
                              </par_no>
                            </EFFECT_PARAMETERS>
                          </EFFECT>
                          <par name="route" value="0"/>
                          <par_bool name="bypass" value="no"/>
                        </INSTRUMENT_EFFECT>
                        <INSTRUMENT_EFFECT id="1">
                          <EFFECT>
                            <par name="type" value="1"/>
                            <par name="preset" value="0"/>
                            <EFFECT_PARAMETERS>
                              <par_no id="0">
                                <par name="par" value="40"/>
                              </par_no>
                              <par_no id="1">
                                <par name="par" value="64"/>
                              </par_no>
                              <par_no id="2">
                                <par name="par" value="85"/>
                              </par_no>
                              <par_no id="3">
                                <par name="par" value="23"/>
                              </par_no>
                              <par_no id="7">
                                <par name="par" value="85"/>
                              </par_no>
                              <par_no id="8">
                                <par name="par" value="5"/>
                              </par_no>
                              <par_no id="9">
                                <par name="par" value="83"/>
                              </par_no>
                              <par_no id="10">
                                <par name="par" value="1"/>
                              </par_no>
                              <par_no id="11">
                                <par name="par" value="64"/>
                              </par_no>
                            </EFFECT_PARAMETERS>
                          </EFFECT>
                          <par name="route" value="0"/>
                          <par_bool name="bypass" value="yes"/>
                        </INSTRUMENT_EFFECT>
                        <INSTRUMENT_EFFECT id="2">
                          <EFFECT>
                            <par name="type" value="0"/>
                          </EFFECT>
                          <par name="route" value="0"/>
                          <par_bool name="bypass" value="no"/>
                        </INSTRUMENT_EFFECT>
                      </INSTRUMENT_EFFECTS>
                    </INSTRUMENT>
                    <CONTROLLER>
                      <par name="pitchwheel_bendrange" value="100"/>
                      <par_bool name="expression_receive" value="yes"/>
                      <par name="panning_depth" value="64"/>
                      <par name="filter_cutoff_depth" value="64"/>
                      <par name="filter_q_depth" value="64"/>
                      <par name="bandwidth_depth" value="64"/>
                      <par name="mod_wheel_depth" value="80"/>
                      <par_bool name="mod_wheel_exponential" value="no"/>
                      <par_bool name="fm_amp_receive" value="yes"/>
                      <par_bool name="volume_receive" value="yes"/>
                      <par_bool name="sustain_receive" value="yes"/>
                      <par_bool name="portamento_receive" value="yes"/>
                      <par name="portamento_time" value="64"/>
                      <par name="portamento_pitchthresh" value="3"/>
                      <par name="portamento_pitchthreshtype" value="1"/>
                      <par name="portamento_portamento" value="0"/>
                      <par name="portamento_updowntimestretch" value="64"/>
                      <par name="portamento_proportional" value="0"/>
                      <par name="portamento_proprate" value="80"/>
                      <par name="portamento_propdepth" value="90"/>
                      <par name="resonance_center_depth" value="64"/>
                      <par name="resonance_bandwidth_depth" value="64"/>
                    </CONTROLLER>
                  </PART>
                  <PART id="1">
                    <par_bool name="enabled" value="no"/>
                  </PART>
                  <PART id="2">
                    <par_bool name="enabled" value="no"/>
                  </PART>
                  <PART id="3">
                    <par_bool name="enabled" value="no"/>
                  </PART>
                  <PART id="4">
                    <par_bool name="enabled" value="no"/>
                  </PART>
                  <PART id="5">
                    <par_bool name="enabled" value="no"/>
                  </PART>
                  <PART id="6">
                    <par_bool name="enabled" value="no"/>
                  </PART>
                  <PART id="7">
                    <par_bool name="enabled" value="no"/>
                  </PART>
                  <PART id="8">
                    <par_bool name="enabled" value="no"/>
                  </PART>
                  <PART id="9">
                    <par_bool name="enabled" value="no"/>
                  </PART>
                  <PART id="10">
                    <par_bool name="enabled" value="no"/>
                  </PART>
                  <PART id="11">
                    <par_bool name="enabled" value="no"/>
                  </PART>
                  <PART id="12">
                    <par_bool name="enabled" value="no"/>
                  </PART>
                  <PART id="13">
                    <par_bool name="enabled" value="no"/>
                  </PART>
                  <PART id="14">
                    <par_bool name="enabled" value="no"/>
                  </PART>
                  <PART id="15">
                    <par_bool name="enabled" value="no"/>
                  </PART>
                  <SYSTEM_EFFECTS>
                    <SYSTEM_EFFECT id="0">
                      <EFFECT>
                        <par name="type" value="0"/>
                      </EFFECT>
                      <VOLUME id="0">
                        <par name="vol" value="0"/>
                      </VOLUME>
                      <VOLUME id="1">
                        <par name="vol" value="0"/>
                      </VOLUME>
                      <VOLUME id="2">
                        <par name="vol" value="0"/>
                      </VOLUME>
                      <VOLUME id="3">
                        <par name="vol" value="0"/>
                      </VOLUME>
                      <VOLUME id="4">
                        <par name="vol" value="0"/>
                      </VOLUME>
                      <VOLUME id="5">
                        <par name="vol" value="0"/>
                      </VOLUME>
                      <VOLUME id="6">
                        <par name="vol" value="0"/>
                      </VOLUME>
                      <VOLUME id="7">
                        <par name="vol" value="0"/>
                      </VOLUME>
                      <VOLUME id="8">
                        <par name="vol" value="0"/>
                      </VOLUME>
                      <VOLUME id="9">
                        <par name="vol" value="0"/>
                      </VOLUME>
                      <VOLUME id="10">
                        <par name="vol" value="0"/>
                      </VOLUME>
                      <VOLUME id="11">
                        <par name="vol" value="0"/>
                      </VOLUME>
                      <VOLUME id="12">
                        <par name="vol" value="0"/>
                      </VOLUME>
                      <VOLUME id="13">
                        <par name="vol" value="0"/>
                      </VOLUME>
                      <VOLUME id="14">
                        <par name="vol" value="0"/>
                      </VOLUME>
                      <VOLUME id="15">
                        <par name="vol" value="0"/>
                      </VOLUME>
                      <SENDTO id="1">
                        <par name="send_vol" value="0"/>
                      </SENDTO>
                      <SENDTO id="2">
                        <par name="send_vol" value="0"/>
                      </SENDTO>
                      <SENDTO id="3">
                        <par name="send_vol" value="0"/>
                      </SENDTO>
                    </SYSTEM_EFFECT>
                    <SYSTEM_EFFECT id="1">
                      <EFFECT>
                        <par name="type" value="0"/>
                      </EFFECT>
                      <VOLUME id="0">
                        <par name="vol" value="0"/>
                      </VOLUME>
                      <VOLUME id="1">
                        <par name="vol" value="0"/>
                      </VOLUME>
                      <VOLUME id="2">
                        <par name="vol" value="0"/>
                      </VOLUME>
                      <VOLUME id="3">
                        <par name="vol" value="0"/>
                      </VOLUME>
                      <VOLUME id="4">
                        <par name="vol" value="0"/>
                      </VOLUME>
                      <VOLUME id="5">
                        <par name="vol" value="0"/>
                      </VOLUME>
                      <VOLUME id="6">
                        <par name="vol" value="0"/>
                      </VOLUME>
                      <VOLUME id="7">
                        <par name="vol" value="0"/>
                      </VOLUME>
                      <VOLUME id="8">
                        <par name="vol" value="0"/>
                      </VOLUME>
                      <VOLUME id="9">
                        <par name="vol" value="0"/>
                      </VOLUME>
                      <VOLUME id="10">
                        <par name="vol" value="0"/>
                      </VOLUME>
                      <VOLUME id="11">
                        <par name="vol" value="0"/>
                      </VOLUME>
                      <VOLUME id="12">
                        <par name="vol" value="0"/>
                      </VOLUME>
                      <VOLUME id="13">
                        <par name="vol" value="0"/>
                      </VOLUME>
                      <VOLUME id="14">
                        <par name="vol" value="0"/>
                      </VOLUME>
                      <VOLUME id="15">
                        <par name="vol" value="0"/>
                      </VOLUME>
                      <SENDTO id="2">
                        <par name="send_vol" value="0"/>
                      </SENDTO>
                      <SENDTO id="3">
                        <par name="send_vol" value="0"/>
                      </SENDTO>
                    </SYSTEM_EFFECT>
                    <SYSTEM_EFFECT id="2">
                      <EFFECT>
                        <par name="type" value="0"/>
                      </EFFECT>
                      <VOLUME id="0">
                        <par name="vol" value="0"/>
                      </VOLUME>
                      <VOLUME id="1">
                        <par name="vol" value="0"/>
                      </VOLUME>
                      <VOLUME id="2">
                        <par name="vol" value="0"/>
                      </VOLUME>
                      <VOLUME id="3">
                        <par name="vol" value="0"/>
                      </VOLUME>
                      <VOLUME id="4">
                        <par name="vol" value="0"/>
                      </VOLUME>
                      <VOLUME id="5">
                        <par name="vol" value="0"/>
                      </VOLUME>
                      <VOLUME id="6">
                        <par name="vol" value="0"/>
                      </VOLUME>
                      <VOLUME id="7">
                        <par name="vol" value="0"/>
                      </VOLUME>
                      <VOLUME id="8">
                        <par name="vol" value="0"/>
                      </VOLUME>
                      <VOLUME id="9">
                        <par name="vol" value="0"/>
                      </VOLUME>
                      <VOLUME id="10">
                        <par name="vol" value="0"/>
                      </VOLUME>
                      <VOLUME id="11">
                        <par name="vol" value="0"/>
                      </VOLUME>
                      <VOLUME id="12">
                        <par name="vol" value="0"/>
                      </VOLUME>
                      <VOLUME id="13">
                        <par name="vol" value="0"/>
                      </VOLUME>
                      <VOLUME id="14">
                        <par name="vol" value="0"/>
                      </VOLUME>
                      <VOLUME id="15">
                        <par name="vol" value="0"/>
                      </VOLUME>
                      <SENDTO id="3">
                        <par name="send_vol" value="0"/>
                      </SENDTO>
                    </SYSTEM_EFFECT>
                    <SYSTEM_EFFECT id="3">
                      <EFFECT>
                        <par name="type" value="0"/>
                      </EFFECT>
                      <VOLUME id="0">
                        <par name="vol" value="0"/>
                      </VOLUME>
                      <VOLUME id="1">
                        <par name="vol" value="0"/>
                      </VOLUME>
                      <VOLUME id="2">
                        <par name="vol" value="0"/>
                      </VOLUME>
                      <VOLUME id="3">
                        <par name="vol" value="0"/>
                      </VOLUME>
                      <VOLUME id="4">
                        <par name="vol" value="0"/>
                      </VOLUME>
                      <VOLUME id="5">
                        <par name="vol" value="0"/>
                      </VOLUME>
                      <VOLUME id="6">
                        <par name="vol" value="0"/>
                      </VOLUME>
                      <VOLUME id="7">
                        <par name="vol" value="0"/>
                      </VOLUME>
                      <VOLUME id="8">
                        <par name="vol" value="0"/>
                      </VOLUME>
                      <VOLUME id="9">
                        <par name="vol" value="0"/>
                      </VOLUME>
                      <VOLUME id="10">
                        <par name="vol" value="0"/>
                      </VOLUME>
                      <VOLUME id="11">
                        <par name="vol" value="0"/>
                      </VOLUME>
                      <VOLUME id="12">
                        <par name="vol" value="0"/>
                      </VOLUME>
                      <VOLUME id="13">
                        <par name="vol" value="0"/>
                      </VOLUME>
                      <VOLUME id="14">
                        <par name="vol" value="0"/>
                      </VOLUME>
                      <VOLUME id="15">
                        <par name="vol" value="0"/>
                      </VOLUME>
                    </SYSTEM_EFFECT>
                  </SYSTEM_EFFECTS>
                  <INSERTION_EFFECTS>
                    <INSERTION_EFFECT id="0">
                      <par name="part" value="-1"/>
                      <EFFECT>
                        <par name="type" value="0"/>
                      </EFFECT>
                    </INSERTION_EFFECT>
                    <INSERTION_EFFECT id="1">
                      <par name="part" value="-1"/>
                      <EFFECT>
                        <par name="type" value="0"/>
                      </EFFECT>
                    </INSERTION_EFFECT>
                    <INSERTION_EFFECT id="2">
                      <par name="part" value="-1"/>
                      <EFFECT>
                        <par name="type" value="0"/>
                      </EFFECT>
                    </INSERTION_EFFECT>
                    <INSERTION_EFFECT id="3">
                      <par name="part" value="-1"/>
                      <EFFECT>
                        <par name="type" value="0"/>
                      </EFFECT>
                    </INSERTION_EFFECT>
                    <INSERTION_EFFECT id="4">
                      <par name="part" value="-1"/>
                      <EFFECT>
                        <par name="type" value="0"/>
                      </EFFECT>
                    </INSERTION_EFFECT>
                    <INSERTION_EFFECT id="5">
                      <par name="part" value="-1"/>
                      <EFFECT>
                        <par name="type" value="0"/>
                      </EFFECT>
                    </INSERTION_EFFECT>
                    <INSERTION_EFFECT id="6">
                      <par name="part" value="-1"/>
                      <EFFECT>
                        <par name="type" value="0"/>
                      </EFFECT>
                    </INSERTION_EFFECT>
                    <INSERTION_EFFECT id="7">
                      <par name="part" value="-1"/>
                      <EFFECT>
                        <par name="type" value="0"/>
                      </EFFECT>
                    </INSERTION_EFFECT>
                  </INSERTION_EFFECTS>
                </MASTER>
              </ZynAddSubFX-data>
            </zynaddsubfx>
          </instrument>
          <eldata fres="0.5" fcut="14000" fwet="0" ftype="0">
            <elvol lspd_numerator="4" userwavefile="" lshp="0" x100="0" amt="0" lspd_syncmode="0" ctlenvamt="0" dec="0.5" hold="0.5" lspd_denominator="4" sustain="0.5" lamt="0" lspd="0.1" pdel="0" att="0" lpdel="0" latt="0" rel="0.1"/>
            <elcut lspd_numerator="4" userwavefile="" lshp="0" x100="0" amt="0" lspd_syncmode="0" ctlenvamt="0" dec="0.5" hold="0.5" lspd_denominator="4" sustain="0.5" lamt="0" lspd="0.1" pdel="0" att="0" lpdel="0" latt="0" rel="0.1"/>
            <elres lspd_numerator="4" userwavefile="" lshp="0" x100="0" amt="0" lspd_syncmode="0" ctlenvamt="0" dec="0.5" hold="0.5" lspd_denominator="4" sustain="0.5" lamt="0" lspd="0.1" pdel="0" att="0" lpdel="0" latt="0" rel="0.1"/>
          </eldata>
          <chordcreator chordrange="1" chord="0" chord-enabled="0"/>
          <arpeggiator arpskip="0" arpmiss="0" arp-enabled="0" arpgate="100" arpdir="0" arpcycle="0" arprange="1" arptime_numerator="4" arptime_denominator="4" arptime_syncmode="0" arptime="200" arp="0" arpmode="0"/>
          <midiport outputcontroller="0" inputchannel="0" outputchannel="1" fixedoutputvelocity="-1" readable="0" inputcontroller="0" basevelocity="63" fixedoutputnote="-1" fixedinputvelocity="-1" outputprogram="1" writable="0"/>
          <fxchain enabled="0" numofeffects="0"/>
        </instrumenttrack>
        <pattern type="1" pos="0" muted="0" name="ZynAddSubFX" steps="16">
          <note pan="0" pos="0" key="61" len="384" vol="193"/>
          <note pan="0" pos="192" key="68" len="192" vol="193"/>
          <note pan="0" pos="384" key="64" len="384" vol="193"/>
          <note pan="0" pos="384" key="61" len="384" vol="193"/>
          <note pan="0" pos="384" key="52" len="384" vol="193"/>
          <note pan="0" pos="768" key="63" len="384" vol="193"/>
          <note pan="0" pos="768" key="59" len="384" vol="193"/>
          <note pan="0" pos="768" key="56" len="384" vol="193"/>
          <note pan="0" pos="1152" key="61" len="384" vol="193"/>
          <note pan="0" pos="1152" key="56" len="384" vol="193"/>
          <note pan="0" pos="1152" key="49" len="384" vol="193"/>
          <note pan="0" pos="1536" key="59" len="384" vol="193"/>
          <note pan="0" pos="1536" key="57" len="384" vol="193"/>
          <note pan="0" pos="1536" key="49" len="384" vol="193"/>
          <note pan="0" pos="1920" key="64" len="24" vol="193"/>
          <note pan="0" pos="1920" key="61" len="24" vol="193"/>
          <note pan="0" pos="1920" key="56" len="24" vol="193"/>
          <note pan="0" pos="1992" key="64" len="24" vol="193"/>
          <note pan="0" pos="1992" key="61" len="24" vol="193"/>
          <note pan="0" pos="1992" key="56" len="24" vol="193"/>
          <note pan="0" pos="2064" key="64" len="24" vol="193"/>
          <note pan="0" pos="2064" key="61" len="24" vol="193"/>
          <note pan="0" pos="2064" key="56" len="24" vol="193"/>
          <note pan="0" pos="2136" key="64" len="24" vol="193"/>
          <note pan="0" pos="2136" key="61" len="24" vol="193"/>
          <note pan="0" pos="2136" key="56" len="24" vol="193"/>
          <note pan="0" pos="2208" key="64" len="24" vol="193"/>
          <note pan="0" pos="2208" key="61" len="24" vol="193"/>
          <note pan="0" pos="2208" key="56" len="24" vol="193"/>
          <note pan="0" pos="2232" key="64" len="24" vol="193"/>
          <note pan="0" pos="2232" key="61" len="24" vol="193"/>
          <note pan="0" pos="2232" key="56" len="24" vol="193"/>
          <note pan="0" pos="2280" key="64" len="24" vol="193"/>
          <note pan="0" pos="2280" key="61" len="24" vol="193"/>
          <note pan="0" pos="2280" key="56" len="24" vol="193"/>
          <note pan="0" pos="2304" key="63" len="24" vol="193"/>
          <note pan="0" pos="2304" key="59" len="24" vol="193"/>
          <note pan="0" pos="2304" key="56" len="24" vol="193"/>
          <note pan="0" pos="2376" key="63" len="24" vol="193"/>
          <note pan="0" pos="2376" key="59" len="24" vol="193"/>
          <note pan="0" pos="2376" key="56" len="24" vol="193"/>
          <note pan="0" pos="2448" key="63" len="24" vol="193"/>
          <note pan="0" pos="2448" key="59" len="24" vol="193"/>
          <note pan="0" pos="2448" key="56" len="24" vol="193"/>
          <note pan="0" pos="2520" key="63" len="24" vol="193"/>
          <note pan="0" pos="2520" key="59" len="24" vol="193"/>
          <note pan="0" pos="2520" key="56" len="24" vol="193"/>
          <note pan="0" pos="2592" key="63" len="24" vol="193"/>
          <note pan="0" pos="2592" key="59" len="24" vol="193"/>
          <note pan="0" pos="2592" key="56" len="24" vol="193"/>
          <note pan="0" pos="2616" key="63" len="24" vol="193"/>
          <note pan="0" pos="2616" key="59" len="24" vol="193"/>
          <note pan="0" pos="2616" key="56" len="24" vol="193"/>
          <note pan="0" pos="2664" key="63" len="24" vol="193"/>
          <note pan="0" pos="2664" key="59" len="24" vol="193"/>
          <note pan="0" pos="2664" key="56" len="24" vol="193"/>
          <note pan="0" pos="2688" key="61" len="24" vol="193"/>
          <note pan="0" pos="2688" key="58" len="24" vol="193"/>
          <note pan="0" pos="2760" key="61" len="24" vol="193"/>
          <note pan="0" pos="2760" key="58" len="24" vol="193"/>
          <note pan="0" pos="2832" key="61" len="24" vol="193"/>
          <note pan="0" pos="2832" key="58" len="24" vol="193"/>
          <note pan="0" pos="2904" key="61" len="24" vol="193"/>
          <note pan="0" pos="2904" key="58" len="24" vol="193"/>
          <note pan="0" pos="2976" key="61" len="24" vol="193"/>
          <note pan="0" pos="2976" key="58" len="24" vol="193"/>
          <note pan="0" pos="3000" key="61" len="24" vol="193"/>
          <note pan="0" pos="3000" key="58" len="24" vol="193"/>
          <note pan="0" pos="3048" key="61" len="24" vol="193"/>
          <note pan="0" pos="3048" key="58" len="24" vol="193"/>
          <note pan="0" pos="3072" key="61" len="24" vol="193"/>
          <note pan="0" pos="3072" key="57" len="24" vol="193"/>
          <note pan="0" pos="3144" key="61" len="24" vol="193"/>
          <note pan="0" pos="3144" key="57" len="24" vol="193"/>
          <note pan="0" pos="3216" key="61" len="24" vol="193"/>
          <note pan="0" pos="3216" key="57" len="24" vol="193"/>
        </pattern>
        <pattern type="1" pos="8064" muted="0" name="ZynAddSubFX" steps="16">
          <note pan="0" pos="0" key="68" len="192" vol="197"/>
          <note pan="0" pos="0" key="64" len="192" vol="197"/>
          <note pan="0" pos="0" key="61" len="192" vol="197"/>
          <note pan="0" pos="192" key="68" len="192" vol="197"/>
          <note pan="0" pos="192" key="63" len="192" vol="197"/>
          <note pan="0" pos="192" key="59" len="192" vol="197"/>
          <note pan="0" pos="384" key="69" len="192" vol="197"/>
          <note pan="0" pos="384" key="64" len="192" vol="197"/>
          <note pan="0" pos="384" key="61" len="192" vol="197"/>
          <note pan="0" pos="576" key="71" len="192" vol="197"/>
          <note pan="0" pos="576" key="66" len="192" vol="197"/>
          <note pan="0" pos="576" key="63" len="192" vol="197"/>
          <note pan="0" pos="768" key="73" len="192" vol="197"/>
          <note pan="0" pos="768" key="69" len="192" vol="197"/>
          <note pan="0" pos="768" key="66" len="192" vol="197"/>
          <note pan="0" pos="960" key="75" len="192" vol="197"/>
          <note pan="0" pos="960" key="71" len="192" vol="197"/>
          <note pan="0" pos="960" key="68" len="192" vol="197"/>
          <note pan="0" pos="1152" key="76" len="192" vol="197"/>
          <note pan="0" pos="1152" key="73" len="192" vol="197"/>
          <note pan="0" pos="1152" key="69" len="192" vol="197"/>
          <note pan="0" pos="1344" key="75" len="192" vol="197"/>
          <note pan="0" pos="1344" key="71" len="192" vol="197"/>
          <note pan="0" pos="1344" key="66" len="192" vol="197"/>
          <note pan="0" pos="1536" key="76" len="192" vol="197"/>
          <note pan="0" pos="1536" key="73" len="192" vol="197"/>
          <note pan="0" pos="1536" key="68" len="192" vol="197"/>
          <note pan="0" pos="1728" key="75" len="192" vol="197"/>
          <note pan="0" pos="1728" key="71" len="192" vol="197"/>
          <note pan="0" pos="1728" key="66" len="192" vol="197"/>
          <note pan="0" pos="1920" key="73" len="384" vol="197"/>
          <note pan="0" pos="1920" key="70" len="384" vol="197"/>
          <note pan="0" pos="1920" key="66" len="384" vol="197"/>
          <note pan="0" pos="2304" key="74" len="192" vol="197"/>
          <note pan="0" pos="2304" key="69" len="192" vol="197"/>
          <note pan="0" pos="2304" key="66" len="192" vol="197"/>
          <note pan="0" pos="2496" key="73" len="192" vol="197"/>
          <note pan="0" pos="2496" key="69" len="192" vol="197"/>
          <note pan="0" pos="2496" key="64" len="192" vol="197"/>
          <note pan="0" pos="2688" key="75" len="384" vol="197"/>
          <note pan="0" pos="2688" key="71" len="384" vol="197"/>
          <note pan="0" pos="2688" key="66" len="384" vol="197"/>
        </pattern>
        <pattern type="1" pos="15744" muted="0" name="ZynAddSubFX" steps="16">
          <note pan="0" pos="0" key="68" len="192" vol="197"/>
          <note pan="0" pos="0" key="64" len="192" vol="197"/>
          <note pan="0" pos="0" key="61" len="192" vol="197"/>
          <note pan="0" pos="192" key="68" len="192" vol="197"/>
          <note pan="0" pos="192" key="63" len="192" vol="197"/>
          <note pan="0" pos="192" key="59" len="192" vol="197"/>
          <note pan="0" pos="384" key="69" len="192" vol="197"/>
          <note pan="0" pos="384" key="64" len="192" vol="197"/>
          <note pan="0" pos="384" key="61" len="192" vol="197"/>
          <note pan="0" pos="576" key="71" len="192" vol="197"/>
          <note pan="0" pos="576" key="66" len="192" vol="197"/>
          <note pan="0" pos="576" key="63" len="192" vol="197"/>
          <note pan="0" pos="768" key="73" len="192" vol="197"/>
          <note pan="0" pos="768" key="69" len="192" vol="197"/>
          <note pan="0" pos="768" key="66" len="192" vol="197"/>
          <note pan="0" pos="960" key="75" len="192" vol="197"/>
          <note pan="0" pos="960" key="71" len="192" vol="197"/>
          <note pan="0" pos="960" key="68" len="192" vol="197"/>
          <note pan="0" pos="1152" key="76" len="192" vol="197"/>
          <note pan="0" pos="1152" key="73" len="192" vol="197"/>
          <note pan="0" pos="1152" key="69" len="192" vol="197"/>
          <note pan="0" pos="1344" key="75" len="96" vol="197"/>
          <note pan="0" pos="1344" key="71" len="96" vol="197"/>
          <note pan="0" pos="1344" key="66" len="96" vol="197"/>
          <note pan="0" pos="1440" key="75" len="96" vol="197"/>
          <note pan="0" pos="1440" key="72" len="96" vol="197"/>
          <note pan="0" pos="1440" key="66" len="96" vol="197"/>
          <note pan="0" pos="1536" key="76" len="192" vol="197"/>
          <note pan="0" pos="1536" key="73" len="192" vol="197"/>
          <note pan="0" pos="1536" key="68" len="192" vol="197"/>
          <note pan="0" pos="1728" key="75" len="192" vol="197"/>
          <note pan="0" pos="1728" key="71" len="192" vol="197"/>
          <note pan="0" pos="1728" key="66" len="192" vol="197"/>
          <note pan="0" pos="1920" key="73" len="384" vol="197"/>
          <note pan="0" pos="1920" key="70" len="384" vol="197"/>
          <note pan="0" pos="1920" key="66" len="384" vol="197"/>
          <note pan="0" pos="2304" key="74" len="192" vol="197"/>
          <note pan="0" pos="2304" key="69" len="192" vol="197"/>
          <note pan="0" pos="2304" key="66" len="192" vol="197"/>
          <note pan="0" pos="2496" key="73" len="192" vol="197"/>
          <note pan="0" pos="2496" key="69" len="192" vol="197"/>
          <note pan="0" pos="2496" key="64" len="192" vol="197"/>
          <note pan="0" pos="2688" key="75" len="216" vol="197"/>
          <note pan="0" pos="2688" key="71" len="216" vol="197"/>
          <note pan="0" pos="2688" key="66" len="216" vol="197"/>
          <note pan="0" pos="2976" key="78" len="24" vol="197"/>
          <note pan="0" pos="2976" key="75" len="24" vol="197"/>
          <note pan="0" pos="2976" key="71" len="24" vol="197"/>
        </pattern>
        <pattern type="1" pos="11136" muted="0" name="ZynAddSubFX" steps="16">
          <note pan="0" pos="0" key="73" len="384" vol="197"/>
          <note pan="0" pos="0" key="68" len="384" vol="197"/>
          <note pan="0" pos="0" key="64" len="384" vol="197"/>
          <note pan="0" pos="384" key="74" len="384" vol="197"/>
          <note pan="0" pos="384" key="69" len="384" vol="197"/>
          <note pan="0" pos="384" key="66" len="384" vol="197"/>
        </pattern>
        <pattern type="1" pos="11904" muted="0" name="ZynAddSubFX" steps="16">
          <note pan="0" pos="0" key="73" len="384" vol="197"/>
          <note pan="0" pos="0" key="68" len="384" vol="197"/>
          <note pan="0" pos="0" key="64" len="384" vol="197"/>
          <note pan="0" pos="384" key="74" len="384" vol="197"/>
          <note pan="0" pos="384" key="69" len="384" vol="197"/>
          <note pan="0" pos="384" key="66" len="384" vol="197"/>
        </pattern>
        <pattern type="1" pos="18816" muted="0" name="ZynAddSubFX" steps="16">
          <note pan="0" pos="0" key="64" len="384" vol="193"/>
          <note pan="0" pos="0" key="61" len="384" vol="193"/>
          <note pan="0" pos="0" key="52" len="384" vol="193"/>
          <note pan="0" pos="384" key="63" len="384" vol="193"/>
          <note pan="0" pos="384" key="59" len="384" vol="193"/>
          <note pan="0" pos="384" key="56" len="384" vol="193"/>
          <note pan="0" pos="768" key="61" len="384" vol="193"/>
          <note pan="0" pos="768" key="56" len="384" vol="193"/>
          <note pan="0" pos="768" key="49" len="384" vol="193"/>
          <note pan="0" pos="1152" key="59" len="384" vol="193"/>
          <note pan="0" pos="1152" key="57" len="384" vol="193"/>
          <note pan="0" pos="1152" key="49" len="384" vol="193"/>
        </pattern>
        <pattern type="1" pos="20352" muted="0" name="ZynAddSubFX" steps="16">
          <note pan="0" pos="0" key="64" len="384" vol="193"/>
          <note pan="0" pos="0" key="61" len="384" vol="193"/>
          <note pan="0" pos="0" key="56" len="384" vol="193"/>
          <note pan="0" pos="384" key="66" len="384" vol="193"/>
          <note pan="0" pos="384" key="62" len="384" vol="193"/>
          <note pan="0" pos="384" key="57" len="384" vol="193"/>
          <note pan="0" pos="768" key="66" len="384" vol="193"/>
          <note pan="0" pos="768" key="63" len="384" vol="193"/>
          <note pan="0" pos="768" key="58" len="384" vol="193"/>
          <note pan="0" pos="1152" key="68" len="384" vol="193"/>
          <note pan="0" pos="1152" key="63" len="384" vol="193"/>
          <note pan="0" pos="1152" key="60" len="384" vol="193"/>
        </pattern>
        <pattern type="1" pos="23424" muted="0" name="ZynAddSubFX" steps="16">
          <note pan="0" pos="0" key="68" len="192" vol="200"/>
          <note pan="0" pos="0" key="59" len="192" vol="200"/>
          <note pan="0" pos="192" key="69" len="192" vol="200"/>
          <note pan="0" pos="192" key="61" len="192" vol="200"/>
          <note pan="0" pos="384" key="71" len="192" vol="200"/>
          <note pan="0" pos="384" key="64" len="192" vol="200"/>
          <note pan="0" pos="576" key="76" len="192" vol="200"/>
          <note pan="0" pos="576" key="68" len="192" vol="200"/>
          <note pan="0" pos="768" key="73" len="384" vol="200"/>
          <note pan="0" pos="768" key="66" len="384" vol="200"/>
          <note pan="0" pos="1152" key="73" len="384" vol="200"/>
          <note pan="0" pos="1152" key="64" len="384" vol="200"/>
          <note pan="0" pos="1536" key="80" len="192" vol="200"/>
          <note pan="0" pos="1536" key="76" len="192" vol="200"/>
          <note pan="0" pos="1728" key="78" len="192" vol="200"/>
          <note pan="0" pos="1728" key="75" len="192" vol="200"/>
          <note pan="0" pos="1920" key="80" len="384" vol="200"/>
          <note pan="0" pos="1920" key="76" len="384" vol="200"/>
          <note pan="0" pos="1920" key="73" len="384" vol="200"/>
          <note pan="0" pos="2304" key="80" len="192" vol="200"/>
          <note pan="0" pos="2304" key="73" len="192" vol="200"/>
          <note pan="0" pos="2304" key="71" len="192" vol="200"/>
          <note pan="0" pos="2496" key="78" len="192" vol="200"/>
          <note pan="0" pos="2496" key="75" len="192" vol="200"/>
          <note pan="0" pos="2496" key="71" len="192" vol="200"/>
          <note pan="0" pos="2688" key="73" len="384" vol="200"/>
          <note pan="0" pos="2688" key="70" len="384" vol="200"/>
          <note pan="0" pos="2688" key="68" len="384" vol="200"/>
          <note pan="0" pos="3072" key="80" len="192" vol="200"/>
          <note pan="0" pos="3072" key="71" len="192" vol="200"/>
          <note pan="0" pos="3264" key="81" len="192" vol="200"/>
          <note pan="0" pos="3264" key="73" len="192" vol="200"/>
          <note pan="0" pos="3456" key="83" len="192" vol="200"/>
          <note pan="0" pos="3456" key="76" len="192" vol="200"/>
          <note pan="0" pos="3648" key="88" len="192" vol="200"/>
          <note pan="0" pos="3648" key="80" len="192" vol="200"/>
          <note pan="0" pos="3840" key="85" len="384" vol="200"/>
          <note pan="0" pos="3840" key="78" len="384" vol="200"/>
          <note pan="0" pos="4224" key="85" len="384" vol="200"/>
          <note pan="0" pos="4224" key="76" len="384" vol="200"/>
          <note pan="0" pos="4608" key="80" len="384" vol="200"/>
          <note pan="0" pos="4608" key="73" len="384" vol="200"/>
          <note pan="0" pos="4608" key="61" len="48" vol="200"/>
          <note pan="0" pos="4656" key="57" len="48" vol="200"/>
          <note pan="0" pos="4704" key="59" len="48" vol="200"/>
          <note pan="0" pos="4752" key="61" len="48" vol="200"/>
          <note pan="0" pos="4800" key="63" len="48" vol="200"/>
          <note pan="0" pos="4848" key="64" len="48" vol="200"/>
          <note pan="0" pos="4896" key="63" len="48" vol="200"/>
          <note pan="0" pos="4944" key="59" len="48" vol="200"/>
          <note pan="0" pos="4992" key="80" len="384" vol="200"/>
          <note pan="0" pos="4992" key="73" len="384" vol="200"/>
          <note pan="0" pos="4992" key="61" len="48" vol="200"/>
          <note pan="0" pos="5040" key="59" len="48" vol="200"/>
          <note pan="0" pos="5088" key="61" len="48" vol="200"/>
          <note pan="0" pos="5136" key="63" len="48" vol="200"/>
          <note pan="0" pos="5184" key="68" len="192" vol="200"/>
        </pattern>
        <pattern type="1" pos="21888" muted="0" name="ZynAddSubFX" steps="16">
          <note pan="0" pos="0" key="68" len="192" vol="200"/>
          <note pan="0" pos="0" key="64" len="192" vol="200"/>
          <note pan="0" pos="192" key="66" len="192" vol="200"/>
          <note pan="0" pos="192" key="63" len="192" vol="200"/>
          <note pan="0" pos="384" key="68" len="384" vol="200"/>
          <note pan="0" pos="384" key="64" len="384" vol="200"/>
          <note pan="0" pos="384" key="61" len="384" vol="200"/>
          <note pan="0" pos="768" key="68" len="192" vol="200"/>
          <note pan="0" pos="768" key="61" len="192" vol="200"/>
          <note pan="0" pos="768" key="59" len="192" vol="200"/>
          <note pan="0" pos="960" key="66" len="192" vol="200"/>
          <note pan="0" pos="960" key="63" len="192" vol="200"/>
          <note pan="0" pos="960" key="59" len="192" vol="200"/>
          <note pan="0" pos="1152" key="61" len="384" vol="200"/>
          <note pan="0" pos="1152" key="59" len="192" vol="200"/>
          <note pan="0" pos="1152" key="56" len="384" vol="200"/>
        </pattern>
        <pattern type="1" pos="3264" muted="0" name="ZynAddSubFX" steps="16">
          <note pan="0" pos="0" key="69" len="192" vol="193"/>
          <note pan="0" pos="0" key="64" len="192" vol="193"/>
        </pattern>
        <pattern type="1" pos="3456" muted="0" name="ZynAddSubFX" steps="16">
          <note pan="0" pos="0" key="68" len="192" vol="193"/>
          <note pan="0" pos="0" key="64" len="192" vol="193"/>
          <note pan="0" pos="0" key="61" len="192" vol="193"/>
          <note pan="0" pos="192" key="68" len="192" vol="193"/>
          <note pan="0" pos="192" key="63" len="192" vol="193"/>
          <note pan="0" pos="192" key="59" len="192" vol="193"/>
          <note pan="0" pos="384" key="69" len="192" vol="193"/>
          <note pan="0" pos="384" key="64" len="192" vol="193"/>
          <note pan="0" pos="384" key="61" len="192" vol="193"/>
          <note pan="0" pos="576" key="71" len="192" vol="193"/>
          <note pan="0" pos="576" key="66" len="192" vol="193"/>
          <note pan="0" pos="576" key="63" len="192" vol="193"/>
          <note pan="0" pos="768" key="73" len="192" vol="193"/>
          <note pan="0" pos="768" key="69" len="192" vol="193"/>
          <note pan="0" pos="768" key="66" len="192" vol="193"/>
          <note pan="0" pos="960" key="75" len="192" vol="193"/>
          <note pan="0" pos="960" key="71" len="192" vol="193"/>
          <note pan="0" pos="960" key="68" len="192" vol="193"/>
          <note pan="0" pos="1152" key="76" len="192" vol="193"/>
          <note pan="0" pos="1152" key="73" len="192" vol="193"/>
          <note pan="0" pos="1152" key="69" len="192" vol="193"/>
          <note pan="0" pos="1344" key="75" len="96" vol="193"/>
          <note pan="0" pos="1344" key="71" len="96" vol="193"/>
          <note pan="0" pos="1344" key="66" len="96" vol="193"/>
          <note pan="0" pos="1440" key="75" len="48" vol="193"/>
          <note pan="0" pos="1440" key="71" len="48" vol="193"/>
          <note pan="0" pos="1440" key="68" len="48" vol="193"/>
          <note pan="0" pos="1488" key="75" len="48" vol="193"/>
          <note pan="0" pos="1488" key="71" len="48" vol="193"/>
          <note pan="0" pos="1488" key="66" len="48" vol="193"/>
        </pattern>
        <pattern type="0" pos="4992" muted="0" name="ZynAddSubFX" steps="16"/>
        <pattern type="1" pos="28800" muted="0" name="ZynAddSubFX" steps="16">
          <note pan="0" pos="0" key="56" len="192" vol="200"/>
          <note pan="0" pos="0" key="52" len="192" vol="200"/>
          <note pan="0" pos="192" key="57" len="192" vol="200"/>
          <note pan="0" pos="192" key="54" len="192" vol="200"/>
          <note pan="0" pos="384" key="59" len="192" vol="200"/>
          <note pan="0" pos="384" key="56" len="192" vol="200"/>
          <note pan="0" pos="576" key="54" len="192" vol="200"/>
          <note pan="0" pos="576" key="49" len="192" vol="200"/>
          <note pan="0" pos="768" key="56" len="192" vol="200"/>
          <note pan="0" pos="768" key="52" len="192" vol="200"/>
          <note pan="0" pos="960" key="57" len="192" vol="200"/>
          <note pan="0" pos="960" key="54" len="192" vol="200"/>
          <note pan="0" pos="1152" key="59" len="192" vol="200"/>
          <note pan="0" pos="1152" key="56" len="192" vol="200"/>
          <note pan="0" pos="1344" key="54" len="192" vol="200"/>
          <note pan="0" pos="1344" key="51" len="192" vol="200"/>
          <note pan="0" pos="1536" key="54" len="192" vol="200"/>
          <note pan="0" pos="1536" key="49" len="192" vol="200"/>
          <note pan="0" pos="1728" key="61" len="192" vol="200"/>
          <note pan="0" pos="1728" key="56" len="192" vol="200"/>
          <note pan="0" pos="1920" key="59" len="192" vol="200"/>
          <note pan="0" pos="1920" key="54" len="192" vol="200"/>
          <note pan="0" pos="2112" key="57" len="192" vol="200"/>
          <note pan="0" pos="2112" key="52" len="192" vol="200"/>
          <note pan="0" pos="2304" key="56" len="384" vol="200"/>
          <note pan="0" pos="2304" key="51" len="384" vol="200"/>
          <note pan="0" pos="2688" key="56" len="384" vol="200"/>
          <note pan="0" pos="2688" key="47" len="384" vol="200"/>
          <note pan="0" pos="3072" key="56" len="192" vol="200"/>
          <note pan="0" pos="3072" key="52" len="192" vol="200"/>
          <note pan="0" pos="3264" key="57" len="192" vol="200"/>
          <note pan="0" pos="3264" key="54" len="192" vol="200"/>
          <note pan="0" pos="3456" key="59" len="192" vol="200"/>
          <note pan="0" pos="3456" key="56" len="192" vol="200"/>
          <note pan="0" pos="3648" key="54" len="192" vol="200"/>
          <note pan="0" pos="3648" key="49" len="192" vol="200"/>
          <note pan="0" pos="3840" key="56" len="192" vol="200"/>
          <note pan="0" pos="3840" key="52" len="192" vol="200"/>
          <note pan="0" pos="4032" key="57" len="192" vol="200"/>
          <note pan="0" pos="4032" key="54" len="192" vol="200"/>
          <note pan="0" pos="4224" key="59" len="192" vol="200"/>
          <note pan="0" pos="4224" key="56" len="192" vol="200"/>
          <note pan="0" pos="4416" key="54" len="192" vol="200"/>
          <note pan="0" pos="4416" key="51" len="192" vol="200"/>
          <note pan="0" pos="4608" key="54" len="192" vol="200"/>
          <note pan="0" pos="4608" key="49" len="192" vol="200"/>
          <note pan="0" pos="4800" key="61" len="192" vol="200"/>
          <note pan="0" pos="4800" key="56" len="192" vol="200"/>
          <note pan="0" pos="4992" key="59" len="192" vol="200"/>
          <note pan="0" pos="4992" key="54" len="192" vol="200"/>
          <note pan="0" pos="5184" key="57" len="192" vol="200"/>
          <note pan="0" pos="5184" key="52" len="192" vol="200"/>
          <note pan="0" pos="5376" key="55" len="384" vol="200"/>
          <note pan="0" pos="5376" key="50" len="384" vol="200"/>
          <note pan="0" pos="5760" key="56" len="384" vol="200"/>
          <note pan="0" pos="5760" key="47" len="384" vol="200"/>
        </pattern>
        <pattern type="1" pos="14208" muted="0" name="ZynAddSubFX" steps="16">
          <note pan="0" pos="0" key="61" len="24" vol="197"/>
          <note pan="0" pos="0" key="57" len="24" vol="197"/>
          <note pan="0" pos="48" key="61" len="24" vol="197"/>
          <note pan="0" pos="48" key="57" len="24" vol="197"/>
          <note pan="0" pos="96" key="61" len="24" vol="197"/>
          <note pan="0" pos="96" key="57" len="24" vol="197"/>
          <note pan="0" pos="144" key="61" len="24" vol="197"/>
          <note pan="0" pos="144" key="57" len="24" vol="197"/>
          <note pan="0" pos="192" key="61" len="24" vol="197"/>
          <note pan="0" pos="192" key="57" len="24" vol="197"/>
          <note pan="0" pos="240" key="61" len="24" vol="197"/>
          <note pan="0" pos="240" key="57" len="24" vol="197"/>
          <note pan="0" pos="288" key="61" len="24" vol="197"/>
          <note pan="0" pos="288" key="57" len="24" vol="197"/>
          <note pan="0" pos="336" key="61" len="24" vol="197"/>
          <note pan="0" pos="336" key="57" len="24" vol="197"/>
          <note pan="0" pos="384" key="61" len="24" vol="197"/>
          <note pan="0" pos="384" key="56" len="24" vol="197"/>
          <note pan="0" pos="384" key="52" len="24" vol="197"/>
          <note pan="0" pos="432" key="61" len="24" vol="197"/>
          <note pan="0" pos="432" key="56" len="24" vol="197"/>
          <note pan="0" pos="432" key="52" len="24" vol="197"/>
          <note pan="0" pos="480" key="61" len="24" vol="197"/>
          <note pan="0" pos="480" key="56" len="24" vol="197"/>
          <note pan="0" pos="480" key="52" len="24" vol="197"/>
          <note pan="0" pos="528" key="61" len="24" vol="197"/>
          <note pan="0" pos="528" key="56" len="24" vol="197"/>
          <note pan="0" pos="528" key="52" len="24" vol="197"/>
          <note pan="0" pos="576" key="61" len="24" vol="197"/>
          <note pan="0" pos="576" key="56" len="24" vol="197"/>
          <note pan="0" pos="576" key="51" len="24" vol="197"/>
          <note pan="0" pos="624" key="61" len="24" vol="197"/>
          <note pan="0" pos="624" key="56" len="24" vol="197"/>
          <note pan="0" pos="624" key="51" len="24" vol="197"/>
          <note pan="0" pos="672" key="61" len="24" vol="197"/>
          <note pan="0" pos="672" key="56" len="24" vol="197"/>
          <note pan="0" pos="672" key="51" len="24" vol="197"/>
          <note pan="0" pos="720" key="61" len="24" vol="197"/>
          <note pan="0" pos="720" key="56" len="24" vol="197"/>
          <note pan="0" pos="720" key="51" len="24" vol="197"/>
        </pattern>
        <pattern type="1" pos="34944" muted="0" name="ZynAddSubFX" steps="16">
          <note pan="0" pos="0" key="68" len="192" vol="193"/>
          <note pan="0" pos="0" key="64" len="192" vol="193"/>
          <note pan="0" pos="0" key="61" len="192" vol="193"/>
          <note pan="0" pos="192" key="68" len="192" vol="193"/>
          <note pan="0" pos="192" key="63" len="192" vol="193"/>
          <note pan="0" pos="192" key="59" len="192" vol="193"/>
          <note pan="0" pos="384" key="69" len="192" vol="193"/>
          <note pan="0" pos="384" key="64" len="192" vol="193"/>
          <note pan="0" pos="384" key="61" len="192" vol="193"/>
          <note pan="0" pos="576" key="71" len="192" vol="193"/>
          <note pan="0" pos="576" key="66" len="192" vol="193"/>
          <note pan="0" pos="576" key="63" len="192" vol="193"/>
          <note pan="0" pos="768" key="73" len="192" vol="193"/>
          <note pan="0" pos="768" key="69" len="192" vol="193"/>
          <note pan="0" pos="768" key="66" len="192" vol="193"/>
          <note pan="0" pos="960" key="75" len="192" vol="193"/>
          <note pan="0" pos="960" key="71" len="192" vol="193"/>
          <note pan="0" pos="960" key="68" len="192" vol="193"/>
          <note pan="0" pos="1152" key="76" len="192" vol="193"/>
          <note pan="0" pos="1152" key="73" len="192" vol="193"/>
          <note pan="0" pos="1152" key="69" len="192" vol="193"/>
          <note pan="0" pos="1344" key="75" len="96" vol="193"/>
          <note pan="0" pos="1344" key="71" len="96" vol="193"/>
          <note pan="0" pos="1344" key="66" len="96" vol="193"/>
          <note pan="0" pos="1440" key="75" len="48" vol="193"/>
          <note pan="0" pos="1440" key="71" len="48" vol="193"/>
          <note pan="0" pos="1440" key="68" len="48" vol="193"/>
          <note pan="0" pos="1488" key="75" len="48" vol="193"/>
          <note pan="0" pos="1488" key="71" len="48" vol="193"/>
          <note pan="0" pos="1488" key="66" len="48" vol="193"/>
        </pattern>
        <pattern type="1" pos="39552" muted="0" name="ZynAddSubFX" steps="16">
          <note pan="0" pos="0" key="68" len="192" vol="197"/>
          <note pan="0" pos="0" key="64" len="192" vol="197"/>
          <note pan="0" pos="0" key="61" len="192" vol="197"/>
          <note pan="0" pos="192" key="68" len="192" vol="197"/>
          <note pan="0" pos="192" key="63" len="192" vol="197"/>
          <note pan="0" pos="192" key="59" len="192" vol="197"/>
          <note pan="0" pos="384" key="69" len="192" vol="197"/>
          <note pan="0" pos="384" key="64" len="192" vol="197"/>
          <note pan="0" pos="384" key="61" len="192" vol="197"/>
          <note pan="0" pos="576" key="71" len="192" vol="197"/>
          <note pan="0" pos="576" key="66" len="192" vol="197"/>
          <note pan="0" pos="576" key="63" len="192" vol="197"/>
          <note pan="0" pos="768" key="73" len="192" vol="197"/>
          <note pan="0" pos="768" key="69" len="192" vol="197"/>
          <note pan="0" pos="768" key="66" len="192" vol="197"/>
          <note pan="0" pos="960" key="75" len="192" vol="197"/>
          <note pan="0" pos="960" key="71" len="192" vol="197"/>
          <note pan="0" pos="960" key="68" len="192" vol="197"/>
          <note pan="0" pos="1152" key="76" len="192" vol="197"/>
          <note pan="0" pos="1152" key="73" len="192" vol="197"/>
          <note pan="0" pos="1152" key="69" len="192" vol="197"/>
          <note pan="0" pos="1344" key="75" len="96" vol="197"/>
          <note pan="0" pos="1344" key="71" len="96" vol="197"/>
          <note pan="0" pos="1344" key="66" len="96" vol="197"/>
          <note pan="0" pos="1440" key="75" len="96" vol="197"/>
          <note pan="0" pos="1440" key="72" len="96" vol="197"/>
          <note pan="0" pos="1440" key="66" len="96" vol="197"/>
          <note pan="0" pos="1536" key="76" len="192" vol="197"/>
          <note pan="0" pos="1536" key="73" len="192" vol="197"/>
          <note pan="0" pos="1536" key="68" len="192" vol="197"/>
          <note pan="0" pos="1728" key="75" len="192" vol="197"/>
          <note pan="0" pos="1728" key="71" len="192" vol="197"/>
          <note pan="0" pos="1728" key="66" len="192" vol="197"/>
          <note pan="0" pos="1920" key="73" len="384" vol="197"/>
          <note pan="0" pos="1920" key="70" len="384" vol="197"/>
          <note pan="0" pos="1920" key="66" len="384" vol="197"/>
          <note pan="0" pos="2304" key="74" len="192" vol="197"/>
          <note pan="0" pos="2304" key="69" len="192" vol="197"/>
          <note pan="0" pos="2304" key="66" len="192" vol="197"/>
          <note pan="0" pos="2496" key="73" len="192" vol="197"/>
          <note pan="0" pos="2496" key="69" len="192" vol="197"/>
          <note pan="0" pos="2496" key="64" len="192" vol="197"/>
          <note pan="0" pos="2688" key="75" len="384" vol="197"/>
          <note pan="0" pos="2688" key="71" len="384" vol="197"/>
          <note pan="0" pos="2688" key="66" len="384" vol="197"/>
        </pattern>
        <pattern type="1" pos="44160" muted="0" name="ZynAddSubFX" steps="16">
          <note pan="0" pos="0" key="70" len="192" vol="197"/>
          <note pan="0" pos="0" key="66" len="192" vol="197"/>
          <note pan="0" pos="0" key="63" len="192" vol="197"/>
          <note pan="0" pos="192" key="70" len="192" vol="197"/>
          <note pan="0" pos="192" key="65" len="192" vol="197"/>
          <note pan="0" pos="192" key="61" len="192" vol="197"/>
          <note pan="0" pos="384" key="71" len="192" vol="197"/>
          <note pan="0" pos="384" key="66" len="192" vol="197"/>
          <note pan="0" pos="384" key="63" len="192" vol="197"/>
          <note pan="0" pos="576" key="73" len="192" vol="197"/>
          <note pan="0" pos="576" key="68" len="192" vol="197"/>
          <note pan="0" pos="576" key="65" len="192" vol="197"/>
          <note pan="0" pos="768" key="75" len="192" vol="197"/>
          <note pan="0" pos="768" key="71" len="192" vol="197"/>
          <note pan="0" pos="768" key="68" len="192" vol="197"/>
          <note pan="0" pos="960" key="77" len="192" vol="197"/>
          <note pan="0" pos="960" key="73" len="192" vol="197"/>
          <note pan="0" pos="960" key="70" len="192" vol="197"/>
          <note pan="0" pos="1152" key="78" len="192" vol="197"/>
          <note pan="0" pos="1152" key="75" len="192" vol="197"/>
          <note pan="0" pos="1152" key="71" len="192" vol="197"/>
          <note pan="0" pos="1344" key="77" len="96" vol="197"/>
          <note pan="0" pos="1344" key="73" len="96" vol="197"/>
          <note pan="0" pos="1344" key="68" len="96" vol="197"/>
          <note pan="0" pos="1440" key="77" len="96" vol="197"/>
          <note pan="0" pos="1440" key="74" len="96" vol="197"/>
          <note pan="0" pos="1440" key="68" len="96" vol="197"/>
          <note pan="0" pos="1536" key="78" len="192" vol="197"/>
          <note pan="0" pos="1536" key="75" len="192" vol="197"/>
          <note pan="0" pos="1536" key="70" len="192" vol="197"/>
          <note pan="0" pos="1728" key="77" len="192" vol="197"/>
          <note pan="0" pos="1728" key="73" len="192" vol="197"/>
          <note pan="0" pos="1728" key="68" len="192" vol="197"/>
          <note pan="0" pos="1920" key="75" len="384" vol="197"/>
          <note pan="0" pos="1920" key="72" len="384" vol="197"/>
          <note pan="0" pos="1920" key="68" len="384" vol="197"/>
          <note pan="0" pos="2304" key="76" len="192" vol="197"/>
          <note pan="0" pos="2304" key="71" len="192" vol="197"/>
          <note pan="0" pos="2304" key="68" len="192" vol="197"/>
          <note pan="0" pos="2496" key="75" len="192" vol="197"/>
          <note pan="0" pos="2496" key="71" len="192" vol="197"/>
          <note pan="0" pos="2496" key="66" len="192" vol="197"/>
          <note pan="0" pos="2688" key="77" len="192" vol="197"/>
          <note pan="0" pos="2688" key="73" len="192" vol="197"/>
          <note pan="0" pos="2688" key="68" len="192" vol="197"/>
          <note pan="0" pos="2880" key="73" len="48" vol="195"/>
          <note pan="0" pos="2928" key="71" len="48" vol="195"/>
          <note pan="0" pos="2976" key="70" len="48" vol="195"/>
          <note pan="0" pos="3024" key="68" len="48" vol="195"/>
        </pattern>
        <pattern type="1" pos="43776" muted="0" name="ZynAddSubFX" steps="16">
          <note pan="0" pos="96" key="64" len="96" vol="197"/>
          <note pan="0" pos="96" key="61" len="96" vol="197"/>
          <note pan="0" pos="96" key="57" len="96" vol="197"/>
          <note pan="0" pos="192" key="66" len="96" vol="197"/>
          <note pan="0" pos="192" key="63" len="96" vol="197"/>
          <note pan="0" pos="192" key="59" len="96" vol="197"/>
          <note pan="0" pos="288" key="68" len="96" vol="197"/>
          <note pan="0" pos="288" key="65" len="96" vol="197"/>
          <note pan="0" pos="288" key="61" len="96" vol="197"/>
        </pattern>
        <pattern type="1" pos="47232" muted="0" name="" steps="16">
          <note pan="0" pos="0" key="58" len="192" vol="197"/>
          <note pan="0" pos="0" key="54" len="192" vol="197"/>
          <note pan="0" pos="0" key="51" len="192" vol="197"/>
          <note pan="0" pos="192" key="58" len="192" vol="197"/>
          <note pan="0" pos="192" key="53" len="192" vol="197"/>
          <note pan="0" pos="192" key="49" len="192" vol="197"/>
          <note pan="0" pos="384" key="59" len="192" vol="197"/>
          <note pan="0" pos="384" key="54" len="192" vol="197"/>
          <note pan="0" pos="384" key="51" len="192" vol="197"/>
          <note pan="0" pos="576" key="61" len="192" vol="197"/>
          <note pan="0" pos="576" key="56" len="192" vol="197"/>
          <note pan="0" pos="576" key="53" len="192" vol="197"/>
          <note pan="0" pos="768" key="63" len="192" vol="197"/>
          <note pan="0" pos="768" key="59" len="192" vol="197"/>
          <note pan="0" pos="768" key="56" len="192" vol="197"/>
          <note pan="0" pos="960" key="65" len="192" vol="197"/>
          <note pan="0" pos="960" key="61" len="192" vol="197"/>
          <note pan="0" pos="960" key="58" len="192" vol="197"/>
          <note pan="0" pos="1152" key="66" len="192" vol="197"/>
          <note pan="0" pos="1152" key="63" len="192" vol="197"/>
          <note pan="0" pos="1152" key="59" len="192" vol="197"/>
          <note pan="0" pos="1344" key="65" len="96" vol="197"/>
          <note pan="0" pos="1344" key="61" len="96" vol="197"/>
          <note pan="0" pos="1344" key="56" len="96" vol="197"/>
          <note pan="0" pos="1440" key="65" len="96" vol="197"/>
          <note pan="0" pos="1440" key="62" len="96" vol="197"/>
          <note pan="0" pos="1440" key="56" len="96" vol="197"/>
          <note pan="0" pos="1536" key="66" len="192" vol="197"/>
          <note pan="0" pos="1536" key="63" len="192" vol="197"/>
          <note pan="0" pos="1536" key="58" len="192" vol="197"/>
          <note pan="0" pos="1728" key="65" len="192" vol="197"/>
          <note pan="0" pos="1728" key="61" len="192" vol="197"/>
          <note pan="0" pos="1728" key="56" len="192" vol="197"/>
          <note pan="0" pos="1920" key="63" len="384" vol="197"/>
          <note pan="0" pos="1920" key="60" len="384" vol="197"/>
          <note pan="0" pos="1920" key="56" len="384" vol="197"/>
          <note pan="0" pos="2304" key="64" len="192" vol="197"/>
          <note pan="0" pos="2304" key="59" len="192" vol="197"/>
          <note pan="0" pos="2304" key="56" len="192" vol="197"/>
          <note pan="0" pos="2496" key="63" len="192" vol="197"/>
          <note pan="0" pos="2496" key="59" len="192" vol="197"/>
          <note pan="0" pos="2496" key="54" len="192" vol="197"/>
          <note pan="0" pos="2688" key="65" len="192" vol="197"/>
          <note pan="0" pos="2688" key="61" len="192" vol="197"/>
          <note pan="0" pos="2688" key="56" len="192" vol="197"/>
          <note pan="0" pos="2880" key="61" len="48" vol="195"/>
          <note pan="0" pos="2928" key="59" len="48" vol="195"/>
          <note pan="0" pos="2976" key="58" len="48" vol="195"/>
          <note pan="0" pos="3024" key="56" len="48" vol="195"/>
        </pattern>
      </track>
      <track type="0" muted="0" name="dt" solo="0">
        <instrumenttrack pan="0" pitch="0" basenote="45" usemasterpitch="1" vol="89.8" fxch="0" pitchrange="1">
          <instrument name="zynaddsubfx">
            <zynaddsubfx bandwidth="64" fmgain="127" rescenterfreq="64" portamento="0" filterq="64" modifiedcontrollers="" filterfreq="64" resbandwidth="64" forwardmidicc="1">
              <ZynAddSubFX-data version-major="2" version-minor="4" ZynAddSubFX-author="Nasca Octavian Paul" version-revision="1">
                <INFORMATION>
                  <par_bool name="PADsynth_used" value="yes"/>
                </INFORMATION>
                <BASE_PARAMETERS>
                  <par name="max_midi_parts" value="16"/>
                  <par name="max_kit_items_per_instrument" value="16"/>
                  <par name="max_system_effects" value="4"/>
                  <par name="max_insertion_effects" value="8"/>
                  <par name="max_instrument_effects" value="3"/>
                  <par name="max_addsynth_voices" value="8"/>
                </BASE_PARAMETERS>
                <MASTER>
                  <par name="volume" value="80"/>
                  <par name="key_shift" value="64"/>
                  <par_bool name="nrpn_receive" value="yes"/>
                  <MICROTONAL>
                    <string name="name">12tET</string>
                    <string name="comment">Equal Temperament 12 notes per octave</string>
                    <par_bool name="invert_up_down" value="no"/>
                    <par name="invert_up_down_center" value="60"/>
                    <par_bool name="enabled" value="no"/>
                    <par name="global_fine_detune" value="64"/>
                    <par name="a_note" value="69"/>
                    <par_real name="a_freq" value="440.000000"/>
                  </MICROTONAL>
                  <PART id="0">
                    <par_bool name="enabled" value="yes"/>
                    <par name="volume" value="96"/>
                    <par name="panning" value="64"/>
                    <par name="min_key" value="0"/>
                    <par name="max_key" value="127"/>
                    <par name="key_shift" value="64"/>
                    <par name="rcv_chn" value="0"/>
                    <par name="velocity_sensing" value="64"/>
                    <par name="velocity_offset" value="64"/>
                    <par_bool name="note_on" value="yes"/>
                    <par_bool name="poly_mode" value="yes"/>
                    <par name="legato_mode" value="0"/>
                    <par name="key_limit" value="15"/>
                    <INSTRUMENT>
                      <INFO>
                        <string name="name">Fantasia</string>
                        <string name="author">Will Godfrey
GPL V 2 or later</string>
                        <string name="comments">Derived from one of Paul's Bells voices</string>
                        <par name="type" value="1"/>
                      </INFO>
                      <INSTRUMENT_KIT>
                        <par name="kit_mode" value="0"/>
                        <par_bool name="drum_mode" value="no"/>
                        <INSTRUMENT_KIT_ITEM id="0">
                          <par_bool name="enabled" value="yes"/>
                          <string name="name"/>
                          <par_bool name="muted" value="no"/>
                          <par name="min_key" value="0"/>
                          <par name="max_key" value="127"/>
                          <par name="send_to_instrument_effect" value="0"/>
                          <par_bool name="add_enabled" value="no"/>
                          <par_bool name="sub_enabled" value="no"/>
                          <par_bool name="pad_enabled" value="yes"/>
                          <PAD_SYNTH_PARAMETERS>
                            <par_bool name="stereo" value="yes"/>
                            <par name="mode" value="0"/>
                            <par name="bandwidth" value="485"/>
                            <par name="bandwidth_scale" value="0"/>
                            <HARMONIC_PROFILE>
                              <par name="base_type" value="0"/>
                              <par name="base_par1" value="99"/>
                              <par name="frequency_multiplier" value="11"/>
                              <par name="modulator_par1" value="0"/>
                              <par name="modulator_frequency" value="55"/>
                              <par name="width" value="127"/>
                              <par name="amplitude_multiplier_type" value="0"/>
                              <par name="amplitude_multiplier_mode" value="2"/>
                              <par name="amplitude_multiplier_par1" value="80"/>
                              <par name="amplitude_multiplier_par2" value="4"/>
                              <par_bool name="autoscale" value="yes"/>
                              <par name="one_half" value="0"/>
                            </HARMONIC_PROFILE>
                            <OSCIL>
                              <par name="harmonic_mag_type" value="0"/>
                              <par name="base_function" value="0"/>
                              <par name="base_function_par" value="48"/>
                              <par name="base_function_modulation" value="0"/>
                              <par name="base_function_modulation_par1" value="64"/>
                              <par name="base_function_modulation_par2" value="64"/>
                              <par name="base_function_modulation_par3" value="32"/>
                              <par name="modulation" value="0"/>
                              <par name="modulation_par1" value="64"/>
                              <par name="modulation_par2" value="64"/>
                              <par name="modulation_par3" value="32"/>
                              <par name="wave_shaping" value="121"/>
                              <par name="wave_shaping_function" value="14"/>
                              <par name="filter_type" value="13"/>
                              <par name="filter_par1" value="23"/>
                              <par name="filter_par2" value="92"/>
                              <par name="filter_before_wave_shaping" value="0"/>
                              <par name="spectrum_adjust_type" value="0"/>
                              <par name="spectrum_adjust_par" value="49"/>
                              <par name="rand" value="64"/>
                              <par name="amp_rand_type" value="0"/>
                              <par name="amp_rand_power" value="64"/>
                              <par name="harmonic_shift" value="0"/>
                              <par_bool name="harmonic_shift_first" value="no"/>
                              <par name="adaptive_harmonics" value="0"/>
                              <par name="adaptive_harmonics_base_frequency" value="114"/>
                              <par name="adaptive_harmonics_power" value="63"/>
                              <HARMONICS>
                                <HARMONIC id="1">
                                  <par name="mag" value="127"/>
                                  <par name="phase" value="64"/>
                                </HARMONIC>
                                <HARMONIC id="2">
                                  <par name="mag" value="75"/>
                                  <par name="phase" value="64"/>
                                </HARMONIC>
                                <HARMONIC id="4">
                                  <par name="mag" value="84"/>
                                  <par name="phase" value="64"/>
                                </HARMONIC>
                              </HARMONICS>
                            </OSCIL>
                            <RESONANCE>
                              <par_bool name="enabled" value="no"/>
                            </RESONANCE>
                            <HARMONIC_POSITION>
                              <par name="type" value="6"/>
                              <par name="parameter1" value="176"/>
                              <par name="parameter2" value="159"/>
                              <par name="parameter3" value="255"/>
                            </HARMONIC_POSITION>
                            <SAMPLE_QUALITY>
                              <par name="samplesize" value="3"/>
                              <par name="basenote" value="5"/>
                              <par name="octaves" value="4"/>
                              <par name="samples_per_octave" value="2"/>
                            </SAMPLE_QUALITY>
                            <AMPLITUDE_PARAMETERS>
                              <par name="volume" value="98"/>
                              <par name="panning" value="64"/>
                              <par name="velocity_sensing" value="73"/>
                              <par name="punch_strength" value="37"/>
                              <par name="punch_time" value="60"/>
                              <par name="punch_stretch" value="64"/>
                              <par name="punch_velocity_sensing" value="56"/>
                              <AMPLITUDE_ENVELOPE>
                                <par_bool name="free_mode" value="no"/>
                                <par name="env_points" value="4"/>
                                <par name="env_sustain" value="2"/>
                                <par name="env_stretch" value="36"/>
                                <par_bool name="forced_release" value="yes"/>
                                <par_bool name="linear_envelope" value="no"/>
                                <par name="A_dt" value="14"/>
                                <par name="D_dt" value="113"/>
                                <par name="R_dt" value="15"/>
                                <par name="A_val" value="64"/>
                                <par name="D_val" value="64"/>
                                <par name="S_val" value="0"/>
                                <par name="R_val" value="64"/>
                              </AMPLITUDE_ENVELOPE>
                              <AMPLITUDE_LFO>
                                <par_real name="freq" value="0.629921"/>
                                <par name="intensity" value="0"/>
                                <par name="start_phase" value="64"/>
                                <par name="lfo_type" value="0"/>
                                <par name="randomness_amplitude" value="0"/>
                                <par name="randomness_frequency" value="0"/>
                                <par name="delay" value="0"/>
                                <par name="stretch" value="64"/>
                                <par_bool name="continous" value="no"/>
                              </AMPLITUDE_LFO>
                            </AMPLITUDE_PARAMETERS>
                            <FREQUENCY_PARAMETERS>
                              <par name="fixed_freq" value="0"/>
                              <par name="fixed_freq_et" value="0"/>
                              <par name="detune" value="8192"/>
                              <par name="coarse_detune" value="0"/>
                              <par name="detune_type" value="1"/>
                              <FREQUENCY_ENVELOPE>
                                <par_bool name="free_mode" value="no"/>
                                <par name="env_points" value="3"/>
                                <par name="env_sustain" value="1"/>
                                <par name="env_stretch" value="0"/>
                                <par_bool name="forced_release" value="no"/>
                                <par_bool name="linear_envelope" value="no"/>
                                <par name="A_dt" value="50"/>
                                <par name="D_dt" value="10"/>
                                <par name="R_dt" value="60"/>
                                <par name="A_val" value="64"/>
                                <par name="D_val" value="64"/>
                                <par name="S_val" value="64"/>
                                <par name="R_val" value="64"/>
                              </FREQUENCY_ENVELOPE>
                              <FREQUENCY_LFO>
                                <par_real name="freq" value="0.610681"/>
                                <par name="intensity" value="0"/>
                                <par name="start_phase" value="64"/>
                                <par name="lfo_type" value="0"/>
                                <par name="randomness_amplitude" value="0"/>
                                <par name="randomness_frequency" value="47"/>
                                <par name="delay" value="0"/>
                                <par name="stretch" value="64"/>
                                <par_bool name="continous" value="no"/>
                              </FREQUENCY_LFO>
                            </FREQUENCY_PARAMETERS>
                            <FILTER_PARAMETERS>
                              <par name="velocity_sensing_amplitude" value="127"/>
                              <par name="velocity_sensing" value="92"/>
                              <FILTER>
                                <par name="category" value="0"/>
                                <par name="type" value="0"/>
                                <par name="freq" value="127"/>
                                <par name="q" value="0"/>
                                <par name="stages" value="2"/>
                                <par name="freq_track" value="63"/>
                                <par name="gain" value="64"/>
                              </FILTER>
                              <FILTER_ENVELOPE>
                                <par_bool name="free_mode" value="no"/>
                                <par name="env_points" value="4"/>
                                <par name="env_sustain" value="2"/>
                                <par name="env_stretch" value="22"/>
                                <par_bool name="forced_release" value="yes"/>
                                <par_bool name="linear_envelope" value="no"/>
                                <par name="A_dt" value="0"/>
                                <par name="D_dt" value="127"/>
                                <par name="R_dt" value="127"/>
                                <par name="A_val" value="127"/>
                                <par name="D_val" value="127"/>
                                <par name="S_val" value="64"/>
                                <par name="R_val" value="0"/>
                              </FILTER_ENVELOPE>
                              <FILTER_LFO>
                                <par_real name="freq" value="0.484921"/>
                                <par name="intensity" value="13"/>
                                <par name="start_phase" value="59"/>
                                <par name="lfo_type" value="0"/>
                                <par name="randomness_amplitude" value="0"/>
                                <par name="randomness_frequency" value="0"/>
                                <par name="delay" value="0"/>
                                <par name="stretch" value="64"/>
                                <par_bool name="continous" value="no"/>
                              </FILTER_LFO>
                            </FILTER_PARAMETERS>
                          </PAD_SYNTH_PARAMETERS>
                        </INSTRUMENT_KIT_ITEM>
                        <INSTRUMENT_KIT_ITEM id="1">
                          <par_bool name="enabled" value="no"/>
                        </INSTRUMENT_KIT_ITEM>
                        <INSTRUMENT_KIT_ITEM id="2">
                          <par_bool name="enabled" value="no"/>
                        </INSTRUMENT_KIT_ITEM>
                        <INSTRUMENT_KIT_ITEM id="3">
                          <par_bool name="enabled" value="no"/>
                        </INSTRUMENT_KIT_ITEM>
                        <INSTRUMENT_KIT_ITEM id="4">
                          <par_bool name="enabled" value="no"/>
                        </INSTRUMENT_KIT_ITEM>
                        <INSTRUMENT_KIT_ITEM id="5">
                          <par_bool name="enabled" value="no"/>
                        </INSTRUMENT_KIT_ITEM>
                        <INSTRUMENT_KIT_ITEM id="6">
                          <par_bool name="enabled" value="no"/>
                        </INSTRUMENT_KIT_ITEM>
                        <INSTRUMENT_KIT_ITEM id="7">
                          <par_bool name="enabled" value="no"/>
                        </INSTRUMENT_KIT_ITEM>
                        <INSTRUMENT_KIT_ITEM id="8">
                          <par_bool name="enabled" value="no"/>
                        </INSTRUMENT_KIT_ITEM>
                        <INSTRUMENT_KIT_ITEM id="9">
                          <par_bool name="enabled" value="no"/>
                        </INSTRUMENT_KIT_ITEM>
                        <INSTRUMENT_KIT_ITEM id="10">
                          <par_bool name="enabled" value="no"/>
                        </INSTRUMENT_KIT_ITEM>
                        <INSTRUMENT_KIT_ITEM id="11">
                          <par_bool name="enabled" value="no"/>
                        </INSTRUMENT_KIT_ITEM>
                        <INSTRUMENT_KIT_ITEM id="12">
                          <par_bool name="enabled" value="no"/>
                        </INSTRUMENT_KIT_ITEM>
                        <INSTRUMENT_KIT_ITEM id="13">
                          <par_bool name="enabled" value="no"/>
                        </INSTRUMENT_KIT_ITEM>
                        <INSTRUMENT_KIT_ITEM id="14">
                          <par_bool name="enabled" value="no"/>
                        </INSTRUMENT_KIT_ITEM>
                        <INSTRUMENT_KIT_ITEM id="15">
                          <par_bool name="enabled" value="no"/>
                        </INSTRUMENT_KIT_ITEM>
                      </INSTRUMENT_KIT>
                      <INSTRUMENT_EFFECTS>
                        <INSTRUMENT_EFFECT id="0">
                          <EFFECT>
                            <par name="type" value="3"/>
                            <par name="preset" value="0"/>
                            <EFFECT_PARAMETERS>
                              <par_no id="0">
                                <par name="par" value="127"/>
                              </par_no>
                              <par_no id="1">
                                <par name="par" value="64"/>
                              </par_no>
                              <par_no id="2">
                                <par name="par" value="80"/>
                              </par_no>
                              <par_no id="5">
                                <par name="par" value="127"/>
                              </par_no>
                              <par_no id="6">
                                <par name="par" value="17"/>
                              </par_no>
                              <par_no id="7">
                                <par name="par" value="85"/>
                              </par_no>
                              <par_no id="8">
                                <par name="par" value="102"/>
                              </par_no>
                              <par_no id="9">
                                <par name="par" value="119"/>
                              </par_no>
                            </EFFECT_PARAMETERS>
                          </EFFECT>
                          <par name="route" value="0"/>
                          <par_bool name="bypass" value="yes"/>
                        </INSTRUMENT_EFFECT>
                        <INSTRUMENT_EFFECT id="1">
                          <EFFECT>
                            <par name="type" value="0"/>
                          </EFFECT>
                          <par name="route" value="0"/>
                          <par_bool name="bypass" value="no"/>
                        </INSTRUMENT_EFFECT>
                        <INSTRUMENT_EFFECT id="2">
                          <EFFECT>
                            <par name="type" value="0"/>
                          </EFFECT>
                          <par name="route" value="0"/>
                          <par_bool name="bypass" value="no"/>
                        </INSTRUMENT_EFFECT>
                      </INSTRUMENT_EFFECTS>
                    </INSTRUMENT>
                    <CONTROLLER>
                      <par name="pitchwheel_bendrange" value="100"/>
                      <par_bool name="expression_receive" value="yes"/>
                      <par name="panning_depth" value="64"/>
                      <par name="filter_cutoff_depth" value="64"/>
                      <par name="filter_q_depth" value="64"/>
                      <par name="bandwidth_depth" value="64"/>
                      <par name="mod_wheel_depth" value="80"/>
                      <par_bool name="mod_wheel_exponential" value="no"/>
                      <par_bool name="fm_amp_receive" value="yes"/>
                      <par_bool name="volume_receive" value="yes"/>
                      <par_bool name="sustain_receive" value="yes"/>
                      <par_bool name="portamento_receive" value="yes"/>
                      <par name="portamento_time" value="64"/>
                      <par name="portamento_pitchthresh" value="3"/>
                      <par name="portamento_pitchthreshtype" value="1"/>
                      <par name="portamento_portamento" value="0"/>
                      <par name="portamento_updowntimestretch" value="64"/>
                      <par name="portamento_proportional" value="0"/>
                      <par name="portamento_proprate" value="80"/>
                      <par name="portamento_propdepth" value="90"/>
                      <par name="resonance_center_depth" value="64"/>
                      <par name="resonance_bandwidth_depth" value="64"/>
                    </CONTROLLER>
                  </PART>
                  <PART id="1">
                    <par_bool name="enabled" value="no"/>
                  </PART>
                  <PART id="2">
                    <par_bool name="enabled" value="no"/>
                  </PART>
                  <PART id="3">
                    <par_bool name="enabled" value="no"/>
                  </PART>
                  <PART id="4">
                    <par_bool name="enabled" value="no"/>
                  </PART>
                  <PART id="5">
                    <par_bool name="enabled" value="no"/>
                  </PART>
                  <PART id="6">
                    <par_bool name="enabled" value="no"/>
                  </PART>
                  <PART id="7">
                    <par_bool name="enabled" value="no"/>
                  </PART>
                  <PART id="8">
                    <par_bool name="enabled" value="no"/>
                  </PART>
                  <PART id="9">
                    <par_bool name="enabled" value="no"/>
                  </PART>
                  <PART id="10">
                    <par_bool name="enabled" value="no"/>
                  </PART>
                  <PART id="11">
                    <par_bool name="enabled" value="no"/>
                  </PART>
                  <PART id="12">
                    <par_bool name="enabled" value="no"/>
                  </PART>
                  <PART id="13">
                    <par_bool name="enabled" value="no"/>
                  </PART>
                  <PART id="14">
                    <par_bool name="enabled" value="no"/>
                  </PART>
                  <PART id="15">
                    <par_bool name="enabled" value="no"/>
                  </PART>
                  <SYSTEM_EFFECTS>
                    <SYSTEM_EFFECT id="0">
                      <EFFECT>
                        <par name="type" value="0"/>
                      </EFFECT>
                      <VOLUME id="0">
                        <par name="vol" value="0"/>
                      </VOLUME>
                      <VOLUME id="1">
                        <par name="vol" value="0"/>
                      </VOLUME>
                      <VOLUME id="2">
                        <par name="vol" value="0"/>
                      </VOLUME>
                      <VOLUME id="3">
                        <par name="vol" value="0"/>
                      </VOLUME>
                      <VOLUME id="4">
                        <par name="vol" value="0"/>
                      </VOLUME>
                      <VOLUME id="5">
                        <par name="vol" value="0"/>
                      </VOLUME>
                      <VOLUME id="6">
                        <par name="vol" value="0"/>
                      </VOLUME>
                      <VOLUME id="7">
                        <par name="vol" value="0"/>
                      </VOLUME>
                      <VOLUME id="8">
                        <par name="vol" value="0"/>
                      </VOLUME>
                      <VOLUME id="9">
                        <par name="vol" value="0"/>
                      </VOLUME>
                      <VOLUME id="10">
                        <par name="vol" value="0"/>
                      </VOLUME>
                      <VOLUME id="11">
                        <par name="vol" value="0"/>
                      </VOLUME>
                      <VOLUME id="12">
                        <par name="vol" value="0"/>
                      </VOLUME>
                      <VOLUME id="13">
                        <par name="vol" value="0"/>
                      </VOLUME>
                      <VOLUME id="14">
                        <par name="vol" value="0"/>
                      </VOLUME>
                      <VOLUME id="15">
                        <par name="vol" value="0"/>
                      </VOLUME>
                      <SENDTO id="1">
                        <par name="send_vol" value="0"/>
                      </SENDTO>
                      <SENDTO id="2">
                        <par name="send_vol" value="0"/>
                      </SENDTO>
                      <SENDTO id="3">
                        <par name="send_vol" value="0"/>
                      </SENDTO>
                    </SYSTEM_EFFECT>
                    <SYSTEM_EFFECT id="1">
                      <EFFECT>
                        <par name="type" value="0"/>
                      </EFFECT>
                      <VOLUME id="0">
                        <par name="vol" value="0"/>
                      </VOLUME>
                      <VOLUME id="1">
                        <par name="vol" value="0"/>
                      </VOLUME>
                      <VOLUME id="2">
                        <par name="vol" value="0"/>
                      </VOLUME>
                      <VOLUME id="3">
                        <par name="vol" value="0"/>
                      </VOLUME>
                      <VOLUME id="4">
                        <par name="vol" value="0"/>
                      </VOLUME>
                      <VOLUME id="5">
                        <par name="vol" value="0"/>
                      </VOLUME>
                      <VOLUME id="6">
                        <par name="vol" value="0"/>
                      </VOLUME>
                      <VOLUME id="7">
                        <par name="vol" value="0"/>
                      </VOLUME>
                      <VOLUME id="8">
                        <par name="vol" value="0"/>
                      </VOLUME>
                      <VOLUME id="9">
                        <par name="vol" value="0"/>
                      </VOLUME>
                      <VOLUME id="10">
                        <par name="vol" value="0"/>
                      </VOLUME>
                      <VOLUME id="11">
                        <par name="vol" value="0"/>
                      </VOLUME>
                      <VOLUME id="12">
                        <par name="vol" value="0"/>
                      </VOLUME>
                      <VOLUME id="13">
                        <par name="vol" value="0"/>
                      </VOLUME>
                      <VOLUME id="14">
                        <par name="vol" value="0"/>
                      </VOLUME>
                      <VOLUME id="15">
                        <par name="vol" value="0"/>
                      </VOLUME>
                      <SENDTO id="2">
                        <par name="send_vol" value="0"/>
                      </SENDTO>
                      <SENDTO id="3">
                        <par name="send_vol" value="0"/>
                      </SENDTO>
                    </SYSTEM_EFFECT>
                    <SYSTEM_EFFECT id="2">
                      <EFFECT>
                        <par name="type" value="0"/>
                      </EFFECT>
                      <VOLUME id="0">
                        <par name="vol" value="0"/>
                      </VOLUME>
                      <VOLUME id="1">
                        <par name="vol" value="0"/>
                      </VOLUME>
                      <VOLUME id="2">
                        <par name="vol" value="0"/>
                      </VOLUME>
                      <VOLUME id="3">
                        <par name="vol" value="0"/>
                      </VOLUME>
                      <VOLUME id="4">
                        <par name="vol" value="0"/>
                      </VOLUME>
                      <VOLUME id="5">
                        <par name="vol" value="0"/>
                      </VOLUME>
                      <VOLUME id="6">
                        <par name="vol" value="0"/>
                      </VOLUME>
                      <VOLUME id="7">
                        <par name="vol" value="0"/>
                      </VOLUME>
                      <VOLUME id="8">
                        <par name="vol" value="0"/>
                      </VOLUME>
                      <VOLUME id="9">
                        <par name="vol" value="0"/>
                      </VOLUME>
                      <VOLUME id="10">
                        <par name="vol" value="0"/>
                      </VOLUME>
                      <VOLUME id="11">
                        <par name="vol" value="0"/>
                      </VOLUME>
                      <VOLUME id="12">
                        <par name="vol" value="0"/>
                      </VOLUME>
                      <VOLUME id="13">
                        <par name="vol" value="0"/>
                      </VOLUME>
                      <VOLUME id="14">
                        <par name="vol" value="0"/>
                      </VOLUME>
                      <VOLUME id="15">
                        <par name="vol" value="0"/>
                      </VOLUME>
                      <SENDTO id="3">
                        <par name="send_vol" value="0"/>
                      </SENDTO>
                    </SYSTEM_EFFECT>
                    <SYSTEM_EFFECT id="3">
                      <EFFECT>
                        <par name="type" value="0"/>
                      </EFFECT>
                      <VOLUME id="0">
                        <par name="vol" value="0"/>
                      </VOLUME>
                      <VOLUME id="1">
                        <par name="vol" value="0"/>
                      </VOLUME>
                      <VOLUME id="2">
                        <par name="vol" value="0"/>
                      </VOLUME>
                      <VOLUME id="3">
                        <par name="vol" value="0"/>
                      </VOLUME>
                      <VOLUME id="4">
                        <par name="vol" value="0"/>
                      </VOLUME>
                      <VOLUME id="5">
                        <par name="vol" value="0"/>
                      </VOLUME>
                      <VOLUME id="6">
                        <par name="vol" value="0"/>
                      </VOLUME>
                      <VOLUME id="7">
                        <par name="vol" value="0"/>
                      </VOLUME>
                      <VOLUME id="8">
                        <par name="vol" value="0"/>
                      </VOLUME>
                      <VOLUME id="9">
                        <par name="vol" value="0"/>
                      </VOLUME>
                      <VOLUME id="10">
                        <par name="vol" value="0"/>
                      </VOLUME>
                      <VOLUME id="11">
                        <par name="vol" value="0"/>
                      </VOLUME>
                      <VOLUME id="12">
                        <par name="vol" value="0"/>
                      </VOLUME>
                      <VOLUME id="13">
                        <par name="vol" value="0"/>
                      </VOLUME>
                      <VOLUME id="14">
                        <par name="vol" value="0"/>
                      </VOLUME>
                      <VOLUME id="15">
                        <par name="vol" value="0"/>
                      </VOLUME>
                    </SYSTEM_EFFECT>
                  </SYSTEM_EFFECTS>
                  <INSERTION_EFFECTS>
                    <INSERTION_EFFECT id="0">
                      <par name="part" value="-1"/>
                      <EFFECT>
                        <par name="type" value="0"/>
                      </EFFECT>
                    </INSERTION_EFFECT>
                    <INSERTION_EFFECT id="1">
                      <par name="part" value="-1"/>
                      <EFFECT>
                        <par name="type" value="0"/>
                      </EFFECT>
                    </INSERTION_EFFECT>
                    <INSERTION_EFFECT id="2">
                      <par name="part" value="-1"/>
                      <EFFECT>
                        <par name="type" value="0"/>
                      </EFFECT>
                    </INSERTION_EFFECT>
                    <INSERTION_EFFECT id="3">
                      <par name="part" value="-1"/>
                      <EFFECT>
                        <par name="type" value="0"/>
                      </EFFECT>
                    </INSERTION_EFFECT>
                    <INSERTION_EFFECT id="4">
                      <par name="part" value="-1"/>
                      <EFFECT>
                        <par name="type" value="0"/>
                      </EFFECT>
                    </INSERTION_EFFECT>
                    <INSERTION_EFFECT id="5">
                      <par name="part" value="-1"/>
                      <EFFECT>
                        <par name="type" value="0"/>
                      </EFFECT>
                    </INSERTION_EFFECT>
                    <INSERTION_EFFECT id="6">
                      <par name="part" value="-1"/>
                      <EFFECT>
                        <par name="type" value="0"/>
                      </EFFECT>
                    </INSERTION_EFFECT>
                    <INSERTION_EFFECT id="7">
                      <par name="part" value="-1"/>
                      <EFFECT>
                        <par name="type" value="0"/>
                      </EFFECT>
                    </INSERTION_EFFECT>
                  </INSERTION_EFFECTS>
                </MASTER>
              </ZynAddSubFX-data>
            </zynaddsubfx>
          </instrument>
          <eldata fres="0.5" fcut="14000" fwet="0" ftype="0">
            <elvol lspd_numerator="4" userwavefile="" lshp="0" x100="0" amt="0" lspd_syncmode="0" ctlenvamt="0" dec="0.5" hold="0.5" lspd_denominator="4" sustain="0.5" lamt="0" lspd="0.1" pdel="0" att="0" lpdel="0" latt="0" rel="0.1"/>
            <elcut lspd_numerator="4" userwavefile="" lshp="0" x100="0" amt="0" lspd_syncmode="0" ctlenvamt="0" dec="0.5" hold="0.5" lspd_denominator="4" sustain="0.5" lamt="0" lspd="0.1" pdel="0" att="0" lpdel="0" latt="0" rel="0.1"/>
            <elres lspd_numerator="4" userwavefile="" lshp="0" x100="0" amt="0" lspd_syncmode="0" ctlenvamt="0" dec="0.5" hold="0.5" lspd_denominator="4" sustain="0.5" lamt="0" lspd="0.1" pdel="0" att="0" lpdel="0" latt="0" rel="0.1"/>
          </eldata>
          <chordcreator chordrange="1" chord="0" chord-enabled="0"/>
          <arpeggiator arpskip="0" arpmiss="0" arp-enabled="0" arpgate="100" arpdir="0" arpcycle="0" arprange="1" arptime_numerator="4" arptime_denominator="4" arptime_syncmode="0" arptime="200" arp="0" arpmode="0"/>
          <midiport outputcontroller="0" inputchannel="0" outputchannel="1" fixedoutputvelocity="-1" readable="0" inputcontroller="0" basevelocity="63" fixedoutputnote="-1" fixedinputvelocity="-1" outputprogram="1" writable="0"/>
          <fxchain enabled="1" numofeffects="1">
            <effect wet="1" name="ladspaeffect" autoquit_syncmode="0" on="1" autoquit_denominator="4" autoquit="1" autoquit_numerator="4" gate="0">
              <ladspacontrols link="1" ports="12">
                <port01 link="1" data_syncmode="0" data_denominator="4" data_numerator="4">
                  <data id="3333524" scale_type="log" value="2.95313"/>
                </port01>
                <port02 link="1" data="6.67375" data_syncmode="0" data_denominator="4" data_numerator="4"/>
                <port03 link="1" data="1.45"/>
                <port04 link="1" data="1"/>
                <port05 link="1" data="0.37875"/>
                <port06 link="1" data="0.2825"/>
                <port11 data_syncmode="0" data_denominator="4" data_numerator="4">
                  <data id="1009611" scale_type="log" value="2.95313"/>
                </port11>
                <port12 data="6.67375" data_syncmode="0" data_denominator="4" data_numerator="4"/>
                <port13 data="1.45"/>
                <port14 data="1"/>
                <port15 data="0.37875"/>
                <port16 data="0.2825"/>
              </ladspacontrols>
              <key>
                <attribute name="file" value="caps"/>
                <attribute name="plugin" value="ChorusI"/>
              </key>
            </effect>
          </fxchain>
        </instrumenttrack>
        <pattern type="1" pos="8064" muted="0" name="dt" steps="16">
          <note pan="0" pos="0" key="61" len="24" vol="78"/>
          <note pan="0" pos="24" key="68" len="24" vol="78"/>
          <note pan="0" pos="48" key="73" len="24" vol="78"/>
          <note pan="0" pos="72" key="68" len="24" vol="78"/>
          <note pan="0" pos="96" key="76" len="24" vol="78"/>
          <note pan="0" pos="120" key="68" len="24" vol="78"/>
          <note pan="0" pos="144" key="73" len="24" vol="78"/>
          <note pan="0" pos="168" key="68" len="24" vol="78"/>
          <note pan="0" pos="192" key="63" len="24" vol="78"/>
          <note pan="0" pos="216" key="68" len="24" vol="78"/>
          <note pan="0" pos="240" key="71" len="24" vol="78"/>
          <note pan="0" pos="264" key="68" len="24" vol="78"/>
          <note pan="0" pos="288" key="63" len="24" vol="78"/>
          <note pan="0" pos="312" key="68" len="24" vol="78"/>
          <note pan="0" pos="336" key="71" len="24" vol="78"/>
          <note pan="0" pos="360" key="68" len="24" vol="78"/>
          <note pan="0" pos="384" key="64" len="24" vol="78"/>
          <note pan="0" pos="408" key="68" len="24" vol="78"/>
          <note pan="0" pos="432" key="73" len="24" vol="78"/>
          <note pan="0" pos="456" key="68" len="24" vol="78"/>
          <note pan="0" pos="480" key="64" len="24" vol="78"/>
          <note pan="0" pos="504" key="68" len="24" vol="78"/>
          <note pan="0" pos="528" key="73" len="24" vol="78"/>
          <note pan="0" pos="552" key="68" len="24" vol="78"/>
          <note pan="0" pos="576" key="66" len="24" vol="78"/>
          <note pan="0" pos="600" key="71" len="24" vol="78"/>
          <note pan="0" pos="624" key="76" len="24" vol="78"/>
          <note pan="0" pos="648" key="71" len="24" vol="78"/>
          <note pan="0" pos="672" key="66" len="24" vol="78"/>
          <note pan="0" pos="696" key="71" len="24" vol="78"/>
          <note pan="0" pos="720" key="75" len="24" vol="78"/>
          <note pan="0" pos="744" key="71" len="24" vol="78"/>
          <note pan="0" pos="768" key="64" len="24" vol="78"/>
          <note pan="0" pos="792" key="68" len="24" vol="78"/>
          <note pan="0" pos="816" key="73" len="24" vol="78"/>
          <note pan="0" pos="840" key="68" len="24" vol="78"/>
          <note pan="0" pos="864" key="64" len="24" vol="78"/>
          <note pan="0" pos="888" key="68" len="24" vol="78"/>
          <note pan="0" pos="912" key="73" len="24" vol="78"/>
          <note pan="0" pos="936" key="68" len="24" vol="78"/>
          <note pan="0" pos="960" key="63" len="24" vol="78"/>
          <note pan="0" pos="984" key="66" len="24" vol="78"/>
          <note pan="0" pos="1008" key="71" len="24" vol="78"/>
          <note pan="0" pos="1032" key="66" len="24" vol="78"/>
          <note pan="0" pos="1056" key="63" len="24" vol="78"/>
          <note pan="0" pos="1080" key="66" len="24" vol="78"/>
          <note pan="0" pos="1104" key="71" len="24" vol="78"/>
          <note pan="0" pos="1128" key="66" len="24" vol="78"/>
          <note pan="0" pos="1152" key="64" len="24" vol="78"/>
          <note pan="0" pos="1176" key="68" len="24" vol="78"/>
          <note pan="0" pos="1200" key="73" len="24" vol="78"/>
          <note pan="0" pos="1224" key="68" len="24" vol="78"/>
          <note pan="0" pos="1248" key="64" len="24" vol="78"/>
          <note pan="0" pos="1272" key="68" len="24" vol="78"/>
          <note pan="0" pos="1296" key="73" len="24" vol="78"/>
          <note pan="0" pos="1320" key="68" len="24" vol="78"/>
          <note pan="0" pos="1344" key="66" len="24" vol="78"/>
          <note pan="0" pos="1368" key="68" len="24" vol="78"/>
          <note pan="0" pos="1392" key="66" len="24" vol="78"/>
          <note pan="0" pos="1416" key="64" len="24" vol="78"/>
          <note pan="0" pos="1440" key="63" len="24" vol="78"/>
          <note pan="0" pos="1464" key="60" len="24" vol="78"/>
          <note pan="0" pos="1488" key="66" len="24" vol="78"/>
          <note pan="0" pos="1512" key="63" len="24" vol="78"/>
          <note pan="0" pos="1536" key="61" len="24" vol="78"/>
          <note pan="0" pos="1560" key="68" len="24" vol="78"/>
          <note pan="0" pos="1584" key="73" len="24" vol="78"/>
          <note pan="0" pos="1608" key="68" len="24" vol="78"/>
          <note pan="0" pos="1632" key="61" len="24" vol="78"/>
          <note pan="0" pos="1656" key="68" len="24" vol="78"/>
          <note pan="0" pos="1680" key="73" len="24" vol="78"/>
          <note pan="0" pos="1704" key="68" len="24" vol="78"/>
          <note pan="0" pos="1728" key="63" len="24" vol="78"/>
          <note pan="0" pos="1752" key="68" len="24" vol="78"/>
          <note pan="0" pos="1776" key="71" len="24" vol="78"/>
          <note pan="0" pos="1800" key="68" len="24" vol="78"/>
          <note pan="0" pos="1824" key="63" len="24" vol="78"/>
          <note pan="0" pos="1848" key="68" len="24" vol="78"/>
          <note pan="0" pos="1872" key="71" len="24" vol="78"/>
          <note pan="0" pos="1896" key="68" len="24" vol="78"/>
          <note pan="0" pos="1920" key="61" len="24" vol="78"/>
          <note pan="0" pos="1944" key="66" len="24" vol="78"/>
          <note pan="0" pos="1968" key="70" len="24" vol="78"/>
          <note pan="0" pos="1992" key="66" len="24" vol="78"/>
          <note pan="0" pos="2016" key="61" len="24" vol="78"/>
          <note pan="0" pos="2040" key="66" len="24" vol="78"/>
          <note pan="0" pos="2064" key="70" len="24" vol="78"/>
          <note pan="0" pos="2088" key="66" len="24" vol="78"/>
          <note pan="0" pos="2112" key="61" len="24" vol="78"/>
          <note pan="0" pos="2136" key="66" len="24" vol="78"/>
          <note pan="0" pos="2160" key="70" len="24" vol="78"/>
          <note pan="0" pos="2184" key="66" len="24" vol="78"/>
          <note pan="0" pos="2208" key="61" len="24" vol="78"/>
          <note pan="0" pos="2232" key="66" len="24" vol="78"/>
          <note pan="0" pos="2256" key="70" len="24" vol="78"/>
          <note pan="0" pos="2280" key="66" len="24" vol="78"/>
          <note pan="0" pos="2304" key="66" len="24" vol="78"/>
          <note pan="0" pos="2328" key="69" len="24" vol="78"/>
          <note pan="0" pos="2352" key="73" len="24" vol="78"/>
          <note pan="0" pos="2376" key="69" len="24" vol="78"/>
          <note pan="0" pos="2400" key="66" len="24" vol="78"/>
          <note pan="0" pos="2424" key="69" len="24" vol="78"/>
          <note pan="0" pos="2448" key="73" len="24" vol="78"/>
          <note pan="0" pos="2472" key="69" len="24" vol="78"/>
          <note pan="0" pos="2496" key="63" len="24" vol="78"/>
          <note pan="0" pos="2520" key="68" len="24" vol="78"/>
          <note pan="0" pos="2544" key="73" len="24" vol="78"/>
          <note pan="0" pos="2568" key="68" len="24" vol="78"/>
          <note pan="0" pos="2592" key="63" len="24" vol="78"/>
          <note pan="0" pos="2616" key="68" len="24" vol="78"/>
          <note pan="0" pos="2640" key="73" len="24" vol="78"/>
          <note pan="0" pos="2664" key="68" len="24" vol="78"/>
          <note pan="0" pos="2688" key="66" len="24" vol="78"/>
          <note pan="0" pos="2712" key="71" len="24" vol="78"/>
          <note pan="0" pos="2736" key="75" len="24" vol="78"/>
          <note pan="0" pos="2760" key="71" len="24" vol="78"/>
          <note pan="0" pos="2784" key="66" len="24" vol="78"/>
          <note pan="0" pos="2808" key="71" len="24" vol="78"/>
          <note pan="0" pos="2832" key="75" len="24" vol="78"/>
          <note pan="0" pos="2856" key="71" len="24" vol="78"/>
          <note pan="0" pos="2880" key="66" len="96" vol="78"/>
          <note pan="0" pos="2976" key="59" len="96" vol="78"/>
          <note pan="0" pos="3072" key="68" len="12" vol="78"/>
          <note pan="0" pos="3084" key="64" len="12" vol="78"/>
          <note pan="0" pos="3096" key="61" len="12" vol="78"/>
          <note pan="0" pos="3108" key="56" len="12" vol="78"/>
          <note pan="0" pos="3120" key="52" len="12" vol="78"/>
          <note pan="0" pos="3132" key="49" len="12" vol="78"/>
          <note pan="0" pos="3168" key="61" len="12" vol="78"/>
          <note pan="0" pos="3180" key="56" len="12" vol="78"/>
          <note pan="0" pos="3192" key="52" len="12" vol="78"/>
          <note pan="0" pos="3204" key="49" len="12" vol="78"/>
          <note pan="0" pos="3216" key="76" len="12" vol="78"/>
          <note pan="0" pos="3228" key="71" len="12" vol="78"/>
          <note pan="0" pos="3240" key="68" len="12" vol="78"/>
          <note pan="0" pos="3252" key="64" len="12" vol="78"/>
          <note pan="0" pos="3264" key="76" len="12" vol="78"/>
          <note pan="0" pos="3276" key="71" len="12" vol="78"/>
          <note pan="0" pos="3288" key="80" len="12" vol="78"/>
          <note pan="0" pos="3300" key="76" len="12" vol="78"/>
          <note pan="0" pos="3312" key="71" len="12" vol="78"/>
          <note pan="0" pos="3324" key="68" len="12" vol="78"/>
          <note pan="0" pos="3336" key="64" len="12" vol="78"/>
          <note pan="0" pos="3348" key="61" len="12" vol="78"/>
          <note pan="0" pos="3360" key="73" len="12" vol="78"/>
          <note pan="0" pos="3372" key="68" len="12" vol="78"/>
          <note pan="0" pos="3384" key="64" len="12" vol="78"/>
          <note pan="0" pos="3396" key="61" len="12" vol="78"/>
          <note pan="0" pos="3408" key="68" len="12" vol="78"/>
          <note pan="0" pos="3420" key="64" len="12" vol="78"/>
          <note pan="0" pos="3432" key="56" len="12" vol="78"/>
          <note pan="0" pos="3444" key="49" len="12" vol="78"/>
          <note pan="0" pos="3456" key="69" len="12" vol="78"/>
          <note pan="0" pos="3468" key="66" len="12" vol="78"/>
          <note pan="0" pos="3480" key="57" len="12" vol="78"/>
          <note pan="0" pos="3492" key="54" len="12" vol="78"/>
          <note pan="0" pos="3504" key="49" len="12" vol="78"/>
          <note pan="0" pos="3516" key="47" len="12" vol="78"/>
          <note pan="0" pos="3528" key="74" len="12" vol="78"/>
          <note pan="0" pos="3540" key="69" len="12" vol="78"/>
          <note pan="0" pos="3552" key="66" len="12" vol="78"/>
          <note pan="0" pos="3564" key="61" len="12" vol="78"/>
          <note pan="0" pos="3576" key="57" len="12" vol="78"/>
          <note pan="0" pos="3588" key="54" len="12" vol="78"/>
          <note pan="0" pos="3600" key="78" len="12" vol="78"/>
          <note pan="0" pos="3612" key="74" len="12" vol="78"/>
          <note pan="0" pos="3624" key="69" len="12" vol="78"/>
          <note pan="0" pos="3636" key="66" len="12" vol="78"/>
          <note pan="0" pos="3672" key="81" len="12" vol="78"/>
          <note pan="0" pos="3684" key="78" len="12" vol="78"/>
          <note pan="0" pos="3696" key="73" len="12" vol="78"/>
          <note pan="0" pos="3708" key="69" len="12" vol="78"/>
          <note pan="0" pos="3720" key="66" len="12" vol="78"/>
          <note pan="0" pos="3732" key="61" len="12" vol="78"/>
          <note pan="0" pos="3744" key="74" len="12" vol="78"/>
          <note pan="0" pos="3756" key="71" len="12" vol="78"/>
          <note pan="0" pos="3768" key="66" len="12" vol="78"/>
          <note pan="0" pos="3780" key="61" len="12" vol="78"/>
          <note pan="0" pos="3792" key="69" len="12" vol="78"/>
          <note pan="0" pos="3804" key="66" len="12" vol="78"/>
          <note pan="0" pos="3816" key="61" len="12" vol="78"/>
          <note pan="0" pos="3828" key="57" len="12" vol="78"/>
          <note pan="0" pos="3840" key="68" len="12" vol="78"/>
          <note pan="0" pos="3852" key="64" len="12" vol="78"/>
          <note pan="0" pos="3864" key="61" len="12" vol="78"/>
          <note pan="0" pos="3876" key="56" len="12" vol="78"/>
          <note pan="0" pos="3888" key="61" len="12" vol="78"/>
          <note pan="0" pos="3900" key="64" len="12" vol="78"/>
          <note pan="0" pos="3912" key="73" len="12" vol="78"/>
          <note pan="0" pos="3924" key="69" len="12" vol="78"/>
          <note pan="0" pos="3936" key="68" len="12" vol="78"/>
          <note pan="0" pos="3948" key="64" len="12" vol="78"/>
          <note pan="0" pos="3960" key="68" len="12" vol="78"/>
          <note pan="0" pos="3972" key="73" len="12" vol="78"/>
          <note pan="0" pos="3972" key="52" len="12" vol="78"/>
          <note pan="0" pos="3984" key="76" len="12" vol="78"/>
          <note pan="0" pos="3996" key="71" len="12" vol="78"/>
          <note pan="0" pos="4008" key="68" len="12" vol="78"/>
          <note pan="0" pos="4020" key="64" len="12" vol="78"/>
          <note pan="0" pos="4032" key="68" len="12" vol="78"/>
          <note pan="0" pos="4044" key="71" len="12" vol="78"/>
          <note pan="0" pos="4056" key="81" len="12" vol="78"/>
          <note pan="0" pos="4068" key="78" len="12" vol="78"/>
          <note pan="0" pos="4080" key="74" len="12" vol="78"/>
          <note pan="0" pos="4092" key="69" len="12" vol="78"/>
          <note pan="0" pos="4104" key="66" len="12" vol="78"/>
          <note pan="0" pos="4116" key="69" len="12" vol="78"/>
          <note pan="0" pos="4128" key="73" len="12" vol="78"/>
          <note pan="0" pos="4140" key="69" len="12" vol="78"/>
          <note pan="0" pos="4152" key="66" len="12" vol="78"/>
          <note pan="0" pos="4164" key="61" len="12" vol="78"/>
          <note pan="0" pos="4176" key="68" len="12" vol="78"/>
          <note pan="0" pos="4188" key="64" len="12" vol="78"/>
          <note pan="0" pos="4200" key="61" len="12" vol="78"/>
          <note pan="0" pos="4212" key="56" len="12" vol="78"/>
          <note pan="0" pos="4224" key="69" len="12" vol="78"/>
          <note pan="0" pos="4236" key="66" len="12" vol="78"/>
          <note pan="0" pos="4248" key="57" len="12" vol="78"/>
          <note pan="0" pos="4260" key="54" len="12" vol="78"/>
          <note pan="0" pos="4272" key="57" len="12" vol="78"/>
          <note pan="0" pos="4272" key="52" len="12" vol="78"/>
          <note pan="0" pos="4284" key="62" len="12" vol="78"/>
          <note pan="0" pos="4284" key="49" len="12" vol="78"/>
          <note pan="0" pos="4296" key="74" len="12" vol="78"/>
          <note pan="0" pos="4308" key="69" len="12" vol="78"/>
          <note pan="0" pos="4320" key="66" len="12" vol="78"/>
          <note pan="0" pos="4332" key="61" len="12" vol="78"/>
          <note pan="0" pos="4344" key="57" len="12" vol="78"/>
          <note pan="0" pos="4356" key="54" len="12" vol="78"/>
          <note pan="0" pos="4368" key="78" len="12" vol="78"/>
          <note pan="0" pos="4380" key="74" len="12" vol="78"/>
          <note pan="0" pos="4392" key="69" len="12" vol="78"/>
          <note pan="0" pos="4404" key="66" len="12" vol="78"/>
          <note pan="0" pos="4416" key="69" len="12" vol="78"/>
          <note pan="0" pos="4428" key="74" len="12" vol="78"/>
          <note pan="0" pos="4440" key="81" len="12" vol="78"/>
          <note pan="0" pos="4452" key="78" len="12" vol="78"/>
          <note pan="0" pos="4464" key="73" len="12" vol="78"/>
          <note pan="0" pos="4476" key="69" len="12" vol="78"/>
          <note pan="0" pos="4488" key="66" len="12" vol="78"/>
          <note pan="0" pos="4500" key="61" len="12" vol="78"/>
          <note pan="0" pos="4512" key="74" len="12" vol="78"/>
          <note pan="0" pos="4524" key="71" len="12" vol="78"/>
          <note pan="0" pos="4536" key="66" len="12" vol="78"/>
          <note pan="0" pos="4548" key="61" len="12" vol="78"/>
          <note pan="0" pos="4560" key="69" len="12" vol="78"/>
          <note pan="0" pos="4572" key="66" len="12" vol="78"/>
          <note pan="0" pos="4584" key="61" len="12" vol="78"/>
          <note pan="0" pos="4596" key="57" len="12" vol="78"/>
        </pattern>
        <pattern type="1" pos="15744" muted="0" name="dt" steps="16">
          <note pan="0" pos="0" key="61" len="24" vol="78"/>
          <note pan="0" pos="24" key="68" len="24" vol="78"/>
          <note pan="0" pos="48" key="73" len="24" vol="78"/>
          <note pan="0" pos="72" key="68" len="24" vol="78"/>
          <note pan="0" pos="96" key="76" len="24" vol="78"/>
          <note pan="0" pos="120" key="68" len="24" vol="78"/>
          <note pan="0" pos="144" key="73" len="24" vol="78"/>
          <note pan="0" pos="168" key="68" len="24" vol="78"/>
          <note pan="0" pos="192" key="63" len="24" vol="78"/>
          <note pan="0" pos="216" key="68" len="24" vol="78"/>
          <note pan="0" pos="240" key="71" len="24" vol="78"/>
          <note pan="0" pos="264" key="68" len="24" vol="78"/>
          <note pan="0" pos="288" key="63" len="24" vol="78"/>
          <note pan="0" pos="312" key="68" len="24" vol="78"/>
          <note pan="0" pos="336" key="71" len="24" vol="78"/>
          <note pan="0" pos="360" key="68" len="24" vol="78"/>
          <note pan="0" pos="384" key="64" len="24" vol="78"/>
          <note pan="0" pos="408" key="68" len="24" vol="78"/>
          <note pan="0" pos="432" key="73" len="24" vol="78"/>
          <note pan="0" pos="456" key="68" len="24" vol="78"/>
          <note pan="0" pos="480" key="64" len="24" vol="78"/>
          <note pan="0" pos="504" key="68" len="24" vol="78"/>
          <note pan="0" pos="528" key="73" len="24" vol="78"/>
          <note pan="0" pos="552" key="68" len="24" vol="78"/>
          <note pan="0" pos="576" key="66" len="24" vol="78"/>
          <note pan="0" pos="600" key="71" len="24" vol="78"/>
          <note pan="0" pos="624" key="76" len="24" vol="78"/>
          <note pan="0" pos="648" key="71" len="24" vol="78"/>
          <note pan="0" pos="672" key="66" len="24" vol="78"/>
          <note pan="0" pos="696" key="71" len="24" vol="78"/>
          <note pan="0" pos="720" key="75" len="24" vol="78"/>
          <note pan="0" pos="744" key="71" len="24" vol="78"/>
          <note pan="0" pos="768" key="64" len="24" vol="78"/>
          <note pan="0" pos="792" key="68" len="24" vol="78"/>
          <note pan="0" pos="816" key="73" len="24" vol="78"/>
          <note pan="0" pos="840" key="68" len="24" vol="78"/>
          <note pan="0" pos="864" key="64" len="24" vol="78"/>
          <note pan="0" pos="888" key="68" len="24" vol="78"/>
          <note pan="0" pos="912" key="73" len="24" vol="78"/>
          <note pan="0" pos="936" key="68" len="24" vol="78"/>
          <note pan="0" pos="960" key="63" len="24" vol="78"/>
          <note pan="0" pos="984" key="66" len="24" vol="78"/>
          <note pan="0" pos="1008" key="71" len="24" vol="78"/>
          <note pan="0" pos="1032" key="66" len="24" vol="78"/>
          <note pan="0" pos="1056" key="63" len="24" vol="78"/>
          <note pan="0" pos="1080" key="66" len="24" vol="78"/>
          <note pan="0" pos="1104" key="71" len="24" vol="78"/>
          <note pan="0" pos="1128" key="66" len="24" vol="78"/>
          <note pan="0" pos="1152" key="64" len="24" vol="78"/>
          <note pan="0" pos="1176" key="68" len="24" vol="78"/>
          <note pan="0" pos="1200" key="73" len="24" vol="78"/>
          <note pan="0" pos="1224" key="68" len="24" vol="78"/>
          <note pan="0" pos="1248" key="64" len="24" vol="78"/>
          <note pan="0" pos="1272" key="68" len="24" vol="78"/>
          <note pan="0" pos="1296" key="73" len="24" vol="78"/>
          <note pan="0" pos="1320" key="68" len="24" vol="78"/>
          <note pan="0" pos="1344" key="66" len="24" vol="78"/>
          <note pan="0" pos="1368" key="68" len="24" vol="78"/>
          <note pan="0" pos="1392" key="66" len="24" vol="78"/>
          <note pan="0" pos="1416" key="64" len="24" vol="78"/>
          <note pan="0" pos="1440" key="63" len="24" vol="78"/>
          <note pan="0" pos="1464" key="60" len="24" vol="78"/>
          <note pan="0" pos="1488" key="66" len="24" vol="78"/>
          <note pan="0" pos="1512" key="63" len="24" vol="78"/>
          <note pan="0" pos="1536" key="61" len="24" vol="78"/>
          <note pan="0" pos="1560" key="68" len="24" vol="78"/>
          <note pan="0" pos="1584" key="73" len="24" vol="78"/>
          <note pan="0" pos="1608" key="68" len="24" vol="78"/>
          <note pan="0" pos="1632" key="61" len="24" vol="78"/>
          <note pan="0" pos="1656" key="68" len="24" vol="78"/>
          <note pan="0" pos="1680" key="73" len="24" vol="78"/>
          <note pan="0" pos="1704" key="68" len="24" vol="78"/>
          <note pan="0" pos="1728" key="63" len="24" vol="78"/>
          <note pan="0" pos="1752" key="68" len="24" vol="78"/>
          <note pan="0" pos="1776" key="71" len="24" vol="78"/>
          <note pan="0" pos="1800" key="68" len="24" vol="78"/>
          <note pan="0" pos="1824" key="63" len="24" vol="78"/>
          <note pan="0" pos="1848" key="68" len="24" vol="78"/>
          <note pan="0" pos="1872" key="71" len="24" vol="78"/>
          <note pan="0" pos="1896" key="68" len="24" vol="78"/>
          <note pan="0" pos="1920" key="61" len="24" vol="78"/>
          <note pan="0" pos="1944" key="66" len="24" vol="78"/>
          <note pan="0" pos="1968" key="70" len="24" vol="78"/>
          <note pan="0" pos="1992" key="66" len="24" vol="78"/>
          <note pan="0" pos="2016" key="61" len="24" vol="78"/>
          <note pan="0" pos="2040" key="66" len="24" vol="78"/>
          <note pan="0" pos="2064" key="70" len="24" vol="78"/>
          <note pan="0" pos="2088" key="66" len="24" vol="78"/>
          <note pan="0" pos="2112" key="61" len="24" vol="78"/>
          <note pan="0" pos="2136" key="66" len="24" vol="78"/>
          <note pan="0" pos="2160" key="70" len="24" vol="78"/>
          <note pan="0" pos="2184" key="66" len="24" vol="78"/>
          <note pan="0" pos="2208" key="61" len="24" vol="78"/>
          <note pan="0" pos="2232" key="66" len="24" vol="78"/>
          <note pan="0" pos="2256" key="70" len="24" vol="78"/>
          <note pan="0" pos="2280" key="66" len="24" vol="78"/>
          <note pan="0" pos="2304" key="66" len="24" vol="78"/>
          <note pan="0" pos="2328" key="69" len="24" vol="78"/>
          <note pan="0" pos="2352" key="73" len="24" vol="78"/>
          <note pan="0" pos="2376" key="69" len="24" vol="78"/>
          <note pan="0" pos="2400" key="66" len="24" vol="78"/>
          <note pan="0" pos="2424" key="69" len="24" vol="78"/>
          <note pan="0" pos="2448" key="73" len="24" vol="78"/>
          <note pan="0" pos="2472" key="69" len="24" vol="78"/>
          <note pan="0" pos="2496" key="63" len="24" vol="78"/>
          <note pan="0" pos="2520" key="68" len="24" vol="78"/>
          <note pan="0" pos="2544" key="73" len="24" vol="78"/>
          <note pan="0" pos="2568" key="68" len="24" vol="78"/>
          <note pan="0" pos="2592" key="63" len="24" vol="78"/>
          <note pan="0" pos="2616" key="68" len="24" vol="78"/>
          <note pan="0" pos="2640" key="73" len="24" vol="78"/>
          <note pan="0" pos="2664" key="68" len="24" vol="78"/>
          <note pan="0" pos="2688" key="66" len="24" vol="78"/>
          <note pan="0" pos="2712" key="71" len="24" vol="78"/>
          <note pan="0" pos="2736" key="75" len="24" vol="78"/>
          <note pan="0" pos="2760" key="71" len="24" vol="78"/>
          <note pan="0" pos="2784" key="66" len="24" vol="78"/>
          <note pan="0" pos="2808" key="71" len="24" vol="78"/>
          <note pan="0" pos="2832" key="75" len="24" vol="78"/>
          <note pan="0" pos="2856" key="71" len="24" vol="78"/>
          <note pan="0" pos="2880" key="63" len="24" vol="78"/>
          <note pan="0" pos="2880" key="51" len="24" vol="78"/>
          <note pan="0" pos="2904" key="63" len="24" vol="78"/>
          <note pan="0" pos="2904" key="51" len="24" vol="78"/>
          <note pan="0" pos="2976" key="71" len="24" vol="78"/>
          <note pan="0" pos="2976" key="59" len="24" vol="78"/>
          <note pan="0" pos="3000" key="71" len="24" vol="78"/>
          <note pan="0" pos="3000" key="59" len="24" vol="78"/>
          <note pan="0" pos="3072" key="56" len="12" vol="78"/>
          <note pan="0" pos="3084" key="61" len="12" vol="78"/>
          <note pan="0" pos="3096" key="64" len="12" vol="78"/>
          <note pan="0" pos="3108" key="68" len="12" vol="78"/>
          <note pan="0" pos="3120" key="73" len="12" vol="78"/>
          <note pan="0" pos="3132" key="76" len="12" vol="78"/>
          <note pan="0" pos="3144" key="80" len="12" vol="78"/>
          <note pan="0" pos="3156" key="83" len="12" vol="78"/>
          <note pan="0" pos="3168" key="73" len="12" vol="78"/>
          <note pan="0" pos="3180" key="83" len="12" vol="78"/>
          <note pan="0" pos="3192" key="80" len="12" vol="78"/>
          <note pan="0" pos="3204" key="76" len="12" vol="78"/>
          <note pan="0" pos="3216" key="73" len="12" vol="78"/>
          <note pan="0" pos="3228" key="68" len="12" vol="78"/>
          <note pan="0" pos="3240" key="64" len="12" vol="78"/>
          <note pan="0" pos="3252" key="61" len="12" vol="78"/>
          <note pan="0" pos="3264" key="56" len="12" vol="78"/>
          <note pan="0" pos="3276" key="61" len="12" vol="78"/>
          <note pan="0" pos="3288" key="64" len="12" vol="78"/>
          <note pan="0" pos="3300" key="68" len="12" vol="78"/>
          <note pan="0" pos="3312" key="73" len="12" vol="78"/>
          <note pan="0" pos="3324" key="76" len="12" vol="78"/>
          <note pan="0" pos="3336" key="80" len="12" vol="78"/>
          <note pan="0" pos="3348" key="83" len="12" vol="78"/>
          <note pan="0" pos="3360" key="73" len="12" vol="78"/>
          <note pan="0" pos="3372" key="83" len="12" vol="78"/>
          <note pan="0" pos="3384" key="80" len="12" vol="78"/>
          <note pan="0" pos="3396" key="76" len="12" vol="78"/>
          <note pan="0" pos="3408" key="73" len="12" vol="78"/>
          <note pan="0" pos="3420" key="68" len="12" vol="78"/>
          <note pan="0" pos="3432" key="64" len="12" vol="78"/>
          <note pan="0" pos="3444" key="61" len="12" vol="78"/>
          <note pan="0" pos="3456" key="54" len="12" vol="78"/>
          <note pan="0" pos="3468" key="59" len="12" vol="78"/>
          <note pan="0" pos="3480" key="63" len="12" vol="78"/>
          <note pan="0" pos="3492" key="66" len="12" vol="78"/>
          <note pan="0" pos="3504" key="69" len="12" vol="78"/>
          <note pan="0" pos="3516" key="73" len="12" vol="78"/>
          <note pan="0" pos="3528" key="76" len="12" vol="78"/>
          <note pan="0" pos="3540" key="80" len="12" vol="78"/>
          <note pan="0" pos="3552" key="83" len="12" vol="78"/>
          <note pan="0" pos="3564" key="80" len="12" vol="78"/>
          <note pan="0" pos="3576" key="75" len="12" vol="78"/>
          <note pan="0" pos="3588" key="71" len="12" vol="78"/>
          <note pan="0" pos="3600" key="66" len="12" vol="78"/>
          <note pan="0" pos="3612" key="61" len="12" vol="78"/>
          <note pan="0" pos="3624" key="59" len="12" vol="78"/>
          <note pan="0" pos="3636" key="54" len="12" vol="78"/>
          <note pan="0" pos="3648" key="54" len="12" vol="78"/>
          <note pan="0" pos="3660" key="59" len="12" vol="78"/>
          <note pan="0" pos="3672" key="63" len="12" vol="78"/>
          <note pan="0" pos="3684" key="66" len="12" vol="78"/>
          <note pan="0" pos="3696" key="69" len="12" vol="78"/>
          <note pan="0" pos="3708" key="73" len="12" vol="78"/>
          <note pan="0" pos="3720" key="76" len="12" vol="78"/>
          <note pan="0" pos="3732" key="80" len="12" vol="78"/>
          <note pan="0" pos="3744" key="83" len="12" vol="78"/>
          <note pan="0" pos="3756" key="80" len="12" vol="78"/>
          <note pan="0" pos="3768" key="75" len="12" vol="78"/>
          <note pan="0" pos="3780" key="71" len="12" vol="78"/>
          <note pan="0" pos="3792" key="66" len="12" vol="78"/>
          <note pan="0" pos="3804" key="61" len="12" vol="78"/>
          <note pan="0" pos="3816" key="59" len="12" vol="78"/>
          <note pan="0" pos="3828" key="54" len="12" vol="78"/>
          <note pan="0" pos="3840" key="54" len="12" vol="78"/>
          <note pan="0" pos="3852" key="57" len="12" vol="78"/>
          <note pan="0" pos="3864" key="61" len="12" vol="78"/>
          <note pan="0" pos="3876" key="64" len="12" vol="78"/>
          <note pan="0" pos="3888" key="66" len="12" vol="78"/>
          <note pan="0" pos="3900" key="73" len="12" vol="78"/>
          <note pan="0" pos="3912" key="76" len="12" vol="78"/>
          <note pan="0" pos="3924" key="78" len="12" vol="78"/>
          <note pan="0" pos="3936" key="82" len="12" vol="78"/>
          <note pan="0" pos="3948" key="78" len="12" vol="78"/>
          <note pan="0" pos="3960" key="76" len="12" vol="78"/>
          <note pan="0" pos="3972" key="73" len="12" vol="78"/>
          <note pan="0" pos="3984" key="66" len="12" vol="78"/>
          <note pan="0" pos="3996" key="64" len="12" vol="78"/>
          <note pan="0" pos="4008" key="61" len="12" vol="78"/>
          <note pan="0" pos="4020" key="57" len="12" vol="78"/>
          <note pan="0" pos="4032" key="54" len="12" vol="78"/>
          <note pan="0" pos="4044" key="57" len="12" vol="78"/>
          <note pan="0" pos="4056" key="61" len="12" vol="78"/>
          <note pan="0" pos="4068" key="64" len="12" vol="78"/>
          <note pan="0" pos="4080" key="66" len="12" vol="78"/>
          <note pan="0" pos="4092" key="73" len="12" vol="78"/>
          <note pan="0" pos="4104" key="76" len="12" vol="78"/>
          <note pan="0" pos="4116" key="78" len="12" vol="78"/>
          <note pan="0" pos="4128" key="82" len="12" vol="78"/>
          <note pan="0" pos="4140" key="78" len="12" vol="78"/>
          <note pan="0" pos="4152" key="76" len="12" vol="78"/>
          <note pan="0" pos="4164" key="73" len="12" vol="78"/>
          <note pan="0" pos="4176" key="66" len="12" vol="78"/>
          <note pan="0" pos="4188" key="64" len="12" vol="78"/>
          <note pan="0" pos="4200" key="61" len="12" vol="78"/>
          <note pan="0" pos="4212" key="57" len="12" vol="78"/>
          <note pan="0" pos="4224" key="51" len="12" vol="78"/>
          <note pan="0" pos="4236" key="54" len="12" vol="78"/>
          <note pan="0" pos="4248" key="57" len="12" vol="78"/>
          <note pan="0" pos="4260" key="63" len="12" vol="78"/>
          <note pan="0" pos="4272" key="66" len="12" vol="78"/>
          <note pan="0" pos="4284" key="69" len="12" vol="78"/>
          <note pan="0" pos="4296" key="73" len="12" vol="78"/>
          <note pan="0" pos="4308" key="76" len="12" vol="78"/>
          <note pan="0" pos="4320" key="81" len="12" vol="78"/>
          <note pan="0" pos="4332" key="78" len="12" vol="78"/>
          <note pan="0" pos="4344" key="73" len="12" vol="78"/>
          <note pan="0" pos="4356" key="69" len="12" vol="78"/>
          <note pan="0" pos="4368" key="66" len="12" vol="78"/>
          <note pan="0" pos="4380" key="63" len="12" vol="78"/>
          <note pan="0" pos="4392" key="57" len="12" vol="78"/>
          <note pan="0" pos="4404" key="54" len="12" vol="78"/>
          <note pan="0" pos="4416" key="51" len="12" vol="78"/>
          <note pan="0" pos="4428" key="54" len="12" vol="78"/>
          <note pan="0" pos="4440" key="57" len="12" vol="78"/>
          <note pan="0" pos="4452" key="63" len="12" vol="78"/>
          <note pan="0" pos="4464" key="66" len="12" vol="78"/>
          <note pan="0" pos="4476" key="69" len="12" vol="78"/>
          <note pan="0" pos="4488" key="73" len="12" vol="78"/>
          <note pan="0" pos="4500" key="76" len="12" vol="78"/>
          <note pan="0" pos="4512" key="81" len="12" vol="78"/>
          <note pan="0" pos="4524" key="78" len="12" vol="78"/>
          <note pan="0" pos="4536" key="73" len="12" vol="78"/>
          <note pan="0" pos="4548" key="69" len="12" vol="78"/>
          <note pan="0" pos="4560" key="66" len="12" vol="78"/>
          <note pan="0" pos="4572" key="63" len="12" vol="78"/>
          <note pan="0" pos="4584" key="57" len="12" vol="78"/>
          <note pan="0" pos="4596" key="54" len="12" vol="78"/>
          <note pan="0" pos="4608" key="52" len="12" vol="78"/>
          <note pan="0" pos="4620" key="61" len="12" vol="78"/>
          <note pan="0" pos="4632" key="64" len="12" vol="78"/>
          <note pan="0" pos="4644" key="68" len="12" vol="78"/>
          <note pan="0" pos="4656" key="73" len="12" vol="78"/>
          <note pan="0" pos="4668" key="76" len="12" vol="78"/>
          <note pan="0" pos="4680" key="80" len="12" vol="78"/>
          <note pan="0" pos="4692" key="83" len="12" vol="78"/>
          <note pan="0" pos="4704" key="73" len="12" vol="78"/>
          <note pan="0" pos="4716" key="83" len="12" vol="78"/>
          <note pan="0" pos="4728" key="80" len="12" vol="78"/>
          <note pan="0" pos="4740" key="76" len="12" vol="78"/>
          <note pan="0" pos="4752" key="73" len="12" vol="78"/>
          <note pan="0" pos="4764" key="68" len="12" vol="78"/>
          <note pan="0" pos="4776" key="64" len="12" vol="78"/>
          <note pan="0" pos="4788" key="61" len="12" vol="78"/>
          <note pan="0" pos="4800" key="52" len="12" vol="78"/>
          <note pan="0" pos="4812" key="61" len="12" vol="78"/>
          <note pan="0" pos="4824" key="64" len="12" vol="78"/>
          <note pan="0" pos="4836" key="68" len="12" vol="78"/>
          <note pan="0" pos="4848" key="73" len="12" vol="78"/>
          <note pan="0" pos="4860" key="76" len="12" vol="78"/>
          <note pan="0" pos="4872" key="80" len="12" vol="78"/>
          <note pan="0" pos="4884" key="83" len="12" vol="78"/>
          <note pan="0" pos="4896" key="73" len="12" vol="78"/>
          <note pan="0" pos="4908" key="83" len="12" vol="78"/>
          <note pan="0" pos="4920" key="80" len="12" vol="78"/>
          <note pan="0" pos="4932" key="76" len="12" vol="78"/>
          <note pan="0" pos="4944" key="73" len="12" vol="78"/>
          <note pan="0" pos="4956" key="68" len="12" vol="78"/>
          <note pan="0" pos="4968" key="64" len="12" vol="78"/>
          <note pan="0" pos="4980" key="61" len="12" vol="78"/>
          <note pan="0" pos="4992" key="54" len="12" vol="78"/>
          <note pan="0" pos="5004" key="59" len="12" vol="78"/>
          <note pan="0" pos="5016" key="63" len="12" vol="78"/>
          <note pan="0" pos="5028" key="66" len="12" vol="78"/>
          <note pan="0" pos="5040" key="69" len="12" vol="78"/>
          <note pan="0" pos="5052" key="73" len="12" vol="78"/>
          <note pan="0" pos="5064" key="76" len="12" vol="78"/>
          <note pan="0" pos="5076" key="80" len="12" vol="78"/>
          <note pan="0" pos="5088" key="83" len="12" vol="78"/>
          <note pan="0" pos="5100" key="80" len="12" vol="78"/>
          <note pan="0" pos="5112" key="75" len="12" vol="78"/>
          <note pan="0" pos="5124" key="71" len="12" vol="78"/>
          <note pan="0" pos="5136" key="66" len="12" vol="78"/>
          <note pan="0" pos="5148" key="61" len="12" vol="78"/>
          <note pan="0" pos="5160" key="59" len="12" vol="78"/>
          <note pan="0" pos="5172" key="54" len="12" vol="78"/>
          <note pan="0" pos="5184" key="54" len="12" vol="78"/>
          <note pan="0" pos="5196" key="59" len="12" vol="78"/>
          <note pan="0" pos="5208" key="63" len="12" vol="78"/>
          <note pan="0" pos="5220" key="66" len="12" vol="78"/>
          <note pan="0" pos="5232" key="69" len="12" vol="78"/>
          <note pan="0" pos="5244" key="73" len="12" vol="78"/>
          <note pan="0" pos="5256" key="76" len="12" vol="78"/>
          <note pan="0" pos="5268" key="80" len="12" vol="78"/>
          <note pan="0" pos="5280" key="83" len="12" vol="78"/>
          <note pan="0" pos="5292" key="80" len="12" vol="78"/>
          <note pan="0" pos="5304" key="75" len="12" vol="78"/>
          <note pan="0" pos="5316" key="71" len="12" vol="78"/>
          <note pan="0" pos="5328" key="66" len="12" vol="78"/>
          <note pan="0" pos="5340" key="61" len="12" vol="78"/>
          <note pan="0" pos="5352" key="59" len="12" vol="78"/>
          <note pan="0" pos="5364" key="54" len="12" vol="78"/>
          <note pan="0" pos="5376" key="54" len="12" vol="78"/>
          <note pan="0" pos="5388" key="57" len="12" vol="78"/>
          <note pan="0" pos="5400" key="63" len="12" vol="78"/>
          <note pan="0" pos="5412" key="66" len="12" vol="78"/>
          <note pan="0" pos="5424" key="69" len="12" vol="78"/>
          <note pan="0" pos="5436" key="73" len="12" vol="78"/>
          <note pan="0" pos="5448" key="76" len="12" vol="78"/>
          <note pan="0" pos="5460" key="81" len="12" vol="78"/>
          <note pan="0" pos="5472" key="75" len="12" vol="78"/>
          <note pan="0" pos="5484" key="81" len="12" vol="78"/>
          <note pan="0" pos="5496" key="76" len="12" vol="78"/>
          <note pan="0" pos="5508" key="73" len="12" vol="78"/>
          <note pan="0" pos="5520" key="69" len="12" vol="78"/>
          <note pan="0" pos="5532" key="66" len="12" vol="78"/>
          <note pan="0" pos="5544" key="63" len="12" vol="78"/>
          <note pan="0" pos="5556" key="57" len="12" vol="78"/>
          <note pan="0" pos="5568" key="54" len="12" vol="78"/>
          <note pan="0" pos="5580" key="57" len="12" vol="78"/>
          <note pan="0" pos="5592" key="63" len="12" vol="78"/>
          <note pan="0" pos="5604" key="66" len="12" vol="78"/>
          <note pan="0" pos="5616" key="69" len="12" vol="78"/>
          <note pan="0" pos="5628" key="73" len="12" vol="78"/>
          <note pan="0" pos="5640" key="76" len="12" vol="78"/>
          <note pan="0" pos="5652" key="81" len="12" vol="78"/>
          <note pan="0" pos="5664" key="75" len="12" vol="78"/>
          <note pan="0" pos="5676" key="81" len="12" vol="78"/>
          <note pan="0" pos="5688" key="76" len="12" vol="78"/>
          <note pan="0" pos="5700" key="73" len="12" vol="78"/>
          <note pan="0" pos="5712" key="69" len="12" vol="78"/>
          <note pan="0" pos="5724" key="66" len="12" vol="78"/>
          <note pan="0" pos="5736" key="63" len="12" vol="78"/>
          <note pan="0" pos="5748" key="57" len="12" vol="78"/>
          <note pan="0" pos="5760" key="57" len="12" vol="78"/>
          <note pan="0" pos="5772" key="61" len="12" vol="78"/>
          <note pan="0" pos="5784" key="64" len="12" vol="78"/>
          <note pan="0" pos="5796" key="68" len="12" vol="78"/>
          <note pan="0" pos="5808" key="71" len="12" vol="78"/>
          <note pan="0" pos="5820" key="75" len="12" vol="78"/>
          <note pan="0" pos="5832" key="78" len="12" vol="78"/>
          <note pan="0" pos="5844" key="81" len="12" vol="78"/>
          <note pan="0" pos="5856" key="73" len="12" vol="78"/>
          <note pan="0" pos="5868" key="81" len="12" vol="78"/>
          <note pan="0" pos="5880" key="78" len="12" vol="78"/>
          <note pan="0" pos="5892" key="75" len="12" vol="78"/>
          <note pan="0" pos="5904" key="71" len="12" vol="78"/>
          <note pan="0" pos="5916" key="68" len="12" vol="78"/>
          <note pan="0" pos="5928" key="64" len="12" vol="78"/>
          <note pan="0" pos="5940" key="61" len="12" vol="78"/>
          <note pan="0" pos="5952" key="57" len="12" vol="78"/>
          <note pan="0" pos="5964" key="61" len="12" vol="78"/>
          <note pan="0" pos="5976" key="64" len="12" vol="78"/>
          <note pan="0" pos="5988" key="68" len="12" vol="78"/>
          <note pan="0" pos="6000" key="71" len="12" vol="78"/>
          <note pan="0" pos="6012" key="75" len="12" vol="78"/>
          <note pan="0" pos="6024" key="78" len="12" vol="78"/>
          <note pan="0" pos="6036" key="81" len="12" vol="78"/>
          <note pan="0" pos="6048" key="72" len="12" vol="78"/>
          <note pan="0" pos="6060" key="81" len="12" vol="78"/>
          <note pan="0" pos="6072" key="78" len="12" vol="78"/>
          <note pan="0" pos="6084" key="75" len="12" vol="78"/>
          <note pan="0" pos="6096" key="71" len="12" vol="78"/>
          <note pan="0" pos="6108" key="68" len="12" vol="78"/>
          <note pan="0" pos="6120" key="64" len="12" vol="78"/>
          <note pan="0" pos="6132" key="61" len="12" vol="78"/>
        </pattern>
        <pattern type="1" pos="4992" muted="0" name="dt" steps="16">
          <note pan="0" pos="0" key="61" len="24" vol="78"/>
          <note pan="0" pos="24" key="63" len="24" vol="78"/>
          <note pan="0" pos="48" key="61" len="24" vol="78"/>
          <note pan="0" pos="72" key="68" len="48" vol="78"/>
          <note pan="0" pos="120" key="61" len="24" vol="78"/>
          <note pan="0" pos="144" key="64" len="24" vol="78"/>
          <note pan="0" pos="168" key="68" len="24" vol="78"/>
          <note pan="0" pos="192" key="71" len="24" vol="78"/>
          <note pan="0" pos="216" key="69" len="24" vol="78"/>
          <note pan="0" pos="240" key="68" len="24" vol="78"/>
          <note pan="0" pos="264" key="69" len="48" vol="78"/>
          <note pan="0" pos="312" key="68" len="24" vol="78"/>
          <note pan="0" pos="336" key="66" len="24" vol="78"/>
          <note pan="0" pos="360" key="68" len="24" vol="78"/>
        </pattern>
        <pattern type="1" pos="5376" muted="0" name="dt" steps="16">
          <note pan="0" pos="0" key="68" len="24" vol="78"/>
          <note pan="0" pos="0" key="0" len="24" vol="78"/>
          <note pan="0" pos="24" key="71" len="24" vol="78"/>
          <note pan="0" pos="48" key="68" len="24" vol="78"/>
          <note pan="0" pos="72" key="75" len="48" vol="78"/>
          <note pan="0" pos="120" key="68" len="24" vol="78"/>
          <note pan="0" pos="144" key="71" len="24" vol="78"/>
          <note pan="0" pos="168" key="75" len="24" vol="78"/>
          <note pan="0" pos="192" key="76" len="24" vol="78"/>
          <note pan="0" pos="216" key="75" len="24" vol="78"/>
          <note pan="0" pos="240" key="73" len="24" vol="78"/>
          <note pan="0" pos="264" key="71" len="24" vol="78"/>
          <note pan="0" pos="288" key="75" len="24" vol="78"/>
          <note pan="0" pos="312" key="73" len="24" vol="78"/>
          <note pan="0" pos="336" key="71" len="24" vol="78"/>
          <note pan="0" pos="360" key="68" len="24" vol="78"/>
        </pattern>
        <pattern type="1" pos="5760" muted="0" name="dt" steps="16">
          <note pan="0" pos="0" key="61" len="24" vol="78"/>
          <note pan="0" pos="0" key="0" len="48" vol="100"/>
          <note pan="0" pos="24" key="63" len="24" vol="78"/>
          <note pan="0" pos="48" key="61" len="24" vol="78"/>
          <note pan="0" pos="72" key="68" len="48" vol="78"/>
          <note pan="0" pos="120" key="61" len="24" vol="78"/>
          <note pan="0" pos="144" key="64" len="24" vol="78"/>
          <note pan="0" pos="168" key="68" len="24" vol="78"/>
          <note pan="0" pos="192" key="71" len="24" vol="78"/>
          <note pan="0" pos="216" key="73" len="24" vol="78"/>
          <note pan="0" pos="240" key="75" len="24" vol="78"/>
          <note pan="0" pos="264" key="73" len="48" vol="78"/>
          <note pan="0" pos="312" key="75" len="24" vol="78"/>
          <note pan="0" pos="336" key="76" len="24" vol="78"/>
          <note pan="0" pos="360" key="78" len="24" vol="78"/>
        </pattern>
        <pattern type="1" pos="6144" muted="0" name="dt" steps="16">
          <note pan="0" pos="0" key="87" len="24" vol="78"/>
          <note pan="0" pos="24" key="76" len="24" vol="78"/>
          <note pan="0" pos="48" key="80" len="24" vol="78"/>
          <note pan="0" pos="72" key="83" len="48" vol="78"/>
          <note pan="0" pos="120" key="80" len="24" vol="78"/>
          <note pan="0" pos="144" key="83" len="24" vol="78"/>
          <note pan="0" pos="168" key="87" len="24" vol="78"/>
          <note pan="0" pos="192" key="85" len="24" vol="78"/>
          <note pan="0" pos="216" key="80" len="24" vol="78"/>
          <note pan="0" pos="240" key="76" len="24" vol="78"/>
          <note pan="0" pos="264" key="73" len="24" vol="78"/>
          <note pan="0" pos="288" key="78" len="24" vol="78"/>
          <note pan="0" pos="312" key="76" len="24" vol="78"/>
          <note pan="0" pos="336" key="80" len="24" vol="78"/>
          <note pan="0" pos="360" key="76" len="24" vol="78"/>
          <note pan="0" pos="384" key="69" len="120" vol="78"/>
          <note pan="0" pos="504" key="68" len="24" vol="78"/>
          <note pan="0" pos="528" key="69" len="24" vol="78"/>
          <note pan="0" pos="552" key="71" len="24" vol="78"/>
          <note pan="0" pos="576" key="73" len="72" vol="78"/>
          <note pan="0" pos="648" key="71" len="72" vol="78"/>
          <note pan="0" pos="720" key="69" len="48" vol="78"/>
          <note pan="0" pos="768" key="68" len="24" vol="78"/>
          <note pan="0" pos="792" key="69" len="24" vol="78"/>
          <note pan="0" pos="816" key="68" len="24" vol="78"/>
          <note pan="0" pos="840" key="64" len="48" vol="78"/>
          <note pan="0" pos="888" key="64" len="24" vol="78"/>
          <note pan="0" pos="912" key="66" len="24" vol="78"/>
          <note pan="0" pos="936" key="68" len="24" vol="78"/>
          <note pan="0" pos="960" key="66" len="96" vol="78"/>
        </pattern>
        <pattern type="0" pos="12672" muted="0" name="dt" steps="16"/>
        <pattern type="1" pos="29568" muted="0" name="dt" steps="16">
          <note pan="0" pos="0" key="68" len="12" vol="152"/>
          <note pan="0" pos="12" key="66" len="12" vol="152"/>
          <note pan="0" pos="24" key="64" len="12" vol="152"/>
          <note pan="0" pos="36" key="61" len="12" vol="152"/>
          <note pan="0" pos="48" key="59" len="12" vol="152"/>
          <note pan="0" pos="60" key="61" len="12" vol="152"/>
          <note pan="0" pos="72" key="66" len="12" vol="152"/>
          <note pan="0" pos="84" key="64" len="12" vol="152"/>
          <note pan="0" pos="96" key="61" len="12" vol="152"/>
          <note pan="0" pos="108" key="64" len="12" vol="152"/>
          <note pan="0" pos="120" key="68" len="12" vol="152"/>
          <note pan="0" pos="132" key="66" len="12" vol="152"/>
          <note pan="0" pos="144" key="64" len="12" vol="152"/>
          <note pan="0" pos="156" key="61" len="12" vol="152"/>
          <note pan="0" pos="168" key="64" len="12" vol="152"/>
          <note pan="0" pos="180" key="66" len="12" vol="152"/>
        </pattern>
        <pattern type="1" pos="29760" muted="0" name="dt" steps="16">
          <note pan="0" pos="0" key="68" len="12" vol="152"/>
          <note pan="0" pos="12" key="66" len="12" vol="152"/>
          <note pan="0" pos="24" key="64" len="12" vol="152"/>
          <note pan="0" pos="36" key="61" len="12" vol="152"/>
          <note pan="0" pos="48" key="59" len="12" vol="152"/>
          <note pan="0" pos="60" key="61" len="12" vol="152"/>
          <note pan="0" pos="72" key="66" len="12" vol="152"/>
          <note pan="0" pos="84" key="64" len="12" vol="152"/>
          <note pan="0" pos="96" key="61" len="12" vol="152"/>
          <note pan="0" pos="108" key="64" len="12" vol="152"/>
          <note pan="0" pos="120" key="71" len="12" vol="152"/>
          <note pan="0" pos="132" key="68" len="12" vol="152"/>
          <note pan="0" pos="144" key="66" len="12" vol="152"/>
          <note pan="0" pos="156" key="68" len="12" vol="152"/>
          <note pan="0" pos="168" key="66" len="12" vol="152"/>
          <note pan="0" pos="180" key="64" len="12" vol="152"/>
        </pattern>
        <pattern type="1" pos="13824" muted="0" name="dt" steps="16">
          <note pan="0" pos="384" key="69" len="120" vol="78"/>
          <note pan="0" pos="504" key="68" len="24" vol="78"/>
          <note pan="0" pos="528" key="69" len="24" vol="78"/>
          <note pan="0" pos="552" key="71" len="24" vol="78"/>
          <note pan="0" pos="576" key="73" len="72" vol="78"/>
          <note pan="0" pos="648" key="71" len="72" vol="78"/>
          <note pan="0" pos="720" key="69" len="48" vol="78"/>
          <note pan="0" pos="768" key="68" len="24" vol="78"/>
          <note pan="0" pos="792" key="69" len="24" vol="78"/>
          <note pan="0" pos="816" key="68" len="24" vol="78"/>
          <note pan="0" pos="840" key="64" len="48" vol="78"/>
          <note pan="0" pos="888" key="64" len="24" vol="78"/>
          <note pan="0" pos="912" key="66" len="24" vol="78"/>
          <note pan="0" pos="936" key="68" len="24" vol="78"/>
          <note pan="0" pos="960" key="66" len="96" vol="78"/>
        </pattern>
        <pattern type="1" pos="29952" muted="0" name="dt" steps="16">
          <note pan="0" pos="0" key="73" len="12" vol="100"/>
          <note pan="0" pos="12" key="71" len="12" vol="100"/>
          <note pan="0" pos="24" key="68" len="12" vol="100"/>
          <note pan="0" pos="36" key="66" len="12" vol="100"/>
          <note pan="0" pos="48" key="71" len="12" vol="100"/>
          <note pan="0" pos="60" key="68" len="12" vol="100"/>
          <note pan="0" pos="72" key="66" len="12" vol="100"/>
          <note pan="0" pos="84" key="64" len="12" vol="100"/>
          <note pan="0" pos="96" key="68" len="12" vol="100"/>
          <note pan="0" pos="108" key="66" len="12" vol="100"/>
          <note pan="0" pos="120" key="64" len="12" vol="100"/>
          <note pan="0" pos="132" key="61" len="12" vol="100"/>
          <note pan="0" pos="144" key="64" len="12" vol="100"/>
          <note pan="0" pos="156" key="66" len="12" vol="100"/>
          <note pan="0" pos="168" key="68" len="12" vol="100"/>
          <note pan="0" pos="180" key="71" len="12" vol="100"/>
          <note pan="0" pos="192" key="68" len="12" vol="100"/>
          <note pan="0" pos="204" key="66" len="12" vol="100"/>
          <note pan="0" pos="216" key="64" len="12" vol="100"/>
          <note pan="0" pos="228" key="61" len="12" vol="100"/>
          <note pan="0" pos="240" key="64" len="12" vol="100"/>
          <note pan="0" pos="252" key="61" len="12" vol="100"/>
          <note pan="0" pos="264" key="59" len="12" vol="100"/>
          <note pan="0" pos="276" key="61" len="12" vol="100"/>
          <note pan="0" pos="288" key="59" len="12" vol="100"/>
          <note pan="0" pos="300" key="56" len="12" vol="100"/>
          <note pan="0" pos="312" key="54" len="12" vol="100"/>
          <note pan="0" pos="324" key="56" len="12" vol="100"/>
          <note pan="0" pos="336" key="49" len="48" vol="100"/>
        </pattern>
        <pattern type="1" pos="30336" muted="0" name="dt" steps="16">
          <note pan="0" pos="0" key="57" len="12" vol="48"/>
          <note pan="0" pos="12" key="57" len="12" vol="48"/>
          <note pan="0" pos="24" key="56" len="12" vol="48"/>
          <note pan="0" pos="36" key="56" len="12" vol="48"/>
          <note pan="0" pos="48" key="54" len="12" vol="48"/>
          <note pan="0" pos="60" key="54" len="12" vol="48"/>
          <note pan="0" pos="72" key="61" len="12" vol="48"/>
          <note pan="0" pos="84" key="61" len="12" vol="48"/>
          <note pan="0" pos="96" key="59" len="12" vol="48"/>
          <note pan="0" pos="108" key="59" len="12" vol="48"/>
          <note pan="0" pos="120" key="57" len="12" vol="48"/>
          <note pan="0" pos="132" key="57" len="12" vol="48"/>
          <note pan="0" pos="144" key="59" len="12" vol="48"/>
          <note pan="0" pos="156" key="59" len="12" vol="48"/>
          <note pan="0" pos="168" key="61" len="12" vol="48"/>
          <note pan="0" pos="180" key="61" len="12" vol="48"/>
          <note pan="0" pos="192" key="62" len="48" vol="48"/>
          <note pan="0" pos="240" key="61" len="12" vol="48"/>
          <note pan="0" pos="252" key="62" len="12" vol="48"/>
          <note pan="0" pos="264" key="64" len="12" vol="48"/>
          <note pan="0" pos="276" key="66" len="12" vol="48"/>
          <note pan="0" pos="288" key="68" len="12" vol="48"/>
          <note pan="0" pos="300" key="66" len="12" vol="48"/>
          <note pan="0" pos="312" key="64" len="12" vol="48"/>
          <note pan="0" pos="324" key="66" len="12" vol="48"/>
          <note pan="0" pos="336" key="69" len="12" vol="48"/>
          <note pan="0" pos="348" key="68" len="12" vol="48"/>
          <note pan="0" pos="360" key="66" len="12" vol="48"/>
          <note pan="0" pos="372" key="68" len="12" vol="48"/>
          <note pan="0" pos="384" key="68" len="24" vol="48"/>
          <note pan="0" pos="408" key="69" len="24" vol="48"/>
          <note pan="0" pos="456" key="66" len="48" vol="48"/>
          <note pan="0" pos="504" key="62" len="12" vol="48"/>
          <note pan="0" pos="516" key="62" len="12" vol="48"/>
          <note pan="0" pos="528" key="66" len="12" vol="48"/>
          <note pan="0" pos="540" key="66" len="12" vol="48"/>
          <note pan="0" pos="552" key="68" len="12" vol="48"/>
          <note pan="0" pos="564" key="68" len="12" vol="48"/>
          <note pan="0" pos="576" key="71" len="24" vol="48"/>
          <note pan="0" pos="600" key="69" len="12" vol="48"/>
          <note pan="0" pos="612" key="71" len="12" vol="48"/>
          <note pan="0" pos="624" key="73" len="24" vol="48"/>
          <note pan="0" pos="648" key="71" len="12" vol="48"/>
          <note pan="0" pos="660" key="73" len="12" vol="48"/>
          <note pan="0" pos="672" key="76" len="12" vol="48"/>
          <note pan="0" pos="684" key="74" len="12" vol="48"/>
          <note pan="0" pos="696" key="73" len="12" vol="48"/>
          <note pan="0" pos="708" key="71" len="12" vol="48"/>
          <note pan="0" pos="720" key="69" len="12" vol="48"/>
          <note pan="0" pos="732" key="68" len="12" vol="48"/>
          <note pan="0" pos="744" key="66" len="12" vol="48"/>
          <note pan="0" pos="756" key="64" len="12" vol="48"/>
        </pattern>
        <pattern type="1" pos="31872" muted="0" name="dt" steps="16">
          <note pan="0" pos="0" key="68" len="192" vol="76"/>
          <note pan="0" pos="192" key="69" len="192" vol="76"/>
          <note pan="0" pos="384" key="71" len="192" vol="76"/>
          <note pan="0" pos="576" key="66" len="192" vol="76"/>
          <note pan="0" pos="768" key="68" len="192" vol="76"/>
          <note pan="0" pos="960" key="69" len="192" vol="76"/>
          <note pan="0" pos="1152" key="71" len="192" vol="76"/>
          <note pan="0" pos="1344" key="75" len="192" vol="76"/>
          <note pan="0" pos="1536" key="73" len="192" vol="76"/>
          <note pan="0" pos="1920" key="73" len="192" vol="76"/>
          <note pan="0" pos="2112" key="76" len="192" vol="76"/>
          <note pan="0" pos="2304" key="74" len="192" vol="76"/>
          <note pan="0" pos="2688" key="73" len="192" vol="76"/>
          <note pan="0" pos="2880" key="78" len="192" vol="76"/>
        </pattern>
        <pattern type="1" pos="1920" muted="0" name="dt" steps="16">
          <note pan="0" pos="0" key="61" len="384" vol="53"/>
        </pattern>
        <pattern type="1" pos="2304" muted="0" name="dt" steps="16">
          <note pan="0" pos="0" key="61" len="384" vol="53"/>
        </pattern>
        <pattern type="1" pos="2688" muted="0" name="dt" steps="16">
          <note pan="0" pos="0" key="61" len="384" vol="53"/>
        </pattern>
        <pattern type="1" pos="3072" muted="0" name="dt" steps="16">
          <note pan="0" pos="0" key="61" len="384" vol="53"/>
        </pattern>
        <pattern type="1" pos="38016" muted="0" name="dt" steps="16">
          <note pan="0" pos="0" key="69" len="12" vol="100"/>
          <note pan="0" pos="0" key="1" len="12" vol="100"/>
          <note pan="0" pos="12" key="74" len="12" vol="100"/>
          <note pan="0" pos="24" key="78" len="12" vol="100"/>
          <note pan="0" pos="36" key="81" len="12" vol="100"/>
          <note pan="0" pos="36" key="0" len="12" vol="100"/>
          <note pan="0" pos="48" key="86" len="12" vol="100"/>
          <note pan="0" pos="60" key="81" len="12" vol="100"/>
          <note pan="0" pos="72" key="78" len="12" vol="100"/>
          <note pan="0" pos="72" key="1" len="12" vol="100"/>
          <note pan="0" pos="84" key="74" len="12" vol="100"/>
          <note pan="0" pos="96" key="81" len="12" vol="100"/>
          <note pan="0" pos="96" key="0" len="12" vol="100"/>
          <note pan="0" pos="108" key="80" len="12" vol="100"/>
          <note pan="0" pos="120" key="78" len="12" vol="100"/>
          <note pan="0" pos="120" key="1" len="12" vol="100"/>
          <note pan="0" pos="132" key="74" len="12" vol="100"/>
          <note pan="0" pos="144" key="83" len="12" vol="100"/>
          <note pan="0" pos="144" key="0" len="12" vol="100"/>
          <note pan="0" pos="156" key="81" len="12" vol="100"/>
          <note pan="0" pos="168" key="80" len="12" vol="100"/>
          <note pan="0" pos="168" key="1" len="12" vol="100"/>
          <note pan="0" pos="180" key="78" len="12" vol="100"/>
          <note pan="0" pos="192" key="83" len="12" vol="121"/>
          <note pan="0" pos="204" key="85" len="12" vol="121"/>
          <note pan="0" pos="216" key="83" len="12" vol="121"/>
          <note pan="0" pos="228" key="81" len="12" vol="121"/>
          <note pan="0" pos="240" key="80" len="12" vol="121"/>
          <note pan="0" pos="252" key="81" len="12" vol="121"/>
          <note pan="0" pos="264" key="80" len="12" vol="121"/>
          <note pan="0" pos="276" key="78" len="12" vol="121"/>
          <note pan="0" pos="288" key="83" len="12" vol="121"/>
          <note pan="0" pos="288" key="0" len="24" vol="121"/>
          <note pan="0" pos="300" key="85" len="12" vol="121"/>
          <note pan="0" pos="312" key="88" len="48" vol="121"/>
          <note pan="0" pos="360" key="85" len="24" vol="121"/>
          <note pan="0" pos="384" key="81" len="24" vol="100"/>
          <note pan="0" pos="408" key="80" len="24" vol="100"/>
          <note pan="0" pos="432" key="76" len="24" vol="100"/>
          <note pan="0" pos="456" key="81" len="24" vol="100"/>
          <note pan="0" pos="480" key="80" len="24" vol="100"/>
          <note pan="0" pos="504" key="78" len="24" vol="100"/>
          <note pan="0" pos="528" key="76" len="24" vol="100"/>
          <note pan="0" pos="552" key="80" len="24" vol="100"/>
          <note pan="0" pos="576" key="78" len="12" vol="100"/>
          <note pan="0" pos="576" key="0" len="12" vol="100"/>
          <note pan="0" pos="588" key="80" len="12" vol="100"/>
          <note pan="0" pos="588" key="2" len="12" vol="100"/>
          <note pan="0" pos="600" key="78" len="48" vol="100"/>
          <note pan="0" pos="636" key="1" len="12" vol="100"/>
          <note pan="0" pos="648" key="75" len="12" vol="100"/>
          <note pan="0" pos="660" key="76" len="12" vol="100"/>
          <note pan="0" pos="672" key="78" len="12" vol="100"/>
          <note pan="0" pos="672" key="0" len="12" vol="100"/>
          <note pan="0" pos="684" key="76" len="12" vol="100"/>
          <note pan="0" pos="696" key="75" len="12" vol="100"/>
          <note pan="0" pos="708" key="76" len="12" vol="100"/>
          <note pan="0" pos="708" key="1" len="12" vol="100"/>
          <note pan="0" pos="720" key="75" len="12" vol="100"/>
          <note pan="0" pos="732" key="73" len="12" vol="100"/>
          <note pan="0" pos="744" key="71" len="12" vol="100"/>
          <note pan="0" pos="756" key="69" len="12" vol="100"/>
        </pattern>
        <pattern type="1" pos="3456" muted="0" name="dt" steps="16">
          <note pan="0" pos="0" key="73" len="144" vol="78"/>
          <note pan="0" pos="0" key="0" len="144" vol="78"/>
          <note pan="0" pos="144" key="76" len="48" vol="78"/>
          <note pan="0" pos="192" key="75" len="144" vol="78"/>
          <note pan="0" pos="336" key="80" len="48" vol="78"/>
          <note pan="0" pos="384" key="80" len="144" vol="78"/>
          <note pan="0" pos="528" key="78" len="24" vol="78"/>
          <note pan="0" pos="552" key="76" len="24" vol="78"/>
          <note pan="0" pos="576" key="75" len="48" vol="78"/>
          <note pan="0" pos="624" key="76" len="48" vol="78"/>
          <note pan="0" pos="672" key="71" len="48" vol="78"/>
          <note pan="0" pos="720" key="68" len="48" vol="78"/>
          <note pan="0" pos="768" key="69" len="144" vol="78"/>
          <note pan="0" pos="912" key="76" len="48" vol="78"/>
          <note pan="0" pos="960" key="75" len="144" vol="78"/>
          <note pan="0" pos="1104" key="78" len="48" vol="78"/>
          <note pan="0" pos="1152" key="76" len="96" vol="197"/>
          <note pan="0" pos="1248" key="80" len="48" vol="197"/>
          <note pan="0" pos="1296" key="76" len="48" vol="197"/>
          <note pan="0" pos="1344" key="78" len="48" vol="197"/>
          <note pan="0" pos="1392" key="83" len="48" vol="197"/>
          <note pan="0" pos="1440" key="80" len="48" vol="197"/>
          <note pan="0" pos="1488" key="87" len="48" vol="197"/>
        </pattern>
        <pattern type="1" pos="43200" muted="0" name="dt" steps="16">
          <note pan="0" pos="0" key="0" len="72" vol="78"/>
          <note pan="0" pos="960" key="75" len="144" vol="78"/>
          <note pan="0" pos="1104" key="78" len="48" vol="78"/>
          <note pan="0" pos="1152" key="77" len="144" vol="78"/>
          <note pan="0" pos="1296" key="82" len="48" vol="78"/>
          <note pan="0" pos="1344" key="82" len="144" vol="78"/>
          <note pan="0" pos="1488" key="80" len="24" vol="78"/>
          <note pan="0" pos="1512" key="78" len="24" vol="78"/>
          <note pan="0" pos="1536" key="77" len="48" vol="78"/>
          <note pan="0" pos="1584" key="78" len="48" vol="78"/>
          <note pan="0" pos="1632" key="73" len="48" vol="78"/>
          <note pan="0" pos="1680" key="70" len="48" vol="78"/>
          <note pan="0" pos="1728" key="71" len="96" vol="78"/>
          <note pan="0" pos="1824" key="75" len="48" vol="78"/>
          <note pan="0" pos="1872" key="78" len="48" vol="78"/>
          <note pan="0" pos="1920" key="78" len="96" vol="78"/>
          <note pan="0" pos="2016" key="77" len="48" vol="78"/>
          <note pan="0" pos="2064" key="78" len="48" vol="78"/>
          <note pan="0" pos="2112" key="85" len="72" vol="78"/>
          <note pan="0" pos="2184" key="83" len="72" vol="78"/>
          <note pan="0" pos="2256" key="82" len="48" vol="78"/>
          <note pan="0" pos="2304" key="80" len="192" vol="78"/>
          <note pan="0" pos="2496" key="78" len="72" vol="78"/>
          <note pan="0" pos="2568" key="77" len="72" vol="78"/>
          <note pan="0" pos="2640" key="78" len="48" vol="78"/>
          <note pan="0" pos="2688" key="82" len="144" vol="78"/>
          <note pan="0" pos="2832" key="77" len="48" vol="78"/>
          <note pan="0" pos="2880" key="75" len="240" vol="78"/>
          <note pan="0" pos="3120" key="78" len="48" vol="78"/>
          <note pan="0" pos="3168" key="80" len="48" vol="78"/>
          <note pan="0" pos="3216" key="82" len="48" vol="78"/>
          <note pan="0" pos="3264" key="83" len="72" vol="78"/>
          <note pan="0" pos="3336" key="82" len="72" vol="78"/>
          <note pan="0" pos="3408" key="80" len="48" vol="78"/>
          <note pan="0" pos="3456" key="78" len="48" vol="78"/>
          <note pan="0" pos="3504" key="75" len="48" vol="78"/>
          <note pan="0" pos="3552" key="78" len="48" vol="78"/>
          <note pan="0" pos="3600" key="82" len="48" vol="78"/>
          <note pan="0" pos="3648" key="80" len="192" vol="78"/>
        </pattern>
        <pattern type="1" pos="39552" muted="0" name="dt" steps="16">
          <note pan="0" pos="0" key="73" len="12" vol="78"/>
          <note pan="0" pos="12" key="68" len="12" vol="78"/>
          <note pan="0" pos="24" key="64" len="12" vol="78"/>
          <note pan="0" pos="36" key="61" len="12" vol="78"/>
          <note pan="0" pos="48" key="56" len="12" vol="78"/>
          <note pan="0" pos="60" key="52" len="12" vol="78"/>
          <note pan="0" pos="72" key="56" len="12" vol="78"/>
          <note pan="0" pos="84" key="61" len="12" vol="78"/>
          <note pan="0" pos="96" key="64" len="12" vol="78"/>
          <note pan="0" pos="108" key="68" len="12" vol="78"/>
          <note pan="0" pos="120" key="76" len="12" vol="78"/>
          <note pan="0" pos="132" key="73" len="12" vol="78"/>
          <note pan="0" pos="144" key="68" len="12" vol="78"/>
          <note pan="0" pos="156" key="64" len="12" vol="78"/>
          <note pan="0" pos="168" key="68" len="12" vol="78"/>
          <note pan="0" pos="180" key="73" len="12" vol="78"/>
          <note pan="0" pos="192" key="75" len="12" vol="78"/>
          <note pan="0" pos="204" key="71" len="12" vol="78"/>
          <note pan="0" pos="216" key="68" len="12" vol="78"/>
          <note pan="0" pos="228" key="63" len="12" vol="78"/>
          <note pan="0" pos="240" key="59" len="12" vol="78"/>
          <note pan="0" pos="252" key="56" len="12" vol="78"/>
          <note pan="0" pos="264" key="59" len="12" vol="78"/>
          <note pan="0" pos="276" key="63" len="12" vol="78"/>
          <note pan="0" pos="288" key="68" len="12" vol="78"/>
          <note pan="0" pos="300" key="71" len="12" vol="78"/>
          <note pan="0" pos="312" key="80" len="12" vol="78"/>
          <note pan="0" pos="324" key="75" len="12" vol="78"/>
          <note pan="0" pos="336" key="71" len="12" vol="78"/>
          <note pan="0" pos="348" key="68" len="12" vol="78"/>
          <note pan="0" pos="360" key="71" len="12" vol="78"/>
          <note pan="0" pos="372" key="75" len="12" vol="78"/>
          <note pan="0" pos="384" key="80" len="24" vol="78"/>
          <note pan="0" pos="408" key="76" len="24" vol="78"/>
          <note pan="0" pos="432" key="69" len="24" vol="78"/>
          <note pan="0" pos="456" key="76" len="24" vol="78"/>
          <note pan="0" pos="480" key="75" len="24" vol="78"/>
          <note pan="0" pos="504" key="69" len="24" vol="78"/>
          <note pan="0" pos="528" key="78" len="24" vol="78"/>
          <note pan="0" pos="552" key="76" len="24" vol="78"/>
          <note pan="0" pos="576" key="75" len="48" vol="78"/>
          <note pan="0" pos="624" key="76" len="48" vol="78"/>
          <note pan="0" pos="672" key="76" len="12" vol="78"/>
          <note pan="0" pos="684" key="78" len="12" vol="78"/>
          <note pan="0" pos="696" key="76" len="12" vol="78"/>
          <note pan="0" pos="708" key="75" len="12" vol="78"/>
          <note pan="0" pos="720" key="76" len="12" vol="78"/>
          <note pan="0" pos="732" key="75" len="12" vol="78"/>
          <note pan="0" pos="744" key="73" len="12" vol="78"/>
          <note pan="0" pos="756" key="71" len="12" vol="78"/>
        </pattern>
        <pattern type="1" pos="40320" muted="0" name="" steps="16">
          <note pan="0" pos="0" key="69" len="12" vol="78"/>
          <note pan="0" pos="0" key="1" len="48" vol="200"/>
          <note pan="0" pos="12" key="68" len="12" vol="78"/>
          <note pan="0" pos="24" key="66" len="12" vol="78"/>
          <note pan="0" pos="36" key="68" len="12" vol="78"/>
          <note pan="0" pos="48" key="69" len="12" vol="78"/>
          <note pan="0" pos="60" key="68" len="12" vol="78"/>
          <note pan="0" pos="72" key="66" len="12" vol="78"/>
          <note pan="0" pos="84" key="68" len="12" vol="78"/>
          <note pan="0" pos="96" key="73" len="12" vol="78"/>
          <note pan="0" pos="108" key="71" len="12" vol="78"/>
          <note pan="0" pos="120" key="69" len="12" vol="78"/>
          <note pan="0" pos="132" key="71" len="12" vol="78"/>
          <note pan="0" pos="144" key="73" len="12" vol="78"/>
          <note pan="0" pos="156" key="75" len="12" vol="78"/>
          <note pan="0" pos="168" key="76" len="12" vol="78"/>
          <note pan="0" pos="180" key="75" len="12" vol="78"/>
          <note pan="0" pos="192" key="76" len="12" vol="78"/>
          <note pan="0" pos="204" key="75" len="12" vol="78"/>
          <note pan="0" pos="216" key="73" len="12" vol="78"/>
          <note pan="0" pos="228" key="75" len="12" vol="78"/>
          <note pan="0" pos="240" key="76" len="12" vol="78"/>
          <note pan="0" pos="240" key="0" len="48" vol="200"/>
          <note pan="0" pos="252" key="75" len="12" vol="78"/>
          <note pan="0" pos="264" key="73" len="12" vol="78"/>
          <note pan="0" pos="276" key="75" len="12" vol="78"/>
          <note pan="0" pos="288" key="76" len="12" vol="78"/>
          <note pan="0" pos="300" key="78" len="12" vol="78"/>
          <note pan="0" pos="312" key="80" len="12" vol="78"/>
          <note pan="0" pos="324" key="81" len="12" vol="78"/>
          <note pan="0" pos="336" key="83" len="12" vol="78"/>
          <note pan="0" pos="348" key="76" len="12" vol="78"/>
          <note pan="0" pos="348" key="1" len="12" vol="200"/>
          <note pan="0" pos="360" key="75" len="12" vol="78"/>
          <note pan="0" pos="372" key="76" len="12" vol="78"/>
        </pattern>
        <pattern type="1" pos="40704" muted="0" name="" steps="16">
          <note pan="0" pos="0" key="83" len="48" vol="78"/>
          <note pan="0" pos="0" key="0" len="48" vol="100"/>
          <note pan="0" pos="48" key="81" len="12" vol="78"/>
          <note pan="0" pos="60" key="83" len="12" vol="78"/>
          <note pan="0" pos="72" key="81" len="48" vol="78"/>
          <note pan="0" pos="120" key="80" len="12" vol="78"/>
          <note pan="0" pos="132" key="81" len="12" vol="78"/>
          <note pan="0" pos="144" key="80" len="12" vol="78"/>
          <note pan="0" pos="144" key="0" len="12" vol="78"/>
          <note pan="0" pos="156" key="78" len="12" vol="78"/>
          <note pan="0" pos="156" key="1" len="12" vol="78"/>
          <note pan="0" pos="168" key="76" len="12" vol="78"/>
          <note pan="0" pos="180" key="80" len="12" vol="78"/>
          <note pan="0" pos="192" key="78" len="48" vol="78"/>
          <note pan="0" pos="192" key="0" len="12" vol="78"/>
          <note pan="0" pos="240" key="76" len="12" vol="78"/>
          <note pan="0" pos="240" key="1" len="12" vol="78"/>
          <note pan="0" pos="252" key="75" len="12" vol="78"/>
          <note pan="0" pos="264" key="76" len="12" vol="78"/>
          <note pan="0" pos="276" key="78" len="12" vol="78"/>
          <note pan="0" pos="288" key="80" len="12" vol="78"/>
          <note pan="0" pos="288" key="0" len="12" vol="78"/>
          <note pan="0" pos="300" key="81" len="12" vol="78"/>
          <note pan="0" pos="312" key="80" len="12" vol="78"/>
          <note pan="0" pos="324" key="78" len="12" vol="78"/>
          <note pan="0" pos="336" key="80" len="12" vol="78"/>
          <note pan="0" pos="348" key="78" len="12" vol="78"/>
          <note pan="0" pos="360" key="76" len="12" vol="78"/>
          <note pan="0" pos="360" key="1" len="12" vol="78"/>
          <note pan="0" pos="372" key="75" len="12" vol="78"/>
        </pattern>
        <pattern type="1" pos="41088" muted="0" name="" steps="16">
          <note pan="0" pos="0" key="80" len="12" vol="78"/>
          <note pan="0" pos="12" key="76" len="12" vol="78"/>
          <note pan="0" pos="24" key="75" len="12" vol="78"/>
          <note pan="0" pos="36" key="76" len="12" vol="78"/>
          <note pan="0" pos="48" key="73" len="12" vol="78"/>
          <note pan="0" pos="60" key="76" len="12" vol="78"/>
          <note pan="0" pos="72" key="75" len="12" vol="78"/>
          <note pan="0" pos="84" key="76" len="12" vol="78"/>
          <note pan="0" pos="96" key="80" len="12" vol="78"/>
          <note pan="0" pos="108" key="76" len="12" vol="78"/>
          <note pan="0" pos="120" key="75" len="12" vol="78"/>
          <note pan="0" pos="132" key="76" len="12" vol="78"/>
          <note pan="0" pos="144" key="73" len="12" vol="78"/>
          <note pan="0" pos="156" key="76" len="12" vol="78"/>
          <note pan="0" pos="168" key="75" len="12" vol="78"/>
          <note pan="0" pos="180" key="76" len="12" vol="78"/>
          <note pan="0" pos="192" key="80" len="12" vol="78"/>
          <note pan="0" pos="204" key="75" len="12" vol="78"/>
          <note pan="0" pos="216" key="73" len="12" vol="78"/>
          <note pan="0" pos="228" key="75" len="12" vol="78"/>
          <note pan="0" pos="240" key="71" len="12" vol="78"/>
          <note pan="0" pos="252" key="75" len="12" vol="78"/>
          <note pan="0" pos="264" key="73" len="12" vol="78"/>
          <note pan="0" pos="276" key="75" len="12" vol="78"/>
          <note pan="0" pos="288" key="80" len="12" vol="78"/>
          <note pan="0" pos="300" key="75" len="12" vol="78"/>
          <note pan="0" pos="312" key="73" len="12" vol="78"/>
          <note pan="0" pos="324" key="75" len="12" vol="78"/>
          <note pan="0" pos="336" key="71" len="12" vol="78"/>
          <note pan="0" pos="348" key="75" len="12" vol="78"/>
          <note pan="0" pos="360" key="73" len="12" vol="78"/>
          <note pan="0" pos="372" key="75" len="12" vol="78"/>
        </pattern>
        <pattern type="1" pos="41472" muted="0" name="" steps="16">
          <note pan="0" pos="0" key="82" len="12" vol="78"/>
          <note pan="0" pos="0" key="0" len="12" vol="78"/>
          <note pan="0" pos="12" key="78" len="12" vol="78"/>
          <note pan="0" pos="24" key="73" len="12" vol="78"/>
          <note pan="0" pos="24" key="1" len="12" vol="78"/>
          <note pan="0" pos="36" key="78" len="12" vol="78"/>
          <note pan="0" pos="48" key="70" len="12" vol="78"/>
          <note pan="0" pos="60" key="78" len="12" vol="78"/>
          <note pan="0" pos="72" key="73" len="12" vol="78"/>
          <note pan="0" pos="84" key="78" len="12" vol="78"/>
          <note pan="0" pos="96" key="82" len="12" vol="78"/>
          <note pan="0" pos="108" key="78" len="12" vol="78"/>
          <note pan="0" pos="120" key="73" len="12" vol="78"/>
          <note pan="0" pos="132" key="78" len="12" vol="78"/>
          <note pan="0" pos="144" key="70" len="12" vol="78"/>
          <note pan="0" pos="156" key="78" len="12" vol="78"/>
          <note pan="0" pos="168" key="73" len="12" vol="78"/>
          <note pan="0" pos="180" key="78" len="12" vol="78"/>
        </pattern>
        <pattern type="1" pos="41664" muted="0" name="" steps="16">
          <note pan="0" pos="0" key="82" len="12" vol="78"/>
          <note pan="0" pos="0" key="0" len="12" vol="78"/>
          <note pan="0" pos="12" key="78" len="12" vol="78"/>
          <note pan="0" pos="24" key="73" len="12" vol="78"/>
          <note pan="0" pos="24" key="1" len="12" vol="78"/>
          <note pan="0" pos="36" key="78" len="12" vol="78"/>
          <note pan="0" pos="48" key="70" len="12" vol="78"/>
          <note pan="0" pos="60" key="78" len="12" vol="78"/>
          <note pan="0" pos="72" key="73" len="12" vol="78"/>
          <note pan="0" pos="84" key="78" len="12" vol="78"/>
          <note pan="0" pos="96" key="82" len="12" vol="78"/>
          <note pan="0" pos="108" key="78" len="12" vol="78"/>
          <note pan="0" pos="120" key="73" len="12" vol="78"/>
          <note pan="0" pos="132" key="78" len="12" vol="78"/>
          <note pan="0" pos="144" key="70" len="12" vol="78"/>
          <note pan="0" pos="156" key="78" len="12" vol="78"/>
          <note pan="0" pos="168" key="73" len="12" vol="78"/>
          <note pan="0" pos="180" key="78" len="12" vol="78"/>
        </pattern>
        <pattern type="1" pos="47040" muted="0" name="dt" steps="16">
          <note pan="0" pos="0" key="73" len="12" vol="106"/>
          <note pan="0" pos="12" key="71" len="12" vol="106"/>
          <note pan="0" pos="24" key="70" len="12" vol="106"/>
          <note pan="0" pos="36" key="68" len="12" vol="106"/>
          <note pan="0" pos="48" key="71" len="12" vol="106"/>
          <note pan="0" pos="60" key="70" len="12" vol="106"/>
          <note pan="0" pos="72" key="68" len="12" vol="106"/>
          <note pan="0" pos="84" key="66" len="12" vol="106"/>
          <note pan="0" pos="96" key="70" len="12" vol="106"/>
          <note pan="0" pos="108" key="68" len="12" vol="106"/>
          <note pan="0" pos="120" key="66" len="12" vol="106"/>
          <note pan="0" pos="132" key="65" len="12" vol="106"/>
          <note pan="0" pos="144" key="68" len="12" vol="106"/>
          <note pan="0" pos="156" key="66" len="12" vol="106"/>
          <note pan="0" pos="168" key="65" len="12" vol="106"/>
          <note pan="0" pos="180" key="66" len="12" vol="106"/>
        </pattern>
        <pattern type="1" pos="41856" muted="0" name="" steps="16">
          <note pan="0" pos="0" key="86" len="24" vol="78"/>
          <note pan="0" pos="0" key="0" len="48" vol="78"/>
          <note pan="0" pos="24" key="81" len="24" vol="78"/>
          <note pan="0" pos="48" key="76" len="24" vol="78"/>
          <note pan="0" pos="72" key="83" len="24" vol="78"/>
          <note pan="0" pos="96" key="85" len="24" vol="78"/>
          <note pan="0" pos="120" key="86" len="24" vol="78"/>
          <note pan="0" pos="144" key="85" len="24" vol="78"/>
          <note pan="0" pos="168" key="83" len="24" vol="78"/>
          <note pan="0" pos="192" key="85" len="12" vol="78"/>
          <note pan="0" pos="192" key="0" len="24" vol="78"/>
          <note pan="0" pos="204" key="81" len="12" vol="78"/>
          <note pan="0" pos="216" key="76" len="12" vol="78"/>
          <note pan="0" pos="216" key="1" len="24" vol="78"/>
          <note pan="0" pos="228" key="73" len="12" vol="78"/>
          <note pan="0" pos="240" key="69" len="12" vol="78"/>
          <note pan="0" pos="252" key="73" len="12" vol="78"/>
          <note pan="0" pos="264" key="81" len="12" vol="78"/>
          <note pan="0" pos="264" key="0" len="24" vol="78"/>
          <note pan="0" pos="276" key="76" len="12" vol="78"/>
          <note pan="0" pos="288" key="73" len="12" vol="78"/>
          <note pan="0" pos="288" key="1" len="24" vol="78"/>
          <note pan="0" pos="300" key="69" len="12" vol="78"/>
          <note pan="0" pos="312" key="73" len="12" vol="78"/>
          <note pan="0" pos="324" key="76" len="12" vol="78"/>
          <note pan="0" pos="336" key="85" len="12" vol="78"/>
          <note pan="0" pos="336" key="0" len="24" vol="78"/>
          <note pan="0" pos="348" key="83" len="12" vol="78"/>
          <note pan="0" pos="360" key="81" len="12" vol="78"/>
          <note pan="0" pos="360" key="1" len="24" vol="78"/>
          <note pan="0" pos="372" key="83" len="12" vol="78"/>
          <note pan="0" pos="384" key="87" len="384" vol="78"/>
          <note pan="0" pos="384" key="0" len="24" vol="78"/>
        </pattern>
      </track>
      <track type="0" muted="0" name="bells" solo="0">
        <instrumenttrack pan="0" pitch="0" basenote="57" usemasterpitch="1" vol="63.2" fxch="0" pitchrange="1">
          <instrument name="sf2player">
            <sf2player chorusLevel="2" reverbRoomSize="0.2" reverbLevel="0.9" chorusDepth="8" reverbDamping="0" patch="14" chorusOn="0" chorusSpeed="0.3" gain="1" chorusNum="3" bank="0" reverbWidth="0.5" reverbOn="0" src="/home/huggypie/samples/soundfonts/Orchestra Soundfont 2 COMBO.sf2"/>
          </instrument>
          <eldata fres="0.5" fcut="14000" fwet="0" ftype="0">
            <elvol lspd_numerator="4" userwavefile="" lshp="0" x100="0" amt="0" lspd_syncmode="0" ctlenvamt="0" dec="0.5" hold="0.5" lspd_denominator="4" sustain="0.5" lamt="0" lspd="0.1" pdel="0" att="0" lpdel="0" latt="0" rel="0.1"/>
            <elcut lspd_numerator="4" userwavefile="" lshp="0" x100="0" amt="0" lspd_syncmode="0" ctlenvamt="0" dec="0.5" hold="0.5" lspd_denominator="4" sustain="0.5" lamt="0" lspd="0.1" pdel="0" att="0" lpdel="0" latt="0" rel="0.1"/>
            <elres lspd_numerator="4" userwavefile="" lshp="0" x100="0" amt="0" lspd_syncmode="0" ctlenvamt="0" dec="0.5" hold="0.5" lspd_denominator="4" sustain="0.5" lamt="0" lspd="0.1" pdel="0" att="0" lpdel="0" latt="0" rel="0.1"/>
          </eldata>
          <chordcreator chordrange="1" chord="0" chord-enabled="0"/>
          <arpeggiator arpskip="0" arpmiss="0" arp-enabled="0" arpgate="100" arpdir="0" arpcycle="0" arprange="1" arptime_numerator="4" arptime_denominator="4" arptime_syncmode="0" arptime="200" arp="0" arpmode="0"/>
          <midiport outputcontroller="0" inputchannel="0" outputchannel="1" fixedoutputvelocity="-1" readable="0" inputcontroller="0" basevelocity="63" fixedoutputnote="-1" fixedinputvelocity="-1" outputprogram="1" writable="0"/>
          <fxchain enabled="0" numofeffects="0"/>
        </instrumenttrack>
        <pattern type="1" pos="384" muted="0" name="" steps="16">
          <note pan="0" pos="0" key="49" len="384" vol="197"/>
        </pattern>
        <pattern type="1" pos="768" muted="0" name="" steps="16">
          <note pan="0" pos="0" key="49" len="384" vol="197"/>
        </pattern>
        <pattern type="1" pos="1152" muted="0" name="" steps="16">
          <note pan="0" pos="0" key="49" len="384" vol="197"/>
        </pattern>
        <pattern type="1" pos="1536" muted="0" name="" steps="16">
          <note pan="0" pos="0" key="49" len="384" vol="197"/>
        </pattern>
        <pattern type="1" pos="1920" muted="0" name="" steps="16">
          <note pan="0" pos="0" key="49" len="384" vol="197"/>
        </pattern>
        <pattern type="1" pos="2304" muted="0" name="" steps="16">
          <note pan="0" pos="0" key="49" len="384" vol="197"/>
        </pattern>
        <pattern type="1" pos="2688" muted="0" name="" steps="16">
          <note pan="0" pos="0" key="49" len="384" vol="197"/>
        </pattern>
        <pattern type="1" pos="3456" muted="0" name="bells" steps="16">
          <note pan="0" pos="0" key="61" len="144" vol="197"/>
          <note pan="0" pos="144" key="64" len="48" vol="197"/>
          <note pan="0" pos="192" key="63" len="144" vol="197"/>
          <note pan="0" pos="336" key="68" len="48" vol="197"/>
          <note pan="0" pos="384" key="68" len="144" vol="197"/>
          <note pan="0" pos="528" key="66" len="24" vol="197"/>
          <note pan="0" pos="552" key="64" len="24" vol="197"/>
          <note pan="0" pos="576" key="63" len="48" vol="197"/>
          <note pan="0" pos="624" key="64" len="48" vol="197"/>
          <note pan="0" pos="672" key="59" len="48" vol="197"/>
          <note pan="0" pos="720" key="56" len="48" vol="197"/>
          <note pan="0" pos="768" key="57" len="144" vol="197"/>
          <note pan="0" pos="912" key="64" len="48" vol="197"/>
          <note pan="0" pos="960" key="63" len="144" vol="197"/>
          <note pan="0" pos="1104" key="66" len="48" vol="197"/>
          <note pan="0" pos="1152" key="64" len="96" vol="197"/>
          <note pan="0" pos="1248" key="68" len="48" vol="197"/>
          <note pan="0" pos="1296" key="64" len="48" vol="197"/>
          <note pan="0" pos="1344" key="66" len="48" vol="197"/>
          <note pan="0" pos="1392" key="71" len="48" vol="197"/>
          <note pan="0" pos="1440" key="68" len="48" vol="197"/>
          <note pan="0" pos="1488" key="75" len="48" vol="197"/>
        </pattern>
        <pattern type="1" pos="3072" muted="0" name="" steps="16">
          <note pan="0" pos="0" key="49" len="384" vol="197"/>
        </pattern>
        <pattern type="1" pos="24960" muted="0" name="" steps="16">
          <note pan="0" pos="0" key="61" len="192" vol="197"/>
          <note pan="0" pos="192" key="59" len="192" vol="197"/>
          <note pan="0" pos="384" key="56" len="288" vol="197"/>
          <note pan="0" pos="672" key="56" len="96" vol="197"/>
          <note pan="0" pos="768" key="68" len="192" vol="197"/>
          <note pan="0" pos="960" key="66" len="192" vol="197"/>
          <note pan="0" pos="1152" key="61" len="384" vol="197"/>
          <note pan="0" pos="1536" key="61" len="192" vol="197"/>
          <note pan="0" pos="1728" key="63" len="192" vol="197"/>
          <note pan="0" pos="1920" key="64" len="192" vol="197"/>
          <note pan="0" pos="2112" key="68" len="96" vol="197"/>
          <note pan="0" pos="2208" key="66" len="96" vol="197"/>
          <note pan="0" pos="2304" key="66" len="192" vol="197"/>
          <note pan="0" pos="2496" key="61" len="144" vol="197"/>
          <note pan="0" pos="2640" key="61" len="24" vol="197"/>
          <note pan="0" pos="2664" key="63" len="24" vol="197"/>
          <note pan="0" pos="2688" key="64" len="192" vol="197"/>
          <note pan="0" pos="2880" key="64" len="96" vol="197"/>
          <note pan="0" pos="2976" key="68" len="96" vol="197"/>
          <note pan="0" pos="3072" key="73" len="384" vol="197"/>
          <note pan="0" pos="3456" key="73" len="384" vol="197"/>
        </pattern>
        <pattern type="1" pos="8064" muted="0" name="bells" steps="16">
          <note pan="0" pos="0" key="61" len="192" vol="193"/>
          <note pan="0" pos="192" key="56" len="192" vol="193"/>
          <note pan="0" pos="384" key="57" len="192" vol="193"/>
          <note pan="0" pos="576" key="59" len="192" vol="193"/>
          <note pan="0" pos="768" key="54" len="192" vol="193"/>
          <note pan="0" pos="960" key="56" len="192" vol="193"/>
          <note pan="0" pos="1152" key="57" len="192" vol="193"/>
          <note pan="0" pos="1344" key="59" len="96" vol="193"/>
          <note pan="0" pos="1440" key="60" len="96" vol="193"/>
          <note pan="0" pos="1536" key="61" len="192" vol="193"/>
          <note pan="0" pos="1728" key="59" len="192" vol="193"/>
          <note pan="0" pos="1920" key="58" len="192" vol="193"/>
          <note pan="0" pos="2304" key="50" len="192" vol="193"/>
          <note pan="0" pos="2496" key="57" len="192" vol="193"/>
          <note pan="0" pos="2688" key="59" len="192" vol="193"/>
        </pattern>
        <pattern type="1" pos="31872" muted="0" name="" steps="16">
          <note pan="0" pos="0" key="56" len="192" vol="200"/>
          <note pan="0" pos="192" key="57" len="192" vol="200"/>
          <note pan="0" pos="384" key="59" len="192" vol="200"/>
          <note pan="0" pos="576" key="54" len="192" vol="200"/>
          <note pan="0" pos="768" key="56" len="192" vol="200"/>
          <note pan="0" pos="960" key="57" len="192" vol="200"/>
          <note pan="0" pos="1152" key="59" len="192" vol="200"/>
          <note pan="0" pos="1344" key="63" len="192" vol="200"/>
          <note pan="0" pos="1536" key="61" len="192" vol="200"/>
          <note pan="0" pos="1920" key="61" len="192" vol="200"/>
          <note pan="0" pos="2112" key="64" len="192" vol="200"/>
          <note pan="0" pos="2304" key="62" len="192" vol="200"/>
          <note pan="0" pos="2688" key="61" len="192" vol="200"/>
          <note pan="0" pos="2880" key="66" len="192" vol="200"/>
        </pattern>
        <pattern type="1" pos="34944" muted="0" name="" steps="16">
          <note pan="0" pos="0" key="61" len="144" vol="197"/>
          <note pan="0" pos="144" key="64" len="48" vol="197"/>
          <note pan="0" pos="192" key="63" len="144" vol="197"/>
          <note pan="0" pos="336" key="68" len="48" vol="197"/>
          <note pan="0" pos="384" key="68" len="144" vol="197"/>
          <note pan="0" pos="528" key="66" len="24" vol="197"/>
          <note pan="0" pos="552" key="64" len="24" vol="197"/>
          <note pan="0" pos="576" key="63" len="48" vol="197"/>
          <note pan="0" pos="624" key="64" len="48" vol="197"/>
          <note pan="0" pos="672" key="59" len="48" vol="197"/>
          <note pan="0" pos="720" key="56" len="48" vol="197"/>
          <note pan="0" pos="768" key="57" len="144" vol="197"/>
          <note pan="0" pos="912" key="64" len="48" vol="197"/>
          <note pan="0" pos="960" key="63" len="144" vol="197"/>
          <note pan="0" pos="1104" key="66" len="48" vol="197"/>
          <note pan="0" pos="1152" key="64" len="96" vol="197"/>
          <note pan="0" pos="1248" key="68" len="48" vol="197"/>
          <note pan="0" pos="1296" key="64" len="48" vol="197"/>
          <note pan="0" pos="1344" key="66" len="48" vol="197"/>
          <note pan="0" pos="1392" key="71" len="48" vol="197"/>
          <note pan="0" pos="1440" key="68" len="48" vol="197"/>
          <note pan="0" pos="1488" key="75" len="48" vol="197"/>
        </pattern>
        <pattern type="0" pos="47232" muted="0" name="bells" steps="16"/>
        <pattern type="1" pos="50304" muted="0" name="" steps="16">
          <note pan="0" pos="0" key="63" len="192" vol="197"/>
          <note pan="0" pos="192" key="61" len="192" vol="197"/>
          <note pan="0" pos="384" key="58" len="288" vol="197"/>
          <note pan="0" pos="672" key="58" len="96" vol="197"/>
          <note pan="0" pos="768" key="70" len="192" vol="197"/>
          <note pan="0" pos="960" key="68" len="192" vol="197"/>
          <note pan="0" pos="1152" key="63" len="384" vol="197"/>
          <note pan="0" pos="1536" key="63" len="192" vol="197"/>
          <note pan="0" pos="1728" key="65" len="192" vol="197"/>
          <note pan="0" pos="1920" key="66" len="192" vol="197"/>
          <note pan="0" pos="2112" key="70" len="96" vol="197"/>
          <note pan="0" pos="2208" key="68" len="96" vol="197"/>
          <note pan="0" pos="2304" key="68" len="192" vol="197"/>
          <note pan="0" pos="2496" key="63" len="144" vol="197"/>
          <note pan="0" pos="2640" key="63" len="24" vol="197"/>
          <note pan="0" pos="2664" key="65" len="24" vol="197"/>
          <note pan="0" pos="2688" key="66" len="192" vol="197"/>
          <note pan="0" pos="2880" key="66" len="96" vol="197"/>
          <note pan="0" pos="2976" key="70" len="96" vol="197"/>
          <note pan="0" pos="3072" key="75" len="384" vol="197"/>
          <note pan="0" pos="3456" key="75" len="384" vol="197"/>
        </pattern>
      </track>
      <track type="0" muted="0" name="choir hi" solo="0">
        <instrumenttrack pan="0" pitch="0" basenote="57" usemasterpitch="1" vol="54.4" fxch="0" pitchrange="1">
          <instrument name="carlapatchbay">
            <carlapatchbay>
              <CARLA-PROJECT VERSION="2.0">
                <EngineSettings>
                  <ForceStereo>false</ForceStereo>
                  <PreferPluginBridges>false</PreferPluginBridges>
                  <PreferUiBridges>true</PreferUiBridges>
                  <UIsAlwaysOnTop>false</UIsAlwaysOnTop>
                  <MaxParameters>200</MaxParameters>
                  <UIBridgesTimeout>4000</UIBridgesTimeout>
                  <LADSPA_PATH>/home/huggypie/.ladspa:/usr/lib/ladspa:/usr/local/lib/ladspa</LADSPA_PATH>
                  <DSSI_PATH>/home/huggypie/.dssi:/usr/lib/dssi:/usr/local/lib/dssi</DSSI_PATH>
                  <LV2_PATH>/home/huggypie/.lv2:/usr/lib/lv2:/usr/local/lib/lv2</LV2_PATH>
                  <VST2_PATH>/home/huggypie/.vst:/home/huggypie/.wine/drive_c/Program Files/VstPlugins:/usr/lib/lxvst:/usr/lib/vst:/usr/local/lib/lxvst:/usr/local/lib/vst/home/huggypie/.lxvst</VST2_PATH>
                  <VST3_PATH>/home/huggypie/.vst3:/home/huggypie/.wine/drive_c/Program Files/Common Files/VST3:/usr/lib/vst3:/usr/local/lib/vst3</VST3_PATH>
                  <SF2_PATH>/home/huggypie/.sounds/sf2/home/huggypie/.sounds/sf3:/home/huggypie/samples/soundfonts:/usr/share/soundfonts:/usr/share/sounds/sf2:/usr/share/sounds/sf3</SF2_PATH>
                  <SFZ_PATH>/home/huggypie/.sounds/sfz:/home/huggypie/samples:/home/huggypie/samples:/home/huggypie/samples/VSCO-2-CE-SFZ/VSCO-2-CE-SFZ:/usr/share/sounds/sfz</SFZ_PATH>
                </EngineSettings>
                <!-- Chorus - Female (nolimits) -->
                <Plugin>
                  <Info>
                    <Type>SFZ</Type>
                    <Name>Chorus - Female (nolimits)</Name>
                    <Filename>/home/huggypie/samples/sonatina-symphonic-orchestra-1.0/Sonatina Symphonic Orchestra/Chorus - Female (nolimits).sfz</Filename>
                  </Info>
                  <Data>
                    <Active>Yes</Active>
                    <ControlChannel>1</ControlChannel>
                    <Options>0x1f0</Options>
                  </Data>
                </Plugin>
                <Patchbay>
                  <Connection>
                    <Source>Midi Input:Capture 1</Source>
                    <Target>Chorus - Female (nolimits):events-in</Target>
                  </Connection>
                  <Connection>
                    <Source>Chorus - Female (nolimits):out-left</Source>
                    <Target>Audio Output:Left</Target>
                  </Connection>
                  <Connection>
                    <Source>Chorus - Female (nolimits):out-right</Source>
                    <Target>Audio Output:Right</Target>
                  </Connection>
                </Patchbay>
              </CARLA-PROJECT>
            </carlapatchbay>
          </instrument>
          <eldata fres="0.5" fcut="14000" fwet="0" ftype="0">
            <elvol lspd_numerator="4" userwavefile="" lshp="0" x100="0" amt="0" lspd_syncmode="0" ctlenvamt="0" dec="0.5" hold="0.5" lspd_denominator="4" sustain="0.5" lamt="0" lspd="0.1" pdel="0" att="0" lpdel="0" latt="0" rel="0.1"/>
            <elcut lspd_numerator="4" userwavefile="" lshp="0" x100="0" amt="0" lspd_syncmode="0" ctlenvamt="0" dec="0.5" hold="0.5" lspd_denominator="4" sustain="0.5" lamt="0" lspd="0.1" pdel="0" att="0" lpdel="0" latt="0" rel="0.1"/>
            <elres lspd_numerator="4" userwavefile="" lshp="0" x100="0" amt="0" lspd_syncmode="0" ctlenvamt="0" dec="0.5" hold="0.5" lspd_denominator="4" sustain="0.5" lamt="0" lspd="0.1" pdel="0" att="0" lpdel="0" latt="0" rel="0.1"/>
          </eldata>
          <chordcreator chordrange="1" chord="0" chord-enabled="0"/>
          <arpeggiator arpskip="0" arpmiss="0" arp-enabled="0" arpgate="100" arpdir="0" arpcycle="0" arprange="1" arptime_numerator="4" arptime_denominator="4" arptime_syncmode="0" arptime="200" arp="0" arpmode="0"/>
          <midiport outputcontroller="0" inputchannel="0" outputchannel="1" fixedoutputvelocity="-1" readable="0" inputcontroller="0" basevelocity="63" fixedoutputnote="-1" fixedinputvelocity="-1" outputprogram="1" writable="0"/>
          <fxchain enabled="0" numofeffects="0"/>
        </instrumenttrack>
        <pattern type="1" pos="1920" muted="0" name="choir hi" steps="16">
          <note pan="0" pos="0" key="44" len="36" vol="78"/>
          <note pan="0" pos="0" key="37" len="36" vol="78"/>
          <note pan="0" pos="0" key="1" len="24" vol="78"/>
          <note pan="0" pos="72" key="44" len="36" vol="78"/>
          <note pan="0" pos="72" key="37" len="36" vol="78"/>
          <note pan="0" pos="144" key="44" len="36" vol="78"/>
          <note pan="0" pos="144" key="37" len="36" vol="78"/>
          <note pan="0" pos="216" key="44" len="36" vol="78"/>
          <note pan="0" pos="216" key="37" len="36" vol="78"/>
          <note pan="0" pos="288" key="44" len="24" vol="78"/>
          <note pan="0" pos="288" key="37" len="24" vol="78"/>
          <note pan="0" pos="300" key="0" len="24" vol="78"/>
          <note pan="0" pos="312" key="44" len="48" vol="78"/>
          <note pan="0" pos="312" key="37" len="48" vol="78"/>
          <note pan="0" pos="336" key="1" len="24" vol="78"/>
          <note pan="0" pos="360" key="44" len="24" vol="78"/>
          <note pan="0" pos="360" key="37" len="24" vol="78"/>
          <note pan="0" pos="384" key="51" len="36" vol="78"/>
          <note pan="0" pos="384" key="44" len="36" vol="78"/>
          <note pan="0" pos="456" key="51" len="36" vol="78"/>
          <note pan="0" pos="456" key="44" len="36" vol="78"/>
          <note pan="0" pos="528" key="51" len="36" vol="78"/>
          <note pan="0" pos="528" key="44" len="36" vol="78"/>
          <note pan="0" pos="600" key="51" len="36" vol="78"/>
          <note pan="0" pos="600" key="44" len="36" vol="78"/>
          <note pan="0" pos="672" key="51" len="24" vol="78"/>
          <note pan="0" pos="672" key="44" len="24" vol="78"/>
          <note pan="0" pos="684" key="0" len="24" vol="78"/>
          <note pan="0" pos="696" key="51" len="48" vol="78"/>
          <note pan="0" pos="696" key="44" len="48" vol="78"/>
          <note pan="0" pos="720" key="1" len="24" vol="78"/>
          <note pan="0" pos="744" key="51" len="24" vol="78"/>
          <note pan="0" pos="744" key="44" len="24" vol="78"/>
          <note pan="0" pos="768" key="46" len="36" vol="78"/>
          <note pan="0" pos="768" key="39" len="36" vol="78"/>
          <note pan="0" pos="840" key="46" len="36" vol="78"/>
          <note pan="0" pos="840" key="39" len="36" vol="78"/>
          <note pan="0" pos="912" key="46" len="36" vol="78"/>
          <note pan="0" pos="912" key="39" len="36" vol="78"/>
          <note pan="0" pos="984" key="46" len="36" vol="78"/>
          <note pan="0" pos="984" key="39" len="36" vol="78"/>
          <note pan="0" pos="1056" key="46" len="24" vol="78"/>
          <note pan="0" pos="1056" key="39" len="24" vol="78"/>
          <note pan="0" pos="1068" key="0" len="24" vol="78"/>
          <note pan="0" pos="1080" key="46" len="48" vol="78"/>
          <note pan="0" pos="1080" key="39" len="48" vol="78"/>
          <note pan="0" pos="1116" key="1" len="24" vol="78"/>
          <note pan="0" pos="1128" key="46" len="24" vol="78"/>
          <note pan="0" pos="1128" key="39" len="24" vol="78"/>
          <note pan="0" pos="1152" key="45" len="36" vol="78"/>
          <note pan="0" pos="1152" key="38" len="36" vol="78"/>
          <note pan="0" pos="1224" key="45" len="36" vol="78"/>
          <note pan="0" pos="1224" key="38" len="36" vol="78"/>
          <note pan="0" pos="1296" key="45" len="36" vol="78"/>
          <note pan="0" pos="1296" key="38" len="36" vol="78"/>
        </pattern>
        <pattern type="1" pos="44160" muted="0" name="choir hi" steps="16">
          <note pan="0" pos="0" key="75" len="144" vol="200"/>
          <note pan="0" pos="0" key="63" len="144" vol="137"/>
          <note pan="0" pos="144" key="78" len="48" vol="200"/>
          <note pan="0" pos="144" key="66" len="48" vol="137"/>
          <note pan="0" pos="192" key="77" len="144" vol="200"/>
          <note pan="0" pos="192" key="65" len="144" vol="137"/>
          <note pan="0" pos="336" key="82" len="48" vol="200"/>
          <note pan="0" pos="336" key="70" len="48" vol="137"/>
          <note pan="0" pos="384" key="82" len="144" vol="200"/>
          <note pan="0" pos="384" key="70" len="144" vol="137"/>
          <note pan="0" pos="528" key="80" len="24" vol="200"/>
          <note pan="0" pos="528" key="68" len="24" vol="137"/>
          <note pan="0" pos="552" key="78" len="24" vol="200"/>
          <note pan="0" pos="552" key="66" len="24" vol="137"/>
          <note pan="0" pos="576" key="77" len="48" vol="200"/>
          <note pan="0" pos="576" key="65" len="48" vol="137"/>
          <note pan="0" pos="624" key="78" len="48" vol="200"/>
          <note pan="0" pos="624" key="66" len="48" vol="137"/>
          <note pan="0" pos="672" key="73" len="48" vol="200"/>
          <note pan="0" pos="672" key="61" len="48" vol="137"/>
          <note pan="0" pos="720" key="70" len="48" vol="200"/>
          <note pan="0" pos="720" key="58" len="48" vol="137"/>
          <note pan="0" pos="768" key="71" len="96" vol="200"/>
          <note pan="0" pos="768" key="59" len="96" vol="137"/>
          <note pan="0" pos="864" key="75" len="48" vol="200"/>
          <note pan="0" pos="864" key="63" len="48" vol="137"/>
          <note pan="0" pos="912" key="78" len="48" vol="200"/>
          <note pan="0" pos="912" key="66" len="48" vol="137"/>
          <note pan="0" pos="960" key="78" len="96" vol="200"/>
          <note pan="0" pos="960" key="66" len="96" vol="137"/>
          <note pan="0" pos="1056" key="77" len="48" vol="200"/>
          <note pan="0" pos="1056" key="65" len="48" vol="137"/>
          <note pan="0" pos="1104" key="78" len="48" vol="200"/>
          <note pan="0" pos="1104" key="66" len="48" vol="137"/>
          <note pan="0" pos="1152" key="85" len="72" vol="200"/>
          <note pan="0" pos="1152" key="73" len="72" vol="137"/>
          <note pan="0" pos="1224" key="83" len="72" vol="200"/>
          <note pan="0" pos="1224" key="71" len="72" vol="137"/>
          <note pan="0" pos="1296" key="82" len="48" vol="200"/>
          <note pan="0" pos="1296" key="70" len="48" vol="137"/>
          <note pan="0" pos="1344" key="80" len="192" vol="200"/>
          <note pan="0" pos="1344" key="68" len="192" vol="137"/>
          <note pan="0" pos="1536" key="78" len="72" vol="200"/>
          <note pan="0" pos="1536" key="66" len="72" vol="137"/>
          <note pan="0" pos="1608" key="77" len="72" vol="200"/>
          <note pan="0" pos="1608" key="65" len="72" vol="137"/>
          <note pan="0" pos="1680" key="78" len="48" vol="200"/>
          <note pan="0" pos="1680" key="66" len="48" vol="137"/>
          <note pan="0" pos="1728" key="82" len="144" vol="200"/>
          <note pan="0" pos="1728" key="70" len="144" vol="137"/>
          <note pan="0" pos="1872" key="77" len="48" vol="179"/>
          <note pan="0" pos="1872" key="65" len="48" vol="137"/>
          <note pan="0" pos="1920" key="75" len="240" vol="144"/>
          <note pan="0" pos="1920" key="63" len="240" vol="137"/>
          <note pan="0" pos="2160" key="78" len="48" vol="200"/>
          <note pan="0" pos="2160" key="66" len="48" vol="137"/>
          <note pan="0" pos="2208" key="80" len="48" vol="200"/>
          <note pan="0" pos="2208" key="68" len="48" vol="137"/>
          <note pan="0" pos="2256" key="82" len="48" vol="200"/>
          <note pan="0" pos="2256" key="70" len="48" vol="137"/>
          <note pan="0" pos="2304" key="83" len="72" vol="200"/>
          <note pan="0" pos="2304" key="71" len="72" vol="137"/>
          <note pan="0" pos="2376" key="82" len="72" vol="200"/>
          <note pan="0" pos="2376" key="70" len="72" vol="137"/>
          <note pan="0" pos="2448" key="80" len="48" vol="200"/>
          <note pan="0" pos="2448" key="68" len="48" vol="137"/>
          <note pan="0" pos="2496" key="78" len="48" vol="200"/>
          <note pan="0" pos="2496" key="66" len="48" vol="137"/>
          <note pan="0" pos="2544" key="75" len="48" vol="200"/>
          <note pan="0" pos="2544" key="63" len="48" vol="137"/>
          <note pan="0" pos="2592" key="78" len="48" vol="200"/>
          <note pan="0" pos="2592" key="66" len="48" vol="137"/>
          <note pan="0" pos="2640" key="82" len="48" vol="200"/>
          <note pan="0" pos="2640" key="70" len="48" vol="137"/>
          <note pan="0" pos="2688" key="80" len="192" vol="200"/>
          <note pan="0" pos="2688" key="68" len="192" vol="137"/>
        </pattern>
        <pattern type="0" pos="15744" muted="0" name="choir hi" steps="16"/>
        <pattern type="1" pos="21888" muted="0" name="choir hi" steps="16">
          <note pan="0" pos="0" key="73" len="192" vol="200"/>
          <note pan="0" pos="192" key="71" len="192" vol="200"/>
          <note pan="0" pos="384" key="68" len="384" vol="200"/>
          <note pan="0" pos="768" key="68" len="192" vol="200"/>
          <note pan="0" pos="960" key="66" len="192" vol="200"/>
          <note pan="0" pos="1152" key="64" len="384" vol="200"/>
        </pattern>
        <pattern type="1" pos="24000" muted="0" name="choir hi" steps="16">
          <note pan="0" pos="0" key="76" len="192" vol="200"/>
          <note pan="0" pos="192" key="73" len="384" vol="200"/>
          <note pan="0" pos="576" key="73" len="384" vol="200"/>
        </pattern>
        <pattern type="1" pos="24960" muted="0" name="choir hi" steps="16">
          <note pan="0" pos="0" key="73" len="192" vol="200"/>
          <note pan="0" pos="192" key="71" len="192" vol="200"/>
          <note pan="0" pos="384" key="68" len="288" vol="200"/>
          <note pan="0" pos="672" key="68" len="96" vol="200"/>
          <note pan="0" pos="768" key="80" len="192" vol="200"/>
          <note pan="0" pos="960" key="78" len="192" vol="200"/>
          <note pan="0" pos="1152" key="73" len="384" vol="200"/>
          <note pan="0" pos="1536" key="73" len="192" vol="200"/>
          <note pan="0" pos="1728" key="75" len="192" vol="200"/>
          <note pan="0" pos="1920" key="76" len="192" vol="200"/>
          <note pan="0" pos="2112" key="80" len="96" vol="200"/>
          <note pan="0" pos="2208" key="78" len="96" vol="200"/>
          <note pan="0" pos="2304" key="78" len="192" vol="200"/>
          <note pan="0" pos="2496" key="73" len="144" vol="200"/>
          <note pan="0" pos="2640" key="73" len="24" vol="200"/>
          <note pan="0" pos="2664" key="75" len="24" vol="200"/>
          <note pan="0" pos="2688" key="76" len="192" vol="200"/>
          <note pan="0" pos="2880" key="76" len="96" vol="200"/>
          <note pan="0" pos="2976" key="80" len="96" vol="200"/>
          <note pan="0" pos="3072" key="85" len="384" vol="200"/>
          <note pan="0" pos="3456" key="85" len="384" vol="200"/>
        </pattern>
      </track>
      <track type="0" muted="0" name="Plucked 6" solo="0">
        <instrumenttrack pan="0" pitch="0" basenote="57" usemasterpitch="1" vol="147.2" fxch="0" pitchrange="1">
          <instrument name="zynaddsubfx">
            <zynaddsubfx bandwidth="64" fmgain="127" rescenterfreq="64" portamento="0" filterq="64" modifiedcontrollers="" filterfreq="64" resbandwidth="64" forwardmidicc="1">
              <ZynAddSubFX-data version-major="2" version-minor="4" ZynAddSubFX-author="Nasca Octavian Paul" version-revision="1">
                <INFORMATION/>
                <BASE_PARAMETERS>
                  <par name="max_midi_parts" value="16"/>
                  <par name="max_kit_items_per_instrument" value="16"/>
                  <par name="max_system_effects" value="4"/>
                  <par name="max_insertion_effects" value="8"/>
                  <par name="max_instrument_effects" value="3"/>
                  <par name="max_addsynth_voices" value="8"/>
                </BASE_PARAMETERS>
                <MASTER>
                  <par name="volume" value="80"/>
                  <par name="key_shift" value="64"/>
                  <par_bool name="nrpn_receive" value="yes"/>
                  <MICROTONAL>
                    <string name="name">12tET</string>
                    <string name="comment">Equal Temperament 12 notes per octave</string>
                    <par_bool name="invert_up_down" value="no"/>
                    <par name="invert_up_down_center" value="60"/>
                    <par_bool name="enabled" value="no"/>
                    <par name="global_fine_detune" value="64"/>
                    <par name="a_note" value="69"/>
                    <par_real name="a_freq" value="440.000000"/>
                  </MICROTONAL>
                  <PART id="0">
                    <par_bool name="enabled" value="yes"/>
                    <par name="volume" value="96"/>
                    <par name="panning" value="64"/>
                    <par name="min_key" value="0"/>
                    <par name="max_key" value="127"/>
                    <par name="key_shift" value="64"/>
                    <par name="rcv_chn" value="0"/>
                    <par name="velocity_sensing" value="64"/>
                    <par name="velocity_offset" value="64"/>
                    <par_bool name="note_on" value="yes"/>
                    <par_bool name="poly_mode" value="yes"/>
                    <par name="legato_mode" value="0"/>
                    <par name="key_limit" value="15"/>
                    <INSTRUMENT>
                      <INFO>
                        <string name="name">bell_pad</string>
                        <string name="author"/>
                        <string name="comments"/>
                        <par name="type" value="0"/>
                      </INFO>
                      <INSTRUMENT_KIT>
                        <par name="kit_mode" value="0"/>
                        <par_bool name="drum_mode" value="no"/>
                        <INSTRUMENT_KIT_ITEM id="0">
                          <par_bool name="enabled" value="yes"/>
                          <string name="name"/>
                          <par_bool name="muted" value="no"/>
                          <par name="min_key" value="0"/>
                          <par name="max_key" value="127"/>
                          <par name="send_to_instrument_effect" value="0"/>
                          <par_bool name="add_enabled" value="yes"/>
                          <ADD_SYNTH_PARAMETERS>
                            <par_bool name="stereo" value="yes"/>
                            <AMPLITUDE_PARAMETERS>
                              <par name="volume" value="90"/>
                              <par name="panning" value="64"/>
                              <par name="velocity_sensing" value="64"/>
                              <par name="punch_strength" value="0"/>
                              <par name="punch_time" value="60"/>
                              <par name="punch_stretch" value="64"/>
                              <par name="punch_velocity_sensing" value="72"/>
                              <par name="harmonic_randomness_grouping" value="0"/>
                              <AMPLITUDE_ENVELOPE>
                                <par_bool name="free_mode" value="no"/>
                                <par name="env_points" value="4"/>
                                <par name="env_sustain" value="2"/>
                                <par name="env_stretch" value="64"/>
                                <par_bool name="forced_release" value="yes"/>
                                <par_bool name="linear_envelope" value="no"/>
                                <par name="A_dt" value="0"/>
                                <par name="D_dt" value="80"/>
                                <par name="R_dt" value="87"/>
                                <par name="A_val" value="64"/>
                                <par name="D_val" value="64"/>
                                <par name="S_val" value="0"/>
                                <par name="R_val" value="64"/>
                              </AMPLITUDE_ENVELOPE>
                              <AMPLITUDE_LFO>
                                <par_real name="freq" value="0.629921"/>
                                <par name="intensity" value="0"/>
                                <par name="start_phase" value="64"/>
                                <par name="lfo_type" value="0"/>
                                <par name="randomness_amplitude" value="0"/>
                                <par name="randomness_frequency" value="0"/>
                                <par name="delay" value="0"/>
                                <par name="stretch" value="64"/>
                                <par_bool name="continous" value="no"/>
                              </AMPLITUDE_LFO>
                            </AMPLITUDE_PARAMETERS>
                            <FREQUENCY_PARAMETERS>
                              <par name="detune" value="8192"/>
                              <par name="coarse_detune" value="0"/>
                              <par name="detune_type" value="1"/>
                              <par name="bandwidth" value="64"/>
                              <FREQUENCY_ENVELOPE>
                                <par_bool name="free_mode" value="no"/>
                                <par name="env_points" value="3"/>
                                <par name="env_sustain" value="1"/>
                                <par name="env_stretch" value="0"/>
                                <par_bool name="forced_release" value="no"/>
                                <par_bool name="linear_envelope" value="no"/>
                                <par name="A_dt" value="50"/>
                                <par name="D_dt" value="10"/>
                                <par name="R_dt" value="60"/>
                                <par name="A_val" value="64"/>
                                <par name="D_val" value="64"/>
                                <par name="S_val" value="64"/>
                                <par name="R_val" value="64"/>
                              </FREQUENCY_ENVELOPE>
                              <FREQUENCY_LFO>
                                <par_real name="freq" value="0.551181"/>
                                <par name="intensity" value="0"/>
                                <par name="start_phase" value="64"/>
                                <par name="lfo_type" value="0"/>
                                <par name="randomness_amplitude" value="0"/>
                                <par name="randomness_frequency" value="0"/>
                                <par name="delay" value="0"/>
                                <par name="stretch" value="64"/>
                                <par_bool name="continous" value="no"/>
                              </FREQUENCY_LFO>
                            </FREQUENCY_PARAMETERS>
                            <FILTER_PARAMETERS>
                              <par name="velocity_sensing_amplitude" value="64"/>
                              <par name="velocity_sensing" value="64"/>
                              <FILTER>
                                <par name="category" value="0"/>
                                <par name="type" value="2"/>
                                <par name="freq" value="94"/>
                                <par name="q" value="40"/>
                                <par name="stages" value="0"/>
                                <par name="freq_track" value="64"/>
                                <par name="gain" value="64"/>
                              </FILTER>
                              <FILTER_ENVELOPE>
                                <par_bool name="free_mode" value="no"/>
                                <par name="env_points" value="4"/>
                                <par name="env_sustain" value="2"/>
                                <par name="env_stretch" value="0"/>
                                <par_bool name="forced_release" value="yes"/>
                                <par_bool name="linear_envelope" value="no"/>
                                <par name="A_dt" value="40"/>
                                <par name="D_dt" value="70"/>
                                <par name="R_dt" value="61"/>
                                <par name="A_val" value="64"/>
                                <par name="D_val" value="64"/>
                                <par name="S_val" value="64"/>
                                <par name="R_val" value="64"/>
                              </FILTER_ENVELOPE>
                              <FILTER_LFO>
                                <par_real name="freq" value="0.629921"/>
                                <par name="intensity" value="0"/>
                                <par name="start_phase" value="64"/>
                                <par name="lfo_type" value="0"/>
                                <par name="randomness_amplitude" value="0"/>
                                <par name="randomness_frequency" value="0"/>
                                <par name="delay" value="0"/>
                                <par name="stretch" value="64"/>
                                <par_bool name="continous" value="no"/>
                              </FILTER_LFO>
                            </FILTER_PARAMETERS>
                            <RESONANCE>
                              <par_bool name="enabled" value="no"/>
                            </RESONANCE>
                            <VOICE id="0">
                              <par_bool name="enabled" value="yes"/>
                              <par name="type" value="0"/>
                              <par name="unison_size" value="10"/>
                              <par name="unison_frequency_spread" value="60"/>
                              <par name="unison_stereo_spread" value="64"/>
                              <par name="unison_vibratto" value="64"/>
                              <par name="unison_vibratto_speed" value="64"/>
                              <par name="unison_invert_phase" value="0"/>
                              <par name="unison_phase_randomness" value="127"/>
                              <par name="delay" value="0"/>
                              <par_bool name="resonance" value="yes"/>
                              <par name="ext_oscil" value="-1"/>
                              <par name="ext_fm_oscil" value="-1"/>
                              <par name="oscil_phase" value="64"/>
                              <par name="oscil_fm_phase" value="64"/>
                              <par_bool name="filter_enabled" value="no"/>
                              <par_bool name="filter_bypass" value="no"/>
                              <par name="fm_enabled" value="0"/>
                              <OSCIL>
                                <par name="harmonic_mag_type" value="0"/>
                                <par name="base_function" value="0"/>
                                <par name="base_function_par" value="64"/>
                                <par name="base_function_modulation" value="0"/>
                                <par name="base_function_modulation_par1" value="64"/>
                                <par name="base_function_modulation_par2" value="64"/>
                                <par name="base_function_modulation_par3" value="32"/>
                                <par name="modulation" value="0"/>
                                <par name="modulation_par1" value="64"/>
                                <par name="modulation_par2" value="64"/>
                                <par name="modulation_par3" value="32"/>
                                <par name="wave_shaping" value="64"/>
                                <par name="wave_shaping_function" value="0"/>
                                <par name="filter_type" value="0"/>
                                <par name="filter_par1" value="64"/>
                                <par name="filter_par2" value="64"/>
                                <par name="filter_before_wave_shaping" value="0"/>
                                <par name="spectrum_adjust_type" value="0"/>
                                <par name="spectrum_adjust_par" value="64"/>
                                <par name="rand" value="64"/>
                                <par name="amp_rand_type" value="0"/>
                                <par name="amp_rand_power" value="64"/>
                                <par name="harmonic_shift" value="0"/>
                                <par_bool name="harmonic_shift_first" value="no"/>
                                <par name="adaptive_harmonics" value="0"/>
                                <par name="adaptive_harmonics_base_frequency" value="128"/>
                                <par name="adaptive_harmonics_power" value="100"/>
                                <HARMONICS>
                                  <HARMONIC id="1">
                                    <par name="mag" value="127"/>
                                    <par name="phase" value="64"/>
                                  </HARMONIC>
                                  <HARMONIC id="2">
                                    <par name="mag" value="127"/>
                                    <par name="phase" value="64"/>
                                  </HARMONIC>
                                  <HARMONIC id="3">
                                    <par name="mag" value="127"/>
                                    <par name="phase" value="64"/>
                                  </HARMONIC>
                                  <HARMONIC id="9">
                                    <par name="mag" value="97"/>
                                    <par name="phase" value="64"/>
                                  </HARMONIC>
                                  <HARMONIC id="15">
                                    <par name="mag" value="88"/>
                                    <par name="phase" value="64"/>
                                  </HARMONIC>
                                </HARMONICS>
                              </OSCIL>
                              <AMPLITUDE_PARAMETERS>
                                <par name="panning" value="64"/>
                                <par name="volume" value="100"/>
                                <par_bool name="volume_minus" value="no"/>
                                <par name="velocity_sensing" value="127"/>
                                <par_bool name="amp_envelope_enabled" value="no"/>
                                <par_bool name="amp_lfo_enabled" value="no"/>
                              </AMPLITUDE_PARAMETERS>
                              <FREQUENCY_PARAMETERS>
                                <par_bool name="fixed_freq" value="no"/>
                                <par name="fixed_freq_et" value="0"/>
                                <par name="detune" value="8192"/>
                                <par name="coarse_detune" value="0"/>
                                <par name="detune_type" value="0"/>
                                <par_bool name="freq_envelope_enabled" value="no"/>
                                <par_bool name="freq_lfo_enabled" value="no"/>
                              </FREQUENCY_PARAMETERS>
                            </VOICE>
                            <VOICE id="1">
                              <par_bool name="enabled" value="no"/>
                            </VOICE>
                            <VOICE id="2">
                              <par_bool name="enabled" value="no"/>
                            </VOICE>
                            <VOICE id="3">
                              <par_bool name="enabled" value="no"/>
                            </VOICE>
                            <VOICE id="4">
                              <par_bool name="enabled" value="no"/>
                            </VOICE>
                            <VOICE id="5">
                              <par_bool name="enabled" value="no"/>
                            </VOICE>
                            <VOICE id="6">
                              <par_bool name="enabled" value="no"/>
                            </VOICE>
                            <VOICE id="7">
                              <par_bool name="enabled" value="no"/>
                            </VOICE>
                          </ADD_SYNTH_PARAMETERS>
                          <par_bool name="sub_enabled" value="no"/>
                          <par_bool name="pad_enabled" value="no"/>
                        </INSTRUMENT_KIT_ITEM>
                        <INSTRUMENT_KIT_ITEM id="1">
                          <par_bool name="enabled" value="no"/>
                        </INSTRUMENT_KIT_ITEM>
                        <INSTRUMENT_KIT_ITEM id="2">
                          <par_bool name="enabled" value="no"/>
                        </INSTRUMENT_KIT_ITEM>
                        <INSTRUMENT_KIT_ITEM id="3">
                          <par_bool name="enabled" value="no"/>
                        </INSTRUMENT_KIT_ITEM>
                        <INSTRUMENT_KIT_ITEM id="4">
                          <par_bool name="enabled" value="no"/>
                        </INSTRUMENT_KIT_ITEM>
                        <INSTRUMENT_KIT_ITEM id="5">
                          <par_bool name="enabled" value="no"/>
                        </INSTRUMENT_KIT_ITEM>
                        <INSTRUMENT_KIT_ITEM id="6">
                          <par_bool name="enabled" value="no"/>
                        </INSTRUMENT_KIT_ITEM>
                        <INSTRUMENT_KIT_ITEM id="7">
                          <par_bool name="enabled" value="no"/>
                        </INSTRUMENT_KIT_ITEM>
                        <INSTRUMENT_KIT_ITEM id="8">
                          <par_bool name="enabled" value="no"/>
                        </INSTRUMENT_KIT_ITEM>
                        <INSTRUMENT_KIT_ITEM id="9">
                          <par_bool name="enabled" value="no"/>
                        </INSTRUMENT_KIT_ITEM>
                        <INSTRUMENT_KIT_ITEM id="10">
                          <par_bool name="enabled" value="no"/>
                        </INSTRUMENT_KIT_ITEM>
                        <INSTRUMENT_KIT_ITEM id="11">
                          <par_bool name="enabled" value="no"/>
                        </INSTRUMENT_KIT_ITEM>
                        <INSTRUMENT_KIT_ITEM id="12">
                          <par_bool name="enabled" value="no"/>
                        </INSTRUMENT_KIT_ITEM>
                        <INSTRUMENT_KIT_ITEM id="13">
                          <par_bool name="enabled" value="no"/>
                        </INSTRUMENT_KIT_ITEM>
                        <INSTRUMENT_KIT_ITEM id="14">
                          <par_bool name="enabled" value="no"/>
                        </INSTRUMENT_KIT_ITEM>
                        <INSTRUMENT_KIT_ITEM id="15">
                          <par_bool name="enabled" value="no"/>
                        </INSTRUMENT_KIT_ITEM>
                      </INSTRUMENT_KIT>
                      <INSTRUMENT_EFFECTS>
                        <INSTRUMENT_EFFECT id="0">
                          <EFFECT>
                            <par name="type" value="1"/>
                            <par name="preset" value="0"/>
                            <EFFECT_PARAMETERS>
                              <par_no id="0">
                                <par name="par" value="40"/>
                              </par_no>
                              <par_no id="1">
                                <par name="par" value="64"/>
                              </par_no>
                              <par_no id="2">
                                <par name="par" value="63"/>
                              </par_no>
                              <par_no id="3">
                                <par name="par" value="24"/>
                              </par_no>
                              <par_no id="7">
                                <par name="par" value="85"/>
                              </par_no>
                              <par_no id="8">
                                <par name="par" value="5"/>
                              </par_no>
                              <par_no id="9">
                                <par name="par" value="83"/>
                              </par_no>
                              <par_no id="10">
                                <par name="par" value="1"/>
                              </par_no>
                              <par_no id="11">
                                <par name="par" value="64"/>
                              </par_no>
                              <par_no id="12">
                                <par name="par" value="20"/>
                              </par_no>
                            </EFFECT_PARAMETERS>
                          </EFFECT>
                          <par name="route" value="0"/>
                          <par_bool name="bypass" value="no"/>
                        </INSTRUMENT_EFFECT>
                        <INSTRUMENT_EFFECT id="1">
                          <EFFECT>
                            <par name="type" value="0"/>
                          </EFFECT>
                          <par name="route" value="0"/>
                          <par_bool name="bypass" value="no"/>
                        </INSTRUMENT_EFFECT>
                        <INSTRUMENT_EFFECT id="2">
                          <EFFECT>
                            <par name="type" value="0"/>
                          </EFFECT>
                          <par name="route" value="0"/>
                          <par_bool name="bypass" value="no"/>
                        </INSTRUMENT_EFFECT>
                      </INSTRUMENT_EFFECTS>
                    </INSTRUMENT>
                    <CONTROLLER>
                      <par name="pitchwheel_bendrange" value="100"/>
                      <par_bool name="expression_receive" value="yes"/>
                      <par name="panning_depth" value="64"/>
                      <par name="filter_cutoff_depth" value="64"/>
                      <par name="filter_q_depth" value="64"/>
                      <par name="bandwidth_depth" value="64"/>
                      <par name="mod_wheel_depth" value="80"/>
                      <par_bool name="mod_wheel_exponential" value="no"/>
                      <par_bool name="fm_amp_receive" value="yes"/>
                      <par_bool name="volume_receive" value="yes"/>
                      <par_bool name="sustain_receive" value="yes"/>
                      <par_bool name="portamento_receive" value="yes"/>
                      <par name="portamento_time" value="64"/>
                      <par name="portamento_pitchthresh" value="3"/>
                      <par name="portamento_pitchthreshtype" value="1"/>
                      <par name="portamento_portamento" value="0"/>
                      <par name="portamento_updowntimestretch" value="64"/>
                      <par name="portamento_proportional" value="0"/>
                      <par name="portamento_proprate" value="80"/>
                      <par name="portamento_propdepth" value="90"/>
                      <par name="resonance_center_depth" value="64"/>
                      <par name="resonance_bandwidth_depth" value="64"/>
                    </CONTROLLER>
                  </PART>
                  <PART id="1">
                    <par_bool name="enabled" value="no"/>
                  </PART>
                  <PART id="2">
                    <par_bool name="enabled" value="no"/>
                  </PART>
                  <PART id="3">
                    <par_bool name="enabled" value="no"/>
                  </PART>
                  <PART id="4">
                    <par_bool name="enabled" value="no"/>
                  </PART>
                  <PART id="5">
                    <par_bool name="enabled" value="no"/>
                  </PART>
                  <PART id="6">
                    <par_bool name="enabled" value="no"/>
                  </PART>
                  <PART id="7">
                    <par_bool name="enabled" value="no"/>
                  </PART>
                  <PART id="8">
                    <par_bool name="enabled" value="no"/>
                  </PART>
                  <PART id="9">
                    <par_bool name="enabled" value="no"/>
                  </PART>
                  <PART id="10">
                    <par_bool name="enabled" value="no"/>
                  </PART>
                  <PART id="11">
                    <par_bool name="enabled" value="no"/>
                  </PART>
                  <PART id="12">
                    <par_bool name="enabled" value="no"/>
                  </PART>
                  <PART id="13">
                    <par_bool name="enabled" value="no"/>
                  </PART>
                  <PART id="14">
                    <par_bool name="enabled" value="no"/>
                  </PART>
                  <PART id="15">
                    <par_bool name="enabled" value="no"/>
                  </PART>
                  <SYSTEM_EFFECTS>
                    <SYSTEM_EFFECT id="0">
                      <EFFECT>
                        <par name="type" value="0"/>
                      </EFFECT>
                      <VOLUME id="0">
                        <par name="vol" value="0"/>
                      </VOLUME>
                      <VOLUME id="1">
                        <par name="vol" value="0"/>
                      </VOLUME>
                      <VOLUME id="2">
                        <par name="vol" value="0"/>
                      </VOLUME>
                      <VOLUME id="3">
                        <par name="vol" value="0"/>
                      </VOLUME>
                      <VOLUME id="4">
                        <par name="vol" value="0"/>
                      </VOLUME>
                      <VOLUME id="5">
                        <par name="vol" value="0"/>
                      </VOLUME>
                      <VOLUME id="6">
                        <par name="vol" value="0"/>
                      </VOLUME>
                      <VOLUME id="7">
                        <par name="vol" value="0"/>
                      </VOLUME>
                      <VOLUME id="8">
                        <par name="vol" value="0"/>
                      </VOLUME>
                      <VOLUME id="9">
                        <par name="vol" value="0"/>
                      </VOLUME>
                      <VOLUME id="10">
                        <par name="vol" value="0"/>
                      </VOLUME>
                      <VOLUME id="11">
                        <par name="vol" value="0"/>
                      </VOLUME>
                      <VOLUME id="12">
                        <par name="vol" value="0"/>
                      </VOLUME>
                      <VOLUME id="13">
                        <par name="vol" value="0"/>
                      </VOLUME>
                      <VOLUME id="14">
                        <par name="vol" value="0"/>
                      </VOLUME>
                      <VOLUME id="15">
                        <par name="vol" value="0"/>
                      </VOLUME>
                      <SENDTO id="1">
                        <par name="send_vol" value="0"/>
                      </SENDTO>
                      <SENDTO id="2">
                        <par name="send_vol" value="0"/>
                      </SENDTO>
                      <SENDTO id="3">
                        <par name="send_vol" value="0"/>
                      </SENDTO>
                    </SYSTEM_EFFECT>
                    <SYSTEM_EFFECT id="1">
                      <EFFECT>
                        <par name="type" value="0"/>
                      </EFFECT>
                      <VOLUME id="0">
                        <par name="vol" value="0"/>
                      </VOLUME>
                      <VOLUME id="1">
                        <par name="vol" value="0"/>
                      </VOLUME>
                      <VOLUME id="2">
                        <par name="vol" value="0"/>
                      </VOLUME>
                      <VOLUME id="3">
                        <par name="vol" value="0"/>
                      </VOLUME>
                      <VOLUME id="4">
                        <par name="vol" value="0"/>
                      </VOLUME>
                      <VOLUME id="5">
                        <par name="vol" value="0"/>
                      </VOLUME>
                      <VOLUME id="6">
                        <par name="vol" value="0"/>
                      </VOLUME>
                      <VOLUME id="7">
                        <par name="vol" value="0"/>
                      </VOLUME>
                      <VOLUME id="8">
                        <par name="vol" value="0"/>
                      </VOLUME>
                      <VOLUME id="9">
                        <par name="vol" value="0"/>
                      </VOLUME>
                      <VOLUME id="10">
                        <par name="vol" value="0"/>
                      </VOLUME>
                      <VOLUME id="11">
                        <par name="vol" value="0"/>
                      </VOLUME>
                      <VOLUME id="12">
                        <par name="vol" value="0"/>
                      </VOLUME>
                      <VOLUME id="13">
                        <par name="vol" value="0"/>
                      </VOLUME>
                      <VOLUME id="14">
                        <par name="vol" value="0"/>
                      </VOLUME>
                      <VOLUME id="15">
                        <par name="vol" value="0"/>
                      </VOLUME>
                      <SENDTO id="2">
                        <par name="send_vol" value="0"/>
                      </SENDTO>
                      <SENDTO id="3">
                        <par name="send_vol" value="0"/>
                      </SENDTO>
                    </SYSTEM_EFFECT>
                    <SYSTEM_EFFECT id="2">
                      <EFFECT>
                        <par name="type" value="0"/>
                      </EFFECT>
                      <VOLUME id="0">
                        <par name="vol" value="0"/>
                      </VOLUME>
                      <VOLUME id="1">
                        <par name="vol" value="0"/>
                      </VOLUME>
                      <VOLUME id="2">
                        <par name="vol" value="0"/>
                      </VOLUME>
                      <VOLUME id="3">
                        <par name="vol" value="0"/>
                      </VOLUME>
                      <VOLUME id="4">
                        <par name="vol" value="0"/>
                      </VOLUME>
                      <VOLUME id="5">
                        <par name="vol" value="0"/>
                      </VOLUME>
                      <VOLUME id="6">
                        <par name="vol" value="0"/>
                      </VOLUME>
                      <VOLUME id="7">
                        <par name="vol" value="0"/>
                      </VOLUME>
                      <VOLUME id="8">
                        <par name="vol" value="0"/>
                      </VOLUME>
                      <VOLUME id="9">
                        <par name="vol" value="0"/>
                      </VOLUME>
                      <VOLUME id="10">
                        <par name="vol" value="0"/>
                      </VOLUME>
                      <VOLUME id="11">
                        <par name="vol" value="0"/>
                      </VOLUME>
                      <VOLUME id="12">
                        <par name="vol" value="0"/>
                      </VOLUME>
                      <VOLUME id="13">
                        <par name="vol" value="0"/>
                      </VOLUME>
                      <VOLUME id="14">
                        <par name="vol" value="0"/>
                      </VOLUME>
                      <VOLUME id="15">
                        <par name="vol" value="0"/>
                      </VOLUME>
                      <SENDTO id="3">
                        <par name="send_vol" value="0"/>
                      </SENDTO>
                    </SYSTEM_EFFECT>
                    <SYSTEM_EFFECT id="3">
                      <EFFECT>
                        <par name="type" value="0"/>
                      </EFFECT>
                      <VOLUME id="0">
                        <par name="vol" value="0"/>
                      </VOLUME>
                      <VOLUME id="1">
                        <par name="vol" value="0"/>
                      </VOLUME>
                      <VOLUME id="2">
                        <par name="vol" value="0"/>
                      </VOLUME>
                      <VOLUME id="3">
                        <par name="vol" value="0"/>
                      </VOLUME>
                      <VOLUME id="4">
                        <par name="vol" value="0"/>
                      </VOLUME>
                      <VOLUME id="5">
                        <par name="vol" value="0"/>
                      </VOLUME>
                      <VOLUME id="6">
                        <par name="vol" value="0"/>
                      </VOLUME>
                      <VOLUME id="7">
                        <par name="vol" value="0"/>
                      </VOLUME>
                      <VOLUME id="8">
                        <par name="vol" value="0"/>
                      </VOLUME>
                      <VOLUME id="9">
                        <par name="vol" value="0"/>
                      </VOLUME>
                      <VOLUME id="10">
                        <par name="vol" value="0"/>
                      </VOLUME>
                      <VOLUME id="11">
                        <par name="vol" value="0"/>
                      </VOLUME>
                      <VOLUME id="12">
                        <par name="vol" value="0"/>
                      </VOLUME>
                      <VOLUME id="13">
                        <par name="vol" value="0"/>
                      </VOLUME>
                      <VOLUME id="14">
                        <par name="vol" value="0"/>
                      </VOLUME>
                      <VOLUME id="15">
                        <par name="vol" value="0"/>
                      </VOLUME>
                    </SYSTEM_EFFECT>
                  </SYSTEM_EFFECTS>
                  <INSERTION_EFFECTS>
                    <INSERTION_EFFECT id="0">
                      <par name="part" value="-1"/>
                      <EFFECT>
                        <par name="type" value="0"/>
                      </EFFECT>
                    </INSERTION_EFFECT>
                    <INSERTION_EFFECT id="1">
                      <par name="part" value="-1"/>
                      <EFFECT>
                        <par name="type" value="0"/>
                      </EFFECT>
                    </INSERTION_EFFECT>
                    <INSERTION_EFFECT id="2">
                      <par name="part" value="-1"/>
                      <EFFECT>
                        <par name="type" value="0"/>
                      </EFFECT>
                    </INSERTION_EFFECT>
                    <INSERTION_EFFECT id="3">
                      <par name="part" value="-1"/>
                      <EFFECT>
                        <par name="type" value="0"/>
                      </EFFECT>
                    </INSERTION_EFFECT>
                    <INSERTION_EFFECT id="4">
                      <par name="part" value="-1"/>
                      <EFFECT>
                        <par name="type" value="0"/>
                      </EFFECT>
                    </INSERTION_EFFECT>
                    <INSERTION_EFFECT id="5">
                      <par name="part" value="-1"/>
                      <EFFECT>
                        <par name="type" value="0"/>
                      </EFFECT>
                    </INSERTION_EFFECT>
                    <INSERTION_EFFECT id="6">
                      <par name="part" value="-1"/>
                      <EFFECT>
                        <par name="type" value="0"/>
                      </EFFECT>
                    </INSERTION_EFFECT>
                    <INSERTION_EFFECT id="7">
                      <par name="part" value="-1"/>
                      <EFFECT>
                        <par name="type" value="0"/>
                      </EFFECT>
                    </INSERTION_EFFECT>
                  </INSERTION_EFFECTS>
                </MASTER>
              </ZynAddSubFX-data>
            </zynaddsubfx>
          </instrument>
          <eldata fres="0.5" fcut="14000" fwet="0" ftype="0">
            <elvol lspd_numerator="4" userwavefile="" lshp="0" x100="0" amt="0" lspd_syncmode="0" ctlenvamt="0" dec="0.5" hold="0.5" lspd_denominator="4" sustain="0.5" lamt="0" lspd="0.1" pdel="0" att="0" lpdel="0" latt="0" rel="0.1"/>
            <elcut lspd_numerator="4" userwavefile="" lshp="0" x100="0" amt="0" lspd_syncmode="0" ctlenvamt="0" dec="0.5" hold="0.5" lspd_denominator="4" sustain="0.5" lamt="0" lspd="0.1" pdel="0" att="0" lpdel="0" latt="0" rel="0.1"/>
            <elres lspd_numerator="4" userwavefile="" lshp="0" x100="0" amt="0" lspd_syncmode="0" ctlenvamt="0" dec="0.5" hold="0.5" lspd_denominator="4" sustain="0.5" lamt="0" lspd="0.1" pdel="0" att="0" lpdel="0" latt="0" rel="0.1"/>
          </eldata>
          <chordcreator chordrange="1" chord="0" chord-enabled="0"/>
          <arpeggiator arpskip="0" arpmiss="0" arp-enabled="0" arpgate="100" arpdir="0" arpcycle="0" arprange="1" arptime_numerator="4" arptime_denominator="4" arptime_syncmode="0" arptime="200" arp="0" arpmode="0"/>
          <midiport outputcontroller="0" inputchannel="0" outputchannel="1" fixedoutputvelocity="-1" readable="0" inputcontroller="0" basevelocity="63" fixedoutputnote="-1" fixedinputvelocity="-1" outputprogram="1" writable="0"/>
          <fxchain enabled="0" numofeffects="0"/>
        </instrumenttrack>
        <pattern type="0" pos="3456" muted="0" name="Plucked 6" steps="16"/>
        <pattern type="1" pos="13056" muted="0" name="Plucked 6" steps="16">
          <note pan="0" pos="0" key="68" len="24" vol="78"/>
          <note pan="0" pos="24" key="71" len="24" vol="78"/>
          <note pan="0" pos="48" key="68" len="24" vol="78"/>
          <note pan="0" pos="72" key="75" len="48" vol="78"/>
          <note pan="0" pos="120" key="68" len="24" vol="78"/>
          <note pan="0" pos="144" key="71" len="24" vol="78"/>
          <note pan="0" pos="168" key="75" len="24" vol="78"/>
          <note pan="0" pos="192" key="76" len="24" vol="78"/>
          <note pan="0" pos="216" key="75" len="24" vol="78"/>
          <note pan="0" pos="240" key="73" len="24" vol="78"/>
          <note pan="0" pos="264" key="71" len="24" vol="78"/>
          <note pan="0" pos="288" key="75" len="24" vol="78"/>
          <note pan="0" pos="312" key="73" len="24" vol="78"/>
          <note pan="0" pos="336" key="71" len="24" vol="78"/>
          <note pan="0" pos="360" key="68" len="24" vol="78"/>
        </pattern>
        <pattern type="1" pos="13440" muted="0" name="Plucked 6" steps="16">
          <note pan="0" pos="0" key="61" len="24" vol="78"/>
          <note pan="0" pos="24" key="63" len="24" vol="78"/>
          <note pan="0" pos="48" key="61" len="24" vol="78"/>
          <note pan="0" pos="72" key="68" len="48" vol="78"/>
          <note pan="0" pos="120" key="61" len="24" vol="78"/>
          <note pan="0" pos="144" key="64" len="24" vol="78"/>
          <note pan="0" pos="168" key="68" len="24" vol="78"/>
          <note pan="0" pos="192" key="71" len="24" vol="78"/>
          <note pan="0" pos="216" key="73" len="24" vol="78"/>
          <note pan="0" pos="240" key="75" len="24" vol="78"/>
          <note pan="0" pos="264" key="73" len="48" vol="78"/>
          <note pan="0" pos="312" key="75" len="24" vol="78"/>
          <note pan="0" pos="336" key="76" len="24" vol="78"/>
          <note pan="0" pos="360" key="78" len="24" vol="78"/>
        </pattern>
        <pattern type="1" pos="42624" muted="0" name="" steps="16">
          <note pan="0" pos="0" key="61" len="144" vol="136"/>
          <note pan="0" pos="0" key="49" len="48" vol="136"/>
          <note pan="0" pos="48" key="52" len="48" vol="136"/>
          <note pan="0" pos="96" key="56" len="48" vol="136"/>
          <note pan="0" pos="144" key="64" len="48" vol="136"/>
          <note pan="0" pos="144" key="61" len="48" vol="136"/>
          <note pan="0" pos="192" key="63" len="144" vol="136"/>
          <note pan="0" pos="192" key="59" len="48" vol="136"/>
          <note pan="0" pos="240" key="54" len="48" vol="136"/>
          <note pan="0" pos="288" key="59" len="48" vol="136"/>
          <note pan="0" pos="336" key="68" len="48" vol="136"/>
          <note pan="0" pos="336" key="63" len="48" vol="136"/>
          <note pan="0" pos="384" key="68" len="144" vol="136"/>
          <note pan="0" pos="384" key="64" len="48" vol="136"/>
          <note pan="0" pos="432" key="57" len="48" vol="136"/>
          <note pan="0" pos="480" key="61" len="48" vol="136"/>
          <note pan="0" pos="528" key="66" len="24" vol="136"/>
          <note pan="0" pos="528" key="52" len="48" vol="136"/>
          <note pan="0" pos="552" key="64" len="24" vol="136"/>
          <note pan="0" pos="576" key="63" len="48" vol="136"/>
          <note pan="0" pos="576" key="54" len="48" vol="136"/>
          <note pan="0" pos="624" key="64" len="48" vol="136"/>
          <note pan="0" pos="624" key="51" len="48" vol="136"/>
          <note pan="0" pos="672" key="59" len="48" vol="136"/>
          <note pan="0" pos="672" key="54" len="48" vol="136"/>
          <note pan="0" pos="720" key="56" len="48" vol="136"/>
          <note pan="0" pos="720" key="47" len="48" vol="136"/>
          <note pan="0" pos="768" key="57" len="96" vol="136"/>
          <note pan="0" pos="768" key="49" len="48" vol="136"/>
          <note pan="0" pos="816" key="54" len="48" vol="136"/>
          <note pan="0" pos="864" key="61" len="48" vol="136"/>
          <note pan="0" pos="864" key="57" len="48" vol="136"/>
          <note pan="0" pos="912" key="64" len="48" vol="136"/>
          <note pan="0" pos="912" key="54" len="48" vol="136"/>
          <note pan="0" pos="960" key="64" len="96" vol="136"/>
          <note pan="0" pos="960" key="56" len="48" vol="136"/>
          <note pan="0" pos="1008" key="59" len="48" vol="136"/>
          <note pan="0" pos="1056" key="63" len="48" vol="136"/>
          <note pan="0" pos="1056" key="56" len="48" vol="136"/>
          <note pan="0" pos="1104" key="64" len="48" vol="136"/>
          <note pan="0" pos="1104" key="51" len="48" vol="136"/>
          <note pan="0" pos="1152" key="71" len="72" vol="136"/>
          <note pan="0" pos="1152" key="57" len="48" vol="136"/>
        </pattern>
      </track>
      <track type="0" muted="0" name="reverb clap.wav" solo="0">
        <instrumenttrack pan="0" pitch="0" basenote="57" usemasterpitch="1" vol="149.7" fxch="0" pitchrange="1">
          <instrument name="audiofileprocessor">
            <audiofileprocessor looped="0" stutter="0" reversed="1" lframe="1.37424e-5" amp="100" eframe="1" sframe="6.8712e-6" interp="1" src="reverb clap.wav"/>
          </instrument>
          <eldata fres="0.5" fcut="8904" fwet="1" ftype="0">
            <elvol lspd_numerator="4" userwavefile="" lshp="0" x100="0" amt="0" lspd_syncmode="0" ctlenvamt="0" dec="0.5" hold="0.5" lspd_denominator="4" sustain="0.5" lamt="0" lspd="0.1" pdel="0" att="0" lpdel="0" latt="0" rel="0.1"/>
            <elcut lspd_numerator="4" userwavefile="" lshp="0" x100="0" amt="0" lspd_syncmode="0" ctlenvamt="0" dec="0.5" hold="0.5" lspd_denominator="4" sustain="0.5" lamt="0" lspd="0.1" pdel="0" att="0" lpdel="0" latt="0" rel="0.1"/>
            <elres lspd_numerator="4" userwavefile="" lshp="0" x100="0" amt="0" lspd_syncmode="0" ctlenvamt="0" dec="0.5" hold="0.5" lspd_denominator="4" sustain="0.5" lamt="0" lspd="0.1" pdel="0" att="0" lpdel="0" latt="0" rel="0.1"/>
          </eldata>
          <chordcreator chordrange="1" chord="0" chord-enabled="0"/>
          <arpeggiator arpskip="0" arpmiss="0" arp-enabled="0" arpgate="100" arpdir="0" arpcycle="0" arprange="1" arptime_numerator="4" arptime_denominator="4" arptime_syncmode="0" arptime="200" arp="0" arpmode="0"/>
          <midiport outputcontroller="0" inputchannel="0" outputchannel="1" fixedoutputvelocity="-1" readable="0" inputcontroller="0" basevelocity="63" fixedoutputnote="-1" fixedinputvelocity="-1" outputprogram="1" writable="0"/>
          <fxchain enabled="0" numofeffects="0"/>
        </instrumenttrack>
        <pattern type="1" pos="28224" muted="0" name="reverb clap.wav" steps="16">
          <note pan="0" pos="48" key="57" len="528" vol="100"/>
        </pattern>
        <pattern type="0" pos="46464" muted="0" name="reverb clap.wav" steps="16"/>
      </track>
      <track type="0" muted="0" name="bass fender jazz (1,379kb)" solo="0">
        <instrumenttrack pan="0" pitch="0" basenote="57" usemasterpitch="1" vol="30.6" fxch="0" pitchrange="2">
          <instrument name="sf2player">
            <sf2player chorusLevel="2" reverbRoomSize="0.2" reverbLevel="0.9" chorusDepth="8" reverbDamping="0" patch="0" chorusOn="0" chorusSpeed="0.3" gain="3.16" chorusNum="3" bank="0" reverbWidth="0.5" reverbOn="0" src="/home/huggypie/samples/soundfonts/bass fender jazz (1,379kb).sf2"/>
          </instrument>
          <eldata fres="0.5" fcut="14000" fwet="0" ftype="0">
            <elvol lspd_numerator="4" userwavefile="" lshp="0" x100="0" amt="0" lspd_syncmode="0" ctlenvamt="0" dec="0.5" hold="0.5" lspd_denominator="4" sustain="0.5" lamt="0" lspd="0.1" pdel="0" att="0" lpdel="0" latt="0" rel="0.1"/>
            <elcut lspd_numerator="4" userwavefile="" lshp="0" x100="0" amt="0" lspd_syncmode="0" ctlenvamt="0" dec="0.5" hold="0.5" lspd_denominator="4" sustain="0.5" lamt="0" lspd="0.1" pdel="0" att="0" lpdel="0" latt="0" rel="0.1"/>
            <elres lspd_numerator="4" userwavefile="" lshp="0" x100="0" amt="0" lspd_syncmode="0" ctlenvamt="0" dec="0.5" hold="0.5" lspd_denominator="4" sustain="0.5" lamt="0" lspd="0.1" pdel="0" att="0" lpdel="0" latt="0" rel="0.1"/>
          </eldata>
          <chordcreator chordrange="1" chord="0" chord-enabled="0"/>
          <arpeggiator arpskip="0" arpmiss="0" arp-enabled="0" arpgate="100" arpdir="0" arpcycle="0" arprange="1" arptime_numerator="4" arptime_denominator="4" arptime_syncmode="0" arptime="200" arp="0" arpmode="0"/>
          <midiport outputcontroller="0" inputchannel="0" outputchannel="1" fixedoutputvelocity="-1" readable="0" inputcontroller="0" basevelocity="63" fixedoutputnote="-1" fixedinputvelocity="-1" outputprogram="1" writable="0"/>
          <fxchain enabled="0" numofeffects="0"/>
        </instrumenttrack>
        <pattern type="1" pos="22656" muted="0" name="bass fender jazz (1,379kb)" steps="16">
          <note pan="0" pos="0" key="25" len="768" vol="195"/>
          <note pan="0" pos="768" key="26" len="384" vol="195"/>
          <note pan="0" pos="1152" key="25" len="288" vol="195"/>
          <note pan="0" pos="1440" key="31" len="12" vol="195"/>
          <note pan="0" pos="1448" key="32" len="84" vol="195"/>
          <note pan="0" pos="1536" key="30" len="120" vol="195"/>
          <note pan="0" pos="1656" key="30" len="24" vol="195"/>
          <note pan="0" pos="1680" key="25" len="24" vol="195"/>
          <note pan="0" pos="1704" key="30" len="24" vol="195"/>
          <note pan="0" pos="1728" key="32" len="48" vol="195"/>
          <note pan="0" pos="1776" key="30" len="24" vol="195"/>
          <note pan="0" pos="1800" key="25" len="72" vol="195"/>
          <note pan="0" pos="1872" key="20" len="48" vol="195"/>
          <note pan="0" pos="1920" key="16" len="336" vol="195"/>
          <note pan="0" pos="2256" key="18" len="24" vol="195"/>
          <note pan="0" pos="2280" key="20" len="24" vol="195"/>
          <note pan="0" pos="2304" key="21" len="192" vol="195"/>
          <note pan="0" pos="2496" key="23" len="192" vol="195"/>
          <note pan="0" pos="2688" key="13" len="192" vol="195"/>
          <note pan="0" pos="2880" key="15" len="12" vol="195"/>
          <note pan="0" pos="2888" key="16" len="60" vol="195"/>
          <note pan="0" pos="2952" key="15" len="72" vol="195"/>
          <note pan="0" pos="3024" key="13" len="48" vol="195"/>
          <note pan="0" pos="3072" key="11" len="240" vol="195"/>
          <note pan="0" pos="3312" key="18" len="48" vol="195"/>
          <note pan="0" pos="3360" key="23" len="48" vol="195"/>
          <note pan="0" pos="3408" key="25" len="48" vol="195"/>
          <note pan="0" pos="3456" key="18" len="288" vol="195"/>
          <note pan="0" pos="3744" key="19" len="12" vol="195"/>
          <note pan="0" pos="3752" key="20" len="84" vol="195"/>
          <note pan="0" pos="3840" key="23" len="120" vol="195"/>
          <note pan="0" pos="3960" key="18" len="24" vol="195"/>
          <note pan="0" pos="3984" key="21" len="24" vol="195"/>
          <note pan="0" pos="4008" key="27" len="24" vol="195"/>
          <note pan="0" pos="4032" key="27" len="12" vol="195"/>
          <note pan="0" pos="4040" key="28" len="36" vol="195"/>
          <note pan="0" pos="4080" key="27" len="24" vol="195"/>
          <note pan="0" pos="4104" key="25" len="72" vol="195"/>
          <note pan="0" pos="4176" key="25" len="24" vol="195"/>
          <note pan="0" pos="4200" key="23" len="24" vol="195"/>
          <note pan="0" pos="4224" key="25" len="96" vol="195"/>
          <note pan="0" pos="4320" key="23" len="96" vol="195"/>
          <note pan="0" pos="4416" key="22" len="144" vol="195"/>
          <note pan="0" pos="4560" key="20" len="48" vol="195"/>
          <note pan="0" pos="4608" key="18" len="144" vol="195"/>
          <note pan="0" pos="4752" key="25" len="48" vol="195"/>
          <note pan="0" pos="4800" key="18" len="192" vol="195"/>
          <note pan="0" pos="4992" key="20" len="384" vol="195"/>
          <note pan="0" pos="5376" key="21" len="384" vol="195"/>
          <note pan="0" pos="5760" key="23" len="384" vol="195"/>
        </pattern>
        <pattern type="1" pos="384" muted="0" name="bass fender jazz (1,379kb)" steps="16">
          <note pan="0" pos="0" key="13" len="384" vol="191"/>
          <note pan="0" pos="384" key="20" len="384" vol="193"/>
          <note pan="0" pos="768" key="15" len="384" vol="193"/>
          <note pan="0" pos="1152" key="14" len="336" vol="193"/>
          <note pan="0" pos="1488" key="14" len="12" vol="193"/>
          <note pan="0" pos="1500" key="14" len="12" vol="193"/>
          <note pan="0" pos="1512" key="14" len="12" vol="193"/>
          <note pan="0" pos="1524" key="14" len="12" vol="193"/>
        </pattern>
        <pattern type="1" pos="1920" muted="0" name="bass fender jazz (1,379kb)" steps="16">
          <note pan="0" pos="0" key="13" len="36" vol="195"/>
          <note pan="0" pos="0" key="1" len="24" vol="78"/>
          <note pan="0" pos="72" key="13" len="36" vol="195"/>
          <note pan="0" pos="144" key="13" len="36" vol="195"/>
          <note pan="0" pos="216" key="13" len="36" vol="195"/>
          <note pan="0" pos="288" key="13" len="24" vol="195"/>
          <note pan="0" pos="300" key="0" len="24" vol="78"/>
          <note pan="0" pos="312" key="13" len="48" vol="195"/>
          <note pan="0" pos="336" key="1" len="24" vol="78"/>
          <note pan="0" pos="360" key="13" len="24" vol="195"/>
          <note pan="0" pos="384" key="20" len="36" vol="195"/>
          <note pan="0" pos="456" key="20" len="36" vol="195"/>
          <note pan="0" pos="528" key="20" len="36" vol="195"/>
          <note pan="0" pos="600" key="20" len="36" vol="195"/>
          <note pan="0" pos="672" key="20" len="24" vol="195"/>
          <note pan="0" pos="684" key="0" len="24" vol="78"/>
          <note pan="0" pos="696" key="20" len="48" vol="195"/>
          <note pan="0" pos="720" key="1" len="24" vol="78"/>
          <note pan="0" pos="744" key="20" len="24" vol="195"/>
          <note pan="0" pos="768" key="15" len="36" vol="195"/>
          <note pan="0" pos="840" key="15" len="36" vol="195"/>
          <note pan="0" pos="912" key="15" len="36" vol="195"/>
          <note pan="0" pos="984" key="15" len="36" vol="195"/>
          <note pan="0" pos="1056" key="15" len="24" vol="195"/>
          <note pan="0" pos="1068" key="0" len="24" vol="78"/>
          <note pan="0" pos="1080" key="15" len="48" vol="195"/>
          <note pan="0" pos="1116" key="1" len="24" vol="78"/>
          <note pan="0" pos="1128" key="15" len="24" vol="195"/>
          <note pan="0" pos="1152" key="14" len="36" vol="195"/>
          <note pan="0" pos="1224" key="14" len="36" vol="195"/>
          <note pan="0" pos="1296" key="14" len="36" vol="195"/>
        </pattern>
        <pattern type="1" pos="3456" muted="0" name="bass fender jazz (1,379kb)" steps="16">
          <note pan="0" pos="0" key="13" len="192" vol="197"/>
          <note pan="0" pos="0" key="0" len="48" vol="78"/>
          <note pan="0" pos="192" key="20" len="192" vol="197"/>
          <note pan="0" pos="384" key="21" len="192" vol="197"/>
          <note pan="0" pos="576" key="23" len="192" vol="197"/>
          <note pan="0" pos="756" key="1" len="12" vol="197"/>
          <note pan="0" pos="768" key="18" len="12" vol="197"/>
          <note pan="0" pos="780" key="18" len="12" vol="197"/>
          <note pan="0" pos="792" key="18" len="12" vol="197"/>
          <note pan="0" pos="804" key="18" len="12" vol="197"/>
          <note pan="0" pos="816" key="18" len="12" vol="197"/>
          <note pan="0" pos="828" key="18" len="12" vol="197"/>
          <note pan="0" pos="840" key="18" len="12" vol="197"/>
          <note pan="0" pos="852" key="18" len="12" vol="197"/>
          <note pan="0" pos="864" key="18" len="12" vol="197"/>
          <note pan="0" pos="876" key="18" len="12" vol="197"/>
          <note pan="0" pos="888" key="18" len="12" vol="197"/>
          <note pan="0" pos="900" key="18" len="12" vol="197"/>
          <note pan="0" pos="912" key="18" len="12" vol="197"/>
          <note pan="0" pos="924" key="18" len="12" vol="197"/>
          <note pan="0" pos="936" key="18" len="12" vol="197"/>
          <note pan="0" pos="948" key="18" len="12" vol="197"/>
          <note pan="0" pos="960" key="20" len="12" vol="197"/>
          <note pan="0" pos="972" key="20" len="12" vol="197"/>
          <note pan="0" pos="984" key="20" len="12" vol="197"/>
          <note pan="0" pos="996" key="20" len="12" vol="197"/>
          <note pan="0" pos="1008" key="20" len="12" vol="197"/>
          <note pan="0" pos="1020" key="20" len="12" vol="197"/>
          <note pan="0" pos="1032" key="20" len="12" vol="197"/>
          <note pan="0" pos="1044" key="20" len="12" vol="197"/>
          <note pan="0" pos="1056" key="20" len="12" vol="197"/>
          <note pan="0" pos="1068" key="20" len="12" vol="197"/>
          <note pan="0" pos="1080" key="20" len="12" vol="197"/>
          <note pan="0" pos="1092" key="20" len="12" vol="197"/>
          <note pan="0" pos="1104" key="20" len="12" vol="197"/>
          <note pan="0" pos="1116" key="20" len="12" vol="197"/>
          <note pan="0" pos="1128" key="20" len="12" vol="197"/>
          <note pan="0" pos="1140" key="20" len="12" vol="197"/>
          <note pan="0" pos="1152" key="21" len="12" vol="197"/>
          <note pan="0" pos="1164" key="21" len="12" vol="197"/>
          <note pan="0" pos="1176" key="21" len="12" vol="197"/>
          <note pan="0" pos="1188" key="21" len="12" vol="197"/>
          <note pan="0" pos="1200" key="21" len="12" vol="197"/>
          <note pan="0" pos="1212" key="21" len="12" vol="197"/>
          <note pan="0" pos="1224" key="21" len="12" vol="197"/>
          <note pan="0" pos="1236" key="21" len="12" vol="197"/>
          <note pan="0" pos="1248" key="21" len="12" vol="197"/>
          <note pan="0" pos="1260" key="21" len="12" vol="197"/>
          <note pan="0" pos="1272" key="21" len="12" vol="197"/>
          <note pan="0" pos="1284" key="21" len="12" vol="197"/>
          <note pan="0" pos="1296" key="21" len="12" vol="197"/>
          <note pan="0" pos="1308" key="21" len="12" vol="197"/>
          <note pan="0" pos="1320" key="21" len="12" vol="197"/>
          <note pan="0" pos="1332" key="21" len="12" vol="197"/>
          <note pan="0" pos="1344" key="23" len="48" vol="197"/>
          <note pan="0" pos="1344" key="0" len="12" vol="197"/>
          <note pan="0" pos="1392" key="23" len="48" vol="197"/>
          <note pan="0" pos="1440" key="20" len="48" vol="197"/>
          <note pan="0" pos="1488" key="23" len="48" vol="197"/>
        </pattern>
        <pattern type="1" pos="4992" muted="0" name="bass fender jazz (1,379kb)" steps="16">
          <note pan="0" pos="0" key="25" len="24" vol="197"/>
          <note pan="0" pos="24" key="23" len="24" vol="197"/>
          <note pan="0" pos="48" key="25" len="24" vol="197"/>
          <note pan="0" pos="72" key="32" len="24" vol="197"/>
          <note pan="0" pos="96" key="25" len="12" vol="197"/>
          <note pan="0" pos="108" key="25" len="12" vol="197"/>
          <note pan="0" pos="120" key="25" len="12" vol="197"/>
          <note pan="0" pos="132" key="25" len="12" vol="197"/>
          <note pan="0" pos="144" key="25" len="12" vol="197"/>
          <note pan="0" pos="156" key="25" len="12" vol="197"/>
          <note pan="0" pos="168" key="25" len="12" vol="197"/>
          <note pan="0" pos="180" key="25" len="12" vol="197"/>
        </pattern>
        <pattern type="1" pos="5184" muted="0" name="bass fender jazz (1,379kb)" steps="16">
          <note pan="0" pos="0" key="18" len="24" vol="197"/>
          <note pan="0" pos="24" key="16" len="24" vol="197"/>
          <note pan="0" pos="48" key="18" len="24" vol="197"/>
          <note pan="0" pos="72" key="25" len="24" vol="197"/>
          <note pan="0" pos="96" key="18" len="12" vol="197"/>
          <note pan="0" pos="108" key="18" len="12" vol="197"/>
          <note pan="0" pos="120" key="18" len="12" vol="197"/>
          <note pan="0" pos="132" key="18" len="12" vol="197"/>
          <note pan="0" pos="144" key="18" len="12" vol="197"/>
          <note pan="0" pos="156" key="18" len="12" vol="197"/>
          <note pan="0" pos="168" key="18" len="12" vol="197"/>
          <note pan="0" pos="180" key="18" len="12" vol="197"/>
        </pattern>
        <pattern type="1" pos="5376" muted="0" name="bass fender jazz (1,379kb)" steps="16">
          <note pan="0" pos="0" key="20" len="24" vol="195"/>
          <note pan="0" pos="24" key="23" len="24" vol="195"/>
          <note pan="0" pos="48" key="20" len="24" vol="195"/>
          <note pan="0" pos="72" key="27" len="48" vol="195"/>
          <note pan="0" pos="120" key="20" len="24" vol="195"/>
          <note pan="0" pos="144" key="23" len="24" vol="195"/>
          <note pan="0" pos="168" key="27" len="24" vol="195"/>
          <note pan="0" pos="192" key="21" len="12" vol="195"/>
          <note pan="0" pos="204" key="21" len="12" vol="195"/>
          <note pan="0" pos="216" key="21" len="12" vol="195"/>
          <note pan="0" pos="228" key="21" len="12" vol="195"/>
          <note pan="0" pos="240" key="21" len="12" vol="195"/>
          <note pan="0" pos="252" key="21" len="12" vol="195"/>
          <note pan="0" pos="264" key="25" len="12" vol="195"/>
          <note pan="0" pos="276" key="25" len="12" vol="195"/>
          <note pan="0" pos="288" key="23" len="12" vol="195"/>
          <note pan="0" pos="300" key="23" len="12" vol="195"/>
          <note pan="0" pos="312" key="23" len="12" vol="195"/>
          <note pan="0" pos="324" key="23" len="12" vol="195"/>
          <note pan="0" pos="336" key="27" len="12" vol="195"/>
          <note pan="0" pos="348" key="27" len="12" vol="195"/>
          <note pan="0" pos="360" key="23" len="12" vol="195"/>
          <note pan="0" pos="372" key="23" len="12" vol="195"/>
        </pattern>
        <pattern type="1" pos="5760" muted="0" name="bass fender jazz (1,379kb)" steps="16">
          <note pan="0" pos="0" key="25" len="24" vol="197"/>
          <note pan="0" pos="24" key="23" len="24" vol="197"/>
          <note pan="0" pos="48" key="25" len="24" vol="197"/>
          <note pan="0" pos="72" key="32" len="24" vol="197"/>
          <note pan="0" pos="96" key="25" len="12" vol="197"/>
          <note pan="0" pos="108" key="25" len="12" vol="197"/>
          <note pan="0" pos="120" key="25" len="12" vol="197"/>
          <note pan="0" pos="132" key="25" len="12" vol="197"/>
          <note pan="0" pos="144" key="25" len="12" vol="197"/>
          <note pan="0" pos="156" key="25" len="12" vol="197"/>
          <note pan="0" pos="168" key="25" len="12" vol="197"/>
          <note pan="0" pos="180" key="25" len="12" vol="197"/>
        </pattern>
        <pattern type="1" pos="5952" muted="0" name="bass fender jazz (1,379kb)" steps="16">
          <note pan="0" pos="0" key="18" len="24" vol="197"/>
          <note pan="0" pos="24" key="16" len="24" vol="197"/>
          <note pan="0" pos="48" key="18" len="24" vol="197"/>
          <note pan="0" pos="72" key="25" len="24" vol="197"/>
          <note pan="0" pos="96" key="18" len="12" vol="197"/>
          <note pan="0" pos="108" key="18" len="12" vol="197"/>
          <note pan="0" pos="120" key="18" len="12" vol="197"/>
          <note pan="0" pos="132" key="18" len="12" vol="197"/>
          <note pan="0" pos="144" key="18" len="12" vol="197"/>
          <note pan="0" pos="156" key="18" len="12" vol="197"/>
          <note pan="0" pos="168" key="18" len="12" vol="197"/>
          <note pan="0" pos="180" key="18" len="12" vol="197"/>
        </pattern>
        <pattern type="1" pos="6144" muted="0" name="bass fender jazz (1,379kb)" steps="16">
          <note pan="0" pos="0" key="20" len="24" vol="195"/>
          <note pan="0" pos="24" key="23" len="24" vol="195"/>
          <note pan="0" pos="48" key="20" len="24" vol="195"/>
          <note pan="0" pos="72" key="27" len="48" vol="195"/>
          <note pan="0" pos="120" key="20" len="24" vol="195"/>
          <note pan="0" pos="144" key="23" len="24" vol="195"/>
          <note pan="0" pos="168" key="27" len="24" vol="195"/>
          <note pan="0" pos="192" key="21" len="12" vol="195"/>
          <note pan="0" pos="204" key="21" len="12" vol="195"/>
          <note pan="0" pos="216" key="21" len="12" vol="195"/>
          <note pan="0" pos="228" key="21" len="12" vol="195"/>
          <note pan="0" pos="240" key="21" len="12" vol="195"/>
          <note pan="0" pos="252" key="21" len="12" vol="195"/>
          <note pan="0" pos="264" key="25" len="12" vol="195"/>
          <note pan="0" pos="276" key="25" len="12" vol="195"/>
          <note pan="0" pos="288" key="23" len="12" vol="195"/>
          <note pan="0" pos="300" key="23" len="12" vol="195"/>
          <note pan="0" pos="312" key="23" len="12" vol="195"/>
          <note pan="0" pos="324" key="23" len="12" vol="195"/>
          <note pan="0" pos="336" key="27" len="12" vol="195"/>
          <note pan="0" pos="348" key="27" len="12" vol="195"/>
          <note pan="0" pos="360" key="23" len="12" vol="195"/>
          <note pan="0" pos="372" key="23" len="12" vol="195"/>
        </pattern>
        <pattern type="1" pos="6528" muted="0" name="bass fender jazz (1,379kb)" steps="16">
          <note pan="0" pos="0" key="11" len="48" vol="197"/>
          <note pan="0" pos="48" key="11" len="12" vol="197"/>
          <note pan="0" pos="60" key="11" len="12" vol="197"/>
          <note pan="0" pos="72" key="11" len="24" vol="197"/>
          <note pan="0" pos="96" key="11" len="12" vol="197"/>
          <note pan="0" pos="108" key="11" len="12" vol="197"/>
          <note pan="0" pos="120" key="11" len="24" vol="197"/>
          <note pan="0" pos="144" key="11" len="12" vol="197"/>
          <note pan="0" pos="156" key="11" len="12" vol="197"/>
          <note pan="0" pos="168" key="11" len="24" vol="197"/>
          <note pan="0" pos="192" key="11" len="48" vol="197"/>
          <note pan="0" pos="240" key="11" len="12" vol="197"/>
          <note pan="0" pos="252" key="11" len="12" vol="197"/>
          <note pan="0" pos="264" key="11" len="24" vol="197"/>
          <note pan="0" pos="288" key="11" len="12" vol="197"/>
          <note pan="0" pos="300" key="11" len="12" vol="197"/>
          <note pan="0" pos="312" key="11" len="24" vol="197"/>
          <note pan="0" pos="336" key="11" len="12" vol="197"/>
          <note pan="0" pos="348" key="11" len="12" vol="197"/>
          <note pan="0" pos="360" key="11" len="24" vol="197"/>
          <note pan="0" pos="384" key="21" len="48" vol="197"/>
          <note pan="0" pos="432" key="21" len="12" vol="197"/>
          <note pan="0" pos="444" key="21" len="12" vol="197"/>
          <note pan="0" pos="456" key="21" len="24" vol="197"/>
          <note pan="0" pos="480" key="21" len="12" vol="197"/>
          <note pan="0" pos="492" key="21" len="12" vol="197"/>
          <note pan="0" pos="504" key="21" len="24" vol="197"/>
          <note pan="0" pos="528" key="21" len="12" vol="197"/>
          <note pan="0" pos="540" key="21" len="12" vol="197"/>
          <note pan="0" pos="552" key="21" len="24" vol="197"/>
          <note pan="0" pos="576" key="20" len="48" vol="197"/>
          <note pan="0" pos="624" key="20" len="12" vol="197"/>
          <note pan="0" pos="636" key="20" len="12" vol="197"/>
          <note pan="0" pos="648" key="20" len="24" vol="197"/>
          <note pan="0" pos="672" key="20" len="12" vol="197"/>
          <note pan="0" pos="684" key="20" len="12" vol="197"/>
          <note pan="0" pos="696" key="20" len="12" vol="197"/>
          <note pan="0" pos="708" key="20" len="12" vol="197"/>
          <note pan="0" pos="720" key="20" len="12" vol="197"/>
          <note pan="0" pos="732" key="20" len="12" vol="197"/>
          <note pan="0" pos="744" key="20" len="24" vol="197"/>
        </pattern>
        <pattern type="1" pos="8064" muted="0" name="bass fender jazz (1,379kb)" steps="16">
          <note pan="0" pos="0" key="13" len="48" vol="195"/>
          <note pan="0" pos="48" key="13" len="12" vol="195"/>
          <note pan="0" pos="60" key="13" len="12" vol="195"/>
          <note pan="0" pos="72" key="13" len="12" vol="195"/>
          <note pan="0" pos="84" key="13" len="12" vol="195"/>
          <note pan="0" pos="96" key="13" len="12" vol="195"/>
          <note pan="0" pos="108" key="13" len="12" vol="195"/>
          <note pan="0" pos="120" key="13" len="12" vol="195"/>
          <note pan="0" pos="132" key="13" len="12" vol="195"/>
          <note pan="0" pos="144" key="13" len="12" vol="195"/>
          <note pan="0" pos="156" key="13" len="12" vol="195"/>
          <note pan="0" pos="168" key="13" len="12" vol="195"/>
          <note pan="0" pos="180" key="13" len="12" vol="195"/>
          <note pan="0" pos="192" key="20" len="48" vol="195"/>
          <note pan="0" pos="240" key="20" len="12" vol="195"/>
          <note pan="0" pos="252" key="20" len="12" vol="195"/>
          <note pan="0" pos="264" key="20" len="12" vol="195"/>
          <note pan="0" pos="276" key="20" len="12" vol="195"/>
          <note pan="0" pos="288" key="20" len="12" vol="195"/>
          <note pan="0" pos="300" key="20" len="12" vol="195"/>
          <note pan="0" pos="312" key="20" len="12" vol="195"/>
          <note pan="0" pos="324" key="20" len="12" vol="195"/>
          <note pan="0" pos="336" key="20" len="12" vol="195"/>
          <note pan="0" pos="348" key="20" len="12" vol="195"/>
          <note pan="0" pos="360" key="20" len="12" vol="195"/>
          <note pan="0" pos="372" key="20" len="12" vol="195"/>
          <note pan="0" pos="384" key="21" len="48" vol="195"/>
          <note pan="0" pos="432" key="21" len="12" vol="195"/>
          <note pan="0" pos="444" key="21" len="12" vol="195"/>
          <note pan="0" pos="456" key="21" len="12" vol="195"/>
          <note pan="0" pos="468" key="21" len="12" vol="195"/>
          <note pan="0" pos="480" key="21" len="12" vol="195"/>
          <note pan="0" pos="492" key="21" len="12" vol="195"/>
          <note pan="0" pos="504" key="21" len="12" vol="195"/>
          <note pan="0" pos="516" key="21" len="12" vol="195"/>
          <note pan="0" pos="528" key="21" len="12" vol="195"/>
          <note pan="0" pos="540" key="21" len="12" vol="195"/>
          <note pan="0" pos="552" key="21" len="12" vol="195"/>
          <note pan="0" pos="564" key="21" len="12" vol="195"/>
          <note pan="0" pos="576" key="23" len="48" vol="195"/>
          <note pan="0" pos="624" key="23" len="12" vol="195"/>
          <note pan="0" pos="636" key="23" len="12" vol="195"/>
          <note pan="0" pos="648" key="23" len="12" vol="195"/>
          <note pan="0" pos="660" key="23" len="12" vol="195"/>
          <note pan="0" pos="672" key="23" len="12" vol="195"/>
          <note pan="0" pos="684" key="23" len="12" vol="195"/>
          <note pan="0" pos="696" key="23" len="12" vol="195"/>
          <note pan="0" pos="708" key="23" len="12" vol="195"/>
          <note pan="0" pos="720" key="23" len="12" vol="195"/>
          <note pan="0" pos="732" key="23" len="12" vol="195"/>
          <note pan="0" pos="744" key="23" len="12" vol="195"/>
          <note pan="0" pos="756" key="23" len="12" vol="195"/>
          <note pan="0" pos="768" key="18" len="48" vol="195"/>
          <note pan="0" pos="816" key="18" len="12" vol="195"/>
          <note pan="0" pos="828" key="18" len="12" vol="195"/>
          <note pan="0" pos="840" key="18" len="12" vol="195"/>
          <note pan="0" pos="852" key="18" len="12" vol="195"/>
          <note pan="0" pos="864" key="18" len="12" vol="195"/>
          <note pan="0" pos="876" key="18" len="12" vol="195"/>
          <note pan="0" pos="888" key="18" len="12" vol="195"/>
          <note pan="0" pos="900" key="18" len="12" vol="195"/>
          <note pan="0" pos="912" key="18" len="12" vol="195"/>
          <note pan="0" pos="924" key="18" len="12" vol="195"/>
          <note pan="0" pos="936" key="18" len="12" vol="195"/>
          <note pan="0" pos="948" key="18" len="12" vol="195"/>
          <note pan="0" pos="960" key="20" len="48" vol="195"/>
          <note pan="0" pos="1008" key="20" len="12" vol="195"/>
          <note pan="0" pos="1020" key="20" len="12" vol="195"/>
          <note pan="0" pos="1032" key="20" len="12" vol="195"/>
          <note pan="0" pos="1044" key="20" len="12" vol="195"/>
          <note pan="0" pos="1056" key="20" len="12" vol="195"/>
          <note pan="0" pos="1068" key="20" len="12" vol="195"/>
          <note pan="0" pos="1080" key="20" len="12" vol="195"/>
          <note pan="0" pos="1092" key="20" len="12" vol="195"/>
          <note pan="0" pos="1104" key="20" len="12" vol="195"/>
          <note pan="0" pos="1116" key="20" len="12" vol="195"/>
          <note pan="0" pos="1128" key="20" len="12" vol="195"/>
          <note pan="0" pos="1140" key="20" len="12" vol="195"/>
          <note pan="0" pos="1152" key="21" len="48" vol="195"/>
          <note pan="0" pos="1200" key="21" len="12" vol="195"/>
          <note pan="0" pos="1212" key="21" len="12" vol="195"/>
          <note pan="0" pos="1224" key="21" len="12" vol="195"/>
          <note pan="0" pos="1236" key="21" len="12" vol="195"/>
          <note pan="0" pos="1248" key="21" len="12" vol="195"/>
          <note pan="0" pos="1260" key="21" len="12" vol="195"/>
          <note pan="0" pos="1272" key="21" len="12" vol="195"/>
          <note pan="0" pos="1284" key="21" len="12" vol="195"/>
          <note pan="0" pos="1296" key="21" len="12" vol="195"/>
          <note pan="0" pos="1308" key="21" len="12" vol="195"/>
          <note pan="0" pos="1320" key="21" len="12" vol="195"/>
          <note pan="0" pos="1332" key="21" len="12" vol="195"/>
          <note pan="0" pos="1344" key="23" len="48" vol="195"/>
          <note pan="0" pos="1392" key="23" len="12" vol="195"/>
          <note pan="0" pos="1404" key="23" len="12" vol="195"/>
          <note pan="0" pos="1416" key="23" len="12" vol="195"/>
          <note pan="0" pos="1428" key="23" len="12" vol="195"/>
          <note pan="0" pos="1440" key="24" len="48" vol="195"/>
          <note pan="0" pos="1488" key="24" len="12" vol="195"/>
          <note pan="0" pos="1500" key="24" len="12" vol="195"/>
          <note pan="0" pos="1512" key="24" len="12" vol="195"/>
          <note pan="0" pos="1524" key="24" len="12" vol="195"/>
          <note pan="0" pos="1536" key="13" len="48" vol="195"/>
          <note pan="0" pos="1584" key="13" len="12" vol="195"/>
          <note pan="0" pos="1596" key="13" len="12" vol="195"/>
          <note pan="0" pos="1608" key="13" len="12" vol="195"/>
          <note pan="0" pos="1620" key="13" len="12" vol="195"/>
          <note pan="0" pos="1632" key="13" len="12" vol="195"/>
          <note pan="0" pos="1644" key="13" len="12" vol="195"/>
          <note pan="0" pos="1656" key="13" len="12" vol="195"/>
          <note pan="0" pos="1668" key="13" len="12" vol="195"/>
          <note pan="0" pos="1680" key="13" len="12" vol="195"/>
          <note pan="0" pos="1692" key="13" len="12" vol="195"/>
          <note pan="0" pos="1704" key="13" len="12" vol="195"/>
          <note pan="0" pos="1716" key="13" len="12" vol="195"/>
          <note pan="0" pos="1728" key="23" len="48" vol="195"/>
          <note pan="0" pos="1776" key="23" len="12" vol="195"/>
          <note pan="0" pos="1788" key="23" len="12" vol="195"/>
          <note pan="0" pos="1800" key="23" len="12" vol="195"/>
          <note pan="0" pos="1812" key="23" len="12" vol="195"/>
          <note pan="0" pos="1824" key="23" len="12" vol="195"/>
          <note pan="0" pos="1836" key="23" len="12" vol="195"/>
          <note pan="0" pos="1848" key="23" len="12" vol="195"/>
          <note pan="0" pos="1860" key="23" len="12" vol="195"/>
          <note pan="0" pos="1872" key="23" len="12" vol="195"/>
          <note pan="0" pos="1884" key="23" len="12" vol="195"/>
          <note pan="0" pos="1896" key="23" len="12" vol="195"/>
          <note pan="0" pos="1908" key="23" len="12" vol="195"/>
          <note pan="0" pos="1920" key="22" len="48" vol="195"/>
          <note pan="0" pos="1968" key="22" len="12" vol="195"/>
          <note pan="0" pos="1980" key="22" len="12" vol="195"/>
          <note pan="0" pos="1992" key="22" len="12" vol="195"/>
          <note pan="0" pos="2004" key="22" len="12" vol="195"/>
          <note pan="0" pos="2016" key="22" len="12" vol="195"/>
          <note pan="0" pos="2028" key="22" len="12" vol="195"/>
          <note pan="0" pos="2040" key="22" len="12" vol="195"/>
          <note pan="0" pos="2052" key="22" len="12" vol="195"/>
          <note pan="0" pos="2064" key="22" len="12" vol="195"/>
          <note pan="0" pos="2076" key="22" len="12" vol="195"/>
          <note pan="0" pos="2088" key="22" len="12" vol="195"/>
          <note pan="0" pos="2100" key="22" len="12" vol="195"/>
          <note pan="0" pos="2112" key="18" len="48" vol="195"/>
          <note pan="0" pos="2160" key="18" len="12" vol="195"/>
          <note pan="0" pos="2172" key="18" len="12" vol="195"/>
          <note pan="0" pos="2184" key="18" len="12" vol="195"/>
          <note pan="0" pos="2196" key="18" len="12" vol="195"/>
          <note pan="0" pos="2208" key="16" len="48" vol="195"/>
          <note pan="0" pos="2256" key="16" len="12" vol="195"/>
          <note pan="0" pos="2268" key="16" len="12" vol="195"/>
          <note pan="0" pos="2280" key="16" len="12" vol="195"/>
          <note pan="0" pos="2292" key="16" len="12" vol="195"/>
          <note pan="0" pos="2304" key="14" len="48" vol="195"/>
          <note pan="0" pos="2352" key="14" len="12" vol="195"/>
          <note pan="0" pos="2364" key="14" len="12" vol="195"/>
          <note pan="0" pos="2376" key="14" len="12" vol="195"/>
          <note pan="0" pos="2388" key="14" len="12" vol="195"/>
          <note pan="0" pos="2400" key="14" len="48" vol="195"/>
          <note pan="0" pos="2448" key="14" len="12" vol="195"/>
          <note pan="0" pos="2460" key="14" len="12" vol="195"/>
          <note pan="0" pos="2472" key="14" len="12" vol="195"/>
          <note pan="0" pos="2484" key="14" len="12" vol="195"/>
          <note pan="0" pos="2496" key="21" len="48" vol="195"/>
          <note pan="0" pos="2544" key="21" len="12" vol="195"/>
          <note pan="0" pos="2556" key="21" len="12" vol="195"/>
          <note pan="0" pos="2568" key="21" len="12" vol="195"/>
          <note pan="0" pos="2580" key="21" len="12" vol="195"/>
          <note pan="0" pos="2592" key="21" len="12" vol="195"/>
          <note pan="0" pos="2604" key="21" len="12" vol="195"/>
          <note pan="0" pos="2616" key="21" len="12" vol="195"/>
          <note pan="0" pos="2628" key="21" len="12" vol="195"/>
          <note pan="0" pos="2640" key="21" len="12" vol="195"/>
          <note pan="0" pos="2652" key="21" len="12" vol="195"/>
          <note pan="0" pos="2664" key="21" len="12" vol="195"/>
          <note pan="0" pos="2676" key="21" len="12" vol="195"/>
          <note pan="0" pos="2688" key="23" len="48" vol="195"/>
          <note pan="0" pos="2736" key="23" len="12" vol="195"/>
          <note pan="0" pos="2748" key="23" len="12" vol="195"/>
          <note pan="0" pos="2760" key="23" len="12" vol="195"/>
          <note pan="0" pos="2772" key="23" len="12" vol="195"/>
          <note pan="0" pos="2784" key="23" len="12" vol="195"/>
          <note pan="0" pos="2796" key="23" len="12" vol="195"/>
          <note pan="0" pos="2808" key="23" len="12" vol="195"/>
          <note pan="0" pos="2820" key="23" len="12" vol="195"/>
          <note pan="0" pos="2832" key="23" len="12" vol="195"/>
          <note pan="0" pos="2844" key="23" len="12" vol="195"/>
          <note pan="0" pos="2856" key="23" len="12" vol="195"/>
          <note pan="0" pos="2868" key="23" len="12" vol="195"/>
          <note pan="0" pos="2880" key="23" len="96" vol="195"/>
          <note pan="0" pos="2976" key="27" len="96" vol="195"/>
        </pattern>
        <pattern type="1" pos="11136" muted="0" name="bass fender jazz (1,379kb)" steps="16">
          <note pan="0" pos="0" key="13" len="24" vol="197"/>
          <note pan="0" pos="24" key="13" len="12" vol="197"/>
          <note pan="0" pos="36" key="13" len="12" vol="197"/>
          <note pan="0" pos="48" key="13" len="12" vol="197"/>
          <note pan="0" pos="60" key="13" len="12" vol="197"/>
          <note pan="0" pos="72" key="13" len="24" vol="197"/>
          <note pan="0" pos="96" key="13" len="12" vol="197"/>
          <note pan="0" pos="108" key="13" len="12" vol="197"/>
          <note pan="0" pos="120" key="13" len="12" vol="197"/>
          <note pan="0" pos="132" key="13" len="12" vol="197"/>
          <note pan="0" pos="144" key="13" len="24" vol="197"/>
          <note pan="0" pos="168" key="13" len="12" vol="197"/>
          <note pan="0" pos="180" key="13" len="12" vol="197"/>
          <note pan="0" pos="192" key="13" len="12" vol="197"/>
          <note pan="0" pos="204" key="13" len="12" vol="197"/>
          <note pan="0" pos="216" key="13" len="24" vol="197"/>
          <note pan="0" pos="240" key="13" len="12" vol="197"/>
          <note pan="0" pos="252" key="13" len="12" vol="197"/>
          <note pan="0" pos="264" key="13" len="12" vol="197"/>
          <note pan="0" pos="276" key="13" len="12" vol="197"/>
          <note pan="0" pos="288" key="13" len="24" vol="197"/>
          <note pan="0" pos="312" key="13" len="12" vol="197"/>
          <note pan="0" pos="324" key="13" len="12" vol="197"/>
          <note pan="0" pos="336" key="13" len="24" vol="197"/>
          <note pan="0" pos="360" key="13" len="12" vol="197"/>
          <note pan="0" pos="372" key="13" len="12" vol="197"/>
        </pattern>
        <pattern type="1" pos="11904" muted="0" name="bass fender jazz (1,379kb)" steps="16">
          <note pan="0" pos="0" key="13" len="24" vol="197"/>
          <note pan="0" pos="24" key="13" len="12" vol="197"/>
          <note pan="0" pos="36" key="13" len="12" vol="197"/>
          <note pan="0" pos="48" key="13" len="12" vol="197"/>
          <note pan="0" pos="60" key="13" len="12" vol="197"/>
          <note pan="0" pos="72" key="13" len="24" vol="197"/>
          <note pan="0" pos="96" key="13" len="12" vol="197"/>
          <note pan="0" pos="108" key="13" len="12" vol="197"/>
          <note pan="0" pos="120" key="13" len="12" vol="197"/>
          <note pan="0" pos="132" key="13" len="12" vol="197"/>
          <note pan="0" pos="144" key="13" len="24" vol="197"/>
          <note pan="0" pos="168" key="13" len="12" vol="197"/>
          <note pan="0" pos="180" key="13" len="12" vol="197"/>
          <note pan="0" pos="192" key="13" len="12" vol="197"/>
          <note pan="0" pos="204" key="13" len="12" vol="197"/>
          <note pan="0" pos="216" key="13" len="24" vol="197"/>
          <note pan="0" pos="240" key="13" len="12" vol="197"/>
          <note pan="0" pos="252" key="13" len="12" vol="197"/>
          <note pan="0" pos="264" key="13" len="12" vol="197"/>
          <note pan="0" pos="276" key="13" len="12" vol="197"/>
          <note pan="0" pos="288" key="13" len="24" vol="197"/>
          <note pan="0" pos="312" key="13" len="12" vol="197"/>
          <note pan="0" pos="324" key="13" len="12" vol="197"/>
          <note pan="0" pos="336" key="13" len="24" vol="197"/>
          <note pan="0" pos="360" key="13" len="12" vol="197"/>
          <note pan="0" pos="372" key="13" len="12" vol="197"/>
        </pattern>
        <pattern type="1" pos="11520" muted="0" name="bass fender jazz (1,379kb)" steps="16">
          <note pan="0" pos="0" key="14" len="24" vol="197"/>
          <note pan="0" pos="24" key="14" len="12" vol="197"/>
          <note pan="0" pos="36" key="14" len="12" vol="197"/>
          <note pan="0" pos="48" key="14" len="12" vol="197"/>
          <note pan="0" pos="60" key="14" len="12" vol="197"/>
          <note pan="0" pos="72" key="14" len="24" vol="197"/>
          <note pan="0" pos="96" key="14" len="12" vol="197"/>
          <note pan="0" pos="108" key="14" len="12" vol="197"/>
          <note pan="0" pos="120" key="14" len="12" vol="197"/>
          <note pan="0" pos="132" key="14" len="12" vol="197"/>
          <note pan="0" pos="144" key="14" len="24" vol="197"/>
          <note pan="0" pos="168" key="14" len="12" vol="197"/>
          <note pan="0" pos="180" key="14" len="12" vol="197"/>
          <note pan="0" pos="192" key="14" len="12" vol="197"/>
          <note pan="0" pos="204" key="14" len="12" vol="197"/>
          <note pan="0" pos="216" key="14" len="24" vol="197"/>
          <note pan="0" pos="240" key="14" len="12" vol="197"/>
          <note pan="0" pos="252" key="14" len="12" vol="197"/>
          <note pan="0" pos="264" key="14" len="12" vol="197"/>
          <note pan="0" pos="276" key="14" len="12" vol="197"/>
          <note pan="0" pos="288" key="14" len="24" vol="197"/>
          <note pan="0" pos="312" key="14" len="12" vol="197"/>
          <note pan="0" pos="324" key="14" len="12" vol="197"/>
          <note pan="0" pos="336" key="14" len="24" vol="197"/>
          <note pan="0" pos="360" key="14" len="12" vol="197"/>
          <note pan="0" pos="372" key="14" len="12" vol="197"/>
        </pattern>
        <pattern type="1" pos="12288" muted="0" name="bass fender jazz (1,379kb)" steps="16">
          <note pan="0" pos="0" key="14" len="24" vol="197"/>
          <note pan="0" pos="24" key="14" len="12" vol="197"/>
          <note pan="0" pos="36" key="14" len="12" vol="197"/>
          <note pan="0" pos="48" key="14" len="12" vol="197"/>
          <note pan="0" pos="60" key="14" len="12" vol="197"/>
          <note pan="0" pos="72" key="14" len="24" vol="197"/>
          <note pan="0" pos="96" key="14" len="12" vol="197"/>
          <note pan="0" pos="108" key="14" len="12" vol="197"/>
          <note pan="0" pos="120" key="14" len="12" vol="197"/>
          <note pan="0" pos="132" key="14" len="12" vol="197"/>
          <note pan="0" pos="144" key="14" len="24" vol="197"/>
          <note pan="0" pos="168" key="14" len="12" vol="197"/>
          <note pan="0" pos="180" key="14" len="12" vol="197"/>
          <note pan="0" pos="192" key="14" len="12" vol="197"/>
          <note pan="0" pos="204" key="14" len="12" vol="197"/>
          <note pan="0" pos="216" key="14" len="24" vol="197"/>
          <note pan="0" pos="240" key="14" len="12" vol="197"/>
          <note pan="0" pos="252" key="14" len="12" vol="197"/>
          <note pan="0" pos="264" key="14" len="12" vol="197"/>
          <note pan="0" pos="276" key="14" len="12" vol="197"/>
          <note pan="0" pos="288" key="14" len="24" vol="197"/>
          <note pan="0" pos="312" key="14" len="12" vol="197"/>
          <note pan="0" pos="324" key="14" len="12" vol="197"/>
          <note pan="0" pos="336" key="14" len="24" vol="197"/>
          <note pan="0" pos="360" key="14" len="12" vol="197"/>
          <note pan="0" pos="372" key="14" len="12" vol="197"/>
        </pattern>
        <pattern type="1" pos="15744" muted="0" name="bass fender jazz (1,379kb)" steps="16">
          <note pan="0" pos="0" key="13" len="48" vol="195"/>
          <note pan="0" pos="48" key="13" len="12" vol="195"/>
          <note pan="0" pos="60" key="13" len="12" vol="195"/>
          <note pan="0" pos="72" key="13" len="12" vol="195"/>
          <note pan="0" pos="84" key="13" len="12" vol="195"/>
          <note pan="0" pos="96" key="13" len="12" vol="195"/>
          <note pan="0" pos="108" key="13" len="12" vol="195"/>
          <note pan="0" pos="120" key="13" len="12" vol="195"/>
          <note pan="0" pos="132" key="13" len="12" vol="195"/>
          <note pan="0" pos="144" key="13" len="12" vol="195"/>
          <note pan="0" pos="156" key="13" len="12" vol="195"/>
          <note pan="0" pos="168" key="13" len="12" vol="195"/>
          <note pan="0" pos="180" key="13" len="12" vol="195"/>
          <note pan="0" pos="192" key="20" len="48" vol="195"/>
          <note pan="0" pos="240" key="20" len="12" vol="195"/>
          <note pan="0" pos="252" key="20" len="12" vol="195"/>
          <note pan="0" pos="264" key="20" len="12" vol="195"/>
          <note pan="0" pos="276" key="20" len="12" vol="195"/>
          <note pan="0" pos="288" key="20" len="12" vol="195"/>
          <note pan="0" pos="300" key="20" len="12" vol="195"/>
          <note pan="0" pos="312" key="20" len="12" vol="195"/>
          <note pan="0" pos="324" key="20" len="12" vol="195"/>
          <note pan="0" pos="336" key="20" len="12" vol="195"/>
          <note pan="0" pos="348" key="20" len="12" vol="195"/>
          <note pan="0" pos="360" key="20" len="12" vol="195"/>
          <note pan="0" pos="372" key="20" len="12" vol="195"/>
          <note pan="0" pos="384" key="21" len="48" vol="195"/>
          <note pan="0" pos="432" key="21" len="12" vol="195"/>
          <note pan="0" pos="444" key="21" len="12" vol="195"/>
          <note pan="0" pos="456" key="21" len="12" vol="195"/>
          <note pan="0" pos="468" key="21" len="12" vol="195"/>
          <note pan="0" pos="480" key="21" len="12" vol="195"/>
          <note pan="0" pos="492" key="21" len="12" vol="195"/>
          <note pan="0" pos="504" key="21" len="12" vol="195"/>
          <note pan="0" pos="516" key="21" len="12" vol="195"/>
          <note pan="0" pos="528" key="21" len="12" vol="195"/>
          <note pan="0" pos="540" key="21" len="12" vol="195"/>
          <note pan="0" pos="552" key="21" len="12" vol="195"/>
          <note pan="0" pos="564" key="21" len="12" vol="195"/>
          <note pan="0" pos="576" key="23" len="48" vol="195"/>
          <note pan="0" pos="624" key="23" len="12" vol="195"/>
          <note pan="0" pos="636" key="23" len="12" vol="195"/>
          <note pan="0" pos="648" key="23" len="12" vol="195"/>
          <note pan="0" pos="660" key="23" len="12" vol="195"/>
          <note pan="0" pos="672" key="23" len="12" vol="195"/>
          <note pan="0" pos="684" key="23" len="12" vol="195"/>
          <note pan="0" pos="696" key="23" len="12" vol="195"/>
          <note pan="0" pos="708" key="23" len="12" vol="195"/>
          <note pan="0" pos="720" key="23" len="12" vol="195"/>
          <note pan="0" pos="732" key="23" len="12" vol="195"/>
          <note pan="0" pos="744" key="23" len="12" vol="195"/>
          <note pan="0" pos="756" key="23" len="12" vol="195"/>
          <note pan="0" pos="768" key="18" len="48" vol="195"/>
          <note pan="0" pos="816" key="18" len="12" vol="195"/>
          <note pan="0" pos="828" key="18" len="12" vol="195"/>
          <note pan="0" pos="840" key="18" len="12" vol="195"/>
          <note pan="0" pos="852" key="18" len="12" vol="195"/>
          <note pan="0" pos="864" key="18" len="12" vol="195"/>
          <note pan="0" pos="876" key="18" len="12" vol="195"/>
          <note pan="0" pos="888" key="18" len="12" vol="195"/>
          <note pan="0" pos="900" key="18" len="12" vol="195"/>
          <note pan="0" pos="912" key="18" len="12" vol="195"/>
          <note pan="0" pos="924" key="18" len="12" vol="195"/>
          <note pan="0" pos="936" key="18" len="12" vol="195"/>
          <note pan="0" pos="948" key="18" len="12" vol="195"/>
          <note pan="0" pos="960" key="20" len="48" vol="195"/>
          <note pan="0" pos="1008" key="20" len="12" vol="195"/>
          <note pan="0" pos="1020" key="20" len="12" vol="195"/>
          <note pan="0" pos="1032" key="20" len="12" vol="195"/>
          <note pan="0" pos="1044" key="20" len="12" vol="195"/>
          <note pan="0" pos="1056" key="20" len="12" vol="195"/>
          <note pan="0" pos="1068" key="20" len="12" vol="195"/>
          <note pan="0" pos="1080" key="20" len="12" vol="195"/>
          <note pan="0" pos="1092" key="20" len="12" vol="195"/>
          <note pan="0" pos="1104" key="20" len="12" vol="195"/>
          <note pan="0" pos="1116" key="20" len="12" vol="195"/>
          <note pan="0" pos="1128" key="20" len="12" vol="195"/>
          <note pan="0" pos="1140" key="20" len="12" vol="195"/>
          <note pan="0" pos="1152" key="21" len="48" vol="195"/>
          <note pan="0" pos="1200" key="21" len="12" vol="195"/>
          <note pan="0" pos="1212" key="21" len="12" vol="195"/>
          <note pan="0" pos="1224" key="21" len="12" vol="195"/>
          <note pan="0" pos="1236" key="21" len="12" vol="195"/>
          <note pan="0" pos="1248" key="21" len="12" vol="195"/>
          <note pan="0" pos="1260" key="21" len="12" vol="195"/>
          <note pan="0" pos="1272" key="21" len="12" vol="195"/>
          <note pan="0" pos="1284" key="21" len="12" vol="195"/>
          <note pan="0" pos="1296" key="21" len="12" vol="195"/>
          <note pan="0" pos="1308" key="21" len="12" vol="195"/>
          <note pan="0" pos="1320" key="21" len="12" vol="195"/>
          <note pan="0" pos="1332" key="21" len="12" vol="195"/>
          <note pan="0" pos="1344" key="23" len="48" vol="195"/>
          <note pan="0" pos="1392" key="23" len="12" vol="195"/>
          <note pan="0" pos="1404" key="23" len="12" vol="195"/>
          <note pan="0" pos="1416" key="23" len="12" vol="195"/>
          <note pan="0" pos="1428" key="23" len="12" vol="195"/>
          <note pan="0" pos="1440" key="24" len="48" vol="195"/>
          <note pan="0" pos="1488" key="24" len="12" vol="195"/>
          <note pan="0" pos="1500" key="24" len="12" vol="195"/>
          <note pan="0" pos="1512" key="24" len="12" vol="195"/>
          <note pan="0" pos="1524" key="24" len="12" vol="195"/>
          <note pan="0" pos="1536" key="13" len="48" vol="195"/>
          <note pan="0" pos="1584" key="13" len="12" vol="195"/>
          <note pan="0" pos="1596" key="13" len="12" vol="195"/>
          <note pan="0" pos="1608" key="13" len="12" vol="195"/>
          <note pan="0" pos="1620" key="13" len="12" vol="195"/>
          <note pan="0" pos="1632" key="13" len="12" vol="195"/>
          <note pan="0" pos="1644" key="13" len="12" vol="195"/>
          <note pan="0" pos="1656" key="13" len="12" vol="195"/>
          <note pan="0" pos="1668" key="13" len="12" vol="195"/>
          <note pan="0" pos="1680" key="13" len="12" vol="195"/>
          <note pan="0" pos="1692" key="13" len="12" vol="195"/>
          <note pan="0" pos="1704" key="13" len="12" vol="195"/>
          <note pan="0" pos="1716" key="13" len="12" vol="195"/>
          <note pan="0" pos="1728" key="23" len="48" vol="195"/>
          <note pan="0" pos="1776" key="23" len="12" vol="195"/>
          <note pan="0" pos="1788" key="23" len="12" vol="195"/>
          <note pan="0" pos="1800" key="23" len="12" vol="195"/>
          <note pan="0" pos="1812" key="23" len="12" vol="195"/>
          <note pan="0" pos="1824" key="23" len="12" vol="195"/>
          <note pan="0" pos="1836" key="23" len="12" vol="195"/>
          <note pan="0" pos="1848" key="23" len="12" vol="195"/>
          <note pan="0" pos="1860" key="23" len="12" vol="195"/>
          <note pan="0" pos="1872" key="23" len="12" vol="195"/>
          <note pan="0" pos="1884" key="23" len="12" vol="195"/>
          <note pan="0" pos="1896" key="23" len="12" vol="195"/>
          <note pan="0" pos="1908" key="23" len="12" vol="195"/>
          <note pan="0" pos="1920" key="22" len="48" vol="195"/>
          <note pan="0" pos="1968" key="22" len="12" vol="195"/>
          <note pan="0" pos="1980" key="22" len="12" vol="195"/>
          <note pan="0" pos="1992" key="22" len="12" vol="195"/>
          <note pan="0" pos="2004" key="22" len="12" vol="195"/>
          <note pan="0" pos="2016" key="22" len="12" vol="195"/>
          <note pan="0" pos="2028" key="22" len="12" vol="195"/>
          <note pan="0" pos="2040" key="22" len="12" vol="195"/>
          <note pan="0" pos="2052" key="22" len="12" vol="195"/>
          <note pan="0" pos="2064" key="22" len="12" vol="195"/>
          <note pan="0" pos="2076" key="22" len="12" vol="195"/>
          <note pan="0" pos="2088" key="22" len="12" vol="195"/>
          <note pan="0" pos="2100" key="22" len="12" vol="195"/>
          <note pan="0" pos="2112" key="18" len="48" vol="195"/>
          <note pan="0" pos="2160" key="18" len="12" vol="195"/>
          <note pan="0" pos="2172" key="18" len="12" vol="195"/>
          <note pan="0" pos="2184" key="18" len="12" vol="195"/>
          <note pan="0" pos="2196" key="18" len="12" vol="195"/>
          <note pan="0" pos="2208" key="16" len="48" vol="195"/>
          <note pan="0" pos="2256" key="16" len="12" vol="195"/>
          <note pan="0" pos="2268" key="16" len="12" vol="195"/>
          <note pan="0" pos="2280" key="16" len="12" vol="195"/>
          <note pan="0" pos="2292" key="16" len="12" vol="195"/>
          <note pan="0" pos="2304" key="14" len="48" vol="195"/>
          <note pan="0" pos="2352" key="14" len="12" vol="195"/>
          <note pan="0" pos="2364" key="14" len="12" vol="195"/>
          <note pan="0" pos="2376" key="14" len="12" vol="195"/>
          <note pan="0" pos="2388" key="14" len="12" vol="195"/>
          <note pan="0" pos="2400" key="14" len="48" vol="195"/>
          <note pan="0" pos="2448" key="14" len="12" vol="195"/>
          <note pan="0" pos="2460" key="14" len="12" vol="195"/>
          <note pan="0" pos="2472" key="14" len="12" vol="195"/>
          <note pan="0" pos="2484" key="14" len="12" vol="195"/>
          <note pan="0" pos="2496" key="21" len="48" vol="195"/>
          <note pan="0" pos="2544" key="21" len="12" vol="195"/>
          <note pan="0" pos="2556" key="21" len="12" vol="195"/>
          <note pan="0" pos="2568" key="21" len="12" vol="195"/>
          <note pan="0" pos="2580" key="21" len="12" vol="195"/>
          <note pan="0" pos="2592" key="21" len="12" vol="195"/>
          <note pan="0" pos="2604" key="21" len="12" vol="195"/>
          <note pan="0" pos="2616" key="21" len="12" vol="195"/>
          <note pan="0" pos="2628" key="21" len="12" vol="195"/>
          <note pan="0" pos="2640" key="21" len="12" vol="195"/>
          <note pan="0" pos="2652" key="21" len="12" vol="195"/>
          <note pan="0" pos="2664" key="21" len="12" vol="195"/>
          <note pan="0" pos="2676" key="21" len="12" vol="195"/>
          <note pan="0" pos="2688" key="23" len="48" vol="195"/>
          <note pan="0" pos="2736" key="23" len="12" vol="195"/>
          <note pan="0" pos="2748" key="23" len="12" vol="195"/>
          <note pan="0" pos="2760" key="23" len="12" vol="195"/>
          <note pan="0" pos="2772" key="23" len="12" vol="195"/>
          <note pan="0" pos="2784" key="23" len="12" vol="195"/>
          <note pan="0" pos="2796" key="23" len="12" vol="195"/>
          <note pan="0" pos="2808" key="23" len="12" vol="195"/>
          <note pan="0" pos="2820" key="23" len="12" vol="195"/>
          <note pan="0" pos="2832" key="23" len="12" vol="195"/>
          <note pan="0" pos="2844" key="23" len="12" vol="195"/>
          <note pan="0" pos="2856" key="23" len="12" vol="195"/>
          <note pan="0" pos="2868" key="23" len="12" vol="195"/>
          <note pan="0" pos="2880" key="11" len="24" vol="195"/>
          <note pan="0" pos="2904" key="11" len="24" vol="195"/>
          <note pan="0" pos="2976" key="11" len="24" vol="195"/>
          <note pan="0" pos="3000" key="11" len="24" vol="195"/>
        </pattern>
        <pattern type="1" pos="3264" muted="0" name="bass fender jazz (1,379kb)" steps="16">
          <note pan="0" pos="0" key="14" len="192" vol="172"/>
        </pattern>
        <pattern type="1" pos="7296" muted="0" name="bass fender jazz (1,379kb)" steps="16">
          <note pan="0" pos="0" key="18" len="24" vol="197"/>
          <note pan="0" pos="24" key="16" len="24" vol="197"/>
          <note pan="0" pos="48" key="18" len="24" vol="197"/>
          <note pan="0" pos="72" key="25" len="24" vol="197"/>
          <note pan="0" pos="96" key="18" len="24" vol="197"/>
          <note pan="0" pos="120" key="28" len="24" vol="197"/>
          <note pan="0" pos="144" key="23" len="24" vol="197"/>
          <note pan="0" pos="168" key="25" len="24" vol="197"/>
          <note pan="0" pos="192" key="18" len="24" vol="197"/>
          <note pan="0" pos="216" key="16" len="24" vol="197"/>
          <note pan="0" pos="240" key="18" len="24" vol="197"/>
          <note pan="0" pos="264" key="25" len="24" vol="197"/>
          <note pan="0" pos="288" key="18" len="24" vol="197"/>
          <note pan="0" pos="312" key="28" len="24" vol="197"/>
          <note pan="0" pos="336" key="30" len="24" vol="197"/>
          <note pan="0" pos="360" key="28" len="24" vol="197"/>
        </pattern>
        <pattern type="1" pos="7680" muted="0" name="bass fender jazz (1,379kb)" steps="16">
          <note pan="0" pos="0" key="15" len="24" vol="197"/>
          <note pan="0" pos="24" key="15" len="12" vol="197"/>
          <note pan="0" pos="36" key="15" len="12" vol="197"/>
          <note pan="0" pos="48" key="15" len="12" vol="197"/>
          <note pan="0" pos="60" key="15" len="12" vol="197"/>
          <note pan="0" pos="72" key="15" len="12" vol="197"/>
          <note pan="0" pos="84" key="15" len="12" vol="197"/>
          <note pan="0" pos="96" key="15" len="12" vol="197"/>
          <note pan="0" pos="108" key="15" len="12" vol="197"/>
          <note pan="0" pos="120" key="15" len="12" vol="197"/>
          <note pan="0" pos="132" key="15" len="12" vol="197"/>
          <note pan="0" pos="144" key="15" len="12" vol="197"/>
          <note pan="0" pos="156" key="15" len="12" vol="197"/>
          <note pan="0" pos="168" key="15" len="12" vol="197"/>
          <note pan="0" pos="180" key="15" len="12" vol="197"/>
          <note pan="0" pos="192" key="21" len="96" vol="197"/>
          <note pan="0" pos="288" key="20" len="96" vol="197"/>
        </pattern>
        <pattern type="1" pos="18816" muted="0" name="bass fender jazz (1,379kb)" steps="16">
          <note pan="0" pos="0" key="13" len="24" vol="197"/>
          <note pan="0" pos="24" key="13" len="12" vol="197"/>
          <note pan="0" pos="36" key="13" len="12" vol="197"/>
          <note pan="0" pos="48" key="13" len="24" vol="197"/>
          <note pan="0" pos="72" key="13" len="24" vol="197"/>
          <note pan="0" pos="96" key="13" len="12" vol="197"/>
          <note pan="0" pos="108" key="13" len="12" vol="197"/>
          <note pan="0" pos="120" key="13" len="24" vol="197"/>
          <note pan="0" pos="144" key="13" len="24" vol="197"/>
          <note pan="0" pos="168" key="13" len="12" vol="197"/>
          <note pan="0" pos="180" key="13" len="12" vol="197"/>
          <note pan="0" pos="192" key="13" len="24" vol="197"/>
          <note pan="0" pos="216" key="13" len="24" vol="197"/>
          <note pan="0" pos="240" key="13" len="12" vol="197"/>
          <note pan="0" pos="252" key="13" len="12" vol="197"/>
          <note pan="0" pos="264" key="13" len="24" vol="197"/>
          <note pan="0" pos="288" key="13" len="24" vol="197"/>
          <note pan="0" pos="312" key="13" len="24" vol="197"/>
          <note pan="0" pos="336" key="13" len="12" vol="197"/>
          <note pan="0" pos="348" key="13" len="12" vol="197"/>
          <note pan="0" pos="360" key="13" len="24" vol="197"/>
          <note pan="0" pos="384" key="20" len="24" vol="197"/>
          <note pan="0" pos="408" key="20" len="12" vol="197"/>
          <note pan="0" pos="420" key="20" len="12" vol="197"/>
          <note pan="0" pos="432" key="20" len="24" vol="197"/>
          <note pan="0" pos="456" key="20" len="24" vol="197"/>
          <note pan="0" pos="480" key="20" len="12" vol="197"/>
          <note pan="0" pos="492" key="20" len="12" vol="197"/>
          <note pan="0" pos="504" key="20" len="24" vol="197"/>
          <note pan="0" pos="528" key="20" len="24" vol="197"/>
          <note pan="0" pos="552" key="20" len="12" vol="197"/>
          <note pan="0" pos="564" key="20" len="12" vol="197"/>
          <note pan="0" pos="576" key="20" len="24" vol="197"/>
          <note pan="0" pos="600" key="20" len="24" vol="197"/>
          <note pan="0" pos="624" key="20" len="12" vol="197"/>
          <note pan="0" pos="636" key="20" len="12" vol="197"/>
          <note pan="0" pos="648" key="20" len="24" vol="197"/>
          <note pan="0" pos="672" key="20" len="24" vol="197"/>
          <note pan="0" pos="696" key="20" len="24" vol="197"/>
          <note pan="0" pos="720" key="20" len="12" vol="197"/>
          <note pan="0" pos="732" key="20" len="12" vol="197"/>
          <note pan="0" pos="744" key="20" len="24" vol="197"/>
          <note pan="0" pos="768" key="15" len="24" vol="197"/>
          <note pan="0" pos="792" key="15" len="12" vol="197"/>
          <note pan="0" pos="804" key="15" len="12" vol="197"/>
          <note pan="0" pos="816" key="15" len="24" vol="197"/>
          <note pan="0" pos="840" key="15" len="24" vol="197"/>
          <note pan="0" pos="864" key="15" len="12" vol="197"/>
          <note pan="0" pos="876" key="15" len="12" vol="197"/>
          <note pan="0" pos="888" key="15" len="24" vol="197"/>
          <note pan="0" pos="912" key="15" len="24" vol="197"/>
          <note pan="0" pos="936" key="15" len="12" vol="197"/>
          <note pan="0" pos="948" key="15" len="12" vol="197"/>
          <note pan="0" pos="960" key="15" len="24" vol="197"/>
          <note pan="0" pos="984" key="15" len="24" vol="197"/>
          <note pan="0" pos="1008" key="15" len="12" vol="197"/>
          <note pan="0" pos="1020" key="15" len="12" vol="197"/>
          <note pan="0" pos="1032" key="15" len="24" vol="197"/>
          <note pan="0" pos="1056" key="15" len="24" vol="197"/>
          <note pan="0" pos="1080" key="15" len="24" vol="197"/>
          <note pan="0" pos="1104" key="15" len="12" vol="197"/>
          <note pan="0" pos="1116" key="15" len="12" vol="197"/>
          <note pan="0" pos="1128" key="15" len="24" vol="197"/>
          <note pan="0" pos="1152" key="14" len="24" vol="197"/>
          <note pan="0" pos="1176" key="14" len="12" vol="197"/>
          <note pan="0" pos="1188" key="14" len="12" vol="197"/>
          <note pan="0" pos="1200" key="14" len="24" vol="197"/>
          <note pan="0" pos="1224" key="14" len="24" vol="197"/>
          <note pan="0" pos="1248" key="14" len="12" vol="197"/>
          <note pan="0" pos="1260" key="14" len="12" vol="197"/>
          <note pan="0" pos="1272" key="14" len="24" vol="197"/>
          <note pan="0" pos="1296" key="14" len="24" vol="197"/>
          <note pan="0" pos="1320" key="14" len="12" vol="197"/>
          <note pan="0" pos="1332" key="14" len="12" vol="197"/>
          <note pan="0" pos="1344" key="20" len="48" vol="197"/>
          <note pan="0" pos="1392" key="15" len="48" vol="197"/>
          <note pan="0" pos="1440" key="11" len="48" vol="197"/>
          <note pan="0" pos="1488" key="8" len="48" vol="197"/>
          <note pan="0" pos="1536" key="13" len="24" vol="197"/>
          <note pan="0" pos="1560" key="13" len="12" vol="197"/>
          <note pan="0" pos="1572" key="13" len="12" vol="197"/>
          <note pan="0" pos="1584" key="13" len="24" vol="197"/>
          <note pan="0" pos="1608" key="13" len="24" vol="197"/>
          <note pan="0" pos="1632" key="13" len="12" vol="197"/>
          <note pan="0" pos="1644" key="13" len="12" vol="197"/>
          <note pan="0" pos="1656" key="13" len="24" vol="197"/>
          <note pan="0" pos="1680" key="13" len="24" vol="197"/>
          <note pan="0" pos="1704" key="13" len="12" vol="197"/>
          <note pan="0" pos="1716" key="13" len="12" vol="197"/>
          <note pan="0" pos="1728" key="13" len="24" vol="197"/>
          <note pan="0" pos="1752" key="13" len="24" vol="197"/>
          <note pan="0" pos="1776" key="13" len="12" vol="197"/>
          <note pan="0" pos="1788" key="13" len="12" vol="197"/>
          <note pan="0" pos="1800" key="13" len="24" vol="197"/>
          <note pan="0" pos="1824" key="13" len="24" vol="197"/>
          <note pan="0" pos="1848" key="13" len="24" vol="197"/>
          <note pan="0" pos="1872" key="13" len="12" vol="197"/>
          <note pan="0" pos="1884" key="13" len="12" vol="197"/>
          <note pan="0" pos="1896" key="13" len="24" vol="197"/>
          <note pan="0" pos="1920" key="14" len="24" vol="197"/>
          <note pan="0" pos="1944" key="14" len="12" vol="197"/>
          <note pan="0" pos="1956" key="14" len="12" vol="197"/>
          <note pan="0" pos="1968" key="14" len="24" vol="197"/>
          <note pan="0" pos="1992" key="14" len="24" vol="197"/>
          <note pan="0" pos="2016" key="14" len="12" vol="197"/>
          <note pan="0" pos="2028" key="14" len="12" vol="197"/>
          <note pan="0" pos="2040" key="14" len="24" vol="197"/>
          <note pan="0" pos="2064" key="14" len="24" vol="197"/>
          <note pan="0" pos="2088" key="14" len="12" vol="197"/>
          <note pan="0" pos="2100" key="14" len="12" vol="197"/>
          <note pan="0" pos="2112" key="14" len="24" vol="197"/>
          <note pan="0" pos="2136" key="14" len="24" vol="197"/>
          <note pan="0" pos="2160" key="14" len="12" vol="197"/>
          <note pan="0" pos="2172" key="14" len="12" vol="197"/>
          <note pan="0" pos="2184" key="14" len="24" vol="197"/>
          <note pan="0" pos="2208" key="14" len="24" vol="197"/>
          <note pan="0" pos="2232" key="14" len="24" vol="197"/>
          <note pan="0" pos="2256" key="14" len="12" vol="197"/>
          <note pan="0" pos="2268" key="14" len="12" vol="197"/>
          <note pan="0" pos="2280" key="14" len="24" vol="197"/>
          <note pan="0" pos="2304" key="15" len="24" vol="197"/>
          <note pan="0" pos="2328" key="15" len="12" vol="197"/>
          <note pan="0" pos="2340" key="15" len="12" vol="197"/>
          <note pan="0" pos="2352" key="15" len="24" vol="197"/>
          <note pan="0" pos="2376" key="15" len="24" vol="197"/>
          <note pan="0" pos="2400" key="15" len="12" vol="197"/>
          <note pan="0" pos="2412" key="15" len="12" vol="197"/>
          <note pan="0" pos="2424" key="15" len="24" vol="197"/>
          <note pan="0" pos="2448" key="15" len="24" vol="197"/>
          <note pan="0" pos="2472" key="15" len="12" vol="197"/>
          <note pan="0" pos="2484" key="15" len="12" vol="197"/>
          <note pan="0" pos="2496" key="15" len="24" vol="197"/>
          <note pan="0" pos="2520" key="15" len="24" vol="197"/>
          <note pan="0" pos="2544" key="15" len="12" vol="197"/>
          <note pan="0" pos="2556" key="15" len="12" vol="197"/>
          <note pan="0" pos="2568" key="15" len="24" vol="197"/>
          <note pan="0" pos="2592" key="15" len="24" vol="197"/>
          <note pan="0" pos="2616" key="15" len="24" vol="197"/>
          <note pan="0" pos="2640" key="15" len="12" vol="197"/>
          <note pan="0" pos="2652" key="15" len="12" vol="197"/>
          <note pan="0" pos="2664" key="15" len="24" vol="197"/>
          <note pan="0" pos="2688" key="20" len="24" vol="197"/>
          <note pan="0" pos="2712" key="20" len="12" vol="197"/>
          <note pan="0" pos="2724" key="20" len="12" vol="197"/>
          <note pan="0" pos="2736" key="20" len="24" vol="197"/>
          <note pan="0" pos="2760" key="20" len="24" vol="197"/>
          <note pan="0" pos="2784" key="20" len="12" vol="197"/>
          <note pan="0" pos="2796" key="20" len="12" vol="197"/>
          <note pan="0" pos="2808" key="20" len="24" vol="197"/>
          <note pan="0" pos="2832" key="20" len="24" vol="197"/>
          <note pan="0" pos="2856" key="20" len="12" vol="197"/>
          <note pan="0" pos="2868" key="20" len="12" vol="197"/>
          <note pan="0" pos="2880" key="20" len="48" vol="197"/>
          <note pan="0" pos="2928" key="20" len="48" vol="197"/>
          <note pan="0" pos="2976" key="20" len="48" vol="197"/>
          <note pan="0" pos="3024" key="20" len="48" vol="197"/>
        </pattern>
        <pattern type="1" pos="13824" muted="0" name="bass fender jazz (1,379kb)" steps="16">
          <note pan="0" pos="0" key="23" len="24" vol="197"/>
          <note pan="0" pos="24" key="20" len="12" vol="197"/>
          <note pan="0" pos="36" key="20" len="12" vol="197"/>
          <note pan="0" pos="48" key="20" len="12" vol="197"/>
          <note pan="0" pos="60" key="20" len="12" vol="197"/>
          <note pan="0" pos="72" key="20" len="48" vol="197"/>
          <note pan="0" pos="120" key="20" len="24" vol="197"/>
          <note pan="0" pos="144" key="20" len="24" vol="197"/>
          <note pan="0" pos="168" key="20" len="24" vol="197"/>
        </pattern>
        <pattern type="1" pos="14016" muted="0" name="bass fender jazz (1,379kb)" steps="16">
          <note pan="0" pos="0" key="21" len="12" vol="197"/>
          <note pan="0" pos="12" key="21" len="12" vol="197"/>
          <note pan="0" pos="24" key="21" len="12" vol="197"/>
          <note pan="0" pos="36" key="21" len="12" vol="197"/>
          <note pan="0" pos="48" key="25" len="12" vol="197"/>
          <note pan="0" pos="60" key="25" len="12" vol="197"/>
          <note pan="0" pos="72" key="21" len="12" vol="197"/>
          <note pan="0" pos="84" key="21" len="12" vol="197"/>
          <note pan="0" pos="96" key="23" len="12" vol="197"/>
          <note pan="0" pos="108" key="23" len="12" vol="197"/>
          <note pan="0" pos="120" key="23" len="12" vol="197"/>
          <note pan="0" pos="132" key="23" len="12" vol="197"/>
          <note pan="0" pos="144" key="28" len="12" vol="197"/>
          <note pan="0" pos="156" key="27" len="12" vol="197"/>
          <note pan="0" pos="168" key="25" len="12" vol="197"/>
          <note pan="0" pos="180" key="23" len="12" vol="197"/>
        </pattern>
        <pattern type="1" pos="14208" muted="0" name="bass fender jazz (1,379kb)" steps="16">
          <note pan="0" pos="0" key="14" len="12" vol="200"/>
          <note pan="0" pos="12" key="14" len="12" vol="200"/>
          <note pan="0" pos="24" key="14" len="24" vol="200"/>
          <note pan="0" pos="48" key="14" len="12" vol="200"/>
          <note pan="0" pos="60" key="14" len="12" vol="200"/>
          <note pan="0" pos="72" key="14" len="24" vol="200"/>
          <note pan="0" pos="96" key="14" len="12" vol="200"/>
          <note pan="0" pos="108" key="14" len="12" vol="200"/>
          <note pan="0" pos="120" key="14" len="24" vol="200"/>
          <note pan="0" pos="144" key="14" len="12" vol="200"/>
          <note pan="0" pos="156" key="14" len="12" vol="200"/>
          <note pan="0" pos="168" key="14" len="24" vol="200"/>
          <note pan="0" pos="192" key="14" len="12" vol="200"/>
          <note pan="0" pos="204" key="14" len="12" vol="200"/>
          <note pan="0" pos="216" key="14" len="24" vol="200"/>
          <note pan="0" pos="240" key="14" len="12" vol="200"/>
          <note pan="0" pos="252" key="14" len="12" vol="200"/>
          <note pan="0" pos="264" key="14" len="24" vol="200"/>
          <note pan="0" pos="288" key="14" len="12" vol="200"/>
          <note pan="0" pos="300" key="14" len="12" vol="200"/>
          <note pan="0" pos="312" key="14" len="24" vol="200"/>
          <note pan="0" pos="336" key="14" len="12" vol="200"/>
          <note pan="0" pos="348" key="14" len="12" vol="200"/>
          <note pan="0" pos="360" key="14" len="24" vol="200"/>
          <note pan="0" pos="384" key="13" len="12" vol="200"/>
          <note pan="0" pos="396" key="13" len="12" vol="200"/>
          <note pan="0" pos="408" key="13" len="24" vol="200"/>
          <note pan="0" pos="432" key="13" len="12" vol="200"/>
          <note pan="0" pos="444" key="13" len="12" vol="200"/>
          <note pan="0" pos="456" key="13" len="24" vol="200"/>
          <note pan="0" pos="480" key="13" len="12" vol="200"/>
          <note pan="0" pos="492" key="13" len="12" vol="200"/>
          <note pan="0" pos="504" key="13" len="24" vol="200"/>
          <note pan="0" pos="528" key="13" len="12" vol="200"/>
          <note pan="0" pos="540" key="13" len="12" vol="200"/>
          <note pan="0" pos="552" key="13" len="24" vol="200"/>
          <note pan="0" pos="576" key="11" len="12" vol="200"/>
          <note pan="0" pos="588" key="11" len="12" vol="200"/>
          <note pan="0" pos="600" key="11" len="24" vol="200"/>
          <note pan="0" pos="624" key="11" len="12" vol="200"/>
          <note pan="0" pos="636" key="11" len="12" vol="200"/>
          <note pan="0" pos="648" key="11" len="24" vol="200"/>
          <note pan="0" pos="672" key="11" len="12" vol="200"/>
          <note pan="0" pos="684" key="11" len="12" vol="200"/>
          <note pan="0" pos="696" key="11" len="24" vol="200"/>
          <note pan="0" pos="720" key="11" len="12" vol="200"/>
          <note pan="0" pos="732" key="11" len="12" vol="200"/>
          <note pan="0" pos="744" key="11" len="24" vol="200"/>
        </pattern>
        <pattern type="1" pos="14976" muted="0" name="bass fender jazz (1,379kb)" steps="16">
          <note pan="0" pos="0" key="16" len="24" vol="197"/>
          <note pan="0" pos="24" key="18" len="24" vol="197"/>
          <note pan="0" pos="48" key="18" len="12" vol="197"/>
          <note pan="0" pos="60" key="18" len="12" vol="197"/>
          <note pan="0" pos="72" key="23" len="24" vol="197"/>
          <note pan="0" pos="96" key="25" len="24" vol="197"/>
          <note pan="0" pos="120" key="18" len="24" vol="197"/>
          <note pan="0" pos="144" key="16" len="24" vol="197"/>
          <note pan="0" pos="168" key="18" len="24" vol="197"/>
        </pattern>
        <pattern type="1" pos="15168" muted="0" name="bass fender jazz (1,379kb)" steps="16">
          <note pan="0" pos="0" key="16" len="24" vol="197"/>
          <note pan="0" pos="24" key="18" len="24" vol="197"/>
          <note pan="0" pos="48" key="18" len="12" vol="197"/>
          <note pan="0" pos="60" key="18" len="12" vol="197"/>
          <note pan="0" pos="72" key="23" len="24" vol="197"/>
          <note pan="0" pos="96" key="25" len="24" vol="197"/>
          <note pan="0" pos="120" key="18" len="24" vol="197"/>
          <note pan="0" pos="144" key="16" len="24" vol="197"/>
          <note pan="0" pos="168" key="18" len="24" vol="197"/>
        </pattern>
        <pattern type="1" pos="15360" muted="0" name="bass fender jazz (1,379kb)" steps="16">
          <note pan="0" pos="0" key="15" len="24" vol="197"/>
          <note pan="0" pos="24" key="15" len="12" vol="197"/>
          <note pan="0" pos="36" key="15" len="12" vol="197"/>
          <note pan="0" pos="48" key="15" len="12" vol="197"/>
          <note pan="0" pos="60" key="15" len="12" vol="197"/>
          <note pan="0" pos="72" key="15" len="12" vol="197"/>
          <note pan="0" pos="84" key="15" len="12" vol="197"/>
          <note pan="0" pos="96" key="15" len="12" vol="197"/>
          <note pan="0" pos="108" key="15" len="12" vol="197"/>
          <note pan="0" pos="120" key="15" len="12" vol="197"/>
          <note pan="0" pos="132" key="15" len="12" vol="197"/>
          <note pan="0" pos="144" key="15" len="12" vol="197"/>
          <note pan="0" pos="156" key="15" len="12" vol="197"/>
          <note pan="0" pos="168" key="15" len="12" vol="197"/>
          <note pan="0" pos="180" key="15" len="12" vol="197"/>
          <note pan="0" pos="192" key="21" len="96" vol="197"/>
          <note pan="0" pos="288" key="20" len="96" vol="197"/>
        </pattern>
        <pattern type="1" pos="28800" muted="0" name="bass fender jazz (1,379kb)" steps="16">
          <note pan="0" pos="0" key="25" len="48" vol="200"/>
          <note pan="0" pos="48" key="13" len="24" vol="200"/>
          <note pan="0" pos="72" key="13" len="12" vol="200"/>
          <note pan="0" pos="84" key="13" len="12" vol="200"/>
          <note pan="0" pos="96" key="13" len="12" vol="200"/>
          <note pan="0" pos="108" key="13" len="12" vol="200"/>
          <note pan="0" pos="120" key="13" len="24" vol="200"/>
          <note pan="0" pos="144" key="13" len="12" vol="200"/>
          <note pan="0" pos="156" key="13" len="12" vol="200"/>
          <note pan="0" pos="168" key="13" len="12" vol="200"/>
          <note pan="0" pos="180" key="13" len="12" vol="200"/>
          <note pan="0" pos="192" key="13" len="24" vol="200"/>
          <note pan="0" pos="216" key="13" len="12" vol="200"/>
          <note pan="0" pos="228" key="13" len="12" vol="200"/>
          <note pan="0" pos="240" key="13" len="12" vol="200"/>
          <note pan="0" pos="252" key="13" len="12" vol="200"/>
          <note pan="0" pos="264" key="13" len="24" vol="200"/>
          <note pan="0" pos="288" key="13" len="12" vol="200"/>
          <note pan="0" pos="300" key="13" len="12" vol="200"/>
          <note pan="0" pos="312" key="13" len="24" vol="200"/>
          <note pan="0" pos="336" key="13" len="12" vol="200"/>
          <note pan="0" pos="348" key="13" len="12" vol="200"/>
          <note pan="0" pos="360" key="13" len="12" vol="200"/>
          <note pan="0" pos="372" key="13" len="12" vol="200"/>
          <note pan="0" pos="384" key="13" len="48" vol="200"/>
          <note pan="0" pos="432" key="13" len="24" vol="200"/>
          <note pan="0" pos="456" key="13" len="12" vol="200"/>
          <note pan="0" pos="468" key="13" len="12" vol="200"/>
          <note pan="0" pos="480" key="13" len="12" vol="200"/>
          <note pan="0" pos="492" key="13" len="12" vol="200"/>
          <note pan="0" pos="504" key="13" len="24" vol="200"/>
          <note pan="0" pos="528" key="13" len="12" vol="200"/>
          <note pan="0" pos="540" key="13" len="12" vol="200"/>
          <note pan="0" pos="552" key="13" len="12" vol="200"/>
          <note pan="0" pos="564" key="13" len="12" vol="200"/>
          <note pan="0" pos="576" key="13" len="24" vol="200"/>
          <note pan="0" pos="600" key="13" len="12" vol="200"/>
          <note pan="0" pos="612" key="13" len="12" vol="200"/>
          <note pan="0" pos="624" key="13" len="12" vol="200"/>
          <note pan="0" pos="636" key="13" len="12" vol="200"/>
          <note pan="0" pos="648" key="13" len="24" vol="200"/>
          <note pan="0" pos="672" key="13" len="12" vol="200"/>
          <note pan="0" pos="684" key="13" len="12" vol="200"/>
          <note pan="0" pos="696" key="16" len="24" vol="200"/>
          <note pan="0" pos="720" key="18" len="24" vol="200"/>
          <note pan="0" pos="744" key="20" len="24" vol="200"/>
        </pattern>
        <pattern type="1" pos="29568" muted="0" name="bass fender jazz (1,379kb)" steps="16">
          <note pan="0" pos="0" key="25" len="48" vol="200"/>
          <note pan="0" pos="48" key="13" len="24" vol="200"/>
          <note pan="0" pos="72" key="13" len="12" vol="200"/>
          <note pan="0" pos="84" key="13" len="12" vol="200"/>
          <note pan="0" pos="96" key="13" len="12" vol="200"/>
          <note pan="0" pos="108" key="13" len="12" vol="200"/>
          <note pan="0" pos="120" key="13" len="24" vol="200"/>
          <note pan="0" pos="144" key="13" len="12" vol="200"/>
          <note pan="0" pos="156" key="13" len="12" vol="200"/>
          <note pan="0" pos="168" key="13" len="12" vol="200"/>
          <note pan="0" pos="180" key="13" len="12" vol="200"/>
          <note pan="0" pos="192" key="13" len="24" vol="200"/>
          <note pan="0" pos="216" key="13" len="12" vol="200"/>
          <note pan="0" pos="228" key="13" len="12" vol="200"/>
          <note pan="0" pos="240" key="13" len="12" vol="200"/>
          <note pan="0" pos="252" key="13" len="12" vol="200"/>
          <note pan="0" pos="264" key="13" len="24" vol="200"/>
          <note pan="0" pos="288" key="13" len="12" vol="200"/>
          <note pan="0" pos="300" key="13" len="12" vol="200"/>
          <note pan="0" pos="312" key="13" len="24" vol="200"/>
          <note pan="0" pos="336" key="13" len="12" vol="200"/>
          <note pan="0" pos="348" key="13" len="12" vol="200"/>
          <note pan="0" pos="360" key="13" len="12" vol="200"/>
          <note pan="0" pos="372" key="13" len="12" vol="200"/>
          <note pan="0" pos="384" key="13" len="48" vol="200"/>
          <note pan="0" pos="432" key="13" len="24" vol="200"/>
          <note pan="0" pos="456" key="13" len="12" vol="200"/>
          <note pan="0" pos="468" key="13" len="12" vol="200"/>
          <note pan="0" pos="480" key="13" len="12" vol="200"/>
          <note pan="0" pos="492" key="13" len="12" vol="200"/>
          <note pan="0" pos="504" key="13" len="24" vol="200"/>
          <note pan="0" pos="528" key="13" len="12" vol="200"/>
          <note pan="0" pos="540" key="13" len="12" vol="200"/>
          <note pan="0" pos="552" key="13" len="12" vol="200"/>
          <note pan="0" pos="564" key="13" len="12" vol="200"/>
          <note pan="0" pos="576" key="13" len="24" vol="200"/>
          <note pan="0" pos="600" key="13" len="12" vol="200"/>
          <note pan="0" pos="612" key="13" len="12" vol="200"/>
          <note pan="0" pos="624" key="13" len="12" vol="200"/>
          <note pan="0" pos="636" key="13" len="12" vol="200"/>
          <note pan="0" pos="648" key="13" len="24" vol="200"/>
          <note pan="0" pos="672" key="13" len="12" vol="200"/>
          <note pan="0" pos="684" key="13" len="12" vol="200"/>
          <note pan="0" pos="696" key="16" len="24" vol="200"/>
          <note pan="0" pos="720" key="18" len="24" vol="200"/>
          <note pan="0" pos="744" key="20" len="24" vol="200"/>
        </pattern>
        <pattern type="1" pos="30336" muted="0" name="bass fender jazz (1,379kb)" steps="16">
          <note pan="0" pos="0" key="26" len="48" vol="200"/>
          <note pan="0" pos="0" key="0" len="24" vol="200"/>
          <note pan="0" pos="48" key="14" len="24" vol="200"/>
          <note pan="0" pos="60" key="1" len="24" vol="200"/>
          <note pan="0" pos="72" key="14" len="12" vol="200"/>
          <note pan="0" pos="84" key="14" len="12" vol="200"/>
          <note pan="0" pos="96" key="14" len="12" vol="200"/>
          <note pan="0" pos="108" key="14" len="12" vol="200"/>
          <note pan="0" pos="120" key="14" len="24" vol="200"/>
          <note pan="0" pos="120" key="0" len="24" vol="200"/>
          <note pan="0" pos="132" key="1" len="24" vol="200"/>
          <note pan="0" pos="144" key="14" len="12" vol="200"/>
          <note pan="0" pos="156" key="14" len="12" vol="200"/>
          <note pan="0" pos="168" key="14" len="12" vol="200"/>
          <note pan="0" pos="180" key="14" len="12" vol="200"/>
          <note pan="0" pos="192" key="14" len="24" vol="200"/>
          <note pan="0" pos="192" key="0" len="24" vol="200"/>
          <note pan="0" pos="204" key="1" len="24" vol="200"/>
          <note pan="0" pos="216" key="14" len="12" vol="200"/>
          <note pan="0" pos="228" key="14" len="12" vol="200"/>
          <note pan="0" pos="240" key="14" len="12" vol="200"/>
          <note pan="0" pos="252" key="14" len="12" vol="200"/>
          <note pan="0" pos="264" key="14" len="24" vol="200"/>
          <note pan="0" pos="264" key="0" len="24" vol="200"/>
          <note pan="0" pos="276" key="1" len="24" vol="200"/>
          <note pan="0" pos="288" key="14" len="12" vol="200"/>
          <note pan="0" pos="300" key="14" len="12" vol="200"/>
          <note pan="0" pos="312" key="14" len="24" vol="200"/>
          <note pan="0" pos="312" key="0" len="24" vol="200"/>
          <note pan="0" pos="324" key="1" len="24" vol="200"/>
          <note pan="0" pos="336" key="14" len="12" vol="200"/>
          <note pan="0" pos="348" key="14" len="12" vol="200"/>
          <note pan="0" pos="360" key="14" len="12" vol="200"/>
          <note pan="0" pos="372" key="14" len="12" vol="200"/>
          <note pan="0" pos="384" key="14" len="48" vol="200"/>
          <note pan="0" pos="384" key="0" len="24" vol="200"/>
          <note pan="0" pos="432" key="14" len="24" vol="200"/>
          <note pan="0" pos="444" key="1" len="24" vol="200"/>
          <note pan="0" pos="456" key="14" len="12" vol="200"/>
          <note pan="0" pos="468" key="14" len="12" vol="200"/>
          <note pan="0" pos="480" key="14" len="12" vol="200"/>
          <note pan="0" pos="492" key="14" len="12" vol="200"/>
          <note pan="0" pos="504" key="14" len="24" vol="200"/>
          <note pan="0" pos="504" key="0" len="24" vol="200"/>
          <note pan="0" pos="516" key="1" len="24" vol="200"/>
          <note pan="0" pos="528" key="14" len="12" vol="200"/>
          <note pan="0" pos="540" key="14" len="12" vol="200"/>
          <note pan="0" pos="552" key="14" len="12" vol="200"/>
          <note pan="0" pos="564" key="14" len="12" vol="200"/>
          <note pan="0" pos="576" key="14" len="24" vol="200"/>
          <note pan="0" pos="576" key="0" len="24" vol="200"/>
          <note pan="0" pos="588" key="1" len="24" vol="200"/>
          <note pan="0" pos="600" key="14" len="12" vol="200"/>
          <note pan="0" pos="612" key="14" len="12" vol="200"/>
          <note pan="0" pos="624" key="14" len="12" vol="200"/>
          <note pan="0" pos="636" key="14" len="12" vol="200"/>
          <note pan="0" pos="648" key="14" len="24" vol="200"/>
          <note pan="0" pos="648" key="0" len="24" vol="200"/>
          <note pan="0" pos="660" key="1" len="24" vol="200"/>
          <note pan="0" pos="672" key="14" len="12" vol="200"/>
          <note pan="0" pos="684" key="14" len="12" vol="200"/>
          <note pan="0" pos="696" key="21" len="24" vol="200"/>
          <note pan="0" pos="720" key="20" len="24" vol="200"/>
          <note pan="0" pos="744" key="16" len="24" vol="200"/>
        </pattern>
        <pattern type="1" pos="31104" muted="0" name="bass fender jazz (1,379kb)" steps="16">
          <note pan="0" pos="0" key="25" len="48" vol="200"/>
          <note pan="0" pos="48" key="13" len="24" vol="200"/>
          <note pan="0" pos="72" key="13" len="12" vol="200"/>
          <note pan="0" pos="84" key="13" len="12" vol="200"/>
          <note pan="0" pos="96" key="13" len="12" vol="200"/>
          <note pan="0" pos="108" key="13" len="12" vol="200"/>
          <note pan="0" pos="120" key="13" len="24" vol="200"/>
          <note pan="0" pos="144" key="13" len="12" vol="200"/>
          <note pan="0" pos="156" key="13" len="12" vol="200"/>
          <note pan="0" pos="168" key="13" len="12" vol="200"/>
          <note pan="0" pos="180" key="13" len="12" vol="200"/>
          <note pan="0" pos="192" key="13" len="24" vol="200"/>
          <note pan="0" pos="216" key="13" len="12" vol="200"/>
          <note pan="0" pos="228" key="13" len="12" vol="200"/>
          <note pan="0" pos="240" key="13" len="12" vol="200"/>
          <note pan="0" pos="252" key="13" len="12" vol="200"/>
          <note pan="0" pos="264" key="13" len="24" vol="200"/>
          <note pan="0" pos="288" key="13" len="12" vol="200"/>
          <note pan="0" pos="300" key="13" len="12" vol="200"/>
          <note pan="0" pos="312" key="13" len="24" vol="200"/>
          <note pan="0" pos="336" key="13" len="12" vol="200"/>
          <note pan="0" pos="348" key="13" len="12" vol="200"/>
          <note pan="0" pos="360" key="13" len="12" vol="200"/>
          <note pan="0" pos="372" key="13" len="12" vol="200"/>
          <note pan="0" pos="384" key="11" len="48" vol="200"/>
          <note pan="0" pos="432" key="11" len="24" vol="200"/>
          <note pan="0" pos="456" key="11" len="12" vol="200"/>
          <note pan="0" pos="468" key="11" len="12" vol="200"/>
          <note pan="0" pos="480" key="11" len="12" vol="200"/>
          <note pan="0" pos="492" key="11" len="12" vol="200"/>
          <note pan="0" pos="504" key="11" len="24" vol="200"/>
          <note pan="0" pos="528" key="11" len="12" vol="200"/>
          <note pan="0" pos="540" key="11" len="12" vol="200"/>
          <note pan="0" pos="552" key="11" len="12" vol="200"/>
          <note pan="0" pos="564" key="11" len="12" vol="200"/>
          <note pan="0" pos="576" key="11" len="24" vol="200"/>
          <note pan="0" pos="600" key="11" len="12" vol="200"/>
          <note pan="0" pos="612" key="11" len="12" vol="200"/>
          <note pan="0" pos="624" key="11" len="12" vol="200"/>
          <note pan="0" pos="636" key="11" len="12" vol="200"/>
          <note pan="0" pos="648" key="11" len="24" vol="200"/>
          <note pan="0" pos="672" key="11" len="12" vol="200"/>
          <note pan="0" pos="684" key="11" len="12" vol="200"/>
          <note pan="0" pos="696" key="15" len="24" vol="200"/>
          <note pan="0" pos="720" key="16" len="24" vol="200"/>
          <note pan="0" pos="744" key="18" len="24" vol="200"/>
        </pattern>
        <pattern type="1" pos="31872" muted="0" name="bass fender jazz (1,379kb)" steps="16">
          <note pan="0" pos="0" key="9" len="48" vol="200"/>
          <note pan="0" pos="48" key="9" len="24" vol="200"/>
          <note pan="0" pos="72" key="9" len="12" vol="200"/>
          <note pan="0" pos="84" key="9" len="12" vol="200"/>
          <note pan="0" pos="96" key="9" len="12" vol="200"/>
          <note pan="0" pos="108" key="9" len="12" vol="200"/>
          <note pan="0" pos="120" key="9" len="24" vol="200"/>
          <note pan="0" pos="144" key="9" len="12" vol="200"/>
          <note pan="0" pos="156" key="9" len="12" vol="200"/>
          <note pan="0" pos="168" key="9" len="12" vol="200"/>
          <note pan="0" pos="180" key="9" len="12" vol="200"/>
          <note pan="0" pos="192" key="9" len="24" vol="200"/>
          <note pan="0" pos="216" key="9" len="12" vol="200"/>
          <note pan="0" pos="228" key="9" len="12" vol="200"/>
          <note pan="0" pos="240" key="9" len="12" vol="200"/>
          <note pan="0" pos="252" key="9" len="12" vol="200"/>
          <note pan="0" pos="264" key="9" len="24" vol="200"/>
          <note pan="0" pos="288" key="9" len="12" vol="200"/>
          <note pan="0" pos="300" key="9" len="12" vol="200"/>
          <note pan="0" pos="312" key="9" len="24" vol="200"/>
          <note pan="0" pos="336" key="9" len="12" vol="200"/>
          <note pan="0" pos="348" key="9" len="12" vol="200"/>
          <note pan="0" pos="360" key="9" len="12" vol="200"/>
          <note pan="0" pos="372" key="9" len="12" vol="200"/>
          <note pan="0" pos="384" key="11" len="48" vol="200"/>
          <note pan="0" pos="432" key="11" len="24" vol="200"/>
          <note pan="0" pos="456" key="11" len="12" vol="200"/>
          <note pan="0" pos="468" key="11" len="12" vol="200"/>
          <note pan="0" pos="480" key="11" len="12" vol="200"/>
          <note pan="0" pos="492" key="11" len="12" vol="200"/>
          <note pan="0" pos="504" key="11" len="24" vol="200"/>
          <note pan="0" pos="528" key="11" len="12" vol="200"/>
          <note pan="0" pos="540" key="11" len="12" vol="200"/>
          <note pan="0" pos="552" key="11" len="12" vol="200"/>
          <note pan="0" pos="564" key="11" len="12" vol="200"/>
          <note pan="0" pos="576" key="11" len="24" vol="200"/>
          <note pan="0" pos="600" key="11" len="12" vol="200"/>
          <note pan="0" pos="612" key="11" len="12" vol="200"/>
          <note pan="0" pos="624" key="11" len="12" vol="200"/>
          <note pan="0" pos="636" key="11" len="12" vol="200"/>
          <note pan="0" pos="648" key="11" len="24" vol="200"/>
          <note pan="0" pos="672" key="11" len="12" vol="200"/>
          <note pan="0" pos="684" key="11" len="12" vol="200"/>
          <note pan="0" pos="696" key="11" len="24" vol="200"/>
          <note pan="0" pos="720" key="11" len="12" vol="200"/>
          <note pan="0" pos="732" key="11" len="12" vol="200"/>
          <note pan="0" pos="744" key="11" len="12" vol="200"/>
          <note pan="0" pos="756" key="11" len="12" vol="200"/>
        </pattern>
        <pattern type="1" pos="32640" muted="0" name="bass fender jazz (1,379kb)" steps="16">
          <note pan="0" pos="0" key="18" len="48" vol="200"/>
          <note pan="0" pos="48" key="18" len="24" vol="200"/>
          <note pan="0" pos="72" key="18" len="12" vol="200"/>
          <note pan="0" pos="84" key="18" len="12" vol="200"/>
          <note pan="0" pos="96" key="18" len="12" vol="200"/>
          <note pan="0" pos="108" key="18" len="12" vol="200"/>
          <note pan="0" pos="120" key="18" len="24" vol="200"/>
          <note pan="0" pos="144" key="18" len="12" vol="200"/>
          <note pan="0" pos="156" key="18" len="12" vol="200"/>
          <note pan="0" pos="168" key="18" len="12" vol="200"/>
          <note pan="0" pos="180" key="18" len="12" vol="200"/>
          <note pan="0" pos="192" key="18" len="24" vol="200"/>
          <note pan="0" pos="216" key="18" len="12" vol="200"/>
          <note pan="0" pos="228" key="18" len="12" vol="200"/>
          <note pan="0" pos="240" key="18" len="12" vol="200"/>
          <note pan="0" pos="252" key="18" len="12" vol="200"/>
          <note pan="0" pos="264" key="18" len="24" vol="200"/>
          <note pan="0" pos="288" key="18" len="12" vol="200"/>
          <note pan="0" pos="300" key="18" len="12" vol="200"/>
          <note pan="0" pos="312" key="18" len="24" vol="200"/>
          <note pan="0" pos="336" key="18" len="12" vol="200"/>
          <note pan="0" pos="348" key="18" len="12" vol="200"/>
          <note pan="0" pos="360" key="18" len="12" vol="200"/>
          <note pan="0" pos="372" key="18" len="12" vol="200"/>
          <note pan="0" pos="384" key="8" len="48" vol="200"/>
          <note pan="0" pos="432" key="8" len="24" vol="200"/>
          <note pan="0" pos="456" key="8" len="12" vol="200"/>
          <note pan="0" pos="468" key="8" len="12" vol="200"/>
          <note pan="0" pos="480" key="8" len="12" vol="200"/>
          <note pan="0" pos="492" key="8" len="12" vol="200"/>
          <note pan="0" pos="504" key="8" len="24" vol="200"/>
          <note pan="0" pos="528" key="8" len="12" vol="200"/>
          <note pan="0" pos="540" key="8" len="12" vol="200"/>
          <note pan="0" pos="552" key="8" len="12" vol="200"/>
          <note pan="0" pos="564" key="8" len="12" vol="200"/>
          <note pan="0" pos="576" key="8" len="24" vol="200"/>
          <note pan="0" pos="600" key="8" len="12" vol="200"/>
          <note pan="0" pos="612" key="8" len="12" vol="200"/>
          <note pan="0" pos="624" key="8" len="12" vol="200"/>
          <note pan="0" pos="636" key="8" len="12" vol="200"/>
          <note pan="0" pos="648" key="8" len="24" vol="200"/>
          <note pan="0" pos="672" key="8" len="12" vol="200"/>
          <note pan="0" pos="684" key="8" len="12" vol="200"/>
          <note pan="0" pos="696" key="8" len="24" vol="200"/>
          <note pan="0" pos="720" key="8" len="12" vol="200"/>
          <note pan="0" pos="732" key="8" len="12" vol="200"/>
          <note pan="0" pos="744" key="8" len="12" vol="200"/>
          <note pan="0" pos="756" key="8" len="12" vol="200"/>
        </pattern>
        <pattern type="1" pos="33408" muted="0" name="bass fender jazz (1,379kb)" steps="16">
          <note pan="0" pos="0" key="15" len="48" vol="200"/>
          <note pan="0" pos="48" key="15" len="24" vol="200"/>
          <note pan="0" pos="72" key="15" len="12" vol="200"/>
          <note pan="0" pos="84" key="15" len="12" vol="200"/>
          <note pan="0" pos="96" key="15" len="12" vol="200"/>
          <note pan="0" pos="108" key="15" len="12" vol="200"/>
          <note pan="0" pos="120" key="15" len="24" vol="200"/>
          <note pan="0" pos="144" key="15" len="12" vol="200"/>
          <note pan="0" pos="156" key="15" len="12" vol="200"/>
          <note pan="0" pos="168" key="15" len="12" vol="200"/>
          <note pan="0" pos="180" key="15" len="12" vol="200"/>
          <note pan="0" pos="192" key="15" len="24" vol="200"/>
          <note pan="0" pos="216" key="15" len="12" vol="200"/>
          <note pan="0" pos="228" key="15" len="12" vol="200"/>
          <note pan="0" pos="240" key="15" len="12" vol="200"/>
          <note pan="0" pos="252" key="15" len="12" vol="200"/>
          <note pan="0" pos="264" key="15" len="24" vol="200"/>
          <note pan="0" pos="288" key="15" len="12" vol="200"/>
          <note pan="0" pos="300" key="15" len="12" vol="200"/>
          <note pan="0" pos="312" key="15" len="24" vol="200"/>
          <note pan="0" pos="336" key="15" len="12" vol="200"/>
          <note pan="0" pos="348" key="15" len="12" vol="200"/>
          <note pan="0" pos="360" key="15" len="12" vol="200"/>
          <note pan="0" pos="372" key="15" len="12" vol="200"/>
          <note pan="0" pos="384" key="14" len="48" vol="200"/>
          <note pan="0" pos="432" key="14" len="24" vol="200"/>
          <note pan="0" pos="456" key="14" len="12" vol="200"/>
          <note pan="0" pos="468" key="14" len="12" vol="200"/>
          <note pan="0" pos="480" key="14" len="12" vol="200"/>
          <note pan="0" pos="492" key="14" len="12" vol="200"/>
          <note pan="0" pos="504" key="14" len="24" vol="200"/>
          <note pan="0" pos="528" key="14" len="12" vol="200"/>
          <note pan="0" pos="540" key="14" len="12" vol="200"/>
          <note pan="0" pos="552" key="14" len="12" vol="200"/>
          <note pan="0" pos="564" key="14" len="12" vol="200"/>
          <note pan="0" pos="576" key="14" len="24" vol="200"/>
          <note pan="0" pos="600" key="14" len="12" vol="200"/>
          <note pan="0" pos="612" key="14" len="12" vol="200"/>
          <note pan="0" pos="624" key="14" len="12" vol="200"/>
          <note pan="0" pos="636" key="14" len="12" vol="200"/>
          <note pan="0" pos="648" key="14" len="24" vol="200"/>
          <note pan="0" pos="672" key="14" len="12" vol="200"/>
          <note pan="0" pos="684" key="14" len="12" vol="200"/>
          <note pan="0" pos="696" key="14" len="24" vol="200"/>
          <note pan="0" pos="720" key="14" len="12" vol="200"/>
          <note pan="0" pos="732" key="14" len="12" vol="200"/>
          <note pan="0" pos="744" key="14" len="12" vol="200"/>
          <note pan="0" pos="756" key="14" len="12" vol="200"/>
        </pattern>
        <pattern type="1" pos="34176" muted="0" name="bass fender jazz (1,379kb)" steps="16">
          <note pan="0" pos="0" key="19" len="48" vol="200"/>
          <note pan="0" pos="0" key="0" len="24" vol="200"/>
          <note pan="0" pos="48" key="19" len="24" vol="200"/>
          <note pan="0" pos="60" key="1" len="24" vol="200"/>
          <note pan="0" pos="72" key="19" len="12" vol="200"/>
          <note pan="0" pos="84" key="19" len="12" vol="200"/>
          <note pan="0" pos="96" key="19" len="12" vol="200"/>
          <note pan="0" pos="108" key="19" len="12" vol="200"/>
          <note pan="0" pos="120" key="19" len="24" vol="200"/>
          <note pan="0" pos="120" key="0" len="24" vol="200"/>
          <note pan="0" pos="132" key="1" len="24" vol="200"/>
          <note pan="0" pos="144" key="19" len="12" vol="200"/>
          <note pan="0" pos="156" key="19" len="12" vol="200"/>
          <note pan="0" pos="168" key="19" len="12" vol="200"/>
          <note pan="0" pos="180" key="19" len="12" vol="200"/>
          <note pan="0" pos="192" key="19" len="24" vol="200"/>
          <note pan="0" pos="192" key="0" len="24" vol="200"/>
          <note pan="0" pos="204" key="1" len="24" vol="200"/>
          <note pan="0" pos="216" key="19" len="12" vol="200"/>
          <note pan="0" pos="228" key="19" len="12" vol="200"/>
          <note pan="0" pos="240" key="19" len="12" vol="200"/>
          <note pan="0" pos="252" key="19" len="12" vol="200"/>
          <note pan="0" pos="264" key="19" len="24" vol="200"/>
          <note pan="0" pos="264" key="0" len="24" vol="200"/>
          <note pan="0" pos="276" key="1" len="24" vol="200"/>
          <note pan="0" pos="288" key="19" len="12" vol="200"/>
          <note pan="0" pos="300" key="19" len="12" vol="200"/>
          <note pan="0" pos="312" key="19" len="24" vol="200"/>
          <note pan="0" pos="312" key="0" len="24" vol="200"/>
          <note pan="0" pos="324" key="1" len="24" vol="200"/>
          <note pan="0" pos="336" key="19" len="12" vol="200"/>
          <note pan="0" pos="348" key="19" len="12" vol="200"/>
          <note pan="0" pos="360" key="19" len="12" vol="200"/>
          <note pan="0" pos="372" key="19" len="12" vol="200"/>
          <note pan="0" pos="384" key="20" len="48" vol="200"/>
          <note pan="0" pos="384" key="0" len="24" vol="200"/>
          <note pan="0" pos="432" key="8" len="24" vol="200"/>
          <note pan="0" pos="444" key="1" len="24" vol="200"/>
          <note pan="0" pos="456" key="8" len="12" vol="200"/>
          <note pan="0" pos="468" key="8" len="12" vol="200"/>
          <note pan="0" pos="480" key="8" len="12" vol="200"/>
          <note pan="0" pos="492" key="8" len="12" vol="200"/>
          <note pan="0" pos="504" key="8" len="24" vol="200"/>
          <note pan="0" pos="504" key="0" len="24" vol="200"/>
          <note pan="0" pos="516" key="1" len="24" vol="200"/>
          <note pan="0" pos="528" key="8" len="12" vol="200"/>
          <note pan="0" pos="540" key="8" len="12" vol="200"/>
          <note pan="0" pos="552" key="8" len="12" vol="200"/>
          <note pan="0" pos="564" key="8" len="12" vol="200"/>
          <note pan="0" pos="576" key="8" len="192" vol="200"/>
          <note pan="0" pos="576" key="0" len="24" vol="200"/>
        </pattern>
        <pattern type="1" pos="34944" muted="0" name="bass fender jazz (1,379kb)" steps="16">
          <note pan="0" pos="0" key="13" len="192" vol="197"/>
          <note pan="0" pos="0" key="0" len="48" vol="78"/>
          <note pan="0" pos="192" key="20" len="192" vol="197"/>
          <note pan="0" pos="384" key="21" len="192" vol="197"/>
          <note pan="0" pos="576" key="23" len="192" vol="197"/>
          <note pan="0" pos="756" key="1" len="12" vol="197"/>
          <note pan="0" pos="768" key="18" len="12" vol="197"/>
          <note pan="0" pos="780" key="18" len="12" vol="197"/>
          <note pan="0" pos="792" key="18" len="12" vol="197"/>
          <note pan="0" pos="804" key="18" len="12" vol="197"/>
          <note pan="0" pos="816" key="18" len="12" vol="197"/>
          <note pan="0" pos="828" key="18" len="12" vol="197"/>
          <note pan="0" pos="840" key="18" len="12" vol="197"/>
          <note pan="0" pos="852" key="18" len="12" vol="197"/>
          <note pan="0" pos="864" key="18" len="12" vol="197"/>
          <note pan="0" pos="876" key="18" len="12" vol="197"/>
          <note pan="0" pos="888" key="18" len="12" vol="197"/>
          <note pan="0" pos="900" key="18" len="12" vol="197"/>
          <note pan="0" pos="912" key="18" len="12" vol="197"/>
          <note pan="0" pos="924" key="18" len="12" vol="197"/>
          <note pan="0" pos="936" key="18" len="12" vol="197"/>
          <note pan="0" pos="948" key="18" len="12" vol="197"/>
          <note pan="0" pos="960" key="20" len="12" vol="197"/>
          <note pan="0" pos="972" key="20" len="12" vol="197"/>
          <note pan="0" pos="984" key="20" len="12" vol="197"/>
          <note pan="0" pos="996" key="20" len="12" vol="197"/>
          <note pan="0" pos="1008" key="20" len="12" vol="197"/>
          <note pan="0" pos="1020" key="20" len="12" vol="197"/>
          <note pan="0" pos="1032" key="20" len="12" vol="197"/>
          <note pan="0" pos="1044" key="20" len="12" vol="197"/>
          <note pan="0" pos="1056" key="20" len="12" vol="197"/>
          <note pan="0" pos="1068" key="20" len="12" vol="197"/>
          <note pan="0" pos="1080" key="20" len="12" vol="197"/>
          <note pan="0" pos="1092" key="20" len="12" vol="197"/>
          <note pan="0" pos="1104" key="20" len="12" vol="197"/>
          <note pan="0" pos="1116" key="20" len="12" vol="197"/>
          <note pan="0" pos="1128" key="20" len="12" vol="197"/>
          <note pan="0" pos="1140" key="20" len="12" vol="197"/>
          <note pan="0" pos="1152" key="21" len="12" vol="197"/>
          <note pan="0" pos="1164" key="21" len="12" vol="197"/>
          <note pan="0" pos="1176" key="21" len="12" vol="197"/>
          <note pan="0" pos="1188" key="21" len="12" vol="197"/>
          <note pan="0" pos="1200" key="21" len="12" vol="197"/>
          <note pan="0" pos="1212" key="21" len="12" vol="197"/>
          <note pan="0" pos="1224" key="21" len="12" vol="197"/>
          <note pan="0" pos="1236" key="21" len="12" vol="197"/>
          <note pan="0" pos="1248" key="21" len="12" vol="197"/>
          <note pan="0" pos="1260" key="21" len="12" vol="197"/>
          <note pan="0" pos="1272" key="21" len="12" vol="197"/>
          <note pan="0" pos="1284" key="21" len="12" vol="197"/>
          <note pan="0" pos="1296" key="21" len="12" vol="197"/>
          <note pan="0" pos="1308" key="21" len="12" vol="197"/>
          <note pan="0" pos="1320" key="21" len="12" vol="197"/>
          <note pan="0" pos="1332" key="21" len="12" vol="197"/>
          <note pan="0" pos="1344" key="23" len="48" vol="197"/>
          <note pan="0" pos="1344" key="0" len="12" vol="197"/>
          <note pan="0" pos="1392" key="23" len="48" vol="197"/>
          <note pan="0" pos="1440" key="20" len="48" vol="197"/>
          <note pan="0" pos="1488" key="23" len="48" vol="197"/>
        </pattern>
        <pattern type="1" pos="12672" muted="0" name="bass fender jazz (1,379kb)" steps="16">
          <note pan="0" pos="0" key="13" len="36" vol="200"/>
        </pattern>
        <pattern type="1" pos="37632" muted="0" name="bass fender jazz (1,379kb)" steps="16">
          <note pan="0" pos="0" key="20" len="24" vol="195"/>
          <note pan="0" pos="24" key="23" len="24" vol="195"/>
          <note pan="0" pos="48" key="20" len="24" vol="195"/>
          <note pan="0" pos="72" key="27" len="48" vol="195"/>
          <note pan="0" pos="120" key="20" len="24" vol="195"/>
          <note pan="0" pos="144" key="23" len="24" vol="195"/>
          <note pan="0" pos="168" key="27" len="24" vol="195"/>
          <note pan="0" pos="192" key="21" len="12" vol="195"/>
          <note pan="0" pos="204" key="21" len="12" vol="195"/>
          <note pan="0" pos="216" key="21" len="12" vol="195"/>
          <note pan="0" pos="228" key="21" len="12" vol="195"/>
          <note pan="0" pos="240" key="21" len="12" vol="195"/>
          <note pan="0" pos="252" key="21" len="12" vol="195"/>
          <note pan="0" pos="264" key="25" len="12" vol="195"/>
          <note pan="0" pos="276" key="25" len="12" vol="195"/>
          <note pan="0" pos="288" key="23" len="12" vol="195"/>
          <note pan="0" pos="300" key="23" len="12" vol="195"/>
          <note pan="0" pos="312" key="23" len="12" vol="195"/>
          <note pan="0" pos="324" key="23" len="12" vol="195"/>
          <note pan="0" pos="336" key="27" len="12" vol="195"/>
          <note pan="0" pos="348" key="27" len="12" vol="195"/>
          <note pan="0" pos="360" key="23" len="12" vol="195"/>
          <note pan="0" pos="372" key="23" len="12" vol="195"/>
        </pattern>
        <pattern type="1" pos="37440" muted="0" name="bass fender jazz (1,379kb)" steps="16">
          <note pan="0" pos="0" key="18" len="24" vol="197"/>
          <note pan="0" pos="24" key="16" len="24" vol="197"/>
          <note pan="0" pos="48" key="18" len="24" vol="197"/>
          <note pan="0" pos="72" key="25" len="24" vol="197"/>
          <note pan="0" pos="96" key="18" len="12" vol="197"/>
          <note pan="0" pos="108" key="18" len="12" vol="197"/>
          <note pan="0" pos="120" key="18" len="12" vol="197"/>
          <note pan="0" pos="132" key="18" len="12" vol="197"/>
          <note pan="0" pos="144" key="18" len="12" vol="197"/>
          <note pan="0" pos="156" key="18" len="12" vol="197"/>
          <note pan="0" pos="168" key="18" len="12" vol="197"/>
          <note pan="0" pos="180" key="18" len="12" vol="197"/>
        </pattern>
        <pattern type="1" pos="37248" muted="0" name="bass fender jazz (1,379kb)" steps="16">
          <note pan="0" pos="0" key="25" len="24" vol="197"/>
          <note pan="0" pos="24" key="23" len="24" vol="197"/>
          <note pan="0" pos="48" key="25" len="24" vol="197"/>
          <note pan="0" pos="72" key="32" len="24" vol="197"/>
          <note pan="0" pos="96" key="25" len="12" vol="197"/>
          <note pan="0" pos="108" key="25" len="12" vol="197"/>
          <note pan="0" pos="120" key="25" len="12" vol="197"/>
          <note pan="0" pos="132" key="25" len="12" vol="197"/>
          <note pan="0" pos="144" key="25" len="12" vol="197"/>
          <note pan="0" pos="156" key="25" len="12" vol="197"/>
          <note pan="0" pos="168" key="25" len="12" vol="197"/>
          <note pan="0" pos="180" key="25" len="12" vol="197"/>
        </pattern>
        <pattern type="1" pos="36480" muted="0" name="bass fender jazz (1,379kb)" steps="16">
          <note pan="0" pos="0" key="25" len="24" vol="197"/>
          <note pan="0" pos="24" key="23" len="24" vol="197"/>
          <note pan="0" pos="48" key="25" len="24" vol="197"/>
          <note pan="0" pos="72" key="32" len="24" vol="197"/>
          <note pan="0" pos="96" key="25" len="12" vol="197"/>
          <note pan="0" pos="108" key="25" len="12" vol="197"/>
          <note pan="0" pos="120" key="25" len="12" vol="197"/>
          <note pan="0" pos="132" key="25" len="12" vol="197"/>
          <note pan="0" pos="144" key="25" len="12" vol="197"/>
          <note pan="0" pos="156" key="25" len="12" vol="197"/>
          <note pan="0" pos="168" key="25" len="12" vol="197"/>
          <note pan="0" pos="180" key="25" len="12" vol="197"/>
        </pattern>
        <pattern type="1" pos="36672" muted="0" name="bass fender jazz (1,379kb)" steps="16">
          <note pan="0" pos="0" key="18" len="24" vol="197"/>
          <note pan="0" pos="24" key="16" len="24" vol="197"/>
          <note pan="0" pos="48" key="18" len="24" vol="197"/>
          <note pan="0" pos="72" key="25" len="24" vol="197"/>
          <note pan="0" pos="96" key="18" len="12" vol="197"/>
          <note pan="0" pos="108" key="18" len="12" vol="197"/>
          <note pan="0" pos="120" key="18" len="12" vol="197"/>
          <note pan="0" pos="132" key="18" len="12" vol="197"/>
          <note pan="0" pos="144" key="18" len="12" vol="197"/>
          <note pan="0" pos="156" key="18" len="12" vol="197"/>
          <note pan="0" pos="168" key="18" len="12" vol="197"/>
          <note pan="0" pos="180" key="18" len="12" vol="197"/>
        </pattern>
        <pattern type="1" pos="36864" muted="0" name="bass fender jazz (1,379kb)" steps="16">
          <note pan="0" pos="0" key="20" len="24" vol="195"/>
          <note pan="0" pos="24" key="23" len="24" vol="195"/>
          <note pan="0" pos="48" key="20" len="24" vol="195"/>
          <note pan="0" pos="72" key="27" len="48" vol="195"/>
          <note pan="0" pos="120" key="20" len="24" vol="195"/>
          <note pan="0" pos="144" key="23" len="24" vol="195"/>
          <note pan="0" pos="168" key="27" len="24" vol="195"/>
          <note pan="0" pos="192" key="21" len="12" vol="195"/>
          <note pan="0" pos="204" key="21" len="12" vol="195"/>
          <note pan="0" pos="216" key="21" len="12" vol="195"/>
          <note pan="0" pos="228" key="21" len="12" vol="195"/>
          <note pan="0" pos="240" key="21" len="12" vol="195"/>
          <note pan="0" pos="252" key="21" len="12" vol="195"/>
          <note pan="0" pos="264" key="25" len="12" vol="195"/>
          <note pan="0" pos="276" key="25" len="12" vol="195"/>
          <note pan="0" pos="288" key="23" len="12" vol="195"/>
          <note pan="0" pos="300" key="23" len="12" vol="195"/>
          <note pan="0" pos="312" key="23" len="12" vol="195"/>
          <note pan="0" pos="324" key="23" len="12" vol="195"/>
          <note pan="0" pos="336" key="27" len="12" vol="195"/>
          <note pan="0" pos="348" key="27" len="12" vol="195"/>
          <note pan="0" pos="360" key="23" len="12" vol="195"/>
          <note pan="0" pos="372" key="23" len="12" vol="195"/>
        </pattern>
        <pattern type="1" pos="38016" muted="0" name="bass fender jazz (1,379kb)" steps="16">
          <note pan="0" pos="0" key="14" len="12" vol="200"/>
          <note pan="0" pos="12" key="14" len="12" vol="200"/>
          <note pan="0" pos="24" key="14" len="24" vol="200"/>
          <note pan="0" pos="48" key="14" len="12" vol="200"/>
          <note pan="0" pos="60" key="14" len="12" vol="200"/>
          <note pan="0" pos="72" key="14" len="24" vol="200"/>
          <note pan="0" pos="96" key="14" len="12" vol="200"/>
          <note pan="0" pos="108" key="14" len="12" vol="200"/>
          <note pan="0" pos="120" key="14" len="24" vol="200"/>
          <note pan="0" pos="144" key="14" len="12" vol="200"/>
          <note pan="0" pos="156" key="14" len="12" vol="200"/>
          <note pan="0" pos="168" key="14" len="24" vol="200"/>
          <note pan="0" pos="192" key="14" len="12" vol="200"/>
          <note pan="0" pos="204" key="14" len="12" vol="200"/>
          <note pan="0" pos="216" key="14" len="24" vol="200"/>
          <note pan="0" pos="240" key="14" len="12" vol="200"/>
          <note pan="0" pos="252" key="14" len="12" vol="200"/>
          <note pan="0" pos="264" key="14" len="24" vol="200"/>
          <note pan="0" pos="288" key="14" len="12" vol="200"/>
          <note pan="0" pos="300" key="14" len="12" vol="200"/>
          <note pan="0" pos="312" key="14" len="24" vol="200"/>
          <note pan="0" pos="336" key="14" len="12" vol="200"/>
          <note pan="0" pos="348" key="14" len="12" vol="200"/>
          <note pan="0" pos="360" key="14" len="24" vol="200"/>
          <note pan="0" pos="384" key="13" len="12" vol="200"/>
          <note pan="0" pos="396" key="13" len="12" vol="200"/>
          <note pan="0" pos="408" key="13" len="24" vol="200"/>
          <note pan="0" pos="432" key="13" len="12" vol="200"/>
          <note pan="0" pos="444" key="13" len="12" vol="200"/>
          <note pan="0" pos="456" key="13" len="24" vol="200"/>
          <note pan="0" pos="480" key="13" len="12" vol="200"/>
          <note pan="0" pos="492" key="13" len="12" vol="200"/>
          <note pan="0" pos="504" key="13" len="24" vol="200"/>
          <note pan="0" pos="528" key="13" len="12" vol="200"/>
          <note pan="0" pos="540" key="13" len="12" vol="200"/>
          <note pan="0" pos="552" key="13" len="24" vol="200"/>
          <note pan="0" pos="576" key="11" len="12" vol="200"/>
          <note pan="0" pos="588" key="11" len="12" vol="200"/>
          <note pan="0" pos="600" key="11" len="24" vol="200"/>
          <note pan="0" pos="624" key="11" len="12" vol="200"/>
          <note pan="0" pos="636" key="11" len="12" vol="200"/>
          <note pan="0" pos="648" key="11" len="24" vol="200"/>
          <note pan="0" pos="672" key="11" len="12" vol="200"/>
          <note pan="0" pos="684" key="11" len="12" vol="200"/>
          <note pan="0" pos="696" key="11" len="24" vol="200"/>
          <note pan="0" pos="720" key="11" len="12" vol="200"/>
          <note pan="0" pos="732" key="11" len="12" vol="200"/>
          <note pan="0" pos="744" key="11" len="24" vol="200"/>
        </pattern>
        <pattern type="1" pos="39168" muted="0" name="bass fender jazz (1,379kb)" steps="16">
          <note pan="0" pos="0" key="15" len="24" vol="197"/>
          <note pan="0" pos="24" key="15" len="12" vol="197"/>
          <note pan="0" pos="36" key="15" len="12" vol="197"/>
          <note pan="0" pos="48" key="15" len="12" vol="197"/>
          <note pan="0" pos="60" key="15" len="12" vol="197"/>
          <note pan="0" pos="72" key="15" len="12" vol="197"/>
          <note pan="0" pos="84" key="15" len="12" vol="197"/>
          <note pan="0" pos="96" key="15" len="12" vol="197"/>
          <note pan="0" pos="108" key="15" len="12" vol="197"/>
          <note pan="0" pos="120" key="15" len="12" vol="197"/>
          <note pan="0" pos="132" key="15" len="12" vol="197"/>
          <note pan="0" pos="144" key="15" len="12" vol="197"/>
          <note pan="0" pos="156" key="15" len="12" vol="197"/>
          <note pan="0" pos="168" key="15" len="12" vol="197"/>
          <note pan="0" pos="180" key="15" len="12" vol="197"/>
          <note pan="0" pos="192" key="21" len="96" vol="197"/>
          <note pan="0" pos="288" key="20" len="96" vol="197"/>
        </pattern>
        <pattern type="1" pos="38784" muted="0" name="bass fender jazz (1,379kb)" steps="16">
          <note pan="0" pos="0" key="16" len="24" vol="197"/>
          <note pan="0" pos="24" key="18" len="24" vol="197"/>
          <note pan="0" pos="48" key="18" len="12" vol="197"/>
          <note pan="0" pos="60" key="18" len="12" vol="197"/>
          <note pan="0" pos="72" key="23" len="24" vol="197"/>
          <note pan="0" pos="96" key="25" len="24" vol="197"/>
          <note pan="0" pos="120" key="18" len="24" vol="197"/>
          <note pan="0" pos="144" key="16" len="24" vol="197"/>
          <note pan="0" pos="168" key="18" len="24" vol="197"/>
        </pattern>
        <pattern type="1" pos="38976" muted="0" name="bass fender jazz (1,379kb)" steps="16">
          <note pan="0" pos="0" key="16" len="24" vol="197"/>
          <note pan="0" pos="24" key="18" len="24" vol="197"/>
          <note pan="0" pos="48" key="18" len="12" vol="197"/>
          <note pan="0" pos="60" key="18" len="12" vol="197"/>
          <note pan="0" pos="72" key="23" len="24" vol="197"/>
          <note pan="0" pos="96" key="25" len="24" vol="197"/>
          <note pan="0" pos="120" key="18" len="24" vol="197"/>
          <note pan="0" pos="144" key="16" len="24" vol="197"/>
          <note pan="0" pos="168" key="18" len="24" vol="197"/>
        </pattern>
        <pattern type="1" pos="39552" muted="0" name="bass fender jazz (1,379kb)" steps="16">
          <note pan="0" pos="0" key="13" len="48" vol="195"/>
          <note pan="0" pos="48" key="13" len="12" vol="195"/>
          <note pan="0" pos="60" key="13" len="12" vol="195"/>
          <note pan="0" pos="72" key="13" len="12" vol="195"/>
          <note pan="0" pos="84" key="13" len="12" vol="195"/>
          <note pan="0" pos="96" key="13" len="12" vol="195"/>
          <note pan="0" pos="108" key="13" len="12" vol="195"/>
          <note pan="0" pos="120" key="13" len="12" vol="195"/>
          <note pan="0" pos="132" key="13" len="12" vol="195"/>
          <note pan="0" pos="144" key="13" len="12" vol="195"/>
          <note pan="0" pos="156" key="13" len="12" vol="195"/>
          <note pan="0" pos="168" key="13" len="12" vol="195"/>
          <note pan="0" pos="180" key="13" len="12" vol="195"/>
          <note pan="0" pos="192" key="20" len="48" vol="195"/>
          <note pan="0" pos="240" key="20" len="12" vol="195"/>
          <note pan="0" pos="252" key="20" len="12" vol="195"/>
          <note pan="0" pos="264" key="20" len="12" vol="195"/>
          <note pan="0" pos="276" key="20" len="12" vol="195"/>
          <note pan="0" pos="288" key="20" len="12" vol="195"/>
          <note pan="0" pos="300" key="20" len="12" vol="195"/>
          <note pan="0" pos="312" key="20" len="12" vol="195"/>
          <note pan="0" pos="324" key="20" len="12" vol="195"/>
          <note pan="0" pos="336" key="20" len="12" vol="195"/>
          <note pan="0" pos="348" key="20" len="12" vol="195"/>
          <note pan="0" pos="360" key="20" len="12" vol="195"/>
          <note pan="0" pos="372" key="20" len="12" vol="195"/>
          <note pan="0" pos="384" key="21" len="48" vol="195"/>
          <note pan="0" pos="432" key="21" len="12" vol="195"/>
          <note pan="0" pos="444" key="21" len="12" vol="195"/>
          <note pan="0" pos="456" key="21" len="12" vol="195"/>
          <note pan="0" pos="468" key="21" len="12" vol="195"/>
          <note pan="0" pos="480" key="21" len="12" vol="195"/>
          <note pan="0" pos="492" key="21" len="12" vol="195"/>
          <note pan="0" pos="504" key="21" len="12" vol="195"/>
          <note pan="0" pos="516" key="21" len="12" vol="195"/>
          <note pan="0" pos="528" key="21" len="12" vol="195"/>
          <note pan="0" pos="540" key="21" len="12" vol="195"/>
          <note pan="0" pos="552" key="21" len="12" vol="195"/>
          <note pan="0" pos="564" key="21" len="12" vol="195"/>
          <note pan="0" pos="576" key="23" len="48" vol="195"/>
          <note pan="0" pos="624" key="23" len="12" vol="195"/>
          <note pan="0" pos="636" key="23" len="12" vol="195"/>
          <note pan="0" pos="648" key="23" len="12" vol="195"/>
          <note pan="0" pos="660" key="23" len="12" vol="195"/>
          <note pan="0" pos="672" key="23" len="12" vol="195"/>
          <note pan="0" pos="684" key="23" len="12" vol="195"/>
          <note pan="0" pos="696" key="23" len="12" vol="195"/>
          <note pan="0" pos="708" key="23" len="12" vol="195"/>
          <note pan="0" pos="720" key="23" len="12" vol="195"/>
          <note pan="0" pos="732" key="23" len="12" vol="195"/>
          <note pan="0" pos="744" key="23" len="12" vol="195"/>
          <note pan="0" pos="756" key="23" len="12" vol="195"/>
          <note pan="0" pos="768" key="18" len="48" vol="195"/>
          <note pan="0" pos="816" key="18" len="12" vol="195"/>
          <note pan="0" pos="828" key="18" len="12" vol="195"/>
          <note pan="0" pos="840" key="18" len="12" vol="195"/>
          <note pan="0" pos="852" key="18" len="12" vol="195"/>
          <note pan="0" pos="864" key="18" len="12" vol="195"/>
          <note pan="0" pos="876" key="18" len="12" vol="195"/>
          <note pan="0" pos="888" key="18" len="12" vol="195"/>
          <note pan="0" pos="900" key="18" len="12" vol="195"/>
          <note pan="0" pos="912" key="18" len="12" vol="195"/>
          <note pan="0" pos="924" key="18" len="12" vol="195"/>
          <note pan="0" pos="936" key="18" len="12" vol="195"/>
          <note pan="0" pos="948" key="18" len="12" vol="195"/>
          <note pan="0" pos="960" key="20" len="48" vol="195"/>
          <note pan="0" pos="1008" key="20" len="12" vol="195"/>
          <note pan="0" pos="1020" key="20" len="12" vol="195"/>
          <note pan="0" pos="1032" key="20" len="12" vol="195"/>
          <note pan="0" pos="1044" key="20" len="12" vol="195"/>
          <note pan="0" pos="1056" key="20" len="12" vol="195"/>
          <note pan="0" pos="1068" key="20" len="12" vol="195"/>
          <note pan="0" pos="1080" key="20" len="12" vol="195"/>
          <note pan="0" pos="1092" key="20" len="12" vol="195"/>
          <note pan="0" pos="1104" key="20" len="12" vol="195"/>
          <note pan="0" pos="1116" key="20" len="12" vol="195"/>
          <note pan="0" pos="1128" key="20" len="12" vol="195"/>
          <note pan="0" pos="1140" key="20" len="12" vol="195"/>
          <note pan="0" pos="1152" key="21" len="48" vol="195"/>
          <note pan="0" pos="1200" key="21" len="12" vol="195"/>
          <note pan="0" pos="1212" key="21" len="12" vol="195"/>
          <note pan="0" pos="1224" key="21" len="12" vol="195"/>
          <note pan="0" pos="1236" key="21" len="12" vol="195"/>
          <note pan="0" pos="1248" key="21" len="12" vol="195"/>
          <note pan="0" pos="1260" key="21" len="12" vol="195"/>
          <note pan="0" pos="1272" key="21" len="12" vol="195"/>
          <note pan="0" pos="1284" key="21" len="12" vol="195"/>
          <note pan="0" pos="1296" key="21" len="12" vol="195"/>
          <note pan="0" pos="1308" key="21" len="12" vol="195"/>
          <note pan="0" pos="1320" key="21" len="12" vol="195"/>
          <note pan="0" pos="1332" key="21" len="12" vol="195"/>
          <note pan="0" pos="1344" key="23" len="48" vol="195"/>
          <note pan="0" pos="1392" key="23" len="12" vol="195"/>
          <note pan="0" pos="1404" key="23" len="12" vol="195"/>
          <note pan="0" pos="1416" key="23" len="12" vol="195"/>
          <note pan="0" pos="1428" key="23" len="12" vol="195"/>
          <note pan="0" pos="1440" key="24" len="48" vol="195"/>
          <note pan="0" pos="1488" key="24" len="12" vol="195"/>
          <note pan="0" pos="1500" key="24" len="12" vol="195"/>
          <note pan="0" pos="1512" key="24" len="12" vol="195"/>
          <note pan="0" pos="1524" key="24" len="12" vol="195"/>
          <note pan="0" pos="1536" key="13" len="48" vol="195"/>
          <note pan="0" pos="1584" key="13" len="12" vol="195"/>
          <note pan="0" pos="1596" key="13" len="12" vol="195"/>
          <note pan="0" pos="1608" key="13" len="12" vol="195"/>
          <note pan="0" pos="1620" key="13" len="12" vol="195"/>
          <note pan="0" pos="1632" key="13" len="12" vol="195"/>
          <note pan="0" pos="1644" key="13" len="12" vol="195"/>
          <note pan="0" pos="1656" key="13" len="12" vol="195"/>
          <note pan="0" pos="1668" key="13" len="12" vol="195"/>
          <note pan="0" pos="1680" key="13" len="12" vol="195"/>
          <note pan="0" pos="1692" key="13" len="12" vol="195"/>
          <note pan="0" pos="1704" key="13" len="12" vol="195"/>
          <note pan="0" pos="1716" key="13" len="12" vol="195"/>
          <note pan="0" pos="1728" key="23" len="48" vol="195"/>
          <note pan="0" pos="1776" key="23" len="12" vol="195"/>
          <note pan="0" pos="1788" key="23" len="12" vol="195"/>
          <note pan="0" pos="1800" key="23" len="12" vol="195"/>
          <note pan="0" pos="1812" key="23" len="12" vol="195"/>
          <note pan="0" pos="1824" key="23" len="12" vol="195"/>
          <note pan="0" pos="1836" key="23" len="12" vol="195"/>
          <note pan="0" pos="1848" key="23" len="12" vol="195"/>
          <note pan="0" pos="1860" key="23" len="12" vol="195"/>
          <note pan="0" pos="1872" key="23" len="12" vol="195"/>
          <note pan="0" pos="1884" key="23" len="12" vol="195"/>
          <note pan="0" pos="1896" key="23" len="12" vol="195"/>
          <note pan="0" pos="1908" key="23" len="12" vol="195"/>
          <note pan="0" pos="1920" key="22" len="48" vol="195"/>
          <note pan="0" pos="1968" key="22" len="12" vol="195"/>
          <note pan="0" pos="1980" key="22" len="12" vol="195"/>
          <note pan="0" pos="1992" key="22" len="12" vol="195"/>
          <note pan="0" pos="2004" key="22" len="12" vol="195"/>
          <note pan="0" pos="2016" key="22" len="12" vol="195"/>
          <note pan="0" pos="2028" key="22" len="12" vol="195"/>
          <note pan="0" pos="2040" key="22" len="12" vol="195"/>
          <note pan="0" pos="2052" key="22" len="12" vol="195"/>
          <note pan="0" pos="2064" key="22" len="12" vol="195"/>
          <note pan="0" pos="2076" key="22" len="12" vol="195"/>
          <note pan="0" pos="2088" key="22" len="12" vol="195"/>
          <note pan="0" pos="2100" key="22" len="12" vol="195"/>
          <note pan="0" pos="2112" key="18" len="48" vol="195"/>
          <note pan="0" pos="2160" key="18" len="12" vol="195"/>
          <note pan="0" pos="2172" key="18" len="12" vol="195"/>
          <note pan="0" pos="2184" key="18" len="12" vol="195"/>
          <note pan="0" pos="2196" key="18" len="12" vol="195"/>
          <note pan="0" pos="2208" key="16" len="48" vol="195"/>
          <note pan="0" pos="2256" key="16" len="12" vol="195"/>
          <note pan="0" pos="2268" key="16" len="12" vol="195"/>
          <note pan="0" pos="2280" key="16" len="12" vol="195"/>
          <note pan="0" pos="2292" key="16" len="12" vol="195"/>
          <note pan="0" pos="2304" key="14" len="48" vol="195"/>
          <note pan="0" pos="2352" key="14" len="12" vol="195"/>
          <note pan="0" pos="2364" key="14" len="12" vol="195"/>
          <note pan="0" pos="2376" key="14" len="12" vol="195"/>
          <note pan="0" pos="2388" key="14" len="12" vol="195"/>
          <note pan="0" pos="2400" key="14" len="48" vol="195"/>
          <note pan="0" pos="2448" key="14" len="12" vol="195"/>
          <note pan="0" pos="2460" key="14" len="12" vol="195"/>
          <note pan="0" pos="2472" key="14" len="12" vol="195"/>
          <note pan="0" pos="2484" key="14" len="12" vol="195"/>
          <note pan="0" pos="2496" key="21" len="48" vol="195"/>
          <note pan="0" pos="2544" key="21" len="12" vol="195"/>
          <note pan="0" pos="2556" key="21" len="12" vol="195"/>
          <note pan="0" pos="2568" key="21" len="12" vol="195"/>
          <note pan="0" pos="2580" key="21" len="12" vol="195"/>
          <note pan="0" pos="2592" key="21" len="12" vol="195"/>
          <note pan="0" pos="2604" key="21" len="12" vol="195"/>
          <note pan="0" pos="2616" key="21" len="12" vol="195"/>
          <note pan="0" pos="2628" key="21" len="12" vol="195"/>
          <note pan="0" pos="2640" key="21" len="12" vol="195"/>
          <note pan="0" pos="2652" key="21" len="12" vol="195"/>
          <note pan="0" pos="2664" key="21" len="12" vol="195"/>
          <note pan="0" pos="2676" key="21" len="12" vol="195"/>
          <note pan="0" pos="2688" key="11" len="384" vol="195"/>
        </pattern>
        <pattern type="1" pos="44160" muted="0" name="bass fender jazz (1,379kb)" steps="16">
          <note pan="0" pos="0" key="15" len="48" vol="195"/>
          <note pan="0" pos="48" key="15" len="12" vol="195"/>
          <note pan="0" pos="60" key="15" len="12" vol="195"/>
          <note pan="0" pos="72" key="15" len="12" vol="195"/>
          <note pan="0" pos="84" key="15" len="12" vol="195"/>
          <note pan="0" pos="96" key="15" len="12" vol="195"/>
          <note pan="0" pos="108" key="15" len="12" vol="195"/>
          <note pan="0" pos="120" key="15" len="12" vol="195"/>
          <note pan="0" pos="132" key="15" len="12" vol="195"/>
          <note pan="0" pos="144" key="15" len="12" vol="195"/>
          <note pan="0" pos="156" key="15" len="12" vol="195"/>
          <note pan="0" pos="168" key="15" len="12" vol="195"/>
          <note pan="0" pos="180" key="15" len="12" vol="195"/>
          <note pan="0" pos="192" key="22" len="48" vol="195"/>
          <note pan="0" pos="240" key="22" len="12" vol="195"/>
          <note pan="0" pos="252" key="22" len="12" vol="195"/>
          <note pan="0" pos="264" key="22" len="12" vol="195"/>
          <note pan="0" pos="276" key="22" len="12" vol="195"/>
          <note pan="0" pos="288" key="22" len="12" vol="195"/>
          <note pan="0" pos="300" key="22" len="12" vol="195"/>
          <note pan="0" pos="312" key="22" len="12" vol="195"/>
          <note pan="0" pos="324" key="22" len="12" vol="195"/>
          <note pan="0" pos="336" key="22" len="12" vol="195"/>
          <note pan="0" pos="348" key="22" len="12" vol="195"/>
          <note pan="0" pos="360" key="22" len="12" vol="195"/>
          <note pan="0" pos="372" key="22" len="12" vol="195"/>
          <note pan="0" pos="384" key="23" len="48" vol="195"/>
          <note pan="0" pos="432" key="23" len="12" vol="195"/>
          <note pan="0" pos="444" key="23" len="12" vol="195"/>
          <note pan="0" pos="456" key="23" len="12" vol="195"/>
          <note pan="0" pos="468" key="23" len="12" vol="195"/>
          <note pan="0" pos="480" key="23" len="12" vol="195"/>
          <note pan="0" pos="492" key="23" len="12" vol="195"/>
          <note pan="0" pos="504" key="23" len="12" vol="195"/>
          <note pan="0" pos="516" key="23" len="12" vol="195"/>
          <note pan="0" pos="528" key="23" len="12" vol="195"/>
          <note pan="0" pos="540" key="23" len="12" vol="195"/>
          <note pan="0" pos="552" key="23" len="12" vol="195"/>
          <note pan="0" pos="564" key="23" len="12" vol="195"/>
          <note pan="0" pos="576" key="25" len="48" vol="195"/>
          <note pan="0" pos="624" key="25" len="12" vol="195"/>
          <note pan="0" pos="636" key="25" len="12" vol="195"/>
          <note pan="0" pos="648" key="25" len="12" vol="195"/>
          <note pan="0" pos="660" key="25" len="12" vol="195"/>
          <note pan="0" pos="672" key="25" len="12" vol="195"/>
          <note pan="0" pos="684" key="25" len="12" vol="195"/>
          <note pan="0" pos="696" key="25" len="12" vol="195"/>
          <note pan="0" pos="708" key="25" len="12" vol="195"/>
          <note pan="0" pos="720" key="25" len="12" vol="195"/>
          <note pan="0" pos="732" key="25" len="12" vol="195"/>
          <note pan="0" pos="744" key="25" len="12" vol="195"/>
          <note pan="0" pos="756" key="25" len="12" vol="195"/>
          <note pan="0" pos="768" key="20" len="48" vol="195"/>
          <note pan="0" pos="816" key="20" len="12" vol="195"/>
          <note pan="0" pos="828" key="20" len="12" vol="195"/>
          <note pan="0" pos="840" key="20" len="12" vol="195"/>
          <note pan="0" pos="852" key="20" len="12" vol="195"/>
          <note pan="0" pos="864" key="20" len="12" vol="195"/>
          <note pan="0" pos="876" key="20" len="12" vol="195"/>
          <note pan="0" pos="888" key="20" len="12" vol="195"/>
          <note pan="0" pos="900" key="20" len="12" vol="195"/>
          <note pan="0" pos="912" key="20" len="12" vol="195"/>
          <note pan="0" pos="924" key="20" len="12" vol="195"/>
          <note pan="0" pos="936" key="20" len="12" vol="195"/>
          <note pan="0" pos="948" key="20" len="12" vol="195"/>
          <note pan="0" pos="960" key="22" len="48" vol="195"/>
          <note pan="0" pos="1008" key="22" len="12" vol="195"/>
          <note pan="0" pos="1020" key="22" len="12" vol="195"/>
          <note pan="0" pos="1032" key="22" len="12" vol="195"/>
          <note pan="0" pos="1044" key="22" len="12" vol="195"/>
          <note pan="0" pos="1056" key="22" len="12" vol="195"/>
          <note pan="0" pos="1068" key="22" len="12" vol="195"/>
          <note pan="0" pos="1080" key="22" len="12" vol="195"/>
          <note pan="0" pos="1092" key="22" len="12" vol="195"/>
          <note pan="0" pos="1104" key="22" len="12" vol="195"/>
          <note pan="0" pos="1116" key="22" len="12" vol="195"/>
          <note pan="0" pos="1128" key="22" len="12" vol="195"/>
          <note pan="0" pos="1140" key="22" len="12" vol="195"/>
          <note pan="0" pos="1152" key="23" len="48" vol="195"/>
          <note pan="0" pos="1200" key="23" len="12" vol="195"/>
          <note pan="0" pos="1212" key="23" len="12" vol="195"/>
          <note pan="0" pos="1224" key="23" len="12" vol="195"/>
          <note pan="0" pos="1236" key="23" len="12" vol="195"/>
          <note pan="0" pos="1248" key="23" len="12" vol="195"/>
          <note pan="0" pos="1260" key="23" len="12" vol="195"/>
          <note pan="0" pos="1272" key="23" len="12" vol="195"/>
          <note pan="0" pos="1284" key="23" len="12" vol="195"/>
          <note pan="0" pos="1296" key="23" len="12" vol="195"/>
          <note pan="0" pos="1308" key="23" len="12" vol="195"/>
          <note pan="0" pos="1320" key="23" len="12" vol="195"/>
          <note pan="0" pos="1332" key="23" len="12" vol="195"/>
          <note pan="0" pos="1344" key="25" len="48" vol="195"/>
          <note pan="0" pos="1392" key="25" len="12" vol="195"/>
          <note pan="0" pos="1404" key="25" len="12" vol="195"/>
          <note pan="0" pos="1416" key="25" len="12" vol="195"/>
          <note pan="0" pos="1428" key="25" len="12" vol="195"/>
          <note pan="0" pos="1440" key="26" len="12" vol="195"/>
          <note pan="0" pos="1452" key="23" len="12" vol="195"/>
          <note pan="0" pos="1464" key="22" len="12" vol="195"/>
          <note pan="0" pos="1476" key="20" len="12" vol="195"/>
          <note pan="0" pos="1488" key="23" len="12" vol="195"/>
          <note pan="0" pos="1500" key="22" len="12" vol="195"/>
          <note pan="0" pos="1512" key="20" len="12" vol="195"/>
          <note pan="0" pos="1524" key="18" len="12" vol="195"/>
          <note pan="0" pos="1536" key="15" len="48" vol="195"/>
          <note pan="0" pos="1584" key="15" len="12" vol="195"/>
          <note pan="0" pos="1596" key="15" len="12" vol="195"/>
          <note pan="0" pos="1608" key="15" len="12" vol="195"/>
          <note pan="0" pos="1620" key="15" len="12" vol="195"/>
          <note pan="0" pos="1632" key="15" len="12" vol="195"/>
          <note pan="0" pos="1644" key="15" len="12" vol="195"/>
          <note pan="0" pos="1656" key="15" len="12" vol="195"/>
          <note pan="0" pos="1668" key="15" len="12" vol="195"/>
          <note pan="0" pos="1680" key="15" len="12" vol="195"/>
          <note pan="0" pos="1692" key="15" len="12" vol="195"/>
          <note pan="0" pos="1704" key="15" len="12" vol="195"/>
          <note pan="0" pos="1716" key="15" len="12" vol="195"/>
          <note pan="0" pos="1728" key="25" len="48" vol="195"/>
          <note pan="0" pos="1776" key="25" len="12" vol="195"/>
          <note pan="0" pos="1788" key="25" len="12" vol="195"/>
          <note pan="0" pos="1800" key="25" len="12" vol="195"/>
          <note pan="0" pos="1812" key="25" len="12" vol="195"/>
          <note pan="0" pos="1824" key="25" len="12" vol="195"/>
          <note pan="0" pos="1836" key="25" len="12" vol="195"/>
          <note pan="0" pos="1848" key="25" len="12" vol="195"/>
          <note pan="0" pos="1860" key="25" len="12" vol="195"/>
          <note pan="0" pos="1872" key="25" len="12" vol="195"/>
          <note pan="0" pos="1884" key="25" len="12" vol="195"/>
          <note pan="0" pos="1896" key="25" len="12" vol="195"/>
          <note pan="0" pos="1908" key="25" len="12" vol="195"/>
          <note pan="0" pos="1920" key="24" len="48" vol="195"/>
          <note pan="0" pos="1968" key="24" len="12" vol="195"/>
          <note pan="0" pos="1980" key="24" len="12" vol="195"/>
          <note pan="0" pos="1992" key="24" len="12" vol="195"/>
          <note pan="0" pos="2004" key="24" len="12" vol="195"/>
          <note pan="0" pos="2016" key="24" len="12" vol="195"/>
          <note pan="0" pos="2028" key="24" len="12" vol="195"/>
          <note pan="0" pos="2040" key="24" len="12" vol="195"/>
          <note pan="0" pos="2052" key="24" len="12" vol="195"/>
          <note pan="0" pos="2064" key="24" len="12" vol="195"/>
          <note pan="0" pos="2076" key="24" len="12" vol="195"/>
          <note pan="0" pos="2088" key="24" len="12" vol="195"/>
          <note pan="0" pos="2100" key="24" len="12" vol="195"/>
          <note pan="0" pos="2112" key="20" len="48" vol="195"/>
          <note pan="0" pos="2160" key="20" len="12" vol="195"/>
          <note pan="0" pos="2172" key="20" len="12" vol="195"/>
          <note pan="0" pos="2184" key="20" len="12" vol="195"/>
          <note pan="0" pos="2196" key="20" len="12" vol="195"/>
          <note pan="0" pos="2208" key="18" len="48" vol="195"/>
          <note pan="0" pos="2256" key="18" len="12" vol="195"/>
          <note pan="0" pos="2268" key="18" len="12" vol="195"/>
          <note pan="0" pos="2280" key="18" len="12" vol="195"/>
          <note pan="0" pos="2292" key="18" len="12" vol="195"/>
          <note pan="0" pos="2304" key="16" len="48" vol="195"/>
          <note pan="0" pos="2352" key="16" len="12" vol="195"/>
          <note pan="0" pos="2364" key="16" len="12" vol="195"/>
          <note pan="0" pos="2376" key="16" len="12" vol="195"/>
          <note pan="0" pos="2388" key="16" len="12" vol="195"/>
          <note pan="0" pos="2400" key="16" len="48" vol="195"/>
          <note pan="0" pos="2448" key="16" len="12" vol="195"/>
          <note pan="0" pos="2460" key="16" len="12" vol="195"/>
          <note pan="0" pos="2472" key="16" len="12" vol="195"/>
          <note pan="0" pos="2484" key="16" len="12" vol="195"/>
          <note pan="0" pos="2496" key="23" len="48" vol="195"/>
          <note pan="0" pos="2544" key="23" len="12" vol="195"/>
          <note pan="0" pos="2556" key="23" len="12" vol="195"/>
          <note pan="0" pos="2568" key="23" len="12" vol="195"/>
          <note pan="0" pos="2580" key="23" len="12" vol="195"/>
          <note pan="0" pos="2592" key="23" len="12" vol="195"/>
          <note pan="0" pos="2604" key="23" len="12" vol="195"/>
          <note pan="0" pos="2616" key="23" len="12" vol="195"/>
          <note pan="0" pos="2628" key="23" len="12" vol="195"/>
          <note pan="0" pos="2640" key="23" len="12" vol="195"/>
          <note pan="0" pos="2652" key="23" len="12" vol="195"/>
          <note pan="0" pos="2664" key="23" len="12" vol="195"/>
          <note pan="0" pos="2676" key="23" len="12" vol="195"/>
          <note pan="0" pos="2688" key="25" len="48" vol="195"/>
          <note pan="0" pos="2736" key="25" len="12" vol="195"/>
          <note pan="0" pos="2748" key="25" len="12" vol="195"/>
          <note pan="0" pos="2760" key="25" len="12" vol="195"/>
          <note pan="0" pos="2772" key="25" len="12" vol="195"/>
          <note pan="0" pos="2784" key="25" len="12" vol="195"/>
          <note pan="0" pos="2796" key="25" len="12" vol="195"/>
          <note pan="0" pos="2808" key="25" len="12" vol="195"/>
          <note pan="0" pos="2820" key="25" len="12" vol="195"/>
          <note pan="0" pos="2832" key="25" len="12" vol="195"/>
          <note pan="0" pos="2844" key="25" len="12" vol="195"/>
          <note pan="0" pos="2856" key="25" len="12" vol="195"/>
          <note pan="0" pos="2868" key="25" len="12" vol="195"/>
          <note pan="0" pos="2880" key="25" len="12" vol="195"/>
          <note pan="0" pos="2892" key="23" len="12" vol="195"/>
          <note pan="0" pos="2904" key="22" len="12" vol="195"/>
          <note pan="0" pos="2916" key="20" len="12" vol="195"/>
          <note pan="0" pos="2928" key="23" len="12" vol="195"/>
          <note pan="0" pos="2940" key="22" len="12" vol="195"/>
          <note pan="0" pos="2952" key="20" len="12" vol="195"/>
          <note pan="0" pos="2964" key="18" len="12" vol="195"/>
          <note pan="0" pos="2976" key="22" len="12" vol="195"/>
          <note pan="0" pos="2988" key="20" len="12" vol="195"/>
          <note pan="0" pos="3000" key="18" len="12" vol="195"/>
          <note pan="0" pos="3012" key="17" len="12" vol="195"/>
          <note pan="0" pos="3024" key="20" len="12" vol="195"/>
          <note pan="0" pos="3036" key="18" len="12" vol="195"/>
          <note pan="0" pos="3048" key="17" len="12" vol="195"/>
          <note pan="0" pos="3060" key="18" len="12" vol="195"/>
        </pattern>
        <pattern type="1" pos="43776" muted="0" name="bass fender jazz (1,379kb)" steps="16">
          <note pan="0" pos="96" key="9" len="96" vol="200"/>
          <note pan="0" pos="192" key="11" len="96" vol="200"/>
          <note pan="0" pos="288" key="13" len="96" vol="200"/>
        </pattern>
        <pattern type="1" pos="47232" muted="0" name="bass fender jazz (1,379kb)" steps="16">
          <note pan="0" pos="0" key="15" len="48" vol="195"/>
          <note pan="0" pos="48" key="15" len="12" vol="195"/>
          <note pan="0" pos="60" key="15" len="12" vol="195"/>
          <note pan="0" pos="72" key="15" len="12" vol="195"/>
          <note pan="0" pos="84" key="15" len="12" vol="195"/>
          <note pan="0" pos="96" key="15" len="12" vol="195"/>
          <note pan="0" pos="108" key="15" len="12" vol="195"/>
          <note pan="0" pos="120" key="15" len="12" vol="195"/>
          <note pan="0" pos="132" key="15" len="12" vol="195"/>
          <note pan="0" pos="144" key="15" len="12" vol="195"/>
          <note pan="0" pos="156" key="15" len="12" vol="195"/>
          <note pan="0" pos="168" key="15" len="12" vol="195"/>
          <note pan="0" pos="180" key="15" len="12" vol="195"/>
          <note pan="0" pos="192" key="22" len="48" vol="195"/>
          <note pan="0" pos="240" key="22" len="12" vol="195"/>
          <note pan="0" pos="252" key="22" len="12" vol="195"/>
          <note pan="0" pos="264" key="22" len="12" vol="195"/>
          <note pan="0" pos="276" key="22" len="12" vol="195"/>
          <note pan="0" pos="288" key="22" len="12" vol="195"/>
          <note pan="0" pos="300" key="22" len="12" vol="195"/>
          <note pan="0" pos="312" key="22" len="12" vol="195"/>
          <note pan="0" pos="324" key="22" len="12" vol="195"/>
          <note pan="0" pos="336" key="22" len="12" vol="195"/>
          <note pan="0" pos="348" key="22" len="12" vol="195"/>
          <note pan="0" pos="360" key="22" len="12" vol="195"/>
          <note pan="0" pos="372" key="22" len="12" vol="195"/>
          <note pan="0" pos="384" key="23" len="48" vol="195"/>
          <note pan="0" pos="432" key="23" len="12" vol="195"/>
          <note pan="0" pos="444" key="23" len="12" vol="195"/>
          <note pan="0" pos="456" key="23" len="12" vol="195"/>
          <note pan="0" pos="468" key="23" len="12" vol="195"/>
          <note pan="0" pos="480" key="23" len="12" vol="195"/>
          <note pan="0" pos="492" key="23" len="12" vol="195"/>
          <note pan="0" pos="504" key="23" len="12" vol="195"/>
          <note pan="0" pos="516" key="23" len="12" vol="195"/>
          <note pan="0" pos="528" key="23" len="12" vol="195"/>
          <note pan="0" pos="540" key="23" len="12" vol="195"/>
          <note pan="0" pos="552" key="23" len="12" vol="195"/>
          <note pan="0" pos="564" key="23" len="12" vol="195"/>
          <note pan="0" pos="576" key="25" len="48" vol="195"/>
          <note pan="0" pos="624" key="25" len="12" vol="195"/>
          <note pan="0" pos="636" key="25" len="12" vol="195"/>
          <note pan="0" pos="648" key="25" len="12" vol="195"/>
          <note pan="0" pos="660" key="25" len="12" vol="195"/>
          <note pan="0" pos="672" key="25" len="12" vol="195"/>
          <note pan="0" pos="684" key="25" len="12" vol="195"/>
          <note pan="0" pos="696" key="25" len="12" vol="195"/>
          <note pan="0" pos="708" key="25" len="12" vol="195"/>
          <note pan="0" pos="720" key="25" len="12" vol="195"/>
          <note pan="0" pos="732" key="25" len="12" vol="195"/>
          <note pan="0" pos="744" key="25" len="12" vol="195"/>
          <note pan="0" pos="756" key="25" len="12" vol="195"/>
          <note pan="0" pos="768" key="20" len="48" vol="195"/>
          <note pan="0" pos="816" key="20" len="12" vol="195"/>
          <note pan="0" pos="828" key="20" len="12" vol="195"/>
          <note pan="0" pos="840" key="20" len="12" vol="195"/>
          <note pan="0" pos="852" key="20" len="12" vol="195"/>
          <note pan="0" pos="864" key="20" len="12" vol="195"/>
          <note pan="0" pos="876" key="20" len="12" vol="195"/>
          <note pan="0" pos="888" key="20" len="12" vol="195"/>
          <note pan="0" pos="900" key="20" len="12" vol="195"/>
          <note pan="0" pos="912" key="20" len="12" vol="195"/>
          <note pan="0" pos="924" key="20" len="12" vol="195"/>
          <note pan="0" pos="936" key="20" len="12" vol="195"/>
          <note pan="0" pos="948" key="20" len="12" vol="195"/>
          <note pan="0" pos="960" key="22" len="48" vol="195"/>
          <note pan="0" pos="1008" key="22" len="12" vol="195"/>
          <note pan="0" pos="1020" key="22" len="12" vol="195"/>
          <note pan="0" pos="1032" key="22" len="12" vol="195"/>
          <note pan="0" pos="1044" key="22" len="12" vol="195"/>
          <note pan="0" pos="1056" key="22" len="12" vol="195"/>
          <note pan="0" pos="1068" key="22" len="12" vol="195"/>
          <note pan="0" pos="1080" key="22" len="12" vol="195"/>
          <note pan="0" pos="1092" key="22" len="12" vol="195"/>
          <note pan="0" pos="1104" key="22" len="12" vol="195"/>
          <note pan="0" pos="1116" key="22" len="12" vol="195"/>
          <note pan="0" pos="1128" key="22" len="12" vol="195"/>
          <note pan="0" pos="1140" key="22" len="12" vol="195"/>
          <note pan="0" pos="1152" key="23" len="48" vol="195"/>
          <note pan="0" pos="1200" key="23" len="12" vol="195"/>
          <note pan="0" pos="1212" key="23" len="12" vol="195"/>
          <note pan="0" pos="1224" key="23" len="12" vol="195"/>
          <note pan="0" pos="1236" key="23" len="12" vol="195"/>
          <note pan="0" pos="1248" key="23" len="12" vol="195"/>
          <note pan="0" pos="1260" key="23" len="12" vol="195"/>
          <note pan="0" pos="1272" key="23" len="12" vol="195"/>
          <note pan="0" pos="1284" key="23" len="12" vol="195"/>
          <note pan="0" pos="1296" key="23" len="12" vol="195"/>
          <note pan="0" pos="1308" key="23" len="12" vol="195"/>
          <note pan="0" pos="1320" key="23" len="12" vol="195"/>
          <note pan="0" pos="1332" key="23" len="12" vol="195"/>
          <note pan="0" pos="1344" key="25" len="48" vol="195"/>
          <note pan="0" pos="1392" key="25" len="12" vol="195"/>
          <note pan="0" pos="1404" key="25" len="12" vol="195"/>
          <note pan="0" pos="1416" key="25" len="12" vol="195"/>
          <note pan="0" pos="1428" key="25" len="12" vol="195"/>
          <note pan="0" pos="1440" key="26" len="48" vol="195"/>
          <note pan="0" pos="1488" key="26" len="12" vol="195"/>
          <note pan="0" pos="1500" key="26" len="12" vol="195"/>
          <note pan="0" pos="1512" key="26" len="12" vol="195"/>
          <note pan="0" pos="1524" key="26" len="12" vol="195"/>
          <note pan="0" pos="1536" key="15" len="48" vol="195"/>
          <note pan="0" pos="1584" key="15" len="12" vol="195"/>
          <note pan="0" pos="1596" key="15" len="12" vol="195"/>
          <note pan="0" pos="1608" key="15" len="12" vol="195"/>
          <note pan="0" pos="1620" key="15" len="12" vol="195"/>
          <note pan="0" pos="1632" key="15" len="12" vol="195"/>
          <note pan="0" pos="1644" key="15" len="12" vol="195"/>
          <note pan="0" pos="1656" key="15" len="12" vol="195"/>
          <note pan="0" pos="1668" key="15" len="12" vol="195"/>
          <note pan="0" pos="1680" key="15" len="12" vol="195"/>
          <note pan="0" pos="1692" key="15" len="12" vol="195"/>
          <note pan="0" pos="1704" key="15" len="12" vol="195"/>
          <note pan="0" pos="1716" key="15" len="12" vol="195"/>
          <note pan="0" pos="1728" key="25" len="48" vol="195"/>
          <note pan="0" pos="1776" key="25" len="12" vol="195"/>
          <note pan="0" pos="1788" key="25" len="12" vol="195"/>
          <note pan="0" pos="1800" key="25" len="12" vol="195"/>
          <note pan="0" pos="1812" key="25" len="12" vol="195"/>
          <note pan="0" pos="1824" key="25" len="12" vol="195"/>
          <note pan="0" pos="1836" key="25" len="12" vol="195"/>
          <note pan="0" pos="1848" key="25" len="12" vol="195"/>
          <note pan="0" pos="1860" key="25" len="12" vol="195"/>
          <note pan="0" pos="1872" key="25" len="12" vol="195"/>
          <note pan="0" pos="1884" key="25" len="12" vol="195"/>
          <note pan="0" pos="1896" key="25" len="12" vol="195"/>
          <note pan="0" pos="1908" key="25" len="12" vol="195"/>
          <note pan="0" pos="1920" key="24" len="48" vol="195"/>
          <note pan="0" pos="1968" key="24" len="12" vol="195"/>
          <note pan="0" pos="1980" key="24" len="12" vol="195"/>
          <note pan="0" pos="1992" key="24" len="12" vol="195"/>
          <note pan="0" pos="2004" key="24" len="12" vol="195"/>
          <note pan="0" pos="2016" key="24" len="12" vol="195"/>
          <note pan="0" pos="2028" key="24" len="12" vol="195"/>
          <note pan="0" pos="2040" key="24" len="12" vol="195"/>
          <note pan="0" pos="2052" key="24" len="12" vol="195"/>
          <note pan="0" pos="2064" key="24" len="12" vol="195"/>
          <note pan="0" pos="2076" key="24" len="12" vol="195"/>
          <note pan="0" pos="2088" key="24" len="12" vol="195"/>
          <note pan="0" pos="2100" key="24" len="12" vol="195"/>
          <note pan="0" pos="2112" key="20" len="48" vol="195"/>
          <note pan="0" pos="2160" key="20" len="12" vol="195"/>
          <note pan="0" pos="2172" key="20" len="12" vol="195"/>
          <note pan="0" pos="2184" key="20" len="12" vol="195"/>
          <note pan="0" pos="2196" key="20" len="12" vol="195"/>
          <note pan="0" pos="2208" key="18" len="48" vol="195"/>
          <note pan="0" pos="2256" key="18" len="12" vol="195"/>
          <note pan="0" pos="2268" key="18" len="12" vol="195"/>
          <note pan="0" pos="2280" key="18" len="12" vol="195"/>
          <note pan="0" pos="2292" key="18" len="12" vol="195"/>
          <note pan="0" pos="2304" key="16" len="48" vol="195"/>
          <note pan="0" pos="2352" key="16" len="12" vol="195"/>
          <note pan="0" pos="2364" key="16" len="12" vol="195"/>
          <note pan="0" pos="2376" key="16" len="12" vol="195"/>
          <note pan="0" pos="2388" key="16" len="12" vol="195"/>
          <note pan="0" pos="2400" key="16" len="48" vol="195"/>
          <note pan="0" pos="2448" key="16" len="12" vol="195"/>
          <note pan="0" pos="2460" key="16" len="12" vol="195"/>
          <note pan="0" pos="2472" key="16" len="12" vol="195"/>
          <note pan="0" pos="2484" key="16" len="12" vol="195"/>
          <note pan="0" pos="2496" key="23" len="48" vol="195"/>
          <note pan="0" pos="2544" key="23" len="12" vol="195"/>
          <note pan="0" pos="2556" key="23" len="12" vol="195"/>
          <note pan="0" pos="2568" key="23" len="12" vol="195"/>
          <note pan="0" pos="2580" key="23" len="12" vol="195"/>
          <note pan="0" pos="2592" key="23" len="12" vol="195"/>
          <note pan="0" pos="2604" key="23" len="12" vol="195"/>
          <note pan="0" pos="2616" key="23" len="12" vol="195"/>
          <note pan="0" pos="2628" key="23" len="12" vol="195"/>
          <note pan="0" pos="2640" key="23" len="12" vol="195"/>
          <note pan="0" pos="2652" key="23" len="12" vol="195"/>
          <note pan="0" pos="2664" key="23" len="12" vol="195"/>
          <note pan="0" pos="2676" key="23" len="12" vol="195"/>
          <note pan="0" pos="2688" key="25" len="48" vol="195"/>
          <note pan="0" pos="2736" key="25" len="12" vol="195"/>
          <note pan="0" pos="2748" key="25" len="12" vol="195"/>
          <note pan="0" pos="2760" key="25" len="12" vol="195"/>
          <note pan="0" pos="2772" key="25" len="12" vol="195"/>
          <note pan="0" pos="2784" key="25" len="12" vol="195"/>
          <note pan="0" pos="2796" key="25" len="12" vol="195"/>
          <note pan="0" pos="2808" key="25" len="12" vol="195"/>
          <note pan="0" pos="2820" key="25" len="12" vol="195"/>
          <note pan="0" pos="2832" key="25" len="12" vol="195"/>
          <note pan="0" pos="2844" key="25" len="12" vol="195"/>
          <note pan="0" pos="2856" key="25" len="12" vol="195"/>
          <note pan="0" pos="2868" key="25" len="12" vol="195"/>
          <note pan="0" pos="2880" key="25" len="12" vol="195"/>
          <note pan="0" pos="2892" key="23" len="12" vol="195"/>
          <note pan="0" pos="2904" key="22" len="12" vol="195"/>
          <note pan="0" pos="2916" key="20" len="12" vol="195"/>
          <note pan="0" pos="2928" key="23" len="12" vol="195"/>
          <note pan="0" pos="2940" key="22" len="12" vol="195"/>
          <note pan="0" pos="2952" key="20" len="12" vol="195"/>
          <note pan="0" pos="2964" key="18" len="12" vol="195"/>
          <note pan="0" pos="2976" key="22" len="12" vol="195"/>
          <note pan="0" pos="2988" key="20" len="12" vol="195"/>
          <note pan="0" pos="3000" key="18" len="12" vol="195"/>
          <note pan="0" pos="3012" key="17" len="12" vol="195"/>
          <note pan="0" pos="3024" key="20" len="12" vol="195"/>
          <note pan="0" pos="3036" key="18" len="12" vol="195"/>
          <note pan="0" pos="3048" key="17" len="12" vol="195"/>
          <note pan="0" pos="3060" key="18" len="12" vol="195"/>
        </pattern>
      </track>
      <track type="0" muted="0" name="Carla Patchbay" solo="0">
        <instrumenttrack pan="0" pitch="0" basenote="57" usemasterpitch="1" vol="48" fxch="0" pitchrange="1">
          <instrument name="carlapatchbay">
            <carlapatchbay>
              <CARLA-PROJECT VERSION="2.0">
                <EngineSettings>
                  <ForceStereo>false</ForceStereo>
                  <PreferPluginBridges>false</PreferPluginBridges>
                  <PreferUiBridges>true</PreferUiBridges>
                  <UIsAlwaysOnTop>false</UIsAlwaysOnTop>
                  <MaxParameters>200</MaxParameters>
                  <UIBridgesTimeout>4000</UIBridgesTimeout>
                  <LADSPA_PATH>/home/huggypie/.ladspa:/usr/lib/ladspa:/usr/local/lib/ladspa</LADSPA_PATH>
                  <DSSI_PATH>/home/huggypie/.dssi:/usr/lib/dssi:/usr/local/lib/dssi</DSSI_PATH>
                  <LV2_PATH>/home/huggypie/.lv2:/usr/lib/lv2:/usr/local/lib/lv2</LV2_PATH>
                  <VST2_PATH>/home/huggypie/.vst:/home/huggypie/.wine/drive_c/Program Files/VstPlugins:/usr/lib/lxvst:/usr/lib/vst:/usr/local/lib/lxvst:/usr/local/lib/vst/home/huggypie/.lxvst</VST2_PATH>
                  <VST3_PATH>/home/huggypie/.vst3:/home/huggypie/.wine/drive_c/Program Files/Common Files/VST3:/usr/lib/vst3:/usr/local/lib/vst3</VST3_PATH>
                  <SF2_PATH>/home/huggypie/.sounds/sf2/home/huggypie/.sounds/sf3:/home/huggypie/samples/soundfonts:/usr/share/soundfonts:/usr/share/sounds/sf2:/usr/share/sounds/sf3</SF2_PATH>
                  <SFZ_PATH>/home/huggypie/.sounds/sfz:/home/huggypie/samples:/home/huggypie/samples:/home/huggypie/samples/VSCO-2-CE-SFZ/VSCO-2-CE-SFZ:/usr/share/sounds/sfz</SFZ_PATH>
                </EngineSettings>
                <!-- liquidsfz -->
                <Plugin>
                  <Info>
                    <Type>LV2</Type>
                    <Name>liquidsfz</Name>
                    <URI>http://spectmorph.org/plugins/liquidsfz</URI>
                  </Info>
                  <Data>
                    <Active>Yes</Active>
                    <ControlChannel>1</ControlChannel>
                    <Options>0x3f0</Options>
                    <Parameter>
                      <Index>0</Index>
                      <Name>Output Level</Name>
                      <Symbol>level</Symbol>
                      <Value>0</Value>
                    </Parameter>
                    <CustomData>
                      <Type>http://lv2plug.in/ns/ext/atom#Path</Type>
                      <Key>http://spectmorph.org/plugins/liquidsfz#sfzfile</Key>
                      <Value>../samples/sonatina-symphonic-orchestra-1.0/Sonatina Symphonic Orchestra/Concert Harp.sfz</Value>
                    </CustomData>
                  </Data>
                </Plugin>
                <Patchbay>
                  <Connection>
                    <Source>Midi Input:Capture 1</Source>
                    <Target>liquidsfz:events-in</Target>
                  </Connection>
                  <Connection>
                    <Source>liquidsfz:Left Output</Source>
                    <Target>Audio Output:Left</Target>
                  </Connection>
                  <Connection>
                    <Source>liquidsfz:Right Output</Source>
                    <Target>Audio Output:Right</Target>
                  </Connection>
                </Patchbay>
              </CARLA-PROJECT>
            </carlapatchbay>
          </instrument>
          <eldata fres="0.5" fcut="14000" fwet="0" ftype="0">
            <elvol lspd_numerator="4" userwavefile="" lshp="0" x100="0" amt="0" lspd_syncmode="0" ctlenvamt="0" dec="0.5" hold="0.5" lspd_denominator="4" sustain="0.5" lamt="0" lspd="0.1" pdel="0" att="0" lpdel="0" latt="0" rel="0.1"/>
            <elcut lspd_numerator="4" userwavefile="" lshp="0" x100="0" amt="0" lspd_syncmode="0" ctlenvamt="0" dec="0.5" hold="0.5" lspd_denominator="4" sustain="0.5" lamt="0" lspd="0.1" pdel="0" att="0" lpdel="0" latt="0" rel="0.1"/>
            <elres lspd_numerator="4" userwavefile="" lshp="0" x100="0" amt="0" lspd_syncmode="0" ctlenvamt="0" dec="0.5" hold="0.5" lspd_denominator="4" sustain="0.5" lamt="0" lspd="0.1" pdel="0" att="0" lpdel="0" latt="0" rel="0.1"/>
          </eldata>
          <chordcreator chordrange="1" chord="0" chord-enabled="0"/>
          <arpeggiator arpskip="0" arpmiss="0" arp-enabled="0" arpgate="100" arpdir="0" arpcycle="0" arprange="1" arptime_numerator="4" arptime_denominator="4" arptime_syncmode="0" arptime="200" arp="0" arpmode="0"/>
          <midiport outputcontroller="0" inputchannel="0" outputchannel="1" fixedoutputvelocity="-1" readable="0" inputcontroller="0" basevelocity="63" fixedoutputnote="-1" fixedinputvelocity="-1" outputprogram="1" writable="0"/>
          <fxchain enabled="0" numofeffects="0"/>
        </instrumenttrack>
        <pattern type="1" pos="42624" muted="0" name="Carla Patchbay" steps="16">
          <note pan="0" pos="0" key="73" len="144" vol="200"/>
          <note pan="0" pos="0" key="61" len="48" vol="200"/>
          <note pan="0" pos="48" key="64" len="48" vol="200"/>
          <note pan="0" pos="96" key="68" len="48" vol="200"/>
          <note pan="0" pos="144" key="76" len="48" vol="200"/>
          <note pan="0" pos="144" key="73" len="48" vol="200"/>
          <note pan="0" pos="192" key="75" len="144" vol="200"/>
          <note pan="0" pos="192" key="71" len="48" vol="200"/>
          <note pan="0" pos="240" key="66" len="48" vol="200"/>
          <note pan="0" pos="288" key="71" len="48" vol="200"/>
          <note pan="0" pos="336" key="80" len="48" vol="200"/>
          <note pan="0" pos="336" key="75" len="48" vol="200"/>
          <note pan="0" pos="384" key="80" len="144" vol="200"/>
          <note pan="0" pos="384" key="76" len="48" vol="200"/>
          <note pan="0" pos="432" key="69" len="48" vol="200"/>
          <note pan="0" pos="480" key="73" len="48" vol="200"/>
          <note pan="0" pos="528" key="78" len="24" vol="200"/>
          <note pan="0" pos="528" key="64" len="48" vol="200"/>
          <note pan="0" pos="552" key="76" len="24" vol="200"/>
          <note pan="0" pos="576" key="75" len="48" vol="200"/>
          <note pan="0" pos="576" key="66" len="48" vol="200"/>
          <note pan="0" pos="624" key="76" len="48" vol="200"/>
          <note pan="0" pos="624" key="63" len="48" vol="200"/>
          <note pan="0" pos="672" key="71" len="48" vol="200"/>
          <note pan="0" pos="672" key="66" len="48" vol="200"/>
          <note pan="0" pos="720" key="68" len="48" vol="200"/>
          <note pan="0" pos="720" key="59" len="48" vol="200"/>
          <note pan="0" pos="768" key="69" len="96" vol="200"/>
          <note pan="0" pos="768" key="61" len="48" vol="200"/>
          <note pan="0" pos="816" key="66" len="48" vol="200"/>
          <note pan="0" pos="864" key="73" len="48" vol="200"/>
          <note pan="0" pos="864" key="69" len="48" vol="200"/>
          <note pan="0" pos="912" key="76" len="48" vol="200"/>
          <note pan="0" pos="912" key="66" len="48" vol="200"/>
          <note pan="0" pos="960" key="76" len="96" vol="200"/>
          <note pan="0" pos="960" key="68" len="48" vol="200"/>
          <note pan="0" pos="1008" key="71" len="48" vol="200"/>
          <note pan="0" pos="1056" key="75" len="48" vol="200"/>
          <note pan="0" pos="1056" key="68" len="48" vol="200"/>
          <note pan="0" pos="1104" key="76" len="48" vol="200"/>
          <note pan="0" pos="1104" key="63" len="48" vol="200"/>
          <note pan="0" pos="1152" key="83" len="72" vol="200"/>
          <note pan="0" pos="1152" key="69" len="48" vol="200"/>
        </pattern>
        <pattern type="0" pos="5376" muted="0" name="Carla Patchbay" steps="16"/>
      </track>
      <track type="0" muted="1" name="Orchestra Soundfont 2 COMBO" solo="0">
        <instrumenttrack pan="0" pitch="0" basenote="57" usemasterpitch="1" vol="100" fxch="0" pitchrange="2">
          <instrument name="sf2player">
            <sf2player chorusLevel="2" reverbRoomSize="0.2" reverbLevel="0.9" chorusDepth="8" reverbDamping="0" patch="0" chorusOn="0" chorusSpeed="0.3" gain="5" chorusNum="3" bank="0" reverbWidth="0.5" reverbOn="0" src="/home/huggypie/samples/soundfonts/Orchestra Soundfont 2 COMBO.sf2"/>
          </instrument>
          <eldata fres="0.5" fcut="14000" fwet="0" ftype="0">
            <elvol lspd_numerator="4" userwavefile="" lshp="0" x100="0" amt="0" lspd_syncmode="0" ctlenvamt="0" dec="0.5" hold="0.5" lspd_denominator="4" sustain="0.5" lamt="0" lspd="0.1" pdel="0" att="0" lpdel="0" latt="0" rel="0.1"/>
            <elcut lspd_numerator="4" userwavefile="" lshp="0" x100="0" amt="0" lspd_syncmode="0" ctlenvamt="0" dec="0.5" hold="0.5" lspd_denominator="4" sustain="0.5" lamt="0" lspd="0.1" pdel="0" att="0" lpdel="0" latt="0" rel="0.1"/>
            <elres lspd_numerator="4" userwavefile="" lshp="0" x100="0" amt="0" lspd_syncmode="0" ctlenvamt="0" dec="0.5" hold="0.5" lspd_denominator="4" sustain="0.5" lamt="0" lspd="0.1" pdel="0" att="0" lpdel="0" latt="0" rel="0.1"/>
          </eldata>
          <chordcreator chordrange="1" chord="0" chord-enabled="0"/>
          <arpeggiator arpskip="0" arpmiss="0" arp-enabled="0" arpgate="100" arpdir="0" arpcycle="0" arprange="1" arptime_numerator="4" arptime_denominator="4" arptime_syncmode="0" arptime="200" arp="0" arpmode="0"/>
          <midiport outputcontroller="0" inputchannel="0" outputchannel="1" fixedoutputvelocity="-1" readable="0" inputcontroller="0" basevelocity="63" fixedoutputnote="-1" fixedinputvelocity="-1" outputprogram="1" writable="0"/>
          <fxchain enabled="0" numofeffects="0"/>
        </instrumenttrack>
        <pattern type="1" pos="8064" muted="0" name="Orchestra Soundfont 2 COMBO" steps="16">
          <note pan="0" pos="0" key="61" len="24" vol="78"/>
          <note pan="0" pos="24" key="68" len="24" vol="78"/>
          <note pan="0" pos="48" key="73" len="24" vol="78"/>
          <note pan="0" pos="72" key="68" len="24" vol="78"/>
          <note pan="0" pos="96" key="76" len="24" vol="78"/>
          <note pan="0" pos="120" key="68" len="24" vol="78"/>
          <note pan="0" pos="144" key="73" len="24" vol="78"/>
          <note pan="0" pos="168" key="68" len="24" vol="78"/>
          <note pan="0" pos="192" key="63" len="24" vol="78"/>
          <note pan="0" pos="216" key="68" len="24" vol="78"/>
          <note pan="0" pos="240" key="71" len="24" vol="78"/>
          <note pan="0" pos="264" key="68" len="24" vol="78"/>
          <note pan="0" pos="288" key="63" len="24" vol="78"/>
          <note pan="0" pos="312" key="68" len="24" vol="78"/>
          <note pan="0" pos="336" key="71" len="24" vol="78"/>
          <note pan="0" pos="360" key="68" len="24" vol="78"/>
          <note pan="0" pos="384" key="64" len="24" vol="78"/>
          <note pan="0" pos="408" key="68" len="24" vol="78"/>
          <note pan="0" pos="432" key="73" len="24" vol="78"/>
          <note pan="0" pos="456" key="68" len="24" vol="78"/>
          <note pan="0" pos="480" key="64" len="24" vol="78"/>
          <note pan="0" pos="504" key="68" len="24" vol="78"/>
          <note pan="0" pos="528" key="73" len="24" vol="78"/>
          <note pan="0" pos="552" key="68" len="24" vol="78"/>
          <note pan="0" pos="576" key="66" len="24" vol="78"/>
          <note pan="0" pos="600" key="71" len="24" vol="78"/>
          <note pan="0" pos="624" key="76" len="24" vol="78"/>
          <note pan="0" pos="648" key="71" len="24" vol="78"/>
          <note pan="0" pos="672" key="66" len="24" vol="78"/>
          <note pan="0" pos="696" key="71" len="24" vol="78"/>
          <note pan="0" pos="720" key="75" len="24" vol="78"/>
          <note pan="0" pos="744" key="71" len="24" vol="78"/>
          <note pan="0" pos="768" key="64" len="24" vol="78"/>
          <note pan="0" pos="792" key="68" len="24" vol="78"/>
          <note pan="0" pos="816" key="73" len="24" vol="78"/>
          <note pan="0" pos="840" key="68" len="24" vol="78"/>
          <note pan="0" pos="864" key="64" len="24" vol="78"/>
          <note pan="0" pos="888" key="68" len="24" vol="78"/>
          <note pan="0" pos="912" key="73" len="24" vol="78"/>
          <note pan="0" pos="936" key="68" len="24" vol="78"/>
          <note pan="0" pos="960" key="63" len="24" vol="78"/>
          <note pan="0" pos="984" key="66" len="24" vol="78"/>
          <note pan="0" pos="1008" key="71" len="24" vol="78"/>
          <note pan="0" pos="1032" key="66" len="24" vol="78"/>
          <note pan="0" pos="1056" key="63" len="24" vol="78"/>
          <note pan="0" pos="1080" key="66" len="24" vol="78"/>
          <note pan="0" pos="1104" key="71" len="24" vol="78"/>
          <note pan="0" pos="1128" key="66" len="24" vol="78"/>
          <note pan="0" pos="1152" key="64" len="24" vol="78"/>
          <note pan="0" pos="1176" key="68" len="24" vol="78"/>
          <note pan="0" pos="1200" key="73" len="24" vol="78"/>
          <note pan="0" pos="1224" key="68" len="24" vol="78"/>
          <note pan="0" pos="1248" key="64" len="24" vol="78"/>
          <note pan="0" pos="1272" key="68" len="24" vol="78"/>
          <note pan="0" pos="1296" key="73" len="24" vol="78"/>
          <note pan="0" pos="1320" key="68" len="24" vol="78"/>
          <note pan="0" pos="1344" key="66" len="24" vol="78"/>
          <note pan="0" pos="1368" key="68" len="24" vol="78"/>
          <note pan="0" pos="1392" key="66" len="24" vol="78"/>
          <note pan="0" pos="1416" key="64" len="24" vol="78"/>
          <note pan="0" pos="1440" key="63" len="24" vol="78"/>
          <note pan="0" pos="1464" key="60" len="24" vol="78"/>
          <note pan="0" pos="1488" key="66" len="24" vol="78"/>
          <note pan="0" pos="1512" key="63" len="24" vol="78"/>
          <note pan="0" pos="1536" key="61" len="24" vol="78"/>
          <note pan="0" pos="1560" key="68" len="24" vol="78"/>
          <note pan="0" pos="1584" key="73" len="24" vol="78"/>
          <note pan="0" pos="1608" key="68" len="24" vol="78"/>
          <note pan="0" pos="1632" key="61" len="24" vol="78"/>
          <note pan="0" pos="1656" key="68" len="24" vol="78"/>
          <note pan="0" pos="1680" key="73" len="24" vol="78"/>
          <note pan="0" pos="1704" key="68" len="24" vol="78"/>
          <note pan="0" pos="1728" key="63" len="24" vol="78"/>
          <note pan="0" pos="1752" key="68" len="24" vol="78"/>
          <note pan="0" pos="1776" key="71" len="24" vol="78"/>
          <note pan="0" pos="1800" key="68" len="24" vol="78"/>
          <note pan="0" pos="1824" key="63" len="24" vol="78"/>
          <note pan="0" pos="1848" key="68" len="24" vol="78"/>
          <note pan="0" pos="1872" key="71" len="24" vol="78"/>
          <note pan="0" pos="1896" key="68" len="24" vol="78"/>
          <note pan="0" pos="1920" key="61" len="24" vol="78"/>
          <note pan="0" pos="1944" key="66" len="24" vol="78"/>
          <note pan="0" pos="1968" key="70" len="24" vol="78"/>
          <note pan="0" pos="1992" key="66" len="24" vol="78"/>
          <note pan="0" pos="2016" key="61" len="24" vol="78"/>
          <note pan="0" pos="2040" key="66" len="24" vol="78"/>
          <note pan="0" pos="2064" key="70" len="24" vol="78"/>
          <note pan="0" pos="2088" key="66" len="24" vol="78"/>
          <note pan="0" pos="2112" key="61" len="24" vol="78"/>
          <note pan="0" pos="2136" key="66" len="24" vol="78"/>
          <note pan="0" pos="2160" key="70" len="24" vol="78"/>
          <note pan="0" pos="2184" key="66" len="24" vol="78"/>
          <note pan="0" pos="2208" key="61" len="24" vol="78"/>
          <note pan="0" pos="2232" key="66" len="24" vol="78"/>
          <note pan="0" pos="2256" key="70" len="24" vol="78"/>
          <note pan="0" pos="2280" key="66" len="24" vol="78"/>
          <note pan="0" pos="2304" key="66" len="24" vol="78"/>
          <note pan="0" pos="2328" key="69" len="24" vol="78"/>
          <note pan="0" pos="2352" key="73" len="24" vol="78"/>
          <note pan="0" pos="2376" key="69" len="24" vol="78"/>
          <note pan="0" pos="2400" key="66" len="24" vol="78"/>
          <note pan="0" pos="2424" key="69" len="24" vol="78"/>
          <note pan="0" pos="2448" key="73" len="24" vol="78"/>
          <note pan="0" pos="2472" key="69" len="24" vol="78"/>
          <note pan="0" pos="2496" key="63" len="24" vol="78"/>
          <note pan="0" pos="2520" key="68" len="24" vol="78"/>
          <note pan="0" pos="2544" key="73" len="24" vol="78"/>
          <note pan="0" pos="2568" key="68" len="24" vol="78"/>
          <note pan="0" pos="2592" key="63" len="24" vol="78"/>
          <note pan="0" pos="2616" key="68" len="24" vol="78"/>
          <note pan="0" pos="2640" key="73" len="24" vol="78"/>
          <note pan="0" pos="2664" key="68" len="24" vol="78"/>
          <note pan="0" pos="2688" key="66" len="24" vol="78"/>
          <note pan="0" pos="2712" key="71" len="24" vol="78"/>
          <note pan="0" pos="2736" key="75" len="24" vol="78"/>
          <note pan="0" pos="2760" key="71" len="24" vol="78"/>
          <note pan="0" pos="2784" key="66" len="24" vol="78"/>
          <note pan="0" pos="2808" key="71" len="24" vol="78"/>
          <note pan="0" pos="2832" key="75" len="24" vol="78"/>
          <note pan="0" pos="2856" key="71" len="24" vol="78"/>
          <note pan="0" pos="2880" key="66" len="96" vol="78"/>
          <note pan="0" pos="2976" key="59" len="96" vol="78"/>
          <note pan="0" pos="3072" key="68" len="12" vol="78"/>
          <note pan="0" pos="3084" key="64" len="12" vol="78"/>
          <note pan="0" pos="3096" key="61" len="12" vol="78"/>
          <note pan="0" pos="3108" key="56" len="12" vol="78"/>
          <note pan="0" pos="3120" key="52" len="12" vol="78"/>
          <note pan="0" pos="3132" key="49" len="12" vol="78"/>
          <note pan="0" pos="3168" key="61" len="12" vol="78"/>
          <note pan="0" pos="3180" key="56" len="12" vol="78"/>
          <note pan="0" pos="3192" key="52" len="12" vol="78"/>
          <note pan="0" pos="3204" key="49" len="12" vol="78"/>
          <note pan="0" pos="3216" key="76" len="12" vol="78"/>
          <note pan="0" pos="3228" key="71" len="12" vol="78"/>
          <note pan="0" pos="3240" key="68" len="12" vol="78"/>
          <note pan="0" pos="3252" key="64" len="12" vol="78"/>
          <note pan="0" pos="3264" key="76" len="12" vol="78"/>
          <note pan="0" pos="3276" key="71" len="12" vol="78"/>
          <note pan="0" pos="3288" key="80" len="12" vol="78"/>
          <note pan="0" pos="3300" key="76" len="12" vol="78"/>
          <note pan="0" pos="3312" key="71" len="12" vol="78"/>
          <note pan="0" pos="3324" key="68" len="12" vol="78"/>
          <note pan="0" pos="3336" key="64" len="12" vol="78"/>
          <note pan="0" pos="3348" key="61" len="12" vol="78"/>
          <note pan="0" pos="3360" key="73" len="12" vol="78"/>
          <note pan="0" pos="3372" key="68" len="12" vol="78"/>
          <note pan="0" pos="3384" key="64" len="12" vol="78"/>
          <note pan="0" pos="3396" key="61" len="12" vol="78"/>
          <note pan="0" pos="3408" key="68" len="12" vol="78"/>
          <note pan="0" pos="3420" key="64" len="12" vol="78"/>
          <note pan="0" pos="3432" key="56" len="12" vol="78"/>
          <note pan="0" pos="3444" key="49" len="12" vol="78"/>
          <note pan="0" pos="3456" key="69" len="12" vol="78"/>
          <note pan="0" pos="3468" key="66" len="12" vol="78"/>
          <note pan="0" pos="3480" key="57" len="12" vol="78"/>
          <note pan="0" pos="3492" key="54" len="12" vol="78"/>
          <note pan="0" pos="3504" key="49" len="12" vol="78"/>
          <note pan="0" pos="3516" key="47" len="12" vol="78"/>
          <note pan="0" pos="3528" key="74" len="12" vol="78"/>
          <note pan="0" pos="3540" key="69" len="12" vol="78"/>
          <note pan="0" pos="3552" key="66" len="12" vol="78"/>
          <note pan="0" pos="3564" key="61" len="12" vol="78"/>
          <note pan="0" pos="3576" key="57" len="12" vol="78"/>
          <note pan="0" pos="3588" key="54" len="12" vol="78"/>
          <note pan="0" pos="3600" key="78" len="12" vol="78"/>
          <note pan="0" pos="3612" key="74" len="12" vol="78"/>
          <note pan="0" pos="3624" key="69" len="12" vol="78"/>
          <note pan="0" pos="3636" key="66" len="12" vol="78"/>
          <note pan="0" pos="3672" key="81" len="12" vol="78"/>
          <note pan="0" pos="3684" key="78" len="12" vol="78"/>
          <note pan="0" pos="3696" key="73" len="12" vol="78"/>
          <note pan="0" pos="3708" key="69" len="12" vol="78"/>
          <note pan="0" pos="3720" key="66" len="12" vol="78"/>
          <note pan="0" pos="3732" key="61" len="12" vol="78"/>
          <note pan="0" pos="3744" key="74" len="12" vol="78"/>
          <note pan="0" pos="3756" key="71" len="12" vol="78"/>
          <note pan="0" pos="3768" key="66" len="12" vol="78"/>
          <note pan="0" pos="3780" key="61" len="12" vol="78"/>
          <note pan="0" pos="3792" key="69" len="12" vol="78"/>
          <note pan="0" pos="3804" key="66" len="12" vol="78"/>
          <note pan="0" pos="3816" key="61" len="12" vol="78"/>
          <note pan="0" pos="3828" key="57" len="12" vol="78"/>
          <note pan="0" pos="3840" key="68" len="12" vol="78"/>
          <note pan="0" pos="3852" key="64" len="12" vol="78"/>
          <note pan="0" pos="3864" key="61" len="12" vol="78"/>
          <note pan="0" pos="3876" key="56" len="12" vol="78"/>
          <note pan="0" pos="3912" key="73" len="12" vol="78"/>
          <note pan="0" pos="3924" key="69" len="12" vol="78"/>
          <note pan="0" pos="3936" key="68" len="12" vol="78"/>
          <note pan="0" pos="3948" key="64" len="12" vol="78"/>
          <note pan="0" pos="3960" key="56" len="12" vol="78"/>
          <note pan="0" pos="3972" key="52" len="12" vol="78"/>
          <note pan="0" pos="3984" key="76" len="12" vol="78"/>
          <note pan="0" pos="3996" key="71" len="12" vol="78"/>
          <note pan="0" pos="4008" key="68" len="12" vol="78"/>
          <note pan="0" pos="4020" key="64" len="12" vol="78"/>
          <note pan="0" pos="4056" key="81" len="12" vol="78"/>
          <note pan="0" pos="4068" key="78" len="12" vol="78"/>
          <note pan="0" pos="4080" key="78" len="12" vol="78"/>
          <note pan="0" pos="4092" key="69" len="12" vol="78"/>
          <note pan="0" pos="4104" key="66" len="12" vol="78"/>
          <note pan="0" pos="4116" key="64" len="12" vol="78"/>
          <note pan="0" pos="4128" key="73" len="12" vol="78"/>
          <note pan="0" pos="4140" key="69" len="12" vol="78"/>
          <note pan="0" pos="4152" key="66" len="12" vol="78"/>
          <note pan="0" pos="4164" key="61" len="12" vol="78"/>
          <note pan="0" pos="4176" key="68" len="12" vol="78"/>
          <note pan="0" pos="4188" key="64" len="12" vol="78"/>
          <note pan="0" pos="4200" key="61" len="12" vol="78"/>
          <note pan="0" pos="4212" key="56" len="12" vol="78"/>
          <note pan="0" pos="4224" key="69" len="12" vol="78"/>
          <note pan="0" pos="4236" key="66" len="12" vol="78"/>
          <note pan="0" pos="4248" key="57" len="12" vol="78"/>
          <note pan="0" pos="4260" key="54" len="12" vol="78"/>
          <note pan="0" pos="4272" key="52" len="12" vol="78"/>
          <note pan="0" pos="4284" key="49" len="12" vol="78"/>
          <note pan="0" pos="4296" key="74" len="12" vol="78"/>
          <note pan="0" pos="4308" key="69" len="12" vol="78"/>
          <note pan="0" pos="4320" key="66" len="12" vol="78"/>
          <note pan="0" pos="4332" key="61" len="12" vol="78"/>
          <note pan="0" pos="4344" key="57" len="12" vol="78"/>
          <note pan="0" pos="4356" key="54" len="12" vol="78"/>
          <note pan="0" pos="4368" key="78" len="12" vol="78"/>
          <note pan="0" pos="4380" key="74" len="12" vol="78"/>
          <note pan="0" pos="4392" key="69" len="12" vol="78"/>
          <note pan="0" pos="4404" key="66" len="12" vol="78"/>
          <note pan="0" pos="4440" key="81" len="12" vol="78"/>
          <note pan="0" pos="4452" key="78" len="12" vol="78"/>
          <note pan="0" pos="4464" key="73" len="12" vol="78"/>
          <note pan="0" pos="4476" key="69" len="12" vol="78"/>
          <note pan="0" pos="4488" key="66" len="12" vol="78"/>
          <note pan="0" pos="4500" key="61" len="12" vol="78"/>
          <note pan="0" pos="4512" key="74" len="12" vol="78"/>
          <note pan="0" pos="4524" key="71" len="12" vol="78"/>
          <note pan="0" pos="4536" key="66" len="12" vol="78"/>
          <note pan="0" pos="4548" key="61" len="12" vol="78"/>
          <note pan="0" pos="4560" key="69" len="12" vol="78"/>
          <note pan="0" pos="4572" key="66" len="12" vol="78"/>
          <note pan="0" pos="4584" key="61" len="12" vol="78"/>
          <note pan="0" pos="4596" key="57" len="12" vol="78"/>
        </pattern>
        <pattern type="1" pos="15744" muted="0" name="Orchestra Soundfont 2 COMBO" steps="16">
          <note pan="0" pos="0" key="61" len="24" vol="78"/>
          <note pan="0" pos="24" key="68" len="24" vol="78"/>
          <note pan="0" pos="48" key="73" len="24" vol="78"/>
          <note pan="0" pos="72" key="68" len="24" vol="78"/>
          <note pan="0" pos="96" key="76" len="24" vol="78"/>
          <note pan="0" pos="120" key="68" len="24" vol="78"/>
          <note pan="0" pos="144" key="73" len="24" vol="78"/>
          <note pan="0" pos="168" key="68" len="24" vol="78"/>
          <note pan="0" pos="192" key="63" len="24" vol="78"/>
          <note pan="0" pos="216" key="68" len="24" vol="78"/>
          <note pan="0" pos="240" key="71" len="24" vol="78"/>
          <note pan="0" pos="264" key="68" len="24" vol="78"/>
          <note pan="0" pos="288" key="63" len="24" vol="78"/>
          <note pan="0" pos="312" key="68" len="24" vol="78"/>
          <note pan="0" pos="336" key="71" len="24" vol="78"/>
          <note pan="0" pos="360" key="68" len="24" vol="78"/>
          <note pan="0" pos="384" key="64" len="24" vol="78"/>
          <note pan="0" pos="408" key="68" len="24" vol="78"/>
          <note pan="0" pos="432" key="73" len="24" vol="78"/>
          <note pan="0" pos="456" key="68" len="24" vol="78"/>
          <note pan="0" pos="480" key="64" len="24" vol="78"/>
          <note pan="0" pos="504" key="68" len="24" vol="78"/>
          <note pan="0" pos="528" key="73" len="24" vol="78"/>
          <note pan="0" pos="552" key="68" len="24" vol="78"/>
          <note pan="0" pos="576" key="66" len="24" vol="78"/>
          <note pan="0" pos="600" key="71" len="24" vol="78"/>
          <note pan="0" pos="624" key="76" len="24" vol="78"/>
          <note pan="0" pos="648" key="71" len="24" vol="78"/>
          <note pan="0" pos="672" key="66" len="24" vol="78"/>
          <note pan="0" pos="696" key="71" len="24" vol="78"/>
          <note pan="0" pos="720" key="75" len="24" vol="78"/>
          <note pan="0" pos="744" key="71" len="24" vol="78"/>
          <note pan="0" pos="768" key="64" len="24" vol="78"/>
          <note pan="0" pos="792" key="68" len="24" vol="78"/>
          <note pan="0" pos="816" key="73" len="24" vol="78"/>
          <note pan="0" pos="840" key="68" len="24" vol="78"/>
          <note pan="0" pos="864" key="64" len="24" vol="78"/>
          <note pan="0" pos="888" key="68" len="24" vol="78"/>
          <note pan="0" pos="912" key="73" len="24" vol="78"/>
          <note pan="0" pos="936" key="68" len="24" vol="78"/>
          <note pan="0" pos="960" key="63" len="24" vol="78"/>
          <note pan="0" pos="984" key="66" len="24" vol="78"/>
          <note pan="0" pos="1008" key="71" len="24" vol="78"/>
          <note pan="0" pos="1032" key="66" len="24" vol="78"/>
          <note pan="0" pos="1056" key="63" len="24" vol="78"/>
          <note pan="0" pos="1080" key="66" len="24" vol="78"/>
          <note pan="0" pos="1104" key="71" len="24" vol="78"/>
          <note pan="0" pos="1128" key="66" len="24" vol="78"/>
          <note pan="0" pos="1152" key="64" len="24" vol="78"/>
          <note pan="0" pos="1176" key="68" len="24" vol="78"/>
          <note pan="0" pos="1200" key="73" len="24" vol="78"/>
          <note pan="0" pos="1224" key="68" len="24" vol="78"/>
          <note pan="0" pos="1248" key="64" len="24" vol="78"/>
          <note pan="0" pos="1272" key="68" len="24" vol="78"/>
          <note pan="0" pos="1296" key="73" len="24" vol="78"/>
          <note pan="0" pos="1320" key="68" len="24" vol="78"/>
          <note pan="0" pos="1344" key="66" len="24" vol="78"/>
          <note pan="0" pos="1368" key="68" len="24" vol="78"/>
          <note pan="0" pos="1392" key="66" len="24" vol="78"/>
          <note pan="0" pos="1416" key="64" len="24" vol="78"/>
          <note pan="0" pos="1440" key="63" len="24" vol="78"/>
          <note pan="0" pos="1464" key="60" len="24" vol="78"/>
          <note pan="0" pos="1488" key="66" len="24" vol="78"/>
          <note pan="0" pos="1512" key="63" len="24" vol="78"/>
          <note pan="0" pos="1536" key="61" len="24" vol="78"/>
          <note pan="0" pos="1560" key="68" len="24" vol="78"/>
          <note pan="0" pos="1584" key="73" len="24" vol="78"/>
          <note pan="0" pos="1608" key="68" len="24" vol="78"/>
          <note pan="0" pos="1632" key="61" len="24" vol="78"/>
          <note pan="0" pos="1656" key="68" len="24" vol="78"/>
          <note pan="0" pos="1680" key="73" len="24" vol="78"/>
          <note pan="0" pos="1704" key="68" len="24" vol="78"/>
          <note pan="0" pos="1728" key="63" len="24" vol="78"/>
          <note pan="0" pos="1752" key="68" len="24" vol="78"/>
          <note pan="0" pos="1776" key="71" len="24" vol="78"/>
          <note pan="0" pos="1800" key="68" len="24" vol="78"/>
          <note pan="0" pos="1824" key="63" len="24" vol="78"/>
          <note pan="0" pos="1848" key="68" len="24" vol="78"/>
          <note pan="0" pos="1872" key="71" len="24" vol="78"/>
          <note pan="0" pos="1896" key="68" len="24" vol="78"/>
          <note pan="0" pos="1920" key="61" len="24" vol="78"/>
          <note pan="0" pos="1944" key="66" len="24" vol="78"/>
          <note pan="0" pos="1968" key="70" len="24" vol="78"/>
          <note pan="0" pos="1992" key="66" len="24" vol="78"/>
          <note pan="0" pos="2016" key="61" len="24" vol="78"/>
          <note pan="0" pos="2040" key="66" len="24" vol="78"/>
          <note pan="0" pos="2064" key="70" len="24" vol="78"/>
          <note pan="0" pos="2088" key="66" len="24" vol="78"/>
          <note pan="0" pos="2112" key="61" len="24" vol="78"/>
          <note pan="0" pos="2136" key="66" len="24" vol="78"/>
          <note pan="0" pos="2160" key="70" len="24" vol="78"/>
          <note pan="0" pos="2184" key="66" len="24" vol="78"/>
          <note pan="0" pos="2208" key="61" len="24" vol="78"/>
          <note pan="0" pos="2232" key="66" len="24" vol="78"/>
          <note pan="0" pos="2256" key="70" len="24" vol="78"/>
          <note pan="0" pos="2280" key="66" len="24" vol="78"/>
          <note pan="0" pos="2304" key="66" len="24" vol="78"/>
          <note pan="0" pos="2328" key="69" len="24" vol="78"/>
          <note pan="0" pos="2352" key="73" len="24" vol="78"/>
          <note pan="0" pos="2376" key="69" len="24" vol="78"/>
          <note pan="0" pos="2400" key="66" len="24" vol="78"/>
          <note pan="0" pos="2424" key="69" len="24" vol="78"/>
          <note pan="0" pos="2448" key="73" len="24" vol="78"/>
          <note pan="0" pos="2472" key="69" len="24" vol="78"/>
          <note pan="0" pos="2496" key="63" len="24" vol="78"/>
          <note pan="0" pos="2520" key="68" len="24" vol="78"/>
          <note pan="0" pos="2544" key="73" len="24" vol="78"/>
          <note pan="0" pos="2568" key="68" len="24" vol="78"/>
          <note pan="0" pos="2592" key="63" len="24" vol="78"/>
          <note pan="0" pos="2616" key="68" len="24" vol="78"/>
          <note pan="0" pos="2640" key="73" len="24" vol="78"/>
          <note pan="0" pos="2664" key="68" len="24" vol="78"/>
          <note pan="0" pos="2688" key="66" len="24" vol="78"/>
          <note pan="0" pos="2712" key="71" len="24" vol="78"/>
          <note pan="0" pos="2736" key="75" len="24" vol="78"/>
          <note pan="0" pos="2760" key="71" len="24" vol="78"/>
          <note pan="0" pos="2784" key="66" len="24" vol="78"/>
          <note pan="0" pos="2808" key="71" len="24" vol="78"/>
          <note pan="0" pos="2832" key="75" len="24" vol="78"/>
          <note pan="0" pos="2856" key="71" len="24" vol="78"/>
          <note pan="0" pos="2880" key="63" len="24" vol="78"/>
          <note pan="0" pos="2880" key="51" len="24" vol="78"/>
          <note pan="0" pos="2904" key="63" len="24" vol="78"/>
          <note pan="0" pos="2904" key="51" len="24" vol="78"/>
          <note pan="0" pos="2976" key="71" len="24" vol="78"/>
          <note pan="0" pos="2976" key="59" len="24" vol="78"/>
          <note pan="0" pos="3000" key="71" len="24" vol="78"/>
          <note pan="0" pos="3000" key="59" len="24" vol="78"/>
          <note pan="0" pos="3072" key="56" len="12" vol="78"/>
          <note pan="0" pos="3084" key="61" len="12" vol="78"/>
          <note pan="0" pos="3096" key="64" len="12" vol="78"/>
          <note pan="0" pos="3108" key="68" len="12" vol="78"/>
          <note pan="0" pos="3120" key="73" len="12" vol="78"/>
          <note pan="0" pos="3132" key="76" len="12" vol="78"/>
          <note pan="0" pos="3144" key="80" len="12" vol="78"/>
          <note pan="0" pos="3156" key="83" len="12" vol="78"/>
          <note pan="0" pos="3168" key="73" len="12" vol="78"/>
          <note pan="0" pos="3180" key="83" len="12" vol="78"/>
          <note pan="0" pos="3192" key="80" len="12" vol="78"/>
          <note pan="0" pos="3204" key="76" len="12" vol="78"/>
          <note pan="0" pos="3216" key="73" len="12" vol="78"/>
          <note pan="0" pos="3228" key="68" len="12" vol="78"/>
          <note pan="0" pos="3240" key="64" len="12" vol="78"/>
          <note pan="0" pos="3252" key="61" len="12" vol="78"/>
          <note pan="0" pos="3264" key="56" len="12" vol="78"/>
          <note pan="0" pos="3276" key="61" len="12" vol="78"/>
          <note pan="0" pos="3288" key="64" len="12" vol="78"/>
          <note pan="0" pos="3300" key="68" len="12" vol="78"/>
          <note pan="0" pos="3312" key="73" len="12" vol="78"/>
          <note pan="0" pos="3324" key="76" len="12" vol="78"/>
          <note pan="0" pos="3336" key="80" len="12" vol="78"/>
          <note pan="0" pos="3348" key="83" len="12" vol="78"/>
          <note pan="0" pos="3360" key="73" len="12" vol="78"/>
          <note pan="0" pos="3372" key="83" len="12" vol="78"/>
          <note pan="0" pos="3384" key="80" len="12" vol="78"/>
          <note pan="0" pos="3396" key="76" len="12" vol="78"/>
          <note pan="0" pos="3408" key="73" len="12" vol="78"/>
          <note pan="0" pos="3420" key="68" len="12" vol="78"/>
          <note pan="0" pos="3432" key="64" len="12" vol="78"/>
          <note pan="0" pos="3444" key="61" len="12" vol="78"/>
          <note pan="0" pos="3456" key="54" len="12" vol="78"/>
          <note pan="0" pos="3468" key="59" len="12" vol="78"/>
          <note pan="0" pos="3480" key="63" len="12" vol="78"/>
          <note pan="0" pos="3492" key="66" len="12" vol="78"/>
          <note pan="0" pos="3504" key="69" len="12" vol="78"/>
          <note pan="0" pos="3516" key="73" len="12" vol="78"/>
          <note pan="0" pos="3528" key="76" len="12" vol="78"/>
          <note pan="0" pos="3540" key="80" len="12" vol="78"/>
          <note pan="0" pos="3552" key="83" len="12" vol="78"/>
          <note pan="0" pos="3564" key="80" len="12" vol="78"/>
          <note pan="0" pos="3576" key="75" len="12" vol="78"/>
          <note pan="0" pos="3588" key="71" len="12" vol="78"/>
          <note pan="0" pos="3600" key="66" len="12" vol="78"/>
          <note pan="0" pos="3612" key="61" len="12" vol="78"/>
          <note pan="0" pos="3624" key="59" len="12" vol="78"/>
          <note pan="0" pos="3636" key="54" len="12" vol="78"/>
          <note pan="0" pos="3648" key="54" len="12" vol="78"/>
          <note pan="0" pos="3660" key="59" len="12" vol="78"/>
          <note pan="0" pos="3672" key="63" len="12" vol="78"/>
          <note pan="0" pos="3684" key="66" len="12" vol="78"/>
          <note pan="0" pos="3696" key="69" len="12" vol="78"/>
          <note pan="0" pos="3708" key="73" len="12" vol="78"/>
          <note pan="0" pos="3720" key="76" len="12" vol="78"/>
          <note pan="0" pos="3732" key="80" len="12" vol="78"/>
          <note pan="0" pos="3744" key="83" len="12" vol="78"/>
          <note pan="0" pos="3756" key="80" len="12" vol="78"/>
          <note pan="0" pos="3768" key="75" len="12" vol="78"/>
          <note pan="0" pos="3780" key="71" len="12" vol="78"/>
          <note pan="0" pos="3792" key="66" len="12" vol="78"/>
          <note pan="0" pos="3804" key="61" len="12" vol="78"/>
          <note pan="0" pos="3816" key="59" len="12" vol="78"/>
          <note pan="0" pos="3828" key="54" len="12" vol="78"/>
          <note pan="0" pos="3840" key="54" len="12" vol="78"/>
          <note pan="0" pos="3852" key="57" len="12" vol="78"/>
          <note pan="0" pos="3864" key="61" len="12" vol="78"/>
          <note pan="0" pos="3876" key="64" len="12" vol="78"/>
          <note pan="0" pos="3888" key="66" len="12" vol="78"/>
          <note pan="0" pos="3900" key="73" len="12" vol="78"/>
          <note pan="0" pos="3912" key="76" len="12" vol="78"/>
          <note pan="0" pos="3924" key="78" len="12" vol="78"/>
          <note pan="0" pos="3936" key="82" len="12" vol="78"/>
          <note pan="0" pos="3948" key="78" len="12" vol="78"/>
          <note pan="0" pos="3960" key="76" len="12" vol="78"/>
          <note pan="0" pos="3972" key="73" len="12" vol="78"/>
          <note pan="0" pos="3984" key="66" len="12" vol="78"/>
          <note pan="0" pos="3996" key="64" len="12" vol="78"/>
          <note pan="0" pos="4008" key="61" len="12" vol="78"/>
          <note pan="0" pos="4020" key="57" len="12" vol="78"/>
          <note pan="0" pos="4032" key="54" len="12" vol="78"/>
          <note pan="0" pos="4044" key="57" len="12" vol="78"/>
          <note pan="0" pos="4056" key="61" len="12" vol="78"/>
          <note pan="0" pos="4068" key="64" len="12" vol="78"/>
          <note pan="0" pos="4080" key="66" len="12" vol="78"/>
          <note pan="0" pos="4092" key="73" len="12" vol="78"/>
          <note pan="0" pos="4104" key="76" len="12" vol="78"/>
          <note pan="0" pos="4116" key="78" len="12" vol="78"/>
          <note pan="0" pos="4128" key="82" len="12" vol="78"/>
          <note pan="0" pos="4140" key="78" len="12" vol="78"/>
          <note pan="0" pos="4152" key="76" len="12" vol="78"/>
          <note pan="0" pos="4164" key="73" len="12" vol="78"/>
          <note pan="0" pos="4176" key="66" len="12" vol="78"/>
          <note pan="0" pos="4188" key="64" len="12" vol="78"/>
          <note pan="0" pos="4200" key="61" len="12" vol="78"/>
          <note pan="0" pos="4212" key="57" len="12" vol="78"/>
          <note pan="0" pos="4224" key="51" len="12" vol="78"/>
          <note pan="0" pos="4236" key="54" len="12" vol="78"/>
          <note pan="0" pos="4248" key="57" len="12" vol="78"/>
          <note pan="0" pos="4260" key="63" len="12" vol="78"/>
          <note pan="0" pos="4272" key="66" len="12" vol="78"/>
          <note pan="0" pos="4284" key="69" len="12" vol="78"/>
          <note pan="0" pos="4296" key="73" len="12" vol="78"/>
          <note pan="0" pos="4308" key="76" len="12" vol="78"/>
          <note pan="0" pos="4320" key="81" len="12" vol="78"/>
          <note pan="0" pos="4332" key="78" len="12" vol="78"/>
          <note pan="0" pos="4344" key="73" len="12" vol="78"/>
          <note pan="0" pos="4356" key="69" len="12" vol="78"/>
          <note pan="0" pos="4368" key="66" len="12" vol="78"/>
          <note pan="0" pos="4380" key="63" len="12" vol="78"/>
          <note pan="0" pos="4392" key="57" len="12" vol="78"/>
          <note pan="0" pos="4404" key="54" len="12" vol="78"/>
          <note pan="0" pos="4416" key="51" len="12" vol="78"/>
          <note pan="0" pos="4428" key="54" len="12" vol="78"/>
          <note pan="0" pos="4440" key="57" len="12" vol="78"/>
          <note pan="0" pos="4452" key="63" len="12" vol="78"/>
          <note pan="0" pos="4464" key="66" len="12" vol="78"/>
          <note pan="0" pos="4476" key="69" len="12" vol="78"/>
          <note pan="0" pos="4488" key="73" len="12" vol="78"/>
          <note pan="0" pos="4500" key="76" len="12" vol="78"/>
          <note pan="0" pos="4512" key="81" len="12" vol="78"/>
          <note pan="0" pos="4524" key="78" len="12" vol="78"/>
          <note pan="0" pos="4536" key="73" len="12" vol="78"/>
          <note pan="0" pos="4548" key="69" len="12" vol="78"/>
          <note pan="0" pos="4560" key="66" len="12" vol="78"/>
          <note pan="0" pos="4572" key="63" len="12" vol="78"/>
          <note pan="0" pos="4584" key="57" len="12" vol="78"/>
          <note pan="0" pos="4596" key="54" len="12" vol="78"/>
          <note pan="0" pos="4608" key="52" len="12" vol="78"/>
          <note pan="0" pos="4620" key="61" len="12" vol="78"/>
          <note pan="0" pos="4632" key="64" len="12" vol="78"/>
          <note pan="0" pos="4644" key="68" len="12" vol="78"/>
          <note pan="0" pos="4656" key="73" len="12" vol="78"/>
          <note pan="0" pos="4668" key="76" len="12" vol="78"/>
          <note pan="0" pos="4680" key="80" len="12" vol="78"/>
          <note pan="0" pos="4692" key="83" len="12" vol="78"/>
          <note pan="0" pos="4704" key="73" len="12" vol="78"/>
          <note pan="0" pos="4716" key="83" len="12" vol="78"/>
          <note pan="0" pos="4728" key="80" len="12" vol="78"/>
          <note pan="0" pos="4740" key="76" len="12" vol="78"/>
          <note pan="0" pos="4752" key="73" len="12" vol="78"/>
          <note pan="0" pos="4764" key="68" len="12" vol="78"/>
          <note pan="0" pos="4776" key="64" len="12" vol="78"/>
          <note pan="0" pos="4788" key="61" len="12" vol="78"/>
          <note pan="0" pos="4800" key="52" len="12" vol="78"/>
          <note pan="0" pos="4812" key="61" len="12" vol="78"/>
          <note pan="0" pos="4824" key="64" len="12" vol="78"/>
          <note pan="0" pos="4836" key="68" len="12" vol="78"/>
          <note pan="0" pos="4848" key="73" len="12" vol="78"/>
          <note pan="0" pos="4860" key="76" len="12" vol="78"/>
          <note pan="0" pos="4872" key="80" len="12" vol="78"/>
          <note pan="0" pos="4884" key="83" len="12" vol="78"/>
          <note pan="0" pos="4896" key="73" len="12" vol="78"/>
          <note pan="0" pos="4908" key="83" len="12" vol="78"/>
          <note pan="0" pos="4920" key="80" len="12" vol="78"/>
          <note pan="0" pos="4932" key="76" len="12" vol="78"/>
          <note pan="0" pos="4944" key="73" len="12" vol="78"/>
          <note pan="0" pos="4956" key="68" len="12" vol="78"/>
          <note pan="0" pos="4968" key="64" len="12" vol="78"/>
          <note pan="0" pos="4980" key="61" len="12" vol="78"/>
          <note pan="0" pos="4992" key="54" len="12" vol="78"/>
          <note pan="0" pos="5004" key="59" len="12" vol="78"/>
          <note pan="0" pos="5016" key="63" len="12" vol="78"/>
          <note pan="0" pos="5028" key="66" len="12" vol="78"/>
          <note pan="0" pos="5040" key="69" len="12" vol="78"/>
          <note pan="0" pos="5052" key="73" len="12" vol="78"/>
          <note pan="0" pos="5064" key="76" len="12" vol="78"/>
          <note pan="0" pos="5076" key="80" len="12" vol="78"/>
          <note pan="0" pos="5088" key="83" len="12" vol="78"/>
          <note pan="0" pos="5100" key="80" len="12" vol="78"/>
          <note pan="0" pos="5112" key="75" len="12" vol="78"/>
          <note pan="0" pos="5124" key="71" len="12" vol="78"/>
          <note pan="0" pos="5136" key="66" len="12" vol="78"/>
          <note pan="0" pos="5148" key="61" len="12" vol="78"/>
          <note pan="0" pos="5160" key="59" len="12" vol="78"/>
          <note pan="0" pos="5172" key="54" len="12" vol="78"/>
          <note pan="0" pos="5184" key="54" len="12" vol="78"/>
          <note pan="0" pos="5196" key="59" len="12" vol="78"/>
          <note pan="0" pos="5208" key="63" len="12" vol="78"/>
          <note pan="0" pos="5220" key="66" len="12" vol="78"/>
          <note pan="0" pos="5232" key="69" len="12" vol="78"/>
          <note pan="0" pos="5244" key="73" len="12" vol="78"/>
          <note pan="0" pos="5256" key="76" len="12" vol="78"/>
          <note pan="0" pos="5268" key="80" len="12" vol="78"/>
          <note pan="0" pos="5280" key="83" len="12" vol="78"/>
          <note pan="0" pos="5292" key="80" len="12" vol="78"/>
          <note pan="0" pos="5304" key="75" len="12" vol="78"/>
          <note pan="0" pos="5316" key="71" len="12" vol="78"/>
          <note pan="0" pos="5328" key="66" len="12" vol="78"/>
          <note pan="0" pos="5340" key="61" len="12" vol="78"/>
          <note pan="0" pos="5352" key="59" len="12" vol="78"/>
          <note pan="0" pos="5364" key="54" len="12" vol="78"/>
          <note pan="0" pos="5376" key="54" len="12" vol="78"/>
          <note pan="0" pos="5388" key="57" len="12" vol="78"/>
          <note pan="0" pos="5400" key="63" len="12" vol="78"/>
          <note pan="0" pos="5412" key="66" len="12" vol="78"/>
          <note pan="0" pos="5424" key="69" len="12" vol="78"/>
          <note pan="0" pos="5436" key="73" len="12" vol="78"/>
          <note pan="0" pos="5448" key="76" len="12" vol="78"/>
          <note pan="0" pos="5460" key="81" len="12" vol="78"/>
          <note pan="0" pos="5472" key="75" len="12" vol="78"/>
          <note pan="0" pos="5484" key="81" len="12" vol="78"/>
          <note pan="0" pos="5496" key="76" len="12" vol="78"/>
          <note pan="0" pos="5508" key="73" len="12" vol="78"/>
          <note pan="0" pos="5520" key="69" len="12" vol="78"/>
          <note pan="0" pos="5532" key="66" len="12" vol="78"/>
          <note pan="0" pos="5544" key="63" len="12" vol="78"/>
          <note pan="0" pos="5556" key="57" len="12" vol="78"/>
          <note pan="0" pos="5568" key="54" len="12" vol="78"/>
          <note pan="0" pos="5580" key="57" len="12" vol="78"/>
          <note pan="0" pos="5592" key="63" len="12" vol="78"/>
          <note pan="0" pos="5604" key="66" len="12" vol="78"/>
          <note pan="0" pos="5616" key="69" len="12" vol="78"/>
          <note pan="0" pos="5628" key="73" len="12" vol="78"/>
          <note pan="0" pos="5640" key="76" len="12" vol="78"/>
          <note pan="0" pos="5652" key="81" len="12" vol="78"/>
          <note pan="0" pos="5664" key="75" len="12" vol="78"/>
          <note pan="0" pos="5676" key="81" len="12" vol="78"/>
          <note pan="0" pos="5688" key="76" len="12" vol="78"/>
          <note pan="0" pos="5700" key="73" len="12" vol="78"/>
          <note pan="0" pos="5712" key="69" len="12" vol="78"/>
          <note pan="0" pos="5724" key="66" len="12" vol="78"/>
          <note pan="0" pos="5736" key="63" len="12" vol="78"/>
          <note pan="0" pos="5748" key="57" len="12" vol="78"/>
          <note pan="0" pos="5760" key="57" len="12" vol="78"/>
          <note pan="0" pos="5772" key="61" len="12" vol="78"/>
          <note pan="0" pos="5784" key="64" len="12" vol="78"/>
          <note pan="0" pos="5796" key="68" len="12" vol="78"/>
          <note pan="0" pos="5808" key="71" len="12" vol="78"/>
          <note pan="0" pos="5820" key="75" len="12" vol="78"/>
          <note pan="0" pos="5832" key="78" len="12" vol="78"/>
          <note pan="0" pos="5844" key="81" len="12" vol="78"/>
          <note pan="0" pos="5856" key="73" len="12" vol="78"/>
          <note pan="0" pos="5868" key="81" len="12" vol="78"/>
          <note pan="0" pos="5880" key="78" len="12" vol="78"/>
          <note pan="0" pos="5892" key="75" len="12" vol="78"/>
          <note pan="0" pos="5904" key="71" len="12" vol="78"/>
          <note pan="0" pos="5916" key="68" len="12" vol="78"/>
          <note pan="0" pos="5928" key="64" len="12" vol="78"/>
          <note pan="0" pos="5940" key="61" len="12" vol="78"/>
          <note pan="0" pos="5952" key="57" len="12" vol="78"/>
          <note pan="0" pos="5964" key="61" len="12" vol="78"/>
          <note pan="0" pos="5976" key="64" len="12" vol="78"/>
          <note pan="0" pos="5988" key="68" len="12" vol="78"/>
          <note pan="0" pos="6000" key="71" len="12" vol="78"/>
          <note pan="0" pos="6012" key="75" len="12" vol="78"/>
          <note pan="0" pos="6024" key="78" len="12" vol="78"/>
          <note pan="0" pos="6036" key="81" len="12" vol="78"/>
          <note pan="0" pos="6048" key="72" len="12" vol="78"/>
          <note pan="0" pos="6060" key="81" len="12" vol="78"/>
          <note pan="0" pos="6072" key="78" len="12" vol="78"/>
          <note pan="0" pos="6084" key="75" len="12" vol="78"/>
          <note pan="0" pos="6096" key="71" len="12" vol="78"/>
          <note pan="0" pos="6108" key="68" len="12" vol="78"/>
          <note pan="0" pos="6120" key="64" len="12" vol="78"/>
          <note pan="0" pos="6132" key="61" len="12" vol="78"/>
        </pattern>
        <pattern type="1" pos="39552" muted="0" name="Orchestra Soundfont 2 COMBO" steps="16">
          <note pan="0" pos="0" key="61" len="24" vol="78"/>
          <note pan="0" pos="24" key="68" len="24" vol="78"/>
          <note pan="0" pos="48" key="73" len="24" vol="78"/>
          <note pan="0" pos="72" key="68" len="24" vol="78"/>
          <note pan="0" pos="96" key="76" len="24" vol="78"/>
          <note pan="0" pos="120" key="68" len="24" vol="78"/>
          <note pan="0" pos="144" key="73" len="24" vol="78"/>
          <note pan="0" pos="168" key="68" len="24" vol="78"/>
          <note pan="0" pos="192" key="63" len="24" vol="78"/>
          <note pan="0" pos="216" key="68" len="24" vol="78"/>
          <note pan="0" pos="240" key="71" len="24" vol="78"/>
          <note pan="0" pos="264" key="68" len="24" vol="78"/>
          <note pan="0" pos="288" key="63" len="24" vol="78"/>
          <note pan="0" pos="312" key="68" len="24" vol="78"/>
          <note pan="0" pos="336" key="71" len="24" vol="78"/>
          <note pan="0" pos="360" key="68" len="24" vol="78"/>
          <note pan="0" pos="384" key="64" len="24" vol="78"/>
          <note pan="0" pos="408" key="68" len="24" vol="78"/>
          <note pan="0" pos="432" key="73" len="24" vol="78"/>
          <note pan="0" pos="456" key="68" len="24" vol="78"/>
          <note pan="0" pos="480" key="64" len="24" vol="78"/>
          <note pan="0" pos="504" key="68" len="24" vol="78"/>
          <note pan="0" pos="528" key="73" len="24" vol="78"/>
          <note pan="0" pos="552" key="68" len="24" vol="78"/>
          <note pan="0" pos="576" key="66" len="24" vol="78"/>
          <note pan="0" pos="600" key="71" len="24" vol="78"/>
          <note pan="0" pos="624" key="76" len="24" vol="78"/>
          <note pan="0" pos="648" key="71" len="24" vol="78"/>
          <note pan="0" pos="672" key="66" len="24" vol="78"/>
          <note pan="0" pos="696" key="71" len="24" vol="78"/>
          <note pan="0" pos="720" key="75" len="24" vol="78"/>
          <note pan="0" pos="744" key="71" len="24" vol="78"/>
          <note pan="0" pos="768" key="64" len="24" vol="78"/>
          <note pan="0" pos="792" key="68" len="24" vol="78"/>
          <note pan="0" pos="816" key="73" len="24" vol="78"/>
          <note pan="0" pos="840" key="68" len="24" vol="78"/>
          <note pan="0" pos="864" key="64" len="24" vol="78"/>
          <note pan="0" pos="888" key="68" len="24" vol="78"/>
          <note pan="0" pos="912" key="73" len="24" vol="78"/>
          <note pan="0" pos="936" key="68" len="24" vol="78"/>
          <note pan="0" pos="960" key="63" len="24" vol="78"/>
          <note pan="0" pos="984" key="66" len="24" vol="78"/>
          <note pan="0" pos="1008" key="71" len="24" vol="78"/>
          <note pan="0" pos="1032" key="66" len="24" vol="78"/>
          <note pan="0" pos="1056" key="63" len="24" vol="78"/>
          <note pan="0" pos="1080" key="66" len="24" vol="78"/>
          <note pan="0" pos="1104" key="71" len="24" vol="78"/>
          <note pan="0" pos="1128" key="66" len="24" vol="78"/>
          <note pan="0" pos="1152" key="64" len="24" vol="78"/>
          <note pan="0" pos="1176" key="68" len="24" vol="78"/>
          <note pan="0" pos="1200" key="73" len="24" vol="78"/>
          <note pan="0" pos="1224" key="68" len="24" vol="78"/>
          <note pan="0" pos="1248" key="64" len="24" vol="78"/>
          <note pan="0" pos="1272" key="68" len="24" vol="78"/>
          <note pan="0" pos="1296" key="73" len="24" vol="78"/>
          <note pan="0" pos="1320" key="68" len="24" vol="78"/>
          <note pan="0" pos="1344" key="66" len="24" vol="78"/>
          <note pan="0" pos="1368" key="68" len="24" vol="78"/>
          <note pan="0" pos="1392" key="66" len="24" vol="78"/>
          <note pan="0" pos="1416" key="64" len="24" vol="78"/>
          <note pan="0" pos="1440" key="63" len="24" vol="78"/>
          <note pan="0" pos="1464" key="60" len="24" vol="78"/>
          <note pan="0" pos="1488" key="66" len="24" vol="78"/>
          <note pan="0" pos="1512" key="63" len="24" vol="78"/>
          <note pan="0" pos="1536" key="61" len="24" vol="78"/>
          <note pan="0" pos="1560" key="68" len="24" vol="78"/>
          <note pan="0" pos="1584" key="73" len="24" vol="78"/>
          <note pan="0" pos="1608" key="68" len="24" vol="78"/>
          <note pan="0" pos="1632" key="61" len="24" vol="78"/>
          <note pan="0" pos="1656" key="68" len="24" vol="78"/>
          <note pan="0" pos="1680" key="73" len="24" vol="78"/>
          <note pan="0" pos="1704" key="68" len="24" vol="78"/>
          <note pan="0" pos="1728" key="63" len="24" vol="78"/>
          <note pan="0" pos="1752" key="68" len="24" vol="78"/>
          <note pan="0" pos="1776" key="71" len="24" vol="78"/>
          <note pan="0" pos="1800" key="68" len="24" vol="78"/>
          <note pan="0" pos="1824" key="63" len="24" vol="78"/>
          <note pan="0" pos="1848" key="68" len="24" vol="78"/>
          <note pan="0" pos="1872" key="71" len="24" vol="78"/>
          <note pan="0" pos="1896" key="68" len="24" vol="78"/>
          <note pan="0" pos="1920" key="61" len="24" vol="78"/>
          <note pan="0" pos="1944" key="66" len="24" vol="78"/>
          <note pan="0" pos="1968" key="70" len="24" vol="78"/>
          <note pan="0" pos="1992" key="66" len="24" vol="78"/>
          <note pan="0" pos="2016" key="61" len="24" vol="78"/>
          <note pan="0" pos="2040" key="66" len="24" vol="78"/>
          <note pan="0" pos="2064" key="70" len="24" vol="78"/>
          <note pan="0" pos="2088" key="66" len="24" vol="78"/>
          <note pan="0" pos="2112" key="61" len="24" vol="78"/>
          <note pan="0" pos="2136" key="66" len="24" vol="78"/>
          <note pan="0" pos="2160" key="70" len="24" vol="78"/>
          <note pan="0" pos="2184" key="66" len="24" vol="78"/>
          <note pan="0" pos="2208" key="61" len="24" vol="78"/>
          <note pan="0" pos="2232" key="66" len="24" vol="78"/>
          <note pan="0" pos="2256" key="70" len="24" vol="78"/>
          <note pan="0" pos="2280" key="66" len="24" vol="78"/>
          <note pan="0" pos="2304" key="66" len="24" vol="78"/>
          <note pan="0" pos="2328" key="69" len="24" vol="78"/>
          <note pan="0" pos="2352" key="73" len="24" vol="78"/>
          <note pan="0" pos="2376" key="69" len="24" vol="78"/>
          <note pan="0" pos="2400" key="66" len="24" vol="78"/>
          <note pan="0" pos="2424" key="69" len="24" vol="78"/>
          <note pan="0" pos="2448" key="73" len="24" vol="78"/>
          <note pan="0" pos="2472" key="69" len="24" vol="78"/>
          <note pan="0" pos="2496" key="63" len="24" vol="78"/>
          <note pan="0" pos="2520" key="68" len="24" vol="78"/>
          <note pan="0" pos="2544" key="73" len="24" vol="78"/>
          <note pan="0" pos="2568" key="68" len="24" vol="78"/>
          <note pan="0" pos="2592" key="63" len="24" vol="78"/>
          <note pan="0" pos="2616" key="68" len="24" vol="78"/>
          <note pan="0" pos="2640" key="73" len="24" vol="78"/>
          <note pan="0" pos="2664" key="68" len="24" vol="78"/>
          <note pan="0" pos="2688" key="66" len="24" vol="78"/>
          <note pan="0" pos="2712" key="71" len="24" vol="78"/>
          <note pan="0" pos="2736" key="75" len="24" vol="78"/>
          <note pan="0" pos="2760" key="71" len="24" vol="78"/>
          <note pan="0" pos="2784" key="66" len="24" vol="78"/>
          <note pan="0" pos="2808" key="71" len="24" vol="78"/>
          <note pan="0" pos="2832" key="75" len="24" vol="78"/>
          <note pan="0" pos="2856" key="71" len="24" vol="78"/>
          <note pan="0" pos="2880" key="66" len="96" vol="78"/>
          <note pan="0" pos="2976" key="59" len="96" vol="78"/>
          <note pan="0" pos="3072" key="68" len="12" vol="78"/>
          <note pan="0" pos="3084" key="64" len="12" vol="78"/>
          <note pan="0" pos="3096" key="61" len="12" vol="78"/>
          <note pan="0" pos="3108" key="56" len="12" vol="78"/>
          <note pan="0" pos="3120" key="52" len="12" vol="78"/>
          <note pan="0" pos="3132" key="49" len="12" vol="78"/>
          <note pan="0" pos="3168" key="61" len="12" vol="78"/>
          <note pan="0" pos="3180" key="56" len="12" vol="78"/>
          <note pan="0" pos="3192" key="52" len="12" vol="78"/>
          <note pan="0" pos="3204" key="49" len="12" vol="78"/>
          <note pan="0" pos="3216" key="76" len="12" vol="78"/>
          <note pan="0" pos="3228" key="71" len="12" vol="78"/>
          <note pan="0" pos="3240" key="68" len="12" vol="78"/>
          <note pan="0" pos="3252" key="64" len="12" vol="78"/>
          <note pan="0" pos="3264" key="76" len="12" vol="78"/>
          <note pan="0" pos="3276" key="71" len="12" vol="78"/>
          <note pan="0" pos="3288" key="80" len="12" vol="78"/>
          <note pan="0" pos="3300" key="76" len="12" vol="78"/>
          <note pan="0" pos="3312" key="71" len="12" vol="78"/>
          <note pan="0" pos="3324" key="68" len="12" vol="78"/>
          <note pan="0" pos="3336" key="64" len="12" vol="78"/>
          <note pan="0" pos="3348" key="61" len="12" vol="78"/>
          <note pan="0" pos="3360" key="73" len="12" vol="78"/>
          <note pan="0" pos="3372" key="68" len="12" vol="78"/>
          <note pan="0" pos="3384" key="64" len="12" vol="78"/>
          <note pan="0" pos="3396" key="61" len="12" vol="78"/>
          <note pan="0" pos="3408" key="68" len="12" vol="78"/>
          <note pan="0" pos="3420" key="64" len="12" vol="78"/>
          <note pan="0" pos="3432" key="56" len="12" vol="78"/>
          <note pan="0" pos="3444" key="49" len="12" vol="78"/>
          <note pan="0" pos="3456" key="69" len="12" vol="78"/>
          <note pan="0" pos="3468" key="66" len="12" vol="78"/>
          <note pan="0" pos="3480" key="57" len="12" vol="78"/>
          <note pan="0" pos="3492" key="54" len="12" vol="78"/>
          <note pan="0" pos="3504" key="49" len="12" vol="78"/>
          <note pan="0" pos="3516" key="47" len="12" vol="78"/>
          <note pan="0" pos="3528" key="74" len="12" vol="78"/>
          <note pan="0" pos="3540" key="69" len="12" vol="78"/>
          <note pan="0" pos="3552" key="66" len="12" vol="78"/>
          <note pan="0" pos="3564" key="61" len="12" vol="78"/>
          <note pan="0" pos="3576" key="57" len="12" vol="78"/>
          <note pan="0" pos="3588" key="54" len="12" vol="78"/>
          <note pan="0" pos="3600" key="78" len="12" vol="78"/>
          <note pan="0" pos="3612" key="74" len="12" vol="78"/>
          <note pan="0" pos="3624" key="69" len="12" vol="78"/>
          <note pan="0" pos="3636" key="66" len="12" vol="78"/>
          <note pan="0" pos="3672" key="81" len="12" vol="78"/>
          <note pan="0" pos="3684" key="78" len="12" vol="78"/>
          <note pan="0" pos="3696" key="73" len="12" vol="78"/>
          <note pan="0" pos="3708" key="69" len="12" vol="78"/>
          <note pan="0" pos="3720" key="66" len="12" vol="78"/>
          <note pan="0" pos="3732" key="61" len="12" vol="78"/>
          <note pan="0" pos="3744" key="74" len="12" vol="78"/>
          <note pan="0" pos="3756" key="71" len="12" vol="78"/>
          <note pan="0" pos="3768" key="66" len="12" vol="78"/>
          <note pan="0" pos="3780" key="61" len="12" vol="78"/>
          <note pan="0" pos="3792" key="69" len="12" vol="78"/>
          <note pan="0" pos="3804" key="66" len="12" vol="78"/>
          <note pan="0" pos="3816" key="61" len="12" vol="78"/>
          <note pan="0" pos="3828" key="57" len="12" vol="78"/>
          <note pan="0" pos="3840" key="68" len="12" vol="78"/>
          <note pan="0" pos="3852" key="64" len="12" vol="78"/>
          <note pan="0" pos="3864" key="61" len="12" vol="78"/>
          <note pan="0" pos="3876" key="56" len="12" vol="78"/>
          <note pan="0" pos="3912" key="73" len="12" vol="78"/>
          <note pan="0" pos="3924" key="69" len="12" vol="78"/>
          <note pan="0" pos="3936" key="68" len="12" vol="78"/>
          <note pan="0" pos="3948" key="64" len="12" vol="78"/>
          <note pan="0" pos="3960" key="56" len="12" vol="78"/>
          <note pan="0" pos="3972" key="52" len="12" vol="78"/>
          <note pan="0" pos="3984" key="76" len="12" vol="78"/>
          <note pan="0" pos="3996" key="71" len="12" vol="78"/>
          <note pan="0" pos="4008" key="68" len="12" vol="78"/>
          <note pan="0" pos="4020" key="64" len="12" vol="78"/>
          <note pan="0" pos="4056" key="81" len="12" vol="78"/>
          <note pan="0" pos="4068" key="78" len="12" vol="78"/>
          <note pan="0" pos="4080" key="78" len="12" vol="78"/>
          <note pan="0" pos="4092" key="69" len="12" vol="78"/>
          <note pan="0" pos="4104" key="66" len="12" vol="78"/>
          <note pan="0" pos="4116" key="64" len="12" vol="78"/>
          <note pan="0" pos="4128" key="73" len="12" vol="78"/>
          <note pan="0" pos="4140" key="69" len="12" vol="78"/>
          <note pan="0" pos="4152" key="66" len="12" vol="78"/>
          <note pan="0" pos="4164" key="61" len="12" vol="78"/>
          <note pan="0" pos="4176" key="68" len="12" vol="78"/>
          <note pan="0" pos="4188" key="64" len="12" vol="78"/>
          <note pan="0" pos="4200" key="61" len="12" vol="78"/>
          <note pan="0" pos="4212" key="56" len="12" vol="78"/>
          <note pan="0" pos="4224" key="69" len="12" vol="78"/>
          <note pan="0" pos="4236" key="66" len="12" vol="78"/>
          <note pan="0" pos="4248" key="57" len="12" vol="78"/>
          <note pan="0" pos="4260" key="54" len="12" vol="78"/>
          <note pan="0" pos="4272" key="52" len="12" vol="78"/>
          <note pan="0" pos="4284" key="49" len="12" vol="78"/>
          <note pan="0" pos="4296" key="74" len="12" vol="78"/>
          <note pan="0" pos="4308" key="69" len="12" vol="78"/>
          <note pan="0" pos="4320" key="66" len="12" vol="78"/>
          <note pan="0" pos="4332" key="61" len="12" vol="78"/>
          <note pan="0" pos="4344" key="57" len="12" vol="78"/>
          <note pan="0" pos="4356" key="54" len="12" vol="78"/>
          <note pan="0" pos="4368" key="78" len="12" vol="78"/>
          <note pan="0" pos="4380" key="74" len="12" vol="78"/>
          <note pan="0" pos="4392" key="69" len="12" vol="78"/>
          <note pan="0" pos="4404" key="66" len="12" vol="78"/>
          <note pan="0" pos="4440" key="81" len="12" vol="78"/>
          <note pan="0" pos="4452" key="78" len="12" vol="78"/>
          <note pan="0" pos="4464" key="73" len="12" vol="78"/>
          <note pan="0" pos="4476" key="69" len="12" vol="78"/>
          <note pan="0" pos="4488" key="66" len="12" vol="78"/>
          <note pan="0" pos="4500" key="61" len="12" vol="78"/>
          <note pan="0" pos="4512" key="74" len="12" vol="78"/>
          <note pan="0" pos="4524" key="71" len="12" vol="78"/>
          <note pan="0" pos="4536" key="66" len="12" vol="78"/>
          <note pan="0" pos="4548" key="61" len="12" vol="78"/>
          <note pan="0" pos="4560" key="69" len="12" vol="78"/>
          <note pan="0" pos="4572" key="66" len="12" vol="78"/>
          <note pan="0" pos="4584" key="61" len="12" vol="78"/>
          <note pan="0" pos="4596" key="57" len="12" vol="78"/>
        </pattern>
        <pattern type="1" pos="47232" muted="0" name="Orchestra Soundfont 2 COMBO" steps="16">
          <note pan="0" pos="0" key="61" len="24" vol="78"/>
          <note pan="0" pos="24" key="68" len="24" vol="78"/>
          <note pan="0" pos="48" key="73" len="24" vol="78"/>
          <note pan="0" pos="72" key="68" len="24" vol="78"/>
          <note pan="0" pos="96" key="76" len="24" vol="78"/>
          <note pan="0" pos="120" key="68" len="24" vol="78"/>
          <note pan="0" pos="144" key="73" len="24" vol="78"/>
          <note pan="0" pos="168" key="68" len="24" vol="78"/>
          <note pan="0" pos="192" key="63" len="24" vol="78"/>
          <note pan="0" pos="216" key="68" len="24" vol="78"/>
          <note pan="0" pos="240" key="71" len="24" vol="78"/>
          <note pan="0" pos="264" key="68" len="24" vol="78"/>
          <note pan="0" pos="288" key="63" len="24" vol="78"/>
          <note pan="0" pos="312" key="68" len="24" vol="78"/>
          <note pan="0" pos="336" key="71" len="24" vol="78"/>
          <note pan="0" pos="360" key="68" len="24" vol="78"/>
          <note pan="0" pos="384" key="64" len="24" vol="78"/>
          <note pan="0" pos="408" key="68" len="24" vol="78"/>
          <note pan="0" pos="432" key="73" len="24" vol="78"/>
          <note pan="0" pos="456" key="68" len="24" vol="78"/>
          <note pan="0" pos="480" key="64" len="24" vol="78"/>
          <note pan="0" pos="504" key="68" len="24" vol="78"/>
          <note pan="0" pos="528" key="73" len="24" vol="78"/>
          <note pan="0" pos="552" key="68" len="24" vol="78"/>
          <note pan="0" pos="576" key="66" len="24" vol="78"/>
          <note pan="0" pos="600" key="71" len="24" vol="78"/>
          <note pan="0" pos="624" key="76" len="24" vol="78"/>
          <note pan="0" pos="648" key="71" len="24" vol="78"/>
          <note pan="0" pos="672" key="66" len="24" vol="78"/>
          <note pan="0" pos="696" key="71" len="24" vol="78"/>
          <note pan="0" pos="720" key="75" len="24" vol="78"/>
          <note pan="0" pos="744" key="71" len="24" vol="78"/>
          <note pan="0" pos="768" key="64" len="24" vol="78"/>
          <note pan="0" pos="792" key="68" len="24" vol="78"/>
          <note pan="0" pos="816" key="73" len="24" vol="78"/>
          <note pan="0" pos="840" key="68" len="24" vol="78"/>
          <note pan="0" pos="864" key="64" len="24" vol="78"/>
          <note pan="0" pos="888" key="68" len="24" vol="78"/>
          <note pan="0" pos="912" key="73" len="24" vol="78"/>
          <note pan="0" pos="936" key="68" len="24" vol="78"/>
          <note pan="0" pos="960" key="63" len="24" vol="78"/>
          <note pan="0" pos="984" key="66" len="24" vol="78"/>
          <note pan="0" pos="1008" key="71" len="24" vol="78"/>
          <note pan="0" pos="1032" key="66" len="24" vol="78"/>
          <note pan="0" pos="1056" key="63" len="24" vol="78"/>
          <note pan="0" pos="1080" key="66" len="24" vol="78"/>
          <note pan="0" pos="1104" key="71" len="24" vol="78"/>
          <note pan="0" pos="1128" key="66" len="24" vol="78"/>
          <note pan="0" pos="1152" key="64" len="24" vol="78"/>
          <note pan="0" pos="1176" key="68" len="24" vol="78"/>
          <note pan="0" pos="1200" key="73" len="24" vol="78"/>
          <note pan="0" pos="1224" key="68" len="24" vol="78"/>
          <note pan="0" pos="1248" key="64" len="24" vol="78"/>
          <note pan="0" pos="1272" key="68" len="24" vol="78"/>
          <note pan="0" pos="1296" key="73" len="24" vol="78"/>
          <note pan="0" pos="1320" key="68" len="24" vol="78"/>
          <note pan="0" pos="1344" key="66" len="24" vol="78"/>
          <note pan="0" pos="1368" key="68" len="24" vol="78"/>
          <note pan="0" pos="1392" key="66" len="24" vol="78"/>
          <note pan="0" pos="1416" key="64" len="24" vol="78"/>
          <note pan="0" pos="1440" key="63" len="24" vol="78"/>
          <note pan="0" pos="1464" key="60" len="24" vol="78"/>
          <note pan="0" pos="1488" key="66" len="24" vol="78"/>
          <note pan="0" pos="1512" key="63" len="24" vol="78"/>
          <note pan="0" pos="1536" key="61" len="24" vol="78"/>
          <note pan="0" pos="1560" key="68" len="24" vol="78"/>
          <note pan="0" pos="1584" key="73" len="24" vol="78"/>
          <note pan="0" pos="1608" key="68" len="24" vol="78"/>
          <note pan="0" pos="1632" key="61" len="24" vol="78"/>
          <note pan="0" pos="1656" key="68" len="24" vol="78"/>
          <note pan="0" pos="1680" key="73" len="24" vol="78"/>
          <note pan="0" pos="1704" key="68" len="24" vol="78"/>
          <note pan="0" pos="1728" key="63" len="24" vol="78"/>
          <note pan="0" pos="1752" key="68" len="24" vol="78"/>
          <note pan="0" pos="1776" key="71" len="24" vol="78"/>
          <note pan="0" pos="1800" key="68" len="24" vol="78"/>
          <note pan="0" pos="1824" key="63" len="24" vol="78"/>
          <note pan="0" pos="1848" key="68" len="24" vol="78"/>
          <note pan="0" pos="1872" key="71" len="24" vol="78"/>
          <note pan="0" pos="1896" key="68" len="24" vol="78"/>
          <note pan="0" pos="1920" key="61" len="24" vol="78"/>
          <note pan="0" pos="1944" key="66" len="24" vol="78"/>
          <note pan="0" pos="1968" key="70" len="24" vol="78"/>
          <note pan="0" pos="1992" key="66" len="24" vol="78"/>
          <note pan="0" pos="2016" key="61" len="24" vol="78"/>
          <note pan="0" pos="2040" key="66" len="24" vol="78"/>
          <note pan="0" pos="2064" key="70" len="24" vol="78"/>
          <note pan="0" pos="2088" key="66" len="24" vol="78"/>
          <note pan="0" pos="2112" key="61" len="24" vol="78"/>
          <note pan="0" pos="2136" key="66" len="24" vol="78"/>
          <note pan="0" pos="2160" key="70" len="24" vol="78"/>
          <note pan="0" pos="2184" key="66" len="24" vol="78"/>
          <note pan="0" pos="2208" key="61" len="24" vol="78"/>
          <note pan="0" pos="2232" key="66" len="24" vol="78"/>
          <note pan="0" pos="2256" key="70" len="24" vol="78"/>
          <note pan="0" pos="2280" key="66" len="24" vol="78"/>
          <note pan="0" pos="2304" key="66" len="24" vol="78"/>
          <note pan="0" pos="2328" key="69" len="24" vol="78"/>
          <note pan="0" pos="2352" key="73" len="24" vol="78"/>
          <note pan="0" pos="2376" key="69" len="24" vol="78"/>
          <note pan="0" pos="2400" key="66" len="24" vol="78"/>
          <note pan="0" pos="2424" key="69" len="24" vol="78"/>
          <note pan="0" pos="2448" key="73" len="24" vol="78"/>
          <note pan="0" pos="2472" key="69" len="24" vol="78"/>
          <note pan="0" pos="2496" key="63" len="24" vol="78"/>
          <note pan="0" pos="2520" key="68" len="24" vol="78"/>
          <note pan="0" pos="2544" key="73" len="24" vol="78"/>
          <note pan="0" pos="2568" key="68" len="24" vol="78"/>
          <note pan="0" pos="2592" key="63" len="24" vol="78"/>
          <note pan="0" pos="2616" key="68" len="24" vol="78"/>
          <note pan="0" pos="2640" key="73" len="24" vol="78"/>
          <note pan="0" pos="2664" key="68" len="24" vol="78"/>
          <note pan="0" pos="2688" key="66" len="24" vol="78"/>
          <note pan="0" pos="2712" key="71" len="24" vol="78"/>
          <note pan="0" pos="2736" key="75" len="24" vol="78"/>
          <note pan="0" pos="2760" key="71" len="24" vol="78"/>
          <note pan="0" pos="2784" key="66" len="24" vol="78"/>
          <note pan="0" pos="2808" key="71" len="24" vol="78"/>
          <note pan="0" pos="2832" key="75" len="24" vol="78"/>
          <note pan="0" pos="2856" key="71" len="24" vol="78"/>
          <note pan="0" pos="2880" key="63" len="24" vol="78"/>
          <note pan="0" pos="2880" key="51" len="24" vol="78"/>
          <note pan="0" pos="2904" key="63" len="24" vol="78"/>
          <note pan="0" pos="2904" key="51" len="24" vol="78"/>
          <note pan="0" pos="2976" key="71" len="24" vol="78"/>
          <note pan="0" pos="2976" key="59" len="24" vol="78"/>
          <note pan="0" pos="3000" key="71" len="24" vol="78"/>
          <note pan="0" pos="3000" key="59" len="24" vol="78"/>
          <note pan="0" pos="3072" key="56" len="12" vol="78"/>
          <note pan="0" pos="3084" key="61" len="12" vol="78"/>
          <note pan="0" pos="3096" key="64" len="12" vol="78"/>
          <note pan="0" pos="3108" key="68" len="12" vol="78"/>
          <note pan="0" pos="3120" key="73" len="12" vol="78"/>
          <note pan="0" pos="3132" key="76" len="12" vol="78"/>
          <note pan="0" pos="3144" key="80" len="12" vol="78"/>
          <note pan="0" pos="3156" key="83" len="12" vol="78"/>
          <note pan="0" pos="3168" key="73" len="12" vol="78"/>
          <note pan="0" pos="3180" key="83" len="12" vol="78"/>
          <note pan="0" pos="3192" key="80" len="12" vol="78"/>
          <note pan="0" pos="3204" key="76" len="12" vol="78"/>
          <note pan="0" pos="3216" key="73" len="12" vol="78"/>
          <note pan="0" pos="3228" key="68" len="12" vol="78"/>
          <note pan="0" pos="3240" key="64" len="12" vol="78"/>
          <note pan="0" pos="3252" key="61" len="12" vol="78"/>
          <note pan="0" pos="3264" key="56" len="12" vol="78"/>
          <note pan="0" pos="3276" key="61" len="12" vol="78"/>
          <note pan="0" pos="3288" key="64" len="12" vol="78"/>
          <note pan="0" pos="3300" key="68" len="12" vol="78"/>
          <note pan="0" pos="3312" key="73" len="12" vol="78"/>
          <note pan="0" pos="3324" key="76" len="12" vol="78"/>
          <note pan="0" pos="3336" key="80" len="12" vol="78"/>
          <note pan="0" pos="3348" key="83" len="12" vol="78"/>
          <note pan="0" pos="3360" key="73" len="12" vol="78"/>
          <note pan="0" pos="3372" key="83" len="12" vol="78"/>
          <note pan="0" pos="3384" key="80" len="12" vol="78"/>
          <note pan="0" pos="3396" key="76" len="12" vol="78"/>
          <note pan="0" pos="3408" key="73" len="12" vol="78"/>
          <note pan="0" pos="3420" key="68" len="12" vol="78"/>
          <note pan="0" pos="3432" key="64" len="12" vol="78"/>
          <note pan="0" pos="3444" key="61" len="12" vol="78"/>
          <note pan="0" pos="3456" key="54" len="12" vol="78"/>
          <note pan="0" pos="3468" key="59" len="12" vol="78"/>
          <note pan="0" pos="3480" key="63" len="12" vol="78"/>
          <note pan="0" pos="3492" key="66" len="12" vol="78"/>
          <note pan="0" pos="3504" key="69" len="12" vol="78"/>
          <note pan="0" pos="3516" key="73" len="12" vol="78"/>
          <note pan="0" pos="3528" key="76" len="12" vol="78"/>
          <note pan="0" pos="3540" key="80" len="12" vol="78"/>
          <note pan="0" pos="3552" key="83" len="12" vol="78"/>
          <note pan="0" pos="3564" key="80" len="12" vol="78"/>
          <note pan="0" pos="3576" key="75" len="12" vol="78"/>
          <note pan="0" pos="3588" key="71" len="12" vol="78"/>
          <note pan="0" pos="3600" key="66" len="12" vol="78"/>
          <note pan="0" pos="3612" key="61" len="12" vol="78"/>
          <note pan="0" pos="3624" key="59" len="12" vol="78"/>
          <note pan="0" pos="3636" key="54" len="12" vol="78"/>
          <note pan="0" pos="3648" key="54" len="12" vol="78"/>
          <note pan="0" pos="3660" key="59" len="12" vol="78"/>
          <note pan="0" pos="3672" key="63" len="12" vol="78"/>
          <note pan="0" pos="3684" key="66" len="12" vol="78"/>
          <note pan="0" pos="3696" key="69" len="12" vol="78"/>
          <note pan="0" pos="3708" key="73" len="12" vol="78"/>
          <note pan="0" pos="3720" key="76" len="12" vol="78"/>
          <note pan="0" pos="3732" key="80" len="12" vol="78"/>
          <note pan="0" pos="3744" key="83" len="12" vol="78"/>
          <note pan="0" pos="3756" key="80" len="12" vol="78"/>
          <note pan="0" pos="3768" key="75" len="12" vol="78"/>
          <note pan="0" pos="3780" key="71" len="12" vol="78"/>
          <note pan="0" pos="3792" key="66" len="12" vol="78"/>
          <note pan="0" pos="3804" key="61" len="12" vol="78"/>
          <note pan="0" pos="3816" key="59" len="12" vol="78"/>
          <note pan="0" pos="3828" key="54" len="12" vol="78"/>
          <note pan="0" pos="3840" key="54" len="12" vol="78"/>
          <note pan="0" pos="3852" key="57" len="12" vol="78"/>
          <note pan="0" pos="3864" key="61" len="12" vol="78"/>
          <note pan="0" pos="3876" key="64" len="12" vol="78"/>
          <note pan="0" pos="3888" key="66" len="12" vol="78"/>
          <note pan="0" pos="3900" key="73" len="12" vol="78"/>
          <note pan="0" pos="3912" key="76" len="12" vol="78"/>
          <note pan="0" pos="3924" key="78" len="12" vol="78"/>
          <note pan="0" pos="3936" key="82" len="12" vol="78"/>
          <note pan="0" pos="3948" key="78" len="12" vol="78"/>
          <note pan="0" pos="3960" key="76" len="12" vol="78"/>
          <note pan="0" pos="3972" key="73" len="12" vol="78"/>
          <note pan="0" pos="3984" key="66" len="12" vol="78"/>
          <note pan="0" pos="3996" key="64" len="12" vol="78"/>
          <note pan="0" pos="4008" key="61" len="12" vol="78"/>
          <note pan="0" pos="4020" key="57" len="12" vol="78"/>
          <note pan="0" pos="4032" key="54" len="12" vol="78"/>
          <note pan="0" pos="4044" key="57" len="12" vol="78"/>
          <note pan="0" pos="4056" key="61" len="12" vol="78"/>
          <note pan="0" pos="4068" key="64" len="12" vol="78"/>
          <note pan="0" pos="4080" key="66" len="12" vol="78"/>
          <note pan="0" pos="4092" key="73" len="12" vol="78"/>
          <note pan="0" pos="4104" key="76" len="12" vol="78"/>
          <note pan="0" pos="4116" key="78" len="12" vol="78"/>
          <note pan="0" pos="4128" key="82" len="12" vol="78"/>
          <note pan="0" pos="4140" key="78" len="12" vol="78"/>
          <note pan="0" pos="4152" key="76" len="12" vol="78"/>
          <note pan="0" pos="4164" key="73" len="12" vol="78"/>
          <note pan="0" pos="4176" key="66" len="12" vol="78"/>
          <note pan="0" pos="4188" key="64" len="12" vol="78"/>
          <note pan="0" pos="4200" key="61" len="12" vol="78"/>
          <note pan="0" pos="4212" key="57" len="12" vol="78"/>
          <note pan="0" pos="4224" key="51" len="12" vol="78"/>
          <note pan="0" pos="4236" key="54" len="12" vol="78"/>
          <note pan="0" pos="4248" key="57" len="12" vol="78"/>
          <note pan="0" pos="4260" key="63" len="12" vol="78"/>
          <note pan="0" pos="4272" key="66" len="12" vol="78"/>
          <note pan="0" pos="4284" key="69" len="12" vol="78"/>
          <note pan="0" pos="4296" key="73" len="12" vol="78"/>
          <note pan="0" pos="4308" key="76" len="12" vol="78"/>
          <note pan="0" pos="4320" key="81" len="12" vol="78"/>
          <note pan="0" pos="4332" key="78" len="12" vol="78"/>
          <note pan="0" pos="4344" key="73" len="12" vol="78"/>
          <note pan="0" pos="4356" key="69" len="12" vol="78"/>
          <note pan="0" pos="4368" key="66" len="12" vol="78"/>
          <note pan="0" pos="4380" key="63" len="12" vol="78"/>
          <note pan="0" pos="4392" key="57" len="12" vol="78"/>
          <note pan="0" pos="4404" key="54" len="12" vol="78"/>
          <note pan="0" pos="4416" key="51" len="12" vol="78"/>
          <note pan="0" pos="4428" key="54" len="12" vol="78"/>
          <note pan="0" pos="4440" key="57" len="12" vol="78"/>
          <note pan="0" pos="4452" key="63" len="12" vol="78"/>
          <note pan="0" pos="4464" key="66" len="12" vol="78"/>
          <note pan="0" pos="4476" key="69" len="12" vol="78"/>
          <note pan="0" pos="4488" key="73" len="12" vol="78"/>
          <note pan="0" pos="4500" key="76" len="12" vol="78"/>
          <note pan="0" pos="4512" key="81" len="12" vol="78"/>
          <note pan="0" pos="4524" key="78" len="12" vol="78"/>
          <note pan="0" pos="4536" key="73" len="12" vol="78"/>
          <note pan="0" pos="4548" key="69" len="12" vol="78"/>
          <note pan="0" pos="4560" key="66" len="12" vol="78"/>
          <note pan="0" pos="4572" key="63" len="12" vol="78"/>
          <note pan="0" pos="4584" key="57" len="12" vol="78"/>
          <note pan="0" pos="4596" key="54" len="12" vol="78"/>
          <note pan="0" pos="4608" key="52" len="12" vol="78"/>
          <note pan="0" pos="4620" key="61" len="12" vol="78"/>
          <note pan="0" pos="4632" key="64" len="12" vol="78"/>
          <note pan="0" pos="4644" key="68" len="12" vol="78"/>
          <note pan="0" pos="4656" key="73" len="12" vol="78"/>
          <note pan="0" pos="4668" key="76" len="12" vol="78"/>
          <note pan="0" pos="4680" key="80" len="12" vol="78"/>
          <note pan="0" pos="4692" key="83" len="12" vol="78"/>
          <note pan="0" pos="4704" key="73" len="12" vol="78"/>
          <note pan="0" pos="4716" key="83" len="12" vol="78"/>
          <note pan="0" pos="4728" key="80" len="12" vol="78"/>
          <note pan="0" pos="4740" key="76" len="12" vol="78"/>
          <note pan="0" pos="4752" key="73" len="12" vol="78"/>
          <note pan="0" pos="4764" key="68" len="12" vol="78"/>
          <note pan="0" pos="4776" key="64" len="12" vol="78"/>
          <note pan="0" pos="4788" key="61" len="12" vol="78"/>
          <note pan="0" pos="4800" key="52" len="12" vol="78"/>
          <note pan="0" pos="4812" key="61" len="12" vol="78"/>
          <note pan="0" pos="4824" key="64" len="12" vol="78"/>
          <note pan="0" pos="4836" key="68" len="12" vol="78"/>
          <note pan="0" pos="4848" key="73" len="12" vol="78"/>
          <note pan="0" pos="4860" key="76" len="12" vol="78"/>
          <note pan="0" pos="4872" key="80" len="12" vol="78"/>
          <note pan="0" pos="4884" key="83" len="12" vol="78"/>
          <note pan="0" pos="4896" key="73" len="12" vol="78"/>
          <note pan="0" pos="4908" key="83" len="12" vol="78"/>
          <note pan="0" pos="4920" key="80" len="12" vol="78"/>
          <note pan="0" pos="4932" key="76" len="12" vol="78"/>
          <note pan="0" pos="4944" key="73" len="12" vol="78"/>
          <note pan="0" pos="4956" key="68" len="12" vol="78"/>
          <note pan="0" pos="4968" key="64" len="12" vol="78"/>
          <note pan="0" pos="4980" key="61" len="12" vol="78"/>
          <note pan="0" pos="4992" key="54" len="12" vol="78"/>
          <note pan="0" pos="5004" key="59" len="12" vol="78"/>
          <note pan="0" pos="5016" key="63" len="12" vol="78"/>
          <note pan="0" pos="5028" key="66" len="12" vol="78"/>
          <note pan="0" pos="5040" key="69" len="12" vol="78"/>
          <note pan="0" pos="5052" key="73" len="12" vol="78"/>
          <note pan="0" pos="5064" key="76" len="12" vol="78"/>
          <note pan="0" pos="5076" key="80" len="12" vol="78"/>
          <note pan="0" pos="5088" key="83" len="12" vol="78"/>
          <note pan="0" pos="5100" key="80" len="12" vol="78"/>
          <note pan="0" pos="5112" key="75" len="12" vol="78"/>
          <note pan="0" pos="5124" key="71" len="12" vol="78"/>
          <note pan="0" pos="5136" key="66" len="12" vol="78"/>
          <note pan="0" pos="5148" key="61" len="12" vol="78"/>
          <note pan="0" pos="5160" key="59" len="12" vol="78"/>
          <note pan="0" pos="5172" key="54" len="12" vol="78"/>
          <note pan="0" pos="5184" key="54" len="12" vol="78"/>
          <note pan="0" pos="5196" key="59" len="12" vol="78"/>
          <note pan="0" pos="5208" key="63" len="12" vol="78"/>
          <note pan="0" pos="5220" key="66" len="12" vol="78"/>
          <note pan="0" pos="5232" key="69" len="12" vol="78"/>
          <note pan="0" pos="5244" key="73" len="12" vol="78"/>
          <note pan="0" pos="5256" key="76" len="12" vol="78"/>
          <note pan="0" pos="5268" key="80" len="12" vol="78"/>
          <note pan="0" pos="5280" key="83" len="12" vol="78"/>
          <note pan="0" pos="5292" key="80" len="12" vol="78"/>
          <note pan="0" pos="5304" key="75" len="12" vol="78"/>
          <note pan="0" pos="5316" key="71" len="12" vol="78"/>
          <note pan="0" pos="5328" key="66" len="12" vol="78"/>
          <note pan="0" pos="5340" key="61" len="12" vol="78"/>
          <note pan="0" pos="5352" key="59" len="12" vol="78"/>
          <note pan="0" pos="5364" key="54" len="12" vol="78"/>
          <note pan="0" pos="5376" key="54" len="12" vol="78"/>
          <note pan="0" pos="5388" key="57" len="12" vol="78"/>
          <note pan="0" pos="5400" key="63" len="12" vol="78"/>
          <note pan="0" pos="5412" key="66" len="12" vol="78"/>
          <note pan="0" pos="5424" key="69" len="12" vol="78"/>
          <note pan="0" pos="5436" key="73" len="12" vol="78"/>
          <note pan="0" pos="5448" key="76" len="12" vol="78"/>
          <note pan="0" pos="5460" key="81" len="12" vol="78"/>
          <note pan="0" pos="5472" key="75" len="12" vol="78"/>
          <note pan="0" pos="5484" key="81" len="12" vol="78"/>
          <note pan="0" pos="5496" key="76" len="12" vol="78"/>
          <note pan="0" pos="5508" key="73" len="12" vol="78"/>
          <note pan="0" pos="5520" key="69" len="12" vol="78"/>
          <note pan="0" pos="5532" key="66" len="12" vol="78"/>
          <note pan="0" pos="5544" key="63" len="12" vol="78"/>
          <note pan="0" pos="5556" key="57" len="12" vol="78"/>
          <note pan="0" pos="5568" key="54" len="12" vol="78"/>
          <note pan="0" pos="5580" key="57" len="12" vol="78"/>
          <note pan="0" pos="5592" key="63" len="12" vol="78"/>
          <note pan="0" pos="5604" key="66" len="12" vol="78"/>
          <note pan="0" pos="5616" key="69" len="12" vol="78"/>
          <note pan="0" pos="5628" key="73" len="12" vol="78"/>
          <note pan="0" pos="5640" key="76" len="12" vol="78"/>
          <note pan="0" pos="5652" key="81" len="12" vol="78"/>
          <note pan="0" pos="5664" key="75" len="12" vol="78"/>
          <note pan="0" pos="5676" key="81" len="12" vol="78"/>
          <note pan="0" pos="5688" key="76" len="12" vol="78"/>
          <note pan="0" pos="5700" key="73" len="12" vol="78"/>
          <note pan="0" pos="5712" key="69" len="12" vol="78"/>
          <note pan="0" pos="5724" key="66" len="12" vol="78"/>
          <note pan="0" pos="5736" key="63" len="12" vol="78"/>
          <note pan="0" pos="5748" key="57" len="12" vol="78"/>
          <note pan="0" pos="5760" key="57" len="12" vol="78"/>
          <note pan="0" pos="5772" key="61" len="12" vol="78"/>
          <note pan="0" pos="5784" key="64" len="12" vol="78"/>
          <note pan="0" pos="5796" key="68" len="12" vol="78"/>
          <note pan="0" pos="5808" key="71" len="12" vol="78"/>
          <note pan="0" pos="5820" key="75" len="12" vol="78"/>
          <note pan="0" pos="5832" key="78" len="12" vol="78"/>
          <note pan="0" pos="5844" key="81" len="12" vol="78"/>
          <note pan="0" pos="5856" key="73" len="12" vol="78"/>
          <note pan="0" pos="5868" key="81" len="12" vol="78"/>
          <note pan="0" pos="5880" key="78" len="12" vol="78"/>
          <note pan="0" pos="5892" key="75" len="12" vol="78"/>
          <note pan="0" pos="5904" key="71" len="12" vol="78"/>
          <note pan="0" pos="5916" key="68" len="12" vol="78"/>
          <note pan="0" pos="5928" key="64" len="12" vol="78"/>
          <note pan="0" pos="5940" key="61" len="12" vol="78"/>
          <note pan="0" pos="5952" key="57" len="12" vol="78"/>
          <note pan="0" pos="5964" key="61" len="12" vol="78"/>
          <note pan="0" pos="5976" key="64" len="12" vol="78"/>
          <note pan="0" pos="5988" key="68" len="12" vol="78"/>
          <note pan="0" pos="6000" key="71" len="12" vol="78"/>
          <note pan="0" pos="6012" key="75" len="12" vol="78"/>
          <note pan="0" pos="6024" key="78" len="12" vol="78"/>
          <note pan="0" pos="6036" key="81" len="12" vol="78"/>
          <note pan="0" pos="6048" key="72" len="12" vol="78"/>
          <note pan="0" pos="6060" key="81" len="12" vol="78"/>
          <note pan="0" pos="6072" key="78" len="12" vol="78"/>
          <note pan="0" pos="6084" key="75" len="12" vol="78"/>
          <note pan="0" pos="6096" key="71" len="12" vol="78"/>
          <note pan="0" pos="6108" key="68" len="12" vol="78"/>
          <note pan="0" pos="6120" key="64" len="12" vol="78"/>
          <note pan="0" pos="6132" key="61" len="12" vol="78"/>
        </pattern>
        <pattern type="1" pos="30336" muted="0" name="" steps="16">
          <note pan="0" pos="0" key="57" len="12" vol="152"/>
          <note pan="0" pos="12" key="57" len="12" vol="152"/>
          <note pan="0" pos="24" key="56" len="12" vol="152"/>
          <note pan="0" pos="36" key="56" len="12" vol="152"/>
          <note pan="0" pos="48" key="54" len="12" vol="152"/>
          <note pan="0" pos="60" key="54" len="12" vol="152"/>
          <note pan="0" pos="72" key="61" len="12" vol="152"/>
          <note pan="0" pos="84" key="61" len="12" vol="152"/>
          <note pan="0" pos="96" key="59" len="12" vol="152"/>
          <note pan="0" pos="108" key="59" len="12" vol="152"/>
          <note pan="0" pos="120" key="57" len="12" vol="152"/>
          <note pan="0" pos="132" key="57" len="12" vol="152"/>
          <note pan="0" pos="144" key="59" len="12" vol="152"/>
          <note pan="0" pos="156" key="59" len="12" vol="152"/>
          <note pan="0" pos="168" key="61" len="12" vol="152"/>
          <note pan="0" pos="180" key="61" len="12" vol="152"/>
          <note pan="0" pos="192" key="62" len="48" vol="152"/>
          <note pan="0" pos="240" key="61" len="12" vol="152"/>
          <note pan="0" pos="252" key="62" len="12" vol="152"/>
          <note pan="0" pos="264" key="64" len="12" vol="152"/>
          <note pan="0" pos="276" key="66" len="12" vol="152"/>
          <note pan="0" pos="288" key="68" len="12" vol="152"/>
          <note pan="0" pos="300" key="66" len="12" vol="152"/>
          <note pan="0" pos="312" key="64" len="12" vol="152"/>
          <note pan="0" pos="324" key="66" len="12" vol="152"/>
          <note pan="0" pos="336" key="69" len="12" vol="152"/>
          <note pan="0" pos="348" key="68" len="12" vol="152"/>
          <note pan="0" pos="360" key="66" len="12" vol="152"/>
          <note pan="0" pos="372" key="68" len="12" vol="152"/>
          <note pan="0" pos="384" key="68" len="24" vol="152"/>
          <note pan="0" pos="408" key="69" len="24" vol="152"/>
          <note pan="0" pos="456" key="66" len="48" vol="152"/>
          <note pan="0" pos="504" key="62" len="12" vol="152"/>
          <note pan="0" pos="516" key="62" len="12" vol="152"/>
          <note pan="0" pos="528" key="66" len="12" vol="152"/>
          <note pan="0" pos="540" key="66" len="12" vol="152"/>
          <note pan="0" pos="552" key="68" len="12" vol="152"/>
          <note pan="0" pos="564" key="68" len="12" vol="152"/>
          <note pan="0" pos="576" key="71" len="24" vol="152"/>
          <note pan="0" pos="600" key="69" len="12" vol="152"/>
          <note pan="0" pos="612" key="71" len="12" vol="152"/>
          <note pan="0" pos="624" key="73" len="24" vol="152"/>
          <note pan="0" pos="648" key="71" len="12" vol="152"/>
          <note pan="0" pos="660" key="73" len="12" vol="152"/>
          <note pan="0" pos="672" key="76" len="12" vol="152"/>
          <note pan="0" pos="684" key="74" len="12" vol="152"/>
          <note pan="0" pos="696" key="73" len="12" vol="152"/>
          <note pan="0" pos="708" key="71" len="12" vol="152"/>
          <note pan="0" pos="720" key="69" len="12" vol="152"/>
          <note pan="0" pos="732" key="68" len="12" vol="152"/>
          <note pan="0" pos="744" key="66" len="12" vol="152"/>
          <note pan="0" pos="756" key="64" len="12" vol="152"/>
        </pattern>
        <pattern type="1" pos="44928" muted="0" name="" steps="16">
          <note pan="0" pos="0" key="73" len="240" vol="78"/>
          <note pan="0" pos="240" key="76" len="48" vol="78"/>
          <note pan="0" pos="288" key="78" len="48" vol="78"/>
          <note pan="0" pos="336" key="80" len="48" vol="78"/>
          <note pan="0" pos="384" key="81" len="72" vol="78"/>
          <note pan="0" pos="456" key="80" len="72" vol="78"/>
          <note pan="0" pos="528" key="78" len="48" vol="78"/>
          <note pan="0" pos="576" key="76" len="48" vol="78"/>
          <note pan="0" pos="624" key="73" len="48" vol="78"/>
          <note pan="0" pos="672" key="76" len="48" vol="78"/>
          <note pan="0" pos="720" key="80" len="48" vol="78"/>
          <note pan="0" pos="768" key="78" len="192" vol="78"/>
          <note pan="0" pos="960" key="75" len="96" vol="78"/>
          <note pan="0" pos="1056" key="71" len="96" vol="78"/>
        </pattern>
        <pattern type="1" pos="38400" muted="0" name="" steps="16">
          <note pan="0" pos="0" key="73" len="12" vol="78"/>
          <note pan="0" pos="12" key="71" len="12" vol="78"/>
          <note pan="0" pos="24" key="68" len="12" vol="78"/>
          <note pan="0" pos="36" key="71" len="12" vol="78"/>
          <note pan="0" pos="48" key="66" len="12" vol="78"/>
          <note pan="0" pos="60" key="71" len="12" vol="78"/>
          <note pan="0" pos="72" key="68" len="12" vol="78"/>
          <note pan="0" pos="84" key="71" len="12" vol="78"/>
          <note pan="0" pos="96" key="73" len="12" vol="78"/>
          <note pan="0" pos="108" key="71" len="12" vol="78"/>
          <note pan="0" pos="120" key="68" len="12" vol="78"/>
          <note pan="0" pos="132" key="71" len="12" vol="78"/>
          <note pan="0" pos="144" key="66" len="12" vol="78"/>
          <note pan="0" pos="156" key="71" len="12" vol="78"/>
          <note pan="0" pos="168" key="68" len="12" vol="78"/>
          <note pan="0" pos="180" key="71" len="12" vol="78"/>
          <note pan="0" pos="192" key="76" len="12" vol="78"/>
          <note pan="0" pos="204" key="73" len="12" vol="78"/>
          <note pan="0" pos="216" key="71" len="12" vol="78"/>
          <note pan="0" pos="228" key="73" len="12" vol="78"/>
          <note pan="0" pos="240" key="68" len="12" vol="78"/>
          <note pan="0" pos="252" key="73" len="12" vol="78"/>
          <note pan="0" pos="264" key="71" len="12" vol="78"/>
          <note pan="0" pos="276" key="73" len="12" vol="78"/>
          <note pan="0" pos="288" key="76" len="12" vol="78"/>
          <note pan="0" pos="300" key="73" len="12" vol="78"/>
          <note pan="0" pos="312" key="71" len="12" vol="78"/>
          <note pan="0" pos="324" key="73" len="12" vol="78"/>
          <note pan="0" pos="336" key="68" len="12" vol="78"/>
          <note pan="0" pos="348" key="73" len="12" vol="78"/>
          <note pan="0" pos="360" key="71" len="12" vol="78"/>
          <note pan="0" pos="372" key="73" len="12" vol="78"/>
        </pattern>
        <pattern type="1" pos="38976" muted="0" name="" steps="16">
          <note pan="0" pos="0" key="68" len="12" vol="78"/>
          <note pan="0" pos="12" key="66" len="12" vol="78"/>
          <note pan="0" pos="24" key="64" len="12" vol="78"/>
          <note pan="0" pos="36" key="66" len="12" vol="78"/>
          <note pan="0" pos="48" key="61" len="12" vol="78"/>
          <note pan="0" pos="60" key="66" len="12" vol="78"/>
          <note pan="0" pos="72" key="64" len="12" vol="78"/>
          <note pan="0" pos="84" key="66" len="12" vol="78"/>
          <note pan="0" pos="96" key="68" len="12" vol="78"/>
          <note pan="0" pos="108" key="66" len="12" vol="78"/>
          <note pan="0" pos="120" key="64" len="12" vol="78"/>
          <note pan="0" pos="132" key="66" len="12" vol="78"/>
          <note pan="0" pos="144" key="61" len="12" vol="78"/>
          <note pan="0" pos="156" key="66" len="12" vol="78"/>
          <note pan="0" pos="168" key="64" len="12" vol="78"/>
          <note pan="0" pos="180" key="66" len="12" vol="78"/>
          <note pan="0" pos="192" key="71" len="12" vol="78"/>
          <note pan="0" pos="204" key="68" len="12" vol="78"/>
          <note pan="0" pos="216" key="66" len="12" vol="78"/>
          <note pan="0" pos="228" key="68" len="12" vol="78"/>
          <note pan="0" pos="240" key="64" len="12" vol="78"/>
          <note pan="0" pos="252" key="68" len="12" vol="78"/>
          <note pan="0" pos="264" key="66" len="12" vol="78"/>
          <note pan="0" pos="276" key="68" len="12" vol="78"/>
          <note pan="0" pos="288" key="71" len="12" vol="78"/>
          <note pan="0" pos="300" key="68" len="12" vol="78"/>
          <note pan="0" pos="312" key="66" len="12" vol="78"/>
          <note pan="0" pos="324" key="68" len="12" vol="78"/>
          <note pan="0" pos="336" key="64" len="12" vol="78"/>
          <note pan="0" pos="348" key="68" len="12" vol="78"/>
          <note pan="0" pos="360" key="66" len="12" vol="78"/>
          <note pan="0" pos="372" key="68" len="12" vol="78"/>
        </pattern>
        <pattern type="1" pos="37632" muted="0" name="" steps="16">
          <note pan="0" pos="0" key="78" len="12" vol="78"/>
          <note pan="0" pos="0" key="0" len="12" vol="78"/>
          <note pan="0" pos="12" key="73" len="12" vol="78"/>
          <note pan="0" pos="24" key="70" len="12" vol="78"/>
          <note pan="0" pos="24" key="1" len="12" vol="78"/>
          <note pan="0" pos="36" key="73" len="12" vol="78"/>
          <note pan="0" pos="48" key="66" len="12" vol="78"/>
          <note pan="0" pos="60" key="73" len="12" vol="78"/>
          <note pan="0" pos="72" key="70" len="12" vol="78"/>
          <note pan="0" pos="84" key="73" len="12" vol="78"/>
          <note pan="0" pos="96" key="78" len="12" vol="78"/>
          <note pan="0" pos="108" key="73" len="12" vol="78"/>
          <note pan="0" pos="120" key="70" len="12" vol="78"/>
          <note pan="0" pos="132" key="73" len="12" vol="78"/>
          <note pan="0" pos="144" key="66" len="12" vol="78"/>
          <note pan="0" pos="156" key="73" len="12" vol="78"/>
          <note pan="0" pos="168" key="70" len="12" vol="78"/>
          <note pan="0" pos="180" key="73" len="12" vol="78"/>
        </pattern>
      </track>
      <track type="0" muted="1" name="Orchestra Soundfont 2 COMBO" solo="0">
        <instrumenttrack pan="0" pitch="0" basenote="57" usemasterpitch="1" vol="100" fxch="0" pitchrange="2">
          <instrument name="sf2player">
            <sf2player chorusLevel="2" reverbRoomSize="0.2" reverbLevel="0.9" chorusDepth="8" reverbDamping="0" patch="48" chorusOn="0" chorusSpeed="0.3" gain="1" chorusNum="3" bank="0" reverbWidth="0.5" reverbOn="0" src="/home/huggypie/samples/soundfonts/Orchestra Soundfont 2 COMBO.sf2"/>
          </instrument>
          <eldata fres="0.5" fcut="14000" fwet="0" ftype="0">
            <elvol lspd_numerator="4" userwavefile="" lshp="0" x100="0" amt="0" lspd_syncmode="0" ctlenvamt="0" dec="0.5" hold="0.5" lspd_denominator="4" sustain="0.5" lamt="0" lspd="0.1" pdel="0" att="0" lpdel="0" latt="0" rel="0.1"/>
            <elcut lspd_numerator="4" userwavefile="" lshp="0" x100="0" amt="0" lspd_syncmode="0" ctlenvamt="0" dec="0.5" hold="0.5" lspd_denominator="4" sustain="0.5" lamt="0" lspd="0.1" pdel="0" att="0" lpdel="0" latt="0" rel="0.1"/>
            <elres lspd_numerator="4" userwavefile="" lshp="0" x100="0" amt="0" lspd_syncmode="0" ctlenvamt="0" dec="0.5" hold="0.5" lspd_denominator="4" sustain="0.5" lamt="0" lspd="0.1" pdel="0" att="0" lpdel="0" latt="0" rel="0.1"/>
          </eldata>
          <chordcreator chordrange="1" chord="0" chord-enabled="0"/>
          <arpeggiator arpskip="0" arpmiss="0" arp-enabled="0" arpgate="100" arpdir="0" arpcycle="0" arprange="1" arptime_numerator="4" arptime_denominator="4" arptime_syncmode="0" arptime="200" arp="0" arpmode="0"/>
          <midiport outputcontroller="0" inputchannel="0" outputchannel="1" fixedoutputvelocity="-1" readable="0" inputcontroller="0" basevelocity="63" fixedoutputnote="-1" fixedinputvelocity="-1" outputprogram="1" writable="0"/>
          <fxchain enabled="0" numofeffects="0"/>
        </instrumenttrack>
        <pattern type="1" pos="384" muted="0" name="Orchestra Soundfont 2 COMBO" steps="16">
          <note pan="0" pos="0" key="49" len="48" vol="78"/>
          <note pan="0" pos="384" key="49" len="48" vol="78"/>
          <note pan="0" pos="768" key="49" len="48" vol="78"/>
          <note pan="0" pos="1152" key="49" len="48" vol="78"/>
          <note pan="0" pos="1536" key="49" len="384" vol="78"/>
          <note pan="0" pos="1920" key="49" len="384" vol="78"/>
          <note pan="0" pos="2304" key="49" len="384" vol="78"/>
          <note pan="0" pos="2688" key="49" len="384" vol="78"/>
          <note pan="0" pos="3072" key="61" len="48" vol="78"/>
          <note pan="0" pos="3072" key="49" len="48" vol="78"/>
          <note pan="0" pos="3120" key="61" len="48" vol="78"/>
          <note pan="0" pos="3120" key="49" len="48" vol="78"/>
          <note pan="0" pos="3168" key="61" len="48" vol="78"/>
          <note pan="0" pos="3168" key="49" len="48" vol="78"/>
          <note pan="0" pos="3216" key="64" len="48" vol="78"/>
          <note pan="0" pos="3216" key="52" len="48" vol="78"/>
          <note pan="0" pos="3264" key="63" len="48" vol="78"/>
          <note pan="0" pos="3264" key="51" len="48" vol="78"/>
          <note pan="0" pos="3312" key="63" len="48" vol="78"/>
          <note pan="0" pos="3312" key="51" len="48" vol="78"/>
          <note pan="0" pos="3360" key="63" len="48" vol="78"/>
          <note pan="0" pos="3360" key="51" len="48" vol="78"/>
          <note pan="0" pos="3408" key="68" len="48" vol="78"/>
          <note pan="0" pos="3408" key="56" len="48" vol="78"/>
          <note pan="0" pos="3456" key="68" len="48" vol="78"/>
          <note pan="0" pos="3456" key="56" len="48" vol="78"/>
          <note pan="0" pos="3504" key="68" len="48" vol="78"/>
          <note pan="0" pos="3504" key="56" len="48" vol="78"/>
          <note pan="0" pos="3552" key="68" len="48" vol="78"/>
          <note pan="0" pos="3552" key="56" len="48" vol="78"/>
          <note pan="0" pos="3600" key="66" len="24" vol="78"/>
          <note pan="0" pos="3600" key="54" len="24" vol="78"/>
          <note pan="0" pos="3624" key="64" len="24" vol="78"/>
          <note pan="0" pos="3624" key="52" len="24" vol="78"/>
          <note pan="0" pos="3648" key="63" len="48" vol="78"/>
          <note pan="0" pos="3648" key="51" len="48" vol="78"/>
          <note pan="0" pos="3696" key="64" len="48" vol="78"/>
          <note pan="0" pos="3696" key="52" len="48" vol="78"/>
          <note pan="0" pos="3744" key="59" len="48" vol="78"/>
          <note pan="0" pos="3744" key="47" len="48" vol="78"/>
          <note pan="0" pos="3792" key="56" len="48" vol="78"/>
          <note pan="0" pos="3792" key="44" len="48" vol="78"/>
          <note pan="0" pos="3840" key="57" len="48" vol="78"/>
          <note pan="0" pos="3840" key="45" len="48" vol="78"/>
          <note pan="0" pos="3888" key="57" len="48" vol="78"/>
          <note pan="0" pos="3888" key="45" len="48" vol="78"/>
          <note pan="0" pos="3936" key="57" len="48" vol="78"/>
          <note pan="0" pos="3936" key="45" len="48" vol="78"/>
          <note pan="0" pos="3984" key="64" len="48" vol="78"/>
          <note pan="0" pos="3984" key="52" len="48" vol="78"/>
          <note pan="0" pos="4032" key="63" len="48" vol="78"/>
          <note pan="0" pos="4032" key="51" len="48" vol="78"/>
          <note pan="0" pos="4080" key="63" len="48" vol="78"/>
          <note pan="0" pos="4080" key="51" len="48" vol="78"/>
          <note pan="0" pos="4128" key="63" len="48" vol="78"/>
          <note pan="0" pos="4128" key="51" len="48" vol="78"/>
          <note pan="0" pos="4176" key="66" len="48" vol="78"/>
          <note pan="0" pos="4176" key="54" len="48" vol="78"/>
          <note pan="0" pos="4224" key="64" len="96" vol="78"/>
          <note pan="0" pos="4224" key="52" len="96" vol="78"/>
          <note pan="0" pos="4320" key="68" len="48" vol="78"/>
          <note pan="0" pos="4320" key="56" len="48" vol="78"/>
          <note pan="0" pos="4368" key="64" len="48" vol="78"/>
          <note pan="0" pos="4368" key="52" len="48" vol="78"/>
          <note pan="0" pos="4416" key="66" len="48" vol="78"/>
          <note pan="0" pos="4416" key="54" len="48" vol="78"/>
          <note pan="0" pos="4464" key="71" len="48" vol="78"/>
          <note pan="0" pos="4464" key="59" len="48" vol="78"/>
          <note pan="0" pos="4512" key="68" len="48" vol="78"/>
          <note pan="0" pos="4512" key="56" len="48" vol="78"/>
          <note pan="0" pos="4560" key="75" len="48" vol="78"/>
          <note pan="0" pos="4560" key="63" len="48" vol="78"/>
        </pattern>
        <pattern type="1" pos="11136" muted="0" name="Orchestra Soundfont 2 COMBO" steps="16">
          <note pan="0" pos="0" key="61" len="192" vol="78"/>
          <note pan="0" pos="192" key="64" len="192" vol="78"/>
          <note pan="0" pos="384" key="62" len="192" vol="78"/>
          <note pan="0" pos="576" key="66" len="192" vol="78"/>
          <note pan="0" pos="768" key="61" len="192" vol="78"/>
          <note pan="0" pos="960" key="64" len="192" vol="78"/>
          <note pan="0" pos="1152" key="62" len="192" vol="78"/>
          <note pan="0" pos="1344" key="66" len="192" vol="78"/>
        </pattern>
        <pattern type="1" pos="18816" muted="0" name="Orchestra Soundfont 2 COMBO" steps="16">
          <note pan="0" pos="0" key="61" len="192" vol="78"/>
          <note pan="0" pos="384" key="56" len="192" vol="78"/>
          <note pan="0" pos="768" key="56" len="192" vol="78"/>
          <note pan="0" pos="1152" key="68" len="192" vol="78"/>
          <note pan="0" pos="1536" key="69" len="192" vol="78"/>
          <note pan="0" pos="1728" key="69" len="192" vol="78"/>
          <note pan="0" pos="1920" key="68" len="192" vol="78"/>
          <note pan="0" pos="2112" key="68" len="192" vol="78"/>
          <note pan="0" pos="2304" key="66" len="192" vol="78"/>
          <note pan="0" pos="2496" key="66" len="192" vol="78"/>
          <note pan="0" pos="2688" key="73" len="192" vol="78"/>
          <note pan="0" pos="2880" key="72" len="192" vol="78"/>
        </pattern>
        <pattern type="1" pos="24960" muted="0" name="Orchestra Soundfont 2 COMBO" steps="16">
          <note pan="0" pos="0" key="61" len="192" vol="78"/>
          <note pan="0" pos="0" key="49" len="192" vol="78"/>
          <note pan="0" pos="192" key="59" len="192" vol="78"/>
          <note pan="0" pos="192" key="47" len="192" vol="78"/>
          <note pan="0" pos="384" key="56" len="288" vol="78"/>
          <note pan="0" pos="384" key="44" len="288" vol="78"/>
          <note pan="0" pos="672" key="56" len="96" vol="78"/>
          <note pan="0" pos="672" key="44" len="96" vol="78"/>
          <note pan="0" pos="768" key="68" len="192" vol="78"/>
          <note pan="0" pos="768" key="56" len="192" vol="78"/>
          <note pan="0" pos="960" key="66" len="192" vol="78"/>
          <note pan="0" pos="960" key="54" len="192" vol="78"/>
          <note pan="0" pos="1152" key="61" len="384" vol="78"/>
          <note pan="0" pos="1152" key="49" len="384" vol="78"/>
          <note pan="0" pos="1536" key="61" len="192" vol="78"/>
          <note pan="0" pos="1536" key="49" len="192" vol="78"/>
          <note pan="0" pos="1728" key="63" len="192" vol="78"/>
          <note pan="0" pos="1728" key="51" len="192" vol="78"/>
          <note pan="0" pos="1920" key="64" len="192" vol="78"/>
          <note pan="0" pos="1920" key="52" len="192" vol="78"/>
          <note pan="0" pos="2112" key="68" len="96" vol="78"/>
          <note pan="0" pos="2112" key="56" len="96" vol="78"/>
          <note pan="0" pos="2208" key="66" len="96" vol="78"/>
          <note pan="0" pos="2208" key="54" len="96" vol="78"/>
          <note pan="0" pos="2304" key="66" len="192" vol="78"/>
          <note pan="0" pos="2304" key="54" len="192" vol="78"/>
          <note pan="0" pos="2496" key="61" len="144" vol="78"/>
          <note pan="0" pos="2496" key="49" len="144" vol="78"/>
          <note pan="0" pos="2640" key="61" len="24" vol="78"/>
          <note pan="0" pos="2640" key="49" len="24" vol="78"/>
          <note pan="0" pos="2664" key="63" len="24" vol="78"/>
          <note pan="0" pos="2664" key="51" len="24" vol="78"/>
          <note pan="0" pos="2688" key="64" len="192" vol="78"/>
          <note pan="0" pos="2688" key="52" len="192" vol="78"/>
          <note pan="0" pos="2880" key="64" len="96" vol="78"/>
          <note pan="0" pos="2880" key="52" len="96" vol="78"/>
          <note pan="0" pos="2976" key="68" len="96" vol="78"/>
          <note pan="0" pos="2976" key="56" len="96" vol="78"/>
          <note pan="0" pos="3072" key="73" len="384" vol="78"/>
          <note pan="0" pos="3072" key="61" len="384" vol="78"/>
          <note pan="0" pos="3456" key="73" len="384" vol="78"/>
          <note pan="0" pos="3456" key="61" len="384" vol="78"/>
        </pattern>
        <pattern type="1" pos="31872" muted="0" name="Orchestra Soundfont 2 COMBO" steps="16">
          <note pan="0" pos="0" key="56" len="192" vol="78"/>
          <note pan="0" pos="192" key="57" len="192" vol="78"/>
          <note pan="0" pos="384" key="59" len="192" vol="78"/>
          <note pan="0" pos="576" key="54" len="192" vol="78"/>
          <note pan="0" pos="768" key="56" len="192" vol="78"/>
          <note pan="0" pos="960" key="57" len="192" vol="78"/>
          <note pan="0" pos="1152" key="59" len="192" vol="78"/>
          <note pan="0" pos="1344" key="63" len="192" vol="78"/>
          <note pan="0" pos="1536" key="61" len="192" vol="78"/>
          <note pan="0" pos="1920" key="61" len="192" vol="78"/>
          <note pan="0" pos="2112" key="64" len="192" vol="78"/>
          <note pan="0" pos="2304" key="62" len="192" vol="78"/>
          <note pan="0" pos="2688" key="61" len="192" vol="78"/>
          <note pan="0" pos="2880" key="66" len="192" vol="78"/>
          <note pan="0" pos="3072" key="61" len="48" vol="78"/>
          <note pan="0" pos="3072" key="49" len="48" vol="78"/>
          <note pan="0" pos="3120" key="61" len="48" vol="78"/>
          <note pan="0" pos="3120" key="49" len="48" vol="78"/>
          <note pan="0" pos="3168" key="61" len="48" vol="78"/>
          <note pan="0" pos="3168" key="49" len="48" vol="78"/>
          <note pan="0" pos="3216" key="64" len="48" vol="78"/>
          <note pan="0" pos="3216" key="52" len="48" vol="78"/>
          <note pan="0" pos="3264" key="63" len="48" vol="78"/>
          <note pan="0" pos="3264" key="51" len="48" vol="78"/>
          <note pan="0" pos="3312" key="63" len="48" vol="78"/>
          <note pan="0" pos="3312" key="51" len="48" vol="78"/>
          <note pan="0" pos="3360" key="63" len="48" vol="78"/>
          <note pan="0" pos="3360" key="51" len="48" vol="78"/>
          <note pan="0" pos="3408" key="68" len="48" vol="78"/>
          <note pan="0" pos="3408" key="56" len="48" vol="78"/>
          <note pan="0" pos="3456" key="68" len="48" vol="78"/>
          <note pan="0" pos="3456" key="56" len="48" vol="78"/>
          <note pan="0" pos="3504" key="68" len="48" vol="78"/>
          <note pan="0" pos="3504" key="56" len="48" vol="78"/>
          <note pan="0" pos="3552" key="68" len="48" vol="78"/>
          <note pan="0" pos="3552" key="56" len="48" vol="78"/>
          <note pan="0" pos="3600" key="66" len="24" vol="78"/>
          <note pan="0" pos="3600" key="54" len="24" vol="78"/>
          <note pan="0" pos="3624" key="64" len="24" vol="78"/>
          <note pan="0" pos="3624" key="52" len="24" vol="78"/>
          <note pan="0" pos="3648" key="63" len="48" vol="78"/>
          <note pan="0" pos="3648" key="51" len="48" vol="78"/>
          <note pan="0" pos="3696" key="64" len="48" vol="78"/>
          <note pan="0" pos="3696" key="52" len="48" vol="78"/>
          <note pan="0" pos="3744" key="59" len="48" vol="78"/>
          <note pan="0" pos="3744" key="47" len="48" vol="78"/>
          <note pan="0" pos="3792" key="56" len="48" vol="78"/>
          <note pan="0" pos="3792" key="44" len="48" vol="78"/>
          <note pan="0" pos="3840" key="57" len="48" vol="78"/>
          <note pan="0" pos="3840" key="45" len="48" vol="78"/>
          <note pan="0" pos="3888" key="57" len="48" vol="78"/>
          <note pan="0" pos="3888" key="45" len="48" vol="78"/>
          <note pan="0" pos="3936" key="57" len="48" vol="78"/>
          <note pan="0" pos="3936" key="45" len="48" vol="78"/>
          <note pan="0" pos="3984" key="64" len="48" vol="78"/>
          <note pan="0" pos="3984" key="52" len="48" vol="78"/>
          <note pan="0" pos="4032" key="63" len="48" vol="78"/>
          <note pan="0" pos="4032" key="51" len="48" vol="78"/>
          <note pan="0" pos="4080" key="63" len="48" vol="78"/>
          <note pan="0" pos="4080" key="51" len="48" vol="78"/>
          <note pan="0" pos="4128" key="63" len="48" vol="78"/>
          <note pan="0" pos="4128" key="51" len="48" vol="78"/>
          <note pan="0" pos="4176" key="66" len="48" vol="78"/>
          <note pan="0" pos="4176" key="54" len="48" vol="78"/>
          <note pan="0" pos="4224" key="64" len="96" vol="78"/>
          <note pan="0" pos="4224" key="52" len="96" vol="78"/>
          <note pan="0" pos="4320" key="68" len="48" vol="78"/>
          <note pan="0" pos="4320" key="56" len="48" vol="78"/>
          <note pan="0" pos="4368" key="64" len="48" vol="78"/>
          <note pan="0" pos="4368" key="52" len="48" vol="78"/>
          <note pan="0" pos="4416" key="66" len="48" vol="78"/>
          <note pan="0" pos="4416" key="54" len="48" vol="78"/>
          <note pan="0" pos="4464" key="71" len="48" vol="78"/>
          <note pan="0" pos="4464" key="59" len="48" vol="78"/>
          <note pan="0" pos="4512" key="68" len="48" vol="78"/>
          <note pan="0" pos="4512" key="56" len="48" vol="78"/>
          <note pan="0" pos="4560" key="75" len="48" vol="78"/>
          <note pan="0" pos="4560" key="63" len="48" vol="78"/>
        </pattern>
        <pattern type="1" pos="42624" muted="0" name="Orchestra Soundfont 2 COMBO" steps="16">
          <note pan="0" pos="0" key="61" len="192" vol="78"/>
          <note pan="0" pos="192" key="64" len="192" vol="78"/>
          <note pan="0" pos="384" key="62" len="192" vol="78"/>
          <note pan="0" pos="576" key="66" len="192" vol="78"/>
          <note pan="0" pos="768" key="61" len="192" vol="78"/>
          <note pan="0" pos="960" key="64" len="192" vol="78"/>
          <note pan="0" pos="1152" key="62" len="192" vol="78"/>
          <note pan="0" pos="1344" key="66" len="192" vol="78"/>
        </pattern>
        <pattern type="1" pos="50304" muted="0" name="Orchestra Soundfont 2 COMBO" steps="16">
          <note pan="0" pos="0" key="61" len="192" vol="78"/>
          <note pan="0" pos="384" key="56" len="192" vol="78"/>
          <note pan="0" pos="768" key="56" len="192" vol="78"/>
          <note pan="0" pos="1152" key="68" len="192" vol="78"/>
          <note pan="0" pos="1536" key="69" len="192" vol="78"/>
          <note pan="0" pos="1728" key="69" len="192" vol="78"/>
          <note pan="0" pos="1920" key="68" len="192" vol="78"/>
          <note pan="0" pos="2112" key="68" len="192" vol="78"/>
          <note pan="0" pos="2304" key="66" len="192" vol="78"/>
          <note pan="0" pos="2496" key="66" len="192" vol="78"/>
          <note pan="0" pos="2688" key="73" len="192" vol="78"/>
          <note pan="0" pos="2880" key="72" len="192" vol="78"/>
        </pattern>
        <pattern type="1" pos="56448" muted="0" name="Orchestra Soundfont 2 COMBO" steps="16">
          <note pan="0" pos="0" key="61" len="192" vol="78"/>
          <note pan="0" pos="0" key="49" len="192" vol="78"/>
          <note pan="0" pos="192" key="59" len="192" vol="78"/>
          <note pan="0" pos="192" key="47" len="192" vol="78"/>
          <note pan="0" pos="384" key="56" len="288" vol="78"/>
          <note pan="0" pos="384" key="44" len="288" vol="78"/>
          <note pan="0" pos="672" key="56" len="96" vol="78"/>
          <note pan="0" pos="672" key="44" len="96" vol="78"/>
          <note pan="0" pos="768" key="68" len="192" vol="78"/>
          <note pan="0" pos="768" key="56" len="192" vol="78"/>
          <note pan="0" pos="960" key="66" len="192" vol="78"/>
          <note pan="0" pos="960" key="54" len="192" vol="78"/>
          <note pan="0" pos="1152" key="61" len="384" vol="78"/>
          <note pan="0" pos="1152" key="49" len="384" vol="78"/>
          <note pan="0" pos="1536" key="61" len="192" vol="78"/>
          <note pan="0" pos="1536" key="49" len="192" vol="78"/>
          <note pan="0" pos="1728" key="63" len="192" vol="78"/>
          <note pan="0" pos="1728" key="51" len="192" vol="78"/>
          <note pan="0" pos="1920" key="64" len="192" vol="78"/>
          <note pan="0" pos="1920" key="52" len="192" vol="78"/>
          <note pan="0" pos="2112" key="68" len="96" vol="78"/>
          <note pan="0" pos="2112" key="56" len="96" vol="78"/>
          <note pan="0" pos="2208" key="66" len="96" vol="78"/>
          <note pan="0" pos="2208" key="54" len="96" vol="78"/>
          <note pan="0" pos="2304" key="66" len="192" vol="78"/>
          <note pan="0" pos="2304" key="54" len="192" vol="78"/>
          <note pan="0" pos="2496" key="61" len="144" vol="78"/>
          <note pan="0" pos="2496" key="49" len="144" vol="78"/>
          <note pan="0" pos="2640" key="61" len="24" vol="78"/>
          <note pan="0" pos="2640" key="49" len="24" vol="78"/>
          <note pan="0" pos="2664" key="63" len="24" vol="78"/>
          <note pan="0" pos="2664" key="51" len="24" vol="78"/>
          <note pan="0" pos="2688" key="64" len="192" vol="78"/>
          <note pan="0" pos="2688" key="52" len="192" vol="78"/>
          <note pan="0" pos="2880" key="64" len="96" vol="78"/>
          <note pan="0" pos="2880" key="52" len="96" vol="78"/>
          <note pan="0" pos="2976" key="68" len="96" vol="78"/>
          <note pan="0" pos="2976" key="56" len="96" vol="78"/>
          <note pan="0" pos="3072" key="73" len="384" vol="78"/>
          <note pan="0" pos="3072" key="61" len="384" vol="78"/>
          <note pan="0" pos="3456" key="73" len="384" vol="78"/>
          <note pan="0" pos="3456" key="61" len="384" vol="78"/>
        </pattern>
        <pattern type="1" pos="63360" muted="0" name="Orchestra Soundfont 2 COMBO" steps="16">
          <note pan="0" pos="0" key="56" len="192" vol="78"/>
          <note pan="0" pos="192" key="57" len="192" vol="78"/>
          <note pan="0" pos="384" key="59" len="192" vol="78"/>
          <note pan="0" pos="576" key="54" len="192" vol="78"/>
          <note pan="0" pos="768" key="56" len="192" vol="78"/>
          <note pan="0" pos="960" key="57" len="192" vol="78"/>
          <note pan="0" pos="1152" key="59" len="192" vol="78"/>
          <note pan="0" pos="1344" key="63" len="192" vol="78"/>
          <note pan="0" pos="1536" key="61" len="192" vol="78"/>
          <note pan="0" pos="1920" key="61" len="192" vol="78"/>
          <note pan="0" pos="2112" key="64" len="192" vol="78"/>
          <note pan="0" pos="2304" key="62" len="192" vol="78"/>
          <note pan="0" pos="2688" key="61" len="192" vol="78"/>
          <note pan="0" pos="2880" key="66" len="192" vol="78"/>
          <note pan="0" pos="3072" key="61" len="48" vol="78"/>
          <note pan="0" pos="3072" key="49" len="48" vol="78"/>
          <note pan="0" pos="3120" key="61" len="48" vol="78"/>
          <note pan="0" pos="3120" key="49" len="48" vol="78"/>
          <note pan="0" pos="3168" key="61" len="48" vol="78"/>
          <note pan="0" pos="3168" key="49" len="48" vol="78"/>
          <note pan="0" pos="3216" key="64" len="48" vol="78"/>
          <note pan="0" pos="3216" key="52" len="48" vol="78"/>
          <note pan="0" pos="3264" key="63" len="48" vol="78"/>
          <note pan="0" pos="3264" key="51" len="48" vol="78"/>
          <note pan="0" pos="3312" key="63" len="48" vol="78"/>
          <note pan="0" pos="3312" key="51" len="48" vol="78"/>
          <note pan="0" pos="3360" key="63" len="48" vol="78"/>
          <note pan="0" pos="3360" key="51" len="48" vol="78"/>
          <note pan="0" pos="3408" key="68" len="48" vol="78"/>
          <note pan="0" pos="3408" key="56" len="48" vol="78"/>
          <note pan="0" pos="3456" key="68" len="48" vol="78"/>
          <note pan="0" pos="3456" key="56" len="48" vol="78"/>
          <note pan="0" pos="3504" key="68" len="48" vol="78"/>
          <note pan="0" pos="3504" key="56" len="48" vol="78"/>
          <note pan="0" pos="3552" key="68" len="48" vol="78"/>
          <note pan="0" pos="3552" key="56" len="48" vol="78"/>
          <note pan="0" pos="3600" key="66" len="24" vol="78"/>
          <note pan="0" pos="3600" key="54" len="24" vol="78"/>
          <note pan="0" pos="3624" key="64" len="24" vol="78"/>
          <note pan="0" pos="3624" key="52" len="24" vol="78"/>
          <note pan="0" pos="3648" key="63" len="48" vol="78"/>
          <note pan="0" pos="3648" key="51" len="48" vol="78"/>
          <note pan="0" pos="3696" key="64" len="48" vol="78"/>
          <note pan="0" pos="3696" key="52" len="48" vol="78"/>
          <note pan="0" pos="3744" key="59" len="48" vol="78"/>
          <note pan="0" pos="3744" key="47" len="48" vol="78"/>
          <note pan="0" pos="3792" key="56" len="48" vol="78"/>
          <note pan="0" pos="3792" key="44" len="48" vol="78"/>
          <note pan="0" pos="3840" key="57" len="48" vol="78"/>
          <note pan="0" pos="3840" key="45" len="48" vol="78"/>
          <note pan="0" pos="3888" key="57" len="48" vol="78"/>
          <note pan="0" pos="3888" key="45" len="48" vol="78"/>
          <note pan="0" pos="3936" key="57" len="48" vol="78"/>
          <note pan="0" pos="3936" key="45" len="48" vol="78"/>
          <note pan="0" pos="3984" key="64" len="48" vol="78"/>
          <note pan="0" pos="3984" key="52" len="48" vol="78"/>
          <note pan="0" pos="4032" key="63" len="48" vol="78"/>
          <note pan="0" pos="4032" key="51" len="48" vol="78"/>
          <note pan="0" pos="4080" key="63" len="48" vol="78"/>
          <note pan="0" pos="4080" key="51" len="48" vol="78"/>
          <note pan="0" pos="4128" key="63" len="48" vol="78"/>
          <note pan="0" pos="4128" key="51" len="48" vol="78"/>
          <note pan="0" pos="4176" key="66" len="48" vol="78"/>
          <note pan="0" pos="4176" key="54" len="48" vol="78"/>
          <note pan="0" pos="4224" key="64" len="96" vol="78"/>
          <note pan="0" pos="4224" key="52" len="96" vol="78"/>
          <note pan="0" pos="4320" key="68" len="48" vol="78"/>
          <note pan="0" pos="4320" key="56" len="48" vol="78"/>
          <note pan="0" pos="4368" key="64" len="48" vol="78"/>
          <note pan="0" pos="4368" key="52" len="48" vol="78"/>
          <note pan="0" pos="4416" key="66" len="48" vol="78"/>
          <note pan="0" pos="4416" key="54" len="48" vol="78"/>
          <note pan="0" pos="4464" key="71" len="48" vol="78"/>
          <note pan="0" pos="4464" key="59" len="48" vol="78"/>
          <note pan="0" pos="4512" key="68" len="48" vol="78"/>
          <note pan="0" pos="4512" key="56" len="48" vol="78"/>
          <note pan="0" pos="4560" key="75" len="48" vol="78"/>
          <note pan="0" pos="4560" key="63" len="48" vol="78"/>
          <note pan="0" pos="4608" key="73" len="384" vol="78"/>
          <note pan="0" pos="4608" key="61" len="384" vol="78"/>
          <note pan="0" pos="4992" key="73" len="384" vol="78"/>
          <note pan="0" pos="4992" key="61" len="384" vol="78"/>
          <note pan="0" pos="5376" key="73" len="48" vol="78"/>
          <note pan="0" pos="5376" key="61" len="48" vol="78"/>
        </pattern>
        <pattern type="1" pos="39744" muted="0" name="" steps="16">
          <note pan="0" pos="0" key="61" len="144" vol="136"/>
          <note pan="0" pos="0" key="49" len="48" vol="136"/>
          <note pan="0" pos="48" key="52" len="48" vol="136"/>
          <note pan="0" pos="96" key="56" len="48" vol="136"/>
          <note pan="0" pos="144" key="64" len="48" vol="136"/>
          <note pan="0" pos="144" key="61" len="48" vol="136"/>
          <note pan="0" pos="192" key="63" len="144" vol="136"/>
          <note pan="0" pos="192" key="59" len="48" vol="136"/>
          <note pan="0" pos="240" key="54" len="48" vol="136"/>
          <note pan="0" pos="288" key="59" len="48" vol="136"/>
          <note pan="0" pos="336" key="68" len="48" vol="136"/>
          <note pan="0" pos="336" key="63" len="48" vol="136"/>
          <note pan="0" pos="384" key="68" len="144" vol="136"/>
          <note pan="0" pos="384" key="64" len="48" vol="136"/>
          <note pan="0" pos="432" key="57" len="48" vol="136"/>
          <note pan="0" pos="480" key="61" len="48" vol="136"/>
          <note pan="0" pos="528" key="66" len="24" vol="136"/>
          <note pan="0" pos="528" key="52" len="48" vol="136"/>
          <note pan="0" pos="552" key="64" len="24" vol="136"/>
          <note pan="0" pos="576" key="63" len="48" vol="136"/>
          <note pan="0" pos="576" key="54" len="48" vol="136"/>
          <note pan="0" pos="624" key="64" len="48" vol="136"/>
          <note pan="0" pos="624" key="51" len="48" vol="136"/>
          <note pan="0" pos="672" key="59" len="48" vol="136"/>
          <note pan="0" pos="672" key="54" len="48" vol="136"/>
          <note pan="0" pos="720" key="56" len="48" vol="136"/>
          <note pan="0" pos="720" key="47" len="48" vol="136"/>
          <note pan="0" pos="768" key="57" len="96" vol="136"/>
          <note pan="0" pos="768" key="49" len="48" vol="136"/>
          <note pan="0" pos="816" key="54" len="48" vol="136"/>
          <note pan="0" pos="864" key="61" len="48" vol="136"/>
          <note pan="0" pos="864" key="57" len="48" vol="136"/>
          <note pan="0" pos="912" key="64" len="48" vol="136"/>
          <note pan="0" pos="912" key="54" len="48" vol="136"/>
          <note pan="0" pos="960" key="64" len="96" vol="136"/>
          <note pan="0" pos="960" key="56" len="48" vol="136"/>
          <note pan="0" pos="1008" key="59" len="48" vol="136"/>
          <note pan="0" pos="1056" key="63" len="48" vol="136"/>
          <note pan="0" pos="1056" key="56" len="48" vol="136"/>
          <note pan="0" pos="1104" key="64" len="48" vol="136"/>
          <note pan="0" pos="1104" key="51" len="48" vol="136"/>
          <note pan="0" pos="1152" key="71" len="72" vol="136"/>
          <note pan="0" pos="1152" key="57" len="48" vol="136"/>
        </pattern>
      </track>
      <track type="0" muted="1" name="Orchestra Soundfont 2 COMBO" solo="0">
        <instrumenttrack pan="0" pitch="0" basenote="57" usemasterpitch="1" vol="58.4" fxch="0" pitchrange="2">
          <instrument name="sf2player">
            <sf2player chorusLevel="2" reverbRoomSize="0.2" reverbLevel="0.9" chorusDepth="8" reverbDamping="0" patch="52" chorusOn="0" chorusSpeed="0.3" gain="5" chorusNum="3" bank="0" reverbWidth="0.5" reverbOn="0" src="/home/huggypie/samples/soundfonts/Orchestra Soundfont 2 COMBO.sf2"/>
          </instrument>
          <eldata fres="0.5" fcut="14000" fwet="0" ftype="0">
            <elvol lspd_numerator="4" userwavefile="" lshp="0" x100="0" amt="0" lspd_syncmode="0" ctlenvamt="0" dec="0.5" hold="0.5" lspd_denominator="4" sustain="0.5" lamt="0" lspd="0.1" pdel="0" att="0" lpdel="0" latt="0" rel="0.1"/>
            <elcut lspd_numerator="4" userwavefile="" lshp="0" x100="0" amt="0" lspd_syncmode="0" ctlenvamt="0" dec="0.5" hold="0.5" lspd_denominator="4" sustain="0.5" lamt="0" lspd="0.1" pdel="0" att="0" lpdel="0" latt="0" rel="0.1"/>
            <elres lspd_numerator="4" userwavefile="" lshp="0" x100="0" amt="0" lspd_syncmode="0" ctlenvamt="0" dec="0.5" hold="0.5" lspd_denominator="4" sustain="0.5" lamt="0" lspd="0.1" pdel="0" att="0" lpdel="0" latt="0" rel="0.1"/>
          </eldata>
          <chordcreator chordrange="1" chord="0" chord-enabled="0"/>
          <arpeggiator arpskip="0" arpmiss="0" arp-enabled="0" arpgate="100" arpdir="0" arpcycle="0" arprange="1" arptime_numerator="4" arptime_denominator="4" arptime_syncmode="0" arptime="200" arp="0" arpmode="0"/>
          <midiport outputcontroller="0" inputchannel="0" outputchannel="1" fixedoutputvelocity="-1" readable="0" inputcontroller="0" basevelocity="63" fixedoutputnote="-1" fixedinputvelocity="-1" outputprogram="1" writable="0"/>
          <fxchain enabled="0" numofeffects="0"/>
        </instrumenttrack>
        <pattern type="1" pos="8064" muted="0" name="Orchestra Soundfont 2 COMBO" steps="16">
          <note pan="0" pos="0" key="64" len="192" vol="78"/>
          <note pan="0" pos="0" key="61" len="192" vol="78"/>
          <note pan="0" pos="192" key="63" len="192" vol="78"/>
          <note pan="0" pos="192" key="56" len="192" vol="78"/>
          <note pan="0" pos="384" key="64" len="192" vol="78"/>
          <note pan="0" pos="384" key="57" len="192" vol="78"/>
          <note pan="0" pos="576" key="66" len="192" vol="78"/>
          <note pan="0" pos="576" key="59" len="192" vol="78"/>
          <note pan="0" pos="768" key="64" len="192" vol="78"/>
          <note pan="0" pos="768" key="61" len="192" vol="78"/>
          <note pan="0" pos="960" key="66" len="192" vol="78"/>
          <note pan="0" pos="960" key="59" len="192" vol="78"/>
          <note pan="0" pos="1152" key="64" len="192" vol="78"/>
          <note pan="0" pos="1152" key="61" len="192" vol="78"/>
          <note pan="0" pos="1344" key="66" len="192" vol="78"/>
          <note pan="0" pos="1344" key="56" len="192" vol="78"/>
          <note pan="0" pos="1536" key="64" len="192" vol="78"/>
          <note pan="0" pos="1536" key="61" len="192" vol="78"/>
          <note pan="0" pos="1728" key="63" len="192" vol="78"/>
          <note pan="0" pos="1728" key="56" len="192" vol="78"/>
          <note pan="0" pos="1920" key="64" len="192" vol="78"/>
          <note pan="0" pos="1920" key="58" len="192" vol="78"/>
          <note pan="0" pos="2112" key="66" len="192" vol="78"/>
          <note pan="0" pos="2112" key="58" len="192" vol="78"/>
          <note pan="0" pos="2304" key="64" len="192" vol="78"/>
          <note pan="0" pos="2304" key="61" len="192" vol="78"/>
          <note pan="0" pos="2496" key="66" len="192" vol="78"/>
          <note pan="0" pos="2496" key="59" len="192" vol="78"/>
          <note pan="0" pos="2688" key="64" len="192" vol="78"/>
          <note pan="0" pos="2688" key="61" len="192" vol="78"/>
          <note pan="0" pos="2880" key="59" len="192" vol="78"/>
          <note pan="0" pos="2880" key="56" len="192" vol="78"/>
        </pattern>
        <pattern type="1" pos="15744" muted="0" name="Orchestra Soundfont 2 COMBO" steps="16">
          <note pan="0" pos="0" key="64" len="192" vol="78"/>
          <note pan="0" pos="0" key="61" len="192" vol="78"/>
          <note pan="0" pos="192" key="63" len="192" vol="78"/>
          <note pan="0" pos="192" key="56" len="192" vol="78"/>
          <note pan="0" pos="384" key="64" len="192" vol="78"/>
          <note pan="0" pos="384" key="57" len="192" vol="78"/>
          <note pan="0" pos="576" key="66" len="192" vol="78"/>
          <note pan="0" pos="576" key="59" len="192" vol="78"/>
          <note pan="0" pos="768" key="64" len="192" vol="78"/>
          <note pan="0" pos="768" key="61" len="192" vol="78"/>
          <note pan="0" pos="960" key="66" len="192" vol="78"/>
          <note pan="0" pos="960" key="59" len="192" vol="78"/>
          <note pan="0" pos="1152" key="64" len="192" vol="78"/>
          <note pan="0" pos="1152" key="61" len="192" vol="78"/>
          <note pan="0" pos="1344" key="66" len="192" vol="78"/>
          <note pan="0" pos="1344" key="56" len="192" vol="78"/>
          <note pan="0" pos="1536" key="64" len="192" vol="78"/>
          <note pan="0" pos="1536" key="61" len="192" vol="78"/>
          <note pan="0" pos="1728" key="63" len="192" vol="78"/>
          <note pan="0" pos="1728" key="56" len="192" vol="78"/>
          <note pan="0" pos="1920" key="61" len="192" vol="78"/>
          <note pan="0" pos="1920" key="58" len="192" vol="78"/>
          <note pan="0" pos="2112" key="66" len="192" vol="78"/>
          <note pan="0" pos="2112" key="58" len="192" vol="78"/>
          <note pan="0" pos="2304" key="62" len="192" vol="78"/>
          <note pan="0" pos="2304" key="57" len="192" vol="78"/>
          <note pan="0" pos="2496" key="64" len="192" vol="78"/>
          <note pan="0" pos="2496" key="57" len="192" vol="78"/>
          <note pan="0" pos="2688" key="63" len="192" vol="78"/>
          <note pan="0" pos="2688" key="59" len="192" vol="78"/>
          <note pan="0" pos="6144" key="61" len="192" vol="78"/>
          <note pan="0" pos="6336" key="59" len="192" vol="78"/>
          <note pan="0" pos="6528" key="56" len="384" vol="78"/>
          <note pan="0" pos="6912" key="56" len="192" vol="78"/>
          <note pan="0" pos="7104" key="54" len="192" vol="78"/>
          <note pan="0" pos="7296" key="52" len="384" vol="78"/>
        </pattern>
        <pattern type="1" pos="24000" muted="0" name="Orchestra Soundfont 2 COMBO" steps="16">
          <note pan="0" pos="0" key="64" len="192" vol="78"/>
          <note pan="0" pos="192" key="61" len="384" vol="78"/>
          <note pan="0" pos="576" key="61" len="384" vol="78"/>
        </pattern>
        <pattern type="1" pos="47232" muted="0" name="Orchestra Soundfont 2 COMBO" steps="16">
          <note pan="0" pos="0" key="64" len="192" vol="78"/>
          <note pan="0" pos="0" key="61" len="192" vol="78"/>
          <note pan="0" pos="192" key="63" len="192" vol="78"/>
          <note pan="0" pos="192" key="56" len="192" vol="78"/>
          <note pan="0" pos="384" key="64" len="192" vol="78"/>
          <note pan="0" pos="384" key="57" len="192" vol="78"/>
          <note pan="0" pos="576" key="66" len="192" vol="78"/>
          <note pan="0" pos="576" key="59" len="192" vol="78"/>
          <note pan="0" pos="768" key="64" len="192" vol="78"/>
          <note pan="0" pos="768" key="61" len="192" vol="78"/>
          <note pan="0" pos="960" key="66" len="192" vol="78"/>
          <note pan="0" pos="960" key="59" len="192" vol="78"/>
          <note pan="0" pos="1152" key="64" len="192" vol="78"/>
          <note pan="0" pos="1152" key="61" len="192" vol="78"/>
          <note pan="0" pos="1344" key="66" len="192" vol="78"/>
          <note pan="0" pos="1344" key="56" len="192" vol="78"/>
          <note pan="0" pos="1536" key="64" len="192" vol="78"/>
          <note pan="0" pos="1536" key="61" len="192" vol="78"/>
          <note pan="0" pos="1728" key="63" len="192" vol="78"/>
          <note pan="0" pos="1728" key="56" len="192" vol="78"/>
          <note pan="0" pos="1920" key="64" len="192" vol="78"/>
          <note pan="0" pos="1920" key="58" len="192" vol="78"/>
          <note pan="0" pos="2112" key="66" len="192" vol="78"/>
          <note pan="0" pos="2112" key="58" len="192" vol="78"/>
          <note pan="0" pos="2304" key="64" len="192" vol="78"/>
          <note pan="0" pos="2304" key="61" len="192" vol="78"/>
          <note pan="0" pos="2496" key="66" len="192" vol="78"/>
          <note pan="0" pos="2496" key="59" len="192" vol="78"/>
          <note pan="0" pos="2688" key="64" len="192" vol="78"/>
          <note pan="0" pos="2688" key="61" len="192" vol="78"/>
          <note pan="0" pos="3072" key="59" len="384" vol="78"/>
          <note pan="0" pos="3456" key="63" len="384" vol="78"/>
          <note pan="0" pos="3840" key="66" len="384" vol="78"/>
          <note pan="0" pos="4224" key="66" len="384" vol="78"/>
          <note pan="0" pos="4608" key="59" len="384" vol="78"/>
          <note pan="0" pos="4992" key="63" len="384" vol="78"/>
          <note pan="0" pos="5376" key="66" len="384" vol="78"/>
          <note pan="0" pos="5760" key="66" len="384" vol="78"/>
          <note pan="0" pos="6144" key="61" len="192" vol="78"/>
          <note pan="0" pos="6336" key="59" len="192" vol="78"/>
          <note pan="0" pos="6528" key="56" len="384" vol="78"/>
          <note pan="0" pos="6912" key="56" len="192" vol="78"/>
          <note pan="0" pos="7104" key="54" len="192" vol="78"/>
          <note pan="0" pos="7296" key="52" len="384" vol="78"/>
        </pattern>
        <pattern type="1" pos="55488" muted="0" name="Orchestra Soundfont 2 COMBO" steps="16">
          <note pan="0" pos="0" key="64" len="192" vol="78"/>
          <note pan="0" pos="192" key="61" len="384" vol="78"/>
          <note pan="0" pos="576" key="61" len="384" vol="78"/>
          <note pan="0" pos="960" key="61" len="192" vol="78"/>
          <note pan="0" pos="1152" key="59" len="192" vol="78"/>
          <note pan="0" pos="1344" key="56" len="384" vol="78"/>
          <note pan="0" pos="1728" key="56" len="192" vol="78"/>
          <note pan="0" pos="1920" key="54" len="192" vol="78"/>
          <note pan="0" pos="2112" key="52" len="384" vol="78"/>
        </pattern>
        <pattern type="1" pos="58560" muted="0" name="Orchestra Soundfont 2 COMBO" steps="16">
          <note pan="0" pos="0" key="64" len="192" vol="78"/>
          <note pan="0" pos="192" key="61" len="384" vol="78"/>
          <note pan="0" pos="576" key="61" len="384" vol="78"/>
          <note pan="0" pos="960" key="68" len="384" vol="78"/>
          <note pan="0" pos="1344" key="68" len="384" vol="78"/>
        </pattern>
        <pattern type="1" pos="66432" muted="0" name="Orchestra Soundfont 2 COMBO" steps="16">
          <note pan="0" pos="0" key="64" len="192" vol="78"/>
          <note pan="0" pos="0" key="61" len="192" vol="78"/>
          <note pan="0" pos="192" key="66" len="192" vol="78"/>
          <note pan="0" pos="192" key="63" len="192" vol="78"/>
          <note pan="0" pos="384" key="64" len="192" vol="78"/>
          <note pan="0" pos="384" key="61" len="192" vol="78"/>
          <note pan="0" pos="576" key="66" len="192" vol="78"/>
          <note pan="0" pos="576" key="63" len="192" vol="78"/>
          <note pan="0" pos="768" key="66" len="192" vol="78"/>
          <note pan="0" pos="768" key="63" len="192" vol="78"/>
          <note pan="0" pos="960" key="66" len="192" vol="78"/>
          <note pan="0" pos="960" key="63" len="192" vol="78"/>
          <note pan="0" pos="1152" key="64" len="192" vol="78"/>
          <note pan="0" pos="1152" key="61" len="192" vol="78"/>
          <note pan="0" pos="1344" key="66" len="192" vol="78"/>
          <note pan="0" pos="1344" key="63" len="192" vol="78"/>
          <note pan="0" pos="1536" key="73" len="384" vol="78"/>
          <note pan="0" pos="1536" key="61" len="384" vol="78"/>
          <note pan="0" pos="1920" key="73" len="384" vol="78"/>
          <note pan="0" pos="1920" key="61" len="384" vol="78"/>
          <note pan="0" pos="2304" key="73" len="48" vol="78"/>
          <note pan="0" pos="2304" key="61" len="48" vol="78"/>
        </pattern>
        <pattern type="1" pos="24960" muted="0" name="Orchestra Soundfont 2 COMBO" steps="16">
          <note pan="0" pos="0" key="61" len="192" vol="70"/>
          <note pan="0" pos="192" key="59" len="192" vol="70"/>
          <note pan="0" pos="384" key="56" len="288" vol="70"/>
          <note pan="0" pos="672" key="56" len="96" vol="70"/>
          <note pan="0" pos="768" key="68" len="192" vol="70"/>
          <note pan="0" pos="960" key="66" len="192" vol="70"/>
          <note pan="0" pos="1152" key="61" len="384" vol="70"/>
          <note pan="0" pos="1536" key="61" len="192" vol="70"/>
          <note pan="0" pos="1728" key="63" len="192" vol="70"/>
          <note pan="0" pos="1920" key="64" len="192" vol="70"/>
          <note pan="0" pos="2112" key="68" len="96" vol="70"/>
          <note pan="0" pos="2208" key="66" len="96" vol="70"/>
          <note pan="0" pos="2304" key="66" len="192" vol="70"/>
          <note pan="0" pos="2496" key="61" len="144" vol="70"/>
          <note pan="0" pos="2640" key="61" len="24" vol="70"/>
          <note pan="0" pos="2664" key="63" len="24" vol="70"/>
          <note pan="0" pos="2688" key="64" len="192" vol="70"/>
          <note pan="0" pos="2880" key="64" len="96" vol="70"/>
          <note pan="0" pos="2976" key="68" len="96" vol="70"/>
          <note pan="0" pos="3072" key="73" len="384" vol="70"/>
          <note pan="0" pos="3456" key="73" len="384" vol="70"/>
        </pattern>
      </track>
      <track type="0" muted="1" name="Mystery Dungeon" solo="0">
        <instrumenttrack pan="0" pitch="0" basenote="57" usemasterpitch="1" vol="192" fxch="0" pitchrange="2">
          <instrument name="sf2player">
            <sf2player chorusLevel="2" reverbRoomSize="0.2" reverbLevel="0.9" chorusDepth="8" reverbDamping="0" patch="1" chorusOn="0" chorusSpeed="0.3" gain="1" chorusNum="3" bank="0" reverbWidth="0.5" reverbOn="0" src="/home/huggypie/samples/soundfonts/Mystery Dungeon.sf2"/>
          </instrument>
          <eldata fres="0.5" fcut="14000" fwet="0" ftype="0">
            <elvol lspd_numerator="4" userwavefile="" lshp="0" x100="0" amt="0" lspd_syncmode="0" ctlenvamt="0" dec="0.5" hold="0.5" lspd_denominator="4" sustain="0.5" lamt="0" lspd="0.1" pdel="0" att="0" lpdel="0" latt="0" rel="0.1"/>
            <elcut lspd_numerator="4" userwavefile="" lshp="0" x100="0" amt="0" lspd_syncmode="0" ctlenvamt="0" dec="0.5" hold="0.5" lspd_denominator="4" sustain="0.5" lamt="0" lspd="0.1" pdel="0" att="0" lpdel="0" latt="0" rel="0.1"/>
            <elres lspd_numerator="4" userwavefile="" lshp="0" x100="0" amt="0" lspd_syncmode="0" ctlenvamt="0" dec="0.5" hold="0.5" lspd_denominator="4" sustain="0.5" lamt="0" lspd="0.1" pdel="0" att="0" lpdel="0" latt="0" rel="0.1"/>
          </eldata>
          <chordcreator chordrange="1" chord="0" chord-enabled="0"/>
          <arpeggiator arpskip="0" arpmiss="0" arp-enabled="0" arpgate="100" arpdir="0" arpcycle="0" arprange="1" arptime_numerator="4" arptime_denominator="4" arptime_syncmode="0" arptime="200" arp="0" arpmode="0"/>
          <midiport outputcontroller="0" inputchannel="0" outputchannel="1" fixedoutputvelocity="-1" readable="0" inputcontroller="0" basevelocity="63" fixedoutputnote="-1" fixedinputvelocity="-1" outputprogram="1" writable="0"/>
          <fxchain enabled="0" numofeffects="0"/>
        </instrumenttrack>
        <pattern type="1" pos="4992" muted="0" name="Sf2 Player" steps="16">
          <note pan="0" pos="0" key="61" len="24" vol="78"/>
          <note pan="0" pos="0" key="49" len="24" vol="78"/>
          <note pan="0" pos="24" key="63" len="24" vol="78"/>
          <note pan="0" pos="24" key="51" len="24" vol="78"/>
          <note pan="0" pos="48" key="61" len="24" vol="78"/>
          <note pan="0" pos="48" key="49" len="24" vol="78"/>
          <note pan="0" pos="72" key="68" len="48" vol="78"/>
          <note pan="0" pos="72" key="56" len="48" vol="78"/>
          <note pan="0" pos="120" key="61" len="24" vol="78"/>
          <note pan="0" pos="120" key="49" len="24" vol="78"/>
          <note pan="0" pos="144" key="64" len="24" vol="78"/>
          <note pan="0" pos="144" key="52" len="24" vol="78"/>
          <note pan="0" pos="168" key="68" len="24" vol="78"/>
          <note pan="0" pos="168" key="56" len="24" vol="78"/>
          <note pan="0" pos="192" key="71" len="24" vol="78"/>
          <note pan="0" pos="192" key="59" len="24" vol="78"/>
          <note pan="0" pos="216" key="69" len="24" vol="78"/>
          <note pan="0" pos="216" key="57" len="24" vol="78"/>
          <note pan="0" pos="240" key="68" len="24" vol="78"/>
          <note pan="0" pos="240" key="56" len="24" vol="78"/>
          <note pan="0" pos="264" key="69" len="48" vol="78"/>
          <note pan="0" pos="264" key="57" len="48" vol="78"/>
          <note pan="0" pos="312" key="68" len="24" vol="78"/>
          <note pan="0" pos="312" key="56" len="24" vol="78"/>
          <note pan="0" pos="336" key="66" len="24" vol="78"/>
          <note pan="0" pos="336" key="54" len="24" vol="78"/>
          <note pan="0" pos="360" key="68" len="24" vol="78"/>
          <note pan="0" pos="360" key="56" len="24" vol="78"/>
          <note pan="0" pos="384" key="63" len="96" vol="78"/>
          <note pan="0" pos="384" key="51" len="96" vol="78"/>
        </pattern>
        <pattern type="1" pos="5760" muted="0" name="Sf2 Player" steps="16">
          <note pan="0" pos="0" key="61" len="24" vol="78"/>
          <note pan="0" pos="0" key="49" len="24" vol="78"/>
          <note pan="0" pos="24" key="63" len="24" vol="78"/>
          <note pan="0" pos="24" key="51" len="24" vol="78"/>
          <note pan="0" pos="48" key="61" len="24" vol="78"/>
          <note pan="0" pos="48" key="49" len="24" vol="78"/>
          <note pan="0" pos="72" key="68" len="48" vol="78"/>
          <note pan="0" pos="72" key="56" len="48" vol="78"/>
          <note pan="0" pos="120" key="61" len="24" vol="78"/>
          <note pan="0" pos="120" key="49" len="24" vol="78"/>
          <note pan="0" pos="144" key="64" len="24" vol="78"/>
          <note pan="0" pos="144" key="52" len="24" vol="78"/>
          <note pan="0" pos="168" key="68" len="24" vol="78"/>
          <note pan="0" pos="168" key="56" len="24" vol="78"/>
          <note pan="0" pos="192" key="71" len="24" vol="78"/>
          <note pan="0" pos="192" key="59" len="24" vol="78"/>
          <note pan="0" pos="216" key="73" len="24" vol="78"/>
          <note pan="0" pos="216" key="61" len="24" vol="78"/>
          <note pan="0" pos="240" key="75" len="24" vol="78"/>
          <note pan="0" pos="240" key="63" len="24" vol="78"/>
          <note pan="0" pos="264" key="73" len="48" vol="78"/>
          <note pan="0" pos="264" key="61" len="48" vol="78"/>
          <note pan="0" pos="312" key="75" len="24" vol="78"/>
          <note pan="0" pos="312" key="63" len="24" vol="78"/>
          <note pan="0" pos="336" key="76" len="24" vol="78"/>
          <note pan="0" pos="336" key="64" len="24" vol="78"/>
          <note pan="0" pos="360" key="78" len="24" vol="78"/>
          <note pan="0" pos="360" key="66" len="24" vol="78"/>
          <note pan="0" pos="384" key="75" len="96" vol="78"/>
          <note pan="0" pos="384" key="63" len="96" vol="78"/>
        </pattern>
        <pattern type="1" pos="7104" muted="0" name="Sf2 Player" steps="16">
          <note pan="0" pos="96" key="68" len="48" vol="78"/>
          <note pan="0" pos="96" key="56" len="48" vol="78"/>
          <note pan="0" pos="144" key="71" len="48" vol="78"/>
          <note pan="0" pos="144" key="59" len="48" vol="78"/>
          <note pan="0" pos="192" key="73" len="96" vol="78"/>
          <note pan="0" pos="192" key="61" len="96" vol="78"/>
          <note pan="0" pos="288" key="73" len="24" vol="78"/>
          <note pan="0" pos="288" key="61" len="24" vol="78"/>
          <note pan="0" pos="312" key="68" len="24" vol="78"/>
          <note pan="0" pos="312" key="56" len="24" vol="78"/>
          <note pan="0" pos="336" key="73" len="24" vol="78"/>
          <note pan="0" pos="336" key="61" len="24" vol="78"/>
          <note pan="0" pos="360" key="80" len="168" vol="78"/>
          <note pan="0" pos="360" key="68" len="168" vol="78"/>
          <note pan="0" pos="528" key="80" len="24" vol="78"/>
          <note pan="0" pos="528" key="68" len="24" vol="78"/>
          <note pan="0" pos="552" key="78" len="24" vol="78"/>
          <note pan="0" pos="552" key="66" len="24" vol="78"/>
          <note pan="0" pos="576" key="77" len="48" vol="78"/>
          <note pan="0" pos="576" key="65" len="48" vol="78"/>
          <note pan="0" pos="624" key="73" len="48" vol="78"/>
          <note pan="0" pos="624" key="61" len="48" vol="78"/>
          <note pan="0" pos="672" key="70" len="48" vol="78"/>
          <note pan="0" pos="672" key="58" len="48" vol="78"/>
          <note pan="0" pos="720" key="66" len="48" vol="78"/>
          <note pan="0" pos="720" key="54" len="48" vol="78"/>
          <note pan="0" pos="768" key="69" len="96" vol="78"/>
          <note pan="0" pos="768" key="57" len="96" vol="78"/>
          <note pan="0" pos="864" key="68" len="96" vol="78"/>
          <note pan="0" pos="864" key="56" len="96" vol="78"/>
          <note pan="0" pos="960" key="61" len="144" vol="78"/>
          <note pan="0" pos="960" key="49" len="144" vol="78"/>
          <note pan="0" pos="1104" key="64" len="48" vol="78"/>
          <note pan="0" pos="1104" key="52" len="48" vol="78"/>
          <note pan="0" pos="1152" key="63" len="144" vol="78"/>
          <note pan="0" pos="1152" key="51" len="144" vol="78"/>
          <note pan="0" pos="1296" key="68" len="48" vol="78"/>
          <note pan="0" pos="1296" key="56" len="48" vol="78"/>
          <note pan="0" pos="1344" key="68" len="144" vol="78"/>
          <note pan="0" pos="1344" key="56" len="144" vol="78"/>
          <note pan="0" pos="1488" key="66" len="24" vol="78"/>
          <note pan="0" pos="1488" key="54" len="24" vol="78"/>
          <note pan="0" pos="1512" key="64" len="24" vol="78"/>
          <note pan="0" pos="1512" key="52" len="24" vol="78"/>
          <note pan="0" pos="1536" key="63" len="48" vol="78"/>
          <note pan="0" pos="1536" key="51" len="48" vol="78"/>
          <note pan="0" pos="1584" key="64" len="48" vol="78"/>
          <note pan="0" pos="1584" key="52" len="48" vol="78"/>
          <note pan="0" pos="1632" key="59" len="48" vol="78"/>
          <note pan="0" pos="1632" key="47" len="48" vol="78"/>
          <note pan="0" pos="1680" key="56" len="48" vol="78"/>
          <note pan="0" pos="1680" key="44" len="48" vol="78"/>
          <note pan="0" pos="1728" key="57" len="96" vol="78"/>
          <note pan="0" pos="1728" key="45" len="96" vol="78"/>
          <note pan="0" pos="1824" key="61" len="48" vol="78"/>
          <note pan="0" pos="1824" key="49" len="48" vol="78"/>
          <note pan="0" pos="1872" key="64" len="48" vol="78"/>
          <note pan="0" pos="1872" key="52" len="48" vol="78"/>
          <note pan="0" pos="1920" key="64" len="96" vol="78"/>
          <note pan="0" pos="1920" key="52" len="96" vol="78"/>
          <note pan="0" pos="2016" key="63" len="48" vol="78"/>
          <note pan="0" pos="2016" key="51" len="48" vol="78"/>
          <note pan="0" pos="2064" key="64" len="48" vol="78"/>
          <note pan="0" pos="2064" key="52" len="48" vol="78"/>
          <note pan="0" pos="2112" key="71" len="72" vol="78"/>
          <note pan="0" pos="2112" key="59" len="72" vol="78"/>
          <note pan="0" pos="2184" key="69" len="72" vol="78"/>
          <note pan="0" pos="2184" key="57" len="72" vol="78"/>
          <note pan="0" pos="2256" key="68" len="48" vol="78"/>
          <note pan="0" pos="2256" key="56" len="48" vol="78"/>
          <note pan="0" pos="2304" key="66" len="192" vol="78"/>
          <note pan="0" pos="2304" key="54" len="192" vol="78"/>
          <note pan="0" pos="2496" key="64" len="72" vol="78"/>
          <note pan="0" pos="2496" key="52" len="72" vol="78"/>
          <note pan="0" pos="2568" key="63" len="72" vol="78"/>
          <note pan="0" pos="2568" key="51" len="72" vol="78"/>
          <note pan="0" pos="2640" key="64" len="48" vol="78"/>
          <note pan="0" pos="2640" key="52" len="48" vol="78"/>
          <note pan="0" pos="2688" key="68" len="144" vol="78"/>
          <note pan="0" pos="2688" key="56" len="144" vol="78"/>
          <note pan="0" pos="2832" key="63" len="48" vol="78"/>
          <note pan="0" pos="2832" key="51" len="48" vol="78"/>
          <note pan="0" pos="2880" key="61" len="240" vol="78"/>
          <note pan="0" pos="2880" key="49" len="240" vol="78"/>
          <note pan="0" pos="3120" key="64" len="48" vol="78"/>
          <note pan="0" pos="3120" key="52" len="48" vol="78"/>
          <note pan="0" pos="3168" key="66" len="48" vol="78"/>
          <note pan="0" pos="3168" key="54" len="48" vol="78"/>
          <note pan="0" pos="3216" key="68" len="48" vol="78"/>
          <note pan="0" pos="3216" key="56" len="48" vol="78"/>
          <note pan="0" pos="3264" key="69" len="72" vol="78"/>
          <note pan="0" pos="3264" key="57" len="72" vol="78"/>
          <note pan="0" pos="3336" key="68" len="72" vol="78"/>
          <note pan="0" pos="3336" key="56" len="72" vol="78"/>
          <note pan="0" pos="3408" key="66" len="48" vol="78"/>
          <note pan="0" pos="3408" key="54" len="48" vol="78"/>
          <note pan="0" pos="3456" key="64" len="48" vol="78"/>
          <note pan="0" pos="3456" key="52" len="48" vol="78"/>
          <note pan="0" pos="3504" key="61" len="48" vol="78"/>
          <note pan="0" pos="3504" key="49" len="48" vol="78"/>
          <note pan="0" pos="3552" key="64" len="48" vol="78"/>
          <note pan="0" pos="3552" key="52" len="48" vol="78"/>
          <note pan="0" pos="3600" key="68" len="48" vol="78"/>
          <note pan="0" pos="3600" key="56" len="48" vol="78"/>
          <note pan="0" pos="3648" key="66" len="192" vol="78"/>
          <note pan="0" pos="3648" key="54" len="192" vol="78"/>
          <note pan="0" pos="3840" key="63" len="96" vol="78"/>
          <note pan="0" pos="3840" key="51" len="96" vol="78"/>
          <note pan="0" pos="3936" key="59" len="96" vol="78"/>
          <note pan="0" pos="3936" key="47" len="96" vol="78"/>
          <note pan="0" pos="4032" key="61" len="384" vol="78"/>
          <note pan="0" pos="4032" key="49" len="384" vol="78"/>
        </pattern>
        <pattern type="1" pos="12672" muted="0" name="Sf2 Player" steps="16">
          <note pan="0" pos="0" key="49" len="24" vol="78"/>
          <note pan="0" pos="24" key="51" len="24" vol="78"/>
          <note pan="0" pos="48" key="49" len="24" vol="78"/>
          <note pan="0" pos="72" key="56" len="48" vol="78"/>
          <note pan="0" pos="120" key="49" len="24" vol="78"/>
          <note pan="0" pos="144" key="52" len="24" vol="78"/>
          <note pan="0" pos="168" key="56" len="24" vol="78"/>
          <note pan="0" pos="192" key="59" len="24" vol="78"/>
          <note pan="0" pos="216" key="57" len="24" vol="78"/>
          <note pan="0" pos="240" key="56" len="24" vol="78"/>
          <note pan="0" pos="264" key="57" len="48" vol="78"/>
          <note pan="0" pos="312" key="56" len="24" vol="78"/>
          <note pan="0" pos="336" key="54" len="24" vol="78"/>
          <note pan="0" pos="360" key="56" len="24" vol="78"/>
          <note pan="0" pos="384" key="51" len="96" vol="78"/>
        </pattern>
        <pattern type="1" pos="13440" muted="0" name="Sf2 Player" steps="16">
          <note pan="0" pos="0" key="49" len="24" vol="78"/>
          <note pan="0" pos="24" key="51" len="24" vol="78"/>
          <note pan="0" pos="48" key="49" len="24" vol="78"/>
          <note pan="0" pos="72" key="56" len="48" vol="78"/>
          <note pan="0" pos="120" key="49" len="24" vol="78"/>
          <note pan="0" pos="144" key="52" len="24" vol="78"/>
          <note pan="0" pos="168" key="56" len="24" vol="78"/>
          <note pan="0" pos="192" key="59" len="24" vol="78"/>
          <note pan="0" pos="216" key="61" len="24" vol="78"/>
          <note pan="0" pos="240" key="63" len="24" vol="78"/>
          <note pan="0" pos="264" key="61" len="48" vol="78"/>
          <note pan="0" pos="312" key="63" len="24" vol="78"/>
          <note pan="0" pos="336" key="64" len="24" vol="78"/>
          <note pan="0" pos="360" key="66" len="24" vol="78"/>
          <note pan="0" pos="384" key="63" len="96" vol="78"/>
        </pattern>
        <pattern type="1" pos="14784" muted="0" name="Sf2 Player" steps="16">
          <note pan="0" pos="96" key="68" len="48" vol="78"/>
          <note pan="0" pos="96" key="56" len="48" vol="78"/>
          <note pan="0" pos="144" key="71" len="48" vol="78"/>
          <note pan="0" pos="144" key="59" len="48" vol="78"/>
          <note pan="0" pos="192" key="73" len="96" vol="78"/>
          <note pan="0" pos="192" key="61" len="96" vol="78"/>
          <note pan="0" pos="288" key="73" len="24" vol="78"/>
          <note pan="0" pos="288" key="61" len="24" vol="78"/>
          <note pan="0" pos="312" key="68" len="24" vol="78"/>
          <note pan="0" pos="312" key="56" len="24" vol="78"/>
          <note pan="0" pos="336" key="73" len="24" vol="78"/>
          <note pan="0" pos="336" key="61" len="24" vol="78"/>
          <note pan="0" pos="360" key="80" len="168" vol="78"/>
          <note pan="0" pos="360" key="68" len="168" vol="78"/>
          <note pan="0" pos="528" key="80" len="24" vol="78"/>
          <note pan="0" pos="528" key="68" len="24" vol="78"/>
          <note pan="0" pos="552" key="78" len="24" vol="78"/>
          <note pan="0" pos="552" key="66" len="24" vol="78"/>
          <note pan="0" pos="576" key="77" len="48" vol="78"/>
          <note pan="0" pos="576" key="65" len="48" vol="78"/>
          <note pan="0" pos="624" key="73" len="48" vol="78"/>
          <note pan="0" pos="624" key="61" len="48" vol="78"/>
          <note pan="0" pos="672" key="70" len="48" vol="78"/>
          <note pan="0" pos="672" key="58" len="48" vol="78"/>
          <note pan="0" pos="720" key="66" len="48" vol="78"/>
          <note pan="0" pos="720" key="54" len="48" vol="78"/>
          <note pan="0" pos="768" key="69" len="96" vol="78"/>
          <note pan="0" pos="768" key="57" len="96" vol="78"/>
          <note pan="0" pos="864" key="68" len="96" vol="78"/>
          <note pan="0" pos="864" key="56" len="96" vol="78"/>
          <note pan="0" pos="960" key="61" len="144" vol="78"/>
          <note pan="0" pos="960" key="49" len="144" vol="78"/>
          <note pan="0" pos="1104" key="64" len="48" vol="78"/>
          <note pan="0" pos="1104" key="52" len="48" vol="78"/>
          <note pan="0" pos="1152" key="63" len="144" vol="78"/>
          <note pan="0" pos="1152" key="51" len="144" vol="78"/>
          <note pan="0" pos="1296" key="68" len="48" vol="78"/>
          <note pan="0" pos="1296" key="56" len="48" vol="78"/>
          <note pan="0" pos="1344" key="68" len="144" vol="78"/>
          <note pan="0" pos="1344" key="56" len="144" vol="78"/>
          <note pan="0" pos="1488" key="66" len="24" vol="78"/>
          <note pan="0" pos="1488" key="54" len="24" vol="78"/>
          <note pan="0" pos="1512" key="64" len="24" vol="78"/>
          <note pan="0" pos="1512" key="52" len="24" vol="78"/>
          <note pan="0" pos="1536" key="63" len="48" vol="78"/>
          <note pan="0" pos="1536" key="51" len="48" vol="78"/>
          <note pan="0" pos="1584" key="64" len="48" vol="78"/>
          <note pan="0" pos="1584" key="52" len="48" vol="78"/>
          <note pan="0" pos="1632" key="59" len="48" vol="78"/>
          <note pan="0" pos="1632" key="47" len="48" vol="78"/>
          <note pan="0" pos="1680" key="56" len="48" vol="78"/>
          <note pan="0" pos="1680" key="44" len="48" vol="78"/>
          <note pan="0" pos="1728" key="57" len="96" vol="78"/>
          <note pan="0" pos="1728" key="45" len="96" vol="78"/>
          <note pan="0" pos="1824" key="61" len="48" vol="78"/>
          <note pan="0" pos="1824" key="49" len="48" vol="78"/>
          <note pan="0" pos="1872" key="64" len="48" vol="78"/>
          <note pan="0" pos="1872" key="52" len="48" vol="78"/>
          <note pan="0" pos="1920" key="64" len="96" vol="78"/>
          <note pan="0" pos="1920" key="52" len="96" vol="78"/>
          <note pan="0" pos="2016" key="63" len="48" vol="78"/>
          <note pan="0" pos="2016" key="51" len="48" vol="78"/>
          <note pan="0" pos="2064" key="64" len="48" vol="78"/>
          <note pan="0" pos="2064" key="52" len="48" vol="78"/>
          <note pan="0" pos="2112" key="71" len="72" vol="78"/>
          <note pan="0" pos="2112" key="59" len="72" vol="78"/>
          <note pan="0" pos="2184" key="69" len="72" vol="78"/>
          <note pan="0" pos="2184" key="57" len="72" vol="78"/>
          <note pan="0" pos="2256" key="68" len="48" vol="78"/>
          <note pan="0" pos="2256" key="56" len="48" vol="78"/>
          <note pan="0" pos="2304" key="66" len="192" vol="78"/>
          <note pan="0" pos="2304" key="54" len="192" vol="78"/>
          <note pan="0" pos="2496" key="64" len="72" vol="78"/>
          <note pan="0" pos="2496" key="52" len="72" vol="78"/>
          <note pan="0" pos="2568" key="63" len="72" vol="78"/>
          <note pan="0" pos="2568" key="51" len="72" vol="78"/>
          <note pan="0" pos="2640" key="64" len="48" vol="78"/>
          <note pan="0" pos="2640" key="52" len="48" vol="78"/>
          <note pan="0" pos="2688" key="68" len="144" vol="78"/>
          <note pan="0" pos="2688" key="56" len="144" vol="78"/>
          <note pan="0" pos="2832" key="63" len="48" vol="78"/>
          <note pan="0" pos="2832" key="51" len="48" vol="78"/>
          <note pan="0" pos="2880" key="61" len="240" vol="78"/>
          <note pan="0" pos="2880" key="49" len="240" vol="78"/>
          <note pan="0" pos="3120" key="64" len="48" vol="78"/>
          <note pan="0" pos="3120" key="52" len="48" vol="78"/>
          <note pan="0" pos="3168" key="66" len="48" vol="78"/>
          <note pan="0" pos="3168" key="54" len="48" vol="78"/>
          <note pan="0" pos="3216" key="68" len="48" vol="78"/>
          <note pan="0" pos="3216" key="56" len="48" vol="78"/>
          <note pan="0" pos="3264" key="69" len="72" vol="78"/>
          <note pan="0" pos="3264" key="57" len="72" vol="78"/>
          <note pan="0" pos="3336" key="68" len="72" vol="78"/>
          <note pan="0" pos="3336" key="56" len="72" vol="78"/>
          <note pan="0" pos="3408" key="66" len="48" vol="78"/>
          <note pan="0" pos="3408" key="54" len="48" vol="78"/>
          <note pan="0" pos="3456" key="64" len="48" vol="78"/>
          <note pan="0" pos="3456" key="52" len="48" vol="78"/>
          <note pan="0" pos="3504" key="61" len="48" vol="78"/>
          <note pan="0" pos="3504" key="49" len="48" vol="78"/>
          <note pan="0" pos="3552" key="64" len="48" vol="78"/>
          <note pan="0" pos="3552" key="52" len="48" vol="78"/>
          <note pan="0" pos="3600" key="68" len="48" vol="78"/>
          <note pan="0" pos="3600" key="56" len="48" vol="78"/>
          <note pan="0" pos="3648" key="66" len="192" vol="78"/>
          <note pan="0" pos="3648" key="54" len="192" vol="78"/>
          <note pan="0" pos="3840" key="63" len="24" vol="78"/>
          <note pan="0" pos="3840" key="51" len="24" vol="78"/>
          <note pan="0" pos="3864" key="63" len="24" vol="78"/>
          <note pan="0" pos="3864" key="51" len="24" vol="78"/>
          <note pan="0" pos="3936" key="71" len="24" vol="78"/>
          <note pan="0" pos="3936" key="59" len="24" vol="78"/>
          <note pan="0" pos="3960" key="71" len="24" vol="78"/>
          <note pan="0" pos="3960" key="59" len="24" vol="78"/>
          <note pan="0" pos="4032" key="73" len="336" vol="78"/>
          <note pan="0" pos="4032" key="61" len="336" vol="78"/>
          <note pan="0" pos="4368" key="64" len="48" vol="78"/>
          <note pan="0" pos="4368" key="52" len="48" vol="78"/>
          <note pan="0" pos="4416" key="63" len="288" vol="78"/>
          <note pan="0" pos="4416" key="51" len="288" vol="78"/>
          <note pan="0" pos="4704" key="56" len="48" vol="78"/>
          <note pan="0" pos="4704" key="44" len="48" vol="78"/>
          <note pan="0" pos="4752" key="59" len="48" vol="78"/>
          <note pan="0" pos="4752" key="47" len="48" vol="78"/>
          <note pan="0" pos="4800" key="61" len="240" vol="78"/>
          <note pan="0" pos="4800" key="49" len="240" vol="78"/>
          <note pan="0" pos="5040" key="59" len="48" vol="78"/>
          <note pan="0" pos="5040" key="47" len="48" vol="78"/>
          <note pan="0" pos="5088" key="61" len="48" vol="78"/>
          <note pan="0" pos="5088" key="49" len="48" vol="78"/>
          <note pan="0" pos="5136" key="68" len="48" vol="78"/>
          <note pan="0" pos="5136" key="56" len="48" vol="78"/>
          <note pan="0" pos="5184" key="66" len="192" vol="78"/>
          <note pan="0" pos="5184" key="54" len="192" vol="78"/>
          <note pan="0" pos="5376" key="69" len="48" vol="78"/>
          <note pan="0" pos="5376" key="57" len="48" vol="78"/>
          <note pan="0" pos="5424" key="68" len="24" vol="78"/>
          <note pan="0" pos="5424" key="56" len="24" vol="78"/>
          <note pan="0" pos="5448" key="68" len="12" vol="78"/>
          <note pan="0" pos="5448" key="56" len="12" vol="78"/>
          <note pan="0" pos="5456" key="69" len="12" vol="78"/>
          <note pan="0" pos="5456" key="57" len="12" vol="78"/>
          <note pan="0" pos="5464" key="68" len="12" vol="78"/>
          <note pan="0" pos="5464" key="56" len="12" vol="78"/>
          <note pan="0" pos="5472" key="66" len="48" vol="78"/>
          <note pan="0" pos="5472" key="54" len="48" vol="78"/>
          <note pan="0" pos="5520" key="68" len="48" vol="78"/>
          <note pan="0" pos="5520" key="56" len="48" vol="78"/>
          <note pan="0" pos="5568" key="64" len="240" vol="78"/>
          <note pan="0" pos="5568" key="52" len="240" vol="78"/>
          <note pan="0" pos="5808" key="61" len="48" vol="78"/>
          <note pan="0" pos="5808" key="49" len="48" vol="78"/>
          <note pan="0" pos="5856" key="64" len="48" vol="78"/>
          <note pan="0" pos="5856" key="52" len="48" vol="78"/>
          <note pan="0" pos="5904" key="68" len="48" vol="78"/>
          <note pan="0" pos="5904" key="56" len="48" vol="78"/>
          <note pan="0" pos="5952" key="68" len="192" vol="78"/>
          <note pan="0" pos="5952" key="56" len="192" vol="78"/>
          <note pan="0" pos="6144" key="66" len="144" vol="78"/>
          <note pan="0" pos="6144" key="54" len="144" vol="78"/>
          <note pan="0" pos="6288" key="68" len="48" vol="78"/>
          <note pan="0" pos="6288" key="56" len="48" vol="78"/>
          <note pan="0" pos="6336" key="61" len="240" vol="78"/>
          <note pan="0" pos="6336" key="49" len="240" vol="78"/>
          <note pan="0" pos="6576" key="56" len="48" vol="78"/>
          <note pan="0" pos="6576" key="44" len="48" vol="78"/>
          <note pan="0" pos="6624" key="61" len="48" vol="78"/>
          <note pan="0" pos="6624" key="49" len="48" vol="78"/>
          <note pan="0" pos="6672" key="68" len="48" vol="78"/>
          <note pan="0" pos="6672" key="56" len="48" vol="78"/>
          <note pan="0" pos="6720" key="73" len="192" vol="78"/>
          <note pan="0" pos="6720" key="61" len="192" vol="78"/>
          <note pan="0" pos="6912" key="72" len="192" vol="78"/>
          <note pan="0" pos="6912" key="60" len="192" vol="78"/>
        </pattern>
        <pattern type="1" pos="36480" muted="0" name="Sf2 Player" steps="16">
          <note pan="0" pos="0" key="61" len="24" vol="78"/>
          <note pan="0" pos="0" key="49" len="24" vol="78"/>
          <note pan="0" pos="24" key="63" len="24" vol="78"/>
          <note pan="0" pos="24" key="51" len="24" vol="78"/>
          <note pan="0" pos="48" key="61" len="24" vol="78"/>
          <note pan="0" pos="48" key="49" len="24" vol="78"/>
          <note pan="0" pos="72" key="68" len="48" vol="78"/>
          <note pan="0" pos="72" key="56" len="48" vol="78"/>
          <note pan="0" pos="120" key="61" len="24" vol="78"/>
          <note pan="0" pos="120" key="49" len="24" vol="78"/>
          <note pan="0" pos="144" key="64" len="24" vol="78"/>
          <note pan="0" pos="144" key="52" len="24" vol="78"/>
          <note pan="0" pos="168" key="68" len="24" vol="78"/>
          <note pan="0" pos="168" key="56" len="24" vol="78"/>
          <note pan="0" pos="192" key="71" len="24" vol="78"/>
          <note pan="0" pos="192" key="59" len="24" vol="78"/>
          <note pan="0" pos="216" key="69" len="24" vol="78"/>
          <note pan="0" pos="216" key="57" len="24" vol="78"/>
          <note pan="0" pos="240" key="68" len="24" vol="78"/>
          <note pan="0" pos="240" key="56" len="24" vol="78"/>
          <note pan="0" pos="264" key="69" len="48" vol="78"/>
          <note pan="0" pos="264" key="57" len="48" vol="78"/>
          <note pan="0" pos="312" key="68" len="24" vol="78"/>
          <note pan="0" pos="312" key="56" len="24" vol="78"/>
          <note pan="0" pos="336" key="66" len="24" vol="78"/>
          <note pan="0" pos="336" key="54" len="24" vol="78"/>
          <note pan="0" pos="360" key="68" len="24" vol="78"/>
          <note pan="0" pos="360" key="56" len="24" vol="78"/>
          <note pan="0" pos="384" key="63" len="96" vol="78"/>
          <note pan="0" pos="384" key="51" len="96" vol="78"/>
        </pattern>
        <pattern type="1" pos="37248" muted="0" name="Sf2 Player" steps="16">
          <note pan="0" pos="0" key="61" len="24" vol="78"/>
          <note pan="0" pos="0" key="49" len="24" vol="78"/>
          <note pan="0" pos="24" key="63" len="24" vol="78"/>
          <note pan="0" pos="24" key="51" len="24" vol="78"/>
          <note pan="0" pos="48" key="61" len="24" vol="78"/>
          <note pan="0" pos="48" key="49" len="24" vol="78"/>
          <note pan="0" pos="72" key="68" len="48" vol="78"/>
          <note pan="0" pos="72" key="56" len="48" vol="78"/>
          <note pan="0" pos="120" key="61" len="24" vol="78"/>
          <note pan="0" pos="120" key="49" len="24" vol="78"/>
          <note pan="0" pos="144" key="64" len="24" vol="78"/>
          <note pan="0" pos="144" key="52" len="24" vol="78"/>
          <note pan="0" pos="168" key="68" len="24" vol="78"/>
          <note pan="0" pos="168" key="56" len="24" vol="78"/>
          <note pan="0" pos="192" key="71" len="24" vol="78"/>
          <note pan="0" pos="192" key="59" len="24" vol="78"/>
          <note pan="0" pos="216" key="73" len="24" vol="78"/>
          <note pan="0" pos="216" key="61" len="24" vol="78"/>
          <note pan="0" pos="240" key="75" len="24" vol="78"/>
          <note pan="0" pos="240" key="63" len="24" vol="78"/>
          <note pan="0" pos="264" key="73" len="48" vol="78"/>
          <note pan="0" pos="264" key="61" len="48" vol="78"/>
          <note pan="0" pos="312" key="75" len="24" vol="78"/>
          <note pan="0" pos="312" key="63" len="24" vol="78"/>
          <note pan="0" pos="336" key="76" len="24" vol="78"/>
          <note pan="0" pos="336" key="64" len="24" vol="78"/>
          <note pan="0" pos="360" key="78" len="24" vol="78"/>
          <note pan="0" pos="360" key="66" len="24" vol="78"/>
          <note pan="0" pos="384" key="75" len="96" vol="78"/>
          <note pan="0" pos="384" key="63" len="96" vol="78"/>
        </pattern>
        <pattern type="1" pos="38592" muted="0" name="Sf2 Player" steps="16">
          <note pan="0" pos="96" key="68" len="48" vol="78"/>
          <note pan="0" pos="96" key="56" len="48" vol="78"/>
          <note pan="0" pos="144" key="71" len="48" vol="78"/>
          <note pan="0" pos="144" key="59" len="48" vol="78"/>
          <note pan="0" pos="192" key="73" len="96" vol="78"/>
          <note pan="0" pos="192" key="61" len="96" vol="78"/>
          <note pan="0" pos="288" key="73" len="24" vol="78"/>
          <note pan="0" pos="288" key="61" len="24" vol="78"/>
          <note pan="0" pos="312" key="68" len="24" vol="78"/>
          <note pan="0" pos="312" key="56" len="24" vol="78"/>
          <note pan="0" pos="336" key="73" len="24" vol="78"/>
          <note pan="0" pos="336" key="61" len="24" vol="78"/>
          <note pan="0" pos="360" key="80" len="168" vol="78"/>
          <note pan="0" pos="360" key="68" len="168" vol="78"/>
          <note pan="0" pos="528" key="80" len="24" vol="78"/>
          <note pan="0" pos="528" key="68" len="24" vol="78"/>
          <note pan="0" pos="552" key="78" len="24" vol="78"/>
          <note pan="0" pos="552" key="66" len="24" vol="78"/>
          <note pan="0" pos="576" key="77" len="48" vol="78"/>
          <note pan="0" pos="576" key="65" len="48" vol="78"/>
          <note pan="0" pos="624" key="73" len="48" vol="78"/>
          <note pan="0" pos="624" key="61" len="48" vol="78"/>
          <note pan="0" pos="672" key="70" len="48" vol="78"/>
          <note pan="0" pos="672" key="58" len="48" vol="78"/>
          <note pan="0" pos="720" key="66" len="48" vol="78"/>
          <note pan="0" pos="720" key="54" len="48" vol="78"/>
          <note pan="0" pos="768" key="69" len="96" vol="78"/>
          <note pan="0" pos="768" key="57" len="96" vol="78"/>
          <note pan="0" pos="864" key="68" len="96" vol="78"/>
          <note pan="0" pos="864" key="56" len="96" vol="78"/>
          <note pan="0" pos="960" key="61" len="144" vol="78"/>
          <note pan="0" pos="960" key="49" len="144" vol="78"/>
          <note pan="0" pos="1104" key="64" len="48" vol="78"/>
          <note pan="0" pos="1104" key="52" len="48" vol="78"/>
          <note pan="0" pos="1152" key="63" len="144" vol="78"/>
          <note pan="0" pos="1152" key="51" len="144" vol="78"/>
          <note pan="0" pos="1296" key="68" len="48" vol="78"/>
          <note pan="0" pos="1296" key="56" len="48" vol="78"/>
          <note pan="0" pos="1344" key="68" len="144" vol="78"/>
          <note pan="0" pos="1344" key="56" len="144" vol="78"/>
          <note pan="0" pos="1488" key="66" len="24" vol="78"/>
          <note pan="0" pos="1488" key="54" len="24" vol="78"/>
          <note pan="0" pos="1512" key="64" len="24" vol="78"/>
          <note pan="0" pos="1512" key="52" len="24" vol="78"/>
          <note pan="0" pos="1536" key="63" len="48" vol="78"/>
          <note pan="0" pos="1536" key="51" len="48" vol="78"/>
          <note pan="0" pos="1584" key="64" len="48" vol="78"/>
          <note pan="0" pos="1584" key="52" len="48" vol="78"/>
          <note pan="0" pos="1632" key="59" len="48" vol="78"/>
          <note pan="0" pos="1632" key="47" len="48" vol="78"/>
          <note pan="0" pos="1680" key="56" len="48" vol="78"/>
          <note pan="0" pos="1680" key="44" len="48" vol="78"/>
          <note pan="0" pos="1728" key="57" len="96" vol="78"/>
          <note pan="0" pos="1728" key="45" len="96" vol="78"/>
          <note pan="0" pos="1824" key="61" len="48" vol="78"/>
          <note pan="0" pos="1824" key="49" len="48" vol="78"/>
          <note pan="0" pos="1872" key="64" len="48" vol="78"/>
          <note pan="0" pos="1872" key="52" len="48" vol="78"/>
          <note pan="0" pos="1920" key="64" len="96" vol="78"/>
          <note pan="0" pos="1920" key="52" len="96" vol="78"/>
          <note pan="0" pos="2016" key="63" len="48" vol="78"/>
          <note pan="0" pos="2016" key="51" len="48" vol="78"/>
          <note pan="0" pos="2064" key="64" len="48" vol="78"/>
          <note pan="0" pos="2064" key="52" len="48" vol="78"/>
          <note pan="0" pos="2112" key="71" len="72" vol="78"/>
          <note pan="0" pos="2112" key="59" len="72" vol="78"/>
          <note pan="0" pos="2184" key="69" len="72" vol="78"/>
          <note pan="0" pos="2184" key="57" len="72" vol="78"/>
          <note pan="0" pos="2256" key="68" len="48" vol="78"/>
          <note pan="0" pos="2256" key="56" len="48" vol="78"/>
          <note pan="0" pos="2304" key="66" len="192" vol="78"/>
          <note pan="0" pos="2304" key="54" len="192" vol="78"/>
          <note pan="0" pos="2496" key="64" len="72" vol="78"/>
          <note pan="0" pos="2496" key="52" len="72" vol="78"/>
          <note pan="0" pos="2568" key="63" len="72" vol="78"/>
          <note pan="0" pos="2568" key="51" len="72" vol="78"/>
          <note pan="0" pos="2640" key="64" len="48" vol="78"/>
          <note pan="0" pos="2640" key="52" len="48" vol="78"/>
          <note pan="0" pos="2688" key="68" len="144" vol="78"/>
          <note pan="0" pos="2688" key="56" len="144" vol="78"/>
          <note pan="0" pos="2832" key="63" len="48" vol="78"/>
          <note pan="0" pos="2832" key="51" len="48" vol="78"/>
          <note pan="0" pos="2880" key="61" len="240" vol="78"/>
          <note pan="0" pos="2880" key="49" len="240" vol="78"/>
          <note pan="0" pos="3120" key="64" len="48" vol="78"/>
          <note pan="0" pos="3120" key="52" len="48" vol="78"/>
          <note pan="0" pos="3168" key="66" len="48" vol="78"/>
          <note pan="0" pos="3168" key="54" len="48" vol="78"/>
          <note pan="0" pos="3216" key="68" len="48" vol="78"/>
          <note pan="0" pos="3216" key="56" len="48" vol="78"/>
          <note pan="0" pos="3264" key="69" len="72" vol="78"/>
          <note pan="0" pos="3264" key="57" len="72" vol="78"/>
          <note pan="0" pos="3336" key="68" len="72" vol="78"/>
          <note pan="0" pos="3336" key="56" len="72" vol="78"/>
          <note pan="0" pos="3408" key="66" len="48" vol="78"/>
          <note pan="0" pos="3408" key="54" len="48" vol="78"/>
          <note pan="0" pos="3456" key="64" len="48" vol="78"/>
          <note pan="0" pos="3456" key="52" len="48" vol="78"/>
          <note pan="0" pos="3504" key="61" len="48" vol="78"/>
          <note pan="0" pos="3504" key="49" len="48" vol="78"/>
          <note pan="0" pos="3552" key="64" len="48" vol="78"/>
          <note pan="0" pos="3552" key="52" len="48" vol="78"/>
          <note pan="0" pos="3600" key="68" len="48" vol="78"/>
          <note pan="0" pos="3600" key="56" len="48" vol="78"/>
          <note pan="0" pos="3648" key="66" len="192" vol="78"/>
          <note pan="0" pos="3648" key="54" len="192" vol="78"/>
          <note pan="0" pos="3840" key="63" len="96" vol="78"/>
          <note pan="0" pos="3840" key="51" len="96" vol="78"/>
          <note pan="0" pos="3936" key="59" len="96" vol="78"/>
          <note pan="0" pos="3936" key="47" len="96" vol="78"/>
          <note pan="0" pos="4032" key="61" len="384" vol="78"/>
          <note pan="0" pos="4032" key="49" len="384" vol="78"/>
        </pattern>
        <pattern type="1" pos="44160" muted="0" name="Sf2 Player" steps="16">
          <note pan="0" pos="0" key="49" len="24" vol="78"/>
          <note pan="0" pos="24" key="51" len="24" vol="78"/>
          <note pan="0" pos="48" key="49" len="24" vol="78"/>
          <note pan="0" pos="72" key="56" len="48" vol="78"/>
          <note pan="0" pos="120" key="49" len="24" vol="78"/>
          <note pan="0" pos="144" key="52" len="24" vol="78"/>
          <note pan="0" pos="168" key="56" len="24" vol="78"/>
          <note pan="0" pos="192" key="59" len="24" vol="78"/>
          <note pan="0" pos="216" key="57" len="24" vol="78"/>
          <note pan="0" pos="240" key="56" len="24" vol="78"/>
          <note pan="0" pos="264" key="57" len="48" vol="78"/>
          <note pan="0" pos="312" key="56" len="24" vol="78"/>
          <note pan="0" pos="336" key="54" len="24" vol="78"/>
          <note pan="0" pos="360" key="56" len="24" vol="78"/>
          <note pan="0" pos="384" key="51" len="96" vol="78"/>
        </pattern>
        <pattern type="1" pos="44928" muted="0" name="Sf2 Player" steps="16">
          <note pan="0" pos="0" key="49" len="24" vol="78"/>
          <note pan="0" pos="24" key="51" len="24" vol="78"/>
          <note pan="0" pos="48" key="49" len="24" vol="78"/>
          <note pan="0" pos="72" key="56" len="48" vol="78"/>
          <note pan="0" pos="120" key="49" len="24" vol="78"/>
          <note pan="0" pos="144" key="52" len="24" vol="78"/>
          <note pan="0" pos="168" key="56" len="24" vol="78"/>
          <note pan="0" pos="192" key="59" len="24" vol="78"/>
          <note pan="0" pos="216" key="61" len="24" vol="78"/>
          <note pan="0" pos="240" key="63" len="24" vol="78"/>
          <note pan="0" pos="264" key="61" len="48" vol="78"/>
          <note pan="0" pos="312" key="63" len="24" vol="78"/>
          <note pan="0" pos="336" key="64" len="24" vol="78"/>
          <note pan="0" pos="360" key="66" len="24" vol="78"/>
          <note pan="0" pos="384" key="63" len="96" vol="78"/>
        </pattern>
        <pattern type="1" pos="46272" muted="0" name="Sf2 Player" steps="16">
          <note pan="0" pos="96" key="68" len="48" vol="78"/>
          <note pan="0" pos="96" key="56" len="48" vol="78"/>
          <note pan="0" pos="144" key="71" len="48" vol="78"/>
          <note pan="0" pos="144" key="59" len="48" vol="78"/>
          <note pan="0" pos="192" key="73" len="96" vol="78"/>
          <note pan="0" pos="192" key="61" len="96" vol="78"/>
          <note pan="0" pos="288" key="73" len="24" vol="78"/>
          <note pan="0" pos="288" key="61" len="24" vol="78"/>
          <note pan="0" pos="312" key="68" len="24" vol="78"/>
          <note pan="0" pos="312" key="56" len="24" vol="78"/>
          <note pan="0" pos="336" key="73" len="24" vol="78"/>
          <note pan="0" pos="336" key="61" len="24" vol="78"/>
          <note pan="0" pos="360" key="80" len="168" vol="78"/>
          <note pan="0" pos="360" key="68" len="168" vol="78"/>
          <note pan="0" pos="528" key="80" len="24" vol="78"/>
          <note pan="0" pos="528" key="68" len="24" vol="78"/>
          <note pan="0" pos="552" key="78" len="24" vol="78"/>
          <note pan="0" pos="552" key="66" len="24" vol="78"/>
          <note pan="0" pos="576" key="77" len="48" vol="78"/>
          <note pan="0" pos="576" key="65" len="48" vol="78"/>
          <note pan="0" pos="624" key="73" len="48" vol="78"/>
          <note pan="0" pos="624" key="61" len="48" vol="78"/>
          <note pan="0" pos="672" key="70" len="48" vol="78"/>
          <note pan="0" pos="672" key="58" len="48" vol="78"/>
          <note pan="0" pos="720" key="66" len="48" vol="78"/>
          <note pan="0" pos="720" key="54" len="48" vol="78"/>
          <note pan="0" pos="768" key="69" len="96" vol="78"/>
          <note pan="0" pos="768" key="57" len="96" vol="78"/>
          <note pan="0" pos="864" key="68" len="96" vol="78"/>
          <note pan="0" pos="864" key="56" len="96" vol="78"/>
          <note pan="0" pos="960" key="61" len="144" vol="78"/>
          <note pan="0" pos="960" key="49" len="144" vol="78"/>
          <note pan="0" pos="1104" key="64" len="48" vol="78"/>
          <note pan="0" pos="1104" key="52" len="48" vol="78"/>
          <note pan="0" pos="1152" key="63" len="144" vol="78"/>
          <note pan="0" pos="1152" key="51" len="144" vol="78"/>
          <note pan="0" pos="1296" key="68" len="48" vol="78"/>
          <note pan="0" pos="1296" key="56" len="48" vol="78"/>
          <note pan="0" pos="1344" key="68" len="144" vol="78"/>
          <note pan="0" pos="1344" key="56" len="144" vol="78"/>
          <note pan="0" pos="1488" key="66" len="24" vol="78"/>
          <note pan="0" pos="1488" key="54" len="24" vol="78"/>
          <note pan="0" pos="1512" key="64" len="24" vol="78"/>
          <note pan="0" pos="1512" key="52" len="24" vol="78"/>
          <note pan="0" pos="1536" key="63" len="48" vol="78"/>
          <note pan="0" pos="1536" key="51" len="48" vol="78"/>
          <note pan="0" pos="1584" key="64" len="48" vol="78"/>
          <note pan="0" pos="1584" key="52" len="48" vol="78"/>
          <note pan="0" pos="1632" key="59" len="48" vol="78"/>
          <note pan="0" pos="1632" key="47" len="48" vol="78"/>
          <note pan="0" pos="1680" key="56" len="48" vol="78"/>
          <note pan="0" pos="1680" key="44" len="48" vol="78"/>
          <note pan="0" pos="1728" key="57" len="96" vol="78"/>
          <note pan="0" pos="1728" key="45" len="96" vol="78"/>
          <note pan="0" pos="1824" key="61" len="48" vol="78"/>
          <note pan="0" pos="1824" key="49" len="48" vol="78"/>
          <note pan="0" pos="1872" key="64" len="48" vol="78"/>
          <note pan="0" pos="1872" key="52" len="48" vol="78"/>
          <note pan="0" pos="1920" key="64" len="96" vol="78"/>
          <note pan="0" pos="1920" key="52" len="96" vol="78"/>
          <note pan="0" pos="2016" key="63" len="48" vol="78"/>
          <note pan="0" pos="2016" key="51" len="48" vol="78"/>
          <note pan="0" pos="2064" key="64" len="48" vol="78"/>
          <note pan="0" pos="2064" key="52" len="48" vol="78"/>
          <note pan="0" pos="2112" key="71" len="72" vol="78"/>
          <note pan="0" pos="2112" key="59" len="72" vol="78"/>
          <note pan="0" pos="2184" key="69" len="72" vol="78"/>
          <note pan="0" pos="2184" key="57" len="72" vol="78"/>
          <note pan="0" pos="2256" key="68" len="48" vol="78"/>
          <note pan="0" pos="2256" key="56" len="48" vol="78"/>
          <note pan="0" pos="2304" key="66" len="192" vol="78"/>
          <note pan="0" pos="2304" key="54" len="192" vol="78"/>
          <note pan="0" pos="2496" key="64" len="72" vol="78"/>
          <note pan="0" pos="2496" key="52" len="72" vol="78"/>
          <note pan="0" pos="2568" key="63" len="72" vol="78"/>
          <note pan="0" pos="2568" key="51" len="72" vol="78"/>
          <note pan="0" pos="2640" key="64" len="48" vol="78"/>
          <note pan="0" pos="2640" key="52" len="48" vol="78"/>
          <note pan="0" pos="2688" key="68" len="144" vol="78"/>
          <note pan="0" pos="2688" key="56" len="144" vol="78"/>
          <note pan="0" pos="2832" key="63" len="48" vol="78"/>
          <note pan="0" pos="2832" key="51" len="48" vol="78"/>
          <note pan="0" pos="2880" key="61" len="240" vol="78"/>
          <note pan="0" pos="2880" key="49" len="240" vol="78"/>
          <note pan="0" pos="3120" key="64" len="48" vol="78"/>
          <note pan="0" pos="3120" key="52" len="48" vol="78"/>
          <note pan="0" pos="3168" key="66" len="48" vol="78"/>
          <note pan="0" pos="3168" key="54" len="48" vol="78"/>
          <note pan="0" pos="3216" key="68" len="48" vol="78"/>
          <note pan="0" pos="3216" key="56" len="48" vol="78"/>
          <note pan="0" pos="3264" key="69" len="72" vol="78"/>
          <note pan="0" pos="3264" key="57" len="72" vol="78"/>
          <note pan="0" pos="3336" key="68" len="72" vol="78"/>
          <note pan="0" pos="3336" key="56" len="72" vol="78"/>
          <note pan="0" pos="3408" key="66" len="48" vol="78"/>
          <note pan="0" pos="3408" key="54" len="48" vol="78"/>
          <note pan="0" pos="3456" key="64" len="48" vol="78"/>
          <note pan="0" pos="3456" key="52" len="48" vol="78"/>
          <note pan="0" pos="3504" key="61" len="48" vol="78"/>
          <note pan="0" pos="3504" key="49" len="48" vol="78"/>
          <note pan="0" pos="3552" key="64" len="48" vol="78"/>
          <note pan="0" pos="3552" key="52" len="48" vol="78"/>
          <note pan="0" pos="3600" key="68" len="48" vol="78"/>
          <note pan="0" pos="3600" key="56" len="48" vol="78"/>
          <note pan="0" pos="3648" key="66" len="192" vol="78"/>
          <note pan="0" pos="3648" key="54" len="192" vol="78"/>
          <note pan="0" pos="3840" key="63" len="24" vol="78"/>
          <note pan="0" pos="3840" key="51" len="24" vol="78"/>
          <note pan="0" pos="3864" key="63" len="24" vol="78"/>
          <note pan="0" pos="3864" key="51" len="24" vol="78"/>
          <note pan="0" pos="3936" key="71" len="24" vol="78"/>
          <note pan="0" pos="3936" key="59" len="24" vol="78"/>
          <note pan="0" pos="3960" key="71" len="24" vol="78"/>
          <note pan="0" pos="3960" key="59" len="24" vol="78"/>
          <note pan="0" pos="4032" key="73" len="336" vol="78"/>
          <note pan="0" pos="4032" key="61" len="336" vol="78"/>
          <note pan="0" pos="4368" key="64" len="48" vol="78"/>
          <note pan="0" pos="4368" key="52" len="48" vol="78"/>
          <note pan="0" pos="4416" key="63" len="288" vol="78"/>
          <note pan="0" pos="4416" key="51" len="288" vol="78"/>
          <note pan="0" pos="4704" key="56" len="48" vol="78"/>
          <note pan="0" pos="4704" key="44" len="48" vol="78"/>
          <note pan="0" pos="4752" key="59" len="48" vol="78"/>
          <note pan="0" pos="4752" key="47" len="48" vol="78"/>
          <note pan="0" pos="4800" key="61" len="240" vol="78"/>
          <note pan="0" pos="4800" key="49" len="240" vol="78"/>
          <note pan="0" pos="5040" key="59" len="48" vol="78"/>
          <note pan="0" pos="5040" key="47" len="48" vol="78"/>
          <note pan="0" pos="5088" key="61" len="48" vol="78"/>
          <note pan="0" pos="5088" key="49" len="48" vol="78"/>
          <note pan="0" pos="5136" key="68" len="48" vol="78"/>
          <note pan="0" pos="5136" key="56" len="48" vol="78"/>
          <note pan="0" pos="5184" key="66" len="192" vol="78"/>
          <note pan="0" pos="5184" key="54" len="192" vol="78"/>
          <note pan="0" pos="5376" key="69" len="48" vol="78"/>
          <note pan="0" pos="5376" key="57" len="48" vol="78"/>
          <note pan="0" pos="5424" key="68" len="24" vol="78"/>
          <note pan="0" pos="5424" key="56" len="24" vol="78"/>
          <note pan="0" pos="5448" key="68" len="12" vol="78"/>
          <note pan="0" pos="5448" key="56" len="12" vol="78"/>
          <note pan="0" pos="5456" key="69" len="12" vol="78"/>
          <note pan="0" pos="5456" key="57" len="12" vol="78"/>
          <note pan="0" pos="5464" key="68" len="12" vol="78"/>
          <note pan="0" pos="5464" key="56" len="12" vol="78"/>
          <note pan="0" pos="5472" key="66" len="48" vol="78"/>
          <note pan="0" pos="5472" key="54" len="48" vol="78"/>
          <note pan="0" pos="5520" key="68" len="48" vol="78"/>
          <note pan="0" pos="5520" key="56" len="48" vol="78"/>
          <note pan="0" pos="5568" key="64" len="240" vol="78"/>
          <note pan="0" pos="5568" key="52" len="240" vol="78"/>
          <note pan="0" pos="5808" key="61" len="48" vol="78"/>
          <note pan="0" pos="5808" key="49" len="48" vol="78"/>
          <note pan="0" pos="5856" key="64" len="48" vol="78"/>
          <note pan="0" pos="5856" key="52" len="48" vol="78"/>
          <note pan="0" pos="5904" key="68" len="48" vol="78"/>
          <note pan="0" pos="5904" key="56" len="48" vol="78"/>
          <note pan="0" pos="5952" key="68" len="192" vol="78"/>
          <note pan="0" pos="5952" key="56" len="192" vol="78"/>
          <note pan="0" pos="6144" key="66" len="144" vol="78"/>
          <note pan="0" pos="6144" key="54" len="144" vol="78"/>
          <note pan="0" pos="6288" key="68" len="48" vol="78"/>
          <note pan="0" pos="6288" key="56" len="48" vol="78"/>
          <note pan="0" pos="6336" key="61" len="240" vol="78"/>
          <note pan="0" pos="6336" key="49" len="240" vol="78"/>
          <note pan="0" pos="6576" key="56" len="48" vol="78"/>
          <note pan="0" pos="6576" key="44" len="48" vol="78"/>
          <note pan="0" pos="6624" key="61" len="48" vol="78"/>
          <note pan="0" pos="6624" key="49" len="48" vol="78"/>
          <note pan="0" pos="6672" key="68" len="48" vol="78"/>
          <note pan="0" pos="6672" key="56" len="48" vol="78"/>
          <note pan="0" pos="6720" key="73" len="192" vol="78"/>
          <note pan="0" pos="6720" key="61" len="192" vol="78"/>
          <note pan="0" pos="6912" key="72" len="192" vol="78"/>
          <note pan="0" pos="6912" key="60" len="192" vol="78"/>
        </pattern>
      </track>
      <track type="0" muted="1" name="Orchestra Soundfont 2 COMBO" solo="0">
        <instrumenttrack pan="0" pitch="0" basenote="57" usemasterpitch="1" vol="188.8" fxch="0" pitchrange="2">
          <instrument name="sf2player">
            <sf2player chorusLevel="2" reverbRoomSize="0.2" reverbLevel="0.9" chorusDepth="8" reverbDamping="0" patch="0" chorusOn="0" chorusSpeed="0.3" gain="1" chorusNum="3" bank="0" reverbWidth="0.5" reverbOn="0" src="/home/huggypie/samples/soundfonts/Orchestra Soundfont 2 COMBO.sf2"/>
          </instrument>
          <eldata fres="0.5" fcut="14000" fwet="0" ftype="0">
            <elvol lspd_numerator="4" userwavefile="" lshp="0" x100="0" amt="0" lspd_syncmode="0" ctlenvamt="0" dec="0.5" hold="0.5" lspd_denominator="4" sustain="0.5" lamt="0" lspd="0.1" pdel="0" att="0" lpdel="0" latt="0" rel="0.1"/>
            <elcut lspd_numerator="4" userwavefile="" lshp="0" x100="0" amt="0" lspd_syncmode="0" ctlenvamt="0" dec="0.5" hold="0.5" lspd_denominator="4" sustain="0.5" lamt="0" lspd="0.1" pdel="0" att="0" lpdel="0" latt="0" rel="0.1"/>
            <elres lspd_numerator="4" userwavefile="" lshp="0" x100="0" amt="0" lspd_syncmode="0" ctlenvamt="0" dec="0.5" hold="0.5" lspd_denominator="4" sustain="0.5" lamt="0" lspd="0.1" pdel="0" att="0" lpdel="0" latt="0" rel="0.1"/>
          </eldata>
          <chordcreator chordrange="1" chord="0" chord-enabled="0"/>
          <arpeggiator arpskip="0" arpmiss="0" arp-enabled="0" arpgate="100" arpdir="0" arpcycle="0" arprange="1" arptime_numerator="4" arptime_denominator="4" arptime_syncmode="0" arptime="200" arp="0" arpmode="0"/>
          <midiport outputcontroller="0" inputchannel="0" outputchannel="1" fixedoutputvelocity="-1" readable="0" inputcontroller="0" basevelocity="63" fixedoutputnote="-1" fixedinputvelocity="-1" outputprogram="1" writable="0"/>
          <fxchain enabled="0" numofeffects="0"/>
        </instrumenttrack>
        <pattern type="1" pos="5376" muted="0" name="Orchestra Soundfont 2 COMBO" steps="16">
          <note pan="0" pos="0" key="44" len="24" vol="78"/>
          <note pan="0" pos="24" key="47" len="24" vol="78"/>
          <note pan="0" pos="48" key="44" len="24" vol="78"/>
          <note pan="0" pos="72" key="51" len="48" vol="78"/>
          <note pan="0" pos="120" key="44" len="24" vol="78"/>
          <note pan="0" pos="144" key="47" len="24" vol="78"/>
          <note pan="0" pos="168" key="51" len="24" vol="78"/>
          <note pan="0" pos="192" key="52" len="24" vol="78"/>
          <note pan="0" pos="216" key="51" len="24" vol="78"/>
          <note pan="0" pos="240" key="49" len="24" vol="78"/>
          <note pan="0" pos="264" key="47" len="24" vol="78"/>
          <note pan="0" pos="288" key="51" len="24" vol="78"/>
          <note pan="0" pos="312" key="49" len="24" vol="78"/>
          <note pan="0" pos="336" key="47" len="24" vol="78"/>
          <note pan="0" pos="360" key="44" len="24" vol="78"/>
          <note pan="0" pos="384" key="49" len="96" vol="78"/>
        </pattern>
        <pattern type="1" pos="6144" muted="0" name="Orchestra Soundfont 2 COMBO" steps="16">
          <note pan="0" pos="0" key="47" len="24" vol="78"/>
          <note pan="0" pos="24" key="52" len="24" vol="78"/>
          <note pan="0" pos="48" key="56" len="24" vol="78"/>
          <note pan="0" pos="72" key="59" len="48" vol="78"/>
          <note pan="0" pos="120" key="56" len="24" vol="78"/>
          <note pan="0" pos="144" key="59" len="24" vol="78"/>
          <note pan="0" pos="168" key="63" len="24" vol="78"/>
          <note pan="0" pos="192" key="61" len="24" vol="78"/>
          <note pan="0" pos="216" key="56" len="24" vol="78"/>
          <note pan="0" pos="240" key="52" len="24" vol="78"/>
          <note pan="0" pos="264" key="49" len="24" vol="78"/>
          <note pan="0" pos="288" key="54" len="24" vol="78"/>
          <note pan="0" pos="312" key="52" len="24" vol="78"/>
          <note pan="0" pos="336" key="56" len="24" vol="78"/>
          <note pan="0" pos="360" key="52" len="24" vol="78"/>
          <note pan="0" pos="384" key="57" len="120" vol="78"/>
          <note pan="0" pos="504" key="56" len="24" vol="78"/>
          <note pan="0" pos="528" key="57" len="24" vol="78"/>
          <note pan="0" pos="552" key="59" len="24" vol="78"/>
          <note pan="0" pos="576" key="61" len="72" vol="78"/>
          <note pan="0" pos="648" key="59" len="72" vol="78"/>
          <note pan="0" pos="720" key="57" len="48" vol="78"/>
          <note pan="0" pos="768" key="56" len="24" vol="78"/>
          <note pan="0" pos="792" key="57" len="24" vol="78"/>
          <note pan="0" pos="816" key="56" len="24" vol="78"/>
          <note pan="0" pos="840" key="52" len="48" vol="78"/>
          <note pan="0" pos="888" key="52" len="24" vol="78"/>
          <note pan="0" pos="912" key="54" len="24" vol="78"/>
          <note pan="0" pos="936" key="56" len="24" vol="78"/>
          <note pan="0" pos="960" key="54" len="96" vol="78"/>
          <note pan="0" pos="1056" key="51" len="48" vol="78"/>
          <note pan="0" pos="1104" key="56" len="48" vol="78"/>
          <note pan="0" pos="1152" key="44" len="24" vol="78"/>
          <note pan="0" pos="1176" key="42" len="24" vol="78"/>
          <note pan="0" pos="1200" key="44" len="24" vol="78"/>
          <note pan="0" pos="1224" key="49" len="24" vol="78"/>
          <note pan="0" pos="1248" key="52" len="48" vol="78"/>
          <note pan="0" pos="1296" key="51" len="24" vol="78"/>
          <note pan="0" pos="1320" key="49" len="24" vol="78"/>
          <note pan="0" pos="1344" key="56" len="24" vol="78"/>
          <note pan="0" pos="1368" key="54" len="24" vol="78"/>
          <note pan="0" pos="1392" key="52" len="24" vol="78"/>
          <note pan="0" pos="1416" key="51" len="24" vol="78"/>
          <note pan="0" pos="1440" key="49" len="24" vol="78"/>
          <note pan="0" pos="1464" key="51" len="24" vol="78"/>
          <note pan="0" pos="1488" key="52" len="24" vol="78"/>
          <note pan="0" pos="1512" key="56" len="24" vol="78"/>
          <note pan="0" pos="1536" key="58" len="48" vol="78"/>
          <note pan="0" pos="1584" key="54" len="48" vol="78"/>
          <note pan="0" pos="1632" key="51" len="48" vol="78"/>
          <note pan="0" pos="1680" key="46" len="48" vol="78"/>
          <note pan="0" pos="1728" key="45" len="24" vol="78"/>
          <note pan="0" pos="1752" key="49" len="24" vol="78"/>
          <note pan="0" pos="1776" key="51" len="24" vol="78"/>
          <note pan="0" pos="1800" key="54" len="24" vol="78"/>
          <note pan="0" pos="1824" key="57" len="24" vol="78"/>
          <note pan="0" pos="1848" key="61" len="24" vol="78"/>
          <note pan="0" pos="1872" key="63" len="24" vol="78"/>
          <note pan="0" pos="1896" key="66" len="24" vol="78"/>
        </pattern>
        <pattern type="1" pos="12672" muted="0" name="Orchestra Soundfont 2 COMBO" steps="16">
          <note pan="0" pos="0" key="49" len="24" vol="78"/>
          <note pan="0" pos="24" key="56" len="12" vol="78"/>
          <note pan="0" pos="48" key="49" len="24" vol="78"/>
          <note pan="0" pos="72" key="56" len="12" vol="78"/>
          <note pan="0" pos="120" key="56" len="12" vol="78"/>
          <note pan="0" pos="144" key="49" len="24" vol="78"/>
          <note pan="0" pos="168" key="56" len="12" vol="78"/>
          <note pan="0" pos="192" key="56" len="12" vol="78"/>
          <note pan="0" pos="216" key="61" len="24" vol="78"/>
          <note pan="0" pos="240" key="56" len="12" vol="78"/>
          <note pan="0" pos="264" key="56" len="12" vol="78"/>
          <note pan="0" pos="288" key="49" len="24" vol="78"/>
          <note pan="0" pos="312" key="52" len="24" vol="78"/>
          <note pan="0" pos="336" key="56" len="24" vol="78"/>
          <note pan="0" pos="360" key="61" len="24" vol="78"/>
          <note pan="0" pos="384" key="44" len="24" vol="78"/>
          <note pan="0" pos="408" key="47" len="24" vol="78"/>
          <note pan="0" pos="432" key="44" len="24" vol="78"/>
          <note pan="0" pos="456" key="51" len="48" vol="78"/>
          <note pan="0" pos="504" key="44" len="24" vol="78"/>
          <note pan="0" pos="528" key="47" len="24" vol="78"/>
          <note pan="0" pos="552" key="51" len="24" vol="78"/>
          <note pan="0" pos="576" key="52" len="24" vol="78"/>
          <note pan="0" pos="600" key="51" len="24" vol="78"/>
          <note pan="0" pos="624" key="49" len="24" vol="78"/>
          <note pan="0" pos="648" key="47" len="24" vol="78"/>
          <note pan="0" pos="672" key="51" len="24" vol="78"/>
          <note pan="0" pos="696" key="49" len="24" vol="78"/>
          <note pan="0" pos="720" key="47" len="24" vol="78"/>
          <note pan="0" pos="744" key="44" len="24" vol="78"/>
          <note pan="0" pos="768" key="49" len="24" vol="78"/>
          <note pan="0" pos="792" key="56" len="12" vol="78"/>
          <note pan="0" pos="816" key="56" len="12" vol="78"/>
          <note pan="0" pos="840" key="61" len="24" vol="78"/>
          <note pan="0" pos="864" key="56" len="12" vol="78"/>
          <note pan="0" pos="888" key="56" len="12" vol="78"/>
          <note pan="0" pos="912" key="49" len="24" vol="78"/>
          <note pan="0" pos="936" key="56" len="12" vol="78"/>
          <note pan="0" pos="960" key="56" len="12" vol="78"/>
          <note pan="0" pos="984" key="61" len="24" vol="78"/>
          <note pan="0" pos="1008" key="56" len="12" vol="78"/>
          <note pan="0" pos="1032" key="57" len="24" vol="78"/>
          <note pan="0" pos="1056" key="49" len="24" vol="78"/>
          <note pan="0" pos="1080" key="52" len="24" vol="78"/>
          <note pan="0" pos="1104" key="56" len="24" vol="78"/>
          <note pan="0" pos="1128" key="61" len="24" vol="78"/>
          <note pan="0" pos="1152" key="47" len="24" vol="78"/>
          <note pan="0" pos="1176" key="52" len="24" vol="78"/>
          <note pan="0" pos="1200" key="56" len="24" vol="78"/>
          <note pan="0" pos="1224" key="59" len="48" vol="78"/>
          <note pan="0" pos="1272" key="56" len="24" vol="78"/>
          <note pan="0" pos="1296" key="59" len="24" vol="78"/>
          <note pan="0" pos="1320" key="63" len="24" vol="78"/>
          <note pan="0" pos="1344" key="61" len="24" vol="78"/>
          <note pan="0" pos="1368" key="56" len="24" vol="78"/>
          <note pan="0" pos="1392" key="52" len="24" vol="78"/>
          <note pan="0" pos="1416" key="49" len="24" vol="78"/>
          <note pan="0" pos="1440" key="54" len="24" vol="78"/>
          <note pan="0" pos="1464" key="52" len="24" vol="78"/>
          <note pan="0" pos="1488" key="56" len="24" vol="78"/>
          <note pan="0" pos="1512" key="52" len="24" vol="78"/>
          <note pan="0" pos="1536" key="57" len="96" vol="78"/>
          <note pan="0" pos="1632" key="57" len="24" vol="78"/>
          <note pan="0" pos="1656" key="56" len="24" vol="78"/>
          <note pan="0" pos="1680" key="57" len="24" vol="78"/>
          <note pan="0" pos="1704" key="59" len="24" vol="78"/>
          <note pan="0" pos="1728" key="61" len="72" vol="78"/>
          <note pan="0" pos="1800" key="59" len="72" vol="78"/>
          <note pan="0" pos="1872" key="57" len="48" vol="78"/>
          <note pan="0" pos="1920" key="56" len="24" vol="78"/>
          <note pan="0" pos="1944" key="57" len="24" vol="78"/>
          <note pan="0" pos="1968" key="56" len="24" vol="78"/>
          <note pan="0" pos="1992" key="52" len="48" vol="78"/>
          <note pan="0" pos="2040" key="52" len="24" vol="78"/>
          <note pan="0" pos="2064" key="54" len="24" vol="78"/>
          <note pan="0" pos="2088" key="56" len="24" vol="78"/>
          <note pan="0" pos="2112" key="54" len="96" vol="78"/>
          <note pan="0" pos="2208" key="51" len="48" vol="78"/>
          <note pan="0" pos="2256" key="56" len="48" vol="78"/>
          <note pan="0" pos="2304" key="44" len="24" vol="78"/>
          <note pan="0" pos="2328" key="42" len="24" vol="78"/>
          <note pan="0" pos="2352" key="44" len="24" vol="78"/>
          <note pan="0" pos="2376" key="49" len="24" vol="78"/>
          <note pan="0" pos="2400" key="52" len="48" vol="78"/>
          <note pan="0" pos="2448" key="51" len="24" vol="78"/>
          <note pan="0" pos="2472" key="49" len="24" vol="78"/>
          <note pan="0" pos="2496" key="56" len="24" vol="78"/>
          <note pan="0" pos="2520" key="54" len="24" vol="78"/>
          <note pan="0" pos="2544" key="52" len="24" vol="78"/>
          <note pan="0" pos="2568" key="51" len="24" vol="78"/>
          <note pan="0" pos="2592" key="49" len="24" vol="78"/>
          <note pan="0" pos="2616" key="51" len="24" vol="78"/>
          <note pan="0" pos="2640" key="52" len="24" vol="78"/>
          <note pan="0" pos="2664" key="56" len="24" vol="78"/>
          <note pan="0" pos="2688" key="58" len="48" vol="78"/>
          <note pan="0" pos="2736" key="54" len="48" vol="78"/>
          <note pan="0" pos="2784" key="51" len="48" vol="78"/>
          <note pan="0" pos="2832" key="46" len="48" vol="78"/>
          <note pan="0" pos="2880" key="45" len="24" vol="78"/>
          <note pan="0" pos="2904" key="49" len="24" vol="78"/>
          <note pan="0" pos="2928" key="51" len="24" vol="78"/>
          <note pan="0" pos="2952" key="54" len="24" vol="78"/>
          <note pan="0" pos="2976" key="57" len="24" vol="78"/>
          <note pan="0" pos="3000" key="61" len="24" vol="78"/>
          <note pan="0" pos="3024" key="63" len="24" vol="78"/>
          <note pan="0" pos="3048" key="66" len="24" vol="78"/>
          <note pan="0" pos="3072" key="49" len="144" vol="78"/>
          <note pan="0" pos="3216" key="45" len="48" vol="78"/>
          <note pan="0" pos="3264" key="47" len="96" vol="78"/>
          <note pan="0" pos="3360" key="51" len="96" vol="78"/>
          <note pan="0" pos="3456" key="49" len="48" vol="78"/>
          <note pan="0" pos="3504" key="44" len="48" vol="78"/>
          <note pan="0" pos="3552" key="40" len="48" vol="78"/>
          <note pan="0" pos="3600" key="44" len="48" vol="78"/>
          <note pan="0" pos="3648" key="42" len="48" vol="78"/>
          <note pan="0" pos="3696" key="51" len="48" vol="78"/>
          <note pan="0" pos="3744" key="51" len="24" vol="78"/>
          <note pan="0" pos="3768" key="52" len="24" vol="78"/>
          <note pan="0" pos="3792" key="54" len="24" vol="78"/>
          <note pan="0" pos="3816" key="51" len="24" vol="78"/>
          <note pan="0" pos="3840" key="52" len="96" vol="78"/>
          <note pan="0" pos="3936" key="51" len="48" vol="78"/>
          <note pan="0" pos="3984" key="47" len="48" vol="78"/>
          <note pan="0" pos="4032" key="49" len="48" vol="78"/>
          <note pan="0" pos="4080" key="52" len="48" vol="78"/>
          <note pan="0" pos="4128" key="54" len="48" vol="78"/>
          <note pan="0" pos="4176" key="49" len="48" vol="78"/>
          <note pan="0" pos="4224" key="54" len="48" vol="78"/>
          <note pan="0" pos="4272" key="52" len="48" vol="78"/>
          <note pan="0" pos="4320" key="51" len="48" vol="78"/>
          <note pan="0" pos="4368" key="54" len="48" vol="78"/>
          <note pan="0" pos="4416" key="52" len="24" vol="78"/>
          <note pan="0" pos="4440" key="54" len="24" vol="78"/>
          <note pan="0" pos="4464" key="52" len="24" vol="78"/>
          <note pan="0" pos="4488" key="51" len="24" vol="78"/>
          <note pan="0" pos="4512" key="49" len="24" vol="78"/>
          <note pan="0" pos="4536" key="44" len="24" vol="78"/>
          <note pan="0" pos="4560" key="45" len="24" vol="78"/>
          <note pan="0" pos="4584" key="48" len="24" vol="78"/>
          <note pan="0" pos="4608" key="51" len="48" vol="78"/>
          <note pan="0" pos="4656" key="52" len="48" vol="78"/>
          <note pan="0" pos="4704" key="54" len="48" vol="78"/>
          <note pan="0" pos="4752" key="56" len="48" vol="78"/>
          <note pan="0" pos="4800" key="59" len="48" vol="78"/>
          <note pan="0" pos="4848" key="56" len="48" vol="78"/>
          <note pan="0" pos="4896" key="51" len="48" vol="78"/>
          <note pan="0" pos="4944" key="56" len="48" vol="78"/>
          <note pan="0" pos="4992" key="59" len="48" vol="78"/>
          <note pan="0" pos="5040" key="56" len="48" vol="78"/>
          <note pan="0" pos="5088" key="52" len="48" vol="78"/>
          <note pan="0" pos="5136" key="49" len="48" vol="78"/>
          <note pan="0" pos="5184" key="45" len="24" vol="78"/>
          <note pan="0" pos="5208" key="44" len="24" vol="78"/>
          <note pan="0" pos="5232" key="45" len="24" vol="78"/>
          <note pan="0" pos="5256" key="47" len="24" vol="78"/>
          <note pan="0" pos="5280" key="49" len="24" vol="78"/>
          <note pan="0" pos="5304" key="52" len="24" vol="78"/>
          <note pan="0" pos="5328" key="54" len="24" vol="78"/>
          <note pan="0" pos="5352" key="56" len="24" vol="78"/>
          <note pan="0" pos="5376" key="54" len="72" vol="78"/>
          <note pan="0" pos="5448" key="59" len="24" vol="78"/>
          <note pan="0" pos="5472" key="56" len="48" vol="78"/>
          <note pan="0" pos="5520" key="52" len="24" vol="78"/>
          <note pan="0" pos="5544" key="54" len="24" vol="78"/>
          <note pan="0" pos="5568" key="57" len="48" vol="78"/>
          <note pan="0" pos="5616" key="56" len="48" vol="78"/>
          <note pan="0" pos="5664" key="52" len="48" vol="78"/>
          <note pan="0" pos="5712" key="56" len="48" vol="78"/>
          <note pan="0" pos="5760" key="54" len="192" vol="78"/>
          <note pan="0" pos="5952" key="51" len="24" vol="78"/>
          <note pan="0" pos="5976" key="51" len="24" vol="78"/>
          <note pan="0" pos="6048" key="47" len="24" vol="78"/>
          <note pan="0" pos="6072" key="47" len="24" vol="78"/>
          <note pan="0" pos="6144" key="49" len="336" vol="78"/>
          <note pan="0" pos="6480" key="52" len="48" vol="78"/>
          <note pan="0" pos="6528" key="51" len="288" vol="78"/>
          <note pan="0" pos="6816" key="44" len="48" vol="78"/>
          <note pan="0" pos="6864" key="47" len="48" vol="78"/>
          <note pan="0" pos="6912" key="49" len="240" vol="78"/>
          <note pan="0" pos="7152" key="47" len="48" vol="78"/>
          <note pan="0" pos="7200" key="49" len="48" vol="78"/>
          <note pan="0" pos="7248" key="56" len="48" vol="78"/>
          <note pan="0" pos="7296" key="54" len="192" vol="78"/>
          <note pan="0" pos="7488" key="57" len="48" vol="78"/>
          <note pan="0" pos="7536" key="56" len="24" vol="78"/>
          <note pan="0" pos="7560" key="56" len="12" vol="78"/>
          <note pan="0" pos="7568" key="57" len="12" vol="78"/>
          <note pan="0" pos="7576" key="56" len="12" vol="78"/>
          <note pan="0" pos="7584" key="54" len="48" vol="78"/>
          <note pan="0" pos="7632" key="56" len="48" vol="78"/>
          <note pan="0" pos="7680" key="52" len="240" vol="78"/>
          <note pan="0" pos="7920" key="49" len="48" vol="78"/>
          <note pan="0" pos="7968" key="52" len="48" vol="78"/>
          <note pan="0" pos="8016" key="56" len="48" vol="78"/>
          <note pan="0" pos="8064" key="56" len="192" vol="78"/>
          <note pan="0" pos="8256" key="54" len="144" vol="78"/>
          <note pan="0" pos="8400" key="56" len="48" vol="78"/>
          <note pan="0" pos="8448" key="49" len="240" vol="78"/>
          <note pan="0" pos="8688" key="44" len="48" vol="78"/>
          <note pan="0" pos="8736" key="49" len="48" vol="78"/>
          <note pan="0" pos="8784" key="56" len="48" vol="78"/>
          <note pan="0" pos="8832" key="61" len="192" vol="78"/>
          <note pan="0" pos="9024" key="60" len="192" vol="78"/>
        </pattern>
        <pattern type="1" pos="36864" muted="0" name="Orchestra Soundfont 2 COMBO" steps="16">
          <note pan="0" pos="0" key="44" len="24" vol="78"/>
          <note pan="0" pos="24" key="47" len="24" vol="78"/>
          <note pan="0" pos="48" key="44" len="24" vol="78"/>
          <note pan="0" pos="72" key="51" len="48" vol="78"/>
          <note pan="0" pos="120" key="44" len="24" vol="78"/>
          <note pan="0" pos="144" key="47" len="24" vol="78"/>
          <note pan="0" pos="168" key="51" len="24" vol="78"/>
          <note pan="0" pos="192" key="52" len="24" vol="78"/>
          <note pan="0" pos="216" key="51" len="24" vol="78"/>
          <note pan="0" pos="240" key="49" len="24" vol="78"/>
          <note pan="0" pos="264" key="47" len="24" vol="78"/>
          <note pan="0" pos="288" key="51" len="24" vol="78"/>
          <note pan="0" pos="312" key="49" len="24" vol="78"/>
          <note pan="0" pos="336" key="47" len="24" vol="78"/>
          <note pan="0" pos="360" key="44" len="24" vol="78"/>
          <note pan="0" pos="384" key="49" len="96" vol="78"/>
        </pattern>
        <pattern type="1" pos="37632" muted="0" name="Orchestra Soundfont 2 COMBO" steps="16">
          <note pan="0" pos="0" key="47" len="24" vol="78"/>
          <note pan="0" pos="24" key="52" len="24" vol="78"/>
          <note pan="0" pos="48" key="56" len="24" vol="78"/>
          <note pan="0" pos="72" key="59" len="48" vol="78"/>
          <note pan="0" pos="120" key="56" len="24" vol="78"/>
          <note pan="0" pos="144" key="59" len="24" vol="78"/>
          <note pan="0" pos="168" key="63" len="24" vol="78"/>
          <note pan="0" pos="192" key="61" len="24" vol="78"/>
          <note pan="0" pos="216" key="56" len="24" vol="78"/>
          <note pan="0" pos="240" key="52" len="24" vol="78"/>
          <note pan="0" pos="264" key="49" len="24" vol="78"/>
          <note pan="0" pos="288" key="54" len="24" vol="78"/>
          <note pan="0" pos="312" key="52" len="24" vol="78"/>
          <note pan="0" pos="336" key="56" len="24" vol="78"/>
          <note pan="0" pos="360" key="52" len="24" vol="78"/>
          <note pan="0" pos="384" key="57" len="120" vol="78"/>
          <note pan="0" pos="504" key="56" len="24" vol="78"/>
          <note pan="0" pos="528" key="57" len="24" vol="78"/>
          <note pan="0" pos="552" key="59" len="24" vol="78"/>
          <note pan="0" pos="576" key="61" len="72" vol="78"/>
          <note pan="0" pos="648" key="59" len="72" vol="78"/>
          <note pan="0" pos="720" key="57" len="48" vol="78"/>
          <note pan="0" pos="768" key="56" len="24" vol="78"/>
          <note pan="0" pos="792" key="57" len="24" vol="78"/>
          <note pan="0" pos="816" key="56" len="24" vol="78"/>
          <note pan="0" pos="840" key="52" len="48" vol="78"/>
          <note pan="0" pos="888" key="52" len="24" vol="78"/>
          <note pan="0" pos="912" key="54" len="24" vol="78"/>
          <note pan="0" pos="936" key="56" len="24" vol="78"/>
          <note pan="0" pos="960" key="54" len="96" vol="78"/>
          <note pan="0" pos="1056" key="51" len="48" vol="78"/>
          <note pan="0" pos="1104" key="56" len="48" vol="78"/>
          <note pan="0" pos="1152" key="44" len="24" vol="78"/>
          <note pan="0" pos="1176" key="42" len="24" vol="78"/>
          <note pan="0" pos="1200" key="44" len="24" vol="78"/>
          <note pan="0" pos="1224" key="49" len="24" vol="78"/>
          <note pan="0" pos="1248" key="52" len="48" vol="78"/>
          <note pan="0" pos="1296" key="51" len="24" vol="78"/>
          <note pan="0" pos="1320" key="49" len="24" vol="78"/>
          <note pan="0" pos="1344" key="56" len="24" vol="78"/>
          <note pan="0" pos="1368" key="54" len="24" vol="78"/>
          <note pan="0" pos="1392" key="52" len="24" vol="78"/>
          <note pan="0" pos="1416" key="51" len="24" vol="78"/>
          <note pan="0" pos="1440" key="49" len="24" vol="78"/>
          <note pan="0" pos="1464" key="51" len="24" vol="78"/>
          <note pan="0" pos="1488" key="52" len="24" vol="78"/>
          <note pan="0" pos="1512" key="56" len="24" vol="78"/>
          <note pan="0" pos="1536" key="58" len="48" vol="78"/>
          <note pan="0" pos="1584" key="54" len="48" vol="78"/>
          <note pan="0" pos="1632" key="51" len="48" vol="78"/>
          <note pan="0" pos="1680" key="46" len="48" vol="78"/>
          <note pan="0" pos="1728" key="45" len="24" vol="78"/>
          <note pan="0" pos="1752" key="49" len="24" vol="78"/>
          <note pan="0" pos="1776" key="51" len="24" vol="78"/>
          <note pan="0" pos="1800" key="54" len="24" vol="78"/>
          <note pan="0" pos="1824" key="57" len="24" vol="78"/>
          <note pan="0" pos="1848" key="61" len="24" vol="78"/>
          <note pan="0" pos="1872" key="63" len="24" vol="78"/>
          <note pan="0" pos="1896" key="66" len="24" vol="78"/>
        </pattern>
        <pattern type="1" pos="44160" muted="0" name="Orchestra Soundfont 2 COMBO" steps="16">
          <note pan="0" pos="0" key="49" len="24" vol="78"/>
          <note pan="0" pos="24" key="56" len="12" vol="78"/>
          <note pan="0" pos="48" key="49" len="24" vol="78"/>
          <note pan="0" pos="72" key="56" len="12" vol="78"/>
          <note pan="0" pos="120" key="56" len="12" vol="78"/>
          <note pan="0" pos="144" key="49" len="24" vol="78"/>
          <note pan="0" pos="168" key="56" len="12" vol="78"/>
          <note pan="0" pos="192" key="56" len="12" vol="78"/>
          <note pan="0" pos="216" key="61" len="24" vol="78"/>
          <note pan="0" pos="240" key="56" len="12" vol="78"/>
          <note pan="0" pos="264" key="56" len="12" vol="78"/>
          <note pan="0" pos="288" key="49" len="24" vol="78"/>
          <note pan="0" pos="312" key="52" len="24" vol="78"/>
          <note pan="0" pos="336" key="56" len="24" vol="78"/>
          <note pan="0" pos="360" key="61" len="24" vol="78"/>
          <note pan="0" pos="384" key="44" len="24" vol="78"/>
          <note pan="0" pos="408" key="47" len="24" vol="78"/>
          <note pan="0" pos="432" key="44" len="24" vol="78"/>
          <note pan="0" pos="456" key="51" len="48" vol="78"/>
          <note pan="0" pos="504" key="44" len="24" vol="78"/>
          <note pan="0" pos="528" key="47" len="24" vol="78"/>
          <note pan="0" pos="552" key="51" len="24" vol="78"/>
          <note pan="0" pos="576" key="52" len="24" vol="78"/>
          <note pan="0" pos="600" key="51" len="24" vol="78"/>
          <note pan="0" pos="624" key="49" len="24" vol="78"/>
          <note pan="0" pos="648" key="47" len="24" vol="78"/>
          <note pan="0" pos="672" key="51" len="24" vol="78"/>
          <note pan="0" pos="696" key="49" len="24" vol="78"/>
          <note pan="0" pos="720" key="47" len="24" vol="78"/>
          <note pan="0" pos="744" key="44" len="24" vol="78"/>
          <note pan="0" pos="768" key="49" len="24" vol="78"/>
          <note pan="0" pos="792" key="56" len="12" vol="78"/>
          <note pan="0" pos="816" key="56" len="12" vol="78"/>
          <note pan="0" pos="840" key="61" len="24" vol="78"/>
          <note pan="0" pos="864" key="56" len="12" vol="78"/>
          <note pan="0" pos="888" key="56" len="12" vol="78"/>
          <note pan="0" pos="912" key="49" len="24" vol="78"/>
          <note pan="0" pos="936" key="56" len="12" vol="78"/>
          <note pan="0" pos="960" key="56" len="12" vol="78"/>
          <note pan="0" pos="984" key="61" len="24" vol="78"/>
          <note pan="0" pos="1008" key="56" len="12" vol="78"/>
          <note pan="0" pos="1032" key="57" len="24" vol="78"/>
          <note pan="0" pos="1056" key="49" len="24" vol="78"/>
          <note pan="0" pos="1080" key="52" len="24" vol="78"/>
          <note pan="0" pos="1104" key="56" len="24" vol="78"/>
          <note pan="0" pos="1128" key="61" len="24" vol="78"/>
          <note pan="0" pos="1152" key="47" len="24" vol="78"/>
          <note pan="0" pos="1176" key="52" len="24" vol="78"/>
          <note pan="0" pos="1200" key="56" len="24" vol="78"/>
          <note pan="0" pos="1224" key="59" len="48" vol="78"/>
          <note pan="0" pos="1272" key="56" len="24" vol="78"/>
          <note pan="0" pos="1296" key="59" len="24" vol="78"/>
          <note pan="0" pos="1320" key="63" len="24" vol="78"/>
          <note pan="0" pos="1344" key="61" len="24" vol="78"/>
          <note pan="0" pos="1368" key="56" len="24" vol="78"/>
          <note pan="0" pos="1392" key="52" len="24" vol="78"/>
          <note pan="0" pos="1416" key="49" len="24" vol="78"/>
          <note pan="0" pos="1440" key="54" len="24" vol="78"/>
          <note pan="0" pos="1464" key="52" len="24" vol="78"/>
          <note pan="0" pos="1488" key="56" len="24" vol="78"/>
          <note pan="0" pos="1512" key="52" len="24" vol="78"/>
          <note pan="0" pos="1536" key="57" len="96" vol="78"/>
          <note pan="0" pos="1632" key="57" len="24" vol="78"/>
          <note pan="0" pos="1656" key="56" len="24" vol="78"/>
          <note pan="0" pos="1680" key="57" len="24" vol="78"/>
          <note pan="0" pos="1704" key="59" len="24" vol="78"/>
          <note pan="0" pos="1728" key="61" len="72" vol="78"/>
          <note pan="0" pos="1800" key="59" len="72" vol="78"/>
          <note pan="0" pos="1872" key="57" len="48" vol="78"/>
          <note pan="0" pos="1920" key="56" len="24" vol="78"/>
          <note pan="0" pos="1944" key="57" len="24" vol="78"/>
          <note pan="0" pos="1968" key="56" len="24" vol="78"/>
          <note pan="0" pos="1992" key="52" len="48" vol="78"/>
          <note pan="0" pos="2040" key="52" len="24" vol="78"/>
          <note pan="0" pos="2064" key="54" len="24" vol="78"/>
          <note pan="0" pos="2088" key="56" len="24" vol="78"/>
          <note pan="0" pos="2112" key="54" len="96" vol="78"/>
          <note pan="0" pos="2208" key="51" len="48" vol="78"/>
          <note pan="0" pos="2256" key="56" len="48" vol="78"/>
          <note pan="0" pos="2304" key="44" len="24" vol="78"/>
          <note pan="0" pos="2328" key="42" len="24" vol="78"/>
          <note pan="0" pos="2352" key="44" len="24" vol="78"/>
          <note pan="0" pos="2376" key="49" len="24" vol="78"/>
          <note pan="0" pos="2400" key="52" len="48" vol="78"/>
          <note pan="0" pos="2448" key="51" len="24" vol="78"/>
          <note pan="0" pos="2472" key="49" len="24" vol="78"/>
          <note pan="0" pos="2496" key="56" len="24" vol="78"/>
          <note pan="0" pos="2520" key="54" len="24" vol="78"/>
          <note pan="0" pos="2544" key="52" len="24" vol="78"/>
          <note pan="0" pos="2568" key="51" len="24" vol="78"/>
          <note pan="0" pos="2592" key="49" len="24" vol="78"/>
          <note pan="0" pos="2616" key="51" len="24" vol="78"/>
          <note pan="0" pos="2640" key="52" len="24" vol="78"/>
          <note pan="0" pos="2664" key="56" len="24" vol="78"/>
          <note pan="0" pos="2688" key="58" len="48" vol="78"/>
          <note pan="0" pos="2736" key="54" len="48" vol="78"/>
          <note pan="0" pos="2784" key="51" len="48" vol="78"/>
          <note pan="0" pos="2832" key="46" len="48" vol="78"/>
          <note pan="0" pos="2880" key="45" len="24" vol="78"/>
          <note pan="0" pos="2904" key="49" len="24" vol="78"/>
          <note pan="0" pos="2928" key="51" len="24" vol="78"/>
          <note pan="0" pos="2952" key="54" len="24" vol="78"/>
          <note pan="0" pos="2976" key="57" len="24" vol="78"/>
          <note pan="0" pos="3000" key="61" len="24" vol="78"/>
          <note pan="0" pos="3024" key="63" len="24" vol="78"/>
          <note pan="0" pos="3048" key="66" len="24" vol="78"/>
          <note pan="0" pos="3072" key="49" len="144" vol="78"/>
          <note pan="0" pos="3216" key="45" len="48" vol="78"/>
          <note pan="0" pos="3264" key="47" len="96" vol="78"/>
          <note pan="0" pos="3360" key="51" len="96" vol="78"/>
          <note pan="0" pos="3456" key="49" len="48" vol="78"/>
          <note pan="0" pos="3504" key="44" len="48" vol="78"/>
          <note pan="0" pos="3552" key="40" len="48" vol="78"/>
          <note pan="0" pos="3600" key="44" len="48" vol="78"/>
          <note pan="0" pos="3648" key="42" len="48" vol="78"/>
          <note pan="0" pos="3696" key="51" len="48" vol="78"/>
          <note pan="0" pos="3744" key="51" len="24" vol="78"/>
          <note pan="0" pos="3768" key="52" len="24" vol="78"/>
          <note pan="0" pos="3792" key="54" len="24" vol="78"/>
          <note pan="0" pos="3816" key="51" len="24" vol="78"/>
          <note pan="0" pos="3840" key="52" len="96" vol="78"/>
          <note pan="0" pos="3936" key="51" len="48" vol="78"/>
          <note pan="0" pos="3984" key="47" len="48" vol="78"/>
          <note pan="0" pos="4032" key="49" len="48" vol="78"/>
          <note pan="0" pos="4080" key="52" len="48" vol="78"/>
          <note pan="0" pos="4128" key="54" len="48" vol="78"/>
          <note pan="0" pos="4176" key="49" len="48" vol="78"/>
          <note pan="0" pos="4224" key="54" len="48" vol="78"/>
          <note pan="0" pos="4272" key="52" len="48" vol="78"/>
          <note pan="0" pos="4320" key="51" len="48" vol="78"/>
          <note pan="0" pos="4368" key="54" len="48" vol="78"/>
          <note pan="0" pos="4416" key="52" len="24" vol="78"/>
          <note pan="0" pos="4440" key="54" len="24" vol="78"/>
          <note pan="0" pos="4464" key="52" len="24" vol="78"/>
          <note pan="0" pos="4488" key="51" len="24" vol="78"/>
          <note pan="0" pos="4512" key="49" len="24" vol="78"/>
          <note pan="0" pos="4536" key="44" len="24" vol="78"/>
          <note pan="0" pos="4560" key="45" len="24" vol="78"/>
          <note pan="0" pos="4584" key="48" len="24" vol="78"/>
          <note pan="0" pos="4608" key="51" len="48" vol="78"/>
          <note pan="0" pos="4656" key="52" len="48" vol="78"/>
          <note pan="0" pos="4704" key="54" len="48" vol="78"/>
          <note pan="0" pos="4752" key="56" len="48" vol="78"/>
          <note pan="0" pos="4800" key="59" len="48" vol="78"/>
          <note pan="0" pos="4848" key="56" len="48" vol="78"/>
          <note pan="0" pos="4896" key="51" len="48" vol="78"/>
          <note pan="0" pos="4944" key="56" len="48" vol="78"/>
          <note pan="0" pos="4992" key="59" len="48" vol="78"/>
          <note pan="0" pos="5040" key="56" len="48" vol="78"/>
          <note pan="0" pos="5088" key="52" len="48" vol="78"/>
          <note pan="0" pos="5136" key="49" len="48" vol="78"/>
          <note pan="0" pos="5184" key="45" len="24" vol="78"/>
          <note pan="0" pos="5208" key="44" len="24" vol="78"/>
          <note pan="0" pos="5232" key="45" len="24" vol="78"/>
          <note pan="0" pos="5256" key="47" len="24" vol="78"/>
          <note pan="0" pos="5280" key="49" len="24" vol="78"/>
          <note pan="0" pos="5304" key="52" len="24" vol="78"/>
          <note pan="0" pos="5328" key="54" len="24" vol="78"/>
          <note pan="0" pos="5352" key="56" len="24" vol="78"/>
          <note pan="0" pos="5376" key="54" len="72" vol="78"/>
          <note pan="0" pos="5448" key="59" len="24" vol="78"/>
          <note pan="0" pos="5472" key="56" len="48" vol="78"/>
          <note pan="0" pos="5520" key="52" len="24" vol="78"/>
          <note pan="0" pos="5544" key="54" len="24" vol="78"/>
          <note pan="0" pos="5568" key="57" len="48" vol="78"/>
          <note pan="0" pos="5616" key="56" len="48" vol="78"/>
          <note pan="0" pos="5664" key="52" len="48" vol="78"/>
          <note pan="0" pos="5712" key="56" len="48" vol="78"/>
          <note pan="0" pos="5760" key="54" len="192" vol="78"/>
          <note pan="0" pos="5952" key="51" len="24" vol="78"/>
          <note pan="0" pos="5976" key="51" len="24" vol="78"/>
          <note pan="0" pos="6048" key="47" len="24" vol="78"/>
          <note pan="0" pos="6072" key="47" len="24" vol="78"/>
          <note pan="0" pos="6144" key="49" len="336" vol="78"/>
          <note pan="0" pos="6480" key="52" len="48" vol="78"/>
          <note pan="0" pos="6528" key="51" len="288" vol="78"/>
          <note pan="0" pos="6816" key="44" len="48" vol="78"/>
          <note pan="0" pos="6864" key="47" len="48" vol="78"/>
          <note pan="0" pos="6912" key="49" len="240" vol="78"/>
          <note pan="0" pos="7152" key="47" len="48" vol="78"/>
          <note pan="0" pos="7200" key="49" len="48" vol="78"/>
          <note pan="0" pos="7248" key="56" len="48" vol="78"/>
          <note pan="0" pos="7296" key="54" len="192" vol="78"/>
          <note pan="0" pos="7488" key="57" len="48" vol="78"/>
          <note pan="0" pos="7536" key="56" len="24" vol="78"/>
          <note pan="0" pos="7560" key="56" len="12" vol="78"/>
          <note pan="0" pos="7568" key="57" len="12" vol="78"/>
          <note pan="0" pos="7576" key="56" len="12" vol="78"/>
          <note pan="0" pos="7584" key="54" len="48" vol="78"/>
          <note pan="0" pos="7632" key="56" len="48" vol="78"/>
          <note pan="0" pos="7680" key="52" len="240" vol="78"/>
          <note pan="0" pos="7920" key="49" len="48" vol="78"/>
          <note pan="0" pos="7968" key="52" len="48" vol="78"/>
          <note pan="0" pos="8016" key="56" len="48" vol="78"/>
          <note pan="0" pos="8064" key="56" len="192" vol="78"/>
          <note pan="0" pos="8256" key="54" len="144" vol="78"/>
          <note pan="0" pos="8400" key="56" len="48" vol="78"/>
          <note pan="0" pos="8448" key="49" len="240" vol="78"/>
          <note pan="0" pos="8688" key="44" len="48" vol="78"/>
          <note pan="0" pos="8736" key="49" len="48" vol="78"/>
          <note pan="0" pos="8784" key="56" len="48" vol="78"/>
          <note pan="0" pos="8832" key="61" len="192" vol="78"/>
          <note pan="0" pos="9024" key="60" len="192" vol="78"/>
        </pattern>
      </track>
      <track type="0" muted="1" name="Violin" solo="0">
        <instrumenttrack pan="0" pitch="0" basenote="57" usemasterpitch="1" vol="100" fxch="0" pitchrange="2">
          <instrument name="sf2player">
            <sf2player chorusLevel="2" reverbRoomSize="0.2" reverbLevel="0.9" chorusDepth="8" reverbDamping="0" patch="15" chorusOn="0" chorusSpeed="0.3" gain="1" chorusNum="3" bank="0" reverbWidth="0.5" reverbOn="0" src="/home/huggypie/samples/soundfonts/Mystery Dungeon.sf2"/>
          </instrument>
          <eldata fres="0.5" fcut="14000" fwet="0" ftype="0">
            <elvol lspd_numerator="4" userwavefile="" lshp="0" x100="0" amt="0" lspd_syncmode="0" ctlenvamt="0" dec="0.5" hold="0.5" lspd_denominator="4" sustain="0.5" lamt="0" lspd="0.1" pdel="0" att="0" lpdel="0" latt="0" rel="0.1"/>
            <elcut lspd_numerator="4" userwavefile="" lshp="0" x100="0" amt="0" lspd_syncmode="0" ctlenvamt="0" dec="0.5" hold="0.5" lspd_denominator="4" sustain="0.5" lamt="0" lspd="0.1" pdel="0" att="0" lpdel="0" latt="0" rel="0.1"/>
            <elres lspd_numerator="4" userwavefile="" lshp="0" x100="0" amt="0" lspd_syncmode="0" ctlenvamt="0" dec="0.5" hold="0.5" lspd_denominator="4" sustain="0.5" lamt="0" lspd="0.1" pdel="0" att="0" lpdel="0" latt="0" rel="0.1"/>
          </eldata>
          <chordcreator chordrange="1" chord="0" chord-enabled="0"/>
          <arpeggiator arpskip="0" arpmiss="0" arp-enabled="0" arpgate="100" arpdir="0" arpcycle="0" arprange="1" arptime_numerator="4" arptime_denominator="4" arptime_syncmode="0" arptime="200" arp="0" arpmode="0"/>
          <midiport outputcontroller="0" inputchannel="0" outputchannel="1" fixedoutputvelocity="-1" readable="0" inputcontroller="0" basevelocity="63" fixedoutputnote="-1" fixedinputvelocity="-1" outputprogram="1" writable="0"/>
          <fxchain enabled="0" numofeffects="0"/>
        </instrumenttrack>
        <pattern type="1" pos="0" muted="0" name="Violin" steps="16">
          <note pan="0" pos="0" key="61" len="384" vol="78"/>
          <note pan="0" pos="192" key="68" len="192" vol="78"/>
          <note pan="0" pos="384" key="64" len="384" vol="78"/>
          <note pan="0" pos="384" key="61" len="384" vol="78"/>
          <note pan="0" pos="384" key="52" len="384" vol="78"/>
          <note pan="0" pos="768" key="63" len="384" vol="78"/>
          <note pan="0" pos="768" key="59" len="384" vol="78"/>
          <note pan="0" pos="768" key="56" len="384" vol="78"/>
          <note pan="0" pos="1152" key="61" len="384" vol="78"/>
          <note pan="0" pos="1152" key="56" len="384" vol="78"/>
          <note pan="0" pos="1152" key="49" len="384" vol="78"/>
          <note pan="0" pos="1536" key="59" len="384" vol="78"/>
          <note pan="0" pos="1536" key="57" len="384" vol="78"/>
          <note pan="0" pos="1536" key="49" len="384" vol="78"/>
          <note pan="0" pos="1920" key="64" len="24" vol="78"/>
          <note pan="0" pos="1920" key="56" len="24" vol="78"/>
          <note pan="0" pos="1992" key="64" len="24" vol="78"/>
          <note pan="0" pos="1992" key="56" len="24" vol="78"/>
          <note pan="0" pos="2064" key="64" len="24" vol="78"/>
          <note pan="0" pos="2064" key="56" len="24" vol="78"/>
          <note pan="0" pos="2136" key="64" len="24" vol="78"/>
          <note pan="0" pos="2136" key="56" len="24" vol="78"/>
          <note pan="0" pos="2208" key="64" len="24" vol="78"/>
          <note pan="0" pos="2208" key="56" len="24" vol="78"/>
          <note pan="0" pos="2232" key="64" len="24" vol="78"/>
          <note pan="0" pos="2232" key="56" len="24" vol="78"/>
          <note pan="0" pos="2280" key="64" len="24" vol="78"/>
          <note pan="0" pos="2280" key="56" len="24" vol="78"/>
          <note pan="0" pos="2304" key="63" len="24" vol="78"/>
          <note pan="0" pos="2304" key="56" len="24" vol="78"/>
          <note pan="0" pos="2376" key="63" len="24" vol="78"/>
          <note pan="0" pos="2376" key="56" len="24" vol="78"/>
          <note pan="0" pos="2448" key="63" len="24" vol="78"/>
          <note pan="0" pos="2448" key="56" len="24" vol="78"/>
          <note pan="0" pos="2520" key="63" len="24" vol="78"/>
          <note pan="0" pos="2520" key="56" len="24" vol="78"/>
          <note pan="0" pos="2592" key="63" len="24" vol="78"/>
          <note pan="0" pos="2592" key="56" len="24" vol="78"/>
          <note pan="0" pos="2616" key="63" len="24" vol="78"/>
          <note pan="0" pos="2616" key="56" len="24" vol="78"/>
          <note pan="0" pos="2664" key="63" len="24" vol="78"/>
          <note pan="0" pos="2664" key="56" len="24" vol="78"/>
          <note pan="0" pos="2688" key="61" len="24" vol="78"/>
          <note pan="0" pos="2688" key="58" len="24" vol="78"/>
          <note pan="0" pos="2760" key="61" len="24" vol="78"/>
          <note pan="0" pos="2760" key="58" len="24" vol="78"/>
          <note pan="0" pos="2832" key="61" len="24" vol="78"/>
          <note pan="0" pos="2832" key="58" len="24" vol="78"/>
          <note pan="0" pos="2904" key="61" len="24" vol="78"/>
          <note pan="0" pos="2904" key="58" len="24" vol="78"/>
          <note pan="0" pos="2976" key="61" len="24" vol="78"/>
          <note pan="0" pos="2976" key="58" len="24" vol="78"/>
          <note pan="0" pos="3000" key="61" len="24" vol="78"/>
          <note pan="0" pos="3000" key="58" len="24" vol="78"/>
          <note pan="0" pos="3048" key="61" len="24" vol="78"/>
          <note pan="0" pos="3048" key="58" len="24" vol="78"/>
          <note pan="0" pos="3072" key="61" len="24" vol="78"/>
          <note pan="0" pos="3072" key="57" len="24" vol="78"/>
          <note pan="0" pos="3144" key="61" len="24" vol="78"/>
          <note pan="0" pos="3144" key="57" len="24" vol="78"/>
          <note pan="0" pos="3216" key="61" len="24" vol="78"/>
          <note pan="0" pos="3216" key="57" len="24" vol="78"/>
          <note pan="0" pos="3264" key="69" len="192" vol="78"/>
          <note pan="0" pos="3456" key="61" len="192" vol="78"/>
          <note pan="0" pos="3648" key="61" len="192" vol="78"/>
          <note pan="0" pos="3840" key="61" len="192" vol="78"/>
          <note pan="0" pos="4032" key="59" len="192" vol="78"/>
          <note pan="0" pos="4224" key="61" len="192" vol="78"/>
          <note pan="0" pos="4416" key="61" len="192" vol="78"/>
          <note pan="0" pos="4608" key="61" len="192" vol="78"/>
          <note pan="0" pos="4800" key="59" len="192" vol="78"/>
        </pattern>
        <pattern type="1" pos="11136" muted="0" name="Violin" steps="16">
          <note pan="0" pos="0" key="59" len="384" vol="78"/>
          <note pan="0" pos="0" key="54" len="384" vol="78"/>
          <note pan="0" pos="384" key="61" len="384" vol="78"/>
          <note pan="0" pos="384" key="56" len="384" vol="78"/>
          <note pan="0" pos="768" key="61" len="384" vol="78"/>
          <note pan="0" pos="768" key="57" len="384" vol="78"/>
          <note pan="0" pos="1152" key="63" len="384" vol="78"/>
          <note pan="0" pos="1152" key="59" len="384" vol="78"/>
          <note pan="0" pos="1536" key="61" len="384" vol="78"/>
          <note pan="0" pos="1536" key="56" len="384" vol="78"/>
          <note pan="0" pos="1536" key="52" len="384" vol="78"/>
          <note pan="0" pos="1920" key="59" len="384" vol="78"/>
          <note pan="0" pos="1920" key="54" len="192" vol="78"/>
          <note pan="0" pos="1920" key="51" len="192" vol="78"/>
          <note pan="0" pos="2112" key="52" len="96" vol="78"/>
          <note pan="0" pos="2112" key="47" len="192" vol="78"/>
          <note pan="0" pos="2208" key="54" len="96" vol="78"/>
          <note pan="0" pos="2304" key="61" len="384" vol="78"/>
          <note pan="0" pos="2304" key="56" len="384" vol="78"/>
          <note pan="0" pos="2304" key="52" len="384" vol="78"/>
          <note pan="0" pos="2688" key="66" len="384" vol="78"/>
          <note pan="0" pos="2688" key="59" len="384" vol="78"/>
          <note pan="0" pos="2688" key="54" len="384" vol="78"/>
          <note pan="0" pos="3072" key="61" len="24" vol="78"/>
          <note pan="0" pos="3072" key="57" len="24" vol="78"/>
          <note pan="0" pos="3120" key="61" len="24" vol="78"/>
          <note pan="0" pos="3120" key="57" len="24" vol="78"/>
          <note pan="0" pos="3168" key="61" len="24" vol="78"/>
          <note pan="0" pos="3168" key="57" len="24" vol="78"/>
          <note pan="0" pos="3216" key="61" len="24" vol="78"/>
          <note pan="0" pos="3216" key="57" len="24" vol="78"/>
          <note pan="0" pos="3264" key="61" len="24" vol="78"/>
          <note pan="0" pos="3264" key="57" len="24" vol="78"/>
          <note pan="0" pos="3312" key="61" len="24" vol="78"/>
          <note pan="0" pos="3312" key="57" len="24" vol="78"/>
          <note pan="0" pos="3360" key="61" len="24" vol="78"/>
          <note pan="0" pos="3360" key="57" len="24" vol="78"/>
          <note pan="0" pos="3408" key="61" len="24" vol="78"/>
          <note pan="0" pos="3408" key="57" len="24" vol="78"/>
          <note pan="0" pos="3456" key="61" len="24" vol="78"/>
          <note pan="0" pos="3456" key="56" len="24" vol="78"/>
          <note pan="0" pos="3456" key="52" len="24" vol="78"/>
          <note pan="0" pos="3504" key="61" len="24" vol="78"/>
          <note pan="0" pos="3504" key="56" len="24" vol="78"/>
          <note pan="0" pos="3504" key="52" len="24" vol="78"/>
          <note pan="0" pos="3552" key="61" len="24" vol="78"/>
          <note pan="0" pos="3552" key="56" len="24" vol="78"/>
          <note pan="0" pos="3552" key="52" len="24" vol="78"/>
          <note pan="0" pos="3600" key="61" len="24" vol="78"/>
          <note pan="0" pos="3600" key="56" len="24" vol="78"/>
          <note pan="0" pos="3600" key="52" len="24" vol="78"/>
          <note pan="0" pos="3648" key="61" len="24" vol="78"/>
          <note pan="0" pos="3648" key="56" len="24" vol="78"/>
          <note pan="0" pos="3648" key="51" len="24" vol="78"/>
          <note pan="0" pos="3696" key="61" len="24" vol="78"/>
          <note pan="0" pos="3696" key="56" len="24" vol="78"/>
          <note pan="0" pos="3696" key="51" len="24" vol="78"/>
          <note pan="0" pos="3744" key="61" len="24" vol="78"/>
          <note pan="0" pos="3744" key="56" len="24" vol="78"/>
          <note pan="0" pos="3744" key="51" len="24" vol="78"/>
          <note pan="0" pos="3792" key="61" len="24" vol="78"/>
          <note pan="0" pos="3792" key="56" len="24" vol="78"/>
          <note pan="0" pos="3792" key="51" len="24" vol="78"/>
        </pattern>
        <pattern type="1" pos="18816" muted="0" name="Violin" steps="16">
          <note pan="0" pos="0" key="59" len="384" vol="78"/>
          <note pan="0" pos="0" key="54" len="384" vol="78"/>
          <note pan="0" pos="384" key="61" len="384" vol="78"/>
          <note pan="0" pos="384" key="56" len="384" vol="78"/>
          <note pan="0" pos="768" key="61" len="384" vol="78"/>
          <note pan="0" pos="768" key="57" len="384" vol="78"/>
          <note pan="0" pos="1152" key="63" len="384" vol="78"/>
          <note pan="0" pos="1152" key="59" len="384" vol="78"/>
          <note pan="0" pos="1536" key="59" len="384" vol="78"/>
          <note pan="0" pos="1536" key="54" len="384" vol="78"/>
          <note pan="0" pos="1920" key="61" len="384" vol="78"/>
          <note pan="0" pos="1920" key="56" len="384" vol="78"/>
          <note pan="0" pos="2304" key="61" len="384" vol="78"/>
          <note pan="0" pos="2304" key="57" len="384" vol="78"/>
          <note pan="0" pos="2688" key="63" len="384" vol="78"/>
          <note pan="0" pos="2688" key="59" len="384" vol="78"/>
          <note pan="0" pos="3072" key="56" len="192" vol="78"/>
          <note pan="0" pos="3072" key="52" len="192" vol="78"/>
          <note pan="0" pos="3264" key="54" len="192" vol="78"/>
          <note pan="0" pos="3264" key="51" len="192" vol="78"/>
          <note pan="0" pos="3456" key="56" len="384" vol="78"/>
          <note pan="0" pos="3456" key="52" len="384" vol="78"/>
          <note pan="0" pos="3456" key="49" len="384" vol="78"/>
          <note pan="0" pos="3840" key="56" len="192" vol="78"/>
          <note pan="0" pos="3840" key="49" len="192" vol="78"/>
          <note pan="0" pos="3840" key="47" len="192" vol="78"/>
          <note pan="0" pos="4032" key="54" len="192" vol="78"/>
          <note pan="0" pos="4032" key="51" len="192" vol="78"/>
          <note pan="0" pos="4032" key="47" len="192" vol="78"/>
          <note pan="0" pos="4224" key="49" len="384" vol="78"/>
          <note pan="0" pos="4224" key="47" len="192" vol="78"/>
          <note pan="0" pos="4224" key="44" len="384" vol="78"/>
          <note pan="0" pos="4608" key="56" len="192" vol="78"/>
          <note pan="0" pos="4608" key="47" len="192" vol="78"/>
          <note pan="0" pos="4800" key="57" len="192" vol="78"/>
          <note pan="0" pos="4800" key="49" len="192" vol="78"/>
          <note pan="0" pos="4992" key="59" len="192" vol="78"/>
          <note pan="0" pos="4992" key="52" len="192" vol="78"/>
          <note pan="0" pos="5184" key="64" len="192" vol="78"/>
          <note pan="0" pos="5184" key="56" len="192" vol="78"/>
          <note pan="0" pos="5376" key="61" len="384" vol="78"/>
          <note pan="0" pos="5376" key="54" len="384" vol="78"/>
          <note pan="0" pos="5760" key="61" len="384" vol="78"/>
          <note pan="0" pos="5760" key="52" len="384" vol="78"/>
          <note pan="0" pos="6144" key="68" len="192" vol="78"/>
          <note pan="0" pos="6144" key="64" len="192" vol="78"/>
          <note pan="0" pos="6336" key="66" len="192" vol="78"/>
          <note pan="0" pos="6336" key="63" len="192" vol="78"/>
          <note pan="0" pos="6528" key="68" len="384" vol="78"/>
          <note pan="0" pos="6528" key="64" len="384" vol="78"/>
          <note pan="0" pos="6528" key="61" len="384" vol="78"/>
          <note pan="0" pos="6912" key="68" len="192" vol="78"/>
          <note pan="0" pos="6912" key="61" len="192" vol="78"/>
          <note pan="0" pos="6912" key="59" len="192" vol="78"/>
          <note pan="0" pos="7104" key="66" len="192" vol="78"/>
          <note pan="0" pos="7104" key="63" len="192" vol="78"/>
          <note pan="0" pos="7104" key="59" len="192" vol="78"/>
          <note pan="0" pos="7296" key="61" len="384" vol="78"/>
          <note pan="0" pos="7296" key="58" len="384" vol="78"/>
          <note pan="0" pos="7296" key="56" len="384" vol="78"/>
          <note pan="0" pos="7680" key="68" len="192" vol="78"/>
          <note pan="0" pos="7680" key="59" len="192" vol="78"/>
          <note pan="0" pos="7872" key="69" len="192" vol="78"/>
          <note pan="0" pos="7872" key="61" len="192" vol="78"/>
          <note pan="0" pos="8064" key="71" len="192" vol="78"/>
          <note pan="0" pos="8064" key="64" len="192" vol="78"/>
          <note pan="0" pos="8256" key="76" len="192" vol="78"/>
          <note pan="0" pos="8256" key="68" len="192" vol="78"/>
          <note pan="0" pos="8448" key="73" len="384" vol="78"/>
          <note pan="0" pos="8448" key="66" len="384" vol="78"/>
          <note pan="0" pos="8832" key="73" len="384" vol="78"/>
          <note pan="0" pos="8832" key="64" len="384" vol="78"/>
          <note pan="0" pos="9216" key="68" len="384" vol="78"/>
          <note pan="0" pos="9216" key="61" len="384" vol="78"/>
          <note pan="0" pos="9216" key="49" len="48" vol="78"/>
          <note pan="0" pos="9264" key="45" len="48" vol="78"/>
          <note pan="0" pos="9312" key="47" len="48" vol="78"/>
          <note pan="0" pos="9360" key="49" len="48" vol="78"/>
          <note pan="0" pos="9408" key="51" len="48" vol="78"/>
          <note pan="0" pos="9456" key="52" len="48" vol="78"/>
          <note pan="0" pos="9504" key="51" len="48" vol="78"/>
          <note pan="0" pos="9552" key="47" len="48" vol="78"/>
          <note pan="0" pos="9600" key="68" len="384" vol="78"/>
          <note pan="0" pos="9600" key="61" len="384" vol="78"/>
          <note pan="0" pos="9600" key="49" len="48" vol="78"/>
          <note pan="0" pos="9648" key="47" len="48" vol="78"/>
          <note pan="0" pos="9696" key="49" len="48" vol="78"/>
          <note pan="0" pos="9744" key="51" len="48" vol="78"/>
          <note pan="0" pos="9792" key="56" len="192" vol="78"/>
          <note pan="0" pos="9984" key="56" len="192" vol="78"/>
          <note pan="0" pos="9984" key="52" len="192" vol="78"/>
          <note pan="0" pos="10176" key="57" len="192" vol="78"/>
          <note pan="0" pos="10176" key="54" len="192" vol="78"/>
          <note pan="0" pos="10368" key="59" len="192" vol="78"/>
          <note pan="0" pos="10368" key="56" len="192" vol="78"/>
          <note pan="0" pos="10560" key="54" len="192" vol="78"/>
          <note pan="0" pos="10560" key="49" len="192" vol="78"/>
          <note pan="0" pos="10752" key="56" len="192" vol="78"/>
          <note pan="0" pos="10752" key="52" len="192" vol="78"/>
          <note pan="0" pos="10944" key="57" len="192" vol="78"/>
          <note pan="0" pos="10944" key="54" len="192" vol="78"/>
          <note pan="0" pos="11136" key="59" len="192" vol="78"/>
          <note pan="0" pos="11136" key="56" len="192" vol="78"/>
          <note pan="0" pos="11328" key="54" len="192" vol="78"/>
          <note pan="0" pos="11328" key="51" len="192" vol="78"/>
          <note pan="0" pos="11520" key="54" len="192" vol="78"/>
          <note pan="0" pos="11520" key="49" len="192" vol="78"/>
          <note pan="0" pos="11712" key="61" len="192" vol="78"/>
          <note pan="0" pos="11712" key="56" len="192" vol="78"/>
          <note pan="0" pos="11904" key="59" len="192" vol="78"/>
          <note pan="0" pos="11904" key="54" len="192" vol="78"/>
          <note pan="0" pos="12096" key="57" len="192" vol="78"/>
          <note pan="0" pos="12096" key="52" len="192" vol="78"/>
          <note pan="0" pos="12288" key="56" len="384" vol="78"/>
          <note pan="0" pos="12288" key="51" len="384" vol="78"/>
          <note pan="0" pos="12672" key="56" len="384" vol="78"/>
          <note pan="0" pos="12672" key="47" len="384" vol="78"/>
          <note pan="0" pos="13056" key="56" len="192" vol="78"/>
          <note pan="0" pos="13056" key="52" len="192" vol="78"/>
          <note pan="0" pos="13248" key="57" len="192" vol="78"/>
          <note pan="0" pos="13248" key="54" len="192" vol="78"/>
          <note pan="0" pos="13440" key="59" len="192" vol="78"/>
          <note pan="0" pos="13440" key="56" len="192" vol="78"/>
          <note pan="0" pos="13632" key="54" len="192" vol="78"/>
          <note pan="0" pos="13632" key="49" len="192" vol="78"/>
          <note pan="0" pos="13824" key="56" len="192" vol="78"/>
          <note pan="0" pos="13824" key="52" len="192" vol="78"/>
          <note pan="0" pos="14016" key="57" len="192" vol="78"/>
          <note pan="0" pos="14016" key="54" len="192" vol="78"/>
          <note pan="0" pos="14208" key="59" len="192" vol="78"/>
          <note pan="0" pos="14208" key="56" len="192" vol="78"/>
          <note pan="0" pos="14400" key="54" len="192" vol="78"/>
          <note pan="0" pos="14400" key="51" len="192" vol="78"/>
          <note pan="0" pos="14592" key="54" len="192" vol="78"/>
          <note pan="0" pos="14592" key="49" len="192" vol="78"/>
          <note pan="0" pos="14784" key="61" len="192" vol="78"/>
          <note pan="0" pos="14784" key="56" len="192" vol="78"/>
          <note pan="0" pos="14976" key="59" len="192" vol="78"/>
          <note pan="0" pos="14976" key="54" len="192" vol="78"/>
          <note pan="0" pos="15168" key="57" len="192" vol="78"/>
          <note pan="0" pos="15168" key="52" len="192" vol="78"/>
          <note pan="0" pos="15360" key="56" len="384" vol="78"/>
          <note pan="0" pos="15360" key="51" len="384" vol="78"/>
          <note pan="0" pos="15744" key="56" len="192" vol="78"/>
          <note pan="0" pos="15744" key="47" len="192" vol="78"/>
          <note pan="0" pos="16128" key="61" len="192" vol="78"/>
          <note pan="0" pos="16320" key="61" len="192" vol="78"/>
          <note pan="0" pos="16512" key="61" len="192" vol="78"/>
          <note pan="0" pos="16704" key="59" len="192" vol="78"/>
          <note pan="0" pos="16896" key="61" len="192" vol="78"/>
          <note pan="0" pos="17088" key="61" len="192" vol="78"/>
          <note pan="0" pos="17280" key="61" len="192" vol="78"/>
          <note pan="0" pos="17472" key="59" len="192" vol="78"/>
        </pattern>
        <pattern type="1" pos="42624" muted="0" name="Violin" steps="16">
          <note pan="0" pos="0" key="59" len="384" vol="78"/>
          <note pan="0" pos="0" key="54" len="384" vol="78"/>
          <note pan="0" pos="384" key="61" len="384" vol="78"/>
          <note pan="0" pos="384" key="56" len="384" vol="78"/>
          <note pan="0" pos="768" key="61" len="384" vol="78"/>
          <note pan="0" pos="768" key="57" len="384" vol="78"/>
          <note pan="0" pos="1152" key="63" len="384" vol="78"/>
          <note pan="0" pos="1152" key="59" len="384" vol="78"/>
          <note pan="0" pos="1536" key="61" len="384" vol="78"/>
          <note pan="0" pos="1536" key="56" len="384" vol="78"/>
          <note pan="0" pos="1536" key="52" len="384" vol="78"/>
          <note pan="0" pos="1920" key="59" len="384" vol="78"/>
          <note pan="0" pos="1920" key="54" len="192" vol="78"/>
          <note pan="0" pos="1920" key="51" len="192" vol="78"/>
          <note pan="0" pos="2112" key="52" len="96" vol="78"/>
          <note pan="0" pos="2112" key="47" len="192" vol="78"/>
          <note pan="0" pos="2208" key="54" len="96" vol="78"/>
          <note pan="0" pos="2304" key="61" len="384" vol="78"/>
          <note pan="0" pos="2304" key="56" len="384" vol="78"/>
          <note pan="0" pos="2304" key="52" len="384" vol="78"/>
          <note pan="0" pos="2688" key="66" len="384" vol="78"/>
          <note pan="0" pos="2688" key="59" len="384" vol="78"/>
          <note pan="0" pos="2688" key="54" len="384" vol="78"/>
          <note pan="0" pos="3072" key="61" len="24" vol="78"/>
          <note pan="0" pos="3072" key="57" len="24" vol="78"/>
          <note pan="0" pos="3120" key="61" len="24" vol="78"/>
          <note pan="0" pos="3120" key="57" len="24" vol="78"/>
          <note pan="0" pos="3168" key="61" len="24" vol="78"/>
          <note pan="0" pos="3168" key="57" len="24" vol="78"/>
          <note pan="0" pos="3216" key="61" len="24" vol="78"/>
          <note pan="0" pos="3216" key="57" len="24" vol="78"/>
          <note pan="0" pos="3264" key="61" len="24" vol="78"/>
          <note pan="0" pos="3264" key="57" len="24" vol="78"/>
          <note pan="0" pos="3312" key="61" len="24" vol="78"/>
          <note pan="0" pos="3312" key="57" len="24" vol="78"/>
          <note pan="0" pos="3360" key="61" len="24" vol="78"/>
          <note pan="0" pos="3360" key="57" len="24" vol="78"/>
          <note pan="0" pos="3408" key="61" len="24" vol="78"/>
          <note pan="0" pos="3408" key="57" len="24" vol="78"/>
          <note pan="0" pos="3456" key="61" len="24" vol="78"/>
          <note pan="0" pos="3456" key="56" len="24" vol="78"/>
          <note pan="0" pos="3456" key="52" len="24" vol="78"/>
          <note pan="0" pos="3504" key="61" len="24" vol="78"/>
          <note pan="0" pos="3504" key="56" len="24" vol="78"/>
          <note pan="0" pos="3504" key="52" len="24" vol="78"/>
          <note pan="0" pos="3552" key="61" len="24" vol="78"/>
          <note pan="0" pos="3552" key="56" len="24" vol="78"/>
          <note pan="0" pos="3552" key="52" len="24" vol="78"/>
          <note pan="0" pos="3600" key="61" len="24" vol="78"/>
          <note pan="0" pos="3600" key="56" len="24" vol="78"/>
          <note pan="0" pos="3600" key="52" len="24" vol="78"/>
          <note pan="0" pos="3648" key="61" len="24" vol="78"/>
          <note pan="0" pos="3648" key="56" len="24" vol="78"/>
          <note pan="0" pos="3648" key="51" len="24" vol="78"/>
          <note pan="0" pos="3696" key="61" len="24" vol="78"/>
          <note pan="0" pos="3696" key="56" len="24" vol="78"/>
          <note pan="0" pos="3696" key="51" len="24" vol="78"/>
          <note pan="0" pos="3744" key="61" len="24" vol="78"/>
          <note pan="0" pos="3744" key="56" len="24" vol="78"/>
          <note pan="0" pos="3744" key="51" len="24" vol="78"/>
          <note pan="0" pos="3792" key="61" len="24" vol="78"/>
          <note pan="0" pos="3792" key="56" len="24" vol="78"/>
          <note pan="0" pos="3792" key="51" len="24" vol="78"/>
        </pattern>
        <pattern type="1" pos="50304" muted="0" name="Violin" steps="16">
          <note pan="0" pos="0" key="59" len="384" vol="78"/>
          <note pan="0" pos="0" key="54" len="384" vol="78"/>
          <note pan="0" pos="384" key="61" len="384" vol="78"/>
          <note pan="0" pos="384" key="56" len="384" vol="78"/>
          <note pan="0" pos="768" key="61" len="384" vol="78"/>
          <note pan="0" pos="768" key="57" len="384" vol="78"/>
          <note pan="0" pos="1152" key="63" len="384" vol="78"/>
          <note pan="0" pos="1152" key="59" len="384" vol="78"/>
          <note pan="0" pos="1536" key="59" len="384" vol="78"/>
          <note pan="0" pos="1536" key="54" len="384" vol="78"/>
          <note pan="0" pos="1920" key="61" len="384" vol="78"/>
          <note pan="0" pos="1920" key="56" len="384" vol="78"/>
          <note pan="0" pos="2304" key="61" len="384" vol="78"/>
          <note pan="0" pos="2304" key="57" len="384" vol="78"/>
          <note pan="0" pos="2688" key="63" len="384" vol="78"/>
          <note pan="0" pos="2688" key="59" len="384" vol="78"/>
          <note pan="0" pos="3072" key="56" len="192" vol="78"/>
          <note pan="0" pos="3072" key="52" len="192" vol="78"/>
          <note pan="0" pos="3264" key="54" len="192" vol="78"/>
          <note pan="0" pos="3264" key="51" len="192" vol="78"/>
          <note pan="0" pos="3456" key="56" len="384" vol="78"/>
          <note pan="0" pos="3456" key="52" len="384" vol="78"/>
          <note pan="0" pos="3456" key="49" len="384" vol="78"/>
          <note pan="0" pos="3840" key="56" len="192" vol="78"/>
          <note pan="0" pos="3840" key="49" len="192" vol="78"/>
          <note pan="0" pos="3840" key="47" len="192" vol="78"/>
          <note pan="0" pos="4032" key="54" len="192" vol="78"/>
          <note pan="0" pos="4032" key="51" len="192" vol="78"/>
          <note pan="0" pos="4032" key="47" len="192" vol="78"/>
          <note pan="0" pos="4224" key="49" len="384" vol="78"/>
          <note pan="0" pos="4224" key="47" len="192" vol="78"/>
          <note pan="0" pos="4224" key="44" len="384" vol="78"/>
          <note pan="0" pos="4608" key="56" len="192" vol="78"/>
          <note pan="0" pos="4608" key="47" len="192" vol="78"/>
          <note pan="0" pos="4800" key="57" len="192" vol="78"/>
          <note pan="0" pos="4800" key="49" len="192" vol="78"/>
          <note pan="0" pos="4992" key="59" len="192" vol="78"/>
          <note pan="0" pos="4992" key="52" len="192" vol="78"/>
          <note pan="0" pos="5184" key="64" len="192" vol="78"/>
          <note pan="0" pos="5184" key="56" len="192" vol="78"/>
          <note pan="0" pos="5376" key="61" len="384" vol="78"/>
          <note pan="0" pos="5376" key="54" len="384" vol="78"/>
          <note pan="0" pos="5760" key="61" len="384" vol="78"/>
          <note pan="0" pos="5760" key="52" len="384" vol="78"/>
          <note pan="0" pos="6144" key="68" len="192" vol="78"/>
          <note pan="0" pos="6144" key="64" len="192" vol="78"/>
          <note pan="0" pos="6336" key="66" len="192" vol="78"/>
          <note pan="0" pos="6336" key="63" len="192" vol="78"/>
          <note pan="0" pos="6528" key="68" len="384" vol="78"/>
          <note pan="0" pos="6528" key="64" len="384" vol="78"/>
          <note pan="0" pos="6528" key="61" len="384" vol="78"/>
          <note pan="0" pos="6912" key="68" len="192" vol="78"/>
          <note pan="0" pos="6912" key="61" len="192" vol="78"/>
          <note pan="0" pos="6912" key="59" len="192" vol="78"/>
          <note pan="0" pos="7104" key="66" len="192" vol="78"/>
          <note pan="0" pos="7104" key="63" len="192" vol="78"/>
          <note pan="0" pos="7104" key="59" len="192" vol="78"/>
          <note pan="0" pos="7296" key="61" len="384" vol="78"/>
          <note pan="0" pos="7296" key="58" len="384" vol="78"/>
          <note pan="0" pos="7296" key="56" len="384" vol="78"/>
          <note pan="0" pos="7680" key="68" len="192" vol="78"/>
          <note pan="0" pos="7680" key="59" len="192" vol="78"/>
          <note pan="0" pos="7872" key="69" len="192" vol="78"/>
          <note pan="0" pos="7872" key="61" len="192" vol="78"/>
          <note pan="0" pos="8064" key="71" len="192" vol="78"/>
          <note pan="0" pos="8064" key="64" len="192" vol="78"/>
          <note pan="0" pos="8256" key="76" len="192" vol="78"/>
          <note pan="0" pos="8256" key="68" len="192" vol="78"/>
          <note pan="0" pos="8448" key="73" len="384" vol="78"/>
          <note pan="0" pos="8448" key="66" len="384" vol="78"/>
          <note pan="0" pos="8832" key="73" len="384" vol="78"/>
          <note pan="0" pos="8832" key="64" len="384" vol="78"/>
          <note pan="0" pos="9216" key="68" len="384" vol="78"/>
          <note pan="0" pos="9216" key="61" len="384" vol="78"/>
          <note pan="0" pos="9216" key="49" len="48" vol="78"/>
          <note pan="0" pos="9264" key="45" len="48" vol="78"/>
          <note pan="0" pos="9312" key="47" len="48" vol="78"/>
          <note pan="0" pos="9360" key="49" len="48" vol="78"/>
          <note pan="0" pos="9408" key="51" len="48" vol="78"/>
          <note pan="0" pos="9456" key="52" len="48" vol="78"/>
          <note pan="0" pos="9504" key="51" len="48" vol="78"/>
          <note pan="0" pos="9552" key="47" len="48" vol="78"/>
          <note pan="0" pos="9600" key="68" len="384" vol="78"/>
          <note pan="0" pos="9600" key="61" len="384" vol="78"/>
          <note pan="0" pos="9600" key="49" len="48" vol="78"/>
          <note pan="0" pos="9648" key="47" len="48" vol="78"/>
          <note pan="0" pos="9696" key="49" len="48" vol="78"/>
          <note pan="0" pos="9744" key="51" len="48" vol="78"/>
          <note pan="0" pos="9792" key="56" len="192" vol="78"/>
          <note pan="0" pos="9984" key="56" len="192" vol="78"/>
          <note pan="0" pos="9984" key="52" len="192" vol="78"/>
          <note pan="0" pos="10176" key="57" len="192" vol="78"/>
          <note pan="0" pos="10176" key="54" len="192" vol="78"/>
          <note pan="0" pos="10368" key="59" len="192" vol="78"/>
          <note pan="0" pos="10368" key="56" len="192" vol="78"/>
          <note pan="0" pos="10560" key="54" len="192" vol="78"/>
          <note pan="0" pos="10560" key="49" len="192" vol="78"/>
          <note pan="0" pos="10752" key="56" len="192" vol="78"/>
          <note pan="0" pos="10752" key="52" len="192" vol="78"/>
          <note pan="0" pos="10944" key="57" len="192" vol="78"/>
          <note pan="0" pos="10944" key="54" len="192" vol="78"/>
          <note pan="0" pos="11136" key="59" len="192" vol="78"/>
          <note pan="0" pos="11136" key="56" len="192" vol="78"/>
          <note pan="0" pos="11328" key="54" len="192" vol="78"/>
          <note pan="0" pos="11328" key="51" len="192" vol="78"/>
          <note pan="0" pos="11520" key="54" len="192" vol="78"/>
          <note pan="0" pos="11520" key="49" len="192" vol="78"/>
          <note pan="0" pos="11712" key="61" len="192" vol="78"/>
          <note pan="0" pos="11712" key="56" len="192" vol="78"/>
          <note pan="0" pos="11904" key="59" len="192" vol="78"/>
          <note pan="0" pos="11904" key="54" len="192" vol="78"/>
          <note pan="0" pos="12096" key="57" len="192" vol="78"/>
          <note pan="0" pos="12096" key="52" len="192" vol="78"/>
          <note pan="0" pos="12288" key="56" len="384" vol="78"/>
          <note pan="0" pos="12288" key="51" len="384" vol="78"/>
          <note pan="0" pos="12672" key="56" len="384" vol="78"/>
          <note pan="0" pos="12672" key="47" len="384" vol="78"/>
          <note pan="0" pos="13056" key="56" len="192" vol="78"/>
          <note pan="0" pos="13056" key="52" len="192" vol="78"/>
          <note pan="0" pos="13248" key="57" len="192" vol="78"/>
          <note pan="0" pos="13248" key="54" len="192" vol="78"/>
          <note pan="0" pos="13440" key="59" len="192" vol="78"/>
          <note pan="0" pos="13440" key="56" len="192" vol="78"/>
          <note pan="0" pos="13632" key="54" len="192" vol="78"/>
          <note pan="0" pos="13632" key="49" len="192" vol="78"/>
          <note pan="0" pos="13824" key="56" len="192" vol="78"/>
          <note pan="0" pos="13824" key="52" len="192" vol="78"/>
          <note pan="0" pos="14016" key="57" len="192" vol="78"/>
          <note pan="0" pos="14016" key="54" len="192" vol="78"/>
          <note pan="0" pos="14208" key="59" len="192" vol="78"/>
          <note pan="0" pos="14208" key="56" len="192" vol="78"/>
          <note pan="0" pos="14400" key="54" len="192" vol="78"/>
          <note pan="0" pos="14400" key="51" len="192" vol="78"/>
          <note pan="0" pos="14592" key="54" len="192" vol="78"/>
          <note pan="0" pos="14592" key="49" len="192" vol="78"/>
          <note pan="0" pos="14784" key="61" len="192" vol="78"/>
          <note pan="0" pos="14784" key="56" len="192" vol="78"/>
          <note pan="0" pos="14976" key="59" len="192" vol="78"/>
          <note pan="0" pos="14976" key="54" len="192" vol="78"/>
          <note pan="0" pos="15168" key="57" len="192" vol="78"/>
          <note pan="0" pos="15168" key="52" len="192" vol="78"/>
          <note pan="0" pos="15360" key="56" len="384" vol="78"/>
          <note pan="0" pos="15360" key="51" len="384" vol="78"/>
          <note pan="0" pos="15744" key="56" len="192" vol="78"/>
          <note pan="0" pos="15744" key="47" len="192" vol="78"/>
          <note pan="0" pos="16128" key="61" len="192" vol="78"/>
          <note pan="0" pos="16320" key="61" len="192" vol="78"/>
          <note pan="0" pos="16512" key="61" len="192" vol="78"/>
          <note pan="0" pos="16704" key="59" len="192" vol="78"/>
          <note pan="0" pos="16896" key="61" len="192" vol="78"/>
          <note pan="0" pos="17088" key="61" len="192" vol="78"/>
          <note pan="0" pos="17280" key="61" len="192" vol="78"/>
          <note pan="0" pos="17472" key="59" len="192" vol="78"/>
          <note pan="0" pos="17664" key="73" len="384" vol="78"/>
          <note pan="0" pos="17664" key="61" len="384" vol="78"/>
          <note pan="0" pos="18048" key="73" len="384" vol="78"/>
          <note pan="0" pos="18048" key="61" len="384" vol="78"/>
          <note pan="0" pos="18432" key="73" len="48" vol="78"/>
          <note pan="0" pos="18432" key="61" len="48" vol="78"/>
        </pattern>
      </track>
      <track type="0" muted="1" name="Cello" solo="0">
        <instrumenttrack pan="0" pitch="0" basenote="57" usemasterpitch="1" vol="100" fxch="0" pitchrange="2">
          <instrument name="sf2player">
            <sf2player chorusLevel="2" reverbRoomSize="0.2" reverbLevel="0.9" chorusDepth="8" reverbDamping="0" patch="16" chorusOn="0" chorusSpeed="0.3" gain="1" chorusNum="3" bank="0" reverbWidth="0.5" reverbOn="0" src="/home/huggypie/samples/soundfonts/Mystery Dungeon.sf2"/>
          </instrument>
          <eldata fres="0.5" fcut="14000" fwet="0" ftype="0">
            <elvol lspd_numerator="4" userwavefile="" lshp="0" x100="0" amt="0" lspd_syncmode="0" ctlenvamt="0" dec="0.5" hold="0.5" lspd_denominator="4" sustain="0.5" lamt="0" lspd="0.1" pdel="0" att="0" lpdel="0" latt="0" rel="0.1"/>
            <elcut lspd_numerator="4" userwavefile="" lshp="0" x100="0" amt="0" lspd_syncmode="0" ctlenvamt="0" dec="0.5" hold="0.5" lspd_denominator="4" sustain="0.5" lamt="0" lspd="0.1" pdel="0" att="0" lpdel="0" latt="0" rel="0.1"/>
            <elres lspd_numerator="4" userwavefile="" lshp="0" x100="0" amt="0" lspd_syncmode="0" ctlenvamt="0" dec="0.5" hold="0.5" lspd_denominator="4" sustain="0.5" lamt="0" lspd="0.1" pdel="0" att="0" lpdel="0" latt="0" rel="0.1"/>
          </eldata>
          <chordcreator chordrange="1" chord="0" chord-enabled="0"/>
          <arpeggiator arpskip="0" arpmiss="0" arp-enabled="0" arpgate="100" arpdir="0" arpcycle="0" arprange="1" arptime_numerator="4" arptime_denominator="4" arptime_syncmode="0" arptime="200" arp="0" arpmode="0"/>
          <midiport outputcontroller="0" inputchannel="0" outputchannel="1" fixedoutputvelocity="-1" readable="0" inputcontroller="0" basevelocity="63" fixedoutputnote="-1" fixedinputvelocity="-1" outputprogram="1" writable="0"/>
          <fxchain enabled="0" numofeffects="0"/>
        </instrumenttrack>
        <pattern type="1" pos="384" muted="0" name="Cello" steps="16">
          <note pan="0" pos="0" key="37" len="384" vol="78"/>
          <note pan="0" pos="384" key="32" len="384" vol="78"/>
          <note pan="0" pos="768" key="28" len="384" vol="78"/>
          <note pan="0" pos="1152" key="26" len="384" vol="78"/>
        </pattern>
        <pattern type="1" pos="12672" muted="0" name="Cello" steps="16">
          <note pan="0" pos="0" key="25" len="24" vol="78"/>
          <note pan="0" pos="48" key="25" len="24" vol="78"/>
          <note pan="0" pos="96" key="25" len="24" vol="78"/>
          <note pan="0" pos="144" key="25" len="24" vol="78"/>
          <note pan="0" pos="192" key="25" len="24" vol="78"/>
          <note pan="0" pos="240" key="25" len="24" vol="78"/>
          <note pan="0" pos="288" key="25" len="24" vol="78"/>
          <note pan="0" pos="336" key="25" len="24" vol="78"/>
          <note pan="0" pos="384" key="25" len="24" vol="78"/>
          <note pan="0" pos="432" key="25" len="24" vol="78"/>
          <note pan="0" pos="480" key="25" len="24" vol="78"/>
          <note pan="0" pos="528" key="25" len="24" vol="78"/>
          <note pan="0" pos="576" key="25" len="24" vol="78"/>
          <note pan="0" pos="624" key="25" len="24" vol="78"/>
          <note pan="0" pos="672" key="25" len="24" vol="78"/>
          <note pan="0" pos="720" key="25" len="24" vol="78"/>
          <note pan="0" pos="768" key="25" len="24" vol="78"/>
          <note pan="0" pos="816" key="25" len="24" vol="78"/>
          <note pan="0" pos="864" key="25" len="24" vol="78"/>
          <note pan="0" pos="912" key="25" len="24" vol="78"/>
          <note pan="0" pos="960" key="25" len="24" vol="78"/>
          <note pan="0" pos="1008" key="25" len="24" vol="78"/>
          <note pan="0" pos="1056" key="25" len="24" vol="78"/>
          <note pan="0" pos="1104" key="25" len="24" vol="78"/>
          <note pan="0" pos="1152" key="25" len="24" vol="78"/>
          <note pan="0" pos="1200" key="25" len="24" vol="78"/>
          <note pan="0" pos="1248" key="25" len="24" vol="78"/>
          <note pan="0" pos="1296" key="25" len="24" vol="78"/>
          <note pan="0" pos="1344" key="25" len="24" vol="78"/>
          <note pan="0" pos="1392" key="25" len="24" vol="78"/>
          <note pan="0" pos="1440" key="25" len="24" vol="78"/>
          <note pan="0" pos="1488" key="25" len="24" vol="78"/>
        </pattern>
        <pattern type="1" pos="44160" muted="0" name="Cello" steps="16">
          <note pan="0" pos="0" key="25" len="24" vol="78"/>
          <note pan="0" pos="48" key="25" len="24" vol="78"/>
          <note pan="0" pos="96" key="25" len="24" vol="78"/>
          <note pan="0" pos="144" key="25" len="24" vol="78"/>
          <note pan="0" pos="192" key="25" len="24" vol="78"/>
          <note pan="0" pos="240" key="25" len="24" vol="78"/>
          <note pan="0" pos="288" key="25" len="24" vol="78"/>
          <note pan="0" pos="336" key="25" len="24" vol="78"/>
          <note pan="0" pos="384" key="25" len="24" vol="78"/>
          <note pan="0" pos="432" key="25" len="24" vol="78"/>
          <note pan="0" pos="480" key="25" len="24" vol="78"/>
          <note pan="0" pos="528" key="25" len="24" vol="78"/>
          <note pan="0" pos="576" key="25" len="24" vol="78"/>
          <note pan="0" pos="624" key="25" len="24" vol="78"/>
          <note pan="0" pos="672" key="25" len="24" vol="78"/>
          <note pan="0" pos="720" key="25" len="24" vol="78"/>
          <note pan="0" pos="768" key="25" len="24" vol="78"/>
          <note pan="0" pos="816" key="25" len="24" vol="78"/>
          <note pan="0" pos="864" key="25" len="24" vol="78"/>
          <note pan="0" pos="912" key="25" len="24" vol="78"/>
          <note pan="0" pos="960" key="25" len="24" vol="78"/>
          <note pan="0" pos="1008" key="25" len="24" vol="78"/>
          <note pan="0" pos="1056" key="25" len="24" vol="78"/>
          <note pan="0" pos="1104" key="25" len="24" vol="78"/>
          <note pan="0" pos="1152" key="25" len="24" vol="78"/>
          <note pan="0" pos="1200" key="25" len="24" vol="78"/>
          <note pan="0" pos="1248" key="25" len="24" vol="78"/>
          <note pan="0" pos="1296" key="25" len="24" vol="78"/>
          <note pan="0" pos="1344" key="25" len="24" vol="78"/>
          <note pan="0" pos="1392" key="25" len="24" vol="78"/>
          <note pan="0" pos="1440" key="25" len="24" vol="78"/>
          <note pan="0" pos="1488" key="25" len="24" vol="78"/>
        </pattern>
        <pattern type="1" pos="39360" muted="0" name="" steps="16">
          <note pan="0" pos="0" key="73" len="12" vol="78"/>
          <note pan="0" pos="0" key="0" len="48" vol="78"/>
          <note pan="0" pos="12" key="68" len="12" vol="78"/>
          <note pan="0" pos="24" key="64" len="12" vol="78"/>
          <note pan="0" pos="36" key="61" len="12" vol="78"/>
          <note pan="0" pos="48" key="56" len="12" vol="78"/>
          <note pan="0" pos="48" key="1" len="12" vol="78"/>
          <note pan="0" pos="60" key="52" len="12" vol="78"/>
          <note pan="0" pos="72" key="49" len="12" vol="78"/>
          <note pan="0" pos="84" key="52" len="12" vol="78"/>
          <note pan="0" pos="96" key="56" len="12" vol="78"/>
          <note pan="0" pos="108" key="61" len="12" vol="78"/>
          <note pan="0" pos="120" key="64" len="12" vol="78"/>
          <note pan="0" pos="132" key="68" len="12" vol="78"/>
          <note pan="0" pos="144" key="76" len="12" vol="78"/>
          <note pan="0" pos="144" key="0" len="12" vol="78"/>
          <note pan="0" pos="156" key="73" len="12" vol="78"/>
          <note pan="0" pos="168" key="68" len="12" vol="78"/>
          <note pan="0" pos="168" key="1" len="12" vol="78"/>
          <note pan="0" pos="180" key="73" len="12" vol="78"/>
          <note pan="0" pos="192" key="75" len="12" vol="78"/>
          <note pan="0" pos="192" key="0" len="12" vol="78"/>
          <note pan="0" pos="204" key="71" len="12" vol="78"/>
          <note pan="0" pos="216" key="68" len="12" vol="78"/>
          <note pan="0" pos="228" key="63" len="12" vol="78"/>
          <note pan="0" pos="240" key="59" len="12" vol="78"/>
          <note pan="0" pos="240" key="1" len="12" vol="78"/>
          <note pan="0" pos="252" key="56" len="12" vol="78"/>
          <note pan="0" pos="264" key="51" len="12" vol="78"/>
          <note pan="0" pos="276" key="56" len="12" vol="78"/>
          <note pan="0" pos="288" key="59" len="12" vol="78"/>
          <note pan="0" pos="300" key="63" len="12" vol="78"/>
          <note pan="0" pos="312" key="68" len="12" vol="78"/>
          <note pan="0" pos="324" key="71" len="12" vol="78"/>
          <note pan="0" pos="336" key="80" len="12" vol="78"/>
          <note pan="0" pos="336" key="0" len="12" vol="78"/>
          <note pan="0" pos="348" key="76" len="12" vol="78"/>
          <note pan="0" pos="360" key="73" len="12" vol="78"/>
          <note pan="0" pos="360" key="1" len="12" vol="78"/>
          <note pan="0" pos="372" key="76" len="12" vol="78"/>
          <note pan="0" pos="384" key="80" len="144" vol="78"/>
          <note pan="0" pos="384" key="0" len="12" vol="78"/>
          <note pan="0" pos="528" key="78" len="24" vol="78"/>
          <note pan="0" pos="552" key="76" len="24" vol="78"/>
          <note pan="0" pos="576" key="75" len="48" vol="78"/>
          <note pan="0" pos="624" key="76" len="48" vol="78"/>
          <note pan="0" pos="672" key="71" len="48" vol="78"/>
          <note pan="0" pos="720" key="68" len="48" vol="78"/>
          <note pan="0" pos="768" key="69" len="96" vol="78"/>
          <note pan="0" pos="864" key="73" len="48" vol="78"/>
          <note pan="0" pos="912" key="76" len="48" vol="78"/>
          <note pan="0" pos="960" key="76" len="96" vol="78"/>
          <note pan="0" pos="1056" key="75" len="48" vol="78"/>
          <note pan="0" pos="1104" key="76" len="48" vol="78"/>
          <note pan="0" pos="1152" key="83" len="72" vol="78"/>
          <note pan="0" pos="1224" key="81" len="72" vol="78"/>
          <note pan="0" pos="1296" key="80" len="48" vol="78"/>
          <note pan="0" pos="1344" key="78" len="192" vol="78"/>
          <note pan="0" pos="1536" key="76" len="72" vol="78"/>
          <note pan="0" pos="1608" key="75" len="72" vol="78"/>
          <note pan="0" pos="1680" key="76" len="48" vol="78"/>
          <note pan="0" pos="1728" key="80" len="144" vol="78"/>
          <note pan="0" pos="1872" key="75" len="48" vol="78"/>
          <note pan="0" pos="1920" key="73" len="240" vol="78"/>
          <note pan="0" pos="2160" key="76" len="48" vol="78"/>
          <note pan="0" pos="2208" key="78" len="48" vol="78"/>
          <note pan="0" pos="2256" key="80" len="48" vol="78"/>
          <note pan="0" pos="2304" key="81" len="72" vol="78"/>
          <note pan="0" pos="2376" key="80" len="72" vol="78"/>
          <note pan="0" pos="2448" key="78" len="48" vol="78"/>
          <note pan="0" pos="2496" key="76" len="48" vol="78"/>
          <note pan="0" pos="2544" key="73" len="48" vol="78"/>
          <note pan="0" pos="2592" key="76" len="48" vol="78"/>
          <note pan="0" pos="2640" key="80" len="48" vol="78"/>
          <note pan="0" pos="2688" key="78" len="192" vol="78"/>
          <note pan="0" pos="2880" key="75" len="96" vol="78"/>
          <note pan="0" pos="2976" key="71" len="96" vol="78"/>
        </pattern>
      </track>
      <track type="0" muted="1" name="Mystery Dungeon" solo="0">
        <instrumenttrack pan="0" pitch="0" basenote="57" usemasterpitch="1" vol="100" fxch="0" pitchrange="2">
          <instrument name="sf2player">
            <sf2player chorusLevel="2" reverbRoomSize="0.2" reverbLevel="0.9" chorusDepth="8" reverbDamping="0" patch="14" chorusOn="0" chorusSpeed="0.3" gain="1" chorusNum="3" bank="0" reverbWidth="0.5" reverbOn="0" src="/home/huggypie/samples/soundfonts/Mystery Dungeon.sf2"/>
          </instrument>
          <eldata fres="0.5" fcut="14000" fwet="0" ftype="0">
            <elvol lspd_numerator="4" userwavefile="" lshp="0" x100="0" amt="0" lspd_syncmode="0" ctlenvamt="0" dec="0.5" hold="0.5" lspd_denominator="4" sustain="0.5" lamt="0" lspd="0.1" pdel="0" att="0" lpdel="0" latt="0" rel="0.1"/>
            <elcut lspd_numerator="4" userwavefile="" lshp="0" x100="0" amt="0" lspd_syncmode="0" ctlenvamt="0" dec="0.5" hold="0.5" lspd_denominator="4" sustain="0.5" lamt="0" lspd="0.1" pdel="0" att="0" lpdel="0" latt="0" rel="0.1"/>
            <elres lspd_numerator="4" userwavefile="" lshp="0" x100="0" amt="0" lspd_syncmode="0" ctlenvamt="0" dec="0.5" hold="0.5" lspd_denominator="4" sustain="0.5" lamt="0" lspd="0.1" pdel="0" att="0" lpdel="0" latt="0" rel="0.1"/>
          </eldata>
          <chordcreator chordrange="1" chord="0" chord-enabled="0"/>
          <arpeggiator arpskip="0" arpmiss="0" arp-enabled="0" arpgate="100" arpdir="0" arpcycle="0" arprange="1" arptime_numerator="4" arptime_denominator="4" arptime_syncmode="0" arptime="200" arp="0" arpmode="0"/>
          <midiport outputcontroller="0" inputchannel="0" outputchannel="1" fixedoutputvelocity="-1" readable="0" inputcontroller="0" basevelocity="63" fixedoutputnote="-1" fixedinputvelocity="-1" outputprogram="1" writable="0"/>
          <fxchain enabled="0" numofeffects="0"/>
        </instrumenttrack>
        <pattern type="1" pos="24960" muted="0" name="Sf2 Player" steps="16">
          <note pan="0" pos="0" key="73" len="24" vol="78"/>
          <note pan="0" pos="24" key="69" len="24" vol="78"/>
          <note pan="0" pos="48" key="64" len="24" vol="78"/>
          <note pan="0" pos="72" key="61" len="24" vol="78"/>
          <note pan="0" pos="96" key="69" len="24" vol="78"/>
          <note pan="0" pos="120" key="64" len="24" vol="78"/>
          <note pan="0" pos="144" key="61" len="24" vol="78"/>
          <note pan="0" pos="168" key="57" len="24" vol="78"/>
          <note pan="0" pos="192" key="71" len="24" vol="78"/>
          <note pan="0" pos="216" key="68" len="24" vol="78"/>
          <note pan="0" pos="240" key="63" len="24" vol="78"/>
          <note pan="0" pos="264" key="59" len="24" vol="78"/>
          <note pan="0" pos="288" key="71" len="24" vol="78"/>
          <note pan="0" pos="312" key="68" len="24" vol="78"/>
          <note pan="0" pos="336" key="63" len="24" vol="78"/>
          <note pan="0" pos="360" key="59" len="24" vol="78"/>
          <note pan="0" pos="384" key="73" len="24" vol="78"/>
          <note pan="0" pos="408" key="68" len="24" vol="78"/>
          <note pan="0" pos="432" key="64" len="24" vol="78"/>
          <note pan="0" pos="456" key="61" len="24" vol="78"/>
          <note pan="0" pos="480" key="68" len="24" vol="78"/>
          <note pan="0" pos="504" key="64" len="24" vol="78"/>
          <note pan="0" pos="528" key="61" len="24" vol="78"/>
          <note pan="0" pos="552" key="56" len="24" vol="78"/>
          <note pan="0" pos="576" key="73" len="24" vol="78"/>
          <note pan="0" pos="600" key="68" len="24" vol="78"/>
          <note pan="0" pos="624" key="64" len="24" vol="78"/>
          <note pan="0" pos="648" key="61" len="24" vol="78"/>
          <note pan="0" pos="672" key="68" len="24" vol="78"/>
          <note pan="0" pos="696" key="64" len="24" vol="78"/>
          <note pan="0" pos="720" key="61" len="24" vol="78"/>
          <note pan="0" pos="744" key="56" len="24" vol="78"/>
          <note pan="0" pos="768" key="73" len="24" vol="78"/>
          <note pan="0" pos="792" key="68" len="24" vol="78"/>
          <note pan="0" pos="816" key="66" len="24" vol="78"/>
          <note pan="0" pos="840" key="61" len="24" vol="78"/>
          <note pan="0" pos="864" key="68" len="24" vol="78"/>
          <note pan="0" pos="888" key="66" len="24" vol="78"/>
          <note pan="0" pos="912" key="61" len="24" vol="78"/>
          <note pan="0" pos="936" key="59" len="24" vol="78"/>
          <note pan="0" pos="960" key="73" len="24" vol="78"/>
          <note pan="0" pos="984" key="68" len="24" vol="78"/>
          <note pan="0" pos="1008" key="66" len="24" vol="78"/>
          <note pan="0" pos="1032" key="61" len="24" vol="78"/>
          <note pan="0" pos="1056" key="68" len="24" vol="78"/>
          <note pan="0" pos="1080" key="66" len="24" vol="78"/>
          <note pan="0" pos="1104" key="61" len="24" vol="78"/>
          <note pan="0" pos="1128" key="57" len="24" vol="78"/>
          <note pan="0" pos="1152" key="73" len="24" vol="78"/>
          <note pan="0" pos="1176" key="70" len="24" vol="78"/>
          <note pan="0" pos="1200" key="66" len="24" vol="78"/>
          <note pan="0" pos="1224" key="61" len="24" vol="78"/>
          <note pan="0" pos="1248" key="70" len="24" vol="78"/>
          <note pan="0" pos="1272" key="66" len="24" vol="78"/>
          <note pan="0" pos="1296" key="61" len="24" vol="78"/>
          <note pan="0" pos="1320" key="58" len="24" vol="78"/>
          <note pan="0" pos="1344" key="73" len="24" vol="78"/>
          <note pan="0" pos="1368" key="70" len="24" vol="78"/>
          <note pan="0" pos="1392" key="66" len="24" vol="78"/>
          <note pan="0" pos="1416" key="61" len="24" vol="78"/>
          <note pan="0" pos="1440" key="70" len="24" vol="78"/>
          <note pan="0" pos="1464" key="66" len="24" vol="78"/>
          <note pan="0" pos="1488" key="61" len="24" vol="78"/>
          <note pan="0" pos="1512" key="58" len="24" vol="78"/>
          <note pan="0" pos="1536" key="73" len="24" vol="78"/>
          <note pan="0" pos="1560" key="69" len="24" vol="78"/>
          <note pan="0" pos="1584" key="66" len="24" vol="78"/>
          <note pan="0" pos="1608" key="61" len="24" vol="78"/>
          <note pan="0" pos="1632" key="69" len="24" vol="78"/>
          <note pan="0" pos="1656" key="66" len="24" vol="78"/>
          <note pan="0" pos="1680" key="61" len="24" vol="78"/>
          <note pan="0" pos="1704" key="57" len="24" vol="78"/>
          <note pan="0" pos="1728" key="73" len="24" vol="78"/>
          <note pan="0" pos="1752" key="69" len="24" vol="78"/>
          <note pan="0" pos="1776" key="66" len="24" vol="78"/>
          <note pan="0" pos="1800" key="61" len="24" vol="78"/>
          <note pan="0" pos="1824" key="69" len="24" vol="78"/>
          <note pan="0" pos="1848" key="66" len="24" vol="78"/>
          <note pan="0" pos="1872" key="61" len="24" vol="78"/>
          <note pan="0" pos="1896" key="57" len="24" vol="78"/>
          <note pan="0" pos="1920" key="73" len="24" vol="78"/>
          <note pan="0" pos="1944" key="69" len="24" vol="78"/>
          <note pan="0" pos="1968" key="66" len="24" vol="78"/>
          <note pan="0" pos="1992" key="61" len="24" vol="78"/>
          <note pan="0" pos="2016" key="69" len="24" vol="78"/>
          <note pan="0" pos="2040" key="66" len="24" vol="78"/>
          <note pan="0" pos="2064" key="61" len="24" vol="78"/>
          <note pan="0" pos="2088" key="57" len="24" vol="78"/>
          <note pan="0" pos="2112" key="69" len="24" vol="78"/>
          <note pan="0" pos="2136" key="73" len="24" vol="78"/>
          <note pan="0" pos="2160" key="76" len="24" vol="78"/>
          <note pan="0" pos="2184" key="73" len="24" vol="78"/>
          <note pan="0" pos="2208" key="78" len="24" vol="78"/>
          <note pan="0" pos="2232" key="73" len="24" vol="78"/>
          <note pan="0" pos="2256" key="78" len="24" vol="78"/>
          <note pan="0" pos="2280" key="73" len="24" vol="78"/>
          <note pan="0" pos="2304" key="78" len="24" vol="78"/>
          <note pan="0" pos="2328" key="71" len="24" vol="78"/>
          <note pan="0" pos="2352" key="78" len="24" vol="78"/>
          <note pan="0" pos="2376" key="71" len="24" vol="78"/>
          <note pan="0" pos="2400" key="78" len="24" vol="78"/>
          <note pan="0" pos="2424" key="71" len="24" vol="78"/>
          <note pan="0" pos="2448" key="78" len="24" vol="78"/>
          <note pan="0" pos="2472" key="71" len="24" vol="78"/>
          <note pan="0" pos="2496" key="73" len="24" vol="78"/>
          <note pan="0" pos="2520" key="69" len="24" vol="78"/>
          <note pan="0" pos="2544" key="66" len="24" vol="78"/>
          <note pan="0" pos="2568" key="61" len="24" vol="78"/>
          <note pan="0" pos="2592" key="69" len="24" vol="78"/>
          <note pan="0" pos="2616" key="66" len="24" vol="78"/>
          <note pan="0" pos="2640" key="61" len="24" vol="78"/>
          <note pan="0" pos="2664" key="57" len="24" vol="78"/>
          <note pan="0" pos="2688" key="73" len="24" vol="78"/>
          <note pan="0" pos="2712" key="69" len="24" vol="78"/>
          <note pan="0" pos="2736" key="66" len="24" vol="78"/>
          <note pan="0" pos="2760" key="61" len="24" vol="78"/>
          <note pan="0" pos="2784" key="69" len="24" vol="78"/>
          <note pan="0" pos="2808" key="66" len="24" vol="78"/>
          <note pan="0" pos="2832" key="61" len="24" vol="78"/>
          <note pan="0" pos="2856" key="57" len="24" vol="78"/>
          <note pan="0" pos="2880" key="73" len="24" vol="78"/>
          <note pan="0" pos="2904" key="69" len="24" vol="78"/>
          <note pan="0" pos="2928" key="66" len="24" vol="78"/>
          <note pan="0" pos="2952" key="61" len="24" vol="78"/>
          <note pan="0" pos="2976" key="69" len="24" vol="78"/>
          <note pan="0" pos="3000" key="66" len="24" vol="78"/>
          <note pan="0" pos="3024" key="61" len="24" vol="78"/>
          <note pan="0" pos="3048" key="57" len="24" vol="78"/>
        </pattern>
        <pattern type="1" pos="56448" muted="0" name="Sf2 Player" steps="16">
          <note pan="0" pos="0" key="73" len="24" vol="78"/>
          <note pan="0" pos="24" key="69" len="24" vol="78"/>
          <note pan="0" pos="48" key="64" len="24" vol="78"/>
          <note pan="0" pos="72" key="61" len="24" vol="78"/>
          <note pan="0" pos="96" key="69" len="24" vol="78"/>
          <note pan="0" pos="120" key="64" len="24" vol="78"/>
          <note pan="0" pos="144" key="61" len="24" vol="78"/>
          <note pan="0" pos="168" key="57" len="24" vol="78"/>
          <note pan="0" pos="192" key="71" len="24" vol="78"/>
          <note pan="0" pos="216" key="68" len="24" vol="78"/>
          <note pan="0" pos="240" key="63" len="24" vol="78"/>
          <note pan="0" pos="264" key="59" len="24" vol="78"/>
          <note pan="0" pos="288" key="71" len="24" vol="78"/>
          <note pan="0" pos="312" key="68" len="24" vol="78"/>
          <note pan="0" pos="336" key="63" len="24" vol="78"/>
          <note pan="0" pos="360" key="59" len="24" vol="78"/>
          <note pan="0" pos="384" key="73" len="24" vol="78"/>
          <note pan="0" pos="408" key="68" len="24" vol="78"/>
          <note pan="0" pos="432" key="64" len="24" vol="78"/>
          <note pan="0" pos="456" key="61" len="24" vol="78"/>
          <note pan="0" pos="480" key="68" len="24" vol="78"/>
          <note pan="0" pos="504" key="64" len="24" vol="78"/>
          <note pan="0" pos="528" key="61" len="24" vol="78"/>
          <note pan="0" pos="552" key="56" len="24" vol="78"/>
          <note pan="0" pos="576" key="73" len="24" vol="78"/>
          <note pan="0" pos="600" key="68" len="24" vol="78"/>
          <note pan="0" pos="624" key="64" len="24" vol="78"/>
          <note pan="0" pos="648" key="61" len="24" vol="78"/>
          <note pan="0" pos="672" key="68" len="24" vol="78"/>
          <note pan="0" pos="696" key="64" len="24" vol="78"/>
          <note pan="0" pos="720" key="61" len="24" vol="78"/>
          <note pan="0" pos="744" key="56" len="24" vol="78"/>
          <note pan="0" pos="768" key="73" len="24" vol="78"/>
          <note pan="0" pos="792" key="68" len="24" vol="78"/>
          <note pan="0" pos="816" key="66" len="24" vol="78"/>
          <note pan="0" pos="840" key="61" len="24" vol="78"/>
          <note pan="0" pos="864" key="68" len="24" vol="78"/>
          <note pan="0" pos="888" key="66" len="24" vol="78"/>
          <note pan="0" pos="912" key="61" len="24" vol="78"/>
          <note pan="0" pos="936" key="59" len="24" vol="78"/>
          <note pan="0" pos="960" key="73" len="24" vol="78"/>
          <note pan="0" pos="984" key="68" len="24" vol="78"/>
          <note pan="0" pos="1008" key="66" len="24" vol="78"/>
          <note pan="0" pos="1032" key="61" len="24" vol="78"/>
          <note pan="0" pos="1056" key="68" len="24" vol="78"/>
          <note pan="0" pos="1080" key="66" len="24" vol="78"/>
          <note pan="0" pos="1104" key="61" len="24" vol="78"/>
          <note pan="0" pos="1128" key="57" len="24" vol="78"/>
          <note pan="0" pos="1152" key="73" len="24" vol="78"/>
          <note pan="0" pos="1176" key="70" len="24" vol="78"/>
          <note pan="0" pos="1200" key="66" len="24" vol="78"/>
          <note pan="0" pos="1224" key="61" len="24" vol="78"/>
          <note pan="0" pos="1248" key="70" len="24" vol="78"/>
          <note pan="0" pos="1272" key="66" len="24" vol="78"/>
          <note pan="0" pos="1296" key="61" len="24" vol="78"/>
          <note pan="0" pos="1320" key="58" len="24" vol="78"/>
          <note pan="0" pos="1344" key="73" len="24" vol="78"/>
          <note pan="0" pos="1368" key="70" len="24" vol="78"/>
          <note pan="0" pos="1392" key="66" len="24" vol="78"/>
          <note pan="0" pos="1416" key="61" len="24" vol="78"/>
          <note pan="0" pos="1440" key="70" len="24" vol="78"/>
          <note pan="0" pos="1464" key="66" len="24" vol="78"/>
          <note pan="0" pos="1488" key="61" len="24" vol="78"/>
          <note pan="0" pos="1512" key="58" len="24" vol="78"/>
          <note pan="0" pos="1536" key="73" len="24" vol="78"/>
          <note pan="0" pos="1560" key="69" len="24" vol="78"/>
          <note pan="0" pos="1584" key="66" len="24" vol="78"/>
          <note pan="0" pos="1608" key="61" len="24" vol="78"/>
          <note pan="0" pos="1632" key="69" len="24" vol="78"/>
          <note pan="0" pos="1656" key="66" len="24" vol="78"/>
          <note pan="0" pos="1680" key="61" len="24" vol="78"/>
          <note pan="0" pos="1704" key="57" len="24" vol="78"/>
          <note pan="0" pos="1728" key="73" len="24" vol="78"/>
          <note pan="0" pos="1752" key="69" len="24" vol="78"/>
          <note pan="0" pos="1776" key="66" len="24" vol="78"/>
          <note pan="0" pos="1800" key="61" len="24" vol="78"/>
          <note pan="0" pos="1824" key="69" len="24" vol="78"/>
          <note pan="0" pos="1848" key="66" len="24" vol="78"/>
          <note pan="0" pos="1872" key="61" len="24" vol="78"/>
          <note pan="0" pos="1896" key="57" len="24" vol="78"/>
          <note pan="0" pos="1920" key="73" len="24" vol="78"/>
          <note pan="0" pos="1944" key="69" len="24" vol="78"/>
          <note pan="0" pos="1968" key="66" len="24" vol="78"/>
          <note pan="0" pos="1992" key="61" len="24" vol="78"/>
          <note pan="0" pos="2016" key="69" len="24" vol="78"/>
          <note pan="0" pos="2040" key="66" len="24" vol="78"/>
          <note pan="0" pos="2064" key="61" len="24" vol="78"/>
          <note pan="0" pos="2088" key="57" len="24" vol="78"/>
          <note pan="0" pos="2112" key="69" len="24" vol="78"/>
          <note pan="0" pos="2136" key="73" len="24" vol="78"/>
          <note pan="0" pos="2160" key="76" len="24" vol="78"/>
          <note pan="0" pos="2184" key="73" len="24" vol="78"/>
          <note pan="0" pos="2208" key="78" len="24" vol="78"/>
          <note pan="0" pos="2232" key="73" len="24" vol="78"/>
          <note pan="0" pos="2256" key="78" len="24" vol="78"/>
          <note pan="0" pos="2280" key="73" len="24" vol="78"/>
          <note pan="0" pos="2304" key="78" len="24" vol="78"/>
          <note pan="0" pos="2328" key="71" len="24" vol="78"/>
          <note pan="0" pos="2352" key="78" len="24" vol="78"/>
          <note pan="0" pos="2376" key="71" len="24" vol="78"/>
          <note pan="0" pos="2400" key="78" len="24" vol="78"/>
          <note pan="0" pos="2424" key="71" len="24" vol="78"/>
          <note pan="0" pos="2448" key="78" len="24" vol="78"/>
          <note pan="0" pos="2472" key="71" len="24" vol="78"/>
          <note pan="0" pos="2496" key="73" len="24" vol="78"/>
          <note pan="0" pos="2520" key="69" len="24" vol="78"/>
          <note pan="0" pos="2544" key="66" len="24" vol="78"/>
          <note pan="0" pos="2568" key="61" len="24" vol="78"/>
          <note pan="0" pos="2592" key="69" len="24" vol="78"/>
          <note pan="0" pos="2616" key="66" len="24" vol="78"/>
          <note pan="0" pos="2640" key="61" len="24" vol="78"/>
          <note pan="0" pos="2664" key="57" len="24" vol="78"/>
          <note pan="0" pos="2688" key="73" len="24" vol="78"/>
          <note pan="0" pos="2712" key="69" len="24" vol="78"/>
          <note pan="0" pos="2736" key="66" len="24" vol="78"/>
          <note pan="0" pos="2760" key="61" len="24" vol="78"/>
          <note pan="0" pos="2784" key="69" len="24" vol="78"/>
          <note pan="0" pos="2808" key="66" len="24" vol="78"/>
          <note pan="0" pos="2832" key="61" len="24" vol="78"/>
          <note pan="0" pos="2856" key="57" len="24" vol="78"/>
          <note pan="0" pos="2880" key="73" len="24" vol="78"/>
          <note pan="0" pos="2904" key="69" len="24" vol="78"/>
          <note pan="0" pos="2928" key="66" len="24" vol="78"/>
          <note pan="0" pos="2952" key="61" len="24" vol="78"/>
          <note pan="0" pos="2976" key="69" len="24" vol="78"/>
          <note pan="0" pos="3000" key="66" len="24" vol="78"/>
          <note pan="0" pos="3024" key="61" len="24" vol="78"/>
          <note pan="0" pos="3048" key="57" len="24" vol="78"/>
        </pattern>
      </track>
      <track type="1" muted="0" name="Beat/Bassline 10" solo="0">
        <bbtrack/>
        <bbtco color="4286611584" pos="3456" muted="0" usestyle="1" name="" len="768"/>
        <bbtco color="4286611584" pos="34944" muted="0" usestyle="1" name="" len="768"/>
      </track>
      <track type="1" muted="0" name="Clone of Beat/Bassline 11" solo="0">
        <bbtrack/>
      </track>
      <track type="1" muted="0" name="Beat/Bassline 15" solo="0">
        <bbtrack/>
        <bbtco color="4286611584" pos="3072" muted="0" usestyle="1" name="" len="384"/>
      </track>
      <track type="1" muted="0" name="Beat/Bassline 16" solo="0">
        <bbtrack/>
        <bbtco color="4286611584" pos="7872" muted="0" usestyle="1" name="" len="192"/>
        <bbtco color="4286611584" pos="56448" muted="0" usestyle="1" name="" len="192"/>
        <bbtco color="4286611584" pos="39360" muted="0" usestyle="1" name="" len="192"/>
      </track>
      <track type="1" muted="0" name="Beat/Bassline 17" solo="0">
        <bbtrack/>
        <bbtco color="4286611584" pos="13824" muted="0" usestyle="1" name="" len="384"/>
      </track>
      <track type="1" muted="0" name="Beat/Bassline 20" solo="0">
        <bbtrack/>
        <bbtco color="4286611584" pos="24960" muted="0" usestyle="1" name="" len="1536"/>
      </track>
      <track type="1" muted="0" name="Clone of Beat/Bassline 20" solo="0">
        <bbtrack/>
        <bbtco color="4286611584" pos="26496" muted="0" usestyle="1" name="" len="768"/>
      </track>
      <track type="1" muted="0" name="Clone of Clone of Beat/Bassline 20" solo="0">
        <bbtrack/>
        <bbtco color="4286611584" pos="27264" muted="0" usestyle="1" name="" len="768"/>
        <bbtco color="4286611584" pos="28032" muted="0" usestyle="1" name="" len="576"/>
      </track>
      <track type="1" muted="0" name="Beat/Bassline 23" solo="0">
        <bbtrack/>
        <bbtco color="4286611584" pos="28800" muted="0" usestyle="1" name="" len="3072"/>
      </track>
      <track type="5" muted="0" name="Automation track" solo="0">
        <automationtrack/>
        <automationpattern prog="0" mute="0" pos="0" name="AM pitchshifter>Effect enabled" tens="1" len="192">
          <time pos="0" value="0"/>
          <object id="8166122"/>
        </automationpattern>
        <automationpattern prog="0" mute="0" pos="13248" name="AM pitchshifter>Effect enabled" tens="1" len="192">
          <time pos="0" value="1"/>
          <object id="8166122"/>
        </automationpattern>
        <automationpattern prog="0" mute="0" pos="13824" name="AM pitchshifter>Effect enabled" tens="1" len="192">
          <time pos="0" value="0"/>
          <object id="8166122"/>
        </automationpattern>
      </track>
      <track type="2" muted="1" name="lgt" solo="0">
        <sampletrack pan="0" vol="69.6">
          <fxchain enabled="1" numofeffects="1">
            <effect wet="1" name="ladspaeffect" autoquit_syncmode="0" autoquit_denominator="4" autoquit="1" autoquit_numerator="4" gate="0">
              <on id="2274258" scale_type="linear" value="0"/>
              <ladspacontrols link="1" ports="4">
                <port00 link="1">
                  <data id="2557451" scale_type="log" value="0.25"/>
                </port00>
                <port01 link="1" data="4"/>
                <port10>
                  <data id="5387230" scale_type="log" value="0.25"/>
                </port10>
                <port11 data="4"/>
              </ladspacontrols>
              <key>
                <attribute name="file" value="am_pitchshift_1433"/>
                <attribute name="plugin" value="amPitchshift"/>
              </key>
            </effect>
          </fxchain>
        </sampletrack>
      </track>
      <track type="2" muted="1" name="rgt" solo="0">
        <sampletrack pan="0" vol="81">
          <fxchain enabled="1" numofeffects="2">
            <effect wet="1" name="ladspaeffect" autoquit_syncmode="0" autoquit_denominator="4" autoquit="1" autoquit_numerator="4" gate="0">
              <on id="8166122" scale_type="linear" value="0"/>
              <ladspacontrols link="1" ports="4">
                <port00 link="1">
                  <data id="4307265" scale_type="log" value="1.52069"/>
                </port00>
                <port01 link="1" data="4"/>
                <port10>
                  <data id="1768188" scale_type="log" value="1.52069"/>
                </port10>
                <port11 data="4"/>
              </ladspacontrols>
              <key>
                <attribute name="file" value="am_pitchshift_1433"/>
                <attribute name="plugin" value="amPitchshift"/>
              </key>
            </effect>
            <effect wet="1" name="eq" autoquit_syncmode="0" on="1" autoquit_denominator="4" autoquit="1" autoquit_numerator="4" gate="0">
              <Eq Peak3gain="-6.48" Lowshelfgain="0" HPres="0.707" Peak4gain="0" HighShelfres="1.4" HighShelfgain="0" Peak3active="1" HP24="0" Peak4active="0" Lowshelfactive="0" Peak4bw="0.3" LPres="0.707" LP24="0" Outputgain="0" AnalyseIn="1" Peak2bw="0.3" LPactive="0" HP48="0" LowShelfres="1.4" HP12="1" Peak2gain="0" AnalyseOut="1" LP12="1" HP="0" Peak1active="0" Peak2active="0" LP="0" Highshelfactive="0" LP48="0" Peak3bw="0.416" Peak1bw="0.3" HPactive="1">
                <Inputgain id="825244" scale_type="log" value="0"/>
                <Peak1gain id="5740135" scale_type="log" value="0"/>
                <HPfreq id="2263674" scale_type="log" value="101.087"/>
                <LowShelffreq id="891990" scale_type="log" value="80"/>
                <Peak1freq id="6707296" scale_type="log" value="120"/>
                <Peak2freq id="4630572" scale_type="log" value="250"/>
                <Peak3freq id="5800292" scale_type="log" value="808.531"/>
                <Peak4freq id="2682057" scale_type="log" value="4000"/>
                <Highshelffreq id="4630541" scale_type="log" value="12000"/>
                <LPfreq id="3765193" scale_type="log" value="18000"/>
              </Eq>
              <key/>
            </effect>
          </fxchain>
        </sampletrack>
      </track>
      <track type="0" muted="0" name="its not over yet kid.wav" solo="0">
        <instrumenttrack pan="0" pitch="0" basenote="57" usemasterpitch="1" vol="139.2" fxch="0" pitchrange="1">
          <instrument name="audiofileprocessor">
            <audiofileprocessor looped="0" stutter="0" reversed="0" lframe="0" amp="100" eframe="1" sframe="0" interp="1" src="/home/huggypie/samples/its not over yet kid.wav"/>
          </instrument>
          <eldata fres="0.5" fcut="14000" fwet="0" ftype="0">
            <elvol lspd_numerator="4" userwavefile="" lshp="0" x100="0" amt="0" lspd_syncmode="0" ctlenvamt="0" dec="0.5" hold="0.5" lspd_denominator="4" sustain="0.5" lamt="0" lspd="0.1" pdel="0" att="0" lpdel="0" latt="0" rel="0.1"/>
            <elcut lspd_numerator="4" userwavefile="" lshp="0" x100="0" amt="0" lspd_syncmode="0" ctlenvamt="0" dec="0.5" hold="0.5" lspd_denominator="4" sustain="0.5" lamt="0" lspd="0.1" pdel="0" att="0" lpdel="0" latt="0" rel="0.1"/>
            <elres lspd_numerator="4" userwavefile="" lshp="0" x100="0" amt="0" lspd_syncmode="0" ctlenvamt="0" dec="0.5" hold="0.5" lspd_denominator="4" sustain="0.5" lamt="0" lspd="0.1" pdel="0" att="0" lpdel="0" latt="0" rel="0.1"/>
          </eldata>
          <chordcreator chordrange="1" chord="0" chord-enabled="0"/>
          <arpeggiator arpskip="0" arpmiss="0" arp-enabled="0" arpgate="100" arpdir="0" arpcycle="0" arprange="1" arptime_numerator="4" arptime_denominator="4" arptime_syncmode="0" arptime="200" arp="0" arpmode="0"/>
          <midiport outputcontroller="0" inputchannel="0" outputchannel="1" fixedoutputvelocity="-1" readable="0" inputcontroller="0" basevelocity="63" fixedoutputnote="-1" fixedinputvelocity="-1" outputprogram="1" writable="0"/>
          <fxchain enabled="0" numofeffects="0"/>
        </instrumenttrack>
        <pattern type="1" pos="43584" muted="0" name="its not over yet kid.wav" steps="16">
          <note pan="0" pos="0" key="57" len="756" vol="78"/>
        </pattern>
      </track>
      <track type="1" muted="0" name="Beat/Bassline 25" solo="0">
        <bbtrack/>
        <bbtco color="4286611584" pos="47040" muted="0" usestyle="1" name="" len="192"/>
      </track>
      <track type="1" muted="0" name="Beat/Bassline 26" solo="0">
        <bbtrack/>
        <bbtco color="4286611584" pos="42240" muted="0" usestyle="1" name="" len="192"/>
      </track>
    </trackcontainer>
    <track type="6" muted="0" name="Automation track" solo="0">
      <automationtrack/>
      <automationpattern prog="0" mute="0" pos="0" name="Numerator" tens="1" len="192"/>
      <automationpattern prog="0" mute="0" pos="0" name="Denominator" tens="1" len="192"/>
      <automationpattern prog="0" mute="0" pos="0" name="Tempo" tens="1" len="192"/>
      <automationpattern prog="0" mute="0" pos="0" name="Master volume" tens="1" len="192"/>
      <automationpattern prog="0" mute="0" pos="0" name="Master pitch" tens="1" len="192"/>
      <automationpattern prog="0" mute="0" pos="0" name="Numerator" tens="1" len="0">
        <time pos="0" value="4"/>
        <object id="545120"/>
      </automationpattern>
      <automationpattern prog="0" mute="0" pos="0" name="Denominator" tens="1" len="0">
        <time pos="0" value="4"/>
        <object id="114903"/>
      </automationpattern>
      <automationpattern prog="0" mute="0" pos="0" name="Tempo" tens="1" len="0">
        <time pos="0" value="184.001"/>
        <object id="2356958"/>
      </automationpattern>
    </track>
    <fxmixer width="1260" visible="0" maximized="0" minimized="0" height="333" y="82" x="-87">
      <fxchannel soloed="0" muted="0" num="0" name="Master" volume="0.568">
        <fxchain enabled="1" numofeffects="2">
          <effect wet="1" name="amplifier" autoquit_syncmode="0" on="0" autoquit_denominator="4" autoquit="1" autoquit_numerator="4" gate="0">
            <AmplifierControls pan="0" left="100" right="100" volume="184.8"/>
            <key/>
          </effect>
          <effect wet="1" name="ladspaeffect" autoquit_syncmode="0" on="1" autoquit_denominator="4" autoquit="1" autoquit_numerator="4" gate="0">
            <ladspacontrols ports="10">
              <port04 data="0"/>
              <port05 data="0"/>
              <port010 data="0.250732"/>
              <port011 data="2.35125"/>
              <port012>
                <data id="2180469" scale_type="log" value="4.47214"/>
              </port012>
              <port013>
                <data id="4026400" scale_type="log" value="94.5742"/>
              </port013>
              <port014 data="1"/>
              <port015 data="2.75"/>
              <port016 data="1"/>
              <port017 data="1"/>
            </ladspacontrols>
            <key>
              <attribute name="file" value="calf"/>
              <attribute name="plugin" value="Compressor"/>
            </key>
          </effect>
        </fxchain>
      </fxchannel>
      <fxchannel soloed="0" muted="0" num="1" name="kick" volume="0.535">
        <fxchain enabled="0" numofeffects="0"/>
        <send channel="0" amount="1"/>
        <send channel="10" amount="0.512"/>
      </fxchannel>
      <fxchannel soloed="0" muted="0" num="2" name="hat" volume="0.302">
        <fxchain enabled="0" numofeffects="0"/>
        <send channel="0" amount="1"/>
        <send channel="10" amount="0.38"/>
      </fxchannel>
      <fxchannel soloed="0" muted="0" num="3" name="snare" volume="0.574">
        <fxchain enabled="1" numofeffects="1">
          <effect wet="1" name="eq" autoquit_syncmode="0" on="1" autoquit_denominator="4" autoquit="1" autoquit_numerator="4" gate="0">
            <Eq Peak3gain="0" Lowshelfgain="0" HPres="0.707" Peak4gain="-0.718001" HighShelfres="1.435" HighShelfgain="5.04" Peak3active="0" HP24="0" Peak4active="1" Lowshelfactive="0" Peak4bw="0.3" LPres="0.707" LP24="0" Outputgain="0" AnalyseIn="1" Peak2bw="0.3" LPactive="1" HP48="0" LowShelfres="1.4" HP12="1" Peak2gain="0" AnalyseOut="1" LP12="1" HP="0" Peak1active="0" Peak2active="0" LP="0" Highshelfactive="1" LP48="0" Peak3bw="0.3" Peak1bw="0.3" HPactive="0">
              <Inputgain id="6753652" scale_type="log" value="0"/>
              <Peak1gain id="8257704" scale_type="log" value="0"/>
              <HPfreq id="2234845" scale_type="log" value="31"/>
              <LowShelffreq id="5016811" scale_type="log" value="80"/>
              <Peak1freq id="5537746" scale_type="log" value="120"/>
              <Peak2freq id="6539813" scale_type="log" value="250"/>
              <Peak3freq id="6999518" scale_type="log" value="2000"/>
              <Peak4freq id="770028" scale_type="log" value="4000"/>
              <Highshelffreq id="3686018" scale_type="log" value="2497.52"/>
              <LPfreq id="7588449" scale_type="log" value="13865.6"/>
            </Eq>
            <key/>
          </effect>
        </fxchain>
        <send channel="0" amount="1"/>
        <send channel="10" amount="0.316"/>
      </fxchannel>
      <fxchannel soloed="0" muted="0" num="4" name="crash1" volume="0.546">
        <fxchain enabled="0" numofeffects="0"/>
        <send channel="0" amount="1"/>
        <send channel="10" amount="0.724"/>
      </fxchannel>
      <fxchannel soloed="0" muted="0" num="5" name="crash2" volume="0.534">
        <fxchain enabled="0" numofeffects="0"/>
        <send channel="0" amount="1"/>
        <send channel="10" amount="0.76"/>
      </fxchannel>
      <fxchannel soloed="0" muted="0" num="6" name="china" volume="0.884">
        <fxchain enabled="0" numofeffects="0"/>
        <send channel="0" amount="1"/>
        <send channel="10" amount="0.292"/>
      </fxchannel>
      <fxchannel soloed="0" muted="0" num="7" name="hitom" volume="0.512">
        <fxchain enabled="0" numofeffects="0"/>
        <send channel="0" amount="1"/>
        <send channel="10" amount="0.42"/>
      </fxchannel>
      <fxchannel soloed="0" muted="0" num="8" name="midtom" volume="0.534">
        <fxchain enabled="0" numofeffects="0"/>
        <send channel="0" amount="1"/>
        <send channel="10" amount="0.412"/>
      </fxchannel>
      <fxchannel soloed="0" muted="0" num="9" name="lotom" volume="0.418">
        <fxchain enabled="0" numofeffects="0"/>
        <send channel="0" amount="1"/>
        <send channel="10" amount="0.432"/>
      </fxchannel>
      <fxchannel soloed="0" muted="0" num="10" name="DRUM PLATE" volume="0.535">
        <fxchain enabled="1" numofeffects="2">
          <effect wet="1" name="ladspaeffect" autoquit_syncmode="0" on="1" autoquit_denominator="4" autoquit="1" autoquit_numerator="4" gate="0">
            <ladspacontrols ports="4">
              <port02 data="0.76538"/>
              <port03 data="0.145119"/>
              <port04 data="0.0005"/>
              <port05 data="1"/>
            </ladspacontrols>
            <key>
              <attribute name="file" value="caps"/>
              <attribute name="plugin" value="Plate2x2"/>
            </key>
          </effect>
          <effect wet="1" name="eq" autoquit_syncmode="0" on="1" autoquit_denominator="4" autoquit="1" autoquit_numerator="4" gate="0">
            <Eq Peak3gain="0" Lowshelfgain="0" HPres="0.707" Peak4gain="0.36" HighShelfres="1.4" HighShelfgain="1.62" Peak3active="0" HP24="0" Peak4active="1" Lowshelfactive="0" Peak4bw="0.3" LPres="0.707" LP24="0" Outputgain="0" AnalyseIn="1" Peak2bw="0.3" LPactive="0" HP48="0" LowShelfres="1.4" HP12="1" Peak2gain="0" AnalyseOut="1" LP12="1" HP="0" Peak1active="0" Peak2active="0" LP="0" Highshelfactive="1" LP48="0" Peak3bw="0.3" Peak1bw="0.3" HPactive="1">
              <Inputgain id="217936" scale_type="log" value="0"/>
              <Peak1gain id="1412862" scale_type="log" value="0"/>
              <HPfreq id="7725025" scale_type="log" value="175.669"/>
              <LowShelffreq id="399642" scale_type="log" value="80"/>
              <Peak1freq id="3213708" scale_type="log" value="120"/>
              <Peak2freq id="1180890" scale_type="log" value="250"/>
              <Peak3freq id="5654965" scale_type="log" value="2000"/>
              <Peak4freq id="757114" scale_type="log" value="3592.47"/>
              <Highshelffreq id="3326661" scale_type="log" value="610.728"/>
              <LPfreq id="825391" scale_type="log" value="18000"/>
            </Eq>
            <key/>
          </effect>
        </fxchain>
        <send channel="0" amount="1"/>
      </fxchannel>
      <fxchannel soloed="0" muted="0" num="11" name="rhythm guitar" volume="0.648">
        <fxchain enabled="1" numofeffects="4">
          <effect wet="1" name="ladspaeffect" autoquit_syncmode="0" on="1" autoquit_denominator="4" autoquit="1" autoquit_numerator="4" gate="0">
            <ladspacontrols link="1" ports="4">
              <port00 link="1">
                <data id="7309738" scale_type="log" value="1.00288"/>
              </port00>
              <port01 link="1" data="4"/>
              <port10>
                <data id="4894491" scale_type="log" value="1.00288"/>
              </port10>
              <port11 data="4"/>
            </ladspacontrols>
            <key>
              <attribute name="file" value="am_pitchshift_1433"/>
              <attribute name="plugin" value="amPitchshift"/>
            </key>
          </effect>
          <effect wet="1" name="ladspaeffect" autoquit_syncmode="0" on="1" autoquit_denominator="4" autoquit="1" autoquit_numerator="4" gate="0">
            <ladspacontrols link="1" ports="4">
              <port00 link="1">
                <data id="2205805" scale_type="log" value="3052.97"/>
              </port00>
              <port01 link="1" data="1.18064"/>
              <port10>
                <data id="1377170" scale_type="log" value="3052.97"/>
              </port10>
              <port11 data="1.18064"/>
            </ladspacontrols>
            <key>
              <attribute name="file" value="butterworth_1902"/>
              <attribute name="plugin" value="buttlow_iir"/>
            </key>
          </effect>
          <effect wet="1" name="ladspaeffect" autoquit_syncmode="0" on="1" autoquit_denominator="4" autoquit="1" autoquit_numerator="4" gate="0">
            <ladspacontrols link="1" ports="14">
              <port01 link="1" data="2"/>
              <port02 link="1" data="2.88"/>
              <port03 link="1" data="0.5"/>
              <port04 link="1" data="0"/>
              <port05 link="1" data="0.955"/>
              <port06 link="1" data="0.912409"/>
              <port07 link="1" data="0.750025"/>
              <port11 data="2"/>
              <port12 data="2.88"/>
              <port13 data="0.5"/>
              <port14 data="0"/>
              <port15 data="0.955"/>
              <port16 data="0.912409"/>
              <port17 data="0.750025"/>
            </ladspacontrols>
            <key>
              <attribute name="file" value="caps"/>
              <attribute name="plugin" value="AmpVTS"/>
            </key>
          </effect>
          <effect wet="1" name="ladspaeffect" autoquit_syncmode="0" on="1" autoquit_denominator="4" autoquit="1" autoquit_numerator="4" gate="0">
            <ladspacontrols link="1" ports="4">
              <port01 link="1" data="5"/>
              <port02 link="1" data="0"/>
              <port11 data="5"/>
              <port12 data="0"/>
            </ladspacontrols>
            <key>
              <attribute name="file" value="caps"/>
              <attribute name="plugin" value="CabinetII"/>
            </key>
          </effect>
        </fxchain>
        <send channel="0" amount="1"/>
      </fxchannel>
      <fxchannel soloed="0" muted="0" num="12" name="lgt" volume="0.853">
        <fxchain enabled="1" numofeffects="5">
          <effect wet="1" name="ladspaeffect" autoquit_syncmode="0" autoquit_denominator="4" autoquit="1" autoquit_numerator="4" gate="0">
            <on id="2786011" scale_type="linear" value="0"/>
            <ladspacontrols link="1" ports="4">
              <port00 link="1">
                <data id="485849" scale_type="log" value="1"/>
              </port00>
              <port01 link="1" data="4"/>
              <port10>
                <data id="4168014" scale_type="log" value="1"/>
              </port10>
              <port11 data="4"/>
            </ladspacontrols>
            <key>
              <attribute name="file" value="am_pitchshift_1433"/>
              <attribute name="plugin" value="amPitchshift"/>
            </key>
          </effect>
          <effect wet="1" name="ladspaeffect" autoquit_syncmode="0" on="1" autoquit_denominator="4" autoquit="1" autoquit_numerator="4" gate="0">
            <ladspacontrols link="1" ports="4">
              <port00 link="1">
                <data id="354059" scale_type="log" value="13230"/>
              </port00>
              <port01 link="1" data="1"/>
              <port10>
                <data id="451672" scale_type="log" value="13230"/>
              </port10>
              <port11 data="1"/>
            </ladspacontrols>
            <key>
              <attribute name="file" value="pointer_cast_1910"/>
              <attribute name="plugin" value="pointerCastDistortion"/>
            </key>
          </effect>
          <effect wet="1" name="waveshaper" autoquit_syncmode="0" on="0" autoquit_denominator="4" autoquit="1" autoquit_numerator="4" gate="0">
            <waveshapercontrols waveShape="AACAPwAAgD8AAIA/AACAPwAAgD8AAIA/AACAPwAAgD8AAIA/AACAPwAAgD8AAIA/AACAPwAAgD8AAIA/AACAPwAAgD8AAIA/AACAPwAAgD8AAIA/AACAPwAAgD8AAIA/AACAPwAAgD8AAIA/AACAPwAAgD8AAIA/AACAPwAAgD8AAIA/AACAPwAAgD8AAIA/AACAPwAAgD8AAIA/AACAPwAAgD8AAIA/AACAPwAAgD8AAIA/AACAPwAAgD8AAIA/AACAPwAAgD8AAIA/AACAPwAAgD8AAIA/AACAPwAAgD8AAIA/AACAPwAAgD8AAIA/AACAPwAAgD8AAIA/AACAPwAAgD8AAIA/AACAPwAAgD8AAIA/AACAPwAAgD8AAIA/AACAPwAAgD8AAIA/AACAPwAAgD8AAIA/AACAPwAAgD8AAIA/AACAPwAAgD8AAIA/AACAPwAAgD8AAIA/AACAPwAAgD8AAIA/AACAPwAAgD8AAIA/AACAPwAAgD8AAIA/AACAPwAAgD8AAIA/AACAPwAAgD8AAIA/AACAPwAAgD8AAIA/AACAPwAAgD8AAIA/AACAPwAAgD8AAIA/AACAPwAAgD8AAIA/AACAPwAAgD8AAIA/AACAPwAAgD8AAIA/AACAPwAAgD8AAIA/AACAPwAAgD8AAIA/AACAPwAAgD8AAIA/AACAPwAAgD8AAIA/AACAPwAAgD8AAIA/AACAPwAAgD8AAIA/AACAPwAAgD8AAIA/AACAPwAAgD8AAIA/AACAPwAAgD8AAIA/AACAPwAAgD8AAIA/AACAPwAAgD8AAIA/AACAPwAAgD8AAIA/AACAPwAAgD8AAIA/AACAPwAAgD8AAIA/AACAPwAAgD8AAIA/AACAPwAAgD8AAIA/AACAPwAAgD8AAIA/AACAPwAAgD8AAIA/AACAPwAAgD8AAIA/AACAPwAAgD8AAIA/AACAPwAAgD8AAIA/AACAPwAAgD8AAIA/AACAPwAAgD8AAIA/AACAP8aSfz+MJX8/Urh+P1K4fj9SuH4/Urh+P/YofD/2KHw/Urh+PwAAgD8=" clipInput="0" inputGain="1.14" outputGain="0.3"/>
            <key/>
          </effect>
          <effect wet="1" name="ladspaeffect" autoquit_syncmode="0" on="1" autoquit_denominator="4" autoquit="1" autoquit_numerator="4" gate="0">
            <ladspacontrols link="1" ports="4">
              <port01 link="1" data="1"/>
              <port02 link="1" data="0"/>
              <port11 data="1"/>
              <port12 data="0"/>
            </ladspacontrols>
            <key>
              <attribute name="file" value="caps"/>
              <attribute name="plugin" value="CabinetII"/>
            </key>
          </effect>
          <effect wet="1" name="ladspaeffect" autoquit_syncmode="0" on="0" autoquit_denominator="4" autoquit="1" autoquit_numerator="4" gate="0">
            <ladspacontrols ports="1">
              <port02 data="0.29125"/>
            </ladspacontrols>
            <key>
              <attribute name="file" value="caps"/>
              <attribute name="plugin" value="Narrower"/>
            </key>
          </effect>
        </fxchain>
        <send channel="0" amount="1"/>
        <send channel="13" amount="0.484"/>
      </fxchannel>
      <fxchannel soloed="0" muted="0" num="13" name="FX 14" volume="0.535">
        <fxchain enabled="1" numofeffects="1">
          <effect wet="1" name="ladspaeffect" autoquit_syncmode="0" on="1" autoquit_denominator="4" autoquit="1" autoquit_numerator="4" gate="0">
            <ladspacontrols link="0" ports="4">
              <port00 link="0" data="112.5" data_syncmode="0" data_denominator="4" data_numerator="4"/>
              <port01 link="0" data="0" data_syncmode="0" data_denominator="4" data_numerator="4"/>
              <port10 data="301.25" data_syncmode="0" data_denominator="4" data_numerator="4"/>
              <port11 data="0" data_syncmode="0" data_denominator="4" data_numerator="4"/>
            </ladspacontrols>
            <key>
              <attribute name="file" value="mod_delay_1419"/>
              <attribute name="plugin" value="modDelay"/>
            </key>
          </effect>
        </fxchain>
        <send channel="0" amount="1"/>
      </fxchannel>
      <fxchannel soloed="0" muted="0" num="14" name="bass" volume="1">
        <fxchain enabled="1" numofeffects="1">
          <effect wet="1" name="eq" autoquit_syncmode="0" on="0" autoquit_denominator="4" autoquit="1" autoquit_numerator="4" gate="0">
            <Eq Peak3gain="18" Lowshelfgain="-6.477" HPres="0.707" Peak4gain="5.76" HighShelfres="1.4" HighShelfgain="0" Peak3active="1" HP24="0" Peak4active="1" Lowshelfactive="1" Peak4bw="0.811" LPres="0.707" LP24="0" Outputgain="8" AnalyseIn="1" Peak2bw="2.866" LPactive="0" HP48="0" LowShelfres="1.21" HP12="1" Peak2gain="18" AnalyseOut="1" LP12="1" HP="0" Peak1active="0" Peak2active="1" LP="0" Highshelfactive="0" LP48="0" Peak3bw="1.828" Peak1bw="0.3" HPactive="0">
              <Inputgain id="1928132" scale_type="log" value="0"/>
              <Peak1gain id="5028906" scale_type="log" value="0"/>
              <HPfreq id="6101787" scale_type="log" value="24.795"/>
              <LowShelffreq id="5056230" scale_type="log" value="179.84"/>
              <Peak1freq id="3218393" scale_type="log" value="120"/>
              <Peak2freq id="4083145" scale_type="log" value="8057.72"/>
              <Peak3freq id="4897974" scale_type="log" value="4557.45"/>
              <Peak4freq id="5404987" scale_type="log" value="4000"/>
              <Highshelffreq id="3053663" scale_type="log" value="12000"/>
              <LPfreq id="1445410" scale_type="log" value="18000"/>
            </Eq>
            <key/>
          </effect>
        </fxchain>
        <send channel="0" amount="1"/>
      </fxchannel>
      <fxchannel soloed="0" muted="0" num="15" name="synthStrings" volume="1">
        <fxchain enabled="0" numofeffects="0"/>
        <send channel="0" amount="1"/>
      </fxchannel>
      <fxchannel soloed="0" muted="0" num="16" name="FX 16" volume="1">
        <fxchain enabled="0" numofeffects="0"/>
        <send channel="0" amount="1"/>
      </fxchannel>
      <fxchannel soloed="0" muted="0" num="17" name="FX 17" volume="1">
        <fxchain enabled="0" numofeffects="0"/>
        <send channel="0" amount="1"/>
      </fxchannel>
      <fxchannel soloed="0" muted="0" num="18" name="FX 18" volume="1">
        <fxchain enabled="0" numofeffects="0"/>
        <send channel="0" amount="1"/>
      </fxchannel>
      <fxchannel soloed="0" muted="0" num="19" name="FX 19" volume="1">
        <fxchain enabled="0" numofeffects="0"/>
        <send channel="0" amount="1"/>
      </fxchannel>
      <fxchannel soloed="0" muted="0" num="20" name="FX 20" volume="1">
        <fxchain enabled="0" numofeffects="0"/>
        <send channel="0" amount="1"/>
      </fxchannel>
      <fxchannel soloed="0" muted="0" num="21" name="FX 21" volume="1">
        <fxchain enabled="0" numofeffects="0"/>
        <send channel="0" amount="1"/>
      </fxchannel>
      <fxchannel soloed="0" muted="0" num="22" name="FX 22" volume="1">
        <fxchain enabled="0" numofeffects="0"/>
        <send channel="0" amount="1"/>
      </fxchannel>
      <fxchannel soloed="0" muted="0" num="23" name="FX 23" volume="1">
        <fxchain enabled="0" numofeffects="0"/>
        <send channel="0" amount="1"/>
      </fxchannel>
      <fxchannel soloed="0" muted="0" num="24" name="FX 24" volume="1">
        <fxchain enabled="0" numofeffects="0"/>
        <send channel="0" amount="1"/>
      </fxchannel>
      <fxchannel soloed="0" muted="0" num="25" name="FX 25" volume="1">
        <fxchain enabled="0" numofeffects="0"/>
        <send channel="0" amount="1"/>
      </fxchannel>
      <fxchannel soloed="0" muted="0" num="26" name="FX 26" volume="1">
        <fxchain enabled="0" numofeffects="0"/>
        <send channel="0" amount="1"/>
      </fxchannel>
      <fxchannel soloed="0" muted="0" num="27" name="FX 27" volume="1">
        <fxchain enabled="0" numofeffects="0"/>
        <send channel="0" amount="1"/>
      </fxchannel>
      <fxchannel soloed="0" muted="0" num="28" name="FX 28" volume="1">
        <fxchain enabled="0" numofeffects="0"/>
        <send channel="0" amount="1"/>
      </fxchannel>
      <fxchannel soloed="0" muted="0" num="29" name="FX 29" volume="1">
        <fxchain enabled="0" numofeffects="0"/>
        <send channel="0" amount="1"/>
      </fxchannel>
    </fxmixer>
    <ControllerRackView width="350" visible="0" maximized="0" minimized="0" height="200" y="282" x="680"/>
    <pianoroll width="860" visible="0" maximized="1" minimized="0" height="480" y="26" x="171"/>
    <automationeditor width="860" visible="0" maximized="0" minimized="0" height="400" y="111" x="245"/>
    <projectnotes width="706" visible="0" maximized="0" minimized="0" height="400" y="2" x="333"><![CDATA[<!DOCTYPE HTML PUBLIC "-//W3C//DTD HTML 4.0//EN" "http://www.w3.org/TR/REC-html40/strict.dtd">
<html><head><meta name="qrichtext" content="1" /><style type="text/css">
p, li { white-space: pre-wrap; }
</style></head><body style=" font-family:'Sans Serif'; font-size:9pt; font-weight:400; font-style:normal;">
<p style="-qt-paragraph-type:empty; margin-top:0px; margin-bottom:0px; margin-left:0px; margin-right:0px; -qt-block-indent:0; text-indent:0px; font-family:'Ubuntu'; font-size:10pt;"><br /></p></body></html>]]></projectnotes>
    <timeline lp1pos="9600" lp0pos="0" lpstate="0"/>
    <controllers>
      <lfocontroller base="0.5" speed="2" phase="0" wave="0" type="1" multiplier="0" name="Controller 1" speed_syncmode="0" userwavefile="" speed_numerator="4" speed_denominator="4" amount="1"/>
    </controllers>
  </song>
</lmms-project>
