<?xml version="1.0"?>
<!DOCTYPE lmms-project>
<lmms-project type="song" version="1.0" creator="LMMS" creatorversion="1.2.2">
  <head timesig_denominator="4" bpm="210" timesig_numerator="4" mastervol="100" masterpitch="0"/>
  <song>
    <trackcontainer x="106" height="300" type="song" visible="1" width="600" minimized="0" maximized="1" y="33">
      <track type="1" name="intro1" solo="0" muted="0">
        <bbtrack>
          <trackcontainer x="167" height="378" type="bbtrackcontainer" visible="1" width="1042" minimized="0" maximized="0" y="77">
            <track type="0" name="kick.wav" solo="0" muted="0">
              <instrumenttrack pitch="0" usemasterpitch="1" vol="100" pan="0" pitchrange="1" basenote="57" fxch="1">
                <instrument name="audiofileprocessor">
                  <audiofileprocessor reversed="0" stutter="0" lframe="0" looped="0" eframe="1" amp="100" src="/home/pass/samples/sillydrums/kick.wav" interp="0" sframe="0"/>
                </instrument>
                <eldata fwet="0" fres="0.5" fcut="14000" ftype="0">
                  <elvol ctlenvamt="0" pdel="0" dec="2" lspd_denominator="4" att="0" lamt="0" sustain="1" hold="2" lshp="0" rel="2" x100="0" lspd_syncmode="0" userwavefile="" amt="1" lspd="0.1" lspd_numerator="4" latt="0" lpdel="0"/>
                  <elcut ctlenvamt="0" pdel="0" dec="0.5" lspd_denominator="4" att="0" lamt="0" sustain="0.5" hold="0.5" lshp="0" rel="0.1" x100="0" lspd_syncmode="0" userwavefile="" amt="0" lspd="0.1" lspd_numerator="4" latt="0" lpdel="0"/>
                  <elres ctlenvamt="0" pdel="0" dec="0.5" lspd_denominator="4" att="0" lamt="0" sustain="0.5" hold="0.5" lshp="0" rel="0.1" x100="0" lspd_syncmode="0" userwavefile="" amt="0" lspd="0.1" lspd_numerator="4" latt="0" lpdel="0"/>
                </eldata>
                <chordcreator chordrange="1" chord="0" chord-enabled="0"/>
                <arpeggiator arprange="1" arptime_syncmode="0" arptime_denominator="4" arp-enabled="0" arpmiss="0" arpmode="0" arpgate="100" arpskip="0" arptime_numerator="4" arptime="200" arpdir="0" arpcycle="0" arp="0"/>
                <midiport writable="0" basevelocity="63" fixedoutputvelocity="-1" outputchannel="1" fixedoutputnote="-1" outputprogram="1" inputcontroller="0" inputchannel="0" outputcontroller="0" readable="0" fixedinputvelocity="-1"/>
                <fxchain numofeffects="0" enabled="0"/>
              </instrumenttrack>
              <pattern type="0" steps="64" pos="0" name="kick.wav" muted="0">
                <note pos="0" key="57" vol="100" pan="0" len="-192"/>
                <note pos="192" key="57" vol="100" pan="0" len="-192"/>
                <note pos="384" key="57" vol="100" pan="0" len="-192"/>
                <note pos="720" key="57" vol="100" pan="0" len="-192"/>
                <note pos="732" key="57" vol="100" pan="0" len="-192"/>
                <note pos="744" key="57" vol="100" pan="0" len="-192"/>
                <note pos="756" key="57" vol="100" pan="0" len="-192"/>
              </pattern>
              <pattern type="0" steps="32" pos="192" name="kick.wav" muted="0">
                <note pos="0" key="57" vol="100" pan="0" len="-192"/>
                <note pos="72" key="57" vol="100" pan="0" len="-192"/>
                <note pos="96" key="57" vol="100" pan="0" len="-192"/>
                <note pos="144" key="57" vol="100" pan="0" len="-192"/>
                <note pos="192" key="57" vol="100" pan="0" len="-192"/>
                <note pos="264" key="57" vol="100" pan="0" len="-192"/>
                <note pos="288" key="57" vol="100" pan="0" len="-192"/>
                <note pos="336" key="57" vol="100" pan="0" len="-192"/>
              </pattern>
              <pattern type="0" steps="64" pos="384" name="kick.wav" muted="0">
                <note pos="0" key="57" vol="100" pan="0" len="-192"/>
                <note pos="12" key="57" vol="100" pan="0" len="-192"/>
                <note pos="24" key="57" vol="100" pan="0" len="-192"/>
                <note pos="36" key="57" vol="100" pan="0" len="-192"/>
                <note pos="48" key="57" vol="100" pan="0" len="-192"/>
                <note pos="60" key="57" vol="100" pan="0" len="-192"/>
                <note pos="72" key="57" vol="100" pan="0" len="-192"/>
                <note pos="84" key="57" vol="100" pan="0" len="-192"/>
                <note pos="96" key="57" vol="100" pan="0" len="-192"/>
                <note pos="108" key="57" vol="100" pan="0" len="-192"/>
                <note pos="120" key="57" vol="100" pan="0" len="-192"/>
                <note pos="132" key="57" vol="100" pan="0" len="-192"/>
                <note pos="144" key="57" vol="100" pan="0" len="-192"/>
                <note pos="156" key="57" vol="100" pan="0" len="-192"/>
                <note pos="168" key="57" vol="100" pan="0" len="-192"/>
                <note pos="180" key="57" vol="100" pan="0" len="-192"/>
                <note pos="192" key="57" vol="100" pan="0" len="-192"/>
                <note pos="204" key="57" vol="100" pan="0" len="-192"/>
                <note pos="216" key="57" vol="100" pan="0" len="-192"/>
                <note pos="228" key="57" vol="100" pan="0" len="-192"/>
                <note pos="240" key="57" vol="100" pan="0" len="-192"/>
                <note pos="252" key="57" vol="100" pan="0" len="-192"/>
                <note pos="264" key="57" vol="100" pan="0" len="-192"/>
                <note pos="276" key="57" vol="100" pan="0" len="-192"/>
                <note pos="288" key="57" vol="100" pan="0" len="-192"/>
                <note pos="300" key="57" vol="100" pan="0" len="-192"/>
                <note pos="312" key="57" vol="100" pan="0" len="-192"/>
                <note pos="324" key="57" vol="100" pan="0" len="-192"/>
                <note pos="336" key="57" vol="100" pan="0" len="-192"/>
                <note pos="348" key="57" vol="100" pan="0" len="-192"/>
                <note pos="360" key="57" vol="100" pan="0" len="-192"/>
                <note pos="372" key="57" vol="100" pan="0" len="-192"/>
                <note pos="384" key="57" vol="100" pan="0" len="-192"/>
                <note pos="396" key="57" vol="100" pan="0" len="-192"/>
                <note pos="408" key="57" vol="100" pan="0" len="-192"/>
                <note pos="420" key="57" vol="100" pan="0" len="-192"/>
                <note pos="432" key="57" vol="100" pan="0" len="-192"/>
                <note pos="444" key="57" vol="100" pan="0" len="-192"/>
                <note pos="456" key="57" vol="100" pan="0" len="-192"/>
                <note pos="468" key="57" vol="100" pan="0" len="-192"/>
                <note pos="480" key="57" vol="100" pan="0" len="-192"/>
                <note pos="492" key="57" vol="100" pan="0" len="-192"/>
                <note pos="504" key="57" vol="100" pan="0" len="-192"/>
                <note pos="516" key="57" vol="100" pan="0" len="-192"/>
                <note pos="528" key="57" vol="100" pan="0" len="-192"/>
                <note pos="540" key="57" vol="100" pan="0" len="-192"/>
                <note pos="552" key="57" vol="100" pan="0" len="-192"/>
                <note pos="564" key="57" vol="100" pan="0" len="-192"/>
                <note pos="576" key="57" vol="100" pan="0" len="-192"/>
                <note pos="588" key="57" vol="100" pan="0" len="-192"/>
                <note pos="600" key="57" vol="100" pan="0" len="-192"/>
                <note pos="612" key="57" vol="100" pan="0" len="-192"/>
                <note pos="624" key="57" vol="100" pan="0" len="-192"/>
                <note pos="636" key="57" vol="100" pan="0" len="-192"/>
                <note pos="648" key="57" vol="100" pan="0" len="-192"/>
                <note pos="660" key="57" vol="100" pan="0" len="-192"/>
                <note pos="672" key="57" vol="100" pan="0" len="-192"/>
                <note pos="684" key="57" vol="100" pan="0" len="-192"/>
                <note pos="696" key="57" vol="100" pan="0" len="-192"/>
                <note pos="708" key="57" vol="100" pan="0" len="-192"/>
                <note pos="720" key="57" vol="100" pan="0" len="-192"/>
                <note pos="732" key="57" vol="100" pan="0" len="-192"/>
                <note pos="744" key="57" vol="100" pan="0" len="-192"/>
                <note pos="756" key="57" vol="100" pan="0" len="-192"/>
              </pattern>
              <pattern type="0" steps="64" pos="576" name="kick.wav" muted="0">
                <note pos="0" key="57" vol="100" pan="0" len="-192"/>
                <note pos="12" key="57" vol="100" pan="0" len="-192"/>
                <note pos="24" key="57" vol="100" pan="0" len="-192"/>
                <note pos="36" key="57" vol="100" pan="0" len="-192"/>
                <note pos="48" key="57" vol="100" pan="0" len="-192"/>
                <note pos="60" key="57" vol="100" pan="0" len="-192"/>
                <note pos="72" key="57" vol="100" pan="0" len="-192"/>
                <note pos="84" key="57" vol="100" pan="0" len="-192"/>
                <note pos="96" key="57" vol="100" pan="0" len="-192"/>
                <note pos="108" key="57" vol="100" pan="0" len="-192"/>
                <note pos="120" key="57" vol="100" pan="0" len="-192"/>
                <note pos="132" key="57" vol="100" pan="0" len="-192"/>
                <note pos="144" key="57" vol="100" pan="0" len="-192"/>
                <note pos="156" key="57" vol="100" pan="0" len="-192"/>
                <note pos="168" key="57" vol="100" pan="0" len="-192"/>
                <note pos="180" key="57" vol="100" pan="0" len="-192"/>
                <note pos="192" key="57" vol="100" pan="0" len="-192"/>
                <note pos="204" key="57" vol="100" pan="0" len="-192"/>
                <note pos="216" key="57" vol="100" pan="0" len="-192"/>
                <note pos="228" key="57" vol="100" pan="0" len="-192"/>
                <note pos="240" key="57" vol="100" pan="0" len="-192"/>
                <note pos="252" key="57" vol="100" pan="0" len="-192"/>
                <note pos="264" key="57" vol="100" pan="0" len="-192"/>
                <note pos="276" key="57" vol="100" pan="0" len="-192"/>
                <note pos="288" key="57" vol="100" pan="0" len="-192"/>
                <note pos="300" key="57" vol="100" pan="0" len="-192"/>
                <note pos="312" key="57" vol="100" pan="0" len="-192"/>
                <note pos="324" key="57" vol="100" pan="0" len="-192"/>
                <note pos="336" key="57" vol="100" pan="0" len="-192"/>
                <note pos="348" key="57" vol="100" pan="0" len="-192"/>
                <note pos="360" key="57" vol="100" pan="0" len="-192"/>
                <note pos="372" key="57" vol="100" pan="0" len="-192"/>
                <note pos="384" key="57" vol="100" pan="0" len="-192"/>
                <note pos="396" key="57" vol="100" pan="0" len="-192"/>
                <note pos="408" key="57" vol="100" pan="0" len="-192"/>
                <note pos="420" key="57" vol="100" pan="0" len="-192"/>
                <note pos="432" key="57" vol="100" pan="0" len="-192"/>
                <note pos="444" key="57" vol="100" pan="0" len="-192"/>
                <note pos="456" key="57" vol="100" pan="0" len="-192"/>
                <note pos="468" key="57" vol="100" pan="0" len="-192"/>
                <note pos="480" key="57" vol="100" pan="0" len="-192"/>
                <note pos="492" key="57" vol="100" pan="0" len="-192"/>
                <note pos="504" key="57" vol="100" pan="0" len="-192"/>
                <note pos="516" key="57" vol="100" pan="0" len="-192"/>
                <note pos="528" key="57" vol="100" pan="0" len="-192"/>
                <note pos="540" key="57" vol="100" pan="0" len="-192"/>
                <note pos="552" key="57" vol="100" pan="0" len="-192"/>
                <note pos="564" key="57" vol="100" pan="0" len="-192"/>
                <note pos="576" key="57" vol="100" pan="0" len="-192"/>
                <note pos="588" key="57" vol="100" pan="0" len="-192"/>
                <note pos="600" key="57" vol="100" pan="0" len="-192"/>
                <note pos="612" key="57" vol="100" pan="0" len="-192"/>
                <note pos="624" key="57" vol="100" pan="0" len="-192"/>
                <note pos="636" key="57" vol="100" pan="0" len="-192"/>
                <note pos="648" key="57" vol="100" pan="0" len="-192"/>
                <note pos="660" key="57" vol="100" pan="0" len="-192"/>
                <note pos="672" key="57" vol="100" pan="0" len="-192"/>
                <note pos="684" key="57" vol="100" pan="0" len="-192"/>
                <note pos="696" key="57" vol="100" pan="0" len="-192"/>
                <note pos="708" key="57" vol="100" pan="0" len="-192"/>
                <note pos="720" key="57" vol="100" pan="0" len="-192"/>
                <note pos="732" key="57" vol="100" pan="0" len="-192"/>
                <note pos="744" key="57" vol="100" pan="0" len="-192"/>
                <note pos="756" key="57" vol="100" pan="0" len="-192"/>
              </pattern>
              <pattern type="0" steps="16" pos="768" name="kick.wav" muted="0">
                <note pos="0" key="57" vol="100" pan="0" len="-192"/>
                <note pos="12" key="57" vol="100" pan="0" len="-192"/>
                <note pos="24" key="57" vol="100" pan="0" len="-192"/>
                <note pos="36" key="57" vol="100" pan="0" len="-192"/>
                <note pos="48" key="57" vol="100" pan="0" len="-192"/>
                <note pos="60" key="57" vol="100" pan="0" len="-192"/>
                <note pos="72" key="57" vol="100" pan="0" len="-192"/>
                <note pos="84" key="57" vol="100" pan="0" len="-192"/>
                <note pos="96" key="57" vol="100" pan="0" len="-192"/>
                <note pos="108" key="57" vol="100" pan="0" len="-192"/>
                <note pos="120" key="57" vol="100" pan="0" len="-192"/>
                <note pos="132" key="57" vol="100" pan="0" len="-192"/>
                <note pos="144" key="57" vol="100" pan="0" len="-192"/>
                <note pos="156" key="57" vol="100" pan="0" len="-192"/>
                <note pos="168" key="57" vol="100" pan="0" len="-192"/>
                <note pos="180" key="57" vol="100" pan="0" len="-192"/>
              </pattern>
              <pattern type="0" steps="64" pos="960" name="kick.wav" muted="0">
                <note pos="0" key="57" vol="100" pan="0" len="-192"/>
                <note pos="48" key="57" vol="100" pan="0" len="-192"/>
                <note pos="96" key="57" vol="100" pan="0" len="-192"/>
                <note pos="144" key="57" vol="100" pan="0" len="-192"/>
                <note pos="156" key="57" vol="100" pan="0" len="-192"/>
                <note pos="168" key="57" vol="100" pan="0" len="-192"/>
                <note pos="180" key="57" vol="100" pan="0" len="-192"/>
                <note pos="192" key="57" vol="100" pan="0" len="-192"/>
                <note pos="240" key="57" vol="100" pan="0" len="-192"/>
                <note pos="288" key="57" vol="100" pan="0" len="-192"/>
                <note pos="336" key="57" vol="100" pan="0" len="-192"/>
                <note pos="348" key="57" vol="100" pan="0" len="-192"/>
                <note pos="360" key="57" vol="100" pan="0" len="-192"/>
                <note pos="372" key="57" vol="100" pan="0" len="-192"/>
                <note pos="384" key="57" vol="100" pan="0" len="-192"/>
                <note pos="432" key="57" vol="100" pan="0" len="-192"/>
                <note pos="480" key="57" vol="100" pan="0" len="-192"/>
                <note pos="528" key="57" vol="100" pan="0" len="-192"/>
                <note pos="540" key="57" vol="100" pan="0" len="-192"/>
                <note pos="552" key="57" vol="100" pan="0" len="-192"/>
                <note pos="564" key="57" vol="100" pan="0" len="-192"/>
                <note pos="576" key="57" vol="100" pan="0" len="-192"/>
                <note pos="624" key="57" vol="100" pan="0" len="-192"/>
                <note pos="672" key="57" vol="100" pan="0" len="-192"/>
                <note pos="720" key="57" vol="100" pan="0" len="-192"/>
                <note pos="732" key="57" vol="100" pan="0" len="-192"/>
                <note pos="744" key="57" vol="100" pan="0" len="-192"/>
                <note pos="756" key="57" vol="100" pan="0" len="-192"/>
              </pattern>
              <pattern type="0" steps="64" pos="1152" name="kick.wav" muted="0">
                <note pos="0" key="57" vol="100" pan="0" len="-192"/>
                <note pos="48" key="57" vol="100" pan="0" len="-192"/>
                <note pos="96" key="57" vol="100" pan="0" len="-192"/>
                <note pos="144" key="57" vol="100" pan="0" len="-192"/>
                <note pos="156" key="57" vol="100" pan="0" len="-192"/>
                <note pos="168" key="57" vol="100" pan="0" len="-192"/>
                <note pos="180" key="57" vol="100" pan="0" len="-192"/>
                <note pos="192" key="57" vol="100" pan="0" len="-192"/>
                <note pos="240" key="57" vol="100" pan="0" len="-192"/>
                <note pos="288" key="57" vol="100" pan="0" len="-192"/>
                <note pos="336" key="57" vol="100" pan="0" len="-192"/>
                <note pos="348" key="57" vol="100" pan="0" len="-192"/>
                <note pos="360" key="57" vol="100" pan="0" len="-192"/>
                <note pos="372" key="57" vol="100" pan="0" len="-192"/>
                <note pos="384" key="57" vol="100" pan="0" len="-192"/>
                <note pos="432" key="57" vol="100" pan="0" len="-192"/>
                <note pos="480" key="57" vol="100" pan="0" len="-192"/>
                <note pos="528" key="57" vol="100" pan="0" len="-192"/>
                <note pos="540" key="57" vol="100" pan="0" len="-192"/>
                <note pos="552" key="57" vol="100" pan="0" len="-192"/>
                <note pos="564" key="57" vol="100" pan="0" len="-192"/>
                <note pos="576" key="57" vol="100" pan="0" len="-192"/>
                <note pos="624" key="57" vol="100" pan="0" len="-192"/>
                <note pos="672" key="57" vol="100" pan="0" len="-192"/>
                <note pos="720" key="57" vol="100" pan="0" len="-192"/>
                <note pos="732" key="57" vol="100" pan="0" len="-192"/>
                <note pos="744" key="57" vol="100" pan="0" len="-192"/>
                <note pos="756" key="57" vol="100" pan="0" len="-192"/>
              </pattern>
              <pattern type="0" steps="32" pos="1344" name="kick.wav" muted="0">
                <note pos="0" key="57" vol="100" pan="0" len="-192"/>
              </pattern>
              <pattern type="0" steps="32" pos="1536" name="kick.wav" muted="0">
                <note pos="0" key="57" vol="100" pan="0" len="-192"/>
                <note pos="48" key="57" vol="100" pan="0" len="-192"/>
                <note pos="60" key="57" vol="100" pan="0" len="-192"/>
                <note pos="72" key="57" vol="100" pan="0" len="-192"/>
                <note pos="96" key="57" vol="100" pan="0" len="-192"/>
                <note pos="108" key="57" vol="100" pan="0" len="-192"/>
                <note pos="120" key="57" vol="100" pan="0" len="-192"/>
                <note pos="144" key="57" vol="100" pan="0" len="-192"/>
                <note pos="156" key="57" vol="100" pan="0" len="-192"/>
                <note pos="168" key="57" vol="100" pan="0" len="-192"/>
                <note pos="192" key="57" vol="100" pan="0" len="-192"/>
                <note pos="240" key="57" vol="100" pan="0" len="-192"/>
                <note pos="252" key="57" vol="100" pan="0" len="-192"/>
                <note pos="264" key="57" vol="100" pan="0" len="-192"/>
                <note pos="276" key="57" vol="100" pan="0" len="-192"/>
                <note pos="288" key="57" vol="100" pan="0" len="-192"/>
                <note pos="300" key="57" vol="100" pan="0" len="-192"/>
                <note pos="312" key="57" vol="100" pan="0" len="-192"/>
                <note pos="324" key="57" vol="100" pan="0" len="-192"/>
                <note pos="336" key="57" vol="100" pan="0" len="-192"/>
                <note pos="348" key="57" vol="100" pan="0" len="-192"/>
                <note pos="360" key="57" vol="100" pan="0" len="-192"/>
                <note pos="372" key="57" vol="100" pan="0" len="-192"/>
              </pattern>
              <pattern type="0" steps="32" pos="1728" name="kick.wav" muted="0">
                <note pos="0" key="57" vol="100" pan="0" len="-192"/>
                <note pos="12" key="57" vol="100" pan="0" len="-192"/>
                <note pos="24" key="57" vol="100" pan="0" len="-192"/>
                <note pos="36" key="57" vol="100" pan="0" len="-192"/>
                <note pos="48" key="57" vol="100" pan="0" len="-192"/>
                <note pos="60" key="57" vol="100" pan="0" len="-192"/>
                <note pos="72" key="57" vol="100" pan="0" len="-192"/>
                <note pos="84" key="57" vol="100" pan="0" len="-192"/>
                <note pos="96" key="57" vol="100" pan="0" len="-192"/>
                <note pos="108" key="57" vol="100" pan="0" len="-192"/>
                <note pos="120" key="57" vol="100" pan="0" len="-192"/>
                <note pos="132" key="57" vol="100" pan="0" len="-192"/>
                <note pos="144" key="57" vol="100" pan="0" len="-192"/>
                <note pos="156" key="57" vol="100" pan="0" len="-192"/>
                <note pos="168" key="57" vol="100" pan="0" len="-192"/>
                <note pos="180" key="57" vol="100" pan="0" len="-192"/>
                <note pos="192" key="57" vol="100" pan="0" len="-192"/>
                <note pos="204" key="57" vol="100" pan="0" len="-192"/>
                <note pos="216" key="57" vol="100" pan="0" len="-192"/>
                <note pos="228" key="57" vol="100" pan="0" len="-192"/>
                <note pos="240" key="57" vol="100" pan="0" len="-192"/>
                <note pos="252" key="57" vol="100" pan="0" len="-192"/>
                <note pos="264" key="57" vol="100" pan="0" len="-192"/>
                <note pos="276" key="57" vol="100" pan="0" len="-192"/>
                <note pos="288" key="57" vol="100" pan="0" len="-192"/>
                <note pos="300" key="57" vol="100" pan="0" len="-192"/>
                <note pos="312" key="57" vol="100" pan="0" len="-192"/>
                <note pos="324" key="57" vol="100" pan="0" len="-192"/>
                <note pos="336" key="57" vol="100" pan="0" len="-192"/>
                <note pos="348" key="57" vol="100" pan="0" len="-192"/>
                <note pos="360" key="57" vol="100" pan="0" len="-192"/>
                <note pos="372" key="57" vol="100" pan="0" len="-192"/>
              </pattern>
            </track>
            <track type="0" name="hihat_opened02.ogg" solo="0" muted="0">
              <instrumenttrack pitch="0" usemasterpitch="1" vol="56.8" pan="-42.4" pitchrange="1" basenote="57" fxch="2">
                <instrument name="audiofileprocessor">
                  <audiofileprocessor reversed="0" stutter="0" lframe="0" looped="0" eframe="1" amp="100" src="drums/hihat_opened02.ogg" interp="1" sframe="0"/>
                </instrument>
                <eldata fwet="0" fres="0.5" fcut="14000" ftype="0">
                  <elvol ctlenvamt="0" pdel="0" dec="2" lspd_denominator="4" att="0" lamt="0" sustain="0" hold="2" lshp="0" rel="0" x100="0" lspd_syncmode="0" userwavefile="" amt="1" lspd="0.1" lspd_numerator="4" latt="0" lpdel="0"/>
                  <elcut ctlenvamt="0" pdel="0" dec="0.5" lspd_denominator="4" att="0" lamt="0" sustain="0.5" hold="0.5" lshp="0" rel="0.1" x100="0" lspd_syncmode="0" userwavefile="" amt="0" lspd="0.1" lspd_numerator="4" latt="0" lpdel="0"/>
                  <elres ctlenvamt="0" pdel="0" dec="0.5" lspd_denominator="4" att="0" lamt="0" sustain="0.5" hold="0.5" lshp="0" rel="0.1" x100="0" lspd_syncmode="0" userwavefile="" amt="0" lspd="0.1" lspd_numerator="4" latt="0" lpdel="0"/>
                </eldata>
                <chordcreator chordrange="1" chord="0" chord-enabled="0"/>
                <arpeggiator arprange="1" arptime_syncmode="0" arptime_denominator="4" arp-enabled="0" arpmiss="0" arpmode="0" arpgate="100" arpskip="0" arptime_numerator="4" arptime="200" arpdir="0" arpcycle="0" arp="0"/>
                <midiport writable="0" basevelocity="63" fixedoutputvelocity="-1" outputchannel="1" fixedoutputnote="-1" outputprogram="1" inputcontroller="0" inputchannel="0" outputcontroller="0" readable="0" fixedinputvelocity="-1"/>
                <fxchain numofeffects="0" enabled="0"/>
              </instrumenttrack>
              <pattern type="0" steps="64" pos="0" name="hihat_opened02.ogg" muted="0"/>
              <pattern type="0" steps="32" pos="192" name="hihat_opened02.ogg" muted="0">
                <note pos="72" key="57" vol="100" pan="0" len="-192"/>
                <note pos="144" key="57" vol="100" pan="0" len="-192"/>
                <note pos="264" key="57" vol="100" pan="0" len="-192"/>
              </pattern>
              <pattern type="0" steps="64" pos="384" name="hihat_opened02.ogg" muted="0">
                <note pos="0" key="57" vol="100" pan="0" len="-192"/>
                <note pos="96" key="57" vol="100" pan="0" len="-192"/>
                <note pos="192" key="57" vol="100" pan="0" len="-192"/>
                <note pos="288" key="57" vol="100" pan="0" len="-192"/>
                <note pos="384" key="57" vol="100" pan="0" len="-192"/>
                <note pos="480" key="57" vol="100" pan="0" len="-192"/>
                <note pos="576" key="57" vol="100" pan="0" len="-192"/>
                <note pos="672" key="57" vol="100" pan="0" len="-192"/>
              </pattern>
              <pattern type="0" steps="64" pos="576" name="hihat_opened02.ogg" muted="0">
                <note pos="0" key="57" vol="100" pan="0" len="-192"/>
                <note pos="48" key="57" vol="100" pan="0" len="-192"/>
                <note pos="96" key="57" vol="100" pan="0" len="-192"/>
                <note pos="144" key="57" vol="100" pan="0" len="-192"/>
                <note pos="192" key="57" vol="100" pan="0" len="-192"/>
                <note pos="240" key="57" vol="100" pan="0" len="-192"/>
                <note pos="288" key="57" vol="100" pan="0" len="-192"/>
                <note pos="336" key="57" vol="100" pan="0" len="-192"/>
                <note pos="384" key="57" vol="100" pan="0" len="-192"/>
                <note pos="432" key="57" vol="100" pan="0" len="-192"/>
                <note pos="480" key="57" vol="100" pan="0" len="-192"/>
                <note pos="528" key="57" vol="100" pan="0" len="-192"/>
                <note pos="576" key="57" vol="100" pan="0" len="-192"/>
                <note pos="624" key="57" vol="100" pan="0" len="-192"/>
                <note pos="672" key="57" vol="100" pan="0" len="-192"/>
                <note pos="720" key="57" vol="100" pan="0" len="-192"/>
              </pattern>
              <pattern type="0" steps="16" pos="768" name="hihat_opened02.ogg" muted="0"/>
              <pattern type="0" steps="64" pos="960" name="hihat_opened02.ogg" muted="0">
                <note pos="0" key="57" vol="100" pan="0" len="-192"/>
                <note pos="48" key="57" vol="100" pan="0" len="-192"/>
                <note pos="96" key="57" vol="100" pan="0" len="-192"/>
                <note pos="144" key="57" vol="100" pan="0" len="-192"/>
                <note pos="192" key="57" vol="100" pan="0" len="-192"/>
                <note pos="240" key="57" vol="100" pan="0" len="-192"/>
                <note pos="288" key="57" vol="100" pan="0" len="-192"/>
                <note pos="336" key="57" vol="100" pan="0" len="-192"/>
                <note pos="384" key="57" vol="100" pan="0" len="-192"/>
                <note pos="432" key="57" vol="100" pan="0" len="-192"/>
                <note pos="480" key="57" vol="100" pan="0" len="-192"/>
                <note pos="528" key="57" vol="100" pan="0" len="-192"/>
                <note pos="576" key="57" vol="100" pan="0" len="-192"/>
                <note pos="624" key="57" vol="100" pan="0" len="-192"/>
                <note pos="672" key="57" vol="100" pan="0" len="-192"/>
                <note pos="720" key="57" vol="100" pan="0" len="-192"/>
              </pattern>
              <pattern type="0" steps="64" pos="1152" name="hihat_opened02.ogg" muted="0">
                <note pos="0" key="57" vol="100" pan="0" len="-192"/>
                <note pos="48" key="57" vol="100" pan="0" len="-192"/>
                <note pos="96" key="57" vol="100" pan="0" len="-192"/>
                <note pos="144" key="57" vol="100" pan="0" len="-192"/>
                <note pos="192" key="57" vol="100" pan="0" len="-192"/>
                <note pos="240" key="57" vol="100" pan="0" len="-192"/>
                <note pos="288" key="57" vol="100" pan="0" len="-192"/>
                <note pos="336" key="57" vol="100" pan="0" len="-192"/>
                <note pos="384" key="57" vol="100" pan="0" len="-192"/>
                <note pos="432" key="57" vol="100" pan="0" len="-192"/>
                <note pos="480" key="57" vol="100" pan="0" len="-192"/>
                <note pos="528" key="57" vol="100" pan="0" len="-192"/>
                <note pos="576" key="57" vol="100" pan="0" len="-192"/>
                <note pos="624" key="57" vol="100" pan="0" len="-192"/>
                <note pos="672" key="57" vol="100" pan="0" len="-192"/>
                <note pos="720" key="57" vol="100" pan="0" len="-192"/>
              </pattern>
              <pattern type="0" steps="32" pos="1344" name="hihat_opened02.ogg" muted="0"/>
              <pattern type="0" steps="32" pos="1536" name="hihat_opened02.ogg" muted="0">
                <note pos="48" key="57" vol="100" pan="0" len="-192"/>
                <note pos="96" key="57" vol="100" pan="0" len="-192"/>
                <note pos="144" key="57" vol="100" pan="0" len="-192"/>
                <note pos="240" key="57" vol="100" pan="0" len="-192"/>
                <note pos="288" key="57" vol="100" pan="0" len="-192"/>
                <note pos="336" key="57" vol="100" pan="0" len="-192"/>
              </pattern>
              <pattern type="0" steps="32" pos="1728" name="hihat_opened02.ogg" muted="0">
                <note pos="48" key="57" vol="100" pan="0" len="-192"/>
                <note pos="96" key="57" vol="100" pan="0" len="-192"/>
                <note pos="144" key="57" vol="100" pan="0" len="-192"/>
              </pattern>
            </track>
            <track type="0" name="snare.wav" solo="0" muted="0">
              <instrumenttrack pitch="0" usemasterpitch="1" vol="200" pan="0" pitchrange="1" basenote="57" fxch="3">
                <instrument name="audiofileprocessor">
                  <audiofileprocessor reversed="0" stutter="0" lframe="0" looped="0" eframe="1" amp="100" src="/home/pass/samples/sillydrums/snare.wav" interp="1" sframe="0"/>
                </instrument>
                <eldata fwet="0" fres="0.5" fcut="14000" ftype="0">
                  <elvol ctlenvamt="0" pdel="0" dec="2" lspd_denominator="4" att="0" lamt="0" sustain="1" hold="2" lshp="0" rel="2" x100="0" lspd_syncmode="0" userwavefile="" amt="1" lspd="0.1" lspd_numerator="4" latt="0" lpdel="0"/>
                  <elcut ctlenvamt="0" pdel="0" dec="0.5" lspd_denominator="4" att="0" lamt="0" sustain="0.5" hold="0.5" lshp="0" rel="0.1" x100="0" lspd_syncmode="0" userwavefile="" amt="0" lspd="0.1" lspd_numerator="4" latt="0" lpdel="0"/>
                  <elres ctlenvamt="0" pdel="0" dec="0.5" lspd_denominator="4" att="0" lamt="0" sustain="0.5" hold="0.5" lshp="0" rel="0.1" x100="0" lspd_syncmode="0" userwavefile="" amt="0" lspd="0.1" lspd_numerator="4" latt="0" lpdel="0"/>
                </eldata>
                <chordcreator chordrange="1" chord="0" chord-enabled="0"/>
                <arpeggiator arprange="1" arptime_syncmode="0" arptime_denominator="4" arp-enabled="0" arpmiss="0" arpmode="0" arpgate="100" arpskip="0" arptime_numerator="4" arptime="200" arpdir="0" arpcycle="0" arp="0"/>
                <midiport writable="0" basevelocity="63" fixedoutputvelocity="-1" outputchannel="1" fixedoutputnote="-1" outputprogram="1" inputcontroller="0" inputchannel="0" outputcontroller="0" readable="0" fixedinputvelocity="-1"/>
                <fxchain numofeffects="0" enabled="0"/>
              </instrumenttrack>
              <pattern type="0" steps="64" pos="0" name="snare.wav" muted="0">
                <note pos="720" key="57" vol="100" pan="0" len="-192"/>
                <note pos="732" key="57" vol="100" pan="0" len="-192"/>
                <note pos="744" key="57" vol="100" pan="0" len="-192"/>
                <note pos="756" key="57" vol="100" pan="0" len="-192"/>
              </pattern>
              <pattern type="0" steps="32" pos="192" name="snare.wav" muted="0">
                <note pos="96" key="57" vol="100" pan="0" len="-192"/>
                <note pos="288" key="57" vol="100" pan="0" len="-192"/>
              </pattern>
              <pattern type="0" steps="64" pos="384" name="snare.wav" muted="0">
                <note pos="48" key="57" vol="100" pan="0" len="-192"/>
                <note pos="144" key="57" vol="100" pan="0" len="-192"/>
                <note pos="240" key="57" vol="100" pan="0" len="-192"/>
                <note pos="336" key="57" vol="100" pan="0" len="-192"/>
                <note pos="432" key="57" vol="100" pan="0" len="-192"/>
                <note pos="528" key="57" vol="100" pan="0" len="-192"/>
                <note pos="624" key="57" vol="100" pan="0" len="-192"/>
                <note pos="720" key="57" vol="100" pan="0" len="-192"/>
              </pattern>
              <pattern type="0" steps="64" pos="576" name="snare.wav" muted="0">
                <note pos="24" key="57" vol="100" pan="0" len="-192"/>
                <note pos="72" key="57" vol="100" pan="0" len="-192"/>
                <note pos="120" key="57" vol="100" pan="0" len="-192"/>
                <note pos="168" key="57" vol="100" pan="0" len="-192"/>
                <note pos="216" key="57" vol="100" pan="0" len="-192"/>
                <note pos="264" key="57" vol="100" pan="0" len="-192"/>
                <note pos="312" key="57" vol="100" pan="0" len="-192"/>
                <note pos="360" key="57" vol="100" pan="0" len="-192"/>
                <note pos="408" key="57" vol="100" pan="0" len="-192"/>
                <note pos="456" key="57" vol="100" pan="0" len="-192"/>
                <note pos="504" key="57" vol="100" pan="0" len="-192"/>
                <note pos="552" key="57" vol="100" pan="0" len="-192"/>
                <note pos="600" key="57" vol="100" pan="0" len="-192"/>
                <note pos="648" key="57" vol="100" pan="0" len="-192"/>
                <note pos="696" key="57" vol="100" pan="0" len="-192"/>
                <note pos="744" key="57" vol="100" pan="0" len="-192"/>
              </pattern>
              <pattern type="0" steps="16" pos="768" name="snare.wav" muted="0">
                <note pos="0" key="57" vol="100" pan="0" len="-192"/>
                <note pos="12" key="57" vol="100" pan="0" len="-192"/>
                <note pos="24" key="57" vol="100" pan="0" len="-192"/>
                <note pos="36" key="57" vol="100" pan="0" len="-192"/>
                <note pos="48" key="57" vol="100" pan="0" len="-192"/>
                <note pos="60" key="57" vol="100" pan="0" len="-192"/>
                <note pos="72" key="57" vol="100" pan="0" len="-192"/>
                <note pos="84" key="57" vol="100" pan="0" len="-192"/>
                <note pos="96" key="57" vol="100" pan="0" len="-192"/>
                <note pos="144" key="57" vol="100" pan="0" len="-192"/>
              </pattern>
              <pattern type="0" steps="64" pos="960" name="snare.wav" muted="0">
                <note pos="24" key="57" vol="100" pan="0" len="-192"/>
                <note pos="72" key="57" vol="100" pan="0" len="-192"/>
                <note pos="120" key="57" vol="100" pan="0" len="-192"/>
                <note pos="168" key="57" vol="100" pan="0" len="-192"/>
                <note pos="216" key="57" vol="100" pan="0" len="-192"/>
                <note pos="264" key="57" vol="100" pan="0" len="-192"/>
                <note pos="312" key="57" vol="100" pan="0" len="-192"/>
                <note pos="360" key="57" vol="100" pan="0" len="-192"/>
                <note pos="408" key="57" vol="100" pan="0" len="-192"/>
                <note pos="456" key="57" vol="100" pan="0" len="-192"/>
                <note pos="504" key="57" vol="100" pan="0" len="-192"/>
                <note pos="552" key="57" vol="100" pan="0" len="-192"/>
                <note pos="600" key="57" vol="100" pan="0" len="-192"/>
                <note pos="648" key="57" vol="100" pan="0" len="-192"/>
                <note pos="696" key="57" vol="100" pan="0" len="-192"/>
                <note pos="744" key="57" vol="100" pan="0" len="-192"/>
              </pattern>
              <pattern type="0" steps="64" pos="1152" name="snare.wav" muted="0">
                <note pos="24" key="57" vol="100" pan="0" len="-192"/>
                <note pos="72" key="57" vol="100" pan="0" len="-192"/>
                <note pos="120" key="57" vol="100" pan="0" len="-192"/>
                <note pos="168" key="57" vol="100" pan="0" len="-192"/>
                <note pos="216" key="57" vol="100" pan="0" len="-192"/>
                <note pos="264" key="57" vol="100" pan="0" len="-192"/>
                <note pos="312" key="57" vol="100" pan="0" len="-192"/>
                <note pos="360" key="57" vol="100" pan="0" len="-192"/>
                <note pos="408" key="57" vol="100" pan="0" len="-192"/>
                <note pos="456" key="57" vol="100" pan="0" len="-192"/>
                <note pos="504" key="57" vol="100" pan="0" len="-192"/>
                <note pos="552" key="57" vol="100" pan="0" len="-192"/>
                <note pos="600" key="57" vol="100" pan="0" len="-192"/>
                <note pos="648" key="57" vol="100" pan="0" len="-192"/>
                <note pos="696" key="57" vol="100" pan="0" len="-192"/>
                <note pos="744" key="57" vol="100" pan="0" len="-192"/>
              </pattern>
              <pattern type="0" steps="32" pos="1344" name="snare.wav" muted="0"/>
              <pattern type="0" steps="32" pos="1536" name="snare.wav" muted="0">
                <note pos="0" key="57" vol="100" pan="0" len="-192"/>
                <note pos="48" key="57" vol="100" pan="0" len="-192"/>
                <note pos="96" key="57" vol="100" pan="0" len="-192"/>
                <note pos="144" key="57" vol="100" pan="0" len="-192"/>
                <note pos="192" key="57" vol="100" pan="0" len="-192"/>
                <note pos="240" key="57" vol="100" pan="0" len="-192"/>
                <note pos="288" key="57" vol="100" pan="0" len="-192"/>
                <note pos="336" key="57" vol="100" pan="0" len="-192"/>
              </pattern>
              <pattern type="0" steps="32" pos="1728" name="snare.wav" muted="0">
                <note pos="0" key="57" vol="100" pan="0" len="-192"/>
                <note pos="48" key="57" vol="100" pan="0" len="-192"/>
                <note pos="96" key="57" vol="100" pan="0" len="-192"/>
                <note pos="144" key="57" vol="100" pan="0" len="-192"/>
                <note pos="192" key="57" vol="100" pan="0" len="-192"/>
                <note pos="240" key="57" vol="100" pan="0" len="-192"/>
                <note pos="288" key="57" vol="100" pan="0" len="-192"/>
                <note pos="300" key="57" vol="100" pan="0" len="-192"/>
                <note pos="312" key="57" vol="100" pan="0" len="-192"/>
                <note pos="324" key="57" vol="100" pan="0" len="-192"/>
                <note pos="336" key="57" vol="100" pan="0" len="-192"/>
                <note pos="348" key="57" vol="100" pan="0" len="-192"/>
                <note pos="360" key="57" vol="100" pan="0" len="-192"/>
                <note pos="372" key="57" vol="100" pan="0" len="-192"/>
              </pattern>
            </track>
            <track type="0" name="crash1.wav" solo="0" muted="0">
              <instrumenttrack pitch="0" usemasterpitch="1" vol="71.2" pan="0" pitchrange="1" basenote="57" fxch="4">
                <instrument name="audiofileprocessor">
                  <audiofileprocessor reversed="0" stutter="0" lframe="0" looped="0" eframe="1" amp="100" src="/home/pass/samples/sillydrums/crash1.wav" interp="1" sframe="0"/>
                </instrument>
                <eldata fwet="0" fres="0.5" fcut="14000" ftype="0">
                  <elvol ctlenvamt="0" pdel="0" dec="2" lspd_denominator="4" att="0" lamt="0" sustain="1" hold="2" lshp="0" rel="2" x100="0" lspd_syncmode="0" userwavefile="" amt="1" lspd="0.1" lspd_numerator="4" latt="0" lpdel="0"/>
                  <elcut ctlenvamt="0" pdel="0" dec="0.5" lspd_denominator="4" att="0" lamt="0" sustain="0.5" hold="0.5" lshp="0" rel="0.1" x100="0" lspd_syncmode="0" userwavefile="" amt="0" lspd="0.1" lspd_numerator="4" latt="0" lpdel="0"/>
                  <elres ctlenvamt="0" pdel="0" dec="0.5" lspd_denominator="4" att="0" lamt="0" sustain="0.5" hold="0.5" lshp="0" rel="0.1" x100="0" lspd_syncmode="0" userwavefile="" amt="0" lspd="0.1" lspd_numerator="4" latt="0" lpdel="0"/>
                </eldata>
                <chordcreator chordrange="1" chord="0" chord-enabled="0"/>
                <arpeggiator arprange="1" arptime_syncmode="0" arptime_denominator="4" arp-enabled="0" arpmiss="0" arpmode="0" arpgate="100" arpskip="0" arptime_numerator="4" arptime="200" arpdir="0" arpcycle="0" arp="0"/>
                <midiport writable="0" basevelocity="63" fixedoutputvelocity="-1" outputchannel="1" fixedoutputnote="-1" outputprogram="1" inputcontroller="0" inputchannel="0" outputcontroller="0" readable="0" fixedinputvelocity="-1"/>
                <fxchain numofeffects="0" enabled="0"/>
              </instrumenttrack>
              <pattern type="0" steps="64" pos="0" name="crash1.wav" muted="0">
                <note pos="0" key="57" vol="100" pan="0" len="-192"/>
                <note pos="384" key="57" vol="100" pan="0" len="-192"/>
              </pattern>
              <pattern type="0" steps="32" pos="192" name="crash1.wav" muted="0">
                <note pos="0" key="57" vol="100" pan="0" len="-192"/>
              </pattern>
              <pattern type="0" steps="64" pos="384" name="crash1.wav" muted="0">
                <note pos="0" key="57" vol="100" pan="0" len="-192"/>
              </pattern>
              <pattern type="0" steps="64" pos="576" name="crash1.wav" muted="0">
                <note pos="0" key="57" vol="100" pan="0" len="-192"/>
              </pattern>
              <pattern type="0" steps="16" pos="768" name="crash1.wav" muted="0"/>
              <pattern type="0" steps="64" pos="960" name="crash1.wav" muted="0">
                <note pos="0" key="57" vol="100" pan="0" len="-192"/>
                <note pos="384" key="57" vol="100" pan="0" len="-192"/>
              </pattern>
              <pattern type="0" steps="64" pos="1152" name="crash1.wav" muted="0">
                <note pos="0" key="57" vol="100" pan="0" len="-192"/>
              </pattern>
              <pattern type="0" steps="32" pos="1344" name="crash1.wav" muted="0"/>
              <pattern type="0" steps="32" pos="1536" name="crash1.wav" muted="0">
                <note pos="0" key="57" vol="100" pan="0" len="-192"/>
              </pattern>
              <pattern type="0" steps="32" pos="1728" name="crash1.wav" muted="0">
                <note pos="0" key="57" vol="100" pan="0" len="-192"/>
              </pattern>
            </track>
            <track type="0" name="crash1m" solo="0" muted="0">
              <instrumenttrack pitch="0" usemasterpitch="1" vol="71.2" pan="0" pitchrange="1" basenote="57" fxch="4">
                <instrument name="audiofileprocessor">
                  <audiofileprocessor reversed="0" stutter="0" lframe="0" looped="0" eframe="1" amp="100" src="/home/pass/samples/sillydrums/crash1.wav" interp="1" sframe="0"/>
                </instrument>
                <eldata fwet="0" fres="0.5" fcut="14000" ftype="0">
                  <elvol ctlenvamt="0" pdel="0" dec="0.216" lspd_denominator="4" att="0" lamt="0" sustain="0" hold="0.232" lshp="0" rel="0.208" x100="0" lspd_syncmode="0" userwavefile="" amt="1" lspd="0.1" lspd_numerator="4" latt="0" lpdel="0"/>
                  <elcut ctlenvamt="0" pdel="0" dec="0.5" lspd_denominator="4" att="0" lamt="0" sustain="0.5" hold="0.5" lshp="0" rel="0.1" x100="0" lspd_syncmode="0" userwavefile="" amt="0" lspd="0.1" lspd_numerator="4" latt="0" lpdel="0"/>
                  <elres ctlenvamt="0" pdel="0" dec="0.5" lspd_denominator="4" att="0" lamt="0" sustain="0.5" hold="0.5" lshp="0" rel="0.1" x100="0" lspd_syncmode="0" userwavefile="" amt="0" lspd="0.1" lspd_numerator="4" latt="0" lpdel="0"/>
                </eldata>
                <chordcreator chordrange="1" chord="0" chord-enabled="0"/>
                <arpeggiator arprange="1" arptime_syncmode="0" arptime_denominator="4" arp-enabled="0" arpmiss="0" arpmode="0" arpgate="100" arpskip="0" arptime_numerator="4" arptime="200" arpdir="0" arpcycle="0" arp="0"/>
                <midiport writable="0" basevelocity="63" fixedoutputvelocity="-1" outputchannel="1" fixedoutputnote="-1" outputprogram="1" inputcontroller="0" inputchannel="0" outputcontroller="0" readable="0" fixedinputvelocity="-1"/>
                <fxchain numofeffects="0" enabled="0"/>
              </instrumenttrack>
              <pattern type="0" steps="64" pos="0" name="crash1m" muted="0"/>
              <pattern type="0" steps="32" pos="192" name="crash1m" muted="0"/>
              <pattern type="0" steps="64" pos="384" name="crash1m" muted="0"/>
              <pattern type="0" steps="64" pos="576" name="crash1m" muted="0"/>
              <pattern type="0" steps="16" pos="768" name="crash1m" muted="0"/>
              <pattern type="0" steps="64" pos="960" name="crash1m" muted="0"/>
              <pattern type="0" steps="64" pos="1152" name="crash1m" muted="0"/>
              <pattern type="0" steps="32" pos="1344" name="crash1m" muted="0">
                <note pos="0" key="57" vol="100" pan="0" len="-192"/>
              </pattern>
              <pattern type="0" steps="32" pos="1536" name="crash1m" muted="0"/>
              <pattern type="0" steps="32" pos="1728" name="crash1m" muted="0"/>
            </track>
            <track type="0" name="crash2.wav" solo="0" muted="0">
              <instrumenttrack pitch="0" usemasterpitch="1" vol="76.8" pan="28" pitchrange="1" basenote="57" fxch="5">
                <instrument name="audiofileprocessor">
                  <audiofileprocessor reversed="0" stutter="0" lframe="0" looped="0" eframe="1" amp="100" src="/home/pass/samples/sillydrums/crash2.wav" interp="1" sframe="0"/>
                </instrument>
                <eldata fwet="0" fres="0.5" fcut="14000" ftype="0">
                  <elvol ctlenvamt="0" pdel="0" dec="2" lspd_denominator="4" att="0" lamt="0" sustain="1" hold="2" lshp="0" rel="2" x100="0" lspd_syncmode="0" userwavefile="" amt="1" lspd="0.1" lspd_numerator="4" latt="0" lpdel="0"/>
                  <elcut ctlenvamt="0" pdel="0" dec="0.5" lspd_denominator="4" att="0" lamt="0" sustain="0.5" hold="0.5" lshp="0" rel="0.1" x100="0" lspd_syncmode="0" userwavefile="" amt="0" lspd="0.1" lspd_numerator="4" latt="0" lpdel="0"/>
                  <elres ctlenvamt="0" pdel="0" dec="0.5" lspd_denominator="4" att="0" lamt="0" sustain="0.5" hold="0.5" lshp="0" rel="0.1" x100="0" lspd_syncmode="0" userwavefile="" amt="0" lspd="0.1" lspd_numerator="4" latt="0" lpdel="0"/>
                </eldata>
                <chordcreator chordrange="1" chord="0" chord-enabled="0"/>
                <arpeggiator arprange="1" arptime_syncmode="0" arptime_denominator="4" arp-enabled="0" arpmiss="0" arpmode="0" arpgate="100" arpskip="0" arptime_numerator="4" arptime="200" arpdir="0" arpcycle="0" arp="0"/>
                <midiport writable="0" basevelocity="63" fixedoutputvelocity="-1" outputchannel="1" fixedoutputnote="-1" outputprogram="1" inputcontroller="0" inputchannel="0" outputcontroller="0" readable="0" fixedinputvelocity="-1"/>
                <fxchain numofeffects="0" enabled="0"/>
              </instrumenttrack>
              <pattern type="0" steps="64" pos="0" name="crash2.wav" muted="0">
                <note pos="192" key="57" vol="100" pan="0" len="-192"/>
              </pattern>
              <pattern type="0" steps="32" pos="192" name="crash2.wav" muted="0">
                <note pos="192" key="57" vol="100" pan="0" len="-192"/>
              </pattern>
              <pattern type="0" steps="64" pos="384" name="crash2.wav" muted="0">
                <note pos="384" key="57" vol="100" pan="0" len="-192"/>
              </pattern>
              <pattern type="0" steps="64" pos="576" name="crash2.wav" muted="0">
                <note pos="384" key="57" vol="100" pan="0" len="-192"/>
              </pattern>
              <pattern type="0" steps="16" pos="768" name="crash2.wav" muted="0"/>
              <pattern type="0" steps="64" pos="960" name="crash2.wav" muted="0">
                <note pos="192" key="57" vol="100" pan="0" len="-192"/>
              </pattern>
              <pattern type="0" steps="64" pos="1152" name="crash2.wav" muted="0">
                <note pos="384" key="57" vol="100" pan="0" len="-192"/>
              </pattern>
              <pattern type="0" steps="32" pos="1344" name="crash2.wav" muted="0"/>
              <pattern type="0" steps="32" pos="1536" name="crash2.wav" muted="0">
                <note pos="192" key="57" vol="100" pan="0" len="-192"/>
              </pattern>
              <pattern type="0" steps="32" pos="1728" name="crash2.wav" muted="0"/>
            </track>
            <track type="0" name="china.wav" solo="0" muted="0">
              <instrumenttrack pitch="0" usemasterpitch="1" vol="130.4" pan="0" pitchrange="1" basenote="57" fxch="6">
                <instrument name="audiofileprocessor">
                  <audiofileprocessor reversed="0" stutter="0" lframe="0" looped="0" eframe="1" amp="100" src="/home/pass/samples/sillydrums/china.wav" interp="1" sframe="0"/>
                </instrument>
                <eldata fwet="0" fres="0.5" fcut="14000" ftype="0">
                  <elvol ctlenvamt="0" pdel="0" dec="2" lspd_denominator="4" att="0" lamt="0" sustain="1" hold="2" lshp="0" rel="2" x100="0" lspd_syncmode="0" userwavefile="" amt="1" lspd="0.1" lspd_numerator="4" latt="0" lpdel="0"/>
                  <elcut ctlenvamt="0" pdel="0" dec="0.5" lspd_denominator="4" att="0" lamt="0" sustain="0.5" hold="0.5" lshp="0" rel="0.1" x100="0" lspd_syncmode="0" userwavefile="" amt="0" lspd="0.1" lspd_numerator="4" latt="0" lpdel="0"/>
                  <elres ctlenvamt="0" pdel="0" dec="0.5" lspd_denominator="4" att="0" lamt="0" sustain="0.5" hold="0.5" lshp="0" rel="0.1" x100="0" lspd_syncmode="0" userwavefile="" amt="0" lspd="0.1" lspd_numerator="4" latt="0" lpdel="0"/>
                </eldata>
                <chordcreator chordrange="1" chord="0" chord-enabled="0"/>
                <arpeggiator arprange="1" arptime_syncmode="0" arptime_denominator="4" arp-enabled="0" arpmiss="0" arpmode="0" arpgate="100" arpskip="0" arptime_numerator="4" arptime="200" arpdir="0" arpcycle="0" arp="0"/>
                <midiport writable="0" basevelocity="63" fixedoutputvelocity="-1" outputchannel="1" fixedoutputnote="-1" outputprogram="1" inputcontroller="0" inputchannel="0" outputcontroller="0" readable="0" fixedinputvelocity="-1"/>
                <fxchain numofeffects="0" enabled="0"/>
              </instrumenttrack>
              <pattern type="0" steps="64" pos="0" name="china.wav" muted="0"/>
              <pattern type="0" steps="32" pos="192" name="china.wav" muted="0"/>
              <pattern type="0" steps="64" pos="384" name="china.wav" muted="0"/>
              <pattern type="0" steps="64" pos="576" name="china.wav" muted="0"/>
              <pattern type="0" steps="16" pos="768" name="china.wav" muted="0"/>
              <pattern type="0" steps="64" pos="960" name="china.wav" muted="0"/>
              <pattern type="0" steps="64" pos="1152" name="china.wav" muted="0"/>
              <pattern type="0" steps="32" pos="1344" name="china.wav" muted="0"/>
              <pattern type="0" steps="32" pos="1536" name="china.wav" muted="0"/>
              <pattern type="0" steps="32" pos="1728" name="china.wav" muted="0"/>
            </track>
            <track type="0" name="hiTom.wav" solo="0" muted="0">
              <instrumenttrack pitch="0" usemasterpitch="1" vol="130.4" pan="0" pitchrange="1" basenote="57" fxch="7">
                <instrument name="audiofileprocessor">
                  <audiofileprocessor reversed="0" stutter="0" lframe="0" looped="0" eframe="1" amp="100" src="/home/pass/samples/sillydrums/hiTom.wav" interp="1" sframe="0"/>
                </instrument>
                <eldata fwet="0" fres="0.5" fcut="14000" ftype="0">
                  <elvol ctlenvamt="0" pdel="0" dec="2" lspd_denominator="4" att="0" lamt="0" sustain="1" hold="2" lshp="0" rel="2" x100="0" lspd_syncmode="0" userwavefile="" amt="1" lspd="0.1" lspd_numerator="4" latt="0" lpdel="0"/>
                  <elcut ctlenvamt="0" pdel="0" dec="0.5" lspd_denominator="4" att="0" lamt="0" sustain="0.5" hold="0.5" lshp="0" rel="0.1" x100="0" lspd_syncmode="0" userwavefile="" amt="0" lspd="0.1" lspd_numerator="4" latt="0" lpdel="0"/>
                  <elres ctlenvamt="0" pdel="0" dec="0.5" lspd_denominator="4" att="0" lamt="0" sustain="0.5" hold="0.5" lshp="0" rel="0.1" x100="0" lspd_syncmode="0" userwavefile="" amt="0" lspd="0.1" lspd_numerator="4" latt="0" lpdel="0"/>
                </eldata>
                <chordcreator chordrange="1" chord="0" chord-enabled="0"/>
                <arpeggiator arprange="1" arptime_syncmode="0" arptime_denominator="4" arp-enabled="0" arpmiss="0" arpmode="0" arpgate="100" arpskip="0" arptime_numerator="4" arptime="200" arpdir="0" arpcycle="0" arp="0"/>
                <midiport writable="0" basevelocity="63" fixedoutputvelocity="-1" outputchannel="1" fixedoutputnote="-1" outputprogram="1" inputcontroller="0" inputchannel="0" outputcontroller="0" readable="0" fixedinputvelocity="-1"/>
                <fxchain numofeffects="0" enabled="0"/>
              </instrumenttrack>
              <pattern type="0" steps="64" pos="0" name="hiTom.wav" muted="0"/>
              <pattern type="0" steps="32" pos="192" name="hiTom.wav" muted="0"/>
              <pattern type="0" steps="64" pos="384" name="hiTom.wav" muted="0"/>
              <pattern type="0" steps="64" pos="576" name="hiTom.wav" muted="0"/>
              <pattern type="0" steps="16" pos="768" name="hiTom.wav" muted="0"/>
              <pattern type="0" steps="64" pos="960" name="hiTom.wav" muted="0"/>
              <pattern type="0" steps="64" pos="1152" name="hiTom.wav" muted="0"/>
              <pattern type="0" steps="32" pos="1344" name="hiTom.wav" muted="0"/>
              <pattern type="0" steps="32" pos="1536" name="hiTom.wav" muted="0"/>
              <pattern type="0" steps="32" pos="1728" name="hiTom.wav" muted="0">
                <note pos="204" key="57" vol="100" pan="0" len="-192"/>
                <note pos="252" key="57" vol="100" pan="0" len="-192"/>
              </pattern>
            </track>
            <track type="0" name="midTom.wav" solo="0" muted="0">
              <instrumenttrack pitch="0" usemasterpitch="1" vol="130.4" pan="0" pitchrange="1" basenote="57" fxch="8">
                <instrument name="audiofileprocessor">
                  <audiofileprocessor reversed="0" stutter="0" lframe="0" looped="0" eframe="1" amp="100" src="/home/pass/samples/sillydrums/midTom.wav" interp="1" sframe="0"/>
                </instrument>
                <eldata fwet="0" fres="0.5" fcut="14000" ftype="0">
                  <elvol ctlenvamt="0" pdel="0" dec="2" lspd_denominator="4" att="0" lamt="0" sustain="1" hold="2" lshp="0" rel="2" x100="0" lspd_syncmode="0" userwavefile="" amt="1" lspd="0.1" lspd_numerator="4" latt="0" lpdel="0"/>
                  <elcut ctlenvamt="0" pdel="0" dec="0.5" lspd_denominator="4" att="0" lamt="0" sustain="0.5" hold="0.5" lshp="0" rel="0.1" x100="0" lspd_syncmode="0" userwavefile="" amt="0" lspd="0.1" lspd_numerator="4" latt="0" lpdel="0"/>
                  <elres ctlenvamt="0" pdel="0" dec="0.5" lspd_denominator="4" att="0" lamt="0" sustain="0.5" hold="0.5" lshp="0" rel="0.1" x100="0" lspd_syncmode="0" userwavefile="" amt="0" lspd="0.1" lspd_numerator="4" latt="0" lpdel="0"/>
                </eldata>
                <chordcreator chordrange="1" chord="0" chord-enabled="0"/>
                <arpeggiator arprange="1" arptime_syncmode="0" arptime_denominator="4" arp-enabled="0" arpmiss="0" arpmode="0" arpgate="100" arpskip="0" arptime_numerator="4" arptime="200" arpdir="0" arpcycle="0" arp="0"/>
                <midiport writable="0" basevelocity="63" fixedoutputvelocity="-1" outputchannel="1" fixedoutputnote="-1" outputprogram="1" inputcontroller="0" inputchannel="0" outputcontroller="0" readable="0" fixedinputvelocity="-1"/>
                <fxchain numofeffects="0" enabled="0"/>
              </instrumenttrack>
              <pattern type="0" steps="64" pos="0" name="midTom.wav" muted="0">
                <note pos="336" key="57" vol="100" pan="0" len="-192"/>
                <note pos="360" key="57" vol="100" pan="0" len="-192"/>
              </pattern>
              <pattern type="0" steps="32" pos="192" name="midTom.wav" muted="0">
                <note pos="336" key="57" vol="100" pan="0" len="-192"/>
              </pattern>
              <pattern type="0" steps="64" pos="384" name="midTom.wav" muted="0"/>
              <pattern type="0" steps="64" pos="576" name="midTom.wav" muted="0"/>
              <pattern type="0" steps="16" pos="768" name="midTom.wav" muted="0">
                <note pos="108" key="57" vol="100" pan="0" len="-192"/>
                <note pos="120" key="57" vol="100" pan="0" len="-192"/>
                <note pos="132" key="57" vol="100" pan="0" len="-192"/>
              </pattern>
              <pattern type="0" steps="64" pos="960" name="midTom.wav" muted="0"/>
              <pattern type="0" steps="64" pos="1152" name="midTom.wav" muted="0"/>
              <pattern type="0" steps="32" pos="1344" name="midTom.wav" muted="0"/>
              <pattern type="0" steps="32" pos="1536" name="midTom.wav" muted="0"/>
              <pattern type="0" steps="32" pos="1728" name="midTom.wav" muted="0">
                <note pos="216" key="57" vol="100" pan="0" len="-192"/>
                <note pos="264" key="57" vol="100" pan="0" len="-192"/>
              </pattern>
            </track>
            <track type="0" name="loTom.wav" solo="0" muted="0">
              <instrumenttrack pitch="0" usemasterpitch="1" vol="130.4" pan="0" pitchrange="1" basenote="57" fxch="9">
                <instrument name="audiofileprocessor">
                  <audiofileprocessor reversed="0" stutter="0" lframe="0" looped="0" eframe="1" amp="100" src="/home/pass/samples/sillydrums/loTom.wav" interp="1" sframe="0"/>
                </instrument>
                <eldata fwet="0" fres="0.5" fcut="14000" ftype="0">
                  <elvol ctlenvamt="0" pdel="0" dec="2" lspd_denominator="4" att="0" lamt="0" sustain="1" hold="2" lshp="0" rel="2" x100="0" lspd_syncmode="0" userwavefile="" amt="1" lspd="0.1" lspd_numerator="4" latt="0" lpdel="0"/>
                  <elcut ctlenvamt="0" pdel="0" dec="0.5" lspd_denominator="4" att="0" lamt="0" sustain="0.5" hold="0.5" lshp="0" rel="0.1" x100="0" lspd_syncmode="0" userwavefile="" amt="0" lspd="0.1" lspd_numerator="4" latt="0" lpdel="0"/>
                  <elres ctlenvamt="0" pdel="0" dec="0.5" lspd_denominator="4" att="0" lamt="0" sustain="0.5" hold="0.5" lshp="0" rel="0.1" x100="0" lspd_syncmode="0" userwavefile="" amt="0" lspd="0.1" lspd_numerator="4" latt="0" lpdel="0"/>
                </eldata>
                <chordcreator chordrange="1" chord="0" chord-enabled="0"/>
                <arpeggiator arprange="1" arptime_syncmode="0" arptime_denominator="4" arp-enabled="0" arpmiss="0" arpmode="0" arpgate="100" arpskip="0" arptime_numerator="4" arptime="200" arpdir="0" arpcycle="0" arp="0"/>
                <midiport writable="0" basevelocity="63" fixedoutputvelocity="-1" outputchannel="1" fixedoutputnote="-1" outputprogram="1" inputcontroller="0" inputchannel="0" outputcontroller="0" readable="0" fixedinputvelocity="-1"/>
                <fxchain numofeffects="0" enabled="0"/>
              </instrumenttrack>
              <pattern type="0" steps="64" pos="0" name="loTom.wav" muted="0"/>
              <pattern type="0" steps="32" pos="192" name="loTom.wav" muted="0">
                <note pos="360" key="57" vol="100" pan="0" len="-192"/>
              </pattern>
              <pattern type="0" steps="64" pos="384" name="loTom.wav" muted="0"/>
              <pattern type="0" steps="64" pos="576" name="loTom.wav" muted="0"/>
              <pattern type="0" steps="16" pos="768" name="loTom.wav" muted="0">
                <note pos="156" key="57" vol="100" pan="0" len="-192"/>
                <note pos="168" key="57" vol="100" pan="0" len="-192"/>
                <note pos="180" key="57" vol="100" pan="0" len="-192"/>
              </pattern>
              <pattern type="0" steps="64" pos="960" name="loTom.wav" muted="0"/>
              <pattern type="0" steps="64" pos="1152" name="loTom.wav" muted="0"/>
              <pattern type="0" steps="32" pos="1344" name="loTom.wav" muted="0"/>
              <pattern type="0" steps="32" pos="1536" name="loTom.wav" muted="0"/>
              <pattern type="0" steps="32" pos="1728" name="loTom.wav" muted="0">
                <note pos="228" key="57" vol="100" pan="0" len="-192"/>
                <note pos="276" key="57" vol="100" pan="0" len="-192"/>
              </pattern>
            </track>
            <track type="0" name="hihat_opened02.ogg" solo="0" muted="0">
              <instrumenttrack pitch="0" usemasterpitch="1" vol="100" pan="0" pitchrange="1" basenote="57" fxch="0">
                <instrument name="audiofileprocessor">
                  <audiofileprocessor reversed="0" stutter="0" lframe="0" looped="0" eframe="1" amp="100" src="drums/hihat_opened02.ogg" interp="1" sframe="0"/>
                </instrument>
                <eldata fwet="0" fres="0.5" fcut="14000" ftype="0">
                  <elvol ctlenvamt="0" pdel="0" dec="0.5" lspd_denominator="4" att="0" lamt="0" sustain="0.5" hold="0.5" lshp="0" rel="0.1" x100="0" lspd_syncmode="0" userwavefile="" amt="0" lspd="0.1" lspd_numerator="4" latt="0" lpdel="0"/>
                  <elcut ctlenvamt="0" pdel="0" dec="0.5" lspd_denominator="4" att="0" lamt="0" sustain="0.5" hold="0.5" lshp="0" rel="0.1" x100="0" lspd_syncmode="0" userwavefile="" amt="0" lspd="0.1" lspd_numerator="4" latt="0" lpdel="0"/>
                  <elres ctlenvamt="0" pdel="0" dec="0.5" lspd_denominator="4" att="0" lamt="0" sustain="0.5" hold="0.5" lshp="0" rel="0.1" x100="0" lspd_syncmode="0" userwavefile="" amt="0" lspd="0.1" lspd_numerator="4" latt="0" lpdel="0"/>
                </eldata>
                <chordcreator chordrange="1" chord="0" chord-enabled="0"/>
                <arpeggiator arprange="1" arptime_syncmode="0" arptime_denominator="4" arp-enabled="0" arpmiss="0" arpmode="0" arpgate="100" arpskip="0" arptime_numerator="4" arptime="200" arpdir="0" arpcycle="0" arp="0"/>
                <midiport writable="0" basevelocity="63" fixedoutputvelocity="-1" outputchannel="1" fixedoutputnote="-1" outputprogram="1" inputcontroller="0" inputchannel="0" outputcontroller="0" readable="0" fixedinputvelocity="-1"/>
                <fxchain numofeffects="0" enabled="0"/>
              </instrumenttrack>
              <pattern type="0" steps="64" pos="0" name="hihat_opened02.ogg" muted="0"/>
              <pattern type="0" steps="32" pos="192" name="hihat_opened02.ogg" muted="0"/>
              <pattern type="0" steps="64" pos="384" name="hihat_opened02.ogg" muted="0"/>
              <pattern type="0" steps="64" pos="576" name="hihat_opened02.ogg" muted="0"/>
              <pattern type="0" steps="16" pos="768" name="hihat_opened02.ogg" muted="0"/>
              <pattern type="0" steps="64" pos="960" name="hihat_opened02.ogg" muted="0"/>
              <pattern type="0" steps="64" pos="1152" name="hihat_opened02.ogg" muted="0"/>
              <pattern type="0" steps="32" pos="1344" name="hihat_opened02.ogg" muted="0"/>
              <pattern type="0" steps="32" pos="1536" name="hihat_opened02.ogg" muted="0"/>
              <pattern type="0" steps="32" pos="1728" name="hihat_opened02.ogg" muted="0"/>
            </track>
          </trackcontainer>
        </bbtrack>
        <bbtco color="4286611584" pos="768" usestyle="1" name="" muted="0" len="768"/>
      </track>
      <track type="1" name="Clone of intro1" solo="0" muted="0">
        <bbtrack/>
        <bbtco color="4286611584" pos="4992" usestyle="1" name="" muted="0" len="1536"/>
      </track>
      <track type="1" name="intro2" solo="0" muted="0">
        <bbtrack/>
        <bbtco color="4286611584" pos="6528" usestyle="1" name="" muted="0" len="1536"/>
      </track>
      <track type="1" name="bootcamp1" solo="0" muted="0">
        <bbtrack/>
        <bbtco color="4286611584" pos="8064" usestyle="1" name="" muted="0" len="1344"/>
        <bbtco color="4286611584" pos="10752" usestyle="1" name="" muted="0" len="384"/>
        <bbtco color="4286611584" pos="11136" usestyle="1" name="" muted="0" len="768"/>
        <bbtco color="4286611584" pos="13824" usestyle="1" name="" muted="0" len="384"/>
        <bbtco color="4286611584" pos="15360" usestyle="1" name="" muted="0" len="384"/>
      </track>
      <track type="1" name="fill1" solo="0" muted="0">
        <bbtrack/>
        <bbtco color="4286611584" pos="9408" usestyle="1" name="" muted="0" len="192"/>
      </track>
      <track type="1" name="Clone of bootcamp1" solo="0" muted="0">
        <bbtrack/>
        <bbtco color="4286611584" pos="9600" usestyle="1" name="" muted="0" len="768"/>
        <bbtco color="4286611584" pos="10368" usestyle="1" name="" muted="0" len="384"/>
      </track>
      <track type="1" name="Clone of Clone of bootcamp1" solo="0" muted="0">
        <bbtrack/>
        <bbtco color="4286611584" pos="12672" usestyle="1" name="" muted="0" len="1152"/>
        <bbtco color="4286611584" pos="14208" usestyle="1" name="" muted="0" len="1152"/>
      </track>
      <track type="1" name="kick/mutecrash" solo="0" muted="0">
        <bbtrack/>
        <bbtco color="4286611584" pos="3456" usestyle="1" name="" muted="0" len="1536"/>
      </track>
      <track type="1" name="Beat/Bassline 6" solo="0" muted="0">
        <bbtrack/>
        <bbtco color="4286611584" pos="11904" usestyle="1" name="" muted="0" len="384"/>
        <bbtco color="4286611584" pos="15744" usestyle="1" name="" muted="0" len="192"/>
        <bbtco color="4286611584" pos="15936" usestyle="1" name="" muted="0" len="192"/>
        <bbtco color="4286611584" pos="16128" usestyle="1" name="" muted="0" len="192"/>
        <bbtco color="4286611584" pos="16320" usestyle="1" name="" muted="0" len="192"/>
      </track>
      <track type="1" name="Clone of Beat/Bassline 6" solo="0" muted="0">
        <bbtrack/>
        <bbtco color="4286611584" pos="12288" usestyle="1" name="" muted="0" len="384"/>
      </track>
      <track type="5" name="Automation track" solo="0" muted="0">
        <automationtrack/>
      </track>
      <track type="0" name="bass fender jazz (1,379kb)" solo="0" muted="0">
        <instrumenttrack pitch="0" usemasterpitch="1" vol="177.6" pan="0" pitchrange="1" basenote="57" fxch="14">
          <instrument name="sf2player">
            <sf2player reverbLevel="0.9" reverbDamping="0.2" bank="0" chorusSpeed="0.3" gain="1" chorusDepth="8" src="/home/pass/samples/soundfonts/bass fender jazz (1,379kb).sf2" reverbOn="0" chorusOn="0" reverbRoomSize="0.2" patch="0" reverbWidth="0.5" chorusNum="0.9" chorusLevel="2"/>
          </instrument>
          <eldata fwet="0" fres="0.5" fcut="14000" ftype="0">
            <elvol ctlenvamt="0" pdel="0" dec="0.5" lspd_denominator="4" att="0" lamt="0" sustain="0.5" hold="0.5" lshp="0" rel="0.1" x100="0" lspd_syncmode="0" userwavefile="" amt="0" lspd="0.1" lspd_numerator="4" latt="0" lpdel="0"/>
            <elcut ctlenvamt="0" pdel="0" dec="0.5" lspd_denominator="4" att="0" lamt="0" sustain="0.5" hold="0.5" lshp="0" rel="0.1" x100="0" lspd_syncmode="0" userwavefile="" amt="0" lspd="0.1" lspd_numerator="4" latt="0" lpdel="0"/>
            <elres ctlenvamt="0" pdel="0" dec="0.5" lspd_denominator="4" att="0" lamt="0" sustain="0.5" hold="0.5" lshp="0" rel="0.1" x100="0" lspd_syncmode="0" userwavefile="" amt="0" lspd="0.1" lspd_numerator="4" latt="0" lpdel="0"/>
          </eldata>
          <chordcreator chordrange="1" chord="0" chord-enabled="0"/>
          <arpeggiator arprange="1" arptime_syncmode="0" arptime_denominator="4" arp-enabled="0" arpmiss="0" arpmode="0" arpgate="100" arpskip="0" arptime_numerator="4" arptime="200" arpdir="0" arpcycle="0" arp="0"/>
          <midiport writable="0" basevelocity="63" fixedoutputvelocity="-1" outputchannel="1" fixedoutputnote="-1" outputprogram="1" inputcontroller="0" inputchannel="0" outputcontroller="0" readable="0" fixedinputvelocity="-1"/>
          <fxchain numofeffects="0" enabled="1"/>
        </instrumenttrack>
        <pattern type="1" steps="16" pos="3840" name="bass fender jazz (1,379kb)" muted="0">
          <note pos="0" key="24" vol="195" pan="0" len="48"/>
        </pattern>
        <pattern type="1" steps="16" pos="4224" name="bass fender jazz (1,379kb)" muted="0">
          <note pos="0" key="26" vol="195" pan="0" len="48"/>
        </pattern>
        <pattern type="1" steps="16" pos="4608" name="bass fender jazz (1,379kb)" muted="0">
          <note pos="0" key="19" vol="195" pan="0" len="48"/>
          <note pos="192" key="26" vol="195" pan="0" len="192"/>
        </pattern>
        <pattern type="1" steps="16" pos="4992" name="bass fender jazz (1,379kb)" muted="0">
          <note pos="0" key="16" vol="100" pan="0" len="48"/>
          <note pos="48" key="16" vol="100" pan="0" len="24"/>
          <note pos="72" key="16" vol="100" pan="0" len="24"/>
          <note pos="96" key="16" vol="100" pan="0" len="24"/>
          <note pos="120" key="16" vol="100" pan="0" len="24"/>
          <note pos="144" key="16" vol="100" pan="0" len="24"/>
          <note pos="168" key="16" vol="100" pan="0" len="24"/>
          <note pos="192" key="16" vol="100" pan="0" len="24"/>
          <note pos="216" key="16" vol="100" pan="0" len="24"/>
          <note pos="240" key="16" vol="100" pan="0" len="24"/>
          <note pos="264" key="16" vol="100" pan="0" len="24"/>
          <note pos="288" key="16" vol="100" pan="0" len="24"/>
          <note pos="312" key="16" vol="100" pan="0" len="24"/>
          <note pos="336" key="16" vol="100" pan="0" len="24"/>
          <note pos="360" key="16" vol="100" pan="0" len="24"/>
        </pattern>
        <pattern type="1" steps="16" pos="5376" name="bass fender jazz (1,379kb)" muted="0">
          <note pos="0" key="24" vol="100" pan="0" len="48"/>
          <note pos="0" key="0" vol="100" pan="0" len="24"/>
          <note pos="24" key="1" vol="100" pan="0" len="24"/>
          <note pos="48" key="24" vol="100" pan="0" len="24"/>
          <note pos="72" key="24" vol="100" pan="0" len="24"/>
          <note pos="96" key="24" vol="100" pan="0" len="24"/>
          <note pos="120" key="24" vol="100" pan="0" len="24"/>
          <note pos="144" key="24" vol="100" pan="0" len="24"/>
          <note pos="168" key="24" vol="100" pan="0" len="24"/>
          <note pos="192" key="24" vol="100" pan="0" len="24"/>
          <note pos="216" key="24" vol="100" pan="0" len="24"/>
          <note pos="240" key="24" vol="100" pan="0" len="24"/>
          <note pos="264" key="24" vol="100" pan="0" len="24"/>
          <note pos="288" key="24" vol="100" pan="0" len="24"/>
          <note pos="312" key="24" vol="100" pan="0" len="24"/>
          <note pos="336" key="24" vol="100" pan="0" len="24"/>
          <note pos="360" key="24" vol="100" pan="0" len="24"/>
        </pattern>
        <pattern type="1" steps="16" pos="5760" name="bass fender jazz (1,379kb)" muted="0">
          <note pos="0" key="26" vol="100" pan="0" len="48"/>
          <note pos="0" key="0" vol="100" pan="0" len="24"/>
          <note pos="24" key="1" vol="100" pan="0" len="24"/>
          <note pos="48" key="26" vol="100" pan="0" len="24"/>
          <note pos="72" key="26" vol="100" pan="0" len="24"/>
          <note pos="96" key="26" vol="100" pan="0" len="24"/>
          <note pos="120" key="26" vol="100" pan="0" len="24"/>
          <note pos="144" key="26" vol="100" pan="0" len="24"/>
          <note pos="168" key="26" vol="100" pan="0" len="24"/>
          <note pos="192" key="26" vol="100" pan="0" len="24"/>
          <note pos="216" key="26" vol="100" pan="0" len="24"/>
          <note pos="240" key="26" vol="100" pan="0" len="24"/>
          <note pos="264" key="26" vol="100" pan="0" len="24"/>
          <note pos="288" key="26" vol="100" pan="0" len="24"/>
          <note pos="312" key="26" vol="100" pan="0" len="24"/>
          <note pos="336" key="26" vol="100" pan="0" len="24"/>
          <note pos="360" key="26" vol="100" pan="0" len="24"/>
        </pattern>
        <pattern type="1" steps="16" pos="6144" name="bass fender jazz (1,379kb)" muted="0">
          <note pos="0" key="19" vol="100" pan="0" len="192"/>
          <note pos="0" key="0" vol="100" pan="0" len="24"/>
          <note pos="192" key="26" vol="100" pan="0" len="192"/>
        </pattern>
        <pattern type="1" steps="16" pos="6528" name="bass fender jazz (1,379kb)" muted="0">
          <note pos="0" key="16" vol="100" pan="0" len="48"/>
          <note pos="0" key="0" vol="100" pan="0" len="24"/>
          <note pos="24" key="1" vol="100" pan="0" len="24"/>
          <note pos="48" key="16" vol="100" pan="0" len="12"/>
          <note pos="60" key="16" vol="100" pan="0" len="12"/>
          <note pos="72" key="16" vol="100" pan="0" len="12"/>
          <note pos="84" key="16" vol="100" pan="0" len="12"/>
          <note pos="96" key="16" vol="100" pan="0" len="12"/>
          <note pos="108" key="16" vol="100" pan="0" len="12"/>
          <note pos="120" key="16" vol="100" pan="0" len="12"/>
          <note pos="132" key="16" vol="100" pan="0" len="12"/>
          <note pos="144" key="16" vol="100" pan="0" len="12"/>
          <note pos="156" key="16" vol="100" pan="0" len="12"/>
          <note pos="168" key="16" vol="100" pan="0" len="12"/>
          <note pos="180" key="16" vol="100" pan="0" len="12"/>
          <note pos="192" key="16" vol="100" pan="0" len="12"/>
          <note pos="204" key="16" vol="100" pan="0" len="12"/>
          <note pos="216" key="16" vol="100" pan="0" len="12"/>
          <note pos="228" key="16" vol="100" pan="0" len="12"/>
          <note pos="240" key="16" vol="100" pan="0" len="12"/>
          <note pos="252" key="16" vol="100" pan="0" len="12"/>
          <note pos="264" key="16" vol="100" pan="0" len="12"/>
          <note pos="276" key="16" vol="100" pan="0" len="12"/>
          <note pos="288" key="16" vol="100" pan="0" len="12"/>
          <note pos="300" key="16" vol="100" pan="0" len="12"/>
          <note pos="312" key="16" vol="100" pan="0" len="12"/>
          <note pos="324" key="16" vol="100" pan="0" len="12"/>
          <note pos="336" key="16" vol="100" pan="0" len="12"/>
          <note pos="348" key="16" vol="100" pan="0" len="12"/>
          <note pos="360" key="16" vol="100" pan="0" len="12"/>
          <note pos="372" key="16" vol="100" pan="0" len="12"/>
        </pattern>
        <pattern type="1" steps="16" pos="6912" name="bass fender jazz (1,379kb)" muted="0">
          <note pos="0" key="24" vol="100" pan="0" len="48"/>
          <note pos="0" key="0" vol="100" pan="0" len="24"/>
          <note pos="24" key="1" vol="100" pan="0" len="24"/>
          <note pos="48" key="24" vol="100" pan="0" len="12"/>
          <note pos="60" key="24" vol="100" pan="0" len="12"/>
          <note pos="72" key="24" vol="100" pan="0" len="12"/>
          <note pos="84" key="24" vol="100" pan="0" len="12"/>
          <note pos="96" key="24" vol="100" pan="0" len="12"/>
          <note pos="108" key="24" vol="100" pan="0" len="12"/>
          <note pos="120" key="24" vol="100" pan="0" len="12"/>
          <note pos="132" key="24" vol="100" pan="0" len="12"/>
          <note pos="144" key="24" vol="100" pan="0" len="12"/>
          <note pos="156" key="24" vol="100" pan="0" len="12"/>
          <note pos="168" key="24" vol="100" pan="0" len="12"/>
          <note pos="180" key="24" vol="100" pan="0" len="12"/>
          <note pos="192" key="24" vol="100" pan="0" len="12"/>
          <note pos="204" key="24" vol="100" pan="0" len="12"/>
          <note pos="216" key="24" vol="100" pan="0" len="12"/>
          <note pos="228" key="24" vol="100" pan="0" len="12"/>
          <note pos="240" key="24" vol="100" pan="0" len="12"/>
          <note pos="252" key="24" vol="100" pan="0" len="12"/>
          <note pos="264" key="24" vol="100" pan="0" len="12"/>
          <note pos="276" key="24" vol="100" pan="0" len="12"/>
          <note pos="288" key="24" vol="100" pan="0" len="12"/>
          <note pos="300" key="24" vol="100" pan="0" len="12"/>
          <note pos="312" key="24" vol="100" pan="0" len="12"/>
          <note pos="324" key="24" vol="100" pan="0" len="12"/>
          <note pos="336" key="24" vol="100" pan="0" len="12"/>
          <note pos="348" key="24" vol="100" pan="0" len="12"/>
          <note pos="360" key="24" vol="100" pan="0" len="12"/>
          <note pos="372" key="24" vol="100" pan="0" len="12"/>
        </pattern>
        <pattern type="1" steps="16" pos="7296" name="bass fender jazz (1,379kb)" muted="0">
          <note pos="0" key="26" vol="100" pan="0" len="48"/>
          <note pos="0" key="0" vol="100" pan="0" len="24"/>
          <note pos="24" key="1" vol="100" pan="0" len="24"/>
          <note pos="48" key="26" vol="100" pan="0" len="12"/>
          <note pos="60" key="26" vol="100" pan="0" len="12"/>
          <note pos="72" key="26" vol="100" pan="0" len="12"/>
          <note pos="84" key="26" vol="100" pan="0" len="12"/>
          <note pos="96" key="26" vol="100" pan="0" len="12"/>
          <note pos="108" key="26" vol="100" pan="0" len="12"/>
          <note pos="120" key="26" vol="100" pan="0" len="12"/>
          <note pos="132" key="26" vol="100" pan="0" len="12"/>
          <note pos="144" key="26" vol="100" pan="0" len="12"/>
          <note pos="156" key="26" vol="100" pan="0" len="12"/>
          <note pos="168" key="26" vol="100" pan="0" len="12"/>
          <note pos="180" key="26" vol="100" pan="0" len="12"/>
          <note pos="192" key="26" vol="100" pan="0" len="12"/>
          <note pos="204" key="26" vol="100" pan="0" len="12"/>
          <note pos="216" key="26" vol="100" pan="0" len="12"/>
          <note pos="228" key="26" vol="100" pan="0" len="12"/>
          <note pos="240" key="26" vol="100" pan="0" len="12"/>
          <note pos="252" key="26" vol="100" pan="0" len="12"/>
          <note pos="264" key="26" vol="100" pan="0" len="12"/>
          <note pos="276" key="26" vol="100" pan="0" len="12"/>
          <note pos="288" key="26" vol="100" pan="0" len="12"/>
          <note pos="300" key="26" vol="100" pan="0" len="12"/>
          <note pos="312" key="26" vol="100" pan="0" len="12"/>
          <note pos="324" key="26" vol="100" pan="0" len="12"/>
          <note pos="336" key="26" vol="100" pan="0" len="12"/>
          <note pos="348" key="26" vol="100" pan="0" len="12"/>
          <note pos="360" key="26" vol="100" pan="0" len="12"/>
          <note pos="372" key="26" vol="100" pan="0" len="12"/>
        </pattern>
        <pattern type="1" steps="16" pos="7680" name="bass fender jazz (1,379kb)" muted="0">
          <note pos="0" key="19" vol="100" pan="0" len="48"/>
          <note pos="48" key="19" vol="100" pan="0" len="12"/>
          <note pos="60" key="19" vol="100" pan="0" len="12"/>
          <note pos="72" key="19" vol="100" pan="0" len="12"/>
          <note pos="84" key="19" vol="100" pan="0" len="12"/>
          <note pos="96" key="19" vol="100" pan="0" len="12"/>
          <note pos="108" key="19" vol="100" pan="0" len="12"/>
          <note pos="120" key="19" vol="100" pan="0" len="12"/>
          <note pos="132" key="19" vol="100" pan="0" len="12"/>
          <note pos="144" key="19" vol="100" pan="0" len="12"/>
          <note pos="156" key="19" vol="100" pan="0" len="12"/>
          <note pos="168" key="19" vol="100" pan="0" len="12"/>
          <note pos="180" key="19" vol="100" pan="0" len="12"/>
          <note pos="192" key="26" vol="100" pan="0" len="72"/>
          <note pos="264" key="24" vol="100" pan="0" len="48"/>
          <note pos="336" key="24" vol="100" pan="0" len="24"/>
          <note pos="360" key="26" vol="100" pan="0" len="24"/>
        </pattern>
        <pattern type="1" steps="16" pos="9600" name="bass fender jazz (1,379kb)" muted="0">
          <note pos="0" key="16" vol="104" pan="0" len="192"/>
          <note pos="192" key="24" vol="104" pan="0" len="192"/>
          <note pos="384" key="19" vol="104" pan="0" len="384"/>
          <note pos="768" key="16" vol="104" pan="0" len="192"/>
          <note pos="960" key="24" vol="104" pan="0" len="192"/>
          <note pos="1152" key="19" vol="104" pan="0" len="192"/>
          <note pos="1344" key="26" vol="104" pan="0" len="192"/>
        </pattern>
        <pattern type="1" steps="16" pos="11136" name="bass fender jazz (1,379kb)" muted="0">
          <note pos="0" key="16" vol="104" pan="0" len="24"/>
          <note pos="0" key="0" vol="104" pan="0" len="12"/>
          <note pos="12" key="1" vol="104" pan="0" len="12"/>
          <note pos="24" key="16" vol="104" pan="0" len="12"/>
          <note pos="36" key="16" vol="104" pan="0" len="12"/>
          <note pos="48" key="16" vol="104" pan="0" len="12"/>
          <note pos="60" key="16" vol="104" pan="0" len="12"/>
          <note pos="72" key="16" vol="104" pan="0" len="24"/>
          <note pos="72" key="0" vol="104" pan="0" len="12"/>
          <note pos="84" key="1" vol="104" pan="0" len="12"/>
          <note pos="96" key="16" vol="104" pan="0" len="12"/>
          <note pos="108" key="16" vol="104" pan="0" len="12"/>
          <note pos="120" key="16" vol="104" pan="0" len="12"/>
          <note pos="132" key="16" vol="104" pan="0" len="12"/>
          <note pos="144" key="16" vol="104" pan="0" len="24"/>
          <note pos="144" key="0" vol="104" pan="0" len="12"/>
          <note pos="156" key="1" vol="104" pan="0" len="12"/>
          <note pos="168" key="16" vol="104" pan="0" len="12"/>
          <note pos="180" key="16" vol="104" pan="0" len="12"/>
        </pattern>
        <pattern type="1" steps="16" pos="11328" name="bass fender jazz (1,379kb)" muted="0">
          <note pos="0" key="24" vol="104" pan="0" len="24"/>
          <note pos="0" key="0" vol="104" pan="0" len="12"/>
          <note pos="12" key="1" vol="104" pan="0" len="12"/>
          <note pos="24" key="24" vol="104" pan="0" len="12"/>
          <note pos="36" key="24" vol="104" pan="0" len="12"/>
          <note pos="48" key="24" vol="104" pan="0" len="12"/>
          <note pos="60" key="24" vol="104" pan="0" len="12"/>
          <note pos="72" key="24" vol="104" pan="0" len="24"/>
          <note pos="72" key="0" vol="104" pan="0" len="12"/>
          <note pos="84" key="1" vol="104" pan="0" len="12"/>
          <note pos="96" key="24" vol="104" pan="0" len="12"/>
          <note pos="108" key="24" vol="104" pan="0" len="12"/>
          <note pos="120" key="24" vol="104" pan="0" len="12"/>
          <note pos="132" key="24" vol="104" pan="0" len="12"/>
          <note pos="144" key="24" vol="104" pan="0" len="24"/>
          <note pos="144" key="0" vol="104" pan="0" len="12"/>
          <note pos="156" key="1" vol="104" pan="0" len="12"/>
          <note pos="168" key="24" vol="104" pan="0" len="12"/>
          <note pos="180" key="24" vol="104" pan="0" len="12"/>
        </pattern>
        <pattern type="1" steps="16" pos="11520" name="bass fender jazz (1,379kb)" muted="0">
          <note pos="0" key="19" vol="104" pan="0" len="24"/>
          <note pos="0" key="0" vol="104" pan="0" len="12"/>
          <note pos="12" key="1" vol="104" pan="0" len="12"/>
          <note pos="24" key="19" vol="104" pan="0" len="12"/>
          <note pos="36" key="19" vol="104" pan="0" len="12"/>
          <note pos="48" key="19" vol="104" pan="0" len="12"/>
          <note pos="60" key="19" vol="104" pan="0" len="12"/>
          <note pos="72" key="19" vol="104" pan="0" len="24"/>
          <note pos="72" key="0" vol="104" pan="0" len="12"/>
          <note pos="84" key="1" vol="104" pan="0" len="12"/>
          <note pos="96" key="19" vol="104" pan="0" len="12"/>
          <note pos="108" key="19" vol="104" pan="0" len="12"/>
          <note pos="120" key="19" vol="104" pan="0" len="12"/>
          <note pos="132" key="19" vol="104" pan="0" len="12"/>
          <note pos="144" key="19" vol="104" pan="0" len="24"/>
          <note pos="144" key="0" vol="104" pan="0" len="12"/>
          <note pos="156" key="1" vol="104" pan="0" len="12"/>
          <note pos="168" key="19" vol="104" pan="0" len="12"/>
          <note pos="180" key="19" vol="104" pan="0" len="12"/>
        </pattern>
        <pattern type="1" steps="16" pos="11712" name="bass fender jazz (1,379kb)" muted="0">
          <note pos="0" key="26" vol="104" pan="0" len="24"/>
          <note pos="0" key="0" vol="104" pan="0" len="12"/>
          <note pos="12" key="1" vol="104" pan="0" len="12"/>
          <note pos="24" key="26" vol="104" pan="0" len="12"/>
          <note pos="36" key="26" vol="104" pan="0" len="12"/>
          <note pos="48" key="26" vol="104" pan="0" len="12"/>
          <note pos="60" key="26" vol="104" pan="0" len="12"/>
          <note pos="72" key="26" vol="104" pan="0" len="24"/>
          <note pos="72" key="0" vol="104" pan="0" len="12"/>
          <note pos="84" key="1" vol="104" pan="0" len="12"/>
          <note pos="96" key="26" vol="104" pan="0" len="12"/>
          <note pos="108" key="26" vol="104" pan="0" len="12"/>
          <note pos="120" key="26" vol="104" pan="0" len="12"/>
          <note pos="132" key="26" vol="104" pan="0" len="12"/>
          <note pos="144" key="26" vol="104" pan="0" len="24"/>
          <note pos="144" key="0" vol="104" pan="0" len="12"/>
          <note pos="156" key="1" vol="104" pan="0" len="12"/>
          <note pos="168" key="26" vol="104" pan="0" len="12"/>
          <note pos="180" key="26" vol="104" pan="0" len="12"/>
        </pattern>
        <pattern type="1" steps="16" pos="11904" name="bass fender jazz (1,379kb)" muted="0">
          <note pos="0" key="24" vol="104" pan="0" len="48"/>
          <note pos="0" key="0" vol="104" pan="0" len="24"/>
          <note pos="24" key="1" vol="104" pan="0" len="24"/>
          <note pos="48" key="24" vol="104" pan="0" len="12"/>
          <note pos="60" key="24" vol="104" pan="0" len="12"/>
          <note pos="72" key="24" vol="104" pan="0" len="24"/>
          <note pos="96" key="24" vol="104" pan="0" len="12"/>
          <note pos="108" key="24" vol="104" pan="0" len="12"/>
          <note pos="120" key="24" vol="104" pan="0" len="24"/>
          <note pos="144" key="24" vol="104" pan="0" len="12"/>
          <note pos="156" key="24" vol="104" pan="0" len="12"/>
          <note pos="168" key="24" vol="104" pan="0" len="24"/>
          <note pos="180" key="0" vol="104" pan="0" len="48"/>
          <note pos="192" key="26" vol="104" pan="0" len="48"/>
          <note pos="240" key="26" vol="104" pan="0" len="12"/>
          <note pos="240" key="1" vol="104" pan="0" len="48"/>
          <note pos="252" key="26" vol="104" pan="0" len="12"/>
          <note pos="264" key="26" vol="104" pan="0" len="24"/>
          <note pos="288" key="26" vol="104" pan="0" len="12"/>
          <note pos="300" key="26" vol="104" pan="0" len="12"/>
          <note pos="312" key="26" vol="104" pan="0" len="24"/>
          <note pos="336" key="26" vol="104" pan="0" len="12"/>
          <note pos="348" key="26" vol="104" pan="0" len="12"/>
          <note pos="360" key="26" vol="104" pan="0" len="24"/>
          <note pos="372" key="0" vol="104" pan="0" len="48"/>
          <note pos="384" key="16" vol="104" pan="0" len="48"/>
          <note pos="432" key="16" vol="104" pan="0" len="12"/>
          <note pos="432" key="1" vol="104" pan="0" len="48"/>
          <note pos="444" key="16" vol="104" pan="0" len="12"/>
          <note pos="456" key="16" vol="104" pan="0" len="24"/>
          <note pos="480" key="16" vol="104" pan="0" len="12"/>
          <note pos="492" key="16" vol="104" pan="0" len="12"/>
          <note pos="504" key="16" vol="104" pan="0" len="24"/>
          <note pos="528" key="16" vol="104" pan="0" len="12"/>
          <note pos="540" key="16" vol="104" pan="0" len="12"/>
          <note pos="552" key="16" vol="104" pan="0" len="24"/>
          <note pos="576" key="18" vol="104" pan="0" len="12"/>
          <note pos="576" key="0" vol="104" pan="0" len="12"/>
          <note pos="588" key="19" vol="104" pan="0" len="12"/>
          <note pos="588" key="1" vol="104" pan="0" len="12"/>
          <note pos="600" key="16" vol="104" pan="0" len="12"/>
          <note pos="612" key="16" vol="104" pan="0" len="12"/>
          <note pos="624" key="16" vol="104" pan="0" len="12"/>
          <note pos="636" key="16" vol="104" pan="0" len="12"/>
          <note pos="648" key="18" vol="104" pan="0" len="12"/>
          <note pos="648" key="0" vol="104" pan="0" len="12"/>
          <note pos="660" key="19" vol="104" pan="0" len="12"/>
          <note pos="672" key="16" vol="104" pan="0" len="12"/>
          <note pos="672" key="1" vol="104" pan="0" len="12"/>
          <note pos="684" key="16" vol="104" pan="0" len="12"/>
          <note pos="696" key="16" vol="104" pan="0" len="12"/>
          <note pos="708" key="16" vol="104" pan="0" len="12"/>
          <note pos="720" key="18" vol="104" pan="0" len="12"/>
          <note pos="720" key="0" vol="104" pan="0" len="12"/>
          <note pos="732" key="19" vol="104" pan="0" len="12"/>
          <note pos="744" key="16" vol="104" pan="0" len="12"/>
          <note pos="744" key="1" vol="104" pan="0" len="12"/>
          <note pos="756" key="16" vol="104" pan="0" len="12"/>
        </pattern>
        <pattern type="1" steps="16" pos="8064" name="bass fender jazz (1,379kb)" muted="0">
          <note pos="0" key="16" vol="100" pan="0" len="48"/>
          <note pos="0" key="0" vol="100" pan="0" len="24"/>
          <note pos="24" key="1" vol="100" pan="0" len="24"/>
          <note pos="48" key="16" vol="100" pan="0" len="12"/>
          <note pos="60" key="16" vol="100" pan="0" len="12"/>
          <note pos="72" key="16" vol="100" pan="0" len="12"/>
          <note pos="84" key="16" vol="100" pan="0" len="12"/>
          <note pos="96" key="16" vol="100" pan="0" len="12"/>
          <note pos="108" key="16" vol="100" pan="0" len="12"/>
          <note pos="120" key="16" vol="100" pan="0" len="12"/>
          <note pos="132" key="16" vol="100" pan="0" len="12"/>
          <note pos="144" key="16" vol="100" pan="0" len="12"/>
          <note pos="156" key="16" vol="100" pan="0" len="12"/>
          <note pos="168" key="16" vol="100" pan="0" len="12"/>
          <note pos="180" key="16" vol="100" pan="0" len="12"/>
          <note pos="192" key="16" vol="100" pan="0" len="12"/>
          <note pos="204" key="16" vol="100" pan="0" len="12"/>
          <note pos="216" key="16" vol="100" pan="0" len="12"/>
          <note pos="228" key="16" vol="100" pan="0" len="12"/>
          <note pos="240" key="16" vol="100" pan="0" len="12"/>
          <note pos="252" key="16" vol="100" pan="0" len="12"/>
          <note pos="264" key="16" vol="100" pan="0" len="12"/>
          <note pos="276" key="16" vol="100" pan="0" len="12"/>
          <note pos="288" key="16" vol="100" pan="0" len="12"/>
          <note pos="300" key="16" vol="100" pan="0" len="12"/>
          <note pos="312" key="16" vol="100" pan="0" len="12"/>
          <note pos="324" key="16" vol="100" pan="0" len="12"/>
          <note pos="336" key="16" vol="100" pan="0" len="12"/>
          <note pos="348" key="16" vol="100" pan="0" len="12"/>
          <note pos="360" key="16" vol="100" pan="0" len="12"/>
          <note pos="372" key="16" vol="100" pan="0" len="12"/>
        </pattern>
        <pattern type="1" steps="16" pos="8448" name="bass fender jazz (1,379kb)" muted="0">
          <note pos="0" key="24" vol="100" pan="0" len="48"/>
          <note pos="0" key="0" vol="100" pan="0" len="24"/>
          <note pos="24" key="1" vol="100" pan="0" len="24"/>
          <note pos="48" key="24" vol="100" pan="0" len="12"/>
          <note pos="60" key="24" vol="100" pan="0" len="12"/>
          <note pos="72" key="24" vol="100" pan="0" len="12"/>
          <note pos="84" key="24" vol="100" pan="0" len="12"/>
          <note pos="96" key="24" vol="100" pan="0" len="12"/>
          <note pos="108" key="24" vol="100" pan="0" len="12"/>
          <note pos="120" key="24" vol="100" pan="0" len="12"/>
          <note pos="132" key="24" vol="100" pan="0" len="12"/>
          <note pos="144" key="24" vol="100" pan="0" len="12"/>
          <note pos="156" key="24" vol="100" pan="0" len="12"/>
          <note pos="168" key="24" vol="100" pan="0" len="12"/>
          <note pos="180" key="24" vol="100" pan="0" len="12"/>
          <note pos="192" key="24" vol="100" pan="0" len="12"/>
          <note pos="204" key="24" vol="100" pan="0" len="12"/>
          <note pos="216" key="24" vol="100" pan="0" len="12"/>
          <note pos="228" key="24" vol="100" pan="0" len="12"/>
          <note pos="240" key="24" vol="100" pan="0" len="12"/>
          <note pos="252" key="24" vol="100" pan="0" len="12"/>
          <note pos="264" key="24" vol="100" pan="0" len="12"/>
          <note pos="276" key="24" vol="100" pan="0" len="12"/>
          <note pos="288" key="24" vol="100" pan="0" len="12"/>
          <note pos="300" key="24" vol="100" pan="0" len="12"/>
          <note pos="312" key="24" vol="100" pan="0" len="12"/>
          <note pos="324" key="24" vol="100" pan="0" len="12"/>
          <note pos="336" key="24" vol="100" pan="0" len="12"/>
          <note pos="348" key="24" vol="100" pan="0" len="12"/>
          <note pos="360" key="24" vol="100" pan="0" len="12"/>
          <note pos="372" key="24" vol="100" pan="0" len="12"/>
        </pattern>
        <pattern type="1" steps="16" pos="8832" name="bass fender jazz (1,379kb)" muted="0">
          <note pos="0" key="26" vol="100" pan="0" len="48"/>
          <note pos="0" key="0" vol="100" pan="0" len="24"/>
          <note pos="24" key="1" vol="100" pan="0" len="24"/>
          <note pos="48" key="26" vol="100" pan="0" len="12"/>
          <note pos="60" key="26" vol="100" pan="0" len="12"/>
          <note pos="72" key="26" vol="100" pan="0" len="12"/>
          <note pos="84" key="26" vol="100" pan="0" len="12"/>
          <note pos="96" key="26" vol="100" pan="0" len="12"/>
          <note pos="108" key="26" vol="100" pan="0" len="12"/>
          <note pos="120" key="26" vol="100" pan="0" len="12"/>
          <note pos="132" key="26" vol="100" pan="0" len="12"/>
          <note pos="144" key="26" vol="100" pan="0" len="12"/>
          <note pos="156" key="26" vol="100" pan="0" len="12"/>
          <note pos="168" key="26" vol="100" pan="0" len="12"/>
          <note pos="180" key="26" vol="100" pan="0" len="12"/>
          <note pos="192" key="26" vol="100" pan="0" len="12"/>
          <note pos="204" key="26" vol="100" pan="0" len="12"/>
          <note pos="216" key="26" vol="100" pan="0" len="12"/>
          <note pos="228" key="26" vol="100" pan="0" len="12"/>
          <note pos="240" key="26" vol="100" pan="0" len="12"/>
          <note pos="252" key="26" vol="100" pan="0" len="12"/>
          <note pos="264" key="26" vol="100" pan="0" len="12"/>
          <note pos="276" key="26" vol="100" pan="0" len="12"/>
          <note pos="288" key="26" vol="100" pan="0" len="12"/>
          <note pos="300" key="26" vol="100" pan="0" len="12"/>
          <note pos="312" key="26" vol="100" pan="0" len="12"/>
          <note pos="324" key="26" vol="100" pan="0" len="12"/>
          <note pos="336" key="26" vol="100" pan="0" len="12"/>
          <note pos="348" key="26" vol="100" pan="0" len="12"/>
          <note pos="360" key="26" vol="100" pan="0" len="12"/>
          <note pos="372" key="26" vol="100" pan="0" len="12"/>
        </pattern>
        <pattern type="1" steps="16" pos="9216" name="bass fender jazz (1,379kb)" muted="0">
          <note pos="0" key="19" vol="100" pan="0" len="48"/>
          <note pos="48" key="19" vol="100" pan="0" len="12"/>
          <note pos="60" key="19" vol="100" pan="0" len="12"/>
          <note pos="72" key="19" vol="100" pan="0" len="12"/>
          <note pos="84" key="19" vol="100" pan="0" len="12"/>
          <note pos="96" key="19" vol="100" pan="0" len="12"/>
          <note pos="108" key="19" vol="100" pan="0" len="12"/>
          <note pos="120" key="19" vol="100" pan="0" len="12"/>
          <note pos="132" key="19" vol="100" pan="0" len="12"/>
          <note pos="144" key="19" vol="100" pan="0" len="12"/>
          <note pos="156" key="19" vol="100" pan="0" len="12"/>
          <note pos="168" key="19" vol="100" pan="0" len="12"/>
          <note pos="180" key="19" vol="100" pan="0" len="12"/>
          <note pos="192" key="26" vol="100" pan="0" len="72"/>
          <note pos="264" key="26" vol="100" pan="0" len="72"/>
          <note pos="336" key="26" vol="100" pan="0" len="24"/>
          <note pos="360" key="26" vol="100" pan="0" len="24"/>
        </pattern>
        <pattern type="1" steps="16" pos="12672" name="bass fender jazz (1,379kb)" muted="0">
          <note pos="0" key="16" vol="100" pan="0" len="48"/>
          <note pos="0" key="0" vol="100" pan="0" len="24"/>
          <note pos="24" key="1" vol="100" pan="0" len="24"/>
          <note pos="48" key="16" vol="100" pan="0" len="12"/>
          <note pos="60" key="16" vol="100" pan="0" len="12"/>
          <note pos="72" key="16" vol="100" pan="0" len="12"/>
          <note pos="84" key="16" vol="100" pan="0" len="12"/>
          <note pos="96" key="16" vol="100" pan="0" len="12"/>
          <note pos="108" key="16" vol="100" pan="0" len="12"/>
          <note pos="120" key="16" vol="100" pan="0" len="12"/>
          <note pos="132" key="16" vol="100" pan="0" len="12"/>
          <note pos="144" key="16" vol="100" pan="0" len="12"/>
          <note pos="156" key="16" vol="100" pan="0" len="12"/>
          <note pos="168" key="16" vol="100" pan="0" len="12"/>
          <note pos="180" key="16" vol="100" pan="0" len="12"/>
          <note pos="192" key="16" vol="100" pan="0" len="12"/>
          <note pos="204" key="16" vol="100" pan="0" len="12"/>
          <note pos="216" key="16" vol="100" pan="0" len="12"/>
          <note pos="228" key="16" vol="100" pan="0" len="12"/>
          <note pos="240" key="16" vol="100" pan="0" len="12"/>
          <note pos="252" key="16" vol="100" pan="0" len="12"/>
          <note pos="264" key="16" vol="100" pan="0" len="12"/>
          <note pos="276" key="16" vol="100" pan="0" len="12"/>
          <note pos="288" key="16" vol="100" pan="0" len="12"/>
          <note pos="300" key="16" vol="100" pan="0" len="12"/>
          <note pos="312" key="16" vol="100" pan="0" len="12"/>
          <note pos="324" key="16" vol="100" pan="0" len="12"/>
          <note pos="336" key="16" vol="100" pan="0" len="12"/>
          <note pos="348" key="16" vol="100" pan="0" len="12"/>
          <note pos="360" key="16" vol="100" pan="0" len="12"/>
          <note pos="372" key="16" vol="100" pan="0" len="12"/>
        </pattern>
        <pattern type="1" steps="16" pos="13056" name="bass fender jazz (1,379kb)" muted="0">
          <note pos="0" key="24" vol="100" pan="0" len="48"/>
          <note pos="0" key="0" vol="100" pan="0" len="24"/>
          <note pos="24" key="1" vol="100" pan="0" len="24"/>
          <note pos="48" key="24" vol="100" pan="0" len="12"/>
          <note pos="60" key="24" vol="100" pan="0" len="12"/>
          <note pos="72" key="24" vol="100" pan="0" len="12"/>
          <note pos="84" key="24" vol="100" pan="0" len="12"/>
          <note pos="96" key="24" vol="100" pan="0" len="12"/>
          <note pos="108" key="24" vol="100" pan="0" len="12"/>
          <note pos="120" key="24" vol="100" pan="0" len="12"/>
          <note pos="132" key="24" vol="100" pan="0" len="12"/>
          <note pos="144" key="24" vol="100" pan="0" len="12"/>
          <note pos="156" key="24" vol="100" pan="0" len="12"/>
          <note pos="168" key="24" vol="100" pan="0" len="12"/>
          <note pos="180" key="24" vol="100" pan="0" len="12"/>
          <note pos="192" key="24" vol="100" pan="0" len="12"/>
          <note pos="204" key="24" vol="100" pan="0" len="12"/>
          <note pos="216" key="24" vol="100" pan="0" len="12"/>
          <note pos="228" key="24" vol="100" pan="0" len="12"/>
          <note pos="240" key="24" vol="100" pan="0" len="12"/>
          <note pos="252" key="24" vol="100" pan="0" len="12"/>
          <note pos="264" key="24" vol="100" pan="0" len="12"/>
          <note pos="276" key="24" vol="100" pan="0" len="12"/>
          <note pos="288" key="24" vol="100" pan="0" len="12"/>
          <note pos="300" key="24" vol="100" pan="0" len="12"/>
          <note pos="312" key="24" vol="100" pan="0" len="12"/>
          <note pos="324" key="24" vol="100" pan="0" len="12"/>
          <note pos="336" key="24" vol="100" pan="0" len="12"/>
          <note pos="348" key="24" vol="100" pan="0" len="12"/>
          <note pos="360" key="24" vol="100" pan="0" len="12"/>
          <note pos="372" key="24" vol="100" pan="0" len="12"/>
        </pattern>
        <pattern type="1" steps="16" pos="13440" name="bass fender jazz (1,379kb)" muted="0">
          <note pos="0" key="26" vol="100" pan="0" len="48"/>
          <note pos="0" key="0" vol="100" pan="0" len="24"/>
          <note pos="24" key="1" vol="100" pan="0" len="24"/>
          <note pos="48" key="26" vol="100" pan="0" len="12"/>
          <note pos="60" key="26" vol="100" pan="0" len="12"/>
          <note pos="72" key="26" vol="100" pan="0" len="12"/>
          <note pos="84" key="26" vol="100" pan="0" len="12"/>
          <note pos="96" key="26" vol="100" pan="0" len="12"/>
          <note pos="108" key="26" vol="100" pan="0" len="12"/>
          <note pos="120" key="26" vol="100" pan="0" len="12"/>
          <note pos="132" key="26" vol="100" pan="0" len="12"/>
          <note pos="144" key="26" vol="100" pan="0" len="12"/>
          <note pos="156" key="26" vol="100" pan="0" len="12"/>
          <note pos="168" key="26" vol="100" pan="0" len="12"/>
          <note pos="180" key="26" vol="100" pan="0" len="12"/>
          <note pos="192" key="26" vol="100" pan="0" len="12"/>
          <note pos="204" key="26" vol="100" pan="0" len="12"/>
          <note pos="216" key="26" vol="100" pan="0" len="12"/>
          <note pos="228" key="26" vol="100" pan="0" len="12"/>
          <note pos="240" key="26" vol="100" pan="0" len="12"/>
          <note pos="252" key="26" vol="100" pan="0" len="12"/>
          <note pos="264" key="26" vol="100" pan="0" len="12"/>
          <note pos="276" key="26" vol="100" pan="0" len="12"/>
          <note pos="288" key="26" vol="100" pan="0" len="12"/>
          <note pos="300" key="26" vol="100" pan="0" len="12"/>
          <note pos="312" key="26" vol="100" pan="0" len="12"/>
          <note pos="324" key="26" vol="100" pan="0" len="12"/>
          <note pos="336" key="26" vol="100" pan="0" len="12"/>
          <note pos="348" key="26" vol="100" pan="0" len="12"/>
          <note pos="360" key="26" vol="100" pan="0" len="12"/>
          <note pos="372" key="26" vol="100" pan="0" len="12"/>
        </pattern>
        <pattern type="1" steps="16" pos="13824" name="bass fender jazz (1,379kb)" muted="0">
          <note pos="0" key="19" vol="100" pan="0" len="48"/>
          <note pos="48" key="19" vol="100" pan="0" len="12"/>
          <note pos="60" key="19" vol="100" pan="0" len="12"/>
          <note pos="72" key="19" vol="100" pan="0" len="12"/>
          <note pos="84" key="19" vol="100" pan="0" len="12"/>
          <note pos="96" key="19" vol="100" pan="0" len="12"/>
          <note pos="108" key="19" vol="100" pan="0" len="12"/>
          <note pos="120" key="19" vol="100" pan="0" len="12"/>
          <note pos="132" key="19" vol="100" pan="0" len="12"/>
          <note pos="144" key="19" vol="100" pan="0" len="12"/>
          <note pos="156" key="19" vol="100" pan="0" len="12"/>
          <note pos="168" key="19" vol="100" pan="0" len="12"/>
          <note pos="180" key="19" vol="100" pan="0" len="12"/>
          <note pos="192" key="26" vol="100" pan="0" len="72"/>
          <note pos="264" key="24" vol="100" pan="0" len="48"/>
          <note pos="336" key="24" vol="100" pan="0" len="24"/>
          <note pos="360" key="26" vol="100" pan="0" len="24"/>
        </pattern>
        <pattern type="1" steps="16" pos="14208" name="bass fender jazz (1,379kb)" muted="0">
          <note pos="0" key="16" vol="100" pan="0" len="48"/>
          <note pos="0" key="0" vol="100" pan="0" len="24"/>
          <note pos="24" key="1" vol="100" pan="0" len="24"/>
          <note pos="48" key="16" vol="100" pan="0" len="12"/>
          <note pos="60" key="16" vol="100" pan="0" len="12"/>
          <note pos="72" key="16" vol="100" pan="0" len="12"/>
          <note pos="84" key="16" vol="100" pan="0" len="12"/>
          <note pos="96" key="16" vol="100" pan="0" len="12"/>
          <note pos="108" key="16" vol="100" pan="0" len="12"/>
          <note pos="120" key="16" vol="100" pan="0" len="12"/>
          <note pos="132" key="16" vol="100" pan="0" len="12"/>
          <note pos="144" key="16" vol="100" pan="0" len="12"/>
          <note pos="156" key="16" vol="100" pan="0" len="12"/>
          <note pos="168" key="16" vol="100" pan="0" len="12"/>
          <note pos="180" key="16" vol="100" pan="0" len="12"/>
          <note pos="192" key="16" vol="100" pan="0" len="12"/>
          <note pos="204" key="16" vol="100" pan="0" len="12"/>
          <note pos="216" key="16" vol="100" pan="0" len="12"/>
          <note pos="228" key="16" vol="100" pan="0" len="12"/>
          <note pos="240" key="16" vol="100" pan="0" len="12"/>
          <note pos="252" key="16" vol="100" pan="0" len="12"/>
          <note pos="264" key="16" vol="100" pan="0" len="12"/>
          <note pos="276" key="16" vol="100" pan="0" len="12"/>
          <note pos="288" key="16" vol="100" pan="0" len="12"/>
          <note pos="300" key="16" vol="100" pan="0" len="12"/>
          <note pos="312" key="16" vol="100" pan="0" len="12"/>
          <note pos="324" key="16" vol="100" pan="0" len="12"/>
          <note pos="336" key="16" vol="100" pan="0" len="12"/>
          <note pos="348" key="16" vol="100" pan="0" len="12"/>
          <note pos="360" key="16" vol="100" pan="0" len="12"/>
          <note pos="372" key="16" vol="100" pan="0" len="12"/>
        </pattern>
        <pattern type="1" steps="16" pos="14592" name="bass fender jazz (1,379kb)" muted="0">
          <note pos="0" key="24" vol="100" pan="0" len="48"/>
          <note pos="0" key="0" vol="100" pan="0" len="24"/>
          <note pos="24" key="1" vol="100" pan="0" len="24"/>
          <note pos="48" key="24" vol="100" pan="0" len="12"/>
          <note pos="60" key="24" vol="100" pan="0" len="12"/>
          <note pos="72" key="24" vol="100" pan="0" len="12"/>
          <note pos="84" key="24" vol="100" pan="0" len="12"/>
          <note pos="96" key="24" vol="100" pan="0" len="12"/>
          <note pos="108" key="24" vol="100" pan="0" len="12"/>
          <note pos="120" key="24" vol="100" pan="0" len="12"/>
          <note pos="132" key="24" vol="100" pan="0" len="12"/>
          <note pos="144" key="24" vol="100" pan="0" len="12"/>
          <note pos="156" key="24" vol="100" pan="0" len="12"/>
          <note pos="168" key="24" vol="100" pan="0" len="12"/>
          <note pos="180" key="24" vol="100" pan="0" len="12"/>
          <note pos="192" key="24" vol="100" pan="0" len="12"/>
          <note pos="204" key="24" vol="100" pan="0" len="12"/>
          <note pos="216" key="24" vol="100" pan="0" len="12"/>
          <note pos="228" key="24" vol="100" pan="0" len="12"/>
          <note pos="240" key="24" vol="100" pan="0" len="12"/>
          <note pos="252" key="24" vol="100" pan="0" len="12"/>
          <note pos="264" key="24" vol="100" pan="0" len="12"/>
          <note pos="276" key="24" vol="100" pan="0" len="12"/>
          <note pos="288" key="24" vol="100" pan="0" len="12"/>
          <note pos="300" key="24" vol="100" pan="0" len="12"/>
          <note pos="312" key="24" vol="100" pan="0" len="12"/>
          <note pos="324" key="24" vol="100" pan="0" len="12"/>
          <note pos="336" key="24" vol="100" pan="0" len="12"/>
          <note pos="348" key="24" vol="100" pan="0" len="12"/>
          <note pos="360" key="24" vol="100" pan="0" len="12"/>
          <note pos="372" key="24" vol="100" pan="0" len="12"/>
        </pattern>
        <pattern type="1" steps="16" pos="14976" name="bass fender jazz (1,379kb)" muted="0">
          <note pos="0" key="26" vol="100" pan="0" len="48"/>
          <note pos="0" key="0" vol="100" pan="0" len="24"/>
          <note pos="24" key="1" vol="100" pan="0" len="24"/>
          <note pos="48" key="26" vol="100" pan="0" len="12"/>
          <note pos="60" key="26" vol="100" pan="0" len="12"/>
          <note pos="72" key="26" vol="100" pan="0" len="12"/>
          <note pos="84" key="26" vol="100" pan="0" len="12"/>
          <note pos="96" key="26" vol="100" pan="0" len="12"/>
          <note pos="108" key="26" vol="100" pan="0" len="12"/>
          <note pos="120" key="26" vol="100" pan="0" len="12"/>
          <note pos="132" key="26" vol="100" pan="0" len="12"/>
          <note pos="144" key="26" vol="100" pan="0" len="12"/>
          <note pos="156" key="26" vol="100" pan="0" len="12"/>
          <note pos="168" key="26" vol="100" pan="0" len="12"/>
          <note pos="180" key="26" vol="100" pan="0" len="12"/>
          <note pos="192" key="26" vol="100" pan="0" len="12"/>
          <note pos="204" key="26" vol="100" pan="0" len="12"/>
          <note pos="216" key="26" vol="100" pan="0" len="12"/>
          <note pos="228" key="26" vol="100" pan="0" len="12"/>
          <note pos="240" key="26" vol="100" pan="0" len="12"/>
          <note pos="252" key="26" vol="100" pan="0" len="12"/>
          <note pos="264" key="26" vol="100" pan="0" len="12"/>
          <note pos="276" key="26" vol="100" pan="0" len="12"/>
          <note pos="288" key="26" vol="100" pan="0" len="12"/>
          <note pos="300" key="26" vol="100" pan="0" len="12"/>
          <note pos="312" key="26" vol="100" pan="0" len="12"/>
          <note pos="324" key="26" vol="100" pan="0" len="12"/>
          <note pos="336" key="26" vol="100" pan="0" len="12"/>
          <note pos="348" key="26" vol="100" pan="0" len="12"/>
          <note pos="360" key="26" vol="100" pan="0" len="12"/>
          <note pos="372" key="26" vol="100" pan="0" len="12"/>
        </pattern>
        <pattern type="1" steps="16" pos="15360" name="bass fender jazz (1,379kb)" muted="0">
          <note pos="0" key="19" vol="100" pan="0" len="48"/>
          <note pos="48" key="19" vol="100" pan="0" len="12"/>
          <note pos="60" key="19" vol="100" pan="0" len="12"/>
          <note pos="72" key="19" vol="100" pan="0" len="12"/>
          <note pos="84" key="19" vol="100" pan="0" len="12"/>
          <note pos="96" key="19" vol="100" pan="0" len="12"/>
          <note pos="108" key="19" vol="100" pan="0" len="12"/>
          <note pos="120" key="19" vol="100" pan="0" len="12"/>
          <note pos="132" key="19" vol="100" pan="0" len="12"/>
          <note pos="144" key="19" vol="100" pan="0" len="12"/>
          <note pos="156" key="19" vol="100" pan="0" len="12"/>
          <note pos="168" key="19" vol="100" pan="0" len="12"/>
          <note pos="180" key="19" vol="100" pan="0" len="12"/>
          <note pos="192" key="26" vol="100" pan="0" len="72"/>
          <note pos="264" key="24" vol="100" pan="0" len="48"/>
          <note pos="336" key="24" vol="100" pan="0" len="24"/>
          <note pos="360" key="26" vol="100" pan="0" len="24"/>
        </pattern>
      </track>
      <track type="0" name="Rhythm Guitar" solo="0" muted="0">
        <instrumenttrack pitch="0" usemasterpitch="1" vol="200" pan="0" pitchrange="1" basenote="57" fxch="11">
          <instrument name="carlapatchbay">
            <carlapatchbay>
              <CARLA-PROJECT VERSION="2.2">
                <EngineSettings>
                  <ForceStereo>false</ForceStereo>
                  <PreferPluginBridges>false</PreferPluginBridges>
                  <PreferUiBridges>true</PreferUiBridges>
                  <UIsAlwaysOnTop>false</UIsAlwaysOnTop>
                  <MaxParameters>200</MaxParameters>
                  <UIBridgesTimeout>4000</UIBridgesTimeout>
                  <LADSPA_PATH>/home/pass/.ladspa:/usr/lib/ladspa:/usr/local/lib/ladspa</LADSPA_PATH>
                  <DSSI_PATH>/home/pass/.dssi:/usr/lib/dssi:/usr/local/lib/dssi</DSSI_PATH>
                  <LV2_PATH>/home/pass/.lv2:/usr/lib/lv2:/usr/local/lib/lv2</LV2_PATH>
                  <VST2_PATH>/home/pass/.vst:/home/pass/.wine/drive_c/Program Files (x86)/VstPlugins:/home/pass/.wine/drive_c/Program Files/VstPlugins:/home/pass/vst:/usr/lib/lxvst:/usr/lib/vst:/usr/local/lib/lxvst:/usr/local/lib/vst/home/pass/.lxvst</VST2_PATH>
                  <VST3_PATH>/home/pass/.vst3:/home/pass/.wine/drive_c/Program Files (x86)/Common Files/VST3:/home/pass/.wine/drive_c/Program Files/Common Files/VST3:/usr/lib/vst3:/usr/local/lib/vst3</VST3_PATH>
                  <SF2_PATH>/home/pass/.sounds/sf2/home/pass/.sounds/sf3:/usr/share/soundfonts:/usr/share/sounds/sf2:/usr/share/sounds/sf3</SF2_PATH>
                  <SFZ_PATH>/home/pass/.sounds/sfz:/home/pass/samples:/usr/share/sounds/sfz</SFZ_PATH>
                </EngineSettings>
                <!-- sfizz -->
                <Plugin>
                  <Info>
                    <Type>LV2</Type>
                    <Name>sfizz</Name>
                    <URI>http://sfztools.github.io/sfizz</URI>
                  </Info>
                  <Data>
                    <Active>Yes</Active>
                    <ControlChannel>1</ControlChannel>
                    <Options>0x3f0</Options>
                    <Parameter>
                      <Index>0</Index>
                      <Name>Volume</Name>
                      <Symbol>volume</Symbol>
                      <Value>0</Value>
                    </Parameter>
                    <Parameter>
                      <Index>1</Index>
                      <Name>Polyphony</Name>
                      <Symbol>num_voices</Symbol>
                      <Value>64</Value>
                    </Parameter>
                    <Parameter>
                      <Index>2</Index>
                      <Name>Internal oversampling factor</Name>
                      <Symbol>oversampling</Symbol>
                      <Value>1</Value>
                    </Parameter>
                    <Parameter>
                      <Index>3</Index>
                      <Name>Preload size</Name>
                      <Symbol>preload_size</Symbol>
                      <Value>8192</Value>
                    </Parameter>
                    <CustomData>
                      <Type>http://lv2plug.in/ns/ext/atom#Path</Type>
                      <Key>http://sfztools.github.io/sfizz:sfzfile</Key>
                      <Value>/home/pass/samples/fakeguitar/_fakeguitar1_integrated.sfz</Value>
                    </CustomData>
                    <CustomData>
                      <Type>http://lv2plug.in/ns/ext/atom#Int</Type>
                      <Key>http://sfztools.github.io/sfizz:numvoices</Key>
                      <Value>QAAAAA==</Value>
                    </CustomData>
                    <CustomData>
                      <Type>http://lv2plug.in/ns/ext/atom#Int</Type>
                      <Key>http://sfztools.github.io/sfizz:preload_size</Key>
                      <Value>ACAAAA==</Value>
                    </CustomData>
                    <CustomData>
                      <Type>http://lv2plug.in/ns/ext/atom#Int</Type>
                      <Key>http://sfztools.github.io/sfizz:oversampling</Key>
                      <Value>AQAAAA==</Value>
                    </CustomData>
                  </Data>
                </Plugin>
                <!-- sfizz -->
                <Plugin>
                  <Info>
                    <Type>LV2</Type>
                    <Name>sfizz (2)</Name>
                    <URI>http://sfztools.github.io/sfizz</URI>
                  </Info>
                  <Data>
                    <Active>Yes</Active>
                    <ControlChannel>1</ControlChannel>
                    <Options>0x3f0</Options>
                    <Parameter>
                      <Index>0</Index>
                      <Name>Volume</Name>
                      <Symbol>volume</Symbol>
                      <Value>0</Value>
                    </Parameter>
                    <Parameter>
                      <Index>1</Index>
                      <Name>Polyphony</Name>
                      <Symbol>num_voices</Symbol>
                      <Value>64</Value>
                    </Parameter>
                    <Parameter>
                      <Index>2</Index>
                      <Name>Internal oversampling factor</Name>
                      <Symbol>oversampling</Symbol>
                      <Value>1</Value>
                    </Parameter>
                    <Parameter>
                      <Index>3</Index>
                      <Name>Preload size</Name>
                      <Symbol>preload_size</Symbol>
                      <Value>8192</Value>
                    </Parameter>
                    <CustomData>
                      <Type>http://lv2plug.in/ns/ext/atom#Path</Type>
                      <Key>http://sfztools.github.io/sfizz:sfzfile</Key>
                      <Value>/home/pass/samples/fakeguitar/_fakeguitar2_integrated.sfz</Value>
                    </CustomData>
                    <CustomData>
                      <Type>http://lv2plug.in/ns/ext/atom#Int</Type>
                      <Key>http://sfztools.github.io/sfizz:numvoices</Key>
                      <Value>QAAAAA==</Value>
                    </CustomData>
                    <CustomData>
                      <Type>http://lv2plug.in/ns/ext/atom#Int</Type>
                      <Key>http://sfztools.github.io/sfizz:preload_size</Key>
                      <Value>ACAAAA==</Value>
                    </CustomData>
                    <CustomData>
                      <Type>http://lv2plug.in/ns/ext/atom#Int</Type>
                      <Key>http://sfztools.github.io/sfizz:oversampling</Key>
                      <Value>AQAAAA==</Value>
                    </CustomData>
                  </Data>
                </Plugin>
                <Patchbay>
                  <Connection>
                    <Source>Midi Input:Capture 1</Source>
                    <Target>sfizz:events-in</Target>
                  </Connection>
                  <Connection>
                    <Source>sfizz:Left Output</Source>
                    <Target>Audio Output:Left</Target>
                  </Connection>
                  <Connection>
                    <Source>sfizz:Right Output</Source>
                    <Target>Audio Output:Left</Target>
                  </Connection>
                  <Connection>
                    <Source>Midi Input:Capture 1</Source>
                    <Target>sfizz (2):events-in</Target>
                  </Connection>
                  <Connection>
                    <Source>sfizz (2):Right Output</Source>
                    <Target>Audio Output:Right</Target>
                  </Connection>
                  <Connection>
                    <Source>sfizz (2):Left Output</Source>
                    <Target>Audio Output:Right</Target>
                  </Connection>
                  <Positions>
                    <Position pluginId="1" y1="1350" x1="1711">
                      <Name>sfizz (2)</Name>
                    </Position>
                    <Position pluginId="0" y1="1297" x1="1704">
                      <Name>sfizz</Name>
                    </Position>
                  </Positions>
                </Patchbay>
              </CARLA-PROJECT>
            </carlapatchbay>
          </instrument>
          <eldata fwet="0" fres="0.5" fcut="14000" ftype="0">
            <elvol ctlenvamt="0" pdel="0" dec="0.5" lspd_denominator="4" att="0" lamt="0" sustain="0.5" hold="0.5" lshp="0" rel="0.1" x100="0" lspd_syncmode="0" userwavefile="" amt="0" lspd="0.1" lspd_numerator="4" latt="0" lpdel="0"/>
            <elcut ctlenvamt="0" pdel="0" dec="0.5" lspd_denominator="4" att="0" lamt="0" sustain="0.5" hold="0.5" lshp="0" rel="0.1" x100="0" lspd_syncmode="0" userwavefile="" amt="0" lspd="0.1" lspd_numerator="4" latt="0" lpdel="0"/>
            <elres ctlenvamt="0" pdel="0" dec="0.5" lspd_denominator="4" att="0" lamt="0" sustain="0.5" hold="0.5" lshp="0" rel="0.1" x100="0" lspd_syncmode="0" userwavefile="" amt="0" lspd="0.1" lspd_numerator="4" latt="0" lpdel="0"/>
          </eldata>
          <chordcreator chordrange="1" chord="0" chord-enabled="0"/>
          <arpeggiator arprange="1" arptime_syncmode="0" arptime_denominator="4" arp-enabled="0" arpmiss="0" arpmode="0" arpgate="100" arpskip="0" arptime_numerator="4" arptime="200" arpdir="0" arpcycle="0" arp="0"/>
          <midiport writable="0" basevelocity="127" fixedoutputvelocity="-1" outputchannel="1" fixedoutputnote="-1" outputprogram="1" inputcontroller="0" inputchannel="0" outputcontroller="0" readable="0" fixedinputvelocity="-1"/>
          <fxchain numofeffects="0" enabled="0"/>
        </instrumenttrack>
        <pattern type="1" steps="16" pos="3840" name="Rhythm Guitar" muted="0">
          <note pos="0" key="48" vol="195" pan="0" len="48"/>
        </pattern>
        <pattern type="1" steps="16" pos="4224" name="Rhythm Guitar" muted="0">
          <note pos="0" key="50" vol="195" pan="0" len="48"/>
        </pattern>
        <pattern type="1" steps="16" pos="4608" name="Rhythm Guitar" muted="0">
          <note pos="0" key="43" vol="195" pan="0" len="48"/>
          <note pos="192" key="50" vol="195" pan="0" len="192"/>
        </pattern>
        <pattern type="1" steps="16" pos="4992" name="Rhythm Guitar" muted="0">
          <note pos="0" key="40" vol="100" pan="0" len="48"/>
          <note pos="0" key="0" vol="100" pan="0" len="24"/>
          <note pos="24" key="1" vol="100" pan="0" len="24"/>
          <note pos="48" key="40" vol="100" pan="0" len="24"/>
          <note pos="72" key="40" vol="100" pan="0" len="24"/>
          <note pos="96" key="40" vol="100" pan="0" len="24"/>
          <note pos="120" key="40" vol="100" pan="0" len="24"/>
          <note pos="144" key="40" vol="100" pan="0" len="24"/>
          <note pos="168" key="40" vol="100" pan="0" len="24"/>
          <note pos="192" key="40" vol="100" pan="0" len="24"/>
          <note pos="216" key="40" vol="100" pan="0" len="24"/>
          <note pos="240" key="40" vol="100" pan="0" len="24"/>
          <note pos="264" key="40" vol="100" pan="0" len="24"/>
          <note pos="288" key="40" vol="100" pan="0" len="24"/>
          <note pos="312" key="40" vol="100" pan="0" len="24"/>
          <note pos="336" key="40" vol="100" pan="0" len="24"/>
          <note pos="360" key="40" vol="100" pan="0" len="24"/>
        </pattern>
        <pattern type="1" steps="16" pos="5376" name="Rhythm Guitar" muted="0">
          <note pos="0" key="48" vol="100" pan="0" len="48"/>
          <note pos="0" key="0" vol="100" pan="0" len="24"/>
          <note pos="24" key="1" vol="100" pan="0" len="24"/>
          <note pos="48" key="48" vol="100" pan="0" len="24"/>
          <note pos="72" key="48" vol="100" pan="0" len="24"/>
          <note pos="96" key="48" vol="100" pan="0" len="24"/>
          <note pos="120" key="48" vol="100" pan="0" len="24"/>
          <note pos="144" key="48" vol="100" pan="0" len="24"/>
          <note pos="168" key="48" vol="100" pan="0" len="24"/>
          <note pos="192" key="48" vol="100" pan="0" len="24"/>
          <note pos="216" key="48" vol="100" pan="0" len="24"/>
          <note pos="240" key="48" vol="100" pan="0" len="24"/>
          <note pos="264" key="48" vol="100" pan="0" len="24"/>
          <note pos="288" key="48" vol="100" pan="0" len="24"/>
          <note pos="312" key="48" vol="100" pan="0" len="24"/>
          <note pos="336" key="48" vol="100" pan="0" len="24"/>
          <note pos="360" key="48" vol="100" pan="0" len="24"/>
        </pattern>
        <pattern type="1" steps="16" pos="5760" name="Rhythm Guitar" muted="0">
          <note pos="0" key="50" vol="100" pan="0" len="48"/>
          <note pos="0" key="0" vol="100" pan="0" len="24"/>
          <note pos="24" key="1" vol="100" pan="0" len="24"/>
          <note pos="48" key="50" vol="100" pan="0" len="24"/>
          <note pos="72" key="50" vol="100" pan="0" len="24"/>
          <note pos="96" key="50" vol="100" pan="0" len="24"/>
          <note pos="120" key="50" vol="100" pan="0" len="24"/>
          <note pos="144" key="50" vol="100" pan="0" len="24"/>
          <note pos="168" key="50" vol="100" pan="0" len="24"/>
          <note pos="192" key="50" vol="100" pan="0" len="24"/>
          <note pos="216" key="50" vol="100" pan="0" len="24"/>
          <note pos="240" key="50" vol="100" pan="0" len="24"/>
          <note pos="264" key="50" vol="100" pan="0" len="24"/>
          <note pos="288" key="50" vol="100" pan="0" len="24"/>
          <note pos="312" key="50" vol="100" pan="0" len="24"/>
          <note pos="336" key="50" vol="100" pan="0" len="24"/>
          <note pos="360" key="50" vol="100" pan="0" len="24"/>
        </pattern>
        <pattern type="1" steps="16" pos="6144" name="Rhythm Guitar" muted="0">
          <note pos="0" key="43" vol="100" pan="0" len="192"/>
          <note pos="0" key="0" vol="100" pan="0" len="24"/>
          <note pos="192" key="50" vol="100" pan="0" len="192"/>
        </pattern>
        <pattern type="1" steps="16" pos="6528" name="Rhythm Guitar" muted="0">
          <note pos="0" key="40" vol="100" pan="0" len="48"/>
          <note pos="0" key="0" vol="100" pan="0" len="24"/>
          <note pos="24" key="1" vol="100" pan="0" len="24"/>
          <note pos="48" key="40" vol="100" pan="0" len="12"/>
          <note pos="60" key="40" vol="100" pan="0" len="12"/>
          <note pos="72" key="40" vol="100" pan="0" len="12"/>
          <note pos="84" key="40" vol="100" pan="0" len="12"/>
          <note pos="96" key="40" vol="100" pan="0" len="12"/>
          <note pos="108" key="40" vol="100" pan="0" len="12"/>
          <note pos="120" key="40" vol="100" pan="0" len="12"/>
          <note pos="132" key="40" vol="100" pan="0" len="12"/>
          <note pos="144" key="40" vol="100" pan="0" len="12"/>
          <note pos="156" key="40" vol="100" pan="0" len="12"/>
          <note pos="168" key="40" vol="100" pan="0" len="12"/>
          <note pos="180" key="40" vol="100" pan="0" len="12"/>
          <note pos="192" key="40" vol="100" pan="0" len="12"/>
          <note pos="204" key="40" vol="100" pan="0" len="12"/>
          <note pos="216" key="40" vol="100" pan="0" len="12"/>
          <note pos="228" key="40" vol="100" pan="0" len="12"/>
          <note pos="240" key="40" vol="100" pan="0" len="12"/>
          <note pos="252" key="40" vol="100" pan="0" len="12"/>
          <note pos="264" key="40" vol="100" pan="0" len="12"/>
          <note pos="276" key="40" vol="100" pan="0" len="12"/>
          <note pos="288" key="40" vol="100" pan="0" len="12"/>
          <note pos="300" key="40" vol="100" pan="0" len="12"/>
          <note pos="312" key="40" vol="100" pan="0" len="12"/>
          <note pos="324" key="40" vol="100" pan="0" len="12"/>
          <note pos="336" key="40" vol="100" pan="0" len="12"/>
          <note pos="348" key="40" vol="100" pan="0" len="12"/>
          <note pos="360" key="40" vol="100" pan="0" len="12"/>
          <note pos="372" key="40" vol="100" pan="0" len="12"/>
        </pattern>
        <pattern type="1" steps="16" pos="6912" name="Rhythm Guitar" muted="0">
          <note pos="0" key="48" vol="100" pan="0" len="48"/>
          <note pos="0" key="0" vol="100" pan="0" len="24"/>
          <note pos="24" key="1" vol="100" pan="0" len="24"/>
          <note pos="48" key="48" vol="100" pan="0" len="12"/>
          <note pos="60" key="48" vol="100" pan="0" len="12"/>
          <note pos="72" key="48" vol="100" pan="0" len="12"/>
          <note pos="84" key="48" vol="100" pan="0" len="12"/>
          <note pos="96" key="48" vol="100" pan="0" len="12"/>
          <note pos="108" key="48" vol="100" pan="0" len="12"/>
          <note pos="120" key="48" vol="100" pan="0" len="12"/>
          <note pos="132" key="48" vol="100" pan="0" len="12"/>
          <note pos="144" key="48" vol="100" pan="0" len="12"/>
          <note pos="156" key="48" vol="100" pan="0" len="12"/>
          <note pos="168" key="48" vol="100" pan="0" len="12"/>
          <note pos="180" key="48" vol="100" pan="0" len="12"/>
          <note pos="192" key="48" vol="100" pan="0" len="12"/>
          <note pos="204" key="48" vol="100" pan="0" len="12"/>
          <note pos="216" key="48" vol="100" pan="0" len="12"/>
          <note pos="228" key="48" vol="100" pan="0" len="12"/>
          <note pos="240" key="48" vol="100" pan="0" len="12"/>
          <note pos="252" key="48" vol="100" pan="0" len="12"/>
          <note pos="264" key="48" vol="100" pan="0" len="12"/>
          <note pos="276" key="48" vol="100" pan="0" len="12"/>
          <note pos="288" key="48" vol="100" pan="0" len="12"/>
          <note pos="300" key="48" vol="100" pan="0" len="12"/>
          <note pos="312" key="48" vol="100" pan="0" len="12"/>
          <note pos="324" key="48" vol="100" pan="0" len="12"/>
          <note pos="336" key="48" vol="100" pan="0" len="12"/>
          <note pos="348" key="48" vol="100" pan="0" len="12"/>
          <note pos="360" key="48" vol="100" pan="0" len="12"/>
          <note pos="372" key="48" vol="100" pan="0" len="12"/>
        </pattern>
        <pattern type="1" steps="16" pos="7296" name="Rhythm Guitar" muted="0">
          <note pos="0" key="50" vol="100" pan="0" len="48"/>
          <note pos="0" key="0" vol="100" pan="0" len="24"/>
          <note pos="24" key="1" vol="100" pan="0" len="24"/>
          <note pos="48" key="50" vol="100" pan="0" len="12"/>
          <note pos="60" key="50" vol="100" pan="0" len="12"/>
          <note pos="72" key="50" vol="100" pan="0" len="12"/>
          <note pos="84" key="50" vol="100" pan="0" len="12"/>
          <note pos="96" key="50" vol="100" pan="0" len="12"/>
          <note pos="108" key="50" vol="100" pan="0" len="12"/>
          <note pos="120" key="50" vol="100" pan="0" len="12"/>
          <note pos="132" key="50" vol="100" pan="0" len="12"/>
          <note pos="144" key="50" vol="100" pan="0" len="12"/>
          <note pos="156" key="50" vol="100" pan="0" len="12"/>
          <note pos="168" key="50" vol="100" pan="0" len="12"/>
          <note pos="180" key="50" vol="100" pan="0" len="12"/>
          <note pos="192" key="50" vol="100" pan="0" len="12"/>
          <note pos="204" key="50" vol="100" pan="0" len="12"/>
          <note pos="216" key="50" vol="100" pan="0" len="12"/>
          <note pos="228" key="50" vol="100" pan="0" len="12"/>
          <note pos="240" key="50" vol="100" pan="0" len="12"/>
          <note pos="252" key="50" vol="100" pan="0" len="12"/>
          <note pos="264" key="50" vol="100" pan="0" len="12"/>
          <note pos="276" key="50" vol="100" pan="0" len="12"/>
          <note pos="288" key="50" vol="100" pan="0" len="12"/>
          <note pos="300" key="50" vol="100" pan="0" len="12"/>
          <note pos="312" key="50" vol="100" pan="0" len="12"/>
          <note pos="324" key="50" vol="100" pan="0" len="12"/>
          <note pos="336" key="50" vol="100" pan="0" len="12"/>
          <note pos="348" key="50" vol="100" pan="0" len="12"/>
          <note pos="360" key="50" vol="100" pan="0" len="12"/>
          <note pos="372" key="50" vol="100" pan="0" len="12"/>
        </pattern>
        <pattern type="1" steps="16" pos="7680" name="Rhythm Guitar" muted="0">
          <note pos="0" key="43" vol="100" pan="0" len="48"/>
          <note pos="0" key="0" vol="100" pan="0" len="24"/>
          <note pos="24" key="1" vol="100" pan="0" len="24"/>
          <note pos="48" key="43" vol="100" pan="0" len="12"/>
          <note pos="60" key="43" vol="100" pan="0" len="12"/>
          <note pos="72" key="43" vol="100" pan="0" len="12"/>
          <note pos="84" key="43" vol="100" pan="0" len="12"/>
          <note pos="96" key="43" vol="100" pan="0" len="12"/>
          <note pos="108" key="43" vol="100" pan="0" len="12"/>
          <note pos="120" key="43" vol="100" pan="0" len="12"/>
          <note pos="132" key="43" vol="100" pan="0" len="12"/>
          <note pos="144" key="43" vol="100" pan="0" len="12"/>
          <note pos="156" key="43" vol="100" pan="0" len="12"/>
          <note pos="168" key="43" vol="100" pan="0" len="12"/>
          <note pos="180" key="43" vol="100" pan="0" len="12"/>
          <note pos="180" key="0" vol="100" pan="0" len="48"/>
          <note pos="192" key="50" vol="100" pan="0" len="72"/>
          <note pos="264" key="48" vol="100" pan="0" len="48"/>
          <note pos="300" key="0" vol="100" pan="0" len="24"/>
          <note pos="312" key="47" vol="100" pan="0" len="24"/>
          <note pos="336" key="48" vol="100" pan="0" len="24"/>
          <note pos="360" key="50" vol="100" pan="0" len="24"/>
        </pattern>
        <pattern type="1" steps="16" pos="9600" name="Rhythm Guitar" muted="0">
          <note pos="0" key="40" vol="104" pan="0" len="192"/>
          <note pos="0" key="0" vol="104" pan="0" len="24"/>
          <note pos="192" key="48" vol="104" pan="0" len="192"/>
          <note pos="384" key="43" vol="104" pan="0" len="384"/>
          <note pos="768" key="40" vol="104" pan="0" len="192"/>
          <note pos="960" key="48" vol="104" pan="0" len="192"/>
          <note pos="1152" key="43" vol="104" pan="0" len="192"/>
          <note pos="1344" key="50" vol="104" pan="0" len="192"/>
        </pattern>
        <pattern type="1" steps="16" pos="11136" name="Rhythm Guitar" muted="0">
          <note pos="0" key="40" vol="104" pan="0" len="24"/>
          <note pos="0" key="0" vol="104" pan="0" len="12"/>
          <note pos="12" key="1" vol="104" pan="0" len="12"/>
          <note pos="24" key="40" vol="104" pan="0" len="12"/>
          <note pos="36" key="40" vol="104" pan="0" len="12"/>
          <note pos="48" key="40" vol="104" pan="0" len="12"/>
          <note pos="60" key="40" vol="104" pan="0" len="12"/>
          <note pos="72" key="40" vol="104" pan="0" len="24"/>
          <note pos="72" key="0" vol="104" pan="0" len="12"/>
          <note pos="84" key="1" vol="104" pan="0" len="12"/>
          <note pos="96" key="40" vol="104" pan="0" len="12"/>
          <note pos="108" key="40" vol="104" pan="0" len="12"/>
          <note pos="120" key="40" vol="104" pan="0" len="12"/>
          <note pos="132" key="40" vol="104" pan="0" len="12"/>
          <note pos="144" key="40" vol="104" pan="0" len="24"/>
          <note pos="144" key="0" vol="104" pan="0" len="12"/>
          <note pos="156" key="1" vol="104" pan="0" len="12"/>
          <note pos="168" key="40" vol="104" pan="0" len="12"/>
          <note pos="180" key="40" vol="104" pan="0" len="12"/>
        </pattern>
        <pattern type="1" steps="16" pos="11328" name="Rhythm Guitar" muted="0">
          <note pos="0" key="48" vol="104" pan="0" len="24"/>
          <note pos="0" key="0" vol="104" pan="0" len="12"/>
          <note pos="12" key="1" vol="104" pan="0" len="12"/>
          <note pos="24" key="48" vol="104" pan="0" len="12"/>
          <note pos="36" key="48" vol="104" pan="0" len="12"/>
          <note pos="48" key="48" vol="104" pan="0" len="12"/>
          <note pos="60" key="48" vol="104" pan="0" len="12"/>
          <note pos="72" key="48" vol="104" pan="0" len="24"/>
          <note pos="72" key="0" vol="104" pan="0" len="12"/>
          <note pos="84" key="1" vol="104" pan="0" len="12"/>
          <note pos="96" key="48" vol="104" pan="0" len="12"/>
          <note pos="108" key="48" vol="104" pan="0" len="12"/>
          <note pos="120" key="48" vol="104" pan="0" len="12"/>
          <note pos="132" key="48" vol="104" pan="0" len="12"/>
          <note pos="144" key="48" vol="104" pan="0" len="24"/>
          <note pos="144" key="0" vol="104" pan="0" len="12"/>
          <note pos="156" key="1" vol="104" pan="0" len="12"/>
          <note pos="168" key="48" vol="104" pan="0" len="12"/>
          <note pos="180" key="48" vol="104" pan="0" len="12"/>
        </pattern>
        <pattern type="1" steps="16" pos="11520" name="Rhythm Guitar" muted="0">
          <note pos="0" key="43" vol="104" pan="0" len="24"/>
          <note pos="0" key="0" vol="104" pan="0" len="12"/>
          <note pos="12" key="1" vol="104" pan="0" len="12"/>
          <note pos="24" key="43" vol="104" pan="0" len="12"/>
          <note pos="36" key="43" vol="104" pan="0" len="12"/>
          <note pos="48" key="43" vol="104" pan="0" len="12"/>
          <note pos="60" key="43" vol="104" pan="0" len="12"/>
          <note pos="72" key="43" vol="104" pan="0" len="24"/>
          <note pos="72" key="0" vol="104" pan="0" len="12"/>
          <note pos="84" key="1" vol="104" pan="0" len="12"/>
          <note pos="96" key="43" vol="104" pan="0" len="12"/>
          <note pos="108" key="43" vol="104" pan="0" len="12"/>
          <note pos="120" key="43" vol="104" pan="0" len="12"/>
          <note pos="132" key="43" vol="104" pan="0" len="12"/>
          <note pos="144" key="43" vol="104" pan="0" len="24"/>
          <note pos="144" key="0" vol="104" pan="0" len="12"/>
          <note pos="156" key="1" vol="104" pan="0" len="12"/>
          <note pos="168" key="43" vol="104" pan="0" len="12"/>
          <note pos="180" key="43" vol="104" pan="0" len="12"/>
        </pattern>
        <pattern type="1" steps="16" pos="11712" name="Rhythm Guitar" muted="0">
          <note pos="0" key="50" vol="104" pan="0" len="24"/>
          <note pos="0" key="0" vol="104" pan="0" len="12"/>
          <note pos="12" key="1" vol="104" pan="0" len="12"/>
          <note pos="24" key="50" vol="104" pan="0" len="12"/>
          <note pos="36" key="50" vol="104" pan="0" len="12"/>
          <note pos="48" key="50" vol="104" pan="0" len="12"/>
          <note pos="60" key="50" vol="104" pan="0" len="12"/>
          <note pos="72" key="50" vol="104" pan="0" len="24"/>
          <note pos="72" key="0" vol="104" pan="0" len="12"/>
          <note pos="84" key="1" vol="104" pan="0" len="12"/>
          <note pos="96" key="50" vol="104" pan="0" len="12"/>
          <note pos="108" key="50" vol="104" pan="0" len="12"/>
          <note pos="120" key="50" vol="104" pan="0" len="12"/>
          <note pos="132" key="50" vol="104" pan="0" len="12"/>
          <note pos="144" key="50" vol="104" pan="0" len="24"/>
          <note pos="144" key="0" vol="104" pan="0" len="12"/>
          <note pos="156" key="1" vol="104" pan="0" len="12"/>
          <note pos="168" key="50" vol="104" pan="0" len="12"/>
          <note pos="180" key="50" vol="104" pan="0" len="12"/>
        </pattern>
        <pattern type="1" steps="16" pos="11904" name="Rhythm Guitar" muted="0">
          <note pos="0" key="48" vol="104" pan="0" len="48"/>
          <note pos="0" key="0" vol="104" pan="0" len="24"/>
          <note pos="24" key="1" vol="104" pan="0" len="24"/>
          <note pos="48" key="48" vol="104" pan="0" len="12"/>
          <note pos="60" key="48" vol="104" pan="0" len="12"/>
          <note pos="72" key="48" vol="104" pan="0" len="24"/>
          <note pos="96" key="48" vol="104" pan="0" len="12"/>
          <note pos="108" key="48" vol="104" pan="0" len="12"/>
          <note pos="120" key="48" vol="104" pan="0" len="24"/>
          <note pos="144" key="48" vol="104" pan="0" len="12"/>
          <note pos="156" key="48" vol="104" pan="0" len="12"/>
          <note pos="168" key="48" vol="104" pan="0" len="24"/>
          <note pos="180" key="0" vol="104" pan="0" len="48"/>
          <note pos="192" key="50" vol="104" pan="0" len="48"/>
          <note pos="240" key="50" vol="104" pan="0" len="12"/>
          <note pos="240" key="1" vol="104" pan="0" len="48"/>
          <note pos="252" key="50" vol="104" pan="0" len="12"/>
          <note pos="264" key="50" vol="104" pan="0" len="24"/>
          <note pos="288" key="50" vol="104" pan="0" len="12"/>
          <note pos="300" key="50" vol="104" pan="0" len="12"/>
          <note pos="312" key="50" vol="104" pan="0" len="24"/>
          <note pos="336" key="50" vol="104" pan="0" len="12"/>
          <note pos="348" key="50" vol="104" pan="0" len="12"/>
          <note pos="360" key="50" vol="104" pan="0" len="24"/>
          <note pos="372" key="0" vol="104" pan="0" len="48"/>
          <note pos="384" key="40" vol="104" pan="0" len="48"/>
          <note pos="432" key="40" vol="104" pan="0" len="12"/>
          <note pos="432" key="1" vol="104" pan="0" len="48"/>
          <note pos="444" key="40" vol="104" pan="0" len="12"/>
          <note pos="456" key="40" vol="104" pan="0" len="24"/>
          <note pos="480" key="40" vol="104" pan="0" len="12"/>
          <note pos="492" key="40" vol="104" pan="0" len="12"/>
          <note pos="504" key="40" vol="104" pan="0" len="24"/>
          <note pos="528" key="40" vol="104" pan="0" len="12"/>
          <note pos="540" key="40" vol="104" pan="0" len="12"/>
          <note pos="552" key="40" vol="104" pan="0" len="24"/>
          <note pos="576" key="42" vol="104" pan="0" len="12"/>
          <note pos="576" key="0" vol="104" pan="0" len="12"/>
          <note pos="588" key="43" vol="104" pan="0" len="12"/>
          <note pos="588" key="1" vol="104" pan="0" len="12"/>
          <note pos="600" key="40" vol="104" pan="0" len="12"/>
          <note pos="612" key="40" vol="104" pan="0" len="12"/>
          <note pos="624" key="40" vol="104" pan="0" len="12"/>
          <note pos="636" key="40" vol="104" pan="0" len="12"/>
          <note pos="648" key="42" vol="104" pan="0" len="12"/>
          <note pos="648" key="0" vol="104" pan="0" len="12"/>
          <note pos="660" key="43" vol="104" pan="0" len="12"/>
          <note pos="672" key="40" vol="104" pan="0" len="12"/>
          <note pos="672" key="1" vol="104" pan="0" len="12"/>
          <note pos="684" key="40" vol="104" pan="0" len="12"/>
          <note pos="696" key="40" vol="104" pan="0" len="12"/>
          <note pos="708" key="40" vol="104" pan="0" len="12"/>
          <note pos="720" key="42" vol="104" pan="0" len="12"/>
          <note pos="720" key="0" vol="104" pan="0" len="12"/>
          <note pos="732" key="43" vol="104" pan="0" len="12"/>
          <note pos="744" key="40" vol="104" pan="0" len="12"/>
          <note pos="744" key="1" vol="104" pan="0" len="12"/>
          <note pos="756" key="40" vol="104" pan="0" len="12"/>
        </pattern>
        <pattern type="1" steps="16" pos="9216" name="Rhythm Guitar" muted="0">
          <note pos="0" key="43" vol="100" pan="0" len="48"/>
          <note pos="0" key="0" vol="100" pan="0" len="24"/>
          <note pos="24" key="1" vol="100" pan="0" len="24"/>
          <note pos="48" key="43" vol="100" pan="0" len="12"/>
          <note pos="60" key="43" vol="100" pan="0" len="12"/>
          <note pos="72" key="43" vol="100" pan="0" len="12"/>
          <note pos="84" key="43" vol="100" pan="0" len="12"/>
          <note pos="96" key="43" vol="100" pan="0" len="12"/>
          <note pos="108" key="43" vol="100" pan="0" len="12"/>
          <note pos="120" key="43" vol="100" pan="0" len="12"/>
          <note pos="132" key="43" vol="100" pan="0" len="12"/>
          <note pos="144" key="43" vol="100" pan="0" len="12"/>
          <note pos="156" key="43" vol="100" pan="0" len="12"/>
          <note pos="168" key="43" vol="100" pan="0" len="12"/>
          <note pos="180" key="43" vol="100" pan="0" len="12"/>
          <note pos="180" key="0" vol="100" pan="0" len="48"/>
          <note pos="192" key="50" vol="100" pan="0" len="72"/>
          <note pos="264" key="50" vol="100" pan="0" len="48"/>
          <note pos="300" key="1" vol="100" pan="0" len="24"/>
          <note pos="312" key="50" vol="100" pan="0" len="24"/>
          <note pos="336" key="50" vol="100" pan="0" len="24"/>
          <note pos="360" key="50" vol="100" pan="0" len="24"/>
        </pattern>
        <pattern type="1" steps="16" pos="8064" name="Rhythm Guitar" muted="0">
          <note pos="0" key="40" vol="100" pan="0" len="48"/>
          <note pos="0" key="0" vol="100" pan="0" len="24"/>
          <note pos="24" key="1" vol="100" pan="0" len="24"/>
          <note pos="48" key="40" vol="100" pan="0" len="12"/>
          <note pos="60" key="40" vol="100" pan="0" len="12"/>
          <note pos="72" key="40" vol="100" pan="0" len="12"/>
          <note pos="84" key="40" vol="100" pan="0" len="12"/>
          <note pos="96" key="40" vol="100" pan="0" len="12"/>
          <note pos="108" key="40" vol="100" pan="0" len="12"/>
          <note pos="120" key="40" vol="100" pan="0" len="12"/>
          <note pos="132" key="40" vol="100" pan="0" len="12"/>
          <note pos="144" key="40" vol="100" pan="0" len="12"/>
          <note pos="156" key="40" vol="100" pan="0" len="12"/>
          <note pos="168" key="40" vol="100" pan="0" len="12"/>
          <note pos="180" key="40" vol="100" pan="0" len="12"/>
          <note pos="192" key="40" vol="100" pan="0" len="12"/>
          <note pos="204" key="40" vol="100" pan="0" len="12"/>
          <note pos="216" key="40" vol="100" pan="0" len="12"/>
          <note pos="228" key="40" vol="100" pan="0" len="12"/>
          <note pos="240" key="40" vol="100" pan="0" len="12"/>
          <note pos="252" key="40" vol="100" pan="0" len="12"/>
          <note pos="264" key="40" vol="100" pan="0" len="12"/>
          <note pos="276" key="40" vol="100" pan="0" len="12"/>
          <note pos="288" key="40" vol="100" pan="0" len="12"/>
          <note pos="300" key="40" vol="100" pan="0" len="12"/>
          <note pos="312" key="40" vol="100" pan="0" len="12"/>
          <note pos="324" key="40" vol="100" pan="0" len="12"/>
          <note pos="336" key="40" vol="100" pan="0" len="12"/>
          <note pos="348" key="40" vol="100" pan="0" len="12"/>
          <note pos="360" key="40" vol="100" pan="0" len="12"/>
          <note pos="372" key="40" vol="100" pan="0" len="12"/>
        </pattern>
        <pattern type="1" steps="16" pos="8448" name="Rhythm Guitar" muted="0">
          <note pos="0" key="48" vol="100" pan="0" len="48"/>
          <note pos="0" key="0" vol="100" pan="0" len="24"/>
          <note pos="24" key="1" vol="100" pan="0" len="24"/>
          <note pos="48" key="48" vol="100" pan="0" len="12"/>
          <note pos="60" key="48" vol="100" pan="0" len="12"/>
          <note pos="72" key="48" vol="100" pan="0" len="12"/>
          <note pos="84" key="48" vol="100" pan="0" len="12"/>
          <note pos="96" key="48" vol="100" pan="0" len="12"/>
          <note pos="108" key="48" vol="100" pan="0" len="12"/>
          <note pos="120" key="48" vol="100" pan="0" len="12"/>
          <note pos="132" key="48" vol="100" pan="0" len="12"/>
          <note pos="144" key="48" vol="100" pan="0" len="12"/>
          <note pos="156" key="48" vol="100" pan="0" len="12"/>
          <note pos="168" key="48" vol="100" pan="0" len="12"/>
          <note pos="180" key="48" vol="100" pan="0" len="12"/>
          <note pos="192" key="48" vol="100" pan="0" len="12"/>
          <note pos="204" key="48" vol="100" pan="0" len="12"/>
          <note pos="216" key="48" vol="100" pan="0" len="12"/>
          <note pos="228" key="48" vol="100" pan="0" len="12"/>
          <note pos="240" key="48" vol="100" pan="0" len="12"/>
          <note pos="252" key="48" vol="100" pan="0" len="12"/>
          <note pos="264" key="48" vol="100" pan="0" len="12"/>
          <note pos="276" key="48" vol="100" pan="0" len="12"/>
          <note pos="288" key="48" vol="100" pan="0" len="12"/>
          <note pos="300" key="48" vol="100" pan="0" len="12"/>
          <note pos="312" key="48" vol="100" pan="0" len="12"/>
          <note pos="324" key="48" vol="100" pan="0" len="12"/>
          <note pos="336" key="48" vol="100" pan="0" len="12"/>
          <note pos="348" key="48" vol="100" pan="0" len="12"/>
          <note pos="360" key="48" vol="100" pan="0" len="12"/>
          <note pos="372" key="48" vol="100" pan="0" len="12"/>
        </pattern>
        <pattern type="1" steps="16" pos="8832" name="Rhythm Guitar" muted="0">
          <note pos="0" key="50" vol="100" pan="0" len="48"/>
          <note pos="0" key="0" vol="100" pan="0" len="24"/>
          <note pos="24" key="1" vol="100" pan="0" len="24"/>
          <note pos="48" key="50" vol="100" pan="0" len="12"/>
          <note pos="60" key="50" vol="100" pan="0" len="12"/>
          <note pos="72" key="50" vol="100" pan="0" len="12"/>
          <note pos="84" key="50" vol="100" pan="0" len="12"/>
          <note pos="96" key="50" vol="100" pan="0" len="12"/>
          <note pos="108" key="50" vol="100" pan="0" len="12"/>
          <note pos="120" key="50" vol="100" pan="0" len="12"/>
          <note pos="132" key="50" vol="100" pan="0" len="12"/>
          <note pos="144" key="50" vol="100" pan="0" len="12"/>
          <note pos="156" key="50" vol="100" pan="0" len="12"/>
          <note pos="168" key="50" vol="100" pan="0" len="12"/>
          <note pos="180" key="50" vol="100" pan="0" len="12"/>
          <note pos="192" key="50" vol="100" pan="0" len="12"/>
          <note pos="204" key="50" vol="100" pan="0" len="12"/>
          <note pos="216" key="50" vol="100" pan="0" len="12"/>
          <note pos="228" key="50" vol="100" pan="0" len="12"/>
          <note pos="240" key="50" vol="100" pan="0" len="12"/>
          <note pos="252" key="50" vol="100" pan="0" len="12"/>
          <note pos="264" key="50" vol="100" pan="0" len="12"/>
          <note pos="276" key="50" vol="100" pan="0" len="12"/>
          <note pos="288" key="50" vol="100" pan="0" len="12"/>
          <note pos="300" key="50" vol="100" pan="0" len="12"/>
          <note pos="312" key="50" vol="100" pan="0" len="12"/>
          <note pos="324" key="50" vol="100" pan="0" len="12"/>
          <note pos="336" key="50" vol="100" pan="0" len="12"/>
          <note pos="348" key="50" vol="100" pan="0" len="12"/>
          <note pos="360" key="50" vol="100" pan="0" len="12"/>
          <note pos="372" key="50" vol="100" pan="0" len="12"/>
        </pattern>
        <pattern type="1" steps="16" pos="12672" name="Rhythm Guitar" muted="0">
          <note pos="0" key="40" vol="100" pan="0" len="48"/>
          <note pos="0" key="0" vol="100" pan="0" len="24"/>
          <note pos="24" key="1" vol="100" pan="0" len="24"/>
          <note pos="48" key="40" vol="100" pan="0" len="12"/>
          <note pos="60" key="40" vol="100" pan="0" len="12"/>
          <note pos="72" key="40" vol="100" pan="0" len="12"/>
          <note pos="84" key="40" vol="100" pan="0" len="12"/>
          <note pos="96" key="40" vol="100" pan="0" len="12"/>
          <note pos="108" key="40" vol="100" pan="0" len="12"/>
          <note pos="120" key="40" vol="100" pan="0" len="12"/>
          <note pos="132" key="40" vol="100" pan="0" len="12"/>
          <note pos="144" key="40" vol="100" pan="0" len="12"/>
          <note pos="156" key="40" vol="100" pan="0" len="12"/>
          <note pos="168" key="40" vol="100" pan="0" len="12"/>
          <note pos="180" key="40" vol="100" pan="0" len="12"/>
          <note pos="192" key="40" vol="100" pan="0" len="12"/>
          <note pos="204" key="40" vol="100" pan="0" len="12"/>
          <note pos="216" key="40" vol="100" pan="0" len="12"/>
          <note pos="228" key="40" vol="100" pan="0" len="12"/>
          <note pos="240" key="40" vol="100" pan="0" len="12"/>
          <note pos="252" key="40" vol="100" pan="0" len="12"/>
          <note pos="264" key="40" vol="100" pan="0" len="12"/>
          <note pos="276" key="40" vol="100" pan="0" len="12"/>
          <note pos="288" key="40" vol="100" pan="0" len="12"/>
          <note pos="300" key="40" vol="100" pan="0" len="12"/>
          <note pos="312" key="40" vol="100" pan="0" len="12"/>
          <note pos="324" key="40" vol="100" pan="0" len="12"/>
          <note pos="336" key="40" vol="100" pan="0" len="12"/>
          <note pos="348" key="40" vol="100" pan="0" len="12"/>
          <note pos="360" key="40" vol="100" pan="0" len="12"/>
          <note pos="372" key="40" vol="100" pan="0" len="12"/>
        </pattern>
        <pattern type="1" steps="16" pos="13056" name="Rhythm Guitar" muted="0">
          <note pos="0" key="48" vol="100" pan="0" len="48"/>
          <note pos="0" key="0" vol="100" pan="0" len="24"/>
          <note pos="24" key="1" vol="100" pan="0" len="24"/>
          <note pos="48" key="48" vol="100" pan="0" len="12"/>
          <note pos="60" key="48" vol="100" pan="0" len="12"/>
          <note pos="72" key="48" vol="100" pan="0" len="12"/>
          <note pos="84" key="48" vol="100" pan="0" len="12"/>
          <note pos="96" key="48" vol="100" pan="0" len="12"/>
          <note pos="108" key="48" vol="100" pan="0" len="12"/>
          <note pos="120" key="48" vol="100" pan="0" len="12"/>
          <note pos="132" key="48" vol="100" pan="0" len="12"/>
          <note pos="144" key="48" vol="100" pan="0" len="12"/>
          <note pos="156" key="48" vol="100" pan="0" len="12"/>
          <note pos="168" key="48" vol="100" pan="0" len="12"/>
          <note pos="180" key="48" vol="100" pan="0" len="12"/>
          <note pos="192" key="48" vol="100" pan="0" len="12"/>
          <note pos="204" key="48" vol="100" pan="0" len="12"/>
          <note pos="216" key="48" vol="100" pan="0" len="12"/>
          <note pos="228" key="48" vol="100" pan="0" len="12"/>
          <note pos="240" key="48" vol="100" pan="0" len="12"/>
          <note pos="252" key="48" vol="100" pan="0" len="12"/>
          <note pos="264" key="48" vol="100" pan="0" len="12"/>
          <note pos="276" key="48" vol="100" pan="0" len="12"/>
          <note pos="288" key="48" vol="100" pan="0" len="12"/>
          <note pos="300" key="48" vol="100" pan="0" len="12"/>
          <note pos="312" key="48" vol="100" pan="0" len="12"/>
          <note pos="324" key="48" vol="100" pan="0" len="12"/>
          <note pos="336" key="48" vol="100" pan="0" len="12"/>
          <note pos="348" key="48" vol="100" pan="0" len="12"/>
          <note pos="360" key="48" vol="100" pan="0" len="12"/>
          <note pos="372" key="48" vol="100" pan="0" len="12"/>
        </pattern>
        <pattern type="1" steps="16" pos="13440" name="Rhythm Guitar" muted="0">
          <note pos="0" key="50" vol="100" pan="0" len="48"/>
          <note pos="0" key="0" vol="100" pan="0" len="24"/>
          <note pos="24" key="1" vol="100" pan="0" len="24"/>
          <note pos="48" key="50" vol="100" pan="0" len="12"/>
          <note pos="60" key="50" vol="100" pan="0" len="12"/>
          <note pos="72" key="50" vol="100" pan="0" len="12"/>
          <note pos="84" key="50" vol="100" pan="0" len="12"/>
          <note pos="96" key="50" vol="100" pan="0" len="12"/>
          <note pos="108" key="50" vol="100" pan="0" len="12"/>
          <note pos="120" key="50" vol="100" pan="0" len="12"/>
          <note pos="132" key="50" vol="100" pan="0" len="12"/>
          <note pos="144" key="50" vol="100" pan="0" len="12"/>
          <note pos="156" key="50" vol="100" pan="0" len="12"/>
          <note pos="168" key="50" vol="100" pan="0" len="12"/>
          <note pos="180" key="50" vol="100" pan="0" len="12"/>
          <note pos="192" key="50" vol="100" pan="0" len="12"/>
          <note pos="204" key="50" vol="100" pan="0" len="12"/>
          <note pos="216" key="50" vol="100" pan="0" len="12"/>
          <note pos="228" key="50" vol="100" pan="0" len="12"/>
          <note pos="240" key="50" vol="100" pan="0" len="12"/>
          <note pos="252" key="50" vol="100" pan="0" len="12"/>
          <note pos="264" key="50" vol="100" pan="0" len="12"/>
          <note pos="276" key="50" vol="100" pan="0" len="12"/>
          <note pos="288" key="50" vol="100" pan="0" len="12"/>
          <note pos="300" key="50" vol="100" pan="0" len="12"/>
          <note pos="312" key="50" vol="100" pan="0" len="12"/>
          <note pos="324" key="50" vol="100" pan="0" len="12"/>
          <note pos="336" key="50" vol="100" pan="0" len="12"/>
          <note pos="348" key="50" vol="100" pan="0" len="12"/>
          <note pos="360" key="50" vol="100" pan="0" len="12"/>
          <note pos="372" key="50" vol="100" pan="0" len="12"/>
        </pattern>
        <pattern type="1" steps="16" pos="13824" name="Rhythm Guitar" muted="0">
          <note pos="0" key="43" vol="100" pan="0" len="48"/>
          <note pos="0" key="0" vol="100" pan="0" len="24"/>
          <note pos="24" key="1" vol="100" pan="0" len="24"/>
          <note pos="48" key="43" vol="100" pan="0" len="12"/>
          <note pos="60" key="43" vol="100" pan="0" len="12"/>
          <note pos="72" key="43" vol="100" pan="0" len="12"/>
          <note pos="84" key="43" vol="100" pan="0" len="12"/>
          <note pos="96" key="43" vol="100" pan="0" len="12"/>
          <note pos="108" key="43" vol="100" pan="0" len="12"/>
          <note pos="120" key="43" vol="100" pan="0" len="12"/>
          <note pos="132" key="43" vol="100" pan="0" len="12"/>
          <note pos="144" key="43" vol="100" pan="0" len="12"/>
          <note pos="156" key="43" vol="100" pan="0" len="12"/>
          <note pos="168" key="43" vol="100" pan="0" len="12"/>
          <note pos="180" key="43" vol="100" pan="0" len="12"/>
          <note pos="180" key="0" vol="100" pan="0" len="48"/>
          <note pos="192" key="50" vol="100" pan="0" len="72"/>
          <note pos="264" key="48" vol="100" pan="0" len="48"/>
          <note pos="300" key="0" vol="100" pan="0" len="24"/>
          <note pos="312" key="47" vol="100" pan="0" len="24"/>
          <note pos="336" key="48" vol="100" pan="0" len="24"/>
          <note pos="360" key="50" vol="100" pan="0" len="24"/>
        </pattern>
        <pattern type="1" steps="16" pos="14208" name="Rhythm Guitar" muted="0">
          <note pos="0" key="40" vol="100" pan="0" len="48"/>
          <note pos="0" key="0" vol="100" pan="0" len="24"/>
          <note pos="24" key="1" vol="100" pan="0" len="24"/>
          <note pos="48" key="40" vol="100" pan="0" len="12"/>
          <note pos="60" key="40" vol="100" pan="0" len="12"/>
          <note pos="72" key="40" vol="100" pan="0" len="12"/>
          <note pos="84" key="40" vol="100" pan="0" len="12"/>
          <note pos="96" key="40" vol="100" pan="0" len="12"/>
          <note pos="108" key="40" vol="100" pan="0" len="12"/>
          <note pos="120" key="40" vol="100" pan="0" len="12"/>
          <note pos="132" key="40" vol="100" pan="0" len="12"/>
          <note pos="144" key="40" vol="100" pan="0" len="12"/>
          <note pos="156" key="40" vol="100" pan="0" len="12"/>
          <note pos="168" key="40" vol="100" pan="0" len="12"/>
          <note pos="180" key="40" vol="100" pan="0" len="12"/>
          <note pos="192" key="40" vol="100" pan="0" len="12"/>
          <note pos="204" key="40" vol="100" pan="0" len="12"/>
          <note pos="216" key="40" vol="100" pan="0" len="12"/>
          <note pos="228" key="40" vol="100" pan="0" len="12"/>
          <note pos="240" key="40" vol="100" pan="0" len="12"/>
          <note pos="252" key="40" vol="100" pan="0" len="12"/>
          <note pos="264" key="40" vol="100" pan="0" len="12"/>
          <note pos="276" key="40" vol="100" pan="0" len="12"/>
          <note pos="288" key="40" vol="100" pan="0" len="12"/>
          <note pos="300" key="40" vol="100" pan="0" len="12"/>
          <note pos="312" key="40" vol="100" pan="0" len="12"/>
          <note pos="324" key="40" vol="100" pan="0" len="12"/>
          <note pos="336" key="40" vol="100" pan="0" len="12"/>
          <note pos="348" key="40" vol="100" pan="0" len="12"/>
          <note pos="360" key="40" vol="100" pan="0" len="12"/>
          <note pos="372" key="40" vol="100" pan="0" len="12"/>
        </pattern>
        <pattern type="1" steps="16" pos="14592" name="Rhythm Guitar" muted="0">
          <note pos="0" key="48" vol="100" pan="0" len="48"/>
          <note pos="0" key="0" vol="100" pan="0" len="24"/>
          <note pos="24" key="1" vol="100" pan="0" len="24"/>
          <note pos="48" key="48" vol="100" pan="0" len="12"/>
          <note pos="60" key="48" vol="100" pan="0" len="12"/>
          <note pos="72" key="48" vol="100" pan="0" len="12"/>
          <note pos="84" key="48" vol="100" pan="0" len="12"/>
          <note pos="96" key="48" vol="100" pan="0" len="12"/>
          <note pos="108" key="48" vol="100" pan="0" len="12"/>
          <note pos="120" key="48" vol="100" pan="0" len="12"/>
          <note pos="132" key="48" vol="100" pan="0" len="12"/>
          <note pos="144" key="48" vol="100" pan="0" len="12"/>
          <note pos="156" key="48" vol="100" pan="0" len="12"/>
          <note pos="168" key="48" vol="100" pan="0" len="12"/>
          <note pos="180" key="48" vol="100" pan="0" len="12"/>
          <note pos="192" key="48" vol="100" pan="0" len="12"/>
          <note pos="204" key="48" vol="100" pan="0" len="12"/>
          <note pos="216" key="48" vol="100" pan="0" len="12"/>
          <note pos="228" key="48" vol="100" pan="0" len="12"/>
          <note pos="240" key="48" vol="100" pan="0" len="12"/>
          <note pos="252" key="48" vol="100" pan="0" len="12"/>
          <note pos="264" key="48" vol="100" pan="0" len="12"/>
          <note pos="276" key="48" vol="100" pan="0" len="12"/>
          <note pos="288" key="48" vol="100" pan="0" len="12"/>
          <note pos="300" key="48" vol="100" pan="0" len="12"/>
          <note pos="312" key="48" vol="100" pan="0" len="12"/>
          <note pos="324" key="48" vol="100" pan="0" len="12"/>
          <note pos="336" key="48" vol="100" pan="0" len="12"/>
          <note pos="348" key="48" vol="100" pan="0" len="12"/>
          <note pos="360" key="48" vol="100" pan="0" len="12"/>
          <note pos="372" key="48" vol="100" pan="0" len="12"/>
        </pattern>
        <pattern type="1" steps="16" pos="14976" name="Rhythm Guitar" muted="0">
          <note pos="0" key="50" vol="100" pan="0" len="48"/>
          <note pos="0" key="0" vol="100" pan="0" len="24"/>
          <note pos="24" key="1" vol="100" pan="0" len="24"/>
          <note pos="48" key="50" vol="100" pan="0" len="12"/>
          <note pos="60" key="50" vol="100" pan="0" len="12"/>
          <note pos="72" key="50" vol="100" pan="0" len="12"/>
          <note pos="84" key="50" vol="100" pan="0" len="12"/>
          <note pos="96" key="50" vol="100" pan="0" len="12"/>
          <note pos="108" key="50" vol="100" pan="0" len="12"/>
          <note pos="120" key="50" vol="100" pan="0" len="12"/>
          <note pos="132" key="50" vol="100" pan="0" len="12"/>
          <note pos="144" key="50" vol="100" pan="0" len="12"/>
          <note pos="156" key="50" vol="100" pan="0" len="12"/>
          <note pos="168" key="50" vol="100" pan="0" len="12"/>
          <note pos="180" key="50" vol="100" pan="0" len="12"/>
          <note pos="192" key="50" vol="100" pan="0" len="12"/>
          <note pos="204" key="50" vol="100" pan="0" len="12"/>
          <note pos="216" key="50" vol="100" pan="0" len="12"/>
          <note pos="228" key="50" vol="100" pan="0" len="12"/>
          <note pos="240" key="50" vol="100" pan="0" len="12"/>
          <note pos="252" key="50" vol="100" pan="0" len="12"/>
          <note pos="264" key="50" vol="100" pan="0" len="12"/>
          <note pos="276" key="50" vol="100" pan="0" len="12"/>
          <note pos="288" key="50" vol="100" pan="0" len="12"/>
          <note pos="300" key="50" vol="100" pan="0" len="12"/>
          <note pos="312" key="50" vol="100" pan="0" len="12"/>
          <note pos="324" key="50" vol="100" pan="0" len="12"/>
          <note pos="336" key="50" vol="100" pan="0" len="12"/>
          <note pos="348" key="50" vol="100" pan="0" len="12"/>
          <note pos="360" key="50" vol="100" pan="0" len="12"/>
          <note pos="372" key="50" vol="100" pan="0" len="12"/>
        </pattern>
        <pattern type="1" steps="16" pos="15360" name="Rhythm Guitar" muted="0">
          <note pos="0" key="43" vol="100" pan="0" len="48"/>
          <note pos="0" key="0" vol="100" pan="0" len="24"/>
          <note pos="24" key="1" vol="100" pan="0" len="24"/>
          <note pos="48" key="43" vol="100" pan="0" len="12"/>
          <note pos="60" key="43" vol="100" pan="0" len="12"/>
          <note pos="72" key="43" vol="100" pan="0" len="12"/>
          <note pos="84" key="43" vol="100" pan="0" len="12"/>
          <note pos="96" key="43" vol="100" pan="0" len="12"/>
          <note pos="108" key="43" vol="100" pan="0" len="12"/>
          <note pos="120" key="43" vol="100" pan="0" len="12"/>
          <note pos="132" key="43" vol="100" pan="0" len="12"/>
          <note pos="144" key="43" vol="100" pan="0" len="12"/>
          <note pos="156" key="43" vol="100" pan="0" len="12"/>
          <note pos="168" key="43" vol="100" pan="0" len="12"/>
          <note pos="180" key="43" vol="100" pan="0" len="12"/>
          <note pos="180" key="0" vol="100" pan="0" len="48"/>
          <note pos="192" key="50" vol="100" pan="0" len="72"/>
          <note pos="264" key="48" vol="100" pan="0" len="48"/>
          <note pos="300" key="0" vol="100" pan="0" len="24"/>
          <note pos="312" key="47" vol="100" pan="0" len="24"/>
          <note pos="336" key="48" vol="100" pan="0" len="24"/>
          <note pos="360" key="50" vol="100" pan="0" len="24"/>
        </pattern>
      </track>
      <track type="0" name="Lead Guitar S" solo="0" muted="0">
        <instrumenttrack pitch="0" usemasterpitch="1" vol="200" pan="0" pitchrange="1" basenote="57" fxch="12">
          <instrument name="carlapatchbay">
            <carlapatchbay>
              <CARLA-PROJECT VERSION="2.2">
                <EngineSettings>
                  <ForceStereo>false</ForceStereo>
                  <PreferPluginBridges>false</PreferPluginBridges>
                  <PreferUiBridges>true</PreferUiBridges>
                  <UIsAlwaysOnTop>false</UIsAlwaysOnTop>
                  <MaxParameters>200</MaxParameters>
                  <UIBridgesTimeout>4000</UIBridgesTimeout>
                  <LADSPA_PATH>/home/pass/.ladspa:/usr/lib/ladspa:/usr/local/lib/ladspa</LADSPA_PATH>
                  <DSSI_PATH>/home/pass/.dssi:/usr/lib/dssi:/usr/local/lib/dssi</DSSI_PATH>
                  <LV2_PATH>/home/pass/.lv2:/usr/lib/lv2:/usr/local/lib/lv2</LV2_PATH>
                  <VST2_PATH>/home/pass/.vst:/home/pass/.wine/drive_c/Program Files (x86)/VstPlugins:/home/pass/.wine/drive_c/Program Files/VstPlugins:/usr/lib/lxvst:/usr/lib/vst:/usr/local/lib/lxvst:/usr/local/lib/vst/home/pass/.lxvst:/home/pass/vst</VST2_PATH>
                  <VST3_PATH>/home/pass/.vst3:/home/pass/.wine/drive_c/Program Files (x86)/Common Files/VST3:/home/pass/.wine/drive_c/Program Files/Common Files/VST3:/usr/lib/vst3:/usr/local/lib/vst3</VST3_PATH>
                  <SF2_PATH>/home/pass/.sounds/sf2/home/pass/.sounds/sf3:/usr/share/soundfonts:/usr/share/sounds/sf2:/usr/share/sounds/sf3</SF2_PATH>
                  <SFZ_PATH>/home/pass/.sounds/sfz:/home/pass/samples:/usr/share/sounds/sfz</SFZ_PATH>
                </EngineSettings>
                <!-- sfizz -->
                <Plugin>
                  <Info>
                    <Type>LV2</Type>
                    <Name>sfizz</Name>
                    <URI>http://sfztools.github.io/sfizz</URI>
                  </Info>
                  <Data>
                    <Active>Yes</Active>
                    <ControlChannel>1</ControlChannel>
                    <Options>0x3f0</Options>
                    <Parameter>
                      <Index>0</Index>
                      <Name>Volume</Name>
                      <Symbol>volume</Symbol>
                      <Value>0</Value>
                    </Parameter>
                    <Parameter>
                      <Index>1</Index>
                      <Name>Polyphony</Name>
                      <Symbol>num_voices</Symbol>
                      <Value>64</Value>
                    </Parameter>
                    <Parameter>
                      <Index>2</Index>
                      <Name>Internal oversampling factor</Name>
                      <Symbol>oversampling</Symbol>
                      <Value>1</Value>
                    </Parameter>
                    <Parameter>
                      <Index>3</Index>
                      <Name>Preload size</Name>
                      <Symbol>preload_size</Symbol>
                      <Value>8192</Value>
                    </Parameter>
                    <CustomData>
                      <Type>http://lv2plug.in/ns/ext/atom#Path</Type>
                      <Key>http://sfztools.github.io/sfizz:sfzfile</Key>
                      <Value>/home/pass/samples/fakeguitar/_fakeguitar1_integrated.sfz</Value>
                    </CustomData>
                    <CustomData>
                      <Type>http://lv2plug.in/ns/ext/atom#Int</Type>
                      <Key>http://sfztools.github.io/sfizz:numvoices</Key>
                      <Value>QAAAAA==</Value>
                    </CustomData>
                    <CustomData>
                      <Type>http://lv2plug.in/ns/ext/atom#Int</Type>
                      <Key>http://sfztools.github.io/sfizz:preload_size</Key>
                      <Value>ACAAAA==</Value>
                    </CustomData>
                    <CustomData>
                      <Type>http://lv2plug.in/ns/ext/atom#Int</Type>
                      <Key>http://sfztools.github.io/sfizz:oversampling</Key>
                      <Value>AQAAAA==</Value>
                    </CustomData>
                  </Data>
                </Plugin>
                <Patchbay>
                  <Connection>
                    <Source>Midi Input:Capture 1</Source>
                    <Target>sfizz:events-in</Target>
                  </Connection>
                  <Connection>
                    <Source>sfizz:Left Output</Source>
                    <Target>Audio Output:Left</Target>
                  </Connection>
                  <Connection>
                    <Source>sfizz:Right Output</Source>
                    <Target>Audio Output:Right</Target>
                  </Connection>
                  <Positions>
                    <Position pluginId="0" y1="1353" x1="1693">
                      <Name>sfizz</Name>
                    </Position>
                  </Positions>
                </Patchbay>
              </CARLA-PROJECT>
            </carlapatchbay>
          </instrument>
          <eldata fwet="0" fres="0.5" fcut="14000" ftype="0">
            <elvol ctlenvamt="0" pdel="0" dec="0.5" lspd_denominator="4" att="0" lamt="0" sustain="0.5" hold="0.5" lshp="0" rel="0.1" x100="0" lspd_syncmode="0" userwavefile="" amt="0" lspd="0.1" lspd_numerator="4" latt="0" lpdel="0"/>
            <elcut ctlenvamt="0" pdel="0" dec="0.5" lspd_denominator="4" att="0" lamt="0" sustain="0.5" hold="0.5" lshp="0" rel="0.1" x100="0" lspd_syncmode="0" userwavefile="" amt="0" lspd="0.1" lspd_numerator="4" latt="0" lpdel="0"/>
            <elres ctlenvamt="0" pdel="0" dec="0.5" lspd_denominator="4" att="0" lamt="0" sustain="0.5" hold="0.5" lshp="0" rel="0.1" x100="0" lspd_syncmode="0" userwavefile="" amt="0" lspd="0.1" lspd_numerator="4" latt="0" lpdel="0"/>
          </eldata>
          <chordcreator chordrange="1" chord="0" chord-enabled="0"/>
          <arpeggiator arprange="1" arptime_syncmode="0" arptime_denominator="4" arp-enabled="0" arpmiss="0" arpmode="0" arpgate="100" arpskip="0" arptime_numerator="4" arptime="200" arpdir="0" arpcycle="0" arp="0"/>
          <midiport writable="0" basevelocity="63" fixedoutputvelocity="-1" outputchannel="1" fixedoutputnote="-1" outputprogram="1" inputcontroller="0" inputchannel="0" outputcontroller="0" readable="0" fixedinputvelocity="-1"/>
          <fxchain numofeffects="0" enabled="0"/>
        </instrumenttrack>
        <pattern type="1" steps="16" pos="0" name="Lead Guitar S" muted="0">
          <note pos="0" key="71" vol="197" pan="0" len="72"/>
          <note pos="0" key="0" vol="197" pan="0" len="48"/>
          <note pos="72" key="69" vol="197" pan="0" len="72"/>
          <note pos="144" key="67" vol="197" pan="0" len="48"/>
          <note pos="192" key="69" vol="197" pan="0" len="144"/>
          <note pos="336" key="69" vol="197" pan="0" len="24"/>
          <note pos="360" key="71" vol="197" pan="0" len="24"/>
          <note pos="384" key="72" vol="197" pan="0" len="72"/>
          <note pos="456" key="71" vol="197" pan="0" len="72"/>
          <note pos="528" key="69" vol="197" pan="0" len="48"/>
          <note pos="576" key="71" vol="197" pan="0" len="144"/>
          <note pos="720" key="67" vol="197" pan="0" len="24"/>
          <note pos="744" key="69" vol="197" pan="0" len="24"/>
          <note pos="768" key="71" vol="197" pan="0" len="72"/>
          <note pos="840" key="69" vol="197" pan="0" len="72"/>
          <note pos="912" key="67" vol="197" pan="0" len="48"/>
          <note pos="960" key="69" vol="197" pan="0" len="72"/>
          <note pos="1032" key="67" vol="197" pan="0" len="72"/>
          <note pos="1104" key="66" vol="197" pan="0" len="48"/>
          <note pos="1152" key="67" vol="197" pan="0" len="336"/>
          <note pos="1488" key="67" vol="197" pan="0" len="24"/>
          <note pos="1512" key="69" vol="197" pan="0" len="24"/>
        </pattern>
        <pattern type="1" steps="16" pos="1536" name="Lead Guitar S" muted="0">
          <note pos="0" key="71" vol="197" pan="0" len="72"/>
          <note pos="0" key="0" vol="197" pan="0" len="48"/>
          <note pos="72" key="69" vol="197" pan="0" len="72"/>
          <note pos="144" key="67" vol="197" pan="0" len="48"/>
          <note pos="192" key="69" vol="197" pan="0" len="144"/>
          <note pos="336" key="69" vol="197" pan="0" len="24"/>
          <note pos="360" key="71" vol="197" pan="0" len="24"/>
          <note pos="384" key="72" vol="197" pan="0" len="72"/>
          <note pos="456" key="71" vol="197" pan="0" len="72"/>
          <note pos="528" key="69" vol="197" pan="0" len="48"/>
          <note pos="576" key="71" vol="197" pan="0" len="144"/>
          <note pos="720" key="67" vol="197" pan="0" len="24"/>
          <note pos="744" key="69" vol="197" pan="0" len="24"/>
          <note pos="768" key="71" vol="197" pan="0" len="72"/>
          <note pos="840" key="69" vol="197" pan="0" len="72"/>
          <note pos="912" key="67" vol="197" pan="0" len="48"/>
          <note pos="960" key="69" vol="197" pan="0" len="72"/>
          <note pos="1032" key="67" vol="197" pan="0" len="72"/>
          <note pos="1104" key="66" vol="197" pan="0" len="48"/>
          <note pos="1152" key="67" vol="197" pan="0" len="384"/>
        </pattern>
        <pattern type="1" steps="16" pos="3072" name="Lead Guitar S" muted="0">
          <note pos="0" key="72" vol="197" pan="0" len="384"/>
        </pattern>
        <pattern type="1" steps="16" pos="12672" name="Lead Guitar S" muted="0">
          <note pos="0" key="64" vol="100" pan="0" len="72"/>
          <note pos="0" key="0" vol="100" pan="0" len="36"/>
          <note pos="60" key="1" vol="100" pan="0" len="36"/>
          <note pos="72" key="59" vol="100" pan="0" len="12"/>
          <note pos="84" key="59" vol="100" pan="0" len="12"/>
          <note pos="96" key="59" vol="100" pan="0" len="120"/>
          <note pos="96" key="0" vol="100" pan="0" len="36"/>
          <note pos="216" key="59" vol="100" pan="0" len="24"/>
          <note pos="216" key="1" vol="100" pan="0" len="24"/>
          <note pos="240" key="64" vol="100" pan="0" len="24"/>
          <note pos="240" key="0" vol="100" pan="0" len="24"/>
          <note pos="264" key="66" vol="100" pan="0" len="24"/>
          <note pos="288" key="67" vol="100" pan="0" len="24"/>
          <note pos="312" key="66" vol="100" pan="0" len="24"/>
          <note pos="336" key="64" vol="100" pan="0" len="24"/>
          <note pos="360" key="62" vol="100" pan="0" len="24"/>
        </pattern>
        <pattern type="1" steps="16" pos="13056" name="" muted="0">
          <note pos="0" key="60" vol="100" pan="0" len="72"/>
          <note pos="0" key="0" vol="100" pan="0" len="36"/>
          <note pos="60" key="1" vol="100" pan="0" len="36"/>
          <note pos="72" key="72" vol="100" pan="0" len="12"/>
          <note pos="84" key="72" vol="100" pan="0" len="12"/>
          <note pos="96" key="72" vol="100" pan="0" len="120"/>
          <note pos="96" key="0" vol="100" pan="0" len="36"/>
          <note pos="216" key="60" vol="100" pan="0" len="24"/>
          <note pos="216" key="1" vol="100" pan="0" len="24"/>
          <note pos="240" key="64" vol="100" pan="0" len="24"/>
          <note pos="240" key="0" vol="100" pan="0" len="24"/>
          <note pos="264" key="66" vol="100" pan="0" len="24"/>
          <note pos="288" key="67" vol="100" pan="0" len="24"/>
          <note pos="312" key="69" vol="100" pan="0" len="24"/>
          <note pos="336" key="67" vol="100" pan="0" len="24"/>
          <note pos="360" key="66" vol="100" pan="0" len="24"/>
        </pattern>
        <pattern type="1" steps="16" pos="13440" name="" muted="0">
          <note pos="0" key="62" vol="100" pan="0" len="72"/>
          <note pos="0" key="0" vol="100" pan="0" len="36"/>
          <note pos="60" key="1" vol="100" pan="0" len="36"/>
          <note pos="72" key="74" vol="100" pan="0" len="12"/>
          <note pos="84" key="74" vol="100" pan="0" len="12"/>
          <note pos="96" key="74" vol="100" pan="0" len="120"/>
          <note pos="96" key="0" vol="100" pan="0" len="36"/>
          <note pos="216" key="62" vol="100" pan="0" len="24"/>
          <note pos="216" key="1" vol="100" pan="0" len="24"/>
          <note pos="240" key="64" vol="100" pan="0" len="24"/>
          <note pos="240" key="0" vol="100" pan="0" len="24"/>
          <note pos="264" key="66" vol="100" pan="0" len="24"/>
          <note pos="288" key="67" vol="100" pan="0" len="24"/>
          <note pos="312" key="69" vol="100" pan="0" len="24"/>
          <note pos="336" key="67" vol="100" pan="0" len="24"/>
          <note pos="360" key="66" vol="100" pan="0" len="24"/>
        </pattern>
        <pattern type="1" steps="16" pos="13824" name="" muted="0">
          <note pos="0" key="72" vol="100" pan="0" len="24"/>
          <note pos="24" key="71" vol="100" pan="0" len="48"/>
          <note pos="72" key="67" vol="100" pan="0" len="48"/>
          <note pos="120" key="62" vol="100" pan="0" len="24"/>
          <note pos="144" key="67" vol="100" pan="0" len="24"/>
          <note pos="168" key="71" vol="100" pan="0" len="24"/>
          <note pos="192" key="69" vol="100" pan="0" len="24"/>
          <note pos="216" key="67" vol="100" pan="0" len="48"/>
          <note pos="264" key="66" vol="100" pan="0" len="48"/>
          <note pos="312" key="67" vol="100" pan="0" len="24"/>
          <note pos="336" key="66" vol="100" pan="0" len="24"/>
          <note pos="360" key="62" vol="100" pan="0" len="24"/>
        </pattern>
        <pattern type="1" steps="16" pos="14208" name="" muted="0">
          <note pos="0" key="64" vol="100" pan="0" len="72"/>
          <note pos="0" key="0" vol="100" pan="0" len="36"/>
          <note pos="60" key="1" vol="100" pan="0" len="36"/>
          <note pos="72" key="59" vol="100" pan="0" len="12"/>
          <note pos="84" key="59" vol="100" pan="0" len="12"/>
          <note pos="96" key="59" vol="100" pan="0" len="120"/>
          <note pos="96" key="0" vol="100" pan="0" len="36"/>
          <note pos="216" key="59" vol="100" pan="0" len="24"/>
          <note pos="216" key="1" vol="100" pan="0" len="24"/>
          <note pos="240" key="64" vol="100" pan="0" len="24"/>
          <note pos="240" key="0" vol="100" pan="0" len="24"/>
          <note pos="264" key="66" vol="100" pan="0" len="24"/>
          <note pos="288" key="67" vol="100" pan="0" len="24"/>
          <note pos="312" key="66" vol="100" pan="0" len="24"/>
          <note pos="336" key="64" vol="100" pan="0" len="24"/>
          <note pos="360" key="62" vol="100" pan="0" len="24"/>
        </pattern>
        <pattern type="1" steps="16" pos="14592" name="" muted="0">
          <note pos="0" key="60" vol="100" pan="0" len="72"/>
          <note pos="0" key="0" vol="100" pan="0" len="36"/>
          <note pos="60" key="1" vol="100" pan="0" len="36"/>
          <note pos="72" key="72" vol="100" pan="0" len="12"/>
          <note pos="84" key="72" vol="100" pan="0" len="12"/>
          <note pos="96" key="72" vol="100" pan="0" len="120"/>
          <note pos="96" key="0" vol="100" pan="0" len="36"/>
          <note pos="216" key="60" vol="100" pan="0" len="24"/>
          <note pos="216" key="1" vol="100" pan="0" len="24"/>
          <note pos="240" key="64" vol="100" pan="0" len="24"/>
          <note pos="240" key="0" vol="100" pan="0" len="24"/>
          <note pos="264" key="66" vol="100" pan="0" len="24"/>
          <note pos="288" key="67" vol="100" pan="0" len="24"/>
          <note pos="312" key="66" vol="100" pan="0" len="24"/>
          <note pos="336" key="67" vol="100" pan="0" len="24"/>
          <note pos="360" key="69" vol="100" pan="0" len="24"/>
        </pattern>
        <pattern type="1" steps="16" pos="14976" name="" muted="0">
          <note pos="0" key="71" vol="100" pan="0" len="72"/>
          <note pos="72" key="69" vol="100" pan="0" len="24"/>
          <note pos="96" key="69" vol="100" pan="0" len="48"/>
          <note pos="144" key="67" vol="100" pan="0" len="48"/>
          <note pos="192" key="66" vol="100" pan="0" len="48"/>
          <note pos="240" key="62" vol="100" pan="0" len="48"/>
          <note pos="288" key="66" vol="100" pan="0" len="48"/>
          <note pos="336" key="67" vol="100" pan="0" len="48"/>
        </pattern>
        <pattern type="1" steps="16" pos="15360" name="" muted="0">
          <note pos="0" key="72" vol="100" pan="0" len="24"/>
          <note pos="24" key="71" vol="100" pan="0" len="48"/>
          <note pos="72" key="67" vol="100" pan="0" len="48"/>
          <note pos="120" key="62" vol="100" pan="0" len="24"/>
          <note pos="144" key="67" vol="100" pan="0" len="24"/>
          <note pos="168" key="71" vol="100" pan="0" len="24"/>
          <note pos="192" key="74" vol="100" pan="0" len="192"/>
        </pattern>
      </track>
      <track type="0" name="lgtH1" solo="0" muted="0">
        <instrumenttrack pitch="0" usemasterpitch="1" vol="200" pan="-100" pitchrange="1" basenote="57" fxch="12">
          <instrument name="carlapatchbay">
            <carlapatchbay>
              <CARLA-PROJECT VERSION="2.2">
                <EngineSettings>
                  <ForceStereo>false</ForceStereo>
                  <PreferPluginBridges>false</PreferPluginBridges>
                  <PreferUiBridges>true</PreferUiBridges>
                  <UIsAlwaysOnTop>false</UIsAlwaysOnTop>
                  <MaxParameters>200</MaxParameters>
                  <UIBridgesTimeout>4000</UIBridgesTimeout>
                  <LADSPA_PATH>/home/pass/.ladspa:/usr/lib/ladspa:/usr/local/lib/ladspa</LADSPA_PATH>
                  <DSSI_PATH>/home/pass/.dssi:/usr/lib/dssi:/usr/local/lib/dssi</DSSI_PATH>
                  <LV2_PATH>/home/pass/.lv2:/usr/lib/lv2:/usr/local/lib/lv2</LV2_PATH>
                  <VST2_PATH>/home/pass/.vst:/home/pass/.wine/drive_c/Program Files (x86)/VstPlugins:/home/pass/.wine/drive_c/Program Files/VstPlugins:/usr/lib/lxvst:/usr/lib/vst:/usr/local/lib/lxvst:/usr/local/lib/vst/home/pass/.lxvst:/home/pass/vst</VST2_PATH>
                  <VST3_PATH>/home/pass/.vst3:/home/pass/.wine/drive_c/Program Files (x86)/Common Files/VST3:/home/pass/.wine/drive_c/Program Files/Common Files/VST3:/usr/lib/vst3:/usr/local/lib/vst3</VST3_PATH>
                  <SF2_PATH>/home/pass/.sounds/sf2/home/pass/.sounds/sf3:/usr/share/soundfonts:/usr/share/sounds/sf2:/usr/share/sounds/sf3</SF2_PATH>
                  <SFZ_PATH>/home/pass/.sounds/sfz:/home/pass/samples:/usr/share/sounds/sfz</SFZ_PATH>
                </EngineSettings>
                <!-- sfizz -->
                <Plugin>
                  <Info>
                    <Type>LV2</Type>
                    <Name>sfizz</Name>
                    <URI>http://sfztools.github.io/sfizz</URI>
                  </Info>
                  <Data>
                    <Active>Yes</Active>
                    <ControlChannel>1</ControlChannel>
                    <Options>0x3f0</Options>
                    <Parameter>
                      <Index>0</Index>
                      <Name>Volume</Name>
                      <Symbol>volume</Symbol>
                      <Value>0</Value>
                    </Parameter>
                    <Parameter>
                      <Index>1</Index>
                      <Name>Polyphony</Name>
                      <Symbol>num_voices</Symbol>
                      <Value>64</Value>
                    </Parameter>
                    <Parameter>
                      <Index>2</Index>
                      <Name>Internal oversampling factor</Name>
                      <Symbol>oversampling</Symbol>
                      <Value>1</Value>
                    </Parameter>
                    <Parameter>
                      <Index>3</Index>
                      <Name>Preload size</Name>
                      <Symbol>preload_size</Symbol>
                      <Value>8192</Value>
                    </Parameter>
                    <CustomData>
                      <Type>http://lv2plug.in/ns/ext/atom#Path</Type>
                      <Key>http://sfztools.github.io/sfizz:sfzfile</Key>
                      <Value>/home/pass/samples/fakeguitar/_fakeguitar1_integrated.sfz</Value>
                    </CustomData>
                    <CustomData>
                      <Type>http://lv2plug.in/ns/ext/atom#Int</Type>
                      <Key>http://sfztools.github.io/sfizz:numvoices</Key>
                      <Value>QAAAAA==</Value>
                    </CustomData>
                    <CustomData>
                      <Type>http://lv2plug.in/ns/ext/atom#Int</Type>
                      <Key>http://sfztools.github.io/sfizz:preload_size</Key>
                      <Value>ACAAAA==</Value>
                    </CustomData>
                    <CustomData>
                      <Type>http://lv2plug.in/ns/ext/atom#Int</Type>
                      <Key>http://sfztools.github.io/sfizz:oversampling</Key>
                      <Value>AQAAAA==</Value>
                    </CustomData>
                  </Data>
                </Plugin>
                <Patchbay>
                  <Connection>
                    <Source>Midi Input:Capture 1</Source>
                    <Target>sfizz:events-in</Target>
                  </Connection>
                  <Connection>
                    <Source>sfizz:Left Output</Source>
                    <Target>Audio Output:Left</Target>
                  </Connection>
                  <Connection>
                    <Source>sfizz:Right Output</Source>
                    <Target>Audio Output:Right</Target>
                  </Connection>
                  <Positions>
                    <Position pluginId="0" y1="1353" x1="1693">
                      <Name>sfizz</Name>
                    </Position>
                  </Positions>
                </Patchbay>
              </CARLA-PROJECT>
            </carlapatchbay>
          </instrument>
          <eldata fwet="0" fres="0.5" fcut="14000" ftype="0">
            <elvol ctlenvamt="0" pdel="0" dec="0.5" lspd_denominator="4" att="0" lamt="0" sustain="0.5" hold="0.5" lshp="0" rel="0.1" x100="0" lspd_syncmode="0" userwavefile="" amt="0" lspd="0.1" lspd_numerator="4" latt="0" lpdel="0"/>
            <elcut ctlenvamt="0" pdel="0" dec="0.5" lspd_denominator="4" att="0" lamt="0" sustain="0.5" hold="0.5" lshp="0" rel="0.1" x100="0" lspd_syncmode="0" userwavefile="" amt="0" lspd="0.1" lspd_numerator="4" latt="0" lpdel="0"/>
            <elres ctlenvamt="0" pdel="0" dec="0.5" lspd_denominator="4" att="0" lamt="0" sustain="0.5" hold="0.5" lshp="0" rel="0.1" x100="0" lspd_syncmode="0" userwavefile="" amt="0" lspd="0.1" lspd_numerator="4" latt="0" lpdel="0"/>
          </eldata>
          <chordcreator chordrange="1" chord="0" chord-enabled="0"/>
          <arpeggiator arprange="1" arptime_syncmode="0" arptime_denominator="4" arp-enabled="0" arpmiss="0" arpmode="0" arpgate="100" arpskip="0" arptime_numerator="4" arptime="200" arpdir="0" arpcycle="0" arp="0"/>
          <midiport writable="0" basevelocity="63" fixedoutputvelocity="-1" outputchannel="1" fixedoutputnote="-1" outputprogram="1" inputcontroller="0" inputchannel="0" outputcontroller="0" readable="0" fixedinputvelocity="-1"/>
          <fxchain numofeffects="0" enabled="0"/>
        </instrumenttrack>
        <pattern type="1" steps="16" pos="3456" name="lgtH1" muted="0">
          <note pos="0" key="64" vol="191" pan="0" len="24"/>
          <note pos="0" key="0" vol="191" pan="0" len="24"/>
          <note pos="24" key="67" vol="191" pan="0" len="24"/>
          <note pos="48" key="66" vol="191" pan="0" len="24"/>
          <note pos="72" key="67" vol="191" pan="0" len="24"/>
          <note pos="96" key="64" vol="191" pan="0" len="24"/>
          <note pos="108" key="1" vol="191" pan="0" len="12"/>
          <note pos="120" key="64" vol="191" pan="0" len="12"/>
          <note pos="132" key="64" vol="191" pan="0" len="12"/>
          <note pos="144" key="64" vol="191" pan="0" len="12"/>
          <note pos="156" key="64" vol="191" pan="0" len="12"/>
          <note pos="168" key="64" vol="191" pan="0" len="12"/>
          <note pos="180" key="64" vol="191" pan="0" len="12"/>
          <note pos="192" key="64" vol="191" pan="0" len="24"/>
          <note pos="204" key="0" vol="191" pan="0" len="24"/>
          <note pos="216" key="66" vol="191" pan="0" len="24"/>
          <note pos="240" key="67" vol="191" pan="0" len="24"/>
          <note pos="264" key="71" vol="191" pan="0" len="24"/>
          <note pos="288" key="69" vol="191" pan="0" len="24"/>
          <note pos="312" key="67" vol="191" pan="0" len="24"/>
          <note pos="336" key="66" vol="191" pan="0" len="24"/>
          <note pos="360" key="67" vol="191" pan="0" len="24"/>
        </pattern>
        <pattern type="1" steps="16" pos="3840" name="" muted="0">
          <note pos="0" key="64" vol="191" pan="0" len="24"/>
          <note pos="0" key="0" vol="191" pan="0" len="24"/>
          <note pos="24" key="67" vol="191" pan="0" len="24"/>
          <note pos="48" key="66" vol="191" pan="0" len="24"/>
          <note pos="72" key="67" vol="191" pan="0" len="24"/>
          <note pos="96" key="64" vol="191" pan="0" len="24"/>
          <note pos="108" key="1" vol="191" pan="0" len="12"/>
          <note pos="120" key="64" vol="191" pan="0" len="12"/>
          <note pos="132" key="64" vol="191" pan="0" len="12"/>
          <note pos="144" key="64" vol="191" pan="0" len="12"/>
          <note pos="156" key="64" vol="191" pan="0" len="12"/>
          <note pos="168" key="64" vol="191" pan="0" len="12"/>
          <note pos="180" key="64" vol="191" pan="0" len="12"/>
          <note pos="192" key="64" vol="191" pan="0" len="24"/>
          <note pos="204" key="0" vol="191" pan="0" len="24"/>
          <note pos="216" key="66" vol="191" pan="0" len="24"/>
          <note pos="240" key="67" vol="191" pan="0" len="24"/>
          <note pos="264" key="74" vol="191" pan="0" len="24"/>
          <note pos="288" key="72" vol="191" pan="0" len="24"/>
          <note pos="312" key="71" vol="191" pan="0" len="24"/>
          <note pos="336" key="69" vol="191" pan="0" len="24"/>
          <note pos="360" key="67" vol="191" pan="0" len="24"/>
        </pattern>
        <pattern type="1" steps="16" pos="4224" name="" muted="0">
          <note pos="0" key="64" vol="191" pan="0" len="24"/>
          <note pos="0" key="0" vol="191" pan="0" len="24"/>
          <note pos="24" key="67" vol="191" pan="0" len="24"/>
          <note pos="48" key="66" vol="191" pan="0" len="24"/>
          <note pos="72" key="67" vol="191" pan="0" len="24"/>
          <note pos="96" key="64" vol="191" pan="0" len="24"/>
          <note pos="108" key="1" vol="191" pan="0" len="12"/>
          <note pos="120" key="64" vol="191" pan="0" len="12"/>
          <note pos="132" key="64" vol="191" pan="0" len="12"/>
          <note pos="144" key="64" vol="191" pan="0" len="12"/>
          <note pos="156" key="64" vol="191" pan="0" len="12"/>
          <note pos="168" key="64" vol="191" pan="0" len="12"/>
          <note pos="180" key="64" vol="191" pan="0" len="12"/>
          <note pos="192" key="64" vol="191" pan="0" len="24"/>
          <note pos="204" key="0" vol="191" pan="0" len="24"/>
          <note pos="216" key="66" vol="191" pan="0" len="24"/>
          <note pos="240" key="67" vol="191" pan="0" len="24"/>
          <note pos="264" key="71" vol="191" pan="0" len="24"/>
          <note pos="288" key="69" vol="191" pan="0" len="24"/>
          <note pos="312" key="67" vol="191" pan="0" len="24"/>
          <note pos="336" key="66" vol="191" pan="0" len="24"/>
          <note pos="360" key="67" vol="191" pan="0" len="24"/>
        </pattern>
        <pattern type="1" steps="16" pos="4608" name="lgtH1" muted="0">
          <note pos="0" key="71" vol="197" pan="0" len="72"/>
          <note pos="0" key="0" vol="197" pan="0" len="48"/>
          <note pos="72" key="72" vol="197" pan="0" len="72"/>
          <note pos="144" key="71" vol="197" pan="0" len="48"/>
          <note pos="192" key="69" vol="197" pan="0" len="24"/>
          <note pos="204" key="1" vol="197" pan="0" len="48"/>
          <note pos="216" key="67" vol="197" pan="0" len="24"/>
          <note pos="240" key="66" vol="197" pan="0" len="24"/>
          <note pos="252" key="0" vol="197" pan="0" len="48"/>
          <note pos="264" key="67" vol="197" pan="0" len="48"/>
          <note pos="312" key="66" vol="197" pan="0" len="24"/>
          <note pos="336" key="67" vol="197" pan="0" len="24"/>
          <note pos="360" key="69" vol="197" pan="0" len="24"/>
        </pattern>
        <pattern type="1" steps="16" pos="4992" name="" muted="0">
          <note pos="0" key="64" vol="191" pan="0" len="24"/>
          <note pos="0" key="0" vol="191" pan="0" len="24"/>
          <note pos="24" key="67" vol="191" pan="0" len="24"/>
          <note pos="48" key="66" vol="191" pan="0" len="24"/>
          <note pos="72" key="67" vol="191" pan="0" len="24"/>
          <note pos="96" key="64" vol="191" pan="0" len="24"/>
          <note pos="108" key="1" vol="191" pan="0" len="12"/>
          <note pos="120" key="64" vol="191" pan="0" len="12"/>
          <note pos="132" key="64" vol="191" pan="0" len="12"/>
          <note pos="144" key="64" vol="191" pan="0" len="12"/>
          <note pos="156" key="64" vol="191" pan="0" len="12"/>
          <note pos="168" key="64" vol="191" pan="0" len="12"/>
          <note pos="180" key="64" vol="191" pan="0" len="12"/>
          <note pos="192" key="64" vol="191" pan="0" len="24"/>
          <note pos="204" key="0" vol="191" pan="0" len="24"/>
          <note pos="216" key="66" vol="191" pan="0" len="24"/>
          <note pos="240" key="67" vol="191" pan="0" len="24"/>
          <note pos="264" key="71" vol="191" pan="0" len="24"/>
          <note pos="288" key="69" vol="191" pan="0" len="24"/>
          <note pos="312" key="67" vol="191" pan="0" len="24"/>
          <note pos="336" key="66" vol="191" pan="0" len="24"/>
          <note pos="360" key="67" vol="191" pan="0" len="24"/>
        </pattern>
        <pattern type="1" steps="16" pos="5376" name="" muted="0">
          <note pos="0" key="64" vol="191" pan="0" len="24"/>
          <note pos="0" key="0" vol="191" pan="0" len="24"/>
          <note pos="24" key="67" vol="191" pan="0" len="24"/>
          <note pos="48" key="66" vol="191" pan="0" len="24"/>
          <note pos="72" key="67" vol="191" pan="0" len="24"/>
          <note pos="96" key="64" vol="191" pan="0" len="24"/>
          <note pos="108" key="1" vol="191" pan="0" len="12"/>
          <note pos="120" key="64" vol="191" pan="0" len="12"/>
          <note pos="132" key="64" vol="191" pan="0" len="12"/>
          <note pos="144" key="64" vol="191" pan="0" len="12"/>
          <note pos="156" key="64" vol="191" pan="0" len="12"/>
          <note pos="168" key="64" vol="191" pan="0" len="12"/>
          <note pos="180" key="64" vol="191" pan="0" len="12"/>
          <note pos="192" key="64" vol="191" pan="0" len="24"/>
          <note pos="204" key="0" vol="191" pan="0" len="24"/>
          <note pos="216" key="66" vol="191" pan="0" len="24"/>
          <note pos="240" key="67" vol="191" pan="0" len="24"/>
          <note pos="264" key="74" vol="191" pan="0" len="24"/>
          <note pos="288" key="72" vol="191" pan="0" len="24"/>
          <note pos="312" key="71" vol="191" pan="0" len="24"/>
          <note pos="336" key="69" vol="191" pan="0" len="24"/>
          <note pos="360" key="67" vol="191" pan="0" len="24"/>
        </pattern>
        <pattern type="1" steps="16" pos="5760" name="" muted="0">
          <note pos="0" key="64" vol="191" pan="0" len="24"/>
          <note pos="0" key="0" vol="191" pan="0" len="24"/>
          <note pos="24" key="67" vol="191" pan="0" len="24"/>
          <note pos="48" key="66" vol="191" pan="0" len="24"/>
          <note pos="72" key="67" vol="191" pan="0" len="24"/>
          <note pos="96" key="64" vol="191" pan="0" len="24"/>
          <note pos="108" key="1" vol="191" pan="0" len="12"/>
          <note pos="120" key="64" vol="191" pan="0" len="12"/>
          <note pos="132" key="64" vol="191" pan="0" len="12"/>
          <note pos="144" key="64" vol="191" pan="0" len="12"/>
          <note pos="156" key="64" vol="191" pan="0" len="12"/>
          <note pos="168" key="64" vol="191" pan="0" len="12"/>
          <note pos="180" key="64" vol="191" pan="0" len="12"/>
          <note pos="192" key="64" vol="191" pan="0" len="24"/>
          <note pos="204" key="0" vol="191" pan="0" len="24"/>
          <note pos="216" key="66" vol="191" pan="0" len="24"/>
          <note pos="240" key="67" vol="191" pan="0" len="24"/>
          <note pos="264" key="71" vol="191" pan="0" len="24"/>
          <note pos="288" key="69" vol="191" pan="0" len="24"/>
          <note pos="312" key="67" vol="191" pan="0" len="24"/>
          <note pos="336" key="66" vol="191" pan="0" len="24"/>
          <note pos="360" key="67" vol="191" pan="0" len="24"/>
        </pattern>
        <pattern type="1" steps="16" pos="6144" name="" muted="0">
          <note pos="0" key="71" vol="197" pan="0" len="72"/>
          <note pos="0" key="0" vol="197" pan="0" len="48"/>
          <note pos="72" key="72" vol="197" pan="0" len="72"/>
          <note pos="144" key="71" vol="197" pan="0" len="48"/>
          <note pos="192" key="74" vol="197" pan="0" len="72"/>
          <note pos="264" key="79" vol="197" pan="0" len="72"/>
          <note pos="336" key="78" vol="197" pan="0" len="48"/>
        </pattern>
        <pattern type="1" steps="16" pos="6528" name="" muted="0">
          <note pos="0" key="64" vol="191" pan="0" len="24"/>
          <note pos="0" key="0" vol="191" pan="0" len="24"/>
          <note pos="24" key="67" vol="191" pan="0" len="24"/>
          <note pos="48" key="66" vol="191" pan="0" len="24"/>
          <note pos="72" key="67" vol="191" pan="0" len="24"/>
          <note pos="96" key="64" vol="191" pan="0" len="24"/>
          <note pos="108" key="1" vol="191" pan="0" len="12"/>
          <note pos="120" key="64" vol="191" pan="0" len="12"/>
          <note pos="132" key="64" vol="191" pan="0" len="12"/>
          <note pos="144" key="64" vol="191" pan="0" len="12"/>
          <note pos="156" key="64" vol="191" pan="0" len="12"/>
          <note pos="168" key="64" vol="191" pan="0" len="12"/>
          <note pos="180" key="64" vol="191" pan="0" len="12"/>
          <note pos="192" key="64" vol="191" pan="0" len="24"/>
          <note pos="204" key="0" vol="191" pan="0" len="24"/>
          <note pos="216" key="66" vol="191" pan="0" len="24"/>
          <note pos="240" key="67" vol="191" pan="0" len="24"/>
          <note pos="264" key="71" vol="191" pan="0" len="24"/>
          <note pos="288" key="69" vol="191" pan="0" len="24"/>
          <note pos="312" key="67" vol="191" pan="0" len="24"/>
          <note pos="336" key="66" vol="191" pan="0" len="24"/>
          <note pos="360" key="67" vol="191" pan="0" len="24"/>
        </pattern>
        <pattern type="1" steps="16" pos="6912" name="" muted="0">
          <note pos="0" key="64" vol="191" pan="0" len="24"/>
          <note pos="0" key="0" vol="191" pan="0" len="24"/>
          <note pos="24" key="67" vol="191" pan="0" len="24"/>
          <note pos="48" key="66" vol="191" pan="0" len="24"/>
          <note pos="72" key="67" vol="191" pan="0" len="24"/>
          <note pos="96" key="64" vol="191" pan="0" len="24"/>
          <note pos="108" key="1" vol="191" pan="0" len="12"/>
          <note pos="120" key="64" vol="191" pan="0" len="12"/>
          <note pos="132" key="64" vol="191" pan="0" len="12"/>
          <note pos="144" key="64" vol="191" pan="0" len="12"/>
          <note pos="156" key="64" vol="191" pan="0" len="12"/>
          <note pos="168" key="64" vol="191" pan="0" len="12"/>
          <note pos="180" key="64" vol="191" pan="0" len="12"/>
          <note pos="192" key="64" vol="191" pan="0" len="24"/>
          <note pos="204" key="0" vol="191" pan="0" len="24"/>
          <note pos="216" key="66" vol="191" pan="0" len="24"/>
          <note pos="240" key="67" vol="191" pan="0" len="24"/>
          <note pos="264" key="74" vol="191" pan="0" len="24"/>
          <note pos="288" key="72" vol="191" pan="0" len="24"/>
          <note pos="312" key="71" vol="191" pan="0" len="24"/>
          <note pos="336" key="69" vol="191" pan="0" len="24"/>
          <note pos="360" key="67" vol="191" pan="0" len="24"/>
        </pattern>
        <pattern type="1" steps="16" pos="7296" name="" muted="0">
          <note pos="0" key="64" vol="191" pan="0" len="24"/>
          <note pos="0" key="0" vol="191" pan="0" len="24"/>
          <note pos="24" key="67" vol="191" pan="0" len="24"/>
          <note pos="48" key="66" vol="191" pan="0" len="24"/>
          <note pos="72" key="67" vol="191" pan="0" len="24"/>
          <note pos="96" key="64" vol="191" pan="0" len="24"/>
          <note pos="108" key="1" vol="191" pan="0" len="12"/>
          <note pos="120" key="64" vol="191" pan="0" len="12"/>
          <note pos="132" key="64" vol="191" pan="0" len="12"/>
          <note pos="144" key="64" vol="191" pan="0" len="12"/>
          <note pos="156" key="64" vol="191" pan="0" len="12"/>
          <note pos="168" key="64" vol="191" pan="0" len="12"/>
          <note pos="180" key="64" vol="191" pan="0" len="12"/>
          <note pos="192" key="64" vol="191" pan="0" len="24"/>
          <note pos="204" key="0" vol="191" pan="0" len="24"/>
          <note pos="216" key="66" vol="191" pan="0" len="24"/>
          <note pos="240" key="67" vol="191" pan="0" len="24"/>
          <note pos="264" key="71" vol="191" pan="0" len="24"/>
          <note pos="288" key="69" vol="191" pan="0" len="24"/>
          <note pos="312" key="67" vol="191" pan="0" len="24"/>
          <note pos="336" key="66" vol="191" pan="0" len="24"/>
          <note pos="360" key="67" vol="191" pan="0" len="24"/>
        </pattern>
        <pattern type="1" steps="16" pos="7680" name="" muted="0">
          <note pos="0" key="71" vol="197" pan="0" len="72"/>
          <note pos="0" key="0" vol="197" pan="0" len="48"/>
          <note pos="72" key="72" vol="197" pan="0" len="72"/>
          <note pos="144" key="71" vol="197" pan="0" len="48"/>
          <note pos="192" key="69" vol="197" pan="0" len="24"/>
          <note pos="204" key="1" vol="197" pan="0" len="48"/>
          <note pos="216" key="67" vol="197" pan="0" len="24"/>
          <note pos="240" key="66" vol="197" pan="0" len="24"/>
          <note pos="252" key="0" vol="197" pan="0" len="48"/>
          <note pos="264" key="67" vol="197" pan="0" len="48"/>
          <note pos="312" key="66" vol="197" pan="0" len="24"/>
          <note pos="336" key="67" vol="197" pan="0" len="24"/>
          <note pos="360" key="69" vol="197" pan="0" len="24"/>
        </pattern>
        <pattern type="1" steps="16" pos="8064" name="" muted="0">
          <note pos="0" key="64" vol="191" pan="0" len="24"/>
          <note pos="0" key="0" vol="191" pan="0" len="24"/>
          <note pos="24" key="67" vol="191" pan="0" len="24"/>
          <note pos="48" key="66" vol="191" pan="0" len="24"/>
          <note pos="72" key="67" vol="191" pan="0" len="24"/>
          <note pos="96" key="64" vol="191" pan="0" len="24"/>
          <note pos="108" key="1" vol="191" pan="0" len="12"/>
          <note pos="120" key="64" vol="191" pan="0" len="12"/>
          <note pos="132" key="64" vol="191" pan="0" len="12"/>
          <note pos="144" key="64" vol="191" pan="0" len="12"/>
          <note pos="156" key="64" vol="191" pan="0" len="12"/>
          <note pos="168" key="64" vol="191" pan="0" len="12"/>
          <note pos="180" key="64" vol="191" pan="0" len="12"/>
          <note pos="192" key="64" vol="191" pan="0" len="24"/>
          <note pos="204" key="0" vol="191" pan="0" len="24"/>
          <note pos="216" key="66" vol="191" pan="0" len="24"/>
          <note pos="240" key="67" vol="191" pan="0" len="24"/>
          <note pos="264" key="71" vol="191" pan="0" len="24"/>
          <note pos="288" key="69" vol="191" pan="0" len="24"/>
          <note pos="312" key="67" vol="191" pan="0" len="24"/>
          <note pos="336" key="66" vol="191" pan="0" len="24"/>
          <note pos="360" key="67" vol="191" pan="0" len="24"/>
        </pattern>
        <pattern type="1" steps="16" pos="8448" name="" muted="0">
          <note pos="0" key="64" vol="191" pan="0" len="24"/>
          <note pos="0" key="0" vol="191" pan="0" len="24"/>
          <note pos="24" key="67" vol="191" pan="0" len="24"/>
          <note pos="48" key="66" vol="191" pan="0" len="24"/>
          <note pos="72" key="67" vol="191" pan="0" len="24"/>
          <note pos="96" key="64" vol="191" pan="0" len="24"/>
          <note pos="108" key="1" vol="191" pan="0" len="12"/>
          <note pos="120" key="64" vol="191" pan="0" len="12"/>
          <note pos="132" key="64" vol="191" pan="0" len="12"/>
          <note pos="144" key="64" vol="191" pan="0" len="12"/>
          <note pos="156" key="64" vol="191" pan="0" len="12"/>
          <note pos="168" key="64" vol="191" pan="0" len="12"/>
          <note pos="180" key="64" vol="191" pan="0" len="12"/>
          <note pos="192" key="64" vol="191" pan="0" len="24"/>
          <note pos="204" key="0" vol="191" pan="0" len="24"/>
          <note pos="216" key="66" vol="191" pan="0" len="24"/>
          <note pos="240" key="67" vol="191" pan="0" len="24"/>
          <note pos="264" key="74" vol="191" pan="0" len="24"/>
          <note pos="288" key="72" vol="191" pan="0" len="24"/>
          <note pos="312" key="71" vol="191" pan="0" len="24"/>
          <note pos="336" key="69" vol="191" pan="0" len="24"/>
          <note pos="360" key="67" vol="191" pan="0" len="24"/>
        </pattern>
        <pattern type="1" steps="16" pos="8832" name="" muted="0">
          <note pos="0" key="64" vol="191" pan="0" len="24"/>
          <note pos="0" key="0" vol="191" pan="0" len="24"/>
          <note pos="24" key="67" vol="191" pan="0" len="24"/>
          <note pos="48" key="66" vol="191" pan="0" len="24"/>
          <note pos="72" key="67" vol="191" pan="0" len="24"/>
          <note pos="96" key="64" vol="191" pan="0" len="24"/>
          <note pos="108" key="1" vol="191" pan="0" len="12"/>
          <note pos="120" key="64" vol="191" pan="0" len="12"/>
          <note pos="132" key="64" vol="191" pan="0" len="12"/>
          <note pos="144" key="64" vol="191" pan="0" len="12"/>
          <note pos="156" key="64" vol="191" pan="0" len="12"/>
          <note pos="168" key="64" vol="191" pan="0" len="12"/>
          <note pos="180" key="64" vol="191" pan="0" len="12"/>
          <note pos="192" key="64" vol="191" pan="0" len="24"/>
          <note pos="204" key="0" vol="191" pan="0" len="24"/>
          <note pos="216" key="66" vol="191" pan="0" len="24"/>
          <note pos="240" key="67" vol="191" pan="0" len="24"/>
          <note pos="264" key="71" vol="191" pan="0" len="24"/>
          <note pos="288" key="69" vol="191" pan="0" len="24"/>
          <note pos="312" key="67" vol="191" pan="0" len="24"/>
          <note pos="336" key="66" vol="191" pan="0" len="24"/>
          <note pos="360" key="67" vol="191" pan="0" len="24"/>
        </pattern>
        <pattern type="1" steps="16" pos="9216" name="" muted="0">
          <note pos="0" key="71" vol="197" pan="0" len="72"/>
          <note pos="0" key="0" vol="197" pan="0" len="48"/>
          <note pos="72" key="72" vol="197" pan="0" len="72"/>
          <note pos="144" key="71" vol="197" pan="0" len="48"/>
          <note pos="192" key="74" vol="197" pan="0" len="72"/>
          <note pos="264" key="79" vol="197" pan="0" len="72"/>
          <note pos="336" key="78" vol="197" pan="0" len="48"/>
        </pattern>
        <pattern type="1" steps="16" pos="9600" name="lgtH1" muted="0">
          <note pos="0" key="76" vol="195" pan="0" len="72"/>
          <note pos="0" key="0" vol="195" pan="0" len="48"/>
          <note pos="72" key="76" vol="195" pan="0" len="72"/>
          <note pos="144" key="78" vol="195" pan="0" len="48"/>
          <note pos="192" key="79" vol="195" pan="0" len="48"/>
          <note pos="240" key="78" vol="195" pan="0" len="24"/>
          <note pos="264" key="76" vol="195" pan="0" len="72"/>
          <note pos="336" key="74" vol="195" pan="0" len="24"/>
          <note pos="360" key="76" vol="195" pan="0" len="24"/>
          <note pos="384" key="74" vol="195" pan="0" len="72"/>
          <note pos="456" key="71" vol="195" pan="0" len="216"/>
          <note pos="672" key="71" vol="195" pan="0" len="48"/>
          <note pos="720" key="74" vol="195" pan="0" len="48"/>
          <note pos="768" key="76" vol="195" pan="0" len="72"/>
          <note pos="840" key="76" vol="195" pan="0" len="72"/>
          <note pos="912" key="78" vol="195" pan="0" len="48"/>
          <note pos="960" key="79" vol="195" pan="0" len="24"/>
          <note pos="984" key="78" vol="195" pan="0" len="48"/>
          <note pos="1032" key="76" vol="195" pan="0" len="72"/>
          <note pos="1104" key="83" vol="195" pan="0" len="24"/>
          <note pos="1128" key="84" vol="195" pan="0" len="24"/>
          <note pos="1152" key="83" vol="195" pan="0" len="72"/>
          <note pos="1224" key="74" vol="195" pan="0" len="72"/>
          <note pos="1296" key="83" vol="195" pan="0" len="48"/>
          <note pos="1344" key="81" vol="195" pan="0" len="144"/>
          <note pos="1488" key="76" vol="195" pan="0" len="24"/>
          <note pos="1512" key="79" vol="195" pan="0" len="24"/>
          <note pos="1536" key="83" vol="195" pan="0" len="48"/>
          <note pos="1584" key="79" vol="195" pan="0" len="24"/>
          <note pos="1608" key="79" vol="195" pan="0" len="72"/>
          <note pos="1680" key="83" vol="195" pan="0" len="48"/>
          <note pos="1728" key="84" vol="195" pan="0" len="72"/>
          <note pos="1800" key="83" vol="195" pan="0" len="72"/>
          <note pos="1872" key="81" vol="195" pan="0" len="48"/>
          <note pos="1920" key="83" vol="195" pan="0" len="48"/>
          <note pos="1968" key="79" vol="195" pan="0" len="24"/>
          <note pos="1992" key="79" vol="195" pan="0" len="72"/>
          <note pos="2064" key="83" vol="195" pan="0" len="48"/>
          <note pos="2112" key="81" vol="195" pan="0" len="144"/>
          <note pos="2256" key="76" vol="104" pan="0" len="24"/>
          <note pos="2280" key="78" vol="104" pan="0" len="24"/>
        </pattern>
        <pattern type="1" steps="16" pos="11904" name="lgtH1" muted="0">
          <note pos="0" key="79" vol="104" pan="0" len="48"/>
          <note pos="48" key="78" vol="104" pan="0" len="48"/>
          <note pos="96" key="76" vol="104" pan="0" len="48"/>
          <note pos="144" key="83" vol="104" pan="0" len="48"/>
          <note pos="192" key="81" vol="104" pan="0" len="48"/>
          <note pos="240" key="79" vol="104" pan="0" len="48"/>
          <note pos="288" key="78" vol="104" pan="0" len="48"/>
          <note pos="336" key="74" vol="104" pan="0" len="48"/>
          <note pos="384" key="76" vol="104" pan="0" len="192"/>
          <note pos="576" key="76" vol="104" pan="0" len="192"/>
        </pattern>
      </track>
      <track type="0" name="lgtH2" solo="0" muted="0">
        <instrumenttrack pitch="0" usemasterpitch="1" vol="200" pan="100" pitchrange="1" basenote="57" fxch="12">
          <instrument name="carlapatchbay">
            <carlapatchbay>
              <CARLA-PROJECT VERSION="2.2">
                <EngineSettings>
                  <ForceStereo>false</ForceStereo>
                  <PreferPluginBridges>false</PreferPluginBridges>
                  <PreferUiBridges>true</PreferUiBridges>
                  <UIsAlwaysOnTop>false</UIsAlwaysOnTop>
                  <MaxParameters>200</MaxParameters>
                  <UIBridgesTimeout>4000</UIBridgesTimeout>
                  <LADSPA_PATH>/home/pass/.ladspa:/usr/lib/ladspa:/usr/local/lib/ladspa</LADSPA_PATH>
                  <DSSI_PATH>/home/pass/.dssi:/usr/lib/dssi:/usr/local/lib/dssi</DSSI_PATH>
                  <LV2_PATH>/home/pass/.lv2:/usr/lib/lv2:/usr/local/lib/lv2</LV2_PATH>
                  <VST2_PATH>/home/pass/.vst:/home/pass/.wine/drive_c/Program Files (x86)/VstPlugins:/home/pass/.wine/drive_c/Program Files/VstPlugins:/usr/lib/lxvst:/usr/lib/vst:/usr/local/lib/lxvst:/usr/local/lib/vst/home/pass/.lxvst:/home/pass/vst</VST2_PATH>
                  <VST3_PATH>/home/pass/.vst3:/home/pass/.wine/drive_c/Program Files (x86)/Common Files/VST3:/home/pass/.wine/drive_c/Program Files/Common Files/VST3:/usr/lib/vst3:/usr/local/lib/vst3</VST3_PATH>
                  <SF2_PATH>/home/pass/.sounds/sf2/home/pass/.sounds/sf3:/usr/share/soundfonts:/usr/share/sounds/sf2:/usr/share/sounds/sf3</SF2_PATH>
                  <SFZ_PATH>/home/pass/.sounds/sfz:/home/pass/samples:/usr/share/sounds/sfz</SFZ_PATH>
                </EngineSettings>
                <!-- sfizz -->
                <Plugin>
                  <Info>
                    <Type>LV2</Type>
                    <Name>sfizz</Name>
                    <URI>http://sfztools.github.io/sfizz</URI>
                  </Info>
                  <Data>
                    <Active>Yes</Active>
                    <ControlChannel>1</ControlChannel>
                    <Options>0x3f0</Options>
                    <Parameter>
                      <Index>0</Index>
                      <Name>Volume</Name>
                      <Symbol>volume</Symbol>
                      <Value>0</Value>
                    </Parameter>
                    <Parameter>
                      <Index>1</Index>
                      <Name>Polyphony</Name>
                      <Symbol>num_voices</Symbol>
                      <Value>64</Value>
                    </Parameter>
                    <Parameter>
                      <Index>2</Index>
                      <Name>Internal oversampling factor</Name>
                      <Symbol>oversampling</Symbol>
                      <Value>1</Value>
                    </Parameter>
                    <Parameter>
                      <Index>3</Index>
                      <Name>Preload size</Name>
                      <Symbol>preload_size</Symbol>
                      <Value>8192</Value>
                    </Parameter>
                    <CustomData>
                      <Type>http://lv2plug.in/ns/ext/atom#Path</Type>
                      <Key>http://sfztools.github.io/sfizz:sfzfile</Key>
                      <Value>/home/pass/samples/fakeguitar/_fakeguitar2_integrated.sfz</Value>
                    </CustomData>
                    <CustomData>
                      <Type>http://lv2plug.in/ns/ext/atom#Int</Type>
                      <Key>http://sfztools.github.io/sfizz:numvoices</Key>
                      <Value>QAAAAA==</Value>
                    </CustomData>
                    <CustomData>
                      <Type>http://lv2plug.in/ns/ext/atom#Int</Type>
                      <Key>http://sfztools.github.io/sfizz:preload_size</Key>
                      <Value>ACAAAA==</Value>
                    </CustomData>
                    <CustomData>
                      <Type>http://lv2plug.in/ns/ext/atom#Int</Type>
                      <Key>http://sfztools.github.io/sfizz:oversampling</Key>
                      <Value>AQAAAA==</Value>
                    </CustomData>
                  </Data>
                </Plugin>
                <Patchbay>
                  <Connection>
                    <Source>Midi Input:Capture 1</Source>
                    <Target>sfizz:events-in</Target>
                  </Connection>
                  <Connection>
                    <Source>sfizz:Left Output</Source>
                    <Target>Audio Output:Left</Target>
                  </Connection>
                  <Connection>
                    <Source>sfizz:Right Output</Source>
                    <Target>Audio Output:Right</Target>
                  </Connection>
                  <Positions>
                    <Position pluginId="0" y1="1353" x1="1693">
                      <Name>sfizz</Name>
                    </Position>
                  </Positions>
                </Patchbay>
              </CARLA-PROJECT>
            </carlapatchbay>
          </instrument>
          <eldata fwet="0" fres="0.5" fcut="14000" ftype="0">
            <elvol ctlenvamt="0" pdel="0" dec="0.5" lspd_denominator="4" att="0" lamt="0" sustain="0.5" hold="0.5" lshp="0" rel="0.1" x100="0" lspd_syncmode="0" userwavefile="" amt="0" lspd="0.1" lspd_numerator="4" latt="0" lpdel="0"/>
            <elcut ctlenvamt="0" pdel="0" dec="0.5" lspd_denominator="4" att="0" lamt="0" sustain="0.5" hold="0.5" lshp="0" rel="0.1" x100="0" lspd_syncmode="0" userwavefile="" amt="0" lspd="0.1" lspd_numerator="4" latt="0" lpdel="0"/>
            <elres ctlenvamt="0" pdel="0" dec="0.5" lspd_denominator="4" att="0" lamt="0" sustain="0.5" hold="0.5" lshp="0" rel="0.1" x100="0" lspd_syncmode="0" userwavefile="" amt="0" lspd="0.1" lspd_numerator="4" latt="0" lpdel="0"/>
          </eldata>
          <chordcreator chordrange="1" chord="0" chord-enabled="0"/>
          <arpeggiator arprange="1" arptime_syncmode="0" arptime_denominator="4" arp-enabled="0" arpmiss="0" arpmode="0" arpgate="100" arpskip="0" arptime_numerator="4" arptime="200" arpdir="0" arpcycle="0" arp="0"/>
          <midiport writable="0" basevelocity="63" fixedoutputvelocity="-1" outputchannel="1" fixedoutputnote="-1" outputprogram="1" inputcontroller="0" inputchannel="0" outputcontroller="0" readable="0" fixedinputvelocity="-1"/>
          <fxchain numofeffects="0" enabled="0"/>
        </instrumenttrack>
        <pattern type="1" steps="16" pos="3456" name="lgtH2" muted="0">
          <note pos="0" key="59" vol="191" pan="0" len="24"/>
          <note pos="0" key="0" vol="191" pan="0" len="24"/>
          <note pos="24" key="64" vol="191" pan="0" len="24"/>
          <note pos="48" key="62" vol="191" pan="0" len="24"/>
          <note pos="72" key="64" vol="191" pan="0" len="24"/>
          <note pos="96" key="59" vol="191" pan="0" len="24"/>
          <note pos="108" key="1" vol="191" pan="0" len="12"/>
          <note pos="120" key="59" vol="191" pan="0" len="12"/>
          <note pos="132" key="59" vol="191" pan="0" len="12"/>
          <note pos="144" key="59" vol="191" pan="0" len="12"/>
          <note pos="156" key="59" vol="191" pan="0" len="12"/>
          <note pos="168" key="59" vol="191" pan="0" len="12"/>
          <note pos="180" key="59" vol="191" pan="0" len="12"/>
          <note pos="192" key="59" vol="191" pan="0" len="24"/>
          <note pos="204" key="0" vol="191" pan="0" len="24"/>
          <note pos="216" key="62" vol="191" pan="0" len="24"/>
          <note pos="240" key="64" vol="191" pan="0" len="24"/>
          <note pos="264" key="67" vol="191" pan="0" len="24"/>
          <note pos="288" key="66" vol="191" pan="0" len="24"/>
          <note pos="312" key="64" vol="191" pan="0" len="24"/>
          <note pos="336" key="62" vol="191" pan="0" len="24"/>
          <note pos="360" key="64" vol="191" pan="0" len="24"/>
        </pattern>
        <pattern type="1" steps="16" pos="3840" name="lgtH2" muted="0">
          <note pos="0" key="59" vol="191" pan="0" len="24"/>
          <note pos="0" key="0" vol="191" pan="0" len="24"/>
          <note pos="24" key="64" vol="191" pan="0" len="24"/>
          <note pos="48" key="62" vol="191" pan="0" len="24"/>
          <note pos="72" key="64" vol="191" pan="0" len="24"/>
          <note pos="96" key="59" vol="191" pan="0" len="24"/>
          <note pos="108" key="1" vol="191" pan="0" len="12"/>
          <note pos="120" key="59" vol="191" pan="0" len="12"/>
          <note pos="132" key="59" vol="191" pan="0" len="12"/>
          <note pos="144" key="59" vol="191" pan="0" len="12"/>
          <note pos="156" key="59" vol="191" pan="0" len="12"/>
          <note pos="168" key="59" vol="191" pan="0" len="12"/>
          <note pos="180" key="59" vol="191" pan="0" len="12"/>
          <note pos="192" key="59" vol="191" pan="0" len="24"/>
          <note pos="204" key="0" vol="191" pan="0" len="24"/>
          <note pos="216" key="62" vol="191" pan="0" len="24"/>
          <note pos="240" key="64" vol="191" pan="0" len="24"/>
          <note pos="264" key="71" vol="191" pan="0" len="24"/>
          <note pos="288" key="69" vol="191" pan="0" len="24"/>
          <note pos="312" key="67" vol="191" pan="0" len="24"/>
          <note pos="336" key="66" vol="191" pan="0" len="24"/>
          <note pos="360" key="64" vol="191" pan="0" len="24"/>
        </pattern>
        <pattern type="1" steps="16" pos="4224" name="lgtH2" muted="0">
          <note pos="0" key="59" vol="191" pan="0" len="24"/>
          <note pos="0" key="0" vol="191" pan="0" len="24"/>
          <note pos="24" key="64" vol="191" pan="0" len="24"/>
          <note pos="48" key="62" vol="191" pan="0" len="24"/>
          <note pos="72" key="64" vol="191" pan="0" len="24"/>
          <note pos="96" key="59" vol="191" pan="0" len="24"/>
          <note pos="108" key="1" vol="191" pan="0" len="12"/>
          <note pos="120" key="59" vol="191" pan="0" len="12"/>
          <note pos="132" key="59" vol="191" pan="0" len="12"/>
          <note pos="144" key="59" vol="191" pan="0" len="12"/>
          <note pos="156" key="59" vol="191" pan="0" len="12"/>
          <note pos="168" key="59" vol="191" pan="0" len="12"/>
          <note pos="180" key="59" vol="191" pan="0" len="12"/>
          <note pos="192" key="59" vol="191" pan="0" len="24"/>
          <note pos="204" key="0" vol="191" pan="0" len="24"/>
          <note pos="216" key="62" vol="191" pan="0" len="24"/>
          <note pos="240" key="64" vol="191" pan="0" len="24"/>
          <note pos="264" key="67" vol="191" pan="0" len="24"/>
          <note pos="288" key="66" vol="191" pan="0" len="24"/>
          <note pos="312" key="64" vol="191" pan="0" len="24"/>
          <note pos="336" key="62" vol="191" pan="0" len="24"/>
          <note pos="360" key="64" vol="191" pan="0" len="24"/>
        </pattern>
        <pattern type="1" steps="16" pos="4608" name="lgtH2" muted="0">
          <note pos="0" key="67" vol="197" pan="0" len="72"/>
          <note pos="0" key="0" vol="197" pan="0" len="48"/>
          <note pos="72" key="69" vol="197" pan="0" len="72"/>
          <note pos="144" key="67" vol="197" pan="0" len="48"/>
          <note pos="192" key="66" vol="197" pan="0" len="24"/>
          <note pos="204" key="1" vol="197" pan="0" len="48"/>
          <note pos="216" key="64" vol="197" pan="0" len="24"/>
          <note pos="240" key="62" vol="197" pan="0" len="24"/>
          <note pos="252" key="0" vol="197" pan="0" len="48"/>
          <note pos="264" key="64" vol="197" pan="0" len="48"/>
          <note pos="312" key="62" vol="197" pan="0" len="24"/>
          <note pos="336" key="64" vol="197" pan="0" len="24"/>
          <note pos="360" key="66" vol="197" pan="0" len="24"/>
        </pattern>
        <pattern type="1" steps="16" pos="4992" name="lgtH2" muted="0">
          <note pos="0" key="59" vol="191" pan="0" len="24"/>
          <note pos="0" key="0" vol="191" pan="0" len="24"/>
          <note pos="24" key="64" vol="191" pan="0" len="24"/>
          <note pos="48" key="62" vol="191" pan="0" len="24"/>
          <note pos="72" key="64" vol="191" pan="0" len="24"/>
          <note pos="96" key="59" vol="191" pan="0" len="24"/>
          <note pos="108" key="1" vol="191" pan="0" len="12"/>
          <note pos="120" key="59" vol="191" pan="0" len="12"/>
          <note pos="132" key="59" vol="191" pan="0" len="12"/>
          <note pos="144" key="59" vol="191" pan="0" len="12"/>
          <note pos="156" key="59" vol="191" pan="0" len="12"/>
          <note pos="168" key="59" vol="191" pan="0" len="12"/>
          <note pos="180" key="59" vol="191" pan="0" len="12"/>
          <note pos="192" key="59" vol="191" pan="0" len="24"/>
          <note pos="204" key="0" vol="191" pan="0" len="24"/>
          <note pos="216" key="62" vol="191" pan="0" len="24"/>
          <note pos="240" key="64" vol="191" pan="0" len="24"/>
          <note pos="264" key="67" vol="191" pan="0" len="24"/>
          <note pos="288" key="66" vol="191" pan="0" len="24"/>
          <note pos="312" key="64" vol="191" pan="0" len="24"/>
          <note pos="336" key="62" vol="191" pan="0" len="24"/>
          <note pos="360" key="64" vol="191" pan="0" len="24"/>
        </pattern>
        <pattern type="1" steps="16" pos="5376" name="lgtH2" muted="0">
          <note pos="0" key="59" vol="191" pan="0" len="24"/>
          <note pos="0" key="0" vol="191" pan="0" len="24"/>
          <note pos="24" key="64" vol="191" pan="0" len="24"/>
          <note pos="48" key="62" vol="191" pan="0" len="24"/>
          <note pos="72" key="64" vol="191" pan="0" len="24"/>
          <note pos="96" key="59" vol="191" pan="0" len="24"/>
          <note pos="108" key="1" vol="191" pan="0" len="12"/>
          <note pos="120" key="59" vol="191" pan="0" len="12"/>
          <note pos="132" key="59" vol="191" pan="0" len="12"/>
          <note pos="144" key="59" vol="191" pan="0" len="12"/>
          <note pos="156" key="59" vol="191" pan="0" len="12"/>
          <note pos="168" key="59" vol="191" pan="0" len="12"/>
          <note pos="180" key="59" vol="191" pan="0" len="12"/>
          <note pos="192" key="59" vol="191" pan="0" len="24"/>
          <note pos="204" key="0" vol="191" pan="0" len="24"/>
          <note pos="216" key="62" vol="191" pan="0" len="24"/>
          <note pos="240" key="64" vol="191" pan="0" len="24"/>
          <note pos="264" key="71" vol="191" pan="0" len="24"/>
          <note pos="288" key="69" vol="191" pan="0" len="24"/>
          <note pos="312" key="67" vol="191" pan="0" len="24"/>
          <note pos="336" key="66" vol="191" pan="0" len="24"/>
          <note pos="360" key="64" vol="191" pan="0" len="24"/>
        </pattern>
        <pattern type="1" steps="16" pos="5760" name="lgtH2" muted="0">
          <note pos="0" key="59" vol="191" pan="0" len="24"/>
          <note pos="0" key="0" vol="191" pan="0" len="24"/>
          <note pos="24" key="64" vol="191" pan="0" len="24"/>
          <note pos="48" key="62" vol="191" pan="0" len="24"/>
          <note pos="72" key="64" vol="191" pan="0" len="24"/>
          <note pos="96" key="59" vol="191" pan="0" len="24"/>
          <note pos="108" key="1" vol="191" pan="0" len="12"/>
          <note pos="120" key="59" vol="191" pan="0" len="12"/>
          <note pos="132" key="59" vol="191" pan="0" len="12"/>
          <note pos="144" key="59" vol="191" pan="0" len="12"/>
          <note pos="156" key="59" vol="191" pan="0" len="12"/>
          <note pos="168" key="59" vol="191" pan="0" len="12"/>
          <note pos="180" key="59" vol="191" pan="0" len="12"/>
          <note pos="192" key="59" vol="191" pan="0" len="24"/>
          <note pos="204" key="0" vol="191" pan="0" len="24"/>
          <note pos="216" key="62" vol="191" pan="0" len="24"/>
          <note pos="240" key="64" vol="191" pan="0" len="24"/>
          <note pos="264" key="67" vol="191" pan="0" len="24"/>
          <note pos="288" key="66" vol="191" pan="0" len="24"/>
          <note pos="312" key="64" vol="191" pan="0" len="24"/>
          <note pos="336" key="62" vol="191" pan="0" len="24"/>
          <note pos="360" key="64" vol="191" pan="0" len="24"/>
        </pattern>
        <pattern type="1" steps="16" pos="6144" name="lgtH2" muted="0">
          <note pos="0" key="67" vol="197" pan="0" len="72"/>
          <note pos="0" key="0" vol="197" pan="0" len="48"/>
          <note pos="72" key="69" vol="197" pan="0" len="72"/>
          <note pos="144" key="67" vol="197" pan="0" len="48"/>
          <note pos="192" key="69" vol="197" pan="0" len="72"/>
          <note pos="264" key="76" vol="197" pan="0" len="72"/>
          <note pos="336" key="74" vol="197" pan="0" len="48"/>
        </pattern>
        <pattern type="1" steps="16" pos="6528" name="lgtH2" muted="0">
          <note pos="0" key="59" vol="191" pan="0" len="24"/>
          <note pos="0" key="0" vol="191" pan="0" len="24"/>
          <note pos="24" key="64" vol="191" pan="0" len="24"/>
          <note pos="48" key="62" vol="191" pan="0" len="24"/>
          <note pos="72" key="64" vol="191" pan="0" len="24"/>
          <note pos="96" key="59" vol="191" pan="0" len="24"/>
          <note pos="108" key="1" vol="191" pan="0" len="12"/>
          <note pos="120" key="59" vol="191" pan="0" len="12"/>
          <note pos="132" key="59" vol="191" pan="0" len="12"/>
          <note pos="144" key="59" vol="191" pan="0" len="12"/>
          <note pos="156" key="59" vol="191" pan="0" len="12"/>
          <note pos="168" key="59" vol="191" pan="0" len="12"/>
          <note pos="180" key="59" vol="191" pan="0" len="12"/>
          <note pos="192" key="59" vol="191" pan="0" len="24"/>
          <note pos="204" key="0" vol="191" pan="0" len="24"/>
          <note pos="216" key="62" vol="191" pan="0" len="24"/>
          <note pos="240" key="64" vol="191" pan="0" len="24"/>
          <note pos="264" key="67" vol="191" pan="0" len="24"/>
          <note pos="288" key="66" vol="191" pan="0" len="24"/>
          <note pos="312" key="64" vol="191" pan="0" len="24"/>
          <note pos="336" key="62" vol="191" pan="0" len="24"/>
          <note pos="360" key="64" vol="191" pan="0" len="24"/>
        </pattern>
        <pattern type="1" steps="16" pos="6912" name="lgtH2" muted="0">
          <note pos="0" key="59" vol="191" pan="0" len="24"/>
          <note pos="0" key="0" vol="191" pan="0" len="24"/>
          <note pos="24" key="64" vol="191" pan="0" len="24"/>
          <note pos="48" key="62" vol="191" pan="0" len="24"/>
          <note pos="72" key="64" vol="191" pan="0" len="24"/>
          <note pos="96" key="59" vol="191" pan="0" len="24"/>
          <note pos="108" key="1" vol="191" pan="0" len="12"/>
          <note pos="120" key="59" vol="191" pan="0" len="12"/>
          <note pos="132" key="59" vol="191" pan="0" len="12"/>
          <note pos="144" key="59" vol="191" pan="0" len="12"/>
          <note pos="156" key="59" vol="191" pan="0" len="12"/>
          <note pos="168" key="59" vol="191" pan="0" len="12"/>
          <note pos="180" key="59" vol="191" pan="0" len="12"/>
          <note pos="192" key="59" vol="191" pan="0" len="24"/>
          <note pos="204" key="0" vol="191" pan="0" len="24"/>
          <note pos="216" key="62" vol="191" pan="0" len="24"/>
          <note pos="240" key="64" vol="191" pan="0" len="24"/>
          <note pos="264" key="71" vol="191" pan="0" len="24"/>
          <note pos="288" key="69" vol="191" pan="0" len="24"/>
          <note pos="312" key="67" vol="191" pan="0" len="24"/>
          <note pos="336" key="66" vol="191" pan="0" len="24"/>
          <note pos="360" key="64" vol="191" pan="0" len="24"/>
        </pattern>
        <pattern type="1" steps="16" pos="7296" name="lgtH2" muted="0">
          <note pos="0" key="59" vol="191" pan="0" len="24"/>
          <note pos="0" key="0" vol="191" pan="0" len="24"/>
          <note pos="24" key="64" vol="191" pan="0" len="24"/>
          <note pos="48" key="62" vol="191" pan="0" len="24"/>
          <note pos="72" key="64" vol="191" pan="0" len="24"/>
          <note pos="96" key="59" vol="191" pan="0" len="24"/>
          <note pos="108" key="1" vol="191" pan="0" len="12"/>
          <note pos="120" key="59" vol="191" pan="0" len="12"/>
          <note pos="132" key="59" vol="191" pan="0" len="12"/>
          <note pos="144" key="59" vol="191" pan="0" len="12"/>
          <note pos="156" key="59" vol="191" pan="0" len="12"/>
          <note pos="168" key="59" vol="191" pan="0" len="12"/>
          <note pos="180" key="59" vol="191" pan="0" len="12"/>
          <note pos="192" key="59" vol="191" pan="0" len="24"/>
          <note pos="204" key="0" vol="191" pan="0" len="24"/>
          <note pos="216" key="62" vol="191" pan="0" len="24"/>
          <note pos="240" key="64" vol="191" pan="0" len="24"/>
          <note pos="264" key="67" vol="191" pan="0" len="24"/>
          <note pos="288" key="66" vol="191" pan="0" len="24"/>
          <note pos="312" key="64" vol="191" pan="0" len="24"/>
          <note pos="336" key="62" vol="191" pan="0" len="24"/>
          <note pos="360" key="64" vol="191" pan="0" len="24"/>
        </pattern>
        <pattern type="1" steps="16" pos="7680" name="lgtH2" muted="0">
          <note pos="0" key="67" vol="197" pan="0" len="72"/>
          <note pos="0" key="0" vol="197" pan="0" len="48"/>
          <note pos="72" key="69" vol="197" pan="0" len="72"/>
          <note pos="144" key="67" vol="197" pan="0" len="48"/>
          <note pos="192" key="66" vol="197" pan="0" len="24"/>
          <note pos="204" key="1" vol="197" pan="0" len="48"/>
          <note pos="216" key="64" vol="197" pan="0" len="24"/>
          <note pos="240" key="62" vol="197" pan="0" len="24"/>
          <note pos="252" key="0" vol="197" pan="0" len="48"/>
          <note pos="264" key="64" vol="197" pan="0" len="48"/>
          <note pos="312" key="62" vol="197" pan="0" len="24"/>
          <note pos="336" key="64" vol="197" pan="0" len="24"/>
          <note pos="360" key="66" vol="197" pan="0" len="24"/>
        </pattern>
        <pattern type="1" steps="16" pos="8064" name="lgtH2" muted="0">
          <note pos="0" key="59" vol="191" pan="0" len="24"/>
          <note pos="0" key="0" vol="191" pan="0" len="24"/>
          <note pos="24" key="64" vol="191" pan="0" len="24"/>
          <note pos="48" key="62" vol="191" pan="0" len="24"/>
          <note pos="72" key="64" vol="191" pan="0" len="24"/>
          <note pos="96" key="59" vol="191" pan="0" len="24"/>
          <note pos="108" key="1" vol="191" pan="0" len="12"/>
          <note pos="120" key="59" vol="191" pan="0" len="12"/>
          <note pos="132" key="59" vol="191" pan="0" len="12"/>
          <note pos="144" key="59" vol="191" pan="0" len="12"/>
          <note pos="156" key="59" vol="191" pan="0" len="12"/>
          <note pos="168" key="59" vol="191" pan="0" len="12"/>
          <note pos="180" key="59" vol="191" pan="0" len="12"/>
          <note pos="192" key="59" vol="191" pan="0" len="24"/>
          <note pos="204" key="0" vol="191" pan="0" len="24"/>
          <note pos="216" key="62" vol="191" pan="0" len="24"/>
          <note pos="240" key="64" vol="191" pan="0" len="24"/>
          <note pos="264" key="67" vol="191" pan="0" len="24"/>
          <note pos="288" key="66" vol="191" pan="0" len="24"/>
          <note pos="312" key="64" vol="191" pan="0" len="24"/>
          <note pos="336" key="62" vol="191" pan="0" len="24"/>
          <note pos="360" key="64" vol="191" pan="0" len="24"/>
        </pattern>
        <pattern type="1" steps="16" pos="8448" name="lgtH2" muted="0">
          <note pos="0" key="59" vol="191" pan="0" len="24"/>
          <note pos="0" key="0" vol="191" pan="0" len="24"/>
          <note pos="24" key="64" vol="191" pan="0" len="24"/>
          <note pos="48" key="62" vol="191" pan="0" len="24"/>
          <note pos="72" key="64" vol="191" pan="0" len="24"/>
          <note pos="96" key="59" vol="191" pan="0" len="24"/>
          <note pos="108" key="1" vol="191" pan="0" len="12"/>
          <note pos="120" key="59" vol="191" pan="0" len="12"/>
          <note pos="132" key="59" vol="191" pan="0" len="12"/>
          <note pos="144" key="59" vol="191" pan="0" len="12"/>
          <note pos="156" key="59" vol="191" pan="0" len="12"/>
          <note pos="168" key="59" vol="191" pan="0" len="12"/>
          <note pos="180" key="59" vol="191" pan="0" len="12"/>
          <note pos="192" key="59" vol="191" pan="0" len="24"/>
          <note pos="204" key="0" vol="191" pan="0" len="24"/>
          <note pos="216" key="62" vol="191" pan="0" len="24"/>
          <note pos="240" key="64" vol="191" pan="0" len="24"/>
          <note pos="264" key="71" vol="191" pan="0" len="24"/>
          <note pos="288" key="69" vol="191" pan="0" len="24"/>
          <note pos="312" key="67" vol="191" pan="0" len="24"/>
          <note pos="336" key="66" vol="191" pan="0" len="24"/>
          <note pos="360" key="64" vol="191" pan="0" len="24"/>
        </pattern>
        <pattern type="1" steps="16" pos="8832" name="lgtH2" muted="0">
          <note pos="0" key="59" vol="191" pan="0" len="24"/>
          <note pos="0" key="0" vol="191" pan="0" len="24"/>
          <note pos="24" key="64" vol="191" pan="0" len="24"/>
          <note pos="48" key="62" vol="191" pan="0" len="24"/>
          <note pos="72" key="64" vol="191" pan="0" len="24"/>
          <note pos="96" key="59" vol="191" pan="0" len="24"/>
          <note pos="108" key="1" vol="191" pan="0" len="12"/>
          <note pos="120" key="59" vol="191" pan="0" len="12"/>
          <note pos="132" key="59" vol="191" pan="0" len="12"/>
          <note pos="144" key="59" vol="191" pan="0" len="12"/>
          <note pos="156" key="59" vol="191" pan="0" len="12"/>
          <note pos="168" key="59" vol="191" pan="0" len="12"/>
          <note pos="180" key="59" vol="191" pan="0" len="12"/>
          <note pos="192" key="59" vol="191" pan="0" len="24"/>
          <note pos="204" key="0" vol="191" pan="0" len="24"/>
          <note pos="216" key="62" vol="191" pan="0" len="24"/>
          <note pos="240" key="64" vol="191" pan="0" len="24"/>
          <note pos="264" key="67" vol="191" pan="0" len="24"/>
          <note pos="288" key="66" vol="191" pan="0" len="24"/>
          <note pos="312" key="64" vol="191" pan="0" len="24"/>
          <note pos="336" key="62" vol="191" pan="0" len="24"/>
          <note pos="360" key="64" vol="191" pan="0" len="24"/>
        </pattern>
        <pattern type="1" steps="16" pos="9216" name="lgtH2" muted="0">
          <note pos="0" key="67" vol="197" pan="0" len="72"/>
          <note pos="0" key="0" vol="197" pan="0" len="48"/>
          <note pos="72" key="69" vol="197" pan="0" len="72"/>
          <note pos="144" key="67" vol="197" pan="0" len="48"/>
          <note pos="192" key="69" vol="197" pan="0" len="72"/>
          <note pos="264" key="76" vol="197" pan="0" len="72"/>
          <note pos="336" key="74" vol="197" pan="0" len="48"/>
        </pattern>
        <pattern type="1" steps="16" pos="9600" name="lgtH2" muted="0">
          <note pos="0" key="64" vol="195" pan="0" len="72"/>
          <note pos="0" key="0" vol="195" pan="0" len="48"/>
          <note pos="72" key="64" vol="195" pan="0" len="72"/>
          <note pos="144" key="66" vol="195" pan="0" len="48"/>
          <note pos="192" key="67" vol="195" pan="0" len="48"/>
          <note pos="240" key="66" vol="195" pan="0" len="24"/>
          <note pos="264" key="64" vol="195" pan="0" len="72"/>
          <note pos="336" key="62" vol="195" pan="0" len="24"/>
          <note pos="360" key="64" vol="195" pan="0" len="24"/>
          <note pos="384" key="62" vol="195" pan="0" len="72"/>
          <note pos="456" key="59" vol="195" pan="0" len="216"/>
          <note pos="672" key="59" vol="195" pan="0" len="48"/>
          <note pos="720" key="62" vol="195" pan="0" len="48"/>
          <note pos="768" key="64" vol="195" pan="0" len="72"/>
          <note pos="840" key="64" vol="195" pan="0" len="72"/>
          <note pos="912" key="66" vol="195" pan="0" len="48"/>
          <note pos="960" key="67" vol="195" pan="0" len="24"/>
          <note pos="984" key="66" vol="195" pan="0" len="48"/>
          <note pos="1032" key="64" vol="195" pan="0" len="72"/>
          <note pos="1104" key="71" vol="195" pan="0" len="24"/>
          <note pos="1128" key="72" vol="195" pan="0" len="24"/>
          <note pos="1152" key="71" vol="195" pan="0" len="72"/>
          <note pos="1224" key="62" vol="195" pan="0" len="72"/>
          <note pos="1296" key="71" vol="195" pan="0" len="48"/>
          <note pos="1344" key="69" vol="195" pan="0" len="144"/>
          <note pos="1488" key="64" vol="195" pan="0" len="24"/>
          <note pos="1512" key="67" vol="195" pan="0" len="24"/>
          <note pos="1536" key="71" vol="195" pan="0" len="48"/>
          <note pos="1584" key="67" vol="195" pan="0" len="24"/>
          <note pos="1608" key="67" vol="195" pan="0" len="72"/>
          <note pos="1680" key="71" vol="195" pan="0" len="48"/>
          <note pos="1728" key="72" vol="195" pan="0" len="72"/>
          <note pos="1800" key="71" vol="195" pan="0" len="72"/>
          <note pos="1872" key="69" vol="195" pan="0" len="48"/>
          <note pos="1920" key="71" vol="195" pan="0" len="48"/>
          <note pos="1968" key="67" vol="195" pan="0" len="24"/>
          <note pos="1992" key="67" vol="195" pan="0" len="72"/>
          <note pos="2064" key="71" vol="195" pan="0" len="48"/>
          <note pos="2112" key="69" vol="195" pan="0" len="144"/>
          <note pos="2256" key="72" vol="104" pan="0" len="24"/>
          <note pos="2280" key="74" vol="104" pan="0" len="24"/>
        </pattern>
        <pattern type="1" steps="16" pos="11904" name="lgtH2" muted="0">
          <note pos="0" key="76" vol="104" pan="0" len="48"/>
          <note pos="48" key="74" vol="104" pan="0" len="48"/>
          <note pos="96" key="72" vol="104" pan="0" len="48"/>
          <note pos="144" key="79" vol="104" pan="0" len="48"/>
          <note pos="192" key="78" vol="104" pan="0" len="48"/>
          <note pos="240" key="76" vol="104" pan="0" len="48"/>
          <note pos="288" key="74" vol="104" pan="0" len="48"/>
          <note pos="336" key="71" vol="104" pan="0" len="48"/>
          <note pos="384" key="71" vol="104" pan="0" len="192"/>
          <note pos="576" key="71" vol="104" pan="0" len="192"/>
        </pattern>
      </track>
      <track type="0" name="ZynAddSubFX" solo="0" muted="0">
        <instrumenttrack pitch="0" usemasterpitch="1" vol="31.2" pan="0" pitchrange="1" basenote="57" fxch="15">
          <instrument name="zynaddsubfx">
            <zynaddsubfx rescenterfreq="64" filterfreq="64" forwardmidicc="1" portamento="0" modifiedcontrollers="" filterq="64" bandwidth="64" fmgain="127" resbandwidth="64">
              <ZynAddSubFX-data version-revision="1" ZynAddSubFX-author="Nasca Octavian Paul" version-major="2" version-minor="4">
                <INFORMATION>
                  <par_bool name="PADsynth_used" value="yes"/>
                </INFORMATION>
                <BASE_PARAMETERS>
                  <par name="max_midi_parts" value="16"/>
                  <par name="max_kit_items_per_instrument" value="16"/>
                  <par name="max_system_effects" value="4"/>
                  <par name="max_insertion_effects" value="8"/>
                  <par name="max_instrument_effects" value="3"/>
                  <par name="max_addsynth_voices" value="8"/>
                </BASE_PARAMETERS>
                <MASTER>
                  <par name="volume" value="80"/>
                  <par name="key_shift" value="64"/>
                  <par_bool name="nrpn_receive" value="yes"/>
                  <MICROTONAL>
                    <string name="name">12tET</string>
                    <string name="comment">Equal Temperament 12 notes per octave</string>
                    <par_bool name="invert_up_down" value="no"/>
                    <par name="invert_up_down_center" value="60"/>
                    <par_bool name="enabled" value="no"/>
                    <par name="global_fine_detune" value="64"/>
                    <par name="a_note" value="69"/>
                    <par_real name="a_freq" value="440.000000"/>
                  </MICROTONAL>
                  <PART id="0">
                    <par_bool name="enabled" value="yes"/>
                    <par name="volume" value="96"/>
                    <par name="panning" value="64"/>
                    <par name="min_key" value="0"/>
                    <par name="max_key" value="127"/>
                    <par name="key_shift" value="64"/>
                    <par name="rcv_chn" value="0"/>
                    <par name="velocity_sensing" value="64"/>
                    <par name="velocity_offset" value="64"/>
                    <par_bool name="note_on" value="yes"/>
                    <par_bool name="poly_mode" value="yes"/>
                    <par name="legato_mode" value="0"/>
                    <par name="key_limit" value="15"/>
                    <INSTRUMENT>
                      <INFO>
                        <string name="name">Full Strings</string>
                        <string name="author">Will Godfrey
GPL V 2 or later</string>
                        <string name="comments">Developed from Paul's Strings Pad5</string>
                        <par name="type" value="12"/>
                      </INFO>
                      <INSTRUMENT_KIT>
                        <par name="kit_mode" value="1"/>
                        <par_bool name="drum_mode" value="no"/>
                        <INSTRUMENT_KIT_ITEM id="0">
                          <par_bool name="enabled" value="yes"/>
                          <string name="name"/>
                          <par_bool name="muted" value="no"/>
                          <par name="min_key" value="0"/>
                          <par name="max_key" value="127"/>
                          <par name="send_to_instrument_effect" value="0"/>
                          <par_bool name="add_enabled" value="no"/>
                          <par_bool name="sub_enabled" value="no"/>
                          <par_bool name="pad_enabled" value="yes"/>
                          <PAD_SYNTH_PARAMETERS>
                            <par_bool name="stereo" value="yes"/>
                            <par name="mode" value="0"/>
                            <par name="bandwidth" value="620"/>
                            <par name="bandwidth_scale" value="0"/>
                            <HARMONIC_PROFILE>
                              <par name="base_type" value="0"/>
                              <par name="base_par1" value="99"/>
                              <par name="frequency_multiplier" value="8"/>
                              <par name="modulator_par1" value="0"/>
                              <par name="modulator_frequency" value="55"/>
                              <par name="width" value="127"/>
                              <par name="amplitude_multiplier_type" value="0"/>
                              <par name="amplitude_multiplier_mode" value="2"/>
                              <par name="amplitude_multiplier_par1" value="80"/>
                              <par name="amplitude_multiplier_par2" value="4"/>
                              <par_bool name="autoscale" value="yes"/>
                              <par name="one_half" value="0"/>
                            </HARMONIC_PROFILE>
                            <OSCIL>
                              <par name="harmonic_mag_type" value="0"/>
                              <par name="base_function" value="4"/>
                              <par name="base_function_par" value="51"/>
                              <par name="base_function_modulation" value="0"/>
                              <par name="base_function_modulation_par1" value="64"/>
                              <par name="base_function_modulation_par2" value="64"/>
                              <par name="base_function_modulation_par3" value="32"/>
                              <par name="modulation" value="0"/>
                              <par name="modulation_par1" value="64"/>
                              <par name="modulation_par2" value="64"/>
                              <par name="modulation_par3" value="32"/>
                              <par name="wave_shaping" value="64"/>
                              <par name="wave_shaping_function" value="0"/>
                              <par name="filter_type" value="0"/>
                              <par name="filter_par1" value="37"/>
                              <par name="filter_par2" value="64"/>
                              <par name="filter_before_wave_shaping" value="0"/>
                              <par name="spectrum_adjust_type" value="0"/>
                              <par name="spectrum_adjust_par" value="64"/>
                              <par name="rand" value="64"/>
                              <par name="amp_rand_type" value="0"/>
                              <par name="amp_rand_power" value="64"/>
                              <par name="harmonic_shift" value="0"/>
                              <par_bool name="harmonic_shift_first" value="no"/>
                              <par name="adaptive_harmonics" value="0"/>
                              <par name="adaptive_harmonics_base_frequency" value="128"/>
                              <par name="adaptive_harmonics_power" value="100"/>
                              <HARMONICS>
                                <HARMONIC id="1">
                                  <par name="mag" value="83"/>
                                  <par name="phase" value="64"/>
                                </HARMONIC>
                                <HARMONIC id="2">
                                  <par name="mag" value="127"/>
                                  <par name="phase" value="64"/>
                                </HARMONIC>
                              </HARMONICS>
                            </OSCIL>
                            <RESONANCE>
                              <par_bool name="enabled" value="no"/>
                            </RESONANCE>
                            <HARMONIC_POSITION>
                              <par name="type" value="0"/>
                              <par name="parameter1" value="255"/>
                              <par name="parameter2" value="64"/>
                              <par name="parameter3" value="0"/>
                            </HARMONIC_POSITION>
                            <SAMPLE_QUALITY>
                              <par name="samplesize" value="4"/>
                              <par name="basenote" value="4"/>
                              <par name="octaves" value="5"/>
                              <par name="samples_per_octave" value="2"/>
                            </SAMPLE_QUALITY>
                            <AMPLITUDE_PARAMETERS>
                              <par name="volume" value="94"/>
                              <par name="panning" value="67"/>
                              <par name="velocity_sensing" value="70"/>
                              <par name="punch_strength" value="0"/>
                              <par name="punch_time" value="60"/>
                              <par name="punch_stretch" value="64"/>
                              <par name="punch_velocity_sensing" value="72"/>
                              <AMPLITUDE_ENVELOPE>
                                <par_bool name="free_mode" value="no"/>
                                <par name="env_points" value="4"/>
                                <par name="env_sustain" value="2"/>
                                <par name="env_stretch" value="0"/>
                                <par_bool name="forced_release" value="no"/>
                                <par_bool name="linear_envelope" value="no"/>
                                <par name="A_dt" value="40"/>
                                <par name="D_dt" value="39"/>
                                <par name="R_dt" value="86"/>
                                <par name="A_val" value="64"/>
                                <par name="D_val" value="64"/>
                                <par name="S_val" value="127"/>
                                <par name="R_val" value="64"/>
                              </AMPLITUDE_ENVELOPE>
                              <AMPLITUDE_LFO>
                                <par_real name="freq" value="0.629921"/>
                                <par name="intensity" value="0"/>
                                <par name="start_phase" value="64"/>
                                <par name="lfo_type" value="0"/>
                                <par name="randomness_amplitude" value="0"/>
                                <par name="randomness_frequency" value="0"/>
                                <par name="delay" value="0"/>
                                <par name="stretch" value="64"/>
                                <par_bool name="continous" value="no"/>
                              </AMPLITUDE_LFO>
                            </AMPLITUDE_PARAMETERS>
                            <FREQUENCY_PARAMETERS>
                              <par name="fixed_freq" value="0"/>
                              <par name="fixed_freq_et" value="0"/>
                              <par name="detune" value="8192"/>
                              <par name="coarse_detune" value="15360"/>
                              <par name="detune_type" value="1"/>
                              <FREQUENCY_ENVELOPE>
                                <par_bool name="free_mode" value="no"/>
                                <par name="env_points" value="3"/>
                                <par name="env_sustain" value="1"/>
                                <par name="env_stretch" value="0"/>
                                <par_bool name="forced_release" value="no"/>
                                <par_bool name="linear_envelope" value="no"/>
                                <par name="A_dt" value="50"/>
                                <par name="D_dt" value="10"/>
                                <par name="R_dt" value="60"/>
                                <par name="A_val" value="64"/>
                                <par name="D_val" value="64"/>
                                <par name="S_val" value="64"/>
                                <par name="R_val" value="64"/>
                              </FREQUENCY_ENVELOPE>
                              <FREQUENCY_LFO>
                                <par_real name="freq" value="0.621181"/>
                                <par name="intensity" value="0"/>
                                <par name="start_phase" value="64"/>
                                <par name="lfo_type" value="0"/>
                                <par name="randomness_amplitude" value="0"/>
                                <par name="randomness_frequency" value="0"/>
                                <par name="delay" value="0"/>
                                <par name="stretch" value="64"/>
                                <par_bool name="continous" value="no"/>
                              </FREQUENCY_LFO>
                            </FREQUENCY_PARAMETERS>
                            <FILTER_PARAMETERS>
                              <par name="velocity_sensing_amplitude" value="25"/>
                              <par name="velocity_sensing" value="64"/>
                              <FILTER>
                                <par name="category" value="0"/>
                                <par name="type" value="2"/>
                                <par name="freq" value="99"/>
                                <par name="q" value="28"/>
                                <par name="stages" value="1"/>
                                <par name="freq_track" value="97"/>
                                <par name="gain" value="64"/>
                              </FILTER>
                              <FILTER_ENVELOPE>
                                <par_bool name="free_mode" value="no"/>
                                <par name="env_points" value="4"/>
                                <par name="env_sustain" value="2"/>
                                <par name="env_stretch" value="0"/>
                                <par_bool name="forced_release" value="yes"/>
                                <par_bool name="linear_envelope" value="no"/>
                                <par name="A_dt" value="17"/>
                                <par name="D_dt" value="70"/>
                                <par name="R_dt" value="98"/>
                                <par name="A_val" value="37"/>
                                <par name="D_val" value="64"/>
                                <par name="S_val" value="64"/>
                                <par name="R_val" value="43"/>
                              </FILTER_ENVELOPE>
                              <FILTER_LFO>
                                <par_real name="freq" value="0.629921"/>
                                <par name="intensity" value="0"/>
                                <par name="start_phase" value="64"/>
                                <par name="lfo_type" value="0"/>
                                <par name="randomness_amplitude" value="0"/>
                                <par name="randomness_frequency" value="0"/>
                                <par name="delay" value="0"/>
                                <par name="stretch" value="64"/>
                                <par_bool name="continous" value="no"/>
                              </FILTER_LFO>
                            </FILTER_PARAMETERS>
                          </PAD_SYNTH_PARAMETERS>
                        </INSTRUMENT_KIT_ITEM>
                        <INSTRUMENT_KIT_ITEM id="1">
                          <par_bool name="enabled" value="no"/>
                        </INSTRUMENT_KIT_ITEM>
                        <INSTRUMENT_KIT_ITEM id="2">
                          <par_bool name="enabled" value="no"/>
                        </INSTRUMENT_KIT_ITEM>
                        <INSTRUMENT_KIT_ITEM id="3">
                          <par_bool name="enabled" value="no"/>
                        </INSTRUMENT_KIT_ITEM>
                        <INSTRUMENT_KIT_ITEM id="4">
                          <par_bool name="enabled" value="no"/>
                        </INSTRUMENT_KIT_ITEM>
                        <INSTRUMENT_KIT_ITEM id="5">
                          <par_bool name="enabled" value="no"/>
                        </INSTRUMENT_KIT_ITEM>
                        <INSTRUMENT_KIT_ITEM id="6">
                          <par_bool name="enabled" value="no"/>
                        </INSTRUMENT_KIT_ITEM>
                        <INSTRUMENT_KIT_ITEM id="7">
                          <par_bool name="enabled" value="no"/>
                        </INSTRUMENT_KIT_ITEM>
                        <INSTRUMENT_KIT_ITEM id="8">
                          <par_bool name="enabled" value="no"/>
                        </INSTRUMENT_KIT_ITEM>
                        <INSTRUMENT_KIT_ITEM id="9">
                          <par_bool name="enabled" value="no"/>
                        </INSTRUMENT_KIT_ITEM>
                        <INSTRUMENT_KIT_ITEM id="10">
                          <par_bool name="enabled" value="no"/>
                        </INSTRUMENT_KIT_ITEM>
                        <INSTRUMENT_KIT_ITEM id="11">
                          <par_bool name="enabled" value="no"/>
                        </INSTRUMENT_KIT_ITEM>
                        <INSTRUMENT_KIT_ITEM id="12">
                          <par_bool name="enabled" value="no"/>
                        </INSTRUMENT_KIT_ITEM>
                        <INSTRUMENT_KIT_ITEM id="13">
                          <par_bool name="enabled" value="no"/>
                        </INSTRUMENT_KIT_ITEM>
                        <INSTRUMENT_KIT_ITEM id="14">
                          <par_bool name="enabled" value="no"/>
                        </INSTRUMENT_KIT_ITEM>
                        <INSTRUMENT_KIT_ITEM id="15">
                          <par_bool name="enabled" value="no"/>
                        </INSTRUMENT_KIT_ITEM>
                      </INSTRUMENT_KIT>
                      <INSTRUMENT_EFFECTS>
                        <INSTRUMENT_EFFECT id="0">
                          <EFFECT>
                            <par name="type" value="3"/>
                            <par name="preset" value="0"/>
                            <EFFECT_PARAMETERS>
                              <par_no id="0">
                                <par name="par" value="64"/>
                              </par_no>
                              <par_no id="1">
                                <par name="par" value="64"/>
                              </par_no>
                              <par_no id="2">
                                <par name="par" value="50"/>
                              </par_no>
                              <par_no id="5">
                                <par name="par" value="90"/>
                              </par_no>
                              <par_no id="6">
                                <par name="par" value="40"/>
                              </par_no>
                              <par_no id="7">
                                <par name="par" value="85"/>
                              </par_no>
                              <par_no id="8">
                                <par name="par" value="67"/>
                              </par_no>
                              <par_no id="9">
                                <par name="par" value="119"/>
                              </par_no>
                            </EFFECT_PARAMETERS>
                          </EFFECT>
                          <par name="route" value="0"/>
                          <par_bool name="bypass" value="no"/>
                        </INSTRUMENT_EFFECT>
                        <INSTRUMENT_EFFECT id="1">
                          <EFFECT>
                            <par name="type" value="1"/>
                            <par name="preset" value="0"/>
                            <EFFECT_PARAMETERS>
                              <par_no id="0">
                                <par name="par" value="40"/>
                              </par_no>
                              <par_no id="1">
                                <par name="par" value="64"/>
                              </par_no>
                              <par_no id="2">
                                <par name="par" value="63"/>
                              </par_no>
                              <par_no id="3">
                                <par name="par" value="24"/>
                              </par_no>
                              <par_no id="7">
                                <par name="par" value="85"/>
                              </par_no>
                              <par_no id="8">
                                <par name="par" value="5"/>
                              </par_no>
                              <par_no id="9">
                                <par name="par" value="83"/>
                              </par_no>
                              <par_no id="10">
                                <par name="par" value="1"/>
                              </par_no>
                              <par_no id="11">
                                <par name="par" value="64"/>
                              </par_no>
                            </EFFECT_PARAMETERS>
                          </EFFECT>
                          <par name="route" value="0"/>
                          <par_bool name="bypass" value="no"/>
                        </INSTRUMENT_EFFECT>
                        <INSTRUMENT_EFFECT id="2">
                          <EFFECT>
                            <par name="type" value="0"/>
                          </EFFECT>
                          <par name="route" value="0"/>
                          <par_bool name="bypass" value="no"/>
                        </INSTRUMENT_EFFECT>
                      </INSTRUMENT_EFFECTS>
                    </INSTRUMENT>
                    <CONTROLLER>
                      <par name="pitchwheel_bendrange" value="100"/>
                      <par_bool name="expression_receive" value="yes"/>
                      <par name="panning_depth" value="64"/>
                      <par name="filter_cutoff_depth" value="64"/>
                      <par name="filter_q_depth" value="64"/>
                      <par name="bandwidth_depth" value="64"/>
                      <par name="mod_wheel_depth" value="80"/>
                      <par_bool name="mod_wheel_exponential" value="no"/>
                      <par_bool name="fm_amp_receive" value="yes"/>
                      <par_bool name="volume_receive" value="yes"/>
                      <par_bool name="sustain_receive" value="yes"/>
                      <par_bool name="portamento_receive" value="yes"/>
                      <par name="portamento_time" value="64"/>
                      <par name="portamento_pitchthresh" value="3"/>
                      <par name="portamento_pitchthreshtype" value="1"/>
                      <par name="portamento_portamento" value="0"/>
                      <par name="portamento_updowntimestretch" value="64"/>
                      <par name="portamento_proportional" value="0"/>
                      <par name="portamento_proprate" value="80"/>
                      <par name="portamento_propdepth" value="90"/>
                      <par name="resonance_center_depth" value="64"/>
                      <par name="resonance_bandwidth_depth" value="64"/>
                    </CONTROLLER>
                  </PART>
                  <PART id="1">
                    <par_bool name="enabled" value="no"/>
                  </PART>
                  <PART id="2">
                    <par_bool name="enabled" value="no"/>
                  </PART>
                  <PART id="3">
                    <par_bool name="enabled" value="no"/>
                  </PART>
                  <PART id="4">
                    <par_bool name="enabled" value="no"/>
                  </PART>
                  <PART id="5">
                    <par_bool name="enabled" value="no"/>
                  </PART>
                  <PART id="6">
                    <par_bool name="enabled" value="no"/>
                  </PART>
                  <PART id="7">
                    <par_bool name="enabled" value="no"/>
                  </PART>
                  <PART id="8">
                    <par_bool name="enabled" value="no"/>
                  </PART>
                  <PART id="9">
                    <par_bool name="enabled" value="no"/>
                  </PART>
                  <PART id="10">
                    <par_bool name="enabled" value="no"/>
                  </PART>
                  <PART id="11">
                    <par_bool name="enabled" value="no"/>
                  </PART>
                  <PART id="12">
                    <par_bool name="enabled" value="no"/>
                  </PART>
                  <PART id="13">
                    <par_bool name="enabled" value="no"/>
                  </PART>
                  <PART id="14">
                    <par_bool name="enabled" value="no"/>
                  </PART>
                  <PART id="15">
                    <par_bool name="enabled" value="no"/>
                  </PART>
                  <SYSTEM_EFFECTS>
                    <SYSTEM_EFFECT id="0">
                      <EFFECT>
                        <par name="type" value="0"/>
                      </EFFECT>
                      <VOLUME id="0">
                        <par name="vol" value="0"/>
                      </VOLUME>
                      <VOLUME id="1">
                        <par name="vol" value="0"/>
                      </VOLUME>
                      <VOLUME id="2">
                        <par name="vol" value="0"/>
                      </VOLUME>
                      <VOLUME id="3">
                        <par name="vol" value="0"/>
                      </VOLUME>
                      <VOLUME id="4">
                        <par name="vol" value="0"/>
                      </VOLUME>
                      <VOLUME id="5">
                        <par name="vol" value="0"/>
                      </VOLUME>
                      <VOLUME id="6">
                        <par name="vol" value="0"/>
                      </VOLUME>
                      <VOLUME id="7">
                        <par name="vol" value="0"/>
                      </VOLUME>
                      <VOLUME id="8">
                        <par name="vol" value="0"/>
                      </VOLUME>
                      <VOLUME id="9">
                        <par name="vol" value="0"/>
                      </VOLUME>
                      <VOLUME id="10">
                        <par name="vol" value="0"/>
                      </VOLUME>
                      <VOLUME id="11">
                        <par name="vol" value="0"/>
                      </VOLUME>
                      <VOLUME id="12">
                        <par name="vol" value="0"/>
                      </VOLUME>
                      <VOLUME id="13">
                        <par name="vol" value="0"/>
                      </VOLUME>
                      <VOLUME id="14">
                        <par name="vol" value="0"/>
                      </VOLUME>
                      <VOLUME id="15">
                        <par name="vol" value="0"/>
                      </VOLUME>
                      <SENDTO id="1">
                        <par name="send_vol" value="0"/>
                      </SENDTO>
                      <SENDTO id="2">
                        <par name="send_vol" value="0"/>
                      </SENDTO>
                      <SENDTO id="3">
                        <par name="send_vol" value="0"/>
                      </SENDTO>
                    </SYSTEM_EFFECT>
                    <SYSTEM_EFFECT id="1">
                      <EFFECT>
                        <par name="type" value="0"/>
                      </EFFECT>
                      <VOLUME id="0">
                        <par name="vol" value="0"/>
                      </VOLUME>
                      <VOLUME id="1">
                        <par name="vol" value="0"/>
                      </VOLUME>
                      <VOLUME id="2">
                        <par name="vol" value="0"/>
                      </VOLUME>
                      <VOLUME id="3">
                        <par name="vol" value="0"/>
                      </VOLUME>
                      <VOLUME id="4">
                        <par name="vol" value="0"/>
                      </VOLUME>
                      <VOLUME id="5">
                        <par name="vol" value="0"/>
                      </VOLUME>
                      <VOLUME id="6">
                        <par name="vol" value="0"/>
                      </VOLUME>
                      <VOLUME id="7">
                        <par name="vol" value="0"/>
                      </VOLUME>
                      <VOLUME id="8">
                        <par name="vol" value="0"/>
                      </VOLUME>
                      <VOLUME id="9">
                        <par name="vol" value="0"/>
                      </VOLUME>
                      <VOLUME id="10">
                        <par name="vol" value="0"/>
                      </VOLUME>
                      <VOLUME id="11">
                        <par name="vol" value="0"/>
                      </VOLUME>
                      <VOLUME id="12">
                        <par name="vol" value="0"/>
                      </VOLUME>
                      <VOLUME id="13">
                        <par name="vol" value="0"/>
                      </VOLUME>
                      <VOLUME id="14">
                        <par name="vol" value="0"/>
                      </VOLUME>
                      <VOLUME id="15">
                        <par name="vol" value="0"/>
                      </VOLUME>
                      <SENDTO id="2">
                        <par name="send_vol" value="0"/>
                      </SENDTO>
                      <SENDTO id="3">
                        <par name="send_vol" value="0"/>
                      </SENDTO>
                    </SYSTEM_EFFECT>
                    <SYSTEM_EFFECT id="2">
                      <EFFECT>
                        <par name="type" value="0"/>
                      </EFFECT>
                      <VOLUME id="0">
                        <par name="vol" value="0"/>
                      </VOLUME>
                      <VOLUME id="1">
                        <par name="vol" value="0"/>
                      </VOLUME>
                      <VOLUME id="2">
                        <par name="vol" value="0"/>
                      </VOLUME>
                      <VOLUME id="3">
                        <par name="vol" value="0"/>
                      </VOLUME>
                      <VOLUME id="4">
                        <par name="vol" value="0"/>
                      </VOLUME>
                      <VOLUME id="5">
                        <par name="vol" value="0"/>
                      </VOLUME>
                      <VOLUME id="6">
                        <par name="vol" value="0"/>
                      </VOLUME>
                      <VOLUME id="7">
                        <par name="vol" value="0"/>
                      </VOLUME>
                      <VOLUME id="8">
                        <par name="vol" value="0"/>
                      </VOLUME>
                      <VOLUME id="9">
                        <par name="vol" value="0"/>
                      </VOLUME>
                      <VOLUME id="10">
                        <par name="vol" value="0"/>
                      </VOLUME>
                      <VOLUME id="11">
                        <par name="vol" value="0"/>
                      </VOLUME>
                      <VOLUME id="12">
                        <par name="vol" value="0"/>
                      </VOLUME>
                      <VOLUME id="13">
                        <par name="vol" value="0"/>
                      </VOLUME>
                      <VOLUME id="14">
                        <par name="vol" value="0"/>
                      </VOLUME>
                      <VOLUME id="15">
                        <par name="vol" value="0"/>
                      </VOLUME>
                      <SENDTO id="3">
                        <par name="send_vol" value="0"/>
                      </SENDTO>
                    </SYSTEM_EFFECT>
                    <SYSTEM_EFFECT id="3">
                      <EFFECT>
                        <par name="type" value="0"/>
                      </EFFECT>
                      <VOLUME id="0">
                        <par name="vol" value="0"/>
                      </VOLUME>
                      <VOLUME id="1">
                        <par name="vol" value="0"/>
                      </VOLUME>
                      <VOLUME id="2">
                        <par name="vol" value="0"/>
                      </VOLUME>
                      <VOLUME id="3">
                        <par name="vol" value="0"/>
                      </VOLUME>
                      <VOLUME id="4">
                        <par name="vol" value="0"/>
                      </VOLUME>
                      <VOLUME id="5">
                        <par name="vol" value="0"/>
                      </VOLUME>
                      <VOLUME id="6">
                        <par name="vol" value="0"/>
                      </VOLUME>
                      <VOLUME id="7">
                        <par name="vol" value="0"/>
                      </VOLUME>
                      <VOLUME id="8">
                        <par name="vol" value="0"/>
                      </VOLUME>
                      <VOLUME id="9">
                        <par name="vol" value="0"/>
                      </VOLUME>
                      <VOLUME id="10">
                        <par name="vol" value="0"/>
                      </VOLUME>
                      <VOLUME id="11">
                        <par name="vol" value="0"/>
                      </VOLUME>
                      <VOLUME id="12">
                        <par name="vol" value="0"/>
                      </VOLUME>
                      <VOLUME id="13">
                        <par name="vol" value="0"/>
                      </VOLUME>
                      <VOLUME id="14">
                        <par name="vol" value="0"/>
                      </VOLUME>
                      <VOLUME id="15">
                        <par name="vol" value="0"/>
                      </VOLUME>
                    </SYSTEM_EFFECT>
                  </SYSTEM_EFFECTS>
                  <INSERTION_EFFECTS>
                    <INSERTION_EFFECT id="0">
                      <par name="part" value="-1"/>
                      <EFFECT>
                        <par name="type" value="0"/>
                      </EFFECT>
                    </INSERTION_EFFECT>
                    <INSERTION_EFFECT id="1">
                      <par name="part" value="-1"/>
                      <EFFECT>
                        <par name="type" value="0"/>
                      </EFFECT>
                    </INSERTION_EFFECT>
                    <INSERTION_EFFECT id="2">
                      <par name="part" value="-1"/>
                      <EFFECT>
                        <par name="type" value="0"/>
                      </EFFECT>
                    </INSERTION_EFFECT>
                    <INSERTION_EFFECT id="3">
                      <par name="part" value="-1"/>
                      <EFFECT>
                        <par name="type" value="0"/>
                      </EFFECT>
                    </INSERTION_EFFECT>
                    <INSERTION_EFFECT id="4">
                      <par name="part" value="-1"/>
                      <EFFECT>
                        <par name="type" value="0"/>
                      </EFFECT>
                    </INSERTION_EFFECT>
                    <INSERTION_EFFECT id="5">
                      <par name="part" value="-1"/>
                      <EFFECT>
                        <par name="type" value="0"/>
                      </EFFECT>
                    </INSERTION_EFFECT>
                    <INSERTION_EFFECT id="6">
                      <par name="part" value="-1"/>
                      <EFFECT>
                        <par name="type" value="0"/>
                      </EFFECT>
                    </INSERTION_EFFECT>
                    <INSERTION_EFFECT id="7">
                      <par name="part" value="-1"/>
                      <EFFECT>
                        <par name="type" value="0"/>
                      </EFFECT>
                    </INSERTION_EFFECT>
                  </INSERTION_EFFECTS>
                </MASTER>
              </ZynAddSubFX-data>
            </zynaddsubfx>
          </instrument>
          <eldata fwet="0" fres="0.5" fcut="14000" ftype="0">
            <elvol ctlenvamt="0" pdel="0" dec="0.5" lspd_denominator="4" att="0" lamt="0" sustain="0.5" hold="0.5" lshp="0" rel="0.1" x100="0" lspd_syncmode="0" userwavefile="" amt="0" lspd="0.1" lspd_numerator="4" latt="0" lpdel="0"/>
            <elcut ctlenvamt="0" pdel="0" dec="0.5" lspd_denominator="4" att="0" lamt="0" sustain="0.5" hold="0.5" lshp="0" rel="0.1" x100="0" lspd_syncmode="0" userwavefile="" amt="0" lspd="0.1" lspd_numerator="4" latt="0" lpdel="0"/>
            <elres ctlenvamt="0" pdel="0" dec="0.5" lspd_denominator="4" att="0" lamt="0" sustain="0.5" hold="0.5" lshp="0" rel="0.1" x100="0" lspd_syncmode="0" userwavefile="" amt="0" lspd="0.1" lspd_numerator="4" latt="0" lpdel="0"/>
          </eldata>
          <chordcreator chordrange="1" chord="0" chord-enabled="0"/>
          <arpeggiator arprange="1" arptime_syncmode="0" arptime_denominator="4" arp-enabled="0" arpmiss="0" arpmode="0" arpgate="100" arpskip="0" arptime_numerator="4" arptime="200" arpdir="0" arpcycle="0" arp="0"/>
          <midiport writable="0" basevelocity="63" fixedoutputvelocity="-1" outputchannel="1" fixedoutputnote="-1" outputprogram="1" inputcontroller="0" inputchannel="0" outputcontroller="0" readable="0" fixedinputvelocity="-1"/>
          <fxchain numofeffects="0" enabled="0"/>
        </instrumenttrack>
        <pattern type="1" steps="16" pos="0" name="ZynAddSubFX" muted="0">
          <note pos="0" key="83" vol="182" pan="0" len="192"/>
          <note pos="0" key="79" vol="182" pan="0" len="192"/>
          <note pos="0" key="74" vol="182" pan="0" len="192"/>
          <note pos="192" key="81" vol="182" pan="0" len="192"/>
          <note pos="192" key="78" vol="182" pan="0" len="192"/>
          <note pos="192" key="74" vol="182" pan="0" len="192"/>
          <note pos="384" key="79" vol="182" pan="0" len="192"/>
          <note pos="384" key="76" vol="182" pan="0" len="192"/>
          <note pos="384" key="72" vol="182" pan="0" len="192"/>
          <note pos="576" key="83" vol="182" pan="0" len="192"/>
          <note pos="576" key="79" vol="182" pan="0" len="192"/>
          <note pos="576" key="74" vol="182" pan="0" len="192"/>
          <note pos="768" key="83" vol="182" pan="0" len="192"/>
          <note pos="768" key="79" vol="182" pan="0" len="192"/>
          <note pos="768" key="76" vol="182" pan="0" len="192"/>
          <note pos="960" key="81" vol="182" pan="0" len="192"/>
          <note pos="960" key="78" vol="182" pan="0" len="192"/>
          <note pos="960" key="74" vol="182" pan="0" len="192"/>
          <note pos="1152" key="79" vol="180" pan="0" len="384"/>
          <note pos="1152" key="76" vol="180" pan="0" len="384"/>
          <note pos="1152" key="72" vol="180" pan="0" len="384"/>
        </pattern>
        <pattern type="1" steps="16" pos="1536" name="ZynAddSubFX" muted="0">
          <note pos="0" key="83" vol="197" pan="0" len="192"/>
          <note pos="0" key="79" vol="197" pan="0" len="192"/>
          <note pos="0" key="74" vol="197" pan="0" len="192"/>
          <note pos="192" key="81" vol="197" pan="0" len="192"/>
          <note pos="192" key="78" vol="197" pan="0" len="192"/>
          <note pos="192" key="74" vol="197" pan="0" len="192"/>
          <note pos="384" key="79" vol="197" pan="0" len="192"/>
          <note pos="384" key="76" vol="197" pan="0" len="192"/>
          <note pos="384" key="72" vol="197" pan="0" len="192"/>
          <note pos="576" key="83" vol="197" pan="0" len="192"/>
          <note pos="576" key="79" vol="197" pan="0" len="192"/>
          <note pos="576" key="74" vol="197" pan="0" len="192"/>
          <note pos="768" key="83" vol="197" pan="0" len="192"/>
          <note pos="768" key="79" vol="197" pan="0" len="192"/>
          <note pos="768" key="76" vol="197" pan="0" len="192"/>
          <note pos="960" key="81" vol="197" pan="0" len="192"/>
          <note pos="960" key="78" vol="197" pan="0" len="192"/>
          <note pos="960" key="74" vol="197" pan="0" len="192"/>
          <note pos="1152" key="79" vol="178" pan="0" len="768"/>
          <note pos="1152" key="76" vol="178" pan="0" len="768"/>
          <note pos="1152" key="72" vol="178" pan="0" len="768"/>
          <note pos="1536" key="84" vol="178" pan="0" len="384"/>
        </pattern>
        <pattern type="1" steps="16" pos="9600" name="ZynAddSubFX" muted="0">
          <note pos="0" key="76" vol="193" pan="0" len="192"/>
          <note pos="0" key="71" vol="193" pan="0" len="192"/>
          <note pos="0" key="67" vol="193" pan="0" len="192"/>
          <note pos="192" key="76" vol="193" pan="0" len="192"/>
          <note pos="192" key="72" vol="193" pan="0" len="192"/>
          <note pos="192" key="67" vol="193" pan="0" len="192"/>
          <note pos="384" key="74" vol="193" pan="0" len="384"/>
          <note pos="384" key="71" vol="193" pan="0" len="384"/>
          <note pos="384" key="67" vol="193" pan="0" len="384"/>
          <note pos="768" key="76" vol="193" pan="0" len="192"/>
          <note pos="768" key="71" vol="193" pan="0" len="192"/>
          <note pos="768" key="67" vol="193" pan="0" len="192"/>
          <note pos="960" key="76" vol="193" pan="0" len="192"/>
          <note pos="960" key="72" vol="193" pan="0" len="192"/>
          <note pos="960" key="67" vol="193" pan="0" len="192"/>
          <note pos="1152" key="79" vol="193" pan="0" len="192"/>
          <note pos="1152" key="74" vol="193" pan="0" len="192"/>
          <note pos="1152" key="71" vol="193" pan="0" len="192"/>
          <note pos="1344" key="81" vol="193" pan="0" len="192"/>
          <note pos="1344" key="78" vol="193" pan="0" len="192"/>
          <note pos="1344" key="74" vol="193" pan="0" len="192"/>
          <note pos="1536" key="83" vol="193" pan="0" len="192"/>
          <note pos="1536" key="79" vol="193" pan="0" len="192"/>
          <note pos="1536" key="76" vol="193" pan="0" len="192"/>
          <note pos="1728" key="84" vol="193" pan="0" len="192"/>
          <note pos="1728" key="79" vol="193" pan="0" len="192"/>
          <note pos="1728" key="76" vol="193" pan="0" len="192"/>
          <note pos="1920" key="83" vol="193" pan="0" len="192"/>
          <note pos="1920" key="79" vol="193" pan="0" len="192"/>
          <note pos="1920" key="74" vol="193" pan="0" len="192"/>
          <note pos="2112" key="81" vol="193" pan="0" len="192"/>
          <note pos="2112" key="78" vol="193" pan="0" len="192"/>
          <note pos="2112" key="74" vol="193" pan="0" len="192"/>
          <note pos="2304" key="84" vol="193" pan="0" len="192"/>
          <note pos="2304" key="79" vol="193" pan="0" len="192"/>
          <note pos="2304" key="76" vol="193" pan="0" len="192"/>
          <note pos="2496" key="86" vol="193" pan="0" len="192"/>
          <note pos="2496" key="81" vol="193" pan="0" len="192"/>
          <note pos="2496" key="78" vol="193" pan="0" len="192"/>
          <note pos="2688" key="88" vol="193" pan="0" len="192"/>
          <note pos="2688" key="83" vol="193" pan="0" len="192"/>
          <note pos="2688" key="79" vol="193" pan="0" len="192"/>
        </pattern>
        <pattern type="1" steps="16" pos="6528" name="ZynAddSubFX" muted="0">
          <note pos="0" key="67" vol="189" pan="0" len="384"/>
          <note pos="0" key="64" vol="189" pan="0" len="384"/>
          <note pos="0" key="59" vol="189" pan="0" len="384"/>
          <note pos="384" key="67" vol="189" pan="0" len="384"/>
          <note pos="384" key="64" vol="189" pan="0" len="384"/>
          <note pos="384" key="60" vol="189" pan="0" len="384"/>
          <note pos="768" key="69" vol="189" pan="0" len="384"/>
          <note pos="768" key="66" vol="189" pan="0" len="384"/>
          <note pos="768" key="62" vol="189" pan="0" len="384"/>
          <note pos="1152" key="71" vol="189" pan="0" len="192"/>
          <note pos="1152" key="67" vol="189" pan="0" len="192"/>
          <note pos="1152" key="62" vol="189" pan="0" len="192"/>
          <note pos="1344" key="69" vol="189" pan="0" len="72"/>
          <note pos="1344" key="66" vol="189" pan="0" len="72"/>
          <note pos="1344" key="62" vol="189" pan="0" len="72"/>
          <note pos="1416" key="72" vol="189" pan="0" len="120"/>
          <note pos="1416" key="67" vol="189" pan="0" len="120"/>
          <note pos="1416" key="64" vol="189" pan="0" len="120"/>
          <note pos="1536" key="71" vol="189" pan="0" len="384"/>
          <note pos="1536" key="67" vol="189" pan="0" len="384"/>
          <note pos="1536" key="64" vol="189" pan="0" len="384"/>
          <note pos="1920" key="72" vol="189" pan="0" len="384"/>
          <note pos="1920" key="67" vol="189" pan="0" len="384"/>
          <note pos="1920" key="64" vol="189" pan="0" len="384"/>
          <note pos="2304" key="74" vol="189" pan="0" len="384"/>
          <note pos="2304" key="69" vol="189" pan="0" len="384"/>
          <note pos="2304" key="66" vol="189" pan="0" len="384"/>
          <note pos="2688" key="74" vol="189" pan="0" len="192"/>
          <note pos="2688" key="71" vol="189" pan="0" len="192"/>
          <note pos="2688" key="67" vol="189" pan="0" len="192"/>
          <note pos="2880" key="78" vol="189" pan="0" len="192"/>
          <note pos="2880" key="74" vol="189" pan="0" len="192"/>
          <note pos="2880" key="69" vol="189" pan="0" len="192"/>
        </pattern>
      </track>
      <track type="0" name="Orchestra Soundfont 2 COMBO" solo="0" muted="0">
        <instrumenttrack pitch="0" usemasterpitch="1" vol="44" pan="0" pitchrange="1" basenote="57" fxch="0">
          <instrument name="sf2player">
            <sf2player reverbLevel="0.9" reverbDamping="0" bank="0" chorusSpeed="0.3" gain="1" chorusDepth="8" src="/home/pass/samples/soundfonts/Orchestra Soundfont 2 COMBO.sf2" reverbOn="0" chorusOn="0" reverbRoomSize="0.2" patch="52" reverbWidth="0.5" chorusNum="3" chorusLevel="2"/>
          </instrument>
          <eldata fwet="0" fres="0.5" fcut="14000" ftype="0">
            <elvol ctlenvamt="0" pdel="0" dec="0.5" lspd_denominator="4" att="0" lamt="0" sustain="0.5" hold="0.5" lshp="0" rel="0.1" x100="0" lspd_syncmode="0" userwavefile="" amt="0" lspd="0.1" lspd_numerator="4" latt="0" lpdel="0"/>
            <elcut ctlenvamt="0" pdel="0" dec="0.5" lspd_denominator="4" att="0" lamt="0" sustain="0.5" hold="0.5" lshp="0" rel="0.1" x100="0" lspd_syncmode="0" userwavefile="" amt="0" lspd="0.1" lspd_numerator="4" latt="0" lpdel="0"/>
            <elres ctlenvamt="0" pdel="0" dec="0.5" lspd_denominator="4" att="0" lamt="0" sustain="0.5" hold="0.5" lshp="0" rel="0.1" x100="0" lspd_syncmode="0" userwavefile="" amt="0" lspd="0.1" lspd_numerator="4" latt="0" lpdel="0"/>
          </eldata>
          <chordcreator chordrange="1" chord="0" chord-enabled="0"/>
          <arpeggiator arprange="1" arptime_syncmode="0" arptime_denominator="4" arp-enabled="0" arpmiss="0" arpmode="0" arpgate="100" arpskip="0" arptime_numerator="4" arptime="200" arpdir="0" arpcycle="0" arp="0"/>
          <midiport writable="0" basevelocity="63" fixedoutputvelocity="-1" outputchannel="1" fixedoutputnote="-1" outputprogram="1" inputcontroller="0" inputchannel="0" outputcontroller="0" readable="0" fixedinputvelocity="-1"/>
          <fxchain numofeffects="0" enabled="0"/>
        </instrumenttrack>
        <pattern type="1" steps="16" pos="9600" name="Orchestra Soundfont 2 COMBO" muted="0">
          <note pos="0" key="64" vol="193" pan="0" len="72"/>
          <note pos="0" key="52" vol="193" pan="0" len="72"/>
          <note pos="0" key="0" vol="195" pan="0" len="48"/>
          <note pos="72" key="64" vol="193" pan="0" len="72"/>
          <note pos="72" key="52" vol="193" pan="0" len="72"/>
          <note pos="144" key="66" vol="193" pan="0" len="48"/>
          <note pos="144" key="54" vol="193" pan="0" len="48"/>
          <note pos="192" key="67" vol="193" pan="0" len="48"/>
          <note pos="192" key="55" vol="193" pan="0" len="48"/>
          <note pos="240" key="66" vol="193" pan="0" len="24"/>
          <note pos="240" key="54" vol="193" pan="0" len="24"/>
          <note pos="264" key="64" vol="193" pan="0" len="72"/>
          <note pos="264" key="52" vol="193" pan="0" len="72"/>
          <note pos="336" key="62" vol="193" pan="0" len="24"/>
          <note pos="336" key="50" vol="193" pan="0" len="24"/>
          <note pos="360" key="64" vol="193" pan="0" len="24"/>
          <note pos="360" key="52" vol="193" pan="0" len="24"/>
          <note pos="384" key="62" vol="193" pan="0" len="72"/>
          <note pos="384" key="50" vol="193" pan="0" len="72"/>
          <note pos="456" key="59" vol="193" pan="0" len="216"/>
          <note pos="456" key="47" vol="193" pan="0" len="216"/>
          <note pos="672" key="59" vol="193" pan="0" len="48"/>
          <note pos="672" key="47" vol="193" pan="0" len="48"/>
          <note pos="720" key="62" vol="193" pan="0" len="48"/>
          <note pos="720" key="50" vol="193" pan="0" len="48"/>
          <note pos="768" key="64" vol="193" pan="0" len="72"/>
          <note pos="768" key="52" vol="193" pan="0" len="72"/>
          <note pos="840" key="64" vol="193" pan="0" len="72"/>
          <note pos="840" key="52" vol="193" pan="0" len="72"/>
          <note pos="912" key="66" vol="193" pan="0" len="48"/>
          <note pos="912" key="54" vol="193" pan="0" len="48"/>
          <note pos="960" key="67" vol="193" pan="0" len="24"/>
          <note pos="960" key="55" vol="193" pan="0" len="24"/>
          <note pos="984" key="66" vol="193" pan="0" len="48"/>
          <note pos="984" key="54" vol="193" pan="0" len="48"/>
          <note pos="1032" key="64" vol="193" pan="0" len="72"/>
          <note pos="1032" key="52" vol="193" pan="0" len="72"/>
          <note pos="1104" key="71" vol="193" pan="0" len="24"/>
          <note pos="1104" key="59" vol="193" pan="0" len="24"/>
          <note pos="1128" key="72" vol="193" pan="0" len="24"/>
          <note pos="1128" key="60" vol="193" pan="0" len="24"/>
          <note pos="1152" key="71" vol="193" pan="0" len="72"/>
          <note pos="1152" key="59" vol="193" pan="0" len="72"/>
          <note pos="1224" key="62" vol="193" pan="0" len="72"/>
          <note pos="1224" key="50" vol="193" pan="0" len="72"/>
          <note pos="1296" key="71" vol="193" pan="0" len="48"/>
          <note pos="1296" key="59" vol="193" pan="0" len="48"/>
          <note pos="1344" key="69" vol="193" pan="0" len="144"/>
          <note pos="1344" key="57" vol="193" pan="0" len="144"/>
          <note pos="1488" key="64" vol="193" pan="0" len="24"/>
          <note pos="1488" key="52" vol="193" pan="0" len="24"/>
          <note pos="1512" key="67" vol="193" pan="0" len="24"/>
          <note pos="1512" key="55" vol="193" pan="0" len="24"/>
          <note pos="1536" key="71" vol="193" pan="0" len="48"/>
          <note pos="1536" key="59" vol="193" pan="0" len="48"/>
          <note pos="1584" key="67" vol="193" pan="0" len="24"/>
          <note pos="1584" key="55" vol="193" pan="0" len="24"/>
          <note pos="1608" key="67" vol="193" pan="0" len="72"/>
          <note pos="1608" key="55" vol="193" pan="0" len="72"/>
          <note pos="1680" key="71" vol="193" pan="0" len="48"/>
          <note pos="1680" key="59" vol="193" pan="0" len="48"/>
          <note pos="1728" key="72" vol="193" pan="0" len="72"/>
          <note pos="1728" key="60" vol="193" pan="0" len="72"/>
          <note pos="1800" key="71" vol="193" pan="0" len="72"/>
          <note pos="1800" key="59" vol="193" pan="0" len="72"/>
          <note pos="1872" key="69" vol="193" pan="0" len="48"/>
          <note pos="1872" key="57" vol="193" pan="0" len="48"/>
          <note pos="1920" key="71" vol="193" pan="0" len="48"/>
          <note pos="1920" key="59" vol="193" pan="0" len="48"/>
          <note pos="1968" key="67" vol="193" pan="0" len="24"/>
          <note pos="1968" key="55" vol="193" pan="0" len="24"/>
          <note pos="1992" key="67" vol="193" pan="0" len="72"/>
          <note pos="1992" key="55" vol="193" pan="0" len="72"/>
          <note pos="2064" key="71" vol="193" pan="0" len="48"/>
          <note pos="2064" key="59" vol="193" pan="0" len="48"/>
          <note pos="2112" key="69" vol="193" pan="0" len="144"/>
          <note pos="2112" key="57" vol="193" pan="0" len="144"/>
          <note pos="2256" key="64" vol="193" pan="0" len="24"/>
          <note pos="2256" key="60" vol="193" pan="0" len="24"/>
          <note pos="2280" key="66" vol="193" pan="0" len="24"/>
          <note pos="2280" key="62" vol="193" pan="0" len="24"/>
          <note pos="2304" key="67" vol="193" pan="0" len="48"/>
          <note pos="2304" key="64" vol="193" pan="0" len="48"/>
          <note pos="2352" key="66" vol="193" pan="0" len="48"/>
          <note pos="2352" key="62" vol="193" pan="0" len="48"/>
          <note pos="2400" key="64" vol="193" pan="0" len="48"/>
          <note pos="2400" key="60" vol="193" pan="0" len="48"/>
          <note pos="2448" key="71" vol="193" pan="0" len="48"/>
          <note pos="2448" key="67" vol="193" pan="0" len="48"/>
          <note pos="2496" key="69" vol="193" pan="0" len="48"/>
          <note pos="2496" key="66" vol="193" pan="0" len="48"/>
          <note pos="2544" key="67" vol="193" pan="0" len="48"/>
          <note pos="2544" key="64" vol="193" pan="0" len="48"/>
          <note pos="2592" key="66" vol="193" pan="0" len="48"/>
          <note pos="2592" key="62" vol="193" pan="0" len="48"/>
          <note pos="2640" key="62" vol="193" pan="0" len="48"/>
          <note pos="2640" key="59" vol="193" pan="0" len="48"/>
          <note pos="2688" key="64" vol="193" pan="0" len="192"/>
          <note pos="2688" key="59" vol="193" pan="0" len="192"/>
        </pattern>
      </track>
    </trackcontainer>
    <track type="6" name="Automation track" solo="0" muted="0">
      <automationtrack/>
      <automationpattern mute="0" pos="0" prog="0" name="Numerator" tens="1" len="192"/>
      <automationpattern mute="0" pos="0" prog="0" name="Denominator" tens="1" len="192"/>
      <automationpattern mute="0" pos="0" prog="0" name="Tempo" tens="1" len="192"/>
      <automationpattern mute="0" pos="0" prog="0" name="Master volume" tens="1" len="192"/>
      <automationpattern mute="0" pos="0" prog="0" name="Master pitch" tens="1" len="192"/>
    </track>
    <fxmixer x="43" height="333" visible="0" width="1260" minimized="0" maximized="0" y="165">
      <fxchannel name="Master" volume="0.326" muted="0" soloed="0" num="0">
        <fxchain numofeffects="0" enabled="0"/>
      </fxchannel>
      <fxchannel name="kick" volume="0.535" muted="0" soloed="0" num="1">
        <fxchain numofeffects="0" enabled="0"/>
        <send amount="1" channel="0"/>
        <send amount="0.512" channel="10"/>
      </fxchannel>
      <fxchannel name="hat" volume="0.535" muted="0" soloed="0" num="2">
        <fxchain numofeffects="0" enabled="0"/>
        <send amount="1" channel="0"/>
        <send amount="0.38" channel="10"/>
      </fxchannel>
      <fxchannel name="snare" volume="0.674" muted="0" soloed="0" num="3">
        <fxchain numofeffects="1" enabled="1">
          <effect on="1" gate="0" autoquit_denominator="4" wet="1" autoquit="1" autoquit_numerator="4" name="eq" autoquit_syncmode="0">
            <Eq Peak4active="1" Highshelfactive="1" HPactive="0" Peak3bw="0.3" Peak4bw="0.3" HighShelfres="1.435" HPres="0.707" Peak2active="0" LPres="0.707" Peak4gain="-0.718001" Peak3gain="0" LP48="0" HP24="0" Lowshelfactive="0" Peak2bw="0.3" HP="0" LPactive="1" Peak2gain="0" Peak3active="0" Peak1active="0" LP24="0" LP12="1" Lowshelfgain="0" LowShelfres="1.4" Outputgain="0" HighShelfgain="5.04" LP="0" AnalyseOut="1" Peak1bw="0.3" HP12="1" HP48="0" AnalyseIn="1">
              <Inputgain scale_type="log" id="6753652" value="0"/>
              <Peak1gain scale_type="log" id="8257704" value="0"/>
              <HPfreq scale_type="log" id="2234845" value="31"/>
              <LowShelffreq scale_type="log" id="5016811" value="80"/>
              <Peak1freq scale_type="log" id="5537746" value="120"/>
              <Peak2freq scale_type="log" id="6539813" value="250"/>
              <Peak3freq scale_type="log" id="6999518" value="2000"/>
              <Peak4freq scale_type="log" id="770028" value="4000"/>
              <Highshelffreq scale_type="log" id="3686018" value="2497.52"/>
              <LPfreq scale_type="log" id="7588449" value="13865.6"/>
            </Eq>
            <key/>
          </effect>
        </fxchain>
        <send amount="1" channel="0"/>
        <send amount="0.784" channel="10"/>
      </fxchannel>
      <fxchannel name="crash1" volume="0.651" muted="0" soloed="0" num="4">
        <fxchain numofeffects="0" enabled="0"/>
        <send amount="1" channel="0"/>
        <send amount="0.724" channel="10"/>
      </fxchannel>
      <fxchannel name="crash2" volume="0.767" muted="0" soloed="0" num="5">
        <fxchain numofeffects="0" enabled="0"/>
        <send amount="1" channel="0"/>
        <send amount="0.76" channel="10"/>
      </fxchannel>
      <fxchannel name="china" volume="1" muted="0" soloed="0" num="6">
        <fxchain numofeffects="0" enabled="0"/>
        <send amount="1" channel="0"/>
        <send amount="1" channel="10"/>
      </fxchannel>
      <fxchannel name="hitom" volume="0.512" muted="0" soloed="0" num="7">
        <fxchain numofeffects="0" enabled="0"/>
        <send amount="1" channel="0"/>
        <send amount="0.42" channel="10"/>
      </fxchannel>
      <fxchannel name="midtom" volume="0.534" muted="0" soloed="0" num="8">
        <fxchain numofeffects="0" enabled="0"/>
        <send amount="1" channel="0"/>
        <send amount="0.412" channel="10"/>
      </fxchannel>
      <fxchannel name="lotom" volume="0.418" muted="0" soloed="0" num="9">
        <fxchain numofeffects="0" enabled="0"/>
        <send amount="1" channel="0"/>
        <send amount="0.432" channel="10"/>
      </fxchannel>
      <fxchannel name="DRUM PLATE" volume="0.674" muted="0" soloed="0" num="10">
        <fxchain numofeffects="2" enabled="1">
          <effect on="1" gate="0" autoquit_denominator="4" wet="1" autoquit="1" autoquit_numerator="4" name="ladspaeffect" autoquit_syncmode="0">
            <ladspacontrols ports="4">
              <port02 data="0.76538"/>
              <port03 data="0.145119"/>
              <port04 data="0.0005"/>
              <port05 data="1"/>
            </ladspacontrols>
            <key>
              <attribute name="file" value="caps"/>
              <attribute name="plugin" value="Plate2x2"/>
            </key>
          </effect>
          <effect on="1" gate="0" autoquit_denominator="4" wet="1" autoquit="1" autoquit_numerator="4" name="eq" autoquit_syncmode="0">
            <Eq Peak4active="1" Highshelfactive="1" HPactive="1" Peak3bw="0.3" Peak4bw="0.3" HighShelfres="1.4" HPres="0.707" Peak2active="0" LPres="0.707" Peak4gain="0.36" Peak3gain="0" LP48="0" HP24="0" Lowshelfactive="0" Peak2bw="0.3" HP="0" LPactive="0" Peak2gain="0" Peak3active="0" Peak1active="0" LP24="0" LP12="1" Lowshelfgain="0" LowShelfres="1.4" Outputgain="0" HighShelfgain="1.62" LP="0" AnalyseOut="1" Peak1bw="0.3" HP12="1" HP48="0" AnalyseIn="1">
              <Inputgain scale_type="log" id="217936" value="0"/>
              <Peak1gain scale_type="log" id="1412862" value="0"/>
              <HPfreq scale_type="log" id="7725025" value="175.669"/>
              <LowShelffreq scale_type="log" id="399642" value="80"/>
              <Peak1freq scale_type="log" id="3213708" value="120"/>
              <Peak2freq scale_type="log" id="1180890" value="250"/>
              <Peak3freq scale_type="log" id="5654965" value="2000"/>
              <Peak4freq scale_type="log" id="757114" value="3592.47"/>
              <Highshelffreq scale_type="log" id="3326661" value="610.728"/>
              <LPfreq scale_type="log" id="825391" value="18000"/>
            </Eq>
            <key/>
          </effect>
        </fxchain>
        <send amount="1" channel="0"/>
      </fxchannel>
      <fxchannel name="rhythm guitar" volume="0.556" muted="0" soloed="0" num="11">
        <fxchain numofeffects="2" enabled="1">
          <effect on="1" gate="0" autoquit_denominator="4" wet="1" autoquit="1" autoquit_numerator="4" name="ladspaeffect" autoquit_syncmode="0">
            <ladspacontrols link="1" ports="22">
              <port02 link="1" data="0"/>
              <port03 link="1" data="-13.65"/>
              <port04 link="1" data="50"/>
              <port05 link="1" data="50"/>
              <port06 link="1" data="50"/>
              <port07 link="1" data="50"/>
              <port08 link="1" data="50"/>
              <port09 link="1" data="0"/>
              <port010 link="1" data="0"/>
              <port011 link="1" data="0"/>
              <port012 link="1" data="0"/>
              <port12 data="0"/>
              <port13 data="-13.65"/>
              <port14 data="50"/>
              <port15 data="50"/>
              <port16 data="50"/>
              <port17 data="50"/>
              <port18 data="50"/>
              <port19 data="0"/>
              <port110 data="0"/>
              <port111 data="0"/>
              <port112 data="0"/>
            </ladspacontrols>
            <key>
              <attribute name="file" value="ladspa_guitarix"/>
              <attribute name="plugin" value="guitarix-amp"/>
            </key>
          </effect>
          <effect on="0" gate="0" autoquit_denominator="4" wet="1" autoquit="1" autoquit_numerator="4" name="stereoenhancer" autoquit_syncmode="0">
            <stereoenhancercontrols width="180"/>
            <key/>
          </effect>
        </fxchain>
        <send amount="1" channel="0"/>
      </fxchannel>
      <fxchannel name="lgt" volume="0.768" muted="0" soloed="0" num="12">
        <fxchain numofeffects="4" enabled="1">
          <effect on="1" gate="0" autoquit_denominator="4" wet="1" autoquit="1" autoquit_numerator="4" name="ladspaeffect" autoquit_syncmode="0">
            <ladspacontrols link="1" ports="4">
              <port00 link="1">
                <data scale_type="log" id="354059" value="13230"/>
              </port00>
              <port01 link="1" data="1"/>
              <port10>
                <data scale_type="log" id="451672" value="13230"/>
              </port10>
              <port11 data="1"/>
            </ladspacontrols>
            <key>
              <attribute name="file" value="pointer_cast_1910"/>
              <attribute name="plugin" value="pointerCastDistortion"/>
            </key>
          </effect>
          <effect on="1" gate="0" autoquit_denominator="4" wet="1" autoquit="1" autoquit_numerator="4" name="ladspaeffect" autoquit_syncmode="0">
            <ladspacontrols link="1" ports="4">
              <port01 link="1" data="10"/>
              <port02 link="1" data="1"/>
              <port11 data="10"/>
              <port12 data="1"/>
            </ladspacontrols>
            <key>
              <attribute name="file" value="caps"/>
              <attribute name="plugin" value="PreampIII"/>
            </key>
          </effect>
          <effect on="1" gate="0" autoquit_denominator="4" wet="1" autoquit="1" autoquit_numerator="4" name="ladspaeffect" autoquit_syncmode="0">
            <ladspacontrols link="1" ports="4">
              <port01 link="1" data="1"/>
              <port02 link="1" data="0"/>
              <port11 data="1"/>
              <port12 data="0"/>
            </ladspacontrols>
            <key>
              <attribute name="file" value="caps"/>
              <attribute name="plugin" value="CabinetII"/>
            </key>
          </effect>
          <effect on="1" gate="0" autoquit_denominator="4" wet="1" autoquit="1" autoquit_numerator="4" name="ladspaeffect" autoquit_syncmode="0">
            <ladspacontrols ports="1">
              <port02 data="0.29125"/>
            </ladspacontrols>
            <key>
              <attribute name="file" value="caps"/>
              <attribute name="plugin" value="Narrower"/>
            </key>
          </effect>
        </fxchain>
        <send amount="1" channel="0"/>
        <send amount="0.484" channel="13"/>
      </fxchannel>
      <fxchannel name="FX 14" volume="0.535" muted="0" soloed="0" num="13">
        <fxchain numofeffects="1" enabled="1">
          <effect on="1" gate="0" autoquit_denominator="4" wet="1" autoquit="1" autoquit_numerator="4" name="ladspaeffect" autoquit_syncmode="0">
            <ladspacontrols link="0" ports="4">
              <port00 data_numerator="4" link="0" data="112.5" data_denominator="4" data_syncmode="0"/>
              <port01 data_numerator="4" link="0" data="0" data_denominator="4" data_syncmode="0"/>
              <port10 data_numerator="4" data="301.25" data_denominator="4" data_syncmode="0"/>
              <port11 data_numerator="4" data="0" data_denominator="4" data_syncmode="0"/>
            </ladspacontrols>
            <key>
              <attribute name="file" value="mod_delay_1419"/>
              <attribute name="plugin" value="modDelay"/>
            </key>
          </effect>
        </fxchain>
        <send amount="1" channel="0"/>
      </fxchannel>
      <fxchannel name="bass" volume="1" muted="0" soloed="0" num="14">
        <fxchain numofeffects="1" enabled="1">
          <effect on="0" gate="0" autoquit_denominator="4" wet="1" autoquit="1" autoquit_numerator="4" name="eq" autoquit_syncmode="0">
            <Eq Peak4active="1" Highshelfactive="0" HPactive="0" Peak3bw="1.828" Peak4bw="0.811" HighShelfres="1.4" HPres="0.707" Peak2active="1" LPres="0.707" Peak4gain="5.76" Peak3gain="18" LP48="0" HP24="0" Lowshelfactive="1" Peak2bw="2.866" HP="0" LPactive="0" Peak2gain="18" Peak3active="1" Peak1active="0" LP24="0" LP12="1" Lowshelfgain="-6.477" LowShelfres="1.21" Outputgain="8" HighShelfgain="0" LP="0" AnalyseOut="1" Peak1bw="0.3" HP12="1" HP48="0" AnalyseIn="1">
              <Inputgain scale_type="log" id="1928132" value="0"/>
              <Peak1gain scale_type="log" id="5028906" value="0"/>
              <HPfreq scale_type="log" id="6101787" value="24.795"/>
              <LowShelffreq scale_type="log" id="5056230" value="179.84"/>
              <Peak1freq scale_type="log" id="3218393" value="120"/>
              <Peak2freq scale_type="log" id="4083145" value="8057.72"/>
              <Peak3freq scale_type="log" id="4897974" value="4557.45"/>
              <Peak4freq scale_type="log" id="5404987" value="4000"/>
              <Highshelffreq scale_type="log" id="3053663" value="12000"/>
              <LPfreq scale_type="log" id="1445410" value="18000"/>
            </Eq>
            <key/>
          </effect>
        </fxchain>
        <send amount="1" channel="0"/>
      </fxchannel>
      <fxchannel name="synthStrings" volume="1" muted="0" soloed="0" num="15">
        <fxchain numofeffects="0" enabled="0"/>
        <send amount="1" channel="0"/>
      </fxchannel>
      <fxchannel name="FX 16" volume="1" muted="0" soloed="0" num="16">
        <fxchain numofeffects="0" enabled="0"/>
        <send amount="1" channel="0"/>
      </fxchannel>
      <fxchannel name="FX 17" volume="1" muted="0" soloed="0" num="17">
        <fxchain numofeffects="0" enabled="0"/>
        <send amount="1" channel="0"/>
      </fxchannel>
    </fxmixer>
    <ControllerRackView x="680" height="200" visible="0" width="350" minimized="0" maximized="0" y="282"/>
    <pianoroll x="169" height="480" visible="0" width="860" minimized="0" maximized="1" y="45"/>
    <automationeditor x="395" height="400" visible="0" width="860" minimized="0" maximized="0" y="78"/>
    <projectnotes x="700" height="400" visible="0" width="681" minimized="0" maximized="0" y="1"><![CDATA[<!DOCTYPE HTML PUBLIC "-//W3C//DTD HTML 4.0//EN" "http://www.w3.org/TR/REC-html40/strict.dtd">
<html><head><meta name="qrichtext" content="1" /><style type="text/css">
p, li { white-space: pre-wrap; }
</style></head><body style=" font-family:'Sans Serif'; font-size:9pt; font-weight:400; font-style:normal;">
<p style="-qt-paragraph-type:empty; margin-top:0px; margin-bottom:0px; margin-left:0px; margin-right:0px; -qt-block-indent:0; text-indent:0px; font-family:'Ubuntu'; font-size:10pt;"><br /></p></body></html>]]></projectnotes>
    <timeline lp0pos="0" lp1pos="9600" lpstate="0"/>
    <controllers/>
  </song>
</lmms-project>
